<?xml version="1.0" standalone="no"?>
<!DOCTYPE svg PUBLIC "-//W3C//DTD SVG 1.1//EN" "http://www.w3.org/Graphics/SVG/1.1/DTD/svg11.dtd" >
<svg xmlns="http://www.w3.org/2000/svg" xmlns:xlink="http://www.w3.org/1999/xlink" version="1.1" width="2048" height="2048" viewBox="-10 0 2058 2048">
   <path fill="currentColor"
d="M1023 0q-62 1 -106.5 46t-44.5 107v2v999v1q0 63 45 108t108 45t108 -45t45 -108v-1v-999v-2q0 -63 -45 -108t-108 -45h-2zM478 504l-3 -1q-29 0 -62.5 15.5t-52.5 37.5q-109 121 -169.5 275t-60.5 323q0 121 32.5 236.5t90 213.5t140 181t180.5 140.5t214 90t237 32.5
t236.5 -32t213.5 -90t181 -140.5t140.5 -180.5t90 -214t32.5 -237q0 -169 -60.5 -323t-169.5 -275q-19 -22 -52.5 -37.5t-62.5 -15.5q-63 0 -108 44.5t-45 108.5q0 25 12 55.5t29 48.5q72 80 111.5 181t39.5 213q0 120 -46.5 229t-125 187.5t-187.5 125t-229 46.5
t-229 -46.5t-187.5 -125t-125 -187.5t-46.5 -229q0 -112 39.5 -213t111.5 -181q17 -18 29 -48.5t12 -55.5q0 -63 -44 -107.5t-106 -44.5z" />
</svg>
