<?xml version="1.0" standalone="no"?>
<!DOCTYPE svg PUBLIC "-//W3C//DTD SVG 1.1//EN" "http://www.w3.org/Graphics/SVG/1.1/DTD/svg11.dtd" >
<svg xmlns="http://www.w3.org/2000/svg" xmlns:xlink="http://www.w3.org/1999/xlink" version="1.1" width="2048" height="2048" viewBox="-10 0 2068 2048">
   <path fill="currentColor"
d="M849 1347v-642q0 -73 51 -124t124 -51t124 51t51 124v642q0 73 -51 124t-124 51t-124 -51.5t-51 -123.5zM0 1024q0 -209 81 -398.5t218 -326.5t326.5 -218t398.5 -81v175v175q-137 0 -260 52t-216.5 145.5t-145.5 216.5t-52 260t52 260t145.5 216.5t216.5 145.5t260 52
t260 -52t216.5 -145.5t145.5 -216.5t52 -260t-52 -260t-145.5 -216.5t-216.5 -145.5t-260 -52v-175v-175q208 0 397.5 81t327 218t218.5 327t81 398t-81 397.5t-218 327t-327 218.5t-398 81q-209 0 -398.5 -81.5t-326.5 -218.5t-218 -326.5t-81 -397.5z" />
</svg>
