<?xml version="1.0" standalone="no"?>
<!DOCTYPE svg PUBLIC "-//W3C//DTD SVG 1.1//EN" "http://www.w3.org/Graphics/SVG/1.1/DTD/svg11.dtd" >
<svg xmlns="http://www.w3.org/2000/svg" xmlns:xlink="http://www.w3.org/1999/xlink" version="1.1" width="2048" height="2048" viewBox="-10 0 2058 2048">
   <path fill="currentColor"
d="M1217 55q56 -55 135 -55q80 0 137 57t57 137q0 42 -18 80l-48 108q-49 107 -98 215l-49 107h272q49 0 91 19t71 49.5t45.5 71t17 82.5t-16.5 85.5t-52 77.5l-939 914q-47 45 -112 45h-10h-19h-10q-66 0 -113 -47t-47 -113q0 -31 12 -61q0 1 49 -120l100 -242l49 -121
h-278q-49 0 -91 -19t-71 -49.5t-45.5 -71t-17 -82.5t16.5 -85.5t52 -77.5l929 -904h1zM1351 193l-930 904q-10 10 -10 23t9.5 22.5t22.5 9.5h105h211h105q40 0 68 28t28 68q0 19 -7 36l-55 134l-110 268l-54 134l893 -869q10 -10 10 -23t-9.5 -22.5t-22.5 -9.5h-105h-211
h-105q-40 0 -68 -28t-28 -68q0 -21 9 -40l64 -141t128 -283l65 -141v-1q0 -1 -1 -1v-1h-1q-1 0 -1 1z" />
</svg>
