<?xml version="1.0" standalone="no"?>
<!DOCTYPE svg PUBLIC "-//W3C//DTD SVG 1.1//EN" "http://www.w3.org/Graphics/SVG/1.1/DTD/svg11.dtd" >
<svg xmlns="http://www.w3.org/2000/svg" xmlns:xlink="http://www.w3.org/1999/xlink" version="1.1" width="2048" height="2048" viewBox="-10 0 2068 2048">
   <path fill="currentColor"
d="M1024 0q-207 0 -396.5 81.5t-327 219t-219 327t-81.5 396.5t81.5 396.5t219 327t327 219t396.5 81.5t396.5 -81.5t327 -219t219 -327t81.5 -396.5t-81.5 -396.5t-219 -327t-327 -219t-396.5 -81.5zM1024 351q138 0 262.5 53t214.5 143t143 214.5t53 262.5t-53 262.5
t-143 214.5t-214.5 143t-262.5 53t-262.5 -53t-214.5 -143t-143 -214.5t-53 -262.5t53 -262.5t143 -214.5t214.5 -143t262.5 -53z" />
</svg>
