<?xml version="1.0" standalone="no"?>
<!DOCTYPE svg PUBLIC "-//W3C//DTD SVG 1.1//EN" "http://www.w3.org/Graphics/SVG/1.1/DTD/svg11.dtd" >
<svg xmlns="http://www.w3.org/2000/svg" xmlns:xlink="http://www.w3.org/1999/xlink" version="1.1" width="2048" height="2048" viewBox="-10 0 2068 2048">
   <path fill="currentColor"
d="M1655 136l27 145h366q-3 102 -71 240h-253l37 268q52 4 135 14.5t101 12.5v180q-98 -28 -223 -28q63 457 83 963h-220q0 -476 -61 -997.5t-147 -816.5zM1528 948q-209 -13 -479 -13q-212 0 -385 11q-2 22 -14.5 164.5t-15 178.5t-11.5 151t-11.5 174t-5.5 148.5t-3 168.5
h-218q16 -532 60 -963t143 -832l225 -19q0 1 -18 64.5t-25 99.5h646l51 234h-739q-17 73 -42 240q0 4 -1 10.5t-1 10.5q81 -8 302 -8v-165h207v162q172 0 310 11q5 30 12.5 86t12.5 86zM502 281l-44 240h-380q-66 -117 -78 -240h502zM390 961q-60 3 -190 20q-69 10 -112 13
v-168q28 -7 129 -19.5t198 -17.5q-25 120 -25 172z" />
</svg>
