<?xml version="1.0" standalone="no"?>
<!DOCTYPE svg PUBLIC "-//W3C//DTD SVG 1.1//EN" "http://www.w3.org/Graphics/SVG/1.1/DTD/svg11.dtd" >
<svg xmlns="http://www.w3.org/2000/svg" xmlns:xlink="http://www.w3.org/1999/xlink" version="1.1" width="2048" height="2048" viewBox="-10 0 2058 2048">
   <path fill="currentColor"
d="M1028 1864q99 0 197.5 -29t184 -80.5t159 -125t125.5 -158.5t82 -184.5t30 -200.5q0 -190 -100 -302t-270 -112q-162 0 -309 101h-199q-152 -101 -307 -101q-170 0 -269.5 112t-99.5 302q0 104 30 205t82 186t125 157t158 123t183 79t198 28zM996 0l89 630h27l18 -269
q27 -44 75 -79q98 -78 227 -78q241 0 361 110q54 50 73 107l-420 -78q-62 62 -117 158l35 -10q28 -10 80 -10q115 0 216.5 43.5t176.5 121.5t119 193t44 250q0 137 -28.5 259t-79 218t-121.5 175.5t-155.5 136t-182 95t-200.5 57t-210 18.5q-149 0 -282.5 -33t-240 -93.5
t-192 -146t-142.5 -189t-87.5 -223.5t-30.5 -250q0 -141 44 -262t118.5 -204t177 -129.5t216.5 -46.5q18 0 87 5q-144 -155 -264 -155l-292 79q11 -55 60 -104q107 -107 337 -107q68 0 126.5 15t102.5 43t72 52.5t57 56.5l-97 -322z" />
</svg>
