<?xml version="1.0" standalone="no"?>
<!DOCTYPE svg PUBLIC "-//W3C//DTD SVG 1.1//EN" "http://www.w3.org/Graphics/SVG/1.1/DTD/svg11.dtd" >
<svg xmlns="http://www.w3.org/2000/svg" xmlns:xlink="http://www.w3.org/1999/xlink" version="1.1" width="2048" height="2048" viewBox="-10 0 2058 2048">
   <path fill="currentColor"
d="M1098 1719v-611l-431 -278l-91 142l357 229v518h165zM996 0l89 630h27l18 -269q27 -44 75 -79q98 -78 227 -78q241 0 361 110q54 50 73 107l-420 -78q-62 62 -117 158l35 -10q28 -10 80 -10q115 0 216.5 43.5t176.5 121.5t119 193t44 250q0 137 -28.5 259t-79 218
t-121.5 175.5t-155.5 136t-182 95t-200.5 57t-210 18.5q-149 0 -282.5 -33t-240 -93.5t-192 -146t-142.5 -189t-87.5 -223.5t-30.5 -250q0 -141 44 -262t118.5 -204t177 -129.5t216.5 -46.5q18 0 87 5q-144 -155 -264 -155l-292 79q11 -55 60 -104q107 -107 337 -107
q68 0 126.5 15t102.5 43t72 52.5t57 56.5l-97 -322z" />
</svg>
