<?xml version="1.0" standalone="no"?>
<!DOCTYPE svg PUBLIC "-//W3C//DTD SVG 1.1//EN" "http://www.w3.org/Graphics/SVG/1.1/DTD/svg11.dtd" >
<svg xmlns="http://www.w3.org/2000/svg" xmlns:xlink="http://www.w3.org/1999/xlink" version="1.1" width="2048" height="2048" viewBox="-10 0 2068 2048">
   <path fill="currentColor"
d="M737 98q-23 36 -30 77q-16 100 62 190q35 46 50.5 88.5t12 75t-18.5 62.5t-37.5 52t-46.5 40.5t-45.5 30t-35 20t-13.5 11.5q25 -49 36 -85.5t11 -60t-12 -48.5t-26 -43t-38.5 -52t-43.5 -66q-55 -100 55 -205q52 -52 120 -87zM957 10q-16 26 -26 68q-15 84 53 165
q35 44 48.5 85.5t5.5 72.5t-25.5 58t-42 46.5t-46.5 33.5t-37.5 23.5t-15.5 12.5q21 -43 29.5 -75t8.5 -53t-10.5 -42.5t-22.5 -37t-33.5 -44t-37.5 -56.5q-48 -86 47 -181q40 -41 105 -76zM1588 1261q0 48 38 83t87 35t82 -34.5t33 -83.5q0 -48 -33.5 -83t-81.5 -35
q-49 0 -87 35.5t-38 82.5zM1439 871v201q45 -70 117 -109t157 -39q90 0 167.5 45t122.5 122.5t45 167t-45.5 166t-122.5 121.5t-167 45q-87 0 -162 -41.5t-120 -113.5q-20 127 -83.5 238.5t-156.5 191.5t-215 126t-254 46q-144 0 -277 -54t-230.5 -146t-156 -220.5
t-58.5 -270.5v-476q0 -29 16 -43t49 -14h1308q34 0 50 14t16 43z" />
</svg>
