<?xml version="1.0" standalone="no"?>
<!DOCTYPE svg PUBLIC "-//W3C//DTD SVG 1.1//EN" "http://www.w3.org/Graphics/SVG/1.1/DTD/svg11.dtd" >
<svg xmlns="http://www.w3.org/2000/svg" xmlns:xlink="http://www.w3.org/1999/xlink" version="1.1" width="2048" height="2048" viewBox="-10 0 2058 2048">
   <path fill="currentColor"
d="M1998 350l-16 13q-41 -27 -113.5 -47.5t-165.5 -20.5q-18 0 -38 1.5t-33 3t-41.5 5.5t-40.5 5q95 33 184 101q188 143 188 359q0 122 -56 257h-27q-47 -122 -100 -202q-52 -86 -125 -152t-149 -74q51 50 95 110q95 135 95 282q0 131 -82 258h-21q-27 -89 -72 -175
t-97.5 -156t-97 -120t-90.5 -94q-1 1 -14.5 54.5t-18.5 76t-19.5 84.5t-22 103.5t-20 108t-19.5 122t-15 122t-11 133t-3 129.5q0 20 1 52.5t1 52.5l35 -3l94 -255q257 38 409 171q64 54 114 129q-65 72 -177 133q-252 131 -648.5 131t-653.5 -131q-116 -61 -177 -133
q53 -85 142 -150q203 -150 510 -167q59 -427 267 -830q-71 6 -146 20.5t-170.5 43.5t-197 82.5t-191.5 125.5h-22q0 -23 8 -59.5t29 -88t52 -105t81.5 -108.5t112 -99.5t150 -76t190.5 -40.5q-34 -22 -80 -42q-110 -45 -211 -45q-138 0 -292 82l-13 -19q60 -89 134 -152
q39 -32 77 -57t88 -49t108.5 -37t121.5 -13q217 0 443 152q56 -25 95 -36q125 -37 227 -37q302 0 435 271z" />
</svg>
