<?xml version="1.0" standalone="no"?>
<!DOCTYPE svg PUBLIC "-//W3C//DTD SVG 1.1//EN" "http://www.w3.org/Graphics/SVG/1.1/DTD/svg11.dtd" >
<svg xmlns="http://www.w3.org/2000/svg" xmlns:xlink="http://www.w3.org/1999/xlink" version="1.1" width="2048" height="2048" viewBox="-10 0 2058 2048">
   <path fill="currentColor"
d="M1768 922q90 0 137.5 36t47.5 91q0 44 -21.5 76.5t-54.5 50t-71 33.5t-70.5 28t-54.5 32t-22 46q0 23 15 50.5t30 58t15 59.5q0 49 -34.5 83t-87.5 48.5t-119 14.5q-94 0 -152.5 28t-58.5 74q0 21 13.5 64t13.5 70q0 81 -51 132t-140 51q-99 0 -199.5 -39t-188.5 -107
t-170.5 -160.5t-150 -198.5t-124 -222.5t-95 -232t-59.5 -227t-21 -206.5q0 -144 38 -268.5t101.5 -208t146 -131t172.5 -47.5q118 0 221.5 84t185.5 259q63 136 139 239.5t153.5 167t167 103.5t172.5 54.5t176 14.5zM367 878q46 0 77.5 -55.5t31.5 -138.5t-32 -142t-77 -59
q-44 0 -73 58t-29 143q0 84 29 139t73 55zM755.5 761q46.5 0 79 -46.5t32.5 -114.5t-32.5 -115.5t-79 -47.5t-79 47.5t-32.5 115.5t32.5 114.5t79 46.5z" />
</svg>
