<?xml version="1.0" standalone="no"?>
<!DOCTYPE svg PUBLIC "-//W3C//DTD SVG 1.1//EN" "http://www.w3.org/Graphics/SVG/1.1/DTD/svg11.dtd" >
<svg xmlns="http://www.w3.org/2000/svg" xmlns:xlink="http://www.w3.org/1999/xlink" version="1.1" width="2048" height="2048" viewBox="-10 0 2058 2048">
   <path fill="currentColor"
d="M1089 1681v365q-14 0 -39.5 1t-39.5 1q-217 0 -395 -66.5t-298 -186t-185.5 -287t-65.5 -366.5q0 -144 45 -268t121.5 -209t181 -133.5t221.5 -48.5q23 0 89 5q-144 -159 -270 -159l-300 81q15 -61 64 -106q118 -109 344 -109q216 0 367 170l-98 -329l207 -36
q14 45 25 104q26 132 26 225v519q0 89 -56 89q-30 0 -66 -19t-74.5 -38t-74.5 -19q-63 0 -118 33t-92 86.5t-58 120.5t-21 135q0 47 11 97.5t34.5 100.5t56 90t79 64.5t100.5 24.5q38 0 70.5 -12t51 -26.5t45 -26.5t54.5 -12q12 0 21 5.5t18 20t14 45t5 74.5zM1377 473h48
q117 0 218.5 42.5t177 118.5t118.5 190.5t43 252.5q0 167 -59 323.5t-160.5 279t-238.5 211.5t-292 130v-429q0 -95 -46 -148.5t-133 -53.5q-53 0 -95 12t-62.5 26t-43 26t-42.5 12q-44 0 -75.5 -37.5t-45 -88t-13.5 -104.5q0 -56 15.5 -105.5t50 -84t81.5 -34.5
q22 0 43.5 11.5t39.5 25t56.5 24.5t90.5 11q82 0 130.5 -57.5t48.5 -145.5v-599q61 -41 124.5 -64t147.5 -23q224 0 322 112q44 48 55 108l-405 -75q-28 30 -40 44.5t-28 38t-31 50.5z" />
</svg>
