<?xml version="1.0" standalone="no"?>
<!DOCTYPE svg PUBLIC "-//W3C//DTD SVG 1.1//EN" "http://www.w3.org/Graphics/SVG/1.1/DTD/svg11.dtd" >
<svg xmlns="http://www.w3.org/2000/svg" xmlns:xlink="http://www.w3.org/1999/xlink" version="1.1" width="2048" height="2048" viewBox="-31 0 2089 2048">
   <path fill="currentColor"
d="M1648 1230l-59.5 34t-65.5 37t-60 32.5t-62.5 32t-51 23t-49 17.5t-34.5 5q-3 0 -37 3.5t-63 0.5t-59 -16q-22 -10 -53 -26t-55.5 -29.5t-52.5 -27t-49 -20.5t-40.5 -6t-30.5 13q-9 9 -27 28t-24 24.5t-20 16t-28 17.5t-35 15l12 12q18 18 37.5 46t32.5 47.5t37.5 38
t57.5 25.5q80 17 187 -21q-62 45 -147 65t-164 18q-31 0 -71.5 -16t-75 -35.5t-77 -37t-77.5 -21t-77 12.5q-50 23 -89.5 80t-36.5 124l1 16q39 -26 70.5 -32t60 4t68.5 37q24 17 53 26.5t68 17t57 12.5q-26 6 -60.5 17t-59.5 20.5t-59 18t-59 8t-59 -7.5q-31 -9 -67.5 8
t-70.5 47.5l-68 61t-70 49t-66 11.5q5 -336 5 -1617q0 -44 -3 -198t-2 -238q12 1 19 2t14 6.5t9.5 9t12.5 18.5t17 26q23 29 49.5 41.5t50.5 12t53.5 -13.5t51 -27.5t49.5 -35.5q117 -91 227 -24q-20 -1 -36 1.5t-30.5 11.5t-24 15.5t-23.5 24t-20.5 26.5t-23 34t-23.5 36
q-10 14 -59.5 43.5t-66.5 44.5q-39 35 -17 71q12 20 27.5 30.5t34 11t36.5 -2.5t40.5 -15t39 -21.5t38.5 -27.5t33.5 -27.5t30 -26t21.5 -18.5q52 -45 93.5 -65.5t88 -18t98.5 32.5q50 27 96 28.5t82.5 -14.5t82.5 -49q-22 25 -44.5 44t-50 34.5t-47 24.5t-56.5 24.5
t-58 24.5q-84 38 -95 111q-8 51 26 93.5t96 56.5q50 12 104 -4.5t94 -44t93.5 -62t91.5 -48.5q219 -82 450 67q48 31 82 50t77 36t78.5 20t76 -6.5t79.5 -34.5q-43 47 -94.5 71t-102.5 26.5t-105 -3.5t-109 -13t-107.5 -7.5t-108 17.5t-103.5 57q-5 5 -28 24t-29 23.5
t-24.5 19t-28 20t-26 15t-32 16t-32.5 11.5l11 13q23 25 55 38.5t85.5 23t58.5 10.5q50 13 111 -1q-58 34 -106 52.5t-104 21.5q-16 2 -46.5 3t-46.5 2t-41 4.5t-41.5 10.5t-38 19t-40.5 30.5t-38 44.5l-16 21l23 -5q20 -4 51 15t84 62.5t77 59.5q23 17 47 28t55 20l31 9
q38 14 139.5 -4.5t219.5 -53.5z" />
</svg>
