<?xml version="1.0" standalone="no"?>
<!DOCTYPE svg PUBLIC "-//W3C//DTD SVG 1.1//EN" "http://www.w3.org/Graphics/SVG/1.1/DTD/svg11.dtd" >
<svg xmlns="http://www.w3.org/2000/svg" xmlns:xlink="http://www.w3.org/1999/xlink" version="1.1" width="2048" height="2048" viewBox="-11 0 2070 2048">
   <path fill="currentColor"
d="M16 58q12 -18 27.5 -31.5t24.5 -13.5q13 1 20.5 2t15 8t10 9.5t13 18.5t16.5 23q20 26 44 37.5t43.5 11.5t45.5 -11.5t42.5 -22.5t41.5 -30q128 -99 239 -31l-65 92h-7q-21 0 -31 0.5t-20.5 9t-15 15t-19.5 30t-29 43.5q-17 25 -37.5 43.5t-35 27t-31 16.5t-19.5 10
q2 3 4 7q10 16 23 26t28.5 10.5t30.5 -1.5t33.5 -12t32.5 -18t32.5 -23t29 -24t26.5 -23t21 -18q86 -74 151.5 -88t143.5 28q45 25 85.5 27t70 -10.5t66.5 -38.5l6 -4h16q25 6 -21 58q-29 33 -57.5 57t-58 40.5t-51 26.5t-55.5 23.5t-52 21.5t-29 17q-2 4 -3 10q-6 39 25 78
t87 51q45 11 92.5 -3.5t82.5 -39.5t87 -57.5t95 -48.5q215 -80 439 63q55 35 98.5 56t90 33.5t88.5 7t80 -30.5l14 2q22 11 -25 61q-49 53 -105.5 83t-110.5 37t-109.5 4.5t-108.5 -9t-101 -9.5t-94 7.5t-80 38.5q-79 65 -103 81q21 11 48 18.5t59.5 13.5t45.5 9q43 11 95 0
q3 -1 5 -1q-1 8 -4.5 20t-15 36t-25.5 32q-58 33 -107 51.5t-104 22.5q-13 1 -45 2.5t-45.5 3t-36 4.5t-37.5 8t-28 14q22 5 51 25.5t70.5 54t63.5 49.5q22 15 44.5 25t51.5 19t30 9q33 12 130 -5.5t206 -49.5l-11.5 22.5t-22.5 44.5l-11 22q-3 1 -5 3q-17 9 -57 31.5
t-61.5 34t-57.5 31t-59.5 30.5t-51 22.5t-48.5 16.5t-36 5q-1 0 -34.5 3t-62.5 0t-58 -15t-87.5 -43t-97 -47t-57.5 -11q-43 43 -52 51q9 12 26.5 38t27.5 38.5t31 26.5t47 20q74 15 171 -19q1 6 0.5 16t-10 32.5t-27.5 35.5l-12 8q-122 81 -303 78q-38 -1 -90 -22.5
t-91.5 -43t-89 -34t-81.5 5.5q-19 9 -33 23q-29 29 -27 87q37 -21 69 -24t57 7t61 34q22 15 49.5 23.5t64 16t55.5 12.5l-60 92q-4 1 -7 2q-23 5 -55 15.5t-55.5 19t-56.5 16.5t-57.5 7.5t-58.5 -7.5q-24 -8 -55 9.5t-62.5 46t-64.5 57.5t-71 45.5t-72 8.5q-6 -1 -6 -8
t5 -18.5t13 -23.5q14 -19 29 -31.5t23 -10.5q22 5 53 -13.5t62.5 -47.5t65.5 -57.5t73 -43.5t73 -5q37 11 81 4q-19 -8 -35 -19q-54 -36 -90.5 -39t-80.5 26q-21 14 -22 -3l-1 -15q-2 -50 24.5 -108t76.5 -108q39 -40 78 -58q33 -15 67 -16t63 8t61 24t58 30t55 27.5
t52 14.5q-19 -17 -46 -57.5t-45 -57.5l-11 -11q-9 -10 5.5 -32t34.5 -40l19 -18q25 -9 35.5 -15t16 -9.5t21 -20.5t30.5 -32q13 -13 26 -21q19 -11 42 -12t45 6t47.5 20t47.5 26.5t48.5 28.5t46.5 24q28 11 54 14t58 0t36 -3q28 0 90 -28q-96 16 -131 4q-5 -2 -23 -7.5
t-32.5 -10t-35 -15t-38.5 -22.5q-22 -16 -74 -56t-80 -57.5t-41 -15.5l-22 5q-23 4 -10 -22q7 -16 22 -34l15 -20q22 -29 44.5 -51t39.5 -36.5t39.5 -24.5t35 -15t36 -8t31.5 -3.5t32 -2.5q-63 -16 -94 -50l-11 -11q-9 -10 6.5 -32.5t34.5 -39.5l20 -18q18 -6 34.5 -13.5
t27 -12.5t27.5 -17.5t23.5 -17.5t30 -24.5t31.5 -26.5q36 -29 74.5 -47.5t68 -26.5t70.5 -8.5t63.5 1.5t65.5 8q15 2 22 3q-35 -19 -85 -51q-217 -138 -420 -63q-29 11 -79 43t-91 59t-97 44t-106 5q-63 -14 -96.5 -55.5t-25.5 -99.5q7 -44 41 -91q20 -27 44 -49
q28 -24 62 -40q-28 -7 -57 -23q-49 -27 -90.5 -29.5t-74.5 13.5t-75 52q-4 3 -12 11q-17 15 -28.5 24.5t-35 28.5t-42 30t-43.5 25.5t-45.5 19t-41.5 5t-38.5 -10t-30.5 -31.5q-28 -46 33 -118q11 -13 24 -24q18 -17 38.5 -30.5t40 -24t26.5 -15.5l14 -21t18.5 -27t18.5 -25
t25 -29q-62 -6 -119 39q-29 22 -53.5 37.5t-55.5 28.5t-56.5 14.5t-53 -11t-49.5 -41.5q-8 -11 -17 -24t-11.5 -16.5t-8 -8t-11 -5.5t-16.5 -1q-16 -1 0 -32q3 -8 9 -16z" />
</svg>
