<?xml version="1.0" standalone="no"?>
<!DOCTYPE svg PUBLIC "-//W3C//DTD SVG 1.1//EN" "http://www.w3.org/Graphics/SVG/1.1/DTD/svg11.dtd" >
<svg xmlns="http://www.w3.org/2000/svg" xmlns:xlink="http://www.w3.org/1999/xlink" version="1.1" width="2048" height="2048" viewBox="-10 0 2089 2048">
   <path fill="currentColor"
d="M400 1230l59.5 34t65.5 37t59.5 32.5t62.5 32t51.5 23t49 17.5t34.5 5q3 0 37 3.5t63 0.5t59 -16q22 -10 53 -26t55.5 -29.5t52.5 -27t49 -20.5t40.5 -6t30.5 13q9 9 27 28t24 24.5t20 16t28 17.5t35 15l-12 12q-18 18 -37.5 46t-32.5 47.5t-37.5 38t-57.5 25.5
q-80 17 -187 -21q62 45 147 65t164 18q31 0 71.5 -16t75 -35.5t77 -37t77.5 -21t77 12.5q50 23 89.5 80t36.5 124l-1 16q-38 -26 -70 -32t-60.5 4t-68.5 37q-24 17 -53 26.5t-68 17t-57 12.5q26 6 60.5 17t59.5 20.5t59 18t59 8t59 -7.5q31 -9 67.5 8t70.5 47.5l68 61t70 49
t66 11.5q-5 -336 -5 -1617q0 -44 3 -198t2 -238q-12 1 -19 2t-14 6.5t-9.5 9t-12.5 18.5t-17 26q-23 29 -49.5 41.5t-50.5 12t-53.5 -13.5t-51 -27.5t-49.5 -35.5q-117 -91 -227 -24q20 -1 36 1.5t30.5 11.5t24 15.5t23.5 24t20.5 26.5t23 34t23.5 36q10 14 59.5 43.5
t66.5 44.5q39 35 17 71q-12 20 -27.5 30.5t-34 11t-36.5 -2.5t-40.5 -15t-39 -21.5t-38.5 -27.5t-33.5 -27.5t-30 -26t-21.5 -18.5q-52 -45 -93.5 -65.5t-88 -18t-98.5 32.5q-50 27 -96 28.5t-82.5 -14.5t-82.5 -49q22 25 44.5 44t50 34.5t47 24.5t56.5 24.5t58 24.5
q84 38 95 111q8 51 -26 93.5t-96 56.5q-50 12 -104 -4.5t-94 -44t-93.5 -62t-91.5 -48.5q-219 -82 -450 67q-48 31 -82 50t-77 36t-78.5 20t-76 -6.5t-79.5 -34.5q43 47 94.5 71t102.5 26.5t105 -3.5t109 -13t107.5 -7.5t108 17.5t103.5 57q5 5 28 24t29 23.5t24.5 19t28 20
t26 15t32 16t32.5 11.5l-11 13q-23 25 -55 38.5t-85.5 23t-58.5 10.5q-50 13 -111 -1q58 34 106 52.5t104 21.5q16 2 46.5 3t46.5 2t41 4.5t41.5 10.5t38 19t40.5 30.5t38 44.5l16 21l-23 -5q-20 -4 -51 15t-84 62.5t-77 59.5q-23 17 -47 28t-55 20l-31 9
q-38 14 -139.5 -4.5t-219.5 -53.5z" />
</svg>
