<?xml version="1.0" standalone="no"?>
<!DOCTYPE svg PUBLIC "-//W3C//DTD SVG 1.1//EN" "http://www.w3.org/Graphics/SVG/1.1/DTD/svg11.dtd" >
<svg xmlns="http://www.w3.org/2000/svg" xmlns:xlink="http://www.w3.org/1999/xlink" version="1.1" width="2048" height="2048" viewBox="-11 0 2070 2048">
   <path fill="currentColor"
d="M2032 58q-12 -18 -27.5 -31.5t-24.5 -13.5q-13 1 -20.5 2t-15 8t-10 9.5t-13 18.5t-16.5 23q-20 26 -44 37.5t-43.5 11.5t-45.5 -11.5t-42.5 -22.5t-41.5 -30q-128 -99 -239 -31l65 92h7q21 0 31 0.5t20.5 9t15 15t19.5 30t29 43.5q17 25 37.5 43.5t35 27t31 16.5
t19.5 10q-2 3 -4 7q-10 16 -23 26t-28.5 10.5t-30.5 -1.5t-33.5 -12t-32.5 -18t-32.5 -23t-29 -24t-26.5 -23t-21 -18q-86 -74 -151.5 -88t-143.5 28q-45 25 -85.5 27t-70 -10.5t-66.5 -38.5l-6 -4h-16q-25 6 21 58q29 33 57.5 57t58 40.5t51 26.5t55.5 23.5t52 21.5t29 17
q2 4 3 10q6 39 -25 78t-87 51q-45 11 -92.5 -3.5t-82.5 -39.5t-87 -57.5t-95 -48.5q-215 -80 -439 63q-55 35 -98.5 56t-90 33.5t-88.5 7t-80 -30.5l-14 2q-22 11 25 61q49 53 105.5 83t110.5 37t109.5 4.5t108.5 -9t101 -9.5t94 7.5t80 38.5q79 65 103 81q-21 11 -48 18.5
t-59.5 13.5t-45.5 9q-43 11 -95 0q-3 -1 -5 -1q1 8 4.5 20t15 36t25.5 32q58 33 107 51.5t104 22.5q13 1 45 2.5t45.5 3t36 4.5t37.5 8t28 14q-22 5 -51 25.5t-70.5 54t-63.5 49.5q-22 15 -44.5 25t-51.5 19t-30 9q-33 12 -130 -5.5t-206 -49.5l11.5 22.5t22.5 44.5l11 22
q3 1 5 3q17 9 57 31.5t61.5 34t57.5 31t59.5 30.5t51 22.5t48.5 16.5t36 5q1 0 34.5 3t62.5 0t58 -15t87.5 -43t97 -47t57.5 -11q43 43 52 51q-9 12 -26.5 38t-27.5 38.5t-31 26.5t-47 20q-74 15 -171 -19q-1 6 -0.5 16t10 32.5t27.5 35.5l12 8q122 81 303 78
q38 -1 90 -22.5t91.5 -43t89 -34t81.5 5.5q19 9 33 23q29 29 27 87q-37 -21 -69 -24t-57 7t-61 34q-22 15 -49.5 23.5t-64 16t-55.5 12.5l60 92q4 1 7 2q23 5 55 15.5t55.5 19t56.5 16.5t57.5 7.5t58.5 -7.5q24 -8 55 9.5t62.5 46t64.5 57.5t71 45.5t72 8.5q6 -1 6 -8
t-5 -18.5t-13 -23.5q-14 -19 -29 -31.5t-23 -10.5q-22 5 -53 -13.5t-62.5 -47.5t-65.5 -57.5t-73 -43.5t-73 -5q-37 11 -81 4q19 -8 35 -19q54 -36 90.5 -39t80.5 26q21 14 22 -3l1 -15q2 -50 -24.5 -108t-76.5 -108q-39 -40 -78 -58q-33 -15 -67 -16t-63 8t-61 24t-58 30
t-55 27.5t-52 14.5q19 -17 46 -57.5t45 -57.5l11 -11q9 -10 -5.5 -32t-34.5 -40l-19 -18q-25 -9 -35.5 -15t-16 -9.5t-21 -20.5t-30.5 -32q-13 -13 -26 -21q-19 -11 -42 -12t-45 6t-47.5 20t-47.5 26.5t-48.5 28.5t-46.5 24q-28 11 -54 14t-58 0t-36 -3q-28 0 -90 -28
q96 16 131 4q5 -2 23 -7.5t32.5 -10t35 -15t38.5 -22.5q22 -16 74 -56t80 -57.5t41 -15.5l22 5q23 4 10 -22q-7 -16 -22 -34l-15 -20q-22 -29 -44.5 -51t-39.5 -36.5t-39.5 -24.5t-35 -15t-36 -8t-31.5 -3.5t-32 -2.5q63 -16 94 -50l11 -11q9 -10 -6.5 -32.5t-34.5 -39.5
l-20 -18q-18 -6 -34.5 -13.5t-27 -12.5t-27.5 -17.5t-23.5 -17.5t-30 -24.5t-31.5 -26.5q-36 -29 -74.5 -47.5t-68 -26.5t-70.5 -8.5t-63.5 1.5t-65.5 8q-15 2 -22 3q35 -19 85 -51q217 -138 420 -63q29 11 79 43t91 59t97 44t106 5q63 -14 96.5 -55.5t25.5 -99.5
q-7 -44 -41 -91q-20 -27 -44 -49q-28 -24 -62 -40q28 -7 57 -23q49 -27 90.5 -29.5t74.5 13.5t75 52q4 3 12 11q17 15 28.5 24.5t35 28.5t42 30t43.5 25.5t45.5 19t41.5 5t38.5 -10t30.5 -31.5q28 -46 -33 -118q-11 -13 -24 -24q-18 -17 -38.5 -30.5t-40 -24t-26.5 -15.5
l-14 -21t-18.5 -27t-18.5 -25t-25 -29q62 -6 119 39q29 22 53.5 37.5t55.5 28.5t56.5 14.5t53 -11t49.5 -41.5q8 -11 17 -24t11.5 -16.5t8 -8t11 -5.5t16.5 -1q16 -1 0 -32q-3 -8 -9 -16z" />
</svg>
