<?xml version="1.0" standalone="no"?>
<!DOCTYPE svg PUBLIC "-//W3C//DTD SVG 1.1//EN" "http://www.w3.org/Graphics/SVG/1.1/DTD/svg11.dtd" >
<svg xmlns="http://www.w3.org/2000/svg" xmlns:xlink="http://www.w3.org/1999/xlink" version="1.1" width="2048" height="2048" viewBox="-10 0 2058 2048">
   <path fill="currentColor"
d="M765 56v129h129v-129h-129zM752 31h154q5 0 9 4t4 8v154q0 5 -4 9t-9 4h-154q-5 0 -8.5 -4t-3.5 -9v-154q0 -5 4 -8.5t8 -3.5zM765 56v129h129v-129h-129zM752 31h154q5 0 9 4t4 8v154q0 5 -4 9t-9 4h-154q-5 0 -8.5 -4t-3.5 -9v-154q0 -5 4 -8.5t8 -3.5zM765 56v129h129
v-129h-129zM752 31h154q5 0 9 4t4 8v154q0 5 -4 9t-9 4h-154q-5 0 -8.5 -4t-3.5 -9v-154q0 -5 4 -8.5t8 -3.5zM1616 47v146h146v-146h-146zM1612 39h154q4 0 4 4v154q0 4 -4 4h-154q-4 0 -4 -4v-154q0 -4 4 -4zM1616 47v146h146v-146h-146zM1612 39h154q4 0 4 4v154
q0 4 -4 4h-154q-4 0 -4 -4v-154q0 -4 4 -4zM1616 47v146h146v-146h-146zM1612 39h154q4 0 4 4v154q0 4 -4 4h-154q-4 0 -4 -4v-154q0 -4 4 -4zM1189 43h154v154h-154v-154zM1189 43h154v154h-154v-154zM1189 43h154v154h-154v-154zM969 43h153v154h-153v-154zM969 43h153
v154h-153v-154zM969 43h153v154h-153v-154zM521 43h154v154h-154v-154zM521 43h154v154h-154v-154zM521 43h154v154h-154v-154zM296 43h154v154h-154v-154zM296 43h154v154h-154v-154zM296 43h154v154h-154v-154zM61 43h154v154h-154v-154zM61 43h154v154h-154v-154zM61 43
h154v154h-154v-154zM760 1863v146h145v-146h-145zM755 1855h154q5 0 5 4v154q0 4 -5 4h-154q-4 0 -4 -4v-154q0 -4 4 -4zM760 1863v146h145v-146h-145zM755 1855h154q5 0 5 4v154q0 4 -5 4h-154q-4 0 -4 -4v-154q0 -4 4 -4zM760 1863v146h145v-146h-145zM755 1855h154
q5 0 5 4v154q0 4 -5 4h-154q-4 0 -4 -4v-154q0 -4 4 -4zM296 1859h154v154h-154v-154zM296 1859h154v154h-154v-154zM296 1859h154v154h-154v-154zM61 1859h154v154h-154v-154zM61 1859h154v154h-154v-154zM61 1859h154v154h-154v-154zM1616 260v146h146v-146h-146z
M1612 252h154q4 0 4 4v154q0 4 -4 4h-154q-4 0 -4 -4v-154q0 -4 4 -4zM1403 1240v146h146v-146h-146zM1399 1232h154q4 0 4 4v154q0 4 -4 4h-154q-4 0 -4 -4v-154q0 -4 4 -4zM1189 256h154v154h-154v-154zM1193 845v146h146v-146h-146zM1189 837h154q4 0 4 4v154q0 4 -4 4
h-154q-4 0 -4 -4v-154q0 -4 4 -4zM1193 1447v146h146v-146h-146zM1189 1439h154q4 0 4 4v154q0 4 -4 4h-154q-4 0 -4 -4v-154q0 -4 4 -4zM985 474v120h121v-120h-121zM969 440h153q8 0 12.5 5.5t4.5 11.5v154q0 7 -5.5 12t-11.5 5h-153q-8 0 -12.5 -5.5t-4.5 -11.5v-154
q0 -7 5.5 -12t11.5 -5zM985 663v121h121v-121h-121zM969 630h153q8 0 12.5 5.5t4.5 11.5v154q0 7 -5.5 11.5t-11.5 4.5h-153q-8 0 -12.5 -5.5t-4.5 -10.5v-154q0 -8 5.5 -12.5t11.5 -4.5zM969 841h153v154h-153v-154zM969 1036h153v154h-153v-154zM985 1252v121h121v-121
h-121zM969 1219h153q8 0 12.5 5.5t4.5 11.5v154q0 7 -5.5 11.5t-11.5 4.5h-153q-8 0 -12.5 -5t-4.5 -11v-154q0 -7 5.5 -12t11.5 -5zM755 256h154v154h-154v-154zM755 457h154v154h-154v-154zM776 862v112h113v-112h-113zM755 821h154q9 0 15 6.5t6 13.5v154q0 9 -6.5 15
t-14.5 6h-154q-8 0 -14 -6.5t-6 -14.5v-154q0 -9 6.5 -14.5t13.5 -5.5zM755 1036h154v154h-154v-154zM760 1447v146h145v-146h-145zM755 1439h154q5 0 5 4v154q0 4 -5 4h-154q-4 0 -4 -4v-154q0 -4 4 -4zM521 256h154v154h-154v-154zM521 457h154v154h-154v-154zM521 1650
h154v154h-154v-154zM521 647h154v154h-154v-154zM521 1650h154v154h-154v-154zM521 841h154v154h-154v-154zM521 1036h154v154h-154v-154zM521 1443h154v154h-154v-154zM521 1650h154v154h-154v-154zM296 256h154v154h-154v-154zM296 457h154v154h-154v-154zM296 1650h154
v154h-154v-154zM296 647h154v154h-154v-154zM296 1650h154v154h-154v-154zM296 841h154v154h-154v-154zM296 1036h154v154h-154v-154zM296 1236h154v154h-154v-154zM296 1443h154v154h-154v-154zM296 1650h154v154h-154v-154zM61 256h154v154h-154v-154zM61 457h154v154
h-154v-154zM61 1650h154v154h-154v-154zM61 647h154v154h-154v-154zM61 1650h154v154h-154v-154zM61 841h154v154h-154v-154zM61 1036h154v154h-154v-154zM61 1236h154v154h-154v-154zM61 1443h154v154h-154v-154zM61 1650h154v154h-154v-154z" />
</svg>
