<?xml version="1.0" standalone="no"?>
<!DOCTYPE svg PUBLIC "-//W3C//DTD SVG 1.1//EN" "http://www.w3.org/Graphics/SVG/1.1/DTD/svg11.dtd" >
<svg xmlns="http://www.w3.org/2000/svg" xmlns:xlink="http://www.w3.org/1999/xlink" version="1.1" width="2048" height="2048" viewBox="-10 0 2058 2048">
   <path fill="currentColor"
d="M1283 56v129h-129v-129h129zM1296 31h-154q-5 0 -9 4t-4 8v154q0 5 4 9t9 4h154q5 0 8.5 -4t3.5 -9v-154q0 -5 -4 -8.5t-8 -3.5zM1283 56v129h-129v-129h129zM1296 31h-154q-5 0 -9 4t-4 8v154q0 5 4 9t9 4h154q5 0 8.5 -4t3.5 -9v-154q0 -5 -4 -8.5t-8 -3.5zM1283 56
v129h-129v-129h129zM1296 31h-154q-5 0 -9 4t-4 8v154q0 5 4 9t9 4h154q5 0 8.5 -4t3.5 -9v-154q0 -5 -4 -8.5t-8 -3.5zM432 47v146h-146v-146h146zM436 39h-154q-4 0 -4 4v154q0 4 4 4h154q4 0 4 -4v-154q0 -4 -4 -4zM432 47v146h-146v-146h146zM436 39h-154q-4 0 -4 4v154
q0 4 4 4h154q4 0 4 -4v-154q0 -4 -4 -4zM432 47v146h-146v-146h146zM436 39h-154q-4 0 -4 4v154q0 4 4 4h154q4 0 4 -4v-154q0 -4 -4 -4zM859 43h-154v154h154v-154zM859 43h-154v154h154v-154zM859 43h-154v154h154v-154zM1079 43h-153v154h153v-154zM1079 43h-153v154h153
v-154zM1079 43h-153v154h153v-154zM1527 43h-154v154h154v-154zM1527 43h-154v154h154v-154zM1527 43h-154v154h154v-154zM1752 43h-154v154h154v-154zM1752 43h-154v154h154v-154zM1752 43h-154v154h154v-154zM1987 43h-154v154h154v-154zM1987 43h-154v154h154v-154z
M1987 43h-154v154h154v-154zM1288 1863v146h-145v-146h145zM1293 1855h-154q-5 0 -5 4v154q0 4 5 4h154q4 0 4 -4v-154q0 -4 -4 -4zM1288 1863v146h-145v-146h145zM1293 1855h-154q-5 0 -5 4v154q0 4 5 4h154q4 0 4 -4v-154q0 -4 -4 -4zM1288 1863v146h-145v-146h145z
M1293 1855h-154q-5 0 -5 4v154q0 4 5 4h154q4 0 4 -4v-154q0 -4 -4 -4zM1752 1859h-154v154h154v-154zM1752 1859h-154v154h154v-154zM1752 1859h-154v154h154v-154zM1987 1859h-154v154h154v-154zM1987 1859h-154v154h154v-154zM1987 1859h-154v154h154v-154zM432 260v146
h-146v-146h146zM436 252h-154q-4 0 -4 4v154q0 4 4 4h154q4 0 4 -4v-154q0 -4 -4 -4zM645 1240v146h-146v-146h146zM649 1232h-154q-4 0 -4 4v154q0 4 4 4h154q4 0 4 -4v-154q0 -4 -4 -4zM859 256h-154v154h154v-154zM855 845v146h-146v-146h146zM859 837h-154q-4 0 -4 4
v154q0 4 4 4h154q4 0 4 -4v-154q0 -4 -4 -4zM855 1447v146h-146v-146h146zM859 1439h-154q-4 0 -4 4v154q0 4 4 4h154q4 0 4 -4v-154q0 -4 -4 -4zM1063 474v120h-121v-120h121zM1079 440h-153q-8 0 -12.5 5.5t-4.5 11.5v154q0 7 5.5 12t11.5 5h153q8 0 12.5 -5.5t4.5 -11.5
v-154q0 -7 -5.5 -12t-11.5 -5zM1063 663v121h-121v-121h121zM1079 630h-153q-8 0 -12.5 5.5t-4.5 11.5v154q0 7 5.5 11.5t11.5 4.5h153q8 0 12.5 -5.5t4.5 -10.5v-154q0 -8 -5.5 -12.5t-11.5 -4.5zM1079 841h-153v154h153v-154zM1079 1036h-153v154h153v-154zM1063 1252v121
h-121v-121h121zM1079 1219h-153q-8 0 -12.5 5.5t-4.5 11.5v154q0 7 5.5 11.5t11.5 4.5h153q8 0 12.5 -5t4.5 -11v-154q0 -7 -5.5 -12t-11.5 -5zM1293 256h-154v154h154v-154zM1293 457h-154v154h154v-154zM1272 862v112h-113v-112h113zM1293 821h-154q-9 0 -15 6.5t-6 13.5
v154q0 9 6.5 15t14.5 6h154q8 0 14 -6.5t6 -14.5v-154q0 -9 -6.5 -14.5t-13.5 -5.5zM1293 1036h-154v154h154v-154zM1288 1447v146h-145v-146h145zM1293 1439h-154q-5 0 -5 4v154q0 4 5 4h154q4 0 4 -4v-154q0 -4 -4 -4zM1527 256h-154v154h154v-154zM1527 457h-154v154h154
v-154zM1527 1650h-154v154h154v-154zM1527 647h-154v154h154v-154zM1527 1650h-154v154h154v-154zM1527 841h-154v154h154v-154zM1527 1036h-154v154h154v-154zM1527 1443h-154v154h154v-154zM1527 1650h-154v154h154v-154zM1752 256h-154v154h154v-154zM1752 457h-154v154
h154v-154zM1752 1650h-154v154h154v-154zM1752 647h-154v154h154v-154zM1752 1650h-154v154h154v-154zM1752 841h-154v154h154v-154zM1752 1036h-154v154h154v-154zM1752 1236h-154v154h154v-154zM1752 1443h-154v154h154v-154zM1752 1650h-154v154h154v-154zM1987 256h-154
v154h154v-154zM1987 457h-154v154h154v-154zM1987 1650h-154v154h154v-154zM1987 647h-154v154h154v-154zM1987 1650h-154v154h154v-154zM1987 841h-154v154h154v-154zM1987 1036h-154v154h154v-154zM1987 1236h-154v154h154v-154zM1987 1443h-154v154h154v-154zM1987 1650
h-154v154h154v-154z" />
</svg>
