<?xml version="1.0" standalone="no"?>
<!DOCTYPE svg PUBLIC "-//W3C//DTD SVG 1.1//EN" "http://www.w3.org/Graphics/SVG/1.1/DTD/svg11.dtd" >
<svg xmlns="http://www.w3.org/2000/svg" xmlns:xlink="http://www.w3.org/1999/xlink" version="1.1" width="2048" height="2048" viewBox="-10 0 2058 2048">
   <path fill="currentColor"
d="M1073 67v186h185v-186h-185zM1055 31h221q8 0 13 5.5t5 12.5v222q0 8 -6 13t-12 5h-221q-8 0 -13 -6t-5 -12v-222q0 -8 5.5 -13t12.5 -5zM1073 67v186h185v-186h-185zM1055 31h221q8 0 13 5.5t5 12.5v222q0 8 -6 13t-12 5h-221q-8 0 -13 -6t-5 -12v-222q0 -8 5.5 -13
t12.5 -5zM1073 67v186h185v-186h-185zM1055 31h221q8 0 13 5.5t5 12.5v222q0 8 -6 13t-12 5h-221q-8 0 -13 -6t-5 -12v-222q0 -8 5.5 -13t12.5 -5zM732 59v202h201v-202h-201zM722 39h221q5 0 7.5 3t2.5 7v222q0 4 -3 7t-7 3h-221q-4 0 -7 -3t-3 -7v-222q0 -5 3 -7.5t7 -2.5
zM732 59v202h201v-202h-201zM722 39h221q5 0 7.5 3t2.5 7v222q0 4 -3 7t-7 3h-221q-4 0 -7 -3t-3 -7v-222q0 -5 3 -7.5t7 -2.5zM732 59v202h201v-202h-201zM722 39h221q5 0 7.5 3t2.5 7v222q0 4 -3 7t-7 3h-221q-4 0 -7 -3t-3 -7v-222q0 -5 3 -7.5t7 -2.5zM399 49h221v222
h-221v-222zM399 49h221v222h-221v-222zM399 49h221v222h-221v-222zM61 49h222v222h-222v-222zM61 49h222v222h-222v-222zM61 49h222v222h-222v-222zM1390 670v174h173v-174h-173zM1366 622h221q10 0 17 8t7 16v222q0 11 -8 18t-16 7h-221q-11 0 -17.5 -8t-6.5 -17v-222
q0 -10 7.5 -17t16.5 -7zM1390 1795v174h173v-174h-173zM1366 1747h221q10 0 17 7.5t7 16.5v222q0 10 -8 17t-16 7h-221q-11 0 -17.5 -7.5t-6.5 -16.5v-222q0 -10 7.5 -17t16.5 -7zM1069 366v203h202v-203h-202zM1059 346h222q4 0 7 3.5t3 6.5v223q0 4 -3.5 7t-6.5 3h-222
q-4 0 -7 -3.5t-3 -6.5v-223q0 -4 3.5 -7t6.5 -3zM1089 1231v163h162v-163h-162zM1059 1171h222q12 0 21 10t9 20v223q0 12 -10 21t-20 9h-222q-12 0 -21 -10t-9 -20v-223q0 -13 10 -21.5t20 -8.5zM722 356h221v223h-221v-223zM732 656v202h201v-202h-201zM722 636h221
q5 0 7.5 3.5t2.5 6.5v222q0 5 -3 8t-7 3h-221q-4 0 -7 -3.5t-3 -7.5v-222q0 -4 3 -7t7 -3zM722 920h221v222h-221v-222zM742 1503v182h181v-182h-181zM722 1462h221q9 0 14.5 6.5t5.5 13.5v223q0 8 -6.5 14t-13.5 6h-221q-9 0 -14.5 -6.5t-5.5 -13.5v-223q0 -8 6.5 -14
t13.5 -6zM399 356h221v223h-221v-223zM399 646h221v222h-221v-222zM399 1201h221v223h-221v-223zM399 1482h221v223h-221v-223zM399 1771h221v222h-221v-222zM61 356h222v223h-222v-223zM61 646h222v222h-222v-222zM61 920h222v222h-222v-222zM61 1201h222v223h-222v-223z
M61 1482h222v223h-222v-223zM61 1771h222v222h-222v-222z" />
</svg>
