<?xml version="1.0" standalone="no"?>
<!DOCTYPE svg PUBLIC "-//W3C//DTD SVG 1.1//EN" "http://www.w3.org/Graphics/SVG/1.1/DTD/svg11.dtd" >
<svg xmlns="http://www.w3.org/2000/svg" xmlns:xlink="http://www.w3.org/1999/xlink" version="1.1" width="2048" height="2048" viewBox="-10 0 2058 2048">
   <path fill="currentColor"
d="M975 67v186h-185v-186h185zM993 31h-221q-8 0 -13 5.5t-5 12.5v222q0 8 6 13t12 5h221q8 0 13 -6t5 -12v-222q0 -8 -5.5 -13t-12.5 -5zM975 67v186h-185v-186h185zM993 31h-221q-8 0 -13 5.5t-5 12.5v222q0 8 6 13t12 5h221q8 0 13 -6t5 -12v-222q0 -8 -5.5 -13t-12.5 -5
zM975 67v186h-185v-186h185zM993 31h-221q-8 0 -13 5.5t-5 12.5v222q0 8 6 13t12 5h221q8 0 13 -6t5 -12v-222q0 -8 -5.5 -13t-12.5 -5zM1316 59v202h-201v-202h201zM1326 39h-221q-5 0 -7.5 3t-2.5 7v222q0 4 3 7t7 3h221q4 0 7 -3t3 -7v-222q0 -5 -3 -7.5t-7 -2.5z
M1316 59v202h-201v-202h201zM1326 39h-221q-5 0 -7.5 3t-2.5 7v222q0 4 3 7t7 3h221q4 0 7 -3t3 -7v-222q0 -5 -3 -7.5t-7 -2.5zM1316 59v202h-201v-202h201zM1326 39h-221q-5 0 -7.5 3t-2.5 7v222q0 4 3 7t7 3h221q4 0 7 -3t3 -7v-222q0 -5 -3 -7.5t-7 -2.5zM1649 49h-221
v222h221v-222zM1649 49h-221v222h221v-222zM1649 49h-221v222h221v-222zM1987 49h-222v222h222v-222zM1987 49h-222v222h222v-222zM1987 49h-222v222h222v-222zM658 670v174h-173v-174h173zM682 622h-221q-10 0 -17 8t-7 16v222q0 11 8 18t16 7h221q11 0 17.5 -8t6.5 -17
v-222q0 -10 -7.5 -17t-16.5 -7zM658 1795v174h-173v-174h173zM682 1747h-221q-10 0 -17 7.5t-7 16.5v222q0 10 8 17t16 7h221q11 0 17.5 -7.5t6.5 -16.5v-222q0 -10 -7.5 -17t-16.5 -7zM979 366v203h-202v-203h202zM989 346h-222q-4 0 -7 3.5t-3 6.5v223q0 4 3.5 7t6.5 3
h222q4 0 7 -3.5t3 -6.5v-223q0 -4 -3.5 -7t-6.5 -3zM959 1231v163h-162v-163h162zM989 1171h-222q-12 0 -21 10t-9 20v223q0 12 10 21t20 9h222q12 0 21 -10t9 -20v-223q0 -13 -10 -21.5t-20 -8.5zM1326 356h-221v223h221v-223zM1316 656v202h-201v-202h201zM1326 636h-221
q-5 0 -7.5 3.5t-2.5 6.5v222q0 5 3 8t7 3h221q4 0 7 -3.5t3 -7.5v-222q0 -4 -3 -7t-7 -3zM1326 920h-221v222h221v-222zM1306 1503v182h-181v-182h181zM1326 1462h-221q-9 0 -14.5 6.5t-5.5 13.5v223q0 8 6.5 14t13.5 6h221q9 0 14.5 -6.5t5.5 -13.5v-223q0 -8 -6.5 -14
t-13.5 -6zM1649 356h-221v223h221v-223zM1649 646h-221v222h221v-222zM1649 1201h-221v223h221v-223zM1649 1482h-221v223h221v-223zM1649 1771h-221v222h221v-222zM1987 356h-222v223h222v-223zM1987 646h-222v222h222v-222zM1987 920h-222v222h222v-222zM1987 1201h-222
v223h222v-223zM1987 1482h-222v223h222v-223zM1987 1771h-222v222h222v-222z" />
</svg>
