<?xml version="1.0" standalone="no"?>
<!DOCTYPE svg PUBLIC "-//W3C//DTD SVG 1.1//EN" "http://www.w3.org/Graphics/SVG/1.1/DTD/svg11.dtd" >
<svg xmlns="http://www.w3.org/2000/svg" xmlns:xlink="http://www.w3.org/1999/xlink" version="1.1" width="2048" height="2048" viewBox="-30 0 2088 2048">
   <path fill="currentColor"
d="M-19 2054l-1 -2059q0 -4 4 -5q30 -3 57 6q8 2 77 0t95 8q22 8 45 13t37 11q13 6 28 6t24 4q7 2 47 5t56 8q6 1 10 1t11.5 -2.5t14.5 -2.5q8 0 18 2q16 3 29 8.5t33 9.5q52 8 66 17h6h5q50 0 50 18t-55 18h-5.5h-4.5q-4 0 -5 1q-1 0 -4 3.5t-10.5 7.5t-21.5 5q-11 1 -20 1
q-8 0 -18 -1.5t-17 -1.5q-16 0 -50 5t-48 10q-13 4 -76 5.5t-66 2.5q-4 1 -11 1q-4 0 -18 -1t-22 -1q-19 0 -35 4q-4 1 -7 3q5 4 21 8.5t22 4.5q7 0 61 11t61 11q33 0 70 8q6 2 11 2q6 0 20.5 -3.5t26.5 -4.5q6 -1 15 -1q34 0 80 7.5t61 17.5q6 4 13 4q5 0 28.5 -5.5
t51.5 -8.5q24 -1 34 -1t13.5 1t8.5 6t10 8q11 8 17 8q1 0 14 -3t32 -4h7q24 0 42 7.5t26 8.5q43 5 92 5q53 0 109 20q15 5 22 5q5 0 12 -3.5t17 -3.5t21.5 3t28.5 3q41 0 78 14q22 7 33 7q7 0 20 -3q4 -1 7 -1q11 0 18.5 7.5t7.5 17.5q0 8 -6 14q-6 7 -21 10.5t-40 5.5
t-28 2q-6 1 -14 1q-6 0 -17.5 -0.5t-18.5 -0.5q-25 0 -48 6q-34 10 -111 10q-50 0 -71 -3h-5q-8 0 -24 6t-26 7q-82 8 -99 16q-9 4 -18 4t-20.5 -5t-13.5 -5q-3 0 -5 2q-10 8 -44 8q-44 0 -71 -11q-5 -2 -13 -2q-14 0 -47 9.5t-46 10.5q-12 2 -46 4t-61 4t-31 3q-5 3 -35 3
t-67.5 4.5t-62.5 16.5q-20 10 -20 19t18 14.5t36 5.5q16 0 157 19q7 1 22.5 4t28 4.5t20.5 1.5h5h3q20 0 53.5 10.5t43.5 22.5q3 3 8 3q3 0 12.5 -3t17.5 -3t16 3q22 7 79 12q11 2 17 6.5t10 4.5q2 0 5 -1q9 -2 28 -2q69 0 109 16q19 7 38 7q5 0 17.5 -0.5t21.5 -0.5
q29 0 46.5 4.5t26.5 20.5q2 3 2 7q0 6 -7.5 10t-19.5 6t-23 3t-22 1.5t-13.5 1t-56 6.5t-68.5 10l-19.5 5.5t-31.5 8t-31 6t-32 3.5q-15 0 -24 -4q-14 -5 -29 -5q-19 0 -37 10q-9 4 -22 4q-6 0 -19 -1.5t-19 -1.5q-4 0 -8 1q-10 2 -49.5 5.5t-46.5 6.5q-10 5 -43 9t-41 8
q-2 0 -21 7t-30.5 12.5t-27 16t-22.5 22.5q-9 16 -9 21q0 4 3.5 7.5t12.5 13t18 21.5q10 13 15 25.5t8.5 16t17.5 8t49 10.5q13 2 32 2q5 0 15 -0.5t15 -0.5q22 0 34 4q17 4 50 4h13h11q20 0 54 7t47 15q6 4 6 7q0 8 -26 13t-47 6q-50 3 -78 13q-12 4 -43 4q-8 0 -24.5 -0.5
t-24.5 -0.5q-32 0 -49 3q-14 3 -18 6q3 2 10 5q45 4 72 4q8 0 11 -1h7q13 0 87 16q7 2 85 8q10 1 21 1t26.5 -1t21.5 -1q9 0 15 1t19.5 5t30 6.5t37.5 3.5q37 1 52.5 6t20.5 18q1 3 1 5q0 5 -5 8t-14 4t-17 1.5t-18 0.5h-14q-8 0 -27 5t-37 5h-15q-5 -1 -10 -1
q-20 0 -45.5 9.5t-29.5 10.5q-10 2 -58.5 11t-62.5 13q-30 10 -141 20q-36 3 -42 7q1 3 8 8q6 4 19 4q5 0 16 -1t17 -1q9 0 15 1q28 4 132 4h32q4 -1 6 -1q7 0 17.5 2t17.5 2q9 0 21 -2t20 -2q10 0 19.5 4.5t13.5 5.5q9 2 13 2.5t11 1t18 1.5q9 1 23 1.5t25 2t22 5.5
q6 2 22 2q8 0 27.5 -1t29.5 -1q32 0 44 6q10 5 23 5q7 0 23.5 -1.5t26.5 -2.5h6q12 0 42 5t59 5q28 0 42 1.5t19.5 3.5t19.5 9q4 3 17 3h11h12q58 0 107 24q7 3 16 3q6 0 21.5 -2.5t24.5 -2.5t39.5 -1t39.5 -1q29 0 91 12h7q8 0 34 -4t39 -5h8q13 0 31 2.5t38 5.5t27 4
q12 1 50 1h37h39h39q48 2 48 21q0 4 -2 11q-4 15 -61 15h-21h-15q-7 0 -29 4t-37 4h-8q-8 -1 -16 -1q-16 0 -76 6q-100 8 -159 16q-15 2 -27 2q-10 0 -21 -1.5t-13 -1.5q-3 0 -5 1q-4 1 -12 1q-7 0 -24 -1.5t-25 -1.5q-15 0 -22 3q-10 4 -40 6.5t-67.5 4t-47.5 2.5
q-7 1 -13 1q-16 0 -33 -4.5t-21 -4.5q-5 0 -12 5t-21 5q-17 0 -104 16q-14 3 -26 3q-6 0 -19 -1.5t-23 -1.5h-9q-25 1 -76 11q-16 3 -73 7t-113 7.5t-60 3.5q-3 1 -57.5 5.5t-68.5 6.5q-7 0 -26 10.5t-43 10.5q-27 0 -69.5 16.5t-56.5 31.5q-3 3 -3 5q0 5 10.5 8.5t27.5 7.5
t25 8q8 3 16 5t16.5 3.5t13.5 2.5q47 11 65 11q13 0 44 2t41 2q6 0 9 -1h9q1 0 55 7q6 1 12 1t17.5 -1.5t21.5 -1.5h11q18 1 50.5 7t43.5 8q20 3 20 12q0 7 -11.5 14.5t-20.5 9.5q-8 2 -20 3t-26 2t-18 2q-4 0 -15.5 0.5t-19.5 2t-16.5 5t-18.5 3.5q-8 0 -16.5 -2t-15.5 -4
t-9 -2h-1q-5 0 -29 5t-33 5q-10 0 -38 7t-37 12q-19 9 -47 11q-7 1 -49 3t-60 4q-5 0 -10.5 0.5t-8 1t-5.5 1t-4.5 0.5t-3.5 0.5t-2.5 1t-1.5 2t-1 2t-1 3.5q-1 0 -1 1q0 2 4 3t14 2.5t19 5.5q11 4 52 4q22 0 64 -2h10q20 0 34 2.5t29 8t18 6.5q7 2 52.5 3t58.5 9q8 5 12 5
q2 0 10 -2t17 -2q47 0 65 10q5 3 19 3q15 0 40 -4h9q18 0 60 15q5 2 10 2q3 0 11.5 -0.5t15.5 -0.5q15 0 32 2q7 1 16 2.5t14 2t11.5 1.5t10 2.5t7 4t5 5.5t1.5 8q0 10 -13 14t-33 4t-21 1q-9 1 -32 2.5t-38 3.5q-19 3 -54 3h-13.5h-11.5q-10 0 -15 1q-28 1 -72 2.5t-50 1.5
q-63 7 -81 7q-33 0 -43 5q0 1 4 5t7 9t3 10q0 3 -1 6q-3 12 -43 12q-18 0 -31 -2h-5q-8 0 -21 5.5t-20 7.5q-22 6 -92 11q-5 1 -27 7t-48 6q-33 0 -67.5 7t-35.5 14q0 8 34 12q2 1 7 1h6h7q28 0 36 8q2 2 6.5 3t15.5 2.5t18 2.5q11 2 33.5 7.5t34.5 8.5q18 4 32 12t17 9
q7 3 22 3q5 0 17.5 -0.5t19.5 -0.5q16 0 29 1q9 1 14.5 6t5.5 12q0 15 -22 17q-78 3 -96 8q-17 4 -24 4q-6 0 -28 -1h-9q-16 0 -25.5 2t-27 8.5t-30.5 10.5q-27 8 -75 8h-7.5h-6.5q-20 0 -28 2q-12 2 -49 12t-50 12q-26 5 -118 5q-6 0 -6 -4z" />
</svg>
