<?xml version="1.0" standalone="no"?>
<!DOCTYPE svg PUBLIC "-//W3C//DTD SVG 1.1//EN" "http://www.w3.org/Graphics/SVG/1.1/DTD/svg11.dtd" >
<svg xmlns="http://www.w3.org/2000/svg" xmlns:xlink="http://www.w3.org/1999/xlink" version="1.1" width="2048" height="2048" viewBox="-10 0 2088 2048">
   <path fill="currentColor"
d="M2067 2054q0 4 -6 4q-92 0 -118 -5q-13 -2 -50 -12t-49 -12q-8 -2 -28 -2h-6.5h-7.5q-48 0 -75 -8q-12 -3 -25 -8t-19.5 -7t-16.5 -4t-22 -2h-9q-22 1 -28 1q-7 0 -24 -4q-8 -2 -32 -4t-44 -3l-20 -1q-22 -2 -22 -17q0 -7 5.5 -12t14.5 -6q13 -1 29 -1q7 0 19.5 0.5
t17.5 0.5q15 0 22 -3q3 -1 17 -9t32 -12q12 -3 34.5 -8.5t33.5 -7.5q7 -1 14.5 -2t12 -1.5t8 -1.5t5.5 -3q8 -8 36 -8h7h6q5 0 7 -1q34 -4 34 -12q-1 -7 -35.5 -14t-67.5 -7q-26 0 -48 -6t-27 -7q-70 -5 -92 -11q-7 -2 -20 -7.5t-21 -5.5h-5q-13 2 -31 2q-40 0 -43 -12
q-1 -3 -1 -6q0 -5 3 -10t7 -9t4 -5q-10 -5 -43 -5q-18 0 -81 -7q-6 0 -50 -1.5t-72 -2.5q-5 -1 -15 -1h-11.5h-13.5q-35 0 -54 -3q-15 -2 -38 -3.5t-32 -2.5q-1 -1 -21 -1t-33 -4t-13 -14q0 -5 1.5 -8t5 -5.5t7 -4t10 -2.5t11.5 -1.5t14 -2t16 -2.5q17 -2 32 -2
q7 0 15.5 0.5t11.5 0.5q5 0 10 -2q42 -15 60 -15h9q25 4 40 4q14 0 19 -3q18 -10 65 -10q9 0 17 2t10 2q4 0 12 -5q13 -8 58.5 -9t52.5 -3q3 -1 18 -6.5t29 -8t34 -2.5h10q42 2 64 2q41 0 52 -4q9 -4 19 -5.5t14 -2.5t4 -3q0 -1 -1 -1q-1 -3 -1 -3.5t-1 -2t-1.5 -2t-2.5 -1
t-3.5 -0.5t-4.5 -0.5t-5.5 -1t-8 -1t-10.5 -0.5q-18 -2 -60 -4t-49 -3q-28 -2 -47 -11q-9 -5 -37 -12t-38 -7q-9 0 -33 -5t-29 -5h-1q-2 0 -9 2t-15.5 4t-16.5 2q-10 0 -18.5 -3.5t-16.5 -5t-19.5 -2t-15.5 -0.5q-4 -1 -18 -2t-26 -2t-20 -3q-9 -2 -20.5 -9.5t-11.5 -14.5
q0 -9 20 -12q11 -2 43.5 -8t50.5 -7h11q10 0 21.5 1.5t17.5 1.5t12 -1q54 -7 55 -7h9q3 1 9 1q10 0 41 -2t44 -2q18 0 65 -11q5 -1 13.5 -2.5t16.5 -3.5t16 -5q8 -4 25 -8t27.5 -7.5t10.5 -8.5q0 -2 -3 -5q-14 -15 -56.5 -31.5t-69.5 -16.5q-24 0 -43 -10.5t-26 -10.5
q-14 -2 -68.5 -6.5t-57.5 -5.5q-4 0 -60 -3.5t-113 -7.5t-73 -7q-51 -10 -76 -11h-9q-10 0 -23 1.5t-19 1.5q-12 0 -26 -3q-87 -16 -104 -16q-14 0 -21 -5t-12 -5q-4 0 -21 4.5t-33 4.5q-6 0 -13 -1q-10 -1 -47.5 -2.5t-67.5 -4t-40 -6.5q-7 -3 -22 -3q-8 0 -25 1.5t-24 1.5
q-8 0 -12 -1q-2 -1 -5 -1q-2 0 -13 1.5t-21 1.5q-12 0 -27 -2q-59 -8 -159 -16q-60 -6 -76 -6q-8 0 -16 1h-8q-15 0 -37 -4t-29 -4h-15h-21q-57 0 -61 -15q-2 -7 -2 -11q0 -19 48 -21h39h39h37q38 0 50 -1q7 -1 27 -4t38 -5.5t31 -2.5h8q13 1 39 5t34 4h7q62 -12 91 -12
q9 0 39.5 1t39.5 1t24.5 2.5t21.5 2.5q9 0 16 -3q49 -24 107 -24h12h11q13 0 17 -3q14 -7 19.5 -9t19.5 -3.5t42 -1.5q29 0 59 -5t42 -5h6q10 1 26.5 2.5t23.5 1.5q13 0 23 -5q12 -6 44 -6q10 0 29.5 1t27.5 1q16 0 22 -2q11 -4 22 -5.5t25 -2t23 -1.5t15.5 -1.5t8.5 -0.5
t6.5 -0.5t11.5 -2.5q4 -1 13.5 -5.5t19.5 -4.5q8 0 20 2t21 2q7 0 17.5 -2t17.5 -2q2 0 6 1h32q104 0 132 -4q6 -1 15 -1q6 0 17 1t16 1q13 0 19 -4q7 -5 8 -8q-6 -4 -42 -7q-111 -10 -141 -20q-14 -4 -62.5 -13t-58.5 -11q-4 -1 -29.5 -10.5t-45.5 -9.5q-5 0 -10 1h-15
q-18 0 -37 -5t-27 -5h-14t-18 -0.5t-17 -1.5t-14 -4t-5 -8q0 -2 1 -5q5 -13 20.5 -18t52.5 -6q21 -1 37.5 -3.5t30 -6.5t19.5 -5t15 -1q6 0 21.5 1t26.5 1t21 -1q78 -6 85 -8q74 -16 87 -16h7q3 1 11 1q27 0 72 -4q7 -3 10 -5q-4 -3 -18 -6q-17 -3 -49 -3q-8 0 -24.5 0.5
t-24.5 0.5q-31 0 -43 -4q-28 -10 -78 -13q-21 -1 -47 -6t-26 -13q0 -3 6 -7q13 -8 47 -15t54 -7h11h13q33 0 50 -4q12 -4 34 -4q5 0 15 0.5t15 0.5q19 0 32 -2q35 -6 49 -10.5t17.5 -8t8.5 -16t15 -25.5q9 -12 18 -21.5t12.5 -13t3.5 -7.5q0 -5 -9 -21q-7 -12 -22.5 -22.5
t-27 -16t-30.5 -12.5t-21 -7q-8 -4 -41 -8t-43 -9q-7 -3 -46.5 -6.5t-49.5 -5.5q-4 -1 -8 -1q-6 0 -19 1.5t-19 1.5q-13 0 -22 -4q-18 -10 -37 -10q-15 0 -29 5q-9 4 -24 4q-13 0 -32 -3.5t-31 -6t-31.5 -8l-19.5 -5.5q-15 -4 -68.5 -10t-56 -6.5t-13.5 -1t-22 -1.5t-23 -3
t-19.5 -6t-7.5 -10q0 -4 2 -7q9 -16 26.5 -20.5t46.5 -4.5q9 0 21.5 0.5t17.5 0.5q19 0 38 -7q40 -16 109 -16q19 0 28 2q3 1 5 1q4 0 10 -4.5t17 -6.5q57 -5 79 -12q8 -3 16 -3t17.5 3t12.5 3q5 0 8 -3q10 -12 43.5 -22.5t53.5 -10.5h3h5q8 0 20.5 -1.5t28 -4.5t22.5 -4
q141 -19 157 -19q18 0 36 -5.5t18 -14.5t-20 -19q-25 -12 -62.5 -16.5t-67.5 -4.5t-35 -3q-4 -1 -31 -3t-61 -4t-46 -4q-13 -1 -46 -10.5t-47 -9.5q-8 0 -13 2q-27 11 -71 11q-34 0 -44 -8q-2 -2 -5 -2q-2 0 -13.5 5t-20.5 5t-18 -4q-17 -8 -99 -16q-10 -1 -26 -7t-24 -6h-5
q-21 3 -71 3q-77 0 -111 -10q-23 -6 -48 -6q-7 0 -18.5 0.5t-17.5 0.5q-8 0 -14 -1q-3 0 -28 -2t-40 -5.5t-21 -10.5q-6 -6 -6 -14q0 -10 7.5 -17.5t18.5 -7.5q3 0 7 1q13 3 20 3q11 0 33 -7q37 -14 78 -14q17 0 28.5 -3t21.5 -3t17 3.5t12 3.5q7 0 22 -5q56 -20 109 -20
q49 0 92 -5q8 -1 26 -8.5t42 -7.5h7q19 1 32 4t14 3q6 0 17 -8q5 -3 10 -8t8.5 -6t13.5 -1t34 1q28 3 51.5 8.5t28.5 5.5q7 0 13 -4q15 -10 61 -17.5t80 -7.5q9 0 15 1q12 1 26.5 4.5t20.5 3.5q5 0 11 -2q37 -8 70 -8q7 0 61 -11t61 -11q6 0 22 -4.5t21 -8.5q-3 -2 -7 -3
q-16 -4 -35 -4q-8 0 -22 1t-18 1q-7 0 -11 -1q-3 -1 -66 -2.5t-76 -5.5q-14 -5 -48 -10t-50 -5q-7 0 -17 1.5t-18 1.5q-9 0 -20 -1t-18 -3.5t-10 -5t-4.5 -5t-3.5 -2.5q-1 -1 -5 -1h-4.5h-5.5q-55 0 -55 -18t50 -18h5h6q14 -9 66 -17q20 -4 33 -9.5t29 -8.5q10 -2 18 -2
q7 0 14.5 2.5t11.5 2.5t10 -1q16 -5 56 -8t47 -5q9 -4 24 -4t28 -6q14 -6 37 -11t45 -13q27 -10 94.5 -8t77.5 0q27 -9 57 -6q4 1 4 5z" />
</svg>
