<?xml version="1.0" standalone="no"?>
<!DOCTYPE svg PUBLIC "-//W3C//DTD SVG 1.1//EN" "http://www.w3.org/Graphics/SVG/1.1/DTD/svg11.dtd" >
<svg xmlns="http://www.w3.org/2000/svg" xmlns:xlink="http://www.w3.org/1999/xlink" version="1.1" width="2048" height="2048" viewBox="-10 0 2068 2048">
   <path fill="currentColor"
d="M2048 1023q0 110 -34 187.5t-82 78.5l-2 1q-14 0 -28 -8h5q-37 -26 -61 -89t-29 -137t14.5 -153.5t63.5 -133.5v1q18 -13 35 -13q49 0 83.5 78t34.5 188zM1891 1281l-94 165q3 29 3 53q0 109 -34 187t-82 79h-2q-12 0 -25 -7h-1q-37 -27 -60.5 -92.5t-27 -141.5
t18.5 -156.5t70 -132.5l-135 -3q-49 47 -73.5 123.5t-22 152t27 144t66.5 104.5l101 2l-123 218l-546 -945l543 -945l119 204l-97 -2q-50 47 -74 123.5t-22 152t27 144.5t67 104l138 3q-36 -25 -60 -86.5t-29.5 -134t12.5 -151.5t60 -134q21 -19 44 -19q49 0 83 78t34 188
q0 17 -1 43l92 158l-118 -3q-49 47 -73.5 123.5t-22 152t27 144.5t66.5 104zM1384 1293q-38 -26 -62 -91.5t-28 -141.5t18 -157.5t70 -133.5l-134 -3q-50 47 -74 123.5t-21.5 152t27 144.5t66.5 104zM1323 57l-522 880h-794l497 -885zM1342 1996h-846l-496 -885h793z" />
</svg>
