<?xml version="1.0" standalone="no"?>
<!DOCTYPE svg PUBLIC "-//W3C//DTD SVG 1.1//EN" "http://www.w3.org/Graphics/SVG/1.1/DTD/svg11.dtd" >
<svg xmlns="http://www.w3.org/2000/svg" xmlns:xlink="http://www.w3.org/1999/xlink" version="1.1" width="2048" height="2048" viewBox="-10 0 2058 2048">
   <path fill="currentColor"
d="M1023 0q110 0 187.5 34t78.5 82l1 2q0 14 -8 28v-5q-26 37 -89 61t-137 29t-153.5 -14.5t-133.5 -63.5h1q-13 -18 -13 -35q0 -49 78 -83.5t188 -34.5zM1281 157l165 94q29 -3 53 -3q109 0 187 34t79 82v2q0 12 -7 25v1q-27 37 -92.5 60.5t-141.5 27t-156.5 -18.5
t-132.5 -70l-3 135q47 49 123.5 73.5t152 22t144 -27t104.5 -66.5l2 -101l218 123l-945 546l-945 -543l204 -119l-2 97q47 50 123.5 74t152 22t144.5 -27t104 -67l3 -138q-25 36 -86.5 60t-134 29.5t-151.5 -12.5t-134 -60q-19 -21 -19 -44q0 -49 78 -83t188 -34q17 0 43 1
l158 -92l-3 118q47 49 123.5 73.5t152 22t144.5 -27t104 -66.5zM1293 664q-26 38 -91.5 62t-141.5 28t-157.5 -18t-133.5 -70l-3 134q47 50 123.5 74t152 21.5t144.5 -27t104 -66.5zM57 725l880 522v794l-885 -497zM1996 706v846l-885 496v-793z" />
</svg>
