<?xml version="1.0" standalone="no"?>
<!DOCTYPE svg PUBLIC "-//W3C//DTD SVG 1.1//EN" "http://www.w3.org/Graphics/SVG/1.1/DTD/svg11.dtd" >
<svg xmlns="http://www.w3.org/2000/svg" xmlns:xlink="http://www.w3.org/1999/xlink" version="1.1" width="2048" height="2048" viewBox="-10 0 2058 2048">
   <path fill="currentColor"
d="M0 1576q0 -107 52.5 -197.5t143.5 -143.5t198 -53q80 0 152 30.5t127 85.5l77 77q55 55 85.5 127t30.5 152q0 107 -53 198t-143.5 143.5t-197.5 52.5q-80 0 -152 -30.5t-127 -84.5l-78 -78q-54 -55 -84.5 -127t-30.5 -152zM1041 1576q0 -107 53 -197.5t143.5 -143.5
t197.5 -53q80 0 152 30.5t127 85.5l78 77q54 55 84.5 127t30.5 152q0 107 -52.5 198t-143.5 143.5t-198 52.5q-80 0 -152 -30.5t-126 -84.5l-78 -78q-55 -55 -85.5 -127t-30.5 -152zM0 394q0 -107 52.5 -197.5t143.5 -143.5t198 -53q80 0 152 30.5t127 84.5l77 78
q55 55 85.5 127t30.5 152q0 107 -53 197.5t-143.5 143.5t-197.5 53q-80 0 -152 -30.5t-127 -85.5l-78 -77q-54 -55 -84.5 -127t-30.5 -152zM1041 394q0 -107 53 -197.5t143.5 -143.5t197.5 -53q80 0 152 30.5t127 84.5l78 78q54 55 84.5 127t30.5 152q0 107 -52.5 197.5
t-143.5 143.5t-198 53q-80 0 -152 -30.5t-126 -85.5l-78 -77q-55 -55 -85.5 -127t-30.5 -152zM630 1311q1 0 2 1q-4 -4 -8 -7v1zM1671 1311q1 1 2 1q-4 -4 -8 -7l1 1zM630 129q1 0 2 1q-4 -4 -8 -7v0zM1671 129q1 0 2 1l-8 -8q0 1 1 1zM1486 843l-55 -55q-87 -1 -165 -38
q94 84 220 93zM1518 844q99 -1 183 -50.5t133.5 -133.5t50.5 -184l-57 -56q-9 148 -114 253t-253 114zM1884 444q-9 -125 -93 -219q37 78 38 164zM444 843l-55 -55q-86 -1 -164 -38q94 84 219 93zM476 844q100 -1 184 -50.5t133.5 -133.5t50.5 -184l-57 -56q-9 148 -114 253
t-253 114zM843 444q-9 -125 -93 -219q37 78 38 164zM1485 2025l-54 -55q-87 -1 -165 -38q94 84 219 93zM1518 2026q99 -1 183 -50.5t133.5 -133.5t50.5 -183l-57 -57q-9 148 -114 253t-253 114zM1884 1626q-9 -125 -93 -219q37 78 38 165zM444 2025l-55 -55q-86 -1 -164 -38
q94 84 219 93zM476 2026q100 -1 184 -50.5t133.5 -133.5t50.5 -183l-57 -57q-9 148 -114 253t-253 114zM843 1626q-9 -125 -93 -219q37 78 38 165zM609 1321q-48 -47 -105 -73.5t-110 -26.5q-52 0 -108.5 26.5t-104.5 71.5t-78.5 113.5t-30.5 143.5q0 148 107 255
q48 48 105.5 74.5t109.5 26.5t108.5 -26.5t104.5 -72t79 -113.5t31 -144q0 -147 -108 -255zM50 1583v-7q0 -79 30.5 -148t82.5 -122q-57 49 -90 118t-34 148zM52 1616l-12 -12q9 120 90 210l-6 -14q-62 -83 -72 -184zM738 1602q-10 141 -113 244q52 -44 84 -104.5t39 -129.5
zM739 1572l10 11q1 -4 1 -7q0 -70 -27 -135q-10 -13 -21 -25q36 74 37 156zM1650 1321q-47 -47 -104.5 -73.5t-110.5 -26.5q-52 0 -108.5 26.5t-104 71.5t-78.5 113.5t-31 143.5q0 148 107 255q48 48 105.5 74.5t109.5 26.5t108.5 -26.5t104.5 -72t79 -113.5t31 -144
q0 -147 -108 -255zM1091 1583v-7q0 -79 30.5 -148t82.5 -122q-57 49 -90 118t-34 148zM1093 1616l-12 -12q9 120 90 210l-6 -14q-62 -83 -72 -184zM1779 1602q-10 141 -113 244q52 -44 84 -104.5t39 -129.5zM1780 1572l11 11v-7q0 -70 -27 -135q-10 -13 -20 -25
q35 74 36 156zM609 139q-48 -47 -105 -73.5t-110 -26.5q-52 0 -108.5 26.5t-104.5 71.5t-78.5 113.5t-30.5 143.5q0 147 107 255q48 47 105.5 74t109.5 27t108.5 -27t104.5 -72t79 -113.5t31 -143.5q0 -147 -108 -255zM50 401v-7q0 -79 30.5 -148t82.5 -122q-57 49 -90 118
t-34 148zM52 434l-12 -12q9 120 90 210l-6 -14q-62 -84 -72 -184zM738 420q-10 141 -113 244q52 -44 84 -104.5t39 -129.5zM739 389l10 11q1 -3 1 -6q0 -71 -27 -135q-10 -13 -21 -25q36 74 37 155zM1650 139q-47 -47 -104.5 -73.5t-110.5 -26.5q-52 0 -108.5 26.5
t-104 71.5t-78.5 113.5t-31 143.5q0 147 108 255q47 47 104.5 74t109.5 27t108.5 -27t104.5 -72t79 -113.5t31 -143.5q0 -147 -108 -255zM1091 401v-7q0 -79 30.5 -148.5t82.5 -121.5q-57 49 -90 118t-34 147zM1093 434l-12 -12q9 120 90 210l-6 -14q-62 -84 -72 -184z
M1779 420q-10 141 -113 244q52 -44 84 -104.5t39 -129.5zM1780 389l11 11v-6q0 -71 -27 -135l-20 -26q35 75 36 156z" />
</svg>
