<?xml version="1.0" standalone="no"?>
<!DOCTYPE svg PUBLIC "-//W3C//DTD SVG 1.1//EN" "http://www.w3.org/Graphics/SVG/1.1/DTD/svg11.dtd" >
<svg xmlns="http://www.w3.org/2000/svg" xmlns:xlink="http://www.w3.org/1999/xlink" version="1.1" width="2048" height="2048" viewBox="-10 0 2068 2048">
   <path fill="currentColor"
d="M1666 529q-63 0 -138 29q-26 -176 -162 -293.5t-317 -117.5q-197 0 -339.5 142.5t-142.5 344.5v16q-5 0 -9 -2t-8 -2q-109 0 -184.5 78t-75.5 187v4q-34 -13 -68 -13q-92 0 -157 67.5t-65 159.5q0 168 222 168h1444q155 0 268.5 -111.5t113.5 -271t-111 -272.5t-271 -113
zM428 1410q0 38 -34 38q-37 0 -37 -38q0 -33 37 -33q34 0 34 33zM785 1448q0 33 -38 33q-34 0 -34 -33q0 -38 34 -38q38 0 38 38zM621 1662q0 33 -33 33q-38 0 -38 -33q0 -38 38 -38q33 0 33 38zM1364 1377q0 33 -34 33q-37 0 -37 -33q0 -38 37 -38q34 0 34 38zM1167 1591
q0 33 -38 33q-34 0 -34 -33q0 -38 34 -38q38 0 38 38zM1402 1624q0 38 -38 38q-34 0 -34 -38q0 -33 34 -33q38 0 38 33zM898 1695q0 38 -33 38q-38 0 -38 -38q0 -33 38 -33q33 0 33 33zM1167 1868q0 33 -38 33q-34 0 -34 -33q0 -38 34 -38q38 0 38 38zM1641 1448
q0 33 -38 33q-33 0 -33 -33q0 -38 33 -38q38 0 38 38zM428 1767q0 38 -34 38q-37 0 -37 -38q0 -34 37 -34q34 0 34 34z" />
</svg>
