<?xml version="1.0" standalone="no"?>
<!DOCTYPE svg PUBLIC "-//W3C//DTD SVG 1.1//EN" "http://www.w3.org/Graphics/SVG/1.1/DTD/svg11.dtd" >
<svg xmlns="http://www.w3.org/2000/svg" xmlns:xlink="http://www.w3.org/1999/xlink" version="1.1" width="2048" height="2048" viewBox="-10 0 2058 2048">
   <path fill="currentColor"
d="M1878 1987q-75 -17 -132 -84t-61 -147q-4 -97 -73.5 -183.5t-166.5 -107.5l-4 -4q-85 -21 -135 -84q-59 -76 -59 -148q-8 -155 -152 -248q-8 -8 -25 -17q-38 -21 -71 -25q-76 -21 -133 -88.5t-61 -147.5q-9 -59 -25 -101q-55 -118 -160 -168q0 -9 4 -13
q105 -139 -42 -286q-89 -88 -211 -122t-189 21q-59 67 -25.5 189t122.5 215q130 126 261 55l38 -13q101 38 147 143q13 21 21 80v4q4 97 73.5 183.5t166.5 107.5q29 4 59 21l8 4q9 4 17 13q4 4 10.5 8t10.5 4l9 9q75 76 84 172q8 110 76 186q63 80 168 109q80 17 137 84.5
t61 147.5q4 101 73.5 185t166.5 105q29 9 38 -21v-4q0 -30 -26 -34z" />
</svg>
