<?xml version="1.0" standalone="no"?>
<!DOCTYPE svg PUBLIC "-//W3C//DTD SVG 1.1//EN" "http://www.w3.org/Graphics/SVG/1.1/DTD/svg11.dtd" >
<svg xmlns="http://www.w3.org/2000/svg" xmlns:xlink="http://www.w3.org/1999/xlink" version="1.1" width="2048" height="2048" viewBox="-10 0 2058 2048">
   <path fill="currentColor"
d="M1309 0q-248 0 -405.5 111t-136.5 388q-163 -58 -205 -226q-30 -105 -143 -84q-46 12 -69 54t-11 89q50 193 186.5 291.5t292.5 127.5q67 223 12 428l-4 9v4q-46 155 -290 193q-205 -46 -293 96q-68 114 -36.5 261t124.5 260q33 46 88 46q42 0 71 -25q88 -76 21 -164
q-54 -67 -75 -149t-5 -103q42 0 72 9q63 17 205 38q68 20 273 33q315 17 558.5 -241t297.5 -649q55 -361 -106.5 -579t-421.5 -218z" />
</svg>
