<?xml version="1.0" standalone="no"?>
<!DOCTYPE svg PUBLIC "-//W3C//DTD SVG 1.1//EN" "http://www.w3.org/Graphics/SVG/1.1/DTD/svg11.dtd" >
<svg xmlns="http://www.w3.org/2000/svg" xmlns:xlink="http://www.w3.org/1999/xlink" version="1.1" width="2048" height="2048" viewBox="-10 0 2058 2048">
   <path fill="currentColor"
d="M1622 356q-51 0 -127 26q-26 -166 -153 -274t-293 -108q-186 0 -319.5 133.5t-133.5 320.5l4 4v13q-8 -5 -17 -5q-102 0 -174 72.5t-72 173.5v5q-25 -13 -59 -13q-85 0 -146.5 61.5t-61.5 150.5q0 157 208 157h1344q148 0 252 -104t104 -252.5t-104 -254.5t-252 -106z
M1232 1340q17 -17 -9 -17h-101q-22 0 -13 -21l59 -127q21 -22 -13 -22h-262q-22 0 -34 22l-170 343q-13 21 13 21h123q21 0 12 21l-190 484l4 4z" />
</svg>
