<?xml version="1.0" standalone="no"?>
<!DOCTYPE svg PUBLIC "-//W3C//DTD SVG 1.1//EN" "http://www.w3.org/Graphics/SVG/1.1/DTD/svg11.dtd" >
<svg xmlns="http://www.w3.org/2000/svg" xmlns:xlink="http://www.w3.org/1999/xlink" version="1.1" width="2048" height="2048" viewBox="-10 0 2058 2048">
   <path fill="currentColor"
d="M1992 854l-182 -66q8 -145 -87 -187l-1169 -431q-33 -120 -137 -158q-33 -12 -71 -12q-91 0 -176 74.5t-126 190.5q-54 145 -19 271.5t139 164.5q33 12 71 12q74 0 132 -41l448 161q-12 42 -12 92q0 186 140 302l-327 647q-29 66 33 104q25 8 37 8q46 0 67 -42l327 -642
q4 4 21 8t21 4v659q0 29 22.5 52t56.5 23q29 0 51.5 -23t22.5 -52v-659q17 -4 42 -12l327 642q21 42 71 42q8 0 33 -8q70 -38 33 -104l-328 -647q63 -50 100 -124q91 20 174 -87l182 62q75 21 112 -83q42 -108 -29 -141zM396 394q-33 83 -87 130.5t-91 35.5
q-41 -17 -51.5 -85.5t22.5 -155.5q25 -74 72.5 -120t84.5 -46h17q37 17 49.5 85.5t-16.5 155.5zM1445 1015.5q-8 70.5 -51.5 116t-93.5 37.5q-54 -4 -83 -60t-20.5 -126.5t52 -116t97.5 -37.5q49 8 78 62t21 124.5z" />
</svg>
