<?xml version="1.0" standalone="no"?>
<!DOCTYPE svg PUBLIC "-//W3C//DTD SVG 1.1//EN" "http://www.w3.org/Graphics/SVG/1.1/DTD/svg11.dtd" >
<svg xmlns="http://www.w3.org/2000/svg" xmlns:xlink="http://www.w3.org/1999/xlink" version="1.1" width="2048" height="2048" viewBox="-10 0 2058 2048">
   <path fill="currentColor"
d="M1091 1515v-697q0 -67 -67 -67t-67 67v697q-139 50 -139 193q0 88 59 147t147 59t147 -59t59 -147q0 -143 -139 -193zM1230 1435v-1234q0 -83 -59 -142t-147 -59t-147 59t-59 142v1234q-134 101 -134 273q0 147 98.5 243.5t241.5 96.5t241.5 -96.5t98.5 -243.5
q0 -168 -134 -273zM1024 1981q-113 0 -193 -80t-80 -193q0 -159 135 -239v-1268q0 -54 41.5 -94t96.5 -40t96.5 40t41.5 94v1268q135 80 135 239q0 113 -80 193t-193 80z" />
</svg>
