<?xml version="1.0" standalone="no"?>
<!DOCTYPE svg PUBLIC "-//W3C//DTD SVG 1.1//EN" "http://www.w3.org/Graphics/SVG/1.1/DTD/svg11.dtd" >
<svg xmlns="http://www.w3.org/2000/svg" xmlns:xlink="http://www.w3.org/1999/xlink" version="1.1" width="2048" height="2048" viewBox="-11 0 2069 2048">
   <path fill="currentColor"
d="M1662 498l67 -13q71 -12 143 -126l105 -159q75 -109 50 -134l-25 -21l-21 -26q-30 -25 -134 51l-160 105q-109 71 -126 138l-12 72l-311 310l113 113zM672 1194l-80 -75q0 4 -4 4l-521 520q-67 72 -67 168.5t67 163.5t168 67t168 -67l520 -520q5 0 5 -5l-76 -75z
M1968 1564l-1015 -1016q8 -46 0 -138q-30 -160 -135 -265q-159 -151 -373 -138q-55 4 -65.5 44t27.5 78l181 180q33 34 33 78t-33 77l-114 118q-33 33 -77 33t-78 -33l-189 -189q-38 -38 -79.5 -29.5t-46.5 63.5q-29 230 139 398q122 122 294 134q71 9 130 -4l1003 1003
q84 84 197 84q117 0 201 -84q80 -84 80 -197t-80 -197z" />
</svg>
