<?xml version="1.0" standalone="no"?>
<!DOCTYPE svg PUBLIC "-//W3C//DTD SVG 1.1//EN" "http://www.w3.org/Graphics/SVG/1.1/DTD/svg11.dtd" >
<svg xmlns="http://www.w3.org/2000/svg" xmlns:xlink="http://www.w3.org/1999/xlink" version="1.1" width="2048" height="2048" viewBox="-10 0 2058 2048">
   <path fill="currentColor"
d="M1778 325q-104 -188 -258 -292q-109 -66 -209 0l-166 100q-59 34 -121 34t-121 -34l-166 -100q-100 -66 -209 0q-154 104 -258 292q-100 166 -77 389t161 398q-5 25 -13 64.5t-14.5 152t6 212.5t64.5 216.5t140 191.5q8 4 16.5 12.5t39.5 33.5t54 33t54 16.5t41.5 -12.5
t17 -60.5t-18.5 -122.5q-21 -46 -15 -152t27 -212.5t94 -191.5t177 -94q104 9 177 94t94 191.5t27 212.5t-15 152q-46 167 6 191.5t127 -33.5l71 -58q142 -117 187.5 -327t20.5 -360l-25 -150q138 -175 161 -398t-77 -389z" />
</svg>
