<?xml version="1.0" standalone="no"?>
<!DOCTYPE svg PUBLIC "-//W3C//DTD SVG 1.1//EN" "http://www.w3.org/Graphics/SVG/1.1/DTD/svg11.dtd" >
<svg xmlns="http://www.w3.org/2000/svg" xmlns:xlink="http://www.w3.org/1999/xlink" version="1.1" width="2048" height="2048" viewBox="-10 0 2068 2048">
   <path fill="currentColor"
d="M1821 737.5q0 -54.5 -55 -90.5t-131 -36t-128.5 36t-52.5 90.5t52.5 90.5t128.5 36t131 -36t55 -90.5zM2048 539q0 -50 -21 -94.5t-42 -60.5l-17 -22q-51 -63 -122.5 -92.5t-121.5 -29.5h-47q-80 5 -151.5 23.5t-100.5 35.5l-30 17q-38 17 -76 19t-59 -2l-21 -4
q-25 -13 -77.5 -19t-95.5 -6h-42q-160 0 -214 25q-72 21 -156 -13q-101 -63 -283 -76q-181 -17 -290 122q-76 68 -80 177q-9 118 84 156q0 21 6.5 55t54.5 80t133 30q-9 -5 -21.5 -17.5t-33.5 -44t-23 -65.5t33.5 -76t115.5 -80q-4 -4 -14.5 -8t-44 -8.5t-71.5 8.5
q-80 0 -89 -72q0 -4 2.5 -14.5t15 -33.5t33.5 -40t67.5 -29.5t105.5 -12.5q12 0 33 4t76 16.5t97 29.5t80 53t42 82q9 211 72 295q50 101 126 181q4 8 8.5 23t13 53t-12.5 59q-5 8 -13.5 29t-21 93t4.5 156q0 240 72 345q38 47 63 0q17 -12 29 -12l30 12q12 21 27 21t28 -8
l8 -13q34 -46 50.5 -132.5t16.5 -149.5l5 -63q8 -93 1.5 -154t-18.5 -95l-13 -29q-12 -30 -12 -59.5t12 -54.5l9 -21q33 -34 64.5 -80t44.5 -76l17 -25q29 -38 46 -111.5t21 -128.5l5 -55q8 -72 90 -118t158 -59l80 -8q97 0 154 31.5t61 65.5l8 33q0 34 -23 51t-44 21h-21
q-42 -13 -71.5 -11t-42.5 11l-17 8q127 59 146 128.5t-28 111.5l-46 43q84 16 132.5 -24t57.5 -90l4 -51q42 -17 63 -54.5t21 -71.5v-30zM1050 1083q-5 12 -7 33.5t13 48.5t61 11q13 509 -59 577l-34 -21q-12 0 -20.5 4t-12.5 12v5q-34 -30 -49 -175.5t-10 -275.5v-126
q46 16 63 -7t13 -52l-9 -34q0 -211 -59 -371t-118 -215l-55 -54q55 16 118.5 22.5t100.5 2.5h38q135 17 257 -25q-25 16 -63 58.5t-103 206.5t-65 375zM595 737.5q0 -54.5 -53 -90.5t-128.5 -36t-130.5 36t-55 90.5t55 90.5t130.5 36t128.5 -36t53 -90.5z" />
</svg>
