<?xml version="1.0" standalone="no"?>
<!DOCTYPE svg PUBLIC "-//W3C//DTD SVG 1.1//EN" "http://www.w3.org/Graphics/SVG/1.1/DTD/svg11.dtd" >
<svg xmlns="http://www.w3.org/2000/svg" xmlns:xlink="http://www.w3.org/1999/xlink" version="1.1" width="2048" height="2048" viewBox="-10 0 2068 2048">
   <path fill="currentColor"
d="M1834 1074q4 -16 0 -29t-21 -17l-76 -38q-16 -8 -29 0q-17 17 -17 21.5t-8.5 17t-12.5 20.5q-16 21 -50 21q-50 0 -71 -46q-30 -46 -30 -126t30 -126q25 -50 71 -50q25 0 46 21l25 38q0 8 17 16q13 9 29 0l76 -33q13 -9 21 -21q4 -13 -4 -30q-72 -146 -210 -146
q-113 0 -193 92q-76 96 -76 239t76 239q75 88 193 88q143 0 214 -151zM1087 1225q105 0 159 -54q63 -55 63 -143q0 -42 -21 -84q-21 -33 -46 -58q17 -13 42 -55q17 -42 17 -71q0 -89 -59 -139t-155 -50q-130 0 -206 105q-12 29 5 46l58 54q17 9 25 9q17 0 30 -13
q33 -50 84 -50q38 0 46 21q8 25 8 29t-4 12.5t-4 12.5q-4 17 -50 17h-42q-21 0 -30 9q-12 12 -12 25v88q0 12 12 25q9 17 30 8h42q46 0 58 17q9 25 9 34q0 50 -59 50q-63 0 -92 -50q-13 -13 -30 -13q-12 -4 -25 9l-59 58q-25 17 -4 47q29 46 88 79q55 25 122 25zM856 621
q4 -17 -8 -29q-9 -13 -25 -13h-101q-25 0 -34 25l-50 252l-50 -252q-9 -25 -34 -25h-76q-33 0 -37 25l-51 252l-50 -252q0 -25 -34 -25h-100q-17 0 -30 13q-8 21 -4 29l126 567q4 29 38 29h96q30 0 34 -29l50 -231l46 231q5 29 34 29h101q29 0 33 -29zM1977 38q33 0 50 21
q21 17 21 50v1469q0 17 -13 38q-12 21 -33 29l-949 361q-4 4 -25 4t-25 -4l-957 -361q-25 -17 -33 -29q-13 -21 -13 -38v-1469q0 -29 21 -50q17 -21 50 -21h1906z" />
</svg>
