<?xml version="1.0" standalone="no"?>
<!DOCTYPE svg PUBLIC "-//W3C//DTD SVG 1.1//EN" "http://www.w3.org/Graphics/SVG/1.1/DTD/svg11.dtd" >
<svg xmlns="http://www.w3.org/2000/svg" xmlns:xlink="http://www.w3.org/1999/xlink" version="1.1" width="2048" height="2048" viewBox="-10 0 2058 2048">
   <path fill="currentColor"
d="M974 330q67 0 113 -54t46 -117q-9 -71 -51 -113q-50 -50 -116 -46q-67 0 -113 50q-46 55 -46 117q0 67 50 117q46 46 117 46zM1525 882l-238 -130l-54 -83l-84 -138l-58 -92q-54 -71 -142 -71q-50 0 -109 46l-46 50l-250 251q-9 16 -17 42l-38 330v4v8q0 29 21 50
q4 9 29 21q5 0 13 2t12 2q25 0 51 -25q20 -21 20 -46l9 -50l12 -142l13 -96l104 -104l-41 321l-17 138l-21 180l-17 163l-171 380q-8 33 -8 46q0 46 33 79q29 34 79 30q63 0 96 -63l184 -405q0 -9 4 -17q0 -4 9 -21q4 -4 4 -17l21 -184l8 9l109 175l104 401q17 34 25 42
q25 38 76 46q41 0 66 -21l5 -4q4 -4 8 -4q50 -42 38 -109l-109 -405l-8 -21q-5 -17 -5 -21q-4 -8 -4 -21l-8 -16l-25 -38l-9 -17l-45 -67l-21 -29l-21 -29l-55 -84l9 -108l12 -96l21 -197l75 117q0 4 21 25l255 142l34 9q33 0 54 -25q21 -21 21 -55q0 -37 -34 -58z" />
</svg>
