<?xml version="1.0" standalone="no"?>
<!DOCTYPE svg PUBLIC "-//W3C//DTD SVG 1.1//EN" "http://www.w3.org/Graphics/SVG/1.1/DTD/svg11.dtd" >
<svg xmlns="http://www.w3.org/2000/svg" xmlns:xlink="http://www.w3.org/1999/xlink" version="1.1" width="2048" height="2048" viewBox="-10 0 2068 2048">
   <path fill="currentColor"
d="M2021 990l-84 -46l-89 -50q-54 -38 -67 -89q-25 -80 -72 -164q-25 -59 -12 -113l25 -93l25 -96q9 -21 -4 -34t-38 -9l-96 26l-93 25q-63 17 -114 -13q-79 -42 -164 -67q-58 -13 -88 -67l-50 -89l-47 -84q-29 -54 -63 0l-50 89l-51 84q-25 54 -84 71q-88 25 -159 68
q-51 29 -114 12l-97 -25l-96 -25q-21 -9 -34 4t-9 38l26 96l29 101q17 55 -17 110v4q-38 80 -63 156q-17 58 -67 84l-88 50l-89 51q-54 29 0 63l89 50l88 51q59 33 71 88l64 151q29 51 12 114l-25 97l-25 100q-9 21 4 34t38 9l96 -26l101 -29q55 -13 114 12v5q80 38 156 63
q54 17 88 67l46 88l51 89q29 54 63 0l50 -89l51 -88q37 -55 88 -67q84 -25 155 -68q55 -29 114 -12l97 25l96 25q55 13 43 -42l-26 -96l-25 -97q-17 -59 13 -110v-4q38 -67 67 -160q13 -54 71 -88l85 -50l84 -47q54 -29 0 -63z" />
</svg>
