<?xml version="1.0" standalone="no"?>
<!DOCTYPE svg PUBLIC "-//W3C//DTD SVG 1.1//EN" "http://www.w3.org/Graphics/SVG/1.1/DTD/svg11.dtd" >
<svg xmlns="http://www.w3.org/2000/svg" xmlns:xlink="http://www.w3.org/1999/xlink" version="1.1" width="2048" height="2048" viewBox="-10 0 2058 2048">
   <path fill="currentColor"
d="M1654 105q-9 0 -30 -17q-33 -17 -46 -25q-17 -13 -50 -29l-51 -26q-4 0 -12.5 -4t-12.5 -4q-29 0 -42 25l-84 147l-890 1595q-67 109 -67 130q0 25 25 46q181 105 206 105q21 0 42 -25l71 -134q55 -101 216.5 -390.5t266.5 -474.5q306 -554 483 -865v-12q0 -25 -25 -42z
" />
</svg>
