<?xml version="1.0" standalone="no"?>
<!DOCTYPE svg PUBLIC "-//W3C//DTD SVG 1.1//EN" "http://www.w3.org/Graphics/SVG/1.1/DTD/svg11.dtd" >
<svg xmlns="http://www.w3.org/2000/svg" xmlns:xlink="http://www.w3.org/1999/xlink" version="1.1" width="2048" height="2048" viewBox="-10 0 2068 2048">
   <path fill="currentColor"
d="M1897 163l-1817 713q-9 4 -23.5 10.5t-35.5 27.5t-21 46q4 25 23 44t36 27l21 9l445 147v8l37 118q34 113 76 249.5t54 173.5q30 93 55 93h13v-4l37 -13l298 -269l458 353q63 21 100.5 8.5t54.5 -37.5l17 -30l323 -1632q0 -51 -38 -61.5t-75 2.5zM1670 532l-860 776v5h-4
l-13 16l-50 470q-17 -16 -34 -71q-33 -117 -159 -516l-4 -25l1087 -693q62 -38 62 0q9 9 -25 38z" />
</svg>
