<?xml version="1.0" standalone="no"?>
<!DOCTYPE svg PUBLIC "-//W3C//DTD SVG 1.1//EN" "http://www.w3.org/Graphics/SVG/1.1/DTD/svg11.dtd" >
<svg xmlns="http://www.w3.org/2000/svg" xmlns:xlink="http://www.w3.org/1999/xlink" version="1.1" width="2048" height="2048" viewBox="-10 0 2069 2048">
   <path fill="currentColor"
d="M2017 1222q-49 -177 -222.5 -334t-399.5 -218q33 49 33 99q66 24 107 61q33 33 45 79h25q99 0 136 82q49 91 -25 194q50 41 74 86q46 103 33.5 146.5t-94.5 129.5l-5 4q38 46 186 46q58 0 99 -50q74 -99 8 -325zM1720 1304q-41 -90 -136 -90h-4l4 -5q128 -103 91 -185
q-21 -41 -70 -41q-41 0 -115 37l-5 4q0 -4 5 -4q37 -95 -5 -132q-57 -54 -123 -54h-17v-8l4 -8q21 -82 -34.5 -127.5t-109.5 -45.5q-20 0 -70 8q-12 4 -26.5 6t-25 6.5t-14.5 4.5h-8v-4q0 -29 -8 -58l-17 -33q-49 -91 -160 -115q-21 -9 -62 -9q-70 0 -136 37t-99 75l-33 37
q-78 -46 -144 -46q-58 0 -105.5 35t-63.5 72l-17 33q-33 -8 -45 -8q-58 0 -70 49.5t4 98.5l17 46q-79 33 -105.5 72t-10 76t33 55.5t32.5 31.5q198 -379 659 -396h21h29q478 0 816 705l12 24q4 13 21 37l29 5l16 4l16 -17q58 -57 62 -82t-33 -91zM1556 1502q-13 -12 -13 -21
q-8 -16 -12 -20q-120 -264 -309.5 -466t-440.5 -202h-25h-20q-404 17 -590 342q0 4 -4 8l-12 25q-4 4 -6 10.5t-6.5 12.5t-4.5 10q-78 177 -94 383h1602l-33 -33q-24 -33 -32 -49zM781 1094q0 -29 20.5 -49.5t49.5 -20.5t49.5 20.5t20.5 49.5t-20.5 49.5t-49.5 20.5
t-49.5 -20.5t-20.5 -49.5zM1016 1378q0 21 -13 33q-20 37 -57 37q-29 0 -49.5 -18.5t-20.5 -47.5v-8q0 -20 4 -29q12 -20 33 -33q16 -8 33 -8q37 0 57 33q13 13 13 37v4zM1086 1259q-29 0 -49.5 -20.5t-20.5 -49.5t20.5 -49.5t49.5 -20.5q70 0 70 70q0 29 -20.5 49.5
t-49.5 20.5z" />
</svg>
