<?xml version="1.0" standalone="no"?>
<!DOCTYPE svg PUBLIC "-//W3C//DTD SVG 1.1//EN" "http://www.w3.org/Graphics/SVG/1.1/DTD/svg11.dtd" >
<svg xmlns="http://www.w3.org/2000/svg" xmlns:xlink="http://www.w3.org/1999/xlink" version="1.1" width="2048" height="2048" viewBox="-11 0 2069 2048">
   <path fill="currentColor"
d="M722 685l492 585q4 -17 33 -25l-626 -1161q-22 -42 -66 -55t-86.5 8.5t-55.5 66t9 86.5zM1912 1626h-4l-8 -5h-9q-72 -16 -169 -16h-13q-114 0 -199 16q98 106 21 174l-4 4q-30 26 -63 26q-26 0 -60 -26q-17 -12 -51 -46l-59 -68q-63 25 -106 55l-76 51q-30 17 -97 59
q-9 9 -30 19.5t-29.5 14.5t-25.5 14.5t-26 15.5q-55 29 -72 38q0 8 13 21q34 34 55 42q26 9 47 9q25 0 59 -4.5t61.5 -10.5t53 -12.5t38.5 -10.5l16 -5l276 -63l347 -30q30 -4 55 -25q47 -38 47 -76q12 -38 12 -81q5 -29 5 -80h-5zM2035 1579q-42 -76 -97 -140l-17 -17
q-13 0 0 30q8 17 8 30l5 25q-5 0 -13 -21q-38 -76 -47 -89q-38 -55 -84 -76q-38 -17 -47 -21q-17 -9 -21 -9q-17 0 4 30q26 38 72 127q9 21 4 21q-4 0 -17 -17q-55 -97 -135 -161q-42 -34 -106 -42h-38h-4q-43 0 -5 25q98 59 144 165q13 26 5 26q-9 -9 -17 -21
q-81 -115 -199 -166q-43 -21 -72 -21q-5 0 -13 4l-26 5l-50 12h-5q-42 13 9 30q4 4 8 4q102 43 183 153l8 21q-4 0 -21 -17q-68 -76 -144 -106l-26 -13l55 64l144 174q81 -17 229 -26h13q80 0 178 21q8 0 17 5q12 0 80 17q26 8 34 8q17 0 17 -13zM998 1816q12 -8 73.5 -46
t95.5 -60q51 -29 97 -55l-194 -211q-60 -9 -85 -9q-64 0 -102 38q-21 17 -51 47q-38 29 5 29h12q22 -4 55 -4q144 0 255 93l8 5v4h-4l-9 -9q-131 -59 -241 -59q-17 0 -106 13q-51 13 -93 63q-9 17 -26 43q-21 42 5 42q4 -4 8 -4q26 -9 42 -9q60 -12 111 -12q89 0 144 21
l21 13h-4q-13 0 -22 -5q-12 0 -33.5 -2t-33.5 -2q-77 0 -178 25q-21 5 -64 22q-46 12 -80 63q-26 38 25 55q106 21 127 21h21q13 0 38 -8q13 -4 38.5 -19t33.5 -19q34 -21 111 -64zM1036 1350l12 13l51 55l204 220l8 9l8 8l13 13v4l51 55q59 60 80.5 60t42.5 -17
q4 -9 13 -17q29 -38 -43 -110l-8 -13l-4 -4l-9 -13l-17 -17l-8 -13l-216 -254l-17 -25l-22 -21l-317 -377l-665 -792q-34 -38 -80.5 -38t-76.5 29q-34 30 -36 76.5t28 80.5l991 1071z" />
</svg>
