<?xml version="1.0" standalone="no"?>
<!DOCTYPE svg PUBLIC "-//W3C//DTD SVG 1.1//EN" "http://www.w3.org/Graphics/SVG/1.1/DTD/svg11.dtd" >
<svg xmlns="http://www.w3.org/2000/svg" xmlns:xlink="http://www.w3.org/1999/xlink" version="1.1" width="2048" height="2048" viewBox="-10 0 2058 2048">
   <path fill="currentColor"
d="M864 1382q-9 9 -32 21.5t-36 16.5v628h397v-683q-110 30 -198 30q-68 0 -131 -13zM270 666q0 -51 4 -76q-160 147 -160 354q0 194 137 328.5t331 134.5q101 0 202 -46q-228 -67 -371 -259t-143 -436zM1589 362q-85 -164 -243 -263t-351 -99q-220 0 -397 130.5t-244 337.5
q0 12 -8 38q-5 4 -5 16.5t-4 21.5q-13 63 -13 122q0 223 133 400t339 240q9 5 28 9t27 4q26 8 38 8q13 5 38 5q21 4 68 4q88 0 198 -30q67 -21 122 -50q71 25 151 25q194 0 331 -137t137 -331q0 -160 -97 -284t-248 -167z" />
</svg>
