<?xml version="1.0" standalone="no"?>
<!DOCTYPE svg PUBLIC "-//W3C//DTD SVG 1.1//EN" "http://www.w3.org/Graphics/SVG/1.1/DTD/svg11.dtd" >
<svg xmlns="http://www.w3.org/2000/svg" xmlns:xlink="http://www.w3.org/1999/xlink" version="1.1" width="2048" height="2048" viewBox="-10 0 2068 2048">
   <path fill="currentColor"
d="M1666 1100q-75 0 -138 25q-13 -88 -51 -156l135 -188q8 -17 4 -26q-9 -16 -17 -21l-273 -88v-285q0 -13 -12 -25q-13 -4 -30 0l-268 84l-168 -231q-9 -9 -25 -9q-9 0 -26 9l-167 231l-269 -84q-17 -9 -29 0q-13 12 -13 25v285l-269 88q-12 5 -21 21q-4 9 5 26l167 230
l-167 231q-9 17 -4.5 29.5t20.5 16.5l261 84q-21 42 -21 105v9q-34 -13 -68 -13q-92 0 -157 67t-65 160q0 168 222 168h1444q155 0 268.5 -111.5t113.5 -271t-111 -272.5t-271 -113zM1049 718q-201 0 -341.5 140.5t-140.5 341.5v21q-5 -4 -17 -4q-105 0 -181 76
q-29 -42 -37 -72q-47 -105 -47 -210t47 -205q37 -105 113 -172q67 -76 172 -114q101 -46 205.5 -46t209.5 46q101 42 168 114q76 75 109 159q-113 -75 -260 -75z" />
</svg>
