<?xml version="1.0" standalone="no"?>
<!DOCTYPE svg PUBLIC "-//W3C//DTD SVG 1.1//EN" "http://www.w3.org/Graphics/SVG/1.1/DTD/svg11.dtd" >
<svg xmlns="http://www.w3.org/2000/svg" xmlns:xlink="http://www.w3.org/1999/xlink" version="1.1" width="2048" height="2048" viewBox="-10 0 2068 2048">
   <path fill="currentColor"
d="M2035 470l-457 -457q-34 -26 -67 0l-88 92q-13 13 -13 29q0 21 13 34l205 201l-58 59l-206 -201q-29 -38 -63 0l-76 75q-12 13 -12 34q0 17 12 29l122 126l-59 55l-121 -122q-34 -30 -63 0l-80 80q-13 12 -13 29q0 21 13 34l206 205l-59 59l-206 -206q-33 -29 -63 0
l-75 76q-17 17 -17 33.5t17 33.5l121 122l-58 58l-122 -121q-34 -34 -67 0l-76 75q-12 13 -12 34q0 17 12 29l206 206l-59 59l-205 -206q-30 -34 -63 0l-80 80q-30 29 0 63l126 121l-63 59l-122 -122q-12 -12 -29 -12q-21 0 -34 12l-75 76q-38 34 0 63l201 206l-59 58
l-201 -205q-13 -13 -34 -13q-16 0 -29 13l-92 88q-26 33 0 67l457 457q13 13 34 13q16 0 33 -13l1498 -1498q26 -33 0 -67z" />
</svg>
