<?xml version="1.0" standalone="no"?>
<!DOCTYPE svg PUBLIC "-//W3C//DTD SVG 1.1//EN" "http://www.w3.org/Graphics/SVG/1.1/DTD/svg11.dtd" >
<svg xmlns="http://www.w3.org/2000/svg" xmlns:xlink="http://www.w3.org/1999/xlink" version="1.1" width="2048" height="2048" viewBox="-10 0 2058 2048">
   <path fill="currentColor"
d="M1401.5 155.5q-155.5 -155.5 -377.5 -155.5q-159 0 -298 92q-235 160 -235 441v982q0 222 155.5 377.5t377.5 155.5q159 0 298 -92q235 -160 235 -445v-978q0 -222 -155.5 -377.5zM965 319q-17 4 -38 19t-50 71.5t-29 131.5v261q0 46 -42 75q-17 13 -51 13
q-33 0 -60.5 -25.5t-27.5 -62.5v-261q0 -84 25.5 -157t57 -113t71 -69.5t58.5 -38t32 -12.5q84 -29 109 55q29 84 -55 113zM1381 1511q0 189 -156 298q-96 59 -201 59q-151 0 -252 -105q-105 -97 -105 -248v-390q0 -42 31.5 -73.5t73.5 -31.5l504 -4q46 0 71 33q34 25 34 72
v390z" />
</svg>
