<?xml version="1.0" standalone="no"?>
<!DOCTYPE svg PUBLIC "-//W3C//DTD SVG 1.1//EN" "http://www.w3.org/Graphics/SVG/1.1/DTD/svg11.dtd" >
<svg xmlns="http://www.w3.org/2000/svg" xmlns:xlink="http://www.w3.org/1999/xlink" version="1.1" width="2048" height="2048" viewBox="-10 0 2058 2048">
   <path fill="currentColor"
d="M1712 1389h-25h-50h-164h-50h-51h-235q-21 0 -35.5 15t-14.5 36v29q0 50 50 50h164q-34 25 -90.5 46t-94.5 30l-42 8l-50 9q-197 0 -337.5 -141t-140.5 -338q0 -184 125.5 -318.5t306.5 -151.5l17 46l8 21l21 72l29 84l30 105q17 46 63 29l121 -38l122 -38q50 -12 34 -63
l-135 -423l-138 -424q-17 -46 -63 -30h-8l-9 5q-12 4 -46 12l-113 38l-67 21q-47 17 -30 63l93 289q-256 42 -426 239.5t-170 461.5q0 223 123.5 403.5t320.5 259.5q-251 46 -251 143v59q0 50 50 50h420h50h50h416q50 0 50 -50v-59q0 -97 -252 -143q5 -4 21.5 -10.5
t20.5 -10.5q172 -88 273 -235q34 -21 67 -21h17q50 0 50 -50v-29q0 -51 -25 -51z" />
</svg>
