<?xml version="1.0" standalone="no"?>
<!DOCTYPE svg PUBLIC "-//W3C//DTD SVG 1.1//EN" "http://www.w3.org/Graphics/SVG/1.1/DTD/svg11.dtd" >
<svg xmlns="http://www.w3.org/2000/svg" xmlns:xlink="http://www.w3.org/1999/xlink" version="1.1" width="2048" height="2048" viewBox="-10 0 2068 2048">
   <path fill="currentColor"
d="M1663 1012q-71 0 -133 25q-30 -176 -165.5 -293t-315.5 -117q-159 0 -282 92t-173 238l-13 -16q-8 -13 -13 -21q-62 -101 -62 -226q0 -92 37 -180q38 -83 109 -150q29 -25 13 -63q-13 -33 -51 -29q-129 8 -242 54q-109 55 -192 138q-88 96 -130 201q-50 113 -50 242.5
t50 246.5q59 125 138 205q4 4 14.5 12t14.5 13q-87 4 -152 68.5t-65 152.5q0 172 226 172h1437q159 0 272 -111t113 -270t-113 -271.5t-272 -112.5zM568 1129h-16q-88 0 -157 52t-94 132q-25 -17 -38 -30q-67 -67 -113 -167q-41 -96 -41 -209q0 -184 104 -317
q105 -143 272 -193q-84 142 -84 297q0 151 71 280q42 71 96 121l-4 4v13v8q4 5 4 9z" />
</svg>
