<?xml version="1.0" standalone="no"?>
<!DOCTYPE svg PUBLIC "-//W3C//DTD SVG 1.1//EN" "http://www.w3.org/Graphics/SVG/1.1/DTD/svg11.dtd" >
<svg xmlns="http://www.w3.org/2000/svg" xmlns:xlink="http://www.w3.org/1999/xlink" version="1.1" width="2048" height="2048" viewBox="-10 0 2068 2048">
   <path fill="currentColor"
d="M529 1308q131 0 277 -70t218 -214q72 144 218 214t277 70t232.5 -32t154.5 -78.5t87 -95t47 -78.5l8 -34q-68 68 -212 68q-72 0 -135 -80.5t-139.5 -159t-182.5 -78.5q-110 0 -198.5 44.5t-122.5 87.5l-34 46q-13 -21 -36 -50.5t-116 -78.5t-203 -49q-85 0 -150.5 49
t-103.5 110.5t-91 110t-112 48.5q-144 0 -212 -68q4 13 10.5 34t42.5 76t89 97.5t154.5 76.5t232.5 34z" />
</svg>
