<?xml version="1.0" standalone="no"?>
<!DOCTYPE svg PUBLIC "-//W3C//DTD SVG 1.1//EN" "http://www.w3.org/Graphics/SVG/1.1/DTD/svg11.dtd" >
<svg xmlns="http://www.w3.org/2000/svg" xmlns:xlink="http://www.w3.org/1999/xlink" version="1.1" width="2048" height="2048" viewBox="-10 0 2068 2048">
   <path fill="currentColor"
d="M0 1463h67v-269l105 235q17 38 63 38t63 -38l105 -235v269h67v-269q0 -34 -34 -42q-75 -25 -100 29l-105 231l-101 -231q-21 -54 -101 -29q-29 4 -29 42v269zM525 1244h71v147v11q0 6 10.5 12.5t27.5 6.5h147v-177h67v244q4 71 -105 71h-214v-46h214q21 0 29.5 -8.5
t8.5 -12.5v-13v-16h-143q-113 0 -113 -63v-156zM902 1463h193q38 0 63 -13q46 -21 46 -55v-50q0 -33 -50 -50q-33 -9 -59 -9h-79q-42 0 -47 -29v-4v-30v-8q5 -17 38 -21h4h193v-42h-188q-42 0 -55 4q-59 17 -59 67v38q0 55 93 63q8 4 21 4h71h4q34 0 38 13q8 8 8 13v37
q0 13 -12 17q-9 8 -30 8h-4h-189v47zM1628 1387q0 71 105 76h21h176v-42h-180q-55 0 -55 -38v-231h-67v235zM1246 1387v-159q0 -63 89 -76h16h130h17q88 13 88 76v159q0 46 -42 63l68 59h-80l-55 -46l-54 4h-72q-12 0 -37 -9q-68 -16 -68 -71zM1322 1383v8q8 30 50 30h59
l-54 -51h79l46 42q17 -4 17 -21q4 0 4 -8v-151q0 -4 -4 -9q0 -25 -46 -25h-101q-50 0 -50 34v151zM1989 1077q-63 -9 -100 12l-21 13q4 0 4 8t4 8q4 13 25 34q25 17 33.5 21t31.5 14.5t32 19.5l37 25l13 12q0 -8 -8 -16q-5 -5 -13 -17q-25 -34 -55 -51q-58 -42 -58 -46
l-4 -4q12 0 37 -8q4 0 23 -2t28 -7q4 0 12.5 -2t12.5 -2v-4q-17 -25 -25 -34q-59 -46 -84 -63q-9 -8 -30 -16.5t-25 -8.5q-21 -8 -21 -12q-12 -9 -21 -38l-46 -92q-21 -51 -25 -59q-80 -126 -202 -193q-16 -13 -67 -21q-12 -4 -38 -4q-4 -5 -12.5 -9t-12.5 -8
q-100 -72 -126 -9q-12 26 34 84q4 9 12.5 21.5t12.5 20.5q4 4 4 12.5t5 12.5q16 51 25 72q4 4 10.5 14.5t10.5 18.5q12 13 12 17q-4 4 -6 10.5t-4 15t-2 12.5q-30 109 16 176q30 42 55 30q4 0 25 -63q0 -13 4 -17v4l21 42q13 25 68 71q4 5 16.5 15.5t20.5 14.5l-12 -13
l-30 -29q-12 -17 -33 -52.5t-25 -44.5q-5 -17 -21 -50l-5 -9q0 -8 -4 -8q-4 4 -12.5 14.5t-12.5 19t-13 79.5h-4q-8 0 -29 -33q-25 -72 -4 -139q16 -50 12 -58q0 -5 -17 -21q-16 -26 -20 -34q-9 -13 -15 -44.5t-15 -47.5q-25 -38 -29 -42l-25 -38q-9 -17 -5 -21q0 -8 9 -8h8
q4 0 12.5 2t12.5 2l51 25q16 17 25 21h8h28q18 0 27 4q42 13 71 38q101 59 164 176q4 9 8 21.5t9 16.5q8 25 33 75q25 55 38 68q4 4 12.5 8t23 8.5t19 8.5t17 8t16.5 4l50 38q38 13 38 30zM1456 623h-21v4h4q5 9 17 21q4 5 4 13t5 13l4 -5q8 -8 8 -25l-4 -8q-4 -4 -13 -9z
M0 967h25q21 0 30 9q12 8 12 21q0 8 -8 25q-17 8 -34 8h-12v42h-13v-105zM17 1022h8q25 0 25 -25q0 -17 -21 -17h-12v42zM151 1035q0 42 -38 42q-33 0 -33 -42q0 -38 33 -38q38 0 38 38zM92 1034.5q0 29.5 21 29.5q25 0 25 -29.5t-25 -29.5q-21 0 -21 29.5zM176 997l9 38
q0 4 2 12.5t2 12.5q4 -4 4 -12.5t4 -12.5l13 -38h12l9 38q8 16 8 25q0 -4 2 -12.5t2 -12.5l13 -38h13l-26 75h-8l-13 -33q-4 -4 -4 -12.5t-4 -12.5q0 8 -8 25l-9 33h-12l-26 -75h17zM290 1039q0 25 25 25q17 0 21 -4l4 8q-8 9 -25 9q-38 0 -38 -42q0 -38 38 -38q29 0 29 33
v9h-54zM332 1026q0 -21 -21 -21q-9 0 -21 21h42zM361 1022v-25h13v17q4 -17 20 -17h5v12h-5q-12 0 -20 17v9v37h-13v-50zM420 1039q0 25 25 25q17 0 21 -4l4 8q-8 9 -25 9q-38 0 -38 -42q0 -38 33.5 -38t33.5 33v9h-54zM462 1026q0 -21 -21 -21t-21 21h42zM554 963v93v16h-8
l-5 -12q-8 17 -25 17q-33 0 -33 -42q0 -38 37 -38q17 0 21 12v-46h13zM541 1030v-8q-8 -17 -21 -17q-21 0 -21 29.5t21 29.5q13 0 21 -17v-4v-13zM613 963h12v46q5 -12 25 -12q34 0 34 38q0 42 -34 42q-16 0 -29 -17v12h-12q0 -4 2 -8t2 -8v-93zM625 1043v4q0 17 21 17
t21 -29.5t-21 -29.5q-12 0 -21 17v8v13zM705 997l17 46v4q4 4 4 9q0 -5 4 -13l17 -46h13l-21 54q-9 34 -26 47q-8 8 -16 8l-5 -8l5 -5q8 0 8 -4q8 -8 13 -17v-4l-30 -71h17z" />
</svg>
