<?xml version="1.0" standalone="no"?>
<!DOCTYPE svg PUBLIC "-//W3C//DTD SVG 1.1//EN" "http://www.w3.org/Graphics/SVG/1.1/DTD/svg11.dtd" >
<svg xmlns="http://www.w3.org/2000/svg" xmlns:xlink="http://www.w3.org/1999/xlink" version="1.1" width="2048" height="2048" viewBox="-10 0 2068 2048">
   <path fill="currentColor"
d="M1024 0q-423 0 -723.5 300.5t-300.5 723.5t300.5 723.5t723.5 300.5q68 0 118.5 -51t50.5 -118q0 -72 -42 -115q-47 -63 -47 -114q0 -67 51 -118t119 -51h203q241 0 406 -167t165 -404q0 -377 -300.5 -643.5t-723.5 -266.5zM397.5 1024q-67.5 0 -118.5 -51t-51 -118.5
t51 -120.5t118.5 -53t118.5 51t51 123q0 67 -51 118t-118.5 51zM740 567q-71 0 -122 -51t-51 -118.5t53 -118.5t120.5 -51t118.5 51t51 118.5t-51 118.5t-119 51zM1308 567q-68 0 -119 -51t-51 -118.5t51 -118.5t118.5 -51t118.5 51t51 118.5t-49 118.5t-120 51z
M1650.5 1024q-67.5 0 -120.5 -51t-53 -118.5t53 -120.5t120.5 -53t118.5 53t51 120.5t-51 118.5t-118.5 51z" />
</svg>
