<?xml version="1.0" standalone="no"?>
<!DOCTYPE svg PUBLIC "-//W3C//DTD SVG 1.1//EN" "http://www.w3.org/Graphics/SVG/1.1/DTD/svg11.dtd" >
<svg xmlns="http://www.w3.org/2000/svg" xmlns:xlink="http://www.w3.org/1999/xlink" version="1.1" width="2048" height="2048" viewBox="-10 0 2068 2048">
   <path fill="currentColor"
d="M1592 1626q-130 -100 -153 -393t19 -535l46 -243h360q29 0 64.5 -10.5t77.5 -58.5t42 -127q0 -97 -44 -149t-90 -56h-46h-1317q-247 0 -523 426q-42 67 -21 88t100 -13q159 -66 274 -91.5t149 -16.5l37 8q26 75 15.5 407.5t-73.5 475.5q-9 21 -42 87.5t-48 98t-36 90
t-21 96t6.5 86t40 86t83.5 66.5q155 88 278.5 -66.5t106.5 -443.5l-25 -983h330q-54 807 -8 1104q21 214 140 326.5t259 108.5t272 -81.5t178 -206.5q42 -134 0 -222q-34 -88 -84 -92q-25 0 -21 29q9 55 -4 88q-12 75 -114.5 127.5t-207.5 -10.5z" />
</svg>
