<?xml version="1.0" standalone="no"?>
<!DOCTYPE svg PUBLIC "-//W3C//DTD SVG 1.1//EN" "http://www.w3.org/Graphics/SVG/1.1/DTD/svg11.dtd" >
<svg xmlns="http://www.w3.org/2000/svg" xmlns:xlink="http://www.w3.org/1999/xlink" version="1.1" width="2048" height="2048" viewBox="-10 0 2068 2048">
   <path fill="currentColor"
d="M1446 589q-4 -4 -17 -13q-12 -12 -21 -17q-164 -139 -384 -139q-334 0 -511 283q-8 17 -13 21q0 4 -4 10.5t-8 10.5q-241 93 -372 211.5t-114 232.5t181.5 185.5t418.5 84.5h93q211 0 397 -34q253 -38 468 -122q237 -89 370 -209.5t116 -234.5t-181.5 -185.5
t-418.5 -84.5zM1624 969q-233 127 -579 182q-177 29 -363 29q-148 0 -245 -17q-228 -50 -241 -147q-12 -64 66 -131.5t226 -130.5q-5 4 -9 10.5t-4 10.5t-4 10.5t-9 10.5q-42 114 -42 228q0 38 9 106q114 21 253 21q182 0 359 -30q329 -51 549 -169q25 -12 30 -17
q-26 -164 -140 -308q-8 -8 -13 -17q-4 0 -8 -4t-8 -9q333 30 359 157q12 110 -186 215zM695 1493q-13 0 -30 -2t-25 -2q164 139 384 139q334 0 511 -283q-194 68 -439 114q-224 34 -401 34z" />
</svg>
