<?xml version="1.0" standalone="no"?>
<!DOCTYPE svg PUBLIC "-//W3C//DTD SVG 1.1//EN" "http://www.w3.org/Graphics/SVG/1.1/DTD/svg11.dtd" >
<svg xmlns="http://www.w3.org/2000/svg" xmlns:xlink="http://www.w3.org/1999/xlink" version="1.1" width="2048" height="2048" viewBox="-10 0 2064 2048">
   <path fill="currentColor"
d="M1250 1028q-76 67 -134 180q-59 -209 -151 -347q51 -176 25.5 -309.5t-109 -225.5t-192 -152.5t-229.5 -96t-221.5 -52.5t-167.5 -21l-67 -4q0 42 6.5 111t46 246.5t104.5 313.5t198.5 242.5t309.5 97.5q0 -104 -25 -204q-13 -50 -34 -122l-88 -213q67 92 126 176
q163 259 221 418q147 309 147 890q0 38 27 65t64.5 27t65 -27t27.5 -65q0 -238 -17 -389q42 -196 117 -313q50 -105 159 -255q121 -159 242 -247q-188 213 -201 418q147 9 257.5 -70.5t161 -198.5t81.5 -238.5t35 -206.5l9 -84q-38 0 -102.5 6.5t-221.5 46t-267.5 102
t-179.5 194.5t-23 307z" />
</svg>
