<?xml version="1.0" standalone="no"?>
<!DOCTYPE svg PUBLIC "-//W3C//DTD SVG 1.1//EN" "http://www.w3.org/Graphics/SVG/1.1/DTD/svg11.dtd" >
<svg xmlns="http://www.w3.org/2000/svg" xmlns:xlink="http://www.w3.org/1999/xlink" version="1.1" width="2048" height="2048" viewBox="-10 0 2068 2048">
   <path fill="currentColor"
d="M1227 561q4 50 4 156v395h5v5h8v4q4 0 21 8q4 0 25 6.5t34 10.5q105 8 147 -13h4q9 -8 13 -8l9 -8q8 -5 12 -9l17 -17l8 -8q5 -4 9 -4q4 -4 8 -10.5t4 -11t9 -12.5v-4q0 -4 4 -10.5t9 -10.5q0 -13 8 -21q0 -9 8 -34q0 -17 5 -29q4 -9 4 -34q4 -38 -4 -173h-5v-33l-4 -5
q0 -12 -8.5 -33t-8.5 -34q-8 -8 -8 -17q-9 -17 -9 -21l-4 -8q-4 -9 -8 -9q-21 -29 -42 -54h-4l4 -5q-55 -46 -72 -54q0 -5 -8 -9l-9 -4l-38 -25h-4l-25 -13q-13 -4 -29 -12l-17 -9q-9 0 -17 -8q-4 0 -12.5 -2t-12.5 -2l-5 -5q-8 0 -8 -4q-13 0 -21 -8q-9 0 -34 -8.5
t-42 -12.5l-38 -13q-8 0 -17 -8h-16v-5h-17q-13 -8 -55 -16q-25 -9 -59 -17v-5q-8 0 -42 -8l-8 -4h-13q-4 -4 -21 -4q-13 -5 -46 -13q-13 0 -21.5 -4t-29.5 -4v1473q17 8 25 8q9 5 23.5 11t23.5 6q4 0 10 2t11 2q4 5 17 5q8 8 21 8q8 4 12 4q17 9 30 9l38 12v5h16q0 4 8.5 4
t8.5 4q9 4 23.5 8.5t23.5 4.5q33 12 42 8l-9 8h17q-4 -33 -4 -101v-1145q0 -42 25 -71l9 -4q33 -5 60.5 14t31.5 53zM701 1441q-9 4 -21 4v4h-9q-8 4 -20.5 8.5t-16.5 8.5l-9 4h-12q-9 9 -22 9q-4 4 -8 4q-8 4 -12.5 4t-10.5 4t-11 4q-8 0 -8 5q-30 12 -67 12v5
q-59 8 -118 0v-5q-13 0 -21 -4q-5 0 -21 -8l-5 -9h-4q0 -4 2 -12.5t2 -12.5l17 -8q17 -9 21 -13q5 0 30 -10.5t42 -14.5q12 -5 29 -13h13v-4q4 0 12.5 -4.5t12.5 -4.5t10.5 -2t10.5 -2l-4 -4q13 0 21 -4q4 0 10.5 -2t10.5 -7v-4h17q13 -4 36 -12.5t31 -12.5h9q8 -8 17 -8
q4 -5 12 -5q9 -4 34 -12v-194h-17v4q-4 4 -8.5 4t-8.5 5q-4 0 -12 4h-9q-17 8 -21 8l-38 13l-25 13q-25 8 -42 12q-4 4 -17 4l-25 13h-13q-8 4 -42 17q-8 4 -25 10.5t-25 10.5h-13l-25 13q-5 0 -9 4h-8q-9 4 -25.5 10.5t-25.5 10.5q-12 0 -17 4h-8q-8 4 -17 13h-17v4
q-4 0 -21 4t-21 8l-17 9q-4 4 -14.5 8.5t-14.5 4.5t-8 4q-17 8 -26 12v5q-4 -5 -8 -5v5q-9 12 -30 16q-33 34 -37 42q-22 38 0 72q8 17 16 25q9 5 26 21q16 9 25 17q4 0 13 4h4q8 9 17 9q16 8 25 8q17 9 50 17v4h21q5 5 9 5q8 4 12 4q13 0 21.5 4t25.5 4q8 4 25 4l4 5h17
q8 -17 8 4q9 0 26 2t21 2v4h63q34 4 105 4q21 -4 63 -4l-4 -4q13 0 29.5 -2t25 -2t21 -2t21.5 -7v-172zM2048 1378l-8 -17v-4l-9 -9q-4 -8 -12 -17v-4h-9q-8 -8 -34 -25h-4l-4 -9l-4 5q-17 -9 -21 -13q-9 0 -17 -8q-13 -5 -36 -13t-31 -8q-51 -13 -55 -13v-4q-13 0 -21 -5
q-55 -12 -59 -12h-46l4 -4q-9 0 -17 -2.5t-17 -2.5q-46 0 -71 -4h-43q-25 0 -42 -4v4q-29 0 -88 9v4h-46v4q-21 0 -30 4q-4 0 -12.5 2t-12.5 2t-14.5 2.5t-15.5 6.5q-33 8 -59 17h-12q-25 8 -34 12q-8 9 -4 21v181l38 -12q4 -4 12 -4q13 -5 30 -13h8q17 -8 42 -17q5 0 11 -2
t11 -6q4 0 14.5 -4.5t14.5 -4.5q4 -4 13 -4q16 -8 25 -8v-5q8 0 23 -4t23 -8l25 -13h13q4 0 8 -4l9 -4q8 0 23 -4.5t23 -8.5q4 -4 42 -12q9 -5 30 -5q12 -4 84 -4l-4 4q25 0 38 5l16 8q26 17 13 34l-8 4l-5 8h-4l-25 13v4q-4 0 -42 13h-8q-5 4 -9 4v4q-13 0 -17 4l-76 26
l-4 4h-8q-9 0 -17 8h-8q-5 0 -9 4.5t-8 4.5q-38 16 -68 21l-25 12q-12 0 -17 5q-4 0 -8 2t-9 2l-25 12q-25 9 -42 13l4 4h-21v4q-4 0 -14.5 2.5t-14.5 6.5q-4 0 -14.5 4t-19.5 8l-38 13l-25 13v189l76 -25q8 -4 33 -13q5 -4 17 -4q9 -4 42 -17l38 -12q0 -5 8.5 -5t8.5 -4
q13 -4 44.5 -14.5t48.5 -14.5v-5l8 -4h9l25 -12h12l26 -13q12 0 17 -4q4 0 21 -9q4 0 10 -2t11 -2q8 -4 25 -10.5t25 -10.5q4 0 13 -4h4l25 -13h13q0 -4 8.5 -4t8.5 -4q4 -4 12.5 -4t12.5 -5q76 -25 109 -42q13 0 17 -4q9 -4 23.5 -10.5t18.5 -6.5q59 -33 85 -54l4 -9h4
q4 -4 4 -8l4 -4q0 -9 5 -9q8 -12 8 -50z" />
</svg>
