<?xml version="1.0" standalone="no"?>
<!DOCTYPE svg PUBLIC "-//W3C//DTD SVG 1.1//EN" "http://www.w3.org/Graphics/SVG/1.1/DTD/svg11.dtd" >
<svg xmlns="http://www.w3.org/2000/svg" xmlns:xlink="http://www.w3.org/1999/xlink" version="1.1" width="2048" height="2048" viewBox="-10 0 2058 2048">
   <path fill="currentColor"
d="M1867 1636q-50 -17 -94 4t-65 67q0 4 -2 10.5t-2 10.5l-467 -171l467 -167l4 8v9q21 45 65 68t94 7q46 -17 67 -63t4 -92q-17 -54 -75 -75q29 -54 8 -104q-17 -46 -62.5 -67t-91.5 -4t-67 62.5t-4 91.5q4 4 4 10.5t4 10.5l-630 230l-630 -230q8 -17 8 -21
q17 -46 -4 -91.5t-67 -62.5t-92 4t-62 67q-21 58 8 104q-59 21 -75 75q-17 46 6 90t69 65q46 16 89.5 -7t64.5 -68v-9l4 -8l468 167l-468 171q0 -4 -2 -10.5t-2 -10.5q-21 -46 -64.5 -67t-89.5 -4t-69 63t-6 92q21 58 75 70q-29 55 -8 105q16 46 62 69t92 6q46 -21 67 -65
t4 -94q0 -8 -8 -16l630 -230l630 230q-8 8 -8 16q-17 50 4 94t67 65q46 17 91.5 -6t62.5 -69q17 -50 -8 -105q54 -12 75 -70q17 -46 -4 -92t-67 -63zM473 993q0 84 58.5 142.5t141.5 58.5q4 0 9 -4v20q0 42 27 69t69 27q50 0 75 -37q29 58 87 58q55 0 84 -50q29 50 83 50
q59 0 88 -58q25 37 75 37q42 0 69 -27t27 -69v-20h4l4 4q84 0 142.5 -58.5t58.5 -142.5q0 -50 -21 -91q75 -130 75 -297q0 -250 -177.5 -427.5t-428 -177.5t-427.5 177.5t-177 427.5q0 167 75 297q-21 41 -21 91zM1333 568q66 0 110 43.5t44 106t-44 108.5t-110 46
q-63 0 -107 -46t-44 -108.5t44 -106t107 -43.5zM1024 885q108 46 108 142q0 37 -23 49.5t-50 -4t-35 -49.5q-9 33 -36 49.5t-50 4t-23 -49.5q0 -42 27.5 -77.5t56.5 -52.5zM715 568q63 0 106.5 43.5t43.5 106t-43.5 108.5t-106.5 46q-67 0 -110.5 -46t-43.5 -108.5
t43.5 -106t110.5 -43.5z" />
</svg>
