<?xml version="1.0" standalone="no"?>
<!DOCTYPE svg PUBLIC "-//W3C//DTD SVG 1.1//EN" "http://www.w3.org/Graphics/SVG/1.1/DTD/svg11.dtd" >
<svg xmlns="http://www.w3.org/2000/svg" xmlns:xlink="http://www.w3.org/1999/xlink" version="1.1" width="2048" height="2048" viewBox="-10 0 2068 2048">
   <path fill="currentColor"
d="M430 1197q59 25 88 29q76 26 156 26q21 21 63 54q59 34 106 47q84 21 177 -5q55 -21 92 -42q43 -33 64 -54l21 -34q8 4 23 6t55 6.5t57 -4.5q29 -4 88 -29q42 -21 68 -47l4 -4q4 -4 8 -4l-50 721v16q0 5 -5 13q-21 80 -105 80h-830q-13 0 -17 -4h-4h-4q-38 -13 -68 -46
v-5l-4 -4q-4 -4 -4 -8t-4 -9q0 -8 -5 -12v-17v-4l-50 -721q4 0 12 8q26 26 68 47zM350 434q17 -97 90.5 -158t170.5 -61q38 0 76 13q72 -152 236 -152t236 152q38 -13 80 -13q97 0 170.5 63t86.5 156q93 17 154 88.5t61 168.5q0 84 -50.5 153.5t-135.5 95.5q0 4 -12 55
q-34 71 -89 105q-42 34 -88 46q-42 9 -68 9q-38 0 -88 -17l-17 -9q-46 110 -160 144q-38 12 -80 12q-38 0 -76 -12q-114 -34 -160 -144q-9 9 -17 9q-59 17 -88 17q-26 0 -68 -8.5t-88 -42.5q-55 -42 -89 -109q-13 -51 -13 -55q-84 -26 -134.5 -95.5t-50.5 -153.5
q0 -97 61 -168.5t150 -88.5zM1702 1462q13 0 17 4q21 -46 68 -46q29 0 48 21t19 51q47 12 55 63q8 63 -59 76q-17 59 -80 59q-34 0 -59 -25.5t-25 -58.5v-5q-55 -17 -55 -67q0 -30 21 -51t50 -21zM1837 1007h13l8 4q21 -42 68 -42q67 0 67 68q47 12 55 63q0 59 -59 76
q-13 59 -80 59q-34 0 -59 -25.5t-25 -59.5v-4q-55 -12 -55 -67q0 -30 19 -51t48 -21zM72 1193q12 0 21 4q12 -47 63 -47q29 0 48 21.5t19 50.5q51 13 55 63q9 63 -59 72q-13 59 -80 59q-34 0 -59 -25.5t-25 -58.5v-5q-55 -8 -55 -67q0 -30 21 -48.5t51 -18.5z" />
</svg>
