<?xml version="1.0" standalone="no"?>
<!DOCTYPE svg PUBLIC "-//W3C//DTD SVG 1.1//EN" "http://www.w3.org/Graphics/SVG/1.1/DTD/svg11.dtd" >
<svg xmlns="http://www.w3.org/2000/svg" xmlns:xlink="http://www.w3.org/1999/xlink" version="1.1" width="2048" height="2048" viewBox="-10 0 2068 2048">
   <path fill="currentColor"
d="M1968 911h-256q-38 0 -58 -33l-164 -294q-30 -50 -80 -38q-54 8 -63 59l-42 302q-8 42 -8 80l-34 231q0 8 -4 12q0 9 -4 -4q-4 -4 -4 -8l-42 -231q0 -13 -4.5 -40t-8.5 -40l-96 -655q-9 -63 -72 -63q-59 -8 -80 51l-180 688q-13 29 -21 76l-42 142q-8 34 -21 0l-38 -134
q-4 -13 -10 -44.5t-6 -35.5l-51 -285q-12 -51 -71 -59q-55 0 -76 50l-92 244q-17 38 -55 38h-205q-34 0 -57 23t-23 52.5t23 52.5t57 23h285q46 0 67 -42l4 -13q21 -38 30 -59q8 -16 12 -4q0 4 6.5 27.5t10.5 35.5l135 516q8 55 67 63q58 0 79 -54l114 -542q0 -12 8 -41.5
t13 -37.5l71 -265q4 -25 13 -8q4 4 4 12l42 252q12 76 12 80l122 806q8 63 76 63q63 0 75 -63l118 -823q0 -8 4 -37.5t4 -37.5q8 -34 29 -5l55 93q21 29 21 38q25 37 71 37h340q34 0 57 -23t23 -52.5t-23 -52.5t-57 -23z" />
</svg>
