<?xml version="1.0" standalone="no"?>
<!DOCTYPE svg PUBLIC "-//W3C//DTD SVG 1.1//EN" "http://www.w3.org/Graphics/SVG/1.1/DTD/svg11.dtd" >
<svg xmlns="http://www.w3.org/2000/svg" xmlns:xlink="http://www.w3.org/1999/xlink" version="1.1" width="2048" height="2048" viewBox="-10 0 2058 2048">
   <path fill="currentColor"
d="M775 987h492q100 0 171.5 -71.5t71.5 -176.5v-466q0 -97 -71.5 -166t-171.5 -90q-114 -17 -257 -17q-138 0 -235 17q-147 25 -195.5 84t-48.5 172v185h492v63h-676q-110 0 -191.5 65t-111.5 183q-63 256 0 500q59 248 256 248h173v-223q0 -122 90 -214.5t212 -92.5z
M745.5 336q-37.5 0 -65 -27.5t-27.5 -64.5q0 -42 27.5 -69.5t65 -27.5t65 27.5t27.5 69.5q0 37 -27.5 64.5t-65 27.5zM2002 769q-67 -248 -244 -248h-185v218q0 126 -92.5 218.5t-213.5 92.5h-492q-97 0 -170.5 73.5t-73.5 174.5v466q0 177 244 248.5t492 -0.5
q243 -67 243 -248v-184h-487v-63h735q97 0 149.5 -61t94.5 -187q67 -210 0 -500zM1296 1701q38 0 65 27.5t27 69.5q0 38 -27 65t-65 27t-65 -27t-27 -65q0 -42 27 -69.5t65 -27.5z" />
</svg>
