<?xml version="1.0" standalone="no"?>
<!DOCTYPE svg PUBLIC "-//W3C//DTD SVG 1.1//EN" "http://www.w3.org/Graphics/SVG/1.1/DTD/svg11.dtd" >
<svg xmlns="http://www.w3.org/2000/svg" xmlns:xlink="http://www.w3.org/1999/xlink" version="1.1" width="2048" height="2048" viewBox="-10 0 2068 2048">
   <path fill="currentColor"
d="M1350 1404q25 0 8 33l-167 460q-8 33 -29 25q-25 -9 -8 -42l163 -443q8 -33 33 -33zM1137 1404q-17 0 -34 33l-158 443q-17 33 4 42q16 4 33 -25l167 -460q9 -33 -12 -33zM928 1404q-25 0 -34 33l-163 443q-16 33 9 42q21 8 29 -25l167 -460q17 -33 -8 -33zM715 1404
q-25 0 -34 33l-163 443q-8 33 9 42q16 4 33 -25l167 -460q9 -33 -12 -33zM1559 1404q-17 0 -33 33l-159 443q-17 33 8 42q21 8 29 -25l168 -460q16 -33 -13 -33zM502 1404q-17 0 -34 33l-159 443q-16 33 9 42q12 8 29 -25l167 -460q17 -33 -12 -33zM1663 509q-50 0 -133 25
q-30 -175 -165.5 -292t-315.5 -117q-201 0 -343 142t-142 342q0 5 2 11t2 10q-4 0 -10 -2t-10 -2q-109 0 -184.5 77.5t-75.5 185.5v5q-33 -13 -62 -13q-96 0 -161 67t-65 159q0 171 226 171h1437q159 0 272 -113t113 -271.5t-113 -271.5t-272 -113z" />
</svg>
