<?xml version="1.0" standalone="no"?>
<!DOCTYPE svg PUBLIC "-//W3C//DTD SVG 1.1//EN" "http://www.w3.org/Graphics/SVG/1.1/DTD/svg11.dtd" >
<svg xmlns="http://www.w3.org/2000/svg" xmlns:xlink="http://www.w3.org/1999/xlink" version="1.1" width="2048" height="2048" viewBox="-10 0 2058 2048">
   <path fill="currentColor"
d="M1516 1687q-105 202 -197.5 281.5t-201.5 79.5q-214 0 -516 -319q-231 -235 -268 -587q-30 -298 79 -454h4q0 -8 17 -21q323 84 474 269q126 147 219 386q71 176 126 227q88 88 264 138zM970 881q118 139 202 344q189 -42 315 -172q113 -117 167 -373q-46 -67 -142 -109
q-13 -4 -30 -13q-8 -4 -14.5 -33.5t-4 -84t14.5 -117.5l21 -88q9 -25 0 -38q-8 -17 -25 -21l-109 -21q-38 -8 -46 30q-80 293 -109 331q-13 13 -17 13q-25 0 -34 -55q0 -67 30 -432q0 -17 -13 -29.5t-29 -12.5h-93q-37 0 -37 38q0 205 -42 398q-13 122 -47 122q-12 0 -21 -4
q-46 -21 -92 -243l-21 -164q0 -21 -17 -34q-16 -8 -33 -4l-114 29q-41 9 -25 47l9 29q4 29 14 78q11 48 19 86q13 92 -58 147q-5 0 -34 21q-8 4 -16.5 12.5t-23.5 21t-23 20.5q323 97 478 281zM1545 1108q-130 134 -344 193q55 138 105 193q80 80 248 122q172 -357 168 -634
q0 -76 -17 -176q-63 201 -160 302z" />
</svg>
