<?xml version="1.0" standalone="no"?>
<!DOCTYPE svg PUBLIC "-//W3C//DTD SVG 1.1//EN" "http://www.w3.org/Graphics/SVG/1.1/DTD/svg11.dtd" >
<svg xmlns="http://www.w3.org/2000/svg" xmlns:xlink="http://www.w3.org/1999/xlink" version="1.1" width="2048" height="2048" viewBox="-10 0 2058 2048">
   <path fill="currentColor"
d="M1423 2006h-798h-16q12 42 58 42h714q46 0 58 -42h-16zM562 525q26 -21 63 -21h798q37 0 63 21v-462q0 -25 -19 -44t-44 -19h-798q-25 0 -44 19t-19 44v462zM646 113q0 -29 34 -29h21q29 0 29 29v273q0 34 -29 34h-21q-34 0 -34 -34v-273zM1486 730v-126q0 -25 -19 -44
t-44 -19h-798q-25 0 -44 19t-19 44v1297q0 25 19 44t44 19h798q25 0 44 -19t19 -44v-1171zM697 1712h-17q-34 0 -34 -33v-936q0 -34 34 -34h17q33 0 33 34v936q0 33 -33 33z" />
</svg>
