<?xml version="1.0" standalone="no"?>
<!DOCTYPE svg PUBLIC "-//W3C//DTD SVG 1.1//EN" "http://www.w3.org/Graphics/SVG/1.1/DTD/svg11.dtd" >
<svg xmlns="http://www.w3.org/2000/svg" xmlns:xlink="http://www.w3.org/1999/xlink" version="1.1" width="2048" height="2048" viewBox="-10 0 2068 2048">
   <path fill="currentColor"
d="M2006 42h-1649q-42 0 -42 42v214h-273q-42 0 -42 38v1628q0 42 42 42h1649q42 0 42 -42v-214h273q42 0 42 -38v-1628q0 -42 -42 -42zM1633 1847q0 42 -42 42h-1448q-42 0 -42 -42v-1247q0 -42 42 -42h1448q42 0 42 42v1247zM1947 1595q0 42 -42 42h-172v-1301
q0 -13 -17 -30h189q42 0 42 42v1247z" />
</svg>
