<?xml version="1.0" standalone="no"?>
<!DOCTYPE svg PUBLIC "-//W3C//DTD SVG 1.1//EN" "http://www.w3.org/Graphics/SVG/1.1/DTD/svg11.dtd" >
<svg xmlns="http://www.w3.org/2000/svg" xmlns:xlink="http://www.w3.org/1999/xlink" version="1.1" width="2048" height="2048" viewBox="-10 0 2058 2048">
   <path fill="currentColor"
d="M375 374q-16 0 -42 -17q-42 -38 0 -80l17 -17q21 -17 54.5 -42t78 -54.5t107.5 -61t130 -52.5q471 -156 934 176q42 30 13 76q-30 42 -76 13q-408 -295 -833 -160q-92 33 -178.5 83.5t-128.5 84.5l-38 34q-25 17 -38 17zM287 782q-4 0 -8.5 -2.5t-8.5 -2.5
q-46 -21 -34 -71q13 -25 28 -59t78 -118t138.5 -149t208 -122t284.5 -70q151 -8 288 30t219 92.5t149 124t90.5 103t31.5 54.5q25 55 -25 76q-46 25 -76 -25q-4 -9 -25 -42.5t-78 -90t-130.5 -105t-191.5 -80t-248 -23.5t-244 56.5t-181 107.5t-117.5 124t-69.5 103t-23 51
q-13 38 -55 38zM1743 1472q-13 0 -17 -5q-55 -16 -38 -67q46 -143 37.5 -279.5t-27 -221t-27.5 -92.5q-13 -51 34 -67q54 -26 71 33q118 349 21 661q-17 38 -54 38zM1722 1711q-21 0 -34 -12q-114 -89 -162 -175t-46 -128t19 -72q117 -370 -34 -601q-135 -202 -408 -219
q-122 -13 -219 18.5t-166 103.5t-96.5 111.5t-69.5 115.5q-4 9 -12.5 23.5t-12.5 22.5q-47 68 -190 165q-46 25 -76 -26q-25 -46 26 -75q96 -47 147 -122q13 -30 17 -38q42 -80 77.5 -128.5t115.5 -132.5t202 -124t269 -28q333 34 489 274q185 282 42 698v9l-5 4
q-29 88 160 235q47 38 9 80q-13 21 -42 21zM1562 1829q-13 0 -17 -4q-139 -55 -204 -172.5t-54.5 -225t31.5 -195.5q25 -97 25 -181t-10.5 -120t-14.5 -36q-93 -197 -299 -206q-202 -8 -320 198q-54 101 -153 212.5t-162 166t-80 67.5q-42 42 -76 -9q-42 -42 8 -75l30 -21
q25 -26 67 -68t90.5 -92.5t97 -113.5t82.5 -122q151 -265 420 -252q278 8 396 265q8 8 18.5 52.5t17 143t-31.5 224.5q-88 358 160 455q50 21 33 71q-12 38 -54 38zM535 1951q-25 0 -46 -21q-30 -46 13 -80q8 -4 16 -12q375 -261 556 -530q168 -249 29 -387q-59 -26 -113 -9
q-72 21 -135 101t-93 143q-67 135 -185 244t-183 147t-94 47q-55 21 -76 -30q-17 -50 29 -71q13 0 80.5 -38t170.5 -135t157 -214q122 -240 291 -299q101 -34 206 17l8 4l9 8q8 9 18.5 21.5t25.5 33.5t27.5 48.5t21 59t8.5 73.5t-10.5 86t-36 99t-63.5 114
q-202 294 -585 559l-12 9q-17 12 -34 12zM367 1812q-25 0 -46 -29q-30 -46 21 -76q12 0 113 -73.5t257 -235.5t248 -343q21 -50 72 -25q54 25 25 76q-34 71 -78 138.5t-90.5 124t-94.5 109.5t-96.5 95t-90.5 77.5t-80 63t-65.5 46.5t-44.5 31l-21 13q-16 8 -29 8zM1335 1981
q-26 0 -34 -9q-114 -80 -162 -183t-42 -176.5t36 -128.5q25 -50 75 -21q51 25 21 76q-12 25 -20.5 59t25 124t134.5 162q42 29 13 76q-17 21 -46 21zM1103 2048q-21 0 -42 -13q-55 -54 -128.5 -62.5t-119.5 8.5l-46 17q-51 29 -76 -22q-25 -54 25 -75q30 -17 76 -32
t155.5 -4t193.5 86q42 42 0 80q-13 17 -38 17z" />
</svg>
