<?xml version="1.0" standalone="no"?>
<!DOCTYPE svg PUBLIC "-//W3C//DTD SVG 1.1//EN" "http://www.w3.org/Graphics/SVG/1.1/DTD/svg11.dtd" >
<svg xmlns="http://www.w3.org/2000/svg" xmlns:xlink="http://www.w3.org/1999/xlink" version="1.1" width="2048" height="2048" viewBox="-10 0 2058 2048">
   <path fill="currentColor"
d="M958 1646q42 195 13 284q-34 80 -132 105q-4 0 -16.5 4.5t-31.5 6.5t-36 2q-127 0 -182 -114q-17 -30 -59 -148q-51 -144 -119 -254q-46 -64 -68 -110q-93 -144 -148 -271q-101 -241 -101 -334q0 -55 29 -85q9 -8 26 -17q0 -46 34 -68l34 -17q0 -42 8 -59q8 -34 42 -46
q5 0 15.5 -2.5t14.5 -6.5q8 -34 17 -51q25 -33 55 -38q29 -8 55 0q8 -33 21 -50q42 -43 93 -43q25 0 46.5 4.5t36 10.5t27.5 21t21.5 23.5t14.5 27.5t10.5 25.5t8.5 27.5l4 17q5 25 5 68q0 50 8 67q0 4 6.5 12.5t10.5 17.5q63 89 85 173q8 47 -13 174q-30 194 -13 258
q13 68 85 186q72 127 93 199zM1969 432q-4 -77 -63 -93q0 -43 -38 -64q-17 -13 -38 -13q0 -34 -13 -59q-17 -30 -51 -42q-4 0 -14.5 -2t-14.5 -2q-9 -34 -22 -47q-21 -25 -59 -34q-38 0 -55 4q-8 -25 -25 -42q-34 -38 -89 -38h-9q-135 8 -152 178q0 46 4 67q9 43 -4 68
q0 9 -13 30q-55 122 -63 186q-4 51 30 173q42 170 38 254q-9 68 -60 195q-55 114 -63 203q-25 195 17 284q25 46 71.5 67t67.5 21q5 0 22 2.5t33 2.5q153 0 204 -132q12 -29 42 -156q25 -135 89 -267q21 -46 55 -114q76 -161 114 -283q68 -271 59 -347z" />
</svg>
