<?xml version="1.0" standalone="no"?>
<!DOCTYPE svg PUBLIC "-//W3C//DTD SVG 1.1//EN" "http://www.w3.org/Graphics/SVG/1.1/DTD/svg11.dtd" >
<svg xmlns="http://www.w3.org/2000/svg" xmlns:xlink="http://www.w3.org/1999/xlink" version="1.1" width="2048" height="2048" viewBox="-11 0 2070 2048">
   <path fill="currentColor"
d="M115 1031v-4q-13 -167 56.5 -320t140.5 -224l75 -72q46 -37 9 -79q-34 -50 -76 -9q-17 13 -44 38t-81.5 94.5t-98.5 147t-73.5 192.5t-20.5 236q0 55 12.5 138.5t90 255.5t211.5 298q21 12 38 12t42 -17q33 -41 -5 -79q-121 -109 -190 -270.5t-77.5 -230.5t-8.5 -107z
M1728 332q-42 -42 -76 8q-37 42 9 80q33 29 81.5 79.5t126 209.5t64.5 327v4q0 38 -8.5 107t-77.5 230t-190 270q-38 38 -5 80q25 17 42 17t38 -13q134 -126 211.5 -297.5t90 -255.5t12.5 -138q9 -122 -20.5 -237t-73.5 -192.5t-98.5 -146.5t-81.5 -94.5t-44 -37.5z
M1527 1501h-947q-59 0 -59 54q0 59 59 59h947q58 0 58 -59q0 -54 -58 -54zM974 1396q-134 -117 -122 -235q9 -54 86.5 -119t81.5 -115q8 -25 -15 -50.5t-10 -37.5q58 0 77 42t15 90t14.5 87.5t73.5 35.5q29 -4 23 -52t-2 -57q104 63 67 210q-4 33 -54.5 81.5t-46.5 77.5
q101 -17 161.5 -115.5t67 -213.5t-48 -222t-155.5 -144q0 8 19 52t17 58.5t-27 48.5q-46 -4 -63 -37.5t-19 -90.5t-6 -73q-59 -218 -289 -214q88 75 88 167.5t-50.5 163.5t-105 165.5t-58.5 161.5q-4 121 73.5 211t207.5 124z" />
</svg>
