<?xml version="1.0" standalone="no"?>
<!DOCTYPE svg PUBLIC "-//W3C//DTD SVG 1.1//EN" "http://www.w3.org/Graphics/SVG/1.1/DTD/svg11.dtd" >
<svg xmlns="http://www.w3.org/2000/svg" xmlns:xlink="http://www.w3.org/1999/xlink" version="1.1" width="2048" height="2048" viewBox="-10 0 2068 2048">
   <path fill="currentColor"
d="M0 1024q0 -59 105 -109q113 -55 264 -80q168 -29 340 -33h63q134 0 252 12q147 13 243 42q97 21 160 50q59 26 84 59q33 25 33 59t-33 59q59 -25 84 -59q21 -34 17 -71q-13 -38 -76 -76q-59 -38 -147 -63q-4 0 -21 -4t-25 -8q-155 -34 -319 -47q-206 -12 -382 5
q181 -34 382 -34t382 34q176 25 273 75q96 46 109 97q8 16 8 21q0 25 -46 71q-55 42 -138 71q-105 34 -185 47q-92 12 -202 25q-125 8 -201 8t-201 -8q121 16 201 21q105 12 243 4q131 0 269 -21q126 -13 210 -42q17 -4 42 -13q122 -46 163 -92q47 -59 -8 -109
q105 50 105 109q0 55 -105 109.5t-264 79.5q-168 29 -340 33h-63q-134 0 -252 -12q-147 -13 -243 -42q-97 -21 -160 -50q-59 -26 -84 -59q-33 -34 -33 -59q0 -34 33 -59q-59 25 -84 59q-21 34 -17 71q13 38 76 76q59 38 147 63l50 12q151 34 315 47q206 12 382 -5
q-181 34 -382 34t-382 -34q-176 -25 -273 -75q-96 -46 -109 -97q-8 -16 -8 -21q0 -33 46 -71q55 -42 138 -71q105 -34 185 -47q92 -12 202 -25q125 -8 201 -8t201 8q-121 -16 -201 -21q-105 -12 -243 -4q-131 0 -269 21q-126 13 -210 42q-17 4 -42 13q-122 46 -163 92
q-42 59 8 109q-105 -50 -105 -109z" />
</svg>
