<?xml version="1.0" standalone="no"?>
<!DOCTYPE svg PUBLIC "-//W3C//DTD SVG 1.1//EN" "http://www.w3.org/Graphics/SVG/1.1/DTD/svg11.dtd" >
<svg xmlns="http://www.w3.org/2000/svg" xmlns:xlink="http://www.w3.org/1999/xlink" version="1.1" width="2048" height="2048" viewBox="-10 0 2068 2048">
   <path fill="currentColor"
d="M1460 1498q-100 -231 -230 -231q-51 0 -101 38h-4q-38 38 -55 59q-105 105 -172 105q-54 0 -113 -42q-55 -38 -122 -38q-130 0 -285 147q-118 118 -139 176q-8 17 0 25q9 17 25 17h1243q12 0 21 -12q8 -9 8 -26l-8 -29q-13 -33 -30 -88t-38 -101zM1356 873
q0 63 -44.5 109t-111.5 46t-111 -46t-44 -109q0 -67 44 -113.5t111 -46.5t111.5 46.5t44.5 113.5zM1926 21h-1527q-51 0 -86.5 35.5t-35.5 86.5v109h-155q-51 0 -86.5 37.5t-35.5 88.5v1527q0 51 35.5 86.5t86.5 35.5h1527q51 0 86.5 -35.5t35.5 -86.5v-109h155
q51 0 86.5 -37.5t35.5 -88.5v-1527q0 -51 -35.5 -86.5t-86.5 -35.5zM1519 1880h-1271q-42 0 -71.5 -31.5t-29.5 -73.5v-1271q0 -42 29.5 -71.5t71.5 -29.5h1271q42 0 73.5 29.5t31.5 71.5v1271q0 13 -4 21q-17 84 -101 84zM1901 1544q0 42 -31.5 71.5t-73.5 29.5h-25v-1267
q0 -51 -35.5 -88.5t-86.5 -37.5h-1221q17 -84 101 -84h1271q42 0 71.5 31.5t29.5 73.5v1271z" />
</svg>
