<?xml version="1.0" standalone="no"?>
<!DOCTYPE svg PUBLIC "-//W3C//DTD SVG 1.1//EN" "http://www.w3.org/Graphics/SVG/1.1/DTD/svg11.dtd" >
<svg xmlns="http://www.w3.org/2000/svg" xmlns:xlink="http://www.w3.org/1999/xlink" version="1.1" width="2048" height="2048" viewBox="-10 0 2068 2048">
   <path fill="currentColor"
d="M2044 941q0 -71 -71 -79l-34 -4l-422 -310q-125 -100 -284 -54q-63 17 -46 80q17 66 84 46q92 -26 167 33l255 188q-55 0 -155 8q-125 21 -234 51l-42 8q-234 46 -468 0l-46 -8q-117 -34 -238 -51q-100 -8 -155 -8l255 -188q67 -54 167 -33q67 20 84 -46q17 -63 -46 -80
q-159 -46 -284 54l-422 310l-34 4q-71 8 -71 79l-4 76q0 58 50 79q21 8 21 29l8 138q13 126 105 211.5t221 89.5l155 4q184 0 284 -159l126 -217q12 -21 50 -21h8q42 0 50 17l126 221q100 159 284 159l155 -4q129 -4 221 -89.5t105 -211.5l8 -138q0 -21 17 -29
q54 -21 54 -79zM1647 987q46 0 62 5q113 16 117 108l5 142q4 71 -46 129.5t-130 58.5q-121 9 -125 9q-38 0 -69.5 -8.5t-56.5 -21t-46 -29t-37.5 -35.5t-29 -38t-23 -35.5t-14.5 -29t-8 -25.5l-5 -8q-21 -67 21 -121q34 -59 101 -71q171 -30 284 -30zM518 1439l-125 -9
q-80 0 -130 -58q-54 -54 -46 -130l5 -142q4 -92 117 -108q100 -13 346 25q67 12 101 66q37 55 21 122q-80 234 -289 234z" />
</svg>
