<?xml version="1.0" standalone="no"?>
<!DOCTYPE svg PUBLIC "-//W3C//DTD SVG 1.1//EN" "http://www.w3.org/Graphics/SVG/1.1/DTD/svg11.dtd" >
<svg xmlns="http://www.w3.org/2000/svg" xmlns:xlink="http://www.w3.org/1999/xlink" version="1.1" width="2048" height="2048" viewBox="-10 0 2068 2048">
   <path fill="currentColor"
d="M1972 948h-239q-29 -247 -207.5 -425.5t-425.5 -207.5v-239q0 -34 -21 -55t-55 -21t-55 21t-21 55v239q-247 29 -425.5 207.5t-207.5 425.5h-239q-34 0 -55 21t-21 55t21 55t55 21h239q29 247 207.5 425.5t425.5 207.5v239q0 34 21 55t55 21t55 -21t21 -55v-239
q247 -29 425.5 -207.5t207.5 -425.5h239q34 0 55 -21t21 -55t-21 -55t-55 -21zM1100 1578q-51 8 -76 8t-76 -8q-184 -25 -318.5 -159.5t-159.5 -318.5q-8 -51 -8 -76t8 -76q25 -184 159.5 -318.5t318.5 -159.5q51 -8 76 -8t76 8q184 25 318.5 159.5t159.5 318.5q8 51 8 76
t-8 76q-25 184 -159.5 318.5t-318.5 159.5zM1364 1024q0 143 -98.5 241.5t-241.5 98.5t-241.5 -98.5t-98.5 -241.5t98.5 -241.5t241.5 -98.5t241.5 98.5t98.5 241.5z" />
</svg>
