<?xml version="1.0" standalone="no"?>
<!DOCTYPE svg PUBLIC "-//W3C//DTD SVG 1.1//EN" "http://www.w3.org/Graphics/SVG/1.1/DTD/svg11.dtd" >
<svg xmlns="http://www.w3.org/2000/svg" xmlns:xlink="http://www.w3.org/1999/xlink" version="1.1" width="2048" height="2048" viewBox="-10 0 2068 2048">
   <path fill="currentColor"
d="M1087 763q21 -26 0 -47q-21 -16 -46 0q-17 21 0 47q25 17 46 0zM978 784q-21 21 0 42q25 25 42 0q21 -21 0 -42q-17 -25 -42 0zM1167 796q-38 -29 -67 0l-42 43q-34 33 0 67l46 42q30 38 67 0l38 -38q43 -33 0 -67zM1547 649q12 -30 14 -57t0 -40t-25 -40t-27.5 -29.5
t-33.5 -31.5q-139 -122 -249 -4q-59 84 -38 157.5t89 124.5q63 42 147.5 17t122.5 -97zM1407 611q-12 -17 -3.5 -42t29.5 -33.5t42 8.5q29 33 18.5 58.5t-40 25.5t-46.5 -17zM1024 0q-421 0 -722.5 301.5t-301.5 722.5t301.5 722.5t722.5 301.5t722.5 -301.5t301.5 -722.5
t-301.5 -722.5t-722.5 -301.5zM1576 1193q-147 -102 -219 -236q-84 160 -266 265q-59 177 -248.5 404.5t-269.5 181.5q-50 -25 -34 -63q5 -30 38.5 -80.5t67.5 -84.5l29 -38q0 30 42 93q-21 -25 -12.5 -84t13 -88.5t29.5 -84.5t35.5 -76t36 -61t25.5 -44q25 -9 42 -32
t21 -40v-21q0 -152 -101 -253q50 63 50 173v21q0 122 -50 122q-51 -4 -110 17l-84 17q42 0 67 21q-50 80 -151 126q-68 30 -91 -14.5t19 -86.5q25 -25 34 -38q-13 -8 -13 -29q-17 -51 38 -127q17 -25 30 -37l4 -5l8 -8q93 -93 249 -152q63 -92 111.5 -153.5t65.5 -78.5
l17 -16q42 -34 54 -38q-50 -89 -69 -202.5t-2 -160.5q0 4 -4 9q8 -17 21 -30q17 -21 57 -21t56 34q17 38 17 88q-25 0 -50.5 15t-37.5 27l-17 17q46 -21 101 -21q17 13 34 38q-72 131 -38 253q17 46 25 55v4q21 34 57 53t61 23l25 4q-67 -29 -101 -93q-21 -42 -25 -59
q-21 -84 34 -181q80 -126 223 -105q93 8 154 84t48 173q-12 122 -118 177q9 17 9 40t-4 36l-5 17q38 50 38 105q-21 -4 -46 2t-38 15l-13 8q97 -25 152 26q46 54 72 101q4 8 59 37.5t46 67.5q-4 51 -59 48.5t-139 -56.5z" />
</svg>
