<?xml version="1.0" standalone="no"?>
<!DOCTYPE svg PUBLIC "-//W3C//DTD SVG 1.1//EN" "http://www.w3.org/Graphics/SVG/1.1/DTD/svg11.dtd" >
<svg xmlns="http://www.w3.org/2000/svg" xmlns:xlink="http://www.w3.org/1999/xlink" version="1.1" width="2048" height="2048" viewBox="-10 0 2058 2048">
   <path fill="currentColor"
d="M1940 1290q0 -4 -2 -10t-2 -10q0 -9 -5 -13v-4h-4q-8 -8 -12 -8l-17 -9l-8 -4h-4q-9 -4 -17 -4q-4 -4 -8 -4t-9 -4h-12l-29 -9h29h17l4 4h8h12l5 5l8 4l8 4q4 0 13 4h4l8 8h4q5 0 5 -8q0 -4 2 -12.5t2 -16.5q0 -50 -34 -96l-20 -21h-5l-4 -4h-4l-8 -4q-8 0 -17 -4h-4
q-4 -4 -8 -4q-9 0 -13 -4l-29 -5q13 -4 29 0h13q12 0 16 5h5h4q4 4 8 4h8l9 4q16 -17 25 -29q29 -46 29 -83q0 -9 -2 -19.5t-2 -14.5l-5 -8q0 -8 -8 -25q-8 -8 -8 -17q-9 -8 -9 -12l-12 -13l-17 -8h-8l-8 -4h-4l-9 -4q-8 -4 -16 -4q-5 -5 -13 -5l-29 -8h29h13q4 0 8 4h8
q4 4 17 4l8 5l8 4h5l4 -4l16 -17q0 -4 9 -13l8 -16q0 -4 4 -12.5t4 -12.5t5 -4q0 -9 2 -21.5t2 -16.5q-4 -4 -4 -8v-25q-5 -4 -5 -13q-8 -16 -8 -20l-8 -9q-9 -16 -13 -21l-8 -8q0 -4 -4 -4q-4 -4 -13 -4l-8 -4v-5h-8h-4q-9 -4 -13 -4q-4 -4 -12 -4q-5 -4 -13 -4l-29 -8h29
q8 0 13 4h16q4 4 13 4h4l8 4h4q13 -4 17 -17q4 0 4 -2t4 -2q9 -16 13 -21l8 -8q0 -8 8 -25q0 -4 5 -8v-25l4 -4v-9q-4 -4 -4 -8v-25l-5 -4q0 -8 -4 -8q0 -5 -4 -13v-8q0 -4 -4 -4l-4 -9q-4 -4 -13 -21l-8 -4l-21 -21v-4q4 0 10.5 -8t10.5 -8l8 -9q4 -4 8.5 -10t4.5 -10l8 -9
q0 -4 2 -12.5t2 -12.5l9 -8v-29l4 -4v-5q0 -70 -60.5 -120t-143.5 -50q-21 0 -29 4h-4q-5 4 -9 4l-4 4q-4 4 -8 4q-9 9 -9 13q-4 0 -12 8.5t-13 8.5l-4 4q-4 4 -4 8l-8 8l-21 17q4 -8 12 -21l5 -4q4 -4 4 -8t8 -13l4 -4q4 -4 4 -8q5 0 13 -9l8 -8h4h-4q-16 -8 -29 -8h-12
q-21 0 -30 4h-12q-8 0 -18.5 4t-14.5 8h-5l-37 25q-4 0 -12 -4h-9l-8 -4h-33q-21 0 -34 4q-4 4 -12 4l-17 9l-12 12q-5 0 -13 8.5t-16 12.5v4h4l12 13l13 12q4 4 4 9l4 4l8 16q0 4 4.5 10.5t4.5 10.5q0 8 4 17q0 21 4 29q0 8 -2 14.5t-2 10.5v8v-8l-4 -8v-13v-8l-5 -9
q0 -8 -4 -16q0 -9 -4 -17l-4 -4v-8q0 -5 -6.5 -17t-10.5 -17l-12 -12l-8 -8l-5 -5q-4 0 -4 -4h-4l-25 -12h-12q-13 -4 -38 -4q-8 0 -18.5 2t-14.5 2l-17 8l-8 4h-8l-13 13l-4 4q-8 0 -8 4q-5 4 -17 13v4q8 8 8 12q4 8 13 17v8l4 8q4 9 4 21q4 4 4 17v33v21l-4 8v-8v-21
q-4 -4 -4 -16q0 -9 -4 -17v-17l-9 -16q0 -5 -12 -30q0 -4 -8 -12q0 -4 -5 -4q0 -4 -4 -4l-12 -13q-4 0 -13 -8h-8l-8 -4q0 -4 -9 -4q-4 0 -8 -5h-13q-12 -4 -33 -4q-8 0 -33 9h-8q-17 8 -21 8l-9 8q-8 4 -16 13h-4v4q4 4 4 16v5v4q4 8 4 12q0 21 -4 29v25l-4 9v-9v-25
q0 -8 -5 -12v-17q0 -12 -4 -16v-13l-4 -4q0 -4 -2 -10.5t-2 -10.5l-8 -8l-9 -8q-12 -13 -21 -17q-4 -4 -8 -4q-4 -4 -21 -13l-4 -4q-4 -4 -14.5 -4t-14.5 -4h-8q-9 -4 -29 -4q-9 0 -17 4t-17 4q-4 0 -8 4q-4 0 -21 8q-4 0 -8 4.5t-21 12.5q0 4 -4 4v4v9q4 12 4 33v21l-4 8
v-8q0 -13 -4 -21v-17v-4q-4 -8 -4 -12q-5 -4 -5 -17q0 -4 -4 -4l-4 -8q0 -9 -4 -13l-17 -17q-8 -8 -12 -8q-9 -4 -17 -12h-4q-4 -5 -8 -5l-17 -8l-4 -4h-13q-4 0 -8 -2t-8 -2h-13h-21h-12q-13 0 -29 8h-4q-25 -17 -38 -21q-4 -4 -12 -4q-5 -4 -15 -8t-15 -4h-4h-4
q-17 -9 -29 -9h-4l-4 -4q-9 0 -21.5 -2t-20.5 -2q-83 0 -141.5 52t-58.5 123q0 25 4 33l5 8q0 9 8 25l4 9q4 4 8.5 12.5t8.5 12.5t8 4q0 4 8 12h5h8l8 -4h13h8h17h4q8 0 16.5 2t12.5 2t10.5 2.5t10.5 6.5h8h-8h-21h-17h-4h-4q-4 -4 -8 -4q-13 0 -17 4h-17q-8 0 -12 4h-4
q-4 4 -10.5 8t-10.5 9q0 4 -2 4t-2 4q-9 4 -17 21l-4 4v4q-8 17 -8 25v4l-5 4q-4 13 -4 38t4 33q0 4 5 8q0 9 8 25q0 5 2 5t2 4q8 16 17 20l4 5v4q8 8 17 12q4 0 8 -4q4 0 10 -2t11 -2l4 -4h12h29h25h9q-4 4 -9 4h-25q-4 4 -12 4h-4q-9 4 -13 4q-12 0 -16 4q-13 0 -17 5h-4
q0 4 -4 4t-9 4l-12 12l-4 5q-9 8 -17 25l-4 4q-8 16 -8 29l-5 4q-4 13 -4 38q0 20 4 33q0 4 5 12v4q0 5 4 9t4 8q0 8 12 21q0 4 5 8l16 17q9 -8 17 -8q8 -5 16 -5q9 -4 21 -4q9 -4 29 -4q9 0 15 2t10 2h9h-9q-8 4 -25 4q-8 0 -12 5h-17q-4 4 -16 4q-5 4 -9 4t-8 4
q-4 0 -12 4h-5l-4 4q-12 13 -16 21l-9 9q-8 16 -8 20l-8 17v4l-5 8q-4 13 -4 34q0 91 88 145q58 30 112 30q17 0 50 -9q8 0 12 -4q13 0 34 -12q8 0 8 -5q25 -4 38 -25h4q8 -8 25 -33h4q8 4 25 21q66 87 71 162h41q4 -54 -16 -125q-30 -58 -46 -74l-25 -25q0 -5 -4 -5
l-21 -20v-21q0 -21 -4 -34l-4 -4v-8l-9 -17q0 -4 -8 -20l-8 -9q-9 -8 -9 -12q-4 -4 -12 -4q0 -5 -9 -5l-4 -4l-8 -4h-8q-9 -4 -17 -4l-17 -8h-12l-29 -9h29h16h5q8 4 12 4l4 5h13h4l4 4h8l9 8l4 -4l17 -17l4 -8q12 -13 12 -21q0 -4 4.5 -8t4.5 -9v-4q4 -8 4 -12q4 -13 4 -33
q0 -25 -4 -38q0 -4 -4 -4q0 -13 -9 -29l-4 -4q-8 -17 -17 -25l-4 -5l-4 -4q-4 -4 -8 -4t-4 -4l-9 -4h-4h-4l-8 -4q-5 0 -9 -5h-8h-8q-5 -4 -9 -4l-4 -4h-8l-29 -8h29q4 4 16 4h17q4 4 17 4l4 4h4l8 4h5l16 -16v-4l4 -5q9 -4 17 -20q0 -4 2 -4t2 -5q9 -16 9 -25q4 -4 4 -8
q4 -8 4 -33q0 -4 -4 -4q0 -5 -4 -5l-5 -4l-4 -4l-12 -12q-4 0 -4 -5l-9 -4l-8 -8q-8 -8 -13 -8l-8 -9q-8 -4 -12 -8l-9 -4q4 0 21 8l25 13q4 0 13 8h4l8 8l13 13l8 8q8 8 8 13l4 4q4 4 9 4q8 0 16 4h13h21h12q4 -4 14.5 -4t14.5 -4q4 0 10.5 -4.5t10.5 -8.5t8 -4
q0 -4 2.5 -4t2.5 -4l4 -4q0 -9 4 -9q0 -4 4 -8v-8l4 -9l4 -8q0 -13 5 -17l4 -4v-8v-17l8 -25v29v13q0 12 -4 16q0 13 -4 17v8l-4 9l-5 4v12h-4q0 5 -8 13v8v4l17 17q0 4 2 4t2 4q4 0 12 6.5t13 10.5l4 4l25 13q0 4 4 4q4 4 14.5 6t14.5 2h4h34q20 0 29 -4q8 0 8 -4
q12 0 21 -8h4q4 -5 8 -5l4 -4q9 -8 9 -16l8 -9v-4l4 -8l4 -9v-4l5 -8l8 -17q0 -8 4 -12l8 -29q0 12 -4 29v16q0 5 -4 13t-4 17l-4 8l-4 8q-5 0 -5 4.5t-4 8.5l4 4q0 4 8.5 10.5t8.5 10.5q4 4 4 8q4 4 12.5 8.5t12.5 8.5l4 4l25 12l5 4q4 5 14.5 7t14.5 2h4h33q21 0 33 -4
q5 0 13 -9l8 -4h9l8 -4q8 -4 8 -8q9 0 9 -9q0 -4 4 -4l4 -8l4 -8l4 -9q0 -12 4 -16l5 -5v-8v-12l4 -5l8 -25q0 9 -4 30v12q0 8 -4 17q0 8 -4 16v5h4l4 4l12 12l17 9h4l8 4q5 4 11 4t10 4h13q8 4 33 4q13 0 29 -8q9 0 13 -4q4 0 21 -9q4 0 12 -8q0 -4 4 -4t8 -4l13 -13
q4 -4 4 -12l4 -9l4 -8v-17q5 -4 5 -12q4 -8 4 -17l4 -29q4 13 4 33v13l-4 8v9q0 8 -4 16v9l-4 8v4q16 8 25 8q4 5 12 5q13 4 38 4q16 0 33 -9q4 0 8 -4h9q4 -4 4 -8v-21q0 -4 2 -8t2 -9v-12l4 -8l12 -38q0 17 -4 38v16v9q0 8 -4 12v21v25v4q0 13 4 21v8l13 25q0 4 4 4l12 25
l5 4h4q4 9 12 17h4q9 -8 17 -8q4 0 8 -4h9q8 -5 16 -5h34h21l8 5h-8q-13 0 -21 4h-13q-12 0 -16 4q-13 0 -17 4q-13 0 -17 4q-4 0 -12 4l-9 5l-8 4l-8 8l-9 8q-4 5 -12 21q-4 4 -4 8.5t-4.5 10.5t-8.5 10v13q-4 8 -4 25v8q0 25 4 38v8q4 4 4 8q5 9 5 13q4 8 12 16q0 5 8 13
l5 8q4 9 8 9t4 4q0 -4 8 -4q9 -9 17 -9q4 0 4 -4h13q8 -4 16 -4h34h21h8q0 4 -8 4h-21l-4 4h-9q-12 0 -16 4h-17l-17 9q-4 0 -21 8q-8 0 -12 4q-8 8 -13 17q-8 8 -8 12q-8 9 -12 17q-5 4 -5 10.5t-4 10.5v8q-4 13 -4 38q0 50 33 95l13 13l4 4h4q4 -4 9 -4l16 -9h4l5 -4h8h17
q12 -4 33 -4q4 0 12 4h9h8h-8q-4 4 -21 4h-13q-8 5 -16 5h-9l-8 4q-4 0 -8 4h-9q-16 8 -20 12q-9 0 -13 5q-12 4 -17 16q-33 46 -33 96v29q4 4 4 13q0 4 4 4q0 -4 5 -4l8 -9q4 -4 8 -4q9 -8 13 -8l16 -9h9l8 -4q13 0 21 -4h17q12 0 20 -4q21 0 30 4h33q-13 4 -33 4
q-9 0 -13 4h-17q-12 0 -16 5h-21l-4 4h-13q-12 0 -16 4q-5 0 -9 2t-8 2h-4v21q-13 -4 -34 -4h-4q-8 0 -24.5 2t-20.5 2q-25 8 -42 17l-4 4h-9q-4 4 -12 10t-13 6l-8 9q-12 8 -21 21l-8 8q-13 12 -17 21h4l5 4v4l8 4l12 13q5 4 9 12l4 4q8 9 16.5 25.5t8.5 20.5l4 8
q0 -4 -4 -8q-8 -8 -13 -17q-8 -8 -8 -12l-12 -13l-13 -12l-12 -13q0 -4 -4.5 -4t-8.5 -4q-8 -8 -12 -8h-9q-20 0 -29 4h-8q-4 0 -10.5 2t-10.5 6l-8 4q-17 5 -29 17q0 4 -5 4l-16 17l-9 8q0 4 -4 10.5t-8 10.5t-4 8l-13 25l5 5q8 0 8 4t4 8l8 8l4 5q0 8 5 8q8 12 16 29
q4 8 4 21l5 8l-5 -4q0 -4 -4 -10.5t-8 -10.5q0 -4 -8 -12q0 -4 -8.5 -12.5t-8.5 -12.5l-8 -9q-4 -4 -4 -8l-5 -4h-4l-16 -17h-5q-4 -4 -12 -4q-4 -4 -13 -4q-25 -8 -41 -8q-9 0 -19 2t-15 2q-137 37 -137 200q0 25 4 37q0 8 4 13q0 12 5 20l4 4v9l8 16l8 17l5 4l79 275h87
l63 -221q0 -4 4 -4t8 -4q4 0 12 -4q5 -4 30 -21l4 -4l25 -25q8 0 8 -8l4 -5v-8v-4v-13v-8v-8q0 -8 -4 -17v-12q0 -13 -4 -17l-4 -29q8 12 12 29l4 4v9q5 4 5 16q0 4 2 8.5t2 8.5v8v8v9v8q4 0 4 4h8q13 4 33.5 4t29.5 -4h8l25 -12h4q17 -9 25 -17q4 0 4 -2t4 -2l17 -17l4 -4
v-4q4 -4 10.5 -12.5t10.5 -12.5q0 -4 4 -8q0 -9 4 -13v-4l5 -4q0 -13 -5 -17v-16v-9l-4 -8v-17q-4 -4 -4 -16q-4 -5 -4 -13l-8 -29l16 25q0 8 4 12q5 9 5 17q4 4 4 17l4 8v8v9v12v17v12h25h8q33 0 46 -4l37 -12h5q4 -4 8 -4q4 -5 21 -13l8 -8q8 -4 21 -17l8 -8
q17 -17 21 -25q4 -4 4 -13q4 -4 13 -20q4 -5 4 -13q4 -4 4 -10.5t4 -10.5v-12q4 -4 4 -9h9q4 5 16 5h17h17q4 0 10 -2.5t10 -2.5q5 0 13 -4q17 -8 29 -12q4 -4 12.5 -10.5t12.5 -10.5l4 -4v-4q13 -13 13 -17l8 -8q4 -5 4 -11t4 -10l4 -9q0 -4 2.5 -14t6.5 -15v-8v-29v-13z
" />
</svg>
