<?xml version="1.0" standalone="no"?>
<!DOCTYPE svg PUBLIC "-//W3C//DTD SVG 1.1//EN" "http://www.w3.org/Graphics/SVG/1.1/DTD/svg11.dtd" >
<svg xmlns="http://www.w3.org/2000/svg" xmlns:xlink="http://www.w3.org/1999/xlink" version="1.1" width="2048" height="2048" viewBox="-10 0 2068 2048">
   <path fill="currentColor"
d="M1636.5 369q-54.5 0 -94.5 44t-40 107v382h-965v-382q0 -63 -40 -107t-94.5 -44t-92 44t-37.5 107v1008q0 63 37.5 107t92 44t94.5 -44t40 -107v-382h965v382q0 63 40 107t94.5 44t94.5 -44t40 -107v-1008q0 -63 -40 -107t-94.5 -44zM1947 571h-12q-42 0 -71.5 29.5
t-29.5 70.5v706q0 41 29.5 70.5t71.5 29.5h12q42 0 71.5 -29.5t29.5 -70.5v-706q0 -41 -29.5 -70.5t-71.5 -29.5zM113 571h-12q-42 0 -71.5 29.5t-29.5 70.5v706q0 41 29.5 70.5t71.5 29.5h12q42 0 71.5 -29.5t29.5 -70.5v-706q0 -41 -29.5 -70.5t-71.5 -29.5z" />
</svg>
