<?xml version="1.0" standalone="no"?>
<!DOCTYPE svg PUBLIC "-//W3C//DTD SVG 1.1//EN" "http://www.w3.org/Graphics/SVG/1.1/DTD/svg11.dtd" >
<svg xmlns="http://www.w3.org/2000/svg" xmlns:xlink="http://www.w3.org/1999/xlink" version="1.1" width="2048" height="2048" viewBox="-10 0 2069 2048">
   <path fill="currentColor"
d="M1444 1046q-34 -125 -134 -211t-234 -103l-59 -4q-151 -16 -276.5 63.5t-175.5 217.5q4 0 4 4t4 8q5 4 13 17l8 8l13 9q4 4 10.5 8t10.5 4t14.5 4.5t14.5 8.5t59 25q16 8 67 17q16 8 67 16q12 0 33 4.5t34 4.5q29 4 117 17l117 8q-46 0 -117 4q-17 0 -57 -2t-65 -2
q-8 0 -31 -2t-36 -2q-21 0 -71 -9q-12 -4 -35 -6t-36 -2q-8 -4 -31 -10.5t-36 -10.5q-4 -4 -14.5 -8t-18.5 -4q-5 0 -15 -4.5t-15 -8.5l-12 -8q-9 -5 -17 -13q-17 -17 -21 -25l-12 -13q-511 34 -511 122q0 58 299 104t722 51q260 0 507 -25.5t378.5 -56.5t140.5 -52
q8 -30 -32 -53t-123.5 -39.5t-194.5 -29t-253 -21.5z" />
</svg>
