<?xml version="1.0" standalone="no"?>
<!DOCTYPE svg PUBLIC "-//W3C//DTD SVG 1.1//EN" "http://www.w3.org/Graphics/SVG/1.1/DTD/svg11.dtd" >
<svg xmlns="http://www.w3.org/2000/svg" xmlns:xlink="http://www.w3.org/1999/xlink" version="1.1" width="2048" height="2048" viewBox="-11 0 2069 2048">
   <path fill="currentColor"
d="M407 839h12l9 4q118 55 256.5 212.5t210.5 326.5q92 235 105 454l4 26q9 75 240 75q223 0 657 -84q105 -320 147 -610h-4q-148 -80 -185 -168q-9 -17 -9 -26q-4 -50 -206 -50h-59q-93 76 -202 76q-122 0 -231 -97q-101 -84 -335 -297t-425.5 -385.5t-203.5 -184.5h-13
q-38 0 -71 84q-17 42 -30 67q-42 97 -61 154t-10.5 164t75.5 200q177 240 122 1111h97q-25 -934 80 -1035q13 -17 30 -17z" />
</svg>
