<?xml version="1.0" standalone="no"?>
<!DOCTYPE svg PUBLIC "-//W3C//DTD SVG 1.1//EN" "http://www.w3.org/Graphics/SVG/1.1/DTD/svg11.dtd" >
<svg xmlns="http://www.w3.org/2000/svg" xmlns:xlink="http://www.w3.org/1999/xlink" version="1.1" width="2048" height="2048" viewBox="-11 0 2070 2048">
   <path fill="currentColor"
d="M50 397l25 29q-59 142 -25.5 301t146.5 272l853 853q155 155 381 155q113 0 192 -34l29 25q59 59 151 48.5t163 -81.5t81.5 -163t-48.5 -151l-46 -46q84 -301 -138 -522l-849 -849q-167 -159 -384 -159q-46 0 -138 16l-46 -41q-59 -59 -151 -48.5t-163 81.5t-81.5 163
t48.5 151zM1430 1902q-180 0 -306 -125l-849 -853q-129 -122 -129 -306q0 -58 12 -108l1380 1380q-50 12 -108 12zM581 183q184 0 309 126l849 849q126 125 126 309v46l-1330 -1330h46zM150 221q25 -4 67 -4q92 0 150 21q126 46 184 188q9 17 23.5 84t41.5 104.5t82 49.5
q104 21 138 46q129 97 150 209q55 260 276 302q163 29 218 87q79 88 121 247q21 88 60.5 123.5t123.5 43.5q4 0 14.5 2.5t19.5 2.5q54 0 54 54q0 46 -42 50h-12q-84 -8 -126 -17q-142 -37 -188 -200q-34 -130 -82 -197t-156 -88q-176 -37 -239 -92q-100 -92 -134 -255
q-16 -67 -51.5 -111t-65 -58.5t-102.5 -39.5t-103 -38q-46 -20 -64.5 -60t-25 -96.5t-18.5 -81.5q-63 -159 -205 -171q-55 -9 -109 4q-17 0 -25 -4q-34 -13 -25.5 -57t50.5 -48z" />
</svg>
