<?xml version="1.0" standalone="no"?>
<!DOCTYPE svg PUBLIC "-//W3C//DTD SVG 1.1//EN" "http://www.w3.org/Graphics/SVG/1.1/DTD/svg11.dtd" >
<svg xmlns="http://www.w3.org/2000/svg" xmlns:xlink="http://www.w3.org/1999/xlink" version="1.1" width="2048" height="2048" viewBox="-10 0 2058 2048">
   <path fill="currentColor"
d="M1324 990h-600q-38 0 -57 27.5t-6 65.5l335 927q13 38 32 38t31 -38l328 -927q16 -38 -2.5 -65.5t-60.5 -27.5zM677 944h672q138 0 172 -58q29 -55 12.5 -128.5t-67.5 -111.5q-71 -58 -63 -121q9 -110 -71 -177q-67 -46 -67 -130q4 -96 -67.5 -157t-163.5 -61
q-54 0 -80 13q-29 8 -27 27t23 27q25 17 25 42t-16.5 42t-56.5 38t-65 46q-30 42 54 76q17 4 86.5 37.5t111.5 41.5q25 0 33 4q-17 5 -33 9q-42 0 -122 -35.5t-147 -40.5q-113 0 -138 118q-9 38 16.5 71.5t67.5 45.5q33 13 92 40.5t113.5 44t112.5 16.5q26 0 38 4
q-17 4 -33 9q-80 0 -222.5 -52.5t-226.5 -46.5t-118 128q-29 113 4 176q30 63 151 63z" />
</svg>
