<?xml version="1.0" standalone="no"?>
<!DOCTYPE svg PUBLIC "-//W3C//DTD SVG 1.1//EN" "http://www.w3.org/Graphics/SVG/1.1/DTD/svg11.dtd" >
<svg xmlns="http://www.w3.org/2000/svg" xmlns:xlink="http://www.w3.org/1999/xlink" version="1.1" width="2048" height="2048" viewBox="-10 0 2068 2048">
   <path fill="currentColor"
d="M1993 424h-1938q-55 0 -55 54v1092q0 54 55 54h1938q55 0 55 -54v-1092q0 -54 -55 -54zM1288 583q0 -42 38 -42h176q42 0 42 42v177q0 37 -42 37h-176q-38 0 -38 -37v-177zM785 1100q0 42 -31.5 73t-73.5 31h-453q-42 0 -73.5 -31t-31.5 -73v-454q0 -46 31.5 -77.5
t73.5 -31.5h453q42 0 73.5 31.5t31.5 77.5v454zM902 583q0 -42 42 -42h177q41 0 41 42v177q0 37 -41 37h-177q-42 0 -42 -37v-177zM1926 1507h-1024v-118h1024v118zM1926 1272h-1024v-118h1024v118zM1926 1037h-1024v-118h1024v118zM1926 760q0 37 -37 37h-177
q-42 0 -42 -37v-177q0 -42 42 -42h177q37 0 37 42v177zM453 873q59 0 114 -46q46 -55 46 -118q0 -59 -46 -113q-55 -46 -114 -46q-67 0 -113 46q-50 50 -50 113q0 67 50 118q46 46 113 46zM739 995q0 -17 -9 -42q-4 -9 -10.5 -23.5t-6.5 -18.5q-16 -25 -29 -34
q-8 -8 -34 -25q-33 -8 -46 -8l-21 12q-4 0 -12.5 6.5t-16.5 10.5q-25 17 -46 21q-17 8 -55 8t-59 -8q-29 -8 -41 -21q-5 0 -11 -4t-12.5 -8.5t-10.5 -4.5q-13 -12 -17 -12q-21 0 -46 8l-38 25q-8 9 -25 34q-8 16 -17 42q0 8 -4 22.5t-8 19.5q-5 16 -5 46q0 8 -2 23t-2 23
q0 46 34 80q38 29 80 29h365q46 0 84 -29q29 -30 29 -80v-46q0 -13 -8 -46z" />
</svg>
