<?xml version="1.0" standalone="no"?>
<!DOCTYPE svg PUBLIC "-//W3C//DTD SVG 1.1//EN" "http://www.w3.org/Graphics/SVG/1.1/DTD/svg11.dtd" >
<svg xmlns="http://www.w3.org/2000/svg" xmlns:xlink="http://www.w3.org/1999/xlink" version="1.1" width="2048" height="2048" viewBox="-10 0 2068 2048">
   <path fill="currentColor"
d="M0 606h210v815h-210v-815zM768 606h-105l-42 387l-54 -387h-282v815h181v-521l80 521h138l84 -533v533h176v-815h-176zM1309 606h-293v815h352q59 0 90.5 -31.5t35.5 -61.5v-29v-533q-4 -67 -50 -107t-93 -48zM1297 1240q4 17 -4.5 29.5t-16.5 16.5l-9 4h-42v-541h38
q17 0 27.5 10.5t10.5 18.5v13zM1939 816q-38 -4 -63 0t-38 13l-8 4l-46 46v-273h-214v815h214v-38q33 33 69 46t52 13l17 -5q59 0 90.5 -29t35.5 -59v-29v-403q-8 -42 -35.5 -67t-48.5 -30zM1851 1282q0 38 -38 38q-34 0 -34 -38v-315q0 -37 34 -37q38 0 38 37v315z" />
</svg>
