<?xml version="1.0" standalone="no"?>
<!DOCTYPE svg PUBLIC "-//W3C//DTD SVG 1.1//EN" "http://www.w3.org/Graphics/SVG/1.1/DTD/svg11.dtd" >
<svg xmlns="http://www.w3.org/2000/svg" xmlns:xlink="http://www.w3.org/1999/xlink" version="1.1" width="2048" height="2048" viewBox="-10 0 2058 2048">
   <path fill="currentColor"
d="M758 1582q-155 42 -75 105q108 79 367 62q163 -12 301 -71l-113 -54q-225 42 -426 21q-121 -17 -54 -63zM1301 1411q-288 54 -547 25q-59 -4 -71.5 -25t8.5 -37l17 -17q-180 62 -75 117q142 75 484 41q138 -16 267 -54zM1484 417q-12 5 -37 11t-92 33t-121 56.5
t-108.5 77.5t-79.5 102t-8.5 127.5t83.5 152.5q42 58 35.5 106t-31.5 82l-29 29q8 -4 25 -14.5t56.5 -42t56.5 -62.5t27 -79t-31 -94q-88 -125 -84 -176q9 -116 338 -309zM1651 1749l13 29q0 30 -79 55q-184 54 -593 60.5t-572 -56.5q-67 -33 67 -75q25 -9 41 -13l71 -8
q-58 -38 -225 29q-146 59 -92 104q25 17 92 30q626 104 1106 -9q226 -54 209 -112q-4 -17 -38 -34zM1367 1252l96 -50q-154 25 -308 38q-326 29 -493 8q-196 -29 67 -104l66 -17q-146 -12 -321 75q-113 55 79 84q313 50 689 -9q71 -12 125 -25zM1459 1499l-4 8
q297 -79 322 -238q16 -104 -92 -150q-71 -29 -151 0l-33 25q13 -4 42 -8q87 -21 133 54q76 113 -121 250q-41 30 -96 59zM1029 1123q-16 -38 -74.5 -123.5t-81.5 -137.5t8 -142t148 -181.5t179.5 -179.5t71 -150.5t-2 -112.5t-26.5 -75l-21 -21q29 117 -15 215t-119 156.5
t-171 138t-138 141.5q-67 96 0 207t242 265zM1476 1971q-484 87 -935 16q50 38 292 54q334 21 636.5 -24.5t311.5 -162.5q-25 66 -305 117z" />
</svg>
