<?xml version="1.0" standalone="no"?>
<!DOCTYPE svg PUBLIC "-//W3C//DTD SVG 1.1//EN" "http://www.w3.org/Graphics/SVG/1.1/DTD/svg11.dtd" >
<svg xmlns="http://www.w3.org/2000/svg" xmlns:xlink="http://www.w3.org/1999/xlink" version="1.1" width="2048" height="2048" viewBox="-10 0 2068 2048">
   <path fill="currentColor"
d="M2010 1088h17q0 -93 -59 -185q-12 -17 -35 -59t-33.5 -56.5t-42 -50t-67.5 -65t-96.5 -78t-149.5 -107.5q-155 -104 -241 -112.5t-157.5 35.5t-121.5 44t-121.5 -44t-157.5 -35.5t-241 112.5q-101 72 -168 120t-111.5 96.5t-59 61t-46 69t-39.5 69.5q-59 92 -59 185h17
q63 0 96 25q4 0 14.5 -4.5t19 -6.5t17.5 -6q130 -42 218 -59q243 -109 621 -109t621 109q88 17 218 59l51 17q33 -25 96 -25zM802 496q-47 12 -97 35.5t-79.5 42t-86 58.5t-77.5 53q-17 12 -34 1.5t-17 -29t17 -31.5q21 -13 67 -44.5t69.5 -48t63 -39.5t77.5 -38t76 -27
q21 -4 35.5 8.5t10.5 33.5t-25 25zM1297 508q-46 5 -193 72q-17 8 -34 -4.5t-17 -29.5t17 -29q164 -71 227 -76q21 0 29.5 17t0 33.5t-29.5 16.5zM0 1125q50 181 188.5 304.5t317 170t289.5 61t208 14.5h21h21q97 0 208 -14.5t289.5 -61t317 -170t188.5 -304.5q-8 0 -21 -4
h-17q-59 0 -84 21q0 4 -8 4q-13 0 -38 -8t-65 -23t-82 -23q-100 -30 -222 -30q-97 0 -185 17q-243 46 -302 46t-302 -46q-88 -17 -185 -17q-117 0 -222 30q-42 8 -82 23t-65 23t-38 8q-8 0 -8 -4q-25 -21 -84 -21h-17zM290 1201q117 -50 243 -46q29 0 39.5 21t0 42t-39.5 21
q-105 -9 -201 37q-26 9 -44.5 -6t-18.5 -35.5t21 -33.5z" />
</svg>
