<?xml version="1.0" standalone="no"?>
<!DOCTYPE svg PUBLIC "-//W3C//DTD SVG 1.1//EN" "http://www.w3.org/Graphics/SVG/1.1/DTD/svg11.dtd" >
<svg xmlns="http://www.w3.org/2000/svg" xmlns:xlink="http://www.w3.org/1999/xlink" version="1.1" width="2048" height="2048" viewBox="-10 0 2058 2048">
   <path fill="currentColor"
d="M1306 1368v-37v-523q0 -37 -42 -37h-20q0 -54 2 -224t2 -199q0 -302 -29 -331q-13 -17 -37 -17l-63 21q-33 20 -78 37q-42 12 -79 33t-60 44t-41.5 47.5t-29 47.5t-17 39.5t-10.5 28.5l-4 13v460h-29q-29 0 -29 37v523v37q-58 0 -58 71v539q0 70 58 70h564q58 0 58 -70
v-539q0 -71 -58 -71z" />
</svg>
