<?xml version="1.0" standalone="no"?>
<!DOCTYPE svg PUBLIC "-//W3C//DTD SVG 1.1//EN" "http://www.w3.org/Graphics/SVG/1.1/DTD/svg11.dtd" >
<svg xmlns="http://www.w3.org/2000/svg" xmlns:xlink="http://www.w3.org/1999/xlink" version="1.1" width="2048" height="2048" viewBox="-10 0 2068 2048">
   <path fill="currentColor"
d="M638.5 1533q42.5 -13 58.5 -76l-138 46q37 43 79.5 30zM2043 494q-50 -101 -521 -101h-13q-97 139 -113 353q25 164 -43 341q362 -42 535 -282q8 -17 33 -50q152 -202 122 -261zM1438 397q-131 0 -206 5h-17q96 109 138 210q38 -143 85 -215zM1332 759q0 -4 5 -4
q-38 -185 -202 -349h-21q-80 0 -232 -9q-37 0 -113 -2t-109 -2q-425 0 -547 189q-97 156 -109.5 351.5t20.5 334.5q5 25 11 69t6 66q21 252 105.5 252t260.5 -164q4 0 13 -4l42 -13q42 -13 105 -36t145 -50.5t166 -63t164 -71.5t143 -75.5t97 -73.5q80 -185 55 -328v-13z
" />
</svg>
