<?xml version="1.0" standalone="no"?>
<!DOCTYPE svg PUBLIC "-//W3C//DTD SVG 1.1//EN" "http://www.w3.org/Graphics/SVG/1.1/DTD/svg11.dtd" >
<svg xmlns="http://www.w3.org/2000/svg" xmlns:xlink="http://www.w3.org/1999/xlink" version="1.1" width="2048" height="2048" viewBox="-10 0 2058 2048">
   <path fill="currentColor"
d="M1056 253q4 -4 -2 -4h-15q9 -13 17 -38q4 -4 -4 -4q0 -4 4 -4q8 -9 -8 -9q0 -8 -13 -8v-4q4 -4 4 -13v-4v-4q0 -4 -8 -4l12 -51l-16 -4l-9 8q-4 5 -4 9q-8 -4 -13 0q0 -13 5 -21q0 -4 -8.5 -6.5t-12.5 2.5v-5q0 -8 -13 -8v-21q4 -4 0 -4h-8v-5v-4v-21q0 -4 -5 -8
q-21 -4 -21 12q-16 0 -16 9q-9 -9 -17 0q0 -13 4 -17q0 -4 -10.5 -6t-14.5 2l-4 4q-13 0 -17 4h-5q0 -17 -25 -4q-4 4 -4 8v5h-4q-4 -5 -9 -5q-4 -8 -4 -29q-4 -4 -29 8q4 5 4 17q-4 0 -4 4q-4 -8 -17 -6t-13 11l-4 4h-8v-4q0 -17 -17 -5q-8 9 -8 13v8h-9q-4 -4 -12.5 0.5
t-8.5 8.5v25q-8 0 -8 9v-5q0 -4 -8.5 -6t-12.5 2q-4 0 -4 2t-5 2q-4 -4 -14.5 0.5t-10.5 8.5q21 29 21 33q-8 0 -17 9h-8q-21 0 -21 17l8 16l-17 9q5 8 13 33q-13 5 -17 13q13 46 34 92.5t56.5 111.5t48.5 86l8 -4l13 -4q17 -5 42 -9t55 -4q59 0 105 17l12 4q38 -97 47 -122
q8 -17 25 -61t29 -69q0 -9 -4 -9v-4zM745 535q-4 71 4 458q118 -13 189 -4v-454q-50 -17 -98.5 -17t-69.5 8zM753 1031q5 172 11 399t12.5 376.5t6.5 165.5q0 30 19 44.5t35 14.5h17q63 4 72 -63q12 -189 12 -946q-96 -12 -185 9zM1405 531l-4 -223h-80l8 218h-4
q-50 484 34 1430v54q0 38 37.5 38t37.5 -42v-8q38 -459 25.5 -807.5t-27 -477t-27.5 -182.5zM1401 278q46 -163 -17 -163q-42 0 -67.5 25t-25.5 54l30 84h80z" />
</svg>
