<?xml version="1.0" standalone="no"?>
<!DOCTYPE svg PUBLIC "-//W3C//DTD SVG 1.1//EN" "http://www.w3.org/Graphics/SVG/1.1/DTD/svg11.dtd" >
<svg xmlns="http://www.w3.org/2000/svg" xmlns:xlink="http://www.w3.org/1999/xlink" version="1.1" width="2048" height="2048" viewBox="-10 0 2068 2048">
   <path fill="currentColor"
d="M1559 744q-59 0 -98.5 39.5t-39.5 98.5v92q0 54 39.5 94t98.5 40h322v-364h-322zM1651 995q-67 0 -67 -67q0 -29 19 -50t48 -21t48 21t19 50q0 67 -67 67zM1781 251h-1547q-96 0 -165 71t-69 167v1137q0 71 48 121t119 50h1547q71 0 119 -50t48 -121v-447h-322
q-84 0 -144.5 -61t-60.5 -144v-92q0 -84 60.5 -144.5t144.5 -60.5h322v-121q0 -54 -40 -94t-94 -40h-1546q-34 0 -34 -33.5t34 -33.5h1546q84 0 142.5 58.5t58.5 142.5v1028q100 -71 100 -192v-870q0 -112 -79.5 -191.5t-187.5 -79.5zM1559 744q-59 0 -98.5 39.5t-39.5 98.5
v92q0 54 39.5 94t98.5 40h322v-364h-322zM1651 995q-67 0 -67 -67q0 -29 19 -50t48 -21t48 21t19 50q0 67 -67 67zM1559 744q-59 0 -98.5 39.5t-39.5 98.5v92q0 54 39.5 94t98.5 40h322v-364h-322zM1651 995q-67 0 -67 -67q0 -29 19 -50t48 -21t48 21t19 50q0 67 -67 67z
" />
</svg>
