<?xml version="1.0" standalone="no"?>
<!DOCTYPE svg PUBLIC "-//W3C//DTD SVG 1.1//EN" "http://www.w3.org/Graphics/SVG/1.1/DTD/svg11.dtd" >
<svg xmlns="http://www.w3.org/2000/svg" xmlns:xlink="http://www.w3.org/1999/xlink" version="1.1" width="2048" height="2048" viewBox="-10 0 2058 2048">
   <path fill="currentColor"
d="M1347 1977v-17q42 -67 38 -138.5t-71 -172.5v-8l4 -4q4 0 14.5 -10.5t6.5 -23.5q-9 -25 -34 -25h-8v-8q-9 -26 -46.5 -109.5t-50 -121.5t-31.5 -126t-28 -193q0 -4 2.5 -12.5t2.5 -12.5h71q4 0 12.5 -4.5t15 -17t6.5 -29.5t-10.5 -31.5t-19 -20.5t-12.5 -6h-34l-8 -185
q113 -168 130 -193q25 -42 25 -76q0 -42 -31.5 -73.5t-77.5 -31.5h-59v-29q0 -29 -29 -29h-202q-29 0 -29 29v29h-59q-46 0 -77.5 31.5t-31.5 73.5q0 34 25 76l130 197l-8 181h-34q-4 0 -12.5 6t-19 20.5t-10.5 31.5q-4 21 13 36t25 15h67l4 4q0 8 5 8q-5 76 -15.5 141
t-16.5 102.5t-25 92.5t-27.5 73.5t-33.5 77.5t-33 76v4v4h-5q-29 0 -33 25q-4 13 4 23.5t17 10.5v8v4q-76 109 -80 164q-4 84 46 151l-4 4v9q-21 12 -25 29l-9 42h705q-4 -29 -8 -42t-21 -29zM932 176q50 -46 71 -25q25 25 -25 71l-13 13q30 21 63.5 21t62.5 -21l-12 -13
q-47 -46 -26 -71t72 25q4 4 12 17q17 -29 17 -67q0 -42 -17 -63q-4 0 -4 4l-8 4q-46 55 -72 30q-21 -25 30 -76l8 -8q-21 -17 -63 -17q-33 0 -63 17l9 4q8 4 8 8q50 47 25 72t-71 -25q-9 -9 -13 -17q-17 29 -17 67q0 42 17 63q0 -4 9 -13z" />
</svg>
