<?xml version="1.0" standalone="no"?>
<!DOCTYPE svg PUBLIC "-//W3C//DTD SVG 1.1//EN" "http://www.w3.org/Graphics/SVG/1.1/DTD/svg11.dtd" >
<svg xmlns="http://www.w3.org/2000/svg" xmlns:xlink="http://www.w3.org/1999/xlink" version="1.1" width="2048" height="2048" viewBox="-10 0 2058 2048">
   <path fill="currentColor"
d="M1444 1948q0 -4 -2 -12.5t-2 -12.5q59 -87 54 -187q-4 -104 -95 -246v-12q12 0 24.5 -14.5t8.5 -31.5q-8 -38 -46 -38h-4v-4l-4 -4l-4 -8q-59 -113 -125.5 -308.5t-87.5 -324.5h146q4 0 23 -10.5t35.5 -35.5t16.5 -54q-4 -33 -25 -58t-39.5 -35.5t-22.5 -10.5h-150
q158 -79 158 -258q0 -116 -81 -199.5t-198 -83.5t-198 83.5t-81 199.5q0 183 158 258h-154q-4 0 -22.5 10.5t-39.5 35.5t-21 58q0 29 16.5 54t33.5 35.5t25 10.5h146q-54 312 -188 624l-12 25h-4q-42 0 -46 38q-4 17 6.5 31.5t22.5 14.5l-4 8v4q-100 163 -108 229
q-5 117 58 208l-4 9v12q-21 8 -34 38l-8 62h916q0 -42 -8 -62q-9 -17 -30 -38z" />
</svg>
