<?xml version="1.0" standalone="no"?>
<!DOCTYPE svg PUBLIC "-//W3C//DTD SVG 1.1//EN" "http://www.w3.org/Graphics/SVG/1.1/DTD/svg11.dtd" >
<svg xmlns="http://www.w3.org/2000/svg" xmlns:xlink="http://www.w3.org/1999/xlink" version="1.1" width="2048" height="2048" viewBox="-10 0 2058 2048">
   <path fill="currentColor"
d="M1166 129.5q0 54.5 -37.5 92t-92 37.5t-92 -37.5t-37.5 -92t37.5 -92t92 -37.5t92 37.5t37.5 92zM1383 1969l-4 -9q50 -67 46 -150q-4 -92 -75 -184v-13h4q9 0 17 -10.5t4 -22.5q-4 -29 -33 -29h-5l-8 -17q-54 -105 -77 -151t-54.5 -169t-39.5 -278v-8h92q8 0 27 -17
t14 -42q0 -21 -12.5 -37.5t-22.5 -23t-15 -6.5h-62q-9 -125 39 -240t111 -161q63 -42 25 -96q-25 -42 -71 -29q-4 0 -16.5 8.5t-27 14.5t-31.5 6q-34 0 -80 -29l-8 -4l-8 4q-42 33 -80 33q-41 0 -87 -37q-51 33 -92 33q-17 0 -31.5 -6t-27 -14.5t-17.5 -8.5q-41 -13 -71 29
q-33 54 25 96q63 46 111 161t44 240h-75q-13 0 -31.5 17t-22.5 46q-5 25 14 44t31 19h101l4 8q-8 155 -39.5 276t-54.5 167t-82 155v8l-4 9h-4q-33 0 -38 29q-4 12 4.5 22.5t16.5 10.5v13q-79 109 -83 171q-4 92 46 159v13h-4q-21 16 -26 33l-8 46h786q-4 -33 -8 -46z" />
</svg>
