<?xml version="1.0" standalone="no"?>
<!DOCTYPE svg PUBLIC "-//W3C//DTD SVG 1.1//EN" "http://www.w3.org/Graphics/SVG/1.1/DTD/svg11.dtd" >
<svg xmlns="http://www.w3.org/2000/svg" xmlns:xlink="http://www.w3.org/1999/xlink" version="1.1" width="2048" height="2048" viewBox="-10 0 2058 2048">
   <path fill="currentColor"
d="M1496 1914q80 -122 76 -244q0 -25 -12.5 -56.5l-25 -63t-29.5 -65t-31.5 -56.5t-23.5 -44l-12 -17q12 0 29 -16.5t13 -37.5q-9 -47 -55 -47h-38l-71 -755h25q13 0 36 -19t19 -40t-21 -37.5t-34 -25.5l-17 -8q84 -71 130 -164q17 -42 32 -96.5t19 -87.5l4 -34h-243l16 176
h-167l16 -176h-218l17 176h-172l17 -176h-244q9 105 59 218q21 51 52.5 93t52.5 58l17 13h4l-13 4q-8 4 -20.5 10.5t-23 21t-10.5 35.5q0 63 75 63l9 13l-72 722q-4 12 -8 16h-25q-13 0 -29.5 13t-21.5 38q-4 21 11 35.5t23 14.5h13l-38 59q-34 54 -71.5 127.5t-37.5 115.5
q-9 114 71 244q-4 0 -23 25t-23 38l-21 71h1078q-8 -38 -16 -63q0 -8 -13 -25t-21 -30z" />
</svg>
