<?xml version="1.0" standalone="no"?>
<!DOCTYPE svg PUBLIC "-//W3C//DTD SVG 1.1//EN" "http://www.w3.org/Graphics/SVG/1.1/DTD/svg11.dtd" >
<svg xmlns="http://www.w3.org/2000/svg" xmlns:xlink="http://www.w3.org/1999/xlink" version="1.1" width="2048" height="2048" viewBox="-10 0 2068 2048">
   <path fill="currentColor"
d="M55 861l1277 198q-13 -33 -13 -63q0 -63 42 -105t105 -42q59 0 103.5 42t44.5 105q0 59 -42 101l417 64q34 8 48.5 -13t-2.5 -55l-193 -388q-43 22 -81 22q-63 0 -105 -42.5t-42 -105.5q0 -105 97 -135l-97 -194q-46 -76 -122 -46l-211 88q42 72 42 140q0 96 -67.5 166
t-164.5 70q-88 0 -153.5 -55t-77.5 -139l-809 341q-22 8 -30 19t2.5 19t31.5 8zM691 680q51 0 51 51q0 46 -51 46q-46 0 -46 -46q0 -51 46 -51zM0 899l38 363q55 -55 126.5 -55t122 48.5t50.5 120t-50.5 122t-122.5 50.5q-46 0 -97 -29l17 143q13 84 101 93l1045 63l-4 -4
v-9q0 -59 44.5 -103t103.5 -44t103 44t44 103q0 5 -2 15.5t-2 14.5l325 17q37 4 66.5 -21.5t38.5 -58.5l101 -544zM539 1595q-46 0 -46 -47q0 -50 46 -50q51 0 51 50q0 47 -51 47zM746 1413q-42 0 -71.5 -29.5t-29.5 -71.5t29.5 -71.5t71.5 -29.5t71.5 29.5t29.5 71.5
t-29.5 71.5t-71.5 29.5z" />
</svg>
