<?xml version="1.0" standalone="no"?>
<!DOCTYPE svg PUBLIC "-//W3C//DTD SVG 1.1//EN" "http://www.w3.org/Graphics/SVG/1.1/DTD/svg11.dtd" >
<svg xmlns="http://www.w3.org/2000/svg" xmlns:xlink="http://www.w3.org/1999/xlink" version="1.1" width="2048" height="2048" viewBox="-10 0 2058 2048">
   <path fill="currentColor"
d="M1562 573q-42 51 -72 80q30 25 26 51q-17 67 -177 21q-64 -17 -106 -50.5t-33 -59.5q12 -38 101 -38q8 -17 25 -59h-4h-26q-63 0 -96 5q-106 16 -177.5 50t-105.5 76t-52.5 109.5t-25 130.5t-21.5 162t-40 179q-59 211 -202 397q-84 113 -194 210q-55 47 -59 122.5
t105 88.5q17 0 68 -8q337 -68 602 -257q249 -173 409 -411t207 -491q0 -9 4 -25.5t4 -25.5q25 -168 -160 -257zM1393 691q21 -17 64 -59q42 -50 59 -76q12 -12 21 -29q4 -9 10.5 -19.5t10.5 -14.5q114 -169 145.5 -282.5t5.5 -138.5l-25 -30q-46 -42 -105 -42h-21
q-68 4 -110 173l-50 227q-51 152 -68 194l-29 76z" />
</svg>
