<?xml version="1.0" standalone="no"?>
<!DOCTYPE svg PUBLIC "-//W3C//DTD SVG 1.1//EN" "http://www.w3.org/Graphics/SVG/1.1/DTD/svg11.dtd" >
<svg xmlns="http://www.w3.org/2000/svg" xmlns:xlink="http://www.w3.org/1999/xlink" version="1.1" width="2048" height="2048" viewBox="-10 0 2068 2048">
   <path fill="currentColor"
d="M420 1028q-172 0 -296 122t-124 298q0 172 124 296t296 124q176 0 297.5 -124t121.5 -296q0 -176 -121.5 -298t-297.5 -122zM420 1784q-139 0 -237.5 -99t-98.5 -237q0 -143 98.5 -241.5t237.5 -98.5q142 0 241 98.5t99 241.5q0 138 -99 237t-241 99zM1628 1028
q-176 0 -300 122t-124 298q0 172 124 296t300 124q172 0 296 -124t124 -296q0 -176 -124 -298t-296 -122zM1628 1784q-142 0 -241 -99t-99 -237q0 -143 99 -241.5t241 -98.5q139 0 237.5 98.5t98.5 241.5q0 138 -98.5 237t-237.5 99zM1368 336q0 63 -44 107t-107 44
q-67 0 -111 -44t-44 -107q0 -67 44 -111.5t111 -44.5q63 0 107 44.5t44 111.5zM1217 860h323q25 -4 35.5 -20.5t10.5 -33.5v-13q0 -17 -12.5 -29.5t-24.5 -16.5h-13h-277l-185 -294q-46 -33 -90 -33t-65 16l-21 17l-340 340q-25 59 -18.5 99t27.5 56l21 21l348 198l-4 352
q8 34 29 53t38 23h17q33 4 56 -13t28 -38l8 -16v-458q0 -33 -12.5 -56.5t-29.5 -31.5l-13 -4l-201 -109l210 -202l96 160q9 17 23.5 25t27.5 8h8z" />
</svg>
