<?xml version="1.0" standalone="no"?>
<!DOCTYPE svg PUBLIC "-//W3C//DTD SVG 1.1//EN" "http://www.w3.org/Graphics/SVG/1.1/DTD/svg11.dtd" >
<svg xmlns="http://www.w3.org/2000/svg" xmlns:xlink="http://www.w3.org/1999/xlink" version="1.1" width="2048" height="2048" viewBox="-10 0 2068 2048">
   <path fill="currentColor"
d="M1664 834q-76 0 -140 25q-25 -177 -160 -293t-317 -116q-198 0 -341.5 141.5t-143.5 343.5l4 5v12q-4 0 -9 -4h-8q-110 0 -186 76t-76 186v4q-42 -8 -63 -8q-93 0 -158.5 65t-65.5 158q0 169 224 169h1440q160 0 272 -112t112 -272q0 -156 -112 -268t-272 -112z" />
</svg>
