<?xml version="1.0" standalone="no"?>
<!DOCTYPE svg PUBLIC "-//W3C//DTD SVG 1.1//EN" "http://www.w3.org/Graphics/SVG/1.1/DTD/svg11.dtd" >
<svg xmlns="http://www.w3.org/2000/svg" xmlns:xlink="http://www.w3.org/1999/xlink" version="1.1" width="2048" height="2048" viewBox="-10 0 2058 2048">
   <path fill="currentColor"
d="M1571 892q49 74 115 90q12 4 38.5 4t39.5 5q8 4 20.5 10t16.5 6t8 6t8 6q4 -4 8.5 -10t0 -10t-8.5 -10.5t-4 -10.5q-25 -24 -62 -37q-16 -8 -49 -20.5t-49 -20.5q-37 -25 -88.5 -99t-96.5 -94q-8 -4 -28.5 -10.5t-29.5 -10.5q-20 -12 -42.5 -61.5t-18.5 -73.5
q0 -4 28.5 -45.5t12 -74t-32.5 -115.5q-29 -82 -8 -139q4 -13 30.5 -58t37 -67.5t-6.5 -51.5q-135 132 -90 312q0 9 12.5 46t16.5 57q20 58 -4 86q-13 17 -29.5 11t-24.5 2q-12 12 -16 12q20 -29 20 -57q0 -37 -28.5 -66t-69.5 -29h-4q4 -16 -13 -29q-66 -41 -49 -66
q4 -4 29 -20q49 -25 69 -49q29 -37 29 -83q17 -65 -4 -102q-8 -17 -25 -4q-24 24 -8 53l4 4h4v4q17 58 -32 103q-25 29 -54 53q-37 25 -49 46h-37q-12 -5 -33 -5t-33 5h-37q-20 -29 -49 -46q-21 -16 -54 -49q-49 -57 -32 -107v-4h4l4 -4q16 -29 -8 -53q-25 -17 -29 28
q-8 46 0 78q0 46 29 83q20 24 69 49q25 16 29 20q17 25 -49 66q-17 13 -13 29h-4q-41 0 -67.5 29t-26.5 66t16 57q-4 0 -12 -12q-8 -8 -28.5 -2t-29.5 -11q-24 -28 -4 -86q4 -20 16.5 -57t12.5 -46q45 -180 -90 -312q-17 29 -6.5 51.5t37 67.5t30.5 58q21 57 -8 139
q-16 83 -32.5 115.5t10 72t30.5 47.5q4 24 -18.5 73.5t-42.5 61.5q-9 4 -29.5 10.5t-28.5 10.5q-45 20 -96.5 94t-88.5 99q-16 12 -51 22.5t-47 18.5q-37 13 -62 37q0 4 -4 10.5t-8.5 10.5t0 10t8.5 10q4 0 8 -6t8 -6t16.5 -8t20.5 -8q13 -5 39.5 -5t38.5 -4q66 -16 115 -90
q111 -148 115 -152q9 16 7 24.5t-14.5 27t-12.5 22.5q-21 37 -41 90q-29 91 -37 193q-4 62 -4 194q12 168 16 176t2 22.5t-6 21t-10 18.5t-11 20q-20 46 -32 83q-25 86 -13 180v46q-8 24 -65 53q-50 25 -79 66q-20 20 -16 45q8 37 33 21q-8 -9 -8 -17q-4 -20 49 -45
q29 -21 86 -53q8 -5 24.5 -15t27 -18.5t14.5 -20.5t-4 -41t-8 -33q-17 -103 20 -201q4 -13 13 -13q4 0 12 18.5t14 43.5t11 29q24 66 45 94q49 95 131 173q103 95 165 103q41 4 76 -27t43 -72q0 -4 4 -12v-8v8q4 8 4 12q33 111 119 99q58 -8 165 -103q82 -78 131 -173
q8 -8 50 -94q0 -4 4 -14.5t6 -22.5t6 -26.5t8 -21t8 -6.5q9 0 13 13q37 98 20 201q0 4 -8 33t-4 41t14.5 20.5t27 18.5t24.5 15q57 32 86 53q53 25 49 45q0 8 -8 17q25 16 33 -21q4 -25 -16 -45q-29 -41 -79 -66q-57 -29 -65 -53v-13v-18v-15q12 -94 -13 -180
q-12 -37 -32 -83q-5 -8 -15 -26.5t-12 -24.5t2 -31q16 -41 16 -176q0 -132 -4 -194q-16 -131 -37 -193q-20 -53 -41 -90q0 -4 -12.5 -22.5t-14.5 -27t7 -24.5q4 4 115 152z" />
</svg>
