<?xml version="1.0" standalone="no"?>
<!DOCTYPE svg PUBLIC "-//W3C//DTD SVG 1.1//EN" "http://www.w3.org/Graphics/SVG/1.1/DTD/svg11.dtd" >
<svg xmlns="http://www.w3.org/2000/svg" xmlns:xlink="http://www.w3.org/1999/xlink" version="1.1" width="2048" height="2048" viewBox="-11 0 2069 2048">
   <path fill="currentColor"
d="M375 1855q-70 -124 -24.5 -301t191.5 -322q166 -166 367.5 -201.5t318.5 80.5q-88 271 -429 391q-332 121 -424 353zM1136 1369q-125 125 -316 191q-328 117 -399 354l4 4q117 116 318.5 81t367.5 -202q146 -145 191.5 -324t-29.5 -303q-54 116 -137 199zM529 646
q366 33 553 -179q-58 -158 -255.5 -208t-417.5 33q-192 75 -306 214.5t-102 284.5q187 -174 528 -145zM695 1045q192 -75 308 -218.5t96 -288.5q-79 79 -204 124q-162 63 -370 46q-353 -33 -507 158v4q58 154 257.5 206t419.5 -31zM1610 613q212 -291 137 -566
q-162 -33 -311.5 108.5t-191.5 373.5q-41 200 21 372.5t191 234.5q-58 -241 154 -523zM1814 68q25 125 0 241q-38 179 -158 337q-212 291 -129 515h4q162 34 309.5 -105.5t193.5 -372.5q37 -203 -25 -378t-195 -237z" />
</svg>
