<?xml version="1.0" standalone="no"?>
<!DOCTYPE svg PUBLIC "-//W3C//DTD SVG 1.1//EN" "http://www.w3.org/Graphics/SVG/1.1/DTD/svg11.dtd" >
<svg xmlns="http://www.w3.org/2000/svg" xmlns:xlink="http://www.w3.org/1999/xlink" version="1.1" width="2048" height="2048" viewBox="-10 0 2068 2048">
   <path fill="currentColor"
d="M1544 838l-34 -122q-25 -79 -262.5 -73t-548.5 99q-315 96 -516.5 218t-180.5 202l50 168q0 8 9 17l8 8l9 8l8 5q8 8 17 8q0 4 8 4l17 9h17q4 4 21 4q4 4 16.5 4t21.5 4h21h25h21h8h17h34h8h21q4 0 10.5 -2t10.5 -2h13q21 0 33 -4h9h4q4 0 19 -2t23 -2q4 -5 13 -5h12
q4 -4 17 -4q17 0 42 -8q8 0 23 -2t19 -2t12.5 -4.5t12.5 -4.5h9q4 0 8 -4q13 0 38 -8q12 0 17 -5q4 5 16 5q5 4 9 4t10.5 2t10.5 2l8 4h13q4 0 8 4q9 0 17 2.5t16.5 2.5t12.5 4q5 0 21.5 2t20.5 2h5l8 4h13q4 0 10 2t10.5 2t19 2.5t23 2.5t21 2t16.5 2h30q4 0 8 4h4h43
q12 0 16 4h13h13h46h8h13h8q9 4 13 4h42h12h30q29 0 46 -4h4h42h21h25q9 -4 21 -4h13q29 0 88 -8h13l88 -13h13l8 -4q59 -9 84 -13q42 -8 59 -17h4q17 -4 42 -12h4l38 -13h4q0 -4 9 -4l4 -4q8 0 8 -4q5 0 9 -5h8l4 -4h5q16 -8 21 -12h4l4 -5l8 -4q5 -4 17 -12v-5q4 0 13 -8
q4 -4 4 -8h4l4 -5q5 -4 5 -8v-4l4 -4v-5l4 -4v-8v-4v-173q-8 -138 -504 -189zM31 1153q-12 -33 61.5 -96t239.5 -143t376 -143t390.5 -86t275 -10.5t107.5 50.5q8 38 -72 101q-4 4 -16.5 14.5t-20.5 14.5q-194 143 -568 248q-21 4 -58.5 14.5t-54.5 19.5q-59 16 -218 46
q-198 29 -313.5 18.5t-128.5 -48.5zM1258 1200q-67 0 -101 -5q26 -8 76 -33q8 0 8 -4h5q4 -5 8 -5q50 -25 71 -37h5q16 -13 50 -30l4 -4q4 -4 17 -10.5t17 -10.5l4 -4q4 -4 14.5 -10.5t19.5 -10.5q0 -4 4 -4q4 -5 8 -5l13 -12q8 0 8 -9q4 0 4 -2t5 -2v-4q12 -4 16 -17
q5 0 5 -4q4 0 4 -4q4 0 4 -2t4 -2q0 -9 9 -17q4 0 4 -4q4 -5 4 -9q4 -4 4 -12h4q0 -13 5 -17v-4v-5v-4v-12h-5l-4 -17q210 21 336 67t126 92q0 38 -88 76t-266.5 67.5t-401.5 29.5z" />
</svg>
