<?xml version="1.0" standalone="no"?>
<!DOCTYPE svg PUBLIC "-//W3C//DTD SVG 1.1//EN" "http://www.w3.org/Graphics/SVG/1.1/DTD/svg11.dtd" >
<svg xmlns="http://www.w3.org/2000/svg" xmlns:xlink="http://www.w3.org/1999/xlink" version="1.1" width="2048" height="2048" viewBox="-11 0 2069 2048">
   <path fill="currentColor"
d="M16 1667q-38 84 12.5 187.5t131 139t139.5 -6.5q46 -46 257 -381t282 -403q106 -97 375 38l21 -25q-206 -228 -240 -270q-4 -4 13 -29l270 248l25 -25l-261 -278q4 -4 10 -12.5t11 -12.5l278 248l25 -21l-261 -282l21 -21l270 248l25 -25l-257 -274l25 -25l278 253
l26 -26l-262 -274q4 -8 15 -16.5t15 -16.5l282 261l25 -25l-265 -283q4 -4 12.5 -10.5t12.5 -10.5l278 262l26 -26l-266 -278l25 -25l283 261l25 -25l-265 -278q8 -13 25 -30l282 266l26 -26l-262 -278l26 -25l278 257l25 -25l-257 -274q4 0 10.5 -8.5t10.5 -8.5l278 253
l25 -21l-252 -274q4 -4 21 -13l274 253l25 -25l-245 -262q22 -8 30 0l265 228l30 -30q-202 -248 -278 -311q-47 -55 -129 -25.5t-289 197.5q-130 106 -292.5 293.5t-301.5 368.5t-164 211q-17 17 -280.5 242.5t-297.5 305.5z" />
</svg>
