<?xml version="1.0" standalone="no"?>
<!DOCTYPE svg PUBLIC "-//W3C//DTD SVG 1.1//EN" "http://www.w3.org/Graphics/SVG/1.1/DTD/svg11.dtd" >
<svg xmlns="http://www.w3.org/2000/svg" xmlns:xlink="http://www.w3.org/1999/xlink" version="1.1" width="2048" height="2048" viewBox="-10 0 2058 2048">
   <path fill="currentColor"
d="M1770 1252l-787 -753q-21 -21 -46 -4.5t-13 42.5l51 139l-766 -665q-30 -22 -51 0q-25 16 -8 50l366 623l-282 -71q-21 -9 -42 12q-17 25 4 46l897 1213q0 8 21 29q126 135 328 135q194 0 328 -135q135 -139 135 -332.5t-135 -328.5zM1442 1939q-147 0 -252.5 -105.5
t-105.5 -253t105.5 -252.5t252.5 -105t252.5 105t105.5 252.5t-105.5 253t-252.5 105.5z" />
</svg>
