<?xml version="1.0" standalone="no"?>
<!DOCTYPE svg PUBLIC "-//W3C//DTD SVG 1.1//EN" "http://www.w3.org/Graphics/SVG/1.1/DTD/svg11.dtd" >
<svg xmlns="http://www.w3.org/2000/svg" xmlns:xlink="http://www.w3.org/1999/xlink" version="1.1" width="2048" height="2048" viewBox="-10 0 2068 2048">
   <path fill="currentColor"
d="M1964.5 697q-33.5 0 -56.5 25t-23 58.5t21 62.5q-247 255 -330 222q-76 -38 -76 -234q34 0 59 -25t25 -63q0 -33 -25 -58t-58.5 -25t-58.5 25t-25 58q0 63 58 84q-92 209 -255 133q-129 -58 -179 -405q67 -17 67 -84q0 -33 -25.5 -58t-58.5 -25t-58.5 25t-25.5 58
q0 67 67 84q-50 347 -179 405q-163 76 -255 -133q58 -21 58 -84q0 -33 -25 -58t-58.5 -25t-58.5 25t-25 58q0 38 25 63t59 25q0 196 -76 234q-83 33 -330 -222q21 -29 21 -62.5t-23 -58.5t-56.5 -25t-58.5 25t-25 58.5t25 61t59 27.5q16 0 33 -9q242 523 222 698
q-38 46 0 75q12 9 87.5 15t173.5 8t194 2h163h67q644 9 685 -25q17 -12 17 -31t-8 -31l-9 -13q-20 -175 222 -698q17 9 33 9q34 0 59 -27.5t25 -61t-25 -58.5t-58.5 -25z" />
</svg>
