<?xml version="1.0" standalone="no"?>
<!DOCTYPE svg PUBLIC "-//W3C//DTD SVG 1.1//EN" "http://www.w3.org/Graphics/SVG/1.1/DTD/svg11.dtd" >
<svg xmlns="http://www.w3.org/2000/svg" xmlns:xlink="http://www.w3.org/1999/xlink" version="1.1" width="2048" height="2048" viewBox="-10 0 2068 2048">
   <path fill="currentColor"
d="M2048 1781v-1514q0 -108 -79.5 -187.5t-187.5 -79.5h-1514q-108 0 -187.5 79.5t-79.5 187.5v1514q0 108 79.5 187.5t187.5 79.5h1514q108 0 187.5 -79.5t79.5 -187.5zM602 1768q-80 0 -140.5 -58.5t-60.5 -142t58.5 -144t142 -60.5t144.5 60.5t61 144t-61 142t-144 58.5z
M602 1229q-80 0 -140.5 -60.5t-60.5 -140.5q0 -83 58.5 -144t142 -61t144.5 61t61 144.5t-61 142t-144 58.5zM602 690q-80 0 -140.5 -58.5t-60.5 -142.5t58.5 -144.5t142 -60.5t144.5 60.5t61 144.5t-61 142.5t-144 58.5zM1412.5 1768q-83.5 0 -144 -58.5t-60.5 -142
t60.5 -144t144 -60.5t142 60.5t58.5 144t-58.5 142t-142 58.5zM1412.5 1229q-83.5 0 -144 -58.5t-60.5 -142t60.5 -144.5t144 -61t142 61t58.5 144.5t-58.5 142t-142 58.5zM1412.5 690q-83.5 0 -144 -58.5t-60.5 -142.5t60.5 -144.5t144 -60.5t142 60.5t58.5 144.5
t-58.5 142.5t-142 58.5z" />
</svg>
