<?xml version="1.0" standalone="no"?>
<!DOCTYPE svg PUBLIC "-//W3C//DTD SVG 1.1//EN" "http://www.w3.org/Graphics/SVG/1.1/DTD/svg11.dtd" >
<svg xmlns="http://www.w3.org/2000/svg" xmlns:xlink="http://www.w3.org/1999/xlink" version="1.1" width="2048" height="2048" viewBox="-10 0 2058 2048">
   <path fill="currentColor"
d="M1220 1003q130 -71 222.5 -190.5t132.5 -256t52.5 -258t3.5 -230.5q-8 -67 -84 -67q-29 4 -50 29t-17 55q-8 17 2.5 88t-14.5 186.5t-63 226.5t-143 207.5t-252 130.5q-142 -46 -243 -149t-138.5 -208t-54.5 -224.5t-14.5 -174t6.5 -83.5q8 -67 -63 -84q-76 -9 -84 67
q0 214 8 273q59 453 370 646q-252 100 -327.5 324.5t-50.5 665.5q0 29 21 50t50 21h4q34 -4 55 -27t17 -53q-21 -474 65 -650t371 -239q206 63 306.5 147t144.5 256t27 486q0 72 72 80h4q67 0 75 -71q21 -428 -69 -644t-342 -330zM650 257h734q54 0 54 -54.5t-54 -54.5h-734
q-59 0 -59 54.5t59 54.5zM1392 479.5q0 -54.5 -58 -54.5h-638q-59 0 -59 54.5t59 54.5h638q58 0 58 -54.5zM851 697q-59 0 -59 59q0 54 59 54h327q59 0 59 -54q0 -59 -59 -59h-327zM1384 1792h-734q-59 0 -59 59q0 54 59 54h734q54 0 54 -54q0 -59 -54 -59zM637 1573.5
q0 54.5 59 54.5h638q58 0 58 -54.5t-58 -54.5h-638q-59 0 -59 54.5zM1178 1352q59 0 59 -54.5t-59 -54.5h-327q-59 0 -59 54.5t59 54.5h327z" />
</svg>
