<?xml version="1.0" standalone="no"?>
<!DOCTYPE svg PUBLIC "-//W3C//DTD SVG 1.1//EN" "http://www.w3.org/Graphics/SVG/1.1/DTD/svg11.dtd" >
<svg xmlns="http://www.w3.org/2000/svg" xmlns:xlink="http://www.w3.org/1999/xlink" version="1.1" width="2048" height="2048" viewBox="-10 0 2068 2048">
   <path fill="currentColor"
d="M1022 186q-423 5 -722.5 183t-299.5 425v88q4 293 4 423q0 238 301.5 393t716.5 164q415 -9 716.5 -164t301.5 -393l8 -423v-88q-4 -247 -303.5 -425t-722.5 -183zM1604 760l109 -75q33 -25 59 8q21 34 -9 63l-109 75q-8 9 -25 9t-33 -17q-21 -34 8 -63zM1273 413
l105 -80q38 -21 59 13q33 33 -9 58l-105 76q-8 8 -25 8q-25 0 -37 -17q-21 -38 12 -58zM1026 526q155 4 262 52t107 115t-107 115t-262 57q-155 -9 -261.5 -57t-106.5 -115t106.5 -115t261.5 -52zM1290 1041l-105 75q-17 9 -25 9q-17 0 -33 -17q-26 -30 8 -63l105 -75
q33 -21 63 8q20 38 -13 63zM616 413l104 -80q38 -21 59 13q33 33 -8 58l-105 76q-8 8 -25 8q-25 0 -38 -17q-21 -38 13 -58zM507 940l109 -75q33 -34 58 8q21 38 -8 59l-105 79q-17 9 -25 9q-25 0 -38 -21q-25 -34 9 -59zM289 798l109 -76q33 -25 59 9q20 33 -9 63l-109 75
q-8 8 -25 8t-33 -16q-21 -34 8 -63zM1897 1321q0 176 -261.5 291.5t-613.5 123.5q-352 -8 -613.5 -123.5t-261.5 -291.5v-217l25 25q71 63 176 117v71q0 38 25 63t62.5 25t62.5 -29v138q0 38 27.5 63t60.5 25q38 0 63 -25t25 -63v-151q13 0 21 4v38q0 38 25 63t63 25
q59 0 80 -54v171q0 38 27 63t61 25q37 0 62.5 -25t25.5 -63v-209q46 0 138 -8v12q0 38 25 63t59 25q37 0 62.5 -25t25.5 -63v-38q88 -16 175 -46q0 34 25.5 59t58.5 25q38 0 63 -25t25 -63v-71q105 -54 176 -117l25 -25v217z" />
</svg>
