<?xml version="1.0" standalone="no"?>
<!DOCTYPE svg PUBLIC "-//W3C//DTD SVG 1.1//EN" "http://www.w3.org/Graphics/SVG/1.1/DTD/svg11.dtd" >
<svg xmlns="http://www.w3.org/2000/svg" xmlns:xlink="http://www.w3.org/1999/xlink" version="1.1" width="2048" height="2048" viewBox="-10 0 2058 2048">
   <path fill="currentColor"
d="M1457 1463q-12 -105 -67 -325.5t-80 -266.5q-13 -26 -29 -68q-286 34 -514 -4q-4 21 -29 72q-25 46 -80 266.5t-67 325.5l-76 501q67 4 109 0q30 -4 17 25l-8 17q29 17 98.5 6.5t73.5 6.5q21 42 118 21q21 -9 21 -13q-8 -13 21 -25q17 4 21 17q-4 16 6.5 22.5t23.5 6.5h8
h13q8 0 18.5 -6.5t6.5 -22.5q-4 -13 8 -17q25 -4 34 17q4 4 0 8t8 8q68 26 118 -4q8 -4 13 -12q12 -17 73 -6.5t99 -6.5l-13 -38q5 -8 22 -4h109q-63 -358 -76 -501zM696 63q4 13 6 32t8.5 77.5t-6.5 96.5q-12 67 7 197.5t44 197.5q17 47 17 89q244 42 504 4q-4 -34 17 -93
q25 -67 44 -197.5t7 -197.5q-9 -50 -7 -96.5t7 -79.5l8 -30l-8 -4l-34 -21l-4 -4h-9q-16 -9 -33 -13q-13 0 -34 -10.5t-33.5 -10.5t-29.5 8q4 5 10.5 13t10.5 33.5t-4.5 50.5t-48.5 59t-111 59q-114 -42 -149.5 -97t-14.5 -84l21 -34q-8 -4 -29 -4q-13 0 -36 8.5t-32 8.5
q-4 0 -10.5 2t-10.5 6h-4l-25 13l-25 17z" />
</svg>
