<?xml version="1.0" standalone="no"?>
<!DOCTYPE svg PUBLIC "-//W3C//DTD SVG 1.1//EN" "http://www.w3.org/Graphics/SVG/1.1/DTD/svg11.dtd" >
<svg xmlns="http://www.w3.org/2000/svg" xmlns:xlink="http://www.w3.org/1999/xlink" version="1.1" width="2048" height="2048" viewBox="-10 0 2068 2048">
   <path fill="currentColor"
d="M1024 0q-425 0 -724.5 299.5t-299.5 724.5t299.5 724.5t724.5 299.5t724.5 -299.5t299.5 -724.5t-299.5 -724.5t-724.5 -299.5zM1619 1178q-54 204 -220.5 333t-374.5 129t-374.5 -129t-220.5 -333q-13 -54 41 -71q59 -12 71 42q42 166 177 270.5t306 104.5t306 -104.5
t177 -270.5q12 -54 71 -42q54 17 41 71z" />
</svg>
