<?xml version="1.0" standalone="no"?>
<!DOCTYPE svg PUBLIC "-//W3C//DTD SVG 1.1//EN" "http://www.w3.org/Graphics/SVG/1.1/DTD/svg11.dtd" >
<svg xmlns="http://www.w3.org/2000/svg" xmlns:xlink="http://www.w3.org/1999/xlink" version="1.1" width="2048" height="2048" viewBox="-10 0 2058 2048">
   <path fill="currentColor"
d="M1339 1498q-21 17 -52.5 40t-44.5 32q-38 25 -100.5 50t-117.5 25t-117.5 -25t-100.5 -50q-13 -9 -44.5 -32t-52.5 -40q-100 -75 -524 -365q-67 -46 -105 -88v835q0 71 50 122q55 46 118 46h1552q63 0 118 -46q50 -51 50 -122v-835q-46 55 -105 88q-411 285 -524 365z
M1968 755q0 -42 -17 -75q-8 -21 -33 -63q-50 -80 -130 -130q-458 -319 -491 -344q-13 -5 -46 -34q-13 -8 -32 -20.5t-27 -17.5q0 -4 -55 -33q-42 -25 -58 -30q-21 -8 -55 -8t-55 8q-16 5 -58 30q-55 29 -55 33q-8 5 -59 38q-33 29 -46 34q-33 25 -125.5 90t-147.5 103
q-50 33 -102.5 69t-77.5 54.5t-38 27.5q-71 50 -122 122q-58 71 -58 142v13v17q0 71 58 142q59 76 122 122q13 8 38 27t77.5 54.5t102.5 69.5q55 38 147.5 103t125.5 90q25 13 46 29q26 17 59 42q13 9 55 34l58 29q42 9 55 9t55 -9l58 -29q42 -25 55 -34q33 -25 59 -42
q21 -16 46 -29q33 -25 491 -344q88 -67 130 -130q25 -42 33 -67q17 -30 17 -72v-12v-9z" />
</svg>
