<?xml version="1.0" standalone="no"?>
<!DOCTYPE svg PUBLIC "-//W3C//DTD SVG 1.1//EN" "http://www.w3.org/Graphics/SVG/1.1/DTD/svg11.dtd" >
<svg xmlns="http://www.w3.org/2000/svg" xmlns:xlink="http://www.w3.org/1999/xlink" version="1.1" width="2048" height="2048" viewBox="-10 0 2068 2048">
   <path fill="currentColor"
d="M1853 322h-1658q-81 0 -138 57t-57 137v148q0 81 57 140t138 59h1658q81 0 138 -59t57 -140v-148q0 -80 -57 -137t-138 -57zM1853 1185h-1658q-81 0 -138 59t-57 140v148q0 80 57 137t138 57h1658q81 0 138 -57t57 -137v-148q0 -81 -57 -140t-138 -59z" />
</svg>
