<?xml version="1.0" standalone="no"?>
<!DOCTYPE svg PUBLIC "-//W3C//DTD SVG 1.1//EN" "http://www.w3.org/Graphics/SVG/1.1/DTD/svg11.dtd" >
<svg xmlns="http://www.w3.org/2000/svg" xmlns:xlink="http://www.w3.org/1999/xlink" version="1.1" width="2048" height="2048" viewBox="-10 0 2068 2048">
   <path fill="currentColor"
d="M1981 990l-805 -805q-64 -63 -156.5 -63t-155.5 63l-797 797q-67 67 -67 157.5t67 158.5l472 472q59 59 84.5 82t78 48.5t111.5 25.5h430q59 0 111.5 -25.5t78 -48.5t84.5 -82l464 -464q67 -67 67 -157.5t-67 -158.5zM801 1492h-38q-26 0 -42 -17l-76 -76q-17 -17 0 -34
l358 -358q17 -25 34 0l122 118q12 21 0 34l-316 316q-13 17 -42 17zM1159 1635l-80 80q-17 17 -38 17h-42q-21 0 -38 -17l-80 -80q-13 -13 0 -34l122 -122q21 -13 34 0l122 122q17 17 0 34zM1163 683l-556 556q-25 17 -42 17h-38q-26 0 -42 -17l-76 -76q-13 -21 0 -34
l598 -598q17 -25 34 0l122 118q13 21 0 34z" />
</svg>
