<?xml version="1.0" standalone="no"?>
<!DOCTYPE svg PUBLIC "-//W3C//DTD SVG 1.1//EN" "http://www.w3.org/Graphics/SVG/1.1/DTD/svg11.dtd" >
<svg xmlns="http://www.w3.org/2000/svg" xmlns:xlink="http://www.w3.org/1999/xlink" version="1.1" width="2048" height="2048" viewBox="-10 0 2058 2048">
   <path fill="currentColor"
d="M1683 508l-420 -420q-67 -67 -176 -84v680h680q-17 -109 -84 -176zM1582 1993q-96 0 -176 -71l-382 -382q-71 -71 -71 -176q0 -97 67 -176l340 -336h-315q-59 0 -88 -38q-38 -38 -38 -88v-726h-726q-55 0 -92.5 38t-37.5 88v1796q0 50 37.5 88t92.5 38h1452q50 0 88 -38
t38 -88v-17l-13 13q-71 75 -176 75zM1964 1272q-21 -21 -46 -21h-411l172 -168q21 -30 21 -55t-21 -54l-46 -42q-21 -21 -51 -21q-25 0 -54 21l-378 377q-21 30 -21 55q0 29 21 50l378 382q29 21 54 21q30 0 51 -21l46 -46q21 -21 21 -50q0 -26 -21 -55l-172 -168h411
q29 0 46 -25q21 -21 21 -50v-76q0 -25 -21 -54z" />
</svg>
