<?xml version="1.0" standalone="no"?>
<!DOCTYPE svg PUBLIC "-//W3C//DTD SVG 1.1//EN" "http://www.w3.org/Graphics/SVG/1.1/DTD/svg11.dtd" >
<svg xmlns="http://www.w3.org/2000/svg" xmlns:xlink="http://www.w3.org/1999/xlink" version="1.1" width="2048" height="2048" viewBox="-10 0 2068 2048">
   <path fill="currentColor"
d="M1786 728q0 -127 -89 -216t-216 -89t-216 89t-89 216q0 34 25.5 59t63.5 25q34 0 59.5 -25t25.5 -59q0 -55 38 -93t93 -38t93 38t38 93q0 72 -50.5 122.5t-122.5 50.5h-1350q-38 0 -63.5 25.5t-25.5 63.5q0 34 25.5 59.5t63.5 25.5h1350q144 0 245.5 -101.5t101.5 -245.5
zM63 724h487q123 0 209.5 -89t86.5 -212q0 -106 -76 -182t-182 -76t-182 76t-76 182q0 30 19 49t45 19q67 0 67 -68q0 -51 36 -89t91 -38q51 0 89 38t38 89q0 68 -48.5 118.5t-116.5 50.5h-487q-63 0 -63 64q0 29 19 48.5t44 19.5zM1701 1227h-1265q-34 0 -61.5 25.5
t-27.5 63.5q0 34 27.5 61.5t61.5 27.5h1265q72 0 123 50.5t51 122.5q0 55 -38.5 91t-93.5 36t-93 -36t-38 -91q0 -38 -25.5 -63.5t-63.5 -25.5q-34 0 -59 25.5t-25 63.5q0 123 88.5 214t215.5 91t216 -91t89 -214q0 -144 -101.5 -247.5t-245.5 -103.5z" />
</svg>
