<?xml version="1.0" standalone="no"?>
<!DOCTYPE svg PUBLIC "-//W3C//DTD SVG 1.1//EN" "http://www.w3.org/Graphics/SVG/1.1/DTD/svg11.dtd" >
<svg xmlns="http://www.w3.org/2000/svg" xmlns:xlink="http://www.w3.org/1999/xlink" version="1.1" width="2048" height="2048" viewBox="-10 0 2068 2048">
   <path fill="currentColor"
d="M1100 1016v-5l4 -4q0 -34 -25.5 -59t-59 -25t-56.5 25t-23 59v13q-38 29 -38 67q0 34 23 59t57 25q25 0 42 -12q21 12 42 12q34 0 57 -25t23 -59q0 -50 -46 -71zM2048 1049q0 -122 -152 -231v-9q0 -34 -25 -57t-59 -23q-29 0 -51 17q-63 -30 -130 -46q97 -426 -97 -540
q-46 -25 -105 -25q-177 0 -405 215q-181 -169 -337 -207q-17 -59 -76 -59q-72 0 -80 72q-4 0 -8.5 2t-8.5 2q-194 114 -97 540q-417 126 -417 349q0 106 111.5 196.5t305.5 153.5q-63 287 13 443q-9 25 -9 37q0 34 23.5 59.5t56.5 25.5q22 0 47 -17q29 13 71 13
q177 0 405 -215q228 215 405 215q59 0 105 -26q164 -92 118 -425q-9 -34 -25 -110q198 -63 309.5 -153.5t111.5 -196.5zM1429 198q42 0 75 21q148 84 64 464q-127 -34 -304 -55q-76 -105 -194 -232q211 -198 359 -198zM1340 1230q-21 38 -110 177q-134 9 -206 9t-206 -9
q-89 -139 -110 -177q-30 -42 -97 -181q51 -109 97 -185q34 -63 110 -173q67 -8 206 -8t206 8q76 110 110 173q46 76 97 185q-67 135 -97 181zM1471 1125q42 105 80 228q-127 29 -236 46q17 -25 42 -67.5t42 -67.5q51 -93 72 -139zM1180 1475q-76 101 -156 181
q-105 -114 -156 -181q51 4 156 4t156 -4zM733 1399q-109 -17 -236 -46q38 -123 80 -228q21 46 72 139q17 25 42 67.5t42 67.5zM577 969q-46 -101 -80 -227q139 -34 236 -42q-12 16 -84 130q-51 93 -72 139zM868 624q76 -101 156 -182q80 81 156 182q-101 -9 -156 -9t-156 9z
M1399 830q-72 -114 -84 -130q97 8 236 42q-34 122 -80 231q-34 -71 -72 -143zM544 219l4 -4q21 34 63 34q46 0 67 -43q144 43 300 190q-97 97 -194 232q-177 21 -304 55q-84 -380 64 -464zM63 1049.5q0 -172.5 371 -286.5q42 151 105 286q-63 131 -105 287
q-371 -114 -371 -286.5zM619 1896q-25 0 -37 -4l4 -4v-9q0 -33 -25.5 -56.5t-59.5 -23.5q-4 0 -10 2.5t-11 2.5q-59 -131 0 -388q182 42 304 50q105 148 194 236q-207 194 -359 194zM1589 1517q38 291 -85 362q-29 17 -75 17q-152 0 -359 -194q89 -88 194 -236
q122 -8 304 -50q4 17 12.5 50.5t8.5 50.5zM1614 1336q-34 -118 -105 -287q75 -181 105 -286q72 21 118 42v4q0 34 23 59t57 25q30 0 51 -21q122 89 122 177q0 173 -371 287z" />
</svg>
