<?xml version="1.0" standalone="no"?>
<!DOCTYPE svg PUBLIC "-//W3C//DTD SVG 1.1//EN" "http://www.w3.org/Graphics/SVG/1.1/DTD/svg11.dtd" >
<svg xmlns="http://www.w3.org/2000/svg" xmlns:xlink="http://www.w3.org/1999/xlink" version="1.1" width="2048" height="2048" viewBox="-10 0 2058 2048">
   <path fill="currentColor"
d="M1788 1121q-80 -231 -218.5 -426.5t-272.5 -310.5t-279 -203.5t-220.5 -120t-117.5 -47.5h-4q-50 -13 -101 -13q-109 0 -197 63t-122 168q-42 130 21 254t193 170q517 205 684 688q34 101 122 164t197 63q55 0 109 -21q139 -47 194 -172q58 -126 12 -256zM1322 1607
q-134 -29 -243 -113t-170 -180.5t-92.5 -159.5t-43.5 -101v-4q-26 -92 -107.5 -136t-170 -19t-134.5 107t-21 170q9 33 30 88t92 185t161.5 237t250 214t348.5 149q16 4 50 4q75 0 138 -48.5t80 -123.5q21 -92 -27 -172t-141 -97z" />
</svg>
