<?xml version="1.0" standalone="no"?>
<!DOCTYPE svg PUBLIC "-//W3C//DTD SVG 1.1//EN" "http://www.w3.org/Graphics/SVG/1.1/DTD/svg11.dtd" >
<svg xmlns="http://www.w3.org/2000/svg" xmlns:xlink="http://www.w3.org/1999/xlink" version="1.1" width="2048" height="2048" viewBox="-10 0 2068 2048">
   <path fill="currentColor"
d="M763 1431q130 0 247 -38q118 -34 231 -109q155 -109 252 -277q0 -8 8 -25q25 -42 59 -134l12 -38q17 -88 59 -138l-17 -159q-8 -47 13 -93q21 -67 79 -92q25 -8 38 -8q21 0 42 4q4 -25 8.5 -54.5t8.5 -50.5l4 -17q-4 -16 -19 -33t-33.5 -29.5t-39.5 -25t-36 -19
t-31 -10.5l-13 -4q-50 8 -63 79l-33 202v4h-5q-8 0 -12 4q-42 21 -84 96l-25 38q-59 80 -97 126q-8 13 -21 21q-146 151 -347 222q-290 105 -617 0l-37 -12q-9 -5 -25.5 -11t-25.5 -10q-84 -21 -113 -21q-38 0 -67 16q-25 9 -46 46q-46 84 33 197q55 72 130 135
q160 117 311 167q130 42 272 51zM1966 693q-25 -206 -25 -214q-33 -54 -168 -67v-4h-29q-50 25 -42 96l21 201l-12 13q-38 34 -55 113q0 9 -4 23.5t-9 22.5q-29 80 -62 143q-5 12 -13 29q-59 92 -92 134l-4 4q-5 5 -5 9q-88 96 -176 159q-243 164 -536 164h-59
q-4 0 -19 -2.5t-23 -2.5q-4 0 -23 -2t-27 -2h-34q-105 0 -146 42q-26 34 -30 55q-25 100 84 184q84 63 164 97q159 67 343 79h59q356 0 629 -222q209 -168 307.5 -423.5t52.5 -523.5q-12 -63 -67 -105z" />
</svg>
