<?xml version="1.0" standalone="no"?>
<!DOCTYPE svg PUBLIC "-//W3C//DTD SVG 1.1//EN" "http://www.w3.org/Graphics/SVG/1.1/DTD/svg11.dtd" >
<svg xmlns="http://www.w3.org/2000/svg" xmlns:xlink="http://www.w3.org/1999/xlink" version="1.1" width="2048" height="2048" viewBox="-10 0 2068 2048">
   <path fill="currentColor"
d="M1934 855h-1816q-51 0 -84.5 36t-33.5 82q0 51 33.5 84.5t80.5 33.5v9q0 324 173 463q63 51 130 72q-4 13 -4 38q0 42 29.5 71.5t71.5 29.5t71.5 -29.5t29.5 -71.5v-4h47h724h51v4q0 42 29.5 71.5t71.5 29.5t71.5 -29.5t29.5 -71.5q0 -17 -8 -42q303 -118 303 -540
q47 0 80.5 -35.5t33.5 -82t-33.5 -82.5t-80.5 -36zM1618 700q0 37 -25 62.5t-59 25.5q-38 0 -63.5 -25.5t-25.5 -62.5q0 -34 25.5 -59.5t63.5 -25.5q34 0 59 25.5t25 59.5zM1399 480.5q4 -33.5 -19 -61t-57 -31.5q-38 -5 -65.5 18.5t-31.5 57t19 63t61 33.5q34 5 61.5 -20.5
t31.5 -59zM1656 362q0 34 -27.5 59.5t-61 25.5t-61 -25.5t-27.5 -59.5q0 -38 27.5 -63t61 -25t61 25t27.5 63z" />
</svg>
