<?xml version="1.0" standalone="no"?>
<!DOCTYPE svg PUBLIC "-//W3C//DTD SVG 1.1//EN" "http://www.w3.org/Graphics/SVG/1.1/DTD/svg11.dtd" >
<svg xmlns="http://www.w3.org/2000/svg" xmlns:xlink="http://www.w3.org/1999/xlink" version="1.1" width="2048" height="2048" viewBox="-10 0 2058 2048">
   <path fill="currentColor"
d="M1829 1226q-29 -12 -54 -20v-364q25 -8 54 -20q79 -46 103.5 -139t-21 -171t-138 -103t-171.5 20q-29 13 -45 38l-314 -186q8 -33 8 -54q0 -95 -68 -161t-159 -66t-159 66t-68 161q0 21 8 54l-314 186q-16 -25 -45 -38q-79 -45 -171.5 -20t-138 103t-21 171t103.5 139
q29 12 54 20v364q-25 8 -54 20q-79 46 -103.5 139t21 171t138 103t171.5 -20q29 -13 45 -38l314 182q-8 41 -8 58q0 95 68 161t159 66t159 -66t68 -161q0 -21 -8 -54l314 -181q20 20 45 33q79 45 171.5 20t138 -103t21 -171t-103.5 -139zM1181 1660q-66 -66 -157 -66
q-83 0 -157 66l-314 -182q21 -95 -24 -169q-46 -83 -137 -103v-364q95 -29 137 -103q45 -74 24 -169l314 -182q66 66 157 66q99 0 157 -66l314 182q-21 95 24 169q46 83 137 103v364q-91 20 -137 103q-45 74 -24 169z" />
</svg>
