<?xml version="1.0" standalone="no"?>
<!DOCTYPE svg PUBLIC "-//W3C//DTD SVG 1.1//EN" "http://www.w3.org/Graphics/SVG/1.1/DTD/svg11.dtd" >
<svg xmlns="http://www.w3.org/2000/svg" xmlns:xlink="http://www.w3.org/1999/xlink" version="1.1" width="2048" height="2048" viewBox="-10 0 2068 2048">
   <path fill="currentColor"
d="M749 749q30 30 68 55q93 -59 207 -59q106 0 203 55q34 -17 68 -51q38 -38 59 -76q-148 -102 -330 -102t-334 106q25 38 59 72zM563 1050q144 38 237 156l89 -51v-17q0 -84 80 -122v-102q-148 -12 -262 -127q-132 -127 -132 -311t132 -311q55 -55 114 -84
q-114 50 -186 122q-136 136 -159 324t70 341q-182 0 -330 112t-199 294q-25 114 -13 224q0 -72 17 -135q47 -178 205.5 -269t336.5 -44zM546 1105q-34 -9 -93 -17q0 12 -2 29t-2 26q0 169 93 310.5t241 213.5q25 -46 38 -93q13 -38 13 -80q-208 -114 -208 -351v-9
q-51 -25 -80 -29zM2031 1274q-51 -186 -201 -298.5t-332 -112.5q89 -152 65.5 -338t-154.5 -322q-72 -72 -186 -122q55 33 110 84q131 127 131 311t-131 311q-106 106 -254 127v102q80 38 80 122v17l89 51q89 -123 237 -161q178 -46 336.5 45t205.5 269q17 63 17 139
q12 -114 -13 -224zM1214 1494q0 38 13 80q17 55 38 89q148 -68 241 -209.5t93 -310.5q0 -9 -2 -28t-2 -27q-46 0 -93 12q-51 13 -80 30v13q0 237 -208 351zM1172 1587q-38 -148 21 -288l-89 -50q-38 29 -80 29t-80 -29l-89 55q59 131 21 287q-47 178 -205.5 269t-336.5 44
q-63 -17 -127 -59q81 68 199 102q182 50 355.5 -24t262.5 -234q93 160 264.5 232t353.5 21q101 -21 199 -97q-72 38 -127 55q-178 47 -336.5 -44t-205.5 -269z" />
</svg>
