<?xml version="1.0" standalone="no"?>
<!DOCTYPE svg PUBLIC "-//W3C//DTD SVG 1.1//EN" "http://www.w3.org/Graphics/SVG/1.1/DTD/svg11.dtd" >
<svg xmlns="http://www.w3.org/2000/svg" xmlns:xlink="http://www.w3.org/1999/xlink" version="1.1" width="2048" height="2048" viewBox="-10 0 2068 2048">
   <path fill="currentColor"
d="M1024 0q-421 0 -722.5 301.5t-301.5 722.5t301.5 722.5t722.5 301.5t722.5 -301.5t301.5 -722.5q0 -426 -299 -725t-725 -299zM1665 1252q0 172 -122.5 292.5t-295.5 120.5h-446q-173 0 -295.5 -122.5t-122.5 -290.5v-456q0 -172 122.5 -292.5t295.5 -120.5h210
q173 0 293 116t120 285q0 29 25.5 54.5t59.5 25.5h71q34 0 59.5 29.5t25.5 63.5v295zM1264 1184h-480q-34 0 -57 23t-23 57q0 30 25 55t55 25h480q30 0 55 -25t25 -55q0 -34 -23 -57t-57 -23zM784 864h240q34 0 57 -23t23 -57q0 -30 -23 -55t-57 -25h-240q-30 0 -55 25
t-25 55q0 34 23 57t57 23z" />
</svg>
