<?xml version="1.0" standalone="no"?>
<!DOCTYPE svg PUBLIC "-//W3C//DTD SVG 1.1//EN" "http://www.w3.org/Graphics/SVG/1.1/DTD/svg11.dtd" >
<svg xmlns="http://www.w3.org/2000/svg" xmlns:xlink="http://www.w3.org/1999/xlink" version="1.1" width="2048" height="2048" viewBox="-10 0 2068 2048">
   <path fill="currentColor"
d="M1734.5 497q-142.5 0 -238.5 27.5t-217 114.5q-142 105 -255 168q-113 -63 -255 -168q-121 -87 -217 -114.5t-238.5 -27.5t-228 96.5t-85.5 254.5q0 59 44 121.5t75 92t111 92.5q150 117 150 158q0 63 -62 163q-51 63 -51 113q0 67 118 113q50 21 62 34v33q-8 104 34 150
q37 38 108 38q113 0 176 -109q29 -50 62.5 -75t81.5 -41.5t82 -21.5h33q121 5 196 63q34 25 63 75q63 109 176 109q71 0 108 -38q38 -41 38 -150v-33q4 -13 58 -34q118 -46 118 -113q0 -46 -46 -113q-67 -92 -67 -163q0 -41 150 -158q75 -59 113 -90.5t77.5 -94t39.5 -121.5
q0 -158 -85.5 -254.5t-228 -96.5zM1409 1735q-30 0 -51 -21t-21 -50.5t21 -50.5t50.5 -21t50.5 21t21 50q0 72 -71 72zM639 1735q-71 0 -71 -72q0 -29 21 -50t50.5 -21t50.5 21t21 50.5t-21 50.5t-51 21zM1024 1480q-155 0 -270 -73.5t-115 -173.5q0 -79 73.5 -144
t181.5 -90q26 58 92 79q5 5 13 5h4h4h4q13 8 26 0h8h8q4 -5 9 -5q66 -21 92 -79q108 25 181.5 90t73.5 144q0 100 -115 173.5t-270 73.5zM815 179.5q0 -37.5 25 -62.5t63 -25h242q38 0 63 25t25 62.5t-25 65t-63 27.5h-242q-38 0 -63 -27.5t-25 -65zM1225 388.5
q0 37.5 -27.5 65t-64.5 27.5h-218q-37 0 -64.5 -27.5t-27.5 -65t27.5 -64.5t64.5 -27h218q37 0 64.5 27t27.5 64.5zM1179 597.5q0 37.5 -27.5 65t-64.5 27.5h-126q-37 0 -64.5 -27.5t-27.5 -65t27.5 -64.5t64.5 -27h130q33 0 60.5 27t27.5 64.5z" />
</svg>
