<?xml version="1.0" standalone="no"?>
<!DOCTYPE svg PUBLIC "-//W3C//DTD SVG 1.1//EN" "http://www.w3.org/Graphics/SVG/1.1/DTD/svg11.dtd" >
<svg xmlns="http://www.w3.org/2000/svg" xmlns:xlink="http://www.w3.org/1999/xlink" version="1.1" width="2048" height="2048" viewBox="-11 0 2070 2048">
   <path fill="currentColor"
d="M15 672q-29 85 9 153q29 55 76 80q9 26 13 34q59 128 229 119l9 30q8 30 16.5 55.5t36 63.5t63.5 65.5t100 55t144 36.5q123 13 225 -38q0 127 68 165q119 72 123 289v191q0 21 21.5 29.5t38.5 -8.5l93 -98q21 -21 21 -46v-170q60 21 85 -26q4 0 12.5 4.5t12.5 4.5
q145 30 261.5 -34t142.5 -183q8 -38 0 -80q12 0 21 -4q80 -17 129 -89.5t49 -169.5q51 -94 26 -204q-13 -64 -47 -119q8 -140 -132 -208q0 -127 -106 -229q-72 -64 -157 -85q-55 -93 -157 -140q-136 -55 -242 0q-59 -55 -161 -68q-89 -12 -170 21q-93 -21 -186 -4
q-124 17 -217 89q-131 0 -233 111q-22 21 -38 55q-64 30 -111 81q-119 131 -68 271z" />
</svg>
