<?xml version="1.0" standalone="no"?>
<!DOCTYPE svg PUBLIC "-//W3C//DTD SVG 1.1//EN" "http://www.w3.org/Graphics/SVG/1.1/DTD/svg11.dtd" >
<svg xmlns="http://www.w3.org/2000/svg" xmlns:xlink="http://www.w3.org/1999/xlink" version="1.1" width="2048" height="2048" viewBox="-11 0 2069 2048">
   <path fill="currentColor"
d="M1660 1236l-730 495q-42 29 -101 29q-75 0 -121 -42l-697 -612q-17 21 -8 84q0 42 25 58l722 634q25 21 73 21t73 -21l734 -499q105 29 181 21q176 -17 218 -160q17 -50 17 -92q-88 80 -214 92q-71 9 -172 -8zM36 980l705 612q30 30 82 36t115 -40l697 -474
q105 30 184 21q176 -29 218 -159q47 -202 -109 -336q-79 -67 -196.5 -159.5t-340 -214t-356.5 -121.5q-214 0 -231 235l-763 428q-34 25 -34 109q8 42 29 63zM326 833l587 -331q34 -13 34 -55q0 -59 16.5 -90t31.5 -35.5t40 -4.5q130 0 358.5 145t392.5 287q79 76 63 118
q-13 50 -101 63q-17 4 -36 2t-37.5 -6.5t-31.5 -8.5t-21 -4l-12 -4q-5 -5 -21 -5q-26 0 -38 9l-646 440q-63 38 -109 -8l-479 -420q-21 -21 -21 -50q9 -29 30 -42z" />
</svg>
