<?xml version="1.0" standalone="no"?>
<!DOCTYPE svg PUBLIC "-//W3C//DTD SVG 1.1//EN" "http://www.w3.org/Graphics/SVG/1.1/DTD/svg11.dtd" >
<svg xmlns="http://www.w3.org/2000/svg" xmlns:xlink="http://www.w3.org/1999/xlink" version="1.1" width="2048" height="2048" viewBox="-11 0 2070 2048">
   <path fill="currentColor"
d="M2024 310q-132 -128 -355 -89t-405 225q-21 21 -46 54q-8 12 -37 47.5t-41 51.5q-50 66 -54 79q-25 24 -37 49q-8 -33 -25 -33q-8 0 -25 29q-4 -8 -45 -70q-37 -50 -42 -54q-16 -25 -66 -83q-8 -8 -12 -8q-62 -74 -83 -91q-182 -169 -390.5 -200t-336.5 93
q-46 29 -4.5 351t128.5 409q74 83 186 104q-182 70 -99 330q82 244 154.5 293.5t254.5 37.5q169 -13 289 -240q41 -91 58 -165q8 70 33 70t33 -74q17 82 58 169q120 227 289 240q182 12 254.5 -37.5t154.5 -293.5q83 -252 -99 -335q108 -12 186 -99q87 -87 128.5 -409
t-4.5 -351z" />
</svg>
