<?xml version="1.0" standalone="no"?>
<!DOCTYPE svg PUBLIC "-//W3C//DTD SVG 1.1//EN" "http://www.w3.org/Graphics/SVG/1.1/DTD/svg11.dtd" >
<svg xmlns="http://www.w3.org/2000/svg" xmlns:xlink="http://www.w3.org/1999/xlink" version="1.1" width="2048" height="2048" viewBox="-10 0 2058 2048">
   <path fill="currentColor"
d="M1111 1191h-4q-9 12 -34 37zM1211 673q-96 -75 -173 -71t-123 46l-46 42q16 12 43.5 35t67 79.5t27.5 94.5q-21 0 -52.5 -25.5t-54.5 -52.5t-48 -56l-25 -29q-17 16 -263 300q-138 155 -255 334q67 34 88 134l-108 -105q-301 460 -255 647q117 17 351 -137l-134 -126
q100 -12 150 109q255 -175 551 -522q105 -125 121 -142l-8 13l-129 -125q96 -38 171 75q146 -167 189.5 -238t29 -131.5t-114.5 -148.5zM643 1162q13 0 34 2t66.5 41.5t62.5 114.5zM1282 556q67 -200 38 -384q-5 -37 -40.5 -49.5t-62.5 4t-23 54.5q30 171 -37 354
q83 38 125 80q63 46 108 117q9 -5 26 -21q62 -100 166.5 -190t186 -140t218.5 -125q59 -34 13 -84q-38 -41 -84 -16q-187 100 -304 183q108 -112 254 -225q30 -25 23.5 -60.5t-33.5 -48t-61 4.5q-321 250 -513 546z" />
</svg>
