<?xml version="1.0" standalone="no"?>
<!DOCTYPE svg PUBLIC "-//W3C//DTD SVG 1.1//EN" "http://www.w3.org/Graphics/SVG/1.1/DTD/svg11.dtd" >
<svg xmlns="http://www.w3.org/2000/svg" xmlns:xlink="http://www.w3.org/1999/xlink" version="1.1" width="2048" height="2048" viewBox="-10 0 2068 2048">
   <path fill="currentColor"
d="M1353 1207q-67 0 -104 -50q-34 -54 -34 -133q0 -183 138 -183q29 0 62 21q29 16 54 62l134 -71q-84 -150 -271 -150q-133 0 -212 88q-88 87 -88 233q0 150 84 233q87 88 224 88q84 0 154.5 -46t112.5 -117l-129 -66q-29 91 -125 91zM762 1207q-67 0 -104 -50
q-34 -54 -34 -133q0 -183 138 -183q25 0 58 21q33 16 54 62l138 -71q-84 -150 -271 -150q-129 0 -217 88q-83 91 -83 233q0 154 83 233q84 88 221 88q88 0 158.5 -46t112.5 -117l-125 -66q-38 91 -129 91zM1973 629q-79 -196 -221 -329q-299 -300 -728 -300q-425 0 -720 296
q-150 149 -225 337q-79 183 -79 391q0 204 75 391q83 188 225 329q150 150 333 229q187 75 391 75q208 0 391 -79q192 -75 341.5 -225t216.5 -325q75 -187 75 -395t-75 -395zM1623 1611q-124 121 -278 187q-154 63 -321 63t-316 -63q-146 -62 -275 -183q-121 -121 -183 -275
q-67 -145 -67 -316t67 -321q62 -145 183 -274q246 -246 591 -246q350 0 595 250q125 125 183 270q63 150 63 321q0 358 -242 587z" />
</svg>
