<?xml version="1.0" standalone="no"?>
<!DOCTYPE svg PUBLIC "-//W3C//DTD SVG 1.1//EN" "http://www.w3.org/Graphics/SVG/1.1/DTD/svg11.dtd" >
<svg xmlns="http://www.w3.org/2000/svg" xmlns:xlink="http://www.w3.org/1999/xlink" version="1.1" width="2048" height="2048" viewBox="-10 0 2068 2048">
   <path fill="currentColor"
d="M1749 295q-295 -295 -725 -295t-725 295q-299 312 -299 729q0 413 299 721q308 303 725 303t733 -303q291 -291 291 -721q0 -434 -299 -729zM1622 1610q-248 248 -598 248q-346 0 -590 -244q-249 -249 -249 -590q0 -160 47 -278l522 236l160 71l123 55l97 42q29 26 29 64
q0 54 -38 75q-38 26 -88 26q-135 0 -232 -93l-139 143q143 123 312 123v155h118v-155q109 -13 185 -72q80 -68 97 -156l383 169q-46 88 -139 181zM1315 1011l-165 -75l-92 -38l-131 -59q-8 -17 -8 -26q0 -42 38 -63q33 -17 84 -17q93 0 177 59l135 -139q-118 -84 -257 -93
v-160h-118v160q-97 9 -169 55.5t-97 126.5l-392 -177q63 -85 114 -135q240 -249 590 -249q354 0 594 249q245 240 245 594q0 110 -26 219z" />
</svg>
