<?xml version="1.0" standalone="no"?>
<!DOCTYPE svg PUBLIC "-//W3C//DTD SVG 1.1//EN" "http://www.w3.org/Graphics/SVG/1.1/DTD/svg11.dtd" >
<svg xmlns="http://www.w3.org/2000/svg" xmlns:xlink="http://www.w3.org/1999/xlink" version="1.1" width="2048" height="2048" viewBox="-10 0 2068 2048">
   <path fill="currentColor"
d="M1750 298q-294 -298 -726 -298q-428 0 -722 298q-302 302 -302 726q0 420 302 722t722 302t734 -302q290 -290 290 -722t-298 -726zM1624 1612q-256 251 -600 251q-340 0 -592 -251q-247 -244 -247 -588q0 -151 42 -273l272 122h-16v122h92v50v29h-92v122h109
q25 130 96 222q151 198 420 198q151 0 269 -67l-42 -189q-93 42 -198 42q-138 0 -222 -84q-34 -38 -55 -122h374l529 235q-47 88 -139 181zM953 1074h4h-4zM1276 995h17v-122h-294l-118 -55q34 -54 38 -58q80 -93 210 -93q101 0 193 42l46 -197q-126 -50 -256 -50
q-243 0 -399 176q-12 17 -58 80l-336 -147q50 -76 117 -143q240 -243 588 -243q353 0 596 243t243 596q0 118 -25 218z" />
</svg>
