<?xml version="1.0" standalone="no"?>
<!DOCTYPE svg PUBLIC "-//W3C//DTD SVG 1.1//EN" "http://www.w3.org/Graphics/SVG/1.1/DTD/svg11.dtd" >
<svg xmlns="http://www.w3.org/2000/svg" xmlns:xlink="http://www.w3.org/1999/xlink" version="1.1" width="2048" height="2048" viewBox="-10 0 2068 2048">
   <path fill="currentColor"
d="M666 1111h745v175h-745v-175zM1748 300q-291 -300 -724 -300q-425 0 -720 300q-304 304 -304 724t304 720q304 304 720 304t733 -304q291 -300 291 -720q0 -433 -300 -724zM1623 1611q-258 250 -599 250t-591 -250q-246 -242 -246 -587q0 -341 250 -591
q233 -246 587 -246t595 246q242 237 242 591q0 350 -238 587zM666 783h745v174h-745v-174z" />
</svg>
