<?xml version="1.0" standalone="no"?>
<!DOCTYPE svg PUBLIC "-//W3C//DTD SVG 1.1//EN" "http://www.w3.org/Graphics/SVG/1.1/DTD/svg11.dtd" >
<svg xmlns="http://www.w3.org/2000/svg" xmlns:xlink="http://www.w3.org/1999/xlink" version="1.1" width="2048" height="2048" viewBox="-10 0 2068 2048">
   <path fill="currentColor"
d="M1750 298q-306 -298 -726 -298q-424 0 -722 298q-302 306 -302 726t302 722q307 302 722 302q424 0 730 -306q294 -294 294 -718q0 -428 -298 -726zM1620 1612q-256 247 -596 247q-344 0 -591.5 -247.5t-247.5 -587.5t251 -592q240 -247 588 -247q353 0 592 247
q247 239 247 592q0 357 -243 588zM1020 487q-181 0 -298 101q-126 109 -151 293h-80l201 202l202 -202h-76q26 -180 231 -180q118 0 172 84q63 80 63 247q0 156 -67 248q-63 92 -172 92q-214 0 -227 -184h-256q26 193 151 293q122 105 298 105q235 0 387 -155
q146 -159 146 -390q0 -252 -142 -399q-143 -155 -382 -155z" />
</svg>
