<?xml version="1.0" standalone="no"?>
<!DOCTYPE svg PUBLIC "-//W3C//DTD SVG 1.1//EN" "http://www.w3.org/Graphics/SVG/1.1/DTD/svg11.dtd" >
<svg xmlns="http://www.w3.org/2000/svg" xmlns:xlink="http://www.w3.org/1999/xlink" version="1.1" width="2048" height="2048" viewBox="-10 0 2068 2048">
   <path fill="currentColor"
d="M1747 301q-293 -301 -723 -301q-422 0 -723 301q-301 305 -301 723t301 723q305 301 723 301q414 0 731 -305q293 -293 293 -719t-301 -723zM1622 1609q-255 251 -598 251q-334 0 -589 -247q-247 -246 -247 -589t247 -594q242 -242 589 -242q351 0 594 247
q242 238 242 589t-238 585zM1442 731h-222v-221q0 -17 -16 -42q-25 -17 -42 -17h-560q-29 9 -38 21q-12 13 -12 38v752q0 25 12 38q17 17 42 17h222v225q0 21 16.5 38t41.5 17h556q25 0 41.5 -17t16.5 -38v-752q0 -17 -16 -42q-17 -17 -42 -17zM878 731q-25 9 -34 21
q-16 13 -16 38v418h-168v-644h448v167h-230zM1388 1484h-448v-640h448v640z" />
</svg>
