<?xml version="1.0" standalone="no"?>
<!DOCTYPE svg PUBLIC "-//W3C//DTD SVG 1.1//EN" "http://www.w3.org/Graphics/SVG/1.1/DTD/svg11.dtd" >
<svg xmlns="http://www.w3.org/2000/svg" xmlns:xlink="http://www.w3.org/1999/xlink" version="1.1" width="2048" height="2048" viewBox="-10 0 2068 2048">
   <path fill="currentColor"
d="M1024 433q-229 0 -327 172.5t-98 418.5t98 418.5t327 172.5t327 -172.5t98 -418.5t-98 -418.5t-327 -172.5zM841 1024q0 -366 183 -366q25 0 37 4q46 37 13 91l-225 413q-8 -100 -8 -142zM1024 1390q-25 0 -37 -4h-9q-4 -4 -8 -4q-71 -29 -29 -100l250 -433q16 83 16 175
q0 366 -183 366zM1973 629q-75 -184 -221 -329q-299 -300 -732 -300q-421 0 -716 300q-150 141 -225 337q-79 175 -79 387t79 387q75 187 221 333q150 150 333 225q183 79 387 79q195 0 395 -79q196 -83 342 -225q141 -141 216 -325q75 -187 75 -395t-75 -395zM1345 1794
q-150 67 -321 67q-167 0 -316 -63q-163 -75 -271 -183q-129 -129 -187 -275q-67 -158 -67 -316t67 -316q62 -154 187 -279q237 -246 587 -246t595 250q125 125 183 270q63 150 63 321q0 345 -242 587q-129 125 -278 183z" />
</svg>
