<?xml version="1.0" standalone="no"?>
<!DOCTYPE svg PUBLIC "-//W3C//DTD SVG 1.1//EN" "http://www.w3.org/Graphics/SVG/1.1/DTD/svg11.dtd" >
<svg xmlns="http://www.w3.org/2000/svg" xmlns:xlink="http://www.w3.org/1999/xlink" version="1.1" width="2048" height="2048" viewBox="-10 0 2058 2048">
   <path fill="currentColor"
d="M1783 0h-1518q-29 0 -51.5 23t-22.5 52v1898q0 29 22.5 52t51.5 23h1518q29 0 51.5 -23t22.5 -52v-1898q0 -29 -22.5 -52t-51.5 -23zM1712 1899h-1372v-1750h1372v1750zM1534 539h-506q-29 0 -51.5 20.5t-22.5 49.5q0 34 22.5 54.5t51.5 20.5h506q29 0 52 -20.5t23 -54.5
q0 -29 -23 -49.5t-52 -20.5zM1534 991h-506q-29 0 -51.5 20.5t-22.5 54t22.5 54t51.5 20.5h506q29 0 52 -20.5t23 -54t-23 -54t-52 -20.5zM464 556q-54 45 -8 103l108 129q21 25 58 25h4q37 0 58 -34l195 -315q37 -70 -25 -103q-58 -38 -104 25l-141 228l-41 -50
q-46 -58 -104 -8zM642.5 954q-45.5 0 -78.5 33t-33 78.5t33 78.5t78.5 33t79 -33t33.5 -78.5t-33.5 -78.5t-79 -33zM1534 1439h-506q-29 0 -51.5 20.5t-22.5 53.5t22.5 54t51.5 21h506q29 0 52 -21t23 -54t-23 -53.5t-52 -20.5zM642.5 1401q-45.5 0 -78.5 33.5t-33 79
t33 78.5t78.5 33t79 -33t33.5 -78.5t-33.5 -79t-79 -33.5z" />
</svg>
