<?xml version="1.0" standalone="no"?>
<!DOCTYPE svg PUBLIC "-//W3C//DTD SVG 1.1//EN" "http://www.w3.org/Graphics/SVG/1.1/DTD/svg11.dtd" >
<svg xmlns="http://www.w3.org/2000/svg" xmlns:xlink="http://www.w3.org/1999/xlink" version="1.1" width="2048" height="2048" viewBox="-10 0 2058 2048">
   <path fill="currentColor"
d="M1634 1154q-51 -16 -80 -16q-71 0 -125 37q-33 25 -38 30q-8 -17 -8 -34q-8 -25 -17 -92q0 -8 -2 -24.5t-6 -29.5q-8 -75 -8 -117q-9 -133 4 -238q4 -88 25 -192q54 -259 171 -397q33 -33 17 -58q-4 -8 -13 -17q-25 -12 -50 0.5t-75 45.5q-363 230 -593 626
q-138 255 -192 518q-8 -4 -25 -21q-100 -58 -205 -21q-129 51 -210.5 170t-81.5 261q0 192 133.5 327.5t330.5 135.5q271 0 400 -234q0 -4 -2 -10.5t-6 -10.5q-42 -96 -42 -208q0 -96 30 -172q4 -12 20 -58q-16 -34 -37 -54q-71 -92 -184 -84q-25 0 -33 4q29 -121 41 -163
q5 -12 11 -28.5t6 -25.5q17 -46 17 -54q8 -17 25 -56.5t21 -52.5q50 -108 117 -204q46 -80 112.5 -159t141.5 -154q59 -59 142 -121q-104 279 -108 567q-9 205 29 384q4 5 6 17.5t2 16.5t2.5 14.5t2.5 14.5h-17h-13q-108 0 -171 84q-50 62 -75 137q-25 71 -25 147
q0 83 25 150q46 138 167 225.5t271 87.5q197 0 330.5 -135.5t133.5 -327.5q0 -142 -81.5 -261t-210.5 -170z" />
</svg>
