<?xml version="1.0" standalone="no"?>
<!DOCTYPE svg PUBLIC "-//W3C//DTD SVG 1.1//EN" "http://www.w3.org/Graphics/SVG/1.1/DTD/svg11.dtd" >
<svg xmlns="http://www.w3.org/2000/svg" xmlns:xlink="http://www.w3.org/1999/xlink" version="1.1" width="2048" height="2048" viewBox="-10 0 2058 2048">
   <path fill="currentColor"
d="M1354 1956v-21q55 -109 50 -188q0 -33 -20.5 -91.5t-41.5 -100.5l-17 -42q4 -4 8 -6t12.5 -14.5t8.5 -21.5q-12 -37 -42 -37q-25 -38 -87.5 -217.5t-66.5 -251.5h71q4 0 12.5 -4t14.5 -16.5t6 -29t-10.5 -29t-18.5 -19t-13 -6.5h-46l5 -142q33 0 33 -38q0 -42 -33 -42
q46 -41 62.5 -114.5t-4.5 -119.5q-17 -29 -175 -280q33 -12 33 -62q0 -63 -67 -63q-58 0 -58 63q0 50 33 62q-8 9 -39.5 55t-39.5 62l62 134q9 21 -8 21l-25 -21l-46 -104q-67 100 -84 133q-21 46 -2 119.5t65 114.5q-38 0 -38 42q0 30 34 38l4 142h-33q-5 0 -13 4
t-20.5 16.5t-12.5 29.5t8 29.5t16.5 18.5t12.5 6h55q0 63 4 94.5t-21 96t-37.5 94t-44 90t-39.5 81.5q-9 4 -17 13q-33 0 -38 37q-4 17 6.5 29.5t18.5 12.5q0 8 -4 13q-79 163 -83 213q-5 104 50 200v13h-4q-17 21 -21 37l-9 59h723q0 -38 -4 -54.5t-25 -37.5z" />
</svg>
