<?xml version="1.0" standalone="no"?>
<!DOCTYPE svg PUBLIC "-//W3C//DTD SVG 1.1//EN" "http://www.w3.org/Graphics/SVG/1.1/DTD/svg11.dtd" >
<svg xmlns="http://www.w3.org/2000/svg" xmlns:xlink="http://www.w3.org/1999/xlink" version="1.1" width="2048" height="2048" viewBox="-10 0 2068 2048">
   <path fill="currentColor"
d="M1024 383q329 -269 586 -198q-249 -181 -561 -185h-50q-312 4 -561 185q257 -71 586 198zM792 565q-215 -228 -425 -308h-9q-4 -4 -8 -4q-9 8 -25.5 23t-25.5 23v4q-80 80 -147 182q-144 227 -152 514v50q4 333 211 594q8 -130 33 -227q106 -417 548 -851zM1896 485
q-67 -102 -147 -182l-4 -4q-5 -8 -13 -14.5t-19 -16.5l-15 -15q-4 0 -8 4h-9q-210 76 -425 308v4q434 417 552 851q29 118 34 219q198 -248 206 -590v-50q-8 -287 -152 -514zM1770 1665q-4 -9 -10.5 -26t-6.5 -21v-8q-169 -401 -607 -750q-21 -21 -67.5 -55t-54.5 -42
q-8 8 -54.5 42t-67.5 55q-468 375 -624 800q-8 17 -8 26q0 4 -9 21l38 38q291 299 700 303h50q413 -4 696 -303q12 -9 42 -38q-9 -17 -9 -21.5t-2 -10.5t-6 -10z" />
</svg>
