<?xml version="1.0" standalone="no"?>
<!DOCTYPE svg PUBLIC "-//W3C//DTD SVG 1.1//EN" "http://www.w3.org/Graphics/SVG/1.1/DTD/svg11.dtd" >
<svg xmlns="http://www.w3.org/2000/svg" xmlns:xlink="http://www.w3.org/1999/xlink" version="1.1" width="2048" height="2048" viewBox="-10 0 2058 2048">
   <path fill="currentColor"
d="M801 2044q41 12 121.5 -10.5t101.5 -22.5q29 0 105.5 20.5t105.5 12.5q264 -79 445.5 -397t181.5 -557q0 -376 -322 -512q-107 -46 -181.5 -48t-159 27t-121.5 33q0 -41 -4 -62q123 -95 313 -144q108 -29 192.5 -118t113.5 -163l33 -78q-297 -66 -483 45
q-124 74 -186 301q-21 -123 -54 -223q-4 -28 -12 -49q-21 -46 -56 -54t-64 10.5t-29 43.5q0 29 37 66q42 120 58 231q0 4 2 16.5t2 16.5v4l5 9v4v4q4 8 4 28.5t4 33.5q0 53 4 78q-41 -8 -105 -26.5t-105.5 -29t-105.5 -6.5t-134 33q-157 62 -239.5 219t-82.5 310
q0 219 183.5 537t431.5 417z" />
</svg>
