<?xml version="1.0" standalone="no"?>
<!DOCTYPE svg PUBLIC "-//W3C//DTD SVG 1.1//EN" "http://www.w3.org/Graphics/SVG/1.1/DTD/svg11.dtd" >
<svg xmlns="http://www.w3.org/2000/svg" xmlns:xlink="http://www.w3.org/1999/xlink" version="1.1" width="2048" height="2048" viewBox="-10 0 2058 2048">
   <path fill="currentColor"
d="M1844 154q-173 -160 -404 -153.5t-391 174.5q-151 160 -271 473t-69 506l-316 337q-17 -25 -25 -34q-59 -54 -143 -52t-143 61q-55 58 -52.5 142.5t60.5 142.5q97 80 207 43q-30 117 50 201q59 55 143 53t143 -61q55 -59 52.5 -143t-61.5 -143q-16 -17 -33 -21l315 -332
q202 33 507 -105.5t452 -294.5q160 -168 153.5 -401.5t-174.5 -392.5z" />
</svg>
