<?xml version="1.0" standalone="no"?>
<!DOCTYPE svg PUBLIC "-//W3C//DTD SVG 1.1//EN" "http://www.w3.org/Graphics/SVG/1.1/DTD/svg11.dtd" >
<svg xmlns="http://www.w3.org/2000/svg" xmlns:xlink="http://www.w3.org/1999/xlink" version="1.1" width="2048" height="2048" viewBox="-10 0 2058 2048">
   <path fill="currentColor"
d="M1897 1969q-167 -197 -522 -285q-30 -8 -67 -12l-9 -4h-8l-12 -5q-5 0 -53 -6t-69 -6q-41 -4 -133 -4q-201 0 -393 46q4 -88 18.5 -173.5t35.5 -159t48 -142.5t56.5 -123t58.5 -104.5t54 -86t46 -60.5t34 -37l8 -17q63 46 100 130q38 100 -4 200q-4 13 4.5 21t20.5 4
q46 -21 71 -54q92 -109 42 -226q-25 -71 -96 -113q71 17 155 80q150 121 159 301q0 16 14.5 20.5t22.5 -8.5q59 -75 71 -167q30 -209 -125 -330q-34 -29 -100 -54h8q192 25 288 163q9 12 27.5 8t18.5 -21q9 -79 -21 -150q-87 -214 -296 -235q-76 0 -138 17q8 -67 -13 -138
q-63 -196 -292 -234q-88 -12 -155 13q-17 8 -17 22.5t17 23.5q159 67 221 246q0 4 2.5 4t2.5 5q-42 -63 -80 -88q-154 -121 -347 -46q-92 33 -150 113q-9 8 -0.5 20.5t21.5 8.5q175 -33 330 88q79 62 117 134q-59 -67 -134 -72q-129 -20 -213 92q-25 42 -33 80q-5 12 8 20.5
t21 0.5q83 -63 196 -46q96 12 155 71l-4 4q-284 234 -514 777q-88 205 -155 443q-33 34 -46 51q-21 20 -6.5 49.5t44.5 29.5h1672q33 0 45.5 -29.5t-8.5 -49.5z" />
</svg>
