<?xml version="1.0" standalone="no"?>
<!DOCTYPE svg PUBLIC "-//W3C//DTD SVG 1.1//EN" "http://www.w3.org/Graphics/SVG/1.1/DTD/svg11.dtd" >
<svg xmlns="http://www.w3.org/2000/svg" xmlns:xlink="http://www.w3.org/1999/xlink" version="1.1" width="2048" height="2048" viewBox="-10 0 2058 2048">
   <path fill="currentColor"
d="M1024 0q-275 0 -468.5 193.5t-193.5 468.5q0 241 154 422t387 227v629q0 46 31.5 77t73 31t75 -33.5t33.5 -74.5v-625q299 -37 462 -295q108 -171 108 -358q0 -275 -193.5 -468.5t-468.5 -193.5zM1024 1203q-216 0 -383 -158q-54 -54 -96 -129q-54 -150 -20.5 -314.5
t154.5 -285.5q141 -141 337 -141q199 0 333 141q116 109 116 275q0 162 -116 279q-96 96 -231.5 96t-230.5 -96q-79 -79 -79 -195.5t79 -195.5q70 -71 166 -71t162 71q50 50 0 100q-49 45 -95 0q-29 -30 -68.5 -30t-69.5 30q-37 41 -37 97.5t37 93.5q59 54 136 54t131 -54
q75 -71 75 -179q0 -104 -75 -179q-96 -96 -233 -96q-142 0 -238 96q-129 129 -129 308t129 308q150 150 363 163q-59 12 -117 12z" />
</svg>
