<?xml version="1.0" standalone="no"?>
<!DOCTYPE svg PUBLIC "-//W3C//DTD SVG 1.1//EN" "http://www.w3.org/Graphics/SVG/1.1/DTD/svg11.dtd" >
<svg xmlns="http://www.w3.org/2000/svg" xmlns:xlink="http://www.w3.org/1999/xlink" version="1.1" width="2048" height="2048" viewBox="-10 0 2068 2048">
   <path fill="currentColor"
d="M2044 462q0 -80 -51 -155q-92 -130 -251 -122q-135 8 -454 117l-79 26q-59 21 -210 29q-214 8 -407 63q-416 122 -546 394q-38 89 -46 210v223q0 130 55 243q67 160 251.5 267t385.5 107q286 0 508 -214q109 -114 218 -290q68 -118 131 -197q63 -76 205 -139
q223 -100 277 -256q17 -38 17 -88v-214zM1930 508q-29 76 -77 113.5t-145 79.5q-176 84 -243 168q-76 97 -143 218q-80 139 -201 260q-185 185 -429 185q-180 0 -331 -94.5t-206 -215.5q-84 -198 -8 -361q113 -231 474 -332q168 -50 386 -59q155 -8 235 -37l80 -26
q315 -105 424 -113h12q89 0 147 80q46 67 25 134zM1758 407q-113 5 -398 105l-80 25q-97 34 -269 42q-209 9 -361 55q-318 92 -402 273q-55 126 8 273q42 92 168 167.5t268 75.5q202 0 353 -155q97 -97 180 -235q59 -118 156 -235q84 -97 281 -198q84 -37 115.5 -60.5
t48.5 -69.5q0 -21 -13 -33q-21 -30 -55 -30zM684 1175q-105 0 -182.5 -54.5t-77.5 -130t77.5 -130t182.5 -54.5t182.5 54.5t77.5 130t-77.5 130t-182.5 54.5z" />
</svg>
