<?xml version="1.0" standalone="no"?>
<!DOCTYPE svg PUBLIC "-//W3C//DTD SVG 1.1//EN" "http://www.w3.org/Graphics/SVG/1.1/DTD/svg11.dtd" >
<svg xmlns="http://www.w3.org/2000/svg" xmlns:xlink="http://www.w3.org/1999/xlink" version="1.1" width="2048" height="2048" viewBox="-10 0 2058 2048">
   <path fill="currentColor"
d="M1229 749q9 -17 13 -21q42 -97 92 -160q71 -88 134 -138q9 -4 34 -21q79 -50 29 -121q-17 -34 -52.5 -42.5t-68.5 8.5q-126 84 -243 243q-5 4 -5 9q-42 -197 -167 -327q-143 -143 -382 -176q-29 -9 -48 10t-10 48q33 239 176 382q138 138 364 176q-4 4 -8 10t-4 11
q-5 12 -15 37.5t-15 37.5h-29q-277 0 -471.5 195t-194.5 471.5t194.5 471.5t471.5 195t471.5 -195t194.5 -471q0 -218 -127.5 -392t-333.5 -241zM1095 1880q-42 0 -42 -46t42 -46q46 0 46 46t-46 46zM1154 1713q-46 0 -46 -46q0 -42 46 -42t46 42q0 46 -46 46zM1309 1809
q-46 0 -46 -46t46 -46t46 46t-46 46z" />
</svg>
