<?xml version="1.0" standalone="no"?>
<!DOCTYPE svg PUBLIC "-//W3C//DTD SVG 1.1//EN" "http://www.w3.org/Graphics/SVG/1.1/DTD/svg11.dtd" >
<svg xmlns="http://www.w3.org/2000/svg" xmlns:xlink="http://www.w3.org/1999/xlink" version="1.1" width="2048" height="2048" viewBox="-10 0 2058 2048">
   <path fill="currentColor"
d="M1105 22q-39 25 -102 140q-26 55 -38 114q-64 -161 -161 -212q-144 -89 -412 -55q-25 5 -37.5 26t-0.5 46q106 242 310 293q169 46 267 114v38q-233 -72 -416 13q-169 85 -232.5 212t-63.5 326q0 539 682 848q34 17 42 85q9 63 56 21q59 -64 135 -102q695 -318 695 -852
q0 -394 -275 -538q-178 -93 -441 -8q0 -178 76 -314q77 -119 34 -174q-17 -25 -55 -31.5t-63 10.5z" />
</svg>
