<?xml version="1.0" standalone="no"?>
<!DOCTYPE svg PUBLIC "-//W3C//DTD SVG 1.1//EN" "http://www.w3.org/Graphics/SVG/1.1/DTD/svg11.dtd" >
<svg xmlns="http://www.w3.org/2000/svg" xmlns:xlink="http://www.w3.org/1999/xlink" version="1.1" width="2048" height="2048" viewBox="-10 0 2058 2048">
   <path fill="currentColor"
d="M1434 1094q-70 -95 -141 -402q-37 -178 -66 -215q-58 -58 -133 -62q9 -63 34 -125q20 -45 51.5 -82.5t48 -52t20.5 -14.5q58 -42 21 -100q-42 -58 -100 -20l-4 8q-8 4 -18.5 12.5t-23.5 20.5l-29 29q-16 17 -30.5 37.5t-33 45.5t-31.5 54v4l-16 -12q-50 -174 -220 -208
q-50 -12 -87 -12q-120 0 -203 83q-25 33 -13 62q4 21 20.5 60.5t66.5 93t116 70.5q21 4 67 4q95 0 178 -33l46 37q0 4 -2.5 16.5t-2.5 21.5q-83 8 -124 62q-33 37 -70 215q-71 307 -141 402q-117 162 -158 270t-33 240q12 179 132.5 311.5t327.5 132.5h17q87 0 120 -8h8
q33 8 120 8h17q211 0 331.5 -130.5t128.5 -313.5q8 -132 -33 -240t-158 -270z" />
</svg>
