<?xml version="1.0" standalone="no"?>
<!DOCTYPE svg PUBLIC "-//W3C//DTD SVG 1.1//EN" "http://www.w3.org/Graphics/SVG/1.1/DTD/svg11.dtd" >
<svg xmlns="http://www.w3.org/2000/svg" xmlns:xlink="http://www.w3.org/1999/xlink" version="1.1" width="2048" height="2048" viewBox="-10 0 2063 2048">
   <path fill="currentColor"
d="M5 1476q0 25 19 42q18 17 42 17h409q27 0 47.5 19.5t20.5 47.5t-20.5 48.5t-47.5 20.5t-48 -21q-18 -17 -42 -17q-25 0 -42 16.5t-17 41.5t17 42q56 55 132 55q77 0 131 -54.5t54 -131.5t-54 -131.5t-131 -54.5h-409q-24 0 -42.5 18t-18.5 42zM5 1267q0 22 19 39
q18 18 42 18h763q77 0 131.5 -54.5t54.5 -131.5t-54.5 -130t-131.5 -53q-79 0 -131 52q-16 17 -16 42.5t16 41.5t41 16t43 -16q19 -20 46.5 -20t47.5 19.5t20 47.5t-20 48.5t-47 20.5h-763q-24 0 -42.5 18t-18.5 42zM190 1103q0 9 11 9h100q7 0 14 -10q23 -57 72.5 -93.5
t110.5 -41.5l37 -5q13 0 13 -12l5 -36q11 -113 95 -188.5t198 -75.5t198.5 75.5t96.5 188.5l5 41q0 12 12 12h113q94 0 160 65.5t66 157.5q0 94 -66 160t-160 66h-479q-13 0 -13 12v95q0 12 13 12h479q93 0 172.5 -46t125.5 -125.5t46 -173.5q0 -76 -30 -140
q79 -104 79 -230q0 -98 -49 -182t-133 -133.5t-182 -49.5q-161 0 -269 121q-83 -42 -185 -42q-147 0 -259.5 90.5t-143.5 232.5q-89 21 -157 85.5t-94 152.5v2q-2 4 -2 6zM758 337q0 24 19 42l42 45q17 16 42 16q26 0 43 -15.5t17 -42.5q0 -24 -16 -41l-46 -45
q-16 -18 -40.5 -18t-42.5 17.5t-18 41.5zM1128 643q75 -71 172 -71q101 0 174.5 73t73.5 175q0 67 -36 127q-100 -100 -241 -100h-23q-25 -113 -120 -204zM1241 279q0 24 17 40.5t42 16.5t42.5 -16.5t17.5 -40.5v-142q0 -25 -17.5 -42.5t-42.5 -17.5t-42 17.5t-17 42.5v142z
M1626 437q0 25 16 41q18 18 42.5 18t39.5 -18l102 -99q17 -18 17 -43q0 -24 -17.5 -41.5t-42 -17.5t-41.5 17l-100 102q-16 16 -16 41zM1680 1259q0 24 17 42l45 45q21 16 43 16q20 0 41 -16q17 -18 17 -42q0 -23 -17 -43l-45 -44q-16 -17 -40 -17q-26 0 -43.5 17t-17.5 42z
M1785 819.5q0 24.5 17 41.5q16 18 40 18h141q25 0 42.5 -17.5t17.5 -41.5t-18 -42t-42 -18h-141q-25 0 -41 17.5t-16 42z" />
</svg>
