<?xml version="1.0" standalone="no"?>
<!DOCTYPE svg PUBLIC "-//W3C//DTD SVG 1.1//EN" "http://www.w3.org/Graphics/SVG/1.1/DTD/svg11.dtd" >
<svg xmlns="http://www.w3.org/2000/svg" xmlns:xlink="http://www.w3.org/1999/xlink" version="1.1" width="2048" height="2048" viewBox="-10 0 2058 2048">
   <path fill="currentColor"
d="M12 1473q0 26 17 43q46 18 62 18h547q25 0 42 -17.5t17 -42.5q0 -24 -17 -40.5t-42 -16.5h-547q-28 0 -53.5 16.5t-25.5 39.5zM109 1264.5q0 24.5 18 41.5q16 18 40 18h654q25 0 42.5 -17.5t17.5 -42t-17.5 -42t-42.5 -17.5h-654q-24 0 -41 17.5t-17 42zM182 1100
q0 9 12 9h97q12 0 15 -9q26 -56 75 -92t110 -43h38q11 0 11 -13l5 -39q8 -74 49 -135t106.5 -95.5t140.5 -34.5q113 0 197.5 76t96.5 189l5 39q0 13 13 13h111q93 0 160.5 66.5t67.5 157.5q0 94 -67.5 161t-160.5 67h-479q-12 0 -12 13v92q0 12 12 12h479q94 0 173.5 -46
t125.5 -125.5t46 -173.5q0 -75 -30 -139q81 -101 81 -228q0 -98 -49 -182t-133.5 -133.5t-182.5 -49.5q-76 0 -145.5 31t-121.5 87q-86 -45 -187 -45q-148 0 -262 91.5t-145 233.5q-89 22 -156.5 87t-93.5 153q-2 2 -2 5zM232 1695q0 25 18 41q17 17 41 17h654
q25 0 41.5 -17t16.5 -41q0 -26 -16.5 -43.5t-41.5 -17.5h-654q-25 0 -42 17.5t-17 43.5zM752 339q0 26 17 42l44 45q17 17 42 17q27 0 43.5 -16.5t16.5 -42.5q0 -24 -17 -41l-45 -45q-18 -18 -40 -18q-26 0 -43.5 17.5t-17.5 41.5zM1125 643q69 -66 170 -66t172.5 71.5
t71.5 173.5q0 69 -32 125q-98 -99 -243 -99h-21q-30 -120 -118 -205zM1236 280q0 25 17.5 41t41.5 16q26 0 42 -15.5t16 -41.5v-142q0 -25 -16.5 -42.5t-41.5 -17.5q-24 0 -41.5 17.5t-17.5 42.5v142zM1620 439q0 26 17 42q14 17 42 17t41 -17l102 -100q17 -16 17 -44
q0 -24 -17.5 -41t-42 -17t-42.5 16l-100 103q-17 17 -17 41zM1675 1263.5q0 25.5 17 41.5l45 44q26 19 42.5 19t42.5 -19q17 -17 17 -42q0 -24 -17 -42l-44 -43q-20 -18 -45 -18t-41.5 17t-16.5 42.5zM1776 824q0 26 19 43q18 17 41 17h142q23 0 40.5 -17.5t17.5 -42.5
q0 -23 -17 -39t-41 -16h-142q-25 0 -42.5 16t-17.5 39z" />
</svg>
