<?xml version="1.0" standalone="no"?>
<!DOCTYPE svg PUBLIC "-//W3C//DTD SVG 1.1//EN" "http://www.w3.org/Graphics/SVG/1.1/DTD/svg11.dtd" >
<svg xmlns="http://www.w3.org/2000/svg" xmlns:xlink="http://www.w3.org/1999/xlink" version="1.1" width="2048" height="2048" viewBox="-10 0 2058 2048">
   <path fill="currentColor"
d="M90 1190q0 94 46 173.5t124.5 125.5t172.5 46h752q93 0 172.5 -46t126 -125.5t46.5 -173.5q0 -69 -29 -138q79 -97 79 -230q0 -75 -28.5 -142.5t-77.5 -116t-116.5 -77.5t-141.5 -29q-155 0 -270 122q-81 -46 -188 -46q-146 0 -259 91t-145 233q-116 27 -190 120t-74 213
zM209 1190q0 -87 58 -150t146 -74l35 -2q13 0 13 -12l4 -38q15 -113 98 -188.5t195 -75.5q115 0 200 76t96 188l5 41q2 11 14 11h112q92 0 158.5 66.5t66.5 157.5q0 95 -66 162t-159 67h-752q-92 0 -158 -67.5t-66 -161.5zM674 337q0 26 17 44l46 44q26 20 44 18
q22 0 39 -18t17 -43.5t-19 -40.5l-41 -46q-19 -17 -42 -17q-25 0 -43 17.5t-18 41.5zM1046 645q72 -70 170 -70q103 0 175 72t72 175q0 65 -35 127q-101 -99 -243 -99h-22q-26 -114 -117 -205zM1159 278q0 27 16 43t41 16q27 0 43 -16t16 -43v-142q0 -25 -16.5 -41
t-42.5 -16q-25 0 -41 16t-16 41v142zM1542 438q0 27 16 43q22 17 43 17q19 0 41 -17l100 -100q17 -19 17 -44t-17 -42t-41 -17q-25 0 -41 17l-102 100q-16 19 -16 43zM1598 1260q0 25 17 44l45 43q16 17 40.5 17t41.5 -17t17 -43q0 -24 -17 -41l-45 -45q-17 -16 -40 -16
q-25 0 -42 16.5t-17 41.5zM1699 822q0 24 19 40q17 17 42 17h142q24 0 40 -16.5t16 -41t-16 -42t-40 -17.5h-142q-25 0 -43 18t-18 42z" />
</svg>
