<?xml version="1.0" standalone="no"?>
<!DOCTYPE svg PUBLIC "-//W3C//DTD SVG 1.1//EN" "http://www.w3.org/Graphics/SVG/1.1/DTD/svg11.dtd" >
<svg xmlns="http://www.w3.org/2000/svg" xmlns:xlink="http://www.w3.org/1999/xlink" version="1.1" width="2048" height="2048" viewBox="-10 0 2065 2048">
   <path fill="currentColor"
d="M3 1479q0 24 17.5 40.5t44.5 16.5h1300q25 0 42.5 -16.5t17.5 -40.5q0 -25 -17.5 -42t-42.5 -17h-1300q-27 0 -44.5 17t-17.5 42zM186 1261.5q0 24.5 17 40.5q18 19 42 19h1301q24 0 41 -17.5t17 -42.5q0 -24 -16.5 -40.5t-41.5 -16.5h-1301q-25 0 -42 16.5t-17 41z
M194 1095q0 9 11 9h100q7 0 14 -11q25 -54 74 -88.5t109 -39.5l38 -5q11 0 11 -13l5 -35q11 -113 95.5 -188.5t198.5 -75.5q112 0 196.5 75t96.5 187l5 40q0 12 13 12h112q67 0 122 35.5t82 95.5q7 11 14 11h100q14 0 9 -16l-13 -38q79 -98 79 -230q0 -74 -29 -141t-77 -116
t-116 -77.5t-142 -28.5q-161 0 -266 116q-88 -43 -186 -43q-146 0 -260 91.5t-146 234.5q-185 48 -249 232q-1 2 -1 7zM307 1693q0 25 19 42q16 18 41 18h1302q25 0 42.5 -17.5t17.5 -42.5q0 -24 -17.5 -40t-42.5 -16h-1302q-25 0 -42.5 16t-17.5 40zM764 339q0 25 16 42
l45 44q18 19 40 19q24 0 42 -17.5t18 -42.5t-18 -44l-44 -42q-17 -18 -42 -18t-41 17t-16 42zM1133 644q71 -71 169 -71q102 0 174 72.5t72 174.5q0 67 -34 125q-99 -99 -241 -99h-23q-30 -123 -117 -202zM1245 280q0 24 16.5 40.5t40.5 16.5q26 0 43.5 -16.5t17.5 -40.5
v-142q0 -24 -18 -41.5t-43 -17.5q-24 0 -40.5 17t-16.5 42v142zM1626 438q0 24 17 42q39 37 86 0l99 -99q17 -19 17 -45q0 -24 -17 -41t-41 -17q-25 0 -42 17l-102 102q-17 19 -17 41zM1682 1258q0 25 19 42l44 45q17 17 40 17q22 0 43 -17q17 -18 17 -44q0 -24 -17 -40
l-45 -45q-18 -17 -42 -17q-25 0 -42 17t-17 42zM1785 820q0 25 19 41q15 18 41 18h142q25 0 41.5 -17.5t16.5 -42t-16.5 -41.5t-41.5 -17h-142q-25 0 -42.5 17.5t-17.5 41.5z" />
</svg>
