<?xml version="1.0" standalone="no"?>
<!DOCTYPE svg PUBLIC "-//W3C//DTD SVG 1.1//EN" "http://www.w3.org/Graphics/SVG/1.1/DTD/svg11.dtd" >
<svg xmlns="http://www.w3.org/2000/svg" xmlns:xlink="http://www.w3.org/1999/xlink" version="1.1" width="2048" height="2048" viewBox="-10 0 2058 2048">
   <path fill="currentColor"
d="M84 1189q0 140 97 240t237 106q12 0 12 -12v-93q0 -12 -12 -12q-90 -5 -152.5 -71.5t-62.5 -157.5q0 -87 59 -150.5t146 -74.5l37 -2q14 0 14 -13l4 -38q11 -113 95.5 -189t199.5 -76q113 0 199 76t97 189l6 40q0 13 11 13h113q93 0 161 67t68 158t-63 157.5t-152 71.5
q-14 0 -14 12v93q0 12 14 12q139 -4 235.5 -105t96.5 -241q0 -77 -29 -139q82 -101 82 -232q0 -98 -49.5 -182.5t-133.5 -134t-183 -49.5q-163 0 -271 122q-83 -46 -188 -46q-147 0 -261.5 91.5t-147.5 234.5q-115 27 -190 121t-75 214zM455 1680q10 23 32 31q21 11 44 2
t31 -31q10 -23 1.5 -45t-31.5 -31q-20 -11 -42.5 -2t-33.5 33q-10 17 -1 43zM500 1482q0 15 6 27q20 32 62 32q33 0 48 -45l73 -223q8 -26 -5 -47t-38 -26q-23 -7 -44 4.5t-29 34.5l-71 224q-2 10 -2 19zM629 1873q0 13 4 20q9 23 31 31q10 5 24 5q7 0 21 -4q23 -8 33 -31
t-0.5 -46t-31.5 -31.5t-43 0.5q-20 7 -29 24t-9 32zM672 334q0 26 17 41l45 45q17 17 38 19q21 3 42 -16t21 -44t-17 -42l-44 -44q-19 -18 -43 -18q-25 0 -42 17t-17 42zM680 1686q0 17 11 33t34 23q11 2 17 2q15 0 26 -5q21 -8 30 -40l125 -426q7 -25 -4 -45.5t-34 -27.5
q-25 -7 -46 4t-28 35l-128 430q-3 13 -3 17zM920 1659q0 13 5 21q9 22 31 31q11 5 24 5q7 0 21 -4q23 -9 32 -30q8 -23 -0.5 -44t-29.5 -32q-23 -11 -45 -2t-33 33q-5 8 -5 22zM970 1480q0 17 11 32t32 22q9 2 18 2q40 0 55 -43l71 -220q8 -25 -4.5 -45.5t-35.5 -27.5
q-25 -7 -45 4t-27 35l-71 223q-4 14 -4 18zM1045 641q69 -67 172 -67q102 0 174.5 71.5t72.5 172.5q0 66 -36 129q-100 -101 -244 -101h-22q-30 -120 -117 -205zM1157 275q0 25 17.5 42.5t42.5 17.5q24 0 41 -17.5t17 -42.5v-143q0 -25 -17 -42.5t-41 -17.5
q-25 0 -42.5 17.5t-17.5 42.5v143zM1543 434q0 25 18 42q15 18 39.5 17.5t42.5 -17.5l100 -101q19 -15 19 -41q0 -25 -18 -42.5t-43 -17.5q-22 0 -39 19l-101 99q-18 17 -18 42zM1599 1261q0 24 17 42l46 44q15 19 41 19q25 0 40 -19q19 -17 19 -42t-19 -42l-45 -43
q-16 -18 -40 -18t-41.5 17.5t-17.5 41.5zM1701 818q0 25 18 42q18 18 43 18h141q25 0 43 -17.5t18 -42.5q0 -24 -17.5 -40.5t-43.5 -16.5h-141q-26 0 -43.5 16.5t-17.5 40.5z" />
</svg>
