<?xml version="1.0" standalone="no"?>
<!DOCTYPE svg PUBLIC "-//W3C//DTD SVG 1.1//EN" "http://www.w3.org/Graphics/SVG/1.1/DTD/svg11.dtd" >
<svg xmlns="http://www.w3.org/2000/svg" xmlns:xlink="http://www.w3.org/1999/xlink" version="1.1" width="2048" height="2048" viewBox="-10 0 2058 2048">
   <path fill="currentColor"
d="M89 1190q0 139 97 239t236 106q12 0 12 -12v-95q0 -12 -12 -12q-90 -7 -152 -72t-62 -154q0 -87 59 -152t145 -72l37 -5q14 0 14 -12l4 -35q11 -113 95 -188.5t199 -75.5q113 0 197.5 75.5t97.5 188.5l4 41q0 11 13 11h112q94 0 161 66t67 158q0 89 -62 154t-153 72
q-13 0 -13 12v95q0 12 13 12q139 -4 235 -104.5t96 -240.5q0 -70 -32 -144q82 -98 82 -227q0 -74 -28.5 -141.5t-77.5 -116.5t-116.5 -77.5t-141.5 -28.5q-161 0 -270 120q-89 -43 -184 -43q-148 0 -261.5 90.5t-145.5 234.5q-115 27 -190 120.5t-75 212.5zM611 1974h20
l370 -546q4 -4 1.5 -9t-9.5 -5h-152l160 -293q8 -15 -10 -15h-205q-8 0 -14 10l-150 398q-3 14 9 14h151zM672 335q0 26 17 43l45 45q44 33 84 0q17 -19 17 -44t-17 -42l-44 -44q-19 -18 -43 -18t-41.5 17.5t-17.5 42.5zM1043 642q71 -71 172 -71q102 0 173.5 72.5
t71.5 175.5q0 63 -35 126q-102 -98 -240 -98h-22q-28 -119 -120 -205zM1156 275q0 26 16.5 43t42.5 17q25 0 41.5 -16.5t16.5 -43.5v-142q0 -25 -16.5 -41t-41.5 -16t-42 16t-17 41v142zM1539 436q0 24 19 41.5t38 17.5q17 0 43 -17l101 -100q17 -19 17 -44t-17 -42t-42 -17
q-23 0 -40 18l-100 99q-19 20 -19 44zM1596 1257.5q0 24.5 17 42.5l45 46q17 16 40 16q25 0 42 -17.5t17 -43.5q0 -23 -17 -40l-43 -45q-20 -16 -43 -16q-24 0 -41 16.5t-17 41zM1697 819q0 23 18 40t42 17h142q25 0 42.5 -16.5t17.5 -40.5q0 -25 -18 -42.5t-42 -17.5h-142
q-24 0 -42 17.5t-18 42.5z" />
</svg>
