<?xml version="1.0" standalone="no"?>
<!DOCTYPE svg PUBLIC "-//W3C//DTD SVG 1.1//EN" "http://www.w3.org/Graphics/SVG/1.1/DTD/svg11.dtd" >
<svg xmlns="http://www.w3.org/2000/svg" xmlns:xlink="http://www.w3.org/1999/xlink" version="1.1" width="2048" height="2048" viewBox="-10 0 2058 2048">
   <path fill="currentColor"
d="M89 1194q0 138 95 236.5t234 104.5q13 0 13 -12v-92q0 -12 -13 -12q-89 -5 -150 -70t-61 -155q0 -88 58.5 -152.5t145.5 -71.5l37 -6q11 0 11 -9l5 -39q13 -114 96 -189t197 -75t199 75t96 187l5 41q3 11 15 11h111q93 0 159.5 67t66.5 161q0 90 -61.5 155t-150.5 70
q-14 0 -14 12v92q0 12 14 12q139 -4 234 -103t95 -238q0 -71 -27 -140q81 -100 81 -232q0 -74 -28.5 -141.5t-77.5 -116.5t-116.5 -78t-141.5 -29q-160 0 -269 122q-93 -46 -190 -46q-147 0 -259.5 91t-144.5 235q-117 27 -190.5 120.5t-73.5 214.5zM461 1682q0 18 11 35.5
t33 24.5q24 7 44.5 -3t27.5 -39l10 -42q5 -24 -7 -44.5t-36 -27.5q-23 -7 -44 5.5t-28 36.5l-9 41q-2 6 -2 13zM514 1481q0 23 17 40q16 17 39 17q25 0 42 -16.5t17 -40.5t-17 -40.5t-42 -16.5q-24 0 -40 16t-16 41zM556 1323q-1 16 9.5 31.5t33.5 22.5q21 6 43 -5t29 -36
l19 -62q8 -26 -4.5 -45.5t-37.5 -26.5q-23 -8 -44 4t-29 35l-17 63q-2 18 -2 19zM637 1899q0 18 11 34.5t34 23.5q9 2 17 2q44 0 55 -43l9 -41q7 -26 -5.5 -47t-36.5 -26q-22 -7 -43.5 5t-29.5 36l-9 41q-2 11 -2 15zM676 339.5q0 24.5 17 41.5l45 44q15 17 38 18.5
t43 -18.5q17 -16 17 -41q0 -24 -17 -41l-44 -45q-16 -17 -41 -18q-24 0 -41 17.5t-17 42zM691 1697q0 24 17 41t41 17t40.5 -16.5t16.5 -41.5q0 -24 -16.5 -40t-41 -16t-41 16t-16.5 40zM734 1540q-1 15 10 32t31 21q25 7 45 -3.5t28 -39.5l19 -62q7 -23 -5 -44t-37 -28
q-23 -7 -44.5 5.5t-28.5 36.5l-16 63q-2 8 -2 19zM927 1689q0 18 10 33.5t32 22.5q3 0 9.5 1.5t9.5 1.5q43 0 53 -46l10 -42q7 -22 -5 -43.5t-35 -28.5q-26 -7 -47.5 5.5t-28.5 36.5l-6 41q0 2 -1 8.5t-1 9.5zM978 1484q0 24 17 39q16 17 40.5 17t41 -16t16.5 -40
q0 -25 -16.5 -41.5t-41 -16.5t-41 16.5t-16.5 41.5zM1020 1323q0 17 11.5 33t33.5 23q2 0 8.5 1t10.5 1q11 0 25 -6q22 -11 28 -37l17 -62q7 -24 -4.5 -44.5t-35.5 -27.5t-44.5 4t-27.5 35l-20 63q0 2 -1 7.5t-1 9.5zM1045 648q69 -69 171 -69q103 0 175.5 70.5t72.5 172.5
q0 69 -38 130q-102 -102 -243 -102h-21q-30 -114 -117 -202zM1159 281q0 25 16 40.5t41 15.5t42.5 -15.5t17.5 -40.5v-143q0 -24 -17.5 -41.5t-42.5 -17.5q-24 0 -40.5 17t-16.5 42v143zM1543 439q0 26 16 42q37 37 84 0l99 -100q18 -17 18 -44q0 -24 -17.5 -41.5
t-41.5 -17.5t-43 17l-99 103q-16 15 -16 41zM1597 1263q0 24 19 41l42 43q21 17 43 17q21 0 41 -17q18 -16 18 -41q0 -23 -18 -43l-45 -42q-15 -18 -39 -18t-42 18q-19 18 -19 42zM1700 822q0 24 18 41q19 19 43 19h141q24 0 40.5 -18t16.5 -42.5t-16.5 -42t-40.5 -17.5
h-141q-24 0 -42.5 18t-18.5 42z" />
</svg>
