<?xml version="1.0" standalone="no"?>
<!DOCTYPE svg PUBLIC "-//W3C//DTD SVG 1.1//EN" "http://www.w3.org/Graphics/SVG/1.1/DTD/svg11.dtd" >
<svg xmlns="http://www.w3.org/2000/svg" xmlns:xlink="http://www.w3.org/1999/xlink" version="1.1" width="2048" height="2048" viewBox="-10 0 2058 2048">
   <path fill="currentColor"
d="M84 1191q0 117 69.5 209.5t179.5 122.5q9 2 17 -5l81 -98q-93 0 -159.5 -67t-66.5 -162q0 -87 59 -150.5t147 -74.5l34 -2q13 0 13 -13l6 -37q11 -113 95.5 -189.5t198.5 -76.5q115 0 200.5 76.5t96.5 189.5l4 41q5 11 15 11h114q92 0 158.5 66.5t66.5 158.5
q0 88 -59 154t-144 73q-50 6 -62 19l-153 197q-14 19 -10.5 43t21.5 39q15 18 41 14.5t42 -24.5l133 -171q85 -8 156 -56.5t112 -124.5t41 -163q0 -75 -29 -139q82 -100 82 -232q0 -73 -29.5 -141t-78.5 -117t-117 -78t-142 -29q-157 0 -270 121q-83 -46 -189 -46
q-147 0 -260.5 91.5t-144.5 234.5q-117 27 -193 121t-76 214zM355 1764q8 23 32 33q23 11 46 1t32 -33q10 -21 0.5 -43t-31.5 -32q-23 -11 -46 -2t-31 32q-9 27 -2 44zM481 1573v8q2 23 20 38q19 16 44 14t40 -20l152 -196q15 -19 13 -44.5t-21 -39.5q-18 -15 -43.5 -12.5
t-42.5 21.5l-149 194q-13 17 -13 37zM516 1911q0 7 4 21q9 23 32 32q12 4 25 4q10 0 22 -3q22 -8 30 -30q11 -23 2 -46.5t-31 -32.5q-23 -10 -47 -0.5t-31 31.5q-6 11 -6 24zM632 1746v7q2 24 23 41q16 17 42 14t42 -24l288 -364q14 -20 11.5 -44t-21.5 -41q-19 -15 -43 -12
t-39 22l-290 365q-13 16 -13 36zM673 336q0 26 19 41l42 46q16 16 38 18q21 3 42.5 -15.5t21.5 -44.5q0 -23 -17 -42l-45 -45q-16 -16 -41 -16t-42.5 16.5t-17.5 41.5zM877 1826q0 12 5 21q9 23 31 32q11 5 24 5q7 0 21 -3q24 -10 32 -32q11 -23 2 -46t-31 -32
q-23 -10 -47 -1t-32 31q-5 12 -5 25zM1045 643q73 -67 172 -67q103 0 176 71.5t73 172.5q0 69 -36 129q-101 -101 -242 -101h-23q-29 -120 -120 -205zM1158 278q0 24 17 40.5t42 16.5t42.5 -16.5t17.5 -40.5v-144q0 -25 -17.5 -42.5t-42.5 -17.5q-24 0 -41.5 17.5
t-17.5 42.5v144zM1545 436q0 25 16 42q18 17 42.5 17.5t39.5 -17.5l104 -101q17 -17 17 -42t-18 -43t-42 -18q-23 0 -42 18l-101 102q-16 17 -16 42zM1599 1263.5q0 24.5 17 41.5l46 44q17 17 38 19h4q18 0 43 -19q17 -17 17 -41t-17 -43l-46 -43q-17 -18 -41 -18
q-25 0 -43 17.5t-18 42zM1704 820q0 25 17 42q17 19 41 19h142q25 0 42.5 -18t17.5 -43q0 -24 -17.5 -40.5t-42.5 -16.5h-142q-24 0 -41 16.5t-17 40.5z" />
</svg>
