<?xml version="1.0" standalone="no"?>
<!DOCTYPE svg PUBLIC "-//W3C//DTD SVG 1.1//EN" "http://www.w3.org/Graphics/SVG/1.1/DTD/svg11.dtd" >
<svg xmlns="http://www.w3.org/2000/svg" xmlns:xlink="http://www.w3.org/1999/xlink" version="1.1" width="2048" height="2048" viewBox="-10 0 2058 2048">
   <path fill="currentColor"
d="M86 1190q0 139 97 239t237 106q12 0 12 -12v-93q0 -11 -12 -11q-89 -5 -152 -72t-63 -157q0 -86 59 -150t146 -74l37 -4q13 0 13 -11l5 -38q11 -113 95.5 -189t198.5 -76q113 0 198.5 76t97.5 189l5 40q0 13 12 13h112q93 0 160.5 66.5t67.5 157.5q0 90 -62.5 157
t-152.5 72q-13 0 -13 11v93q0 12 13 12q139 -4 236 -105t97 -240q0 -75 -30 -140q82 -101 82 -230q0 -99 -49.5 -183t-133.5 -133t-182 -49q-162 0 -270 121q-85 -46 -188 -46q-147 0 -261.5 91.5t-145.5 234.5q-116 27 -191 120.5t-75 213.5zM462 1666q0 18 11 34.5
t34 22.5q12 3 19 3q41 0 54 -44l110 -409q7 -25 -6 -46.5t-37 -25.5q-22 -7 -43.5 4.5t-28.5 35.5l-110 410q-3 13 -3 15zM643 1881q0 19 10.5 35.5t35.5 20.5q12 3 18 3q17 0 32 -12t18 -34l167 -621q7 -24 -4.5 -44.5t-34.5 -27.5q-25 -7 -46 4.5t-27 35.5l-167 621
q-2 17 -2 19zM672 335.5q0 24.5 18 42.5l45 46q20 15 43 15q22 0 40 -16t18 -41q0 -26 -17 -45l-44 -44q-19 -18 -42 -18q-25 0 -43 18t-18 42.5zM931 1668q0 17 11 33t32 22q12 3 18 3q18 0 34 -10t21 -34l110 -409q6 -24 -5 -44.5t-35 -27.5q-25 -7 -45.5 4.5t-26.5 35.5
l-110 410q-4 15 -4 17zM1045 643q73 -70 172 -70q102 0 174 72t72 175q0 65 -36 129q-101 -101 -243 -101h-23q-29 -121 -116 -205zM1157 278q0 24 17.5 41t42.5 17q24 0 40.5 -16.5t16.5 -41.5v-142q0 -27 -16 -44t-41 -17q-26 0 -43 17t-17 44v142zM1541 437q0 25 19 41
q15 16 38.5 17.5t43.5 -17.5l100 -100q18 -18 18 -44q0 -25 -17 -42t-43 -17q-21 0 -40 18l-100 100q-19 17 -19 44zM1598 1260q0 25 17 44l45 43q18 15 42 15l1 1q23 0 40 -17t17 -42t-18 -41l-43 -45q-19 -17 -43 -17t-41 17t-17 42zM1699 820.5q0 24.5 18 40.5
q19 19 43 19h142q24 0 42 -18t18 -42t-18 -42t-42 -18h-142q-24 0 -42.5 18t-18.5 42.5z" />
</svg>
