<?xml version="1.0" standalone="no"?>
<!DOCTYPE svg PUBLIC "-//W3C//DTD SVG 1.1//EN" "http://www.w3.org/Graphics/SVG/1.1/DTD/svg11.dtd" >
<svg xmlns="http://www.w3.org/2000/svg" xmlns:xlink="http://www.w3.org/1999/xlink" version="1.1" width="2048" height="2048" viewBox="-10 0 2058 2048">
   <path fill="currentColor"
d="M89 1189q0 139 97 238.5t236 106.5q12 0 12 -12v-93q0 -12 -12 -12q-88 -5 -150 -71t-62 -157q0 -87 58 -150.5t146 -73.5l35 -3q14 0 14 -12l4 -37q11 -113 95 -189t199 -76q114 0 199 76t95 189l5 40q0 12 13 12h116q91 0 157.5 66.5t66.5 157.5q0 89 -62.5 154.5
t-150.5 73.5q-11 0 -11 12v93q0 12 11 12q91 -3 167 -50t119 -125t43 -170q0 -74 -28 -136q78 -98 78 -228q0 -74 -28.5 -141.5t-77.5 -116.5t-116 -77.5t-142 -28.5q-157 0 -264 115q-83 -44 -190 -44q-147 0 -260 90.5t-144 233.5q-117 26 -192.5 119.5t-75.5 213.5z
M466 1654q0 19 11 37.5t31 24.5q20 7 42.5 -4t30.5 -38l18 -73q7 -22 -5 -43.5t-36 -28.5q-26 -7 -46.5 5.5t-25.5 37.5l-19 69q-1 4 -1 13zM556 1327q0 39 45 54q23 8 44.5 -3.5t28.5 -36.5l17 -72q7 -21 -5 -42.5t-35 -29.5q-25 -7 -46 5.5t-26 36.5l-21 71q-2 8 -2 17z
M641 1875q0 17 12 34.5t34 24.5l6.5 1t10.5 1q14 0 25 -5q20 -9 29 -41l19 -69q7 -24 -5 -45t-36 -28t-45 5t-28 36l-19 71q-3 10 -3 15zM673 341q0 26 18 43l45 45q36 35 82 0q17 -19 17 -43t-17 -42l-44 -46q-17 -17 -42 -17q-24 0 -41.5 17.5t-17.5 42.5zM735 1542
q0 17 11 34.5t33 24.5q24 7 44 -3.5t28 -38.5l17 -71q7 -24 -4.5 -45t-34.5 -28q-26 -8 -47.5 5t-25.5 37l-20 72q-1 4 -1 13zM929 1662q2 39 43 57l18 3q17 0 33 -11.5t22 -34.5l20 -70q7 -25 -6 -46.5t-37 -25.5q-21 -7 -42.5 5t-28.5 35l-19 71q-1 3 -1.5 6t-1 5.5
t-0.5 5.5zM1026 1331q0 16 10.5 33t31.5 23l18 2q20 0 35.5 -12.5t19.5 -32.5l19 -69q7 -25 -4.5 -45.5t-35.5 -27.5t-44.5 4.5t-27.5 34.5l-20 74q-2 8 -2 16zM1048 645q70 -66 167 -66q103 0 175 72t72 174q0 59 -32 122q-100 -99 -241 -99h-24q-28 -118 -117 -203z
M1156 281q0 27 16.5 43.5t42.5 16.5t43 -16.5t17 -43.5v-140q0 -26 -17 -43t-43 -17t-42.5 17t-16.5 43v140zM1542 441q0 26 15 42q22 18 43 18q20 0 41 -18l100 -99q17 -19 17 -44t-17 -42t-41 -17t-42 17l-101 100q-15 18 -15 43zM1596 1263.5q0 24.5 19 43.5l43 44
q21 22 43 22q20 0 40 -22q19 -18 18.5 -42t-18.5 -42l-45 -45q-17 -17 -40 -17q-24 0 -42 17t-18 41.5zM1699 825q0 23 17 40t40 17h142q27 0 44 -16t17 -41q0 -26 -17.5 -43t-43.5 -17h-142q-24 0 -40.5 17.5t-16.5 42.5z" />
</svg>
