<?xml version="1.0" standalone="no"?>
<!DOCTYPE svg PUBLIC "-//W3C//DTD SVG 1.1//EN" "http://www.w3.org/Graphics/SVG/1.1/DTD/svg11.dtd" >
<svg xmlns="http://www.w3.org/2000/svg" xmlns:xlink="http://www.w3.org/1999/xlink" version="1.1" width="2048" height="2048" viewBox="-10 0 2058 2048">
   <path fill="currentColor"
d="M91 1192q0 90 44.5 167.5t121 124.5t166.5 50q12 0 12 -12v-92q0 -13 -12 -13q-88 -5 -151 -71t-63 -154q0 -86 59 -149.5t145 -74.5l37 -4q12 0 12 -13l6 -35q11 -114 94.5 -190t197.5 -76q113 0 198.5 76t96.5 188l5 41q0 11 12 11h112q93 0 159.5 67t66.5 159
q0 88 -62.5 154t-150.5 71q-13 0 -13 13v92q0 12 13 12q138 -5 234.5 -104.5t96.5 -237.5q0 -78 -30 -141q82 -98 82 -229q0 -98 -49 -182t-133 -132.5t-182 -48.5q-160 0 -269 120q-85 -45 -187 -45q-147 0 -260 90.5t-145 232.5q-117 28 -190.5 121.5t-73.5 213.5z
M532 1474q0 25 16.5 42.5t40.5 17.5t41 -17.5t17 -42.5q0 -24 -17 -40.5t-41 -16.5t-40.5 16.5t-16.5 40.5zM532 1726q0 22 17 40q18 17 40 17q25 0 41.5 -16.5t16.5 -40.5q0 -25 -17 -41t-41 -16t-40.5 16t-16.5 41zM674 341q0 25 17 41l46 45q17 17 37 18q21 3 42 -15.5
t21 -44t-17 -44.5l-44 -42q-16 -18 -41 -18q-26 0 -43.5 17.5t-17.5 42.5zM753 1607q0 24 17 42q17 17 40 17q25 0 42.5 -17t17.5 -42q0 -24 -17.5 -41t-42.5 -17q-23 0 -40 17t-17 41zM753 1357q0 24 17 41t40 17q25 0 42.5 -17t17.5 -41t-17.5 -41t-42.5 -17q-23 0 -40 17
t-17 41zM753 1862q0 22 17 39q17 18 40 18q25 0 42.5 -16.5t17.5 -41t-17.5 -42t-42.5 -17.5q-23 0 -40 17.5t-17 42.5zM977 1474q0 25 17 42.5t41 17.5t40.5 -17.5t16.5 -42.5q0 -24 -16.5 -40.5t-40.5 -16.5t-41 16.5t-17 40.5zM977 1726q0 22 16 40q19 17 42 17
q25 0 41 -16.5t16 -40.5q0 -25 -16.5 -41t-40.5 -16q-25 0 -41.5 16.5t-16.5 40.5zM1045 645q72 -69 171 -69q101 0 173 72.5t72 173.5q0 65 -36 127q-99 -99 -241 -99h-23q-30 -122 -116 -205zM1156 283q0 24 17.5 40t42.5 16t41.5 -16t16.5 -40v-142q0 -25 -17 -42.5
t-41 -17.5t-42 18t-18 42v142zM1539 440q0 25 18 42q16 16 39 17.5t43 -17.5l100 -100q18 -18 18 -43q0 -24 -18 -41.5t-42 -17.5q-23 0 -40 17l-100 102q-18 16 -18 41zM1595 1260q0 26 17 43l45 44q25 17 44 17q22 0 39 -18t17 -43q0 -23 -18 -40l-43 -45
q-18 -17 -42.5 -17t-41.5 17t-17 42zM1696 822q0 24 18 41q18 19 43 19h141q24 0 41.5 -18t17.5 -42.5t-17.5 -42t-41.5 -17.5h-141q-25 0 -43 18t-18 42z" />
</svg>
