<?xml version="1.0" standalone="no"?>
<!DOCTYPE svg PUBLIC "-//W3C//DTD SVG 1.1//EN" "http://www.w3.org/Graphics/SVG/1.1/DTD/svg11.dtd" >
<svg xmlns="http://www.w3.org/2000/svg" xmlns:xlink="http://www.w3.org/1999/xlink" version="1.1" width="2048" height="2048" viewBox="-10 0 2058 2048">
   <path fill="currentColor"
d="M91 1190q0 90 44.5 168t120.5 125t167 51q12 0 12 -12v-92q0 -13 -12 -13q-89 -5 -151.5 -71t-62.5 -156q0 -86 58.5 -149.5t145.5 -74.5l36 -2q13 0 13 -12l6 -38q11 -113 94.5 -188.5t197.5 -75.5q112 0 197 76t98 188l4 41q0 11 12 11h113q92 0 159 66.5t67 157.5
q0 90 -62.5 156t-151.5 71q-12 0 -12 13v92q0 12 12 12q91 -3 167 -50t119.5 -125.5t43.5 -168.5q0 -77 -28 -139q81 -99 81 -229q0 -99 -49 -182.5t-132.5 -132t-181.5 -48.5q-161 0 -269 120q-85 -45 -187 -45q-147 0 -260 90.5t-145 232.5q-115 27 -189.5 120.5
t-74.5 212.5zM501 1251q0 40 29.5 68t70.5 28q42 0 70 -28t28 -68q0 -25 -24.5 -69.5t-45.5 -69.5q-22 -23 -28 -29l-25 28q-28 30 -51.5 71.5t-23.5 68.5zM674 339q0 27 17 43l45 45q44 33 84 0q17 -20 17 -44t-17 -41l-44 -45q-20 -17 -43 -17q-25 0 -42 17.5t-17 41.5z
M708 1526q0 68 47 115t115 47q67 0 114.5 -48t47.5 -114q0 -56 -56 -137q-48 -63 -88 -103q-9 -6 -18 -16l-17 16q-37 33 -88 102q-57 79 -57 138zM810 1066q0 26 20 45t48 19q27 0 46 -19t19 -45q0 -43 -65 -111l-17 17q-19 21 -35 48.5t-16 45.5zM1045 645q69 -69 171 -69
t173.5 71.5t71.5 174.5q0 61 -36 127q-101 -99 -241 -99h-23q-30 -122 -116 -205zM1156 280q0 24 18 41.5t42 17.5t40.5 -17.5t16.5 -41.5v-142q0 -25 -16 -41t-41 -16t-42.5 16t-17.5 41v142zM1539 440q0 26 18 42t39 16q18 0 42 -16l100 -100q19 -19 19 -43
q0 -26 -17.5 -42.5t-42.5 -16.5q-23 0 -40 17l-100 100q-18 17 -18 43zM1595 1259q0 26 17 44l45 41q15 18 41 18q25 0 40 -18q19 -17 19 -41q0 -23 -19 -40l-42 -45q-18 -17 -43 -17q-24 0 -41 17t-17 41zM1696 822q0 23 17 40q19 17 44 17h141q25 0 42 -16.5t17 -40.5
q0 -25 -17.5 -42.5t-41.5 -17.5h-141q-25 0 -43 18t-18 42z" />
</svg>
