<?xml version="1.0" standalone="no"?>
<!DOCTYPE svg PUBLIC "-//W3C//DTD SVG 1.1//EN" "http://www.w3.org/Graphics/SVG/1.1/DTD/svg11.dtd" >
<svg xmlns="http://www.w3.org/2000/svg" xmlns:xlink="http://www.w3.org/1999/xlink" version="1.1" width="2048" height="2048" viewBox="-10 0 2058 2048">
   <path fill="currentColor"
d="M196 949q0 28 19.5 46t50.5 18h117q28 0 48 -18.5t20 -45.5q0 -30 -20 -49.5t-48 -19.5h-117q-31 0 -50.5 19t-19.5 50zM319 1379q0 101 73.5 175t174.5 74h477q101 0 173 -73t72 -176q0 -50 -14 -86q87 -55 137.5 -147t50.5 -197q0 -85 -33.5 -162t-89 -133t-133 -89
t-161.5 -33q-114 0 -210 56t-151 151.5t-55 209.5v23q-104 59 -138 173q-79 25 -126 88.5t-47 145.5zM427 394q0 30 18 47l112 117q25 19 49.5 19t48.5 -19q20 -19 20 -48q0 -28 -20 -49l-114 -114q-23 -21 -49 -21q-29 0 -47 20t-18 48zM456 1379q0 -44 28 -75t71 -35
l44 -6q13 0 13 -16l7 -39q7 -60 50.5 -100.5t102.5 -40.5q61 0 105.5 40.5t52.5 100.5l5 45q7 16 17 16h92q45 0 78 32.5t33 77.5q0 47 -33 80t-78 33h-477q-47 0 -79 -33t-32 -80zM764 934q7 -114 88 -191.5t194 -77.5q116 0 197.5 83t81.5 201q0 73 -35.5 135t-96.5 101
q-61 -51 -141 -51q-31 -91 -107 -145.5t-173 -54.5h-8zM978 326q0 29 20 49t48 20q29 0 49 -20t20 -49v-162q0 -28 -20 -46.5t-49 -18.5q-28 0 -48 18.5t-20 46.5v162zM1418 1385q0 28 18 49l114 112q44 45 98 0q18 -17 18 -47q0 -28 -18 -46l-117 -117q-19 -17 -47.5 -17
t-47 19t-18.5 47zM1418 508q0 30 18 50q19 19 47 19q29 0 48 -19l117 -117q18 -17 18 -47q0 -28 -19.5 -48t-48.5 -20q-27 0 -48 21l-114 114q-18 19 -18 47zM1597 949q0 28 20 46t50 18h117q28 0 48 -18.5t20 -45.5q0 -30 -19.5 -49.5t-48.5 -19.5h-117q-30 0 -50 19
t-20 50z" />
</svg>
