<?xml version="1.0" standalone="no"?>
<!DOCTYPE svg PUBLIC "-//W3C//DTD SVG 1.1//EN" "http://www.w3.org/Graphics/SVG/1.1/DTD/svg11.dtd" >
<svg xmlns="http://www.w3.org/2000/svg" xmlns:xlink="http://www.w3.org/1999/xlink" version="1.1" width="2048" height="2048" viewBox="-10 0 2058 2048">
   <path fill="currentColor"
d="M285 1032q0 -25 18 -43q18 -17 42 -17h142q24 0 40 17.5t16 42.5t-16 42t-40 17h-142q-24 0 -42 -17.5t-18 -41.5zM484 1514q0 -24 16 -43l103 -99q15 -16 41 -16q25 0 41.5 15.5t16.5 39.5q0 26 -17 45l-99 99q-43 33 -86 0q-16 -18 -16 -41zM484 551q0 -24 16 -42
q21 -17 45 -17q23 0 41 17l99 102q17 16 17 41t-16.5 41.5t-41.5 16.5q-26 0 -41 -17l-103 -99q-16 -17 -16 -43zM661 1032q0 -97 49 -180.5t133 -132.5t181 -49q73 0 140 29t115.5 77.5t77 115.5t28.5 140q0 98 -48.5 181.5t-132 132t-181 48.5t-181 -48.5t-132.5 -132
t-49 -181.5zM779 1032q0 102 71.5 174t173 72t173.5 -72t72 -174q0 -100 -72 -171t-173 -71t-173 71t-72 171zM964 1572q0 -24 17.5 -41t42.5 -17t42 17t17 41v138q0 26 -17.5 43.5t-42 17.5t-42 -17.5t-17.5 -43.5v-138zM964 495v-142q0 -24 18 -41.5t42 -17.5t41.5 17.5
t17.5 41.5v142q0 24 -17.5 40t-42 16t-42 -16t-17.5 -40zM1348 1411q0 -24 16 -39q15 -16 39 -16q25 0 42 16l101 99q17 19 17 43t-17 41q-41 32 -83 0l-99 -99q-16 -18 -16 -45zM1348 652q0 -26 16 -41l99 -102q18 -17 41 -17q25 0 42 17.5t17 41.5q0 26 -17 43l-101 99
q-19 17 -42 17q-24 0 -39.5 -16.5t-15.5 -41.5zM1505 1032q0 -25 17 -43q17 -17 40 -17h141q24 0 42 18t18 42t-18 41.5t-42 17.5h-141q-24 0 -40.5 -17t-16.5 -42z" />
</svg>
