<?xml version="1.0" standalone="no"?>
<!DOCTYPE svg PUBLIC "-//W3C//DTD SVG 1.1//EN" "http://www.w3.org/Graphics/SVG/1.1/DTD/svg11.dtd" >
<svg xmlns="http://www.w3.org/2000/svg" xmlns:xlink="http://www.w3.org/1999/xlink" version="1.1" width="2048" height="2048" viewBox="-10 0 2058 2048">
   <path fill="currentColor"
d="M87 1190q0 116 68.5 206.5t178.5 123.5l-44 118q-5 14 10 14h147l-87 275h21l290 -375q3 -4 0.5 -9t-10.5 -5h-151l172 -322q7 -15 -10 -15h-204q-10 0 -16 10l-75 200q-74 -19 -123 -81t-49 -140q0 -86 59 -150t147 -74l36 -5q14 0 14 -12l4 -35q11 -113 95.5 -189.5
t198.5 -76.5t199 76.5t97 189.5l4 40q0 12 12 12h112q95 0 161.5 65.5t66.5 158.5q0 89 -61.5 154t-152.5 72q-14 0 -14 12v95q0 12 14 12q139 -4 235.5 -104.5t96.5 -240.5q0 -76 -30 -139q82 -100 82 -231q0 -97 -49 -181.5t-133 -133.5t-182 -49q-161 0 -270 121
q-84 -45 -188 -45q-147 0 -261 91t-146 233q-115 27 -190 120.5t-75 213.5zM650 1856q-2 16 9 31t32 23q8 2 15 2q17 0 34.5 -10.5t23.5 -32.5l159 -596q7 -24 -4 -44.5t-34 -27.5q-24 -7 -45.5 4.5t-27.5 35.5l-160 597q-2 9 -2 18zM672 337.5q0 24.5 18 41.5l44 45
q18 18 42.5 18t39.5 -18q20 -15 20 -42q0 -24 -18 -41l-43 -45q-18 -17 -43 -17q-26 0 -43 17t-17 41.5zM938 1644q0 12 8 26q13 21 35 30q7 3 21 3q15 0 22 -4q21 -8 29 -40l104 -386q6 -25 -5.5 -45t-35.5 -27t-44.5 4.5t-26.5 35.5l-104 387q0 3 -1.5 8t-1.5 8zM1045 644
q69 -67 172 -67q101 0 173 71t72 172q0 65 -36 129q-103 -103 -243 -103h-21q-32 -122 -117 -202zM1157 279q0 24 17.5 42t42.5 18q24 0 40.5 -17.5t16.5 -42.5v-143q0 -25 -16.5 -42.5t-40.5 -17.5q-25 0 -42.5 17.5t-17.5 42.5v143zM1541 437.5q0 25.5 18 42.5
q15 17 39.5 17t42.5 -17l100 -101q18 -17 18 -41.5t-17.5 -42t-42.5 -17.5q-22 0 -39 18l-101 100q-18 16 -18 41.5zM1597 1262q0 24 17 42l46 43q13 15 37 17l1 1q1 0 3 0.5t4 0.5q19 0 36 -19q18 -16 18 -41q0 -24 -18 -43l-45 -42q-17 -19 -40 -19q-24 0 -41.5 17.5
t-17.5 42.5zM1698 820q0 24 19 42q19 19 42 19h142q24 0 42 -18t18 -43q0 -24 -18 -40.5t-42 -16.5h-142q-26 0 -43.5 16.5t-17.5 40.5z" />
</svg>
