<?xml version="1.0" standalone="no"?>
<!DOCTYPE svg PUBLIC "-//W3C//DTD SVG 1.1//EN" "http://www.w3.org/Graphics/SVG/1.1/DTD/svg11.dtd" >
<svg xmlns="http://www.w3.org/2000/svg" xmlns:xlink="http://www.w3.org/1999/xlink" version="1.1" width="2048" height="2048" viewBox="-10 0 2058 2048">
   <path fill="currentColor"
d="M233 1476q0 -26 17 -44q18 -17 42 -17h377q76 0 130.5 55t54.5 132q0 78 -54 132.5t-131.5 54.5t-132.5 -55q-16 -16 -16 -41.5t16 -42t42 -16.5q24 0 42 16q21 21 48.5 21t47.5 -20t20 -49q0 -27 -20 -47t-47 -20h-377q-24 0 -41.5 -17t-17.5 -42zM233 1265
q0 -26 17 -43q18 -17 42 -17h733q27 0 47.5 -20.5t20.5 -48.5t-20.5 -47.5t-47.5 -19.5q-29 0 -48 19q-18 16 -43.5 16t-41.5 -16t-16 -42t15 -42q53 -53 134 -53q78 0 132 54t54 131t-54 131.5t-132 54.5h-733q-25 0 -42 -16.5t-17 -40.5zM382 1101q0 8 11 8h100
q9 0 15 -10q24 -57 73.5 -94t110.5 -42l36 -5q14 0 14 -12l5 -36q11 -112 95.5 -189t199.5 -77t200 76t96 190l6 41q0 12 11 12h113q95 0 162 66.5t67 159.5t-67 159.5t-162 66.5h-480q-13 0 -13 12v96q0 12 13 12h480q95 0 174.5 -46t126 -126t46.5 -174t-46.5 -173.5
t-126 -126t-174.5 -46.5h-21q-33 -139 -146 -227.5t-259 -88.5q-147 0 -260.5 91.5t-144.5 234.5q-89 21 -158 85.5t-96 153.5v3q-1 3 -1 6z" />
</svg>
