<?xml version="1.0" standalone="no"?>
<!DOCTYPE svg PUBLIC "-//W3C//DTD SVG 1.1//EN" "http://www.w3.org/Graphics/SVG/1.1/DTD/svg11.dtd" >
<svg xmlns="http://www.w3.org/2000/svg" xmlns:xlink="http://www.w3.org/1999/xlink" version="1.1" width="2048" height="2048" viewBox="-10 0 2058 2048">
   <path fill="currentColor"
d="M197 1478q0 -26 17.5 -42.5t43.5 -16.5h624q24 0 40.5 16.5t16.5 42.5q0 25 -16.5 41.5t-40.5 16.5h-624q-26 0 -43.5 -16.5t-17.5 -41.5zM380 1265q0 -24 19 -41q15 -16 41 -16h625q24 0 40 16.5t16 41t-16 42t-40 17.5h-625q-24 0 -42 -18t-18 -42zM423 1103
q0 10 12 10h99q9 0 16 -10q23 -57 72 -94t110 -41l38 -5q11 0 11 -12l5 -36q12 -114 97 -189.5t199 -75.5t197.5 74.5t97.5 188.5l5 41q0 11 12 11h112q94 0 161 66.5t67 160.5q0 92 -68 159.5t-160 67.5h-479q-12 0 -12 11v93q0 13 12 13h479q70 0 134.5 -27t110 -73.5
t73 -110t27.5 -133.5q0 -93 -46 -172.5t-125.5 -125.5t-173.5 -46h-22q-34 -140 -146 -229t-256 -89q-148 0 -261.5 92.5t-144.5 235.5q-90 20 -157.5 84.5t-94.5 154.5v1q-1 3 -1 5zM502 1693q0 -26 19 -42q15 -16 41 -16h625q25 0 42.5 16.5t17.5 41.5t-18 42.5t-42 17.5
h-625q-24 0 -42 -17.5t-18 -42.5z" />
</svg>
