<?xml version="1.0" standalone="no"?>
<!DOCTYPE svg PUBLIC "-//W3C//DTD SVG 1.1//EN" "http://www.w3.org/Graphics/SVG/1.1/DTD/svg11.dtd" >
<svg xmlns="http://www.w3.org/2000/svg" xmlns:xlink="http://www.w3.org/1999/xlink" version="1.1" width="2048" height="2048" viewBox="-10 0 2058 2048">
   <path fill="currentColor"
d="M252 1239q0 -104 64.5 -184.5t165.5 -103.5q27 -122 124 -200t223 -78q123 0 220 76t126 194h18q123 0 209.5 86.5t86.5 209t-86.5 209.5t-209.5 87h-645q-60 0 -115 -23.5t-94.5 -63t-63 -94.5t-23.5 -115zM353 1239q0 79 57.5 136t137.5 57h645q81 0 138.5 -57
t57.5 -136.5t-57.5 -136t-138.5 -56.5h-96q-10 0 -10 -11l-5 -34q-10 -98 -82 -163t-170.5 -65t-171.5 65.5t-82 162.5l-4 30q0 10 -11 10l-32 5q-75 6 -125.5 61.5t-50.5 131.5zM968 633q-10 9 5 14q45 20 75 38q12 4 16 -1q63 -60 147 -60t145.5 56t68.5 139l7 44h98
q68 0 117 48.5t49 116.5q0 62 -43 108.5t-106 53.5q-11 0 -11 11v79q0 11 11 11q104 -7 176.5 -83t72.5 -180q0 -111 -78 -188.5t-188 -77.5h-10q-27 -105 -114 -172t-195 -67q-147 0 -243 110z" />
</svg>
