<?xml version="1.0" standalone="no"?>
<!DOCTYPE svg PUBLIC "-//W3C//DTD SVG 1.1//EN" "http://www.w3.org/Graphics/SVG/1.1/DTD/svg11.dtd" >
<svg xmlns="http://www.w3.org/2000/svg" xmlns:xlink="http://www.w3.org/1999/xlink" version="1.1" width="2048" height="2048" viewBox="-10 0 2058 2048">
   <path fill="currentColor"
d="M164 1478q0 -25 17.5 -42t43.5 -17h1297q26 0 42.5 16.5t16.5 42.5q0 25 -17 41t-42 16h-1297q-26 0 -43.5 -16t-17.5 -41zM345 1260q0 -25 19 -42q15 -15 41 -15h1298q24 0 40 16.5t16 40.5q0 25 -16 42t-40 17h-1298q-25 0 -42.5 -17.5t-17.5 -41.5zM354 1095q0 9 11 9
h100q6 0 13 -11q25 -54 74 -88.5t108 -39.5l39 -5q11 0 11 -13l5 -34q11 -113 95.5 -188t197.5 -75t196.5 74t95.5 186l5 40q0 12 14 12h111q67 0 122 35.5t82 95.5q7 11 14 11h100q12 0 9 -16q-30 -107 -120.5 -174.5t-206.5 -67.5h-23q-34 -139 -145 -227.5t-254 -88.5
q-146 0 -259.5 91.5t-145.5 234.5q-88 20 -155 83.5t-93 151.5v-3q-1 2 -1 7zM467 1692q0 -25 18 -42q15 -15 41 -15h1299q25 0 42 16t17 41q0 24 -17.5 41.5t-41.5 17.5h-1299q-24 0 -41.5 -17.5t-17.5 -41.5z" />
</svg>
