<?xml version="1.0" standalone="no"?>
<!DOCTYPE svg PUBLIC "-//W3C//DTD SVG 1.1//EN" "http://www.w3.org/Graphics/SVG/1.1/DTD/svg11.dtd" >
<svg xmlns="http://www.w3.org/2000/svg" xmlns:xlink="http://www.w3.org/1999/xlink" version="1.1" width="2048" height="2048" viewBox="-10 0 2058 2048">
   <path fill="currentColor"
d="M304 1190q0 139 97 239t236 106q12 0 12 -12v-93q0 -11 -12 -11q-89 -5 -151.5 -71.5t-62.5 -157.5q0 -86 58.5 -149.5t145.5 -74.5l37 -2q13 0 13 -13l4 -37q11 -113 95.5 -188.5t198.5 -75.5t198.5 75.5t96.5 188.5l5 41q0 11 12 11h112q93 0 160.5 66.5t67.5 157.5
t-62.5 157.5t-151.5 71.5q-14 0 -14 11v93q0 12 14 12q91 -2 167 -49t120 -125.5t44 -170.5q0 -93 -46.5 -171.5t-125.5 -123.5t-173 -45h-22q-34 -140 -146.5 -228.5t-255.5 -88.5q-146 0 -260.5 91t-145.5 233q-116 27 -190.5 120.5t-74.5 212.5zM683 1691q9 22 31 32
q21 10 43.5 1t31.5 -31q10 -23 1.5 -45t-31.5 -30q-21 -11 -43 -2t-32 33q-10 16 -1 42zM726 1495q0 16 11 31.5t32 22.5q20 12 43 1t31 -42l62 -235q7 -26 -5 -46.5t-37 -24.5q-8 -2 -17 -2q-17 0 -33 10t-22 31l-62 236q-3 14 -3 18zM856 1883q0 12 4 20q9 23 31 32
q10 5 23 5q6 0 21 -4q23 -9 33 -31.5t-0.5 -45.5t-31 -32t-43.5 0q-20 9 -28.5 25t-8.5 31zM907 1702q0 38 43 51q12 2 17 2q16 0 27 -5q22 -8 29 -40l116 -437q7 -25 -4 -45t-34 -26q-9 -2 -19 -2q-17 0 -33.5 10t-20.5 31l-119 440q-2 14 -2 21zM1145 1670q0 12 5 22
q9 20 31 31q12 4 24 4q7 0 21 -4q22 -8 32 -30q8 -23 -0.5 -44t-29.5 -31q-24 -11 -45.5 -2t-32.5 33q-5 9 -5 21zM1195 1491q0 15 11.5 31.5t31.5 23.5q16 3 19 3q9 0 25 -7q21 -10 28 -37l63 -232q2 -17 2 -18q0 -16 -11 -32t-32 -21q-9 -2 -18 -2q-17 0 -32.5 10
t-21.5 31l-63 233z" />
</svg>
