<?xml version="1.0" standalone="no"?>
<!DOCTYPE svg PUBLIC "-//W3C//DTD SVG 1.1//EN" "http://www.w3.org/Graphics/SVG/1.1/DTD/svg11.dtd" >
<svg xmlns="http://www.w3.org/2000/svg" xmlns:xlink="http://www.w3.org/1999/xlink" version="1.1" width="2048" height="2048" viewBox="-10 0 2058 2048">
   <path fill="currentColor"
d="M536 1719h27l478 -708q10 -19 -10 -19h-197l207 -378q10 -19 -13 -19h-265q-11 0 -20 12l-193 514q-2 19 13 19h191zM1127 1279h19l363 -533q5 -8 2.5 -13.5t-11.5 -5.5h-146l151 -280q13 -21 -12 -21h-190q-14 0 -21 13l-145 381q-3 9 1 14.5t13 5.5h142z" />
</svg>
