<?xml version="1.0" standalone="no"?>
<!DOCTYPE svg PUBLIC "-//W3C//DTD SVG 1.1//EN" "http://www.w3.org/Graphics/SVG/1.1/DTD/svg11.dtd" >
<svg xmlns="http://www.w3.org/2000/svg" xmlns:xlink="http://www.w3.org/1999/xlink" version="1.1" width="2048" height="2048" viewBox="-10 0 2058 2048">
   <path fill="currentColor"
d="M304 1194q0 138 97 237.5t236 104.5q12 0 12 -12v-92q0 -13 -12 -13q-88 -4 -151.5 -70.5t-63.5 -154.5q0 -87 59 -152t146 -72l36 -5q13 0 13 -12l6 -35q10 -114 94.5 -191t198.5 -77q113 0 198 76.5t97 188.5l5 40q0 13 13 13h111q94 0 161 67t67 159q0 88 -63 154.5
t-151 70.5q-14 0 -14 13v92q0 12 14 12q138 -5 234.5 -104t96.5 -238q0 -93 -46.5 -172t-126 -125t-172.5 -46h-22q-34 -139 -146 -228t-256 -89q-146 0 -260 91t-146 232q-117 30 -191 123t-74 214zM680 1682q0 18 11.5 35.5t33.5 24.5q24 7 44 -3t27 -39l10 -42
q5 -24 -6.5 -44.5t-35.5 -27.5t-45 5.5t-28 36.5l-9 41q-2 4 -2 13zM733 1481q0 22 18 40q16 17 39 17q25 0 41.5 -16.5t16.5 -40.5t-16.5 -40.5t-41.5 -16.5q-24 0 -40.5 16t-16.5 41zM775 1323q-1 16 10 31.5t33 22.5q22 6 43.5 -5t28.5 -36l20 -62q7 -26 -5 -45.5
t-38 -26.5q-23 -8 -44 4t-28 35l-17 63q0 2 -1.5 8.5t-1.5 10.5zM856 1899q0 19 11 35t34 23q8 2 17 2q44 0 55 -43l10 -41q6 -26 -6.5 -47t-36.5 -26q-22 -7 -43.5 5t-28.5 36l-10 41q-2 9 -2 15zM910 1697q0 23 18 41q17 17 40 17q24 0 40.5 -16.5t16.5 -41.5
q0 -24 -16.5 -40t-41 -16t-41 16t-16.5 40zM954 1540q-1 15 9.5 32t30.5 21q24 7 44.5 -3.5t28.5 -39.5l19 -62q7 -23 -5 -44t-36 -28q-23 -7 -44.5 5.5t-28.5 36.5l-16 63q-2 8 -2 19zM1146 1689q0 17 10.5 33t32.5 23q3 0 9 1.5t9 1.5q43 0 53 -46l10 -42
q7 -22 -4.5 -43.5t-35.5 -28.5q-26 -7 -47 5.5t-28 36.5l-7 41q0 3 -1 9t-1 9zM1197 1484q0 23 18 39q15 17 39 17q25 0 41.5 -16t16.5 -40q0 -25 -16.5 -41.5t-41 -16.5t-41 16.5t-16.5 41.5zM1239 1323q0 17 11.5 33t34.5 23q2 0 8.5 1t9.5 1q11 0 25 -6q22 -12 29 -37
l17 -62q6 -24 -5.5 -44.5t-35.5 -27.5t-44 4t-27 35l-20 63q0 3 -1.5 8.5t-1.5 8.5z" />
</svg>
