<?xml version="1.0" standalone="no"?>
<!DOCTYPE svg PUBLIC "-//W3C//DTD SVG 1.1//EN" "http://www.w3.org/Graphics/SVG/1.1/DTD/svg11.dtd" >
<svg xmlns="http://www.w3.org/2000/svg" xmlns:xlink="http://www.w3.org/1999/xlink" version="1.1" width="2048" height="2048" viewBox="-10 0 2058 2048">
   <path fill="currentColor"
d="M303 1192q0 117 68 208t177 124q9 2 17 -5l81 -100q-92 0 -158 -66.5t-66 -160.5q0 -88 58.5 -152.5t146.5 -71.5l36 -5q11 0 11 -9l5 -39q13 -114 97 -189.5t198 -75.5q115 0 200 76t95 189l5 41q3 12 15 12h113q94 0 159.5 65.5t65.5 158.5q0 87 -58.5 152t-143.5 75
q-13 0 -34 4q-20 2 -29 16l-164 194q-15 19 -11.5 43.5t21.5 39.5q11 13 40 13q27 0 42 -24l147 -169q130 -13 219 -112t89 -232q0 -70 -27 -134t-73 -110t-109.5 -73t-133.5 -27h-22q-35 -138 -148 -226.5t-258 -88.5q-97 0 -183 41.5t-144.5 115.5t-78.5 168
q-117 26 -191 119.5t-74 214.5zM538 1750q0 6 4 20q9 23 30 31q23 10 46.5 1t32.5 -31q10 -23 1 -45t-32 -30q-23 -11 -44.5 -2t-32.5 33q-5 11 -5 23zM666 1580v7q2 24 21 39q24 13 43 13q24 0 42 -22l162 -193q15 -18 14 -45q-3 -22 -19.5 -37t-36.5 -15h-9q-25 5 -39 23
l-165 193q-13 15 -13 37zM720 1907.5q0 12.5 5 22.5q8 22 31 33q11 5 22 5q13 0 22 -5q24 -10 32 -29q11 -23 2 -46.5t-31 -31.5q-23 -11 -46.5 -1.5t-31.5 31.5q-5 9 -5 21.5zM836 1745v8q2 23 21 38t39 15q23 0 43 -23l303 -364q11 -13 11 -36v-8q-2 -24 -18.5 -37.5
t-36.5 -13.5h-9q-24 1 -39 22l-302 361q-12 18 -12 38zM1080 1825q0 9 4 21q9 23 32 33q14 3 21 3q15 0 24 -5q23 -9 32 -29q10 -18 1 -46q-8 -22 -31 -31l-24 -6q-9 1 -22 5q-23 8 -32 30q-5 13 -5 25z" />
</svg>
