<?xml version="1.0" standalone="no"?>
<!DOCTYPE svg PUBLIC "-//W3C//DTD SVG 1.1//EN" "http://www.w3.org/Graphics/SVG/1.1/DTD/svg11.dtd" >
<svg xmlns="http://www.w3.org/2000/svg" xmlns:xlink="http://www.w3.org/1999/xlink" version="1.1" width="2048" height="2048" viewBox="-10 0 2058 2048">
   <path fill="currentColor"
d="M304 1191q0 -120 75 -213.5t189 -120.5q33 -142 147 -233t260 -91q144 0 256.5 89t145.5 228h23q93 0 172.5 45.5t125.5 124t46 171.5q0 91 -44 169.5t-120 125.5t-167 50q-13 0 -13 -12v-92q0 -13 13 -13q89 -4 152 -70.5t63 -157t-68 -157.5t-160 -67h-112
q-13 0 -13 -12l-5 -40q-12 -113 -97 -189t-198 -76q-114 0 -198 76t-95 189l-5 37q0 13 -14 13l-36 2q-87 10 -146 74t-59 150q0 91 62.5 157.5t152.5 70.5q11 0 11 13v92q0 12 -11 12q-140 -7 -236.5 -106.5t-96.5 -238.5zM676 1656q0 -5 2 -14l114 -401q6 -20 22 -30.5
t32 -10.5q8 0 17 2q25 5 38 25.5t5 46.5l-113 398q-13 44 -57 44q-4 0 -8 -1q-6 -2 -7 -2q-23 -6 -34 -23t-11 -34zM858 1851l170 -610q4 -20 20.5 -30.5t33.5 -10.5q9 0 19 2q23 7 34 27.5t5 44.5l-169 610q-4 18 -20.5 30.5t-34.5 12.5q-10 0 -18 -3q-21 -6 -36 -28
q-12 -18 -4 -45zM1145 1658q0 -4 2 -16l114 -401q6 -20 21 -30.5t32 -10.5q9 0 19 2q21 6 32 21.5t11 32.5q0 4 -1.5 10t-1.5 8l-113 398q-4 20 -20 32t-35 12l-17 -3q-21 -6 -32 -22.5t-11 -32.5z" />
</svg>
