<?xml version="1.0" standalone="no"?>
<!DOCTYPE svg PUBLIC "-//W3C//DTD SVG 1.1//EN" "http://www.w3.org/Graphics/SVG/1.1/DTD/svg11.dtd" >
<svg xmlns="http://www.w3.org/2000/svg" xmlns:xlink="http://www.w3.org/1999/xlink" version="1.1" width="2048" height="2048" viewBox="-10 0 2058 2048">
   <path fill="currentColor"
d="M301 1192q0 -120 76 -214t193 -121q31 -143 144.5 -235t260.5 -92q145 0 258.5 88.5t147.5 229.5h24q93 0 172 46t124.5 125.5t45.5 172.5q0 140 -95.5 239.5t-234.5 104.5q-12 0 -12 -12v-93q0 -12 12 -12q88 -7 150.5 -72.5t62.5 -154.5q0 -93 -66.5 -160t-158.5 -67
h-114q-12 0 -15 -12l-5 -40q-7 -74 -48.5 -134.5t-106.5 -94.5t-141 -34q-115 0 -199 75.5t-95 189.5l-5 38q0 9 -11 9l-37 6q-87 7 -146 71.5t-59 152.5q0 91 61.5 156.5t150.5 70.5q12 0 12 12v93q0 12 -12 12q-68 -3 -130 -31t-107 -74t-71 -108t-26 -131zM678 1663
q0 -3 1.5 -9t1.5 -8l19 -72q7 -23 27.5 -35t44.5 -5q23 7 35.5 27.5t5.5 44.5l-17 71q-14 45 -53 45h-6t-8 -1t-7 -1q-22 -6 -33 -23.5t-11 -33.5zM770 1328q0 -3 1 -8t1 -6l21 -73q6 -21 21.5 -31.5t32.5 -10.5q3 0 6 0.5t6.5 1t5.5 0.5q23 7 35.5 27.5t4.5 44.5l-17 70
q-7 29 -27.5 41t-45.5 1q-22 -6 -33.5 -23t-11.5 -34zM855 1881q0 -4 1.5 -9.5t1.5 -7.5l20 -70q7 -24 28 -37t45 -6q23 8 35 29t5 45l-18 72q-11 43 -55 43q-5 0 -17 -3q-23 -4 -34.5 -21t-11.5 -35zM948 1549q0 -6 3 -18l19 -71q7 -24 28 -36t46 -5q23 7 34.5 27.5
t4.5 44.5l-17 70q-13 46 -50 46q-5 0 -22 -3q-23 -5 -34.5 -21t-11.5 -34zM1145 1665q0 -7 2 -16l19 -70q7 -24 28.5 -37t43.5 -6q24 7 37 28t6 44l-20 74q-10 42 -55 42q-9 0 -18 -2q-21 -4 -32 -21t-11 -36zM1240 1334q0 -3 4 -18l20 -71q4 -23 20.5 -33.5t34.5 -9.5
q4 0 16 2q23 5 36 27q13 17 6 45l-17 71q-14 45 -53 45q-7 0 -24 -3q-21 -7 -32 -22.5t-11 -32.5z" />
</svg>
