<?xml version="1.0" standalone="no"?>
<!DOCTYPE svg PUBLIC "-//W3C//DTD SVG 1.1//EN" "http://www.w3.org/Graphics/SVG/1.1/DTD/svg11.dtd" >
<svg xmlns="http://www.w3.org/2000/svg" xmlns:xlink="http://www.w3.org/1999/xlink" version="1.1" width="2048" height="2048" viewBox="-10 0 2058 2048">
   <path fill="currentColor"
d="M304 1194q0 -121 74 -214.5t190 -122.5q33 -142 146.5 -233t260.5 -91q144 0 256.5 89t145.5 228h23q93 0 172.5 46t125.5 125.5t46 172.5q0 138 -96.5 237.5t-234.5 104.5q-13 0 -13 -12v-92q0 -13 13 -13q89 -4 152 -70.5t63 -154.5q0 -93 -67.5 -160t-160.5 -67h-112
q-13 0 -13 -12l-5 -40q-12 -113 -97 -189t-198 -76q-114 0 -198.5 76.5t-95.5 190.5l-4 35q0 13 -14 13l-36 5q-87 7 -146 71.5t-59 152.5t63 154.5t152 70.5q11 0 11 13v92q0 12 -11 12q-140 -5 -236.5 -104.5t-96.5 -237.5zM746 1477q0 -24 16.5 -41t41 -17t41 17t16.5 41
t-16.5 41.5t-41 17.5t-41 -17.5t-16.5 -41.5zM746 1728.5q0 -24.5 17 -41.5q16 -16 40.5 -16t41 16.5t16.5 41t-16.5 41t-41 16.5t-41 -16.5t-16.5 -41zM968 1611q0 -24 17 -43q17 -17 40 -17q24 0 42 18t18 42t-17.5 41t-42.5 17q-23 0 -40 -17t-17 -41zM968 1359
q0 -24 17 -41q18 -17 40 -17q25 0 42.5 17t17.5 41t-17.5 41t-42.5 17q-23 0 -40 -17t-17 -41zM968 1865q0 -24 17 -42q17 -17 40 -17q25 0 42.5 17.5t17.5 41.5t-17.5 40.5t-42.5 16.5q-23 0 -40 -16.5t-17 -40.5zM1192 1477q0 -23 17.5 -40.5t41.5 -17.5t40.5 17t16.5 41
t-16.5 41.5t-40.5 17.5q-25 0 -42 -17.5t-17 -41.5zM1192 1729q0 -23 17 -42q17 -16 42 -16t41 16.5t16 41t-16 41t-41 16.5t-42 -16.5t-17 -40.5z" />
</svg>
