<?xml version="1.0" standalone="no"?>
<!DOCTYPE svg PUBLIC "-//W3C//DTD SVG 1.1//EN" "http://www.w3.org/Graphics/SVG/1.1/DTD/svg11.dtd" >
<svg xmlns="http://www.w3.org/2000/svg" xmlns:xlink="http://www.w3.org/1999/xlink" version="1.1" width="2048" height="2048" viewBox="-10 0 2058 2048">
   <path fill="currentColor"
d="M304 1191q0 -120 75 -213.5t190 -120.5q31 -142 145.5 -232.5t261.5 -90.5q143 0 255 88.5t147 227.5h21q94 0 173 45.5t125.5 124t46.5 171.5q0 140 -96 240t-235 105q-14 0 -14 -12v-92q0 -13 14 -13q89 -4 151.5 -70.5t62.5 -157t-67.5 -157.5t-160.5 -67h-111
q-13 0 -13 -12l-5 -40q-11 -112 -96 -188.5t-198 -76.5q-114 0 -199 76t-96 189l-4 38q0 12 -13 12l-37 2q-85 4 -144.5 69.5t-59.5 154.5q0 91 62.5 157.5t151.5 70.5q12 0 12 13v92q0 12 -12 12q-139 -7 -236 -106.5t-97 -238.5zM716 1252q0 -25 25.5 -68.5t47.5 -69.5
q22 -25 26 -30l25 28q27 29 50 71t23 69q0 41 -28 68.5t-70 27.5q-41 0 -70 -28t-29 -68zM923 1529q0 -28 16.5 -66t40.5 -71q19 -27 46.5 -58.5t41.5 -45.5q7 -6 17 -16l17 16q39 35 89 102q25 34 41 72t16 67q0 67 -47 114.5t-116 47.5q-67 0 -114.5 -47t-47.5 -115z
M1025 1067q0 -44 68 -112l17 18q18 22 33 49t15 45q0 26 -19 45.5t-46 19.5q-28 0 -48 -19.5t-20 -45.5z" />
</svg>
