<?xml version="1.0" standalone="no"?>
<!DOCTYPE svg PUBLIC "-//W3C//DTD SVG 1.1//EN" "http://www.w3.org/Graphics/SVG/1.1/DTD/svg11.dtd" >
<svg xmlns="http://www.w3.org/2000/svg" xmlns:xlink="http://www.w3.org/1999/xlink" version="1.1" width="2048" height="2048" viewBox="-10 0 2058 2048">
   <path fill="currentColor"
d="M303 1191q0 115 68.5 206.5t178.5 124.5l-45 117q-3 15 10 15h148l-73 262h20l276 -363q3 -4 0.5 -9t-9.5 -5h-151l172 -322q6 -15 -10 -15h-204q-10 0 -16 10l-75 199q-74 -19 -122.5 -80.5t-48.5 -139.5q0 -87 58.5 -150.5t145.5 -73.5l37 -5q13 0 13 -12l6 -36
q10 -113 94.5 -189t198.5 -76q113 0 198 76t98 189l4 41q0 12 13 12h112q94 0 161 66t67 158q0 89 -62 153.5t-153 71.5q-13 0 -13 13v95q0 12 13 12q68 -2 129.5 -30.5t106 -74.5t70.5 -109t26 -131q0 -94 -46.5 -173t-126 -125t-172.5 -46h-23q-34 -139 -146 -227
t-256 -88q-147 0 -261.5 91.5t-145.5 233.5q-115 27 -190 120.5t-75 213.5zM870 1877q0 16 10.5 32t32.5 22q14 4 17 4q10 0 27 -8q22 -9 29 -36l19 -73q7 -23 -5 -44t-37 -28q-23 -6 -44 6t-28 37l-19 69q-2 18 -2 19zM963 1545q0 15 11 30.5t31 22.5q24 8 45 -3t28 -36
l21 -73q6 -23 -6.5 -44t-36.5 -28t-45.5 5.5t-28.5 36.5l-17 70q-2 18 -2 19zM1159 1660q0 17 11.5 34.5t33.5 24.5q2 0 7.5 1.5t8.5 1.5q13 0 26 -6q19 -7 29 -39l17 -71q7 -24 -4.5 -46t-34.5 -29q-26 -6 -47 6t-26 37l-19 72q-2 6 -2 14zM1254 1327q-1 16 10 32.5
t34 25.5q8 4 18 4q11 0 24 -6q21 -10 30 -39l21 -72q1 -14 1 -15q0 -18 -11 -34.5t-34 -22.5q-3 0 -8 -1.5t-8 -1.5q-17 0 -33.5 10.5t-22.5 33.5l-19 71q-2 7 -2 15z" />
</svg>
