<?xml version="1.0" standalone="no"?>
<!DOCTYPE svg PUBLIC "-//W3C//DTD SVG 1.1//EN" "http://www.w3.org/Graphics/SVG/1.1/DTD/svg11.dtd" >
<svg xmlns="http://www.w3.org/2000/svg" xmlns:xlink="http://www.w3.org/1999/xlink" version="1.1" width="2048" height="2048" viewBox="-10 0 2058 2048">
   <path fill="currentColor"
d="M303 1191q0 115 69 206.5t179 124.5l-46 117q-3 15 10 15h148l-68 299h19l273 -400q3 -4 0.5 -9t-10.5 -5h-151l172 -322q7 -15 -10 -15h-204q-10 0 -16 10l-75 199q-74 -19 -123 -80.5t-49 -139.5q0 -87 59 -150.5t147 -74.5l36 -4q14 0 14 -13l4 -35q11 -113 95.5 -189
t198.5 -76t199 76t97 189l5 41q0 11 12 11h111q95 0 162 66.5t67 158.5q0 89 -62 153.5t-153 72.5q-14 0 -14 12v95q0 12 14 12q139 -5 235.5 -105t96.5 -240q0 -94 -46 -173t-126 -125t-174 -46h-21q-35 -139 -147.5 -227t-255.5 -88q-147 0 -261 91.5t-146 233.5
q-115 27 -190 120.5t-75 213.5zM869 1866q0 41 40 54q2 0 8.5 1t9.5 1q18 0 34.5 -10.5t22.5 -33.5l156 -604q7 -25 -4.5 -45t-34.5 -27l-18 -2q-17 0 -33 10t-22 31l-157 606q-2 9 -2 19zM1158 1653q0 14 7 26q14 23 35 31q11 3 21 3t22 -5q21 -9 29 -40l101 -394
q3 -15 3 -19q0 -16 -11 -31.5t-32 -21.5l-18 -2q-18 0 -33 10t-21 31l-101 396q0 2 -1 7.5t-1 8.5z" />
</svg>
