<?xml version="1.0" standalone="no"?>
<!DOCTYPE svg PUBLIC "-//W3C//DTD SVG 1.1//EN" "http://www.w3.org/Graphics/SVG/1.1/DTD/svg11.dtd" >
<svg xmlns="http://www.w3.org/2000/svg" xmlns:xlink="http://www.w3.org/1999/xlink" version="1.1" width="2048" height="2048" viewBox="-10 0 2058 2048">
   <path fill="currentColor"
d="M304 1093q0 -24 16.5 -39.5t39.5 -15.5h840q23 0 38 15.5t15 39.5q0 23 -15 37.5t-38 14.5h-840q-23 0 -39.5 -14.5t-16.5 -37.5zM472 891.5q0 -22.5 17 -38.5q15 -16 39 -16h840q23 0 38 16t15 38.5t-15 38.5t-38 16h-840q-23 0 -39.5 -16t-16.5 -38.5zM584 1290
q0 -22 17 -38q15 -15 38 -15h841q24 0 39.5 15t15.5 38t-16 39.5t-39 16.5h-841q-23 0 -39 -16.5t-16 -39.5zM1320 1093q0 -24 15.5 -39.5t39.5 -15.5h314q24 0 39.5 15.5t15.5 39.5q0 23 -16 37.5t-39 14.5h-314q-24 0 -39.5 -14.5t-15.5 -37.5z" />
</svg>
