<?xml version="1.0" standalone="no"?>
<!DOCTYPE svg PUBLIC "-//W3C//DTD SVG 1.1//EN" "http://www.w3.org/Graphics/SVG/1.1/DTD/svg11.dtd" >
<svg xmlns="http://www.w3.org/2000/svg" xmlns:xlink="http://www.w3.org/1999/xlink" version="1.1" width="2048" height="2048" viewBox="-10 0 2058 2048">
   <path fill="currentColor"
d="M188 1476.5q0 24.5 19 41.5q18 18 43 18h398q28 0 48.5 20t20.5 47q0 28 -20.5 48t-48.5 20q-26 0 -47 -21q-19 -16 -43 -16t-41 16.5t-17 41.5q0 24 17 42q54 55 131 55t131.5 -54.5t54.5 -131.5t-54.5 -131.5t-131.5 -54.5h-398q-25 0 -43.5 17.5t-18.5 42zM188 1267
q0 22 19 40q18 17 43 17h753q77 0 131.5 -54t54.5 -131t-54.5 -130.5t-131.5 -53.5q-79 0 -131 52q-16 17 -16 43t16 41.5t41 15.5t43 -16q19 -19 47 -19q27 0 47.5 19.5t20.5 47.5q0 27 -20.5 47.5t-47.5 20.5h-753q-25 0 -43.5 18t-18.5 42zM364 1103q0 9 11 9h99
q9 0 15 -10q24 -57 73 -93.5t110 -41.5l36 -5q13 0 13 -12l6 -36q11 -113 95.5 -188.5t198.5 -75.5t198.5 75.5t96.5 188.5l4 41q0 12 13 12h113q94 0 160.5 66t66.5 158.5t-66.5 159t-160.5 66.5h-480q-12 0 -12 12v95q0 12 12 12h480q93 0 172 -46.5t125.5 -126
t46.5 -172.5q0 -92 -48 -172q77 -74 105 -179l11 -47q2 -2 2 -5q0 -5 -10 -11l-42 -15q-87 -26 -133 -94t-46 -140q0 -26 7 -55l9 -43q2 -10 -9 -16l-56 -17q-45 -11 -87 -11q-38 0 -77.5 9.5t-82 28.5t-82 55t-69.5 85q-74 -31 -161 -31q-147 0 -260 91t-144 233
q-89 21 -157.5 85.5t-94.5 152.5v2q-1 2 -1 6zM1283 624q33 -57 90 -87.5t119 -30.5q14 0 21 1q-1 9 -1 25q0 98 54.5 188t151.5 135q-17 39 -52 72q-93 -80 -220 -80h-23q-28 -131 -140 -223z" />
</svg>
