<?xml version="1.0" standalone="no"?>
<!DOCTYPE svg PUBLIC "-//W3C//DTD SVG 1.1//EN" "http://www.w3.org/Graphics/SVG/1.1/DTD/svg11.dtd" >
<svg xmlns="http://www.w3.org/2000/svg" xmlns:xlink="http://www.w3.org/1999/xlink" version="1.1" width="2048" height="2048" viewBox="-10 0 2058 2048">
   <path fill="currentColor"
d="M145 1478q0 25 17.5 41.5t43.5 16.5h653q25 0 41.5 -16.5t16.5 -41.5q0 -26 -16.5 -42.5t-41.5 -16.5h-653q-26 0 -43.5 17t-17.5 42zM328 1267q0 24 18 41q17 18 42 18h655q24 0 40.5 -17.5t16.5 -41.5t-16.5 -41t-40.5 -17h-655q-25 0 -42.5 17t-17.5 41zM400 1104
q0 10 12 10h100q9 0 15 -10q24 -57 72.5 -94t109.5 -42l38 -5q13 0 13 -12l4 -36q11 -113 96 -189t200 -76q114 0 197.5 75t97.5 189l6 40q0 12 12 12h112q94 0 160.5 66.5t66.5 159.5q0 92 -67 159.5t-160 67.5h-480q-12 0 -12 12v93q0 12 12 12h480q94 0 173.5 -45.5
t125.5 -125t46 -173t-45 -172.5q75 -67 105 -179l13 -47v-5q0 -8 -10 -11l-43 -15q-46 -14 -81 -40t-55.5 -58t-30.5 -65.5t-10 -65.5q0 -25 7 -61l10 -42q4 -10 -10 -16l-57 -17q-45 -11 -87 -11q-39 0 -78.5 9t-82 28.5t-82 55.5t-68.5 85q-81 -33 -165 -33
q-147 0 -261 91.5t-144 234.5q-91 21 -159 85t-95 154v2q-1 1 -1 5zM450 1694q0 26 18 42q17 17 42 17h655q25 0 42.5 -17.5t17.5 -41.5t-17.5 -40.5t-42.5 -16.5h-655q-25 0 -42.5 16.5t-17.5 40.5zM1325 626q36 -57 93.5 -88.5t117.5 -30.5q12 0 18 1v17q0 101 55 193.5
t151 137.5q-18 42 -53 74q-92 -82 -222 -82h-22q-26 -125 -138 -222z" />
</svg>
