<?xml version="1.0" standalone="no"?>
<!DOCTYPE svg PUBLIC "-//W3C//DTD SVG 1.1//EN" "http://www.w3.org/Graphics/SVG/1.1/DTD/svg11.dtd" >
<svg xmlns="http://www.w3.org/2000/svg" xmlns:xlink="http://www.w3.org/1999/xlink" version="1.1" width="2048" height="2048" viewBox="-10 0 2058 2048">
   <path fill="currentColor"
d="M266 1191q0 139 97 238.5t236 106.5q13 0 13 -12v-93q0 -12 -13 -12q-89 -4 -151.5 -70.5t-62.5 -157.5q0 -87 58.5 -150.5t145.5 -74.5l37 -2q14 0 14 -12l5 -38q11 -113 95.5 -189t198.5 -76q112 0 197.5 76t97.5 189l5 41q0 11 12 11h112q92 0 160 67t68 158
t-62.5 157.5t-151.5 70.5q-14 0 -14 12v93q0 12 14 12q138 -5 234.5 -105t96.5 -240q0 -89 -45 -167q82 -78 108 -182l9 -48q2 -1 2 -4q0 -8 -11 -11l-39 -12q-60 -18 -102 -59t-59.5 -86.5t-17.5 -91.5q-1 -26 5 -55l10 -40q3 -10 -10 -15l-55 -18q-44 -13 -91 -13
q-37 0 -75.5 9t-81 28t-82.5 55t-70 85q-78 -34 -164 -34q-148 0 -262 91.5t-146 233.5q-115 27 -190 120.5t-75 213.5zM647 1680q9 22 32 31q20 11 42.5 2t31.5 -31q10 -23 1.5 -45t-30.5 -31q-21 -10 -43.5 -1t-32.5 32q-10 16 -1 43zM690 1483q0 16 11.5 31.5t31.5 21.5
q27 11 47 0t28 -39l61 -223q7 -26 -5.5 -46.5t-37.5 -25.5q-23 -8 -44 4t-28 35l-61 224q0 2 -1.5 8.5t-1.5 9.5zM820 1872q0 13 4 20q9 23 31 32q10 5 23 5q7 0 21 -4q23 -9 33.5 -31.5t0 -45.5t-31 -32t-43.5 0q-20 8 -29 24.5t-9 31.5zM872 1688q0 39 44 54q10 3 16 3
q12 0 24 -6q24 -8 33 -40l114 -425q7 -25 -4.5 -45t-34.5 -27q-24 -8 -45.5 4t-27.5 35l-117 429q-2 12 -2 18zM1111 1659q0 13 4 21q9 21 31 31q12 5 24 5q6 0 21 -4q23 -9 31 -30q9 -23 0.5 -44t-29.5 -32q-22 -10 -44.5 -1.5t-33.5 32.5q-4 8 -4 22zM1161 1481
q0 17 10.5 32t31.5 21q18 2 19 2q42 0 54 -42l60 -220q7 -25 -4.5 -45t-35.5 -27q-24 -8 -44.5 4t-27.5 35l-61 221q-2 9 -2 19zM1206 629q32 -60 90 -91t122 -30q12 0 18 1v21q0 102 54.5 191.5t150.5 135.5q-20 45 -52 74q-92 -81 -226 -81h-22q-27 -131 -135 -221z" />
</svg>
