<?xml version="1.0" standalone="no"?>
<!DOCTYPE svg PUBLIC "-//W3C//DTD SVG 1.1//EN" "http://www.w3.org/Graphics/SVG/1.1/DTD/svg11.dtd" >
<svg xmlns="http://www.w3.org/2000/svg" xmlns:xlink="http://www.w3.org/1999/xlink" version="1.1" width="2048" height="2048" viewBox="-10 0 2058 2048">
   <path fill="currentColor"
d="M268 1191q0 139 97 238.5t236 106.5q12 0 12 -12v-95q0 -12 -12 -12q-90 -8 -152 -72.5t-62 -153.5q0 -87 59 -152t145 -72l37 -5q14 0 14 -12l5 -36q11 -113 95 -188.5t198 -75.5q113 0 198 75.5t96 188.5l6 41q0 12 12 12h112q95 0 161.5 66t66.5 158q0 89 -62 153.5
t-152 72.5q-14 0 -14 12v95q0 12 14 12q139 -5 235 -105t96 -240q0 -93 -48 -172q84 -76 108 -179l10 -50q1 -1 1 -5q0 -8 -11 -11l-41 -12q-59 -17 -100.5 -57t-59.5 -85.5t-18 -91.5q0 -26 7 -55l10 -43q3 -10 -10 -16l-55 -17q-45 -11 -86 -11q-38 0 -78 9.5t-83 28.5
t-83 55t-70 85q-73 -31 -162 -31q-147 0 -261 91t-146 233q-115 27 -190 120.5t-75 213.5zM801 1514q-5 15 10 15h150l-91 288h20l290 -388q4 -5 2 -9.5t-9 -4.5h-153l160 -293q8 -15 -9 -15h-205q-8 0 -15 10zM1204 628q35 -59 92.5 -90.5t119.5 -31.5q13 0 19 2v21
q0 100 54 189.5t151 136.5q-17 38 -52 74q-96 -82 -224 -82h-22q-29 -130 -138 -219z" />
</svg>
