<?xml version="1.0" standalone="no"?>
<!DOCTYPE svg PUBLIC "-//W3C//DTD SVG 1.1//EN" "http://www.w3.org/Graphics/SVG/1.1/DTD/svg11.dtd" >
<svg xmlns="http://www.w3.org/2000/svg" xmlns:xlink="http://www.w3.org/1999/xlink" version="1.1" width="2048" height="2048" viewBox="-10 0 2058 2048">
   <path fill="currentColor"
d="M264 1192q0 139 97 239t237 105q12 0 12 -12v-93q0 -12 -12 -12q-89 -4 -152.5 -71.5t-63.5 -155.5t59 -153t147 -72l37 -5q14 0 14 -12l4 -35q11 -115 95.5 -191.5t199.5 -76.5q113 0 198.5 76t97.5 189l5 40q0 13 12 13h113q94 0 161.5 67t67.5 160q0 58 -28.5 109
t-78.5 83t-109 35q-13 0 -13 12v93q0 12 13 12q92 -3 168.5 -50t120.5 -124.5t44 -169.5q0 -91 -48 -174q87 -78 110 -183l10 -47q2 -2 2 -5q0 -6 -12 -12l-38 -12q-60 -18 -102.5 -59t-60.5 -86.5t-18 -89.5q-2 -22 7 -57l9 -41q5 -10 -9 -16l-55 -17q-43 -12 -90 -12
q-38 0 -78 9t-83 28.5t-83 56.5t-70 86q-84 -32 -163 -32q-148 0 -262 91.5t-147 234.5q-117 30 -191 123t-74 214zM640 1682q0 18 11.5 35.5t32.5 24.5q24 7 44.5 -3t27.5 -39l10 -42q5 -24 -7 -44.5t-36 -27.5q-23 -7 -44.5 5.5t-27.5 36.5l-10 41q-1 4 -1 13zM693 1481
q0 22 17 40q17 17 39 17q25 0 42 -16.5t17 -40.5t-17 -40.5t-42 -16.5q-24 0 -40 16t-16 41zM735 1323q-1 16 9.5 31.5t33.5 22.5q22 6 43.5 -5t28.5 -36l19 -62q8 -26 -4.5 -45.5t-37.5 -26.5q-23 -8 -44 4t-28 35l-17 63q0 2 -1.5 8.5t-1.5 10.5zM816 1899q0 19 10.5 35
t33.5 23q9 2 18 2q44 0 54 -43l10 -41q7 -26 -5.5 -47t-36.5 -26q-22 -7 -43.5 5t-28.5 36l-10 41q-2 9 -2 15zM870 1697q0 23 17 41q17 17 40 17q25 0 41.5 -16.5t16.5 -41.5q0 -24 -16.5 -40t-41.5 -16t-41 16t-16 40zM914 1540q-2 15 8.5 32t31.5 21q24 7 44 -3.5
t29 -39.5l19 -62q7 -23 -5 -44t-37 -28q-23 -7 -44.5 5.5t-28.5 36.5l-15 63q-2 8 -2 19zM1105 1689q0 17 11 33t32 23q3 0 9.5 1.5t9.5 1.5q42 0 53 -46l10 -42q7 -22 -5 -43.5t-35 -28.5q-26 -7 -47.5 5.5t-28.5 36.5l-6 41q0 3 -1.5 9t-1.5 9zM1157 1484q0 23 17 39
q16 17 40 17q25 0 41 -16t16 -40q0 -25 -16 -41.5t-41 -16.5t-41 16.5t-16 41.5zM1199 1323q0 17 11.5 33t34.5 23q2 0 8.5 1t9.5 1q10 0 25 -6q22 -12 28 -37l17 -62q7 -24 -5 -44.5t-35 -27.5q-24 -7 -44.5 4t-27.5 35l-19 63q0 3 -1.5 8.5t-1.5 8.5zM1204 624
q33 -60 91 -93t120 -32q9 0 20 2v22q-1 103 54 192.5t154 134.5q-20 42 -55 77q-96 -80 -224 -80h-22q-32 -135 -138 -223z" />
</svg>
