<?xml version="1.0" standalone="no"?>
<!DOCTYPE svg PUBLIC "-//W3C//DTD SVG 1.1//EN" "http://www.w3.org/Graphics/SVG/1.1/DTD/svg11.dtd" >
<svg xmlns="http://www.w3.org/2000/svg" xmlns:xlink="http://www.w3.org/1999/xlink" version="1.1" width="2048" height="2048" viewBox="-10 0 2058 2048">
   <path fill="currentColor"
d="M264 1192q0 117 69 209t179 123q9 2 17 -5l78 -98q-91 0 -158 -67.5t-67 -161.5q0 -87 58.5 -150.5t146.5 -71.5l35 -4q13 0 13 -13l5 -38q13 -113 98 -189t199 -76q113 0 198.5 76.5t97.5 188.5l5 41q0 12 12 12h113q92 0 158.5 66.5t66.5 157.5q0 89 -58.5 154.5
t-143.5 72.5q-47 6 -60 20l-163 202q-16 18 -13 43t22 41.5t40 16.5q23 0 44 -26l142 -180q65 -7 122.5 -36.5t98.5 -75t65 -106t24 -126.5q0 -90 -47 -169q84 -77 110 -182v-7l13 -53l-52 -19q-60 -17 -102 -57.5t-60 -85.5t-18 -91q0 -27 6 -56l13 -54l-58 -16
q-1 0 -2.5 -1t-2.5 -1.5t-2.5 -1.5t-2.5 -1q-46 -11 -87 -11q-39 1 -79.5 10t-83.5 28.5t-83.5 56t-69.5 86.5q-79 -34 -163 -34q-148 0 -262 91t-146 233q-118 29 -191.5 122t-73.5 213zM521 1747.5q0 13.5 5 21.5q9 23 29 32q23 10 46.5 1.5t32.5 -30.5q10 -22 0.5 -46
t-31.5 -32q-23 -10 -46 -1.5t-31 31.5q-5 10 -5 23.5zM649 1578v7q2 24 23 39q14 15 38 14.5t46 -21.5l161 -203q14 -18 11.5 -43t-20.5 -40t-43.5 -12.5t-39.5 23.5l-162 198q-14 16 -14 38zM689 1940q9 22 32 31q11 5 23 5q6 0 21 -4q22 -9 30 -30q9 -23 1 -45t-31 -33
q-22 -9 -43 0t-32 30q-11 20 -1 46zM800 1755v6q2 23 22 39.5t39 16.5q23 0 42 -23l300 -373q15 -17 13 -42.5t-21 -40.5q-20 -15 -45.5 -13t-39.5 21l-297 372q-13 17 -13 37zM1044 1832q0 11 5 22q8 24 32 33t43 1q23 -9 32 -32q10 -22 2 -44t-31 -32q-23 -9 -45.5 -0.5
t-32.5 29.5q-5 12 -5 23zM1203 628q32 -60 89.5 -91.5t122.5 -30.5q12 0 18 1v21q0 101 56 191t152 137q-26 48 -55 77q-92 -82 -223 -82h-22q-32 -134 -138 -223z" />
</svg>
