<?xml version="1.0" standalone="no"?>
<!DOCTYPE svg PUBLIC "-//W3C//DTD SVG 1.1//EN" "http://www.w3.org/Graphics/SVG/1.1/DTD/svg11.dtd" >
<svg xmlns="http://www.w3.org/2000/svg" xmlns:xlink="http://www.w3.org/1999/xlink" version="1.1" width="2048" height="2048" viewBox="-10 0 2058 2048">
   <path fill="currentColor"
d="M265 1190q0 139 97 239t236 107q13 0 13 -12v-93q0 -12 -13 -12q-89 -5 -152 -71.5t-63 -157.5q0 -86 59 -150.5t146 -74.5l38 -3q13 0 13 -11l5 -38q11 -113 95.5 -189.5t198.5 -76.5t199 76.5t97 189.5l5 40q0 12 12 12h113q93 0 161 67t68 158t-63 157.5t-152 71.5
q-14 0 -14 12v93q0 12 14 12q139 -5 235.5 -105.5t96.5 -240.5q0 -91 -48 -170q84 -77 110 -182l10 -50q1 -1 1 -5q0 -8 -11 -11l-39 -12q-59 -17 -101.5 -58t-60.5 -86t-18 -89q-2 -23 6 -57l10 -43q5 -10 -10 -17l-54 -16q-47 -11 -88 -11q-40 0 -80 9t-83 28.5
t-83.5 55.5t-69.5 85q-86 -31 -163 -31q-147 0 -261.5 91.5t-146.5 234.5q-116 26 -190.5 120t-74.5 214zM651 1665q0 18 11.5 34.5t34.5 23.5q24 7 44.5 -3t27.5 -39l100 -408q6 -26 -6.5 -47t-36.5 -25q-23 -7 -44 4.5t-28 35.5l-100 409q0 2 -1.5 7t-1.5 8zM832 1879
q0 16 11 32t31 22q12 2 17 2q45 0 56 -41l157 -621q6 -25 -5 -45t-35 -27t-46 5t-27 35l-157 620q0 1 -1 8t-1 10zM1121 1671q0 37 44 52q14 4 21 4q12 0 24 -5q22 -9 27 -41l100 -408q7 -25 -5 -45t-35 -27q-24 -7 -45.5 4.5t-27.5 35.5l-99 409q-4 19 -4 21zM1204 626
q33 -61 90.5 -92.5t122.5 -30.5q12 0 18 1v21q-1 101 54 190.5t154 136.5q-24 48 -55 75q-96 -79 -224 -79h-22q-28 -133 -138 -222z" />
</svg>
