<?xml version="1.0" standalone="no"?>
<!DOCTYPE svg PUBLIC "-//W3C//DTD SVG 1.1//EN" "http://www.w3.org/Graphics/SVG/1.1/DTD/svg11.dtd" >
<svg xmlns="http://www.w3.org/2000/svg" xmlns:xlink="http://www.w3.org/1999/xlink" version="1.1" width="2048" height="2048" viewBox="-10 0 2058 2048">
   <path fill="currentColor"
d="M265 1191q0 139 96.5 238.5t236.5 106.5q11 0 11 -12v-95q0 -12 -11 -12q-91 -8 -153 -72.5t-62 -153.5q0 -86 58.5 -150t146.5 -74l36 -5q14 0 14 -12l5 -36q11 -113 95 -188.5t198 -75.5t198.5 75.5t96.5 188.5l5 41q0 12 12 12h113q93 0 160.5 66t67.5 158
q0 89 -62 153.5t-153 72.5q-13 0 -13 12v95q0 12 13 12q139 -5 235 -105t96 -240q0 -90 -45 -169q85 -76 110 -181v-10l13 -54l-52 -15q-85 -25 -132 -94t-47 -141q0 -27 6 -54l14 -55l-60 -18l-9 -3q-49 -9 -86 -9q-40 0 -80 9t-83.5 28.5t-83.5 55.5t-69 86
q-78 -34 -165 -34q-147 0 -260 91t-144 233q-117 27 -192 120.5t-75 213.5zM640 1662q0 15 10.5 30.5t31.5 23.5q22 7 43.5 -4t29.5 -35l19 -74q7 -22 -5 -43.5t-35 -28.5q-24 -6 -45.5 6t-29.5 37l-16 69q-3 17 -3 19zM730 1333q0 11 7 24q8 19 37 27q26 6 46 -4.5
t28 -35.5l19 -72q7 -24 -5 -44.5t-35 -27.5q-26 -6 -46.5 5.5t-27.5 35.5l-19 71q-4 14 -4 21zM817 1879q0 17 11 33.5t31 23.5q12 3 16 3q9 0 26 -7q21 -8 30 -38l21 -73q7 -23 -5 -44.5t-35 -28.5q-26 -6 -47 6t-28 37l-18 70q-2 8 -2 18zM910 1547q0 16 10 31t32 23
q23 7 44 -4t28 -36l19 -73q7 -22 -4 -43t-34 -28q-26 -7 -47.5 5.5t-28.5 37.5l-17 69zM1104 1669q0 39 45 53q9 1 17 1q15 0 25 -4q22 -9 31 -40l19 -71q6 -26 -6 -46.5t-37 -25.5q-24 -7 -44.5 5t-27.5 35l-19 73q0 2 -1.5 9.5t-1.5 10.5zM1201 1334q0 17 10.5 32.5
t32.5 22.5q15 3 16 3q9 0 26 -7q22 -9 31 -39l19 -72q7 -23 -5.5 -44t-37.5 -28q-22 -7 -43 5t-28 36l-18 74q-3 12 -3 17zM1204 628q33 -59 92 -91.5t126 -32.5h14q-1 9 -1 26q0 99 54.5 188.5t151.5 136.5q-23 45 -54 76q-97 -84 -226 -84h-23q-26 -123 -134 -219z" />
</svg>
