<?xml version="1.0" standalone="no"?>
<!DOCTYPE svg PUBLIC "-//W3C//DTD SVG 1.1//EN" "http://www.w3.org/Graphics/SVG/1.1/DTD/svg11.dtd" >
<svg xmlns="http://www.w3.org/2000/svg" xmlns:xlink="http://www.w3.org/1999/xlink" version="1.1" width="2048" height="2048" viewBox="-10 0 2058 2048">
   <path fill="currentColor"
d="M265 1192q0 139 97 239t236 105q13 0 13 -12v-93q0 -12 -13 -12q-88 -4 -151.5 -71t-63.5 -155.5t59 -153t146 -71.5l38 -6q13 0 13 -11l5 -36q11 -114 95.5 -191t198.5 -77t199 76.5t97 189.5l5 40q0 12 12 12h113q94 0 161.5 67t67.5 160q0 89 -63 156t-152 71
q-14 0 -14 12v93q0 12 14 12q91 -3 167.5 -50t120.5 -125t44 -169q0 -95 -45 -172q77 -69 105 -179l12 -51q1 -1 1 -5q0 -8 -11 -11l-42 -12q-46 -13 -81.5 -39t-56 -58.5t-30.5 -66t-10 -66.5q0 -28 7 -60l8 -43q3 -9 -10 -15l-55 -17q-46 -11 -87 -11q-38 0 -78 9
t-82 28.5t-82 55.5t-69 85q-84 -34 -166 -34q-147 0 -261.5 91.5t-146.5 234.5q-118 29 -191.5 122t-73.5 214zM708 1477q0 24 17 41.5t41 17.5t41 -17.5t17 -41.5t-17 -41t-41 -17t-41 17t-17 41zM708 1729q0 24 17 41t41 17t41 -16.5t17 -41t-17 -41t-41.5 -16.5t-41 16.5
t-16.5 40.5zM931 1611q0 26 17 41q17 17 40 17q25 0 42.5 -17t17.5 -41t-17.5 -42t-42.5 -18q-22 0 -39.5 18t-17.5 42zM931 1359q0 24 17 40q17 17 40 17q26 0 43 -16.5t17 -40.5q0 -25 -17.5 -42t-42.5 -17q-23 0 -40 17t-17 42zM931 1867q0 23 17 40q18 17 40 17
q25 0 42.5 -16.5t17.5 -40.5q0 -25 -17.5 -43t-42.5 -18q-22 0 -39.5 18t-17.5 43zM1156 1477q0 24 17 41.5t41.5 17.5t41 -17.5t16.5 -41.5t-16.5 -41t-41 -17t-41.5 17t-17 41zM1156 1729q0 24 17 41t41.5 17t41 -17t16.5 -41t-16.5 -40.5t-41 -16.5t-41.5 16.5t-17 40.5z
M1204 626q32 -57 89.5 -88t119.5 -32q15 0 22 1v21q0 101 54.5 191t151.5 137q-17 37 -53 74q-93 -82 -224 -82h-22q-28 -129 -138 -222z" />
</svg>
