<?xml version="1.0" standalone="no"?>
<!DOCTYPE svg PUBLIC "-//W3C//DTD SVG 1.1//EN" "http://www.w3.org/Graphics/SVG/1.1/DTD/svg11.dtd" >
<svg xmlns="http://www.w3.org/2000/svg" xmlns:xlink="http://www.w3.org/1999/xlink" version="1.1" width="2048" height="2048" viewBox="-10 0 2058 2048">
   <path fill="currentColor"
d="M267 1190q0 139 97 238.5t236 106.5q13 0 13 -12v-93q0 -12 -13 -12q-89 -5 -151.5 -71.5t-62.5 -156.5q0 -87 58.5 -151t145.5 -74l37 -3q14 0 14 -12l5 -38q11 -113 95.5 -188.5t198.5 -75.5q113 0 198.5 76t96.5 188l5 40q0 13 12 13h113q93 0 160.5 67t67.5 158
q0 90 -63 156.5t-152 71.5q-13 0 -13 12v93q0 12 13 12q91 -3 167.5 -50t120.5 -125.5t44 -169.5t-47 -170q81 -78 107 -179l10 -51q1 -1 1 -5q0 -8 -11 -11l-40 -12q-59 -17 -101.5 -57t-60.5 -84t-18 -89q0 -30 8 -60l9 -42q3 -10 -9 -16l-55 -17q-47 -11 -88 -11
q-38 0 -78 9.5t-82.5 28t-83 54.5t-69.5 84q-85 -32 -162 -32q-148 0 -262 91.5t-146 233.5q-116 27 -190.5 120.5t-74.5 214.5zM680 1251q0 40 29 68t70.5 28t69.5 -28t28 -68q0 -27 -24 -71t-45 -68q-11 -13 -29 -30l-24 28q-28 31 -51.5 72.5t-23.5 68.5zM887 1528
q0 68 48 115t115 47q68 0 115.5 -47.5t47.5 -114.5q0 -57 -56 -139q-46 -60 -89 -103q-8 -6 -18 -16l-17 16q-41 37 -88 103q-25 34 -41.5 72t-16.5 67zM990 1065q0 26 20 45t48 19q27 0 46 -19t19 -45q0 -45 -65 -113l-17 19q-19 21 -35 48.5t-16 45.5zM1202 626
q37 -60 93.5 -90t119.5 -30q12 0 19 1v21q0 100 54.5 190t151.5 137q-16 39 -52 72q-96 -80 -223 -80h-23q-32 -137 -140 -221z" />
</svg>
