<?xml version="1.0" standalone="no"?>
<!DOCTYPE svg PUBLIC "-//W3C//DTD SVG 1.1//EN" "http://www.w3.org/Graphics/SVG/1.1/DTD/svg11.dtd" >
<svg xmlns="http://www.w3.org/2000/svg" xmlns:xlink="http://www.w3.org/1999/xlink" version="1.1" width="2048" height="2048" viewBox="-10 0 2058 2048">
   <path fill="currentColor"
d="M265 1188q0 116 69 207t179 125l-45 117q-3 14 10 14h147l-68 244h21l271 -344q4 -5 1 -10t-10 -5h-151l172 -321q7 -15 -9 -15h-206q-9 0 -16 9l-74 200q-75 -19 -124 -81t-49 -140q0 -86 59 -150.5t147 -74.5l36 -5q14 0 14 -12l5 -36q11 -112 95.5 -188.5t198.5 -76.5
q113 0 198.5 76.5t97.5 188.5l5 41q0 12 12 12h113q95 0 162 66t67 159q0 89 -62.5 154t-153.5 73q-13 0 -13 11v96q0 12 13 12q91 -3 168 -50t120.5 -125.5t43.5 -170.5q0 -90 -45 -170q83 -78 108 -182l10 -50q1 -2 1 -5q0 -8 -11 -11l-39 -12q-59 -17 -101.5 -57
t-60.5 -86t-18 -92q0 -27 6 -55l10 -43q4 -10 -10 -16q-22 -9 -63 -18t-80 -9q-38 0 -77.5 9t-82 28t-83 55.5t-70.5 85.5q-86 -32 -165 -32q-147 0 -261 91.5t-147 233.5q-115 27 -190 121t-75 214zM828 1871q0 17 10 32.5t31 21.5q11 2 21 2q42 0 53 -44l160 -611
q7 -25 -4.5 -45.5t-34.5 -26.5q-24 -8 -45.5 3.5t-27.5 34.5l-161 614q-2 10 -2 19zM1118 1662q0 17 10 31.5t32 21.5q3 0 10.5 1t11.5 1q40 0 51 -44l104 -401q6 -26 -5.5 -46t-35.5 -26q-24 -8 -44.5 3.5t-27.5 34.5l-104 405q-2 10 -2 19zM1204 624q34 -60 92 -91
t122 -31h19v23q0 100 54.5 189t150.5 137q-19 44 -54 74q-96 -82 -224 -82h-22q-29 -130 -138 -219z" />
</svg>
