<?xml version="1.0" standalone="no"?>
<!DOCTYPE svg PUBLIC "-//W3C//DTD SVG 1.1//EN" "http://www.w3.org/Graphics/SVG/1.1/DTD/svg11.dtd" >
<svg xmlns="http://www.w3.org/2000/svg" xmlns:xlink="http://www.w3.org/1999/xlink" version="1.1" width="2048" height="2048" viewBox="-10 0 2058 2048">
   <path fill="currentColor"
d="M532 1022q0 -99 39.5 -190.5t105.5 -157.5t157.5 -105.5t191.5 -39.5h79q16 5 16 20l4 61q4 132 95 225.5t221 98.5l58 4q17 0 17 17v67q0 134 -65.5 247.5t-178.5 180t-246 66.5q-102 0 -193.5 -39.5t-157 -105.5t-104.5 -157t-39 -192zM659 1022q0 80 32 150.5t83 118
t117 75t135 27.5q60 0 121.5 -23.5t114.5 -66.5t91 -109.5t49 -145.5q-170 -35 -272.5 -145.5t-118.5 -259.5q-98 5 -180 60.5t-127 140.5t-45 178z" />
</svg>
