<?xml version="1.0" standalone="no"?>
<!DOCTYPE svg PUBLIC "-//W3C//DTD SVG 1.1//EN" "http://www.w3.org/Graphics/SVG/1.1/DTD/svg11.dtd" >
<svg xmlns="http://www.w3.org/2000/svg" xmlns:xlink="http://www.w3.org/1999/xlink" version="1.1" width="2048" height="2048" viewBox="-10 0 2058 2048">
   <path fill="currentColor"
d="M194 1474q0 25 18 42q19 18 43 18h408q28 0 48.5 20t20.5 48q0 26 -21 46.5t-48 20.5q-26 0 -47 -20q-19 -19 -43 -19t-41 17.5t-17 42.5t17 42q54 54 131 54q78 0 132 -53.5t54 -130.5q0 -78 -54.5 -132.5t-131.5 -54.5h-408q-25 0 -43 17.5t-18 41.5zM194 1265
q0 23 18 40q16 17 43 17h763q77 0 131.5 -54t54.5 -131t-54.5 -130.5t-131.5 -53.5q-79 0 -131 52q-16 17 -16 43q0 25 15.5 41t42 16t42.5 -16q19 -19 47 -19q27 0 47.5 19.5t20.5 47.5t-20.5 48t-47.5 20h-763q-25 0 -43 18t-18 42zM378 1102q0 8 12 8h99q9 0 15 -9
q24 -57 73 -94t110 -42l37 -5q13 0 13 -13l5 -34q11 -113 95.5 -189t198.5 -76t198 75.5t97 189.5l4 40q0 12 13 12h113q94 0 160.5 66t66.5 158q0 93 -66.5 159.5t-160.5 66.5h-480q-12 0 -12 12v95q0 12 12 12h480q93 0 172 -46t125 -125.5t46 -173.5q0 -77 -29 -141
q79 -104 79 -231q0 -74 -29 -141.5t-77.5 -116t-116 -77.5t-141.5 -29q-161 0 -270 121q-81 -42 -184 -42q-147 0 -260 90.5t-144 233.5q-89 20 -157 84.5t-95 152.5v2q-2 6 -2 7zM1318 641q75 -71 172 -71q102 0 174.5 73t72.5 174q0 63 -35 128q-100 -99 -241 -99h-23
q-24 -112 -120 -205z" />
</svg>
