<?xml version="1.0" standalone="no"?>
<!DOCTYPE svg PUBLIC "-//W3C//DTD SVG 1.1//EN" "http://www.w3.org/Graphics/SVG/1.1/DTD/svg11.dtd" >
<svg xmlns="http://www.w3.org/2000/svg" xmlns:xlink="http://www.w3.org/1999/xlink" version="1.1" width="2048" height="2048" viewBox="-10 0 2058 2048">
   <path fill="currentColor"
d="M151 1475q0 26 18 42q18 18 43 18h663q24 0 40.5 -17.5t16.5 -42.5t-16.5 -42.5t-40.5 -17.5h-663q-25 0 -43 18t-18 42zM334 1265q0 23 19 40q16 17 41 17h664q25 0 41.5 -16.5t16.5 -41t-17 -42t-41 -17.5h-664q-25 0 -42.5 18t-17.5 42zM413 1102q0 8 14 8h99
q9 0 15 -9q24 -57 73.5 -94t110.5 -42l37 -5q13 0 13 -13l5 -35q11 -113 95.5 -189t199.5 -76t199.5 75.5t96.5 189.5l5 40q0 13 12 13h113q95 0 161.5 66t66.5 159q0 92 -66.5 158.5t-161.5 66.5h-481q-11 0 -11 12v96q0 12 11 12h481q94 0 174 -46t126.5 -125.5
t46.5 -173.5q0 -74 -31 -140q80 -105 80 -228q0 -99 -49 -183.5t-133 -133.5t-184 -49q-159 0 -267 116q-89 -42 -189 -42q-97 0 -182.5 41t-144 115t-78.5 169q-91 21 -159.5 83.5t-94.5 150.5zM456 1690q0 24 18 41q17 17 42 17h665q24 0 41.5 -16.5t17.5 -41.5
t-17.5 -42.5t-41.5 -17.5h-665q-24 0 -42 18t-18 42zM1360 642q70 -67 171 -67q103 0 175.5 72t72.5 175q0 65 -34 123q-102 -100 -244 -100h-23q-25 -114 -118 -203z" />
</svg>
