<?xml version="1.0" standalone="no"?>
<!DOCTYPE svg PUBLIC "-//W3C//DTD SVG 1.1//EN" "http://www.w3.org/Graphics/SVG/1.1/DTD/svg11.dtd" >
<svg xmlns="http://www.w3.org/2000/svg" xmlns:xlink="http://www.w3.org/1999/xlink" version="1.1" width="2048" height="2048" viewBox="-10 0 2058 2048">
   <path fill="currentColor"
d="M281 1190q0 93 45.5 172t124 125.5t172.5 46.5h751q93 0 172 -46.5t125.5 -125.5t46.5 -172q0 -67 -29 -139q78 -96 78 -229q0 -99 -48 -183t-131.5 -133t-182.5 -49q-156 0 -270 122q-79 -45 -187 -45q-146 0 -258.5 90.5t-144.5 232.5q-117 26 -190.5 119t-73.5 214z
M399 1190q0 -87 58 -150t146 -74l48 -2l4 -50q15 -113 98 -188.5t195 -75.5q114 0 199 76t96 188l7 52h124q92 0 158.5 66.5t66.5 157.5q0 94 -66.5 161t-158.5 67h-751q-91 0 -157.5 -68t-66.5 -160zM1235 645q72 -69 170 -69q102 0 174 71.5t72 174.5q0 64 -35 127
q-100 -99 -242 -99h-22q-28 -116 -117 -205z" />
</svg>
