<?xml version="1.0" standalone="no"?>
<!DOCTYPE svg PUBLIC "-//W3C//DTD SVG 1.1//EN" "http://www.w3.org/Graphics/SVG/1.1/DTD/svg11.dtd" >
<svg xmlns="http://www.w3.org/2000/svg" xmlns:xlink="http://www.w3.org/1999/xlink" version="1.1" width="2048" height="2048" viewBox="-10 0 2058 2048">
   <path fill="currentColor"
d="M276 1190q0 139 97 238.5t236 106.5q13 0 13 -12v-93q0 -12 -13 -12q-89 -5 -151.5 -71.5t-62.5 -156.5q0 -87 58.5 -151t145.5 -74l37 -5q14 0 14 -13l5 -35q11 -113 95.5 -188.5t198.5 -75.5q113 0 198.5 76t97.5 188l4 41q0 12 13 12h112q95 0 161.5 66t66.5 159
q0 90 -62.5 156.5t-152.5 71.5q-13 0 -13 12v93q0 12 13 12q91 -3 168 -50t121 -125.5t44 -169.5q0 -77 -30 -140q82 -99 82 -230q0 -99 -49.5 -183t-133.5 -133t-182 -49q-162 0 -270 120q-85 -45 -188 -45q-148 0 -262 91.5t-146 233.5q-115 27 -190 120.5t-75 214.5z
M650 1675q9 22 32 32q20 10 42.5 1t31.5 -31q9 -23 0.5 -45.5t-30.5 -32.5q-21 -8 -43 1t-32 30q-10 17 -1 45zM693 1478q0 16 11 31.5t32 21.5q24 7 45.5 -4t29.5 -38l69 -216q7 -26 -6 -47t-38 -26q-23 -7 -43.5 4.5t-27.5 34.5l-70 221zM823 1867q0 8 4 21q10 23 32 31
q8 5 23 5q6 0 20 -4q23 -8 33 -31t0 -46t-31 -32t-43 -1q-20 9 -29 25.5t-9 31.5zM874 1682q0 18 10.5 33t33.5 20q2 0 8 1t9 1q45 -3 56 -43l123 -421q7 -26 -4.5 -46t-35.5 -27t-44.5 4.5t-27.5 34.5l-126 422q0 3 -0.5 7t-1 7.5t-0.5 6.5zM1114 1654q0 10 3 22
q8 22 32 31q10 4 25 4q12 0 20 -4q23 -9 32 -30q8 -23 0 -45t-29 -33q-23 -8 -45.5 1t-32.5 30q-5 11 -5 24zM1163 1477q0 37 43 52q14 4 21 4q12 0 23 -6q19 -9 28 -38l69 -216q8 -25 -4 -45.5t-36 -27.5t-44 4.5t-28 34.5l-69 218q-3 18 -3 20zM1235 642q71 -69 172 -69
t173 72.5t72 174.5q0 64 -35 127q-103 -102 -243 -102h-23q-31 -120 -116 -203z" />
</svg>
