<?xml version="1.0" standalone="no"?>
<!DOCTYPE svg PUBLIC "-//W3C//DTD SVG 1.1//EN" "http://www.w3.org/Graphics/SVG/1.1/DTD/svg11.dtd" >
<svg xmlns="http://www.w3.org/2000/svg" xmlns:xlink="http://www.w3.org/1999/xlink" version="1.1" width="2048" height="2048" viewBox="-10 0 2058 2048">
   <path fill="currentColor"
d="M279 1192q0 69 26 131t71 107.5t106 73.5t130 31q12 0 12 -12v-93q0 -11 -12 -11q-91 -7 -153 -72t-62 -155q0 -87 59 -151.5t146 -72.5l36 -4q13 0 13 -12l5 -36q8 -74 49 -134.5t105.5 -95t139.5 -34.5q114 0 198.5 75t96.5 187l4 41q0 11 13 11h112q94 0 161 67
t67 159q0 90 -62 155t-152 72q-14 0 -14 11v93q0 12 14 12q139 -6 235 -105t96 -238q0 -66 -33 -143q83 -104 83 -227q0 -99 -49.5 -183.5t-133 -133t-181.5 -48.5q-166 0 -270 120q-84 -44 -185 -44q-146 0 -260 91.5t-146 234.5q-117 27 -191 120t-74 213zM811 1514
q-3 14 10 14h150l-92 290h21l290 -388q4 -4 2 -9t-10 -5h-151l159 -295q8 -15 -10 -15h-204q-8 0 -15 10zM1233 644q69 -69 171.5 -69t174 72t71.5 175q0 62 -36 125q-101 -97 -240 -97h-22q-30 -124 -119 -206z" />
</svg>
