<?xml version="1.0" standalone="no"?>
<!DOCTYPE svg PUBLIC "-//W3C//DTD SVG 1.1//EN" "http://www.w3.org/Graphics/SVG/1.1/DTD/svg11.dtd" >
<svg xmlns="http://www.w3.org/2000/svg" xmlns:xlink="http://www.w3.org/1999/xlink" version="1.1" width="2048" height="2048" viewBox="-10 0 2058 2048">
   <path fill="currentColor"
d="M272 1191q0 91 44.5 169t121.5 125.5t169 49.5q13 0 13 -12v-93q0 -12 -13 -12q-90 -5 -153 -71.5t-63 -155.5t59.5 -153.5t146.5 -71.5l36 -6q14 0 14 -11l5 -36q11 -115 96 -192t200 -77q113 0 198.5 76.5t97.5 189.5l5 41q0 11 13 11h112q94 0 161.5 67.5t67.5 161.5
q0 89 -63 155.5t-152 71.5q-14 0 -14 12v93q0 12 14 12q92 -2 168.5 -49.5t120.5 -125.5t44 -169q0 -75 -29 -140q84 -104 84 -234q0 -100 -49.5 -184t-134 -133.5t-183.5 -49.5q-77 0 -148.5 32.5t-124.5 88.5q-91 -45 -188 -45q-148 0 -262.5 92t-147.5 234
q-117 30 -191.5 124t-74.5 215zM643 1682q0 18 11.5 35.5t32.5 24.5q25 7 45 -3t27 -39l10 -42q5 -24 -6.5 -44.5t-35.5 -27.5t-45 5.5t-28 36.5l-10 41q-1 4 -1 13zM696 1481q0 22 18 40q16 17 39 17q24 0 41 -16.5t17 -40.5t-17 -40.5t-41 -16.5q-25 0 -41 16t-16 41z
M738 1323q-1 16 9.5 31.5t33.5 22.5q22 6 43.5 -5t28.5 -36l20 -62q7 -26 -5 -45.5t-38 -26.5q-23 -8 -44 4t-28 35l-17 63q0 2 -1.5 8.5t-1.5 10.5zM819 1899q0 19 11 35t33 23q9 2 18 2q44 0 55 -43l9 -41q7 -26 -5.5 -47t-36.5 -26q-22 -7 -43.5 5t-28.5 36l-10 41
q-2 9 -2 15zM873 1697q0 23 18 41q17 17 39 17q25 0 41.5 -16.5t16.5 -41.5q0 -24 -16.5 -40t-41 -16t-41 16t-16.5 40zM917 1540q-1 15 9 32t31 21q24 7 44.5 -3.5t28.5 -39.5l19 -62q7 -23 -5 -44t-37 -28q-22 -7 -43.5 5.5t-29.5 36.5l-15 63q-2 8 -2 19zM1108 1689
q0 17 11 33t32 23q4 0 10 1.5t9 1.5q43 0 53 -46l10 -42q7 -22 -4.5 -43.5t-35.5 -28.5q-26 -7 -47 5.5t-28 36.5l-7 41q0 3 -1.5 9t-1.5 9zM1160 1484q0 23 17 39q16 17 40 17q25 0 41.5 -16t16.5 -40q0 -25 -16.5 -41.5t-41.5 -16.5t-41 16.5t-16 41.5zM1202 1323
q0 17 11.5 33t34.5 23q2 0 8.5 1t9.5 1q10 0 25 -6q22 -12 29 -37l16 -62q7 -24 -4.5 -44.5t-35.5 -27.5t-44 4t-28 35l-19 63q0 3 -1.5 8.5t-1.5 8.5zM1235 642q72 -73 174.5 -73t174.5 73t72 175q0 70 -35 128q-101 -100 -247 -100h-22q-29 -122 -117 -203z" />
</svg>
