<?xml version="1.0" standalone="no"?>
<!DOCTYPE svg PUBLIC "-//W3C//DTD SVG 1.1//EN" "http://www.w3.org/Graphics/SVG/1.1/DTD/svg11.dtd" >
<svg xmlns="http://www.w3.org/2000/svg" xmlns:xlink="http://www.w3.org/1999/xlink" version="1.1" width="2048" height="2048" viewBox="-10 0 2058 2048">
   <path fill="currentColor"
d="M278 1192q0 69 26 131t70.5 107.5t106 73.5t130.5 31q11 0 11 -12v-93q0 -11 -11 -11q-91 -7 -153 -72t-62 -155q0 -87 59 -152t146 -72l36 -4q14 0 14 -13l4 -35q11 -113 95.5 -188.5t198.5 -75.5t198.5 74.5t96.5 187.5l4 40q0 12 14 12h111q94 0 161 67t67 159
q0 90 -62 155t-152 72q-14 0 -14 11v93q0 12 14 12q139 -6 235 -105t96 -238q0 -75 -29 -138q81 -98 81 -233q0 -98 -48.5 -182t-132.5 -133t-182 -49q-162 0 -270 120q-92 -45 -188 -45q-147 0 -260.5 91.5t-146.5 235.5q-115 27 -189.5 120.5t-74.5 212.5zM659 1656
q0 42 45 54q21 8 43.5 -3.5t28.5 -35.5l104 -398q7 -23 -6 -43.5t-37 -27.5q-23 -8 -44 4t-27 37l-105 396q-2 11 -2 17zM839 1869q0 12 6 25q11 22 35 30q3 0 7 0.5l8 1t6 0.5q45 0 53 -45l160 -608q7 -23 -4.5 -43.5t-35.5 -27.5q-25 -8 -46.5 4t-25.5 37l-161 608
q-2 9 -2 18zM1128 1656q0 16 11 32.5t31 21.5q7 2 16 2q18 0 34 -9.5t22 -31.5l104 -398q8 -21 -4.5 -42.5t-35.5 -28.5q-26 -8 -46.5 4t-24.5 37l-104 396q-3 11 -3 17zM1235 647q70 -70 172 -70q101 0 173 71t72 173q0 65 -36 128q-100 -99 -243 -99h-22
q-29 -122 -116 -203z" />
</svg>
