<?xml version="1.0" standalone="no"?>
<!DOCTYPE svg PUBLIC "-//W3C//DTD SVG 1.1//EN" "http://www.w3.org/Graphics/SVG/1.1/DTD/svg11.dtd" >
<svg xmlns="http://www.w3.org/2000/svg" xmlns:xlink="http://www.w3.org/1999/xlink" version="1.1" width="2048" height="2048" viewBox="-10 0 2058 2048">
   <path fill="currentColor"
d="M277 1192q0 68 26 130.5t70.5 108t106.5 73.5t130 31q13 0 13 -12v-93q0 -11 -13 -11q-88 -5 -151 -72t-63 -155.5t58.5 -153t145.5 -71.5l38 -5q10 0 10 -10l5 -37q12 -114 97.5 -190t199.5 -76t199 75t97 188l5 40q0 13 12 13h113q92 0 158.5 66.5t66.5 160.5
q0 88 -61.5 155t-150.5 72q-13 0 -13 11v93q0 12 13 12q139 -6 235.5 -105t96.5 -238q0 -67 -28 -139q78 -104 78 -229q0 -98 -49 -182.5t-133 -133.5t-183 -49q-159 0 -268 116q-91 -45 -188 -45q-148 0 -262 91.5t-146 235.5q-117 27 -191 119.5t-74 215.5zM651 1661
q0 18 10 33.5t34 23.5q12 6 26 5t28 -13.5t19 -33.5l19 -70q7 -27 -5 -47.5t-37 -25.5q-22 -7 -43.5 5t-28.5 35l-20 72q-2 9 -2 16zM743 1329q0 20 11 36t33 20q19 3 21 3q39 0 53 -46l20 -69q6 -25 -6 -46.5t-37 -28.5q-23 -7 -44 5t-28 36l-21 73q-2 13 -2 17zM829 1879
q0 18 10.5 34t33.5 23q14 3 19 3q9 0 26 -7q18 -8 27 -38l21 -71q7 -26 -5.5 -47t-36.5 -26q-23 -7 -45 5t-29 36l-20 72q-1 9 -1 16zM921 1545q0 18 11 34.5t34 22.5q23 7 44 -3t28 -39l20 -70q7 -27 -5 -47t-37 -24q-23 -8 -44.5 4t-28.5 35l-19 73q-3 9 -3 14zM1119 1666
q-1 16 9.5 32t32.5 24l17 1q12 1 26 -5q23 -8 30 -38l19 -73q8 -24 -4.5 -44.5t-35.5 -27.5q-26 -6 -46.5 6t-25.5 37l-20 70q-2 17 -2 18zM1213 1333q0 18 11.5 34t33.5 21l18 2q44 0 56 -43l19 -72q7 -26 -5.5 -47t-37.5 -25q-24 -7 -44.5 5t-27.5 37l-20 71q-3 11 -3 17z
M1236 644q70 -67 170 -67q102 0 173.5 73t71.5 174q0 67 -33 123q-100 -100 -242 -100h-22q-26 -114 -118 -203z" />
</svg>
