<?xml version="1.0" standalone="no"?>
<!DOCTYPE svg PUBLIC "-//W3C//DTD SVG 1.1//EN" "http://www.w3.org/Graphics/SVG/1.1/DTD/svg11.dtd" >
<svg xmlns="http://www.w3.org/2000/svg" xmlns:xlink="http://www.w3.org/1999/xlink" version="1.1" width="2048" height="2048" viewBox="-10 0 2058 2048">
   <path fill="currentColor"
d="M276 1190q0 139 97 239t236 106q13 0 13 -12v-93q0 -11 -13 -11q-89 -6 -152 -72.5t-63 -156.5q0 -87 59 -151t146 -74l37 -3q14 0 14 -12l5 -38q11 -113 95.5 -189t198.5 -76q113 0 198.5 76t97.5 189l5 40q0 13 12 13h112q95 0 162 66t67 159q0 90 -63 156.5t-153 72.5
q-13 0 -13 11v93q0 12 13 12q140 -4 236.5 -105t96.5 -240q0 -74 -30 -140q82 -100 82 -230q0 -99 -49 -183.5t-133 -133.5t-183 -49q-161 0 -270 121q-84 -45 -188 -45q-148 0 -262 91.5t-146 233.5q-116 27 -190.5 120.5t-74.5 214.5zM719 1476q0 23 17 40q18 17 41 17
q24 0 40.5 -16t16.5 -41t-16.5 -41t-41 -16t-41 16t-16.5 41zM719 1728q0 25 17 40q17 17 41 17t40.5 -16t16.5 -41t-16.5 -42t-40.5 -17t-41 17t-17 42zM942 1607q0 25 17.5 43.5t40.5 18.5q24 0 41.5 -18.5t17.5 -43.5q0 -22 -17.5 -39.5t-41.5 -17.5q-23 0 -40.5 17.5
t-17.5 39.5zM942 1358q0 23 16.5 40t41.5 17q24 0 41.5 -16.5t17.5 -40.5t-17.5 -41.5t-41.5 -17.5t-41 17.5t-17 41.5zM942 1863q0 24 17 41.5t41 17.5t41.5 -17t17.5 -42q0 -23 -17.5 -40t-41.5 -17q-23 0 -40.5 17t-17.5 40zM1166 1476q0 21 17 40q18 17 42 17t40.5 -16
t16.5 -41t-16 -41t-41 -16t-42 16t-17 41zM1166 1728q0 23 17 40t42 17t41 -16t16 -41t-16.5 -42t-40.5 -17t-41.5 17t-17.5 42zM1235 642q70 -70 172.5 -70t173.5 72.5t71 175.5q0 61 -35 127q-100 -100 -243 -100h-21q-31 -121 -118 -205z" />
</svg>
