<?xml version="1.0" standalone="no"?>
<!DOCTYPE svg PUBLIC "-//W3C//DTD SVG 1.1//EN" "http://www.w3.org/Graphics/SVG/1.1/DTD/svg11.dtd" >
<svg xmlns="http://www.w3.org/2000/svg" xmlns:xlink="http://www.w3.org/1999/xlink" version="1.1" width="2048" height="2048" viewBox="-10 0 2058 2048">
   <path fill="currentColor"
d="M276 1190q0 139 96.5 239t237.5 106q11 0 11 -12v-95q0 -13 -11 -13q-92 -6 -154 -71.5t-62 -153.5t59 -153t147 -72l36 -5q13 0 13 -13l5 -34q11 -113 95.5 -189t199.5 -76q114 0 199 75.5t97 189.5l4 40q0 12 13 12h111q95 0 162 66t67 159q0 88 -62 153.5t-152 71.5
q-15 0 -15 13v95q0 12 15 12q138 -4 235 -105t97 -240q0 -77 -30 -140q82 -99 82 -233q0 -98 -49 -182.5t-133 -133.5t-183 -49q-159 0 -273 121q-86 -43 -185 -43q-147 0 -261.5 91t-146.5 234q-115 27 -190 120.5t-75 214.5zM688 1251q0 39 30 67.5t71 28.5t69.5 -28
t28.5 -68q0 -27 -24.5 -71t-46.5 -70q-2 -2 -12.5 -13.5t-14.5 -16.5l-25 28q-29 31 -52.5 73t-23.5 70zM896 1528q0 66 48 114t115 48t115 -48t48 -114q0 -28 -16 -67t-39 -72q-49 -62 -90 -104q-6 -5 -18 -17l-41 40q-46 45 -84 109t-38 111zM999 1062q0 28 19.5 46.5
t49.5 18.5q26 0 45 -18.5t19 -46.5q0 -42 -64 -112l-18 18q-19 21 -35 48.5t-16 45.5zM1234 642q70 -69 173 -69q102 0 173.5 71t71.5 173q0 66 -35 128q-104 -100 -244 -100h-21q-30 -122 -118 -203z" />
</svg>
