<?xml version="1.0" standalone="no"?>
<!DOCTYPE svg PUBLIC "-//W3C//DTD SVG 1.1//EN" "http://www.w3.org/Graphics/SVG/1.1/DTD/svg11.dtd" >
<svg xmlns="http://www.w3.org/2000/svg" xmlns:xlink="http://www.w3.org/1999/xlink" version="1.1" width="2048" height="2048" viewBox="-10 0 2058 2048">
   <path fill="currentColor"
d="M276 1187q0 115 69.5 207t179.5 125l-45 115q-5 15 9 15h148l-80 284h20l284 -382q4 -5 1 -10t-10 -5h-152l173 -325q7 -15 -10 -15h-206q-9 0 -13 10l-76 203q-75 -19 -124 -81.5t-49 -140.5q0 -87 59 -152t146 -73l37 -4q13 0 13 -12l6 -36q11 -113 95 -189t199 -76
q114 0 198.5 76t97.5 189l4 41q0 11 13 11h113q94 0 161 66.5t67 158.5q0 89 -62.5 154.5t-152.5 72.5q-13 0 -13 12v96q0 12 13 12q138 -5 235 -106t97 -241q0 -75 -29 -139q80 -104 80 -228q0 -75 -29.5 -142t-78.5 -116t-116.5 -78t-141.5 -29q-77 0 -147 31t-121 87
q-86 -45 -188 -45q-148 0 -262 91t-147 234q-115 27 -190 120.5t-75 213.5zM844 1873q0 19 11.5 36t31.5 21q2 0 6 0.5t6.5 1t5.5 0.5q44 -3 55 -42l21 -74q6 -23 -6.5 -44t-36.5 -28q-23 -7 -44 5.5t-29 37.5l-17 69zM938 1542q0 15 10.5 31t32.5 23q22 8 43 -3.5t28 -36.5
l21 -72q7 -26 -5 -47t-37 -26q-24 -7 -45 5t-29 37l-17 71q0 2 -1 5.5t-1 6.5v6zM1134 1654q0 20 11.5 36.5t32.5 22.5q16 3 19 3q41 0 53 -41l17 -74q8 -23 -3.5 -44t-34.5 -28q-26 -7 -47.5 6t-26.5 37l-19 69q-2 5 -2 13zM1229 1325q0 17 11 33t34 23q17 2 18 2
q13 0 26 -6q20 -10 28 -36l20 -72q6 -23 -6.5 -44.5t-36.5 -28.5t-44.5 5t-28.5 37l-19 71q-2 9 -2 16zM1236 640q69 -67 170 -67q102 0 174 72t72 175q0 66 -34 123q-103 -100 -242 -100h-23q-32 -120 -117 -203z" />
</svg>
