<?xml version="1.0" standalone="no"?>
<!DOCTYPE svg PUBLIC "-//W3C//DTD SVG 1.1//EN" "http://www.w3.org/Graphics/SVG/1.1/DTD/svg11.dtd" >
<svg xmlns="http://www.w3.org/2000/svg" xmlns:xlink="http://www.w3.org/1999/xlink" version="1.1" width="2048" height="2048" viewBox="-10 0 2058 2048">
   <path fill="currentColor"
d="M279 1190q0 116 69 207t178 122l-45 116q-5 15 10 15h147l-72 292h19l276 -391q4 -5 1 -10t-10 -5h-151l172 -321q7 -15 -10 -15h-205q-9 0 -15 10l-74 199q-75 -18 -123.5 -79t-48.5 -140q0 -87 58.5 -150.5t145.5 -73.5l37 -3q13 0 13 -12l5 -37q7 -74 48 -135
t106 -95.5t140 -34.5q112 0 197 76t97 189l5 39q0 13 12 13h112q93 0 160.5 66.5t67.5 157.5q0 90 -62.5 156t-151.5 71q-14 0 -14 12v93q0 12 14 12q91 -3 167 -50t119.5 -125.5t43.5 -168.5q0 -76 -29 -140q81 -96 81 -230q0 -73 -29 -140.5t-77.5 -116t-116 -77.5
t-140.5 -29q-161 0 -269 120q-84 -45 -187 -45q-147 0 -261 91t-146 233q-115 27 -189.5 120.5t-74.5 213.5zM830 1877q0 17 10 32t32 21l17 2q44 0 56 -42l168 -617q7 -25 -4 -45.5t-34 -27.5q-24 -7 -45.5 4.5t-27.5 34.5l-170 619q-2 17 -2 19zM1118 1665q0 42 43 56
q17 2 18 2q12 0 24 -5q21 -10 30 -39l114 -406q6 -25 -5.5 -45.5t-35.5 -27.5t-45 4.5t-27 34.5l-113 410q-3 15 -3 16zM1234 644q70 -67 172 -67q101 0 172.5 71t71.5 172q0 66 -35 129q-100 -101 -242 -101h-22q-29 -119 -117 -204z" />
</svg>
