<?xml version="1.0" standalone="no"?>
<!DOCTYPE svg PUBLIC "-//W3C//DTD SVG 1.1//EN" "http://www.w3.org/Graphics/SVG/1.1/DTD/svg11.dtd" >
<svg xmlns="http://www.w3.org/2000/svg" xmlns:xlink="http://www.w3.org/1999/xlink" version="1.1" width="2048" height="2048" viewBox="-10 0 2058 2048">
   <path fill="currentColor"
d="M60 662.5q0 -138.5 98.5 -237t237.5 -98.5q136 0 234 98.5t98 237t-98 237.5t-234 99q-139 0 -237.5 -99t-98.5 -237.5zM223 663q0 73 50 123q52 52 123 52t122.5 -52t51.5 -123t-51.5 -123t-122.5 -52q-73 0 -123 51t-50 124zM941 1480q0 213 118 379q62 87 171 138
t248 51q405 0 507 -308q10 -40 -11.5 -75.5t-61.5 -42.5q-40 -10 -74.5 12.5t-43.5 61.5q0 2 -2.5 10t-3.5 13q-32 52 -84 83q-86 52 -226 52q-87 0 -154 -30q-111 -46 -158 -164q-31 -76 -31 -180v-596q0 -41 5 -83q10 -105 83 -192q81 -97 255 -97q143 0 226 50
q56 33 84 84q1 5 3.5 14.5t2.5 10.5q11 39 44 57t74 9q40 -8 61.5 -42t11.5 -74v-1l-16 -44q-14 -31 -51 -79.5t-84 -81.5q-57 -41 -151.5 -69t-204.5 -28q-141 0 -249 49.5t-169 134.5q-119 164 -119 382v596z" />
</svg>
