<?xml version="1.0" standalone="no"?>
<!DOCTYPE svg PUBLIC "-//W3C//DTD SVG 1.1//EN" "http://www.w3.org/Graphics/SVG/1.1/DTD/svg11.dtd" >
<svg xmlns="http://www.w3.org/2000/svg" xmlns:xlink="http://www.w3.org/1999/xlink" version="1.1" width="2048" height="2048" viewBox="-10 0 2058 2048">
   <path fill="currentColor"
d="M302 1188q0 140 97 239.5t237 106.5q11 0 11 -12v-93q0 -12 -11 -12q-90 -5 -152.5 -71.5t-62.5 -157.5q0 -86 59 -150.5t146 -74.5l36 -2q14 0 14 -12l5 -38q11 -113 95 -189t199 -76q114 0 199 76t97 189l5 40q0 12 12 12h113q92 0 160 67t68 158t-63 157.5t-152 71.5
q-13 0 -13 12v93q0 12 13 12q91 -3 167.5 -50t120.5 -125.5t44 -170.5q0 -93 -46.5 -172t-126 -124.5t-172.5 -45.5h-23q-34 -139 -146.5 -228.5t-256.5 -89.5q-147 0 -261 91.5t-147 234.5q-114 26 -189.5 120.5t-75.5 213.5zM786 1294.5q0 24.5 17 41.5l180 182
q13 16 40 16q29 0 42 -16l181 -182q16 -18 16 -41q0 -24 -16.5 -40.5t-41.5 -16.5t-43 16l-78 77v-277q0 -24 -18 -40.5t-42.5 -16.5t-41 16.5t-16.5 40.5v277l-76 -77q-18 -16 -44 -16t-42.5 16t-16.5 40.5z" />
</svg>
