<?xml version="1.0" standalone="no"?>
<!DOCTYPE svg PUBLIC "-//W3C//DTD SVG 1.1//EN" "http://www.w3.org/Graphics/SVG/1.1/DTD/svg11.dtd" >
<svg xmlns="http://www.w3.org/2000/svg" xmlns:xlink="http://www.w3.org/1999/xlink" version="1.1" width="2048" height="2048" viewBox="-10 0 2058 2048">
   <path fill="currentColor"
d="M303 1191q0 69 26 131t70.5 107.5t106.5 73.5t130 31q12 0 12 -12v-92q0 -13 -12 -13q-91 -7 -152.5 -72t-61.5 -154q0 -87 59 -152t145 -72l37 -5q13 0 13 -12l6 -36q7 -74 47.5 -135t105.5 -95t140 -34q114 0 199 74.5t97 187.5l4 40q0 12 13 12h112q93 0 160.5 67.5
t67.5 159.5q0 89 -62 154t-153 72q-13 0 -13 13v92q0 12 13 12q140 -7 236 -105.5t96 -237.5q0 -93 -46.5 -172t-126 -125.5t-172.5 -46.5h-23q-34 -139 -146.5 -228t-255.5 -89q-147 0 -261 92t-146 235q-116 27 -190.5 120.5t-74.5 213.5zM736 1279q0 78 38.5 144
t104.5 105t143 39q120 0 205.5 -85t85.5 -203q0 -24 -17.5 -41.5t-42.5 -17.5t-43 17.5t-18 41.5q0 70 -49.5 120t-120.5 50q-69 0 -118.5 -50t-49.5 -120q0 -62 37 -111t91 -54l-29 28q-15 15 -15 39q0 26 15 46q15 16 37.5 16.5t48.5 -16.5l126 -130q18 -17 18 -40
q0 -26 -18 -42l-126 -128q-20 -18 -43 -18q-24 0 -41 17.5t-17 42.5t15 41l24 24q-104 18 -172.5 97.5t-68.5 187.5z" />
</svg>
