<?xml version="1.0" standalone="no"?>
<!DOCTYPE svg PUBLIC "-//W3C//DTD SVG 1.1//EN" "http://www.w3.org/Graphics/SVG/1.1/DTD/svg11.dtd" >
<svg xmlns="http://www.w3.org/2000/svg" xmlns:xlink="http://www.w3.org/1999/xlink" version="1.1" width="2048" height="2048" viewBox="-10 0 2058 2048">
   <path fill="currentColor"
d="M304 1189q0 139 96.5 238.5t236.5 106.5q11 0 11 -12v-92q0 -13 -11 -13q-90 -5 -152.5 -71t-62.5 -157q0 -86 59 -150t146 -74h36q14 0 14 -12l4 -40q11 -113 95.5 -189t198.5 -76q113 0 198 76t97 189l5 40q0 12 13 12h112q92 0 160 67t68 157t-63 156.5t-152 71.5
q-13 0 -13 13v92q0 12 13 12q91 -3 167 -50t120 -125.5t44 -169.5q0 -70 -27 -133t-73.5 -108.5t-110.5 -72.5t-133 -27h-23q-34 -140 -146 -229t-256 -89q-147 0 -261 91.5t-146 234.5q-115 26 -189.5 119.5t-74.5 213.5zM786 1233q0 26 17 44q16 16 43 16q25 0 43 -16
l77 -79v276q0 25 16 42.5t41 17.5q24 0 41.5 -17.5t17.5 -42.5v-274l79 77q41 32 84 0q17 -16 17 -43q0 -25 -17 -43l-180 -178q-17 -17 -41 -17q-26 0 -41 17l-180 178q-17 17 -17 42z" />
</svg>
