<?xml version="1.0" standalone="no"?>
<!DOCTYPE svg PUBLIC "-//W3C//DTD SVG 1.1//EN" "http://www.w3.org/Graphics/SVG/1.1/DTD/svg11.dtd" >
<svg xmlns="http://www.w3.org/2000/svg" xmlns:xlink="http://www.w3.org/1999/xlink" version="1.1" width="2048" height="2048" viewBox="-10 0 2058 2048">
   <path fill="currentColor"
d="M302 1189q0 -120 75 -213.5t190 -120.5q33 -143 147 -234.5t261 -91.5q144 0 256.5 89.5t146.5 228.5h23q93 0 172.5 45.5t126 124t46.5 172.5q0 92 -44 170t-120.5 125.5t-167.5 49.5h-778q-140 -6 -237 -105.5t-97 -239.5zM421 1189q0 91 62.5 157.5t152.5 71.5h778
q89 -5 152 -71.5t63 -157.5t-67.5 -158t-160.5 -67h-113q-12 0 -12 -12l-5 -40q-12 -113 -97 -189t-199 -76t-198.5 76t-95.5 189l-5 40q0 12 -14 12h-36q-87 11 -146 74.5t-59 150.5z" />
</svg>
