<?xml version="1.0" standalone="no"?>
<!DOCTYPE svg PUBLIC "-//W3C//DTD SVG 1.1//EN" "http://www.w3.org/Graphics/SVG/1.1/DTD/svg11.dtd" >
<svg xmlns="http://www.w3.org/2000/svg" xmlns:xlink="http://www.w3.org/1999/xlink" version="1.1" width="2048" height="2048" viewBox="-10 0 2058 2048">
   <path fill="currentColor"
d="M267 1121q0 -28 18 -43q15 -16 43 -16h145q25 0 42 16.5t17 42.5q0 24 -17 42t-42 18h-145q-25 0 -43 -18t-18 -42zM331 1474q0 -24 18 -42q17 -17 43 -17h1265q25 0 43 17t18 42t-18 43t-43 17h-1265q-25 0 -43 -17.5t-18 -42.5zM473 628q0 -27 16 -41q18 -19 43 -19
t43 19l100 102q18 17 18 41q0 26 -16.5 43t-41.5 17q-23 0 -42 -17l-104 -103q-16 -14 -16 -42zM654 1121q0 90 37 162q3 10 17 10h116q7 0 9 -4.5t-5 -11.5q-55 -68 -55 -156q0 -104 74 -177t177 -73q104 0 177.5 73t73.5 177q0 89 -56 156q-4 7 -4 9q0 3 2.5 5t6.5 2h118
q9 0 15 -10q39 -74 39 -162q0 -100 -50.5 -185.5t-136 -136t-185 -50.5t-185.5 50.5t-135.5 136t-49.5 185.5zM964 569v-145q0 -25 18 -43t42.5 -18t43 18t18.5 43v145q0 25 -18.5 43.5t-43 18.5t-42.5 -18.5t-18 -43.5zM1355 730q0 -25 17 -41l101 -102q17 -19 43 -19
t43 17.5t17 42.5q0 27 -15 42l-105 103q-17 15 -41 15q-26 1 -43 -15.5t-17 -42.5zM1517 1121q0 -28 17 -43q15 -16 41 -16h145q26 0 43.5 16.5t17.5 42.5q0 24 -18 42t-43 18h-145q-24 0 -41 -18t-17 -42z" />
</svg>
