<?xml version="1.0" standalone="no"?>
<!DOCTYPE svg PUBLIC "-//W3C//DTD SVG 1.1//EN" "http://www.w3.org/Graphics/SVG/1.1/DTD/svg11.dtd" >
<svg xmlns="http://www.w3.org/2000/svg" xmlns:xlink="http://www.w3.org/1999/xlink" version="1.1" width="2048" height="2048" viewBox="-10 0 2058 2048">
   <path fill="currentColor"
d="M324 1473q0 -27 19 -43q15 -16 44 -16h1275q26 0 44 17t18 42t-18.5 43.5t-43.5 18.5h-1275q-26 0 -44.5 -18.5t-18.5 -43.5zM461 897.5q0 -27.5 16 -43.5q18 -19 45 -19q24 0 42 19l104 104q19 19 19 43q0 25 -19 43q-16 19 -42.5 19t-44.5 -19l-104 -104
q-16 -15 -16 -42.5zM665 1286q-5 16 10 16h104q7 0 15 -12q32 -66 93 -105.5t136 -39.5q76 0 138.5 39.5t93.5 105.5q8 12 16 12h103q13 0 10 -16q-35 -118 -135 -192t-226 -74q-125 0 -224 74t-134 192zM964 837v-149q0 -26 17 -44t42 -18q26 0 43.5 17.5t17.5 44.5v149
q0 26 -17.5 44t-43.5 18q-25 0 -42 -18t-17 -44zM1361 1001q0 -24 18 -43l107 -104q16 -19 43 -19q25 0 41.5 18t16.5 44q0 28 -17 43l-103 104q-17 18 -39 20q-23 3 -45 -16.5t-22 -46.5z" />
</svg>
