<?xml version="1.0" standalone="no"?>
<!DOCTYPE svg PUBLIC "-//W3C//DTD SVG 1.1//EN" "http://www.w3.org/Graphics/SVG/1.1/DTD/svg11.dtd" >
<svg xmlns="http://www.w3.org/2000/svg" xmlns:xlink="http://www.w3.org/1999/xlink" version="1.1" width="2048" height="2048" viewBox="-10 0 2058 2048">
   <path fill="currentColor"
d="M683 824q-40 -84 11 -158q37 -52 110 -63l13 -2h15q101 3 148 90q23 41 11 92q-7 39 -29 73q-42 67 -93 114q-3 3 -8 5q-29 23 -59 2q-12 -7 -17 -13q-69 -71 -102 -140zM686 773q0 6 3 19q10 45 41 69t76 28q10 1 11.5 -0.5t1.5 -12.5l-2 -18q-8 -47 -45 -68
q-7 -5 -58 -26q-8 -3 -19 -3t-9 12zM843 874q-1 12 1.5 13.5t13.5 1.5q9 -2 27 -5q37 -9 61 -40q19 -22 29 -71q1 -7 -1 -10t-9 -2q-21 2 -38 9q-79 29 -84 104zM861 1256q-39 -83 12 -158q37 -52 111 -63l12 -2h15q101 3 148 90q23 41 12 92q-8 38 -30 73q-41 66 -94 113
q-5 5 -7 6q-29 23 -60 2q-9 -6 -17 -13q-69 -73 -102 -140zM864 1205q1 4 2.5 10.5t1.5 8.5q10 44 40.5 68.5t75.5 28.5q11 0 13 -1.5t2 -12.5l-3 -17q-8 -47 -44 -68q-6 -4 -60 -26q-9 -4 -18 -4q-12 0 -10 13zM1021 1306q0 12 2.5 13.5t12.5 1.5q10 -2 28 -5q36 -9 61 -40
q19 -24 29 -71q1 -7 -1.5 -10t-9.5 -3q-18 2 -38 10q-78 29 -84 104zM1070 824q-39 -83 12 -158q36 -52 110 -63l13 -2h14q101 3 148 90q23 41 12 92q-8 38 -30 73q-42 67 -93 114q-4 3 -7 5q-30 23 -60 2q-12 -7 -17 -13q-69 -71 -102 -140zM1073 773l4 19q10 45 40.5 69
t75.5 28q10 1 12 -1t2 -12l-2 -18q-9 -47 -45 -68q-6 -4 -59 -26q-8 -3 -18 -3q-12 0 -10 12zM1230 874q-1 12 1.5 13.5t13.5 1.5q9 -2 27 -5q37 -9 62 -40q18 -22 28 -71q1 -7 -1 -10t-9 -2q-21 2 -38 9q-79 29 -84 104z" />
</svg>
