<?xml version="1.0" standalone="no"?>
<!DOCTYPE svg PUBLIC "-//W3C//DTD SVG 1.1//EN" "http://www.w3.org/Graphics/SVG/1.1/DTD/svg11.dtd" >
<svg xmlns="http://www.w3.org/2000/svg" xmlns:xlink="http://www.w3.org/1999/xlink" version="1.1" width="2048" height="2048" viewBox="-10 0 2058 2048">
   <path fill="currentColor"
d="M166 1470q0 23 18 39.5t43 16.5h1294q24 0 41.5 -16.5t17.5 -39.5q0 -25 -17 -42.5t-42 -17.5h-1294q-25 0 -43 17.5t-18 42.5zM348 1254q0 24 18 41q14 19 41 19h1293q24 0 40.5 -18t16.5 -42t-16.5 -40.5t-40.5 -16.5h-1293q-25 0 -42 16.5t-17 40.5zM358 1086v-4
q-5 16 9 16h100q6 0 13 -11q25 -54 74 -88.5t108 -38.5l37 -5q13 0 13 -13l4 -34q11 -112 94.5 -187.5t197.5 -75.5q112 0 196 74.5t96 185.5l4 40q0 12 15 12h110q67 0 121.5 36t81.5 94q7 11 15 11h98q13 0 11 -16q-23 -58 -32 -73q75 -68 104 -179l12 -45
q2 -7 -1.5 -11.5t-7.5 -4.5l-43 -15q-93 -27 -142 -110.5t-26 -177.5l9 -41q6 -9 -9 -16l-58 -16q-114 -28 -223.5 18t-171.5 147q-83 -32 -159 -32q-145 0 -258 91.5t-146 232.5q-88 21 -154 84.5t-92 151.5zM468 1682q0 25 18 41q18 19 41 19h1297q24 0 41 -17.5t17 -42.5
q0 -24 -17 -40.5t-41 -16.5h-1297q-24 0 -41.5 16.5t-17.5 40.5zM1268 620q36 -60 97.5 -92.5t130.5 -25.5q-7 109 49 203.5t154 140.5q-16 36 -52 74q-96 -79 -218 -79h-23q-33 -137 -138 -221z" />
</svg>
