<?xml version="1.0" standalone="no"?>
<!DOCTYPE svg PUBLIC "-//W3C//DTD SVG 1.1//EN" "http://www.w3.org/Graphics/SVG/1.1/DTD/svg11.dtd" >
<svg xmlns="http://www.w3.org/2000/svg" xmlns:xlink="http://www.w3.org/1999/xlink" version="1.1" width="2048" height="2048" viewBox="-10 0 2058 2048">
   <path fill="currentColor"
d="M483 1066q0 198 96 365t264 263.5t366 96.5q47 0 81 -36t34 -85t-33 -81t-82 -32q-205 0 -347.5 -143.5t-142.5 -347.5q0 -196 134 -340.5t315 -144.5l-55 53q-38 38 -35 82q0 46 33 81.5t82 35.5q51 0 85 -35l254 -252q33 -27 33 -85q0 -55 -33 -79l-254 -256
q-33 -35 -81.5 -35t-84 34.5t-35.5 83.5q0 52 36 85l50 47q-289 21 -484.5 228t-195.5 497z" />
</svg>
