<?xml version="1.0" standalone="no"?>
<!DOCTYPE svg PUBLIC "-//W3C//DTD SVG 1.1//EN" "http://www.w3.org/Graphics/SVG/1.1/DTD/svg11.dtd" >
<svg xmlns="http://www.w3.org/2000/svg" xmlns:xlink="http://www.w3.org/1999/xlink" version="1.1" width="2048" height="2048" viewBox="-10 0 2058 2048">
   <path fill="currentColor"
d="M174 974q0 57 38.5 96.5t93.5 32.5h1105l-173 181q-41 41 -41 93q0 57 40 96.5t97 39.5q54 -2 90 -46l411 -405q39 -39 39 -97q-1 -60 -41 -98l-414 -401q-38 -41 -91 -40q-57 0 -96.5 38t-39.5 94.5t40 96.5l178 181h-1107q-57 1 -94 41.5t-35 96.5z" />
</svg>
