<?xml version="1.0" standalone="no"?>
<!DOCTYPE svg PUBLIC "-//W3C//DTD SVG 1.1//EN" "http://www.w3.org/Graphics/SVG/1.1/DTD/svg11.dtd" >
<svg xmlns="http://www.w3.org/2000/svg" xmlns:xlink="http://www.w3.org/1999/xlink" version="1.1" width="2048" height="2048" viewBox="-10 0 2058 2048">
   <path fill="currentColor"
d="M747 865q0 -26 26.5 -70t50.5 -72q6 -8 16 -19.5t11 -12.5l25 30q29 32 53 74t24 70q0 43 -29.5 74t-72.5 31t-73.5 -31t-30.5 -74zM964 1154q0 -30 17 -70t41 -74q48 -64 92 -106q4 -4 18 -17l17 17q41 38 92 105q27 36 43.5 75t16.5 70q0 72 -48.5 120.5t-120.5 48.5
q-71 0 -119.5 -49.5t-48.5 -119.5zM1069 674q0 -45 70 -118l18 20q19 23 34.5 51t15.5 47q0 29 -19.5 48t-48.5 19q-30 0 -50 -19t-20 -48z" />
</svg>
