<?xml version="1.0" standalone="no"?>
<!DOCTYPE svg PUBLIC "-//W3C//DTD SVG 1.1//EN" "http://www.w3.org/Graphics/SVG/1.1/DTD/svg11.dtd" >
<svg xmlns="http://www.w3.org/2000/svg" xmlns:xlink="http://www.w3.org/1999/xlink" version="1.1" width="2048" height="2048" viewBox="-10 0 2058 2048">
   <path fill="currentColor"
d="M182 1091q0 -29 21 -47q18 -18 47 -18h161q28 0 46 18.5t18 46.5q0 29 -18.5 49t-45.5 20h-161q-28 0 -48 -20.5t-20 -48.5zM411 545q0 -30 17 -47q21 -21 49 -21q30 0 47 21l113 113q48 46 0 94q-20 20 -45 20q-23 0 -47 -20l-117 -113q-17 -19 -17 -47zM547 1467
q0 -27 21 -48q19 -19 47 -19h224q11 0 19 5l164 155l166 -155q7 -5 20 -5h229q28 0 48 19.5t20 47.5t-20 48t-48 20h-186l-218 198q-13 9 -23 0l-214 -198h-181q-28 0 -48 -20t-20 -48zM613 1091q0 103 40 182q6 11 19 11h129q9 0 11 -5t-5 -12q-62 -78 -62 -176
q0 -115 82 -195.5t198 -80.5q115 0 196.5 81t81.5 195q0 98 -62 176q-7 7 -5 12t11 5h130q14 0 17 -11q43 -81 43 -182q0 -83 -32.5 -159.5t-88 -132t-132 -88.5t-159.5 -33t-159.5 33t-132 88.5t-88 132t-32.5 159.5zM957 478v-161q0 -28 20 -48t48 -20t48 20t20 48v161
q0 28 -20 48t-48 20t-48 -20t-20 -48zM1393 658q0 -29 18 -47l114 -113q17 -21 47 -21q28 0 47 20t19 48q0 29 -17 47l-116 113q-24 20 -48 20q-27 0 -45.5 -19.5t-18.5 -47.5zM1573 1091q0 -28 18 -46.5t46 -18.5h161q28 0 48 18.5t20 46.5t-20 48.5t-48 20.5h-161
q-27 0 -45.5 -20t-18.5 -49z" />
</svg>
