<?xml version="1.0" standalone="no"?>
<!DOCTYPE svg PUBLIC "-//W3C//DTD SVG 1.1//EN" "http://www.w3.org/Graphics/SVG/1.1/DTD/svg11.dtd" >
<svg xmlns="http://www.w3.org/2000/svg" xmlns:xlink="http://www.w3.org/1999/xlink" version="1.1" width="2048" height="2048" viewBox="-10 0 2058 2048">
   <path fill="currentColor"
d="M540 1067q0 46 48 78q88 62 266 62q80 0 149 -13q72 -16 117.5 -49t45.5 -78q0 -14 -5 -28q93 -23 145.5 -61.5t52.5 -88.5q0 -13 -4 -27q153 -54 153 -146q0 -59 -67 -104q-130 -87 -381 -87q-119 0 -216 21q-103 21 -167 66.5t-64 103.5q0 35 21 63q-79 45 -79 110
q0 50 49 88q-64 37 -64 90zM567 1267q0 49 60 76.5t152 27.5t152.5 -27.5t60.5 -76.5q0 -19 -11.5 -31t-29.5 -12q-15 0 -27 10.5t-15 25.5q-13 10 -49 19t-81 9q-74 0 -120 -21q11 -11 12 -27t-7 -27q-10 -15 -27 -18t-31 6q-39 26 -39 66zM624 1067q0 -1 8 -8q6 -6 25 -15
t43 -16l5 -2q108 35 252 35q63 0 115 -7l12 11q-6 10 -28 22q-27 14 -83 25t-118.5 11t-119 -11t-83.5 -25q-23 -10 -28 -20zM629 1441q0 43 48 65.5t119 22.5q72 0 121 -22.5t49 -65.5q0 -17 -12.5 -30t-29.5 -13q-31 0 -41 32q-26 17 -87 17q-54 0 -86 -17
q-10 -32 -41 -32q-17 0 -28.5 12.5t-11.5 30.5zM638 889q0 -5 6 -13q17 -20 64 -39q128 69 352 69q114 0 214 -21v4q0 10 -12 20q-28 24 -102 46q-81 24 -203 24t-203 -24q-78 -22 -104 -46q-12 -10 -12 -20zM696 716q0 -12 16 -26q30 -28 119 -54q95 -28 229 -28t230 28
q90 26 119 54q15 15 15 26t-15 25q-29 28 -119 55q-96 28 -230 28t-229 -28q-90 -26 -119 -55q-16 -14 -16 -25z" />
</svg>
