<?xml version="1.0" standalone="no"?>
<!DOCTYPE svg PUBLIC "-//W3C//DTD SVG 1.1//EN" "http://www.w3.org/Graphics/SVG/1.1/DTD/svg11.dtd" >
<svg xmlns="http://www.w3.org/2000/svg" xmlns:xlink="http://www.w3.org/1999/xlink" version="1.1" width="2048" height="2048" viewBox="-10 0 2058 2048">
   <path fill="currentColor"
d="M481 637q-2 57 37 97t95 39q55 3 95 -40l178 -176v1107q-2 56 38 94t98 36q56 4 96.5 -34t42.5 -95v-1106l176 176q38 39 95 39q58 0 96.5 -38.5t38.5 -94.5q-3 -59 -42 -92l-402 -412q-39 -38 -99 -43q-60 3 -99 44l-403 410q-41 34 -41 89z" />
</svg>
