<?xml version="1.0" standalone="no"?>
<!DOCTYPE svg PUBLIC "-//W3C//DTD SVG 1.1//EN" "http://www.w3.org/Graphics/SVG/1.1/DTD/svg11.dtd" >
<svg xmlns="http://www.w3.org/2000/svg" xmlns:xlink="http://www.w3.org/1999/xlink" version="1.1" width="2048" height="2048" viewBox="-10 0 2062 2048">
   <path fill="currentColor"
d="M6 1025q0 -207 80.5 -396.5t216.5 -324.5t323.5 -216t394.5 -81q209 0 397.5 81t325 217t217.5 324.5t81 393.5q0 208 -81 397t-217.5 325.5t-325 217t-395.5 80.5q-206 0 -394.5 -80.5t-324.5 -216.5t-217 -324.5t-81 -396.5zM229 1025q0 215 107 397.5t290 288
t397 105.5q160 0 307.5 -63t254.5 -169.5t170 -253t63 -307.5q0 -323 -237 -560q-236 -233 -560 -233q-160 0 -307 63.5t-253 170t-169 253.5t-63 308zM658 1354l119 -317q7 -14 0 -28l-119 -312q-7 -13 1 -21t23 -2l793 335q15 3 15 14t-15 14l-793 341q-15 5 -23 -2
t-1 -22z" />
</svg>
