<?xml version="1.0" standalone="no"?>
<!DOCTYPE svg PUBLIC "-//W3C//DTD SVG 1.1//EN" "http://www.w3.org/Graphics/SVG/1.1/DTD/svg11.dtd" >
<svg xmlns="http://www.w3.org/2000/svg" xmlns:xlink="http://www.w3.org/1999/xlink" version="1.1" width="2048" height="2048" viewBox="-10 0 2062 2048">
   <path fill="currentColor"
d="M6 1025q0 -207 80.5 -396.5t216.5 -324.5t323.5 -216t394.5 -81q209 0 397.5 81t325 217t217.5 324.5t81 393.5q0 208 -81 397t-217.5 325.5t-325 217t-395.5 80.5q-206 0 -394.5 -80.5t-324.5 -216.5t-217 -324.5t-81 -396.5zM229 1025q0 215 107 397.5t290 288
t397 105.5q160 0 307.5 -63t254.5 -169.5t170 -253t63 -307.5q0 -323 -237 -560q-236 -233 -560 -233q-160 0 -307 63.5t-253 170t-169 253.5t-63 308zM694 721q-3 -15 4 -23t21 -2l799 330q16 3 16 13q0 12 -16 19l-304 138q-13 5 -20 20l-138 305q-7 15 -19 15
q-10 0 -13 -15z" />
</svg>
