<?xml version="1.0" standalone="no"?>
<!DOCTYPE svg PUBLIC "-//W3C//DTD SVG 1.1//EN" "http://www.w3.org/Graphics/SVG/1.1/DTD/svg11.dtd" >
<svg xmlns="http://www.w3.org/2000/svg" xmlns:xlink="http://www.w3.org/1999/xlink" version="1.1" width="2048" height="2048" viewBox="-10 0 2058 2048">
   <path fill="currentColor"
d="M432 883q0 -98 61.5 -175t156.5 -98q27 -117 120.5 -192t213.5 -75q118 0 210.5 73t119.5 187h19q117 0 200 81.5t83 198.5q0 62 -26 118t-71 96v2q0 61 -39 110t-98 62q-15 65 -63 110t-113 55q30 36 30 79q0 50 -35.5 86t-86 36t-86 -36t-35.5 -86q0 -20 8 -40h-8
q-60 0 -104 -43.5t-44 -104.5q0 -41 21 -74q-54 -30 -78 -87h-81h-2h-5q-113 -7 -190.5 -88.5t-77.5 -194.5zM529 866q0 83 59 142t141 59q52 0 96 -24q12 78 72 129.5t141 51.5q90 0 154 -64q43 49 107 49q59 0 101 -42t42 -101q42 -28 66 -72t24 -95q0 -83 -59 -141
t-143 -58q-58 0 -106 31q6 -25 6 -55q0 -100 -71.5 -170.5t-173.5 -70.5q-98 0 -169 68t-74 165q-2 0 -6 -0.5t-7 -0.5q-82 0 -141 58.5t-59 140.5z" />
</svg>
