<?xml version="1.0" standalone="no"?>
<!DOCTYPE svg PUBLIC "-//W3C//DTD SVG 1.1//EN" "http://www.w3.org/Graphics/SVG/1.1/DTD/svg11.dtd" >
<svg xmlns="http://www.w3.org/2000/svg" xmlns:xlink="http://www.w3.org/1999/xlink" version="1.1" width="2048" height="2048" viewBox="-10 0 2058 2048">
   <path fill="currentColor"
d="M491 1168q0 -23 16 -38.5t44 -15.5h397q28 0 44.5 15.5t16.5 38.5q0 29 -16 45t-45 16h-397q-28 0 -44 -16t-16 -45zM491 757q0 -23 16 -38t44 -15h206q28 0 44.5 15t16.5 38q0 28 -16.5 44.5t-44.5 16.5h-206q-28 0 -44 -16t-16 -45zM559 1374q0 -23 19.5 -42.5
t41.5 -19.5q27 0 43.5 18.5t16.5 43.5q0 28 -16 44.5t-44 16.5q-24 0 -42.5 -17t-18.5 -44zM658 962q0 -24 15.5 -43t37.5 -19q27 0 44 19t17 43q0 28 -16 44.5t-45 16.5q-24 0 -38.5 -16.5t-14.5 -44.5zM727 1374q0 -25 16.5 -43.5t44.5 -18.5h266l62 62q0 27 -19 44
t-43 17h-266q-29 0 -45 -16.5t-16 -44.5zM818 962q0 -23 19.5 -42.5t42.5 -19.5h266q28 0 44.5 19t16.5 43q0 28 -16.5 44.5t-44.5 16.5h-266q-24 0 -43 -17t-19 -44zM871 757q0 -23 16.5 -38t44.5 -15h397q24 0 43 15.5t19 37.5q0 28 -19 44.5t-43 16.5h-397
q-28 0 -44.5 -16.5t-16.5 -44.5zM1054 1168q0 -22 19 -38t42.5 -16t42.5 16t19 38q0 28 -18.5 44.5t-43 16.5t-43 -16.5t-18.5 -44.5zM1161 1374q0 -25 16.5 -43.5t44.5 -18.5h129q28 0 44.5 18.5t16.5 43.5q0 28 -16 44.5t-45 16.5h-129q-28 0 -44.5 -16.5t-16.5 -44.5z
M1222 1168q0 -22 19 -38t42 -16h213q23 0 38 15.5t15 38.5q0 28 -14.5 44.5t-38.5 16.5h-213q-24 0 -42.5 -16.5t-18.5 -44.5zM1252 962q0 -23 19.5 -42.5t42.5 -19.5h136q22 0 37.5 19t15.5 43q0 28 -15 44.5t-38 16.5h-136q-24 0 -43 -17t-19 -44zM1443 757q0 -23 15 -38
t38 -15q28 0 44.5 15t16.5 38q0 28 -16.5 44.5t-44.5 16.5q-23 0 -38 -16.5t-15 -44.5z" />
</svg>
