<?xml version="1.0" standalone="no"?>
<!DOCTYPE svg PUBLIC "-//W3C//DTD SVG 1.1//EN" "http://www.w3.org/Graphics/SVG/1.1/DTD/svg11.dtd" >
<svg xmlns="http://www.w3.org/2000/svg" xmlns:xlink="http://www.w3.org/1999/xlink" version="1.1" width="2048" height="2048" viewBox="-10 0 2058 2048">
   <path fill="currentColor"
d="M276 1190q0 139 97 239t236 106q13 0 13 -12v-93q0 -11 -13 -11q-89 -6 -152 -72.5t-63 -156.5q0 -87 59 -151t146 -74l37 -3q14 0 14 -12l5 -38q11 -113 95.5 -189t198.5 -76q113 0 198.5 76t97.5 189l5 40q0 13 12 13h112q95 0 162 66t67 159q0 90 -63 156.5t-153 72.5
q-13 0 -13 11v93q0 12 13 12q140 -4 236.5 -105t96.5 -240q0 -74 -30 -140q82 -100 82 -230q0 -99 -49 -183.5t-133 -133.5t-183 -49q-161 0 -270 121q-84 -45 -188 -45q-148 0 -262 91.5t-146 233.5q-116 27 -190.5 120.5t-74.5 214.5zM657 1726q0 22 17 40q18 17 40 17
q25 0 41.5 -16.5t16.5 -40.5q0 -25 -17 -41t-41 -16t-40.5 16t-16.5 41zM717 1474q0 25 16.5 42.5t40.5 17.5t40.5 -17.5t16.5 -42.5q0 -24 -16.5 -40.5t-40.5 -16.5t-40.5 16.5t-16.5 40.5zM848 1862q0 22 17 39q18 18 41 18q24 0 41.5 -16.5t17.5 -41t-17.5 -42
t-41.5 -17.5q-23 0 -40.5 17.5t-17.5 42.5zM908 1607q0 23 17 42q17 17 40 17q25 0 42.5 -17t17.5 -42q0 -24 -17.5 -41t-42.5 -17q-23 0 -40 17t-17 41zM938 1357q0 24 17 41t40 17q25 0 42 -17t17 -41t-17 -41t-42 -17q-23 0 -40 17t-17 41zM1103 1726q0 22 16 40
q18 17 42 17t40.5 -16.5t16.5 -40.5q0 -25 -16.5 -41t-41 -16t-41 16.5t-16.5 40.5zM1162 1474q0 25 17 42.5t41 17.5t40.5 -17.5t16.5 -42.5q0 -24 -16.5 -40.5t-40.5 -16.5t-41 16.5t-17 40.5zM1235 642q70 -70 172.5 -70t173.5 72.5t71 175.5q0 61 -35 127
q-100 -100 -243 -100h-21q-31 -121 -118 -205z" />
</svg>
