<?xml version="1.0" standalone="no"?>
<!DOCTYPE svg PUBLIC "-//W3C//DTD SVG 1.1//EN" "http://www.w3.org/Graphics/SVG/1.1/DTD/svg11.dtd" >
<svg xmlns="http://www.w3.org/2000/svg" xmlns:xlink="http://www.w3.org/1999/xlink" version="1.1" width="2048" height="2048" viewBox="-10 0 2058 2048">
   <path fill="currentColor"
d="M275 1189q0 117 69.5 209t179.5 122l-45 118q-6 15 9 15h148l-99 293h20l303 -394q4 -4 1.5 -9t-9.5 -5h-152l173 -323q8 -15 -10 -15h-206q-10 0 -16 10l-74 200q-75 -19 -124 -80.5t-49 -140.5q0 -88 58.5 -152t146.5 -74l35 -2q13 0 16 -10l5 -41q11 -112 95.5 -189
t199.5 -77q113 0 198.5 77t97.5 189l5 41q0 12 13 12h112q93 0 160 67t67 159q0 91 -62 157.5t-151 71.5q-14 0 -14 12v93q0 12 14 12q91 -2 168 -49.5t121 -126t44 -170.5q0 -76 -30 -140q80 -100 80 -229q0 -99 -49.5 -183t-133.5 -133.5t-184 -49.5q-74 0 -145 31.5
t-122 86.5q-84 -45 -189 -45q-148 0 -262.5 91.5t-146.5 234.5q-115 27 -190.5 121.5t-75.5 214.5zM823 1899q0 18 11 34.5t34 23.5q9 2 17 2q45 0 56 -43l9 -41q6 -26 -6.5 -47t-36.5 -26q-22 -7 -43.5 5t-28.5 36l-9 41q-3 11 -3 15zM878 1697q0 24 17 41t40 17
q25 0 41.5 -16.5t16.5 -41.5q0 -24 -16.5 -40t-41 -16t-41 16t-16.5 40zM921 1540q-1 15 9.5 32t31.5 21q24 7 44.5 -3.5t28.5 -39.5l18 -62q7 -23 -5 -44t-36 -28q-23 -7 -44.5 5.5t-28.5 36.5l-16 63q-2 8 -2 19zM1113 1689q0 18 10.5 33.5t32.5 22.5q3 0 9.5 1.5t9.5 1.5
q43 0 53 -46l10 -42q7 -22 -5 -43.5t-36 -28.5q-26 -7 -47 5.5t-28 36.5l-7 41q0 2 -1 8.5t-1 9.5zM1165 1484q0 24 17 39q15 17 40 17t41 -16t16 -40q0 -25 -16 -41.5t-41 -16.5t-41 16.5t-16 41.5zM1236 642q70 -67 170 -67q103 0 175 71.5t72 173.5q0 69 -33 126
q-100 -100 -244 -100h-22q-30 -124 -118 -204z" />
</svg>
