<?xml version="1.0" standalone="no"?>
<!DOCTYPE svg PUBLIC "-//W3C//DTD SVG 1.1//EN" "http://www.w3.org/Graphics/SVG/1.1/DTD/svg11.dtd" >
<svg xmlns="http://www.w3.org/2000/svg" xmlns:xlink="http://www.w3.org/1999/xlink" version="1.1" width="2048" height="2048" viewBox="-10 0 2058 2048">
   <path fill="currentColor"
d="M266 1190q0 115 69 206t179 124l-45 118q-5 14 10 14h147l-90 291h19l294 -391q4 -4 1.5 -9t-9.5 -5h-151l172 -323q7 -15 -9 -15h-206q-9 0 -16 11l-74 200q-74 -19 -123.5 -81.5t-49.5 -139.5q0 -87 59 -151t146 -74l37 -5q14 0 14 -13l5 -35q11 -113 95.5 -189
t198.5 -76q113 0 198.5 76.5t96.5 188.5l6 40q0 13 11 13h113q95 0 162 66t67 159q0 88 -62.5 153.5t-153.5 71.5q-13 0 -13 13v95q0 12 13 12q139 -4 235.5 -105t96.5 -240q0 -91 -45 -170q79 -77 105 -183l13 -47v-5q0 -8 -10 -11l-43 -12q-60 -17 -101.5 -58t-59 -85
t-16.5 -87q0 -29 7 -60l8 -42q2 -10 -10 -16l-55 -17q-49 -10 -86 -10q-39 -1 -79 8t-82.5 28t-82 54.5t-68.5 84.5q-88 -32 -165 -32q-148 0 -262 91.5t-146 233.5q-116 27 -190.5 120.5t-74.5 214.5zM814 1899q0 18 11 34.5t33 23.5q10 2 17 2q45 0 56 -43l9 -41
q6 -26 -6 -47t-36 -26q-23 -7 -44.5 5t-28.5 36l-9 41q-2 11 -2 15zM868 1697q0 24 17 41t41 17t40.5 -16.5t16.5 -41.5q0 -24 -16.5 -40t-41 -16t-41 16t-16.5 40zM911 1540q-1 15 9.5 32t31.5 21q24 7 44.5 -3.5t28.5 -39.5l19 -62q7 -23 -5 -44t-37 -28q-23 -7 -44.5 5.5
t-28.5 36.5l-16 63q-2 8 -2 19zM1103 1689q0 18 10.5 33.5t32.5 22.5q3 0 9.5 1.5t9.5 1.5q43 0 53 -46l10 -42q7 -22 -5 -43.5t-35 -28.5q-27 -7 -48 5.5t-28 36.5l-7 41q0 2 -1 8.5t-1 9.5zM1155 1484q0 24 17 39q16 17 40.5 17t41 -16t16.5 -40q0 -25 -16.5 -41.5
t-41 -16.5t-41 16.5t-16.5 41.5zM1204 626q34 -58 93 -90t123 -32h15v22q0 67 23 129.5t70.5 115.5t111.5 84q-17 39 -52 72q-95 -82 -224 -82h-23q-29 -131 -137 -219z" />
</svg>
