<?xml version="1.0" standalone="no"?>
<!DOCTYPE svg PUBLIC "-//W3C//DTD SVG 1.1//EN" "http://www.w3.org/Graphics/SVG/1.1/DTD/svg11.dtd" >
<svg xmlns="http://www.w3.org/2000/svg" xmlns:xlink="http://www.w3.org/1999/xlink" version="1.1" width="2048" height="2048" viewBox="-10 0 2058 2048">
   <path fill="currentColor"
d="M85 1189q0 117 69.5 209t179.5 122l-46 118q-5 15 10 15h148l-99 293h20l303 -394q4 -4 1.5 -9t-10.5 -5h-152l173 -323q8 -15 -10 -15h-205q-10 0 -17 10l-74 200q-75 -19 -124 -80.5t-49 -140.5q0 -88 59 -152t147 -74l35 -2q12 0 15 -10l6 -41q11 -112 95 -189
t199 -77q114 0 199.5 77t97.5 189l5 41q0 12 12 12h112q93 0 160.5 67t67.5 159q0 91 -62.5 157.5t-151.5 71.5q-14 0 -14 12v93q0 12 14 12q92 -2 168.5 -49.5t121 -126t44.5 -170.5q0 -76 -30 -140q79 -100 79 -229q0 -99 -49 -183t-133.5 -133.5t-183.5 -49.5
q-75 0 -145.5 31.5t-122.5 86.5q-84 -45 -189 -45q-148 0 -262.5 91.5t-145.5 234.5q-116 27 -191 121.5t-75 214.5zM670 335q0 24 17 42l45 45q17 16 39 18q21 4 42 -15t21 -44t-18 -42l-43 -46q-17 -17 -42 -17q-26 0 -43.5 17t-17.5 42zM751 1611q0 26 17 41q17 17 41 17
t42 -17t18 -41t-18 -42t-42 -18q-23 0 -40.5 18t-17.5 42zM751 1359q0 24 17 40q17 17 41 17q25 0 42.5 -16.5t17.5 -40.5q0 -25 -18 -42t-42 -17t-41 17t-17 42zM751 1867q0 23 17 40q18 17 41 17q24 0 42 -16.5t18 -40.5q0 -25 -18 -43t-42 -18q-23 0 -40.5 18t-17.5 43z
M976 1477q0 24 17.5 41.5t41.5 17.5t40.5 -17.5t16.5 -41.5t-16.5 -41t-40.5 -17t-41.5 17t-17.5 41zM976 1729q0 24 17 41t42 17t41 -17t16 -41t-16 -40.5t-41 -16.5t-42 16.5t-17 40.5zM1046 642q70 -67 170 -67q102 0 174 71.5t72 173.5q0 69 -32 126
q-101 -100 -245 -100h-21q-31 -124 -118 -204zM1157 276q0 25 17 42.5t42 17.5t41.5 -17t16.5 -43v-143q0 -26 -16.5 -43t-41.5 -17t-42 17.5t-17 42.5v143zM1544 435.5q0 25.5 17 41.5q14 16 38 17.5t44 -17.5l100 -100q18 -17 18 -42t-18 -42q-17 -18 -42 -18
q-24 0 -40 18l-100 101q-17 16 -17 41.5zM1598 1263q0 25 18 42l45 44q19 17 43 17l1 2q23 0 38 -19q18 -17 18 -42q0 -24 -18 -42l-43 -43q-19 -19 -42 -19q-25 0 -42.5 18t-17.5 42zM1700 820q0 26 18 41q17 19 42 19h143q25 0 42.5 -17.5t17.5 -42t-17 -41.5t-43 -17
h-143q-25 0 -42.5 17t-17.5 41z" />
</svg>
