<?xml version="1.0" standalone="no"?>
<!DOCTYPE svg PUBLIC "-//W3C//DTD SVG 1.1//EN" "http://www.w3.org/Graphics/SVG/1.1/DTD/svg11.dtd" >
<svg xmlns="http://www.w3.org/2000/svg" xmlns:xlink="http://www.w3.org/1999/xlink" version="1.1" width="2048" height="2048" viewBox="-10 0 2058 2048">
   <path fill="currentColor"
d="M275 1189q0 117 69.5 209t179.5 122l-45 118q-6 15 9 15h148l-99 293h20l303 -394q4 -4 1.5 -9t-9.5 -5h-152l173 -323q8 -15 -10 -15h-206q-10 0 -16 10l-74 200q-75 -19 -124 -80.5t-49 -140.5q0 -88 58.5 -152t146.5 -74l35 -2q13 0 16 -10l5 -41q11 -112 95.5 -189
t199.5 -77q113 0 198.5 77t97.5 189l5 41q0 12 13 12h112q93 0 160 67t67 159q0 91 -62 157.5t-151 71.5q-14 0 -14 12v93q0 12 14 12q91 -2 168 -49.5t121 -126t44 -170.5q0 -76 -30 -140q80 -100 80 -229q0 -99 -49.5 -183t-133.5 -133.5t-184 -49.5q-74 0 -145 31.5
t-122 86.5q-84 -45 -189 -45q-148 0 -262.5 91.5t-146.5 234.5q-115 27 -190.5 121.5t-75.5 214.5zM942 1611q0 26 17 41q17 17 40 17q25 0 42.5 -17t17.5 -41t-17.5 -42t-42.5 -18q-23 0 -40 18t-17 42zM942 1359q0 24 17 40q17 17 40 17q26 0 43 -16.5t17 -40.5
q0 -25 -17.5 -42t-42.5 -17q-23 0 -40 17t-17 42zM942 1867q0 23 17 40t40 17q25 0 42.5 -16.5t17.5 -40.5q0 -25 -17.5 -43t-42.5 -18q-23 0 -40 18t-17 43zM1167 1477q0 24 17 41.5t41 17.5t41 -17.5t17 -41.5t-17 -41t-41 -17t-41 17t-17 41zM1167 1729q0 24 17 41
t41.5 17t41 -17t16.5 -41t-16.5 -40.5t-41 -16.5t-41.5 16.5t-17 40.5zM1236 642q70 -67 170 -67q103 0 175 71.5t72 173.5q0 69 -33 126q-100 -100 -244 -100h-22q-30 -124 -118 -204z" />
</svg>
