<?xml version="1.0" standalone="no"?>
<!DOCTYPE svg PUBLIC "-//W3C//DTD SVG 1.1//EN" "http://www.w3.org/Graphics/SVG/1.1/DTD/svg11.dtd" >
<svg xmlns="http://www.w3.org/2000/svg" xmlns:xlink="http://www.w3.org/1999/xlink" version="1.1" width="2048" height="2048" viewBox="-10 0 2068 2048">
   <path fill="currentColor"
d="M0 1024q0 -35 24 -60q26 -23 58 -23h197q34 0 56 24.5t22 58.5t-22 58t-56 24h-197q-33 0 -57.5 -24.5t-24.5 -57.5zM276 1692q0 -34 22 -59l142 -137q22 -23 57 -23q34 0 57 21.5t23 55.5q0 35 -23 61l-138 138q-58 46 -118 0q-22 -25 -22 -57zM276 357q0 -33 22 -58
q28 -24 62 -24q31 0 56 24l138 141q23 22 23 57t-23 58t-57 23q-35 0 -57 -24l-142 -137q-22 -24 -22 -60zM521 1024q0 -135 68 -251t184 -183.5t251 -67.5q101 0 194 40t160 107.5t107 160.5t40 194q0 135 -67.5 251t-183 183t-251 67t-251 -67t-183.5 -183t-68 -251z
M941 1773q0 -34 24 -57.5t59 -23.5t58.5 23.5t23.5 57.5v191q0 36 -24 60t-58.5 24t-58.5 -24t-24 -60v-191zM941 280v-197q0 -34 24.5 -58.5t58 -24.5t58 24.5t24.5 58.5v197q0 33 -24 55t-58.5 22t-58.5 -22t-24 -55zM951 696q126 15 211.5 111t85.5 225q0 120 -75.5 212
t-191.5 117q29 4 43 4q140 0 240 -100t100 -241q0 -139 -100 -237.5t-240 -98.5q-37 0 -73 8zM1473 1550q0 -34 22 -54q22 -23 54 -23q36 0 58 23l141 137q24 25 24 58.5t-24 57.5q-58 45 -116 0l-137 -138q-22 -24 -22 -61zM1473 497q0 -36 22 -57l137 -141q26 -24 57 -24
q35 0 59 24.5t24 57.5q0 36 -24 60l-141 137q-26 24 -58 24t-54 -23t-22 -58zM1691 1024q0 -34 24 -60q23 -23 55 -23h195q33 0 58 25t25 58t-25 57.5t-58 24.5h-195q-34 0 -56.5 -24t-22.5 -58z" />
</svg>
