<?xml version="1.0" standalone="no"?>
<!DOCTYPE svg PUBLIC "-//W3C//DTD SVG 1.1//EN" "http://www.w3.org/Graphics/SVG/1.1/DTD/svg11.dtd" >
<svg xmlns="http://www.w3.org/2000/svg" xmlns:xlink="http://www.w3.org/1999/xlink" version="1.1" width="2048" height="2048" viewBox="-10 0 2058 2048">
   <path fill="currentColor"
d="M485 1379q0 -14 1 -20v-6v-4v-3.5t0.5 -3.5l0.5 -2v-2q0 -3 1.5 -8t1.5 -6v-2v-3v-3l6 -25q0 -1 1 -2v-1l2 -10q1 0 1 -1q1 -1 1 -2v-2q4 -13 7 -19q0 -1 1 -2q1 -2 3 -11q18 -39 44 -75l4 -5q1 -1 2 -2.5t2 -2.5t5 -4q0 -2 2 -4t3 -4q4 -2 4 -5q2 -1 5 -4l4 -5l529 -579
l-27 153l474 -507l-291 565l291 -219l-263 528l188 -129l-325 579l-1.5 2.5t-1.5 3.5q-1 1 -1.5 3t-1.5 3t-2 3.5t-1 3.5q-45 87 -129 140t-186 53q-96 0 -177.5 -48t-129 -129t-47.5 -177zM569 1379q0 112 79 191t191 79q85 0 154 -49t98 -128q18 -44 18 -93
q0 -112 -79 -191t-191 -79q-104 0 -181 70q-42 37 -65.5 89t-23.5 111z" />
</svg>
