<?xml version="1.0" standalone="no"?>
<!DOCTYPE svg PUBLIC "-//W3C//DTD SVG 1.1//EN" "http://www.w3.org/Graphics/SVG/1.1/DTD/svg11.dtd" >
<svg xmlns="http://www.w3.org/2000/svg" xmlns:xlink="http://www.w3.org/1999/xlink" version="1.1" width="2048" height="2048" viewBox="-10 0 2058 2048">
   <path fill="currentColor"
d="M269 1041q0 -25 19 -42q17 -18 43 -18h143q25 0 42 17.5t17 42.5q0 26 -17 43.5t-42 17.5h-143q-26 0 -44 -17.5t-18 -43.5zM472 554q0 -24 17 -43q20 -18 46 -18q22 0 41 18l101 103q17 16 17 41t-17 42.5t-41 17.5q-27 0 -43 -18l-104 -100q-17 -18 -17 -43zM653 1041
q0 -73 30 -141.5t79.5 -117.5t118 -78.5t142.5 -29.5q100 0 185.5 49.5t135 134.5t49.5 183q0 16 -2 30q-29 -18 -67 -18q-26 0 -50 10v-22q0 -101 -73.5 -173t-177.5 -72q-103 0 -176 72t-73 173v13q-31 2 -59 17q-1 1 -7.5 5.5t-13 9.5t-16 13t-18.5 17q-7 -34 -7 -75z
M655 1295v-10q0 -10 1 -23q6 -37 30 -71q13 -17 19 -21q0 -2 2 -4l3 -3q3 -1 8 -7q2 -3 6 -5.5t5 -3.5q5 -5 10 -7l11 -8q15 -10 35 -10h2q10 0 18 2q3 1 9 5q15 7 24 20t9 29q0 18 -10 29q-7 10 -16 17q-2 0 -4 1.5t-3 1.5l-4 3q-4 3 -7 5.5t-7.5 7.5t-7.5 9.5t-6 10.5
t-4 12v9v2q4 15 8 24q7 15 24 31q1 2 17 18q89 81 84 174q-2 31 -15 60t-30 49t-27 29.5t-18 14.5l-3.5 2.5t-5.5 3.5q-8 3 -15 4q-9 1 -13 1q-32 0 -50 -20q-15 -19 -12.5 -41.5t22.5 -37.5l2 -1l3 -3t5 -4.5t6 -5.5t6 -7t5.5 -8.5t5.5 -9.5t5 -10t3.5 -11.5t1.5 -12.5
q2 -20 -11 -41q-5 -11 -15 -23q-7 -9 -11 -11q-9 -12 -10 -13q-2 -1 -5 -3.5t-4 -3.5q-16 -14 -24 -25q-13 -16 -17 -22q-20 -27 -27 -54q-5 -15 -5 -22q0 -2 -1.5 -5.5t-1.5 -6.5zM925 1272q0 -6 1 -10q2 -23 13 -44.5t24.5 -36.5t26 -26.5t22.5 -17.5l8 -5q16 -10 35 -10
q11 0 20 2q1 0 4 1.5t4 3.5h2q1 0 5 3q21 13 27 38v4.5v3.5q0 3 -1 8t-1 6q-8 24 -30 35q-34 23 -36 48q-1 9 0 15q2 13 11 28q12 16 17 22q17 16 20 19q13 11 33 35q56 68 51 139q-2 31 -14.5 60t-29.5 48.5t-28 30t-18 14.5l-8 6q-11 3 -15 4q-11 1 -13 1h-2q-9 0 -13 -1
q-2 0 -5.5 -1t-5.5 -1l-1.5 -0.5t-3 -1.5l-1.5 -1q-16 -11 -19 -14q-16 -19 -12.5 -41.5t23.5 -37.5l2 -2q2 -2 6 -5.5t8.5 -8t8.5 -11.5t8 -13.5t6.5 -15t2.5 -17.5q2 -41 -48 -88q-20 -17 -31 -30q-58 -68 -53 -135zM963 496v-144q0 -25 18 -42.5t42 -17.5q26 0 43.5 17.5
t17.5 42.5v144q0 25 -17.5 41.5t-43.5 16.5q-24 0 -42 -16.5t-18 -41.5zM1196 1262q3 -23 14 -44.5t24.5 -36.5t26 -26.5t20.5 -17.5l10 -5q2 -2 7 -5q11 -5 26 -5q35 0 53 27q5 7 7 15q2 3 2 6v8q0 33 -32 49q-33 22 -36 48q-4 35 47 84q92 80 86 174q-2 31 -15 60t-30 49
t-27 29.5t-17 14.5q-17 10 -29 11h-11q-31 0 -48 -20q-15 -19 -12.5 -41.5t21.5 -37.5q4 -1 13 -9.5t19.5 -26.5t12.5 -37q2 -41 -49 -88q-43 -37 -65 -80q-24 -46 -18 -95zM1355 655q0 -26 16 -41l101 -103q19 -18 43 -18t42 18t18 43q0 26 -18 43l-103 100q-19 18 -42 18
q-24 0 -40.5 -17.5t-16.5 -42.5zM1515 1041q0 -23 19 -42q16 -18 40 -18h143q25 0 43.5 18t18.5 42q0 26 -18 43.5t-44 17.5h-143q-25 0 -42 -17.5t-17 -43.5z" />
</svg>
