<?xml version="1.0" standalone="no"?>
<!DOCTYPE svg PUBLIC "-//W3C//DTD SVG 1.1//EN" "http://www.w3.org/Graphics/SVG/1.1/DTD/svg11.dtd" >
<svg xmlns="http://www.w3.org/2000/svg" xmlns:xlink="http://www.w3.org/1999/xlink" version="1.1" width="2048" height="2048" viewBox="-10 0 2058 2048">
   <path fill="currentColor"
d="M422 882q0 -98 63 -174.5t161 -98.5q23 -116 118 -191.5t217 -75.5q117 0 208.5 72t119.5 188h20q78 0 146.5 34t109.5 93t41 128q0 117 -90 199q0 36 -22.5 83.5t-60.5 85.5t-76 47q-13 64 -60 108.5t-113 59.5q31 31 31 74q0 51 -36.5 87t-88.5 36q-50 0 -86.5 -36
t-36.5 -87q0 -6 2.5 -18.5t2.5 -18.5h-5q-62 0 -105.5 -44t-43.5 -106q0 -24 25 -73q-50 -27 -81 -88h-87q-114 -9 -193.5 -89.5t-79.5 -194.5z" />
</svg>
