<?xml version="1.0" standalone="no"?>
<!DOCTYPE svg PUBLIC "-//W3C//DTD SVG 1.1//EN" "http://www.w3.org/Graphics/SVG/1.1/DTD/svg11.dtd" >
<svg xmlns="http://www.w3.org/2000/svg" xmlns:xlink="http://www.w3.org/1999/xlink" version="1.1" width="2048" height="2048" viewBox="-10 0 2058 2048">
   <path fill="currentColor"
d="M582 1096q-118 -250 35 -472q107 -154 329 -189q17 -4 38 -6h44q304 9 445 270q66 123 33 272q-27 118 -89 220q-135 210 -278 339q-8 8 -21 18q-48 37 -89 38t-91 -31q-30 -18 -51 -41q-205 -209 -305 -418zM589 942q2 11 6.5 30.5t6.5 28.5q30 131 121 203.5t227 85.5
q30 3 35.5 -2.5t5.5 -35.5q-1 -9 -3 -27.5t-4 -26.5q-26 -140 -132 -204q-19 -12 -43.5 -24t-42.5 -19t-48 -18.5t-43 -17.5q-17 -6 -56 -7q-35 0 -30 34zM1062 1248q-3 32 4 38.5t38 2.5q40 -4 84 -14q111 -29 182 -119q35 -43 53.5 -93t33.5 -120q5 -23 -2.5 -32t-30.5 -5
q-61 10 -111 28q-120 45 -182.5 121t-68.5 193z" />
</svg>
