<?xml version="1.0" standalone="no"?>
<!DOCTYPE svg PUBLIC "-//W3C//DTD SVG 1.1//EN" "http://www.w3.org/Graphics/SVG/1.1/DTD/svg11.dtd" >
<svg xmlns="http://www.w3.org/2000/svg" xmlns:xlink="http://www.w3.org/1999/xlink" version="1.1" width="2048" height="2048" viewBox="-10 0 2058 2048">
   <path fill="currentColor"
d="M500 1017q0 -20 13.5 -34.5t33.5 -14.5t33.5 14.5t13.5 34.5t-14 33.5t-33.5 13.5t-33 -14t-13.5 -33zM637 1017q0 -20 14 -34.5t33 -14.5h224l-158 -158q-14 -13 -14 -33t14 -34.5t33.5 -14.5t34.5 15l157 157v-222q0 -21 14.5 -35t34.5 -14t33.5 14t13.5 35v224
l159 -159q15 -15 34 -15t34 15q12 14 12 34t-12 33l-158 158h224q19 0 33 14.5t14 34.5q0 19 -14 33t-33 14h-225l159 159q12 13 12 32.5t-12 33.5q-15 15 -34 15t-34 -15l-159 -159v225q0 21 -13.5 35t-33.5 14t-34.5 -14t-14.5 -35v-223l-157 157q-15 15 -34.5 15
t-33.5 -14.5t-14 -34t14 -32.5l160 -159h-226q-19 0 -33 -14t-14 -33zM639 1353.5q0 -19.5 14 -33.5q13 -14 33 -14t34 14t14 33.5t-14 34t-34 14.5t-33 -15q-14 -14 -14 -33.5zM639 678.5q0 -19.5 14 -33.5q13 -14 33 -14t34 14t14 33.5t-14 34.5q-14 14 -34 14t-33 -14
q-14 -15 -14 -34.5zM975 1493q0 -19 14.5 -33t34.5 -14t33.5 14t13.5 33q0 20 -13.5 34t-33.5 14t-34.5 -14t-14.5 -34zM975 539q0 -20 14.5 -34t34.5 -14t33.5 14t13.5 34q0 19 -13.5 33t-33.5 14t-34.5 -14t-14.5 -33zM1314 1353.5q0 -19.5 14 -33.5q13 -14 33 -14t34 14
t14 33.5t-14 34t-34 14.5t-33 -15q-14 -14 -14 -33.5zM1314 678.5q0 -19.5 14 -33.5q13 -14 33 -14t34 14t14 33.5t-14 34.5q-14 14 -34 14t-33 -14q-14 -15 -14 -34.5zM1453 1017q0 -20 14 -34.5t34 -14.5q19 0 33 14.5t14 34.5q0 19 -14 33t-33 14q-20 0 -34 -14t-14 -33z
" />
</svg>
