<?xml version="1.0" standalone="no"?>
<!DOCTYPE svg PUBLIC "-//W3C//DTD SVG 1.1//EN" "http://www.w3.org/Graphics/SVG/1.1/DTD/svg11.dtd" >
<svg xmlns="http://www.w3.org/2000/svg" xmlns:xlink="http://www.w3.org/1999/xlink" version="1.1" width="2048" height="2048" viewBox="-10 0 2058 2048">
   <path fill="currentColor"
d="M354 1140q68 -3 115 -52t47 -117q0 68 47 117t115 52q-68 4 -115 53t-47 117q0 -68 -47 -117t-115 -53zM516 640q132 -7 223.5 -102.5t91.5 -227.5q0 132 92 227.5t223 102.5q-86 4 -158.5 49t-114.5 120t-42 162q0 -133 -91.5 -229t-223.5 -102zM747 1389q99 -5 168 -77
t69 -172q0 100 68.5 172t167.5 77q-99 4 -167.5 76t-68.5 172q0 -100 -69 -172t-168 -76zM1220 1059q100 -5 168 -76.5t68 -171.5q0 99 69 171t169 77q-100 4 -169 76t-69 171q0 -99 -68 -171t-168 -76z" />
</svg>
