<?xml version="1.0" standalone="no"?>
<!DOCTYPE svg PUBLIC "-//W3C//DTD SVG 1.1//EN" "http://www.w3.org/Graphics/SVG/1.1/DTD/svg11.dtd" >
<svg xmlns="http://www.w3.org/2000/svg" xmlns:xlink="http://www.w3.org/1999/xlink" version="1.1" width="2048" height="2048" viewBox="-10 0 2058 2048">
   <path fill="currentColor"
d="M515 933q0 -104 40.5 -198.5t109 -162t162.5 -108t197 -40.5q104 0 198 40.5t162 108.5t108.5 162t40.5 198q0 169 -100 301.5t-258 181.5v229h-294v-226q-161 -47 -263.5 -181.5t-102.5 -304.5zM627 933q0 162 117 278q116 116 280 116q108 0 199.5 -52.5t144.5 -143.5
t53 -198q0 -80 -31.5 -153.5t-85 -126.5t-127 -84.5t-153.5 -31.5t-153.5 31.5t-127 84.5t-85 126.5t-31.5 153.5zM668 958v-50h150v50h-150zM743 712l37 -36l105 106l-36 36zM919 1055q0 -44 30.5 -76t73.5 -33l190 -312l46 24l-141 336q19 26 19 61q0 46 -32 77.5
t-78 31.5q-45 0 -76.5 -31.5t-31.5 -77.5zM1010 730v-150h49v150h-49zM1214 957v-51h151v51h-151z" />
</svg>
