<?xml version="1.0" standalone="no"?>
<!DOCTYPE svg PUBLIC "-//W3C//DTD SVG 1.1//EN" "http://www.w3.org/Graphics/SVG/1.1/DTD/svg11.dtd" >
<svg xmlns="http://www.w3.org/2000/svg" xmlns:xlink="http://www.w3.org/1999/xlink" version="1.1" width="2048" height="2048" viewBox="-10 0 2058 2048">
   <path fill="currentColor"
d="M509 1211q0 -92 50.5 -211t128.5 -230q163 -216 283 -325l52 -50q26 27 57 50q43 44 131 145t151 184q74 106 125.5 226t51.5 211q0 104 -40.5 199t-109.5 164t-164.5 109.5t-201.5 40.5q-105 0 -199.5 -39.5t-163.5 -107.5t-110 -163.5t-41 -202.5zM666 1007
q0 86 36.5 137.5t111.5 51.5q74 0 111 -51t38 -138q-1 -88 -38 -139.5t-111 -51.5q-75 0 -111.5 51.5t-36.5 139.5zM776 1006.5v-24t1 -23t3.5 -22.5t6.5 -16.5t10.5 -12.5t16.5 -4q14 0 22.5 8.5t12 26.5t4 31t0.5 36.5t-0.5 36.5t-4 31t-12 26.5t-22.5 8.5q-10 0 -16.5 -4
t-10.5 -12.5t-6.5 -17t-3.5 -22.5t-1 -22.5v-24zM816 1546h92l347 -747h-94zM1115 1338q2 87 38.5 138.5t110.5 51.5q75 0 111.5 -51t36.5 -139t-36.5 -139t-111.5 -51q-74 0 -110.5 51t-38.5 139zM1225 1337.5q0 -23.5 0.5 -36t4 -31t12 -27t22.5 -8.5q10 0 17 4t11 13
t7 16.5t3.5 22.5t1 22.5t0.5 24.5t-0.5 24.5t-1 22.5t-3.5 22.5t-7 16.5t-11 13t-17 4q-14 0 -22.5 -8.5t-12 -27t-4 -31.5t-0.5 -36.5z" />
</svg>
