<?xml version="1.0" standalone="no"?>
<!DOCTYPE svg PUBLIC "-//W3C//DTD SVG 1.1//EN" "http://www.w3.org/Graphics/SVG/1.1/DTD/svg11.dtd" >
<svg xmlns="http://www.w3.org/2000/svg" xmlns:xlink="http://www.w3.org/1999/xlink" version="1.1" width="2048" height="2048" viewBox="-10 0 2058 2048">
   <path fill="currentColor"
d="M256 923q0 -97 60 -173t152 -97q27 -115 118.5 -188.5t209.5 -73.5q115 0 205 72t117 184h18q115 0 196 80.5t81 195.5l-0.5 2t-0.5 4q79 84 79 198q0 79 -39.5 146.5t-106.5 106.5t-145 39q-100 0 -178 -62t-103 -157h-397q-111 -4 -188.5 -84.5t-77.5 -192.5zM350 923
q0 73 50.5 126.5t121.5 56.5h394q4 -2 8 -2h68q3 0 6 2h149q71 -3 122 -56.5t51 -126.5q0 -74 -55 -128t-129 -54h-90q-10 0 -10 -9l-4 -33q-9 -90 -77.5 -152t-158.5 -62q-93 0 -160.5 61.5t-76.5 152.5l-4 33q0 9 -11 9h-28q-71 8 -118.5 59.5t-47.5 122.5zM781 1549
q-26 -34 0 -68l79 -80q14 -12 36 -12q19 0 31.5 12t12.5 33q0 20 -12 33l-80 82q-13 13 -34 13q-20 0 -33 -13zM1017 1200q22 56 72 90.5t111 34.5q81 0 137 -58t56 -140q0 -40 -13 -73q-34 64 -96.5 104t-136.5 42h-130zM1152 1561q0 -20 14 -33t34 -13q19 0 34 14
q14 13 14 32v114q0 19 -14.5 33.5t-34 14.5t-33.5 -14.5t-14 -33.5v-114zM1459 1434q0 -19 13 -32t33 -13t32 12l83 80q13 15 13 33q0 20 -14 34t-34 14q-21 0 -35 -13l-78 -82q-13 -15 -13 -33zM1459 821q0 -20 13 -33l78 -82q15 -13 35 -13t35 13q13 16 13 35t-13 34
l-83 80q-13 13 -32.5 13t-32.5 -13.5t-13 -33.5zM1585 1127q0 -19 13 -33t33 -14h112q21 0 35 14t14 33q0 20 -14 34t-35 14h-112q-20 0 -33 -14t-13 -34z" />
</svg>
