<?xml version="1.0" standalone="no"?>
<!DOCTYPE svg PUBLIC "-//W3C//DTD SVG 1.1//EN" "http://www.w3.org/Graphics/SVG/1.1/DTD/svg11.dtd" >
<svg xmlns="http://www.w3.org/2000/svg" xmlns:xlink="http://www.w3.org/1999/xlink" version="1.1" width="2048" height="2048" viewBox="-10 0 2058 2048">
   <path fill="currentColor"
d="M231 949q0 -120 75.5 -214.5t190.5 -120.5q32 -143 146 -234t261 -91q144 0 256.5 89t146.5 229h23q94 0 173.5 45t125.5 124t46 173q0 120 -73 214q67 57 157 61l45 4q13 0 13 13v53q0 106 -51.5 195t-140.5 141t-193 52q-81 0 -153 -30.5t-123.5 -83t-81.5 -124
t-30 -150.5h-479q-140 -6 -237 -106t-97 -239zM350 949q0 90 63 156.5t152 71.5h778q89 -5 152 -71.5t63 -156.5q0 -92 -68 -159t-160 -67h-113q-12 0 -12 -11l-5 -41q-11 -113 -96.5 -188.5t-199.5 -75.5t-198.5 75.5t-94.5 188.5l-6 41q0 11 -13 11h-37q-87 11 -146 75
t-59 151zM1144 1294q0 83 42 151t107.5 104.5t138.5 36.5q64 0 126.5 -31.5t110 -95t59.5 -145.5q-112 -23 -189 -90q-88 67 -196 70h-199z" />
</svg>
