<?xml version="1.0" standalone="no"?>
<!DOCTYPE svg PUBLIC "-//W3C//DTD SVG 1.1//EN" "http://www.w3.org/Graphics/SVG/1.1/DTD/svg11.dtd" >
<svg xmlns="http://www.w3.org/2000/svg" xmlns:xlink="http://www.w3.org/1999/xlink" version="1.1" width="2048" height="2048" viewBox="-10 0 2058 2048">
   <path fill="currentColor"
d="M230 951q0 -120 75 -214t190 -121q33 -142 147 -233.5t261 -91.5q144 0 256.5 89t146.5 229h23q93 0 172.5 45t126 124t46.5 173q0 21 -2 42q68 53 107 132.5t39 169.5q0 80 -31 152t-83 123.5t-124 81.5t-151 30q-78 0 -150 -30.5t-123.5 -82t-82.5 -123.5t-31 -150
h-478q-140 -7 -237 -106.5t-97 -238.5zM349 951q0 90 62.5 157t152.5 71h778q89 -4 152 -71t63 -157q0 -92 -67.5 -158.5t-160.5 -66.5h-113q-12 0 -12 -12l-5 -40q-12 -113 -97 -189t-199 -76t-198.5 76t-95.5 189l-5 40q0 12 -14 12h-36q-87 10 -146 74t-59 151z
M1131 1306q7 117 96 196.5t202 79.5q63 0 118 -24.5t93 -65t59.5 -92t21.5 -105.5q0 -51 -20.5 -102.5t-59.5 -93.5q-40 86 -121 140t-178 57h-201q0 2 1 8q-8 2 -11 2z" />
</svg>
