<?xml version="1.0" standalone="no"?>
<!DOCTYPE svg PUBLIC "-//W3C//DTD SVG 1.1//EN" "http://www.w3.org/Graphics/SVG/1.1/DTD/svg11.dtd" >
<svg xmlns="http://www.w3.org/2000/svg" xmlns:xlink="http://www.w3.org/1999/xlink" version="1.1" width="2048" height="2048" viewBox="-10 0 2058 2048">
   <path fill="currentColor"
d="M450 1381q0 -82 47.5 -145t126.5 -88q33 -113 138 -173v-24q0 -152 96 -267.5t243 -143.5q37 -6 75 -6h2q22 0 49 3q27 2 51 8l63 19q14 7 11 19l-9 48q-8 34 -8 67q0 37 11.5 75t34.5 75t63 67t92 46l50 14q12 3 12 13q0 4 -1 5l-12 48q-6 25 -15 50q-16 46 -49 96
q0 -1 -1 -1q-45 66 -114 109q15 36 15 86q0 103 -72.5 176t-173.5 73h-476q-101 0 -175 -74t-74 -175zM588 1381q0 47 32 80t79 33h476q45 0 78 -33t33 -80q0 -45 -33 -77.5t-78 -32.5h-91q-11 0 -17 -16l-6 -44q-7 -60 -52 -100.5t-105 -40.5t-103 40.5t-50 100.5l-8 38
q0 16 -13 16l-43 6q-43 4 -71 35.5t-28 74.5zM895 936h9q96 0 172.5 54.5t107.5 145.5q81 0 141 51q73 -45 107 -122q-109 -55 -169.5 -156.5t-60.5 -216.5v-23q-4 0 -9 -0.5t-8 -0.5q-64 0 -123.5 27.5t-100.5 77.5l-2 -1q-57 70 -64 164z" />
</svg>
