<?xml version="1.0" standalone="no"?>
<!DOCTYPE svg PUBLIC "-//W3C//DTD SVG 1.1//EN" "http://www.w3.org/Graphics/SVG/1.1/DTD/svg11.dtd" >
<svg xmlns="http://www.w3.org/2000/svg" xmlns:xlink="http://www.w3.org/1999/xlink" version="1.1" width="2048" height="2048" viewBox="-10 0 2058 2048">
   <path fill="currentColor"
d="M452 1379q0 101 74 175t175 74h476q101 0 173 -73t72 -176q0 -50 -14 -86q87 -55 137.5 -147t50.5 -197q0 -85 -33 -162t-89 -133t-133 -89t-161 -33q-114 0 -210 56t-151 151.5t-55 209.5v23q-105 60 -138 173q-79 25 -126.5 88.5t-47.5 145.5zM590 1379q0 -44 28 -75
t71 -35l43 -6q13 0 13 -16l8 -39q7 -60 50 -100.5t103 -40.5t105 40.5t52 100.5l6 45q6 16 17 16h91q45 0 78 32.5t33 77.5q0 47 -33 80t-78 33h-476q-47 0 -79 -33t-32 -80zM897 934q7 -114 88.5 -191.5t194.5 -77.5q116 0 197 83t81 201q0 73 -35 135t-96 101
q-61 -51 -141 -51q-31 -91 -107.5 -145.5t-172.5 -54.5h-9z" />
</svg>
