<?xml version="1.0" standalone="no"?>
<!DOCTYPE svg PUBLIC "-//W3C//DTD SVG 1.1//EN" "http://www.w3.org/Graphics/SVG/1.1/DTD/svg11.dtd" >
<svg xmlns="http://www.w3.org/2000/svg" xmlns:xlink="http://www.w3.org/1999/xlink" version="1.1" width="2048" height="2048" viewBox="-10 0 2058 2048">
   <path fill="currentColor"
d="M303 1034q1 -35 34.5 -109.5t92.5 -160.5q194 -271 548 -286v-31q0 -22 15 -35t33 -13q20 0 35 13t15 35v31q102 4 191 31t154 69.5t112 88t84 97.5q43 62 73.5 132t42.5 112l12 42v6v7q0 19 -14.5 31t-34.5 12q-32 0 -41 -19q-82 -91 -178 -91q-35 2 -71 16t-57.5 29
t-40.5 30.5t-20 15.5q-19 19 -37 19q-23 0 -36 -13q-75 -75 -139 -92v513v5v9q0 4 -0.5 12t-1 14.5t-2.5 15.5t-4 17.5t-6 18.5t-9 18.5t-12 18t-15 17.5q-52 61 -151 61q-106 0 -159 -61q-12 -13 -21.5 -27t-14.5 -28t-8.5 -27t-4 -25.5t-1 -20.5t0 -16t0.5 -9
q0 -19 16.5 -32.5t38.5 -9.5q18 0 30.5 16t12.5 39q-6 42 18 72q21 31 92 31q54 0 78 -25q14 -13 20.5 -32.5t5.5 -32.5l-1 -13v-512q-76 18 -134 79q-5 9 -16.5 16.5t-20.5 7.5q-18 0 -42 -24q-83 -93 -177 -91q-42 1 -78.5 14t-54.5 26.5t-37.5 31.5t-22.5 19
q-21 15 -35 15t-34 -11q-17 -11 -20.5 -22.5t-2.5 -34.5zM448 935q71 -37 134 -37h6q120 0 219 92q40 -34 96.5 -61t122.5 -31h6q120 0 219 92q40 -34 96.5 -61t123.5 -31h6q59 0 122 31q-46 -90 -61 -116q-187 -244 -517 -244q-165 0 -294.5 63t-211.5 181q-26 37 -67 122z
" />
</svg>
