<?xml version="1.0" standalone="no"?>
<!DOCTYPE svg PUBLIC "-//W3C//DTD SVG 1.1//EN" "http://www.w3.org/Graphics/SVG/1.1/DTD/svg11.dtd" >
<svg xmlns="http://www.w3.org/2000/svg" xmlns:xlink="http://www.w3.org/1999/xlink" version="1.1" width="2048" height="2048" viewBox="-10 0 2058 2048">
   <path fill="currentColor"
d="M84 1482q0 25 19 42q18 18 42 18h409q27 0 47.5 19.5t20.5 47.5t-20.5 48t-47.5 20t-48 -21q-19 -17 -42 -17q-25 0 -42 17t-17 41.5t17 41.5q56 55 132 55q77 0 131 -54t54 -131t-54 -131.5t-131 -54.5h-409q-24 0 -42.5 17.5t-18.5 41.5zM84 1273q0 24 19 41
q17 17 42 17h763q77 0 131 -54.5t54 -131.5t-54 -130.5t-131 -53.5q-79 0 -131 53q-17 17 -17 42.5t16 41.5t42 16q25 0 43 -17q19 -19 46.5 -19t47.5 19.5t20 47.5t-20 48t-47 20h-763q-24 0 -42.5 18t-18.5 42zM486 818q0 -24 18 -43q19 -17 42 -17h141q25 0 41 18
t16 42.5t-16 42t-41 17.5h-141q-25 0 -42.5 -18t-17.5 -42zM685 337q0 -24 16 -42q20 -17 44 -17q23 0 41 17l100 102q16 16 16 41t-16.5 41.5t-41.5 16.5t-41 -16l-102 -99q-16 -18 -16 -44zM862 810v-5q2 -95 51.5 -175.5t132.5 -127t178 -46.5q73 0 140.5 29t116 77.5
t77 115.5t28.5 140q0 98 -48 181t-131 131.5t-181 49.5h-14q-7 0 -12 -5t-5 -13v-84q0 -14 15 -14h17q100 -1 171.5 -73t71.5 -173q0 -100 -72 -171t-174 -71q-98 0 -169 68t-75 165q0 5 -5.5 11.5t-17.5 6.5h-79q-16 0 -16 -17zM1165 1497v-138q0 -25 17.5 -42t41.5 -17
q26 0 43 17t17 42v138q0 25 -17.5 42.5t-42 17.5t-42 -17.5t-17.5 -42.5zM1165 281v-142q0 -24 17.5 -41.5t42 -17.5t42 17.5t17.5 41.5v142q0 25 -17.5 40.5t-42 15.5t-42 -15.5t-17.5 -40.5zM1549 1198q0 -24 16 -39q15 -17 39 -17q26 0 42 17l101 99q17 18 17 42t-17 41
q-42 33 -83 0l-99 -99q-16 -18 -16 -44zM1549 438q0 -26 16 -41l99 -102q18 -17 41 -17q24 0 41.5 17.5t17.5 41.5q0 27 -17 44l-101 99q-19 16 -42 16t-39 -16.5t-16 -41.5zM1706 818.5q0 -24.5 17 -43.5q17 -17 40 -17h140q24 0 42.5 18t18.5 42t-18.5 42t-42.5 18h-140
q-25 0 -41 -17.5t-16 -42z" />
</svg>
