<?xml version="1.0" standalone="no"?>
<!DOCTYPE svg PUBLIC "-//W3C//DTD SVG 1.1//EN" "http://www.w3.org/Graphics/SVG/1.1/DTD/svg11.dtd" >
<svg xmlns="http://www.w3.org/2000/svg" xmlns:xlink="http://www.w3.org/1999/xlink" version="1.1" width="2048" height="2048" viewBox="-10 0 2058 2048">
   <path fill="currentColor"
d="M269 1190q0 -120 74 -213t191 -120q24 -107 97 -187.5t176 -115.5q64 -22 134 -22q85 0 163 34q30 -49 69.5 -85t81.5 -55t81.5 -28.5t78.5 -9.5t85 11l57 18q14 6 9 16l-9 41q-7 33 -7 60q0 33 10 66t30 65t55 58t80 40l43 15q11 3 11 11q0 2 -1 5l-13 47
q-28 112 -104 178q42 73 45 156q1 5 1 15q0 94 -46.5 173t-125.5 125.5t-172 45.5h-752q-93 0 -172 -46t-124.5 -125t-45.5 -173zM388 1190q0 93 66.5 161t156.5 68h752q92 0 158 -67.5t66 -161.5q0 -91 -66.5 -157t-157.5 -66h-124l-7 -52q-11 -106 -88 -180.5t-183 -82.5
q-3 0 -10 -1t-10 -1q-53 0 -107 20v-1q-76 29 -128 95t-62 151l-5 50l-47 2q-88 10 -146 73.5t-58 149.5zM1204 627q111 94 137 221h22q130 0 220 82q35 -33 53 -74q-95 -45 -149.5 -137t-54.5 -194v-17h-17q-61 -2 -118.5 29.5t-92.5 89.5z" />
</svg>
