<?xml version="1.0" standalone="no"?>
<!DOCTYPE svg PUBLIC "-//W3C//DTD SVG 1.1//EN" "http://www.w3.org/Graphics/SVG/1.1/DTD/svg11.dtd" >
<svg xmlns="http://www.w3.org/2000/svg" xmlns:xlink="http://www.w3.org/1999/xlink" version="1.1" width="2048" height="2048" viewBox="-10 0 2068 2048">
   <path fill="currentColor"
d="M0 1026q0 -278 138 -515t374 -374t513 -137q208 0 397 81.5t326 218.5t218.5 327t81.5 399q0 208 -81.5 398t-218.5 326.5t-326 217t-397 80.5q-210 0 -399.5 -81.5t-327 -218.5t-218 -325.5t-80.5 -396.5zM225 1026q0 324 236 562q236 236 564 236q216 0 399.5 -107
t291.5 -291t108 -400t-108 -400.5t-291.5 -291.5t-399.5 -107t-400 107t-292 291.5t-108 400.5zM737 641q8 -31 34 -45q27 -16 58.5 -8t45.5 34l71 119v-321q0 -32 22 -54t54 -22t54 22t22 54v606q0 32 -22 54t-54 22q-55 0 -72 -48l-205 -356q-16 -26 -8 -57z" />
</svg>
