<?xml version="1.0" standalone="no"?>
<!DOCTYPE svg PUBLIC "-//W3C//DTD SVG 1.1//EN" "http://www.w3.org/Graphics/SVG/1.1/DTD/svg11.dtd" >
<svg xmlns="http://www.w3.org/2000/svg" xmlns:xlink="http://www.w3.org/1999/xlink" version="1.1" width="2048" height="2048" viewBox="-10 0 2058 2048">
   <path fill="currentColor"
d="M85 1192v-1q0 -120 75 -214t191 -121q31 -143 145.5 -235t262.5 -92q104 0 189 46q52 -56 122.5 -87.5t145.5 -31.5q99 0 183.5 49t133.5 133.5t49 183.5q0 129 -79 229q30 64 30 140q0 92 -44.5 170.5t-121 126t-168.5 50.5q-14 0 -14 -13v-93q0 -12 14 -12
q89 -5 151.5 -71.5t62.5 -157.5q0 -92 -67.5 -158.5t-160.5 -66.5h-112q-12 0 -12 -12l-5 -41q-12 -113 -97.5 -189.5t-199.5 -76.5q-115 0 -199 76.5t-95 189.5l-6 41q-3 9 -15 9l-35 3q-88 10 -147 73.5t-59 151.5v3h2q2 102 77 169q23 20 52 34v1q43 20 84 22q11 0 11 12
v93q0 11 -11 11q-54 -3 -103 -20v1q-87 -30 -147 -100t-77 -160v-3q-1 0 -1 -2q-5 -26 -5 -60zM467 1690q0 -3 1.5 -8.5t1.5 -8.5l6 -41q7 -25 28.5 -37t47.5 -5q23 7 35 28t5 44l-10 41q-11 46 -53 46q-3 0 -10 -1t-9 -1q-21 -7 -32 -23t-11 -34zM519 1486q0 -25 16 -41.5
t41 -16.5t41 16.5t16 41.5q0 24 -16 40t-41 16q-24 0 -40 -17q-17 -17 -17 -39zM633 1901q0 -4 2 -15l9 -41q8 -23 29.5 -35t43.5 -5q24 4 36.5 25t5.5 48l-9 41q-10 42 -55 42q-6 0 -17 -2q-23 -7 -34 -23.5t-11 -34.5zM670 337q0 -25 17.5 -42t43.5 -17q25 0 42 17l43 46
q18 17 18 41q0 26 -21 45t-42 16q-22 -2 -39 -19l-45 -45q-17 -18 -17 -42zM687 1700q0 -24 16.5 -40.5t41.5 -16.5t41 16.5t16 40.5q0 25 -16 41t-41 16q-23 0 -41 -17q-17 -17 -17 -40zM730 1542q0 -10 2 -19l16 -62q7 -24 28.5 -37t44.5 -5q25 7 37 27.5t5 43.5l-19 62
q-8 29 -28 39.5t-44 4.5q-21 -4 -32 -21.5t-10 -32.5zM923 1691q0 -3 1 -9t1 -8l6 -41q7 -25 28.5 -37t47.5 -5q23 7 35 28.5t5 43.5l-10 42q-10 45 -52 45q-4 0 -11 -1t-9 -1q-21 -7 -31.5 -23.5t-10.5 -33.5zM974 1486q0 -24 16.5 -40.5t41 -16.5t41 16.5t16.5 40.5
t-16.5 40.5t-41.5 16.5q-24 0 -40 -18q-17 -15 -17 -39zM1046 644q87 80 118 204h21q144 0 245 101q32 -58 32 -127q0 -102 -72 -173.5t-174 -71.5q-100 0 -170 67zM1157 278v-142q0 -25 17.5 -43t41.5 -18q25 0 41.5 17.5t16.5 43.5v142q0 26 -16.5 43.5t-41.5 17.5
q-24 0 -41.5 -18t-17.5 -43zM1544 437.5q0 -25.5 17 -41.5l100 -101q16 -17 40 -17q26 0 42 17q18 17 18 42t-18 42l-100 101q-20 19 -44 17.5t-38 -17.5q-17 -17 -17 -42.5zM1598 1265q0 -24 17.5 -42t42.5 -18q24 0 42 19l43 43q18 19 18 43t-18 41q-14 19 -38 19l-1 -2
q-25 0 -43 -17l-45 -44q-18 -18 -18 -42zM1700 822q0 -24 17.5 -41t42.5 -17h143q26 0 43 17t17 41.5t-17.5 42t-42.5 17.5h-143q-25 0 -42 -19q-18 -15 -18 -41z" />
</svg>
