<?xml version="1.0" standalone="no"?>
<!DOCTYPE svg PUBLIC "-//W3C//DTD SVG 1.1//EN" "http://www.w3.org/Graphics/SVG/1.1/DTD/svg11.dtd" >
<svg xmlns="http://www.w3.org/2000/svg" xmlns:xlink="http://www.w3.org/1999/xlink" version="1.1" width="2048" height="2048" viewBox="-10 0 2058 2048">
   <path fill="currentColor"
d="M275 1196v-1q0 -121 75.5 -215t190.5 -121q32 -143 146.5 -234.5t262.5 -91.5q103 0 189 46q52 -56 122.5 -87.5t144.5 -31.5q100 0 184 49t133.5 133.5t49.5 183.5q0 129 -80 229q30 64 30 140q0 92 -44 170.5t-121 125.5t-168 50q-14 0 -14 -12v-93q0 -12 14 -12
q89 -5 151 -71.5t62 -157.5q0 -93 -67 -159t-160 -66h-112q-13 0 -13 -13l-5 -41q-12 -113 -97.5 -189.5t-198.5 -76.5q-115 0 -199.5 76.5t-95.5 189.5l-5 41q-3 10 -16 10l-35 3q-88 10 -146.5 73.5t-58.5 151.5v3q1 1 2 1q1 89 62 154q30 31 64 47v1q39 20 86 23
q12 0 12 12v93q0 12 -12 12q-51 -3 -99 -20q-79 -26 -137 -85.5t-82 -139.5q-15 -49 -15 -100zM658 1695q0 -3 1 -9t1 -9l7 -40q7 -25 28.5 -37.5t47.5 -5.5q23 7 34.5 28.5t4.5 43.5l-10 42q-10 45 -52 45q-4 0 -10.5 -1t-8.5 -1q-22 -6 -32.5 -22.5t-10.5 -33.5zM709 1490
q0 -25 16.5 -41.5t41 -16.5t41 16.5t16.5 41.5q0 24 -16.5 40t-40.5 16t-40 -17q-18 -16 -18 -39zM823 1905q0 -4 3 -15l9 -41q7 -24 28.5 -35.5t43.5 -4.5q24 4 36.5 25t6.5 48l-9 40q-11 43 -56 43q-5 0 -17 -2q-23 -7 -34 -23.5t-11 -34.5zM878 1703q0 -24 16.5 -40
t41 -16t41 16t16.5 40q0 25 -16.5 41.5t-41.5 16.5q-23 0 -40 -17t-17 -41zM921 1546q0 -10 2 -19l16 -62q7 -25 28.5 -37.5t44.5 -5.5q24 7 36 28t5 43l-18 63q-8 29 -28.5 39.5t-44.5 3.5q-21 -4 -31.5 -21t-9.5 -32zM1113 1695q0 -3 1 -9.5t1 -8.5l7 -40
q7 -25 28.5 -37.5t46.5 -5.5q24 7 36 28.5t5 43.5l-10 42q-10 45 -53 45q-3 0 -10 -1t-9 -1q-21 -6 -32 -22.5t-11 -33.5zM1165 1490q0 -25 16 -41.5t41 -16.5t41 16.5t16 41.5q0 24 -16 40t-41 16t-40 -17q-17 -15 -17 -39zM1236 648q88 80 118 204h22q144 0 244 100
q33 -57 33 -126q0 -102 -72 -173.5t-175 -71.5q-100 0 -170 67z" />
</svg>
