<?xml version="1.0" standalone="no"?>
<!DOCTYPE svg PUBLIC "-//W3C//DTD SVG 1.1//EN" "http://www.w3.org/Graphics/SVG/1.1/DTD/svg11.dtd" >
<svg xmlns="http://www.w3.org/2000/svg" xmlns:xlink="http://www.w3.org/1999/xlink" version="1.1" width="2048" height="2048" viewBox="-10 0 2058 2048">
   <path fill="currentColor"
d="M266 1206v-4v-1v-3v-4v-2v-5v-5v-1q4 -117 78.5 -207t186.5 -116q32 -142 146 -233t262 -91q77 0 165 32q29 -49 68.5 -84.5t82 -54.5t82.5 -28t79 -8q40 0 86 9l55 18q12 6 10 16l-8 42q-7 31 -7 59q0 32 10 66t30.5 66t55.5 59t81 40l43 12q10 3 10 11v5l-13 47
q-26 106 -105 183q45 79 45 170q0 139 -96.5 239.5t-235.5 105.5q-13 0 -13 -13v-94q0 -13 13 -13q91 -6 153.5 -71.5t62.5 -153.5q0 -93 -67 -159.5t-162 -66.5h-113q-11 0 -11 -12l-6 -41q-11 -112 -96.5 -188.5t-198.5 -76.5q-114 0 -198.5 76.5t-95.5 188.5l-5 36
q0 12 -14 12l-37 5q-87 11 -146 75t-59 151v1l1 1h1q1 54 25.5 102.5t67.5 79.5h1l1 1q23 17 43 25q35 15 74 16q12 0 12 12v93q0 13 -12 13q-97 -5 -177 -58q-69 -45 -110.5 -117t-44.5 -157zM648 1691q0 -3 1.5 -8.5t1.5 -8.5l6 -41q7 -25 28.5 -37t47.5 -5q23 7 35 28.5
t4 43.5l-9 42q-11 45 -53 45q-3 0 -10 -1t-9 -1q-21 -7 -32 -23.5t-11 -33.5zM700 1486q0 -24 16 -40.5t41 -16.5t41 16.5t16 40.5t-16 40.5t-41 16.5q-24 0 -40 -18q-17 -16 -17 -39zM814 1903q0 -4 2 -15l9 -41q7 -24 28.5 -36t44.5 -5q24 5 36 25.5t6 47.5l-9 41
q-11 43 -56 43q-7 0 -17 -2q-22 -7 -33 -23.5t-11 -34.5zM868 1701q0 -24 16.5 -40t41 -16t41 16t16.5 40q0 25 -16.5 41.5t-40.5 16.5t-41 -17t-17 -41zM911 1544q0 -10 2 -19l16 -63q7 -24 28.5 -36.5t44.5 -5.5q25 7 37 28t5 43l-19 63q-8 29 -28.5 39.5t-44.5 3.5
q-21 -4 -31.5 -21t-9.5 -32zM1103 1692q0 -3 1 -9t1 -8l7 -41q7 -25 28 -37t48 -5q23 7 35 28.5t5 43.5l-10 42q-10 45 -53 45q-3 0 -9.5 -1t-9.5 -1q-21 -7 -32 -23t-11 -34zM1155 1488q0 -25 16.5 -41.5t41 -16.5t41 16.5t16.5 41.5q0 24 -16.5 40t-41 16t-40.5 -17
q-17 -15 -17 -39zM1204 629q108 88 137 219h23q128 0 224 82q35 -31 52 -72q-64 -31 -111.5 -84t-70.5 -115.5t-23 -128.5v-22h-15q-65 0 -123.5 31.5t-92.5 89.5z" />
</svg>
