<?xml version="1.0" standalone="no"?>
<!DOCTYPE svg PUBLIC "-//W3C//DTD SVG 1.1//EN" "http://www.w3.org/Graphics/SVG/1.1/DTD/svg11.dtd" >
<svg xmlns="http://www.w3.org/2000/svg" xmlns:xlink="http://www.w3.org/1999/xlink" version="1.1" width="2048" height="2048" viewBox="-10 0 2058 2048">
   <path fill="currentColor"
d="M300 1194q0 -121 75.5 -215.5t190.5 -121.5q32 -142 146.5 -233.5t261.5 -91.5q85 0 154 28v1q88 34 154 108h2q70 76 95 181h22q112 0 196 60q56 37 93.5 92.5t50.5 120.5q4 22 5 36v1v3q0 1 1 12t1 17v2q0 92 -44.5 170.5t-121 125.5t-168.5 50q-13 0 -13 -12v-93
q0 -13 13 -13q90 -5 152 -71.5t62 -156.5q0 -93 -67 -159.5t-160 -66.5h-112q-13 0 -13 -12l-5 -41q-10 -104 -88 -180l-2 -2t-1 -2q-2 -1 -3 -1q0 -2 -1 -2q-76 -69 -178 -78q-7 -1 -24 -1q-114 0 -198.5 76.5t-95.5 189.5l-5 41q-4 10 -16 10l-35 2q-88 10 -146.5 74
t-58.5 152v2h2q0 50 20.5 94t56.5 76q21 19 51 33v1q42 20 84 22q12 0 12 12v93q0 12 -12 12q-54 -3 -103 -21v1q-87 -30 -147 -100t-77 -160v-2q-1 -1 -1 -3q-5 -26 -5 -60zM683 1692q0 -3 1 -8.5t1 -8.5l7 -41q7 -25 28 -37t47 -5q24 7 35.5 28.5t4.5 43.5l-10 42
q-10 45 -53 45q-3 0 -9 -1t-9 -1q-22 -7 -32.5 -23t-10.5 -34zM734 1488q0 -25 16.5 -41.5t41 -16.5t41 16.5t16.5 41.5q0 24 -16.5 40t-41.5 16q-24 0 -39 -17q-18 -16 -18 -39zM848 1904q0 -4 3 -16l9 -41q7 -23 28.5 -35t43.5 -5q24 4 36.5 25t5.5 48l-9 41
q-10 42 -55 42q-8 0 -17 -2q-23 -6 -34 -22.5t-11 -34.5zM903 1702q0 -24 16 -40.5t41 -16.5t41 16.5t16 40.5q0 25 -16 41t-41 16q-23 0 -40 -17t-17 -40zM946 1544q0 -10 2 -19l15 -62q8 -24 29.5 -37t43.5 -6q25 8 37 28.5t5 43.5l-18 63q-9 28 -29 38.5t-44 4.5
q-21 -4 -31.5 -21t-9.5 -33zM1138 1693q0 -3 1 -9t1 -8l7 -41q7 -25 28 -37t47 -6q24 8 36 29.5t4 43.5l-9 42q-11 45 -53 45q-3 0 -9.5 -1t-10.5 -1q-20 -7 -31 -23.5t-11 -33.5zM1190 1488q0 -25 16 -41t41 -16t41 16t16 41q0 24 -16 40.5t-41 16.5t-41 -17
q-16 -16 -16 -40z" />
</svg>
