<?xml version="1.0" standalone="no"?>
<!DOCTYPE svg PUBLIC "-//W3C//DTD SVG 1.1//EN" "http://www.w3.org/Graphics/SVG/1.1/DTD/svg11.dtd" >
<svg xmlns="http://www.w3.org/2000/svg" xmlns:xlink="http://www.w3.org/1999/xlink" version="1.1" width="2048" height="2048" viewBox="-10 0 2058 2048">
   <path fill="currentColor"
d="M285 1101q0 -25 18 -42q19 -18 42 -18h142q24 0 40 17.5t16 42.5t-16 42t-40 17h-142q-24 0 -42 -17.5t-18 -41.5zM484 621q0 -24 16 -42q21 -18 45 -18q22 0 41 18l99 101q17 16 17 41t-16.5 41.5t-41.5 16.5q-26 0 -41 -17l-103 -99q-16 -17 -16 -42zM495 1268
q0 -23 16.5 -38t44.5 -15h397q28 0 44.5 15t16.5 38q0 28 -16.5 44.5t-44.5 16.5h-397q-28 0 -44.5 -16t-16.5 -45zM564 1473q0 -23 19 -41.5t42 -18.5q27 0 43.5 18t16.5 42q0 29 -16 45.5t-44 15.5q-24 0 -42.5 -16.5t-18.5 -44.5zM662 1121v-4q3 -131 91 -228t215 -118h2
h2q20 -3 52.5 -3t52.5 3h1h2q127 21 215 118t91 228v4q0 17 -16 17h-79q-12 0 -17 -6.5t-5 -12.5q-4 -97 -75 -164.5t-169.5 -67.5t-169.5 67.5t-75 164.5q0 6 -5.5 12.5t-17.5 6.5h-79q-16 0 -16 -17zM732 1473q0 -24 16.5 -42t43.5 -18h267q23 0 42 18.5t19 41.5
q0 28 -18.5 44.5t-42.5 16.5h-267q-28 0 -44 -16t-16 -45zM964 564v-141q0 -25 18 -42.5t42 -17.5t41.5 17.5t17.5 42.5v141q0 24 -17.5 40.5t-42 16.5t-42 -16.5t-17.5 -40.5zM1059 1268q0 -22 19 -37.5t42.5 -15.5t42 15.5t18.5 37.5q0 27 -18.5 44t-42.5 17t-42.5 -17
t-18.5 -44zM1166 1473q0 -24 17 -42t44 -18h129q27 0 44 18t17 42q0 29 -16 45.5t-45 15.5h-129q-28 0 -44.5 -16t-16.5 -45zM1227 1268q0 -22 18.5 -37.5t42.5 -15.5h213q22 0 37 15t15 38q0 28 -14.5 44.5t-37.5 16.5h-213q-25 0 -43 -17t-18 -44zM1348 721q0 -26 16 -41
l99 -101q19 -18 41 -18q24 0 41.5 17.5t17.5 42.5t-17 42l-101 99q-19 17 -42 17q-24 0 -39.5 -16.5t-15.5 -41.5zM1505 1101q0 -24 17 -42q18 -18 40 -18h141q24 0 42 18t18 42t-18 41.5t-42 17.5h-141q-24 0 -40.5 -17t-16.5 -42z" />
</svg>
