<?xml version="1.0" standalone="no"?>
<!DOCTYPE svg PUBLIC "-//W3C//DTD SVG 1.1//EN" "http://www.w3.org/Graphics/SVG/1.1/DTD/svg11.dtd" >
<svg xmlns="http://www.w3.org/2000/svg" xmlns:xlink="http://www.w3.org/1999/xlink" version="1.1" width="2048" height="2048" viewBox="-10 0 2058 2048">
   <path fill="currentColor"
d="M168 880q0 22 14 35q15 14 36 14h889q23 0 40 16t17 39.5t-17 40t-40 16.5t-40 -17q-16 -14 -34 -14q-21 0 -35 13.5t-14 33.5q0 21 14 36q46 45 109.5 45t108 -45t44.5 -109q0 -63 -44.5 -108.5t-108.5 -45.5h-889q-21 0 -35.5 15t-14.5 35zM168 707q0 21 14 33
q15 14 36 14h1181q64 0 108.5 -45t44.5 -108t-44.5 -107.5t-108.5 -44.5q-62 0 -108 43q-14 16 -14 36q0 21 14 34t35 13q19 0 35 -13q15 -16 38 -16t39.5 16t16.5 39t-16.5 40t-39.5 17h-1181q-21 0 -35.5 14.5t-14.5 34.5zM1301 1342q0 66 21 117t56.5 81t78 44.5
t89.5 14.5q66 0 120.5 -22.5t89.5 -59.5t60.5 -81t38.5 -92.5t19 -88.5t6 -73q0 -125 -68.5 -193t-181.5 -68q-63 0 -122 30t-105 83.5t-74 133.5t-28 174zM1477 1347q0 -20 3.5 -50t14 -71t26 -75.5t44 -59t64 -24.5t55.5 22.5t20 67.5q0 123 -42.5 209.5t-105.5 86.5
q-79 0 -79 -106z" />
</svg>
