<?xml version="1.0" standalone="no"?>
<!DOCTYPE svg PUBLIC "-//W3C//DTD SVG 1.1//EN" "http://www.w3.org/Graphics/SVG/1.1/DTD/svg11.dtd" >
<svg xmlns="http://www.w3.org/2000/svg" xmlns:xlink="http://www.w3.org/1999/xlink" version="1.1" width="2048" height="2048" viewBox="-10 0 2058 2048">
   <path fill="currentColor"
d="M159 880q0 22 15 35q15 14 36 14h889q22 0 39 16t17 39.5t-17 40t-39 16.5q-23 0 -40 -17q-16 -14 -35 -14q-20 0 -34.5 13.5t-14.5 33.5q0 21 15 36q46 45 109 45t107.5 -45t44.5 -109q0 -63 -44.5 -108.5t-107.5 -45.5h-889q-21 0 -36 15t-15 35zM159 707q0 21 15 33
q15 14 36 14h1181q63 0 108 -45t45 -108t-45 -107.5t-108 -44.5t-108 43q-14 16 -14 36q0 21 13.5 34t34.5 13q19 0 35 -13q16 -16 39 -16q22 0 39 16t17 39t-17 40t-39 17h-1181q-21 0 -36 14.5t-15 34.5zM1247 1594h566l35 -161h-314v-3q25 -12 73 -31t81.5 -33t74.5 -38
t66 -48.5t42.5 -63.5t17.5 -86q0 -71 -37 -119.5t-92.5 -69t-124.5 -20.5q-124 0 -203 67t-94 198h179q0 -48 27.5 -81t78.5 -33q38 0 57.5 20.5t19.5 46.5q0 15 -3 27.5t-13.5 24t-18 19t-29 19.5t-34 18.5t-45.5 21.5q-113 55 -140 71q-103 62 -142 153q-20 45 -28 101z
" />
</svg>
