<?xml version="1.0" standalone="no"?>
<!DOCTYPE svg PUBLIC "-//W3C//DTD SVG 1.1//EN" "http://www.w3.org/Graphics/SVG/1.1/DTD/svg11.dtd" >
<svg xmlns="http://www.w3.org/2000/svg" xmlns:xlink="http://www.w3.org/1999/xlink" version="1.1" width="2048" height="2048" viewBox="-10 0 2058 2048">
   <path fill="currentColor"
d="M168 880q0 22 14 35q15 14 36 14h889q23 0 40 16t17 39.5t-17 40t-40 16.5t-40 -17q-16 -14 -34 -14q-21 0 -35 13.5t-14 33.5q0 21 14 36q46 45 109.5 45t108 -45t44.5 -109q0 -63 -44.5 -108.5t-108.5 -45.5h-889q-21 0 -35.5 15t-14.5 35zM168 707q0 21 14 33
q15 14 36 14h1181q64 0 108.5 -45t44.5 -108t-44.5 -107.5t-108.5 -44.5q-62 0 -108 43q-14 16 -14 36q0 21 14 34t35 13q19 0 35 -13q15 -16 38 -16t39.5 16t16.5 39t-16.5 40t-39.5 17h-1181q-21 0 -35.5 14.5t-14.5 34.5zM1287 1395q0 34 13.5 67t42.5 64t82.5 49.5
t124.5 18.5q155 0 225.5 -61.5t70.5 -166.5q0 -47 -26 -85.5t-68 -42.5v-2q55 -10 91.5 -50t36.5 -96q0 -39 -14 -69.5t-37 -50t-55 -31.5t-64.5 -17t-68.5 -5q-119 0 -195 57.5t-94 171.5h174q6 -39 32.5 -61t66.5 -22q37 0 58.5 15.5t21.5 42.5q0 61 -108 61h-41l-24 119
h37q88 0 88 60q0 40 -29 62t-71 22q-49 0 -71 -29q-22 -28 -18 -76h-177q-4 24 -4 55z" />
</svg>
