<?xml version="1.0" standalone="no"?>
<!DOCTYPE svg PUBLIC "-//W3C//DTD SVG 1.1//EN" "http://www.w3.org/Graphics/SVG/1.1/DTD/svg11.dtd" >
<svg xmlns="http://www.w3.org/2000/svg" xmlns:xlink="http://www.w3.org/1999/xlink" version="1.1" width="2048" height="2048" viewBox="-10 0 2058 2048">
   <path fill="currentColor"
d="M161 880q0 22 15 35q15 14 36 14h889q22 0 39 16t17 39.5t-17 40t-39 16.5q-23 0 -40 -17q-16 -14 -35 -14q-20 0 -34.5 13.5t-14.5 33.5q0 21 15 36q46 45 109 45t107.5 -45t44.5 -109q0 -63 -44.5 -108.5t-107.5 -45.5h-889q-21 0 -36 15t-15 35zM161 707q0 21 15 33
q15 14 36 14h1181q63 0 108 -45t45 -108t-45 -107.5t-108 -44.5t-108 43q-14 16 -14 36q0 21 13.5 34t34.5 13q19 0 35 -13q16 -16 39 -16q22 0 39 16t17 39t-17 40t-39 17h-1181q-21 0 -36 14.5t-15 34.5zM1273 1466h305l-27 133h188l31 -133h86l31 -163h-86l77 -371h-190
l-379 356zM1465 1303l192 -189h2l-42 189h-152z" />
</svg>
