<?xml version="1.0" standalone="no"?>
<!DOCTYPE svg PUBLIC "-//W3C//DTD SVG 1.1//EN" "http://www.w3.org/Graphics/SVG/1.1/DTD/svg11.dtd" >
<svg xmlns="http://www.w3.org/2000/svg" xmlns:xlink="http://www.w3.org/1999/xlink" version="1.1" width="2048" height="2048" viewBox="-10 0 2058 2048">
   <path fill="currentColor"
d="M158 880q0 22 15 35q15 14 36 14h889q23 0 39.5 16t16.5 39.5t-16.5 40t-39.5 16.5t-40 -17q-16 -14 -34 -14q-21 0 -35 13.5t-14 33.5q0 21 14 36q46 45 109.5 45t108 -45t44.5 -109q0 -63 -44.5 -108.5t-108.5 -45.5h-889q-21 0 -36 15t-15 35zM158 707q0 21 15 33
q15 14 36 14h1181q63 0 108 -45t45 -108t-45 -107.5t-108 -44.5q-62 0 -108 43q-14 16 -14 36q0 21 13.5 34t34.5 13q20 0 36 -13q15 -16 38 -16t39.5 16t16.5 39t-16.5 40t-39.5 17h-1181q-21 0 -36 14.5t-15 34.5zM1305 1327q0 122 64 197t196 75q122 0 201 -74.5
t79 -195.5q0 -83 -57 -134.5t-141 -51.5q-94 0 -147 64h-2q43 -149 141 -149q33 0 50 12q16 11 20 35h181q-2 -40 -17 -72t-37.5 -53t-53.5 -34.5t-64 -19t-68 -5.5q-80 0 -143.5 31t-100 76t-60.5 103t-32.5 105.5t-8.5 90.5zM1481 1365q0 -47 31 -71.5t71 -24.5q24 0 41 7
t25.5 16.5t13.5 23t5.5 21t0.5 16.5q0 40 -27 67.5t-73 27.5q-39 0 -63.5 -23t-24.5 -60z" />
</svg>
