<?xml version="1.0" standalone="no"?>
<!DOCTYPE svg PUBLIC "-//W3C//DTD SVG 1.1//EN" "http://www.w3.org/Graphics/SVG/1.1/DTD/svg11.dtd" >
<svg xmlns="http://www.w3.org/2000/svg" xmlns:xlink="http://www.w3.org/1999/xlink" version="1.1" width="2048" height="2048" viewBox="-10 0 2058 2048">
   <path fill="currentColor"
d="M151 880q0 22 14 35q15 14 36 14h890q22 0 39 16t17 39.5t-17 40t-39 16.5q-24 0 -41 -17q-16 -14 -34 -14q-21 0 -35 13.5t-14 33.5q0 21 15 36q45 45 108.5 45t108 -45t44.5 -109q0 -63 -44.5 -108.5t-107.5 -45.5h-890q-21 0 -35.5 15t-14.5 35zM151 707q0 21 14 33
q15 14 36 14h1181q64 0 109 -45t45 -108t-45 -107.5t-109 -44.5q-62 0 -108 43q-13 16 -13 36q0 21 13.5 34t34.5 13q19 0 35 -13q15 -16 38 -16t40 16t17 39t-17 40t-40 17h-1181q-21 0 -35.5 14.5t-14.5 34.5zM1350 1599h210q34 -166 119.5 -297.5t184.5 -208.5l33 -160
h-510l-35 162h298q-253 255 -300 504z" />
</svg>
