<?xml version="1.0" standalone="no"?>
<!DOCTYPE svg PUBLIC "-//W3C//DTD SVG 1.1//EN" "http://www.w3.org/Graphics/SVG/1.1/DTD/svg11.dtd" >
<svg xmlns="http://www.w3.org/2000/svg" xmlns:xlink="http://www.w3.org/1999/xlink" version="1.1" width="2048" height="2048" viewBox="-10 0 2058 2048">
   <path fill="currentColor"
d="M164 880q0 22 15 35q15 14 36 14h889q23 0 39.5 16t16.5 39.5t-16.5 40t-39.5 16.5t-40 -17q-16 -14 -34 -14q-21 0 -35 13.5t-14 33.5q0 21 14 36q46 45 109.5 45t108 -45t44.5 -109q0 -63 -44.5 -108.5t-108.5 -45.5h-889q-21 0 -36 15t-15 35zM164 707q0 21 15 33
q15 14 36 14h1181q63 0 108 -45t45 -108t-45 -107.5t-108 -44.5q-62 0 -108 43q-14 16 -14 36q0 21 13.5 34t34.5 13q20 0 36 -13q15 -16 38 -16t39.5 16t16.5 39t-16.5 40t-39.5 17h-1181q-21 0 -36 14.5t-15 34.5zM1276 1408q0 93 73.5 142t197.5 49q76 0 134.5 -15.5
t91.5 -38t53.5 -53.5t27 -56.5t6.5 -51.5q0 -53 -30.5 -91t-80.5 -49l2 -2q57 -8 95 -50.5t38 -101.5q0 -49 -22.5 -84t-61 -52.5t-78.5 -25t-87 -7.5q-61 0 -110 12t-79.5 31.5t-50.5 45.5t-28 52t-8 53q0 44 23.5 77t64.5 46v2q-73 8 -122 52.5t-49 115.5zM1457 1388
q0 -44 36 -65t87 -21q52 0 75.5 23.5t23.5 50.5v12q0 36 -32.5 54.5t-82.5 18.5l2 -1q-18 0 -34.5 -2.5t-34.5 -9.5t-29 -22.5t-11 -37.5zM1522 1125q0 -40 31.5 -58.5t76.5 -18.5q39 0 65.5 17t26.5 54q0 10 -4 20t-14 22.5t-33.5 20.5t-56.5 8q-51 0 -71.5 -19.5
t-20.5 -45.5z" />
</svg>
