<?xml version="1.0" standalone="no"?>
<!DOCTYPE svg PUBLIC "-//W3C//DTD SVG 1.1//EN" "http://www.w3.org/Graphics/SVG/1.1/DTD/svg11.dtd" >
<svg xmlns="http://www.w3.org/2000/svg" xmlns:xlink="http://www.w3.org/1999/xlink" version="1.1" width="2048" height="2048" viewBox="-10 0 2058 2048">
   <path fill="currentColor"
d="M172 880q0 22 14 35q16 14 37 14h889q22 0 39 16t17 39.5t-17 40t-39 16.5q-23 0 -40 -17q-16 -14 -35 -14q-21 0 -35 13.5t-14 33.5q0 21 15 36q45 45 108.5 45t108 -45t44.5 -109q0 -63 -44.5 -108.5t-107.5 -45.5h-889q-21 0 -36 15t-15 35zM172 707q0 21 14 33
q16 14 37 14h1181q63 0 108 -45t45 -108t-45 -107.5t-108 -44.5t-109 43q-13 16 -13 36q0 21 13.5 34t34.5 13q19 0 35 -13q15 -16 39 -16q22 0 39 16t17 39t-17 40t-39 17h-1181q-21 0 -36 14.5t-15 34.5zM1292 1416q3 50 24.5 87t57 57t76.5 29.5t89 9.5q73 0 133 -27.5
t96.5 -69.5t62 -96.5t35.5 -105.5t10 -98q0 -136 -69.5 -208.5t-185.5 -72.5q-119 0 -202 73t-83 192q0 85 54.5 138.5t139.5 53.5q45 0 89 -18.5t61 -46.5h3q-15 61 -49.5 104.5t-91.5 43.5q-36 0 -50 -9q-16 -14 -21 -36h-179zM1512 1170q0 -41 25 -70t74 -29q43 0 66 22
t23 65q0 12 -5 26.5t-15.5 30.5t-31.5 26.5t-48 10.5t-46 -9.5t-27.5 -24.5t-11.5 -27t-3 -21z" />
</svg>
