<?xml version="1.0" standalone="no"?>
<!DOCTYPE svg PUBLIC "-//W3C//DTD SVG 1.1//EN" "http://www.w3.org/Graphics/SVG/1.1/DTD/svg11.dtd" >
<svg xmlns="http://www.w3.org/2000/svg" xmlns:xlink="http://www.w3.org/1999/xlink" version="1.1" width="2048" height="2048" viewBox="-10 0 2058 2048">
   <path fill="currentColor"
d="M138 880q0 22 14 35q16 14 36 14h890q22 0 39 16t17 39.5t-17 40t-39 16.5q-24 0 -40 -17q-16 -14 -35 -14q-21 0 -35 13.5t-14 33.5q0 21 15 36q45 45 108.5 45t108 -45t44.5 -109q0 -63 -44.5 -108.5t-107.5 -45.5h-890q-20 0 -35 15t-15 35zM138 707q0 21 14 33
q16 14 36 14h1182q63 0 108 -45t45 -108t-45 -107.5t-108 -44.5t-109 43q-13 16 -13 36q0 21 13.5 34t34.5 13q19 0 35 -13q15 -16 39 -16q22 0 39 16t17 39t-17 40t-39 17h-1182q-20 0 -35 14.5t-15 34.5zM1241 1599h210l142 -684h-211zM1559 1599h210l141 -684h-209z" />
</svg>
