<?xml version="1.0" standalone="no"?>
<!DOCTYPE svg PUBLIC "-//W3C//DTD SVG 1.1//EN" "http://www.w3.org/Graphics/SVG/1.1/DTD/svg11.dtd" >
<svg xmlns="http://www.w3.org/2000/svg" xmlns:xlink="http://www.w3.org/1999/xlink" version="1.1" width="2048" height="2048" viewBox="-10 0 2068 2048">
   <path fill="currentColor"
d="M0 880q0 22 14 35q16 14 37 14h889q22 0 39 16t17 39.5t-17 40t-39 16.5q-23 0 -40 -17q-16 -14 -35 -14q-21 0 -35 13.5t-14 33.5q0 21 15 36q45 45 108.5 45t108 -45t44.5 -109q0 -63 -44.5 -108.5t-107.5 -45.5h-889q-21 0 -36 15t-15 35zM0 707q0 21 14 33
q16 14 37 14h1181q63 0 108 -45t45 -108t-45 -107.5t-108 -44.5t-109 43q-13 16 -13 36q0 21 13.5 34t34.5 13q19 0 35 -13q15 -16 39 -16q22 0 39 16t17 39t-17 40t-39 17h-1181q-21 0 -36 14.5t-15 34.5zM1103 1599h210l142 -684h-211zM1406 1599h567l34 -163h-313v-2
q25 -12 73 -31t81 -33t74 -38t66 -49t42.5 -64t17.5 -86q0 -71 -37 -119t-92 -68t-124 -20q-125 0 -203.5 67t-93.5 197h177q0 -48 28 -81t80 -33q38 0 57 20.5t19 47.5q0 42 -28 65t-107 62q-5 1 -7 3q-114 54 -141 70q-102 61 -141 149q-21 47 -29 106z" />
</svg>
