<?xml version="1.0" standalone="no"?>
<!DOCTYPE svg PUBLIC "-//W3C//DTD SVG 1.1//EN" "http://www.w3.org/Graphics/SVG/1.1/DTD/svg11.dtd" >
<svg xmlns="http://www.w3.org/2000/svg" xmlns:xlink="http://www.w3.org/1999/xlink" version="1.1" width="2048" height="2048" viewBox="-10 0 2058 2048">
   <path fill="currentColor"
d="M334 1492q0 -17 12 -29.5t28 -12.5h28q-22 -68 -36 -144q-23 -114 -23 -207q0 -179 64 -335q63 -152 179 -261q116 -111 271 -168q157 -60 341 -60q111 0 209 19q98 23 189 72l118 63l-130 28q-61 13 -83 54q-17 34 2 77l28 66l-71 3q-45 3 -82 19q-34 16 -40 34
q-11 24 25 70l56 66l-88 13q-161 24 -264.5 66.5t-163.5 110.5q-59 65 -87 165t-31 249h366v-193l-27 16q-14 9 -31.5 5t-25.5 -19q-9 -14 -5.5 -31.5t18.5 -26.5l265 -166l1 -1q1 0 1 -1h1h2q7 -3 16 -5h2h2q1 2 2 2h1h2h1h1h1h1l2 1h1q1 0 1 2h2q2 0 2 1q1 0 2 1h2
l265 164q15 9 18.5 26.5t-5.5 32.5q-9 14 -26 18t-32 -5l-21 -13v192h66q17 0 28 12.5t11 29.5q1 18 -10.5 30t-28.5 12h-1282q-17 0 -28.5 -12t-11.5 -30zM441 1099q0 74 21 189q16 85 38 147h187q5 -151 31 -249q37 -133 111 -215q77 -86 201 -136q86 -36 217 -61l-6 -18
q-11 -47 6 -85q24 -53 89 -84q8 -3 13 -5q-89 -21 -180 -10q-104 13 -194 59q-115 61 -209 172q-10 13 -26 13q-13 0 -22 -7q-10 -10 -12 -24.5t8 -25.5q104 -124 231 -190q103 -51 219 -65q59 -8 115.5 -1.5t79.5 11.5t32 9l5 2q6 -32 17 -59q17 -31 45 -56q-32 -9 -73 -19
q-83 -18 -187 -18q-164 0 -307 53q-139 54 -237 149q-103 95 -156 226q-57 141 -57 298zM1235 1450h270v-245l-137 -84l-133 83v246z" />
</svg>
