<?xml version="1.0" standalone="no"?>
<!DOCTYPE svg PUBLIC "-//W3C//DTD SVG 1.1//EN" "http://www.w3.org/Graphics/SVG/1.1/DTD/svg11.dtd" >
<svg xmlns="http://www.w3.org/2000/svg" xmlns:xlink="http://www.w3.org/1999/xlink" version="1.1" width="2048" height="2048" viewBox="-10 0 2058 2048">
   <path fill="currentColor"
d="M346 1079q0 16 12 27.5t28 11.5h207q15 0 26 -9t14 -23l63 -367l112 916q3 15 13.5 25t25.5 10t26.5 -10t13.5 -25l87 -672l72 195q4 12 14 19t23 7h3q12 -1 22 -9.5t14 -21.5l106 -477l49 916q1 15 11 26t25 12.5t26.5 -7t14.5 -23.5l115 -482h193q16 0 28 -11.5
t12 -27.5t-12 -28t-28 -12h-224q-14 0 -24.5 8.5t-14.5 21.5l-58 247l-50 -930q0 -15 -10.5 -25.5t-25.5 -11.5t-27 8t-15 24l-139 623l-81 -219q-4 -13 -16 -20t-25 -6q-14 1 -23.5 11t-12.5 24l-68 522l-106 -873q-3 -15 -13.5 -24.5t-24.5 -9.5q-15 -1 -26.5 8t-13.5 24
l-103 598h-175q-16 0 -28 12t-12 28z" />
</svg>
