<?xml version="1.0" standalone="no"?>
<!DOCTYPE svg PUBLIC "-//W3C//DTD SVG 1.1//EN" "http://www.w3.org/Graphics/SVG/1.1/DTD/svg11.dtd" >
<svg xmlns="http://www.w3.org/2000/svg" xmlns:xlink="http://www.w3.org/1999/xlink" version="1.1" width="2048" height="2048" viewBox="-10 0 2058 2048">
   <path fill="currentColor"
d="M494 1533q0 -31 20.5 -53t48.5 -22v-1l915 3l7 -2q29 1 49 23t20 53q0 32 -20.5 53.5t-48.5 21.5l-907 -2q-10 2 -15 2q-29 -1 -49 -23t-20 -53zM552 1153q-2 -44 11 -105q6 -32 30 -95q3 -6 9 -20q2 2 3 3.5l1 1.5q11 47 34 84q22 34 57 48q27 11 76 12q2 0 5.5 0.5
t5.5 0.5q-34 -35 -55 -70q-31 -54 -39 -126q-7 -56 6 -136q3 -15 20 -70q16 -49 45 -89q34 -51 97 -105q38 -33 108 -75q7 -4 24 -13q0 2 -0.5 4t-0.5 3v1q-25 60 -33 121q-7 55 17 103q17 38 63 80q10 10 41.5 40t48.5 47l18 18q27 -40 31 -94q4 -57 -10 -125v-8q3 2 21 17
q58 52 90 93q50 65 73 121q20 48 26 97q6 45 5 73q-1 82 -17 137q-7 22 -13 35q26 -7 45 -18q26 -16 41 -45q17 -30 27 -69q0 -1 2 -3q1 2 3.5 6t3.5 7q13 33 19 67q7 39 5 79q-2 30 -11 56q-9 25 -16 40q-20 40 -43 68q-6 8 -10 11h-763q-1 -1 -4.5 -3.5t-5.5 -4.5
q-28 -27 -57 -79q-8 -16 -20 -48q-12 -33 -14 -73z" />
</svg>
