<?xml version="1.0" standalone="no"?>
<!DOCTYPE svg PUBLIC "-//W3C//DTD SVG 1.1//EN" "http://www.w3.org/Graphics/SVG/1.1/DTD/svg11.dtd" >
<svg xmlns="http://www.w3.org/2000/svg" xmlns:xlink="http://www.w3.org/1999/xlink" version="1.1" width="2048" height="2048" viewBox="-10 0 2058 2048">
   <path fill="currentColor"
d="M495 1587q-13 -28 7 -56l97 -185q1 -4 8 -11q4 -4 26 -20q2 -1 48 -35q50 -34 117 -82l125 -208q17 -28 50 -28h49q-17 19 -31.5 41.5t-27 59.5t-12.5 74.5t20 86.5t61 97q29 32 35 64t-7 58t-41 51.5t-61.5 44t-74.5 36t-73 28t-65 19.5h-196q-17 0 -32 -9t-22 -26z
M687 554q0 -48 31.5 -86.5t80.5 -49.5q12 -58 59.5 -96t107.5 -38q59 0 104.5 36t60.5 94h9q60 0 104.5 37.5t44.5 90.5q0 58 -45 99q0 29 -25 65t-54 43q-7 32 -30.5 54.5t-56.5 29.5q16 17 16 38q0 26 -18.5 43.5t-44.5 17.5q-25 0 -43.5 -18t-18.5 -43q0 -4 1.5 -10.5
t1.5 -8.5h-3q-30 0 -52 -22.5t-22 -52.5q0 -12 12 -37q-25 -13 -40 -43h-43q-57 -6 -97 -46t-40 -97zM1008 1091q0 -17 5.5 -37.5t11 -32.5t14.5 -30.5t13 -28.5h26q29 0 46 22l4 7l91 173l323 363l3 2q22 28 6 62q-16 31 -52 31h-391q18 -16 30 -27t31.5 -34t29.5 -42.5
t16.5 -48t0.5 -55t-26 -58.5t-56 -63t-61 -61t-39 -53t-20 -47.5t-6 -41.5z" />
</svg>
