<?xml version="1.0" standalone="no"?>
<!DOCTYPE svg PUBLIC "-//W3C//DTD SVG 1.1//EN" "http://www.w3.org/Graphics/SVG/1.1/DTD/svg11.dtd" >
<svg xmlns="http://www.w3.org/2000/svg" xmlns:xlink="http://www.w3.org/1999/xlink" version="1.1" width="2048" height="2048" viewBox="-10 0 2058 2048">
   <path fill="currentColor"
d="M276 897v-23q0 -10 7.5 -17t17.5 -7h527q11 0 18 7t7 17v23q0 10 -7 17t-18 7h-30v114h147q2 -29 24 -49t52 -20t51.5 20t24.5 49h92v-236q-15 0 -25 -11t-10 -26v-21q0 -15 11.5 -26t26.5 -11h139q15 0 26 11t11 26v21q0 15 -9.5 26t-24.5 11v236h109q28 0 48.5 21
t20.5 50v203l260 338h-330v-211h-50q12 27 12 58q0 63 -45 108t-108 45t-108 -45t-45 -108q0 -31 11 -58h-70q12 29 12 58q0 63 -45.5 108t-108.5 45t-107.5 -45t-44.5 -108q0 -31 11 -58h-82q12 31 12 58q0 63 -45 108t-108.5 45t-108.5 -45t-45 -108q0 -30 12 -59
q-25 -3 -42 -23t-17 -46v-60h-2v-385h-29q-10 0 -17.5 -7t-7.5 -17zM419 1171q0 22 15.5 37.5t37.5 15.5h101q22 0 37 -15.5t15 -37.5v-160q0 -21 -15.5 -36.5t-36.5 -15.5h-101q-22 0 -37.5 15.5t-15.5 36.5v160zM1078 393q0 43 32 72q0 21 18.5 47.5t39.5 30.5q4 23 21 39
t41 21q-11 11 -11 28q0 19 13 31.5t31.5 12.5t31.5 -13t13 -31q0 -2 -1 -6.5t-1 -7.5h2q23 0 38.5 -16t15.5 -38q0 -10 -9 -26q19 -10 29 -33h31q41 -3 70 -32t29 -70q0 -35 -22.5 -62.5t-57.5 -35.5q-9 -42 -43.5 -69.5t-78.5 -27.5q-42 0 -74.5 26t-43.5 68h-7
q-43 0 -75 27t-32 65z" />
</svg>
