<?xml version="1.0" standalone="no"?>
<!DOCTYPE svg PUBLIC "-//W3C//DTD SVG 1.1//EN" "http://www.w3.org/Graphics/SVG/1.1/DTD/svg11.dtd" >
<svg xmlns="http://www.w3.org/2000/svg" xmlns:xlink="http://www.w3.org/1999/xlink" version="1.1" width="2048" height="2048" viewBox="-10 0 2068 2048">
   <path fill="currentColor"
d="M0 1023q0 -208 81.5 -397t218.5 -326t326 -218.5t397 -81.5t398 81.5t327 218.5t218.5 326t81.5 397t-81.5 398t-218.5 327t-327 218.5t-398 81.5t-397 -81.5t-326 -218.5t-218.5 -327t-81.5 -398zM1150 117q224 123 367 355.5t143 550.5q0 669 -469 900
q321 -60 534.5 -313.5t213.5 -586.5q0 -226 -104 -423.5t-284.5 -324.5t-400.5 -158z" />
</svg>
