<?xml version="1.0" standalone="no"?>
<!DOCTYPE svg PUBLIC "-//W3C//DTD SVG 1.1//EN" "http://www.w3.org/Graphics/SVG/1.1/DTD/svg11.dtd" >
<svg xmlns="http://www.w3.org/2000/svg" xmlns:xlink="http://www.w3.org/1999/xlink" version="1.1" width="2048" height="2048" viewBox="-10 0 2068 2048">
   <path fill="currentColor"
d="M0 1023q0 -208 81.5 -397t218.5 -326t326 -218.5t397 -81.5t398 81.5t327 218.5t218.5 326t81.5 397t-81.5 398t-218.5 327t-327 218.5t-398 81.5t-397 -81.5t-326 -218.5t-218.5 -327t-81.5 -398zM1038 109q249 440 249 914q0 568 -241 916q183 -4 348 -78.5t284 -196.5
t190 -289.5t71 -351.5q0 -245 -120.5 -454t-328 -332.5t-452.5 -127.5z" />
</svg>
