<?xml version="1.0" standalone="no"?>
<!DOCTYPE svg PUBLIC "-//W3C//DTD SVG 1.1//EN" "http://www.w3.org/Graphics/SVG/1.1/DTD/svg11.dtd" >
<svg xmlns="http://www.w3.org/2000/svg" xmlns:xlink="http://www.w3.org/1999/xlink" version="1.1" width="2048" height="2048" viewBox="-10 0 2068 2048">
   <path fill="currentColor"
d="M0 1023q0 -208 81.5 -397t218.5 -326t326 -218.5t397 -81.5t398 81.5t327 218.5t218.5 326t81.5 397t-81.5 398t-218.5 327t-327 218.5t-398 81.5t-397 -81.5t-326 -218.5t-218.5 -327t-81.5 -398zM109 1023q0 187 73 356t195.5 291.5t291.5 195.5t354 73q50 0 110 -7
q126 -77 213.5 -184.5t130 -232.5t59 -241t16.5 -251q0 -170 -42 -330.5t-144.5 -318t-255.5 -262.5q-56 -3 -87 -3q-185 0 -354 73t-291.5 195.5t-195.5 291.5t-73 354z" />
</svg>
