<?xml version="1.0" standalone="no"?>
<!DOCTYPE svg PUBLIC "-//W3C//DTD SVG 1.1//EN" "http://www.w3.org/Graphics/SVG/1.1/DTD/svg11.dtd" >
<svg xmlns="http://www.w3.org/2000/svg" xmlns:xlink="http://www.w3.org/1999/xlink" version="1.1" width="2048" height="2048" viewBox="-10 0 2068 2048">
   <path fill="currentColor"
d="M0 1023q0 -208 81.5 -397t218.5 -326t326 -218.5t397 -81.5t398 81.5t327 218.5t218.5 326t81.5 397t-81.5 398t-218.5 327t-327 218.5t-398 81.5t-397 -81.5t-326 -218.5t-218.5 -327t-81.5 -398zM109 1023q0 187 73 356t195.5 291.5t291.5 195.5t354 73h35
q81 -88 136.5 -199.5t82 -234.5t37 -235.5t10.5 -246.5q0 -257 -66.5 -496t-208.5 -418h-26q-185 0 -354 73t-291.5 195.5t-195.5 291.5t-73 354z" />
</svg>
