<?xml version="1.0" standalone="no"?>
<!DOCTYPE svg PUBLIC "-//W3C//DTD SVG 1.1//EN" "http://www.w3.org/Graphics/SVG/1.1/DTD/svg11.dtd" >
<svg xmlns="http://www.w3.org/2000/svg" xmlns:xlink="http://www.w3.org/1999/xlink" version="1.1" width="2048" height="2048" viewBox="-10 0 2068 2048">
   <path fill="currentColor"
d="M0 1023q0 -208 81.5 -397t218.5 -326t326 -218.5t397 -81.5t398 81.5t327 218.5t218.5 326t81.5 397t-81.5 398t-218.5 327t-327 218.5t-398 81.5t-397 -81.5t-326 -218.5t-218.5 -327t-81.5 -398zM109 1023q0 182 69 347t184.5 286.5t277 197t339.5 85.5
q-169 -163 -237.5 -392t-68.5 -524q0 -263 84 -504t233 -410q-241 10 -443.5 134.5t-320 331.5t-117.5 448z" />
</svg>
