<?xml version="1.0" standalone="no"?>
<!DOCTYPE svg PUBLIC "-//W3C//DTD SVG 1.1//EN" "http://www.w3.org/Graphics/SVG/1.1/DTD/svg11.dtd" >
<svg xmlns="http://www.w3.org/2000/svg" xmlns:xlink="http://www.w3.org/1999/xlink" version="1.1" width="2048" height="2048" viewBox="-10 0 2068 2048">
   <path fill="currentColor"
d="M0 191h898q43 43 127.5 128t127.5 128h895v1410h-2048v-1666zM1010 562l-13 2l-14 4q-29 19 -75.5 66.5t-51.5 52.5q20 21 61 62t61 62q19 1 38.5 6t39.5 14.5t32 23.5t17 34t-5 46l52 52l53 53q12 8 34.5 15t42 12.5t37.5 15.5t25.5 30t0.5 50q-10 57 -64 67
q-49 8 -87 -25q-44 -39 -19 -94l-119 -119v261q-5 19 2 38t18.5 34.5t21.5 31.5t9.5 35.5t-15.5 40.5q-37 59 -94 37q-43 -16 -62 -60q-24 -56 19 -91q12 -9 28 -16v-290q-1 -15 -14.5 -33t-26 -31.5t-18 -35t10.5 -42.5q-22 -22 -66 -65.5t-66 -65.5q-49 50 -148 150.5
t-149 150.5q-5 6 -18.5 19t-20.5 21t-16.5 21.5t-12 24t0 24t12.5 26.5q0 1 469 469q5 5 18 18.5t20.5 20.5t20.5 16.5t23.5 12t24.5 0t27 -12.5q2 -2 473 -466q18 -15 32 -31.5t23.5 -36.5t6.5 -41t-21 -39l-420 -420q-14 -12 -39 -40t-48 -45.5t-51 -19.5z" />
</svg>
