<?xml version="1.0" standalone="no"?>
<!DOCTYPE svg PUBLIC "-//W3C//DTD SVG 1.1//EN" "http://www.w3.org/Graphics/SVG/1.1/DTD/svg11.dtd" >
<svg xmlns="http://www.w3.org/2000/svg" xmlns:xlink="http://www.w3.org/1999/xlink" version="1.1" width="2048" height="2048" viewBox="-10 0 2068 2048">
   <path fill="currentColor"
d="M1550 1253q-87 -16 -72 -100q0 -5 -1 -17t-0.5 -19t2.5 -15.5t9 -13t18 -4.5q37 -7 54 -26t14 -45.5t-13.5 -51t-26.5 -50.5q-15 -99 -141 -27q-21 -5 -48 -37.5t-42 -41.5q-9 -11 -4.5 -25.5t11 -32.5t12 -34t-1.5 -30t-30 -21q-26 -14 -49 -24.5t-51.5 -16.5
t-49.5 -2.5t-37.5 23t-20.5 54.5q-10 16 -31.5 20t-42 1t-41.5 0q-17 1 -27 -12.5t-13.5 -30.5t-13.5 -33.5t-25 -19.5q-23 4 -36.5 7t-41 10t-44.5 15.5t-34.5 21t-23 30t0.5 37.5q11 18 17 31t8 28t-6.5 27t-27.5 22q-25 44 -63 48t-80 -24q-48 24 -75.5 92t-3.5 116
q109 23 89 115q6 13 6.5 23.5t-3.5 18t-10 13t-15.5 10t-18.5 8t-20.5 8t-18.5 8.5q-27 44 5 113t78 96q12 -1 29 -9t29 -15.5t28 -9.5t27 10q7 12 20.5 25.5l24 24t19 23t6.5 27t-15 30.5q-12 20 -8.5 36.5t12 29.5t27 23t37 17t40.5 12t39.5 7.5t33.5 4.5q15 -6 24 -26
t12.5 -38.5t15 -31t32.5 -7.5q7 0 51.5 -0.5t50.5 2.5q5 18 11.5 35t17.5 33t24 24t30.5 6t37.5 -18q4 -2 13 -5q18 -8 27.5 -12t26 -12.5t25 -15.5t17.5 -18t10.5 -21.5t-2.5 -25t-15 -30.5q-11 -12 -13 -23t4.5 -21.5t14 -18.5t18.5 -18.5t17 -17.5q10 -21 26 -24.5
t34 3.5t36 15t36 5t30 -23q1 -17 16.5 -49.5t27.5 -58t8.5 -50.5t-33.5 -36zM1116 1379q-38 21 -82.5 23t-84.5 -13.5t-74 -42.5t-55 -66t-24 -82q-8 -54 14 -107.5t61.5 -89.5t94.5 -52t108 -1q56 12 99 53.5t62.5 94t12 111.5t-44.5 103q-33 46 -87 69zM898 191l255 256
h895v1410h-2048v-1666h898z" />
</svg>
