<?xml version="1.0" standalone="no"?>
<!DOCTYPE svg PUBLIC "-//W3C//DTD SVG 1.1//EN" "http://www.w3.org/Graphics/SVG/1.1/DTD/svg11.dtd" >
<svg xmlns="http://www.w3.org/2000/svg" xmlns:xlink="http://www.w3.org/1999/xlink" version="1.1" width="2048" height="2048" viewBox="-10 0 2068 2048">
   <path fill="currentColor"
d="M0 191h898q85 85 255 256h895v1410h-2048v-1666zM561 612q-5 15 -15 44q-42 134 -26 247q-57 57 -81 138t-16 169q10 173 87 269q53 69 129.5 111.5t161.5 47.5q34 4 70.5 6t89 4t70.5 3q12 -1 99.5 -4.5t132.5 -8.5q144 -20 228 -95q76 -62 113.5 -157t34.5 -199
q5 -38 -1.5 -77.5t-22.5 -80t-30.5 -68.5t-35.5 -66q2 -174 -50 -283q-74 14 -142.5 48t-157.5 91q-164 -34 -337 0q-83 -58 -154 -93.5t-147 -45.5zM812 1109q18 1 85 6.5t103 5.5q45 3 162 -6.5t161 1.5q45 7 80.5 36t54 68t24.5 85t-8 88q-6 44 -31.5 78.5t-63.5 55
t-78.5 32.5t-84.5 17q-75 8 -132.5 10.5t-127.5 0.5t-135 -15.5t-123 -37.5q-42 -19 -69.5 -56.5t-37.5 -82t-6.5 -91.5t20.5 -88q26 -55 82.5 -80.5t124.5 -26.5zM821 1214q-29 -1 -50 21.5t-32 54.5q-22 48 8 107q28 53 69 57q34 3 63 -35q26 -30 28 -76t-21.5 -84
t-64.5 -45zM1246 1214q-32 0 -54.5 25.5t-30.5 60.5q-17 41 6 90.5t61 61t75 -32.5q24 -32 26.5 -77t-19.5 -83t-64 -45z" />
</svg>
