<?xml version="1.0" standalone="no"?>
<!DOCTYPE svg PUBLIC "-//W3C//DTD SVG 1.1//EN" "http://www.w3.org/Graphics/SVG/1.1/DTD/svg11.dtd" >
<svg xmlns="http://www.w3.org/2000/svg" xmlns:xlink="http://www.w3.org/1999/xlink" version="1.1" width="2048" height="2048" viewBox="-10 0 2058 2048">
   <path fill="currentColor"
d="M1749 1q28 -6 54 16.5t26 47.5q0 24 -16 71q-3 0 -7.5 2t-6.5 4l-3 2q-8 0 -8 -8q-5 -22 -22 -30.5t-49 -8.5q-112 11 -175 112q-127 127 -225 336q-42 85 -104 256q-56 153 -56 280v79q0 19 11 23.5t29 -7.5q27 -18 73 -63v24q-2 1 -12.5 13.5t-12.5 15.5t-12 14
t-14 14.5t-13.5 12.5t-15.5 12.5t-15.5 10t-18 9t-18.5 5.5t-21 4q-24 6 -44 -10t-20 -46q0 -80 32 -208q73 -258 200 -479q102 -202 241 -353q31 -37 49.5 -56.5t51 -43.5t66.5 -35q32 -16 56 -16zM950 809q18 0 33 15t15 33q3 12 1.5 35t-2 34t-5 34t-7 34.5t-8.5 34.5
l-3 12q-80 285 -240 559q-102 190 -240 329q-3 2 -23 23t-27.5 27t-24 20t-31 21.5t-30.5 11.5q-48 16 -89 16q-33 0 -47 -56q-12 -57 24 -104q2 2 6.5 5t6.5 5.5t2 6.5q6 29 19.5 38t44.5 9q43 0 83.5 -21.5t85.5 -58.5q134 -124 240 -336q71 -132 127 -344
q33 -181 40 -264q7 -11 3.5 -30.5t-19.5 -24.5q-16 -6 -28 1t-28 23q-7 3 -13 9t-11 13t-8 9q-8 8 -16 8v-16q19 -37 73.5 -74t95.5 -37z" />
</svg>
