<?xml version="1.0" standalone="no"?>
<!DOCTYPE svg PUBLIC "-//W3C//DTD SVG 1.1//EN" "http://www.w3.org/Graphics/SVG/1.1/DTD/svg11.dtd" >
<svg xmlns="http://www.w3.org/2000/svg" xmlns:xlink="http://www.w3.org/1999/xlink" version="1.1" width="2048" height="2048" viewBox="-10 0 2058 2048">
   <path fill="currentColor"
d="M1247 1180q-63 39 -199.5 124t-198.5 125q65 146 11 307q-42 134 -137 212t-226 95q-52 13 -125 -11q-58 -15 -80 -80q-68 -153 34 -273q7 -7 41.5 -43.5t57.5 -57t49 -35.5q32 -26 105 -67t100 -59q5 -5 11 -8t16 -6.5t19 -7.5q-13 -9 -27 -21.5t-23 -18.5t-19 -6
q-154 -97 -261 -204q-31 -30 -47 -47t-39.5 -45.5t-39.5 -54.5q-50 -39 -72.5 -89.5t-17.5 -102.5t33 -104q32 -78 83.5 -146t121.5 -139q261 -228 614 -351q250 -90 478 -57q22 11 79 28t80 29q129 51 176.5 150.5t5.5 234.5q-35 114 -104 204.5t-169 148.5
q-140 87 -280.5 118.5t-300.5 6.5q-94 -15 -180 -102q-23 -46 -35 -57q0 -11 12 -23q11 0 23 12q118 118 294 79q157 -27 279 -86t211 -164q86 -108 113 -205q32 -127 -102 -204q-43 -21 -91.5 -31t-90 -9.5t-91.5 6.5q-306 46 -613 238q-171 95 -262 216q-34 46 -80 137
q-27 67 -15.5 133.5t61.5 116.5q91 91 136 125q34 29 108 91.5t108 90.5q4 0 11 2.5t13 2.5t11 -5q46 -31 89 -45q173 -96 319 -125q0 16 2.5 27t4 13.5t8.5 9t8 7.5zM759 1463q-154 85 -262 193q-63 63 -80 148q-8 51 21 75.5t82 15.5q127 -32 205 -148q40 -64 46.5 -133
t-12.5 -151z" />
</svg>
