<?xml version="1.0" standalone="no"?>
<!DOCTYPE svg PUBLIC "-//W3C//DTD SVG 1.1//EN" "http://www.w3.org/Graphics/SVG/1.1/DTD/svg11.dtd" >
<svg xmlns="http://www.w3.org/2000/svg" xmlns:xlink="http://www.w3.org/1999/xlink" version="1.1" width="2048" height="2048" viewBox="-10 0 2059 2048">
   <path fill="currentColor"
d="M2039 385q0 8 -2.5 18.5t-5 18t-8 22.5t-8.5 25q-100 -79 -218 -97q-118 -15 -265 48q-165 83 -272.5 204.5t-161.5 290.5q-49 97 -49 242v192q26 195 49 290q12 62 33.5 137.5t38 124t49.5 137.5h-1001v-61q0 -118 24 -325q41 -248 107 -447q65 -177 170 -386
q12 -22 41.5 -75t49.5 -87t42 -67q102 -170 289 -302q150 -117 386 -156q205 -34 410 59q193 86 302 194zM24 1519q56 0 194 24q-7 30 -19 96t-18 96q-30 -6 -90.5 -12t-90.5 -12q6 -34 12 -97.5t12 -94.5zM386 952q-22 43 -48 144q-30 -12 -90.5 -29.5t-90.5 -29.5
q12 -24 30.5 -78.5t30.5 -78.5q52 26 168 72zM1315 1711q43 66 60 133v13h-12q-23 0 -80 -6.5t-89 -6.5q-12 1 -12 -11q-6 -19 -17.5 -61.5t-18.5 -60.5v-11h12q102 0 157 11zM676 469q-19 24 -55 66t-54 66q-21 -21 -69.5 -52.5t-63.5 -43.5q37 -48 109 -120q24 12 66.5 42
t66.5 42zM1098 1362q0 -85 -12 -133h12q24 12 66 36t66 36q6 0 9 3t3 7l1 3q11 33 11 109v11h-11q-58 -38 -145 -72zM1062 167q-24 12 -66.5 36t-66.5 37q-3 -5 -34 -45.5t-38 -62.5q18 -12 54 -30.5t54 -30.5h12q12 18 42.5 48t42.5 48zM1110 987q8 -24 13 -37t17.5 -33
t29.5 -37q12 12 42 36t42 36l13 11v13q0 50 -24 120q-24 -18 -66.5 -54t-66.5 -55zM1460 107q-97 0 -145 12q-7 -18 -12.5 -54t-11.5 -55h144q9 0 11 2t2 11q0 10 6 37t6 47zM1375 699q-26 50 -48 72q-18 -18 -54 -60.5t-54 -60.5q36 -25 84 -73v13q27 26 72 96v13z
M1568 433q0 3 6 27t6 45q-50 27 -72 48q-6 -18 -24 -48t-24 -48q19 -6 54.5 -12t53.5 -12zM1810 191v-59q18 12 59.5 41.5t60.5 41.5q-7 7 -12.5 19t-11.5 18q-14 -14 -50.5 -34t-45.5 -27zM1882 433q9 9 9 21t-9 40q-11 0 -44 -6.5t-53 -6.5v-61h25q12 0 36 6.5t36 6.5z
" />
</svg>
