<?xml version="1.0" standalone="no"?>
<!DOCTYPE svg PUBLIC "-//W3C//DTD SVG 1.1//EN" "http://www.w3.org/Graphics/SVG/1.1/DTD/svg11.dtd" >
<svg xmlns="http://www.w3.org/2000/svg" xmlns:xlink="http://www.w3.org/1999/xlink" version="1.1" width="2048" height="2048" viewBox="-10 0 2062 2048">
   <path fill="currentColor"
d="M1235 0h494q6 0 18 5.5t19 5.5q229 58 264 266q0 12 6 36.5t6 36.5v95q0 12 -6 36.5t-6 36.5q-6 85 -17.5 259.5t-18.5 259.5q-49 592 -60 855q0 36 -12 48t-48 12q-66 7 -193 12.5t-193 11.5q-133 7 -398 24.5t-397 23.5q-80 0 -217 24h-121q-6 0 -18 -5.5t-18 -5.5
q-111 -19 -187 -83t-102 -170q-7 -18 -12.5 -54.5t-11.5 -55.5v-60q0 -5 6 -19.5t6 -28.5q0 -48 6 -150t6 -151q0 -109 12 -157q74 -189 154 -331.5t196 -258.5q166 -175 341.5 -291t380.5 -167q16 -10 34.5 -19.5t44 -21t42.5 -19.5z" />
</svg>
