<?xml version="1.0" standalone="no"?>
<!DOCTYPE svg PUBLIC "-//W3C//DTD SVG 1.1//EN" "http://www.w3.org/Graphics/SVG/1.1/DTD/svg11.dtd" >
<svg xmlns="http://www.w3.org/2000/svg" xmlns:xlink="http://www.w3.org/1999/xlink" version="1.1" width="2048" height="2048" viewBox="-10 0 2058 2048">
   <path fill="currentColor"
d="M976 965h-237q-124 0 -198.5 74t-74.5 199v213q0 35 -35 35h-107q-165 0 -237 -142q-59 -120 -59 -213q-6 -74 -6.5 -132t9.5 -127.5t32 -132.5q28 -84 84.5 -140t141.5 -74h687q37 0 37 -11v-59q-25 -11 -37 -11h-403q-26 0 -37 -11t-11 -37v-155q0 -129 107 -165
q119 -48 178 -59q228 -39 428 11q94 18 165 71q42 41 61 79t11 87v427q0 124 -68 192t-193 68q-91 13 -238 13zM645 253.5q0 37.5 26 66t68 28.5q36 0 65.5 -29.5t29.5 -65.5q0 -33 -28 -59t-67 -35q-42 0 -68 28.5t-26 66zM1072 1083h237q124 0 198.5 -74t74.5 -199v-213
q0 -35 35 -35h107q165 0 237 142q59 120 59 213q6 74 6.5 132t-9.5 127.5t-32 132.5q-28 84 -84.5 140t-141.5 74h-687q-37 0 -37 11v59q25 11 37 11h403q26 0 37 11t11 37v155q0 129 -107 165q-119 48 -178 59q-228 39 -428 -11q-94 -18 -165 -71q-42 -41 -61 -79t-11 -87
v-427q0 -124 68 -192t193 -68q91 -13 238 -13zM1403 1794.5q0 -37.5 -26 -66t-68 -28.5q-36 0 -65.5 29.5t-29.5 65.5q0 33 28 59t67 35q42 0 68 -28.5t26 -66z" />
</svg>
