<?xml version="1.0" standalone="no"?>
<!DOCTYPE svg PUBLIC "-//W3C//DTD SVG 1.1//EN" "http://www.w3.org/Graphics/SVG/1.1/DTD/svg11.dtd" >
<svg xmlns="http://www.w3.org/2000/svg" xmlns:xlink="http://www.w3.org/1999/xlink" version="1.1" width="2048" height="2048" viewBox="-10 0 2068 2048">
   <path fill="currentColor"
d="M691 1413q-17 -104 -103 -133q-10 -5 -36 -20.5t-36 -20.5q-62 -21 -83 -31q-26 -13 -60 21q-14 27 10 51q10 21 40 50q21 31 72 83q3 4 10 14.5t9.5 14.5t7.5 13t5.5 15.5t1 16t-2.5 19.5q-17 120 -93 196q-4 4 -9.5 6.5t-7.5 3.5h-3q-23 0 -49.5 -12.5t-42.5 -28.5
q-22 -24 -18 -45.5t28 -37.5q8 0 14.5 -6.5t6.5 -13.5q33 -34 21 -73q-6 -5 -11 -15t-10 -16q-41 -41 -144 -123q-190 -146 -206 -370q-15 -238 113 -463q56 -94 134 -133q41 -20 124 -41q206 -56 359 -31q174 35 215 174q34 117 21 206q-7 106 -80 191.5t-176 117.5
q-47 15 -74 6t-50 -48q-4 -6 -21.5 -30.5t-29.5 -43.5t-21 -38v-10q0 -5 -5.5 -10.5t-5.5 -10.5q7 41 11.5 63.5t15.5 54.5t25 56q17 26 35.5 39t46.5 13q102 8 179.5 -24.5t139.5 -109.5q115 -159 82 -391q0 -11 -2 -22.5t-4 -18t-7 -21t-7 -20.5q0 -13 0.5 -18.5t5 -11.5
t14.5 -11h3q18 0 18 -10q175 -35 318 -20q204 17 340 112q237 148 319 442q10 31 10 83q0 14 -7.5 16t-23.5 -6q-9 -5 -16.5 -12.5t-14.5 -16.5t-10 -12q-5 -6 -15.5 -21t-15.5 -21q-8 -7 -14.5 -7t-6.5 7q0 6 -5 16t-5 15q-53 179 -143 268q-8 8 -14.5 21t-6.5 20
q0 14 -2 39t-2 45.5t4 38.5q5 41 15.5 128.5t15.5 129.5q7 36 -5.5 56t-45.5 36q-62 21 -103 21h-165q0 -25 -0.5 -37.5t-3 -34t-8 -34t-15.5 -26.5t-25 -23q21 -82 31 -134q13 -52 -21 -103q-26 -39 -81 -20q-111 69 -258 20q-29 -10 -53.5 -3.5t-38.5 34.5q-31 62 -31 124
t20 165q0 18 -1 25.5t-7.5 14t-22.5 11.5q-98 29 -205 11h-10q0 -25 -0.5 -38t-4 -34t-11 -33.5t-21.5 -26.5t-35 -23q52 -51 31 -175zM270 1177q20 -21 20 -41q8 -23 -10 -54t-41 -39q-9 -6 -18 -4t-13 4.5t-11 9.5q-15 16 -41 47t-41 46q0 5 -5 10.5t-5 10.5
q-8 15 -1.5 28t21.5 13q31 0 41 10q62 0 104 -41zM270 838q0 -15 -13 -28t-29 -13q-18 0 -33 14.5t-8 35.5q0 16 14.5 28.5t37.5 12.5q31 -30 31 -50z" />
</svg>
