<?xml version="1.0" standalone="no"?>
<!DOCTYPE svg PUBLIC "-//W3C//DTD SVG 1.1//EN" "http://www.w3.org/Graphics/SVG/1.1/DTD/svg11.dtd" >
<svg xmlns="http://www.w3.org/2000/svg" xmlns:xlink="http://www.w3.org/1999/xlink" version="1.1" width="2048" height="2048" viewBox="-10 0 2058 2048">
   <path fill="currentColor"
d="M1265 742q14 118 -23 214.5t-128 161.5l-15 7.5t-16 8.5t-14 8t-15.5 9t-13 8.5t-14.5 10.5t-11 11q-19 18 -19 35q0 14 -3.5 40.5t-3.5 40.5q0 13 -6.5 20.5t-21.5 14.5q-17 0 -35 19q-21 14 -25 41t16 48q9 19 26 36q12 14 9 25.5t-18 18.5q-14 9 -44.5 22.5
t-44.5 23.5q-14 7 -18 27.5t9 34.5q12 8 23 19t25.5 27t23.5 25q13 14 9 30.5t-18 23.5q-5 5 -18 9t-18 8q-57 30 -18 81q0 9 18 27q31 59 -9 98q-55 72 -108 72q-22 0 -62.5 -4.5t-62.5 -4.5q-9 -9 -9 -18q14 -94 45 -282t45 -282q33 -145 44 -259v-3q0 -11 -0.5 -16.5
t-4.5 -10.5t-12 -5q-27 0 -27 26q-9 45 -22 139t-23 139q-13 76 -35.5 223.5t-35.5 223.5q-5 17 -9.5 53t-8.5 54q-32 -13 -48.5 -32.5t-23.5 -47.5q-15 -72 0 -143q14 -77 36 -224t36 -223q20 -81 36 -206q3 -7 4 -12t-2 -9.5t-4.5 -7t-6.5 -7.5q-178 -163 -125 -402
q12 -62 45 -111t89 -104q4 13 17.5 40t17.5 40q70 141 206 179q54 14 92 -5.5t52 -66.5q13 -66 -28 -107q-20 -20 -50 -27t-57 0v9q18 18 26 18q63 13 63 72q0 29 -24 47.5t-56 5.5q-2 -1 -14.5 -7.5t-16 -8t-14 -7.5t-15.5 -9t-13 -8.5t-14 -10.5t-12 -11
q-64 -61 -93.5 -140t-25 -153.5t33.5 -141t76 -110.5q51 -50 115 -70t145 -20q128 7 222 78t127 191q29 128 -9 241l-81 -81q-9 -9 -9 -35q0 -131 -72 -215q-86 -86 -214 -72q-54 5 -96 26.5t-66.5 52t-40 68.5t-20 75t-1.5 74h135q155 7 258 99.5t117 239.5zM1587 1761
q14 73 -28.5 142t-122.5 110q-9 0 -13 -2t-8.5 -8t-6.5 -8q-35 -85 -107 -250.5t-108 -250.5q-17 -45 -48.5 -130t-49.5 -130q-6 -13 -0.5 -25.5t19.5 -19.5q197 -143 197 -375q0 -205 -171 -349q-5 -4 -13.5 -18t-12.5 -18l8 -9q167 43 233 188q87 211 -27 439q-14 26 0 53
q6 7 12 15.5t9 15.5t8 17.5t7 14.5q15 29 -9 53q0 9 -18 28q-15 26 -11.5 41.5t29.5 28.5q4 5 17.5 14t17.5 13q20 14 21.5 24t-12.5 30q-12 12 -18 19t-11.5 19t-5.5 24q0 10 4.5 27.5t4.5 26.5q0 27 26 27q15 0 35 4.5t28 4.5q32 7 41.5 26.5t-5.5 45.5q-13 40 0 80
q4 12 14.5 18.5t18.5 7.5t21 1q35 0 35 35zM1051 1234q227 532 313 751l-9 10q-10 -11 -44 -28q-58 -45 -90 -125q-32 -76 -94.5 -232.5t-93.5 -232.5q-4 -8 -4 -17t2 -20t2 -17q5 -14 9.5 -43t8.5 -46z" />
</svg>
