<?xml version="1.0" standalone="no"?>
<!DOCTYPE svg PUBLIC "-//W3C//DTD SVG 1.1//EN" "http://www.w3.org/Graphics/SVG/1.1/DTD/svg11.dtd" >
<svg xmlns="http://www.w3.org/2000/svg" xmlns:xlink="http://www.w3.org/1999/xlink" version="1.1" width="2048" height="2048" viewBox="-10 0 2058 2048">
   <path fill="currentColor"
d="M41 914q50 0 87 -11t57.5 -27t32.5 -40t15.5 -46t3.5 -49q0 -35 -6 -98.5t-6 -98.5q0 -36 -5.5 -102.5t-5.5 -94.5q0 -177 102.5 -262t291.5 -85h92v220h-46q-83 0 -117 46.5t-34 138.5q0 22 6 71t6 79q0 21 6 79t6 95q0 73 -14.5 125t-44.5 86.5t-68.5 55t-93.5 34.5
q55 14 93.5 34.5t68.5 54.5t44.5 86.5t14.5 124.5q0 38 -6 96t-6 78q0 25 -6 74t-6 65q0 92 34 138.5t117 46.5h46v220h-92q-90 0 -158 -18.5t-119.5 -59t-78.5 -108t-27 -161.5q0 -127 12 -197q12 -76 12 -197q0 -173 -197 -173zM2007 1110q-196 0 -196 175q0 34 6 98t6 98
q11 70 11 197q0 94 -28.5 162t-82 108t-123.5 58.5t-160 18.5h-92v-197h46q83 0 117 -46.5t34 -138.5q0 -88 -12 -139q0 -29 -6 -87t-6 -87q0 -72 14.5 -124.5t44.5 -86.5t68.5 -54.5t93.5 -34.5q-55 -14 -93.5 -34.5t-68.5 -55t-44.5 -86.5t-14.5 -125q0 -37 6 -95t6 -79
q12 -64 12 -150q0 -87 -36.5 -132t-114.5 -53h-46v-220h92q189 0 291.5 85t102.5 262q0 35 -5.5 98.5t-5.5 98.5q-12 69 -12 197q0 27 3.5 49t15.5 46t32.5 40t57.5 27t87 11v196z" />
</svg>
