<?xml version="1.0" standalone="no"?>
<!DOCTYPE svg PUBLIC "-//W3C//DTD SVG 1.1//EN" "http://www.w3.org/Graphics/SVG/1.1/DTD/svg11.dtd" >
<svg xmlns="http://www.w3.org/2000/svg" xmlns:xlink="http://www.w3.org/1999/xlink" version="1.1" width="2048" height="2048" viewBox="-10 0 2068 2048">
   <path fill="currentColor"
d="M449 275h338v948q0 157 -36 269t-107 178.5t-167.5 97t-226.5 30.5q-62 0 -134 -10t-116 -27l38 -275q75 37 174 37q55 0 95.5 -14t74 -46.5t50.5 -92.5t17 -147v-948zM1087 1424q71 41 174 70t201 29q118 0 177.5 -42.5t59.5 -119.5q0 -72 -56.5 -117.5t-193.5 -94.5
q-198 -69 -305 -178.5t-107 -270.5q0 -98 39 -181t111.5 -142.5t181 -93t241.5 -33.5q216 0 388 74l-75 275q-1 0 -33 -13.5t-43.5 -17.5t-45.5 -15t-58 -15.5t-60.5 -8.5t-72.5 -4q-109 0 -166.5 41t-57.5 109q0 21 6 39t15 33t28.5 30t37.5 26t52 26.5t61 27t75 30.5
q198 75 292.5 183.5t94.5 266.5q0 95 -38.5 177.5t-112 146.5t-192.5 100.5t-269 36.5q-119 0 -232 -26t-193 -61z" />
</svg>
