<?xml version="1.0" standalone="no"?>
<!DOCTYPE svg PUBLIC "-//W3C//DTD SVG 1.1//EN" "http://www.w3.org/Graphics/SVG/1.1/DTD/svg11.dtd" >
<svg xmlns="http://www.w3.org/2000/svg" xmlns:xlink="http://www.w3.org/1999/xlink" version="1.1" width="2048" height="2048" viewBox="-10 0 2069 2048">
   <path fill="currentColor"
d="M233 996q0 -38 -9 -47q-13 -14 -36 -12t-29 21q-20 36 -3.5 67.5t59.5 45.5q27 8 50 4t43 -24q100 -80 140 -120q7 -6 31 -27t33 -29t30.5 -24t35.5 -24.5t34.5 -18.5t40.5 -17q194 -65 317 46l56 56l19 18q8 -16 28 -36q89 -103 224 -103q152 0 270 103q28 23 79 69.5
t79 70.5q44 44 94 56q34 6 65.5 -10.5t45.5 -45.5q12 -36 -18 -66q-25 -25 -56 -9q-14 7 -19.5 20t0.5 27v9q-36 -24 -36 -74q0 -47 55 -66q63 -20 118 11.5t69 100.5q17 105 -19 177q-19 46 -56.5 71.5t-92.5 40.5q-47 14 -95 17t-95.5 -4t-90.5 -19t-92 -31l-252 -113
q-167 -76 -327 -36q-85 23 -205 74q-10 5 -58 27t-66 29.5t-53 21.5t-65 24q-168 62 -308 10q-179 -65 -167 -252q8 -57 28 -92t65 -47q60 -30 121 0q31 13 44 37t5.5 49t-31.5 44z" />
</svg>
