<?xml version="1.0" standalone="no"?>
<!DOCTYPE svg PUBLIC "-//W3C//DTD SVG 1.1//EN" "http://www.w3.org/Graphics/SVG/1.1/DTD/svg11.dtd" >
<svg xmlns="http://www.w3.org/2000/svg" xmlns:xlink="http://www.w3.org/1999/xlink" version="1.1" width="2048" height="2048" viewBox="-10 0 2058 2048">
   <path fill="currentColor"
d="M1355 1571q-14 21 -32 57q-17 34 -17 57q-4 40 -12 125t-12 125q0 43 -40 56q-28 8 -89 28.5t-89 28.5h-89q-4 0 -16 -4t-16 -4q-94 -30 -137 -57q-24 -24 -24 -40q-8 -65 -8 -185q0 -33 -1 -50.5t-5 -43.5t-15 -46.5t-28 -38.5v-8q302 86 630 0zM1476 546
q-4 56 -16 169.5t-16 169.5l-32 331q-21 209 -25 258q0 76 -81 89q-101 20 -233 33q-178 13 -339 -33q-19 -3 -31 -16t-16.5 -24.5t-9.5 -32.5q0 -49 -16 -112q-1 -12 -10.5 -95.5t-14.5 -131.5l-8 -72q0 -4 -4 -12t-4 -12q-3 -58 -11.5 -121t-19.5 -138t-17 -120
q-9 -46 -9 -122q471 99 913 -8zM563 497q32 -16 49 -16q37 -4 113.5 -12t113.5 -12q3 0 11 -4t14 -8l6 -4q-6 -19 -17 -67t-24.5 -79t-38.5 -56q-33 -33 -93 -101t-93 -101q37 -36 48 -37t41 29q11 11 28.5 30.5t31.5 33.5t29 25q137 113 161 282q11 35 29.5 46t51.5 11
q69 4 202 12t202 12q6 0 13 1.5t12 3.5t15.5 5.5l16.5 5.5q-49 37 -190.5 57t-292 19t-280.5 -21t-159 -55z" />
</svg>
