<?xml version="1.0" standalone="no"?>
<!DOCTYPE svg PUBLIC "-//W3C//DTD SVG 1.1//EN" "http://www.w3.org/Graphics/SVG/1.1/DTD/svg11.dtd" >
<svg xmlns="http://www.w3.org/2000/svg" xmlns:xlink="http://www.w3.org/1999/xlink" version="1.1" width="2048" height="2048" viewBox="-10 0 2058 2048">
   <path fill="currentColor"
d="M1676 1048q-38 16 -62 48.5t-39 92.5q0 171 10 262q44 -37 70 -77.5t41 -94.5q41 40 62 74t28 77q9 58 -3 120.5t-47 111.5q-40 66 -141 100l-30 31q-94 142 -262 171q-5 5 -20 10t-20 10q-34 27 -75 39t-106 22q-100 8 -182.5 -6.5t-160.5 -64.5q0 -10 -20 -10
q-183 -31 -272 -181q-20 -21 -31 -21q-77 -29 -124.5 -81t-62.5 -112t-4 -129q0 -86 91 -161q7 50 34.5 91t76.5 81q0 -17 5 -44.5t5 -36.5q10 -60 10 -172q0 -79 -81 -121q-84 -34 -131 -70q-40 -32 -55 -72t5 -79q5 -14 14 -25.5t26 -26t21 -18.5q39 -40 39 -61v-100
q0 -5 -5 -15.5t-5 -15.5q-5 -15 -19.5 -45t-20.5 -45q-7 -46 16 -81t75 -50q11 0 30.5 -5t30.5 -5q22 -61 7.5 -93.5t-68.5 -47.5q-20 -10 -60.5 -20.5t-60.5 -20.5l80 -80q90 -46 177 -44.5t176 53.5q20 16 60.5 51t60.5 51q5 5 15 10t15 10q0 -5 5.5 -15t5.5 -16
q17 -83 90 -141q5 0 10 -5t10 -5h10q0 7 -1 29t0 31.5t6 25t16 26.5q14 -65 55.5 -101t114.5 -61q-16 37 -14 71t25 70q4 -2 18 -11t18.5 -11.5t17 -9.5t18.5 -9.5t17.5 -7.5t20 -6.5t19.5 -3t22 -1.5l-31 60q0 10 -5 30t-5 30q0 7 0.5 11t5.5 9.5t15 10.5q36 18 50 -10
q60 -69 119.5 -106.5t142.5 -44.5q75 -9 143.5 12.5t118.5 78.5q10 -2 10 9q-30 0 -51 10q-54 18 -79 31q-18 11 -28.5 24t-15.5 23.5t-5 27t1.5 26t6.5 29.5l10 11h10q99 7 131 61t-21 130q-44 73 -29 161q8 26 16.5 40t23.5 21q44 19 60.5 58t0 81.5t-60.5 71.5
q-18 14 -40 26t-51.5 26t-39.5 19z" />
</svg>
