<?xml version="1.0" standalone="no"?>
<!DOCTYPE svg PUBLIC "-//W3C//DTD SVG 1.1//EN" "http://www.w3.org/Graphics/SVG/1.1/DTD/svg11.dtd" >
<svg xmlns="http://www.w3.org/2000/svg" xmlns:xlink="http://www.w3.org/1999/xlink" version="1.1" width="2048" height="2048" viewBox="-10 0 2064 2048">
   <path fill="currentColor"
d="M1977 1163q93 32 56 123q-13 45 -42 117t-37 96q-17 43 -49 58t-74 -2q-5 -1 -51 -19.5t-72 -24.5q-12 11 -34 39t-33 39q-7 7 -22 24t-28.5 30.5t-28.5 23.5q-11 0 -11 23q11 22 27.5 61.5t27.5 61.5q16 34 3 64.5t-47 48.5q-39 16 -112 49.5t-113 50.5q-35 9 -65 -2
t-46 -43q-12 -22 -28.5 -61t-27.5 -62q-6 0 -11.5 -5.5t-11.5 -5.5q-39 0 -111.5 5.5t-111.5 5.5q-3 7 -21 52t-25 71q-17 50 -45 62t-78 -6q-45 -13 -117 -41.5t-96 -36.5q-43 -18 -57.5 -49.5t1.5 -73.5q11 -23 27.5 -68t28.5 -67q-12 -11 -39.5 -33.5t-39.5 -33.5
q-7 -7 -23.5 -22t-30 -28.5t-23.5 -28.5q0 -11 -23 -11q-22 11 -61.5 27.5t-61.5 28.5q-34 16 -64 3t-48 -48q-16 -39 -50.5 -111.5t-50.5 -111.5q-9 -35 1.5 -66t42.5 -47q22 -11 61.5 -27.5t61.5 -28.5q0 -6 6 -11.5t6 -11.5q0 -39 -6 -111.5t-6 -111.5q-7 -2 -52 -20.5
t-71 -25.5q-49 -16 -61.5 -44.5t5.5 -78.5q18 -53 79 -201q17 -43 49 -58t74 2q7 2 52 20.5t71 24.5q17 -16 45.5 -50.5t44.5 -50.5q5 -10 13.5 -18.5t21.5 -19t21 -18.5q11 0 11 -23q-11 -22 -27.5 -61.5t-27.5 -61.5q-16 -34 -3 -64t47 -48q39 -16 112 -50.5t113 -50.5
q35 -9 65 2t46 44q12 22 28.5 61t27.5 62q6 0 11.5 5.5t11.5 5.5q39 0 111.5 -5.5t111.5 -5.5q3 -7 21 -52t25 -71q17 -43 49 -58.5t74 1.5q13 4 64 22.5t85 29t64 15.5q43 17 58 49.5t-2 74.5q-11 22 -27.5 67t-28.5 68q12 11 39.5 33t39.5 34q7 7 23.5 21t30 28t23.5 28
q0 12 23 12q22 -12 61.5 -28.5t61.5 -27.5q34 -16 64 -3t48 47q16 40 50.5 112.5t50.5 112.5q9 35 -1.5 65t-42.5 47q-22 11 -61.5 27.5t-61.5 27.5q0 6 -6 11.5t-6 11.5q0 39 6 112t6 113q4 1 50 19t73 25zM1192 1399q78 -37 135 -98t85 -134t27 -156t-34 -161
q-37 -79 -98 -136t-134 -85t-155.5 -27t-161.5 35q-78 37 -135 98t-85 134t-27 155.5t34 161.5q37 79 98 135.5t134 84.5t155.5 27t161.5 -34z" />
</svg>
