<?xml version="1.0" standalone="no"?>
<!DOCTYPE svg PUBLIC "-//W3C//DTD SVG 1.1//EN" "http://www.w3.org/Graphics/SVG/1.1/DTD/svg11.dtd" >
<svg xmlns="http://www.w3.org/2000/svg" xmlns:xlink="http://www.w3.org/1999/xlink" version="1.1" width="2048" height="2048" viewBox="-10 0 2058 2048">
   <path fill="currentColor"
d="M1225 101q166 105 319 220q132 97 296 224l129 98l-6 1405l-640 -265l-3 -706l-38 -34q-30 -37 -78 -85q-50 -54 -98 -89q-51 -37 -82 -37q-27 0 -79 37q-47 35 -97 89q-48 48 -82 85l-38 34l-3 706l-640 265l-6 -1405l133 -98q156 -125 289 -224q165 -121 318 -220
q155 -101 205 -101q49 0 201 101z" />
</svg>
