<?xml version="1.0" standalone="no"?>
<!DOCTYPE svg PUBLIC "-//W3C//DTD SVG 1.1//EN" "http://www.w3.org/Graphics/SVG/1.1/DTD/svg11.dtd" >
<svg xmlns="http://www.w3.org/2000/svg" xmlns:xlink="http://www.w3.org/1999/xlink" version="1.1" width="2048" height="2048" viewBox="-10 0 2068 2048">
   <path fill="currentColor"
d="M16 0q212 -3 419 40.5t389 124t348.5 197.5t303 258t246.5 308t183.5 345.5t110.5 372t31 386.5h-416q-12 -339 -125 -619t-339 -517q-222 -234 -512 -349t-623 -115q-16 -144 -16 -432zM1392 2048h-416q-8 -40 -24 -128t-24 -129q-97 -290 -283.5 -458.5t-483.5 -228.5
q-16 -7 -34.5 -11t-33 -4.5t-45.5 -0.5q-11 0 -18 -2.5t-10 -8t-3.5 -9.5t-0.5 -12v-400q488 0 880 320q239 215 361.5 481t134.5 591zM576 1759.5q0 120.5 -84 204.5t-204 84q-118 0 -196.5 -82.5t-91.5 -206.5q0 -120 83.5 -203.5t204 -83.5t204.5 83.5t84 204z" />
</svg>
