<?xml version="1.0" standalone="no"?>
<!DOCTYPE svg PUBLIC "-//W3C//DTD SVG 1.1//EN" "http://www.w3.org/Graphics/SVG/1.1/DTD/svg11.dtd" >
<svg xmlns="http://www.w3.org/2000/svg" xmlns:xlink="http://www.w3.org/1999/xlink" version="1.1" width="2048" height="2048" viewBox="-11 0 2069 2048">
   <path fill="currentColor"
d="M1955 971q44 22 64.5 59t28.5 96q0 75 -37.5 110.5t-117.5 43.5v11q0 20 -10 35.5t-31 36.5q-71 57 -164 41h-20q-47 55 -121.5 67t-136.5 -26q-5 0 -10 -5t-11 -5q-28 28 -67.5 34t-75.5 -4q-55 -14 -103 -30l10 10q25 31 64 102t40 72q14 59 0 104q0 14 -12.5 28.5
t-29.5 22.5q-4 0 -6.5 2.5t-3.5 5.5v2q0 49 -28 71.5t-75 31.5q-7 0 -19.5 -2t-23 -2t-19.5 4q-12 0 -28.5 14t-23.5 17q-61 31 -123 0q-16 -15 -31 0q-38 15 -82.5 -2t-60.5 -49q-11 -17 -27 -66.5t-25 -67.5q0 -5 -5 -10.5t-5 -10.5q-5 5 -15.5 20.5t-15.5 20.5
q-45 45 -109.5 49.5t-117.5 -28.5q-11 -11 -40 -39t-46.5 -45.5t-40 -43.5t-37.5 -47q-191 -287 -206 -607q-8 -157 39 -305.5t147 -270.5q205 -253 524 -298q77 -9 153.5 3t134.5 48q164 105 227 277q0 8 6 14.5t14 6.5q11 5 36 10.5t35 10.5q25 -53 63 -98t81.5 -76.5
t92.5 -55.5t95.5 -34t91.5 -12.5t80 9.5l-20 20q-85 85 -102 226q-11 31 -31 114q-38 91 -101 140.5t-157 65.5h-72q-8 7 -14.5 2.5t-6.5 -13.5q-5 -5 -10 -20.5t-10 -20.5q-53 8 -73.5 25.5t-28.5 57.5q22 0 54.5 5t47.5 5q38 6 169 26t216.5 36.5t169.5 39.5q24 6 58 21.5
t45 19.5zM1503 694q7 0 7 -1q-1 -1 -18 -9q-10 -6 -30.5 -11t-30.5 -10q-24 -8 -30 -5.5t-22 26.5q0 -16 -1.5 -24.5t-8 -12t-12 -4.5t-19.5 -1q-8 0 -9 1.5t-1 9.5q5 10 10 30.5t10 31.5q0 4 2.5 6.5t5.5 3.5h2q83 0 145 -31zM1369 477q0 6 -5.5 16t-5.5 15q11 5 26.5 15.5
t25.5 15.5q24 -43 39 -66.5t38.5 -53.5t52.5 -50t66 -35q-15 11 -28.5 23t-27.5 29t-22 26.5t-22 33t-18 29t-20 34.5t-17 30v21l28 21t28.5 21t22 17.5t24.5 22.5q0 -4 10.5 -16.5t10.5 -24.5q21 -51 41 -155q3 -10 8 -42.5t12.5 -57t20.5 -43.5q11 -20 31 -41
q-79 0 -165 52q-34 27 -55 45.5t-50.5 51.5t-48.5 66zM1092 653q0 62 10 92h10q5 -1 38 -14t45.5 -18.5t34.5 -17t37 -22.5q9 -10 9 -20q-7 2 -21 7t-20.5 7t-17.5 4t-22 2q-30 9 -56 5t-47 -25q92 18 144 -21q72 -29 164 -10q10 5 36 10t36 10q-10 -5 -25.5 -20.5
t-26.5 -20.5q-117 -88 -267 -103q-20 0 -20 10q-41 55 -41 145zM782 406q-79 0 -131.5 51t-52.5 134q0 77 53.5 131t131 54t131.5 -54t54 -131q0 -76 -57 -130.5t-129 -54.5zM1257 1033q61 2 99 2.5t101 -2.5t100 -6t98 -7.5t95 -7.5q0 -4 -2.5 -6.5t-5.5 -3.5h-2
q-55 -9 -112 -19.5t-124 -23t-104 -19.5q-165 -18 -257 -30h-21q-43 44 -61 71q-42 83 -73 114q-66 74 -131 117t-146 58q-107 14 -227 -21h-20q-34 25 -72 36.5t-72.5 10.5t-72.5 -5q-34 -12 -112 -31q0 5 5 10t5 10q84 184 247 288q186 140 411 124q116 -8 199.5 -85
t99.5 -193v-31q-10 -41 -31 -103q35 25 79.5 29t78 -12.5t38.5 -47.5q10 0 35.5 5.5t35.5 5.5q62 0 103 -41q15 -8 21.5 -27.5t-0.5 -34.5h20q31 7 64.5 -5.5t49.5 -36.5q14 -15 10 -23t-21 -8q-32 -4 -63 -9t-66.5 -11.5t-55.5 -9.5q-61 0 -143 -21zM782 694
q-51 0 -81.5 -31t-30.5 -72q0 -40 33.5 -71.5t78.5 -31.5q48 0 81 28.5t33 74t-33 74.5t-81 29zM722 508q-29 15 -11 52q31 15 64 15t48.5 -15.5t15.5 -29.5t-15 -22q-11 -5 -26.5 -10t-25.5 -10q-8 4 -26.5 9.5t-23.5 10.5z" />
</svg>
