<?xml version="1.0" standalone="no"?>
<!DOCTYPE svg PUBLIC "-//W3C//DTD SVG 1.1//EN" "http://www.w3.org/Graphics/SVG/1.1/DTD/svg11.dtd" >
<svg xmlns="http://www.w3.org/2000/svg" xmlns:xlink="http://www.w3.org/1999/xlink" version="1.1" width="2048" height="2048" viewBox="-10 0 2068 2048">
   <path fill="currentColor"
d="M1114 240q42 -11 110.5 -13t125.5 2t96 11q61 20 94.5 56t33.5 72t-33.5 67.5t-94.5 43.5q-78 16 -149 10.5t-121 -28t-50 -51.5q0 -32 34.5 -36.5t68.5 15.5q37 32 102.5 29.5t102.5 -29.5q53 -32 18 -57q-22 -17 -75 -24q-69 -8 -172 16t-204 75q-66 42 -112 55.5
t-116 13.5q-89 8 -135 -7.5t-92 -61.5q-16 -25 -18 -39.5t7 -39.5q12 -21 45.5 -37.5t72 -24t78.5 -4t65 19.5q41 28 -32 33q-20 1 -47 1q-130 0 -125 45q1 11 10 24q26 26 104.5 19t146.5 -42q48 -22 102.5 -48.5t73.5 -35.5t42 -17.5t43 -12.5zM148 389q85 -57 83 -24
q-1 5 -3 12q-12 12 -12 56q6 28 69.5 60.5t160.5 57t191 30.5q33 0 92.5 5.5t66.5 5.5q52 9 264 9t305 -9q169 -11 306.5 -42t211.5 -74t63 -87q-12 -37 9 -35q25 3 59 44q13 17 23 35q17 26 -6 63.5t-73 62.5q-32 24 -152.5 58t-189.5 44q-12 6 -64.5 12t-72.5 11
q-85 9 -399.5 9t-408.5 -9q-137 -16 -200 -28.5t-164 -40.5q-102 -34 -163.5 -79t-53.5 -80q0 -10 17 -30.5t41 -36.5zM113 696q-12 -77 9 -60q1 1 3 2q33 22 132 64t153 50q19 0 50 5.5t41 5.5q116 25 488.5 33t523.5 -10q185 -17 321 -54.5t180 -81.5q25 -26 29.5 -26
t4.5 26q0 43 -46.5 190.5t-89.5 241.5q-25 73 -160 262q-122 171 -136 228q-35 93 -97.5 146.5t-169.5 78.5t-279 25q-174 0 -277 -22.5t-163 -73t-95 -143.5q-9 -36 -48 -105t-88 -134q-79 -125 -148 -228l-46 -68q-23 22 -34 45q-27 45 -31.5 122.5t19.5 139.5
q26 68 97 132.5t131 72.5q60 7 55 21q-7 19 -98 23q-18 1 -37 1q-75 0 -102.5 -6t-68.5 -39q-83 -59 -109.5 -114t-26.5 -159q0 -72 8.5 -104.5t37.5 -89.5q23 -34 90 -102l46 -34l-34 -91q-4 -19 -13.5 -56t-15.5 -65.5t-6 -48.5z" />
</svg>
