<?xml version="1.0" standalone="no"?>
<!DOCTYPE svg PUBLIC "-//W3C//DTD SVG 1.1//EN" "http://www.w3.org/Graphics/SVG/1.1/DTD/svg11.dtd" >
<svg xmlns="http://www.w3.org/2000/svg" xmlns:xlink="http://www.w3.org/1999/xlink" version="1.1" width="2048" height="2048" viewBox="-10 0 2058 2048">
   <path fill="currentColor"
d="M1569 1q85 20 142 109q-3 -1 -21 -17.5t-39 -34.5t-50 -30t-51 -6q-23 4 -44 15.5t-35 24t-29.5 34.5t-24 36t-23 41.5t-21.5 38.5q-143 297 -207 679q-33 209 -39 335q-1 12 -4 38.5t-4 43.5t-1 38.5t4 35.5q21 -65 31.5 -96t32.5 -84.5t44 -93.5q20 -34 34.5 -56
t36.5 -50t47.5 -47t54.5 -30q-103 107 -155 281q-8 26 -15.5 58.5t-11.5 55t-10.5 60t-9.5 55.5q-2 24 -5.5 81.5t-5 90t-1.5 80.5t4 88q1 10 1 44q-1 81 16 90q10 5 28 -8q14 -37 19 -35q8 4 -7 48q-19 58 -45 55q-2 -1 -3 -1q-17 -12 -63.5 -10t-90.5 7.5t-85 -3.5
q-15 4 -45 1.5t-58 -16.5t-25 -33q-1 -2 -3 -7l-7 -17q1 0 3 3q21 22 37 18q24 6 37 -2.5t14 -24.5t0.5 -33.5t-2.5 -29.5t4 -13q11 55 17 42q8 -22 3 -96q0 -133 -15 -190q-10 -76 -40 -145.5t-84 -126.5t-124 -83q-50 -9 -45 -15q8 -8 69 0q43 6 59 16q38 13 71 37.5
t58.5 58t44.5 65.5t38 73q0 -55 8.5 -158.5t9.5 -120.5q15 -146 45 -329q20 -106 41.5 -191t55 -180t83 -179.5t111.5 -154.5q49 -62 112.5 -100t132.5 -30zM437 1081q11 37 20.5 83t15.5 79.5t14.5 88t13.5 81.5q23 138 46 370q8 -17 67 -32q60 -14 58 4q-29 -2 -50 13
t-32 42t-16 52.5t-7 53.5q-16 34 3 70q16 32 36 20q12 -7 20 -28q7 -32 11 -29q6 6 -1 46q-9 45 -28 41q-1 0 -2 -1q-4 0 -27 3t-28.5 4t-26.5 3t-28.5 2t-26 1t-28 -0.5t-26 -3t-27.5 -4.5t-24.5 -7.5t-26.5 -9.5q8 -4 12.5 -11.5t5.5 -13t2.5 -8.5t5.5 1t14 18
q52 20 35 -61q0 -4 -1 -9l-1 -9q1 1 10 21q14 49 18 38q7 -20 -4 -101l-3 -18q-17 -184 -94 -279q-3 -8 10 2q33 24 65 68q16 21 19 34q24 61 25 20q1 -12 -1 -47q-3 -41 -2 -54q2 -38 -1 -106.5t-2 -103.5q-2 -33 -2 -87t-3 -86q0 -18 -3.5 -70t-4.5 -80z" />
</svg>
