<?xml version="1.0" standalone="no"?>
<!DOCTYPE svg PUBLIC "-//W3C//DTD SVG 1.1//EN" "http://www.w3.org/Graphics/SVG/1.1/DTD/svg11.dtd" >
<svg xmlns="http://www.w3.org/2000/svg" xmlns:xlink="http://www.w3.org/1999/xlink" version="1.1" width="2048" height="2048" viewBox="-10 0 2058 2048">
   <path fill="currentColor"
d="M1033 0q26 2 46 8q118 63 334 188.5t270 156.5q22 15 58.5 34t64 34.5t56.5 37t47.5 50t24.5 63.5q2 85 1.5 380.5t0.5 380.5q-1 13 -0.5 43.5t0.5 48t-3 44t-9.5 44.5t-19.5 38t-32 34q-107 65 -313 182t-299 172q-17 8 -38.5 21t-39.5 24.5t-38.5 23.5t-40.5 20.5
t-41 14.5t-44 5.5t-45 -7.5q-128 -72 -362 -205t-305 -173q-10 -6 -39.5 -22t-43 -24t-37 -25t-35.5 -32t-23 -36.5t-15 -46.5q-2 -86 -1 -386t0 -385q1 -13 0.5 -42t-0.5 -45t3 -41.5t9 -42.5t18.5 -36t31.5 -32q115 -69 329.5 -191.5t287.5 -165.5q27 -12 73.5 -42.5
t87 -49t81.5 -18.5zM1057 418q-148 -7 -285.5 55t-227.5 178q-91 111 -117.5 257t14.5 288.5t140 245.5q99 111 246 158.5t299.5 22.5t268.5 -118q8 -9 27 -25t35 -30.5t35 -33t29 -35t14.5 -32.5t-5 -29t-33.5 -23q-21 -5 -52 -25t-57 -39.5t-53 -33.5t-50 -7.5t-39 38.5
q-58 68 -148.5 88.5t-178 -10.5t-139.5 -104q-53 -66 -59 -154t34.5 -166t114.5 -118q65 -43 145.5 -44.5t151.5 35.5t113 102q36 -2 82 -26.5t101.5 -61t86.5 -51.5q-75 -130 -209 -212.5t-284 -89.5zM1373 872v101h-103v102h103v102h100v-102h104v-102h-104v-101h-100z
M1717 872v101h-100v102h100v102h100v-102h100v-102h-100v-101h-100z" />
</svg>
