<?xml version="1.0" standalone="no"?>
<!DOCTYPE svg PUBLIC "-//W3C//DTD SVG 1.1//EN" "http://www.w3.org/Graphics/SVG/1.1/DTD/svg11.dtd" >
<svg xmlns="http://www.w3.org/2000/svg" xmlns:xlink="http://www.w3.org/1999/xlink" version="1.1" width="2048" height="2048" viewBox="-10 0 2068 2048">
   <path fill="currentColor"
d="M481 297h359q61 87 179 266t179 266q51 76 150 224t159 237.5t143.5 216t151.5 234.5h-358l-10 -10q-46 -72 -144 -215.5t-143 -215.5l-6 -8l-5 8q-46 72 -143 215.5t-143 215.5l-10 10h-359v-10q77 -118 235.5 -353.5t235.5 -353.5v-10q-77 -118 -235.5 -353.5
t-235.5 -353.5v-10zM0 307h359l10 10q41 56 117 174t118 174q20 31 59.5 89t63.5 93t55.5 84.5t57.5 92.5v10q-87 134 -254.5 381t-226.5 336h-359v-10q11 -17 38.5 -60t49.5 -75t45 -60q56 -87 169 -256t169 -256v-10q-237 -380 -471 -717zM1250 717h798v245h-645
q-26 -41 -77 -117t-76 -118v-10zM1484 1086h564v245h-410q-26 -41 -77 -117.5t-77 -117.5v-10z" />
</svg>
