<?xml version="1.0" standalone="no"?>
<!DOCTYPE svg PUBLIC "-//W3C//DTD SVG 1.1//EN" "http://www.w3.org/Graphics/SVG/1.1/DTD/svg11.dtd" >
<svg xmlns="http://www.w3.org/2000/svg" xmlns:xlink="http://www.w3.org/1999/xlink" version="1.1" width="2048" height="2048" viewBox="-10 0 2068 2048">
   <path fill="currentColor"
d="M891 2048q-121 0 -236.5 -32t-213 -89.5t-180 -140t-140 -180t-89.5 -213t-32 -236.5t32 -237t90 -215t142 -182t183.5 -140.5t219 -88.5t245.5 -28q118 2 231 35t208.5 90.5t175.5 139.5t136.5 178.5t87.5 211.5t31 236t-32 236.5t-89.5 213t-140 180t-180 140
t-213 89.5t-236.5 32zM1260 522q-108 0 -187.5 79.5t-79.5 186.5q0 109 77 188t190 79q109 0 187.5 -76.5t78.5 -190.5q0 -109 -76.5 -187.5t-189.5 -78.5zM1782 522q-71 0 -131.5 -34t-95 -95.5t-29.5 -135.5q0 -109 75.5 -183t189.5 -74q107 0 182 78.5t75 187.5
q0 106 -78.5 181t-187.5 75z" />
</svg>
