<?xml version="1.0" standalone="no"?>
<!DOCTYPE svg PUBLIC "-//W3C//DTD SVG 1.1//EN" "http://www.w3.org/Graphics/SVG/1.1/DTD/svg11.dtd" >
<svg xmlns="http://www.w3.org/2000/svg" xmlns:xlink="http://www.w3.org/1999/xlink" version="1.1" width="2048" height="2048" viewBox="-10 0 2058 2048">
   <path fill="currentColor"
d="M955 1979q-1 -53 45 -63q41 -10 74 18q39 35 8 83q-18 27 -49 31t-55.5 -16t-22.5 -53zM955 1432q0 -53 46 -63q40 -9 72 18q40 33 11 81l-2 2q-18 27 -49.5 31t-55.5 -16t-22 -53zM975 1754q-41 -40 -9 -82q25 -32 66 -33q48 0 59 51q1 1 1 3q6 24 -5.5 44.5t-30.5 30.5
t-42.5 7.5t-38.5 -21.5zM955 887q-2 -53 44 -63q42 -10 75 18q39 35 8 82q-17 29 -48.5 32.5t-56 -17t-22.5 -52.5zM955 1160q1 -54 47 -65q40 -9 73 20q38 36 7 85q-17 26 -48.5 29t-56 -17t-22.5 -52zM955 340q0 -53 46 -63q40 -10 72 18q40 33 11 81l-2 2
q-17 28 -48.5 31.5t-56 -16.5t-22.5 -53zM975 664q-41 -41 -10 -83q26 -33 67 -34q47 -2 59 49q1 2 1 4q6 23 -5.5 44t-30.5 31.5t-42 8.5t-39 -20zM975 115q-41 -40 -10 -82q25 -33 66 -33q49 1 61 53q6 24 -5 44.5t-30 30.5t-42.5 7.5t-39.5 -20.5z" />
</svg>
