<?xml version="1.0" standalone="no"?>
<!DOCTYPE svg PUBLIC "-//W3C//DTD SVG 1.1//EN" "http://www.w3.org/Graphics/SVG/1.1/DTD/svg11.dtd" >
<svg xmlns="http://www.w3.org/2000/svg" xmlns:xlink="http://www.w3.org/1999/xlink" version="1.1" width="2048" height="2048" viewBox="-10 0 2068 2048">
   <path fill="currentColor"
d="M1024 48q95 0 180.5 36.5t148 99t99 148t36.5 180.5t-36.5 180.5t-99 148t-148 99t-180.5 36.5t-180.5 -36.5t-148 -99t-99 -148t-36.5 -180.5t36.5 -180.5t99 -148t148 -99t180.5 -36.5zM463.5 1072q94.5 0 181 36.5t148.5 99t99 148.5t37 180t-37 180t-99 148.5
t-148.5 99t-181 36.5t-180 -36.5t-148 -99t-99 -148t-36.5 -180.5t36.5 -180.5t99 -148t148 -99t180 -36.5zM1584.5 1072q94.5 0 180 36.5t148 99t99 148t36.5 180.5t-36.5 180.5t-99 148t-148 99t-180 36.5t-181 -36.5t-148.5 -99t-99 -148.5t-37 -180t37 -180t99 -148.5
t148.5 -99t181 -36.5z" />
</svg>
