<?xml version="1.0" standalone="no"?>
<!DOCTYPE svg PUBLIC "-//W3C//DTD SVG 1.1//EN" "http://www.w3.org/Graphics/SVG/1.1/DTD/svg11.dtd" >
<svg xmlns="http://www.w3.org/2000/svg" xmlns:xlink="http://www.w3.org/1999/xlink" version="1.1" width="2048" height="2048" viewBox="-11 0 2070 2048">
   <path fill="currentColor"
d="M1442 110q44 -1 83 18.5t64 54.5q33 52 49 113t14.5 128.5t-9 121.5t-22.5 125q30 21 131.5 60t144.5 74q37 24 68.5 54.5t55 69.5t27 80.5t-15.5 85.5q-21 43 -55.5 80t-70.5 63.5t-84.5 51t-88.5 40t-91 32.5q-11 24 -8.5 64t11 78t12.5 83t-4 79q-2 44 -13 87.5
t-31.5 84t-56.5 67.5t-82 32q-60 4 -119.5 -11.5t-115.5 -50t-98.5 -67t-94.5 -79.5q-26 4 -59 26.5t-61.5 48.5t-66.5 52t-70 35q-40 21 -83 33t-88 14t-86.5 -16t-68.5 -55q-34 -50 -49.5 -109t-14 -125.5t8.5 -119t21 -122.5q-20 -25 -71.5 -45.5t-108.5 -44t-88 -51.5
q-30 -19 -56.5 -42.5t-50 -53.5t-36 -61.5t-14.5 -67.5t14 -71q22 -43 56.5 -81t71.5 -64t87 -50.5t89.5 -39.5t93.5 -33q9 -27 5.5 -72.5t-12 -88t-11.5 -93t7 -88.5q4 -56 25.5 -107t65.5 -87.5t101 -37.5q60 1 120 19.5t116.5 53.5t100.5 69.5t96 82.5q50 -47 92 -81
t96 -69t111.5 -54.5t116.5 -22.5zM1439 198q-73 6 -139 42t-144 98q-38 18 -49.5 38.5t1 43.5t31.5 43.5t43.5 47.5t34.5 47q19 37 57 54.5t76 19t87.5 6.5t80.5 19q14 -14 23.5 -36t13.5 -56t5.5 -55t1.5 -64t1 -53q-12 -197 -124 -195zM605 199q-50 0 -74 33
q-24 36 -36 78t-11.5 93t3.5 84t12 90q-3 41 12 59t43 16.5t57.5 -9.5t65.5 -16t59 -5q37 -4 69.5 -31t53 -60t49 -72t56.5 -59q-47 -42 -81 -69.5t-81.5 -59.5t-96.5 -49.5t-100 -22.5zM1026 463q-65 70 -115 136q14 9 57 9.5t84 -2.5t79 2q6 -11 -12.5 -36.5t-51 -60.5
t-41.5 -48zM1024 694q-94 0 -186 7q-107 158 -187 324q80 170 188 326q191 12 373 -1q102 -155 186 -326q-84 -168 -167 -294q-15 -22 -41 -30.5t-53 -6t-58 3t-55 -2.5zM725 711q-62 8 -140 23q-26 2 -34 15t-1.5 34t17 43t21.5 46.5t13 38.5q20 -13 62.5 -94.5
t61.5 -105.5zM1323 713q64 103 93 155q22 70 46 16q6 -14 18 -53q13 -42 20 -54q5 -20 -6 -31.5t-33.5 -15.5t-47 -5.5t-50.5 -4t-40 -7.5zM455 765q-121 35 -208 84q-1 0 -2 1q-30 18 -46.5 28.5t-43.5 32t-40 40.5t-21 45.5t-2 54.5q18 37 47.5 69t60 54t75 44t75.5 34
t79 29q22 -3 37 -28t21.5 -55.5t18.5 -67t26 -54.5q12 -34 10.5 -61t-14.5 -61.5t-27.5 -62t-28.5 -62.5t-17 -64zM1595 766q-27 91 -70 192q-18 28 -19 60t11.5 63t27.5 60.5t30 64t19 62.5q24 11 59.5 0.5t91.5 -40t67 -34.5q19 -12 32.5 -21t32.5 -24t32 -28t26 -30.5
t18.5 -34t5 -37t-9.5 -39.5q-23 -35 -55.5 -65t-64.5 -50.5t-76.5 -40t-77.5 -31.5t-80 -27zM1024 840q52 -2 95.5 26.5t66 71t21.5 94.5t-31 94q-34 55 -97.5 73t-125 -6.5t-89.5 -82.5q-20 -33 -22.5 -72t11 -74t37.5 -64t59.5 -45.5t74.5 -14.5zM1445 1125
q-53 102 -90 162q-44 49 -2 49q12 -1 94 -18q22 -5 33 -5q20 -5 24.5 -21t-3.5 -37.5t-19.5 -44t-23 -47t-13.5 -38.5zM605 1128q-23 54 -53 138q-7 18 -6.5 29t11.5 18t25.5 10t34 4.5t36.5 2t34.5 3t27.5 6.5q-1 -24 -50 -102.5t-60 -108.5zM1538 1391q-98 23 -204 35
q-35 -1 -62.5 14t-48.5 41t-38.5 54t-39.5 58t-45 47q3 22 24 45.5t43.5 39t58.5 39t49 32.5q27 15 48 25t52.5 20t55.5 11t49.5 -9t43.5 -34q25 -46 36 -98t8 -110t-10 -103.5t-20 -106.5zM515 1394q-30 122 -31 219q0 25 0.5 38t2.5 39t5.5 41.5t10.5 37t17 35t25.5 26
t35.5 18.5q51 3 101.5 -10t99.5 -43t83.5 -56t82.5 -68q9 -20 -5 -45.5t-37 -47t-48.5 -50t-34.5 -49.5q-23 -31 -63 -45t-78.5 -15t-87 -6t-79.5 -19zM1148 1441q-103 4 -184 2q-47 -9 -48 7q-1 14 52 70q30 31 37 44q10 11 21.5 11.5t22 -7t20.5 -20t20.5 -28.5
t19.5 -30.5t19.5 -28t19.5 -20.5z" />
</svg>
