<?xml version="1.0" standalone="no"?>
<!DOCTYPE svg PUBLIC "-//W3C//DTD SVG 1.1//EN" "http://www.w3.org/Graphics/SVG/1.1/DTD/svg11.dtd" >
<svg xmlns="http://www.w3.org/2000/svg" xmlns:xlink="http://www.w3.org/1999/xlink" version="1.1" width="2048" height="2048" viewBox="-10 0 2058 2048">
   <path fill="currentColor"
d="M1027 0q11 1 68.5 2.5t80.5 3.5t64.5 9.5t73.5 19.5q28 6 76.5 34t70.5 33q41 -19 87 -20.5t87 20t60 63.5q30 57 1 118t-90 81q21 81 28.5 164.5t8.5 217.5t2 167q-3 13 -3 23.5t1 18.5t6.5 15.5t8.5 12t13 9.5t14.5 7.5t18 6.5t18 5.5t20.5 5.5q47 29 29 71
q-14 33 -50 41q-39 9 -68 -26q1 19 4.5 113.5t3.5 132t-3.5 107t-14.5 124.5q-35 172 -125 275q5 8 16 18.5t20 20t20 22.5t16 24.5t7.5 27t-4.5 28.5q-14 25 -31 34.5t-32 6t-32.5 -15t-31.5 -25.5t-32 -30t-30 -24q-152 69 -359 81q-168 16 -386 -58q-16 5 -37 21
t-38.5 30t-37 24.5t-40.5 7.5t-40 -23q-17 -16 -19.5 -34t4 -32.5t23 -31.5t29.5 -27t31 -23q-110 -92 -131 -215q-2 -100 -2 -284.5v-227.5q3 -21 -4 -23.5t-20.5 6t-28 18t-30 8.5t-23.5 -20q-26 -29 -22.5 -52t28.5 -40.5t54.5 -28t55.5 -12.5q-3 -38 -12.5 -107.5
t-15 -126.5t-3.5 -108q-3 -57 -1.5 -84.5t8.5 -84t9 -83.5q-17 -15 -24 -21.5t-24 -23t-24.5 -27.5t-18 -29t-13 -33t-1.5 -34.5t9 -38.5q36 -121 250 -80q50 -35 107.5 -59t123 -37t119.5 -19t127 -10zM1053 23q-82 2 -123 5q-67 4 -129 16.5t-123 37t-111.5 66.5t-81.5 99
q-40 78 -61 166t-23 183.5t4.5 175t21.5 181.5q1 77 -4.5 220.5t-5.5 198.5q0 29 -1 81.5t-0.5 88.5t5 80.5t18.5 84t38 73.5q15 32 43.5 56t55.5 37t60.5 33.5t54.5 43.5q223 90 570 20q37 -5 72 -22t79 -46t63 -40q43 -37 74.5 -86.5t49.5 -107.5t27.5 -111t14.5 -117
q0 -96 -7.5 -282.5t-7.5 -275.5q-2 -47 -3 -129t-3.5 -138t-10 -126t-27.5 -132.5t-53 -118.5q-32 -61 -86 -105.5t-119.5 -68t-133 -33.5t-137.5 -8zM1224 101q81 -1 145.5 53t61.5 134q7 65 -32.5 119t-103.5 66q-67 19 -131.5 -6t-94.5 -86q-22 -33 -25.5 -72t10 -74.5
t37.5 -65.5t59.5 -48.5t73.5 -19.5zM1540 104q-25 1 -38 6t-17.5 10t1.5 16t12 19t21 24q2 3 4 4q34 -9 53 5.5t18 39.5t-19 47q6 54 33.5 60t58.5 -43q24 -33 20 -69t-22.5 -65t-53 -45t-71.5 -9zM1253 115q-44 -4 -87 14.5t-71 51t-40 75t6 88.5q14 48 54.5 80t88 41
t97 -5.5t82.5 -52.5q35 -37 39 -88t-17 -94.5t-62 -75.5t-90 -34zM759 125q47 -1 92 20.5t71 60.5q45 58 32 133.5t-71 120.5q-39 34 -95 39.5t-104 -13.5t-82 -62t-33 -98q-9 -52 17 -100.5t73.5 -76t99.5 -24.5zM441 133q-58 0 -98 42.5t-32 99.5q1 42 39 72q37 28 61 9
q16 -13 17 -45q-8 -15 -13.5 -31.5t-6 -33t13 -25t40.5 -4.5q25 -10 37.5 -27.5t10.5 -32t-20 -22.5t-49 -2zM767 138q-59 0 -85 16q-44 15 -71.5 54t-33 83t11.5 88.5t54 70.5q38 32 89.5 38t96.5 -11t78.5 -55.5t37.5 -89.5q13 -77 -43.5 -137.5t-134.5 -56.5zM1143 243
q38 2 53.5 37t-7.5 64q-40 43 -80 14q-31 -23 -31 -62q-1 -43 45 -51q9 -2 20 -2zM642 258q27 -2 51.5 12.5t27.5 40.5q1 62 -44 67q-37 5 -67 -25q-34 -35 -6 -68q13 -15 38 -27zM1000 421q34 0 50 8q14 16 56 53t59 64q14 23 5 37.5t-23.5 20t-31 12.5t-18.5 15
q15 41 -4 83q-20 42 -55 23q-10 -6 -22 -18q-17 18 -44 19.5t-43.5 -18t-5.5 -55.5q14 -24 6.5 -36t-22 -13.5t-32 -10.5t-21.5 -27q8 -54 51 -100.5t95 -56.5zM1081 489q-17 22 -45.5 26t-55 -2t-51.5 -9t-42.5 11t-21.5 52q10 25 30.5 32t45 1.5t50 -12t52 -4t44.5 20.5
q58 14 65 -25q6 -33 -24 -65q-21 -23 -47 -26zM1003 595q-33 6 -54 16q-12 14 -17 45t6 55.5t40 18.5q9 -6 15 -17t8.5 -20t3.5 -25t0.5 -24t-1.5 -26.5t-1 -22.5zM1028 600q-22 73 3 121q40 22 55 -17q13 -37 -7 -75q-18 -34 -51 -29zM1662 1003q-9 0 -12 8t-2 17t0 16
q-3 9 -3 17t2.5 14t6 11.5t10 10t12 8t14 7t14 5.5t14.5 5q22 0 26.5 -7t-3.5 -15t-14 -15.5t-5.5 -8.5t21.5 7q28 8 25 -9q-4 -22 -41 -51q-40 -31 -65 -20zM389 1020q-80 17 -104 53q-9 20 -3.5 25.5t16 4t19.5 -5t7 -1t-21 17.5q4 41 40 28q35 -13 57 -51q28 -49 -11 -71
zM1495 1874q-41 -3 -81 51q13 8 31 29t32 37.5t35.5 27t42.5 4.5q-2 -10 -10 -32q-12 -37 -10 -38q3 -2 23 31q0 1 1 2q27 14 26 -12q-2 -33 -33 -71q-30 -36 -57 -29zM567 1882q-20 5 -42.5 17t-41.5 30t-24.5 39t7.5 44q13 -26 42 -51q9 -8 8 -3q-1 6 -20 32q-14 49 20 44
q39 -5 98 -54q8 -7 13 -12q46 -7 18 -41q-24 -30 -62 -42q-9 -3 -16 -3z" />
</svg>
