<?xml version="1.0" standalone="no"?>
<!DOCTYPE svg PUBLIC "-//W3C//DTD SVG 1.1//EN" "http://www.w3.org/Graphics/SVG/1.1/DTD/svg11.dtd" >
<svg xmlns="http://www.w3.org/2000/svg" xmlns:xlink="http://www.w3.org/1999/xlink" version="1.1" width="2048" height="2048" viewBox="-10 0 2058 2048">
   <path fill="currentColor"
d="M1050 0q67 -1 129 7t124.5 27t116 56t90.5 89q26 36 46 76t32.5 86.5t20.5 83t12 92.5t5.5 86.5t2.5 94t2 87.5q1 88 4 187.5t7 220.5t6 188q-2 275 -110 427q-16 23 -42 46t-42 34t-56.5 35t-49.5 29q-204 81 -503 52q-145 -10 -259 -114q-47 -11 -84.5 -49.5t-58 -83
t-31.5 -95.5q-10 -92 -10.5 -189t5 -234.5t6.5 -189.5q4 -23 2 -60.5t-4.5 -60t-8 -60.5t-7.5 -60q-8 -92 -8.5 -167.5t8.5 -161.5t38 -164.5t77 -143.5q39 -44 91 -75.5t102 -49t115 -28t115 -14t117 -4.5zM1225 81q-45 3 -86.5 26.5t-65.5 62.5q-32 41 -32 95t23.5 98
t68.5 74t96 28q76 7 140 -40.5t65 -122.5q12 -59 -16.5 -111.5t-81.5 -82t-111 -27.5zM1546 82q44 -2 83.5 15.5t55.5 55.5q29 30 2 95q-22 52 -53 67q-31 14 -43 -29q-12 -14 -10 -28.5t11 -25t12.5 -25t-5.5 -28.5q-35 5 -77 -28q-40 -31 -27 -52q10 -16 51 -17zM1254 103
q32 1 66 20q53 24 79.5 79.5t14 115t-62.5 93.5q-36 27 -82.5 32.5t-88 -8.5t-74.5 -47.5t-43 -77.5q-11 -41 2 -81.5t41 -69t67.5 -44.5t80.5 -12zM752 105q-69 -4 -129 43.5t-64 115.5q-12 64 19 122.5t91 82.5q41 22 87 19t86 -21.5t69.5 -55t37.5 -81.5
q12 -56 -13.5 -110t-76 -86t-107.5 -29zM428 113q31 1 47.5 4.5t24.5 11t0 21.5t-31 37q-17 2 -35 9t-32 18t-13 27.5t22 33.5q7 21 -0.5 40t-22.5 28t-34.5 2.5t-32.5 -31.5q-25 -29 -26 -65.5t15.5 -67t48.5 -50.5t69 -18zM760 128q30 2 45 6q59 10 94 60t32 111t-44 102
q-31 38 -81 51t-97 2.5t-84.5 -45t-45.5 -84.5q-13 -52 10 -102t70.5 -79t100.5 -22zM1139 225q-33 6 -50.5 36t3.5 59q37 51 80 24q32 -19 37 -57q6 -46 -39 -58q-14 -4 -31 -4zM643 240q-25 7 -38 28.5t-11 43.5t19 38.5t45 14.5q49 3 60 -39q10 -38 -16 -68
q-23 -26 -59 -18zM998 405q-17 2 -34 7q-8 7 -32.5 28t-39.5 36.5t-30 37t-12.5 43t23.5 40.5q21 -3 33 0.5t15 14t2 21t-3 28t-2 29.5q1 30 14 38t28.5 1t32.5 -13t24 0q22 17 38.5 17.5t25.5 -11.5t13.5 -30.5t4 -38.5t-4.5 -37q5 -4 15.5 -8.5t21 -8.5t20.5 -11.5
t15.5 -15.5t4.5 -21t-11 -29q-18 -12 -38.5 -34.5t-34.5 -40t-37.5 -30.5t-51.5 -12zM1074 479q36 8 60 47q25 40 -2 57q-14 9 -42 8q-23 -20 -55 -21t-59 8t-56.5 7.5t-48.5 -21.5q0 -39 14 -55t38.5 -14.5t51 6.5t54.5 1.5t45 -23.5zM997 588q3 0 2.5 11t-0.5 12
q8 37 -9 79q-19 45 -47 15q-4 -5 -9 -12q-3 -26 -2 -50.5t17.5 -40.5t47.5 -14zM1026 591q37 0 51 28t7 65q-21 50 -46 25q-24 -24 -25 -71q0 -31 13 -47zM1671 999q25 6 36.5 9t30 12t30.5 22q10 16 12 25.5t-2.5 13t-13.5 3t-18.5 -3.5t-19.5 -7q37 15 25 32
q-11 15 -40 10q-21 -4 -33 -19q-26 -10 -25.5 -46.5t18.5 -50.5zM376 1016q19 11 20.5 32t-10 41t-31 36.5t-37.5 18.5q-25 2 -31.5 -5.5t1 -18t13.5 -19.5t6.5 -10.5t-19.5 7.5q-36 -5 -11 -34q26 -32 70 -45q17 -5 29 -3zM1500 1884q61 5 93 94q2 37 -12 31q-8 -3 -37 -40
q-8 -10 -7.5 -6t9.5 25q30 42 2 47q-25 6 -55 -19q-17 -13 -21 -30q-30 -9 -40.5 -26.5t-3 -34t27.5 -29t44 -12.5zM555 1892q20 -4 61 29q44 34 27 48q-3 2 -8 4q-9 4 -38 24q-83 57 -104 50q-18 -5 -9 -45q29 -35 19 -34q-12 2 -29 28q-10 14 -13 27q-20 -16 -15.5 -37.5
t22.5 -41.5t42.5 -35t44.5 -17z" />
</svg>
