<?xml version="1.0" standalone="no"?>
<!DOCTYPE svg PUBLIC "-//W3C//DTD SVG 1.1//EN" "http://www.w3.org/Graphics/SVG/1.1/DTD/svg11.dtd" >
<svg xmlns="http://www.w3.org/2000/svg" xmlns:xlink="http://www.w3.org/1999/xlink" version="1.1" width="2048" height="2048" viewBox="-10 0 2068 2048">
   <path fill="currentColor"
d="M982 575h-359v1077h-264v-1077h-359v-190h971v190h11zM1795 1325q0 -37 -13 -63.5t-40 -53.5q-9 -9 -21 -17t-33.5 -17.5t-32.5 -14t-46.5 -17.5t-46.5 -17q-218 -63 -348 -159q-58 -49 -87 -107.5t-29 -135.5q0 -163 137 -253q128 -95 338 -95q205 0 338 116
q127 112 127 274h-243q0 -46 -15 -80.5t-48 -67.5q-70 -52 -170 -52q-102 0 -158 42q-52 40 -52 116q0 57 63 105q29 22 74.5 39.5t135.5 45.5q206 63 318 158q105 89 105 254q0 81 -32.5 148t-94.5 105q-128 95 -338 95q-224 0 -359 -105q-161 -126 -147 -307h253
q0 110 74 170q32 24 83.5 38t106.5 14q116 0 158 -42q43 -66 43 -116z" />
</svg>
