<?xml version="1.0" standalone="no"?>
<!DOCTYPE svg PUBLIC "-//W3C//DTD SVG 1.1//EN" "http://www.w3.org/Graphics/SVG/1.1/DTD/svg11.dtd" >
<svg xmlns="http://www.w3.org/2000/svg" xmlns:xlink="http://www.w3.org/1999/xlink" version="1.1" width="2048" height="2048" viewBox="-10 0 2058 2048">
   <path fill="currentColor"
d="M1357 0q71 -3 136.5 26t110 85.5t51.5 127.5q-1 14 -19.5 17t-39.5 -0.5t-38 0.5q-26 7 -39.5 2.5t-25.5 -19.5t-20 -30.5t-23 -30.5t-34 -21q-21 -12 -50 -13.5t-55.5 7t-47.5 24.5t-26 39.5t8 53.5q27 27 67 44t75.5 23t81.5 16.5t76 24.5q40 11 71 38.5t47.5 63.5
t21.5 78t-6 81q-10 46 -36.5 83.5t-63 61t-80.5 39.5t-89 17.5t-89 -4.5q-68 -5 -128 -38.5t-97.5 -92t-33.5 -127.5h111q20 -6 35 0.5t25 20.5t19.5 29.5t24 29t32.5 17.5q29 15 68 15.5t73.5 -11t54 -40.5t9.5 -68q-22 -29 -58 -47.5t-69 -25t-77.5 -16t-71.5 -20.5
q-77 -22 -129 -80t-47 -133q-2 -55 24 -103.5t69 -80t96 -48.5t106 -15zM331 16h232q20 78 60.5 234.5t61.5 234.5q15 -78 45 -234.5t46 -234.5h261v814h-156q-2 -77 -6 -229t-6 -229q-15 77 -46.5 229t-46.5 229h-166q-20 -73 -58.5 -219.5t-57.5 -218.5v438h-163v-814z
M1031 878q75 -4 175 22q-5 15 -36 46.5t-63.5 69t-41.5 68.5q-96 -10 -180.5 46.5t-119.5 148.5q-16 58 -28.5 171.5t-15.5 132.5q0 44 -18.5 86t-55 70t-82.5 26q-61 -124 -67.5 -269.5t39.5 -274.5q32 -103 107.5 -183t177 -122.5t209.5 -37.5zM1478 886q88 0 154 19
q120 25 203 121.5t82 217.5h-171q-23 3 -39.5 -9.5t-27 -34t-21.5 -43t-30 -38t-46 -18.5q-39 -14 -85 -16t-89.5 9t-76.5 41t-42 74q6 19 19.5 56t20.5 59.5t12.5 55t1.5 62.5q16 70 -28 67q-28 -1 -113 -49q-7 -3 -11 -6q-61 -35 -90 -102t-25 -138.5t33 -134.5
q30 -67 92 -112.5t131.5 -63.5t145.5 -17zM471 908q123 0 215 31q-15 28 -70.5 92t-71.5 106h-232v657q164 17 235 14q50 8 94 -18t70 -73q29 -42 41.5 -90t17.5 -125.5t8 -99.5q-3 -83 41.5 -153.5t120.5 -103.5q45 80 64 175t12 189t-37 184q-44 136 -162.5 226t-261.5 97
q-69 2 -147 -0.5t-172 -7.5t-147 -7v-1084q63 -2 190.5 -4.5t191.5 -4.5zM1465 1123h68q91 155 90.5 333t-84.5 336q-22 14 -55.5 12t-64 -11.5t-56.5 -24.5q-26 -16 -29 -39.5t8.5 -60t13.5 -48.5q52 -173 1 -302q-21 -35 -23.5 -72t11 -66t45.5 -45t75 -12zM1654 1386
q116 27 177 73q78 46 110 134t10.5 180t-89.5 150q-77 66 -182 93t-207.5 18.5t-203.5 -43.5q-101 -34 -164 -130t-45 -200h145q17 -3 28 -4.5t20.5 5t15 12.5t11 17.5t9 21.5t9 24t11.5 24q89 105 314 66q37 -3 63.5 -24t34.5 -50.5t4.5 -60.5t-26 -56.5t-58.5 -34.5
q3 -36 7 -107.5t6 -107.5zM961 1816q13 0 37.5 1.5t36.5 1.5q20 19 55 65t71 81.5t75 52.5q-68 25 -143 29t-146 -9t-141 -41l40.5 -40.5t46 -47t34.5 -41.5t34 -52z" />
</svg>
