<?xml version="1.0" standalone="no"?>
<!DOCTYPE svg PUBLIC "-//W3C//DTD SVG 1.1//EN" "http://www.w3.org/Graphics/SVG/1.1/DTD/svg11.dtd" >
<svg xmlns="http://www.w3.org/2000/svg" xmlns:xlink="http://www.w3.org/1999/xlink" version="1.1" width="2048" height="2048" viewBox="-10 0 2068 2048">
   <path fill="currentColor"
d="M32 68l753 14l47 53v133l-39 42h-61q-12 0 -18 7q-4 7 -4 19l-7 570v3q4 4 4 12q3 7 7 10q6 4 13 4q12 -6 19 -11l588 -575q0 -3 4 -3q3 -4 3 -10q4 -7 4 -12q0 -7 -7 -10q-4 -4 -17 -4h-51l-35 -45v-137l39 -54l738 8l36 36v157l-1680 1705h-189l-54 -57l-4 -1594
q0 -8 -6 -15q-4 -7 -15 -7l-61 -3l-39 -36v-165z" />
</svg>
