<?xml version="1.0" standalone="no"?>
<!DOCTYPE svg PUBLIC "-//W3C//DTD SVG 1.1//EN" "http://www.w3.org/Graphics/SVG/1.1/DTD/svg11.dtd" >
<svg xmlns="http://www.w3.org/2000/svg" xmlns:xlink="http://www.w3.org/1999/xlink" version="1.1" width="2048" height="2048" viewBox="-10 0 2058 2048">
   <path fill="currentColor"
d="M1073 0v19q1 50 2 77.5t5.5 81.5t11.5 91.5t21 91.5t33 97.5t48.5 94.5t67.5 97q39 48 95.5 106t98.5 98.5t88 97t75.5 110t48.5 128t19 159.5q0 135 -38 250.5t-102.5 196.5t-148.5 139t-175.5 85.5t-183.5 27.5q-67 0 -133 -12t-133.5 -40t-127.5 -68.5t-112.5 -101
t-90.5 -135.5t-59.5 -174t-21.5 -213q0 -233 108.5 -505t307.5 -524q78 -98 151 -169t145 -106zM653 1825q129 107 321 148q116 25 119 -9q1 -26 -56 -60q-29 -17 -63 -29q-123 -43 -321 -50z" />
</svg>
