<?xml version="1.0" standalone="no"?>
<!DOCTYPE svg PUBLIC "-//W3C//DTD SVG 1.1//EN" "http://www.w3.org/Graphics/SVG/1.1/DTD/svg11.dtd" >
<svg xmlns="http://www.w3.org/2000/svg" xmlns:xlink="http://www.w3.org/1999/xlink" version="1.1" width="2048" height="2048" viewBox="-10 0 2058 2048">
   <path fill="currentColor"
d="M1025 0q55 -2 96 41t36 98q123 65 214 230q60 115 97 245t50 263t8 264t-27 265q-2 5 -18 92q-18 97 -49 98q-13 0 -30 -16q121 -417 40 -837q-18 -84 -38.5 -152.5t-53 -143t-80.5 -137t-109 -106.5q-17 10 -26 15t-31 16t-37 16t-38 9t-39.5 0.5t-35 -14.5t-31.5 -31
q-26 -29 -29 -68t12.5 -71.5t48 -55t70.5 -20.5zM1025 55q-35 -2 -57.5 25t-19 62t33.5 54q52 35 91 -5q31 -33 25 -78q-6 -49 -56 -57q-8 -1 -17 -1zM553 423q31 0 46 1q9 2 37 3q104 6 119 27q11 16 -12 41q-63 -9 -108 -12.5t-103 -3.5t-110.5 12t-99.5 36
q-80 35 -112 122t-5 172q0 8 2 18t7.5 22.5t10 21t12.5 24.5q14 25 19.5 37.5t9.5 29.5t-5.5 24.5t-32.5 7.5q-27 -43 -46.5 -87t-31.5 -92.5t-11 -98.5t17 -95q21 -57 64.5 -99.5t99 -66t114.5 -34.5t119 -10zM1503 426q246 4 349 136q39 51 51.5 114.5t0 127t-37 121.5
t-60.5 111q-5 7 -19 28q-54 82 -80 91q-24 9 -36 -29q39 -49 65.5 -86t55 -87t44.5 -101t19 -102q9 -90 -53 -161.5t-153 -90.5q-13 -6 -92 -13q-75 -7 -76 -28q0 -12 22 -31zM1271 449q19 0 26.5 19.5t-9.5 31.5q-361 83 -665 309q-75 57 -134.5 111t-119 121t-102 143
t-63.5 157q-16 28 -14 47t13.5 27.5t30.5 17t37 15.5t34.5 22t21.5 37q14 29 11.5 60t-18.5 55.5t-40 43.5t-54 23t-60 -5q-39 -10 -63.5 -42.5t-28.5 -70t13 -74.5t53 -55q-3 -62 12.5 -126t47.5 -123t67 -108t80 -102q183 -200 421.5 -338t502.5 -196zM1024 983
q44 -2 72 30.5t24.5 75t-40.5 66.5q-62 43 -110 -2q-38 -35 -35 -89q2 -59 55 -76q15 -5 34 -5zM383 1139l10 3q228 242 541 388q72 32 136 56.5t139.5 45.5t144.5 31t145 8.5t146 -17.5q37 0 53 -13t16.5 -35.5t-1.5 -47t5 -51t30 -42.5q34 -38 87 -38.5t94 33t44 85.5
q6 39 -13.5 73.5t-51.5 53t-72 18.5t-71 -25q-127 71 -323 61q-252 -19 -493.5 -128t-452.5 -283q-6 -9 -20.5 -22t-30 -25t-32.5 -26t-29 -27t-18.5 -26.5t-2.5 -26.5t20 -23zM205 1481q-35 -2 -57.5 25.5t-19 62.5t33.5 53q52 35 91 -5q31 -32 25 -77q-6 -50 -56 -58
q-8 -1 -17 -1zM1841 1481q-38 0 -60 28t-16 63.5t40 53.5q53 30 89 -14q29 -35 19 -79q-11 -50 -67 -52h-5zM641 1597l15 6q5 11 23 50.5t25.5 54.5l24.5 49t30 52.5t31.5 44.5t38.5 45.5t43 36.5q73 63 172 54.5t165 -79.5q6 -3 13.5 -9.5t15.5 -17t13 -18t14 -21.5
q11 -16 16 -24t14.5 -20t16 -15t14.5 -5t15.5 4.5t14.5 19.5q-50 91 -122.5 156.5t-162.5 82.5q-63 11 -123.5 -7t-110 -57.5t-88.5 -88t-68 -104.5q-5 -16 -22.5 -47.5t-30 -55.5t-12 -49t24.5 -38z" />
</svg>
