<?xml version="1.0" standalone="no"?>
<!DOCTYPE svg PUBLIC "-//W3C//DTD SVG 1.1//EN" "http://www.w3.org/Graphics/SVG/1.1/DTD/svg11.dtd" >
<svg xmlns="http://www.w3.org/2000/svg" xmlns:xlink="http://www.w3.org/1999/xlink" version="1.1" width="2048" height="2048" viewBox="-11 0 2070 2048">
   <path fill="currentColor"
d="M1582 447l52 -53l201 199q200 200 206 215q14 29 1 60q-8 16 -207 216l-201 199l-52 -53l-53 -53l170 -169l169 -170l-169 -169l-170 -169zM624 605l-29 -29h349q256 0 304.5 1t53.5 6q3 3 18 17t46.5 43t65.5 60l20 22h-350l-349 1l-27 -25q-6 -5 -24 -22t-25 -24
q-25 -23 -53 -50zM210 970q202 -200 204 -200t54 51l51 53l-169 169l-170 170l170 169l169 170l-51 50q-50 52 -53 52q-3 1 -203 -198q-7 -8 -22 -23q-142 -142 -166.5 -171t-23.5 -49v-2q2 -24 29 -55t181 -186zM754 952q2 -1 341 -1t353 1q7 0 -6 11q-2 2 -54.5 51.5
t-69.5 64.5l-21 21h-351h-351l19 -19q5 -4 15.5 -14.5t26 -25t26.5 -24.5q55 -50 59 -55q2 -2 5 -4.5t5 -4t3 -1.5zM624 1354l-29 -29h350h350l25 22q21 22 30 29q27 26 51 48q53 49 53 50h-351q-241 0 -297 -0.5t-59 -4.5q-13 -13 -49 -45.5t-74 -69.5z" />
</svg>
