<?xml version="1.0" standalone="no"?>
<!DOCTYPE svg PUBLIC "-//W3C//DTD SVG 1.1//EN" "http://www.w3.org/Graphics/SVG/1.1/DTD/svg11.dtd" >
<svg xmlns="http://www.w3.org/2000/svg" xmlns:xlink="http://www.w3.org/1999/xlink" version="1.1" width="2048" height="2048" viewBox="-11 0 2070 2048">
   <path fill="currentColor"
d="M671 1742q429 10 867 -142q29 -13 44 -34t13 -42.5t-13.5 -40t-36 -27t-55.5 -2.5q-78 -12 -187.5 -15t-193.5 -2.5t-186 -15.5t-183 -54q-27 -33 -27.5 -67.5t20 -62t53 -52t67 -41t66.5 -25.5q62 -25 132 -44.5t161.5 -40.5t135.5 -32q-56 -44 -175 -95.5t-157 -74.5
q-8 -3 -26.5 -10.5t-31 -13t-31 -14t-30.5 -16.5t-25.5 -18.5t-20 -22t-10 -24.5t1 -28t16.5 -31q45 -19 94 -31.5t105 -18.5t96 -9t107 -5t98 -4q46 -8 77 -42t39.5 -75.5t-7 -84.5t-54.5 -67q-21 -16 -46 -26t-47 -15t-52 -4.5t-49.5 2.5t-53 9t-50 11.5t-51.5 14.5
t-48 14q-45 5 -95 25q-44 19 6 21h26q24 0 71 -3.5t78 -5t69 9.5t64 36q-7 25 -30.5 39.5t-57.5 19.5t-68.5 7t-73 5t-61.5 9q-25 3 -115.5 7t-148 13.5t-111.5 32.5q-28 30 -31.5 64t11.5 63.5t43.5 58.5t57 50t58.5 38q138 88 331 148q-94 -5 -183 4t-177.5 33.5
t-167.5 71.5t-139 114q-34 55 -20 109.5t57 98t97 62.5q141 72 297.5 100t312.5 9q11 1 34.5 -0.5t44.5 -3t41.5 -1t31.5 5t8 13.5q-47 29 -108 46.5t-133 32t-115 30.5q-102 23 -250 56zM2048 1024q3 121 -28 242.5t-88 228.5t-140 201.5t-182 165.5t-216.5 117.5
t-240.5 59.5q-205 28 -409.5 -31t-370 -192t-257.5 -316q-98 -185 -114 -398.5t53.5 -417.5t214.5 -354q99 -108 229.5 -184t272 -113t293 -32t289.5 55q185 62 336.5 192.5t244.5 307t108 369.5q5 44 5 99z" />
</svg>
