<?xml version="1.0" standalone="no"?>
<!DOCTYPE svg PUBLIC "-//W3C//DTD SVG 1.1//EN" "http://www.w3.org/Graphics/SVG/1.1/DTD/svg11.dtd" >
<svg xmlns="http://www.w3.org/2000/svg" xmlns:xlink="http://www.w3.org/1999/xlink" version="1.1" width="2048" height="2048" viewBox="-10 0 2058 2048">
   <path fill="currentColor"
d="M1644 2048q-2 -2 -22 -20.5t-44 -39.5t-65.5 -48.5t-86.5 -51t-107.5 -43t-128.5 -28t-149 -2t-168 31.5q-65 19 -124.5 25.5t-105.5 1t-86.5 -18.5t-71 -32t-55.5 -39.5t-42.5 -40.5t-29.5 -36.5t-19 -26.5t-9 -10q-11 -57 9 -113.5t61.5 -107t95.5 -101t113 -105
t111 -109.5t93.5 -123t57.5 -138q-42 -67 -53.5 -132.5t0 -124.5t44.5 -136q21 -66 56 -37q26 23 41 85l108 -19q-8 -60 33 -105q26 -29 41 -20q6 4 6 15q0 60 35 110q49 -104 84.5 -178t79.5 -158t76 -128.5t49 -44.5q7 0 9 8t-1 22t-8 32t-13 40t-15.5 43t-15 44t-11.5 41
q-28 73 -60.5 175.5t-60.5 166.5q18 8 44 14t39.5 10t28.5 18t23 38q65 37 122.5 52.5t94.5 15t93.5 1t107.5 11.5q31 -22 54 -12.5t24 40.5q3 4 9 11t10 12.5t9 16.5t4.5 23.5t-3.5 33.5l-87 77q39 59 -1 94t-102.5 34t-95.5 -8q-30 -11 -64.5 -12.5t-62.5 3t-65.5 4.5
t-73.5 -9q-32 48 -72.5 72t-75 23.5t-64.5 -8t-47 -17.5l-17 -11q-3 12 -14.5 42t-21.5 57.5t-14.5 66t2 71t33.5 67t75 60.5q83 49 160 121.5t128 143t90.5 139.5t58.5 115.5t20 65.5zM286 1640q-97 -53 -151.5 -185.5t-43.5 -314.5q12 -70 52 -143t91 -127t105.5 -91
t96.5 -45q22 -4 66.5 -10.5t63.5 -10t52 -11.5t52.5 -17.5t43.5 -25.5t45 -38q-1 49 -0.5 85t15 77t48.5 90q-17 62 -60 125t-96 115.5t-113.5 105.5t-114 103t-94 100.5t-57.5 106t-1 111.5z" />
</svg>
