<?xml version="1.0" standalone="no"?>
<!DOCTYPE svg PUBLIC "-//W3C//DTD SVG 1.1//EN" "http://www.w3.org/Graphics/SVG/1.1/DTD/svg11.dtd" >
<svg xmlns="http://www.w3.org/2000/svg" xmlns:xlink="http://www.w3.org/1999/xlink" version="1.1" width="2048" height="2048" viewBox="-10 0 2058 2048">
   <path fill="currentColor"
d="M1375 0q6 7 20 8.5t19 5.5q15 101 -25 200.5t-120.5 171.5t-179.5 95q-18 8 -32 11.5t-24 1t-17 -7t-11 -15t-6.5 -19.5t-2 -24t1 -26t3 -27.5t4 -26t4.5 -24.5q40 -118 141 -206t225 -118zM672 489h51q41 -6 86.5 5t81 27.5t81.5 32t84 17.5q47 -6 155 -43.5t171 -37.5
q130 -14 254.5 37.5t207.5 152.5q-11 24 -41 56.5t-58.5 59.5t-55.5 65.5t-36 74.5q-33 90 -22.5 192t62.5 184q20 36 51.5 67t76 65t64.5 53q-43 166 -189 354q-5 5 -25.5 27t-28 29.5l-27 27t-30 27.5t-29.5 22.5t-33.5 22t-33.5 15.5t-37 12q-40 10 -91 0.5t-86.5 -23.5
t-86 -32t-87.5 -23q-42 -6 -87.5 3t-86.5 25l-82 32t-86.5 25.5t-87.5 5.5q-56 -14 -106.5 -50.5t-103.5 -90.5q-116 -142 -190.5 -304.5t-95.5 -331.5q-43 -288 60 -500q60 -125 180 -203t257 -78z" />
</svg>
