<?xml version="1.0" standalone="no"?>
<!DOCTYPE svg PUBLIC "-//W3C//DTD SVG 1.1//EN" "http://www.w3.org/Graphics/SVG/1.1/DTD/svg11.dtd" >
<svg xmlns="http://www.w3.org/2000/svg" xmlns:xlink="http://www.w3.org/1999/xlink" version="1.1" width="2048" height="2048" viewBox="-10 0 2068 2048">
   <path fill="currentColor"
d="M1064 226q21 2 39.5 17t22.5 36q2 160 1.5 720.5t-0.5 720.5q7 24 -3 48.5t-28 39t-42.5 14.5t-43.5 -20q-77 -63 -242.5 -204t-254.5 -213q-40 -2 -178.5 -1.5t-178.5 0.5q-11 -1 -34 0t-39 0t-34 -4.5t-30.5 -15.5t-17.5 -32v-511q0 -6 -0.5 -25t-0.5 -28t1.5 -26
t6 -27t11 -21t18.5 -17.5t28 -8.5q81 -2 231.5 -1.5t230.5 -0.5q48 -46 143.5 -128.5t113.5 -98.5q29 -21 67.5 -56.5t66.5 -63.5t67.5 -55t78.5 -38zM1707 238q34 0 65 30q114 140 181 313.5t84 360.5v34.5t2.5 41.5t8.5 29q-21 273 -118 487q-8 14 -26 50.5t-28 56
t-29.5 50.5t-36 50.5t-40.5 39.5t-49 32q-51 1 -70 -29.5t-6.5 -69.5t45.5 -65q126 -171 172 -385.5t6 -430.5t-160 -392q-24 -23 -42.5 -53t-28 -61.5t7 -56.5t62.5 -32zM1518 407q27 0 47 19q85 107 136 234t60 260q25 159 -13.5 322.5t-128.5 304.5q-12 57 -67 67
q-47 8 -81 -22q-41 -36 -6 -89q0 -1 1 -3q93 -123 133.5 -276.5t21 -312t-99.5 -290.5q-16 -21 -31 -43.5t-27 -52t-13.5 -53t15 -42t53.5 -23.5zM1321 636q43 2 62 31q93 151 101.5 331.5t-76.5 335.5q-8 54 -60 71q-46 15 -79 -11q-34 -26 -18 -77q72 -109 84.5 -243.5
t-39.5 -254.5q-17 -22 -28.5 -51.5t-14.5 -58.5t14 -50t54 -23z" />
</svg>
