<?xml version="1.0" standalone="no"?>
<!DOCTYPE svg PUBLIC "-//W3C//DTD SVG 1.1//EN" "http://www.w3.org/Graphics/SVG/1.1/DTD/svg11.dtd" >
<svg xmlns="http://www.w3.org/2000/svg" xmlns:xlink="http://www.w3.org/1999/xlink" version="1.1" width="2048" height="2048" viewBox="-10 0 2058 2048">
   <path fill="currentColor"
d="M1329 0q59 2 91 4t83 7.5t92.5 18.5t79.5 33q151 64 183 169q11 75 -7 152.5t-60 144.5l-174 157l-12 7q-5 3 -22.5 14t-26.5 18.5t-19 19t-7.5 23t15.5 23.5q10 10 30.5 31t33 35t27 34t21 41t4.5 42q-7 58 -32.5 112.5t-66.5 103t-80 84.5t-92 79q-39 26 -95 72.5
t-96.5 80.5t-97 67.5t-111.5 47.5q-32 -2 -42 12q-4 7 5 7q10 -1 26 -10q-22 33 -85.5 56t-118.5 22q-197 97 -388 150q-10 25 -27 52.5t-30 45t-37.5 48t-35.5 44.5q-15 -3 -17 -15.5t6.5 -30t19.5 -35.5t20.5 -37t10.5 -29q13 -23 2.5 -32t-31.5 3q-2 -14 -15 -11.5
t-27 11.5t-26.5 9.5t-13.5 -16.5l192 -372l175 -380q31 -105 89.5 -235t117 -259.5t89.5 -235.5q-11 -12 -7.5 -24.5t11.5 -19.5t16.5 -19.5t9.5 -25.5q-100 35 -209 101q-12 4 -28 15.5t-29 23t-27.5 20t-28.5 7t-28 -16.5q-32 16 -59 46q-4 3 -8.5 7.5t-7 8t-7.5 9.5
q-7 9 -10.5 13t-8.5 6.5t-9 -3t-7 -18.5q24 -16 17 -21q-8 -6 -27 13q-8 7 -15 17q-5 -39 34 -68t75 -17q-25 -22 9 -29q9 -1 2 -3q-1 -14 18.5 -31t53.5 -38t43 -28q42 -27 5 -26q-14 0 -33 4q27 -31 103.5 -75.5t103.5 -67.5q239 -101 528 -143zM1156 240q-19 45 -136 308
q-5 16 -28.5 52.5t-25.5 62.5q1 16 -9 41.5t-20 45.5t-13.5 42.5t12.5 31.5q30 5 85 -25t75 -34q23 -9 67.5 -25t72.5 -27.5t63.5 -29.5t64.5 -41.5t52 -53.5q17 -19 48.5 -45t57 -51.5t40.5 -54.5q17 -4 21 -47q1 -21 6 -22q3 0 9 6q21 14 36 -21q18 -40 3 -72
q-5 -11 -13 -16q-21 -29 -37.5 -22t-8.5 39q-7 3 -14.5 -7t-14.5 -24.5t-20.5 -25t-29.5 -7.5q-36 -6 -79 -6t-74.5 4t-78.5 12q0 -20 -21 -22q-18 -2 -46.5 10.5t-43.5 23.5zM1252 939q-52 0 -115 19.5t-112.5 42.5t-113 41t-117.5 17q-15 33 -123.5 249.5t-160.5 333.5
q38 -10 75.5 -22t79 -31t70 -32t75.5 -39.5t66.5 -38t73.5 -43.5t67 -40q48 -26 93 -58.5t111 -85.5t85 -69q18 -9 32 -23t25.5 -35.5t17 -33.5t16.5 -39q14 -22 13 -39.5t-16.5 -31t-34 -22.5t-39.5 -14q-27 -6 -68 -6z" />
</svg>
