<?xml version="1.0" standalone="no"?>
<!DOCTYPE svg PUBLIC "-//W3C//DTD SVG 1.1//EN" "http://www.w3.org/Graphics/SVG/1.1/DTD/svg11.dtd" >
<svg xmlns="http://www.w3.org/2000/svg" xmlns:xlink="http://www.w3.org/1999/xlink" version="1.1" width="2048" height="2048" viewBox="-10 0 2068 2048">
   <path fill="currentColor"
d="M1649 1252q107 0 199 54t146 145.5t54 198t-54 198.5t-146 146t-199 54q-75 0 -416.5 -28.5t-645.5 -56.5l-303 -28q-120 -18 -202 -116t-82 -226q0 -59 22.5 -121.5t57.5 -106.5l683 -853l-103 -171l251 -341h374l80 171h-341l-113 170l113 171h341l-80 171h-374
l-228 569h966zM341 1764q68 0 119.5 -51.5t51.5 -119.5t-51.5 -119t-119.5 -51t-119 51t-51 119t51 119.5t119 51.5zM1649.5 1877q93.5 0 160.5 -67t67 -160.5t-67 -160t-160.5 -66.5t-160 66.5t-66.5 160t66.5 160.5t160 67z" />
</svg>
