<?xml version="1.0" standalone="no"?>
<!DOCTYPE svg PUBLIC "-//W3C//DTD SVG 1.1//EN" "http://www.w3.org/Graphics/SVG/1.1/DTD/svg11.dtd" >
<svg xmlns="http://www.w3.org/2000/svg" xmlns:xlink="http://www.w3.org/1999/xlink" version="1.1" width="2048" height="2048" viewBox="-10 0 2068 2048">
   <path fill="currentColor"
d="M187 465h278v1118h-278v-746h-187v-278h187v-94zM1117 465q102 0 196.5 36.5t166 99t120.5 148t67 182.5h-289q-29 -84 -100 -135t-161 -51q-119 0 -199.5 80t-80.5 199t80.5 199t199.5 80h484h447v280h-931h-19v-1q-110 -4 -209.5 -49.5t-172 -120t-115 -176
t-42.5 -212.5q0 -113 44.5 -216.5t119 -178.5t178 -119.5t216.5 -44.5z" />
</svg>
