<?xml version="1.0" standalone="no"?>
<!DOCTYPE svg PUBLIC "-//W3C//DTD SVG 1.1//EN" "http://www.w3.org/Graphics/SVG/1.1/DTD/svg11.dtd" >
<svg xmlns="http://www.w3.org/2000/svg" xmlns:xlink="http://www.w3.org/1999/xlink" version="1.1" width="2048" height="2048" viewBox="-10 0 2068 2048">
   <path fill="currentColor"
d="M1019 866v316h-122q-112 -7 -175.5 -12t-155.5 -20t-169 -39q-84 -21 -224 -82q-42 -11 -102 -51q-38 -31 -54.5 -64.5t-16.5 -78.5v-265q0 -61 50 -112q65 -64 194 -102q214 -75 439 -91q286 -21 418 -21q360 0 682 102q27 9 57.5 24.5t68.5 37t58 31.5q81 50 81 152
v254q0 100 -71 143q-19 14 -40 26t-53 27t-40 19q-4 4 -11.5 4t-16.5 -2t-12 -2q-547 -137 -744 -184q-21 -10 -41 -10zM1019 1804h-203q-302 -18 -510 -82q-32 -10 -67 -25t-80 -36t-67 -31q-92 -62 -92 -173v-235q22 30 47.5 54.5t57.5 44.5t56.5 33.5t65 28t62.5 22
t67 21.5q292 72 622 72q24 0 32.5 8.5t8.5 31.5v266zM2038 1213v285q0 57 -61 102q-91 56 -154 81q-4 5 -11.5 5t-19.5 -2.5t-19 -2.5l-612 -153l-122 -30q-5 0 -9.5 -5t-7.5 -10l-3 -5v-286q36 11 102 25.5t101 25.5q97 25 286 71.5t286 71.5h40q11 -7 46 -27.5t48 -30
t37.5 -28.5t41 -40t31.5 -47z" />
</svg>
