<?xml version="1.0" standalone="no"?>
<!DOCTYPE svg PUBLIC "-//W3C//DTD SVG 1.1//EN" "http://www.w3.org/Graphics/SVG/1.1/DTD/svg11.dtd" >
<svg xmlns="http://www.w3.org/2000/svg" xmlns:xlink="http://www.w3.org/1999/xlink" version="1.1" width="2048" height="2048" viewBox="-10 0 2068 2048">
   <path fill="currentColor"
d="M1460 1123l588 -71v658l-416 52q-121 -468 -172 -639zM750 1194l132 658l-882 112v-689zM1379 525q68 -164 30 -295q118 35 244 113q62 39 125 96.5t107.5 111t80.5 101t54 76.5l18 29l-669 82q-11 -36 -31 -102t-30 -101q14 -15 28.5 -36.5t20.5 -32.5t22 -42zM648 849
q5 10 10.5 30t10.5 31l-669 81l365 -284q112 127 283 142zM1126 646q9 33 87 323.5t145.5 533t81.5 269.5q15 76 -40 132q-18 17 -37.5 29t-45.5 19t-40.5 10.5t-48 7.5t-41.5 5q-37 7 -65.5 -23.5t-36.5 -78.5q-9 -59 -66.5 -308.5t-120.5 -516t-66 -281.5q-4 -11 -9 -17.5
t-13.5 -8.5t-13 -2.5t-15.5 -0.5q-138 0 -213 -122q-29 -43 -33 -103.5t11 -114.5t42 -97q4 -9 14.5 -11.5t18.5 -0.5l8 2q30 21 50 41q66 85 102 122q15 15 30 0q67 -41 173 -111q9 0 11.5 -2.5t0 -9t-2.5 -9.5l-90 -182q-16 -23 -10 -42.5t29 -19.5q178 -33 265 112
q80 122 9 284q-22 43 -61 101q-15 15 -16.5 32t7.5 39z" />
</svg>
