<?xml version="1.0" standalone="no"?>
<!DOCTYPE svg PUBLIC "-//W3C//DTD SVG 1.1//EN" "http://www.w3.org/Graphics/SVG/1.1/DTD/svg11.dtd" >
<svg xmlns="http://www.w3.org/2000/svg" xmlns:xlink="http://www.w3.org/1999/xlink" version="1.1" width="2048" height="2048" viewBox="-11 0 2069 2048">
   <path fill="currentColor"
d="M752 1401q6 -6 11 -12.5t7 -9.5t4.5 -5t6.5 -2q443 -657 866 -1268q44 -60 86.5 -66.5t109.5 36.5q17 11 39.5 26.5t36.5 26t40.5 31t31.5 24.5q30 25 44.5 52t11.5 57t-27 58q-182 261 -540.5 787t-540.5 786q-59 81 -129.5 88.5t-136.5 -58.5l-30 -30l-599 -599
q-89 -89 0 -177q22 -26 46 -50t48 -46.5t33 -31.5q59 -59 98.5 -59t98.5 59l374 374q0 -9 2 -9q6 3 8 18z" />
</svg>
