<?xml version="1.0" standalone="no"?>
<!DOCTYPE svg PUBLIC "-//W3C//DTD SVG 1.1//EN" "http://www.w3.org/Graphics/SVG/1.1/DTD/svg11.dtd" >
<svg xmlns="http://www.w3.org/2000/svg" xmlns:xlink="http://www.w3.org/1999/xlink" version="1.1" width="2048" height="2048" viewBox="-10 0 2068 2048">
   <path fill="currentColor"
d="M2038 252q10 21 10 82v1380q-31 231 -247 309q-16 5 -47 10t-46 10h-1378q-232 -31 -309 -247q-6 -15 -11 -46t-10 -47v-1379q47 -219 258 -309q20 -10 91 -10h1379q232 31 310 247zM1811 1590v-1183q-15 -77 -71 -121t-134 -44h-1143q-67 0 -114 31q-102 58 -102 185
v1183q16 78 73.5 121.5t142.5 43.5h1184q77 -15 120.5 -73t43.5 -143z" />
</svg>
