<?xml version="1.0" standalone="no"?>
<!DOCTYPE svg PUBLIC "-//W3C//DTD SVG 1.1//EN" "http://www.w3.org/Graphics/SVG/1.1/DTD/svg11.dtd" >
<svg xmlns="http://www.w3.org/2000/svg" xmlns:xlink="http://www.w3.org/1999/xlink" version="1.1" width="2048" height="2048" viewBox="-10 0 2068 2048">
   <path fill="currentColor"
d="M967 0h136q29 6 80.5 11.5t79.5 11.5q207 52 375 171q140 106 216 226q148 197 183 456q0 10 5.5 35.5t5.5 43.5v148q-5 21 -11 64.5t-12 61.5q-57 225 -171 386t-307 285q-107 59 -201.5 94t-196.5 43q-12 0 -34 5.5t-34 5.5h-149q-21 -5 -63.5 -11t-60.5 -12
q-227 -57 -388 -171q-159 -112 -284 -307q-59 -107 -93.5 -201.5t-42.5 -196.5q5 -5 5 -14t-2.5 -25t-2.5 -29v-136q6 -29 11.5 -80.5t11.5 -79.5q52 -207 171 -375q108 -153 307 -274q178 -108 375 -125q17 0 45.5 -5.5t45.5 -5.5zM1001 171q-112 2 -220 34.5t-200 88.5
t-169.5 136t-131.5 175t-83 208.5t-26 233.5q2 115 35.5 224t90 201.5t136.5 170t173.5 131.5t204 84.5t224.5 30.5q118 0 230 -32t206.5 -89.5t173.5 -139.5t133.5 -179t84 -212.5t26.5 -235.5q-3 -112 -36 -220t-90.5 -200t-139 -169.5t-177.5 -131.5t-210.5 -83
t-234.5 -26zM1026 349q16 0 30 15t14 35v625q11 -11 39 -28.5t40 -28.5q227 -154 295 -205q5 -5 11 -8.5t9 -6t3 -7.5q19 -16 40.5 -11.5t39.5 22.5q16 19 12 40t-23 39q-17 12 -56.5 40.5t-56.5 40.5q-23 16 -77.5 53t-96 67.5t-77.5 61.5q-23 17 -62.5 45t-62.5 45
q-26 17 -53 4.5t-27 -38.5v-739q0 -57 46 -57q6 -4 13 -4z" />
</svg>
