<?xml version="1.0" standalone="no"?>
<!DOCTYPE svg PUBLIC "-//W3C//DTD SVG 1.1//EN" "http://www.w3.org/Graphics/SVG/1.1/DTD/svg11.dtd" >
<svg xmlns="http://www.w3.org/2000/svg" xmlns:xlink="http://www.w3.org/1999/xlink" version="1.1" width="2048" height="2048" viewBox="-10 0 2062 2048">
   <path fill="currentColor"
d="M1018 0q139 0 270.5 36t243 101t205.5 158.5t160 204.5t104 242.5t41 270.5q0 15 -5.5 57.5t-5.5 66.5q-31 151 -134 236q-117 101 -327 101h-90q191 -211 191 -461q0 -129 -50 -247t-135 -205t-204.5 -138.5t-251.5 -51.5q-130 0 -259 56q-6 -6 -17 -11t-17 -11
q-43 -21 -113 -38.5t-146 -17.5q-154 0 -281 78q137 -197 354.5 -312t466.5 -115zM490 529q78 0 113 11q-99 98 -157 222.5t-58 261.5q0 129 50 247t135.5 204.5t204.5 138t252 51.5q148 0 281 -67q31 8 180 33q15 0 23.5 1t24 6t31.5 16q134 0 281 -33q-146 198 -365 312.5
t-468 114.5q-138 0 -269.5 -36t-243 -101t-204.5 -158.5t-158 -204.5t-101 -242.5t-36 -270.5q0 -67 11 -112q33 -107 84.5 -185t114.5 -122.5t131 -65.5t143 -21zM714 574q39 39 90 56q64 78 124 237q6 11 11.5 33.5t11.5 33.5q-36 76 -83 168t-71 140t-47.5 104.5
t-35.5 104.5q-104 -78 -164 -192t-60 -246t60 -246.5t164 -192.5zM974 1035q54 181 91.5 285t76.5 177l33 34q-106 22 -168 22q-99 0 -180 -34v-45q0 -67 11 -90q17 -114 102 -281z" />
</svg>
