<?xml version="1.0" standalone="no"?>
<!DOCTYPE svg PUBLIC "-//W3C//DTD SVG 1.1//EN" "http://www.w3.org/Graphics/SVG/1.1/DTD/svg11.dtd" >
<svg xmlns="http://www.w3.org/2000/svg" xmlns:xlink="http://www.w3.org/1999/xlink" version="1.1" width="2048" height="2048" viewBox="-10 0 2068 2048">
   <path fill="currentColor"
d="M1358 1353q-25 25 -99.5 96t-114.5 110q-4 4 -8 5.5t-6.5 2t-6 -1.5t-5 -3t-5.5 -5l-5 -5q-66 -62 -196.5 -187t-195.5 -187l-15.5 -15.5t-16.5 -15.5q-29 27 -85 80t-82 79q-85 81 -252 244q-14 14 -25 14t-26 -14q-37 -38 -111 -108t-103 -98q46 -32 52 -37
q411 -393 609 -584q13 -13 22 -13.5t24 12.5q8 7 633 609q3 3 6 6.5t6.5 8t5.5 7.5zM1371 481l677 650q-160 153 -231 222q-75 -71 -223 -213t-223 -213q-154 148 -157 150q-39 -37 -115.5 -111t-115.5 -111q244 -236 388 -374z" />
</svg>
