<?xml version="1.0" standalone="no"?>
<!DOCTYPE svg PUBLIC "-//W3C//DTD SVG 1.1//EN" "http://www.w3.org/Graphics/SVG/1.1/DTD/svg11.dtd" >
<svg xmlns="http://www.w3.org/2000/svg" xmlns:xlink="http://www.w3.org/1999/xlink" version="1.1" width="2048" height="2048" viewBox="-10 0 2058 2048">
   <path fill="currentColor"
d="M1291 0v1q163 0 310 76q146 76 241 211q126 181 126 398q0 114 -37 223q-54 157 -172 272q-117 113 -275 162q-96 28 -193 28q-62 0 -126 -12q-106 -21 -200 -73l-670 762l-78 -68l-3 2l-91 -83l1 -1l-44 -39l671 -763q-101 -134 -129 -309q-8 -59 -8 -103
q0 -150 60 -280q81 -184 250 -295q166 -109 367 -109zM1294 225q-94 0 -178.5 36t-147.5 100t-98.5 148t-35.5 178q0 92 35 177q55 131 170 208q113 77 255 77q92 0 176 -36t148 -99q63 -65 98.5 -149t35.5 -178q0 -140 -77 -257q-76 -115 -206 -169q-83 -36 -175 -36z" />
</svg>
