<?xml version="1.0" standalone="no"?>
<!DOCTYPE svg PUBLIC "-//W3C//DTD SVG 1.1//EN" "http://www.w3.org/Graphics/SVG/1.1/DTD/svg11.dtd" >
<svg xmlns="http://www.w3.org/2000/svg" xmlns:xlink="http://www.w3.org/1999/xlink" version="1.1" width="2048" height="2048" viewBox="-11 0 2069 2048">
   <path fill="currentColor"
d="M579 896q8 0 10 -1t-2 -7q27 0 68 -2q78 -2 91 14.5t12 116.5v49q0 39 -15 54t-54 15q-25 3 -115.5 5t-139.5 12q-71 19 -108.5 63t-37.5 108q0 59 33 100t96 54q252 53 486 17q114 -26 196 -121q21 -23 40 -50.5t33 -49t31.5 -57.5t26 -53.5t25.5 -61.5t22 -56.5t23 -63
t22 -59.5q58 -145 118 -261t137 -217q71 -89 175.5 -131t242.5 -57q25 0 38.5 11.5t13.5 31.5v77q0 7 0.5 37.5t0 43.5t-5 32.5t-12.5 31.5q-8 23 -29.5 31.5t-53 11t-46.5 7.5q-179 60 -264 257q-11 25 -6.5 38.5t15.5 17.5t34 4h43q14 2 43.5 -2.5t51 0t32.5 27.5
q10 17 15 35t5 41.5t-1 36t-5 43.5t-5 40q0 12 -5 19.5t-16 10.5t-18 3.5t-21 0.5q-23 0 -62.5 2t-71.5 2t-63 -4q-51 0 -79.5 21t-47.5 73q-53 158 -153 282q-196 261 -512 273h-342q-297 -13 -418 -256q-63 -129 -47 -253.5t107 -241.5q19 -27 42 -48t52 -35t52.5 -23.5
t61 -16.5t59.5 -10.5t64 -8.5l27 -3q15 -4 34.5 -4t42.5 2t34 2z" />
</svg>
