<?xml version="1.0" standalone="no"?>
<!DOCTYPE svg PUBLIC "-//W3C//DTD SVG 1.1//EN" "http://www.w3.org/Graphics/SVG/1.1/DTD/svg11.dtd" >
<svg xmlns="http://www.w3.org/2000/svg" xmlns:xlink="http://www.w3.org/1999/xlink" version="1.1" width="2048" height="2048" viewBox="-10 0 2068 2048">
   <path fill="currentColor"
d="M862 97q172 0 312 70q137 69 229 161l-252 287q-8 -6 -31 -24t-33.5 -25.5t-28.5 -17t-34 -13.5q-11 -3 -43 -13.5t-60 -15.5t-59 -5q-80 0 -148 34q-80 40 -127.5 103t-80.5 161q-34 104 -34 219q0 266 114 381q62 69 134 103t165 34t162 -34q80 -40 127 -103l252 287
q-107 122 -252 195q-140 70 -312 70q-158 0 -333 -59q-156 -52 -276 -172q-37 -37 -71.5 -94t-53 -99t-48.5 -117q-80 -160 -80 -392q0 -220 68.5 -391.5t184.5 -287.5q109 -109 276 -183q132 -59 333 -59zM1633 674h196v230h219v194h-219v242h-196v-242h-218v-194h218v-230
zM978 719h161v196h184v161h-184v207h-161v-207h-184v-161h184v-196z" />
</svg>
