<?xml version="1.0" standalone="no"?>
<!DOCTYPE svg PUBLIC "-//W3C//DTD SVG 1.1//EN" "http://www.w3.org/Graphics/SVG/1.1/DTD/svg11.dtd" >
<svg xmlns="http://www.w3.org/2000/svg" xmlns:xlink="http://www.w3.org/1999/xlink" version="1.1" width="2048" height="2048" viewBox="-10 0 2068 2048">
   <path fill="currentColor"
d="M858 103q172 0 309.5 69t228.5 160l-252 285q-9 -7 -31 -24t-33 -25t-28.5 -17.5t-33.5 -13.5q-10 -2 -42.5 -12.5t-59.5 -15.5t-58 -5q-83 0 -149 33q-78 39 -126 103q-46 62 -79 161q-36 106 -36 217q0 264 115 378q61 70 133 104t165 34q89 0 160 -36q79 -39 126 -102
l252 285q-107 123 -252 195q-137 69 -309 69q-160 0 -332 -57q-153 -51 -274 -172q-37 -38 -71 -94t-52.5 -97.5t-48.5 -116.5q-80 -145 -80 -390q0 -217 69 -389q68 -170 183 -285q111 -111 274 -184q129 -57 332 -57zM1555 447h138l-46 273h115l45 -273h138l-46 273h149
v126h-183l-23 184h149v126h-184l-45 275h-138q0 5 14.5 -64t28.5 -140l14 -71h-113l-46 275h-137l46 -275h-138v-126h172l23 -184h-149v-126h172zM1613 858l-23 183h114l23 -183h-114z" />
</svg>
