<?xml version="1.0" standalone="no"?>
<!DOCTYPE svg PUBLIC "-//W3C//DTD SVG 1.1//EN" "http://www.w3.org/Graphics/SVG/1.1/DTD/svg11.dtd" >
<svg xmlns="http://www.w3.org/2000/svg" xmlns:xlink="http://www.w3.org/1999/xlink" version="1.1" width="2048" height="2048" viewBox="-10 0 2068 2048">
   <path fill="currentColor"
d="M844 95q153 -6 296 50.5t263 179.5l-252 288q-273 -182 -457 -79q-130 72 -183 265q-50 186 -8 385q43 201 160 297q152 123 369 10q69 -36 142 -96l252 288q-97 111 -213 177t-233 84.5t-237.5 -2t-228 -75t-202.5 -141.5t-163.5 -194.5t-108.5 -241t-40 -274.5
q0 -126 32.5 -245.5t90.5 -218.5t138 -182.5t173 -142.5t198 -93.5t212 -38.5zM1795 786h91l162 495h-92l-34 -116h-161l-35 116h-93zM858 787h82v268q0 62 4 81q5 32 25 51q21 17 54 17h2q24 0 44 -13q17 -12 24 -34t7 -96v-274h82v260q0 99 -10 143t-49 72q-38 28 -98 28
q-61 0 -98 -23t-53 -65q-16 -43 -16 -152v-263zM1267 787h149q57 0 86 13q27 11 52 42q24 29 38 78q14 48 14 119q0 65 -15 111q-16 49 -37 75q-23 28 -54 42q-30 14 -80 14h-153v-494zM1348 871v325h62q38 0 57 -7q18 -7 29 -22t18 -47t7 -84q0 -59 -8 -87q-5 -29 -24 -50
q-15 -16 -39 -24q-15 -4 -67 -4h-35zM1841 900l-58 185h116z" />
</svg>
