<?xml version="1.0" standalone="no"?>
<!DOCTYPE svg PUBLIC "-//W3C//DTD SVG 1.1//EN" "http://www.w3.org/Graphics/SVG/1.1/DTD/svg11.dtd" >
<svg xmlns="http://www.w3.org/2000/svg" xmlns:xlink="http://www.w3.org/1999/xlink" version="1.1" width="2048" height="2048" viewBox="-11 0 2069 2048">
   <path fill="currentColor"
d="M2048 843v849h-357v356h-861l-718 -718q-43 -38 -71.5 -83.5t-38.5 -100.5t16 -107q65 -137 329 -688q120 -63 347.5 -176.5t273.5 -136.5q67 -43 151 -37.5t143 58.5q151 148 424.5 422.5t361.5 361.5zM1009 68l-550 275h435q66 0 187 -0.5t220 0t187 3.5
q-149 -149 -224 -223q-46 -56 -118 -73t-137 18zM1647 2003v-324q-210 -210 -630 -630.5t-630 -630.5v923q1 17 -1 75t5 94.5t32 65.5q80 83 229 231.5t197 195.5h798z" />
</svg>
