<?xml version="1.0" standalone="no"?>
<!DOCTYPE svg PUBLIC "-//W3C//DTD SVG 1.1//EN" "http://www.w3.org/Graphics/SVG/1.1/DTD/svg11.dtd" >
<svg xmlns="http://www.w3.org/2000/svg" xmlns:xlink="http://www.w3.org/1999/xlink" version="1.1" width="2048" height="2048" viewBox="-10 0 2058 2048">
   <path fill="currentColor"
d="M1070 795q-232 0 -423 -14t-373 -54q-40 -7 -108 -35t-84 -33q-46 -15 -46 -68v-398q0 -18 9 -31.5t25 -13.5q12 -5 45.5 -19.5t48 -20.5t40.5 -16t48 -15t45 -9q101 -24 204 -39t222.5 -20.5t196.5 -7t218 -1.5q379 0 681 80q66 16 147 57q46 15 46 68v397q0 23 -34 57
q-91 45 -137 57q-53 7 -150 23.5t-176.5 28t-150.5 16.5q-51 6 -150 6t-144 5zM2012 817v410q0 17 -20 37t-37 20q-16 5 -65.5 23t-84.5 28.5t-65 15.5q-425 76 -978 57q-100 -7 -143.5 -10t-128 -12t-151.5 -23t-132 -34q-46 -11 -137 -57q-34 -17 -34 -57v-398
q118 41 242.5 67.5t256 38t238.5 15.5t251 4q271 10 513.5 -17.5t474.5 -107.5zM2012 1453v398q0 16 -19 37t-38 30q-63 24 -94.5 35t-83.5 25.5t-94 19.5q-696 105 -1375 -11q-36 -5 -72 -15.5t-89.5 -30t-64.5 -23.5q-25 -8 -35.5 -25.5t-10.5 -52.5v-387
q115 41 236.5 67.5t253.5 38.5t240.5 15.5t257.5 3.5q144 0 251 -3.5t238.5 -15.5t256 -38.5t242.5 -67.5z" />
</svg>
