<?xml version="1.0" standalone="no"?>
<!DOCTYPE svg PUBLIC "-//W3C//DTD SVG 1.1//EN" "http://www.w3.org/Graphics/SVG/1.1/DTD/svg11.dtd" >
<svg xmlns="http://www.w3.org/2000/svg" xmlns:xlink="http://www.w3.org/1999/xlink" version="1.1" width="2048" height="2048" viewBox="-11 0 2069 2048">
   <path fill="currentColor"
d="M2048 753v33q-6 5 -11.5 16.5t-11.5 17.5q-17 23 -56.5 68.5t-56.5 67.5q-68 68 -68 136q0 5 -3 8t-9.5 6.5t-10.5 7.5q-361 85 -713 102q-120 0 -177.5 -0.5t-155.5 -8.5t-177 -24q-63 -11 -182 -34t-181 -35q-5 0 -11 -2.5t-9 -5.5l-3 -3q0 -87 -79 -147
q-17 -17 -51 -45.5t-51 -45.5q-43 -51 -27 -103.5t83 -77.5q20 -9 112 -42t138 -60q81 -40 236 -134.5t171 -103.5q72 -54 136 -86.5t137 -49.5h33q117 30 261 114q109 55 193 124q25 13 84.5 45.5t91.5 49t81.5 41.5t94 44t90.5 35q44 9 69 30t33 62zM1039 616
q-102 0 -193 91q-11 11 -11 23q17 136 102 238q5 11 16 20t17.5 12.5t23.5 12.5q79 32 136 -45q85 -102 102 -238q0 -9 -1 -12t-10 -11q-41 -42 -84.5 -66.5t-97.5 -24.5zM1006 1840q-28 -6 -80 -11t-80 -11q-131 -25 -237.5 -90t-204.5 -171q-105 -124 -169 -250
q0 -6 -6 -11t-6 -11v-11q811 203 1621 0v21q-171 342 -465 466q-133 67 -294 67h-23q-23 12 -56 12z" />
</svg>
