<?xml version="1.0" standalone="no"?>
<!DOCTYPE svg PUBLIC "-//W3C//DTD SVG 1.1//EN" "http://www.w3.org/Graphics/SVG/1.1/DTD/svg11.dtd" >
<svg xmlns="http://www.w3.org/2000/svg" xmlns:xlink="http://www.w3.org/1999/xlink" version="1.1" width="2048" height="2048" viewBox="-10 0 2069 2048">
   <path fill="currentColor"
d="M860 365h179v180h-179v-180zM439 572h179v179h-179v-179zM654 572h179v179h-179v-179zM860 572h179v179h-179v-179zM1633 597q34 -2 69 38q52 38 80 107q14 34 35.5 47.5t53.5 6.5q51 0 117 17q54 14 59.5 49t-42.5 68q-26 26 -35 45q-30 24 -66.5 34.5t-95.5 19.5
q-55 14 -80 63q-63 140 -178 268q-143 149 -301 232.5t-344 90.5h-403q-161 -14 -278.5 -109t-187.5 -250q-18 -42 -27 -118t-9 -124q0 -36 6.5 -62.5t19.5 -26.5h48.5t124 0.5t185.5 0.5h218t236 -0.5t225.5 -2t200.5 -3.5t146 -5.5t77 -7.5q59 -14 72 -35.5t-1 -81.5
q-16 -110 9 -197q23 -62 66 -64zM233 787h179v179h-179v-179zM439 787h179v179h-179v-179zM654 787h179v179h-179v-179zM860 787h179v179h-179v-179zM1074 787h180v179h-180v-179zM654 1270q-28 0 -50 20t-22 52t22 51.5t50 19.5q33 0 52 -18.5t19 -52.5q0 -32 -21.5 -52
t-49.5 -20zM491 1445q-31 0 -71 13q-35 10 -99 8t-106 1q101 101 250 150t297 29q-9 -5 -36.5 -20t-38.5 -21.5t-29.5 -19.5t-29.5 -26t-19 -29q-42 -85 -118 -85z" />
</svg>
