<?xml version="1.0" standalone="no"?>
<!DOCTYPE svg PUBLIC "-//W3C//DTD SVG 1.1//EN" "http://www.w3.org/Graphics/SVG/1.1/DTD/svg11.dtd" >
<svg xmlns="http://www.w3.org/2000/svg" xmlns:xlink="http://www.w3.org/1999/xlink" version="1.1" width="2048" height="2048" viewBox="-10 0 2058 2048">
   <path fill="currentColor"
d="M1869 597q56 55 67.5 138.5t-22 174t-106.5 163.5q-56 59 -124.5 93.5t-137.5 42.5q0 1 -1 3.5t-1 3.5q-9 41 -50.5 100t-106 125.5t-147 138t-176 139t-190 128.5t-192.5 105.5t-180 70.5t-155.5 25t-117.5 -34q-66 -47 -96 -164t-24 -263t36.5 -311.5t78.5 -312
t109.5 -263t122.5 -164.5q-15 -113 30 -241q37 -102 101 -176t140 -103.5t144 -4.5q67 24 107 94t43 161.5t-28 196.5q84 18 155 46t110 56q56 40 119 122q12 -14 17 -20q73 -74 162 -110t172.5 -26t140.5 66z" />
</svg>
