<?xml version="1.0" standalone="no"?>
<!DOCTYPE svg PUBLIC "-//W3C//DTD SVG 1.1//EN" "http://www.w3.org/Graphics/SVG/1.1/DTD/svg11.dtd" >
<svg xmlns="http://www.w3.org/2000/svg" xmlns:xlink="http://www.w3.org/1999/xlink" version="1.1" width="2048" height="2048" viewBox="-10 0 2058 2048">
   <path fill="currentColor"
d="M1336 732q20 22 67 71t72 76t63.5 74.5t60.5 84t44 85.5t32 98q42 225 -64 466q-67 152 -209.5 249.5t-309.5 109.5q-174 14 -336.5 -54.5t-257.5 -207.5q-64 -93 -98.5 -205.5t-37 -224.5t18.5 -228q83 -431 379 -835q43 -54 70.5 -86.5t69.5 -76.5t86 -75t91 -53
q-14 248 74 466q-127 -13 -245 28t-186 137q-49 71 -60 158t24 166q12 21 30.5 39.5t34.5 31t43.5 27.5t42.5 21.5t47.5 20.5t43.5 19q2 1 7 3q26 10 40 16t36.5 19t35 25t23.5 31t14 41q12 59 -25.5 110t-96.5 63q-100 26 -206.5 -6.5t-190.5 -105.5q-7 37 -21.5 112.5
t-21.5 113.5q101 44 203 64.5t214 9.5t202 -63q82 -47 127 -135t39 -184q1 -77 -42.5 -143t-114.5 -102q-30 -17 -88 -41t-102.5 -49t-74.5 -61q-28 -46 -0.5 -97.5t78.5 -71.5q77 -25 154 -17.5t150 42.5q13 5 38 23.5t33 20.5zM892 1870q17 3 44.5 9t47.5 10t44 7t47.5 2
t45.5 -6q53 -34 -4 -76q-36 -27 -77 -34q-61 -19 -141 -33.5t-122.5 -20t-144.5 -17.5q124 120 260 159z" />
</svg>
