<?xml version="1.0" standalone="no"?>
<!DOCTYPE svg PUBLIC "-//W3C//DTD SVG 1.1//EN" "http://www.w3.org/Graphics/SVG/1.1/DTD/svg11.dtd" >
<svg xmlns="http://www.w3.org/2000/svg" xmlns:xlink="http://www.w3.org/1999/xlink" version="1.1" width="2048" height="2048" viewBox="-10 0 2058 2048">
   <path fill="currentColor"
d="M1030 0q70 118 210 350.5t210 350.5q103 154 172 280v11q-196 104 -592 345h-12l-388 -227q-18 -12 -62 -38t-72.5 -46.5t-48.5 -44.5v-10q65 -97 195 -313q26 -49 85.5 -146t86.5 -146q24 -48 51.5 -96.5t71.5 -119t60 -97.5q5 -10 16.5 -26t16.5 -27zM426 1219
q8 3 17.5 6.5t15 6t10.5 7.5q48 27 145.5 86.5t145.5 86.5q43 27 129 76t129 75q11 -5 38.5 -21.5t38.5 -21.5q234 -147 527 -301q-32 43 -97 134t-97 134q-65 92 -199 280.5t-199 280.5q-5 0 -8 -2.5t-3 -5.5l-1 -2q-43 -65 -134.5 -189t-134.5 -189q-93 -116 -237 -323
q-16 -22 -43.5 -59.5t-42.5 -58.5z" />
</svg>
