<?xml version="1.0" standalone="no"?>
<!DOCTYPE svg PUBLIC "-//W3C//DTD SVG 1.1//EN" "http://www.w3.org/Graphics/SVG/1.1/DTD/svg11.dtd" >
<svg xmlns="http://www.w3.org/2000/svg" xmlns:xlink="http://www.w3.org/1999/xlink" version="1.1" width="2048" height="2048" viewBox="-10 0 2068 2048">
   <path fill="currentColor"
d="M1017 24q140 1 274.5 41.5t247.5 117.5q-32 -9 -108.5 -32t-132.5 -38.5t-110 -25.5q-192 -41 -387 1t-350 159q-12 4 -26 15.5t-25.5 25.5t-25 27t-25 20.5t-24.5 5.5t-25 -17q135 -145 325 -223.5t392 -76.5zM1383 166q151 43 238 108q126 101 234 239
q-47 -91 -141 -188q-21 -5 -44 -47q-21 -38 -8 -41q7 -2 23 10q16 5 39.5 31t41 41.5t25.5 2.5q86 73 136.5 176t54.5 216q2 9 -1 89q-1 32 3.5 33t17.5 -28q14 -50 21 -19q2 8 5 28q2 13 3 19q20 80 16 181q-23 128 -78 241q-14 20 -17 46.5t1 49t4 49.5t-7 50
q-31 85 -94.5 158t-147.5 127q-25 11 -48.5 33.5t-38.5 44.5t-38 46t-47 36q-65 34 -139 52t-173 33q-16 7 -102 7q-61 0 -61 12q1 8 18 21q-25 2 -50 0t-54 -7.5t-47.5 -10.5t-53 -14.5t-48.5 -13.5q-20 -6 -20 -4q-1 2 16 13q22 15 12 15q-5 0 -15 -2q-98 -19 -189 -68
t-204 -129q-158 -111 -259.5 -281.5t-130.5 -365.5q-2 -31 -7 -32t-18 42q-2 9 -3 12q-6 -101 18 -281q6 -24 4 -25q-1 0 -8 10q-14 22 -22 26q6 -18 23 -80t30.5 -102t32.5 -78q55 -117 163 -191.5t231 -63.5q11 -2 19.5 -2t14.5 2t10.5 4.5t6.5 8t3.5 10.5t1.5 13
t-0.5 13.5t-2.5 15t-3.5 15t-3.5 15.5q28 -38 54.5 -67.5t61.5 -59.5t74.5 -47.5t82.5 -21.5q21 -3 31 -1t8 9.5t-10 16.5t-21 21q-54 58 -85.5 131t-30 155t44.5 149q31 39 41.5 83.5t-7.5 91.5q-30 -44 -81.5 -66.5t-107.5 -16t-96 41.5q-61 49 -78.5 127.5t8 154.5
t83.5 125q-48 -58 -70 -125t-5 -133q6 -40 32 -76.5t62.5 -57.5t78.5 -25t80 21q-2 10 -16 33t-25 48.5t-9 47.5q-19 89 7.5 177.5t94.5 145.5q10 12 22.5 22.5t23 18t28 15t27 11.5t30.5 10t29 8t31.5 7t29.5 7q63 18 -5 17h-23q71 67 229 35q14 3 73 -17q49 -16 50 1
q1 6 -2 15q7 -2 15 -6.5t17 -13t14.5 -14t14.5 -16.5q10 -11 14.5 -16t12 -12t12 -8.5t10 -1.5t10 5.5t8.5 15.5q95 -44 134 -200q6 -13 13 -47.5t14 -58t15 -20.5q7 18 11.5 25t8 3.5t5.5 -13t4 -25.5q11 -35 14 -77t1 -69.5t-7.5 -80t-7.5 -72.5q-12 -48 11 -34
q15 9 52 54l17 18q12 -134 -40 -261.5t-153 -216.5q22 -11 77.5 15.5t89.5 58.5q-17 -35 -39.5 -67t-55 -63.5t-55 -51t-65.5 -54.5t-60 -49zM229 220q6 91 67 147q-11 14 -44.5 35.5t-69.5 48t-54 51.5q9 -184 101 -282zM744 541q20 21 52 27.5t61 3.5t61 2q26 -8 45.5 0
t26.5 25t3.5 39.5t-19.5 40.5q-30 26 -94 60.5t-83 46.5q-44 -47 -59.5 -115.5t6.5 -129.5zM663 1086q14 8 39 24q41 30 85 46.5t94.5 15t91.5 -28.5q55 -35 130.5 -27t117.5 59q13 29 10 40t-20.5 16.5t-37 6.5t-40 9t-29.5 24q-64 56 -147.5 80.5t-165.5 9.5
q-70 -40 -106 -118t-22 -157z" />
</svg>
