<?xml version="1.0" standalone="no"?>
<!DOCTYPE svg PUBLIC "-//W3C//DTD SVG 1.1//EN" "http://www.w3.org/Graphics/SVG/1.1/DTD/svg11.dtd" >
<svg xmlns="http://www.w3.org/2000/svg" xmlns:xlink="http://www.w3.org/1999/xlink" version="1.1" width="2048" height="2048" viewBox="-10 0 2069 2048">
   <path fill="currentColor"
d="M1219 1485q44 43 56.5 95.5t4.5 119.5v245q0 46 22 61.5t60 -0.5q104 -35 198 -91.5t170 -130t137.5 -161t102 -186.5t61 -203.5t17 -215t-31.5 -218.5q-30 -111 -82.5 -211.5t-122 -183t-155 -151t-181.5 -114.5t-202 -74.5t-216.5 -30.5t-225.5 18q-171 34 -320.5 120
t-259 208t-176 281t-73.5 332q-15 279 100.5 502.5t349.5 386.5q114 72 246 123q30 7 50.5 -5t20.5 -35v-195q-52 10 -143 10q-79 -8 -131.5 -42t-82.5 -101q-32 -94 -114 -143l-19 -21q-9 -7 -7 -19t16 -12h52q89 13 143 103q34 54 83 80t99.5 24.5t103.5 -22.5
q10 0 10 -11q21 -81 62 -122q-46 -9 -133 -31q-117 -32 -193 -96t-114 -170q-5 -20 -10 -55.5t-10 -56.5q-17 -98 4.5 -192t86.5 -166v-20q-31 -108 0 -215q8 -39 16 -44t46 3q17 2 33 5.5t33.5 10t29 11.5t31 15.5t28 15t31 18t28.5 16.5q11 11 31 11q241 -61 481 0
q20 0 30 -11q62 -41 103 -62q29 -14 43.5 -20.5t40 -13.5t49.5 -7q15 0 22.5 6t7.5 15q42 110 10 236q0 19 10 30q26 31 39 49.5t26 46.5t18 57q47 204 -41 379q-70 152 -276 204q-21 5 -61.5 10t-61.5 11z" />
</svg>
