<?xml version="1.0" standalone="no"?>
<!DOCTYPE svg PUBLIC "-//W3C//DTD SVG 1.1//EN" "http://www.w3.org/Graphics/SVG/1.1/DTD/svg11.dtd" >
<svg xmlns="http://www.w3.org/2000/svg" xmlns:xlink="http://www.w3.org/1999/xlink" version="1.1" width="2048" height="2048" viewBox="-10 0 2058 2048">
   <path fill="currentColor"
d="M11 1044v-35q6 -26 16.5 -44.5t33 -44t30.5 -36.5l548 -547l23 -23q12 0 12 11l204 205q17 17 0 34q-8 53 9.5 100t59.5 72q15 8 18.5 17t3.5 29v501q0 23 -22 46q-45 26 -65 74t-4 98q18 51 58 82.5t91 31.5q50 0 90.5 -29.5t57.5 -73.5q17 -51 1.5 -100t-58.5 -83
q-15 -8 -18.5 -17t-3.5 -29v-513h11l182 182q5 5 8 11t3 9v3v69q9 68 62 107t122 30t111 -68t25 -127q-8 -58 -64.5 -95.5t-117.5 -29.5q-24 0 -46 -11l-194 -194q-11 -11 -11 -34q11 -49 -14 -96.5t-72.5 -72.5t-96.5 -14q-35 0 -35 -11q-136 -137 -204 -194q-18 -17 0 -35
q25 -20 50.5 -45.5t54 -56.5t42.5 -46q103 -103 206 0l867 867q103 103 0 206l-832 833q-5 5 -20 21t-23.5 23.5t-22.5 19t-28.5 18t-31.5 9.5h-23q-6 -3 -19 -8.5t-22 -10t-20 -12t-19 -15.5q-22 -21 -67.5 -64.5t-82 -80t-66.5 -72.5l-628 -627q-5 -14 -33.5 -51.5
t-35.5 -62.5z" />
</svg>
