<?xml version="1.0" standalone="no"?>
<!DOCTYPE svg PUBLIC "-//W3C//DTD SVG 1.1//EN" "http://www.w3.org/Graphics/SVG/1.1/DTD/svg11.dtd" >
<svg xmlns="http://www.w3.org/2000/svg" xmlns:xlink="http://www.w3.org/1999/xlink" version="1.1" width="2048" height="2048" viewBox="-11 0 2070 2048">
   <path fill="currentColor"
d="M977 641q116 -4 205 63q123 102 96 151q-17 3 -85 23t-103 19q-39 -54 -111.5 -62.5t-124.5 31.5q-55 31 -83.5 93t-16 127t65.5 102q47 29 97.5 27.5t96.5 -30.5t70 -75h-177q-79 0 23 -144q6 -7 7 -9q34 -2 153 -1.5t153 0.5q18 2 29 -11t15.5 -30.5t13 -37.5t20.5 -29
q60 -96 166 -148t224 -50q85 -2 163 41t125.5 118t47.5 160q6 78 -22 153t-79 131.5t-121 96t-146 50.5q-85 18 -172 -5.5t-153.5 -84.5t-88.5 -146q-57 117 -172.5 185t-243.5 56q-83 -5 -155.5 -51.5t-114.5 -121.5t-39 -158q-1 -85 35 -165t96.5 -138.5t141 -94
t164.5 -35.5zM1675 833q-40 2 -84 21q-45 17 -78 58t-45.5 88t0 96.5t52.5 81.5q41 33 93.5 37t98 -16.5t81.5 -60.5t47 -88q16 -51 -2.5 -103.5t-63.5 -85t-99 -28.5zM179 837h322q29 -7 34 5t-18 30q-31 3 -168 2t-169 -1q-31 9 -29 -8q2 -15 25 -27q2 -1 3 -1zM28 928
h412q17 -2 29.5 -0.5t17.5 10t-10 25.5q-87 2 -249 2h-199q-31 8 -29 -8t25 -27q1 -1 3 -2zM262 1020h155q27 -4 43 4t3 33q-17 2 -93 1t-94 0q-29 8 -34 -8t20 -30z" />
</svg>
