<?xml version="1.0" standalone="no"?>
<!DOCTYPE svg PUBLIC "-//W3C//DTD SVG 1.1//EN" "http://www.w3.org/Graphics/SVG/1.1/DTD/svg11.dtd" >
<svg xmlns="http://www.w3.org/2000/svg" xmlns:xlink="http://www.w3.org/1999/xlink" version="1.1" width="2048" height="2048" viewBox="-10 0 2068 2048">
   <path fill="currentColor"
d="M816 58q56 95 101 197q49 -8 106 -8h2q57 0 106 8q39 -89 101 -197q156 34 273 93q-1 98 -17 226q4 2 43 26t58 39q68 52 94 77q87 -59 182 -107q116 127 183 241q-66 105 -125 179v499v43h-1h-2l-332 33q-13 1 -22.5 10.5t-10.5 22.5l-10 146l-290 21l-20 -135
q-2 -13 -12 -22t-24 -9h-350q-14 0 -24 9t-12 22l-20 135l-290 -21l-10 -146q-1 -13 -10.5 -23t-22.5 -10l-332 -33h-3v-542q-47 -57 -125 -179q67 -114 183 -241q95 48 182 107q26 -25 94 -77q19 -15 58 -39t43 -26q-13 -97 -17 -225q121 -60 273 -94zM553 852
q-83 0 -141.5 58t-58.5 141.5t58.5 142t140.5 58.5q83 0 142 -58.5t59 -142.5q0 -82 -58.5 -140.5t-141.5 -58.5zM1495 852q-83 0 -141.5 58.5t-58.5 142.5q0 83 58.5 141t142 58t141.5 -58t58 -141.5t-58 -142t-141 -58.5h-1zM1454 934q-47 8 -78.5 45t-31.5 85v5
q0 55 38.5 94t93.5 39t94 -39t39 -94v-5q0 -55 -39 -94t-94 -39q-6 0 -22 3zM550 937q-47 8 -78.5 43.5t-32.5 83.5v1q0 55 39 94t94 39t93.5 -39t38.5 -94v-1q-1 -53 -40 -91t-92 -38q-8 0 -22 2zM1024 969q27 0 45.5 17t18.5 41v185q0 24 -18.5 41t-45.5 17t-45.5 -17
t-18.5 -41v-185q0 -24 18.5 -41t45.5 -17zM125 1446l299 29l10 147q1 14 10.5 23t22.5 10l354 25h3q13 0 23 -8.5t12 -20.5l21 -138h288l21 138q2 12 12 20.5t23 8.5h3l354 -25q13 -1 22.5 -10t10.5 -23l10 -147l299 -29v74q0 93 -45.5 170t-127 131.5t-194.5 92.5
t-246.5 56.5t-284.5 19.5h-2q-151 -1 -284.5 -19t-246.5 -56t-194.5 -93t-127 -132t-45.5 -170v-74z" />
</svg>
