<?xml version="1.0" standalone="no"?>
<!DOCTYPE svg PUBLIC "-//W3C//DTD SVG 1.1//EN" "http://www.w3.org/Graphics/SVG/1.1/DTD/svg11.dtd" >
<svg xmlns="http://www.w3.org/2000/svg" xmlns:xlink="http://www.w3.org/1999/xlink" version="1.1" width="2048" height="2048" viewBox="-12 0 2071 2048">
   <path fill="currentColor"
d="M1937 365q28 28 51 64.5t40 88.5t20 108.5t-15 127t-58 142t-117 154t-185 163.5q-54 41 -95 103t-64 134.5t-35 146t-13 151.5q0 13 -9 22t-22 9h-138q-12 0 -21 -8t-10 -20q-11 -79 -70 -131.5t-139 -52.5t-139.5 52.5t-69.5 131.5q-2 12 -11 20t-20 8h-141
q-12 0 -20 -8t-10 -20q-10 -78 -69.5 -131t-140.5 -53q-79 0 -139 52.5t-70 131.5q-2 12 -10.5 20t-20.5 8h-143q-12 0 -20.5 -7t-10.5 -18q-41 -209 -9 -388t114 -314t206 -223l126 220q36 60 103 78.5t128 -15.5l59 -33l1 -1q103 -63 200 -149q10 -10 9 -23.5t-12 -22.5
v-1q-9 -8 -21.5 -7t-20.5 9q-38 35 -85 70t-75 52l-28 18l-58 33l2 -2l-4 2q-37 22 -79 10t-64 -50l-135 -231q-23 -41 -9 -86t56 -64q95 -46 188.5 -71.5t167.5 -34.5t156.5 0t137 20.5t128.5 41t111.5 47.5t104.5 52q63 32 94 47t81 32t80.5 16.5t67.5 -13.5t68 -44
q55 -57 55 -132q0 -78 -54.5 -132.5t-131.5 -54.5q-62 0 -111 37q-9 7 -21.5 6.5t-19.5 -9.5l-41 -41q-10 -9 -9.5 -22.5t10.5 -21.5q96 -89 227 -87l-2 -3q129 2 224 96zM1371 844q-26 0 -44.5 18t-18.5 44v1l100 49q23 -17 25 -44t-15.5 -47.5t-46.5 -20.5z" />
</svg>
