<?xml version="1.0" standalone="no"?>
<!DOCTYPE svg PUBLIC "-//W3C//DTD SVG 1.1//EN" "http://www.w3.org/Graphics/SVG/1.1/DTD/svg11.dtd" >
<svg xmlns="http://www.w3.org/2000/svg" xmlns:xlink="http://www.w3.org/1999/xlink" version="1.1" width="2048" height="2048" viewBox="-10 0 2068 2048">
   <path fill="currentColor"
d="M982 1608h-27q-8 -8 -33 -8q-13 -4 -43 -12.5t-43 -12.5q-40 -27 -17 -61q19 -27 34 -77q39 -84 55.5 -153t4.5 -144q-13 -138 -136 -188q-122 -45 -188 -111q-100 -93 -151 -187.5t-45 -213.5h1262q0 133 -59 230q-105 186 -325 282q-133 67 -145 204q-5 80 20 158.5
t74 174.5q18 39 12 53t-45 33q-9 4 -22 8t-22 8q-12 4 -42 8.5t-43 8.5h-34q-13 -13 -42 0zM2048 849q-10 10 -17 33.5t-8 25.5q-68 151 -205 188q-86 22 -86 128q-4 32 3 68.5t15 57t25 62.5q19 39 10 55t-53 22q-98 13 -171 -8q-19 -6 -24 -19t7 -33q30 -51 43.5 -96.5
t8.5 -98.5q-7 -65 -24 -90t-61 -31q-32 0 -44 -25q4 0 8.5 -4.5t8.5 -4.5q188 -71 299 -265q4 -8 12 -11.5t13 -4t18 -0.5h222v51zM0 789h213q11 0 15.5 0.5t10 4.5t8.5 12q106 178 325 273q-4 4 -13 8.5t-13 8.5q-50 19 -72 53t-22 93q0 66 43 153q15 32 25 42q7 13 5.5 24
t-13.5 11q-115 51 -230 0q-18 0 -21.5 -12t4.5 -31q22 -44 33.5 -70t20.5 -66.5t5 -76.5q-6 -50 -22.5 -70t-62.5 -33q-149 -46 -222 -221q-2 -2 -4.5 -14t-12.5 -12v-77z" />
</svg>
