<?xml version="1.0" standalone="no"?>
<!DOCTYPE svg PUBLIC "-//W3C//DTD SVG 1.1//EN" "http://www.w3.org/Graphics/SVG/1.1/DTD/svg11.dtd" >
<svg xmlns="http://www.w3.org/2000/svg" xmlns:xlink="http://www.w3.org/1999/xlink" version="1.1" width="2048" height="2048" viewBox="-10 0 2058 2048">
   <path fill="currentColor"
d="M1842 1285q64 42 86 114.5t-12 136.5q-41 63 -114.5 81.5t-136.5 -16.5q-38 -19 -47 -37l-419 242q9 18 9 55q0 77 -54 132t-131 55t-132 -55t-55 -132q0 -7 4.5 -23.5t4.5 -31.5l-418 -242q-12 24 -38 37q-71 40 -143 20t-108 -85q-40 -71 -19.5 -143.5t85.5 -107.5
q18 -19 46 -19v-484q-6 0 -12.5 -2t-10.5 -4t-11.5 -6t-11.5 -7q-63 -41 -82 -114.5t16 -136.5q36 -65 108 -85t143 20q3 3 11.5 9t15.5 12.5t11 15.5l418 -242q-9 -18 -9 -55q0 -77 55 -132t132 -55t131 55t54 132q0 7 -4.5 23.5t-4.5 31.5l419 242q12 -24 38 -37
q70 -40 142.5 -20t108.5 85q40 71 20 143.5t-85 107.5q-18 19 -46 19v484q6 0 12.5 2t10 4t11.5 6t12 7zM473 1405h1098q0 -8 2.5 -14.5t8.5 -16t9 -14.5q0 -11 27 -38l-548 -959q-9 9 -47 9q-3 0 -19.5 -4.5t-27.5 -4.5l-549 959q19 19 28 38q18 18 18 45zM1571 550
l-409 -243l-9 9l540 941h9v-484q-68 -14 -111 -85q-35 -57 -20 -138zM892 307l-428 252q16 82 -19 140q-42 69 -112 83v484h10zM1153 1741l418 -243v-9h-1098v9l419 243q42 -56 131 -56q74 0 130 56z" />
</svg>
