<?xml version="1.0" standalone="no"?>
<!DOCTYPE svg PUBLIC "-//W3C//DTD SVG 1.1//EN" "http://www.w3.org/Graphics/SVG/1.1/DTD/svg11.dtd" >
<svg xmlns="http://www.w3.org/2000/svg" xmlns:xlink="http://www.w3.org/1999/xlink" version="1.1" width="2048" height="2048" viewBox="-10 0 2058 2048">
   <path fill="currentColor"
d="M1482 910q32 13 55 23t60 28t63.5 34.5t57 41t49.5 49t32 56t13 64.5q0 23 -7 44.5t-18 37t-24.5 29t-26.5 22t-24 15t-18 9.5l-7 2q0 23 -12 35q-31 47 -77 74t-88.5 31.5t-80.5 2.5t-61 -9l-23 -7q-11 -36 -11 -81q-26 0 -61.5 -6.5t-85.5 -21.5t-108 -49.5t-110 -81.5
q-16 74 -38.5 186.5t-60.5 325t-38 263.5q-6 1 -16 4t-42 9t-64 7.5t-77 -2.5t-86.5 -16t-87 -38.5t-82.5 -66.5q239 -900 239 -957l-307 -684q-2 1 -5.5 3t-12.5 3.5t-17.5 -1.5t-18 -15.5t-16.5 -34.5q-4 -28 -1.5 -43.5t7.5 -20.5l6 -5q-1 -2 -2.5 -7t-5 -17.5
t-5.5 -22.5t-2 -19.5t3 -12.5q2 -3 5.5 -7.5t15.5 -16.5t26 -22.5t38 -21.5t50.5 -16.5t63 -5t75.5 9.5q1 0 3 0.5t9 6t15.5 15.5t22.5 31t30 49q4 0 9.5 1t15 9.5t9.5 24.5q5 17 2.5 29.5t-8.5 19.5l-5 7l239 548l468 -388q-3 -5 -6 -13t-3.5 -23.5t9.5 -20.5t24 -8t23 -3
l10 -1l102 -79q2 -2 6 -5.5t19 -7.5t34 -2t52 17t71 43q119 90 105 112l-3 2l-91 103q1 2 1.5 6t0 15t-3.5 20.5t-11 20.5t-21 17q-15 10 -32 13t-27 1l-9 -2l-125 115q-2 3 -4.5 10t-8.5 26.5t-9.5 38.5t-4.5 43.5t4 44t19.5 37.5t37.5 27zM1710 1320q22 -11 37.5 -37.5
t7.5 -65.5q0 -38 -27 -75.5t-65.5 -63.5t-77 -47t-65.5 -31l-27 -10q-7 -2 -19 -7t-42.5 -23.5t-52 -41t-36.5 -61.5t-9 -83l-343 250q0 3 -1.5 8.5t-5 21.5t-5.5 29.5t-2 29t3 25.5q1 1 3 4q110 168 362 212l22 -40t18 -30l6 -10q1 3 4 6.5t16 11.5t29 12t45.5 3.5
t64.5 -10t62 -24t40.5 -27.5t22 -25t10.5 -19l2 -7q2 2 5 5.5t9.5 15.5t10 25.5t4 35t-5.5 43.5z" />
</svg>
