<?xml version="1.0" standalone="no"?>
<!DOCTYPE svg PUBLIC "-//W3C//DTD SVG 1.1//EN" "http://www.w3.org/Graphics/SVG/1.1/DTD/svg11.dtd" >
<svg xmlns="http://www.w3.org/2000/svg" xmlns:xlink="http://www.w3.org/1999/xlink" version="1.1" width="2048" height="2048" viewBox="-10 0 2068 2048">
   <path fill="currentColor"
d="M652 62h1390v516h-1390v-516zM210.5 96q87.5 0 150 66t62.5 158t-62.5 157.5t-150 65.5t-149 -65.5t-61.5 -158t61.5 -158t149 -65.5zM657 766h1391v516h-1391v-516zM218 801q87 0 148.5 65.5t61.5 157.5t-61.5 157.5t-148.5 65.5h-2q-87 0 -148.5 -65.5t-61.5 -157.5
t61.5 -157.5t148.5 -65.5h2zM657 1470h1391v516h-1391v-516zM218 1505q87 0 148.5 65.5t61.5 158t-61.5 158t-148.5 65.5h-2q-87 0 -148.5 -65.5t-61.5 -158t61.5 -158t148.5 -65.5h2z" />
</svg>
