<?xml version="1.0" standalone="no"?>
<!DOCTYPE svg PUBLIC "-//W3C//DTD SVG 1.1//EN" "http://www.w3.org/Graphics/SVG/1.1/DTD/svg11.dtd" >
<svg xmlns="http://www.w3.org/2000/svg" xmlns:xlink="http://www.w3.org/1999/xlink" version="1.1" width="2048" height="2048" viewBox="-11 0 2069 2048">
   <path fill="currentColor"
d="M1807 375l-12 11l-1406 1405q-34 35 -90 35q-61 -16 -79 -69q-16 -63 23 -102q20 -25 45.5 -50.5t59.5 -57t53 -50.5q5 0 11 -6t12 -6q-142 -95 -204 -147q-105 -88 -193 -193q-25 -25 -27 -52t16 -61q247 -379 600 -533q194 -84 385.5 -86t385.5 75q20 0 29 -2t16 -9
l227 -227q57 -38 102 -23q27 9 43 27.5t25 51.5q0 25 -22 69zM583 1326l79 -79q-189 -274 -23 -555q-223 119 -419 374q133 148 340 260h23zM1092 703q9 -35 -14 -62.5t-65 -27.5q-88 0 -164 47t-120 125.5t-44 167.5q0 36 17 57.5t50 21.5q28 0 48.5 -17.5t20.5 -50.5v-34
q9 -76 62.5 -123.5t129.5 -47.5q61 0 79 -56zM2022 1021q51 67 0 101q-331 388 -770 465q-218 47 -488 -11h-12l69 -68q25 -37 68 -80q7 -8 16 -9.5t29 -1.5q401 48 760 -237q31 -21 101 -92q12 0 34 -22q-112 -160 -272 -284l137 -136q22 28 78.5 79.5t79.5 79.5
q28 34 85 108t85 108z" />
</svg>
