<?xml version="1.0" standalone="no"?>
<!DOCTYPE svg PUBLIC "-//W3C//DTD SVG 1.1//EN" "http://www.w3.org/Graphics/SVG/1.1/DTD/svg11.dtd" >
<svg xmlns="http://www.w3.org/2000/svg" xmlns:xlink="http://www.w3.org/1999/xlink" version="1.1" width="2048" height="2048" viewBox="-10 0 2068 2048">
   <path fill="currentColor"
d="M0 57h2048v1934h-2048v-1934zM1444 420q-41 0 -65.5 27.5t-24.5 64.5q0 33 27.5 56t62.5 23q43 0 67.5 -24t24.5 -66q0 -34 -28 -57.5t-64 -23.5zM703 440q-2 0 -3.5 0.5t-3.5 2t-3 2.5t-2.5 4t-2 4.5t-2.5 6t-3 6.5q-23 86 -74 262t-74 262q-23 74 -62.5 222t-62.5 222
q0 8 1 11.5t6 7.5t16 4h125q8 0 15.5 -7t7.5 -16q11 -40 33.5 -125.5t33.5 -125.5q3 -2 8.5 -10t10.5 -10.5t16 -2.5h239q16 0 24.5 7t8.5 16q12 40 40.5 125.5t39.5 125.5q9 17 13.5 20t21.5 3h113q26 0 29 -3t-6 -20l-136 -444q-29 -86 -80 -262t-79 -262q0 -11 -4 -16
t-8 -6t-11 -1h-171q-9 -3 -14 -3zM812 652q7 0 7 8q51 150 69 330q9 8 6.5 15.5t-18.5 7.5h-159q-11 0 -11 -23q5 -15 10.5 -30t10.5 -33t9 -31t9.5 -34t8 -31.5t8 -35t7.5 -32.5t8 -35.5t8 -33.5q0 -6 5.5 -17.5t5.5 -16.5q8 -8 16 -8zM1380 667q-6 0 -10.5 7.5t-4.5 19.5
v740q0 17 3 20t20 3h79q43 0 50.5 -7t7.5 -50q0 -466 -12 -706q0 -8 -0.5 -11.5t-6 -7.5t-16.5 -4h-102q-4 -4 -8 -4z" />
</svg>
