<?xml version="1.0" standalone="no"?>
<!DOCTYPE svg PUBLIC "-//W3C//DTD SVG 1.1//EN" "http://www.w3.org/Graphics/SVG/1.1/DTD/svg11.dtd" >
<svg xmlns="http://www.w3.org/2000/svg" xmlns:xlink="http://www.w3.org/1999/xlink" version="1.1" width="2048" height="2048" viewBox="-10 0 2068 2048">
   <path fill="currentColor"
d="M917 5h163q97 0 204 31q183 45 333.5 151t257.5 267q149 232 163 468q0 31 10 52v111q-5 25 -10 71.5t-11 71.5q-63 298 -275 510q-258 274 -631 305h-163q-153 -14 -336 -81q-134 -52 -248 -147t-201 -221q-139 -195 -173 -478v-163q0 -62 21 -163q72 -335 356 -571
q244 -184 540 -214zM1039 148q-121 0 -235 31t-210 86.5t-176.5 135.5t-136.5 175t-87 207.5t-31 230.5t30 230t85 207t133.5 175t172.5 135.5t206 87t229.5 31.5t230 -31.5t207.5 -87t176 -135.5t137.5 -175t89.5 -207t36 -230q0 -118 -31.5 -230t-87 -205.5t-134.5 -173
t-173.5 -135t-205 -88t-225.5 -34.5zM999 393q69 0 121 52t52 121q0 70 -49 121.5t-124 51.5q-69 0 -121 -52t-52 -121q0 -71 49 -122t124 -51zM1182 861v662q4 4 8 12.5t9 13.5t14 5q21 11 50 11h61v81h-610v-81h91q61 0 61 -62v-469q0 -32 -15.5 -51.5t-45.5 -19.5h-102
v-82q82 -5 240 -9.5t239 -10.5z" />
</svg>
