<?xml version="1.0" standalone="no"?>
<!DOCTYPE svg PUBLIC "-//W3C//DTD SVG 1.1//EN" "http://www.w3.org/Graphics/SVG/1.1/DTD/svg11.dtd" >
<svg xmlns="http://www.w3.org/2000/svg" xmlns:xlink="http://www.w3.org/1999/xlink" version="1.1" width="2048" height="2048" viewBox="-10 0 2068 2048">
   <path fill="currentColor"
d="M1024 0q160 0 304 44.5t260 129.5q82 -41 143 -41q113 0 189 78.5t76 188.5q0 113 -60 174q112 207 112 450q0 208 -81.5 397.5t-218.5 326.5t-326.5 218.5t-397.5 81.5t-397.5 -81.5t-326.5 -218.5t-218.5 -326.5t-81.5 -397.5t81.5 -397.5t218.5 -326.5t326.5 -218.5
t397.5 -81.5zM1024 164q-116 0 -227 31t-205.5 87t-174 135.5t-135.5 174t-87 205.5t-31 227t30.5 227t85.5 205.5t134 174t173 135.5t206.5 87t230.5 31q119 0 231 -30.5t206 -85.5t173 -134t134 -173t85.5 -206t30.5 -231q0 -189 -82 -369q-21 10 -61 10q-113 0 -190 -78
t-77 -187q0 -31 21 -93q-208 -143 -471 -143zM1024 604q116 0 213 58t152 157t55 215q-5 117 -62.5 213t-154.5 151.5t-213 55.5q-117 -6 -213 -63t-151.5 -154t-55.5 -213q6 -117 63 -213t154 -151.5t213 -55.5z" />
</svg>
