<?xml version="1.0" standalone="no"?>
<!DOCTYPE svg PUBLIC "-//W3C//DTD SVG 1.1//EN" "http://www.w3.org/Graphics/SVG/1.1/DTD/svg11.dtd" >
<svg xmlns="http://www.w3.org/2000/svg" xmlns:xlink="http://www.w3.org/1999/xlink" version="1.1" width="2048" height="2048" viewBox="-10 0 2058 2048">
   <path fill="currentColor"
d="M2009 1411q0 87 -10 127q-22 89 -94.5 129t-161.5 10q-11 -3 -29 -8q-23 -7 -32 -9.5t-23 -2t-18.5 2.5t-16.5 13t-19 21t-24 36q-4 4 -5 6q-76 113 -99 207l-30 60q-13 38 -69 38q-234 15 -483 -78q-24 -5 -69 -15t-69 -15q0 5 -4.5 9.5t-4.5 9.5q19 11 59 51l-178 29
q-120 26 -287 9q-60 0 -88 -59q-91 -255 -197 -512q-19 -37 -19 -80v-49q4 -8 11 -15.5t15.5 -14t11.5 -9.5q0 19 21 39q8 8 19 30q30 -107 59 -197q28 -74 61 -135t78 -116t104.5 -97t131.5 -67q65 -23 135 -34t134 -10t136 5q14 0 48.5 4.5t48.5 4.5q98 15 178 80
q85 85 188 59q8 -8 10 -9t9 -1q46 -23 52 -43t-22 -65q-75 -101 -98 -139q-45 -79 -129 -241t-128 -241q-9 -14 -14 -28.5t-8.5 -32.5t-7.5 -28q0 -17 9.5 -28.5t30.5 -11.5q83 0 139 24.5t98 93.5q31 54 58.5 114t66 154.5t52.5 126.5q42 99 118 207q14 18 29.5 31.5
t43 32.5t35.5 25q10 9 40 9v-39q-5 -34 -19.5 -98.5t-20.5 -99.5q-5 -44 -19 -137.5t-19 -137.5q0 -59 59 -59q34 0 53 17t36 51q22 60 40.5 136t26.5 123.5t21 135.5q22 126 39 177q9 33 10.5 68.5t-1 59t-9.5 60.5q-17 182 10 336zM1901 1293q0 -11 -29 -40
q-11 -11 -21 -11q-124 -62 -246 -48q-11 5 -79 29q7 8 20 21.5t20 21t18 15.5t21 12q95 48 256 29q11 0 40 -29z" />
</svg>
