<?xml version="1.0" standalone="no"?>
<!DOCTYPE svg PUBLIC "-//W3C//DTD SVG 1.1//EN" "http://www.w3.org/Graphics/SVG/1.1/DTD/svg11.dtd" >
<svg xmlns="http://www.w3.org/2000/svg" xmlns:xlink="http://www.w3.org/1999/xlink" version="1.1" width="2048" height="2048" viewBox="-10 0 2058 2048">
   <path fill="currentColor"
d="M1004 1q98 -7 191.5 29.5t158.5 110.5q46 50 72 113.5t31.5 134t2 133.5t-15.5 137q-2 38 -14.5 78t-32 86t-27.5 73q8 23 31.5 44.5t46.5 35.5t42 38t21 52q-11 50 -28 105t-40.5 120t-34.5 103q13 10 31.5 4.5t44.5 -13.5t50 -15t48 0t39 32q34 51 46.5 109.5
t-1.5 117.5q-6 30 -27 50t-48.5 27t-57.5 5.5t-56 -11.5q-30 -22 -63 -20t-62 23t-40 51q2 13 6.5 37.5t7.5 40.5t3 37.5t-5.5 35.5t-20 26t-38.5 17q0 21 -7.5 37t-17.5 26.5t-27 18t-30.5 11t-36.5 5.5t-35.5 2h-34.5h-8q-5 0 -26.5 -0.5t-29.5 -0.5t-28 -1t-30 -2.5
t-27 -4.5t-28 -6.5t-24 -9.5t-23 -14q-10 -18 -18.5 -49t-15 -57.5t-17 -51.5t-31 -37.5t-52.5 -8.5q-22 -12 -64.5 -25.5t-72.5 -24t-59.5 -33.5t-38.5 -55q2 -224 -57 -381q-4 -17 -16.5 -45t-21.5 -50t-13 -46t8 -43.5t42 -31.5q20 -15 60 -35.5t69.5 -36t56.5 -40.5
t33 -53q-4 -37 -24 -68.5t-43.5 -51t-50.5 -48t-41 -57.5q-16 -35 -15 -78.5t11.5 -79t16 -79.5t-2.5 -81q1 -27 14.5 -54t30 -46t36.5 -44.5t31 -46.5q77 -72 181 -115t216 -55zM1028 45q-20 -2 -38.5 0.5t-40 11.5t-32.5 14.5t-37 21t-32 19.5q-67 31 -102.5 90t-18.5 127
q-1 5 -2 14q-8 46 -11 71.5t-1.5 65.5t12.5 73q-12 33 -24.5 38t-25.5 -10t-27 -34.5t-32.5 -33t-37.5 -7.5q-46 10 -64 49.5t-7 84.5t43 72q3 9 8 14.5t12.5 7.5t14 2.5t16.5 -1.5t16 -3.5t16 -5.5q11 -3 15.5 -4.5t10.5 -1.5t7 2.5t0 9t-7 17.5q-34 89 76 233q29 19 63 23
t86.5 -2t66.5 -6q-13 -16 -38 -40t-43 -41t-34 -43t-21 -54q8 2 29 28.5t48 59t48 43.5q69 57 164.5 54t160.5 -63q95 -103 136.5 -242t23.5 -282q-2 -26 -11.5 -54t-25 -52.5t-39.5 -36t-52 -1.5q-20 -15 -10.5 -24.5t31.5 -13t32.5 -12t-7.5 -21.5q-48 -76 -133.5 -115.5
t-181.5 -41.5zM959 244q14 -1 26.5 5t16.5 19q-6 8 -26.5 15t-40 12t-38 19t-23.5 37q-26 1 -11 -34q16 -40 53 -64q24 -15 43 -9zM1322 373q15 14 29 50q40 34 8 66q-24 25 -57 22t-25 -40q15 4 25 5t15.5 -6t7.5 -14t2 -19.5t-1 -22t-2.5 -22t-1.5 -19.5zM996 377
q36 26 59 71q26 47 -21 73q-37 22 -71 11q-33 -10 -14 -45q28 10 42 6.5t14 -16.5t-2.5 -31t-7 -36.5t0.5 -32.5zM1157 401l2 1l5 3q7 16 15 31.5t20 33t19 28t23.5 30.5t21.5 26t25 29t23 26q4 30 -11.5 53.5t-43 37.5t-55.5 22t-56 11q-32 16 -53 -25q-12 -25 -6 -33
q4 -3 12 5q17 19 50 22t63.5 -7t48 -33.5t6.5 -50.5q-11 -17 -35.5 -47t-40.5 -50.5t-27 -51.5t-6 -61zM1329 743q-12 35 -42 62t-66 32q-43 -28 12 -53q13 -6 41 -16q45 -16 55 -25zM983 774q25 14 65 14.5t76 3t56 20.5q-8 32 -50 33t-86.5 -21t-60.5 -50zM1173 1171
q-30 -2 -44 9t-10.5 30t12 37.5t22.5 37.5q13 7 35 68q14 39 22 39q6 -1 13 -22q1 -14 5.5 -43.5t6 -51.5t-1 -46t-17.5 -39t-43 -19zM1291 1194q-10 -2 -16 3t-7 11t-1.5 17t-1.5 15q2 12 -11 91q-8 53 4 52q1 0 3 -1q6 -13 24.5 -39t32 -47.5t22.5 -44t-2.5 -37.5
t-46.5 -20zM1064 1219q-3 2 -20 15.5t-22.5 19l-17 17t-18 22.5t-10.5 23q12 23 43 39t78.5 30.5t64.5 21.5q7 -24 -27 -84t-71 -104zM1553 1425q-23 5 -39 9.5t-37 12.5t-32.5 19t-20.5 25.5t-7.5 35t13.5 44.5q-21 50 48 54q11 1 32 0q32 0 32 5q-1 2 -4 5q-41 5 -38 12
q3 9 40 7q26 -1 38 -10q34 -22 38.5 -67.5t-14.5 -88.5t-49 -63zM1032 1516q-109 1 -230 25q31 257 89 425q139 48 307 8q-10 -72 -16.5 -209t-8.5 -160q9 -34 -2.5 -55t-34.5 -27t-51 -8.5t-53 1.5zM1263 1743q-26 0 -34 16.5t-3 40t6.5 48t-4.5 40.5q45 41 59 -9
q13 -45 -6 -102q-8 -23 -18 -34z" />
</svg>
