<?xml version="1.0" standalone="no"?>
<!DOCTYPE svg PUBLIC "-//W3C//DTD SVG 1.1//EN" "http://www.w3.org/Graphics/SVG/1.1/DTD/svg11.dtd" >
<svg xmlns="http://www.w3.org/2000/svg" xmlns:xlink="http://www.w3.org/1999/xlink" version="1.1" width="2048" height="2048" viewBox="-10 0 2069 2048">
   <path fill="currentColor"
d="M2048 80q1 75 -2 228v23q-11 4 -34 11.5t-34 11.5q-16 5 -43.5 13t-45 13t-41 16t-38.5 24t-29 34t-21 49q-2 6 -16 11.5t-28 7.5q-27 5 -108.5 17t-125.5 20q-18 3 -37 30q-6 8 -24 51q6 5 20.5 15t22 15t21.5 11.5t24.5 8.5t25.5 2t30 -5q50 -15 157 -22q9 0 24 11.5
t15 18.5q0 18 -3 37.5t-8 45.5t-7 40q-177 15 -335 28q6 42 23 169t26 195q1 6 10.5 12.5t17.5 6.5q19 1 116 1q5 -24 -0.5 -42t-19 -29t-28 -20t-29 -20.5t-20.5 -25.5q146 -60 307 -1q-73 63 -97 84q2 18 6 52q1 11 6.5 35t6.5 35t-1 34q-8 44 -11 64t-7 59t-1.5 64
t10.5 58t24 62q2 6 1.5 9.5t-2.5 11t-2 11.5q-2 16 -7 52t-7.5 62.5t-0.5 50.5q2 29 2.5 40t-1 28.5t-2 22t-8.5 12.5t-13.5 8.5t-22 1.5t-29.5 -0.5t-41 -4.5q-4 -1 -12 -4.5t-10 -4.5v-180h-102q1 14 10 88.5t14 116.5h-230v-191h-112q4 39 21 222h-159q-3 -5 -9 -16.5
t-8.5 -20t-1.5 -15.5q8 -33 8 -73t-3.5 -65t-12.5 -72.5t-11 -65.5q33 -46 34 -78q4 -50 4 -204v-7.5v-10v-9t-1 -7.5t-3 -4q-18 -11 -25 -28t-5 -32t1.5 -31.5t-8.5 -24.5q6 -8 17 -20.5t16 -20.5t5 -15q0 -5 -2 -9.5t-6 -10t-7 -9t-9 -9.5l-8 -8q-6 -7 -62 -69
q171 -68 330 7q-96 73 -104 79v73h111q3 -58 10.5 -179.5t11.5 -186.5q-35 2 -284.5 15.5t-380.5 20.5v356h121q2 -3 6 -8t6 -7q-15 -20 -45 -56t-43 -52q138 -58 278 0q-7 7 -24 20t-28 23t-19 21q-8 12 -10.5 35.5t4.5 27.5q18 12 23.5 30.5t2.5 32.5t-10 28
q-15 29 -20 64t-4 57t6.5 66.5t6.5 59.5q2 15 9 53t7 58q0 32 -5.5 92.5t-5.5 70.5v52h-127v-187q-8 0 -48 4t-65 6v188h-213q10 -74 24 -171h-168q20 174 23 193q-12 0 -32 -0.5t-35.5 -0.5t-30.5 1q-28 2 -39.5 -10t-8.5 -39q3 -23 1 -51q0 -9 1.5 -37t-3.5 -47.5
t-22 -36.5q-4 -4 -5 -11.5t0.5 -18.5t3 -19t5 -22.5t4.5 -19.5q2 -9 14.5 -27.5t13.5 -28.5q6 -106 -3 -185t-48 -151q49 -24 52.5 -44.5t-35.5 -48.5q-5 -2 -64 -50q95 -38 177 -36t134 42q-14 10 -100 73q1 12 6 53q16 1 84.5 4.5t106.5 5.5q4 -53 10 -167.5t10 -174.5
h-246q-2 -10 -4 -27.5t-4 -31t-6 -25.5q-11 -30 -0.5 -40t40.5 -8q12 0 32.5 2.5t34.5 4t31.5 0.5t30.5 -5q32 -11 62.5 -33.5t34.5 -44.5q4 -28 -24 -41.5t-67 -11.5q-9 2 -37 1.5t-36.5 -1t-36.5 -3t-37 -2.5q-31 -3 -34 -14q-10 -31 -28 -53t-49 -44q-12 -9 -26 -16
t-23 -10t-26.5 -8t-25.5 -8q-10 -3 -21 -8t-25 -13.5t-20 -11.5v-10q109 -47 57 -158q55 26 117.5 43t111.5 24t120.5 8.5t112.5 -0.5t119 -6q19 -1 29 -2q125 -7 352 -23q462 -30 817 -181q29 -12 178 -81h12q2 3 8.5 7.5t10 8t3.5 7.5zM471 1614v-259q-55 -3 -174 -10v279
l99 -5.5t75 -4.5zM760 1355h-129v72.5v83v69.5q0 11 3.5 18.5t6.5 11t12 5t12 1.5t15 -1.5t13 -1.5q6 -1 20 0.5t22.5 1.5t16 -7.5t8.5 -24.5q1 -33 1 -71t-0.5 -84.5t-0.5 -72.5zM691 739q21 5 46.5 5t57 -2.5t48.5 -2.5q-4 -25 -10.5 -70t-8.5 -59q-33 3 -83 7.5t-70 5.5
q-13 21 -19.5 37t-8 32.5t10.5 28.5t37 18zM1275 1639v-295h-104v295h104zM1602 1345q-47 2 -123 4q3 52 8.5 146.5t7.5 138.5q29 -2 107 -7v-282zM1074 719q76 8 131.5 -8.5t93.5 -74.5q-45 -58 -47 -60q-36 3 -58.5 5t-44.5 6t-33 7.5t-21.5 12.5t-14 17t-6.5 23.5
t-2.5 31t2.5 40.5z" />
</svg>
