<?xml version="1.0" standalone="no"?>
<!DOCTYPE svg PUBLIC "-//W3C//DTD SVG 1.1//EN" "http://www.w3.org/Graphics/SVG/1.1/DTD/svg11.dtd" >
<svg xmlns="http://www.w3.org/2000/svg" xmlns:xlink="http://www.w3.org/1999/xlink" version="1.1" width="2048" height="2048" viewBox="-10 0 2058 2048">
   <path fill="currentColor"
d="M1233 1311q0 25 -4.5 81.5t-4.5 82.5q-21 345 -21 491v72q0 7 -1.5 8.5t-9.5 1.5l-307 -61q-25 -6 -71.5 -11t-71.5 -10q-9 -2 -28.5 -6t-29 -6t-24 -4t-26.5 -3t-24 -1q-67 -11 -200.5 -36.5t-200.5 -35.5q-41 -16 -163 -41q-10 0 -10 -18v-3q6 -32 11 -65t9.5 -77
t6.5 -63.5t7.5 -77t5.5 -65.5q0 -10 5 -35.5t5 -35.5q6 -6 6.5 -18.5t5.5 -22.5q5 -27 10 -81t10 -83q21 -103 21 -164q37 -241 50 -410q0 -41 41 -61l184 -61q8 0 14.5 -8.5t6.5 -22.5q26 -146 134 -307q67 -101 152 -144q21 0 57.5 -5t56.5 -5q42 0 71.5 11t51.5 40
q8 8 10.5 9t9.5 1q40 0 75 16t57 46q35 45 73 123q0 10 20 10q10 -5 25.5 -10t25.5 -10q15 0 17.5 2.5t2.5 17.5q0 46 -4.5 133t-4.5 133q-5 57 -10 174.5t-10 173.5q-5 72 -10.5 210.5t-10.5 209.5q7 7 8 9.5t1 11.5zM476 1260q38 38 72 61q57 38 71 92q8 39 -8 67t-53 36
h-51q-76 -13 -154 -72q-8 -8 -10.5 -6.5t-10.5 16.5q-20 82 -41 123q-14 44 21 61q139 108 298 93q84 -8 143.5 -52.5t90.5 -122.5q32 -79 32 -153t-52 -143q0 -6 -4.5 -11t-4.5 -10q-15 -24 -39.5 -46.5t-42 -33.5t-53.5 -33q-20 -10 -61 -51q-14 -28 -14 -58t20.5 -58
t54.5 -37q94 -14 196 20q8 7 13.5 2.5t5.5 -12.5l63 -184q8 -24 5.5 -29t-25.5 -12q-96 -28 -217 -11q-84 16 -152 57t-113.5 111.5t-50.5 159.5q-15 67 4 127.5t67 108.5zM885 82q-7 -8 -10 -9t-10 -1q-9 -5 -19.5 -5t-26 2.5t-26.5 2.5q-45 15 -78 39t-64 63
q-87 100 -144 287v3q0 5 1.5 6t8.5 1q25 -5 71 -20.5t72 -20.5q4 0 7 -2.5t4 -5.5v-2q0 -10 4.5 -30.5t4.5 -31.5q18 -47 34.5 -82.5t40.5 -73.5t57 -68t73 -52zM958 297q0 -51 -20 -133q-8 -16 -10.5 -17t-10.5 7q-48 23 -61 51q-61 75 -94 174v10h12q29 -6 79 -21.5
t64 -19.5q31 -8 36 -14t5 -37zM1040 317q20 -10 82 -30v-11q-17 -68 -62 -112q-20 -21 -41 -31h-11v10q0 5 5.5 20.5t5.5 20.5q10 28 10 113q0 20 11 20zM1982 1679l30 215v3q0 9 -10 18q-61 10 -179.5 35.5t-179.5 36.5q-155 38 -255 51q-3 0 -8 1q-7 2 -7 0q-1 -3 4 -11
q0 -69 11 -103q5 -72 9.5 -210t9.5 -210v-102q0 -72 11 -103v-71q5 -92 15.5 -271.5t16.5 -271.5v-102q9 -73 9 -236v-102q8 0 9.5 1.5t1.5 8.5l40 41q7 7 19 17t19.5 17.5t12.5 16.5q7 14 19 17.5t32.5 3.5t66.5 5t66 5q8 0 14.5 6.5t6.5 13.5q5 21 10 62t10 61
q5 36 15.5 102.5t15.5 102.5q10 51 25.5 158.5t25.5 158.5q16 88 41.5 262t40.5 261q5 20 16 56t16 56z" />
</svg>
