<?xml version="1.0" standalone="no"?>
<!DOCTYPE svg PUBLIC "-//W3C//DTD SVG 1.1//EN" "http://www.w3.org/Graphics/SVG/1.1/DTD/svg11.dtd" >
<svg xmlns="http://www.w3.org/2000/svg" xmlns:xlink="http://www.w3.org/1999/xlink" version="1.1" width="2048" height="2048" viewBox="-10 0 2068 2048">
   <path fill="currentColor"
d="M1070 139v772q8 0 9 -1.5t1 -9.5q10 0 10 -10q11 0 11 -10q7 0 8.5 -1.5t1.5 -9.5q8 0 9 -1t1 -9q11 0 11 -21v-627q0 -31 31 -31h61q24 0 27.5 4t3.5 27v514h11q7 0 8.5 -1.5t1.5 -8.5v-11l21 -20q4 -5 4 -10t-2 -7l-2 -3v-391h113v288q5 0 10 -5t11 -5l113 -113
q10 0 10 -21v-155q9 -4 19.5 -4t23 2t19.5 2t22 -2t25 -2t15 4.5t5 14.5t-2.5 25t-2.5 22v52q0 7 1.5 10t8.5 10h92q7 0 10.5 1t7 5.5t3.5 14.5v103h-31q5 -5 15 -5t16 -5h-144q-7 0 -8.5 1t-1.5 9q-13 13 -41 39t-51.5 49t-41.5 46q0 10 21 10h246q16 0 18.5 2.5t2.5 17.5
v72q0 10 -0.5 14t-3.5 9t-9.5 6.5t-17.5 1.5h-370q-3 0 -9.5 -2t-9 0.5t-2.5 11.5l-124 124h546v93q0 10 -4 14.5t-9.5 5t-17.5 0.5h-649q-7 0 -8.5 1.5t-1.5 9.5q-8 0 -9 1t-1 9q-8 0 -9.5 1.5t-1.5 8.5q-7 0 -8.5 1.5t-1.5 9.5q-8 0 -9 1t-1 9q-8 0 -9 1t-1 9
q-8 0 -9.5 1.5t-1.5 8.5q5 5 10 5t8 -2l3 -3h772q8 0 9 1.5t1 9.5v72q0 23 -4 27t-27 4h-915l-10 10q-5 10 -20.5 25.5t-21.5 26.5q5 4 10 4t11.5 -2t9.5 -2h1019q7 0 10 0.5t6.5 5.5t3.5 14v102h-1173q-20 0 -31 11l-113 113q0 5 5 7.5t11 2.5h5h1399q16 0 18.5 2.5
t2.5 18.5v196q0 23 -4 27t-27 4h-1513q-5 4 -5 9.5t3 7.5l2 3v237h-236q-10 0 -14.5 -3t-5.5 -6.5t-1 -10.5v-237q-4 -5 -7 -5t-6 2.5t-7 2.5h-206q-16 0 -18.5 -2.5t-2.5 -18.5v-206q0 -10 3.5 -14.5t7 -5.5t10.5 -1h226h-247q5 -4 7.5 -4t6 2t7.5 2h237q4 -4 4 -9.5
t-2 -7.5l-2 -3v-1493q0 -15 2.5 -17.5t17.5 -2.5h195q23 0 27 3.5t4 27.5v1420q9 -5 16.5 -12.5t14.5 -16.5t10 -12q11 -11 27 -29t29 -31t27 -22q10 0 10 -20v-1174q9 -5 22 -5t28.5 2.5t21.5 2.5q7 0 19 -2.5t20 -2.5t12.5 4.5t4.5 12.5t-2 20t-2 19v999q82 -83 134 -124
q4 -4 6.5 -9.5t3.5 -8.5v-2v-906h113q8 0 9 1t1 9q14 -9 21 -11.5t12.5 -0.5t7.5 2q-10 257 -10 751v21q4 -5 4 -10t-2 -11.5t-2 -9.5v-721q5 0 5 -7.5t5 -12.5z" />
</svg>
