<?xml version="1.0" standalone="no"?>
<!DOCTYPE svg PUBLIC "-//W3C//DTD SVG 1.1//EN" "http://www.w3.org/Graphics/SVG/1.1/DTD/svg11.dtd" >
<svg xmlns="http://www.w3.org/2000/svg" xmlns:xlink="http://www.w3.org/1999/xlink" version="1.1" width="2048" height="2048" viewBox="-10 0 2058 2048">
   <path fill="currentColor"
d="M1903 878v1170h-1758v-1170h295v-25q0 -176 1 -265q0 -51 6 -87q17 -118 79.5 -219.5t152.5 -168t205.5 -96t233.5 -9.5q140 22 253 104.5t177 207t64 266.5v292h291zM1319 878q0 -4 0.5 -8.5t0.5 -6.5q0 -189 -1 -284q0 -24 -6 -50q-24 -117 -114.5 -182t-212.5 -53
q-107 11 -180.5 96t-73.5 198v290h587z" />
</svg>
