<?xml version="1.0" standalone="no"?>
<!DOCTYPE svg PUBLIC "-//W3C//DTD SVG 1.1//EN" "http://www.w3.org/Graphics/SVG/1.1/DTD/svg11.dtd" >
<svg xmlns="http://www.w3.org/2000/svg" xmlns:xlink="http://www.w3.org/1999/xlink" version="1.1" width="2048" height="2048" viewBox="-10 0 2058 2048">
   <path fill="currentColor"
d="M1044 65q5 -3 25.5 -15t33 -22.5t24.5 -27.5q267 253 335 547q1 6 6 25.5t6.5 27t3.5 21.5t2 28q32 244 -148 389q-37 25 -71 56.5t-81 82.5t-71 75q25 -4 90 -36.5t117 -63.5l53 -30q-195 185 -242 213q-33 27 -42.5 55t-2.5 65v9q152 275 110 584q-57 -369 -277 -686
q-46 -46 -134 -159.5t-153 -203.5l-65 -91q21 12 52.5 30.5t94.5 49.5t84 31q-66 -49 -105 -139.5t-46 -184t8.5 -180t50.5 -135.5q27 -38 50.5 -66t59 -60.5t56 -49t81.5 -64.5t95 -75z" />
</svg>
