<?xml version="1.0" standalone="no"?>
<!DOCTYPE svg PUBLIC "-//W3C//DTD SVG 1.1//EN" "http://www.w3.org/Graphics/SVG/1.1/DTD/svg11.dtd" >
<svg xmlns="http://www.w3.org/2000/svg" xmlns:xlink="http://www.w3.org/1999/xlink" version="1.1" width="2048" height="2048" viewBox="-10 0 2058 2048">
   <path fill="currentColor"
d="M241 0h922q0 5 5 10t5 10l480 482q10 10 10 30v308q-23 -12 -70 -29t-62 -23v-153h-380q-61 0 -96.5 -36t-35.5 -97v-369h-768v1792h522q21 0 31 10q72 72 113 103l9 10h-696q-64 -14 -88.5 -53.5t-24.5 -100.5v-1761q0 -90 83 -123q12 0 24.5 -5t16.5 -5zM1163 133v379
h378zM1335 907q109 -3 213 34.5t185 105t134 166t64 210.5v113q-16 171 -129 308.5t-281 183.5q-82 20 -114 20h-102q-20 -5 -56 -10t-57 -10q-167 -46 -280.5 -183.5t-128.5 -308.5q-12 -113 20.5 -221t98.5 -191.5t163 -140.5t210 -72q39 -4 60 -4zM1346 1024
q-90 0 -173.5 36t-144 96.5t-97 144t-36.5 174t36.5 173.5t97 143t144 94t173.5 30q90 0 173.5 -36t144 -97t97 -144t36.5 -174q0 -120 -61.5 -221.5t-165 -160t-224.5 -58.5zM1346 1219q23 0 42 19t19 42v51q12 23 12 82h122q29 0 50 19t21 43q0 29 -19.5 45t-51.5 16h-122
v143q-8 23 -28.5 37.5t-44.5 14.5q-23 0 -42 -19.5t-19 -42.5v-133h-134q-23 0 -42 -19t-19 -42t19 -42.5t42 -19.5h134v-133q0 -23 19 -42t42 -19z" />
</svg>
