<?xml version="1.0" standalone="no"?>
<!DOCTYPE svg PUBLIC "-//W3C//DTD SVG 1.1//EN" "http://www.w3.org/Graphics/SVG/1.1/DTD/svg11.dtd" >
<svg xmlns="http://www.w3.org/2000/svg" xmlns:xlink="http://www.w3.org/1999/xlink" version="1.1" width="2048" height="2048" viewBox="-10 0 2068 2048">
   <path fill="currentColor"
d="M1032 322q75 68 148 128q50 -2 117.5 4.5t108 13t116.5 20.5q35 -24 71.5 -50.5t55.5 -40.5l19 -14q58 96 97 168q34 21 78.5 54.5t65.5 56.5q30 -11 139 -49q-2 6 -6 17q-17 43 -25.5 65.5t-25.5 62t-30 63t-34 56t-41 54.5t-47 44t-57 38q-56 -78 -176.5 -136
t-267.5 -87t-312.5 -30.5t-312 24t-266.5 85.5t-174 146q-35 -23 -65 -53.5t-51.5 -58.5t-45 -70t-37.5 -70.5t-37.5 -78.5t-36.5 -77l129 53q64 -56 163 -109l99 -165q72 56 152 108q62 -23 163 -36.5t168 -11.5zM1982 938l-201 463q-88 109 -215 184.5t-266 109t-289.5 31
t-287 -40t-257 -112.5t-199.5 -180l-187 -453q78 95 153.5 160.5t174.5 118.5q30 14 84.5 28t93.5 21l39 7l402 -203l400 207q17 -2 44 -6.5t85.5 -20t88.5 -31.5q233 -130 337 -283z" />
</svg>
