<?xml version="1.0" standalone="no"?>
<!DOCTYPE svg PUBLIC "-//W3C//DTD SVG 1.1//EN" "http://www.w3.org/Graphics/SVG/1.1/DTD/svg11.dtd" >
<svg xmlns="http://www.w3.org/2000/svg" xmlns:xlink="http://www.w3.org/1999/xlink" version="1.1" width="2048" height="2048" viewBox="-10 0 2058 2048">
   <path fill="currentColor"
d="M1433 1q64 -2 120 33.5t86.5 94.5t23.5 122v1565q2 56 -23 103.5t-66.5 76t-94 42.5t-104.5 9h-1016q-56 2 -103.5 -23t-76 -67t-42 -94t-8.5 -104v-484.5v-570v-485.5q2 -61 38 -114t93.5 -81.5t119.5 -22.5h1053zM1765 1331q11 0 31.5 -0.5t34 0t30 3.5t29 12t20.5 25
q8 21 9.5 46t0 56t-0.5 48q5 43 -12 78.5t-59 37.5q-12 1 -26 1t-31 -0.5t-26 -0.5v-306h77h-77zM1765 921q11 1 31.5 0t34 -0.5t30 3.5t29 12.5t20.5 24.5q8 21 9.5 46.5t0 56.5t-0.5 49q5 42 -12 77.5t-59 36.5q-27 2 -83 2v-308h77h-77zM1765 513q11 0 31.5 -0.5t34 0
t30 3.5t29 12t20.5 25q8 21 9.5 46t0 56t-0.5 48q5 43 -12 78.5t-59 37.5q-12 1 -26 1t-31 -0.5t-26 -0.5v-306h77h-77zM1228 358h-664q-26 0 -43.5 12t-24.5 31t-10 41t1 43q2 26 0 48t0 49t11 47q12 19 32 28t37.5 9t45 -1t41.5 0h574q27 0 44.5 -12.5t24 -31.5t9.5 -42
t0 -43q-2 -15 0 -50.5t-2.5 -60.5t-20.5 -44q-21 -23 -55 -23z" />
</svg>
