<?xml version="1.0" standalone="no"?>
<!DOCTYPE svg PUBLIC "-//W3C//DTD SVG 1.1//EN" "http://www.w3.org/Graphics/SVG/1.1/DTD/svg11.dtd" >
<svg xmlns="http://www.w3.org/2000/svg" xmlns:xlink="http://www.w3.org/1999/xlink" version="1.1" width="2048" height="2048" viewBox="-10 0 2068 2048">
   <path fill="currentColor"
d="M1681 556l367 1288l-488 150l-394 -1275l204 -68q-13 -49 -35 -106t-54.5 -121t-68.5 -115t-80.5 -85t-87 -34t-88 34t-83.5 85.5t-72.5 115t-58 121t-36.5 105.5l176 55l-394 1274l-488 -148l393 -1276l190 55q12 -35 25.5 -70.5t39.5 -93.5t54 -108t68 -104t82.5 -92.5
t96.5 -63.5t109.5 -25t108.5 24t94 62t79.5 91t65 103t51.5 107.5t38 95t24 74.5z" />
</svg>
