<?xml version="1.0" standalone="no"?>
<!DOCTYPE svg PUBLIC "-//W3C//DTD SVG 1.1//EN" "http://www.w3.org/Graphics/SVG/1.1/DTD/svg11.dtd" >
<svg xmlns="http://www.w3.org/2000/svg" xmlns:xlink="http://www.w3.org/1999/xlink" version="1.1" width="2048" height="2048" viewBox="-10 0 2069 2048">
   <path fill="currentColor"
d="M214 127h1496q72 -10 141 19t115 88.5t51 133.5q4 261 3.5 686t0.5 687q-8 23 -4 48.5t13.5 43.5t15 41t-0.5 41q-26 7 -53.5 8t-55.5 -3t-52 -8.5t-56 -12t-52 -10.5q-60 -16 -120.5 -20t-158 -0.5t-121.5 3.5q-24 -7 -52.5 -4.5t-56 13.5t-55 18t-50 8t-40 -15
t-25.5 -51q-10 -32 -17 -88.5t-19 -102t-40 -80.5q-1 -17 -10 -55t-15 -69.5t-6 -62.5t18 -46t55 -10q126 12 240 -28t179 -135q20 -22 47 -63t46 -67t53.5 -49t78.5 -26q28 11 48 1t30.5 -28.5t6.5 -43.5t-23 -43q-30 -16 -69 -27.5t-68.5 -17t-77 -13t-71.5 -12.5
q-36 0 -59.5 15.5t-36 43t-20.5 56t-20 60.5t-28 51q-20 46 -61.5 68.5t-88.5 17t-85 -36.5q-143 -109 -265 -225q-25 -16 -51 -42.5t-44.5 -50t-45.5 -47.5t-55 -37q-26 -14 -46.5 -11t-33 16.5t-25.5 32t-24 35.5t-29 27.5t-41 7.5q-27 4 -57 -9.5t-52 -29.5t-52 -23.5
t-57 8.5q-14 16 -38.5 50t-41.5 55t-47 39t-64 16q-13 -20 -14.5 -58.5t2.5 -72.5t-1 -70q3 -63 1 -112t-1.5 -111t7.5 -111q8 -36 28 -68t50 -56t59.5 -41.5t67.5 -34.5zM157 1259q11 0 20.5 5t23.5 18t16 15q142 80 318 76q9 15 -5.5 43.5t-33.5 63t-18 58.5
q-21 21 -32.5 57t-16.5 71t-13 68.5t-27.5 58t-53.5 30.5q-7 -1 -41 -10.5t-44.5 -13t-41 -12t-45 -13.5t-40.5 -14t-42.5 -15.5t-37.5 -16t-38 -18.5q-1 -10 -2.5 -56t-2 -65.5t1.5 -54t6 -61.5q20 -20 37.5 -53.5t29 -62t33 -57t49.5 -41.5zM730 1335q67 7 127 96
q27 32 43 78.5t30 98.5t31 84q5 12 16 31.5t21.5 36.5t20.5 37.5t16 37t5.5 31.5t-9.5 25q-35 -8 -73.5 -30t-66.5 -44.5t-67.5 -42.5t-76.5 -24q-28 -10 -61.5 -5.5t-61 17t-59 24.5t-57 16.5t-53.5 -6.5q4 -10 55.5 -109t68.5 -154q15 -20 32.5 -53.5t30.5 -58.5t36 -50
t52 -36z" />
</svg>
