<?xml version="1.0" standalone="no"?>
<!DOCTYPE svg PUBLIC "-//W3C//DTD SVG 1.1//EN" "http://www.w3.org/Graphics/SVG/1.1/DTD/svg11.dtd" >
<svg xmlns="http://www.w3.org/2000/svg" xmlns:xlink="http://www.w3.org/1999/xlink" version="1.1" width="2048" height="2048" viewBox="-10 0 2068 2048">
   <path fill="currentColor"
d="M1773 6q122 0 202.5 83t71.5 203v1464q0 120 -82.5 203t-202.5 83h-1476q-120 0 -203 -83t-83 -203v-1464q0 -120 83 -203t203 -83h1487zM560 1813q84 0 153 -41t107 -109t38 -148q0 -78 -40.5 -146.5t-109.5 -109t-148 -40.5t-147.5 40.5t-109 109t-40.5 147t40.5 147.5
t109 109.5t147.5 40.5zM1007 1070h-11v-195h-721v195h732zM1007 783h-11v-193h-721v193h732zM1007 498h-11v-183h-721v183h732zM1785 1333v-194h-721v194h721zM1785 1058v-194h-721v194h721zM1785 772v-194h-721v194h721zM1785 498v-195h-721v195h721z" />
</svg>
