<?xml version="1.0" standalone="no"?>
<!DOCTYPE svg PUBLIC "-//W3C//DTD SVG 1.1//EN" "http://www.w3.org/Graphics/SVG/1.1/DTD/svg11.dtd" >
<svg xmlns="http://www.w3.org/2000/svg" xmlns:xlink="http://www.w3.org/1999/xlink" version="1.1" width="2048" height="2048" viewBox="-10 0 2068 2048">
   <path fill="currentColor"
d="M375 1884h-186q-43 -87 -78 -182q-36 -98 -61 -200q-21 -93 -36 -224q-14 -122 -14 -254q0 -144 14 -261q13 -111 36 -214q23 -99 60 -200q42 -110 79 -185h186v25q-36 54 -78 145q-33 71 -69 189q-33 111 -50 231q-19 123 -19 270q0 153 19 271q17 116 50 230
q34 112 68 187q38 86 79 147v25zM2048 1024q0 132 -14 254q-15 131 -36 224q-25 102 -61 200q-35 95 -78 182h-186v-25q41 -61 79 -147q41 -89 68 -187q33 -114 50 -230q19 -118 19 -271q0 -139 -20 -270q-19 -128 -49 -231q-36 -118 -69 -189q-42 -91 -78 -145v-25h186
q45 91 79 185q35 90 60 200q23 103 36 214q14 117 14 261zM521 854q-68 0 -114 -48q-46 -47 -46 -120t47 -120q48 -47 118 -47q71 0 115 48q46 46 46 119q0 75 -47 121.5t-119 46.5zM521 1598q-67 0 -114 -49q-46 -48 -46 -120q0 -73 47 -120q48 -47 118 -47q71 0 115 48
q46 46 46 119t-47 122q-47 47 -119 47zM1636 1573h-264v-150h-3q-91 175 -268 175q-133 0 -208 -85q-74 -86 -74 -230q0 -303 310 -349l245 -38q0 -171 -160 -171t-306 111v-243q60 -35 158 -60q104 -27 185 -27q385 0 385 445v622zM1374 1150v-71l-163 25q-135 21 -135 141
q0 55 32 91q32 34 90 34q77 0 127 -62q49 -63 49 -158z" />
</svg>
