<?xml version="1.0" standalone="no"?>
<!DOCTYPE svg PUBLIC "-//W3C//DTD SVG 1.1//EN" "http://www.w3.org/Graphics/SVG/1.1/DTD/svg11.dtd" >
<svg xmlns="http://www.w3.org/2000/svg" xmlns:xlink="http://www.w3.org/1999/xlink" version="1.1" width="2048" height="2048" viewBox="-10 0 2068 2048">
   <path fill="currentColor"
d="M0 1818q5 -32 22.5 -62.5t33.5 -48.5t45 -47q13 -14 30 -27.5t28.5 -22t35.5 -23.5t32 -19.5t39.5 -22t37.5 -20.5q86 -50 237 -113q8 0 14.5 -7t6.5 -16q138 -276 192 -404q16 -39 45 -118.5t45 -118.5v-11q-66 -159 -79 -258q-30 -120 -11 -271q14 -70 90 -146
q12 -12 56 -12h91q39 0 56 35q15 10 31 27.5t23 27t24 34.5q10 20 15.5 42.5t10 50t8.5 42.5q0 64 -7 135t-15 120.5t-23 127.5q-5 22 -16.5 61.5t-17.5 62.5v11q87 159 248 338q8 8 12.5 9.5t21.5 1.5q57 -10 127 -15.5t113 -6.5t120 -1q123 0 214 45q22 15 34 24t28 24.5
t27 30.5q23 46 23 68v79q0 39 -33 56q-3 3 -13.5 14t-16 16t-16 12.5t-21.5 10.5t-24 3q-11 0 -39 5.5t-40 5.5q-129 9 -242 -28.5t-230 -117.5q-11 -12 -39 -34t-40 -34q-5 0 -11 -5.5t-12 -5.5q-135 23 -202 46q-46 11 -135 38.5t-135 39.5q-5 0 -11 5.5t-11 5.5
q-82 146 -192 293q-86 105 -191 191q-56 39 -124 57h-90q-33 0 -56 -12q-44 -18 -74 -50.5t-39 -73.5q-11 0 -11 -44zM991 1030q-17 45 -57 135t-57 135l271 -68q-32 -38 -87 -110.5t-70 -91.5zM1474 1322q99 65 225 102q12 4 22.5 4.5t21 -2.5t17 -5.5t18.5 -8.5
q18 -9 22.5 -28t-11.5 -28q0 -11 -23 -11q-12 -6 -43 -12t-46 -11q-101 -17 -203 0zM416 1637q-94 46 -191 124q-7 4 -13 9t-10.5 9t-10.5 11.5t-9 11t-9.5 12.5t-8.5 11.5t-9 13t-8 12.5v23q9 9 11 10t10 1q13 -8 39.5 -29t39.5 -28q31 -25 57 -53.5t63 -76t49 -61.5z
M900 501q34 -98 34 -192q0 -71 -11 -101q0 -11 -23 -11q-5 0 -11 5.5t-12 5.5q-10 16 -15 36.5t-5.5 33t-0.5 43.5q0 60 10 90q10 10 15.5 24t10.5 34.5t8 31.5z" />
</svg>
