<?xml version="1.0" standalone="no"?>
<!DOCTYPE svg PUBLIC "-//W3C//DTD SVG 1.1//EN" "http://www.w3.org/Graphics/SVG/1.1/DTD/svg11.dtd" >
<svg xmlns="http://www.w3.org/2000/svg" xmlns:xlink="http://www.w3.org/1999/xlink" version="1.1" width="2048" height="2048" viewBox="-10 0 2058 2048">
   <path fill="currentColor"
d="M761 2048h-153q4 -12 7 -31.5t6 -32.5t7 -18q25 -10 41 -24t23.5 -28.5t10 -35t1.5 -36t-2.5 -41t-1.5 -40.5v-635q-37 -7 -97 -12t-104 -13t-76 -26q-111 -71 -170.5 -171t-61.5 -214t48 -239q51 -120 -72 -134q-20 0 -82 -20v-21q31 -15 87.5 -51t86.5 -51
q8 -4 39.5 -6.5t42.5 -13.5q44 -22 72 -33.5t55 -15t44 1.5t37 24t37 45t42 70q37 80 33.5 148.5t-43.5 148.5q-10 16 -16 27t-13.5 28t-8 29.5t2 26.5t14 24.5t31.5 17.5q22 -30 60.5 -85t61 -87t60 -82.5t64 -82.5t65.5 -75.5t71.5 -73t75.5 -64t85 -59t92 -47.5t102 -40
h72q17 24 78.5 91t85.5 114q52 85 149.5 272.5t157.5 280.5q40 60 51.5 151t-10.5 175.5t-72 123.5v-358h-41q-32 46 -44.5 105.5t-10.5 105t8 117.5t6 112q0 130 -5 383t-5 375h-72q0 -11 -2 -26.5t-2 -28.5t4 -27q61 -470 -112 -942q-127 113 -144 307q-4 43 -17 95.5
t-23.5 86t-30.5 95.5q-7 18 -22.5 47t-24 48.5t-13 44t7.5 48.5t42 47q4 11 1.5 22.5t-7.5 40.5t-5 50q-15 -19 -33 -43t-28.5 -37t-20.5 -23v31q-35 10 -112 25.5t-113 25.5q0 -5 -5 -20t-5 -21q41 -20 61 -41q77 -46 84.5 -93t-53.5 -101q-202 -156 -113 -379
q9 -18 12 -42t4 -63t5 -69q-20 12 -50 27t-46 23.5t-30 19.5t-17 22q-19 71 -36 165t-24 141t-22 165q-19 85 -39 223t-23 156zM1232 1659q107 -138 123 -282t-61 -251q-123 246 -185 379z" />
</svg>
