<?xml version="1.0" standalone="no"?>
<!DOCTYPE svg PUBLIC "-//W3C//DTD SVG 1.1//EN" "http://www.w3.org/Graphics/SVG/1.1/DTD/svg11.dtd" >
<svg xmlns="http://www.w3.org/2000/svg" xmlns:xlink="http://www.w3.org/1999/xlink" version="1.1" width="2048" height="2048" viewBox="-10 0 2068 2048">
   <path fill="currentColor"
d="M0 0h2048v46v1945q0 34 -11.5 45.5t-45.5 11.5h-1991v-2048zM512 433q-48 0 -109.5 7t-61.5 15v1081q0 18 7.5 37.5t15.5 19.5h205v-410q30 -3 76 -6.5t71 -6t59.5 -8t66.5 -13.5q136 -34 209 -138t65 -249q-9 -132 -88 -217t-220 -102q-82 -10 -296 -10zM569 604
q43 4 87.5 7.5t71 6t57.5 7.5q52 18 83 59.5t31 100.5q0 29 -3 53t-12 50t-28.5 46t-47.5 33q-58 24 -107 28t-132 -5v-386zM1468 739q-53 0 -114 12q-94 26 -151 82.5t-66 133.5q-8 92 34 155t137 107q7 3 26.5 8.5t31.5 9.5t28.5 11.5t28.5 15.5q43 26 59.5 53t7.5 61
q-8 42 -37 60t-65 9q-29 -5 -106.5 -22.5t-121.5 -23.5q-12 38 -34 125q0 10 7.5 22t15.5 12q219 92 410 12q142 -54 159 -205q0 -86 -34.5 -144.5t-101.5 -83.5q-18 -9 -62 -26t-63 -30q-14 -10 -41 -21.5t-39 -24.5q-35 -26 -27.5 -67t50.5 -58q23 -11 79 -11
q50 12 159 34q6 -23 17.5 -63t16.5 -63q8 -8 -2.5 -26.5t-20.5 -18.5q-89 -34 -181 -35z" />
</svg>
