<?xml version="1.0" standalone="no"?>
<!DOCTYPE svg PUBLIC "-//W3C//DTD SVG 1.1//EN" "http://www.w3.org/Graphics/SVG/1.1/DTD/svg11.dtd" >
<svg xmlns="http://www.w3.org/2000/svg" xmlns:xlink="http://www.w3.org/1999/xlink" version="1.1" width="2048" height="2048" viewBox="-11 0 2070 2048">
   <path fill="currentColor"
d="M357 1q109 3 196 68.5t118 186.5h706q17 -67 57 -120t91.5 -84t113 -44t121 -4t117 42t99.5 87.5t59.5 118.5t11 124t-34.5 116t-71 98t-104.5 67.5t-130.5 25.5q-92 0 -170 -49l-902 902q25 41 37 85h694v-256h681v682h-681v-255h-694q-17 67 -57 120t-91.5 84.5
t-113 44t-121 3.5t-117 -42t-99.5 -87.5t-59.5 -118.5t-11 -124t34.5 -116.5t71 -98.5t104.5 -67t130.5 -25q94 0 171 49l901 -901q-25 -40 -37 -86h-706q-18 70 -57.5 123.5t-89.5 83.5t-109 42t-117 4.5t-112 -33.5t-95 -67.5t-65.5 -103t-24.5 -134.5q0 -81 30.5 -148
t81.5 -109t114 -64t130 -20zM1715 167h-1q-71 0 -121 50.5t-50 121t50 121t121 50.5h1q70 0 120.5 -50.5t50.5 -121t-50.5 -121t-120.5 -50.5zM343.5 176q-70.5 0 -121.5 50.5t-51 121t51 121.5t121.5 51t120.5 -50.5t50 -121.5t-50 -121.5t-120.5 -50.5zM1535 1536v341h342
v-341h-342zM335.5 1541q-70.5 0 -121.5 50t-51 121v1q0 70 51 120t121.5 50t120.5 -50t50 -120v-1q0 -71 -50 -121t-120.5 -50z" />
</svg>
