<?xml version="1.0" standalone="no"?>
<!DOCTYPE svg PUBLIC "-//W3C//DTD SVG 1.1//EN" "http://www.w3.org/Graphics/SVG/1.1/DTD/svg11.dtd" >
<svg xmlns="http://www.w3.org/2000/svg" xmlns:xlink="http://www.w3.org/1999/xlink" version="1.1" width="2048" height="2048" viewBox="-10 0 2058 2048">
   <path fill="currentColor"
d="M577 0q51 0 87.5 35t36.5 84q0 32 -15.5 58.5t-41.5 43.5l59 218q77 -20 157 -31t121 -12l42 -1q16 0 45 0.5t113 10.5t160 29l61 -211q-28 -15 -44.5 -42.5t-16.5 -59.5q0 -50 36.5 -85t88 -35t87 35t35.5 85q0 46 -32 80t-79 38l-62 215q76 24 141 56t130 83.5t111 115
t74.5 153.5t28.5 196q0 93 -31 189.5t-83.5 181.5t-120.5 167t-143 149t-150.5 124t-143 96t-121 60.5t-84.5 21.5t-84.5 -21.5t-120.5 -60t-142.5 -95t-149.5 -123t-142 -148t-120 -166.5t-83.5 -183t-32.5 -192q0 -104 29 -193.5t75 -152.5t112 -114.5t131.5 -83.5
t141.5 -56l-60 -220q-51 0 -87 -35t-36 -84.5t36 -84.5t87 -35zM507 717q-72 3 -134 53t-85 138q-44 142 85 325q94 133 230 223q127 85 195 69q19 -5 30 -19q35 -53 52.5 -127.5t17 -155.5t-23 -164t-63.5 -152t-110 -120t-156 -68q-21 -4 -38 -2zM1564 717q-26 0 -38 2
q-88 17 -156.5 68t-109.5 120t-63.5 152t-22.5 164t17.5 155.5t52.5 127.5q39 48 156 -9q123 -61 236 -186q145 -161 157 -308q5 -51 -9 -95q-23 -88 -85 -138t-135 -53zM1462 1046q-46 0 -79.5 32t-33.5 77t33 77t80 32t79.5 -32t32.5 -77.5t-32.5 -77t-79.5 -31.5z
M603 1049q-46 0 -79.5 32t-33.5 77.5t33 77t80 31.5t80 -31.5t33 -77t-33 -77.5t-80 -32zM1495 1091q12 0 20 8t8 19.5t-8 19.5t-20 8q-11 0 -19.5 -8.5t-8.5 -19.5t8 -19t20 -8zM569 1095q12 0 20 8t8 19t-8 19.5t-20 8.5v-1q-11 0 -20 -8t-9 -19t8.5 -19t20.5 -8z" />
</svg>
