<?xml version="1.0" standalone="no"?>
<!DOCTYPE svg PUBLIC "-//W3C//DTD SVG 1.1//EN" "http://www.w3.org/Graphics/SVG/1.1/DTD/svg11.dtd" >
<svg xmlns="http://www.w3.org/2000/svg" xmlns:xlink="http://www.w3.org/1999/xlink" version="1.1" width="2048" height="2048" viewBox="-10 0 2058 2048">
   <path fill="currentColor"
d="M1062 2l-1 -2q32 2 58.5 19.5t40.5 45.5l722 1496q11 23 11 49t-11 49q-24 49 -76 65l-1111 319q-15 5 -35 5q-31 0 -59 -14.5t-44 -40.5l-383 -576q-19 -29 -19 -64q0 -33 18 -60l783 -1237q16 -25 42 -39.5t56 -14.5h8zM1092 256l2 1q-24 2 -29 24l-337 1575
q-4 21 12.5 35.5t37.5 8.5l944 -271q14 -3 22.5 -15t8.5 -28q0 -10 -3 -18l-625 -1295q-9 -19 -33 -17z" />
</svg>
