<?xml version="1.0" standalone="no"?>
<!DOCTYPE svg PUBLIC "-//W3C//DTD SVG 1.1//EN" "http://www.w3.org/Graphics/SVG/1.1/DTD/svg11.dtd" >
<svg xmlns="http://www.w3.org/2000/svg" xmlns:xlink="http://www.w3.org/1999/xlink" version="1.1" width="2048" height="2048" viewBox="-10 0 2058 2048">
   <path fill="currentColor"
d="M315 0q5 6 15.5 17t45.5 43t74.5 60.5t103 64t131 60.5t157 42.5t182.5 17.5t182.5 -17t158 -43.5t129.5 -59.5t103.5 -65.5t74 -59t46.5 -43.5l15 -17q5 8 14.5 23.5t36 65t50 101t51.5 127.5t47.5 149t30 160.5t5.5 167.5q-5 91 -18.5 170.5t-43.5 173t-75.5 178
t-118 179t-167 183t-227 184t-294.5 186.5q-405 -228 -627 -479q-86 -97 -147 -197.5t-95.5 -199.5t-51.5 -188.5t-23 -189.5q-5 -80 5 -167t30.5 -162t46.5 -147.5t53 -128.5t49.5 -99.5t36.5 -66.5zM353 215q-64 132 -99 258q95 -120 239 -168q-68 -36 -140 -90zM1695 215
q-72 54 -140 90q145 49 239 168q-35 -126 -99 -258zM688 413q-77 -6 -147.5 17.5t-122.5 67.5t-88 105t-48 128t2 140t57 137.5t105 106t128 56t136 5.5t130.5 -40t109.5 -87t74 -130q40 117 140 189t224 72q76 0 144 -27.5t116.5 -73.5t80.5 -108t41 -128.5t-8.5 -137.5
t-61.5 -132.5t-106 -101t-128 -52t-135 -2.5t-128 41.5t-107 87t-72 128.5q-37 -110 -128.5 -181t-207.5 -80zM660 604q79 0 135.5 56.5t56.5 136t-56.5 136t-135.5 56.5t-135.5 -56.5t-56.5 -136t56.5 -136t135.5 -56.5zM1388 604q79 0 135.5 56.5t56.5 136t-56.5 136
t-135.5 56.5t-135.5 -56.5t-56.5 -136t56.5 -136t135.5 -56.5zM942 1231l82 82l82 -82q-46 -30 -82 -66q-36 36 -82 66zM497 1479q57 63 131 130v-122h134v232q90 67 195 132v-197h134v197q110 -68 195 -132v-232h134v123q148 -132 245 -279q48 -74 86 -165
q-102 100 -240.5 134t-274.5 -7l-212 211l-212 -211q-136 41 -274.5 7t-240.5 -134q69 165 200 313z" />
</svg>
