<?xml version="1.0" standalone="no"?>
<!DOCTYPE svg PUBLIC "-//W3C//DTD SVG 1.1//EN" "http://www.w3.org/Graphics/SVG/1.1/DTD/svg11.dtd" >
<svg xmlns="http://www.w3.org/2000/svg" xmlns:xlink="http://www.w3.org/1999/xlink" version="1.1" width="2048" height="2048" viewBox="-10 0 2068 2048">
   <path fill="currentColor"
d="M1040 430q34 -1 74.5 1.5t68.5 5.5t75.5 9t69.5 8q33 0 62.5 20t48 45t44 58.5t45.5 50.5q23 29 41 64.5t28.5 63.5t20 75t13 69t10.5 77.5t9 70.5q8 22 9 45.5t-2.5 41.5t-14.5 43t-18 38.5t-22 39.5q-21 20 -35.5 54t-22 63t-26 59t-47.5 46q-43 34 -44 6q0 -10 19 -80
q10 -36 8 -50q16 -96 -22.5 -189t-118.5 -149q-27 -20 -91 -52.5t-94 -58.5q-55 -29 -121 -18.5t-110 55.5q-45 21 -72.5 35.5t-63.5 41t-60 55.5q-50 54 -69 130.5t-11.5 149t33.5 146.5q-43 0 -83 -40.5t-52 -87.5q-5 -32 -24.5 -67t-39.5 -60.5t-34.5 -61t-11.5 -70.5
q6 -214 45 -341q10 -35 26 -68t42.5 -68t43 -54.5t54 -60.5t48.5 -53q239 -41 372 -38zM1401 463l1 -1zM1666 1125l-1 1zM550 463v2q-7 25 -27 51t-41.5 45.5t-44.5 46t-34 51.5q-33 49 -53 114t-26.5 119.5t-17 126.5t-24.5 121q-19 13 -34.5 7.5t-25.5 -19t-20 -36
t-17.5 -43.5t-17.5 -42t-20 -31q-10 -23 -33.5 -43.5t-45.5 -33.5t-42.5 -34t-25.5 -47q26 -39 63 -81t63 -68t74 -71q116 -131 350 -135zM1506 463q77 4 127 14q76 10 140.5 54.5t136.5 118.5q9 14 27.5 33t37 34t36.5 34.5t28 37t8.5 39.5t-17.5 43q-121 61 -181 229
q-26 73 -61 43q-29 -24 -38 -85q-3 -21 -1 -38q-6 -57 -9.5 -84.5t-12.5 -79t-20 -84t-30 -73t-44 -72.5q-11 -21 -31 -42.5t-38.5 -36.5t-35 -38t-22.5 -47zM566 677zM654 735q-44 -2 -80.5 27.5t-46.5 72.5q-10 34 0 66t34 53t54 32.5t63 6t59 -27.5q34 -25 43 -66
t-4.5 -78t-46.5 -63t-75 -23zM1432 735q-44 -2 -80 27.5t-46 72.5q-10 34 0 66t33.5 53t53.5 32.5t63 6t59 -27.5q34 -25 43 -66t-4.5 -78t-46.5 -63t-75 -23zM1571 885l-2 2zM1569 902v12v-12zM1319 942v1v-1zM1057 980q27 -2 51 13t48.5 37t44.5 30q86 44 132.5 133.5
t38.5 188.5q-3 15 -5.5 65.5t-13.5 82t-39 49.5q-221 66 -439 23q-64 0 -107.5 -35.5t-38.5 -98.5q-30 -94 -4 -196.5t100 -168.5q24 -11 55.5 -35.5t54.5 -43.5t56.5 -33t65.5 -11z" />
</svg>
