<?xml version="1.0" standalone="no"?>
<!DOCTYPE svg PUBLIC "-//W3C//DTD SVG 1.1//EN" "http://www.w3.org/Graphics/SVG/1.1/DTD/svg11.dtd" >
<svg xmlns="http://www.w3.org/2000/svg" xmlns:xlink="http://www.w3.org/1999/xlink" version="1.1" width="2048" height="2048" viewBox="-10 0 2062 2048">
   <path fill="currentColor"
d="M2042 462q0 90 -35 173t-94.5 144t-143.5 98t-178 37q-125 0 -228.5 -59.5t-163 -163t-59.5 -229t59.5 -229t163 -163t228.5 -59.5q90 0 173 35t144 94.5t97.5 144t36.5 177.5zM793 0v1655q0 98 -4 144.5t-20 86.5q-17 44 -56 83t-82 56q-32 16 -77 19.5t-155 3.5
q-102 0 -147 -3.5t-85 -19.5q-43 -17 -82 -56t-57 -83q-15 -32 -18.5 -76.5t-3.5 -154.5v-1251q0 -86 0.5 -124t6 -78.5t15.5 -62.5q18 -35 50 -67t67 -49q40 -16 92.5 -19.5t173.5 -3.5h382z" />
</svg>
