<?xml version="1.0" standalone="no"?>
<!DOCTYPE svg PUBLIC "-//W3C//DTD SVG 1.1//EN" "http://www.w3.org/Graphics/SVG/1.1/DTD/svg11.dtd" >
<svg xmlns="http://www.w3.org/2000/svg" xmlns:xlink="http://www.w3.org/1999/xlink" version="1.1" width="2048" height="2048" viewBox="-10 0 2058 2048">
   <path fill="currentColor"
d="M282 0h820q327 0 546 273v11l-12 -11l-11 -11q-96 -96 -239 -114q-75 -13 -193 11q-76 31 -148 103q-46 57 -137 193q-46 67 -89.5 140t-101.5 179t-82 148q-114 204 -171 318q-53 99 -81.5 153t-68 138t-66.5 153v-1638q0 -25 8.5 -35.5t25.5 -10.5zM1360 215
q42 -1 128 13q60 19 100 39t71 52q6 5 11.5 16.5t11.5 17.5q62 108 79 250q17 144 -24 278t-135 245q-68 86 -171 137q-16 8 -18 18.5t7 26.5l307 615q8 15 13 23.5t19.5 21t36.5 23.5q8 26 -0.5 41.5t-34.5 15.5h-1319q2 -4 22.5 -33.5t33.5 -50.5t23 -41q23 -34 63 -102.5
t62 -102.5q15 -23 50.5 -81t59.5 -95.5t50 -73.5q159 -228 250 -342q85 -102 205 -204q28 -23 85 -74.5t85 -73.5l23 -23q16 -24 18.5 -57t-6.5 -57q-8 -14 -25 -45.5t-31 -60t-24 -53.5q0 23 23 68q22 68 22 114q0 34 -11 45q-5 16 -15.5 24t-18.5 9.5t-23 1.5
q-34 -12 -79 -35q-61 -50 -97 -96t-51 -108q-35 -121 45 -217q16 -23 39.5 -34.5t63.5 -21.5q28 -11 76 -13z" />
</svg>
