<?xml version="1.0" standalone="no"?>
<!DOCTYPE svg PUBLIC "-//W3C//DTD SVG 1.1//EN" "http://www.w3.org/Graphics/SVG/1.1/DTD/svg11.dtd" >
<svg xmlns="http://www.w3.org/2000/svg" xmlns:xlink="http://www.w3.org/1999/xlink" version="1.1" width="2048" height="2048" viewBox="-10 0 2068 2048">
   <path fill="currentColor"
d="M1024 1606q-167 0 -323.5 -34.5t-282 -98t-220.5 -148t-146.5 -189t-51.5 -216.5t51.5 -216.5t146.5 -189t220.5 -147.5t282 -97.5t323.5 -34.5t323.5 34.5t282 97.5t220.5 147.5t146.5 189t51.5 216.5t-51.5 216.5t-146.5 189t-220.5 148t-282 98t-323.5 34.5zM1181 503
q-158 0 -302.5 37t-248.5 99.5t-166 149.5t-62 182.5t62 182t166 149.5t248.5 100t302.5 37q131 0 243 -17.5t205.5 -54.5t159.5 -91.5t102.5 -132t36.5 -173t-36.5 -173.5t-102.5 -132.5t-159.5 -91.5t-205.5 -54t-243 -17zM1559 1297q63 18 98 36q24 11 50 35
q7 6 12.5 14.5t7.5 13.5l3 5l244 411h-394l-185 -346q-39 -65 -62 -83q-16 -14 -24.5 -18t-21.5 -4h-93v452h-350v-1153h702q7 0 18.5 1t44.5 7.5t63.5 17.5t67 34.5t63.5 55t45 82t18 112.5t-17 113.5t-44 84.5t-59.5 58t-65 38t-59.5 21t-44 10l-17 2h-1zM1408 911h-212
v195h212q4 0 10.5 -0.5t23 -5.5t29.5 -14.5t23.5 -30t10.5 -48.5q0 -29 -10 -49.5t-24.5 -29t-28.5 -13t-24 -4.5h-10z" />
</svg>
