<?xml version="1.0" standalone="no"?>
<!DOCTYPE svg PUBLIC "-//W3C//DTD SVG 1.1//EN" "http://www.w3.org/Graphics/SVG/1.1/DTD/svg11.dtd" >
<svg xmlns="http://www.w3.org/2000/svg" xmlns:xlink="http://www.w3.org/1999/xlink" version="1.1" width="2048" height="2048" viewBox="-10 0 2063 2048">
   <path fill="currentColor"
d="M1583 238v60l10 11h11q15 -6 45 -10.5t46 -9.5q15 -8 26 3t3 27q-5 15 -10 45t-10 46v10l10 9q0 10 21 10h91q29 0 29 31v21q-4 13 -11.5 28t-16 30t-12.5 21v11q11 10 11 20h10q15 5 45 10.5t45 10.5q15 0 21.5 17t-1.5 33q-8 12 -26 35.5t-24 34.5v21q0 4 2.5 6.5
t8 5.5t9.5 7q15 5 40 15.5t41 15.5q16 8 20 21t-10 29q-40 40 -71 60v31q10 10 21 10q5 3 28.5 18.5t41.5 21.5q16 8 16 25.5t-16 24.5q-15 11 -40 26t-41 26v9q0 15 1.5 19t9.5 12q40 39 60 50q14 16 10 28.5t-20 21.5q-58 19 -81 30q-10 0 -10 11q-5 4 -5 9t2.5 11t2.5 9
q7 8 14 16.5t11 14.5t12.5 19.5t13.5 20.5q9 7 6.5 20.5t-16.5 20.5q-8 0 -10.5 1t-10.5 9q-15 0 -40 4.5t-41 4.5h-10q0 5 -4.5 10.5t-4.5 10.5v3q0 8 9 17q5 11 15.5 36t15.5 35q6 9 2.5 20t-12.5 20h-121q-10 10 -10 30q5 16 10 41t10 40q8 16 -5 28t-36 12
q-15 -5 -44.5 -10t-45.5 -10h-10l-10 10q-11 10 0 10v91q0 30 -31 30h-19q-43 -14 -81 -40h-11q-7 0 -13.5 6.5t-6.5 14.5q0 15 -5 39.5t-5 39.5t-17.5 22t-32.5 -1q-30 -30 -71 -50h-10q-8 0 -14 5.5t-6 13.5q-5 15 -15 40.5t-15 40.5q-7 14 -13.5 17t-16.5 3
q-5 0 -7.5 -2.5t-2.5 -4.5v-3q-40 -40 -61 -70h-20q-8 0 -14.5 6t-6.5 14q-5 10 -19.5 35t-19.5 36q-8 15 -25.5 15t-25.5 -15q-10 -16 -25.5 -41t-25.5 -40h-19q-8 0 -10.5 1t-10.5 9l-60 60q-7 7 -15 9t-26 2q-9 0 -9 -18v-3l-31 -91q0 -9 -10 -9h-30q-9 9 -18.5 16
t-26.5 18t-25 16q-9 -4 -22.5 -10.5t-20 -10t-14.5 -8.5t-11 -10t-3 -11q-10 -31 -10 -91q0 -10 -10 -10q-6 0 -11 -5.5t-10 -5.5q-7 0 -9 1.5t-10 9.5q-11 5 -36 15t-35 15q-15 8 -28 1.5t-13 -21.5v-111l-10 -10h-10q-16 5 -45.5 9.5t-44.5 9.5q-16 8 -27.5 -3t-3.5 -26
q5 -16 10 -46t10 -45v-10l-10 -10h-100q-31 0 -31 -30v-21q5 -14 12 -28.5t16 -30.5t12 -22v-9q1 -10 -9 -10q0 -5 -2.5 -7.5t-5.5 -2.5h-2q-16 0 -46 -5.5t-45 -5.5t-22 -17t1 -33q32 -32 51 -70v-11q0 -7 -1 -9.5t-9 -10.5q-10 -10 -20 -10q-11 -5 -36 -15t-35 -15
q-17 -8 -20.5 -21t10.5 -29q17 -6 44 -30t37 -30v-21q0 -20 -11 -20q-10 -5 -35 -20t-35 -20q-16 -8 -16 -26t16 -25q15 -11 40 -25.5t41 -25.5v-20l-11 -9l-60 -61q-8 -7 -8 -20t8 -21q10 0 10 -10l91 -29v-11q5 -4 5 -9t-2.5 -11.5t-2.5 -9.5q-10 -11 -25.5 -30.5
t-25.5 -30.5q-8 -15 -1 -32.5t22 -17.5q15 -5 45 -10t46 -10h10q0 -5 4.5 -10t4.5 -10v-2q0 -9 -9 -18q-5 -10 -15.5 -35.5t-15.5 -35.5q-7 -15 -1 -28t22 -13h110q0 -9 10 -9v-10q-20 -62 -20 -91q-8 -16 3.5 -27t27.5 -3q32 0 90 20h10l10 -11q10 -9 0 -9v-91
q0 -31 31 -31h19q14 5 29 12.5t30.5 16.5t21.5 12h10q11 0 11 -10q4 0 6.5 -2.5t3.5 -5.5v-2q0 -16 5 -46t5 -45t17.5 -21.5t32.5 1.5q30 30 71 50h10q7 0 9 -1t10 -9q0 -10 11 -20q5 -11 15 -36t15 -35t11.5 -14t11 -4.5t17.5 -0.5l10 10q6 18 30 43.5t31 36.5h10
q5 0 10 -2.5t8 -4.5l3 -2q5 -11 19.5 -36t19.5 -35q15 -15 29.5 -17t21.5 7l10 10q10 15 25.5 39.5t25.5 40.5h30q4 0 6.5 -2.5t3.5 -4.5v-2q39 -39 50 -62q8 -8 20.5 -8t20.5 8v10q22 65 30 81l10 10h20q46 -15 81 -50q16 -8 33 -1.5t17 21.5t5.5 45t5.5 46q-2 10 9 10h10
q8 8 14 8t6 -8q23 -11 81 -31q16 -8 28 0.5t12 30.5v40zM465 510h765q60 0 91 10q96 33 141 91q51 51 51 121q0 63 -30 121q-32 48 -81 81q-20 20 -31 20q5 5 15.5 9.5t15.5 10.5q3 3 20.5 18t26.5 26.5t13 25.5q31 46 31 102q0 10 20 29q9 10 24 14.5t25.5 5.5t30.5 1
q30 0 50 -21q10 -9 15 -19t9 -22t7 -19v-50q0 -8 1.5 -9.5t8.5 -1.5h71v-131q-15 -5 -45.5 -19.5t-45.5 -19.5q-5 -6 -20 -11t-20 -10q-23 -7 -30.5 -28.5t-0.5 -52.5q45 -109 71 -151v-9q-26 -40 -42 -62.5t-43.5 -54.5t-55.5 -55q-150 -135 -363 -181h-10q-51 51 -101 90
q-15 15 -40 15t-41 -15l-90 -90h-10q-55 14 -101 29q-157 57 -283 182q-19 20 -19 30zM1604 1438h-303q-18 0 -25.5 -1.5t-14.5 -8.5q-51 -26 -71 -101q-1 -6 -5.5 -22.5t-6 -23.5t-4 -19.5t-3.5 -23t-1 -22.5q0 -22 -20 -60q-15 -38 -44.5 -59.5t-66.5 -21.5h-181v131h181
q7 0 8.5 1t1.5 9v202q0 7 -1.5 8.5t-8.5 1.5h-605q21 31 60 71h11q79 -21 120 -21q23 -7 43 4.5t28 35.5q5 20 15.5 65.5t15.5 65.5v10q52 20 82.5 30.5t75.5 20t83 9.5q75 11 212 -9q52 -10 151 -51v-10q6 -20 16 -65.5t15 -65.5q18 -53 70 -40l122 31h10q0 -31 40 -71z
M405 732l29 60q0 4 2.5 10t2.5 11.5t-5 9.5q0 9 -4 16t-14 15t-11 9q-74 38 -122 50q-9 0 -9 10v51q0 105 29 222q0 10 10 10h212v-474h-120zM837 873h233q39 0 60 -10l11.5 -8.5t18.5 -21.5q8 -14 6.5 -35t-16.5 -35q-30 -31 -70 -31h-253q10 50 10 141zM233 772
q0 23 18.5 42t41.5 19t41.5 -19t18.5 -42t-18.5 -41.5t-41.5 -18.5t-41.5 18.5t-18.5 41.5zM1513 1619q0 -23 -19 -41.5t-42 -18.5t-41.5 18.5t-18.5 41.5t18.5 42t41.5 19q25 0 43 -16t18 -45zM565 1559q-23 0 -41.5 18.5t-18.5 41.5t18.5 42t41.5 19t41.5 -19t18.5 -42
t-18.5 -41.5t-41.5 -18.5zM1070 238q0 -25 -16 -42.5t-45 -17.5q-25 0 -42.5 16t-17.5 44q0 25 16 42.5t44 17.5q40 0 61 -60zM1724 843q23 0 42 -19t19 -42t-19 -41.5t-42 -18.5t-41.5 18.5t-18.5 41.5q0 25 16 43t44 18z" />
</svg>
