<?xml version="1.0" standalone="no"?>
<!DOCTYPE svg PUBLIC "-//W3C//DTD SVG 1.1//EN" "http://www.w3.org/Graphics/SVG/1.1/DTD/svg11.dtd" >
<svg xmlns="http://www.w3.org/2000/svg" xmlns:xlink="http://www.w3.org/1999/xlink" version="1.1" width="2048" height="2048" viewBox="-11 0 2069 2048">
   <path fill="currentColor"
d="M567 296q85 13 159.5 52t123.5 103q21 -9 77 -50t94 -49q5 -1 21.5 -5.5t22 -5.5l22 -4t22.5 -2.5t23 0.5q104 -8 190 61q18 6 36.5 26t31.5 40.5t27.5 36.5t24.5 16q19 -9 40 -15t46.5 -8t40.5 -2.5t47.5 0t42.5 0.5q126 15 244 109q106 115 137 223q12 68 5 205
q-19 86 -65.5 163t-113.5 134q-25 19 -55.5 32.5t-75 27.5t-60.5 20h-168q-37 70 -124 128q-86 46 -169 39q-15 7 -31.5 2t-34.5 -11.5t-33 -12t-27.5 -0.5t-17.5 23q-2 4 -14.5 23t-16.5 24.5l-16 22t-18 23t-18 19t-22 18.5t-23 13t-27 11q-111 58 -239.5 30t-207.5 -125
q-16 -10 -30.5 -37t-26 -49.5t-24.5 -24.5q-88 2 -152.5 -8.5t-116.5 -47.5q-30 -26 -48.5 -43.5t-39.5 -47t-27 -56.5q8 -30 7 -47t-5.5 -46.5t-3.5 -47.5q-6 -67 19.5 -131.5t75.5 -111.5q4 -15 17 -28t26 -22t22.5 -19t7.5 -23.5t-19 -30.5q-6 -24 -7.5 -54.5t-0.5 -55.5
t0 -55q11 -97 67.5 -181t145.5 -133.5t187 -46.5q11 11 25 12z" />
</svg>
