<?xml version="1.0" standalone="no"?>
<!DOCTYPE svg PUBLIC "-//W3C//DTD SVG 1.1//EN" "http://www.w3.org/Graphics/SVG/1.1/DTD/svg11.dtd" >
<svg xmlns="http://www.w3.org/2000/svg" xmlns:xlink="http://www.w3.org/1999/xlink" version="1.1" width="2048" height="2048" viewBox="-10 0 2063 2048">
   <path fill="currentColor"
d="M2043 1124q0 14 -1 28t-3.5 30.5t-4 25t-6 30.5t-5.5 28h-1347q-67 0 -100 35t-33 98q0 54 37 83t106 29h1245q-122 230 -319.5 365t-456.5 165q-133 15 -265 -4t-248.5 -67t-220.5 -124t-184 -171.5t-135.5 -213t-78.5 -245.5q-27 -135 -15.5 -266.5t50.5 -251.5
t109.5 -227.5t161 -193.5t205.5 -149.5t244 -96.5q130 -31 259.5 -31t256 36t238 98t207 153.5t162.5 203.5q-21 10 -83 10h-663q-54 0 -88 34.5t-34 88.5t29 83t83 29h857q31 77 31 153h-1112q-70 0 -106.5 31t-36.5 92q0 54 37 83t106 29h1030q46 -16 92 0z" />
</svg>
