<?xml version="1.0" standalone="no"?>
<!DOCTYPE svg PUBLIC "-//W3C//DTD SVG 1.1//EN" "http://www.w3.org/Graphics/SVG/1.1/DTD/svg11.dtd" >
<svg xmlns="http://www.w3.org/2000/svg" xmlns:xlink="http://www.w3.org/1999/xlink" version="1.1" width="2048" height="2048" viewBox="-10 0 2058 2048">
   <path fill="currentColor"
d="M1661 0v478q-4 4 -8 10.5t-7 9.5t-8 3q-49 49 -125 68q-29 10 -59.5 18.5t-69.5 18t-59.5 14.5t-69.5 15.5t-60 13.5q-205 38 -535 79q-182 23 -273 46v-478q8 -8 16.5 -10t28.5 -2q264 -43 433 -56q32 -6 154.5 -24t175.5 -27t144 -30t163 -45q4 -1 19 -7t20.5 -8.5
t19 -8t20 -9.5t18.5 -10.5t19 -12t15.5 -13t15.5 -16t12 -17.5zM1661 637v478l-23 23q-16 13 -33 24t-40.5 22t-34 15.5t-41 16.5t-33.5 13q-182 45 -273 57q-57 11 -165 28t-165 29q-50 7 -146.5 18.5t-172.5 23t-147 26.5v-478q11 -11 34 -11q97 -12 290.5 -40.5
t289.5 -39.5q262 -37 489 -102q62 -21 101 -42.5t70 -60.5zM398 2048h-11v-478q11 -11 34 -11q68 -12 199 -29t199 -28q39 -6 131.5 -19t141 -21t123.5 -21t138.5 -29t125.5 -35q46 -15 70 -24.5t57.5 -30.5t54.5 -48v478q-5 10 -13.5 19t-22 19.5t-21.5 18.5
q-83 42 -216 80q-33 8 -71.5 16.5t-66 14t-75 14t-66.5 11.5t-75 12.5t-67 10.5q-296 46 -444 57q-13 0 -25 1t-26 4t-22.5 5t-26 6.5t-25.5 6.5z" />
</svg>
