<?xml version="1.0" standalone="no"?>
<!DOCTYPE svg PUBLIC "-//W3C//DTD SVG 1.1//EN" "http://www.w3.org/Graphics/SVG/1.1/DTD/svg11.dtd" >
<svg xmlns="http://www.w3.org/2000/svg" xmlns:xlink="http://www.w3.org/1999/xlink" version="1.1" width="2048" height="2048" viewBox="-10 0 2068 2048">
   <path fill="currentColor"
d="M0 876v-81q0 -87 31 -163q45 -170 158 -308.5t271.5 -220.5t334.5 -93h102q87 0 163 31q125 34 234 105.5t190 168.5t130.5 221t56.5 259q0 133 -10 193q-32 158 -102 286q0 10 -10 10q10 0 10 10l468 469l21 20v30q0 5 -5 15.5t-5 15.5q-21 41 -40 61l-83 82
q-6 5 -20.5 15t-22 15t-21 11t-28.5 10h-19q-10 0 -31 -21l-458 -458l-10 -10h-11q-222 149 -509 132q-61 0 -144 -20q-176 -46 -319.5 -162.5t-219.5 -276.5q-81 -164 -81 -315q-16 -15 -18.5 -19t-2.5 -12zM275 845q0 113 43.5 216.5t117.5 179.5t178.5 121t220.5 45
q113 0 216.5 -44t179 -118.5t120.5 -179t45 -220.5q0 -113 -43.5 -216t-118 -178.5t-179 -120.5t-220.5 -45q-113 0 -216 43.5t-179 118t-120.5 178.5t-44.5 220z" />
</svg>
