<?xml version="1.0" standalone="no"?>
<!DOCTYPE svg PUBLIC "-//W3C//DTD SVG 1.1//EN" "http://www.w3.org/Graphics/SVG/1.1/DTD/svg11.dtd" >
<svg xmlns="http://www.w3.org/2000/svg" xmlns:xlink="http://www.w3.org/1999/xlink" version="1.1" width="2048" height="2048" viewBox="-10 0 2068 2048">
   <path fill="currentColor"
d="M535 23q94 0 162 61.5t76 154.5v227q-8 94 -76 155.5t-162 61.5t-162.5 -61.5t-76.5 -155.5v-227q8 -93 76.5 -154.5t162.5 -61.5zM0 318q0 -34 23 -56.5t57 -22.5h148v227h-148q-34 0 -57 -22.5t-23 -56.5v-69zM1968 239q34 0 57 22.5t23 56.5v69q0 34 -23 56.5
t-57 22.5h-1115v-227h1115zM1513 694q94 0 162.5 61.5t76.5 155.5v226q-8 94 -76.5 155.5t-162.5 61.5t-162 -61.5t-76 -155.5v-226q8 -94 76 -155.5t162 -61.5zM0 990q0 -35 23 -57t57 -22h1115v226h-1115q-34 0 -57 -22t-23 -57v-68zM1968 911q34 0 57 22t23 57v68
q0 35 -23 57t-57 22h-148v-226h148zM910.5 1365q93.5 0 161.5 61.5t77 155.5v227q-9 93 -77 154.5t-161.5 61.5t-162 -61.5t-77.5 -154.5v-227q9 -94 77.5 -155.5t162 -61.5zM1968 1582q34 0 57 22.5t23 56.5v69q0 34 -23 56.5t-57 22.5h-750v-227h750zM0 1661
q0 -34 23 -56.5t57 -22.5h522v227h-522q-34 0 -57 -22.5t-23 -56.5v-69z" />
</svg>
