<?xml version="1.0" standalone="no"?>
<!DOCTYPE svg PUBLIC "-//W3C//DTD SVG 1.1//EN" "http://www.w3.org/Graphics/SVG/1.1/DTD/svg11.dtd" >
<svg xmlns="http://www.w3.org/2000/svg" xmlns:xlink="http://www.w3.org/1999/xlink" version="1.1" width="2048" height="2048" viewBox="-10 0 2058 2048">
   <path fill="currentColor"
d="M1015 1366h-196h-28.5t-19.5 -2t-15 -5.5t-9 -11.5t-7.5 -18.5t-4.5 -27.5q-43 -210 -140 -392q-44 -77 -93 -206q-56 -151 -29 -317q14 -109 78.5 -191.5t165.5 -125.5q317 -144 625 9q138 62 200 196.5t33 298.5q-12 95 -45.5 177t-94.5 196q-99 197 -121 345
q-13 63 -26.5 73.5t-76.5 10.5q-75 -9 -196 -9zM1006 2048h-224q-30 0 -43 -11t-13 -45q0 -16 -1 -41q-1 -54 10 -63t77 -9q16 1 26 1h401q33 0 44.5 13t11.5 43q0 77 -13 90t-89 13q-56 9 -187 9zM1015 1712h-233q-28 0 -37.5 -9t-9.5 -37v-26v-37.5t3.5 -23.5t6 -16
t14.5 -7t22 -3.5t35 0.5h22h401q56 0 56 56v23q0 25 0.5 34.5t-3.5 21.5t-6.5 15t-14.5 6.5t-22 3t-36 -0.5h-20h-178z" />
</svg>
