<?xml version="1.0" standalone="no"?>
<!DOCTYPE svg PUBLIC "-//W3C//DTD SVG 1.1//EN" "http://www.w3.org/Graphics/SVG/1.1/DTD/svg11.dtd" >
<svg xmlns="http://www.w3.org/2000/svg" xmlns:xlink="http://www.w3.org/1999/xlink" version="1.1" width="2048" height="2048" viewBox="-10 0 2058 2048">
   <path fill="currentColor"
d="M1853 132q34 92 59.5 169.5t50 165.5t39.5 170t24.5 168.5t8.5 175t-12 176.5q-51 389 -349 653q-156 122 -330.5 183.5t-357.5 53.5q-440 -18 -721 -349q-282 -333 -248 -755q17 -327 237 -563q218 -296 653 -372q392 -50 733 202q23 20 33.5 28.5t27 19.5t22.5 15.5
t18 6.5t15.5 1t13.5 -8.5t13.5 -13.5t13.5 -24t15.5 -30t18.5 -40q3 0 5 -1t4 -4t3.5 -6.5t4.5 -10t5 -11.5zM1764 785q-78 336 -417 620q-30 26 -63 49t-72 44t-68 35.5t-77.5 34t-72 28.5t-80 29.5t-74.5 27.5q-23 6 -68 22.5t-68 22.5q0 22 12 34q66 -3 233 -6t289 -11
t233 -29q224 -33 343.5 -159t162.5 -358q47 -275 -44 -598q-19 -57 -48.5 -164.5t-42.5 -150.5q-17 26 -26.5 35t-17.5 9q-72 112 -176 193.5t-242 144.5q-35 16 -77.5 28.5t-76.5 19.5t-85 13t-79.5 8t-86 5.5t-79.5 5.5q-120 9 -217.5 40t-176.5 94q-66 50 -113 125.5
t-66.5 156.5t-12 165.5t44.5 150.5q41 82 95 106t142 6q28 -5 84.5 -21.5t84.5 -22.5q171 -44 313 -104.5t271.5 -147.5t234.5 -207.5t184 -273.5zM400 1608q-33 0 -56 27.5t-23 62.5q0 33 27.5 56t63.5 23q33 0 55.5 -27.5t22.5 -63.5q0 -43 -20 -60.5t-70 -17.5z" />
</svg>
