<?xml version="1.0" standalone="no"?>
<!DOCTYPE svg PUBLIC "-//W3C//DTD SVG 1.1//EN" "http://www.w3.org/Graphics/SVG/1.1/DTD/svg11.dtd" >
<svg xmlns="http://www.w3.org/2000/svg" xmlns:xlink="http://www.w3.org/1999/xlink" version="1.1" width="2048" height="2048" viewBox="-10 0 2068 2048">
   <path fill="currentColor"
d="M297 26l-1 5h167l86 305l4 325l80 -46l374 1408l-952 -1398l131 -154l-186 -171zM1585 32v-7h166l297 275l-186 171l131 154l-951 1397l373 -1408l80 47l4 -325zM590 80l274 154q5 178 -5 189l-275 169zM1456 86l4 511l-271 -169q-5 -4 -6.5 -51.5t-0.5 -92.5l1 -45z
M1460 597v1v-1v0zM896 259v157h257v-157h-257zM1018.5 575q-28.5 0 -48.5 20.5t-20 49.5v1q0 28 20 48.5t48.5 20.5t48 -20.5t19.5 -48.5v-1q0 -29 -19.5 -49.5t-48 -20.5zM1018.5 1003q-28.5 0 -48.5 20.5t-20 49.5v1q0 29 20 49t48.5 20t48 -20t19.5 -49v-1
q0 -29 -19.5 -49.5t-48 -20.5zM1018.5 1432q-28.5 0 -48.5 20.5t-20 49.5v1q0 28 20 48.5t48.5 20.5t48 -20.5t19.5 -48.5v-1q0 -30 -19.5 -50t-48 -20z" />
</svg>
