<?xml version="1.0" standalone="no"?>
<!DOCTYPE svg PUBLIC "-//W3C//DTD SVG 1.1//EN" "http://www.w3.org/Graphics/SVG/1.1/DTD/svg11.dtd" >
<svg xmlns="http://www.w3.org/2000/svg" xmlns:xlink="http://www.w3.org/1999/xlink" version="1.1" width="2048" height="2048" viewBox="-10 0 2058 2048">
   <path fill="currentColor"
d="M453 395q47 -30 230.5 -147.5t284.5 -179.5q95 -51 206 -63.5t215.5 12t199.5 84t159 145.5q114 142 126 330t-89 341q65 120 66 261.5t-63.5 268t-182.5 199.5q-341 218 -513 326q-124 73 -273.5 76.5t-285 -59t-224.5 -175.5q-80 -92 -114 -212.5t-16.5 -245
t84.5 -224.5q-52 -93 -63 -203t16.5 -211t92.5 -189.5t158 -141.5q77 -49 231 -147.5t232 -148.5q-80 51 -238.5 152t-238.5 152zM1571 396q-54 -84 -148.5 -126.5t-197 -34t-182.5 67.5q-75 48 -226 144t-226 145q-65 37 -102.5 97t-46 126t7.5 135.5t52 126.5t95 99
t129 54q56 17 114.5 11t109.5 -27t99 -56q9 -5 70.5 -45.5t96.5 -55.5q36 -11 72.5 4.5t56.5 49.5t12 71q-6 31 -27 51.5t-59 42t-50 31.5l-386 246q-38 23 -69.5 18.5t-55 -29t-37 -55t-15.5 -58.5q-109 -30 -221 -114q-21 47 -26 98.5t6 98.5t33.5 92.5t56.5 81.5t75 66
t88 45.5t97 19.5t102 -12q44 -10 85 -31t94.5 -57t76.5 -49q55 -36 166 -106.5t166 -105.5q81 -48 121.5 -135t31.5 -182t-64 -169q-54 -83 -148.5 -126t-197 -34.5t-182.5 67.5q-21 13 -58 37.5t-68.5 43.5t-60.5 33q-37 10 -62.5 1t-44 -28t-25 -46t-3.5 -53t20.5 -49
t45.5 -33l451 -287q28 -20 60.5 -16.5t59 19t41 45.5t8.5 62q11 18 61.5 33t66.5 29q47 24 101 65q33 -83 23 -174t-63 -163z" />
</svg>
