<?xml version="1.0" standalone="no"?>
<!DOCTYPE svg PUBLIC "-//W3C//DTD SVG 1.1//EN" "http://www.w3.org/Graphics/SVG/1.1/DTD/svg11.dtd" >
<svg xmlns="http://www.w3.org/2000/svg" xmlns:xlink="http://www.w3.org/1999/xlink" version="1.1" width="2048" height="2048" viewBox="-10 0 2068 2048">
   <path fill="currentColor"
d="M369 620q0 -5 -5 -10.5t-5 -10.5q-11 -15 -36.5 -45.5t-36.5 -46.5q-36 -36 -56.5 -60.5t-34.5 -52.5q43 44 102 82q10 6 25.5 20.5t25.5 20.5q21 15 56.5 46t55.5 46q19 19 42 36.5t51.5 37t40.5 28.5q107 86 154 114q41 31 122.5 87t122.5 87v-11q-124 -144 -195 -215
q-82 -103 -122 -143q-16 -21 -51.5 -66.5t-50.5 -66.5q0 -5 -5 -10t-5 -11l-93 -123q-3 -6 -19 -29.5t-22 -41.5q25 20 71.5 66t72.5 67q26 25 82 76t82 77q20 16 61 52t61 51l123 92q15 10 41 30.5t41 31.5q175 128 348 245q8 8 14.5 6t6.5 -16q50 -125 50 -318
q0 -141 -50 -276q0 -20 -21 -82q-4 -10 -14.5 -32t-17.5 -35.5t-18 -32.5t-22 -33q-13 -55 -71 -112q0 -6 -5 -11t-5 -10q43 22 102 61q221 161 379 399q7 15 24 47t26.5 52t21.5 47.5t20 48.5q72 179 72 328v10q0 92 -10 133q-6 21 -11 61.5t-10 60.5q0 21 10 31
q122 151 154 338q10 31 10 103q0 51 -10 82q0 7 -1.5 8.5t-9.5 1.5q-4 0 -6.5 -2.5t-3.5 -5.5v-2q-70 -140 -195 -154q-30 -7 -59 -8t-57.5 4.5t-53 13.5t-54.5 21q-21 9 -66 32.5t-68 29.5q-214 92 -450 61q-176 -18 -307 -71h-11q-31 -16 -92 -41.5t-92 -41.5
q-299 -164 -502 -460l-10 -11q8 0 10.5 1.5t10.5 9.5q58 39 102 60q13 7 38.5 22t46 25.5t38.5 14.5q76 46 174 62q6 5 10.5 5t9.5 5q132 41 327 41q214 -17 369 -102q16 -8 16 -10.5t-16 -10.5q-32 -23 -65 -51t-74 -65.5t-65 -57.5q-25 -21 -71.5 -66.5t-72.5 -66.5
q-19 -14 -39 -35t-31 -35t-32 -42q-10 -16 -36 -41.5t-36 -41.5q-21 -20 -61.5 -66t-61.5 -67q-15 -20 -45.5 -55.5t-45.5 -56.5q0 -20 -31 -51z" />
</svg>
