<?xml version="1.0" standalone="no"?>
<!DOCTYPE svg PUBLIC "-//W3C//DTD SVG 1.1//EN" "http://www.w3.org/Graphics/SVG/1.1/DTD/svg11.dtd" >
<svg xmlns="http://www.w3.org/2000/svg" xmlns:xlink="http://www.w3.org/1999/xlink" version="1.1" width="2048" height="2048" viewBox="-10 0 2068 2048">
   <path fill="currentColor"
d="M1255 463h321v125h-26l115 142l107 -152l9 -8h-45v-107h276v115h-44q-22 0 -39.5 7t-25 12.5t-19.5 19.5t-14 15l-143 205l214 312q7 13 14 15t48 2h45v108h-321v-99h27l-133 -196l-134 196h44v108h-285v-108h45q45 0 71 -26l27 -26l161 -241l-188 -276q-7 -14 -14.5 -16
t-47.5 -2h-45v-125zM26 472h696l17 205h-107q-13 -60 -37 -74.5t-105 -14.5h-36v578h116v117h-392v-117h124v-578h-35q-38 0 -58 0.5t-39 7.5t-27 14.5t-16 29t-11.5 43.5t-8.5 65v45h-107zM606 783h623l26 286h-106q-3 -37 -5.5 -56t-8.5 -40.5t-15 -31t-25.5 -18.5
t-39.5 -12t-57 -3h-144v215h54q47 0 54.5 -10.5t7.5 -70.5v-44h108v364h-108v-44q0 -60 -7.5 -70t-54.5 -10h-54v249h153q86 0 118.5 -29.5t32.5 -103.5h116l-36 231h-632v-115h88v-571h-88v-116z" />
</svg>
