<?xml version="1.0" standalone="no"?>
<!DOCTYPE svg PUBLIC "-//W3C//DTD SVG 1.1//EN" "http://www.w3.org/Graphics/SVG/1.1/DTD/svg11.dtd" >
<svg xmlns="http://www.w3.org/2000/svg" xmlns:xlink="http://www.w3.org/1999/xlink" version="1.1" width="2048" height="2048" viewBox="-10 0 2068 2048">
   <path fill="currentColor"
d="M307 6h717h648q136 0 237.5 83t127.5 212q11 23 11 69v1297q0 138 -86 242.5t-221 121.5q-11 0 -34 5.5t-35 5.5h-1285q-170 0 -278.5 -106t-108.5 -269v-1286q0 -144 85 -246.5t222 -128.5zM376 313q-43 0 -61.5 18.5t-18.5 61.5q11 205 11 637v648q0 35 19 52t61 17
h1274q34 0 57 -23t23 -57v-1274q-9 -44 -29 -62t-63 -18h-1273zM1480 617q20 0 32.5 18t12.5 42q-5 8 -11 18.5t-9 16.5t-3 11q-36 46 -71.5 95t-85 120.5t-71.5 102.5q-17 23 -64 88.5t-69.5 96t-59.5 79.5t-68 89q-44 67 -103 62.5t-102 -73.5q-46 -69 -131 -194
t-131 -194q-23 -23 -23 -34q-8 -35 8 -57t50 -22q11 6 27.5 11.5t28.5 11.5q40 17 119.5 56.5t119.5 56.5q17 9 21.5 9t13.5 -9q53 -39 157 -117t185.5 -137t157.5 -110q13 -13 32.5 -21.5t23.5 -12.5q9 -3 13 -3z" />
</svg>
