<?xml version="1.0" standalone="no"?>
<!DOCTYPE svg PUBLIC "-//W3C//DTD SVG 1.1//EN" "http://www.w3.org/Graphics/SVG/1.1/DTD/svg11.dtd" >
<svg xmlns="http://www.w3.org/2000/svg" xmlns:xlink="http://www.w3.org/1999/xlink" version="1.1" width="2048" height="2048" viewBox="-11 0 2070 2048">
   <path fill="currentColor"
d="M130 1h1802q57 5 90 53.5t25 104.5q0 1181 -2 1772q-4 57 -52 90t-104 25h-1759q-39 0 -67 -17.5t-41.5 -47t-18.5 -62t-2 -66.5q0 -1158 1 -1737q5 -48 42 -81.5t86 -33.5zM1152 1071v-175h-703v175h251v783h199v-783h253zM1220 1862q105 49 225 55.5t231 -28.5
q83 -27 133 -102.5t45 -163.5q4 -54 -16.5 -104.5t-57 -89t-82 -67t-96.5 -45.5q-28 -9 -58 -25.5t-56.5 -40t-40.5 -48t-7.5 -52.5t39.5 -52q18 -13 41 -19.5t43.5 -8.5t47.5 1t45.5 6.5t46.5 12.5t41 13.5t39 14.5t31 12v-197q-83 -27 -164.5 -36t-169.5 6.5t-156 61.5
q-55 38 -83.5 101.5t-26 129t34 127.5t88.5 98q28 22 72.5 43t80 35.5t73.5 41t61 59.5q21 39 0 80.5t-64 50.5q-33 15 -71.5 16t-81 -12t-71 -24.5t-69.5 -32.5t-47 -24v207z" />
</svg>
