<?xml version="1.0" standalone="no"?>
<!DOCTYPE svg PUBLIC "-//W3C//DTD SVG 1.1//EN" "http://www.w3.org/Graphics/SVG/1.1/DTD/svg11.dtd" >
<svg xmlns="http://www.w3.org/2000/svg" xmlns:xlink="http://www.w3.org/1999/xlink" version="1.1" width="2048" height="2048" viewBox="-10 0 2058 2048">
   <path fill="currentColor"
d="M1152 698q134 0 257 31q10 5 25.5 10.5t25.5 10.5q44 22 71.5 54t36 68t4.5 72.5t-20 72.5q-6 18 -15 34t-22.5 32t-22.5 26t-28 27.5t-25 23.5q-37 33 -78 62t-104.5 69.5t-84.5 54.5q-24 17 -70 46t-82.5 54.5t-63.5 52.5q-10 11 -25.5 31t-25.5 31q-15 22 -17 51.5
t7 51.5q23 47 67 82.5t97 50.5q61 15 103.5 -17.5t50.5 -94.5v-41q0 -42 31 -73q54 -36 113 -51q108 -22 164 -10q21 0 31 10q37 15 48 38.5t3 63.5q-43 173 -184 298q-124 109 -278 124q-123 16 -246 -31q-201 -76 -338 -221.5t-206 -353.5q-45 -155 -2.5 -289t166.5 -234
q143 -131 400 -186q82 -20 124 -20q51 -11 113 -11zM1285 400q8 -114 60.5 -207t155.5 -152q123 -62 247 -31q68 15 94 54.5t18 109.5q-12 76 -71 155q-30 39 -48.5 62t-47 55t-58.5 55.5t-63 42.5q-65 49 -133 62q-47 8 -83 -10t-51 -62q-20 -62 -20 -134zM1141 226
q0 146 -71 246q-14 27 -41 41q-23 23 -52 23t-52 -23q-14 -14 -24.5 -31.5t-15 -29t-11.5 -31.5q-35 -124 -10 -225q15 -55 54.5 -84.5t100.5 -29.5q39 0 66.5 15.5t35.5 45.5q10 11 10 31q0 32 10 52zM720 441q0 35 -1 53.5t-8 45.5t-21 46q-16 39 -45.5 44.5t-68.5 -24.5
q-86 -71 -102 -185v-72q7 -47 42 -79.5t80 -32.5q56 0 84 41q40 54 40 133v30zM433 739.5q0 30.5 -21 71.5q-15 46 -61 31q-8 0 -10.5 -1.5t-10.5 -8.5q-59 -23 -101.5 -92.5t-42.5 -133.5q0 -36 24.5 -66t58.5 -47q46 -16 92 30q18 18 30.5 46t17.5 47t12 53q1 6 1 9
q11 31 11 61.5z" />
</svg>
