<?xml version="1.0" standalone="no"?>
<!DOCTYPE svg PUBLIC "-//W3C//DTD SVG 1.1//EN" "http://www.w3.org/Graphics/SVG/1.1/DTD/svg11.dtd" >
<svg xmlns="http://www.w3.org/2000/svg" xmlns:xlink="http://www.w3.org/1999/xlink" version="1.1" width="2048" height="2048" viewBox="-11 0 2070 2048">
   <path fill="currentColor"
d="M1024 2048q-137 0 -270 -37.5t-246 -104.5t-209 -164t-162.5 -211.5t-103 -250.5t-33.5 -279q3 -135 41 -263.5t103.5 -238.5t160 -203t207 -158t247 -101.5t276.5 -36.5q138 0 269.5 37.5t244 105t206.5 164t159.5 211t101 250.5t32.5 279q-3 135 -41.5 264t-105 238.5
t-161 202.5t-205.5 158t-242.5 101.5t-268.5 36.5zM660 387v1262h11l922 -614q9 -8 9 -9.5t-9 -1.5q-535 -358 -933 -614q8 -8 8 -15.5t-8 -7.5z" />
</svg>
