<?xml version="1.0" standalone="no"?>
<!DOCTYPE svg PUBLIC "-//W3C//DTD SVG 1.1//EN" "http://www.w3.org/Graphics/SVG/1.1/DTD/svg11.dtd" >
<svg xmlns="http://www.w3.org/2000/svg" xmlns:xlink="http://www.w3.org/1999/xlink" version="1.1" width="2048" height="2048" viewBox="-10 0 2069 2048">
   <path fill="currentColor"
d="M1002 32q13 0 21 14q9 12 11.5 58t2.5 192v231q-86 84 -250 188q-3 0 -37 -44t-49 -67q-49 -81 -69 -148q0 -3 -2 -10.5t-2.5 -9.5t-1.5 -8.5t-1 -9t-0.5 -8t-0.5 -9t0.5 -9t1.5 -10t2.5 -11t3.5 -12.5q11 -31 31 -61.5t50.5 -60.5t58 -53t70 -52t67 -44.5t68.5 -42.5
q12 -7 17 -10t7 -3h1zM599 422q7 0 17 42q14 62 42 110.5t130 188.5q4 5 10 14q118 160 134.5 192t-2.5 64l-2 4q-14 24 -34.5 24.5t-87.5 -20.5q-305 -95 -318 -115q-8 -13 -3.5 -55t17.5 -88q15 -55 43.5 -167.5t37.5 -154.5q9 -39 16 -39zM1534 479q16 0 18 5q2 7 -34 29
q-54 32 -91.5 73.5t-140.5 183.5q-5 7 -14 20q-113 156 -137.5 180.5t-59.5 16.5q-4 0 -5 -1q-19 -4 -27 -12.5t-11.5 -30t-4.5 -70.5q-3 -321 12 -340q9 -11 51 -20t90 -11q60 -2 175.5 -9.5t155.5 -12.5q7 -1 20 -1h3zM1623 496l-1 -1q39 0 85.5 16.5t83 36.5t87 57
t78 59.5t74.5 63.5q9 7 13 11l4 7q4 14 -6 24q-9 11 -53 28.5t-180 61.5l-222 71q-104 -55 -254 -178q-1 -4 30.5 -50.5t48.5 -66.5q58 -69 119 -110q3 -2 13 -7.5t12 -6.5l10 -5t12.5 -5t12 -3t15.5 -2.5t18 -0.5zM31 787q29 0 231 67l220 71q55 110 102 295
q-2 4 -54.5 22.5t-78.5 24.5q-84 22 -161 20q-3 -1 -13 -1.5t-12.5 -1t-10 -1.5t-11 -2t-10 -3.5t-11.5 -5t-11.5 -6.5t-13.5 -9q-26 -19 -49 -47.5t-42 -67t-32.5 -71.5t-28 -82.5t-21.5 -77.5t-19 -78q-3 -14 -5 -21q0 -5 1 -8q4 -14 20 -16q3 -1 10 -1zM1582 938v-1h3
q14 6 35.5 43t38.5 82q79 212 123 309q17 36 11 40q-3 2 -15 -5t-25 -19q-48 -42 -99.5 -65t-214.5 -76q-5 -1 -14 -4q-192 -61 -224.5 -77.5t-36.5 -53.5v-4q-4 -27 13 -39.5t83 -35.5q280 -94 322 -94zM889 1158l-1 1q10 0 18.5 4t12 8t13.5 15q19 19 13 39t-46 78
q-83 118 -140.5 191.5t-67.5 76.5q-14 3 -53.5 -14t-78.5 -44q-48 -32 -146.5 -94.5t-134.5 -82.5q-34 -19 -32 -27t46 -4q64 6 120 -5.5t218 -65.5q14 -5 41 -14q114 -37 156 -49.5t62 -12.5zM1100 1226q14 -1 29.5 14.5t49.5 59.5q86 114 138.5 192t51.5 89q-2 15 -30 47
t-65 61q-46 36 -135.5 110t-120.5 103q-28 26 -35 21q-7 -4 10 -44q25 -59 31.5 -115.5t5.5 -227.5q-1 -226 6 -259q5 -27 27 -38q2 -2 15 -7q13 -6 22 -6zM1468 1285l-1 -1q7 -1 58.5 14.5t76.5 25.5q83 33 143 79q1 2 7.5 7.5t7.5 6.5t6 5.5t6.5 6.5t5.5 6.5t5.5 7
l4.5 7.5t5 9.5t4.5 10.5t4.5 12q10 31 12 67.5t-5.5 78t-15.5 75.5t-25.5 82t-28 74.5t-29.5 73.5q-7 17 -10 25q-2 4 -6 6q-10 6 -24 1t-42.5 -40t-115.5 -154l-136 -188q19 -116 91 -298h1zM845 1571v0q90 0 158 4q3 3 4.5 59.5t-0.5 82.5q-8 94 -31 159q-1 3 -5 12t-5 11
l-4.5 9t-5.5 10t-6.5 8.5t-8.5 9t-9.5 8.5t-12.5 10q-32 23 -78.5 37t-88 19.5t-103.5 5t-97 -2.5t-98 -7q-12 -1 -19 -1q-1 0 -8 -4q-11 -7 -9 -23q0 -14 25.5 -54t110.5 -156l137 -187q74 -10 154 -10z" />
</svg>
