<?xml version="1.0" standalone="no"?>
<!DOCTYPE svg PUBLIC "-//W3C//DTD SVG 1.1//EN" "http://www.w3.org/Graphics/SVG/1.1/DTD/svg11.dtd" >
<svg xmlns="http://www.w3.org/2000/svg" xmlns:xlink="http://www.w3.org/1999/xlink" version="1.1" width="2048" height="2048" viewBox="-10 0 2068 2048">
   <path fill="currentColor"
d="M2048 558q0 8 -1.5 8t-8.5 -8v1188q0 10 -5.5 25.5t-5.5 25.5q0 31 -31 31q-10 10 -40 10h-748q-7 0 -8.5 1.5t-1.5 9.5v174h-92q-72 0 -103 -11q-157 -39 -255 -51q-41 -5 -123 -20.5t-123.5 -20.5t-128 -20.5t-127.5 -21t-123 -20t-123 -20.5v-1628h10q40 0 143 -21
q89 -13 226 -30q86 -21 225 -41q62 -21 205 -41q36 -5 107.5 -20.5t107.5 -20.5q10 0 25.5 -5.5t26.5 -5.5h143v185h747q36 0 59 24.5t23 57.5v266zM922 711q0 -9 8 -19t22 -10h-10q-46 9 -133 9q-5 0 -7.5 2.5t-2.5 4.5l-1 3q-5 36 -20 113t-20 113q-5 41 -20.5 123
t-20.5 123v-10q-34 -171 -93 -441q-8 -16 -11 -18.5t-19 -2.5h-103q-7 0 -8.5 1.5t-1.5 8.5q-15 62 -40.5 190t-40.5 189q0 11 -5.5 31.5t-5.5 30.5q-11 -82 -36.5 -229t-35.5 -212h-122v11q5 15 10 51t10 52q36 150 102 501q0 8 1.5 9.5t9.5 1.5q20 0 61 5t61 5q8 0 9 -1.5
t1 -8.5q0 -11 5.5 -36.5t5.5 -35.5l62 -307q0 -11 5 -31.5t5 -30.5q10 41 25.5 123t25.5 123q6 31 20.5 97.5t20.5 97.5q0 7 1 8.5t9 1.5h62q7 0 19 2.5t22 2.5t19 -5q11 0 11 -10q8 -35 24 -110.5t27 -115.5zM1976 292q0 -7 -1 -7t-9 17h-747q-8 0 -9.5 1.5t-1.5 9.5v153
h604q8 0 9 1.5t1 8.5v72q0 7 -1 8.5t-9 1.5h-593v124h603v91h-583q-7 0 -8.5 1.5t-1.5 8.5v92q0 8 1.5 9t8.5 1h583v93h-603v102q0 8 1 9t9 1h583q8 0 9 1.5t1 9.5v72q0 8 -1 9t-9 1h-593v112h603v92h-593q-8 0 -9 1.5t-1 8.5v93q0 8 1 9t9 1h583v92h-604v185h768v-1485z
" />
</svg>
