<?xml version="1.0" standalone="no"?>
<!DOCTYPE svg PUBLIC "-//W3C//DTD SVG 1.1//EN" "http://www.w3.org/Graphics/SVG/1.1/DTD/svg11.dtd" >
<svg xmlns="http://www.w3.org/2000/svg" xmlns:xlink="http://www.w3.org/1999/xlink" version="1.1" width="2048" height="2048" viewBox="-10 0 2068 2048">
   <path fill="currentColor"
d="M2048 324v1400q0 5 -5 15.5t-5 15.5q-16 23 -38 37t-45 14h-792v206q-16 -5 -52 -10t-51 -10q-37 -5 -113.5 -20.5t-112.5 -20.5q-41 -6 -123.5 -21t-124 -20.5t-124 -21t-123.5 -20.5q-36 -5 -113 -20.5t-113 -20.5q-20 -5 -56 -10.5t-57 -10.5v-1513q5 0 20.5 -5
t20.5 -5q90 -64 237 -83q40 -5 109.5 -20.5t95.5 -20.5q145 -24 196 -41q36 -5 113.5 -20.5t113.5 -20.5q41 -5 118 -20.5t118 -20.5h10v195h803q31 0 58 21t35 52v20zM1966 314h-814v124h279v175h-279v62h279v174h-279v62h279v175h-279v72h289v175h-289v61h279v175h-279
v124h814v-1379zM885 1497q0 -10 -10 -10q-36 -72 -113.5 -216t-113.5 -216v-21q99 -197 227 -421v-11h-10q-52 0 -72 11q-62 0 -103 10q-8 0 -9.5 1.5t-1.5 8.5q-15 31 -41 87.5t-41 87.5q-11 25 -31.5 71.5t-30.5 72.5q-5 -10 -10.5 -36t-10.5 -36q-15 -36 -46 -113
t-46 -113q-8 -15 -12 -18t-19 -3q-21 0 -61.5 5.5t-61.5 5.5h-41v10q5 10 15.5 35.5t15.5 35.5l153 309v11q-31 61 -97.5 184.5t-97.5 185.5q0 5 -5 10t-5 10h62q21 0 56.5 5.5t55.5 5.5q8 0 9.5 -1.5t1.5 -9.5q65 -130 92 -195q6 -15 21 -46t21 -46q0 -21 10 -31v10
q4 9 9.5 27.5t11.5 24.5q18 36 36 77.5t40 93.5t37 85q2 2 7 9t9.5 9.5t14.5 2.5q26 0 77.5 5t76.5 5q5 15 11 22t10 8t10 1zM1832 438v175h-319v-175h319zM1513 1590v-175h319v175h-319zM1513 1106v-175h319v175h-319zM1832 684v175h-319v-175h319zM1832 1179v175h-319
v-175h319z" />
</svg>
