<?xml version="1.0" standalone="no"?>
<!DOCTYPE svg PUBLIC "-//W3C//DTD SVG 1.1//EN" "http://www.w3.org/Graphics/SVG/1.1/DTD/svg11.dtd" >
<svg xmlns="http://www.w3.org/2000/svg" xmlns:xlink="http://www.w3.org/1999/xlink" version="1.1" width="2048" height="2048" viewBox="-10 0 2058 2048">
   <path fill="currentColor"
d="M566 1853q-30 -15 -45 -45q-9 -9 -12 -9t-11 9q-6 11 -11.5 34t-11.5 34q-25 85 -72.5 114.5t-133.5 11.5q-22 0 -68 -22q-69 -35 -34 -104q0 -5 5.5 -16.5t5.5 -17.5q-60 0 -79 -57q-45 -109 -30 -201t98 -175q3 -6 8 -15t7.5 -14t5 -12.5t2.5 -15.5q0 -124 27 -224
t99 -187q60 -81 136 -126q17 -9 19 -19t-7 -27q-62 -78 -80 -182q-4 -11 -2 -28.5t4 -28.5t8.5 -29t11 -28.5t12 -28.5t12.5 -29q22 -23 34 -23q20 -5 39 -15.5t43 -29t32 -23.5q113 -114 285 -114q16 0 25 -7t9 -16q17 -66 70 -137l34 -34q17 -18 38.5 -15.5t29.5 26.5
q15 26 29.5 54t29 59.5t21.5 46.5q15 31 34 12q19 -8 26.5 -11.5t19.5 -6.5t15.5 -4t10.5 2.5t9 6.5t7 13.5t7 18.5t7 27q87 365 -113 685q-6 11 -23 33.5t-23 34.5q-9 16 -7 28t18 29q77 68 127.5 159.5t67.5 194.5q9 59 9 125t-9 126q-8 32 0 38t34 -4q130 -37 228 -102
q8 -5 38 -22.5t40.5 -23t36 -18.5t41.5 -18.5t39 -12t45 -9.5q12 0 29.5 -2.5t32 -2.5t29.5 5q25 9 41.5 32t16.5 49q0 49 -58 68q-152 31 -309 148q-161 113 -376 172q-9 0 -23 7t-23 16q-16 12 -35.5 20t-32.5 11t-40.5 7.5t-39.5 6.5q-250 23 -365 23q-69 0 -115 -11
q-64 -22 -79 -69q-18 -69 34 -103q13 0 27 -6t18 -6z" />
</svg>
