<?xml version="1.0" standalone="no"?>
<!DOCTYPE svg PUBLIC "-//W3C//DTD SVG 1.1//EN" "http://www.w3.org/Graphics/SVG/1.1/DTD/svg11.dtd" >
<svg xmlns="http://www.w3.org/2000/svg" xmlns:xlink="http://www.w3.org/1999/xlink" version="1.1" width="2048" height="2048" viewBox="-10 0 2058 2048">
   <path fill="currentColor"
d="M1148 1377q-29 0 -67.5 5.5t-51.5 5.5h-195q22 -232 60 -691.5t60 -691.5q44 0 116.5 -2.5t127 -2.5t102.5 5q24 0 48 31t16 55q-14 111 -35 235.5t-51 285.5t-43 236q-8 61 -19.5 135t-19.5 120t-25 143.5t-23 130.5zM1191 1809q8 90 -57.5 160.5t-169.5 77.5
q-106 8 -190 -49t-91 -145q-8 -98 58 -164.5t180 -73.5q114 -8 188.5 45t81.5 149z" />
</svg>
