<?xml version="1.0" standalone="no"?>
<!DOCTYPE svg PUBLIC "-//W3C//DTD SVG 1.1//EN" "http://www.w3.org/Graphics/SVG/1.1/DTD/svg11.dtd" >
<svg xmlns="http://www.w3.org/2000/svg" xmlns:xlink="http://www.w3.org/1999/xlink" version="1.1" width="2048" height="2048" viewBox="-10 0 2068 2048">
   <path fill="currentColor"
d="M256.5 1466q-42.5 -74 -128 -221t-128.5 -221q85 -147 256.5 -442t256.5 -442h1025q47 81 230 395.5t280 486.5q-75 133 -157.5 276t-193.5 334.5t-160 275.5h-1024q-43 -74 -128.5 -221t-128 -221zM1060 1308q42 -5 79 -30.5t56.5 -62t22.5 -79.5t-23 -82
q-23 -31 -60 -53.5t-71 -34.5t-75.5 -31t-67.5 -42q-24 -53 14 -80t96 -21.5t89 34.5q21 17 50 -11q29 -26 22 -52q-6 -19 -36 -23q-42 -29 -96.5 -38.5t-106 0.5t-93.5 44t-57 86q-18 67 26.5 122t114.5 77q58 8 113 54q65 53 37 95q-14 21 -51 35q-27 15 -60.5 8
t-59.5 -22t-55.5 -25.5t-49.5 -2.5q-81 54 24 105q37 18 83 29q70 15 135 1zM364 1221q6 -8 8.5 -29.5t8.5 -35.5t21 -13q30 1 90.5 1h90.5q7 27 22 79.5t23 78.5q10 -1 22.5 0t26 1h25.5t21 -3t13.5 -8.5t2 -17t-13.5 -27.5q-39 -121 -174 -538h-128q-11 35 -83.5 255
t-106.5 336q18 -5 41.5 0.5t46 2t26.5 -23.5q2 -5 17 -58zM413 1053q46 -172 72 -257q2 21 12 52.5t20 59t19.5 59t9.5 51.5t-10 38q-98 0 -123 -3zM1380 1156q2 -155 -12 -322q63 213 102 310q34 11 55 -2t25 -48q25 -69 86 -269q-7 71 -9.5 146.5t-3.5 184t-2 146.5h98
v-593q-17 2 -39.5 1t-42.5 -3t-34.5 7.5t-16.5 32.5q-37 119 -83 274q-21 -59 -53.5 -170t-42.5 -142h-122v593q17 -1 33.5 0.5t34.5 0.5t27 -6v-141z" />
</svg>
