<?xml version="1.0" standalone="no"?>
<!DOCTYPE svg PUBLIC "-//W3C//DTD SVG 1.1//EN" "http://www.w3.org/Graphics/SVG/1.1/DTD/svg11.dtd" >
<svg xmlns="http://www.w3.org/2000/svg" xmlns:xlink="http://www.w3.org/1999/xlink" version="1.1" width="2048" height="2048" viewBox="-11 0 2070 2048">
   <path fill="currentColor"
d="M2015 14q20 2 28.5 16.5t1.5 36.5l-652 1812l-314 -898l295 -849q9 -25 33 -44t50 -21l546 -53h12zM735 1965l22 58q2 7 5 10q-20 -4 -29 -20t-1 -37zM45 14l546 53q26 2 50 21t32 44l657 1873q4 12 -2.5 20.5t-19.5 8.5h-534q-26 0 -51 -16.5t-33 -41.5l-687 -1909
q-8 -25 4 -40.5t38 -12.5z" />
</svg>
