<?xml version="1.0" standalone="no"?>
<!DOCTYPE svg PUBLIC "-//W3C//DTD SVG 1.1//EN" "http://www.w3.org/Graphics/SVG/1.1/DTD/svg11.dtd" >
<svg xmlns="http://www.w3.org/2000/svg" xmlns:xlink="http://www.w3.org/1999/xlink" version="1.1" width="2048" height="2048" viewBox="-10 0 2058 2048">
   <path fill="currentColor"
d="M936 0h-2l126 685h7l51 -415l306 29l-15 124l130 -225l244 183l-267 461q129 97 202.5 232.5t73.5 290.5q0 140 -61 266.5t-164.5 217.5t-245.5 145t-297 54t-297 -54t-245.5 -145t-164.5 -217.5t-61 -266.5q0 -195 115 -358t303 -249l-129 -699zM1024 746
q-144 0 -274.5 49.5t-224.5 132.5t-149.5 197.5t-55.5 240t55.5 239.5t149.5 197t224.5 132t274.5 49t274.5 -49t224.5 -132t149 -197t55 -239.5t-55 -240t-149 -197.5t-224.5 -132.5t-274.5 -49.5zM682 1110v2h1q65 0 113.5 65t55.5 161l1 27q0 104 -48.5 178.5
t-117.5 76.5h-4q-68 0 -117 -70.5t-53 -171.5v-14q0 -100 45 -173t111 -81h13zM1362 1110v2h1q66 0 114.5 65t55.5 161l1 27h-1q0 104 -48 178.5t-117 76.5h-5q-68 0 -117 -70.5t-52 -171.5v-14q0 -100 45 -173t110 -81h13zM628 1223h-4q-23 3 -37.5 27.5t-14.5 57.5v5
q1 34 17 57.5t39 23.5h2q23 -1 39 -26t16 -60v-9q-3 -32 -19 -54t-38 -22zM1308 1223h-4q-22 3 -37 27.5t-15 57.5q0 1 0.5 2.5t0.5 2.5q1 34 17 57.5t38 23.5h2q23 -1 39 -26t16 -60v-9q-2 -32 -18.5 -54t-38.5 -22z" />
</svg>
