<?xml version="1.0" standalone="no"?>
<!DOCTYPE svg PUBLIC "-//W3C//DTD SVG 1.1//EN" "http://www.w3.org/Graphics/SVG/1.1/DTD/svg11.dtd" >
<svg xmlns="http://www.w3.org/2000/svg" xmlns:xlink="http://www.w3.org/1999/xlink" version="1.1" width="2048" height="2048" viewBox="-10 0 2068 2048">
   <path fill="currentColor"
d="M1507 982q-40 107 -101 231.5t-102 195.5l-41 71h-173q8 -12 20 -32t31 -53.5t39 -72.5t43.5 -85.5t44 -95t40.5 -99t33.5 -100t22 -95t7.5 -87t-11 -73.5q-18 -52 -57.5 -115t-107.5 -160l174 3q146 205 260.5 467.5t221.5 597.5h-162q-100 -327 -182 -498zM2048 1024
q0 139 -37 272t-103 245t-160.5 206.5t-206.5 160.5t-245 103t-272 37t-272 -37t-245 -103t-206.5 -160.5t-160.5 -206.5t-103 -245t-37 -272t37 -272t103 -245t160.5 -206.5t206.5 -160.5t245 -103t272 -37t272 37t245 103t206.5 160.5t160.5 206.5t103 245t37 272z
M928 583h-178q-6 10 -17.5 28.5t-44 75t-62 112.5t-65 134t-59.5 147q-82 -171 -182 -498h-161q107 337 221.5 600t260.5 469l173 3q-121 -171 -163 -278q-22 -53 -4.5 -142.5t53 -187.5t83 -195.5t85.5 -166.5t60 -101zM1998 1024q0 -132 -35 -258.5t-98 -233t-153 -196.5
t-196.5 -153t-233 -98t-258.5 -35q-238 0 -447 109q102 -8 192.5 12.5t157.5 63.5t118.5 104t80 131.5t37 149t-5.5 154.5t-53 149t-101 131t-101.5 145.5t-47.5 189t28 202.5q24 66 71.5 127.5t113.5 111t154.5 75t182.5 15.5q175 -74 309 -207t209.5 -312t75.5 -377z" />
</svg>
