<?xml version="1.0" standalone="no"?>
<!DOCTYPE svg PUBLIC "-//W3C//DTD SVG 1.1//EN" "http://www.w3.org/Graphics/SVG/1.1/DTD/svg11.dtd" >
<svg xmlns="http://www.w3.org/2000/svg" xmlns:xlink="http://www.w3.org/1999/xlink" version="1.1" width="2048" height="2048" viewBox="-10 0 2058 2048">
   <path fill="currentColor"
d="M1671 1617h52q0 227 -73 329q-74 102 -185 102q-88 0 -172 -67q-81 -64 -148 -364l-124 -555l-426 966h-270l611 -1318q-47 -253 -117 -379q-68 -123 -169 -123q-82 0 -141 62q-61 62 -70 193h-51q5 -211 84 -336q80 -125 200 -127q78 0 146 63q70 64 121 217
q49 147 158 637l101 454q61 280 129 375q66 94 162 96q160 0 182 -225z" />
</svg>
