<?xml version="1.0" standalone="no"?>
<!DOCTYPE svg PUBLIC "-//W3C//DTD SVG 1.1//EN" "http://www.w3.org/Graphics/SVG/1.1/DTD/svg11.dtd" >
<svg xmlns="http://www.w3.org/2000/svg" xmlns:xlink="http://www.w3.org/1999/xlink" version="1.1" width="2048" height="2048" viewBox="-10 0 2068 2048">
   <path fill="currentColor"
d="M2008 933l-893 -893q-37 -40 -92.5 -40t-94.5 40l-185 184l236 236q39 -15 83 -5t78 44q32 31 41.5 75t-4.5 87l227 227q40 -14 84 -5.5t78 42.5q45 45 45 110.5t-45 110.5q-46 45 -111 45t-110 -45q-35 -34 -43.5 -81t8.5 -89l-212 -213v559q11 6 21 13t21 15
q46 46 46 111t-46 110q-45 49 -110.5 49t-110.5 -49q-48 -45 -48 -110t48 -111q11 -11 24 -19.5t27 -14.5v-561q-14 -6 -27 -14.5t-24 -20.5q-37 -34 -45.5 -82t11.5 -91l-233 -232l-612 615q-40 37 -40 92.5t40 92.5l893 893q37 40 92.5 40t94.5 -40l888 -888
q40 -39 40 -93t-40 -94z" />
</svg>
