<?xml version="1.0" standalone="no"?>
<!DOCTYPE svg PUBLIC "-//W3C//DTD SVG 1.1//EN" "http://www.w3.org/Graphics/SVG/1.1/DTD/svg11.dtd" >
<svg xmlns="http://www.w3.org/2000/svg" xmlns:xlink="http://www.w3.org/1999/xlink" version="1.1" width="2048" height="2048" viewBox="-10 0 2058 2048">
   <path fill="currentColor"
d="M1024 0q-189 0 -353.5 23t-288 64t-195 95.5t-71.5 118.5q0 15 18 126t42 257.5t49.5 296t43.5 243.5q5 44 62.5 92t154.5 89t233.5 68t304.5 27v0q168 0 304.5 -27t233.5 -68t154.5 -89t62.5 -92q18 -94 43.5 -243.5t49.5 -296t42 -257.5t18 -126q0 -64 -71.5 -118.5
t-195 -95.5t-288 -64t-353.5 -23zM1024 1298q-120 0 -204 -84t-84 -204t84 -204t204 -84t204 84t84 204t-84 204t-204 84zM1024 393q-242 0 -411.5 -37t-169.5 -88t170.5 -87t410.5 -36q242 0 411.5 37t169.5 88t-170.5 87t-410.5 36zM1677 1426q-10 0 -18 5l-8 5l-162 89
q-161 89 -465 89t-465 -89l-162 -89l-8 -5q-8 -5 -18 -5q-13 0 -23 9t-10 26q0 3 1 6l1 2q26 140 44 232t20 107q23 102 200.5 171t419.5 69v0q242 0 419.5 -69t200.5 -171q2 -15 20 -107t44 -232l1 -2q1 -3 1 -6q0 -17 -10 -26t-23 -9zM1190 1013q0 63 -46 109t-112 46
q-64 0 -110 -46t-46 -109q0 -67 46 -113t110 -46q66 0 112 46t46 113z" />
</svg>
