<?xml version="1.0" standalone="no"?>
<!DOCTYPE svg PUBLIC "-//W3C//DTD SVG 1.1//EN" "http://www.w3.org/Graphics/SVG/1.1/DTD/svg11.dtd" >
<svg xmlns="http://www.w3.org/2000/svg" xmlns:xlink="http://www.w3.org/1999/xlink" version="1.1" width="2048" height="2048" viewBox="-11 0 2069 2048">
   <path fill="currentColor"
d="M31 52q-40 40 -28.5 92.5t79.5 151.5q34 52 69.5 121.5t50.5 117.5q14 49 41 106t50 88q37 54 39.5 86.5t-22.5 132.5q-14 62 -20 132t3 115q11 83 62.5 177t93.5 108q34 11 74 -37t40 -105q0 -49 5.5 -51.5t25.5 31.5q37 59 122.5 151.5t93.5 84.5q3 -3 -18 -47
t-58 -101q-34 -57 -70 -122.5t-53 -99.5q-20 -57 -32.5 -65.5t-38.5 19.5q-14 15 -31 53.5t-23 80.5q-14 91 -44 101t-58 -70q-26 -76 -26 -195.5t26 -210.5q20 -63 15.5 -94.5t-35.5 -79.5q-23 -28 -50 -88t-44 -117q-20 -54 -54 -123.5t-68 -112.5q-74 -105 -74 -146.5
t79 -24.5q32 6 76 26t75 40q29 23 73 37t75 14q91 0 234.5 79.5t260.5 199.5q91 91 152 187.5t161 293.5q114 236 152.5 287t109.5 77q85 28 217.5 108t132.5 105q0 6 -38.5 16t-92.5 13q-145 17 -162 51t76 119q43 37 115.5 90t132.5 84l145 82l-68 -85q-29 -34 -80 -81
t-100 -75q-45 -29 -77.5 -56t-32.5 -33q0 -8 29.5 -19.5t69.5 -17.5q108 -20 146.5 -32.5t38.5 -29.5q0 -31 -145 -139.5t-239 -150.5q-77 -35 -114 -86t-139 -261q-91 -194 -149.5 -280.5t-175.5 -203.5q-147 -148 -261 -217.5t-245 -89.5q-45 -9 -98 -29t-81 -40
q-63 -48 -165.5 -62t-130.5 20z" />
</svg>
