<?xml version="1.0" standalone="no"?>
<!DOCTYPE svg PUBLIC "-//W3C//DTD SVG 1.1//EN" "http://www.w3.org/Graphics/SVG/1.1/DTD/svg11.dtd" >
<svg xmlns="http://www.w3.org/2000/svg" xmlns:xlink="http://www.w3.org/1999/xlink" version="1.1" width="2048" height="2048" viewBox="-10 0 2058 2048">
   <path fill="currentColor"
d="M1024 839q-196 0 -365.5 -33t-295.5 -89.5t-199 -132.5t-73 -164q0 -89 73 -166t199 -134t295.5 -88.5t365.5 -31.5t365.5 31.5t295.5 88.5t199 134t73 166q0 88 -73 164t-199 132.5t-295.5 89.5t-365.5 33zM1024 94q-149 0 -298 23.5t-269 66t-196 103.5t-76 133
q0 71 76 130.5t196 103.5t269 67.5t298 23.5t298 -23.5t269 -67.5t196 -103.5t76 -130.5q0 -72 -76 -133t-196 -103.5t-269 -66t-298 -23.5zM1024 1212q-196 0 -365.5 -33.5t-295.5 -90t-199 -132.5t-73 -164v-372q0 -20 14 -33.5t33 -13.5t33 13.5t14 33.5v372
q0 72 76 131.5t196 103.5t269 67.5t298 23.5t298 -23.5t269 -67.5t196 -103.5t76 -131.5v-372q0 -20 14 -33.5t33 -13.5t33 13.5t14 33.5v372q0 88 -73 164t-199 132.5t-295.5 90t-365.5 33.5zM1024 1631q-196 0 -365.5 -33t-295.5 -89.5t-199 -132.5t-73 -164v-420
q0 -19 14 -33t33 -14t33 14t14 33v420q0 71 76 130.5t196 102.5t269 67.5t298 24.5t298 -24.5t269 -67.5t196 -102.5t76 -130.5v-420q0 -19 14 -33t33 -14t33 14t14 33v420q0 88 -73 164t-199 132.5t-295.5 89.5t-365.5 33zM1024 2048q-196 0 -365.5 -31.5t-295.5 -88.5
t-199 -132.5t-73 -164.5v-419q0 -20 14 -33.5t33 -13.5t33 13.5t14 33.5v419q0 72 76 131.5t196 102t269 67.5t298 25t298 -25t269 -67.5t196 -102t76 -131.5v-419q0 -20 14 -33.5t33 -13.5t33 13.5t14 33.5v419q0 89 -73 164.5t-199 132.5t-295.5 88.5t-365.5 31.5z" />
</svg>
