<?xml version="1.0" standalone="no"?>
<!DOCTYPE svg PUBLIC "-//W3C//DTD SVG 1.1//EN" "http://www.w3.org/Graphics/SVG/1.1/DTD/svg11.dtd" >
<svg xmlns="http://www.w3.org/2000/svg" xmlns:xlink="http://www.w3.org/1999/xlink" version="1.1" width="2048" height="2048" viewBox="-10 0 2058 2048">
   <path fill="currentColor"
d="M1024 2048q-182 0 -341.5 -23t-279 -62.5t-189 -92t-69.5 -115.5v-138v-155q0 -17 10 -35.5t21 -35.5q37 45 117 86.5t190.5 70t248.5 45.5t292 17t292 -17t248.5 -45.5t190.5 -70t117 -86.5q11 17 21 35.5t10 35.5v135v158q0 63 -69.5 115.5t-189 92t-279 62.5
t-341.5 23zM1024 1462q-182 0 -341.5 -22.5t-279 -62.5t-189 -92.5t-69.5 -112.5v-141v-152q0 -11 4.5 -22.5t9.5 -23.5q3 -8 9 -15t8 -13q37 48 117 88t190.5 68.5t248.5 45.5t292 17t292 -17t248.5 -45.5t190.5 -68.5t117 -88q2 6 8 13t9 15q5 12 9.5 23.5t4.5 22.5v132
v161q0 60 -69.5 112.5t-189 92.5t-279 62.5t-341.5 22.5zM1024 879q-182 0 -341.5 -23t-279 -62.5t-189 -93.5t-69.5 -114v-71v-77v-70v-75q0 -60 69.5 -114t189 -93.5t279 -62.5t341.5 -23t341.5 23t279 62.5t189 93.5t69.5 114v71v74v71v77q0 60 -69.5 114t-189 93.5
t-279 62.5t-341.5 23zM1024 148q-242 0 -414 42.5t-172 102.5t172 102.5t414 42.5t414 -42.5t172 -102.5t-172 -102.5t-414 -42.5z" />
</svg>
