<?xml version="1.0" standalone="no"?>
<!DOCTYPE svg PUBLIC "-//W3C//DTD SVG 1.1//EN" "http://www.w3.org/Graphics/SVG/1.1/DTD/svg11.dtd" >
<svg xmlns="http://www.w3.org/2000/svg" xmlns:xlink="http://www.w3.org/1999/xlink" version="1.1" width="2048" height="2048" viewBox="-10 0 2068 2048">
   <path fill="currentColor"
d="M1381 1167q28 0 53.5 14t45.5 43q23 31 33 66.5t10 75.5q0 43 -10 78.5t-33 64.5q-20 31 -45.5 45.5t-53.5 14.5q-32 0 -57.5 -14.5t-48.5 -45.5q-20 -29 -31.5 -64.5t-11.5 -78.5q0 -40 11.5 -75.5t31.5 -66.5q23 -29 48.5 -43t57.5 -14zM1885 645q80 88 121.5 196.5
t41.5 236.5q0 83 -8.5 157t-28.5 140q-17 65 -41.5 118t-52.5 96q-32 40 -66 77t-77 65q-43 35 -82.5 56t-74.5 39q-37 14 -77 24t-85.5 18.5t-79.5 12.5t-60 7h-47h-53q-6 0 -26 1.5t-54 1.5q-34 3 -61 3h-50h-50q-27 0 -61 -3q-34 0 -54 -1.5t-26 -1.5h-53h-47
q-26 -3 -60 -7t-80 -13q-45 -5 -85 -16.5t-77 -25.5q-35 -15 -74.5 -37.5t-82.5 -57.5q-43 -28 -77 -65t-66 -77q-28 -43 -52.5 -96t-41.5 -118q-20 -66 -28.5 -140t-8.5 -157q0 -128 40 -236.5t123 -196.5q-9 -3 -9 -48.5t9 -128.5q5 -86 23.5 -164.5t47.5 -149.5
q103 11 229.5 69.5t278.5 164.5q51 -14 122.5 -21.5t159.5 -7.5q94 0 164 7.5t116 21.5q71 -49 136.5 -86t128.5 -68q65 -29 111 -44.5t74 -21.5l57 -14q32 71 50.5 149.5t23.5 164.5q9 83 9 128.5t-9 48.5zM1030 1791q185 0 323.5 -22.5t235.5 -65.5q94 -46 141 -137
t47 -231q0 -80 -30 -147t-90 -118q-31 -32 -66.5 -49t-78.5 -23q-40 -8 -103 -8t-148 8q-86 6 -143 9t-88 3q-43 0 -90 -1.5t-104 -7.5q-57 -3 -103 -5.5t-77 -5.5q-31 0 -67 4t-73 13q-37 8 -68.5 24t-56.5 39q-57 51 -87 116.5t-30 148.5q0 140 47 231t141 137
q94 43 232.5 65.5t323.5 22.5h12zM673 1167q29 0 53 14t47 43q20 31 31.5 66.5t11.5 75.5q0 43 -11.5 78.5t-31.5 64.5q-23 31 -47 45.5t-53 14.5q-31 0 -58 -14.5t-47 -45.5q-23 -29 -33 -64.5t-10 -78.5q0 -40 10 -75.5t33 -66.5q20 -29 47 -43t58 -14z" />
</svg>
