<?xml version="1.0" standalone="no"?>
<!DOCTYPE svg PUBLIC "-//W3C//DTD SVG 1.1//EN" "http://www.w3.org/Graphics/SVG/1.1/DTD/svg11.dtd" >
<svg xmlns="http://www.w3.org/2000/svg" xmlns:xlink="http://www.w3.org/1999/xlink" version="1.1" width="2048" height="2048" viewBox="-10 0 2068 2048">
   <path fill="currentColor"
d="M1024 25q-211 0 -398 80t-326.5 219.5t-219.5 326.5t-80 398q0 168 53 322t145.5 282.5t221 222.5t282.5 146q37 5 52.5 -13.5t15.5 -38.5v-71v-117q-214 46 -279 -38l-66 -85q-37 -88 -76 -118l-38 -30q-71 -48 -33 -56l39 -7q77 6 117 56l39 50q69 117 161.5 111
t138.5 -26q6 -51 24.5 -85t38.5 -52q-169 -19 -317 -116t-148 -391q0 -83 28.5 -151.5t76.5 -122.5q-8 -20 -19.5 -93t28.5 -178l68 3q69 3 214 102q63 -17 127 -25.5t130 -8.5t130 8.5t127 25.5q145 -99 214 -102l68 -3q40 105 28.5 178t-19.5 93q48 54 76.5 122.5
t28.5 151.5q0 296 -148 392t-320 113q29 25 49 72t20 119v179v100q0 23 15.5 40t55.5 12q151 -52 279.5 -147.5t221 -222.5t145.5 -281t53 -322q0 -211 -80 -398t-219.5 -326.5t-326.5 -219.5t-398 -80z" />
</svg>
