<?xml version="1.0" standalone="no"?>
<!DOCTYPE svg PUBLIC "-//W3C//DTD SVG 1.1//EN" "http://www.w3.org/Graphics/SVG/1.1/DTD/svg11.dtd" >
<svg xmlns="http://www.w3.org/2000/svg" xmlns:xlink="http://www.w3.org/1999/xlink" version="1.1" width="2048" height="2048" viewBox="-10 0 2068 2048">
   <path fill="currentColor"
d="M1024 2048q-212 0 -398.5 -80.5t-325.5 -219.5t-219.5 -325.5t-80.5 -398.5t80.5 -398.5t219.5 -325.5t325.5 -219.5t398.5 -80.5t398.5 80.5t325.5 219.5t219.5 325.5t80.5 398.5t-80.5 398.5t-219.5 325.5t-325.5 219.5t-398.5 80.5zM1024 227q-163 0 -309.5 63
t-254 172t-170.5 254t-63 308q0 166 63 311t170.5 252.5t254 170.5t309.5 63t309.5 -63t254 -170.5t170.5 -252.5t63 -311q0 -163 -63 -308t-170.5 -254t-254 -172t-309.5 -63zM1201.5 1096q14.5 0 27.5 7t24 21q9 15 15 33.5t6 38.5t-6 38.5t-15 33.5q-11 14 -24 21t-27 7
q-15 0 -29 -7t-23 -21q-11 -15 -17 -33.5t-6 -38.5q0 -23 6 -40t17 -32q9 -14 23 -21t28.5 -7zM1454 835q40 46 60.5 99t20.5 116q0 43 -4.5 80t-13.5 69q-8 32 -21 59t-27 47q-15 23 -32 40t-40 32q-20 17 -40 28.5t-38 17.5q-17 8 -37 14t-43 9q-23 5 -40 6.5t-29 1.5
q-11 0 -24 1.5t-27 1.5h-13h-28q-14 0 -28.5 1.5t-25.5 1.5t-25.5 -1.5t-28.5 -1.5h-28h-13h-27q-13 0 -24 -3q-12 0 -29 -1.5t-40 -6.5q-23 -3 -43 -9t-37 -14q-18 -6 -38 -17.5t-40 -28.5q-23 -15 -40 -33.5t-32 -38.5q-14 -20 -27 -47t-21 -59q-9 -32 -14.5 -69t-5.5 -80
q0 -63 21.5 -116t61.5 -99q-3 -3 -3 -24.5t3 -64.5t13 -82t24 -73q52 6 115 34.5t137 80.5q26 -6 60.5 -10.5t80.5 -4.5t82 4.5t59 10.5q34 -23 67 -42t64 -33q32 -14 55 -23t37 -11l29 -6q14 34 24 73t13 82t3 64.5t-3 24.5zM1027 1408q92 0 162 -11.5t116 -34.5
q49 -22 72 -66.5t23 -116.5q0 -37 -14.5 -71.5t-45.5 -60.5q-15 -14 -33.5 -23t-38.5 -14q-20 -3 -51.5 -3t-74.5 3q-43 5 -72 6.5t-43 1.5q-23 0 -46 -1.5t-52 -3.5q-28 -3 -49.5 -3t-39.5 -3q-17 0 -34 1.5t-34 6.5q-20 6 -36 13t-28 19q-28 26 -42.5 59t-14.5 73
q0 69 23 115t69 68q46 23 116 34.5t162 11.5h6zM849 1096q14 0 25.5 7t23 21.5t17.5 33t6 38.5t-6 38.5t-17 33.5q-12 14 -23.5 21t-25.5 7q-17 0 -30 -7t-24 -21q-9 -15 -15 -33.5t-6 -38.5q0 -23 6 -40t15 -32q11 -14 24 -21t30 -7z" />
</svg>
