<?xml version="1.0" standalone="no"?>
<!DOCTYPE svg PUBLIC "-//W3C//DTD SVG 1.1//EN" "http://www.w3.org/Graphics/SVG/1.1/DTD/svg11.dtd" >
<svg xmlns="http://www.w3.org/2000/svg" xmlns:xlink="http://www.w3.org/1999/xlink" version="1.1" width="2048" height="2048" viewBox="-10 0 2068 2048">
   <path fill="currentColor"
d="M0 1025q0 151 42.5 291t117.5 259t181.5 214t236.5 157l-490 -1340q-43 96 -65.5 201t-22.5 218zM1717 972q0 -94 -28.5 -162t-56.5 -119q-40 -65 -71 -121.5t-31 -119.5q0 -70 48 -125.5t124 -55.5h7h8q-136 -125 -314.5 -197t-377.5 -72q-136 0 -260.5 32.5
t-233.5 93.5t-201 146t-163 190h36h32q79 0 176 -6l96 -6q43 -2 45.5 39t-39.5 46l-36 3q-35 3 -80 6l373 1110l224 -674l-161 -436q-40 -3 -74 -6l-34 -3q-40 -2 -37 -44.5t46 -40.5l96 6q96 6 173 6q79 0 175 -6l97 -6q42 -2 45 39t-37 46l-35 3q-36 3 -84 6l371 1102
l102 -343q40 -99 60 -181t20 -150zM1042 1113l-308 895q70 20 142.5 30t148.5 10q88 0 173 -14t167 -43q-3 -2 -4 -6.5t-4 -7.5zM1923 533q3 25 4.5 50.5t1.5 53.5q0 80 -17 169t-59 200l-315 903q116 -65 209.5 -158.5t160 -208t103.5 -245t37 -272.5q0 -136 -32.5 -259
t-92.5 -233z" />
</svg>
