<?xml version="1.0" standalone="no"?>
<!DOCTYPE svg PUBLIC "-//W3C//DTD SVG 1.1//EN" "http://www.w3.org/Graphics/SVG/1.1/DTD/svg11.dtd" >
<svg xmlns="http://www.w3.org/2000/svg" xmlns:xlink="http://www.w3.org/1999/xlink" version="1.1" width="2048" height="2048" viewBox="-10 0 2058 2048">
   <path fill="currentColor"
d="M468 1808q-8 86 33.5 147t123.5 86q68 18 138 -10.5t102 -89.5q11 -18 106 -265t220 -577q211 -558 265 -687t82 -158q18 -21 30.5 -37.5t12.5 -19.5q0 -4 -12.5 -20t-30.5 -34q-75 -68 -218 -113t-218 -23q-11 0 -14.5 14.5t-3.5 49.5q0 51 -14.5 97.5t-61.5 171.5
q-14 36 -33.5 89.5t-34.5 93.5q-14 43 -32 91t-32 77q-14 32 -37.5 91t-41.5 113q-21 54 -55 141.5t-59 159.5q-29 72 -54 131t-36 69zM1349 71q82 33 118 68.5t3 50.5q-32 10 -141 -29t-149 -75q-14 -15 -16 -23.5t6 -19.5q14 -15 64 -7.5t115 35.5zM1170 208
q28 32 83.5 51.5t120.5 23.5q32 0 55 1.5t23 5.5l-5 9q-5 9 -12 16q-4 11 -29 68t-50 129q-43 107 -63 145t-48 66q-43 40 -107.5 75.5t-114.5 46.5q-22 7 -52.5 16t-48.5 20q-21 7 -37 12.5t-20 5.5q-7 0 20 -79t106 -279q25 -65 53.5 -142t46.5 -116q14 -43 28.5 -72
t17.5 -29q4 0 13 7.5t20 18.5zM1263 755q0 4 -66.5 176t-155.5 408q-147 383 -190 485.5t-68 123.5q-15 14 -31 25t-23 11q-11 0 -7.5 -3.5t18.5 -7.5q11 -7 19.5 -14t8.5 -18q0 -7 2 -14.5t9 -10.5q4 -4 9.5 -16.5t8.5 -26.5q0 -15 5.5 -29t8.5 -21q11 -22 38 -91.5
t27 -77.5q0 -3 5.5 -15.5t8.5 -27.5q7 -14 25 -58.5t36 -95.5q22 -50 41.5 -102t26.5 -77q11 -25 20 -44.5t12 -23.5q4 -7 7.5 -16t3.5 -16t3.5 -25t10.5 -32q26 -54 40 -88t25 -73q11 -25 18 -45t11 -31q10 -14 10 -32t-3 -18q-4 0 -14.5 5.5t-21.5 12.5q-22 11 -22 9
t22 -16q14 -11 35.5 -29t36.5 -32q25 -25 42.5 -34t7.5 5zM962 909q0 4 -3.5 7.5t-10.5 3.5q-18 0 -36 41.5t-18 76.5q3 15 -0.5 25.5t-6.5 10.5q-15 0 -36.5 52t-24.5 95q-4 36 -2 48.5t16 19.5q22 11 27 34t-9 41q-11 18 -37.5 21.5t-37.5 -6.5q-11 -22 -18 -11t-4 39
q4 29 2 38t-20 16q-14 7 -24.5 23t-21.5 41q-29 79 -54 143.5t-39 104.5q-7 21 -16 53t-13 54q-3 32 0.5 46.5t21.5 32.5l25 32l-36 -25q-25 -18 -52 -64.5t-27 -78.5q0 -8 21.5 -70.5t50.5 -141.5q28 -78 48 -139t20 -65q0 -7 23 -34t55 -59q33 -32 52.5 -55.5t12.5 -23.5
t-21.5 11t-28.5 25q-15 14 -25.5 19.5t-10.5 2.5q0 -25 53.5 -152.5t71.5 -148.5q18 -18 70 -55.5t63 -37.5v3v7z" />
</svg>
