<?xml version="1.0" standalone="no"?>
<!DOCTYPE svg PUBLIC "-//W3C//DTD SVG 1.1//EN" "http://www.w3.org/Graphics/SVG/1.1/DTD/svg11.dtd" >
<svg xmlns="http://www.w3.org/2000/svg" xmlns:xlink="http://www.w3.org/1999/xlink" version="1.1" width="2048" height="2048" viewBox="-10 0 2058 2048">
   <path fill="currentColor"
d="M410 1291q0 63 -38 107t-90 44t-89.5 -44t-37.5 -107v-489q0 -62 37.5 -106t89.5 -44t90 44t38 106v489zM1893 1291q0 63 -37.5 107t-89.5 44t-90 -44t-38 -107v-489q0 -62 38 -106t90 -44t89.5 44t37.5 106v489zM1302 180l81 -147q7 -10 6 -18.5t-10 -12.5
q-6 -4 -14.5 0t-12.5 13l-83 150q-57 -23 -119.5 -34.5t-127.5 -11.5q-67 0 -129.5 11.5t-119.5 34.5l-83 -150q-7 -9 -15 -13t-15 0q-6 4 -7 12.5t3 18.5l82 147q-128 60 -207.5 166.5t-79.5 236.5q0 15 1 27.5t4 24.5h1130q2 -12 3 -24.5t1 -27.5q0 -130 -79 -236.5
t-209 -166.5zM763 435q-21 0 -35.5 -15t-14.5 -35q0 -19 14.5 -34t35.5 -15t35.5 15t14.5 34q0 20 -14.5 35t-35.5 15zM1283 435q-21 0 -35.5 -15t-14.5 -35q0 -19 14.5 -34t35.5 -15q19 0 33.5 15t14.5 34q0 20 -14.5 35t-33.5 15zM451 685v834h2q5 53 47.5 89.5
t101.5 36.5h838q58 0 102 -36.5t48 -89.5v-834h-1139zM940 1640v260q0 60 -37.5 104t-89.5 44t-90 -44t-38 -104v-260h255zM1365 1640v260q0 60 -38 104t-90 44t-89.5 -44t-37.5 -104v-260h255z" />
</svg>
