<?xml version="1.0" standalone="no"?>
<!DOCTYPE svg PUBLIC "-//W3C//DTD SVG 1.1//EN" "http://www.w3.org/Graphics/SVG/1.1/DTD/svg11.dtd" >
<svg xmlns="http://www.w3.org/2000/svg" xmlns:xlink="http://www.w3.org/1999/xlink" version="1.1" width="2048" height="2048" viewBox="-10 0 2058 2048">
   <path fill="currentColor"
d="M223 1626v422h1331v-849l-70 10l-72 7l-7 350l-7 353h-1048v-718h-127v425zM452 1691v74h821v-151h-821v77zM464 1388l-7 74l814 90l17 -152l-814 -89zM526 1025l-20 75l792 213l40 -149l-792 -213zM695 603l-42 65l695 437l82 -129l-695 -437zM1087 211l-64 45l466 675
l127 -87l-467 -675zM1599 15l-75 12l149 807l152 -30l-149 -804z" />
</svg>
