<?xml version="1.0" standalone="no"?>
<!DOCTYPE svg PUBLIC "-//W3C//DTD SVG 1.1//EN" "http://www.w3.org/Graphics/SVG/1.1/DTD/svg11.dtd" >
<svg xmlns="http://www.w3.org/2000/svg" xmlns:xlink="http://www.w3.org/1999/xlink" version="1.1" width="2048" height="2048" viewBox="-10 0 2058 2048">
   <path fill="currentColor"
d="M1583 1087q-2 -194 106 -289.5t116 -100.5q-92 -132 -209 -167t-167 -35q-119 -12 -225 40t-168 52q-60 0 -149.5 -44.5t-186.5 -44.5q-132 2 -245 72t-180 186q-68 117 -80 258t12.5 280t78 268.5t118.5 226.5q65 92 144.5 176.5t178.5 82.5q100 -5 159.5 -45t176.5 -40
q120 0 178.5 41t160.5 41q104 -2 176.5 -80.5t136.5 -170.5q75 -109 107.5 -197.5t34.5 -96.5q-2 0 -136.5 -90.5t-137.5 -322.5zM1324.5 326q54.5 -65 86 -150.5t21.5 -175.5q-77 2 -162 46t-139 108q-50 58 -86 143.5t-24 172.5q87 8 168 -35.5t135.5 -108.5z" />
</svg>
