<?xml version="1.0" standalone="no"?>
<!DOCTYPE svg PUBLIC "-//W3C//DTD SVG 1.1//EN" "http://www.w3.org/Graphics/SVG/1.1/DTD/svg11.dtd" >
<svg xmlns="http://www.w3.org/2000/svg" xmlns:xlink="http://www.w3.org/1999/xlink" version="1.1" width="2048" height="2048" viewBox="-10 0 2058 2048">
   <path fill="currentColor"
d="M993 501q0 6 -3 6h-3h-7q-6 0 -8 -4.5t-6 -8.5l-3 -4t-3 -10q0 -4 1 -5t5 -1l14 6q5 6 9 11t4 10zM870 434q0 -27 -9 -41.5t-24 -14.5l-1 4t-5 4v13h21q0 10 3 17.5t3 17.5h12zM1109 399q8 0 14.5 9t12.5 26h13q-5 -6 -6 -11.5t-1 -9.5q0 -6 -1 -11t-5 -9q-6 -7 -11 -11
t-10 -4l-4 4t-10 4q0 4 4 6.5t4 6.5zM906 507h-8q-1 0 -1 -6q0 -5 1 -10t8 -11q10 0 14 -3l4 -3q7 0 8 3l1 3q0 6 -5.5 12t-15.5 15h-6zM831 501q-21 -11 -28 -26.5t-7 -40.5q0 -17 2 -27t12 -21q4 -10 13.5 -15t20 -5t17.5 5t18 15q4 15 8 30.5t4 30.5v14h6v-8q7 0 8 -9.5
t1 -30.5q0 -16 -2.5 -30.5t-12.5 -31.5q-10 -15 -21.5 -24t-32.5 -9q-14 0 -27.5 9t-20.5 24q-10 21 -13 38.5t-3 44.5q0 19 8 39.5t29 41.5q4 -6 9.5 -7t11.5 -7zM1678 1456q4 0 5.5 -2t1.5 -6q0 -11 -6.5 -24.5t-20.5 -27.5q-15 -15 -40 -25.5t-56 -14.5h-8h-4q-7 0 -8 -1
t-7 -1q-4 0 -12.5 -1t-14.5 -1q14 -48 20.5 -89.5t6.5 -78.5q0 -50 -10.5 -87.5t-29.5 -68.5q-20 -31 -42 -46.5t-47 -21.5q-4 6 -5 7t-1 7q25 11 49 30.5t38 50.5q17 35 22 67.5t5 67.5q0 29 -6 70.5t-27 95.5q-21 9 -39.5 27.5t-35.5 49.5q0 4 1 6t5 2l6 -4q5 -4 9 -12
q10 -11 16.5 -19t16.5 -16q17 -9 28.5 -13t25.5 -4q27 0 50 3t40 9q20 9 30.5 15t16.5 14q4 9 9.5 16t9.5 14q0 6 4 9zM1053 474q-4 -5 -5 -14t-1 -20q0 -20 2 -32.5t12 -29.5q11 -8 20 -13.5t20 -5.5q16 0 26.5 8.5t21.5 18.5q6 15 10 26.5t4 27.5q0 25 -10.5 40.5
t-30.5 20.5l4 3q4 3 10 3q11 0 17 4t16 10q5 -31 9 -54t4 -47q0 -32 -4 -52.5t-15 -35.5q-16 -16 -32 -21.5t-36 -5.5q-15 0 -30.5 4.5t-30.5 14.5q-10 17 -15 28t-5 26q0 27 5 48t15 41q5 0 10 3.5t9 3.5zM1136 582q-66 45 -118 67t-94 22q-35 0 -69.5 -14.5t-65.5 -39.5
q7 10 12 18.5t9 14.5l42 42q18 18 43 28.5t50 10.5q35 0 76.5 -19.5t93.5 -55.5l61 -39q10 -10 18.5 -21.5t8.5 -26.5q0 -6 -1 -10t-6 -4q-4 -11 -31 -25.5t-77 -28.5q-45 -21 -80.5 -30.5t-54.5 -9.5q-16 0 -41 9.5t-60 30.5q-32 20 -50.5 41t-18.5 40l4 5q4 5 9 15
q31 25 62 39.5t60 14.5q42 0 93.5 -21.5t116.5 -71.5v12q6 0 7 3zM1292 1952q19 38 53 56.5t76 18.5q10 0 19.5 -1t19.5 -5q11 0 20 -4t15 -8q5 -3 10 -7t9 -8q11 -4 14 -6t7 -4l116 -100q19 -17 41 -31.5t47 -26.5q20 -13 39 -21t29 -12q15 -5 26 -11t22 -14q4 -7 8 -17
t4 -21q0 -16 -8 -26.5t-19 -18.5q-10 -9 -20.5 -15t-20.5 -8q-9 -4 -20 -12.5t-26 -23.5q-10 -12 -19.5 -30.5t-15.5 -41.5l-6 -40q-5 -14 -7 -24.5t-8 -14.5v-3q0 -1 -6 -1q-4 0 -12.5 5t-14.5 13q-11 9 -21 18t-19 20q-6 10 -18.5 19.5t-22.5 17.5q-15 8 -29.5 13.5
t-24.5 5.5q-42 0 -65 -11.5t-37 -34.5q-10 -15 -16.5 -33.5t-10.5 -41.5q-10 -8 -17.5 -12t-15.5 -4q-27 0 -37.5 26t-10.5 80v209q0 7 -4 16t-4 26q-5 17 -6 34.5t-1 38.5l-12 74v2zM307 1915q48 8 103 22.5t116 37.5q62 21 99.5 32.5t51.5 11.5q35 0 64.5 -15.5
t54.5 -44.5q6 -11 6 -22v-26q0 -48 -29 -108t-85 -135l-48 -60q-7 -11 -16 -25.5t-20 -35.5q-10 -18 -19.5 -33.5t-17.5 -26.5q-6 -12 -16.5 -23.5t-24.5 -24.5q-13 -10 -28.5 -18.5t-32.5 -12.5q-21 4 -35.5 11.5t-22.5 17.5q-6 9 -10 20t-4 22q-3 10 -6 17.5t-9 11.5
q-4 2 -12.5 5t-20.5 5h-7h-12h-19q-27 0 -44.5 3.5t-27.5 7.5q-13 16 -19 33t-6 33q0 9 2 22.5t6 33.5q4 19 6 33.5t2 24.5q0 21 -6 42t-19 42q-14 22 -20.5 39t-6.5 27q7 21 40 34.5t93 21.5zM534 1298q0 -33 9.5 -72.5t27.5 -85.5q19 -45 36.5 -76.5t36.5 -51.5
q0 -7 -3 -8t-7 -1l-7 -6q-14 17 -32 51t-40 84q-21 48 -32.5 88.5t-11.5 71.5q0 23 6 42.5t15 36.5q12 16 39 41t69 56l72 46q59 50 88 85.5t29 53.5q0 13 -5.5 23.5t-21.5 22.5q-11 13 -23.5 18t-22.5 5q-2 0 -2 1v5l5 11q5 10 16 29q21 29 65.5 43.5t104.5 14.5
q112 0 199.5 -46t153.5 -137q0 -25 -1 -41.5t-7 -22.5v-25q0 -34 5 -58.5t16 -41.5q10 -15 21.5 -23t25.5 -8q11 0 21.5 4t20.5 10q4 -39 5 -73.5t1 -63.5q0 -48 -2 -86t-12 -74q-5 -31 -14 -56t-20 -45q-10 -17 -20.5 -31.5t-20.5 -31.5q-8 -14 -15.5 -29.5t-17.5 -30.5
q-5 -21 -9 -38.5t-4 -42.5q-16 -25 -27.5 -51t-28.5 -51q-8 -25 -18.5 -50t-20.5 -45l-61 47q-52 36 -93.5 52.5t-76.5 16.5q-31 0 -55 -7.5t-40 -27.5l-40 -34q0 15 -5 34.5t-16 40.5l-43 81q-15 36 -22 57.5t-9 38.5q-3 10 -4 18.5t-3 8.5l-50 102q-41 76 -62 146t-21 128
q0 10 1 22.5t4 24.5q-23 -16 -34.5 -38t-11.5 -51zM1020 1940q-67 0 -117.5 9.5t-86.5 25.5v-2q-25 31 -55 47t-69 16q-25 0 -64.5 -9.5t-91.5 -30.5q-54 -17 -101 -31.5t-88 -22.5q-4 -2 -13.5 -4t-24 -4t-28 -4t-24 -4.5t-23 -6.5t-26.5 -8q-13 -4 -22 -9.5t-18 -11.5
q-6 -6 -10 -13.5t-4 -15.5t2 -16.5t6 -18.5q2 -4 5 -9.5t7.5 -11.5t7.5 -11.5t5 -9.5t4 -9t4 -9l4 -10t5 -11q0 -4 1 -9.5t1 -9.5q0 -6 -2.5 -21.5t-6.5 -42.5t-6 -44t-2 -23q0 -23 5 -40.5t16 -29.5q12 -13 22.5 -19t22.5 -6h77q4 0 11.5 -3.5t19.5 -9.5q3 -8 6 -14.5
t5 -12.5t4 -11t2 -8q2 -2 3 -5t1 -5q2 -4 5.5 -8t5.5 -9q-5 -4 -7 -10t-2 -14v-12q0 -5 2 -7q0 -19 8.5 -45t27.5 -59l25 -44q14 -27 25.5 -48.5t19.5 -42.5q9 -19 18 -50t20 -70q6 -38 25.5 -73t51.5 -71l49 -60q27 -31 45 -57t26 -45q10 -21 15.5 -44.5t5.5 -44.5
q0 -10 -3 -40.5t-8 -80.5q-6 -52 -8 -101.5t-2 -95.5q0 -35 3 -62t10 -54q6 -25 18.5 -49t28.5 -45q15 -20 36.5 -39t51.5 -29q31 -11 66 -16t77 -5q14 0 30 1t30 7q17 0 36.5 4.5t44.5 14.5q21 10 40.5 21.5t34.5 26.5q21 16 37.5 39t30.5 50q11 29 20 61.5t14 73.5
q6 25 7 52t7 62q0 31 3 52t3 38q5 14 7 35t8 46q4 20 10.5 40t16.5 34q8 21 19.5 41t26.5 40q16 25 36 52t38 56q46 52 81.5 107t56.5 112q24 49 39 113.5t15 135.5q0 35 -5.5 69.5t-15.5 67.5q10 0 16.5 3t10.5 11q4 7 9 22.5t12 40.5l6 50q4 10 11 20.5t22 20.5
q10 8 21.5 15.5t26.5 13.5q10 6 23.5 13.5t24.5 15.5q10 11 15 21t5 23q0 17 -5 29t-15 23q-11 10 -21.5 17.5t-26.5 11.5q-11 4 -30.5 14.5t-50.5 24.5q-25 15 -51 33.5t-51 39.5l-69 58q-18 19 -38 33.5t-34 22.5q-17 11 -36.5 15t-38.5 4l-48 -6q-41 -11 -67 -31.5
t-41 -49.5q-83 -11 -147.5 -16t-103.5 -5z" />
</svg>
