<?xml version="1.0" standalone="no"?>
<!DOCTYPE svg PUBLIC "-//W3C//DTD SVG 1.1//EN" "http://www.w3.org/Graphics/SVG/1.1/DTD/svg11.dtd" >
<svg xmlns="http://www.w3.org/2000/svg" xmlns:xlink="http://www.w3.org/1999/xlink" version="1.1" width="2048" height="2048" viewBox="-10 0 2068 2048">
   <path fill="currentColor"
d="M840 991l176 -303q8 -17 4 -36.5t-21 -28.5l-125 -71q-17 -11 -35.5 -5.5t-29.5 22.5l-571 996q-9 17 -4.5 35.5t21.5 29.5l124 71q17 8 35.5 4t29.5 -21zM2006 897h-416q37 71 69.5 133.5t54.5 107.5q17 31 30 55t15 33q6 8 10.5 16.5t4.5 19.5h232q17 0 29.5 -12.5
t12.5 -29.5v-277q0 -20 -12.5 -33t-29.5 -13zM993 897l-209 365h565q-31 -62 -72 -149.5t-97 -215.5h-187zM520 897h-478q-19 0 -30.5 13t-11.5 33v277q0 17 11.5 29.5t30.5 12.5h272zM339 1755l-124 -71q-17 -9 -31 -3t-17 25l-20 187q-3 20 7 25.5t27 -5.5l158 -108
q17 -11 17 -25t-17 -25zM1686 1265l-1 -1l-2 -2q-8 -17 -29.5 -56.5t-49.5 -93.5v0q-3 -5 -4.5 -9.5t-4 -7t-4 -7t-1.5 -7.5q-3 -3 -4.5 -5.5t-1.5 -5.5q-3 -3 -5.5 -8.5t-5.5 -8.5q0 -3 -1.5 -4.5t-1.5 -3.5q-3 -3 -6 -9t-5 -11q-3 -3 -3 -4.5t-3 -4.5
q-65 -121 -138.5 -257t-124.5 -215q-88 -139 -187 -315.5t-133 -159.5q-22 11 -4 81.5t55 161t78 182.5t64 149q25 56 77.5 175t109 242t106 219.5t66.5 104.5q37 17 56.5 12.5t45.5 -15.5q25 -11 55 -42t7 -74zM1827 1559l-59 -113q-11 -20 -31 -27t-40 5l-70 36
q-17 9 -23 28.5t6 39.5l73 116q11 20 32.5 24.5t41.5 -7.5l51 -28q17 -11 22.5 -32.5t-3.5 -41.5zM1808 1723q-15 12 -32 43t23 88q40 56 107.5 73t79.5 54l-9 -176q-8 -175 -169 -82z" />
</svg>
