<?xml version="1.0" standalone="no"?>
<!DOCTYPE svg PUBLIC "-//W3C//DTD SVG 1.1//EN" "http://www.w3.org/Graphics/SVG/1.1/DTD/svg11.dtd" >
<svg xmlns="http://www.w3.org/2000/svg" xmlns:xlink="http://www.w3.org/1999/xlink" version="1.1" width="2048" height="2048" viewBox="-10 0 2068 2048">
   <path fill="currentColor"
d="M489 837v0q-13 4 -23 4t-20 -4q-39 93 -80.5 194t-80.5 180v0q18 -4 34.5 -3t26.5 3v0q10 -24 21.5 -52.5t23.5 -57.5h76h77q12 29 22 56.5t22 53.5v0q17 -4 33 -3t28 3v0q-28 -53 -76 -168t-84 -206zM533 1075q-32 2 -65.5 2t-66.5 -2q20 -51 37.5 -98t27.5 -75
q16 43 33.5 86.5t33.5 86.5v0zM285 1211v0v0zM375 786v0q-17 4 -32 4t-32 -4q-12 26 -52.5 92.5t-71.5 116.5q-32 -52 -65.5 -108t-58.5 -101q-20 4 -32.5 5t-30.5 -5q39 59 89.5 147.5t71.5 125.5l-4 201l11 -1q11 -1 19 -1q10 0 21 1l10 1l-4 -201q38 -68 91 -158.5
t70 -114.5zM1217 831q-99 0 -150 56t-51 137q0 90 54 141.5t147 51.5q102 0 153 -55t51 -136q0 -92 -55 -143.5t-149 -51.5zM1217 1195q-65 0 -102.5 -45t-37.5 -124q0 -92 41.5 -131.5t96.5 -39.5h1h1q61 0 101 41.5t40 127.5q0 88 -40 129.5t-101 41.5zM1950.5 1201
q-14.5 0 -21.5 10t-7 23q0 14 9 21t23 7q11 0 20 -7t9 -23q0 -15 -9 -23t-23.5 -8zM2022 792v0h-3h-4q-10 0 -20 7t-10 23q-6 86 -13 169.5t-20 164.5v0v0q6 0 12.5 1t10.5 3q14 -81 37.5 -183t31.5 -136q2 -6 3 -11.5t1 -9.5q0 -12 -7 -19t-19 -9zM1675 808
q-97 0 -164.5 55t-67.5 161q0 86 54 151t180 65q106 0 170.5 -56t64.5 -158q0 -98 -62.5 -158t-174.5 -60zM1675 1217q-67 0 -119 -43.5t-52 -151.5q0 -110 56 -149.5t115 -39.5q76 0 124.5 46.5t48.5 146.5q0 108 -54.5 149.5t-118.5 41.5zM934 837q2 43 4.5 86.5t2.5 88.5
q-53 2 -106 2t-104 -2q0 -45 1 -88.5t3 -86.5q-14 4 -30.5 4t-32.5 -4q4 93 4 187t-4 187q16 -4 31.5 -4t31.5 4v0q-2 -42 -3 -86t-1 -87q51 -2 104 -2h106q0 45 -2.5 89t-4.5 86v0q17 -4 33 -4t31 4q-5 -93 -5 -187t5 -187q-17 4 -32 4t-32 -4z" />
</svg>
