<?xml version="1.0" standalone="no"?>
<!DOCTYPE svg PUBLIC "-//W3C//DTD SVG 1.1//EN" "http://www.w3.org/Graphics/SVG/1.1/DTD/svg11.dtd" >
<svg xmlns="http://www.w3.org/2000/svg" xmlns:xlink="http://www.w3.org/1999/xlink" version="1.1" width="2048" height="2048" viewBox="-10 0 2068 2048">
   <path fill="currentColor"
d="M2048 697q0 -3 -1.5 -4.5t-1.5 -4.5v-1v-1q0 -3 -1 -5l-2 -1q0 -3 -1.5 -3t-1.5 -3l-1 -1q-1 -2 -1 -5v-1q0 -1 -3 -1q0 -3 -2 -5l-1 -1q0 -3 -1.5 -3t-1.5 -3l-1 -1q-2 -2 -5 -2q0 -2 -1 -2h-1q0 -3 -1.5 -4.5t-4.5 -1.5l-2 -2l-1 -1h-3l-936 -626q-22 -14 -48 -14
t-48 14l-936 626h-3l-1 1l-2 2q-3 0 -4.5 1.5t-1.5 4.5h-1q-1 0 -1 2q-3 0 -5 2l-1 1q0 3 -1.5 3t-1.5 3l-1 1q-2 2 -2 5q-3 0 -3 1v1q0 3 -1 5l-1 1q0 3 -1.5 3t-1.5 3l-2 1q-1 2 -1 5v1v1q0 3 -1.5 4.5t-1.5 4.5v1v2v5v6v626v6v5v2v1q0 3 1.5 4.5t1.5 4.5v1v1q0 3 1.5 4.5
t1.5 4.5l1 1l2 2q0 3 1 4l1 2v2l3 3l2 2q1 1 1 4l1 1l2 2l1 1q2 2 5 4h1q1 0 1 3l2 2q1 1 4 1l2 2l1 1v1q0 2 3 2l936 623q11 8 24 11t24 3t24 -3t24 -11l936 -623q3 0 3 -2v-1l1 -1l2 -2q3 0 4 -1l2 -2q0 -3 1 -3h1q3 -2 5 -4l1 -1l2 -2l1 -1q0 -3 1 -4l2 -2l3 -3v-2l1 -2
q1 -1 1 -4l2 -2l1 -1q0 -3 1.5 -4.5t1.5 -4.5v-1v-1q0 -3 1.5 -4.5t1.5 -4.5v-1v-2v-5v-6v-626v-6v-5v-2v-1zM1024 1232l-310 -208l310 -208l313 208zM936 663l-381 256l-310 -208l691 -458v410zM395 1024l-219 148v-296zM555 1129l381 256v413l-691 -461zM1112 1385
l381 -256l310 208l-691 461v-413zM1653 1024l219 -148v296zM1493 919l-381 -256v-410l691 458z" />
</svg>
