<?xml version="1.0" standalone="no"?>
<!DOCTYPE svg PUBLIC "-//W3C//DTD SVG 1.1//EN" "http://www.w3.org/Graphics/SVG/1.1/DTD/svg11.dtd" >
<svg xmlns="http://www.w3.org/2000/svg" xmlns:xlink="http://www.w3.org/1999/xlink" version="1.1" width="2048" height="2048" viewBox="-10 0 2068 2048">
   <path fill="currentColor"
d="M397 982h-173q-4 0 -6 3t-2 5v86q0 4 2 6t6 2h67v104l-13 3t-44 3q-37 0 -77.5 -28.5t-40.5 -140.5q0 -114 44 -143.5t94 -29.5q45 0 66.5 6t33.5 10q4 0 7 -2t3 -6l19 -81v-4q0 -2 -2 -2q-6 -4 -39 -15.5t-108 -11.5q-85 0 -159.5 54t-74.5 231q0 175 82.5 223t167.5 48
q72 0 111 -20l40 -21q2 -2 3 -4l1 -2v-265q0 -2 -3 -5t-5 -3zM1270 764h-97q-2 0 -5.5 3.5t-3.5 5.5v189h-150v-189q0 -2 -2 -5.5t-6 -3.5h-98q-4 0 -6 3.5t-2 5.5v511q0 2 2 4t6 2h98q4 0 6 -2t2 -4v-218h150v218q0 2 2.5 4t6.5 2h97q4 0 6 -2t2 -4v-511q0 -2 -2 -5.5
t-6 -3.5zM513 777q-26 0 -44.5 18t-18.5 45q0 26 18.5 44.5t44.5 18.5t44.5 -18.5t18.5 -44.5q0 -27 -18.5 -45t-44.5 -18zM568 940q0 -3 -2 -6t-6 -3h-96q-4 0 -6 3t-2 8v147v188q0 9 4 11t10 2h26h60q8 0 10 -3t2 -10v-52v-49v-123v-113zM1647 933h-96q-4 0 -6 2t-2 7v248
l-17 9q-17 9 -42 9q-26 0 -35.5 -12t-9.5 -37v-122v-95q0 -5 -2 -7t-6 -2h-98q-4 0 -6 2t-2 7v78v156q0 75 38 100.5t97 25.5q46 0 80 -18l34 -19l2 10q2 11 2 13l2 2q2 2 6 2h61q4 0 6 -3t2 -5v-342q0 -5 -2 -7t-6 -2zM1911.5 921q-40.5 0 -66.5 12l-25 13v-173
q0 -2 -3 -5.5t-5 -3.5h-98q-4 0 -6 3.5t-2 5.5v511q0 2 2 5t6 3h34h33q2 0 4 -2l4 -4q0 -2 2 -13l3 -10l28 19q29 18 86 18q67 0 103.5 -42t36.5 -160t-48 -147.5t-88.5 -29.5zM1873 1208q-25 0 -40 -8l-15 -8v-161l14 -7q14 -7 35 -9q26 -2 47.5 13t21.5 76q0 66 -14 86
t-49 18zM849 1206q-2 0 -9 1t-18 1q-26 0 -36 -11t-10 -27v-80v-63h73q2 0 5 -2t3 -6v-79q0 -3 -3 -6t-5 -3h-73v-95q0 -2 -2 -4t-4 -2h-100q-2 0 -4 2t-2 4v99l-26 7q-25 6 -27 6l-4 4t-2 4v63q0 4 2 6t6 2h51v43v108q0 83 45.5 102.5t86.5 19.5q16 0 34.5 -4t22.5 -6
q2 0 3 -2t1 -4v-70q0 -4 -2 -6t-6 -2z" />
</svg>
