<?xml version="1.0" standalone="no"?>
<!DOCTYPE svg PUBLIC "-//W3C//DTD SVG 1.1//EN" "http://www.w3.org/Graphics/SVG/1.1/DTD/svg11.dtd" >
<svg xmlns="http://www.w3.org/2000/svg" xmlns:xlink="http://www.w3.org/1999/xlink" version="1.1" width="2048" height="2048" viewBox="-10 0 2058 2048">
   <path fill="currentColor"
d="M1024 2048q-20 0 -40.5 -6.5t-38.5 -16.5l-251 -147q-28 -15 -21.5 -22.5t13.5 -10.5q39 -13 56.5 -20.5t58.5 -30.5q5 -2 10 -2t7 2l193 114q5 3 13 3t10 -3l751 -431q5 -5 9 -10t4 -10v-868q0 -5 -4 -11.5t-9 -9.5l-748 -431q-8 -5 -14.5 -5t-11.5 5l-748 431
q-5 3 -9 9.5t-4 11.5v868q0 5 4 10t9 10l205 117q84 43 132 8.5t48 -84.5v-856q0 -7 6.5 -13.5t14.5 -6.5h96q8 0 14 6.5t6 13.5v856q0 111 -57 173.5t-163 62.5q-33 0 -67.5 -6.5t-105.5 -42.5l-198 -111q-35 -23 -57 -60t-22 -77v-868q0 -41 22 -77.5t57 -59.5l751 -432
q36 -20 79 -20t79 20l751 432q35 23 57 59.5t22 77.5v868q0 40 -22 77t-57 60l-751 431q-18 10 -38.5 16.5t-40.5 6.5zM1255 1452q-246 0 -321 -91.5t-75 -188.5q0 -7 6.5 -13.5t13.5 -6.5h99q8 0 14.5 5t6.5 13q10 74 59.5 112t196.5 38q119 0 172.5 -29.5t53.5 -92.5
q0 -36 -40.5 -62.5t-223.5 -44.5q-155 -15 -244 -60.5t-89 -170.5q0 -114 90.5 -177.5t249.5 -63.5q181 0 272 63.5t104 198.5q0 5 -1 10t-4 7q-5 3 -9 5.5t-9 2.5h-96q-8 0 -14 -5t-6 -13q-18 -78 -69 -107.5t-168 -29.5q-129 0 -160.5 35.5t-31.5 68.5q0 41 41.5 60
t216.5 42q173 23 257 68.5t84 167.5t-98 190.5t-278 68.5z" />
</svg>
