<?xml version="1.0" standalone="no"?>
<!DOCTYPE svg PUBLIC "-//W3C//DTD SVG 1.1//EN" "http://www.w3.org/Graphics/SVG/1.1/DTD/svg11.dtd" >
<svg xmlns="http://www.w3.org/2000/svg" xmlns:xlink="http://www.w3.org/1999/xlink" version="1.1" width="2048" height="2048" viewBox="-10 0 2068 2048">
   <path fill="currentColor"
d="M322 1042q0 -4 -3 -8t-5 -6l-146 -84q-2 0 -3 -1t-3 -1h-2t-4 1t-4 1l-144 84q-4 2 -6 6t-2 8v224q0 2 1 4t3 2q2 2 4 2t4 -2l87 -49q4 -2 6 -6t2 -8v-105q0 -4 2 -8t6 -6l37 -21q2 -2 4 -2h4h4q2 0 4 2l37 21q4 2 6 6t2 8v105q0 4 3.5 8t7.5 6l84 49q2 2 5 2t5 -2l2 -2
q2 -2 2 -4v-224zM1090 737q-2 -2 -4 -2t-5 2q-2 0 -3 2t-1 4v221q0 3 -1 4l-3 3h-2h-4l-35 -23q-4 -2 -9 -2t-9 2l-144 84q-4 2 -6 6t-2 9v166q0 4 2 8t6 8l144 82q4 2 9 2t9 -2l144 -82q4 -4 6 -8t2 -8v-415q0 -4 -2 -8t-6 -6zM1077 1159l-1 1l-1 1l-49 29q-2 2 -3 2t-3 -2
l-49 -29l-1 -1l-1 -1v-57q0 -2 1 -3l1 -1l49 -29h3h3l49 29l1 1q1 1 1 3v57zM1605 1100q4 -2 6 -6t2 -8v-41q0 -5 -2 -9t-6 -6l-144 -84q-2 -2 -7 -2t-9 2l-144 84q-4 2 -6 6t-2 9v166q0 4 2 8t6 6l144 82q4 2 8 2t8 -2l86 -47q2 -2 3 -4t1 -4t-1 -4t-3 -4l-143 -83
q-2 -2 -4.5 -4t-2.5 -4v-51q0 -2 2.5 -4t4.5 -4l45 -25q0 -2 3 -2t5 2l45 25q2 2 3 4t1 4v41q0 2 1 4t3 2q2 2 4.5 2t4.5 -2zM583 946q4 -2 9 -2t9 2l144 82q4 2 6 6t2 11v166q0 4 -2 8t-6 6l-144 84q-4 2 -9 2t-9 -2l-144 -84q-4 -2 -6 -6t-2 -8v-166q0 -7 2 -11t6 -6z
M1884 1311q-2 0 -6 -1t-9 -3l-45 -26q-4 -5 -3 -6t3 -1q6 -2 9.5 -4t11.5 -6h1h1l35 23h3h1l137 -80l1 -1l1 -1v-158l-1 -1q-1 -1 -1 -4l-137 -78h-1h-3l-136 78q0 3 -1 4l-1 1v158l1 1l1 1l37 22q17 8 25 2t8 -16v-154q0 -2 1 -3t3 -1h19l1 1q1 1 1 3v154q0 20 -10.5 31.5
t-28.5 11.5q-6 0 -12.5 -1t-18.5 -7l-37 -21q-6 -4 -10 -11t-4 -13v-158q0 -7 4 -14t10 -11l135 -78q9 -4 16 -4t13 4l136 78q8 4 11 11t3 14v158q0 6 -3 13t-11 11l-136 78q-2 2 -6 3t-8 1zM1927 1203q-45 0 -58.5 -16.5t-13.5 -33.5q0 -2 1 -3t3 -1h17q2 0 3 1l1 1
q2 15 11 22t36 7q20 0 30.5 -5t10.5 -18q0 -6 -7 -11t-42 -9q-27 -2 -43.5 -10.5t-16.5 -30.5q0 -21 16.5 -32t45.5 -11q33 0 49 11t18 36v1v1l-2 2h-2h-16q-2 0 -3 -1l-1 -1q-4 -14 -13.5 -20.5t-29.5 -6.5q-23 0 -29 7.5t-6 13.5t7 10t40 8q31 4 46.5 12.5t15.5 28.5
q0 23 -17.5 35.5t-50.5 12.5zM1451 1092h2h2l27 16q2 0 2 1v1v33v1q0 1 -2 1l-27 16h-2h-2l-27 -16q-2 0 -2 -1v-1v-33v-1q0 -1 2 -1z" />
</svg>
