<?xml version="1.0" standalone="no"?>
<!DOCTYPE svg PUBLIC "-//W3C//DTD SVG 1.1//EN" "http://www.w3.org/Graphics/SVG/1.1/DTD/svg11.dtd" >
<svg xmlns="http://www.w3.org/2000/svg" xmlns:xlink="http://www.w3.org/1999/xlink" version="1.1" width="2048" height="2048" viewBox="-11 0 2070 2048">
   <path fill="currentColor"
d="M1416 1218l-1 -26q-1 -25 26 -74q26 -48 44 -38l19 10l11 22q11 22 -16 59q-26 36 -54 40l-29 5v2zM1144.5 1262q-30.5 79 -83.5 71l-54 -8l-2 -31q-2 -32 22 -111q24 -81 66 -73l42 8l20 33q20 32 -10.5 111zM1072 820l32 -70q33 -70 43 -11q12 59 -58 184l-70 124
q2 -38 27 -133zM200 1216q2 -75 38.5 -107.5t54.5 -16.5q19 16 11.5 47.5t-39.5 53.5q-35 23 -50 24l-15 1v-2zM2047 1199q-2 -26 -18 -24l-17 2l-30 19q-30 20 -63 15q-32 -2 -31 -51l1 -50l2 -45q2 -46 -19 -52q-18 -6 -37 9l-19 15l-23 29q-22 28 -36 70l-4 3l2 -52
q2 -52 -4 -70q-4 -8 -29.5 -6t-29.5 16q-6 14 -26.5 93t-22.5 122l-45 32q-46 33 -92 41q-49 8 -65 -11l-17 -20l88 -41q87 -42 83 -147q-6 -105 -76 -95t-80 18q-12 8 -57 49.5t-61 140.5q0 5 -1 15l-1 10l-38 24q-39 24 -67 33l36 -99q37 -98 -61 -159q-42 -26 -73 6
l-30 33l82 -118q82 -118 52 -241q-12 -59 -38.5 -71t-55.5 -2q-40 16 -57 34l-18 19l-36 69q-37 70 -49 186q-12 113 -26 224l-14 110l-22 17q-21 16 -43 18t-19 -45l3 -46l11 -75q11 -75 11 -92q-2 -18 -7 -29t-25 -17q-23 -6 -41 11l-18 17l-42 64q-41 64 -47 78l-4 8
l-5 -6l22 -84q21 -84 -20 -86q-40 -2 -65 29l-26 32l-31 53q-32 54 -34 62l-4 -4l12 -65q13 -65 9 -87t-19 -23l-14 -1l-19 1q-19 1 -27 17q-7 18 -26 103.5t-23 123.5l-52 32q-52 31 -96 33q-45 0 -50 -19l-5 -20l102 -55q101 -56 56 -166q-20 -28 -43.5 -38t-57.5 -10
q-33 0 -69 23t-63 84q-14 29 -19 54t-7 46l-23 2q-22 2 -36 -11q-16 -14 -24 -7l-8 7l-14 24q-13 23 14 35q26 10 58 14l33 5q2 18 16 46.5t47 52.5q46 36 116 15l70 -21l51 -29l6 25q6 24 32 30q29 4 49 -18t69 -140q28 -59 34 -67l6 -8h5l-14 81q-13 81 -5 112q8 32 35 35
l26 3l15 -7q16 -7 32 -64t39 -107l24 -51h6l-6 84q-7 84 16 121q20 38 59 28l38 -10l26 -14q27 -14 33 -20l39 24q40 24 103 18q140 -28 196 -58l57 -29l29 42q28 41 101 47q85 6 131 -28l45 -35l4 26q4 25 35 37q28 12 46 -31l19 -44l67 -182h6l10 62q10 61 59 74
q48 14 99 -15l51 -28l10 -10q10 -10 6 -37z" />
</svg>
