<?xml version="1.0" standalone="no"?>
<!DOCTYPE svg PUBLIC "-//W3C//DTD SVG 1.1//EN" "http://www.w3.org/Graphics/SVG/1.1/DTD/svg11.dtd" >
<svg xmlns="http://www.w3.org/2000/svg" xmlns:xlink="http://www.w3.org/1999/xlink" version="1.1" width="2048" height="2048" viewBox="-10 0 2069 2048">
   <path fill="currentColor"
d="M519 558v79v191v269l-14 24q-12 26 -38.5 52.5t-52.5 40.5q-30 16 -53.5 21t-55.5 5q-49 0 -85 -15t-71 -50q-44 -44 -60 -99.5t-2 -114.5q6 -30 20 -54t40 -51q37 -38 76.5 -52t93.5 -12q34 2 58.5 9t50.5 23q10 8 17 12t9 2l1 -10t3 -24t4 -26t4 -16q0 -5 -5 -9
t-23 -14q-34 -14 -61.5 -20t-69.5 -6q-45 0 -73 6t-66 26q-59 29 -100.5 81.5t-59.5 120.5q-6 27 -6 74t8 74q20 74 72.5 128.5t129.5 81.5q26 10 39.5 11t53.5 1q36 0 51.5 -1t33.5 -7q28 -8 52 -20.5t49 -30.5q10 -8 18 -13l8 -5l1 9q1 9 1 21v33l97 2v-751h-49
q-20 0 -33 1t-13 3zM1302 632v59h75v-117h-75v58zM830 600q-2 2 -3 6t1 10v12l129 2h127l2 -8q2 -4 2 -9v-7q-2 -6 -20 -7t-107 -1q-52 -2 -90.5 -1t-40.5 3zM1615 600q-4 4 -5 11t3 13q0 4 22.5 5t107.5 1h127l4 -8q2 -6 2 -10t-2 -8q-4 -6 -20 -7t-109 -1q-69 0 -98.5 1
t-31.5 3zM901 715q-45 10 -83.5 28t-66.5 47q-34 30 -55.5 65.5t-35.5 81.5q-6 20 -8 35.5t-2 43.5q0 44 7 70.5t26 64.5q12 26 21 39.5t33 35.5q30 30 57.5 47.5t65.5 31.5q26 10 39.5 11t55.5 1t55.5 -1t39.5 -11q97 -35 153.5 -111.5t56.5 -177.5q2 -40 -5 -69.5
t-25 -67.5q-14 -27 -23.5 -40t-33.5 -37q-22 -22 -36 -33.5t-37 -21.5q-14 -8 -33 -15t-31 -11q-28 -6 -68.5 -8t-66.5 2zM1032 802q40 14 74.5 45.5t54.5 71.5q47 95 2.5 190t-149.5 125q-23 6 -59 6t-58 -6q-59 -18 -102.5 -63.5t-57.5 -106.5q-20 -86 27.5 -165
t134.5 -103q22 -6 65.5 -4t67.5 10zM1684 715q-87 18 -147.5 72.5t-86.5 139.5q-8 20 -9 35.5t-1 55.5q0 46 4 68.5t18 54.5q24 59 75.5 102.5t116.5 65.5q30 8 76.5 10t78.5 -6q134 -33 199.5 -151t22.5 -247q-24 -71 -78.5 -121.5t-129.5 -72.5q-28 -6 -69.5 -8t-69.5 2z
M1797 796q45 10 85 42.5t61 74.5q14 28 20 50.5t6 52.5q0 42 -15.5 79.5t-43.5 69.5q-22 23 -45 38t-54 27q-20 6 -33 8t-37 2q-47 0 -84.5 -15t-71.5 -48q-22 -22 -37 -48t-23 -55q-9 -26 -8 -64t10 -63q18 -56 58 -94.5t95 -54.5q22 -6 57.5 -7t59.5 5zM1339 729h-37v277
q0 228 -3 268.5t-21 76.5q-4 10 -15 24t-21 25q-10 10 -17 18t-7 10q0 4 23 35t25 31q8 0 40.5 -46t46.5 -75q20 -40 22 -76.5t2 -278.5v-291z" />
</svg>
