<?xml version="1.0" standalone="no"?>
<!DOCTYPE svg PUBLIC "-//W3C//DTD SVG 1.1//EN" "http://www.w3.org/Graphics/SVG/1.1/DTD/svg11.dtd" >
<svg xmlns="http://www.w3.org/2000/svg" xmlns:xlink="http://www.w3.org/1999/xlink" version="1.1" width="2048" height="2048" viewBox="-11 0 2069 2048">
   <path fill="currentColor"
d="M241 752v83h-7q-28 -6 -58 -4t-57 12q-58 18 -89.5 67.5t-29.5 118.5q2 30 9 53.5t19 41.5q21 30 51 47.5t77 23.5q32 6 89.5 3t104.5 -13l4 -2v-516h-113v85zM232 924l9 2v180l-11 2q-34 2 -56 -3t-37 -21q-12 -13 -17 -30t-5 -37q0 -38 17.5 -62.5t47.5 -30.5
q10 -2 27 -2t25 2zM420 724v57h113v-57l-2 -57h-54h-57v57zM725 831q-30 2 -59.5 10t-55.5 18l-10 6v43v33q0 9 2 9q45 -20 73 -27t58 -5q15 0 19 1t8 3q6 4 8 11t2 19v11v5q-4 0 -23.5 3.5t-31.5 5.5q-60 10 -93.5 31t-41.5 57q-2 11 -2 31t2 30q4 18 13 31t21 22
q31 18 83.5 21t165.5 -11h10v-130q0 -52 -1 -94.5t-1 -48.5q-4 -36 -22.5 -55.5t-56.5 -25.5q-10 -2 -32.5 -3t-34.5 -1zM776 1080v36l-16 4q-16 2 -36.5 2t-26.5 -4q-14 -4 -19 -17t3 -28q4 -6 13 -12t21 -10q8 -2 29.5 -5t27.5 -3l4 -2v39zM1077 831q-30 2 -70.5 8
t-73.5 16h-6v340h113v-134v-133l13 -2q6 -2 14 -3t20 -1q16 0 21 1t11 3q8 4 13 10t9 14q2 6 3.5 26.5t1.5 99.5v119h111v-134q-2 -91 -2 -114t-2 -31q-4 -14 -10.5 -25t-16.5 -22q-18 -16 -40 -25t-57 -11q-16 -2 -24 -2h-28zM1826 833q-48 8 -82.5 37.5t-48.5 73.5
q-8 22 -10 39.5t-2 45.5q0 16 1 26t3 18q10 45 37.5 75.5t69.5 44.5q34 12 78.5 10t77.5 -16q40 -19 65 -55t31 -87q7 -58 -11.5 -107.5t-54.5 -76.5q-16 -10 -31.5 -17t-37.5 -11q-16 -2 -43.5 -2t-41.5 2zM1889 924q14 6 24 18t16 33q2 8 3 16t1 26t-1 25t-3 15
q-6 21 -15 33t-23 18q-6 4 -11 4h-15h-14q-5 0 -11 -4q-14 -6 -23 -17t-15 -28q-4 -14 -5 -39t3 -41q4 -19 11 -32t19 -21t28.5 -10t30.5 4zM1505 833q-32 4 -58.5 10t-48.5 16q-52 25 -78.5 68t-26.5 104q0 59 25 99t72 57q28 10 60.5 10t58.5 -8q6 -2 11 -3l5 -1l-2 17
q-2 17 -4 25q-6 20 -20 33t-36 20q-12 4 -43.5 4t-47.5 -4q-14 -2 -30.5 -7.5t-28.5 -11.5l-12 -6v103l20 6q25 8 48 12.5t51 4.5q63 0 108.5 -20.5t71.5 -58.5q12 -16 19 -38.5t11 -50.5q2 -14 2 -121t-2 -142v-24h12h15l18 -38q8 -17 13 -28t5 -13q-2 0 -22 -4t-41 -6
q-14 -2 -30 -3t-40 -1h-36h-19zM1523 948q0 12 1 38.5t1 50.5v63l-6 2q-18 4 -36 4t-30 -4q-23 -8 -34 -27.5t-13 -49.5q0 -24 5 -41.5t17 -31.5q14 -14 35.5 -22t49.5 -8l8 -2zM420 968q0 146 -4 188.5t-20 72.5q-8 18 -27 34.5t-46 30.5l-10 5t0 3l15 7q16 7 38 17l48 24
l10 -6q51 -26 75 -64.5t30 -102.5q0 -9 1 -58t1 -120l2 -160h-113v129z" />
</svg>
