<?xml version="1.0" standalone="no"?>
<!DOCTYPE svg PUBLIC "-//W3C//DTD SVG 1.1//EN" "http://www.w3.org/Graphics/SVG/1.1/DTD/svg11.dtd" >
<svg xmlns="http://www.w3.org/2000/svg" xmlns:xlink="http://www.w3.org/1999/xlink" version="1.1" width="2048" height="2048" viewBox="-10 0 2068 2048">
   <path fill="currentColor"
d="M893 704l-29 4v487h78v-246l14 -10q7 -6 15 -11t12 -9q14 -6 36.5 -6t35.5 8q16 10 20 34.5t4 120.5v119h84v-116q0 -97 -4 -129.5t-20 -55.5q-25 -39 -78 -45t-96 25q-7 6 -13 10t-8 4l-1 -28q-1 -27 -1 -66q-2 -80 -6 -88t-43 -2zM1917 755q-8 2 -14.5 4t-8.5 4
q0 2 -3 15.5t-5 29.5q-6 39 -9 46t-13 7q-19 0 -27 6.5t-14 26.5q-4 8 -6 16.5t-2 10.5l9 1t21 1h33v94q0 39 1 74t3 45q8 43 53 58.5t95 -7.5l18 -8l-6 -23q-2 -10 -5 -17t-3 -9q-2 0 -9.5 1t-15.5 3q-16 4 -21.5 3t-13.5 -5l-10 -10l-2 -99l-2 -100h80v-66h-78l-2 -53
q0 -43 -5 -49t-38 0zM0 882v33h207v-68h-207v35zM281 882v33h67v-68h-67v35zM610 853q-8 2 -20 7.5t-23 11.5q-14 8 -21 16t-16 23q-18 36 -12 78t35 65l14 12l-16 15q-16 16 -20.5 33.5t4.5 33.5q2 8 6 14.5t8 8.5q6 4 4 8t-18 20q-19 19 -25 34t-2 40q4 21 19.5 38
t39.5 28q17 6 31 7t47 1q88 2 135 -31t47 -92q0 -25 -8 -40t-31 -26q-18 -8 -37.5 -12t-78.5 -8q-25 0 -44.5 -3t-23.5 -5q-2 -2 -4 -7.5t-2 -9.5q0 -16 12.5 -21t51.5 -7q49 -2 77.5 -16.5t44.5 -47.5q7 -10 9 -20.5t2 -30.5q0 -16 -1 -29.5t-1 -17.5q-2 -8 1 -10t15 -7
l20 -2l-2 -26q-2 -27 -9 -29t-36 12q-20 9 -26 11t-13 -4q-20 -13 -61 -18t-72 3zM688 911q19 8 26 19t7 34q2 20 0 26.5t-12 18.5q-13 12 -19 15t-28 3q-27 2 -42.5 -6t-23.5 -24q-18 -45 14.5 -75t77.5 -11zM737 1208q25 10 19 33.5t-35 37.5q-14 8 -25.5 10t-38.5 2
q-34 0 -50.5 -7t-22.5 -23q-6 -15 -2 -31t16 -25q8 -8 18.5 -9t49.5 1q24 2 44.5 4t26.5 7zM1312.5 855.5q-55.5 14.5 -85 58.5t-29.5 111q0 35 7 60.5t24 50.5q43 61 134 63t136 -59q35 -43 36 -111.5t-32 -115.5q-26 -39 -80.5 -55.5t-110 -2zM1393 915q26 8 41.5 35.5
t15.5 74.5q0 13 -2 29t-4 27q-19 55 -77 57t-79 -55q-6 -21 -6 -59t6 -58q12 -33 41 -47.5t64 -3.5zM1642 855q-38 11 -58.5 35.5t-20.5 61.5q0 38 20.5 59.5t73.5 38.5q37 12 51 20.5t21 20.5q4 14 -2.5 25.5t-20.5 17.5q-14 4 -44 2t-52 -8q-25 -9 -31 -5.5t-12 23.5
q-6 19 -6 23t6 8q22 16 76.5 20t87.5 -8q34 -10 54.5 -36.5t20.5 -61.5q0 -37 -20.5 -58.5t-73.5 -40.5q-12 -4 -26.5 -9t-20.5 -7q-20 -10 -24.5 -24.5t8.5 -28.5q12 -10 34.5 -12t55.5 6q12 2 24.5 4t14.5 0q2 0 5 -7.5t5 -17.5q4 -16 4 -20t-6 -8q-17 -13 -65 -17t-79 4z
M0 1021v35h348v-68h-348v33zM0 1160v31h135v-61h-135v30zM211 1160v31h137v-61h-137v30z" />
</svg>
