<?xml version="1.0" standalone="no"?>
<!DOCTYPE svg PUBLIC "-//W3C//DTD SVG 1.1//EN" "http://www.w3.org/Graphics/SVG/1.1/DTD/svg11.dtd" >
<svg xmlns="http://www.w3.org/2000/svg" xmlns:xlink="http://www.w3.org/1999/xlink" version="1.1" width="2048" height="2048" viewBox="-10 0 2058 2048">
   <path fill="currentColor"
d="M1590 45q-84 22 -201.5 50t-202.5 51l-207 53l-59 106l-58 107h-253l-599 599l599 600h247l62 109q25 45 53 80t42 38q28 8 203 56t433 118q64 16 112 26l47 10q3 -3 22.5 -73t48.5 -165q25 -93 57 -213.5t52 -192.5l47 -177l-58 -98q-23 -42 -41 -75.5t-18 -42.5
q0 -5 18 -40t43 -77l59 -101l-42 -146q-61 -218 -111.5 -380.5t-70.5 -207.5l-25 -59zM1495 314q-3 5 -53.5 96t-120.5 209l-171 294h-359q-148 0 -250.5 -2.5t-99.5 -8.5q6 -3 72 -73t152 -165q135 -143 189.5 -188t102.5 -53q28 -6 109 -25.5t163 -41.5
q165 -45 219.5 -53.5t46.5 11.5zM1716 476q8 28 33.5 116.5t50.5 186.5l64 238l-56 202q-22 84 -46 175t-38 133q-11 45 -25 71.5t-19 18.5q-6 -6 -59 -94.5t-121 -205.5q-84 -146 -120.5 -224.5t-30.5 -97.5q8 -23 60 -117t111 -197.5t108 -184.5t54 -84q6 0 16 19.5
t18 44.5zM1237 1272q157 266 211.5 364t46.5 104q-3 5 -94 -16t-215 -51l-302 -82l-219 -221q-86 -92 -152 -162.5t-69 -78.5t91 -11t256 -3l356 6z" />
</svg>
