<?xml version="1.0" standalone="no"?>
<!DOCTYPE svg PUBLIC "-//W3C//DTD SVG 1.1//EN" "http://www.w3.org/Graphics/SVG/1.1/DTD/svg11.dtd" >
<svg xmlns="http://www.w3.org/2000/svg" xmlns:xlink="http://www.w3.org/1999/xlink" version="1.1" width="2048" height="2048" viewBox="-10 0 2058 2048">
   <path fill="currentColor"
d="M1687 930l-15 -24q0 -141 -54.5 -209t-128.5 -110q22 -8 43 -16.5t26 -35.5q40 -10 52 -27.5t15 -37.5q12 -7 35.5 -25.5t18.5 -53.5q20 -12 28.5 -29.5t3.5 -41.5q20 -23 26.5 -41.5t-3.5 -35.5q24 -32 19.5 -50.5t-14.5 -33.5q17 -35 1 -63.5t-66 -20.5
q-22 -32 -55 -32h-41q-8 -10 -21.5 -16.5t-42.5 -1.5q-20 -19 -42.5 -18t-46.5 8q-28 -22 -47.5 -12t-41.5 15q-33 -10 -46.5 -1.5t-30.5 16.5q-35 -8 -52 4.5t-35 29.5h-27q-54 32 -82.5 88t-38.5 88q-10 -32 -38.5 -88t-85.5 -88h-24q-20 -17 -36 -29.5t-51 -4.5
q-17 -8 -30.5 -16.5t-46.5 1.5q-14 -3 -28 -10t-28 -7q-8 2 -16.5 4.5t-16.5 9.5q-24 -7 -46.5 -8t-42.5 18q-29 -5 -42.5 1.5t-21.5 16.5h-41q-33 0 -55 32q-50 -8 -66 20.5t1 63.5q-10 15 -14.5 33.5t19.5 50.5q-10 17 -3.5 35.5t26.5 41.5q-5 24 3.5 41.5t28.5 29.5
q-5 35 18.5 53.5t35.5 25.5q3 20 15 37.5t52 27.5q5 27 26 35.5t43 16.5q-74 42 -128.5 110t-54.5 209l-15 24q-84 52 -129.5 194.5t72.5 275.5q8 42 20.5 75.5t24.5 68.5q17 133 101 200t114 74q45 32 93 63t112 53q60 62 124 88t129 26h2h2q65 0 129 -26t124 -88
q64 -22 112 -53t93 -63q30 -7 114 -74t101 -200q12 -35 24.5 -68.5t20.5 -75.5q118 -133 72.5 -275.5t-129.5 -194.5zM1585 898q-2 30 -62.5 -8.5t-126 -95.5t-112.5 -110t-23 -55q136 -25 231.5 49t92.5 220zM1162 119q3 13 6.5 20t6.5 10q17 -17 32 -34.5t35 -34.5
q0 10 -1.5 19.5t10.5 17.5q10 -15 25 -28.5t35 -23.5q-8 17 -4 24.5t9 12.5q15 -12 32 -24.5t44 -25.5q-7 10 -13 20t6 20q15 -10 33.5 -18.5t55.5 -16.5q-7 10 -18.5 19t-1.5 19q20 -8 42.5 -13t44.5 -10q-10 10 -17.5 20t2.5 17q20 -7 48.5 -13t55.5 1l-25 25q0 2 33 2h61
q-10 15 -20 32.5t-15 41.5q3 3 15.5 1.5t24.5 -1.5q-12 30 -32 42.5t-25 24.5q8 5 19 5t23 -5q-10 20 -27 36t-35 33q5 3 12.5 4t24.5 -1q-14 17 -33 32l-38 30q2 2 13 3.5t24 1.5q-20 19 -43.5 31.5t-48.5 24.5q13 8 21.5 9t18.5 -1q-17 15 -43 23.5t-54 18.5q5 7 11.5 9.5
t18.5 5.5q-30 17 -63 16t-46 6q5 7 11.5 13.5t16.5 11.5q-45 2 -139 -16.5t-119 -114.5q47 -52 135 -112.5t234 -137.5q-114 40 -215.5 91.5t-185.5 123.5q-101 -47 -63 -143.5t85 -143.5zM1024 577q72 0 142.5 44.5t70.5 93.5q-3 45 -60 77t-153 32q-94 -2 -152 -39.5
t-58 -81.5q0 -35 64 -82t146 -44zM542 525q12 -3 17 -5.5t12 -9.5q-27 -10 -54 -18.5t-42 -23.5q7 2 17 1t23 -9q-25 -12 -50 -24.5t-44 -31.5q12 0 24.5 -1.5t14.5 -3.5q-22 -15 -39.5 -30t-34.5 -32q17 2 26 1t14 -4q-18 -17 -36.5 -33t-28.5 -36q13 5 25 5t20 -5
q-5 -12 -25 -24.5t-32 -42.5q12 0 24.5 1.5t15.5 -1.5q-5 -24 -15 -40t-23 -31q30 -3 63.5 -3t30.5 -2l-22 -25q27 -7 54.5 -1t49.5 13q10 -7 2.5 -17t-17.5 -20l45 10q22 5 42 13q10 -10 -1.5 -19t-21.5 -19q38 8 57.5 16.5t34.5 18.5q12 -10 6 -20t-16 -20q30 13 46 25.5
t31 24.5q5 -5 10 -12.5t-5 -24.5q19 10 34 23.5t27 28.5q13 -8 11.5 -17.5t-1.5 -19.5q20 17 35 34.5t32 34.5q3 -3 5.5 -10t4.5 -20q49 47 87.5 143.5t-62.5 143.5q-87 -72 -188.5 -123.5t-212.5 -91.5q144 77 233 137.5t136 112.5q-25 96 -119 114.5t-139 16.5
q8 -5 15.5 -11.5t9.5 -13.5q-10 -7 -43.5 -6t-62.5 -16zM764 621q25 5 -20.5 58.5t-112.5 110t-126.5 93.5t-61.5 10q-5 -146 91.5 -220t229.5 -52zM364 1368q-72 -57 -77 -188t126 -205q37 -10 47 55.5t-1 144.5t-38.5 143.5t-56.5 49.5zM725 1761q-37 22 -120 3.5
t-150 -114.5q-47 -84 -44.5 -157t34.5 -98q47 -29 115 4t125 100q50 59 66 144.5t-26 117.5zM623 1281q-74 -47 -85 -140.5t46 -178.5q57 -84 147 -111t162 20q74 47 85 141t-45 180q-57 85 -147.5 112t-162.5 -23zM1024 1984q-87 5 -158.5 -49.5t-68.5 -79.5q-3 -39 80 -64
t152 -25q72 -2 146 20t74 57q0 32 -70.5 87.5t-154.5 53.5zM1261 1484q0 89 -68 152t-164 63t-164 -61.5t-68 -150.5v-2v-1q0 -89 66.5 -152t162.5 -63q97 0 166 62t69 151v1v1zM1115.5 1180q-56.5 -84 -45.5 -178t85 -141q72 -49 162 -22t147 111q57 87 46 181t-85 141
q-72 47 -162.5 19.5t-147 -111.5zM1588 1655q-77 104 -162 118.5t-125 -12.5q-37 -37 -15 -131t77 -158q62 -69 123.5 -105t106.5 -1q32 32 39.5 126t-44.5 163zM1664 1363q-32 12 -58 -51t-37 -143t-2.5 -145.5t48.5 -53.5q129 74 124 205t-75 188z" />
</svg>
