<?xml version="1.0" standalone="no"?>
<!DOCTYPE svg PUBLIC "-//W3C//DTD SVG 1.1//EN" "http://www.w3.org/Graphics/SVG/1.1/DTD/svg11.dtd" >
<svg xmlns="http://www.w3.org/2000/svg" xmlns:xlink="http://www.w3.org/1999/xlink" version="1.1" width="2048" height="2048" viewBox="-10 0 2068 2048">
   <path fill="currentColor"
d="M1771 973h-191h-89l76 -351h108h161q130 0 171 51t41 102q0 71 -58 134.5t-219 63.5zM1946 1279q0 70 -58 134t-222 64h-189h-88l73 -354h108h161q130 0 172.5 52.5t42.5 103.5zM1120 659h-188h-89l76 -353h106h160q130 0 172.5 50.5t42.5 101.5q0 74 -58 137.5
t-222 63.5zM1304 990q0 74 -58 137.5t-222 63.5h-188h-89l76 -354h106h160q130 0 172.5 51t42.5 102zM1202 1544q0 71 -58 134.5t-222 63.5h-191h-89l76 -353h108h161q130 0 172.5 52.5t42.5 102.5zM376 659h-189h-88l74 -353h107h161q130 0 172.5 50.5t42.5 101.5
q0 74 -58 137.5t-222 63.5zM560 990q0 74 -58 137.5t-222 63.5h-191h-89l76 -354h108h161q130 0 172.5 51t42.5 102z" />
</svg>
