<?xml version="1.0" standalone="no"?>
<!DOCTYPE svg PUBLIC "-//W3C//DTD SVG 1.1//EN" "http://www.w3.org/Graphics/SVG/1.1/DTD/svg11.dtd" >
<svg xmlns="http://www.w3.org/2000/svg" xmlns:xlink="http://www.w3.org/1999/xlink" version="1.1" width="2048" height="2048" viewBox="-10 0 2058 2048">
   <path fill="currentColor"
d="M979 2q-8 0 -39 4t-65 6q-92 13 -171.5 39t-136.5 66q-20 12 -26 13.5t-21 -6.5q-20 -10 -63.5 -11t-70.5 9q-38 12 -61.5 38t-30.5 63q-5 30 1 61t21 54q8 12 35 32t47 27q2 0 0 25t-7 57q-10 52 -11.5 89.5t1.5 114.5q0 49 3.5 101.5t8.5 74.5q3 25 7.5 54.5t4.5 49.5
l5 45l-27 5q-30 5 -67 25t-42 34q-5 15 0 32.5t22 34.5q18 20 34 19t46 -21l24 -15v276q0 208 1.5 248t11.5 64q15 35 39.5 73.5t52.5 68.5l30 30l-30 20q-25 17 -42.5 42t-17.5 47q0 7 5 16t18 19q12 15 22 18.5t27 3.5q20 0 30 -5t32 -22q13 -13 30 -24t27 -19l25 -12
l57 20q70 22 125.5 31t147.5 9q115 -3 210.5 -19t164.5 -48l25 -10q12 -5 17 -5q3 0 20.5 15t36.5 34q35 38 44 44t28 1q25 -2 42.5 -19.5t17.5 -40.5q0 -24 -12.5 -45.5t-37.5 -45.5l-29 -25l27 -40q40 -55 64.5 -119.5t42.5 -153.5q7 -55 9.5 -154t-4.5 -216q0 -30 -2 -51
l-1 -21l9 4q8 4 18 11q25 15 42.5 15t32.5 -17q12 -13 17 -26.5t3 -35.5q-3 -20 -21.5 -32.5t-60.5 -25.5q-18 -2 -30 -7t-15 -5q0 -2 -2.5 -73t-2.5 -168q-5 -186 -8.5 -233t-26.5 -142v-8q0 -4 5 -4q10 0 37.5 -22.5t37.5 -39.5q22 -37 19.5 -80.5t-29.5 -80.5
q-27 -38 -79.5 -50.5t-109.5 7.5l-37 13l-30 -20q-32 -22 -81.5 -42t-96.5 -30q-40 -8 -137 -12.5t-129 -0.5zM1210 32q149 25 235.5 99.5t134.5 218.5q27 84 34.5 165t12.5 324q2 122 4.5 244.5t7.5 175.5q3 49 3 104v79q-8 90 -26.5 169.5t-48.5 133.5q-17 37 -48 75.5
t-44 43.5q-7 0 -18 9t-21 16q-52 50 -160 79.5t-255 34.5q-89 3 -151 -4.5t-134 -29.5q-38 -13 -52.5 -21.5t-34.5 -26.5q-23 -24 -42.5 -36.5t-37.5 -12.5q-22 0 -69 -61t-67 -116q-13 -37 -16.5 -143.5t3.5 -327.5l8 -256l-13 -112q-29 -223 -2 -393t109 -272
q37 -45 94.5 -78.5t136.5 -55.5q82 -22 231 -31t226 6zM1627 119q57 30 59.5 99.5t-52.5 106.5q-12 5 -21 11.5t-11 6.5l-5 -12q-5 -11 -12 -26l-13 -37l15 -20q10 -10 12.5 -17.5t0.5 -14.5q-5 -22 -19 -28.5t-39 -1.5q-10 3 -17 -2t-25 -28q-10 -12 -17.5 -23t-4.5 -11
q0 -3 10 -5.5t25 -7.5q29 -7 59 -4.5t55 14.5zM487 137q13 2 23 5.5t10 6.5q2 2 -5.5 13.5t-17.5 23.5q-17 25 -24.5 28.5t-22.5 3.5q-15 -2 -20 -1t-15 14q-12 15 -12 27.5t15 26.5l12 18l-10 35q-5 12 -11 23t-9 11q-7 0 -29.5 -14.5t-32.5 -27.5q-39 -52 -18 -113t80 -78
q28 -7 43 -7t44 5zM1714 1018q29 12 44 28t10 34l-2 15l-23 -13q-7 -5 -14.5 -7.5t-7.5 0.5q-2 2 0.5 6t7.5 4q14 5 19 13.5t-2 18.5t-26 7.5t-41 -17.5l-30 -20v-42q0 -27 2.5 -33.5t12.5 -6.5q5 0 20 4t30 9zM408 1043q0 34 -6 51.5t-26 30.5q-28 19 -42.5 21.5
t-27.5 -9.5q-10 -10 -10 -12.5t8 -7.5q17 -12 22 -17t0 -8q-2 0 -8.5 2.5t-13.5 7.5q-10 8 -14 8t-6 -5q-8 -23 8.5 -40t55.5 -32q38 -13 49 -10.5t11 20.5zM1535 1889q22 18 39.5 51.5t10.5 50.5q-5 17 -11.5 16t-18.5 -29q-8 -12 -14 -22t-9 -10q-2 0 0.5 10t9.5 25
q8 15 13 27.5t2 14.5q-2 3 -8.5 4t-16.5 1q-12 0 -22 -7.5t-35 -34.5q-15 -17 -29.5 -29.5t-19.5 -15.5q-13 -5 -9 -15t26 -29q25 -23 45 -24t47 16zM602 1894q7 3 18 12.5t21 22.5l23 25l-25 10q-10 5 -27.5 17t-32.5 25q-30 25 -46 31t-33 -1q-13 -5 -15.5 -9t2.5 -14
q3 -7 9 -18.5t14 -18.5q5 -7 8.5 -14.5t3.5 -10.5q-5 -2 -20 16.5t-22 33.5q-5 15 -11 15t-9 -15q-7 -25 10 -51t55 -48q27 -15 42 -16.5t35 8.5zM1197 107q-47 12 -84 42t-55 72q-15 30 -13.5 73.5t16.5 72.5q15 33 44.5 61.5t59.5 40.5q37 13 87 11.5t79 -18.5
q50 -25 73.5 -62.5t28.5 -94.5q0 -34 -1 -49t-11 -35q-18 -35 -39 -57.5t-53 -39.5q-32 -15 -68 -20t-64 3zM1314 129q77 35 102 114.5t-20 148.5q-42 67 -130.5 77t-147.5 -45q-55 -47 -62.5 -110t30.5 -120q37 -55 102.5 -73.5t125.5 8.5zM1096 263q-38 32 -12 73t74 29
q19 -5 33 -22.5t14 -37.5q0 -39 -40 -55.5t-69 13.5zM703 129q-34 12 -67.5 39.5t-51.5 59.5q-10 20 -12.5 35t-2.5 47q0 33 2.5 49t10.5 33q44 87 141 105.5t169 -45.5q35 -32 48.5 -62t13.5 -75q0 -32 -2.5 -47t-14.5 -37q-25 -50 -72 -78.5t-105 -28.5q-17 0 -33 2.5
t-24 2.5zM850 156q99 57 94 162.5t-107 158.5q-32 15 -78 13.5t-80 -18.5q-102 -50 -101 -160.5t105 -160.5q20 -10 34 -12t51 -2q35 2 49.5 5.5t32.5 13.5zM641 261q-15 5 -29.5 19.5t-17 29.5t5 35t21.5 30q5 2 16.5 6t21.5 4q52 0 62 -50t-38 -69q-17 -8 -22 -8t-20 3z
M979 424q-22 5 -37 16.5t-20 28.5q0 8 -5 15.5t-15 9.5q-27 15 -41 43.5t-4 53.5q5 10 22.5 18.5t34.5 8.5h18l-5 32q-5 30 -2.5 51t14.5 34q13 10 27.5 10t29.5 -15l18 -13l10 13q10 12 32 12t35 -12q7 -8 9.5 -17.5t0.5 -44.5l-3 -50h20q50 0 50 -48.5t-53 -75.5
q-12 -5 -18 -11t-6 -11q-3 -15 -11.5 -25t-28.5 -18q-17 -7 -31 -8t-41 3zM1108 504q25 12 36 29.5t11 37.5q0 17 -2.5 22t-17.5 10q-15 8 -37 5.5t-57 -17.5q-22 -8 -32 -6.5t-40 8.5q-52 18 -77 10.5t-27 -37.5q0 -17 8.5 -31t25.5 -26q18 -10 24 -10t21 7q10 5 25 9t27 6
q18 0 29 -2.5t28 -9.5q13 -8 20.5 -12.5t9.5 -4.5l8 3zM1009 650q-5 48 -10 62.5t-20 17.5q-27 7 -37 -11.5t-5 -60.5l5 -42l29 -10q13 -5 23 -7.5t12 -2.5q3 0 3 16v38zM1053 608q23 8 30.5 20t7.5 47q0 25 -2.5 33.5t-12.5 16.5q-15 10 -31 5t-19 -20q-2 -7 -3.5 -14.5
t-1.5 -10.5q-5 -10 0 -47t8 -37q2 0 9 2z" />
</svg>
