<?xml version="1.0" standalone="no"?>
<!DOCTYPE svg PUBLIC "-//W3C//DTD SVG 1.1//EN" "http://www.w3.org/Graphics/SVG/1.1/DTD/svg11.dtd" >
<svg xmlns="http://www.w3.org/2000/svg" xmlns:xlink="http://www.w3.org/1999/xlink" version="1.1" width="2048" height="2048" viewBox="-10 0 2058 2048">
   <path fill="currentColor"
d="M1462.5 294q-122.5 0 -207 86t-84.5 205q0 83 40 149t105 103v40l-37 147q-36 147 -255 147q-90 0 -162 17.5t-130 47.5v-690q65 -38 105 -105t40 -147q0 -122 -84.5 -208t-207.5 -86q-122 0 -206.5 86t-84.5 208q0 80 40 147t105 105v956q-65 40 -105 106t-40 146
q0 122 84.5 208t206.5 86q123 0 207.5 -86t84.5 -208q0 -57 -21 -107t-56 -90q32 -40 85.5 -67t138.5 -27q217 0 335 -91t174.5 -201t66.5 -202l9 -92v-40q65 -37 105 -103t40 -149q0 -119 -84.5 -205t-207 -86zM585.5 147q59.5 0 103 42.5t43.5 104.5q0 60 -43.5 102.5
t-103.5 42.5q-59 0 -102.5 -42.5t-43.5 -102.5q0 -62 43.5 -104.5t103 -42.5zM585.5 1901q-59.5 0 -103 -42.5t-43.5 -104.5q0 -60 43.5 -102.5t102.5 -42.5q60 0 103.5 42.5t43.5 102.5q0 62 -43.5 104.5t-103 42.5zM1462.5 732q-59.5 0 -103 -43.5t-43.5 -103.5
q0 -59 43.5 -102.5t103.5 -43.5q59 0 102.5 43.5t43.5 102.5q0 60 -43.5 103.5t-103 43.5z" />
</svg>
