<?xml version="1.0" standalone="no"?>
<!DOCTYPE svg PUBLIC "-//W3C//DTD SVG 1.1//EN" "http://www.w3.org/Graphics/SVG/1.1/DTD/svg11.dtd" >
<svg xmlns="http://www.w3.org/2000/svg" xmlns:xlink="http://www.w3.org/1999/xlink" version="1.1" width="2048" height="2048" viewBox="-10 0 2058 2048">
   <path fill="currentColor"
d="M477 137q-112 0 -192 80t-80 193q0 75 37.5 137t99.5 97v897q-62 35 -99.5 96t-37.5 139q0 112 80 192t192 80q115 0 195 -80t80 -192q0 -78 -37.5 -139t-100.5 -96v-897q63 -35 100.5 -97t37.5 -137q0 -113 -80 -193t-195 -80zM477 1911q-55 0 -95 -40t-40 -95
q0 -58 40 -98t95 -40q57 0 97 40t40 98q0 55 -40 95t-97 40zM477 547q-55 0 -95 -40t-40 -97q0 -55 40 -95t95 -40q57 0 97 40t40 95q0 57 -40 97t-97 40zM1706 1541v-857q0 -155 -64 -238.5t-140 -121t-141 -43.5l-65 -6h-135v-275l-409 410l409 409v-272h38h97
q90 0 114 69l24 68v857q-60 35 -99 96t-39 139q0 112 80 192t195 80q112 0 192 -80t80 -192q0 -78 -37.5 -139t-99.5 -96zM1571 1911q-57 0 -97 -40t-40 -95q0 -58 40 -98t97 -40q55 0 95 40t40 98q0 55 -40 95t-95 40z" />
</svg>
