<?xml version="1.0" standalone="no"?>
<!DOCTYPE svg PUBLIC "-//W3C//DTD SVG 1.1//EN" "http://www.w3.org/Graphics/SVG/1.1/DTD/svg11.dtd" >
<svg xmlns="http://www.w3.org/2000/svg" xmlns:xlink="http://www.w3.org/1999/xlink" version="1.1" width="2048" height="2048" viewBox="-10 0 2058 2048">
   <path fill="currentColor"
d="M1610 879q-83 0 -149 41t-104 107q-10 0 -20 -1.5t-20 -1.5q-113 0 -219.5 -40t-197.5 -109t-161.5 -163t-110.5 -199q48 -40 75.5 -97.5t27.5 -122.5q0 -123 -85 -208t-208 -85q-120 0 -206.5 85t-86.5 208q0 80 41.5 146.5t106.5 106.5v959q-65 37 -106.5 103.5
t-41.5 146.5q0 123 86.5 208t206.5 85q123 0 208 -85t85 -208q0 -80 -40 -146.5t-105 -103.5v-529q70 78 155 140.5t179 107.5t194 69t203 24h20h20q38 65 104 106.5t149 41.5q120 0 206.5 -86.5t86.5 -206.5q0 -123 -86.5 -208t-206.5 -85zM438 1903q-60 0 -102.5 -42.5
t-42.5 -105.5q0 -60 42.5 -102.5t102.5 -42.5t104 42.5t44 102.5q0 63 -44 105.5t-104 42.5zM438 438q-60 0 -102.5 -42.5t-42.5 -102.5t42.5 -104t102.5 -44t104 44t44 104t-44 102.5t-104 42.5zM1610 1317q-60 0 -104 -42.5t-44 -102.5q0 -63 44 -105.5t104 -42.5
t102.5 42.5t42.5 105.5q0 60 -42.5 102.5t-102.5 42.5z" />
</svg>
