<?xml version="1.0" standalone="no"?>
<!DOCTYPE svg PUBLIC "-//W3C//DTD SVG 1.1//EN" "http://www.w3.org/Graphics/SVG/1.1/DTD/svg11.dtd" >
<svg xmlns="http://www.w3.org/2000/svg" xmlns:xlink="http://www.w3.org/1999/xlink" version="1.1" width="2048" height="2048" viewBox="-10 0 2058 2048">
   <path fill="currentColor"
d="M1781 1424v-792q0 -286 -189 -334l-189 -47h-126v-251l-378 379l378 378v-253h35h91q85 0 106 64l21 64v792q-57 32 -92 90t-35 128q0 105 73.5 179t179.5 74q105 0 179 -74t74 -179q0 -70 -35 -128t-93 -90zM1655.5 1767q-52.5 0 -89 -36t-36.5 -89t36.5 -89t89.5 -36
q52 0 88.5 36t36.5 89t-36.5 89t-89 36zM267 622v794q0 284 189 331l189 48h126v253l378 -381l-378 -379v254h-35h-91q-85 0 -106 -63l-21 -63v-794q57 -33 92 -90.5t35 -127.5q0 -103 -73.5 -178.5t-179.5 -75.5q-105 0 -179 75.5t-74 178.5q0 70 35 127.5t93 90.5z
M392.5 536q-52.5 0 -89 -37.5t-36.5 -89.5q0 -51 36.5 -88.5t88.5 -37.5q53 0 89.5 37.5t36.5 88.5q0 52 -36.5 89.5t-89 37.5z" />
</svg>
