<?xml version="1.0" standalone="no"?>
<!DOCTYPE svg PUBLIC "-//W3C//DTD SVG 1.1//EN" "http://www.w3.org/Graphics/SVG/1.1/DTD/svg11.dtd" >
<svg xmlns="http://www.w3.org/2000/svg" xmlns:xlink="http://www.w3.org/1999/xlink" version="1.1" width="2048" height="2048" viewBox="-10 0 2068 2048">
   <path fill="currentColor"
d="M809 28q-40 9 -112 36t-128 55q-88 39 -137.5 76t-125.5 116q-80 79 -116.5 128.5t-79.5 134.5q-110 229 -110 452.5t110 455.5q43 85 78 134.5t118 128.5q79 80 127 115t136 78q133 65 222 84.5t230 19.5q142 0 231 -19.5t222 -84.5q87 -43 135.5 -78t130.5 -115
q79 -82 114.5 -130t77.5 -133q51 -113 72 -183.5t33 -181.5l11 -90h-289l-19 113q-34 221 -171.5 369.5t-320 209t-380.5 21t-359 -195.5q-127 -124 -179.5 -285t-31 -322.5t113.5 -305.5t250 -238q59 -37 158 -66.5t153 -29.5h48v-291h-54q-22 0 -69 7t-89 15zM863 424
q-116 31 -209.5 100.5t-155.5 164.5t-87.5 206.5t-5.5 230.5q22 127 88.5 233t164 177t216.5 100.5t243 9.5q128 -22 234 -90t176.5 -164t101.5 -215t12 -244q-26 -138 -101 -248.5t-181 -181t-234.5 -93t-261.5 13.5z" />
</svg>
