<?xml version="1.0" standalone="no"?>
<!DOCTYPE svg PUBLIC "-//W3C//DTD SVG 1.1//EN" "http://www.w3.org/Graphics/SVG/1.1/DTD/svg11.dtd" >
<svg xmlns="http://www.w3.org/2000/svg" xmlns:xlink="http://www.w3.org/1999/xlink" version="1.1" width="2048" height="2048" viewBox="-10 0 2068 2048">
   <path fill="currentColor"
d="M1649 715q9 -3 21.5 -5.5t26.5 -5.5h147l23 -34h3l56 -82h-1h-1l5 -9h-800l31 125h218l-368 331q-54 -77 -167 -219.5t-204 -278.5h275v-93l3 -23h-2h-1v-9h-914v125h272q39 31 122.5 127t171 202.5t155.5 197t74 107.5q6 36 7 182t-16 163q-28 31 -128.5 31t-134.5 3
l-14 84q60 3 209.5 -1t209.5 -4h281q163 0 191 3l6 -91q-31 -6 -148.5 -4.5t-140.5 -3.5q-5 -32 -8 -187.5t3 -177.5q11 -31 89 -105t171 -148.5t175 -134t102 -65.5zM1782 1402l122 9l144 -552q-20 0 -134.5 -11t-134.5 -14zM1759 1490l3 136l63 6l65 2l19 -130l-70 -3z
" />
</svg>
