<?xml version="1.0" standalone="no"?>
<!DOCTYPE svg PUBLIC "-//W3C//DTD SVG 1.1//EN" "http://www.w3.org/Graphics/SVG/1.1/DTD/svg11.dtd" >
<svg xmlns="http://www.w3.org/2000/svg" xmlns:xlink="http://www.w3.org/1999/xlink" version="1.1" width="2048" height="2048" viewBox="-11 0 2069 2048">
   <path fill="currentColor"
d="M1623 15q25 11 50.5 32t37.5 44q5 9 18 64t45.5 189.5t85 363t134.5 582.5q23 94 38.5 174.5t15.5 97.5q0 37 -14 66.5t-46 58.5q-22 22 -56 33.5t-156 39.5l-99 23l25 -48q29 -51 41.5 -110.5t12.5 -127.5q0 -136 -49.5 -248t-151.5 -200q-60 -54 -149 -103.5
t-220 -103.5q-184 -76 -250.5 -133t-66.5 -142q0 -90 71 -135.5t195 -37.5q66 3 132.5 20t137.5 46q28 11 52 21t30 13q5 2 19.5 -30.5t48.5 -120.5q22 -62 39.5 -109t19.5 -52q3 -9 -75 -43t-146 -54q-79 -22 -92 -26.5t-1 -7.5q153 -39 218 -46.5t105 10.5zM478 286.5
q-17 25.5 -34 61t-29 63.5q-14 43 -18 71.5t-4 96.5q0 65 4 93t18 65q54 148 183 258.5t353 198.5q99 39 166 77.5t101 75.5t46.5 72t9.5 89q-3 51 -25.5 83.5t-67.5 55.5q-34 17 -58.5 20t-111.5 3q-85 0 -118 -4.5t-92 -21.5q-37 -11 -82.5 -25t-70.5 -26
q-23 -11 -45.5 -19.5t-28.5 -8.5q-8 0 -26.5 32.5t-61.5 120.5q-31 62 -52 110l-21 49q0 8 75 40.5t137 49.5q31 12 58 20.5t30 8.5q6 3 -18 11.5t-67 16.5q-125 31 -191.5 17t-100.5 -82q-8 -17 -58 -219.5t-123 -528.5q-136 -581 -150.5 -672t16.5 -142q26 -37 74 -58
t167 -50q85 -19 167.5 -39t87.5 -20q0 -3 -11 14t-28 42.5z" />
</svg>
