<?xml version="1.0" standalone="no"?>
<!DOCTYPE svg PUBLIC "-//W3C//DTD SVG 1.1//EN" "http://www.w3.org/Graphics/SVG/1.1/DTD/svg11.dtd" >
<svg xmlns="http://www.w3.org/2000/svg" xmlns:xlink="http://www.w3.org/1999/xlink" version="1.1" width="2048" height="2048" viewBox="-11 0 2070 2048">
   <path fill="currentColor"
d="M1625 593q-14 11 -15.5 26.5t4.5 77.5q3 37 0 50t-14 13q-20 0 -54 24t-40 44q-3 11 4 32.5t19 26.5q3 3 15.5 7.5t23.5 4.5q17 2 24.5 5t9.5 9q6 8 3 56t-11 97q-6 28 -6 42t6 45q3 17 5.5 35.5t2.5 27.5q0 8 1.5 16.5t4.5 11.5q0 6 3 21.5t3 35.5q3 48 10 70.5t27 39.5
q25 20 40.5 24t61.5 7h45h25q40 0 79.5 -5.5t42.5 -14.5q3 -2 13 -12l24 -24q37 -29 49.5 -50t15.5 -58q3 -25 -2.5 -59t-14.5 -49q-6 -5 -11.5 -15t-8.5 -19q-5 -14 -11 -19.5t-11 -5.5q-3 0 -9 -3t-11 -6q-6 -8 -9 -8t-17 6q-5 5 -12.5 11t-9.5 8q-3 3 -7.5 10t-7.5 13
q-5 6 -6.5 14.5t-1.5 13.5q0 6 -3 17.5t-8 19.5q-3 12 -7.5 24.5t-4.5 21.5q-5 17 -13.5 25.5t-25.5 8.5q-20 0 -25.5 -6t-5.5 -28q0 -77 -1.5 -114t-7.5 -54q-8 -36 -2.5 -97t22.5 -70q3 -2 28.5 -3.5t59.5 -1.5q59 0 73 -1.5t23 -10.5q8 -5 9.5 -11t-1.5 -20
q-2 -11 -3.5 -28t-4.5 -31q0 -14 -3 -25.5t-6 -14.5q0 -3 -18 -4.5t-61 1.5q-31 0 -56.5 3t-28.5 3q-11 3 -21 -12.5t-1 -30.5q0 -5 2.5 -13.5t2.5 -17.5q0 -8 1.5 -15t1.5 -10q6 -3 6 -20t-6 -25q-6 -3 -7 -9t-1 -11q0 -9 -10 -13t-44 -7q-82 -9 -98 -9t-27 12zM1257 777
q-6 0 -16 1.5t-15 3.5q-20 0 -74 18.5t-59 27.5q-3 3 -6 4t-8 4q-9 3 -48.5 40t-48.5 51q-5 8 -11 32.5t-14 86.5q0 14 -4.5 29.5t-4.5 21.5q-11 31 -2.5 92t25.5 78q6 3 10 11.5t7 10.5q6 9 1.5 10.5t-35.5 1.5h-43v-60q0 -25 -1 -48t-4 -28q-3 -6 -1.5 -20t4.5 -34
q5 -43 3.5 -84t-9.5 -58q-3 -5 -4.5 -16.5t-1.5 -17.5q0 -25 -19.5 -63.5t-34.5 -38.5q-2 0 -5 -1t-6 -1t-7 -1.5t-7 -1.5t-13 -6t-18 -14q-26 -20 -44 -25.5t-50 -0.5q-39 6 -63 14.5t-36 19.5q-5 3 -11 7.5t-11 4.5q-9 0 -14.5 5.5t-22.5 25.5q-9 11 -17.5 18t-11.5 7
q-8 0 -15 -8.5t-7 -19.5q0 -3 -3 -10t-9 -10q-5 -8 -19 -9.5t-63 -1.5q-28 0 -55 -1.5t-35 -4.5q-34 -5 -49.5 16t-10.5 64q0 14 3 28t6 20q3 8 8.5 9.5t33.5 -1.5l43 -3l5 15q6 11 4.5 25t-9.5 48q-3 20 -3 75t3 81q11 57 12.5 74t-4.5 19q-5 3 -16.5 6t-28.5 3
q-23 0 -30 1.5t-13 9.5q-8 12 -15 43t-7 51q0 11 4 15t18 13q17 8 41.5 9.5t77.5 -3.5q17 -3 45.5 -0.5t34.5 5.5q5 6 60.5 6t72.5 -6q14 -8 22.5 -19.5t8.5 -28.5q0 -8 -1 -15l-2 -8q-3 0 -4.5 -11t-1.5 -25q0 -29 -7 -38.5t-32 -12.5q-14 -3 -18.5 -6t-4.5 -8
q0 -6 -1.5 -10.5t-4.5 -4.5q-5 -2 -5 -3.5t5 -4.5q9 -6 10.5 -28.5t-4.5 -79.5q-6 -51 -6 -63.5t6 -24.5q6 -2 8.5 -12t2.5 -18.5t1.5 -17t4.5 -11.5l6 -6q3 -2 3 -5q0 -14 42.5 -15.5t67.5 9.5q6 6 13 8.5t10 5.5q3 0 5 6l6 11q0 3 3 8.5t6 8.5q5 6 6.5 42.5t-4.5 53.5
q-5 9 -6.5 58.5t4.5 69.5q2 23 -9 32.5t-40 9.5q-34 0 -38 16t10 92q6 34 14.5 39.5t47.5 2.5q40 -5 54 -5t122 5l116 3l11 -17q9 -8 10.5 -16.5t1.5 -25.5l-3 -29l54 37q51 34 83.5 42.5t105.5 8.5q43 -3 61.5 -4t40.5 -10q12 -3 23 -8.5t17 -5.5q3 -3 13 -6t21 -5
q28 -9 48 -26t31 -42q3 -12 10 -26t10 -22q6 -9 8.5 -17.5t2.5 -11.5q0 -8 -14 -23.5t-22 -15.5q-3 0 -11.5 -3t-17.5 -6q-14 -8 -25 -8t-23 11q-3 3 -11.5 5.5t-16.5 2.5q-6 0 -14.5 4.5t-13.5 10.5q-3 5 -11.5 9.5t-17.5 9.5q-8 3 -16.5 9t-11.5 11q-6 9 -16 13t-27 10
q-11 3 -24 3h-18q-11 -6 -35.5 -21.5t-24.5 -18.5t-7 -10l-15 -15q-14 -17 -17 -23t0 -23q3 -25 10 -31t32 -6q12 0 24.5 -2.5t18.5 -5.5q20 -9 63.5 -9t58.5 9q8 6 22 7t51 1q48 3 72 -2.5t41 -16.5q12 -9 13.5 -19t1.5 -55q0 -54 -6 -82t-20 -48q-6 -9 -11.5 -19
t-11.5 -18q-2 -9 -8 -14l-9 -9q-2 0 -10.5 -7t-14.5 -18q-11 -12 -19.5 -17.5t-20.5 -5.5q-5 -3 -20.5 -8.5t-27.5 -11.5q-51 -22 -70.5 -28t-42.5 3zM1288 910q14 8 45.5 43.5t31.5 41.5q0 8 -11.5 14t-37.5 11q-36 9 -77.5 9t-52.5 -9q-3 -3 -8.5 -4t-8.5 -1
q-6 0 -10 -7.5t-4 -15.5l4 -7q4 -7 13 -16q6 -5 14.5 -16.5t13.5 -17.5q20 -25 44 -32t44 7zM59 1272q-14 9 -28 24.5t-23 32.5q-23 57 18.5 103.5t100.5 29.5q65 -17 72 -86.5t-52 -97.5q-20 -11 -45.5 -11t-42.5 5z" />
</svg>
