<?xml version="1.0" standalone="no"?>
<!DOCTYPE svg PUBLIC "-//W3C//DTD SVG 1.1//EN" "http://www.w3.org/Graphics/SVG/1.1/DTD/svg11.dtd" >
<svg xmlns="http://www.w3.org/2000/svg" xmlns:xlink="http://www.w3.org/1999/xlink" version="1.1" width="2048" height="2048" viewBox="-10 0 2068 2048">
   <path fill="currentColor"
d="M823 13q-124 29 -238.5 85.5t-211 135.5t-173 179.5t-121.5 213.5q-79 190 -79 398t79 397q40 99 105 189.5t147 167t179.5 134.5t205.5 92q76 25 124 31t184 6q139 0 185.5 -6t125.5 -31q161 -54 292.5 -150t225 -223.5t144.5 -283t51 -322.5q0 -170 -49.5 -322.5
t-141.5 -280t-220.5 -223.5t-290.5 -150q-73 -25 -121 -32t-170 -10q-73 -3 -141 0t-91 5zM1140 684q133 232 178 360.5t28 210.5q-28 122 -125.5 192.5t-219.5 59.5q-59 -6 -118.5 -40t-96.5 -79l-31 -42h51q105 0 173 -85t51 -192q-6 -43 -34.5 -120.5t-67.5 -154.5
l-28 -56l65 -111q25 -48 47.5 -79t25.5 -28t34 51t68 113zM871 808q82 164 99 249t-17 147q-65 108 -182.5 84t-148.5 -152q-5 -17 -1 -43.5t13 -57.5q17 -57 90.5 -193t84.5 -136q6 0 23 30t39 72z" />
</svg>
