<?xml version="1.0" standalone="no"?>
<!DOCTYPE svg PUBLIC "-//W3C//DTD SVG 1.1//EN" "http://www.w3.org/Graphics/SVG/1.1/DTD/svg11.dtd" >
<svg xmlns="http://www.w3.org/2000/svg" xmlns:xlink="http://www.w3.org/1999/xlink" version="1.1" width="2048" height="2048" viewBox="-10 0 2068 2048">
   <path fill="currentColor"
d="M1019 7q-37 14 -59.5 39.5t-33.5 64.5q-9 26 -7.5 118t18.5 590q3 119 7 243q4 125 8 237q5 112 6.5 202.5t3.5 138.5q3 130 7.5 193.5t7.5 80.5q14 63 59 98t110 35q12 0 132 -19.5t261.5 -43.5t262 -45.5t131.5 -24.5q26 -8 52.5 -33.5t41.5 -56.5q19 -45 20.5 -87.5
t-12.5 -255.5q-11 -144 -22.5 -312.5t-21.5 -324t-17 -278.5t-10 -177q-8 -108 -15 -143.5t-27 -69.5q-17 -22 -45.5 -43.5t-53.5 -29.5q-9 -3 -62.5 -11.5t-118.5 -16.5q-411 -60 -501.5 -70t-121.5 2zM1509 389q181 14 227.5 18t60.5 13q23 11 40 29.5t28 38.5q9 20 13 48
t10 167q6 79 14.5 215t13.5 246q12 190 13 234t-1 64q-12 31 -41.5 57.5t-69.5 35.5q-11 3 -101.5 13t-197 21t-197 19.5t-101.5 5.5q-43 -2 -74 -26.5t-42 -66.5q-6 -14 -8.5 -44t-5.5 -98q0 -48 -6 -198q-6 -149 -11 -311q-12 -272 -13 -337t4 -82q9 -23 24.5 -42.5
t38.5 -28.5q25 -11 83 -9.5t299 18.5zM1149 397q-28 9 -45 34.5t-17 61.5q0 17 10 20t89 9q48 5 72 15t44 33t25.5 78t16.5 344q15 294 13.5 342t-21.5 74q-3 8 -15.5 16.5t-24.5 14.5q-19 8 -37.5 12.5t-64.5 10.5q-31 2 -52 5l-21 3q-3 3 4 30t16 41q5 8 13.5 18t14.5 13
q23 17 52.5 17t122.5 -9q46 -2 78.5 -8t35.5 -6l-7 -171q-7 -171 -19 -409l-25 -577l-99 -9q-85 -6 -112 -7t-47 4zM597 202q-28 8 -43.5 19.5t-29.5 28.5q-20 34 -21.5 102t9.5 640q9 518 13 629.5t16 134.5q14 37 45 56.5t79 25.5q14 3 143 -12.5t132 -18.5t-3 -160
t-6 -160l-28 3t-68 5q-71 9 -99 7.5t-51 -12.5q-20 -12 -35.5 -34.5t-21.5 -50.5q-2 -9 -5 -135t-6 -293q-8 -345 -5.5 -393t31.5 -74q22 -19 46 -22t101 0q37 3 66.5 5.5t32.5 2.5l11 3l-3 -102q0 -42 -2.5 -83t-2.5 -55l-3 -40l-125 -11q-104 -12 -122.5 -12t-44.5 6z
M246 434q-28 6 -46.5 25.5t-24.5 42.5v106q0 98 3 231q9 390 11.5 527.5t8.5 151.5q6 23 25.5 40t42.5 25q20 6 35.5 6t74.5 -6q34 -5 64 -8t38 -3l20 -3l-3 -113q-2 -45 -4 -79l-1 -34h-20q-20 0 -45 2q-63 6 -87 3t-41 -17q-22 -22 -26.5 -60.5t-10.5 -284.5l-5 -294
l8 -20q6 -12 13 -17.5t18 -11.5q15 -8 30.5 -8t74.5 3l82 3l-5 -97q0 -36 -2 -66l-1 -30q-3 -3 -61 -7t-115 -10h-30q-15 0 -21 3zM676 519q-22 11 -33.5 38t-8.5 64l6 31l51 3q45 3 67.5 11.5t36.5 30.5l15 20v558l-15 14q-17 17 -39.5 25.5t-59.5 11.5l-42 2l-3 26
q0 45 14 75t45 41q15 6 29 6t65 -3q28 -3 50.5 -6t25.5 -5q6 -3 6 -81t-9 -378q-5 -343 -9.5 -408t-18.5 -73q-6 0 -30 -3t-55 -3q-42 -3 -60.5 -1.5t-27.5 4.5zM31 709q-3 2 -10 6.5t-10 10.5q-8 8 -9.5 36.5t-1.5 172.5q0 82 1.5 160t4.5 106q0 45 2.5 58t8.5 21
q11 12 32.5 17.5t63.5 2.5l48 -3l-2 -59v-60h-43q-54 -2 -59.5 -20.5t-8.5 -160.5q0 -133 4.5 -155.5t29.5 -28.5q9 -3 21 -3h22l25 3v-102l-14 -2q-14 -3 -55 -3t-50 3zM283 762v51h14q14 0 29.5 7t21.5 19q6 8 8.5 152.5t-5.5 155.5q-3 12 -18.5 21.5t-29.5 9.5h-11v40
q0 17 1 34t1 23q3 11 7.5 12.5t21.5 1.5q22 0 40.5 -7t27.5 -21q8 -9 8 -43t-6 -209q-2 -156 -5 -201.5t-6 -56.5q-11 -17 -25.5 -25.5t-42.5 -11.5h-31v48z" />
</svg>
