<?xml version="1.0" standalone="no"?>
<!DOCTYPE svg PUBLIC "-//W3C//DTD SVG 1.1//EN" "http://www.w3.org/Graphics/SVG/1.1/DTD/svg11.dtd" >
<svg xmlns="http://www.w3.org/2000/svg" xmlns:xlink="http://www.w3.org/1999/xlink" version="1.1" width="2048" height="2048" viewBox="-10 0 2058 2048">
   <path fill="currentColor"
d="M430 316l185 -21q185 -22 406.5 -63t406.5 -99t185 -133v472l-148 113q-148 113 -1035 203v-472zM435 944l185 -21q185 -21 406.5 -62t406.5 -99.5t185 -130.5v473l-148 113q-148 113 -1035 200v-473zM435 1576l185 -21q185 -21 406.5 -62.5t406.5 -99.5t185 -133v472
l-148 113q-148 114 -1035 203v-472z" />
</svg>
