<?xml version="1.0" standalone="no"?>
<!DOCTYPE svg PUBLIC "-//W3C//DTD SVG 1.1//EN" "http://www.w3.org/Graphics/SVG/1.1/DTD/svg11.dtd" >
<svg xmlns="http://www.w3.org/2000/svg" xmlns:xlink="http://www.w3.org/1999/xlink" version="1.1" width="2048" height="2048" viewBox="-10 0 2058 2048">
   <path fill="currentColor"
d="M753 1584l-22 25q-23 25 77 35q122 15 206.5 11t219.5 -29l31 19q31 19 81 36q-152 65 -307.5 70t-258 -21t-124.5 -70t97 -76zM703 1360l-27 34q-28 33 75 46q129 12 248.5 9.5t299.5 -37.5l22 19q22 19 60 34q-182 52 -359 58t-291.5 -15t-135.5 -63.5t108 -84.5z
M1117 979q74 85 25 151l-50 66l111 -85t23 -207q-79 -114 -78 -202.5t335 -283.5l-105 34q-104 34 -204 102.5t-141 174t84 250.5zM1647 1751l14 29q14 28 -78 56q-85 25 -250.5 41t-344 18.5t-337.5 -11t-234 -46.5q-55 -25 10 -52.5t97 -32.5q32 -7 51 -8l19 -1
q-30 -20 -111 -5.5t-144.5 46t-73.5 67.5t105 53q306 50 573.5 45t451 -37.5t258 -79.5t-5.5 -82zM790 1128l-155 48q-156 47 23 72q78 10 215 8.5t279 -13.5q114 -10 211 -25l97 -15l-32 15q-32 15 -62 35q-142 37 -329 48.5t-340 2.5t-230.5 -35t0.5 -66q134 -65 229 -70z
M1458 1502q289 -152 233 -269t-151 -97q-22 5 -32 7l-10 3l7 -9q8 -9 25 -16q185 -65 246 112t-325 279l3 -4q4 -4 4 -6zM1226 0l55 147t-256 393q-249 197 -153.5 326.5t153.5 256.5q-145 -132 -229.5 -249t-12.5 -224q52 -77 140.5 -142t167 -136t123.5 -158t12 -214z
M828 2042q139 8 302.5 5.5t305.5 -23.5t239 -62.5t102 -105.5l-48 38q-47 39 -256 79q-120 22 -248 32t-251.5 11t-236.5 -6t-198 -22l53 21q54 21 236 33z" />
</svg>
