<?xml version="1.0" standalone="no"?>
<!DOCTYPE svg PUBLIC "-//W3C//DTD SVG 1.1//EN" "http://www.w3.org/Graphics/SVG/1.1/DTD/svg11.dtd" >
<svg xmlns="http://www.w3.org/2000/svg" xmlns:xlink="http://www.w3.org/1999/xlink" version="1.1" width="2048" height="2048" viewBox="-10 0 2068 2048">
   <path fill="currentColor"
d="M563 1804l337 46q169 23 337 47q169 23 337 46q169 23 340 46q-57 -96 -115.5 -191.5t-115 -190t-113.5 -189t-114 -190.5q-112 70 -222.5 142t-222 144t-224.5 144q-113 74 -224 146zM2041 380q-29 44 -59 89l-59 91q-53 76 -104 153l-102 155l-103 155q-51 77 -104 155
q-4 9 -8.5 17t2.5 21q50 83 99 165t99 164t99 164t99 164q14 25 31 51t37 51q9 -200 20 -400q10 -201 20 -397q10 -198 19.5 -397.5t20.5 -400.5h-3h-4zM237 1059q4 5 13.5 7t13.5 0q96 -48 191.5 -94.5t189.5 -96.5q29 -16 54 -42.5t50 -51.5q87 -79 173.5 -158t173.5 -158
q4 -7 10 -11.5t10 -11.5q30 -59 60.5 -120.5t62.5 -125.5q-36 -14 -72.5 -27.5t-73.5 -24.5q-4 -3 -11 -0.5t-11 4.5q-85 48 -169 93.5t-166 97.5q-39 25 -74.5 59.5t-71.5 68.5q-57 53 -115 105t-115 107q-14 14 -27.5 29.5t-24.5 34.5l-78 114t-77 116q20 23 40.5 44.5
t43.5 41.5zM699 957q-22 100 -46 200l-48 201l-48 200t-47 203q114 -73 227 -146t224.5 -144.5t222 -143.5t222.5 -142q-89 -28 -177 -56.5t-175.5 -57t-176.5 -56.5zM1964 383l-192 32t-190 32q-94 15 -189 31l-190 32q64 157 128.5 313t128.5 314q64 -94 126.5 -188.5
t125.5 -188.5l125 -189q63 -95 127 -188zM711 902q174 57 344 113q172 56 346 113q-64 -160 -127.5 -313.5t-127.5 -311.5q-107 99 -218 200q-107 98 -217 199zM246 1216q-62 147 -122 290t-119 287q116 -2 229.5 -5.5t230.5 -8.5q-55 -141 -109.5 -280t-109.5 -283z
M469 1647q3 -2 4 -2h3q41 -173 83 -345t86 -352q-96 48 -187 95.5t-185 95.5q48 123 98 252t98 256zM1870 344q-54 -14 -109 -28.5t-112 -28.5q-77 -20 -157 -42t-159 -42q-9 -3 -17 -3t-13 14q-30 57 -58.5 114t-55.5 114q-2 2 -2 5v6q171 -25 341.5 -51t341.5 -53v-2v-3z
M1444 171l298 82t301 84q-25 -75 -49 -143q-24 -69 -49 -139q-127 27 -251.5 54.5t-249.5 54.5v3v4zM522 1848q-57 -5 -114 -3q-58 3 -112 5q-48 0 -93.5 1t-93.5 3q-4 0 -8.5 1.5t-9.5 7.5q191 16 383 35q188 18 384 36q192 18 383.5 35.5t382.5 35.5q0 -3 1.5 -4t1.5 -3
q-123 -16 -246.5 -33t-246.5 -35q-152 -21 -306 -42.5t-306 -39.5zM14 1617q50 -113 99 -228.5t99 -228.5q4 -12 3 -21t-10 -18q-20 -21 -40.5 -42.5t-43.5 -44.5q-30 153 -59.5 301t-61.5 296h3h2l5.5 -5.5t3.5 -8.5zM1312 130q84 -21 169 -39l168 -36q5 -3 10.5 -4
t10.5 -3v-2v-3q-118 16 -238 32t-245 32q34 16 63.5 24t61.5 -1z" />
</svg>
