<?xml version="1.0" standalone="no"?>
<!DOCTYPE svg PUBLIC "-//W3C//DTD SVG 1.1//EN" "http://www.w3.org/Graphics/SVG/1.1/DTD/svg11.dtd" >
<svg xmlns="http://www.w3.org/2000/svg" xmlns:xlink="http://www.w3.org/1999/xlink" version="1.1" width="2048" height="2048" viewBox="-10 0 2068 2048">
   <path fill="currentColor"
d="M1024 0q-212 0 -399 80.5t-325.5 219t-219 325.5t-80.5 399t80.5 399t219 325.5t325.5 219t399 80.5t399 -80.5t325.5 -219t219 -325.5t80.5 -399t-80.5 -399t-219 -325.5t-325.5 -219t-399 -80.5zM1253 354q28 -51 83.5 -65.5t103.5 14.5q51 28 65 83t-14 103
q-29 48 -84 64t-103 -13q-48 -28 -63.5 -83t12.5 -103zM1024 430q42 0 82 5.5t76 17.5q6 39 30 76t64 59q39 23 81.5 26t82.5 -14q76 76 123 175t52 212l-192 3q-14 -153 -128.5 -259t-270.5 -106q-45 0 -87.5 10t-79.5 27l-96 -170q59 -31 125.5 -46.5t137.5 -15.5z
M328.5 1160q-56.5 0 -97.5 -39.5t-41 -96.5t41 -96.5t97 -39.5q57 0 96.5 39.5t39.5 96.5t-39.5 96.5t-96 39.5zM450 1174q31 -28 50.5 -66.5t19.5 -83.5t-19.5 -83.5t-50.5 -66.5q25 -105 90 -194t156 -151l99 170q-77 53 -123.5 138t-46.5 187t46.5 187t123.5 141l-99 167
q-91 -59 -156 -148.5t-90 -196.5zM1440 1745q-48 29 -103.5 14.5t-83.5 -65.5q-28 -48 -12.5 -103t63.5 -83q48 -29 103 -13t84 64q28 51 14 104.5t-65 81.5zM1440 1448q-40 -14 -82.5 -11t-81.5 25q-40 23 -64 58.5t-30 74.5q-36 12 -76 17.5t-82 5.5q-71 0 -137.5 -15.5
t-125.5 -46.5l96 -170q37 17 79.5 27t87.5 10q156 0 270.5 -104.5t128.5 -257.5l192 3q-5 113 -52 210.5t-123 173.5z" />
</svg>
