<?xml version="1.0" standalone="no"?>
<!DOCTYPE svg PUBLIC "-//W3C//DTD SVG 1.1//EN" "http://www.w3.org/Graphics/SVG/1.1/DTD/svg11.dtd" >
<svg xmlns="http://www.w3.org/2000/svg" xmlns:xlink="http://www.w3.org/1999/xlink" version="1.1" width="2048" height="2048" viewBox="-10 0 2068 2048">
   <path fill="currentColor"
d="M223 2028h998l-33 -84q-34 -85 -71 -223t-59.5 -310.5t-2.5 -347.5q23 -172 94.5 -298.5t165 -213t192 -130t177.5 -51.5q155 -17 237 43l82 61l45 -68l-52 -46q-52 -47 -144 -100.5t-214.5 -93t-260.5 -28.5q-141 14 -261 65t-219 128.5t-178 177.5t-141 213
q-121 226 -196 408t-122 419q-48 237 -43 358zM23 1526l194 14l-34 198l-183 -23zM330 1111l54 -146l-172 -65l-57 155zM575 609l102 -121l-133 -85l-104 116zM841 144l90 107l124 -70l-90 -102zM1281 20l22 107l155 -3l-14 -96zM1803 135l-3 68l104 57l23 -34zM1780 426v56
l102 12v-45zM1458 474l48 90l71 -56l-14 -59zM1303 590l76 112l-45 79l-110 -118zM1154 903l-48 96l127 110l31 -124zM1100 1244l-5 133l157 67l-8 -124zM1145 1709l40 136l197 11l-70 -147h-167z" />
</svg>
