<?xml version="1.0" standalone="no"?>
<!DOCTYPE svg PUBLIC "-//W3C//DTD SVG 1.1//EN" "http://www.w3.org/Graphics/SVG/1.1/DTD/svg11.dtd" >
<svg xmlns="http://www.w3.org/2000/svg" xmlns:xlink="http://www.w3.org/1999/xlink" version="1.1" width="2048" height="2048" viewBox="-10 0 2058 2048">
   <path fill="currentColor"
d="M779 987h487q101 0 173 -73t72 -174v-464q0 -102 -73.5 -170.5t-171.5 -82.5q-62 -12 -126.5 -17.5t-126.5 -5.5q-65 3 -124 7t-110 16q-154 25 -199 85.5t-45 167.5v185h489v62h-672q-107 0 -191.5 63.5t-115.5 184.5q-31 138 -32.5 243.5t32.5 251.5q28 110 91.5 178.5
t170.5 68.5h166v-222q0 -121 91.5 -212.5t214.5 -91.5zM748 338q-39 0 -65.5 -28.5t-26.5 -64.5q0 -40 26.5 -66.5t65.5 -26.5q37 0 63.5 26.5t26.5 66.5q0 36 -26.5 64.5t-63.5 28.5zM1997 771q-25 -107 -80 -177.5t-162 -70.5h-182v217q0 126 -93 217.5t-214 91.5h-487
q-101 0 -172.5 74.5t-71.5 173.5v464q0 101 73 161.5t171 88.5q116 34 232.5 37t254.5 -37q93 -28 169 -85.5t76 -164.5v-186h-487v-62h731q107 0 156.5 -67.5t85.5 -179.5q40 -116 38.5 -232.5t-38.5 -262.5zM1297 1699q39 0 66 28t27 65q0 39 -27 67t-66 28q-37 0 -65 -28
t-28 -67q0 -37 28 -65t65 -28z" />
</svg>
