<?xml version="1.0" standalone="no"?>
<!DOCTYPE svg PUBLIC "-//W3C//DTD SVG 1.1//EN" "http://www.w3.org/Graphics/SVG/1.1/DTD/svg11.dtd" >
<svg xmlns="http://www.w3.org/2000/svg" xmlns:xlink="http://www.w3.org/1999/xlink" version="1.1" width="2048" height="2048" viewBox="-10 0 2068 2048">
   <path fill="currentColor"
d="M515 733h-359l-156 786h184l39 -204h176q121 9 234.5 -87.5t113.5 -271.5q0 -102 -58 -158.5t-174 -64.5zM379 1171h-116l48 -291h125q51 0 84.5 21t33.5 66q-8 122 -59 159t-116 45zM1165 733h-175l40 -204h-184l-156 786h184l88 -435h144q51 0 58 19.5t1 56.5l-67 359
h192l68 -398q17 -71 -30 -123.5t-163 -60.5zM1816 733h-359l-156 786h184l40 -204h172q125 9 238 -87.5t113 -271.5q0 -102 -58 -158.5t-174 -64.5zM1680 1171h-119l51 -291h125q51 0 83.5 21t32.5 66q-6 122 -57 159t-116 45z" />
</svg>
