<?xml version="1.0" standalone="no"?>
<!DOCTYPE svg PUBLIC "-//W3C//DTD SVG 1.1//EN" "http://www.w3.org/Graphics/SVG/1.1/DTD/svg11.dtd" >
<svg xmlns="http://www.w3.org/2000/svg" xmlns:xlink="http://www.w3.org/1999/xlink" version="1.1" width="2048" height="2048" viewBox="-10 0 2068 2048">
   <path fill="currentColor"
d="M2039 979q-9 -12 -109 -136t-126 -155q-22 -29 -37.5 -30t-29.5 1q-15 3 -140.5 23t-145.5 25q-20 3 -29.5 11.5t1.5 28.5q11 14 96 134t110 154l-619 150l-494 -822q-15 -23 -24.5 -31.5t-43.5 -8.5q-34 3 -213.5 17t-196.5 17q-20 0 -32.5 14t4.5 57q11 19 76 162
t141.5 308.5t140 301t66.5 146.5q8 17 32 38.5t72 9.5q51 -14 192.5 -50.5t237.5 -59.5q51 90 131.5 234.5t100.5 169.5q25 37 47.5 37t62.5 -11q14 -6 115.5 -43t220.5 -79t218 -77.5t110 -41.5q20 -8 30 -16.5t-5 -28.5q-11 -14 -101.5 -135.5t-152.5 -206.5
q42 -11 152.5 -39.5t127.5 -33.5q20 -6 22.5 -14.5t-8.5 -19.5zM914 1208q-6 3 -182.5 45t-190.5 45t-17 1.5t-3 -7.5q-3 -2 -66.5 -135t-141 -294t-144 -295.5t-66.5 -137.5q-6 -8 -6 -13.5t6 -5.5q3 0 167 -14.5t172 -14.5q9 0 10 1.5t4 7.5l71 123q71 123 157 271.5
t158 274t75 128.5q6 11 4.5 15.5t-7.5 4.5zM1892 1391q3 9 4.5 13t-10.5 7q-8 3 -100 35.5t-202 69.5t-202 68t-95 31q-8 5 -15 4t-19 -18q-11 -15 -106 -177l-94 -163l604 -158q12 -3 17.5 -3t11.5 12q8 11 104 142.5t102 136.5zM1932 962q-12 3 -125 31l-113 28l-181 -249
q-3 -5 -4 -9.5t7 -6.5q11 0 117 -20t112 -20q9 -3 14.5 -3t13.5 14q9 12 89.5 113.5t86.5 107.5q2 5 -3.5 9.5t-13.5 4.5z" />
</svg>
