<?xml version="1.0" standalone="no"?>
<!DOCTYPE svg PUBLIC "-//W3C//DTD SVG 1.1//EN" "http://www.w3.org/Graphics/SVG/1.1/DTD/svg11.dtd" >
<svg xmlns="http://www.w3.org/2000/svg" xmlns:xlink="http://www.w3.org/1999/xlink" version="1.1" width="2048" height="2048" viewBox="-10 0 2068 2048">
   <path fill="currentColor"
d="M216 542q-34 116 -6 238t119 216l457 453l201 -201l-457 -457q-48 -48 -48 -117.5t48 -120.5q51 -48 120.5 -48t118.5 48l17 17l201 -201l-14 -17q-88 -85 -201.5 -116.5t-224.5 -5.5q-17 -97 -93.5 -163.5t-178.5 -66.5q-113 0 -192.5 81t-79.5 194q0 99 61 173t152 94z
M596 808l201 202l457 -457q48 -48 117.5 -48t117.5 48q51 51 51 120.5t-51 117.5l-14 17l201 202l17 -17q91 -91 119.5 -211.5t-5.5 -234.5q102 -14 170 -90.5t68 -181.5q0 -113 -79.5 -194t-192.5 -81q-105 0 -181.5 68t-90.5 170q-117 -34 -237.5 -5.5t-213.5 119.5
l-37 39zM1813 1503q28 -113 -2 -228t-118 -203l-456 -454l-202 202l454 456q51 49 51 118.5t-48 117.5q-51 51 -120.5 51t-117.5 -51l-17 -14l-202 201l15 17q93 91 216.5 119.5t239.5 -5.5q20 93 95 155.5t175 62.5q113 0 192.5 -81t79.5 -194q0 -102 -68 -178.5
t-167 -91.5zM1427 1259l-202 -201l-456 457q-49 48 -118.5 48t-120.5 -51q-48 -48 -48 -117.5t48 -118.5l17 -17l-204 -201l-14 14q-88 88 -117.5 206t-1.5 228q-91 23 -150.5 96.5t-59.5 170.5q0 113 79.5 194t192.5 81q100 0 173.5 -61t96.5 -152q110 29 226.5 -1
t204.5 -118z" />
</svg>
