<?xml version="1.0" standalone="no"?>
<!DOCTYPE svg PUBLIC "-//W3C//DTD SVG 1.1//EN" "http://www.w3.org/Graphics/SVG/1.1/DTD/svg11.dtd" >
<svg xmlns="http://www.w3.org/2000/svg" xmlns:xlink="http://www.w3.org/1999/xlink" version="1.1" width="2048" height="2048" viewBox="-10 0 2058 2048">
   <path fill="currentColor"
d="M1470 379q-79 -47 -153.5 -77t-148.5 -79q-45 -30 -104.5 -95.5t-111.5 -127.5q-12 102 -40.5 151.5t-63.5 78.5q-74 60 -130 87t-120 62q-27 15 -104 68t-158.5 148.5t-144.5 236.5t-63 332t74 353t199 279.5t288.5 184.5t341.5 67q179 0 340 -63t283.5 -176t194 -274
t71.5 -356q0 -196 -61.5 -339.5t-139.5 -241.5t-151 -151t-98 -68zM1482 1862q-7 8 -68 41.5t-140 40.5t-175.5 2.5t-161.5 -64.5q-10 -12 -8.5 -24.5t8.5 -17.5q8 -5 14 -10t16 -5q7 0 8.5 1.5t6.5 3.5q30 22 80.5 39.5t144.5 17.5t160 -21t95 -43q13 -10 19 -5t9 10
q0 7 1 14.5t-9 19.5zM1135 1681q18 -14 42.5 -34t49.5 -30t42 -11t40 -1q25 0 48.5 2.5t40.5 14.5t28.5 34.5t18.5 37.5q5 15 0 23.5t-17 15.5q-10 5 -15 1.5t-15 -23.5t-26 -36t-68 -16t-75.5 16t-48.5 36t-37.5 27.5t-19.5 -5.5q-10 -12 -6 -24.5t18 -27.5zM1658 1699
q-52 -5 -143.5 -116.5t-158.5 -116.5q-45 0 -109.5 37t-140 81.5t-156 83t-154.5 38.5q-89 0 -126 -12.5t-67 -31.5q-45 -30 -67 -78.5t-20 -112.5q3 -116 97 -208t230 -92q174 -2 297.5 113t210.5 113q74 0 193 -96.5t188 -96.5q75 0 101 58t26 105q0 45 -16.5 116.5
t-50.5 123.5q-37 52 -64.5 73t-69.5 19z" />
</svg>
