<?xml version="1.0" standalone="no"?>
<!DOCTYPE svg PUBLIC "-//W3C//DTD SVG 1.1//EN" "http://www.w3.org/Graphics/SVG/1.1/DTD/svg11.dtd" >
<svg xmlns="http://www.w3.org/2000/svg" xmlns:xlink="http://www.w3.org/1999/xlink" version="1.1" width="2048" height="2048" viewBox="-10 0 2068 2048">
   <path fill="currentColor"
d="M1406 1024q0 158 -112 270t-270 112t-270 -112t-112 -270t112 -268.5t270 -110.5t270 110.5t112 268.5zM1021 571h920q-63 -127 -157.5 -231.5t-213.5 -179.5t-257.5 -117.5t-288.5 -42.5q-122 0 -236.5 28.5t-217.5 79t-191 121.5t-158 161l350 600q15 -175 143.5 -297
t306.5 -122zM1024 1479q-147 0 -263 -84.5t-164 -214.5l-424 -725q-82 122 -127.5 266.5t-45.5 302.5q0 192 68 364.5t185.5 308.5t277 225t346.5 115l353 -608q-48 22 -98.5 36t-107.5 14zM1974 645h-704q93 59 150 159.5t57 219.5q0 59 -14.5 114.5t-39.5 103.5l-467 803
q17 3 34 3h34q212 0 399 -80.5t325.5 -219t219 -325.5t80.5 -399q0 -102 -20 -196.5t-54 -182.5z" />
</svg>
