<?xml version="1.0" standalone="no"?>
<!DOCTYPE svg PUBLIC "-//W3C//DTD SVG 1.1//EN" "http://www.w3.org/Graphics/SVG/1.1/DTD/svg11.dtd" >
<svg xmlns="http://www.w3.org/2000/svg" xmlns:xlink="http://www.w3.org/1999/xlink" version="1.1" width="2048" height="2048" viewBox="-10 0 2058 2048">
   <path fill="currentColor"
d="M2020 1071q0 -117 -26 -227t-74 -204q14 -37 29.5 -88.5t34.5 -117.5q56 -214 -54 -332.5t-310 -98.5q-120 14 -234 47t-225 86q-8 -3 -17 -3h-19q-164 0 -311.5 60t-264 163t-196 244.5t-107.5 305.5q137 -208 294 -317l157 -108q-136 150 -253 300t-206 306q0 3 -1.5 6
t-4.5 5q-75 134 -125 273t-72 289q-31 206 66.5 309t308.5 72q73 -11 180 -61t143 -70q89 48 187.5 71.5t204.5 23.5q147 0 279.5 -46t243.5 -129.5t193 -197.5t129 -250h-484q-52 95 -144 152t-203 57q-159 0 -274 -115.5t-124 -279.5h1271q6 -31 7 -63t1 -62zM416 1971
q-114 14 -203 -120.5t78 -440.5q55 144 149.5 262.5t220.5 198.5q-34 20 -109 57.5t-136 42.5zM744 918q19 -156 132 -260.5t263 -104.5q153 0 265.5 104.5t129.5 260.5h-790zM1461 203q284 -139 394 -39t79 253q-5 20 -17.5 68.5t-26.5 95.5q-75 -128 -185 -225t-244 -153z
" />
</svg>
