<?xml version="1.0" standalone="no"?>
<!DOCTYPE svg PUBLIC "-//W3C//DTD SVG 1.1//EN" "http://www.w3.org/Graphics/SVG/1.1/DTD/svg11.dtd" >
<svg xmlns="http://www.w3.org/2000/svg" xmlns:xlink="http://www.w3.org/1999/xlink" version="1.1" width="2048" height="2048" viewBox="-10 0 2068 2048">
   <path fill="currentColor"
d="M1707 269q-6 -5 -10 -9.5t-7 -7.5q3 3 7 7.5t10 9.5zM48 818l-3 3q-3 2 -5 8v3q0 3 -3 5q3 -5 5.5 -9.5t5.5 -9.5zM333 354l5 -4l1 -1q65 -65 141.5 -116t158.5 -88q87 -37 180.5 -55t186.5 -18q91 0 178.5 17t169.5 50q51 9 110 26t113 48q-122 -88 -266 -136t-305 -48
q-206 0 -387 79t-314 218q6 6 13 14.5t15 13.5zM684 1095q-6 -3 -10 -8.5t-7 -8.5q-3 11 -3 22v23q0 23 3 45.5t11 47.5q6 23 18.5 47t32.5 44q14 17 31 29.5t37 26.5l-3 3q40 0 92 -3t83 -11q48 -17 106 -60l58 -42q20 -20 40 -15.5t39 4.5q20 0 23 -24t-23 -53
q-25 -28 -98.5 -45t-138.5 29q-68 45 -151.5 21t-139.5 -72zM746 541q-6 17 -8.5 36.5t-2.5 39.5q0 23 4 45.5t16 47.5q5 17 13.5 31.5t14.5 25.5q5 8 9.5 14t10.5 11q8 -8 18 -15t18 -13q20 -11 72.5 -38t63.5 -38q8 -9 19.5 -47t-5.5 -52q-14 -17 -89 -14.5t-106 -2.5
q-14 -3 -26.5 -11.5t-21.5 -19.5zM772 953v0v-2v2zM2012 764q0 25 -15.5 55t-21.5 35q3 -2 4.5 -10.5t1.5 -34.5q0 -34 -1.5 -114.5t-46.5 -179.5q-42 -96 -95 -144l-52 -48v31q-8 -34 -69 -78l-61 -43v39q158 147 195 238l37 90q-28 -90 -99 -162.5t-141 -139.5
q-68 -65 -176 -99l-107 -34q153 87 229 195l76 107q-79 -76 -134 -85l-55 -8q48 34 77.5 76.5t72.5 112.5q45 68 51 190l5 121q-22 -53 -55 -78l-32 -24l7 73q7 72 12 125q6 54 -11 129l-17 75q0 -37 -15 -50l-16 -12v31q0 31 -34 133q-31 101 -77.5 139.5t-55.5 35.5
q-8 -3 -4 -14l4 -12l-14 -1q-14 -2 -37 32q-17 29 -43.5 46t-35.5 19q9 -5 13 -21l4 -15l-31 11q-31 11 -133 28q-101 14 -149 -12l-49 -27q12 -9 41 -5l30 5q0 -9 -41 -21.5t-92 -21.5q-39 -3 -61.5 -19.5t-31.5 -31.5q-20 -14 -35.5 -26.5t-29.5 -29.5t-25.5 -34
t-19.5 -37q-17 -37 -24 -73.5t-7 -67.5t4 -58t10 -47q3 -19 7 -30.5t4 -14.5l3 3q6 -20 17 -34t23 -20q-3 -3 -7.5 -5.5t-9.5 -5.5q-20 -9 -42.5 -13t-45.5 -1t-45.5 14t-42.5 25q-17 15 -32.5 34.5t-23.5 42.5q-11 22 -15.5 46t-4.5 50q0 25 4.5 49t12.5 50q11 22 24 45
t27 42q17 20 35.5 38.5t37.5 35.5q-19 -17 -39 -34t-37 -37t-32.5 -41t-23.5 -46q-12 -23 -19 -48.5t-7 -53.5q-3 -26 1.5 -52.5t12.5 -52.5q12 -25 26 -47.5t36 -42.5l23 -17q11 -9 23 -14q11 -6 25 -11.5t28 -8.5q12 -3 27.5 -3t29.5 3q14 0 28 4t26 13q14 6 25 13t23 15
l10 10l9 10q3 3 6 4.5t6 3.5q0 3 2.5 6t2.5 6q12 -31 9 -69.5t-6 -49.5q-5 -8 -13.5 -19.5t-17.5 -25.5q-8 -12 -15 -26l-16 -31q-11 -28 -17 -56.5t-6 -53.5q0 -28 4.5 -53.5t12.5 -45.5q0 -6 1.5 -10t4.5 -10q17 -76 76 -140l60 -63q-119 -17 -193 54l-73 70h-3
q-8 9 -29.5 37t-24.5 56l3 -38q3 -38 14 -72q-45 -14 -93 -9.5t-73 9.5q-29 6 -55.5 16t-49.5 24q-22 14 -42 29.5t-37 32.5q-31 31 -49 57l-19 25v0q-59 85 -93 218l-34 132q8 -28 28 -56l20 -28q-34 48 -34 200v153q0 -34 13 -68l13 -34q5 74 61.5 270t260.5 372
q203 178 353 217l150 40q-43 -14 -55 -28l-13 -15q133 54 209 57l76 3q-22 -14 -28 -23l-6 -8q142 5 298.5 -31.5t202.5 -67.5q42 -31 75 -79l32 -48q113 -54 188 -146t98 -148q22 -57 11 -106l-11 -50l9 -21q10 -21 61 -140q54 -121 27 -254zM254 408q12 -9 26 -16t31 -12
q-62 -51 -69 -104l-7 -52q-60 57 -81 143t-24 145q3 0 3 -1t3 -1q19 -26 49 -52.5t69 -49.5z" />
</svg>
