<?xml version="1.0" standalone="no"?>
<!DOCTYPE svg PUBLIC "-//W3C//DTD SVG 1.1//EN" "http://www.w3.org/Graphics/SVG/1.1/DTD/svg11.dtd" >
<svg xmlns="http://www.w3.org/2000/svg" xmlns:xlink="http://www.w3.org/1999/xlink" version="1.1" width="2048" height="2048" viewBox="-10 0 2058 2048">
   <path fill="currentColor"
d="M1407 1036v-11v-10q-2 -201 -20.5 -334.5t-48.5 -220.5q-15 -45 -32.5 -78t-33.5 -60q-18 -23 -36.5 -41.5t-37.5 -32.5q-18 -15 -42 -23t-45 -14q-24 -5 -42.5 -6.5t-31.5 -1.5h-8h-5h-5h-8q-13 0 -31.5 1.5t-42.5 6.5q-21 6 -45 14t-42 23q-19 14 -37.5 32.5
t-36.5 41.5q-27 40 -50.5 97t-42.5 144q-18 82 -29 193t-13 259v8v10v11v10q2 196 20.5 325.5t48.5 211.5q15 45 32.5 78t35.5 57q16 23 34.5 41.5t37.5 29.5q18 16 42 25t45 15q24 2 42.5 3.5t31.5 1.5h8h5h5h8q13 0 31.5 -1.5t42.5 -3.5q21 -6 45 -15t42 -25
q19 -11 37.5 -29.5t34.5 -41.5q29 -37 52.5 -92.5t42.5 -140.5q18 -79 29 -187.5t13 -251.5v-9v-9zM1309 1583q-15 42 -31 72.5t-32 51.5q-16 24 -33 40t-33 26q-16 13 -36 21t-41 11q-18 5 -36.5 6.5t-29.5 1.5h-5h-5v0h-3h-1h-2v0v0h-5h-5q-11 0 -29.5 -1.5t-36.5 -6.5
q-21 -3 -41 -11t-36 -21q-16 -10 -33 -26t-33 -40q-24 -34 -47.5 -87t-42.5 -135q-18 -79 -28.5 -188.5t-10.5 -260.5q0 -209 18.5 -345t47.5 -221q15 -42 31 -73.5t32 -55.5t33 -40t33 -26q16 -13 36 -21t41 -14q18 -2 36.5 -3.5t29.5 -1.5h5h5v0h3h1h2v0h5h5
q11 0 29.5 1.5t36.5 3.5q21 6 41 14t36 21q16 10 33 26t33 40q24 34 47.5 89.5t42.5 137.5q18 82 28.5 195.5t10.5 269.5q0 204 -18.5 336t-47.5 214zM1938 690q-63 -214 -172.5 -349t-236.5 -211.5t-260.5 -103t-244.5 -26.5q-114 0 -246 26.5t-260 103t-236.5 211.5
t-171.5 349q-24 84 -34.5 168.5t-10.5 164.5q0 82 10.5 165t34.5 168q63 214 171.5 348.5t236.5 211.5t260 104.5t246 27.5q111 0 244.5 -27.5t260.5 -104.5t236.5 -211.5t172.5 -348.5q24 -85 34.5 -168t10.5 -165q0 -80 -10.5 -164.5t-34.5 -168.5zM1233 1829
q-48 37 -114 48.5t-95 11.5t-95 -11.5t-114 -48.5q-66 -53 -133.5 -209t-67.5 -597q0 -442 67.5 -597.5t133.5 -208.5q48 -37 114 -47.5t95 -13.5q29 3 95 13.5t114 47.5q66 53 133.5 208.5t67.5 597.5q0 441 -67.5 597t-133.5 209z" />
</svg>
