<?xml version="1.0" standalone="no"?>
<!DOCTYPE svg PUBLIC "-//W3C//DTD SVG 1.1//EN" "http://www.w3.org/Graphics/SVG/1.1/DTD/svg11.dtd" >
<svg xmlns="http://www.w3.org/2000/svg" xmlns:xlink="http://www.w3.org/1999/xlink" version="1.1" width="2048" height="2048" viewBox="-10 0 2067 2048">
   <path fill="currentColor"
d="M315 3q-36 5 -78.5 22t-73.5 40q-23 14 -47 36.5t-41 42.5q-17 26 -35.5 64t-26.5 69l-12 34v1423l12 34q8 31 26.5 70.5t35.5 62.5q34 42 82 77.5t99 52.5q42 11 128.5 14t640.5 3q555 0 640 -3t127 -14q54 -17 102 -52.5t79 -77.5q20 -23 38.5 -62.5t26.5 -70.5l9 -34
v-1423l-9 -34q-8 -31 -26.5 -69t-38.5 -64q-14 -20 -38 -42.5t-47 -36.5q-22 -17 -56 -32.5t-63 -21.5l-34 -11h-698q-289 0 -501 1.5t-221 1.5zM1272 379q79 14 135.5 41t93.5 69q14 20 29.5 51t23.5 57q6 20 7.5 37t1.5 59q0 48 -1.5 62t-7.5 34q-14 54 -49 96.5t-89 73.5
l-26 17l17 6q23 5 51 20.5t48 29.5q43 32 72.5 82.5t43.5 113.5q6 31 6 84.5t-6 82.5q-25 110 -108.5 183.5t-210.5 98.5q-51 12 -112 13.5t-327 1.5h-345v-1321l359 2q241 0 304.5 1.5t89.5 4.5zM813 752v156l164 -3q116 0 144.5 -1.5t48.5 -6.5q56 -14 83 -49.5t27 -97.5
q0 -48 -17 -79.5t-54 -48.5q-31 -17 -82 -21t-186 -4h-128v155zM813 1287v181l181 -3q150 0 185.5 -4t72.5 -21q45 -20 65 -57t20 -93q0 -71 -31.5 -113.5t-96.5 -61.5q-20 -6 -48 -7.5t-161 -1.5h-187v181z" />
</svg>
