<?xml version="1.0" standalone="no"?>
<!DOCTYPE svg PUBLIC "-//W3C//DTD SVG 1.1//EN" "http://www.w3.org/Graphics/SVG/1.1/DTD/svg11.dtd" >
<svg xmlns="http://www.w3.org/2000/svg" xmlns:xlink="http://www.w3.org/1999/xlink" version="1.1" width="2048" height="2048" viewBox="-10 0 2058 2048">
   <path fill="currentColor"
d="M1024 204q-28 0 -56 1.5t-56 3.5q-3 -5 -5.5 -11.5t-7.5 -11.5q15 -15 24 -34t9 -42q0 -46 -35.5 -78t-86.5 -32t-87 32t-36 78q0 38 23 67.5t62 39.5q0 2 -1.5 6t-1.5 7v5q0 2 3 5q-146 41 -268.5 125t-211.5 200t-139 259t-50 301q0 191 71.5 359.5t196.5 293.5
t293.5 197.5t359.5 72.5t359.5 -72.5t293.5 -197.5t196.5 -293.5t71.5 -359.5q0 -192 -71.5 -359t-196.5 -292t-293.5 -197.5t-359.5 -72.5zM715 110q0 -33 28.5 -58.5t66.5 -25.5t65 25.5t27 58.5q0 18 -5.5 32t-17.5 24q-8 -5 -17 -7.5t-19 -2.5q-20 0 -37 10t-27 25
q-28 -7 -46 -29t-18 -52zM1024 1903q-161 0 -302.5 -61.5t-247 -167t-167 -247.5t-61.5 -302q0 -161 61.5 -302.5t167 -246t247 -166t302.5 -61.5t302.5 61.5t247 166t167 246t61.5 302.5q0 160 -61.5 302t-167 247.5t-247 167t-302.5 61.5zM1567 1454l49 33q48 -79 75 -171
t27 -191q0 -33 -4 -67.5t-9 -67.5l-56 12q-5 0 -9 -2.5t-6 -7.5q0 -5 2.5 -9t7.5 -6l56 -13q-31 -127 -106 -234.5t-182 -178.5l-36 56q-3 5 -8 6.5t-7 -3.5q-5 -3 -6.5 -8t1.5 -8l35 -58q-79 -49 -172 -77t-195 -28q-33 0 -66 4t-64 9l15 64q0 5 -2.5 10t-7.5 5
q-5 2 -9 -1.5t-6 -8.5l-13 -64q-133 30 -241 105.5t-180 182.5l56 36q5 2 6.5 7.5t-1.5 10.5q-2 2 -7 3.5t-10 -1.5l-59 -36q-49 80 -77 173t-28 195q0 35 4 68.5t9 66.5l66 -15q5 0 10.5 2.5t5.5 7.5t-2.5 10t-8.5 5l-66 15q31 130 107.5 238.5t185.5 180.5l41 -64
q3 -3 8 -4t10 1.5t5 7.5t-2 8l-41 66q79 46 171 72.5t191 26.5q36 0 71.5 -3.5t68.5 -8.5l-12 -67q-3 -5 -0.5 -10t7.5 -5t10 2.5t5 7.5l16 64q130 -31 236 -107.5t177 -183.5l-51 -33q-3 -2 -4 -7.5t1 -10.5q3 -2 8 -3.5t10 1.5zM746 931l125 46q15 -13 30.5 -24.5
t33.5 -21.5v-255l112 237q8 3 14 3t11 2l-17 18q-8 -3 -16 -3h-15q-79 0 -135 56.5t-56 135.5q0 18 2.5 33t7.5 31l-15 22v-1v-1h-253l237 -110q3 -20 9.5 -39t16.5 -37zM608 1632l342 -568l480 -449l-342 568l-3 3zM1315 1306l-125 -49q-13 16 -28.5 30t-30.5 24l3 -3
l-5 266l-105 -235q-15 0 -28 -2.5t-26 -5.5l18 -18q10 3 18 4.5t18 1.5q79 0 135 -57.5t56 -136.5q0 -21 -3.5 -42.5t-14.5 -39.5l13 -20v0l260 5l-234 104q0 21 -4 40t-12 37zM1021 1066q-23 0 -40.5 19t-15.5 42q0 26 19.5 42.5t42.5 13.5q25 0 41.5 -17.5t14.5 -43.5
q0 -23 -18 -40.5t-44 -15.5z" />
</svg>
