<?xml version="1.0" standalone="no"?>
<!DOCTYPE svg PUBLIC "-//W3C//DTD SVG 1.1//EN" "http://www.w3.org/Graphics/SVG/1.1/DTD/svg11.dtd" >
<svg xmlns="http://www.w3.org/2000/svg" xmlns:xlink="http://www.w3.org/1999/xlink" version="1.1" width="2048" height="2048" viewBox="-10 0 2068 2048">
   <path fill="currentColor"
d="M2046 1341q-6 -45 -28.5 -79.5t-57.5 -61.5q-38 -32 -85 -46.5t-96 -16.5q-41 0 -81 6t-78 19q-13 4 -23 9t-22 9q0 -2 -2 -5t-4 -5q-11 -25 -22 -47.5t-15 -48.5q-2 -20 -3 -38.5t3 -37t9 -35.5t11 -36q2 -10 0 -15t-10 -9q-4 -2 -7 -3t-7 -1q-21 -5 -42 -2.5t-42 8.5
q-8 2 -13 6t-5 12q-2 6 -3 10t-3 8q-6 21 -11.5 40.5t-13.5 35.5q-22 47 -46.5 90.5t-49.5 88.5q-4 4 -7 9.5t-5 9.5q-10 -19 -18 -36t-10 -38q-4 -22 -5.5 -44.5t3.5 -44.5q4 -17 9 -33t11 -33q2 -8 1 -12t-9 -8l-8 -4t-6 -2q-23 -4 -45.5 -2t-42.5 8q-8 2 -11 7t-6 11
l-12 41q-6 20 -14 39q-35 77 -69.5 154.5t-69.5 155.5q-6 16 -14 32.5t-16 30.5q-4 4 -6.5 8t-6.5 8q-2 -2 -2 -4v-4q0 -10 -1 -20t1 -21q6 -28 12.5 -56.5t14.5 -57.5q6 -24 12 -47.5t12 -48.5q2 -8 2 -15t-6 -13q-10 -12 -27.5 -14.5t-27.5 8.5q-2 0 -4 1t-4 3q0 -4 1 -7
t1 -6q2 -18 2 -36.5t-4 -34.5q-6 -22 -22.5 -34.5t-38.5 -12.5q-10 0 -21.5 2t-21.5 6q-41 17 -74.5 45.5t-60.5 62.5q-2 2 -5 5.5t-7 5.5q-35 20 -70.5 39.5t-72.5 37.5q-12 8 -25 15.5t-28 13.5q-10 -10 -20 -19.5t-20 -19.5q-33 -26 -66.5 -53t-68.5 -55
q-29 -23 -57.5 -49.5t-50.5 -56.5q-17 -25 -26 -50.5t-11 -53.5q-2 -37 8 -71.5t29 -65.5q24 -41 57 -73.5t67 -63.5q39 -30 80 -56.5t83 -51.5q62 -32 124 -60.5t127 -49.5q68 -20 137 -29.5t141 -0.5q28 2 54.5 9t51.5 21q18 10 33.5 24.5t23.5 34.5q6 23 6 44.5t-4 41.5
q-10 43 -32.5 79.5t-53.5 67.5q-49 53 -108 89.5t-126 59.5q-39 14 -79 22t-80 12q-33 2 -65.5 -1t-65.5 -15q-20 -8 -38.5 -19t-32.5 -30q-2 -2 -5.5 -4t-9.5 0q-4 2 -5 7t1 9q2 9 5 16t8 13q10 18 24 31.5t31 23.5q32 20 68 28.5t74 10.5q58 2 113 -6t110 -23
q77 -22 144.5 -61t122.5 -100q45 -51 75.5 -109t36.5 -126q4 -34 0 -66.5t-20 -63.5q-17 -33 -43.5 -56.5t-58.5 -41.5q-47 -24 -98 -35.5t-104 -13.5h-35h-35q-63 2 -125 15.5t-121 35.5q-47 16 -91 34.5t-87 41.5q-94 46 -180.5 104.5t-157.5 135.5q-37 39 -65.5 83
t-47.5 93q-4 16 -8 31.5t-6 29.5q-2 2 -1 3t-3 3v13v16q4 4 5 10t1 12q10 35 28.5 66.5t40.5 59.5q35 39 75 73t83 64q34 25 72 51.5t74 52.5q7 4 13 9t12 12q-6 2 -11 5t-10 5q-48 24 -95 52.5t-90 61.5q-25 20 -49.5 42.5t-40.5 49.5q-28 45 -36.5 93t12.5 99q6 16 16 28
t22 23q4 2 9.5 5t9.5 5q14 2 27.5 4t25.5 6h24h25q41 -4 78.5 -18.5t72.5 -36.5q53 -37 87.5 -86t48.5 -112q13 -45 13 -91t-15 -91q0 -4 -2 -8t-2 -8l-4 -8t-4 -10q29 -17 56.5 -33t55.5 -30h2q-2 6 -4 11t-2 9q-10 37 -16 73.5t-4 75.5q4 41 15 78.5t36 70.5q18 28 55 28
t57 -26q8 -10 15 -20.5t11 -20.5q15 -29 28 -57.5t26 -56.5q0 -2 1 -3t3 -5q-2 14 -3 26t-1 25q-3 18 -0.5 36.5t8.5 34.5t16 26.5t27 12.5q12 2 22 -3t18 -12q13 -10 24 -23t19 -30q25 -42 48.5 -85t43.5 -86q22 -47 42.5 -96t43.5 -96q0 -4 1 -6l3 -6q4 20 9 38.5t11 37.5
q6 22 15.5 42.5t19.5 40.5q6 10 5 16.5t-7 14.5q-29 35 -56 68q-28 34 -54 66q-7 9 -13 16t-10 15q-2 6 -4 11t-4 11q-2 11 4 21t18 12q13 2 24 3t21 -1q39 -2 72.5 -15t64.5 -36q39 -28 53 -68t4 -87q-2 -12 -7 -24.5t-9 -24.5q-2 -6 -1 -10t3 -10q32 -45 60 -93t52 -97
q0 -2 1 -3l3 -3q8 41 21.5 81.5t35.5 77.5q-12 10 -22 20l-21 21q-22 24 -40.5 50.5t-28.5 57.5q-4 14 -6 27.5t0 27.5q2 22 18.5 35.5t38.5 7.5q47 -10 86.5 -33.5t70.5 -62.5q20 -27 23.5 -56.5t-5.5 -59.5q-2 -8 -5 -17.5t-5 -17.5q10 -4 22.5 -8t22.5 -6
q61 -15 121.5 -11.5t119.5 25.5q34 12 61 34.5t43 55.5q20 41 10 78.5t-49 64.5l-8 4t-8 6q0 2 -1 5t-1 5t3 3t5 1q12 0 23.5 -5t21.5 -13q24 -17 40.5 -40.5t18.5 -53.5q2 -2 1 -2t3 -2v-13v-14q-4 -2 -3 -2t-1 -2h2zM455 1451q-4 55 -27.5 100t-64.5 80q-22 20 -48.5 34.5
t-57.5 18.5q-10 2 -21.5 2t-21.5 -4q-16 -8 -21 -20.5t-5 -26.5q0 -23 7 -44t17 -40q14 -26 34.5 -46.5t43.5 -38.5q36 -29 74 -54.5t77 -47.5q2 0 3 -1l1 -1q6 22 9 44.5t1 44.5zM865 1135q-2 19 -6 36l-8 34q-19 59 -40.5 115t-45.5 113q-6 10 -12 19.5t-10 19.5
q-3 2 -4 3l-3 3q-6 6 -12 6t-10 -10t-7 -21.5t-5 -23.5q-2 -6 -2 -14v-17q0 -55 16 -105t45 -97q12 -18 25.5 -35.5t33.5 -29.5q6 -4 12 -7t15 -5q10 -2 15 2t3 14zM1146 1492q25 -28 50 -58q26 -29 50 -58q4 33 -36.5 79.5t-63.5 36.5zM1467 1413q-4 4 -10.5 6t-12.5 6
q-4 2 -6 0t-2 -6v-7q0 -3 2 -6q10 -36 28.5 -66.5t47.5 -55.5h1h1q14 37 -0.5 73.5t-48.5 55.5z" />
</svg>
