<?xml version="1.0" standalone="no"?>
<!DOCTYPE svg PUBLIC "-//W3C//DTD SVG 1.1//EN" "http://www.w3.org/Graphics/SVG/1.1/DTD/svg11.dtd" >
<svg xmlns="http://www.w3.org/2000/svg" xmlns:xlink="http://www.w3.org/1999/xlink" version="1.1" width="2048" height="2048" viewBox="-10 0 2058 2048">
   <path fill="currentColor"
d="M1024 752v0v0v0q37 -2 73 -37l37 -35q-30 18 -57.5 25.5t-52.5 7.5t-52.5 -7.5t-57.5 -25.5l37 35q36 35 73 37zM897 1674h-27h-42h-33h-18q-15 0 -23.5 4t-13.5 6q-5 8 -6.5 15.5t3.5 17.5q10 27 29 47t26 25q8 7 20.5 12t27.5 5q12 0 23.5 -5t18.5 -12q22 -25 36 -47.5
t16 -29.5q3 -5 3 -12.5t-5 -15.5q-5 -5 -14 -7.5t-21 -2.5zM501 757q-3 30 10 54l12 24q0 -23 5 -39t10 -29q3 33 13 69t39 68q20 23 90 50.5t130 -25.5q2 8 4.5 16.5t5.5 16.5q10 32 0 67l-10 35l30 -42q30 -43 25 -88q32 -2 59.5 -23.5t24.5 -53.5l-46 11q-46 11 -96 -48
q-27 -33 -115.5 -95t-215.5 -30l26 6.5t29 8.5h-3q-10 5 -17.5 18.5t-9.5 28.5zM615 750q58 32 107.5 73.5t72.5 75.5v0q-18 10 -60 20t-92 -27q-33 -22 -35.5 -68.5t7.5 -73.5zM1271 1674h-18h-33h-42h-24q-13 0 -23 2.5t-15 7.5q-5 8 -5 15.5t3 12.5q2 7 16 29.5t36 47.5
q7 7 18.5 12t23.5 5q15 0 27.5 -5t20.5 -12q7 -5 26 -25t29 -47q5 -10 3.5 -17.5t-6.5 -15.5q-5 -2 -13.5 -6t-23.5 -4zM1183 934q-5 45 25 88l30 42l-10 -35q-10 -35 0 -67q3 -8 5.5 -16.5t4.5 -16.5q60 53 130 25.5t90 -50.5q29 -32 39 -68t13 -69q5 13 10 29t5 39l12 -24
q13 -24 10 -54q-2 -15 -9.5 -28.5t-17.5 -18.5h-1h-2q15 -5 29 -8.5l26 -6.5q-127 -32 -215.5 30t-115.5 95q-50 59 -96 48l-46 -11q-3 32 24.5 53.5t59.5 23.5zM1253 899v0q23 -34 72.5 -75.5t107.5 -73.5q10 27 7.5 73.5t-35.5 68.5q-50 37 -92 27t-60 -20v0zM1652 1268
q-8 55 -35 101t-62 76q-10 -70 -12.5 -149.5t-2.5 -99.5q0 -45 20 -72.5t27 -32.5q8 -5 16.5 -10t18.5 -10q52 -27 107 -67t55 -107q0 -47 -22.5 -72t-39.5 -38q-3 -2 -5.5 -3.5t-4.5 -3.5q-5 -5 -10 -9t-8 -9q-12 -30 -12 -84.5t7 -64.5q0 -3 31.5 -52.5t16.5 -104.5
q-8 -22 -21.5 -39.5t-36.5 -27.5q-15 -10 -35 -14t-42 -6q0 -5 -1 -11.5t-4 -11.5q-2 -7 -3.5 -16t1.5 -16q0 -15 1 -26t6 -19q25 -40 71 -55l46 -15l47 -10l-32 -37q0 -3 -48.5 -36.5t-135.5 -33.5q-23 0 -48 4t-47 11q-75 23 -127 76.5t-72 80.5q-8 -2 -18 -6t-20 -6
q-12 -48 12 -100l23 -52l-36 2q-36 3 -98 57q-8 -19 -16.5 -58t11.5 -91q-90 32 -121 76t-36 88q-23 -17 -25.5 -57t-4.5 -52q-23 2 -69 57t-43 135q-5 2 -11.5 3.5t-11.5 3.5q-20 -27 -72 -80.5t-127 -76.5q-22 -7 -47 -12t-48 -5q-87 0 -135.5 34.5t-48.5 37.5l-32 37
l47 10l46 15q46 15 71 55q5 8 6 19t1 26q3 7 1.5 16t-3.5 16q-3 5 -4 11.5t-1 11.5q-22 2 -42 6t-35 14q-23 10 -36.5 27.5t-21.5 39.5q-15 55 16.5 104.5t31.5 52.5q7 10 7 64.5t-12 84.5q-3 5 -8 9t-10 9q-2 2 -4.5 3.5t-5.5 3.5q-17 13 -39.5 38t-22.5 72q0 67 55 107
t107 67q10 5 18.5 10t16 10t27.5 32.5t20 72.5q0 20 -2.5 99.5t-12.5 149.5q-35 -30 -62 -76t-35 -101l-55 70q-54 70 -27 214q22 132 118 185.5t221 63.5q42 98 122 172.5t249 74.5v0v0v0q169 0 249 -74.5t122 -172.5q125 -10 221 -63.5t118 -185.5q27 -144 -27 -214z
M1477 152q18 -5 35.5 -7.5t37.5 -2.5q32 0 58 6t39 14q-8 2 -18 8.5t-20 11.5q-7 0 -17 -1.5t-20 -1.5q-32 0 -61 9t-53 26q-38 28 -56.5 51.5t-26.5 38.5q-7 -3 -13.5 -6.5t-16.5 -8.5q-2 -2 -7 -4.5t-10 -2.5q17 -28 57 -70.5t92 -59.5zM1562 224q-2 3 -4.5 6.5t-5.5 6.5
q-10 17 -12 36q-3 18 -5 36q0 20 -4 37.5t-14 29.5q-12 3 -23.5 5.5t-21.5 4.5q-7 -7 -17 -18.5t-25 -23.5q5 -15 17.5 -43.5t37.5 -48.5q15 -13 35 -19t42 -9zM439 182q-10 -5 -20 -11.5t-18 -8.5q13 -8 39 -14t58 -6q20 0 37.5 2.5t35.5 7.5q52 17 92 59.5t57 70.5
q-5 0 -10 2.5t-7 4.5q-10 5 -16.5 8.5t-13.5 6.5q-8 -17 -26.5 -39.5t-56.5 -50.5q-24 -17 -53 -26t-61 -9q-10 0 -20 1.5t-17 1.5zM618 344q-15 12 -25 23.5t-17 18.5q-10 -2 -21.5 -4.5t-23.5 -5.5l-45 -152q22 3 42 9t35 19zM488 1039q-7 -3 -16 -8t-16 -9
q-45 -25 -83.5 -52.5t-38.5 -70.5q0 -32 11 -47t26 -25l10 -12q-2 22 -4.5 39.5t-5.5 22.5l25 -45q25 -45 38 -132q2 -35 -4 -89.5t-16 -82.5q0 15 -1.5 30t-1.5 27q0 -2 -1 -4.5t-4 -2.5q-10 -12 -27.5 -46t-9.5 -61q2 -10 8.5 -17.5t18.5 -14.5q10 -5 25 -7.5t35 -2.5
q37 0 73.5 8.5t58.5 13.5q75 25 152 78.5t102 73.5h3l22 17l-15 -25l-55 -69q-55 -70 -157 -115q8 -10 26.5 -25t61.5 -37q64 -30 137.5 -46t158.5 -16t158.5 16t137.5 46q43 22 61.5 37t26.5 25q-102 45 -157 115l-55 69l-15 25l22 -17h3q25 -20 102 -73.5t152 -78.5
q22 -5 58.5 -13.5t73.5 -8.5q20 0 35 2.5t25 7.5q12 7 18.5 14.5t8.5 17.5q8 27 -9.5 61t-27.5 46q-3 0 -4 2.5t-1 4.5q0 -12 -1.5 -27t-1.5 -30q-10 28 -16 82.5t-4 89.5q13 87 38 132l25 45q0 -5 -4 -21t-6 -39q2 3 4.5 4t5.5 4v2q15 10 26 25t11 47q0 43 -38.5 70.5
t-83.5 52.5q-7 4 -16 9t-16 8q-28 15 -51.5 50t-26.5 87q-2 45 3 136t12 168q-37 15 -78 20t-81 7q-5 -12 -11.5 -26t-10.5 -26q-3 -7 -44 -112t-61 -137q15 117 45 213t50 146q-13 -3 -24 -4t-24 -1h-92h-142v0v0h-142h-92q-13 0 -24 1t-24 4q20 -50 50 -146t45 -213
q-20 32 -61 137t-44 112q-4 12 -10.5 26t-11.5 26q-40 -2 -81 -7t-78 -20q7 -77 12 -168t3 -136q-3 -52 -26.5 -87t-51.5 -50zM650 1605q-2 0 -3 2l-2 2q-22 23 -26 55.5t9 72.5q-67 0 -132 -30t-100 -88q-37 -59 -33.5 -140t18.5 -96q33 102 123.5 139.5t173.5 42.5
q-8 12 -15.5 22t-12.5 18zM1363 1734q-20 55 -88.5 156t-250.5 103q-182 -2 -250.5 -103t-88.5 -156q-12 -32 -11 -54.5t14 -37.5q10 -10 32 -20t67 -10h63h78h96h96h78h63q45 0 67 10t32 20q13 15 14 37.5t-11 54.5zM1652 1619q-35 58 -100 88t-132 30q13 -40 9 -72.5
t-26 -55.5l-2 -2q-1 -2 -3 -2q-5 -8 -12.5 -18t-15.5 -22q83 -5 173.5 -42.5t123.5 -139.5q15 15 18.5 96t-33.5 140z" />
</svg>
