<?xml version="1.0" standalone="no"?>
<!DOCTYPE svg PUBLIC "-//W3C//DTD SVG 1.1//EN" "http://www.w3.org/Graphics/SVG/1.1/DTD/svg11.dtd" >
<svg xmlns="http://www.w3.org/2000/svg" xmlns:xlink="http://www.w3.org/1999/xlink" version="1.1" width="2048" height="2048" viewBox="-10 0 2068 2048">
   <path fill="currentColor"
d="M792 478q-45 0 -76 31t-31 76q0 46 31 77t76 31q43 0 75.5 -31t32.5 -77q0 -45 -32.5 -76t-75.5 -31zM792.5 577q-25.5 0 -44 -11.5t-18.5 -28.5q0 -14 18.5 -25.5t43.5 -11.5q26 0 44.5 11.5t18.5 25.5q0 17 -18.5 28.5t-44 11.5zM2012.5 1004q-39.5 -40 -147 -69.5
t-232.5 -53.5t-242 -38t-180 -23l12 -28q5 -14 8 -31q17 -6 35.5 -13t38.5 -13q3 6 11 27t14 33q252 8 304.5 -129t60.5 -191q12 -51 27.5 -109t100.5 -149q-128 -36 -282 44.5t-217 221.5q-22 -8 -46 -13.5t-47 -11.5q-17 -65 -114.5 -201t-321.5 -136q-147 0 -288.5 58
t-251.5 163q-60 56 -106.5 124t-77.5 145q-37 82 -54 171t-17 185q0 167 49.5 320t123 267.5t155.5 182.5t147 68q57 0 101 -34t55 -71q9 26 33 86.5t32 83.5q14 28 65 46.5t80 -12.5q36 20 94 23t95 -54q71 17 126 -18.5t55 -86.5q34 0 51 -39.5t9 -79.5
q-6 -28 -51.5 -108.5t-67.5 -114.5q45 37 134 42.5t104 -42.5q76 59 168 39.5t100 -67.5q91 25 173 -16t65 -106q147 -9 151.5 -120.5t-35 -151.5zM1503 659q-37 -14 -82.5 -22.5t-79.5 -8.5q-48 0 -83 18.5t-84 18.5q-8 0 -28 -1.5t-39 -7.5q14 11 31 18t45 7q17 0 48 -7
t60 -15v11v11q-51 12 -99.5 37.5t-65.5 33.5q-34 -76 -15.5 -144t47.5 -102q127 0 220.5 62.5t124.5 90.5zM1576 650l-25 -22q-20 -20 -41 -35.5t-41 -32.5q31 -62 70.5 -124.5t90.5 -104.5q-56 22 -107 81.5t-82 130.5q-17 -12 -33 -20t-33 -17q43 -96 139 -167t212 -76
q-76 70 -80.5 187.5t-69.5 199.5zM1364 738q-8 -17 -15.5 -44t-4.5 -44q14 0 35.5 3t27.5 6q-3 8 -5 22l-1 15q3 -3 8.5 -16t11.5 -18q25 3 57.5 11t52.5 20q-23 14 -65 29.5t-102 15.5zM1138 452q-102 99 -86.5 212.5t52.5 169.5q-51 88 -147.5 146t-215.5 86
q134 0 216 -28t127 -62q28 -23 45 -42.5t26 -31.5q99 6 217.5 23t225 38t184 39.5t94.5 29.5q12 9 21.5 24.5t12.5 35.5q-147 -23 -362 -41.5t-286 -20.5q26 2 116.5 19t195 37t198 38.5t124.5 26.5q-20 31 -62.5 48t-107.5 3q34 48 -21 89t-151 10q20 48 -49.5 76.5
t-165.5 -22.5q0 48 -89.5 51t-137.5 -51q0 9 4.5 18.5t7.5 12.5q-15 139 -112.5 219.5t-213.5 80.5q-144 0 -273 -53.5t-226.5 -150t-154 -228t-56.5 -287.5q0 -161 55 -299.5t151.5 -240.5t225 -158.5t275.5 -56.5q164 0 245 94.5t98 145.5z" />
</svg>
