<?xml version="1.0" standalone="no"?>
<!DOCTYPE svg PUBLIC "-//W3C//DTD SVG 1.1//EN" "http://www.w3.org/Graphics/SVG/1.1/DTD/svg11.dtd" >
<svg xmlns="http://www.w3.org/2000/svg" xmlns:xlink="http://www.w3.org/1999/xlink" version="1.1" width="2048" height="2048" viewBox="-10 0 2068 2048">
   <path fill="currentColor"
d="M1044 1728q-9 0 -19 -3t-21 -6q-3 -3 -4.5 -3t-3.5 -3q-12 -2 -20.5 -5t-19.5 -6h-2q-1 0 -4 -3q-8 -3 -17 -6l-17 -5q-3 0 -4.5 -1.5t-4.5 -1.5q-8 -6 -18 -8.5t-19 -8.5q-2 0 -3.5 -1.5t-4.5 -1.5l-14 -7q-9 -4 -17 -7l-3 -2q-3 -1 -6 -4q-6 -3 -11.5 -5.5t-11.5 -5.5
l-8 -5q-3 -1 -8.5 -4t-13 -7t-15.5 -7l-4.5 -4.5t-4.5 -1.5q-11 -5 -19.5 -11t-20.5 -11q0 -3 -2.5 -4.5t-5.5 -4.5q-6 -3 -13 -7t-13 -10q-3 -3 -5 -4l-3 -2q-9 -5 -14.5 -9.5t-11.5 -10.5q-3 0 -5.5 -2.5l-5.5 -5.5q-6 -3 -11.5 -7.5t-11.5 -9.5q-3 -3 -6 -4.5t-5 -4.5
q-6 -5 -13 -11t-16 -12l-1 -1l-2 -1q-8 -6 -15 -13t-13 -16q-3 0 -6 -3l-3 -3l-11 -11l-11 -11l-5 -5l-4 -4l-13 -13t-13 -15h-2q-6 -9 -13 -16t-13 -16q-3 0 -4.5 -2.5t-1.5 -5.5q-5 -6 -9.5 -11.5t-10.5 -11.5l-4 -4l-4 -4q-6 -9 -11.5 -16t-8.5 -13
q-77 -102 -125.5 -221.5t-66.5 -244.5q-9 -63 -9 -125.5t9 -125.5q18 -125 78 -241l-142 179q-68 97 -98 207.5t-30 224.5t28.5 227.5t79.5 219.5q3 3 6 8.5t5 8.5q0 5 3 8t3 6l2 3q1 3 4 3q0 5 1.5 8t4.5 6q2 6 6.5 11.5t7.5 11.5q0 3 2.5 5.5t2.5 5.5q6 6 9 13t9 13
q0 3 2.5 4t2.5 4q6 9 11.5 17.5t11.5 16.5v0l1 2q2 1 2 4q5 6 11 13t12 13q0 2 2.5 5t2.5 6q6 6 10 11.5t10 11.5q3 0 4.5 2.5t1.5 5.5q8 6 14 14.5t14 14.5v0v1v2q6 5 13 12t13 16q3 0 5.5 3t2.5 6q6 2 11.5 8t11.5 11l4.5 4.5l4.5 4.5q5 6 13.5 13t14.5 13v0q3 2 4.5 2
t1.5 3q6 6 13 11.5t12 8.5l6 6l6 6q6 2 11.5 6.5t11.5 10.5q2 0 5 2l6 6q6 3 13 7.5t13 9.5l4 5q1 1 4 1l2 1l1 2q6 3 11.5 7t11.5 7q3 3 5.5 4.5t5.5 4.5q9 5 19 11t18 11q3 0 6 1.5t5 4.5q6 3 13 7t16 10q3 0 7 3t7 3q6 3 10 5.5t10 5.5l1 2q2 1 5 1l3 1q2 2 5 2q6 5 14 8
l18 6q0 3 2 3h3q9 6 19 10t18 7q3 0 6 1l3 2q11 3 19.5 7t17.5 7h1h2q11 3 21 7t18 7q3 0 6 2l3 1q11 3 21 6t22 5q327 60 546 -15.5t348.5 -189t183.5 -218.5l54 -106q-80 106 -189.5 172.5t-234.5 99.5t-260.5 31.5t-271.5 -32.5zM728 1016.5q14 22.5 31.5 45.5t36.5 40
l16 15q7 8 13 16q3 0 4.5 3t3.5 3q9 8 16 15.5t16 12.5v2v1v0q8 6 16.5 14.5t20.5 14.5q0 2 3 4l2 1q12 9 20.5 14.5t16.5 14.5h2h1q3 3 7.5 5.5t9.5 5.5l3 1q3 2 3 5q8 3 14 7t14 10h2h1q6 5 13 8t13 6l3 1q3 2 5 5q3 0 7.5 2.5t9.5 5.5h3q9 6 17.5 9t16.5 8q3 0 4.5 1.5
t4.5 1.5q6 3 13 6t15 6q3 0 6 1t6 4q5 3 12.5 4.5t12.5 4.5q3 0 7.5 1.5t7.5 1.5q8 2 18 6.5t19 4.5q253 43 415 -15.5t256 -146.5t128 -168l34 -80q-105 154 -295.5 218t-409.5 7q-9 -3 -19 -5.5t-18 -5.5q-3 0 -6 -1.5t-6 -1.5q-8 -3 -14 -6t-14 -3q-3 -3 -6 -4t-6 -1
q-8 -3 -15 -6t-13 -6q-3 0 -4.5 -1.5t-4.5 -1.5q-8 -5 -16.5 -9.5t-17.5 -7.5q-5 -2 -9.5 -3.5t-10.5 -4.5q0 -3 -2.5 -4.5t-5.5 -1.5q-6 -3 -11.5 -5.5t-11.5 -8.5h-1q-2 0 -5 -3q-5 -3 -12.5 -7t-12.5 -7q-3 -3 -6 -4l-3 -2q-5 -3 -9.5 -5.5t-10.5 -5.5q-8 -9 -16.5 -14.5
t-17.5 -14.5q-3 0 -5 -3l-3 -2q-97 -77 -169.5 -178t-109.5 -218q-37 -119 -27 -250t75 -239l-105 151q-100 142 -100 317t77 323q12 25 27.5 49.5t29.5 47zM1442 783q6 3 10 4.5t7 1.5t4.5 1.5t4.5 1.5q5 3 11 4t11 4q282 54 383 -74t121 -159q-65 97 -174.5 122.5
t-246.5 -5.5q-11 -3 -22.5 -7.5t-23.5 -7.5q-11 -5 -25 -11t-26 -11q-25 -12 -48 -26t-46 -31q-122 -94 -180.5 -252t21.5 -303l-57 80q-57 85 -64 186t33 195q43 100 125.5 175t181.5 112z" />
</svg>
