<?xml version="1.0" standalone="no"?>
<!DOCTYPE svg PUBLIC "-//W3C//DTD SVG 1.1//EN" "http://www.w3.org/Graphics/SVG/1.1/DTD/svg11.dtd" >
<svg xmlns="http://www.w3.org/2000/svg" xmlns:xlink="http://www.w3.org/1999/xlink" version="1.1" width="2048" height="2048" viewBox="-10 0 2069 2048">
   <path fill="currentColor"
d="M1079 231q-29 8 -81.5 32.5t-100.5 52.5q-111 63 -188 77t-119 -17q-29 -23 -32 -33t20 -24q12 -9 46 -14.5t65 -2.5q34 3 57 -1.5t23 -12.5q3 -29 -105.5 -29t-136.5 29q-60 59 -10 112t175 64q74 6 125 -5.5t162 -62.5q145 -66 250.5 -86t159.5 6q39 23 43.5 52.5
t-32.5 44.5q-48 17 -115 11t-87 -28q-20 -26 -52.5 -19t-32.5 41q0 66 173.5 71.5t235.5 -56.5q100 -100 -66.5 -175.5t-376.5 -26.5zM118 373q-131 71 -21.5 155t396.5 132q182 29 403.5 34.5t429.5 -10t377 -51t246 -87.5q48 -31 51 -85t-40 -77q-28 -14 -35 -11t-7 28
q0 46 -63 81.5t-175 61t-273 40t-360 14.5q-219 0 -388 -16t-281.5 -44.5t-165 -69.5t-38.5 -92q12 -32 5 -32t-61 29zM118 697q8 26 19.5 71.5t22.5 82.5q23 71 16 92t-61 78q-125 128 -114 284.5t151 261.5q48 34 149 40t132 -23q12 -14 7.5 -19.5t-30.5 -5.5
q-42 0 -120.5 -65.5t-112.5 -128.5q-31 -65 -28 -149t40 -129l39 -52l23 54q9 23 51.5 93t93.5 143q51 74 98 155.5t61 120.5q23 63 51.5 91.5t108.5 70.5q79 37 137.5 51.5t180.5 19.5q239 12 397 -53.5t183 -179.5q6 -28 50 -105t98 -156q102 -154 157.5 -266t98.5 -260
q40 -131 28.5 -148t-108.5 28q-71 31 -164.5 55.5t-213 37t-262 18.5t-312.5 0q-350 -11 -522 -42.5t-343 -119.5q-5 -3 -6.5 12.5t4.5 41.5z" />
</svg>
