<?xml version="1.0" standalone="no"?>
<!DOCTYPE svg PUBLIC "-//W3C//DTD SVG 1.1//EN" "http://www.w3.org/Graphics/SVG/1.1/DTD/svg11.dtd" >
<svg xmlns="http://www.w3.org/2000/svg" xmlns:xlink="http://www.w3.org/1999/xlink" version="1.1" width="2048" height="2048" viewBox="-10 0 2068 2048">
   <path fill="currentColor"
d="M1822 123h-1596q-93 0 -159.5 65t-66.5 159v676q0 186 70.5 350t195 287.5t290 194t355.5 70.5h226q190 0 355.5 -70.5t290 -194t195 -287.5t70.5 -350v-676q0 -94 -66.5 -159t-159.5 -65zM1024 1586q-141 0 -265.5 -52.5t-218 -144.5t-147.5 -215t-54 -265v-336h343v336
q0 142 100.5 241t241.5 99t241.5 -99t100.5 -241h343q0 142 -54 265t-147.5 215t-218 144.5t-265.5 52.5zM1703 799l-331 -85l79 -328l337 85z" />
</svg>
