<?xml version="1.0" standalone="no"?>
<!DOCTYPE svg PUBLIC "-//W3C//DTD SVG 1.1//EN" "http://www.w3.org/Graphics/SVG/1.1/DTD/svg11.dtd" >
<svg xmlns="http://www.w3.org/2000/svg" xmlns:xlink="http://www.w3.org/1999/xlink" version="1.1" width="2048" height="2048" viewBox="-10 0 2068 2048">
   <path fill="currentColor"
d="M1273 112l74 49q73 50 169 140.5t190.5 220t139.5 290.5q80 291 51 432l-28 141l40 50q39 49 87 162q71 170 45 254l-25 85l-31 -83q-31 -84 -203 -106q-156 -23 -269 76t-409 93q-85 -3 -212 -21t-275 -83t-307.5 -191t-309.5 -343q147 85 337.5 179.5t427.5 77.5
q237 -20 309 -75l72 -55l-100 -85q-100 -84 -244 -225.5t-305 -325t-285 -380.5q93 82 240 192t283.5 210t234 169.5t92.5 63.5q-71 -54 -175.5 -176.5t-203.5 -248.5t-168 -222l-69 -96l145 123q146 123 326.5 271.5t338.5 271t187 119.5q11 -25 36.5 -100t24 -195
t-48 -286.5t-182.5 -372.5z" />
</svg>
