<?xml version="1.0" standalone="no"?>
<!DOCTYPE svg PUBLIC "-//W3C//DTD SVG 1.1//EN" "http://www.w3.org/Graphics/SVG/1.1/DTD/svg11.dtd" >
<svg xmlns="http://www.w3.org/2000/svg" xmlns:xlink="http://www.w3.org/1999/xlink" version="1.1" width="2048" height="2048" viewBox="-10 0 2058 2048">
   <path fill="currentColor"
d="M1721 0q-113 5 -213 63.5t-171 145.5q-84 96 -142.5 207t-96.5 228q-71 -59 -140 -123.5t-181 -98.5q-88 -25 -178 -12.5t-177 75.5q-38 33 -67.5 75t-41.5 84q-34 113 12 202.5t80 127.5l92 100q16 13 37 50.5t5 91.5q-17 59 -80 90t-138 10q-33 -8 -68.5 -33t-23.5 -58
q4 -13 12.5 -25.5t12.5 -25.5q9 -8 11 -16.5t2 -12.5q12 -46 -4.5 -94t-62.5 -60q-46 -13 -85.5 1.5t-56.5 69.5q-21 62 23 160.5t211 148.5q192 58 336 -25.5t170 -217.5q12 -87 -23.5 -158t-106.5 -151l-75 -87q-34 -34 -42 -88.5t25 -95.5q34 -42 79.5 -56.5t116.5 6.5
q105 29 165.5 91.5t140.5 121.5q-34 104 -57 206.5t-40 198.5l-16 92q-55 292 -111 461.5t-165 261.5q-21 16 -54.5 35t-83.5 19q-25 4 -33.5 -8.5t-8.5 -20.5q0 -17 10.5 -27.5t19.5 -18.5q16 -9 33 -25.5t17 -58.5q-5 -50 -42.5 -87.5t-95.5 -37.5q-46 4 -98.5 46
t-52.5 117q5 79 73.5 133.5t181.5 50.5q59 -4 182 -46t253 -201q154 -179 215 -373.5t94 -344.5l46 -268q21 0 44 2t44 2q192 4 288 -73t100 -148q0 -46 -27 -81.5t-69 -35.5q-29 0 -60.5 21t-39.5 62q-8 42 27.5 77.5t-19.5 73.5q-37 25 -106 37.5t-170 -0.5l26 -133
q37 -184 99.5 -370t234.5 -190q12 0 45.5 4t33.5 33q0 13 -4 19.5t-13 31.5q-12 16 -18.5 33t-6.5 33q5 46 38 75.5t84 29.5q71 -4 96 -56.5t25 -85.5q-4 -84 -81.5 -132t-194.5 -44z" />
</svg>
