<?xml version="1.0" standalone="no"?>
<!DOCTYPE svg PUBLIC "-//W3C//DTD SVG 1.1//EN" "http://www.w3.org/Graphics/SVG/1.1/DTD/svg11.dtd" >
<svg xmlns="http://www.w3.org/2000/svg" xmlns:xlink="http://www.w3.org/1999/xlink" version="1.1" width="2048" height="2048" viewBox="-10 0 2068 2048">
   <path fill="currentColor"
d="M2048 1024q0 212 -80.5 399t-219 325.5t-325.5 219t-399 80.5t-399 -80.5t-325.5 -219t-219 -325.5t-80.5 -399t80.5 -399t219 -325.5t325.5 -219t399 -80.5t399 80.5t325.5 219t219 325.5t80.5 399zM1471 379q-76 3 -144 42.5t-116 98.5q-57 66 -96.5 140.5t-65.5 154.5
q-48 -40 -94.5 -84t-122.5 -66q-60 -17 -120.5 -8.5t-120.5 50.5q-25 23 -45 51t-28 57q-23 76 8 137t54 86l62 68q11 9 25.5 34t2.5 62q-11 40 -53.5 61t-93.5 7q-22 -6 -46 -23t-16 -39q3 -9 8.5 -17.5t8.5 -16.5q6 -6 7.5 -11.5t1.5 -8.5q8 -31 -3.5 -63.5t-42.5 -41.5
q-31 -8 -58 2t-38 47q-14 42 15.5 108.5t143.5 100.5q130 39 227.5 -17.5t114.5 -146.5q8 -60 -16 -108t-72 -102l-51 -59q-22 -23 -28 -59.5t17 -64.5q22 -29 53.5 -38.5t79.5 4.5q71 19 112 61.5t94 82.5q-22 71 -37.5 140t-27.5 134l-11 63q-37 198 -75 312.5t-112 176.5
q-14 11 -36.5 24t-56.5 13q-17 3 -22.5 -5.5t-5.5 -14.5q0 -11 7 -18.5t12 -12.5q12 -6 23 -17.5t11 -39.5q-2 -34 -27.5 -59.5t-65.5 -25.5q-31 3 -66.5 31.5t-35.5 79.5q3 53 49.5 90t123.5 34q39 -3 122.5 -31t171.5 -136q105 -121 146 -252.5t63 -233.5l31 -181
q14 0 30 1t30 1q130 3 195 -49t68 -100q0 -32 -18.5 -56t-46.5 -24q-20 0 -41 14.5t-27 42.5t18 52t-12 50q-26 17 -72.5 25.5t-114.5 -0.5l17 -90q25 -125 67.5 -251t158.5 -128q9 0 31.5 2.5t22.5 22.5q0 9 -3 13t-8 21q-9 11 -13 22.5t-4 22.5q2 31 25 51t57 20
q48 -3 65 -38.5t17 -57.5q-3 -57 -55.5 -89.5t-131.5 -29.5z" />
</svg>
