<?xml version="1.0" standalone="no"?>
<!DOCTYPE svg PUBLIC "-//W3C//DTD SVG 1.1//EN" "http://www.w3.org/Graphics/SVG/1.1/DTD/svg11.dtd" >
<svg xmlns="http://www.w3.org/2000/svg" xmlns:xlink="http://www.w3.org/1999/xlink" version="1.1" width="2048" height="2048" viewBox="-10 0 2068 2048">
   <path fill="currentColor"
d="M448 540v594q0 54 13 70.5t66 31.5l-18 100q-28 -5 -54.5 -10t-52.5 -15q-46 -18 -59 -56.5t-13 -82.5v-253v-253v-34q-23 3 -43.5 4t-38.5 4q-23 5 -34.5 21.5t-11.5 45.5q-2 35 -2 73v72q0 18 -1.5 35t-3.5 35q-3 30 -18.5 56t-40.5 43v4v2q41 28 52.5 67.5t11.5 83.5
v71v69q0 54 18 73.5t71 21.5l13 3v92q-38 0 -74 -5t-69 -21q-36 -20 -51.5 -53.5t-15.5 -71.5q-2 -39 -2 -78v-81v-15v-13q-3 -49 -23.5 -70.5t-66.5 -29.5v-5v-5v-37v-40l3 -3q48 -12 67.5 -35t19.5 -75v-62v-66q0 -20 1 -42t6 -45q8 -46 41.5 -74t89.5 -36
q15 -2 31.5 -3.5t32.5 -1.5h77h79v0zM655 1098q-7 46 25 83.5t80 47.5q49 7 95 1t92 -19q5 20 9 42t7 42q0 3 -4 8t-9 8q-69 20 -138.5 24t-138.5 -22q-43 -18 -74 -47.5t-46 -72.5q-28 -67 -27 -136t32 -135q44 -98 141 -123.5t179 13.5q51 23 78 65t35 93q5 31 6 63t1 65
h-172h-171v0zM878 1009q0 -57 -29.5 -90t-80.5 -33q-46 2 -80.5 38t-32.5 85h223zM1748 1508v-92l26 -3q38 -2 56 -20t18 -57v-73v-73q3 -18 3 -34.5t2 -34.5q6 -30 21 -54.5t43 -42.5q-48 -31 -57 -77t-12 -95v-66v-67q0 -46 -19 -64t-65 -20l-16 -3v-92q39 0 77.5 5
t74.5 28q30 21 43 51.5t15 66.5v87q0 44 3 87v26q0 13 5 23q8 31 28.5 47.5t53.5 16.5v92q-31 0 -52.5 15.5t-29.5 48.5q-2 10 -3.5 23t-1.5 26q-3 43 -3 85v86q-2 67 -38 104t-102 45q-18 2 -35 3.5t-35 1.5v0zM1769 812l-21 94q-38 -13 -75 -19t-76 -1q-25 5 -39 15
t-17 28q-2 18 6.5 34.5t32.5 27.5q17 10 36.5 16.5t39.5 16.5q13 5 24.5 10t21.5 10q57 26 77.5 64.5t12.5 99.5q-3 44 -33.5 74.5t-86.5 43.5q-64 13 -129.5 9t-129.5 -29l18 -95q28 8 55 14t55 11q23 3 46 1.5t46 -3.5q16 -3 27.5 -10.5t13.5 -25.5q3 -18 -2 -32t-18 -22
q-18 -12 -37.5 -21t-39.5 -17l-46 -21q-23 -10 -46 -23q-64 -35 -63 -123.5t76 -121.5q20 -11 43 -17t49 -9q43 -8 88 0t91 21zM1377 809l-23 97q-36 -13 -73 -19t-75 -1q-26 5 -40 15t-17 28q-5 21 5.5 36t33.5 26q20 10 40.5 17.5t41.5 18.5q10 2 20 7t21 10
q56 29 76.5 68.5t12.5 103.5q-7 41 -41.5 71.5t-91.5 41.5q-56 7 -112.5 4.5t-110.5 -17.5q-12 -5 -17.5 -11.5t-2.5 -21.5q5 -18 9 -36t6 -36q29 8 55.5 14t54.5 11q23 3 46.5 1.5t46.5 -3.5q15 -3 26.5 -12t14.5 -26q2 -16 -3 -30t-18 -22q-23 -12 -45 -22.5t-42 -20.5
t-40.5 -19t-41.5 -20q-64 -38 -62.5 -125t75.5 -123q33 -15 66.5 -21.5t69.5 -4.5q33 3 66 9.5t69 11.5v0z" />
</svg>
