<?xml version="1.0" standalone="no"?>
<!DOCTYPE svg PUBLIC "-//W3C//DTD SVG 1.1//EN" "http://www.w3.org/Graphics/SVG/1.1/DTD/svg11.dtd" >
<svg xmlns="http://www.w3.org/2000/svg" xmlns:xlink="http://www.w3.org/1999/xlink" version="1.1" width="2048" height="2048" viewBox="-10 0 2068 2048">
   <path fill="currentColor"
d="M253 833q18 0 32.5 2.5t24.5 8.5q10 5 16.5 10t6.5 13q0 10 -2.5 19t-7.5 22q-6 10 -9.5 19t-6.5 16q-2 3 -4.5 3t-5.5 -3l-1 -2q-2 -3 -2 -5q3 -5 3 -13v-18q0 -13 -2.5 -22t-7.5 -16q-8 -8 -15.5 -10.5t-18.5 -2.5q-12 0 -23.5 3.5t-19.5 11.5t-13 20.5t-5 25.5t4 26
t11 23q5 13 13 24.5t18 21.5q8 13 15.5 25.5t15.5 25.5q5 13 9 27t4 32q0 28 -11.5 51t-34.5 39q-24 15 -53 22.5t-68 7.5q-25 0 -47 -3.5t-37 -14.5q-16 -7 -23.5 -17.5t-7.5 -20.5q0 -3 1.5 -6.5t3.5 -8.5q3 -8 5.5 -13t7.5 -13q2 -5 7.5 -11.5t7.5 -14.5q5 -5 11 -10
l10 -10h5q2 0 5 2.5t3 5t-3 5.5q-5 2 -7.5 7.5t-5 10.5t-4 12.5t-1.5 15.5q0 15 4 26.5t14 21.5q10 8 23 13t26 5q23 0 38 -6t28 -17q10 -12 16.5 -26.5t6.5 -29.5t-3.5 -29t-11.5 -27q-5 -13 -13 -26t-15.5 -25.5t-15 -25.5t-15.5 -26q-5 -12 -9 -25t-4 -28q0 -21 9 -37.5
t27 -32.5q18 -12 43.5 -20t58.5 -8zM689 841q2 3 3.5 5.5t1.5 5t-4 5t-12 2.5h-24q-14 0 -29 2q-16 0 -32.5 1.5t-34.5 4.5q-15 38 -28 75t-23 76q-10 35 -15.5 66t-5.5 54q0 26 10.5 40t30.5 14q21 0 44 -18t49 -54q2 -3 4.5 -3t2.5 3q3 3 4 5.5t-1 4.5q-13 23 -29.5 42.5
t-37.5 34.5q-23 18 -42 25.5t-40 7.5q-20 0 -35.5 -5t-25.5 -15q-10 -8 -15.5 -22t-5.5 -32q0 -23 6.5 -55t16.5 -73q11 -41 25 -82t32 -82q-21 3 -40 5.5t-37 7.5l-4 -4t1 -4q3 -5 5.5 -7.5l7.5 -7.5q5 -3 11.5 -6.5t14 -6t14 -4t14.5 -1.5h5h8h5h8l20 -46t20 -44
q13 -23 23.5 -42t23.5 -37q5 -5 11 -10t14 -8q8 -5 17 -9t16.5 -6.5t14 -3.5t11.5 -1t7.5 1t0.5 4q-13 20 -26 43t-25 49q-16 26 -27.5 52.5t-24.5 55.5q16 0 31 -1.5t31 -1.5h29h30zM1651 47q13 0 23 2.5t16 8.5q7 7 12.5 15t10.5 18q2 10 2 20.5t-2 22.5q-3 13 -7 26
t-11 26q-3 2 -4 2t-4 -2q-3 0 -4 -3t-4 -5q3 -10 -1 -18t-11 -13q-8 -7 -21 -10t-31 -3q-33 0 -65 11.5t-65 37.5q-33 23 -65 55t-63 73q-31 38 -60.5 84.5t-57.5 97.5q-26 51 -49 105t-43 107q-21 57 -36 110.5t-28 107.5q-10 56 -16.5 104.5t-6.5 92.5q0 26 7.5 37.5
t20.5 11.5q10 0 19 -4t17 -12q10 -7 20.5 -20t22.5 -28h5h3q3 2 4 4.5t-1 7.5q-16 23 -35 42.5t-40 37.5q-20 15 -40.5 23t-35.5 8q-16 0 -26 -4t-18 -14q-5 -8 -7.5 -19.5t-2.5 -24.5q0 -38 7.5 -84t23.5 -103q15 -56 36.5 -115t47.5 -123q28 -61 59 -124t64 -124
q36 -62 71.5 -118t74.5 -105q38 -49 75 -89.5t76 -71.5q38 -31 74 -46.5t69 -15.5zM241 2001q-13 0 -22 -4t-16.5 -9t-13 -14t-7.5 -17q-3 -10 -4 -21.5t1.5 -24.5t6 -25.5t11.5 -25.5q3 -3 4 -3t4 3q2 2 4.5 3.5t2.5 4.5q-2 10 2 17.5t11 12.5q8 8 21 10.5t30 2.5
q34 0 67 -11.5t67 -34.5q30 -26 62 -58t63 -70q33 -41 61.5 -87t56.5 -97q25 -52 49.5 -105.5t42.5 -107.5q20 -54 35.5 -109t28.5 -108q10 -54 16.5 -104t6.5 -94q0 -23 -6.5 -35.5t-21.5 -12.5q-8 0 -18 3.5t-18 11.5q-10 10 -20.5 21.5t-23.5 27.5q-2 2 -3.5 2t-3.5 -2
q-3 -3 -3 -5v-5q16 -26 35 -45t39 -35q24 -15 43 -24t37 -9q15 0 25.5 5t15.5 13q5 10 9 20.5t4 25.5q0 36 -8 83t-26 101q-15 57 -35.5 117t-48.5 121q-26 62 -56.5 124.5t-66.5 124.5q-36 61 -72 117.5t-74 104.5q-38 52 -75.5 91.5t-75.5 70t-74 47.5t-69 17zM1313 1240
q-33 0 -49.5 -18t-16.5 -53q0 -13 1 -28.5t6 -30.5q3 -18 7 -34.5t9 -34.5q7 -18 13.5 -36t14.5 -39q8 -18 18 -34.5t20 -34.5q-7 5 -16 11.5t-17 11.5t-15.5 11.5t-12.5 14.5h-5q-3 0 -5 -3v-5v-5q12 -15 32.5 -29t43.5 -30q26 -15 50.5 -26.5t47.5 -21.5q2 0 6 1t4 4
q3 0 3 2v8q-26 33 -46.5 69t-36 74.5t-23 77t-7.5 73.5q0 23 6.5 34.5t21.5 11.5q10 0 23 -6t28 -22q16 -13 31 -30.5t33 -40.5q16 -23 32.5 -49t34.5 -54t33 -57.5t31 -60.5q0 -2 7.5 -7t17.5 -10q13 -6 24.5 -8.5t24.5 -2.5q10 0 14 4t-1 9q-10 21 -20.5 40t-18 37
t-15.5 36t-13 35.5t-9 35.5t-6.5 36t-3.5 37.5t-1 39.5q0 26 6.5 38.5t18.5 12.5q13 0 28.5 -11.5t33.5 -34.5q2 -2 3.5 -2t4.5 2q2 0 3.5 2.5t1.5 5.5q-16 20 -30 37t-32 27q-15 10 -30.5 15t-28.5 5q-33 0 -49.5 -19t-16.5 -57q0 -41 7.5 -81t20.5 -81q-31 54 -61.5 97.5
t-66.5 76.5q-33 34 -61.5 49t-51.5 15zM1971 833q18 0 32 2.5t25 8.5q10 5 15 10t5 13q0 10 -1.5 19t-6.5 22q-5 10 -8.5 19t-9.5 16q0 3 -2.5 3t-4.5 -3q-3 0 -4 -2.5t-1 -4.5q2 -5 3.5 -13t1.5 -18q0 -13 -2.5 -22t-8.5 -16q-7 -8 -15 -10.5t-18 -2.5q-13 0 -24.5 3.5
t-18.5 11.5q-11 8 -14.5 20.5t-3.5 25.5t3.5 26t9.5 23q7 13 15 24.5t15 21.5q11 13 18.5 25.5t12.5 25.5q8 13 11.5 27t3.5 32q0 28 -11.5 51t-34.5 39q-23 15 -53.5 22.5t-66.5 7.5q-28 0 -48.5 -3.5t-36.5 -14.5q-15 -7 -24 -17.5t-9 -20.5q0 -3 1.5 -6.5t3.5 -8.5
q3 -8 7 -13t6 -13q5 -5 9 -11.5t9 -14.5l10 -10l11 -10h5q2 0 5 3q0 2 1 4.5t-1 5.5q-5 2 -9 7.5t-6.5 10.5t-4 12.5t-1.5 15.5q0 15 5.5 26.5t15.5 21.5q10 8 21.5 13t26.5 5q21 0 37.5 -6t26.5 -17q13 -12 18 -26.5t5 -29.5t-2.5 -29t-10 -27t-14 -26t-14.5 -25
q-10 -13 -16.5 -26t-13.5 -26q-8 -12 -10.5 -25t-2.5 -28q0 -21 9 -37.5t24 -32.5q18 -12 43.5 -20t61.5 -8z" />
</svg>
