<?xml version="1.0" standalone="no"?>
<!DOCTYPE svg PUBLIC "-//W3C//DTD SVG 1.1//EN" "http://www.w3.org/Graphics/SVG/1.1/DTD/svg11.dtd" >
<svg xmlns="http://www.w3.org/2000/svg" xmlns:xlink="http://www.w3.org/1999/xlink" version="1.1" width="2048" height="2048" viewBox="-10 0 2067 2048">
   <path fill="currentColor"
d="M939 1620v-1364q0 -10 -3.5 -17.5t-8.5 -12.5q-6 -8 -13.5 -10.5t-17.5 -2.5h-641q-8 0 -15.5 2.5t-15.5 10.5q-5 5 -7.5 12.5t-2.5 17.5v1364q0 10 2.5 18t7.5 13q8 5 15.5 9t15.5 4h641q10 0 17.5 -4t13.5 -9q5 -5 8.5 -13t3.5 -18zM1834 1107v-851q0 -10 -2.5 -17.5
t-7.5 -12.5q-8 -8 -15.5 -10.5t-15.5 -2.5h-641q-10 0 -17.5 2.5t-13.5 10.5q-5 5 -8.5 12.5t-3.5 17.5v851q0 11 3.5 18.5t8.5 12.5q6 8 13.5 10.5t17.5 2.5h641q8 0 15.5 -2.5t15.5 -10.5q5 -5 7.5 -12.5t2.5 -18.5zM2047 85v1876q0 18 -6.5 33.5t-16.5 27.5
q-13 13 -28.5 19.5t-33.5 6.5h-1876q-18 0 -33.5 -6.5t-28.5 -19.5q-10 -12 -16.5 -27.5t-6.5 -33.5v-1876q0 -18 6.5 -32.5t16.5 -26.5q13 -13 28.5 -19.5t33.5 -6.5h1876q18 0 33.5 6.5t28.5 19.5q10 12 16.5 26.5t6.5 32.5z" />
</svg>
