<?xml version="1.0" standalone="no"?>
<!DOCTYPE svg PUBLIC "-//W3C//DTD SVG 1.1//EN" "http://www.w3.org/Graphics/SVG/1.1/DTD/svg11.dtd" >
<svg xmlns="http://www.w3.org/2000/svg" xmlns:xlink="http://www.w3.org/1999/xlink" version="1.1" width="2048" height="2048" viewBox="-11 0 2069 2048">
   <path fill="currentColor"
d="M1997 88q-108 59 -224 103.5t-237.5 74t-247 46t-253.5 16.5q-131 0 -256 -16.5t-246.5 -46t-238 -74t-224.5 -103.5q-5 -3 -10 -5.5t-10 -2.5q-13 0 -23 5t-18 15q-10 13 -9 33.5t19 33.5q108 79 225.5 142t245.5 106q131 44 267.5 67t277.5 23q138 0 275 -23t267 -67
q128 -43 246 -106t225 -142zM1690 543q-62 23 -124.5 42t-118.5 32q-13 3 -22 10.5t-11 17.5q-44 116 -141 228.5t-210 227.5q-5 2 -11.5 7.5t-16.5 5.5t-18 -4t-10 -9q-115 -115 -212.5 -226.5t-138.5 -226.5q-5 -13 -14 -20.5t-21 -10.5q-57 -13 -119.5 -32t-124.5 -42
q-5 -3 -7 -3h-8q-5 0 -11.5 1.5t-11.5 6.5q-8 5 -11.5 15.5t-3.5 17.5q10 98 48.5 192.5t107.5 191.5q64 95 144.5 180.5t159.5 167.5q151 154 272.5 303.5t131.5 315.5q3 16 14.5 26t24.5 10h235q8 0 15.5 -4t12.5 -9t8 -12.5t3 -15.5q-6 -113 -48 -225.5t-124 -229.5
q-18 -26 -36 -50t-35 -48q-8 -10 -7 -20t9 -15q5 -8 10 -13l13 -13q79 -82 160 -167.5t145 -180.5q69 -97 107 -191.5t49 -189.5zM782 1487q-3 -5 -9.5 -9t-16.5 -4q-13 0 -22 8t-11 13q-74 110 -112.5 217.5t-43.5 214.5q0 8 2.5 15.5t7.5 12.5t12.5 9t15.5 4h236
q12 0 23.5 -10t14.5 -26q2 -51 19 -103.5t45 -106.5q10 -18 6 -34.5t-11 -23.5q-28 -39 -65.5 -80t-90.5 -97zM1035 663q54 0 86 -2.5t44 -2.5q13 0 24.5 10.5t11.5 25.5q0 5 -1 9t-1 6q-8 18 -42.5 78t-95.5 122q-8 5 -14.5 7.5t-11.5 2.5q-8 0 -14.5 -2.5t-13.5 -7.5
q-62 -62 -96.5 -122t-39.5 -78q-2 -2 -3.5 -6t-1.5 -9q0 -15 11.5 -25.5t24.5 -10.5t45 2.5t85 2.5h3z" />
</svg>
