<?xml version="1.0" standalone="no"?>
<!DOCTYPE svg PUBLIC "-//W3C//DTD SVG 1.1//EN" "http://www.w3.org/Graphics/SVG/1.1/DTD/svg11.dtd" >
<svg xmlns="http://www.w3.org/2000/svg" xmlns:xlink="http://www.w3.org/1999/xlink" version="1.1" width="2048" height="2048" viewBox="-10 0 2058 2048">
   <path fill="currentColor"
d="M582 123q-56 0 -94.5 40t-38.5 95q0 56 38.5 94.5t94.5 38.5t95.5 -38.5t39.5 -94.5q0 -55 -39.5 -95t-95.5 -40zM1466 123q-56 0 -95.5 40t-39.5 95q0 56 39.5 94.5t95.5 38.5t94.5 -38.5t38.5 -94.5q0 -55 -38.5 -95t-94.5 -40zM1024 0q-56 0 -95.5 40t-39.5 95
q0 56 39.5 94.5t95.5 38.5t95.5 -38.5t39.5 -94.5q0 -55 -39.5 -95t-95.5 -40zM1741 493q-67 24 -135 44.5t-130 34.5q-15 3 -24.5 12.5t-14.5 19.5q-46 128 -152 250t-230 247q-4 5 -11.5 10t-19.5 5t-19.5 -5t-11.5 -10q-124 -125 -230 -247t-152 -248q-5 -12 -14.5 -20.5
t-21.5 -13.5q-65 -14 -133 -34.5t-135 -47.5q-5 0 -8.5 -1t-6.5 -1q-7 0 -14.5 2.5t-11.5 7.5q-10 7 -13.5 16.5t-3.5 19.5q12 106 53 210t116 210q70 101 158 195.5t178 183.5q79 85 156.5 167t138 164t100 168t44.5 177q2 17 14.5 28t29.5 11h256q7 0 15.5 -3.5t13.5 -8.5
q7 -7 9.5 -15.5t2.5 -15.5q-5 -124 -52 -247t-134 -251q-20 -29 -39 -54.5t-41 -51.5q-7 -12 -6 -23t8 -18l14 -14l13 -13q87 -89 175 -183.5t158 -195.5q75 -106 116 -210t53 -208zM749 1524q-5 -5 -11 -10t-18 -5q-15 0 -23.5 8.5t-10.5 13.5q-82 121 -124.5 239.5
t-47.5 234.5q0 7 2.5 15.5t9.5 15.5q5 5 13.5 8.5t15.5 3.5h256q17 0 29.5 -11t14.5 -28q2 -55 20.5 -112t49.5 -117q12 -19 7 -37.5t-12 -25.5q-31 -41 -72 -87t-99 -106zM1024 623q60 0 95 -2.5t47 -2.5q17 0 28 11t11 28v8q0 4 -2 6q-8 22 -45 88.5t-105 131.5
q-7 7 -14.5 9.5t-14.5 2.5q-5 0 -13.5 -2.5t-15.5 -9.5q-68 -65 -105 -131.5t-45 -88.5q-2 -2 -2 -6v-8q0 -17 12 -28t27 -11q12 0 47 2.5t95 2.5v0z" />
</svg>
