<?xml version="1.0" standalone="no"?>
<!DOCTYPE svg PUBLIC "-//W3C//DTD SVG 1.1//EN" "http://www.w3.org/Graphics/SVG/1.1/DTD/svg11.dtd" >
<svg xmlns="http://www.w3.org/2000/svg" xmlns:xlink="http://www.w3.org/1999/xlink" version="1.1" width="2048" height="2048" viewBox="-10 0 2058 2048">
   <path fill="currentColor"
d="M1657 16q-45 -25 -164.5 -11t-273.5 65q-135 92 -257 207.5t-215 261.5t-150.5 325.5t-65.5 398.5q-3 12 -23 5t-25 -10q-73 -141 -94 -298t40 -371q12 -19 -12 -36t-33 -11q-11 14 -57 65.5t-83 116.5q-93 160 -111 335.5t29.5 341.5t156 306.5t271.5 227.5
q160 90 335.5 108t339.5 -28.5t304.5 -154.5t230.5 -268q104 -185 116.5 -442t-24 -497.5t-105 -421.5t-130.5 -215z" />
</svg>
