<?xml version="1.0" standalone="no"?>
<!DOCTYPE svg PUBLIC "-//W3C//DTD SVG 1.1//EN" "http://www.w3.org/Graphics/SVG/1.1/DTD/svg11.dtd" >
<svg xmlns="http://www.w3.org/2000/svg" xmlns:xlink="http://www.w3.org/1999/xlink" version="1.1" width="2048" height="2048" viewBox="-10 0 2068 2048">
   <path fill="currentColor"
d="M1972 1271q38 -55 57 -118t19 -130q0 -91 -35 -173t-100 -146l-570 -571q-62 -61 -143.5 -96.5t-175.5 -35.5t-175.5 35.5t-143.5 96.5l-570 571q-65 64 -100 146t-35 173q0 90 35 172t100 146l515 515q14 18 30 34t34 31q64 61 143 93.5t167 32.5q91 0 173 -35.5
t146 -96.5l556 -559l1 -1l2 -2l11 -12q18 -14 32.5 -31.5t26.5 -38.5v0v0zM1881 1023q0 43 -13 82.5t-34 72.5q-14 20 -28.5 36t-29.5 28v3q-67 64 -142 87.5t-142 23.5q-35 0 -67 -4.5t-59 -10.5q-149 -38 -295 -162t-223 -314q41 17 85 26t91 9q176 0 303 -115.5
t145 -285.5l324 322q41 41 63 93.5t22 108.5zM1024 168q117 0 200.5 82t83.5 202q0 117 -83.5 199t-200.5 82t-200.5 -82t-83.5 -199q0 -120 83.5 -202t200.5 -82zM252 1224q-41 -41 -63 -92t-22 -109q0 -56 22 -108.5t63 -90.5l219 -223q-44 147 -61.5 299t-5.5 301
q3 53 10 104t16 98zM626 663q18 140 80.5 277.5t156.5 250t212.5 194.5t249.5 117q44 12 86.5 16.5t83.5 4.5h3l-272 272q-41 41 -93.5 63t-108.5 22q-41 0 -77.5 -12t-68.5 -29v-3q-15 -6 -26.5 -16t-23.5 -22h-3l-3 -3l-53 -56q-84 -96 -137 -238t-64 -312
q-9 -131 7 -264.5t51 -261.5z" />
</svg>
