<?xml version="1.0" standalone="no"?>
<!DOCTYPE svg PUBLIC "-//W3C//DTD SVG 1.1//EN" "http://www.w3.org/Graphics/SVG/1.1/DTD/svg11.dtd" >
<svg xmlns="http://www.w3.org/2000/svg" xmlns:xlink="http://www.w3.org/1999/xlink" version="1.1" width="2048" height="2048" viewBox="-10 0 2068 2048">
   <path fill="currentColor"
d="M2048 1868q0 73 -53.5 126.5t-126.5 53.5h-1688q-73 0 -126.5 -53.5t-53.5 -126.5v-1685q0 -76 53.5 -129.5t126.5 -53.5h1688q73 0 126.5 53.5t53.5 129.5v1685zM2048 644l-186 -125q3 -11 4.5 -24t1.5 -25q0 -90 -63.5 -154t-153.5 -64t-154 64t-64 154q0 35 11.5 67
t29.5 61l-401 609q-11 -3 -22.5 -4.5t-26.5 -1.5q-41 0 -77 14.5t-62 37.5l-270 -154q3 -8 3 -16v-15q0 -90 -64 -154t-154 -64t-153.5 64t-63.5 154q0 23 4 44.5t13 39.5l-200 185v198l296 -276q23 14 49 20t55 6q44 0 81.5 -14.5t66.5 -43.5l261 151q0 9 -1.5 19t-1.5 22
q0 89 64 153t154 64t154 -64t64 -153q0 -38 -12 -71.5t-35 -62.5l398 -606q14 3 28.5 6t29.5 3q37 0 72 -13.5t61 -33.5l264 177v-174z" />
</svg>
