<?xml version="1.0" standalone="no"?>
<!DOCTYPE svg PUBLIC "-//W3C//DTD SVG 1.1//EN" "http://www.w3.org/Graphics/SVG/1.1/DTD/svg11.dtd" >
<svg xmlns="http://www.w3.org/2000/svg" xmlns:xlink="http://www.w3.org/1999/xlink" version="1.1" width="2048" height="2048" viewBox="-11 0 2070 2048">
   <path fill="currentColor"
d="M1407 67q-124 21 -250 49t-242.5 60t-220 69t-182.5 74q-181 85 -301.5 228t-181.5 342q-18 66 -23.5 111t-5.5 135q-3 207 71.5 374t225.5 305q127 114 279.5 172t327.5 58q132 0 255.5 -34t229.5 -99t191 -156.5t140 -208.5q48 -103 95.5 -246t87.5 -307.5t71.5 -339.5
t47.5 -345q19 -185 24.5 -240.5t-5.5 -63.5h-8h-13q-6 0 -92 8q-86 7 -192 17q-106 9 -204 21t-125 17zM920 626q2 11 9 70.5t12 134.5q5 71 10.5 124t5.5 56q3 0 25.5 -17.5t51.5 -46.5q71 -66 135 -114t74 -42q13 5 -26.5 62t-116.5 142l-82 93l146 8q265 13 277 38
t-238 44l-180 13l88 101q74 82 112.5 135t30.5 61q-8 5 -65 -34.5t-139 -111.5l-93 -82l-13 177q-11 138 -24 196.5t-27 34.5q-10 -18 -23.5 -135t-13.5 -194q0 -34 -2.5 -58t-5 -24t-18.5 12t-32 31q-64 66 -155.5 133.5t-91.5 49.5q0 -16 44 -73t105 -126l85 -93l-178 -13
q-146 -14 -193.5 -20.5t-47.5 -16.5q0 -16 100.5 -30.5t212.5 -17.5q39 0 67 -2.5t28 -5.5q0 -5 -24 -34.5t-55 -68.5q-154 -173 -137 -190t192 137q37 34 67.5 58t33.5 24t4 -25.5t1 -59.5q0 -66 10.5 -169.5t21.5 -132.5q5 -24 15.5 -22.5t16.5 24.5z" />
</svg>
