<?xml version="1.0" standalone="no"?>
<!DOCTYPE svg PUBLIC "-//W3C//DTD SVG 1.1//EN" "http://www.w3.org/Graphics/SVG/1.1/DTD/svg11.dtd" >
<svg xmlns="http://www.w3.org/2000/svg" xmlns:xlink="http://www.w3.org/1999/xlink" version="1.1" width="2048" height="2048" viewBox="-10 0 2068 2048">
   <path fill="currentColor"
d="M662 1622q-92 -22 -142 -93t-50 -182q0 -34 3 -54.5t11 -43.5q22 -55 76.5 -95.5t129.5 -54.5q36 -8 50 -18t14 -29q0 -6 4 -21t10 -32q25 -72 66.5 -128t91.5 -78q50 -28 86.5 -35t97.5 -7q86 0 140.5 24t115.5 88l44 47l39 -14q148 -50 270 22.5t134 213.5l5 53l39 14
q81 31 118.5 90.5t31.5 151.5q-5 59 -31.5 104.5t-68.5 68.5l-28 16h-612q-350 0 -488 -1t-157 -7v0zM206 1539q-56 -14 -107.5 -57.5t-79.5 -95.5q-13 -34 -16 -50.5t-3 -72.5q0 -53 3 -71t14 -43q25 -55 72 -94t111 -53q11 -3 22.5 -8.5t13.5 -8.5q0 -3 3 -17t3 -33
q3 -108 68.5 -196t167.5 -121q53 -17 117 -12.5t125 29.5q17 5 25.5 -0.5t50.5 -58.5q22 -30 63.5 -63.5t80.5 -53.5q42 -22 86.5 -31.5t97.5 -9.5q144 0 259.5 84.5t163.5 221.5q13 44 12 60.5t-18 16.5q-8 0 -26 3t-38 9l-47 14l-42 -45q-89 -89 -221 -105.5t-257 44.5
q-48 22 -88 58t-71 81q-19 33 -41.5 80.5t-22.5 64.5q0 11 -12.5 18t-48.5 18q-114 39 -178 121t-64 193q0 39 9.5 83.5t23.5 72.5q6 11 8.5 19.5t2.5 10.5q-5 3 -104 3t-118 -5v0z" />
</svg>
