<?xml version="1.0" standalone="no"?>
<!DOCTYPE svg PUBLIC "-//W3C//DTD SVG 1.1//EN" "http://www.w3.org/Graphics/SVG/1.1/DTD/svg11.dtd" >
<svg xmlns="http://www.w3.org/2000/svg" xmlns:xlink="http://www.w3.org/1999/xlink" version="1.1" width="2048" height="2048" viewBox="-10 0 2058 2048">
   <path fill="currentColor"
d="M1427 2q-2 0 -39.5 38.5t-86.5 91.5l-121 128l-49 190l-136 2q-190 4 -299.5 19.5t-130.5 39.5q-4 4 -3 7t7 9q27 21 125 35t225 18t258.5 -2t221.5 -24q64 -12 80.5 -27.5t-20.5 -29.5q-26 -12 -102 -24.5t-119 -12.5q-12 0 -16 -1t-4 -7q0 -2 6 -26t14 -55l19 -75
l113 -121q47 -49 80.5 -86.5t35.5 -39.5q2 -14 -23.5 -34.5t-35.5 -12.5zM569 564q0 4 8.5 79t17.5 163t17 162t8 76q2 2 4 -2l6 -12q27 -77 74.5 -133.5t94.5 -67.5q22 -6 39 0t36 25q20 18 23 37t-11 28q-8 4 -16.5 -2.5t-16.5 -22.5q-22 -38 -58.5 -20t-77.5 89
q-44 73 -54 140t24 67q12 0 37.5 -20.5t47.5 -46.5q14 -18 21.5 -31.5t15.5 -37.5q4 -16 10 -28t8 -14t7 -3t9 -1q8 2 10 5t4 15q0 10 -3 23t-9 32q-8 26 -20 61.5t-31 98.5q-4 14 -9 27t-7 15q-6 10 -14 10t-12 -10q-4 -6 -2 -17t10 -40q4 -18 9 -33t7 -19q0 -4 -7 1
t-19 17q-31 28 -59 39.5t-45 1.5q-6 -2 -7 -1t-1 7q0 24 15.5 166t17.5 146q10 12 65.5 27t120.5 26q51 8 162.5 8t162.5 -8q42 -7 84.5 -17t65.5 -18q32 -12 38 -31.5t24 -177.5q9 -77 15 -133l6 -55l-9 6t-20 16q-24 20 -42 29.5t-37 9.5q-16 0 -24 -4.5t-12 -14.5
q-4 -12 3 -26t29 -43q27 -32 34 -42t7 -16q0 -15 -24.5 -3.5t-40.5 31.5q-6 8 -14 18t-12 18q-11 17 -32 66.5t-35 88.5q-10 28 -20.5 42t-20.5 14q-6 0 -13 -6t-7 -10q0 -8 9 -32.5t27 -62.5q13 -25 21 -43l8 -18q0 -2 -5 2t-14 10q-16 14 -34 22.5t-28 8.5q-13 0 -23 -6.5
t-10 -12.5t-3 -5t-21 11q-31 17 -46 10.5t-15 -32.5v-16l-16 18q-24 22 -50.5 29.5t-44.5 -5.5q-11 -8 -11 -29t13 -56q20 -61 36 -86t33 -17q8 6 6 17t-17 42q-24 48 -25 71.5t19 17.5q21 -6 44 -35.5t39 -72.5q4 -12 9.5 -22t9.5 -14q6 -6 14 -5t12 11q2 6 -1 18t-15 41
q-10 24 -15 40.5t-5 26.5q0 12 2 15t10 3q10 -2 24 -11t16 -17q10 -31 59 -151.5t55 -126.5t10 -7t10 1t9 5t5 7q0 4 -5 19t-13 32q-30 69 -60.5 149t-30.5 86t1 9t3 3q8 0 26 -12t39 -31q20 -16 27 -25t11 -21q12 -37 21.5 -48t21.5 -5q6 2 7 6t-1 12v10v4q2 0 8 -5t12 -11
q24 -22 44.5 -27t38.5 7q8 4 10 9t2 17q0 15 -12 37t-38 53q-10 10 -16.5 19t-6.5 11t3.5 3t7.5 1q6 0 42.5 -28.5t48.5 -42.5q4 -4 11 -67t23 -211q12 -111 21 -190l8 -79q0 -2 -7.5 0t-15.5 6q-24 8 -72.5 16t-109.5 14q-35 4 -101.5 6t-139.5 2t-140 -1t-100 -5
q-62 -6 -116 -14t-78 -16l-31 -10v10zM691 1569l8 15q8 16 20 36l29 49l12 162l12 164l12 10q23 20 77.5 30.5t139.5 12.5q98 2 167.5 -9.5t94.5 -33.5l14 -10l8 -166l10 -164l27 -45q10 -20 18 -34l8 -15q0 -2 -8 0t-21 6q-40 15 -112 26t-143 15q-79 4 -184.5 -9
t-166.5 -34q-10 -4 -16 -5z" />
</svg>
