<?xml version="1.0" standalone="no"?>
<!DOCTYPE svg PUBLIC "-//W3C//DTD SVG 1.1//EN" "http://www.w3.org/Graphics/SVG/1.1/DTD/svg11.dtd" >
<svg xmlns="http://www.w3.org/2000/svg" xmlns:xlink="http://www.w3.org/1999/xlink" version="1.1" width="2048" height="2048" viewBox="-11 0 2070 2048">
   <path fill="currentColor"
d="M609 96q-90 20 -134.5 117t-34.5 249q2 45 4.5 59t12.5 69q3 22 5 40l3 17q-3 0 -15.5 4t-32.5 9q-120 27 -208.5 68t-140.5 96q-38 38 -54 73t-14 77q0 25 7.5 51t22.5 51q13 20 49 57.5t66 57.5q62 40 87 49t43 -9q7 -7 9.5 -12t2.5 -13q0 -17 -7.5 -27t-24.5 -20
q-85 -48 -128.5 -95.5t-43.5 -94.5q0 -17 6 -32t19 -35q37 -50 123 -92.5t206 -70.5q33 -7 41.5 -7t8.5 5t20 68.5t37 108.5l23 60l-28 52q-12 20 -26 49t-21 46q-117 260 -136 453.5t66 277.5q20 20 38.5 30t46.5 18q62 17 142 -6.5t172 -83.5q33 -22 43 -33.5t10 -26.5
t-15 -28.5t-33 -11.5q-5 0 -20 9t-32 21q-37 25 -77 45t-70 28q-33 10 -64 11t-51 -9q-60 -25 -72.5 -125t25.5 -249q17 -70 52 -163.5t72 -166.5l18 -37l12 22q15 35 59 122.5t66 124.5q62 105 128.5 196t132.5 165t132 127.5t129 85.5q87 45 158 40t121 -57
q38 -38 56.5 -96.5t20.5 -140.5q5 -147 -41 -330.5t-138 -385.5q-13 -28 -24 -49t-14 -24q-5 -7 -17.5 -9.5t-19.5 -2.5q-10 2 -20 12t-13 20q-2 10 3 24t27 63q65 138 107.5 276.5t60.5 263.5q5 39 6 109t-4 98q-5 27 -15 53.5t-20 43.5q-17 25 -38.5 36t-53.5 11
q-95 0 -234.5 -121t-277.5 -323q-60 -92 -116 -194.5t-101 -204.5l-20 -50l28 -50q30 -47 59.5 -94.5t64.5 -95.5l35 -49h55q143 0 282.5 16t263 43.5t227 67.5t176.5 90q32 22 60.5 50.5t41.5 51.5q7 15 8.5 23.5t1.5 26.5q0 17 -1.5 26t-8.5 19q-18 35 -60 68.5t-105 58.5
q-30 13 -41 24t-11 26q0 12 6 22t16 15q13 5 20.5 5t27.5 -7q87 -38 148 -87.5t84 -104.5q35 -100 -39 -196t-248 -171q-75 -33 -166 -60t-194.5 -46t-216 -30t-227.5 -14h-32l37 -45q33 -37 92.5 -97t92.5 -87q75 -63 141 -103t123 -57q30 -8 60 -8t50 10q25 10 41.5 35
t26.5 63q5 25 5 81t-5 91q-8 37 -6.5 49.5t11.5 22.5q7 8 12 10.5t18 2.5q22 0 30.5 -12.5t16.5 -55.5q2 -20 3.5 -45t1.5 -64q0 -50 -1.5 -67.5t-6.5 -37.5q-15 -63 -53.5 -105.5t-90.5 -54.5q-60 -15 -136 6t-161 75t-177.5 138.5t-184.5 197.5q-15 17 -27.5 32t-15.5 18
q-5 7 -13.5 8.5t-43.5 3.5q-22 0 -56 4t-61 6q-73 8 -81.5 8t-11.5 -20q-12 -50 -16 -92.5t-4 -97.5q0 -62 2.5 -89.5t15.5 -60.5q10 -35 30 -58.5t45 -31.5q12 -5 37 -5t43 5q30 8 69.5 29t77.5 51q25 18 35 21.5t22 -1.5q15 -2 22.5 -13.5t7.5 -26.5q0 -10 -2.5 -15
t-14.5 -15q-15 -17 -52.5 -42t-67.5 -38q-52 -27 -98.5 -35.5t-86.5 1.5zM737 699l-15 23q-15 22 -35 52t-36.5 56.5t-21.5 31.5l-10 17l-7 -22q-8 -20 -25.5 -76.5t-17.5 -61.5t21.5 -8.5t106.5 -11.5q17 -2 28.5 -2t11.5 2zM996 909q-20 8 -36 20.5t-26 27.5
q-33 44 -19 96.5t64 77.5q15 8 23.5 9t28.5 1q22 0 31 -1t24 -9q65 -32 63.5 -108t-68.5 -106q-18 -10 -42.5 -11.5t-42.5 3.5z" />
</svg>
