<?xml version="1.0" standalone="no"?>
<!DOCTYPE svg PUBLIC "-//W3C//DTD SVG 1.1//EN" "http://www.w3.org/Graphics/SVG/1.1/DTD/svg11.dtd" >
<svg xmlns="http://www.w3.org/2000/svg" xmlns:xlink="http://www.w3.org/1999/xlink" version="1.1" width="2048" height="2048" viewBox="-10 0 2068 2048">
   <path fill="currentColor"
d="M43 1034q-7 0 -15 2.5t-15 10.5q-5 5 -9 12.5t-4 18.5v97q0 10 4 17.5t9 12.5q7 5 15 8t15 3q11 0 18.5 -3t12.5 -8q8 -5 10.5 -12.5t4.5 -17.5v-97q0 -11 -3.5 -18.5t-11.5 -12.5q-5 -8 -12.5 -10.5t-18.5 -2.5zM289 912q-8 0 -15.5 2.5t-15.5 9.5q-5 6 -9 13.5t-4 17.5
v220q0 10 4 17.5t11 12.5q6 5 13.5 8t15.5 3q10 0 17.5 -3t12.5 -8q8 -5 12 -12.5t4 -17.5v-220q0 -10 -4 -17.5t-9 -13.5q-8 -7 -15.5 -9.5t-17.5 -2.5zM534 743q-8 0 -15.5 2.5t-15.5 10.5q-5 5 -9 12.5t-4 18.5v477q0 10 4 16.5t9 14.5q8 5 15.5 7.5t15.5 2.5
q7 0 16 -2.5t14 -7.5q5 -8 9 -14.5t7 -16.5v-477q-3 -11 -5.5 -18.5t-10.5 -12.5q-5 -8 -12.5 -10.5t-17.5 -2.5zM779 912q-8 0 -15.5 2.5t-15.5 9.5q-5 6 -9 13.5t-4 17.5v220q0 10 4 17.5t9 12.5q8 5 15.5 8t15.5 3q10 0 17.5 -3t12.5 -8q8 -5 10.5 -12.5t5.5 -17.5v-220
q0 -10 -4 -17.5t-12 -13.5q-5 -7 -12.5 -9.5t-17.5 -2.5zM1024 1034q-8 0 -17 2.5t-14 10.5q-5 5 -8.5 12.5t-3.5 18.5v97q0 10 3.5 17.5t8.5 12.5q8 5 15.5 8t15.5 3t17 -3t14 -8t8.5 -12.5t3.5 -17.5v-97q0 -11 -2.5 -18.5t-9.5 -12.5q-5 -8 -14 -10.5t-17 -2.5zM1269 912
q-8 0 -15.5 2.5t-14.5 9.5q-6 6 -9.5 13.5t-3.5 17.5v220q0 10 3.5 17.5t9.5 12.5q7 5 14.5 8t15.5 3t17 -3t14 -8t9 -12.5t6 -17.5v-220q-2 -10 -5 -17.5t-10 -13.5q-5 -7 -13 -9.5t-18 -2.5zM1514.5 743q-7.5 0 -16.5 2.5t-14 10.5q-8 5 -10.5 12.5t-2.5 18.5v477
q0 10 4 16.5t9 14.5q5 5 14 7.5t16 2.5q8 0 15.5 -2.5t15.5 -7.5q5 -8 9 -14.5t4 -16.5v-477q0 -11 -4 -18.5t-9 -12.5q-5 -8 -14 -10.5t-16.5 -2.5zM1759.5 912q-7.5 0 -16.5 2.5t-14 9.5q-8 6 -10.5 13.5t-2.5 17.5v220q0 10 4 17.5t9 12.5t14 8t16.5 3t15 -3t15.5 -8
q5 -5 9 -12.5t4 -17.5v-220q0 -10 -4 -17.5t-9 -13.5q-5 -7 -14 -9.5t-16.5 -2.5zM2035 1047q-7 -8 -15 -10.5t-15 -2.5q-11 0 -18.5 2.5t-12.5 10.5q-8 5 -11.5 12.5t-3.5 18.5v97q2 10 4.5 17.5t10.5 12.5q5 5 12.5 8t18.5 3q7 0 15 -3t15 -8q5 -5 9 -12.5t4 -17.5v-97
q0 -11 -4 -18.5t-9 -12.5z" />
</svg>
