<?xml version="1.0" standalone="no"?>
<!DOCTYPE svg PUBLIC "-//W3C//DTD SVG 1.1//EN" "http://www.w3.org/Graphics/SVG/1.1/DTD/svg11.dtd" >
<svg xmlns="http://www.w3.org/2000/svg" xmlns:xlink="http://www.w3.org/1999/xlink" version="1.1" width="2048" height="2048" viewBox="-10 0 2058 2048">
   <path fill="currentColor"
d="M447 46q18 96 34 215t27.5 229t16 199.5t0.5 128.5q-7 52 -37 134.5t-59 149.5q-67 130 -59 165.5t111 88.5q39 20 48 45.5t3 89.5q-5 69 3 87t47 25q37 5 45 18.5t-2 50.5q-11 39 0.5 55t57.5 32q43 13 60.5 38.5t26.5 82.5q16 92 74 136.5t141 26.5q30 -5 101 -38
t139 -72q69 -41 149 -75.5t122 -41.5q77 -11 94.5 -33t47.5 -141q54 -218 36 -297t-89 66q-48 96 -153.5 183t-174.5 87q-16 0 -5.5 -12.5t42.5 -33.5q124 -78 193.5 -196t84.5 -250.5t-27.5 -267.5t-145.5 -245q-82 -90 -109.5 -98t38.5 77q62 78 95.5 213t19.5 245
q-14 98 -67.5 178.5t-129.5 121.5q-30 18 -23 3.5t53 -67.5q50 -57 65 -97.5t15 -117.5q0 -81 -27.5 -165.5t-89.5 -186.5t-160.5 -228t-242.5 -286q-117 -130 -95 -46.5t152 268.5q99 140 94.5 148t-112.5 -104q-89 -94 -202.5 -234t-205.5 -270q-22 -32 -24.5 -30t4.5 46z
" />
</svg>
