<?xml version="1.0" standalone="no"?>
<!DOCTYPE svg PUBLIC "-//W3C//DTD SVG 1.1//EN" "http://www.w3.org/Graphics/SVG/1.1/DTD/svg11.dtd" >
<svg xmlns="http://www.w3.org/2000/svg" xmlns:xlink="http://www.w3.org/1999/xlink" version="1.1" width="2048" height="2048" viewBox="-10 0 2058 2048">
   <path fill="currentColor"
d="M1055 2q-36 2 -65 7t-55 14q-14 5 -42 14.5t-40 17.5q-9 4 -45.5 23.5t-62.5 33.5q-48 29 -74.5 58t-38.5 65q-3 7 -4 9.5t-3 4.5q-12 5 -22 14.5t-17 19.5q-12 17 -19 41t-12 53v12v10l-3 7l-14 12q-31 26 -62.5 62t-55.5 70q-50 75 -84 159t-46 171q-5 31 -6 52.5
t-1 58t1 56.5t6 52q10 57 26.5 115t43.5 111q29 62 72 120t94 104l17 19l2 24q0 10 1.5 26.5t1.5 31.5q2 33 4.5 44t9.5 18q5 5 13.5 8.5l25.5 10.5q4 3 22 10t38 17q45 22 67 31.5t43 14.5q17 4 25.5 4t30.5 3h26l10 31q12 39 21.5 70t14.5 48q7 22 14.5 41t7.5 22
q2 2 14 5.5t26 6.5q56 12 134 13t158 -9q26 -2 44 -11.5t25 -26.5q3 -2 3 -4.5t-3 -9.5v-10v-15l-2 -16l12 -3q29 -5 43.5 -12t21.5 -19q0 -5 1 -8.5t1 -13.5q0 -12 -1 -24t-6 -38q-10 -36 -12 -53t0 -29l2 -10l8 -2q14 -5 20 -12t6 -17v-7l7 -3q15 -7 32 -10.5t41 -3.5h21
l5 5q0 5 2.5 7t4.5 5q5 5 7.5 6t11.5 3q29 5 59.5 5t54.5 -5q16 -4 26 -8t17 -16q19 -16 30 -50t11 -68q0 -14 -2.5 -23.5t-7.5 -31.5q-9 -29 -19 -56.5t-17 -42.5q-7 -9 -14.5 -17.5t-14.5 -13.5q-5 -2 -7 -3l-2 -2q0 -2 2 -5.5t5 -8.5q7 -12 20 -38.5t21 -43.5
q21 -55 34.5 -113t18.5 -120q2 -19 2 -56.5t-2 -54.5q-5 -65 -18.5 -121.5t-34.5 -114.5q-10 -17 -24.5 -48t-26.5 -50q-21 -39 -50 -76t-61 -69l-19 -21l-2 -24q-7 -68 -21.5 -122t-38.5 -90q-17 -24 -49.5 -59t-63.5 -61q-39 -32 -87 -50t-111 -25q-12 -2 -51.5 -3.5
t-49.5 1.5zM1152 50q36 5 72 17t67 26q24 12 38.5 23t33.5 30q15 14 39 45.5t26 36.5v2l-5 -2h-27q-11 0 -21 5q-12 7 -19 16.5t-7 21.5v4v1h2q3 0 3 -3q9 -4 16.5 -6.5t19.5 -2.5q9 0 14 1t12 4q15 4 24.5 10.5t21.5 18.5q17 16 25.5 44t10.5 85q2 29 2 74v64
q-4 77 -24.5 146.5t-52.5 124.5q-7 12 -26 40t-24 35l-19 19q-10 10 -22 17q-34 22 -70 36.5t-70 21.5q-14 2 -35.5 2t-33.5 -2q-15 -3 -33 -10t-35 -14q-45 -24 -82.5 -59t-88.5 -105l-7 -12v7q5 22 17 45t39 52q28 33 51 53.5t40 30.5q5 2 7.5 3.5t4.5 3.5h-1h-4h-9
q-8 0 -15 -2q-19 0 -32.5 3.5t-17.5 13.5l-5 4h-12q-58 -2 -93 -13t-54 -32q-24 -22 -49.5 -82t-32.5 -104q-2 -16 0.5 -21t11.5 -17q12 -12 16 -19.5t1 -16.5q-2 -3 -4 -3h-3q-7 0 -12 4t-15 11q-4 2 -9 6l-5 3q-10 3 -23 3t-23 -5q-26 -10 -46.5 -40t-27.5 -68
q-3 -10 -3 -25.5t3 -22.5q4 -20 15 -36.5t28 -24.5q10 -7 25.5 -10.5t27.5 -1.5q22 3 35 18.5t23 51.5l4 17l13 -2q19 0 31 -4t19 -11v-5v-14q-2 -5 -4.5 -16t-5.5 -20q-9 -43 -9 -65t12 -82q7 -29 9.5 -43.5t2.5 -28.5t-2.5 -26.5t-4.5 -21.5q-3 -5 -4 -8.5t-1 -6.5
q0 -2 6 -11.5t13 -21.5q10 -12 30.5 -32.5t34.5 -32.5q14 -10 36 -25.5t39 -25.5q50 -26 77.5 -34.5t76.5 -8.5q19 0 28.5 1t24.5 4zM894 86q5 2 2.5 8t-12.5 9q-2 2 -5.5 4.5t-8.5 4.5q-2 3 -8 7.5t-11 9.5q-15 12 -23.5 20.5t-20.5 27.5t-19 29t-12 12q-5 5 -11 6t-18 -1
t-20.5 0t-29.5 10q-19 4 -26.5 5.5t-7.5 -1.5l3 -3q2 -4 4 -9q20 -31 53.5 -58.5t79.5 -51.5q16 -10 28.5 -15t31.5 -12q17 -5 23 -6t8 4zM764 254q3 10 5 19.5t2 24.5q0 19 -1 33.5t-6 45.5q-5 34 -6 44.5t-1 30.5q0 16 1 26t6 29q5 14 6 25t-1 16q0 2 -3.5 4.5t-8.5 2.5
l-5 2v-9q-2 -17 -10.5 -32.5t-23.5 -25.5q-14 -12 -28.5 -17t-33.5 -5q-12 0 -21.5 1.5t-21.5 8.5q-5 2 -8.5 3.5t-3.5 -1.5l-2 -21q-1 -22 -1 -44v-27q0 -9 3 -16q4 -26 14 -43t26 -31q20 -17 41.5 -28t47.5 -16q13 -2 16.5 -3.5t8.5 -1.5q4 0 5.5 1.5zM557 464q3 0 3 2v7
q0 3 1 5l1 2v2v3v5v2q-2 0 -2 2v1q2 2 1 3l-1 2l-3 2v2h-2v2v1l-1 1l-2 1l-1 1l-1 2v1v1q-2 2 -7 15.5t-5 15.5v3q-2 0 -2 1v4v7q0 5 -3 12q-2 29 5 63.5t22 63.5q16 34 44 57t59 28l7 2v5q3 21 10 44t19 42q12 20 17 32t2 19q-2 7 -10.5 13t-34.5 21q-58 33 -96.5 56
t-57.5 37q-5 3 -16 9t-20 11q-24 14 -34 22.5t-10 22.5q-2 10 3 30.5t17 49.5q2 9 7 22.5t7 20.5q5 10 9.5 25.5t9.5 27.5q15 34 19.5 52t12.5 49q4 19 9 56.5t5 44.5t-21.5 -17t-43.5 -55q-50 -65 -82.5 -139.5t-49.5 -154.5q-5 -19 -7.5 -37t-2.5 -20q2 -3 1 -3h-1v-2v-5
v-5v-2q-2 0 -2 -3v-4q2 -5 1 -8l-1 -2v-2v-10v-8v-4q-3 0 -3 -6v-21v-21q0 -7 3 -7v-3v-9v-10v-2l1 -2q1 -1 -1 -6v-7q0 -2 2 -2v-2v-3v-6v-1l1 -2q1 -1 -1 -3v-5q0 -2 2 -2v-2v-3v-4v-1v-1v-1v-4q0 -1 3 -1v-1v-4v-4v-1l1 -1q1 -1 1 -6v-5v-2q3 0 3 -1v-2q-3 -2 -1 -3l1 -2
v-1v-3q0 -3 1 -5l1 -3v-2q0 -2 12 -44.5t15 -44.5v-2q0 -3 3 -10l4 -7v-1v-4l1 -1l1 -1v-2v-1q0 -2 1 -3l2 -2h1q1 0 1 -2v-2v-3q2 0 2 -1v-1q0 -3 3 -7l2 -5v0q0 -3 3.5 -10t6.5 -10l1 -2q1 -2 4 -5q4 -12 7 -17l2 -4l1 -2l2 -1q0 -2 1 -3l1 -2q0 -2 1 -3l2 -1q0 -3 1 -4
l1 -1q0 -3 1 -4t1 -3q3 0 3 -2v-1l1 -1l1 -1v-1v-2h1q2 0 2 -2q0 -3 1 -3h1v-1v-1l1 -1l1 -1l2 -2l1 -1v-3q0 -2 2 -2v0v-2h3v-1v-1v-2q0 -1 2 -1v-2h1h1v-1v-2q0 -2 2 -2h1l1 -1l1 -1v-3q3 0 3 -1v-1v-1q0 -2 2 -2l1 -1l1 -1v-1v-1h2q1 0 1 -3v-2h2v-3l1 -1l2 -1h1
q1 0 1 -2v-2q0 -1 2 -1v-1v-1l2 -1l1 -2q2 -2 3.5 -2t1.5 -2v-2q0 -1 2 -1l1 -1l1 -1v-1q0 -2 3 -4l1 -1l1 -1l1 -2q2 -1 2 -3q2 0 3.5 -1.5t1.5 -3.5l1 -1q1 -2 3 -4q3 0 4 -2l1 -3l3 -2q2 -3 4.5 -5t5 -4.5t2.5 -5.5l13 -13l13 -13h1q1 0 1 -2q0 -3 1.5 -3t3.5 3z
M1548 519q73 84 115 182.5t54 211.5q2 20 3.5 63t-1.5 65q-4 70 -21 135t-48 127q-5 12 -16 31.5t-16 28.5l-2 5l-12 3q-24 2 -56.5 13t-63.5 25q-10 5 -12.5 6t-2.5 -1l3 -9q2 -8 7 -20q14 -38 28.5 -82.5t31.5 -97.5q5 -15 12 -36.5t10 -36.5q12 -33 14 -47.5t2 -26.5
q0 -19 -14.5 -36t-81.5 -72l-30 -31q-13 -13 -16 -18q-4 -7 0.5 -19t16.5 -34q10 -16 17 -30.5t12 -33.5q15 -44 25.5 -91t15.5 -95q2 -17 4.5 -42t2.5 -35v-14q0 -5 3 -5l4 5zM1411 945q5 5 17 15.5t24 22.5q15 15 28 27t20 17q15 12 23.5 20t10.5 16q5 7 5 9v15
q-3 9 -6.5 28.5t-10.5 50.5q-10 41 -25.5 89t-39.5 108q-17 39 -23 48.5t-18 14.5q-12 2 -19 3.5t-31 1.5q-24 2 -35 3.5t-18 3.5q-5 2 -6 2h-2q0 -2 11 -20t47 -78q29 -46 48.5 -78.5t21.5 -39.5q2 -5 2 -6t-2 -4l-4 -3q-3 -4 -6 -9q-7 -7 -9.5 -12t-2.5 -7t1.5 -6t1.5 -11
q14 -38 8 -92.5t-25 -75.5q-5 -5 -11 -10t-11 -5q-2 0 -7 -3l-5 -4q0 -2 4 -6l8 -8q7 -3 12 -7.5t8 -9.5q2 -3 4 -4l3 -1q2 0 4.5 1t4.5 4zM745 983l10 10q7 7 12 17q7 7 14 15.5t10 10.5q9 12 34.5 26.5t73.5 38.5l41 19l2 12q3 20 16 65.5t20 60.5q10 19 21 25t27 1
q5 -2 7.5 -3.5t5 -1.5t-1 8.5t-11.5 20.5q-12 12 -14 23t2 18q3 5 11.5 11t20.5 11q29 14 60 29.5t50 23.5q10 4 18 8l9 4l-5 1q-5 1 -17 1q-79 2 -137 7t-132 15q-22 2 -34 3t-14 1q-3 -2 -4 -9t-4 -15q-2 -14 -1 -49t4 -61q0 -12 1 -25.5t1 -18.5q0 -24 -8.5 -24t-13.5 24
q-2 10 -2 21t5 44q2 22 2 45t-2 32q0 5 -1.5 10t-1.5 7q-2 7 -3 8.5t-4 1.5q-5 0 -11 -3.5t-15 -11.5q-12 -9 -18 -11.5t-6 -0.5q-3 3 -1.5 9t8.5 13q5 7 6 13t-4 11q0 2 -3.5 3.5t-10.5 3.5q-12 3 -18 6.5t-6 10.5q0 3 1 3h6h15h19q17 -3 27.5 -1.5t20.5 3.5l5 2l2 10
q0 24 7.5 81.5t14.5 113.5q5 24 7 39.5t2 18.5q0 2 -20.5 -0.5t-39.5 -7.5q-31 -7 -63.5 -19t-85.5 -41q-19 -9 -33.5 -17.5t-19.5 -11.5l-9 -4v-10q0 -22 -4 -66.5t-9 -80.5q-9 -101 -32 -190t-54 -161q-3 -10 -5 -16l-2 -6q0 -2 7 -8t19 -13q63 -49 110 -79t92 -49
q7 -5 14.5 -7.5t9.5 -2.5q3 0 5.5 1.5t4.5 3.5zM1373 1024q9 5 16.5 26.5t9.5 57.5q3 20 -0.5 38t-8.5 25l-3 2h-21q-24 -2 -53 -7t-44 -7l-4 -3v-19v-15v-6l4 -3q5 -2 8 -5q4 0 12.5 -1t11.5 -1h3h1l-8 -2q-8 -3 -13 -5h-4h-3h-3h-5q-4 2 -6.5 1t-5.5 -8q0 -3 -1 -7l-1 -3
q-2 -5 -2 -6v-1h1h1q2 0 8 -5t16 -12l43 -25q15 -9 24 -9q0 -2 2 -2h1q2 0 11.5 1t12.5 1zM1277 1024l-2 1l-1 2q-2 2 -9.5 7t-16.5 14l-24 17l-8 2q-19 0 -35.5 -2t-28.5 -10q-8 -4 -16.5 -9t-8.5 -7q0 -3 4 -3h6q5 3 14.5 4t16.5 1q10 0 24.5 -2.5t33.5 -7.5
q15 -2 29 -5.5t19 -3.5l1 1zM853 1031q7 3 20.5 4t32.5 4q27 2 31.5 3t4.5 4q0 2 -1 5.5t-1 8.5q-3 3 -4 7.5t-1 7.5q0 4 -1 5.5t-4 1.5q-2 0 -16.5 -3.5t-24.5 -6.5q-26 -9 -40.5 -21t-12.5 -20q0 -4 1.5 -5.5t6.5 1.5q2 0 4.5 1t4.5 3zM1010 1036h3h1q0 -2 28 7.5t42 14.5
q19 9 27.5 14t20.5 12q5 5 13.5 8.5t15.5 3.5h1h4v2v3v6q0 1 -5 3.5t-12 5.5l-7 2h-5q-5 0 -14 5q-5 0 -6.5 2.5t3.5 -0.5q5 0 25.5 5t22.5 10q3 0 3 3v11l-3 12l-4 5q-3 0 -10 7t-17 15l-19 14q-10 7 -12 10q-19 14 -50.5 26t-45.5 12q-5 0 -7.5 -1t-4.5 -4q0 -2 -1.5 -3.5
t-1.5 -3.5t-4.5 -14t-7.5 -17q-2 -10 -8 -25.5t-6 -22.5q-3 0 -3 -3v-5q-2 -9 -3.5 -33t1.5 -39v-8v-4q2 -7 5.5 -18t8.5 -13q5 -5 10 -6t12 -1h6q4 0 4 2zM1221 1092q5 0 7.5 2t4.5 10q5 7 5 16.5t-5 16.5q-2 7 -8 11t-18 4t-13.5 -2.5t-5.5 -17.5q0 -7 -2 -12l-1 -4v-3
l-1 -2q-1 -3 -1 -5q0 -7 1 -8.5t4 -1.5q12 -7 19 -8t14 4zM1250 1171q3 0 7.5 3.5t7.5 6.5q9 7 17.5 10.5t13.5 3.5h7v10v8q0 6 -2 13v18q0 14 -3 28q0 31 -2.5 53t-6.5 50l-5.5 22t-4.5 10t-12 -22t-26 -58q-20 -48 -34.5 -73t-28.5 -45q-2 -4 -4.5 -8t-2.5 -6l2 -2
q3 -3 5 -8l7 -7l5 3q7 0 12 -1.5t14 -6.5q13 -5 20 -5t14 3zM1368 1193q7 2 15.5 7t13.5 9.5t11 10.5t6 9q0 2 -23 40.5t-40 65.5q-14 26 -32 51t-23 28v-3q0 -2 2 -14q7 -29 13.5 -67.5t8.5 -84.5q0 -12 1 -22.5t1 -13.5v-10q0 -2 3 -2q12 -4 22.5 -5.5t20.5 1.5z
M1156 1226q20 29 36.5 60.5t43.5 93.5q5 15 8.5 24.5t3.5 11.5h-4q-3 0 -20 -7q-32 -10 -60.5 -22t-60.5 -28q-24 -12 -42 -22l-18 -10v-5q0 -2 3 -4q4 -17 15 -32.5t28 -27.5q7 -8 31 -24.5t27 -16.5l3 2q4 2 6 7zM1640 1409q10 5 18 14.5t13 19.5q7 12 13 35t16 61
q5 17 6 23t1 20v18q0 6 -2 14q-5 21 -17 37t-26 23q-17 7 -51 9.5t-53 -2.5q-5 0 -7.5 -1t-2.5 -4q0 -2 12.5 -5.5t36.5 -8.5q16 -3 26 -5l10 -3q0 -2 -2.5 -2t-12.5 -2q-7 -3 -31 -3t-41 3h-19q-12 0 -19 2h-22v-7q0 -3 -1 -17t-4 -29q-5 -43 -9.5 -72t-9.5 -48l-3 -7l8 -5
q7 -5 26 -13.5t51 -20.5q19 -7 31 -12t22 -10q7 -4 11.5 -5.5t12.5 -1.5q4 0 8 1.5t11 3.5zM1426 1476q2 0 10.5 20.5t10.5 40.5q5 19 8.5 52.5t3.5 52.5v15l-16 5q-8 2 -15 4.5t-12 2.5h-7v-5q0 -2 -1 -9.5t-1 -16.5q-3 -8 -5.5 -28t-4.5 -40q-7 -38 -11 -63.5t-4 -27.5
q0 -3 2.5 -4t10.5 -1h19q9 0 12 2zM1168 1476q22 0 52 4t33 6l2 16q2 15 2 27q3 17 3 31.5t2 55.5q3 34 4 47t3 44q3 20 4 46.5t1 64.5q3 58 5 89t7 58q0 9 1 14l2 5q-3 3 -13.5 5t-20.5 5q-29 7 -56.5 9.5t-61.5 2.5q-38 0 -70.5 -3.5t-66.5 -11.5q-17 -2 -37.5 -7
t-20.5 -7l-2 -7q-3 -8 -7 -20q-24 -79 -42.5 -159.5t-30.5 -174.5q-7 -36 -10 -75l-4 -38q2 0 38.5 -6t60.5 -11q31 -2 64.5 -6t62.5 -4q17 -2 49.5 -2t46.5 2zM1342 1484q4 19 8 51.5t8 92.5q3 19 4 37t1 23q3 5 3 7.5t-3 2.5q0 2 -21.5 5.5t-38.5 6.5q-7 2 -11 2h-3v-9
q0 -8 -3 -17q-2 -44 -3.5 -75t-3.5 -70v-39v-16h5q2 0 5 -2q7 -3 19 -3h22h9q3 0 3 3zM1339 1741l1 1q2 2 2 6q0 5 2 17t5 27q7 33 9 50l5 34v19l-14 5q-7 0 -13 2.5t-9 2.5q-5 2 -17 2h-12v-12q0 -12 -2 -29q0 -17 -1.5 -41t-1.5 -41l-2 -36h5q2 0 7 -1t10 -3q5 0 9.5 -1.5
t7.5 -1.5h2h2h2h3zM1017 245q-7 0 -18 4.5t-23 11.5q-7 8 -20.5 20t-18.5 21q-9 15 -14 29.5t-2 21.5q0 5 3.5 9.5t5.5 4.5l3 -3q2 -4 4 -9q8 -17 20 -31t24 -24q5 -5 14.5 -8.5t18.5 -5.5q5 -3 11 -3h16q7 0 14 1l7 2h4q1 0 1 -5q3 -5 3 -10t-5 -10q-7 -9 -20.5 -14
t-27.5 -2zM1431 382q0 14 3.5 28.5t12.5 36.5q3 5 4 11l1 6q0 4 -8 6l-25 3q-17 0 -20.5 1.5t-11.5 3.5q-5 0 -6 1t-1 4q0 9 6 16.5t16 9.5q14 5 37 -2t35 -19q10 -8 10 -11.5t-8 -12.5q-4 -10 -15 -30.5t-21 -46.5q-5 -5 -6 -10l-1 -5q-2 0 -2 4v6zM1103 379q-2 15 6.5 39
t22.5 50q3 8 5 11.5t2 5.5q0 5 -12 8.5t-24 1.5q-4 0 -11.5 -1.5t-14.5 -1.5q-19 -4 -23 -4t-6 4q-2 5 -2 9v8q4 10 20 16t40 6q21 0 32 -3.5t21 -13.5q5 -5 7 -7.5t2 -6.5q3 -5 3 -11t-3 -11l-7 -7t-9 -12q-13 -12 -19 -20.5t-15 -32.5q-3 -7 -6.5 -14.5t-3.5 -9.5l-5 -7v4
zM1269 403q-2 0 -2 3v9q0 27 14.5 59.5t40.5 68.5q8 7 26 30t27 32q10 13 13.5 22.5t1.5 18.5q-3 8 -5.5 14t-4.5 6l-10 3q-9 4 -19 11q-26 12 -38 17t-22 7q-14 3 -24 4t-19 1q-17 0 -23 -6t-11 -25q-2 -8 -4 -12l-1 -5h-2l-4 7q-3 7 -3 14q-3 13 0.5 25t11.5 21l4 5h20
q38 2 76.5 -10t82.5 -41l19 -12l2 -9q3 -3 4 -9t1 -8q2 -5 3.5 -9.5t1.5 -7.5q2 -9 -0.5 -14t-18.5 -22q-41 -41 -79.5 -94t-43.5 -77q-3 -5 -4 -8.5t-3 -5.5q-3 -3 -4 -3h-4zM637 543q-10 2 -16 10.5t-11 18.5q-2 7 -1 7t4 -2q7 -5 9.5 -7.5t9.5 -2.5q2 0 5 1l2 1l-1 4
q-1 4 -1 8q-3 5 -4 11t-1 16q0 17 1 26.5t6 19.5q5 12 6 9.5t1 -26.5q3 -19 3 -26.5t2 -12.5q2 -9 8.5 -14t15.5 -3q5 3 8.5 9l10.5 18q3 7 6.5 13t5.5 9l5 4v-9q3 -27 -10.5 -51t-37.5 -31q-7 -2 -13 -2t-13 2zM1423 721q-36 19 -54 26.5t-39 9.5q-5 2 -9 4l-3 1v17v21
q0 5 1 5h6q5 0 17 -2.5t21 -6.5q22 -8 43.5 -29.5t36.5 -50.5q2 -2 3 -5l1 -2l-7 4q-7 3 -17 8zM1106 745q7 12 22.5 25.5t37.5 20.5q24 9 57.5 14t62.5 5h12v-19v-13q0 -6 -2 -9v-7h-43q-56 0 -88.5 -5t-58.5 -17h-3zM1079 784q-4 2 -5.5 4.5t3.5 7.5q0 2 3.5 4.5t6.5 7.5
q2 2 7 8t9 13q5 7 11 14.5t11 12.5q17 19 38.5 26t57.5 7q32 0 57 -4.5t35 -11.5q2 -3 7 -10t5 -10h-13h-33q-58 0 -86.5 -3.5t-53.5 -15.5q-16 -7 -27 -18t-18 -25q-3 -5 -4 -6t-3 -1h-3h-5zM1243 1217q-5 2 -6 9t4 12q7 7 15.5 3.5t8.5 -15.5v-3q0 -2 -3 -6q-5 -3 -9.5 -4
t-9.5 4zM1262 1284q-5 2 -7 6t-2 8v5q0 3 2 5q5 2 6 3.5t6 1.5q2 0 4.5 -1.5t5 -3.5t3.5 -3.5t1 -6t-1 -6t-3 -3.5q-3 -5 -7.5 -6t-7.5 1zM1580 1467q-22 2 -41 11.5t-29 22.5l-7 7h7q10 0 23 -5t35 -19q14 -8 22.5 -12.5t15.5 -7.5q5 -2 -4.5 -1t-21.5 4zM1553 1520
q-5 0 -12 3.5t-12 5.5l-2 3l2 2h26q25 0 49 -2q9 -3 17 -3h9q3 -2 -5.5 -4.5t-18.5 -2.5q-9 -2 -27 -3.5t-26 1.5zM1544 1573q-8 2 -12.5 4.5t-7.5 2.5q0 2 16 3.5t57 1.5h38q7 0 5 -3q-5 -2 -18 -4.5t-25 -5t-30.5 -2.5t-22.5 3z" />
</svg>
