<?xml version="1.0" standalone="no"?>
<!DOCTYPE svg PUBLIC "-//W3C//DTD SVG 1.1//EN" "http://www.w3.org/Graphics/SVG/1.1/DTD/svg11.dtd" >
<svg xmlns="http://www.w3.org/2000/svg" xmlns:xlink="http://www.w3.org/1999/xlink" version="1.1" width="2048" height="2048" viewBox="-10 0 2068 2048">
   <path fill="currentColor"
d="M1024 1q-210 0 -396.5 80t-326 219t-220.5 325.5t-81 397.5q0 213 81 398t220.5 324t326 220.5t396.5 81.5t396.5 -81.5t326 -220.5t220.5 -324t81 -398q0 -211 -81 -397.5t-220.5 -325.5t-326 -219t-396.5 -80zM1024 98q191 0 360 72.5t294 198t197.5 294.5t72.5 360
q0 31 -1 59.5t-7 59.5q-17 74 -50 125t-75 86q-60 54 -139.5 73.5t-156.5 19.5q-20 0 -41.5 -1t-41.5 -4q80 -80 127 -188t47 -230.5t-45.5 -229t-125 -186t-186.5 -125t-229 -45.5q-63 0 -122.5 12.5t-113.5 35.5q-9 -6 -14.5 -10t-14.5 -7q-31 -17 -90.5 -37t-142.5 -20
q-57 0 -122.5 15.5t-130.5 58.5q125 -176 321.5 -281.5t429.5 -105.5zM862 1358q11 -48 38 -119t56 -134q8 -17 15.5 -34t12.5 -31q46 153 80 251.5t82 160.5q6 9 14.5 17.5t17.5 16.5q-37 12 -75.5 19t-78.5 7q-46 0 -87 -7t-81 -24q0 -9 -1.5 -19t-1.5 -18q0 -26 3 -47.5
t6 -38.5zM737 1418q-91 -65 -146.5 -169t-55.5 -226q0 -123 57 -228t150 -171q20 12 38.5 26t35.5 28q29 32 61.5 93t55.5 118q6 17 11.5 32.5t11.5 27.5q-86 173 -141.5 274t-77.5 195zM1104 1125q-20 -48 -30 -81l-10 -33v0q-34 -133 -77 -250t-117 -202
q37 -11 75.5 -18.5t78.5 -7.5q202 0 345.5 144t143.5 346q0 122 -55.5 224.5t-146.5 170.5q-11 -6 -21 -8.5t-13 -5.5q-14 -6 -34 -26t-40 -48q-28 -46 -53.5 -101.5t-45.5 -103.5zM1024 1947q-191 0 -360 -72.5t-294 -197.5t-197.5 -294.5t-72.5 -359.5q0 -26 1 -50t4 -50
q57 -193 179.5 -273t250.5 -80q25 0 51 3t51 9q-91 79 -145 194.5t-54 246.5q0 122 45.5 228.5t125 186.5t186.5 126.5t229 46.5q71 0 136.5 -17t125.5 -45q34 11 75 19.5t90 14.5q17 3 37 4.5t39 1.5q57 0 121 -8.5t133 -26.5q-126 180 -325 286.5t-432 106.5z" />
</svg>
