<?xml version="1.0" standalone="no"?>
<!DOCTYPE svg PUBLIC "-//W3C//DTD SVG 1.1//EN" "http://www.w3.org/Graphics/SVG/1.1/DTD/svg11.dtd" >
<svg xmlns="http://www.w3.org/2000/svg" xmlns:xlink="http://www.w3.org/1999/xlink" version="1.1" width="2048" height="2048" viewBox="-10 0 2068 2048">
   <path fill="currentColor"
d="M1024 0q-213 0 -399.5 81t-324.5 219t-219 326t-81 398q0 213 81 399.5t219 326t324.5 219t399.5 79.5t399.5 -79.5t324.5 -219t219 -326t81 -399.5q0 -210 -81 -398t-219 -326t-324.5 -219t-399.5 -81zM850 1766q-8 17 -38 10t-64 -18q-37 -14 -138 -64t-172 -130
q-71 -82 -106.5 -184.5t-32.5 -204.5q3 -105 30 -162t75 -123q48 -68 150.5 -147.5t142.5 -105.5q43 -25 91 -65t77 -74q25 -34 39.5 -67t11.5 -81q0 -48 1.5 -86.5t1.5 -55.5q-3 -15 0 -37.5t17 -16.5q14 5 17 21t3 33t-3 79.5t-9 133.5q-5 68 -49.5 126.5t-86.5 98.5
q-40 42 -134 144.5t-139 168.5q-46 62 -67 140.5t-16 149.5q6 71 28.5 142t91.5 145q65 74 113.5 114t82.5 57t62.5 31t19.5 28zM927 1869q-11 14 -25.5 21t-16.5 2q-3 -6 9.5 -12t24.5 -20q11 -11 12.5 -28t10.5 -17q5 -3 2.5 18.5t-17.5 35.5zM967 1715q-23 29 -94 -42.5
t-119 -127.5q-49 -57 -88.5 -159.5t-42.5 -193.5q0 -88 40 -168t77 -131q34 -51 90.5 -125t76.5 -114t38.5 -84t24.5 -101q6 -54 3 -196l-3 -142l1 -57q2 -57 16 -46q14 9 18.5 56t4.5 98v216q0 165 -14 222q-18 60 -52 122.5t-71 119.5q-40 57 -78 159.5t-36 178.5
q3 74 37.5 176.5t68.5 153.5q31 52 72 110t30 75zM1029.5 1911q-5.5 0 -5.5 -17v-42v-40q0 -17 6 -17q5 0 5 17v40v42q0 17 -5.5 17zM1169 1892q-3 2 -18.5 -3.5t-26.5 -19.5q-12 -14 -15 -35.5t3 -21.5q9 0 10.5 18.5t12.5 29.5q11 14 24 20t10 12zM1601 1567
q-59 71 -134.5 118t-160.5 81q-29 12 -50.5 19t-46.5 -16q-37 -37 -77 -48t-88 -23q-14 -6 -24 -27t-13 -33q-17 -37 -30 -74t-21 -74q-46 -184 -21.5 -367.5t69.5 -363.5q20 -76 33 -153t13 -157q0 -42 -4.5 -83.5t-10.5 -81.5q-2 -19 -3.5 -45t18.5 8q8 12 21 5t13 7
q3 11 3 24v24q0 31 1 62.5t7 60.5q11 73 82.5 121.5t128.5 82.5q125 80 265.5 191t166.5 276q20 131 -14 247.5t-123 218.5z" />
</svg>
