<?xml version="1.0" standalone="no"?>
<!DOCTYPE svg PUBLIC "-//W3C//DTD SVG 1.1//EN" "http://www.w3.org/Graphics/SVG/1.1/DTD/svg11.dtd" >
<svg xmlns="http://www.w3.org/2000/svg" xmlns:xlink="http://www.w3.org/1999/xlink" version="1.1" width="2048" height="2048" viewBox="-10 0 2068 2048">
   <path fill="currentColor"
d="M982 1043q-10 17 -18 34.5t-14 40.5q-33 68 -62 145.5t-42 131.5q-6 20 -7.5 44t-1.5 50v21v21q45 16 92 26t95 10q45 0 87 -8t84 -21q-9 -10 -19 -18t-16 -21q-55 -68 -92.5 -176t-85.5 -280zM1024 0q-13 0 -27.5 1.5t-30.5 1.5h-2h-5h-11h-11q-3 0 -5 1.5t-5 1.5h-11
h-8q-4 0 -7 2t-6 2h-12q-4 0 -8 3h-6h-7q-3 0 -7.5 1.5t-11.5 1.5q-3 0 -6.5 1.5t-6.5 1.5t-8 2t-11 2l-3 1q-4 2 -7 2q-6 0 -11 1.5t-8 1.5t-6.5 1.5t-6.5 1.5q-3 4 -8 4t-12 3h-3q-3 0 -6 3q-7 0 -10 1.5t-10 1.5q-3 3 -4.5 3t-4.5 4q-7 0 -11.5 1.5t-8.5 1.5q-3 3 -4.5 3
t-4.5 3q-7 0 -12 2t-8 5q-3 0 -4.5 1.5t-4.5 1.5q-7 0 -12 3.5t-8 3.5q-3 3 -5 3h-1q-7 3 -11.5 4.5t-11.5 4.5l-2 2l-1 2q-32 13 -64.5 30.5t-61.5 37.5h-2q-1 0 -1 3q-7 3 -12 6t-8 7h-5q-1 0 -1 3q-7 3 -10 6.5t-10 6.5l-1 1q-2 2 -5 2q-3 3 -8 6.5t-8 6.5l-5 5l-2 1
q-6 4 -9.5 7t-9.5 6q0 4 -1.5 4t-5 3t-8 6.5t-8.5 6.5q0 3 -1.5 4.5t-4.5 1.5q-3 3 -8 6.5t-8 6.5q0 3 -2 5t-5 2l-8 8l-8 8l-2 1l-4 5q-4 3 -7 6.5t-6 9.5q-4 0 -5.5 2t-1.5 5q-3 3 -8 6t-8 7q0 3 -1.5 4.5t-4.5 1.5q-4 7 -7 10t-6 10l-2 1q-1 2 -5 2q-3 6 -6 9.5t-7 9.5
l-1 2l-2 1q-6 7 -9.5 12t-9.5 11v2v1q-3 3 -6.5 8t-6.5 12q71 -46 143.5 -65t137.5 -19q87 0 155 22.5t100 41.5q10 3 18 8t14 12q62 -26 126.5 -40.5t135.5 -14.5q136 0 253.5 50t206.5 139t139 206.5t50 253.5t-51.5 255.5t-142.5 206.5q23 3 47.5 4.5t46.5 1.5
q84 0 171.5 -22.5t158.5 -80.5q42 -36 79 -94t56 -139q4 -32 7 -66t3 -66q0 -210 -81 -397.5t-219.5 -326t-324.5 -219.5t-399 -81zM1496 1644q-55 -6 -100.5 -14t-84.5 -21q-64 32 -136.5 48t-150.5 16q-136 0 -253.5 -50t-206.5 -139t-139 -206.5t-50 -253.5
q0 -145 59.5 -273t159.5 -215q-25 -6 -54.5 -9.5t-58.5 -3.5q-142 0 -277.5 89t-197.5 302v8q0 5 -3 12v4v2v8v8v7v6q0 3 -1.5 9.5t-1.5 9.5v5v2v16v13q0 213 81 399t219.5 324.5t324.5 219.5t399 81v0h18h14h7h6q3 0 9.5 -1.5t10.5 -1.5h6h7h11h8q3 -3 8 -3h8h8q5 0 8 -4h8
h8q4 0 8.5 -1.5t8 -1.5t8 -1.5t8.5 -1.5h8q5 0 8 -3h6q4 0 10 -4h6q4 0 7 -3h10q3 0 6 -3q3 0 8 -1.5t8 -1.5t8 -2t8 -2q4 -3 7 -3h6q7 -3 10 -4.5t6 -1.5q4 0 7 -1.5t10 -1.5q3 -4 6 -5.5t6.5 -1.5t8 -1.5t8.5 -1.5q3 -3 6 -5t10 -2q3 -3 6 -3t7 -3q3 0 6 -1.5t10 -5.5
q3 0 6.5 -1.5t6.5 -1.5q3 -3 6 -4.5t7 -4.5q3 0 6 -2t7 -2q6 -3 9.5 -4.5t6.5 -4.5q3 0 6 -2t7 -2q3 -3 6 -4.5t10 -4.5q3 0 5 -2l5 -5q3 -3 7.5 -4.5t8.5 -4.5q3 0 6 -2t7 -2l6 -6q3 -3 7 -3q3 -4 6 -5.5t6 -1.5l7 -6q3 -4 6 -4q4 -3 7 -4l3 -2q7 -3 10 -6l6 -7q3 0 5 -2
l5 -4q3 -4 8 -5.5t8 -4.5l5 -5t5 -2l6 -6q3 -3 10 -6l2 -2l4 -5q4 -3 8.5 -6.5t8.5 -6.5q3 0 3 -1.5t3 -1.5q3 -7 8 -10t8 -6q3 0 3 -1.5t4 -1.5q3 -7 8 -10t8 -7l3 -3q3 -3 9.5 -8t9.5 -11l5 -5l2 -2q3 -3 6.5 -6t6.5 -6.5t5 -4.5l4 -5q4 -3 5.5 -6.5t4.5 -6.5q3 0 5 -3.5
t5 -6.5l5 -5l4.5 -4.5t5 -6.5t4.5 -6l3 -4q4 -3 4 -6l6 -7q3 -3 3 -6q4 0 4 -1.5t3 -1.5q6 -10 12.5 -19.5t13.5 -19.5v0q-75 19 -146 29t-132 10q-23 0 -45.5 -2t-41.5 -5zM1302 1447q6 3 16 6.5t26 6.5q100 -74 159.5 -187t63.5 -249q-4 -223 -162 -381t-381 -158
q-45 0 -87 6t-84 19q84 94 130.5 223t85.5 278v0l12 36q11 35 30 90q23 55 50.5 116.5t59.5 109.5q23 32 44 55t37 29zM714 581q-107 75 -168 191t-65 252q4 136 63.5 250.5t162.5 188.5q23 -103 86 -216t153 -304q-3 -16 -9.5 -32t-12.5 -32q-26 -68 -61.5 -134.5
t-67.5 -101.5l-39 -32q-19 -17 -42 -30z" />
</svg>
