<?xml version="1.0" standalone="no"?>
<!DOCTYPE svg PUBLIC "-//W3C//DTD SVG 1.1//EN" "http://www.w3.org/Graphics/SVG/1.1/DTD/svg11.dtd" >
<svg xmlns="http://www.w3.org/2000/svg" xmlns:xlink="http://www.w3.org/1999/xlink" version="1.1" width="2048" height="2048" viewBox="-10 0 2060 2048">
   <path fill="currentColor"
d="M918 15q-83 26 -145 98t-85 174q-8 34 -21 47t-55 17q-98 15 -171.5 90.5t-88.5 181.5q-8 38 -21 51t-51 21q-72 11 -128.5 47t-94.5 92q-30 46 -39.5 80t-9.5 109q0 72 9.5 106t39.5 79q38 61 94.5 97t128.5 47q38 7 51 18.5t21 53.5q15 102 88.5 177.5t171.5 90.5
q42 7 55 18.5t21 49.5q34 155 162.5 236t271.5 36q95 -34 164.5 -119t69.5 -165q0 -30 13.5 -37.5t54.5 -14.5q95 -15 176 -96.5t96 -183.5q8 -41 19.5 -52.5t44.5 -11.5q68 0 142 -55t115 -134q23 -41 23 -139.5t-23 -139.5q-41 -80 -115 -136.5t-142 -56.5
q-33 0 -44.5 -9.5t-19.5 -54.5q-15 -102 -96 -183.5t-176 -92.5q-41 -8 -54.5 -17t-13.5 -36q0 -143 -143.5 -235.5t-294.5 -47.5zM1163.5 166q45.5 38 70 104t9.5 115q-23 94 -113.5 145t-181.5 21q-132 -45 -145 -192.5t104 -215.5q53 -30 132 -22.5t124.5 45.5zM812 495
q42 30 66.5 83t24.5 117q0 45 -11.5 71.5t-56.5 67.5q-45 46 -69.5 57t-81.5 11q-72 0 -123 -30t-81 -94q-79 -151 53 -264.5t279 -18.5zM1451 472q64 26 98 77t34 119q0 110 -58.5 172t-160.5 62t-158.5 -60t-56.5 -162q0 -76 32 -127t96 -81q53 -19 87 -19t87 19zM499 872
q38 42 47.5 68.5t9.5 82.5q0 57 -9.5 83.5t-47.5 64.5q-102 113 -241.5 60t-139.5 -208q0 -105 69.5 -167.5t179.5 -51.5q45 4 71.5 17t60.5 51zM1149 838q30 19 50.5 47.5t36.5 62.5q15 49 15 73.5t-15 73.5q-65 178 -250 147.5t-185 -219.5q0 -68 24.5 -113t85.5 -79
q56 -34 120.5 -32.5t117.5 39.5zM1810 823q117 61 117 198.5t-117 202.5q-95 45 -187.5 7t-126.5 -136q-19 -49 -19 -73.5t19 -73.5q34 -98 126.5 -136t187.5 11zM835 1212q45 42 56.5 68.5t11.5 71.5q0 136 -96 202t-221 9q-166 -71 -126.5 -245t224.5 -174q57 0 81.5 11.5
t69.5 56.5zM1477 1171q49 26 77.5 79t28.5 128q0 151 -145.5 200.5t-243.5 -71.5q-42 -49 -47.5 -132.5t28.5 -135.5q45 -68 136 -89t166 21zM1149 1522q90 68 97.5 168t-71.5 179q-38 34 -62.5 45.5t-80.5 11.5q-76 0 -119.5 -22.5t-81.5 -75.5q-98 -147 36 -279.5
t282 -26.5z" />
</svg>
