<?xml version="1.0" standalone="no"?>
<!DOCTYPE svg PUBLIC "-//W3C//DTD SVG 1.1//EN" "http://www.w3.org/Graphics/SVG/1.1/DTD/svg11.dtd" >
<svg xmlns="http://www.w3.org/2000/svg" xmlns:xlink="http://www.w3.org/1999/xlink" version="1.1" width="2048" height="2048" viewBox="-10 0 2068 2048">
   <path fill="currentColor"
d="M1978 556l-41 79l-3 -10q-6 -9 -18.5 -26.5t-19.5 -29.5q-22 -26 -50.5 -45t-56.5 -25q-13 -3 -32 -3t-28 3q-22 6 -41 19t-38 28q-22 23 -41 53t-32 68q-19 44 -27 88t-11 98q-3 57 5 114t27 104q3 13 9 25l7 13v-3t-4 -6q-3 -26 -4.5 -65.5t1.5 -74.5q0 -34 8 -67.5
t21 -74.5q12 -41 29.5 -71t42.5 -55q26 -29 51 -41.5t57 -12.5q22 -3 41 3.5t41 21.5q22 16 44 40t38 55q3 3 5 7l2 3q3 0 41 -74.5t41 -77.5q0 -3 -11 -68t-11 -71l-13 24q-13 23 -29 55zM0 486l47 160q48 160 114 384l158 537h16l101 -335q41 -136 70 -235l28 -100l30 100
q30 99 71 235l101 335h13l139 -464q101 -342 120 -405t25 -69l7 -13h224l-3 9q0 4 -28.5 51t-66.5 111l-88 155v66h34h45q16 0 28 3q54 13 87 46t46 90q6 28 6 64.5t-3 68.5q-9 50 -33 89.5t-52 55.5q-13 6 -22.5 8t-25.5 2h-19q-6 0 -12 -4q-22 -6 -36.5 -14t-30.5 -24
q-15 -19 -28 -36t-22 -39q-3 -7 -5 -10t-5 -3l-46 19q-45 19 -55 22l-6 3l6 13q22 63 60 110.5t89 72.5q22 10 45.5 16t49.5 9q50 4 91 -9t79 -41q10 -6 24 -20.5t24 -23.5q31 -41 50 -87t29 -103q0 -22 1.5 -55t-1.5 -56q-7 -82 -43 -146.5t-93 -102.5q-13 -7 -29 -14.5
t-28 -14.5q-6 -3 -11 -4l-5 -2l28 -51q29 -50 70 -120l98 -170v-67h-525l-98 329q-41 136 -69 234l-29 98l-26 -92q-27 -92 -65 -218q-38 -130 -66.5 -226t-28.5 -103l-6 -22h-73h-59q-11 0 -11 3l10 32q9 32 22 76l32 104l-64 225q-28 88 -47 154l-19 67l-28 -98
q-29 -98 -70 -234l-98 -329h-139v3zM1489 1245q0 3 11 33t14 40q6 15 17 37.5t21 37.5q16 26 33 51t36 44q32 32 65 49.5t71 23.5q10 3 35 3t35 -3q25 -3 48.5 -12.5t46.5 -25.5q34 -25 66 -61.5t54 -77.5l6 -16l-9 -50q-4 -23 -7 -38l-3 -16l-5 5q-4 4 -8 14
q-9 19 -21.5 36.5t-19.5 26.5l-12 13l-16 15q-22 26 -42.5 40t-39.5 24q-35 16 -60.5 20.5t-53.5 4.5q-22 -3 -36.5 -6t-33.5 -10q-25 -9 -47 -25t-51 -41q-22 -22 -37.5 -44.5t-41.5 -66.5q-9 -19 -12 -22z" />
</svg>
