<?xml version="1.0" standalone="no"?>
<!DOCTYPE svg PUBLIC "-//W3C//DTD SVG 1.1//EN" "http://www.w3.org/Graphics/SVG/1.1/DTD/svg11.dtd" >
<svg xmlns="http://www.w3.org/2000/svg" xmlns:xlink="http://www.w3.org/1999/xlink" version="1.1" width="2048" height="2048" viewBox="-10 0 2068 2048">
   <path fill="currentColor"
d="M913 202l7 11q7 12 16 30q9 14 15 27.5t3 13.5l-22 9q-22 8 -52 17q-29 12 -49.5 19.5t-20.5 9.5l29 3q29 3 71 6q49 6 74 9t28 6l11 16q10 16 22 37l29 50l6 -12q3 -6 8.5 -20.5t11.5 -29.5l15 -35l79 -9q32 -3 57 -6t28 -3h6q3 0 3 -3l-19 -7q-19 -7 -48 -19
q-27 -9 -46 -16l-19 -8l4 -13q5 -13 14 -31q6 -14 10 -27l4 -14l-19 6q-19 6 -48 15l-65 20l-70 -26q-50 -21 -61.5 -25t-11.5 -1zM1347 436q-62 27 -107 44l-46 18l41 18q41 17 97 38l141 55l15 -5q117 -44 206 -81l90 -37q-3 0 -141 -54t-141 -54l-45 17q-46 18 -110 41z
M546 404q-62 6 -109 23.5t-67 38.5q-15 14 -18 29t6 29q15 24 56 43t102 28q30 6 93 4.5t89 -4.5q68 -12 107.5 -32.5t51.5 -46.5q3 -12 3 -15t-3 -15q-9 -23 -50 -43.5t-103 -32.5q-29 -6 -79 -7.5t-79 1.5zM2039 501q-3 6 -11.5 13t-20.5 13q-32 21 -107 56t-330 144
q-179 76 -249.5 108.5t-132.5 61.5q-70 32 -105.5 44t-70.5 12q-32 0 -58.5 -9t-85.5 -32q-23 -12 -105 -46t-173 -75q-405 -167 -481.5 -200.5t-96.5 -57.5l-12 -15v215l12 11q11 9 36 25t37 19q6 0 25 9t43 18q23 12 124 54.5t219 89.5q194 82 267 112.5t141 60.5
q35 14 60 20t57 6q24 -3 37 -4.5t33 -10.5q15 -3 35.5 -11.5t35.5 -17.5q50 -26 141 -66t334 -145q229 -97 292 -126.5t87 -46.5q26 -18 29 -32.5t3 -102.5v-74v-29l-3 3zM968 639q-94 14 -163 24.5t-69 13.5q-2 0 157.5 66t168.5 69q3 3 73.5 -100t70.5 -106q0 -2 -29.5 2
t-208.5 31zM2042 850q-3 3 -11.5 10.5t-17.5 12.5q-30 21 -112 59t-364 159q-158 70 -227 99.5t-116 52.5q-79 38 -111.5 48.5t-73.5 10.5q-32 0 -57 -7.5t-69 -24.5q-41 -21 -108.5 -50.5t-252.5 -105.5q-322 -132 -403 -168.5t-104 -60.5l-15 -12v209l15 14
q20 21 80.5 47.5t403.5 170.5q126 49 230 93t125 53q50 24 72 31t42 13q47 9 89.5 -1t119.5 -46q49 -23 122.5 -55.5t220.5 -96.5q276 -121 371 -163.5t116 -56.5q9 -3 17.5 -10.5t11.5 -13.5l12 -11v-106v-73v-30l-1 2q-2 1 -5 7zM2039 1190q-20 24 -95 60.5t-363 159.5
q-184 80 -265 115t-142 64q-65 33 -96 41.5t-69 8.5q-23 0 -49.5 -5.5t-55.5 -17.5q-68 -30 -141 -62t-267 -111q-223 -94 -311 -131t-112 -48q-23 -12 -42 -26.5t-25 -20.5l-6 -12v106q0 91 3 105.5t26 29.5q27 17 103 51t343 145q188 77 268.5 112t113.5 50
q67 29 96.5 36.5t67.5 7.5q35 -3 66 -13.5t90 -36.5q64 -33 139 -65t277 -120q282 -120 354 -155.5t92 -58.5l9 -12v-103v-75v-30l-3 3q-3 2 -6 8z" />
</svg>
