<?xml version="1.0" standalone="no"?>
<!DOCTYPE svg PUBLIC "-//W3C//DTD SVG 1.1//EN" "http://www.w3.org/Graphics/SVG/1.1/DTD/svg11.dtd" >
<svg xmlns="http://www.w3.org/2000/svg" xmlns:xlink="http://www.w3.org/1999/xlink" version="1.1" width="2048" height="2048" viewBox="-10 0 2058 2048">
   <path fill="currentColor"
d="M2003 1241q-17 -20 -42.5 -18.5t-45.5 7.5q-54 8 -108.5 14t-105.5 -17q91 -143 159.5 -296.5t108.5 -318.5q14 -63 24 -125.5t7 -127.5q0 -37 -8.5 -73t-28.5 -67q-54 -71 -131 -121t-162 -72q-108 -32 -222 -25t-219 39q-9 3 -17.5 0t-16.5 -3q-97 -20 -198 -8.5
t-187 65.5q-99 -34 -206 -52.5t-215 -7.5q-80 6 -154 44.5t-119 106.5q-57 82 -71.5 184.5t-2.5 202.5q17 134 48 263.5t74 254.5q26 80 58.5 157t78.5 145q25 34 58 64t76 35q39 3 73.5 -17t56.5 -48q40 -48 83 -96.5t85 -94.5q29 15 60.5 23.5t62.5 8.5q-17 22 -34 43.5
t-43 30.5q-37 14 -78.5 19.5t-72.5 28.5q-20 14 -20 38.5t17 41.5q29 28 71.5 38t82.5 13q57 3 112.5 -14t98.5 -57q0 91 2.5 182t11.5 182q6 54 28.5 104t62.5 87q40 31 89.5 39.5t98.5 0.5q48 -9 93.5 -24.5t82.5 -49.5q40 -34 60 -82.5t26 -99.5q14 -92 25.5 -181.5
t22.5 -180.5q100 17 206.5 -5.5t180.5 -96.5q17 -15 27 -39t-4 -44zM1701 100q63 22 115.5 60.5t92.5 89.5q20 26 25.5 56t5.5 61q0 71 -11 141t-31 138q-34 125 -87 246t-118 235q-9 12 -16 21.5t-13 21.5q-3 -3 -3 -9v-8q6 -23 17.5 -44.5t14.5 -43.5q17 -66 10 -131.5
t-13 -130.5q-9 -63 5.5 -124t11.5 -121q3 -31 -5.5 -59.5t-23.5 -57.5q-39 -94 -106 -173.5t-153 -139.5q-19 -14 -42 -25.5t-43 -25.5q91 -20 186.5 -16t180.5 39zM1627 803q6 71 16 148t-24 145q-49 -91 -98.5 -182t-72.5 -194q-6 -31 -3 -68t31 -60q37 -26 82.5 -26
t88.5 3q-3 57 -14 115.5t-6 118.5zM526 1380q-17 20 -40 37.5t-49 11.5q-34 -9 -56.5 -36t-39.5 -52q-52 -80 -84.5 -168.5t-61.5 -176.5q-28 -108 -53.5 -214.5t-40.5 -215.5q-8 -85 0.5 -170.5t51.5 -159.5q34 -54 88 -89.5t117 -46.5q99 -20 200 -4.5t198 43.5
q-43 46 -75.5 100t-49.5 114q-26 82 -37 166t-6 167q3 60 1.5 119.5t-9.5 116.5q-12 77 16.5 151t85.5 128q-37 43 -78 87t-78 92zM642 1013q-8 -42 -1 -86.5t7 -86.5q3 -49 1.5 -98.5t-1.5 -98.5q46 -31 98.5 -51t109.5 -17q28 3 51 21.5t31 46.5q26 100 27.5 208
t-47.5 202q-17 37 -31 75.5t-25 78.5q-83 0 -144 -58.5t-76 -135.5zM978 1375q-51 68 -139.5 82.5t-162.5 -25.5q37 -17 77 -21.5t74 -27.5q35 -17 54.5 -49.5t51.5 -52.5q34 -6 52.5 31t-7.5 63zM1556 1267q-17 31 -17 66.5t-6 69.5q-11 97 -22.5 194t-25.5 193
q-9 46 -30 90t-64 67q-46 23 -95.5 34t-100.5 6q-46 -9 -77.5 -47.5t-42.5 -80.5q-11 -37 -14 -74l-6 -74q-3 -91 -4.5 -181t1.5 -181q3 -34 -14 -66.5t-48 -50.5q-15 -8 -32 -11t-34 -3q12 -68 43 -128t45 -125q17 -83 11.5 -165.5t-25.5 -164.5q-8 -40 -36.5 -71.5
t-68.5 -42.5q-63 -14 -125.5 3t-119.5 42q9 -91 36 -180.5t81 -163.5q42 -54 102 -89.5t128 -44.5q114 -14 225 16t202 101q71 57 128 133.5t89 168.5q-52 -3 -107.5 1t-97.5 41q-37 32 -45.5 81.5t-0.5 95.5q20 111 74 207.5t103 196.5q14 23 29.5 43t32.5 42
q-20 9 -40 20.5t-31 31.5zM1735 1369q-34 6 -69.5 6t-66.5 -12q0 -20 1.5 -39.5t15.5 -34.5q14 -8 29.5 -14t27.5 3q60 31 125 25.5t128 -14.5q-37 37 -87 55.5t-104 24.5zM1496 609q-14 11 -5.5 24t20.5 16q25 17 52 0t30 -46q-23 -11 -50 -9.5t-47 15.5zM893 672
q11 -6 18 -20t-4 -26q-17 -14 -41 -17t-47 3q-6 3 -11.5 8.5t-5.5 14.5q5 28 36.5 41t54.5 -4z" />
</svg>
