<?xml version="1.0" standalone="no"?>
<!DOCTYPE svg PUBLIC "-//W3C//DTD SVG 1.1//EN" "http://www.w3.org/Graphics/SVG/1.1/DTD/svg11.dtd" >
<svg xmlns="http://www.w3.org/2000/svg" xmlns:xlink="http://www.w3.org/1999/xlink" version="1.1" width="2048" height="2048" viewBox="-10 0 2068 2048">
   <path fill="currentColor"
d="M237 4q-18 3 -40 10.5t-40 16.5q-50 27 -87 70t-55 96q-12 32 -13.5 110.5t-1.5 715.5q0 509 1.5 640.5t4.5 143.5q9 53 35.5 99t68.5 78q41 33 84 48t93 15q47 0 85.5 -12t77.5 -39q15 -9 63.5 -56t232.5 -234l278 -275l278 275q184 187 232.5 234t63.5 56
q39 27 77.5 39t85.5 12q24 0 44.5 -3t38.5 -9q80 -27 133 -87.5t65 -140.5q3 -12 4.5 -146.5t1.5 -637.5q0 -637 -1.5 -715.5t-13.5 -110.5q-21 -65 -69.5 -112.5t-113.5 -71.5q-21 -6 -43 -9t-46 -3q-27 0 -49 3t-43 9q-74 27 -125.5 84.5t-66.5 140.5q-3 9 -4.5 75.5
t-1.5 344.5v403l-133 -133q-110 -107 -133.5 -129t-56.5 -37q-59 -27 -124 -27t-124 27q-33 15 -56.5 37t-133.5 129l-133 133v-403q0 -334 -1.5 -380t-13.5 -78q-23 -77 -85.5 -130.5t-139.5 -65.5q-17 -3 -49.5 -3t-50.5 3zM314 176q29 6 54.5 29.5t33.5 56.5
q12 59 -29.5 103.5t-100.5 35.5q-29 -3 -51.5 -20.5t-34.5 -41.5q-32 -65 12.5 -123t115.5 -40zM1785 176q50 9 75 55t7 93q-8 27 -27.5 46t-48.5 28q-6 3 -14 3h-16h-19q-8 0 -14 -3q-26 -9 -44 -23.5t-27 -35.5q-32 -65 12.5 -123t115.5 -40zM1054 910q53 15 75 65t-4 101
q-9 18 -27 34t-38 22q-15 6 -36 6t-36 -6q-38 -12 -58.5 -44.5t-20.5 -70.5q3 -39 26.5 -67t58.5 -40q9 -3 28.5 -3t31.5 3zM326 1650q59 21 73.5 81.5t-29.5 104.5q-18 18 -37 27t-43 9q-27 0 -46 -7.5t-37 -25.5q-32 -32 -32 -79.5t32 -82.5q12 -12 27 -19.5t29 -10.5
q12 -3 30 -3t33 6zM1796 1650q60 21 74.5 81.5t-29.5 104.5q-18 21 -37 28.5t-43 7.5t-43 -7.5t-37 -22.5q-50 -47 -32.5 -113.5t82.5 -81.5q15 -3 33 -3t32 6z" />
</svg>
