<?xml version="1.0" standalone="no"?>
<!DOCTYPE svg PUBLIC "-//W3C//DTD SVG 1.1//EN" "http://www.w3.org/Graphics/SVG/1.1/DTD/svg11.dtd" >
<svg xmlns="http://www.w3.org/2000/svg" xmlns:xlink="http://www.w3.org/1999/xlink" version="1.1" width="2048" height="2048" viewBox="-10 0 2058 2048">
   <path fill="currentColor"
d="M1024 0q-177 0 -331.5 67t-270.5 183t-183 270t-67 332q0 175 67 330.5t183 270t270.5 181.5t331.5 67t331.5 -67t270.5 -181.5t183 -270t67 -330.5q0 -178 -67 -332t-183 -270t-270.5 -183t-331.5 -67zM1024 1496q-134 0 -251.5 -50.5t-204.5 -137.5t-139 -204.5
t-52 -251.5t52 -251.5t139 -206t204.5 -139t251.5 -50.5t251.5 50.5t204.5 139t139 206t52 251.5t-52 251.5t-139 204.5t-204.5 137.5t-251.5 50.5zM1024 568q-117 0 -200.5 83.5t-83.5 200.5t83.5 200.5t200.5 83.5t200.5 -83.5t83.5 -200.5t-83.5 -200.5t-200.5 -83.5z
M1024 284q-117 0 -221 45t-180.5 121.5t-121.5 180.5t-45 221t45 219.5t121.5 180.5t180.5 121.5t221 43.5t221 -43.5t180.5 -121.5t121.5 -180.5t45 -219.5t-45 -221t-121.5 -180.5t-180.5 -121.5t-221 -45zM1024 1212q-150 0 -256.5 -105t-106.5 -255t106.5 -256.5
t256.5 -106.5t256.5 106.5t106.5 256.5t-106.5 255t-256.5 105zM1543 1922l-219 -95v63h-437l-87 -88q-5 -5 -12 -5t-12 5q-3 3 -3 10t3 12l68 66h-33l-90 -88q-6 -5 -12.5 -5t-9.5 5q-5 3 -5 10t5 12l66 66h-33l-90 -88q-6 -5 -12.5 -5t-9.5 5q-6 3 -6 10t6 12l65 66h-32
l-90 -88q-6 -5 -11.5 -5t-10.5 5q-6 3 -6 10t6 12l68 66h-74q-13 0 -21.5 10.5t-8.5 21.5t8.5 22t21.5 11h74l-68 66q-6 5 -6 12t6 10q5 5 10.5 5t11.5 -5l90 -88h32l-65 66q-6 5 -6 12t6 10q3 5 9.5 5t12.5 -5l90 -88h33l-66 66q-5 5 -5 12t5 10q3 5 9.5 5t12.5 -5l90 -88
h33l-68 66q-3 5 -3 12t3 10q5 5 12 5t12 -5l87 -88h437v63z" />
</svg>
