<?xml version="1.0" standalone="no"?>
<!DOCTYPE svg PUBLIC "-//W3C//DTD SVG 1.1//EN" "http://www.w3.org/Graphics/SVG/1.1/DTD/svg11.dtd" >
<svg xmlns="http://www.w3.org/2000/svg" xmlns:xlink="http://www.w3.org/1999/xlink" version="1.1" width="2048" height="2048" viewBox="-10 0 2058 2048">
   <path fill="currentColor"
d="M1543 1410q-25 6 -44.5 9t-41.5 3q-97 0 -210 -146.5t-209 -344.5t-160.5 -402.5t-64.5 -317.5q0 -83 18.5 -119.5t45.5 -60.5q-119 15 -245.5 42.5t-239.5 67t-201.5 88.5t-134.5 104q-21 27 -31.5 71.5t-10.5 99.5q0 177 84 439.5t212 508t279 421t282 175.5
q64 0 143.5 -49t168 -134.5t181.5 -201.5t179 -253zM1378 0q244 0 450 49t206 189t-39.5 288.5t-94.5 269t-117.5 198t-108.5 77.5q-82 0 -167.5 -99t-157.5 -241t-117.5 -297.5t-45.5 -268.5q0 -104 44 -134.5t148 -30.5z" />
</svg>
