<?xml version="1.0" standalone="no"?>
<!DOCTYPE svg PUBLIC "-//W3C//DTD SVG 1.1//EN" "http://www.w3.org/Graphics/SVG/1.1/DTD/svg11.dtd" >
<svg xmlns="http://www.w3.org/2000/svg" xmlns:xlink="http://www.w3.org/1999/xlink" version="1.1" width="2048" height="2048" viewBox="-10 0 2058 2048">
   <path fill="currentColor"
d="M1532 689v0l-6 -6q-4 -4 -6 -9l-619 -619q-56 -55 -135 -55t-134 55q-56 56 -56 134t56 136l201 198q-126 33 -233 103.5t-185 168.5t-122 220t-44 258q0 161 60.5 302t166 246.5t246.5 166t302 60.5t302 -60.5t246.5 -166t166 -246.5t60.5 -302q0 -174 -71.5 -324.5
t-195.5 -259.5zM1517 1389l-448 448q-20 20 -45 30t-53 10q-25 0 -50 -10t-45 -30q-41 -41 -41 -98.5t41 -98.5l211 -211h-458q-58 0 -98 -40t-40 -98q0 -56 40 -97.5t98 -41.5h458l-211 -211q-41 -40 -41 -97t41 -97q40 -40 96.5 -40t96.5 40l448 446q40 42 40 99t-40 97z
" />
</svg>
