<?xml version="1.0" standalone="no"?>
<!DOCTYPE svg PUBLIC "-//W3C//DTD SVG 1.1//EN" "http://www.w3.org/Graphics/SVG/1.1/DTD/svg11.dtd" >
<svg xmlns="http://www.w3.org/2000/svg" xmlns:xlink="http://www.w3.org/1999/xlink" version="1.1" width="2048" height="2048" viewBox="-10 0 2068 2048">
   <path fill="currentColor"
d="M1024 513l-80 133q-80 132 -131 220q-10 2 -14 4.5t-17 13.5q-26 -31 -51.5 -14.5t-35.5 32.5q-3 -36 -9.5 -44t-13.5 -15q5 -31 10 -77.5t-31 -82.5q-70 -46 -142 31t-115 136l-31 54q-101 -2 -184.5 -1t-178.5 -1q116 44 161 60.5t184 67.5q0 6 9 21t19 28
q10 8 19 14.5t15 8.5q-8 3 -18.5 9.5t-15.5 11.5q-18 36 0 51.5t36 43.5q21 36 35 55.5t60 -1.5q18 -7 36 -11t29 -7q-44 70 -71 115t-107 163l3 3q308 -124 392 -156t235 -91q222 85 307 119.5t326 127.5q-33 -54 -57.5 -91.5t-50.5 -81.5q11 0 30 -3.5t37 -14.5
q13 -10 28.5 -20.5t30.5 -28.5q29 -36 36.5 -82t-2.5 -103q-5 -28 -13 -50t-5 -22q131 -51 184 -70.5t176 -65.5q-149 2 -202 2h-189q-3 -28 -19.5 -41t-57.5 -10q-16 2 -25 8.5t-16 27.5q-24 -41 -51 -36t-39 26q-18 -18 -51.5 -23.5t-54.5 7.5q-15 -8 -33 -5t-34 21
q-10 -11 -18 -16t-33 -13q-57 -97 -106 -177t-95 -160zM1024 580q23 36 81 135t79 128q-24 2 -44.5 13.5t-35.5 34.5q-13 -15 -31 -26.5t-46 -14.5q-36 -5 -58 9t-45 40q-8 -23 -31 -28t-47 5q21 -33 93 -153t85 -143zM635 778q-2 93 -53.5 157.5t-97.5 33.5
q-36 -29 -8 -85.5t57 -82.5q-3 18 6 32.5t-4 32.5q-28 36 -23 59t15 26q34 10 61 -58t27 -130q0 -39 -24.5 -37.5t-68.5 50.5q-64 64 -93.5 124.5t-6.5 104.5q13 23 32 38.5t50 12.5q59 -8 94 -65.5t37 -104.5h11l2 -2q0 7 9 39.5t17 60.5q13 44 23.5 117.5t-139.5 109.5
q-28 5 -44.5 10t-45.5 15q-13 -28 -22 -43.5t-37 -41.5q39 -13 49 -15.5t33 -12.5q96 -31 129.5 -62t30.5 -72l-1 -16q-2 -17 -15 -33q-7 24 -16 39l-9 15q-29 44 -77.5 66t-97.5 6q-26 -10 -39 -30.5t-13 -56.5q0 -44 77.5 -141.5t126.5 -120.5q36 -11 42 11t6 50z
M1191 889q16 0 32.5 7.5t29.5 20.5q39 41 39 86t-26 76q-26 39 -80 25t-72 -66q-8 -23 3.5 -70.5t37.5 -68.5q8 -5 17 -7.5t19 -2.5zM1011 894q3 0 5.5 1.5t4.5 1.5q31 2 41.5 16.5t18.5 29.5q12 41 8.5 77t-34.5 67q-46 46 -88.5 30.5t-42.5 -76.5q0 -47 24.5 -97t62.5 -50
zM1171 897q-26 20 -28.5 57.5t20.5 52.5q8 11 17 16t34 7q18 3 40 -12.5t22 -33.5q0 -8 -4 -20.5t-22 -35.5q-15 -18 -33 -23.5t-23 -2.5q-18 10 -6.5 18t16.5 15q10 11 13 16t-3 7q-7 8 -17.5 8t-12.5 -2q-8 -3 -21 -17t8 -50v0zM1490 899q10 16 16.5 27.5t16.5 55.5
q16 51 35 73t37 11q46 -25 25.5 -80.5t-35.5 -86.5h11h12q8 29 11.5 45.5t24.5 109.5q23 108 19 154t-65 95q-29 23 -67.5 27t-74.5 1l-54 -7q29 -18 38 -38.5t9 -56.5q82 33 127 15t63 -59q8 -21 6.5 -50.5t-11.5 -75.5q2 38 1 52.5t-6 32.5q-11 38 -32.5 47t-37.5 -19
q-8 -10 -19.5 -41t-16.5 -67t-12.5 -81t-31.5 -68l6 -11q2 -5 5 -5v0zM1384 899q16 5 34 14t28 30q15 28 24 51.5t9 71.5q-2 54 -17.5 72.5t-30.5 20.5q-18 3 -44 -14t-44 -122q-8 -34 -18 -63.5t-21 -39.5q6 -8 7 -10.5t6 -7.5q5 5 11.5 19t14.5 48q13 51 27 66.5t37 18.5
q36 5 46.5 -37.5t-20.5 -81.5q-5 -7 -19 -15t-22 -5q0 15 4 16.5t4 11.5q0 13 -3 17t-5 11q-10 -5 -15.5 -9t-15.5 -16q-8 -21 -2.5 -35t25.5 -12v0zM991 904q-16 13 -30 48t4 68q10 13 21.5 22t34.5 4q16 -3 36.5 -21t25.5 -43q3 -21 -21.5 -52t-42.5 -23q-21 13 -13 22
t21 22q10 13 5 19t-13 12q-16 5 -26 -0.5t-13 -17.5q-5 -13 -1 -26t12 -34v0zM746 912q5 10 9 24.5t12 27.5q0 2 6.5 -0.5t16.5 -12.5q5 -5 11.5 -15.5t16.5 -23.5q8 5 9 10.5t4 7.5q5 8 13 9t10 -1q10 -10 15.5 -16.5t10.5 -6.5q2 13 -0.5 24.5t-20.5 31.5q-10 13 -24 15.5
t-19 0.5q-8 -3 -14.5 -7t-19.5 -11q-15 2 -15 17.5t5 28.5q8 39 28.5 54t40.5 5q8 -5 10.5 -6.5t15.5 -6.5q0 23 -1.5 36t4.5 39q-36 21 -62 13t-34 -54q-5 -41 -15 -82.5t-18 -51.5l-14 -14l-4 -4l9 -12q9 -11 14 -19zM142 917q46 0 100 1.5t113 1.5q-10 20 -12.5 35.5
t-5.5 36.5q-26 -10 -98 -36t-97 -39zM1906 920q-61 23 -112.5 42.5t-113.5 42.5q-8 -29 -10.5 -44t-10.5 -41h136h111v0zM1312 1092q8 28 16 41l7 13q13 23 30 36t40 21q8 8 10.5 11.5t2.5 8.5q2 29 -1.5 39t-27.5 26q-13 13 -14 31t14 36q16 12 38 16t78 -11
q13 18 28.5 42.5t38.5 60.5q-77 -29 -198 -76.5t-350 -134.5l-59 22q-59 21 -143 54.5t-177.5 69.5t-165.5 65q59 -93 79.5 -125t61.5 -99q15 -5 16.5 -5t14.5 -8q28 -15 51.5 -39.5t35.5 -58.5q24 54 54.5 63t84.5 -6q13 -5 23.5 -15.5t12.5 -28.5q31 26 85 24.5t98 -57.5
q39 46 111 46t105 -62v0zM1497 1167l2 5q1 5 4 8q-8 2 -13 2h-5q2 -5 4.5 -7.5l7.5 -7.5v0z" />
</svg>
