<?xml version="1.0" standalone="no"?>
<!DOCTYPE svg PUBLIC "-//W3C//DTD SVG 1.1//EN" "http://www.w3.org/Graphics/SVG/1.1/DTD/svg11.dtd" >
<svg xmlns="http://www.w3.org/2000/svg" xmlns:xlink="http://www.w3.org/1999/xlink" version="1.1" width="2048" height="2048" viewBox="-10 0 2068 2048">
   <path fill="currentColor"
d="M1026 807q-6 2 -10 6.5t-10 10.5q-6 11 -7.5 21t-1.5 64v62h86v-65v-65l-6 -9q-6 -14 -14.5 -19.5t-19.5 -5.5h-9h-8zM51 812q-17 3 -31 13t-17 21q-3 6 -3 30v149v168q0 20 11 29q3 5 6 8t9 3q5 3 8 4.5t14 1.5q9 0 12 -1.5t11.5 -4.5t12.5 -8.5t7 -14.5l6 -6v-127v-128
l37 45q14 17 43.5 54t58.5 71q51 63 69.5 83t29.5 25q9 6 19 9t21 3q17 0 28.5 -6t19.5 -14q6 -12 7.5 -31.5t1.5 -164.5v-177l-3 -8q-6 -6 -11.5 -13t-13.5 -10q-3 0 -7.5 -1.5t-12.5 -1.5q-12 0 -17.5 1.5t-11.5 7.5q-8 3 -12.5 10t-4.5 13q-3 5 -3 38v95v91v37l-96 -115
q-97 -115 -117 -141q-8 -11 -16.5 -18t-14.5 -13q-9 -3 -21.5 -4.5t-18.5 -1.5zM1654 812q-11 3 -18.5 10t-12.5 16q0 6 -1.5 8.5t-1.5 11.5v10q0 4 3 10q5 14 15 25.5t59 59.5q22 25 41 44l18 18l-18 19q-19 18 -41 44q-52 48 -61.5 61t-12.5 27q-3 9 -3 20t6 20
q11 20 33.5 22.5t48.5 -11.5l21.5 -21.5l43.5 -43.5l60 -60l60 60q25 25 45 43.5t20 21.5q14 6 25.5 10t19.5 4q15 -2 23.5 -8t13.5 -17q6 -9 7.5 -20t-1.5 -20q-6 -14 -15.5 -27t-58.5 -61q-25 -26 -44 -44l-18 -19l18 -18l44 -44q49 -48 58.5 -59.5t12.5 -25.5q3 -6 3 -10
v-10v-12q0 -2 -3 -8q-8 -14 -22.5 -21.5t-31.5 -4.5q-3 0 -8 3l-12 6l-11 5l-125 123l-63 -60l-59 -63l-14 -5q-12 -6 -23.5 -7.5t-19.5 -1.5zM1179 815q-11 3 -18 8.5t-10 14.5l-3 8v353l3 8q0 3 3 7.5t5 4.5q9 8 23 12.5t31 1.5q15 -3 27.5 -8.5t24.5 -20.5q5 -5 38 -43.5
t75 -89.5l103 -122v125v128l2 8q6 9 14.5 14.5t20.5 8.5q14 3 26.5 -1.5t21.5 -9.5q8 -12 9.5 -29t1.5 -156v-155q0 -27 -5 -38q-3 -9 -16 -17.5t-27 -11.5q-11 -3 -25.5 0t-25.5 11l-12 12q-8 8 -25 28q-63 74 -131 155l-68 81v-37q0 -37 -3 -91v-106v-24q-6 -12 -13 -17.5
t-15 -11.5h-17h-15zM571 821q-3 5 -54 99t-54 100l-3 3l60 105l57 108h247l60 -111l59 -111l-45 -3h-141h-83q-12 3 -17.5 7.5t-11.5 9.5q-17 17 -8.5 40t37.5 26q2 2 21 2h50h65l-20 35l-20 31h-136l-37 -66q-14 -28 -26 -48l-11 -20l10 -20q10 -20 24 -45l34 -63h151
l20 34l22 37h49h51l-3 -2l-14 -23q-15 -23 -34 -54l-43 -77h-253zM997 1108v81q0 13 3 21q3 9 9 14.5t14 11.5q9 3 17.5 4t13.5 -4q9 -3 14.5 -10t8.5 -13l6 -9v-93v-97h-14q-6 0 -17.5 -1.5t-25.5 -1.5h-29v97z" />
</svg>
