<?xml version="1.0" standalone="no"?>
<!DOCTYPE svg PUBLIC "-//W3C//DTD SVG 1.1//EN" "http://www.w3.org/Graphics/SVG/1.1/DTD/svg11.dtd" >
<svg xmlns="http://www.w3.org/2000/svg" xmlns:xlink="http://www.w3.org/1999/xlink" version="1.1" width="2048" height="2048" viewBox="-10 0 2068 2048">
   <path fill="currentColor"
d="M964 819l33 -136q33 -135 238 -135h813l-34 135q-34 136 -237 136h-813zM964 1164l33 -136q33 -135 238 -135h405l-33 135q-32 136 -238 136h-405zM964 1512l33 -136q33 -135 238 -135h134l-33 135q-32 136 -238 136h-134zM873 1301v214h-873l562 -765h-482v-217h910
l-559 768h442z" />
</svg>
