<?xml version="1.0" standalone="no"?>
<!DOCTYPE svg PUBLIC "-//W3C//DTD SVG 1.1//EN" "http://www.w3.org/Graphics/SVG/1.1/DTD/svg11.dtd" >
<svg xmlns="http://www.w3.org/2000/svg" xmlns:xlink="http://www.w3.org/1999/xlink" version="1.1" width="2048" height="2048" viewBox="-10 0 2068 2048">
   <path fill="currentColor"
d="M431 1189q-9 0 -22 5.5t-22 23.5q-5 14 -20 17t-23 0q-15 -5 -31 -5t-33 11q-18 12 -31 4.5t-10 -30.5q3 -20 11.5 -39t29.5 -31q46 -26 36 -46.5t16 -49.5q26 -26 26 -41v-53q-84 -11 -139.5 -40t-110.5 -97q-53 -67 -76.5 -129.5t-28.5 -147.5q-6 -84 1 -145.5
t45 -131.5q35 -69 79 -110t108 -76q67 -35 131 -45.5t125 -10.5q62 0 104 7.5t74 25.5q35 20 64.5 39t49.5 22q20 0 33.5 -6t24.5 -12q3 64 -45 79t-100 18q-53 0 -91 -12t-87 -6q-50 9 -117 36.5t-105 94.5t-45 103.5t-4 92.5q2 55 40 93t64 38q30 0 41.5 -7.5t37.5 -21.5
q24 -18 115.5 -127.5t135.5 -141.5q41 -35 83 -48t86 -13t66 3t56 18q35 14 61.5 37.5t55.5 40.5q15 -8 25 -20t25 -21q46 -37 81 -47.5t94 -4.5q32 3 69.5 19t61.5 39q46 38 82.5 87.5t66.5 90.5q23 29 50.5 62.5t68.5 45.5t70 -27.5t35 -68.5q3 -18 6 -34t3 -36
q0 -18 -3 -39.5t-9 -42.5q-6 -20 -14.5 -39t-17.5 -34q-17 -26 -42 -52t-54 -41q-15 -6 -47 -17.5t-55 -11.5q-29 0 -52.5 6t-49.5 8q-32 0 -80.5 1.5t-71.5 -21.5q-17 -17 -21.5 -30.5t-7.5 -33.5q9 6 17.5 10t17.5 4q20 3 39 -10t34 -22q14 -8 31.5 -20t35.5 -18
q44 -20 96.5 -21.5t101.5 4.5q38 3 82 19t79 33q32 21 64 50t55 58q29 38 46.5 74.5t29.5 83.5q14 61 15.5 141t-15.5 142q-12 46 -50 107.5t-76 96.5q-35 35 -77 54t-92 27q3 12 4.5 20.5t1.5 17.5q6 9 13.5 19t18.5 7q6 -2 10.5 -2t13.5 5q5 6 1 26.5t-25 32.5
q-11 6 -23 7t-29 1h-38q-23 0 -41 -2q-20 -3 -33.5 -15t-33.5 -12q-32 -6 -57 -23.5t-48 -34.5q-12 -6 -16 -7.5t-10 -4.5q3 9 6 19t5 19q3 12 3 21v14q3 9 4.5 15t1.5 11q6 6 9 12t12 6q8 3 20 1.5t20 -4.5q9 0 15 -3t12 -3q8 3 14 6t12 9t10.5 8.5t9.5 11.5q3 12 7.5 32.5
t4.5 34.5q0 15 -1.5 29.5t-7.5 26.5q-3 11 -8.5 20t-17.5 20q-12 12 -31 28t-39 28q3 6 6 10t9 13q5 6 15.5 12t13.5 11q6 6 8.5 12t2.5 12q0 9 -1 17.5t-7 14.5q-12 20 -29.5 26t-37.5 18q3 20 4 37.5t-1 37.5q-3 9 -9 25t-15 22q-11 3 -28.5 3t-32.5 3q-12 0 -20.5 3
t-20.5 3q-6 11 -13 20t-10 18q-3 8 -3 12.5t3 13.5q3 6 8.5 17.5t8.5 20.5q3 11 4.5 20t-1.5 21q-3 8 -7 15.5t-13 16.5q-9 8 -22 15.5t-22 16.5q-9 6 -14.5 8.5t-2.5 14.5q3 18 21.5 38t33.5 26q12 3 23.5 3t26.5 -6q-3 15 -12 23.5t-18 17.5q21 -6 41.5 -16t31.5 -25
q-3 12 -17.5 31t-34.5 39q-23 18 -29 19.5t-18 9.5q21 3 40 3t33 -3q-9 3 -22 9t-33 9h-31q-13 0 -31 -6q-17 -3 -33 -16t-37 -22q3 6 6 15t12 17q9 6 20.5 12t26.5 12q-18 -3 -37 -4.5t-33 -4.5q-15 -3 -23.5 -6t-17.5 -9q-12 -3 -19 -8.5t-16 -11.5q6 6 7.5 14.5t9.5 14.5
q6 6 16.5 9t18.5 9h-17h-21q-8 -3 -17 -7.5t-20 -13.5q-9 -6 -19.5 -14.5t-18.5 -17.5q-9 -9 -18 -20.5t-12 -20.5q-2 -9 0.5 -14.5t2.5 -14.5q-5 6 -11 9t-12 9q-3 5 -6 11t0 15q0 9 7.5 20.5t13.5 23.5q-18 -18 -29.5 -26.5t-14.5 -29.5q-6 -17 3 -32l17 -29q3 -6 9 -12
t9 -11l-18 -18l-17 -17q-6 -9 -10.5 -20.5t-13.5 -20.5q-5 -9 -15.5 -16.5t-18.5 -15.5q8 17 18.5 36t13.5 31q2 14 -2 21.5t-10 16.5q-3 5 -10.5 8t-12.5 6q-9 6 -18 6t-12 6q-5 6 -5 14.5t3 14.5l23 35q-6 -6 -14.5 -13t-14.5 -13t-10.5 -12t-7.5 -14v-16q0 -8 6 -17
q6 -5 17.5 -9.5t17.5 -10.5q9 -6 12 -10t3 -13q0 -6 -6 -12l-12 -12q-20 -11 -42 -25.5t-40 -32.5q-8 -9 -12.5 -17.5t-7.5 -14.5q0 -6 1.5 -13t4.5 -13q6 -9 17.5 -19t14.5 -19q0 -9 -6 -13.5t-12 -7.5q-8 -2 -20 -1t-17 -4q-6 -3 -3 -13.5t-3 -15.5q-9 -6 -23.5 -6
t-23.5 -9q-9 -6 -13 -14.5t-7 -17.5q-3 -12 -3 -22t3 -16q0 -6 5.5 -9t8.5 -9q3 -2 6 -5t-3 -9t-19 -4.5t-22 -4.5q-8 -9 -6.5 -22t-7.5 -22q-6 -5 -16 -5t-16 -3q-6 0 -9 2.5t-9 -11.5q-3 -12 -4.5 -42.5t-6.5 -45.5q-3 -14 -12 -9.5t-15 -10.5q-3 -15 -1.5 -35t-1.5 -41
l-11 -78q-35 23 -61.5 31.5t-61.5 14.5q-3 91 -4.5 156.5t28.5 161.5q32 96 90 164.5t140 153.5q-108 -82 -165 -153.5t-89 -155.5q-32 -82 -33.5 -156.5t1.5 -155.5zM1192 1142q9 0 17.5 3t14.5 6t12 7t12 7q14 15 23 31t14 34q3 11 3 25.5t3 29.5q-6 -12 -8.5 -25
t-8.5 -25q-9 -17 -23.5 -33t-35.5 -25q-5 -3 -10 -3h-7q3 3 4.5 6t1.5 6t-1.5 8.5t-7.5 8.5q-12 6 -22 3t-19 -9q-8 -8 -9.5 -18.5t1.5 -21.5q5 -12 21 -13.5t25 -1.5zM1055 1119q0 -21 9 -38.5t29 -28.5q9 -3 23.5 -9t26.5 -9q14 0 40.5 1.5t46.5 10.5q15 6 26.5 16
t26.5 16q11 9 21.5 14.5t24.5 14.5q18 15 31 28t28 22q5 5 14 5t15 3q-6 3 -13.5 4.5t-15.5 -1.5q-9 -3 -19.5 -10t-18.5 -13q-12 -9 -21 -16t-20 -13q-9 -6 -20.5 -12t-20.5 -9q-9 -5 -22 -15.5t-22 -16.5q-9 -5 -26.5 -6.5t-28.5 -1.5q-15 0 -35.5 2.5t-34.5 14.5
q-12 12 -16.5 23.5t-1.5 26.5q3 -6 7.5 -12t7.5 -12q12 -5 23.5 -6.5t23.5 -1.5q11 3 20 10t12 22l-7.5 -7.5t-10.5 -4.5q-9 -6 -17.5 -4.5t-20.5 7.5q-8 6 -9.5 14.5t-1.5 17.5q0 6 -1.5 10.5t-4.5 6.5q-3 0 -7.5 -1t-7.5 -7v10v10q0 6 3 12t3 11q-6 -8 -14.5 -15.5
t-11.5 -19.5q-6 -8 -9 -20t-3 -23zM1072.5 914.5q5.5 -8.5 8.5 -21.5t6 -22v26q0 15 -6 23q-5 12 -17 13.5t-21 4.5q9 -6 16.5 -10.5t13 -13zM886 1189q6 -9 23.5 -6t34.5 3q-11 3 -23 6t-23 5v9q0 3 -3 6q-3 6 -7.5 7.5t-7.5 1.5q0 -9 -1.5 -17.5t7.5 -14.5zM1029 620
q9 3 19 9t19 6t11.5 -4.5t8.5 -7.5q9 26 17.5 51t20.5 48q6 9 10.5 9t7.5 9q3 8 5.5 24.5t5.5 27.5q6 15 10.5 23.5t7.5 20.5q-9 -18 -22 -35.5t-19 -31.5q-6 -15 -6 -19t-6 -16q-3 -15 -11.5 -32.5t-17.5 -34.5q-6 3 -12 3h-11q-3 -3 -4.5 -6t-4.5 -6t-9 -4.5t-11 -4.5
q-6 -5 -7.5 -12.5t-1.5 -16.5zM965 781q6 -3 16 -1.5t19 1.5q8 0 14 -1.5t12 -4.5q0 -12 -1.5 -29.5t-13.5 -26.5q-5 -6 -27 -3t-31 3q-17 3 -37.5 13.5t-38.5 15.5q18 -11 34 -21.5t33 -15.5q15 -3 37 -6t33 0q6 0 9 3t6 8q12 15 14.5 31t5.5 34q3 5 6 8t6 9q0 6 1.5 12
t4.5 11q-3 -3 -4.5 -8.5t-10.5 -8.5t-20.5 -1.5t-23.5 4.5q9 6 13.5 13t4.5 19q0 14 -10 24.5t-25 10.5q-18 3 -28 -3t-19 -20q-3 -6 -1.5 -15t1.5 -15q-23 0 -29 3t-23 15q9 14 17.5 23t23.5 15q6 6 16 8.5t19 5.5q8 0 23 1.5t26 1.5q12 -3 18 -5.5t14 -11.5q9 -6 10.5 -16
t4.5 -19q0 9 -1.5 17.5t-4.5 14.5q-9 17 -23.5 24.5t-31.5 7.5q-18 0 -38.5 -4.5t-37.5 -10.5q-12 -5 -29.5 -18.5t-23.5 -27.5q-3 -9 -1.5 -20.5t-1.5 -20.5q21 -12 29.5 -13.5t32.5 -4.5q8 0 15.5 -2.5t16.5 -2.5zM822 670q0 -6 1.5 -9t1.5 -6q-18 -3 -26.5 6t-17.5 29
q-3 9 -3 13.5t-3 9.5q-3 6 -8.5 6t-11.5 6q-9 6 -15 13.5t-11 12.5q-12 9 -28 16.5t-28 13.5q9 -6 23.5 -16.5t20.5 -21.5q3 -6 4.5 -15t7.5 -12l8 -8q3 -3 9 -6q6 0 6 -6t3 -12q0 -5 4.5 -11t6.5 -12q6 -6 12 -13t14.5 -10t20.5 -1.5t18 -1.5q5 0 5 -4.5t6 -7.5q3 -3 12 -3
t15 -3q11 -6 17 -14.5t15 -17.5q0 21 -1.5 38.5t-7.5 34.5q-9 23 -20.5 38t-35.5 29q-8 3 -17 6t-15 6q3 -6 9 -10.5t9 -13.5v-21v-22zM1341 807h-18q-5 0 -14 6q6 8 10 15.5t10 16.5q0 -15 1.5 -22t10.5 -16zM1300 792q15 -9 29.5 -13t31.5 -4h18h17q6 -9 12 -16.5t9 -18.5
q3 -6 1.5 -29.5t-4.5 -29.5q-9 -23 -19 -30t-25 -19q-9 -12 -10.5 -25t-4.5 -31q-2 -5 -3.5 -12.5t-4.5 -13.5q-18 -3 -35.5 -4.5t-37.5 -1.5q9 -8 17.5 -17t11.5 -23q3 -12 0 -28t-12 -28q-6 -14 -17.5 -24.5t-23.5 -19.5q-11 -11 -25.5 -20t-26.5 -15l29 -11q15 -6 29 -9
q35 -9 67 1.5t67 30.5q21 12 38.5 25t37.5 36q24 21 47 56t44 58q20 23 37.5 43.5t34.5 32.5q18 14 35.5 21.5t34.5 16.5l35 38l27 -35l46 6l9 -53l44 -12l-9 -70l32 -20l-23 -44l23 -46l-29 -56l9 -49l-32 -32l-6 -53l-50 -20l-17 -47h-56l-26 -38l-38 3l-41 -3l-23 -17
l-32 23l-41 -23l-81 32l52 -47l55 -9l41 -11l56 20l52 -15l47 30l49 -3l27 46l49 6l29 50l32 17l6 61l29 30l-11 55l32 41l-29 46l32 27l-44 38l44 46l-53 18l35 46l-44 9l30 53h-50l26 40l-52 -8l11 58l-40 -35l-12 70l-29 -50l-15 62l-35 -47l3 67l-38 -58q6 23 9 49.5
t18 49.5q52 -6 88.5 -22t77.5 -54q35 -35 71.5 -94.5t47.5 -106.5q12 -50 12 -130t-12 -132q-11 -53 -30 -83.5t-46 -71.5q-29 -29 -56.5 -58t-62.5 -50q-53 -32 -115.5 -42t-120.5 -10q-32 0 -55.5 5.5t-40.5 11.5q-35 15 -64.5 36.5t-64.5 33.5q-11 6 -20 6t-18 -6
q9 18 20.5 28t32.5 16q14 3 46.5 1.5t58.5 -4.5t46.5 -7.5t58.5 -4.5t65.5 10.5t42.5 18.5q35 21 58 43t44 57q11 17 20 36t15 42q6 21 7 42.5t1 42.5q3 20 0.5 39t-5.5 37q-12 43 -39.5 78t-83.5 30q-32 -6 -71.5 -51.5t-56.5 -65.5q-32 -47 -67 -93.5t-76 -84.5
q-26 -20 -59.5 -36t-65.5 -19q-65 -6 -95.5 8.5t-79.5 52.5q11 3 20 6t20 8q21 9 41.5 22t37.5 31q18 17 26.5 30.5t11.5 39.5q0 17 -11.5 30.5t-23.5 24.5q-9 6 -17.5 13.5t-14.5 13.5q-9 5 -14.5 14t2.5 23q6 3 12 7.5t12 7.5q8 6 5.5 25t-14.5 25q-18 8 -34 8t-27 -11
q14 -3 23 -7.5t9 -16.5q0 -8 -7.5 -14t-16.5 -9q-23 -12 -42 -14.5t-42 -20.5q-20 -15 -26 -28t-12 -39q-12 0 -22 1.5t-25 7.5q-14 6 -30 14.5t-28 11.5q-35 6 -48 4.5t-31 -4.5q-32 -9 -71 1.5t-80 24.5h-32q-24 0 -41 9q-29 9 -65.5 30.5t-60.5 42.5q-35 29 -75.5 110.5
t-66.5 183.5q-3 32 -1.5 54t-19.5 37q-17 17 -21.5 46.5t-10.5 40.5q-9 12 -17.5 13.5t-23.5 15.5q-11 15 -18.5 21t-7.5 35q12 -6 28 -15t33 -9q15 0 23.5 6t43.5 -29q21 -20 53 -24.5t55 -13.5q26 -9 70 -30.5t91 -71.5q46 -52 69.5 -110.5t32.5 -137.5q3 12 3 32.5
t-6 58.5t-10.5 81.5t21.5 96.5l24 43q-12 -14 -28 -33t-22 -37l-17 -49q-29 49 -46.5 68t-61.5 54v42q0 22 9 43q5 20 -0.5 42t0.5 36q5 12 15.5 12t13.5 15q3 11 1.5 34.5t4.5 35.5q5 14 18.5 11t18.5 3q9 3 12 9t9 12q3 5 1.5 15.5t4.5 13.5q8 6 20 4.5t20 4.5
q9 2 10.5 11t-1.5 18q0 8 -7 14t-13 15q-3 12 -3 17.5t6 14.5t14.5 14.5t20.5 8.5q8 6 21.5 6t24.5 6q12 6 21 16t14 19q6 6 7.5 13t1.5 16t-3 19t-9 19q-2 9 -8 20.5t11 26.5q15 17 19.5 17t12.5 9q0 -18 -4 -34t2 -27q5 -15 18.5 -19.5t21.5 -12.5q9 -6 15 -13.5t14 -16.5
v19v19q-2 15 -2 25t23 13q9 3 17.5 -3t20.5 -8q-6 8 -13.5 17t-7.5 20q-3 12 0 25t9 25q9 12 20.5 20.5t23.5 14.5q9 6 16 9t16 6q0 11 -1.5 23t-1.5 20q3 12 6 22t9 19q5 9 15.5 15t19.5 11q-6 -11 -13.5 -23t-7.5 -23q0 -15 4.5 -23.5t16.5 -20.5q14 -12 37.5 -22
t34.5 -22q15 -8 21 -17l12 -18q2 -11 2 -26t3 -23q3 11 5 19l4 22q0 14 -7 30t-10 28q17 -9 27.5 -20.5t15.5 -26.5q3 3 3 9v17q9 -5 15 -9.5t12 -10.5l11 -12q6 -5 9 -11q3 -9 3 -18t-3 -17q-3 -9 -10.5 -19t-12.5 -19q-6 -12 -3 -22t3 -22q-12 -3 -22 -6t-22 -3
q-12 3 -26.5 13.5t-26.5 10.5q-11 0 -20 -9t-20 -12q-12 -3 -22 -4.5t-22 -1.5q14 -14 56.5 -20t80.5 -12q29 -5 61 -8t64 -3q12 0 29.5 1.5t26.5 -1.5q8 -3 9.5 -9t4.5 -12q9 -20 6 -39t-6 -39l-58 -6t-58 -3q-30 3 -60.5 11.5t-59.5 11.5q-26 0 -58 -6t-56 -17
q-26 -18 -45 -45.5t-25 -39.5q-11 -17 -25.5 -46.5t-23.5 -46.5q-9 -15 -13.5 -22t-10.5 -13q-8 -6 -17 -9t-20 -6q11 0 21.5 -1.5t21.5 4.5q12 9 26.5 35.5t23.5 40.5q9 -32 13 -48t34 -34q-24 24 -28.5 46t-9.5 51q17 29 43.5 67t58.5 52q11 3 28.5 6t29.5 6q41 3 79 -6
t78 -17q30 -9 59 -7.5t64 4.5q12 0 33.5 -6t27.5 -21q3 -5 1.5 -12.5t-4.5 -13.5q-6 -6 -14.5 -10t-17.5 -13q-6 -6 -10 -13.5t-7 -12.5q-27 5 -50 6.5t-41 4.5q12 -6 26.5 -10t29 -10t30.5 -14.5t28 -17.5q12 -6 19 -12t16 -14q9 -12 19 -21t16 -20q6 -12 9 -23.5t3 -26.5
q0 -14 -1.5 -31.5t-7.5 -26.5q-6 -12 -14.5 -16.5t-17.5 -6.5q-6 -3 -13.5 1t-15.5 4q-9 0 -18 3t-20 -3q-12 -5 -26.5 -17t-26.5 -29q-14 -18 -23 -42.5t-23 -48.5q-21 -38 -47 -74.5t-53 -70.5q-2 -9 -5 -21t-3 -23q-3 -21 -3 -41t9 -41q2 -14 11 -29t24 -20
q8 -3 15.5 -4.5t13.5 1.5t10 8.5t1 11.5q-3 9 -7 12t-10 6q-6 5 -9 12.5t-6 16.5h15h14q9 3 16.5 8.5t10.5 14.5q-9 -9 -16.5 -12t-18.5 -3q-3 0 -10.5 1.5t-13.5 1.5q0 6 -1.5 15t-3.5 15l-10.5 3.5t-7.5 7.5q0 9 -1.5 17.5t1.5 17.5zM1405 778q3 3 6 4t9 4q2 3 8 7.5
t9 10.5q3 9 3 19v16h-7q-5 0 -8 -3t-4 -9t-7 -9q-3 0 -7.5 -1t-7.5 -1q0 8 1.5 14t1.5 12q-3 14 -10 20t-22 9q-3 0 -11.5 -1.5t-11.5 -1.5q3 6 5.5 10.5t5.5 7.5q9 0 18 -1.5t14 -4.5q3 0 10.5 -6t13.5 -9q8 0 14 -1.5t15 -1.5l-10 10l-11 11q3 14 7.5 27t10.5 25
q9 6 19 10.5t22 12.5q11 9 26 19.5t32 18.5q15 6 26.5 12t29.5 9q17 3 30 11.5t31 11.5q17 3 42 3h36q15 -3 31 -10.5t16 -21.5q-12 3 -28 -3t-24 -29q-3 -9 -4.5 -25t-7.5 -28q-6 -11 -14.5 -18.5t-20.5 -21.5q-9 -15 -23.5 -35.5t-26.5 -40.5q-8 -21 -12.5 -41.5
t-13.5 -37.5q-9 -18 -19 -32.5t-19 -28.5q-23 -29 -43.5 -51t-52.5 -37q-17 -6 -34.5 -8.5t-35.5 -8.5q-9 3 -16 7t-10 13t0 19t12 16q8 12 21 23.5t19 29.5q3 11 4.5 39t-1.5 36q-6 9 -11.5 16.5t-14.5 13.5zM1411 891l-6 6q-3 3 -9 6t-11.5 3t-14.5 3q12 14 20.5 29
t17.5 32q9 15 17.5 32.5t17.5 31.5v-19v-19q-3 -8 -6 -17t-9 -21q-3 -14 -7 -30t-10 -37zM1070 457q-3 14 0 34.5t6 35.5q2 17 6.5 27.5t19.5 21.5q26 18 43.5 21t37.5 14q9 6 19.5 13.5t12.5 16.5q6 8 0.5 18.5t-11.5 13.5q11 3 21.5 -9t4.5 -26q-3 -9 -13 -13.5t-13 -10.5
q-3 -5 -4.5 -12.5t1.5 -16.5q3 -11 22 -23t27 -23q15 -15 19.5 -29.5t-1.5 -35.5q-12 -29 -47 -50.5t-61 -33.5q-12 -6 -19 -7.5t-16 -4.5q18 12 35.5 23.5t28.5 35.5q6 20 3 31.5t-3 32.5q0 5 9 11t15 12q2 3 2 7.5t-2 9.5q0 -5 -3 -9.5t-6 -7.5q-9 -6 -16.5 -7.5
t-9.5 -10.5q-6 -17 -2 -33t-7 -34l-25 -24q-13 -13 -31 -13q-5 0 -12.5 1t-16.5 4l-17 -20q-24 -20 -44 -37.5t-52 -35.5q-35 -15 -57 -17.5t-63 -2.5q-38 0 -77.5 8.5t-82.5 46.5q-44 38 -133 146t-115 125q-29 21 -43.5 28t-47.5 7q-35 0 -77 -43.5t-45 -105.5
q-3 -61 4.5 -97.5t47.5 -111.5q44 -73 111 -101t126 -36q58 -9 97.5 4t80.5 13q43 0 79.5 -11.5t48.5 -43.5q-6 3 -16 5.5t-31 2.5q-23 -3 -53.5 -23t-65.5 -38q-38 -17 -79 -21.5t-91 -4.5q-49 -3 -110.5 5.5t-125.5 43.5q-61 33 -106 73.5t-80 107.5q-38 64 -47 125.5
t-3 140.5q6 81 32 144t73 121t101 88.5t141 42.5l23 -108l-43 64l3 -70l-41 50l-18 -67l-29 52l-17 -73l-44 38l12 -61l-59 6l27 -41h-56l32 -55l-46 -9l37 -50l-58 -17l47 -47l-47 -41l38 -29l-35 -49l38 -44l-15 -58l32 -29l9 -68l38 -17l29 -52l59 -6l29 -47l58 3l55 -29
l56 11l64 -17l50 12l61 8l61 47l-93 -32l-47 23l-38 -23l-26 17l-47 3h-43l-30 35l-61 3l-23 50l-56 20l-5 56l-41 32l14 55l-35 56l27 49l-27 47l35 20l-8 73l49 15l12 52l52 -6l32 38l41 -41q53 -26 85 -48t76 -68q46 -53 84 -101t102 -83q47 -26 89 -35t95 0q49 9 74 35
t60 55q6 -5 7.5 -8t7.5 -9q0 9 -3 17.5t-3 17.5z" />
</svg>
