<?xml version="1.0" standalone="no"?>
<!DOCTYPE svg PUBLIC "-//W3C//DTD SVG 1.1//EN" "http://www.w3.org/Graphics/SVG/1.1/DTD/svg11.dtd" >
<svg xmlns="http://www.w3.org/2000/svg" xmlns:xlink="http://www.w3.org/1999/xlink" version="1.1" width="2048" height="2048" viewBox="-10 0 2058 2048">
   <path fill="currentColor"
d="M1087 929l-7 -14h-1t-1 2zM1124 899l-9 -12q-2 0 -2 1t-3 1zM1148 857l-14 -7v1v3zM1155 810l-14 -2v1v3zM1145 761l-14 5v1q0 1 3 3zM947 920l12 -12h-3l-2 -2zM1040 943v-14h-2h-2zM991 941l7 -14h-3q-1 0 -1 -3zM959 908q7 7 16 10.5t19 5.5l7 -58zM1080 693l-9 12
q2 0 2 1t2 1zM910 747l11 9q0 -2 1.5 -2t1.5 -2zM893 791l14 5l1 -1q2 -1 2 -4h-17zM896 840h14v-3v-1zM1120 721l-14 10q2 0 2 1t2 1zM914 885l14 -7q-2 0 -2 -1v-2zM998 927q5 0 12 1t14 1h6h6l-17 -58zM1033 682l-4 14h3h1v-14zM984 686l3 17l2 -3h2zM942 710l7 14
q0 -3 1.5 -3t1.5 -2zM1080 915q9 -5 17.5 -10.5t12.5 -15.5l-49 -32zM1059 817q0 16 -10.5 26.5t-24.5 10.5t-24.5 -10.5t-10.5 -26.5q0 -14 10.5 -24.5t24.5 -10.5t24.5 10.5t10.5 24.5zM910 840q2 10 5.5 18t10.5 17l44 -39zM907 796v8v8v12q0 5 3 12l56 -21zM954 906
l28 -54l-54 26q5 9 12 16t14 12zM1024 976q68 0 114.5 -48t46.5 -116q0 -67 -46.5 -114t-114.5 -47t-114.5 47t-46.5 114q0 68 46.5 116t114.5 48zM1024 677q56 0 95.5 39.5t39.5 95.5t-39.5 96t-95.5 40t-95.5 -40t-39.5 -96t39.5 -95.5t95.5 -39.5zM921 756
q-4 7 -7.5 16.5t-3.5 18.5l60 3zM1463 1489q-231 -56 -335 12l-104 68q0 58 37.5 135t101.5 147t150.5 123.5t186.5 65.5q196 26 313 -33l117 -58l-29 -61q-30 -60 -88 -139.5t-145.5 -154t-204.5 -105.5zM585 1489q-117 31 -204.5 105.5t-145.5 154t-88 139.5l-29 61
l117 58q117 59 313 33q100 -12 186.5 -65.5t150.5 -123.5t101.5 -147t37.5 -135l-104 -68q-104 -68 -335 -12zM1040 929q10 -2 19 -4.5t19 -7.5l-38 -49v61zM165 1167h1718l54 -161h-252l49 -285l65 -380l-36 -54q-36 -54 -125 -118t-237 -116.5t-372 -52.5
q-273 0 -428.5 52.5t-233.5 116.5t-98 118l-20 54l114 665h-252zM1024 626q77 0 132 54.5t55 131.5t-55 132t-132 55t-132 -55t-55 -132t55 -131.5t132 -54.5zM1141 808q0 -10 -2.5 -20.5t-4.5 -17.5l-54 31zM1134 850q4 -10 5.5 -19t1.5 -19v0l-59 10zM1115 887
q5 -7 9.5 -15t9.5 -18l-61 -11zM1131 766q-4 -10 -9 -18t-12 -15l-37 47zM1106 731q-5 -7 -13 -13t-18 -11l-18 59zM949 724q-7 4 -14 12.5t-11 15.5l56 23zM1029 696h-1h-4q-9 0 -17.5 1t-15.5 3l26 54zM987 703q-10 2 -18 6.5t-17 9.5l44 42zM1071 705q-7 -2 -17.5 -4.5
t-20.5 -4.5l5 60z" />
</svg>
