<?xml version="1.0" standalone="no"?>
<!DOCTYPE svg PUBLIC "-//W3C//DTD SVG 1.1//EN" "http://www.w3.org/Graphics/SVG/1.1/DTD/svg11.dtd" >
<svg xmlns="http://www.w3.org/2000/svg" xmlns:xlink="http://www.w3.org/1999/xlink" version="1.1" width="2048" height="2048" viewBox="-10 0 2058 2048">
   <path fill="currentColor"
d="M368 510q0 213 6.5 363t13.5 150q5 0 91.5 -26t203.5 -63q161 -55 252.5 -72.5t173.5 -12.5l143 8l8 594l5 597h307v-627q0 -453 -8.5 -548t-51.5 -160q-76 -114 -262 -137.5t-431 48.5l-116 35v-659h-335v510zM1252 186q-42 74 -74 134.5t-37 68.5q-2 10 42.5 15
t111.5 5h163l92 -149q131 -206 129.5 -233t-152.5 -27h-173zM368 1726q0 121 7.5 208t15.5 87q7 0 55.5 -43.5t110.5 -105.5l146 -148l-149 -147q-62 -59 -110 -101t-56 -42q-7 0 -13.5 86.5t-6.5 205.5z" />
</svg>
