<?xml version="1.0" standalone="no"?>
<!DOCTYPE svg PUBLIC "-//W3C//DTD SVG 1.1//EN" "http://www.w3.org/Graphics/SVG/1.1/DTD/svg11.dtd" >
<svg xmlns="http://www.w3.org/2000/svg" xmlns:xlink="http://www.w3.org/1999/xlink" version="1.1" width="2048" height="2048" viewBox="-10 0 2058 2048">
   <path fill="currentColor"
d="M1269 956l-409 133l-357 158l-101 28q-19 19 -39 36.5t-42 36.5q-25 19 -45.5 38t-39.5 33q-16 14 -40.5 38.5t-38.5 40.5q-21 27 -37.5 54.5t-22.5 48.5q-13 38 -7.5 77.5t29.5 75.5q33 46 93 91t133 78q36 16 93 35t103 30q79 19 208.5 38t214.5 22h34h17q3 0 15 -23
t26 -53q52 -106 88.5 -203t58.5 -181q11 -52 20.5 -120t15.5 -147q2 -22 2 -80v-86q-2 -41 -6.5 -76.5t-9.5 -68.5q0 -5 -1.5 -9t1.5 -4l8 -3t46 -14zM1176 1010q3 0 8.5 56t7.5 102v14v5q-2 0 -32 -17.5t-58 -33.5q-21 -14 -56.5 -37t-41.5 -29q-2 -2 0.5 -3.5t21.5 -7.5
q33 -10 90 -29.5t60 -19.5zM966 1081q3 0 8.5 3t18.5 11q49 30 105 61t83 42q9 6 7.5 7t-20.5 15q-44 30 -97 58.5t-116 55.5q-13 6 -21 10l-9 4l2 -5q1 -6 4 -14q13 -57 23 -113t10 -105v-26q0 -4 2 -4v0v0zM923 1098q2 0 1 38t-1 51q-6 33 -12.5 65.5t-17.5 68.5
q-3 8 -4 15l-2 7q-2 2 -26 -21l-34 -34q-16 -22 -31 -42t-26 -42q-5 -11 -11 -26l-5 -15q3 -3 86 -35.5t83 -29.5zM721 1177v0l1 4q2 4 5 6q8 22 21.5 48t29.5 45q17 22 36 42.5t35 33.5l10 10q4 4 6 4q0 3 -5 5.5t-44 16.5q-43 16 -92 32.5t-104 35.5q-21 5 -36 11l-15 5
q-3 0 -1.5 -1.5t6.5 -12.5q27 -40 64 -113.5t59 -131.5q5 -11 8 -20.5t3 -11.5l4 -4q1 -2 4 -2q0 -2 2 -2h3zM658 1201q0 3 -9.5 23.5t-19.5 41.5q-22 44 -48 89t-59 97q-8 10 -12 17l-4 7q-3 3 -3 1.5t-5 -9.5q-8 -14 -13.5 -33t-8.5 -38q-5 -19 -4 -46t4 -46q3 -14 4 -17
t10 -8q30 -14 99 -46zM1192 1223v13q0 52 -4 117.5t-12 117.5q-3 8 -4 15l-2 6l-5 -1q-5 -1 -14 -4q-32 -11 -69 -27.5t-72 -35.5q-22 -11 -48 -27l-26 -16l10 -4q9 -4 20 -10q47 -24 89 -50t80 -51q14 -8 31.5 -21.5t23.5 -16.5zM424 1315v3v11q-2 5 -2 15t-3 18
q0 35 5.5 62.5t21.5 62.5q6 11 8 18l3 6l-112 33q-111 33 -158 46q-16 3 -27 7l-11 4q-3 0 -3 -1v-4q6 -35 30.5 -76t59.5 -79q25 -25 48 -42.5t56 -36.5q24 -14 53 -30.5t31 -16.5v0v0zM909 1403l4 2q4 3 12 6q49 30 113 54.5t124 37.5l8 3l-10 5q-30 17 -121.5 55
t-194.5 76q-14 6 -27.5 11.5t-16.5 5.5t-4 1l-1 1l2 -8q3 -8 9 -16q30 -55 57 -116t41 -108q2 -5 4 -8l1 -2v0zM860 1419l-3 4q-2 4 -2 10q-22 49 -48 103t-61 114q-9 14 -15 25l-7 11l-6 -3q-5 -3 -13 -8q-52 -30 -93 -67t-71 -72l-5 -5l27 -9q76 -21 143 -44.5t130 -50.5
q10 -3 17 -5l7 -3v0zM1165 1525v0q0 6 -9.5 44t-17.5 73q-8 30 -16.5 56t-21.5 67q-6 19 -10 31l-4 12h-1h-4q-68 -13 -131 -31t-120 -39q-16 -9 -35 -17l-19 -8l10 -7q11 -7 30 -12q107 -46 203.5 -94t134.5 -69q6 -3 8 -5zM457 1550q3 0 -24.5 38t-68.5 95
q-13 22 -28 42.5t-21 28.5q-8 8 -16 20.5t-14 20.5l-13 22l-14 -11q-11 -11 -28.5 -30t-28.5 -30q-19 -25 -32.5 -51t-19.5 -50q-3 -11 -3 -16.5t3 -5.5q3 -3 54.5 -15t111.5 -26q30 -5 63 -13t46 -11q14 -3 23 -6zM498 1566l11 11q32 35 67.5 65t76.5 52q8 5 12 8l4 3
q0 3 -106 39.5t-171 61.5l-64.5 21.5t-28.5 8.5l-1 -2q-2 -1 -4 -1l-6 -6l8 -10q22 -33 54.5 -74t92.5 -112zM746 1743q0 -3 9.5 1t20.5 10q30 11 57 19t57 16q41 8 91.5 18t82.5 12h8h3q-3 3 -30 12.5t-52 14.5q-40 14 -145 45.5t-203 58.5q-19 5 -33 9l-13 5q-3 0 -9 -2
l-5 -1l4 -7q4 -7 12 -15q33 -41 65.5 -83t60.5 -86q8 -11 13 -19zM691 1743l-16 26q-17 26 -44 72q-13 19 -25.5 38t-17.5 25q-3 8 -10 19t-9 16l-9 16l-5 -2q-8 -3 -51.5 -18t-60.5 -20q-19 -9 -38 -17t-32 -16q-20 -11 -37.5 -22t-17.5 -14l29 -6q28 -7 66 -18
q101 -27 162.5 -45t96.5 -29q8 -2 14 -4zM1075 1833h3q0 3 -27.5 79t-40.5 109q-3 8 -4.5 9.5t-4 1.5t-46 -5.5t-76.5 -11.5q-57 -8 -136 -21.5t-104 -19.5l-8 -2l47 -11q76 -16 118 -27t78 -22q46 -14 91 -31.5t91 -39.5q8 -3 14 -5l5 -3v0zM846 0q-5 0 -69 23t-119 45
q-70 30 -126 57.5t-89 51.5q-13 8 -27 21.5t-16 19.5v5v6l41 38l98 33l237 40l269 47l3 -22h-3l-35 -6l-8 -13q-28 -49 -55 -103.5t-46 -95.5q-14 -30 -26 -64t-20 -61q-3 -14 -4.5 -18t-4.5 -4v0zM841 16v0l1 6q2 5 2 13q5 33 12 64.5t18 66.5q8 25 8 27.5t-8 -0.5
q-25 -5 -113.5 -20t-164.5 -26q-11 -3 -21 -4l-9 -1l41 -22q41 -22 65 -33q33 -16 98.5 -43.5t70.5 -27.5zM541 155l14 3q49 19 151 38t170 25q9 0 14 1l5 1l-5 3q-5 3 -14 8q-32 17 -66 34.5t-59 33.5q-8 6 -13.5 8.5t-8.5 2.5h-4q-4 0 -9 -3h-14l-30 -29q-41 -41 -71 -70
t-43 -42zM530 163l44 55q16 24 32.5 43.5t19.5 24.5q5 3 8 7l3 4q-3 0 -37 -7t-59 -12q-27 -6 -40.5 -10t-29.5 -7l-17 -5v-5q0 -17 19 -38.5t52 -46.5zM901 240q3 0 4 1t4 10q8 16 26 52.5t26 45.5q0 2 -3 2t-35 -5q-79 -14 -109 -19l-30 -6l1 -1q1 -1 4 -1
q25 -14 49.5 -31.5t46.5 -34.5l9 -9q4 -4 7 -4v0zM402 215l-2 7q-3 7 2 18q3 8 11.5 17.5t16.5 17.5l72 70q72 69 83 85q57 66 84.5 135.5t29.5 158.5q0 58 -10.5 111t-38.5 113q-49 106 -151 221.5t-260 246.5l30 -11q16 -11 39.5 -24.5t72.5 -40.5q109 -60 234 -116
t278 -113q109 -41 246.5 -84.5t279 -81.5t276.5 -68t235 -44l30 -5l-5 -8q-19 -27 -32.5 -47.5t-30.5 -39.5q-43 -55 -97.5 -100t-122.5 -83q-90 -52 -208.5 -91.5t-268.5 -69.5q-27 -5 -81.5 -14.5t-106.5 -17.5q-106 -17 -182.5 -29t-152.5 -26q-27 -2 -62.5 -9t-62.5 -12
q-14 -3 -38.5 -10t-43.5 -12q-19 -8 -38 -16.5t-25 -27.5zM481 291l5 2q4 1 9 1q8 3 19 7t25 7q11 2 20.5 5t20.5 6q13 5 24 8l11 3l18 55q17 56 25 83q3 11 5 19l1 9l-1 -3q-2 -3 -5 -8q-27 -49 -69 -95.5t-91 -84.5q-6 -5 -11 -10zM634 335q3 -3 7 -1.5l12 4.5
q38 8 99.5 19t107.5 19q8 3 14 4l5 1l-3 2q-2 1 -5 4q-8 2 -32.5 17t-32.5 21q-28 16 -49.5 35t-40.5 36l-11 11l-6 5l-1 -4q-1 -4 -1 -7q-9 -33 -25 -76.5t-30 -75.5l-5 -10l-3 -4v0v0zM903.5 384q2.5 0 4 8t6.5 27q9 33 13 70t4 72q-3 11 -3 18v9l-3 3l-13 -5
q-25 -9 -63 -19.5t-71 -19.5q-21 -5 -35 -9t-14 -7l22 -22l33 -32q24 -19 70.5 -56t49 -37zM925 387l71 12q71 12 115 20q32 9 69 15.5t40 9.5q2 0 -3.5 2.5t-21.5 11.5q-60 27 -109 53t-95 55q-11 9 -19 14l-8 6v-6v-14q-3 -43 -11.5 -86.5t-24.5 -81.5q0 -3 -1 -7l-2 -4v0
zM1255 452q0 3 -3 16.5t-5 24.5q-8 35 -28.5 83t-48.5 97q-5 8 -9 15l-4 6l-6 -2q-5 -3 -13 -8q-27 -17 -57 -30.5t-66 -29.5q-8 -3 -15 -6l-7 -3q-2 -2 53.5 -39t96.5 -61q33 -19 71 -41t41 -22zM1277 458q2 0 35 8t55 16q54 16 112.5 36.5t99.5 39.5l22 11l-17 3
q-100 22 -187.5 49t-168.5 63q-9 2 -14 4l-5 1l2 -4q3 -4 6 -12q24 -52 39 -105t21 -102v-6v-2v0zM716 586l26 5q25 5 42 11q27 8 68 22l41 13q0 3 -4 7t-13 10q-30 27 -61 54t-67 60l-17 18l-7 7q-3 0 -3 -2v-1q6 -41 6 -88.5t-9 -99.5q0 -6 -1 -11zM1623 586q0 2 -12.5 20
t-20.5 31q-14 22 -38.5 52t-70.5 87q-25 33 -48 63t-34 41q-8 11 -15 20l-7 10l-2 -4l-6 -10q-27 -38 -58.5 -73.5t-66.5 -65.5q-8 -5 -15 -10.5t-9 -8.5q-3 0 -5 -3l-1 -2l31 -14q32 -14 62 -25q51 -21 116.5 -44.5t120.5 -39.5q27 -11 53 -18zM1647 594l6 1q5 1 10 7
q58 33 111 72.5t96 82.5q14 11 36 34t22 26h-10h-23q-98 8 -218 28.5t-240 47.5q-8 3 -13.5 4.5t-7.5 1.5l8 -8l19 -20q71 -68 110.5 -119.5t77.5 -130.5q5 -11 9 -19l4 -8h3v0zM955 665q3 0 27.5 10.5t49.5 21.5q19 11 43.5 24.5t26.5 16.5l-9 4q-10 4 -23 12
q-44 22 -83.5 44t-77.5 44q-11 8 -19 12l-8 4q-3 0 -1.5 -1.5t9.5 -14.5q19 -39 35.5 -82.5t27.5 -86.5q0 -6 1 -7l1 -1v0zM914 670q0 3 -5 24.5t-11 35.5q-8 30 -23 64t-31 61q-3 8 -8.5 16.5t-8.5 13.5l-8 14l-16 -19q-17 -14 -30.5 -23.5t-26.5 -17.5q-9 -3 -13 -6l-4 -2
q0 -3 31.5 -31.5t64.5 -56.5q21 -19 55 -46zM1162 773l14 9q27 16 55.5 38t53.5 41q11 10 31.5 28t25.5 23l3 6l-25 5q-106 30 -194.5 58.5t-183.5 64.5q-11 5 -19 8l-9 3q-2 0 0.5 -3t27.5 -27q62 -55 115.5 -116t93.5 -121zM1097 790l-25 34q-24 34 -43 58
q-22 30 -57.5 75t-65.5 78q-11 13 -19 23l-8 10q-3 0 -3 -3v-8q0 -28 -6.5 -56.5t-20.5 -55.5q-5 -11 -5 -14v-5q5 -3 57 -33t95 -54q30 -17 65.5 -34.5t35.5 -14.5zM705 885l5 3q6 3 11 5q14 8 27.5 16.5t24.5 19.5q3 0 -2.5 4t-13.5 9q-22 17 -52 38.5t-49 38.5
q-19 16 -23 18.5t-2 0.5q14 -25 23.5 -40t17.5 -34q8 -14 15 -31.5t12 -31.5q0 -8 3 -12zM808 967q3 0 4.5 2.5t9.5 10.5q14 22 22 46.5t11 46.5l2 5l-43 17q-57 22 -107.5 42t-86.5 37q-11 5 -25.5 12t-25.5 12q-11 8 -19 11l-9 3l6 -4q5 -4 16 -12q68 -49 128 -103.5
t104 -112.5l9 -9l4 -4v0v0zM762 978q0 2 -20.5 25.5t-39.5 39.5q-44 46 -90 84.5t-101 70.5q-8 6 -13 10l-6 4q-2 0 3.5 -5.5t29.5 -32.5q14 -17 27.5 -32t24.5 -31q11 -11 15 -16.5t17 -13.5q33 -24 91.5 -63.5t61.5 -39.5z" />
</svg>
