<?xml version="1.0" standalone="no"?>
<!DOCTYPE svg PUBLIC "-//W3C//DTD SVG 1.1//EN" "http://www.w3.org/Graphics/SVG/1.1/DTD/svg11.dtd" >
<svg xmlns="http://www.w3.org/2000/svg" xmlns:xlink="http://www.w3.org/1999/xlink" version="1.1" width="2048" height="2048" viewBox="-10 0 2058 2048">
   <path fill="currentColor"
d="M1236 1106q9 -6 18 -13t16 -14q-21 5 -42.5 5t-42.5 -3q-25 3 -3.5 12t54.5 13zM1368 1038q14 -21 25.5 -44t13.5 -48q-2 18 -10 33t-17 31q-48 30 -26.5 0t26.5 -48q-51 64 -30 60.5t18 15.5zM1435 861q2 -45 -6 -39.5t-12 21.5q6 2 9.5 19.5t8.5 -1.5zM1057 25
q14 2 26.5 4.5t10.5 7.5q13 -5 11 -7.5t-48 -4.5zM1091 37h3l-14 2zM1045 1301q-36 -16 -69.5 -42.5t-60.5 -55.5q16 20 32 41t37 37q-35 -12 -74 -62.5t-52 -54.5q59 107 207 171.5t242 25.5q-44 2 -96.5 -1.5t-103.5 -21.5q-18 -12 -38.5 -26.5t-20.5 -21.5q0 2 -1.5 4.5
t-1.5 6.5zM1048 1287v2v1v-3zM1778 733q0 -25 5 -21.5t7 -3.5q-5 -2 -15 -20.5t-17 -52.5q4 -7 12 10t15 19q-4 -27 -10 -49t-6 -42q-20 -46 -18 -24.5t-14 -0.5q-23 -72 1 -52.5t27 -12.5q34 48 53.5 112.5t28.5 96.5q-7 -39 -17 -75.5t-24 -73.5q11 5 0 -41t18 9
q-32 -119 -123.5 -221t-190.5 -153q14 10 24.5 21.5t5.5 13.5q-48 -28 -51.5 -37t-10.5 -20q-39 -16 -51.5 -7t-39.5 7q-74 -39 -107 -47t-102 -34l5 21q-51 -18 -72.5 -6.5t-74.5 6.5q-4 -2 12 -8t32 -8q-48 7 -62 -1t-60 3q12 -9 23.5 -14.5t24.5 -12.5q-38 2 -78.5 13.5
t-24.5 -6.5q-61 27 -157.5 68.5t-158.5 98.5l-2 -16q-30 34 -101 92.5t-78 104.5l-11 2q-14 25 -25.5 52.5t-22.5 55.5q-19 32 -28 25t-7 -2q-39 80 -60.5 145t-37.5 120q11 16 6.5 90.5t-2.5 145.5q-9 174 47.5 341.5t157 306t233.5 238t277 138.5q44 16 102.5 18.5
t110.5 2.5q-64 -16 -90.5 -17t-87.5 -24q-44 -21 -63.5 -45t-51.5 -51l18 29q-62 -20 -64 -30.5t-53 -26.5l19 -23q-21 -2 -47.5 -26t-35.5 -43h-29q-26 -32 -39.5 -56t-13.5 -42l-9 18q-7 -13 -61 -84.5t-6 -45.5q-9 -7 -20.5 -15t-22.5 -31l11 -16q-20 -28 -36 -59
t-16 -44q11 16 20 21.5t18 8.5q-57 -140 -75 -97.5t-62 -90.5l14 -3q-7 -9 -13 -20.5t-10 -22.5l4 -53q-39 -46 -25 -168.5t19 -207.5q4 -32 28 -70.5t47 -96.5l-18 -4q25 -46 122.5 -144.5t154.5 -91.5q28 -35 9.5 -19t-25.5 7q62 -62 91.5 -62t71.5 -11q43 -28 -0.5 -10.5
t-22.5 -3.5q75 -20 90 -41t116 -32q9 7 -14 11.5t-32 11.5q64 -32 182 -25.5t210 48.5q103 48 199 175t101 262l7 3q-3 55 0.5 114.5t-14.5 116.5l16 -37q2 41 -8 67.5t-24 63.5l-27 14q-19 34 -11 36.5t-6 29.5q-27 25 -73 65t-64 45q-14 0 -1.5 -11.5t17.5 -16.5
q-39 26 -49.5 42t-67.5 30l-2 -5q-71 34 -151 20.5t-146.5 -60.5t-110 -122.5t-41.5 -165.5q-2 12 -4.5 13t-7.5 6q-6 -94 41 -177.5t131 -122.5q83 -42 171 -28t148 69q-32 -41 -94 -78t-140 -34q-73 2 -137.5 43t-86.5 92q-39 25 -52 77.5t-29 64.5q-23 167 35.5 256.5
t168.5 173.5q9 7 11.5 10.5t0.5 5.5v0q130 49 260.5 35t243.5 -106q27 -22 54.5 -51t36.5 -29q-13 21 -6.5 20t-4.5 17q30 -46 14 -46t27 -59l21 27q-7 -39 26 -86t29 -106q11 -19 12 10t-12 72q18 -48 13.5 -67.5t-0.5 -58.5q5 14 10.5 27.5t10.5 27.5q-14 -46 1 -78
t22 -59q-7 -3 -16 3t-12 -47zM809 1152q19 23 34 46t35 41q-16 -29 -28.5 -48.5t-35.5 -61.5zM867 1127q-7 -9 -14 -20.5t-11 -22.5q4 20 14.5 37.5t21.5 35.5zM1737 1125q25 -46 41.5 -97.5t22.5 -104.5l-4 14q-7 48 -22 96t-38 92zM1144 0q-23 2 -47 3.5t-47 3.5l14 2
q16 -7 39 -5.5t41 -3.5zM267 474q18 -39 5.5 -31t-15.5 -3q3 36 -11 46.5t21 -12.5zM221 593q-23 30 -19.5 41.5t0.5 29.5q10 -23 12 -40t7 -31z" />
</svg>
