<?xml version="1.0" standalone="no"?>
<!DOCTYPE svg PUBLIC "-//W3C//DTD SVG 1.1//EN" "http://www.w3.org/Graphics/SVG/1.1/DTD/svg11.dtd" >
<svg xmlns="http://www.w3.org/2000/svg" xmlns:xlink="http://www.w3.org/1999/xlink" version="1.1" width="2048" height="2048" viewBox="-10 0 2068 2048">
   <path fill="currentColor"
d="M605 518h317v1017h-121v172h472v-192h-147v-1011h336v147h153v-302h-1184v302h174v-133zM1987 2h-1924q-24 0 -43.5 17t-19.5 42v1924q0 24 19.5 42.5t43.5 18.5h1924q27 0 44 -18.5t17 -42.5v-1924q0 -25 -17 -42t-44 -17zM1714 750h-351v-147h-138v813h148v390h-669
v-370h119v-819h-119v133h-372v-501h1382v501z" />
</svg>
