<?xml version="1.0" standalone="no"?>
<!DOCTYPE svg PUBLIC "-//W3C//DTD SVG 1.1//EN" "http://www.w3.org/Graphics/SVG/1.1/DTD/svg11.dtd" >
<svg xmlns="http://www.w3.org/2000/svg" xmlns:xlink="http://www.w3.org/1999/xlink" version="1.1" width="2048" height="2048" viewBox="-10 0 2068 2048">
   <path fill="currentColor"
d="M511 655q2 -2 4 -3t5 -1q-3 0 -5 1t-4 3zM89 1432h8h31h32h24h2h2h4h3v0h2h2v0q124 -6 187.5 -65.5t91.5 -150.5q24 -72 42.5 -132.5t33.5 -110.5v0q0 -2 1 -2h1q39 -56 78 -102.5t76 -83.5v0q28 84 51 192.5t55.5 204.5t82 163.5t129.5 67.5h13q7 0 13 -3q-6 3 -13 3
h-13h171q-8 0 -17 -1.5t-17 -3.5q-5 0 -10 -1t-10 -3q5 2 10 3t10 1q8 2 17 3.5t17 1.5q24 0 44.5 -2.5t38.5 -8.5q-18 6 -38.5 8.5t-44.5 2.5h169v0h1h4v0v0h62q-6 0 -11.5 -1.5t-9.5 -3.5v0q4 2 9 2h12q63 0 127 -54t137.5 -156.5t159 -250t189.5 -333.5h-108v4h-22
q-76 137 -132 252.5t-102 208.5q46 -93 102 -208.5t132 -252.5h-149h-5h-4h-4h-5q-4 0 -7 -1t-8 1v-1v-1q-121 9 -184 66t-91 148q-49 158 -81.5 264.5t-63.5 171.5v0v0q-13 13 -27 24.5t-27 22.5q-6 7 -14 12.5t-14 9.5q6 6 11.5 12.5t12.5 13.5q11 8 20.5 17t22.5 13v0
q-13 -4 -22.5 -13t-20.5 -17q-7 -7 -12.5 -13.5t-11.5 -12.5v0q6 -4 14 -9.5t14 -12.5q-39 -86 -67 -217t-71 -244q43 113 71 244t67 217q13 -11 27 -22.5t27 -24.5q-28 -85 -50.5 -194.5t-55 -206.5t-82.5 -164.5t-130 -67.5q-13 0 -24 1.5t-24 3.5q13 -2 24 -3.5t24 -1.5
l-87 -2q11 0 21 2.5t18 2.5v0q-8 0 -18 -2.5t-21 -2.5h-1h-1h1h1h-342h-4h-2q-72 0 -152 62t-156.5 169t-144 253t-110.5 315h6h16v0h40h27zM1728 635v0q-42 13 -73 35t-55 52q24 -30 55 -52t73 -35zM1466 1387l-1 1l-2 1h-1h-1v0h1q1 0 4 -2zM1442 1397h1h1h-1h-1h-2h2v0z
M1440 1397v0v0v0zM1422 1404h1h4v-1q0 -1 2 -1h2h2v-1v-1h3h1h3v0h-4h-3v2h-2h-2q-2 0 -2 1v1h-2h-3v0v0zM520 651v0v0q-5 0 -7 1t-4 3h2q-2 0 -4.5 1t-4.5 1q-2 2 -3 2h-3zM552 640v0q-4 0 -6.5 1t-4.5 1v0q0 2 -1 2h-1l1 -1l1 -1v0q2 0 4.5 -1t6.5 -1v0q0 -2 1 -2h1l-1 1z
M556 638v1q0 1 -2 1q2 0 2 -1v-1h1h2h-2h-1zM589 638h-1h-3v0h3h1h1h1h-1h-1zM593 635h-5h-6v1q0 2 3 2q-3 0 -3 -1.5t-2 -1.5h1h1v0h-2v0h-3h-3v0l-2 3h-3v0h-2v0h-2h2v0h2v0q3 0 3 -1.5t2 -1.5v0h3h3v0h8h5zM606 640q-4 0 -6 -1t-5 -1v0v0q3 0 5 1t4 1h2v0v0zM673 694v0
q-8 -13 -16 -23t-16 -18v2q8 6 17 17t15 22v0zM862 640q10 -2 19 -3.5t20 -1.5q-11 0 -20 1.5t-19 3.5zM740 757v0v0v0zM901 653q-16 6 -31 12.5t-30 15.5q15 -9 30 -15.5t31 -12.5q8 -2 19 -5.5t20 -5.5q-9 2 -20 5.5t-19 5.5zM950 640v0v0zM1100 1402q6 -2 12.5 -3.5
t13.5 -3.5v0q-7 2 -13.5 3.5t-12.5 3.5zM1310 1389v0v0v0zM1353 1410q-13 -2 -27 -5t-25 -12q11 9 25 12t27 5q2 0 4.5 1.5t4.5 1.5q-2 0 -4.5 -1.5t-4.5 -1.5zM1353 1352v0q9 13 17.5 25t19.5 18q-11 -6 -19.5 -17t-17.5 -26zM1383 1413h-1h-1v0h1h1h1h2v0h-2h-1z
M1396 1410h-1h-3v0v0q-2 0 -2 1.5t-2 1.5v0q2 0 2 -1.5t2 -1.5v0h3h1v0v0z" />
</svg>
