<?xml version="1.0" standalone="no"?>
<!DOCTYPE svg PUBLIC "-//W3C//DTD SVG 1.1//EN" "http://www.w3.org/Graphics/SVG/1.1/DTD/svg11.dtd" >
<svg xmlns="http://www.w3.org/2000/svg" xmlns:xlink="http://www.w3.org/1999/xlink" version="1.1" width="2048" height="2048" viewBox="-10 0 2058 2048">
   <path fill="currentColor"
d="M1449 773q-4 -2 -7 -3t-5 -3q4 12 6 22.5t2 18.5q2 -8 3 -15.5t1 -15.5q0 10 -1 19.5t-3 17.5v-3v-3q-4 10 -8 21.5t-10 19.5q2 0 3 -1t1 -3q-35 60 -115 68.5t-127 -51.5q-77 -99 -35.5 -204.5t51.5 -211.5q15 -132 -55.5 -251t-171.5 -195q56 91 6.5 197.5
t-109.5 174.5q-58 64 -124 121t-130 117q-69 64 -134 132t-121 143q-55 74 -98.5 157.5t-68.5 172.5t-28 182t22 186q25 95 76.5 170.5t120.5 134.5t154 99t176 61q-93 -41 -165.5 -132t-72.5 -195q0 -113 62 -206t151 -155q-10 39 -11 76t25 75q23 33 63.5 48.5t81.5 4.5
q95 -20 104.5 -103t-48.5 -145q-56 -60 -97.5 -130t-20.5 -157q10 -45 36 -84.5t61 -68.5q-27 68 27 131t101 97q87 57 176 109t167 120q83 72 136 168t40 210q-14 124 -100 209t-195 128q115 -27 229 -84t202.5 -139.5t144.5 -191t60 -236.5q2 -105 -31 -199t-92 -172.5
t-137.5 -142t-167.5 -110.5z" />
</svg>
