<?xml version="1.0" standalone="no"?>
<!DOCTYPE svg PUBLIC "-//W3C//DTD SVG 1.1//EN" "http://www.w3.org/Graphics/SVG/1.1/DTD/svg11.dtd" >
<svg xmlns="http://www.w3.org/2000/svg" xmlns:xlink="http://www.w3.org/1999/xlink" version="1.1" width="2048" height="2048" viewBox="-10 0 2068 2048">
   <path fill="currentColor"
d="M0 0v2048h2048v-2048h-2048zM1069 1752q-23 47 -63.5 76.5t-91.5 43.5q-76 19 -147.5 9.5t-124.5 -41.5q-37 -23 -65.5 -56.5t-49.5 -72.5q39 -25 78 -48.5t78 -47.5q2 0 5 5t7 13q14 25 29.5 42t39.5 30q27 10 71 7t64 -46q13 -23 13 -88v-143v-247v-250h192v265v262
q0 82 -1 154.5t-34 132.5zM1864 1698q-27 84 -100.5 130t-163.5 54.5t-178.5 -17t-144.5 -83.5q-24 -26 -39.5 -44.5t-29.5 -49.5q59 -34 78.5 -45.5t76.5 -44.5q31 47 64.5 75t84.5 38q72 10 128 -17.5t40 -103.5q-16 -61 -118.5 -91.5t-190.5 -96.5q-87 -59 -103.5 -178.5
t54.5 -203.5q25 -29 64 -51.5t82 -32.5q14 -2 29 -4t32 -4q86 -2 143 20.5t98 67.5q10 10 21.5 24.5t27.5 40.5q-47 29 -65.5 41t-83.5 55q-14 -30 -36.5 -49.5t-47.5 -27.5q-39 -11 -80 2.5t-51 52.5q-2 14 -1 27.5t5 33.5q17 35 62 55.5t92 40.5q135 55 190 115.5
t67 129.5q10 62 3 98.5t-9 42.5z" />
</svg>
