<?xml version="1.0" standalone="no"?>
<!DOCTYPE svg PUBLIC "-//W3C//DTD SVG 1.1//EN" "http://www.w3.org/Graphics/SVG/1.1/DTD/svg11.dtd" >
<svg xmlns="http://www.w3.org/2000/svg" xmlns:xlink="http://www.w3.org/1999/xlink" version="1.1" width="2048" height="2048" viewBox="-10 0 2058 2048">
   <path fill="currentColor"
d="M1728 0q-88 4 -177.5 55t-155 132.5t-94 182.5t8.5 203q38 102 69 192t54.5 179.5t37.5 184.5t20 209q92 -94 177.5 -190.5t153 -200t110.5 -212.5t49 -225q4 -190 -72.5 -323.5t-180.5 -186.5zM1114 1122q-25 47 -60.5 98t-78.5 106q-49 61 -93 137.5t-76.5 169.5
t-45.5 197t1 218q194 -20 325.5 -95.5t211 -174.5t116 -204t43.5 -185q-74 -112 -183 -179.5t-160 -87.5zM69 190q-8 87 11.5 193.5t75.5 205t155 180.5t254 124q131 39 230 67.5t196 63.5q145 53 260.5 125.5t205.5 188.5q-9 -100 -33.5 -205t-63 -209t-91.5 -204
t-118 -190q-94 -126 -218.5 -218t-266.5 -139t-295 -44.5t-302 61.5z" />
</svg>
