<?xml version="1.0" standalone="no"?>
<!DOCTYPE svg PUBLIC "-//W3C//DTD SVG 1.1//EN" "http://www.w3.org/Graphics/SVG/1.1/DTD/svg11.dtd" >
<svg xmlns="http://www.w3.org/2000/svg" xmlns:xlink="http://www.w3.org/1999/xlink" version="1.1" width="2048" height="2048" viewBox="-10 0 2058 2048">
   <path fill="currentColor"
d="M1052 1985q29 -14 47.5 -31.5t18.5 -30.5q0 -6 52.5 -57.5t61.5 -56.5q2 0 10.5 2.5t17.5 6.5l24 9l-46 28q-17 11 -32.5 20t-17.5 9zM1245 1877l41 -22q66 -30 204 -78.5t204 -61.5q30 -4 26 -7.5t-37 1.5q-16 2 -30 4t-16 4q-13 5 4.5 -11.5t45.5 -36.5
q15 -11 24 -17.5t5 -6.5q-24 0 -171 58t-184 84q-15 9 -18.5 7t-3.5 -22q0 -17 6.5 -24t37.5 -24q26 -13 142 -65.5t121 -52.5q2 0 -2.5 8.5t-11.5 21.5l-17 31l46 -46q20 -17 34 -31.5t16 -14.5q0 -2 -9.5 -1t-25.5 3q-13 5 -24 6t-13 -1q-4 -7 3.5 -47.5t18.5 -60.5
q4 -11 10.5 -34t11.5 -44q13 -82 29.5 -147.5t35.5 -111.5q40 -94 48.5 -123.5t2.5 -58.5q-2 -11 -3.5 -26t-1.5 -22q3 -9 1.5 -18.5t-3.5 -16.5q-2 -9 -2 -15.5t4 -10.5q3 -4 -0.5 -13t-18.5 -27q-11 -13 -19 -22l-8 -10q3 -3 10.5 -6t16.5 -5l22 -11l6 -86q2 -37 4 -62
l1 -25l-19 5q-19 6 -43 14q-26 9 -45.5 14.5t-24.5 5.5q-6 0 -15 -17.5t-29 -74.5q-13 -37 -16 -54.5t-1 -39.5q2 -33 -6.5 -95.5t-24.5 -105.5q-19 -57 -65 -136t-64 -88q-17 -8 -29.5 -6t-16.5 13q-6 11 -4 23t26 62l22 53l-40 -31q-65 -50 -124 -82t-94 -36
q-25 -4 -29 -2t-11 17q-2 9 -7.5 14.5t-9.5 7.5q-7 2 -10.5 7.5t-3.5 18.5q0 18 10 31t56 55l44 44q17 17 15 19q-2 0 -17.5 -9.5t-34.5 -23.5q-31 -19 -45 -25.5t-32 -9.5q-39 0 -39 23t41 54q13 9 38.5 31t44.5 44l49 50l-44 6q-53 11 -76 19t-27 16q-11 20 1 30t67 27
q28 9 53.5 20t31.5 15q18 18 54 40t62 28q16 7 26.5 13.5t13.5 13.5q4 6 9.5 11.5t12.5 9.5q6 3 12.5 12.5t13.5 29.5q2 13 4 25t2 15q-2 0 -18.5 5t-38.5 14l-54 16l46 83q30 57 40 69t23 10q16 0 16 3t-14 25l-13 22l13 28q9 14 11.5 23.5t-0.5 16.5q-2 9 -5 6.5
t-14 -22.5q-11 -28 -39.5 -64t-48.5 -54q-35 -28 -58 -36t-69 -10h-57l-28 -28q-13 -13 -32 -26.5t-34 -21.5q-26 -11 -42.5 -14.5t-73.5 -3.5h-79l-59 33q-57 28 -113 83t-93 118q-13 22 -23 36.5t-10 12.5q-2 -3 -3 -11.5t-3 -19.5q-5 -20 -2.5 -24.5t15.5 -4.5
q15 -2 19.5 -9.5t13.5 -49.5q6 -24 11.5 -44.5t7.5 -25.5q3 -8 -5 -12.5t-49 -15.5q-31 -7 -43 -12.5t-12 -11.5q0 -16 10 -47.5t16 -40.5q5 -4 8 -10.5t3 -11.5q2 -6 11 -14t22 -14q33 -20 45 -35.5t47 -80.5q24 -51 41.5 -77t46.5 -55q17 -19 31.5 -35.5t14.5 -18.5
q0 -9 -14.5 -24.5t-20.5 -15.5q-16 0 -0.5 -12t78.5 -54q86 -52 100 -64t8 -19q-7 -4 -42 15.5t-123 74.5q-63 42 -110 69l-47 27q-2 0 -6.5 -12t-11.5 -27l-13 -42l44 -41q35 -33 43.5 -48.5t0.5 -26.5q-5 -4 -17 -0.5t-49 20.5q-24 11 -56 24t-53 20q-38 11 -46.5 12
t-17.5 -6q-20 -17 -39.5 -0.5t-69.5 92.5q-9 16 -18 25.5t-11 9.5t-12 -15t-23 -39q-13 -22 -26 -43t-18 -25q-13 -16 -24 -14.5t-13 14.5q-7 19 13 97t53 183q11 33 12 39.5t-8 10.5q-6 5 -7.5 9.5t3.5 17.5q4 11 8.5 14t11 1t12 5.5t16.5 31.5q13 31 14 41t-5 36
q-5 15 -8 27l-3 12l-10 -2t-25 -6q-42 -11 -48.5 -3.5t-13.5 77.5q-4 35 -5 62.5t-1 32t6.5 8.5t21.5 6l29 3l-5 39q-2 22 -1 32t8 16q6 9 9.5 76t5.5 250v90l24 7q22 9 34 18.5t12 22.5q0 5 6.5 13.5t20.5 17.5q11 9 47 35t75 55q68 50 81 62t9 23t-3 16.5t14 16.5
q11 13 12 16.5t-6 5.5q-4 0 -17 -1t-26 -6q-33 -6 -111 -9.5t-78 1.5q0 2 21 14t47 25q29 13 45.5 19.5t9.5 2.5q-4 -4 -15 -14t-22 -17l-24 -22l35 5q52 6 170.5 39t129.5 44q6 7 0.5 8t-33.5 -4q-88 -6 -138 -7t-110 5q-37 2 -64.5 5.5t-31.5 5.5q-6 5 54 9t134 4
q60 0 138.5 12t210.5 43l46 9l-9 24q-13 26 -29.5 79.5t-12.5 60.5zM1284 55q66 36 106.5 68.5t40.5 48.5q0 10 2 13.5t9 3.5q4 0 12 2t12 5q7 4 9 3t2 -6q0 -8 -10 -37.5t-27 -71.5q-16 -35 -16 -50.5t16 -15.5q11 0 22 14.5t39 62.5q29 50 47.5 91.5t31.5 83.5
q11 39 15.5 98.5t-2.5 78.5q-4 11 -4 20t6 24q16 37 34.5 84.5t18.5 51.5t-66 26t-79 22q-2 0 -5.5 -4.5t-5.5 -10.5q-11 -35 -20.5 -58t-16.5 -23q-2 0 -7.5 -5.5t-9.5 -12.5q-9 -17 -21 -23.5t-45 -13.5q-18 -4 -41 -15t-51 -31q-33 -22 -54 -30.5t-45 -13.5
q-17 -2 -31.5 -6.5t-18.5 -6.5q-11 -4 -11 -14t11 -17q9 -4 77 -10.5t83 -2.5q9 0 18.5 -3t22.5 -12q22 -15 20 -19.5t-24 6.5q-22 13 -35 8.5t-33 -26.5q-9 -11 -35 -36t-52 -49q-49 -42 -59.5 -58t2.5 -21q6 -4 27 7t71 43q22 14 48.5 30t41.5 23q26 15 30.5 16.5
t-4.5 -9.5q-24 -31 -76.5 -88t-72.5 -77q-24 -21 -29.5 -37.5t7.5 -21.5q11 -4 39.5 13.5t103.5 74.5q44 33 59 42.5t0 -5.5q-26 -24 -75.5 -62.5t-80.5 -55.5q-8 -5 -14.5 -12.5t-6.5 -13.5q-3 -18 21.5 -13.5t78.5 34.5zM711 154q0 9 -12 22t-39 35q-22 17 -37 31l-15 13
q0 2 4 2h11q7 -2 12.5 4.5t11.5 26.5q11 32 11 45.5t-15 17.5q-11 2 -19 -2.5t-23 -17.5q-20 -22 -22 -36t13 -27q9 -5 7 -5t-18 7l-24 11l-17 -22q-9 -9 -13.5 -18.5t-4.5 -12.5q0 -4 16.5 -12.5t38.5 -19.5q22 -9 46 -21t37 -19q27 -15 39 -16t12 14zM503 228q4 9 23.5 30
t39.5 43q37 37 45 52.5t-5 21.5q-20 7 -44 -2t-55 -37q-11 -9 -19 -14l-7 -6q-2 2 -4.5 8.5t-4.5 15.5v15q0 3 4 -4q3 -4 7 -7.5t6 -3.5q9 0 38.5 22t29.5 28q0 7 -96 64t-114 61q-9 2 -42.5 -105t-44.5 -166q-3 -16 -1.5 -20t9.5 -4q11 0 27.5 24t45.5 83q13 24 21 40l9 17
v-4v-14q-2 -8 8 -28t34 -59q39 -59 54.5 -69t35.5 18zM816 318q0 11 -4.5 20t-22.5 26q-21 24 -54 71t-51 82q-13 27 -37 52t-46 36q-13 7 -18.5 14.5t-7.5 22.5q-2 11 -6.5 20l-6.5 13q-5 2 -10.5 16.5t-9.5 29.5q-4 18 -9.5 31t-10.5 15q-2 0 -25 -3t-54 -10l-70 -20
l5 -22q2 -11 5.5 -24t7.5 -22q7 -13 5.5 -22.5t-18.5 -42.5q-11 -24 -15.5 -38.5t-2.5 -18.5q7 -9 119.5 -78t121.5 -69q7 0 15.5 -4.5t17.5 -10.5q22 -20 86.5 -51.5t77.5 -31.5q9 0 12.5 4t5.5 15zM1784 682q-3 24 -5 42.5t-4 20.5q-5 5 -150.5 55t-154.5 50
q-8 0 -39 -53.5t-26 -62.5q0 -2 54.5 -19.5t120.5 -37t125 -36t68 -16.5q11 0 12 6.5t-1 50.5zM470 774q65 15 114.5 29t51.5 17q5 4 -4 42.5t-16 51.5q-2 2 -41.5 -1.5t-131.5 -16.5q-67 -8 -117.5 -16t-50.5 -10q-2 -2 -1 -23t3 -49q4 -44 7.5 -56t10.5 -12q6 0 56.5 13
t118.5 31zM1076 758q44 20 68 45t35 56q9 31 9 68t-9 44q-4 4 -5 11.5t1 18.5q4 38 -20 78.5t-72 72.5q-59 40 -100.5 52t-168.5 25q-99 9 -128.5 17.5t-47.5 32.5q-4 7 -10.5 12.5t-11.5 5.5q-8 0 -7 -16.5t10 -31.5q15 -26 45.5 -39.5t113.5 -32.5q90 -20 134 -34.5
t85 -38.5q29 -15 44.5 -29.5t15.5 -27.5q0 -4 -8 -0.5t-23 11.5q-39 29 -95 45.5t-157 27.5q-57 8 -102 20t-71 30q-20 13 -32 15t-12 -6q0 -3 11 -21.5t27 -42.5q46 -72 117 -129t143 -81q50 -15 124.5 -16.5t107.5 14.5q9 4 16.5 6.5t5.5 -0.5q-4 -8 -44.5 -21.5
t-71.5 -15.5q-77 -4 -165.5 27.5t-140.5 84.5q-16 17 -35.5 30.5t-28.5 13.5q-7 0 7.5 -25.5t45.5 -73.5q57 -83 113.5 -130t122.5 -63q61 -15 89.5 -14t74.5 25zM1748 802q16 15 20.5 24t1.5 20q0 9 1.5 16.5t3.5 9.5q2 5 3 13.5t-1 19.5q-2 18 -8.5 19t-48.5 -8
q-9 -2 -4.5 2.5t24.5 14.5q26 16 31.5 22.5t7.5 26.5q2 17 -12 56.5t-47 107.5q-7 15 -11 30.5t-4 21.5q0 7 -2.5 12.5t-4.5 7.5q-6 2 -16 40.5t-19 97.5q-4 33 -10.5 60.5t-17.5 49.5q-9 19 -14.5 42t-7.5 45q-2 31 -6.5 41t-13.5 18q-20 13 -125 57t-114 44
q-6 -2 -12.5 -12t-13.5 -30q-17 -39 -18.5 -64t9.5 -49q5 -9 11.5 -24.5t8.5 -26.5q4 -11 8.5 -20.5t9.5 -9.5q2 -3 8.5 -9.5t12.5 -15.5q5 -11 11.5 -16t8.5 -5q5 0 9 13t6 37q5 20 9.5 40.5t8.5 29.5q7 15 8 12t1 -38q2 -48 6.5 -73.5t12.5 -27.5q7 0 9 6.5t5 26.5
q2 13 5 29.5t8 25.5q6 15 7 9.5t-1 -51.5q-2 -26 0 -57t5 -50q6 -42 16 -45.5t43 25.5q13 9 20.5 15.5t7.5 4.5q0 -9 -24 -41t-41 -45q-31 -22 -28 -29.5t45 -7.5q20 0 39.5 2t28.5 5l22 6l-24 -22q-11 -8 -27.5 -18t-27.5 -15l-28 -8l-14 -62q-13 -52 -14 -69.5t10 -46.5
q7 -19 5.5 -27t-9.5 -21q-11 -20 -11 -34t11 -32q4 -6 6 -15t2 -15q-2 -5 1.5 -9t9.5 -9q22 -11 107.5 -42.5t92.5 -31.5q2 0 12 7.5t20 18.5zM1293 842q22 6 36 15t34 28q13 13 26.5 30.5t19.5 28.5l11 25l-13 -3q-7 -2 -20 -7.5t-26 -11.5q-20 -11 -37.5 -14.5t-56.5 -5.5
l-64 -4l-2 -40q0 -22 1 -33t6 -13q11 -6 34 -5t51 10zM457 914q41 6 72 11.5t33 10.5q4 2 9.5 26t12.5 55q8 50 8 64.5t-6 20.5q-13 15 -48 101.5t-35 106.5q0 4 7.5 -6.5t18.5 -28.5q11 -17 22 -30.5t17 -15.5q7 -2 8 2.5t-1 23.5q-5 35 5 81t28 68q8 11 15 19l7 8v-6v-14
q-3 -15 5 -18.5t19 9.5q2 4 15 13t26 16q29 17 35.5 35.5t2.5 77.5l-3 49l20 -22q7 -11 14.5 -21t11.5 -17q5 -6 10.5 -7t13.5 1q14 4 46.5 32.5t32.5 37.5q0 2 -3 11t-8 17q-8 14 -9.5 26t1.5 31q2 24 -0.5 32t-13.5 21q-6 6 -11.5 13t-5.5 9t-3.5 4t-7.5 2
q-13 0 -76.5 -17.5t-63.5 -21.5q0 -2 -3.5 -10t-5.5 -16q-4 -9 -6.5 -21t-2.5 -21q2 -13 -8.5 -25t-70.5 -56q-35 -26 -70 -50t-50 -35q-28 -20 -44.5 -42t-14.5 -39q2 -9 0 -11t-9 -2q-6 2 -15 0.5t-18 -5.5l-17 -6l4 -44q7 -81 8 -126t-3 -122q-5 -52 -9.5 -81.5
t-8.5 -36.5q-9 -15 -2.5 -44.5t17.5 -29.5q5 0 36.5 4t71.5 9zM1319 942q31 9 72.5 34t50.5 41q15 22 9.5 30.5t-24.5 -2.5q-7 -4 -3.5 2.5t16.5 19.5q19 22 33.5 49.5t18.5 49.5q0 8 -2 12.5t-15 4.5q-7 0 -29 -4.5t-43 -10.5q-33 -11 -65 -28.5t-71 -50.5q-5 -4 -7 -4h-2
q0 2 13 15t33 31q31 26 47 34.5t43 15.5q26 4 79.5 13t64.5 9l1 2q1 2 1 7q0 8 -88.5 12.5t-112.5 -1.5q-48 -14 -91 -40t-60 -55q-7 -8 -10 -21.5t-3 -28.5q0 -31 5.5 -42t16.5 -6q4 0 5 -4.5t-1 -19.5v-28q0 -14 2 -23l5 -22h39q15 0 37 2.5t35 6.5zM1197 1159
q24 35 99.5 83t106.5 48q6 0 15 4.5t13 9.5q7 8 8 14.5t-4 17.5q-4 16 -4 17t7 -8q4 -4 7.5 -13t5.5 -18q2 -8 6.5 -12.5t10.5 -4.5q16 0 17 12t-10 38q-11 24 -25.5 37.5t-29.5 13.5q-11 0 -16.5 4t-11.5 15q-16 29 -36.5 48.5t-44.5 32.5q-22 9 -23.5 11.5t16.5 -2.5
q20 -2 22 3.5t-11 40.5q-29 77 -90 115t-157 45q-38 2 -50 0t-36 -16q-17 -10 -28 -22.5t-22 -29.5q-16 -26 -60.5 -71t-79.5 -67l-21 -21t-17 -23q-8 -15 -14.5 -20.5t-20.5 -7.5q-19 -5 -34.5 -21.5t-31 -51.5t-12 -50t29.5 -31q31 -21 67 -30t106 -13q66 -7 108.5 -15.5
t69.5 -22.5q10 -4 22.5 -9.5t20.5 -7.5q13 -2 14.5 -1t-5.5 10q-2 4 -9.5 10.5t-14.5 13.5l-15 13l24 -4q24 -7 50 -25.5t40 -40.5q6 -9 12.5 -15.5t11.5 -6.5q2 0 8.5 7.5t15.5 16.5zM921 1647q6 13 21.5 27.5t28.5 25.5q29 17 26.5 24t-39.5 11q-44 6 -34 10.5t56 2.5
q31 -2 44 -2t13 4q0 2 -2.5 4.5t-4.5 2.5q-11 0 -62.5 27.5t-64.5 37.5q-17 18 -29 13.5t-12 -28.5q0 -9 -2.5 -21t-6.5 -18q-4 -11 -2 -17.5t11 -19.5q6 -11 10.5 -23.5t4.5 -25.5q0 -22 6.5 -42.5t13.5 -20.5q2 0 8.5 8.5t15.5 19.5zM1315 1678q9 22 10 30.5t-3 13.5
q-5 6 -6 15t1 22q2 20 0 25.5t-13 11.5q-9 5 -16.5 3.5t-25.5 -7.5q-11 -7 -31.5 -14.5t-38.5 -14.5q-30 -11 -39 -17.5t13 -6.5q7 0 26.5 4.5t41.5 11.5q20 6 36 9.5t19 3.5q8 -11 -24.5 -26.5t-61.5 -15.5q-17 0 -14 -6.5t21 -13.5q11 -2 25 -14t27 -25q11 -15 22 -23
l11 -8q2 3 7.5 15t12.5 27zM1166 1779q13 6 24 11.5t11 7.5l-13 12q-13 12 -31 26l-46 37l-54 -26q-22 -11 -44 -20t-29 -11q-11 -2 -13 -4.5t5 -4.5q19 -11 56.5 -23t61.5 -14q13 -2 24 -3t11 -4l11 5q11 4 26 11zM1026 1277l-18 22l-65 -6q-73 -9 -96 -8t-33 14l-14 13
l22 -4q29 -4 99 6.5t81 19.5q13 13 15 55t-6 52q-9 7 -6 12.5t23 20.5q11 11 22 16.5t15 5.5q7 -4 33 -38t22 -34q-2 0 -11 7.5t-17 16.5q-11 11 -21 18.5t-12 7.5q-13 0 -18.5 -16.5t-5.5 -46.5q0 -20 -3.5 -36.5t-9.5 -27.5q-9 -17 -8 -22.5t12 -20.5q11 -16 18.5 -33.5
t3.5 -17.5l-7 8q-6 8 -15 16zM1065 1282q3 17 13.5 30t32.5 22q7 5 14.5 11.5t12.5 14.5q2 9 10.5 14.5t26.5 10.5q44 11 58 12t23 -10q4 -7 9.5 -10t7.5 -3q5 0 8 -3.5t3 -7.5q5 -7 2.5 -7t-15.5 9q-17 13 -63 13t-55 -13q-11 -15 -7.5 -19.5t24.5 -0.5q18 2 55 -5.5
t46 -16.5q2 -2 -12 -2h-34q-22 2 -50.5 0t-45.5 -4q-31 -7 -38.5 -11.5t-16.5 -23.5l-11 -24zM803 1354q21 -18 46.5 -13.5t49.5 6.5q17 -2 36 -4t38 -2q3 2 7 5.5t7 3.5q-11 2 -24.5 3t-26.5 3q-13 7 -26 13.5t-31 4.5q-4 -3 -10.5 -7t-11.5 -9q-13 -4 -27 -4h-27z
M1098 1505q16 2 32 0t29 -11q0 4 2.5 8.5t6.5 9.5q-4 0 -8.5 1t-8.5 3q-24 -11 -47 3t-47 14q-9 0 -15.5 -4t-11.5 -11h-18q-10 0 -19 4q-13 9 -28 9h-29q5 -4 9 -9.5t11 -9.5h15h16l6 -7l7 -7q13 -2 27 3.5t23 16.5q13 2 24 -3.5t24 -9.5zM1046 1555q11 0 20.5 -1t20.5 -5
q16 2 29 8.5t24 15.5q-11 0 -20 -2.5t-17 -2.5q-27 -10 -50 2t-45 20q-6 14 -10.5 27t-6.5 28q-2 -4 -5.5 -7.5l-5.5 -5.5q0 -18 3.5 -34t18.5 -27q11 -5 22 -8t22 -8z" />
</svg>
