<?xml version="1.0" standalone="no"?>
<!DOCTYPE svg PUBLIC "-//W3C//DTD SVG 1.1//EN" "http://www.w3.org/Graphics/SVG/1.1/DTD/svg11.dtd" >
<svg xmlns="http://www.w3.org/2000/svg" xmlns:xlink="http://www.w3.org/1999/xlink" version="1.1" width="2048" height="2048" viewBox="-10 0 2058 2048">
   <path fill="currentColor"
d="M909 1004q-12 0 -21.5 9t-9.5 22q0 12 9.5 21.5t21.5 9.5t21.5 -9.5t9.5 -21.5q0 -13 -9.5 -22t-21.5 -9zM1139 1004q-12 0 -21.5 9t-9.5 22q0 12 9.5 21.5t21.5 9.5t21.5 -9.5t9.5 -21.5q0 -13 -9.5 -22t-21.5 -9zM614 1386l-3 -3l-7 -3l-6 -3q-3 0 -6 -1.5t-6 -4.5
q-13 -7 -27 -11.5t-29 -4.5q-16 -3 -31.5 -3t-27.5 3q-16 0 -30 4.5t-23 11.5q-6 3 -11 6t-8 6l-6 6q-3 3 -3 6q-3 3 -3 8v11l1 3q2 3 2 6t1.5 6.5t4.5 6.5q0 3 3 6t3 6l4 3q0 3 1 3h2l6 7q3 6 9 12l13 12q12 13 26 24t30 23q6 3 13.5 8t17.5 11v-3v-7q0 -9 3 -16.5t6 -14.5
q6 -15 14 -27.5t14 -24.5l6 -7l3 -3l6 -6q0 -3 2 -3t2 -3l9 -10q3 -3 6 -4.5t6 -4.5l3 -3q4 0 4 -1.5t3 -1.5l9 -9l6 -4l2 -1q1 -2 4 -2v-3q-3 0 -7.5 -1.5t-7.5 -4.5h-3zM1649 1383q-3 -3 -8 -6t-11 -6q-9 -7 -23 -11.5t-30 -7.5h-28q-15 0 -31 3q-15 0 -29 4.5t-27 11.5
q-3 3 -6 4.5t-6 1.5l-6 3l-7 3l-3 3h-3q-3 3 -7.5 4.5t-7.5 1.5v3q3 0 4 2l2 1l6 4l9 9q3 0 3 1.5t4 1.5l3 3q3 3 6 4.5t6 4.5l9 10q0 3 2 3t2 3l6 6l3 3q3 3 6 7q6 12 14 24.5t14 27.5q3 7 6 14.5t3 16.5v7v3q10 -6 17.5 -11t13.5 -8q16 -12 30 -23t26 -24q7 -6 13 -12
t9 -12l6 -7h2q1 0 1 -3l4 -3q0 -3 3 -6t3 -6q3 -3 4.5 -6.5t1.5 -6.5t2 -6l1 -3v-11q0 -5 -3 -8q0 -3 -3 -6zM1024 0l-957 469v1107l957 472l957 -472v-1107zM1745 1436l-6 12t-6.5 12.5t-6.5 11t-6 10.5q-3 3 -7.5 8t-7.5 11l-4 3l-3 3h-1h-2l-6 10q-9 6 -17 12t-17 12
q-19 13 -36 22.5t-36 18.5q-15 6 -32 14t-33 14h-1h-2v3q0 3 -1.5 3t-1.5 3l-2 3l-1 3l-3 3l-3 7l-2 1l-5 5q-9 12 -23 21.5t-29 15.5q-16 6 -30 8t-30 2q-3 0 -4 -2l-2 -2h-9h-6l-2 -1q-1 -2 -4 -2h-7h-1h-2l-3 -3h-9l-3 -3h-2h-1l-10 -6h-1h-2v0h-3l-3 -3q-3 -3 -6 -3h-3
q-4 -3 -7 -3t-3 -4q-9 -3 -18.5 -6t-18.5 -3q-22 -6 -40 -6h-38q-12 3 -21.5 6t-15.5 6q-9 3 -17 8t-14 11q0 3 -1.5 3t-1.5 3l-3 3l-3 3l-4 4q0 3 -3 7.5t-3 10.5v2v1l-3 6v4v0v6v4v5v6v7q3 3 0 4.5t-6 4.5q-3 0 -4.5 -1.5l-4.5 -4.5q0 -3 -1.5 -6.5t-1.5 -6.5v-6
q0 -3 -4 -6v-6v-4v-3v-6v-1v-5q0 -6 2 -12.5t5 -12.5l3 -3v-3l3 -3l3 -6q0 -4 1.5 -4t1.5 -3t3 -4.5t3 -4.5l3 -3l3 -3l2 -2l2 -1q6 -7 10.5 -10t10.5 -6q10 -6 20.5 -12.5t23.5 -9.5q25 -6 48 -9t48 0q13 0 25 1.5t25 4.5q3 0 6 2l3 1q3 0 6.5 1.5t6.5 1.5h6l3 4v0v0h3l9 3
h4h3h3h3h3h2h1h3h6h2h1q7 0 14.5 -1.5t10.5 -5.5q7 -3 11.5 -7.5t4.5 -7.5q3 -3 4.5 -7.5t-1.5 -8.5q0 -6 -1.5 -10.5t-4.5 -7.5q-3 -6 -8 -12.5t-8 -9.5q-12 -12 -27.5 -21.5t-31.5 -18.5l-3 -4l-15 -3q-4 -3 -8.5 -4.5t-7.5 -4.5l-22 -9l-9 -3h-3l-3 -3l-6 -4
q-7 0 -11.5 -3t-10.5 -6q-34 -15 -98 -37t-126 -22t-126 22t-98 37q-6 3 -10.5 6t-11.5 3l-6 4l-3 3h-3l-9 3l-22 9q-3 3 -7.5 4.5t-8.5 4.5l-15 3l-3 4q-16 9 -31.5 18.5t-27.5 21.5q-3 3 -8 9.5t-8 12.5q-3 3 -4.5 7.5t-1.5 10.5q-3 4 -1.5 8.5t4.5 7.5q0 3 4.5 7.5
t11.5 7.5q3 4 10.5 5.5t14.5 1.5h1h2h6h3h1h2h3h3h3h3h4l12 -3v0v0l3 -4h6q3 0 6.5 -1.5t6.5 -1.5l3 -1q3 -2 6 -2q13 -3 25 -4.5t25 -1.5q25 -3 48 0t48 9q13 3 23.5 9.5t20.5 12.5q6 3 10.5 6t10.5 10l2 1l2 2l3 3l3 3q0 3 3 4.5t3 4.5t1.5 3t1.5 4l3 6l3 3v3l3 3
q3 6 5 12.5t2 12.5v5v1v6v3v4v6q-4 3 -4 6v6q0 3 -1.5 6.5t-1.5 6.5t-3 4.5t-6 1.5q-3 -3 -6 -4.5t0 -4.5v-7v-6v-5v-4v-6v0v-4l-3 -6v-1v-2q0 -6 -3 -10.5t-3 -7.5l-4 -4l-3 -3l-3 -3q0 -3 -1.5 -3t-1.5 -3q-6 -6 -14 -11t-17 -8q-6 -3 -15.5 -6t-21.5 -6h-38q-18 0 -40 6
q-9 0 -18.5 3t-18.5 6q0 4 -3 4t-7 3h-3q-3 0 -6 3l-3 3h-3v0q-3 0 -2 0h2h-3l-10 6h-1h-2l-3 3h-9l-3 3h-2h-1h-7q-3 0 -4 2l-2 1h-6h-9l-2 2q-1 2 -4 2q-16 0 -30 -2t-30 -8q-15 -6 -29 -15.5t-23 -21.5l-5 -5l-2 -1l-3 -7l-3 -3l-1 -3l-2 -3q0 -3 -1.5 -3t-1.5 -3v-3h-2
h-1q-16 -6 -33 -14t-32 -14q-19 -9 -36 -18.5t-36 -22.5q-9 -6 -17 -12t-17 -12l-6 -10h-2h-1l-3 -3l-4 -3q-3 -6 -7 -11l-8 -8q-3 -6 -6 -10.5t-6.5 -11t-6.5 -12.5l-6 -12q-3 -13 -6 -28.5t0 -30.5q3 -16 9 -30t13 -26q9 -10 18.5 -20.5t21.5 -17.5q19 -15 42 -26t45 -14
q3 -3 5 -3h1q-3 -6 -9 -14t-9 -17q-10 -16 -19 -33t-13 -35q-6 -19 -9 -39.5t0 -38.5q3 -19 11 -37.5t17 -34.5q6 -9 12.5 -15t12.5 -13l6 -6q3 0 5 -1l4 -5l7 -3l6 -6h6h6v6v6l-6 6l-6 7l-6 6l-3 6q-7 6 -10 14t-6 14q-6 12 -9 27.5t-3 28.5q3 15 7.5 29t10.5 26.5t14 25
t20 25.5q4 6 10 10.5t9 10.5q3 0 4.5 1.5t1.5 4.5h2h1v0v0v0v0q4 4 7 5.5t6 4.5q12 6 26 10.5t27 7.5q12 7 26 7h27q12 0 24.5 -3.5t24.5 -6.5h3q-3 -3 -4 -3h-5q-9 0 -17 -3t-17 -6q-6 -3 -14 -8t-17 -11q-6 -6 -12.5 -12t-12.5 -12.5t-11 -14t-8 -14.5q-3 -9 -4.5 -16.5
t-4.5 -14t-3 -14t-3 -14.5v-28v-24l3 -7v-6v-5v-1v-6l3 -3v-4v0v0v-6v-9q3 -13 4.5 -22t1.5 -22q3 -6 3 -10v-11v-10v-12q3 -9 3 -20v-20q0 -7 -1.5 -11.5t-1.5 -10.5v-10v-9q-3 -12 -4.5 -21.5t-4.5 -18.5q-3 -13 -6 -20.5t-10 -17.5q-3 -9 -9 -16.5t-15 -14.5
q-4 -3 -8.5 -4.5t-7.5 -4.5q-3 0 -4.5 -1.5t-4.5 -1.5h-2h-1q-4 0 -5 -2l-2 -1q-3 0 -6 -1.5t-3 -4.5q0 -4 3 -7t6 -3h2h5h1h5h6h6q6 3 12.5 4.5t12.5 5.5q9 6 20 13.5t17 17.5q10 9 16 20t12 20q7 13 11.5 23.5t7.5 23.5q0 6 1.5 10.5t4.5 10.5q0 7 1.5 13t4.5 12
q0 10 3.5 22t3.5 25q3 9 3 22v25q3 9 3 21v25v9v7v0v3v3v6v2v1v6v4q3 9 3 18.5t3 18.5q3 3 3 6t3 9q0 3 1.5 5t5.5 5q3 6 6 9t6 3q6 3 11 3h11h11q7 0 17 -3h1h2q3 0 18.5 -12.5t9.5 -40.5q-6 -12 -18.5 -24.5t-37.5 -15.5l-3 -79q-3 -80 21.5 -196.5t93 -253t211.5 -248.5
v0q143 112 211.5 248.5t93 253t21.5 196.5l-3 79q-22 3 -34 14t-19 23q-9 31 8 44l17 12h2h1q10 3 17 3h11h11q5 0 11 -3q3 0 6 -3t6 -9l5 -5q2 -2 2 -5q3 -6 3 -9t3 -6q3 -9 3 -18.5t3 -18.5v-4v-6v-1v-2v-6v-3v-3v0v-7v-9v-25q0 -12 3 -21v-25q0 -13 3 -22q0 -13 3.5 -25
t3.5 -22q3 -6 4.5 -12t1.5 -13q3 -6 4.5 -10.5t1.5 -10.5q3 -13 7.5 -24t11.5 -23q6 -9 12 -20t16 -20q6 -10 17 -17.5t20 -13.5q6 -4 12.5 -5.5t12.5 -4.5h6h6h5h1h5h2q3 0 6 3t3 7l-5 4q-1 2 -4 2l-2 1q-1 2 -5 2h-1h-2q-3 0 -4.5 1.5t-4.5 1.5q-3 3 -7.5 4.5t-8.5 4.5
q-9 7 -15 14.5t-9 16.5q-7 10 -10 17.5t-6 20.5q-3 9 -4.5 18.5t-4.5 21.5v9v10q0 6 -1.5 10.5t-1.5 11.5v20q0 11 3 23v9v10v11q0 4 3 10q0 13 1.5 22.5t4.5 21.5v9v6v0v0v4l3 3v6v1v5v6l3 7v24v28q-3 7 -3 14.5t-3 13.5q-3 7 -4.5 14.5t-4.5 16.5q-3 7 -8 14.5t-11 13.5
l-12 13l-13 12q-9 6 -17 11t-14 8q-9 3 -17 6t-17 3h-5q-1 0 -4 3h3q12 3 24.5 6.5t24.5 3.5h27q14 0 26 -7q13 -3 27 -7.5t26 -10.5q3 -3 6 -4.5t7 -5.5v0v0v0v0h1h2q0 -3 1.5 -4.5t4.5 -1.5q3 -6 9 -10.5t10 -10.5q12 -13 20 -25.5t14 -24.5q6 -13 10.5 -27t7.5 -29
q0 -13 -3 -28.5t-9 -27.5q-3 -6 -6 -14t-10 -14l-3 -6l-6 -6l-6 -7l-6 -6v-6v-6h6h6l6 6l7 3l4.5 4.5t4.5 1.5l6 6q6 7 12.5 13t12.5 15q9 16 17 34.5t11 37.5q3 18 0 38.5t-9 39.5q-4 18 -13 35t-19 33q-3 9 -9 17t-9 14h1q2 0 5 3q22 3 45 14t42 26q12 7 21.5 17.5
t18.5 20.5q7 12 13 26t9 29.5t0 31t-6 28.5z" />
</svg>
