<?xml version="1.0" standalone="no"?>
<!DOCTYPE svg PUBLIC "-//W3C//DTD SVG 1.1//EN" "http://www.w3.org/Graphics/SVG/1.1/DTD/svg11.dtd" >
<svg xmlns="http://www.w3.org/2000/svg" xmlns:xlink="http://www.w3.org/1999/xlink" version="1.1" width="2048" height="2048" viewBox="-10 0 2058 2048">
   <path fill="currentColor"
d="M1999 1544q-4 -20 -12 -40.5t-16 -36.5q-12 -16 -24.5 -28.5t-28.5 -20.5q-28 -24 -56.5 -36.5t-61.5 -20.5q-4 0 -6 -2t-6 -2q8 -8 16 -18t12 -22q17 -21 27 -45.5t18 -48.5t10 -50.5t-2 -50.5q-4 -29 -12 -53.5t-24 -44.5q-8 -12 -17 -20l-16 -17l-8 -8q-4 -4 -6 -4
t-6 -4l-8 -8l-8 -4q-5 -4 -9 -4t-8 4t-4 8t4 8l8 8l9 8l4 9l8 8q8 8 12 18t8 18q8 21 12 39t4 39q-4 20 -10 38t-14 35q-8 20 -20 36l-25 33l-14 14l-14 14l-2 2t-6 2v4h-4v0h2q2 0 -2 0v0v0q-4 4 -8.5 6t-8.5 7q-16 8 -34 14t-35 14q-20 4 -38.5 6t-34.5 -2q-16 0 -32 -4
l-33 -8h-4q4 0 6 -2t6 -2q12 0 22.5 -4t22.5 -8q8 -4 20 -10.5t21 -14.5q12 -8 20 -16l16 -16q4 -13 10 -23t15 -18q4 -12 6 -22t6 -19q4 -8 4 -18t4 -18v-39v-34l-4 -8v-9v-6v-2v-8l-4 -4v-4v0v0v-8l-4 -12q0 -17 -2 -31t-2 -26q-4 -8 -4 -16v-13v-16q0 -8 -5 -12v-31v-26
q0 -8 2.5 -14t2.5 -14v-15v-14q4 -12 6 -26t6 -27q4 -12 8 -26t12 -22q8 -13 16 -23t17 -18q4 -4 10 -8t14 -8h4q4 0 8 -4h2h2h2h6q4 0 6 -4t2 -9q0 -4 -2 -8t-6 -4h-6h-2h-6h-2h-8q-4 0 -8 4q-12 0 -20.5 2t-12.5 6q-16 9 -30 21t-23 24q-12 12 -20 26.5t-16 26.5
q-8 16 -14 30.5t-10 30.5q-5 8 -7 16t-6 16q0 9 -2 17t-2 12q-4 16 -6 32.5t-6 32.5q0 16 -2 30.5t-2 30.5t-2 32.5t-2 32.5v20q0 4 0 2v-2v4v4v8v2v3v8v8q0 12 -2 24t-6 20q0 9 -2 13t-6 8q0 4 -2 8t-6 8q-5 8 -9 12t-8 4q-8 4 -14 4h-14h-16q-9 0 -21 -4h-2h-6l-22 -16
q-23 -16 -10 -61q8 -16 24 -30.5t45 -18.5l6 -105q6 -106 -26.5 -262.5t-126 -339.5t-284.5 -337v0q-195 154 -286.5 337t-124 339.5t-28.5 262.5l4 105q33 4 49 20.5t24 32.5q13 41 -7.5 57t-24.5 16h-6h-2q-12 4 -21 4h-16h-14q-6 0 -14 -4q-4 0 -8 -4t-9 -12q-4 -4 -6 -8
t-2 -8q-4 -4 -6 -8t-2 -13q-4 -8 -6 -20t-2 -24v-8v-8v-3v-2v-8v-4v-4v2q0 2 0 -2v-8v-12q0 -16 -2 -32.5t-2 -32.5t-2 -30.5t-2 -30.5q-4 -16 -6 -32.5t-6 -32.5q0 -4 -2 -12t-2 -17q-4 -8 -6 -16t-7 -16q-4 -16 -10 -30.5t-14 -30.5q-8 -12 -16 -26.5t-20 -26.5
q-9 -12 -23 -24t-30 -21q-4 -4 -12.5 -6t-20.5 -2q-4 -4 -8 -4h-8h-2h-6h-4h-4q-4 0 -6 4t-2 8q0 5 2 9t6 4h6h2h2h2q4 4 8 4h4q8 4 14 8t10 8q9 8 17 18t16 23q8 8 12 22t8 26q4 13 6 27t6 26v14v15q0 8 2.5 14t2.5 14v26q0 15 -5 31v12v16v13q0 8 -4 16q0 12 -2 26t-6 31
v12v8v0v0v4h-4v4v8v2v6v9l-4 8v34v39q4 8 4 18t4 18q4 9 6 19t6 22q9 8 13 18t12 23l16 16q8 8 20 16q9 8 19 14.5t22 10.5t22.5 8t22.5 4q4 0 6 2t6 2h-4l-33 8q-16 4 -32 4q-20 4 -36.5 2t-36.5 -6q-17 -8 -35 -14t-34 -14q-4 -5 -8.5 -7t-8.5 -6v0v0q-4 0 -2 0h2v0h-4v-4
q-4 0 -6 -2l-2 -2l-14 -14l-14 -14l-25 -33q-12 -16 -20 -36q-8 -17 -14 -35t-10 -38q0 -21 4 -39t12 -39q4 -8 8 -18t12 -18l8 -8l4 -9l9 -8l8 -8q4 -4 4 -8t-4 -8t-8 -4t-9 4l-8 4l-8 8q-4 4 -6 4t-6 4l-8 8l-16 17q-9 8 -17 20q-16 20 -24 44.5t-12 53.5q-4 24 -2 50.5
t10 50.5t18 48.5t27 45.5q4 12 12 22t16 18q-4 0 -6 2t-6 2q-33 8 -61.5 20.5t-56.5 32.5q-16 12 -28.5 24.5t-24.5 28.5q-8 16 -16 36.5t-12 40.5t-2 40.5t10 36.5q4 8 6 16.5t6 16.5q8 8 12 16t8 12q4 8 11 15l10 10l8 8l2 2l2 2l12 8q8 8 20.5 18t24.5 19q20 16 44 28
l49 24q25 13 47 21t43 16v0l4 8v2q0 2 4 2q0 4 2 6t2 6l4 4l4 4q0 5 2 7l2 2q16 20 34.5 32t38.5 20q20 9 40.5 11t40.5 2h5h4l12 -4h8h4q4 0 4 -5h8h4l8 -4h8l5 -4h2h2l16 -8h4v0l4 -4h4q4 -4 6 -4t6 -4q4 0 6 -2t6 -2q13 -4 25 -8l24 -8q29 -4 55 -6t51 2q12 4 24 6t25 10
q12 4 22 10t18 14l4 4v4l4 4h4v5l4 4q5 8 7 12t2 12l2 2q2 2 2 6v4v4v2v2v4v8v9v4v8q0 4 2 8t6 4t8 -2t4 -6q4 -4 4 -6v-6q4 -4 4 -8v-9v-8v-4v-4l4 -8q0 -4 -2 -6l-2 -2q0 -8 -2 -18.5t-2 -18.5l-4 -4l-4 -4v-4l-4 -8q0 -4 -2 -6l-2 -2q-4 -4 -6 -8t-6 -4q0 -4 -2 -6l-2 -2
q-5 0 -5 -2t-4 -7q-4 -4 -12 -10t-12 -10q-16 -8 -30.5 -14t-30.5 -14q-32 -8 -64.5 -12.5t-65.5 0.5q-16 0 -32.5 2t-32.5 6q-4 0 -8 2t-8 2t-8 2t-8 2l-9 4h-4v0v0l-16 4v0h-4l-4 4h-4v0h-8h-2h-2h-4h-8h-3h-2q-8 -4 -18 -6t-18 -6t-12 -10t-8 -11q-5 -4 -5 -10v-10
q0 -8 2.5 -14t6.5 -10q4 -8 10 -16.5t14 -16.5q16 -12 36.5 -26t40.5 -23l8 -4l4 -4l13 -4q4 -4 10 -6t14 -6l41 -16l8 -4l8 -4q8 0 14 -4t14 -8q45 -21 130.5 -49.5t170.5 -28.5t170.5 28.5t130.5 49.5q8 4 14 8t14 4l12 8h4l41 16q8 4 14 6t10 6l17 8l8 4q20 9 40.5 23
t36.5 26q8 8 14 16.5t10 16.5q4 4 6.5 10t2.5 14v10q0 6 -5 10q-4 5 -8 11t-12 10t-18 6t-18 6h-2h-3h-8h-4h-2h-2h-8v0h-4l-4 -4h-4v0l-16 -4v0v0l-13 -4q-4 0 -8 -2t-8 -2t-8 -2t-8 -2q-16 -4 -32.5 -6t-32.5 -2q-33 -5 -65.5 -0.5t-64.5 12.5q-16 8 -30.5 14t-30.5 14
q-4 4 -12 10t-12 10q-4 5 -4 7t-5 2l-2 2q-2 2 -2 6q-4 0 -6 4t-6 8l-2 2q-2 2 -2 6l-4 8v4l-4 4l-4 4q0 8 -2 18.5t-2 18.5l-2 2q-2 2 -2 6l4 8v4v4v8v9q0 4 4 8v6q0 2 4 6q0 4 4 6t8 2t6 -4t2 -8v-8v-4v-9v-8v-4v-2v-2v-4v-4q0 -4 2 -6l2 -2q0 -8 2 -12t7 -12l4 -4v-5h4
l4 -4v-4l4 -4q8 -8 18 -14t22 -10q13 -8 25 -10t24 -6q25 -4 51 -2t55 6l24 8q12 4 25 8q4 0 6 2t6 2q4 4 6 4t6 4h4l4 4h4v0l16 8h2h2h5l8 4l8 4h4h8q0 5 4 5h4h8l12 4h4h5q20 0 40.5 -2t40.5 -11q20 -8 38.5 -20t34.5 -32l2 -2q2 -2 2 -7l4 -4l4 -4q0 -4 2 -6t2 -6
q4 0 4 -2v-2l4 -8v0q21 -8 43 -16t47 -21l49 -24q24 -12 44 -28q12 -9 24.5 -19t20.5 -18l12 -8l2 -2l2 -2l8 -8l10.5 -10.5t10.5 -14.5q4 -4 10 -12t10 -16t6 -16.5t6 -16.5q8 -16 10 -36.5t-2 -40.5zM496 1564q0 5 -2 5t-6 4l-4 4l-17 8q0 4 -2 4t-2 4l-8 4l-6 6l-6 6
l-12 12q-4 4 -6 4t-2 4l-9 9l-4 4l-8 8q-8 16 -20 32.5t-20 36.5q-4 12 -6 22t-2 23l-5 8v2v2q-8 -8 -18 -14.5t-18 -14.5q-20 -12 -40.5 -26t-36.5 -31q-8 -8 -16.5 -18t-16.5 -18l-8 -8v0v-4l-4 -4q-4 -4 -6 -8.5t-6 -8.5q0 -4 -2 -8t-2 -8q-4 -4 -4 -8v-8q-4 -4 -2 -10
t2 -10q4 -5 6 -11t6 -10t10 -8t14 -8q16 -8 34.5 -14t38.5 -6q21 -4 41 -4t41 4q16 4 36.5 10t36.5 10q4 4 8 6t8 6l12 4l4 4h8l4 4q5 0 11 2t10 6h-4zM829 1081q0 -16 12 -28.5t29 -12.5q12 0 22 8.5t14 20.5q4 4 4 6v6q0 20 -12 32.5t-28 12.5q-9 0 -17 -4.5t-12 -8.5
q-8 -8 -10 -14t-2 -18zM1207 1113q-4 4 -12 8.5t-17 4.5q-16 0 -28 -12.5t-12 -32.5v-6q0 -2 4 -6q4 -12 14 -20.5t22 -8.5q17 0 29 12.5t12 28.5q0 12 -2 18t-10 14zM1877 1589v8q0 4 -4 8q0 4 -2 8t-2 8q-4 4 -6 8.5t-6 8.5l-4 4v4v0l-8 8q-8 8 -16.5 18t-16.5 18
q-16 17 -36.5 31t-40.5 26q-8 8 -18 14.5t-18 14.5v-2v-2l-5 -8q0 -13 -4 -25t-4 -20q-8 -20 -20 -36.5t-20 -32.5l-8 -8l-4 -4l-9 -9q0 -4 -2 -4t-6 -4l-12 -12l-6 -6l-6 -6l-8 -4q0 -4 -2 -4t-2 -4l-21 -12q-4 -4 -6 -4t-2 -5h-4q4 -4 10 -6t11 -2l4 -4h8l4 -4l12 -4
q4 -4 8 -6t8 -6q16 -8 36.5 -12t36.5 -8q21 -4 41 -4t41 4q20 0 38.5 6t34.5 14q8 4 14 8t10 8t6 8t6 13q0 4 2 10t-2 10z" />
</svg>
