<?xml version="1.0" standalone="no"?>
<!DOCTYPE svg PUBLIC "-//W3C//DTD SVG 1.1//EN" "http://www.w3.org/Graphics/SVG/1.1/DTD/svg11.dtd" >
<svg xmlns="http://www.w3.org/2000/svg" xmlns:xlink="http://www.w3.org/1999/xlink" version="1.1" width="2048" height="2048" viewBox="-10 0 2068 2048">
   <path fill="currentColor"
d="M707 482q-20 25 -39 51t-24 61l5 8q15 -18 35 -33t40 -25q0 38 20 69t53 49h5q-5 -38 -1.5 -80.5t18.5 -74.5q23 -20 51.5 -32.5t48.5 -32.5q-50 -13 -97.5 -5.5t-89.5 25.5zM979 627q-32 2 -62 7t-60 15q12 13 28.5 19t28.5 16l-80 30q-40 15 -75 45l10 5
q65 -13 136.5 -13t138.5 15l5 -2l-52 -95l79 -17q-32 -28 -67 -54t-77 -39q5 15 20 32.5t27 35.5v0zM1289 721q30 5 63.5 5t63.5 -5q-50 -25 -106 -33.5t-96 -50.5q7 22 24.5 50.5t50.5 33.5zM662 959q10 40 -10 83.5t15 81.5q27 32 61 59.5t66 52.5l-2 -18
q-30 -34 -56.5 -71.5t-38.5 -77.5q35 10 71 25t76 20q-45 -68 -101 -136.5t-26 -158.5q2 -15 14.5 -29t7.5 -26q-47 35 -66 86t-11 109v0zM2016 804q-63 -88 -243 -130t-284 -157q17 -58 -10.5 -105.5t-64.5 -82.5q-58 -42 -129 -33.5t-131 26.5q-70 -15 -135 -36.5
t-132 -41.5q-148 -17 -270 53l-122 70q-108 70 -249 192t-219 207q20 3 40 -7t43 -13l202 -57q-62 55 -168.5 140t-143.5 162q47 -17 129.5 -59.5t132.5 -47.5q-42 40 -114.5 105t-100.5 112q3 3 1.5 6.5t-1.5 6.5q38 -23 111.5 -64t113.5 -44q-40 45 -102.5 121t-79.5 134
q37 -25 112 -65t115 -55q-10 23 -27.5 41.5t-29.5 40.5q-18 33 -50.5 69t-34.5 74q32 -30 71 -57.5t79 -50.5q-18 40 -44 75t-36 83q27 -28 69.5 -44t77.5 -26l-7 5q-3 2 -33 26t-55 56q23 -2 20.5 -3.5t24.5 6.5l-62 25q35 47 72.5 86t79.5 74q-2 -10 -3.5 -20t-6.5 -13
l157 -87q-40 5 -121 28.5t-88 18.5q25 -27 116 -63.5t113 -83.5h2q1 0 -12 2l-127 8q-17 -65 25 -109t3 -96q-60 -80 -101.5 -165t-28.5 -185q5 13 11 25.5t16 22.5q3 -23 5.5 -46.5t9.5 -43.5q8 30 20.5 61t44.5 49l3 -3q-28 -95 -5.5 -196t114.5 -158q-25 10 -58.5 12.5
t-70.5 17.5q7 -10 19.5 -45t37.5 -58q20 -12 33.5 -28.5t33.5 -26.5q43 -32 90.5 -58.5t119.5 -38.5q68 -10 130.5 11t124.5 31q-3 8 -11.5 14t-13.5 14q-5 12 -15 23.5t-5 23.5l67 -25q68 -17 136.5 -42t143.5 -18l50 63q-80 -63 -163.5 -16.5t-163.5 63.5q-30 8 -60 16.5
t-60 16.5q33 25 72.5 31t82.5 1q5 33 36 73t59 47q-5 -30 -24 -67.5t4 -72.5l60 -36t67 4q-20 2 -37.5 13.5t-32.5 18.5q-12 10 -16 31.5t-1 26.5q12 37 79.5 67t182.5 30q-10 -17 -50 -57t-35 -60q118 117 290 163t222 96q5 18 -27.5 48t-22.5 45q-5 17 17.5 47t50.5 65
q-23 -137 16 -83.5t1 153.5l-70 -15q-175 -12 -271 -68.5t-233 -146.5q-50 -35 -102.5 -77.5t-87.5 -69.5l-103 -38q103 123 129 150.5t-26 119.5l-35 -62l-13 -113q-30 100 -23.5 200t141.5 160l102 15q-35 -27 -61 -57t-19 -65q43 80 192.5 124.5t232.5 67.5
q15 5 27.5 12.5t22.5 17.5q-20 20 -37.5 22.5t-45.5 12.5q-65 -20 -136 -42.5t-101 -62.5q18 22 -149.5 48.5t-115.5 28.5q-77 -2 -148 -45.5t-124 -103.5l-20 -5q3 57 45.5 103t72.5 96l77 35q-28 18 -59 38t-48 50q-8 17 -15.5 34.5t0.5 35.5q27 -28 59.5 -43t64.5 -25
l-32 53q5 42 -21 107t-51 110q-28 70 -180.5 30t-314.5 -90q130 97 287.5 136t339.5 24l-28 -58q43 -84 54 -196.5t121 -172.5q75 -40 109 -59t119 -1q47 10 132 32.5t135 12.5q45 -28 73.5 -44t66.5 -46q47 7 68.5 1t38.5 -34q10 -22 29 -77t39 -97l2 -33
q-20 -57 -21 -134.5t-11 -92.5zM1281 584q-2 5 -2 9v6q-10 -7 -16.5 -17t-6.5 -25q13 0 21.5 1t18.5 4q-5 2 -10 8.5t-5 13.5zM1326 622q5 -5 9 -10t6 -13v-5v-7q10 7 17.5 16t12.5 19q-10 2 -21 2t-24 -2zM1471 1064q3 -8 1.5 -19t3.5 -19q8 3 18 5.5t12 7.5
q-10 2 -17.5 11t-17.5 14zM1551 1106l2 -35q10 -2 15 1.5t10 6.5zM1613 1134q3 -5 3 -22.5t5 -17.5l20 12q-5 -2 -14 13t-14 15zM1673 1164l5 -18q0 -25 4 -25t21 5q-7 5 -13.5 20t-16.5 18zM1748 1184l3 -50l22 7zM1816 1176q-3 -27 1 -28.5t29 6.5zM1886 1201
q0 -10 2.5 -21t-2.5 -21h13q7 0 12 5q0 10 -10 18.5t-15 18.5zM1613 1134q5 0 14 -14t14 -14l-20 -12q-5 0 -5 17.5t-3 22.5zM989 1658q8 13 10.5 29t9.5 28q17 -34 15 -75.5t-25 -73.5q-37 -18 -73.5 -36.5t-71.5 -46.5q15 48 54 95.5t81 79.5v0zM972 1783l47 -40
q-35 -25 -87.5 -61t-84.5 -69q25 55 41 106t84 64z" />
</svg>
