<?xml version="1.0" standalone="no"?>
<!DOCTYPE svg PUBLIC "-//W3C//DTD SVG 1.1//EN" "http://www.w3.org/Graphics/SVG/1.1/DTD/svg11.dtd" >
<svg xmlns="http://www.w3.org/2000/svg" xmlns:xlink="http://www.w3.org/1999/xlink" version="1.1" width="2048" height="2048" viewBox="-10 0 2058 2048">
   <path fill="currentColor"
d="M726 17q-230 27 -365 91t-152 155q-3 14 -3 85v155q3 129 6.5 176.5t16.5 67.5q11 24 11 35.5t-11 42.5q-13 30 -15 70.5t2 165.5q3 82 8 147.5t12 79.5q7 17 7 30.5t-7 30.5q-10 24 -11.5 182.5t8.5 226.5q7 30 17 54t23 41q68 88 245.5 137t444.5 55q332 14 565 -43.5
t294 -165.5q17 -27 18.5 -64.5t1.5 -175.5q0 -122 -1.5 -171t-11.5 -73q-10 -23 -12 -35t8 -29q7 -14 9 -63t2 -153q-4 -153 -7.5 -197t-20.5 -71q-10 -10 -10 -20t10 -30q11 -17 14 -64.5t3 -182.5q-3 -95 -6.5 -167.5t-6.5 -86.5q-20 -64 -106.5 -118t-211.5 -85
q-156 -37 -375.5 -47t-392.5 14zM774 111q-4 4 35 5.5t97 -1.5q84 -4 246.5 6.5t155.5 16.5l-30 5q-31 5 -71 9q-44 3 -79.5 10t-46.5 13q-13 7 -14.5 10.5t11.5 13.5q14 10 12 13.5t-22 6.5q-61 14 -101.5 29t-54.5 36q-37 47 -8 89.5t106 58.5q61 11 238.5 5.5
t245.5 -21.5q71 -17 108 -39t37 -46q0 -30 -49 -54t-160 -47q-61 -14 -34 -14t101 10q75 10 129 32t74 46q14 17 17.5 51t3.5 169q0 165 -12 195.5t-86 64.5q-109 51 -298 73t-497 15q-58 -3 -68 -5t7 -12q17 -7 5 -10t-76 -7q-91 -7 -164 -27t-110 -51q-47 -33 -74 -94
t-31 -139q-3 -71 9 -137t25 -59q7 3 17 -8.5t20 -32.5q31 -57 98.5 -97.5t179.5 -71.5q64 -13 89.5 -16.5t18.5 6.5zM388 879q0 34 20.5 50.5t81.5 33.5q108 34 270.5 47.5t329.5 10t311 -22t215 -55.5q30 -13 37 -23.5t7 -33.5q0 -27 8.5 -32.5t25.5 11.5q13 17 14.5 37.5
t1.5 179.5v172l-30 31q-47 40 -199.5 72t-355.5 43q-250 10 -490 -30.5t-284 -101.5q-7 -14 -10 -56t-3 -144q0 -115 3 -150.5t13 -48.5q17 -21 25.5 -17.5t8.5 27.5zM419 1467q67 48 332.5 75t488.5 6q122 -10 222 -28.5t150 -42.5q34 -13 41 -23t7 -38q0 -23 3 -33t10 -10
q27 0 34 37t3 179q0 78 -1.5 135.5t-4.5 63.5q-7 17 -59.5 42.5t-109.5 39.5q-92 23 -188 36.5t-235 17.5q-257 6 -472 -27.5t-282 -94.5q-14 -17 -17 -45.5t-3 -160.5q0 -136 3 -164.5t20 -45.5l21 -24l6 44q4 21 10.5 36t20.5 25z" />
</svg>
