<?xml version="1.0" standalone="no"?>
<!DOCTYPE svg PUBLIC "-//W3C//DTD SVG 1.1//EN" "http://www.w3.org/Graphics/SVG/1.1/DTD/svg11.dtd" >
<svg xmlns="http://www.w3.org/2000/svg" xmlns:xlink="http://www.w3.org/1999/xlink" version="1.1" width="2048" height="2048" viewBox="-11 0 2069 2048">
   <path fill="currentColor"
d="M1066 863l20 -79q25 -95 49 -96.5t123 85.5q48 45 128 115.5t145 126.5q76 68 112.5 107.5t28.5 47.5q-3 6 -125.5 76.5t-266 155t-263.5 151.5l-120 68q-3 0 1.5 -27t10.5 -60q16 -107 -6.5 -117t-382.5 -10l-454 -6v43q0 45 65 92.5t228 126.5l189 90l-34 29
q-14 11 -35 21t-38 12q-124 26 62 44t521 16l363 -6l153 -73q98 -48 146 -82t121 -107q93 -96 151 -193t77 -201q9 -34 11.5 -106t0.5 -145q-3 -118 -10 -157.5t-41 -107.5q-87 -175 -259 -272t-454 -134q-124 -14 -198.5 -35t-133.5 -55l-45 -28v40q0 14 5.5 35t13.5 35
q23 39 19 47.5t-41 8.5q-20 0 -52.5 10t-57.5 21q-73 31 -142 42.5t-142 -2.5q-34 -6 -63.5 -13t-38.5 -10q-8 -5 -14 -2.5t-6 11.5q0 19 32.5 82.5t58.5 88.5l31 34l-48 9q-17 3 -68 25.5t-101 53.5q-102 56 -151 71.5t-97 1.5q-43 -14 -44 -5.5t27 58.5l31 57z" />
</svg>
