<?xml version="1.0" standalone="no"?>
<!DOCTYPE svg PUBLIC "-//W3C//DTD SVG 1.1//EN" "http://www.w3.org/Graphics/SVG/1.1/DTD/svg11.dtd" >
<svg xmlns="http://www.w3.org/2000/svg" xmlns:xlink="http://www.w3.org/1999/xlink" version="1.1" width="2048" height="2048" viewBox="-10 0 2067 2048">
   <path fill="currentColor"
d="M1021 0q-208 0 -391 76t-324 220q-150 149 -227.5 336.5t-77.5 390.5q0 205 76.5 389.5t225.5 331.5q146 146 332 225t386 79q203 0 393 -79t340 -228q143 -141 218 -324t75 -394q0 -209 -75 -393.5t-221 -330.5q-147 -147 -333 -223t-397 -76zM1024 183
q175 0 325.5 63.5t271.5 184.5q116 118 178 270.5t62 321.5q0 171 -60.5 320.5t-176.5 265.5q-124 123 -279 186.5t-321 63.5t-317 -63.5t-272 -184.5q-118 -118 -183 -271.5t-65 -316.5q0 -167 65 -320.5t183 -274.5q119 -121 268 -183t321 -62zM1013 854
q-45 -79 -115.5 -114.5t-155.5 -35.5q-126 0 -213.5 84.5t-87.5 234.5q0 152 86 235t221 83q84 0 156 -43.5t112 -117.5l-127 -64q-23 50 -54 70t-73 20q-70 0 -102.5 -52.5t-32.5 -130.5q0 -76 29.5 -128.5t105.5 -52.5q20 0 55 15.5t58 66.5zM1604 854
q-45 -79 -115.5 -114.5t-157.5 -35.5q-124 0 -211.5 84.5t-87.5 234.5q0 152 84.5 235t220.5 83q87 0 157.5 -43.5t112.5 -117.5l-127 -64q-22 50 -54.5 70t-71.5 20q-71 0 -104.5 -52.5t-33.5 -130.5q0 -76 31 -128.5t107 -52.5q19 0 54.5 15.5t57.5 66.5z" />
</svg>
