<?xml version="1.0" standalone="no"?>
<!DOCTYPE svg PUBLIC "-//W3C//DTD SVG 1.1//EN" "http://www.w3.org/Graphics/SVG/1.1/DTD/svg11.dtd" >
<svg xmlns="http://www.w3.org/2000/svg" xmlns:xlink="http://www.w3.org/1999/xlink" version="1.1" width="2048" height="2048" viewBox="-10 0 2068 2048">
   <path fill="currentColor"
d="M637 1112q-13 -26 -36.5 -37.5t-49.5 -11.5q-42 0 -69 27.5t-27 76.5t27 75t69 26q29 0 52 -14t36 -38l-41 -20q-8 18 -18.5 23t-23.5 5q-21 0 -32.5 -17t-11.5 -40q0 -26 10.5 -43t33.5 -17q8 0 19.5 5.5t17.5 23.5zM741 1107q26 0 36 17t10 40q0 26 -10 43t-36 17
q-24 0 -34 -17t-10 -40q0 -26 10 -43t34 -17zM741 1063q-44 0 -73 27.5t-29 76.5t29 75t73 26q46 0 75 -26t29 -75t-29 -76.5t-75 -27.5zM858 1263h57v-119q0 -13 6.5 -23.5t21.5 -10.5q19 0 24 9t5 22v122h57v-119q0 -13 8 -23.5t21 -10.5q15 0 21.5 10.5t6.5 28.5v114h58
v-148q0 -34 -22.5 -43t-37.5 -9q-16 0 -33 6.5t-30 19.5q-10 -13 -21.5 -19.5t-30.5 -6.5q-13 0 -28.5 5t-25.5 18v-18h-57v195zM1162 1263h57v-119q0 -13 6.5 -23.5t24.5 -10.5q16 0 21 9t5 22v122h57v-119q0 -13 8 -23.5t21 -10.5q18 0 24.5 10.5t6.5 28.5v114h57v-148
q0 -34 -23.5 -43t-36.5 -9q-18 0 -33.5 6.5t-28.5 19.5q-10 -13 -23 -19.5t-29 -6.5q-13 0 -30 5t-27 18v-18h-57v195zM1565 1107q23 0 34.5 17t11.5 40q0 26 -11.5 43t-34.5 17q-26 0 -36.5 -17t-10.5 -40q0 -26 10.5 -43t36.5 -17zM1565 1063q-47 0 -75.5 27.5t-28.5 76.5
t28.5 75t75.5 26q44 0 74 -26t30 -75t-30 -76.5t-74 -27.5zM1682 1263h57v-119q0 -13 6.5 -23.5t24.5 -10.5q16 0 22 9t6 22v122h58v-143q0 -21 -13 -39t-47 -18q-13 0 -28.5 5t-28.5 18v-18h-57v195zM2045 1092q-20 -13 -42.5 -21t-42.5 -8q-32 0 -58 15.5t-26 54.5
q0 52 57.5 52t57.5 24q0 13 -12 15.5t-17 2.5q-21 0 -35 -8t-27 -18l-37 28q24 21 44.5 30t52.5 9q31 0 59.5 -15.5t28.5 -54.5q0 -54 -58.5 -53t-58.5 -25q0 -8 8 -11.5t18 -3.5q13 0 28.5 6.5t23.5 13.5zM637 889q-13 -26 -36.5 -38t-49.5 -12q-42 0 -69 27.5t-27 76.5
q0 50 27 76t69 26q29 0 52 -14.5t36 -37.5l-41 -21q-8 18 -18.5 23.5t-23.5 5.5q-21 0 -32.5 -17t-11.5 -41q0 -26 10.5 -42.5t33.5 -16.5q8 0 19.5 5t17.5 23zM652 1040h58v-112q0 -16 10 -22.5t36 -8.5h6v-52q-16 2 -30.5 7.5t-21.5 12.5v-20h-58v195zM956 954
q0 -44 -22 -79.5t-74 -35.5q-44 0 -70 29t-26 81q0 41 26 68.5t70 27.5q34 0 57.5 -13t36.5 -42l-42 -21q-13 19 -22 26.5t-25 7.5q-15 0 -29.5 -10.5t-14.5 -38.5h135zM821 920q3 -21 14.5 -30t24.5 -9t25 9t14 30h-78zM1086 959q0 23 -11.5 33.5t-27.5 10.5q-10 0 -18 -5
t-8 -16q0 -13 8 -18t18 -8l39 -10v13zM1141 897q0 -34 -23.5 -46t-62.5 -12q-21 0 -50.5 10.5t-29.5 52.5h54q3 -16 9.5 -21t21.5 -5q11 0 18.5 5t7.5 16v15l-20 3q-47 8 -73 22t-26 51q0 28 18 42.5t47 14.5q13 0 31 -6.5t26 -19.5q0 5 1.5 10t3.5 11h52q-2 -8 -3.5 -20
t-1.5 -19v-104zM1276 850h-36v-57h-55v57h-28v34h28v104q0 20 9 38.5t46 18.5h21q10 0 15 -3v-44h-8h-10q-8 0 -13 -4t-5 -14v-96h36v-34zM1297 845v195h57v-195h-57zM1354 824v-44h-57v44h57zM1429 1040h58l67 -195h-60l-33 137h-3l-34 -137h-60zM1739 954q0 -44 -22 -79.5
t-74 -35.5q-45 0 -71 29t-26 81q0 41 26 68.5t71 27.5q31 0 55.5 -13t37.5 -42l-41 -21q-13 19 -22.5 26.5t-24.5 7.5q-16 0 -30 -10.5t-14 -38.5h135zM1604 920q2 -21 14 -30t25 -9t24.5 9t14.5 30h-78zM216 837q-44 0 -83 15.5t-68 46.5q-31 31 -48 70t-17 84q0 41 17 80
t48 68q29 31 68 48t83 17q41 0 80 -17t70 -48q32 -29 47.5 -68t15.5 -80q0 -45 -15.5 -84t-47.5 -70q-31 -28 -70 -45t-80 -17zM215.5 876q36.5 0 67.5 13t57 39q24 23 37 55.5t13 69.5q0 33 -13 64.5t-37 57.5q-26 23 -58 37.5t-66 14.5q-37 0 -68 -13t-57 -39
q-23 -26 -37.5 -57.5t-14.5 -64.5q0 -37 14.5 -68t37.5 -57q26 -26 57 -39t67.5 -13zM213 1016q-10 -18 -24.5 -24.5t-32.5 -6.5q-26 0 -44 17t-18 51q0 31 16.5 48t45.5 17q18 0 33.5 -9.5t23.5 -24.5l-26 -13q-5 10 -11.5 14t-14.5 4q-15 0 -21.5 -10.5t-6.5 -25.5
q0 -19 6.5 -29t21.5 -10q3 0 10.5 2.5t13.5 15.5zM335 1016q-8 -18 -23.5 -24.5t-33.5 -6.5q-26 0 -44 17t-18 51q0 31 18 48t47 17q18 0 32 -9.5t22 -24.5l-26 -13q-2 10 -10 14t-16 4q-15 0 -21.5 -10.5t-6.5 -25.5q0 -19 6.5 -29t21.5 -10q5 0 11.5 2.5t12.5 15.5z" />
</svg>
