<?xml version="1.0" standalone="no"?>
<!DOCTYPE svg PUBLIC "-//W3C//DTD SVG 1.1//EN" "http://www.w3.org/Graphics/SVG/1.1/DTD/svg11.dtd" >
<svg xmlns="http://www.w3.org/2000/svg" xmlns:xlink="http://www.w3.org/1999/xlink" version="1.1" width="2048" height="2048" viewBox="-10 0 2068 2048">
   <path fill="currentColor"
d="M628 1367q-11 0 -20 -1.5t-17 -4.5q-12 62 -7.5 118.5t50.5 59.5h165h161q3 -12 3 -15t-3 0q-47 -20 -100.5 -66.5t-12.5 -116.5q-15 3 -28 6t-28 3q-38 9 -77 13t-86 4zM1501 1524q-44 -20 -96 -60.5t-29 -102.5q-26 18 -56.5 25t-65.5 7q-32 0 -62.5 -7t-62.5 -16
q-9 58 -3 113.5t49 55.5h163h163v-15v0zM428 1228q-18 -24 -32.5 -47t-23.5 -44q-11 56 -85.5 211.5t-274.5 207.5l-12 27l196 -43q197 -42 345 -199q-26 -14 -55 -43.5t-58 -69.5zM1527 806l-17 -42q-18 -43 -64 -98q-90 55 -150 148.5t-68 203.5q-6 -23 -9 -48t-3 -48
q0 -99 39.5 -186t105.5 -151q-23 -18 -50.5 -34t-59.5 -30q-111 75 -164.5 200.5t-30.5 261.5q-9 -20 -17.5 -43.5t-17.5 -46.5q-29 -113 -3 -221t93 -192q-29 -6 -62.5 -9t-68.5 -6q-104 102 -132 247.5t36 282.5q-17 -18 -31.5 -38t-26.5 -41q-58 -101 -61 -214.5
t44 -212.5q-50 14 -90.5 39t-75.5 54q-47 116 -28 242.5t104 225.5q-21 -14 -40 -28.5t-36 -32.5q-52 -52 -84 -116t-44 -134q-76 125 -100 237l-25 112l73 124q72 123 165 123q91 0 157.5 -16t157.5 -16q90 0 164 29t147 29q70 0 177.5 -87t95.5 -468zM1652 832
q21 -17 45.5 -43.5t42.5 -61.5q37 -67 40 -126l3 -60l-64 32q-64 32 -102 99q-23 44 -37.5 80t-17.5 65q12 3 15 -2.5t-15 2.5q3 105 -7 191t-31 153h3l3 3l58 13q59 13 134 -16q76 -32 164.5 75.5t103.5 145.5l58 3l-12 -72q-11 -71 -50.5 -165.5t-118 -186t-215.5 -129.5z
M1745.5 1015q-17.5 0 -30.5 -13t-13 -30q0 -18 13 -31t30 -13q18 0 31 13t13 31q0 17 -13 30t-30.5 13z" />
</svg>
