<?xml version="1.0" standalone="no"?>
<!DOCTYPE svg PUBLIC "-//W3C//DTD SVG 1.1//EN" "http://www.w3.org/Graphics/SVG/1.1/DTD/svg11.dtd" >
<svg xmlns="http://www.w3.org/2000/svg" xmlns:xlink="http://www.w3.org/1999/xlink" version="1.1" width="2048" height="2048" viewBox="-10 0 2068 2048">
   <path fill="currentColor"
d="M1056 38q4 0 9 3.5t9 3.5q46 25 74.5 44.5t39.5 66.5q14 71 60 115.5t114 65.5q50 18 96 12.5t89 -30.5q64 -39 101.5 -32t93.5 64q54 54 63 96.5t-27 106.5q-60 100 -10.5 224t156.5 149q85 25 113.5 114t-21.5 167q-10 18 -33.5 30.5t-44.5 19.5q-85 25 -133 82
t-55 142q-8 36 3 73t21 73q11 36 25.5 69.5t-7.5 72.5q-78 -71 -154.5 -144t-154.5 -147q82 -111 112 -233.5t9 -254.5q-18 -110 -68 -202.5t-135 -163.5q-164 -139 -372 -142.5t-371 128.5q-153 124 -215.5 371.5t119.5 499.5q-72 75 -146.5 149.5t-145.5 153.5
q-29 -25 -30.5 -48.5t5.5 -51.5q4 -11 9 -21.5t12 -21.5q47 -82 36 -154.5t-57 -147.5q-25 -32 -57 -51.5t-71 -30.5q-82 -28 -108.5 -126t30.5 -166q14 -14 35.5 -24.5t38.5 -14.5q114 -21 167.5 -145.5t-3.5 -216.5q-43 -75 -34 -121.5t84 -113.5q43 -43 78.5 -46.5
t88.5 28.5q64 39 126.5 35.5t126.5 -35.5q39 -21 67.5 -51.5t38.5 -72.5q14 -64 48 -103.5t105 -46.5q11 0 16.5 -1.5t33.5 1.5zM1767 2012h-371h-372h-372h-368q185 -188 370 -375t370 -372q185 185 371.5 372t371.5 375z" />
</svg>
