<?xml version="1.0" standalone="no"?>
<!DOCTYPE svg PUBLIC "-//W3C//DTD SVG 1.1//EN" "http://www.w3.org/Graphics/SVG/1.1/DTD/svg11.dtd" >
<svg xmlns="http://www.w3.org/2000/svg" xmlns:xlink="http://www.w3.org/1999/xlink" version="1.1" width="2048" height="2048" viewBox="-10 0 2058 2048">
   <path fill="currentColor"
d="M1089 3q-12 -3 -25.5 -3t-25.5 12q-12 9 -6 22.5t9 25.5q21 48 39 99t39 99t4.5 84t-64.5 51q-45 15 -84 3t-57 -66q-15 -45 -28.5 -93t-31.5 -93q-3 -15 -6 -34.5t-27 -19.5t-36 16.5t-18 37.5q-15 54 -30 106.5t-33 106.5q-27 84 -27 167t30 170q42 126 51 256.5
t-6 262.5q-18 147 -45 291.5t-48 288.5q-15 105 51 181.5t168 73.5q90 0 153 -61.5t63 -151.5q3 -84 3 -170t-3 -170q-6 -249 34.5 -486t193.5 -453q108 -151 27 -328t-264 -225zM885 1940q-51 0 -81 -27t-30 -75q-3 -48 25.5 -78t79.5 -30q45 0 73.5 27t31.5 72
q3 48 -24 76.5t-75 34.5z" />
</svg>
