<?xml version="1.0" standalone="no"?>
<!DOCTYPE svg PUBLIC "-//W3C//DTD SVG 1.1//EN" "http://www.w3.org/Graphics/SVG/1.1/DTD/svg11.dtd" >
<svg xmlns="http://www.w3.org/2000/svg" xmlns:xlink="http://www.w3.org/1999/xlink" version="1.1" width="2048" height="2048" viewBox="-10 0 2068 2048">
   <path fill="currentColor"
d="M1920 1209q-16 0 -33.5 -7t-36.5 -18q-6 -3 -7 -7t4 -6q3 -3 5.5 -7t5.5 -7q5 -5 10.5 -12t11.5 -10q8 -2 13.5 3t13.5 8q13 3 22.5 1.5t15.5 -9.5q8 -14 4 -22t-12 -16q-11 -14 -24.5 -26t-27.5 -26q-11 -11 -17.5 -24.5t-9.5 -29.5q0 -33 21.5 -58.5t59.5 -31.5
q30 -2 56 7.5t48 28.5q5 5 5 9t-5 10v0q-9 8 -14 16t-14 11q-8 5 -14.5 -3t-17.5 -11q-3 0 -7 -2.5t-7 -2.5q-11 -3 -20.5 0t-14.5 11q-6 11 -1.5 17.5t9.5 14.5q14 14 29 25t25 24q22 25 25 54.5t-14 54.5q-13 22 -35 31.5t-52 9.5zM318 1176q3 0 3 1.5t2 3.5q0 17 4 19.5
t21 2.5h9h10q8 3 14.5 0t4.5 -16l1 -2l1 -1h3q0 19 -2.5 22t-19.5 3h-20h-20q-8 0 -11 -3t0 -11v-11v-8zM158 1181q5 17 10.5 19.5t24.5 2.5h20h21q-6 6 -10 6h-9q-11 0 -22 -1.5t-19 1.5q-14 0 -16.5 -4.5t0.5 -14.5v-3v-6zM0 1198q3 2 7 5t9 0q14 -3 27.5 1.5t27.5 -6.5v4
v4q-17 3 -33 1.5t-33 1.5q-5 0 -5 -5v-6zM907 994q-16 -43 -54 -66.5t-90 -23.5q-35 3 -66.5 16.5t-55.5 40.5q-24 -29 -55.5 -43t-66.5 -14q-38 3 -69.5 16.5t-58.5 40.5q-32 -51 -86.5 -55t-87.5 31q-5 3 -6.5 3t-4.5 -3q-24 -24 -51 -29.5t-57 2.5q-19 3 -35.5 5.5
t-32.5 -0.5q-8 0 -11 4t-3 10q-2 32 -3.5 65t-4.5 65q-3 35 -4 69t-4 70q3 5 5.5 6.5t8.5 1.5h28h29q2 -6 2 -10v-9q3 -41 5.5 -81.5t5.5 -81.5q3 -22 15 -34t29 -12q19 2 29.5 16t8.5 33q0 40 -3 78t-5 76q2 3 2 7v10q0 2 1.5 5t6.5 3h33q16 0 33 -3v-7v-6q2 -41 5 -83
q3 -43 5 -86q3 -16 15.5 -29.5t31.5 -11.5q16 0 25.5 12.5t9.5 31.5q-3 38 -4 76t-4 76q3 3 3 7v7q-3 8 -0.5 12t13.5 4h14h16q16 0 19 -3t8 -19q3 -3 1.5 -7t1.5 -9q16 13 32.5 22.5t35.5 12.5q46 11 85.5 0t74.5 -43l5 -6q3 -2 6 3q41 49 113 51.5t123 -48.5
q35 -33 46 -79t-8 -87zM502 1141q-32 0 -56.5 -23.5t-21.5 -55.5q0 -35 28.5 -62.5t63.5 -27.5q35 3 58.5 26t23.5 53q0 38 -28.5 64t-67.5 26zM755 1141q-35 0 -58 -23.5t-23 -55.5q0 -35 27 -62.5t65 -27.5q33 0 57 23t24 56q0 35 -28.5 62.5t-63.5 27.5zM1592 910
q-44 -8 -83.5 2.5t-71.5 40.5q-6 6 -10 7t-9 -7q-22 -24 -50.5 -36.5t-61.5 -12.5h-88h-88h-82h-78q-33 0 -37 5.5t-7 35.5q0 22 3 24.5t24 2.5q28 0 32 5.5t1 32.5q-3 38 -4 73.5t-4 73.5q0 22 11 35.5t30 13.5q13 3 25 3h23q6 0 8.5 -3t2.5 -8q0 -11 1.5 -22t1.5 -22
q0 -8 -1.5 -12t-12.5 -1q-5 0 -9 -4t-4 -13v-10v-11q0 -30 3 -59q2 -29 5 -58q0 -8 2.5 -11t11.5 -3h38h35h9q5 0 5 3q2 3 0 5l-6 6q-22 41 -23 79t23 76q35 57 107 66.5t127 -36.5q5 -6 10.5 -11.5t10.5 -7.5q9 0 13 8t9 11q68 57 157.5 28.5t108.5 -115.5
q14 -63 -17.5 -113t-90.5 -61zM1287 1141q-32 0 -56.5 -23.5t-24.5 -55.5q0 -35 28.5 -62.5t66.5 -27.5q33 3 57.5 24.5t21.5 54.5q0 38 -27.5 64t-65.5 26zM1540 1141q-33 0 -57 -22t-24 -54q0 -38 27 -64t65 -29q33 0 57 23t24 56q0 35 -27 62.5t-65 27.5zM1798 839h-4
q-1 0 -4 3t-1.5 4t1.5 4q3 8 7 17.5t7 17.5q5 11 1 16.5t-12 8.5t-15 1.5t-10 -12.5q-2 -8 -5 -16.5t-6 -16.5q0 -2 -1 -6.5t-4 -4.5q-5 0 -6.5 3t-4.5 8q-3 8 -5.5 17.5t-5.5 20.5q-5 14 -5 29t5 31q8 25 9.5 48t-1.5 47q-2 25 -7.5 52t-8.5 51q-3 19 9.5 33t31.5 14
q13 0 25.5 -11t12.5 -27v-32v-31q-3 -43 5 -86.5t36 -81.5q19 -27 4 -58.5t-48 -42.5zM1763 1190q-11 0 -16.5 -5.5t-5.5 -13.5q0 -9 5.5 -14t13.5 -5t13.5 4t5.5 12q0 11 -4 15t-12 7z" />
</svg>
