<?xml version="1.0" standalone="no"?>
<!DOCTYPE svg PUBLIC "-//W3C//DTD SVG 1.1//EN" "http://www.w3.org/Graphics/SVG/1.1/DTD/svg11.dtd" >
<svg xmlns="http://www.w3.org/2000/svg" xmlns:xlink="http://www.w3.org/1999/xlink" version="1.1" width="2048" height="2048" viewBox="-10 0 2069 2048">
   <path fill="currentColor"
d="M79 1051q10 -31 23.5 -85.5t40.5 -108.5q64 -130 147 -243.5t181.5 -207.5t216.5 -171.5t252 -134.5q51 -21 110 -30.5t117 -9.5q69 0 114.5 45.5t51.5 118.5q3 36 1.5 75.5t-16.5 75.5q-64 170 -154.5 311t-207 256t-260.5 204t-314 153q-12 3 -25.5 6t-28.5 3
q-115 18 -183.5 -47t-65.5 -210zM1251 715q188 -12 371.5 -26t376.5 -26q-15 -12 -24 -22.5t-18 -16.5q-167 -133 -333.5 -266.5t-332.5 -269.5q-15 -12 -29 -33.5t-35 -48.5q70 0 130.5 -1.5t118.5 1.5q69 0 138.5 -1.5t139.5 10.5q145 27 221 118t73 239q-3 140 -15 279
t-21 279q-16 215 -32.5 427t-31.5 424q-3 36 -7.5 74t-7.5 83q-76 -70 -150 -136.5t-150 -129.5q-9 -10 -18 -20.5t-18 -16.5q-91 -57 -135 -140.5t-62 -186.5q-27 -133 -63.5 -265t-69.5 -265q-6 -15 -9.5 -30t-6.5 -33zM322 1802q42 -6 78.5 -10.5t72.5 -13.5
q15 -3 29 -17t17 -29q33 -106 65 -212t62 -215q3 -9 7.5 -18t10.5 -24q191 63 384.5 125t390.5 123q-103 106 -213.5 194t-231.5 166q218 16 436 32.5t436 34.5v6v6q-48 3 -95 6t-93 6q-139 9 -278 18.5t-277 18.5h-2h-1h-2h-1h-2h-1h-2h-1h-1l-2 1h-1h-2h-1h-1h-2h-1h-2h-1
h-1h-2l-1 1h-1h-2h-1h-1h-1h-2h-1h-1h-2h-1h-1l-1 1h-2h-1h-1h-1h-1h-2h-1h-1h-1h-1h-1l-2 1h-1h-1h-1h-1h-1h-1h-1h-1h-2h-1h-1h-1h-1l-1 1h-1h-1h-1h-1h-1h-1h-1h-1h-1h-1h-1h-1h-1h-1l-1 1h-1h-1h-1h-1h-1h-1h-1h-1h-1h-1h-1h-1h-1h-1l-1 1h-1h-1h-1h-1h-1h-1h-1h-1h-1
h-1h-1h-1h-1h-1l-1 1h-1h-1h-1h-1h-1h-1h-1h-1h-1h-1h-1h-1h-1h-1h-1l-1 1h-1h-1h-1h-1h-1h-1h-1h-1h-1h-1h-1h-1h-1h-1l-1 1h-1h-1h-1h-1h-1h-1h-1h-1h-1h-1h-1h-1h-1h-1l-1 1h-1h-1h-1h-1h-1h-1h-1h-1h-1h-1h-1h-1h-1h-1l-1 1h-1h-1h-1h-1h-1h-1h-1h-1h-1h-1h-1h-1h-1h-1
l-1 1h-1h-1h-1h-1h-1h-1h-1h-1h-1h-1h-1h-1h-1h-1h-1v1h-1h-1h-1h-1h-1h-1h-1h-1h-1h-1h-1h-1h-1h-1h-1l-1 1h-1h-1h-1h-1h-1h-1h-1h-1h-1h-1h-1h-1h-1h-1l-1 1h-1h-1h-1h-1h-1h-1h-1h-1h-1h-1h-1h-1h-1h-1l-1 1h-1h-1h-1h-1h-1h-1h-1h-1h-1h-1h-1h-1h-1h-1h-1l-1 1h-1h-2
q-138 9 -277 18q-45 3 -89 6t-87 3q-187 -3 -288.5 -103t-104.5 -288q-3 -106 6 -210.5t15 -210.5q0 -6 9 -13.5t15 -16.5q9 9 21 16.5t16 16.5q57 131 111.5 261t109.5 257q3 12 7.5 23t10.5 26z" />
</svg>
