<?xml version="1.0" standalone="no"?>
<!DOCTYPE svg PUBLIC "-//W3C//DTD SVG 1.1//EN" "http://www.w3.org/Graphics/SVG/1.1/DTD/svg11.dtd" >
<svg xmlns="http://www.w3.org/2000/svg" xmlns:xlink="http://www.w3.org/1999/xlink" version="1.1" width="2048" height="2048" viewBox="-11 0 2069 2048">
   <path fill="currentColor"
d="M1909 851q-115 -104 -246.5 -183t-281.5 -125q-206 -65 -416.5 -93t-427.5 -34q-93 9 -189 14.5t-193 14.5q-14 0 -23.5 5.5t-15.5 19.5q-45 82 -69 169.5t-36 180.5q-25 201 6 397t96 388q6 17 16 23t26 3q68 -14 136 -24t133 -24q113 -23 224.5 -50t215.5 -77
q60 -26 112 -62.5t80 -101.5q3 -6 14.5 -10t19.5 -4l34 5q17 3 34 9q102 31 202 65t202 62q68 23 138 39l142 34q28 6 52 -1t41 -30q20 -28 39.5 -56t30.5 -57q51 -127 41.5 -254t-137.5 -243zM893 1340q-57 31 -116 50.5t-122 34.5l-231 50q-116 26 -232 51q-14 3 -21 -1
t-13 -19q-19 -104 -42 -207t-45 -205q-3 -17 2.5 -24t19.5 -10q48 -11 95 -4t89 30q54 28 104.5 62t101.5 65q37 22 75 43.5t78 38.5q62 22 120 16.5t114 -39.5q17 -11 34 -22.5t28 -25.5q23 -23 45.5 -23t47.5 9q-22 45 -56 76t-76 54zM1935 1323q-31 54 -69 72t-95 4
l-153 -45q-76 -23 -149 -51q-130 -48 -263 -87.5t-271 -62.5q-25 -5 -52 -13.5t-52 -19.5q-40 -23 -58.5 -61t-12.5 -83q11 -63 42 -112t74 -92q3 -3 5.5 -7t8.5 -7v-1v-5q-226 -2 -431 55.5t-394 184.5v-21v-21q9 -96 27 -192t58 -186q14 -40 39.5 -57t64.5 -20
q113 -8 227.5 -11t227.5 1.5t224.5 15.5t224.5 31q195 34 370 116t322 217q26 23 50 48.5t43 53.5q14 28 24 59t16 62q5 63 -6 122t-42 113zM1850 961q-107 -107 -228.5 -190.5t-262.5 -133.5q-127 -46 -257 -65.5t-263 -22.5q-102 -3 -200.5 3t-197.5 31q-65 20 -119 53.5
t-87 96.5q-3 2 -4.5 6.5t-4.5 10.5h10h7q102 -20 205 -37t205 -34q87 -11 173 -14t171 14q175 37 325 120t277 205q3 0 4 2.5t4 11.5q-8 -6 -12.5 -8.5t-9.5 -5.5q-40 -26 -81 -50t-80 -49q-15 -9 -29 -13t-34 4q-14 6 -32 10.5t-35 6.5q-12 0 -26 -2.5t-19 -11.5
q-6 -8 -6 -24v-27q3 -5 7 -11t7 -14q-68 -34 -138.5 -49.5t-143.5 -21.5q-6 0 -10.5 1.5t-6.5 4.5q-23 17 -38.5 38t-18.5 50q-3 53 12.5 102.5t58.5 83.5q42 31 84.5 59.5t87.5 50.5q175 82 358.5 111.5t373.5 32.5q5 0 13.5 -7t8.5 -13q34 -81 27 -157.5t-75 -147.5z" />
</svg>
