<?xml version="1.0" standalone="no"?>
<!DOCTYPE svg PUBLIC "-//W3C//DTD SVG 1.1//EN" "http://www.w3.org/Graphics/SVG/1.1/DTD/svg11.dtd" >
<svg xmlns="http://www.w3.org/2000/svg" xmlns:xlink="http://www.w3.org/1999/xlink" version="1.1" width="2048" height="2048" viewBox="-10 0 2068 2048">
   <path fill="currentColor"
d="M1739 474l-39 -31l-1524 1422l1425 -1509l-40 -34q-136 -74 -300 -67t-309 55q-39 12 -80.5 29t-80.5 36q-85 40 -163 92.5t-149 117.5q-155 147 -255.5 337t-149.5 396q-14 60 -25 119.5t-20 118.5q-8 74 -15.5 149t-12.5 151q-3 63 4 129.5t95 60.5h32h30
q221 -6 442 -17t433 -82q139 -45 266.5 -120.5t231.5 -176.5q77 -77 142 -170.5t110.5 -196.5t68 -213.5t14.5 -221.5q-9 -99 -36 -198t-95 -176zM1963 2l85 85l-1594 1503z" />
</svg>
