<?xml version="1.0" standalone="no"?>
<!DOCTYPE svg PUBLIC "-//W3C//DTD SVG 1.1//EN" "http://www.w3.org/Graphics/SVG/1.1/DTD/svg11.dtd" >
<svg xmlns="http://www.w3.org/2000/svg" xmlns:xlink="http://www.w3.org/1999/xlink" version="1.1" width="2048" height="2048" viewBox="-10 0 2068 2048">
   <path fill="currentColor"
d="M1965 1446q-11 0 -16.5 6t2.5 20q31 45 17 86.5t-28 81.5q-9 20 -21.5 18.5t-21.5 -18.5q-17 -40 -31.5 -80t5.5 -85q6 -9 6 -16t-8 -10q-29 -6 -59 -8.5t-53 11.5q-19 8 -3.5 24t12.5 33q0 14 4.5 28.5t6.5 25.5q9 57 34.5 99.5t96.5 42.5q-20 26 -38.5 43t-52.5 3
q-11 -6 -22.5 -1.5t-17.5 15.5q-8 20 2 28.5t21 17.5q12 5 24.5 4t24.5 -1q34 -3 59.5 -21.5t42.5 -47.5q17 -23 28.5 -50t22.5 -52q20 -46 26 -93t20 -90v-5v-6q-20 0 -41.5 -1.5t-41.5 -1.5zM367 1153q35 23 73.5 34t75.5 17q19 6 25 0t6 -23q3 -57 8.5 -111t11.5 -111
q3 -17 -7 -30t-19 -27q-8 -14 -21 -27t-16 -33q3 -3 6 -3t8 3q17 3 26 18.5t29 21.5q8 -74 19.5 -146.5t28.5 -143.5q3 -9 7 -19t21 4q-20 100 -27 201t-12 201q-3 20 4 25.5t27 2.5q43 -11 82.5 -29.5t79.5 -44.5q3 6 4.5 10.5t-1.5 12.5q-37 32 -78.5 53t-86.5 36
q-20 5 -27 15t-7 30q-6 148 -4.5 295t21.5 295q3 17 -3 24t-23 4q-17 -6 -40 1.5t-23 -32.5q-2 -94 -2 -188t8 -188q3 -29 -7 -43t-38 -20q-40 -8 -75.5 -25.5t-67.5 -42.5q-5 -12 0.5 -14.5t13.5 -2.5zM302 529q0 97 -17 114t-111 17q-100 0 -115.5 -17t-15.5 -117v-17v-17
q0 -57 17 -74t71 -17h44h44q49 0 64.5 17t18.5 65v23v23zM367 1153q-2 5 -7 10l-7 7q-48 17 -96.5 14t-96.5 -6q-26 0 -36 -19.5t-10 -45.5v-59v-58q0 -34 18.5 -51t46.5 -17q35 -3 66 -3t63 3q31 0 46.5 18.5t15.5 46.5q0 40 -1.5 80t-1.5 80zM957 1591q3 20 -1.5 44.5
t18.5 44.5q6 8 3 16.5t-14 8.5h-50h-50q-11 0 -15.5 -7t4.5 -21q22 -37 16.5 -78.5t-5.5 -81.5q0 -14 -10 -21t-24 -7q-17 0 -31.5 7t-14.5 24q-3 40 -7 80t16 77l4.5 4.5t1.5 3.5q2 9 -0.5 13t-8.5 7q-28 0 -56.5 1.5t-57.5 -4.5q-8 -2 -7 -10.5t4 -14.5q17 -46 20 -93
t-25 -89q-6 -12 -3 -20.5t11 -8.5q20 -8 44 -24t47 21q6 6 10 3t10 -3q88 -37 129.5 -11.5t41.5 119.5v8v12zM806 956q0 -5 -1.5 -11t-1.5 -12v-57v-57q0 -28 16 -43.5t44 -15.5h56h52h12q5 0 8 3q54 31 43 78t-6 90q3 28 -17 41t-45 13q-40 -6 -83 1t-77 -30zM461 743
q-91 -3 -105 -19t-14 -107q0 -54 14 -68t68 -17q100 0 114.5 17t16.5 114q0 43 -19.5 61.5t-56.5 23.5q-6 3 -10.5 -1t-7.5 -4zM1028 1589v-33v-33q3 -14 -1 -24t-22 -13q-8 0 -12.5 -5.5t-4.5 -14.5q0 -8 6 -12.5t14 -7.5q26 -3 37.5 -20t14.5 -40q2 -17 11 -25.5t26 -5.5
q17 0 19.5 13t2.5 24q0 23 4.5 40t38.5 14q6 0 13 4.5t7 12.5q3 12 -4 19t-16 4q-40 -3 -40 18.5t-3 41.5q0 17 1.5 34t-1.5 34q0 20 7.5 35.5t32.5 15.5q12 0 19 3t7 15q0 14 -8.5 18t-20.5 4h-2h-6q-100 0 -108.5 -8.5t-11.5 -107.5zM886 330q0 68 -13 79.5t-87 11.5
q-65 0 -76.5 -13t-11.5 -90q0 -65 12.5 -75t89.5 -10q63 0 74.5 12.5t11.5 84.5zM1322 1480q11 -8 22.5 -18t25.5 -19q14 -5 27 -4t24 16q12 8 12 21t-6 24q-6 14 -17 17t-26 -3q-17 -5 -28.5 2t-13.5 24q-9 34 -13 68.5t21 65.5q12 14 7.5 22.5t-18.5 8.5q-17 3 -34.5 3
t-34.5 -3q-20 0 -42.5 1.5t5.5 -49.5q17 -31 20 -78t-40 -84q-8 -6 -6.5 -13t6.5 -16q26 -28 60 -22.5t49 36.5zM1128 575q63 0 74 12.5t11 78.5q0 65 -14 78t-80 13q-59 0 -73.5 -14.5t-14.5 -76.5q0 -63 14.5 -77t82.5 -14zM493 267q54 0 68 13t14 67q0 59 -12.5 72
t-72.5 13q-57 0 -68.5 -13t-11.5 -75q0 -54 11.5 -65.5t71.5 -11.5zM308 791q0 57 -10 65.5t-67 8.5t-67 -8.5t-10 -68.5q0 -54 12.5 -65.5t67.5 -11.5q51 0 62.5 11.5t11.5 68.5zM649 577q-11 -2 -17 3l-11 12q-9 -23 -10 -48.5t-4 -51.5q-3 -40 18.5 -50t52.5 -10
t52.5 8.5t21.5 51.5q0 63 -13 73t-90 12zM1023 498q0 45 -10 52t-62 10q-40 3 -49.5 -15.5t-9.5 -52.5q2 -49 10.5 -57.5t57.5 -8.5q45 0 54 10t9 62zM105 859q6 32 -8 42t-43 12q-34 0 -44 -15.5t-10 -43.5q0 -32 11.5 -43t42.5 -11q34 0 45.5 14t5.5 45zM1182 905
q-26 6 -37 -5.5t-11 -40.5q0 -25 8.5 -36.5t36.5 -11.5q29 0 41.5 11.5t12.5 39.5q-2 26 -13.5 37.5t-37.5 5.5zM453 831q6 28 -8.5 35.5t-37.5 9.5q-28 0 -36.5 -12.5t-8.5 -35.5q0 -28 11.5 -37t36.5 -11q29 0 39 12.5t4 38.5zM869 688q-23 3 -36 -5.5t-13 -33.5
q0 -26 8.5 -39t37.5 -13q26 0 37 11.5t11 37.5q0 25 -11 35t-34 7zM1008 295q3 23 -7 34.5t-33 11.5q-19 -3 -30.5 -7t-11.5 -30q0 -20 5.5 -34t31.5 -12q20 0 34 6t11 31zM518 842h-8h-6q-11 -8 -14 -21t-9 -27q-2 -6 0.5 -10t8.5 -2q8 15 14 30.5t14 29.5zM493 782l-6 6
l-6 6q-8 -12 -12.5 -24.5t-7.5 -26.5q3 0 7.5 1t10.5 4q2 9 5 17l6 17h3zM1735 1680q-23 -20 -20 -44.5t0 -44.5q0 -82 -24.5 -113.5t-89.5 -37.5q-23 -2 -46 0.5t-45 8.5q-15 3 -26 8.5t-17 22.5q-3 9 0 16t11 10q15 8 29 5.5t28 -14.5q12 -11 24.5 -16.5t29.5 2.5
q15 3 23.5 13t5.5 24q0 17 -11.5 14.5t-19.5 -2.5q-29 5 -54.5 11t-48.5 20q-40 26 -38.5 71.5t44.5 67.5q28 15 56.5 13.5t57.5 -15.5q5 -3 11 -10t17 4q17 20 41.5 14t46.5 -3q12 0 19 -8.5t-4 -16.5zM1624 1600q-3 23 -11.5 44t-40.5 21q-20 3 -27 -9.5t-4 -29.5
q0 -29 18.5 -40.5t44.5 -14.5q17 -2 18.5 8t1.5 21zM436 1489q-9 0 -14.5 -4.5t-17.5 -7.5q12 -5 17.5 -9.5t11.5 -7.5q11 -14 24 -27t19 -27q14 -40 -9 -71t-65 -40q-20 -3 -40 -3h-40h-90h-87q-8 0 -15.5 4.5t-15.5 7.5q6 5 8.5 11t5.5 14q6 6 10 14.5t4 17.5v141v138
q0 8 -4 15.5t-7 15.5q-3 6 -7 13t-10 13q8 3 17 7t17 4h110h109q15 0 30.5 -3t29.5 -8q37 -12 60 -39t23 -61q0 -37 -18.5 -64t-55.5 -44zM248 1355q0 -6 7 -14.5t13 -11.5q20 0 41 1.5t39 7.5q25 8 28 36.5t-17 51.5q-20 26 -48.5 37.5t-65.5 19.5v-65q0 -32 3 -63z
M373 1646l-4 4q-2 1 -4 4q-17 9 -43 16t-46 4q-20 -6 -25.5 -23t-5.5 -34v-13v-13q0 -48 8.5 -58t56.5 -21q26 -9 49 4t34 38q11 26 5.5 51.5t-25.5 40.5z" />
</svg>
