<?xml version="1.0" standalone="no"?>
<!DOCTYPE svg PUBLIC "-//W3C//DTD SVG 1.1//EN" "http://www.w3.org/Graphics/SVG/1.1/DTD/svg11.dtd" >
<svg xmlns="http://www.w3.org/2000/svg" xmlns:xlink="http://www.w3.org/1999/xlink" version="1.1" width="2048" height="2048" viewBox="-10 0 2068 2048">
   <path fill="currentColor"
d="M1622 628v-77v-73q0 -37 -17 -53.5t-53 -16.5h-339h-337h-337h-339q-36 0 -51.5 15.5t-15.5 51.5v213v210v15v14h43h47v-215v-214h327h327h328h327v66v64h45h45zM1303 1214h-445h-446v89v86h447h444v-89v-86zM1103 1598q0 -3 1.5 -5.5t4.5 -2.5q-43 -23 -60 -59.5
t-17 -79.5h-155h-155q-3 20 -5.5 41t-14.5 41q-8 17 -25 31t-34 34h233h227zM2048 1542q-14 33 -39.5 46t-62.5 13q-124 -3 -246.5 -1.5t-246.5 1.5q-45 0 -66.5 -21t-21.5 -69v-367v-367q0 -45 21.5 -66t66.5 -21h249h250q37 -3 61 11t35 51v395v395zM1997 1451v-348v-348
h-292h-292v348v348h292h292zM1845 1522q0 -14 -10 -24t-21 -10q-17 -3 -28.5 8.5t-11.5 25.5t11.5 25.5t25.5 11.5t24 -10t10 -27zM1636 1522q0 -14 -10 -25.5t-27 -8.5q-11 0 -22 10t-11 24t11 25.5t25 11.5q14 -3 24 -13t10 -24zM1707 1488q-14 -3 -24 7t-13 24
q0 17 10 27t24 13q17 0 27 -10t10 -24q0 -17 -10 -27t-24 -10zM48 1640q-28 -8 -38 -26.5t-10 -46.5v-258v-258q0 -34 14 -48t51 -17h113h113q31 3 46.5 17t15.5 48v261v263q0 26 -13 41.5t-35 23.5h-127h-130zM37 1099v217v214h139h140v-217v-214h-140h-139zM1622 628h-45
h-45v-64v-66h-327h-328h-327h-327v214v215h-47h-43v-14v-15v-210v-213q0 -36 15.5 -51.5t51.5 -15.5h339h337h337h339q36 0 53 16.5t17 53.5v73v77zM1303 1214v86v89h-444h-447v-86v-89h446h445zM917 1299q0 -17 -13 -28t-30 -9q-16 0 -27.5 11.5t-8.5 28.5q0 17 11 28
t28 11q14 0 27 -12.5t13 -29.5zM1103 1598h-227h-233q17 -20 34 -34t25 -31q12 -20 14.5 -41t5.5 -41h155h155q0 43 17 79.5t60 59.5q-3 0 -4.5 2.5t-1.5 5.5zM195 1581q0 9 -7 14.5t-16 5.5q-8 0 -15 -5.5t-7 -14.5q0 -11 7 -16.5t15 -5.5q9 0 16 5.5t7 16.5z" />
</svg>
