<?xml version="1.0" standalone="no"?>
<!DOCTYPE svg PUBLIC "-//W3C//DTD SVG 1.1//EN" "http://www.w3.org/Graphics/SVG/1.1/DTD/svg11.dtd" >
<svg xmlns="http://www.w3.org/2000/svg" xmlns:xlink="http://www.w3.org/1999/xlink" version="1.1" width="2048" height="2048" viewBox="-10 0 2061 2048">
   <path fill="currentColor"
d="M1738 1724l-3 3h-3q-3 6 -8.5 7.5t-11.5 3.5q-55 26 -110.5 50.5t-113.5 50.5h-7h-10q-29 -12 -57.5 -22t-57.5 -18q-34 -15 -70 -26.5t-70 -25.5q-72 -23 -142 -48.5t-142 -48.5q-40 -18 -83 -32t-86 -29q-63 -22 -126 -43.5t-123 -44.5q-12 -6 -22 -9t-18 -9h-2h-1
q-3 -2 -3 -7v-7q-6 -17 -7.5 -34.5t-1.5 -34.5q-2 -114 -2 -230v-234v-234v-230q0 -6 1 -9t1 -6v-2h2h1q3 0 6 2l6 6l314 314q156 156 310.5 312.5t311 312.5t313.5 311l6 5l6 6h1h2zM1738 1718q-3 0 -5 -1l-1 -1q0 -3 -1.5 -4.5t-4.5 -1.5q-157 -158 -313.5 -314
t-312.5 -312l-314 -314q-157 -158 -312 -313q-3 -2 -6 -5t-3 -6q3 0 4.5 -1.5t4.5 -1.5h5h6h454h455q20 0 41.5 1.5t41.5 7.5q3 0 7 1.5t7 3.5l3 3q6 9 8.5 19t5.5 21q32 86 62 170.5t59 168.5q20 54 38.5 108.5t38.5 108.5q32 89 62 178t61 178q6 11 9 22.5t9 23.5q2 2 1 8
t-1 12q-23 46 -43.5 93t-40.5 93l-11 23q-6 11 -9 23q-3 0 -3 3t-2 5zM442 1495q3 0 7.5 3t9.5 3q20 8 40.5 15.5t40.5 12.5q40 15 81.5 29t84.5 31q34 12 71.5 25t74.5 24q23 9 47.5 17.5t49.5 17.5q43 17 86 31t86 32q23 5 46 14l46 17q43 14 87.5 30t87.5 33q26 9 49 16
t48 19h8q4 0 7 -3q20 -9 40 -17l40 -18q14 -5 28.5 -12.5t28.5 -12.5q23 -9 47.5 -20.5t47.5 -20.5q6 -2 11.5 -5t11.5 -6q-12 34 -23.5 71.5t-22.5 71.5q-6 23 -13 44.5t-16 44.5q-3 14 -7 28.5t-10 28.5q-3 6 -4.5 7.5t-6.5 1.5h-63h-63h-175h-178h-133h-136
q-3 0 -7.5 -1.5t-7.5 -4.5q-3 -5 -8.5 -9.5t-8.5 -10.5q-72 -71 -143.5 -141.5t-142.5 -142.5q-9 -5 -16 -13.5t-16 -17.5q-20 -20 -36 -41.5t-27 -44.5q-17 -29 -28.5 -59t-20.5 -64v-3zM1758 1747q0 -9 4 -14.5t7 -11.5q6 -17 13 -32.5t16 -33.5q6 -14 11.5 -28.5
t14.5 -28.5q8 -20 16.5 -38.5t17.5 -38.5q3 -6 6 -13t5 -13q0 -6 1.5 -9t-1.5 -8q-8 -26 -18 -54.5t-22 -57.5q-5 -14 -9.5 -28.5t-10.5 -28.5q-11 -35 -24 -70.5t-24 -70.5q-9 -23 -16 -46t-16 -46q-14 -34 -26 -68l-23 -69q-8 -23 -17 -46l-17 -46q-12 -37 -24.5 -73
t-24.5 -70q-8 -26 -17 -49l-17 -46q-12 -34 -23.5 -68.5t-22.5 -68.5q-6 -9 -9 -19t-5 -19q14 3 28.5 7.5t28.5 10.5q34 14 67 31t62 43q14 9 25.5 22t25.5 24q18 17 35 35.5t34 36.5q58 57 113.5 113t113.5 113q3 3 4 7.5t1 6.5v253v252v127v131v1v2v7q0 1 -8 4
q-12 3 -22 6t-21 8q-57 18 -113 35t-111 37h-4h-1h-2h-1zM1505 437q-8 0 -16.5 -1.5t-17.5 -3.5q-6 0 -13 -1.5t-16 -1.5q-48 -3 -97 -3h-97h-402h-401h-6h-5v0q11 -9 24 -17.5t27 -17.5q35 -22 68 -43.5t67 -44.5q72 -49 142 -95t142 -92q34 -25 70 -48t73 -49
q6 -3 11.5 -7.5t14.5 -6.5q14 -6 30 -4.5t33 4.5q20 5 38.5 16.5t35.5 26.5q6 5 12 11l11 12q55 54 108 107t107 105q3 5 6 9.5t6 10.5q11 31 22.5 64t22.5 67v2v1zM431 429q3 3 3 5v6v235v235v235v235v29q0 14 2 29q0 14 1.5 27t7.5 27v3v6q-17 -6 -34.5 -12t-34.5 -14
q-17 -6 -35.5 -11.5t-35.5 -11.5q-3 -3 -7.5 -4.5t-7.5 -4.5q-57 -60 -114 -117l-118 -118q-17 -20 -30 -43t-19 -48q-2 -12 -2 -23.5t2 -22.5q3 -6 4.5 -10.5t4.5 -9.5q20 -29 40 -59t40 -59q78 -117 154 -232t153 -229q6 -12 13 -22t13 -21z" />
</svg>
