<?xml version="1.0" standalone="no"?>
<!DOCTYPE svg PUBLIC "-//W3C//DTD SVG 1.1//EN" "http://www.w3.org/Graphics/SVG/1.1/DTD/svg11.dtd" >
<svg xmlns="http://www.w3.org/2000/svg" xmlns:xlink="http://www.w3.org/1999/xlink" version="1.1" width="2048" height="2048" viewBox="-10 0 2063 2048">
   <path fill="currentColor"
d="M1188 1816q29 -53 72 -86.5t102 -44.5h24h24q22 7 43 14t38 21q19 22 46.5 48t53.5 36q53 19 94.5 -9.5t75.5 -62.5q23 -26 37.5 -62t0.5 -71q-12 -31 -39.5 -51.5t-46.5 -46.5q-38 -57 -32 -125t44 -121q16 -26 40 -45t55 -26q29 -7 57.5 -3.5t57.5 0.5q28 -2 56.5 -22
t36.5 -47q16 -54 14 -128t-64 -105q-62 -29 -129 -22t-117 -55q-24 -31 -39.5 -67.5t-17.5 -75.5q-3 -50 23.5 -82t57.5 -65q24 -24 37 -58.5t6 -68.5q-10 -31 -29 -54.5t-43 -43.5q-40 -35 -92.5 -41t-95.5 32l-24 24l-24 24q-9 9 -20 16t-25 12q-65 24 -121 6t-106 -61
q-2 -4 -7 -10t-9 -13q-12 -22 -18 -46t-6 -50q0 -19 1 -35.5t-4 -35.5q-11 -84 -109 -103t-158 22q-38 26 -45 69t-12 83q-2 45 -16.5 83.5t-52.5 64.5q-33 21 -75 33t-82 7q-22 -4 -41 -12.5t-38 -22.5q-36 -26 -65.5 -57t-82.5 -27q-45 3 -85.5 37.5t-62.5 72.5
q-28 57 -8 96.5t58 82.5q39 43 50.5 88t-4.5 103q-19 57 -52.5 94t-95.5 46q-33 3 -70 3t-68 14q-41 21 -48 65.5t-7 84.5q0 48 13 88.5t63 52.5q55 14 112 16.5t100 42.5q55 48 67 118.5t-26 129.5q-14 22 -31 42t-31 39q-19 27 -24 49.5t-7 50.5q12 15 18 33t18 32
q28 38 67.5 62t87.5 21q47 -2 77 -41.5t66 -63.5q23 -12 48.5 -16.5t51.5 -2.5q24 3 47.5 12.5t47.5 18.5q12 7 23 14.5t20 14.5q7 7 13 14t11 15q5 7 8.5 14t8.5 14q2 7 4.5 13t2.5 13q2 10 3 23t1 25v19v19q0 62 36 94.5t96 34.5q59 5 114 -12t67 -86q5 -24 1 -49t-1 -46z
M340 512h-3h3v0v0zM1021.5 1472q-183.5 0 -313.5 -130t-130 -313q0 -184 130 -314t313 -130q184 0 314 130t130 314q0 183 -130 313t-313.5 130zM1591 1751v0v0v0zM1625 1770v0h1h1h-1h-1z" />
</svg>
