<?xml version="1.0" standalone="no"?>
<!DOCTYPE svg PUBLIC "-//W3C//DTD SVG 1.1//EN" "http://www.w3.org/Graphics/SVG/1.1/DTD/svg11.dtd" >
<svg xmlns="http://www.w3.org/2000/svg" xmlns:xlink="http://www.w3.org/1999/xlink" version="1.1" width="2048" height="2048" viewBox="-10 0 2068 2048">
   <path fill="currentColor"
d="M2043 1058q-2 -6 -8 -6t-11 6q-6 2 -10 5t-7 6q0 -37 -5.5 -56.5t-25.5 -28.5q-28 -14 -53.5 -7t-51.5 24v-11q0 -6 -3 -9q0 -8 -4 -12.5t-10 -4.5q-8 0 -12.5 4.5t-4.5 12.5v17v17v28q0 15 -2 29q0 8 -7 13.5t-16 5.5q-11 0 -17 -5.5t-6 -13.5q-2 -3 -2 -6v-6
q-3 -11 -4.5 -22.5t-4.5 -22.5q-3 -20 -17 -27t-31 5q-8 2 -15 10.5t-16 17.5q-3 3 -4.5 5.5t-3.5 5.5q-6 -31 -20 -41t-57 16q3 -3 3 -6t3 -6v-12q0 -7 -8 -10q-9 -3 -13 1t-7 13l-6 17q-3 8 -5 17q-9 17 -17.5 35t-22.5 33q-6 5 -13 8t-15 0q-9 -3 -10 -10t-1 -15l5 -34
l6 -34q0 -6 -3 -11.5t-6 -8.5q-8 -3 -12.5 1.5t-6.5 9.5q-3 3 -4.5 7.5t-1.5 7.5q-3 11 -7 22t-10 23q-3 8 -10 15t-18 4q-11 0 -14 -8t-3 -17q-3 -14 -6 -25.5t-8 -22.5q-3 -14 -15.5 -17t-24.5 6l-11 11l-11 11q-3 3 -6 7.5t-8 9.5q0 -11 2.5 -19.5t8.5 -16.5
q20 -20 35.5 -44t26.5 -52q8 -26 12.5 -50t-1.5 -49q-5 -20 -19.5 -24t-28.5 4q-8 6 -13.5 13t-8.5 12l-12 23q-5 11 -8 23q-6 31 -11.5 64.5t-11.5 67.5q0 3 -1 7.5t-4 6.5q-23 26 -48.5 50t-56.5 41q-28 17 -57.5 22.5t-63.5 -0.5q-45 -11 -73.5 -46.5t-25.5 -77.5
q6 -59 51 -110t99 -68q22 -5 43.5 -2.5t40.5 19.5q6 6 13 9t13 -6q5 -6 2.5 -13t-8.5 -12.5t-13 -11t-15 -8.5q-17 -9 -35.5 -9t-37.5 3q-94 20 -139 95t-48 140q-3 14 -5.5 29.5t-8.5 29.5q-6 17 -21.5 21t-29.5 -4q-14 -6 -16.5 -23t5.5 -31q17 -28 34 -57.5t31 -60.5
q11 -20 15.5 -42.5t1.5 -48.5q-3 -11 -8.5 -19.5t-17.5 -11.5q-11 -3 -21 1.5t-15 12.5q-9 12 -16 24.5t-12 23.5q-12 40 -17.5 79.5t-11.5 81.5q-2 23 -13.5 40t-28.5 28q-11 11 -21 5.5t-10 -19.5q0 -11 1.5 -22.5t1.5 -20.5q3 -11 4 -21t1 -18q0 -6 -4 -10t-7 -4t-7 1.5
t-7 3.5q-3 6 -5.5 11.5t-2.5 11.5q-6 11 -7.5 21t-7.5 21q-2 9 -9 17.5t-13 16.5q-11 9 -22.5 4.5t-17.5 -18.5q-2 -5 -3.5 -12.5t-1.5 -15.5q0 -14 1.5 -27t1.5 -27t-8.5 -24t-23.5 -7q-11 0 -22 3t-20 9q-25 16 -40.5 39t-21.5 51q-6 17 -3 32.5t20 26.5q14 11 29.5 11
t29.5 -5q12 -6 20 -13t17 -15q8 11 19.5 18t25.5 4q14 0 25.5 -7t22.5 -15q14 22 27 29t30 2q19 -3 30.5 -16t22.5 -27q17 45 61 46.5t66 -57.5q37 42 73.5 59t90.5 14q42 -2 76 -20.5t62 -46.5q11 -12 19.5 -21.5t20.5 -21.5q3 9 3 13v10q-3 17 -4.5 35.5t-1.5 34.5v15
q0 5 8 8q9 0 14.5 -3t8.5 -11q3 -9 5.5 -18.5t5.5 -18.5q6 -17 13 -32.5t15 -32.5q0 -3 6 -5l11 -6q3 6 6 10t3 7q3 11 4 21t4 18q6 20 20 25.5t31 0.5q6 -3 13 -7t13 -7q2 14 8 25t20 14q14 6 26.5 1.5t24.5 -9.5q8 14 16.5 12.5t16.5 -15.5q3 -6 6 -13t6 -12q8 -15 15 -29
t16 -28q5 -8 12.5 -12.5t15.5 -1.5q8 6 9.5 14.5t1.5 13.5v4q0 2 -3 2q0 14 -2.5 26.5t-2.5 26.5q0 3 2.5 9t5.5 6q6 0 11.5 -1.5t8.5 -7.5q3 0 4.5 -4t1.5 -10q8 -17 16.5 -35.5t17.5 -35.5q2 -2 8 -5t11 -3q3 0 6 5.5t6 11.5q0 8 1 19.5t4 22.5q6 28 17 38t37 7q3 -2 3 -1
v1q-3 12 -6 26t-3 25v27q0 13 3 27q3 11 7 21t10 21q8 9 18 6t16 -14q3 -3 3 -7v-7q2 -17 3.5 -35.5t1.5 -35.5v-31v-31h3h6q3 0 5 3q46 11 84 1t72 -38q5 -6 6.5 -11.5t-4.5 -10.5zM1358 823q0 -3 2.5 -7t5.5 -4q3 -3 7 -4.5t7 -1.5t6 6t3 8v16q0 7 -3 15q-6 29 -18.5 54.5
t-32.5 47.5v4v5q-3 0 -4 -2l-2 -1q3 -37 9 -71t20 -65zM878 849q3 -3 4 -7.5t7 -9.5q3 -3 7 -4.5t7 -1.5q6 3 8.5 7t2.5 10q3 6 1.5 13t-3.5 12q-14 29 -27 58.5t-27 57.5h-1h-5q6 -34 10.5 -67.5t15.5 -67.5zM598 1066q-2 8 -9.5 14t-12.5 9q-17 8 -30 -2t-13 -29
q6 -26 18.5 -44.5t35.5 -32.5q14 -8 22.5 -2.5t8.5 22.5l2 1l1 2q-6 14 -11.5 31t-11.5 31zM1843 1233q-8 -26 -8 -50t8 -49v49v50zM1950 1086q-17 5 -31 5t-28 -5q-11 -6 -15.5 -13t-4.5 -18q0 -14 6 -24t20 -16q17 -5 32.5 -8t29.5 8q20 14 15.5 38t-24.5 33zM497 1103
q-14 0 -21 -7t-13 -16q-6 -14 -7.5 -29.5t1.5 -29.5q3 -26 8.5 -50t11.5 -49q3 -14 7 -29.5t4 -29.5q3 -23 -11 -34t-34 -6q-20 3 -35.5 13t-26.5 24q-31 34 -52 72t-41 78q-6 14 -11.5 25t-11.5 25l-3 -2h-2q2 -15 3.5 -27.5t1.5 -26.5q6 -23 10 -48t7 -51q0 -11 -2.5 -25
t-17.5 -23q-16 -6 -27.5 1.5t-22.5 15.5q-17 17 -32.5 35.5t-29.5 37.5q-15 23 -30.5 47t-29.5 49q0 -8 1.5 -12.5t1.5 -6.5q6 -23 11.5 -45.5t8.5 -45.5q6 -22 4.5 -43.5t-10.5 -43.5q-5 -14 -16.5 -22.5t-28.5 -11.5q-17 0 -31 5.5t-25 19.5q-3 3 -4.5 7.5t-1.5 6.5
q0 3 1.5 7.5t4.5 7.5h7q4 0 7 -3q5 0 9.5 -4.5l7.5 -7.5q11 -8 22.5 -5t16.5 17q3 3 6 8.5t3 11.5v28q0 14 -3 28q-6 31 -14.5 63.5t-16.5 63.5q-3 14 -4.5 25.5t-1.5 25.5q-3 3 1.5 7t7.5 7q2 0 8 -1.5t9 -4.5q5 -3 9.5 -8.5t6.5 -11.5q12 -16 22 -34.5t21 -35.5
q20 -31 41 -62t44 -59q5 -9 13.5 -14.5t14.5 -11.5q3 0 4 2l1 1v10v10q-2 17 -3.5 32.5t-4.5 32.5q-3 22 -6 46t-3 50q-2 8 2 15t15 10q9 3 19 0t15 -11q6 -6 11.5 -14.5t8.5 -16.5l27 -54q13 -25 24 -54q14 -22 31 -43t39 -38q6 -3 14.5 -4.5t14.5 -4.5q0 9 1 16t1 12
q-5 26 -12 50t-13 49q-3 23 -4.5 45.5t-1.5 44.5q3 26 24.5 43t46.5 14q6 -3 11.5 -6t5.5 -11q0 -6 -4.5 -8.5t-9.5 -2.5zM1507.5 956q11.5 0 21 -8.5t9.5 -22.5q0 -11 -5.5 -18.5t-13.5 -7.5q-12 0 -22 10t-10 27q0 9 4.5 14.5t16 5.5zM751 945q14 0 21 -7t7 -22
q0 -8 -5.5 -15t-14.5 -7q-11 0 -18 8.5t-7 22.5q0 8 4 14t13 6z" />
</svg>
