<?xml version="1.0" standalone="no"?>
<!DOCTYPE svg PUBLIC "-//W3C//DTD SVG 1.1//EN" "http://www.w3.org/Graphics/SVG/1.1/DTD/svg11.dtd" >
<svg xmlns="http://www.w3.org/2000/svg" xmlns:xlink="http://www.w3.org/1999/xlink" version="1.1" width="2048" height="2048" viewBox="-10 0 2058 2048">
   <path fill="currentColor"
d="M1929 332q-3 0 -7 -1t-7 -4q-191 -75 -380.5 -149t-380.5 -152q-59 -25 -113 -26t-116 23q-104 43 -209 84.5t-211 82.5l-213 80q-106 41 -211 81q-16 5 -21.5 14.5t-5.5 25.5q3 65 3 129.5t2 131.5q6 84 4.5 170t3.5 172q3 113 3 226t6 226v55v55q-3 16 3.5 25.5
t20.5 17.5q113 56 224 111q112 56 225 111t224.5 110t224.5 109q13 8 24 8t24 -8q19 -11 39.5 -20.5t38.5 -19.5q103 -49 202.5 -98.5t200 -98t201.5 -98.5t201 -98q13 -8 19.5 -15t6.5 -23q6 -140 10 -279.5t9 -279.5q3 -83 3 -168t5 -168q6 -62 6 -122.5t2 -122.5
q6 -65 3 -69t-64 -28zM960 1852q0 19 -4 23t-23 -4q-177 -89 -354.5 -176.5t-355.5 -176.5q-13 -5 -18.5 -14.5t-5.5 -22.5q0 -121 -2.5 -242.5t-2.5 -242.5q-3 -113 -5.5 -227t-5.5 -227v-19v-21q73 32 143 61.5t140 61.5q118 51 236.5 102.5t236.5 102.5q13 5 18.5 13
t5.5 24v246q0 123 -1.5 246.5t-1.5 246.5v246zM1009 725q-175 -78 -350 -153.5t-349 -153.5q-3 0 -10 -2.5t-9 -10.5q185 -70 366.5 -141.5t364.5 -141.5q8 -2 16 -2t16 5q173 67 346 135l346 134q2 3 6 4t4 7q-43 21 -87 40t-87 40q-135 60 -268 119t-265 118
q-11 3 -20 5.5t-20 -2.5zM1861 534q-2 121 -6 243.5t-7 243.5q-3 83 -5.5 165t-5.5 163q-3 37 -4 73.5t-1 71.5q0 16 -8 23t-19 12q-153 75 -306.5 150.5t-306.5 147.5q-25 14 -50.5 26t-54.5 28v-44v-39v-230v-230v-231v-229q0 -21 8 -32t27 -19q177 -78 353.5 -156
t353.5 -159q24 -10 28 -7.5t4 29.5z" />
</svg>
