<?xml version="1.0" standalone="no"?>
<!DOCTYPE svg PUBLIC "-//W3C//DTD SVG 1.1//EN" "http://www.w3.org/Graphics/SVG/1.1/DTD/svg11.dtd" >
<svg xmlns="http://www.w3.org/2000/svg" xmlns:xlink="http://www.w3.org/1999/xlink" version="1.1" width="2048" height="2048" viewBox="-10 0 2067 2048">
   <path fill="currentColor"
d="M1 0v511v513v511v513h510h513h513h510v-513v-511v-513v-511h-510h-513h-513h-510zM1888 1884h-430h-431h-430h-432v-429v-430v-429v-429h432h430h429h432v429v429v430v429zM306 1006v-202v-202q0 -9 1.5 -16t15.5 -7q85 -11 171.5 -15.5t170.5 12.5q116 26 186.5 96.5
t96.5 186.5q17 73 14 148t-26 148q-31 113 -105.5 181t-190.5 93q-79 14 -159.5 13t-159.5 -7q-12 -3 -13.5 -8.5t-1.5 -11.5v-62v-59v-146v-142zM445 1006v0v70v74v73v71q0 14 4 18t16 4q22 0 42 1.5t42 -1.5q102 -5 163 -56t86 -147q17 -59 17 -120t-14 -120
q-14 -57 -46.5 -98t-86.5 -66q-51 -20 -103 -22.5t-106 5.5q-11 3 -12.5 8.5t-1.5 14.5v145v146zM1371 989q-2 17 -5 36.5t-9 39.5q-22 88 -45 177t-45 179q-3 8 -7 9.5t-13 1.5h-45h-48q-9 3 -14.5 -1t-8.5 -16q-14 -53 -28 -108.5t-25 -108.5q-26 -91 -48 -180
q-23 -89 -46 -179q0 -6 -1 -11.5t-4 -13.5h46h44q34 0 41 5.5t16 39.5q19 101 37.5 204.5t38.5 207.5q0 6 1.5 10t6.5 10q6 -25 10.5 -49.5t9.5 -49.5q23 -90 45.5 -180.5t42.5 -183.5q3 -9 8.5 -13t13.5 -1h39q18 0 35 -3q11 0 16.5 5.5t8.5 13.5q26 113 51.5 226.5
t50.5 223.5q0 2 1.5 5t4.5 6q2 -9 3.5 -17t1.5 -17q23 -104 44 -211.5t41 -215.5q3 -11 7 -15t16 -1h53h60q-6 22 -13 46t-13 47q-34 128 -68 253q-34 126 -67 252q-3 12 -9 17.5t-17 2.5h-44h-41q-11 3 -16.5 -1t-8.5 -19q-25 -101 -49 -203t-47 -206q0 -3 -1.5 -7t-4.5 -7
h-1h-2z" />
</svg>
