<?xml version="1.0" standalone="no"?>
<!DOCTYPE svg PUBLIC "-//W3C//DTD SVG 1.1//EN" "http://www.w3.org/Graphics/SVG/1.1/DTD/svg11.dtd" >
<svg xmlns="http://www.w3.org/2000/svg" xmlns:xlink="http://www.w3.org/1999/xlink" version="1.1" width="2048" height="2048" viewBox="-11 0 2069 2048">
   <path fill="currentColor"
d="M166 1052q-5 -181 56 -345.5t171.5 -296.5t261 -221.5t326.5 -118.5q-139 3 -262.5 33t-230 89.5t-194.5 147.5t-156 207q-74 128 -108 255.5t-29.5 255.5t48.5 252.5t123 247.5q71 107 159 185t190 130.5t218.5 78.5t244.5 26q-182 -32 -329.5 -120t-255.5 -212.5
t-167.5 -279.5t-65.5 -314zM263 735q-9 19 -4.5 22t24.5 3h424h424h425h424h16h15v-1v-5q-3 -2 -4.5 -8t-1.5 -9q-51 -153 -147.5 -273.5t-229.5 -208.5q-150 -99 -317.5 -130.5t-343.5 2.5q-131 23 -240 75.5t-195.5 129t-153.5 177.5t-115 226zM246 865q-9 -3 -11.5 1.5
t-5.5 12.5q-3 20 -4.5 40t-4.5 40q0 8 3 11t12 3h139h139h8h9h302h302h302h303h8h9h137h141q8 0 11 -4.5t3 -9.5q-3 -20 -6 -38.5t-3 -35.5q0 -14 -5.5 -17t-16.5 -3h-440h-439h-438h-437h-10h-7zM2034 1075h-141q-69 0 -137 3q-6 -3 -9 -3h-8h-303h-302h-302h-302h-9
q-3 0 -8 3q-68 -3 -139 -3h-139q-9 0 -12 3t-3 11q3 20 4.5 41.5t4.5 41.5q3 5 4.5 9.5t9.5 4.5q71 -3 143 -3h147h7h10h292h294h292h291h10h10h142h144q6 0 9 -1.5t3 -7.5q2 -22 5 -43.5t6 -41.5q0 -8 -3 -11t-11 -3zM521 1143v0h3h-1h-2zM1991 1288h-430h-427h-427h-427
q-6 0 -11.5 -1.5t-11.5 4.5q0 8 3 14t3 11q45 137 141.5 264.5t234.5 217t315 126t385 -8.5q167 -34 299 -126t234 -226q45 -59 79.5 -124.5t56.5 -136.5q6 -20 -4 -17t-13 3z" />
</svg>
