<?xml version="1.0" standalone="no"?>
<!DOCTYPE svg PUBLIC "-//W3C//DTD SVG 1.1//EN" "http://www.w3.org/Graphics/SVG/1.1/DTD/svg11.dtd" >
<svg xmlns="http://www.w3.org/2000/svg" xmlns:xlink="http://www.w3.org/1999/xlink" version="1.1" width="2048" height="2048" viewBox="-11 0 2069 2048">
   <path fill="currentColor"
d="M2037 1115q-19 -97 -90 -176.5t-166 -109.5q-30 -11 -65 -18t-68 -10h-39q-20 0 -39 5q-25 3 -33.5 -2.5t-13.5 -27.5q-6 -36 -18.5 -71t-29.5 -68q-25 -45 -55.5 -82.5t-72.5 -70.5q-69 -56 -157 -84t-180 -19q-61 5 -116.5 23t-108.5 52q-28 19 -54.5 41.5t-48.5 47.5
q-5 5 -8 9.5t-9 9.5q-25 28 -41.5 61.5t-30.5 69.5q-6 9 -8.5 20t-5.5 22q-3 3 -3 8.5t-2 10.5q-95 -25 -196.5 -9.5t-182.5 68.5q-19 17 -40 33.5t-41 33.5q-55 61 -86 141.5t-28 164.5q3 67 24 135t60 124q14 14 26.5 29t28.5 29q70 58 162 96t181 57q28 3 53 5.5t52 2.5
q179 3 357 3h356h128q64 0 128 -8q86 -6 162.5 -42t149.5 -78q41 -22 76 -51t54 -71q37 -70 46.5 -149t-7.5 -155zM1244 1238q-19 33 -40 66.5t-43 64.5q-22 28 -43 61t-52 53q-5 8 -15 12t-18 4q-28 6 -54.5 -3.5t-48.5 -23.5q-11 -9 -16.5 -18.5t-11.5 -20.5
q-3 -9 -7 -14.5t-1 -13.5q2 -6 8 -10t8 -10q6 -2 10 -7l7 -7q8 -11 18 -19t18 -17q6 -11 13 -23.5t15 -23.5q8 -17 16.5 -37.5t8.5 -40.5q0 -28 -22 -29.5t-39 -1.5q-75 3 -128 -45.5t-78 -115.5q-22 -61 -23.5 -129.5t20.5 -132.5q6 -14 13 -26.5t15 -23.5
q11 -16 23.5 -31.5t29.5 -26.5q14 -14 30.5 -24t33.5 -18q33 -14 75 -21t78 -7t71 7t68 24q56 31 95 81t50 111q8 33 11 69.5t0 69.5q-3 36 -8.5 71t-16.5 68zM61 1383v0v0v0zM2037 1221v0v0v0zM1111 923q-3 -5 -3 -12v-13q-3 -19 -7 -37t-13 -38q-5 -19 -16 -36t-31 -22
q-17 -6 -33.5 1t-24.5 21q-9 17 -11.5 36.5t-2.5 38.5q0 14 1.5 28t3.5 28q6 19 14.5 41.5t24.5 39.5q25 19 53 15t39 -35q3 -14 4.5 -28t1.5 -28z" />
</svg>
