<?xml version="1.0" standalone="no"?>
<!DOCTYPE svg PUBLIC "-//W3C//DTD SVG 1.1//EN" "http://www.w3.org/Graphics/SVG/1.1/DTD/svg11.dtd" >
<svg xmlns="http://www.w3.org/2000/svg" xmlns:xlink="http://www.w3.org/1999/xlink" version="1.1" width="2048" height="2048" viewBox="-11 0 2069 2048">
   <path fill="currentColor"
d="M1446 1482q3 0 8.5 1t8.5 1q68 0 134 -1t131 1q15 0 20.5 -5.5t5.5 -19.5q-3 -17 -3 -37v-42q76 56 149.5 110t147.5 107q-74 57 -147.5 110.5t-149.5 110.5v-40v-36q0 -23 -3 -26t-25 -3h-424h-424h-424h-425q-19 0 -22 -4t-3 -24v-89v-89q-3 -14 2.5 -19.5t20.5 -5.5
q113 2 227 2h229h228h229q116 -2 206.5 -50.5t152.5 -149.5q110 -181 17 -376.5t-305 -226.5q-162 -22 -294.5 74t-161.5 263q-3 17 -4 35.5t-1 37.5q25 -2 50.5 -5t53.5 -9q-42 85 -84.5 165.5t-84.5 159.5q-65 -65 -128 -130l-1 -1l-1 -2l-2 -1l-1 -2l-2 -1l-1 -1l-1 -2
l-2 -1l-1 -1l-1 -2l-1 -1l-2 -1l-1 -2l-1 -1l-1 -1l-1 -1l-2 -2l-1 -1l-1 -1l-1 -1l-1 -1l-1 -2l-1 -1l-1 -1l-1 -1l-1 -1l-1 -1l-1 -1l-1 -1l-1 -1l-1 -1l-1 -1l-1 -1l-1 -1l-1 -1l-1 -1l-1 -1l-1 -1l-1 -1l-1 -1v-1h-1l-1 -1l-1 -1l-1 -1l-1 -1v-1l-1 -1h-1l-1 -1v-1
l-1 -1l-1 -1h-1v-1l-1 -1l-1 -1h-1v-1l-1 -1l-1 -1h-1v-1l-1 -1l-1 -1l-1 -1l-1 -1l-1 -1l-1 -1l-1 -1v-1h-1l-1 -1l-1 -1v-1h-1l-1 -1v-1l-1 -1h-1v-1l-1 -1l-1 -1h-1v-1l-1 -1l-1 -1h-1v-1l-1 -1l-1 -1h-1v-1l-1 -1l-1 -1l-1 -1l-1 -1l-1 -1l-1 -1v-1h-1l-1 -1l-1 -1
l-1 -1v-1l-1 -1h-1l-1 -1l-1 -1v-1l-1 -1l-1 -1l-1 -1h-1l-1 -1v-1l-1 -1l-1 -1l-1 -1l-1 -1l-1 -1l-1 -1v-1l-1 -1h-1l-1 -1l-1 -1l-1 -1l-1 -1l-1 -1l-1 -1l-1 -1l-1 -1l-1 -1v-1l-1 -1l-2 -2q14 -3 34 -5.5t42 -5.5l7 -7q5 -4 5 -7q0 -45 2.5 -87.5t11.5 -85.5v-4v-4
q-43 -6 -81 -21.5t-75 -38.5q-85 -59 -124.5 -159.5t-19.5 -199.5q23 -110 99 -185t184 -95q68 -14 131.5 -1t122.5 50q12 5 19 5t12 -11q6 -6 11.5 -13t11.5 -13q8 34 16.5 66.5t17.5 66.5q3 9 5.5 20t5.5 22.5t-1 17t-16 5.5q-36 -2 -72 -5q-35 -3 -72 -6q-8 0 -16.5 -1.5
t-20.5 -1.5q9 -11 17.5 -21t16.5 -21q-20 -14 -41 -22.5t-44 -11.5q-107 -17 -186 52t-79 177q2 85 63 148.5t143 71.5q11 0 15.5 -4t9.5 -13q60 -113 147.5 -190.5t209.5 -120.5q138 -48 275.5 -32.5t250.5 82t193.5 177t108.5 248.5q26 139 -4 265t-112 239q-3 5 -5.5 8
t-2.5 6q-3 0 -1.5 1.5t1.5 4.5z" />
</svg>
