<?xml version="1.0" standalone="no"?>
<!DOCTYPE svg PUBLIC "-//W3C//DTD SVG 1.1//EN" "http://www.w3.org/Graphics/SVG/1.1/DTD/svg11.dtd" >
<svg xmlns="http://www.w3.org/2000/svg" xmlns:xlink="http://www.w3.org/1999/xlink" version="1.1" width="2048" height="2048" viewBox="-10 0 2058 2048">
   <path fill="currentColor"
d="M667 701.5q0 12.5 -10.5 22.5t-22.5 10q-13 0 -21.5 -10t-8.5 -23q0 -12 8.5 -21t21.5 -9q12 0 22.5 9t10.5 21.5zM679 556q-73 0 -127 52.5t-54 128.5q0 75 54 128t127 53q76 0 130 -53t54 -128q0 -76 -54 -128.5t-130 -52.5zM684.5 853q-45.5 0 -77 -33t-31.5 -78
q0 -46 31.5 -78.5t76.5 -32.5q46 0 78.5 32.5t32.5 78.5q0 45 -32.5 78t-78 33zM1467 734q13 0 21.5 -10t8.5 -23q0 -12 -8.5 -21t-21.5 -9t-21.5 9t-8.5 21q0 13 8.5 23t21.5 10zM1522.5 925q75.5 0 128.5 -52.5t53 -128.5q0 -75 -53 -128t-129 -53q-75 0 -128 53t-53 128
q0 76 53 128.5t128.5 52.5zM1517.5 634q45.5 0 77 32.5t31.5 77.5q0 46 -31.5 77.5t-77.5 31.5q-45 0 -77.5 -31.5t-32.5 -77.5q0 -45 32.5 -77.5t78 -32.5zM1938 983q0 -186 -70.5 -351t-191.5 -288q-23 -70 -20.5 -152t30.5 -125q10 -15 21.5 -30t21.5 -30
q-101 -18 -185.5 10t-141.5 101q-8 10 -14.5 15t-13.5 7q-81 -32 -169 -51t-181 -19t-182.5 19t-169.5 51q-8 -2 -14 -7t-14 -15q-58 -73 -142.5 -101t-184.5 -10q10 15 21 30l22 30q27 46 29.5 129t-19.5 151q-121 123 -190.5 286.5t-69.5 349.5q0 86 16.5 169t46.5 161
q8 20 14 41.5t14 41.5t13 39t12 39q15 58 25 116t13 116v34v31q-3 5 -3 11v12l187 -169q25 23 59 44.5t74 38.5q-43 28 -68 74.5t-25 101.5q0 46 19 87.5t51 68.5q-2 -10 -4.5 -20t-2.5 -22q0 -63 44 -106t107 -43q60 0 104 43t44 106q0 12 -2.5 24.5t-4.5 25.5
q35 -30 55 -73t20 -91q0 -27 -6 -52.5t-19 -47.5q38 2 77 4.5t79 2.5q25 0 51.5 -1t54.5 -1q-13 20 -18 44t-5 51q0 46 19 87.5t49 68.5q-2 -10 -3.5 -20t-1.5 -22q0 -63 44 -106t105 -43q63 0 107 43t44 106q0 12 -2.5 24.5t-7.5 25.5q35 -30 56.5 -73t21.5 -91
q0 -50 -21.5 -93t-56.5 -73q42 -15 78.5 -34t64.5 -41l161 146q-2 -5 -2 -12v-11v-31v-34q2 -58 12 -116t25 -116q5 -20 11.5 -39t14.5 -39q7 -23 13.5 -44t16.5 -44q27 -75 42.5 -156t15.5 -164zM219 1255l-36 -103l46 43l70 -25zM236 1328l46 43l70 -25l-83 85zM347 1175
l43 45l70 -18l-88 78zM312 1610l-33 -103l45 40l71 -23zM425 1464l-33 -103l46 43l70 -25zM503 1207l43 46l73 -20l-88 78zM1027 1356q-13 -20 -25.5 -41.5t-22.5 -41.5q-13 -25 -24.5 -48t-23.5 -48q-23 -43 -53 -89.5t-40 -96.5q-48 38 -106 59t-123 21
q-149 0 -254.5 -105.5t-105.5 -256.5q0 -148 105.5 -254t254.5 -106q40 0 77.5 7.5t70.5 22.5q18 8 32 15.5t29 17.5q70 48 111.5 126t41.5 169v27q0 13 -2 25q12 -5 27 -7.5t31 -2.5q17 0 33.5 4t33.5 9q-2 -13 -3.5 -28t-1.5 -30q0 -23 2.5 -45.5t8.5 -45.5l1 -1
q1 -1 1 -4q0 -5 2.5 -10t2.5 -10q3 -5 4 -8.5t1 -6.5q3 -2 3 -4v-1q40 -101 130.5 -163.5t203.5 -62.5q151 0 257 105.5t106 256.5q0 149 -106 254.5t-257 105.5q-55 0 -106.5 -16.5t-94.5 -43.5q-8 -6 -15.5 -12t-14.5 -11q-5 25 -17.5 49t-28.5 52q-17 35 -36 70t-36 70z
M1706 1187l-28 106l-85 -81l70 21zM1434 1245l73 20l43 -45l-28 103zM1626 1477l-81 -86l70 23l46 -41zM1739 1620l-81 -85l71 25l45 -41zM1784 1444l-83 -86l70 23l46 -40zM1834 1268l-80 -86l70 25l46 -42zM1026.5 787q-70.5 0 -119.5 49t-49 120q0 55 30 105.5t55 98.5
q11 20 21 40t22 40q8 18 18 36.5t23 36.5l62 -118q18 -30 33 -60.5t33 -60.5q15 -30 27.5 -56.5t12.5 -61.5q0 -71 -49 -120t-119.5 -49z" />
</svg>
