<?xml version="1.0" standalone="no"?>
<!DOCTYPE svg PUBLIC "-//W3C//DTD SVG 1.1//EN" "http://www.w3.org/Graphics/SVG/1.1/DTD/svg11.dtd" >
<svg xmlns="http://www.w3.org/2000/svg" xmlns:xlink="http://www.w3.org/1999/xlink" version="1.1" width="2048" height="2048" viewBox="-10 0 2058 2048">
   <path fill="currentColor"
d="M1479 909q-2 -40 -9.5 -78t-18.5 -78q-31 -117 -83.5 -230.5t-125.5 -211.5q-19 -28 -41 -53t-45 -50l-50 -50q-24 -24 -41 -55q-10 -21 -20.5 -41t-21.5 -39v13v12v-12v-13q-2 -6 -3 -11.5t-5 -11.5q0 4 -1 6l-1 2q0 34 -17 57t-40 44q-25 23 -49 48.5t-49 48.5q0 2 1 3
t3 1q-2 0 -3 -1t-1 -3q-74 96 -136 201t-102 220q-10 36 -18.5 70.5t-14.5 68.5q-13 75 -19 148.5t-2 149.5q4 42 10.5 83t16.5 81q40 146 118.5 269t188.5 228q21 19 43 36.5t43 36.5v-2v0v2q2 11 5 21.5t7 20.5q2 17 5.5 34t5.5 33q2 17 3 35t3 35v21v23q0 2 3 4t5 4v0v0
q7 2 12 4t11.5 4.5t11.5 5.5t14 5q-2 -17 -3.5 -32.5t-1.5 -30.5v-29v-32q0 2 -1 2h-1h1q1 0 1 -2l5 -46l4 -46q0 -4 2 -9.5t4 -11.5q4 -6 8.5 -14.5t8.5 -17.5q17 -12 33.5 -24.5t31.5 -27.5l53 -54q27 -26 52 -55q31 -38 57.5 -79t49.5 -85q61 -126 88 -263.5t17 -277.5
v-1q0 -1 -2 -3z" />
</svg>
