<?xml version="1.0" standalone="no"?>
<!DOCTYPE svg PUBLIC "-//W3C//DTD SVG 1.1//EN" "http://www.w3.org/Graphics/SVG/1.1/DTD/svg11.dtd" >
<svg xmlns="http://www.w3.org/2000/svg" xmlns:xlink="http://www.w3.org/1999/xlink" version="1.1" width="2048" height="2048" viewBox="-11 0 2069 2048">
   <path fill="currentColor"
d="M13 40q60 67 339.5 364t592 629t565.5 597.5t257 268.5q35 21 82.5 -19t29.5 -79q-3 -7 -84 -88t-286.5 -276t-557 -525.5t-896.5 -839.5q-38 -39 -50.5 -47.5t8.5 15.5zM1222 919q422 457 553.5 594t156.5 137q39 0 65 -30t19 -62q-3 -14 -205 -207t-519 -488
q-147 -137 -279 -258.5t-232 -211t-158 -144t-61 -54.5q-4 0 47 56t140.5 154.5t211 230.5t261.5 283zM1155 476q482 527 650.5 701t196.5 174q25 0 33.5 -7t12.5 -32q0 -21 -75.5 -100t-349.5 -328q-468 -433 -526 -485.5t58 77.5zM822 1302q492 538 586.5 631t133.5 93
q35 0 49 -7t21 -25q4 -14 5.5 -30t-1.5 -26q0 -7 -214.5 -211t-476.5 -448t-488.5 -451.5t-254.5 -228.5q-11 -7 175.5 198.5t464.5 504.5zM347 1091q18 18 149.5 162t300.5 327q271 291 348 368.5t102 73.5q21 0 29.5 -8.5t8.5 -33.5q0 -21 -61.5 -86t-250.5 -237
q-130 -120 -272.5 -251.5t-216.5 -198.5q-70 -67 -110.5 -102t-26.5 -14z" />
</svg>
