<?xml version="1.0" standalone="no"?>
<!DOCTYPE svg PUBLIC "-//W3C//DTD SVG 1.1//EN" "http://www.w3.org/Graphics/SVG/1.1/DTD/svg11.dtd" >
<svg xmlns="http://www.w3.org/2000/svg" xmlns:xlink="http://www.w3.org/1999/xlink" version="1.1" width="2048" height="2048" viewBox="-10 0 2068 2048">
   <path fill="currentColor"
d="M1242 791q13 17 78.5 87t139 148t133.5 140t62 62q7 5 18 -3.5t6 -18.5q0 -5 -86.5 -86.5t-340.5 -320.5q-10 -8 -13.5 -10.5t3.5 2.5zM1526 999q100 107 130.5 139t35.5 32q9 0 15.5 -6.5t3.5 -15.5q0 -3 -47.5 -48t-120.5 -116q-71 -63 -121 -109.5t-53 -46.5l46 50
q45 50 111 121zM1511 894q112 124 151 164.5t47 40.5q5 0 7 -1.5t2 -5.5q3 -5 -15.5 -23.5t-81.5 -79.5q-110 -100 -124.5 -112t14.5 17zM1430 1089q118 125 140 148t31 23q8 0 11.5 -2.5t3.5 -7.5q2 -2 2 -6v-6q0 -2 -51 -50t-112 -105t-115 -106t-58 -54q-3 -2 41 46.5
t107 119.5zM0 1106v154h63l3 -100v-98l41 64q17 24 29.5 42.5t14.5 18.5l14 -19q13 -18 30 -45l39 -61l3 98v98h66v-152v-151h-74l-39 61q-14 24 -26 43l-13 18q-2 0 -13 -18.5t-28 -42.5l-37 -61h-73v151zM386 1106v154h229v-64h-163v-61h144v-61h-144v-61h163v-58h-229
v151zM698 984v32h90v244l69 -2v-120v-122l93 -3v-29v-29h-252v29zM1033 1106v154h229v-64h-164v-61h142v-61h-142v-61h164v-58h-229v151zM1789 1106v152l69 2v-100h51l32 49l34 51h36q20 0 28.5 -1t8.5 -3.5t-10 -18.5t-24 -36q-15 -22 -24.5 -36.5t-9.5 -16.5l2 -2
q3 -1 5 -1q12 -2 26.5 -18t22.5 -31q7 -19 7 -44.5t-10 -45.5q-5 -7 -12 -15.5t-12 -13.5q-20 -15 -42 -18.5t-95 -3.5h-83v151zM1963 1028q7 7 8 13.5t1 15.5q0 10 -1 16t-8 11q-8 10 -22.5 13.5t-51.5 3.5h-31v-85h46l49 2zM1321 1038q2 5 33.5 39t71.5 78
q63 68 81.5 86.5t23.5 16.5q7 0 8 -2.5t1 -7.5t-14.5 -19.5t-58.5 -56.5q-29 -29 -63.5 -59.5t-51.5 -45.5q-17 -17 -26.5 -24.5t-4.5 -4.5z" />
</svg>
