<?xml version="1.0" standalone="no"?>
<!DOCTYPE svg PUBLIC "-//W3C//DTD SVG 1.1//EN" "http://www.w3.org/Graphics/SVG/1.1/DTD/svg11.dtd" >
<svg xmlns="http://www.w3.org/2000/svg" xmlns:xlink="http://www.w3.org/1999/xlink" version="1.1" width="2048" height="2048" viewBox="-10 0 2066 2048">
   <path fill="currentColor"
d="M2034 999l-86 -52q0 -6 -1.5 -12t-1.5 -12l74 -71q6 -6 7.5 -12.5t1.5 -15.5q-3 -6 -7.5 -12t-10.5 -9l-96 -34q-3 -6 -4.5 -12.5t-1.5 -12.5l59 -83q3 -6 4.5 -13.5t-1.5 -14t-9.5 -12.5t-15.5 -6l-98 -15q-3 -7 -6.5 -13t-6.5 -12l43 -89q3 -9 1.5 -17t-4.5 -14
t-10.5 -9t-13.5 -3l-102 3q-3 -3 -7.5 -9l-7.5 -10l21 -98q3 -9 0 -15t-6 -13q-6 -6 -13.5 -7.5t-13.5 -1.5l-99 25q-6 -3 -10.5 -8t-10.5 -8l6 -101q0 -9 -4.5 -15.5t-11.5 -9.5q-6 -6 -13.5 -6t-13.5 3l-93 40q-6 -3 -10.5 -6t-10.5 -6l-15 -99q-4 -6 -8.5 -12t-10.5 -9
q-9 -3 -15 -3t-16 6l-80 58q-6 -3 -12 -4.5t-12 -1.5l-34 -95q-3 -6 -9 -12t-16 -6q-6 -4 -13.5 -0.5t-13.5 9.5l-68 74q-6 0 -12 -2t-13 -2l-52 -86q-6 -6 -12 -10.5t-16 -4.5q-6 0 -12 4.5t-12 10.5l-52 86q-7 0 -13 2t-12 2l-71 -74q-3 -6 -10.5 -9.5t-13.5 0.5
q-10 0 -16 6t-9 12l-34 95q-6 0 -12 1.5t-12 4.5l-83 -58q-7 -6 -14.5 -6t-13.5 3t-10.5 9t-8.5 12l-15 99q-6 3 -10.5 6t-10.5 6l-93 -40q-6 -3 -13.5 -3t-13.5 6q-7 3 -11.5 9.5t-4.5 15.5l6 101q-6 3 -10.5 8t-10.5 8l-99 -25q-6 0 -13.5 1.5t-13.5 8t-7.5 12.5t1.5 15
l21 98l-7.5 10t-7.5 9l-102 -3q-6 0 -13.5 3t-10.5 9q-6 6 -6 14t3 17l43 89l-6 12q-4 6 -7 13l-101 15q-6 0 -12.5 6t-9.5 12.5t-1.5 14t4.5 13.5l59 83q0 6 -3 12.5t-3 12.5l-96 34q-6 3 -10.5 9t-7.5 12q0 9 1.5 15.5t7.5 12.5l74 71q0 6 -1.5 12t-1.5 12l-86 52
q-6 3 -9 11t-3 14q0 9 3 15.5t9 9.5l86 55q0 6 1.5 12t1.5 13l-74 67q-6 6 -7.5 14t-1.5 14q3 9 7.5 13.5t10.5 7.5l96 37q0 6 3 12.5t3 12.5l-59 80q-3 6 -4.5 13.5t1.5 14.5q3 9 9.5 13.5t12.5 4.5l101 18q3 4 6.5 10t6.5 12l-43 92q-3 6 -3 14t6 14q3 6 10.5 9t13.5 3
l102 -3q3 6 7.5 10.5t7.5 8.5l-21 98q-3 9 -1.5 17t7.5 11q6 6 13.5 9t13.5 0l99 -25q6 6 10.5 9.5t7.5 9.5l-3 98q0 9 4.5 15.5t11.5 12.5q6 3 13.5 4.5t13.5 -1.5l93 -43q6 3 10.5 6t10.5 6l15 99q4 9 8.5 15t10.5 9h14q7 0 14 -6l83 -58q6 3 12 4.5t12 4.5l34 92
q3 9 9 13.5t16 4.5q6 4 13.5 0.5t10.5 -6.5l71 -73h12h13l52 86q6 6 12 10.5t12 4.5q10 0 16 -4.5t12 -10.5l52 -86h13h12l68 73q6 3 13.5 6.5t13.5 -0.5q10 0 16 -4.5t6 -13.5l37 -92q6 -3 12 -4.5t12 -4.5l80 58q10 6 16 6h15q6 -3 10.5 -9t8.5 -15l15 -99q6 -3 10.5 -6
t10.5 -6l93 43q6 3 13.5 1.5t13.5 -4.5q7 -6 11.5 -12.5t4.5 -15.5l-6 -98q6 -6 10.5 -9.5t10.5 -9.5l99 25q6 3 13.5 0t13.5 -9q3 -3 6 -11t0 -17l-21 -98q3 -4 7.5 -8.5t7.5 -10.5l102 3q6 0 13.5 -3t10.5 -9t4.5 -14t-1.5 -14l-43 -92q3 -6 6.5 -12t6.5 -10l98 -18
q9 0 15.5 -4.5t9.5 -13.5q3 -7 1.5 -14.5t-4.5 -13.5l-59 -80q0 -6 1.5 -12.5t4.5 -12.5l96 -37q6 -3 10.5 -7.5t7.5 -13.5q0 -6 -1.5 -14t-7.5 -14l-74 -67v-13q0 -6 3 -12l86 -55q6 -3 9 -9.5t3 -15.5q0 -6 -3 -14t-9 -11zM1459 1713q-24 -6 -38 -27.5t-11 -46.5
q6 -25 27.5 -38.5t46.5 -7.5q24 6 38 26t8 48q-6 24 -26 36.5t-45 9.5zM1428 1516q-21 -6 -41 6t-23 34l-31 145q-71 30 -149.5 47t-161.5 17t-162.5 -17t-150.5 -51l-31 -144q-6 -22 -24.5 -34t-40.5 -6l-126 25q-18 -19 -33.5 -37.5t-30.5 -39.5h612h6q3 0 3 -6v-216
q0 -6 -3 -7.5t-6 -1.5h-182v-135h194q15 0 58.5 13.5t61.5 87.5q6 22 17 78.5t20 81.5q6 28 38.5 66.5t69.5 38.5h304h6h3q-15 21 -32 41t-35 42zM583 1710q-25 3 -46.5 -9.5t-24.5 -36.5q-6 -25 8 -46.5t38 -27.5q25 -6 46.5 7.5t24.5 38.5q6 25 -8 46.5t-38 27.5zM352 769
q9 21 0 45.5t-31 34.5q-24 9 -47 -0.5t-33 -30.5q-12 -25 -2.5 -48t33.5 -32q22 -9 45 -1.5t35 32.5zM281 938l130 -59q21 -9 28.5 -30.5t-1.5 -42.5l-24 -62h104v480h-215q-12 -49 -20 -101.5t-8 -104.5q0 -22 1.5 -42t4.5 -38zM853 892v-142h252q13 0 53 15.5t40 58.5
q0 37 -35.5 52.5t-75.5 15.5h-234zM1773 1018q0 15 -1.5 29t-1.5 26h-77q-6 0 -7.5 3t-1.5 10v36q0 62 -29.5 82t-60.5 23q-27 3 -55 -9.5t-31 -30.5q-18 -98 -47.5 -133.5t-75.5 -72.5q56 -34 105 -88t49 -124q0 -77 -41.5 -124.5t-75.5 -72.5q-52 -34 -99.5 -43t-63.5 -9
h-793q80 -93 187.5 -154.5t230.5 -82.5l95 98q16 16 39 17.5t38 -17.5l105 -98q166 31 299.5 127.5t213.5 235.5l-70 163q-13 21 -3.5 42.5t30.5 31.5l139 61q0 18 1.5 36.5t1.5 37.5zM979 200q19 -19 43.5 -19t43.5 19q15 18 15 44.5t-19 41.5q-18 18 -42.5 18t-43.5 -18
q-18 -18 -16.5 -44.5t19.5 -41.5zM1690 772q9 -25 33.5 -34t46.5 3q24 9 32 32t-2 48q-9 22 -32 31t-47 0q-22 -9 -31 -34t0 -46z" />
</svg>
