<?xml version="1.0" standalone="no"?>
<!DOCTYPE svg PUBLIC "-//W3C//DTD SVG 1.1//EN" "http://www.w3.org/Graphics/SVG/1.1/DTD/svg11.dtd" >
<svg xmlns="http://www.w3.org/2000/svg" xmlns:xlink="http://www.w3.org/1999/xlink" version="1.1" width="2048" height="2048" viewBox="-10 0 2068 2048">
   <path fill="currentColor"
d="M1841 409q17 -17 25.5 -41t8.5 -52q0 -59 -41.5 -102t-99.5 -43q-28 0 -52 10.5t-45 27.5q-128 -97 -285 -152t-330 -55q-210 0 -396.5 81t-325 219t-219.5 324.5t-81 397.5t81 397.5t219.5 326t325 219t396.5 79.5q214 0 399 -79.5t325 -219t221 -326t81 -397.5
q0 -173 -55.5 -330t-151.5 -285zM1022 2012q-203 0 -383 -78t-314.5 -212.5t-212 -314t-77.5 -383.5t77.5 -383.5t212 -314t314.5 -212.5t383 -78q170 0 320 52t274 145q-14 17 -20.5 38t-6.5 45q0 59 41.5 102t103.5 43q20 0 41 -7t42 -21q89 125 142.5 275t53.5 316
q0 204 -77.5 383.5t-212 314t-314.5 212.5t-387 78zM1440 1024q0 173 -121 295.5t-297 122.5q-172 0 -293 -122.5t-121 -295.5t121 -295.5t293 -122.5q176 0 297 122.5t121 295.5z" />
</svg>
