<?xml version="1.0" standalone="no"?>
<!DOCTYPE svg PUBLIC "-//W3C//DTD SVG 1.1//EN" "http://www.w3.org/Graphics/SVG/1.1/DTD/svg11.dtd" >
<svg xmlns="http://www.w3.org/2000/svg" xmlns:xlink="http://www.w3.org/1999/xlink" version="1.1" width="2048" height="2048" viewBox="-10 0 2068 2048">
   <path fill="currentColor"
d="M0 1024v1022h2048v-2044h-2048v1022zM1162 517q15 6 32 10.5t32 11.5q30 12 71 28.5t71 46.5q13 13 8 23.5t-32 52.5q-15 21 -28.5 41t-16.5 23t-15.5 -3t-39.5 -18q-58 -28 -112.5 -49t-112.5 -21q-81 0 -123.5 30.5t-42.5 93.5q0 55 50 88.5t186 69.5q185 46 258 115.5
t70 197.5q-3 79 -56 153t-123 105q-82 36 -171.5 34.5t-174.5 -28.5q-45 -13 -91 -32.5t-88 -43.5q-15 -9 -33.5 -21.5t-30.5 -24.5q-15 -15 -10.5 -21t16.5 -24q12 -12 27.5 -32t24.5 -32l27 -30l64 42q70 46 126 64t126 18q67 3 106 -13.5t64 -53.5q15 -18 18 -33t0 -36
q-6 -46 -41 -75t-114 -50q-170 -51 -223 -69.5t-80 -39.5q-34 -24 -59.5 -56t-37.5 -65q-9 -37 -9 -96t15 -99q48 -142 194 -177t279 -5z" />
</svg>
