<?xml version="1.0" standalone="no"?>
<!DOCTYPE svg PUBLIC "-//W3C//DTD SVG 1.1//EN" "http://www.w3.org/Graphics/SVG/1.1/DTD/svg11.dtd" >
<svg xmlns="http://www.w3.org/2000/svg" xmlns:xlink="http://www.w3.org/1999/xlink" version="1.1" width="2048" height="2048" viewBox="-10 0 2068 2048">
   <path fill="currentColor"
d="M2041 1819l-956 -1652q-8 -18 -25 -27.5t-37 -9.5q-18 0 -34 9.5t-26 27.5l-956 1652q-7 15 -7 32.5t7 34.5q10 15 27.5 23.5t34.5 8.5h1910q17 0 34.5 -8.5t27.5 -23.5q7 -17 7 -34.5t-7 -32.5v0zM1433 1686l2 -72l-276 47l-13 -12l5 -96h-7l-59 63q-60 63 -183 63
q-94 0 -168 -49.5t-74 -200.5q0 -153 96 -212.5t217 -59.5h168v-81q0 -59 -39.5 -92.5t-115.5 -33.5q-84 0 -166 9l-81 8l-10 -12v-139l91 -8q92 -9 203 -9q104 0 202.5 43.5t98.5 193.5v465l92 -17l-28 -70l230 102zM835 1414q0 70 41 93t87 23q45 0 94.5 -17t83.5 -71
v-154h-121q-91 0 -138 27.5t-47 98.5v0z" />
</svg>
