<?xml version="1.0" standalone="no"?>
<!DOCTYPE svg PUBLIC "-//W3C//DTD SVG 1.1//EN" "http://www.w3.org/Graphics/SVG/1.1/DTD/svg11.dtd" >
<svg xmlns="http://www.w3.org/2000/svg" xmlns:xlink="http://www.w3.org/1999/xlink" version="1.1" width="2048" height="2048" viewBox="-10 0 2068 2048">
   <path fill="currentColor"
d="M1408 873q53 -28 90 -49l36 -22l-16 -30q-17 -30 -42 -70q-30 -48 -47.5 -72t-22.5 -22q-3 3 -27 18t-54 35q-30 18 -68 43t-63 40l-58 36l13 -330h-235l3 163q2 104 1 131.5t-11 25.5q-5 -3 -45.5 -28t-90.5 -58q-53 -35 -89.5 -58t-39.5 -23q-5 8 -59 100t-54 94
q0 3 40.5 28t98.5 58q57 33 99 57t42 26q0 3 -42 26.5t-99 56.5q-58 33 -98.5 58t-40.5 28q0 2 54 95.5t59 98.5q3 0 43 -24t98 -59l136 -86l-2 161l-3 161h235l-5 -161q-5 -101 -4 -129.5t9 -26.5q5 5 41.5 27.5t84.5 50.5q45 30 83 53t45 28q8 5 21.5 -12.5t51.5 -80.5
q33 -53 44.5 -77t6.5 -27q-5 -2 -48 -27.5t-99 -55.5l-133 -75l20 -13q8 -5 49.5 -29t91.5 -54zM2043 707q-3 -31 -11.5 -70t-16.5 -61q-7 -26 -25 -62.5t-33 -61.5q-35 -63 -98 -127t-116 -92q-22 -13 -38.5 -20.5t-19.5 -7.5q-2 0 8 10t28 23q37 28 76 75.5t60 88.5l20 35
l-20 -25q-8 -10 -32 -36.5t-52 -54.5q-35 -35 -65 -56.5t-71 -41.5q-35 -18 -75 -31.5t-81 -21.5q-48 -10 -93 -14t-113 -6q-104 0 -183 11.5t-160 38.5q-28 10 -67 25.5t-64 25.5q-25 12 -68 37.5t-76 45.5q-35 22 -79 56t-72 60q-30 25 -67.5 62.5t-63.5 68.5
q-25 27 -55 66t-48 67t-31 45l-14 18q-5 -5 31.5 -78t71.5 -121l48 -73l-53 50q-20 21 -54 60t-59 74q-26 33 -56 78t-45 73q-15 30 -35.5 74.5t-30.5 76.5l-27 81v15q-10 33 -14 58t-4 60q0 41 4 72.5t14 66.5v15l22 68q10 28 25.5 64.5t30.5 58.5q12 23 38.5 57t49.5 59
q25 26 59 54.5t57 46.5q68 45 141 73t159 43q30 5 80.5 9t92.5 6q43 0 100 -3.5t94 -8.5q35 -8 90.5 -19.5t96.5 -23.5q43 -13 97 -32t92 -36l85 -38l56 18q48 15 200 49t155 31q2 -2 -19 -47.5t-54 -106.5l-76 -151l68 -80q28 -33 62 -78.5t52 -72.5q20 -31 45 -77.5
t43 -81.5q17 -35 33.5 -78t24.5 -71q7 -25 14.5 -65.5t12.5 -72.5q3 -38 3 -73.5t-5 -72.5zM1768 1147q-12 26 -31 60t-34 56q-15 23 -44 59.5t-57 64.5q-28 27 -46.5 48.5t-18.5 24.5q0 2 20 33.5t48 74.5q27 43 47.5 75.5t20.5 35.5q0 2 -1.5 5t-3.5 3q-3 0 -39.5 -14
t-86.5 -34q-51 -18 -92.5 -32t-51.5 -14q-7 0 -27.5 6.5t-37.5 13.5q-63 28 -160 57t-160 37q-33 5 -77 8.5t-72 3.5q-101 -2 -182.5 -21t-170.5 -59q-50 -26 -77.5 -46t-75.5 -68q-41 -40 -63.5 -69t-40.5 -67q-12 -25 -24.5 -59t-17.5 -54q-16 -53 -14.5 -132.5
t16.5 -139.5q8 -28 25.5 -73.5t35 -80.5t45.5 -80.5t48 -72.5q20 -28 58 -68.5t68 -70.5q60 -58 132 -108.5t145 -85.5q60 -33 139.5 -59.5t155.5 -41.5q47 -10 91.5 -13.5t112.5 -3.5q70 0 108 3.5t76 13.5q27 8 63.5 20.5t59.5 22.5q30 15 58 36.5t63 56.5q38 36 58 64.5
t40 71.5q15 31 29 68.5t19 62.5q8 25 10.5 60.5t2.5 63.5q2 85 -22 177t-67 180z" />
</svg>
