<?xml version="1.0" standalone="no"?>
<!DOCTYPE svg PUBLIC "-//W3C//DTD SVG 1.1//EN" "http://www.w3.org/Graphics/SVG/1.1/DTD/svg11.dtd" >
<svg xmlns="http://www.w3.org/2000/svg" xmlns:xlink="http://www.w3.org/1999/xlink" version="1.1" width="2048" height="2048" viewBox="-10 0 2068 2048">
   <path fill="currentColor"
d="M558 1828l-254 -91v-373l254 86v378zM605 1828l255 -91v-373l-255 86v378zM329 1337l259 -75l237 79l-237 80zM254 1307l-254 -92v-373l254 87v378zM301 1307l255 -92v-373l-255 87v378zM27 815l257 -74l240 77l-240 81zM850 1307l-255 -92v-373l255 87v378zM897 1307
l254 -92v-373l-254 87v378zM620 815l257 -74l240 77l-240 81zM1151 786l-254 -92v-373l254 87v378zM1198 786l255 -92v-373l-255 87v378zM924 294l257 -74l240 76l-240 82zM1747 786l-255 -92v-373l255 87v378zM1794 786l254 -92v-373l-254 87v378zM1517 294l259 -74l237 76
l-237 82z" />
</svg>
