<?xml version="1.0" standalone="no"?>
<!DOCTYPE svg PUBLIC "-//W3C//DTD SVG 1.1//EN" "http://www.w3.org/Graphics/SVG/1.1/DTD/svg11.dtd" >
<svg xmlns="http://www.w3.org/2000/svg" xmlns:xlink="http://www.w3.org/1999/xlink" version="1.1" width="2048" height="2048" viewBox="-10 0 2068 2048">
   <path fill="currentColor"
d="M124 1540q105 -33 233 -46.5t260.5 -7.5t261.5 32.5t237 69.5q-79 -43 -191 -88.5t-245 -65.5t-275 -1t-281 107zM213 1366q16 -10 32 -19.5t32 -19.5q-7 -4 -14 -9t-14 -12q-12 -12 -20.5 -24t-15.5 -24v-2q-29 -55 -27 -108l3 -52l-22 87q-21 87 46 154l2 2q2 3 6 5.5
t6 4.5q-2 0 -6 -2.5t-8 -4.5q-46 -26 -73.5 -71.5t-27.5 -103.5q0 -55 27.5 -101.5t73.5 -70.5q21 -12 45 -19t50 -7q-5 -19 -6 -39.5t-1 -39.5v-26q0 -12 2 -22q-23 0 -46 5t-44 12q-94 31 -153.5 111t-59.5 183q0 81 39.5 150.5t106.5 112.5q14 -12 32 -24t35 -26z
M447 1007q0 -2 -1.5 -3.5t-1.5 -3.5q3 2 3 5v2l6 -98t99 -162q91 -67 197 -50l107 16l-114 -44q-114 -44 -221 32q-2 3 -4.5 4t-5.5 4q46 -55 111.5 -87.5t144.5 -32.5t147 33.5t114 90.5h136q-50 -112 -156.5 -182.5t-240.5 -70.5q-177 0 -304.5 125.5t-127.5 304.5
q0 19 1 38.5t6 38.5q28 2 54.5 13t50.5 27zM1723 1500q-112 26 -217.5 14t-215 -48t-230.5 -85t-267 -94q-191 -57 -342.5 -2.5t-237.5 119.5q-43 33 -68 57l-26 24l26 -13q25 -13 68 -32q90 -38 248 -67t330 33q131 48 247 82.5t227 52.5t219 19.5t217 -17.5
q175 -31 248 -121t89 -135q-14 36 -79.5 103t-235.5 110zM2038 1287q5 -12 8 -19l2 -7l-2 7q-3 7 -8 19zM1537 1471q126 -5 179 -65l52 -59l-47 32q-48 32 -180 44q-129 12 -242 -33l-114 -46q0 3 113.5 67.5t238.5 59.5zM1042 749h155v156h-155v-156zM1658 1177h120v119
h-120v-119zM1231 606h205v208h-205v-208zM1828 964h208v206h-208v-206zM1455 830h115v115h-115v-115zM1532 1055h115v115h-115v-115zM1290 1067h115v115h-115v-115zM1694 833h115v115h-115v-115z" />
</svg>
