<?xml version="1.0" standalone="no"?>
<!DOCTYPE svg PUBLIC "-//W3C//DTD SVG 1.1//EN" "http://www.w3.org/Graphics/SVG/1.1/DTD/svg11.dtd" >
<svg xmlns="http://www.w3.org/2000/svg" xmlns:xlink="http://www.w3.org/1999/xlink" version="1.1" width="2048" height="2048" viewBox="-10 0 2068 2048">
   <path fill="currentColor"
d="M940 776v0q-23 -17 -48.5 -31t-54.5 -26q-31 -11 -59.5 -18t-54.5 -13q-25 -3 -70.5 -4.5t-108.5 -1.5h-179v684h185q65 0 116.5 -4.5t82.5 -9.5q37 -9 64 -17.5t50 -17.5q23 -11 43 -24t40 -30q59 -48 87.5 -109.5t28.5 -138.5q0 -74 -29.5 -132t-92.5 -107zM1851 261
h-1654q-83 0 -140 62.5t-57 153.5v1094q0 91 57 153.5t140 62.5h1654q83 0 140 -62.5t57 -153.5v-1094q0 -91 -57 -153.5t-140 -62.5zM1729 827q0 114 -85.5 194t-207.5 80h-10h-10q-6 34 -17.5 68t-28.5 69q-26 48 -63 93.5t-82 82.5q-49 40 -106 70t-119 50
q-37 11 -71.5 19.5t-65.5 11.5h-1h-2q-31 6 -88 7.5t-140 1.5l-396 3l-2 -2l-3 -1h-5h-1h-1h-2v0l-3 -3h-1h-2l-1 -2l-4 -4v0h-2h-1v-1v-2h-1h-2v-1v-1h-1h-2v-2v-1h-1q-2 0 -2 -3v0v-2q0 -1 -2 -1v0v-1v-2v0v-3v-3h-2q-1 0 -1 -2v0v-5v-1v-4v-2v-1017q0 -14 10 -25.5
t27 -11.5h1h4l419 -3q131 0 235 17.5t184 51.5q45 17 83.5 39.5t73.5 51.5q39 -34 92 -54t110 -20q122 0 209 79.5t87 190.5v0zM1866 531q0 34 -27 60t-67 26t-68.5 -24.5t-28.5 -61.5v0q0 -37 28.5 -62.5t68.5 -25.5t67 25.5t27 62.5v0z" />
</svg>
