<?xml version="1.0" standalone="no"?>
<!DOCTYPE svg PUBLIC "-//W3C//DTD SVG 1.1//EN" "http://www.w3.org/Graphics/SVG/1.1/DTD/svg11.dtd" >
<svg xmlns="http://www.w3.org/2000/svg" xmlns:xlink="http://www.w3.org/1999/xlink" version="1.1" width="2048" height="2048" viewBox="-10 0 2068 2048">
   <path fill="currentColor"
d="M322 1672q-60 -63 -107.5 -138t-79.5 -160.5t-49 -181t-17 -198.5q0 -184 54.5 -341t155.5 -277h-279v1296h322zM1791 1672q51 -54 97 -119.5t87 -138.5l-309 -154q-81 133 -201 236t-286 103q-117 0 -202 -48.5t-138.5 -133t-78 -198.5t-24.5 -244h1194v-48v-30
q4 -156 -34.5 -288t-115.5 -233h268v1296h-257zM755 672q11 -118 93.5 -192t193.5 -74q110 0 182.5 74t75.5 192h-545z" />
</svg>
