<?xml version="1.0" standalone="no"?>
<!DOCTYPE svg PUBLIC "-//W3C//DTD SVG 1.1//EN" "http://www.w3.org/Graphics/SVG/1.1/DTD/svg11.dtd" >
<svg xmlns="http://www.w3.org/2000/svg" xmlns:xlink="http://www.w3.org/1999/xlink" version="1.1" width="2048" height="2048" viewBox="-11 0 2070 2048">
   <path fill="currentColor"
d="M2022 931l-76 -131q-38 -65 -75 -131q-23 -40 -45.5 -79t-48.5 -79l-1 -3l-1 -2q-43 -76 -85.5 -150t-85.5 -147q-28 -48 -69.5 -72t-94.5 -24h-210h-209h-209h-207h-14q-6 0 -14 3q-43 7 -76.5 29.5t-56.5 60.5q-48 83 -97 168q-49 84 -97 167q-10 20 -20 37.5t-20 35.5
v0q-3 5 -5.5 8.5t-4.5 8.5q-3 0 -4 3t-1 5q-5 10 -10 19t-10 16q-15 25 -29 49t-29 49q-13 21 -25.5 43.5l-25 45t-26.5 44t-24 44.5q-10 25 -14 48.5t-1 49.5q3 17 8 32t12 31q15 25 29 50t29 50q13 25 26.5 49t28.5 47q15 27 30.5 53.5t30.5 51.5q15 23 27.5 45.5
t25.5 45.5q15 25 30 51.5t30 54.5q15 25 29 50t29 48q17 30 33.5 60t34.5 61q12 20 26 39t34 34q23 15 47 25t51 10h233h233h19h16h4h4h172h175h12q8 0 16 -3q40 -7 72.5 -29.5t55.5 -60.5q50 -91 103 -181.5l106 -181t104.5 -181t104.5 -181.5q27 -45 26 -93t-26 -93z
M182 1069q-17 3 -31 -11t-14 -34q0 -18 12.5 -31.5t32.5 -13.5q18 0 31.5 13.5t13.5 28.5q0 21 -13.5 34.5t-31.5 13.5zM1445 249q18 0 32 14t14 31q0 20 -14 34t-32 14q-20 0 -32.5 -14t-12.5 -31q0 -20 12.5 -34t32.5 -14zM602 249q21 0 33.5 14t12.5 34q0 17 -12.5 31
t-33.5 14q-17 0 -31 -14t-14 -34q0 -17 14 -31t31 -14zM602.5 1799q-17.5 0 -31.5 -12.5t-14 -32.5q0 -15 12.5 -31.5t32.5 -14.5q21 0 34.5 15.5t11.5 30.5q0 20 -14 32.5t-31.5 12.5zM1443 1799q-18 0 -30.5 -14t-12.5 -31q0 -20 12.5 -33t32.5 -13q18 0 32 13t14 33
t-14 32.5t-34 12.5zM1647 1037q-13 20 -25.5 41t-25.5 42q-35 63 -70 123t-71 121q-25 47 -52.5 94t-55.5 94q-2 5 -4.5 9t-2.5 9h-2h-1h-6h-6h-300h-299h-4h-4q-5 0 -8.5 -2.5t-6.5 -7.5q-18 -33 -36.5 -65.5t-38.5 -65.5q-33 -58 -66 -114.5t-65 -111.5q-25 -46 -51.5 -90
t-51.5 -89v0q2 -3 2 -4t3 -1q20 -38 41 -75.5t44 -72.5q0 -3 1.5 -5.5t1.5 -5.5h1q1 0 1 -2q3 0 4 -2.5t4 -5.5q50 -90 101.5 -179.5t104.5 -177.5q3 -7 8 -10t12 -3h88h88h214h214h6q4 0 7 -2v2v3q2 3 3.5 4t1.5 4q40 68 77.5 134.5t78.5 134.5q35 63 71.5 126t74.5 128
q5 5 3.5 11.5t-3.5 11.5zM1866 1069q-21 0 -33.5 -12.5t-12.5 -32.5q0 -18 12.5 -31.5t33.5 -13.5q20 0 32.5 13.5t12.5 31.5q0 20 -14 32.5t-31 12.5zM1025 750q-113 0 -195 80.5t-79 193.5q-3 113 77.5 193.5t194.5 80.5q115 0 194.5 -79t79.5 -195t-80.5 -195t-191.5 -79
z" />
</svg>
