<?xml version="1.0" standalone="no"?>
<!DOCTYPE svg PUBLIC "-//W3C//DTD SVG 1.1//EN" "http://www.w3.org/Graphics/SVG/1.1/DTD/svg11.dtd" >
<svg xmlns="http://www.w3.org/2000/svg" xmlns:xlink="http://www.w3.org/1999/xlink" version="1.1" width="2048" height="2048" viewBox="-10 0 2068 2048">
   <path fill="currentColor"
d="M1023 1q-211 0 -397.5 80t-325 219.5t-219.5 325t-81 398.5t81 398.5t219.5 325t325 219.5t397.5 80q213 0 399.5 -80t325 -219.5t219.5 -325t81 -398.5t-81 -398.5t-219.5 -325t-325 -219.5t-399.5 -80zM753 1116q-9 4 -19.5 8.5t-21.5 7.5q-10 4 -18 6.5t-10 4.5
q-7 2 -15 17t-15 31q-6 18 -8.5 39t-0.5 39q3 16 8.5 43.5t10.5 41.5q4 11 18 40.5t23 43.5q7 14 7 19.5t-7 12.5q-9 12 -27.5 20t-45.5 12q-26 5 -45.5 5t-39.5 -2q-34 -5 -58 -13t-34 -17q-7 -9 -4.5 -18.5t20.5 -45.5q16 -35 24 -54.5t15 -48.5q3 -16 4 -26.5t1 -28.5
q0 -28 -3.5 -42.5t-12.5 -33.5q-12 -23 -22 -31t-35 -14q-32 -10 -72 -36t-79 -65q-19 -21 -37 -48.5t-30 -56.5q-9 -26 -16 -64.5t-2 -41.5q2 -2 38 -2h79h80q36 0 39 2q2 0 4 3.5t2 8.5q7 14 38 55t49 59q35 35 61 55.5t70 47.5q20 14 44.5 24t49.5 17q13 5 12 9.5
t-19 16.5zM1124 1289v48q0 12 4 28q5 18 18.5 60.5t22.5 63.5q7 18 27.5 60t25.5 52q9 13 9 19t-7 17q-11 19 -53.5 33.5t-101.5 21.5q-30 2 -50.5 2t-48.5 -2q-27 -2 -47.5 -6.5t-39.5 -11.5q-9 -2 -17 -4.5t-10 -2.5q-7 -2 -19.5 -11.5t-17.5 -15.5q-9 -14 -6.5 -24.5
t29.5 -65.5q25 -50 33 -69.5t20 -60.5q11 -37 14.5 -55t5.5 -39q3 -25 1.5 -59.5t-3.5 -50.5q-7 -27 -22 -54.5t-35 -48.5q-14 -16 -27.5 -25t-32.5 -16q-45 -18 -92 -44.5t-82 -53.5q-18 -16 -46.5 -43.5t-42.5 -43.5q-36 -46 -66 -104.5t-41 -110.5q-7 -26 -10.5 -53
t-3.5 -39v-11h1215v11q2 18 -7 63t-21 72q-2 9 -6.5 19.5t-6.5 19.5l-6 14t-6 9q0 2 -4.5 10t-8.5 15q-32 60 -89.5 118t-123.5 99q-21 14 -53 29t-50 22q-9 2 -17 6.5t-11 6.5q-13 12 -29 29t-23 26q-5 7 -8 12l-4 4q-4 3 -13.5 27t-13.5 40q-2 11 -3.5 25t1.5 43z
M1718 1065q-27 25 -53.5 40t-60.5 27q-23 6 -27.5 9.5t-11.5 10.5q-9 12 -17 30t-10 30q-3 16 -3 41t5 43q7 37 17 64.5t29 63.5q11 23 13.5 29t-0.5 10q-4 14 -27 24.5t-57 14.5q-41 7 -81 2.5t-68 -18.5q-11 -4 -19 -13.5t-8 -13.5q0 -3 5.5 -16.5t14.5 -29.5
q25 -48 35.5 -88t12.5 -77q0 -20 -3.5 -35t-12.5 -36q-11 -20 -22.5 -29.5t-41.5 -18.5q-11 -2 -19 -6.5t-29 -16.5q-11 -6 -7.5 -9.5t28.5 -13.5q29 -9 64.5 -29.5t72.5 -45.5q18 -14 53.5 -49.5t51.5 -53.5q12 -18 26.5 -38.5t19.5 -32.5q2 -5 5.5 -9.5t5.5 -4.5
q0 -2 55 -2h108h55q23 0 23 2q2 0 3 3.5t1 12.5q0 16 -10 54t-17 52q-25 45 -43.5 68t-55.5 55z" />
</svg>
