<?xml version="1.0" standalone="no"?>
<!DOCTYPE svg PUBLIC "-//W3C//DTD SVG 1.1//EN" "http://www.w3.org/Graphics/SVG/1.1/DTD/svg11.dtd" >
<svg xmlns="http://www.w3.org/2000/svg" xmlns:xlink="http://www.w3.org/1999/xlink" version="1.1" width="2048" height="2048" viewBox="-10 0 2068 2048">
   <path fill="currentColor"
d="M1384.5 664q39.5 0 67.5 -27.5t28 -64.5q0 -40 -28 -66.5t-67 -26.5q-40 0 -66.5 26.5t-26.5 66.5q0 39 26.5 65.5t66 26.5zM1294 746h181v682h-181v-682zM717 1198h246l64 230h186l-269 -896h-225v88l-237 808h167zM837 690l91 353h-181zM0 22v2004h2048v-2004h-2048z
M1895 1868h-1737v-1688h1737v1688z" />
</svg>
