<?xml version="1.0" standalone="no"?>
<!DOCTYPE svg PUBLIC "-//W3C//DTD SVG 1.1//EN" "http://www.w3.org/Graphics/SVG/1.1/DTD/svg11.dtd" >
<svg xmlns="http://www.w3.org/2000/svg" xmlns:xlink="http://www.w3.org/1999/xlink" version="1.1" width="2048" height="2048" viewBox="-10 0 2068 2048">
   <path fill="currentColor"
d="M1660 1153h2l-4 -2h1t1 2zM1660 1153h1h1l-4 -2zM1658 1162q-2 4 -3 8.5t-1 9.5q0 6 -1 10.5t-4 8.5l-4 -2q0 -4 2 -9l5 -8q2 -5 3 -9.5t3 -8.5zM1658 1162q-2 4 -3 8.5t-1 9.5q0 6 -1 10.5t-4 8.5l-4 -2q0 -4 2 -9l5 -8q2 -5 3 -9.5t3 -8.5zM1514 1539q-5 -2 -8 -4.5
t-8 -6.5q-2 0 -3 -2.5t-3 -4.5l-3 -4l-4 -2q-4 -9 -9 -18l-8 -17q-5 -9 -8 -18t-6 -17q-4 -11 -6 -20t-7 -18q-4 -19 -9.5 -38t-9.5 -36q-5 -20 -9.5 -38.5t-8.5 -36.5q-9 -39 -16.5 -76.5t-14.5 -74.5l-15 -76q-2 -18 -6.5 -37.5t-6.5 -37.5h4v0q2 18 6.5 37.5t6.5 37.5
l16 76q6 37 14 75.5t16 75.5q3 20 7 38.5t9 36.5q4 20 9.5 38.5t9.5 35.5q7 20 12.5 38.5t12.5 36.5q4 9 8.5 17.5t10.5 15.5l2 4l3 4q2 3 3 4l3 3q5 2 8 5.5t8 3.5h6h3h4q0 -2 2 -2h2q2 -3 3 -3t4 -2l1 -1q1 -1 3 -1l4 -4l1 -2q2 -1 4 -3l1 -1l3 -3t3.5 -4.5t3.5 -4.5l1 -1
l3 -3l2 -5l2 -6q3 0 3 -1t2 -4l4 -11q-2 7 -5 11.5t-6 8.5l-3 7q-1 2 -3 4t-3.5 4.5t-3.5 4.5l-3 3l-1 1q-2 0 -3.5 1t-1.5 4q-2 2 -4 3t-4 3q-3 0 -4 1t-3 1l-2 1l-2 2h-4q-1 0 -3 2h-3h-3zM1514 1539h3q1 0 3 -2h3h4l2 -2l2 -1q2 0 3 -1t4 -1q2 -2 4 -3t4 -3q0 -3 1.5 -4
t3.5 -1q0 -2 1 -3t3 -1q0 -2 2.5 -4.5l4.5 -4.5t3 -4l3 -7q3 -4 6 -9.5t5 -10.5l-4 11q-2 3 -2 4t-3 1l-2 6l-2 5q0 2 -1 3t-3 1q0 2 -2.5 5.5t-4.5 5.5l-1 1l-3 3l-1 1q-1 2 -4 4l-4 2q0 2 -2 2t-2 2q-3 0 -4 1.5t-3 1.5l-2 1l-2 1h-4q-1 0 -3 2h-6q-5 -2 -9.5 -4.5
t-6.5 -6.5q-2 0 -4 -2t-2 -5l-5 -4l-2 -2q-4 -9 -8.5 -17.5t-8.5 -17.5q-9 -18 -14.5 -36.5t-12.5 -35.5q-6 -20 -10.5 -39t-8.5 -36q-5 -20 -9.5 -38.5t-8.5 -38.5q-9 -37 -16.5 -74t-14.5 -77q-4 -17 -7.5 -37t-7.5 -37q-4 -20 -7.5 -38.5t-5.5 -38.5v0v-2l2 -13l2 13
q5 20 8 38.5t5 38.5l16 74q6 39 14 76.5t14 74.5q5 20 9 38.5t9 38.5q4 17 8.5 36t10.5 38l6 18t5 20q3 8 7 17t7 18l8 17q5 9 9 15l4 5l3 4q2 2 3 3.5t3 3.5q5 4 8 6.5t8 4.5zM887 1539h-4l-1 1q-1 1 -4 1q-4 -2 -7.5 -4.5t-7.5 -6.5l-3 -3l-4 -4l-2 -4l-4 -4
q-5 -7 -9 -15.5t-9 -17.5q-4 -11 -7.5 -20t-5.5 -17q-4 -9 -6.5 -19t-6.5 -19l-4.5 -18t-4.5 -19q-4 -9 -6 -18.5t-5 -18.5q-4 -20 -8.5 -38.5t-8.5 -38.5q-9 -37 -16.5 -75.5t-14.5 -75.5l-15 -77l-7 -39q-2 -9 -4 -19t-5 -18h7l-2 2v2q2 9 3 19t3 18l9 40l13 74
q9 40 16.5 77t14.5 77q4 17 8.5 35.5t9 38.5t10 38.5t9.5 36.5q7 19 12.5 36.5t14.5 35.5q2 9 6 17.5t11 17.5q2 4 5.5 7.5t5.5 7.5q4 2 8.5 4.5t9.5 4.5h-3q5 0 7 -1t4 -3q5 -3 7 -5t2 -4q2 0 3 -1t1 -4q3 0 3 -2t2 -2q0 -2 2 -5.5t4 -5.5q5 -11 10.5 -22t9.5 -24
q0 -2 1 -5.5t1 -5.5q2 -2 3.5 -5.5t1.5 -5.5l6 -24l16 -48q-7 24 -13.5 46t-15.5 44q0 6 -2 11.5t-4 10.5q-3 6 -6 11.5t-5 10.5q0 2 -2.5 5t-2.5 5q-2 3 -4 5t-2 4q-3 2 -4 3.5t-1 3.5l-4 4l-1 1q-1 1 -4 1q0 3 -2 3t-2 2zM887 1539q0 -2 2 -2t2 -3q3 0 4 -1l1 -1l4 -4
q0 -2 1 -3.5t4 -3.5q0 -2 2 -4t4 -5q0 -2 1 -5t4 -5q2 -5 4 -10.5t4 -11.5q3 -5 5 -10.5t4 -11.5q9 -22 15.5 -44t13.5 -46l-14 48l-6 24q-2 2 -2 5.5t-3 5.5q0 5 -1 7l-3 6l-9 22q-4 11 -11 22q0 4 -2 6.5t-2 4.5l-3 3t-1 4l-1 1q-2 1 -4 3t-4 4.5t-4.5 4.5t-5.5 3t-8 1v0
q-4 -2 -8.5 -4t-6.5 -7q-4 -2 -7.5 -6.5t-5.5 -6.5q-7 -9 -11 -17l-9 -18q-6 -17 -13 -36t-13 -36q-5 -20 -10 -38.5t-10 -38.5q-4 -17 -8.5 -36t-8.5 -38q-9 -38 -16.5 -76t-14.5 -76l-15 -76l-7 -37q-2 -11 -3 -20t-4 -20v0v-2v-4l5 -11l2 11l13 76l13 77q7 39 14.5 77.5
t16.5 75.5t17.5 75.5t19.5 75.5q2 9 4.5 19t6.5 19q2 8 5.5 17t7.5 18q5 11 9 18.5t9 16.5l4 4l2 4l4 4l3 3q4 4 7.5 6.5t7.5 4.5q3 -2 4 -2h1h4zM241 1539l-4 -4l-3 -1q-2 -2 -3 -2t-1 -2l-1 -1l-1 -1q-5 -2 -7 -5.5t-4 -7.5q-2 -3 -3 -5l-2 -2q-2 -2 -3 -4t-1 -5l-4 -8
l-2 -7q-3 -4 -4 -8.5t-3 -9.5q0 -2 -1 -6t-3 -9q-3 -9 -5 -16.5t-4 -16.5t-3.5 -17.5t-3.5 -15.5l-6 -35q-3 -8 -4 -16t-3 -16.5t-3 -17.5t-3 -15l-5 -18l-4 -15l-5 -18q-2 -8 -4 -15q-4 -9 -6.5 -16.5t-6.5 -16.5q-2 -9 -5.5 -16.5t-7.5 -14.5l-9 -15q-2 -4 -4.5 -7.5
t-4.5 -7.5q-2 -2 -4 -5.5t-5 -7.5q-2 -3 -5 -6t-6 -8q-4 -2 -6 -5t-7 -5q-2 -3 -5 -5t-8 -6q-2 0 -3 -1.5t-3 -3.5l-9 -2q-2 -2 -6.5 -4.5t-8.5 -2.5h-5v-4q5 2 9 3t9 1l6 5q2 2 4.5 3t4.5 1q7 5 14.5 10.5t11.5 11.5q7 7 12.5 13.5t11.5 12.5q3 5 5 8t4 8l9 15
q4 9 7.5 16.5t5.5 14.5q4 8 7.5 16t5.5 17q2 4 3.5 8.5t1.5 8.5q2 4 3 7.5t3 7.5l5 18q2 9 2 17q2 9 4 17t4.5 16.5t3.5 17.5t3 17l4 33l5 18q2 9 2 17q2 9 4.5 16.5t4.5 16.5q2 5 3 9t1 9q2 2 3.5 6.5t3.5 8.5l2 9l4 6q0 3 1 5t4 4q0 2 1 3t3 4q2 4 4.5 7.5t4.5 5.5
q0 2 1 2t3 2h1q1 0 1 2q3 0 5 1.5t2 3.5q2 0 5.5 -1t5.5 -3.5t4 -4.5l4.5 -4.5t3.5 -4.5t3 -4l4 -7q1 -2 3 -4q6 -11 10.5 -23t9.5 -23l3 -7q1 -2 1 -6l11 -35l13 -51l4 3q-4 10 -7.5 22.5t-7.5 25.5q-2 11 -6.5 23t-8.5 25q-5 11 -10.5 22t-9.5 24q-4 4 -7.5 9.5t-7.5 10.5
q-3 2 -5 4t-4 4.5t-5.5 3.5t-5.5 1zM241 1539q2 0 5.5 -1t5.5 -3.5t4 -4.5t5 -4q4 -5 7.5 -10.5t5.5 -11.5q6 -11 10.5 -22t9.5 -24q8 -22 14.5 -47.5t13.5 -49.5l4 3l-15 48l-11 37q0 2 -1 5.5t-1 5.5q-4 13 -9.5 24t-12.5 22q0 4 -2 6.5t-5 6.5q0 2 -2 4.5t-4 4.5
t-4.5 5.5t-4.5 3.5q-4 2 -7.5 3t-5.5 1h-2l-2 -1q-3 -1 -5 -3l-1 -2q-1 -1 -3 -1l-1 -1q-1 -1 -1 -3q-5 -2 -7 -5.5t-4 -7.5q-3 -2 -3 -4.5t-2 -2.5q0 -2 -1 -4t-3 -4l-2 -9l-5 -7q0 -4 -2 -8.5t-2 -8.5q-2 -5 -3 -9t-4 -7q-2 -8 -4 -17t-2 -18q-2 -8 -4.5 -16t-4.5 -17
l-7 -35q0 -8 -2 -17t-2 -15l-4 -18q-2 -9 -4.5 -17.5t-4.5 -16.5l-4 -16q0 -5 -1.5 -9.5t-3.5 -8.5q0 -2 -2 -6.5t-2 -8.5q-5 -9 -7 -16.5t-6 -16.5q-3 -7 -6 -14.5t-7 -16.5l-9 -15q-2 -4 -4.5 -7.5t-4.5 -5.5q-4 -9 -9.5 -15.5t-12.5 -11.5q-6 -6 -13 -11.5t-13 -9.5
q-2 -3 -4.5 -4t-4.5 -1l-7 -4q-4 0 -8.5 -2.5t-6.5 -2.5l-13 -4h20q4 2 7.5 3t7.5 4l9 4q2 0 3 1l3 3q5 3 8 5t6 6q4 3 7 6t6 5q2 5 5 7t6 6q2 5 5 8t6 8q2 2 4 5.5t4 7.5l7 15q4 9 7.5 16.5t7.5 14.5q2 9 5.5 16.5t5.5 16.5t5.5 16.5t5.5 16.5l5 17l2 15l4 18l4 18
q0 6 2.5 15t2.5 17l6 33q3 9 4 17.5t3 17.5q2 7 4 16l5 17q0 5 1 8t3 7.5t3.5 9t1.5 8.5l4 7l2 8q2 2 3 5l1 2q3 2 3 4t2 4.5t4 7t7 6.5l1 1l1 1q0 2 1 2t3 2l3 1zM1814 1541l34 -36q34 -36 42 -141q16 -149 47.5 -214t110.5 -91h-300q-24 4 -41.5 17.5t-28.5 39.5v2v0v0
q-18 31 -29 78t-22 111q-8 63 -23.5 113.5t-35.5 78.5q-13 20 -26 31t-28 11h300zM1676 1120v-1v-1q-5 7 -8 15.5t-8 19.5v0q0 2 -1 4.5t-1 4.5q-2 9 -5.5 17.5t-5.5 19.5q-6 22 -10.5 50.5t-9.5 59.5q-8 50 -20 94t-28 74q-4 9 -7.5 15.5t-7.5 13.5q22 -31 37 -82.5
t26 -112.5q9 -66 21 -114t28 -77zM1489 507q-2 0 -6 1t-7 3q-2 3 -5 6t-6 5q-4 7 -7.5 13.5t-7.5 13.5q-2 6 -5.5 12.5t-5.5 15.5q-2 7 -5.5 13.5t-5.5 15.5q-2 6 -4 12.5t-5 15.5q-2 7 -3 13.5t-3 15.5q-5 13 -9 28t-7 29q-13 59 -25 118t-23 118l-2 9l-2 -9v-2h4v2v-2
q2 20 5.5 38.5t7.5 38.5l16 74q6 39 14 76.5t16 74.5q3 20 7 38.5t11 38.5q4 17 8.5 36t11.5 38q2 9 5 18t5.5 17.5t5.5 18.5t7.5 18.5t9 16.5t8.5 16l5 5l2 2q0 2 2 4.5t4 2.5q3 4 7 6t9 5h-2q6 -3 12.5 -4t11.5 -5q6 -5 11 -9l8 -9q5 -6 8 -11.5t5.5 -10t3.5 -6.5t3 -7
l4 -11q3 -4 4 -7.5t3 -5.5q0 -2 1 -5.5t3 -7.5q3 -7 4 -12.5t3 -11.5q2 -7 4.5 -13.5t2.5 -12.5q2 -7 3 -13.5t3 -13.5l7 -26l4 -26l9 -53q2 -6 3 -13t3 -13l7 -26q0 -5 1 -8t1 -6l5 -13q2 -6 3 -12.5t3 -13.5l7 -15q2 -2 3 -4.5t1 -4.5l4 -9l3 -6v6v2l-3 -2v-2v2l-6 -39
q-2 -11 -3.5 -21t-3.5 -19l-15 -81q-7 -39 -14.5 -78.5t-16.5 -78.5l-8 -40l-9 -39q-5 -20 -10.5 -39.5t-9.5 -39.5q-2 -9 -5.5 -19t-7.5 -18q-2 -11 -5.5 -20t-7.5 -20q-5 -9 -9 -17l-9 -18q-2 -2 -3 -4t-3 -5l-1 -1q-2 -1 -2 -3l-4 -2q-4 -5 -7.5 -7t-9.5 -4h-11h-4h-3h-2
v0l-4 2h10zM1489 507h-10l4 -2v0h2h3h4h11q6 0 10.5 3t6.5 8l4 2q0 2 2 3l1 1q2 3 3 5t3 4q7 9 11.5 17.5t8.5 17.5q2 9 6.5 19t6.5 18q4 11 6.5 21t6.5 19q11 39 20 78.5t17.5 79t16.5 79t16 78.5l16 79q0 11 2 21t4 21l7 39v0l-2 2l-3 7v-7v-2l3 2l-3 7q-2 2 -3 4.5
t-1 4.5l-7 17q-2 7 -4 13.5t-2 13.5l-4 10q-3 5 -3 8t-2 6l-4 26q-2 6 -3.5 13t-3.5 13l-9 53l-4 26l-7 26q-2 7 -3 13.5t-3 13.5q0 6 -2 12.5t-4.5 13t-3.5 13.5t-3 13q-2 5 -3.5 7t-1.5 6q-2 3 -3 6t-3 7l-5 11q-2 5 -3 7l-3 7q-2 6 -5.5 11.5t-7.5 9.5q-5 7 -10.5 11.5
t-9.5 8.5q-7 5 -13.5 7t-14.5 2v0q-5 -2 -9.5 -4.5t-8.5 -6.5l-3 -3l-4 -4l-2 -4l-4 -4q-4 -9 -8.5 -16.5t-9.5 -18.5q-4 -9 -7.5 -18t-5.5 -17q-4 -9 -6.5 -19t-4.5 -19q-6 -17 -10.5 -35.5t-8.5 -38.5q-7 -18 -10.5 -37.5t-7.5 -37.5q-9 -37 -16.5 -75.5t-14.5 -75.5
l-15 -76q-2 -18 -5.5 -37.5t-7.5 -37.5v-2v0l2 -7l2 7v2h-4q6 -31 11.5 -60.5t12.5 -57.5q7 -31 13.5 -60.5t12.5 -57.5q5 -16 8 -30t8 -27q2 -9 4 -15.5t4 -15.5q3 -7 5 -13.5t4 -15.5l5 -13q2 -6 6 -13q2 -9 5.5 -15.5t5.5 -12.5q4 -7 7.5 -13.5t7.5 -13.5q3 -2 6 -5
l5.5 -5.5t6.5 -3.5t6 -1zM1676 1118v0v0v0v0zM1660 1153q0 2 -1 4.5t-1 4.5q0 -2 1 -4.5t1 -4.5zM1676 1120l-1 -1l-2 -1q-2 9 -5 16.5t-8 18.5q5 -11 8 -19.5t8 -15.5v0v1v1zM1579 1477q16 -30 28 -74t20 -94q5 -31 9.5 -59.5t10.5 -50.5q-6 24 -11.5 52.5t-12.5 61.5
q-7 48 -19 91t-25 73zM1176 1543q37 -9 71 -125t87 -394q2 -18 5.5 -36.5t5.5 -35.5v-2v-5v0v-2q33 -166 65.5 -293.5t65.5 -142.5h-265q-2 -2 -3 -2h-3h-18q-35 9 -69 124t-84 395q-2 7 -3.5 12.5t-1.5 11.5v1v1v0v2q-21 114 -43 217t-46 171q-13 42 -26.5 68t-28.5 33z
M1345 947v1v2q0 2 1 3t1 3v-2v-2q0 -2 -2 -5zM1027 1055q-15 87 -31.5 168t-33.5 145q-7 22 -12.5 41.5t-9.5 37.5q22 -68 43.5 -172t43.5 -220v0zM1345 947v0q33 -168 67 -296.5t67 -143.5q-33 15 -67 143.5t-67 296.5zM1347 956q33 -182 70 -315.5t72 -133.5h-10
q-33 15 -67 143.5t-67 296.5q2 3 2 5v2v0v1v1zM1027 1052q-13 -70 -27 -141t-30 -141q-8 -35 -17 -70t-20 -70q-4 -18 -9.5 -35.5t-14.5 -32.5q-2 -9 -6.5 -16.5t-11.5 -16.5q-2 -2 -4 -5.5t-6 -7.5q-3 -2 -7 -4.5t-9 -2.5h2h-8h-7h-3h-1l-3 2h-2h-2q0 3 -1 3h-1
q-7 6 -10 11.5t-8 12.5q-4 6 -7.5 14t-5.5 14.5t-5.5 14t-5.5 14.5q-11 28 -18.5 57.5t-14.5 58.5q-8 30 -14.5 60t-11.5 60q-6 31 -13 60.5t-11 60.5v-2l7 39l6 37l16 77q6 39 13.5 76.5t14.5 76.5q4 18 8.5 37.5t9.5 37.5q2 11 4 19.5t6 19.5l5 18q2 8 4 19q2 9 5.5 18
t7.5 20q3 8 6 17t8 18l8 17l9 18l2 4l5 2q0 2 2 4.5t2 4.5q4 2 8.5 4.5t9.5 4.5h-3h4h1q0 -2 1 -2h3q0 -3 2 -3t5 -2q2 -2 4 -5.5t4 -5.5q5 -6 9.5 -14t6.5 -14l7 -16q4 -6 6 -15q2 -7 5.5 -14.5t5.5 -16.5q4 -15 8.5 -30.5t8.5 -30.5l16 -63l13 -64q2 -7 4 -15.5t5 -15.5
l6 -32l11 -64l7 -31q2 -8 3 -16t3 -17zM1027 1052q0 9 -2 17l-4 16l-5 31l-13 64l-6 32q0 7 -2.5 15.5t-4.5 15.5l-13 64l-9 32l-6 31q-5 15 -9.5 30.5t-8.5 33.5q-2 6 -4.5 14t-6.5 16q-2 7 -5.5 14.5t-5.5 14.5l-8 15q-3 7 -7 13q-5 5 -7 8t-4 5.5t-4.5 3.5t-4.5 1
q0 2 -1 2h-3h-1h-4v0q-4 0 -8.5 -3.5t-8.5 -5.5q0 -2 -2.5 -4t-4.5 -5l-2 -2l-2 -4q-7 -9 -11 -17.5t-9 -17.5q-2 -9 -6.5 -19t-6.5 -18.5t-5.5 -17.5t-5.5 -20q-4 -8 -6.5 -18t-4.5 -19t-5.5 -18.5t-5.5 -18.5q-4 -20 -8.5 -38.5t-8.5 -38.5q-7 -37 -14.5 -75.5
t-16.5 -75.5l-13 -77l-9 -39l-7 -37v-2q7 -29 13.5 -59.5t11.5 -59.5q6 -30 12.5 -60t15.5 -60q7 -31 15.5 -60.5t17.5 -58.5q2 -6 5.5 -13.5t5.5 -14.5q4 -7 7.5 -13.5t5.5 -14.5q4 -7 8.5 -12.5t11.5 -12.5l1 -1l1 -1q2 0 2 -1t2 -1l5 -2h1h3h7h8v0q5 2 9.5 4t6.5 5l7 7
q4 4 6 8q4 7 8.5 14.5t8.5 16.5q7 17 12.5 33.5l11.5 34.5q11 35 19 70t17 70q15 72 28 143.5t26 140.5zM1027 1055v-3v0v0v2v1zM1027 1059q-16 81 -34 165q-16 80 -31 144q17 -64 33.5 -145t31.5 -168v-1v-2v4v3zM541 1541q37 -7 71 -122t85 -393q2 -20 5 -37.5t8 -34.5
q-3 0 -3 -2v-2q14 -68 27 -130.5t26 -115.5q20 -81 40.5 -134.5t40.5 -62.5h-291q-33 9 -68 124t-88 395q-4 18 -6 34.5t-7 33.5h1h1v1v1v0q-22 105 -42.5 198.5t-40.5 152.5q-15 46 -30.5 70t-30.5 24h206h96zM712 952l-2 -2q13 -68 26 -130.5t26 -115.5q-15 53 -28 116.5
t-24 131.5v2v2v-2v-1q0 -1 2 -1zM381 1098q-13 75 -27 142t-30 124q-6 24 -13 47t-13 42q22 -61 42.5 -154t40.5 -201v0zM762 704q22 -87 44 -142t44 -55h-7q-22 9 -41.5 62.5t-39.5 134.5zM852 507h-2q-22 0 -44 55t-44 142q-13 53 -26 115.5t-26 130.5l2 2
q33 -180 69 -312.5t71 -132.5zM171 1355l4 24q2 6 3.5 13t1.5 11q2 7 3 13.5t3 12.5q2 5 3.5 11.5t3.5 13t3 12t3 11.5l5 11q2 3 3 6t3 5q0 5 2.5 7t2.5 4q2 2 2 3.5t2 3.5l1 2l1 2l4.5 4.5l4.5 4.5l3 3t4 1l1 1q1 2 3 4v-2q2 0 5.5 -1.5t7.5 -3.5q2 -2 4.5 -4t4.5 -7
q4 -4 7.5 -10.5t7.5 -13.5q7 -13 11.5 -26t8.5 -26q6 -14 9.5 -28t7.5 -27q3 -9 5 -15.5t2 -13.5l7 -28l13 -57l6 -29q2 -6 3.5 -12.5t3.5 -13.5l22 -114v2v-2v-2v-9l2 2l-9 -8q-2 0 -4 -2.5t-4.5 -4.5t-4.5 -4t-4 -2l-5 -5l-4 -2q-2 0 -5.5 -1t-5.5 -1q-2 -2 -5.5 -2
t-5.5 -3h-5h-6h-105l-188 -2l2 -2q4 2 9.5 4.5t9.5 4.5q3 2 5 3t4 3l9 7q2 0 4.5 2t4.5 4.5t4 3.5t4 3q3 4 7 8.5t7 9.5l6 8q2 3 3.5 5t3.5 4q0 2 2 4.5t2 4.5l5 11q4 4 6 9l4 8q3 7 5 11.5t4 10.5q2 5 3.5 9t3.5 11l4 9l2 11q3 6 4 10.5t3 11.5l4 19l5 22q2 5 3 10.5t1 9.5
q2 7 3 12t1 10zM171 1355l-5 -22q0 -5 -1 -10t-3 -10q0 -6 -1 -11.5t-3 -10.5l-5 -22l-4 -19q-2 -7 -3 -11.5t-4 -10.5l-4 -9l-2 -11q-2 -4 -4.5 -9.5t-4.5 -10.5q-2 -6 -4 -11l-5 -8q-2 -7 -4 -11l-4 -9l-5 -11q-2 -2 -3 -4.5t-3.5 -4.5t-3.5 -4t-3 -5l-7 -8q-2 -5 -5 -8
l-8 -8l-4 -4t-4 -2q-3 -2 -4 -4.5t-3 -4.5l-9 -4q-2 -3 -5.5 -4t-5.5 -3q-4 -2 -8.5 -4.5t-10.5 -4.5l-7 -2h300h6h5q4 0 6.5 1t6.5 1q2 2 5.5 3.5t5.5 1.5l4 2l7 4q2 0 4.5 2.5l4.5 4.5l4 4l5 5l8 8v2l-2 9v-2l2 2h-2l-22 114q-2 7 -3 14.5t-3 14.5l-7 28l-20 83
q-2 7 -4 14.5t-4 14.5q-3 13 -7 27t-11 28q-4 13 -9.5 27t-10.5 27q-4 5 -7.5 11.5t-7.5 12.5q-2 3 -5.5 6t-5.5 5.5t-5.5 3.5t-7.5 1v0q-2 -2 -3 -2t-4 -3l-1 -1q-1 -1 -3 -1q-2 -2 -4.5 -4t-4.5 -7l-1 -1l-3 -3q0 -2 -1 -3l-1 -2l-4 -6l-3 -7q0 -2 -1 -4t-3 -7l-5 -11
q-2 -6 -4 -11.5t-2 -12.5l-5 -13q-2 -6 -2 -11q-2 -6 -3 -12.5t-3 -13.5q0 -4 -2.5 -11t-2.5 -13zM381 1098v0v-2v0v2v0zM379 1107v0q-13 70 -27.5 136t-27.5 121q16 -57 30 -124t27 -142v0q-2 3 -2 5v4z" />
</svg>
