<?xml version="1.0" standalone="no"?>
<!DOCTYPE svg PUBLIC "-//W3C//DTD SVG 1.1//EN" "http://www.w3.org/Graphics/SVG/1.1/DTD/svg11.dtd" >
<svg xmlns="http://www.w3.org/2000/svg" xmlns:xlink="http://www.w3.org/1999/xlink" version="1.1" width="2048" height="2048" viewBox="-10 0 2068 2048">
   <path fill="currentColor"
d="M596 926l-330 122q3 39 9.5 77.5t17.5 77.5l311 -113q-6 -40 -8.5 -80.5t0.5 -83.5zM2048 563q-18 -35 -38 -69t-44 -66l-327 119q27 29 52 62t43 70zM1323 470q53 24 97.5 57t81.5 70l327 -119q-68 -97 -160.5 -175t-205.5 -130q-177 -82 -362.5 -87.5t-355.5 56.5
t-308.5 186t-223.5 298q-52 116 -72 234.5t-12 234.5l330 -118q2 -53 16.5 -106t38.5 -105q53 -114 144 -194t200 -121t230.5 -37t234.5 56zM314 1195l-314 114q24 84 61 164.5t87 154.5l326 -122q-63 -63 -104 -143.5t-56 -167.5zM1674 1071q-3 53 -17.5 106t-38.5 105
q-52 114 -143 194t-200.5 121t-230.5 37t-235 -56q-53 -24 -97.5 -55.5t-81.5 -71.5l-327 119q69 97 161 175t205 130q177 82 363 87.5t356 -56.5t308.5 -186t222.5 -298q53 -116 72.5 -234.5t11.5 -234.5zM1755 671l-311 113q43 77 62.5 165t14.5 178l327 -119
q-8 -89 -30.5 -173.5t-62.5 -163.5z" />
</svg>
