<?xml version="1.0" standalone="no"?>
<!DOCTYPE svg PUBLIC "-//W3C//DTD SVG 1.1//EN" "http://www.w3.org/Graphics/SVG/1.1/DTD/svg11.dtd" >
<svg xmlns="http://www.w3.org/2000/svg" xmlns:xlink="http://www.w3.org/1999/xlink" version="1.1" width="2048" height="2048" viewBox="-10 0 2068 2048">
   <path fill="currentColor"
d="M0 17v2014h2048v-2014h-2048zM1885 1870h-1722v-1692h1722v1692zM967 582q-39 -32 -97.5 -50.5t-139.5 -18.5q-79 0 -157 2l-78 2v825h172v-265l20 -1q20 -1 43 -1q88 -5 145 -30.5t104 -71.5q32 -35 50.5 -84t18.5 -111q0 -61 -22 -112t-59 -84zM725 931h-32
q-12 0 -26 -2v-284l23 -1q24 -1 49 1q68 2 102.5 43t34.5 99q0 65 -40.5 103.5t-110.5 40.5zM1388 957q-58 -21 -79 -35t-21 -37q0 -24 18.5 -36.5t53.5 -12.5q39 0 89 18.5t71 30.5v-140q-28 -14 -69.5 -28t-95.5 -14q-114 0 -181 57t-67 145q0 54 39.5 93.5t132.5 71.5
q53 19 71.5 42.5t18.5 46.5q0 25 -18.5 39t-62.5 14q-42 0 -94.5 -18.5t-77.5 -34.5v137q35 19 81.5 34t90.5 17q132 2 198.5 -57t66.5 -145q-2 -68 -40.5 -113t-124.5 -75z" />
</svg>
