<?xml version="1.0" standalone="no"?>
<!DOCTYPE svg PUBLIC "-//W3C//DTD SVG 1.1//EN" "http://www.w3.org/Graphics/SVG/1.1/DTD/svg11.dtd" >
<svg xmlns="http://www.w3.org/2000/svg" xmlns:xlink="http://www.w3.org/1999/xlink" version="1.1" width="2048" height="2048" viewBox="-10 0 2068 2048">
   <path fill="currentColor"
d="M1211 1024q0 76 -55 131t-133 55q-76 0 -131 -55t-55 -131q0 -78 55 -133t131 -55q78 0 133 55t55 133zM1023 1712q112 107 217.5 167t193.5 60q27 0 54 -6t49 -21q78 -44 106 -154t1 -272q-5 -29 -11 -58.5t-13 -58.5q29 -10 57 -18.5t55 -18.5q155 -58 235.5 -136.5
t80.5 -169.5q0 -90 -80.5 -168.5t-235.5 -136.5q-26 -10 -54.5 -20t-57.5 -17q7 -29 13 -58.5t11 -56.5q25 -166 -2 -277.5t-105 -155.5q-25 -15 -52 -21t-54 -6q-85 0 -191.5 60t-216.5 167q-110 -107 -215.5 -167t-193.5 -60q-27 0 -54 6t-49 21q-78 44 -106 154t-1 272
q5 29 11 58.5t13 58.5q-29 10 -57 18.5t-55 18.5q-155 58 -235.5 136.5t-80.5 169.5q0 90 80.5 168.5t235.5 136.5q27 10 55 20t57 17q-7 29 -13 58.5t-11 56.5q-25 162 2 273t105 155q22 13 49 20t54 7q88 3 193.5 -57t215.5 -165v0zM910 1440q30 2 58 2h55h57q28 0 58 -2
q-30 37 -58 70t-57 65q-27 -32 -55 -65t-58 -70zM661 1232q17 27 30.5 51.5t30.5 48.5q-47 -7 -91 -14.5t-85 -17.5q12 -39 28 -81.5t33 -84.5q12 25 25.5 49.5t28.5 48.5zM546 748q41 -10 85 -17.5t91 -14.5q-15 24 -29.5 48.5t-31.5 51.5q-15 24 -28.5 48.5t-25.5 51.5
q-20 -44 -34.5 -86.5t-26.5 -81.5zM656 1024q19 -42 40 -82t45 -82q25 -39 49.5 -78t51.5 -79q44 -4 89 -5.5t92 -1.5q49 0 94 1.5t89 5.5q30 40 53 79t48 78q24 42 45 82t40 82q-19 39 -40 80.5t-45 80.5l-49 79q-25 39 -52 78q-44 5 -89 6t-94 1q-47 0 -92 -1t-89 -6
q-30 -39 -53 -78t-47.5 -78.5t-45.5 -81t-40 -80.5v0zM1444 914l-57 -100q-14 -27 -27.5 -50.5t-30.5 -47.5q46 5 90 12t86 17q-12 42 -28 84.5t-33 84.5v0zM1444 1132q17 41 33 84t28 82q-42 10 -86 17.5t-90 14.5q14 -25 29 -49.5t29 -50.5q15 -22 28.5 -46.5t28.5 -51.5
v0zM1490 1831q-12 8 -26.5 10.5t-32.5 2.5q-73 0 -162.5 -55t-179.5 -146q44 -46 87 -99t84 -111q71 -8 138.5 -17.5t130.5 -26.5q8 26 12.5 54.5t9.5 55.5q22 127 6.5 215t-67.5 117zM1593 770q171 48 266.5 116.5t95.5 137.5q0 59 -67.5 115t-189.5 103q-24 10 -50 18.5
t-55 15.5q-20 -61 -44.5 -124.5t-53.5 -127.5q29 -66 55 -129.5t43 -124.5v0zM1434 202q15 0 29.5 2.5t26.5 12.5q52 26 69 113t-5 217q-5 27 -11 54t-11 56q-64 -15 -131 -24.5t-138 -17.5q-42 -61 -85 -113.5t-87 -98.5q91 -89 179 -145t164 -56zM1138 606q-30 0 -58 -1.5
t-57 -1.5q-27 0 -55 1.5t-58 1.5q30 -37 58 -70t55 -65q29 32 57 66t58 69v0zM558 217q12 -10 26.5 -12.5t32.5 -2.5q73 0 162.5 55t179.5 146q-44 46 -87 98.5t-84 113.5q-71 5 -138.5 16t-130.5 26q-8 -27 -12.5 -55t-9.5 -55q-22 -127 -6.5 -214t67.5 -116v0zM455 1276
q-171 -46 -266.5 -116t-95.5 -136q0 -59 67.5 -116.5t189.5 -103.5q24 -10 50 -18.5t55 -15.5q20 61 44.5 124.5t53.5 129.5q-29 64 -55 128.5t-43 123.5zM497 1499l9 -54q5 -27 13 -56q63 14 130.5 25t138.5 19q41 58 84 111t87 99q-90 91 -179.5 146t-162.5 55
q-18 0 -31 -2.5t-28 -10.5q-52 -29 -67.5 -117t6.5 -215z" />
</svg>
