<?xml version="1.0" standalone="no"?>
<!DOCTYPE svg PUBLIC "-//W3C//DTD SVG 1.1//EN" "http://www.w3.org/Graphics/SVG/1.1/DTD/svg11.dtd" >
<svg xmlns="http://www.w3.org/2000/svg" xmlns:xlink="http://www.w3.org/1999/xlink" version="1.1" width="2048" height="2048" viewBox="-10 0 2068 2048">
   <path fill="currentColor"
d="M1250 1604q3 2 6.5 15t-3.5 30q-6 8 -11 14t-15 14q-10 10 -30 15t-51 -15q-15 -10 -21 -12.5t-29 -0.5q-15 3 -21.5 -9.5t1.5 -25.5q5 -13 25 -19t48 9q13 8 32 18t36 -5q8 -5 13 -10.5t15 -17.5h1h1h2h1zM1202 377h-5h-16q-9 0 -19 2q-28 3 -53.5 9t-42.5 16v2v1v1
q0 1 2 1q5 0 10 -1t10 -1q48 -5 83.5 2.5t38.5 20.5q0 12 -19 22t-50 18l-1 1q-1 2 -1 4l1 1q1 2 1 4q13 3 28 5.5t31 2.5q50 0 85.5 -15.5t35.5 -37.5q0 -23 -34 -40.5t-85 -17.5zM919 538q-38 0 -65.5 4t-52.5 4q-23 0 -41 -13t-25 -23q-8 -7 -25.5 -9.5t-27.5 25.5
q-13 27 2.5 52.5t35.5 27.5l24 34q24 35 46 9q18 -17 42 -27.5t112 -15.5q43 -5 52 -13.5t9 -18.5q-2 -13 -25 -24.5t-61 -11.5zM1025 119q-212 0 -399 79.5t-325.5 218.5t-219.5 326t-81 399q0 86 14 168t39 157h71q48 0 91 -10t80 -30q11 -5 21 -7.5t20 -2.5q25 0 44 10
t32 30q12 21 22 32t23 19q13 7 28 12.5t35 5.5q10 -3 23 -5.5t18 -12.5q5 -13 -1.5 -21.5t-21.5 -16.5q-20 -8 -29 -21.5t-19 -31.5q-13 -20 -30.5 -36.5t-22.5 -54.5q-3 -35 25 -69t83 -19q41 10 67.5 48t36.5 55q5 8 20 14t31 -6q12 -13 26 -13t24 18q10 15 70.5 79.5
t134.5 66.5q75 3 120.5 -9.5t78.5 -12.5q25 2 38 9.5t28 10.5q22 2 41 -10.5t45 -12.5q20 3 42.5 11.5t47.5 8.5q23 0 59.5 -16.5t34.5 -3.5q0 20 -11.5 50.5t-16.5 45.5q-2 13 -2 37t-5 46q-8 23 -24.5 48.5t-21.5 32.5q-18 28 -33 43t-30 46q-18 32 -40.5 60t-30.5 38
q-10 13 34.5 2.5t66.5 -30.5q18 -20 52 -60.5t87 -50.5q36 -10 46 -21.5t5 -23.5q0 -3 -1.5 -4t-1.5 -4q0 -5 2.5 -9t7.5 -6q36 -15 84 -24t103 -9q33 0 63.5 4t60.5 11q78 -118 121 -259.5t43 -295.5q0 -212 -81 -399t-219.5 -326t-325.5 -218.5t-397 -79.5zM1856 1122
q-18 101 -103.5 167.5t-213 97t-284.5 21.5t-318 -57q-152 -45 -290.5 -112t-241 -137.5t-155.5 -140t-38 -125.5q18 -63 110 -88t226 -13q-20 43 -8.5 91t99.5 101q108 61 256 105t196 39q20 0 31.5 -9t-6.5 -19q-15 -12 -30 -35t-23 -61q-5 -22 -29 -48.5t-140 -49.5
q-250 -48 -283 -108.5t-25 -101.5l15 -72q15 -72 25 -107t54.5 -88.5t203.5 -17.5q93 20 146 6t79 -21q68 -18 137.5 -5.5t112.5 55.5q43 46 96 163t80 221q16 53 14.5 82t-9.5 47q-5 12 -11 23.5t-24 44.5q-2 5 -1 9t9 1q48 -25 64 -55.5t24 -55.5q131 30 202 94.5
t53 158.5z" />
</svg>
