<?xml version="1.0" standalone="no"?>
<!DOCTYPE svg PUBLIC "-//W3C//DTD SVG 1.1//EN" "http://www.w3.org/Graphics/SVG/1.1/DTD/svg11.dtd" >
<svg xmlns="http://www.w3.org/2000/svg" xmlns:xlink="http://www.w3.org/1999/xlink" version="1.1" width="2048" height="2048" viewBox="-10 0 2067 2048">
   <path fill="currentColor"
d="M1028 0q-210 -3 -396 76.5t-326 216.5t-222 323t-82 396q-3 214 76 401.5t216 327.5t323 222t400 85q210 3 396 -76.5t327.5 -218t223.5 -324.5t82 -396q3 -214 -76 -401.5t-217.5 -327t-324.5 -222t-400 -82.5zM994 684q-12 14 -23.5 7t-20.5 -13q-184 -78 -335.5 4
t-180.5 281q-8 70 -2.5 139t31.5 135q61 133 196.5 178t276.5 -28q12 -5 22 -12.5t21 -7.5q18 46 -2.5 70.5t-60.5 36.5q-196 63 -357.5 -19t-202.5 -287q-34 -187 36.5 -344.5t223.5 -220.5q89 -38 178.5 -35t179.5 32l31 9q0 20 3 38.5t-14 36.5zM1663 1307
q-12 63 -65 115t-128 66q-55 15 -110 13.5t-110 -16.5q-69 -17 -83.5 -37t-11.5 -95q41 23 82.5 43t87.5 26q47 9 90 6t83 -23q73 -35 84.5 -114.5t-49.5 -133.5q-35 -32 -75 -52t-81 -41q-29 -14 -57.5 -28.5t-54.5 -31.5q-58 -38 -85.5 -92.5t-21.5 -124.5
q6 -72 48 -119.5t108 -76.5q72 -28 144 -24t144 30q41 12 38 42t0 62q-64 -32 -124.5 -50.5t-126.5 -4.5q-61 12 -100 45t-47 82q-9 61 11 104t78 75q52 29 105.5 55t105.5 54q78 47 105 103t16 143z" />
</svg>
