<?xml version="1.0" standalone="no"?>
<!DOCTYPE svg PUBLIC "-//W3C//DTD SVG 1.1//EN" "http://www.w3.org/Graphics/SVG/1.1/DTD/svg11.dtd" >
<svg xmlns="http://www.w3.org/2000/svg" xmlns:xlink="http://www.w3.org/1999/xlink" version="1.1" width="2048" height="2048" viewBox="-10 0 2058 2048">
   <path fill="currentColor"
d="M1095 1192q27 6 54 13.5l63 17.5q-17 -33 -31.5 -61t-29.5 -56q-10 -16 -8 -27.5t15 -24.5q23 -25 43.5 -51t43.5 -53q-2 -2 -3 -4.5t-1 -4.5q-27 7 -54 13t-54 17q-28 8 -46.5 2.5t-31.5 -34.5q-8 -21 -23.5 -44t-32.5 -52q-9 36 -15 65t-8 56q-2 30 -15.5 46.5
t-43.5 20.5q-27 6 -55 16.5t-64 23.5q34 14 64 26.5t62 25.5q-19 13 -36 24.5t-33 21.5q-5 2 -11 4t-10 0q-32 -14 -63 -28t-58 -32q-28 -19 -22.5 -46.5t36.5 -39.5q38 -15 75.5 -27.5t75.5 -22.5q16 -6 24.5 -15.5t10.5 -26.5q4 -29 10.5 -58.5t10.5 -58.5q2 -10 5 -19.5
t8 -18.5q18 -35 44.5 -37t47.5 29q16 25 32 49t28 51q11 21 24.5 26.5t36.5 -3.5q33 -10 66.5 -19.5t69.5 -15.5q14 -2 30 4t32 8q-4 17 -6 33.5t-13 29.5q-23 31 -49 61.5t-53 59.5q-10 13 -12.5 24.5t8.5 25.5q15 28 30.5 57t27.5 58q7 15 7 34t-9 29q-8 10 -26 16.5
t-32 4.5q-29 -4 -59.5 -11.5t-53.5 -24.5q-15 -8 -20 -30t-13 -41q2 -2 5 -3t5 -3z" />
</svg>
