<?xml version="1.0" standalone="no"?>
<!DOCTYPE svg PUBLIC "-//W3C//DTD SVG 1.1//EN" "http://www.w3.org/Graphics/SVG/1.1/DTD/svg11.dtd" >
<svg xmlns="http://www.w3.org/2000/svg" xmlns:xlink="http://www.w3.org/1999/xlink" version="1.1" width="2048" height="2048" viewBox="-10 0 2058 2048">
   <path fill="currentColor"
d="M919 1126q-4 31 -8.5 61.5t-8.5 61.5h-36h-39q4 -48 10.5 -93t12.5 -91q2 -23 5 -46t8 -46q10 -69 61 -118t116 -55q98 -10 150.5 62t14.5 164q-37 85 -115.5 113.5t-170.5 -13.5zM1138 965q0 -38 -24 -63t-61 -25q-46 0 -79.5 33.5t-33.5 79.5q0 38 25 62t63 24
q44 0 77 -33.5t33 -77.5z" />
</svg>
