<?xml version="1.0" standalone="no"?>
<!DOCTYPE svg PUBLIC "-//W3C//DTD SVG 1.1//EN" "http://www.w3.org/Graphics/SVG/1.1/DTD/svg11.dtd" >
<svg xmlns="http://www.w3.org/2000/svg" xmlns:xlink="http://www.w3.org/1999/xlink" version="1.1" width="2048" height="2048" viewBox="-10 0 2058 2048">
   <path fill="currentColor"
d="M853 1164q21 -10 39.5 -20.5t39.5 -23.5q6 11 11.5 19.5t9.5 16.5q17 23 41 25t45 -15q21 -16 22 -34t-18 -41q-17 -21 -34.5 -39.5t-36.5 -37.5q-27 -29 -39.5 -62.5t3.5 -71.5q19 -44 51.5 -68t78.5 -28t76 15.5t53 57.5q-16 15 -35 28.5t-36 27.5q-10 -10 -17.5 -21.5
t-17.5 -13.5q-15 -2 -31.5 -2t-29.5 6q-19 13 -12.5 26.5t16.5 25.5q19 19 36 38t33 38q32 29 43.5 63.5t-1.5 76.5q-17 44 -47 72t-78 38q-65 13 -104.5 -10t-60.5 -86z" />
</svg>
