<?xml version="1.0" standalone="no"?>
<!DOCTYPE svg PUBLIC "-//W3C//DTD SVG 1.1//EN" "http://www.w3.org/Graphics/SVG/1.1/DTD/svg11.dtd" >
<svg xmlns="http://www.w3.org/2000/svg" xmlns:xlink="http://www.w3.org/1999/xlink" version="1.1" width="2048" height="2048" viewBox="-10 0 2058 2048">
   <path fill="currentColor"
d="M1182 1190h-40h-39q6 -37 11.5 -74.5t9.5 -75.5q2 -31 -5.5 -59.5t-36.5 -45.5q-25 -14 -57.5 -10t-57.5 25q-25 23 -36.5 50t-3.5 61q13 42 52.5 56.5t81.5 -8.5q9 -4 17 -9.5t17 -9.5q0 11 -2 21l-5 21q-4 42 -16.5 54.5t-56.5 14.5q-92 4 -140 -59.5t-21 -151.5
q21 -67 80.5 -108t128.5 -34q61 4 101.5 45.5t38.5 102.5q-2 48 -9 96t-12 98z" />
</svg>
