<?xml version="1.0" standalone="no"?>
<!DOCTYPE svg PUBLIC "-//W3C//DTD SVG 1.1//EN" "http://www.w3.org/Graphics/SVG/1.1/DTD/svg11.dtd" >
<svg xmlns="http://www.w3.org/2000/svg" xmlns:xlink="http://www.w3.org/1999/xlink" version="1.1" width="2048" height="2048" viewBox="-10 0 2058 2048">
   <path fill="currentColor"
d="M976 994q38 -40 70 -75.5t66 -70.5q12 35 12 66.5t-35 56.5q-15 13 -28.5 28.5t-28.5 30.5q40 54 78.5 108.5t80.5 112.5q-25 0 -48 1t-46 -1q-6 0 -12.5 -7.5t-12.5 -15.5q-25 -35 -50 -74t-54 -85q-7 40 -13 72.5t-6 63.5q-2 29 -13.5 39.5t-38.5 6.5q-9 0 -18.5 -1
t-21.5 -1q8 -56 14.5 -111.5t14.5 -112.5q4 -33 9.5 -65.5t7.5 -65.5q2 -23 10.5 -36.5t26.5 -24.5q15 -6 28.5 -15.5t32.5 -21.5q-6 50 -12.5 98t-12.5 100z" />
</svg>
