<?xml version="1.0" standalone="no"?>
<!DOCTYPE svg PUBLIC "-//W3C//DTD SVG 1.1//EN" "http://www.w3.org/Graphics/SVG/1.1/DTD/svg11.dtd" >
<svg xmlns="http://www.w3.org/2000/svg" xmlns:xlink="http://www.w3.org/1999/xlink" version="1.1" width="2048" height="2048" viewBox="-10 0 2058 2048">
   <path fill="currentColor"
d="M1113 933h-18h-16q-21 -2 -31 8.5t-15 31.5q-4 44 -11 90t-12 92q-2 23 -11 32.5t-32 5.5h-18h-22q6 -44 11.5 -87t9.5 -83q2 -18 5 -35t5 -34q9 -50 38 -75t81 -25q9 0 18 1t18 1q2 0 4 1t4 3q-2 17 -4 35t-4 38z" />
</svg>
