<?xml version="1.0" standalone="no"?>
<!DOCTYPE svg PUBLIC "-//W3C//DTD SVG 1.1//EN" "http://www.w3.org/Graphics/SVG/1.1/DTD/svg11.dtd" >
<svg xmlns="http://www.w3.org/2000/svg" xmlns:xlink="http://www.w3.org/1999/xlink" version="1.1" width="2048" height="2048" viewBox="-10 0 2058 2048">
   <path fill="currentColor"
d="M1391 46q-64 -59 -142 -42t-157 89q-12 10 -23 21l-23 23q-67 72 -131 170.5t-117 208t-92.5 222t-59.5 213.5q15 32 27.5 67.5t19.5 65.5q2 10 3.5 16t3.5 13q3 15 5 24l3 9l-3 -7l-7 -21q0 -2 -1.5 -4.5t-1.5 -7.5q-2 0 -2 -2v-3q-10 -22 -29.5 -56.5t-29.5 -54.5
q-10 27 -17.5 52t-14.5 49q29 57 48 131l18 74l-2 -9q-3 -8 -10 -28t-33 -65.5t-34 -60.5q-14 52 -19 85.5t0 40.5q10 17 18.5 43t18.5 58q17 72 29 139l13 68v6v14q-3 59 -1.5 119.5t6.5 114.5q7 74 17 133t24 94l15 -7q-22 -67 -30.5 -152t-3.5 -186q5 -153 40.5 -334.5
t99.5 -373.5q55 -145 120 -276t134 -239.5t142 -193.5t142 -139q-64 57 -135.5 169t-137 236.5t-118.5 241.5t-78 186q-59 156 -99.5 301.5t-65.5 285.5q42 -131 141 -190l98 -59l59 -75q60 -75 139 -196q-47 12 -111.5 28t-91.5 26q-39 17 -51 24l-13 6l100 -57
q100 -57 208 -91q72 -116 142.5 -249t108.5 -262.5t30.5 -242t-88.5 -183.5z" />
</svg>
