<?xml version="1.0" standalone="no"?>
<!DOCTYPE svg PUBLIC "-//W3C//DTD SVG 1.1//EN" "http://www.w3.org/Graphics/SVG/1.1/DTD/svg11.dtd" >
<svg xmlns="http://www.w3.org/2000/svg" xmlns:xlink="http://www.w3.org/1999/xlink" version="1.1" width="2048" height="2048" viewBox="-10 0 2068 2048">
   <path fill="currentColor"
d="M1166 1292q2 2 7 4.5t7 2.5h88q2 0 7 -2.5t7 -4.5l22 -25q3 -2 4 -4.5t1 -4.5l24 -83q3 -7 1.5 -12t-5.5 -10l-17 -15q-3 -2 -8 -1t-7 1h-80l-5 -5q-3 0 -5.5 -1t-4.5 1l-29 20q-3 0 -4 5t-3 7l-27 80q-3 5 -1.5 12.5t6.5 12.5zM1178 1722l-5 3h-20l117 -346
q3 -7 -1 -15.5t-11 -11.5l-7 -2h-197q-8 2 -11.5 6t-5.5 11l-13 41q-2 8 4 15t13 10l5 -3h30l-120 341q-2 10 1.5 18.5t13.5 13.5l5 5h182q8 0 14 -6.5t8 -13.5l12 -39q3 -7 -1 -15.5t-13 -11.5v0zM2044 1401l-32 -41q-2 -5 -5.5 -7.5t-8.5 -2.5h-120q-4 0 -8 3.5t-6 6.5
l-34 39h-51l-34 -39v-3q-3 -5 -6.5 -6t-8.5 -1h-66l329 -331l-368 -365l329 -338v-146l-46 -58h-665l-56 55v49l-182 -187l-127 121l-39 -38h-657l-53 58v153l49 49h48v426l-226 226l226 229v520l85 49h190l149 -156l350 353l239 -236q0 5 3.5 6t10.5 4l5 -3h153q8 0 14 -1
t6 -8l12 -32q2 -10 -1.5 -16t-10.5 -8h-8h-7l56 -173l37 -39h82l-82 260q-3 8 2 14t12 8l8 -2h148q7 0 12 -2.5t7 -7.5l13 -29q4 -10 0.5 -17t-10.5 -10q-3 -2 -5 -1t-5 1h-5l68 -211h100l-85 257q-2 10 2.5 15t14.5 7l5 -5h163q7 0 12 -1t7 -8l15 -32q2 -10 -1.5 -16
t-13.5 -8q0 -3 -2 -1.5t-5 1.5h-12l92 -302q3 -5 1.5 -11t-3.5 -11v0zM1005 60l182 185v76l56 68h27l-472 455v-455h54l43 -71v-143l-2 -5zM29 1024l197 -197v394zM664 1649l952 -978l348 351l-329 328h-2q-3 2 -5.5 4.5t-4.5 5.5l-37 39h-46l-36 -39q-3 -5 -6.5 -7.5
t-8.5 -2.5h-143q-8 0 -14 3.5t-8 11.5l-12 41q-3 10 -0.5 16t12.5 11h24l-105 306l-245 249z" />
</svg>
