<?xml version="1.0" standalone="no"?>
<!DOCTYPE svg PUBLIC "-//W3C//DTD SVG 1.1//EN" "http://www.w3.org/Graphics/SVG/1.1/DTD/svg11.dtd" >
<svg xmlns="http://www.w3.org/2000/svg" xmlns:xlink="http://www.w3.org/1999/xlink" version="1.1" width="2048" height="2048" viewBox="-10 0 2058 2048">
   <path fill="currentColor"
d="M1895 317q0 -126 -83.5 -214.5t-210 -101t-223 67t-113 198t50.5 223t185 130.5v167q0 51 -43 77l-437 217l-437 -217q-42 -25 -42 -77v-167q118 -25 185 -126.5t50.5 -219t-105 -193.5t-206 -76t-205.5 76t-105 193.5t50.5 218.5t184.5 127v167q0 68 33.5 126.5
t92.5 84.5l429 226v202q-118 33 -185 130t-50 215t105 197.5t210 79.5t210 -79.5t101 -197.5t-55 -215t-176 -130v-202l420 -218q68 -33 101 -92t33 -127v-167q101 -25 164 -109.5t71 -193.5zM316 317q0 -68 46 -114t113 -46t109.5 46t42.5 114t-42.5 114t-109.5 46
t-113 -46t-46 -114zM1181 1738q0 67 -46 109t-113 42t-113.5 -42.5t-46.5 -109.5t46.5 -113t113.5 -46t113 46t46 114zM1576 477q-67 0 -113.5 -46t-46.5 -114t46.5 -114t114 -46t113.5 46t46 114t-46 114t-114 46z" />
</svg>
