<?xml version="1.0" standalone="no"?>
<!DOCTYPE svg PUBLIC "-//W3C//DTD SVG 1.1//EN" "http://www.w3.org/Graphics/SVG/1.1/DTD/svg11.dtd" >
<svg xmlns="http://www.w3.org/2000/svg" xmlns:xlink="http://www.w3.org/1999/xlink" version="1.1" width="2048" height="2048" viewBox="-10 0 2058 2048">
   <path fill="currentColor"
d="M694 532q-59 87 -154 131l-57 15v684q138 29 211 146q59 88 58 189q0 73 -22 139q-44 95 -131.5 153t-193 58t-189 -58t-123.5 -153t-22 -197t91 -174.5t174 -94.5v-692q-102 -21 -174.5 -94t-90.5 -175.5t22 -197t123.5 -152.5t193.5 -58q139 -8 244 94t98 248
q1 109 -58 189zM591 1610q-28 -52 -75.5 -80.5t-105.5 -28.5q-95 0 -157 76t-40 171q7 59 54.5 103t105.5 54.5t116.5 -11.5t91.5 -72.5t36 -105.5t-26 -106zM300 511q51 36 109.5 36t106 -29.5t76.5 -80t25.5 -109.5t-36.5 -105.5t-91.5 -72.5t-120 -11.5t-105.5 58.5
t-54.5 102t14.5 116.5t76 95.5zM1707 1370q102 21 175 95q102 102 101 240q0 102 -58 189.5t-153 127.5t-197 18t-174.5 -95t-94.5 -175t18 -196t128 -153q58 -36 123 -51v-758q0 -88 -61.5 -146t-142.5 -58h-255l175 175l-102 95l-291 -291v-95l291 -291l102 93l-175 175
h255q103 0 190 59t123 153q29 65 23 131v758zM1787 1851q51 -51 58 -124.5t-29.5 -131.5t-94.5 -80t-120 -10.5t-105.5 55t-55 105.5t10.5 112.5t62 84t87.5 44t98.5 -4t88 -50.5z" />
</svg>
