<?xml version="1.0" standalone="no"?>
<!DOCTYPE svg PUBLIC "-//W3C//DTD SVG 1.1//EN" "http://www.w3.org/Graphics/SVG/1.1/DTD/svg11.dtd" >
<svg xmlns="http://www.w3.org/2000/svg" xmlns:xlink="http://www.w3.org/1999/xlink" version="1.1" width="2048" height="2048" viewBox="-10 0 2068 2048">
   <path fill="currentColor"
d="M1705 134h-730l-44 22l-931 931v97l722 730h97l312 -313q135 74 291.5 74.5t294.5 -74.5t223.5 -201.5t99.5 -282.5l8 -75q0 -156 -74 -294t-202 -226v-314zM1631 454q-105 -37 -208 -37q-30 0 -49 18.5t-19 48.5t18.5 52.5t49.5 22.5q111 0 208 44v298l-544 551
q-22 8 -37 30l-275 283l-627 -626l857 -864h626v179zM1772 699q67 75 104.5 161t37.5 182q-8 37 -8 75q-15 112 -78 205t-163.5 148.5t-212 63.5t-216.5 -37l514 -514l22 -52v-232z" />
</svg>
