<?xml version="1.0" standalone="no"?>
<!DOCTYPE svg PUBLIC "-//W3C//DTD SVG 1.1//EN" "http://www.w3.org/Graphics/SVG/1.1/DTD/svg11.dtd" >
<svg xmlns="http://www.w3.org/2000/svg" xmlns:xlink="http://www.w3.org/1999/xlink" version="1.1" width="2048" height="2048" viewBox="-10 0 2058 2048">
   <path fill="currentColor"
d="M1024 146q65 0 109.5 44.5t44.5 109t-44.5 109t-109.5 44.5t-109.5 -44.5t-44.5 -109t44.5 -109t109.5 -44.5zM1024 0q-129 0 -218 89t-85.5 214.5t89 214.5t214.5 89t218 -89t89 -214.5t-89 -214.5t-218 -89zM1210 680h-372q-114 0 -190.5 77t-76.5 189v406
q-8 65 36.5 113t116.5 48v357q-8 72 49 125t130 53h242q81 0 133.5 -53t52.5 -133v-349q65 0 109.5 -48.5t36.5 -112.5v-406q0 -114 -76.5 -190t-190.5 -76zM724 1360v-414q-8 -48 28.5 -80t85.5 -32h372q49 0 85 32t29 80v414h-146v510q0 8 -8 16t-25 8h-242
q-17 0 -25 -8.5t-8 -15.5v-510h-146z" />
</svg>
