<?xml version="1.0" standalone="no"?>
<!DOCTYPE svg PUBLIC "-//W3C//DTD SVG 1.1//EN" "http://www.w3.org/Graphics/SVG/1.1/DTD/svg11.dtd" >
<svg xmlns="http://www.w3.org/2000/svg" xmlns:xlink="http://www.w3.org/1999/xlink" version="1.1" width="2048" height="2048" viewBox="-10 0 2058 2048">
   <path fill="currentColor"
d="M1794 703q0 -89 -47.5 -167.5t-129.5 -119.5t-170.5 -34t-164 61.5t-106 140t-17 174.5t75 153.5t150.5 92.5q-34 68 -95.5 105.5t-136.5 37.5h-253q-150 0 -259 102v-621q123 -20 194.5 -119t61 -222t-102.5 -205t-215 -82t-215 82t-102 205t61.5 222t194.5 119v778
q-123 27 -198 123t-65 218.5t95.5 207.5t208.5 92t218.5 -68t116 -197.5t-41 -225t-184.5 -136.5q34 -68 95.5 -105.5t136.5 -37.5h253q123 0 222 -72t140 -188q116 -14 197.5 -106t81.5 -208zM388 321q0 -82 54.5 -136.5t136.5 -54.5t136.5 54.5t54.5 133t-54.5 136.5
t-136.5 58t-136.5 -58t-54.5 -133zM770 1719q0 82 -54.5 136.5t-136.5 54.5t-136.5 -54.5t-54.5 -132.5t54.5 -136t136.5 -58t136.5 58t54.5 132zM1474 894q-82 0 -137 -58t-55 -136.5t55 -133t133.5 -54.5t136.5 54.5t58 133t-58 136.5t-133 58z" />
</svg>
