<?xml version="1.0" standalone="no"?>
<!DOCTYPE svg PUBLIC "-//W3C//DTD SVG 1.1//EN" "http://www.w3.org/Graphics/SVG/1.1/DTD/svg11.dtd" >
<svg xmlns="http://www.w3.org/2000/svg" xmlns:xlink="http://www.w3.org/1999/xlink" version="1.1" width="2048" height="2048" viewBox="-10 0 2068 2048">
   <path fill="currentColor"
d="M1110 0l907 586l31 54v1346l-109 62l-915 -586l-915 586l-109 -62v-1346l31 -54l907 -586h172zM1102 1337l805 516v-1173l-805 -516v422h-148v-422l-806 516v1173l806 -516h148zM1227 633l110 -102l359 368v102l-359 360l-102 -102l235 -235h-884l235 235l-102 102
l-359 -360v-102l359 -368l102 102l-243 242h892z" />
</svg>
