<?xml version="1.0" standalone="no"?>
<!DOCTYPE svg PUBLIC "-//W3C//DTD SVG 1.1//EN" "http://www.w3.org/Graphics/SVG/1.1/DTD/svg11.dtd" >
<svg xmlns="http://www.w3.org/2000/svg" xmlns:xlink="http://www.w3.org/1999/xlink" version="1.1" width="2048" height="2048" viewBox="-10 0 2058 2048">
   <path fill="currentColor"
d="M1283 0q-214 0 -389 113.5t-261 306t-55 398.5t168 357l-687 790l96 83l688 -783q185 144 415.5 151t423 -123.5t268 -350.5t7 -443.5t-258 -361t-415.5 -137.5zM1283 1286q-158 0 -292 -76t-213 -210t-79 -292t79 -292t213 -209.5t292 -75.5t288 75.5t209.5 209.5
t79.5 292t-79.5 292t-209.5 213t-288 79v-6z" />
</svg>
