<?xml version="1.0" standalone="no"?>
<!DOCTYPE svg PUBLIC "-//W3C//DTD SVG 1.1//EN" "http://www.w3.org/Graphics/SVG/1.1/DTD/svg11.dtd" >
<svg xmlns="http://www.w3.org/2000/svg" xmlns:xlink="http://www.w3.org/1999/xlink" version="1.1" width="2048" height="2048" viewBox="-10 0 2058 2048">
   <path fill="currentColor"
d="M1405 275v-8l146 154v-340l-73 -81h-1368l-74 81v1635l49 72l761 260l97 -74v-153h535l73 -73v-340l-146 154v114h-462v-1263l-48 -66l-551 -194h1061v122zM789 1870l-607 -203v-1400l607 203v1400zM1259 842h753v153h-745l243 243l-114 106l-372 -373v-105l381 -381
l105 106z" />
</svg>
