<?xml version="1.0" standalone="no"?>
<!DOCTYPE svg PUBLIC "-//W3C//DTD SVG 1.1//EN" "http://www.w3.org/Graphics/SVG/1.1/DTD/svg11.dtd" >
<svg xmlns="http://www.w3.org/2000/svg" xmlns:xlink="http://www.w3.org/1999/xlink" version="1.1" width="2048" height="2048" viewBox="-10 0 2068 2048">
   <path fill="currentColor"
d="M0 1314q0 -274 137 -513t371 -375.5t516 -136.5t516 136.5t371 375.5t137 513h-141q0 -235 -121 -438.5t-324 -320.5t-438 -117t-438 117t-320.5 320.5t-117.5 438.5h-148zM586 1314q0 -180 125 -309.5t313 -129.5t313 129.5t125 312.5t-125 312.5t-313 129.5
t-313 -128.5t-125 -316.5zM734 1314q0 125 86.5 210.5t203.5 85.5t207 -85.5t90 -207t-90 -207.5t-207 -86t-203.5 86.5t-86.5 203.5z" />
</svg>
