<?xml version="1.0" standalone="no"?>
<!DOCTYPE svg PUBLIC "-//W3C//DTD SVG 1.1//EN" "http://www.w3.org/Graphics/SVG/1.1/DTD/svg11.dtd" >
<svg xmlns="http://www.w3.org/2000/svg" xmlns:xlink="http://www.w3.org/1999/xlink" version="1.1" width="2048" height="2048" viewBox="-10 0 2058 2048">
   <path fill="currentColor"
d="M1124 4q172 23 332 97.5t277 198.5q188 188 257.5 429.5t22.5 491t-210 453.5q-149 187 -363 284t-448.5 89t-444.5 -116q-156 -86 -272.5 -218.5t-183 -296.5t-74.5 -339.5t43 -347.5t152 -312t249.5 -241.5t316 -144.5t346.5 -27zM1195 1884q141 -31 269.5 -109
t221.5 -195q141 -171 184 -386t-20 -422t-218 -370q-141 -141 -332.5 -207t-390 -38.5t-362.5 135.5q-195 133 -296 339.5t-90 437t132.5 425.5t323.5 304q132 70 281 93.5t289 -7.5h8zM945 730h187v-141h-187v141zM1132 877v585h-187v-585h187z" />
</svg>
