<?xml version="1.0" standalone="no"?>
<!DOCTYPE svg PUBLIC "-//W3C//DTD SVG 1.1//EN" "http://www.w3.org/Graphics/SVG/1.1/DTD/svg11.dtd" >
<svg xmlns="http://www.w3.org/2000/svg" xmlns:xlink="http://www.w3.org/1999/xlink" version="1.1" width="2048" height="2048" viewBox="-10 0 2068 2048">
   <path fill="currentColor"
d="M260 1058l-158 157l-102 -95l267 -268h96l274 274l-103 96l-151 -150q20 212 161 373t350 205.5t404 -44.5t298 -281l103 75q-131 226 -367 329t-486 44.5t-414.5 -257t-171.5 -458.5zM1672 996l-158 -157l-103 95l268 274h102l267 -267l-95 -95l-158 150
q-7 -253 -164.5 -452t-404.5 -264t-483 27.5t-373 311.5l103 75q109 -184 307.5 -266.5t404.5 -27.5t339.5 219.5t147.5 376.5z" />
</svg>
