<?xml version="1.0" standalone="no"?>
<!DOCTYPE svg PUBLIC "-//W3C//DTD SVG 1.1//EN" "http://www.w3.org/Graphics/SVG/1.1/DTD/svg11.dtd" >
<svg xmlns="http://www.w3.org/2000/svg" xmlns:xlink="http://www.w3.org/1999/xlink" version="1.1" width="2048" height="2048" viewBox="-10 0 2068 2048">
   <path fill="currentColor"
d="M1188 531q-70 47 -148.5 55t-148.5 -27.5t-113.5 -102t-51 -144.5t31.5 -148.5t102 -117.5q102 -63 219 -39.5t187.5 121.5t47 219t-125.5 184zM1102 171q-31 -23 -70 -27t-74.5 11.5t-59 50.5t-27.5 74.5t16 74.5t59 59q47 31 105.5 15.5t90 -62.5t19.5 -106t-59 -90z
M1486 171q69 -39 147.5 -31.5t133.5 62.5q39 39 54.5 90t3.5 106t-47 98t-90 66.5t-121.5 11.5t-112.5 -59q-70 -78 -62 -179.5t94 -164.5zM1555 406q23 23 54.5 23t51 -19.5t19.5 -51t-19.5 -55t-50 -23.5t-50 23.5t-20.5 55t15 47.5zM321 1680h265v149h-265
q-70 0 -125 -51t-55 -129v-266q-55 0 -98 -47t-43 -110v-319q0 -102 74 -180.5t184 -78.5h265q-55 63 -77 149h-188q-47 0 -82 35t-35 75v327h148v415q0 16 8 23.5t24 7.5zM1392 727q-78 -78 -188 -79h-360q-110 0 -184 78.5t-74 187.5v461q0 63 43 110t105 47v344
q-8 70 47 125q39 38 94 46h298q63 -16 105.5 -62t42.5 -109v-344q55 0 98 -47t43 -110v-468q0 -102 -70 -180zM1321 1383h-148v493q0 8 -8 16t-24 8h-234q-16 0 -24 -8t-8 -16v-493h-141v-476q-8 -39 27.5 -74.5t82.5 -35.5h360q39 0 66.5 19.5t39 47t11.5 43.5v476z
M1727 1829h-265v-149h265q8 0 20 -7.5t12 -23.5v-415h148v-327q0 -39 -35 -74.5t-82 -35.5h-188q-22 -86 -77 -149h265q110 0 184 78.5t74 180.5v319q0 63 -43 110t-98 47v266q0 78 -55 129t-125 51zM438 132q-70 0 -125 39t-78.5 101.5t-11.5 129t58.5 113.5t112.5 59
t129 -11.5t98 -82.5t35 -121q0 -94 -62.5 -160.5t-155.5 -66.5zM438 429q-31 0 -50.5 -19.5t-19.5 -51t19.5 -55t50 -23.5t50 23.5t19.5 55t-19.5 51t-49.5 19.5z" />
</svg>
