<?xml version="1.0" standalone="no"?>
<!DOCTYPE svg PUBLIC "-//W3C//DTD SVG 1.1//EN" "http://www.w3.org/Graphics/SVG/1.1/DTD/svg11.dtd" >
<svg xmlns="http://www.w3.org/2000/svg" xmlns:xlink="http://www.w3.org/1999/xlink" version="1.1" width="2048" height="2048" viewBox="-10 0 2065 2048">
   <path fill="currentColor"
d="M1827 1654q140 -179 191 -401t4 -444t-187 -401q-149 -202 -382.5 -312t-486.5 -94.5t-471 144.5t-344 347v-350h-147v513l69 71h515v-140h-319q148 -265 428 -378t568.5 -31.5t467.5 323t171.5 541.5t-198.5 533.5t-483 304t-565 -58t-413 -393.5l-125 70
q117 226 335.5 374t475 171.5t498 -82t398.5 -307.5zM1336 1514l109 -102l-421 -420v-554h-148v585l24 55z" />
</svg>
