<?xml version="1.0" standalone="no"?>
<!DOCTYPE svg PUBLIC "-//W3C//DTD SVG 1.1//EN" "http://www.w3.org/Graphics/SVG/1.1/DTD/svg11.dtd" >
<svg xmlns="http://www.w3.org/2000/svg" xmlns:xlink="http://www.w3.org/1999/xlink" version="1.1" width="2048" height="2048" viewBox="-10 0 2068 2048">
   <path fill="currentColor"
d="M907 1549q78 47 156 43.5t148.5 -35t117.5 -94.5q102 -133 94 -305q8 -156 -86 -273q-47 -55 -109.5 -82t-133.5 -27q-125 0 -219 86v-407h-148v1118h148v-47zM1001 932q39 -23 86 -15q86 -8 133 62q55 78 54 179q8 117 -62 219q-23 31 -58.5 55t-82.5 16q-86 8 -145 -59
t-51 -153v-86q-8 -93 55 -171q32 -31 71 -47zM336 776q-70 8 -136.5 27.5t-121.5 58.5l-16 8v180l63 -55q86 -78 203 -86q55 0 90.5 47t35.5 109l-180 32q-110 8 -192 77.5t-82 171.5t74 172.5t184 70.5q86 0 157 -47l45 -39v70h134v-492q8 -125 -67 -215t-191 -90z
M460 1221q0 102 -58 168.5t-144 66.5q-47 0 -82 -31.5t-35 -78.5t31 -78q63 -39 141 -47l147 -24v24zM1680 1565q63 31 141 24q110 8 204 -55l23 -8v-172l-70 47q-70 55 -160.5 55t-153 -78.5t-62.5 -187.5t70.5 -195t172.5 -78q78 0 141 39l62 39v-172l-23 -8
q-78 -39 -164.5 -39t-160.5 31t-128 86q-117 133 -117.5 297t108.5 289q47 55 117 86z" />
</svg>
