<?xml version="1.0" standalone="no"?>
<!DOCTYPE svg PUBLIC "-//W3C//DTD SVG 1.1//EN" "http://www.w3.org/Graphics/SVG/1.1/DTD/svg11.dtd" >
<svg xmlns="http://www.w3.org/2000/svg" xmlns:xlink="http://www.w3.org/1999/xlink" version="1.1" width="2048" height="2048" viewBox="-10 0 2068 2048">
   <path fill="currentColor"
d="M1907 144h-883l-149 148v439h149v-439h883v735h-586v149h586l141 -149v-735zM1173 731h586v148h-532l-54 -54v-94zM875 879h-727l-148 148v736l148 141h876l149 -141v-736l-149 -148h-149zM1024 1763h-876v-736h876v736zM289 1176h586v141h-586v-141zM289 1465h586v149
h-586v-149zM1173 441h586v149h-586v-149z" />
</svg>
