<?xml version="1.0" standalone="no"?>
<!DOCTYPE svg PUBLIC "-//W3C//DTD SVG 1.1//EN" "http://www.w3.org/Graphics/SVG/1.1/DTD/svg11.dtd" >
<svg xmlns="http://www.w3.org/2000/svg" xmlns:xlink="http://www.w3.org/1999/xlink" version="1.1" width="2048" height="2048" viewBox="-10 0 2068 2048">
   <path fill="currentColor"
d="M1978 152h-805l-55 23l-94 94l-94 -94l-55 -23h-805l-70 78v1462l70 79h774l125 125h110l125 -125h774l70 -79v-1462zM954 1669l-32 -24l-47 -23h-727v-1322h696l110 110v1259zM1907 1622h-734l-55 23l-16 16v-1259l102 -102h703v1322zM734 598h-445v141h445v-141z
M734 1184h-445v141h445v-141zM289 887h445v148h-445v-148zM1759 598h-438v141h438v-141zM1321 887h438v148h-438v-148zM1321 1184h438v141h-438v-141z" />
</svg>
