<?xml version="1.0" standalone="no"?>
<!DOCTYPE svg PUBLIC "-//W3C//DTD SVG 1.1//EN" "http://www.w3.org/Graphics/SVG/1.1/DTD/svg11.dtd" >
<svg xmlns="http://www.w3.org/2000/svg" xmlns:xlink="http://www.w3.org/1999/xlink" version="1.1" width="2048" height="2048" viewBox="-10 0 2066 2048">
   <path fill="currentColor"
d="M448 179q232 -164 504.5 -177.5t518 102t402.5 347.5t171 504.5t-109 518t-347.5 402.5t-497 171t-518.5 -109t-395.5 -347.5t-170.5 -497.5t101.5 -518.5t340.5 -395.5zM626 1611q164 110 354.5 123t361.5 -69t272.5 -238.5t115.5 -347.5t-74.5 -361.5t-238.5 -280.5
q-246 -150 -525.5 -95t-443.5 293.5t-109 525t287 450.5zM1403 643h-763v259h763v-259zM1403 1146h-763v259h763v-259z" />
</svg>
