<?xml version="1.0" standalone="no"?>
<!DOCTYPE svg PUBLIC "-//W3C//DTD SVG 1.1//EN" "http://www.w3.org/Graphics/SVG/1.1/DTD/svg11.dtd" >
<svg xmlns="http://www.w3.org/2000/svg" xmlns:xlink="http://www.w3.org/1999/xlink" version="1.1" width="2048" height="2048" viewBox="-10 0 2068 2048">
   <path fill="currentColor"
d="M1978 511h-516v-218l-70 -78h-736l-70 78v218h-516l-70 70v1173l70 79h1908l70 -79v-1173zM734 363h587v148h-587v-148zM1907 660v109l-586 329v-70l-78 -79h-438l-71 79v70l-586 -337v-101h1759zM1173 1098v149h-298v-149h298zM148 1684v-750l586 336v47l71 71h438
l78 -71v-47l586 -329v743h-1759z" />
</svg>
