<?xml version="1.0" standalone="no"?>
<!DOCTYPE svg PUBLIC "-//W3C//DTD SVG 1.1//EN" "http://www.w3.org/Graphics/SVG/1.1/DTD/svg11.dtd" >
<svg xmlns="http://www.w3.org/2000/svg" xmlns:xlink="http://www.w3.org/1999/xlink" version="1.1" width="2048" height="2048" viewBox="-10 0 2058 2048">
   <path fill="currentColor"
d="M539 148q219 -149 485 -148q243 0 442 117.5t316.5 320t124.5 437.5q-8 282 -168 508.5t-418 320.5v-8q69 -70 71 -155v-24q132 -70 222 -195.5t125 -274t8 -301t-106 -278.5q-133 -195 -343.5 -277t-434 -35t-380 215t-191 395t66.5 434.5t297 316.5v24q0 94 71 155v8
q-235 -86 -391 -277.5t-187.5 -442t74.5 -477t316 -359.5zM1220 1588q-16 22 -47 22v368q0 31 -19.5 50.5t-51.5 19.5h-156h-8q-31 -8 -47 -23.5t-16 -46.5v-368q-31 0 -50.5 -19t-19.5 -50v-298q0 -63 43 -106t106 -43h140q63 0 106 43.5t43 105.5v298q0 31 -23 47z
M1414 875q0 117 -69 219q47 70 47 149v16q69 -70 112 -168t47 -207.5t-39 -207.5t-112 -169q-102 -110 -243 -148t-278 1t-238.5 140t-137 242t7.5 278t145 239v-16q0 -86 47 -156q-70 -102 -66.5 -223.5t82 -223t196 -137t235 7.5t191 141t67.5 223h6zM1173 875
q0 63 -43 106t-106 43t-106 -43t-43 -105.5t43 -105.5t106 -43t106 42.5t43 105.5z" />
</svg>
