<?xml version="1.0" standalone="no"?>
<!DOCTYPE svg PUBLIC "-//W3C//DTD SVG 1.1//EN" "http://www.w3.org/Graphics/SVG/1.1/DTD/svg11.dtd" >
<svg xmlns="http://www.w3.org/2000/svg" xmlns:xlink="http://www.w3.org/1999/xlink" version="1.1" width="2048" height="2048" viewBox="-10 0 2068 2048">
   <path fill="currentColor"
d="M1452 529v-86q0 -173 -125.5 -298t-302.5 -125t-302 125t-125 298v86h-127l-242 -243l-87 87l235 235l-7 8q-70 204 -71 415v95h-298v125h314h8q31 212 133 377l7 8l-290 291l87 87l275 -275l16 8q94 110 215.5 172t254.5 62t255 -58.5t216 -168.5l8 -7l282 281l86 -86
l-289 -298v-8q110 -172 149 -385h321v-125h-306v-95q8 -211 -70 -415l-8 -8l236 -235l-87 -87l-243 243h-118zM714 529v-86q0 -126 90.5 -216t215.5 -90t215.5 90t90.5 216v86h-612zM1554 655v7q70 173 71 369q0 181 -51.5 334.5t-137.5 263.5t-192 168.5t-219.5 58.5
t-224 -58.5t-197 -168.5t-133.5 -263.5t-47 -334.5q0 -196 63 -369v-7h1068z" />
</svg>
