<?xml version="1.0" standalone="no"?>
<!DOCTYPE svg PUBLIC "-//W3C//DTD SVG 1.1//EN" "http://www.w3.org/Graphics/SVG/1.1/DTD/svg11.dtd" >
<svg xmlns="http://www.w3.org/2000/svg" xmlns:xlink="http://www.w3.org/1999/xlink" version="1.1" width="2048" height="2048" viewBox="-10 0 2068 2048">
   <path fill="currentColor"
d="M1978 141h-219v-141h-149v141h-1172v-141h-149v141h-219l-70 78v1759l70 70h1908l70 -70v-1759zM1907 1900h-1759v-1314h1759v1314zM1907 438h-1759v-149h1759v149zM438 1024h-149v149h149v-149zM289 1314h149v148h-149v-148zM438 1610h-149v149h149v-149zM734 1024h141
v149h-141v-149zM875 1314h-141v148h141v-148zM734 1610h141v149h-141v-149zM875 727h-141v148h141v-148zM1173 1024h148v149h-148v-149zM1321 1314h-148v148h148v-148zM1173 1610h148v149h-148v-149zM1321 727h-148v148h148v-148zM1610 1024h149v149h-149v-149zM1759 1314
h-149v148h149v-148zM1610 727h149v148h-149v-148z" />
</svg>
