<?xml version="1.0" standalone="no"?>
<!DOCTYPE svg PUBLIC "-//W3C//DTD SVG 1.1//EN" "http://www.w3.org/Graphics/SVG/1.1/DTD/svg11.dtd" >
<svg xmlns="http://www.w3.org/2000/svg" xmlns:xlink="http://www.w3.org/1999/xlink" version="1.1" width="2048" height="2048" viewBox="-10 0 2068 2048">
   <path fill="currentColor"
d="M1024 0q282 0 516 137t371 371t137 516t-137 516t-371 371t-516 137t-516 -137t-371 -371t-137 -516t137 -516t371 -371t516 -137zM148 1024q0 157 51 301.5t153 268.5l1242 -1242q-195 -164 -453 -199.5t-488.5 74t-371 324.5t-140.5 473h7zM1907 1024
q0 -157 -54.5 -301.5t-156.5 -268.5l-1242 1242q195 164 453 199.5t488.5 -74t371 -324.5t140.5 -473z" />
</svg>
