<?xml version="1.0" standalone="no"?>
<!DOCTYPE svg PUBLIC "-//W3C//DTD SVG 1.1//EN" "http://www.w3.org/Graphics/SVG/1.1/DTD/svg11.dtd" >
<svg xmlns="http://www.w3.org/2000/svg" xmlns:xlink="http://www.w3.org/1999/xlink" version="1.1" width="2048" height="2048" viewBox="-10 0 2068 2048">
   <path fill="currentColor"
d="M1978 0h-1908l-70 70v1908l70 70h1908l70 -70v-1908zM1907 1900h-1321v-290h336q31 63 101.5 106t149.5 43q117 0 203 -85.5t86 -207t-86 -207.5t-207.5 -86t-207.5 86t-86 203h-437v438h-290v-1759h290v344q-63 30 -106 100.5t-43 141.5q0 125 85.5 211t207 86
t207.5 -86t86 -211h298q0 125 86 211t207.5 86t207 -86t85.5 -207.5t-85.5 -207t-211.5 -85.5q-78 0 -144.5 38.5t-105.5 109.5h-376q-39 -69 -105.5 -108.5t-144.5 -39.5v-297h1321v1759zM1024 1462q0 -63 39 -105.5t105.5 -42.5t109.5 43t43 109.5t-43 105t-109.5 38.5
t-105.5 -39.5t-39 -108.5zM586 586q63 0 105.5 39t42.5 105.5t-43 105.5t-109.5 39t-105 -39t-38.5 -105.5t39.5 -105.5t108.5 -39zM1462 586q69 0 108.5 39t39.5 105.5t-38.5 105.5t-105 39t-106 -39t-39.5 -105.5t39 -105.5t102 -39z" />
</svg>
