<?xml version="1.0" standalone="no"?>
<!DOCTYPE svg PUBLIC "-//W3C//DTD SVG 1.1//EN" "http://www.w3.org/Graphics/SVG/1.1/DTD/svg11.dtd" >
<svg xmlns="http://www.w3.org/2000/svg" xmlns:xlink="http://www.w3.org/1999/xlink" version="1.1" width="2048" height="2048" viewBox="-10 0 2068 2048">
   <path fill="currentColor"
d="M1603 656h8q180 8 308.5 132.5t128.5 308t-128.5 312.5t-308.5 129h-289v-149h289q117 0 199 -86t82 -203t-82 -203t-199 -94h-133l-16 -125q-16 -116 -105 -202.5t-210.5 -106t-226.5 43.5t-152 172l-47 109l-125 -24q-39 -8 -79 -14q-156 8 -257 108q-78 78 -101.5 188
t19.5 211t137 163.5t202 62.5h368v149h-368q-110 0 -211 -43t-171 -129q-116 -125 -132 -293t69 -309q55 -94 145 -160t199 -85.5t219 11.5q70 -157 218.5 -242t316.5 -62t289 144t144 292v-6zM1362 1225l-196 -195v797h-141v-789l-187 187l-102 -110l312 -312h102l312 312z
" />
</svg>
