<?xml version="1.0" standalone="no"?>
<!DOCTYPE svg PUBLIC "-//W3C//DTD SVG 1.1//EN" "http://www.w3.org/Graphics/SVG/1.1/DTD/svg11.dtd" >
<svg xmlns="http://www.w3.org/2000/svg" xmlns:xlink="http://www.w3.org/1999/xlink" version="1.1" width="2048" height="2048" viewBox="-10 0 2068 2048">
   <path fill="currentColor"
d="M438 1520l148 -148v211l-171 164l-126 -55v-367h-219l-70 -71v-1173l70 -70h1759l78 70v658h-148v-587h-1611v1032h220l70 70v266zM1361 1771l272 266l126 -47v-219h219l70 -79v-726l-70 -79h-1173l-71 79v726l71 79h556zM1392 1622h-517v-587h1032v587h-227l-70 70v118
l-171 -165z" />
</svg>
