<?xml version="1.0" standalone="no"?>
<!DOCTYPE svg PUBLIC "-//W3C//DTD SVG 1.1//EN" "http://www.w3.org/Graphics/SVG/1.1/DTD/svg11.dtd" >
<svg xmlns="http://www.w3.org/2000/svg" xmlns:xlink="http://www.w3.org/1999/xlink" version="1.1" width="2048" height="2048" viewBox="-11 0 2070 2048">
   <path fill="currentColor"
d="M456 170q227 -151 500.5 -168t521.5 105t399.5 349.5t168.5 500.5t-105 521t-349 399.5t-500.5 168.5t-517.5 -101t-399.5 -349t-172.5 -504.5t101 -517.5t353 -404zM541 1743q218 152 488 152q235 0 433 -117.5t315.5 -315.5t117.5 -433q0 -211 -92.5 -387.5t-248 -303
t-358 -164t-395.5 13t-344.5 185t-231 324t-67.5 386.5t113 374t270 286zM1466 473l109 110l-337 345q34 75 13 159.5t-92.5 135t-155.5 42t-147.5 -68t-71.5 -147.5t42.5 -159.5t134.5 -92.5t168 13zM978 1087q42 24 84 8t42 -62.5t-29.5 -67.5t-63 -16.5t-50.5 34
t-12 58.5t29 46zM1660 709l-127 118q42 92 42 202q0 151 -75 277l117 117q101 -160 114 -353t-71 -361zM1222 515q-92 -42 -193 -42q-152 0 -278 76t-202 202t-76 277t75 278l-108 117q-134 -202 -122 -441.5t171.5 -420t395.5 -231t454 58.5z" />
</svg>
