<?xml version="1.0" standalone="no"?>
<!DOCTYPE svg PUBLIC "-//W3C//DTD SVG 1.1//EN" "http://www.w3.org/Graphics/SVG/1.1/DTD/svg11.dtd" >
<svg xmlns="http://www.w3.org/2000/svg" xmlns:xlink="http://www.w3.org/1999/xlink" version="1.1" width="2048" height="2048" viewBox="-10 0 2068 2048">
   <path fill="currentColor"
d="M1910 433q-23 -72 -65 -130l203 -210l-89 -89l-211 202q-57 -49 -129 -64q-163 -57 -324 8q-89 32 -154 104l-235 235l656 656l235 -235q72 -65 105 -153q65 -161 8 -324zM1781 709q-24 56 -73 104l-146 146l-470 -470l146 -146q49 -48 106 -72q129 -49 258 0
q57 32 101.5 76.5t77.5 101.5q49 130 0 260zM1044 1469l226 -235l-96 -97l-219 234l-284 -283l227 -234l-96 -97l-228 235l-89 -90l-235 235q-72 65 -104.5 149.5t-32.5 170t20 154.5t69 133l-202 203l89 97l210 -203q57 40 130 64.5t157.5 24.5t170 -36t149.5 -102
l235 -234zM704 1769q-65 32 -129.5 32t-125.5 -28.5t-109.5 -73t-72.5 -105t-24 -125.5q0 -138 96 -235l146 -146l470 470l-146 146q-48 41 -105 65z" />
</svg>
