<?xml version="1.0" standalone="no"?>
<!DOCTYPE svg PUBLIC "-//W3C//DTD SVG 1.1//EN" "http://www.w3.org/Graphics/SVG/1.1/DTD/svg11.dtd" >
<svg xmlns="http://www.w3.org/2000/svg" xmlns:xlink="http://www.w3.org/1999/xlink" version="1.1" width="2048" height="2048" viewBox="-10 0 2068 2048">
   <path fill="currentColor"
d="M296 1127v-7v7zM921 1183l-261 -262l89 -83l275 275l268 -275l89 90l-260 262l260 260l-89 90l-275 -282l-268 275l-89 -90zM1457 454v82h110l247 -248l90 90l-234 234v7q83 206 83 419l-7 96h302v124h-316q-41 214 -144 385l-7 7l296 295l-90 82l-282 -282l-7 15
q-96 102 -219.5 164t-254.5 62t-254.5 -61.5t-219.5 -172.5l-7 -13l-282 275l-83 -82l289 -289l-7 -7q-103 -172 -137 -378h-7h-316v-124h302v-96q0 -220 76 -412v-7l-240 -241l89 -90l247 248h124v-82q0 -117 55 -217t154.5 -158t216.5 -58t216.5 58t158 158t58.5 217z
M722 454v82h611v-82q0 -131 -89 -220.5t-216.5 -89.5t-216.5 89.5t-89 220.5zM1561 667v-7h-1066l-7 7q-61 178 -62 371q0 172 48.5 326.5t134 267.5t192 172t223.5 59t223.5 -59t192.5 -172t137.5 -267.5t51.5 -326.5q0 -199 -68 -371z" />
</svg>
