<?xml version="1.0" standalone="no"?>
<!DOCTYPE svg PUBLIC "-//W3C//DTD SVG 1.1//EN" "http://www.w3.org/Graphics/SVG/1.1/DTD/svg11.dtd" >
<svg xmlns="http://www.w3.org/2000/svg" xmlns:xlink="http://www.w3.org/1999/xlink" version="1.1" width="2048" height="2048" viewBox="-10 0 2068 2048">
   <path fill="currentColor"
d="M1221 5h-404l-78 350l-296 -203l-296 296l203 296l-350 78v404l350 78l-203 296l296 296l296 -203l78 350h303q-77 -63 -140 -147h-46l-71 -343l-108 -47l-297 195l-116 -116l195 -297l-47 -108l-343 -71v-170l343 -71l47 -108l-195 -297l116 -116l297 195l108 -47
l71 -343h171l70 343l108 47l297 -195l116 116l-195 297l47 108l343 71v46q86 63 147 140v-303l-350 -78l203 -296l-296 -296l-296 203zM1019 729q94 0 168 54t104 140q-69 22 -132 70q-8 -54 -50.5 -85.5t-97.5 -27.5t-93.5 42.5t-42.5 93.5t27.5 97.5t85.5 50.5
q-46 63 -70 132q-102 -38 -152 -127.5t-34.5 -195t97 -175t190.5 -62.5v-7zM1206 1140q109 -93 245 -116t264.5 23.5t218 155.5t109 245.5t-31 264.5t-159.5 213.5t-241.5 105t-257 -27t-210 -151.5t-109 -237.5t23.5 -261t148 -214.5zM1167 1459v149h731v-149h-731z" />
</svg>
