<?xml version="1.0" standalone="no"?>
<!DOCTYPE svg PUBLIC "-//W3C//DTD SVG 1.1//EN" "http://www.w3.org/Graphics/SVG/1.1/DTD/svg11.dtd" >
<svg xmlns="http://www.w3.org/2000/svg" xmlns:xlink="http://www.w3.org/1999/xlink" version="1.1" width="2048" height="2048" viewBox="-10 0 2058 2048">
   <path fill="currentColor"
d="M1396 15l485 486l23 53v1424l-78 70h-1611l-71 -70v-1908l71 -70h1134zM1317 586h439l-439 -445v445zM285 141v1759h1471v-1173h-517l-70 -71v-515h-884zM591 1251l266 -274l-102 -102l-321 321v102l321 320l102 -101zM1137 985l102 -110l321 321v102l-321 320l-102 -101
l267 -266z" />
</svg>
