<?xml version="1.0" standalone="no"?>
<!DOCTYPE svg PUBLIC "-//W3C//DTD SVG 1.1//EN" "http://www.w3.org/Graphics/SVG/1.1/DTD/svg11.dtd" >
<svg xmlns="http://www.w3.org/2000/svg" xmlns:xlink="http://www.w3.org/1999/xlink" version="1.1" width="2048" height="2048" viewBox="-10 0 2068 2048">
   <path fill="currentColor"
d="M148 1391h141v-586h-141v586zM289 657v-71l79 -70h648l63 31l62 110h837l70 78v1173l-70 70h-1610l-79 -70v-368h-219l-70 -70v-1322l70 -78h649l62 39l63 109h836l79 79v360h-149v-290h-805l-63 -39l-62 -110h-532v439h141zM1032 774l-63 -117h-531v445h461l62 -110
l63 -38h883v-149h-813zM946 1243h-508v587h1469v-728h-836l-63 109z" />
</svg>
