<?xml version="1.0" standalone="no"?>
<!DOCTYPE svg PUBLIC "-//W3C//DTD SVG 1.1//EN" "http://www.w3.org/Graphics/SVG/1.1/DTD/svg11.dtd" >
<svg xmlns="http://www.w3.org/2000/svg" xmlns:xlink="http://www.w3.org/1999/xlink" version="1.1" width="2048" height="2048" viewBox="-10 0 2068 2048">
   <path fill="currentColor"
d="M985 292h993l70 79v1462l-70 71h-1908l-70 -71v-1611l70 -78h735l55 23zM1900 1763v-227l7 -805h-930l-125 125l-47 23h-657v884h1752zM946 590h954l7 -149h-953l-55 -23l-125 -126h-626v446h626l125 -125zM1282 1184l-195 -204l109 -101l321 328v102l-336 328l-102 -109
l211 -196h-203q-117 8 -199.5 90t-74.5 192h-149q0 -172 117.5 -297.5t297.5 -132.5h203z" />
</svg>
