<?xml version="1.0" standalone="no"?>
<!DOCTYPE svg PUBLIC "-//W3C//DTD SVG 1.1//EN" "http://www.w3.org/Graphics/SVG/1.1/DTD/svg11.dtd" >
<svg xmlns="http://www.w3.org/2000/svg" xmlns:xlink="http://www.w3.org/1999/xlink" version="1.1" width="2048" height="2048" viewBox="-10 0 2058 2048">
   <path fill="currentColor"
d="M1470 15l485 486l23 53v1424l-78 70h-509v-148h439v-1173h-517l-70 -71v-515h-884v586h-141v-657l71 -70h1134zM1391 586h439l-439 -445v445zM1164 875h-1024l-70 79v1024l70 70h1024l79 -70v-1024zM1094 1900h-876v-876h876v876zM946 1243v437h-141v-257l-391 383
l-102 -102l384 -390h-258v-141h438z" />
</svg>
