<?xml version="1.0" standalone="no"?>
<!DOCTYPE svg PUBLIC "-//W3C//DTD SVG 1.1//EN" "http://www.w3.org/Graphics/SVG/1.1/DTD/svg11.dtd" >
<svg xmlns="http://www.w3.org/2000/svg" xmlns:xlink="http://www.w3.org/1999/xlink" version="1.1" width="2048" height="2048" viewBox="-10 0 2058 2048">
   <path fill="currentColor"
d="M1186 2048l-78 -109q70 -86 58.5 -196t-97.5 -180q-141 -116 -171 -289q-110 149 -125 281q-23 110 23 212q23 63 102 172l-86 109q-157 -31 -278 -125t-188 -238t-59 -301v-55q8 -70 32 -141q31 -102 101 -203q78 -117 204 -227l62 -63q70 -78 126 -164
q78 -116 100 -210q31 -133 -14 -227l102 -94q242 172 347 449.5t35 566.5q47 -55 78 -117l133 -16v8q78 125 126 274q86 290 0 500q-70 157 -215.5 258.5t-317.5 124.5zM898 1032l124 55q-8 102 27.5 199.5t105.5 167.5q102 69 141 179t8 227q94 -31 164.5 -97.5
t109.5 -152.5q39 -132 23.5 -269t-78.5 -262q-47 70 -121.5 105.5t-152.5 19.5l-47 -102q94 -211 58.5 -441.5t-191.5 -402.5q-16 172 -149 375q-69 102 -187 219l-15 15q-180 157 -251 337q-31 94 -31 172q-8 141 54.5 262t180.5 199q-78 -180 -39 -343q47 -219 266 -462z
" />
</svg>
