<?xml version="1.0" standalone="no"?>
<!DOCTYPE svg PUBLIC "-//W3C//DTD SVG 1.1//EN" "http://www.w3.org/Graphics/SVG/1.1/DTD/svg11.dtd" >
<svg xmlns="http://www.w3.org/2000/svg" xmlns:xlink="http://www.w3.org/1999/xlink" version="1.1" width="2048" height="2048" viewBox="-10 0 2068 2048">
   <path fill="currentColor"
d="M1188 493l-78 -352h-172l-78 352l-102 46l-290 -187l-132 116l187 290l-22 102l-353 78v172l353 78l38 118l-187 288l116 118l290 -187l117 38l63 337h172l78 -353l118 -38l288 187l118 -116l-187 -290l38 -117l344 -63v-172l-352 -78l-46 -118l187 -288l-116 -118
l-290 187zM1227 0l79 352l304 -196l297 298l-211 304l352 63v406l-352 79l211 304l-297 290l-304 -204l-79 352h-406l-79 -352l-304 196l-290 -298l204 -304l-352 -63v-406l352 -79l-196 -304l298 -297l304 211l63 -352h406zM1321 1024q0 117 -90 203.5t-207 86.5
t-203.5 -86.5t-86.5 -203.5t86.5 -207t203.5 -90t207 90t90 207zM1024 1173q63 0 106 -43t43 -106t-43 -106t-106 -43t-106 43t-43 106t43 106t106 43z" />
</svg>
