<?xml version="1.0" standalone="no"?>
<!DOCTYPE svg PUBLIC "-//W3C//DTD SVG 1.1//EN" "http://www.w3.org/Graphics/SVG/1.1/DTD/svg11.dtd" >
<svg xmlns="http://www.w3.org/2000/svg" xmlns:xlink="http://www.w3.org/1999/xlink" version="1.1" width="2048" height="2048" viewBox="-10 0 2068 2048">
   <path fill="currentColor"
d="M1964 474h-252q17 -68 17 -194q-33 -92 -59 -134q-50 -75 -116 -100l-42 -18q-68 -24 -106 -24t-71.5 4t-58.5 20q-143 42 -251 211q-110 -169 -253 -211q-100 -24 -142 -24q-75 0 -143 42q-59 24 -109 100q-25 25 -59 117l-9 26q0 118 17 185h-252l-75 75v1419l75 76
h1889l84 -76v-1419zM940 1893h-781v-1260h781v1260zM940 474h-470v-34q-17 -41 -17 -126l8 -25q17 -42 42 -50q17 -34 76 -68q18 -17 80.5 -16.5t95.5 16.5q75 33 127 101q33 42 42 67q17 42 16 84v51zM1100 423q0 -42 17 -84q17 -24 50 -67q42 -68 126 -101
q24 -17 87.5 -16.5t97.5 17t76 67.5q8 8 16 33l17 42q0 83 -17 126v16l-16 18h-454v-51zM1889 1893h-789v-1260h789v1260z" />
</svg>
