<?xml version="1.0" standalone="no"?>
<!DOCTYPE svg PUBLIC "-//W3C//DTD SVG 1.1//EN" "http://www.w3.org/Graphics/SVG/1.1/DTD/svg11.dtd" >
<svg xmlns="http://www.w3.org/2000/svg" xmlns:xlink="http://www.w3.org/1999/xlink" version="1.1" width="2048" height="2048" viewBox="-10 0 2058 2048">
   <path fill="currentColor"
d="M1367 690q-117 -117 -278 -140v-550h-133v550q-176 29 -293 157.5t-121 305t106.5 312.5t278.5 173h29v550h133v-550q65 -8 117 -31q140 -59 220 -176q96 -147 77 -315.5t-136 -285.5zM1272 1270q-88 88 -212.5 98.5t-227.5 -54.5q-81 -59 -125 -154q-29 -73 -26 -150.5
t40.5 -143.5t99.5 -114t135 -62h74q139 0 242 99t99 245.5t-106 242.5z" />
</svg>
