<?xml version="1.0" standalone="no"?>
<!DOCTYPE svg PUBLIC "-//W3C//DTD SVG 1.1//EN" "http://www.w3.org/Graphics/SVG/1.1/DTD/svg11.dtd" >
<svg xmlns="http://www.w3.org/2000/svg" xmlns:xlink="http://www.w3.org/1999/xlink" version="1.1" width="2048" height="2048" viewBox="-10 0 2058 2048">
   <path fill="currentColor"
d="M942 1639l-175 -175l88 -95l291 292v95l-291 291l-95 -102l175 -174h-255q-139 7 -241 -95.5t-102 -239.5v-758q-102 -22 -175 -95t-91 -175.5t22 -197t124 -152.5t194 -58q65 0 130 21q131 59 190 190q21 65 21 132q0 123 -76 217.5t-193 117.5v750q0 88 58.5 149.5
t145.5 61.5h255zM301 510q59 36 131.5 29t123.5 -58.5t58.5 -124t-29.5 -127t-95 -80t-116 -15t-105.5 58t-58.5 105.5t14.5 117t76.5 95zM1708 1369q102 22 175 95q87 88 98 208t-55 223q-58 87 -153 127t-197 18t-174.5 -95t-94.5 -175t18 -196.5t127 -152.5
q59 -37 124 -52v-757q0 -88 -62 -146t-142 -58h-255l175 175l-102 95l-291 -292v-95l291 -291l102 94l-175 175h255q139 0 241 98.5t95 244.5v757zM1664 1908q51 -7 94.5 -36t69 -80t21.5 -102t-36.5 -102t-90.5 -73t-120 -10.5t-106 55t-55 105.5t14.5 120t84.5 94.5
t124 28.5z" />
</svg>
