<?xml version="1.0" standalone="no"?>
<!DOCTYPE svg PUBLIC "-//W3C//DTD SVG 1.1//EN" "http://www.w3.org/Graphics/SVG/1.1/DTD/svg11.dtd" >
<svg xmlns="http://www.w3.org/2000/svg" xmlns:xlink="http://www.w3.org/1999/xlink" version="1.1" width="2048" height="2048" viewBox="-10 0 2058 2048">
   <path fill="currentColor"
d="M1743 1057q-88 -88 -208 -99t-222 55q-88 59 -132 153q-7 28 -14 58q-218 -21 -371.5 -174t-174.5 -372q29 0 58 -15q95 -44 153 -128t58 -185q0 -72 -29 -139q-51 -131 -182 -182q-66 -29 -139 -29q-103 0 -186 58t-123 153t-22 197t90.5 174.5t175.5 95.5v691
q-65 15 -124 52q-80 58 -120 156.5t-22 196.5t90.5 171t175 95t201 -18t152.5 -123.5t54 -193.5q8 -66 -24.5 -139t-98 -127.5t-146.5 -69.5v-327q109 152 269 233q139 73 285 81q29 131 135 207t237 65.5t218 -109t87.5 -233t-101.5 -229.5zM621 1516q59 28 94.5 83
t28.5 128t-58 124t-123.5 58t-127.5 -29.5t-80.5 -94.5t-14.5 -116t58.5 -105.5t105.5 -58.5t117 11zM540 546q-59 0 -109.5 -36t-76 -91t-14.5 -117t58.5 -105.5t105.5 -54.5t120 15t98.5 87.5t22 134t-69.5 120t-135 47.5zM1648 1443q-37 36 -88 50.5t-101.5 4
t-90.5 -43.5t-62 -84t-7.5 -113t58 -105.5t105.5 -54.5t113 10.5t84 61.5t44 87.5t-4 99t-51 87.5z" />
</svg>
