<?xml version="1.0" standalone="no"?>
<!DOCTYPE svg PUBLIC "-//W3C//DTD SVG 1.1//EN" "http://www.w3.org/Graphics/SVG/1.1/DTD/svg11.dtd" >
<svg xmlns="http://www.w3.org/2000/svg" xmlns:xlink="http://www.w3.org/1999/xlink" version="1.1" width="2048" height="2048" viewBox="-10 0 2058 2048">
   <path fill="currentColor"
d="M187 1366h390l106 153h-569l-82 -72v-1374l82 -73h1829l73 73v732l-155 -269v-390h-1674v1220zM1032 1519l-219 529h341l854 -878l-105 -260h-253l122 -219l-122 -236h-439l-138 89l-349 765l138 210h170zM1211 610h439l-284 454h537l-879 886l252 -584h-414zM780 910
h-438v-154h512zM642 1219h-300v-155h374z" />
</svg>
