<?xml version="1.0" standalone="no"?>
<!DOCTYPE svg PUBLIC "-//W3C//DTD SVG 1.1//EN" "http://www.w3.org/Graphics/SVG/1.1/DTD/svg11.dtd" >
<svg xmlns="http://www.w3.org/2000/svg" xmlns:xlink="http://www.w3.org/1999/xlink" version="1.1" width="2048" height="2048" viewBox="-10 0 2058 2048">
   <path fill="currentColor"
d="M1845 401q126 149 126 348q0 334 -170 512q-134 126 -371 164q45 74 45 200v341q0 30 -18.5 48.5t-45 18.5t-44.5 -18.5t-18 -48.5v-341q7 -60 -11.5 -107.5t-55.5 -92.5l37 -104q163 -22 260 -67q126 -52 192 -164q82 -133 82 -348q0 -163 -119 -290l-15 -74
q52 -118 8 -252q-126 29 -268 126l-51 15q-304 -81 -608 0l-53 -15q-192 -118 -275 -118q-44 141 8 260l-22 66q-60 60 -93 137.5t-33 151.5q0 215 82 341q59 111 192 171q97 45 260 67l37 111q-82 74 -74 186v349q8 29 -14.5 51.5t-48.5 22.5t-48.5 -22.5t-22.5 -51.5v-193
q-126 29 -223 0q-81 -22 -147 -82q-37 -29 -97 -111l-8 -7q-37 -45 -63 -67.5t-48 -29.5q-15 -8 -26 -30t-4 -44t29.5 -37t45.5 0q52 8 104 45q22 21 74 81l8 15q74 97 132 126q97 53 254 14v-29q-16 -104 37 -200q-237 -44 -365 -171q-185 -178 -184 -497q0 -208 126 -356
q-37 -192 29 -349l45 -30q29 -15 103 -7q118 22 275 119q304 -74 616 0q149 -97 267 -126q81 -16 112 0l44 37q66 185 14 356z" />
</svg>
