<?xml version="1.0" standalone="no"?>
<!DOCTYPE svg PUBLIC "-//W3C//DTD SVG 1.1//EN" "http://www.w3.org/Graphics/SVG/1.1/DTD/svg11.dtd" >
<svg xmlns="http://www.w3.org/2000/svg" xmlns:xlink="http://www.w3.org/1999/xlink" version="1.1" width="2048" height="2048" viewBox="-10 0 2068 2048">
   <path fill="currentColor"
d="M1023 4q277 0 512.5 138t374 373t138.5 512.5t-138.5 512.5t-373.5 369.5t-512 134.5t-512 -134.5t-373.5 -369.5t-138.5 -512.5t138.5 -512.5t373.5 -373t511 -138zM1796 633q-75 -151 -201 -260.5t-278 -159.5q101 193 152 420h327zM1889 1103q9 -41 8 -75
q-9 -125 -34 -236h-369q9 84 9 151q0 160 -34 320h394q18 -76 26 -160zM1335 1103v-8q8 -75 8 -151t-17 -152h-604q-9 75 -9 151q0 160 34 320h563q16 -85 25 -160zM1301 633q-59 -252 -193 -471h-85h-75q-142 218 -193 471h546zM587 633q42 -226 151 -428q-160 59 -281 168
t-197 260h327zM193 785q-33 118 -33.5 239t33.5 239h394q-33 -160 -33 -320q0 -67 8 -151h-369v-7zM630 1415h-370q83 184 243 301.5t353 159.5q-151 -211 -226 -454v-7zM1023 1834q152 -185 237 -412h-463q75 227 226 412zM1427 1415q-75 252 -226 461q193 -42 348 -159.5
t247 -301.5h-369z" />
</svg>
