<?xml version="1.0" standalone="no"?>
<!DOCTYPE svg PUBLIC "-//W3C//DTD SVG 1.1//EN" "http://www.w3.org/Graphics/SVG/1.1/DTD/svg11.dtd" >
<svg xmlns="http://www.w3.org/2000/svg" xmlns:xlink="http://www.w3.org/1999/xlink" version="1.1" width="2048" height="2048" viewBox="-10 0 2067 2048">
   <path fill="currentColor"
d="M70 2048h1977v-141h-1899v-1907h-147v1977zM289 1689v-1173l79 -79h289l77 79v1173l-77 69h-289zM587 1610v-1024h-149v1024h149zM1461 219v1470l79 69h289l78 -69v-1470l-78 -70h-289zM1759 290v1320h-149v-1320h149zM875 1689v-884l79 -70h289l77 70v884l-77 69h-289z
M1173 1610v-734h-149v734h149z" />
</svg>
