<?xml version="1.0" standalone="no"?>
<!DOCTYPE svg PUBLIC "-//W3C//DTD SVG 1.1//EN" "http://www.w3.org/Graphics/SVG/1.1/DTD/svg11.dtd" >
<svg xmlns="http://www.w3.org/2000/svg" xmlns:xlink="http://www.w3.org/1999/xlink" version="1.1" width="2048" height="2048" viewBox="-11 0 2070 2048">
   <path fill="currentColor"
d="M2033 534q-16 -69 -51 -135.5t-90 -113.5q-78 -78 -179.5 -121t-207 -43t-203.5 43t-176 113l-102 102l-102 -102q-78 -70 -175.5 -113t-203 -43t-207 43t-180.5 121q-102 102 -141 249q-16 70 -15 141t16.5 141.5t50 133t89.5 109.5l868 868l868 -868q55 -47 86 -110
q70 -125 70 -274q1 -71 -15 -141zM1884 769q-23 102 -102 180l-758 758l-766 -758q-39 -39 -66.5 -86t-39 -94t-11.5 -101t11.5 -105t39 -94t66.5 -82q55 -55 133 -86q149 -63 305 0q69 23 126 86l202 194l196 -194q55 -55 133 -86q149 -63 304 0q70 31 125 86q39 39 63 86
q55 86 55 194q0 55 -8 102h-8z" />
</svg>
