<?xml version="1.0" standalone="no"?>
<!DOCTYPE svg PUBLIC "-//W3C//DTD SVG 1.1//EN" "http://www.w3.org/Graphics/SVG/1.1/DTD/svg11.dtd" >
<svg xmlns="http://www.w3.org/2000/svg" xmlns:xlink="http://www.w3.org/1999/xlink" version="1.1" width="2048" height="2048" viewBox="-10 0 2068 2048">
   <path fill="currentColor"
d="M699 774l-431 176l-91 -35l-177 -423l120 -50l105 255q57 -135 152.5 -244.5t222.5 -180t268.5 -99t286 -7t275.5 92t229.5 176t155 240t63.5 275.5h-127q-28 -254 -205 -437.5t-430.5 -215.5t-472.5 105.5t-304 377.5l311 -126zM1871 1127l177 430l-120 57l-107 -262
q-56 135 -151.5 244.5t-222 180t-271.5 99t-289.5 3.5t-272 -95.5t-226 -176.5t-155 -240.5t-71.5 -281.5h135v-64q0 128 42.5 248t126.5 218.5t194 162t237 85t250.5 0t236.5 -85t194 -162t131 -219.5l-303 127l-50 -127l430 -176zM890 1021q0 57 38.5 95.5t95 38.5
t95.5 -39t39 -91.5t-39 -91.5t-95.5 -39t-95 39t-38.5 88z" />
</svg>
