<?xml version="1.0" standalone="no"?>
<!DOCTYPE svg PUBLIC "-//W3C//DTD SVG 1.1//EN" "http://www.w3.org/Graphics/SVG/1.1/DTD/svg11.dtd" >
<svg xmlns="http://www.w3.org/2000/svg" xmlns:xlink="http://www.w3.org/1999/xlink" version="1.1" width="2048" height="2048" viewBox="-10 0 2068 2048">
   <path fill="currentColor"
d="M1029 1q-311 0 -572 172.5t-378.5 458t-59 592.5t281.5 526t525.5 278t589 -59t463 -374.5t168.5 -567.5q9 -211 -71 -395.5t-223 -332t-332.5 -223t-391.5 -75.5zM1029 1893q-268 0 -487.5 -147t-320.5 -391t-46 -501t239.5 -442t441.5 -239.5t501 46.5t391.5 319.5
t147.5 488.5q0 169 -68 328.5t-189.5 281t-281 189t-328.5 67.5zM869 1027q0 59 46.5 104.5t109 45.5t109 -46t46.5 -109t-46.5 -109t-109 -46t-109 46t-46.5 114z" />
</svg>
