<?xml version="1.0" standalone="no"?>
<!DOCTYPE svg PUBLIC "-//W3C//DTD SVG 1.1//EN" "http://www.w3.org/Graphics/SVG/1.1/DTD/svg11.dtd" >
<svg xmlns="http://www.w3.org/2000/svg" xmlns:xlink="http://www.w3.org/1999/xlink" version="1.1" width="2048" height="2048" viewBox="-10 0 2058 2048">
   <path fill="currentColor"
d="M1203 1993l-19 55h-841l19 -55q128 0 172 -19q65 -26 93 -72q55 -74 110 -257l347 -1234q45 -146 45 -229q0 -36 -18 -68t-59.5 -41.5t-151.5 -9.5l19 -63h786l-17 63q-91 -9 -151 19t-96.5 82t-91.5 247l-347 1234q-55 174 -55 215.5t18 68.5t59.5 41t178.5 23z" />
</svg>
