<?xml version="1.0" standalone="no"?>
<!DOCTYPE svg PUBLIC "-//W3C//DTD SVG 1.1//EN" "http://www.w3.org/Graphics/SVG/1.1/DTD/svg11.dtd" >
<svg xmlns="http://www.w3.org/2000/svg" xmlns:xlink="http://www.w3.org/1999/xlink" version="1.1" width="2048" height="2048" viewBox="-10 0 2064 2048">
   <path fill="currentColor"
d="M684 171v-171h-17q-81 0 -159 31t-132.5 90.5t-81 132.5t-35.5 144q-9 73 0 145v145q0 54 -19 101q-35 90 -127 135q-45 19 -100 19h-9v162h9q55 0 100 19v9q45 19 73 45v9q36 27 54.5 72t18.5 101v145q-9 73 0 145v9q9 64 36 135q26 73 85.5 132.5t131.5 86.5t155 35h17
v-171h-17q-55 0 -100 -19t-77 -54.5t-50.5 -81t-18.5 -99.5v-227q0 -55 -8.5 -109t-27.5 -100q-45 -99 -126 -163q81 -64 126 -163q19 -46 27.5 -100t8.5 -109v-227q0 -81 41 -140t105 -95q45 -19 100 -19h17zM1364 1877v163h9q81 0 154 -27t132.5 -86.5t85.5 -132.5
q27 -63 36 -144q9 -73 0 -145v-145q0 -54 19 -101q35 -90 127 -135q45 -19 100 -19h17v-162h-17q-55 0 -100 -19v-9q-45 -19 -73 -45v-9q-36 -27 -54.5 -72t-18.5 -101v-145q9 -73 0 -145v-9q-9 -64 -36 -135q-26 -73 -85.5 -132.5t-131.5 -90.5t-155 -23h-9v163h9
q55 0 100 19t77 54.5t50.5 81t18.5 99.5v227q0 55 8.5 109t27.5 100q45 99 126 163q-81 64 -126 163q-19 46 -27.5 100t-8.5 109v227q0 81 -41 140t-105 95q-45 19 -100 19h-9z" />
</svg>
