<?xml version="1.0" standalone="no"?>
<!DOCTYPE svg PUBLIC "-//W3C//DTD SVG 1.1//EN" "http://www.w3.org/Graphics/SVG/1.1/DTD/svg11.dtd" >
<svg xmlns="http://www.w3.org/2000/svg" xmlns:xlink="http://www.w3.org/1999/xlink" version="1.1" width="2048" height="2048" viewBox="-10 0 2058 2048">
   <path fill="currentColor"
d="M934 2016q35 27 80.5 31.5t86.5 -18t64 -58.5t27.5 -82t-14 -86.5t-64.5 -68.5q-54 -36 -122 -22t-104.5 72.5t-27 127t73.5 104.5zM1024 1199q-73 0 -123 -50t-50 -123t50 -123t123 -50t123 50t50 123t-50 123t-123 50zM1024 345q-73 0 -123 -50t-50 -122.5t50 -122.5
t123 -50t123 50t50 122.5t-50 122.5t-123 50z" />
</svg>
