<?xml version="1.0" standalone="no"?>
<!DOCTYPE svg PUBLIC "-//W3C//DTD SVG 1.1//EN" "http://www.w3.org/Graphics/SVG/1.1/DTD/svg11.dtd" >
<svg xmlns="http://www.w3.org/2000/svg" xmlns:xlink="http://www.w3.org/1999/xlink" version="1.1" width="2048" height="2048" viewBox="-10 0 2067 2048">
   <path fill="currentColor"
d="M1518 9q179 39 316 164t184 293t16 340q-47 227 -231 375t-418 148q-102 0 -188 -31l-117 141l-55 23h-149v219l-69 79h-219v218l-79 70h-437l-70 -70v-336l15 -54l735 -727q-31 -102 -31 -212q0 -141 66.5 -277t179.5 -226.5t257.5 -125t293.5 -11.5zM1713 1063
q141 -109 180 -288q23 -133 -12 -258t-129 -219t-218.5 -129t-258.5 -12q-172 39 -289.5 179.5t-117.5 320.5q-8 102 33 196l-17 78l-734 743v233h289v-226l70 -70h227v-219l71 -71h179l133 -148l78 -24q94 31 188 32q179 -1 328 -118zM1589 665q22 -31 26 -70.5t-15 -74.5
t-50.5 -58.5t-74.5 -27.5t-78 15.5t-51 51.5q-31 55 -19.5 113.5t62.5 89.5t106 19.5t94 -58.5z" />
</svg>
