<?xml version="1.0" standalone="no"?>
<!DOCTYPE svg PUBLIC "-//W3C//DTD SVG 1.1//EN" "http://www.w3.org/Graphics/SVG/1.1/DTD/svg11.dtd" >
<svg xmlns="http://www.w3.org/2000/svg" xmlns:xlink="http://www.w3.org/1999/xlink" version="1.1" width="2048" height="2048" viewBox="-10 0 2068 2048">
   <path fill="currentColor"
d="M501 289h445q141 0 254.5 66.5t180 183.5t66.5 250v32q0 133 -66.5 246.5t-180 183.5t-254.5 70h-71v-148h71q149 0 250.5 -106t101.5 -246v-32q0 -149 -102 -250t-250 -101h-445q-149 0 -254.5 101t-105.5 250v32q8 125 90 222.5t207 121.5v149q-188 -23 -313 -164.5
t-125 -328.5v-32q0 -133 66.5 -250t180 -183.5t254.5 -66.5zM1610 883v-149q188 23 313 164.5t125 328.5v32q0 133 -66.5 250t-180 183.5t-246.5 66.5h-453q-141 0 -254.5 -66.5t-180 -183.5t-66.5 -250v-32q0 -133 66.5 -246.5t180 -180t254.5 -66.5h71v141h-71
q-149 0 -250.5 106t-101.5 246v32q0 149 102 250t250 101h453q141 0 243 -101t109 -250v-32q-8 -125 -90 -223t-207 -121z" />
</svg>
