<?xml version="1.0" standalone="no"?>
<!DOCTYPE svg PUBLIC "-//W3C//DTD SVG 1.1//EN" "http://www.w3.org/Graphics/SVG/1.1/DTD/svg11.dtd" >
<svg xmlns="http://www.w3.org/2000/svg" xmlns:xlink="http://www.w3.org/1999/xlink" version="1.1" width="2048" height="2048" viewBox="-10 0 2059 2048">
   <path fill="currentColor"
d="M1174 65l132 -65l733 586v124l-733 557l-132 -67v-255h-58q-227 0 -336 21q-161 29 -308 125q-153 109 -323 329l-138 -44q-8 -103 21 -205q29 -183 121 -344t238 -278t322 -179t366 -56h95v-249zM1335 790v257l520 -396l-512 -410v242h-264q-176 -8 -344 55t-292 187
q-153 161 -220 373q147 -139 293 -212q132 -59 293 -81q109 -15 314 -15h212zM640 1332q88 -65 194.5 -72.5t201 40t153 135.5t66 194t-40 205t-135.5 150q-139 88 -296.5 55t-248.5 -164.5t-58.5 -293t164.5 -249.5zM728 1852q52 37 114 44.5t120.5 -22t91 -84.5t40 -117
t-22 -120.5t-79.5 -88.5q-88 -59 -183.5 -36.5t-150 103t-32.5 175.5t102 146z" />
</svg>
