<?xml version="1.0" standalone="no"?>
<!DOCTYPE svg PUBLIC "-//W3C//DTD SVG 1.1//EN" "http://www.w3.org/Graphics/SVG/1.1/DTD/svg11.dtd" >
<svg xmlns="http://www.w3.org/2000/svg" xmlns:xlink="http://www.w3.org/1999/xlink" version="1.1" width="2048" height="2048" viewBox="-10 0 2058 2048">
   <path fill="currentColor"
d="M1490 192q-87 -87 -210 -139.5t-254 -52.5q-183 0 -332 92.5t-236.5 241t-92 331.5t100.5 341l516 1042h88l516 -1042q105 -158 96 -350q0 -131 -48 -249.5t-144 -214.5zM1017 167h9h18q192 9 332 153t149 345q0 140 -79 254l-420 848l-420 -848q-79 -114 -79 -254
q9 -201 149 -345t341 -153zM1113 525q-52 -43 -122 -30t-105.5 70t-22 122t70.5 105t122.5 26.5t105.5 -70.5t26.5 -122.5t-75.5 -100.5zM843 386q70 -53 161.5 -62t170 30t127 113.5t52.5 167t-35 171t-117 122.5q-106 70 -237 43.5t-205.5 -135.5t-52.5 -240.5t136 -209.5
z" />
</svg>
