<?xml version="1.0" standalone="no"?>
<!DOCTYPE svg PUBLIC "-//W3C//DTD SVG 1.1//EN" "http://www.w3.org/Graphics/SVG/1.1/DTD/svg11.dtd" >
<svg xmlns="http://www.w3.org/2000/svg" xmlns:xlink="http://www.w3.org/1999/xlink" version="1.1" width="2048" height="2048" viewBox="-10 0 2058 2048">
   <path fill="currentColor"
d="M1574 1896q-279 161 -614 150q-183 11 -360.5 -53.5t-312.5 -198.5t-199.5 -307t-53.5 -367q0 -216 75 -426t231 -365t361 -242t420 -87q388 0 625 205q270 226 270 603q0 323 -167.5 533t-415.5 210q-225 0 -225 -194q-65 96 -156.5 145t-198.5 49q-152 0 -243.5 -102
t-91.5 -285t70.5 -339t194 -253t264.5 -97q96 -11 176.5 42.5t113.5 140.5l43 -163h183l-161 647q-32 141 -16 194.5t81 53.5q151 0 264 -167t113 -404q0 -313 -200 -484.5t-534 -171.5q-259 0 -457.5 129t-311.5 349t-113 479q-11 161 37 301.5t156 248.5t253.5 161.5
t296.5 42.5q302 11 571 -129zM723 1142q0 248 183 248q119 0 205 -97t128 -280q97 -388 -172 -388q-151 0 -247.5 161.5t-96.5 355.5z" />
</svg>
