<?xml version="1.0" standalone="no"?>
<!DOCTYPE svg PUBLIC "-//W3C//DTD SVG 1.1//EN" "http://www.w3.org/Graphics/SVG/1.1/DTD/svg11.dtd" >
<svg xmlns="http://www.w3.org/2000/svg" xmlns:xlink="http://www.w3.org/1999/xlink" version="1.1" width="2048" height="2048" viewBox="-10 0 2068 2048">
   <path fill="currentColor"
d="M1884 615q23 -63 31 -141q8 -140 -47 -281h-31q-31 -8 -78 8q-63 8 -133 47q-93 39 -203 108q-141 -39 -399 -39t-399 39q-195 -124 -336 -155q-70 -16 -109 -8q-55 141 -47 281q8 78 31 141q-164 180 -164 430q0 321 133 508q117 164 360 242q202 63 527 63t535 -63
q243 -78 360 -242q133 -187 133 -508q0 -250 -164 -430zM1024 1733q-258 0 -384 -24q-188 -31 -280 -117q-102 -94 -102 -289q0 -149 133 -266q63 -63 179 -78q78 0 251 8q133 8 203 8t211 -8q164 -8 243 -8q116 16 179 78q133 117 133 266q0 187 -102 289q-94 86 -280 117
q-126 24 -384 24zM703 1092q-63 0 -109 66.5t-46 160t46 160t109 66.5t110 -66.5t47 -160t-47 -160t-110 -66.5zM1345 1092q-63 0 -110 66.5t-47 160t47 160t110 66.5t109 -66.5t46 -160t-46 -160t-109 -66.5z" />
</svg>
