<?xml version="1.0" standalone="no"?>
<!DOCTYPE svg PUBLIC "-//W3C//DTD SVG 1.1//EN" "http://www.w3.org/Graphics/SVG/1.1/DTD/svg11.dtd" >
<svg xmlns="http://www.w3.org/2000/svg" xmlns:xlink="http://www.w3.org/1999/xlink" version="1.1" width="2048" height="2048" viewBox="-10 0 2068 2048">
   <path fill="currentColor"
d="M1025 4q-277 0 -512.5 138t-374 373t-138.5 512.5t138.5 512.5t373.5 369.5t512 134.5t512 -134.5t373.5 -369.5t138.5 -512.5t-138.5 -512.5t-373.5 -373t-511 -138zM1025 1893q-235 0 -437 -117.5t-319.5 -315t-113.5 -433t117.5 -436.5t314.5 -318.5t437 -117.5
t433 117.5t314.5 318.5t117.5 436.5t-117.5 433t-314.5 315t-432 117.5zM1268 566q-42 -42 -105 -67t-134.5 -25t-134.5 25t-105 71t-59 101t-25 114h193q0 -42 21 -71.5t50.5 -42.5t54.5 -13t46 4.5t37.5 16.5t25 33.5t8.5 55t-16.5 71.5t-42.5 71l-116 134q-25 34 -42 72
t-9 80v100h185v-75q0 -33 16.5 -66.5t42.5 -68.5l59 -66q33 -34 58 -76t42 -88.5t17 -101t-17 -105t-50 -83.5zM915 1389h176v184h-176v-184z" />
</svg>
