<?xml version="1.0" standalone="no"?>
<!DOCTYPE svg PUBLIC "-//W3C//DTD SVG 1.1//EN" "http://www.w3.org/Graphics/SVG/1.1/DTD/svg11.dtd" >
<svg xmlns="http://www.w3.org/2000/svg" xmlns:xlink="http://www.w3.org/1999/xlink" version="1.1" width="2048" height="2048" viewBox="-10 0 2068 2048">
   <path fill="currentColor"
d="M954 328q-291 182 -424 393.5t-133 510.5h67q158 0 274 99.5t116 277.5t-108 289.5t-282 111.5q-223 0 -343.5 -173.5t-120.5 -489.5q0 -440 195 -763t584 -546zM2048 328q-299 182 -431.5 393.5t-132.5 510.5h66q158 0 274 99.5t116 277.5t-107.5 289.5t-282.5 111.5
q-224 0 -344 -173.5t-120 -489.5q0 -440 199 -763t581 -546z" />
</svg>
