<?xml version="1.0" standalone="no"?>
<!DOCTYPE svg PUBLIC "-//W3C//DTD SVG 1.1//EN" "http://www.w3.org/Graphics/SVG/1.1/DTD/svg11.dtd" >
<svg xmlns="http://www.w3.org/2000/svg" xmlns:xlink="http://www.w3.org/1999/xlink" version="1.1" width="2048" height="2048" viewBox="-10 0 2058 2048">
   <path fill="currentColor"
d="M206 683q0 -167 64 -318t182 -263l-111 -102q-135 135 -210 309.5t-75 369t75 369t210 309.5l111 -103q-118 -112 -182 -262t-64 -309zM365 683q0 126 52 249.5t146 218.5l103 -103q-71 -71 -110.5 -166.5t-39.5 -199t39.5 -199t110.5 -166.5l-103 -111
q-95 95 -146.5 218.5t-51.5 258.5zM1508 1158l-111 -110q79 -71 119 -166.5t40 -199t-39.5 -199t-119.5 -166.5l111 -103q88 95 139.5 218.5t51.5 254.5t-51.5 253.5t-139.5 217.5zM1707 0l-103 102q111 112 174.5 262.5t63.5 313.5t-64 314t-174 262l103 103
q135 -135 210 -309.5t75 -369t-75 -369t-210 -309.5zM1247 658q8 79 -33 143l-39 33l508 1150l-135 64l-112 -262h-825l-119 262l-135 -64l508 -1150q-39 -48 -55.5 -112t11.5 -127.5t79.5 -98.5t111 -39.5t111.5 19.5t88 71t36 111zM1008 604q-16 8 -31.5 23.5t-20 35.5
t4 39.5t28 31t43.5 11.5t48 -19.5t24 -47.5t-16.5 -43.5t-36 -23t-43.5 -7.5zM1048 913h-40l-135 286h302zM1373 1643l-134 -294h-430l-126 294h690z" />
</svg>
