<?xml version="1.0" standalone="no"?>
<!DOCTYPE svg PUBLIC "-//W3C//DTD SVG 1.1//EN" "http://www.w3.org/Graphics/SVG/1.1/DTD/svg11.dtd" >
<svg xmlns="http://www.w3.org/2000/svg" xmlns:xlink="http://www.w3.org/1999/xlink" version="1.1" width="2048" height="2048" viewBox="-10 0 2058 2048">
   <path fill="currentColor"
d="M1482 242q31 -70 85.5 -70t86 54.5t31.5 148t-35.5 152.5t-89.5 59t-78 -55l-8 47h-86v-578h86zM1474 407q0 31 16 58.5t42.5 27.5t43 -31.5t16.5 -86t-12.5 -82t-39 -27.5t-46.5 31t-20 71v39zM380 977l-306 -313l94 -94l149 149v-226q0 -78 58.5 -141t145.5 -63h343
v133h-343q-31 0 -51 23t-20 48v226l140 -141l94 94zM1146 570h101v-249q0 -180 -140 -180q-31 0 -66.5 11.5t-59.5 27.5v94q55 -39 113.5 -39t51.5 70l-86 8q-110 23 -110 147q0 55 27.5 90.5t74.5 35.5q63 0 94 -71v55zM1153 375v32q0 31 -19.5 58.5t-43 27.5t-35 -16.5
t-11.5 -30.5q0 -55 47 -63l55 -8h7zM801 1743h-94v-55q-31 70 -94 71q-47 0 -73.5 -35.5t-26.5 -90.5q0 -124 108 -147l86 -8q0 -70 -54.5 -70t-108.5 39v-94q22 -16 58 -24q35 -8 66 -15q133 0 133 180v249zM707 1580v-33l-54 8q-47 8 -47 63q0 17 11.5 32t35 15t39 -23.5
t15.5 -61.5zM1138 1759q70 0 109 -24v-109q-39 31 -86 31t-74 -31.5t-27 -85.5t31 -89.5t74 -35.5t75 32v-110q-23 -16 -87 -23q-94 0 -148.5 62.5t-54.5 163.5t51 160t137 59zM74 1173l141 -149h1322l148 149v727l-148 148h-1322l-141 -148v-727zM215 1173v727h1322v-727
h-1322zM660 875l141 -148h1032l141 148v735l-141 149v-884h-1173z" />
</svg>
