<?xml version="1.0" standalone="no"?>
<!DOCTYPE svg PUBLIC "-//W3C//DTD SVG 1.1//EN" "http://www.w3.org/Graphics/SVG/1.1/DTD/svg11.dtd" >
<svg xmlns="http://www.w3.org/2000/svg" xmlns:xlink="http://www.w3.org/1999/xlink" version="1.1" width="2048" height="2048" viewBox="-10 0 2058 2048">
   <path fill="currentColor"
d="M395 399l336 335l320 -327l-101 -102l-148 149v-235q0 -31 23.5 -54.5t46.5 -23.5h226v-141h-218q-94 0 -156.5 62.5t-62.5 156.5v235l-157 -157zM1372 664h8q39 70 121 66.5t133 -74t51 -187.5t-43 -183.5t-129 -66.5t-133 86l-8 -305h-125v719h125v-55zM1372 507v-53
q0 -55 23.5 -86.5t66.5 -31.5t66.5 35.5t23.5 101.5t-23.5 105t-66.5 39t-66.5 -35.5t-23.5 -74.5zM1247 1720q-55 39 -165 39q-124 0 -198.5 -78.5t-74.5 -202.5q-8 -141 78.5 -223t218.5 -82q94 0 141 23v149q-55 -39 -121 -39t-109 43t-43 117.5t38.5 117t105 42.5
t129.5 -38v132zM512 875l-149 149v876l149 148h1024l149 -148v-876l-149 -149h-1024zM512 1024h1024v876h-1024v-876z" />
</svg>
