<?xml version="1.0" standalone="no"?>
<!DOCTYPE svg PUBLIC "-//W3C//DTD SVG 1.1//EN" "http://www.w3.org/Graphics/SVG/1.1/DTD/svg11.dtd" >
<svg xmlns="http://www.w3.org/2000/svg" xmlns:xlink="http://www.w3.org/1999/xlink" version="1.1" width="2048" height="2048" viewBox="-10 0 2068 2048">
   <path fill="currentColor"
d="M0 781v-524l67 -74h703l45 22l127 119h807l74 76v344h158l67 89l-373 987l-68 45h-523q53 -60 89 -135h382l336 -845h-807q-45 -53 -105 -96l22 -23l45 -22h636v-277h-770l-52 -22l-120 -121h-599v367q-74 37 -141 90zM702 1379q0 90 -63.5 149.5t-149.5 59.5
t-149.5 -59.5t-63.5 -149.5t63.5 -149.5t149.5 -59.5t146 59.5t60 149.5h7zM979 1379q0 135 -67.5 247t-179.5 175.5t-243 63.5t-246.5 -63.5t-179 -175.5t-63.5 -247t63.5 -247t179 -179.5t246.5 -67.5t243 67.5t179.5 179.5t67.5 247zM485 1730q150 0 251 -104.5
t101 -250.5t-101 -247t-246.5 -101t-247 101t-101.5 247t101 250.5t243 104.5z" />
</svg>
