<?xml version="1.0" standalone="no"?>
<!DOCTYPE svg PUBLIC "-//W3C//DTD SVG 1.1//EN" "http://www.w3.org/Graphics/SVG/1.1/DTD/svg11.dtd" >
<svg xmlns="http://www.w3.org/2000/svg" xmlns:xlink="http://www.w3.org/1999/xlink" version="1.1" width="2048" height="2048" viewBox="-10 0 2068 2048">
   <path fill="currentColor"
d="M985 292h993l70 79v1462l-70 71h-844q55 -63 93 -141h673l7 -1032h-930v7q-63 -47 -133 -78l55 -47l47 -23h954l7 -149h-953l-55 -23l-125 -126h-626v384q-78 39 -148 94v-548l70 -78h735l55 23zM734 1395q0 94 -66.5 156.5t-156 62.5t-156 -62.5t-66.5 -156.5
t66.5 -156.5t156 -62.5t152.5 62.5t63 156.5h7zM1024 1395q0 141 -70.5 258.5t-188 184t-254 66.5t-257.5 -66.5t-187.5 -184t-66.5 -258.5t66.5 -258.5t187.5 -187.5t257.5 -70t254 70t188 187.5t70.5 258.5zM507 1763q157 0 262.5 -109.5t105.5 -262.5t-105.5 -258.5
t-257.5 -105.5t-258 105.5t-106 258.5t105.5 262.5t253.5 109.5z" />
</svg>
