<?xml version="1.0" standalone="no"?>
<!DOCTYPE svg PUBLIC "-//W3C//DTD SVG 1.1//EN" "http://www.w3.org/Graphics/SVG/1.1/DTD/svg11.dtd" >
<svg xmlns="http://www.w3.org/2000/svg" xmlns:xlink="http://www.w3.org/1999/xlink" version="1.1" width="2048" height="2048" viewBox="-10 0 2068 2048">
   <path fill="currentColor"
d="M2025 242l-219 -219l-47 -23h-1252l-69 70v368h-368l-70 69v1471l70 70h1471l69 -70v-368h368l70 -69v-1252zM1462 1900h-1314v-1314h141v446h884v-446h117l172 172v1142zM734 875v-289h290v289h-290zM1907 1462h-297v-735l-22 -47l-220 -220l-47 -22h-735v-297h1141
l180 180v1141z" />
</svg>
