<?xml version="1.0" standalone="no"?>
<!DOCTYPE svg PUBLIC "-//W3C//DTD SVG 1.1//EN" "http://www.w3.org/Graphics/SVG/1.1/DTD/svg11.dtd" >
<svg xmlns="http://www.w3.org/2000/svg" xmlns:xlink="http://www.w3.org/1999/xlink" version="1.1" width="2048" height="2048" viewBox="-10 0 2068 2048">
   <path fill="currentColor"
d="M1470 62l242 242l47 110v47h-79l-70 70v-117l-242 -251h-47v587h-883v-587h-290v1471h438l-79 141h-359l-148 -141v-1471l148 -148h1220zM875 602h298v-446h-298v446zM1829 602l219 219v102l-891 891l-446 219l-94 -102l219 -438l891 -891h102zM922 1657l-78 149l149 -70
zM1016 1509l118 117l758 -758l-118 -110z" />
</svg>
