<?xml version="1.0" standalone="no"?>
<!DOCTYPE svg PUBLIC "-//W3C//DTD SVG 1.1//EN" "http://www.w3.org/Graphics/SVG/1.1/DTD/svg11.dtd" >
<svg xmlns="http://www.w3.org/2000/svg" xmlns:xlink="http://www.w3.org/1999/xlink" version="1.1" width="2048" height="2048" viewBox="-10 0 2068 2048">
   <path fill="currentColor"
d="M693 340q-148 148 -183 355t51 394q63 140 179 233q-16 70 -8 140v24l-70 -46l-553 537l-109 -101l553 -538q-179 -195 -198.5 -464t121 -495.5t394 -323.5t510.5 -23.5t417 288.5t160 488q0 55 -8 116q-63 -54 -133 -100v-16q0 -202 -113 -366t-296.5 -242.5t-378 -39.5
t-335.5 180zM1138 979q124 -85 284.5 -97t300.5 58t225.5 199t97.5 285t-58 296t-202.5 229.5t-288.5 97.5t-296.5 -58t-226 -198.5t-93.5 -288.5t58 -296.5t199 -226.5zM1146 1774q132 133 311 126q141 8 259 -79l-617 -608q-78 110 -78 249q0 188 125 312zM1208 1104
l608 616q86 -116 79 -258q8 -179 -121 -307.5t-317 -128.5q-139 0 -249 78z" />
</svg>
