<?xml version="1.0" standalone="no"?>
<!DOCTYPE svg PUBLIC "-//W3C//DTD SVG 1.1//EN" "http://www.w3.org/Graphics/SVG/1.1/DTD/svg11.dtd" >
<svg xmlns="http://www.w3.org/2000/svg" xmlns:xlink="http://www.w3.org/1999/xlink" version="1.1" width="2048" height="2048" viewBox="-10 0 2068 2048">
   <path fill="currentColor"
d="M1693 744l355 75v410l-355 75l205 300l-294 287l-300 -198l-75 355h-410l-75 -355l-300 205l-287 -294l198 -300l-355 -75v-410l355 -75l-198 -300l287 -294l300 205l75 -355h410l75 355l300 -205l294 294zM1563 1181l342 -68v-171l-342 -75l-47 -109l191 -294l-116 -123
l-294 198l-116 -47l-68 -342h-171l-68 342l-109 47l-294 -198l-123 123l198 294l-48 109l-341 75v171l341 68l48 109l-198 294l123 123l294 -198l109 47l68 342h171l68 -342l116 -47l294 198l116 -123l-191 -294zM860 778q75 -48 164 -48q123 0 208.5 85.5t85.5 208.5
q0 102 -68.5 184t-171 102.5t-194.5 -27t-129.5 -146.5t-10.5 -198.5t116 -160.5zM942 1147q41 20 82 20q61 0 102 -41t41 -99t-30.5 -95.5t-81.5 -47.5t-99 14t-68.5 71.5t-3.5 99t58 78.5z" />
</svg>
