<?xml version="1.0" standalone="no"?>
<!DOCTYPE svg PUBLIC "-//W3C//DTD SVG 1.1//EN" "http://www.w3.org/Graphics/SVG/1.1/DTD/svg11.dtd" >
<svg xmlns="http://www.w3.org/2000/svg" xmlns:xlink="http://www.w3.org/1999/xlink" version="1.1" width="2048" height="2048" viewBox="-10 0 2068 2048">
   <path fill="currentColor"
d="M368 144h-149v735h149v-735zM1259 879h-470l-55 -78v-149l55 -62h470l62 70v149zM523 1317h-469l-54 -71v-149l54 -70h469l63 70v149zM1094 144h-140v297h140v-297zM954 1027h140v877h-140v-877zM368 1465h-149v439h149v-439zM1525 1465h469l54 -70v-141l-54 -70h-469
l-63 70v141zM1829 144h-149v883h149v-883zM1680 1614h149v290h-149v-290z" />
</svg>
