<?xml version="1.0" standalone="no"?>
<!DOCTYPE svg PUBLIC "-//W3C//DTD SVG 1.1//EN" "http://www.w3.org/Graphics/SVG/1.1/DTD/svg11.dtd" >
<svg xmlns="http://www.w3.org/2000/svg" xmlns:xlink="http://www.w3.org/1999/xlink" version="1.1" width="2048" height="2048" viewBox="-10 0 2058 2048">
   <path fill="currentColor"
d="M989 2048q-119 -71 -230.5 -147t-215.5 -163.5t-191.5 -187t-155 -219.5t-107 -259.5t-32.5 -281.5v-478l72 -72q79 0 142.5 -8t131.5 -20t128 -36t116 -64q88 -56 183 -87q144 -40 294 -16q96 9 184 55q47 24 87 48q64 40 123.5 64t127.5 36t132 20t143 8l72 72v478
q0 144 -36 282.5t-103.5 258.5t-159 219.5t-191.5 187t-211.5 163.5t-230.5 147h-72zM200 383v407q0 127 32 242.5t91.5 223t143.5 199t180 175t198 147.5l175 119q96 -56 184 -119q104 -71 199.5 -151t179 -171.5t139.5 -199t91.5 -223t35.5 -242.5v-407h-88
q-71 -8 -150 -24q-160 -31 -295 -119l-72 -40q-64 -32 -143 -48q-112 -17 -231 16q-71 23 -139.5 67.5t-143.5 76t-151 48t-155 23.5h-81zM1109 1028q71 -31 111 -103t24 -148t-79.5 -127t-143.5 -51t-139.5 51t-76 127t20 148t115.5 103l-63 391h294z" />
</svg>
