<?xml version="1.0" standalone="no"?>
<!DOCTYPE svg PUBLIC "-//W3C//DTD SVG 1.1//EN" "http://www.w3.org/Graphics/SVG/1.1/DTD/svg11.dtd" >
<svg xmlns="http://www.w3.org/2000/svg" xmlns:xlink="http://www.w3.org/1999/xlink" version="1.1" width="2048" height="2048" viewBox="-11 0 2069 2048">
   <path fill="currentColor"
d="M453 179q226 -156 501.5 -175t520 101.5t400 350t171.5 501t-108.5 520.5t-353.5 401t-497 167t-513.5 -101.5t-401 -349.5t-171 -501t101.5 -513t350 -401zM539 1757q194 125 427 144t443 -85.5t342 -299.5t147.5 -431.5t-89 -446.5t-303 -338.5t-428 -143.5
t-439.5 89.5t-342 298.5t-147.5 427.5t86 439.5t303.5 346zM803 878q0 63 -43 105.5t-105 42.5t-105 -42.5t-43 -104.5t43 -104.5t105 -42.5t105 42t43 104zM1534 878q0 63 -43.5 105.5t-105.5 42.5t-104.5 -42.5t-42.5 -104.5t42.5 -104.5t104.5 -42.5t105.5 42t43.5 104z
M1020 1461q-124 0 -225 -62t-163 -163l-125 71q77 140 221 221t307.5 77t299.5 -89t206 -233l-124 -62q-55 109 -164 174.5t-233 65.5z" />
</svg>
