<?xml version="1.0" standalone="no"?>
<!DOCTYPE svg PUBLIC "-//W3C//DTD SVG 1.1//EN" "http://www.w3.org/Graphics/SVG/1.1/DTD/svg11.dtd" >
<svg xmlns="http://www.w3.org/2000/svg" xmlns:xlink="http://www.w3.org/1999/xlink" version="1.1" width="2048" height="2048" viewBox="-10 0 2069 2048">
   <path fill="currentColor"
d="M664 206q-8 -8 -16 -7q-16 -70 -74.5 -117.5t-135.5 -47.5v196q-172 70 -289.5 207t-148.5 317v63q39 78 172 124q63 31 141 47h8q-125 16 -204 70q-63 47 -94 110q-23 47 -23 102v47q0 55 43 94t101.5 39t113.5 -24h304q-39 70 -55 149h-47q-132 16 -222 121.5
t-90 246.5q-8 30 8 49.5t47 19.5h978q125 8 234 -34.5t195 -132.5t121.5 -203.5t27.5 -238.5q-8 -172 -110 -305l-16 -24q-55 -63 -73.5 -106t-7.5 -77.5t35 -50.5l15 -8h24q23 0 47 8q47 30 101 46q78 9 149 -26t110 -106q16 -47 15 -102q0 -133 -101 -305
q-94 -141 -227 -227q-187 -102 -391 -62q-141 23 -242 133q-78 86 -118 195q-39 -55 -94 -109v-24q0 -86 -58.5 -148.5t-152.5 -70.5v172zM1447 1481q16 117 0 188q-23 110 -133 172q-63 22 -133 24h-860q0 -55 39 -98t100 -43h188v-79q-8 -102 62.5 -180t180.5 -86
l-94 -133q-63 23 -86 39h-469q-23 0 -39 8q-39 16 -58.5 4t-4 -55t55 -74t93.5 -31h149q30 0 49.5 -19.5t27.5 -43.5l47 -188q-116 17 -225.5 -18.5t-188.5 -113.5q31 -164 160.5 -273.5t292.5 -117.5h16q63 0 117 23q78 39 204 204q63 86 109 164l8 8h24v-8q-8 -55 0 -145
t15 -137q31 -94 105.5 -168t184.5 -90q149 -31 273 39q102 63 168.5 168.5t81.5 199.5v16q0 55 -19.5 74.5t-47 27t-58.5 0t-62 -23.5q-78 -47 -165 -23q-55 16 -89.5 55t-50.5 93q-23 85 4.5 175t88.5 153l16 23q78 94 82 211.5t-43 219.5q-8 -102 -63 -196zM476 551
q-30 0 -53.5 19.5t-23.5 50.5t23.5 54.5t51 20t50.5 -23.5t23 -51t-23 -50.5t-56 -19.5h8z" />
</svg>
