<?xml version="1.0" standalone="no"?>
<!DOCTYPE svg PUBLIC "-//W3C//DTD SVG 1.1//EN" "http://www.w3.org/Graphics/SVG/1.1/DTD/svg11.dtd" >
<svg xmlns="http://www.w3.org/2000/svg" xmlns:xlink="http://www.w3.org/1999/xlink" version="1.1" width="2048" height="2048" viewBox="-10 0 2068 2048">
   <path fill="currentColor"
d="M1546 1298h104l398 -398v-104l-200 -198h-102l-271 271h-750v-192l279 -271v-112l-303 -294h-103l-598 598v103l294 303h112l167 -175v869l73 71h700v79l192 200h112l398 -398v-112l-200 -199h-102l-279 279h-750v-598h629v72zM1793 757l96 87l-295 304l-96 -96z
M1793 1498l96 96l-295 302l-96 -94zM350 844l-191 -198l487 -487l198 191z" />
</svg>
