<?xml version="1.0" standalone="no"?>
<!DOCTYPE svg PUBLIC "-//W3C//DTD SVG 1.1//EN" "http://www.w3.org/Graphics/SVG/1.1/DTD/svg11.dtd" >
<svg xmlns="http://www.w3.org/2000/svg" xmlns:xlink="http://www.w3.org/1999/xlink" version="1.1" width="2048" height="2048" viewBox="-10 0 2068 2048">
   <path fill="currentColor"
d="M1020 8q-202 0 -389 77.5t-331.5 222t-222 331.5t-77.5 389v63q8 109 81.5 159.5t175 35t179 -89.5t186.5 -70t187.5 81.5t82.5 183t-74.5 187t-89.5 190.5t43 190.5t171 89.5h86q273 0 510 -140t373.5 -373.5t136.5 -510.5t-136.5 -510t-373.5 -373.5t-510 -140.5z
M1020 1908h-78q-30 -8 -50 -23.5t-20 -46.5q-16 -93 46 -156q117 -125 117.5 -292t-120.5 -292t-292 -125t-297 125q-54 62 -132 46q-16 0 -31.5 -15t-15.5 -38v-55q0 -242 121 -440.5t319.5 -319.5t436.5 -121t440.5 121t319 319.5t116.5 436.5t-116.5 440.5t-319 319
t-436.5 116.5h-8zM1168 444q0 63 -42.5 105.5t-105.5 42.5t-105.5 -42.5t-42.5 -105.5t42.5 -105.5t105.5 -42.5t105.5 42.5t42.5 105.5zM1604 1464q0 63 -42.5 105.5t-105 42.5t-105 -42.5t-39 -101t42.5 -102t101.5 -43.5t105 43t42.5 98zM584 739q63 0 105 -42.5t39 -105
t-42.5 -105t-102 -42.5t-105 42.5t-42.5 105t42.5 105t105.5 42.5zM1604 592q0 63 -42.5 105t-105 42t-105 -42.5t-39 -105t42.5 -105t101.5 -42.5t105 42.5t42.5 105.5zM1752 1028q0 63 -42.5 105.5t-105.5 42.5t-105.5 -42.5t-42.5 -105.5t42.5 -105.5t105.5 -42.5
t105.5 42.5t42.5 105.5z" />
</svg>
