<?xml version="1.0" standalone="no"?>
<!DOCTYPE svg PUBLIC "-//W3C//DTD SVG 1.1//EN" "http://www.w3.org/Graphics/SVG/1.1/DTD/svg11.dtd" >
<svg xmlns="http://www.w3.org/2000/svg" xmlns:xlink="http://www.w3.org/1999/xlink" version="1.1" width="2048" height="2048" viewBox="-10 0 2068 2048">
   <path fill="currentColor"
d="M1540 510q-196 0 -341 125t-167 313h-454q-31 -102 -120.5 -164.5t-203 -50.5t-184 94t-70.5 195t70.5 195t184 98t203 -46.5t120.5 -172.5h454q16 133 97.5 238.5t202.5 160.5t254.5 39.5t242.5 -90t167.5 -192t50.5 -254t-78 -246t-183 -176t-246 -66.5zM1540 1386
q-157 0 -262.5 -106t-105.5 -258t105.5 -257.5t258 -105.5t258 105.5t105.5 257.5t-105.5 261.5t-253.5 109.5v-7z" />
</svg>
