<?xml version="1.0" standalone="no"?>
<!DOCTYPE svg PUBLIC "-//W3C//DTD SVG 1.1//EN" "http://www.w3.org/Graphics/SVG/1.1/DTD/svg11.dtd" >
<svg xmlns="http://www.w3.org/2000/svg" xmlns:xlink="http://www.w3.org/1999/xlink" version="1.1" width="2048" height="2048" viewBox="-10 0 2068 2048">
   <path fill="currentColor"
d="M436 145h1167v584q78 8 149 38v-763h-1465v1238l149 -257v-840zM747 1313l-163 -289l-584 1020h1168zM249 1896l249 -436l86 -147l334 583h-669zM1245 961q117 -77 253 -85t261 50.5t202.5 175.5t85.5 253.5t-54 260.5t-179 198t-249.5 81.5t-253 -54.5t-198 -175
t-85.5 -245t50 -257t167 -203zM1331 1693q77 55 174.5 63t187.5 -35.5t144.5 -125t62 -182t-39.5 -187t-124 -139.5q-125 -86 -273 -55t-233.5 156t-54 272.5t155.5 232.5z" />
</svg>
