<?xml version="1.0" standalone="no"?>
<!DOCTYPE svg PUBLIC "-//W3C//DTD SVG 1.1//EN" "http://www.w3.org/Graphics/SVG/1.1/DTD/svg11.dtd" >
<svg xmlns="http://www.w3.org/2000/svg" xmlns:xlink="http://www.w3.org/1999/xlink" version="1.1" width="2048" height="2048" viewBox="-10 0 2068 2048">
   <path fill="currentColor"
d="M274 15q78 31 109 102q16 39 16 86t-23.5 90t-70.5 74.5t-110 31.5q-78 0 -136.5 -59t-58.5 -145q0 -55 31 -105t86 -75q79 -30 157 0zM227 274q47 -23 54 -79q0 -23 -19.5 -46.5t-43 -31.5t-47 4t-39 31.5t-15.5 47t19.5 47t43.5 27.5t47 0zM797 15l-782 783l102 93
l774 -774zM1540 1173h140v368h368v139h-368v368h-140v-368h-367v-139h367v-368zM695 1251l102 102l-257 258l257 257l-102 102l-257 -258l-258 258l-102 -102l258 -257l-258 -258l102 -102l258 258zM891 634q-23 -55 -70 -90.5t-110 -35.5t-113 35.5t-70 86.5t-16 101.5
t31.5 90t70 62.5t93.5 26.5t98 -23t74.5 -66t31 -90t-19.5 -97.5zM781 743q-8 31 -39 39q-47 22 -86 -15q-16 -8 -23 -27.5t-3 -43t23 -43t42.5 -23.5t43 3.5t27.5 23.5q38 39 15 86zM1907 289h-586v149h586v-149z" />
</svg>
