<?xml version="1.0" standalone="no"?>
<!DOCTYPE svg PUBLIC "-//W3C//DTD SVG 1.1//EN" "http://www.w3.org/Graphics/SVG/1.1/DTD/svg11.dtd" >
<svg xmlns="http://www.w3.org/2000/svg" xmlns:xlink="http://www.w3.org/1999/xlink" version="1.1" width="2048" height="2048" viewBox="-10 0 2067 2048">
   <path fill="currentColor"
d="M268 2048q-110 0 -184 -73.5t-82 -171.5t54 -176q273 -296 773 -781q-39 -109 -39 -226t47 -226q78 -188 242 -290q133 -86 293 -101t301 47l94 39l-422 437l179 180l437 -422l39 94q47 116 47 241.5t-47 242.5t-133 203q-47 47 -108 85q-125 86 -269.5 102t-285.5 -39
q-531 539 -781 773q-70 62 -155 62zM1422 136q-140 0 -265 86q-47 23 -86 62q-109 110 -136 258t35 288l24 47l-32 32q-531 516 -804 804q-23 39 -19 82t31 70t50.5 34.5t54.5 7.5t54 -23q235 -210 805 -795l39 -32l39 16q117 55 242 43t234 -82q47 -23 85 -63
q70 -70 105.5 -159.5t35.5 -191.5q0 -47 -8 -94l-382 375l-375 -375l375 -382q-47 -8 -102 -8z" />
</svg>
