<?xml version="1.0" standalone="no"?>
<!DOCTYPE svg PUBLIC "-//W3C//DTD SVG 1.1//EN" "http://www.w3.org/Graphics/SVG/1.1/DTD/svg11.dtd" >
<svg xmlns="http://www.w3.org/2000/svg" xmlns:xlink="http://www.w3.org/1999/xlink" version="1.1" width="2048" height="2048" viewBox="-10 0 2058 2048">
   <path fill="currentColor"
d="M1543 0l87 31l305 727l-32 86l-484 203l-86 -31l-23 -62l-525 219l-78 -32l-24 -54l-374 156l-86 -39l-110 -243l39 -86l367 -156l-22 -63l30 -78l524 -226l-23 -63l39 -86zM262 969l47 125l328 -133l-55 -125zM660 656l164 360l439 -188l-157 -352zM1184 289l274 602
l336 -149l-257 -601l-360 148h7zM1137 1188l447 712h-173l-274 -438v586h-148v-758l-274 610h-165l251 -571z" />
</svg>
