<?xml version="1.0" standalone="no"?>
<!DOCTYPE svg PUBLIC "-//W3C//DTD SVG 1.1//EN" "http://www.w3.org/Graphics/SVG/1.1/DTD/svg11.dtd" >
<svg xmlns="http://www.w3.org/2000/svg" xmlns:xlink="http://www.w3.org/1999/xlink" version="1.1" width="2048" height="2048" viewBox="-10 0 2068 2048">
   <path fill="currentColor"
d="M651 1913q-62 0 -116.5 -43t-74 -109t11.5 -137l141 -319h-406q-55 8 -102 -16t-73.5 -67t-30.5 -97t18 -101q274 -577 336 -757q23 -54 74 -89.5t114 -42.5h1303q85 8 143.5 66t58.5 144v514q0 78 -58.5 137t-143.5 59h-196l-858 803q-63 55 -141 55zM543 282
q-39 0 -55 39q-86 242 -336 765q-16 31 0 59t55 20h483l71 93v70l-156 359q-8 16 -4 35.5t20 31t35 11.5t34 -15l891 -812l69 -24h196q23 0 42 -15.5t19 -39.5v-514q0 -23 -19 -43t-42 -20h-1303z" />
</svg>
