<?xml version="1.0" standalone="no"?>
<!DOCTYPE svg PUBLIC "-//W3C//DTD SVG 1.1//EN" "http://www.w3.org/Graphics/SVG/1.1/DTD/svg11.dtd" >
<svg xmlns="http://www.w3.org/2000/svg" xmlns:xlink="http://www.w3.org/1999/xlink" version="1.1" width="2048" height="2048" viewBox="-10 0 2068 2048">
   <path fill="currentColor"
d="M1397 135q62 8 116.5 47t74 105t-11.5 136l-141 320h406q55 -8 102 19.5t73.5 70t30.5 93.5t-18 98q-274 577 -336 757q-23 54 -74 93t-114 39h-1303q-85 -8 -143.5 -66t-58.5 -144v-516q0 -77 58.5 -135.5t143.5 -58.5h204l850 -804q63 -46 141 -54zM1505 1765
q39 0 55 -39q86 -243 343 -765q8 -31 -7.5 -58.5t-54.5 -19.5h-476l-78 -93v-70l156 -359q8 -16 4 -35.5t-20 -31.5t-35 -12t-34 16l-891 812l-69 23h-196q-23 0 -42 16t-13 38v516q-8 23 12 42.5t43 19.5h1303z" />
</svg>
