<?xml version="1.0" standalone="no"?>
<!DOCTYPE svg PUBLIC "-//W3C//DTD SVG 1.1//EN" "http://www.w3.org/Graphics/SVG/1.1/DTD/svg11.dtd" >
<svg xmlns="http://www.w3.org/2000/svg" xmlns:xlink="http://www.w3.org/1999/xlink" version="1.1" width="2048" height="2048" viewBox="-10 0 2068 2048">
   <path fill="currentColor"
d="M2017 362l-116 -24l-305 304l-179 -180l305 -311l-24 -116q-102 -31 -207 -31t-206 42.5t-179 120.5t-121 183.5t-43 218.5t39 213q-452 452 -895 912q-47 62 -43 143.5t65 136.5q31 31 66.5 50.5t74.5 19.5q69 0 125 -54q163 -148 444 -437q265 -257 467 -466
q101 46 210 46t210.5 -43t179 -125t120.5 -182.5t43 -209.5t-31 -211zM288 1889q-8 8 -23 8h-16q-16 0 -23.5 -4t-19 -20t-19.5 -39.5t0 -38.5q328 -342 872 -888q23 31 47 58.5t54 50.5q-569 584 -872 873zM1908 564q8 179 -116.5 300t-296.5 121t-288 -117
q-93 -94 -116.5 -218.5t23.5 -240.5q30 -78 89 -140.5t136.5 -93.5t156.5 -31h39l-265 273v100l273 273h100l265 -265v39zM334 829h219l109 109l93 -101l-93 -102l8 -241l-31 -62l-421 -281l-86 16l-116 116l-16 94l273 421zM195 299l334 226v163h-155l-219 -342zM1230 1319
l101 -100l452 467q63 62 63 147.5t-63 148.5q-46 47 -104.5 58.5t-121.5 -11.5q-38 -16 -61 -47l-460 -468l102 -101l451 468q16 16 35 23t38.5 0t27.5 -19t12 -23.5t4 -27.5t-4 -27.5t-12 -19.5z" />
</svg>
