<?xml version="1.0" standalone="no"?>
<!DOCTYPE svg PUBLIC "-//W3C//DTD SVG 1.1//EN" "http://www.w3.org/Graphics/SVG/1.1/DTD/svg11.dtd" >
<svg xmlns="http://www.w3.org/2000/svg" xmlns:xlink="http://www.w3.org/1999/xlink" version="1.1" width="2048" height="2048" viewBox="-10 0 2068 2048">
   <path fill="currentColor"
d="M2048 387q-39 63 -93.5 117.5t-117.5 101.5l8 55q0 125 -27.5 245.5t-82.5 238.5q-70 164 -183 297t-254 227t-309 141t-344.5 47t-340 -47t-304.5 -141q164 16 328.5 -27t288.5 -153q-94 0 -183.5 -47t-144.5 -125q-39 -55 -62 -117l39 7q78 8 149 -15q-70 -16 -133 -51
t-110 -98q-94 -109 -94 -265q94 47 196 47q-86 -55 -141 -149q-23 -47 -39 -94q-23 -110 7 -211q8 -55 40 -102q78 94 180 172q196 164 437 227q125 31 250 40l-7 -47v-47q0 -94 31 -165q63 -164 227 -227q78 -31 164 -31t164 35t140 98q141 -31 267 -102q-47 149 -188 227
q125 -7 242 -62z" />
</svg>
