<?xml version="1.0" standalone="no"?>
<!DOCTYPE svg PUBLIC "-//W3C//DTD SVG 1.1//EN" "http://www.w3.org/Graphics/SVG/1.1/DTD/svg11.dtd" >
<svg xmlns="http://www.w3.org/2000/svg" xmlns:xlink="http://www.w3.org/1999/xlink" version="1.1" width="2048" height="2048" viewBox="-10 0 2064 2048">
   <path fill="currentColor"
d="M971 2048h106l260 -260h365l82 -82v-365l260 -260v-114l-260 -260v-374l-74 -73h-373l-260 -260h-106l-252 260h-381l-83 82v365l-251 260v114l251 260v365l83 82h381zM744 1634h-334v-325l-16 -58l-236 -227l228 -227l24 -58v-325h334l48 -23l228 -229l236 229l48 23
h325v325l24 58l236 227l-236 227l-24 58v325h-325l-57 23l-227 229l-228 -229zM963 739q-17 24 -24 49l-8 49h-139v-8q9 -73 33 -130q16 -24 32 -49t45 -41t65 -28t77 -12q65 0 109.5 20.5t77.5 52.5t45 77t12 93.5t-16 85.5t-36.5 69.5t-45.5 64.5l-49 57
q-16 24 -32.5 48.5t-16.5 49.5v73h-138v-81q0 -41 17 -73.5t40 -57.5l90 -113q24 -24 36.5 -57t12.5 -61.5t-9 -52.5q-8 -16 -20 -32t-29 -25q-23 -16 -47.5 -16t-49 16t-32.5 32zM1092 1479h-129v-130h129v130z" />
</svg>
