<?xml version="1.0" standalone="no"?>
<!DOCTYPE svg PUBLIC "-//W3C//DTD SVG 1.1//EN" "http://www.w3.org/Graphics/SVG/1.1/DTD/svg11.dtd" >
<svg xmlns="http://www.w3.org/2000/svg" xmlns:xlink="http://www.w3.org/1999/xlink" version="1.1" width="2048" height="2048" viewBox="-10 0 2069 2048">
   <path fill="currentColor"
d="M65 66h1778l65 72v751q-58 -52 -137 -80v-606h-1633v1232h677q0 226 139 408h-546v-138h407v-131h-750l-65 -74v-1362zM1194 984q124 -88 270 -95.5t277 54.5t215 186t91.5 269.5t-58.5 277t-186 215t-265.5 91t-277 -58t-211.5 -185.5t-91 -266t54.5 -277t181.5 -211z
M1486 1661l329 -430l-110 -87l-284 379l-175 -139l-88 102l234 189z" />
</svg>
