<?xml version="1.0" standalone="no"?>
<!DOCTYPE svg PUBLIC "-//W3C//DTD SVG 1.1//EN" "http://www.w3.org/Graphics/SVG/1.1/DTD/svg11.dtd" >
<svg xmlns="http://www.w3.org/2000/svg" xmlns:xlink="http://www.w3.org/1999/xlink" version="1.1" width="2048" height="2048" viewBox="-10 0 2068 2048">
   <path fill="currentColor"
d="M424 376q-31 -39 -70 -55q-69 -23 -156 -8q-55 8 -101 31l-47 24v156l31 -23q31 -23 74 -43t86 -20t63 23.5t26 70.5l-139 16q-55 8 -90.5 27.5t-59 47t-30.5 57.5q-22 78 0.5 148.5t92.5 101.5q39 16 79 16q86 0 141 -70v54h147v-382q0 -55 -12 -98t-35 -74zM330 650v38
q0 23 -6 47q-16 47 -55 66.5t-78 3.5q-16 -8 -24 -15.5t-12 -19.5t-4 -27v-32q0 -8 12 -19.5t27.5 -19.5t39.5 -8zM1065 493q-8 -47 -31.5 -90t-66.5 -70.5t-97.5 -27.5t-93.5 32q-22 16 -40 39v-359h-139v906h139v-40q23 39 71 47q16 8 47 8q55 0 98 -23.5t70 -70.5
t43 -109.5t16 -124.5t-16 -117zM940 603q0 55 -8 93.5t-23.5 62t-31.5 31.5q-47 23 -86 7l-31 -31q-16 -16 -23 -39.5t-7 -54.5v-77q8 -31 15 -62.5t19 -51t31.5 -31.5t42.5 -4q47 -8 78 39q8 16 16 51.5t8 66.5zM206 1321q23 -23 47 -35t54.5 -12t54 7.5t47.5 23.5l54 39
v-164l-15 -8q-63 -39 -133 -35t-124.5 27.5t-94 70.5t-59 105t-19.5 124.5t19.5 121.5t55 94t86.5 62.5t105 23.5t93.5 -12t70.5 -27l15 -8v-133l-46 16l-79 31q-46 8 -93 -8q-23 -16 -42.5 -39.5t-31.5 -54.5t-12 -73.5t15.5 -78t31.5 -58.5zM1907 743h-585v-140h656l70 69
v883l-70 70h-968l305 304l-110 102l-422 -422v-101l422 -430l110 110l-297 288h889v-733z" />
</svg>
