<?xml version="1.0" standalone="no"?>
<!DOCTYPE svg PUBLIC "-//W3C//DTD SVG 1.1//EN" "http://www.w3.org/Graphics/SVG/1.1/DTD/svg11.dtd" >
<svg xmlns="http://www.w3.org/2000/svg" xmlns:xlink="http://www.w3.org/1999/xlink" version="1.1" width="2048" height="2048" viewBox="-10 0 2067 2048">
   <path fill="currentColor"
d="M1612 750q8 156 -42.5 303.5t-143.5 271.5l621 615l-108 108l-615 -622q-217 179 -496.5 187t-501.5 -159.5t-295.5 -435.5t35 -524t353.5 -392t521 -90t463 252t209 486zM812 1465q132 0 252 -50.5t214 -144.5l-8 8q93 -93 147.5 -213t54.5 -252q0 -179 -89 -331
t-240.5 -241.5t-330.5 -89.5t-327 89.5t-237.5 241.5t-89.5 326.5t89.5 326t237.5 241t327 89.5zM1169 882v-148h-288v-287h-148v287h-295v148h295v288h148v-288h288z" />
</svg>
