<?xml version="1.0" standalone="no"?>
<!DOCTYPE svg PUBLIC "-//W3C//DTD SVG 1.1//EN" "http://www.w3.org/Graphics/SVG/1.1/DTD/svg11.dtd" >
<svg xmlns="http://www.w3.org/2000/svg" xmlns:xlink="http://www.w3.org/1999/xlink" version="1.1" width="2048" height="2048" viewBox="-10 0 2068 2048">
   <path fill="currentColor"
d="M148 215l-148 148v1321l148 149h1759l141 -149v-1321l-141 -148h-1759zM148 1684v-1321h1759v1321h-1759zM633 1231h101v-250q0 -180 -140 -180q-30 0 -65.5 11.5t-60.5 27.5v94q55 -39 113.5 -39t58.5 70l-92 8q-110 23 -110 148q0 55 27.5 90.5t73.5 35.5q63 0 94 -71
v55zM640 1035v32q0 31 -19.5 58.5t-43 27.5t-35 -16t-11.5 -31q0 -55 47 -63l55 -8h7zM969 1192h-8v47h-86v-579h86l8 242q31 -70 86 -70t86.5 54.5t31.5 148.5t-35.5 153t-90.5 59t-78 -55zM961 1028v39q0 31 16 58.5t43 27.5t43 -31.5t16 -86t-12 -82t-39 -27.5t-47 31.5
t-20 70.5zM1500 1247q70 0 110 -24v-109q-38 31 -81 31t-70.5 -31.5t-27.5 -86t27.5 -90t74.5 -35.5t77 32v-110q-30 -23 -93 -16q-86 -8 -141 55t-55 164.5t51 160.5t128 59z" />
</svg>
