<?xml version="1.0" standalone="no"?>
<!DOCTYPE svg PUBLIC "-//W3C//DTD SVG 1.1//EN" "http://www.w3.org/Graphics/SVG/1.1/DTD/svg11.dtd" >
<svg xmlns="http://www.w3.org/2000/svg" xmlns:xlink="http://www.w3.org/1999/xlink" version="1.1" width="2048" height="2048" viewBox="-10 0 2068 2048">
   <path fill="currentColor"
d="M0 679v-653h244v410q139 -166 348 -262t445 -96q253 0 479.5 118.5t365.5 318.5t157 444l9 43h-253v-34q-18 -175 -122.5 -323t-274 -235.5t-370 -87.5t-379 96.5t-274.5 260.5h462v244h-680l-157 -155v-89zM1020 2022q-140 0 -231.5 -92t-91.5 -231t91.5 -234.5
t231 -95.5t235 95.5t95.5 234.5t-95.5 231t-234.5 92z" />
</svg>
