<?xml version="1.0" standalone="no"?>
<!DOCTYPE svg PUBLIC "-//W3C//DTD SVG 1.1//EN" "http://www.w3.org/Graphics/SVG/1.1/DTD/svg11.dtd" >
<svg xmlns="http://www.w3.org/2000/svg" xmlns:xlink="http://www.w3.org/1999/xlink" version="1.1" width="2048" height="2048" viewBox="-10 0 2069 2048">
   <path fill="currentColor"
d="M1688 1220q-39 -16 -82 -20t-81.5 15.5t-66 39t-50.5 51.5l-47 47l-40 31q-23 23 -54.5 19.5t-46.5 -27.5l-321 -305q-86 -86 -172 -180q-31 -39 -55 -70.5t-28 -51t20 -42.5l31 -40l55 -47q23 -23 47 -50.5t35.5 -62t11.5 -81.5q0 -94 -63 -165q-39 -39 -82 -86t-90 -90
t-98 -74t-112 -31q-94 0 -157 62l-109 110q-39 47 -74.5 98t-47 117.5t-11.5 143.5q0 117 39 250t105.5 262.5t160.5 254.5t203 234t234 207t258.5 164.5t262.5 105.5t254 39q77 0 143.5 -15.5t117.5 -47t98 -70.5l110 -109q63 -63 62 -157q0 -39 -11.5 -77.5t-35.5 -71.5
l-54 -61l-63 -63l-117 -109q-32 -31 -79 -47zM1633 1892q-55 16 -116 8q-110 0 -227 -35.5t-227 -90.5q-243 -141 -446 -343q-102 -102 -187.5 -211.5t-148 -227t-98 -235t-35.5 -234.5q-8 -55 8 -109t39.5 -89.5t62.5 -74.5l86 -78q23 -31 55 -31q16 0 47 23l55 47
q77 63 132 133l47 55q23 31 23 50t-16 44l-86 85q-31 23 -50.5 50.5t-34.5 66.5t-15 82.5t15 82.5t54 78l540 540q70 69 164 69q39 0 79 -14q70 -31 117 -86l47 -47q16 -23 39.5 -39t42.5 -16t50 23l55 47l70 63q39 31 63 69l47 63q23 23 23 39q0 31 -31 55l-78 86
q-39 31 -78.5 58.5t-86.5 43.5zM2048 101l-680 680h485v149h-735v-735h149v485l680 -680z" />
</svg>
