<?xml version="1.0" standalone="no"?>
<!DOCTYPE svg PUBLIC "-//W3C//DTD SVG 1.1//EN" "http://www.w3.org/Graphics/SVG/1.1/DTD/svg11.dtd" >
<svg xmlns="http://www.w3.org/2000/svg" xmlns:xlink="http://www.w3.org/1999/xlink" version="1.1" width="2048" height="2048" viewBox="-10 0 2068 2048">
   <path fill="currentColor"
d="M1118 828l680 -687h-477v-141h727v727h-141v-477l-687 680zM1602 1204q94 0 165 63l117 109l63 63l54 61q23 31 35 70.5t12 78.5q0 94 -62 157l-110 109q-39 39 -94 70.5t-121.5 47t-143.5 15.5q-125 0 -258 -39t-262.5 -109.5t-254.5 -164.5t-234 -203t-203 -234
t-160.5 -254.5t-105.5 -258.5t-39 -254q0 -85 11.5 -147.5t43 -113.5t78.5 -98l109 -110q63 -63 157 -62q55 0 109 31t105 74t90 94t78 82q63 70 63 165q0 39 -11.5 73.5t-35 66t-47.5 54.5l-55 47l-31 40q-16 23 -16 42.5t23.5 51t55.5 70.5q86 94 172 180l321 305
q16 23 47 27.5t54 -19.5l40 -31l47 -47q23 -31 54.5 -51t66 -39.5t73.5 -11.5zM1517 1900q69 0 116 -12t86.5 -35.5t78.5 -62.5l78 -86q31 -23 24 -55q8 -16 -16 -39l-47 -63q-23 -38 -63 -69l-70 -63l-55 -47q-31 -23 -50 -23t-42.5 15.5t-39.5 39.5l-47 47
q-23 31 -50.5 50.5t-66.5 34.5t-79 15q-94 0 -164 -69l-540 -540q-39 -31 -54 -74t-15 -90t15 -82.5t34.5 -63t47 -51t50.5 -46.5l39 -38q16 -23 16 -43t-23 -51l-47 -55l-63 -70l-69 -63l-55 -47q-31 -23 -47 -23q-31 0 -55 31l-86 78q-31 31 -58.5 74.5t-39.5 93.5
t-19 105q8 110 43 231t97.5 238.5t148 227t187.5 211.5q203 202 446 336q110 63 227 98t227 35z" />
</svg>
