<?xml version="1.0" standalone="no"?>
<!DOCTYPE svg PUBLIC "-//W3C//DTD SVG 1.1//EN" "http://www.w3.org/Graphics/SVG/1.1/DTD/svg11.dtd" >
<svg xmlns="http://www.w3.org/2000/svg" xmlns:xlink="http://www.w3.org/1999/xlink" version="1.1" width="2048" height="2048" viewBox="-10 0 2068 2048">
   <path fill="currentColor"
d="M961 1329q94 39 180 105t141 154q125 179 126 398v62h-126v-62q0 -117 -43 -223t-125 -184.5t-187.5 -124.5t-223 -46t-223 43t-183.5 124.5t-125 187t-47 223.5v62h-125v-62q0 -219 125 -398.5t321 -258.5q-39 -31 -78.5 -70t-63 -90t-35 -102t-11.5 -106q0 -94 31 -180
q70 -164 242 -233q78 -39 172 -40t172 40q172 69 243 233q55 141 23 290q-16 47 -43 94t-58.5 90t-78.5 74zM703 1282q63 0 125 -23q117 -55 173 -172q23 -63 23 -126q0 -133 -94 -227q-47 -47 -105.5 -70.5t-121.5 -23.5t-125 24q-116 55 -171 172q-23 55 -23.5 121.5
t23 125t69.5 105.5q94 94 227 94zM2048 0v1024h-258l-382 384v-384h-126v-125h259v203l202 -203h180v-774h-1283v235l-62 8q-38 8 -71 15v-383h1541z" />
</svg>
