<?xml version="1.0" standalone="no"?>
<!DOCTYPE svg PUBLIC "-//W3C//DTD SVG 1.1//EN" "http://www.w3.org/Graphics/SVG/1.1/DTD/svg11.dtd" >
<svg xmlns="http://www.w3.org/2000/svg" xmlns:xlink="http://www.w3.org/1999/xlink" version="1.1" width="2048" height="2048" viewBox="-10 0 2068 2048">
   <path fill="currentColor"
d="M2048 1024q0 -280 -136.5 -515.5t-372 -372t-515.5 -136.5t-515.5 136.5t-372 372t-136.5 515.5q0 225 95.5 430t266.5 348l89 69q259 177 573 177t573 -177l96 -69q164 -143 259.5 -348t95.5 -430zM1024 1918q-280 0 -512 -164l7 -47q20 -68 54.5 -126.5t82 -106
t102 -81.5t126.5 -51.5t140 -17.5q102 0 201 37.5t171 109.5t113 167q20 55 34 116q-232 164 -519 164zM710 969q-27 -61 -27 -129.5t27 -129.5t71.5 -105.5t106 -75.5t136.5 -31t133 27.5t106 75.5t75 109t27 133t-27 130t-75 105.5t-109 75.5q-130 55 -267 0
q-55 -27 -102.5 -75.5t-74.5 -109.5zM1659 1652v-7v-7q-27 -96 -85 -177.5t-140 -142.5q-61 -48 -137 -82q34 -20 62 -48q48 -48 81 -103q68 -109 62 -245q7 -96 -30.5 -184.5t-106 -157t-157 -102.5t-187.5 -34t-188 34t-154 102.5t-102.5 157t-37.5 184.5q0 68 20.5 133
t48 112.5t81.5 102.5q27 27 62 54q-68 27 -130 76q-82 61 -140 143t-92 184v7q-123 -123 -191 -287t-68 -341q0 -246 119.5 -450.5t324 -324t450.5 -119.5t450.5 119.5t324 324t119.5 450.5q0 177 -64.5 341t-194.5 287z" />
</svg>
