<?xml version="1.0" standalone="no"?>
<!DOCTYPE svg PUBLIC "-//W3C//DTD SVG 1.1//EN" "http://www.w3.org/Graphics/SVG/1.1/DTD/svg11.dtd" >
<svg xmlns="http://www.w3.org/2000/svg" xmlns:xlink="http://www.w3.org/1999/xlink" version="1.1" width="2048" height="2048" viewBox="-10 0 2058 2048">
   <path fill="currentColor"
d="M1685 1157q23 149 54 251l94 249l-78 102h-508q0 117 -90 203t-207 86q-63 0 -117.5 -23.5t-85.5 -62.5q-86 -86 -87 -203h-515l-71 -102l87 -249q31 -117 39 -181q16 -94 15 -172v-328q0 -171 59 -292.5t176 -246.5q102 -102 265 -149q110 -39 235 -39q-31 39 -86 156
q-63 0 -102 32q-110 23 -210 117q-39 31 -82 86t-59 102q-47 116 -47 234v328q0 86 -16 196q-16 63 -39 196l-62 163h1406l-53 -163q-31 -78 -55 -243l-8 -31q102 0 148 -16zM950 1900q23 0 50.5 -8t51.5 -32q47 -47 47 -101h-298q0 55 47 101q23 23 51 31.5t51 8.5z
M1974 438q0 179 -129 308t-308.5 129t-308.5 -129t-129 -308.5t129 -308.5t308.5 -129t308.5 129t129 309z" />
</svg>
