<?xml version="1.0" standalone="no"?>
<!DOCTYPE svg PUBLIC "-//W3C//DTD SVG 1.1//EN" "http://www.w3.org/Graphics/SVG/1.1/DTD/svg11.dtd" >
<svg xmlns="http://www.w3.org/2000/svg" xmlns:xlink="http://www.w3.org/1999/xlink" version="1.1" width="2048" height="2048" viewBox="-10 0 2068 2048">
   <path fill="currentColor"
d="M557 263l66 -74h283l66 74v1528l-66 68h-283l-66 -68v-1528zM697 329v1396h134v-1396h-134zM1135 382l44 -90l260 -96l89 38l520 1439l-37 89l-260 97l-89 -38zM1291 397l474 1305l134 -44l-481 -1306zM0 263l66 -74h283l66 74v1528l-66 68h-283l-66 -68v-1528zM140 329
v1396h134v-1396h-134z" />
</svg>
