<?xml version="1.0" standalone="no"?>
<!DOCTYPE svg PUBLIC "-//W3C//DTD SVG 1.1//EN" "http://www.w3.org/Graphics/SVG/1.1/DTD/svg11.dtd" >
<svg xmlns="http://www.w3.org/2000/svg" xmlns:xlink="http://www.w3.org/1999/xlink" version="1.1" width="2048" height="2048" viewBox="-10 0 2068 2048">
   <path fill="currentColor"
d="M705 465l-102 -90q178 -116 387 -126t393.5 85.5t294.5 270.5t117 387l158 -150l95 95l-267 267h-102l-268 -274l103 -95l158 157q-7 -164 -96.5 -308t-240 -226.5t-318.5 -79t-312 86.5zM1287 1608l104 90q-178 96 -377 92.5t-370 -103t-274 -267.5t-110 -366l-158 157
l-102 -95l267 -268h96l274 274l-103 96l-151 -150q14 157 96.5 290.5t216 212.5t291 89t300.5 -52zM143 368l90 -88l1527 1425l-88 95z" />
</svg>
