<?xml version="1.0" standalone="no"?>
<!DOCTYPE svg PUBLIC "-//W3C//DTD SVG 1.1//EN" "http://www.w3.org/Graphics/SVG/1.1/DTD/svg11.dtd" >
<svg xmlns="http://www.w3.org/2000/svg" xmlns:xlink="http://www.w3.org/1999/xlink" version="1.1" width="2048" height="2048" viewBox="-10 0 2068 2048">
   <path fill="currentColor"
d="M1024 28q-280 0 -515.5 136t-372 372t-136.5 516q0 217 88.5 415.5t246 342t361.5 210.5q34 0 51.5 -13t17.5 -41v-170q-96 19 -171 0q-61 -14 -109 -48q-27 -28 -48 -62l-21 -26q-14 -56 -41 -90t-47 -54l-21 -8q-61 -40 -34 -60q14 -8 41 -8q41 8 78.5 32t58.5 50
l20 28q61 102 157 110q68 7 137 -22q7 -82 61 -136q-205 -26 -314 -116q-150 -130 -150 -396q0 -157 109 -274q-48 -130 14 -266h27q41 0 96 22q68 26 157 88q102 -35 259 -34q116 0 253 34q123 -83 211 -102q48 -14 68 -8q55 131 21 266l-7 8q109 115 109 272
q0 266 -150 390q-102 89 -314 116q27 20 47.5 68t20.5 116v280q0 28 17.5 41t51.5 13q205 -67 365 -214t245.5 -344.5t85.5 -409.5q0 -281 -140 -516.5t-375.5 -371.5t-508.5 -136z" />
</svg>
