<?xml version="1.0" standalone="no"?>
<!DOCTYPE svg PUBLIC "-//W3C//DTD SVG 1.1//EN" "http://www.w3.org/Graphics/SVG/1.1/DTD/svg11.dtd" >
<svg xmlns="http://www.w3.org/2000/svg" xmlns:xlink="http://www.w3.org/1999/xlink" version="1.1" width="2048" height="2048" viewBox="-10 0 2068 2048">
   <path fill="currentColor"
d="M70 70h1908l70 78v954h-141v-445h-1759v1032h1025v141h-1103l-70 -71v-1611zM148 516h1759v-298h-1759v298zM875 1540v-164q-39 -8 -70 -32l-133 79l-78 -133l140 -79q-8 -39 0 -78l-140 -78l78 -124l133 78q39 -31 70 -39v-165h149v165q39 8 70 39l141 -78l71 124
l-141 78q8 39 0 78l141 79l-71 133l-141 -86q-31 31 -70 39v164h-149zM844 1172q0 47 31.5 78.5t74.5 31.5t78 -31.5t35 -78.5t-35 -77.5t-78 -30.5t-78.5 30.5t-27.5 77.5zM1626 1978v-156q-38 -16 -71 -39l-140 78l-70 -125l133 -86q-8 -39 0 -79l-133 -78l70 -125l140 78
q31 -23 71 -39v-164h141v164q39 16 70 39l141 -78l70 125l-133 78q8 39 0 79l133 86l-70 125l-141 -78q-31 23 -70 39v156h-141zM1588 1610q0 47 30.5 82.5t77.5 35.5t78.5 -35.5t31.5 -78.5t-31.5 -78t-78.5 -35t-77.5 35t-30.5 74z" />
</svg>
