<?xml version="1.0" standalone="no"?>
<!DOCTYPE svg PUBLIC "-//W3C//DTD SVG 1.1//EN" "http://www.w3.org/Graphics/SVG/1.1/DTD/svg11.dtd" >
<svg xmlns="http://www.w3.org/2000/svg" xmlns:xlink="http://www.w3.org/1999/xlink" version="1.1" width="2048" height="2048" viewBox="-10 0 2058 2048">
   <path fill="currentColor"
d="M754 269h547v139h-547v-139zM754 1093h547v132h-547v-132zM754 1362h547v139h-547v-139zM2001 2048h-1954l175 -686h255v-1231q0 -21 11 -47t29.5 -44.5t43.5 -29t55 -10.5h816q29 0 54.5 10.5t44 29t29.5 44t11 54.5v1224h255zM616 1640h816v-1509h-816v1509zM1826 1909
l-103 -408h-152v270h-1094v-270h-152l-103 408h1604z" />
</svg>
