<?xml version="1.0" standalone="no"?>
<!DOCTYPE svg PUBLIC "-//W3C//DTD SVG 1.1//EN" "http://www.w3.org/Graphics/SVG/1.1/DTD/svg11.dtd" >
<svg xmlns="http://www.w3.org/2000/svg" xmlns:xlink="http://www.w3.org/1999/xlink" version="1.1" width="2048" height="2048" viewBox="-10 0 2058 2048">
   <path fill="currentColor"
d="M1124 4q171 8 330.5 85.5t284.5 201.5q295 320 296 748q0 336 -234 638q-116 140 -264 229.5t-320 121.5q-374 69 -677 -102q-156 -85 -272.5 -217.5t-178.5 -296t-74 -342.5t43 -342q116 -358 413 -553q140 -93 307 -140t346 -31zM1202 1888q295 -70 490 -312
q195 -264 179 -553q0 -179 -66 -342.5t-183 -287.5q-226 -226 -521 -249q-148 -8 -296 27t-265 120q-248 187 -337.5 491t38.5 584t393 428q124 78 271.5 101t296.5 -7zM750 588l109 -63l654 436v125l-654 436l-109 -63v-871zM890 720v607l452 -304z" />
</svg>
