<?xml version="1.0" standalone="no"?>
<!DOCTYPE svg PUBLIC "-//W3C//DTD SVG 1.1//EN" "http://www.w3.org/Graphics/SVG/1.1/DTD/svg11.dtd" >
<svg xmlns="http://www.w3.org/2000/svg" xmlns:xlink="http://www.w3.org/1999/xlink" version="1.1" width="2048" height="2048" viewBox="-10 0 2068 2048">
   <path fill="currentColor"
d="M206 413l122 130l-84 83l-244 -236v-92l244 -237l84 92l-114 114h1834v146h-1842zM474 1927v-1308l68 -61h291l68 61v1308l-68 60h-291zM764 1857v-1169h-145v1169h145zM1047 1635v-1016l68 -61h291l69 61v1016l-69 70h-291zM1337 1575v-895h-144v895h144zM1620 619v734
l69 61h291l68 -61v-734l-68 -61h-291zM1910 680v612h-144v-612h144z" />
</svg>
