<?xml version="1.0" standalone="no"?>
<!DOCTYPE svg PUBLIC "-//W3C//DTD SVG 1.1//EN" "http://www.w3.org/Graphics/SVG/1.1/DTD/svg11.dtd" >
<svg xmlns="http://www.w3.org/2000/svg" xmlns:xlink="http://www.w3.org/1999/xlink" version="1.1" width="2048" height="2048" viewBox="-10 0 2068 2048">
   <path fill="currentColor"
d="M1024 70q-282 0 -516 137t-371 371.5t-137 515.5v735l148 149h438l148 -149v-735q0 -117 86.5 -203t203.5 -86t207 86t90 203v735l141 149h445l141 -149v-735q0 -282 -137 -516t-371 -371t-516 -137zM586 1829h-438v-437h438v437zM1907 1829h-445v-437h445v437z
M1462 1243v-149q0 -188 -125 -313t-305 -125t-309 121.5t-137 293.5v172h-438v-149q0 -235 117.5 -437.5t320.5 -320t438 -117.5t438 117.5t324 320.5t121 437v149h-445z" />
</svg>
