<?xml version="1.0" standalone="no"?>
<!DOCTYPE svg PUBLIC "-//W3C//DTD SVG 1.1//EN" "http://www.w3.org/Graphics/SVG/1.1/DTD/svg11.dtd" >
<svg xmlns="http://www.w3.org/2000/svg" xmlns:xlink="http://www.w3.org/1999/xlink" version="1.1" width="2048" height="2048" viewBox="-10 0 2058 2048">
   <path fill="currentColor"
d="M222 0h1020v47q0 85 -35 159t-112 128v421q69 31 120 74t82 89q-70 23 -133 63q-69 -77 -163 -109l-47 -15v-600l39 -31q23 -8 39 -24l31 -39q16 -23 24 -47h-709q16 31 23 47q31 39 70 63l46 31v600l-53 15q-86 30 -149 101q-30 31 -57.5 90t-35.5 105h732
q-38 55 -70 117h-78v467l-70 148l-78 -148v-467h-584v-70q0 -77 23 -144t55 -129q78 -124 218 -187v-421q-69 -54 -108.5 -128t-39.5 -159v-47zM1313 1230q54 -31 108.5 -43t112.5 -15.5t121 19.5q109 23 191 105t112 199q16 54 16 112.5t-16 121.5q-30 109 -112 190.5
t-191 112.5q-63 16 -121 16t-113 -16q-109 -31 -194 -112.5t-117 -190.5q-16 -63 -12 -121.5t12 -112.5q38 -125 132 -210q32 -32 71 -55z" />
</svg>
