<?xml version="1.0" standalone="no"?>
<!DOCTYPE svg PUBLIC "-//W3C//DTD SVG 1.1//EN" "http://www.w3.org/Graphics/SVG/1.1/DTD/svg11.dtd" >
<svg xmlns="http://www.w3.org/2000/svg" xmlns:xlink="http://www.w3.org/1999/xlink" version="1.1" width="2048" height="2048" viewBox="-10 0 2068 2048">
   <path fill="currentColor"
d="M1259 180q-117 -39 -234.5 -39t-235.5 39q-110 23 -211 86q-195 117 -312 312q-63 102 -94 215.5t-27.5 234.5t27.5 231q63 219 227 390q86 78 183.5 137t211 90t234.5 27.5t230.5 -31t211.5 -90.5q195 -117 312 -312q63 -102 86 -211q39 -117 35.5 -238.5t-35.5 -231.5
q-23 -110 -86 -211q-55 -93 -141 -171q-78 -86 -171 -141q-102 -63 -211 -86zM1907 1541q-133 234 -366 366q-117 70 -246.5 105.5t-270.5 35.5t-270 -35t-246 -101.5t-211 -160.5t-160.5 -211t-101.5 -246t-35 -270t35 -270t106 -247q133 -234 366 -366
q117 -70 246.5 -105.5t270.5 -35.5t274 31q257 78 449 270t270 449q31 133 31 274t-35.5 270.5t-105.5 246.5z" />
</svg>
