<?xml version="1.0" standalone="no"?>
<!DOCTYPE svg PUBLIC "-//W3C//DTD SVG 1.1//EN" "http://www.w3.org/Graphics/SVG/1.1/DTD/svg11.dtd" >
<svg xmlns="http://www.w3.org/2000/svg" xmlns:xlink="http://www.w3.org/1999/xlink" version="1.1" width="2048" height="2048" viewBox="-10 0 2068 2048">
   <path fill="currentColor"
d="M65 69l-65 66v407l65 74h408l74 -74v-407l-74 -66h-408zM138 477v-276h270v276h-270zM65 747l-65 73v408l65 66h408l74 -66v-408l-74 -73h-408zM138 1163v-278h270v278h-270zM0 1506l65 -74h408l74 74v407l-74 66h-408l-65 -66v-407zM138 1571v270h270v-270h-270z
M1566 616l-65 65v825l65 65h417l65 -65v-825l-65 -65h-417zM1909 1024h-269v-277h269v277zM1909 1432h-269v-269h269v269zM1107 1024h-423v139h423l-137 131l94 88l248 -249v-94l-248 -248l-94 94z" />
</svg>
