<?xml version="1.0" standalone="no"?>
<!DOCTYPE svg PUBLIC "-//W3C//DTD SVG 1.1//EN" "http://www.w3.org/Graphics/SVG/1.1/DTD/svg11.dtd" >
<svg xmlns="http://www.w3.org/2000/svg" xmlns:xlink="http://www.w3.org/1999/xlink" version="1.1" width="2048" height="2048" viewBox="-10 0 2068 2048">
   <path fill="currentColor"
d="M1964 79h-1889l-75 84v1729l75 77h1889l84 -77v-1729zM159 238h1730v160h-1730v-160zM1260 868h-472v-310h472v310zM1260 1028v311h-472v-311h472zM159 558h471v310h-471v-310zM159 1028h471v311h-471v-311zM159 1817v-319h471v319h-471zM788 1817v-319h472v319h-472z
M1889 1817h-471v-319h471v319zM1889 1339h-471v-311h471v311zM1418 868v-310h471v310h-471z" />
</svg>
