<?xml version="1.0" standalone="no"?>
<!DOCTYPE svg PUBLIC "-//W3C//DTD SVG 1.1//EN" "http://www.w3.org/Graphics/SVG/1.1/DTD/svg11.dtd" >
<svg xmlns="http://www.w3.org/2000/svg" xmlns:xlink="http://www.w3.org/1999/xlink" version="1.1" width="2048" height="2048" viewBox="-10 0 2068 2048">
   <path fill="currentColor"
d="M689 1475q0 -27 24 -44.5t52 -3.5l34 27q7 7 17 7t27 -17l38 -38l75 -109l41 -89l-48 -184q-7 -20 -24 -37.5t-37.5 -27.5t-44.5 -10t-44 7v-28l184 -34q41 41 61 96l35 109l34 -55q20 -41 51 -71.5t61.5 -51t61.5 -24t51.5 10.5t20.5 41q0 55 -55 55q-20 0 -37.5 -10.5
t-38 -10.5t-41 20.5t-40.5 47.5q-34 41 -62 96l55 232q7 27 14 48l13 20q7 7 20.5 7t20.5 -7q34 -27 55 -61l20 -27l21 13q-7 20 -27.5 47.5t-44.5 51.5t-51 44.5t-47.5 20.5t-37.5 -13.5t-27.5 -34t-17.5 -41.5l-27 -136q-7 -27 -14 -48l-61 102l-41 62q-20 34 -47.5 54.5
t-51.5 37.5t-51.5 17t-48 -17t-20.5 -44zM1475 1536q48 -68 78.5 -150t30.5 -171t-31 -170.5t-78 -150.5h88q123 143 123 321q0 96 -30.5 174.5t-92.5 146.5h-88zM485 1536q-61 -61 -92 -146.5t-31 -174.5q0 -177 123 -321h88q-55 68 -82 153.5t-27 167.5q0 184 109 321h-88
zM1987 130h-1926l-61 61v1666l61 61h1926l61 -61v-1666zM1918 1789h-1788v-1147h1788v1147zM1918 512h-1788v-259h1788v259z" />
</svg>
