<?xml version="1.0" standalone="no"?>
<!DOCTYPE svg PUBLIC "-//W3C//DTD SVG 1.1//EN" "http://www.w3.org/Graphics/SVG/1.1/DTD/svg11.dtd" >
<svg xmlns="http://www.w3.org/2000/svg" xmlns:xlink="http://www.w3.org/1999/xlink" version="1.1" width="2048" height="2048" viewBox="-10 0 2058 2048">
   <path fill="currentColor"
d="M1900 1610h-258l-251 -249v-556l-78 -78h-219v-289h70l79 -70v-298l-79 -70h-288l-71 70v298l71 70h70v289h-219l-70 78v556l-251 249h-266l-70 70v298l70 70h298l70 -70v-266l250 -250h524l250 250v266l79 70h289l78 -70v-298zM946 141h148v148h-148v-148zM805 875h438
v439h-438v-439zM359 1900h-141v-141h141v141zM1830 1900h-149v-141h149v141z" />
</svg>
