<?xml version="1.0" standalone="no"?>
<!DOCTYPE svg PUBLIC "-//W3C//DTD SVG 1.1//EN" "http://www.w3.org/Graphics/SVG/1.1/DTD/svg11.dtd" >
<svg xmlns="http://www.w3.org/2000/svg" xmlns:xlink="http://www.w3.org/1999/xlink" version="1.1" width="2048" height="2048" viewBox="-10 0 2058 2048">
   <path fill="currentColor"
d="M1900 0h-438l-71 70v437l71 79h8l-445 673l-454 -673h7l79 -79v-437l-79 -70h-438l-70 70v437l70 79h258l486 728h-157l-70 78v586l70 70h586l78 -70v-586l-78 -78h-156l493 -728h250l78 -79v-437zM218 438v-297h290v297h-290zM1243 1462v438h-438v-438h438zM1830 438
h-298v-297h298v297z" />
</svg>
