<?xml version="1.0" standalone="no"?>
<!DOCTYPE svg PUBLIC "-//W3C//DTD SVG 1.1//EN" "http://www.w3.org/Graphics/SVG/1.1/DTD/svg11.dtd" >
<svg xmlns="http://www.w3.org/2000/svg" xmlns:xlink="http://www.w3.org/1999/xlink" version="1.1" width="2048" height="2048" viewBox="-10 0 2068 2048">
   <path fill="currentColor"
d="M628 533q-58 87 -153 131l-58 15v683q139 29 211 146q59 88 58 189q0 73 -21 139q-44 95 -131.5 153t-193 58t-189 -58t-123.5 -153t-22 -197t91 -174.5t174 -94.5v-691q-102 -22 -174.5 -95t-90.5 -175t22 -196.5t123.5 -153t193.5 -58.5q138 -7 243.5 95t97.5 248
q1 109 -58 189zM526 1610q-29 -51 -76.5 -80t-104.5 -29q-95 0 -157 76t-40 171q7 59 54.5 103t105.5 54.5t116 -11.5t91.5 -72.5t36.5 -105.5t-26 -106zM235 511q51 37 109 37t105.5 -29.5t77 -80t26 -109.5t-37 -106t-91.5 -72.5t-120 -11t-105.5 58t-54 102t14.5 117
t76 94.5zM1641 816h-132v-203q0 -88 -61.5 -146t-141.5 -58h-255l175 175l-103 95l-291 -291v-95l291 -292l103 94l-175 175h255q102 0 189 59t123 152q29 65 23 132v203zM1641 2047h-139v-407h-407v-139h407v-407h139v407h407v139h-407v407z" />
</svg>
