<?xml version="1.0" standalone="no"?>
<!DOCTYPE svg PUBLIC "-//W3C//DTD SVG 1.1//EN" "http://www.w3.org/Graphics/SVG/1.1/DTD/svg11.dtd" >
<svg xmlns="http://www.w3.org/2000/svg" xmlns:xlink="http://www.w3.org/1999/xlink" version="1.1" width="2048" height="2048" viewBox="-10 0 2068 2048">
   <path fill="currentColor"
d="M130 642h-130v-130h130v130zM130 894h-130v-129h130v129zM130 1154h-130v-130h130v130zM130 1406h-130v-129h130v129zM130 1666h-130v-130h130v130zM130 1789v129h-130v-129h130zM130 1918h129v130h-129v-130zM382 1918h130v130h-130v-130zM130 130h-130v-130h130v130z
M382 130h-123v-130h123v130zM512 0h130v130h-130v-130zM894 130h-123v-130h123v130zM1154 130h-130v-130h130v130zM1406 130h-123v-130h123v130zM1406 253v-123h130v123h-130zM1536 512h-130v-130h130v130zM130 382h-130v-129h130v129zM642 765l129 -123h895l129 123v1153
l-129 130h-895l-129 -130v-1153zM771 765v1153h895v-1153h-895zM1918 894h130v260h-130v-260zM1918 1277h130v259h-130v-259zM1918 1666h130v252h-130v-252zM894 1024h642v130h-642v-130z" />
</svg>
