<?xml version="1.0" standalone="no"?>
<!DOCTYPE svg PUBLIC "-//W3C//DTD SVG 1.1//EN" "http://www.w3.org/Graphics/SVG/1.1/DTD/svg11.dtd" >
<svg xmlns="http://www.w3.org/2000/svg" xmlns:xlink="http://www.w3.org/1999/xlink" version="1.1" width="2048" height="2048" viewBox="-10 0 2068 2048">
   <path fill="currentColor"
d="M991 1441q0 148 -92.5 262.5t-236.5 144t-273.5 -37t-189.5 -199.5l-133 52q74 170 240.5 262t351.5 66.5t314 -162.5t155 -321.5t-70 -347.5t-269.5 -233t-355 -22.5t-291.5 196.5v-170h-141v369l66 75h326v-141h-178q74 -126 203.5 -178t266.5 -15t222 148t85 252z
M695 110l103 -59l1250 835v118l-658 437v-163l496 -332l-1051 -703v502h-140v-635z" />
</svg>
