<?xml version="1.0" standalone="no"?>
<!DOCTYPE svg PUBLIC "-//W3C//DTD SVG 1.1//EN" "http://www.w3.org/Graphics/SVG/1.1/DTD/svg11.dtd" >
<svg xmlns="http://www.w3.org/2000/svg" xmlns:xlink="http://www.w3.org/1999/xlink" version="1.1" width="2048" height="2048" viewBox="-10 0 2058 2048">
   <path fill="currentColor"
d="M1021 0q55 0 99 7t88.5 20.5t85.5 34t89 47.5q68 41 143 75q143 55 300 69q82 7 157 6v506q0 150 -37.5 279.5t-102 249t-150 222t-191.5 194.5t-218.5 170.5t-228.5 147.5l-27 20l-34 -20q-116 -68 -232.5 -147t-218.5 -171t-191 -194.5t-154 -222t-99 -252.5t-34 -270
v-518q75 0 157 -3.5t157 -20.5t147 -48t140 -72q82 -55 170.5 -82t184.5 -27zM1854 382q-143 -7 -283.5 -47.5t-262.5 -122.5q-61 -41 -136.5 -61.5t-150.5 -20.5t-147 20.5t-133 61.5q-123 82 -263 122.5t-290 47.5v389q0 123 34 239t92 225.5t140 201.5t171 174t191 153.5
t205 133.5q109 -61 208 -129.5t191 -154t170.5 -177.5t140 -201.5t92.5 -225.5t31 -239v-389zM1499 601l-55 -48l-55 7l-552 655l-192 -266l-54 -14l-55 48l-14 48l246 348l28 14l61 6l27 -13l622 -731z" />
</svg>
