<?xml version="1.0" standalone="no"?>
<!DOCTYPE svg PUBLIC "-//W3C//DTD SVG 1.1//EN" "http://www.w3.org/Graphics/SVG/1.1/DTD/svg11.dtd" >
<svg xmlns="http://www.w3.org/2000/svg" xmlns:xlink="http://www.w3.org/1999/xlink" version="1.1" width="2048" height="2048" viewBox="-10 0 2058 2048">
   <path fill="currentColor"
d="M1021 0q55 0 99 7t88.5 20.5t85.5 34t89 47.5q68 41 143 75q143 55 294 69q89 0 163 6v506q0 150 -37.5 279.5t-102 249t-150 222t-191.5 194.5t-218.5 170.5t-228.5 147.5l-34 20l-27 -20q-116 -68 -232.5 -147t-218.5 -171t-191 -194.5t-154 -222t-99 -252.5t-34 -270
v-518q75 7 157 0t157 -24t147 -48t140 -72q82 -55 170.5 -82t184.5 -27zM1854 382q-143 -7 -283.5 -47.5t-262.5 -122.5q-61 -41 -136.5 -61.5t-150.5 -20.5t-147 20.5t-133 61.5q-123 82 -263 122.5t-290 47.5v389q0 123 34 239t92 225.5t140 201.5t171 174t191 153.5
t205 133.5q109 -61 208 -129.5t191 -154t170.5 -177.5t136.5 -201.5t92.5 -225.5t34.5 -239v-389zM1198 601q34 41 54.5 82t20.5 88.5t-17 85t-37.5 65t-47.5 47.5l-41 41q-20 20 -30.5 41t-10.5 48v41l-20 21h-89l-21 -21v-41q0 -48 17.5 -85.5t37.5 -61.5t48 -44l41 -41
q20 -27 30.5 -47.5t10.5 -44.5t-10.5 -44.5t-23.5 -41.5q-34 -34 -85.5 -34t-85.5 34q-14 20 -24 41t-10 48l-21 14h-88l-21 -14q0 -55 20.5 -99t54.5 -78t75 -48q96 -41 198 0q41 21 75 48zM959 1236l21 -21h89l20 21v88l-20 21h-89l-21 -21v-88z" />
</svg>
