<?xml version="1.0" standalone="no"?>
<!DOCTYPE svg PUBLIC "-//W3C//DTD SVG 1.1//EN" "http://www.w3.org/Graphics/SVG/1.1/DTD/svg11.dtd" >
<svg xmlns="http://www.w3.org/2000/svg" xmlns:xlink="http://www.w3.org/1999/xlink" version="1.1" width="2048" height="2048" viewBox="-10 0 2058 2048">
   <path fill="currentColor"
d="M1110 7h-48h-14l96 -7zM1636 983q19 -55 20 -96l-14 35q13 -55 14 -164v-69h-8q-7 -130 -98.5 -259.5t-201.5 -176.5q-88 -41 -208 -48t-180 20q7 -7 27.5 -10t12.5 -10q-48 7 -75 13.5t-47 20.5q-42 27 -82 41q-8 7 0 7l40 -7l-20 14h-34q-35 7 -61.5 17t-62.5 51
q0 7 14 0l14 -7l-14 20q-55 -7 -156 96q-89 82 -124 143h22q-14 34 -42 82q-34 61 -34 89l-6 82q-14 116 -14 171q0 89 26 123l-6 47l20 48h-6q13 61 26.5 75t30.5 17.5t34 20.5t45 78q-26 -7 -40 -34q0 14 16.5 44.5t37.5 64.5l-14 14q14 20 34 34l8 7q-28 -14 -8 27
q14 20 54 75l22 28l14 -14q-8 34 46 96h36q7 20 33.5 44t46.5 24l-20 27q35 7 48 21h8q19 20 60 34l-20 -28l40 35q35 41 79.5 58t92.5 23.5t82 20.5h-28q-136 -7 -184 -20q-191 -55 -362 -208.5t-266.5 -372t-81.5 -443.5q-8 -41 0 -123q0 -102 -6 -116v-14
q48 -150 94 -246v-7q14 14 34 -20l22 -34q19 -48 26 -75h14q8 -27 42 -69l74 -75q48 -41 62 -54v20q48 -41 130 -89q48 -20 136 -61l54 -21q-7 7 0 7l104 -13l-48 27q34 -7 60 0h62l-34 7l-14 7q34 7 68 -7q41 -7 82 7l-6 -21l74 27q68 20 138 55q13 0 26 -7q28 -7 62 7v7
q8 20 62 48q7 0 -28 -34q102 55 191 157t123 218q-19 -27 -20 -27v27q7 34 0 34q26 75 40 143v-6q-40 -137 -82 -198q0 14 -20 13q-13 -7 -16.5 3.5t10.5 44.5q7 14 14 7v-7l12 27q7 14 14 55l8 34q-7 0 -14 -13q-14 -20 -14 -14q7 27 17.5 47.5t10.5 27.5q-8 0 -8 20
q0 34 7.5 44.5t12.5 3.5h8l-14 28q-19 61 -14 109l-20 -55v48q7 34 -6 75q7 -41 6.5 -71.5t-14.5 -10.5q8 48 -26 116q-28 55 -28 75l-20 -27q-28 48 -25 65t-17 44q8 -14 8 -20q0 -7 6 -21q-8 0 -42 34l-46 48q-110 89 -240 106t-266 -31q0 -7 -14 -20q-122 -96 -164 -171
q-61 -102 -40 -259q13 -7 26 -48q20 -75 56 -96q26 -48 88 -88.5t137 -44t136 30.5t95 82q-61 -55 -149.5 -68.5t-170 24t-130 123t-40.5 180.5l6 -7q8 0 6 -13q0 116 72 208t177.5 129.5t202.5 -10.5v7q34 -7 54 -20l62 -55l-8 14q-19 20 -2.5 16.5t112.5 -91.5l20 -21
q8 -14 8 -27q-8 -14 6 -34l28 -21zM1048 1290zM1048 1290q0 7 20 20.5t42 27.5q74 27 198 21q-62 27 -154.5 6.5t-174.5 -75t-123 -123.5q8 0 42 34q55 68 82 76q-28 -20 -68 -76q61 68 136 103v-14zM1068 27h-14q41 0 48.5 3.5t-6.5 3.5zM1438 860q0 -41 -7 -41t-15 28
l14 20q0 7 8 -7zM1410 949q-14 48 -42 89q0 -7 -13 -10.5t-10 -17t31 -47.5q0 14 -14 27q-13 27 -13.5 30.5t27.5 -10.5l6 -6q20 -28 28 -55zM1232 1106q-34 -7 -54.5 -14t6.5 -13q48 7 82 0zM1088 34l-6 7zM816 1126l-6 28l20 27q26 41 48 61zM844 1085q13 27 26 41l8 35
l-8 -14q-19 -41 -26 -62zM1798 922l-6 13q-13 102 -54 191q46 -95 60 -204zM256 437zM256 444h14q7 0 6.5 3.5t-6.5 23.5l-28 21v-7q14 -21 14 -41zM216 608q0 27 -14 54v-13q0 -27 20 -55z" />
</svg>
