<?xml version="1.0" standalone="no"?>
<!DOCTYPE svg PUBLIC "-//W3C//DTD SVG 1.1//EN" "http://www.w3.org/Graphics/SVG/1.1/DTD/svg11.dtd" >
<svg xmlns="http://www.w3.org/2000/svg" xmlns:xlink="http://www.w3.org/1999/xlink" version="1.1" width="2048" height="2048" viewBox="-10 0 2058 2048">
   <path fill="currentColor"
d="M1706 1427q28 14 44.5 37.5t23.5 57.5l14 41q8 27 28 62l20 27q14 14 24.5 34.5t10 44t-10.5 41t-31 31t-47 20.5l-48 27q-41 20 -71.5 44t-65.5 58.5t-75 61.5q-26 14 -50.5 24t-51.5 10q-56 0 -93 -20.5t-65 -75.5l-20 -20l-28 -7l-198 -7q-48 0 -88 7l-88 14
q-7 0 -14 13l-28 35q-19 14 -46.5 27.5t-65.5 13.5t-72 -7t-68 -28q-62 -27 -124 -41l-170 -27q-19 -7 -37 -17t-28 -30.5t-9.5 -48t10.5 -54.5t10 -62l-8 -88q0 -48 24 -72t72 -37q20 -7 34 -21l34 -27l48 -62l8 -13l-8 -48q0 -68 24 -136.5t58.5 -133.5t75 -126.5
t82.5 -115.5q55 -68 85 -150t31 -178l-8 -75v-82t17 -143.5t55 -109t99 -71.5t151 -24q96 0 157 41t92 106t41 143.5t10 160.5v88q7 68 28 130q19 27 46 68l96 123q48 61 89 129.5t68 143.5t27 164q0 69 -20 130zM866 389q14 0 24.5 7t17.5 14l6 27v27l-6 14l-28 34
q-6 7 -20 14l-42 34q-13 14 -13 24t13 17q20 14 28 41l28 41q7 20 27.5 37t60.5 17h8q40 0 74 -20l96 -55l74 -54l8 -28q0 -14 -8 -20l-12 -14l-34 -7q-20 -7 -44.5 -20.5t-45.5 -20.5l-6 -6v-14v-48q0 -14 7 -24t17 -17t24 -7q34 0 47 24t13 41t-6 31t-6 20.5t6 13.5h14
q19 0 29.5 -10t10.5 -31l-6 -48q-8 -27 -18 -54.5t-30.5 -41t-47.5 -13.5q-55 0 -75.5 24t-26.5 78l6 62l-34 -7q-13 -7 -26 0h-14q-14 0 -14 -7v-41q-8 -20 -14 -40.5t-20 -37.5t-34 -17t-31 10t-21 23.5t-10 34.5l-6 34q0 27 12 48l8 34q6 7 13.5 7t14 -7t6.5 -14h-6
q-7 0 -14 -6l-14 -35q-8 -27 6 -47.5t34 -20.5zM648 1946q28 0 48.5 -7t41 -17.5t30.5 -30.5t13 -44t-3 -41t-20 -31l-90 -123l-68 -109q-13 -27 -26.5 -47.5t-30.5 -34.5t-37.5 -10.5t-41.5 17.5l-68 68q-20 20 -47.5 30.5t-44.5 24t-18 41.5l8 81q0 27 -7.5 51.5t-7 48
t17 34t45.5 17.5l108 20l54 7q20 7 56 27zM1016 1823q28 0 62 -7q62 -14 124 -41q26 -14 54 -34v-7l14 -55l34 -211q0 -27 10 -48t31 -38t41 -30v-7q0 -7 6 -21l14 -20q6 -7 20 -14l20 -13l-34 -157l-12 -41q-14 -27 -28 -41l-48 -69q-7 -14 -6 -27l-8 -27q-13 -48 -34 -96
l-20 -48l-20 -34q-14 -20 -31 -20t-51 20l-138 89q-34 14 -64 14t-54 -17t-44 -45l-36 -41q-19 -20 -26.5 -20t-7.5 13v48l-54 89q-19 48 -28 102l8 28q0 14 6 27l-34 48q-40 55 -54 119.5t-14 126.5v68v27q20 0 42 14l46 27q28 20 56 48l40 54q28 20 34 48l14 41
q0 27 -16.5 44.5t-37.5 23.5q13 27 40.5 48t54.5 34.5t61 20.5t68 7zM1420 1966q19 0 43.5 -7t51.5 -24t47 -44q56 -61 124 -96l68 -34l20 -13q8 -14 8 -28v-13l-34 -55l-22 -34l-34 -102q-19 -27 -60 -28q-20 0 -34 7l-70 41q-19 7 -36.5 7t-34 -10.5t-23.5 -23.5l-28 -69
l-14 21q-13 14 -20 27q-15 34 -14 68l-14 117q-7 55 -26 109l-8 34l-6 34q0 48 30 82t86 34z" />
</svg>
