<?xml version="1.0" standalone="no"?>
<!DOCTYPE svg PUBLIC "-//W3C//DTD SVG 1.1//EN" "http://www.w3.org/Graphics/SVG/1.1/DTD/svg11.dtd" >
<svg xmlns="http://www.w3.org/2000/svg" xmlns:xlink="http://www.w3.org/1999/xlink" version="1.1" width="2048" height="2048" viewBox="-10 0 2058 2048">
   <path fill="currentColor"
d="M419 1024q0 81 -55.5 136.5t-133 55.5t-133.5 -55.5t-56 -137t56 -137t133.5 -55.5t133 55.5t55.5 137.5zM1503 1951q44 66 118.5 89t144.5 -18t88.5 -119t-22 -145t-114.5 -89.5t-144.5 19t-89 119t18.5 144.5zM1836 289q22 -44 26.5 -96t-21.5 -96.5t-71 -70.5t-97 -26
t-96.5 26t-73.5 71q-37 66 -15 140.5t89 115t141 21.5t118 -85zM1191 483q133 0 256 63t197 177.5t89 248.5h274q-8 -149 -71 -286t-166 -240q-60 21 -119 17.5t-111 -33.5q-111 -66 -134 -193q-104 -29 -215 -29q-193 0 -363 89l141 237q103 -51 222 -51zM650 1024
q0 -134 59 -252.5t171 -193.5l-141 -237q-126 82 -215.5 204t-126.5 271q53 37 79 92.5t26 115t-26 115t-79 92.5q37 149 126.5 271.5t215.5 203.5l133 -237q-104 -74 -167 -193t-55 -252zM1191 1565q-119 0 -229 -51l-142 244q171 82 364 82q111 0 215 -23
q22 -126 133 -192q52 -30 111.5 -37.5t118.5 14.5q105 -104 168 -241t70 -285h-275q-21 207 -174 348t-360 141z" />
</svg>
