<?xml version="1.0" standalone="no"?>
<!DOCTYPE svg PUBLIC "-//W3C//DTD SVG 1.1//EN" "http://www.w3.org/Graphics/SVG/1.1/DTD/svg11.dtd" >
<svg xmlns="http://www.w3.org/2000/svg" xmlns:xlink="http://www.w3.org/1999/xlink" version="1.1" width="2048" height="2048" viewBox="-10 0 2058 2048">
   <path fill="currentColor"
d="M1794 421l-647 -384q-58 -36 -123 -37t-123 37l-647 384q-59 36 -91.5 94.5t-32.5 123.5v770q0 65 33 123t91 95l647 384q58 36 123 37t123 -37l647 -384q59 -36 91.5 -94.5t32.5 -123.5v-770q0 -65 -32.5 -123.5t-91.5 -94.5zM1293 1612v59q0 7 -7 14l-36 22q-8 7 -8 -7
v-59q-36 21 -72 8q-8 0 -8 -8l14 -51q0 -7 8 -14h7q36 8 65 -7q51 -22 51 -69t-47.5 -47t-68.5 -15t-21 -65q0 -95 72 -153v-58q0 -7 8 -15l36 -21q7 0 7 7v58q29 -15 58 -7q15 0 7 14l-15 44q0 8 -6 14q-36 -8 -73 11t-37 70q0 15 14.5 22t44.5 7q87 0 87 94t-80 152z
M1634 1525q0 8 -7 8l-160 101h-7v-44q0 -7 7 -14l160 -95zM1743 581l-610 378q-65 36 -97.5 80t-32.5 108v748q0 80 57 102h-36q-51 0 -102 -22l-646 -385q-44 -29 -73 -79.5t-29 -101.5v-770q0 -51 29 -101.5t73 -79.5l646 -385q51 -21 106 -21.5t98 21.5l646 385
q80 51 95 145q-15 -29 -47.5 -36.5t-76.5 14.5z" />
</svg>
