<?xml version="1.0" standalone="no"?>
<!DOCTYPE svg PUBLIC "-//W3C//DTD SVG 1.1//EN" "http://www.w3.org/Graphics/SVG/1.1/DTD/svg11.dtd" >
<svg xmlns="http://www.w3.org/2000/svg" xmlns:xlink="http://www.w3.org/1999/xlink" version="1.1" width="2048" height="2048" viewBox="-10 0 2058 2048">
   <path fill="currentColor"
d="M929 0h-73l-813 555v118l813 541h73l842 -541v-118zM205 614l687 -476l711 476l-711 461zM856 1558l-798 -542h242l592 403l615 -403h249l-110 74h-51q-183 0 -325.5 106t-201.5 267l-139 95h-73zM1047 1660l-155 103l-592 -403h-242l798 541h73l146 -94
q-28 -67 -28 -147zM1185 1639q0 168 117 288.5t289 120.5t293 -120.5t121 -292.5t-121 -292.5t-293 -120.5t-289 120.5t-117 296.5z" />
</svg>
