<?xml version="1.0" standalone="no"?>
<!DOCTYPE svg PUBLIC "-//W3C//DTD SVG 1.1//EN" "http://www.w3.org/Graphics/SVG/1.1/DTD/svg11.dtd" >
<svg xmlns="http://www.w3.org/2000/svg" xmlns:xlink="http://www.w3.org/1999/xlink" version="1.1" width="2048" height="2048" viewBox="-10 0 2068 2048">
   <path fill="currentColor"
d="M1107 1764q-43 7 -87 7v-131h-131v131q-196 -14 -364 -120t-270 -270t-117 -361h131v-138h-131q15 -196 120.5 -360.5t269.5 -266.5t361 -117v131h131v-131q196 15 364.5 117t270 269.5t116.5 364.5h-131v131h131l-7 87q65 15 124 44q21 -95 21 -196
q0 -263 -127.5 -481.5t-346 -346t-481 -127.5t-481 127.5t-346 346t-127.5 481t127.5 481t346 346t481.5 127.5q102 0 196 -21q-29 -59 -44 -124zM1217 1290l-401 -197l-277 -554l554 277l197 401q-44 29 -73 73zM1151 1151l-131 -262l-262 -131l131 262zM1406 1297
q109 -72 234 -66q168 0 288 117t120 292q0 124 -69.5 226t-182 149.5t-236.5 25.5t-211.5 -113t-113 -211.5t21.5 -237t149 -182.5zM1640 1822l248 -328l-110 -80l-204 270l-116 -103l-88 109l175 139z" />
</svg>
