<?xml version="1.0" standalone="no"?>
<!DOCTYPE svg PUBLIC "-//W3C//DTD SVG 1.1//EN" "http://www.w3.org/Graphics/SVG/1.1/DTD/svg11.dtd" >
<svg xmlns="http://www.w3.org/2000/svg" xmlns:xlink="http://www.w3.org/1999/xlink" version="1.1" width="2048" height="2048" viewBox="-10 0 2068 2048">
   <path fill="currentColor"
d="M2038 1804l-551 -1653q-15 -37 -51.5 -66.5t-88.5 -22.5h-646q-44 0 -81 25.5t-51 63.5l-559 1653q-15 37 -7.5 69.5t26 62.5t51 40.5t70.5 10.5h404q36 0 72.5 -25.5t51.5 -69.5l89 -243l411 317q37 21 81 21h647q29 0 62 -14.5t51.5 -40.5t26 -58.5t-7.5 -69.5z
M1266 1899q-15 0 -29 -7l-793 -588h419l146 -383l309 920v18q0 11 -7.5 22t-22 14.5t-22.5 3.5zM1906 1899h-507q15 -44 0 -95l-559 -1653h507q15 7 29.5 14t14.5 22l559 1654q7 7 3.5 18t-10.5 18.5t-14.5 14.5t-22.5 7z" />
</svg>
