<?xml version="1.0" standalone="no"?>
<!DOCTYPE svg PUBLIC "-//W3C//DTD SVG 1.1//EN" "http://www.w3.org/Graphics/SVG/1.1/DTD/svg11.dtd" >
<svg xmlns="http://www.w3.org/2000/svg" xmlns:xlink="http://www.w3.org/1999/xlink" version="1.1" width="2048" height="2048" viewBox="-10 0 2068 2048">
   <path fill="currentColor"
d="M1848 1295l150 42q50 -152 50 -315.5t-50 -314.5l-150 50q41 126 41 265t-41 273zM1797 632l134 -77q-151 -293 -445 -445l-75 144q252 126 386 378zM1293 204l42 -152q-152 -50 -315.5 -50t-314.5 50l50 152q126 -51 265 -51t273 51zM630 254l-76 -144
q-294 152 -446 445l144 77q126 -252 378 -378zM0 1027q0 -169 50 -320l152 50q-51 126 -47 265t47 273l-152 42q-50 -150 -50 -310zM252 1413l-144 75q152 294 446 445l76 -134q-252 -134 -378 -386zM755 1849l-50 151q151 41 314.5 45.5t315.5 -45.5l-42 -151
q-134 42 -273 42t-265 -42zM1411 1799l75 134q294 -151 445 -445l-134 -75q-134 252 -386 386zM1025 1177q59 0 104.5 -46.5t45.5 -109t-46.5 -108.5t-109 -46t-108.5 46t-46 108.5t46 109t114 46.5z" />
</svg>
