<?xml version="1.0" standalone="no"?>
<!DOCTYPE svg PUBLIC "-//W3C//DTD SVG 1.1//EN" "http://www.w3.org/Graphics/SVG/1.1/DTD/svg11.dtd" >
<svg xmlns="http://www.w3.org/2000/svg" xmlns:xlink="http://www.w3.org/1999/xlink" version="1.1" width="2048" height="2048" viewBox="-10 0 2058 2048">
   <path fill="currentColor"
d="M694 532q-59 87 -154 131l-58 15v684q29 7 58 22q95 37 153 124.5t58 188.5q0 73 -25 135.5t-72.5 113t-113 76t-130.5 25.5q-109 0 -193.5 -58t-124.5 -153t-21.5 -197t91.5 -174.5t174 -95.5v-691q-102 -22 -174.5 -95t-91 -175.5t21.5 -197t124 -152.5t194 -58
q65 0 130.5 25t113 72.5t72.5 113t25 132.5q2 108 -57 189zM591 1610q-28 -52 -75.5 -80.5t-106 -28.5t-109.5 36t-76 91t-14.5 117t58 106t105.5 54.5t116.5 -11.5t91.5 -72.5t36 -105.5t-26 -106zM300 510q51 36 109.5 36t106 -29t76.5 -80t25.5 -109.5t-36.5 -105.5
t-91.5 -72.5t-120.5 -11t-105.5 58t-54 101.5t14.5 117t76 95zM1707 1369q102 22 175 95q102 103 101 241q0 102 -58 189.5t-153 127.5t-197 18t-174.5 -95t-94.5 -175t18 -196.5t128 -152.5q51 -37 123 -52v-487h132v487zM1787 1851q51 -51 58 -124.5t-29.5 -131.5
t-94.5 -80t-120 -10.5t-105.5 55t-55 105.5t10.5 116.5t80 94.5t131.5 33t124.5 -58zM1524 328l-226 226l95 101l226 -232l233 232l95 -101l-226 -226l226 -234l-95 -94l-233 225l-226 -225l-95 94z" />
</svg>
