<?xml version="1.0" standalone="no"?>
<!DOCTYPE svg PUBLIC "-//W3C//DTD SVG 1.1//EN" "http://www.w3.org/Graphics/SVG/1.1/DTD/svg11.dtd" >
<svg xmlns="http://www.w3.org/2000/svg" xmlns:xlink="http://www.w3.org/1999/xlink" version="1.1" width="2048" height="2048" viewBox="-10 0 2058 2048">
   <path fill="currentColor"
d="M540 663q95 -44 153 -127.5t58 -192.5q0 -65 -25 -131.5t-72.5 -114t-113 -72.5t-130.5 -25q-109 0 -193.5 58t-124.5 152.5t-22 197t91.5 175.5t174.5 95v692q-103 21 -175.5 94.5t-90.5 175.5t22 197t124 153t194 58q65 0 130.5 -25.5t113 -76.5t72.5 -113t25 -135
q0 -103 -58 -190t-153 -123q-29 -15 -58 -23v-684zM519 1530q43 29 72.5 80t26 106t-37 106t-91.5 73t-116 11t-105.5 -54.5t-58.5 -105.5t14 -117t76.5 -91.5t109.5 -36.5t110 29zM410 547q-59 0 -110.5 -37t-76.5 -95t-14 -116.5t54.5 -102t105.5 -58t120 11t91.5 72.5
t37 106t-26 109.5t-76.5 80t-105 29.5zM1984 1705q0 147 -98.5 245t-240.5 98t-240.5 -98t-98.5 -241t98.5 -245t240.5 -102t240.5 102t98.5 241zM1641 1909q87 0 149 -58t62 -145.5t-62 -146t-145.5 -58.5t-145.5 58.5t-62 146t62 145.5t142 58zM1509 918q0 59 40.5 99
t95.5 40t95 -40.5t40 -95t-40 -94.5t-95 -40t-95.5 40t-40.5 91zM1509 343q0 51 40.5 90.5t95.5 39.5t95 -40t40 -94.5t-40 -94.5t-95 -40t-95.5 40t-40.5 99z" />
</svg>
