<?xml version="1.0" standalone="no"?>
<!DOCTYPE svg PUBLIC "-//W3C//DTD SVG 1.1//EN" "http://www.w3.org/Graphics/SVG/1.1/DTD/svg11.dtd" >
<svg xmlns="http://www.w3.org/2000/svg" xmlns:xlink="http://www.w3.org/1999/xlink" version="1.1" width="2048" height="2048" viewBox="-10 0 2058 2048">
   <path fill="currentColor"
d="M491 66l117 -66l1420 948v134l-907 606v-194l722 -478l-1193 -798v570h-159v-722zM667 1595q-42 42 -67 97t-25 112v136q0 24 -8.5 45t-21 34t-33.5 21t-46 8h-135q-24 0 -45.5 -8t-34 -21t-21 -34t-8.5 -45v-136q0 -59 -25 -113t-71.5 -100t-76 -113.5t-29.5 -151.5
q0 -50 13 -96.5t38.5 -92.5t58.5 -80t75.5 -59t93 -37.5t101 -12.5t100 12.5t92 37.5t76 59t58.5 80t42 92.5t17 96.5q0 84 -29.5 151.5t-88.5 117.5zM491 1754h-184v186q0 8 8 16t16 8h135q8 0 16.5 -8.5t8.5 -15.5v-186z" />
</svg>
