<?xml version="1.0" standalone="no"?>
<!DOCTYPE svg PUBLIC "-//W3C//DTD SVG 1.1//EN" "http://www.w3.org/Graphics/SVG/1.1/DTD/svg11.dtd" >
<svg xmlns="http://www.w3.org/2000/svg" xmlns:xlink="http://www.w3.org/1999/xlink" version="1.1" width="2048" height="2048" viewBox="-10 0 2068 2048">
   <path fill="currentColor"
d="M985 292h993l70 79v508h-141v-148h-930l-125 125l-55 23h-656v884h734v141h-805l-70 -71v-1611l70 -78h735l55 23zM946 590h954l7 -149h-953l-55 -23l-125 -126h-626v446h626l125 -125zM1024 1027h149v877h-149v-877zM1321 1027h141v877h-141v-877zM1610 1082l141 -55
l297 830l-133 47z" />
</svg>
