<?xml version="1.0" standalone="no"?>
<!DOCTYPE svg PUBLIC "-//W3C//DTD SVG 1.1//EN" "http://www.w3.org/Graphics/SVG/1.1/DTD/svg11.dtd" >
<svg xmlns="http://www.w3.org/2000/svg" xmlns:xlink="http://www.w3.org/1999/xlink" version="1.1" width="2048" height="2048" viewBox="-10 0 2058 2048">
   <path fill="currentColor"
d="M218 2047h735q-86 -63 -149 -141h-586l226 -445h212q0 -70 15 -141h-148l281 -562v-610h297v618l8 23q70 -31 140 -47l-7 -8v-586h148v-148h-875v141h141v586l-571 1109q-16 39 -12 74.5t24 70.5t51 50.5t70 15.5zM1069 977q141 -102 321 -102q117 0 227 47t191.5 129
t124.5 187.5t43 222.5q0 180 -97.5 328.5t-261.5 215t-340 31t-301 -160t-160 -296.5t35 -336.5t218 -265.5zM1077 1773q133 125 313 133q141 0 259 -86l-619 -609q-77 110 -77 250q0 188 124 312zM1140 1101l609 619q86 -117 86 -259q0 -180 -128.5 -308.5t-316.5 -128.5
q-140 0 -250 77z" />
</svg>
