<?xml version="1.0" standalone="no"?>
<!DOCTYPE svg PUBLIC "-//W3C//DTD SVG 1.1//EN" "http://www.w3.org/Graphics/SVG/1.1/DTD/svg11.dtd" >
<svg xmlns="http://www.w3.org/2000/svg" xmlns:xlink="http://www.w3.org/1999/xlink" version="1.1" width="2048" height="2048" viewBox="-10 0 2064 2048">
   <path fill="currentColor"
d="M633 159h-16q-50 0 -92 17t-71.5 50.5t-46.5 75t-17 92.5v210q0 50 -8 100.5t-25.5 97t-46 80t-70.5 66.5q42 34 70.5 67.5t46 79.5t25.5 96.5t8 101.5v210q0 51 17 92.5t46.5 75t71.5 50.5t92 17h16v151h-16q-75 0 -142.5 -25t-122 -80t-79.5 -122.5t-33 -125.5v-8
q-9 -68 0 -134v-134q0 -51 -17 -94q-18 -42 -51 -66v-9q-24 -25 -67 -42q-42 -24 -93 -26h-8v-150h8q51 0 92.5 -21.5t71 -50.5t47 -70.5t17.5 -93.5v-134q-9 -68 0 -134q8 -68 33 -134q25 -68 79.5 -122.5t121.5 -83.5t143 -29h16v159zM1877 1023h16v-150h-16
q-50 0 -92 -25q-42 -18 -68 -42v-9q-33 -25 -50.5 -66.5t-17.5 -93.5v-134q9 -68 0 -134v-9q-8 -59 -33 -125q-24 -68 -79 -122.5t-122 -83.5t-143 -29h-9v159h9q50 0 92 17t71.5 50.5t46.5 75t17 92.5v210q0 50 8 100.5t25.5 97t46.5 80t70 66.5h-7q126 16 235 75z
M1574 1108q-142 0 -259.5 79.5t-172.5 210t-29.5 273t126.5 243.5t243.5 126t273 -29.5t209.5 -172t79 -260.5q0 -193 -138 -331.5t-332 -138.5z" />
</svg>
