<?xml version="1.0" standalone="no"?>
<!DOCTYPE svg PUBLIC "-//W3C//DTD SVG 1.1//EN" "http://www.w3.org/Graphics/SVG/1.1/DTD/svg11.dtd" >
<svg xmlns="http://www.w3.org/2000/svg" xmlns:xlink="http://www.w3.org/1999/xlink" version="1.1" width="2048" height="2048" viewBox="-10 0 2068 2048">
   <path fill="currentColor"
d="M0 0h615v202h818v-202h615v615h-202v818h202v615h-615v-202h-818v202h-615v-615h202v-818h-202v-615zM1433 615v-206h-818v206h-206v818h206v206h818v-206h206v-818h-206zM202 202v207h207v-207h-207zM1639 202v207h207v-207h-207zM202 1639v207h207v-207h-207z
M1639 1639v207h207v-207h-207z" />
</svg>
