<?xml version="1.0" standalone="no"?>
<!DOCTYPE svg PUBLIC "-//W3C//DTD SVG 1.1//EN" "http://www.w3.org/Graphics/SVG/1.1/DTD/svg11.dtd" >
<svg xmlns="http://www.w3.org/2000/svg" xmlns:xlink="http://www.w3.org/1999/xlink" version="1.1" width="2048" height="2048" viewBox="-10 0 2068 2048">
   <path fill="currentColor"
d="M1433 1591v202h-1433v-202l5 -43q9 -53 38 -101q44 -72 111 -125q86 -62 211 -101q149 -43 351 -43q318 0 505 106q135 77 188 202q24 57 24 105zM1077 615q0 -110 -62.5 -199t-161 -132.5t-207 -21.5t-185 98.5t-98.5 185t21.5 207t132.5 161t199 62.5q149 0 255 -106
t106 -255zM1428 1178q96 77 151.5 185t59.5 228v202h409v-202l-5 -38q-9 -48 -33 -96q-34 -68 -97 -116q-72 -67 -182 -105q-130 -44 -303 -58zM1332 255q-111 0 -197 62q96 135 96 298.5t-96 297.5q86 63 197 63q149 0 254.5 -106t105.5 -255t-105.5 -254.5t-254.5 -105.5z
" />
</svg>
