<?xml version="1.0" standalone="no"?>
<!DOCTYPE svg PUBLIC "-//W3C//DTD SVG 1.1//EN" "http://www.w3.org/Graphics/SVG/1.1/DTD/svg11.dtd" >
<svg xmlns="http://www.w3.org/2000/svg" xmlns:xlink="http://www.w3.org/1999/xlink" version="1.1" width="2048" height="2048" viewBox="-10 0 2068 2048">
   <path fill="currentColor"
d="M298 46q-139 139 -218.5 326.5t-79.5 396.5t79.5 396.5t218.5 327.5l144 -144q-110 -111 -175 -260t-65 -317.5t65 -320t175 -261.5zM1750 46l-144 144q110 110 175 261.5t65 320t-65 317.5t-175 260l144 144q139 -140 218.5 -327.5t79.5 -396.5t-79.5 -396.5
t-218.5 -326.5zM591 334q-86 87 -134 200t-48 238t48 235.5t134 196.5l145 -144q-121 -120 -121 -290.5t121 -291.5zM1457 334l-145 144q121 121 121 291.5t-121 290.5l145 144q86 -86 134 -196.5t48 -235.5t-48 -238t-134 -200zM1024 565q-87 0 -147 60t-60 144t60 144.5
t147 60.5t147 -60.5t60 -144.5t-60 -144t-147 -60zM923 1180v409h-106q-43 0 -72 31t-29 75h-716v202h716q0 43 29 74t72 31h414q43 0 72 -31t29 -74h716v-202h-716q0 -44 -29 -75t-72 -31h-106v-409h-202z" />
</svg>
