<?xml version="1.0" standalone="no"?>
<!DOCTYPE svg PUBLIC "-//W3C//DTD SVG 1.1//EN" "http://www.w3.org/Graphics/SVG/1.1/DTD/svg11.dtd" >
<svg xmlns="http://www.w3.org/2000/svg" xmlns:xlink="http://www.w3.org/1999/xlink" version="1.1" width="2048" height="2048" viewBox="-10 0 2068 2048">
   <path fill="currentColor"
d="M1024 1764q-187 0 -350.5 -89t-264.5 -242q0 -92 115 -173q96 -68 250 -106q139 -39 250 -39t250 39q154 38 250 106q115 81 115 173q-101 153 -264.5 242t-350.5 89zM1024 308q130 0 219 89t89 216t-89 218.5t-219 91.5t-219 -91.5t-89 -218.5t89 -216t219 -89zM1024 0
q-202 0 -392 77t-334 221t-221 334t-77 392t77 392t221 334t334 221t392 77t392 -77t334 -221t221 -334t77 -392q0 -279 -137 -514.5t-372.5 -372.5t-514.5 -137z" />
</svg>
