<?xml version="1.0" standalone="no"?>
<!DOCTYPE svg PUBLIC "-//W3C//DTD SVG 1.1//EN" "http://www.w3.org/Graphics/SVG/1.1/DTD/svg11.dtd" >
<svg xmlns="http://www.w3.org/2000/svg" xmlns:xlink="http://www.w3.org/1999/xlink" version="1.1" width="2048" height="2048" viewBox="-10 0 2068 2048">
   <path fill="currentColor"
d="M1819 1819h-1590v-1590h1590v1590zM1819 0h-1590q-96 0 -162.5 66.5t-66.5 162.5v1590q0 96 66.5 162.5t162.5 66.5h1590q96 0 162.5 -66.5t66.5 -162.5v-1590q0 -96 -66.5 -162.5t-162.5 -66.5zM1536 1509q0 -80 -96 -144q-80 -53 -208 -85q-112 -27 -208 -27t-208 27
q-128 32 -208 85q-96 64 -96 144v86h1024v-86zM1024 1051q107 0 181.5 -75t74.5 -181.5t-74.5 -181t-181.5 -74.5t-181.5 74.5t-74.5 181t74.5 181.5t181.5 75z" />
</svg>
