<?xml version="1.0" standalone="no"?>
<!DOCTYPE svg PUBLIC "-//W3C//DTD SVG 1.1//EN" "http://www.w3.org/Graphics/SVG/1.1/DTD/svg11.dtd" >
<svg xmlns="http://www.w3.org/2000/svg" xmlns:xlink="http://www.w3.org/1999/xlink" version="1.1" width="2048" height="2048" viewBox="-10 0 2068 2048">
   <path fill="currentColor"
d="M1135 913q96 -134 96 -297.5t-96 -298.5q86 -62 197 -62q149 0 254.5 105.5t105.5 254.5t-105.5 255t-254.5 106q-111 0 -197 -63zM356 615q0 -110 62.5 -199t161 -132.5t206.5 -21.5t185 98.5t98.5 185t-21.5 207t-132 161t-200 62.5q-149 0 -254.5 -106t-105.5 -255z
M562 615q0 63 46 108.5t108.5 45.5t108 -45.5t45.5 -108t-45.5 -108t-108 -45.5t-108.5 45.5t-46 107.5zM1433 1591v202h-1433v-202l5 -43q9 -53 38 -101q44 -72 111 -125q86 -62 211 -101q149 -43 351 -43q318 0 505 106q135 77 188 202q24 57 24 105zM1231 1591
q-15 -77 -120 -134q-140 -72 -395 -72q-173 0 -298 38q-106 29 -163 82q-48 43 -53 86h1029zM1428 1178q96 77 151.5 185t59.5 228v202h409v-202l-5 -38q-9 -48 -33 -96q-34 -68 -97 -116q-72 -67 -182 -105q-130 -44 -303 -58z" />
</svg>
