<?xml version="1.0" standalone="no"?>
<!DOCTYPE svg PUBLIC "-//W3C//DTD SVG 1.1//EN" "http://www.w3.org/Graphics/SVG/1.1/DTD/svg11.dtd" >
<svg xmlns="http://www.w3.org/2000/svg" xmlns:xlink="http://www.w3.org/1999/xlink" version="1.1" width="2048" height="2048" viewBox="-10 0 2068 2048">
   <path fill="currentColor"
d="M298 298q-139 144 -218.5 331.5t-79.5 394.5t79.5 394.5t218.5 331.5l144 -144q-110 -116 -175 -265t-65 -317t65 -317t175 -265zM1750 298l-144 144q110 116 175 265t65 317t-65 317t-175 265l144 144q139 -144 218.5 -331.5t79.5 -394.5t-79.5 -394.5t-218.5 -331.5z
M591 591q-86 82 -134 195t-48 238t48 238t134 195l145 -145q-121 -120 -121 -288t121 -288zM1457 591l-145 145q121 120 121 288t-121 288l145 145q86 -82 134 -195t48 -238t-48 -238t-134 -195zM1024 817q-87 0 -147 60t-60 147t60 147t147 60t147 -60t60 -147t-60 -147
t-147 -60z" />
</svg>
