<?xml version="1.0" standalone="no"?>
<!DOCTYPE svg PUBLIC "-//W3C//DTD SVG 1.1//EN" "http://www.w3.org/Graphics/SVG/1.1/DTD/svg11.dtd" >
<svg xmlns="http://www.w3.org/2000/svg" xmlns:xlink="http://www.w3.org/1999/xlink" version="1.1" width="2048" height="2048" viewBox="-10 0 2058 2048">
   <path fill="currentColor"
d="M1969 118v1379q0 49 -28 90.5t-71.5 67.5t-97.5 44t-103.5 26t-92.5 8t-93 -8t-104 -26t-97.5 -44t-71.5 -67.5t-28 -91t28 -91t71.5 -67.5t97.5 -44.5t104 -26t93 -7.5q128 0 236 48v-661l-946 292v872q0 50 -28 91t-71 67.5t-97 45t-104 26t-93 7.5t-92.5 -7.5
t-104 -26t-97.5 -45t-71.5 -67.5t-28.5 -90.5t28.5 -91t71.5 -67.5t97.5 -44.5t104 -26t92.5 -7.5q131 0 236 48v-1190q0 -39 23.5 -70t60.5 -43l1024 -316q14 -4 34 -4q50 0 84 34.5t34 83.5z" />
</svg>
