<?xml version="1.0" standalone="no"?>
<!DOCTYPE svg PUBLIC "-//W3C//DTD SVG 1.1//EN" "http://www.w3.org/Graphics/SVG/1.1/DTD/svg11.dtd" >
<svg xmlns="http://www.w3.org/2000/svg" xmlns:xlink="http://www.w3.org/1999/xlink" version="1.1" width="2048" height="2048" viewBox="-10 0 2058 2048">
   <path fill="currentColor"
d="M932 2048q-78 0 -132.5 -54.5t-54.5 -132.5v-188h558v188q0 78 -54.5 132.5t-132.5 54.5h-184zM1024 0q96 0 192 26q83 109 130.5 301t47.5 418q0 148 -21 314q-22 135 -70 335q0 79 -54.5 133.5t-132.5 54.5h-184q-78 0 -132.5 -54.5t-54.5 -133.5q-48 -200 -70 -335
q-21 -166 -21 -314q0 -226 47.5 -418t130.5 -301q96 -26 192 -26zM1769 654q0 148 -54.5 326.5t-150.5 318.5q-100 152 -218 209q66 -122 105 -345q39 -213 39 -418q0 -196 -39 -368t-105 -303q205 100 305 222q118 148 118 358zM279 654q0 -210 118 -358q100 -122 305 -222
q-66 131 -105 303t-39 368q0 205 39 418q39 223 105 345q-118 -57 -218 -209q-96 -140 -150.5 -318.5t-54.5 -326.5z" />
</svg>
