<?xml version="1.0" standalone="no"?>
<!DOCTYPE svg PUBLIC "-//W3C//DTD SVG 1.1//EN" "http://www.w3.org/Graphics/SVG/1.1/DTD/svg11.dtd" >
<svg xmlns="http://www.w3.org/2000/svg" xmlns:xlink="http://www.w3.org/1999/xlink" version="1.1" width="2048" height="2048" viewBox="-10 0 2068 2048">
   <path fill="currentColor"
d="M1925 2048l-279 -274l-60 59l-137 -256l-356 -356l-266 269l32 238l-100 105l-174 -311l-311 -173l105 -106l243 37l265 -265l-352 -357l-261 -137l60 -59l-334 -339l123 -123l1925 1925zM1518 800l379 -379q41 -46 41 -105.5t-43.5 -103t-105 -43.5t-102.5 41l-380 380
l-448 -101l759 759z" />
</svg>
