<?xml version="1.0" standalone="no"?>
<!DOCTYPE svg PUBLIC "-//W3C//DTD SVG 1.1//EN" "http://www.w3.org/Graphics/SVG/1.1/DTD/svg11.dtd" >
<svg xmlns="http://www.w3.org/2000/svg" xmlns:xlink="http://www.w3.org/1999/xlink" version="1.1" width="2048" height="2048" viewBox="-10 0 2058 2048">
   <path fill="currentColor"
d="M1394 745q157 0 275 39q96 31 165 92q53 48 83 109q22 48 31 91l4 40v187h-558v-187l-4 -44q-4 -57 -26 -113q-26 -79 -74 -140q-22 -26 -57 -61q83 -13 161 -13zM96 1116q0 -18 4 -40q9 -43 31 -91q30 -61 83 -109q69 -61 165 -92q118 -39 274.5 -39t270.5 39
q100 31 165 92q53 48 83 109q26 48 35 91l4 40v187h-1115v-187zM745 1490v183h558v-183l279 279l-279 279v-187h-558v187l-279 -279zM654 0q-118 0 -198.5 83t-80.5 198.5t80.5 196t196 80.5t198 -80.5t82.5 -196t-82.5 -198.5t-195.5 -83zM1394 0q-113 0 -195.5 83
t-82.5 198.5t82.5 196t198 80.5t196 -80.5t80.5 -196t-80.5 -198.5t-198.5 -83z" />
</svg>
