<?xml version="1.0" standalone="no"?>
<!DOCTYPE svg PUBLIC "-//W3C//DTD SVG 1.1//EN" "http://www.w3.org/Graphics/SVG/1.1/DTD/svg11.dtd" >
<svg xmlns="http://www.w3.org/2000/svg" xmlns:xlink="http://www.w3.org/1999/xlink" version="1.1" width="2048" height="2048" viewBox="-10 0 2068 2048">
   <path fill="currentColor"
d="M662 70q166 -70 362 -70q279 0 514 137.5t372.5 372.5t137.5 514t-137.5 514t-372.5 372.5t-514 137.5t-514 -137.5t-372.5 -372.5t-137.5 -514q0 -192 70 -366q65 70 161 105q-44 126 -44 261q0 227 113.5 418.5t305 305t418.5 113.5t418.5 -113.5t305 -305
t113.5 -418.5t-113.5 -418.5t-305 -305t-418.5 -113.5q-135 0 -261 44q-35 -96 -101 -161zM366 183q78 0 132.5 52.5t54.5 130.5t-54.5 132.5t-132.5 54.5t-130.5 -54.5t-52.5 -132.5t52.5 -130.5t130.5 -52.5zM1024 558q126 0 233 63t170 170t63 233t-63 233t-170 170
t-233 63t-233 -63t-170 -170t-63 -233t63 -233t170 -170t233 -63z" />
</svg>
