<?xml version="1.0" standalone="no"?>
<!DOCTYPE svg PUBLIC "-//W3C//DTD SVG 1.1//EN" "http://www.w3.org/Graphics/SVG/1.1/DTD/svg11.dtd" >
<svg xmlns="http://www.w3.org/2000/svg" xmlns:xlink="http://www.w3.org/1999/xlink" version="1.1" width="2048" height="2048" viewBox="-10 0 2066 2048">
   <path fill="currentColor"
d="M1125 1434v202h105q43 0 72 31t29 74h715v201h-715q0 44 -29 75t-72 31h-412q-43 0 -72 -31t-29 -75h-715v-201h715q0 -43 29 -74t72 -31h105v-202h-614v-153q0 -101 96 -182.5t259 -129.5t360 -48t360 48t259 129.5t96 182.5v153h-614zM1024 0q149 0 254.5 105.5
t105.5 254t-105.5 252t-254.5 103.5t-254.5 -103.5t-105.5 -252t105.5 -254t254.5 -105.5z" />
</svg>
