<?xml version="1.0" standalone="no"?>
<!DOCTYPE svg PUBLIC "-//W3C//DTD SVG 1.1//EN" "http://www.w3.org/Graphics/SVG/1.1/DTD/svg11.dtd" >
<svg xmlns="http://www.w3.org/2000/svg" xmlns:xlink="http://www.w3.org/1999/xlink" version="1.1" width="2048" height="2048" viewBox="-10 0 2058 2048">
   <path fill="currentColor"
d="M564 58q96 -76 194 -50t172 128t98 249q56 0 104 28q88 -99 70 -195t36 -162t138 -54q100 16 188 136q75 96 51 193.5t-127.5 171.5t-251.5 98q0 56 -28 104q104 88 198 70t159.5 36t53.5 138q-16 100 -135 192q-96 72 -194 48t-172 -128t-98 -248q-52 0 -104 -32
q-88 104 -70 198t-36 160t-138 54q-100 -12 -188 -132q-75 -96 -51 -196t127.5 -172t251.5 -96q0 -56 28 -108q-104 -84 -198 -66t-159.5 -35.5t-53.5 -137.5q16 -100 135 -192zM429 1365h167q72 0 122 50t50 121v512h-172v-172h-167v172h-172v-512q0 -71 50 -121t122 -50z
M429 1536v172h167v-172h-167zM1104 1365h176l-252 683h-176zM1536 1365h255v171h-255v340h255v172h-255q-72 0 -122 -50t-50 -122v-340q0 -71 50 -121t122 -50z" />
</svg>
