<?xml version="1.0" standalone="no"?>
<!DOCTYPE svg PUBLIC "-//W3C//DTD SVG 1.1//EN" "http://www.w3.org/Graphics/SVG/1.1/DTD/svg11.dtd" >
<svg xmlns="http://www.w3.org/2000/svg" xmlns:xlink="http://www.w3.org/1999/xlink" version="1.1" width="2048" height="2048" viewBox="-10 0 2068 2048">
   <path fill="currentColor"
d="M409 923q86 0 146 60t60 142v413h-413q-82 0 -142 -60t-60 -146v-207q0 -82 60 -142t142 -60h207zM202 1125v207h207v-207h-207zM1846 1125v207h202v206h-202q-86 0 -146.5 -60t-60.5 -146v-207q0 -82 60.5 -142t146.5 -60h202v202h-202zM1024 510v413h207q81 0 141.5 60
t60.5 142v207q0 86 -60.5 146t-141.5 60h-207q-87 0 -147 -60t-60 -146v-822h207zM1024 1332h207v-207h-207v207z" />
</svg>
