<?xml version="1.0" standalone="no"?>
<!DOCTYPE svg PUBLIC "-//W3C//DTD SVG 1.1//EN" "http://www.w3.org/Graphics/SVG/1.1/DTD/svg11.dtd" >
<svg xmlns="http://www.w3.org/2000/svg" xmlns:xlink="http://www.w3.org/1999/xlink" version="1.1" width="2048" height="2048" viewBox="-10 0 2068 2048">
   <path fill="currentColor"
d="M1024 923q-43 0 -72 29t-29 72t29 72t72 29t72 -29t29 -72t-29 -72t-72 -29zM1024 1486q-192 0 -327 -135t-135 -327t135 -327t327 -135t327 135t135 327t-135 327t-327 135zM1024 0q-202 0 -392 77t-334 221t-221 334t-77 392t77 392t221 334t334 221t392 77t392 -77
t334 -221t221 -334t77 -392t-77 -392t-221 -334t-334 -221t-392 -77z" />
</svg>
