<?xml version="1.0" standalone="no"?>
<!DOCTYPE svg PUBLIC "-//W3C//DTD SVG 1.1//EN" "http://www.w3.org/Graphics/SVG/1.1/DTD/svg11.dtd" >
<svg xmlns="http://www.w3.org/2000/svg" xmlns:xlink="http://www.w3.org/1999/xlink" version="1.1" width="2048" height="2048" viewBox="-10 0 2068 2048">
   <path fill="currentColor"
d="M809 176l-402 338l-114 -132l406 -339zM2048 382l-110 137l-407 -343l115 -133zM1170 249q215 0 393.5 105t283.5 286t105 391t-105 390.5t-283.5 286t-391 105.5t-391 -105.5t-283.5 -286t-105 -390.5t105 -391t283.5 -286t388.5 -105zM1170 446q-114 0 -221.5 43.5
t-189.5 125.5t-128 192t-46 224t46 224t128 192t189.5 125.5t221.5 43.5q160 0 295 -77.5t212.5 -212.5t77.5 -295t-77.5 -295t-212.5 -212.5t-295 -77.5zM1074 592h147v443l315 142l-64 133l-398 -183v-535zM0 1227q0 -182 75.5 -337.5t207.5 -265.5q-86 197 -86 407l4 110
l-4 86q0 165 84.5 302t221.5 210q201 188 462 247q-92 19 -183 19q-211 0 -391.5 -105.5t-285.5 -283.5t-105 -389z" />
</svg>
