<?xml version="1.0" standalone="no"?>
<!DOCTYPE svg PUBLIC "-//W3C//DTD SVG 1.1//EN" "http://www.w3.org/Graphics/SVG/1.1/DTD/svg11.dtd" >
<svg xmlns="http://www.w3.org/2000/svg" xmlns:xlink="http://www.w3.org/1999/xlink" version="1.1" width="2048" height="2048" viewBox="-10 0 2068 2048">
   <path fill="currentColor"
d="M2048 1890q-118 32 -213 32q-299 0 -401 -449h-8q-252 480 -693 480q-331 0 -532 -248t-201 -626q0 -433 224.5 -708.5t610.5 -275.5q213 0 374.5 114t247.5 327l126 -410h426l-355 898q55 315 122 429.5t170 114.5q55 0 102 -24v346zM1331 1008q-55 -283 -169 -437
t-272 -154q-213 0 -335 181.5t-122 457.5q0 252 106.5 417t287.5 165q150 0 276 -141.5t205 -425.5z" />
</svg>
