<?xml version="1.0" standalone="no"?>
<!DOCTYPE svg PUBLIC "-//W3C//DTD SVG 1.1//EN" "http://www.w3.org/Graphics/SVG/1.1/DTD/svg11.dtd" >
<svg xmlns="http://www.w3.org/2000/svg" xmlns:xlink="http://www.w3.org/1999/xlink" version="1.1" width="2048" height="2048" viewBox="-10 0 2068 2048">
   <path fill="currentColor"
d="M642 153l-142 -141l-89 71l146 141zM1491 1673q-193 165 -448 165q-194 0 -354 -96.5t-254.5 -257t-94.5 -354.5q0 -250 160 -448zM127 54l-127 128l137 137l-113 89l141 146l113 -94l81 80q-104 118 -163 271.5t-59 318.5q0 246 122.5 456t330 330t453.5 120
q165 0 318.5 -56.5t275.5 -165.5l222 222l128 -127zM2048 399l-462 -387l-128 151l463 391zM1043 427q193 0 353.5 94.5t255 257t94.5 351.5q0 123 -42 246l155 151q90 -189 90 -397q0 -245 -122.5 -452.5t-330.5 -330.5t-453 -123q-208 0 -397 95l156 151q118 -43 241 -43z
" />
</svg>
