<?xml version="1.0" standalone="no"?>
<!DOCTYPE svg PUBLIC "-//W3C//DTD SVG 1.1//EN" "http://www.w3.org/Graphics/SVG/1.1/DTD/svg11.dtd" >
<svg xmlns="http://www.w3.org/2000/svg" xmlns:xlink="http://www.w3.org/1999/xlink" version="1.1" width="2048" height="2048" viewBox="-10 0 2068 2048">
   <path fill="currentColor"
d="M1024 0q202 0 392 77t334 221t221 334t77 392t-77 392t-221 334t-334 221t-392 77t-392 -77t-334 -221t-221 -334t-77 -392t77 -392t221 -334t334 -221t392 -77zM1024 202q-221 0 -411 110.5t-300.5 300.5t-110.5 411q0 159 57.5 300.5t158.5 252.5l390 -769l769 -390
q-111 -101 -252.5 -158.5t-300.5 -57.5zM1024 1846q221 0 411 -110.5t300.5 -300.5t110.5 -411q0 -159 -57.5 -300.5t-158.5 -252.5l-390 769l-769 390q111 101 252.5 158.5t300.5 57.5zM1024 1024l-77 -77l-159 313l313 -159zM1024 1586h101v154h-101v-154zM1423 1423
l72 -72l111 106l-77 77zM1586 1024v-101h154v101h-154zM1024 462h-101v-154h101v154zM625 625l-72 72l-111 -106l77 -77zM462 1024v101h-154v-101h154z" />
</svg>
