<?xml version="1.0" standalone="no"?>
<!DOCTYPE svg PUBLIC "-//W3C//DTD SVG 1.1//EN" "http://www.w3.org/Graphics/SVG/1.1/DTD/svg11.dtd" >
<svg xmlns="http://www.w3.org/2000/svg" xmlns:xlink="http://www.w3.org/1999/xlink" version="1.1" width="2048" height="2048" viewBox="-10 0 2058 2048">
   <path fill="currentColor"
d="M1714 1793q-82 120 -135 173q-86 77 -178 82q-67 0 -163 -41t-173 -41q-58 0 -106 14q-29 10 -82 29q-86 39 -149 39q-86 5 -177 -82q-58 -53 -145 -178q-91 -134 -149 -307q-67 -193 -67 -375q5 -202 87 -351q67 -116 180 -185.5t243 -69.5q76 0 211 53q91 33 125 33
t120.5 -33.5t129.5 -42.5q77 -20 144 -15q87 5 164 39q129 48 206 163q-67 43 -120 106q-101 130 -101 283q5 140 72 246q53 76 135 134q43 29 72 39l-5 4q-53 154 -139 284zM1127 154q58 -67 142 -110.5t161 -43.5q10 87 -19 173.5t-86.5 153.5t-139.5 108t-163 36
q-10 -82 24 -173q28 -82 81 -144z" />
</svg>
