<?xml version="1.0" standalone="no"?>
<!DOCTYPE svg PUBLIC "-//W3C//DTD SVG 1.1//EN" "http://www.w3.org/Graphics/SVG/1.1/DTD/svg11.dtd" >
<svg xmlns="http://www.w3.org/2000/svg" xmlns:xlink="http://www.w3.org/1999/xlink" version="1.1" width="2048" height="2048" viewBox="-10 0 2068 2048">
   <path fill="currentColor"
d="M10 1514h168v-721h-168v721zM91 702q44 0 70 -29t26 -67.5t-26 -65t-67 -26.5t-67.5 26.5t-26.5 65t26.5 67.5t64.5 29zM740 519q-211 0 -338.5 134.5t-127.5 370.5t127.5 373t341.5 137t339 -137t125 -373t-125 -370.5t-342 -134.5zM740 663q135 0 212 99t77 262
t-77 262t-209 99t-209 -99t-77 -262t77 -262t206 -99zM1279 1240q5 135 108 214.5t278.5 79.5t279 -82t103.5 -221q0 -111 -67.5 -176t-216.5 -103l-110 -24q-92 -19 -132.5 -50.5t-40.5 -79.5q0 -62 52.5 -100.5t137 -38.5t137.5 40.5t57 108.5h169q-5 -130 -103.5 -209.5
t-259.5 -79.5t-264.5 79.5t-103.5 209.5q0 211 269 269l125 29q96 24 134.5 57.5t38.5 91t-55 96t-144 38.5t-151.5 -40.5t-67.5 -108.5h-173z" />
</svg>
