<?xml version="1.0" standalone="no"?>
<!DOCTYPE svg PUBLIC "-//W3C//DTD SVG 1.1//EN" "http://www.w3.org/Graphics/SVG/1.1/DTD/svg11.dtd" >
<svg xmlns="http://www.w3.org/2000/svg" xmlns:xlink="http://www.w3.org/1999/xlink" version="1.1" width="2048" height="2048" viewBox="-10 0 2068 2048">
   <path fill="currentColor"
d="M1902 1646v-878q-37 42 -79 76q-337 260 -487 386q-44 36 -70.5 56.5t-70 48.5t-86 41.5t-84.5 13.5h-1h-1q-42 0 -84.5 -13.5t-86 -41.5t-70 -48.5t-70.5 -56.5q-150 -126 -487 -386q-42 -34 -79 -76v878q0 14 11.5 25t25.5 11h1682q14 0 25.5 -11t11.5 -25zM1902 444
v-12.5v-15.5t-1 -14t-3.5 -15t-6.5 -11t-10.5 -8t-15.5 -2h-1682q-14 0 -25.5 11t-11.5 25q0 96 44.5 179.5t123.5 146.5q289 226 459 362q8 6 40 33t52.5 43t51 36.5t57 31t49.5 10.5h1h1q23 0 49.5 -10.5t57 -31t51 -36.5t52.5 -43t40 -33q170 -136 459 -362
q62 -49 115 -132.5t53 -151.5zM2048 402v1244q0 75 -53.5 128.5t-129.5 53.5h-1682q-76 0 -129.5 -53.5t-53.5 -128.5v-1244q0 -75 53.5 -128.5t129.5 -53.5h1682q76 0 129.5 53.5t53.5 128.5z" />
</svg>
