<?xml version="1.0" standalone="no"?>
<!DOCTYPE svg PUBLIC "-//W3C//DTD SVG 1.1//EN" "http://www.w3.org/Graphics/SVG/1.1/DTD/svg11.dtd" >
<svg xmlns="http://www.w3.org/2000/svg" xmlns:xlink="http://www.w3.org/1999/xlink" version="1.1" width="2048" height="2048" viewBox="-10 0 2068 2048">
   <path fill="currentColor"
d="M615 873q-43 0 -74 -31.5t-31 -74.5v-202q0 -43 31 -74.5t72 -31.5t72 31.5t31 74.5v202q0 43 -31 74.5t-70 31.5zM1538 767v-202q0 -43 -31 -74.5t-72 -31.5t-72 31.5t-31 74.5v202q0 43 31 74.5t72 31.5t72 -31.5t31 -74.5zM2048 257v1539q0 81 -60 141.5t-142 60.5
h-1644q-82 0 -142 -60.5t-60 -141.5v-1539q0 -86 60 -146.5t142 -60.5h1644q82 0 142 60.5t60 146.5zM202 1796h933q-15 -82 -24 -212l-87 5q-240 0 -437 -115q-106 -68 -154 -130q-29 -29 -24.5 -72.5t36 -70t74.5 -24t72 41t111 81.5q144 82 322 82l77 -5q-5 -125 0 -274
h-188q-48 0 -84 -38.5t-36 -90.5q10 -130 29 -270q39 -269 101 -447h-721v1539zM1846 1796v-1539h-760q-91 231 -139 692h188q48 0 84 36.5t36 88.5v5q-5 130 0 265q130 -48 202 -130q29 -34 69.5 -38.5t74.5 24t38.5 69.5t-24.5 75q-33 43 -96 86q-115 87 -259 125
q14 144 28 241h558z" />
</svg>
