<?xml version="1.0" standalone="no"?>
<!DOCTYPE svg PUBLIC "-//W3C//DTD SVG 1.1//EN" "http://www.w3.org/Graphics/SVG/1.1/DTD/svg11.dtd" >
<svg xmlns="http://www.w3.org/2000/svg" xmlns:xlink="http://www.w3.org/1999/xlink" version="1.1" width="2048" height="2048" viewBox="-10 0 2068 2048">
   <path fill="currentColor"
d="M1413 974q0 -83 -14 -197h329q27 105 27 197q0 50 -9 105q101 14 188 64q13 -87 13 -169q0 -265 -130 -489t-354 -354.5t-489 -130.5t-489 130.5t-354.5 354.5t-130.5 489t130.5 489t354.5 354t489 130q82 0 169 -13q-73 -128 -73 -279q0 -32 9 -82q-50 100 -105 178
q-128 -188 -188 -389h366q87 -155 251 -233q10 -87 10 -155zM974 197q128 187 187 388h-375q60 -201 188 -388zM219 1170q-27 -105 -27 -196.5t27 -196.5h330q-14 114 -14 196.5t14 196.5h-330zM297 1362h288q55 197 137 348q-137 -46 -244.5 -135t-180.5 -213zM585 585
h-288q73 -123 180.5 -212.5t244.5 -134.5q-82 151 -137 347zM1202 1170h-457q-14 -105 -14 -196.5t14 -196.5h457q14 114 14 196.5t-14 196.5zM1225 238q137 45 244.5 134.5t180.5 212.5h-288q-50 -187 -137 -347zM2048 1559v196h-293v293h-196v-293h-293v-196h293v-293h196
v293h293z" />
</svg>
