<?xml version="1.0" standalone="no"?>
<!DOCTYPE svg PUBLIC "-//W3C//DTD SVG 1.1//EN" "http://www.w3.org/Graphics/SVG/1.1/DTD/svg11.dtd" >
<svg xmlns="http://www.w3.org/2000/svg" xmlns:xlink="http://www.w3.org/1999/xlink" version="1.1" width="2048" height="2048" viewBox="-10 0 2068 2048">
   <path fill="currentColor"
d="M1024 1902q-30 0 -50 -20l-713 -688q-12 -11 -31.5 -31t-63.5 -74t-78 -111t-61 -138.5t-27 -157.5q0 -252 145 -394t401 -142q71 0 144.5 25t137.5 66.5t109.5 78.5t86.5 78q41 -41 86.5 -78t109.5 -78.5t137.5 -66.5t144.5 -25q256 0 401 142t145 394q0 53 -13.5 109.5
t-33 102t-48 92.5t-51.5 78t-51 63t-39.5 43.5t-23.5 22.5q-2 2 -2 3l-712 686q-20 20 -50 20z" />
</svg>
