<?xml version="1.0" standalone="no"?>
<!DOCTYPE svg PUBLIC "-//W3C//DTD SVG 1.1//EN" "http://www.w3.org/Graphics/SVG/1.1/DTD/svg11.dtd" >
<svg xmlns="http://www.w3.org/2000/svg" xmlns:xlink="http://www.w3.org/1999/xlink" version="1.1" width="2048" height="2048" viewBox="-10 0 2068 2048">
   <path fill="currentColor"
d="M1765 112q118 0 200.5 85.5t82.5 202.5t-82.5 200t-200 83t-203 -83t-85.5 -200t85.5 -202.5t202.5 -85.5zM171 1936q-70 0 -120.5 -50.5t-50.5 -122.5t50.5 -120t120.5 -48h794q75 0 123 48t48 120t-48 122.5t-123 50.5h-794zM1488 1819l-160 -454h-416l-485 -485
l48 -43q58 -53 128 -96q101 -64 208 -101q133 -43 272 -43q224 0 320 64q53 38 85 123l325 923q22 64 -7.5 128t-96 88t-130.5 -5.5t-91 -98.5z" />
</svg>
