<?xml version="1.0" standalone="no"?>
<!DOCTYPE svg PUBLIC "-//W3C//DTD SVG 1.1//EN" "http://www.w3.org/Graphics/SVG/1.1/DTD/svg11.dtd" >
<svg xmlns="http://www.w3.org/2000/svg" xmlns:xlink="http://www.w3.org/1999/xlink" version="1.1" width="2048" height="2048" viewBox="-10 0 2068 2048">
   <path fill="currentColor"
d="M2048 1925l-1925 -1925l-123 123l507 508l-32 78h110l146 146h-644v146h791l329 329q-14 32 -28 69q-123 -50 -237 0q-32 -128 -137.5 -215t-237.5 -87q-160 0 -272 114.5t-112 276.5t112 276.5t267.5 114.5t265 -103t118.5 -258q41 -28 87 -32q73 -9 142 36
q14 151 121 254t258 103q87 0 160 -37l211 206zM567 1769q-114 0 -194 -82t-80 -199t80 -197t194 -80t194 80t80 197t-80 199t-194 82zM1554 1769q-114 0 -194 -82t-80 -197q0 -36 9 -73l343 338q-41 14 -78 14zM2034 1001h-663l-146 -146h809v146zM1554 1097
q160 0 272 114.5t112 278.5q0 32 -4 69l-110 -105q-9 -96 -77.5 -162.5t-160.5 -80.5l-105 -105q37 -9 73 -9zM1079 709l-434 -439l68 -179q14 -36 50.5 -54.5t73.5 -4.5l224 73l214 -73q42 -14 78.5 2t54.5 53l238 622h-567z" />
</svg>
