<?xml version="1.0" standalone="no"?>
<!DOCTYPE svg PUBLIC "-//W3C//DTD SVG 1.1//EN" "http://www.w3.org/Graphics/SVG/1.1/DTD/svg11.dtd" >
<svg xmlns="http://www.w3.org/2000/svg" xmlns:xlink="http://www.w3.org/1999/xlink" version="1.1" width="2048" height="2048" viewBox="-10 0 2058 2048">
   <path fill="currentColor"
d="M584 1608q-49 -71 -66 -172q-9 -62 -9 -190q154 93 224 146q115 79 168 154l31 53v-216q-128 -75 -199 -128q-101 -75 -149.5 -143t-65.5 -169q-9 -62 -9 -190q154 93 224 145q115 80 168 155l31 52v-215q-128 -75 -199 -128q-101 -75 -149.5 -143t-65.5 -170
q-9 -61 -9 -189q154 92 224 145q115 79 168 154q13 18 22 44q-27 -97 -27 -171q0 -93 40 -216q22 -71 84 -216q66 137 88 207q44 119 44 211q0 84 -27 181l22 -40q53 -75 168 -154q70 -53 224 -145q0 128 -9 189q-17 102 -65.5 170t-149.5 143q-71 53 -199 128v215l31 -52
q53 -75 168 -155q70 -52 224 -145q0 128 -9 190q-17 101 -65.5 169t-149.5 143q-71 53 -199 128v216l31 -53q53 -75 168 -154q70 -53 224 -146q0 128 -9 190q-17 101 -65.5 169.5t-149.5 143.5q-71 52 -199 127v172h-184v-172q-128 -75 -199 -127q-101 -75 -149 -141z" />
</svg>
