<?xml version="1.0" standalone="no"?>
<!DOCTYPE svg PUBLIC "-//W3C//DTD SVG 1.1//EN" "http://www.w3.org/Graphics/SVG/1.1/DTD/svg11.dtd" >
<svg xmlns="http://www.w3.org/2000/svg" xmlns:xlink="http://www.w3.org/1999/xlink" version="1.1" width="2048" height="2048" viewBox="-10 0 2068 2048">
   <path fill="currentColor"
d="M418 1906q-52 0 -95.5 -28t-69.5 -72l-244 -880l-9 -44q0 -39 28.5 -65t67.5 -26h423l431 -610q26 -39 74 -39t78 39l427 610h423q39 0 67.5 26t28.5 65l-4 31l-249 893q-26 44 -69.5 72t-95.5 28h-1212zM1024 394l-279 397h558zM1024 1161q-78 0 -132.5 54.5t-54.5 133
t54.5 133t132.5 54.5t132.5 -54.5t54.5 -133t-54.5 -133t-132.5 -54.5z" />
</svg>
