<?xml version="1.0" standalone="no"?>
<!DOCTYPE svg PUBLIC "-//W3C//DTD SVG 1.1//EN" "http://www.w3.org/Graphics/SVG/1.1/DTD/svg11.dtd" >
<svg xmlns="http://www.w3.org/2000/svg" xmlns:xlink="http://www.w3.org/1999/xlink" version="1.1" width="2048" height="2048" viewBox="-10 0 2058 2048">
   <path fill="currentColor"
d="M1878 1694q0 96 -38.5 177.5t-104 129t-142.5 47.5h-1139q-77 0 -142.5 -47.5t-103.5 -129t-38 -177.5q0 -79 6 -152.5t20 -150.5t36 -142t56.5 -123.5t79 -99t105.5 -64.5t134 -24q83 81 190.5 126.5t226 45.5t226.5 -45.5t191 -126.5q73 0 134 24t105.5 64.5t79 99
t56.5 123.5t36 142t20 150.5t6 152.5zM1536 512q0 104 -41 199t-109.5 163.5t-163.5 109.5t-199 41t-198.5 -41t-163 -109.5t-109 -163.5t-40.5 -199t40.5 -198.5t109 -163.5t163 -109.5t198.5 -40.5t199 40.5t163.5 109.5t109.5 163.5t41 198.5z" />
</svg>
