<?xml version="1.0" standalone="no"?>
<!DOCTYPE svg PUBLIC "-//W3C//DTD SVG 1.1//EN" "http://www.w3.org/Graphics/SVG/1.1/DTD/svg11.dtd" >
<svg xmlns="http://www.w3.org/2000/svg" xmlns:xlink="http://www.w3.org/1999/xlink" version="1.1" width="2048" height="2048" viewBox="-10 0 2068 2048">
   <path fill="currentColor"
d="M410 1706v-136q0 -28 -20 -48t-48 -20h-138q-28 0 -48 20t-20 48v136q0 28 20 48t48 20h138q28 0 48 -20t20 -48zM410 1297v-137q0 -28 -20 -48t-48 -20h-138q-28 0 -48 20t-20 48v137q0 28 20 48t48 20h138q28 0 48 -20t20 -48zM410 887v-137q0 -28 -20 -48t-48 -20
h-138q-28 0 -48 20t-20 48v137q0 28 20.5 48.5t47.5 20.5h138q28 0 48 -20.5t20 -48.5zM1502 1706v-546q0 -28 -20 -48t-48 -20h-820q-28 0 -48 20t-20 48v546q0 28 20 48t48 20h820q28 0 48 -20t20 -48zM410 478v-137q0 -28 -20 -48t-48 -20h-138q-28 0 -48 20t-20 48v137
q0 28 20 48t48 20h138q28 0 48 -20t20 -48zM1912 1706v-136q0 -28 -20 -48t-48 -20h-137q-28 0 -48.5 20t-20.5 48v136q0 28 20.5 48t48.5 20h137q28 0 48 -20t20 -48zM1502 887v-546q0 -28 -20 -48t-48 -20h-820q-28 0 -48 20t-20 48v546q0 28 20 48.5t48 20.5h820
q28 0 48 -20.5t20 -48.5zM1912 1297v-137q0 -28 -20 -48t-48 -20h-137q-28 0 -48.5 20t-20.5 48v137q0 27 20.5 47.5t48.5 20.5h137q28 0 48 -20t20 -48zM1912 887v-137q0 -28 -20 -48t-48 -20h-137q-28 0 -48.5 20.5t-20.5 47.5v137q0 28 20.5 48.5t48.5 20.5h137
q27 0 47.5 -20.5t20.5 -48.5zM1912 478v-137q0 -28 -20 -48t-48 -20h-137q-28 0 -48.5 20t-20.5 48v137q0 28 20.5 48t48.5 20h137q28 0 48 -20t20 -48zM2048 307v1434q0 71 -50 121t-121 50h-1706q-71 0 -121 -50t-50 -121v-1434q0 -71 50 -121t121 -50h1706q71 0 121 50
t50 121z" />
</svg>
