<?xml version="1.0" standalone="no"?>
<!DOCTYPE svg PUBLIC "-//W3C//DTD SVG 1.1//EN" "http://www.w3.org/Graphics/SVG/1.1/DTD/svg11.dtd" >
<svg xmlns="http://www.w3.org/2000/svg" xmlns:xlink="http://www.w3.org/1999/xlink" version="1.1" width="2048" height="2048" viewBox="-10 0 2058 2048">
   <path fill="currentColor"
d="M827 1851h394q0 83 -57.5 140t-139.5 57t-139.5 -57t-57.5 -140zM1902 1655v100h-1756v-100l197 -192v-585q0 -229 132.5 -409.5t351.5 -244.5v-32q0 -78 57.5 -135t139.5 -57t139.5 57t57.5 135v32q219 64 351.5 244.5t132.5 409.5v585zM1513 878q0 -137 -66 -249
t-178 -176t-245 -64t-245 64t-178 176t-66 249v681h978v-681z" />
</svg>
