<?xml version="1.0" standalone="no"?>
<!DOCTYPE svg PUBLIC "-//W3C//DTD SVG 1.1//EN" "http://www.w3.org/Graphics/SVG/1.1/DTD/svg11.dtd" >
<svg xmlns="http://www.w3.org/2000/svg" xmlns:xlink="http://www.w3.org/1999/xlink" version="1.1" width="2048" height="2048" viewBox="-10 0 2068 2048">
   <path fill="currentColor"
d="M0 48h187v649h650v-558h836q157 0 266 109t109 262v1490h-187v-187h-1674v187h-187v-1952zM1024 327v370h837v-187q0 -74 -54.5 -128.5t-133.5 -54.5h-649zM187 885v740h650v-557h836q105 0 188 56v-239h-1674zM514 1068q96 0 163.5 67.5t67.5 165.5t-67.5 165.5
t-165.5 67.5t-165.5 -67.5t-67.5 -165.5t67.5 -165.5t167.5 -67.5zM514 1216q-35 0 -61 26t-26 61t26 59t61 24t59 -24t24 -59t-24 -61t-59 -26zM1024 1255v370h837v-183q0 -78 -54.5 -132.5t-133.5 -54.5h-649zM514 139q96 0 163.5 68t67.5 166t-67.5 165.5t-165.5 67.5
t-165.5 -67.5t-67.5 -165.5t67.5 -166t167.5 -68zM514 288q-35 0 -61 24t-26 58.5t26 61t61 26.5t59 -26.5t24 -61t-24 -58.5t-59 -24z" />
</svg>
