<?xml version="1.0" standalone="no"?>
<!DOCTYPE svg PUBLIC "-//W3C//DTD SVG 1.1//EN" "http://www.w3.org/Graphics/SVG/1.1/DTD/svg11.dtd" >
<svg xmlns="http://www.w3.org/2000/svg" xmlns:xlink="http://www.w3.org/1999/xlink" version="1.1" width="2048" height="2048" viewBox="-10 0 2058 2048">
   <path fill="currentColor"
d="M1336 1048l-91 96q-48 48 -67 82q-29 48 -43 106h-207q14 -140 115 -241l125 -129q63 -58 63 -142t-60 -144.5t-147 -60.5t-147 60.5t-60 141.5h-202q0 -168 120.5 -288t288.5 -120t288.5 120t120.5 288q0 135 -97 231zM1125 1740h-202v-202h202v202zM1505 202h-173v-202
h-616v202h-173q-53 0 -93.5 41t-40.5 98v1572q0 58 40.5 96.5t93.5 38.5h962q53 0 93.5 -38.5t40.5 -96.5v-1572q0 -57 -40.5 -98t-93.5 -41z" />
</svg>
