<?xml version="1.0" standalone="no"?>
<!DOCTYPE svg PUBLIC "-//W3C//DTD SVG 1.1//EN" "http://www.w3.org/Graphics/SVG/1.1/DTD/svg11.dtd" >
<svg xmlns="http://www.w3.org/2000/svg" xmlns:xlink="http://www.w3.org/1999/xlink" version="1.1" width="2048" height="2048" viewBox="-10 0 2068 2048">
   <path fill="currentColor"
d="M945 1260v473q0 65 -46.5 111t-111.5 46h-630q-64 0 -110.5 -46t-46.5 -111v-473q0 -64 46.5 -110.5t110.5 -46.5h630q65 0 111.5 46.5t46.5 110.5zM945 315v473q0 64 -46.5 110.5t-111.5 46.5h-630q-64 0 -110.5 -46.5t-46.5 -110.5v-473q0 -65 46.5 -111t110.5 -46h630
q65 0 111.5 46t46.5 111zM2048 1260v473q0 65 -47 111t-111 46h-630q-65 0 -111 -46t-46 -111v-473q0 -64 46 -110.5t111 -46.5h630q64 0 111 46.5t47 110.5zM2048 315v473q0 64 -47 110.5t-111 46.5h-630q-65 0 -111 -46.5t-46 -110.5v-473q0 -65 46 -111t111 -46h630
q64 0 111 46t47 111z" />
</svg>
