<?xml version="1.0" standalone="no"?>
<!DOCTYPE svg PUBLIC "-//W3C//DTD SVG 1.1//EN" "http://www.w3.org/Graphics/SVG/1.1/DTD/svg11.dtd" >
<svg xmlns="http://www.w3.org/2000/svg" xmlns:xlink="http://www.w3.org/1999/xlink" version="1.1" width="2048" height="2048" viewBox="-10 0 2058 2048">
   <path fill="currentColor"
d="M1913 2021l-266 -262h-1453v-99l194 -189v-578q0 -167 77 -316l-451 -455l121 -122l1899 1899zM1732 1353v-460q0 -225 -133 -403.5t-345 -241.5v-31q0 -77 -56.5 -133.5t-137.5 -56.5t-137.5 56.5t-56.5 133.5v31q-86 23 -167 77zM1060 2048q81 0 137.5 -56.5
t56.5 -137.5h-388q0 81 56.5 137.5t137.5 56.5z" />
</svg>
