<?xml version="1.0" standalone="no"?>
<!DOCTYPE svg PUBLIC "-//W3C//DTD SVG 1.1//EN" "http://www.w3.org/Graphics/SVG/1.1/DTD/svg11.dtd" >
<svg xmlns="http://www.w3.org/2000/svg" xmlns:xlink="http://www.w3.org/1999/xlink" version="1.1" width="2048" height="2048" viewBox="-10 0 2068 2048">
   <path fill="currentColor"
d="M1076 194q-44 0 -78.5 24t-39 58.5t25.5 60.5l266 214l-810 4q-53 0 -94.5 28.5t-52 72t20 74t82.5 30.5l414 -4l-737 567q-56 43 -69 99.5t19.5 98t93.5 41.5t118 -39l396 -331v26q-4 30 -4 48q0 48 22 118q39 130 137 237t240 170t307.5 63t313.5 -65q135 -61 233 -170
t137 -240q22 -56 31 -131q0 -87 -9 -130q-17 -127 -82.5 -231.5t-161.5 -178.5l-641 -493q-30 -21 -78 -21zM1333 756q166 0 292 105q61 47 98 112.5t43.5 146.5t-21.5 155t-89 137t-144 98t-176.5 35t-178.5 -33t-146 -96t-89.5 -139t-20 -154.5t45.5 -146.5t98 -115
q123 -105 288 -105zM1342 887q-109 0 -189.5 69.5t-85 172t74 181t200.5 78.5t202.5 -78.5t76 -181t-87 -172t-191.5 -69.5z" />
</svg>
