<?xml version="1.0" standalone="no"?>
<!DOCTYPE svg PUBLIC "-//W3C//DTD SVG 1.1//EN" "http://www.w3.org/Graphics/SVG/1.1/DTD/svg11.dtd" >
<svg xmlns="http://www.w3.org/2000/svg" xmlns:xlink="http://www.w3.org/1999/xlink" version="1.1" width="2048" height="2048" viewBox="-10 0 2068 2048">
   <path fill="currentColor"
d="M585 1500v218q0 46 -32 78t-78 32h-365q-46 0 -78 -32t-32 -78v-218q0 -46 32 -78t78 -32h365q46 0 78 32t32 78zM585 914v220q0 45 -32 77.5t-78 32.5h-365q-46 0 -78 -32.5t-32 -77.5v-220q0 -45 32 -77.5t78 -32.5h365q46 0 78 32.5t32 77.5zM1317 1500v218
q0 46 -32 78t-78 32h-366q-46 0 -78 -32t-32 -78v-218q0 -46 32 -78t78 -32h366q46 0 78 32t32 78zM585 330v218q0 46 -32 78t-78 32h-365q-46 0 -78 -32t-32 -78v-218q0 -46 32 -78t78 -32h365q46 0 78 32t32 78zM1317 914v220q0 45 -32 77.5t-78 32.5h-366
q-46 0 -78 -32.5t-32 -77.5v-220q0 -45 32 -77.5t78 -32.5h366q46 0 78 32.5t32 77.5zM2048 1500v218q0 46 -32 78t-78 32h-365q-46 0 -78 -32t-32 -78v-218q0 -46 32 -78t78 -32h365q46 0 78 32t32 78zM1317 330v218q0 46 -32 78t-78 32h-366q-46 0 -78 -32t-32 -78v-218
q0 -46 32 -78t78 -32h366q46 0 78 32t32 78zM2048 914v220q0 45 -32 77.5t-78 32.5h-365q-46 0 -78 -32.5t-32 -77.5v-220q0 -45 32 -77.5t78 -32.5h365q46 0 78 32.5t32 77.5zM2048 330v218q0 46 -32 78t-78 32h-365q-46 0 -78 -32t-32 -78v-218q0 -46 32 -78t78 -32h365
q46 0 78 32t32 78z" />
</svg>
