<?xml version="1.0" standalone="no"?>
<!DOCTYPE svg PUBLIC "-//W3C//DTD SVG 1.1//EN" "http://www.w3.org/Graphics/SVG/1.1/DTD/svg11.dtd" >
<svg xmlns="http://www.w3.org/2000/svg" xmlns:xlink="http://www.w3.org/1999/xlink" version="1.1" width="2048" height="2048" viewBox="-10 0 2058 2048">
   <path fill="currentColor"
d="M755 1511v537h-227v-1593q0 -209 123 -332t337 -123q195 0 311 98t116 271q0 118 -75 222.5t-193 141.5v4q182 32 277.5 134.5t95.5 266.5q0 191 -132 311.5t-350 120.5q-155 0 -283 -59zM901 847v-187q123 -14 205 -93.5t82 -179.5q0 -200 -205 -200q-109 0 -168.5 70.5
t-59.5 197.5v856q132 77 257.5 77t193.5 -63.5t68 -182.5q0 -259 -373 -295z" />
</svg>
