<?xml version="1.0" standalone="no"?>
<!DOCTYPE svg PUBLIC "-//W3C//DTD SVG 1.1//EN" "http://www.w3.org/Graphics/SVG/1.1/DTD/svg11.dtd" >
<svg xmlns="http://www.w3.org/2000/svg" xmlns:xlink="http://www.w3.org/1999/xlink" version="1.1" width="2048" height="2048" viewBox="-10 0 2058 2048">
   <path fill="currentColor"
d="M1536 1024q153 0 270 65q9 -56 9 -157v-557l-837 -375l-836 375v557q0 253 108.5 486t298.5 401t429 229q39 -9 92 -31q-140 -165 -140 -387q0 -166 83 -305.5t220 -220t303 -80.5zM1536 1255q161 0 261 113l109 -113v375h-370l166 -170q-79 -66 -166 -66
q-96 0 -163.5 67.5t-67.5 166t67.5 166t163.5 67.5q109 0 187 -92h157q-43 105 -134.5 168t-209.5 63q-153 0 -261.5 -109t-108.5 -263.5t108.5 -263.5t261.5 -109z" />
</svg>
