<?xml version="1.0" standalone="no"?>
<!DOCTYPE svg PUBLIC "-//W3C//DTD SVG 1.1//EN" "http://www.w3.org/Graphics/SVG/1.1/DTD/svg11.dtd" >
<svg xmlns="http://www.w3.org/2000/svg" xmlns:xlink="http://www.w3.org/1999/xlink" version="1.1" width="2048" height="2048" viewBox="-10 0 2058 2048">
   <path fill="currentColor"
d="M912 341h224v795h-224v-795zM683 1936q0 48 -32 80t-80 32h-342q-48 0 -82.5 -32t-34.5 -80v-571l229 -1024h454v795q0 48 -32 82.5t-80 34.5v683zM795 229h-342v-229h342v229zM1365 1936v-683q-48 0 -80 -34.5t-32 -82.5v-795h454l229 1024v571q0 48 -34.5 80t-82.5 32
h-342q-48 0 -80 -32t-32 -80zM1253 229v-229h342v229h-342z" />
</svg>
