<?xml version="1.0" standalone="no"?>
<!DOCTYPE svg PUBLIC "-//W3C//DTD SVG 1.1//EN" "http://www.w3.org/Graphics/SVG/1.1/DTD/svg11.dtd" >
<svg xmlns="http://www.w3.org/2000/svg" xmlns:xlink="http://www.w3.org/1999/xlink" version="1.1" width="2048" height="2048" viewBox="-10 0 2058 2048">
   <path fill="currentColor"
d="M1115 1466l-192 193v-390zM923 389l192 193l-192 192v-385zM1404 582l-587 -582h-101v774l-471 -466l-144 144l572 572l-572 572l144 144l471 -471v779h101l587 -582l-442 -442zM1798 481l-130 134q101 188 101 409t-101 409l120 125q159 -250 159 -541t-149 -536z
M1255 1024l235 240q48 -120 48 -240t-48 -236z" />
</svg>
