<?xml version="1.0" standalone="no"?>
<!DOCTYPE svg PUBLIC "-//W3C//DTD SVG 1.1//EN" "http://www.w3.org/Graphics/SVG/1.1/DTD/svg11.dtd" >
<svg xmlns="http://www.w3.org/2000/svg" xmlns:xlink="http://www.w3.org/1999/xlink" version="1.1" width="2048" height="2048" viewBox="-10 0 2068 2048">
   <path fill="currentColor"
d="M1241 646q-71 0 -116.5 48t-45.5 116t45.5 113.5t113.5 45.5t116 -45.5t48 -113.5t-48 -116t-113 -48zM1241 1079q-71 0 -116.5 45.5t-45.5 113.5t45.5 116t113.5 48t116 -48t48 -116t-48 -113.5t-113 -45.5zM807 1564q-45 0 -75.5 30t-30.5 75.5t30.5 76t75.5 30.5
t78 -30.5t33 -76t-33 -75.5t-78 -30zM807 646q-65 0 -113 48t-48 116t48 113.5t116 45.5t113.5 -45.5t45.5 -113.5t-45.5 -116t-116.5 -48zM1241 1937q-25 0 -40.5 17.5t-15.5 38t15.5 38t38 17.5t37.5 -17.5t15 -38t-15 -38t-35 -17.5zM1241 1564q-45 0 -78 30t-33 75.5
t33 76t78 30.5t75.5 -30.5t30.5 -76t-30.5 -75.5t-75.5 -30zM1993 1185q-21 0 -38.5 15.5t-17.5 38t17.5 37.5t38 15t38 -15t17.5 -37.5t-17.5 -38t-37.5 -15.5zM1670 272q-46 0 -76 30.5t-30 76t30 75.5t75.5 30t76 -30t30.5 -75.5t-30.5 -76t-75.5 -30.5zM1670 701
q-46 0 -76 30.5t-30 75.5t30 78t75.5 33t76 -33t30.5 -78t-30.5 -75.5t-75.5 -30.5zM1670 1564q-46 0 -76 30t-30 75.5t30 76t75.5 30.5t76 -30.5t30.5 -76t-30.5 -75.5t-75.5 -30zM1670 1130q-46 0 -76 33t-30 78t30 75.5t75.5 30.5t76 -30.5t30.5 -75.5t-30.5 -78
t-75.5 -33zM807 1079q-65 0 -113 45.5t-48 113.5t48 116t116 48t113.5 -48t45.5 -116t-45.5 -113.5t-116.5 -45.5zM807 484q45 0 78 -30t33 -75.5t-33 -76t-78 -30.5t-75.5 30.5t-30.5 76t30.5 75.5t75.5 30zM807 111q25 0 40.5 -17.5t15.5 -38t-15.5 -38t-38 -17.5
t-37.5 17.5t-15 38t15 38t35 17.5zM807 1937q-20 0 -35 17.5t-15 38t15 38t37.5 17.5t38 -17.5t15.5 -38t-15.5 -38t-40.5 -17.5zM55 1185q-20 0 -37.5 15.5t-17.5 38t17.5 37.5t38 15t38 -15t17.5 -37.5t-17.5 -38t-38.5 -15.5zM1241 111q20 0 35 -17.5t15 -38t-15 -38
t-37.5 -17.5t-38 17.5t-15.5 38t15.5 38t40.5 17.5zM1241 484q45 0 75.5 -30t30.5 -75.5t-30.5 -76t-75.5 -30.5t-78 30.5t-33 76t33 75.5t78 30zM1993 863q20 0 37.5 -15.5t17.5 -38t-17.5 -37.5t-38 -15t-38 15t-17.5 37.5t17.5 38t38.5 15.5zM378 272q-45 0 -75.5 30.5
t-30.5 76t30.5 75.5t76 30t75.5 -30t30 -75.5t-30 -76t-76 -30.5zM55 757q-20 0 -37.5 15t-17.5 37.5t17.5 38t38 15.5t38 -15.5t17.5 -38t-17.5 -37.5t-38.5 -15zM378 701q-45 0 -75.5 30.5t-30.5 75.5t30.5 78t76 33t75.5 -33t30 -78t-30 -75.5t-76 -30.5zM378 1564
q-45 0 -75.5 30t-30.5 75.5t30.5 76t76 30.5t75.5 -30.5t30 -76t-30 -75.5t-76 -30zM378 1130q-45 0 -75.5 33t-30.5 78t30.5 75.5t76 30.5t75.5 -30.5t30 -75.5t-30 -78t-76 -33z" />
</svg>
