<?xml version="1.0" standalone="no"?>
<!DOCTYPE svg PUBLIC "-//W3C//DTD SVG 1.1//EN" "http://www.w3.org/Graphics/SVG/1.1/DTD/svg11.dtd" >
<svg xmlns="http://www.w3.org/2000/svg" xmlns:xlink="http://www.w3.org/1999/xlink" version="1.1" width="2048" height="2048" viewBox="-10 0 2068 2048">
   <path fill="currentColor"
d="M55 1185q-20 0 -37.5 15.5t-17.5 38t17.5 37.5t38 15t38 -15t17.5 -37.5t-17.5 -38t-38.5 -15.5zM378 1564q-45 0 -75.5 30t-30.5 75.5t30.5 76t76 30.5t75.5 -30.5t30 -76t-30 -75.5t-76 -30zM807 1937q-20 0 -35 17.5t-15 38t15 38t37.5 17.5t38 -17.5t15.5 -38
t-15.5 -38t-40.5 -17.5zM55 757q-20 0 -37.5 15t-17.5 37.5t17.5 38t38 15.5t38 -15.5t17.5 -38t-17.5 -37.5t-38.5 -15zM378 1130q-45 0 -75.5 33t-30.5 78t30.5 75.5t76 30.5t75.5 -30.5t30 -75.5t-30 -78t-76 -33zM1993 1185q-21 0 -38.5 15.5t-17.5 38t17.5 37.5t38 15
t38 -15t17.5 -37.5t-17.5 -38t-37.5 -15.5zM807 1564q-45 0 -75.5 30t-30.5 75.5t30.5 76t75.5 30.5t78 -30.5t33 -76t-33 -75.5t-78 -30zM0 298l409 408l-31 -5q-45 0 -75.5 30.5t-30.5 75.5t30.5 78t76 33t75.5 -33t30 -78q0 -10 -5 -30l303 302q-56 11 -96 56t-40 108
t48 111t111 48t108 -40t56 -96l302 303q-20 -5 -30 -5q-45 0 -78 30t-33 75.5t33 76t78 30.5t75.5 -30.5t30.5 -75.5q0 -10 -5 -31l403 409l142 -136l-1751 -1751zM1241 1937q-25 0 -40.5 17.5t-15.5 38t15.5 38t38 17.5t37.5 -17.5t15 -38t-15 -38t-35 -17.5zM1670 484
q45 0 75.5 -30t30.5 -75.5t-30.5 -76t-76 -30.5t-75.5 30.5t-30 76t30 75.5t76 30zM1670 918q45 0 75.5 -33t30.5 -78t-30.5 -75.5t-76 -30.5t-75.5 30.5t-30 75.5t30 78t76 33zM1670 1347q45 0 75.5 -30.5t30.5 -75.5t-30.5 -78t-76 -33t-75.5 33t-30 78t30 75.5t76 30.5z
M807 484q45 0 78 -30t33 -75.5t-33 -76t-78 -30.5t-75.5 30.5t-30.5 76t30.5 75.5t75.5 30zM1993 863q20 0 37.5 -15.5t17.5 -38t-17.5 -37.5t-38 -15t-38 15t-17.5 37.5t17.5 38t38.5 15.5zM807 111q25 0 40.5 -17.5t15.5 -38t-15.5 -38t-38 -17.5t-37.5 17.5t-15 38t15 38
t35 17.5zM1241 111q20 0 35 -17.5t15 -38t-15 -38t-37.5 -17.5t-38 17.5t-15.5 38t15.5 38t40.5 17.5zM1216 969h25q65 0 113 -45.5t48 -113.5t-48 -116t-116 -48t-113.5 48t-45.5 113v25q6 51 46 91t91 46zM1241 484q45 0 75.5 -30t30.5 -75.5t-30.5 -76t-75.5 -30.5
t-78 30.5t-33 76t33 75.5t78 30z" />
</svg>
