<?xml version="1.0" standalone="no"?>
<!DOCTYPE svg PUBLIC "-//W3C//DTD SVG 1.1//EN" "http://www.w3.org/Graphics/SVG/1.1/DTD/svg11.dtd" >
<svg xmlns="http://www.w3.org/2000/svg" xmlns:xlink="http://www.w3.org/1999/xlink" version="1.1" width="2048" height="2048" viewBox="-10 0 2068 2048">
   <path fill="currentColor"
d="M1861 281q-149 -48 -327 -48q-148 0 -270 31q-144 34 -240 109q-96 -75 -240 -109q-122 -31 -270 -31t-274 31q-144 34 -240 109v1363q0 18 15.5 31t32.5 13l22 -4q96 -44 218 -72.5t226 -28.5q148 0 270 31q144 35 240 109q92 -61 242 -100.5t268 -39.5q261 0 444 96
q9 5 24 5t30.5 -15.5t15.5 -32.5v-1355q-74 -57 -187 -92zM1861 1536q-149 -48 -327 -48q-118 0 -268 41.5t-242 98.5v-1068q92 -61 242 -100.5t268 -39.5q178 0 327 44v1072z" />
</svg>
