<?xml version="1.0" standalone="no"?>
<!DOCTYPE svg PUBLIC "-//W3C//DTD SVG 1.1//EN" "http://www.w3.org/Graphics/SVG/1.1/DTD/svg11.dtd" >
<svg xmlns="http://www.w3.org/2000/svg" xmlns:xlink="http://www.w3.org/1999/xlink" version="1.1" width="2048" height="2048" viewBox="-10 0 2068 2048">
   <path fill="currentColor"
d="M1231 1125q-44 0 -75 31t-31 74.5t31 72.5t74.5 29t72.5 -29t29 -72.5t-29 -74.5t-72 -31zM1231 1486q-24 0 -38.5 14t-14.5 36t14.5 36t36 14t36 -14t14.5 -36t-14.5 -36t-33.5 -14zM1024 1846q-221 0 -411 -110.5t-300.5 -300.5t-110.5 -411t110.5 -411t300.5 -300.5
t411 -110.5t411 110.5t300.5 300.5t110.5 411t-110.5 411t-300.5 300.5t-411 110.5zM1024 0q-202 0 -392 77t-334 221t-221 334t-77 392t77 392t221 334t334 221t392 77t392 -77t334 -221t221 -334t77 -392t-77 -392t-221 -334t-334 -221t-392 -77zM1538 769q-24 0 -38 14.5
t-14 36t14 36t36 14.5t36 -14.5t14 -36t-14 -36t-34 -14.5zM1538 1178q-24 0 -38 14.5t-14 36t14 36t36 14.5t36 -14.5t14 -36t-14 -36t-34 -14.5zM1231 562q19 0 33.5 -14t14.5 -36t-14.5 -36t-36 -14t-36 14t-14.5 36t14.5 36t38.5 14zM1231 716q-44 0 -75 29t-31 72.5
t31 74.5t74.5 31t72.5 -31t29 -74.5t-29 -72.5t-72 -29zM817 562q24 0 38.5 -14t14.5 -36t-14.5 -36t-36 -14t-36 14t-14.5 36t14.5 36t33.5 14zM510 1178q-20 0 -34 14.5t-14 36t14 36t36 14.5t36 -14.5t14 -36t-14 -36t-38 -14.5zM817 1486q-19 0 -33.5 14t-14.5 36
t14.5 36t36 14t36 -14t14.5 -36t-14.5 -36t-38.5 -14zM510 769q-20 0 -34 14.5t-14 36t14 36t36 14.5t36 -14.5t14 -36t-14 -36t-38 -14.5zM817 1125q-43 0 -72 31t-29 74.5t29 72.5t72.5 29t74.5 -29t31 -72.5t-31 -74.5t-75 -31zM817 716q-43 0 -72 29t-29 72.5t29 74.5
t72.5 31t74.5 -31t31 -74.5t-31 -72.5t-75 -29z" />
</svg>
