<?xml version="1.0" standalone="no"?>
<!DOCTYPE svg PUBLIC "-//W3C//DTD SVG 1.1//EN" "http://www.w3.org/Graphics/SVG/1.1/DTD/svg11.dtd" >
<svg xmlns="http://www.w3.org/2000/svg" xmlns:xlink="http://www.w3.org/1999/xlink" version="1.1" width="2048" height="2048" viewBox="-10 0 2068 2048">
   <path fill="currentColor"
d="M229 1365h-229v230h229v-230zM0 2048h2048v-229h-2048v229zM229 912h-229v224h229v-224zM1819 683h229v-230h-229v230zM1819 229h229v-229h-229v229zM229 453h-229v230h229v-230zM1819 1595h229v-230h-229v230zM1819 1136h229v-224h-229v224zM1595 0h-230v229h230v-229z
M1136 0h-224v229h224v-229zM1595 912h-230v224h230v-224zM1136 453h-224v230h224v-230zM229 0h-229v229h229v-229zM1136 912h-224v224h224v-224zM683 0h-230v229h230v-229zM1136 1365h-224v230h224v-230zM683 912h-230v224h230v-224z" />
</svg>
