<?xml version="1.0" standalone="no"?>
<!DOCTYPE svg PUBLIC "-//W3C//DTD SVG 1.1//EN" "http://www.w3.org/Graphics/SVG/1.1/DTD/svg11.dtd" >
<svg xmlns="http://www.w3.org/2000/svg" xmlns:xlink="http://www.w3.org/1999/xlink" version="1.1" width="2048" height="2048" viewBox="-10 0 2068 2048">
   <path fill="currentColor"
d="M912 683h224v-230h-224v230zM912 229h224v-229h-224v229zM912 1136h224v-224h-224v224zM1365 229h230v-229h-230v229zM1365 2048h230v-229h-230v229zM1819 2048h229v-2048h-229v2048zM1365 1136h230v-224h-230v224zM912 1595h224v-230h-224v230zM0 683h229v-230h-229v230
zM0 1595h229v-230h-229v230zM0 1136h229v-224h-229v224zM912 2048h224v-229h-224v229zM0 2048h229v-229h-229v229zM453 1136h230v-224h-230v224zM453 229h230v-229h-230v229zM0 229h229v-229h-229v229zM453 2048h230v-229h-230v229z" />
</svg>
