<?xml version="1.0" standalone="no"?>
<!DOCTYPE svg PUBLIC "-//W3C//DTD SVG 1.1//EN" "http://www.w3.org/Graphics/SVG/1.1/DTD/svg11.dtd" >
<svg xmlns="http://www.w3.org/2000/svg" xmlns:xlink="http://www.w3.org/1999/xlink" version="1.1" width="2048" height="2048" viewBox="-10 0 2068 2048">
   <path fill="currentColor"
d="M1338 1192q0 -100 -70 -170t-168 -70t-167.5 70t-69.5 170q0 96 69.5 165.5t167.5 69.5t168 -69.5t70 -165.5zM1499 1192q0 161 -117.5 278.5t-283.5 117.5q-109 0 -202.5 -58.5t-146.5 -154.5q-52 96 -145.5 154.5t-202.5 58.5q-166 0 -281.5 -115.5t-119.5 -276.5v-662
q0 -31 24 -52.5t56.5 -21.5t56.5 21.5t24 52.5v340q105 -83 240 -83q109 0 202.5 59t145.5 154q53 -95 146.5 -154t202.5 -59q166 0 283.5 117.5t117.5 283.5zM636 1192q0 -100 -69.5 -170t-167.5 -70t-168 70t-70 170q0 96 70 165.5t168 69.5t167.5 -69.5t69.5 -165.5z
M2031 1462q17 22 17 48q0 39 -35 61q-22 17 -43 17q-40 0 -61 -30l-179 -236l-174 236q-27 30 -66 30q-22 0 -50 -19.5t-28 -63.5q0 -21 13 -43l205 -270l-205 -275q-13 -22 -13 -48q0 -35 28 -58.5t61 -19.5t55 30l174 236l179 -236q17 -26 47.5 -30t61 17.5t30.5 65.5
q0 26 -17 43l-201 275z" />
</svg>
