<?xml version="1.0" standalone="no"?>
<!DOCTYPE svg PUBLIC "-//W3C//DTD SVG 1.1//EN" "http://www.w3.org/Graphics/SVG/1.1/DTD/svg11.dtd" >
<svg xmlns="http://www.w3.org/2000/svg" xmlns:xlink="http://www.w3.org/1999/xlink" version="1.1" width="2048" height="2048" viewBox="-10 0 2068 2048">
   <path fill="currentColor"
d="M1024 1568q-119 0 -225 -51q140 -64 227 -198t87 -295t-87 -295t-227 -198q106 -51 225 -51q149 0 274 72.5t197.5 197.5t72.5 274t-72.5 274t-197.5 197.5t-274 72.5zM1751 722v-425h-425l-302 -297l-302 297h-425v425l-297 302l297 302v425h425l302 297l302 -297h425
v-425l297 -302z" />
</svg>
