<?xml version="1.0" standalone="no"?>
<!DOCTYPE svg PUBLIC "-//W3C//DTD SVG 1.1//EN" "http://www.w3.org/Graphics/SVG/1.1/DTD/svg11.dtd" >
<svg xmlns="http://www.w3.org/2000/svg" xmlns:xlink="http://www.w3.org/1999/xlink" version="1.1" width="2048" height="2048" viewBox="-10 0 2068 2048">
   <path fill="currentColor"
d="M1024 0q202 0 392 77t334 221t221 334t77 392t-77 392t-221 334t-334 221t-392 77t-392 -77t-334 -221t-221 -334t-77 -392t77 -392t221 -334t334 -221t392 -77zM1077 923q-67 0 -110.5 43.5t-43.5 108t43.5 110.5t108 46t110.5 -46t46 -110.5t-46 -108t-108 -43.5z
M1024 308q-87 0 -147 60t-60 144t60 144t147 60t147 -60t60 -144t-60 -144t-147 -60zM404 663q-43 77 -21.5 159t93.5 123t156 19t125 -96.5t19.5 -156t-93.5 -122.5t-154 -19.5t-125 93.5z" />
</svg>
