<?xml version="1.0" standalone="no"?>
<!DOCTYPE svg PUBLIC "-//W3C//DTD SVG 1.1//EN" "http://www.w3.org/Graphics/SVG/1.1/DTD/svg11.dtd" >
<svg xmlns="http://www.w3.org/2000/svg" xmlns:xlink="http://www.w3.org/1999/xlink" version="1.1" width="2048" height="2048" viewBox="-10 0 2058 2048">
   <path fill="currentColor"
d="M1024 559q79 0 133.5 -54.5t54.5 -133.5q0 -52 -31 -96l-157 -275l-157 275q-31 44 -31 96q0 79 54.5 133.5t133.5 54.5zM1452 1489l-100 -100l-101 100q-92 92 -227 92t-227 -92l-101 -100l-100 100q-96 96 -227 96q-100 0 -183 -57v428q0 40 26 66t65 26h1494
q39 0 65 -26t26 -66v-428q-83 57 -183 57q-131 0 -227 -96zM1583 838h-467v-187h-184v187h-467q-118 0 -198.5 81t-80.5 199v144q0 74 54.5 128.5t131 54.5t124.5 -52l200 -201l197 201q52 48 131 48t127 -48l201 -201l200 201q48 52 124.5 52t131 -54.5t54.5 -128.5v-144
q0 -118 -80.5 -199t-198.5 -81z" />
</svg>
