<?xml version="1.0" standalone="no"?>
<!DOCTYPE svg PUBLIC "-//W3C//DTD SVG 1.1//EN" "http://www.w3.org/Graphics/SVG/1.1/DTD/svg11.dtd" >
<svg xmlns="http://www.w3.org/2000/svg" xmlns:xlink="http://www.w3.org/1999/xlink" version="1.1" width="2048" height="2048" viewBox="-10 0 2058 2048">
   <path fill="currentColor"
d="M1028 231l-235 236h467zM277 651v1214h1494v-1214h-1494zM1024 0l467 467h280q74 0 128.5 54.5t54.5 129.5v1214q0 74 -54.5 128.5t-128.5 54.5h-1494q-74 0 -128.5 -54.5t-54.5 -128.5v-1214q0 -75 54.5 -129.5t128.5 -54.5h280zM557 1677v-371h467v371h-467zM1212 1585
v-655h371v655h-371zM465 1118v-280h467v280h-467z" />
</svg>
