<?xml version="1.0" standalone="no"?>
<!DOCTYPE svg PUBLIC "-//W3C//DTD SVG 1.1//EN" "http://www.w3.org/Graphics/SVG/1.1/DTD/svg11.dtd" >
<svg xmlns="http://www.w3.org/2000/svg" xmlns:xlink="http://www.w3.org/1999/xlink" version="1.1" width="2048" height="2048" viewBox="-10 0 2068 2048">
   <path fill="currentColor"
d="M1861 1861v-371q0 -78 -54.5 -132.5t-133.5 -54.5h-91v-279q0 -78 -54.5 -132.5t-133.5 -54.5h-278v-183h-184v183h-278q-79 0 -133.5 54.5t-54.5 132.5v279h-91q-79 0 -133.5 54.5t-54.5 132.5v371h-187v187h2048v-187h-187zM1024 558q78 0 132.5 -54.5t54.5 -128.5
q0 -57 -30 -96l-157 -279l-161 279q-26 43 -26 96q0 74 54.5 128.5t132.5 54.5z" />
</svg>
