<?xml version="1.0" standalone="no"?>
<!DOCTYPE svg PUBLIC "-//W3C//DTD SVG 1.1//EN" "http://www.w3.org/Graphics/SVG/1.1/DTD/svg11.dtd" >
<svg xmlns="http://www.w3.org/2000/svg" xmlns:xlink="http://www.w3.org/1999/xlink" version="1.1" width="2048" height="2048" viewBox="-10 0 2068 2048">
   <path fill="currentColor"
d="M1260 827v79q0 15 -12 27t-27 12h-276v276q0 15 -12 27t-27 12h-79q-15 0 -27.5 -12t-12.5 -27v-276h-276q-15 0 -26.5 -12t-11.5 -27v-79q0 -15 11.5 -27.5t26.5 -12.5h276v-276q0 -15 12.5 -26.5t27.5 -11.5h79q15 0 27 11.5t12 26.5v276h276q15 0 27 12.5t12 27.5z
M1418 866q0 -112 -43.5 -214t-117.5 -176t-176 -118t-214 -44t-214 44t-176 118t-118 176t-44 214t44 214t118 175.5t176 117.5t214 44t214 -44t176 -117.5t117.5 -175.5t43.5 -214zM2048 1890q0 65 -46.5 111.5t-111.5 46.5q-64 0 -110 -47l-422 -421q-108 74 -234 113.5
t-257 39.5q-118 0 -230.5 -31.5t-207.5 -87t-175 -135.5t-136 -175t-87 -207.5t-31 -230.5t31 -230.5t87 -207.5t136 -174.5t175 -135.5t207.5 -87t230.5 -31t230 31t207 87t175 135.5t135.5 174.5t87 207.5t31.5 230.5q0 131 -39.5 257t-113.5 234l422 422q46 46 46 111z
" />
</svg>
