<?xml version="1.0" standalone="no"?>
<!DOCTYPE svg PUBLIC "-//W3C//DTD SVG 1.1//EN" "http://www.w3.org/Graphics/SVG/1.1/DTD/svg11.dtd" >
<svg xmlns="http://www.w3.org/2000/svg" xmlns:xlink="http://www.w3.org/1999/xlink" version="1.1" width="2048" height="2048" viewBox="-10 0 2058 2048">
   <path fill="currentColor"
d="M510 0h1028q82 0 142 60t60 142v1644q0 82 -60 142t-142 60h-1028q-82 0 -142 -60t-60 -142v-1644q0 -82 60 -142t142 -60zM510 202v413h1028v-413h-1028zM510 817v207h206v-207h-206zM923 817v207h202v-207h-202zM1332 817v207h206v-207h-206zM510 1231v202h206v-202
h-206zM923 1231v202h202v-202h-202zM1332 1231v202h206v-202h-206zM510 1639v207h206v-207h-206zM923 1639v207h202v-207h-202zM1332 1639v207h206v-207h-206z" />
</svg>
