<?xml version="1.0" standalone="no"?>
<!DOCTYPE svg PUBLIC "-//W3C//DTD SVG 1.1//EN" "http://www.w3.org/Graphics/SVG/1.1/DTD/svg11.dtd" >
<svg xmlns="http://www.w3.org/2000/svg" xmlns:xlink="http://www.w3.org/1999/xlink" version="1.1" width="2048" height="2048" viewBox="-10 0 2058 2048">
   <path fill="currentColor"
d="M1209 1116h140v261l226 135l-70 118l-296 -170v-344zM1580 654h-1299v1019h431q-61 -130 -61 -279q0 -174 87.5 -324.5t237.5 -237.5t325 -87q148 0 279 61v-152zM281 1861q-78 0 -132.5 -54.5t-54.5 -133.5v-1298q0 -79 54.5 -133.5t132.5 -54.5h92v-187h187v187h741
v-187h187v187h92q78 0 132.5 54.5t54.5 133.5v566q87 87 137 205t50 248q0 179 -89 327t-237.5 237.5t-326.5 89.5q-131 0 -248.5 -50t-204.5 -137h-567zM1301 946q-122 0 -224.5 61t-163.5 163t-61 224t61 227t163.5 166t224.5 61q91 0 174 -35t146 -98.5t98 -146
t35 -174.5q0 -122 -61 -224t-165.5 -163t-226.5 -61z" />
</svg>
