<?xml version="1.0" standalone="no"?>
<!DOCTYPE svg PUBLIC "-//W3C//DTD SVG 1.1//EN" "http://www.w3.org/Graphics/SVG/1.1/DTD/svg11.dtd" >
<svg xmlns="http://www.w3.org/2000/svg" xmlns:xlink="http://www.w3.org/1999/xlink" version="1.1" width="2048" height="2048" viewBox="-10 0 2068 2048">
   <path fill="currentColor"
d="M1861 1490v-836h-1303v836h1303zM1861 187q78 0 132.5 54.5t54.5 133.5v1115q0 74 -54.5 128.5t-132.5 54.5h-1303q-74 0 -128.5 -54.5t-54.5 -128.5v-1115q0 -79 54.5 -133.5t128.5 -54.5h96v-187h183v187h745v-187h187v187h92zM187 1861h1303v187h-1303
q-78 0 -132.5 -54.5t-54.5 -132.5v-1116h187v1116zM1673 1303h-370v-371h370v371z" />
</svg>
