<?xml version="1.0" standalone="no"?>
<!DOCTYPE svg PUBLIC "-//W3C//DTD SVG 1.1//EN" "http://www.w3.org/Graphics/SVG/1.1/DTD/svg11.dtd" >
<svg xmlns="http://www.w3.org/2000/svg" xmlns:xlink="http://www.w3.org/1999/xlink" version="1.1" width="2048" height="2048" viewBox="-10 0 2068 2048">
   <path fill="currentColor"
d="M2048 1929l-1234 -1239l-686 -685l-128 118l160 156q-69 96 -69 233v1271q0 78 57.5 135t134.5 57h586q82 0 139 -57t57 -135v-594l96 96v105h110l654 653zM384 1783q-37 0 -69 -32t-32 -68.5t32 -66.5t69 -30t66.5 30t29.5 66.5t-29.5 68.5t-66.5 32zM576 805
q-123 0 -208 -82.5t-85 -210.5q0 -27 23 -87l371 370q-23 0 -55 5t-46 5zM599 219l-169 -164q73 -28 146 -28q137 0 249 64t176 176t64 245v178l-196 -196q-5 -110 -82.5 -187.5t-187.5 -87.5zM1847 709h-686v-197h686q78 0 135 57t57 140v489q0 77 -57 134.5t-135 57.5h-78
l-196 -192h274v-489z" />
</svg>
