<?xml version="1.0" standalone="no"?>
<!DOCTYPE svg PUBLIC "-//W3C//DTD SVG 1.1//EN" "http://www.w3.org/Graphics/SVG/1.1/DTD/svg11.dtd" >
<svg xmlns="http://www.w3.org/2000/svg" xmlns:xlink="http://www.w3.org/1999/xlink" version="1.1" width="2048" height="2048" viewBox="-10 0 2068 2048">
   <path fill="currentColor"
d="M1202 1332l-399 692q115 24 221 24q183 0 348.5 -60t300.5 -171l-375 -649zM43 1332q72 226 235.5 396.5t380.5 252.5l379 -649h-995zM668 1024l-399 -692q-130 134 -199.5 314.5t-69.5 377.5q0 101 19 207h769zM2029 817h-769l519 899q130 -139 199.5 -317t69.5 -375
q0 -106 -19 -207zM2005 716q-72 -226 -235.5 -396.5t-380.5 -252.5l-379 649h995zM760 870l485 -846q-115 -24 -221 -24q-183 0 -348.5 60t-300.5 171l375 649z" />
</svg>
