<?xml version="1.0" standalone="no"?>
<!DOCTYPE svg PUBLIC "-//W3C//DTD SVG 1.1//EN" "http://www.w3.org/Graphics/SVG/1.1/DTD/svg11.dtd" >
<svg xmlns="http://www.w3.org/2000/svg" xmlns:xlink="http://www.w3.org/1999/xlink" version="1.1" width="2048" height="2048" viewBox="-10 0 2068 2048">
   <path fill="currentColor"
d="M716 101l-187 207h-327q-82 0 -142 60t-60 142v1230q0 87 60 147t142 60h1644q82 0 142 -60t60 -147v-1230q0 -82 -60 -142t-142 -60h-327l-187 -207h-616zM1024 1639q-101 0 -194.5 -38.5t-166 -110.5t-113 -165.5t-40.5 -197t40.5 -197t113 -166t166 -111t194.5 -38.5
q139 0 257 67.5t187.5 185.5t69.5 257t-69.5 257t-187.5 187.5t-257 69.5zM1024 1538l130 -283l279 -130l-279 -125l-130 -284l-130 284l-279 125l279 130z" />
</svg>
