<?xml version="1.0" standalone="no"?>
<!DOCTYPE svg PUBLIC "-//W3C//DTD SVG 1.1//EN" "http://www.w3.org/Graphics/SVG/1.1/DTD/svg11.dtd" >
<svg xmlns="http://www.w3.org/2000/svg" xmlns:xlink="http://www.w3.org/1999/xlink" version="1.1" width="2048" height="2048" viewBox="-10 0 2068 2048">
   <path fill="currentColor"
d="M1024 1639q-125 0 -231 -55t-178 -151h409q130 0 219 -89t89 -219q0 -53 -20 -101h217q9 53 9 101q0 139 -69.5 257t-187.5 187.5t-257 69.5zM1024 611q125 0 231 55t178 151h-409q-130 0 -219 89t-89 219q0 48 20 101h-217q-9 -43 -9 -101q0 -139 69.5 -257
t187.5 -187.5t257 -69.5zM1846 303h-327l-187 -202h-616l-187 202h-327q-82 0 -142 60t-60 147v1230q0 87 60 147t142 60h1644q82 0 142 -60t60 -147v-1230q0 -87 -60 -147t-142 -60z" />
</svg>
