<?xml version="1.0" standalone="no"?>
<!DOCTYPE svg PUBLIC "-//W3C//DTD SVG 1.1//EN" "http://www.w3.org/Graphics/SVG/1.1/DTD/svg11.dtd" >
<svg xmlns="http://www.w3.org/2000/svg" xmlns:xlink="http://www.w3.org/1999/xlink" version="1.1" width="2048" height="2048" viewBox="-10 0 2058 2048">
   <path fill="currentColor"
d="M380 1123l138 -414h1012l138 414h-1288zM1530 1586q-57 0 -98 -41t-41 -97.5t41 -97.5t99.5 -41t97.5 41t39 97.5t-39 97.5t-99 41zM518 1586q-60 0 -99 -41t-39 -97.5t39 -97.5t97.5 -41t99.5 41t41 97.5t-41 97.5t-98 41zM1663 665q-17 -43 -51.5 -69t-81.5 -26h-1012
q-47 0 -81.5 26t-51.5 69l-191 553v735q0 39 26 67t65 28h95q39 0 65 -28t26 -67v-91h1106v91q0 39 26 67t65 28h95q39 0 65 -28t26 -67v-735zM562 389q60 0 99 -41t39 -99.5t-69 -157.5q-35 -52 -69 -91l-35 43q-39 56 -65 100q-39 64 -39 108q0 56 41.5 97t97.5 41z
M1024 389q56 0 97 -41t41 -97q0 -44 -34 -108q-26 -44 -69 -100l-35 -43l-35 43q-43 56 -69 100q-34 64 -34 108q0 56 41 97t97 41zM1486 389q56 0 97.5 -41t41.5 -99.5t-70 -157.5q-34 -52 -69 -91l-39 43q-38 56 -64 100q-35 64 -35 108q0 56 39 97t99 41z" />
</svg>
