<?xml version="1.0" standalone="no"?>
<!DOCTYPE svg PUBLIC "-//W3C//DTD SVG 1.1//EN" "http://www.w3.org/Graphics/SVG/1.1/DTD/svg11.dtd" >
<svg xmlns="http://www.w3.org/2000/svg" xmlns:xlink="http://www.w3.org/1999/xlink" version="1.1" width="2048" height="2048" viewBox="-10 0 2058 2048">
   <path fill="currentColor"
d="M334 521q-28 -27 -28 -68.5t30 -68.5t68.5 -27t66.5 27l690 553q60 55 60 137.5t-57.5 139.5t-139.5 57t-137 -60zM1024 1856q210 0 390.5 -105t286 -285.5t105.5 -391.5q0 -160 -62 -301.5t-167 -251.5l137 -137q133 137 208.5 315.5t75.5 372.5t-73.5 374.5t-210.5 318
t-317.5 210.5t-372.5 73t-372.5 -73t-317.5 -210.5t-210.5 -318t-73.5 -372.5h192q0 211 105.5 391.5t286 285.5t390.5 105zM1024 0q82 0 139.5 57t57.5 139.5t-57.5 139.5t-139.5 57t-139.5 -57t-57.5 -139.5t57.5 -139.5t139.5 -57z" />
</svg>
