<?xml version="1.0" standalone="no"?>
<!DOCTYPE svg PUBLIC "-//W3C//DTD SVG 1.1//EN" "http://www.w3.org/Graphics/SVG/1.1/DTD/svg11.dtd" >
<svg xmlns="http://www.w3.org/2000/svg" xmlns:xlink="http://www.w3.org/1999/xlink" version="1.1" width="2048" height="2048" viewBox="-10 0 2058 2048">
   <path fill="currentColor"
d="M596 172h856v896q0 -68 -80 -120q-68 -44 -176 -72q-92 -24 -172 -24t-172 24q-108 28 -176 72q-80 52 -80 120v-896zM1452 0h-856q-68 0 -118 50t-50 122v1192q0 72 50 122t118 50h856q68 0 118 -50t50 -122v-1192q0 -72 -50 -122t-118 -50zM1024 684q72 0 122 -50
t50 -122t-50 -122t-122 -50t-122 50t-50 122t50 122t122 50zM1196 1708v168h424v-168h-424zM852 1708h-424v168h424v172l256 -256l-256 -256v172z" />
</svg>
