<?xml version="1.0" standalone="no"?>
<!DOCTYPE svg PUBLIC "-//W3C//DTD SVG 1.1//EN" "http://www.w3.org/Graphics/SVG/1.1/DTD/svg11.dtd" >
<svg xmlns="http://www.w3.org/2000/svg" xmlns:xlink="http://www.w3.org/1999/xlink" version="1.1" width="2048" height="2048" viewBox="-10 0 2058 2048">
   <path fill="currentColor"
d="M1024 512q-72 0 -122 -50t-50 -120t50 -120t120 -50t122 50t52 120t-50 120t-122 50zM1452 0h-856q-68 0 -118 50t-50 122v1192q0 72 50 122t118 50h856q68 0 118 -50t50 -122v-1192q0 -72 -50 -122t-118 -50zM1196 1708v168h424v-168h-424zM852 1708h-424v168h424v172
l256 -256l-256 -256v172z" />
</svg>
