<?xml version="1.0" standalone="no"?>
<!DOCTYPE svg PUBLIC "-//W3C//DTD SVG 1.1//EN" "http://www.w3.org/Graphics/SVG/1.1/DTD/svg11.dtd" >
<svg xmlns="http://www.w3.org/2000/svg" xmlns:xlink="http://www.w3.org/1999/xlink" version="1.1" width="2048" height="2048" viewBox="-10 0 2058 2048">
   <path fill="currentColor"
d="M1969 1103q0 128 -34 250.5t-95 226t-148 191t-191 148.5t-226 95t-250.5 34t-250.5 -34t-226 -95t-191.5 -148.5t-148.5 -191t-95 -226t-34 -250.5q0 -225 99 -422.5t279 -332.5q52 -40 116.5 -30.5t103.5 61.5t30 116.5t-61 103.5q-120 90 -186 222.5t-66 281.5
q0 128 50 244.5t134.5 201t201.5 134.5t244.5 50t244.5 -50t201.5 -134.5t134.5 -201t50 -244.5q0 -149 -66 -281.5t-186 -222.5q-52 -39 -61.5 -103.5t29.5 -116.5t104.5 -61.5t116.5 30.5q180 135 278.5 332.5t98.5 422.5zM1182 157v788q0 65 -46.5 111.5t-111 46.5
t-111.5 -47t-47 -111v-788q0 -64 47 -110.5t111.5 -46.5t111 46.5t46.5 110.5z" />
</svg>
