<?xml version="1.0" standalone="no"?>
<!DOCTYPE svg PUBLIC "-//W3C//DTD SVG 1.1//EN" "http://www.w3.org/Graphics/SVG/1.1/DTD/svg11.dtd" >
<svg xmlns="http://www.w3.org/2000/svg" xmlns:xlink="http://www.w3.org/1999/xlink" version="1.1" width="2048" height="2048" viewBox="-10 0 2058 2048">
   <path fill="currentColor"
d="M1279 0q-43 0 -72 29t-29 72v308h-414q-81 0 -141.5 60t-60.5 146v1231q0 82 60.5 142t141.5 60h515q86 0 146.5 -60t60.5 -142v-1231q0 -57 -29 -103t-77 -75v-336q0 -43 -29 -72t-72 -29zM764 615h515v510h-515v-510zM764 1332h106v101h-106v-101zM971 1332h101v101
h-101v-101zM1178 1332h101v101h-101v-101zM764 1538h106v101h-106v-101zM971 1538h101v101h-101v-101zM1178 1538h101v101h-101v-101zM764 1740h106v106h-106v-106zM971 1740h101v106h-101v-106zM1178 1740h101v106h-101v-106z" />
</svg>
