<?xml version="1.0" standalone="no"?>
<!DOCTYPE svg PUBLIC "-//W3C//DTD SVG 1.1//EN" "http://www.w3.org/Graphics/SVG/1.1/DTD/svg11.dtd" >
<svg xmlns="http://www.w3.org/2000/svg" xmlns:xlink="http://www.w3.org/1999/xlink" version="1.1" width="2048" height="2048" viewBox="-10 0 2068 2048">
   <path fill="currentColor"
d="M1024 587l-135 10q-111 -136 -237 -227q-188 -145 -348 -145l-29 53q-33 72 -48 149q-24 112 -10 227q15 141 82 281l-14 24q-43 63 -58 96q-24 49 -29 111l-198 34l24 102l179 -29l14 72l-159 97l48 92l150 -92q87 183 295 285q203 96 473 96t473 -96q208 -102 295 -285
l150 92l48 -92l-159 -97l14 -72l179 29l24 -102l-198 -34q-5 -62 -29 -111q-15 -33 -58 -96l-14 -24q67 -140 82 -281q14 -115 -10 -227q-15 -77 -48 -149l-29 -53q-160 0 -348 145q-126 91 -237 227zM715 896q43 0 72 29t29 72.5t-29 72.5t-72.5 29t-72.5 -29t-29 -72.5
t29 -72.5t73 -29zM1333 896q44 0 73 29t29 72.5t-29 72.5t-72.5 29t-72.5 -29t-29 -72.5t29 -72.5t72 -29zM923 1205h202l-72 140q19 53 58 84.5t92 31.5q67 0 110.5 -46t43.5 -108h53q0 87 -60 147t-147 60q-53 0 -101.5 -29t-77.5 -77q-29 48 -77.5 77t-101.5 29
q-87 0 -147 -60t-60 -147h53q0 62 43.5 108t110.5 46q53 0 92 -31.5t58 -84.5z" />
</svg>
