<?xml version="1.0" standalone="no"?>
<!DOCTYPE svg PUBLIC "-//W3C//DTD SVG 1.1//EN" "http://www.w3.org/Graphics/SVG/1.1/DTD/svg11.dtd" >
<svg xmlns="http://www.w3.org/2000/svg" xmlns:xlink="http://www.w3.org/1999/xlink" version="1.1" width="2048" height="2048" viewBox="-10 0 2068 2048">
   <path fill="currentColor"
d="M0 255h2048v1538h-2048v-1538zM1846 1586v-1129h-1644v1129h1644zM1538 562q0 82 60.5 142t141.5 60v515q-81 0 -141.5 60t-60.5 147h-1028q0 -87 -60.5 -147t-141.5 -60v-515q81 0 141.5 -60t60.5 -142h1028zM1538 1072v-101q0 -86 -45.5 -146.5t-110.5 -60.5t-108 60.5
t-43 146.5v101q0 87 43 147t108 60t110.5 -60t45.5 -147zM1385 870q19 0 33.5 14.5t14.5 33.5v207q0 19 -14.5 36t-36 17t-36 -17t-14.5 -36v-207q0 -19 14.5 -33.5t38.5 -14.5zM1125 1072v-101q0 -86 -43.5 -146.5t-108 -60.5t-110.5 60.5t-46 146.5v101q0 87 46 147
t110.5 60t108 -60t43.5 -147zM971 870q24 0 38.5 14.5t14.5 33.5v207q0 19 -14.5 36t-36 17t-36 -17t-14.5 -36v-207q0 -19 14.5 -33.5t33.5 -14.5zM615 1279h101v-515h-101l-105 53v101l105 -48v409z" />
</svg>
