<?xml version="1.0" standalone="no"?>
<!DOCTYPE svg PUBLIC "-//W3C//DTD SVG 1.1//EN" "http://www.w3.org/Graphics/SVG/1.1/DTD/svg11.dtd" >
<svg xmlns="http://www.w3.org/2000/svg" xmlns:xlink="http://www.w3.org/1999/xlink" version="1.1" width="2048" height="2048" viewBox="-10 0 2068 2048">
   <path fill="currentColor"
d="M1640 1638q-86 0 -146 60t-60 144t60 144t144 60t144 -60t60 -144t-60 -144t-142 -60zM0 2v202h206l370 777l-140 254q-24 43 -24 96q0 86 60 146t142 60h1228v-206h-1185q-10 0 -17 -7t-7 -17t5 -14l91 -168h763q57 0 105 -29t72 -77l365 -662q14 -28 14 -48
q0 -43 -29 -74t-72 -31h-1515l-96 -202h-336zM614 1638q-82 0 -142 60t-60 144t60 144t144 60t144 -60t60 -144t-60 -144t-146 -60z" />
</svg>
