<?xml version="1.0" standalone="no"?>
<!DOCTYPE svg PUBLIC "-//W3C//DTD SVG 1.1//EN" "http://www.w3.org/Graphics/SVG/1.1/DTD/svg11.dtd" >
<svg xmlns="http://www.w3.org/2000/svg" xmlns:xlink="http://www.w3.org/1999/xlink" version="1.1" width="2048" height="2048" viewBox="-10 0 2068 2048">
   <path fill="currentColor"
d="M293 1646v220q0 15 -10.5 25.5t-26.5 10.5h-219q-16 0 -26.5 -10.5t-10.5 -25.5v-220q0 -16 10.5 -26t26.5 -10h219q16 0 26.5 10t10.5 26zM731 1500v366q0 15 -10 25.5t-26 10.5h-220q-16 0 -26 -10.5t-10 -25.5v-366q0 -16 10 -27t26 -11h220q16 0 26 11t10 27z
M1170 1206v660q0 15 -10 25.5t-26 10.5h-220q-16 0 -26 -10.5t-10 -25.5v-660q0 -15 10 -25.5t26 -10.5h220q16 0 26 10.5t10 25.5zM1609 768v1098q0 15 -10 25.5t-26 10.5h-220q-16 0 -26 -10.5t-10 -25.5v-1098q0 -15 10 -25.5t26 -10.5h220q16 0 26 10.5t10 25.5z
M2048 182v1684q0 15 -10.5 25.5t-26.5 10.5h-219q-16 0 -26.5 -10.5t-10.5 -25.5v-1684q0 -15 10.5 -25.5t26.5 -10.5h219q16 0 26.5 10.5t10.5 25.5z" />
</svg>
