<?xml version="1.0" standalone="no"?>
<!DOCTYPE svg PUBLIC "-//W3C//DTD SVG 1.1//EN" "http://www.w3.org/Graphics/SVG/1.1/DTD/svg11.dtd" >
<svg xmlns="http://www.w3.org/2000/svg" xmlns:xlink="http://www.w3.org/1999/xlink" version="1.1" width="2048" height="2048" viewBox="-10 0 2068 2048">
   <path fill="currentColor"
d="M931 651q-85 -31 -138 -104t-53 -162q0 -120 82 -202.5t202 -82.5t202.5 82.5t82.5 202.5q0 89 -53.5 162t-138.5 104v267q-44 -13 -93 -13t-93 13v-267zM1620 1909q-80 -44 -115.5 -126.5t-22.5 -171.5l-231 -133q75 -71 98 -164l231 133q66 -58 155 -67t169 36
q102 62 133 175.5t-29 215.5t-173 131t-215 -29zM144 1416q76 -45 167 -36t158 67l231 -133q22 97 97 164l-231 133q14 89 -24 171.5t-113 126.5q-103 58 -218.5 29t-173 -131t-26.5 -217.5t133 -173.5zM1215 1238q0 76 -55.5 131.5t-135.5 55.5t-135.5 -55.5t-55.5 -133.5
t55.5 -133.5t135.5 -55.5t135.5 55.5t55.5 135.5zM1500 1238l-5 53l-138 -84q-8 -71 -46 -135.5t-96 -108.5v-160q125 53 205 170.5t80 264.5zM1304 1620q-124 89 -282 89t-278 -93l138 -80q67 31 140 31t144 -31zM553 1291l-4 -53q0 -147 80 -264.5t204 -170.5v160
q-58 44 -95.5 108.5t-46.5 135.5z" />
</svg>
