<?xml version="1.0" standalone="no"?>
<!DOCTYPE svg PUBLIC "-//W3C//DTD SVG 1.1//EN" "http://www.w3.org/Graphics/SVG/1.1/DTD/svg11.dtd" >
<svg xmlns="http://www.w3.org/2000/svg" xmlns:xlink="http://www.w3.org/1999/xlink" version="1.1" width="2048" height="2048" viewBox="-10 0 2058 2048">
   <path fill="currentColor"
d="M768 811v768q0 18 -12 30.5t-30 12.5h-87q-18 0 -30 -12.5t-12 -30.5v-768q0 -18 12 -30.5t30 -12.5h87q18 0 30 12.5t12 30.5zM1110 811v768q0 18 -12.5 30.5t-30.5 12.5h-86q-18 0 -30.5 -12.5t-12.5 -30.5v-768q0 -18 12.5 -30.5t30.5 -12.5h86q18 0 30.5 12.5
t12.5 30.5zM1451 811v768q0 18 -12 30.5t-30 12.5h-86q-18 0 -30.5 -12.5t-12.5 -30.5v-768q0 -18 12.5 -30.5t30.5 -12.5h86q18 0 30 12.5t12 30.5zM1622 1776v-1264h-1195v1264q0 29 9.5 54t19 36.5t13.5 11.5h1110q4 0 14 -11.5t19.5 -36.5t9.5 -54zM726 341h597
l-64 -155q-2 -5 -10 -10t-13 -6h-423q-14 2 -22 16zM1963 384v85q0 19 -12 31t-30 12h-129v1264q0 111 -62.5 191.5t-150.5 80.5h-1110q-88 0 -150.5 -78t-62.5 -188v-1270h-128q-18 0 -30.5 -12.5t-12.5 -30.5v-85q0 -18 12.5 -30.5t30.5 -12.5h412l94 -222q20 -49 72 -84
t105 -35h426q53 0 105 35t72 84l94 222h413q18 0 30 12t12 31z" />
</svg>
