<?xml version="1.0" standalone="no"?>
<!DOCTYPE svg PUBLIC "-//W3C//DTD SVG 1.1//EN" "http://www.w3.org/Graphics/SVG/1.1/DTD/svg11.dtd" >
<svg xmlns="http://www.w3.org/2000/svg" xmlns:xlink="http://www.w3.org/1999/xlink" version="1.1" width="2048" height="2048" viewBox="-10 0 2058 2048">
   <path fill="currentColor"
d="M1537 820h-1026v-206h1026v206zM1537 1228h-1026v-202h1026v202zM1230 1640h-719v-206h719v206zM1024 206q43 0 72 29t29 72t-29 74t-72 31t-72 -31t-29 -74t29 -72t72 -29zM1739 206h-427q-34 -91 -113 -148.5t-175 -57.5t-175 57.5t-113 148.5h-427q-86 0 -146 60
t-60 146v1430q0 86 60 146t146 60h1430q86 0 146 -60t60 -146v-1430q0 -86 -60 -146t-146 -60z" />
</svg>
