<?xml version="1.0" standalone="no"?>
<!DOCTYPE svg PUBLIC "-//W3C//DTD SVG 1.1//EN" "http://www.w3.org/Graphics/SVG/1.1/DTD/svg11.dtd" >
<svg xmlns="http://www.w3.org/2000/svg" xmlns:xlink="http://www.w3.org/1999/xlink" version="1.1" width="2048" height="2048" viewBox="-10 0 2058 2048">
   <path fill="currentColor"
d="M1777 1401h-212v-218h212v218zM1777 1831h-212v-213h212v213zM1130 536h-212v-212h212v212zM1130 971h-212v-218h212v218zM1130 1401h-212v-218h212v218zM1130 1831h-212v-213h212v213zM483 971h-212v-218h212v218zM483 1401h-212v-218h212v218zM483 1831h-212v-213h212
v213zM1348 971v-647l-324 -324l-324 324v212h-647v1512h1942v-1077h-647z" />
</svg>
