<?xml version="1.0" standalone="no"?>
<!DOCTYPE svg PUBLIC "-//W3C//DTD SVG 1.1//EN" "http://www.w3.org/Graphics/SVG/1.1/DTD/svg11.dtd" >
<svg xmlns="http://www.w3.org/2000/svg" xmlns:xlink="http://www.w3.org/1999/xlink" version="1.1" width="2048" height="2048" viewBox="-10 0 2058 2048">
   <path fill="currentColor"
d="M1913 2021l-185 -181q-9 86 -77 147t-158 61q-99 0 -169 -72t-70 -167t58.5 -162.5t144.5 -76.5l-99 -99h-1164v-1164l-180 -185l121 -122l1899 1899zM771 316h239v-289h-604l316 316q18 -27 49 -27zM1114 735q-58 -58 -72 -131h-59zM1782 1078q-50 -108 -190 -176
q-85 -36 -261 -81l-86 -23q-63 0 -126 -58l712 708v-32q0 -130 -9 -189q-9 -99 -40 -149zM789 411l100 94h121v-94h-221zM532 1565q-103 0 -173 70t-70 169.5t70 171.5t171.5 72t171 -72t69.5 -171.5t-69.5 -169.5t-169.5 -70z" />
</svg>
