<?xml version="1.0" standalone="no"?>
<!DOCTYPE svg PUBLIC "-//W3C//DTD SVG 1.1//EN" "http://www.w3.org/Graphics/SVG/1.1/DTD/svg11.dtd" >
<svg xmlns="http://www.w3.org/2000/svg" xmlns:xlink="http://www.w3.org/1999/xlink" version="1.1" width="2048" height="2048" viewBox="-10 0 2058 2048">
   <path fill="currentColor"
d="M1409 1385q0 105 -74.5 179.5t-180.5 74.5t-183 -74.5t-77 -179.5v-183q0 -29 24 -53t55.5 -24t53 24t21.5 53v183q0 43 31.5 72t74.5 29t72 -29t29 -72v-371q-68 -24 -111 -76.5t-43 -120.5q0 -81 67.5 -141.5t163.5 -60.5t163 60.5t67 141.5q0 68 -43 120.5t-110 76.5
v371zM716 615q96 0 163.5 60.5t67.5 141.5q0 68 -43 120.5t-111 76.5v548q0 140 98.5 236t235.5 96t235.5 -96t98.5 -236v-360q0 -29 22 -53t53 -24t55 24t24 53v360q0 97 -38.5 185.5t-105.5 158.5t-158.5 106t-187.5 36t-185 -36t-158.5 -106t-106 -158.5t-36.5 -185.5
v-548q-67 -24 -110 -76.5t-43 -120.5q0 -81 67 -141.5t163 -60.5zM904 423l-48 149q-63 -34 -135 -34t-132 26.5t-99 74.5l-125 -91q101 -130 274 -159v-4q0 -159 113 -272t272 -113t272 113t113 272v4q173 29 274 159l-125 91q-39 -48 -99 -74.5t-132 -26.5t-135 34
l-48 -149q67 -29 111 -34v-4q0 -97 -67.5 -164t-163.5 -67t-163.5 67t-67.5 164v4q44 5 111 34zM1332 740q-44 0 -72.5 24t-28.5 55.5t28.5 53t72 21.5t72.5 -21.5t29 -53t-29 -55.5t-72 -24zM716 740q-43 0 -72 24t-29 55.5t29 53t72.5 21.5t72 -21.5t28.5 -53t-28.5 -55.5
t-72.5 -24z" />
</svg>
