<?xml version="1.0" standalone="no"?>
<!DOCTYPE svg PUBLIC "-//W3C//DTD SVG 1.1//EN" "http://www.w3.org/Graphics/SVG/1.1/DTD/svg11.dtd" >
<svg xmlns="http://www.w3.org/2000/svg" xmlns:xlink="http://www.w3.org/1999/xlink" version="1.1" width="2048" height="2048" viewBox="-10 0 2068 2048">
   <path fill="currentColor"
d="M1707 912h-171v-59h-229v342h229v-59h171v117q0 48 -32 80t-80 32h-342q-48 0 -82.5 -32t-34.5 -80v-458q0 -48 34.5 -80t82.5 -32h342q48 0 80 32t32 80v117zM912 912h-171v-59h-229v342h229v-59h171v117q0 48 -34.5 80t-82.5 32h-342q-48 0 -80 -32t-32 -80v-458
q0 -48 32 -80t80 -32h342q48 0 82.5 32t34.5 80v117zM1819 112h-1590q-96 0 -162.5 66.5t-66.5 162.5v1366q0 96 66.5 162.5t162.5 66.5h1590q96 0 162.5 -66.5t66.5 -162.5v-1366q0 -96 -66.5 -162.5t-162.5 -66.5z" />
</svg>
