<?xml version="1.0" standalone="no"?>
<!DOCTYPE svg PUBLIC "-//W3C//DTD SVG 1.1//EN" "http://www.w3.org/Graphics/SVG/1.1/DTD/svg11.dtd" >
<svg xmlns="http://www.w3.org/2000/svg" xmlns:xlink="http://www.w3.org/1999/xlink" version="1.1" width="2048" height="2048" viewBox="-10 0 2068 2048">
   <path fill="currentColor"
d="M1303 279q200 0 372.5 100t272.5 272.5t100 372.5t-100 372.5t-272.5 272.5t-373 100t-372.5 -100t-272 -272.5t-100 -372.5t100 -372.5t272 -272.5t373 -100zM1303 466q-153 0 -281.5 74t-202.5 202.5t-74 281.5t74 281.5t202.5 202.5t281 74t281 -74t203 -202.5
t74.5 -281.5t-74.5 -281.5t-203 -202.5t-280.5 -74zM1211 654h140v348l213 218l-96 100l-257 -257v-409zM96 1582q-39 0 -67.5 -26.5t-28.5 -65.5t28.5 -67.5t67.5 -28.5h353q43 96 109 188h-462zM187 1116q-39 0 -65 -26.5t-26 -65.5t26 -65.5t65 -26.5h192l-4 92l4 92
h-192zM279 654q-39 0 -65.5 -28.5t-26.5 -67.5t26.5 -65.5t65.5 -26.5h279q-66 92 -109 188h-170z" />
</svg>
