<?xml version="1.0" standalone="no"?>
<!DOCTYPE svg PUBLIC "-//W3C//DTD SVG 1.1//EN" "http://www.w3.org/Graphics/SVG/1.1/DTD/svg11.dtd" >
<svg xmlns="http://www.w3.org/2000/svg" xmlns:xlink="http://www.w3.org/1999/xlink" version="1.1" width="2048" height="2048" viewBox="-10 0 2068 2048">
   <path fill="currentColor"
d="M1024 1846q221 0 411 -110.5t300.5 -300.5t110.5 -411t-110.5 -411t-300.5 -300.5t-411 -110.5t-411 110.5t-300.5 300.5t-110.5 411t110.5 411t300.5 300.5t411 110.5zM1024 0q202 0 392 77t334 221t221 334t77 392t-77 392t-221 334t-334 221t-392 77
q-279 0 -514.5 -137t-372.5 -372.5t-137 -514.5q0 -202 77 -392t221 -334t334 -221t392 -77zM1077 510v538l461 274l-77 130l-538 -327v-615h154z" />
</svg>
