<?xml version="1.0" standalone="no"?>
<!DOCTYPE svg PUBLIC "-//W3C//DTD SVG 1.1//EN" "http://www.w3.org/Graphics/SVG/1.1/DTD/svg11.dtd" >
<svg xmlns="http://www.w3.org/2000/svg" xmlns:xlink="http://www.w3.org/1999/xlink" version="1.1" width="2048" height="2048" viewBox="-10 0 2068 2048">
   <path fill="currentColor"
d="M1486 1433h-871q-129 0 -218 -89t-89 -216.5t89 -219t218 -91.5h15q33 -134 141.5 -220.5t252.5 -86.5q168 0 288.5 120t120.5 293h53q105 0 179.5 74.5t74.5 180.5t-74.5 180.5t-179.5 74.5zM1024 0q-202 0 -392 77t-334 221t-221 334t-77 392t77 392t221 334t334 221
t392 77t392 -77t334 -221t221 -334t77 -392t-77 -392t-221 -334t-334 -221t-392 -77z" />
</svg>
