<?xml version="1.0" standalone="no"?>
<!DOCTYPE svg PUBLIC "-//W3C//DTD SVG 1.1//EN" "http://www.w3.org/Graphics/SVG/1.1/DTD/svg11.dtd" >
<svg xmlns="http://www.w3.org/2000/svg" xmlns:xlink="http://www.w3.org/1999/xlink" version="1.1" width="2048" height="2048" viewBox="-10 0 2068 2048">
   <path fill="currentColor"
d="M1620 1364q108 0 182 -74t74 -180t-74 -182t-182 -76h-128v-40q0 -128 -62 -236t-170 -172t-236 -64q-160 0 -284 96t-168 248h-60q-140 0 -240 100t-100 240t100 240t240 100v-424h1024v424h84zM1652 688q168 8 282 130t114 290q0 116 -58 214t-156 156t-214 58h-84v340
h-1024v-340q-140 0 -258 -68t-186 -186t-68 -258q0 -128 60 -240t164 -184t232 -84q80 -156 232 -250t336 -94q232 0 408 146t220 370zM684 1108v600h680v-600h-680zM768 1536h512v84h-512v-84zM1280 1452h-512v-88h512v88zM768 1196h512v84h-512v-84z" />
</svg>
