<?xml version="1.0" standalone="no"?>
<!DOCTYPE svg PUBLIC "-//W3C//DTD SVG 1.1//EN" "http://www.w3.org/Graphics/SVG/1.1/DTD/svg11.dtd" >
<svg xmlns="http://www.w3.org/2000/svg" xmlns:xlink="http://www.w3.org/1999/xlink" version="1.1" width="2048" height="2048" viewBox="-10 0 2068 2048">
   <path fill="currentColor"
d="M0 229q0 -96 66.5 -162.5t162.5 -66.5h1590q96 0 162.5 66.5t66.5 162.5v1590q0 96 -66.5 162.5t-162.5 66.5h-1590q-96 0 -162.5 -66.5t-66.5 -162.5v-1590zM1083 912h-118q-69 0 -119.5 -50.5t-50.5 -122.5t50.5 -120t119.5 -48h118q69 0 119.5 48t50.5 122h224
q0 -165 -114.5 -282.5t-279.5 -117.5h-118q-165 0 -279.5 117.5t-114.5 283t114.5 280t279.5 114.5h118q69 0 119.5 50.5t50.5 122.5t-50.5 120t-119.5 48h-118q-69 0 -119.5 -48t-50.5 -122h-224q0 165 114.5 282.5t279.5 117.5h118q165 0 279.5 -117.5t114.5 -283
t-114.5 -280t-279.5 -114.5z" />
</svg>
