<?xml version="1.0" standalone="no"?>
<!DOCTYPE svg PUBLIC "-//W3C//DTD SVG 1.1//EN" "http://www.w3.org/Graphics/SVG/1.1/DTD/svg11.dtd" >
<svg xmlns="http://www.w3.org/2000/svg" xmlns:xlink="http://www.w3.org/1999/xlink" version="1.1" width="2048" height="2048" viewBox="-10 0 2068 2048">
   <path fill="currentColor"
d="M716 2048q-43 0 -72 -29t-29 -72v-308h-413q-82 0 -142 -60t-60 -146v-1231q0 -82 60 -142t142 -60h1644q82 0 142 60t60 142v1231q0 86 -60 146t-142 60h-625l-380 380q-33 29 -72 29h-53zM817 1433v317l318 -317h711v-1231h-1644v1231h615zM1433 1231h-818v-106
q0 -91 154 -154q125 -48 255 -48t255 48q154 63 154 154v106zM1024 409q87 0 147 60t60 144t-60 144t-147 60t-147 -60t-60 -144t60 -144t147 -60z" />
</svg>
