<?xml version="1.0" standalone="no"?>
<!DOCTYPE svg PUBLIC "-//W3C//DTD SVG 1.1//EN" "http://www.w3.org/Graphics/SVG/1.1/DTD/svg11.dtd" >
<svg xmlns="http://www.w3.org/2000/svg" xmlns:xlink="http://www.w3.org/1999/xlink" version="1.1" width="2048" height="2048" viewBox="-10 0 2068 2048">
   <path fill="currentColor"
d="M1846 1740v-1230h-1644v1230h1644zM1846 101q82 0 142 60t60 147v1432q0 87 -60 147t-142 60h-1644q-82 0 -142 -60t-60 -147v-1432q0 -87 60 -147t142 -60h1644zM1125 1538v-206h514v206h-514zM774 1125l-409 -409h289l341 337q29 33 29 74t-29 75l-336 336h-294z" />
</svg>
