<?xml version="1.0" standalone="no"?>
<!DOCTYPE svg PUBLIC "-//W3C//DTD SVG 1.1//EN" "http://www.w3.org/Graphics/SVG/1.1/DTD/svg11.dtd" >
<svg xmlns="http://www.w3.org/2000/svg" xmlns:xlink="http://www.w3.org/1999/xlink" version="1.1" width="2048" height="2048" viewBox="-10 0 2068 2048">
   <path fill="currentColor"
d="M1194 1137v-5l-27 -360q-1 -15 -12.5 -25.5t-26.5 -10.5h-208q-15 0 -26.5 10.5t-12.5 25.5l-26 360v5q-1 13 9 22t23 9h275q13 0 23 -9t9 -22zM2048 1663q0 31 -11.5 56t-39.5 25h-793q14 0 24 -10.5t10 -25.5l-23 -288q-1 -15 -12 -25.5t-25 -10.5h-307
q-14 0 -25.5 10.5t-12.5 25.5l-23 288q0 15 10 25.5t24 10.5h-792q-28 0 -40 -25t-12 -56q0 -60 30 -131l468 -1175q8 -22 29.5 -37.5t43.5 -15.5h381q-14 0 -26 10.5t-12 25.5l-17 216q-1 15 8.5 25.5t24.5 10.5h188q15 0 24.5 -10.5t8.5 -25.5l-17 -216q0 -15 -12 -25.5
t-26 -10.5h382q22 0 42.5 15.5t29.5 37.5l468 1175q30 71 30 131z" />
</svg>
