<?xml version="1.0" standalone="no"?>
<!DOCTYPE svg PUBLIC "-//W3C//DTD SVG 1.1//EN" "http://www.w3.org/Graphics/SVG/1.1/DTD/svg11.dtd" >
<svg xmlns="http://www.w3.org/2000/svg" xmlns:xlink="http://www.w3.org/1999/xlink" version="1.1" width="2048" height="2048" viewBox="-10 0 2068 2048">
   <path fill="currentColor"
d="M869 1591q20 0 37 14.5t17 36.5t-17 36.5t-36.5 14.5t-36.5 -14.5t-17 -36.5t17 -36.5t36 -14.5zM1179 1591q19 0 36 14.5t17 36.5t-17 36.5t-36.5 14.5t-36.5 -14.5t-17 -36.5t17 -36.5t37 -14.5zM816 872q44 0 75.5 29t31.5 72.5t-31.5 72.5t-75 29t-72.5 -29
t-29 -72.5t29 -72.5t72 -29zM1232 872q43 0 72 29t29 72.5t-29 72.5t-72.5 29t-75 -29t-31.5 -72.5t31.5 -72.5t75.5 -29zM1642 1591q0 111 -82 205.5t-224.5 150t-311.5 55.5t-311.5 -55.5t-224.5 -150t-82 -205.5q0 -135 126 -246q-126 -164 -126 -372l14 -125
q-91 24 -178 0t-171.5 -99t-67.5 -133t125.5 -75t200.5 12q43 10 89 41.5t70 64.5l63 -82q-39 -62 -29 -164q10 -116 77 -207q77 -111 217 -160l-9 15q-34 58 -49 130q-24 111 25 213q115 -49 241 -49t241 49q49 -102 25 -213q-15 -72 -49 -130l-9 -15q140 49 217 160
q67 91 77 207q10 102 -29 164l63 82q24 -33 70 -64.5t89 -41.5q92 -29 200.5 -12t125.5 75t-67.5 133t-171.5 99t-178 0l14 125q0 208 -126 372q126 111 126 246zM1024 1384q-169 0 -289.5 60t-120.5 147t120.5 147.5t289.5 60.5t289.5 -60.5t120.5 -147.5t-120.5 -147
t-289.5 -60zM1024 1181q169 0 314 58q96 -116 96 -266q0 -169 -120.5 -289.5t-289.5 -120.5t-289.5 120.5t-120.5 289.5q0 150 96 266q145 -58 314 -58zM1241 61z" />
</svg>
