<?xml version="1.0" standalone="no"?>
<!DOCTYPE svg PUBLIC "-//W3C//DTD SVG 1.1//EN" "http://www.w3.org/Graphics/SVG/1.1/DTD/svg11.dtd" >
<svg xmlns="http://www.w3.org/2000/svg" xmlns:xlink="http://www.w3.org/1999/xlink" version="1.1" width="2048" height="2048" viewBox="-10 0 2068 2048">
   <path fill="currentColor"
d="M1024 0q-277 0 -512 138.5t-373.5 373.5t-138.5 512t138.5 512t373.5 373.5t512 138.5t512 -138.5t373.5 -373.5t138.5 -512q0 -91 -16 -171q-16 -37 -59 -48q-21 -10 -37 -10h-229v-112q0 -70 -59 -102q-27 -10 -53 -10h-230v-118q0 -69 -58 -96q-27 -16 -54 -16h-117
v-229q0 -69 -53 -96q-32 -16 -59 -16zM741 341q70 0 120.5 51t50.5 120t-50.5 120t-122.5 51t-120 -51t-48 -120t48 -120t122 -51zM400 795q69 0 120 50.5t51 122.5t-51 120t-123 48t-120 -48t-48 -120t48 -122.5t123 -50.5zM965 912q75 0 123 48t48 120t-48 122.5
t-120 50.5t-122.5 -50.5t-50.5 -122.5t50.5 -120t119.5 -48zM1536 1136q69 0 120 50.5t51 122.5t-51 120t-120 48t-120 -48t-51 -122q0 -70 51 -120.5t120 -50.5zM912 1477q69 0 120 51t51 123t-51 120t-123 48t-120 -48t-48 -120t48 -123t123 -51z" />
</svg>
