<?xml version="1.0" standalone="no"?>
<!DOCTYPE svg PUBLIC "-//W3C//DTD SVG 1.1//EN" "http://www.w3.org/Graphics/SVG/1.1/DTD/svg11.dtd" >
<svg xmlns="http://www.w3.org/2000/svg" xmlns:xlink="http://www.w3.org/1999/xlink" version="1.1" width="2048" height="2048" viewBox="-10 0 2068 2048">
   <path fill="currentColor"
d="M1575 1733q0 -32 -23 -56t-55.5 -24t-55.5 24t-23 56t23 55.5t55.5 23.5t55.5 -23.5t23 -55.5zM1890 1733q0 -32 -23.5 -56t-55.5 -24t-55 24t-23 56t23 55.5t55 23.5t55.5 -23.5t23.5 -55.5zM2048 1457v393q0 50 -34.5 84.5t-83.5 34.5h-1812q-49 0 -83.5 -34.5
t-34.5 -84.5v-393q0 -49 34.5 -83.5t83.5 -34.5h572l166 167q71 69 168 69q96 0 167 -69l168 -167h571q49 0 83.5 34.5t34.5 83.5zM1647 756q10 22 5.5 46t-22.5 41l-551 551q-22 24 -55 24q-34 0 -56 -24l-551 -551q-18 -17 -22.5 -41t4.5 -46q9 -21 29.5 -34t44.5 -13h314
v-551q0 -32 23.5 -55.5t56.5 -23.5h314q33 0 56 23t23 56v551h315q24 0 43.5 13t28.5 34z" />
</svg>
