<?xml version="1.0" standalone="no"?>
<!DOCTYPE svg PUBLIC "-//W3C//DTD SVG 1.1//EN" "http://www.w3.org/Graphics/SVG/1.1/DTD/svg11.dtd" >
<svg xmlns="http://www.w3.org/2000/svg" xmlns:xlink="http://www.w3.org/1999/xlink" version="1.1" width="2048" height="2048" viewBox="-10 0 2058 2048">
   <path fill="currentColor"
d="M1675 1865h-1302v-1494h184v280h934v-280h184v1494zM1024 188q39 0 65.5 26t26.5 65.5t-26.5 65.5t-65.5 26t-65.5 -26t-26.5 -65.5t26.5 -65.5t65.5 -26zM1675 188h-389q-31 -83 -103 -135.5t-159 -52.5t-159 52.5t-103 135.5h-389q-78 0 -132.5 54.5t-54.5 128.5v1494
q0 74 54.5 128.5t132.5 54.5h1302q78 0 132.5 -54.5t54.5 -128.5v-1494q0 -74 -54.5 -128.5t-132.5 -54.5z" />
</svg>
