<?xml version="1.0" standalone="no"?>
<!DOCTYPE svg PUBLIC "-//W3C//DTD SVG 1.1//EN" "http://www.w3.org/Graphics/SVG/1.1/DTD/svg11.dtd" >
<svg xmlns="http://www.w3.org/2000/svg" xmlns:xlink="http://www.w3.org/1999/xlink" version="1.1" width="2048" height="2048" viewBox="-10 0 2068 2048">
   <path fill="currentColor"
d="M202 202h1644q82 0 142 60t60 147v1230q0 87 -60 147t-142 60h-1644q-82 0 -142 -60t-60 -147v-1230q0 -87 60 -147t142 -60zM202 409v1230h721v-1230h-721zM1846 1639v-1230h-130q24 48 20 115q-5 72 -73 168l-240 260h341v125l-528 -5l-5 -101l158 -173
q159 -173 169 -187q24 -53 24 -111q-5 -91 -96 -91q-58 0 -87 38q-19 24 -24 63v33h-159l5 -43q10 -48 34 -91h-130v1230h264v-86l101 -5l24 -5q29 -14 44 -33q24 -29 24 -68q4 -67 -39 -91q-24 -10 -57.5 -10t-57.5 10q-53 24 -53 77h-154l5 -34q10 -38 29 -72
q29 -43 77 -72q62 -34 153.5 -34t153.5 34q48 24 72 72q20 34 25 72v29v38q-10 39 -29 73q-29 48 -82 67l53 38h168zM707 1433h-154v-592l-183 58v-130l322 -115h15v779z" />
</svg>
