<?xml version="1.0" standalone="no"?>
<!DOCTYPE svg PUBLIC "-//W3C//DTD SVG 1.1//EN" "http://www.w3.org/Graphics/SVG/1.1/DTD/svg11.dtd" >
<svg xmlns="http://www.w3.org/2000/svg" xmlns:xlink="http://www.w3.org/1999/xlink" version="1.1" width="2048" height="2048" viewBox="-10 0 2068 2048">
   <path fill="currentColor"
d="M1740 101l-615 615l207 207l716 -721v-101h-308zM1024 1077q-19 0 -36 -17t-17 -36t17 -36t36 -17t36 17t17 36t-17 36t-36 17zM409 1846q-87 0 -147 -60t-60 -146.5t60 -146.5t146.5 -60t146.5 60t60 146.5t-60 146.5t-146 60zM409 615q-87 0 -147 -60t-60 -146.5
t60 -146.5t146.5 -60t146.5 60t60 146.5t-60 146.5t-146 60zM784 577q33 -82 33 -168q0 -169 -120 -289t-288.5 -120t-288.5 120t-120 288.5t120 288.5t289 120q86 0 168 -33l240 240l-240 240q-82 -33 -168 -33q-169 0 -289 120t-120 288.5t120 288.5t288.5 120t288.5 -120
t120 -289q0 -86 -33 -168l240 -240l716 716h308v-101z" />
</svg>
