<?xml version="1.0" standalone="no"?>
<!DOCTYPE svg PUBLIC "-//W3C//DTD SVG 1.1//EN" "http://www.w3.org/Graphics/SVG/1.1/DTD/svg11.dtd" >
<svg xmlns="http://www.w3.org/2000/svg" xmlns:xlink="http://www.w3.org/1999/xlink" version="1.1" width="2048" height="2048" viewBox="-10 0 2058 2048">
   <path fill="currentColor"
d="M1544 976q107 -128 107 -290.5t-96 -282.5t-246 -163v-240h-229v229h-224v-229h-229v229h-342v224h230v1142h-230v224h342v229h229v-229h224v229h229v-229q187 0 320.5 -133.5t133.5 -320.5q0 -122 -59 -226t-160 -163zM739 453h458q91 0 157.5 67t66.5 163t-66.5 162.5
t-157.5 66.5h-458v-459zM1309 1595h-570v-459h570q96 0 163 66.5t67 162.5t-67 163t-163 67z" />
</svg>
