<?xml version="1.0" standalone="no"?>
<!DOCTYPE svg PUBLIC "-//W3C//DTD SVG 1.1//EN" "http://www.w3.org/Graphics/SVG/1.1/DTD/svg11.dtd" >
<svg xmlns="http://www.w3.org/2000/svg" xmlns:xlink="http://www.w3.org/1999/xlink" version="1.1" width="2048" height="2048" viewBox="-10 0 2058 2048">
   <path fill="currentColor"
d="M1673 615h-1298l-43 -413h1384zM1024 1740q-130 0 -219 -89t-89 -218q0 -92 82 -231q53 -106 144 -221l82 -101l82 101q91 115 144 221q82 139 82 231q0 129 -89 218t-219 89zM101 0l207 1870q9 77 67 127.5t135 50.5h1028q77 0 135 -50.5t67 -127.5l207 -1870h-1846z
" />
</svg>
