<?xml version="1.0" standalone="no"?>
<!DOCTYPE svg PUBLIC "-//W3C//DTD SVG 1.1//EN" "http://www.w3.org/Graphics/SVG/1.1/DTD/svg11.dtd" >
<svg xmlns="http://www.w3.org/2000/svg" xmlns:xlink="http://www.w3.org/1999/xlink" version="1.1" width="2048" height="2048" viewBox="-10 0 2058 2048">
   <path fill="currentColor"
d="M1024 0q-245 0 -456 61.5t-333.5 165.5t-122.5 229t122.5 229t333.5 165.5t456 61.5t456 -61.5t333.5 -165.5t122.5 -229t-122.5 -229t-333.5 -165.5t-456 -61.5zM112 683v341q0 123 122.5 227t333.5 165t456 61t456 -61t333.5 -165t122.5 -227v-341q0 122 -122.5 226
t-333.5 165.5t-456 61.5t-456 -61.5t-333.5 -165.5t-122.5 -226zM112 1253v342q0 122 122.5 226t333.5 165.5t456 61.5t456 -61.5t333.5 -165.5t122.5 -226v-342q0 123 -122.5 227t-333.5 165.5t-456 61.5t-456 -61.5t-333.5 -165.5t-122.5 -227z" />
</svg>
