<?xml version="1.0" standalone="no"?>
<!DOCTYPE svg PUBLIC "-//W3C//DTD SVG 1.1//EN" "http://www.w3.org/Graphics/SVG/1.1/DTD/svg11.dtd" >
<svg xmlns="http://www.w3.org/2000/svg" xmlns:xlink="http://www.w3.org/1999/xlink" version="1.1" width="2048" height="2048" viewBox="-10 0 2058 2048">
   <path fill="currentColor"
d="M751 1248q38 -14 76.5 0t57.5 53l234 507l187 -87l-239 -506q-15 -39 -0.5 -79.5t52.5 -59.5l29 -5l234 -48l-841 -707v1099l181 -148zM1114 2037q-38 19 -78.5 5t-54.5 -53l-225 -483l-254 206q-28 19 -69 19t-69.5 -28.5t-28.5 -71.5v-1531q0 -43 28.5 -71.5
t69.5 -28.5t69 24v-5l1172 985q33 29 38 69.5t-21.5 71.5t-59.5 36l-320 67l220 478q23 39 6.5 79.5t-54.5 59.5z" />
</svg>
