<?xml version="1.0" standalone="no"?>
<!DOCTYPE svg PUBLIC "-//W3C//DTD SVG 1.1//EN" "http://www.w3.org/Graphics/SVG/1.1/DTD/svg11.dtd" >
<svg xmlns="http://www.w3.org/2000/svg" xmlns:xlink="http://www.w3.org/1999/xlink" version="1.1" width="2048" height="2048" viewBox="-10 0 2068 2048">
   <path fill="currentColor"
d="M2048 1509l-324 324v-217h-647v-218h647v-212zM647 215q137 0 230.5 93.5t93.5 230.5v323q0 132 -93.5 228t-230 96t-230 -96t-93.5 -228v-323q0 -137 93.5 -230.5t229.5 -93.5zM647 427q-45 0 -75.5 33t-30.5 79v323q0 46 30.5 76t76 30t75.5 -30t30 -76v-323
q0 -46 -30 -79t-76 -33zM1401 215q136 0 229.5 93.5t93.5 230.5v323q0 132 -93.5 228t-227.5 96t-230 -96t-96 -228v-323q0 -137 96 -230.5t228 -93.5zM1401 427q-46 0 -76 33t-30 79v323q0 46 30 76t75.5 30t78.5 -30t33 -76v-323q0 -46 -33 -79t-78 -33zM106 968
q46 0 78.5 30.5t32.5 76t-32.5 78.5t-78 33t-76 -33t-30.5 -78.5t30.5 -76t75.5 -30.5z" />
</svg>
