<?xml version="1.0" standalone="no"?>
<!DOCTYPE svg PUBLIC "-//W3C//DTD SVG 1.1//EN" "http://www.w3.org/Graphics/SVG/1.1/DTD/svg11.dtd" >
<svg xmlns="http://www.w3.org/2000/svg" xmlns:xlink="http://www.w3.org/1999/xlink" version="1.1" width="2048" height="2048" viewBox="-10 0 2068 2048">
   <path fill="currentColor"
d="M947 1218q82 0 138 56.5t56 135.5t-56 135t-137.5 56t-138 -56t-56.5 -135t56.5 -135.5t137.5 -56.5zM2048 722l-149 663l-663 -153l365 -231q-103 -166 -277 -263t-377 -97q-185 0 -347 83t-270.5 227.5t-140.5 325.5l-189 -32q36 -226 171.5 -408.5t338.5 -286
t437 -103.5q253 0 469.5 124t347.5 331z" />
</svg>
