<?xml version="1.0" standalone="no"?>
<!DOCTYPE svg PUBLIC "-//W3C//DTD SVG 1.1//EN" "http://www.w3.org/Graphics/SVG/1.1/DTD/svg11.dtd" >
<svg xmlns="http://www.w3.org/2000/svg" xmlns:xlink="http://www.w3.org/1999/xlink" version="1.1" width="2048" height="2048" viewBox="-10 0 2068 2048">
   <path fill="currentColor"
d="M229 0h1590q96 0 162.5 66.5t66.5 162.5v1590q0 96 -66.5 162.5t-162.5 66.5h-1590q-96 0 -162.5 -66.5t-66.5 -162.5v-1590q0 -96 66.5 -162.5t162.5 -66.5zM453 229q-90 0 -157 67t-67 160t67 160t160 67t160 -67t67 -160t-67 -160t-163 -67zM1595 1365q-96 0 -163 67
t-67 160t67 160t160 67t160 -67t67 -160t-67 -160t-157 -67z" />
</svg>
