<?xml version="1.0" standalone="no"?>
<!DOCTYPE svg PUBLIC "-//W3C//DTD SVG 1.1//EN" "http://www.w3.org/Graphics/SVG/1.1/DTD/svg11.dtd" >
<svg xmlns="http://www.w3.org/2000/svg" xmlns:xlink="http://www.w3.org/1999/xlink" version="1.1" width="2048" height="2048" viewBox="-10 0 2068 2048">
   <path fill="currentColor"
d="M1595 1136v-224h-1142v224h1142zM1819 0q96 0 162.5 66.5t66.5 162.5v1590q0 96 -66.5 162.5t-162.5 66.5h-1590q-96 0 -162.5 -66.5t-66.5 -162.5v-1590q0 -96 66.5 -162.5t162.5 -66.5h1590zM1024 453q-48 0 -80 35t-32 83t32 80t80 32t80 -32t32 -80t-32 -83t-80 -35z
M1024 1365q-48 0 -80 32t-32 80t32 83t80 35t80 -35t32 -83t-32 -80t-80 -32z" />
</svg>
