<?xml version="1.0" standalone="no"?>
<!DOCTYPE svg PUBLIC "-//W3C//DTD SVG 1.1//EN" "http://www.w3.org/Graphics/SVG/1.1/DTD/svg11.dtd" >
<svg xmlns="http://www.w3.org/2000/svg" xmlns:xlink="http://www.w3.org/1999/xlink" version="1.1" width="2048" height="2048" viewBox="-10 0 2068 2048">
   <path fill="currentColor"
d="M817 1231q-81 0 -141.5 -60t-60.5 -147t60.5 -147t144.5 -60t144 60t60 147t-60 147t-147 60zM817 202q-221 0 -408.5 110.5t-298 300.5t-110.5 411t110.5 411t298 300.5t408.5 110.5t411 -110.5t300.5 -300.5t110.5 -411t-110.5 -411t-300.5 -300.5t-411 -110.5z
M1846 1125h202v-615h-202v615zM1846 1538h202v-206h-202v206z" />
</svg>
