<?xml version="1.0" standalone="no"?>
<!DOCTYPE svg PUBLIC "-//W3C//DTD SVG 1.1//EN" "http://www.w3.org/Graphics/SVG/1.1/DTD/svg11.dtd" >
<svg xmlns="http://www.w3.org/2000/svg" xmlns:xlink="http://www.w3.org/1999/xlink" version="1.1" width="2048" height="2048" viewBox="-10 0 2058 2048">
   <path fill="currentColor"
d="M683 0h229v229h-229v-229zM1136 0h229v229h-229v-229zM683 453h229v230h-229v-230zM1136 453h229v230h-229v-230zM683 912h229v224h-229v-224zM1136 912h229v224h-229v-224zM683 1365h229v230h-229v-230zM1136 1365h229v230h-229v-230zM683 1819h229v229h-229v-229z
M1136 1819h229v229h-229v-229z" />
</svg>
