<?xml version="1.0" standalone="no"?>
<!DOCTYPE svg PUBLIC "-//W3C//DTD SVG 1.1//EN" "http://www.w3.org/Graphics/SVG/1.1/DTD/svg11.dtd" >
<svg xmlns="http://www.w3.org/2000/svg" xmlns:xlink="http://www.w3.org/1999/xlink" version="1.1" width="2048" height="2048" viewBox="-10 0 2068 2048">
   <path fill="currentColor"
d="M1064 2018q-182 0 -345.5 -61t-293.5 -173l-425 56l163 -401q-88 -205 -88 -415q0 -271 133 -499.5t359 -361.5t494.5 -133t494.5 133t359 361.5t133 499.5t-133 499.5t-359 361.5t-492 133zM1600 1019q0 -219 -147 -356.5t-403 -137.5h-378v998h373q257 0 406 -140
t149 -364zM1054 1276h-112v-504h112q122 0 196.5 67.5t74.5 184.5q0 121 -74.5 186.5t-196.5 65.5z" />
</svg>
