<?xml version="1.0" standalone="no"?>
<!DOCTYPE svg PUBLIC "-//W3C//DTD SVG 1.1//EN" "http://www.w3.org/Graphics/SVG/1.1/DTD/svg11.dtd" >
<svg xmlns="http://www.w3.org/2000/svg" xmlns:xlink="http://www.w3.org/1999/xlink" version="1.1" width="2048" height="2048" viewBox="-10 0 2058 2048">
   <path fill="currentColor"
d="M289 2048v-289h295v289h-295zM880 2048v-289h288v289h-288zM1464 2048v-289h295v289h-295zM289 1464v-296h295v296h-295zM880 1464v-296h288v296h-288zM1464 1464v-296h295v296h-295zM289 880v-296h295v296h-295zM880 880v-296h288v296h-288zM1464 880v-296h295v296h-295
zM289 289v-289h295v289h-295zM880 289v-289h288v289h-288zM1464 289v-289h295v289h-295z" />
</svg>
