<?xml version="1.0" standalone="no"?>
<!DOCTYPE svg PUBLIC "-//W3C//DTD SVG 1.1//EN" "http://www.w3.org/Graphics/SVG/1.1/DTD/svg11.dtd" >
<svg xmlns="http://www.w3.org/2000/svg" xmlns:xlink="http://www.w3.org/1999/xlink" version="1.1" width="2048" height="2048" viewBox="-10 0 2068 2048">
   <path fill="currentColor"
d="M0 1365v-229h229v229h-229zM0 912v-229h229v229h-229zM453 1365v-229h230v229h-230zM453 912v-229h230v229h-230zM912 1365v-229h224v229h-224zM912 912v-229h224v229h-224zM1365 1365v-229h230v229h-230zM1365 912v-229h230v229h-230zM1819 1365v-229h229v229h-229z
M1819 912v-229h229v229h-229z" />
</svg>
