<?xml version="1.0" standalone="no"?>
<!DOCTYPE svg PUBLIC "-//W3C//DTD SVG 1.1//EN" "http://www.w3.org/Graphics/SVG/1.1/DTD/svg11.dtd" >
<svg xmlns="http://www.w3.org/2000/svg" xmlns:xlink="http://www.w3.org/1999/xlink" version="1.1" width="2048" height="2048" viewBox="-10 0 2068 2048">
   <path fill="currentColor"
d="M1533 1024q0 -108 75 -182.5t182.5 -74.5t182.5 74.5t75 182.5t-75 182.5t-182.5 74.5t-182.5 -74.5t-75 -182.5zM767 1024q0 -108 74.5 -182.5t182.5 -74.5t182.5 74.5t74.5 182.5t-74.5 182.5t-182.5 74.5t-182.5 -74.5t-74.5 -182.5zM0 1024q0 -108 75 -182.5
t182.5 -74.5t182.5 74.5t75 182.5t-75 182.5t-182.5 74.5t-182.5 -74.5t-75 -182.5z" />
</svg>
