<?xml version="1.0" standalone="no"?>
<!DOCTYPE svg PUBLIC "-//W3C//DTD SVG 1.1//EN" "http://www.w3.org/Graphics/SVG/1.1/DTD/svg11.dtd" >
<svg xmlns="http://www.w3.org/2000/svg" xmlns:xlink="http://www.w3.org/1999/xlink" version="1.1" width="2048" height="2048" viewBox="-11 0 2070 2048">
   <path fill="currentColor"
d="M911 1374q-116 -124 -135 -278q-48 72 -77 154q-43 139 -11.5 290t127.5 273.5t235 170.5q163 57 364 -19q168 -63 322 -197l33 -39q77 -81 101 -120q48 -76 -5 -86q-235 125 -508.5 84t-445.5 -233zM968 779q58 0 50.5 -14t-50.5 -38l-38 -24q-159 -87 -355.5 -87
t-345.5 81.5t-201 225.5q-58 154 4 351q72 302 309.5 515.5t540.5 251.5q-159 -96 -247.5 -266t-88.5 -357q5 -207 120 -389q120 -197 302 -250zM80 645q154 -115 355.5 -146.5t396 26.5t323.5 197q87 96 115 216q34 134 -33 230q-82 86 9 144q68 38 216 53q135 9 197 -5
q182 -38 288 -182q96 -130 101 -310t-87 -333q-129 -255 -393 -399q-250 -134 -547 -129q-307 -5 -566 170t-375 468z" />
</svg>
