<?xml version="1.0" standalone="no"?>
<!DOCTYPE svg PUBLIC "-//W3C//DTD SVG 1.1//EN" "http://www.w3.org/Graphics/SVG/1.1/DTD/svg11.dtd" >
<svg xmlns="http://www.w3.org/2000/svg" xmlns:xlink="http://www.w3.org/1999/xlink" version="1.1" width="2048" height="2048" viewBox="-10 0 2068 2048">
   <path fill="currentColor"
d="M2048 873h-101l-101 -207h-644l231 360h-202l-337 -360h-692q-48 0 -125 -31.5t-77 -67.5t50.5 -98.5t122.5 -105.5q91 -58 180 -58t152 29q38 15 96 58q67 48 115 67h1231q43 0 72 31.5t29 74.5v308zM894 411l337 -361h202l-231 361h-308zM1639 873v-154h178l-77 154
h-101zM101 1690q-43 0 -72 -29t-29 -72t29 -72t72 -29q168 0 288.5 120t120.5 289q0 43 -29 72t-72.5 29t-72 -29t-28.5 -72q0 -87 -60.5 -147t-146.5 -60zM923 1897q0 43 -31 72t-74.5 29t-72.5 -29t-29 -72q0 -169 -81.5 -310.5t-223.5 -223.5t-310 -82q-43 0 -72 -28.5
t-29 -72t29 -75t72 -31.5q221 0 411 111t300.5 300.5t110.5 411.5z" />
</svg>
