<?xml version="1.0" standalone="no"?>
<!DOCTYPE svg PUBLIC "-//W3C//DTD SVG 1.1//EN" "http://www.w3.org/Graphics/SVG/1.1/DTD/svg11.dtd" >
<svg xmlns="http://www.w3.org/2000/svg" xmlns:xlink="http://www.w3.org/1999/xlink" version="1.1" width="2048" height="2048" viewBox="-10 0 2068 2048">
   <path fill="currentColor"
d="M663 358q-62 0 -107.5 43.5t-45.5 108t45.5 110.5t110.5 46t108 -46t43 -110.5t-43 -108t-111 -43.5zM817 50q140 0 257.5 67.5t187.5 185.5t70 257q0 130 -60.5 240.5t-160.5 182.5q298 29 528 144q193 97 322 29q63 -29 87 -82l-14 97q-24 120 -58 230
q-53 154 -125 270q-91 149 -207 230q-139 97 -312 97h-616l-81 -10q-97 -15 -173 -53q-116 -58 -178 -154q-82 -120 -82 -298q0 -96 43 -192q29 -53 94 -144.5t79 -134.5q24 -72 -9 -144q-140 0 -236 -53q-77 -48 -125 -125q-29 -58 -43 -125l-5 -53q72 34 158.5 38.5
t149.5 -24.5q14 -201 160.5 -338.5t348.5 -137.5z" />
</svg>
