<?xml version="1.0" standalone="no"?>
<!DOCTYPE svg PUBLIC "-//W3C//DTD SVG 1.1//EN" "http://www.w3.org/Graphics/SVG/1.1/DTD/svg11.dtd" >
<svg xmlns="http://www.w3.org/2000/svg" xmlns:xlink="http://www.w3.org/1999/xlink" version="1.1" width="2048" height="2048" viewBox="-10 0 2068 2048">
   <path fill="currentColor"
d="M2048 332l-154 154q154 245 154 538q0 202 -77 392t-221 334t-334 221t-392 77q-293 0 -538 -154l-154 154l-130 -130l1716 -1716zM1630 1577q101 -111 158.5 -252.5t57.5 -300.5q0 -207 -101 -389l-433 432q20 29 20 58v308h101q67 0 122.5 40.5t74.5 103.5zM923 1836
v-197q-77 0 -130 -48l-158 154q134 72 288 91zM1332 264v44q0 81 -60.5 141.5t-146.5 60.5h-202v206q0 44 -31 72.5t-75 28.5h-202v207h222l-212 216l-399 -399q-24 92 -24 183q0 264 154 481l-144 144q-212 -274 -212 -625q0 -202 77 -392t221 -334t334 -221t392 -77
q351 0 625 212l-144 144q-82 -58 -173 -92z" />
</svg>
