<?xml version="1.0" standalone="no"?>
<!DOCTYPE svg PUBLIC "-//W3C//DTD SVG 1.1//EN" "http://www.w3.org/Graphics/SVG/1.1/DTD/svg11.dtd" >
<svg xmlns="http://www.w3.org/2000/svg" xmlns:xlink="http://www.w3.org/1999/xlink" version="1.1" width="2048" height="2048" viewBox="-10 0 2068 2048">
   <path fill="currentColor"
d="M2048 170v598q0 35 -25 60t-60 25h-598q-26 0 -47 -14.5t-31 -37.5t-5 -49t24 -44l184 -184q-94 -87 -214.5 -135t-250.5 -48q-139 0 -265.5 54.5t-218 146t-145.5 218t-54 265t54 265t145.5 218t218 145.5t265.5 54q159 0 299 -69.5t239 -196.5q9 -13 31 -15q19 0 33 12
l183 184q12 11 12 27.5t-10 29.5q-146 176 -352 272.5t-435 96.5q-139 0 -271.5 -37t-245 -103t-207.5 -160.5t-161 -207t-103 -245t-37 -271t37 -271t103 -245t161 -207.5t207.5 -161t245 -103t271.5 -37q195 0 378.5 74t325.5 208l174 -171q18 -19 44 -24t50 5
q23 10 37 31t14 47z" />
</svg>
