<?xml version="1.0" standalone="no"?>
<!DOCTYPE svg PUBLIC "-//W3C//DTD SVG 1.1//EN" "http://www.w3.org/Graphics/SVG/1.1/DTD/svg11.dtd" >
<svg xmlns="http://www.w3.org/2000/svg" xmlns:xlink="http://www.w3.org/1999/xlink" version="1.1" width="2048" height="2048" viewBox="-10 0 2058 2048">
   <path fill="currentColor"
d="M1870 1319q0 51 -19 121t-49 124t-58 72.5t-80 18.5q-19 0 -61 -32q-18 -19 -70 -71q-61 -60 -89 -84q-51 -42 -86 -44.5t-91 30.5q-38 14 -117 66q-117 70 -178 98q-103 51 -178 51q-126 0 -191 -46q-84 -57 -84 -192q0 -117 98 -206t229 -89q89 0 187 47q51 28 149 93
q66 47 94 61q47 24 79.5 24t88.5 -33q33 -14 105.5 -63t105.5 -68q56 -28 84 -28q65 -14 103 42q28 42 28 108zM1486 383q-56 -32 -156.5 -81.5t-151.5 -77.5q-75 -51 -225 -224q-23 103 -44 152t-63 82q-136 93 -253 149q-149 80 -261 216q-206 243 -206 570q0 248 131 454
q121 196 329 310.5t444.5 114.5t442 -110t322.5 -301q126 -206 126 -459q14 -318 -177 -565q-99 -127 -253 -225z" />
</svg>
