<?xml version="1.0" standalone="no"?>
<!DOCTYPE svg PUBLIC "-//W3C//DTD SVG 1.1//EN" "http://www.w3.org/Graphics/SVG/1.1/DTD/svg11.dtd" >
<svg xmlns="http://www.w3.org/2000/svg" xmlns:xlink="http://www.w3.org/1999/xlink" version="1.1" width="2048" height="2048" viewBox="-10 0 2068 2048">
   <path fill="currentColor"
d="M0 59q128 128 407 211q128 -105 285.5 -162.5t331.5 -57.5t331.5 57.5t285.5 162.5q279 -83 407 -211q-5 234 -215 421q165 242 165 544q0 192 -73.5 372.5t-210.5 317.5t-317.5 210.5t-372.5 73.5t-372.5 -73.5t-317.5 -210.5t-210.5 -317.5t-73.5 -372.5
q0 -302 165 -544q-210 -187 -215 -421zM1806 1024q0 -210 -105.5 -390.5t-286 -286t-390.5 -105.5t-390.5 105.5t-286 286t-105.5 390.5t105.5 390.5t286 286t390.5 105.5t390.5 -105.5t286 -286t105.5 -390.5zM878 827q0 60 -43.5 103.5t-103 43.5t-103 -43.5t-43.5 -103.5
v-146zM1463 827q0 60 -43.5 103.5t-103 43.5t-103 -43.5t-43.5 -103.5l293 -146v146zM1024 1536q-123 0 -233 -48t-174 -130l137 -137q32 50 105.5 84t164.5 34t164.5 -34t105.5 -84l137 137q-64 82 -174 130t-233 48z" />
</svg>
