<?xml version="1.0" standalone="no"?>
<!DOCTYPE svg PUBLIC "-//W3C//DTD SVG 1.1//EN" "http://www.w3.org/Graphics/SVG/1.1/DTD/svg11.dtd" >
<svg xmlns="http://www.w3.org/2000/svg" xmlns:xlink="http://www.w3.org/1999/xlink" version="1.1" width="2048" height="2048" viewBox="-10 0 2068 2048">
   <path fill="currentColor"
d="M1846 1024q0 -221 -110.5 -411t-300.5 -300.5t-411 -110.5t-411 110.5t-300.5 300.5t-110.5 411t110.5 411t300.5 300.5t411 110.5t411 -110.5t300.5 -300.5t110.5 -411zM2048 1024q0 202 -77 392t-221 334t-334 221t-392 77t-392 -77t-334 -221t-221 -334t-77 -392
t77 -392t221 -334t334 -221t392 -77t392 77t334 221t221 334t77 392zM1385 615q57 0 105 46t48 106t-48 108t-108 48t-105.5 -48t-45.5 -108t45.5 -106t108.5 -46zM817 769q0 58 -45.5 106t-105.5 48t-108 -48t-48 -108t48 -106t108 -46t105.5 46t45.5 108zM1024 1231
q135 0 248 50.5t180 131.5l-144 149q-34 -57 -111 -93t-173 -36t-173 36t-111 93l-144 -149q67 -81 180 -131.5t248 -50.5z" />
</svg>
