<?xml version="1.0" standalone="no"?>
<!DOCTYPE svg PUBLIC "-//W3C//DTD SVG 1.1//EN" "http://www.w3.org/Graphics/SVG/1.1/DTD/svg11.dtd" >
<svg xmlns="http://www.w3.org/2000/svg" xmlns:xlink="http://www.w3.org/1999/xlink" version="1.1" width="2048" height="2048" viewBox="-10 0 2068 2048">
   <path fill="currentColor"
d="M1720 92q97 0 166.5 67.5t69.5 163.5v48q40 0 66 26.5t26 65.5v375q0 40 -26 66t-66 26h-467q-39 0 -65.5 -26t-26.5 -66v-375q0 -39 26.5 -65.5t65.5 -26.5v-48q0 -96 67.5 -163.5t163.5 -67.5zM930 1118l-747 -467v187l747 463l389 -240q78 57 170 57h371v651
q0 78 -54.5 132.5t-128.5 54.5h-1494q-74 0 -128.5 -54.5t-54.5 -132.5v-1118q0 -79 54.5 -133.5t128.5 -54.5h1027v375q0 48 17 92zM1720 183q-56 0 -97.5 41.5t-41.5 98.5v48h279v-48q0 -57 -39 -98.5t-101 -41.5z" />
</svg>
