<?xml version="1.0" standalone="no"?>
<!DOCTYPE svg PUBLIC "-//W3C//DTD SVG 1.1//EN" "http://www.w3.org/Graphics/SVG/1.1/DTD/svg11.dtd" >
<svg xmlns="http://www.w3.org/2000/svg" xmlns:xlink="http://www.w3.org/1999/xlink" version="1.1" width="2048" height="2048" viewBox="-10 0 2068 2048">
   <path fill="currentColor"
d="M1740 817q0 101 -125 183q-115 77 -228 77t-199.5 -77t-86.5 -183h-154q0 106 -86.5 183t-199.5 77t-228 -77q-125 -82 -125 -183h-77q-29 106 -29 207q0 221 110.5 411t300.5 300.5t411 110.5t411 -110.5t300.5 -300.5t110.5 -411q0 -101 -29 -207h-77zM1024 202
q-226 0 -413.5 113t-298.5 300h1424q-111 -187 -298.5 -300t-413.5 -113zM2048 1024q0 202 -77 392t-221 334t-334 221t-392 77t-392 -77t-334 -221t-221 -334t-77 -392t77 -392t221 -334t334 -221t392 -77t392 77t334 221t221 334t77 392zM1024 1562q-130 0 -245.5 -50.5
t-182.5 -136.5l144 -144q34 53 111 89t173 36t173 -36t111 -89l144 144q-67 86 -182.5 136.5t-245.5 50.5z" />
</svg>
