<?xml version="1.0" standalone="no"?>
<!DOCTYPE svg PUBLIC "-//W3C//DTD SVG 1.1//EN" "http://www.w3.org/Graphics/SVG/1.1/DTD/svg11.dtd" >
<svg xmlns="http://www.w3.org/2000/svg" xmlns:xlink="http://www.w3.org/1999/xlink" version="1.1" width="2048" height="2048" viewBox="-10 0 2068 2048">
   <path fill="currentColor"
d="M1024 0q-202 0 -392 77t-334 221t-221 334t-77 392t77 392t221 334t334 221t392 77t392 -77t334 -221t221 -334t77 -392t-77 -392t-221 -334t-334 -221t-392 -77zM538 923q-28 -48 -28 -106q0 -81 60 -141.5t146.5 -60.5t146.5 60.5t60 141.5q0 58 -29 106
q-29 -48 -74.5 -77t-103 -29t-103.5 29t-75 77zM1433 1332h-101q0 149 -58 228t-147 79t-146.5 -79t-57.5 -228h-308v-207h818v207zM1510 923q-29 -48 -75 -77t-103.5 -29t-103 29t-74.5 77q-29 -48 -29 -106q0 -81 60 -141.5t146.5 -60.5t146.5 60.5t60 141.5q0 58 -28 106
z" />
</svg>
