<?xml version="1.0" standalone="no"?>
<!DOCTYPE svg PUBLIC "-//W3C//DTD SVG 1.1//EN" "http://www.w3.org/Graphics/SVG/1.1/DTD/svg11.dtd" >
<svg xmlns="http://www.w3.org/2000/svg" xmlns:xlink="http://www.w3.org/1999/xlink" version="1.1" width="2048" height="2048" viewBox="-10 0 2058 2048">
   <path fill="currentColor"
d="M1341 986q5 -15 10 -34q10 -39 24 -63q29 -33 58 -33q48 0 120 86q38 44 62 87l-120 -19q-130 -24 -154 -24zM1740 274q-24 -43 -132 -86.5t-185 -43.5h-245l-29 -38q-38 -44 -87 -72q-72 -34 -153 -34q-116 0 -154 43q-24 29 -19 96v303l-87 87h-394l-29 29
q-34 33 -53 72q-29 62 -29 130q0 120 29 259q34 192 106 317q96 164 245 183q173 29 293 -5q87 -24 130 -77q34 -33 34 -57v-231l38 58q48 62 101 101q72 57 149 57q125 0 199.5 60.5t74.5 141.5v188l-5 29q-9 38 -28 57q-29 34 -77 34h-217l-33 -39q-34 -48 -34 -96
q0 -96 72 -96q39 0 77 5v-159h-53q-62 10 -110 29q-73 24 -116 72q-48 58 -48 145q0 168 101 250q82 62 202 62h226l38 -10q53 -19 101 -57q68 -53 121 -135q67 -106 101 -250q43 -168 43 -394q0 -457 -58 -692q-29 -130 -91 -212zM562 442h-331l413 -423v337z" />
</svg>
