<?xml version="1.0" standalone="no"?>
<!DOCTYPE svg PUBLIC "-//W3C//DTD SVG 1.1//EN" "http://www.w3.org/Graphics/SVG/1.1/DTD/svg11.dtd" >
<svg xmlns="http://www.w3.org/2000/svg" xmlns:xlink="http://www.w3.org/1999/xlink" version="1.1" width="2048" height="2048" viewBox="-10 0 2068 2048">
   <path fill="currentColor"
d="M1024 745q-118 0 -198.5 80.5t-80.5 198.5t80.5 198.5t198.5 80.5t198.5 -80.5t80.5 -198.5t-80.5 -198.5t-198.5 -80.5zM1024 1490q-126 0 -233 -63t-170 -170t-63 -233t63 -233t170 -170t233 -63t233 63t170 170t63 233t-63 233t-170 170t-233 63zM1024 327
q-344 0 -623 194t-401 503q122 309 401 503t623 194t623 -194t401 -503q-122 -309 -401 -503t-623 -194z" />
</svg>
