<?xml version="1.0" standalone="no"?>
<!DOCTYPE svg PUBLIC "-//W3C//DTD SVG 1.1//EN" "http://www.w3.org/Graphics/SVG/1.1/DTD/svg11.dtd" >
<svg xmlns="http://www.w3.org/2000/svg" xmlns:xlink="http://www.w3.org/1999/xlink" version="1.1" width="2048" height="2048" viewBox="-10 0 2068 2048">
   <path fill="currentColor"
d="M1024 5q-279 0 -514.5 137t-372.5 372.5t-137 514.5q0 255 113 473.5t310 363t442 177.5v-716h-259v-298h259v-226q0 -188 103.5 -293.5t281.5 -105.5q115 0 231 19v255h-130q-87 0 -130 48q-38 43 -38 111v192h288l-48 298h-240v716q250 -38 447 -182.5t307.5 -363
t110.5 -468.5q0 -279 -137 -514.5t-372.5 -372.5t-514.5 -137z" />
</svg>
