<?xml version="1.0" standalone="no"?>
<!DOCTYPE svg PUBLIC "-//W3C//DTD SVG 1.1//EN" "http://www.w3.org/Graphics/SVG/1.1/DTD/svg11.dtd" >
<svg xmlns="http://www.w3.org/2000/svg" xmlns:xlink="http://www.w3.org/1999/xlink" version="1.1" width="2048" height="2048" viewBox="-10 0 2068 2048">
   <path fill="currentColor"
d="M2015 1237q0 7 -1 9q-42 176 -134.5 324.5t-220.5 254t-293 164.5t-347 59q-195 0 -377 -73.5t-325 -208.5l-171 171q-26 26 -61 26t-60 -25t-25 -60v-598q0 -35 25 -60t60 -25h598q35 0 60 25t25 60t-25 60l-183 183q94 88 215 136t250 48q178 0 333 -86.5t248 -238.5
q11 -19 22 -41t16.5 -35.5t17 -42.5t15.5 -38q11 -30 40 -30h255q18 0 30.5 12.5t12.5 29.5zM2048 170v598q0 35 -25 60t-60 25h-598q-35 0 -60 -25t-25 -60q0 -34 26 -60l184 -184q-95 -88 -216 -135.5t-249 -47.5q-179 0 -334.5 86.5t-248.5 238.5q-11 19 -21.5 40.5
t-16.5 36.5t-16 41t-16 39q-11 30 -39 30h-266q-18 0 -30 -12.5t-12 -29.5v-9q42 -177 135 -325.5t222.5 -253.5t295 -164t347.5 -59q195 0 378.5 74t325.5 208l174 -171q26 -26 60 -26q35 0 60 25t25 60z" />
</svg>
