<?xml version="1.0" standalone="no"?>
<!DOCTYPE svg PUBLIC "-//W3C//DTD SVG 1.1//EN" "http://www.w3.org/Graphics/SVG/1.1/DTD/svg11.dtd" >
<svg xmlns="http://www.w3.org/2000/svg" xmlns:xlink="http://www.w3.org/1999/xlink" version="1.1" width="2048" height="2048" viewBox="-10 0 2068 2048">
   <path fill="currentColor"
d="M1740 666h-101v-515h-1024v1645h1433v-822q0 -130 -89 -219t-219 -89zM817 358h616v308h-616v-308zM1231 1488h-414v-514h414v514zM1433 1488q-39 0 -70 -31.5t-31 -72t31 -72t72 -31.5t72 31.5t31 72t-31 72t-74 31.5zM1433 1180q-39 0 -70 -31t-31 -72t31 -72t72 -31
t72 31t31 72t-31 72t-74 31zM1740 1488q-38 0 -69.5 -31.5t-31.5 -72t31.5 -72t72.5 -31.5t72 31.5t31 72t-31 72t-75 31.5zM1740 1180q-38 0 -69.5 -31t-31.5 -72t31.5 -72t72.5 -31t72 31t31 72t-31 72t-75 31zM255 565q-106 0 -180.5 74.5t-74.5 180.5v822
q0 106 74.5 180.5t180.5 74.5t180.5 -74.5t74.5 -180.5v-822q0 -106 -74.5 -180.5t-180.5 -74.5z" />
</svg>
