<?xml version="1.0" standalone="no"?>
<!DOCTYPE svg PUBLIC "-//W3C//DTD SVG 1.1//EN" "http://www.w3.org/Graphics/SVG/1.1/DTD/svg11.dtd" >
<svg xmlns="http://www.w3.org/2000/svg" xmlns:xlink="http://www.w3.org/1999/xlink" version="1.1" width="2048" height="2048" viewBox="-10 0 2068 2048">
   <path fill="currentColor"
d="M1022 923q-44 0 -72.5 29t-28.5 72t28.5 72t72 29t72 -29t28.5 -72t-28.5 -72t-71.5 -29zM1074 2q163 0 264 58q86 53 110 137t-16.5 165.5t-126.5 124.5q-130 62 -168 254q76 29 124 91q187 -101 372 -108t300 84t115 269q0 163 -58 264q-52 86 -136 110t-165.5 -17
t-124.5 -132q-68 -125 -255 -163q-33 72 -96 125q101 187 108.5 369t-84 297.5t-268.5 115.5q-163 0 -264 -58q-86 -53 -110 -137t16.5 -165.5t131.5 -124.5q125 -62 163 -249q-76 -34 -124 -96q-187 101 -369.5 108t-297.5 -84t-115 -269q0 -163 58 -264q52 -86 136 -110
t163 17t127 132q63 125 255 163q28 -77 91 -125q-101 -187 -108 -369t84 -297.5t268 -115.5z" />
</svg>
