<?xml version="1.0" standalone="no"?>
<!DOCTYPE svg PUBLIC "-//W3C//DTD SVG 1.1//EN" "http://www.w3.org/Graphics/SVG/1.1/DTD/svg11.dtd" >
<svg xmlns="http://www.w3.org/2000/svg" xmlns:xlink="http://www.w3.org/1999/xlink" version="1.1" width="2048" height="2048" viewBox="-10 0 2058 2048">
   <path fill="currentColor"
d="M1125 716h567l-567 -562v562zM409 0h822l615 615v1231q0 82 -60 142t-147 60h-1230q-87 0 -147 -60t-60 -142v-1644q0 -82 60 -142t147 -60zM1404 1332q-29 -130 -135 -219t-245 -89q-111 0 -202 55.5t-139 151.5q-116 14 -195 100.5t-79 209t89 214t218 91.5h669
q105 0 179.5 -77t74.5 -180t-69.5 -175.5t-165.5 -81.5z" />
</svg>
