<?xml version="1.0" standalone="no"?>
<!DOCTYPE svg PUBLIC "-//W3C//DTD SVG 1.1//EN" "http://www.w3.org/Graphics/SVG/1.1/DTD/svg11.dtd" >
<svg xmlns="http://www.w3.org/2000/svg" xmlns:xlink="http://www.w3.org/1999/xlink" version="1.1" width="2048" height="2048" viewBox="-10 0 2058 2048">
   <path fill="currentColor"
d="M1086 1053h-206v332h216q43 0 69.5 -14.5t55.5 -38.5q39 -44 39 -113.5t-39 -112.5q-53 -53 -135 -53zM1231 0h-822q-87 0 -147 60t-60 142v1644q0 82 60 142t147 60h1230q87 0 147 -60t60 -142v-1231zM1351 1433q-48 43 -98.5 57.5t-146.5 14.5h-226v341h-164v-923h390
q96 0 151 19.5t98.5 62.5t60.5 93.5t17 122.5q0 144 -82 212zM1125 716v-562l567 562h-567z" />
</svg>
