<?xml version="1.0" standalone="no"?>
<!DOCTYPE svg PUBLIC "-//W3C//DTD SVG 1.1//EN" "http://www.w3.org/Graphics/SVG/1.1/DTD/svg11.dtd" >
<svg xmlns="http://www.w3.org/2000/svg" xmlns:xlink="http://www.w3.org/1999/xlink" version="1.1" width="2048" height="2048" viewBox="-10 0 2068 2048">
   <path fill="currentColor"
d="M439 1426v74q0 14 -11.5 25t-25.5 11h-73q-14 0 -25 -11t-11 -25v-74q0 -14 11 -25t25 -11h73q14 0 25.5 11t11.5 25zM439 1134v72q0 15 -11.5 26.5t-25.5 11.5h-73q-14 0 -25 -11.5t-11 -26.5v-72q0 -15 11 -25.5t25 -10.5h73q14 0 25.5 10.5t11.5 25.5zM439 842v72
q0 15 -11.5 25.5t-25.5 10.5h-73q-14 0 -25 -10.5t-11 -25.5v-72q0 -15 11 -26.5t25 -11.5h73q14 0 25.5 11.5t11.5 26.5zM1755 1426v74q0 14 -11 25t-25 11h-1097q-14 0 -25.5 -11t-11.5 -25v-74q0 -14 11.5 -25t25.5 -11h1097q14 0 25 11t11 25zM1755 1134v72
q0 15 -11 26.5t-25 11.5h-1097q-14 0 -25.5 -11.5t-11.5 -26.5v-72q0 -15 11.5 -25.5t25.5 -10.5h1097q14 0 25 10.5t11 25.5zM1755 842v72q0 15 -11 25.5t-25 10.5h-1097q-14 0 -25.5 -10.5t-11.5 -25.5v-72q0 -15 11.5 -26.5t25.5 -11.5h1097q14 0 25 11.5t11 26.5z
M1902 1646v-952q0 -14 -11.5 -25t-25.5 -11h-1682q-14 0 -25.5 11t-11.5 25v952q0 14 11.5 25t25.5 11h1682q14 0 25.5 -11t11.5 -25zM2048 402v1244q0 75 -53.5 128.5t-129.5 53.5h-1682q-76 0 -129.5 -53.5t-53.5 -128.5v-1244q0 -75 53.5 -128.5t129.5 -53.5h1682
q76 0 129.5 53.5t53.5 128.5z" />
</svg>
