<?xml version="1.0" standalone="no"?>
<!DOCTYPE svg PUBLIC "-//W3C//DTD SVG 1.1//EN" "http://www.w3.org/Graphics/SVG/1.1/DTD/svg11.dtd" >
<svg xmlns="http://www.w3.org/2000/svg" xmlns:xlink="http://www.w3.org/1999/xlink" version="1.1" width="2048" height="2048" viewBox="-10 0 2058 2048">
   <path fill="currentColor"
d="M1669 934q-21 -27 -75 -80l-16 -16q-32 -27 -106 -81q-86 -69 -128 -106q-128 -123 -155 -307t59 -344q-139 32 -288 149q-219 182 -296.5 464.5t24.5 549.5q10 21 10 37q0 43 -40 59t-72 -16q-10 -5 -16 -16q-96 -123 -112 -283t48 -304q-138 117 -213 298.5t-64 368.5
q11 112 32 171q21 90 80 197q91 144 243 242.5t322 120.5q192 26 368 -16q187 -43 320 -166q160 -144 208 -349t-32 -403l-16 -26q-21 -54 -85 -144zM1306 1648q-58 54 -122 70q-91 32 -187 0q-80 -27 -144 -91q96 -27 157.5 -91t82.5 -144q16 -64 -16 -181l-16 -75
q-21 -128 21 -234q38 85 70 122.5t101 98.5t96 99q43 53 59 122q5 22 5 48q5 70 -24 142t-83 114z" />
</svg>
