<?xml version="1.0" standalone="no"?>
<!DOCTYPE svg PUBLIC "-//W3C//DTD SVG 1.1//EN" "http://www.w3.org/Graphics/SVG/1.1/DTD/svg11.dtd" >
<svg xmlns="http://www.w3.org/2000/svg" xmlns:xlink="http://www.w3.org/1999/xlink" version="1.1" width="2048" height="2048" viewBox="-10 0 2058 2048">
   <path fill="currentColor"
d="M1707 683h-230v-230h230v230zM1707 1136h-230v-224h230v224zM1707 1595h-230v-230h230v230zM571 683h-230v-230h230v230zM571 1136h-230v-224h230v224zM571 1595h-230v-230h230v230zM1707 0v229h-230v-229h-906v229h-230v-229h-229v2048h229v-229h230v229h906v-229h230
v229h229v-2048h-229z" />
</svg>
