<?xml version="1.0" standalone="no"?>
<!DOCTYPE svg PUBLIC "-//W3C//DTD SVG 1.1//EN" "http://www.w3.org/Graphics/SVG/1.1/DTD/svg11.dtd" >
<svg xmlns="http://www.w3.org/2000/svg" xmlns:xlink="http://www.w3.org/1999/xlink" version="1.1" width="2048" height="2048" viewBox="-11 0 2069 2048">
   <path fill="currentColor"
d="M1228 1817l276 -272l-276 -272l141 -136l271 267l272 -267l136 136l-272 272l272 272l-136 136l-272 -272l-271 272zM1061 1726q9 50 -23 79.5t-72.5 29.5t-67.5 -27l-385 -390q-37 -32 -32 -77v-498l-462 -589q-23 -32 -18.5 -72.5t34 -63.5t61.5 -23h1354q32 0 61.5 23
t34 63.5t-18.5 72.5l-466 589v883zM295 290l381 489v530l194 195v-729l381 -485h-956z" />
</svg>
