<?xml version="1.0" standalone="no"?>
<!DOCTYPE svg PUBLIC "-//W3C//DTD SVG 1.1//EN" "http://www.w3.org/Graphics/SVG/1.1/DTD/svg11.dtd" >
<svg xmlns="http://www.w3.org/2000/svg" xmlns:xlink="http://www.w3.org/1999/xlink" version="1.1" width="2048" height="2048" viewBox="-10 0 2058 2048">
   <path fill="currentColor"
d="M1622 250q-15 0 -24 -5q-149 -77 -284 -110.5t-288 -33.5q-308 0 -573 144q-14 10 -35.5 5t-31 -24t-5 -41t23.5 -31q284 -154 621 -154q163 0 312 36t308 118q19 9 24 31t-5 36q-14 29 -43 29zM155 788q-19 0 -33.5 -9.5t-19 -31t9.5 -35.5q154 -222 385 -337
q245 -125 531 -125t521.5 120t389.5 337q10 14 7.5 35.5t-19.5 33.5t-38.5 10t-36.5 -17q-134 -197 -346 -303q-221 -115 -483 -115t-478 115q-212 106 -351 303q-15 19 -39 19zM795 2029q-19 0 -34 -15q-72 -72 -115 -127t-92 -147q-110 -192 -110 -442q0 -149 79.5 -276.5
t211.5 -202t290.5 -74.5t291 74.5t211.5 202t79 276.5q0 19 -16.5 33.5t-36 14.5t-36 -14.5t-16.5 -33.5q0 -125 -62.5 -228.5t-173.5 -163.5t-240.5 -60t-240 60t-173 163.5t-62.5 228.5q0 226 91 394q48 82 91 140q34 43 101 110q15 15 15 34t-17 36t-36 17zM1530 1836
q-182 0 -317 -91q-115 -77 -180 -194.5t-65 -252.5q0 -24 14.5 -38.5t36 -14.5t36 14.5t14.5 38.5q0 106 53 204.5t149 160.5q106 73 259 73q48 0 106 -10q24 -5 41 7t19.5 33.5t-9.5 38.5t-32 22q-62 9 -125 9zM1324 2048h-15q-120 -34 -209 -84.5t-171 -131.5
q-105 -106 -163 -245.5t-58 -288.5q0 -125 91.5 -214t223.5 -89t223.5 89t91.5 214q0 82 62.5 139.5t151.5 57.5t151.5 -57.5t62.5 -139.5q0 -192 -101 -353t-271.5 -255t-372.5 -94q-217 0 -404.5 113t-273.5 301q-58 125 -58 288q0 188 68 370q4 19 -3 38.5t-28.5 26.5
t-41 -2.5t-24.5 -28.5q-77 -197 -77 -404q0 -187 73 -332q101 -216 310 -346t459 -130q231 0 425.5 108.5t307.5 293.5t113 406q0 120 -91.5 209t-223.5 89t-223.5 -89t-91.5 -209q0 -87 -62.5 -144.5t-151.5 -57.5t-151.5 57.5t-62.5 144.5q0 130 50.5 250t142.5 212
q72 72 148.5 115t187.5 72q19 5 29 24t5 38.5t-17 29t-31 9.5z" />
</svg>
