<?xml version="1.0" standalone="no"?>
<!DOCTYPE svg PUBLIC "-//W3C//DTD SVG 1.1//EN" "http://www.w3.org/Graphics/SVG/1.1/DTD/svg11.dtd" >
<svg xmlns="http://www.w3.org/2000/svg" xmlns:xlink="http://www.w3.org/1999/xlink" version="1.1" width="2048" height="2048" viewBox="-11 0 2069 2048">
   <path fill="currentColor"
d="M1230 1815l271 -271l-271 -271l136 -136l271 267l275 -267l136 136l-271 271l271 271l-136 135l-275 -271l-271 271zM963 965v759q5 50 -24.5 79.5t-70 29.5t-67.5 -27l-195 -194q-36 -37 -27 -82v-565h-4l-556 -709q-23 -32 -18.5 -72.5t34 -63t61.5 -22.5h1351
q32 0 61 22.5t33.5 63t-17.5 72.5l-556 709h-5z" />
</svg>
