<?xml version="1.0" standalone="no"?>
<!DOCTYPE svg PUBLIC "-//W3C//DTD SVG 1.1//EN" "http://www.w3.org/Graphics/SVG/1.1/DTD/svg11.dtd" >
<svg xmlns="http://www.w3.org/2000/svg" xmlns:xlink="http://www.w3.org/1999/xlink" version="1.1" width="2048" height="2048" viewBox="-10 0 2058 2048">
   <path fill="currentColor"
d="M752 619zM510 503zM1944 684q-33 -74 -91 -148.5t-109 -102.5q79 153 102 302v5q-46 -112 -121 -214q-42 -65 -140 -177q-135 -154 -200 -251l-32 -56q-14 -28 -14 -42h-5q-153 84 -242 242q-74 126 -98 256q-102 5 -195 51q-19 10 -14 33q5 9 14 13.5t18 0.5
q84 -37 177 -47h28q70 0 145 19l27 9l52 23l42 24q111 70 172 177q-47 -28 -107 -47q-70 -19 -131 -9q126 65 179.5 195.5t21 267.5t-139.5 221q-121 93 -298 88q-60 -4 -126 -28q-18 -4 -32 -9l-14 -9q-98 -51 -163 -135t-75 -191l14 -28q14 -28 47 -56q42 -37 98 -60
q74 -28 172 -28q23 0 69.5 -44.5t51.5 -62.5q0 -5 -51 -28q-145 -75 -191 -117l-70 -65l-23 -18q-37 -121 -5 -242q-126 55 -237 181q-28 -32 -33 -130q-4 -61 -4 -117q-5 0 -33 19q-51 33 -98 79q-51 56 -93 112q-102 154 -130 302l-5 5q-9 47 -14 89l-9 79v42
q0 270 132.5 498t360.5 360.5t498 132.5q242 0 451.5 -107t349 -295.5t181.5 -421.5l5 -37q33 -270 -65 -503z" />
</svg>
