<?xml version="1.0" standalone="no"?>
<!DOCTYPE svg PUBLIC "-//W3C//DTD SVG 1.1//EN" "http://www.w3.org/Graphics/SVG/1.1/DTD/svg11.dtd" >
<svg xmlns="http://www.w3.org/2000/svg" xmlns:xlink="http://www.w3.org/1999/xlink" version="1.1" width="2048" height="2048" viewBox="-10 0 2058 2048">
   <path fill="currentColor"
d="M283 0q48 0 80 32t32 80v101q245 -101 458 -101q123 0 214 43q53 26 133 90q59 48 96 70q53 26 123 26q213 0 357 -112q69 -58 101 -117v912l-26 37q-32 43 -75 75q-64 53 -139 80q-101 37 -221 37t-211 -42q-53 -27 -133 -91q-59 -48 -96 -69q-53 -27 -123 -27
q-117 0 -218 37q-75 27 -139 75q-43 37 -75 80l-26 37v795h-224v-1936q0 -48 32 -80t80 -32zM395 485v480l69 -42q85 -48 171 -80q117 -48 218 -48q75 0 150 37q48 21 133 77t133 78q75 37 150 37q101 0 160 -32q42 -16 58 -53l11 -27v-400l-69 27q-86 32 -160.5 32
t-149.5 -38q-48 -21 -133 -77t-133 -77q-75 -38 -150 -38q-144 0 -314 70q-86 37 -144 74z" />
</svg>
