<?xml version="1.0" standalone="no"?>
<!DOCTYPE svg PUBLIC "-//W3C//DTD SVG 1.1//EN" "http://www.w3.org/Graphics/SVG/1.1/DTD/svg11.dtd" >
<svg xmlns="http://www.w3.org/2000/svg" xmlns:xlink="http://www.w3.org/1999/xlink" version="1.1" width="2048" height="2048" viewBox="-10 0 2068 2048">
   <path fill="currentColor"
d="M229 0q-96 0 -162.5 66.5t-66.5 162.5v1590q0 96 66.5 162.5t162.5 66.5h1590q96 0 162.5 -66.5t66.5 -162.5v-1536l-283 -283h-170v683q0 48 -35 80t-83 32h-906q-48 0 -83 -32t-35 -80v-683h-224zM1024 112v571h341v-571h-341zM453 1024h1142q48 0 80 32t32 80v683
h-1366v-683q0 -48 32 -80t80 -32z" />
</svg>
