<?xml version="1.0" standalone="no"?>
<!DOCTYPE svg PUBLIC "-//W3C//DTD SVG 1.1//EN" "http://www.w3.org/Graphics/SVG/1.1/DTD/svg11.dtd" >
<svg xmlns="http://www.w3.org/2000/svg" xmlns:xlink="http://www.w3.org/1999/xlink" version="1.1" width="2048" height="2048" viewBox="-10 0 2058 2048">
   <path fill="currentColor"
d="M146 1170q0 238 119 441.5t320 320t439 116.5q0 -238 -119 -439t-320 -320t-439 -119zM1024 439q101 0 171.5 73t70.5 173.5t-70.5 171.5t-171.5 71t-171.5 -71t-70.5 -171.5t70.5 -173.5t171.5 -73zM398 905q0 101 73 171.5t174 70.5q73 0 137 -41v19q0 100 70.5 171
t171.5 71t171.5 -71t70.5 -171v-19q64 41 137 41q101 0 174 -70.5t73 -171.5q0 -73 -38.5 -132.5t-102.5 -86.5q64 -32 102.5 -91.5t38.5 -128.5q0 -100 -73 -173.5t-174 -73.5q-77 0 -137 46v-18q0 -101 -70.5 -174t-171.5 -73t-171.5 73t-70.5 174v18q-60 -46 -137 -46
q-101 0 -174 73.5t-73 173.5q0 69 38.5 128.5t102.5 91.5q-64 27 -102.5 86.5t-38.5 132.5zM1024 2048q238 0 439 -116.5t320 -320t119 -441.5q-238 0 -441.5 119t-320 320t-116.5 439z" />
</svg>
