<?xml version="1.0" standalone="no"?>
<!DOCTYPE svg PUBLIC "-//W3C//DTD SVG 1.1//EN" "http://www.w3.org/Graphics/SVG/1.1/DTD/svg11.dtd" >
<svg xmlns="http://www.w3.org/2000/svg" xmlns:xlink="http://www.w3.org/1999/xlink" version="1.1" width="2048" height="2048" viewBox="-10 0 2068 2048">
   <path fill="currentColor"
d="M304 265q0 41 -20.5 76t-55.5 55v1501q0 14 -11.5 25.5t-26.5 11.5h-76q-15 0 -26.5 -11.5t-11.5 -25.5v-1501q-36 -20 -56 -55t-20 -76q0 -63 44 -107t107 -44t108 44.5t45 106.5zM2048 341v904q0 30 -15 46.5t-46 32.5q-117 64 -224 100.5t-214 36.5q-59 0 -117.5 -17
t-108 -41.5t-100.5 -49t-117 -41.5t-137 -17q-228 0 -550 173q-19 11 -39 11q-32 0 -54 -22.5t-22 -53.5v-879q0 -39 36 -66q25 -16 93 -50q281 -143 500 -143q126 0 235.5 34.5t260.5 104.5q46 23 105 23q63 0 139 -25t131 -55.5t103.5 -56t64.5 -25.5q31 0 53.5 22.5
t22.5 53.5z" />
</svg>
