<?xml version="1.0" standalone="no"?>
<!DOCTYPE svg PUBLIC "-//W3C//DTD SVG 1.1//EN" "http://www.w3.org/Graphics/SVG/1.1/DTD/svg11.dtd" >
<svg xmlns="http://www.w3.org/2000/svg" xmlns:xlink="http://www.w3.org/1999/xlink" version="1.1" width="2048" height="2048" viewBox="-10 0 2068 2048">
   <path fill="currentColor"
d="M453 2048h230v-229h-230v229zM912 2048h224v-229h-224v229zM1819 1365h-1136v-1136h1136v1136zM1819 0h-1136q-96 0 -163 66.5t-67 162.5v1136q0 96 67 163t163 67h1136q96 0 162.5 -67t66.5 -163v-1136q0 -96 -66.5 -162.5t-162.5 -66.5zM1365 2048h230v-229h-230v229z
M0 683h229v-230h-229v230zM229 2048v-229h-229q0 96 66.5 162.5t162.5 66.5zM0 1595h229v-230h-229v230zM0 1136h229v-224h-229v224z" />
</svg>
