<?xml version="1.0" standalone="no"?>
<!DOCTYPE svg PUBLIC "-//W3C//DTD SVG 1.1//EN" "http://www.w3.org/Graphics/SVG/1.1/DTD/svg11.dtd" >
<svg xmlns="http://www.w3.org/2000/svg" xmlns:xlink="http://www.w3.org/1999/xlink" version="1.1" width="2048" height="2048" viewBox="-10 0 2068 2048">
   <path fill="currentColor"
d="M1178 1024q-63 0 -108.5 45.5t-45.5 108t45.5 108t108 45.5t108.5 -45.5t46 -108t-46 -108t-108 -45.5zM1178 100q235 0 437 111t317.5 298.5t115.5 413.5q0 158 -10 240q-19 135 -81 269q-145 0 -274 72q-77 39 -202 144q-120 101 -183 135q-106 63 -221 63
q-164 0 -255 -121q-82 -105 -101 -293h-82l-134 442q-10 39 -43.5 58t-67.5 15h-293q-43 0 -72 -29t-29 -72.5t29 -74.5t72 -31v-308q-43 0 -72 -29t-29 -72t29 -72t72 -29h385l48 -168q-82 -38 -178 -38h-44l-4 -101q0 -226 115 -413.5t317 -298.5t438 -111zM308 1432v308
h24l91 -308h-115z" />
</svg>
