<?xml version="1.0" standalone="no"?>
<!DOCTYPE svg PUBLIC "-//W3C//DTD SVG 1.1//EN" "http://www.w3.org/Graphics/SVG/1.1/DTD/svg11.dtd" >
<svg xmlns="http://www.w3.org/2000/svg" xmlns:xlink="http://www.w3.org/1999/xlink" version="1.1" width="2048" height="2048" viewBox="-10 0 2058 2048">
   <path fill="currentColor"
d="M1866 788q74 113 34 330q-34 192 -142 418q-99 212 -219.5 362t-202 150t-135.5 -20q-34 -14 -79 -44q-29 -20 -48.5 -29.5t-49.5 -9.5t-49.5 9.5t-48.5 29.5q-45 30 -79 44q-54 20 -135.5 20t-202 -150t-219.5 -362q-108 -226 -142 -418q-40 -217 34 -330
q148 -217 369 -261q187 -40 370 54v-315q-168 88 -306 108q-113 20 -206 -15q-74 -29 -128 -83q-40 -45 -69 -94l-15 -44l29 -40q45 -39 94 -64q74 -34 153 -34q98 0 201 59q119 64 247 207v-212h206v527q183 -94 370 -54q221 44 369 261z" />
</svg>
