<?xml version="1.0" standalone="no"?>
<!DOCTYPE svg PUBLIC "-//W3C//DTD SVG 1.1//EN" "http://www.w3.org/Graphics/SVG/1.1/DTD/svg11.dtd" >
<svg xmlns="http://www.w3.org/2000/svg" xmlns:xlink="http://www.w3.org/1999/xlink" version="1.1" width="2048" height="2048" viewBox="-10 0 2068 2048">
   <path fill="currentColor"
d="M2048 1090q0 204 -74 387l-25 60l-227 41q-27 102 -111 168t-193 66v38q0 17 -11.5 28.5t-28.5 11.5h-78q-17 0 -28.5 -11.5t-11.5 -28.5v-708q0 -17 11.5 -28t28.5 -11h78q17 0 28.5 11t11.5 28v40q87 0 159.5 43.5t114.5 116.5l84 -14q35 -114 35 -238
q0 -91 -29.5 -180t-81 -165.5t-125.5 -142t-160 -111.5t-187 -71.5t-204 -25.5t-204 25.5t-187 71.5t-160 111.5t-126 142t-81.5 165.5t-29.5 180q0 120 36 238l83 14q41 -73 114.5 -116.5t160.5 -43.5v-40q0 -17 11.5 -28t28.5 -11h78q17 0 28 11t11 28v708q0 17 -11 28.5
t-28 11.5h-78q-17 0 -28.5 -11.5t-11.5 -28.5v-38q-109 0 -193 -66t-111 -168l-228 -41l-24 -60q-74 -183 -74 -387q0 -124 37.5 -244t104.5 -222.5t162.5 -189t207.5 -147.5t244 -95t268 -34t268 34t244 95t207.5 147.5t162.5 189t104.5 222.5t37.5 244z" />
</svg>
