<?xml version="1.0" standalone="no"?>
<!DOCTYPE svg PUBLIC "-//W3C//DTD SVG 1.1//EN" "http://www.w3.org/Graphics/SVG/1.1/DTD/svg11.dtd" >
<svg xmlns="http://www.w3.org/2000/svg" xmlns:xlink="http://www.w3.org/1999/xlink" version="1.1" width="2048" height="2048" viewBox="-10 0 2068 2048">
   <path fill="currentColor"
d="M613 2048l-613 -613q0 213 21 341q27 160 56.5 192t189.5 59q122 21 346 21zM1424 784l-640 640l-160 -160l640 -640zM32 1147l869 869q475 -85 752.5 -362.5t362.5 -752.5l-869 -869q-475 85 -752.5 360t-362.5 755zM1435 0l613 613q0 -213 -21 -341
q-27 -165 -59 -194.5t-187 -56.5q-138 -21 -346 -21z" />
</svg>
