<?xml version="1.0" standalone="no"?>
<!DOCTYPE svg PUBLIC "-//W3C//DTD SVG 1.1//EN" "http://www.w3.org/Graphics/SVG/1.1/DTD/svg11.dtd" >
<svg xmlns="http://www.w3.org/2000/svg" xmlns:xlink="http://www.w3.org/1999/xlink" version="1.1" width="2048" height="2048" viewBox="-10 0 2058 2048">
   <path fill="currentColor"
d="M1188 1685h-513v-438h513q89 0 154.5 61.5t65.5 154t-65.5 157.5t-154.5 65zM675 370h438q96 0 157.5 61.5t61.5 154t-61.5 157.5t-157.5 65h-438v-438zM1497 993q102 -75 170.5 -184.5t68.5 -219.5q0 -247 -167.5 -418t-414.5 -171h-918v2048h1035q226 0 383.5 -161
t157.5 -394q0 -164 -86 -297.5t-229 -202.5z" />
</svg>
