<?xml version="1.0" standalone="no"?>
<!DOCTYPE svg PUBLIC "-//W3C//DTD SVG 1.1//EN" "http://www.w3.org/Graphics/SVG/1.1/DTD/svg11.dtd" >
<svg xmlns="http://www.w3.org/2000/svg" xmlns:xlink="http://www.w3.org/1999/xlink" version="1.1" width="2048" height="2048" viewBox="-10 0 2068 2048">
   <path fill="currentColor"
d="M1819 1363q-27 37 -59 69q-64 85 -107 160q-58 101 -58 171q0 96 66.5 162.5t160 66.5t160 -66.5t66.5 -162.5q0 -70 -59 -171q-42 -75 -112 -160zM251 1192l544 -544l549 544h-1093zM1541 1075l-1013 -1019l-165 160l272 272l-587 587q-48 48 -48 120t48 120l629 624
q48 53 120 53t120 -53l624 -624q54 -48 54 -120t-54 -120z" />
</svg>
