<?xml version="1.0" standalone="no"?>
<!DOCTYPE svg PUBLIC "-//W3C//DTD SVG 1.1//EN" "http://www.w3.org/Graphics/SVG/1.1/DTD/svg11.dtd" >
<svg xmlns="http://www.w3.org/2000/svg" xmlns:xlink="http://www.w3.org/1999/xlink" version="1.1" width="2048" height="2048" viewBox="-10 0 2068 2048">
   <path fill="currentColor"
d="M498 251h1550v218h-1550v-218zM498 1133v-218h1550v218h-1550zM166 194q73 0 119.5 49.5t46.5 117t-46.5 116.5t-116.5 49t-119.5 -49t-49.5 -116.5t49.5 -117t116.5 -49.5zM166 858q73 0 119.5 49.5t46.5 116.5t-46.5 116.5t-116.5 49.5t-119.5 -49.5t-49.5 -116.5
t49.5 -116.5t116.5 -49.5zM498 1797v-218h1550v218h-1550zM166 1522q73 0 119.5 49t46.5 116.5t-46.5 117t-116.5 49.5t-119.5 -49.5t-49.5 -117t49.5 -116.5t116.5 -49z" />
</svg>
