<?xml version="1.0" standalone="no"?>
<!DOCTYPE svg PUBLIC "-//W3C//DTD SVG 1.1//EN" "http://www.w3.org/Graphics/SVG/1.1/DTD/svg11.dtd" >
<svg xmlns="http://www.w3.org/2000/svg" xmlns:xlink="http://www.w3.org/1999/xlink" version="1.1" width="2048" height="2048" viewBox="-10 0 2068 2048">
   <path fill="currentColor"
d="M2048 1031v187h-410q40 83 44 201q4 130 -48 244q-61 135 -192 209q-148 87 -383 87q-344 4 -536 -153q-140 -113 -187 -292q-27 -91 -22 -156l370 4q0 200 157 274q87 40 196 35h13q100 -8 161 -39q114 -52 122.5 -180.5t-204.5 -233.5h-1129v-187h2048zM1712 647h-370
v-43q-9 -48 -30 -87q-31 -57 -92 -88q-70 -43 -183 -43q-192 0 -261 96q-35 52 -31 130v5q4 24 16 48t32 48q74 82 231 122h-584l-26 -66q-31 -82 -39 -161q-9 -113 26 -205q43 -109 152 -183q131 -87 353 -117q149 -22 266 -9q113 9 201 48q82 30 143 83q57 48 96 109
q35 52 61 113q18 48 26 100q9 39 11 72t2 28z" />
</svg>
