<?xml version="1.0" standalone="no"?>
<!DOCTYPE svg PUBLIC "-//W3C//DTD SVG 1.1//EN" "http://www.w3.org/Graphics/SVG/1.1/DTD/svg11.dtd" >
<svg xmlns="http://www.w3.org/2000/svg" xmlns:xlink="http://www.w3.org/1999/xlink" version="1.1" width="2048" height="2048" viewBox="-10 0 2068 2048">
   <path fill="currentColor"
d="M1897 19l151 584l-126 38q-56 -113 -94 -170q-50 -88 -97 -125.5t-116 -50.5q-38 -6 -120 -6h-339v1407q0 69 6 94q13 51 41 73t97 28q38 6 126 6v132h-804v-132q88 0 126 -6q69 -6 97 -28t41 -73q6 -25 6 -94v-1407h-339q-82 0 -120 6q-69 13 -116 50.5t-97 125.5
q-38 57 -94 170l-126 -38l151 -584h1746z" />
</svg>
