<?xml version="1.0" standalone="no"?>
<!DOCTYPE svg PUBLIC "-//W3C//DTD SVG 1.1//EN" "http://www.w3.org/Graphics/SVG/1.1/DTD/svg11.dtd" >
<svg xmlns="http://www.w3.org/2000/svg" xmlns:xlink="http://www.w3.org/1999/xlink" version="1.1" width="2048" height="2048" viewBox="-10 0 2068 2048">
   <path fill="currentColor"
d="M1024 0q-202 0 -392 77t-334 221t-221 334t-77 392t77 392t221 334t334 221t392 77t392 -77t334 -221t221 -334t77 -392t-77 -392t-221 -334t-334 -221t-392 -77zM1024 202q221 0 411 110.5t300.5 300.5t110.5 411q0 183 -72 341.5t-207 273.5q-106 -101 -247.5 -153.5
t-295.5 -52.5q-308 0 -543 206q-135 -115 -207 -273.5t-72 -341.5q0 -221 110.5 -411t300.5 -300.5t411 -110.5zM1231 399q-29 0 -55.5 17t-40.5 50l-140 351q-58 10 -98.5 46t-64.5 84q-29 82 4.5 159t113 108t156.5 -2.5t110 -110.5q20 -53 10 -106t-43 -96l144 -361
q19 -38 2 -76.5t-60 -57.5q-14 -5 -38 -5zM817 409q-43 0 -72 28.5t-29 72t29 74.5t72.5 31t74.5 -31t31 -74.5t-31 -72t-75 -28.5zM510 716q-44 0 -72.5 29t-28.5 72.5t28.5 74.5t72 31t74.5 -31t31 -74.5t-31 -72.5t-74 -29zM1538 716q-43 0 -74 29t-31 72.5t31 74.5
t74.5 31t72 -31t28.5 -74.5t-28.5 -72.5t-72.5 -29z" />
</svg>
