<?xml version="1.0" standalone="no"?>
<!DOCTYPE svg PUBLIC "-//W3C//DTD SVG 1.1//EN" "http://www.w3.org/Graphics/SVG/1.1/DTD/svg11.dtd" >
<svg xmlns="http://www.w3.org/2000/svg" xmlns:xlink="http://www.w3.org/1999/xlink" version="1.1" width="2048" height="2048" viewBox="-10 0 2058 2048">
   <path fill="currentColor"
d="M1024 0q187 0 344 93.5t248 250.5t91 339q0 256 -163 445t-408 232v235h229v229h-229v224h-224v-224h-229v-229h229v-235q-245 -43 -408 -232t-163 -445q0 -182 91 -339t248 -250.5t344 -93.5zM1024 229q-187 0 -320 133.5t-133 323t133 322.5t320 133t320 -133
t133 -322.5t-133 -323t-320 -133.5z" />
</svg>
