<?xml version="1.0" standalone="no"?>
<!DOCTYPE svg PUBLIC "-//W3C//DTD SVG 1.1//EN" "http://www.w3.org/Graphics/SVG/1.1/DTD/svg11.dtd" >
<svg xmlns="http://www.w3.org/2000/svg" xmlns:xlink="http://www.w3.org/1999/xlink" version="1.1" width="2048" height="2048" viewBox="-10 0 2058 2048">
   <path fill="currentColor"
d="M1447 238q-99 -11 -173 52.5t-80 162.5l-33 335h330v236h-352l-49 593q-17 193 -165 319.5t-341 109.5q-115 -11 -208.5 -68.5t-153.5 -151.5l176 -176q22 66 76.5 110t126.5 50q99 11 173 -52.5t80 -162.5l55 -571h-352v-236h368l33 -357q17 -193 165 -319.5t341 -109.5
q115 11 208.5 68.5t153.5 151.5l-176 176q-22 -66 -76.5 -110t-126.5 -50z" />
</svg>
