<?xml version="1.0" standalone="no"?>
<!DOCTYPE svg PUBLIC "-//W3C//DTD SVG 1.1//EN" "http://www.w3.org/Graphics/SVG/1.1/DTD/svg11.dtd" >
<svg xmlns="http://www.w3.org/2000/svg" xmlns:xlink="http://www.w3.org/1999/xlink" version="1.1" width="2048" height="2048" viewBox="-10 0 2068 2048">
   <path fill="currentColor"
d="M558 466h932q148 0 276.5 74t205 202.5t76.5 281.5t-76.5 281.5t-205 202.5t-276.5 74q-122 0 -231 -50t-187 -138h-96q-78 88 -187 138t-231 50q-148 0 -276.5 -74t-205 -202.5t-76.5 -281.5t76.5 -281.5t205 -202.5t276.5 -74zM466 745v187h-187v184h187v187h188v-187
h183v-184h-183v-187h-188zM1351 1024q-61 0 -100.5 41.5t-39.5 98t39.5 98t98 41.5t100 -41.5t41.5 -98t-41.5 -98t-97.5 -41.5zM1630 745q-61 0 -100.5 41.5t-39.5 98t39.5 98t98 41.5t100 -41.5t41.5 -98t-41.5 -98t-97.5 -41.5z" />
</svg>
