<?xml version="1.0" standalone="no"?>
<!DOCTYPE svg PUBLIC "-//W3C//DTD SVG 1.1//EN" "http://www.w3.org/Graphics/SVG/1.1/DTD/svg11.dtd" >
<svg xmlns="http://www.w3.org/2000/svg" xmlns:xlink="http://www.w3.org/1999/xlink" version="1.1" width="2048" height="2048" viewBox="-10 0 2058 2048">
   <path fill="currentColor"
d="M615 0h818q-34 67 -44 115q-14 77 0 193q10 48 34 158q34 159 43 231q15 130 -5 197q-14 48 -57 92q-24 24 -82 64.5t-86 69.5q-49 43 -77 96q-58 116 -65.5 310.5t41.5 309.5q33 82 101 111q38 19 110 24h29q38 5 53 29q5 14 5 48h-818q0 -34 5 -48q15 -24 53 -29h29
q72 -5 110 -24q68 -29 101 -111q49 -115 41.5 -309.5t-65.5 -310.5q-28 -53 -77 -96q-28 -29 -86 -69.5t-82 -64.5q-43 -44 -57 -92q-20 -67 -5 -197q9 -72 43 -231q24 -110 34 -158q14 -116 0 -193q-10 -48 -44 -115zM817 202q0 149 -33 308h471q-24 -164 -24 -308h-414z
" />
</svg>
