<?xml version="1.0" standalone="no"?>
<!DOCTYPE svg PUBLIC "-//W3C//DTD SVG 1.1//EN" "http://www.w3.org/Graphics/SVG/1.1/DTD/svg11.dtd" >
<svg xmlns="http://www.w3.org/2000/svg" xmlns:xlink="http://www.w3.org/1999/xlink" version="1.1" width="2048" height="2048" viewBox="-10 0 2068 2048">
   <path fill="currentColor"
d="M240 803q-33 0 -51.5 22.5t-13.5 55.5l40 257q9 45 41.5 73.5t69.5 28.5h261q45 0 84 -30.5t47 -71.5l94 -277q4 -21 -8.5 -39.5t-40.5 -18.5h-523zM587 1416h-261q-107 0 -188.5 -73.5t-93.5 -175.5l-41 -261q-16 -115 55.5 -194.5t181.5 -79.5h523q114 0 179 82
q17 20 25 45q57 -13 114 0q8 -25 25 -45q65 -82 179 -82h523q110 0 181.5 79.5t55.5 189.5l-41 270q-12 102 -96 173.5t-186 71.5h-261q-102 0 -190 -69.5t-112 -167.5l-78 -237q-24 -16 -57 -16t-57 16l-78 245q-24 94 -112 161.5t-190 67.5zM1285 803q-28 0 -40.5 18.5
t-8.5 43.5l90 265q12 45 51 77.5t84 32.5h261q37 0 69.5 -28.5t37.5 -69.5l44 -265q5 -29 -13.5 -51.5t-51.5 -22.5h-523z" />
</svg>
