<?xml version="1.0" standalone="no"?>
<!DOCTYPE svg PUBLIC "-//W3C//DTD SVG 1.1//EN" "http://www.w3.org/Graphics/SVG/1.1/DTD/svg11.dtd" >
<svg xmlns="http://www.w3.org/2000/svg" xmlns:xlink="http://www.w3.org/1999/xlink" version="1.1" width="2048" height="2048" viewBox="-10 0 2058 2048">
   <path fill="currentColor"
d="M1024 0q-250 0 -461.5 122.5t-336.5 336.5t-125 464v1125l308 -308l307 308l308 -308l308 308l307 -308l308 308v-1125q0 -250 -125 -464t-336.5 -336.5t-461.5 -122.5zM716 615q87 0 147 60.5t60 144.5t-60 144t-146.5 60t-146.5 -60t-60 -144t60 -144.5t146 -60.5z
M1332 615q86 0 146 60.5t60 144.5t-60 144t-146.5 60t-146.5 -60t-60 -144t60 -144.5t147 -60.5z" />
</svg>
