<?xml version="1.0" standalone="no"?>
<!DOCTYPE svg PUBLIC "-//W3C//DTD SVG 1.1//EN" "http://www.w3.org/Graphics/SVG/1.1/DTD/svg11.dtd" >
<svg xmlns="http://www.w3.org/2000/svg" xmlns:xlink="http://www.w3.org/1999/xlink" version="1.1" width="2048" height="2048" viewBox="-10 0 2058 2048">
   <path fill="currentColor"
d="M2005 933h-938v278h669q-25 275 -231 428q-183 130 -438 130q-197 0 -365 -96t-269 -266.5t-101 -380t98.5 -380t266.5 -269t367.5 -98.5t372.5 101q87 48 135 101l192 -202l-43 -43q-62 -53 -139 -97q-101 -62 -221 -96q-145 -43 -303 -43q-284 0 -524 144
q-231 140 -370.5 378t-139.5 500t134.5 500t365.5 377q250 149 548 149q274 0 490.5 -115.5t339 -329.5t122.5 -488q0 -115 -19 -182z" />
</svg>
