<?xml version="1.0" standalone="no"?>
<!DOCTYPE svg PUBLIC "-//W3C//DTD SVG 1.1//EN" "http://www.w3.org/Graphics/SVG/1.1/DTD/svg11.dtd" >
<svg xmlns="http://www.w3.org/2000/svg" xmlns:xlink="http://www.w3.org/1999/xlink" version="1.1" width="2048" height="2048" viewBox="-10 0 2068 2048">
   <path fill="currentColor"
d="M72 1828h-72v-1608h72v1608zM144 1828h-37v-1608h37v1608zM251 1828h-35v-1608h35v1608zM431 1828h-36v-1608h36v1608zM610 1828h-71v-1608h71v1608zM754 1828h-35v-1608h35v1608zM826 1828h-35v-1608h35v1608zM898 1828h-35v-1608h35v1608zM1078 1828h-72v-1608h72v1608
zM1257 1828h-72v-1608h72v1608zM1401 1828h-72v-1608h72v1608zM1545 1828h-72v-1608h72v1608zM1653 1828h-72v-1608h72v1608zM1869 1828h-108v-1608h108v1608zM1941 1828h-37v-1608h37v1608zM2048 1828h-72v-1608h72v1608z" />
</svg>
