<?xml version="1.0" standalone="no"?>
<!DOCTYPE svg PUBLIC "-//W3C//DTD SVG 1.1//EN" "http://www.w3.org/Graphics/SVG/1.1/DTD/svg11.dtd" >
<svg xmlns="http://www.w3.org/2000/svg" xmlns:xlink="http://www.w3.org/1999/xlink" version="1.1" width="2048" height="2048" viewBox="-10 0 2068 2048">
   <path fill="currentColor"
d="M1024 24q-202 0 -392 76.5t-334 221t-221 334.5t-77 392q0 336 194.5 603t507.5 372q34 5 50.5 -11.5t16.5 -40.5v-174q-178 39 -279 -48q-53 -38 -67 -91q-19 -53 -53 -91q-19 -29 -43 -44l-19 -14q-39 -29 -39 -43.5t24 -14.5l24 -4q63 4 116 57q29 24 38 48
q63 101 164 111q62 5 139 -24q10 -92 63 -140q-212 -24 -318 -115q-149 -125 -149 -389q0 -159 106 -274q-19 -44 -19 -97q-10 -86 29 -177h28q39 0 92 19q77 29 163 86q120 -33 255 -33t255 33q125 -81 216 -101q48 -9 67 -4q39 91 29 177q0 53 -19 97q106 115 106 274
q0 269 -149 389q-111 91 -318 115q68 63 68 193v279q0 24 16.5 40.5t55.5 11.5q308 -105 502.5 -372t194.5 -603q0 -202 -77 -392t-221 -334.5t-334 -221t-392 -76.5z" />
</svg>
