<?xml version="1.0" standalone="no"?>
<!DOCTYPE svg PUBLIC "-//W3C//DTD SVG 1.1//EN" "http://www.w3.org/Graphics/SVG/1.1/DTD/svg11.dtd" >
<svg xmlns="http://www.w3.org/2000/svg" xmlns:xlink="http://www.w3.org/1999/xlink" version="1.1" width="2048" height="2048" viewBox="-10 0 2068 2048">
   <path fill="currentColor"
d="M1024 1846l356 -615q53 -101 53 -207q0 -91 -36 -170.5t-104 -137.5h491q62 149 62 308q0 221 -110.5 411t-300.5 300.5t-411 110.5zM202 1024q0 -221 110 -409l356 616q58 91 151.5 146.5t204.5 55.5q62 0 135 -24l-250 427q-197 -28 -358.5 -143.5t-255 -291
t-93.5 -377.5zM1332 1024q0 130 -89 219t-219 89t-219 -89t-89 -219t89 -219t219 -89t219 89t89 219zM1024 202q226 0 413.5 113t298.5 300h-712q-149 0 -262 94t-142 233l-240 -423q110 -144 281 -230.5t363 -86.5zM1024 0q-202 0 -392 77t-334 221t-221 334t-77 392
t77 392t221 334t334 221t392 77t392 -77t334 -221t221 -334t77 -392t-77 -392t-221 -334t-334 -221t-392 -77z" />
</svg>
