<?xml version="1.0" standalone="no"?>
<!DOCTYPE svg PUBLIC "-//W3C//DTD SVG 1.1//EN" "http://www.w3.org/Graphics/SVG/1.1/DTD/svg11.dtd" >
<svg xmlns="http://www.w3.org/2000/svg" xmlns:xlink="http://www.w3.org/1999/xlink" version="1.1" width="2048" height="2048" viewBox="-10 0 2058 2048">
   <path fill="currentColor"
d="M1683 0q-149 0 -255 91q-92 82 -128 207t-2 216.5t120.5 91.5t199.5 -91.5t185 -216.5t53 -207q-24 -91 -173 -91zM1024 72h-24q-82 15 -120 87q-39 62 -31.5 148.5t43.5 154t81.5 70t89 -67.5t62.5 -163.5t-5 -161t-96 -67.5zM606 240q-19 0 -39 10q-91 34 -91 139
q0 87 57.5 171t108 74.5t70 -110.5t-4.5 -187q-29 -101 -101 -97zM298 495q-24 0 -53 19q-72 48 -53 140q20 82 84.5 144.5t108 43t43.5 -106t-36 -161t-94 -79.5zM1159 692q-173 0 -342 58q-182 58 -307 163q-135 121 -173 274q-39 178 67 380t288 342q202 139 409 139
q106 0 214 -57.5t187.5 -156t103.5 -219.5q9 -62 -48.5 -91t-141.5 -19.5t-149 43.5t-56 77q10 72 -23.5 117.5t-91.5 50.5t-120 -43q-96 -72 -87 -144q5 -63 92 -130q53 -43 197 -130q202 -125 279 -202q129 -125 105 -255q-14 -96 -127 -146.5t-276 -50.5z" />
</svg>
