<?xml version="1.0" standalone="no"?>
<!DOCTYPE svg PUBLIC "-//W3C//DTD SVG 1.1//EN" "http://www.w3.org/Graphics/SVG/1.1/DTD/svg11.dtd" >
<svg xmlns="http://www.w3.org/2000/svg" xmlns:xlink="http://www.w3.org/1999/xlink" version="1.1" width="2048" height="2048" viewBox="-10 0 2068 2048">
   <path fill="currentColor"
d="M1952 1024v745q0 74 -54.5 128.5t-128.5 54.5h-1490q-74 0 -128.5 -54.5t-54.5 -128.5v-745q-39 0 -67.5 -26t-28.5 -66v-278q0 -79 54.5 -133.5t132.5 -54.5h297q-18 -43 -18 -91q0 -118 80.5 -198.5t198.5 -80.5q70 0 128.5 30.5t98.5 82.5l52 70l52 -70
q40 -52 98.5 -82.5t128.5 -30.5q118 0 198.5 80.5t80.5 198.5q0 48 -18 91h297q78 0 132.5 54.5t54.5 133.5v278q0 40 -28.5 66t-67.5 26zM279 1769h653v-745h-653v745zM1769 1769v-745h-653v745h653zM745 279q-39 0 -65 28.5t-26 67.5t26 65t65 26t65.5 -26t26.5 -65
t-26.5 -67.5t-65.5 -28.5zM1303 279q-39 0 -65.5 28.5t-26.5 67.5t26.5 65t65.5 26t65 -26t26 -65t-26 -67.5t-65 -28.5zM187 654v183h745v-183h-745zM1116 654v183h745v-183h-745z" />
</svg>
