<?xml version="1.0" standalone="no"?>
<!DOCTYPE svg PUBLIC "-//W3C//DTD SVG 1.1//EN" "http://www.w3.org/Graphics/SVG/1.1/DTD/svg11.dtd" >
<svg xmlns="http://www.w3.org/2000/svg" xmlns:xlink="http://www.w3.org/1999/xlink" version="1.1" width="2048" height="2048" viewBox="-10 0 2068 2048">
   <path fill="currentColor"
d="M1846 308h-937l-92 -308h-615q-82 0 -142 60t-60 142v1336q0 82 60 142t142 60h721l101 308h822q82 0 142 -60t60 -142v-1336q0 -82 -60 -142t-142 -60zM529 1288q-173 0 -295.5 -122.5t-122.5 -295.5t122.5 -295.5t290.5 -122.5t284 110l9 5l-125 120l-9 -4
q-63 -63 -159 -63t-168 74.5t-72 175.5t72 175.5t170.5 74.5t156.5 -53q48 -43 62 -101h-226v-158h404l5 9q5 24 5 63q0 182 -113 295t-291 113zM1149 1115q43 87 120 173l-58 53zM1226 1038h-101l-34 -110h409l-10 43q-24 48 -53 101q-38 72 -96 139q-67 -81 -115 -173z
M1947 1846q0 43 -29 72t-72 29h-721l207 -207l-82 -283l91 -92l279 274l72 -77l-279 -274q149 -168 198 -360h129v-106h-370v-106h-110v106h-198l-120 -413h904q43 0 72 28.5t29 72.5v1336z" />
</svg>
