<?xml version="1.0" standalone="no"?>
<!DOCTYPE svg PUBLIC "-//W3C//DTD SVG 1.1//EN" "http://www.w3.org/Graphics/SVG/1.1/DTD/svg11.dtd" >
<svg xmlns="http://www.w3.org/2000/svg" xmlns:xlink="http://www.w3.org/1999/xlink" version="1.1" width="2048" height="2048" viewBox="-10 0 2068 2048">
   <path fill="currentColor"
d="M0 231l130 -130l1716 1716l-130 130l-615 -615h-490l-303 307q-58 53 -130 53t-125 -53t-53 -125v-28l101 -755q14 -159 120 -274zM308 716v106h202v202h105v-178l-129 -130h-178zM1486 308q182 0 314.5 122.5t146.5 300.5l101 755v28q0 48 -24 91.5t-67 62.5
l-1361 -1360h890zM1486 514q-34 0 -55.5 22t-21.5 53t21.5 55t55 24t55 -24t21.5 -55t-21.5 -53t-54.5 -22zM1308 692q-34 0 -55.5 22t-21.5 55.5t21.5 55t52.5 21.5t55.5 -21.5t24.5 -55t-24.5 -55.5t-52.5 -22zM1663 692q-28 0 -52.5 22t-24.5 55.5t24.5 55t55.5 21.5
t52.5 -21.5t21.5 -55t-21.5 -55.5t-55.5 -22zM1486 870q-34 0 -55.5 24t-21.5 55.5t21.5 53t55 21.5t55 -21.5t21.5 -53t-21.5 -55.5t-54.5 -24z" />
</svg>
