<?xml version="1.0" standalone="no"?>
<!DOCTYPE svg PUBLIC "-//W3C//DTD SVG 1.1//EN" "http://www.w3.org/Graphics/SVG/1.1/DTD/svg11.dtd" >
<svg xmlns="http://www.w3.org/2000/svg" xmlns:xlink="http://www.w3.org/1999/xlink" version="1.1" width="2048" height="2048" viewBox="-10 0 2068 2048">
   <path fill="currentColor"
d="M1426 1367h37q142 0 279 -55q-37 210 -158 377t-306 263t-400 96q-243 0 -444 -116.5t-317.5 -317.5t-116.5 -444q0 -215 96 -400t263 -306t377 -158q-55 137 -55 279v37q-174 59 -281 210t-107 338q0 160 77.5 295t212.5 212.5t295 77.5q187 0 338 -107t210 -281z
M1463 878q119 0 205.5 -84.5t86.5 -206t-86.5 -208t-208 -86.5t-206 86.5t-84.5 208t84.5 206t208.5 84.5zM1463 0q155 0 290 80t215 215t80 292.5t-80 292.5t-215 212.5t-292.5 77.5t-292.5 -77.5t-212.5 -212.5t-77.5 -292.5t77.5 -292.5t212.5 -215t295 -80z" />
</svg>
