<?xml version="1.0" standalone="no"?>
<!DOCTYPE svg PUBLIC "-//W3C//DTD SVG 1.1//EN" "http://www.w3.org/Graphics/SVG/1.1/DTD/svg11.dtd" >
<svg xmlns="http://www.w3.org/2000/svg" xmlns:xlink="http://www.w3.org/1999/xlink" version="1.1" width="2048" height="2048" viewBox="-10 0 2068 2048">
   <path fill="currentColor"
d="M1024 1038q-139 -211 -293 -302.5t-269.5 -65t-192.5 127.5q-67 87 -67 207v19q0 125 38 245q5 19 10 19t10 -19q19 -96 88.5 -139.5t182.5 2.5t229 195q197 264 461 322q341 48 515 -216q52 -106 72 -164q14 -43 -15 -9q-72 96 -192 124.5t-283.5 -58t-293.5 -288.5z
M1534 630q-236 -356 -520 -409q-221 -34 -480 154q-34 24 -31.5 26.5t40.5 -16.5q385 -188 741 394q77 130 161 202t161 86.5t134.5 -5t105.5 -62.5q0 -101 -34 -202q-76 19 -134 -9.5t-144 -158.5zM1024 0q418 0 721 303t303 721t-303 721t-721 303t-721 -303t-303 -721
t303 -721t721 -303z" />
</svg>
