<?xml version="1.0" standalone="no"?>
<!DOCTYPE svg PUBLIC "-//W3C//DTD SVG 1.1//EN" "http://www.w3.org/Graphics/SVG/1.1/DTD/svg11.dtd" >
<svg xmlns="http://www.w3.org/2000/svg" xmlns:xlink="http://www.w3.org/1999/xlink" version="1.1" width="2048" height="2048" viewBox="-10 0 2068 2048">
   <path fill="currentColor"
d="M1639 1791q-86 0 -146 -60t-60 -144.5t60 -144.5t146.5 -60t146.5 60t60 144.5t-60 144.5t-147 60zM1639 1175q-168 0 -288 120.5t-120 291t120 291t288.5 120.5t288.5 -120.5t120 -291t-120 -291t-289 -120.5zM1024 983q-82 0 -139.5 58t-57.5 137t57.5 137t139.5 58
t139.5 -58t57.5 -137t-57.5 -137t-139.5 -58zM409 1791q-87 0 -147 -60t-60 -144.5t60 -144.5t146.5 -60t146.5 60t60 144.5t-60 144.5t-146 60zM409 1175q-169 0 -289 120.5t-120 291t120 291t288.5 120.5t288.5 -120.5t120 -291t-120 -291t-288 -120.5zM1024 252
q87 0 147 60.5t60 147t-60 146.5t-147 60t-147 -60t-60 -146.5t60 -147t147 -60.5zM1024 868q168 0 288.5 -120.5t120.5 -288.5t-120.5 -288.5t-288.5 -120.5t-288.5 120.5t-120.5 288.5t120.5 288.5t288.5 120.5z" />
</svg>
