<?xml version="1.0" standalone="no"?>
<!DOCTYPE svg PUBLIC "-//W3C//DTD SVG 1.1//EN" "http://www.w3.org/Graphics/SVG/1.1/DTD/svg11.dtd" >
<svg xmlns="http://www.w3.org/2000/svg" xmlns:xlink="http://www.w3.org/1999/xlink" version="1.1" width="2048" height="2048" viewBox="-10 0 2068 2048">
   <path fill="currentColor"
d="M359 845q-75 0 -127.5 52t-52.5 127t52.5 127t125.5 52t125 -52t52 -127t-52 -127t-123 -52zM359 1379q-150 0 -254.5 -104.5t-104.5 -250.5t104.5 -250.5t252.5 -104.5t252 104.5t104 250.5t-104 250.5t-250 104.5zM847 936h313v-267l354 355l-354 355v-267h-313v-176z
M359 490q-59 0 -117 13q129 -209 350 -334t482 -125t486 131.5t356.5 356.5t131.5 492t-131.5 492t-356.5 356.5t-486 131.5t-482 -125t-350 -334q58 13 117 13q104 0 200 -38q96 100 229.5 158.5t279.5 58.5q196 0 358.5 -96t258.5 -260.5t96 -356.5t-96 -356.5
t-258.5 -260.5t-358.5 -96q-146 0 -279.5 58.5t-229.5 158.5q-96 -38 -200 -38z" />
</svg>
