<?xml version="1.0" standalone="no"?>
<!DOCTYPE svg PUBLIC "-//W3C//DTD SVG 1.1//EN" "http://www.w3.org/Graphics/SVG/1.1/DTD/svg11.dtd" >
<svg xmlns="http://www.w3.org/2000/svg" xmlns:xlink="http://www.w3.org/1999/xlink" version="1.1" width="2048" height="2048" viewBox="-10 0 2068 2048">
   <path fill="currentColor"
d="M611 1356l-303 307q-58 53 -130 53t-125 -52.5t-53 -125.5v-28l101 -755q14 -178 146.5 -300.5t314.5 -122.5h924q182 0 314.5 122.5t146.5 300.5l101 755v28q0 73 -53 125.5t-125 52.5t-130 -53l-303 -307h-826zM510 538v202h-202v106h202v202h105v-202h202v-106h-202
v-202h-105zM1486 538q-34 0 -55.5 22t-21.5 53t21.5 55t55 24t55 -24t21.5 -55t-21.5 -53t-54.5 -22zM1308 716q-34 0 -55.5 22t-21.5 55.5t21.5 55t52.5 21.5t55.5 -21.5t24.5 -55t-24.5 -55.5t-52.5 -22zM1663 716q-28 0 -52.5 22t-24.5 55.5t24.5 55t55.5 21.5
t52.5 -21.5t21.5 -55t-21.5 -55.5t-55.5 -22zM1486 894q-34 0 -55.5 24t-21.5 55.5t21.5 53t55 21.5t55 -21.5t21.5 -53t-21.5 -55.5t-54.5 -24z" />
</svg>
