<?xml version="1.0" standalone="no"?>
<!DOCTYPE svg PUBLIC "-//W3C//DTD SVG 1.1//EN" "http://www.w3.org/Graphics/SVG/1.1/DTD/svg11.dtd" >
<svg xmlns="http://www.w3.org/2000/svg" xmlns:xlink="http://www.w3.org/1999/xlink" version="1.1" width="2048" height="2048" viewBox="-10 0 2068 2048">
   <path fill="currentColor"
d="M0 1639h716v-1216q-134 34 -220.5 144.5t-86.5 249.5v106h206v615h-206q-87 0 -147 -60t-60 -146v-515q0 -163 84 -305t226 -226t305 -84h106q163 0 305 84t226 226t84 305v207h101v-308h207v308q0 87 -60 147t-147 60h-101v101q0 86 -60 146t-146 60h-207v-615h207v-106
q0 -139 -86.5 -249.5t-221.5 -144.5v1216h1024v207h-2048v-207z" />
</svg>
