<?xml version="1.0" standalone="no"?>
<!DOCTYPE svg PUBLIC "-//W3C//DTD SVG 1.1//EN" "http://www.w3.org/Graphics/SVG/1.1/DTD/svg11.dtd" >
<svg xmlns="http://www.w3.org/2000/svg" xmlns:xlink="http://www.w3.org/1999/xlink" version="1.1" width="2048" height="2048" viewBox="-10 0 2058 2048">
   <path fill="currentColor"
d="M1739 212q-125 -111 -327 -164q-38 -10 -144 -29q-130 -19 -226 -19h-38q-96 0 -236 19q-110 19 -144 29q-192 53 -317 164q-149 134 -169 336q-19 183 63 375q163 399 370 707l53 77q115 168 178 230q110 111 218.5 111t214.5 -101q67 -62 177 -221l72 -96
q198 -274 371 -707q77 -192 53 -375q-24 -202 -169 -336z" />
</svg>
