<?xml version="1.0" standalone="no"?>
<!DOCTYPE svg PUBLIC "-//W3C//DTD SVG 1.1//EN" "http://www.w3.org/Graphics/SVG/1.1/DTD/svg11.dtd" >
<svg xmlns="http://www.w3.org/2000/svg" xmlns:xlink="http://www.w3.org/1999/xlink" version="1.1" width="2048" height="2048" viewBox="-10 0 2068 2048">
   <path fill="currentColor"
d="M1790 56h258v217h-172l-566 571l-157 -151zM971 703q40 0 76 30l217 218q31 35 31 76l-11 45l-429 860q-36 60 -101.5 60t-96.5 -60l-197 -400l-399 -192q-61 -30 -61 -96t61 -101l859 -430q16 -10 51 -10zM683 1006l-71 76l303 304l76 -71zM531 1158l-76 76l309 308
l75 -76z" />
</svg>
