<?xml version="1.0" standalone="no"?>
<!DOCTYPE svg PUBLIC "-//W3C//DTD SVG 1.1//EN" "http://www.w3.org/Graphics/SVG/1.1/DTD/svg11.dtd" >
<svg xmlns="http://www.w3.org/2000/svg" xmlns:xlink="http://www.w3.org/1999/xlink" version="1.1" width="2048" height="2048" viewBox="-10 0 2068 2048">
   <path fill="currentColor"
d="M817 202v413h414v-413h-414zM1433 202v413h413v-413h-413zM1433 817v414h413v-414h-413zM1433 1433v413h413v-413h-413zM1231 1846v-413h-414v413h414zM615 1846v-413h-413v413h413zM615 1231v-414h-413v414h413zM615 615v-413h-413v413h413zM817 1231h414v-414h-414v414
zM202 0h1644q82 0 142 60t60 142v1644q0 82 -60 142t-142 60h-1644q-82 0 -142 -60t-60 -142v-1644q0 -82 60 -142t142 -60z" />
</svg>
