<?xml version="1.0" standalone="no"?>
<!DOCTYPE svg PUBLIC "-//W3C//DTD SVG 1.1//EN" "http://www.w3.org/Graphics/SVG/1.1/DTD/svg11.dtd" >
<svg xmlns="http://www.w3.org/2000/svg" xmlns:xlink="http://www.w3.org/1999/xlink" version="1.1" width="2048" height="2048" viewBox="-10 0 2058 2048">
   <path fill="currentColor"
d="M1739 212q-125 -111 -327 -164q-38 -10 -144 -29q-130 -19 -226 -19h-38q-96 0 -236 19q-110 19 -144 29q-192 53 -317 164q-149 134 -169 336q-19 183 63 375q163 399 370 707l53 77q115 168 178 230q110 111 218.5 111t214.5 -101q67 -62 177 -221l72 -96
q198 -274 371 -707q77 -192 53 -375q-24 -202 -169 -336zM1658 841q-169 419 -347 664q-9 9 -26 35.5t-26 36.5q-58 96 -116 163q-82 106 -120 106q-43 0 -120 -91q-43 -53 -120 -164l-5 -14q-10 -10 -26.5 -36.5t-26.5 -35.5q-197 -298 -346 -664l-5 -9q-34 -125 -34 -212
q-5 -168 96 -264q63 -58 236 -111q19 0 96 -14q164 -29 236 -29h29q77 0 192 19q91 15 134 24q178 53 236 111q115 101 111 274q-5 110 -48 211z" />
</svg>
