<?xml version="1.0" standalone="no"?>
<!DOCTYPE svg PUBLIC "-//W3C//DTD SVG 1.1//EN" "http://www.w3.org/Graphics/SVG/1.1/DTD/svg11.dtd" >
<svg xmlns="http://www.w3.org/2000/svg" xmlns:xlink="http://www.w3.org/1999/xlink" version="1.1" width="2048" height="2048" viewBox="-10 0 2058 2048">
   <path fill="currentColor"
d="M1373 900l-98 197h-150l98 -197h-150v-300h300v300zM975 900l-103 197h-150l103 -197h-150v-300h300v300zM1022 0q-169 0 -323.5 63.5t-274 183t-185.5 276.5t-66 325.5t66 325.5t185.5 276.5t274 183t323.5 63.5h51v351q239 -112 422 -314q178 -192 279 -426.5
t101 -461.5t-115 -424t-309.5 -309.5t-428.5 -112.5z" />
</svg>
