<?xml version="1.0" standalone="no"?>
<!DOCTYPE svg PUBLIC "-//W3C//DTD SVG 1.1//EN" "http://www.w3.org/Graphics/SVG/1.1/DTD/svg11.dtd" >
<svg xmlns="http://www.w3.org/2000/svg" xmlns:xlink="http://www.w3.org/1999/xlink" version="1.1" width="2048" height="2048" viewBox="-10 0 2068 2048">
   <path fill="currentColor"
d="M1025 513q82 0 159 4q192 10 355 34q221 34 351 91q158 72 158 178v168q0 168 -24 163q-24 -115 -187 -192q-130 -62 -341 -101q-149 -24 -327 -33l-144 -5l-144 5q-178 9 -326 33q-212 39 -341 101q-159 77 -188 192q-24 5 -24 -163q-4 -82 0 -168q0 -139 265 -216
q187 -58 494 -82q149 -9 264 -9zM1025 921q231 0 408 24q149 19 260 57q91 29 149 68q43 28 67 57l14 24q-57 164 -110 236q-63 86 -168.5 117t-311.5 31q-130 0 -188 -38q-33 -19 -57 -67q-15 -24 -27 -36t-36 -12t-36 12t-26 36q-24 48 -58 67q-57 38 -187 38
q-207 0 -312.5 -31t-167.5 -117q-53 -72 -111 -236l15 -24q24 -29 67 -57q58 -39 149 -68q110 -38 259 -57q178 -24 408 -24z" />
</svg>
