<?xml version="1.0" standalone="no"?>
<!DOCTYPE svg PUBLIC "-//W3C//DTD SVG 1.1//EN" "http://www.w3.org/Graphics/SVG/1.1/DTD/svg11.dtd" >
<svg xmlns="http://www.w3.org/2000/svg" xmlns:xlink="http://www.w3.org/1999/xlink" version="1.1" width="2048" height="2048" viewBox="-10 0 2068 2048">
   <path fill="currentColor"
d="M229 0h1590q96 0 162.5 66.5t66.5 162.5v1590q0 96 -66.5 162.5t-162.5 66.5h-1590q-96 0 -162.5 -66.5t-66.5 -162.5v-1590q0 -96 66.5 -162.5t162.5 -66.5zM1024 1595l80 -75l5 -5q267 -240 352 -347q134 -160 134 -309q0 -128 -91 -219t-224 -91q-75 0 -141.5 32
t-114.5 86q-48 -54 -114.5 -86t-141.5 -32q-133 0 -224 91t-91 219q0 149 134 309q85 107 352 347z" />
</svg>
