<?xml version="1.0" standalone="no"?>
<!DOCTYPE svg PUBLIC "-//W3C//DTD SVG 1.1//EN" "http://www.w3.org/Graphics/SVG/1.1/DTD/svg11.dtd" >
<svg xmlns="http://www.w3.org/2000/svg" xmlns:xlink="http://www.w3.org/1999/xlink" version="1.1" width="2048" height="2048" viewBox="-10 0 2058 2048">
   <path fill="currentColor"
d="M1958 1036q-44 -14 -92 -29q-112 -39 -219 -97q-146 -83 -263 -190q-141 -131 -214 -297q-92 -194 -92 -423l92 5q112 19 214 58q151 59 263 161q141 121 219 306q92 214 92 506zM90 1036q0 -292 92 -506q78 -185 219 -306q112 -102 263 -161q102 -39 214 -58l92 -5
q0 370 -228 637q-161 190 -423 316q-132 59 -229 83zM1024 467q19 29 34 63q49 83 102 156q83 112 175 194q-9 132 -58 249q-39 97 -107 180q-49 58 -102 107l-44 34l-44 -34q-53 -49 -102 -107q-68 -83 -107 -180q-49 -117 -58 -249q131 -121 233 -277q54 -82 78 -136z
M1934 1168l-30 107q-38 131 -92 243q-73 151 -165 243l-73 -54q-83 -68 -156 -150q-97 -112 -151 -229q88 -156 146 -384q243 189 521 224zM1389 1683q-49 93 -141 190q-68 63 -151 126l-73 49l-73 -49q-83 -63 -151 -126q-92 -97 -141 -190l34 -29q39 -39 73 -88
q54 -63 88 -136q78 97 170 127q92 -30 170 -127q49 102 127 190q39 39 68 63zM114 1168q278 -35 521 -224q58 228 146 384q-78 165 -234 316q-82 78 -146 117q-131 -126 -219 -375q-48 -121 -68 -218z" />
</svg>
