<?xml version="1.0" standalone="no"?>
<!DOCTYPE svg PUBLIC "-//W3C//DTD SVG 1.1//EN" "http://www.w3.org/Graphics/SVG/1.1/DTD/svg11.dtd" >
<svg xmlns="http://www.w3.org/2000/svg" xmlns:xlink="http://www.w3.org/1999/xlink" version="1.1" width="2048" height="2048" viewBox="-11 0 2070 2048">
   <path fill="currentColor"
d="M2017 510q49 70 22 158l-339 1115q-23 79 -94 132.5t-150 53.5h-1136q-95 0 -183 -66t-122 -161q-29 -85 -3 -157q1 -8 4.5 -35t4.5 -43q0 -10 -4 -26.5t-3 -24.5q3 -13 10.5 -25.5t20 -29.5t19.5 -29q28 -47 55 -112.5t37 -112.5q4 -12 0.5 -36.5t-0.5 -34.5
q4 -13 21 -34t21 -29q27 -45 53 -113.5t30 -110.5q1 -11 -3.5 -39.5t0.5 -33.5q5 -17 27.5 -38t27.5 -28q23 -33 52 -104.5t34 -118.5q1 -10 -3.5 -31t-2.5 -32t10.5 -23t22.5 -28t20 -26q9 -13 18 -32.5t16 -37t16.5 -38.5t19.5 -37t24.5 -31.5t31 -22t40.5 -9t52 7.5l-1 3
q41 -11 63 -11h936q43 0 80 18.5t61 50.5q49 67 21 160l-337 1115q-15 51 -27 83t-27.5 60.5t-31.5 43.5t-40 26t-52 14.5t-68 3.5h-1069q-33 0 -46 19q-8 11 -8.5 21.5t7.5 30.5q30 86 176 86h1136q36 0 69 -19t43 -50l369 -1215q9 -27 7 -70q46 18 72 53zM708 512
q-6 17 2 28.5t25 11.5h748q15 0 30.5 -11.5t20.5 -28.5l26 -78q6 -17 -2 -28.5t-25 -11.5h-748q-15 0 -30.5 11.5t-21.5 28.5zM605 828q-5 16 2.5 27t24.5 11h748q16 0 31.5 -11t20.5 -27l26 -79q6 -17 -2 -28.5t-25 -11.5h-748q-16 0 -31 11.5t-21 28.5z" />
</svg>
