<?xml version="1.0" standalone="no"?>
<!DOCTYPE svg PUBLIC "-//W3C//DTD SVG 1.1//EN" "http://www.w3.org/Graphics/SVG/1.1/DTD/svg11.dtd" >
<svg xmlns="http://www.w3.org/2000/svg" xmlns:xlink="http://www.w3.org/1999/xlink" version="1.1" width="2048" height="2048" viewBox="-10 0 2068 2048">
   <path fill="currentColor"
d="M1034 1680l-10 10l-10 -10q-307 -279 -427 -399q-193 -192 -284 -332q-101 -158 -101 -302q0 -154 103.5 -255t256.5 -101q121 0 224 67t142 173h192q39 -106 142 -173t224 -67q153 0 256.5 101t103.5 255q0 144 -101 302q-91 140 -284 332q-120 120 -427 399zM1486 84
q-135 0 -255 58t-207 154q-87 -96 -207 -154t-255 -58q-153 0 -283 74.5t-204.5 204.5t-74.5 284q0 187 111 375q96 163 302 375q130 134 462 432l149 135l149 -135q332 -298 462 -432q206 -212 302 -375q111 -188 111 -375q0 -154 -74.5 -284t-204.5 -204.5t-283 -74.5z
" />
</svg>
