<?xml version="1.0" standalone="no"?>
<!DOCTYPE svg PUBLIC "-//W3C//DTD SVG 1.1//EN" "http://www.w3.org/Graphics/SVG/1.1/DTD/svg11.dtd" >
<svg xmlns="http://www.w3.org/2000/svg" xmlns:xlink="http://www.w3.org/1999/xlink" version="1.1" width="2048" height="2048" viewBox="-10 0 2068 2048">
   <path fill="currentColor"
d="M1024 1595l-80 -75l-5 -5q-267 -240 -352 -347q-134 -160 -134 -309q0 -128 91 -219t224 -91q75 0 141.5 32t114.5 86q48 -54 114.5 -86t141.5 -32q133 0 224 91t91 219q0 149 -134 309q-85 107 -352 347zM229 0h1590q96 0 162.5 66.5t66.5 162.5v1590q0 96 -66.5 162.5
t-162.5 66.5h-1590q-96 0 -162.5 -66.5t-66.5 -162.5v-1590q0 -96 66.5 -162.5t162.5 -66.5zM229 229v1590h1590v-1590h-1590z" />
</svg>
