<?xml version="1.0" standalone="no"?>
<!DOCTYPE svg PUBLIC "-//W3C//DTD SVG 1.1//EN" "http://www.w3.org/Graphics/SVG/1.1/DTD/svg11.dtd" >
<svg xmlns="http://www.w3.org/2000/svg" xmlns:xlink="http://www.w3.org/1999/xlink" version="1.1" width="2048" height="2048" viewBox="-10 0 2058 2048">
   <path fill="currentColor"
d="M1024 1388q-150 0 -257 -107t-107 -257t107 -257t257 -107t257 107t107 257t-107 257t-257 107zM1637 1063q-35 -22 -77 -39q42 -17 77 -39q128 -72 201 -198.5t73 -272.5q-124 -73 -272 -75t-277 75q-34 17 -72 47q8 -43 8 -85q0 -150 -75 -276.5t-199 -199.5
q-124 73 -199 199.5t-75 276.5q0 42 8 85q-38 -30 -72 -47q-129 -77 -277 -75t-272 75q0 142 73 270.5t201 200.5q30 18 77 39q-38 13 -77 34q-128 77 -201 203.5t-73 272.5q124 73 272 73t277 -73q34 -17 72 -47q-8 43 -8 85q0 150 75 276.5t199 199.5q124 -73 199 -199.5
t75 -276.5q0 -42 -8 -85q34 25 72 47q129 77 277 75t272 -75q0 -146 -73 -272.5t-201 -198.5z" />
</svg>
