<?xml version="1.0" standalone="no"?>
<!DOCTYPE svg PUBLIC "-//W3C//DTD SVG 1.1//EN" "http://www.w3.org/Graphics/SVG/1.1/DTD/svg11.dtd" >
<svg xmlns="http://www.w3.org/2000/svg" xmlns:xlink="http://www.w3.org/1999/xlink" version="1.1" width="2048" height="2048" viewBox="-10 0 2068 2048">
   <path fill="currentColor"
d="M591 0h866q158 0 295 79.5t216.5 216.5t79.5 295v866q0 158 -79.5 295t-216.5 216.5t-295 79.5h-866q-158 0 -295 -79.5t-216.5 -216.5t-79.5 -295v-866q0 -158 79.5 -295t216.5 -216.5t295 -79.5zM572 202q-154 0 -262 108t-108 262v904q0 154 108 262t262 108h904
q154 0 262 -108t108 -262v-904q0 -154 -108 -262t-262 -108h-904zM1562 356q53 0 91.5 38.5t38.5 91t-38.5 91t-91 38.5t-91 -38.5t-38.5 -91t38.5 -91t90.5 -38.5zM1024 510q139 0 257 69.5t187.5 187.5t69.5 257t-69.5 257t-187.5 187.5t-257 69.5t-257 -69.5
t-187.5 -187.5t-69.5 -257t69.5 -257t187.5 -187.5t257 -69.5zM1024 716q-130 0 -219 89t-89 219t89 219t219 89t219 -89t89 -219t-89 -219t-219 -89z" />
</svg>
