<?xml version="1.0" standalone="no"?>
<!DOCTYPE svg PUBLIC "-//W3C//DTD SVG 1.1//EN" "http://www.w3.org/Graphics/SVG/1.1/DTD/svg11.dtd" >
<svg xmlns="http://www.w3.org/2000/svg" xmlns:xlink="http://www.w3.org/1999/xlink" version="1.1" width="2048" height="2048" viewBox="-10 0 2068 2048">
   <path fill="currentColor"
d="M372 1821q241 198 551 227v-208q-223 -24 -406 -164zM1125 1840v208q310 -29 551 -227l-150 -145q-178 135 -401 164zM1676 1531l145 145q198 -241 227 -551h-208q-24 223 -164 406zM1333 1024q0 -130 -89.5 -219.5t-219.5 -89.5t-219.5 89.5t-89.5 219.5t89.5 219.5
t219.5 89.5t219.5 -89.5t89.5 -219.5zM208 1125h-208q29 310 227 551l145 -150q-135 -178 -164 -401zM372 517l-145 -145q-198 241 -227 551h208q24 -223 164 -406zM1840 923h208q-29 -310 -227 -551l-145 145q140 183 164 406zM1676 227q-241 -198 -551 -227v208
q223 24 406 164zM923 208v-208q-310 29 -551 227l145 145q183 -140 406 -164z" />
</svg>
