<?xml version="1.0" standalone="no"?>
<!DOCTYPE svg PUBLIC "-//W3C//DTD SVG 1.1//EN" "http://www.w3.org/Graphics/SVG/1.1/DTD/svg11.dtd" >
<svg xmlns="http://www.w3.org/2000/svg" xmlns:xlink="http://www.w3.org/1999/xlink" version="1.1" width="2048" height="2048" viewBox="-10 0 2068 2048">
   <path fill="currentColor"
d="M1740 817h-202v-202h202v202zM1740 1125h-202v-202h202v202zM1433 817h-202v-202h202v202zM1433 1125h-202v-202h202v202zM1433 1538h-818v-206h818v206zM510 817h-202v-202h202v202zM510 1125h-202v-202h202v202zM615 923h202v202h-202v-202zM615 615h202v202h-202v-202
zM923 923h202v202h-202v-202zM923 615h202v202h-202v-202zM1846 308h-1644q-82 0 -142 60t-60 142v1028q0 82 60 142t142 60h1644q82 0 142 -60t60 -142v-1028q0 -82 -60 -142t-142 -60z" />
</svg>
