<?xml version="1.0" standalone="no"?>
<!DOCTYPE svg PUBLIC "-//W3C//DTD SVG 1.1//EN" "http://www.w3.org/Graphics/SVG/1.1/DTD/svg11.dtd" >
<svg xmlns="http://www.w3.org/2000/svg" xmlns:xlink="http://www.w3.org/1999/xlink" version="1.1" width="2048" height="2048" viewBox="-10 0 2058 2048">
   <path fill="currentColor"
d="M539 0q161 0 282.5 88.5t172.5 235.5h1001v323h-324v324h-323v-324h-354q-51 147 -177.5 235.5t-277.5 88.5q-203 0 -344.5 -141.5t-141.5 -344t141.5 -344t344.5 -141.5zM539 324q-66 0 -114 48t-48 113.5t48 113.5t113.5 48t113.5 -48t48 -113.5t-48 -113.5t-113 -48z
M594 1512h324v-324h212v324h324v212h-324v324h-212v-324h-324v-212z" />
</svg>
