<?xml version="1.0" standalone="no"?>
<!DOCTYPE svg PUBLIC "-//W3C//DTD SVG 1.1//EN" "http://www.w3.org/Graphics/SVG/1.1/DTD/svg11.dtd" >
<svg xmlns="http://www.w3.org/2000/svg" xmlns:xlink="http://www.w3.org/1999/xlink" version="1.1" width="2048" height="2048" viewBox="-10 0 2068 2048">
   <path fill="currentColor"
d="M976 0q0 183 132 312.5t315 129.5h183v178q0 183 129.5 312.5t312.5 134.5v-980q0 -39 -24 -63t-63 -24h-985zM486 490q4 183 134 313t313 134h182v174q5 187 135 317t312 130v-981q0 -39 -24 -63t-62 -24h-990zM0 981q0 187 130 317t312 130h183v178q5 182 134.5 312
t312.5 130v-981q0 -33 -24 -59.5t-62 -26.5h-986z" />
</svg>
