<?xml version="1.0" standalone="no"?>
<!DOCTYPE svg PUBLIC "-//W3C//DTD SVG 1.1//EN" "http://www.w3.org/Graphics/SVG/1.1/DTD/svg11.dtd" >
<svg xmlns="http://www.w3.org/2000/svg" xmlns:xlink="http://www.w3.org/1999/xlink" version="1.1" width="2048" height="2048" viewBox="-10 0 2068 2048">
   <path fill="currentColor"
d="M2048 1639v409h-409v-308h-307v-307h-308l-231 -231q-86 29 -178 29q-125 0 -238 -48t-199.5 -134.5t-132 -199.5t-45.5 -234q0 -168 81.5 -310t223.5 -223.5t308 -81.5t307.5 81.5t226 223.5t84.5 310q0 92 -29 178zM510 308q-82 0 -142 60t-60 144t60 144t144 60
t144 -60t60 -144t-60 -144t-146 -60z" />
</svg>
