<?xml version="1.0" standalone="no"?>
<!DOCTYPE svg PUBLIC "-//W3C//DTD SVG 1.1//EN" "http://www.w3.org/Graphics/SVG/1.1/DTD/svg11.dtd" >
<svg xmlns="http://www.w3.org/2000/svg" xmlns:xlink="http://www.w3.org/1999/xlink" version="1.1" width="2048" height="2048" viewBox="-10 0 2058 2048">
   <path fill="currentColor"
d="M562 0q154 0 269.5 84t163.5 224h952v307h-308v308h-307v-308h-337q-48 135 -168 221.5t-265 86.5q-192 0 -326.5 -134.5t-134.5 -327t134.5 -327t326.5 -134.5zM562 308q-62 0 -107.5 45.5t-45.5 105.5t45.5 108t108 48t108 -48t45.5 -108t-45.5 -105.5t-108.5 -45.5z
M562 1125q154 0 269.5 84t163.5 224h952v307h-101v308h-207v-308h-206v308h-308v-308h-130q-48 140 -168 224t-265 84q-192 0 -326.5 -134.5t-134.5 -327t134.5 -327t326.5 -134.5zM562 1433q-62 0 -107.5 48t-45.5 108t45.5 105.5t108 45.5t108 -45.5t45.5 -105.5
t-45.5 -108t-108.5 -48z" />
</svg>
