<?xml version="1.0" standalone="no"?>
<!DOCTYPE svg PUBLIC "-//W3C//DTD SVG 1.1//EN" "http://www.w3.org/Graphics/SVG/1.1/DTD/svg11.dtd" >
<svg xmlns="http://www.w3.org/2000/svg" xmlns:xlink="http://www.w3.org/1999/xlink" version="1.1" width="2048" height="2048" viewBox="-10 0 2068 2048">
   <path fill="currentColor"
d="M1139 140l104 5q213 -95 386 -102t267 88q76 76 85.5 201.5t-42.5 286.5q109 199 109 431l-5 99h-1298q29 175 140 291t254 116q99 0 184.5 -54t141.5 -149h536q-100 270 -334.5 438t-527.5 168q-190 0 -360 -76q-228 109 -410 121t-282 -88q-118 -123 -75.5 -357.5
t217.5 -508.5q147 -228 360 -441l85 -76q-232 138 -426 332q43 -204 171 -369.5t317 -260.5t403 -95zM1139 543q-133 0 -239.5 99.5t-144.5 255.5h772q-38 -156 -144.5 -255.5t-243.5 -99.5zM1854 249q-100 -99 -336 -28q232 109 369 312q52 -199 -33 -284zM220 1860
q61 61 182 54t277 -78q-142 -85 -244 -213t-158 -284q-90 175 -107 312.5t50 208.5z" />
</svg>
