<?xml version="1.0" standalone="no"?>
<!DOCTYPE svg PUBLIC "-//W3C//DTD SVG 1.1//EN" "http://www.w3.org/Graphics/SVG/1.1/DTD/svg11.dtd" >
<svg xmlns="http://www.w3.org/2000/svg" xmlns:xlink="http://www.w3.org/1999/xlink" version="1.1" width="2048" height="2048" viewBox="-10 0 2068 2048">
   <path fill="currentColor"
d="M1571 1197q0 102 -74.5 171.5t-180.5 69.5q-82 0 -174 -62q-53 -44 -145 -140l-28 -29l-5 -10q-68 -72 -111 -101q-68 -48 -121 -48q-67 0 -115 43.5t-48 106t48 108.5t115 46q53 0 92 -29q24 -10 53 -44l10 -9q14 -15 33.5 -15t31.5 12t12 29t-10 32l-10 9
q-38 44 -72 63q-62 38 -140 38q-106 0 -178 -69.5t-72 -171t74.5 -171t175.5 -69.5q87 0 174 67q53 39 149 140l24 24l5 9q68 73 116 106q63 49 116 49q67 0 115 -46t48 -108.5t-48 -106t-115 -43.5q-49 0 -92 24q-24 15 -53 48l-10 5q-9 15 -28.5 17t-34 -12t-14.5 -31
t15 -32l5 -4q38 -44 77 -68q57 -38 135 -38q106 0 180.5 69.5t74.5 170.5zM2048 1318q0 173 -125.5 298.5t-298.5 125.5h-1190q-179 0 -306.5 -127.5t-127.5 -306.5q0 -106 50.5 -202t137.5 -154q-5 -29 -5 -63q0 -125 91.5 -216.5t221.5 -91.5q77 0 145 33
q87 -144 231.5 -226t313 -82t313 84.5t229 226.5t84.5 311v9q111 53 173.5 156.5t62.5 224.5zM1961 1318q0 -106 -57.5 -190.5t-154.5 -122.5q-29 -15 -29 -44l5 -33q0 -145 -72 -268t-195 -195t-275 -72t-284.5 84t-199.5 219q-5 20 -26.5 27t-41.5 -7q-58 -49 -135 -49
q-91 0 -158.5 65.5t-67.5 156.5q0 39 12 70t-22 51q-77 48 -122.5 125t-45.5 173q0 140 101 241t241 106h1185q145 0 243.5 -98.5t98.5 -238.5z" />
</svg>
