<?xml version="1.0" standalone="no"?>
<!DOCTYPE svg PUBLIC "-//W3C//DTD SVG 1.1//EN" "http://www.w3.org/Graphics/SVG/1.1/DTD/svg11.dtd" >
<svg xmlns="http://www.w3.org/2000/svg" xmlns:xlink="http://www.w3.org/1999/xlink" version="1.1" width="2048" height="2048" viewBox="-10 0 2066 2048">
   <path fill="currentColor"
d="M1024 2048l408 -412h-816zM1739 513h-202v-206h202v206zM1739 820h-202v-206h202v206zM1432 513h-202v-206h202v206zM1432 820h-202v-206h202v206zM1432 1228h-816v-206h816v206zM511 513h-202v-206h202v206zM511 820h-202v-206h202v206zM616 614h202v206h-202v-206z
M616 307h202v206h-202v-206zM923 614h202v206h-202v-206zM923 307h202v206h-202v-206zM1844 0h-1640q-82 0 -142 60t-60 146v1022q0 86 60 146t142 60h1640q82 0 142 -60t60 -146v-1022q0 -86 -60 -146t-142 -60z" />
</svg>
