<?xml version="1.0" standalone="no"?>
<!DOCTYPE svg PUBLIC "-//W3C//DTD SVG 1.1//EN" "http://www.w3.org/Graphics/SVG/1.1/DTD/svg11.dtd" >
<svg xmlns="http://www.w3.org/2000/svg" xmlns:xlink="http://www.w3.org/1999/xlink" version="1.1" width="2048" height="2048" viewBox="-10 0 2068 2048">
   <path fill="currentColor"
d="M409 1382h1230v207h-1230v-207zM409 1074v207h-409v-207h409zM510 1281v-207h307v207h-307zM923 1281v-207h202v207h-202zM1231 1281v-207h307v207h-307zM1639 1281v-207h409v207h-409zM0 767h308v207h-308v-207zM1740 974v-207h308v207h-308zM1639 974h-206v-207h206
v207zM615 974h-206v-207h206v207zM1024 974h-308v-207h308v207zM1332 974h-207v-207h207v207zM0 666v-207h202v207h-202zM308 666v-207h202v207h-202zM615 666v-207h202v207h-202zM923 666v-207h202v207h-202zM1231 666v-207h202v207h-202zM1538 666v-207h510v207h-510z" />
</svg>
