<?xml version="1.0" standalone="no"?>
<!DOCTYPE svg PUBLIC "-//W3C//DTD SVG 1.1//EN" "http://www.w3.org/Graphics/SVG/1.1/DTD/svg11.dtd" >
<svg xmlns="http://www.w3.org/2000/svg" xmlns:xlink="http://www.w3.org/1999/xlink" version="1.1" width="2048" height="2048" viewBox="-10 0 2058 2048">
   <path fill="currentColor"
d="M902 566l-196 516q38 0 157 2t184 2q21 0 65 -2q-96 -284 -210 -518zM71 1831l2 -90q26 -8 64.5 -14.5t65.5 -12t56 -16.5t51 -33.5t36 -57.5l271 -705l321 -829h86h60q10 16 13 24l235 549q39 92 122 297t130 312q16 37 65.5 164t82.5 195q23 51 40 65q22 17 100.5 33.5
t97.5 23.5q7 52 7 66q0 5 -0.5 14.5t-0.5 14.5q-73 0 -219 -9t-218 -9q-88 0 -252 8t-198 9q0 -39 5 -89l149 -32q2 0 15 -3t18 -4.5t16.5 -5t17 -7t12.5 -9t10.5 -12.5t3.5 -16q0 -18 -36.5 -111.5t-82 -202t-48.5 -115.5l-515 -2q-29 64 -87 222.5t-58 187.5q0 18 9 32.5
t26.5 24.5t35.5 17t43.5 11.5t43.5 7t42.5 5t33.5 3.5q1 22 1 66q0 11 -2 31q-67 0 -200.5 -11.5t-199.5 -11.5q-9 0 -29.5 4.5t-25.5 4.5q-89 16 -216 16z" />
</svg>
