<?xml version="1.0" standalone="no"?>
<!DOCTYPE svg PUBLIC "-//W3C//DTD SVG 1.1//EN" "http://www.w3.org/Graphics/SVG/1.1/DTD/svg11.dtd" >
<svg xmlns="http://www.w3.org/2000/svg" xmlns:xlink="http://www.w3.org/1999/xlink" version="1.1" width="2048" height="2048" viewBox="-10 0 2066 2048">
   <path fill="currentColor"
d="M1753 513q125 0 209 86.5t84 206.5v388q0 120 -84 206.5t-209 86.5h-729q0 29 21.5 62.5t50.5 33.5h441v172q0 120 -86 206.5t-206 86.5h-442q-120 0 -206 -86.5t-86 -206.5v-383q0 -120 86 -206.5t206 -86.5h538q124 0 208 -86.5t84 -205.5v-274h120zM1317 1722
q-34 0 -53 21.5t-19 64.5t19 60t50 17t53 -21.5t22 -50.5q0 -48 -19.5 -69.5t-52.5 -21.5zM295 1535q-125 0 -209 -84t-84 -209v-383q0 -125 84 -209t209 -84h729q0 -34 -21.5 -67.5t-50.5 -33.5h-441v-172q0 -120 86 -206.5t206 -86.5h442q120 0 206 86.5t86 206.5v383
q0 125 -86 209t-206 84h-538q-124 0 -208 86.5t-84 205.5v274h-120zM731 331q34 0 53 -24t19 -67t-19 -57.5t-52.5 -14.5t-53 14.5t-19.5 57.5t19.5 67t52.5 24z" />
</svg>
