<?xml version="1.0" standalone="no"?>
<!DOCTYPE svg PUBLIC "-//W3C//DTD SVG 1.1//EN" "http://www.w3.org/Graphics/SVG/1.1/DTD/svg11.dtd" >
<svg xmlns="http://www.w3.org/2000/svg" xmlns:xlink="http://www.w3.org/1999/xlink" version="1.1" width="2048" height="2048" viewBox="-10 0 2058 2048">
   <path fill="currentColor"
d="M853 1668q82 36 160 36q101 0 178.5 -21t135 -65.5t87.5 -119t30 -177.5q0 -130 -47 -206q-26 -42 -56 -73t-66 -50.5t-69.5 -31.5t-79.5 -17.5t-82 -7t-91 -1.5q-81 0 -116 12q0 60 -0.5 181t-0.5 181q0 9 -1 77.5t-0.5 111t5 95.5t13.5 76zM837 814q47 8 125 8
q75 0 133.5 -9t110.5 -31.5t86 -59.5t54 -95t20 -136q0 -65 -22 -117t-59 -85.5t-88 -56t-105.5 -32t-114.5 -9.5q-63 0 -149 15q0 57 4.5 173.5t4.5 173.5q0 31 -0.5 91t-0.5 90q0 53 1 80zM218 1831l2 -107q17 -4 97.5 -17.5t122.5 -31.5q8 -14 14 -31t9.5 -38t6 -37.5
t3.5 -43t1 -39v-40.5v-34q0 -1124 -25 -1174q-5 -10 -25.5 -17.5t-50.5 -12t-57 -7.5t-55.5 -5.5t-35.5 -3.5l-5 -95q107 -2 386 -13t431 -11q25 0 77.5 0.5t78.5 0.5q80 0 156 15t146.5 48.5t123.5 81.5t85 119.5t32 157.5q0 43 -10 80.5t-24.5 66.5t-40.5 56t-49 45.5
t-60.5 40t-63.5 34t-69 32.5q84 19 156.5 55.5t130 90t91 128.5t33.5 162q0 83 -21 153.5t-57.5 123.5t-88.5 95t-112.5 70.5t-130 47.5t-139.5 27t-144 8q-51 0 -151.5 -3.5t-151.5 -3.5q-121 0 -353.5 12.5t-262.5 13.5z" />
</svg>
