<?xml version="1.0" standalone="no"?>
<!DOCTYPE svg PUBLIC "-//W3C//DTD SVG 1.1//EN" "http://www.w3.org/Graphics/SVG/1.1/DTD/svg11.dtd" >
<svg xmlns="http://www.w3.org/2000/svg" xmlns:xlink="http://www.w3.org/1999/xlink" version="1.1" width="2048" height="2048" viewBox="-10 0 2068 2048">
   <path fill="currentColor"
d="M1538 565q-413 91 -692 308q-231 182 -394 466q-101 173 -240 524l-29 67l197 68l96 -236q86 34 139 34q385 0 697 -274q250 -217 443 -601q134 -270 231 -596q43 -164 62 -275q-48 97 -308 164q-154 38 -557 96q-322 43 -467 72q-235 48 -413 192q-149 125 -231 294
q-72 144 -72 259q0 130 87 270q48 72 91 115q91 -264 269 -462q149 -168 351 -283q164 -92 356 -144q139 -39 274 -53z" />
</svg>
