<?xml version="1.0" standalone="no"?>
<!DOCTYPE svg PUBLIC "-//W3C//DTD SVG 1.1//EN" "http://www.w3.org/Graphics/SVG/1.1/DTD/svg11.dtd" >
<svg xmlns="http://www.w3.org/2000/svg" xmlns:xlink="http://www.w3.org/1999/xlink" version="1.1" width="2048" height="2048" viewBox="-10 0 2068 2048">
   <path fill="currentColor"
d="M202 409h-202v1437q0 82 60 142t142 60h1437v-202h-1437v-1437zM1639 510h-307v567q0 106 -74.5 180.5t-180.5 74.5t-183 -74.5t-77 -180.5t77 -183t183 -77q82 0 154 53v-562h408v202zM1846 0h-1231q-86 0 -146 60t-60 142v1231q0 86 60 146t146 60h1231q82 0 142 -60
t60 -146v-1231q0 -82 -60 -142t-142 -60z" />
</svg>
