<?xml version="1.0" standalone="no"?>
<!DOCTYPE svg PUBLIC "-//W3C//DTD SVG 1.1//EN" "http://www.w3.org/Graphics/SVG/1.1/DTD/svg11.dtd" >
<svg xmlns="http://www.w3.org/2000/svg" xmlns:xlink="http://www.w3.org/1999/xlink" version="1.1" width="2048" height="2048" viewBox="-11 0 2070 2048">
   <path fill="currentColor"
d="M1294 648q-24 14 -106 67l-96 58q-58 43 -115 -5q-15 -10 -115 -67l-87 -53q-33 -24 -31 -50.5t41 -45.5q245 -101 504 5q38 14 38 40.5t-33 50.5zM2033 1392q-144 -326 -394 -576q-77 -82 -110 -192q-10 -34 -24 -106l-15 -67q-24 -134 -57 -201q-111 -240 -394 -250
q-283 5 -403 245q-29 62 -48 134l-48 240q-24 101 -101 173q-245 240 -398 552q-29 58 -34 86q-19 53 12.5 82t88.5 19q86 -19 130 -33q33 -10 47.5 -3t24.5 41q100 331 432 461q206 76 424.5 38t381.5 -175t216 -334q5 -24 14.5 -28.5t33.5 0.5q38 14 115 28l29 10
q38 5 62 -12t29 -50.5t-14 -81.5z" />
</svg>
