<?xml version="1.0" standalone="no"?>
<!DOCTYPE svg PUBLIC "-//W3C//DTD SVG 1.1//EN" "http://www.w3.org/Graphics/SVG/1.1/DTD/svg11.dtd" >
<svg xmlns="http://www.w3.org/2000/svg" xmlns:xlink="http://www.w3.org/1999/xlink" version="1.1" width="2048" height="2048" viewBox="-10 0 2058 2048">
   <path fill="currentColor"
d="M438 1829l19 -97q25 -8 70.5 -19t83 -22.5t67.5 -26.5q33 -41 47 -115q2 -7 71.5 -331t130 -622.5t59.5 -338.5v-29q-28 -16 -62.5 -22t-79.5 -8.5t-66 -6.5l22 -118q29 2 135 7.5t175 8t136 2.5q55 0 111.5 -2.5t141 -8t111.5 -7.5q-8 55 -21 102q-34 12 -116 33
t-124 38q-9 21 -16.5 49.5t-10.5 44.5t-9 54t-8 47q-31 172 -100.5 487t-87.5 399q-1 8 -20.5 93t-32 151.5t-10.5 87.5l1 20q45 10 211 36q-2 48 -18 113q-12 0 -36.5 1.5t-37.5 1.5q-33 0 -99.5 -11t-98.5 -12q-158 -2 -235 -2q-59 0 -165 10.5t-138 12.5z" />
</svg>
