<?xml version="1.0" standalone="no"?>
<!DOCTYPE svg PUBLIC "-//W3C//DTD SVG 1.1//EN" "http://www.w3.org/Graphics/SVG/1.1/DTD/svg11.dtd" >
<svg xmlns="http://www.w3.org/2000/svg" xmlns:xlink="http://www.w3.org/1999/xlink" version="1.1" width="2048" height="2048" viewBox="-10 0 2058 2048">
   <path fill="currentColor"
d="M1609 686q82 0 139.5 57t57.5 135v978q0 78 -57.5 135t-139.5 57h-1170q-82 0 -139.5 -57t-57.5 -135v-978q0 -78 57.5 -135t139.5 -57h878v-197q0 -123 -85 -207.5t-208 -84.5t-208 84.5t-85 207.5h-196q0 -132 66 -244t178 -178.5t245 -66.5t245 66.5t178 178.5t66 244
v197h96zM1024 1563q82 0 139.5 -57t57.5 -139t-57.5 -139.5t-139.5 -57.5t-139.5 57.5t-57.5 139.5t57.5 139t139.5 57z" />
</svg>
