<?xml version="1.0" standalone="no"?>
<!DOCTYPE svg PUBLIC "-//W3C//DTD SVG 1.1//EN" "http://www.w3.org/Graphics/SVG/1.1/DTD/svg11.dtd" >
<svg xmlns="http://www.w3.org/2000/svg" xmlns:xlink="http://www.w3.org/1999/xlink" version="1.1" width="2048" height="2048" viewBox="-10 0 2069 2048">
   <path fill="currentColor"
d="M0 266l135 -135l1782 1782l-135 135l-514 -514l-280 279q-104 100 -242 138q-68 18 -137 18t-137 -18q-138 -38 -237.5 -137.5t-137 -237t0 -275t137.5 -241.5l159 -160q-5 135 40 259l-50 50q-94 95 -94 227.5t94.5 227t227 94.5t227.5 -94l279 -280l-174 -170
q0 40 -30 72.5t-75 32.5t-75 -35q-85 -80 -125 -187t-30 -217zM1138 156q105 -100 242.5 -137.5t274.5 0t237 137.5t137.5 237t0 274.5t-137.5 242.5l-160 160q5 -135 -40 -260l50 -50q95 -95 95 -227t-95 -227t-227 -95t-227 95l-354 354l-150 -150zM1213 685
q30 -35 75 -35t75 35q110 105 145 250t-10 289l-190 -189q-10 -120 -95 -200q-30 -30 -30 -75t30 -75z" />
</svg>
