<?xml version="1.0" standalone="no"?>
<!DOCTYPE svg PUBLIC "-//W3C//DTD SVG 1.1//EN" "http://www.w3.org/Graphics/SVG/1.1/DTD/svg11.dtd" >
<svg xmlns="http://www.w3.org/2000/svg" xmlns:xlink="http://www.w3.org/1999/xlink" version="1.1" width="2048" height="2048" viewBox="-10 0 2068 2048">
   <path fill="currentColor"
d="M1538 510h-413v197h413q130 0 224 93.5t94 223.5q0 111 -67.5 195t-168.5 113l149 149q125 -68 202 -188t77 -264t-67.5 -262t-185 -187.5t-257.5 -69.5zM1433 923h-222l202 202h20v-202zM0 231l317 317q-144 58 -230.5 187.5t-86.5 288.5q0 139 67.5 257t185 187.5
t257.5 69.5h413v-197h-413q-130 0 -224 -93.5t-94 -218.5t82 -216.5t202 -100.5l211 211h-72v202h279l231 236v177h178l413 409l130 -130l-1716 -1716z" />
</svg>
