<?xml version="1.0" standalone="no"?>
<!DOCTYPE svg PUBLIC "-//W3C//DTD SVG 1.1//EN" "http://www.w3.org/Graphics/SVG/1.1/DTD/svg11.dtd" >
<svg xmlns="http://www.w3.org/2000/svg" xmlns:xlink="http://www.w3.org/1999/xlink" version="1.1" width="2048" height="2048" viewBox="-10 0 2058 2048">
   <path fill="currentColor"
d="M1024 0q197 0 360.5 96t259.5 259.5t96 360.5q0 178 -81.5 334.5t-225.5 252.5v235q0 44 -29 72.5t-72 28.5h-616q-43 0 -72 -28.5t-29 -72.5v-235q-144 -96 -225.5 -252.5t-81.5 -334.5q0 -197 96 -360.5t259.5 -259.5t360.5 -96zM716 1947v-101h616v101q0 43 -29 72
t-72 29h-414q-43 0 -72 -29t-29 -72zM1024 202q-139 0 -257 69.5t-187.5 187.5t-69.5 257q0 154 86.5 281.5t220.5 189.5v246h414v-246q134 -62 220.5 -189.5t86.5 -281.5q0 -139 -69.5 -257t-187.5 -187.5t-257 -69.5z" />
</svg>
