<?xml version="1.0" standalone="no"?>
<!DOCTYPE svg PUBLIC "-//W3C//DTD SVG 1.1//EN" "http://www.w3.org/Graphics/SVG/1.1/DTD/svg11.dtd" >
<svg xmlns="http://www.w3.org/2000/svg" xmlns:xlink="http://www.w3.org/1999/xlink" version="1.1" width="2048" height="2048" viewBox="-10 0 2069 2048">
   <path fill="currentColor"
d="M1996 1539q38 0 49 21t-13 51l-144 185q-23 30 -56 30t-56 -30l-144 -185q-23 -30 -13 -51t48 -21h91v-1173h-91q-38 0 -48 -21t13 -51l144 -186q23 -30 56 -30t56 30l144 186q24 30 13 51t-49 21h-91v1173h91zM93 74l61 31q5 2 107 4t135 2q50 0 151 -2.5t151 -2.5
q41 0 123.5 0.5t123.5 0.5h335q7 0 24.5 1t23.5 0t18 -3.5t20 -10t17 -20.5l48 -1q5 0 16 0.5t16 0.5q2 129 2 385q0 91 -6 125q-45 16 -78 20q-28 -50 -61 -146q-3 -10 -12 -55l-17 -85t-9 -40q-7 -9 -14 -14.5t-17.5 -7.5t-15 -2.5t-20.5 0t-19 0.5q-21 0 -76 -0.5
t-84.5 -0.5t-74 2t-81.5 7q-10 86 -9 156q1 107 2.5 444t1.5 520q0 17 -2.5 81.5t0.5 105t14 79.5q47 24 143 49t137 43q5 45 5 57q0 17 -3 33l-39 1q-87 3 -250.5 -8.5t-236.5 -11.5q-58 0 -173.5 10t-173.5 10q-3 -57 -3 -59v-10q15 -24 51.5 -41.5t74 -26t81 -21
t66.5 -25.5q5 -12 9 -37t6 -62.5t3.5 -72.5t2 -82t0.5 -74v-67v-43q0 -115 -3.5 -346.5t-3.5 -347.5v-134q0 -3 0.5 -18.5t0.5 -28.5t-0.5 -28.5t-3 -27t-6.5 -15.5q-13 -14 -185 -14q-38 0 -107 13t-92 30q-18 12 -32.5 57t-23.5 91t-26.5 83.5t-40.5 39.5q-48 -30 -64 -50
v-439z" />
</svg>
