<?xml version="1.0" standalone="no"?>
<!DOCTYPE svg PUBLIC "-//W3C//DTD SVG 1.1//EN" "http://www.w3.org/Graphics/SVG/1.1/DTD/svg11.dtd" >
<svg xmlns="http://www.w3.org/2000/svg" xmlns:xlink="http://www.w3.org/1999/xlink" version="1.1" width="2048" height="2048" viewBox="-10 0 2068 2048">
   <path fill="currentColor"
d="M1024 1846q-221 0 -411 -110.5t-300.5 -300.5t-110.5 -411t110.5 -411t300.5 -300.5t411 -110.5t411 110.5t300.5 300.5t110.5 411t-110.5 411t-300.5 300.5t-411 110.5zM1024 0q-202 0 -392 77t-334 221t-221 334t-77 392t77 392t221 334t334 221t392 77t392 -77
t334 -221t221 -334t77 -392t-77 -392t-221 -334t-334 -221t-392 -77zM1024 1077q-62 0 -108 -45.5t-46 -110.5t46 -108.5t108 -43.5t108 43.5t46 108.5t-46 110.5t-108 45.5zM1024 534q-163 0 -276 113t-113 276q0 106 62 231q48 106 130 216q62 82 135 159l62 57l62 -57
q73 -77 135 -159q82 -110 130 -216q62 -125 62 -231q0 -163 -113 -276t-276 -113z" />
</svg>
