<?xml version="1.0" standalone="no"?>
<!DOCTYPE svg PUBLIC "-//W3C//DTD SVG 1.1//EN" "http://www.w3.org/Graphics/SVG/1.1/DTD/svg11.dtd" >
<svg xmlns="http://www.w3.org/2000/svg" xmlns:xlink="http://www.w3.org/1999/xlink" version="1.1" width="2048" height="2048" viewBox="-10 0 2068 2048">
   <path fill="currentColor"
d="M1595 1595h-1142v-1142h1142v1142zM2048 912v-229h-229v-230q0 -90 -67 -157t-157 -67h-230v-229h-229v229h-224v-229h-229v229h-230q-90 0 -157 67t-67 157v230h-229v229h229v224h-229v229h229v230q0 90 67 157t157 67h230v229h229v-229h224v229h229v-229h230
q90 0 157 -67t67 -157v-230h229v-229h-229v-224h229zM1136 1136h-224v-224h224v224zM1365 683h-682v682h682v-682z" />
</svg>
