<?xml version="1.0" standalone="no"?>
<!DOCTYPE svg PUBLIC "-//W3C//DTD SVG 1.1//EN" "http://www.w3.org/Graphics/SVG/1.1/DTD/svg11.dtd" >
<svg xmlns="http://www.w3.org/2000/svg" xmlns:xlink="http://www.w3.org/1999/xlink" version="1.1" width="2048" height="2048" viewBox="-10 0 2058 2048">
   <path fill="currentColor"
d="M1846 1832v216l-187 -120l-491 -923q101 -29 183 -101zM1332 510q0 129 -89 218t-219 89h-43l-592 1111l-187 120v-216l596 -1116q-86 -96 -79 -223.5t98.5 -209t206.5 -81.5v-202q43 0 72 29t29 72v120q96 34 151.5 113t55.5 176zM1125 510q0 -44 -29 -72.5t-72 -28.5
t-72 28.5t-29 72t29 74.5t72 31t72 -31t29 -74z" />
</svg>
