<?xml version="1.0" standalone="no"?>
<!DOCTYPE svg PUBLIC "-//W3C//DTD SVG 1.1//EN" "http://www.w3.org/Graphics/SVG/1.1/DTD/svg11.dtd" >
<svg xmlns="http://www.w3.org/2000/svg" xmlns:xlink="http://www.w3.org/1999/xlink" version="1.1" width="2048" height="2048" viewBox="-10 0 2058 2048">
   <path fill="currentColor"
d="M1231 971q105 0 180 -74.5t75 -180t-75 -180t-180.5 -74.5t-182.5 74.5t-77 180t77 180t183 74.5zM1231 0q192 0 358 96t262 259.5t96 360.5q0 241 -187 587q-130 245 -347 519q-105 139 -182 226l-116 -130q-134 -168 -245 -332q-158 -235 -245 -432
q-115 -250 -115 -442.5t98.5 -356t262 -259.5t360.5 -96zM308 716q0 284 254 712q140 226 347 485l14 15l-106 120l-110 -130q-135 -168 -245 -332q-159 -235 -250 -432q-111 -250 -111 -438q0 -240 144 -430t370 -257q-144 130 -225.5 307.5t-81.5 379.5z" />
</svg>
