<?xml version="1.0" standalone="no"?>
<!DOCTYPE svg PUBLIC "-//W3C//DTD SVG 1.1//EN" "http://www.w3.org/Graphics/SVG/1.1/DTD/svg11.dtd" >
<svg xmlns="http://www.w3.org/2000/svg" xmlns:xlink="http://www.w3.org/1999/xlink" version="1.1" width="2048" height="2048" viewBox="-10 0 2058 2048">
   <path fill="currentColor"
d="M238 74l61 31q5 2 107 4t135 2q50 0 150.5 -2.5t151.5 -2.5q84 0 283.5 -1.5t346.5 -0.5t284 5q38 2 64 -35l48 -1q5 0 16 0.5t16 0.5q2 129 2 385q0 97 -5 125q-45 16 -78 20q-31 -55 -62 -146q-4 -10 -13 -54.5t-16.5 -85l-7.5 -40.5q-11 -13 -32 -21q-9 -3 -76 -3
q-34 0 -106 -1t-118 -1.5t-107.5 2t-109.5 8.5q-11 86 -9 156l1 174v-60q0 63 2 257.5t2 300.5q0 19 -3 82t-0.5 104t14.5 79q46 24 142 48.5t137 43.5q6 54 6 57q0 12 -4 34l-39 1q-87 2 -250 -9.5t-236 -11.5q-57 0 -173.5 10.5t-173.5 10.5q-3 -57 -3 -60v-10
q14 -24 50.5 -41.5t74 -26t81 -20.5t66.5 -26q8 -18 13 -84.5t6.5 -165.5t2 -178.5t-0.5 -174.5t-1 -103t-2.5 -25t-2.5 -26q0 -8 1 -50t1 -83.5t-0.5 -87.5t-3 -77t-7.5 -36q-13 -14 -186 -14q-47 0 -187 15.5t-158 27.5q-17 11 -32 55.5t-24 91t-26.5 84.5t-40.5 40
q-48 -30 -64 -50v-439zM1644 1542q14 0 48.5 22.5t66 47.5t68 55.5t41.5 34.5q30 25 30 56t-30 56q-5 4 -41.5 34.5t-68 56t-66 47.5t-48.5 22q-15 0 -23.5 -12t-11 -32.5t-2.5 -38t1.5 -37.5t1.5 -23h-1172q0 2 1.5 22.5t1.5 38t-2.5 38t-11.5 32.5t-24 12q-14 0 -48 -22
t-65.5 -47.5t-68 -56t-41.5 -34.5q-29 -24 -29 -56t29 -56q5 -4 41.5 -34.5t68 -55.5t65.5 -47.5t48 -22.5q15 0 24 12t11.5 32.5t2.5 38t-1.5 38t-1.5 22.5h1172q0 -2 -1.5 -22t-1.5 -38t2.5 -38.5t11 -32.5t23.5 -12z" />
</svg>
