<?xml version="1.0" standalone="no"?>
<!DOCTYPE svg PUBLIC "-//W3C//DTD SVG 1.1//EN" "http://www.w3.org/Graphics/SVG/1.1/DTD/svg11.dtd" >
<svg xmlns="http://www.w3.org/2000/svg" xmlns:xlink="http://www.w3.org/1999/xlink" version="1.1" width="2048" height="2048" viewBox="-10 0 2068 2048">
   <path fill="currentColor"
d="M2048 0v623l-186 -187l-1618 1612l-244 -244l1612 -1618l-187 -186h623zM1676 1990q-157 0 -265 -110.5t-108 -262.5v-250q0 -157 108 -264.5t262 -107.5t264.5 107.5t110.5 264.5v250q0 152 -110.5 262.5t-261.5 110.5zM1676 1245q-53 0 -90.5 35t-37.5 87v250
q0 53 37.5 88t90 35t87.5 -35t35 -88v-250q0 -52 -35 -87t-87 -35zM431 995q-152 0 -262.5 -107.5t-110.5 -264.5v-251q0 -151 110.5 -261.5t265 -110.5t262 110.5t107.5 261.5v251q0 157 -107.5 264.5t-264.5 107.5zM431 250q-53 0 -88 35t-35 87v251q0 52 35 87t87.5 35
t90.5 -35t38 -87v-251q0 -52 -38 -87t-90 -35z" />
</svg>
