<?xml version="1.0" standalone="no"?>
<!DOCTYPE svg PUBLIC "-//W3C//DTD SVG 1.1//EN" "http://www.w3.org/Graphics/SVG/1.1/DTD/svg11.dtd" >
<svg xmlns="http://www.w3.org/2000/svg" xmlns:xlink="http://www.w3.org/1999/xlink" version="1.1" width="2048" height="2048" viewBox="-10 0 2058 2048">
   <path fill="currentColor"
d="M1572 1442l-471 -471l-870 -870l-130 130l327 327q-19 77 -19 158q0 183 110 438q92 197 245 432q116 164 250 332l111 130l106 -125q130 -159 240 -317l346 341l130 -130zM1125 462q106 0 180.5 74.5t74.5 182.5t-82 185l370 375q173 -332 173 -563q0 -197 -96 -360.5
t-259.5 -259.5t-360.5 -96q-149 0 -283.5 57.5t-235.5 158.5l331 327q77 -81 188 -81z" />
</svg>
