<?xml version="1.0" standalone="no"?>
<!DOCTYPE svg PUBLIC "-//W3C//DTD SVG 1.1//EN" "http://www.w3.org/Graphics/SVG/1.1/DTD/svg11.dtd" >
<svg xmlns="http://www.w3.org/2000/svg" xmlns:xlink="http://www.w3.org/1999/xlink" version="1.1" width="2048" height="2048" viewBox="-10 0 2058 2048">
   <path fill="currentColor"
d="M1024 0q160 0 295 77.5t212.5 210.5t77.5 286t-91 359q-73 160 -201 347q-92 137 -202 270l-91 105l-91 -105q-110 -133 -202 -270q-128 -187 -201 -347q-91 -206 -91 -359t77.5 -286t212.5 -210.5t295 -77.5zM1024 389q-82 0 -139.5 57t-57.5 137t57.5 137t139.5 57
t139.5 -57t57.5 -137t-57.5 -137t-139.5 -57zM1806 1655q0 110 -105.5 199t-286 141.5t-390.5 52.5t-390.5 -52.5t-286 -141.5t-105.5 -199q0 -92 82.5 -172t224.5 -134l59 86q-78 32 -123.5 78t-45.5 96q0 64 77.5 121t212.5 89t295 32t295 -32t212.5 -89t77.5 -121
q0 -50 -45.5 -96t-123.5 -78l59 -86q142 54 224.5 134t82.5 172z" />
</svg>
