<?xml version="1.0" standalone="no"?>
<!DOCTYPE svg PUBLIC "-//W3C//DTD SVG 1.1//EN" "http://www.w3.org/Graphics/SVG/1.1/DTD/svg11.dtd" >
<svg xmlns="http://www.w3.org/2000/svg" xmlns:xlink="http://www.w3.org/1999/xlink" version="1.1" width="2048" height="2048" viewBox="-10 0 2058 2048">
   <path fill="currentColor"
d="M1024 0q137 0 230.5 93.5t93.5 230.5v647q0 131 -93.5 227.5t-230.5 96.5t-230.5 -96.5t-93.5 -227.5v-647q0 -137 93.5 -230.5t230.5 -93.5zM1777 971q0 187 -83 349t-232.5 265.5t-331.5 133.5v329h-212v-329q-182 -30 -331.5 -133.5t-232.5 -265.5t-83 -349h212
q0 106 43 204.5t119 174.5t174.5 116.5t204.5 40.5q147 0 270.5 -71t197 -194.5t73.5 -270.5h212z" />
</svg>
