<?xml version="1.0" standalone="no"?>
<!DOCTYPE svg PUBLIC "-//W3C//DTD SVG 1.1//EN" "http://www.w3.org/Graphics/SVG/1.1/DTD/svg11.dtd" >
<svg xmlns="http://www.w3.org/2000/svg" xmlns:xlink="http://www.w3.org/1999/xlink" version="1.1" width="2048" height="2048" viewBox="-10 0 2058 2048">
   <path fill="currentColor"
d="M1777 971q0 182 -96 354l-131 -137q45 -106 45 -217h182zM1348 986l-648 -642v-20q0 -137 93.5 -230.5t230.5 -93.5t230.5 93.5t93.5 230.5v662zM190 106l1805 1805l-137 137l-450 -450q-126 76 -278 96v354h-212v-354q-177 -25 -326.5 -129t-235 -260.5t-85.5 -333.5
h182q0 157 78 280.5t212 194.5t281 71q126 0 248 -56l-177 -177l-71 11q-137 0 -230.5 -96.5t-93.5 -227.5v-81l-647 -647z" />
</svg>
