<?xml version="1.0" standalone="no"?>
<!DOCTYPE svg PUBLIC "-//W3C//DTD SVG 1.1//EN" "http://www.w3.org/Graphics/SVG/1.1/DTD/svg11.dtd" >
<svg xmlns="http://www.w3.org/2000/svg" xmlns:xlink="http://www.w3.org/1999/xlink" version="1.1" width="2048" height="2048" viewBox="-10 0 2068 2048">
   <path fill="currentColor"
d="M1876 1452v-856h-1364v856h1364zM1876 428q72 0 122 50t50 118v856q0 68 -50 118t-122 50h-512v172h172v172h-684v-172h172v-172h-512q-72 0 -122 -50t-50 -118v-856q0 -68 50 -118t122 -50h1364zM172 256v1024h-172v-1024q0 -72 50 -122t122 -50h1536v172h-1536z" />
</svg>
