<?xml version="1.0" standalone="no"?>
<!DOCTYPE svg PUBLIC "-//W3C//DTD SVG 1.1//EN" "http://www.w3.org/Graphics/SVG/1.1/DTD/svg11.dtd" >
<svg xmlns="http://www.w3.org/2000/svg" xmlns:xlink="http://www.w3.org/1999/xlink" version="1.1" width="2048" height="2048" viewBox="-10 0 2068 2048">
   <path fill="currentColor"
d="M1582 767l-414 -409h-452v207h370l202 202h-826q-193 0 -327.5 134.5t-134.5 327t134.5 327t327.5 134.5q168 0 295.5 -108t155.5 -272l217 -130q-5 15 -5 48q0 193 134.5 327.5t327 134.5t327 -134.5t134.5 -327t-134.5 -327t-327.5 -134.5h-4zM702 1310
q-29 77 -94 127.5t-151 50.5q-106 0 -180.5 -77t-74.5 -182.5t74.5 -180t180.5 -74.5q86 0 151 50t94 127h-293v154zM1586 1488q-105 0 -182 -77t-77 -182.5t77 -180t182.5 -74.5t180 74.5t74.5 180t-74.5 182.5t-180.5 77z" />
</svg>
