<?xml version="1.0" standalone="no"?>
<!DOCTYPE svg PUBLIC "-//W3C//DTD SVG 1.1//EN" "http://www.w3.org/Graphics/SVG/1.1/DTD/svg11.dtd" >
<svg xmlns="http://www.w3.org/2000/svg" xmlns:xlink="http://www.w3.org/1999/xlink" version="1.1" width="2048" height="2048" viewBox="-10 0 2068 2048">
   <path fill="currentColor"
d="M534 0q-337 0 -375 5q-68 0 -111 43t-45.5 108t-2.5 865.5t2.5 865.5t45.5 108t111 43q110 10 485 10q-110 -77 -149 -245q-33 -130 -43 -447q-5 -145 -5 -596q0 -390 5 -448l5 -216l822 827v255l-654 -654l-5 452q0 250 5 360q14 226 38 342q24 144 79.5 223.5
t161.5 117.5q91 29 231 29q673 0 754 -5q68 0 111 -45.5t45.5 -108t2.5 -860.5t-2.5 -863t-45.5 -108.5t-111 -47.5q-187 -10 -485 -10q110 77 149 245q33 130 43 447q5 145 5 596q0 385 -5 452l-5 212l-822 -827v-255l654 654l5 -452q0 -250 -5 -360q-14 -226 -38 -342
q-24 -144 -79.5 -223.5t-161.5 -117.5q-86 -29 -231 -29h-379z" />
</svg>
