<?xml version="1.0" standalone="no"?>
<!DOCTYPE svg PUBLIC "-//W3C//DTD SVG 1.1//EN" "http://www.w3.org/Graphics/SVG/1.1/DTD/svg11.dtd" >
<svg xmlns="http://www.w3.org/2000/svg" xmlns:xlink="http://www.w3.org/1999/xlink" version="1.1" width="2048" height="2048" viewBox="-10 0 2068 2048">
   <path fill="currentColor"
d="M1024 817q87 0 147 60t60 147t-60 147t-147 60t-147 -60t-60 -147t60 -147t147 -60zM202 202h721q82 0 142 60t60 147v307h-202v-307h-721v514h207v-207l307 308l-307 308v-207h-207q-82 0 -142 -60t-60 -142v-514q0 -87 60 -147t142 -60zM1846 1846h-721q-82 0 -142 -60
t-60 -147v-307h202v307h721v-514h-207v207l-307 -308l307 -308v207h207q82 0 142 60t60 142v514q0 87 -60 147t-142 60z" />
</svg>
