<?xml version="1.0" standalone="no"?>
<!DOCTYPE svg PUBLIC "-//W3C//DTD SVG 1.1//EN" "http://www.w3.org/Graphics/SVG/1.1/DTD/svg11.dtd" >
<svg xmlns="http://www.w3.org/2000/svg" xmlns:xlink="http://www.w3.org/1999/xlink" version="1.1" width="2048" height="2048" viewBox="-10 0 2058 2048">
   <path fill="currentColor"
d="M1024 0q-42 0 -80 24l-746 429q-38 24 -59 61.5t-21 75.5v868q0 38 21 75.5t59 61.5l194 109q66 33 108 42q24 5 66 5q104 0 163 -61.5t59 -170.5v-854q0 -9 -7 -16t-17 -7h-94q-24 0 -24 23v854q0 57 -49.5 85.5t-124.5 -9.5l-208 -118q-9 -9 -9 -19v-868q0 -14 9 -19
l751 -434q9 -5 18 0l751 434q9 5 9 19v868q0 10 -9 19l-751 434q-9 5 -23 0l-189 -118q-14 -5 -19 0h-5q-61 38 -108 52q-33 10 5 33l250 146q38 24 80 24t80 -24l746 -429q38 -24 59 -61.5t21 -75.5v-868q0 -38 -21 -75.5t-59 -61.5l-746 -429q-38 -24 -80 -24zM1227 623
q-161 0 -253 63.5t-92 177t90 165.5q76 47 243.5 63.5t223.5 44.5q43 19 43 62q0 66 -54.5 94t-172.5 28q-141 0 -198 -37q-47 -33 -57 -114q-4 -19 -23 -19h-99q-19 0 -19 24q0 118 75 184q99 90 321 90q180 0 276.5 -66t96.5 -184t-85 -170q-71 -47 -255 -71
q-118 -14 -170 -26t-68.5 -28.5t-16.5 -44.5q0 -47 33 -71q43 -38 158.5 -38t165 31t68.5 106q5 19 24 19h94q10 0 17 -7t7 -17q-14 -132 -104 -195.5t-269 -63.5z" />
</svg>
