<?xml version="1.0" standalone="no"?>
<!DOCTYPE svg PUBLIC "-//W3C//DTD SVG 1.1//EN" "http://www.w3.org/Graphics/SVG/1.1/DTD/svg11.dtd" >
<svg xmlns="http://www.w3.org/2000/svg" xmlns:xlink="http://www.w3.org/1999/xlink" version="1.1" width="2048" height="2048" viewBox="-10 0 2068 2048">
   <path fill="currentColor"
d="M1846 923h-1644v-308h1644v308zM1846 1332h-721v-207h721v207zM1846 1740h-721v-202h721v202zM923 1740h-721v-615h721v615zM1880 274l-173 -173l-169 173l-173 -173l-168 173l-173 -173l-173 173l-168 -173l-173 173l-169 -173l-173 173l-168 -173v1639q0 87 60 147
t142 60h1644q82 0 142 -60t60 -147v-1639z" />
</svg>
