<?xml version="1.0" standalone="no"?>
<!DOCTYPE svg PUBLIC "-//W3C//DTD SVG 1.1//EN" "http://www.w3.org/Graphics/SVG/1.1/DTD/svg11.dtd" >
<svg xmlns="http://www.w3.org/2000/svg" xmlns:xlink="http://www.w3.org/1999/xlink" version="1.1" width="2048" height="2048" viewBox="-10 0 2068 2048">
   <path fill="currentColor"
d="M293 1572v220q0 14 -11.5 25t-25.5 11h-219q-14 0 -25.5 -11t-11.5 -25v-220q0 -14 11.5 -25t25.5 -11h219q14 0 25.5 11t11.5 25zM293 1134v220q0 14 -11.5 25t-25.5 11h-219q-14 0 -25.5 -11t-11.5 -25v-220q0 -15 11.5 -25.5t25.5 -10.5h219q14 0 25.5 10.5t11.5 25.5
zM293 694v220q0 15 -11.5 25.5t-25.5 10.5h-219q-14 0 -25.5 -10.5t-11.5 -25.5v-220q0 -14 11.5 -25t25.5 -11h219q14 0 25.5 11t11.5 25zM2048 1572v220q0 14 -11.5 25t-25.5 11h-1536q-14 0 -25 -11t-11 -25v-220q0 -14 11 -25t25 -11h1536q14 0 25.5 11t11.5 25z
M293 256v220q0 14 -11.5 25t-25.5 11h-219q-14 0 -25.5 -11t-11.5 -25v-220q0 -15 11.5 -25.5t25.5 -10.5h219q14 0 25.5 10.5t11.5 25.5zM2048 1134v220q0 14 -11.5 25t-25.5 11h-1536q-14 0 -25 -11t-11 -25v-220q0 -15 11 -25.5t25 -10.5h1536q14 0 25.5 10.5t11.5 25.5z
M2048 694v220q0 15 -11.5 25.5t-25.5 10.5h-1536q-14 0 -25 -10.5t-11 -25.5v-220q0 -14 11 -25t25 -11h1536q14 0 25.5 11t11.5 25zM2048 256v220q0 14 -11.5 25t-25.5 11h-1536q-14 0 -25 -11t-11 -25v-220q0 -15 11 -25.5t25 -10.5h1536q14 0 25.5 10.5t11.5 25.5z" />
</svg>
