<?xml version="1.0" standalone="no"?>
<!DOCTYPE svg PUBLIC "-//W3C//DTD SVG 1.1//EN" "http://www.w3.org/Graphics/SVG/1.1/DTD/svg11.dtd" >
<svg xmlns="http://www.w3.org/2000/svg" xmlns:xlink="http://www.w3.org/1999/xlink" version="1.1" width="2048" height="2048" viewBox="-10 0 2068 2048">
   <path fill="currentColor"
d="M1490 1116v-140q0 -57 -41.5 -98t-97.5 -41q56 0 97.5 -39.5t41.5 -100.5v-139q0 -74 -54.5 -128.5t-132.5 -54.5h-371v183h371v187h-187v187h187v184h-371v187h371q78 0 132.5 -54.5t54.5 -132.5zM187 375h-187v1486q0 78 54.5 132.5t132.5 54.5h1486v-187h-1486v-1486z
M1861 1490h-1303v-1303h1303v1303zM1861 0h-1303q-74 0 -128.5 54.5t-54.5 132.5v1303q0 74 54.5 128.5t128.5 54.5h1303q78 0 132.5 -54.5t54.5 -128.5v-1303q0 -78 -54.5 -132.5t-132.5 -54.5z" />
</svg>
