<?xml version="1.0" standalone="no"?>
<!DOCTYPE svg PUBLIC "-//W3C//DTD SVG 1.1//EN" "http://www.w3.org/Graphics/SVG/1.1/DTD/svg11.dtd" >
<svg xmlns="http://www.w3.org/2000/svg" xmlns:xlink="http://www.w3.org/1999/xlink" version="1.1" width="2048" height="2048" viewBox="-10 0 2068 2048">
   <path fill="currentColor"
d="M2048 229v1590q0 96 -66.5 162.5t-162.5 66.5h-1590q-96 0 -162.5 -66.5t-66.5 -162.5v-1590q0 -96 66.5 -162.5t162.5 -66.5h1590q96 0 162.5 66.5t66.5 162.5zM1819 912h-224v-229h-230v229h-229v224h229v229h230v-229h224v-224zM795 453h-224q-96 0 -163 67t-67 163
v229q0 91 67 157.5t163 66.5h224v229h-454v230h454q96 0 162.5 -67t66.5 -163v-682q0 -96 -66.5 -163t-162.5 -67zM571 683h224v229h-224v-229z" />
</svg>
