<?xml version="1.0" standalone="no"?>
<!DOCTYPE svg PUBLIC "-//W3C//DTD SVG 1.1//EN" "http://www.w3.org/Graphics/SVG/1.1/DTD/svg11.dtd" >
<svg xmlns="http://www.w3.org/2000/svg" xmlns:xlink="http://www.w3.org/1999/xlink" version="1.1" width="2048" height="2048" viewBox="-10 0 2068 2048">
   <path fill="currentColor"
d="M1116 932h187v184h-187v-184zM1116 558h187v187h-187v-187zM1116 1303h187q78 0 132.5 -54.5t54.5 -132.5v-140q0 -57 -41.5 -98t-97.5 -41q56 0 97.5 -39.5t41.5 -100.5v-139q0 -74 -54.5 -128.5t-132.5 -54.5h-187q-75 0 -129.5 54.5t-54.5 128.5v139q0 61 39.5 100.5
t100.5 39.5q-61 0 -100.5 41t-39.5 98v140q0 78 54.5 132.5t129.5 54.5zM1861 1490h-1303v-1303h1303v1303zM1861 0h-1303q-74 0 -128.5 54.5t-54.5 132.5v1303q0 74 54.5 128.5t128.5 54.5h1303q78 0 132.5 -54.5t54.5 -128.5v-1303q0 -78 -54.5 -132.5t-132.5 -54.5z
M187 375h-187v1486q0 78 54.5 132.5t132.5 54.5h1486v-187h-1486v-1486z" />
</svg>
