<?xml version="1.0" standalone="no"?>
<!DOCTYPE svg PUBLIC "-//W3C//DTD SVG 1.1//EN" "http://www.w3.org/Graphics/SVG/1.1/DTD/svg11.dtd" >
<svg xmlns="http://www.w3.org/2000/svg" xmlns:xlink="http://www.w3.org/1999/xlink" version="1.1" width="2048" height="2048" viewBox="-10 0 2068 2048">
   <path fill="currentColor"
d="M1365 683h-453v229h224q96 0 162.5 66.5t66.5 157.5v229q0 96 -66.5 163t-162.5 67h-224q-96 0 -162.5 -67t-66.5 -163v-682q0 -96 66.5 -163t162.5 -67h453v230zM1819 0h-1590q-96 0 -162.5 66.5t-66.5 162.5v1590q0 96 66.5 162.5t162.5 66.5h1590q96 0 162.5 -66.5
t66.5 -162.5v-1590q0 -96 -66.5 -162.5t-162.5 -66.5zM912 1365h224v-229h-224v229z" />
</svg>
