<?xml version="1.0" standalone="no"?>
<!DOCTYPE svg PUBLIC "-//W3C//DTD SVG 1.1//EN" "http://www.w3.org/Graphics/SVG/1.1/DTD/svg11.dtd" >
<svg xmlns="http://www.w3.org/2000/svg" xmlns:xlink="http://www.w3.org/1999/xlink" version="1.1" width="2048" height="2048" viewBox="-10 0 2068 2048">
   <path fill="currentColor"
d="M1211 98l-279 139v1526q-187 -18 -335 -83.5t-233 -163.5t-85 -211q0 -157 157 -279t401 -165v-188q-236 31 -427.5 122.5t-300.5 224.5t-109 285q0 161 124 303t335.5 231t472.5 111h9l270 -135v-1717zM1303 673v188q161 30 283 91l-144 74l606 140l-48 -419l-187 92
q-223 -127 -510 -166z" />
</svg>
