<?xml version="1.0" standalone="no"?>
<!DOCTYPE svg PUBLIC "-//W3C//DTD SVG 1.1//EN" "http://www.w3.org/Graphics/SVG/1.1/DTD/svg11.dtd" >
<svg xmlns="http://www.w3.org/2000/svg" xmlns:xlink="http://www.w3.org/1999/xlink" version="1.1" width="2048" height="2048" viewBox="-10 0 2058 2048">
   <path fill="currentColor"
d="M1620 1101q-24 -53 -77 -67q-67 -15 -139 43q-92 72 -245 101q-77 14 -135 14l-67 -5q-77 -9 -149 -28q-101 -34 -168.5 -87t-134.5 -38q-53 14 -77 67q-39 72 0 125q29 43 134 110q130 82 366 106l-390 390q-38 33 -38 83.5t38 84.5l15 14q34 34 82 34t86 -34l303 -303
l308 303q33 34 83.5 34t84.5 -34l14 -14q34 -34 34 -84.5t-34 -83.5l-389 -390q226 -19 361 -106q105 -67 134 -110q39 -53 0 -125zM1024 260q106 0 180.5 76.5t74.5 182.5t-74.5 180.5t-180.5 74.5t-180.5 -74.5t-74.5 -180.5t74.5 -182.5t180.5 -76.5zM1024 1038
q139 0 259.5 -69.5t190 -189.5t69.5 -262t-69.5 -260t-190 -187.5t-259.5 -69.5t-259.5 69.5t-190 187.5t-69.5 260t69.5 262t190 189.5t259.5 69.5z" />
</svg>
