<?xml version="1.0" standalone="no"?>
<!DOCTYPE svg PUBLIC "-//W3C//DTD SVG 1.1//EN" "http://www.w3.org/Graphics/SVG/1.1/DTD/svg11.dtd" >
<svg xmlns="http://www.w3.org/2000/svg" xmlns:xlink="http://www.w3.org/1999/xlink" version="1.1" width="2048" height="2048" viewBox="-10 0 2068 2048">
   <path fill="currentColor"
d="M402 1024q0 16 -10 26l-329 330q-10 10 -26 10q-14 0 -25.5 -11t-11.5 -25v-660q0 -14 11.5 -25t25.5 -11q16 0 26 10l329 330q10 10 10 26zM2048 1572v220q0 14 -11.5 25t-25.5 11h-1974q-14 0 -25.5 -11t-11.5 -25v-220q0 -14 11.5 -25t25.5 -11h1974q14 0 25.5 11
t11.5 25zM2048 1134v220q0 14 -11.5 25t-25.5 11h-1243q-14 0 -25.5 -11t-11.5 -25v-220q0 -15 11.5 -25.5t25.5 -10.5h1243q14 0 25.5 10.5t11.5 25.5zM2048 694v220q0 15 -11.5 25.5t-25.5 10.5h-1243q-14 0 -25.5 -10.5t-11.5 -25.5v-220q0 -14 11.5 -25t25.5 -11h1243
q14 0 25.5 11t11.5 25zM2048 256v220q0 14 -11.5 25t-25.5 11h-1974q-14 0 -25.5 -11t-11.5 -25v-220q0 -15 11.5 -25.5t25.5 -10.5h1974q14 0 25.5 10.5t11.5 25.5z" />
</svg>
