<?xml version="1.0" standalone="no"?>
<!DOCTYPE svg PUBLIC "-//W3C//DTD SVG 1.1//EN" "http://www.w3.org/Graphics/SVG/1.1/DTD/svg11.dtd" >
<svg xmlns="http://www.w3.org/2000/svg" xmlns:xlink="http://www.w3.org/1999/xlink" version="1.1" width="2048" height="2048" viewBox="-10 0 2058 2048">
   <path fill="currentColor"
d="M1024 0q123 0 208 87t85 206v100q41 0 68.5 27.5t27.5 68.5v105q178 101 285.5 281.5t107.5 393t-105.5 391t-286 283.5t-390.5 105t-390.5 -105t-286 -283.5t-105.5 -391t107.5 -393t285.5 -281.5v-105q0 -41 27.5 -68.5t68.5 -27.5v-100q0 -119 85 -206t208 -87z
M1024 197q-41 0 -68.5 27t-27.5 69v100h192v-100q0 -42 -27.5 -69t-68.5 -27zM1024 686q-128 0 -240 50t-194 142h868q-82 -92 -194 -142t-240 -50zM471 1463h123l-155 -151q4 73 32 151zM1083 1463l-393 -389h-210l389 389h214zM1577 1074h-123l155 151q-4 -73 -32 -151z
M965 1074l393 389h210l-389 -389h-214zM1024 1856q128 0 240 -52.5t194 -144.5h-868q82 92 194 144.5t240 52.5z" />
</svg>
