<?xml version="1.0" standalone="no"?>
<!DOCTYPE svg PUBLIC "-//W3C//DTD SVG 1.1//EN" "http://www.w3.org/Graphics/SVG/1.1/DTD/svg11.dtd" >
<svg xmlns="http://www.w3.org/2000/svg" xmlns:xlink="http://www.w3.org/1999/xlink" version="1.1" width="2048" height="2048" viewBox="-10 0 2068 2048">
   <path fill="currentColor"
d="M1819 912h-224v-229h-230v229h-229v224h229v229h230v-229h224v683h-1590v-1590h1590v683zM1819 0h-1590q-96 0 -162.5 66.5t-66.5 162.5v1590q0 96 66.5 162.5t162.5 66.5h1590q96 0 162.5 -66.5t66.5 -162.5v-1590q0 -96 -66.5 -162.5t-162.5 -66.5zM683 912v-117h112
v117h-112zM1024 1253v-458q0 -91 -66.5 -157.5t-162.5 -66.5h-112q-96 0 -163 66.5t-67 157.5v117q0 91 67 157.5t163 66.5h112v117h-342v224h342q96 0 162.5 -66.5t66.5 -157.5z" />
</svg>
