<?xml version="1.0" standalone="no"?>
<!DOCTYPE svg PUBLIC "-//W3C//DTD SVG 1.1//EN" "http://www.w3.org/Graphics/SVG/1.1/DTD/svg11.dtd" >
<svg xmlns="http://www.w3.org/2000/svg" xmlns:xlink="http://www.w3.org/1999/xlink" version="1.1" width="2048" height="2048" viewBox="-10 0 2068 2048">
   <path fill="currentColor"
d="M980 42q-52 0 -90 38t-38 90v1024q-40 32 -62 76t-22 96q0 88 62 150t150 62t152 -62t64 -150q0 -104 -88 -172v-128h344v-168h-344v-172h344v-172h-344v-168h344v-172h-344v-44q0 -52 -36 -90t-92 -38zM0 1238v172q36 0 52 8t44 36l16 16q108 108 230 108t230 -108
l24 -28v-192q-72 24 -144 100l-12 12q-28 28 -46 38t-52 10t-52 -10t-46 -38l-12 -12q-112 -112 -232 -112zM1364 1238v172q36 0 54 8t46 36l12 16q108 108 230 108t230 -108l16 -16q28 -28 44 -36t52 -8v-172q-120 0 -232 112l-12 12q-28 28 -46 38t-52 10t-52 -10t-46 -38
l-12 -12q-108 -112 -232 -112zM684 1666q-124 0 -232 108l-12 16q-28 28 -46 36t-52 8t-52 -8t-46 -36l-12 -16q-72 -72 -148 -96v192l28 24q108 112 230 112t230 -112l12 -12q28 -28 46 -38t52 -10t52 10t46 38l12 12q96 96 188 108q16 4 44 4q120 0 232 -112l12 -12
q28 -28 46 -38t52 -10t52 10t46 38l12 12q108 112 230 112t230 -112l28 -24v-192q-76 24 -148 96l-12 16q-28 28 -46 36t-52 8t-52 -8t-46 -36l-12 -16q-108 -108 -230 -108t-230 108l-16 16q-28 28 -44 36t-52 8q-24 0 -44 -6t-60 -46l-8 -8q-108 -108 -228 -108z" />
</svg>
