<?xml version="1.0" standalone="no"?>
<!DOCTYPE svg PUBLIC "-//W3C//DTD SVG 1.1//EN" "http://www.w3.org/Graphics/SVG/1.1/DTD/svg11.dtd" >
<svg xmlns="http://www.w3.org/2000/svg" xmlns:xlink="http://www.w3.org/1999/xlink" version="1.1" width="2048" height="2048" viewBox="-10 0 2068 2048">
   <path fill="currentColor"
d="M1659 851q81 5 153.5 38.5t125 91t81.5 130t29 156.5t-31 158.5t-89 132t-132.5 91.5t-160.5 34h-1125q-106 0 -197.5 -41t-161 -111t-110.5 -163.5t-41 -199.5q0 -82 24 -161t72 -144t115.5 -113t144.5 -72q38 -15 74 -17t75 -7q43 -67 100.5 -120t130 -89t149.5 -58
t153 -22q111 0 212 36t182.5 101t142 154t84.5 195zM1038 495q-110 0 -213.5 46t-175.5 132q38 14 74.5 28.5t69.5 34.5l404 245l284 -116l48 -14q-24 -77 -72 -144.5t-113 -113t-142 -72t-164 -26.5zM202 1399l851 -356l-327 -197q-53 -29 -108.5 -45.5t-112.5 -16.5
q-77 0 -147 31t-120.5 84t-81.5 122.5t-31 146.5q0 63 21.5 123t55.5 108zM1635 1553q48 0 91 -14.5t82 -43.5l-621 -370l-879 370q48 29 98.5 43.5t103.5 14.5h1125zM1889 1394q34 -62 34 -129.5t-26.5 -120.5t-67.5 -91.5t-98.5 -60t-119.5 -21.5q-39 0 -75 9.5t-70 24.5
l-67 29l-63 28z" />
</svg>
