<?xml version="1.0" standalone="no"?>
<!DOCTYPE svg PUBLIC "-//W3C//DTD SVG 1.1//EN" "http://www.w3.org/Graphics/SVG/1.1/DTD/svg11.dtd" >
<svg xmlns="http://www.w3.org/2000/svg" xmlns:xlink="http://www.w3.org/1999/xlink" version="1.1" width="2048" height="2048" viewBox="-10 0 2068 2048">
   <path fill="currentColor"
d="M1875 1068q24 24 44 52q53 65 85 117q44 80 44 128q0 73 -50 123t-120.5 50t-120.5 -50t-50 -123q0 -48 44 -128q32 -52 80 -117zM506 510h341q36 0 62.5 24t26.5 60t-26.5 62.5t-62.5 26.5h-84v168h173q44 0 84 24.5t64 64.5l554 -326l281 165q33 16 41 50t-10 66.5
t-50.5 40.5t-64.5 -8l-181 -105l-313 542q-24 40 -64 64.5t-84 24.5h-771q-73 0 -123 -50.5t-50 -122.5v-257q0 -72 50 -122.5t123 -50.5h168v-168h-84q-36 0 -60 -26.5t-24 -62.5t24 -60t60 -24zM422 1024v257h771l176 -305l-297 172l-80 -124h-570zM24 783l149 -145
q24 -24 58 -24t60 24.5t26 60.5t-24 60l-148 149q-25 24 -61 24t-60 -26.5t-24 -60.5t24 -62z" />
</svg>
