<?xml version="1.0" standalone="no"?>
<!DOCTYPE svg PUBLIC "-//W3C//DTD SVG 1.1//EN" "http://www.w3.org/Graphics/SVG/1.1/DTD/svg11.dtd" >
<svg xmlns="http://www.w3.org/2000/svg" xmlns:xlink="http://www.w3.org/1999/xlink" version="1.1" width="2048" height="2048" viewBox="-10 0 2068 2048">
   <path fill="currentColor"
d="M1990 202q-19 0 -29 10q-451 168 -934.5 168t-939.5 -168q-10 -10 -34 -10t-38.5 17t-14.5 50v1510q0 33 14.5 50t38.5 17t34 -10q451 -168 934.5 -168t939.5 168q10 10 34 10t38.5 -19t14.5 -48v-1510q0 -29 -14.5 -48t-43.5 -19zM1846 466v1116q-404 -116 -822 -116
t-822 116v-1116q404 116 822 118.5t822 -118.5z" />
</svg>
