<?xml version="1.0" standalone="no"?>
<!DOCTYPE svg PUBLIC "-//W3C//DTD SVG 1.1//EN" "http://www.w3.org/Graphics/SVG/1.1/DTD/svg11.dtd" >
<svg xmlns="http://www.w3.org/2000/svg" xmlns:xlink="http://www.w3.org/1999/xlink" version="1.1" width="2048" height="2048" viewBox="-10 0 2058 2048">
   <path fill="currentColor"
d="M466 1846q116 -404 116 -822t-116 -822h1116q-116 404 -116 822t116 822h-1116zM1836 1961q-168 -451 -168 -934.5t168 -939.5q10 -10 10 -34t-17 -38.5t-50 -14.5h-1510q-33 0 -50 14.5t-17 38.5t10 34q168 456 168 937t-168 937q-10 10 -10 34t19 38.5t48 14.5h1510
q33 0 50 -14.5t17 -38.5t-10 -34z" />
</svg>
