<?xml version="1.0" standalone="no"?>
<!DOCTYPE svg PUBLIC "-//W3C//DTD SVG 1.1//EN" "http://www.w3.org/Graphics/SVG/1.1/DTD/svg11.dtd" >
<svg xmlns="http://www.w3.org/2000/svg" xmlns:xlink="http://www.w3.org/1999/xlink" version="1.1" width="2048" height="2048" viewBox="-10 0 2068 2048">
   <path fill="currentColor"
d="M1024 1394q78 122 205 188l-205 205l-205 -205q127 -66 205 -188zM1490 950q-78 0 -132.5 54.5t-54.5 130.5t54.5 130.5t130.5 54.5t130.5 -54.5t54.5 -130.5t-54.5 -130.5t-128.5 -54.5zM558 950q-74 0 -128.5 54.5t-54.5 130.5t54.5 130.5t130.5 54.5t130.5 -54.5
t54.5 -130.5t-54.5 -130.5t-132.5 -54.5zM1490 719q153 0 262 109t109 261.5t-109 261.5t-264 109t-263.5 -109t-108.5 -261.5t108.5 -261.5t265.5 -109zM558 719q157 0 265.5 109t108.5 261.5t-108.5 261.5t-263.5 109t-264 -109t-109 -261.5t109 -261.5t262 -109zM118 0
q74 157 78 314q4 126 -39 270q-26 87 -96 257l-9 17q-52 114 -52 231q0 153 76.5 279.5t205 202.5t276.5 76l61 -4l405 405l405 -405l61 4q148 0 276.5 -76t205 -202.5t76.5 -279.5q0 -117 -52 -231l-9 -17q-70 -170 -96 -257q-43 -144 -39 -270q4 -157 78 -314
q-191 153 -427 244q-252 100 -479 100t-479 -100q-236 -91 -427 -244z" />
</svg>
