<?xml version="1.0" standalone="no"?>
<!DOCTYPE svg PUBLIC "-//W3C//DTD SVG 1.1//EN" "http://www.w3.org/Graphics/SVG/1.1/DTD/svg11.dtd" >
<svg xmlns="http://www.w3.org/2000/svg" xmlns:xlink="http://www.w3.org/1999/xlink" version="1.1" width="2048" height="2048" viewBox="-10 0 2068 2048">
   <path fill="currentColor"
d="M1648 1024q-69 0 -120 -50.5t-51 -120t51 -120t123 -50.5t120 50.5t48 120t-48 120t-123 50.5zM1307 571q-70 0 -120.5 -51t-50.5 -123t50.5 -120t122.5 -48t120 48t48 120t-48 123t-122 51zM741 571q-74 0 -122 -51t-48 -123t48 -120t120 -48t122.5 48t50.5 120
t-50.5 123t-120.5 51zM400 1024q-75 0 -123 -50.5t-48 -120t48 -120t120 -50.5t123 50.5t51 120t-51 120t-120 50.5zM1024 0q-277 0 -512 138.5t-373.5 373.5t-138.5 512t138.5 512t373.5 373.5t512 138.5q69 0 120 -50.5t51 -117.5t-43 -117.5t-43 -117t48 -117.5t123 -51
h197q155 0 285.5 -74.5t208 -205t77.5 -285.5q0 -251 -138.5 -459t-373.5 -330.5t-512 -122.5z" />
</svg>
