<?xml version="1.0" standalone="no"?>
<!DOCTYPE svg PUBLIC "-//W3C//DTD SVG 1.1//EN" "http://www.w3.org/Graphics/SVG/1.1/DTD/svg11.dtd" >
<svg xmlns="http://www.w3.org/2000/svg" xmlns:xlink="http://www.w3.org/1999/xlink" version="1.1" width="2048" height="2048" viewBox="-10 0 2068 2048">
   <path fill="currentColor"
d="M1024 187q235 0 440 127q48 -61 113.5 -94t143.5 -33q135 0 231 96t96 231q0 100 -59 185t-155 120q27 105 27 205q0 227 -113.5 418.5t-305 305t-418.5 113.5t-418.5 -113.5t-305 -305t-113.5 -418.5q0 -100 27 -205q-96 -35 -155 -120t-59 -185q0 -135 96 -231t231 -96
q78 0 143.5 33t113.5 94q205 -127 440 -127zM1024 375q-179 0 -327 87t-235 235t-87 327t87 327t235 235t327 87t327 -87t235 -235t87 -327t-87 -327t-235 -235t-327 -87zM1412 867q26 92 -2.5 170.5t-93.5 95.5t-128.5 -37.5t-87.5 -146t4.5 -169.5t94 -95.5t128.5 34.5
t85 148zM636 867q22 -96 85 -148t128.5 -34.5t94 95.5t4.5 169.5t-87.5 146t-128.5 37.5t-93.5 -95.5t-2.5 -170.5zM1024 1211q83 0 139 44l-91 96q0 26 19.5 48t48 22t50 -22t21.5 -48q0 -22 13.5 -35t33 -13t32.5 13t13 35q0 65 -48 113t-115.5 48t-115.5 -48
q-48 48 -115.5 48t-115.5 -48t-48 -113q0 -22 13 -35t32.5 -13t33 13t13.5 35q0 26 21.5 48t50 22t48 -22t19.5 -48l-91 -96q56 -44 139 -44z" />
</svg>
