<?xml version="1.0" standalone="no"?>
<!DOCTYPE svg PUBLIC "-//W3C//DTD SVG 1.1//EN" "http://www.w3.org/Graphics/SVG/1.1/DTD/svg11.dtd" >
<svg xmlns="http://www.w3.org/2000/svg" xmlns:xlink="http://www.w3.org/1999/xlink" version="1.1" width="2048" height="2048" viewBox="-10 0 2058 2048">
   <path fill="currentColor"
d="M1024 0q123 0 208 87t85 206v100q41 0 68.5 27.5t27.5 68.5v105q178 101 285.5 281.5t107.5 393t-105.5 391t-286 283.5t-390.5 105t-390.5 -105t-286 -283.5t-105.5 -391t107.5 -393t285.5 -281.5v-105q0 -41 27.5 -68.5t68.5 -27.5v-100q0 -119 85 -206t208 -87z
M1024 197q-41 0 -68.5 27t-27.5 69v100h192v-100q0 -42 -27.5 -69t-68.5 -27zM1024 686q-128 0 -240 50t-194 142h868q-82 -92 -194 -142t-240 -50zM1024 1856q128 0 240 -52.5t194 -144.5h-868q82 92 194 144.5t240 52.5zM1024 1074q-82 0 -139.5 57.5t-57.5 137.5
t57.5 137t139.5 57t139.5 -57t57.5 -137t-57.5 -137.5t-139.5 -57.5zM1609 1271q0 -96 -32 -197q-68 14 -116 69t-48 128t48 125.5t116 66.5q32 -96 32 -192zM439 1271q0 96 32 192q68 -14 116 -66.5t48 -125.5t-48 -128t-116 -69q-32 101 -32 197z" />
</svg>
