<?xml version="1.0" standalone="no"?>
<!DOCTYPE svg PUBLIC "-//W3C//DTD SVG 1.1//EN" "http://www.w3.org/Graphics/SVG/1.1/DTD/svg11.dtd" >
<svg xmlns="http://www.w3.org/2000/svg" xmlns:xlink="http://www.w3.org/1999/xlink" version="1.1" width="2048" height="2048" viewBox="-10 0 2068 2048">
   <path fill="currentColor"
d="M1253 1253h-458v-341h-224l453 -459l453 459h-224v341zM1477 912zM229 1365v-1136h1590v1136h-454q0 144 -98.5 243t-242.5 99t-242.5 -99t-98.5 -243h-454zM1819 0h-1590q-96 0 -162.5 66.5t-66.5 162.5v1590q0 96 66.5 162.5t162.5 66.5h1590q96 0 162.5 -66.5
t66.5 -162.5v-1590q0 -96 -66.5 -162.5t-162.5 -66.5z" />
</svg>
