<?xml version="1.0" standalone="no"?>
<!DOCTYPE svg PUBLIC "-//W3C//DTD SVG 1.1//EN" "http://www.w3.org/Graphics/SVG/1.1/DTD/svg11.dtd" >
<svg xmlns="http://www.w3.org/2000/svg" xmlns:xlink="http://www.w3.org/1999/xlink" version="1.1" width="2048" height="2048" viewBox="-10 0 2068 2048">
   <path fill="currentColor"
d="M682 683q0 85 -59.5 144.5t-144.5 59.5t-144.5 -59.5t-59.5 -144.5t59.5 -145.5t144.5 -60.5t144.5 60.5t59.5 145.5zM1775 1093v478h-1501v-206l340 -341l171 170l546 -546zM1877 341h-1706q-13 0 -24 10.5t-11 24.5v1296q0 14 11 24.5t24 10.5h1706q13 0 24 -10.5
t11 -24.5v-1296q0 -14 -11 -24.5t-24 -10.5zM2048 376v1296q0 71 -50 121t-121 50h-1706q-71 0 -121 -50t-50 -121v-1296q0 -71 50 -121t121 -50h1706q71 0 121 50t50 121z" />
</svg>
