<?xml version="1.0" standalone="no"?>
<!DOCTYPE svg PUBLIC "-//W3C//DTD SVG 1.1//EN" "http://www.w3.org/Graphics/SVG/1.1/DTD/svg11.dtd" >
<svg xmlns="http://www.w3.org/2000/svg" xmlns:xlink="http://www.w3.org/1999/xlink" version="1.1" width="2048" height="2048" viewBox="-11 0 2070 2048">
   <path fill="currentColor"
d="M651 108q91 -15 174.5 71t110 222.5t-16.5 241.5t-131.5 119.5t-174.5 -71.5t-112.5 -222.5t16.5 -241.5t134 -119zM1382 108q91 14 134 119t17 241.5t-110 222.5t-174.5 71.5t-136 -119.5t-17 -241.5t112.5 -222.5t174 -71zM106 576q86 -38 191.5 21.5t165 179t40.5 232
t-105 148.5t-189 -21.5t-162.5 -179.5t-43 -232t102.5 -148zM1942 576q86 38 102.5 148t-43 232t-162.5 179.5t-189 21.5t-105 -148.5t40.5 -232t165 -179t191.5 -21.5zM1770 1675q4 72 -41 141.5t-117 103t-167 13.5q-58 -9 -182 -47q-81 -29 -124 -39q-72 -19 -127 -19
t-122 19q-43 10 -129 39q-119 43 -181 52q-96 15 -170 -21t-119.5 -122t-35.5 -172q4 -67 66 -134q39 -43 130 -110q76 -67 109 -100q48 -43 129 -158q91 -124 144 -172q86 -81 181.5 -81t186.5 81q52 52 148 186q76 105 115 144q28 38 105 105q100 86 134 134q67 76 67 157
z" />
</svg>
