<?xml version="1.0" standalone="no"?>
<!DOCTYPE svg PUBLIC "-//W3C//DTD SVG 1.1//EN" "http://www.w3.org/Graphics/SVG/1.1/DTD/svg11.dtd" >
<svg xmlns="http://www.w3.org/2000/svg" xmlns:xlink="http://www.w3.org/1999/xlink" version="1.1" width="2048" height="2048" viewBox="-10 0 2068 2048">
   <path fill="currentColor"
d="M1952 477q-36 36 -51 56q-26 31 -26 54.5t20 54.5l52 51l10 11q47 51 62 72q31 41 28.5 77.5t-38.5 82.5q-21 26 -77 83l-455 454l-155 -155l470 -470l-108 -103l-155 155l-413 -413l423 -424q31 -31 77.5 -31t77.5 31l258 259q31 31 31 77.5t-31 77.5zM0 1602
l1054 -1053l413 413l-1054 1054h-413v-414z" />
</svg>
