<?xml version="1.0" standalone="no"?>
<!DOCTYPE svg PUBLIC "-//W3C//DTD SVG 1.1//EN" "http://www.w3.org/Graphics/SVG/1.1/DTD/svg11.dtd" >
<svg xmlns="http://www.w3.org/2000/svg" xmlns:xlink="http://www.w3.org/1999/xlink" version="1.1" width="2048" height="2048" viewBox="-10 0 2068 2048">
   <path fill="currentColor"
d="M1024 202q-394 0 -817 77l-92 14l-28 92q-87 322 -87 639t87 639l28 92l92 14q418 77 814.5 77t819.5 -77l92 -14l28 -92q87 -322 87 -639t-87 -639l-28 -92l-92 -14q-418 -77 -817 -77zM1024 409q361 0 750 67q72 274 72 548t-72 548q-389 67 -750 67t-750 -67
q-72 -274 -72 -548t72 -548q389 -67 750 -67z" />
</svg>
