<?xml version="1.0" standalone="no"?>
<!DOCTYPE svg PUBLIC "-//W3C//DTD SVG 1.1//EN" "http://www.w3.org/Graphics/SVG/1.1/DTD/svg11.dtd" >
<svg xmlns="http://www.w3.org/2000/svg" xmlns:xlink="http://www.w3.org/1999/xlink" version="1.1" width="2048" height="2048" viewBox="-10 0 2068 2048">
   <path fill="currentColor"
d="M966 125l58 77l58 -77q43 -58 108 -91.5t142 -33.5q129 0 218 89t89 219q0 53 -19 101h226q82 0 142 60t60 146v1231q0 82 -60 142t-142 60h-1644q-82 0 -142 -60t-60 -142v-1231q0 -86 60 -146t142 -60h226q-19 -48 -19 -101q0 -130 89 -219t218 -89q77 0 142 33.5
t108 91.5zM202 615v1231h721q0 -43 29 -74.5t72 -31.5t72 31.5t29 74.5h721v-1231h-524l216 298l-163 121l-308 -419h-86l-308 419l-163 -121l216 -298h-524zM716 202q-43 0 -72 31t-29 74.5t29 72.5t72.5 29t72 -29t28.5 -72.5t-28.5 -74.5t-72.5 -31zM1332 202
q-44 0 -72.5 31t-28.5 74.5t28.5 72.5t72 29t72.5 -29t29 -72.5t-29 -74.5t-72 -31zM1024 1433q43 0 72 31t29 74.5t-29 72t-72 28.5t-72 -28.5t-29 -72t29 -74.5t72 -31zM1024 1125q43 0 72 31t29 74.5t-29 72.5t-72 29t-72 -29t-29 -72.5t29 -74.5t72 -31zM1024 817
q43 0 72 31.5t29 74.5t-29 72t-72 29t-72 -29t-29 -72t29 -74.5t72 -31.5z" />
</svg>
