<?xml version="1.0" standalone="no"?>
<!DOCTYPE svg PUBLIC "-//W3C//DTD SVG 1.1//EN" "http://www.w3.org/Graphics/SVG/1.1/DTD/svg11.dtd" >
<svg xmlns="http://www.w3.org/2000/svg" xmlns:xlink="http://www.w3.org/1999/xlink" version="1.1" width="2048" height="2048" viewBox="-10 0 2068 2048">
   <path fill="currentColor"
d="M1108 1366v168h88q36 0 60 26t24 62h596v168h-596q0 36 -24 62t-60 26h-344q-36 0 -60 -26t-24 -62h-596v-168h596q0 -36 24 -62t60 -26h88v-168h168zM2024 570q24 24 24 60t-24 60l-212 212q-24 24 -60 24t-60 -24q-112 -100 -228 -160q-20 -8 -34 -30t-14 -46v-264
q-188 -60 -392 -60t-392 60v264q0 56 -48 80q-128 64 -228 156q-24 24 -60 24t-60 -24l-212 -212q-24 -24 -24 -60t24 -60q200 -192 452 -292q264 -108 548 -108t548 108q252 100 452 292zM940 766v428h-88v-428h88zM1024 766h256v256h-172v172h-84v-428zM1196 938v-84h-88
v84h88z" />
</svg>
