<?xml version="1.0" standalone="no"?>
<!DOCTYPE svg PUBLIC "-//W3C//DTD SVG 1.1//EN" "http://www.w3.org/Graphics/SVG/1.1/DTD/svg11.dtd" >
<svg xmlns="http://www.w3.org/2000/svg" xmlns:xlink="http://www.w3.org/1999/xlink" version="1.1" width="2048" height="2048" viewBox="-10 0 2058 2048">
   <path fill="currentColor"
d="M1844 1487q-192 0 -364 -58q-63 -19 -106 24l-225 226q-216 -111 -391 -286t-286 -391l226 -225q43 -43 24 -106q-58 -172 -58 -364q0 -43 -28.5 -72t-71.5 -29h-360q-43 0 -72 29t-29 72q0 345 132 666.5t376.5 566t566 376.5t666.5 132q43 0 72 -29t29 -72v-359
q0 -44 -29 -72.5t-72 -28.5zM1638 638l96 96l-96 96v-192zM1638 197l96 96l-96 95v-191zM1302 873l235 -235v388h48l293 -292l-221 -221l221 -220l-293 -293h-48v388l-235 -235l-72 72l283 288l-283 288z" />
</svg>
