<?xml version="1.0" standalone="no"?>
<!DOCTYPE svg PUBLIC "-//W3C//DTD SVG 1.1//EN" "http://www.w3.org/Graphics/SVG/1.1/DTD/svg11.dtd" >
<svg xmlns="http://www.w3.org/2000/svg" xmlns:xlink="http://www.w3.org/1999/xlink" version="1.1" width="2048" height="2048" viewBox="-10 0 2068 2048">
   <path fill="currentColor"
d="M1741 1487q-192 0 -364 -58q-63 -19 -106 24l-225 226q-216 -111 -391 -286t-286 -391l226 -225q43 -43 24 -106q-58 -172 -58 -364q0 -43 -28.5 -72t-72.5 -29h-359q-43 0 -72 29t-29 72q0 345 132 666.5t376.5 566t566 376.5t666.5 132q43 0 72 -29t29 -72v-359
q0 -44 -29 -72.5t-72 -28.5zM1535 1026l513 -513l-513 -513v307h-408v412h408v307z" />
</svg>
