<?xml version="1.0" standalone="no"?>
<!DOCTYPE svg PUBLIC "-//W3C//DTD SVG 1.1//EN" "http://www.w3.org/Graphics/SVG/1.1/DTD/svg11.dtd" >
<svg xmlns="http://www.w3.org/2000/svg" xmlns:xlink="http://www.w3.org/1999/xlink" version="1.1" width="2048" height="2048" viewBox="-10 0 2068 2048">
   <path fill="currentColor"
d="M1365 1024h230q0 -155 -77.5 -285.5t-208 -208t-285.5 -77.5v230q144 0 242.5 98.5t98.5 242.5zM1819 1024h229q0 -277 -138.5 -514.5t-373.5 -373.5t-512 -136v229q219 0 400 107t288 288t107 400zM1936 1424q-213 0 -405 -64q-70 -21 -118 27l-250 250
q-240 -122 -435 -317t-317 -435l250 -250q48 -48 27 -118q-64 -192 -64 -405q0 -48 -32 -80t-80 -32h-400q-48 0 -80 32t-32 80q0 384 146.5 741.5t418.5 629.5t629.5 418.5t741.5 146.5q48 0 80 -32t32 -80v-400q0 -48 -32 -80t-80 -32z" />
</svg>
