<?xml version="1.0" standalone="no"?>
<!DOCTYPE svg PUBLIC "-//W3C//DTD SVG 1.1//EN" "http://www.w3.org/Graphics/SVG/1.1/DTD/svg11.dtd" >
<svg xmlns="http://www.w3.org/2000/svg" xmlns:xlink="http://www.w3.org/1999/xlink" version="1.1" width="2048" height="2048" viewBox="-10 0 2058 2048">
   <path fill="currentColor"
d="M1024 1332q-87 0 -147 -60.5t-60 -144.5t60 -144t147 -60t147 60t60 144t-60 144.5t-147 60.5zM510 510q0 -82 60 -142t146.5 -60t146.5 60t60 144t-60 144t-146.5 60t-146.5 -60t-60 -146zM1024 0q-269 0 -509.5 108t-413.5 301l923 1639l923 -1639
q-173 -193 -413.5 -301t-509.5 -108z" />
</svg>
