<?xml version="1.0" standalone="no"?>
<!DOCTYPE svg PUBLIC "-//W3C//DTD SVG 1.1//EN" "http://www.w3.org/Graphics/SVG/1.1/DTD/svg11.dtd" >
<svg xmlns="http://www.w3.org/2000/svg" xmlns:xlink="http://www.w3.org/1999/xlink" version="1.1" width="2048" height="2048" viewBox="-10 0 2058 2048">
   <path fill="currentColor"
d="M767 707q-67 0 -110.5 46t-43.5 109t43.5 109t108.5 46t111 -46t46 -109t-46 -109t-109 -46zM1281 707q-63 0 -109 46t-46 109t46 109t111 46t108.5 -46t43.5 -109t-43.5 -109t-110.5 -46zM1024 190l73 4q67 -63 154.5 -108.5t154.5 -65.5q102 -24 230 -19t220 48
q107 49 131 126q19 87 -46 188.5t-191 174.5q97 126 150 273.5t53 307.5q0 251 -125.5 466.5t-338.5 339t-465 123.5t-465 -123.5t-338.5 -339t-125.5 -466.5q0 -160 53 -307.5t150 -273.5q-126 -73 -191 -174.5t-46 -188.5q24 -77 131 -126q92 -43 220 -48t230 19
q67 20 154.5 65.5t154.5 108.5zM816 1429q43 0 74.5 31t31.5 75t-31.5 73t-75 29t-72.5 -29t-29 -73t29 -75t73 -31zM1232 1429q44 0 73 31t29 75t-29 73t-72.5 29t-75 -29t-31.5 -73t31.5 -75t74.5 -31zM1024 1119q-136 0 -261 72q-112 58 -184.5 157.5t-72.5 184t70.5 155
t189 114t258.5 43.5t258.5 -43.5t189 -114t70.5 -155t-72.5 -184t-184.5 -157.5q-125 -72 -261 -72zM588 219q-29 -5 -183 0l-146 9l121 92q126 92 150 102q54 10 150 5q117 -5 129 -41.5t-90 -99.5q-82 -53 -131 -67zM1460 219q-49 14 -131 67q-102 63 -90 99.5t129 41.5
q96 5 150 -5q24 -10 150 -102l121 -92l-146 -9q-154 -5 -183 0z" />
</svg>
