<?xml version="1.0" standalone="no"?>
<!DOCTYPE svg PUBLIC "-//W3C//DTD SVG 1.1//EN" "http://www.w3.org/Graphics/SVG/1.1/DTD/svg11.dtd" >
<svg xmlns="http://www.w3.org/2000/svg" xmlns:xlink="http://www.w3.org/1999/xlink" version="1.1" width="2048" height="2048" viewBox="-10 0 2068 2048">
   <path fill="currentColor"
d="M1024 202q221 0 411 110.5t300.5 300.5t110.5 411t-110.5 411t-300.5 300.5t-411 110.5t-411 -110.5t-300.5 -300.5t-110.5 -411t110.5 -411t300.5 -300.5t411 -110.5zM1024 0q-279 0 -514.5 137t-372.5 372.5t-137 514.5t137 514.5t372.5 372.5t514.5 137t514.5 -137
t372.5 -372.5t137 -514.5t-137 -514.5t-372.5 -372.5t-514.5 -137zM659 1274l-140 -63q43 -86 43 -184.5t-43 -189.5l140 -63q57 125 57 255q0 115 -57 245zM976 1428l-135 -67q82 -169 82 -346.5t-82 -327.5l135 -76q101 173 101 401t-101 416zM1298 1572l-139 -72
q120 -236 120 -476t-120 -481l139 -67q135 274 135 548t-135 548z" />
</svg>
