<?xml version="1.0" standalone="no"?>
<!DOCTYPE svg PUBLIC "-//W3C//DTD SVG 1.1//EN" "http://www.w3.org/Graphics/SVG/1.1/DTD/svg11.dtd" >
<svg xmlns="http://www.w3.org/2000/svg" xmlns:xlink="http://www.w3.org/1999/xlink" version="1.1" width="2048" height="2048" viewBox="-10 0 2068 2048">
   <path fill="currentColor"
d="M721 2005q154 43 303 43q202 0 392 -77t334 -221t221 -334t77 -392t-77 -392t-221 -334t-334 -221t-392 -77t-392 77t-334 221t-221 334t-77 392q0 322 182.5 584t476.5 373q-24 -193 0 -303l120 -505l-19 -43q-15 -53 -15 -111q0 -106 58 -178t134 -72q63 0 96.5 41
t33.5 103.5t-48 206.5q-33 87 -43 135q-14 77 34 132t125 55q134 0 228 -132t94 -339q0 -183 -120.5 -298t-307.5 -115q-212 0 -342 134q-120 130 -120 308q0 67 19.5 129.5t57.5 106.5q10 9 5 28l-29 116q0 9 -7 14t-22 -5q-96 -43 -154 -163q-52 -111 -52 -231
q0 -168 76.5 -310t225.5 -219q159 -91 371 -91q173 0 317 77t226 211.5t82 305t-67.5 317.5t-187.5 231t-274 84q-72 0 -139.5 -33.5t-91.5 -81.5l-72 245q-29 110 -130 274z" />
</svg>
