<?xml version="1.0" standalone="no"?>
<!DOCTYPE svg PUBLIC "-//W3C//DTD SVG 1.1//EN" "http://www.w3.org/Graphics/SVG/1.1/DTD/svg11.dtd" >
<svg xmlns="http://www.w3.org/2000/svg" xmlns:xlink="http://www.w3.org/1999/xlink" version="1.1" width="2048" height="2048" viewBox="-10 0 2068 2048">
   <path fill="currentColor"
d="M1024 0q202 0 392 77t334 221t221 334t77 392t-77 392t-221 334t-334 221t-392 77t-392 -77t-334 -221t-221 -334t-77 -392t77 -392t221 -334t334 -221t392 -77zM1024 202q-207 0 -384.5 96t-290.5 259.5t-137 365.5h413q38 -135 146.5 -221.5t252.5 -86.5t252.5 86.5
t146.5 221.5h413q-24 -202 -137 -365.5t-290.5 -259.5t-384.5 -96zM1024 1846q207 0 384.5 -96t290.5 -259.5t137 -365.5h-413q-38 135 -146.5 221.5t-252.5 86.5t-252.5 -86.5t-146.5 -221.5h-413q24 202 137 365.5t290.5 259.5t384.5 96zM1024 817q-87 0 -147 60t-60 147
t60 147t147 60t147 -60t60 -147t-60 -147t-147 -60z" />
</svg>
