<?xml version="1.0" standalone="no"?>
<!DOCTYPE svg PUBLIC "-//W3C//DTD SVG 1.1//EN" "http://www.w3.org/Graphics/SVG/1.1/DTD/svg11.dtd" >
<svg xmlns="http://www.w3.org/2000/svg" xmlns:xlink="http://www.w3.org/1999/xlink" version="1.1" width="2048" height="2048" viewBox="-10 0 2069 2048">
   <path fill="currentColor"
d="M2042 1526q-22 -96 -87.5 -170.5t-165.5 -104.5l-40 135q92 26 135.5 113.5t13 179t-115.5 135t-177 13.5l-309 -101l43 -131l310 101l44 -136l-184 -56l-192 -419q-26 -57 -80.5 -87.5t-119.5 -21.5l-197 35l96 -306q22 -65 -8.5 -126t-100.5 -83q-52 -17 -117 9
l-511 218v379l-148 -48l-44 131l367 122l-44 131l-366 -118l-44 131l1562 511q96 30 189.5 8.5t170 -89.5t107.5 -159q30 -109 13 -196zM467 845l179 -79l-96 297q-22 66 13 131l-96 -31v-318zM1165 1683l-624 -201l44 -131l619 201zM790 1268l370 -83l109 240zM1213 256
q0 79 -54.5 133.5t-133 54.5t-133 -54.5t-54.5 -133.5t54.5 -133.5t133 -54.5t133 54.5t54.5 133.5z" />
</svg>
