<?xml version="1.0" standalone="no"?>
<!DOCTYPE svg PUBLIC "-//W3C//DTD SVG 1.1//EN" "http://www.w3.org/Graphics/SVG/1.1/DTD/svg11.dtd" >
<svg xmlns="http://www.w3.org/2000/svg" xmlns:xlink="http://www.w3.org/1999/xlink" version="1.1" width="2048" height="2048" viewBox="-10 0 2058 2048">
   <path fill="currentColor"
d="M1366 682.5q0 -92.5 -46 -171t-125 -124.5t-171 -46t-170.5 46t-124.5 124.5t-46 171t46 171.5t124.5 125t170.5 46t171 -46t125 -125t46 -171.5zM1707 683q0 148 -44 239l-485 1031q-21 44 -63 69.5t-91 25.5t-90.5 -25.5t-61.5 -69.5l-486 -1031q-45 -93 -45 -239
q0 -139 54 -265.5t145.5 -218t218 -145.5t265.5 -54t265.5 54t218 145.5t145.5 218t54 265.5z" />
</svg>
