<?xml version="1.0" standalone="no"?>
<!DOCTYPE svg PUBLIC "-//W3C//DTD SVG 1.1//EN" "http://www.w3.org/Graphics/SVG/1.1/DTD/svg11.dtd" >
<svg xmlns="http://www.w3.org/2000/svg" xmlns:xlink="http://www.w3.org/1999/xlink" version="1.1" width="2048" height="2048" viewBox="-10 0 2068 2048">
   <path fill="currentColor"
d="M510 2048h-231l-19 -5q-24 -9 -44 -33q-24 -39 -33 -97l-183 -1759q0 -67 60 -110.5t144 -43.5t144.5 43.5t60.5 110.5q0 -67 60 -110.5t144 -43.5t144 43.5t60 110.5q0 -67 60 -110.5t147 -43.5t147 43.5t60 110.5q0 -67 60 -110.5t144 -43.5t144 43.5t60 110.5
q0 -67 60.5 -110.5t144.5 -43.5t144 43.5t60 110.5l-183 1759q-14 87 -57 121q-20 14 -39 14h-1259zM1625 298q-24 -43 -74.5 -69.5t-115.5 -26.5t-122.5 26.5t-81.5 64.5l-24 1553h293zM817 293q-24 -38 -81.5 -64.5t-122.5 -26.5t-115.5 26.5t-74.5 69.5l125 1548h293z
" />
</svg>
