<?xml version="1.0" standalone="no"?>
<!DOCTYPE svg PUBLIC "-//W3C//DTD SVG 1.1//EN" "http://www.w3.org/Graphics/SVG/1.1/DTD/svg11.dtd" >
<svg xmlns="http://www.w3.org/2000/svg" xmlns:xlink="http://www.w3.org/1999/xlink" version="1.1" width="2048" height="2048" viewBox="-10 0 2068 2048">
   <path fill="currentColor"
d="M0 229q0 -96 66.5 -162.5t162.5 -66.5h1590q96 0 162.5 66.5t66.5 162.5v1590q0 96 -66.5 162.5t-162.5 66.5h-1590q-96 0 -162.5 -66.5t-66.5 -162.5v-1590zM453 1707h230l37 -230h459l-43 230h229l38 -230h229l43 -224h-230l80 -458h230l37 -224h-224l37 -230h-224
l-42 230h-454l38 -230h-224l-43 230h-229l-38 224h224l-80 458h-224l-42 224h229zM843 795h453l-80 458h-453z" />
</svg>
