<?xml version="1.0" standalone="no"?>
<!DOCTYPE svg PUBLIC "-//W3C//DTD SVG 1.1//EN" "http://www.w3.org/Graphics/SVG/1.1/DTD/svg11.dtd" >
<svg xmlns="http://www.w3.org/2000/svg" xmlns:xlink="http://www.w3.org/1999/xlink" version="1.1" width="2048" height="2048" viewBox="-10 0 2068 2048">
   <path fill="currentColor"
d="M389 489q0 -164 114 -278.5t276.5 -114.5t276.5 114.5t114 276.5t-114 276.5t-276.5 114.5t-276.5 -114.5t-114 -274.5zM695 1632l-28 -73l28 -73q100 -247 338 -393q-123 -19 -256 -19q-210 0 -388.5 52.5t-283.5 142t-105 194.5v196h709zM1463 1463q-41 0 -71 27.5
t-30 68.5t30 70.5t71 29.5t68.5 -29.5t27.5 -70.5t-27.5 -68.5t-68.5 -27.5zM2048 1559q-73 174 -231 283.5t-354.5 109.5t-356.5 -109.5t-228 -283.5q68 -174 228 -281.5t356.5 -107.5t354.5 107.5t231 281.5zM1705 1559q0 -101 -71 -171.5t-171.5 -70.5t-173.5 70.5
t-73 171t73 174t173.5 73.5t171.5 -73.5t71 -173.5z" />
</svg>
