<?xml version="1.0" standalone="no"?>
<!DOCTYPE svg PUBLIC "-//W3C//DTD SVG 1.1//EN" "http://www.w3.org/Graphics/SVG/1.1/DTD/svg11.dtd" >
<svg xmlns="http://www.w3.org/2000/svg" xmlns:xlink="http://www.w3.org/1999/xlink" version="1.1" width="2048" height="2048" viewBox="-10 0 2058 2048">
   <path fill="currentColor"
d="M1947 1486q0 62 -53 91l-812 452q-24 19 -58 19t-58 -19l-812 -452q-53 -29 -53 -91v-924q0 -62 53 -91l812 -452q24 -19 58 -19t58 19l812 452q53 29 53 91v924zM308 716v616h125v-207h77q86 0 146 -60t60 -144t-60 -144.5t-146 -60.5h-202zM433 1024v-207h53
q43 0 72 31.5t29 74.5t-29 72t-72 29h-53zM793 716v616h130v-207h77l67 207h135l-82 -246q82 -62 82 -163q0 -86 -60 -146.5t-142 -60.5h-207zM923 1024v-207h48q43 0 74.5 31.5t31.5 74.5t-31.5 72t-74.5 29h-48zM1538 716q-105 0 -182 89t-77 219t77 219t182.5 89t180 -89
t74.5 -219t-74.5 -219t-180.5 -89zM1538 846q58 0 99 53t41 125t-41 125t-98.5 53t-101 -50.5t-43.5 -127.5t43.5 -127.5t100.5 -50.5z" />
</svg>
