<?xml version="1.0" standalone="no"?>
<!DOCTYPE svg PUBLIC "-//W3C//DTD SVG 1.1//EN" "http://www.w3.org/Graphics/SVG/1.1/DTD/svg11.dtd" >
<svg xmlns="http://www.w3.org/2000/svg" xmlns:xlink="http://www.w3.org/1999/xlink" version="1.1" width="2048" height="2048" viewBox="-10 0 2058 2048">
   <path fill="currentColor"
d="M50 197h777q0 -83 57.5 -140t139.5 -57t139.5 57t57.5 140h777v196h-96v1070h-563l174 585h-196l-170 -585h-246l-170 585h-196l174 -585h-563v-1070h-96v-196zM343 393v878h1362v-878h-1362zM1010 1061q-13 13 -34 13t-34.5 -13.5t-13.5 -36.5v-389q0 -18 13.5 -34
t34.5 -16t34 18l137 133q28 32 42 46q18 27 18 47.5t-18 48.5q-14 13 -42 45z" />
</svg>
