<?xml version="1.0" standalone="no"?>
<!DOCTYPE svg PUBLIC "-//W3C//DTD SVG 1.1//EN" "http://www.w3.org/Graphics/SVG/1.1/DTD/svg11.dtd" >
<svg xmlns="http://www.w3.org/2000/svg" xmlns:xlink="http://www.w3.org/1999/xlink" version="1.1" width="2048" height="2048" viewBox="-10 0 2068 2048">
   <path fill="currentColor"
d="M418 0q175 0 297 122t122 296q0 122 -61 227l8 9h480l8 -9q-61 -105 -61 -227q0 -174 122 -296t296.5 -122t296.5 122t122 296.5t-122 296.5t-296 122q-122 0 -227 -61l-100 100v296l100 100q105 -61 227 -61q174 0 296 122t122 296.5t-122 296.5t-296.5 122t-296.5 -122
t-122 -296q0 -122 61 -227l-8 -9h-480l-8 9q61 105 61 227q0 174 -122 296t-296.5 122t-296.5 -122t-122 -296.5t122 -296.5t296 -122q122 0 227 61l100 -100v-296l-100 -100q-105 61 -227 61q-174 0 -296 -122t-122 -296.5t122 -296.5t296 -122zM418 187q-96 0 -163.5 67.5
t-67.5 163.5t67.5 166t163.5 70t166 -70t70 -166t-70 -163.5t-166 -67.5zM418 1394q-96 0 -163.5 70t-67.5 166t67.5 163.5t163.5 67.5t166 -67.5t70 -163.5t-70 -166t-166 -70zM1630 187q-96 0 -166 67.5t-70 163.5t70 166t166 70t163.5 -70t67.5 -166t-67.5 -163.5
t-163.5 -67.5zM1630 1394q-96 0 -166 70t-70 166t70 163.5t166 67.5t163.5 -67.5t67.5 -163.5t-67.5 -166t-163.5 -70zM270 1512l109 61q18 -13 44 -13t45.5 19.5t19.5 50.5v8l105 61l-27 44l-104 -61q-18 17 -44 17t-47.5 -21.5t-21.5 -47.5l4 -9l-109 -61zM244 488
l109 -61l-4 -9q0 -26 21.5 -47.5t47.5 -21.5t44 17l104 -61l27 44l-105 61v8q0 31 -19.5 50.5t-45.5 19.5t-44 -13l-109 61zM1482 305l104 61q18 -17 44 -17t47.5 21.5t21.5 47.5l-4 9l109 61l-26 48l-109 -61q-18 13 -44 13t-45.5 -19.5t-19.5 -50.5v-8l-105 -61z
M1455 1699l105 -69q0 -31 19.5 -50.5t45.5 -19.5t44 13l109 -61l26 48l-105 70q0 26 -21.5 47.5t-47.5 21.5t-44 -17l-104 61z" />
</svg>
