<?xml version="1.0" standalone="no"?>
<!DOCTYPE svg PUBLIC "-//W3C//DTD SVG 1.1//EN" "http://www.w3.org/Graphics/SVG/1.1/DTD/svg11.dtd" >
<svg xmlns="http://www.w3.org/2000/svg" xmlns:xlink="http://www.w3.org/1999/xlink" version="1.1" width="2048" height="2048" viewBox="-10 0 2068 2048">
   <path fill="currentColor"
d="M611 101l-149 226l149 226l-207 317l-178 -91l144 -226l-144 -226l207 -317zM1226 91l-149 226l149 226l-207 318l-178 -92l145 -226l-145 -226l207 -317zM1846 91l-149 226l149 226l-207 318l-178 -92l145 -226l-145 -226l202 -317zM0 2048v-817q0 -87 60 -147t142 -60
h1644q82 0 142 60t60 147v817h-202v-202h-1644v202h-202zM409 1231q-44 0 -72.5 28.5t-28.5 72.5v206q0 44 28.5 72.5t72 28.5t72.5 -28.5t29 -72.5v-206q0 -44 -29 -72.5t-72 -28.5zM817 1231q-43 0 -72 28.5t-29 72.5v206q0 44 29 72.5t72.5 28.5t74.5 -28.5t31 -72.5
v-206q0 -44 -31 -72.5t-75 -28.5zM1231 1231q-44 0 -75 28.5t-31 72.5v206q0 44 31 72.5t74.5 28.5t72.5 -28.5t29 -72.5v-206q0 -44 -29 -72.5t-72 -28.5zM1639 1231q-43 0 -72 28.5t-29 72.5v206q0 44 29 72.5t72.5 28.5t72 -28.5t28.5 -72.5v-206q0 -44 -28.5 -72.5
t-72.5 -28.5z" />
</svg>
