<?xml version="1.0" standalone="no"?>
<!DOCTYPE svg PUBLIC "-//W3C//DTD SVG 1.1//EN" "http://www.w3.org/Graphics/SVG/1.1/DTD/svg11.dtd" >
<svg xmlns="http://www.w3.org/2000/svg" xmlns:xlink="http://www.w3.org/1999/xlink" version="1.1" width="2048" height="2048" viewBox="-10 0 2068 2048">
   <path fill="currentColor"
d="M1846 562h202v202h-202v-202zM202 255h1644q82 0 142 60t60 142h-308v206h-1432v409h307v308h1125v106h308q0 81 -60 141t-142 60h-413v106h-202v-106h-308v106h-413v-106h-308q-82 0 -142 -60t-60 -141v-1029q0 -82 60 -142t142 -60zM1740 1279h-1024v-515h1024v106h308
v202h-308v207zM1125 971v207h207v-207h-207zM308 356v206h101v-206h-101zM510 356v206h105v-206h-105zM716 356v206h101v-206h-101zM923 356v206h101v-206h-101zM1125 356v206h106v-206h-106zM1332 356v206h101v-206h-101zM1846 1178h202v202h-202v-202z" />
</svg>
