<?xml version="1.0" standalone="no"?>
<!DOCTYPE svg PUBLIC "-//W3C//DTD SVG 1.1//EN" "http://www.w3.org/Graphics/SVG/1.1/DTD/svg11.dtd" >
<svg xmlns="http://www.w3.org/2000/svg" xmlns:xlink="http://www.w3.org/1999/xlink" version="1.1" width="2048" height="2048" viewBox="-10 0 2068 2048">
   <path fill="currentColor"
d="M0 912h229v224h-229v-224zM912 229h224v454h-224v-454zM683 912h453v453h-224v-229h-229v-224zM1365 912h230v224h224v-224h229v224h-229v229h229v454h-229v229h-224v-229h-459v229h-224v-453h453v-230h230v-229h-230v-224zM1819 1819v-454h-224v454h224zM1365 0h683v683
h-683v-683zM1595 229v224h224v-224h-224zM0 0h683v683h-683v-683zM229 229v224h224v-224h-224zM0 1365h683v683h-683v-683zM229 1595v224h224v-224h-224z" />
</svg>
