<?xml version="1.0" standalone="no"?>
<!DOCTYPE svg PUBLIC "-//W3C//DTD SVG 1.1//EN" "http://www.w3.org/Graphics/SVG/1.1/DTD/svg11.dtd" >
<svg xmlns="http://www.w3.org/2000/svg" xmlns:xlink="http://www.w3.org/1999/xlink" version="1.1" width="2048" height="2048" viewBox="-10 0 2068 2048">
   <path fill="currentColor"
d="M1750 298l-144 144q110 116 175 265t65 317q0 221 -110.5 411t-300.5 300.5t-411 110.5t-411 -110.5t-300.5 -300.5t-110.5 -411q0 -207 96 -382.5t259.5 -290.5t365.5 -139v206q-221 39 -367.5 209.5t-146.5 396.5q0 168 81.5 310t223.5 223.5t310 81.5t310 -81.5
t223.5 -223.5t81.5 -310q0 -125 -48 -238t-134 -195l-145 145q121 120 121 288t-120.5 288.5t-288.5 120.5t-288.5 -120.5t-120.5 -288.5q0 -139 86.5 -250t221.5 -144v216q-48 29 -77 74.5t-29 103.5q0 87 60 147t147 60t147 -60t60 -147q0 -58 -29 -103.5t-77 -74.5v-846
h-101q-202 0 -392 77t-334 221t-221 334t-77 392t77 392t221 334t334 221t392 77t392 -77t334 -221t221 -334t77 -394.5t-79.5 -392t-218.5 -331.5z" />
</svg>
