<?xml version="1.0" standalone="no"?>
<!DOCTYPE svg PUBLIC "-//W3C//DTD SVG 1.1//EN" "http://www.w3.org/Graphics/SVG/1.1/DTD/svg11.dtd" >
<svg xmlns="http://www.w3.org/2000/svg" xmlns:xlink="http://www.w3.org/1999/xlink" version="1.1" width="2048" height="2048" viewBox="-10 0 2058 2048">
   <path fill="currentColor"
d="M1024 1513q0 -50 -28 -96q-1 -1 -21.5 -31t-35.5 -53t-34 -61t-30 -70q-5 -22 -29 -22t-29 22q-10 32 -29.5 70t-34.5 61.5t-35.5 52.5t-22.5 31q-27 44 -27 96q0 74 52 126t126 52t126 -52t52 -126zM1736 1336q0 145 -56.5 276.5t-151.5 227t-227 152t-277 56.5
t-277 -56.5t-227 -152t-151.5 -227t-56.5 -276.5q0 -202 113 -383q12 -19 64.5 -93.5t104 -153t113 -180t114.5 -216.5t85 -221q13 -42 47 -65.5t71 -23.5t71.5 23.5t46.5 65.5q32 106 85.5 221t114.5 216.5t113 180.5t104.5 153t64.5 93q112 176 112 383z" />
</svg>
