<?xml version="1.0" standalone="no"?>
<!DOCTYPE svg PUBLIC "-//W3C//DTD SVG 1.1//EN" "http://www.w3.org/Graphics/SVG/1.1/DTD/svg11.dtd" >
<svg xmlns="http://www.w3.org/2000/svg" xmlns:xlink="http://www.w3.org/1999/xlink" version="1.1" width="2048" height="2048" viewBox="-10 0 2068 2048">
   <path fill="currentColor"
d="M340 340h512v512h-512v-512zM1708 340v512h-512v-512h512zM1196 1280h168v-172h-168v-168h168v168h172v-168h172v168h-172v172h172v256h-172v172h-172v-172h-256v172h-168v-344h256v-84zM1364 1280v256h172v-256h-172zM340 1708v-512h512v512h-512zM512 512v172h172v-172
h-172zM1364 512v172h172v-172h-172zM512 1364v172h172v-172h-172zM340 940h172v168h-172v-168zM768 940h340v340h-168v-172h-172v-168zM940 512h168v340h-168v-340zM172 172v340h-172v-340q0 -72 50 -122t122 -50h340v172h-340zM1876 0q72 0 122 50t50 122v340h-172v-340
h-340v-172h340zM172 1536v340h340v172h-340q-72 0 -122 -50t-50 -122v-340h172zM1876 1876v-340h172v340q0 72 -50 122t-122 50h-340v-172h340z" />
</svg>
