<?xml version="1.0" standalone="no"?>
<!DOCTYPE svg PUBLIC "-//W3C//DTD SVG 1.1//EN" "http://www.w3.org/Graphics/SVG/1.1/DTD/svg11.dtd" >
<svg xmlns="http://www.w3.org/2000/svg" xmlns:xlink="http://www.w3.org/1999/xlink" version="1.1" width="2048" height="2048" viewBox="-10 0 2058 2048">
   <path fill="currentColor"
d="M1806 489q77 0 134.5 57t57.5 140v1170q0 78 -57.5 135t-134.5 57h-1564q-77 0 -134.5 -57t-57.5 -135v-1170q0 -64 34.5 -114.5t89.5 -68.5l1211 -503l73 178l-745 311h1093zM1806 686h-1564v388h1171v-196h196v196h197v-388zM535 1271q-119 0 -206 84.5t-87 205.5
t87 208t208 87t205.5 -87t84.5 -208t-84.5 -205.5t-207.5 -84.5z" />
</svg>
