<?xml version="1.0" standalone="no"?>
<!DOCTYPE svg PUBLIC "-//W3C//DTD SVG 1.1//EN" "http://www.w3.org/Graphics/SVG/1.1/DTD/svg11.dtd" >
<svg xmlns="http://www.w3.org/2000/svg" xmlns:xlink="http://www.w3.org/1999/xlink" version="1.1" width="2048" height="2048" viewBox="-10 0 2068 2048">
   <path fill="currentColor"
d="M1020 1502l132 -134l-173 -175l-134 134v64h110v111h65zM1525 674.5q-8 -7.5 -19 -7t-19 8.5l-402 402q-8 7 -8 18.5t7.5 19t19 7t18.5 -7.5l402 -402q8 -8 8.5 -19.5t-7.5 -19zM1616 1357v218q0 90 -44 166t-120 120.5t-166 44.5h-955q-90 0 -166.5 -44.5t-120.5 -120.5
t-44 -166v-955q0 -90 44 -166.5t120.5 -120.5t166.5 -44h955q72 0 135 28q16 8 20 27q3 20 -10 33l-57 57q-16 17 -37 9q-24 -7 -51 -7h-955q-77 0 -130.5 53.5t-53.5 130.5v955q0 76 53.5 130t130.5 54h955q76 0 130 -54t54 -130v-145q0 -15 10 -25l73 -73q18 -18 40 -8
q23 10 23 33zM1506 509l332 331l-772 771h-332v-330zM2016 661l-105 105l-331 -330l106 -106q31 -31 77.5 -31t78.5 31l174 175q32 32 32 78t-32 78z" />
</svg>
