<?xml version="1.0" standalone="no"?>
<!DOCTYPE svg PUBLIC "-//W3C//DTD SVG 1.1//EN" "http://www.w3.org/Graphics/SVG/1.1/DTD/svg11.dtd" >
<svg xmlns="http://www.w3.org/2000/svg" xmlns:xlink="http://www.w3.org/1999/xlink" version="1.1" width="2048" height="2048" viewBox="-10 0 2068 2048">
   <path fill="currentColor"
d="M139 257h1770q56 0 97.5 39.5t41.5 100.5v1067q0 61 -41.5 100.5t-97.5 39.5h-1770q-56 0 -97.5 -39.5t-41.5 -100.5v-1067q0 -61 41.5 -100.5t97.5 -39.5zM810 627v606l532 -305zM1512 1791h-985q-22 0 -35 -13t-13 -32.5t13 -33t35 -13.5h994q22 0 35 13.5t13 33
t-17.5 32.5t-39.5 13z" />
</svg>
