<?xml version="1.0" standalone="no"?>
<!DOCTYPE svg PUBLIC "-//W3C//DTD SVG 1.1//EN" "http://www.w3.org/Graphics/SVG/1.1/DTD/svg11.dtd" >
<svg xmlns="http://www.w3.org/2000/svg" xmlns:xlink="http://www.w3.org/1999/xlink" version="1.1" width="2048" height="2048" viewBox="-10 0 2068 2048">
   <path fill="currentColor"
d="M1279 1375q9 5 9 17t-9 21q-48 48 -140 68q-57 9 -115 9t-115 -9q-92 -20 -135 -68q-10 -9 -10 -21t7.5 -19.5t19.5 -7.5t21 10q29 29 97 48q53 10 115 10t115 -10q68 -19 101 -48q20 -19 39 0zM894 1130q0 -44 -31 -75t-74.5 -31t-74.5 31t-31 74.5t31 77t74.5 31.5
t74.5 -33.5t31 -74.5zM1260 1024q-44 0 -75 33.5t-31 74.5t31 74.5t74.5 33.5t74.5 -33.5t31 -74.5t-31 -74.5t-74 -33.5zM2048 1024q0 279 -137 514.5t-372.5 372.5t-514.5 137t-514.5 -137t-372.5 -372.5t-137 -514.5t137 -514.5t372.5 -372.5t514.5 -137t514.5 137
t372.5 372.5t137 514.5zM1707 1024q0 -62 -43.5 -105.5t-103.5 -43.5t-103 43q-164 -120 -404 -130l72 -322l221 48q0 44 31.5 75t74.5 31t74.5 -33.5t31.5 -77t-31.5 -74.5t-74.5 -31q-29 0 -55.5 16.5t-40.5 45.5l-250 -53q-5 -4 -14.5 3t-14.5 17l-72 355
q-241 10 -409 130q-43 -43 -105.5 -43t-106 43.5t-43.5 105.5q0 48 24 84t63 55v44q0 110 79.5 206.5t216.5 154t300 57.5t300 -57.5t219 -151.5t82 -209q0 -24 -5 -44q39 -19 63 -57.5t24 -81.5z" />
</svg>
