<?xml version="1.0" standalone="no"?>
<!DOCTYPE svg PUBLIC "-//W3C//DTD SVG 1.1//EN" "http://www.w3.org/Graphics/SVG/1.1/DTD/svg11.dtd" >
<svg xmlns="http://www.w3.org/2000/svg" xmlns:xlink="http://www.w3.org/1999/xlink" version="1.1" width="2048" height="2048" viewBox="-10 0 2068 2048">
   <path fill="currentColor"
d="M1846 1639h-1644v-1230h1644v1230zM1846 202h-1644q-82 0 -142 60t-60 147v1230q0 87 60 147t142 60h1644q82 0 142 -60t60 -147v-1230q0 -87 -60 -147t-142 -60zM1024 817h-207v207h207v-207zM615 817h-206v207h206v-207zM1433 1231h-202v202h202v-202zM1433 817h-202
v207h202v-207z" />
</svg>
