<?xml version="1.0" standalone="no"?>
<!DOCTYPE svg PUBLIC "-//W3C//DTD SVG 1.1//EN" "http://www.w3.org/Graphics/SVG/1.1/DTD/svg11.dtd" >
<svg xmlns="http://www.w3.org/2000/svg" xmlns:xlink="http://www.w3.org/1999/xlink" version="1.1" width="2048" height="2048" viewBox="-10 0 2068 2048">
   <path fill="currentColor"
d="M1405 1525q-66 13 -126 13t-126 -13v-450l-324 318q-96 -78 -174 -180l318 -318h-450q-13 -66 -13 -126t13 -132h450l-318 -319q42 -60 84 -96q30 -36 90 -84l324 318v-450q66 -6 126 -6t126 6v450l325 -318q96 78 174 180l-318 319h450q12 72 12 132t-12 126h-450
l318 318q-42 60 -84 96q-30 36 -90 84l-325 -318v450zM0 1790q0 -102 75 -177t180 -75t180 75t75 180t-75 180t-180 75t-180 -75t-75 -183z" />
</svg>
