<?xml version="1.0" standalone="no"?>
<!DOCTYPE svg PUBLIC "-//W3C//DTD SVG 1.1//EN" "http://www.w3.org/Graphics/SVG/1.1/DTD/svg11.dtd" >
<svg xmlns="http://www.w3.org/2000/svg" xmlns:xlink="http://www.w3.org/1999/xlink" version="1.1" width="2048" height="2048" viewBox="-10 0 2058 2048">
   <path fill="currentColor"
d="M1685 1278v297q0 90 -44 166t-120 120.5t-166 44.5h-956q-90 0 -166 -44.5t-120 -120.5t-44 -166v-955q0 -90 44 -166.5t120 -120.5t166 -44h294v0q14 0 25 10.5t11 25.5q0 14 -9 24.5t-21 12.5q-85 29 -153 70q-12 4 -18 4h-129q-76 0 -130 53.5t-54 130.5v955
q0 76 54 130t130 54h956q76 0 130 -54t54 -130v-246q0 -23 20 -33q32 -15 62 -43q18 -18 40 -9q24 11 24 34zM1957 708l-441 441q-20 22 -51 22q-11 0 -29 -6q-20 -8 -32 -27t-12 -41v-220h-184q-189 0 -312.5 37t-190.5 113q-70 80 -90.5 212.5t5.5 330.5q2 12 -4.5 23
t-18.5 16q-10 2 -14 2q-19 0 -30 -14q-8 -11 -23.5 -34.5t-46.5 -80t-56 -114t-44.5 -132.5t-19.5 -139q0 -56 4 -104t16.5 -103t32.5 -101.5t53.5 -94t78 -85t109 -70.5t143 -55.5t182.5 -35t226 -12.5h184v-220q0 -23 12 -41.5t32 -27.5q15 -5 29 -5q30 0 51 21l441 441
q22 22 22 52t-22 52z" />
</svg>
