<?xml version="1.0" standalone="no"?>
<!DOCTYPE svg PUBLIC "-//W3C//DTD SVG 1.1//EN" "http://www.w3.org/Graphics/SVG/1.1/DTD/svg11.dtd" >
<svg xmlns="http://www.w3.org/2000/svg" xmlns:xlink="http://www.w3.org/1999/xlink" version="1.1" width="2048" height="2048" viewBox="-10 0 2068 2048">
   <path fill="currentColor"
d="M1103 1191l96 -92q-5 -102 51 -215.5t155 -212.5t212.5 -152.5t212.5 -53.5t157 60.5t60.5 160t-53 213t-154.5 212.5t-212.5 152.5t-210.5 53.5l-92 91q-29 25 -63 29.5t-68 -14.5q-72 24 -120 53q-59 39 -88 87.5t-58 164.5t-58 164q-77 116 -295 116q-120 0 -193 -24
q-111 -39 -184 -140l257 43q48 5 140 -38.5t130 -101.5q29 -48 58 -166.5t54 -162.5q33 -53 101 -92q48 -29 136 -58q0 -48 29 -77zM513 40q140 0 258.5 67.5t188.5 186t70 259t-70 259t-188.5 188.5t-259 70t-259 -70t-186 -188.5t-67.5 -259t67.5 -259t186 -186
t259.5 -67.5zM513 243q-126 0 -218 92t-92 220t92 217.5t220 89.5t217.5 -89.5t89.5 -217.5t-89.5 -220t-219.5 -92z" />
</svg>
