<?xml version="1.0" standalone="no"?>
<!DOCTYPE svg PUBLIC "-//W3C//DTD SVG 1.1//EN" "http://www.w3.org/Graphics/SVG/1.1/DTD/svg11.dtd" >
<svg xmlns="http://www.w3.org/2000/svg" xmlns:xlink="http://www.w3.org/1999/xlink" version="1.1" width="2048" height="2048" viewBox="-10 0 2068 2048">
   <path fill="currentColor"
d="M1749 299q-144 -137 -329.5 -218t-395.5 -81q-275 0 -512 137.5t-374.5 374.5t-137.5 512t137.5 512t374.5 374.5t512 137.5q353 0 625.5 -215.5t362.5 -551.5h-263q-84 222 -281.5 366t-443.5 144q-210 0 -386.5 -102t-278.5 -278.5t-102 -386.5t102 -386.5
t278.5 -278.5t386.5 -102q156 0 293.5 60t245.5 168l-413 413h898v-898z" />
</svg>
