<?xml version="1.0" standalone="no"?>
<!DOCTYPE svg PUBLIC "-//W3C//DTD SVG 1.1//EN" "http://www.w3.org/Graphics/SVG/1.1/DTD/svg11.dtd" >
<svg xmlns="http://www.w3.org/2000/svg" xmlns:xlink="http://www.w3.org/1999/xlink" version="1.1" width="2048" height="2048" viewBox="-10 0 2058 2048">
   <path fill="currentColor"
d="M1556 1571l157 147q147 -187 173 -420h-218q-26 147 -112 273zM1136 1830v218q238 -30 425 -172l-157 -158q-121 87 -268 112zM1886 1085q-26 -233 -173 -421l-157 152q86 122 112 269h218zM1414 492l-491 -492v335q-213 25 -385.5 146.5t-274 306.5t-101.5 403
t101.5 403t274 307t385.5 147v-218q-234 -41 -388.5 -220.5t-154.5 -418t154.5 -418.5t388.5 -220v420z" />
</svg>
