<?xml version="1.0" standalone="no"?>
<!DOCTYPE svg PUBLIC "-//W3C//DTD SVG 1.1//EN" "http://www.w3.org/Graphics/SVG/1.1/DTD/svg11.dtd" >
<svg xmlns="http://www.w3.org/2000/svg" xmlns:xlink="http://www.w3.org/1999/xlink" version="1.1" width="2048" height="2048" viewBox="-10 0 2058 2048">
   <path fill="currentColor"
d="M1686 1209v366q0 90 -44.5 166t-120.5 120.5t-166 44.5h-955q-90 0 -166 -44.5t-120.5 -120.5t-44.5 -166v-955q0 -90 44.5 -166.5t120.5 -120.5t166 -44h955q73 0 135 28q16 8 20 27q3 20 -10 33l-56 57q-11 11 -27 11q-5 0 -11 -2q-24 -7 -51 -7h-955q-76 0 -130 53.5
t-54 130.5v955q0 76 54 130t130 54h955q76 0 130 -54t54 -130v-291q0 -16 10 -27l73 -73q11 -11 28 -11q5 0 13 3q23 10 23 33zM1951 649l-934 934q-28 28 -65.5 28t-65.5 -28l-494 -494q-28 -28 -28 -65.5t28 -65.5l126 -126q28 -28 65.5 -28t65.5 28l302 302l743 -743
q28 -27 65 -27t65 27l127 126q28 28 28 66t-28 66z" />
</svg>
