<?xml version="1.0" standalone="no"?>
<!DOCTYPE svg PUBLIC "-//W3C//DTD SVG 1.1//EN" "http://www.w3.org/Graphics/SVG/1.1/DTD/svg11.dtd" >
<svg xmlns="http://www.w3.org/2000/svg" xmlns:xlink="http://www.w3.org/1999/xlink" version="1.1" width="2048" height="2048" viewBox="-10 0 2058 2048">
   <path fill="currentColor"
d="M1125 335v-335l-491 492l491 481v-420q234 40 388.5 220t154.5 418.5t-154.5 418t-388.5 220.5v218q213 -25 385.5 -147t274 -307t101.5 -403t-101.5 -403t-274 -306.5t-385.5 -146.5zM487 1876q187 147 425 172v-218q-147 -25 -268 -112zM380 1298h-218q26 233 173 420
l152 -152q-87 -126 -107 -268zM492 816l-152 -152q-152 188 -178 421h218q20 -147 112 -269z" />
</svg>
