<?xml version="1.0" standalone="no"?>
<!DOCTYPE svg PUBLIC "-//W3C//DTD SVG 1.1//EN" "http://www.w3.org/Graphics/SVG/1.1/DTD/svg11.dtd" >
<svg xmlns="http://www.w3.org/2000/svg" xmlns:xlink="http://www.w3.org/1999/xlink" version="1.1" width="2048" height="2048" viewBox="-10 0 2058 2048">
   <path fill="currentColor"
d="M1846 2048l-399 -159q106 -230 159 -480zM601 1889l-399 159l240 -639q53 250 159 480zM1024 0q29 14 53 24q67 43 130 101q81 77 149 183q81 129 130 293q52 192 52 423q0 413 -173 803q-24 58 -74.5 89t-112.5 31h-308q-62 0 -112.5 -31t-74.5 -89q-173 -390 -173 -803
q0 -365 134 -630q96 -192 245 -312q77 -63 135 -82zM1024 1024q87 0 147 -60t60 -144t-60 -144.5t-147 -60.5t-147 60.5t-60 144.5t60 144t147 60z" />
</svg>
