<?xml version="1.0" standalone="no"?>
<!DOCTYPE svg PUBLIC "-//W3C//DTD SVG 1.1//EN" "http://www.w3.org/Graphics/SVG/1.1/DTD/svg11.dtd" >
<svg xmlns="http://www.w3.org/2000/svg" xmlns:xlink="http://www.w3.org/1999/xlink" version="1.1" width="2048" height="2048" viewBox="-10 0 2058 2048">
   <path fill="currentColor"
d="M1158 1745l303 303l134 -138l-303 -299zM1363 1004h-4l-335 335l-339 -335q-63 -67 -100.5 -154t-37.5 -181q0 -129 64.5 -238.5t174 -174t238.5 -64.5t238.5 64.5t174 174t64.5 238.5q0 94 -37.5 181t-100.5 154zM1492 1142q94 -89 145.5 -211.5t51.5 -261.5
q0 -183 -89.5 -334.5t-241 -243t-334.5 -91.5t-334.5 91.5t-241 243t-89.5 334.5q0 134 51.5 259t145.5 214l334 335l-437 433l134 138z" />
</svg>
