<?xml version="1.0" standalone="no"?>
<!DOCTYPE svg PUBLIC "-//W3C//DTD SVG 1.1//EN" "http://www.w3.org/Graphics/SVG/1.1/DTD/svg11.dtd" >
<svg xmlns="http://www.w3.org/2000/svg" xmlns:xlink="http://www.w3.org/1999/xlink" version="1.1" width="2048" height="2048" viewBox="-10 0 2058 2048">
   <path fill="currentColor"
d="M242 101h293q82 0 139 57t57 135v1563q0 78 -57 135t-139 57h-293q-77 0 -134.5 -57t-57.5 -135v-1563q0 -78 57.5 -135t134.5 -57zM1806 1367q77 0 134.5 57t57.5 139v293q0 78 -57.5 135t-134.5 57h-878v-681h878zM1221 293q210 0 388 105t283.5 285.5t105.5 390.5
l-5 96h-196l9 -96q0 -160 -80 -294.5t-215 -212.5t-290 -78v293l-394 -389l394 -393v293z" />
</svg>
