<?xml version="1.0" standalone="no"?>
<!DOCTYPE svg PUBLIC "-//W3C//DTD SVG 1.1//EN" "http://www.w3.org/Graphics/SVG/1.1/DTD/svg11.dtd" >
<svg xmlns="http://www.w3.org/2000/svg" xmlns:xlink="http://www.w3.org/1999/xlink" version="1.1" width="2048" height="2048" viewBox="-10 0 2058 2048">
   <path fill="currentColor"
d="M1627 195l56 349l318 161l-161 319l161 319l-323 161l-55 349l-353 -56l-250 251l-251 -255l-348 60l-60 -353l-314 -162l161 -318l-161 -315l318 -161l56 -349l352 60l251 -255l251 251zM799 569q-60 0 -98 40.5t-38 98t38 95.5t95.5 38t98 -38t40.5 -95.5t-40.5 -98
t-95.5 -40.5zM1249 1207q-55 0 -95.5 38t-40.5 95.5t40.5 98t98 40.5t95.5 -40.5t38 -98t-38 -95.5t-98 -38zM697 1479l782 -782l-128 -128l-782 782z" />
</svg>
