<?xml version="1.0" standalone="no"?>
<!DOCTYPE svg PUBLIC "-//W3C//DTD SVG 1.1//EN" "http://www.w3.org/Graphics/SVG/1.1/DTD/svg11.dtd" >
<svg xmlns="http://www.w3.org/2000/svg" xmlns:xlink="http://www.w3.org/1999/xlink" version="1.1" width="2048" height="2048" viewBox="-10 0 2058 2048">
   <path fill="currentColor"
d="M1024 308q250 0 461.5 81.5t336.5 223.5t125 310q0 125 -74.5 238t-204.5 200q178 -140 178 -323q0 -144 -110.5 -264t-300.5 -192t-411 -72v307l-409 -408l409 -409v308zM1024 1740q-250 0 -461.5 -81.5t-336.5 -223.5t-125 -310q0 -125 74.5 -238t204.5 -200
q-178 140 -178 323q0 144 110.5 264t300.5 192t411 72v-307l409 408l-409 409v-308z" />
</svg>
