<?xml version="1.0" standalone="no"?>
<!DOCTYPE svg PUBLIC "-//W3C//DTD SVG 1.1//EN" "http://www.w3.org/Graphics/SVG/1.1/DTD/svg11.dtd" >
<svg xmlns="http://www.w3.org/2000/svg" xmlns:xlink="http://www.w3.org/1999/xlink" version="1.1" width="2048" height="2048" viewBox="-10 0 2068 2048">
   <path fill="currentColor"
d="M229 0h1590q96 0 162.5 66.5t66.5 162.5v1590q0 96 -66.5 162.5t-162.5 66.5h-1590q-96 0 -162.5 -66.5t-66.5 -162.5v-1590q0 -96 66.5 -162.5t162.5 -66.5zM512 1365q-69 0 -120 51t-51 120t51 120t120 51t120 -51t51 -120t-51 -120t-120 -51zM341 795v229
q187 0 344.5 90.5t248 248t90.5 344.5h229q0 -246 -122.5 -456.5t-333 -333t-456.5 -122.5zM341 341v230q224 0 435 85t371 245t245 371t85 435h230q0 -374 -184 -686t-496 -496t-686 -184z" />
</svg>
