<?xml version="1.0" standalone="no"?>
<!DOCTYPE svg PUBLIC "-//W3C//DTD SVG 1.1//EN" "http://www.w3.org/Graphics/SVG/1.1/DTD/svg11.dtd" >
<svg xmlns="http://www.w3.org/2000/svg" xmlns:xlink="http://www.w3.org/1999/xlink" version="1.1" width="2048" height="2048" viewBox="-10 0 2058 2048">
   <path fill="currentColor"
d="M1885 1779l-414 -140l-139 409l-318 -615l-298 615l-139 -409l-414 140l299 -616q-154 -197 -154 -447q0 -197 96 -360.5t259.5 -259.5t360.5 -96t360.5 96t259.5 259.5t96 360.5q0 250 -154 447zM510 716l278 140l-19 307l255 -173l255 169l-15 -303l274 -140l-278 -139
l19 -303l-255 168l-255 -173l15 308z" />
</svg>
