<?xml version="1.0" standalone="no"?>
<!DOCTYPE svg PUBLIC "-//W3C//DTD SVG 1.1//EN" "http://www.w3.org/Graphics/SVG/1.1/DTD/svg11.dtd" >
<svg xmlns="http://www.w3.org/2000/svg" xmlns:xlink="http://www.w3.org/1999/xlink" version="1.1" width="2048" height="2048" viewBox="-10 0 2058 2048">
   <path fill="currentColor"
d="M1420 221q0 -62 46 -106t108.5 -44t106.5 44t44 106v46h-305v-46zM1349 801h447q37 0 62 -25t25 -63v-358q0 -38 -25 -63t-62 -25v-46q0 -92 -65 -156.5t-156.5 -64.5t-158.5 64.5t-67 156.5v46q-37 0 -62 25t-25 63v358q0 38 25 63t62 25zM682 1823q-221 -105 -365 -307
t-169 -448h-133q25 271 171 494t381.5 354.5t510.5 131.5l59 -4l-338 -338zM1996 1135l-230 -226l-125 125l201 196l-505 505l-1010 -1009l505 -505l188 188l125 -125l-217 -217q-42 -38 -96 -38t-96 38l-563 567q-42 38 -42 94t42 94l1068 1067q42 42 96 42t92 -42
l567 -563q37 -41 37 -95.5t-37 -95.5z" />
</svg>
