<?xml version="1.0" standalone="no"?>
<!DOCTYPE svg PUBLIC "-//W3C//DTD SVG 1.1//EN" "http://www.w3.org/Graphics/SVG/1.1/DTD/svg11.dtd" >
<svg xmlns="http://www.w3.org/2000/svg" xmlns:xlink="http://www.w3.org/1999/xlink" version="1.1" width="2048" height="2048" viewBox="-10 0 2068 2048">
   <path fill="currentColor"
d="M229 1707l395 -512l288 341l395 -512l512 683h-1590zM229 1024v-229q155 0 285.5 -75t205.5 -205.5t75 -285.5h229q0 214 -106.5 398t-290.5 290.5t-398 106.5zM229 229h342q0 139 -101.5 240.5t-240.5 101.5v-342zM1819 0h-1590q-96 0 -162.5 66.5t-66.5 162.5v1590
q0 96 66.5 162.5t162.5 66.5h1590q96 0 162.5 -66.5t66.5 -162.5v-1590q0 -96 -66.5 -162.5t-162.5 -66.5z" />
</svg>
