<?xml version="1.0" standalone="no"?>
<!DOCTYPE svg PUBLIC "-//W3C//DTD SVG 1.1//EN" "http://www.w3.org/Graphics/SVG/1.1/DTD/svg11.dtd" >
<svg xmlns="http://www.w3.org/2000/svg" xmlns:xlink="http://www.w3.org/1999/xlink" version="1.1" width="2048" height="2048" viewBox="-10 0 2068 2048">
   <path fill="currentColor"
d="M2048 1024q0 29 -22 51l-292 293q-21 21 -52 21q-30 0 -51.5 -21.5t-21.5 -51.5v-146h-439v439h147q30 0 51.5 21.5t21.5 51.5q0 29 -22 51l-293 293q-22 22 -51 22t-51 -22l-293 -293q-22 -22 -22 -51q0 -30 21.5 -51.5t51.5 -21.5h147v-439h-439v146q0 30 -21.5 51.5
t-51.5 21.5q-31 0 -52 -21l-292 -293q-22 -22 -22 -51q0 -30 22 -52l292 -292q22 -22 52 -22t51.5 21.5t21.5 51.5v146h439v-439h-147q-30 0 -51.5 -21.5t-21.5 -51.5q0 -29 22 -51l293 -293q21 -21 51 -21t51 21l293 293q22 22 22 51q0 30 -21.5 51.5t-51.5 21.5h-147v439
h439v-146q0 -30 21.5 -51.5t51.5 -21.5t52 22l292 292q22 22 22 52z" />
</svg>
