<?xml version="1.0" standalone="no"?>
<!DOCTYPE svg PUBLIC "-//W3C//DTD SVG 1.1//EN" "http://www.w3.org/Graphics/SVG/1.1/DTD/svg11.dtd" >
<svg xmlns="http://www.w3.org/2000/svg" xmlns:xlink="http://www.w3.org/1999/xlink" version="1.1" width="2048" height="2048" viewBox="-10 0 2058 2048">
   <path fill="currentColor"
d="M1987 1845q16 80 -34.5 141.5t-130.5 61.5h-512v-341l112 -454h-683q-144 0 -242.5 -101t-98.5 -240v-912h683v683h570q91 0 157.5 66.5t66.5 162.5l-224 795h160q64 0 115 37t61 101zM286 1024v-1024h-229v1024q0 155 77 285.5t208 208t285 77.5h454v-230h-454
q-144 0 -242.5 -98.5t-98.5 -242.5z" />
</svg>
