<?xml version="1.0" standalone="no"?>
<!DOCTYPE svg PUBLIC "-//W3C//DTD SVG 1.1//EN" "http://www.w3.org/Graphics/SVG/1.1/DTD/svg11.dtd" >
<svg xmlns="http://www.w3.org/2000/svg" xmlns:xlink="http://www.w3.org/1999/xlink" version="1.1" width="2048" height="2048" viewBox="-10 0 2066 2048">
   <path fill="currentColor"
d="M1125 1636h105q43 0 72 31t29 74h715v201h-715q0 44 -29 75t-72 31h-412q-43 0 -72 -31t-29 -75h-715v-201h715q0 -43 29 -74t72 -31h105v-202h-719q-43 0 -72 -31t-29 -74v-408q0 -43 29 -72t72 -29h1640q43 0 72 29t29 72v408q0 43 -29 74t-72 31h-719v202zM204 0h1640
q43 0 72 29t29 72v412q0 43 -29 72t-72 29h-1640q-43 0 -72 -29t-29 -72v-412q0 -43 29 -72t72 -29zM717 408h101v-202h-101v202zM717 1228h101v-206h-101v206zM309 206v202h202v-202h-202zM309 1022v206h202v-206h-202z" />
</svg>
