<?xml version="1.0" standalone="no"?>
<!DOCTYPE svg PUBLIC "-//W3C//DTD SVG 1.1//EN" "http://www.w3.org/Graphics/SVG/1.1/DTD/svg11.dtd" >
<svg xmlns="http://www.w3.org/2000/svg" xmlns:xlink="http://www.w3.org/1999/xlink" version="1.1" width="2048" height="2048" viewBox="-10 0 2068 2048">
   <path fill="currentColor"
d="M1170 1559h101q41 0 68.5 29.5t27.5 70.5h73l-270 -269v169zM2048 1659v115l-114 -115h114zM1952 1925l-123 123l-197 -197h-265q0 42 -27.5 71.5t-68.5 29.5h-393q-41 0 -68.5 -29.5t-27.5 -71.5h-681v-192h681q0 -41 27.5 -70.5t68.5 -29.5h100v-192h-685
q-42 0 -69 -30t-27 -71v-388q0 -41 27 -68.5t69 -27.5h269l-196 -197h-73q-42 0 -69 -27.5t-27 -68.5v-73l-197 -197l128 -123zM293 0h1563q41 0 68.5 27.5t27.5 68.5v393q0 41 -27.5 68.5t-68.5 27.5h-997l-274 -274v-114h-114l-192 -197h14zM1856 782q41 0 68.5 27.5
t27.5 68.5v388q0 41 -27.5 71t-68.5 30h-215l-585 -585h800zM782 389h96v-192h-96v192zM782 1170h96v-73l-96 -96v169zM393 974v196h192v-196h-192z" />
</svg>
