<?xml version="1.0" standalone="no"?>
<!DOCTYPE svg PUBLIC "-//W3C//DTD SVG 1.1//EN" "http://www.w3.org/Graphics/SVG/1.1/DTD/svg11.dtd" >
<svg xmlns="http://www.w3.org/2000/svg" xmlns:xlink="http://www.w3.org/1999/xlink" version="1.1" width="2048" height="2048" viewBox="-10 0 2068 2048">
   <path fill="currentColor"
d="M0 202q0 -82 60 -142t142 -60h308v202h-308v308h-202v-308zM2048 202v308h-202v-308h-308v-202h308q82 0 142 60t60 142zM1846 1846v-308h202v308q0 82 -60 142t-142 60h-308v-202h308zM0 1846v-308h202v308h308v202h-308q-82 0 -142 -60t-60 -142zM817 0h414v202h-414
v-202zM817 1846h414v202h-414v-202zM1846 817h202v414h-202v-414zM0 817h202v414h-202v-414z" />
</svg>
