<?xml version="1.0" standalone="no"?>
<!DOCTYPE svg PUBLIC "-//W3C//DTD SVG 1.1//EN" "http://www.w3.org/Graphics/SVG/1.1/DTD/svg11.dtd" >
<svg xmlns="http://www.w3.org/2000/svg" xmlns:xlink="http://www.w3.org/1999/xlink" version="1.1" width="2048" height="2048" viewBox="-10 0 2068 2048">
   <path fill="currentColor"
d="M683 683h682v682h-682v-682zM453 1595h1142v-1142h-1142v1142zM1365 229h230v-229h-230v229zM1365 2048h230v-229h-230v229zM1819 1595h229v-230h-229v230zM1819 683h229v-230h-229v230zM1819 2048q96 0 162.5 -66.5t66.5 -162.5h-229v229zM1819 1136h229v-224h-229v224z
M912 2048h224v-229h-224v229zM683 0h-230v229h230v-229zM0 1595h229v-230h-229v230zM229 2048v-229h-229q0 96 66.5 162.5t162.5 66.5zM1819 0v229h229q0 -96 -66.5 -162.5t-162.5 -66.5zM1136 0h-224v229h224v-229zM0 683h229v-230h-229v230zM453 2048h230v-229h-230v229z
M0 1136h229v-224h-229v224zM0 229h229v-229q-96 0 -162.5 66.5t-66.5 162.5z" />
</svg>
