<?xml version="1.0" standalone="no"?>
<!DOCTYPE svg PUBLIC "-//W3C//DTD SVG 1.1//EN" "http://www.w3.org/Graphics/SVG/1.1/DTD/svg11.dtd" >
<svg xmlns="http://www.w3.org/2000/svg" xmlns:xlink="http://www.w3.org/1999/xlink" version="1.1" width="2048" height="2048" viewBox="-10 0 2058 2048">
   <path fill="currentColor"
d="M187 0h1486q39 0 67.5 28.5t28.5 67.5v370q0 39 -28.5 65.5t-67.5 26.5h-1486q-39 0 -65 -26.5t-26 -65.5v-370q0 -39 26 -67.5t65 -28.5zM187 745h1486q39 0 67.5 26t28.5 66v65l-235 -105l-602 266v240h-745q-39 0 -65 -26t-26 -66v-374q0 -40 26 -66t65 -26zM187 1490
h745q5 153 64 299t163 259h-972q-39 0 -65 -28.5t-26 -67.5v-370q0 -39 26 -65.5t65 -26.5zM654 375h91v-188h-91v188zM654 1116h91v-184h-91v184zM654 1861h91v-188h-91v188zM279 187v188h187v-188h-187zM279 932v184h187v-184h-187zM279 1673v188h187v-188h-187z
M1534 1024l418 187v279q0 192 -117.5 353t-300.5 205q-179 -44 -298.5 -205t-119.5 -353v-279zM1534 1203l-231 104v249q0 109 65.5 198t165.5 111v-662z" />
</svg>
