<?xml version="1.0" standalone="no"?>
<!DOCTYPE svg PUBLIC "-//W3C//DTD SVG 1.1//EN" "http://www.w3.org/Graphics/SVG/1.1/DTD/svg11.dtd" >
<svg xmlns="http://www.w3.org/2000/svg" xmlns:xlink="http://www.w3.org/1999/xlink" version="1.1" width="2048" height="2048" viewBox="-10 0 2068 2048">
   <path fill="currentColor"
d="M1621 1024q0 37 -5 80l171 128q21 21 5 53l-160 272q-16 32 -48 22l-197 -80q-59 48 -134 74l-32 214q0 16 -10.5 24t-26.5 8h-320q-16 0 -26.5 -8t-10.5 -24l-32 -214q-70 -26 -134 -74l-197 80q-32 10 -48 -22l-160 -272q-16 -32 5 -53l171 -128q-5 -43 -5 -80t5 -80
l-171 -128q-21 -21 -5 -53l160 -272q16 -32 48 -22l197 80q64 -53 134 -74l32 -214q0 -16 10.5 -24t26.5 -8h320q16 0 26.5 8t10.5 24l32 214q70 26 134 74l197 -80q32 -10 48 22l160 272q16 32 -5 53l-171 128q5 43 5 80zM1819 0h-1590q-96 0 -162.5 66.5t-66.5 162.5v1590
q0 96 66.5 162.5t162.5 66.5h1590q96 0 162.5 -66.5t66.5 -162.5v-1590q0 -96 -66.5 -162.5t-162.5 -66.5zM1024 795q-96 0 -162.5 66.5t-66.5 162.5t66.5 162.5t162.5 66.5t162.5 -66.5t66.5 -162.5t-66.5 -162.5t-162.5 -66.5z" />
</svg>
