<?xml version="1.0" standalone="no"?>
<!DOCTYPE svg PUBLIC "-//W3C//DTD SVG 1.1//EN" "http://www.w3.org/Graphics/SVG/1.1/DTD/svg11.dtd" >
<svg xmlns="http://www.w3.org/2000/svg" xmlns:xlink="http://www.w3.org/1999/xlink" version="1.1" width="2048" height="2048" viewBox="-10 0 2068 2048">
   <path fill="currentColor"
d="M568 1162l-445 -444q-123 -123 -123 -296t123 -296l741 735zM1125 1123l726 725l-148 148l-726 -725l-725 725l-148 -148l1016 -1016l-20 -25q-64 -59 -64 -145.5t64 -150.5l455 -459l98 99l-340 340l103 99l341 -341l94 99l-341 340l99 99l345 -340l94 98l-459 459
q-64 59 -150.5 59t-145.5 -59l-25 -24z" />
</svg>
