<?xml version="1.0" standalone="no"?>
<!DOCTYPE svg PUBLIC "-//W3C//DTD SVG 1.1//EN" "http://www.w3.org/Graphics/SVG/1.1/DTD/svg11.dtd" >
<svg xmlns="http://www.w3.org/2000/svg" xmlns:xlink="http://www.w3.org/1999/xlink" version="1.1" width="2048" height="2048" viewBox="-10 0 2058 2048">
   <path fill="currentColor"
d="M1846 202q0 -82 -60 -142t-147 -60h-822l-615 615v1231q0 82 60 142t147 60h1230q87 0 147 -60t60 -142v-1644zM716 1740h-206v-202h206v202zM1538 1740h-206v-202h206v202zM716 1332h-206v-409h206v409zM1125 1740h-202v-408h202v408zM1125 1125h-202v-202h202v202z
M1538 1332h-206v-409h206v409z" />
</svg>
