<?xml version="1.0" standalone="no"?>
<!DOCTYPE svg PUBLIC "-//W3C//DTD SVG 1.1//EN" "http://www.w3.org/Graphics/SVG/1.1/DTD/svg11.dtd" >
<svg xmlns="http://www.w3.org/2000/svg" xmlns:xlink="http://www.w3.org/1999/xlink" version="1.1" width="2048" height="2048" viewBox="-10 0 2068 2048">
   <path fill="currentColor"
d="M1707 341q176 171 242.5 400.5t23.5 458.5q75 128 75 280t-77.5 282.5t-208 208t-282.5 77.5t-280 -75q-229 43 -458.5 -23.5t-403 -240t-240 -403t-23.5 -458.5q-75 -128 -75 -280t77.5 -282.5t208 -208t282.5 -77.5t280 75q229 -43 458.5 23.5t400.5 242.5zM1029 1611
q235 0 363 -101.5t128 -266.5q0 -118 -64 -198q-80 -101 -251 -138l-224 -48q-85 -22 -122 -43q-64 -32 -64 -90.5t50.5 -96t146.5 -37.5t160 37q37 22 85 70q27 37 48 48q27 21 59 21q53 0 88 -29.5t35 -77.5q0 -112 -147 -192t-312 -80q-192 0 -320 80q-155 96 -155 278
q0 112 54 181q69 96 240 133l304 80q117 27 117 123q0 59 -58.5 107t-162.5 48t-168 -43q-43 -27 -91 -91q-32 -42 -48 -53q-32 -27 -77.5 -27t-77.5 32t-32 80q0 70 53.5 136.5t160.5 109.5q117 48 282 48z" />
</svg>
