<?xml version="1.0" standalone="no"?>
<!DOCTYPE svg PUBLIC "-//W3C//DTD SVG 1.1//EN" "http://www.w3.org/Graphics/SVG/1.1/DTD/svg11.dtd" >
<svg xmlns="http://www.w3.org/2000/svg" xmlns:xlink="http://www.w3.org/1999/xlink" version="1.1" width="2048" height="2048" viewBox="-10 0 2069 2048">
   <path fill="currentColor"
d="M2041 1489q-14 -34 -67 -72l-48 -24q-149 -81 -225 -192q-24 -38 -39 -67q-5 -19 0 -28.5t10 -14.5l96 -57q52 -39 81 -91q39 -72 10 -149q-19 -53 -64.5 -81.5t-103.5 -28.5q-24 0 -53 4h-9q0 -81 -5 -143q-10 -115 -53 -202q-29 -67 -88.5 -134t-136.5 -110
q-144 -82 -321.5 -82t-320.5 82q-77 43 -137 110t-89 134q-43 87 -52 202q-5 72 -5 143h-10q-29 -4 -52 -4q-58 0 -103.5 28.5t-64.5 81.5q-29 77 9 149q29 52 82 91l91 57q5 5 12 14.5t2 28.5q-14 29 -38 67q-77 111 -216 187l-24 10q-38 24 -57 38q-29 19 -43 53
q-29 77 38 139q24 24 53 38q67 39 124 53q19 5 26.5 12t14.5 26.5t19 36t38.5 35.5t64.5 29q24 5 72 5h5q96 5 153 24q20 5 67 33l20 15q76 43 129 62q91 34 194 34t190 -34q52 -19 134 -67l14 -10q48 -28 67 -33q58 -19 154 -24q48 0 76 -5q39 -10 65 -26.5t46 -45.5l9 -29
q10 -19 19.5 -26t18.5 -12q63 -14 130 -53q33 -14 57 -43q58 -57 34 -134zM1897 1566q-48 28 -124 48q-48 9 -67.5 23.5t-24.5 43.5l-4 24q0 24 -14.5 33.5t-76.5 9.5q-115 5 -192 29q-34 14 -101 54.5t-110 55.5q-72 29 -158 29t-158 -24q-44 -20 -111 -60.5t-100 -54.5
q-77 -24 -187 -29q-67 0 -81.5 -9.5t-19.5 -48t-24 -53t-67 -23.5q-72 -20 -117.5 -44t-38.5 -38t27 -24q215 -105 311 -268q39 -63 58 -130v-9q5 -19 2.5 -31t-19.5 -26.5t-108 -77.5l-43 -28q-72 -48 -53 -101q19 -38 63 -38h23q34 9 92 28l38 15h10q14 0 19 -5l4 -19
q-14 -158 -4 -264q4 -57 19 -110q24 -77 91 -158q43 -48 110 -86q115 -68 264 -68q211 0 350 130l24 24q72 81 96 172q9 48 14 96q9 106 -5 264l5 14q0 10 19 10h10l43 -15q53 -23 86 -28h24q43 0 58 28l4 10q20 53 -52 101l-48 33q-87 58 -103.5 70t-19 26.5t2.5 33.5v4
q29 111 115 211q96 115 254 192q14 5 21.5 14.5t2.5 14.5q0 14 -29 29z" />
</svg>
