<?xml version="1.0" standalone="no"?>
<!DOCTYPE svg PUBLIC "-//W3C//DTD SVG 1.1//EN" "http://www.w3.org/Graphics/SVG/1.1/DTD/svg11.dtd" >
<svg xmlns="http://www.w3.org/2000/svg" xmlns:xlink="http://www.w3.org/1999/xlink" version="1.1" width="2048" height="2048" viewBox="-10 0 2068 2048">
   <path fill="currentColor"
d="M1538 1538q0 140 -69.5 257.5t-187.5 185t-257 67.5q-101 0 -194.5 -38.5t-166 -110.5t-113 -166t-40.5 -195q0 -115 45.5 -213.5t127.5 -170.5q-68 -106 -68 -231v-43l-303 -178l-24 -15l-259 68l-29 -96l226 -63l-202 -115l53 -92l202 121l-58 -231l96 -24l72 259
l24 10l274 159q63 -82 154 -130q-57 -43 -91 -108t-34 -137q0 -130 89 -219t219 -89t219 89t89 219q0 72 -34 137t-91 108q91 48 154 130l274 -159l24 -10l72 -259l96 24l-58 231l202 -121l53 92l-202 115l226 63l-29 96l-259 -68l-24 15l-303 178v43q0 125 -68 231
q82 72 127.5 170.5t45.5 213.5z" />
</svg>
