<?xml version="1.0" standalone="no"?>
<!DOCTYPE svg PUBLIC "-//W3C//DTD SVG 1.1//EN" "http://www.w3.org/Graphics/SVG/1.1/DTD/svg11.dtd" >
<svg xmlns="http://www.w3.org/2000/svg" xmlns:xlink="http://www.w3.org/1999/xlink" version="1.1" width="2048" height="2048" viewBox="-10 0 2058 2048">
   <path fill="currentColor"
d="M610 524q192 9 278.5 149.5t81.5 345.5q0 229 -91 365t-278 140q-187 -9 -273.5 -147t-86.5 -355.5t88.5 -353t280.5 -144.5zM606 687q-66 0 -103.5 82t-37.5 252.5t37.5 255t107.5 84.5q136 0 138 -334.5t-142 -339.5zM1162 1524v-177h47h51l103 -19q61 -19 94 -47
q51 -33 81.5 -79.5t44.5 -98.5l-5 -4q-65 65 -196 65t-215.5 -72.5t-86.5 -217.5t98.5 -245.5t263.5 -104.5q188 9 276.5 123.5t88.5 297.5q-4 144 -46.5 256.5t-116.5 187.5q-71 60 -166.5 93t-212.5 42h-103zM1438 687q-61 0 -100.5 47t-39.5 126q0 66 35 110.5t109 48.5
q47 0 80 -21t47 -44q14 -14 14 -61q0 -79 -33 -140t-112 -66zM755 327l327 -327l323 327h-650zM1405 1721l-323 327l-327 -327h650z" />
</svg>
