<?xml version="1.0" standalone="no"?>
<!DOCTYPE svg PUBLIC "-//W3C//DTD SVG 1.1//EN" "http://www.w3.org/Graphics/SVG/1.1/DTD/svg11.dtd" >
<svg xmlns="http://www.w3.org/2000/svg" xmlns:xlink="http://www.w3.org/1999/xlink" version="1.1" width="2048" height="2048" viewBox="-10 0 2068 2048">
   <path fill="currentColor"
d="M430 1295q0 91 -63.5 154t-152 63t-151.5 -63t-63 -154t63 -154.5t149 -63.5h218v218zM536 1295q0 -91 63 -154.5t154 -63.5t154.5 63.5t63.5 154.5v541q0 86 -63.5 149t-154.5 63t-154 -63t-63 -149v-541zM753 430q-91 0 -154 -63.5t-63 -152t63 -151.5t154 -63
t154.5 63t63.5 154v213h-218zM753 541q91 0 154.5 63t63.5 151.5t-63.5 152t-154.5 63.5h-541q-86 0 -149 -63.5t-63 -152t63 -151.5t149 -63h541zM1618 753q0 -86 63.5 -149t152 -63t151.5 63t63 151.5t-63 152t-154 63.5h-213v-218zM1507 753q0 91 -63 154.5t-151.5 63.5
t-152 -63.5t-63.5 -154.5v-536q0 -91 63.5 -154t152 -63t151.5 63t63 154v536zM1295 1618q86 0 149 63.5t63 152t-63 151.5t-151.5 63t-152 -63t-63.5 -149v-218h218zM1295 1512q-91 0 -154.5 -63t-63.5 -154t63.5 -154.5t154.5 -63.5h536q91 0 154 63.5t63 154.5t-63 154
t-154 63h-536z" />
</svg>
