<?xml version="1.0" standalone="no"?>
<!DOCTYPE svg PUBLIC "-//W3C//DTD SVG 1.1//EN" "http://www.w3.org/Graphics/SVG/1.1/DTD/svg11.dtd" >
<svg xmlns="http://www.w3.org/2000/svg" xmlns:xlink="http://www.w3.org/1999/xlink" version="1.1" width="2048" height="2048" viewBox="-10 0 2068 2048">
   <path fill="currentColor"
d="M1029 1541q-208 0 -336 -90q-101 -75 -101 -171q0 -43 26.5 -72t66.5 -29t67 21q21 16 48 53q43 54 75 75q58 37 149 37t144 -40t53 -93q0 -80 -101 -107l-272 -69q-149 -37 -208 -117q-48 -64 -48 -166q0 -160 133 -245q112 -69 283 -69q149 0 280 72t131 168
q0 42 -32 69t-80 27q-32 0 -54 -22q-16 -10 -42 -37q-43 -48 -75 -64q-53 -32 -138.5 -32t-131 32t-45.5 82.5t48 77.5q32 21 107 37l208 48q277 64 277 299q0 144 -112 234.5t-320 90.5zM1707 341q176 171 242.5 400.5t23.5 458.5q75 128 75 280t-77.5 282.5t-208 208
t-282.5 77.5t-280 -75q-229 43 -458.5 -23.5t-403 -240t-240 -403t-23.5 -458.5q-75 -128 -75 -280t77.5 -282.5t208 -208t282.5 -77.5t280 75q229 -43 458.5 23.5t400.5 242.5zM571 229q-144 0 -243 99t-99 237.5t91 234.5q-64 197 -16 397t197.5 349.5t349.5 197.5
t397 -16q96 91 234.5 91t237.5 -99t99 -237.5t-91 -234.5q64 -197 16 -397t-197.5 -349.5t-349.5 -197.5t-397 16q-96 -91 -229 -91z" />
</svg>
