<?xml version="1.0" standalone="no"?>
<!DOCTYPE svg PUBLIC "-//W3C//DTD SVG 1.1//EN" "http://www.w3.org/Graphics/SVG/1.1/DTD/svg11.dtd" >
<svg xmlns="http://www.w3.org/2000/svg" xmlns:xlink="http://www.w3.org/1999/xlink" version="1.1" width="2048" height="2048" viewBox="-10 0 2068 2048">
   <path fill="currentColor"
d="M1024 1466q-130 0 -219 -89t-89 -218q0 -82 41 -154t113 -111l995 -577l-567 981q-38 77 -112.5 122.5t-161.5 45.5zM1024 135q269 0 510 134l-217 125q-139 -53 -293 -53q-221 0 -411 110.5t-300.5 298t-110.5 409.5q0 168 65 317t175 264q34 29 34 72.5t-31.5 72
t-74.5 28.5t-72 -28q-139 -140 -218.5 -327.5t-79.5 -394t77 -396.5t221 -334.5t334 -221t392 -76.5zM2048 1159q0 211 -79.5 398.5t-218.5 327.5q-29 28 -72 28t-72 -28.5t-29 -72t29 -72.5q110 -115 175 -264t65 -317q0 -154 -58 -298l125 -212q135 245 135 510z" />
</svg>
