<?xml version="1.0" standalone="no"?>
<!DOCTYPE svg PUBLIC "-//W3C//DTD SVG 1.1//EN" "http://www.w3.org/Graphics/SVG/1.1/DTD/svg11.dtd" >
<svg xmlns="http://www.w3.org/2000/svg" xmlns:xlink="http://www.w3.org/1999/xlink" version="1.1" width="2048" height="2048" viewBox="-10 0 2058 2048">
   <path fill="currentColor"
d="M409 0q129 0 218 89t89 219q0 96 -55 175t-142 113q15 77 96 183q48 62 193 221q163 173 216 245q53 -72 216 -245q145 -159 193 -221q81 -106 96 -183q-87 -34 -142 -113t-55 -175q0 -130 89 -219t218.5 -89t218.5 89t89 219q0 101 -57.5 180t-153.5 108q-15 96 -97 207
q-53 72 -216 245q-144 154 -192 221q-82 101 -96 183q86 34 141.5 113t55.5 175q0 130 -89 219t-219 89t-219 -89t-89 -219q0 -96 55.5 -175t141.5 -113q-14 -82 -96 -183q-48 -67 -192 -221q-163 -173 -216 -245q-82 -111 -97 -207q-96 -29 -153.5 -108t-57.5 -180
q0 -130 89 -219t219 -89zM409 202q-44 0 -72.5 31t-28.5 74.5t28.5 72.5t72 29t72.5 -29t29 -72.5t-29 -74.5t-72 -31zM1639 202q-43 0 -72 31t-29 74.5t29 72.5t72.5 29t72 -29t28.5 -72.5t-28.5 -74.5t-72.5 -31zM1024 1639q-43 0 -72 29t-29 72.5t29 74.5t72 31t72 -31
t29 -74.5t-29 -72.5t-72 -29z" />
</svg>
