<?xml version="1.0" standalone="no"?>
<!DOCTYPE svg PUBLIC "-//W3C//DTD SVG 1.1//EN" "http://www.w3.org/Graphics/SVG/1.1/DTD/svg11.dtd" >
<svg xmlns="http://www.w3.org/2000/svg" xmlns:xlink="http://www.w3.org/1999/xlink" version="1.1" width="2048" height="2048" viewBox="-10 0 2058 2048">
   <path fill="currentColor"
d="M1024 1024q-130 0 -219 89t-89 218.5t89 218.5t219 89t219 -89t89 -218.5t-89 -218.5t-219 -89zM1024 1846q-139 0 -257 -69.5t-187.5 -187.5t-69.5 -257q0 -101 40.5 -195t113 -166t166 -113t194.5 -41q139 0 257 70t187.5 187.5t69.5 257t-69.5 257.5t-187.5 187.5
t-257 69.5zM1024 202q87 0 147 60t60 146.5t-60 146.5t-147 60t-147 -60t-60 -146.5t60 -146.5t147 -60zM1538 0h-1028q-82 0 -142 60t-60 142v1644q0 82 60 142t142 60h1028q82 0 142 -60t60 -142v-1644q0 -82 -60 -142t-142 -60z" />
</svg>
