<?xml version="1.0" standalone="no"?>
<!DOCTYPE svg PUBLIC "-//W3C//DTD SVG 1.1//EN" "http://www.w3.org/Graphics/SVG/1.1/DTD/svg11.dtd" >
<svg xmlns="http://www.w3.org/2000/svg" xmlns:xlink="http://www.w3.org/1999/xlink" version="1.1" width="2048" height="2048" viewBox="-10 0 2058 2048">
   <path fill="currentColor"
d="M386 135q135 0 227 92t92 226q0 105 -60 187.5t-154 111.5v678q94 30 154 112t60 187q0 135 -92 227t-226.5 92t-227 -92t-92.5 -227q0 -105 60 -187t155 -112v-678q-95 -29 -155 -111.5t-60 -187.5q0 -134 92.5 -226t226.5 -92zM386 349q-45 0 -74.5 30t-29.5 74.5
t29.5 74.5t74.5 30t75 -30t30 -74.5t-30 -74.5t-75 -30zM386 1624q-45 0 -74.5 30t-29.5 75t29.5 75t74.5 30t75 -30t30 -75t-30 -75t-75 -30zM1981 1729q0 135 -92.5 227t-227 92t-226.5 -92t-92 -227q0 -105 59.5 -187t154.5 -112v-872h-214v349l-454 -454l454 -453v349
h214q85 0 147 62t62 147v872q95 30 155 112t60 187zM1662 1624q-45 0 -75 30t-30 75t30 75t75 30t74.5 -30t29.5 -75t-29.5 -75t-74.5 -30z" />
</svg>
