<?xml version="1.0" standalone="no"?>
<!DOCTYPE svg PUBLIC "-//W3C//DTD SVG 1.1//EN" "http://www.w3.org/Graphics/SVG/1.1/DTD/svg11.dtd" >
<svg xmlns="http://www.w3.org/2000/svg" xmlns:xlink="http://www.w3.org/1999/xlink" version="1.1" width="2048" height="2048" viewBox="-10 0 2068 2048">
   <path fill="currentColor"
d="M1630 913q-236 -139 -601 -173q-342 -24 -592 53q-33 10 -69 -7t-46 -55.5t7 -72t56 -43.5q288 -86 663 -57q409 33 678 192q34 19 46 60t-10 72t-60.5 38.5t-71.5 -7.5zM1620 1197q-19 29 -50.5 36t-59.5 -7q-207 -130 -493 -163.5t-527 43.5q-33 9 -62 -5.5t-36 -45.5
t7 -60t43 -38q284 -82 601.5 -46t552.5 185q24 10 33.5 43.5t-9.5 57.5zM1495 1481q-14 24 -38 28.5t-48 -9.5q-361 -221 -904 -96q-24 5 -46 -9.5t-29 -38.5t7.5 -46t38.5 -31q596 -130 995 115q24 10 31.5 36.5t-7.5 50.5zM1024 0q-202 0 -392 77t-334 221t-221 334
t-77 392t77 392t221 334t334 221t392 77t392 -77t334 -221t221 -334t77 -392t-77 -392t-221 -334t-334 -221t-392 -77z" />
</svg>
