<?xml version="1.0" standalone="no"?>
<!DOCTYPE svg PUBLIC "-//W3C//DTD SVG 1.1//EN" "http://www.w3.org/Graphics/SVG/1.1/DTD/svg11.dtd" >
<svg xmlns="http://www.w3.org/2000/svg" xmlns:xlink="http://www.w3.org/1999/xlink" version="1.1" width="2048" height="2048" viewBox="-10 0 2068 2048">
   <path fill="currentColor"
d="M1024 0q202 0 392 77t334 221t221 334t77 392t-77 392t-221 334t-334 221t-392 77q-231 0 -435 -96t-348.5 -264.5t-206.5 -384.5l394 163q19 101 101 166t183 65q120 0 206.5 -84t86.5 -204v-15l346 -250h10q158 0 271 -113t113 -271.5t-113 -271.5t-271.5 -113
t-274 113t-115.5 272v4l-240 356h-19q-87 0 -164 48l-548 -226q19 -259 161 -475.5t370.5 -341.5t492.5 -125zM644 1553q58 29 120.5 2.5t89 -86.5t0 -122.5t-84.5 -86.5l-134 -53q81 -34 163 -0.5t115.5 118t0 168.5t-117.5 117.5t-163.5 0t-113.5 -105.5zM1620 760
q0 105 -77 182t-182.5 77t-182.5 -77t-77 -182.5t77 -182.5t182.5 -77t182.5 77t77 183zM1168 760q0 81 55.5 136.5t137 55.5t137 -55.5t55.5 -137t-55.5 -137t-137 -55.5t-137 55.5t-55.5 137.5z" />
</svg>
