<?xml version="1.0" standalone="no"?>
<!DOCTYPE svg PUBLIC "-//W3C//DTD SVG 1.1//EN" "http://www.w3.org/Graphics/SVG/1.1/DTD/svg11.dtd" >
<svg xmlns="http://www.w3.org/2000/svg" xmlns:xlink="http://www.w3.org/1999/xlink" version="1.1" width="2048" height="2048" viewBox="-10 0 2058 2048">
   <path fill="currentColor"
d="M1499 0q82 0 142.5 60t60.5 142v308q0 87 -60.5 147t-142.5 60v823q0 63 -36 115.5t-94 72.5l-640 298q-77 38 -158.5 9.5t-115.5 -105.5l-87 -188q-38 -77 -9 -156.5t106 -112.5l313 -150v-606q-82 0 -142.5 -60t-60.5 -147v-308q0 -82 60.5 -142t142.5 -60h721z
M778 202v308h721v-308h-721z" />
</svg>
