<?xml version="1.0" standalone="no"?>
<!DOCTYPE svg PUBLIC "-//W3C//DTD SVG 1.1//EN" "http://www.w3.org/Graphics/SVG/1.1/DTD/svg11.dtd" >
<svg xmlns="http://www.w3.org/2000/svg" xmlns:xlink="http://www.w3.org/1999/xlink" version="1.1" width="2048" height="2048" viewBox="-10 0 2068 2048">
   <path fill="currentColor"
d="M1125 1836q279 -33 478.5 -232.5t232.5 -478.5h-307q-34 154 -142 262t-262 142v307zM817 615h414l307 308h298q-38 -303 -271 -512t-541 -209t-541 209t-271 512h298zM923 1836v-307q-154 -34 -262 -142t-142 -262h-307q33 274 232.5 473.5t478.5 237.5zM1024 0
q418 0 721 303t303 721t-303 721t-721 303t-721 -303t-303 -721t303 -721t721 -303z" />
</svg>
