<?xml version="1.0" standalone="no"?>
<!DOCTYPE svg PUBLIC "-//W3C//DTD SVG 1.1//EN" "http://www.w3.org/Graphics/SVG/1.1/DTD/svg11.dtd" >
<svg xmlns="http://www.w3.org/2000/svg" xmlns:xlink="http://www.w3.org/1999/xlink" version="1.1" width="2048" height="2048" viewBox="-10 0 2058 2048">
   <path fill="currentColor"
d="M1671 971h-541v-541h541v541zM1509 1618q-65 0 -113 -48t-48 -116t48 -113.5t113.5 -45.5t113.5 45.5t48 113.5t-48 116t-114 48zM918 971h-541v-541h541v541zM539 1618q-66 0 -114 -48t-48 -116t48 -113.5t113.5 -45.5t113.5 45.5t48 113.5t-48 116t-113 48zM1024 0
q-420 0 -612 71q-253 101 -253 359v1026q0 157 111.5 266t268.5 109l-162 161v56h1294v-56l-162 -161q157 0 268.5 -109t111.5 -266v-1026q0 -258 -253 -359q-192 -71 -612 -71z" />
</svg>
