<?xml version="1.0" standalone="no"?>
<!DOCTYPE svg PUBLIC "-//W3C//DTD SVG 1.1//EN" "http://www.w3.org/Graphics/SVG/1.1/DTD/svg11.dtd" >
<svg xmlns="http://www.w3.org/2000/svg" xmlns:xlink="http://www.w3.org/1999/xlink" version="1.1" width="2048" height="2048" viewBox="-10 0 2068 2048">
   <path fill="currentColor"
d="M409 1231h206l308 307h-207zM202 202h106v-101q0 -43 28.5 -72t72.5 -29h408q44 0 75 29t31 72v101h202v-101q0 -43 31 -72t75 -29h408q44 0 72.5 29t28.5 72v101h106q82 0 142 60t60 147v1331q0 87 -60 147t-142 60v101h-308v-101h-1028v101h-308v-101q-82 0 -142 -60
t-60 -147v-1331q0 -87 60 -147t142 -60zM1639 510q44 0 72.5 31t28.5 74.5t-28.5 72t-72 28.5t-72.5 -28.5t-29 -72t29 -74.5t72 -31zM1231 510q43 0 72 31t29 74.5t-29 72t-72.5 28.5t-74.5 -28.5t-31 -72t31 -74.5t75 -31zM1846 409h-1644v408h1644v-408zM202 1740h1644
v-716h-1644v716zM409 510q43 0 72 31t29 74.5t-29 72t-72.5 28.5t-72 -28.5t-28.5 -72t28.5 -74.5t72.5 -31zM1125 1231h207l307 307h-206z" />
</svg>
