<?xml version="1.0" standalone="no"?>
<!DOCTYPE svg PUBLIC "-//W3C//DTD SVG 1.1//EN" "http://www.w3.org/Graphics/SVG/1.1/DTD/svg11.dtd" >
<svg xmlns="http://www.w3.org/2000/svg" xmlns:xlink="http://www.w3.org/1999/xlink" version="1.1" width="2048" height="2048" viewBox="-10 0 2068 2048">
   <path fill="currentColor"
d="M587 1416h-261q-107 0 -188.5 -73.5t-93.5 -175.5l-41 -261q-16 -115 55.5 -194.5t181.5 -79.5h523q114 0 179 82q17 20 25 45q57 -13 114 0q8 -25 25 -45q65 -82 179 -82h523q110 0 181.5 79.5t55.5 189.5l-41 270q-12 102 -96 173.5t-186 71.5h-261q-102 0 -190 -69.5
t-112 -167.5l-78 -237q-24 -16 -57 -16t-57 16l-78 245q-24 94 -112 161.5t-190 67.5z" />
</svg>
