<?xml version="1.0" standalone="no"?>
<!DOCTYPE svg PUBLIC "-//W3C//DTD SVG 1.1//EN" "http://www.w3.org/Graphics/SVG/1.1/DTD/svg11.dtd" >
<svg xmlns="http://www.w3.org/2000/svg" xmlns:xlink="http://www.w3.org/1999/xlink" version="1.1" width="2048" height="2048" viewBox="-10 0 2068 2048">
   <path fill="currentColor"
d="M0 1630q226 -101 341 -140q188 -67 342 -67q77 0 168 34q58 19 173 69.5t173 69.5q91 34 168 34t173 -34q58 -19 171 -69.5t171 -69.5q96 -34 168 -34v308q-72 0 -168 33q-58 20 -171 70.5t-171 69.5q-96 33 -173 33t-168 -33q-58 -19 -173 -69.5t-173 -70.5
q-91 -33 -168 -33q-154 0 -342 67q-115 38 -341 139v-307zM683 1115q-111 0 -241 34l505 -351l-106 -130q-24 -29 -24 -62q0 -58 48 -87l587 -408l115 163l-495 351l539 639q-145 58 -246 58q-77 0 -168 -34q-58 -19 -173 -69.5t-173 -69.5q-91 -34 -168 -34zM1639 500
q87 0 147 60t60 146.5t-60 146.5t-146.5 60t-146.5 -60t-60 -146.5t60 -146.5t146 -60z" />
</svg>
