<?xml version="1.0" standalone="no"?>
<!DOCTYPE svg PUBLIC "-//W3C//DTD SVG 1.1//EN" "http://www.w3.org/Graphics/SVG/1.1/DTD/svg11.dtd" >
<svg xmlns="http://www.w3.org/2000/svg" xmlns:xlink="http://www.w3.org/1999/xlink" version="1.1" width="2048" height="2048" viewBox="-10 0 2058 2048">
   <path fill="currentColor"
d="M308 615h1432q87 0 147 60.5t60 141.5v1029q0 82 -60 142t-147 60h-1432q-87 0 -147 -60t-60 -142v-1029q0 -81 60 -141.5t147 -60.5zM308 1024v308h615v-308h-615zM1125 1024v308h615v-308h-615zM308 1538v308h615v-308h-615zM1125 1538v308h615v-308h-615zM923 0h1024
v409h-207v-207h-615v207h-202v-409z" />
</svg>
