<?xml version="1.0" standalone="no"?>
<!DOCTYPE svg PUBLIC "-//W3C//DTD SVG 1.1//EN" "http://www.w3.org/Graphics/SVG/1.1/DTD/svg11.dtd" >
<svg xmlns="http://www.w3.org/2000/svg" xmlns:xlink="http://www.w3.org/1999/xlink" version="1.1" width="2048" height="2048" viewBox="-10 0 2068 2048">
   <path fill="currentColor"
d="M356 716q67 0 110.5 -45.5t43.5 -108t-43.5 -108t-108.5 -45.5t-110.5 45.5t-45.5 108t45.5 108t108.5 45.5zM1577 981q62 62 62 146t-62 142l-510 515q-62 62 -146 62t-147 -62l-716 -717q-58 -62 -58 -144v-514q0 -87 60 -147t142 -60h514q87 0 145 62zM1183 380
l101 -106l706 707q58 57 58 143.5t-58 144.5l-553 553l-101 -101l587 -596z" />
</svg>
