<?xml version="1.0" standalone="no"?>
<!DOCTYPE svg PUBLIC "-//W3C//DTD SVG 1.1//EN" "http://www.w3.org/Graphics/SVG/1.1/DTD/svg11.dtd" >
<svg xmlns="http://www.w3.org/2000/svg" xmlns:xlink="http://www.w3.org/1999/xlink" version="1.1" width="2048" height="2048" viewBox="-10 0 2068 2048">
   <path fill="currentColor"
d="M187 375h1116q78 0 132.5 54.5t54.5 128.5v932q0 74 -54.5 128.5t-132.5 54.5h-1116q-78 0 -132.5 -54.5t-54.5 -128.5v-932q0 -74 54.5 -128.5t132.5 -54.5zM187 745v279h467v-279h-467zM837 745v279h466v-279h-466zM187 1211v279h467v-279h-467zM837 1211v279h466v-279
h-466zM2048 1211v-653h-375v187h188v279h-188v187h375z" />
</svg>
