<?xml version="1.0" standalone="no"?>
<!DOCTYPE svg PUBLIC "-//W3C//DTD SVG 1.1//EN" "http://www.w3.org/Graphics/SVG/1.1/DTD/svg11.dtd" >
<svg xmlns="http://www.w3.org/2000/svg" xmlns:xlink="http://www.w3.org/1999/xlink" version="1.1" width="2048" height="2048" viewBox="-10 0 2068 2048">
   <path fill="currentColor"
d="M2048 767q0 86 -60 146.5t-142 60.5h-1644q-82 0 -142 -60.5t-60 -146.5v-717h202v207h413v-207h202v207h414v-207h202v207h413v-207h202v717zM202 767h413v-308h-413v308zM817 767h414v-308h-414v308zM1846 767v-308h-413v308h413zM923 1180h202v308h308v202h-308v308
h-202v-308h-308v-202h308v-308z" />
</svg>
