<?xml version="1.0" standalone="no"?>
<!DOCTYPE svg PUBLIC "-//W3C//DTD SVG 1.1//EN" "http://www.w3.org/Graphics/SVG/1.1/DTD/svg11.dtd" >
<svg xmlns="http://www.w3.org/2000/svg" xmlns:xlink="http://www.w3.org/1999/xlink" version="1.1" width="2048" height="2048" viewBox="-10 0 2068 2048">
   <path fill="currentColor"
d="M1990 981l-923 -923q-62 -58 -144 -58h-721q-82 0 -142 60t-60 142v721q0 82 58 144l923 923q62 58 146 58t142 -58l721 -721q58 -58 58 -142t-58 -146zM1125 1846l-923 -923v-721h721l923 923zM462 308q62 0 107.5 43t45.5 108t-45.5 110.5t-110.5 45.5t-108 -45.5
t-43 -110.5t43 -108t111 -43z" />
</svg>
