<?xml version="1.0" standalone="no"?>
<!DOCTYPE svg PUBLIC "-//W3C//DTD SVG 1.1//EN" "http://www.w3.org/Graphics/SVG/1.1/DTD/svg11.dtd" >
<svg xmlns="http://www.w3.org/2000/svg" xmlns:xlink="http://www.w3.org/1999/xlink" version="1.1" width="2048" height="2048" viewBox="-10 0 2058 2048">
   <path fill="currentColor"
d="M1747 1617q22 21 22 43t-17 44q-53 74 -135.5 115.5t-178.5 41.5h-828q-100 0 -183 -41.5t-135 -115.5q-13 -18 -13 -42t19.5 -43.5t50 -19.5t52.5 31q57 69 148 96l270 -336l-117 -362q-22 -74 21 -143l209 -340h-204l-170 270l-148 -92l217 -348h502q56 0 93 32.5
t50 54.5l44 109q48 104 146 171.5t216 67.5v175q-149 0 -277.5 -74t-202.5 -192l-161 248l379 236v527h22q65 0 122 -30.5t87 -69.5q22 -31 50.5 -31t49.5 18zM1242 1325l-305 -192l87 292l-257 305h475v-405zM1303 0q-79 0 -133 54.5t-54 133t54 133t132.5 54.5t133 -54.5
t54.5 -133t-54.5 -133t-132.5 -54.5zM654 1909q-31 0 -50.5 19.5t-19.5 47.5t19.5 50t48 22t50 -22t21.5 -50t-21.5 -47.5t-47.5 -19.5zM1394 1909q-26 0 -47.5 19.5t-21.5 47.5t21.5 50t50 22t48 -22t19.5 -50t-19.5 -47.5t-50.5 -19.5z" />
</svg>
