<?xml version="1.0" standalone="no"?>
<!DOCTYPE svg PUBLIC "-//W3C//DTD SVG 1.1//EN" "http://www.w3.org/Graphics/SVG/1.1/DTD/svg11.dtd" >
<svg xmlns="http://www.w3.org/2000/svg" xmlns:xlink="http://www.w3.org/1999/xlink" version="1.1" width="2048" height="2048" viewBox="-10 0 2068 2048">
   <path fill="currentColor"
d="M1565 272q266 0 483 146l-130 337q-152 -136 -353 -136q-218 0 -370 152.5t-152 369.5t152 369t370 152q179 0 315 -108l135 331q-206 125 -445 125t-440 -117t-318 -318t-117 -434q0 -174 65.5 -334.5t187.5 -282.5t282.5 -187t334.5 -65zM348 38q146 0 246.5 100.5
t100.5 247t-100.5 247t-247 100.5t-247 -100.5t-100.5 -247t100.5 -247t247.5 -100.5zM348 272q-49 0 -81.5 32.5t-32.5 81.5t32.5 81.5t81.5 32.5t81.5 -32.5t32.5 -81.5t-32.5 -81.5t-81.5 -32.5z" />
</svg>
