<?xml version="1.0" standalone="no"?>
<!DOCTYPE svg PUBLIC "-//W3C//DTD SVG 1.1//EN" "http://www.w3.org/Graphics/SVG/1.1/DTD/svg11.dtd" >
<svg xmlns="http://www.w3.org/2000/svg" xmlns:xlink="http://www.w3.org/1999/xlink" version="1.1" width="2048" height="2048" viewBox="-10 0 2058 2048">
   <path fill="currentColor"
d="M567 55q-133 83 -214 228.5t-81 311.5t81 311.5t219 228.5q-152 0 -276.5 -71.5t-196 -196t-71.5 -272.5t71.5 -272.5t196 -196t271.5 -71.5zM1707 203l138 138l-1531 1532l-139 -139zM1098 443l-148 -92l-138 96l41 -166l-138 -106l171 -9l60 -166l64 161l171 5
l-134 111zM775 798l-115 -74l-111 79l32 -134l-106 -79l134 -9l46 -129l46 125l134 4l-102 88zM1697 1185q0 148 -71.5 272.5t-196 196t-271.5 71.5q-180 0 -323 -101l761 -761q101 143 101 322zM1264 1831l277 -110l-28 327zM1693 1568l111 -272l216 249zM1804 1079
l-111 -272l327 23zM775 1721l277 110l-249 217z" />
</svg>
