<?xml version="1.0" standalone="no"?>
<!DOCTYPE svg PUBLIC "-//W3C//DTD SVG 1.1//EN" "http://www.w3.org/Graphics/SVG/1.1/DTD/svg11.dtd" >
<svg xmlns="http://www.w3.org/2000/svg" xmlns:xlink="http://www.w3.org/1999/xlink" version="1.1" width="2048" height="2048" viewBox="-10 0 2068 2048">
   <path fill="currentColor"
d="M1673 1209v-1115h375v1115h-375zM1303 94q78 0 132.5 54.5t54.5 132.5v928q0 79 -56 131l-610 614l-101 -100q-39 -39 -39 -100v-26l92 -427h-589q-78 0 -132.5 -54.5t-54.5 -128.5v-188q0 -35 13 -69l283 -654q22 -52 68 -82.5t102 -30.5h837zM1303 281h-841l-275 649
v188h815l-104 492l405 -405v-924z" />
</svg>
