<?xml version="1.0" standalone="no"?>
<!DOCTYPE svg PUBLIC "-//W3C//DTD SVG 1.1//EN" "http://www.w3.org/Graphics/SVG/1.1/DTD/svg11.dtd" >
<svg xmlns="http://www.w3.org/2000/svg" xmlns:xlink="http://www.w3.org/1999/xlink" version="1.1" width="2048" height="2048" viewBox="-10 0 2068 2048">
   <path fill="currentColor"
d="M375 839v1115h-375v-1115h375zM745 1954q-78 0 -132.5 -54.5t-54.5 -132.5v-928q0 -79 56 -131l610 -614l101 100q39 39 39 96v30l-92 427h589q78 0 132.5 54.5t54.5 128.5v188q0 35 -13 69l-283 654q-22 52 -68 82.5t-102 30.5h-837zM745 1767h841l275 -649v-188h-820
l109 -492l-405 405v924z" />
</svg>
