<?xml version="1.0" standalone="no"?>
<!DOCTYPE svg PUBLIC "-//W3C//DTD SVG 1.1//EN" "http://www.w3.org/Graphics/SVG/1.1/DTD/svg11.dtd" >
<svg xmlns="http://www.w3.org/2000/svg" xmlns:xlink="http://www.w3.org/1999/xlink" version="1.1" width="2048" height="2048" viewBox="-10 0 2068 2048">
   <path fill="currentColor"
d="M1389 1514l-365 -235l-365 235l110 -418l-341 -279l437 -24l159 -404l159 404l437 24l-341 279zM1846 1024q0 -87 60 -147t142 -60v-408q0 -87 -60 -147t-142 -60h-1644q-82 0 -142 60t-60 147v408q82 0 142 60t60 147t-60 147t-142 60v408q0 87 60 147t142 60h1644
q82 0 142 -60t60 -147v-408q-82 0 -142 -60t-60 -147z" />
</svg>
