<?xml version="1.0" standalone="no"?>
<!DOCTYPE svg PUBLIC "-//W3C//DTD SVG 1.1//EN" "http://www.w3.org/Graphics/SVG/1.1/DTD/svg11.dtd" >
<svg xmlns="http://www.w3.org/2000/svg" xmlns:xlink="http://www.w3.org/1999/xlink" version="1.1" width="2048" height="2048" viewBox="-10 0 2068 2048">
   <path fill="currentColor"
d="M1100 1128q0 76 -10 130t-30 88t-48 48t-72 14t-72 -14t-50 -50t-32 -86t-10 -130v-212q0 -80 10 -132t32 -84t50 -46t70 -14t72 14t50 46t30 86t10 126v216zM1180 600q-40 -48 -104 -72t-136 -24t-138 24t-106 74t-64 136t-24 202v164q0 124 24 208t68 136t108 74
t132 22t134 -24t108 -76t64 -136t22 -204v-164q0 -120 -24 -204t-64 -136zM2028 1228q-16 -40 -54 -66t-88 -44t-110 -34q-40 -4 -76 -18t-50 -24t-22 -26t-8 -32t8 -34t26 -30t40 -20t54 -8t54 10t40 26t26 38t8 38h168q0 -48 -22 -92t-58 -74t-92 -50t-122 -20t-120 18
t-90 46t-58 70t-22 90t20 84t52 60t84 44q44 16 112 32q48 12 78 22t48 24t24 28t6 38q0 40 -34 64t-102 24q-28 0 -52 -6t-48 -22t-36 -38t-12 -54h-164q0 44 22 88t60 80t96 56t132 20t126 -16t92 -44t62 -68t22 -94t-20 -86zM0 660v144l256 -88v820h172v-1024h-24z" />
</svg>
