<?xml version="1.0" standalone="no"?>
<!DOCTYPE svg PUBLIC "-//W3C//DTD SVG 1.1//EN" "http://www.w3.org/Graphics/SVG/1.1/DTD/svg11.dtd" >
<svg xmlns="http://www.w3.org/2000/svg" xmlns:xlink="http://www.w3.org/1999/xlink" version="1.1" width="2048" height="2048" viewBox="-10 0 2068 2048">
   <path fill="currentColor"
d="M2020 1313q-23 -51 -77 -90.5t-125 -65t-161 -48.5q-46 -6 -103 -23q-45 -22 -67.5 -36.5t-34 -34t-11.5 -45t11.5 -51t34 -43t56.5 -28.5t76.5 -11t76.5 14t57 34t37 57t14 54h238q0 -68 -31 -130.5t-85 -105t-130.5 -71t-173 -28.5t-173 25.5t-125 65t-79.5 99.5
t-31 125t25.5 116t74 88t121.5 65q57 23 153 46q74 17 116.5 34t65.5 34t34 39.5t11 50.5q0 57 -48 91t-139 34q-45 0 -82 -8.5t-65.5 -28t-48 -54t-25.5 -79.5h-227q0 68 31 127.5t85 108t136.5 79.5t187.5 31t178.5 -22.5t130.5 -62.5t88 -99.5t31 -130.5t-28 -122z
M902 1143q-34 -51 -79.5 -82t-107.5 -54q57 -28 96.5 -65t68 -79.5t39.5 -82.5t11 -85q0 -102 -31 -178.5t-93.5 -127.5t-147.5 -77t-181 -26q-91 0 -182 28.5t-153.5 85.5t-93.5 125t-31 153h238q0 -45 14.5 -82t48.5 -62.5t70.5 -40t88.5 -14.5q113 0 164 57t51 159
q0 51 -14 90.5t-45.5 68t-74 45.5t-110.5 17h-142v187h148q57 0 108 14.5t85 43t51 73.5t17 102q0 113 -62.5 173t-175.5 60q-57 0 -99.5 -14.5t-71 -42.5t-45.5 -68t-17 -91h-244q0 96 39.5 175.5t110.5 130.5t145 74q91 29 182 29q96 0 187 -28.5t156 -82.5t99 -133.5
t34 -181.5q0 -51 -14 -105t-37 -88z" />
</svg>
