<?xml version="1.0" standalone="no"?>
<!DOCTYPE svg PUBLIC "-//W3C//DTD SVG 1.1//EN" "http://www.w3.org/Graphics/SVG/1.1/DTD/svg11.dtd" >
<svg xmlns="http://www.w3.org/2000/svg" xmlns:xlink="http://www.w3.org/1999/xlink" version="1.1" width="2048" height="2048" viewBox="-10 0 2058 2048">
   <path fill="currentColor"
d="M1083 1769q-179 0 -327 -89.5t-235 -237.5t-87 -326.5t87 -322.5l889 885q-149 91 -327 91zM246 279l-117 118l257 257q-140 209 -140 462q0 226 113.5 420t305 305t418.5 111q253 0 466 -139l231 235l118 -118l-719 -719zM991 784l183 188v-318h-183v130zM1362 0h-558
v187h558v-187zM1736 331l-130 131q-109 -87 -244 -135t-279 -48q-253 0 -462 139l135 135q153 -87 329 -87t324.5 87.5t235.5 237.5t87 324.5t-87 326.5l135 135q139 -209 139 -461q0 -144 -47.5 -277t-135.5 -242l131 -135z" />
</svg>
