<?xml version="1.0" standalone="no"?>
<!DOCTYPE svg PUBLIC "-//W3C//DTD SVG 1.1//EN" "http://www.w3.org/Graphics/SVG/1.1/DTD/svg11.dtd" >
<svg xmlns="http://www.w3.org/2000/svg" xmlns:xlink="http://www.w3.org/1999/xlink" version="1.1" width="2048" height="2048" viewBox="-10 0 2068 2048">
   <path fill="currentColor"
d="M1024 340q232 0 408 148t220 368q168 12 282 134t114 290q0 116 -58 214t-156 156t-214 58h-1108q-140 0 -258 -70t-186 -188t-68 -254q0 -132 60 -244t164 -182t232 -82q80 -160 232 -254t336 -94zM1452 1108v-340l-88 84q-60 -76 -148 -122t-192 -46q-116 0 -214 56
t-156 154t-58 214t58 214t156 156t214 58q128 0 234 -70t158 -186h-200q-76 84 -188 84t-186 -74t-74 -180t74 -182t182 -76q68 0 126 34t94 90l-136 132h344z" />
</svg>
