<?xml version="1.0" standalone="no"?>
<!DOCTYPE svg PUBLIC "-//W3C//DTD SVG 1.1//EN" "http://www.w3.org/Graphics/SVG/1.1/DTD/svg11.dtd" >
<svg xmlns="http://www.w3.org/2000/svg" xmlns:xlink="http://www.w3.org/1999/xlink" version="1.1" width="2048" height="2048" viewBox="-10 0 2068 2048">
   <path fill="currentColor"
d="M202 0h1644q82 0 142 60t60 142v1231q0 86 -60 146t-142 60h-413l-409 409l-409 -409h-413q-82 0 -142 -60t-60 -146v-1231q0 -82 60 -142t142 -60zM1740 1332v-822l-408 413l-207 -207l-615 616h1230zM510 308q-82 0 -142 60t-60 144t60 144t144 60t144 -60t60 -144
t-60 -144t-146 -60z" />
</svg>
