<?xml version="1.0" standalone="no"?>
<!DOCTYPE svg PUBLIC "-//W3C//DTD SVG 1.1//EN" "http://www.w3.org/Graphics/SVG/1.1/DTD/svg11.dtd" >
<svg xmlns="http://www.w3.org/2000/svg" xmlns:xlink="http://www.w3.org/1999/xlink" version="1.1" width="2048" height="2048" viewBox="-10 0 2068 2048">
   <path fill="currentColor"
d="M1846 308q82 0 142 60t60 142v1028q0 82 -60 142t-142 60h-1644q-82 0 -142 -60t-60 -142v-1028q0 -82 60 -142t142 -60h1644zM1639 1538v-206h-562l-207 206h769zM409 1538h254l702 -706q20 -15 20 -36.5t-20 -35.5l-178 -183q-14 -15 -35.5 -15t-36.5 15l-706 707v254z
" />
</svg>
