<?xml version="1.0" standalone="no"?>
<!DOCTYPE svg PUBLIC "-//W3C//DTD SVG 1.1//EN" "http://www.w3.org/Graphics/SVG/1.1/DTD/svg11.dtd" >
<svg xmlns="http://www.w3.org/2000/svg" xmlns:xlink="http://www.w3.org/1999/xlink" version="1.1" width="2048" height="2048" viewBox="-10 0 2068 2048">
   <path fill="currentColor"
d="M510 0q-145 0 -270 91q-110 82 -175 224t-65 300.5t62.5 346t139.5 269.5q29 24 58 110q19 53 62 188q77 250 125 351q82 168 168 168q130 0 202 -72q58 -63 82 -178q14 -72 24 -216q10 -130 24 -178q24 -72 77 -72t77 72q14 48 24 178q10 144 24 216q24 115 82 178
q72 72 202 72q86 0 168 -168q48 -101 125 -351q43 -135 62 -188q29 -86 58 -110q77 -82 139.5 -269.5t62.5 -346t-65 -300.5t-175 -224q-125 -91 -270 -91q-115 0 -197 19q-48 10 -120 39q-53 24 -82 29q-53 14 -115 14t-115 -14q-29 -5 -82 -29q-72 -29 -120 -39
q-82 -19 -197 -19zM510 202q72 0 139 19q43 10 120 34t116 33q72 20 139 20t139 -20q39 -9 116 -33t120 -34q67 -19 139 -19q125 0 216.5 127.5t91.5 285.5q0 135 -57.5 289t-129.5 231q-29 28 -73 149q-28 72 -81 240q-48 163 -68 221q-33 91 -52.5 91t-36 -72t-16.5 -168
q0 -192 -63 -312q-77 -159 -245 -159t-245 159q-63 120 -63 312q0 96 -16.5 168t-36 72t-52.5 -91q-20 -58 -68 -221q-53 -168 -81 -240q-44 -121 -73 -149q-72 -77 -129.5 -231t-57.5 -289q0 -158 91.5 -285.5t216.5 -127.5z" />
</svg>
