<?xml version="1.0" standalone="no"?>
<!DOCTYPE svg PUBLIC "-//W3C//DTD SVG 1.1//EN" "http://www.w3.org/Graphics/SVG/1.1/DTD/svg11.dtd" >
<svg xmlns="http://www.w3.org/2000/svg" xmlns:xlink="http://www.w3.org/1999/xlink" version="1.1" width="2048" height="2048" viewBox="-10 0 2058 2048">
   <path fill="currentColor"
d="M1024 683q-96 0 -162.5 -67t-66.5 -160t66.5 -160t162.5 -67t162.5 67t66.5 160t-66.5 160t-162.5 67zM1024 1253q-96 0 -162.5 -66.5t-66.5 -162.5t66.5 -162.5t162.5 -66.5t162.5 66.5t66.5 162.5t-66.5 162.5t-162.5 66.5zM1024 1819q-96 0 -162.5 -67t-66.5 -160
t66.5 -160t162.5 -67t162.5 67t66.5 160t-66.5 160t-162.5 67zM1936 795h-341v-128q149 -38 245 -160.5t96 -277.5h-341v-117q0 -48 -35 -80t-83 -32h-906q-48 0 -83 32t-35 80v117h-341q0 155 96 277.5t245 160.5v128h-341q0 160 96 280t245 162v128h-341q0 155 96 277.5
t245 160.5v133q0 48 35 80t83 32h906q48 0 83 -32t35 -80v-133q149 -38 245 -160.5t96 -277.5h-341v-128q149 -42 245 -162t96 -280z" />
</svg>
