<?xml version="1.0" standalone="no"?>
<!DOCTYPE svg PUBLIC "-//W3C//DTD SVG 1.1//EN" "http://www.w3.org/Graphics/SVG/1.1/DTD/svg11.dtd" >
<svg xmlns="http://www.w3.org/2000/svg" xmlns:xlink="http://www.w3.org/1999/xlink" version="1.1" width="2048" height="2048" viewBox="-10 0 2066 2048">
   <path fill="currentColor"
d="M1024 2048l-408 -412h816zM1844 0q82 0 142 60t60 146v1022q0 86 -60 146t-142 60h-1640q-82 0 -142 -60t-60 -146v-1022q0 -86 60 -146t142 -60h1640zM1638 1228v-206h-561l-206 206h767zM410 1228h254l701 -705q19 -15 19 -36.5t-19 -35.5l-178 -178q-14 -19 -35.5 -19
t-36.5 19l-705 701v254z" />
</svg>
