<?xml version="1.0" standalone="no"?>
<!DOCTYPE svg PUBLIC "-//W3C//DTD SVG 1.1//EN" "http://www.w3.org/Graphics/SVG/1.1/DTD/svg11.dtd" >
<svg xmlns="http://www.w3.org/2000/svg" xmlns:xlink="http://www.w3.org/1999/xlink" version="1.1" width="2048" height="2048" viewBox="-10 0 2058 2048">
   <path fill="currentColor"
d="M1024 0q-394 0 -592 71q-273 101 -273 359v1026q0 157 111.5 266t268.5 109l-162 161v56h242l213 -217h409l213 217h217v-56l-162 -161q157 0 268.5 -109t111.5 -266v-1026q0 -258 -253 -359q-192 -71 -612 -71zM539 1618q-66 0 -114 -48t-48 -116t48 -113.5t113.5 -45.5
t113.5 45.5t48 113.5t-48 116t-113 48zM918 860h-541v-430h541v430zM1130 860v-430h541v430h-541zM1509 1618q-65 0 -113 -48t-48 -116t48 -113.5t113.5 -45.5t113.5 45.5t48 113.5t-48 116t-114 48z" />
</svg>
