<?xml version="1.0" standalone="no"?>
<!DOCTYPE svg PUBLIC "-//W3C//DTD SVG 1.1//EN" "http://www.w3.org/Graphics/SVG/1.1/DTD/svg11.dtd" >
<svg xmlns="http://www.w3.org/2000/svg" xmlns:xlink="http://www.w3.org/1999/xlink" version="1.1" width="2048" height="2048" viewBox="-10 0 2068 2048">
   <path fill="currentColor"
d="M1231 1024h154v288l250 145l-77 134l-327 -187v-380zM202 0h1437q87 0 147 60t60 142v625q96 101 149 230.5t53 274.5q0 197 -96 360.5t-259.5 259.5t-360.5 96q-145 0 -274.5 -53t-230.5 -149h-625q-82 0 -142 -60t-60 -147v-1437q0 -82 60 -142t142 -60zM202 1332v307
h481q-68 -144 -68 -307h-413zM202 615h615v-307h-615v307zM1639 615v-307h-615v307h615zM202 1125h442q53 -178 183 -308h-625v308zM1332 837q-101 0 -192.5 36t-161 105.5t-105.5 161t-36 192.5q0 134 64.5 249.5t180 180.5t250.5 65q101 0 192 -36t161 -106t106 -161
t36 -192q0 -135 -65 -250.5t-180.5 -180t-249.5 -64.5z" />
</svg>
