<?xml version="1.0" standalone="no"?>
<!DOCTYPE svg PUBLIC "-//W3C//DTD SVG 1.1//EN" "http://www.w3.org/Graphics/SVG/1.1/DTD/svg11.dtd" >
<svg xmlns="http://www.w3.org/2000/svg" xmlns:xlink="http://www.w3.org/1999/xlink" version="1.1" width="2048" height="2048" viewBox="-10 0 2068 2048">
   <path fill="currentColor"
d="M2048 1024q0 202 -77 392t-221 334t-334 221t-392 77t-392 -77t-334 -221t-221 -334t-77 -392t77 -392t221 -334t334 -221t392 -77t392 77t334 221t221 334t77 392zM1264 587q44 24 94.5 12t74.5 -55.5t12 -94t-58 -77t-94 -12t-74.5 58t-12 93.5t57.5 75zM1010 1385
q-82 0 -149 -34l-87 154q120 53 236 53q72 0 144 -20q14 -81 84 -122t151 -12q145 -140 159 -346h-178q-9 134 -112.5 230.5t-247.5 96.5zM1010 663q144 0 247.5 94t112.5 233h178q-14 -206 -159 -346q-81 29 -151 -12t-84 -122q-72 -20 -144 -20q-125 0 -236 53l87 154
q67 -34 149 -34zM654 1024q0 -91 41 -168t108 -125l-87 -154q-173 115 -221 312q63 53 63 135t-63 135q24 96 82 175t139 137l87 -154q-67 -48 -108 -125t-41 -168zM1264 1461q-43 25 -57.5 75t12 93.5t74.5 58t94 -12t58 -77t-12 -94t-74.5 -55.5t-94.5 12zM385 899
q-53 0 -89 36t-36 89t36 89t88.5 36t86.5 -36t34 -89t-34 -89t-86 -36z" />
</svg>
