<?xml version="1.0" standalone="no"?>
<!DOCTYPE svg PUBLIC "-//W3C//DTD SVG 1.1//EN" "http://www.w3.org/Graphics/SVG/1.1/DTD/svg11.dtd" >
<svg xmlns="http://www.w3.org/2000/svg" xmlns:xlink="http://www.w3.org/1999/xlink" version="1.1" width="2048" height="2048" viewBox="-10 0 2058 2048">
   <path fill="currentColor"
d="M1024 202q-240 0 -430 142t-257 372h1374q-67 -226 -259 -370t-428 -144zM1024 0q250 0 461.5 122.5t336.5 336.5t125 464h-822v817q0 130 -89 219t-216.5 89t-218.5 -89t-91 -219v-101h206v101q0 44 29 75t72.5 31t74.5 -31t31 -75v-817h-822q0 -250 125 -464
t336.5 -336.5t461.5 -122.5z" />
</svg>
