<?xml version="1.0" standalone="no"?>
<!DOCTYPE svg PUBLIC "-//W3C//DTD SVG 1.1//EN" "http://www.w3.org/Graphics/SVG/1.1/DTD/svg11.dtd" >
<svg xmlns="http://www.w3.org/2000/svg" xmlns:xlink="http://www.w3.org/1999/xlink" version="1.1" width="2048" height="2048" viewBox="-10 0 2068 2048">
   <path fill="currentColor"
d="M430 918h-430v-218h430v-106h-213q-91 0 -154 -63t-63 -154v-106q0 -91 63 -154.5t154 -63.5h213q91 0 154 63.5t63 154.5v429q0 91 -63 154.5t-154 63.5zM430 271h-213v106h213v-106zM217 1130h213q91 0 154 63.5t63 154.5v429q0 91 -63 154.5t-154 63.5h-213
q-91 0 -154 -63.5t-63 -154.5v-429q0 -91 63 -154.5t154 -63.5zM217 1777h213v-429h-213v429zM971 271h1077v212h-1077v-212zM971 1777v-212h1077v212h-1077zM971 918h1077v212h-1077v-212z" />
</svg>
