<?xml version="1.0" standalone="no"?>
<!DOCTYPE svg PUBLIC "-//W3C//DTD SVG 1.1//EN" "http://www.w3.org/Graphics/SVG/1.1/DTD/svg11.dtd" >
<svg xmlns="http://www.w3.org/2000/svg" xmlns:xlink="http://www.w3.org/1999/xlink" version="1.1" width="2048" height="2048" viewBox="-10 0 2068 2048">
   <path fill="currentColor"
d="M2048 388q-110 51 -239 69q133 -83 184 -234q-124 73 -266 101q-124 -133 -313 -133q-170 0 -294 124t-124 298q0 46 14 96q-257 -13 -484.5 -130.5t-383.5 -309.5q-55 96 -55 208.5t50.5 204.5t133.5 147q-97 0 -188 -51v5q0 151 96.5 266t238.5 147q-51 14 -110 14
q-37 0 -78 -9q41 128 149 208.5t241 85.5q-225 179 -519 179q-50 0 -101 -5q294 188 643 188q367 0 652 -188q262 -165 409 -450q137 -271 137 -555l-4 -56q124 -87 211 -220z" />
</svg>
