<?xml version="1.0" standalone="no"?>
<!DOCTYPE svg PUBLIC "-//W3C//DTD SVG 1.1//EN" "http://www.w3.org/Graphics/SVG/1.1/DTD/svg11.dtd" >
<svg xmlns="http://www.w3.org/2000/svg" xmlns:xlink="http://www.w3.org/1999/xlink" version="1.1" width="2048" height="2048" viewBox="-10 0 2068 2048">
   <path fill="currentColor"
d="M1609 0q60 0 103 41t43 103t-43 105.5t-103 43.5q-36 0 -64 -19l-361 361l32 46q338 -196 731 -196l101 4v197l-101 -5q-374 0 -681 201q0 160 -112 272t-272 112q-201 307 -201 681l5 101h-197l-4 -101q0 -393 196 -731l-46 -32l-361 361q19 28 19 64q0 60 -43.5 103
t-105.5 43t-103 -43t-41 -105t41 -103t105 -41q32 0 64 14l357 -362q-82 -105 -82 -237q0 -165 114 -279t279 -114q132 0 237 82l362 -357q-14 -32 -14 -64q0 -64 41 -105t105 -41zM878 681q-83 0 -140 57t-57 137t57 137.5t137 57.5t137.5 -57.5t57.5 -137.5t-57.5 -137
t-134.5 -57z" />
</svg>
