<?xml version="1.0" standalone="no"?>
<!DOCTYPE svg PUBLIC "-//W3C//DTD SVG 1.1//EN" "http://www.w3.org/Graphics/SVG/1.1/DTD/svg11.dtd" >
<svg xmlns="http://www.w3.org/2000/svg" xmlns:xlink="http://www.w3.org/1999/xlink" version="1.1" width="2048" height="2048" viewBox="-10 0 2068 2048">
   <path fill="currentColor"
d="M1445 996q0 -84 -14 -201h336q29 107 29 201q0 51 -10 107q103 15 192 66q14 -89 14 -173q0 -271 -133.5 -500t-362.5 -362.5t-500 -133.5t-500 133.5t-362.5 362.5t-133.5 500t133.5 500t362.5 362.5t500 133.5q84 0 173 -14q-75 -131 -75 -285q0 -33 9 -85
q-51 103 -107 183q-131 -192 -192 -398h374q89 -159 257 -238q10 -89 10 -159zM996 201q131 192 192 398h-384q61 -206 192 -398zM224 1197q-28 -108 -28 -201.5t28 -200.5h337q-14 117 -14 201t14 201h-337zM304 1393h295q56 201 140 356q-140 -47 -250 -138t-185 -218z
M599 599h-295q75 -127 185 -218t250 -138q-84 154 -140 356zM1230 1197h-468q-14 -108 -14 -201.5t14 -200.5h468q14 117 14 201t-14 201zM1253 243q140 47 250 138t185 218h-295q-51 -192 -140 -356zM1833 1693l215 215l-140 140l-215 -215l-211 215l-140 -140l210 -215
l-210 -211l140 -140l211 210l215 -210l140 140z" />
</svg>
