<?xml version="1.0" standalone="no"?>
<!DOCTYPE svg PUBLIC "-//W3C//DTD SVG 1.1//EN" "http://www.w3.org/Graphics/SVG/1.1/DTD/svg11.dtd" >
<svg xmlns="http://www.w3.org/2000/svg" xmlns:xlink="http://www.w3.org/1999/xlink" version="1.1" width="2048" height="2048" viewBox="-10 0 2068 2048">
   <path fill="currentColor"
d="M1622 1110v-172q0 -35 -25 -60t-60 -25h-342v-341q0 -35 -25 -60t-60 -25h-171q-35 0 -60.5 25t-25.5 60v341h-341q-35 0 -60 25t-25 60v172q0 35 25 60t60 25h341v341q0 35 25.5 60.5t60.5 25.5h171q35 0 60 -25.5t25 -60.5v-341h342q35 0 60 -25t25 -60zM2048 1024.5
q0 139.5 -36.5 272t-102.5 245t-160.5 207t-207 160.5t-245 102.5t-272 36.5t-272 -36.5t-245 -102.5t-207 -160.5t-160.5 -207t-103 -245t-37 -272t37 -272t103 -245t160.5 -207t207 -160.5t245 -103t272 -37t272 37t245 103t207 160.5t160.5 207t102.5 245t36.5 272z" />
</svg>
