<?xml version="1.0" standalone="no"?>
<!DOCTYPE svg PUBLIC "-//W3C//DTD SVG 1.1//EN" "http://www.w3.org/Graphics/SVG/1.1/DTD/svg11.dtd" >
<svg xmlns="http://www.w3.org/2000/svg" xmlns:xlink="http://www.w3.org/1999/xlink" version="1.1" width="2048" height="2048" viewBox="-10 0 2068 2048">
   <path fill="currentColor"
d="M1947 101h-1846q-48 0 -74.5 29t-26.5 72v615q0 48 26.5 77t74.5 29h1846q48 0 74.5 -29t26.5 -77v-615q0 -43 -26.5 -72t-74.5 -29zM1947 1125h-1846q-48 0 -74.5 29t-26.5 77v615q0 43 26.5 72t74.5 29h1846q48 0 74.5 -29t26.5 -72v-615q0 -48 -26.5 -77t-74.5 -29z
" />
</svg>
