<?xml version="1.0" standalone="no"?>
<!DOCTYPE svg PUBLIC "-//W3C//DTD SVG 1.1//EN" "http://www.w3.org/Graphics/SVG/1.1/DTD/svg11.dtd" >
<svg xmlns="http://www.w3.org/2000/svg" xmlns:xlink="http://www.w3.org/1999/xlink" version="1.1" width="2048" height="2048" viewBox="-10 0 2068 2048">
   <path fill="currentColor"
d="M197 0h196v197h-196v196h-197v-196q0 -83 57 -140t140 -57zM1271 0q78 0 135 57t57 140v196h-192v-196h-197v-197h197zM1856 585q78 0 135 57t57 140v196h-192v-196h-197v-197h197zM2048 1856q0 78 -57 135t-135 57h-197v-192h197v-197h192v197zM1856 1170h192v293h-192
v-293zM1170 782v-197h293v293h-192v-96h-101zM1170 2048v-192h293v192h-293zM782 2048q-83 0 -140 -57t-57 -135v-197h197v197h196v192h-196zM585 1463v-293h197v101h96v192h-293zM585 197v-197h293v197h-293zM197 1463q-83 0 -140 -57t-57 -135v-197h197v197h196v192h-196z
M0 585h197v293h-197v-293zM782 585h196v197h-196v196h-197v-196q0 -83 57 -140t140 -57zM1463 1271q0 78 -57 135t-135 57h-197v-192h197v-197h192v197z" />
</svg>
