<?xml version="1.0" standalone="no"?>
<!DOCTYPE svg PUBLIC "-//W3C//DTD SVG 1.1//EN" "http://www.w3.org/Graphics/SVG/1.1/DTD/svg11.dtd" >
<svg xmlns="http://www.w3.org/2000/svg" xmlns:xlink="http://www.w3.org/1999/xlink" version="1.1" width="2048" height="2048" viewBox="-10 0 2068 2048">
   <path fill="currentColor"
d="M716 769q44 0 72.5 29t28.5 72t-28.5 72t-72 29t-72.5 -29t-29 -72t29 -72t72 -29zM1332 769q43 0 72 29t29 72t-29 72t-72.5 29t-72 -29t-28.5 -72t28.5 -72t72.5 -29zM101 1586l101 -307h-101q-43 0 -72 -29t-29 -72v-616q0 -43 29 -71.5t72 -28.5h1846q43 0 72 28.5
t29 71.5v616q0 43 -29 72t-72 29h-101l101 307h-207l-101 -307h-1230l-101 307h-207zM1125 663v414h721v-414h-721zM202 663v414h721v-414h-721z" />
</svg>
