<?xml version="1.0" standalone="no"?>
<!DOCTYPE svg PUBLIC "-//W3C//DTD SVG 1.1//EN" "http://www.w3.org/Graphics/SVG/1.1/DTD/svg11.dtd" >
<svg xmlns="http://www.w3.org/2000/svg" xmlns:xlink="http://www.w3.org/1999/xlink" version="1.1" width="2048" height="2048" viewBox="-10 0 2069 2048">
   <path fill="currentColor"
d="M2047 544q-15 302 -418 821q-413 548 -706 548q-178 0 -303 -336l-168 -606q-92 -331 -197 -331q-20 0 -159 96l-96 -125q101 -87 298 -264v-5q202 -173 303 -183q240 -24 298 327q57 380 81 471q63 312 149 312q67 0 197 -201.5t140 -307.5q14 -178 -140 -178
q-77 0 -154 34q154 -495 577 -481q317 10 298 409z" />
</svg>
