<?xml version="1.0" standalone="no"?>
<!DOCTYPE svg PUBLIC "-//W3C//DTD SVG 1.1//EN" "http://www.w3.org/Graphics/SVG/1.1/DTD/svg11.dtd" >
<svg xmlns="http://www.w3.org/2000/svg" xmlns:xlink="http://www.w3.org/1999/xlink" version="1.1" width="2048" height="2048" viewBox="-10 0 2068 2048">
   <path fill="currentColor"
d="M966 784q5 19 5 33v539q0 77 -53 134l-283 318l-351 -351l125 -125l288 -1245q10 -39 41 -63t74.5 -24t77 33.5t33.5 77.5v509q-29 -5 -53 -5q-86 0 -146.5 60.5t-60.5 141.5v308q0 24 17 38.5t36.5 14.5t36 -14.5t16.5 -38.5v-308q0 -38 29 -69.5t72 -31.5q24 0 53 15
q14 9 29 29zM0 1740l409 308l120 -130l-356 -351zM1639 1332l-288 -1245q-10 -39 -41 -63t-74.5 -24t-77 33.5t-33.5 77.5v509q29 -5 53 -5q86 0 146.5 60.5t60.5 141.5v308q0 24 -17 38.5t-36.5 14.5t-36 -14.5t-16.5 -38.5v-308q0 -38 -29 -69.5t-72 -31.5q-24 0 -53 15
q-14 9 -29 29l-14 24q-5 19 -5 33v539q0 77 53 134l283 318l351 -351zM1875 1567l-356 351l120 130l409 -308z" />
</svg>
