<?xml version="1.0" standalone="no"?>
<!DOCTYPE svg PUBLIC "-//W3C//DTD SVG 1.1//EN" "http://www.w3.org/Graphics/SVG/1.1/DTD/svg11.dtd" >
<svg xmlns="http://www.w3.org/2000/svg" xmlns:xlink="http://www.w3.org/1999/xlink" version="1.1" width="2048" height="2048" viewBox="-10 0 2068 2048">
   <path fill="currentColor"
d="M1532 1326q0 -35 -25 -61l-241 -240l241 -242q25 -26 25 -61t-25 -60l-119 -121q-26 -25 -62 -25q-34 0 -60 25l-241 242l-242 -242q-26 -25 -61 -25t-60 25l-121 121q-25 25 -25 60t25 61l242 242l-242 240q-25 26 -25 61t25 60l121 121q25 25 60 25t61 -25l242 -242
l241 242q26 25 60 25q36 0 62 -25l119 -121q25 -25 25 -60zM2048 1024.5q0 139.5 -36.5 272t-102.5 245t-160.5 207t-207 160.5t-245 102.5t-272 36.5t-272 -36.5t-245 -102.5t-207 -160.5t-160.5 -207t-103 -245t-37 -272t37 -272t103 -245t160.5 -207t207 -160.5t245 -103
t272 -37t272 37t245 103t207 160.5t160.5 207t102.5 245t36.5 272z" />
</svg>
