<?xml version="1.0" standalone="no"?>
<!DOCTYPE svg PUBLIC "-//W3C//DTD SVG 1.1//EN" "http://www.w3.org/Graphics/SVG/1.1/DTD/svg11.dtd" >
<svg xmlns="http://www.w3.org/2000/svg" xmlns:xlink="http://www.w3.org/1999/xlink" version="1.1" width="2048" height="2048" viewBox="-10 0 2068 2048">
   <path fill="currentColor"
d="M1846 1281h-1644v-615h308v202h206v-202h616v202h206v-202h308v615zM1846 1791h-1644v-202h1644v202zM716 252h616v207h-616v-207zM1846 459h-308v-207q0 -81 -60 -141.5t-146 -60.5h-616q-86 0 -146 60.5t-60 141.5v207h-308q-82 0 -142 60t-60 147v1125q0 86 60 146.5
t142 60.5h1644q82 0 142 -60.5t60 -146.5v-1125q0 -87 -60 -147t-142 -60z" />
</svg>
