<?xml version="1.0" standalone="no"?>
<!DOCTYPE svg PUBLIC "-//W3C//DTD SVG 1.1//EN" "http://www.w3.org/Graphics/SVG/1.1/DTD/svg11.dtd" >
<svg xmlns="http://www.w3.org/2000/svg" xmlns:xlink="http://www.w3.org/1999/xlink" version="1.1" width="2048" height="2048" viewBox="-10 0 2058 2048">
   <path fill="currentColor"
d="M512 1024q0 -140 68 -258t186 -186t258 -68t258 68t186 186t68 258t-68 258t-186 186t-258 68t-258 -68t-186 -186t-68 -258zM1708 1024q0 -160 -70 -300t-190 -236l-84 -488h-680l-84 488q-120 96 -190 236t-70 300t70 300t190 236l84 488h680l84 -488q120 -96 190 -236
t70 -300z" />
</svg>
