<?xml version="1.0" standalone="no"?>
<!DOCTYPE svg PUBLIC "-//W3C//DTD SVG 1.1//EN" "http://www.w3.org/Graphics/SVG/1.1/DTD/svg11.dtd" >
<svg xmlns="http://www.w3.org/2000/svg" xmlns:xlink="http://www.w3.org/1999/xlink" version="1.1" width="2048" height="2048" viewBox="-10 0 2058 2048">
   <path fill="currentColor"
d="M1176 920h458v-167h-339l-190 -313q-17 -35 -54.5 -57t-81.5 -22q-22 0 -44 9l-511 159v488h167v-348l199 -61l-366 1440h167l273 -762l216 295v467h172v-599l-233 -427l66 -269zM1167 339q71 0 119.5 -48.5t48.5 -119t-48.5 -121t-119 -50.5t-121.5 50.5t-51 121t51 119
t121 48.5z" />
</svg>
