<?xml version="1.0" standalone="no"?>
<!DOCTYPE svg PUBLIC "-//W3C//DTD SVG 1.1//EN" "http://www.w3.org/Graphics/SVG/1.1/DTD/svg11.dtd" >
<svg xmlns="http://www.w3.org/2000/svg" xmlns:xlink="http://www.w3.org/1999/xlink" version="1.1" width="2048" height="2048" viewBox="-10 0 2058 2048">
   <path fill="currentColor"
d="M1076 940h424l-212 -216l120 -120l420 420l-420 420l-120 -120l212 -216h-424v-168zM904 1536q-140 0 -258 -68t-186 -186t-68 -258t68 -258t186 -186t258 -68q176 0 316 112l120 -124l-12 -12l-84 -488h-680l-84 488q-120 96 -190 236t-70 300t70 300t190 236l84 488
h680l84 -488l12 -12l-120 -124q-140 112 -316 112z" />
</svg>
