<?xml version="1.0" standalone="no"?>
<!DOCTYPE svg PUBLIC "-//W3C//DTD SVG 1.1//EN" "http://www.w3.org/Graphics/SVG/1.1/DTD/svg11.dtd" >
<svg xmlns="http://www.w3.org/2000/svg" xmlns:xlink="http://www.w3.org/1999/xlink" version="1.1" width="2048" height="2048" viewBox="-10 0 2058 2048">
   <path fill="currentColor"
d="M1024 0q-210 0 -390.5 105t-286 283.5t-105.5 388.5q0 197 89.5 363.5t247 276.5t349.5 137v101h-101q-41 0 -68.5 29.5t-27.5 70.5h-681v192h681q0 42 27.5 71.5t68.5 29.5h394q41 0 68.5 -29.5t27.5 -71.5h681v-192h-681q0 -41 -27.5 -70.5t-68.5 -29.5h-101v-101
q192 -27 349.5 -137t247 -276.5t89.5 -363.5q0 -210 -105.5 -388.5t-286 -283.5t-390.5 -105zM1024 192q23 41 41 87q50 100 82 206h-246q32 -106 82 -206zM805 238q-55 100 -101 247h-187q109 -179 288 -247zM1243 238q183 68 288 247h-187q-46 -147 -101 -247zM448 681
h215q-5 55 -5 96t5 101h-215q-9 -51 -9 -99t9 -98zM859 681h330q4 55 4 96t-4 101h-330q-4 -60 -4 -101t4 -96zM1385 681h215q9 50 9 98t-9 99h-215q5 -60 5 -101t-5 -96zM517 1070h187q46 151 101 251q-183 -73 -288 -251zM901 1070h246q-32 105 -82 210l-41 82l-41 -82
q-50 -105 -82 -210zM1344 1070h187q-109 178 -288 251q55 -105 101 -251z" />
</svg>
