<?xml version="1.0" standalone="no"?>
<!DOCTYPE svg PUBLIC "-//W3C//DTD SVG 1.1//EN" "http://www.w3.org/Graphics/SVG/1.1/DTD/svg11.dtd" >
<svg xmlns="http://www.w3.org/2000/svg" xmlns:xlink="http://www.w3.org/1999/xlink" version="1.1" width="2048" height="2048" viewBox="-10 0 2068 2048">
   <path fill="currentColor"
d="M1846 1281h-1644v-615h524l-216 288l168 120l346 -471l346 471l168 -120l-216 -288h524v615zM1846 1791h-1644v-202h1644v202zM716 252q44 0 72.5 31.5t28.5 74.5t-28.5 72t-72 29t-72.5 -29t-29 -72t29 -74.5t72 -31.5zM1332 252q43 0 72 31.5t29 74.5t-29 72t-72.5 29
t-72 -29t-28.5 -72t28.5 -74.5t72.5 -31.5zM1846 459h-226q19 -53 19 -101q0 -130 -89 -219t-218 -89q-77 0 -144.5 36.5t-110.5 98.5l-53 67l-53 -67q-43 -62 -110.5 -98.5t-144.5 -36.5q-129 0 -218 89t-89 219q0 48 19 101h-226q-82 0 -142 60t-60 147v1125
q0 86 60 146.5t142 60.5h1644q82 0 142 -60.5t60 -146.5v-1125q0 -87 -60 -147t-142 -60z" />
</svg>
