<?xml version="1.0" standalone="no"?>
<!DOCTYPE svg PUBLIC "-//W3C//DTD SVG 1.1//EN" "http://www.w3.org/Graphics/SVG/1.1/DTD/svg11.dtd" >
<svg xmlns="http://www.w3.org/2000/svg" xmlns:xlink="http://www.w3.org/1999/xlink" version="1.1" width="2048" height="2048" viewBox="-10 0 2068 2048">
   <path fill="currentColor"
d="M466 1394q-126 0 -233 -61t-170 -167.5t-63 -233t63 -233t170 -170t233 -63.5q70 -165 220.5 -267.5t337.5 -102.5q157 0 292 74t218 202.5t96 281.5h43q157 0 266 108.5t109 261.5t-109 261.5t-266 108.5h-91q-39 0 -65.5 -26t-26.5 -65t26.5 -65.5t65.5 -26.5h91
q79 0 133.5 -54.5t54.5 -132.5t-54.5 -132.5t-133.5 -54.5h-183v-92q0 -126 -63 -233t-170 -170t-233 -63q-174 0 -302.5 111t-155.5 281q-52 -17 -100 -17q-117 0 -198 80.5t-81 196t81 198t198 82.5h92q39 0 67.5 26.5t28.5 65.5t-28.5 65t-67.5 26h-92zM1024 932h279
l-187 371h187l-349 649l70 -462h-231z" />
</svg>
