<?xml version="1.0" standalone="no"?>
<!DOCTYPE svg PUBLIC "-//W3C//DTD SVG 1.1//EN" "http://www.w3.org/Graphics/SVG/1.1/DTD/svg11.dtd" >
<svg xmlns="http://www.w3.org/2000/svg" xmlns:xlink="http://www.w3.org/1999/xlink" version="1.1" width="2048" height="2048" viewBox="-10 0 2068 2048">
   <path fill="currentColor"
d="M466 1211q39 0 65.5 28.5t26.5 65.5t-26.5 65.5t-65.5 28.5q-126 0 -233 -63.5t-170 -170t-63 -233t63 -233t170 -167.5t233 -61q70 -170 220.5 -272.5t337.5 -102.5q157 0 292 76t218 202.5t96 283.5l43 -4q157 0 266 108.5t109 263.5t-109 264t-266 109h-91
q-39 0 -65.5 -28.5t-26.5 -65.5t26.5 -65.5t65.5 -28.5h91q79 0 133.5 -54.5t54.5 -130.5t-54.5 -130.5t-133.5 -54.5h-183v-92q0 -126 -63 -232.5t-170 -170t-233 -63.5q-174 0 -302.5 111t-155.5 277q-47 -17 -100 -17q-117 0 -198 82.5t-81 198t81 196t198 80.5z
M1024 1224q22 31 52 75q135 187 135 283q0 78 -54.5 132.5t-132.5 54.5t-132.5 -54.5t-54.5 -132.5q0 -96 135 -283zM1024 932l-48 53l-48 61q-61 74 -109 148q-78 109 -113 187q-52 109 -52 201q0 152 108.5 261t261.5 109t261.5 -109t108.5 -261q0 -92 -52 -201
q-35 -78 -113.5 -191.5t-156.5 -204.5z" />
</svg>
