<?xml version="1.0" standalone="no"?>
<!DOCTYPE svg PUBLIC "-//W3C//DTD SVG 1.1//EN" "http://www.w3.org/Graphics/SVG/1.1/DTD/svg11.dtd" >
<svg xmlns="http://www.w3.org/2000/svg" xmlns:xlink="http://www.w3.org/1999/xlink" version="1.1" width="2048" height="2048" viewBox="-10 0 2068 2048">
   <path fill="currentColor"
d="M745 1038q35 9 54.5 43.5t10.5 69.5l-122 449q-8 39 -41 56.5t-70 9t-56.5 -41.5t-6.5 -72l118 -449q9 -35 41.5 -54.5t71.5 -10.5zM1116 1038q39 9 58.5 43.5t6.5 69.5l-192 719q-9 39 -41.5 56.5t-69.5 9t-56.5 -43.5t-11.5 -70l192 -719q13 -35 46 -54.5t68 -10.5z
M1490 1038q35 9 54.5 43.5t11.5 69.5l-122 449q-9 39 -41.5 56.5t-72 9t-57 -41.5t-8.5 -72l122 -449q9 -35 41.5 -54.5t71.5 -10.5zM1490 850v-91q0 -126 -63 -233t-170 -170t-233 -63q-174 0 -302.5 111t-155.5 281q-52 -18 -100 -18q-117 0 -198 81t-81 198
q0 74 37 139.5t103 100.5q35 17 43.5 56.5t-11 72t-54.5 41.5t-70 -9q-109 -61 -172 -167.5t-63 -233t63 -233.5t170 -170t233 -63q70 -166 220.5 -268t337.5 -102q157 0 292 74t218 202.5t96 280.5h43q157 0 266 109t109 262q0 104 -50 189t-137 133q-35 18 -72 9
t-57 -43.5t-9 -72t46 -54.5q39 -26 65.5 -67.5t26.5 -93.5q0 -79 -54.5 -133.5t-133.5 -54.5h-183z" />
</svg>
