<?xml version="1.0" standalone="no"?>
<!DOCTYPE svg PUBLIC "-//W3C//DTD SVG 1.1//EN" "http://www.w3.org/Graphics/SVG/1.1/DTD/svg11.dtd" >
<svg xmlns="http://www.w3.org/2000/svg" xmlns:xlink="http://www.w3.org/1999/xlink" version="1.1" width="2048" height="2048" viewBox="-10 0 2068 2048">
   <path fill="currentColor"
d="M409 409l72 4q48 -182 199.5 -297.5t343.5 -115.5q111 0 214 43.5t182.5 122.5t122.5 182.5t43 213.5l-4 97q72 -44 158 -44q130 0 219 89t89 216.5t-89 219t-219 91.5h-1331q-169 0 -289 -120.5t-120 -291t120 -290.5t289 -120zM409 615q-87 0 -147 60.5t-60 144.5
t60 144t147 60h1331q44 0 75 -29t31 -72t-31 -74.5t-75 -31.5h-355v-255q0 -149 -106 -254.5t-255 -105.5t-255 105.5t-106 254.5v53h-254zM1639 1639h-1437q-43 0 -72 -28.5t-29 -72t29 -74.5t72 -31h1437q130 0 219 91t89 218.5t-89 216.5t-216.5 89t-218.5 -87
q-29 -33 -29 -74t29 -72t72 -31t72 31t72.5 31t72 -31t28.5 -74.5t-28.5 -72.5t-72.5 -29z" />
</svg>
