<?xml version="1.0" standalone="no"?>
<!DOCTYPE svg PUBLIC "-//W3C//DTD SVG 1.1//EN" "http://www.w3.org/Graphics/SVG/1.1/DTD/svg11.dtd" >
<svg xmlns="http://www.w3.org/2000/svg" xmlns:xlink="http://www.w3.org/1999/xlink" version="1.1" width="2048" height="2048" viewBox="-10 0 2068 2048">
   <path fill="currentColor"
d="M1471 1231q15 -120 15 -207t-15 -207h346q29 111 29 207t-29 207h-346zM1288 1798q92 -168 145 -365h303q-77 129 -190 223t-258 142zM1264 1231h-480q-15 -111 -15 -207t15 -207h480q15 120 15 207t-15 207zM1024 1841q-135 -197 -197 -408h394q-62 211 -197 408z
M615 615h-303q77 -129 190 -223t258 -142q-87 159 -145 365zM312 1433h303q58 206 145 365q-145 -48 -258 -142t-190 -223zM231 1231q-29 -111 -29 -207t29 -207h346q-15 120 -15 207t15 207h-346zM1024 207q135 197 197 408h-394q62 -211 197 -408zM1736 615h-303
q-53 -197 -145 -365q145 48 258 142t190 223zM1024 0q-279 0 -514.5 137t-372.5 372.5t-137 514.5q0 202 77 392t221 334t334 221t392 77t392 -77t334 -221t221 -334t77 -392t-77 -392t-221 -334t-334 -221t-392 -77z" />
</svg>
