<?xml version="1.0" standalone="no"?>
<!DOCTYPE svg PUBLIC "-//W3C//DTD SVG 1.1//EN" "http://www.w3.org/Graphics/SVG/1.1/DTD/svg11.dtd" >
<svg xmlns="http://www.w3.org/2000/svg" xmlns:xlink="http://www.w3.org/1999/xlink" version="1.1" width="2048" height="2048" viewBox="-10 0 2058 2048">
   <path fill="currentColor"
d="M1024 510q139 0 257 69.5t187.5 187.5t69.5 257t-69.5 257t-187.5 187.5t-257 69.5t-257 -69.5t-187.5 -187.5t-69.5 -257t69.5 -257t187.5 -187.5t257 -69.5zM1024 716q-130 0 -219 89t-89 219t89 219t219 89t219 -89t89 -219t-89 -219t-219 -89zM1024 0l245 351
q-120 -43 -245 -43t-245 43zM135 510l427 -34q-96 82 -158.5 187.5t-86.5 235.5zM139 1538l178 -389q24 125 86.5 233t158.5 195zM1913 510l-182 389q-24 -125 -86.5 -235.5t-158.5 -187.5zM1909 1538l-423 34q96 -82 158.5 -190t86.5 -233zM1024 2048l-245 -351
q120 43 242.5 43t247.5 -43z" />
</svg>
