<?xml version="1.0" standalone="no"?>
<!DOCTYPE svg PUBLIC "-//W3C//DTD SVG 1.1//EN" "http://www.w3.org/Graphics/SVG/1.1/DTD/svg11.dtd" >
<svg xmlns="http://www.w3.org/2000/svg" xmlns:xlink="http://www.w3.org/1999/xlink" version="1.1" width="2048" height="2048" viewBox="-10 0 2058 2048">
   <path fill="currentColor"
d="M1622 301l-247 192l87 297l-255 -178l-256 178l87 -297l-247 -192l311 -9l105 -292l105 292zM1960 977l-160 118l59 197l-164 -115l-169 115l59 -197l-159 -118l200 -5l69 -192l64 192zM1741 1456q36 -5 75 27t50 75.5t-11 79.5q-51 73 -105 124q-187 187 -438 253
t-502.5 0t-438.5 -253t-251 -438.5t0 -502.5t251 -438q60 -59 124 -105q36 -22 81.5 -8.5t75.5 50t25 77.5q-18 210 52.5 415.5t228 363t363 230.5t420.5 50zM1581 1652q-210 -9 -408.5 -95.5t-354 -242t-242 -351.5t-95.5 -406q-137 150 -180.5 344t11.5 386t198.5 335.5
t335.5 198.5t388 11.5t347 -180.5z" />
</svg>
