<?xml version="1.0" standalone="no"?>
<!DOCTYPE svg PUBLIC "-//W3C//DTD SVG 1.1//EN" "http://www.w3.org/Graphics/SVG/1.1/DTD/svg11.dtd" >
<svg xmlns="http://www.w3.org/2000/svg" xmlns:xlink="http://www.w3.org/1999/xlink" version="1.1" width="2048" height="2048" viewBox="-10 0 2068 2048">
   <path fill="currentColor"
d="M466 1211q39 0 65.5 26.5t26.5 65.5t-26.5 65t-65.5 26q-126 0 -233 -61t-170 -167.5t-63 -233t63 -233t170 -170t233 -63.5q70 -165 220.5 -267.5t337.5 -102.5q157 0 292 74t218 202.5t96 281.5h43q157 0 266 108.5t109 261.5t-109 261.5t-266 108.5h-91
q-39 0 -65.5 -26t-26.5 -65t26.5 -65.5t65.5 -26.5h91q79 0 133.5 -54.5t54.5 -132.5t-54.5 -132.5t-133.5 -54.5h-183v-92q0 -126 -63 -233t-170 -170t-233 -63q-174 0 -302.5 111t-155.5 281q-52 -17 -100 -17q-117 0 -198 80.5t-81 196t81 198t198 82.5zM837 1582
q78 0 132.5 54.5t54.5 130.5t-54.5 130.5t-130.5 54.5t-130.5 -54.5t-54.5 -130.5t54.5 -130.5t128.5 -54.5zM1255 1394q61 0 100 41.5t39 100.5t-39 98t-98 39t-100 -39t-41 -98t41 -100.5t98 -41.5zM885 1024q56 0 97.5 41.5t41.5 98t-41.5 98t-98 41.5t-98 -41.5
t-41.5 -98t41.5 -98t98.5 -41.5z" />
</svg>
