<?xml version="1.0" standalone="no"?>
<!DOCTYPE svg PUBLIC "-//W3C//DTD SVG 1.1//EN" "http://www.w3.org/Graphics/SVG/1.1/DTD/svg11.dtd" >
<svg xmlns="http://www.w3.org/2000/svg" xmlns:xlink="http://www.w3.org/1999/xlink" version="1.1" width="2048" height="2048" viewBox="-10 0 2068 2048">
   <path fill="currentColor"
d="M1143 395q170 73 257.5 238.5t55.5 344.5q91 83 146.5 200t55.5 245v19q46 -19 96 -19q124 0 209 87.5t85 209t-85 206.5t-209 85h-1272q-161 0 -275.5 -114.5t-114.5 -275.5t114.5 -275.5t275.5 -114.5h28q-97 -120 -120 -271.5t42 -293.5q59 -133 176.5 -216t259.5 -99
t275 44zM1065 574q-133 -60 -266 -9.5t-188 179.5q-32 73 -30 153.5t39 149.5q83 -96 200 -153.5t250 -57.5q101 0 197 36q-4 -96 -59 -176.5t-143 -121.5zM1221 216q-78 -37 -165 -51l248 -128l87 280q-78 -60 -170 -101zM491 294q-73 50 -128 115l14 -276l289 69
q-92 28 -175 92zM1658 808q-14 -92 -42 -165l235 147l-202 216q18 -92 9 -198zM193 964q9 88 37 166l-230 -147l197 -216q-13 101 -4 197zM1754 1621h-294v-198q0 -160 -114.5 -275t-275.5 -115t-275.5 115t-114.5 275h-198q-83 0 -140 57.5t-57 140.5t57 140t140 57h1272
q41 0 71 -29.5t30 -71t-30 -69t-71 -27.5z" />
</svg>
