<?xml version="1.0" standalone="no"?>
<!DOCTYPE svg PUBLIC "-//W3C//DTD SVG 1.1//EN" "http://www.w3.org/Graphics/SVG/1.1/DTD/svg11.dtd" >
<svg xmlns="http://www.w3.org/2000/svg" xmlns:xlink="http://www.w3.org/1999/xlink" version="1.1" width="2048" height="2048" viewBox="-10 0 2068 2048">
   <path fill="currentColor"
d="M101 1024h409q0 -139 69.5 -257t187.5 -187.5t257 -69.5t257 69.5t187.5 187.5t69.5 257h409q43 0 72 29t29 72t-29 74.5t-72 31.5h-1846q-43 0 -72 -31.5t-29 -74.5t29 -72t72 -29zM308 1433h1432q44 0 75 31t31 74.5t-31 72t-75 28.5h-1432q-44 0 -75 -28.5t-31 -72
t31 -74.5t75 -31zM1538 1846q44 0 72.5 29t28.5 72t-28.5 72t-72.5 29h-1028q-44 0 -72.5 -29t-28.5 -72t28.5 -72t72.5 -29h1028zM1332 1024q0 -130 -89 -219t-219 -89t-219 89t-89 219h616zM1024 0l245 351q-120 -43 -245 -43t-245 43zM135 510l427 -34
q-96 82 -158.5 187.5t-86.5 235.5zM1913 510l-182 389q-24 -125 -86.5 -235.5t-158.5 -187.5z" />
</svg>
