<?xml version="1.0" standalone="no"?>
<!DOCTYPE svg PUBLIC "-//W3C//DTD SVG 1.1//EN" "http://www.w3.org/Graphics/SVG/1.1/DTD/svg11.dtd" >
<svg xmlns="http://www.w3.org/2000/svg" xmlns:xlink="http://www.w3.org/1999/xlink" version="1.1" width="2048" height="2048" viewBox="-10 0 2068 2048">
   <path fill="currentColor"
d="M187 1303h929q39 0 67 26t28 65.5t-28 67.5t-67 28h-929q-39 0 -65 -28t-26 -67.5t26 -65.5t65 -26zM1394 1303h467q39 0 65 26t26 65.5t-26 67.5t-65 28h-467q-39 0 -65 -28t-26 -67.5t26 -65.5t65 -26zM0 1024q0 -126 63 -233t170 -170t233 -63q70 -166 220.5 -268.5
t337.5 -102.5q157 0 292 74.5t218 203t96 284.5l43 -4q153 0 262 109t113 262h-187q0 -75 -54.5 -129.5t-133.5 -54.5h-183v-95q0 -127 -63 -233.5t-170 -167.5t-233 -61q-174 0 -302.5 111t-155.5 277q-52 -18 -100 -18q-117 0 -198 80.5t-81 198.5q0 48 18 92h-196z
M187 1673h188q39 0 65 28.5t26 67.5t-26 65.5t-65 26.5h-188q-39 0 -65 -26.5t-26 -65.5t26 -67.5t65 -28.5zM654 1673h1207q39 0 65 28.5t26 67.5t-26 65.5t-65 26.5h-1207q-40 0 -68 -26.5t-28 -65.5t28 -67.5t68 -28.5z" />
</svg>
