<?xml version="1.0" standalone="no"?>
<!DOCTYPE svg PUBLIC "-//W3C//DTD SVG 1.1//EN" "http://www.w3.org/Graphics/SVG/1.1/DTD/svg11.dtd" >
<svg xmlns="http://www.w3.org/2000/svg" xmlns:xlink="http://www.w3.org/1999/xlink" version="1.1" width="2048" height="2048" viewBox="-10 0 2058 2048">
   <path fill="currentColor"
d="M151 817q-43 0 -72 -28.5t-29 -72t29 -72.5t72 -29h823q86 0 146 -60t60 -146.5t-60 -146.5t-146.5 -60t-144.5 62q-29 29 -72 29t-74.5 -28.5t-31.5 -72t34 -72.5q120 -120 288.5 -120t288.5 120t120 288.5t-120 288.5t-288 120h-823zM1690 1024q43 0 74.5 -29t31.5 -72
t-31.5 -74.5t-74.5 -31.5t-72 31.5t-72.5 31.5t-72 -31.5t-28.5 -72t29 -74.5q91 -87 218.5 -87t216.5 89t89 216.5t-89 219t-219 91.5h-1433q-43 0 -74.5 -31.5t-31.5 -74.5t31.5 -72t74.5 -29h1433zM1589 1639h-1438q-43 0 -72 -28.5t-29 -72t29 -74.5t72 -31h1438
q130 0 219 91t89 218.5t-89 216.5t-216.5 89t-218.5 -87q-29 -33 -29 -74t28.5 -72t72 -31t72.5 31t72 31t72 -31t29 -74.5t-29 -72.5t-72 -29z" />
</svg>
