<?xml version="1.0" standalone="no"?>
<!DOCTYPE svg PUBLIC "-//W3C//DTD SVG 1.1//EN" "http://www.w3.org/Graphics/SVG/1.1/DTD/svg11.dtd" >
<svg xmlns="http://www.w3.org/2000/svg" xmlns:xlink="http://www.w3.org/1999/xlink" version="1.1" width="2048" height="2048" viewBox="-10 0 2068 2048">
   <path fill="currentColor"
d="M1195 1664v-255q0 -19 -12.5 -31.5t-30.5 -12.5h-256q-18 0 -30.5 12.5t-12.5 31.5v255q0 18 12.5 30.5t30.5 12.5h256q18 0 30.5 -12.5t12.5 -30.5zM1537 768q0 -88 -43.5 -169t-113 -136.5t-156.5 -88.5t-173 -33q-323 0 -494 284q-9 15 -6 31t16 26l176 133q10 8 25 8
q21 0 34 -17q71 -91 114 -122q18 -13 49 -22.5t65 -9.5q64 0 114.5 35t50.5 79q0 50 -27 81t-91 60q-37 17 -75 44.5t-72 63.5t-55.5 82t-21.5 92v48q0 18 12.5 30.5t30.5 12.5h256q18 0 30.5 -12.5t12.5 -30.5q0 -26 29 -66.5t72 -65.5q31 -17 46.5 -26t45.5 -29.5
t46.5 -37.5t39 -44t34 -54.5t20.5 -65.5t9 -80zM2048 1024.5q0 139.5 -36.5 272t-102.5 245t-160.5 207t-207 160.5t-245 102.5t-272 36.5t-272 -36.5t-245 -102.5t-207 -160.5t-160.5 -207t-103 -245t-37 -272t37 -272t103 -245t160.5 -207t207 -160.5t245 -103t272 -37
t272 37t245 103t207 160.5t160.5 207t102.5 245t36.5 272z" />
</svg>
