<?xml version="1.0" standalone="no"?>
<!DOCTYPE svg PUBLIC "-//W3C//DTD SVG 1.1//EN" "http://www.w3.org/Graphics/SVG/1.1/DTD/svg11.dtd" >
<svg xmlns="http://www.w3.org/2000/svg" xmlns:xlink="http://www.w3.org/1999/xlink" version="1.1" width="2048" height="2048" viewBox="-10 0 2068 2048">
   <path fill="currentColor"
d="M887 1367l-61 -170h-274l-60 170h-165l274 -774h173l274 774h-161zM1891 593l-101 544l-129 -544h-137l-129 544l-105 -544h-64q-97 -117 -238 -187.5t-299 -70.5q-189 0 -346.5 92.5t-250 252t-92.5 344.5t92.5 344.5t250 252t346.5 92.5q198 0 363.5 -104.5
t249.5 -278.5l8 37h153l129 -524l129 524h150l177 -774h-157zM589 1080h197l-97 -314z" />
</svg>
