<?xml version="1.0" standalone="no"?>
<!DOCTYPE svg PUBLIC "-//W3C//DTD SVG 1.1//EN" "http://www.w3.org/Graphics/SVG/1.1/DTD/svg11.dtd" >
<svg xmlns="http://www.w3.org/2000/svg" xmlns:xlink="http://www.w3.org/1999/xlink" version="1.1" width="2048" height="2048" viewBox="-10 0 2058 2048">
   <path fill="currentColor"
d="M1024 0q197 0 360.5 96t259.5 259.5t96 360.5t-96 360.5t-259.5 260t-360.5 96.5t-360.5 -96.5t-259.5 -260t-96 -360.5t96 -360.5t259.5 -259.5t360.5 -96zM1024 202q-139 0 -257 69.5t-187.5 187.5t-69.5 257.5t69.5 257t187.5 187.5t257 70t257 -70t187.5 -187.5
t69.5 -257t-69.5 -257.5t-187.5 -187.5t-257 -69.5zM1024 409q130 0 219 89t89 218.5t-89 218.5t-219 89t-219 -89t-89 -218.5t89 -218.5t219 -89zM409 2048q-87 0 -147 -60t-60 -142q0 -62 34 -106l182 -327q125 106 281.5 166t324.5 60t324.5 -60t281.5 -166l182 327
q34 44 34 106q0 82 -60 142t-147 60h-1230z" />
</svg>
