<?xml version="1.0" standalone="no"?>
<!DOCTYPE svg PUBLIC "-//W3C//DTD SVG 1.1//EN" "http://www.w3.org/Graphics/SVG/1.1/DTD/svg11.dtd" >
<svg xmlns="http://www.w3.org/2000/svg" xmlns:xlink="http://www.w3.org/1999/xlink" version="1.1" width="2048" height="2048" viewBox="-10 0 2068 2048">
   <path fill="currentColor"
d="M1327 1685l-260 -615l-115 216q-140 269 -202 399h-48q-91 -211 -274 -625l-188 -428q-28 -72 -105 -146.5t-135 -74.5v-48h519v48q-57 0 -107.5 31.5t-31.5 74.5q38 86 231 529l168 399q72 -135 245 -462q-24 -43 -118 -257t-118 -252q-38 -63 -177 -63v-48h456v43
q-53 5 -81.5 24.5t-14.5 62.5q34 62 87 178l67 153q91 -177 154 -322q19 -48 -10 -69.5t-110 -21.5v-48h394v43q-58 5 -108.5 31.5t-79.5 69.5l-187 394q14 39 178 404l43 101l394 -908q-19 -48 -77 -73q-38 -14 -77 -14v-48l409 5v43q-125 0 -178 125q-67 154 -404 933
l-91 216h-48z" />
</svg>
