<?xml version="1.0" standalone="no"?>
<!DOCTYPE svg PUBLIC "-//W3C//DTD SVG 1.1//EN" "http://www.w3.org/Graphics/SVG/1.1/DTD/svg11.dtd" >
<svg xmlns="http://www.w3.org/2000/svg" xmlns:xlink="http://www.w3.org/1999/xlink" version="1.1" width="2048" height="2048" viewBox="-10 0 2068 2048">
   <path fill="currentColor"
d="M1024 1879l343 -454q-152 -116 -343 -116t-343 116zM1024 169q-285 0 -545.5 89t-478.5 254l169 227q183 -138 401 -211.5t454 -73.5t454 73.5t401 211.5l169 -227q-218 -165 -478.5 -254t-545.5 -89zM1024 739q-187 0 -363 60t-323 167l174 227q227 -169 512 -169
t512 169l174 -227q-147 -107 -323 -167t-363 -60z" />
</svg>
