<?xml version="1.0" standalone="no"?>
<!DOCTYPE svg PUBLIC "-//W3C//DTD SVG 1.1//EN" "http://www.w3.org/Graphics/SVG/1.1/DTD/svg11.dtd" >
<svg xmlns="http://www.w3.org/2000/svg" xmlns:xlink="http://www.w3.org/1999/xlink" version="1.1" width="2048" height="2048" viewBox="-10 0 2068 2048">
   <path fill="currentColor"
d="M1365 1664v-213q0 -19 -11.5 -30.5t-30.5 -11.5h-128v-683q0 -19 -12.5 -31t-30.5 -12h-426q-19 0 -31 12t-12 31v212q0 19 12 31t31 12h127v428h-127q-19 0 -31 11.5t-12 30.5v213q0 18 12 30.5t31 12.5h597q19 0 30.5 -12t11.5 -31zM1195 469v-213q0 -19 -12.5 -30.5
t-30.5 -11.5h-256q-18 0 -30.5 11.5t-12.5 30.5v213q0 18 12.5 30.5t30.5 12.5h256q18 0 30.5 -12.5t12.5 -30.5zM2048 1024.5q0 139.5 -36.5 272t-102.5 245t-160.5 207t-207 160.5t-245 102.5t-272 36.5t-272 -36.5t-245 -102.5t-207 -160.5t-160.5 -207t-103 -245
t-37 -272t37 -272t103 -245t160.5 -207t207 -160.5t245 -103t272 -37t272 37t245 103t207 160.5t160.5 207t102.5 245t36.5 272z" />
</svg>
