<?xml version="1.0" standalone="no"?>
<!DOCTYPE svg PUBLIC "-//W3C//DTD SVG 1.1//EN" "http://www.w3.org/Graphics/SVG/1.1/DTD/svg11.dtd" >
<svg xmlns="http://www.w3.org/2000/svg" xmlns:xlink="http://www.w3.org/1999/xlink" version="1.1" width="2048" height="2048" viewBox="-10 0 2068 2048">
   <path fill="currentColor"
d="M1512 1597l166 170l130 -135l-165 -166zM1769 1074h279v-187h-279v187zM1303 499v-449h-558v449q-126 74 -202.5 200.5t-76.5 279t74 281t202.5 202.5t281.5 74t281.5 -74t202.5 -202.5t74 -281t-76.5 -279t-202.5 -200.5zM279 887h-279v187h279v-187zM932 1998h184v-275
h-184v275zM240 1632l130 135l166 -170l-131 -131z" />
</svg>
