<?xml version="1.0" standalone="no"?>
<!DOCTYPE svg PUBLIC "-//W3C//DTD SVG 1.1//EN" "http://www.w3.org/Graphics/SVG/1.1/DTD/svg11.dtd" >
<svg xmlns="http://www.w3.org/2000/svg" xmlns:xlink="http://www.w3.org/1999/xlink" version="1.1" width="2048" height="2048" viewBox="-10 0 2058 2048">
   <path fill="currentColor"
d="M1650 946l-402 19l224 -252q37 -55 18 -128q-18 -59 -45 -78l-526 -310q-32 -23 -71 -18.5t-66 27.5l-265 242q-37 37 -41.5 85t27.5 82t82 36.5t87 -25.5l197 -178l182 110l-406 416l-10 13q-4 10 -9 10q-100 36 -137 68l146 146q96 -41 147 -41q137 0 237.5 100.5
t100.5 242.5q0 92 -37 146l147 147q87 -133 87 -293q0 -187 -106 -324l320 -28l-18 466q-9 51 23 85t82 43h9q46 0 78 -32t41 -73l19 -576q0 -59 -28 -91q-41 -37 -87 -37zM1609 389q82 0 139.5 -57.5t57.5 -137.5t-57.5 -137t-139.5 -57t-139 57t-57 137t57 137.5t139 57.5
zM1074 1961q-132 87 -292 87q-147 0 -270 -73t-196.5 -196.5t-73.5 -265.5q0 -164 92 -292l146 146q-41 96 -41 146q0 137 100.5 237.5t242.5 100.5q91 0 146 -36z" />
</svg>
