<?xml version="1.0" standalone="no"?>
<!DOCTYPE svg PUBLIC "-//W3C//DTD SVG 1.1//EN" "http://www.w3.org/Graphics/SVG/1.1/DTD/svg11.dtd" >
<svg xmlns="http://www.w3.org/2000/svg" xmlns:xlink="http://www.w3.org/1999/xlink" version="1.1" width="2048" height="2048" viewBox="-10 0 2068 2048">
   <path fill="currentColor"
d="M123 178l-123 119l141 137q-62 39 -119 84l167 224q71 -53 155 -101l211 211q-110 49 -198 115l172 224q110 -79 242 -123l242 238q-176 9 -317 114l339 450l229 -309l308 309l119 -119zM1035 178q-295 0 -573 102l225 224q172 -44 348 -44q233 0 449 73t397 209
l167 -224q-216 -163 -473.5 -251.5t-539.5 -88.5zM1035 742q-70 0 -106 5l300 299q172 40 313 145l171 -224q-145 -106 -317 -165.5t-361 -59.5z" />
</svg>
