<?xml version="1.0" standalone="no"?>
<!DOCTYPE svg PUBLIC "-//W3C//DTD SVG 1.1//EN" "http://www.w3.org/Graphics/SVG/1.1/DTD/svg11.dtd" >
<svg xmlns="http://www.w3.org/2000/svg" xmlns:xlink="http://www.w3.org/1999/xlink" version="1.1" width="2048" height="2048" viewBox="-10 0 2063 2048">
   <path fill="currentColor"
d="M1029 0q-274 0 -509.5 137t-372.5 370t-137 507t139 510l-144 524l538 -139q226 125 486 125q274 0 507 -137t370 -370.5t137 -512.5q0 -202 -77 -387t-218.5 -329t-329 -221t-389.5 -77zM1029 168q168 0 322 65t274 185t185 274t65 322q0 231 -115.5 426t-310 308
t-425.5 113t-428 -121l-29 -14l-317 82l82 -313l-20 -29q-129 -206 -129 -452q0 -230 115 -422.5t307.5 -308t423.5 -115.5zM668 543q-38 0 -67 34l-5 5q-86 91 -86 206.5t101 254.5l9 19q197 274 428 371q67 33 141.5 55t166.5 12q38 -10 96 -46t72 -77t19 -74.5t-2 -43
t-41 -28.5l-96 -48q-68 -34 -87 -39t-31 -5t-26 20q-20 28 -77 96q-24 24 -58 9l-14 -9q-111 -44 -188 -116t-144 -177q-15 -29 9 -53t38.5 -41t24.5 -36l5 -10q9 -19 -5 -43l-77 -188q-14 -29 -24 -36t-29 -7z" />
</svg>
