<?xml version="1.0" standalone="no"?>
<!DOCTYPE svg PUBLIC "-//W3C//DTD SVG 1.1//EN" "http://www.w3.org/Graphics/SVG/1.1/DTD/svg11.dtd" >
<svg xmlns="http://www.w3.org/2000/svg" xmlns:xlink="http://www.w3.org/1999/xlink" version="1.1" width="2048" height="2048" viewBox="-10 0 2068 2048">
   <path fill="currentColor"
d="M1024 101q168 0 288.5 120t120.5 289q0 115 -53 206h259q72 0 127.5 46t74.5 113l183 736q24 115 24 129q0 87 -60 147t-142 60h-1644q-82 0 -142 -60t-60 -147q0 -14 24 -129l183 -736q19 -67 74.5 -113t127.5 -46h259q-53 -91 -53 -206q0 -169 120.5 -289t288.5 -120z
M1024 308q-87 0 -147 60t-60 144t60 144t147 60t147 -60t60 -144t-60 -144t-147 -60zM409 923v817h206v-254l101 100v154h207v-202l-207 -206l207 -207v-202h-207v154l-101 101v-255h-206zM1332 923q-87 0 -147 60t-60 142v413q0 82 60 142t147 60h307v-509h-206v307h-101
v-413h307v-202h-307z" />
</svg>
