<?xml version="1.0" standalone="no"?>
<!DOCTYPE svg PUBLIC "-//W3C//DTD SVG 1.1//EN" "http://www.w3.org/Graphics/SVG/1.1/DTD/svg11.dtd" >
<svg xmlns="http://www.w3.org/2000/svg" xmlns:xlink="http://www.w3.org/1999/xlink" version="1.1" width="2048" height="2048" viewBox="-10 0 2068 2048">
   <path fill="currentColor"
d="M240 1680l130 131l166 -170l-131 -131zM932 2041h184v-274h-184v274zM1024 464q-153 0 -281.5 76.5t-202.5 205t-74 278.5t74 278.5t202.5 203t281.5 74.5t281.5 -74.5t202.5 -203t74 -278.5t-74 -278.5t-202.5 -205t-281.5 -76.5zM1769 1118h279v-188h-279v188z
M1512 1641l166 170l130 -131l-165 -170zM1808 368l-130 -131l-166 166l131 135zM1116 7h-184v274h184v-274zM279 930h-279v188h279v-188zM536 403l-166 -166l-130 131l165 170z" />
</svg>
