<?xml version="1.0" standalone="no"?>
<!DOCTYPE svg PUBLIC "-//W3C//DTD SVG 1.1//EN" "http://www.w3.org/Graphics/SVG/1.1/DTD/svg11.dtd" >
<svg xmlns="http://www.w3.org/2000/svg" xmlns:xlink="http://www.w3.org/1999/xlink" version="1.1" width="2048" height="2048" viewBox="-10 0 2058 2048">
   <path fill="currentColor"
d="M1029 766q90 0 152.5 62.5t62.5 153t-62.5 153t-152.5 62.5t-152.5 -62.5t-62.5 -153t62.5 -153t152.5 -62.5zM1029 556q-175 0 -300.5 125t-125.5 300.5t125.5 300.5t300.5 125t300.5 -125t125.5 -300.5t-125.5 -300.5t-300.5 -125zM1349 1517h-640v211h640v-211z
M1349 1838h-640v210h640v-210zM418 831l451 -445l-140 -161l-456 456zM198 606l445 -446l-140 -160l-455 456zM1349 1517h-640v211h640v-211zM1179 371l446 450l375 -375l-445 -446z" />
</svg>
