<?xml version="1.0" standalone="no"?>
<!DOCTYPE svg PUBLIC "-//W3C//DTD SVG 1.1//EN" "http://www.w3.org/Graphics/SVG/1.1/DTD/svg11.dtd" >
<svg xmlns="http://www.w3.org/2000/svg" xmlns:xlink="http://www.w3.org/1999/xlink" version="1.1" width="2048" height="2048" viewBox="-10 0 2068 2048">
   <path fill="currentColor"
d="M1596 1195h-145q-35 0 -60.5 -25t-25.5 -60v-172q0 -35 25.5 -60t60.5 -25h145q-42 -144 -149.5 -251.5t-251.5 -149.5v145q0 35 -25 60.5t-60 25.5h-171q-35 0 -60.5 -25.5t-25.5 -60.5v-145q-144 42 -251.5 149.5t-149.5 251.5h145q35 0 60.5 25t25.5 60v172
q0 35 -25.5 60t-60.5 25h-145q42 144 149.5 251.5t251.5 149.5v-145q0 -35 25.5 -60.5t60.5 -25.5h171q35 0 60 25.5t25 60.5v145q144 -42 251.5 -149.5t149.5 -251.5zM2048 938v172q0 35 -25 60t-60 25h-190q-49 215 -206 372t-372 206v190q0 35 -25 60t-60 25h-171
q-35 0 -60.5 -25t-25.5 -60v-190q-215 -49 -371 -206t-205 -372h-192q-35 0 -60 -25t-25 -60v-172q0 -35 25 -60t60 -25h192q49 -215 205 -372t371 -206v-190q0 -35 25.5 -60t60.5 -25h171q35 0 60 25t25 60v190q215 49 372 206t206 372h190q35 0 60 25t25 60z" />
</svg>
