<?xml version="1.0" standalone="no"?>
<!DOCTYPE svg PUBLIC "-//W3C//DTD SVG 1.1//EN" "http://www.w3.org/Graphics/SVG/1.1/DTD/svg11.dtd" >
<svg xmlns="http://www.w3.org/2000/svg" xmlns:xlink="http://www.w3.org/1999/xlink" version="1.1" width="2048" height="2048" viewBox="-10 0 2068 2048">
   <path fill="currentColor"
d="M452 173q14 -10 19 -14q250 -159 553 -159q288 0 529 144l5 5q38 24 53 43q-53 -57 -154 -43q-87 14 -197 72q-77 43 -164 106l-72 53q-240 -183 -394 -226q-58 -15 -111 -5q-38 5 -62 24h-5zM1779 327q-15 -10 -15 -15q-53 -52 -125 -48q-67 20 -149 68
q-144 81 -283 211l72 72q82 87 154 173q101 125 168 231q125 207 168 342q53 173 15 355q125 -144 194.5 -319.5t69.5 -372.5t-69.5 -377.5t-199.5 -319.5zM1409 1120q-145 -158 -298 -308l-87 -86l-111 111q-139 144 -235 245q-130 134 -236 283q-163 226 -173 351l-5 -29
q-9 -38 -9 -91q0 -72 19 -154q24 -106 72 -226q63 -154 236 -379q144 -198 255 -299l-73 -67q-86 -77 -168 -130l-5 -4q-115 -63 -202 -68q-43 0 -81 29q-20 10 -34 24q-130 140 -202 320t-72 382t77 392t221 334t334 221t392 77q221 0 418 -89t342 -243l-10 -43
q-19 -58 -48 -115q-43 -87 -101 -173q-58 -77 -216 -265z" />
</svg>
