<?xml version="1.0" standalone="no"?>
<!DOCTYPE svg PUBLIC "-//W3C//DTD SVG 1.1//EN" "http://www.w3.org/Graphics/SVG/1.1/DTD/svg11.dtd" >
<svg xmlns="http://www.w3.org/2000/svg" xmlns:xlink="http://www.w3.org/1999/xlink" version="1.1" width="2048" height="2048" viewBox="-10 0 2068 2048">
   <path fill="currentColor"
d="M144 1024q0 -183 77 -361l418 1154q-221 -110 -358 -321.5t-137 -471.5zM1620 981q0 43 -19 105q-10 44 -39 135l-101 337l-317 -943l101 -9q24 -5 31.5 -24.5t-2.5 -36t-34 -16.5l-81 9q-97 5 -154 5l-231 -14q-24 0 -33.5 16.5t-2.5 36t31 24.5l92 9l139 371l-192 576
l-322 -947l101 -9q24 -5 31 -24.5t-5 -36t-31 -16.5l-87 9q-91 5 -149 5h-58q121 -187 315.5 -293t420.5 -106q168 0 322 60t274 171h-14q-63 0 -106 45.5t-43 108.5q0 48 24 96q14 34 53 96l9 15q77 125 77 245zM1038 1101l274 740l5 15q-139 48 -293 48q-130 0 -250 -34z
M1798 601q106 197 106 423q0 240 -120.5 442t-317.5 318l270 -774q67 -169 67 -318zM1024 0q202 0 392 77t334 221t221 334t77 392t-77 392t-221 334t-334 221t-392 77t-392 -77t-334 -221t-221 -334t-77 -392t77 -392t221 -334t334 -221t392 -77zM1024 2005
q264 0 490 -132.5t358.5 -358.5t132.5 -490t-132.5 -490t-358.5 -358.5t-490 -132.5t-490 132.5t-358.5 358.5t-132.5 490t132.5 490t358.5 358.5t490 132.5z" />
</svg>
