<?xml version="1.0" standalone="no"?>
<!DOCTYPE svg PUBLIC "-//W3C//DTD SVG 1.1//EN" "http://www.w3.org/Graphics/SVG/1.1/DTD/svg11.dtd" >
<svg xmlns="http://www.w3.org/2000/svg" xmlns:xlink="http://www.w3.org/1999/xlink" version="1.1" width="2048" height="2048" viewBox="-10 0 2068 2048">
   <path fill="currentColor"
d="M1463 1268l-195 195q-13 13 -30.5 13t-30.5 -13l-182 -183l-184 183q-13 13 -30 13t-30 -13l-195 -195q-13 -13 -13 -30.5t13 -30.5l182 -182l-182 -184q-13 -13 -13 -30.5t13 -30.5l195 -194q13 -13 30 -13t30 13l184 182l182 -182q13 -13 30.5 -13t30.5 13l195 194
q13 13 13 30.5t-13 30.5l-183 184l183 182q13 13 13 30.5t-13 30.5zM1749 1024.5q0 -147.5 -57.5 -282t-154.5 -231.5t-231 -154.5t-281.5 -57.5t-282 57.5t-231.5 154.5t-154.5 231.5t-57.5 282t57.5 281.5t154.5 231t231.5 154.5t282 57.5t281.5 -57.5t231 -154.5
t154.5 -231t57.5 -281.5zM2048 1024.5q0 139.5 -36.5 272t-102.5 245t-160.5 207t-207 160.5t-245 102.5t-272 36.5t-272 -36.5t-245 -102.5t-207 -160.5t-160.5 -207t-103 -245t-37 -272t37 -272t103 -245t160.5 -207t207 -160.5t245 -103t272 -37t272 37t245 103
t207 160.5t160.5 207t102.5 245t36.5 272z" />
</svg>
