<?xml version="1.0" standalone="no"?>
<!DOCTYPE svg PUBLIC "-//W3C//DTD SVG 1.1//EN" "http://www.w3.org/Graphics/SVG/1.1/DTD/svg11.dtd" >
<svg xmlns="http://www.w3.org/2000/svg" xmlns:xlink="http://www.w3.org/1999/xlink" version="1.1" width="2048" height="2048" viewBox="-10 0 2068 2048">
   <path fill="currentColor"
d="M1618 1188q177 0 303.5 126.5t126.5 303.5t-126.5 303.5t-303.5 126.5t-303.5 -126.5t-126.5 -303.5l10 -91q-10 -131 -60 -177q-31 -30 -86 -40q-162 91 -351.5 91t-351.5 -93.5t-255.5 -255.5t-93.5 -351.5t93.5 -351.5t255.5 -255.5t351.5 -93.5t351.5 93.5
t255.5 255.5t93.5 351.5t-91 351.5q10 55 40 86q46 50 177 60zM485 753q66 0 114 48.5t48 116.5t-48 113.5t-113.5 45.5t-113.5 -45.5t-48 -113.5t48 -116.5t113 -48.5zM703 217q-202 0 -344 142t-142 344t142 343.5t344 141.5t343.5 -141.5t141.5 -343.5t-141.5 -344
t-343.5 -142z" />
</svg>
