<?xml version="1.0" standalone="no"?>
<!DOCTYPE svg PUBLIC "-//W3C//DTD SVG 1.1//EN" "http://www.w3.org/Graphics/SVG/1.1/DTD/svg11.dtd" >
<svg xmlns="http://www.w3.org/2000/svg" xmlns:xlink="http://www.w3.org/1999/xlink" version="1.1" width="2048" height="2048" viewBox="-10 0 2068 2048">
   <path fill="currentColor"
d="M863 28q232 0 431 58t315 156t116 217t-116 217t-315 156t-431 58t-431.5 -58t-315.5 -156t-116 -217t116 -217t315.5 -156t431.5 -58zM0 673q0 116 116 214.5t315.5 156.5t431.5 58q181 0 338 -30q-162 141 -212 348l-126 5q-232 0 -431.5 -58t-315.5 -156.5
t-116 -214.5v-323zM1725 673v217h-121q121 -101 121 -217zM0 1213q0 116 116 214.5t315.5 156.5t431.5 58l106 -5q15 166 105 313l-211 15q-232 0 -431.5 -58t-315.5 -156.5t-116 -214.5v-323zM1614 1158q182 0 308 126l126 -126v428h-434l192 -186q-76 -81 -189.5 -81
t-191.5 78t-78 189t78 192t189 81q66 0 121.5 -30.5t95.5 -80.5h182q-46 121 -154.5 196.5t-244.5 75.5q-176 0 -302.5 -126t-126.5 -305t126.5 -305t302.5 -126z" />
</svg>
