<?xml version="1.0" standalone="no"?>
<!DOCTYPE svg PUBLIC "-//W3C//DTD SVG 1.1//EN" "http://www.w3.org/Graphics/SVG/1.1/DTD/svg11.dtd" >
<svg xmlns="http://www.w3.org/2000/svg" xmlns:xlink="http://www.w3.org/1999/xlink" version="1.1" width="2048" height="2048" viewBox="-10 0 2068 2048">
   <path fill="currentColor"
d="M1846 202h-1644q-82 0 -142 60t-60 147v1230q0 87 60 147t142 60h1644q82 0 142 -60t60 -147v-1230q0 -87 -60 -147t-142 -60zM591 1457l-149 149q-115 -120 -177.5 -271.5t-62.5 -310.5t62.5 -310.5t177.5 -271.5l145 145q-87 91 -132.5 204t-45.5 233t45.5 233
t136.5 200zM1024 1433q-168 0 -288.5 -120.5t-120.5 -288.5t120.5 -288.5t288.5 -120.5t288.5 120.5t120.5 288.5t-120.5 288.5t-288.5 120.5zM1606 1606l-145 -145q87 -91 132.5 -204t45.5 -233t-45.5 -233t-136.5 -200l149 -149q115 120 177.5 271.5t62.5 310.5
t-62.5 310.5t-177.5 271.5zM1024 817q-87 0 -147 60t-60 147t60 147t147 60t147 -60t60 -147t-60 -147t-147 -60z" />
</svg>
