<?xml version="1.0" standalone="no"?>
<!DOCTYPE svg PUBLIC "-//W3C//DTD SVG 1.1//EN" "http://www.w3.org/Graphics/SVG/1.1/DTD/svg11.dtd" >
<svg xmlns="http://www.w3.org/2000/svg" xmlns:xlink="http://www.w3.org/1999/xlink" version="1.1" width="2048" height="2048" viewBox="-10 0 2068 2048">
   <path fill="currentColor"
d="M0 1477h571v-224h-571v224zM741 1477h566v-224h-566v224zM1477 1477h571v-224h-571v224zM0 1936h229v-229h-229v229zM453 1936h230v-229h-230v229zM912 1936h224v-229h-224v229zM1365 1936h230v-229h-230v229zM1819 1936h229v-229h-229v229zM0 1024h912v-229h-912v229z
M1136 1024h912v-229h-912v229zM0 112v459h2048v-459h-2048z" />
</svg>
