<?xml version="1.0" standalone="no"?>
<!DOCTYPE svg PUBLIC "-//W3C//DTD SVG 1.1//EN" "http://www.w3.org/Graphics/SVG/1.1/DTD/svg11.dtd" >
<svg xmlns="http://www.w3.org/2000/svg" xmlns:xlink="http://www.w3.org/1999/xlink" version="1.1" width="2048" height="2048" viewBox="-10 0 2068 2048">
   <path fill="currentColor"
d="M0 202h615v207h818v-207h615v615h-202v414h202v615h-615v-207h-818v207h-615v-615h202v-414h-202v-615zM1433 817v-202h-818v202h-206v414h206v202h818v-202h206v-414h-206zM202 409v206h207v-206h-207zM1639 409v206h207v-206h-207zM202 1433v206h207v-206h-207z
M1639 1433v206h207v-206h-207z" />
</svg>
