<?xml version="1.0" standalone="no"?>
<!DOCTYPE svg PUBLIC "-//W3C//DTD SVG 1.1//EN" "http://www.w3.org/Graphics/SVG/1.1/DTD/svg11.dtd" >
<svg xmlns="http://www.w3.org/2000/svg" xmlns:xlink="http://www.w3.org/1999/xlink" version="1.1" width="2048" height="2048" viewBox="-10 0 2068 2048">
   <path fill="currentColor"
d="M1107 1307l-240 -231l4 -4q240 -266 345 -606h274v-187h-653v-183h-183v183h-654v187h1041q-100 279 -296 497q-126 -139 -213 -309h-188q105 231 279 422l-475 467l131 130l466 -462l288 288zM1630 837h-188l-418 1115h187l105 -279h440l105 279h187zM1386 1490
l148 -405l152 405h-300z" />
</svg>
