<?xml version="1.0" standalone="no"?>
<!DOCTYPE svg PUBLIC "-//W3C//DTD SVG 1.1//EN" "http://www.w3.org/Graphics/SVG/1.1/DTD/svg11.dtd" >
<svg xmlns="http://www.w3.org/2000/svg" xmlns:xlink="http://www.w3.org/1999/xlink" version="1.1" width="2048" height="2048" viewBox="-10 0 2068 2048">
   <path fill="currentColor"
d="M1561 914l-562 562q-25 26 -60 26t-60 -26l-392 -392q-26 -25 -26 -60t26 -60l136 -135q26 -26 60.5 -26t59.5 26l196 196l367 -368q25 -25 60 -25t60 25l135 137q26 25 26 59.5t-26 60.5zM1749 1024.5q0 -147.5 -57.5 -282t-154.5 -231.5t-231 -154.5t-281.5 -57.5
t-282 57.5t-231.5 154.5t-154.5 231.5t-57.5 282t57.5 281.5t154.5 231t231.5 154.5t282 57.5t281.5 -57.5t231 -154.5t154.5 -231t57.5 -281.5zM2048 1024.5q0 139.5 -36.5 272t-102.5 245t-160.5 207t-207 160.5t-245 102.5t-272 36.5t-272 -36.5t-245 -102.5t-207 -160.5
t-160.5 -207t-103 -245t-37 -272t37 -272t103 -245t160.5 -207t207 -160.5t245 -103t272 -37t272 37t245 103t207 160.5t160.5 207t102.5 245t36.5 272z" />
</svg>
