<?xml version="1.0" standalone="no"?>
<!DOCTYPE svg PUBLIC "-//W3C//DTD SVG 1.1//EN" "http://www.w3.org/Graphics/SVG/1.1/DTD/svg11.dtd" >
<svg xmlns="http://www.w3.org/2000/svg" xmlns:xlink="http://www.w3.org/1999/xlink" version="1.1" width="2048" height="2048" viewBox="-10 0 2068 2048">
   <path fill="currentColor"
d="M1038 1687l629 -634q-274 62 -432.5 223t-196.5 411zM1922 817h28q29 0 55.5 19.5t36 48.5t5 57.5t-28.5 52.5l-1024 1023q-33 29 -72 29l-38 -5q-29 -9 -48 -35.5t-19 -55.5q-24 -523 273 -821q188 -188 481 -265q178 -48 351 -48zM1023 1q226 0 427.5 93.5t346 259.5
t206.5 372l-158 -9h-63q-91 -231 -297.5 -372.5t-461.5 -141.5q-221 0 -410.5 110.5t-300 300t-110.5 410.5q0 255 141.5 461.5t372.5 297.5q-5 115 9 221q-206 -62 -372 -206.5t-259.5 -346t-93.5 -427.5q0 -279 137 -514t372.5 -372t513.5 -137z" />
</svg>
