<?xml version="1.0" standalone="no"?>
<!DOCTYPE svg PUBLIC "-//W3C//DTD SVG 1.1//EN" "http://www.w3.org/Graphics/SVG/1.1/DTD/svg11.dtd" >
<svg xmlns="http://www.w3.org/2000/svg" xmlns:xlink="http://www.w3.org/1999/xlink" version="1.1" width="2048" height="2048" viewBox="-10 0 2068 2048">
   <path fill="currentColor"
d="M510 358l-202 202v106h-207q-43 0 -72 29t-29 72v822q0 43 29 72t72 29h1846q43 0 72 -29t29 -72v-822q0 -43 -29 -72t-72 -29h-207v-106l-202 -202h-1028zM510 560h1028v106h-1028v-106zM923 767h202q24 0 38.5 14.5t14.5 36t-14.5 36t-38.5 14.5h-202
q-24 0 -38.5 -14.5t-14.5 -36t14.5 -36t38.5 -14.5zM562 921q130 0 219 89t89 218.5t-89 218.5t-218.5 89t-218.5 -89t-89 -218.5t89 -218.5t218 -89zM1486 921q129 0 218 89t89 218.5t-89 218.5t-218.5 89t-218.5 -89t-89 -218.5t89 -218.5t219 -89zM562 1074
q-62 0 -107.5 46t-45.5 108.5t45.5 108t108 45.5t108 -45.5t45.5 -108t-45.5 -108.5t-108.5 -46zM1486 1074q-63 0 -108.5 46t-45.5 108.5t45.5 108t108 45.5t108 -45.5t45.5 -108t-45.5 -108.5t-107.5 -46z" />
</svg>
