<?xml version="1.0" standalone="no"?>
<!DOCTYPE svg PUBLIC "-//W3C//DTD SVG 1.1//EN" "http://www.w3.org/Graphics/SVG/1.1/DTD/svg11.dtd" >
<svg xmlns="http://www.w3.org/2000/svg" xmlns:xlink="http://www.w3.org/1999/xlink" version="1.1" width="2048" height="2048" viewBox="-10 0 2068 2048">
   <path fill="currentColor"
d="M413 922q168 0 287.5 120t119.5 290.5t-119.5 287.5t-290 117t-290.5 -117t-120 -287.5t120 -290.5t293 -120zM1383 1533q102 0 177 75t75 182.5t-75 182.5t-179.5 75t-179.5 -75t-75 -182.5t75 -182.5t182 -75zM1431 0q168 0 308.5 84t224.5 224.5t84 308t-84 308.5
t-224.5 222t-308 81t-308.5 -81t-222 -222t-81 -308.5t81 -308t222 -224.5t308 -84z" />
</svg>
