<?xml version="1.0" standalone="no"?>
<!DOCTYPE svg PUBLIC "-//W3C//DTD SVG 1.1//EN" "http://www.w3.org/Graphics/SVG/1.1/DTD/svg11.dtd" >
<svg xmlns="http://www.w3.org/2000/svg" xmlns:xlink="http://www.w3.org/1999/xlink" version="1.1" width="2048" height="2048" viewBox="-10 0 2068 2048">
   <path fill="currentColor"
d="M229 0h1590q96 0 162.5 66.5t66.5 162.5v1590q0 96 -66.5 162.5t-162.5 66.5h-1590q-96 0 -162.5 -66.5t-66.5 -162.5v-1590q0 -96 66.5 -162.5t162.5 -66.5zM229 229v1590h1590v-1590h-1590zM1184 741q-101 0 -165 38q-54 26 -86 74q-26 38 -32 80l-5 38l21 -22
q27 -21 59 -32q53 -21 107 -21q80 0 144 59q85 80 87.5 229t-98.5 235q-53 48 -107 58l-58 11q-75 0 -139 -21q-85 -27 -133 -107q-64 -96 -64 -261q5 -240 122 -368q86 -91 224 -118q70 -10 123 -5v133zM1019 1035q-38 -6 -67 13t-45 40l-16 27v80q0 64 40 106.5t93 42.5
t85 -42.5t32 -106.5t-34.5 -112t-87.5 -48z" />
</svg>
