<?xml version="1.0" standalone="no"?>
<!DOCTYPE svg PUBLIC "-//W3C//DTD SVG 1.1//EN" "http://www.w3.org/Graphics/SVG/1.1/DTD/svg11.dtd" >
<svg xmlns="http://www.w3.org/2000/svg" xmlns:xlink="http://www.w3.org/1999/xlink" version="1.1" width="2048" height="2048" viewBox="-10 0 2068 2048">
   <path fill="currentColor"
d="M827 910q10 -48 29 -92q48 -86 154 -86q72 0 120 53t48 115h183q0 -72 -26.5 -132t-74.5 -103q-73 -68 -178.5 -84.5t-206.5 14.5t-163 108q-101 130 -101 322.5t101 321.5q57 72 158 106t207 17t178 -84q43 -39 74.5 -99t31.5 -113h-183q0 24 -14.5 53t-38.5 53
q-48 38 -110.5 38t-101 -24t-57.5 -62q-53 -106 -29 -322zM1024 1q-279 0 -514.5 137t-372.5 372.5t-137 514.5q14 390 226 654q197 240 505 327q293 82 591 0q308 -87 500 -327q212 -264 226 -654q0 -279 -137 -514.5t-372.5 -372.5t-514.5 -137zM1024 1847
q-221 0 -411 -110.5t-300.5 -300.5t-110.5 -411q14 -312 187 -524q154 -187 394.5 -257t481 0t394.5 257q173 212 187 524q0 221 -110.5 411t-300.5 300.5t-411 110.5z" />
</svg>
