<?xml version="1.0" standalone="no"?>
<!DOCTYPE svg PUBLIC "-//W3C//DTD SVG 1.1//EN" "http://www.w3.org/Graphics/SVG/1.1/DTD/svg11.dtd" >
<svg xmlns="http://www.w3.org/2000/svg" xmlns:xlink="http://www.w3.org/1999/xlink" version="1.1" width="2048" height="2048" viewBox="-10 0 2065 2048">
   <path fill="currentColor"
d="M1747 1023q0 -214 -115 -392l-1003 1002q180 117 396 117q147 0 280.5 -57.5t230 -155t154 -232t57.5 -282.5zM420 1421l1003 -1002q-179 -121 -398 -121q-147 0 -281 57.5t-231 154.5t-154.5 231.5t-57.5 281.5q0 217 119 398zM2045 1023q0 140 -37 273t-102.5 245
t-159.5 206.5t-206 160.5t-244.5 103t-271 37t-271 -37t-244.5 -103t-206.5 -160.5t-160 -206.5t-102.5 -245t-37 -273q0 -139 37 -271.5t102.5 -245t160 -207t206.5 -160t244.5 -102.5t271 -37t271 37t244.5 102.5t206 160t159.5 207t102.5 245t37 271.5z" />
</svg>
