<?xml version="1.0" standalone="no"?>
<!DOCTYPE svg PUBLIC "-//W3C//DTD SVG 1.1//EN" "http://www.w3.org/Graphics/SVG/1.1/DTD/svg11.dtd" >
<svg xmlns="http://www.w3.org/2000/svg" xmlns:xlink="http://www.w3.org/1999/xlink" version="1.1" width="2048" height="2048" viewBox="-10 0 2068 2048">
   <path fill="currentColor"
d="M101 102q-43 0 -72 28.5t-29 72.5v567q0 125 69.5 228.5t185.5 151.5v644q0 62 45.5 108t108 46t108 -46t45.5 -108v-644q116 -48 185.5 -151.5t69.5 -228.5v-567q0 -44 -28.5 -72.5t-72 -28.5t-72.5 28.5t-29 72.5v413q0 19 -16.5 33.5t-36 14.5t-36 -14.5t-16.5 -33.5
v-413q0 -44 -29 -72.5t-72.5 -28.5t-72 28.5t-28.5 72.5v413q0 19 -17 33.5t-36 14.5t-36 -14.5t-17 -33.5v-413q0 -44 -29 -72.5t-72 -28.5zM1832 102q-10 0 -34 14l-365 216v385h-409v207h101l106 1024h615l101 -1024h101v-207h-409v-274l255 -154q39 -19 48.5 -57.5
t-9.5 -77.5q-39 -62 -101 -52z" />
</svg>
