<?xml version="1.0" standalone="no"?>
<!DOCTYPE svg PUBLIC "-//W3C//DTD SVG 1.1//EN" "http://www.w3.org/Graphics/SVG/1.1/DTD/svg11.dtd" >
<svg xmlns="http://www.w3.org/2000/svg" xmlns:xlink="http://www.w3.org/1999/xlink" version="1.1" width="2048" height="2048" viewBox="-10 0 2058 2048">
   <path fill="currentColor"
d="M1667 409q77 163 65 348t-99 349q-67 115 -231 322q-81 106 -125 158q-96 135 -139 236q-10 19 -29 67l-34 101q-9 29 -18.5 43.5t-33.5 14.5t-44 -24q-4 -14 -14 -48q-48 -144 -91 -216q-49 -92 -149 -231zM729 659l-341 399q38 81 101 173q38 53 125 158l19 29
q39 43 63 77l428 -505h-5q-111 39 -219 -11.5t-156 -161.5q-10 -24 -15 -57q-9 -58 0 -101zM465 269q-120 154 -144 358.5t48 391.5l408 -485zM1249 34l-327 394l4 -5q101 -34 204.5 4.5t156.5 134.5q24 49 29 92q9 58 0 106l332 -390q-68 -120 -169 -204t-226 -128z
M806 500l399 -476q-91 -24 -182 -24q-149 0 -288.5 60t-240.5 176z" />
</svg>
