<?xml version="1.0" standalone="no"?>
<!DOCTYPE svg PUBLIC "-//W3C//DTD SVG 1.1//EN" "http://www.w3.org/Graphics/SVG/1.1/DTD/svg11.dtd" >
<svg xmlns="http://www.w3.org/2000/svg" xmlns:xlink="http://www.w3.org/1999/xlink" version="1.1" width="2048" height="2048" viewBox="-10 0 2068 2048">
   <path fill="currentColor"
d="M1543 1176q-144 0 -252 91.5t-142 226.5q-125 -53 -250 0q-34 -135 -144.5 -226.5t-249.5 -91.5q-168 0 -286 120.5t-118 291t118 290.5t281 120t278.5 -108t125.5 -271q43 -29 91 -34q77 -10 149 38q15 159 128 267t276 108t281 -120t118 -290.5t-118 -291t-286 -120.5z
M505 1883q-120 0 -204.5 -86.5t-84.5 -209t84.5 -206.5t204.5 -84t204 84t84 206.5t-84 209t-204 86.5zM1543 1883q-120 0 -204 -86.5t-84 -209t84 -206.5t204 -84t204.5 84t84.5 206.5t-84.5 209t-204.5 86.5zM2048 922h-2048v153h2048v-153zM1385 114q-15 -39 -53.5 -55.5
t-81.5 -2.5l-226 77l-236 -77q-38 -14 -76.5 5t-52.5 58l-250 649h1230z" />
</svg>
