<?xml version="1.0" standalone="no"?>
<!DOCTYPE svg PUBLIC "-//W3C//DTD SVG 1.1//EN" "http://www.w3.org/Graphics/SVG/1.1/DTD/svg11.dtd" >
<svg xmlns="http://www.w3.org/2000/svg" xmlns:xlink="http://www.w3.org/1999/xlink" version="1.1" width="2048" height="2048" viewBox="-10 0 2058 2048">
   <path fill="currentColor"
d="M1960 976v163q0 67 -41 114.5t-107 47.5h-896l373 374q48 46 48 114.5t-48 114.5l-96 97q-47 47 -114 47q-68 0 -116 -47l-828 -829q-47 -47 -47 -114q0 -68 47 -116l828 -827q49 -49 116 -49q65 0 114 49l96 94q48 48 48 115.5t-48 115.5l-373 373h896q66 0 107 48
t41 115z" />
</svg>
