<?xml version="1.0" standalone="no"?>
<!DOCTYPE svg PUBLIC "-//W3C//DTD SVG 1.1//EN" "http://www.w3.org/Graphics/SVG/1.1/DTD/svg11.dtd" >
<svg xmlns="http://www.w3.org/2000/svg" xmlns:xlink="http://www.w3.org/1999/xlink" version="1.1" width="2048" height="2048" viewBox="-10 0 2068 2048">
   <path fill="currentColor"
d="M0 1382l5 -5q168 -72 255 -105q139 -53 250 -77v-837q0 -130 91 -219t216 -89q101 0 180.5 55.5t113.5 146.5h-294q-43 0 -72 31.5t-29 74.5v101h515v-101q0 -130 89 -219t218 -89q97 0 176 55.5t113 146.5h-289q-43 0 -74 31.5t-31 74.5v1019q91 -14 278 -101
q111 -48 169 -67q96 -34 168 -34v207q-72 0 -168 34q-58 19 -171 69.5t-171 69.5q-96 34 -173 34t-168 -34q-58 -19 -173 -69.5t-173 -69.5q-91 -34 -168 -34q-154 0 -342 63q-115 38 -341 144v-207zM1231 666h-515v202h515v-202zM1231 1074h-515v101q68 10 154 39
q48 19 154 62q135 63 207 87v-289zM0 1791q226 -101 341 -140q188 -62 342 -62q77 0 168 29q58 19 173 72t173 72q91 29 168 29t173 -29q58 -19 171 -72t171 -72q96 -29 168 -29v202q-72 0 -168 33q-58 20 -171 70.5t-171 69.5q-96 34 -173 34t-168 -34q-58 -19 -173 -69.5
t-173 -70.5q-91 -33 -168 -33q-154 0 -342 67q-115 39 -341 140v-207z" />
</svg>
