<?xml version="1.0" standalone="no"?>
<!DOCTYPE svg PUBLIC "-//W3C//DTD SVG 1.1//EN" "http://www.w3.org/Graphics/SVG/1.1/DTD/svg11.dtd" >
<svg xmlns="http://www.w3.org/2000/svg" xmlns:xlink="http://www.w3.org/1999/xlink" version="1.1" width="2048" height="2048" viewBox="-10 0 2058 2048">
   <path fill="currentColor"
d="M120 1183q43 -106 101 -178t101 -92q0 -110 43 -173v-4q-4 -39 15 -77q14 -284 182 -467q178 -192 462 -192t462 192q168 183 182 467q19 38 15 77v4q43 63 43 173q48 20 103.5 92t98.5 178q58 134 67.5 247t-38.5 137q-34 15 -79.5 -19t-93.5 -101q-34 149 -173 264
q72 29 112.5 67.5t40.5 86.5q0 77 -105.5 130t-254.5 53q-135 0 -236 -43.5t-125 -110.5h-38q-24 67 -125 110.5t-236 43.5q-149 0 -254.5 -53t-105.5 -130q0 -48 40.5 -86.5t112.5 -67.5q-139 -115 -173 -264q-48 67 -93.5 101t-79.5 19q-48 -24 -38.5 -137t67.5 -247z" />
</svg>
