<?xml version="1.0" standalone="no"?>
<!DOCTYPE svg PUBLIC "-//W3C//DTD SVG 1.1//EN" "http://www.w3.org/Graphics/SVG/1.1/DTD/svg11.dtd" >
<svg xmlns="http://www.w3.org/2000/svg" xmlns:xlink="http://www.w3.org/1999/xlink" version="1.1" width="2048" height="2048" viewBox="-10 0 2068 2048">
   <path fill="currentColor"
d="M1819 1819h229v229h-229v-229zM1819 1595h229v-230h-229v230zM0 1136h229v-224h-229v224zM0 1595h229v-230h-229v230zM0 683h229v-230h-229v230zM0 229h229v-229h-229v229zM453 229h230v-229h-230v229zM1365 2048h230v-229h-230v229zM912 2048h224v-229h-224v229z
M1365 2048h230v-229h-230v229zM453 2048h230v-229h-230v229zM0 2048h229v-229h-229v229zM2048 571q0 -155 -77.5 -285.5t-208 -208t-285.5 -77.5h-565v229h565q144 0 243 99t99 243v565h229v-565z" />
</svg>
