<?xml version="1.0" standalone="no"?>
<!DOCTYPE svg PUBLIC "-//W3C//DTD SVG 1.1//EN" "http://www.w3.org/Graphics/SVG/1.1/DTD/svg11.dtd" >
<svg xmlns="http://www.w3.org/2000/svg" xmlns:xlink="http://www.w3.org/1999/xlink" version="1.1" width="2048" height="2048" viewBox="-10 0 2068 2048">
   <path fill="currentColor"
d="M1024 214q-284 0 -548 108q-252 100 -452 292q-24 24 -24 60t24 60l212 212q24 24 60 24t60 -24q100 -92 228 -156q48 -24 48 -80v-264q188 -60 392 -60t392 60v264q0 24 14 46t34 30q116 60 228 160q24 24 60 24t60 -24l212 -212q24 -24 24 -60t-24 -60
q-200 -192 -452 -292q-264 -108 -548 -108zM768 554v256l-80 72q-96 88 -176 176q-112 120 -176 220q-80 128 -80 216v340h1536v-340q0 -88 -80 -216q-64 -100 -176 -220q-80 -88 -176 -176l-80 -72v-256h-172v172h-168v-172h-172zM1024 982q140 0 240 100t100 242t-100 242
t-240 100t-240 -100t-100 -242t100 -242t240 -100zM1024 1110q-88 0 -150 62t-62 150t62 152t150 64t150 -64t62 -152t-62 -150t-150 -62z" />
</svg>
