<?xml version="1.0" standalone="no"?>
<!DOCTYPE svg PUBLIC "-//W3C//DTD SVG 1.1//EN" "http://www.w3.org/Graphics/SVG/1.1/DTD/svg11.dtd" >
<svg xmlns="http://www.w3.org/2000/svg" xmlns:xlink="http://www.w3.org/1999/xlink" version="1.1" width="2048" height="2048" viewBox="-10 0 2068 2048">
   <path fill="currentColor"
d="M769 202q-211 0 -386.5 84t-279 226t-103.5 305q0 145 74.5 269.5t209.5 211.5l-82 240l260 -153q144 48 298 48q-44 -101 -44 -202q0 -169 96.5 -310.5t262 -223.5t358.5 -82h57q-77 -182 -276.5 -297.5t-444.5 -115.5zM462 462q43 0 71.5 28.5t28.5 72t-28.5 72
t-72 28.5t-74.5 -28.5t-31 -72t31 -72t75 -28.5zM971 462q43 0 74.5 28.5t31.5 72t-31.5 72t-74.5 28.5t-72 -28.5t-29 -72t29 -72t72 -28.5zM1433 716q-164 0 -305.5 70t-226 187.5t-84.5 257t84.5 257.5t226 185t305.5 67q105 0 197 -24l216 130l-67 -192
q125 -72 197 -185t72 -245.5t-81.5 -250t-223.5 -187.5t-310 -70zM1231 971q43 0 72 31.5t29 74.5t-29 72t-72.5 29t-74.5 -29t-31 -72t31 -74.5t75 -31.5zM1639 971q44 0 72.5 31.5t28.5 74.5t-28.5 72t-72 29t-72.5 -29t-29 -72t29 -74.5t72 -31.5z" />
</svg>
