<?xml version="1.0" standalone="no"?>
<!DOCTYPE svg PUBLIC "-//W3C//DTD SVG 1.1//EN" "http://www.w3.org/Graphics/SVG/1.1/DTD/svg11.dtd" >
<svg xmlns="http://www.w3.org/2000/svg" xmlns:xlink="http://www.w3.org/1999/xlink" version="1.1" width="2048" height="2048" viewBox="-10 0 2058 2048">
   <path fill="currentColor"
d="M1303 559v-376h-930v376h930zM1024 1489q118 0 198.5 -81t80.5 -198.5t-80.5 -198.5t-198.5 -81t-198.5 81t-80.5 198.5t80.5 198.5t198.5 81zM1491 0l371 371v1118q0 79 -54.5 133.5t-132.5 54.5h-1302q-78 0 -132.5 -54.5t-54.5 -133.5v-1306q0 -74 54.5 -128.5
t132.5 -54.5h1118zM932 1860h184v188h-184v-188zM557 1860h188v188h-188v-188zM1303 1860h188v188h-188v-188z" />
</svg>
