<?xml version="1.0" standalone="no"?>
<!DOCTYPE svg PUBLIC "-//W3C//DTD SVG 1.1//EN" "http://www.w3.org/Graphics/SVG/1.1/DTD/svg11.dtd" >
<svg xmlns="http://www.w3.org/2000/svg" xmlns:xlink="http://www.w3.org/1999/xlink" version="1.1" width="2048" height="2048" viewBox="-10 0 2058 2048">
   <path fill="currentColor"
d="M389 0q-77 5 -132 65t-55 137v1644q0 77 62.5 139.5t144.5 62.5h1230q82 0 144.5 -62.5t62.5 -139.5v-1644q0 -82 -60 -142t-147 -60h-615v716l-255 -154l-259 154v-716h-121zM1024 1125h101q43 0 74.5 31t31.5 75v408h-106v-206h-101v206h-101v-408q0 -44 29 -75t72 -31
zM1024 1231v101h101v-101h-101zM1332 1332h307v101l-206 307h206v106h-307v-106l206 -307h-206v-101z" />
</svg>
