<?xml version="1.0" standalone="no"?>
<!DOCTYPE svg PUBLIC "-//W3C//DTD SVG 1.1//EN" "http://www.w3.org/Graphics/SVG/1.1/DTD/svg11.dtd" >
<svg xmlns="http://www.w3.org/2000/svg" xmlns:xlink="http://www.w3.org/1999/xlink" version="1.1" width="2048" height="2048" viewBox="-10 0 2068 2048">
   <path fill="currentColor"
d="M932 1721v183h-745q-78 0 -132.5 -54.5t-54.5 -128.5v-1490q0 -74 54.5 -128.5t132.5 -54.5h1674q78 0 132.5 54.5t54.5 128.5v754l-22 -18q-74 -74 -165 -74v-475h-1674v1303h745zM1900 1098l117 118q14 17 14 39t-14 39l-91 92l-196 -196l91 -92q22 -22 39.5 -22
t39.5 22zM1869 1434l-557 566h-196v-196l566 -566z" />
</svg>
