<?xml version="1.0" standalone="no"?>
<!DOCTYPE svg PUBLIC "-//W3C//DTD SVG 1.1//EN" "http://www.w3.org/Graphics/SVG/1.1/DTD/svg11.dtd" >
<svg xmlns="http://www.w3.org/2000/svg" xmlns:xlink="http://www.w3.org/1999/xlink" version="1.1" width="2048" height="2048" viewBox="-10 0 2058 2048">
   <path fill="currentColor"
d="M1024 1673q-78 0 -132.5 54.5t-54.5 133t54.5 133t132.5 54.5t132.5 -54.5t54.5 -133t-54.5 -133t-132.5 -54.5zM466 0q-78 0 -132.5 54.5t-54.5 133t54.5 133t133 54.5t133 -54.5t54.5 -133t-54.5 -133t-133.5 -54.5zM466 558q-78 0 -132.5 54.5t-54.5 133t54.5 132.5
t133 54t133 -54t54.5 -132.5t-54.5 -133t-133.5 -54.5zM466 1116q-78 0 -132.5 54t-54.5 132.5t54.5 133t133 54.5t133 -54.5t54.5 -133t-54.5 -132.5t-133.5 -54zM1582 375q78 0 132.5 -54.5t54.5 -133t-54.5 -133t-133 -54.5t-133 54.5t-54.5 133t54.5 133t133.5 54.5z
M1024 1116q-78 0 -132.5 54t-54.5 132.5t54.5 133t132.5 54.5t132.5 -54.5t54.5 -133t-54.5 -132.5t-132.5 -54zM1582 1116q-79 0 -133.5 54t-54.5 132.5t54.5 133t133 54.5t133 -54.5t54.5 -133t-54.5 -132.5t-132.5 -54zM1582 558q-79 0 -133.5 54.5t-54.5 133t54.5 132.5
t133 54t133 -54t54.5 -132.5t-54.5 -133t-132.5 -54.5zM1024 558q-78 0 -132.5 54.5t-54.5 133t54.5 132.5t132.5 54t132.5 -54t54.5 -132.5t-54.5 -133t-132.5 -54.5zM1024 0q-78 0 -132.5 54.5t-54.5 133t54.5 133t132.5 54.5t132.5 -54.5t54.5 -133t-54.5 -133
t-132.5 -54.5z" />
</svg>
