<?xml version="1.0" standalone="no"?>
<!DOCTYPE svg PUBLIC "-//W3C//DTD SVG 1.1//EN" "http://www.w3.org/Graphics/SVG/1.1/DTD/svg11.dtd" >
<svg xmlns="http://www.w3.org/2000/svg" xmlns:xlink="http://www.w3.org/1999/xlink" version="1.1" width="2048" height="2048" viewBox="-10 0 2058 2048">
   <path fill="currentColor"
d="M397 0q144 0 243 98.5t99 242.5q0 107 -61.5 195t-157.5 125q37 374 336 555q197 117 475 144q37 -96 125 -160t195 -64q144 0 242.5 101.5t98.5 242.5t-98.5 240t-242.5 99q-112 0 -200 -64t-126 -160q-224 -11 -389 -75q-139 -48 -245 -144q-75 -64 -176 -192v203
q101 32 162.5 120t61.5 200q0 144 -99 242.5t-240 98.5t-242.5 -98.5t-101.5 -242.5q0 -112 64 -200t165 -120v-726q-101 -32 -165 -120t-64 -200q0 -144 101.5 -242.5t239.5 -98.5zM397 229q-48 0 -80 32t-32 80t32 80t80 32t83 -32t35 -80t-35 -80t-83 -32zM397 1595
q-48 0 -80 32t-32 80t32 80t80 32t83 -32t35 -80t-35 -80t-83 -32zM1651 1365q-48 0 -80 32t-32 80t32 83t80 35t80 -35t32 -83t-32 -80t-80 -32z" />
</svg>
