<?xml version="1.0" standalone="no"?>
<!DOCTYPE svg PUBLIC "-//W3C//DTD SVG 1.1//EN" "http://www.w3.org/Graphics/SVG/1.1/DTD/svg11.dtd" >
<svg xmlns="http://www.w3.org/2000/svg" xmlns:xlink="http://www.w3.org/1999/xlink" version="1.1" width="2048" height="2048" viewBox="-10 0 2068 2048">
   <path fill="currentColor"
d="M0 20l1870 1750l6 16q10 21 7.5 41.5t-23.5 41.5q-31 31 -73 26q-21 -5 -36 -16zM556 196l1449 1335l11 16q5 16 2.5 36.5t-23.5 44t-44.5 26t-43.5 -7.5l-16 -11zM166 575l1450 1330l5 16q10 21 7.5 41.5t-23 41.5t-44 23.5t-44.5 -2.5l-16 -10zM1023 347l1014 935
l10 21q5 26 -15.5 46.5t-52.5 15.5l-20 -10zM291 1007l1013 935l10 21q6 26 -15 46.5t-47 15.5q-16 -5 -26 -10v0zM1501 565l463 421l5 10q0 16 -10.5 29t-31.5 -3zM525 1469l462 426l5 10q6 11 -7 24t-34 -3z" />
</svg>
