<?xml version="1.0" standalone="no"?>
<!DOCTYPE svg PUBLIC "-//W3C//DTD SVG 1.1//EN" "http://www.w3.org/Graphics/SVG/1.1/DTD/svg11.dtd" >
<svg xmlns="http://www.w3.org/2000/svg" xmlns:xlink="http://www.w3.org/1999/xlink" version="1.1" width="2048" height="2048" viewBox="-10 0 2058 2048">
   <path fill="currentColor"
d="M1125 1231q-226 0 -361 77q-96 57 -129 149q81 38 131.5 115t50.5 168q0 130 -89 219t-216 89t-218.5 -89t-91.5 -219q0 -96 57.5 -175t149.5 -113v-856q-92 -34 -149.5 -113t-57.5 -175q0 -130 91.5 -219t218.5 -89t216 89t89 219q0 96 -55 175t-147 113v543
q154 -115 409 -115q183 0 288 -82q77 -57 106 -149q-82 -33 -134.5 -110t-52.5 -173q0 -125 89 -216.5t216 -91.5t218.5 91.5t91.5 216.5q0 105 -60 187t-156 106q-29 163 -120 269q-135 159 -385 159zM510 1639q-44 0 -72.5 29t-28.5 72.5t28.5 74.5t72 31t74.5 -31
t31 -74.5t-31 -72.5t-74 -29zM510 202q-44 0 -72.5 31t-28.5 74.5t28.5 72.5t72 29t74.5 -29t31 -72.5t-31 -74.5t-74 -31zM1538 409q-43 0 -74 28.5t-31 72t31 74.5t74.5 31t72 -31t28.5 -74.5t-28.5 -72t-72.5 -28.5z" />
</svg>
