<?xml version="1.0" standalone="no"?>
<!DOCTYPE svg PUBLIC "-//W3C//DTD SVG 1.1//EN" "http://www.w3.org/Graphics/SVG/1.1/DTD/svg11.dtd" >
<svg xmlns="http://www.w3.org/2000/svg" xmlns:xlink="http://www.w3.org/1999/xlink" version="1.1" width="2048" height="2048" viewBox="-10 0 2068 2048">
   <path fill="currentColor"
d="M923 1639h202v-206h-202v206zM1024 0q-202 0 -392 77t-334 221t-221 334t-77 392t77 392t221 334t334 221t392 77t392 -77t334 -221t221 -334t77 -392t-77 -392t-221 -334t-334 -221t-392 -77zM1024 1846q-221 0 -411 -110.5t-300.5 -300.5t-110.5 -411t110.5 -411
t300.5 -300.5t411 -110.5t411 110.5t300.5 300.5t110.5 411t-110.5 411t-300.5 300.5t-411 110.5zM1024 409q-168 0 -288.5 120t-120.5 288h202q0 -81 60 -141.5t147 -60.5t147 60.5t60 141.5q0 63 -39 111q-24 29 -91 77q-87 67 -120 120q-58 82 -58 207h202q0 -77 48 -140
q29 -38 106 -105.5t106 -110.5q48 -67 48 -159q0 -168 -120.5 -288t-288.5 -120z" />
</svg>
