<?xml version="1.0" standalone="no"?>
<!DOCTYPE svg PUBLIC "-//W3C//DTD SVG 1.1//EN" "http://www.w3.org/Graphics/SVG/1.1/DTD/svg11.dtd" >
<svg xmlns="http://www.w3.org/2000/svg" xmlns:xlink="http://www.w3.org/1999/xlink" version="1.1" width="2048" height="2048" viewBox="-11 0 2069 2048">
   <path fill="currentColor"
d="M866 1768q-74 107 -189 161t-242 44t-232 -83t-159 -190.5t-42 -245t86 -234.5q68 -93 166 -147t206 -59l5 152q-69 5 -135 41.5t-110 100.5q-78 112 -56 244.5t129.5 208t239.5 48.5t210 -139q44 -64 54 -147v-107l587 -5l5 -10q44 -74 122.5 -96t147 20t90.5 120
t-19.5 151.5t-120 95.5t-147 -17t-88.5 -108h-425q-20 108 -83 201zM1624 1024q132 15 234.5 93t151.5 193t34.5 242.5t-93 227.5t-195.5 151.5t-245 36.5q-117 -14 -210 -75.5t-152 -154.5l132 -78q40 64 103.5 103t136.5 49q137 14 244.5 -66.5t125 -210t-68.5 -235
t-223 -119.5q-83 -10 -156 19l-88 44l-269 -499h-25q-83 0 -139 -61t-53.5 -141.5t63.5 -137t141.5 -51.5t139.5 63.5t54 141.5q-5 69 -49 118l200 367q98 -35 206 -20zM636 740q-49 -122 -34.5 -246.5t88 -227.5t193.5 -154.5t244.5 -34t227.5 95.5t156 196
q44 107 37 219.5t-61 205.5l-127 -73q34 -64 36.5 -139.5t-26.5 -144.5q-54 -127 -179 -178.5t-244.5 0t-168.5 176t5 247.5q44 102 136 161l40 20l-318 523l9 20q40 68 15.5 146.5t-95.5 117.5t-149.5 14.5t-117.5 -98t-14.5 -151.5t92.5 -117q64 -35 132 -20l240 -391
q-78 -74 -117 -167z" />
</svg>
