<?xml version="1.0" standalone="no"?>
<!DOCTYPE svg PUBLIC "-//W3C//DTD SVG 1.1//EN" "http://www.w3.org/Graphics/SVG/1.1/DTD/svg11.dtd" >
<svg xmlns="http://www.w3.org/2000/svg" xmlns:xlink="http://www.w3.org/1999/xlink" version="1.1" width="2048" height="2048" viewBox="-10 0 2068 2048">
   <path fill="currentColor"
d="M409 0q168 0 288 120t120 289v206h414v-206q0 -169 120 -289t288.5 -120t288.5 120t120 288.5t-120 288.5t-289 120h-206v414h206q169 0 289 120t120 288.5t-120 288.5t-288.5 120t-288.5 -120t-120 -289v-206h-414v206q0 169 -120 289t-288.5 120t-288.5 -120
t-120 -288.5t120 -288.5t289 -120h206v-414h-206q-169 0 -289 -120t-120 -288.5t120 -288.5t289 -120zM1433 1639q0 87 60 147t146.5 60t146.5 -60t60 -146.5t-60 -146.5t-147 -60h-206v206zM1231 817h-414v414h414v-414zM409 1433q-87 0 -147 60t-60 146.5t60 146.5
t146.5 60t146.5 -60t60 -147v-206h-206zM615 409q0 -87 -60 -147t-146.5 -60t-146.5 60t-60 146.5t60 146.5t147 60h206v-206zM1639 615q87 0 147 -60t60 -146.5t-60 -146.5t-146.5 -60t-146.5 60t-60 147v206h206z" />
</svg>
