<?xml version="1.0" standalone="no"?>
<!DOCTYPE svg PUBLIC "-//W3C//DTD SVG 1.1//EN" "http://www.w3.org/Graphics/SVG/1.1/DTD/svg11.dtd" >
<svg xmlns="http://www.w3.org/2000/svg" xmlns:xlink="http://www.w3.org/1999/xlink" version="1.1" width="2048" height="2048" viewBox="-10 0 2068 2048">
   <path fill="currentColor"
d="M1926 298l-133 -55v882l239 -574q32 -73 0 -149t-106 -104zM16 661l487 1171q23 55 71 87.5t103 36.5q42 0 78 -18l726 -299q50 -23 82.5 -71t36.5 -103q0 -37 -13 -78l-492 -1171q-18 -55 -68.5 -89.5t-105.5 -34.5q-37 0 -78 14l-721 298q-74 32 -106 108t0 149z
M1600 289q0 -82 -57.5 -139.5t-139.5 -57.5h-143l340 817v-620z" />
</svg>
