<?xml version="1.0" standalone="no"?>
<!DOCTYPE svg PUBLIC "-//W3C//DTD SVG 1.1//EN" "http://www.w3.org/Graphics/SVG/1.1/DTD/svg11.dtd" >
<svg xmlns="http://www.w3.org/2000/svg" xmlns:xlink="http://www.w3.org/1999/xlink" version="1.1" width="2048" height="2048" viewBox="-10 0 2068 2048">
   <path fill="currentColor"
d="M1689 891v133q150 0 254.5 104.5t104.5 250.5q0 108 -63 196l-96 -96q26 -46 26 -100q0 -92 -67 -157t-159 -65v134l-200 -204q21 -17 200 -196zM1689 1871v-134q-146 0 -250 -104t-104 -254q0 -105 58 -197l100 96q-25 50 -25 101q0 91 65 158t156 67v-134l205 201
q-21 16 -205 200zM1155 1379q0 -155 79.5 -288.5t211 -210.5t292 -77t310.5 88q-63 -76 -146 -121.5t-179 -54.5q-46 -233 -229.5 -385.5t-425.5 -152.5q-188 0 -348.5 98t-243.5 261q-134 17 -242.5 90t-171 189.5t-62.5 254.5q0 142 71 265t194 196t269 73h667
q-46 -109 -46 -225z" />
</svg>
