<?xml version="1.0" standalone="no"?>
<!DOCTYPE svg PUBLIC "-//W3C//DTD SVG 1.1//EN" "http://www.w3.org/Graphics/SVG/1.1/DTD/svg11.dtd" >
<svg xmlns="http://www.w3.org/2000/svg" xmlns:xlink="http://www.w3.org/1999/xlink" version="1.1" width="2048" height="2048" viewBox="-10 0 2068 2048">
   <path fill="currentColor"
d="M1231 101q-226 0 -413.5 110.5t-298 298t-110.5 411t110.5 411t298 298t411 110.5t411 -110.5t298 -298t110.5 -411t-110.5 -411t-298 -298t-408.5 -110.5zM298 490q-139 116 -218.5 284t-79.5 351q0 221 110.5 411t298 300.5t408.5 110.5q96 0 193 -24
q-270 -62 -481 -255q-149 -82 -238 -228.5t-89 -314.5q0 -39 10 -91q-10 -68 -10 -116q0 -221 96 -428z" />
</svg>
