<?xml version="1.0" standalone="no"?>
<!DOCTYPE svg PUBLIC "-//W3C//DTD SVG 1.1//EN" "http://www.w3.org/Graphics/SVG/1.1/DTD/svg11.dtd" >
<svg xmlns="http://www.w3.org/2000/svg" xmlns:xlink="http://www.w3.org/1999/xlink" version="1.1" width="2048" height="2048" viewBox="-10 0 2058 2048">
   <path fill="currentColor"
d="M1024 0q168 0 288 120t120 290t-120 290t-288 120t-288 -120t-120 -290t120 -290t288 -120zM1024 1026q221 0 410.5 55.5t299.5 149t110 203.5v206h-1640v-206q0 -110 110 -203.5t299.5 -149t410.5 -55.5zM511 1842h206v206h-206v-206zM923 1842h202v206h-202v-206z
M1331 1842h206v206h-206v-206z" />
</svg>
