<?xml version="1.0" standalone="no"?>
<!DOCTYPE svg PUBLIC "-//W3C//DTD SVG 1.1//EN" "http://www.w3.org/Graphics/SVG/1.1/DTD/svg11.dtd" >
<svg xmlns="http://www.w3.org/2000/svg" xmlns:xlink="http://www.w3.org/1999/xlink" version="1.1" width="2048" height="2048" viewBox="-10 0 2068 2048">
   <path fill="currentColor"
d="M921 94q-37 0 -78 14l-721 298q-74 33 -106 108.5t0 149.5l487 1170q23 56 71 88t103 32q46 0 78 -14l726 -298q50 -23 82.5 -71.5t36.5 -103.5q0 -37 -13 -78l-492 -1171q-18 -55 -68.5 -89.5t-105.5 -34.5zM1260 94l340 817v-619q0 -83 -57.5 -140.5t-139.5 -57.5h-143
zM1793 246v881l239 -574q16 -36 16 -73t-16 -74q-32 -73 -106 -105zM921 287l486 1176l-725 303l-487 -1176z" />
</svg>
