<?xml version="1.0" standalone="no"?>
<!DOCTYPE svg PUBLIC "-//W3C//DTD SVG 1.1//EN" "http://www.w3.org/Graphics/SVG/1.1/DTD/svg11.dtd" >
<svg xmlns="http://www.w3.org/2000/svg" xmlns:xlink="http://www.w3.org/1999/xlink" version="1.1" width="2048" height="2048" viewBox="-10 0 2058 2048">
   <path fill="currentColor"
d="M2014 894q0 68 -47 115l-827 828q-50 48 -116 48q-67 0 -115 -48l-827 -828q-48 -46 -48 -115q0 -68 48 -116l94 -94q50 -48 116 -48t113 48l374 374v-896q0 -67 48.5 -114.5t115.5 -47.5h162q67 0 115 47.5t48 114.5v896l373 -374q48 -48 115 -48q66 0 116 48l95 94
q47 49 47 116z" />
</svg>
