<?xml version="1.0" standalone="no"?>
<!DOCTYPE svg PUBLIC "-//W3C//DTD SVG 1.1//EN" "http://www.w3.org/Graphics/SVG/1.1/DTD/svg11.dtd" >
<svg xmlns="http://www.w3.org/2000/svg" xmlns:xlink="http://www.w3.org/1999/xlink" version="1.1" width="2048" height="2048" viewBox="-10 0 2068 2048">
   <path fill="currentColor"
d="M0 0h1707v1707h-1707v-1707zM1819 1819h229v229h-229v-229zM1819 1477h229v230h-229v-230zM1819 1136h229v229h-229v-229zM1819 795h229v229h-229v-229zM1819 453h229v230h-229v-230zM1477 1819h230v229h-230v-229zM1136 1819h229v229h-229v-229zM795 1819h229v229h-229
v-229zM453 1819h230v229h-230v-229z" />
</svg>
