<?xml version="1.0" standalone="no"?>
<!DOCTYPE svg PUBLIC "-//W3C//DTD SVG 1.1//EN" "http://www.w3.org/Graphics/SVG/1.1/DTD/svg11.dtd" >
<svg xmlns="http://www.w3.org/2000/svg" xmlns:xlink="http://www.w3.org/1999/xlink" version="1.1" width="2048" height="2048" viewBox="-10 0 2068 2048">
   <path fill="currentColor"
d="M1231 101q-226 0 -413.5 110.5t-298 298t-110.5 411t110.5 411t298 298t411 110.5t411 -110.5t298 -298t110.5 -413.5h-202q0 168 -84 310t-223.5 224t-308 82t-310 -82t-223.5 -224t-82 -307.5t82 -307.5t223.5 -226t310.5 -84q62 0 130 14l163 -163q-139 -53 -293 -53z
M1904 260l-673 677l-245 -245l-145 145l390 389l817 -817zM298 490q-139 116 -218.5 284t-79.5 351q0 221 110.5 411t298 300.5t408.5 110.5q96 0 193 -24q-270 -62 -481 -255q-149 -82 -238 -228.5t-89 -314.5q0 -39 10 -91q-10 -68 -10 -116q0 -221 96 -428z" />
</svg>
