<?xml version="1.0" standalone="no"?>
<!DOCTYPE svg PUBLIC "-//W3C//DTD SVG 1.1//EN" "http://www.w3.org/Graphics/SVG/1.1/DTD/svg11.dtd" >
<svg xmlns="http://www.w3.org/2000/svg" xmlns:xlink="http://www.w3.org/1999/xlink" version="1.1" width="2048" height="2048" viewBox="-10 0 2058 2048">
   <path fill="currentColor"
d="M1243 0q-78 0 -135 57t-57 137.5t57 134.5t134.5 54t134.5 -54t57 -134.5t-57 -137.5t-134 -57zM1195 611q-66 6 -216 95q-102 66 -233 162l-114 84q-18 12 -18 18t6 24l18 24q12 18 15 21t21 -9l137 -90q84 -54 111 -33t9 111q-6 54 -54 233q-95 359 -137 593
q-30 215 119 203q90 -12 216 -89l299 -210q18 -6 15 -18t-15 -30l-12 -18q-18 -18 -30 -6l-36 24q-89 60 -131 84q-78 30 -90 -6t30 -210q24 -101 96 -371l95 -347q18 -108 6 -156q-12 -89 -107 -83z" />
</svg>
