<?xml version="1.0" standalone="no"?>
<!DOCTYPE svg PUBLIC "-//W3C//DTD SVG 1.1//EN" "http://www.w3.org/Graphics/SVG/1.1/DTD/svg11.dtd" >
<svg xmlns="http://www.w3.org/2000/svg" xmlns:xlink="http://www.w3.org/1999/xlink" version="1.1" width="2048" height="2048" viewBox="-10 0 2068 2048">
   <path fill="currentColor"
d="M716 1000q-53 0 -91 36t-38 89t38 91.5t91 38.5t91.5 -38.5t38.5 -91.5t-38.5 -89t-91.5 -36zM1332 1000q-53 0 -91.5 36t-38.5 89t38.5 91.5t91.5 38.5t91 -38.5t38 -91.5t-38 -89t-91 -36zM1024 0q-202 0 -392 77t-334 221t-221 334t-77 392t77 392t221 334t334 221
t392 77t392 -77t334 -221t221 -334t77 -392t-77 -392t-221 -334t-334 -221t-392 -77zM1024 1846q-221 0 -411 -110.5t-300.5 -300.5t-110.5 -411q0 -58 5 -87q182 -81 321.5 -225.5t216.5 -326.5q140 202 361 317t476 115q115 0 230 -24q34 116 34 231q0 221 -110.5 411
t-300.5 300.5t-411 110.5z" />
</svg>
