<?xml version="1.0" standalone="no"?>
<!DOCTYPE svg PUBLIC "-//W3C//DTD SVG 1.1//EN" "http://www.w3.org/Graphics/SVG/1.1/DTD/svg11.dtd" >
<svg xmlns="http://www.w3.org/2000/svg" xmlns:xlink="http://www.w3.org/1999/xlink" version="1.1" width="2048" height="2048" viewBox="-10 0 2068 2048">
   <path fill="currentColor"
d="M681 974q101 0 171.5 -71t70.5 -171.5t-70.5 -171.5t-171 -71t-171.5 71t-71 171.5t71 171.5t171 71zM681 50q188 0 343 91.5t246.5 247t91.5 342.5q0 229 -173 558q-128 233 -330 494q-100 132 -178 215l-105 -124q-128 -160 -238 -315q-146 -224 -233 -412
q-105 -237 -105 -420t91.5 -338.5t247 -247t342.5 -91.5zM1266 1513h293v-292h196v292h293v192h-293v293h-196v-293h-293v-192z" />
</svg>
