<?xml version="1.0" standalone="no"?>
<!DOCTYPE svg PUBLIC "-//W3C//DTD SVG 1.1//EN" "http://www.w3.org/Graphics/SVG/1.1/DTD/svg11.dtd" >
<svg xmlns="http://www.w3.org/2000/svg" xmlns:xlink="http://www.w3.org/1999/xlink" version="1.1" width="2048" height="2048" viewBox="-11 0 2070 2048">
   <path fill="currentColor"
d="M6 160l129 -129l1859 1859l-129 129l-205 -205q-19 14 -43 28q-77 34 -172 15q-58 -10 -182 -48q-81 -29 -124 -38q-72 -20 -127 -20t-122 20q-43 9 -129 38q-119 43 -181 52q-96 15 -170 -21t-119.5 -122t-35.5 -172q4 -67 66 -134q39 -43 130 -110q76 -67 109 -100
q48 -43 134 -163q53 -76 81 -110zM651 31q91 -14 174.5 72t110 219.5t-11.5 238.5l-407 -406q43 -110 134 -124zM1382 31q91 14 134 119.5t17 241.5t-110 222t-174.5 71.5t-136 -119.5t-17 -241t112.5 -222t174 -72zM106 499q86 -38 191.5 22t165 179.5t40.5 231.5t-105 148
t-189 -21.5t-162.5 -179.5t-43 -231.5t102.5 -148.5zM1942 499q86 39 102.5 148.5t-43 231.5t-162.5 179.5t-189 21.5t-105 -148t40.5 -231.5t165 -179.5t191.5 -22z" />
</svg>
