<?xml version="1.0" standalone="no"?>
<!DOCTYPE svg PUBLIC "-//W3C//DTD SVG 1.1//EN" "http://www.w3.org/Graphics/SVG/1.1/DTD/svg11.dtd" >
<svg xmlns="http://www.w3.org/2000/svg" xmlns:xlink="http://www.w3.org/1999/xlink" version="1.1" width="2048" height="2048" viewBox="-10 0 2068 2048">
   <path fill="currentColor"
d="M865 1831q172 0 321 -86t237.5 -235.5t88.5 -326.5h212q0 238 -116 435t-313.5 313.5t-432.5 116.5t-432 -116.5t-313.5 -313.5t-116.5 -432t116.5 -432.5t313.5 -313.5t435 -116v212q-177 0 -326.5 88.5t-235.5 237.5t-86 323.5t86 324t235.5 235.5t326.5 86zM1724 324
h324v212h-324v324h-212v-324h-324v-212h324v-324h212v324z" />
</svg>
