<?xml version="1.0" standalone="no"?>
<!DOCTYPE svg PUBLIC "-//W3C//DTD SVG 1.1//EN" "http://www.w3.org/Graphics/SVG/1.1/DTD/svg11.dtd" >
<svg xmlns="http://www.w3.org/2000/svg" xmlns:xlink="http://www.w3.org/1999/xlink" version="1.1" width="2048" height="2048" viewBox="-10 0 2058 2048">
   <path fill="currentColor"
d="M711 434l164 279q-203 19 -335.5 166t-132.5 350q0 140 67.5 258t185.5 185.5t258 67.5q159 0 286.5 -84.5t185.5 -224.5h-265v-202h824v202h-231q-68 246 -255 415h279v202h-1643v-202h274q-130 -116 -202 -277.5t-72 -339.5q0 -280 171 -501.5t441 -293.5zM1048 0
l77 135l87 -53l361 626l-356 203l-362 -622l92 -53l-77 -135z" />
</svg>
