<?xml version="1.0" standalone="no"?>
<!DOCTYPE svg PUBLIC "-//W3C//DTD SVG 1.1//EN" "http://www.w3.org/Graphics/SVG/1.1/DTD/svg11.dtd" >
<svg xmlns="http://www.w3.org/2000/svg" xmlns:xlink="http://www.w3.org/1999/xlink" version="1.1" width="2048" height="2048" viewBox="-10 0 2068 2048">
   <path fill="currentColor"
d="M1024 1111v608q0 35 -25.5 60.5t-61 25.5t-61.5 -26l-195 -194l-451 449q-13 13 -30.5 13t-31.5 -13l-155 -154q-13 -13 -13 -32q0 -18 13 -31l451 -449l-196 -196q-26 -26 -26 -61t26 -60.5t62 -25.5h607q36 0 61.5 25.5t25.5 60.5zM2048 200q0 17 -14 31l-450 449
l195 196q26 26 26 61t-25.5 61.5t-61.5 26.5h-607q-36 0 -61.5 -26.5t-25.5 -61.5v-608q0 -35 25.5 -60.5t61.5 -25.5q34 0 60 26l196 196l450 -451q13 -13 32 -13q17 0 31 13l154 154q14 14 14 32z" />
</svg>
