<?xml version="1.0" standalone="no"?>
<!DOCTYPE svg PUBLIC "-//W3C//DTD SVG 1.1//EN" "http://www.w3.org/Graphics/SVG/1.1/DTD/svg11.dtd" >
<svg xmlns="http://www.w3.org/2000/svg" xmlns:xlink="http://www.w3.org/1999/xlink" version="1.1" width="2048" height="2048" viewBox="-10 0 2068 2048">
   <path fill="currentColor"
d="M327 1172q35 18 43.5 57t-11 71.5t-54.5 41.5t-70 -9q-109 -61 -172 -167.5t-63 -233t63 -233t170 -170t233 -63.5q70 -165 220.5 -267.5t337.5 -102.5q157 0 292 74t218 202.5t96 281.5h43q157 0 266 108.5t109 261.5t-109 261.5t-266 108.5q-39 0 -65 -26t-26 -65
t26 -65.5t65 -26.5q79 0 133.5 -54.5t54.5 -132.5t-54.5 -132.5t-133.5 -54.5h-183v-92q0 -126 -63 -233t-170 -170t-233 -63q-174 0 -302.5 111t-155.5 281q-52 -17 -100 -17q-117 0 -198 80.5t-81 197.5q0 75 37 140t103 100zM793 932h279l-187 371h187l-349 649l70 -462
h-235zM1534 1643q0 91 -61 154.5t-148 63.5t-148 -63.5t-61 -152.5t104 -251q52 -78 105 -139l56 70q61 82 101 157q52 100 52 161z" />
</svg>
