<?xml version="1.0" standalone="no"?>
<!DOCTYPE svg PUBLIC "-//W3C//DTD SVG 1.1//EN" "http://www.w3.org/Graphics/SVG/1.1/DTD/svg11.dtd" >
<svg xmlns="http://www.w3.org/2000/svg" xmlns:xlink="http://www.w3.org/1999/xlink" version="1.1" width="2048" height="2048" viewBox="-10 0 2068 2048">
   <path fill="currentColor"
d="M1529 608l244 416l-239 416l-67 -110l153 -253q29 -53 0 -101l-153 -258zM1529 470q-4 0 -9 4l-129 230q-10 9 0 24l167 286q5 10 0 24l-167 282q-5 10 0 24l129 225q5 9 9.5 9t9.5 -4l306 -526q9 -24 0 -43l-306 -531q0 -4 -10 -4zM2036 991l-473 -827q-24 -34 -62 -34
h-956q-38 0 -57 34l-478 827q-20 33 0 66l478 827q19 34 57 34h956q38 0 62 -34l473 -827q24 -33 0 -66zM550 202h898l-444 789h-493l402 -698q5 -5 0 -12t-10 -7h-263q-9 0 -19 14l-406 703h-119zM435 1072l363 626h-129l-387 -674l387 -674h129l-373 641q-9 33 5 66z
M550 1846l-454 -789h119l406 703q10 14 19 14h263q5 0 10 -7t0 -12l-402 -698h493l449 789h-903zM1515 1813l-449 -789l449 -793l459 793z" />
</svg>
