<?xml version="1.0" standalone="no"?>
<!DOCTYPE svg PUBLIC "-//W3C//DTD SVG 1.1//EN" "http://www.w3.org/Graphics/SVG/1.1/DTD/svg11.dtd" >
<svg xmlns="http://www.w3.org/2000/svg" xmlns:xlink="http://www.w3.org/1999/xlink" version="1.1" width="2048" height="2048" viewBox="-10 0 2068 2048">
   <path fill="currentColor"
d="M1630 1687q0 92 -61 155t-148.5 63t-148.5 -63t-61 -152.5t105 -250.5q52 -79 105 -140l52 70q61 83 100 157q57 100 57 161zM279 1565q-9 -35 10.5 -69.5t59.5 -43.5l209 -57l-153 -152q-30 -31 -30 -70t28 -67.5t69.5 -28.5t67.5 31l153 152l56 -209q9 -39 44 -58.5
t72 -11t56.5 43.5t10.5 74l-56 209l209 -52q39 -13 74 6.5t46 58.5t-8.5 72t-59.5 41l-209 57l153 153q26 30 26 69.5t-28.5 67.5t-67.5 28t-65 -26l-153 -157l-57 209q-13 40 -45.5 59.5t-71.5 10.5t-59 -43.5t-11 -74.5l57 -209l-209 57q-40 9 -72.5 -11t-45.5 -59zM0 977
q0 -126 63 -233t170 -170t233 -63q70 -166 220.5 -268.5t337.5 -102.5q157 0 292 74t218 203t96 281h43q157 0 266 109t109 261.5t-109 261.5t-266 109q-39 0 -65 -26t-26 -65.5t26 -65.5t65 -26q79 0 133.5 -54.5t54.5 -133t-54.5 -133t-133.5 -54.5h-183v-91
q0 -127 -63 -233.5t-170 -170t-233 -63.5q-174 0 -302.5 111.5t-155.5 280.5q-52 -17 -100 -17q-117 0 -198 80.5t-81 198.5t83 200q26 26 26 63.5t-26 63.5t-65 26t-66 -26q-65 -66 -102 -151t-37 -176z" />
</svg>
