<?xml version="1.0" standalone="no"?>
<!DOCTYPE svg PUBLIC "-//W3C//DTD SVG 1.1//EN" "http://www.w3.org/Graphics/SVG/1.1/DTD/svg11.dtd" >
<svg xmlns="http://www.w3.org/2000/svg" xmlns:xlink="http://www.w3.org/1999/xlink" version="1.1" width="2048" height="2048" viewBox="-10 0 2058 2048">
   <path fill="currentColor"
d="M1175 0v817h823q0 -221 -111 -408.5t-298.5 -298t-413.5 -110.5zM1824 1423q174 -221 174 -500h-1496l-96 -207h-356v207h226l101 212q101 216 116 240q-87 43 -137.5 129.5t-50.5 187.5q0 149 106 252.5t255 103.5q134 0 235 -86.5t116 -221.5h216q19 135 120 221.5
t236 86.5q149 0 252.5 -103.5t103.5 -252.5q0 -81 -31.5 -151t-89.5 -118zM666 1846q-67 0 -110.5 -45.5t-43.5 -110.5t43.5 -108.5t108 -43.5t110.5 43.5t46 108.5t-46 110.5t-108 45.5zM1589 1846q-67 0 -110.5 -45.5t-43.5 -110.5t43.5 -108.5t108 -43.5t110.5 43.5
t46 108.5t-46 110.5t-108 45.5z" />
</svg>
