<?xml version="1.0" standalone="no"?>
<!DOCTYPE svg PUBLIC "-//W3C//DTD SVG 1.1//EN" "http://www.w3.org/Graphics/SVG/1.1/DTD/svg11.dtd" >
<svg xmlns="http://www.w3.org/2000/svg" xmlns:xlink="http://www.w3.org/1999/xlink" version="1.1" width="2048" height="2048" viewBox="-10 0 2068 2048">
   <path fill="currentColor"
d="M1990 981l-923 -923q-62 -58 -144 -58h-721q-82 0 -142 60t-60 142v721q0 82 58 144l923 923q62 58 146 58t142 -58l721 -721q58 -58 58 -142t-58 -146zM356 510q-63 0 -108.5 -43.5t-45.5 -108.5t45.5 -110.5t110.5 -45.5t108.5 45.5t43.5 110.5t-43.5 108.5
t-110.5 43.5zM1562 1361l-437 437l-438 -437q-72 -77 -72 -183t74.5 -180.5t180.5 -74.5t183 72l72 77l77 -77q72 -72 180 -72t182.5 74.5t74.5 180.5t-77 183z" />
</svg>
