<?xml version="1.0" standalone="no"?>
<!DOCTYPE svg PUBLIC "-//W3C//DTD SVG 1.1//EN" "http://www.w3.org/Graphics/SVG/1.1/DTD/svg11.dtd" >
<svg xmlns="http://www.w3.org/2000/svg" xmlns:xlink="http://www.w3.org/1999/xlink" version="1.1" width="2048" height="2048" viewBox="-10 0 2068 2048">
   <path fill="currentColor"
d="M1024 0q202 0 392 77t334 221t221 334t77 392t-77 392t-221 334t-334 221t-392 77t-392 -77t-334 -221t-221 -334t-77 -392t77 -392t221 -334t334 -221t392 -77zM1024 202q-221 0 -411 110.5t-300.5 300.5t-110.5 411t110.5 411t300.5 300.5t411 110.5
q-168 0 -288.5 -120t-120.5 -291t120.5 -291t288.5 -120t288.5 -120t120.5 -291t-120.5 -291t-288.5 -120zM1024 462q62 0 108 43t46 108t-46 110.5t-108 45.5t-108 -45.5t-46 -110.5t46 -108t108 -43zM1024 1279q-62 0 -108 45.5t-46 110.5t46 108t108 43t108 -43t46 -108
t-46 -110.5t-108 -45.5z" />
</svg>
