<?xml version="1.0" standalone="no"?>
<!DOCTYPE svg PUBLIC "-//W3C//DTD SVG 1.1//EN" "http://www.w3.org/Graphics/SVG/1.1/DTD/svg11.dtd" >
<svg xmlns="http://www.w3.org/2000/svg" xmlns:xlink="http://www.w3.org/1999/xlink" version="1.1" width="2048" height="2048" viewBox="-10 0 2058 2048">
   <path fill="currentColor"
d="M202 0h207v202q0 110 48 201.5t146.5 190t329.5 247.5l-188 121q-178 -121 -283 -226q-260 -246 -260 -534v-202zM1639 0h207v202q0 288 -260 534q-96 96 -240 197q-86 62 -264 177.5t-265 173.5q-134 91 -216 173q-96 96 -144 187.5t-48 201.5v202h-207v-202
q0 -288 260 -534q96 -96 240 -197q86 -62 264 -177.5t265 -173.5q134 -91 216 -173q96 -96 144 -187.5t48 -201.5v-202zM1303 1086q178 121 283 226q260 246 260 534v202h-207v-202q0 -110 -48 -201.5t-146.5 -190t-329.5 -247.5zM510 101h1028v101l-9 53h-1010l-9 -53v-101
zM582 409h884q-43 62 -91 110l-53 43h-601l-48 -43q-48 -48 -91 -110zM726 1486h601l48 43q48 48 91 110h-884q43 -62 91 -110zM519 1793h1010l9 53v101h-1028v-101z" />
</svg>
