<?xml version="1.0" standalone="no"?>
<!DOCTYPE svg PUBLIC "-//W3C//DTD SVG 1.1//EN" "http://www.w3.org/Graphics/SVG/1.1/DTD/svg11.dtd" >
<svg xmlns="http://www.w3.org/2000/svg" xmlns:xlink="http://www.w3.org/1999/xlink" version="1.1" width="2048" height="2048" viewBox="-10 0 2058 2048">
   <path fill="currentColor"
d="M1399 245q-149 -91 -327 -86q-125 0 -206.5 55t-81.5 151t96 159q62 43 245 106q221 72 322 153q130 111 130 279q0 101 -50.5 187.5t-132.5 144.5q101 96 101 240q0 202 -163 317q-145 96 -361 96q-226 10 -423 -115l67 -154q164 111 361 111q135 0 221.5 -60t86.5 -161
t-72.5 -163.5t-264.5 -125.5q-240 -86 -346 -168q-130 -106 -130 -269q5 -101 60.5 -187.5t141.5 -134.5q-101 -91 -101 -231q0 -178 144.5 -283.5t360.5 -105.5q207 0 380 91zM957 1168q168 53 312 134q53 -38 79.5 -93.5t26.5 -117.5q0 -173 -250 -260q-173 -57 -336 -139
q-58 34 -91.5 94t-33.5 132t67 134.5t226 115.5z" />
</svg>
