<?xml version="1.0" standalone="no"?>
<!DOCTYPE svg PUBLIC "-//W3C//DTD SVG 1.1//EN" "http://www.w3.org/Graphics/SVG/1.1/DTD/svg11.dtd" >
<svg xmlns="http://www.w3.org/2000/svg" xmlns:xlink="http://www.w3.org/1999/xlink" version="1.1" width="2048" height="2048" viewBox="-10 0 2068 2048">
   <path fill="currentColor"
d="M1673 1355l-523 -523l44 9q174 44 253 78q135 66 183 170q43 66 43 266zM1856 1468q-4 27 -13 53l140 144q52 -92 65 -197h-192zM885 536v-92h-122l95 92h27zM1965 1882l-117 118l-114 -109q-96 39 -200 39h-1534v-183h375v-187h-279v-1307l-83 -87l83 -83v-9h9l26 -26z
M1211 1560h-653v187h653v-187zM1586 1743l-179 -183h-13v187h140q35 0 52 -4zM885 353v-279h-493l279 279h214z" />
</svg>
