<?xml version="1.0" standalone="no"?>
<!DOCTYPE svg PUBLIC "-//W3C//DTD SVG 1.1//EN" "http://www.w3.org/Graphics/SVG/1.1/DTD/svg11.dtd" >
<svg xmlns="http://www.w3.org/2000/svg" xmlns:xlink="http://www.w3.org/1999/xlink" version="1.1" width="2048" height="2048" viewBox="-10 0 2068 2048">
   <path fill="currentColor"
d="M1024 0q-279 0 -514.5 137t-372.5 372.5t-137 514.5t137 514.5t372.5 372.5t514.5 137q202 0 392 -77t334 -221t221 -334t77 -392q0 -279 -137 -514.5t-372.5 -372.5t-514.5 -137zM1024 1846q-221 0 -411 -110.5t-300.5 -300.5t-110.5 -411t110.5 -411t300.5 -300.5
t411 -110.5t411 110.5t300.5 300.5t110.5 411t-110.5 411t-300.5 300.5t-411 110.5zM1125 812l111 111l110 -111l106 111l110 -111l-216 -216zM702 812l110 111l111 -111l-221 -216l-216 216l110 111zM1024 1586q178 0 320 -98.5t204 -256.5h-1048q62 158 204 256.5
t320 98.5z" />
</svg>
