<?xml version="1.0" standalone="no"?>
<!DOCTYPE svg PUBLIC "-//W3C//DTD SVG 1.1//EN" "http://www.w3.org/Graphics/SVG/1.1/DTD/svg11.dtd" >
<svg xmlns="http://www.w3.org/2000/svg" xmlns:xlink="http://www.w3.org/1999/xlink" version="1.1" width="2048" height="2048" viewBox="-10 0 2058 2048">
   <path fill="currentColor"
d="M1891 1230q62 35 80 103.5t-18 129.5l-85 146q-35 61 -103.5 79.5t-129.5 -16.5l-355 -204v410q0 70 -50 120t-120 50h-171q-70 0 -120.5 -50t-50.5 -120v-410l-355 204q-61 35 -129.5 16.5t-103.5 -79.5l-86 -146q-35 -61 -16.5 -129.5t79.5 -103.5l355 -205l-355 -206
q-61 -35 -79.5 -103.5t16.5 -129.5l86 -147q35 -61 103.5 -79.5t129.5 16.5l355 204v-410q0 -70 50.5 -120t120.5 -50h171q70 0 120 50t50 120v410l355 -204q61 -35 129.5 -16.5t103.5 79.5l85 147q36 61 18 129.5t-80 103.5l-354 206z" />
</svg>
