<?xml version="1.0" standalone="no"?>
<!DOCTYPE svg PUBLIC "-//W3C//DTD SVG 1.1//EN" "http://www.w3.org/Graphics/SVG/1.1/DTD/svg11.dtd" >
<svg xmlns="http://www.w3.org/2000/svg" xmlns:xlink="http://www.w3.org/1999/xlink" version="1.1" width="2048" height="2048" viewBox="-10 0 2068 2048">
   <path fill="currentColor"
d="M1024 96q78 0 132.5 54.5t54.5 128.5q0 52 -26 95.5t-69 65.5v118h95q175 0 325 89t237.5 237.5t87.5 326.5h91q39 0 67.5 26.5t28.5 65.5v279q0 39 -28.5 65t-67.5 26h-91v96q0 74 -54.5 128.5t-133.5 54.5h-1298q-79 0 -133.5 -54.5t-54.5 -128.5v-96h-91
q-39 0 -67.5 -26t-28.5 -65v-279q0 -39 28.5 -65.5t67.5 -26.5h91q0 -178 87.5 -326.5t237.5 -237.5t325 -89h95v-118q-43 -22 -69 -65.5t-26 -95.5q0 -74 54.5 -128.5t132.5 -54.5zM606 1116q-96 0 -163.5 69.5t-67.5 165.5t67.5 163.5t163.5 67.5t163.5 -67.5t67.5 -163.5
t-67.5 -165.5t-163.5 -69.5zM1442 1116q-96 0 -163.5 69.5t-67.5 165.5t67.5 163.5t163.5 67.5t163.5 -67.5t67.5 -163.5t-67.5 -165.5t-163.5 -69.5z" />
</svg>
