<?xml version="1.0" standalone="no"?>
<!DOCTYPE svg PUBLIC "-//W3C//DTD SVG 1.1//EN" "http://www.w3.org/Graphics/SVG/1.1/DTD/svg11.dtd" >
<svg xmlns="http://www.w3.org/2000/svg" xmlns:xlink="http://www.w3.org/1999/xlink" version="1.1" width="2048" height="2048" viewBox="-10 0 2065 2048">
   <path fill="currentColor"
d="M632 547l-629 624l629 624l624 -624zM279 1171l353 -353l352 353l-352 353zM1789 570q-122 -127 -282.5 -192.5t-332.5 -65.5v-312l-407 411l407 407v-312q136 0 258 50t222 149q131 127 176 301t0 348t-176 305q-100 95 -222 147t-260 52t-269 -59l-145 140
q195 109 416 109q172 0 332.5 -63.5t282.5 -189.5q167 -167 226 -391q30 -112 30 -224t-30 -224q-59 -224 -226 -386z" />
</svg>
