<?xml version="1.0" standalone="no"?>
<!DOCTYPE svg PUBLIC "-//W3C//DTD SVG 1.1//EN" "http://www.w3.org/Graphics/SVG/1.1/DTD/svg11.dtd" >
<svg xmlns="http://www.w3.org/2000/svg" xmlns:xlink="http://www.w3.org/1999/xlink" version="1.1" width="2048" height="2048" viewBox="-10 0 2068 2048">
   <path fill="currentColor"
d="M1692 923q-149 0 -254.5 106t-105.5 255q0 115 91 288q67 125 173 264l96 111l92 -111q105 -139 173 -264q91 -173 91 -288q0 -149 -106 -255t-250 -106zM1692 1413q-53 0 -89 -36t-36 -86.5t38.5 -86.5t84.5 -36t84 38.5t43 84t-33.5 84t-91.5 38.5zM1284 1745h-1082
q-82 0 -142 -60t-60 -147v-1230q0 -87 60 -147t142 -60h1644q82 0 142 60t60 147v543q-91 -77 -202 -111v-226h-1644v308h1168q-110 77 -177.5 199.5t-67.5 262.5q0 192 159 461z" />
</svg>
