<?xml version="1.0" standalone="no"?>
<!DOCTYPE svg PUBLIC "-//W3C//DTD SVG 1.1//EN" "http://www.w3.org/Graphics/SVG/1.1/DTD/svg11.dtd" >
<svg xmlns="http://www.w3.org/2000/svg" xmlns:xlink="http://www.w3.org/1999/xlink" version="1.1" width="2048" height="2048" viewBox="-10 0 2068 2048">
   <path fill="currentColor"
d="M663 1332q44 0 75 28.5t31 72t-31 74.5t-74.5 31t-72.5 -31t-29 -74.5t29 -72t72 -28.5zM510 716h1028v515h-1028v-515zM1385 1332q43 0 72 28.5t29 72t-29 74.5t-72.5 31t-74.5 -31t-31 -74.5t31 -72t75 -28.5zM1639 1423v-707q0 -182 -178 -254q-139 -53 -437 -53
q-284 0 -423 53q-192 72 -192 254v707q0 111 79 190t190 79l-116 116v38h174l153 -154h289l154 154h154v-38l-116 -116q111 0 190 -79t79 -190zM1620 82q202 77 315 240.5t113 379.5v1346h-2048v-1346q0 -216 113 -379.5t315 -240.5q125 -53 298 -68q120 -14 298 -14t298 14
q173 15 298 68z" />
</svg>
