<?xml version="1.0" standalone="no"?>
<!DOCTYPE svg PUBLIC "-//W3C//DTD SVG 1.1//EN" "http://www.w3.org/Graphics/SVG/1.1/DTD/svg11.dtd" >
<svg xmlns="http://www.w3.org/2000/svg" xmlns:xlink="http://www.w3.org/1999/xlink" version="1.1" width="2048" height="2048" viewBox="-10 0 2068 2048">
   <path fill="currentColor"
d="M1238 1680v-75v-624v-256h-427v256v624v75q0 33 24 51.5t61 18.5h256q37 0 61.5 -18.5t24.5 -51.5zM629 555h260l-168 -215q-36 -42 -92 -42q-53 0 -90 37.5t-37 91t37 91t90 37.5zM1547 426.5q0 -53.5 -37.5 -91t-90.5 -37.5q-56 0 -92 42l-167 215h259q53 0 90.5 -37.5
t37.5 -91zM2048 768v426q0 19 -12 31.5t-30 12.5h-128v554q0 53 -37.5 90.5t-91.5 37.5h-1450q-54 0 -91.5 -37.5t-37.5 -90.5v-554h-127q-18 0 -30.5 -12.5t-12.5 -31.5v-426q0 -18 12.5 -30.5t30.5 -12.5h586q-124 0 -211.5 -87t-87.5 -211.5t87.5 -211.5t211.5 -87
q67 0 126 26.5t98 75.5l172 221l170 -221q39 -49 98 -75.5t126 -26.5q124 0 211.5 87t87.5 211.5t-87.5 211.5t-211.5 87h587q18 0 30 12.5t12 30.5z" />
</svg>
