<?xml version="1.0" standalone="no"?>
<!DOCTYPE svg PUBLIC "-//W3C//DTD SVG 1.1//EN" "http://www.w3.org/Graphics/SVG/1.1/DTD/svg11.dtd" >
<svg xmlns="http://www.w3.org/2000/svg" xmlns:xlink="http://www.w3.org/1999/xlink" version="1.1" width="2048" height="2048" viewBox="-10 0 2068 2048">
   <path fill="currentColor"
d="M229 0q-96 0 -162.5 66.5t-66.5 162.5v1590q0 96 66.5 162.5t162.5 66.5h1590q96 0 162.5 -66.5t66.5 -162.5v-1590q0 -96 -66.5 -162.5t-162.5 -66.5h-1590zM1456 229h363v1387q-22 -69 -96.5 -114.5t-154.5 -45.5h-112v-341q0 -48 -32 -80t-80 -32h-683v-230h224
q48 0 83 -34.5t35 -77.5v-229h224q90 0 154 -58.5t75 -144.5zM229 832l544 512v112q0 96 67 162.5t163 66.5v134h-774v-987z" />
</svg>
