<?xml version="1.0" standalone="no"?>
<!DOCTYPE svg PUBLIC "-//W3C//DTD SVG 1.1//EN" "http://www.w3.org/Graphics/SVG/1.1/DTD/svg11.dtd" >
<svg xmlns="http://www.w3.org/2000/svg" xmlns:xlink="http://www.w3.org/1999/xlink" version="1.1" width="2048" height="2048" viewBox="-10 0 2068 2048">
   <path fill="currentColor"
d="M1463 878q0 -30 -21.5 -52t-51.5 -22q-149 0 -277.5 30.5t-241 92.5t-209.5 143t-201 196q-22 23 -22 50q0 30 21.5 52t51.5 22q27 0 51 -22q31 -28 84.5 -81.5t77.5 -74.5q157 -142 307 -202t358 -60q30 0 51.5 -21t21.5 -51zM2048 652q0 108 -23 220q-27 130 -82 242.5
t-136 203.5t-180 164t-221 134q-245 124 -501 124q-167 0 -327 -54q-18 -6 -101 -48t-109 -42q-13 0 -29.5 17t-32 43t-35 56t-38.5 56t-43 43t-47 17q-26 0 -45 -5.5t-33.5 -19t-23.5 -26t-23 -37.5q-2 -3 -6.5 -11.5t-6.5 -12t-3.5 -10.5t-1.5 -16q0 -40 35.5 -84
t77.5 -74.5t77.5 -64t35.5 -55.5q0 -4 -15.5 -43t-18.5 -51q-10 -55 -10 -118q0 -107 32.5 -205.5t89.5 -178.5t135 -147.5t167.5 -117t188.5 -81.5q63 -21 166 -29.5t205 -10t204 -7t187.5 -27.5t129.5 -64l34 -34t33.5 -32t31 -23t41.5 -18t50 -5q37 0 67.5 35.5t49 88
t31.5 114.5t18 111t5 83z" />
</svg>
