<?xml version="1.0" standalone="no"?>
<!DOCTYPE svg PUBLIC "-//W3C//DTD SVG 1.1//EN" "http://www.w3.org/Graphics/SVG/1.1/DTD/svg11.dtd" >
<svg xmlns="http://www.w3.org/2000/svg" xmlns:xlink="http://www.w3.org/1999/xlink" version="1.1" width="2048" height="2048" viewBox="-10 0 2068 2048">
   <path fill="currentColor"
d="M1024 745q118 0 198.5 80.5t80.5 198.5t-80.5 198.5t-198.5 80.5t-198.5 -80.5t-80.5 -198.5t80.5 -198.5t198.5 -80.5zM1024 327q344 0 623 194t401 503q-122 309 -401 503t-623 194t-623 -194t-401 -503q122 -309 401 -503t623 -194zM205 1024q113 235 335.5 372.5
t483.5 137.5t483.5 -137.5t335.5 -372.5q-113 -235 -335.5 -372.5t-483.5 -137.5t-483.5 137.5t-335.5 372.5z" />
</svg>
