<?xml version="1.0" standalone="no"?>
<!DOCTYPE svg PUBLIC "-//W3C//DTD SVG 1.1//EN" "http://www.w3.org/Graphics/SVG/1.1/DTD/svg11.dtd" >
<svg xmlns="http://www.w3.org/2000/svg" xmlns:xlink="http://www.w3.org/1999/xlink" version="1.1" width="2048" height="2048" viewBox="-10 0 2068 2048">
   <path fill="currentColor"
d="M2048 0h-87q-110 10 -225 38q-169 44 -327 121q-202 91 -375 240q-212 168 -385 409q-163 221 -303 466q-110 197 -202 399q-62 144 -110 274l-34 101l197 -101q111 -192 185.5 -295.5t184.5 -218.5q217 67 390 28q211 -43 375 -230q-140 -44 -294 -44q-101 0 -317 24
q202 -139 360.5 -180t351.5 -7l105 -207q-144 -24 -252 -24t-238 29q168 -120 279 -163q139 -53 312 -44l125 -202q-115 -4 -211 5q-82 15 -231 48q125 -110 250 -165.5t289 -64.5l62 -101q77 -111 125 -135z" />
</svg>
