<?xml version="1.0" standalone="no"?>
<!DOCTYPE svg PUBLIC "-//W3C//DTD SVG 1.1//EN" "http://www.w3.org/Graphics/SVG/1.1/DTD/svg11.dtd" >
<svg xmlns="http://www.w3.org/2000/svg" xmlns:xlink="http://www.w3.org/1999/xlink" version="1.1" width="2048" height="2048" viewBox="-10 0 2058 2048">
   <path fill="currentColor"
d="M1639 1846h-1230v-207h-207v207q0 82 60 142t147 60h1230q87 0 147 -60t60 -142v-207h-207v207zM1231 0h-822q-87 0 -147 60t-60 142v822h207v-822h822v413h408v409h207v-409zM923 1433h-308v-202h308v202zM1433 1433h-308v-202h308v202zM101 1231h308v202h-308v-202z
M1947 1433h-308v-202h308v202z" />
</svg>
