<?xml version="1.0" standalone="no"?>
<!DOCTYPE svg PUBLIC "-//W3C//DTD SVG 1.1//EN" "http://www.w3.org/Graphics/SVG/1.1/DTD/svg11.dtd" >
<svg xmlns="http://www.w3.org/2000/svg" xmlns:xlink="http://www.w3.org/1999/xlink" version="1.1" width="2048" height="2048" viewBox="-10 0 2068 2048">
   <path fill="currentColor"
d="M1800 1529l-179 -183q139 -8 240 -47q165 -66 183 -197q4 -30 -18 -61q-78 -104 -213 -248q-214 -222 -510 -466h-279v183h187l183 187l-370 188l-837 -96l-187 279l427 130l-279 157q-52 26 -87 57q-61 56 -61 130.5t31 113.5q47 65 156 65h558q113 0 214 -78
q126 -100 152 -297h249l183 188h-240v187h466q113 0 196 -82.5t83 -196.5h-187q0 26 -17.5 50t-43.5 37zM745 1534h-536l462 -262l253 74q-22 109 -92 157q-43 31 -87 31z" />
</svg>
