<?xml version="1.0" standalone="no"?>
<!DOCTYPE svg PUBLIC "-//W3C//DTD SVG 1.1//EN" "http://www.w3.org/Graphics/SVG/1.1/DTD/svg11.dtd" >
<svg xmlns="http://www.w3.org/2000/svg" xmlns:xlink="http://www.w3.org/1999/xlink" version="1.1" width="2048" height="2048" viewBox="-10 0 2058 2048">
   <path fill="currentColor"
d="M1828 1938v73q0 14 -10.5 25.5t-25.5 11.5h-1536q-14 0 -25 -11.5t-11 -25.5v-73q0 -14 11 -25.5t25 -11.5h1536q15 0 25.5 11.5t10.5 25.5zM1536 731q0 70 -17.5 132t-47 108.5t-68 88.5t-81 76t-84.5 66.5t-80.5 65.5t-68 67t-47.5 76t-18 88q0 56 22.5 126.5
t53.5 129.5l-4 -1l2 1q-103 -47 -183.5 -94.5t-158.5 -114t-129.5 -140.5t-83 -172t-31.5 -210q0 -63 14.5 -120t39 -100.5t57.5 -83.5t70 -71.5t75.5 -63.5t75.5 -59t70 -58.5t57.5 -62t38.5 -69t14 -80.5q0 -104 -76 -256l4 1l-2 -1q103 47 183.5 94.5t158.5 114
t129.5 140.5t83 172t31.5 210z" />
</svg>
