<?xml version="1.0" standalone="no"?>
<!DOCTYPE svg PUBLIC "-//W3C//DTD SVG 1.1//EN" "http://www.w3.org/Graphics/SVG/1.1/DTD/svg11.dtd" >
<svg xmlns="http://www.w3.org/2000/svg" xmlns:xlink="http://www.w3.org/1999/xlink" version="1.1" width="2048" height="2048" viewBox="-10 0 2068 2048">
   <path fill="currentColor"
d="M1902 1024q-84 -129 -195 -233t-241 -171q70 119 70 258q0 103 -40.5 198t-109.5 163.5t-163.5 109.5t-198.5 41t-198.5 -41t-163.5 -109.5t-109.5 -163.5t-40.5 -198q0 -139 70 -258q-130 67 -241 171t-195 233q151 235 381 373.5t497 138.5t497 -138.5t381 -373.5z
M1079 585.5q0 -22.5 -16.5 -39t-38.5 -16.5q-94 0 -174 47t-126.5 127t-46.5 174q0 22 16 38t38.5 16t38.5 -16t16 -38q0 -98 70 -168t168 -70q22 0 38.5 -16t16.5 -38.5zM2048 1024.5q0 39.5 -23 79.5q-159 262 -429.5 420t-571.5 158t-571.5 -158.5t-429.5 -419.5
q-23 -40 -23 -79.5t23 -78.5q160 -263 430 -421.5t571 -158.5t571 158.5t430 421.5q23 39 23 78.5z" />
</svg>
