<?xml version="1.0" standalone="no"?>
<!DOCTYPE svg PUBLIC "-//W3C//DTD SVG 1.1//EN" "http://www.w3.org/Graphics/SVG/1.1/DTD/svg11.dtd" >
<svg xmlns="http://www.w3.org/2000/svg" xmlns:xlink="http://www.w3.org/1999/xlink" version="1.1" width="2048" height="2048" viewBox="-10 0 2068 2048">
   <path fill="currentColor"
d="M453 0q192 0 325.5 133.5t133.5 319.5q0 160 -96 283t-245 160v256q58 16 117 48l512 -512q-64 -107 -64 -235q0 -186 133.5 -319.5t322.5 -133.5t322.5 133.5t133.5 322.5t-133.5 322.5t-319.5 133.5q-128 0 -230 -64l-517 517q64 102 64 230q0 186 -133.5 319.5
t-322.5 133.5t-322.5 -133.5t-133.5 -319.5q0 -160 96 -283t245 -160v-256q-149 -37 -245 -160t-96 -283q0 -186 133.5 -319.5t319.5 -133.5zM1595 1136q186 0 319.5 133.5t133.5 322.5t-133.5 322.5t-322.5 133.5t-322.5 -133.5t-133.5 -322.5t133.5 -322.5t325.5 -133.5z
M1595 1365q-96 0 -163 67t-67 160t67 160t160 67t160 -67t67 -160t-67 -160t-157 -67z" />
</svg>
