<?xml version="1.0" standalone="no"?>
<!DOCTYPE svg PUBLIC "-//W3C//DTD SVG 1.1//EN" "http://www.w3.org/Graphics/SVG/1.1/DTD/svg11.dtd" >
<svg xmlns="http://www.w3.org/2000/svg" xmlns:xlink="http://www.w3.org/1999/xlink" version="1.1" width="2048" height="2048" viewBox="-10 0 2068 2048">
   <path fill="currentColor"
d="M1466 1290l582 582l-176 176l-582 -582v-93l-33 -33q-214 181 -494 181q-208 0 -384 -101.5t-277.5 -277.5t-101.5 -381.5t101.5 -381.5t277.5 -277.5t381.5 -101.5t381.5 101.5t277.5 277.5t101.5 384q0 280 -181 494l33 33h93zM763 1290q220 0 373.5 -153.5t153.5 -373
t-153.5 -373.5t-373 -154t-373.5 154t-154 373.5t154 373t373 153.5zM1054 818h-236v236h-115v-236h-236v-115h236v-236h115v236h236v115z" />
</svg>
