<?xml version="1.0" standalone="no"?>
<!DOCTYPE svg PUBLIC "-//W3C//DTD SVG 1.1//EN" "http://www.w3.org/Graphics/SVG/1.1/DTD/svg11.dtd" >
<svg xmlns="http://www.w3.org/2000/svg" xmlns:xlink="http://www.w3.org/1999/xlink" version="1.1" width="2048" height="2048" viewBox="-10 0 2058 2048">
   <path fill="currentColor"
d="M1225 806v139l207 201v-340q163 -39 249 -185t43 -311.5t-187 -252t-309.5 -43t-251.5 189.5t-43 309q29 111 108 190t184 103zM1331 206q81 0 141 60t60 146.5t-60 146.5t-143.5 60t-143.5 -60t-60 -146.5t60 -146.5t146 -60zM1815 2048l-398 -393q-33 134 -126.5 232.5
t-225.5 136.5t-266 5q-168 -39 -278.5 -178t-110.5 -311v-514l508 514h-306q0 124 91 215.5t218 91.5t215.5 -91.5t88.5 -215.5v-77l-1122 -1127l130 -130l1712 1713z" />
</svg>
