<?xml version="1.0" standalone="no"?>
<!DOCTYPE svg PUBLIC "-//W3C//DTD SVG 1.1//EN" "http://www.w3.org/Graphics/SVG/1.1/DTD/svg11.dtd" >
<svg xmlns="http://www.w3.org/2000/svg" xmlns:xlink="http://www.w3.org/1999/xlink" version="1.1" width="2048" height="2048" viewBox="-10 0 2058 2048">
   <path fill="currentColor"
d="M631 613q0 209 215 471q152 184 571 561v-1174q-53 -110 -160 -178t-233 -68q-168 0 -280.5 110t-112.5 278zM1637 471v1174v303l-110 100l-163 -147q-361 -324 -502 -471q-226 -231 -330 -409q-121 -204 -121 -408q0 -168 81.5 -309.5t222.5 -222.5t309 -81
q141 0 282.5 65.5t236 175.5t94.5 230z" />
</svg>
