<?xml version="1.0" standalone="no"?>
<!DOCTYPE svg PUBLIC "-//W3C//DTD SVG 1.1//EN" "http://www.w3.org/Graphics/SVG/1.1/DTD/svg11.dtd" >
<svg xmlns="http://www.w3.org/2000/svg" xmlns:xlink="http://www.w3.org/1999/xlink" version="1.1" width="2048" height="2048" viewBox="-10 0 2068 2048">
   <path fill="currentColor"
d="M1769 932h279v184h-279v-184zM0 932h279v184h-279v-184zM1116 0v279h-184v-279h184zM366 235l196 196l-131 131l-196 -196zM1486 431l196 -196l131 131l-196 196zM1024 466q153 0 281.5 74t202.5 202.5t74 281.5t-76.5 281.5t-202.5 202.5v165q0 39 -26 67.5t-66 28.5
h-374q-40 0 -66 -28.5t-26 -67.5v-165q-126 -74 -202.5 -202.5t-76.5 -281.5t74 -281.5t202.5 -202.5t281.5 -74zM1211 1861v91q0 39 -28 67.5t-67 28.5h-184q-39 0 -67 -28.5t-28 -67.5v-91h374zM932 1582h184v-196q122 -35 200 -133t78 -229q0 -153 -108.5 -261.5
t-261.5 -108.5t-261.5 108.5t-108.5 261.5q0 131 78 229t200 133v196z" />
</svg>
