<?xml version="1.0" standalone="no"?>
<!DOCTYPE svg PUBLIC "-//W3C//DTD SVG 1.1//EN" "http://www.w3.org/Graphics/SVG/1.1/DTD/svg11.dtd" >
<svg xmlns="http://www.w3.org/2000/svg" xmlns:xlink="http://www.w3.org/1999/xlink" version="1.1" width="2048" height="2048" viewBox="-10 0 2068 2048">
   <path fill="currentColor"
d="M1546 1816q-187 106 -425 110.5t-482 -101.5q-202 -86 -365.5 -227.5t-273.5 -319.5q91 77 235 144q255 120 499.5 117.5t432.5 -117.5q-413 -317 -860 -893q-33 -33 -91 -120l-24 -33q269 196 552 432q101 86 106 79t-82 -123q-177 -259 -326 -489q312 312 672 585
q177 135 293 207l38 19q15 -38 24 -77q63 -216 3 -453.5t-214 -448.5q230 139 393.5 350t226 449t4.5 454q-5 24 -5 38q67 82 106 173q38 77 53 158q14 68 11.5 120.5t-12 76.5t-19.5 10q-81 -163 -240 -173q-96 -5 -230 53z" />
</svg>
