<?xml version="1.0" standalone="no"?>
<!DOCTYPE svg PUBLIC "-//W3C//DTD SVG 1.1//EN" "http://www.w3.org/Graphics/SVG/1.1/DTD/svg11.dtd" >
<svg xmlns="http://www.w3.org/2000/svg" xmlns:xlink="http://www.w3.org/1999/xlink" version="1.1" width="2048" height="2048" viewBox="-10 0 2068 2048">
   <path fill="currentColor"
d="M1178 817q0 68 -46 111t-108 43t-108 -43t-46 -108t46 -111t108 -46t108 46t46 108zM2048 202v1231q0 86 -60 146t-142 60h-1437l-409 409v-1846q0 -82 60 -142t142 -60h1644q82 0 142 60t60 142zM1514 952l-110 -82q0 -24 2.5 -50.5t-2.5 -50.5l110 -86q15 -15 5 -34
l-106 -178q-4 -14 -28 -9l-130 48q-44 -34 -87 -48l-19 -135q0 -19 -24 -19h-202q-24 0 -29 19l-19 135q-43 19 -87 48l-129 -48q-20 -10 -29 9l-101 178q-15 19 5 34l105 86q-4 48 0 101l-105 82q-20 14 -5 34l101 177q9 20 29 15l129 -53q44 34 87 53l19 134q5 20 29 20
h202q24 0 29 -20l19 -139q34 -14 87 -48l125 53q28 0 33 -15l101 -177q10 -20 -5 -34z" />
</svg>
