<?xml version="1.0" standalone="no"?>
<!DOCTYPE svg PUBLIC "-//W3C//DTD SVG 1.1//EN" "http://www.w3.org/Graphics/SVG/1.1/DTD/svg11.dtd" >
<svg xmlns="http://www.w3.org/2000/svg" xmlns:xlink="http://www.w3.org/1999/xlink" version="1.1" width="2048" height="2048" viewBox="-10 0 2066 2048">
   <path fill="currentColor"
d="M1537 0q82 0 142 60t60 146v1022q0 86 -60 146t-142 60h-412v202h105q43 0 72 31t29 74h715v201h-715q0 44 -29 75t-72 31h-412q-43 0 -72 -31t-29 -75h-715v-201h715q0 -43 29 -74t72 -31h105v-202h-412q-82 0 -142 -60t-60 -146v-1022q0 -86 60 -146t142 -60h1026z
M1043 206q-134 0 -215.5 60t-76.5 180v5h196q0 -48 29 -72t72 -24t72 28.5t29 76.5t-24 84t-63 60q-81 53 -110 94t-29 122h202q0 -53 14 -79t53 -50q72 -39 115 -99t43 -132q0 -115 -81.5 -184.5t-225.5 -69.5zM923 921v206h202v-206h-202z" />
</svg>
