<?xml version="1.0" standalone="no"?>
<!DOCTYPE svg PUBLIC "-//W3C//DTD SVG 1.1//EN" "http://www.w3.org/Graphics/SVG/1.1/DTD/svg11.dtd" >
<svg xmlns="http://www.w3.org/2000/svg" xmlns:xlink="http://www.w3.org/1999/xlink" version="1.1" width="2048" height="2048" viewBox="-10 0 2068 2048">
   <path fill="currentColor"
d="M634 1452l89 -161q-99 -72 -155 -181.5t-56 -232.5q0 -138 70 -257q-260 133 -436 404q91 141 215.5 251.5t272.5 176.5zM1079 585q0 -23 -16.5 -39t-38.5 -16q-143 0 -245 102t-102 245q0 23 16 39t38 16q23 0 39 -16t16 -39q0 -98 70 -167.5t168 -69.5q22 0 38.5 -16
t16.5 -39zM1494 367q0 8 -1 10q-121 215 -361 647.5t-361 647.5l-56 101q-12 19 -32 19q-16 0 -153 -80q-18 -11 -18 -32q0 -14 50 -100q-164 -75 -301.5 -197.5t-237.5 -279.5q-23 -35 -23 -79t23 -79q175 -269 434 -424.5t567 -155.5q103 0 206 20l61 -111q11 -18 32 -18
q15 0 152 80q19 12 19 31zM1536 877q0 160 -90 291t-239 187l320 -574q9 48 9 96zM2048 1024q0 41 -23 79q-47 77 -124 165q-171 196 -397 305t-480 109l85 -151q243 -21 449 -157t344 -350q-133 -205 -323 -336l72 -128q109 73 208.5 175t165.5 210q23 38 23 79z" />
</svg>
