<?xml version="1.0" standalone="no"?>
<!DOCTYPE svg PUBLIC "-//W3C//DTD SVG 1.1//EN" "http://www.w3.org/Graphics/SVG/1.1/DTD/svg11.dtd" >
<svg xmlns="http://www.w3.org/2000/svg" xmlns:xlink="http://www.w3.org/1999/xlink" version="1.1" width="2048" height="2048" viewBox="-10 0 2068 2048">
   <path fill="currentColor"
d="M1024 845q76 0 127.5 51.5t51.5 125.5t-53.5 125t-125.5 51t-125.5 -51t-53.5 -125t51.5 -125.5t127.5 -51.5zM581 1789q49 26 141 -16t204 -150q-76 -85 -143 -179q-121 -13 -229 -35q-35 152 -26 252.5t53 127.5zM648 1239l-26 -50q-23 59 -27 85l85 14zM1274 1167
l76 -143l-76 -143l-89 -139q-49 -4 -161 -4t-161 4l-89 139l-76 143l76 143l89 139q49 4 161 4t161 -4zM1024 528q-36 40 -58 67h116q-22 -27 -58 -67zM1024 1520q36 -40 58 -67h-116q22 27 58 67zM1467 259q-49 -26 -141 16t-204 150q76 85 143 179q121 13 229 35
q35 -152 26 -252.5t-53 -127.5zM1400 809l26 50q23 -59 27 -85l-85 -14zM1538 134q99 58 121 210q22 134 -27 327q192 58 300 143q116 94 116 210t-116 210q-108 85 -300 143q49 193 27 327q-22 152 -123 210t-239 0q-130 -49 -273 -188q-143 139 -273 188q-138 58 -239 0
t-123 -210q-22 -134 27 -327q-192 -58 -300 -143q-116 -94 -116 -210t116 -210q108 -85 300 -143q-49 -193 -27 -327q22 -152 123 -210t239 0q130 49 273 188q143 -139 273 -188q138 -58 241 0zM1507 1024q54 112 85 215q147 -45 230 -103t83 -112t-83 -112t-230 -103
q-31 103 -85 215zM541 1024q-54 -112 -85 -215q-147 45 -230 103t-83 112t83 112t230 103q31 -103 85 -215zM1400 1239l-32 49l85 -14q-4 -26 -27 -85zM1122 1623q112 108 204 150t138.5 15.5t55.5 -127t-26 -252.5q-108 22 -229 35q-67 94 -143 179zM648 809q5 0 5 -4
l27 -45l-85 14q4 26 27 85zM926 425q-112 -108 -204 -150t-138.5 -15.5t-55.5 127t26 252.5q108 -22 229 -35q67 -94 143 -179z" />
</svg>
