<?xml version="1.0" standalone="no"?>
<!DOCTYPE svg PUBLIC "-//W3C//DTD SVG 1.1//EN" "http://www.w3.org/Graphics/SVG/1.1/DTD/svg11.dtd" >
<svg xmlns="http://www.w3.org/2000/svg" xmlns:xlink="http://www.w3.org/1999/xlink" version="1.1" width="2048" height="2048" viewBox="-10 0 2068 2048">
   <path fill="currentColor"
d="M1466 1290l582 582l-176 176l-582 -582v-93l-33 -33q-214 181 -494 181q-208 0 -384 -101.5t-277.5 -277.5t-101.5 -381.5t101.5 -381.5t277.5 -277.5t381.5 -101.5t381.5 101.5t277.5 277.5t101.5 384q0 280 -181 494l33 33h93zM763 176l-66 5q-66 143 -104 286h335
q-39 -143 -104 -286q-17 -5 -61 -5zM1268 467q-109 -187 -313 -258q61 131 94 258h219zM253 467h225q33 -127 88 -258q-204 71 -313 258zM176 763q0 88 27 176h253l-17 -176l17 -176h-253q-27 83 -27 176zM1318 939q27 -88 27 -178.5t-27 -173.5h-247q11 88 11 176t-11 176
h247zM571 587l-16 176l16 176h379q16 -88 16 -176t-16 -176h-379zM763 1345h61q65 -143 104 -291h-335q38 148 104 291h66zM1268 1054h-219q-33 132 -94 258q204 -66 313 -258zM253 1054q109 192 313 258q-55 -126 -88 -258h-225z" />
</svg>
