<?xml version="1.0" standalone="no"?>
<!DOCTYPE svg PUBLIC "-//W3C//DTD SVG 1.1//EN" "http://www.w3.org/Graphics/SVG/1.1/DTD/svg11.dtd" >
<svg xmlns="http://www.w3.org/2000/svg" xmlns:xlink="http://www.w3.org/1999/xlink" version="1.1" width="2048" height="2048" viewBox="-10 0 2058 2048">
   <path fill="currentColor"
d="M1267 379q76 0 134 -55.5t58 -133.5t-56 -134t-136 -56t-136 56t-56 134t56 133.5t136 55.5zM924 1700l93 -415l201 192v571h192v-714l-201 -192l58 -285q94 111 232.5 173.5t289.5 62.5v-187q-134 0 -241 -65t-169 -167l-94 -152q-62 -94 -161 -94q-13 0 -37.5 4.5
t-37.5 4.5l-496 210v446h192v-326l170 -66l-152 776l-469 -98l-35 192z" />
</svg>
