<?xml version="1.0" standalone="no"?>
<!DOCTYPE svg PUBLIC "-//W3C//DTD SVG 1.1//EN" "http://www.w3.org/Graphics/SVG/1.1/DTD/svg11.dtd" >
<svg xmlns="http://www.w3.org/2000/svg" xmlns:xlink="http://www.w3.org/1999/xlink" version="1.1" width="2048" height="2048" viewBox="-10 0 2068 2048">
   <path fill="currentColor"
d="M1024 0q202 0 392 77t334 221l-144 144q-120 -115 -269.5 -177.5t-312.5 -62.5t-314.5 62.5t-267.5 177.5l-144 -144q144 -144 334 -221t392 -77zM168 462l149 144q-115 197 -115 418t110.5 411t300.5 300.5t411 110.5t411 -110.5t300.5 -300.5t110.5 -411t-115 -418
l149 -144q168 254 168 562q0 202 -77 392t-221 334t-334 221t-392 77t-392 -77t-334 -221t-221 -334t-77 -392q0 -308 168 -562zM1024 409q168 0 310 81.5t223.5 223.5t81.5 310q0 120 -48 235.5t-134 197.5l-145 -145q-120 121 -288 121t-288 -121l-145 145
q-86 -82 -134 -197.5t-48 -235.5q0 -168 81.5 -310t223.5 -223.5t310 -81.5zM1024 615q-43 0 -72 29t-29 72.5t29 72t72 28.5t72 -28.5t29 -72t-29 -72.5t-72 -29z" />
</svg>
