<?xml version="1.0" standalone="no"?>
<!DOCTYPE svg PUBLIC "-//W3C//DTD SVG 1.1//EN" "http://www.w3.org/Graphics/SVG/1.1/DTD/svg11.dtd" >
<svg xmlns="http://www.w3.org/2000/svg" xmlns:xlink="http://www.w3.org/1999/xlink" version="1.1" width="2048" height="2048" viewBox="-10 0 2058 2048">
   <path fill="currentColor"
d="M1028 357q168 0 321.5 64t267.5 178q163 164 220 382t0 436t-220 376q-134 149 -327 213q-183 59 -376 35l49 -213q139 15 272.5 -32.5t237.5 -146.5q119 -123 161 -284t0 -327t-161 -290q-89 -84 -208 -131t-237 -47v485l-530 -530l530 -525v357zM423 1793
q-203 -203 -235 -488t111 -532l159 158q-89 174 -57 374.5t181 343.5q79 80 193 124l-64 213q-159 -64 -288 -193z" />
</svg>
