<?xml version="1.0" standalone="no"?>
<!DOCTYPE svg PUBLIC "-//W3C//DTD SVG 1.1//EN" "http://www.w3.org/Graphics/SVG/1.1/DTD/svg11.dtd" >
<svg xmlns="http://www.w3.org/2000/svg" xmlns:xlink="http://www.w3.org/1999/xlink" version="1.1" width="2048" height="2048" viewBox="-10 0 2058 2048">
   <path fill="currentColor"
d="M1583 0v371h-1118v-371h1118zM1675 838q39 0 67.5 -28t28.5 -67.5t-28.5 -65.5t-68 -26t-65.5 26t-26 65.5t26 67.5t66 28zM1395 1489v-467h-742v467h742zM1675 463q118 0 198.5 83t80.5 196v559h-371v376h-1118v-376h-371v-559q0 -113 80.5 -196t198.5 -83h1302z
M1303 2048v-188h188v188h-188zM932 2048v-188h184v188h-184zM557 2048v-188h188v188h-188z" />
</svg>
