<?xml version="1.0" standalone="no"?>
<!DOCTYPE svg PUBLIC "-//W3C//DTD SVG 1.1//EN" "http://www.w3.org/Graphics/SVG/1.1/DTD/svg11.dtd" >
<svg xmlns="http://www.w3.org/2000/svg" xmlns:xlink="http://www.w3.org/1999/xlink" version="1.1" width="2048" height="2048" viewBox="-11 0 2069 2048">
   <path fill="currentColor"
d="M1317 4l-289 288q-62 58 -62 144.5t62 144.5l144 144l-466 472l-289 -294l-149 145q-226 226 -260 452q-29 164 44 308q33 72 77 110l38 34q58 39 120 63q87 33 183 29q120 -5 241 -58q144 -68 288 -212l145 -144l-289 -289l467 -462l144 140q58 62 144.5 62t144.5 -62
l293 -289zM1610 870l-144 -140l-294 -293l150 -145l433 433z" />
</svg>
