<?xml version="1.0" standalone="no"?>
<!DOCTYPE svg PUBLIC "-//W3C//DTD SVG 1.1//EN" "http://www.w3.org/Graphics/SVG/1.1/DTD/svg11.dtd" >
<svg xmlns="http://www.w3.org/2000/svg" xmlns:xlink="http://www.w3.org/1999/xlink" version="1.1" width="2048" height="2048" viewBox="-10 0 2068 2048">
   <path fill="currentColor"
d="M1760 1714l-137 -137q110 -110 169 -251.5t59 -301.5t-59 -301.5t-169 -251.5l137 -137q137 137 212.5 315t75.5 375t-75.5 375t-212.5 315zM1486 1435l-137 -137q114 -114 114 -274t-114 -274l137 -137q82 77 125.5 184.5t43.5 226.5t-43.5 226.5t-125.5 184.5zM192 146
h782q82 0 139 57.5t57 139.5v1362q0 82 -57 139.5t-139 57.5h-782q-78 0 -135 -57.5t-57 -139.5v-1362q0 -82 57 -139.5t135 -57.5zM585 343q-82 0 -139 57t-57 137t57 137t137 57t137 -57t57 -137t-57 -137t-135 -57zM585 928q-164 0 -278.5 114.5t-114.5 274.5t114.5 274
t276.5 114t276.5 -114t114.5 -274t-114.5 -274.5t-274.5 -114.5zM585 1120q78 0 135 57t57 139.5t-57 139.5t-137 57t-137 -57t-57 -139.5t57 -139.5t139 -57z" />
</svg>
