<?xml version="1.0" standalone="no"?>
<!DOCTYPE svg PUBLIC "-//W3C//DTD SVG 1.1//EN" "http://www.w3.org/Graphics/SVG/1.1/DTD/svg11.dtd" >
<svg xmlns="http://www.w3.org/2000/svg" xmlns:xlink="http://www.w3.org/1999/xlink" version="1.1" width="2048" height="2048" viewBox="-10 0 2068 2048">
   <path fill="currentColor"
d="M202 202q-82 0 -142 60t-60 147v408q82 0 142 60t60 147t-60 147t-142 60v408q0 87 60 147t142 60h1644q82 0 142 -60t60 -147v-408q-82 0 -142 -60t-60 -147t60 -147t142 -60v-408q0 -87 -60 -147t-142 -60h-1644zM1385 510l153 153l-875 875l-153 -153zM697 514
q77 0 130 53t53 130t-53 130t-130 53t-130 -53t-53 -130t53 -130t130 -53zM1351 1168q77 0 130 53t53 130t-53 130t-130 53t-130 -53t-53 -130t53 -130t130 -53z" />
</svg>
