<?xml version="1.0" standalone="no"?>
<!DOCTYPE svg PUBLIC "-//W3C//DTD SVG 1.1//EN" "http://www.w3.org/Graphics/SVG/1.1/DTD/svg11.dtd" >
<svg xmlns="http://www.w3.org/2000/svg" xmlns:xlink="http://www.w3.org/1999/xlink" version="1.1" width="2048" height="2048" viewBox="-10 0 2068 2048">
   <path fill="currentColor"
d="M308 101h202l307 207l-307 202v139q240 -34 514 -34t514 34v-548h202l308 207l-308 202v177q149 34 228.5 82t79.5 101q0 67 -137 127.5t-372.5 94t-514.5 33.5t-514.5 -33.5t-372.5 -94t-137 -127.5q0 -53 79.5 -101t228.5 -82v-586zM1024 769q-274 0 -385 19
q-129 20 -129 82.5t129 81.5q111 19 385 19t385 -19q129 -19 129 -81.5t-129 -82.5q-111 -19 -385 -19zM1024 1308q288 0 540.5 -48.5t425.5 -129.5l-144 817h-514v-207q0 -81 -60.5 -141.5t-146.5 -60.5h-202q-86 0 -146.5 60.5t-60.5 141.5v207h-514l-144 -817
q173 81 425.5 129.5t540.5 48.5z" />
</svg>
