<?xml version="1.0" standalone="no"?>
<!DOCTYPE svg PUBLIC "-//W3C//DTD SVG 1.1//EN" "http://www.w3.org/Graphics/SVG/1.1/DTD/svg11.dtd" >
<svg xmlns="http://www.w3.org/2000/svg" xmlns:xlink="http://www.w3.org/1999/xlink" version="1.1" width="2048" height="2048" viewBox="-10 0 2068 2048">
   <path fill="currentColor"
d="M0 1332q0 -34 5 -63q9 -82 33 -154q34 -105 92 -182q77 -96 182 -154q130 -63 303 -63q145 0 265 63q67 38 178 134q91 82 144 111q86 53 183 53q182 0 288 -96q77 -68 106 -173q14 -53 14 -92h255l-5 63q-9 82 -33 154q-34 105 -92 182q-77 96 -182 154q-130 63 -303 63
q-159 0 -303 -72q-82 -49 -217 -154q-81 -68 -125 -92q-67 -43 -125 -43q-139 0 -235 58q-77 43 -120 125q-34 53 -48 120l-5 58h-255z" />
</svg>
