<?xml version="1.0" standalone="no"?>
<!DOCTYPE svg PUBLIC "-//W3C//DTD SVG 1.1//EN" "http://www.w3.org/Graphics/SVG/1.1/DTD/svg11.dtd" >
<svg xmlns="http://www.w3.org/2000/svg" xmlns:xlink="http://www.w3.org/1999/xlink" version="1.1" width="2048" height="2048" viewBox="-10 0 2068 2048">
   <path fill="currentColor"
d="M317 889h385l-269 -269q-77 0 -132.5 -55t-55.5 -132t55.5 -132.5t132.5 -55.5t132 55.5t55 132.5l269 269v-385q-52 -53 -52 -129.5t55 -132t132 -55.5t132 55.5t55 132t-52 129.5v385l269 -269q0 -82 55 -135t132 -53t132.5 55.5t55.5 132.5t-55.5 132t-132.5 55
l-269 269h385q53 -52 129.5 -52t132 55t55.5 132t-55.5 132t-132 55t-129.5 -52h-385l269 269q82 0 135 55t53 132t-55.5 132.5t-132.5 55.5t-132 -53t-55 -135l-269 -269v385q52 53 52 129.5t-55 132t-132 55.5t-132 -55.5t-55 -132t52 -129.5v-385l-269 269
q0 77 -55 132.5t-132 55.5t-132.5 -55.5t-55.5 -132.5t53 -132t135 -55l269 -269h-385q-53 52 -129.5 52t-132 -55t-55.5 -132t55.5 -132t132 -55t129.5 52z" />
</svg>
