<?xml version="1.0" standalone="no"?>
<!DOCTYPE svg PUBLIC "-//W3C//DTD SVG 1.1//EN" "http://www.w3.org/Graphics/SVG/1.1/DTD/svg11.dtd" >
<svg xmlns="http://www.w3.org/2000/svg" xmlns:xlink="http://www.w3.org/1999/xlink" version="1.1" width="2048" height="2048" viewBox="-11 0 2069 2048">
   <path fill="currentColor"
d="M2010.5 37.5q33.5 33.5 37 92.5t-19 124t-64.5 132t-94 119l-235 236l234 1017q6 28 -18 47l-187 141q-11 9 -28 9q-6 0 -10 -2q-21 -4 -31 -24l-408 -741l-378 378l78 284q6 25 -11 45l-141 140q-13 13 -33 13h-4q-21 -2 -35 -19l-276 -368l-368 -276q-17 -12 -19 -34
q-2 -20 13 -37l141 -142q12 -12 33 -12q9 0 11 1l284 78l378 -378l-741 -408q-22 -13 -26 -35q-2 -24 13 -39l188 -188q20 -18 44 -12l971 233l234 -234q52 -52 119 -94t132 -64t124 -19t92.5 36.5z" />
</svg>
