<?xml version="1.0" standalone="no"?>
<!DOCTYPE svg PUBLIC "-//W3C//DTD SVG 1.1//EN" "http://www.w3.org/Graphics/SVG/1.1/DTD/svg11.dtd" >
<svg xmlns="http://www.w3.org/2000/svg" xmlns:xlink="http://www.w3.org/1999/xlink" version="1.1" width="2048" height="2048" viewBox="-10 0 2058 2048">
   <path fill="currentColor"
d="M1889 1577l-827 471v-365l515 -289zM1947 1524v-981l-303 173v635zM159 1577l827 466v-360l-515 -289zM101 1524v-981l303 173v635zM135 481l851 -481v351l-549 303zM1913 481l-851 -481v351l549 303zM986 1596l-510 -279v-557l510 298v538zM1062 1596l510 -279v-557
l-510 298v538zM510 697l514 -284l514 284l-514 293z" />
</svg>
