<?xml version="1.0" standalone="no"?>
<!DOCTYPE svg PUBLIC "-//W3C//DTD SVG 1.1//EN" "http://www.w3.org/Graphics/SVG/1.1/DTD/svg11.dtd" >
<svg xmlns="http://www.w3.org/2000/svg" xmlns:xlink="http://www.w3.org/1999/xlink" version="1.1" width="2048" height="2048" viewBox="-10 0 2068 2048">
   <path fill="currentColor"
d="M0 1428q0 173 106 269t283 96h1308q149 0 250 -91t101 -236v-956q0 -92 -57.5 -169t-134.5 -77h-303v789q0 211 -164 336q-149 116 -360.5 116t-355.5 -111q-163 -120 -163 -327v-812h-231q-116 0 -197.5 67t-81.5 173v933zM750 947q0 159 87 250q76 77 187 79.5
t192.5 -69.5t81.5 -188v-764h-548v692z" />
</svg>
