<?xml version="1.0" standalone="no"?>
<!DOCTYPE svg PUBLIC "-//W3C//DTD SVG 1.1//EN" "http://www.w3.org/Graphics/SVG/1.1/DTD/svg11.dtd" >
<svg xmlns="http://www.w3.org/2000/svg" xmlns:xlink="http://www.w3.org/1999/xlink" version="1.1" width="2048" height="2048" viewBox="-10 0 2058 2048">
   <path fill="currentColor"
d="M1024 614q0 -43 31 -72t74.5 -29t72 29t28.5 72v456l125 14l504 225q43 20 64.5 56t21.5 83v447q0 62 -45.5 105t-108.5 48h-661q-63 0 -106 -48l-499 -427l77 -81q29 -29 72 -29h24l326 173v-1022zM103 614l307 307l307 -307h-201v-614h-207v614h-206z" />
</svg>
