<?xml version="1.0" standalone="no"?>
<!DOCTYPE svg PUBLIC "-//W3C//DTD SVG 1.1//EN" "http://www.w3.org/Graphics/SVG/1.1/DTD/svg11.dtd" >
<svg xmlns="http://www.w3.org/2000/svg" xmlns:xlink="http://www.w3.org/1999/xlink" version="1.1" width="2048" height="2048" viewBox="-10 0 2068 2048">
   <path fill="currentColor"
d="M1024 0q279 0 514.5 137t372.5 372.5t137 514.5t-137 514.5t-372.5 372.5t-514.5 137t-514.5 -137t-372.5 -372.5t-137 -514.5t137 -514.5t372.5 -372.5t514.5 -137zM1024 202q-298 0 -505 178l1149 1149q178 -245 178 -505q0 -221 -110.5 -411t-300.5 -300.5
t-411 -110.5zM1529 1668l-1149 -1149q-178 207 -178 505q0 221 110.5 411t300.5 300.5t411 110.5q298 0 505 -178z" />
</svg>
