<?xml version="1.0" standalone="no"?>
<!DOCTYPE svg PUBLIC "-//W3C//DTD SVG 1.1//EN" "http://www.w3.org/Graphics/SVG/1.1/DTD/svg11.dtd" >
<svg xmlns="http://www.w3.org/2000/svg" xmlns:xlink="http://www.w3.org/1999/xlink" version="1.1" width="2048" height="2048" viewBox="-10 0 2058 2048">
   <path fill="currentColor"
d="M818 614q0 -43 31 -72t74 -29t72 29t29 72v456l125 14l503 225q43 20 65 56t22 83v447q0 62 -45.5 105t-108.5 48h-662q-62 0 -105 -48l-499 -427l77 -81q28 -29 72 -29h24l326 173v-1022zM923 206q168 0 288 120t120 288q0 115 -55 208.5t-151 146.5v-125
q105 -91 105 -225.5t-91 -223t-218 -88.5t-216 88.5t-89 223t101 225.5v125q-96 -53 -151 -146.5t-55 -208.5q0 -168 120 -288t292 -120zM923 0q163 0 304.5 81.5t225.5 223t84 309.5q0 129 -50.5 242t-141.5 199l-100 -43q86 -72 136.5 -175t50.5 -223q0 -139 -67.5 -256.5
t-185 -187t-256.5 -69.5t-256.5 69.5t-187 187t-69.5 256.5q0 153 84 280.5t223 189.5v110q-182 -67 -295 -225t-113 -355q0 -168 81.5 -309.5t223 -223t309.5 -81.5z" />
</svg>
