<?xml version="1.0" standalone="no"?>
<!DOCTYPE svg PUBLIC "-//W3C//DTD SVG 1.1//EN" "http://www.w3.org/Graphics/SVG/1.1/DTD/svg11.dtd" >
<svg xmlns="http://www.w3.org/2000/svg" xmlns:xlink="http://www.w3.org/1999/xlink" version="1.1" width="2048" height="2048" viewBox="-10 0 2068 2048">
   <path fill="currentColor"
d="M761 622q-30 46 -60 104.5t-47.5 97.5t-48.5 110q-17 -35 -29 -58.5t-31 -55.5t-36 -52.5t-41 -43t-49 -35.5t-57.5 -22t-68.5 -9h-256q-16 0 -26.5 -10.5t-10.5 -25.5v-220q0 -15 10.5 -25.5t26.5 -10.5h256q286 0 468 256zM2048 1536q0 16 -10 26l-366 366
q-11 10 -26 10q-14 0 -25.5 -11t-11.5 -25v-220q-37 0 -108 1q-68 3 -131.5 1t-119 -7t-109 -22t-102 -44.5t-96.5 -74t-94 -110.5q66 -103 156 -312q17 35 29 58.5t31 55.5t36 52.5t41 43t49 35.5t57.5 22t68.5 9h292v-220q0 -15 10.5 -25.5t26.5 -10.5q13 0 27 12l365 364
q10 10 10 26zM2048 512q0 16 -10 26l-366 366q-11 10 -26 10t-26 -10.5t-11 -25.5v-220h-292q-55 0 -99.5 17.5t-78.5 51.5t-58.5 70t-51.5 89q-44 85 -90 196q-25 58 -43.5 98.5t-46.5 95t-52 93t-57.5 84t-66.5 77t-75.5 62.5t-88 49.5t-100.5 29.5t-116 11h-256
q-16 0 -26.5 -10.5t-10.5 -25.5v-220q0 -15 10.5 -25.5t26.5 -10.5h256q55 0 99.5 -17.5t78.5 -51.5t58.5 -70t51.5 -89q39 -75 89 -196q25 -57 43.5 -98t46.5 -95.5t52 -93.5t57.5 -84t67 -76.5t76 -62.5t88 -49.5t100.5 -29.5t116 -11h292v-220q0 -15 10.5 -25.5
t26.5 -10.5q13 0 27 12l365 364q10 10 10 26z" />
</svg>
