<?xml version="1.0" standalone="no"?>
<!DOCTYPE svg PUBLIC "-//W3C//DTD SVG 1.1//EN" "http://www.w3.org/Graphics/SVG/1.1/DTD/svg11.dtd" >
<svg xmlns="http://www.w3.org/2000/svg" xmlns:xlink="http://www.w3.org/1999/xlink" version="1.1" width="2048" height="2048" viewBox="-10 0 2058 2048">
   <path fill="currentColor"
d="M1673 1316v593q0 56 -41.5 95.5t-97.5 43.5h-602q-56 0 -95 -44l-454 -387l70 -74q26 -27 66 -27h21l297 157v-928q0 -39 28 -65t67.5 -26t65.5 26t26 65v-187q0 -39 26 -65.5t65.5 -26.5t67.5 26.5t28 65.5v466l384 170q35 17 56.5 50t21.5 72zM1116 187q156 0 265 109
t109 262q0 104 -50 189t-137 133v-113q91 -83 91 -203t-80.5 -202.5t-197.5 -82.5q-92 0 -166 56.5t-100 143.5q-87 26 -141.5 100.5t-54.5 165.5q0 126 91 209v114q-87 -48 -137 -133t-50 -192t61 -198.5t157 -139.5q48 -96 139.5 -157t200.5 -61zM1116 0q152 0 280.5 76.5
t202.5 205t74 276.5q0 144 -65 266t-179 196l-100 -48q113 -57 183 -168t70 -242t-63.5 -237.5t-170 -167.5t-233 -61t-237.5 65.5t-168 174.5q-113 61 -178.5 169.5t-65.5 239.5q0 140 76.5 255.5t202.5 171.5v100q-165 -61 -267.5 -204.5t-102.5 -322.5q0 -148 72 -274.5
t194 -200.5q74 -122 200 -196t275 -74z" />
</svg>
