<?xml version="1.0" standalone="no"?>
<!DOCTYPE svg PUBLIC "-//W3C//DTD SVG 1.1//EN" "http://www.w3.org/Graphics/SVG/1.1/DTD/svg11.dtd" >
<svg xmlns="http://www.w3.org/2000/svg" xmlns:xlink="http://www.w3.org/1999/xlink" version="1.1" width="2048" height="2048" viewBox="-10 0 2068 2048">
   <path fill="currentColor"
d="M1529 1654q-101 0 -101 -260q5 -202 67 -562q48 -255 125 -563l63 -259h-298l-68 250q-81 298 -134 567h-255q9 -154 5 -265q-5 -326 -121 -456q-96 -111 -250 -82q-125 24 -235 125q-135 115 -231 310t-96 358h135l19 -62q29 -82 67 -149q48 -92 116 -144
q81 -68 182 -68t96 260q0 202 -67 562q-48 255 -120 563l-67 259h298l43 -134q53 -164 96 -337q58 -240 91 -461h246q-20 178 -15 399q5 322 120 452q96 101 250 67q125 -29 236 -130q135 -115 231 -332q91 -201 91 -331h-139q0 9 -20 67q-24 82 -62 149q-53 87 -120 139
q-82 68 -178 68z" />
</svg>
