<?xml version="1.0" standalone="no"?>
<!DOCTYPE svg PUBLIC "-//W3C//DTD SVG 1.1//EN" "http://www.w3.org/Graphics/SVG/1.1/DTD/svg11.dtd" >
<svg xmlns="http://www.w3.org/2000/svg" xmlns:xlink="http://www.w3.org/1999/xlink" version="1.1" width="2048" height="2048" viewBox="-10 0 2068 2048">
   <path fill="currentColor"
d="M2048 878q0 100 -37 194.5t-102.5 175t-160 148t-207 114.5t-245.5 73t-272 26q-85 0 -166 -9q-226 200 -525 276q-63 17 -131 26q-19 1 -35 -11.5t-20 -32.5v-1q-3 -6 -1 -14t2.5 -11.5t5.5 -10.5t7.5 -10t8 -10t8.5 -10q7 -8 35.5 -39t39.5 -44t35 -45t37.5 -58.5
t30.5 -67.5t30 -87q-180 -103 -283 -252t-103 -320q0 -99 37 -194t102.5 -175t160 -148t207 -115t245.5 -73.5t272 -26.5t272 26t245.5 73.5t207 115t160 147.5t102.5 175t37 195z" />
</svg>
