<?xml version="1.0" standalone="no"?>
<!DOCTYPE svg PUBLIC "-//W3C//DTD SVG 1.1//EN" "http://www.w3.org/Graphics/SVG/1.1/DTD/svg11.dtd" >
<svg xmlns="http://www.w3.org/2000/svg" xmlns:xlink="http://www.w3.org/1999/xlink" version="1.1" width="2048" height="2048" viewBox="-11 0 2069 2048">
   <path fill="currentColor"
d="M1922 375q52 0 89 35t37 87v1242q0 47 -37 84.5t-89 37.5h-680q-52 0 -89 -37.5t-37 -84.5v-275h-488q-70 0 -135 48q-44 26 -118 100q-52 57 -83 83q-52 48 -104 74q-105 0 -153 -105q-57 -117 -22 -335q48 -261 222 -632h22l39 -74l75 -39q87 -35 156 -44
q101 -8 157 40h432v-83q0 -52 37 -87t89 -35h152v-188h375v188h153zM933 654q-40 0 -68 26t-28 65t28 65.5t67.5 26.5t65.5 -26.5t26 -65.5t-26 -65t-65 -26zM1599 654q-122 0 -196 54.5t-70 163.5v4h179q0 -44 26 -65.5t65.5 -21.5t65.5 26t26 69.5t-21.5 76.5t-56.5 54
q-74 48 -100.5 85t-26.5 111h183q0 -48 13 -72t48 -45q66 -35 105 -89.5t39 -119.5q0 -105 -74 -168t-205 -63zM1490 1303v187h183v-187h-183z" />
</svg>
