<?xml version="1.0" standalone="no"?>
<!DOCTYPE svg PUBLIC "-//W3C//DTD SVG 1.1//EN" "http://www.w3.org/Graphics/SVG/1.1/DTD/svg11.dtd" >
<svg xmlns="http://www.w3.org/2000/svg" xmlns:xlink="http://www.w3.org/1999/xlink" version="1.1" width="2048" height="2048" viewBox="-10 0 2068 2048">
   <path fill="currentColor"
d="M1909 0h-976q-53 0 -95.5 40t-42.5 99v432h682v682h432q59 0 99 -42.5t40 -95.5v-976q0 -59 -40 -99t-99 -40zM1072 416q-53 0 -96 -40t-43 -98.5t43 -98.5t99 -40t98.5 40t42.5 98.5t-42.5 98.5t-101.5 40zM1771 1115q-59 0 -99 -40t-42.5 -99t40 -101.5t98.5 -42.5
t98.5 40t42.5 98.5t-40 98.5t-98 46zM1771 416q-59 0 -99 -40t-42.5 -98.5t40 -98.5t98.5 -40t98.5 40t42.5 98.5t-40 98.5t-98 40zM139 795h976q53 0 95.5 42.5t42.5 95.5v976q0 59 -42.5 99t-95.5 40h-976q-59 0 -99 -40t-40 -99v-976q0 -53 40 -95.5t99 -42.5zM624 1285
q-53 0 -96 40t-43 96t43 99t99 43t96 -43t40 -99t-40 -96t-99 -40zM277 933q-58 0 -98 43t-40 99t40 96t98.5 40t98.5 -40t40 -99q0 -53 -40 -96t-99 -43zM971 1632q-54 0 -96.5 40t-42.5 96t42.5 98.5t98.5 42.5t96 -40t40 -98.5t-40 -98.5t-93 -40h-5z" />
</svg>
