<?xml version="1.0" standalone="no"?>
<!DOCTYPE svg PUBLIC "-//W3C//DTD SVG 1.1//EN" "http://www.w3.org/Graphics/SVG/1.1/DTD/svg11.dtd" >
<svg xmlns="http://www.w3.org/2000/svg" xmlns:xlink="http://www.w3.org/1999/xlink" version="1.1" width="2048" height="2048" viewBox="-10 0 2068 2048">
   <path fill="currentColor"
d="M2048 938v172q0 134 -34.5 258t-98.5 227t-156 187.5t-204.5 143t-248 90.5t-282 32t-282 -32t-248 -90.5t-205 -143t-156 -187.5t-98.5 -227t-35 -258v-172q0 -35 25 -60t60 -25h512q35 0 60.5 25t25.5 60v172q0 50 16 90.5t41 66.5t59.5 45.5t66 29t67 15.5t55 7t37 1
t37.5 -1t55 -7t66 -15.5t66 -29t59.5 -45.5t40.5 -66.5t16 -90.5v-172q0 -35 25.5 -60t60.5 -25h512q35 0 60 25t25 60zM683 85v512q0 35 -25.5 60.5t-60.5 25.5h-512q-35 0 -60 -25.5t-25 -60.5v-512q0 -35 25 -60t60 -25h512q35 0 60.5 25t25.5 60zM2048 85v512
q0 35 -25 60.5t-60 25.5h-512q-35 0 -60.5 -25.5t-25.5 -60.5v-512q0 -35 25.5 -60t60.5 -25h512q35 0 60 25t25 60z" />
</svg>
