<?xml version="1.0" standalone="no"?>
<!DOCTYPE svg PUBLIC "-//W3C//DTD SVG 1.1//EN" "http://www.w3.org/Graphics/SVG/1.1/DTD/svg11.dtd" >
<svg xmlns="http://www.w3.org/2000/svg" xmlns:xlink="http://www.w3.org/1999/xlink" version="1.1" width="2048" height="2048" viewBox="-11 0 2070 2048">
   <path fill="currentColor"
d="M1024 906q50 0 84 34t34 84t-34 84t-84 34t-84 -34t-34 -84t34 -84t84 -34zM94 94q129 -129 381 -81.5t549 244.5q297 -197 549 -244.5t381 81.5t81.5 381t-244.5 549q197 297 244.5 549t-81.5 381t-381 81.5t-549 -244.5q-297 197 -549 244.5t-381 -81.5t-81.5 -381
t244.5 -549q-197 -297 -244.5 -549t81.5 -381zM1450 598q101 107 201 230q124 -196 160 -347.5t-28 -215.5t-215.5 -28t-347.5 160q123 100 230 201zM598 1450q-101 -107 -201 -230q-124 196 -160 347.5t28 215.5t215.5 28t347.5 -160q-123 -100 -230 -201zM262 262
q-61 67 -25 218.5t160 347.5q100 -123 204 -227t227 -204q-196 -124 -347.5 -160t-218.5 25zM772 1276q118 118 252 230q134 -112 252 -230t230 -252q-112 -134 -230 -252t-252 -230q-134 112 -252 230t-230 252q112 134 230 252zM1786 1786q61 -67 25 -218.5t-160 -347.5
q-100 123 -204 227t-227 204q196 124 347.5 160t218.5 -25z" />
</svg>
