<?xml version="1.0" standalone="no"?>
<!DOCTYPE svg PUBLIC "-//W3C//DTD SVG 1.1//EN" "http://www.w3.org/Graphics/SVG/1.1/DTD/svg11.dtd" >
<svg xmlns="http://www.w3.org/2000/svg" xmlns:xlink="http://www.w3.org/1999/xlink" version="1.1" width="2048" height="2048" viewBox="-10 0 2068 2048">
   <path fill="currentColor"
d="M1673 1582h-1298q-157 0 -266 -109t-109 -262q0 -204 100 -374t272.5 -270.5t372.5 -100.5q144 0 279 53q135 -53 279 -53q200 0 372.5 100.5t272.5 270.5t100 374q0 153 -109 262t-266 109zM187 1211q0 74 54.5 128.5t131 54.5t131 -54.5t54.5 -128.5q0 -165 67.5 -309
t180.5 -244l-61 -4q-109 0 -213.5 41t-183 119.5t-120 181t-41.5 215.5zM1673 1394q79 0 133.5 -54.5t54.5 -128.5q0 -113 -41.5 -215.5t-120 -181t-183 -119.5t-213.5 -41t-213.5 41t-183 119.5t-120 181t-41.5 215.5q0 101 -52 183h980z" />
</svg>
