<?xml version="1.0" standalone="no"?>
<!DOCTYPE svg PUBLIC "-//W3C//DTD SVG 1.1//EN" "http://www.w3.org/Graphics/SVG/1.1/DTD/svg11.dtd" >
<svg xmlns="http://www.w3.org/2000/svg" xmlns:xlink="http://www.w3.org/1999/xlink" version="1.1" width="2048" height="2048" viewBox="-10 0 2068 2048">
   <path fill="currentColor"
d="M716 308q-197 0 -360.5 96t-259.5 259.5t-96 360.5t96 360.5t259.5 259.5t360.5 96q159 0 308 -67q149 67 308 67q197 0 360.5 -96t259.5 -259.5t96 -360.5t-96 -360.5t-259.5 -259.5t-360.5 -96q-159 0 -308 67q-149 -67 -308 -67zM716 510q53 0 101 9
q-96 101 -149 233.5t-53 271.5t53 271.5t149 228.5q-53 14 -101 14q-139 0 -257 -69.5t-187.5 -187.5t-69.5 -257t69.5 -257t187.5 -187.5t257 -69.5zM1332 510q139 0 257 69.5t187.5 187.5t69.5 257t-69.5 257t-187.5 187.5t-257 69.5q-53 0 -101 -9q96 -101 149 -233.5
t53 -271.5t-53 -271.5t-149 -228.5q53 -14 101 -14z" />
</svg>
