<?xml version="1.0" standalone="no"?>
<!DOCTYPE svg PUBLIC "-//W3C//DTD SVG 1.1//EN" "http://www.w3.org/Graphics/SVG/1.1/DTD/svg11.dtd" >
<svg xmlns="http://www.w3.org/2000/svg" xmlns:xlink="http://www.w3.org/1999/xlink" version="1.1" width="2048" height="2048" viewBox="-10 0 2068 2048">
   <path fill="currentColor"
d="M716 308q159 0 308 67q149 -67 308 -67q197 0 360.5 96t259.5 259.5t96 360.5t-96 360.5t-259.5 259.5t-360.5 96q-159 0 -308 -67q-149 67 -308 67q-197 0 -360.5 -96t-259.5 -259.5t-96 -360.5t96 -360.5t259.5 -259.5t360.5 -96zM663 1024q0 139 58 266.5t154 219.5
l106 -44q-101 -81 -156.5 -196.5t-55.5 -245.5t55.5 -245.5t156.5 -196.5l-106 -44q-96 92 -154 219.5t-58 266.5zM1385 1024q0 -139 -58 -266.5t-154 -219.5l-106 44q101 81 156.5 196.5t55.5 245.5t-55.5 245.5t-156.5 196.5l106 44q96 -92 154 -219.5t58 -266.5z" />
</svg>
