<?xml version="1.0" standalone="no"?>
<!DOCTYPE svg PUBLIC "-//W3C//DTD SVG 1.1//EN" "http://www.w3.org/Graphics/SVG/1.1/DTD/svg11.dtd" >
<svg xmlns="http://www.w3.org/2000/svg" xmlns:xlink="http://www.w3.org/1999/xlink" version="1.1" width="2048" height="2048" viewBox="-10 0 2068 2048">
   <path fill="currentColor"
d="M1141 121q246 0 455.5 121t330.5 328.5t121 453.5t-121 453.5t-330.5 328.5t-455.5 121q-234 0 -433 -110t-322 -301l144 -115q98 162 259 255t356 93t360.5 -97.5t263 -265t97.5 -362.5t-97.5 -362.5t-263 -265t-360.5 -97.5q-182 0 -339 85t-257 229t-125 322h250
l-335 335l-339 -335h242q25 -229 150 -413.5t322.5 -292.5t426.5 -108zM1412 863q34 4 57.5 27.5t23.5 57.5v415q0 34 -25.5 59.5t-59.5 25.5h-501q-34 0 -57 -25.5t-23 -59.5v-415q0 -34 23 -57.5t57 -27.5v-89q0 -106 74.5 -178t178.5 -72t178 72t74 178v89zM1158 651
q-51 0 -87 36t-36 87v89h250v-89q0 -51 -38.5 -87t-88.5 -36z" />
</svg>
