<?xml version="1.0" standalone="no"?>
<!DOCTYPE svg PUBLIC "-//W3C//DTD SVG 1.1//EN" "http://www.w3.org/Graphics/SVG/1.1/DTD/svg11.dtd" >
<svg xmlns="http://www.w3.org/2000/svg" xmlns:xlink="http://www.w3.org/1999/xlink" version="1.1" width="2048" height="2048" viewBox="-10 0 2068 2048">
   <path fill="currentColor"
d="M587 1125q0 -53 43 -91q115 24 216 91q0 53 -38.5 91.5t-91.5 38.5t-91 -38.5t-38 -91.5zM1202 1125q101 -67 216 -91q43 38 43 93.5t-38 91.5t-91 36t-91.5 -36t-38.5 -94zM1024 716q-433 -4 -812 207l-10 101q0 192 86 365q366 -57 736 -57t736 57q86 -173 86 -365
l-10 -101q-379 -211 -812 -207zM1024 0q202 0 392 77t334 221t221 334t77 392t-77 392t-221 334t-334 221t-392 77t-392 -77t-334 -221t-221 -334t-77 -392t77 -392t221 -334t334 -221t392 -77z" />
</svg>
