<?xml version="1.0" standalone="no"?>
<!DOCTYPE svg PUBLIC "-//W3C//DTD SVG 1.1//EN" "http://www.w3.org/Graphics/SVG/1.1/DTD/svg11.dtd" >
<svg xmlns="http://www.w3.org/2000/svg" xmlns:xlink="http://www.w3.org/1999/xlink" version="1.1" width="2048" height="2048" viewBox="-10 0 2068 2048">
   <path fill="currentColor"
d="M356 0q-149 0 -252.5 103.5t-103.5 252.5v1336q0 149 103.5 252.5t252.5 103.5h1077l615 -615v-1077q0 -149 -103.5 -252.5t-252.5 -103.5h-1336zM385 202h1278q77 0 130 53t53 130v947h-154q-149 0 -254.5 105.5t-105.5 254.5v154h-947q-77 0 -130 -53t-53 -130v-1278
q0 -77 53 -130t130 -53zM1274 486q-24 0 -48 9q-72 19 -108 84t-17 137q5 24 19 44l332 -87q0 -29 -5 -53q-14 -58 -62.5 -96t-110.5 -38zM630 663q-34 0 -48 5q-72 24 -108.5 86.5t-16.5 134.5q5 15 19 44l5 4l327 -91q0 -24 -5 -48q-15 -62 -63 -98.5t-110 -36.5z
M1510 947l-938 260q101 115 250 160.5t298 5t255 -156t135 -269.5z" />
</svg>
