<?xml version="1.0" standalone="no"?>
<!DOCTYPE svg PUBLIC "-//W3C//DTD SVG 1.1//EN" "http://www.w3.org/Graphics/SVG/1.1/DTD/svg11.dtd" >
<svg xmlns="http://www.w3.org/2000/svg" xmlns:xlink="http://www.w3.org/1999/xlink" version="1.1" width="2048" height="2048" viewBox="-10 0 2068 2048">
   <path fill="currentColor"
d="M912 1707h224v-230h-224v230zM1024 341q-187 0 -320 133.5t-133 320.5h224q0 -91 66.5 -157.5t162.5 -66.5t162.5 66.5t66.5 157.5q0 69 -42 122q-27 32 -102 86q-96 74 -133 133q-64 91 -64 229h224q0 -85 53 -154q32 -43 117.5 -117.5t117.5 -122.5q53 -75 53 -176
q0 -187 -133 -320.5t-320 -133.5zM229 0h1590q96 0 162.5 66.5t66.5 162.5v1590q0 96 -66.5 162.5t-162.5 66.5h-1590q-96 0 -162.5 -66.5t-66.5 -162.5v-1590q0 -96 66.5 -162.5t162.5 -66.5z" />
</svg>
