<?xml version="1.0" standalone="no"?>
<!DOCTYPE svg PUBLIC "-//W3C//DTD SVG 1.1//EN" "http://www.w3.org/Graphics/SVG/1.1/DTD/svg11.dtd" >
<svg xmlns="http://www.w3.org/2000/svg" xmlns:xlink="http://www.w3.org/1999/xlink" version="1.1" width="2048" height="2048" viewBox="-10 0 2068 2048">
   <path fill="currentColor"
d="M1448 1024q0 -84 -14 -202h337q29 108 29 202q0 52 -10 108q103 14 192 65q14 -89 14 -173q0 -272 -133.5 -501.5t-363 -363t-501.5 -133.5t-501.5 133.5t-363 363t-133.5 501.5t133.5 501.5t363 363t501.5 133.5q85 0 174 -14q-75 -131 -75 -286q0 -33 9 -84
q-52 103 -108 183q-131 -192 -192 -399h375q89 -159 258 -239q9 -89 9 -159zM998 227q131 192 192 399h-384q61 -207 192 -399zM225 1226q-28 -108 -28 -202t28 -202h337q-14 118 -14 202t14 202h-337zM305 1422h295q56 202 140 357q-140 -47 -250 -138.5t-185 -218.5z
M600 626h-295q75 -127 185 -218.5t250 -138.5q-84 155 -140 357zM1233 1226h-469q-14 -108 -14 -202t14 -202h469q14 118 14 202t-14 202zM1256 269q141 47 251 138.5t185 218.5h-295q-52 -192 -141 -357zM2048 1549l-473 473l-277 -300l117 -112l160 159l356 -361z" />
</svg>
