<?xml version="1.0" standalone="no"?>
<!DOCTYPE svg PUBLIC "-//W3C//DTD SVG 1.1//EN" "http://www.w3.org/Graphics/SVG/1.1/DTD/svg11.dtd" >
<svg xmlns="http://www.w3.org/2000/svg" xmlns:xlink="http://www.w3.org/1999/xlink" version="1.1" width="2048" height="2048" viewBox="-10 0 2068 2048">
   <path fill="currentColor"
d="M1366 1604q0 13 -11 24t-24 11h-1024q-8 0 -14 -2t-9.5 -7t-6 -9t-3 -12.5t-1 -12.5t0 -13.5t0.5 -11.5v-171v-444h-206q-28 0 -48 -20.5t-20 -48.5q0 -24 16 -43l342 -409q20 -24 52 -24t52 24l342 409q16 19 16 43q0 28 -20.5 48.5t-48.5 20.5h-205v409h614q17 0 27 12
l171 205q8 10 8 22zM2048 1161q0 25 -16 44l-342 409q-21 25 -52 25t-52 -25l-341 -409q-16 -19 -16 -44q0 -28 20 -48t49 -20h204v-410h-614q-17 0 -27 -13l-171 -205q-8 -9 -8 -21q0 -13 11 -24t24 -11h1024q7 0 12.5 2.5t9 5t6.5 8t4 9t1.5 11.5t1 11t0 12t-0.5 10v170
v445h205q28 0 48 20t20 48z" />
</svg>
