<?xml version="1.0" standalone="no"?>
<!DOCTYPE svg PUBLIC "-//W3C//DTD SVG 1.1//EN" "http://www.w3.org/Graphics/SVG/1.1/DTD/svg11.dtd" >
<svg xmlns="http://www.w3.org/2000/svg" xmlns:xlink="http://www.w3.org/1999/xlink" version="1.1" width="2048" height="2048" viewBox="-10 0 2058 2048">
   <path fill="currentColor"
d="M1096 1178v125q-58 48 -91.5 115.5t-33.5 139.5v360q0 68 29 130h-745q-87 0 -147 -60t-60 -142v-1644q0 -82 60 -142t147 -60h101v716l259 -154l255 154v-716h616q86 0 146 60t60 142v524q-53 -10 -106 -10q-129 0 -242 62.5t-180.5 168.5t-67.5 231zM1875 1433h-442
v-255q0 -58 45.5 -96.5t110.5 -38.5t108 38.5t43 96.5v53h135v-53q0 -106 -89 -180.5t-199.5 -74.5t-197 74.5t-86.5 180.5v255q-48 0 -86.5 38.5t-38.5 86.5v360q0 53 38.5 91.5t86.5 38.5h562q53 0 94 -36t41 -84v-361q0 -53 -38.5 -93.5t-86.5 -40.5z" />
</svg>
