<?xml version="1.0" standalone="no"?>
<!DOCTYPE svg PUBLIC "-//W3C//DTD SVG 1.1//EN" "http://www.w3.org/Graphics/SVG/1.1/DTD/svg11.dtd" >
<svg xmlns="http://www.w3.org/2000/svg" xmlns:xlink="http://www.w3.org/1999/xlink" version="1.1" width="2048" height="2048" viewBox="-10 0 2068 2048">
   <path fill="currentColor"
d="M1394 466l-91 70l231 301h-371v-140h-139v140h-837q-78 0 -132.5 54.5t-54.5 132.5v279h187q0 118 81 198.5t198.5 80.5t198 -80.5t80.5 -198.5h558q0 118 80.5 198.5t198 80.5t198.5 -80.5t81 -198.5h187v-279q0 -78 -54.5 -132.5t-132.5 -54.5h-188zM466 1163
q57 0 98.5 41.5t41.5 98.5t-41.5 98t-98 41t-98 -41t-41.5 -98t41.5 -98.5t97.5 -41.5zM1582 1163q56 0 97.5 41.5t41.5 98.5t-41.5 98t-98 41t-98 -41t-41.5 -98t41.5 -98.5t98.5 -41.5z" />
</svg>
