<?xml version="1.0" standalone="no"?>
<!DOCTYPE svg PUBLIC "-//W3C//DTD SVG 1.1//EN" "http://www.w3.org/Graphics/SVG/1.1/DTD/svg11.dtd" >
<svg xmlns="http://www.w3.org/2000/svg" xmlns:xlink="http://www.w3.org/1999/xlink" version="1.1" width="2048" height="2048" viewBox="-10 0 2068 2048">
   <path fill="currentColor"
d="M202 202h1644q82 0 142 60t60 147v1230q0 87 -60 147t-142 60h-1644q-82 0 -142 -60t-60 -147v-1230q0 -87 60 -147t142 -60zM202 409v1230h1644v-1230h-1644zM356 562h567v174q-67 19 -117.5 69.5t-69.5 117.5h-380v-361zM1692 562v361h-380q-19 -67 -69.5 -117.5
t-117.5 -69.5v-174h567zM1692 1486h-567v-174q67 -19 117.5 -69.5t69.5 -117.5h380v361zM356 1486v-361h380q19 67 69.5 117.5t117.5 69.5v174h-567zM1024 870q62 0 108 46t46 108t-46 108t-108 46t-108 -46t-46 -108t46 -108t108 -46z" />
</svg>
