<?xml version="1.0" standalone="no"?>
<!DOCTYPE svg PUBLIC "-//W3C//DTD SVG 1.1//EN" "http://www.w3.org/Graphics/SVG/1.1/DTD/svg11.dtd" >
<svg xmlns="http://www.w3.org/2000/svg" xmlns:xlink="http://www.w3.org/1999/xlink" version="1.1" width="2048" height="2048" viewBox="-10 0 2068 2048">
   <path fill="currentColor"
d="M187 466h1207l279 371h188q78 0 132.5 54.5t54.5 132.5v279h-187q0 118 -81 198.5t-198.5 80.5t-198 -80.5t-80.5 -198.5h-558q0 118 -80.5 198.5t-198 80.5t-198.5 -80.5t-81 -198.5h-187v-649q0 -79 54.5 -133.5t132.5 -54.5zM139 606v231h746v-231h-746zM1024 606v231
h479l-178 -231h-301zM466 1163q-56 0 -97.5 41.5t-41.5 98.5t41.5 98t98 41t98 -41t41.5 -98t-41.5 -98.5t-98.5 -41.5zM1582 1163q-57 0 -98.5 41.5t-41.5 98.5t41.5 98t98 41t98 -41t41.5 -98t-41.5 -98.5t-97.5 -41.5z" />
</svg>
