<?xml version="1.0" standalone="no"?>
<!DOCTYPE svg PUBLIC "-//W3C//DTD SVG 1.1//EN" "http://www.w3.org/Graphics/SVG/1.1/DTD/svg11.dtd" >
<svg xmlns="http://www.w3.org/2000/svg" xmlns:xlink="http://www.w3.org/1999/xlink" version="1.1" width="2048" height="2048" viewBox="-10 0 2068 2048">
   <path fill="currentColor"
d="M413 1028l202 356l-259 327l-356 -625zM1538 1639v-279q68 -29 111 -91.5t43 -146.5t-57 -151l201 -116q82 -48 103.5 -134.5t-21.5 -163.5l-144 -245q-43 -77 -129.5 -101t-163.5 19l-837 486q-72 38 -93.5 120t21.5 159l154 264q43 72 125 96t154 -19l192 -111
q39 97 135 135v279q0 86 60 146.5t146 60.5h510v-207h-510z" />
</svg>
