<?xml version="1.0" standalone="no"?>
<!DOCTYPE svg PUBLIC "-//W3C//DTD SVG 1.1//EN" "http://www.w3.org/Graphics/SVG/1.1/DTD/svg11.dtd" >
<svg xmlns="http://www.w3.org/2000/svg" xmlns:xlink="http://www.w3.org/1999/xlink" version="1.1" width="2048" height="2048" viewBox="-10 0 2068 2048">
   <path fill="currentColor"
d="M1846 308h-514q-87 0 -147 60t-60 142v514q0 87 60 147t147 60h514q82 0 142 -60t60 -147v-514q0 -82 -60 -142t-142 -60zM1586 1077q-125 0 -216 -91.5t-91 -219t91 -216t218.5 -88.5t216.5 88.5t89 216t-89 219t-219 91.5zM1586 923q-62 0 -107.5 -45.5t-45.5 -110.5
t45.5 -108.5t110.5 -43.5t108 43.5t43 108.5t-43 110.5t-111 45.5zM1024 1332v-1024h-822q-82 0 -142 60t-60 142v1028q0 82 60 142t142 60h1644q82 0 142 -60t60 -142v-206h-1024zM817 1024h-615v-514h615v514z" />
</svg>
