<?xml version="1.0" standalone="no"?>
<!DOCTYPE svg PUBLIC "-//W3C//DTD SVG 1.1//EN" "http://www.w3.org/Graphics/SVG/1.1/DTD/svg11.dtd" >
<svg xmlns="http://www.w3.org/2000/svg" xmlns:xlink="http://www.w3.org/1999/xlink" version="1.1" width="2048" height="2048" viewBox="-10 0 2068 2048">
   <path fill="currentColor"
d="M160 0l-160 160l304 304q-192 251 -192 563t192 557l-304 304l160 160l304 -304q251 192 563 192t557 -192l304 304l160 -160l-304 -304q192 -251 192 -563t-192 -557l304 -304l-160 -160l-304 304q-251 -192 -563 -192t-557 192zM1024 341q187 0 344 91t248 248t91 344
t-91 344t-248 248t-344 91t-344 -91t-248 -248t-91 -344t91 -344t248 -248t344 -91z" />
</svg>
