<?xml version="1.0" standalone="no"?>
<!DOCTYPE svg PUBLIC "-//W3C//DTD SVG 1.1//EN" "http://www.w3.org/Graphics/SVG/1.1/DTD/svg11.dtd" >
<svg xmlns="http://www.w3.org/2000/svg" xmlns:xlink="http://www.w3.org/1999/xlink" version="1.1" width="2048" height="2048" viewBox="-10 0 2068 2048">
   <path fill="currentColor"
d="M1125 2q260 24 469 166t331.5 368t122.5 486q0 216 -87 418l-269 -159q48 -125 48 -259q0 -178 -79 -332t-221 -252.5t-315 -127.5v-308zM1024 1738q168 0 312.5 -70t245.5 -199l269 158q-144 197 -360.5 308t-466.5 111q-279 0 -514.5 -137t-372.5 -373t-137 -514
q0 -260 120 -486t331.5 -368t471.5 -166v308q-173 29 -315 127.5t-221 252.5t-79 332q0 197 96 360.5t259.5 259.5t360.5 96zM1024 406q168 0 310 82t223.5 223.5t81.5 310.5q0 226 -146.5 399t-367.5 206v-317q91 -29 149 -108t58 -180q0 -130 -89 -219t-219 -89l-58 5
l-158 -274q101 -39 216 -39zM409 1022q0 -140 60 -262.5t166 -213.5l153 274q-72 86 -72 202q0 101 58 180t149 108v317q-221 -33 -367.5 -206t-146.5 -399z" />
</svg>
