<?xml version="1.0" standalone="no"?>
<!DOCTYPE svg PUBLIC "-//W3C//DTD SVG 1.1//EN" "http://www.w3.org/Graphics/SVG/1.1/DTD/svg11.dtd" >
<svg xmlns="http://www.w3.org/2000/svg" xmlns:xlink="http://www.w3.org/1999/xlink" version="1.1" width="2048" height="2048" viewBox="-10 0 2058 2048">
   <path fill="currentColor"
d="M865 543l-163 -91q82 -130 211 -178q-9 -29 -35.5 -50.5t-60.5 -21.5v-202q120 0 207 77v125q34 0 60.5 21.5t35.5 50.5q-86 29 -151 101t-104 168zM817 923q0 -120 63 -216l-135 -77q-62 24 -96 74.5t-34 112.5v106q0 471 279 784q178 202 442 307q-230 -178 -360 -423
q-159 -298 -159 -668zM452 543l-159 -91q82 -130 212 -178q-10 -29 -36.5 -50.5t-59.5 -21.5v-202q120 0 206 77v125q34 0 60.5 21.5t36.5 50.5q-87 29 -154.5 101t-105.5 168zM409 923q0 -120 62 -216l-139 -77q-58 24 -94 74.5t-36 112.5v106q0 471 279 784
q182 202 442 307q-226 -178 -356 -423q-158 -298 -158 -668zM1740 644l-125 72l-182 -101l-178 101l-130 -72q-43 24 -72 72t-29 101v106q0 255 87 471q72 178 201 322q106 116 246 202q96 63 202 101l86 29v-1231q0 -53 -29 -101t-77 -72zM1101 471l154 91l178 -100
l182 100l154 -91q-91 -154 -235 -202q-15 -115 -101.5 -192t-201.5 -77v202q33 0 57 21.5t39 50.5q-144 48 -226 197z" />
</svg>
