<?xml version="1.0" standalone="no"?>
<!DOCTYPE svg PUBLIC "-//W3C//DTD SVG 1.1//EN" "http://www.w3.org/Graphics/SVG/1.1/DTD/svg11.dtd" >
<svg xmlns="http://www.w3.org/2000/svg" xmlns:xlink="http://www.w3.org/1999/xlink" version="1.1" width="2048" height="2048" viewBox="-10 0 2068 2048">
   <path fill="currentColor"
d="M923 1024h-226q120 77 226 173v-173zM510 923q14 -260 86 -471.5t182.5 -331.5t245.5 -120t248 122.5t182.5 336.5t83.5 474q250 -116 510 -116q-183 82 -303 279q-72 120 -168 385q-72 192 -116 279q-72 139 -168 206q-110 82 -264 82t-260 -77q-91 -67 -163 -202
q-39 -86 -111 -274q-67 -178 -110 -264q-68 -145 -149 -241q-101 -115 -236 -173q255 0 510 106zM923 923v-207h-284l-24 207h308zM923 615v-206h-202q-34 86 -62 206h264zM923 308v-178q-82 53 -154 178h154zM1024 101v207h101v101h-101v206h207v101h-207v207h308v101h-308
v207h207v101h-183q91 110 146.5 223t65.5 209q81 -129 127 -331t46 -437.5t-58 -442.5t-151.5 -329.5t-199.5 -122.5z" />
</svg>
