<?xml version="1.0" standalone="no"?>
<!DOCTYPE svg PUBLIC "-//W3C//DTD SVG 1.1//EN" "http://www.w3.org/Graphics/SVG/1.1/DTD/svg11.dtd" >
<svg xmlns="http://www.w3.org/2000/svg" xmlns:xlink="http://www.w3.org/1999/xlink" version="1.1" width="2048" height="2048" viewBox="-10 0 2058 2048">
   <path fill="currentColor"
d="M1433 817v1231l-82 -29q-106 -38 -207 -101q-134 -86 -240 -202q-135 -144 -207 -322q-82 -216 -82 -471v-106q0 -53 26.5 -101t74.5 -72l130 72l178 -101l178 101l130 -72q48 24 74.5 72t26.5 101zM1024 462l178 100l159 -91q-92 -154 -236 -202q-14 -115 -101 -192
t-207 -77v202q34 0 60.5 21.5t35.5 50.5q-139 48 -226 197l159 91z" />
</svg>
