<?xml version="1.0" standalone="no"?>
<!DOCTYPE svg PUBLIC "-//W3C//DTD SVG 1.1//EN" "http://www.w3.org/Graphics/SVG/1.1/DTD/svg11.dtd" >
<svg xmlns="http://www.w3.org/2000/svg" xmlns:xlink="http://www.w3.org/1999/xlink" version="1.1" width="2048" height="2048" viewBox="-10 0 2068 2048">
   <path fill="currentColor"
d="M0 101h202l139 615h409l139 -615h270l139 615h409l139 -615h202l-135 615h135v207h-183l-43 202h226v207h-274l-135 615h-274l-134 -615h-414l-134 615h-274l-135 -615h-274v-207h226l-43 -202h-183v-207h135zM1139 923h-230l-44 202h318zM543 1639l72 -307h-139z
M707 923h-322l48 202h226zM1505 1639l67 -307h-139zM1663 923h-322l48 202h226zM1024 409l-67 307h134z" />
</svg>
