<?xml version="1.0" standalone="no"?>
<!DOCTYPE svg PUBLIC "-//W3C//DTD SVG 1.1//EN" "http://www.w3.org/Graphics/SVG/1.1/DTD/svg11.dtd" >
<svg xmlns="http://www.w3.org/2000/svg" xmlns:xlink="http://www.w3.org/1999/xlink" version="1.1" width="2048" height="2048" viewBox="-10 0 2068 2048">
   <path fill="currentColor"
d="M512 1708q-140 0 -258 -70t-186 -188t-68 -254q0 -132 60 -244t164 -182t232 -82q80 -160 232 -254t336 -94q232 0 408 146t220 366q168 12 282 136t114 292q0 116 -58 214t-156 156t-214 58h-1108zM776 716l-392 392l392 392l120 -120l-272 -272l272 -272zM1272 716
l-120 120l272 272l-272 272l120 120l392 -392z" />
</svg>
