<?xml version="1.0" standalone="no"?>
<!DOCTYPE svg PUBLIC "-//W3C//DTD SVG 1.1//EN" "http://www.w3.org/Graphics/SVG/1.1/DTD/svg11.dtd" >
<svg xmlns="http://www.w3.org/2000/svg" xmlns:xlink="http://www.w3.org/1999/xlink" version="1.1" width="2048" height="2048" viewBox="-10 0 2058 2048">
   <path fill="currentColor"
d="M659 543l-164 -91q82 -130 217 -178q-10 -29 -36.5 -50.5t-60.5 -21.5v-202q116 0 202 77v125q34 0 60.5 21.5t35.5 50.5q-81 29 -148.5 101t-105.5 168zM615 923q0 -120 58 -216l-135 -77q-57 24 -93 74.5t-36 112.5v106q0 471 278 784q178 202 443 307
q-226 -178 -361 -423q-154 -298 -154 -668zM1538 644l-129 72l-178 -101l-183 101l-125 -72q-48 24 -77 72t-29 101v106q0 255 87 471q72 178 202 322q105 116 245 202q96 63 202 101l86 29v-1231q0 -53 -28.5 -101t-72.5 -72zM894 471l154 91l183 -100l178 100l153 -91
q-86 -154 -235 -202q-15 -115 -101.5 -192t-201.5 -77v202q34 0 60.5 21.5t35.5 50.5q-139 48 -226 197z" />
</svg>
