<?xml version="1.0" standalone="no"?>
<!DOCTYPE svg PUBLIC "-//W3C//DTD SVG 1.1//EN" "http://www.w3.org/Graphics/SVG/1.1/DTD/svg11.dtd" >
<svg xmlns="http://www.w3.org/2000/svg" xmlns:xlink="http://www.w3.org/1999/xlink" version="1.1" width="2048" height="2048" viewBox="-10 0 2068 2048">
   <path fill="currentColor"
d="M313 102q-67 0 -124.5 43t-71.5 111l-106 451q-38 163 58 288l38 34q96 96 223.5 96t227.5 -96q101 96 235.5 96t230.5 -96q101 96 233 96t233 -96q96 96 230.5 96t225.5 -96l29 -29q101 -125 62 -293l-105 -451q-19 -68 -74.5 -111t-122.5 -43h-1422zM1730 304l111 451
q14 67 -27 117.5t-93.5 50.5t-86.5 -36t-38 -84l-63 -494zM313 309h202l-62 494q-19 120 -120 120q-63 0 -96 -48q-44 -53 -29 -120zM722 309h201v480q0 53 -38 93.5t-93.5 40.5t-91.5 -43t-36 -96v-15zM1125 309h202l57 460q10 63 -28.5 108.5t-105.5 45.5
q-48 0 -86.5 -40.5t-38.5 -93.5v-480zM102 1230v509q0 87 60 147t147 60h1431q86 0 146 -60t60 -147v-504q-86 92 -206 96q-144 5 -250 -96q-96 96 -230.5 96t-235.5 -96q-96 96 -230.5 96t-235.5 -96q-96 96 -225 96q-125 0 -231 -101z" />
</svg>
