<?xml version="1.0" standalone="no"?>
<!DOCTYPE svg PUBLIC "-//W3C//DTD SVG 1.1//EN" "http://www.w3.org/Graphics/SVG/1.1/DTD/svg11.dtd" >
<svg xmlns="http://www.w3.org/2000/svg" xmlns:xlink="http://www.w3.org/1999/xlink" version="1.1" width="2048" height="2048" viewBox="-10 0 2058 2048">
   <path fill="currentColor"
d="M1418 245v1539q0 120 72 192t173 72t169 -62q77 -73 77 -202v-1529q0 -116 -72.5 -185.5t-171 -69.5t-173 72t-74.5 173zM779 1024v760q0 120 72 192t170.5 72t170.5 -62q77 -73 77 -202v-750q0 -111 -72 -183t-170.5 -72t-173 72t-74.5 173zM385 1562q101 0 173 70
t72 171t-72 173t-173 72t-173.5 -72t-72.5 -173t72.5 -171t173.5 -70z" />
</svg>
