<?xml version="1.0" standalone="no"?>
<!DOCTYPE svg PUBLIC "-//W3C//DTD SVG 1.1//EN" "http://www.w3.org/Graphics/SVG/1.1/DTD/svg11.dtd" >
<svg xmlns="http://www.w3.org/2000/svg" xmlns:xlink="http://www.w3.org/1999/xlink" version="1.1" width="2048" height="2048" viewBox="-10 0 2068 2048">
   <path fill="currentColor"
d="M196 447q153 -153 190 -137.5t21 74.5q-15 31 -52 95l-22 37q-301 439 -301 677q0 223 153 339q64 48 143 61t156 -11t167 -113q58 -53 175 -196v-6q148 -174 227 -254q138 -132 233 -132q116 0 159 64q26 31 37 121v16q-196 32 -344 148q-127 96 -196 233
q-64 122 -64 228q0 143 106 246t254 103q111 0 212 -58q127 -74 206 -212q96 -169 117 -423h275v-281h-280q-16 -180 -106 -307q-127 -164 -350 -164q-164 0 -338 117q-122 84 -217 201q-43 53 -143 175q-90 105 -117 132l-10 16q-74 79 -114 79t-55.5 -63.5t13.5 -148
t103 -222.5q58 -106 106 -180q79 -116 106 -174q42 -90 42 -196q0 -164 -106 -254q-79 -69 -177 -69t-199 58q-63 37 -111 85q-74 74 -95 106zM1244 1765q-27 0 -56 -24t-29 -61t32 -95q37 -69 100 -122q80 -63 191 -95q-21 206 -101 312q-63 85 -137 85z" />
</svg>
