<?xml version="1.0" standalone="no"?>
<!DOCTYPE svg PUBLIC "-//W3C//DTD SVG 1.1//EN" "http://www.w3.org/Graphics/SVG/1.1/DTD/svg11.dtd" >
<svg xmlns="http://www.w3.org/2000/svg" xmlns:xlink="http://www.w3.org/1999/xlink" version="1.1" width="2048" height="2048" viewBox="-10 0 2058 2048">
   <path fill="currentColor"
d="M1519 1854q-42 0 -79 -19q-55 -27 -92 -78t-74 -153t-102 -180q-42 -46 -134 -116q-79 -64 -120 -101q-60 -65 -111 -148q-79 -144 -79 -292q0 -134 65 -247t178 -180t249.5 -67t249.5 67t178 180t65 247h199q0 -189 -92.5 -348.5t-250 -249.5t-349 -90t-349 90
t-250 249.5t-92.5 351.5t107 381q60 111 143 194q51 51 139 116q74 60 101 88q47 51 65 115q46 134 108.5 217.5t164.5 134.5q74 32 162 32q161 0 277 -115.5t116 -277.5h-199q0 83 -58 141t-136 58zM594 139l-139 -139q-152 148 -235.5 347t-83.5 420.5t83.5 420.5
t235.5 347l139 -139q-125 -125 -192 -286.5t-67 -342t67 -342t192 -286.5zM973 767q0 102 74 173.5t175.5 71.5t173.5 -71.5t72 -173t-72 -173.5t-173.5 -72t-175.5 72t-74 173z" />
</svg>
