<?xml version="1.0" standalone="no"?>
<!DOCTYPE svg PUBLIC "-//W3C//DTD SVG 1.1//EN" "http://www.w3.org/Graphics/SVG/1.1/DTD/svg11.dtd" >
<svg xmlns="http://www.w3.org/2000/svg" xmlns:xlink="http://www.w3.org/1999/xlink" version="1.1" width="2048" height="2048" viewBox="-10 0 2068 2048">
   <path fill="currentColor"
d="M409 0q-87 0 -147 60t-60 142v822q0 87 60 147t147 60h1230q87 0 147 -60t60 -147v-822q0 -82 -60 -142t-147 -60h-1230zM409 202h1230v822h-1230v-822zM202 1332q-82 0 -142 60t-60 146v308q0 82 60 142t142 60h1644q82 0 142 -60t60 -142v-308q0 -86 -60 -146t-142 -60
h-1644zM615 1538h1231v308h-1231v-308zM716 1615v154h409v-154h-409zM1332 1615v154h408v-154h-408z" />
</svg>
