<?xml version="1.0" standalone="no"?>
<!DOCTYPE svg PUBLIC "-//W3C//DTD SVG 1.1//EN" "http://www.w3.org/Graphics/SVG/1.1/DTD/svg11.dtd" >
<svg xmlns="http://www.w3.org/2000/svg" xmlns:xlink="http://www.w3.org/1999/xlink" version="1.1" width="2048" height="2048" viewBox="-10 0 2068 2048">
   <path fill="currentColor"
d="M1793 1385q0 19 -14.5 33.5t-36 14.5t-36 -14.5t-14.5 -33.5v-722q0 -96 -60 -177.5t-156 -129.5t-197 -48h-870q-169 0 -289 120t-120 288v1024h409v-408h514v408h409v-461q0 -19 14.5 -33.5t36 -14.5t36 14.5t14.5 33.5v154q0 129 91 218t218.5 89t216.5 -89t89 -218
v-202h-255v154z" />
</svg>
