<?xml version="1.0" standalone="no"?>
<!DOCTYPE svg PUBLIC "-//W3C//DTD SVG 1.1//EN" "http://www.w3.org/Graphics/SVG/1.1/DTD/svg11.dtd" >
<svg xmlns="http://www.w3.org/2000/svg" xmlns:xlink="http://www.w3.org/1999/xlink" version="1.1" width="2048" height="2048" viewBox="-10 0 2068 2048">
   <path fill="currentColor"
d="M558 96q-148 0 -276.5 74t-205 202.5t-76.5 281.5q0 109 43.5 211t122 180.5t181 122t213.5 43.5t213.5 -43.5t181 -122t120 -180.5t41.5 -211q0 -153 -74.5 -281.5t-203 -202.5t-280.5 -74zM1909 466q-61 0 -100.5 41.5t-39.5 98t39.5 98t98 41.5t100 -41.5t41.5 -98
t-41.5 -98t-97.5 -41.5zM1490 654q-117 0 -198 80.5t-81 196t81 198t196.5 82.5t198 -82.5t82.5 -198t-82.5 -196t-196.5 -80.5zM1490 1303q-135 0 -231 96t-96 231t96 228.5t231 93.5t229 -93.5t94 -228.5t-94 -231t-229 -96z" />
</svg>
