<?xml version="1.0" standalone="no"?>
<!DOCTYPE svg PUBLIC "-//W3C//DTD SVG 1.1//EN" "http://www.w3.org/Graphics/SVG/1.1/DTD/svg11.dtd" >
<svg xmlns="http://www.w3.org/2000/svg" xmlns:xlink="http://www.w3.org/1999/xlink" version="1.1" width="2048" height="2048" viewBox="-10 0 2068 2048">
   <path fill="currentColor"
d="M1024 151l-1024 923h308v823h1432v-823h308zM1024 714q178 0 336.5 67.5t278.5 182.5l-125 125q-91 -96 -218.5 -149t-271.5 -53t-271.5 53t-218.5 149l-125 -125q120 -115 278.5 -182.5t336.5 -67.5zM1024 1055q106 0 202 41t168 113l-125 120q-101 -101 -245 -101
t-245 101l-125 -120q72 -72 168 -113t202 -41zM1024 1401q72 0 122.5 48.5t50.5 120.5t-50.5 122.5t-122.5 50.5t-122.5 -50.5t-50.5 -122.5t50.5 -120.5t122.5 -48.5z" />
</svg>
