<?xml version="1.0" standalone="no"?>
<!DOCTYPE svg PUBLIC "-//W3C//DTD SVG 1.1//EN" "http://www.w3.org/Graphics/SVG/1.1/DTD/svg11.dtd" >
<svg xmlns="http://www.w3.org/2000/svg" xmlns:xlink="http://www.w3.org/1999/xlink" version="1.1" width="2048" height="2048" viewBox="-10 0 2058 2048">
   <path fill="currentColor"
d="M1390 365q0 30 -22 51.5t-52 21.5h-146v1171h146q30 0 52 21.5t22 51.5q0 29 -22 51l-293 293q-22 22 -51 22q-30 0 -52 -22l-292 -293q-22 -22 -22 -51q0 -30 21.5 -51.5t51.5 -21.5h147v-1171h-147q-30 0 -51.5 -21.5t-21.5 -51.5q0 -29 22 -51l292 -293q21 -21 52 -21
q30 0 51 21l293 293q22 22 22 51z" />
</svg>
