<?xml version="1.0" standalone="no"?>
<!DOCTYPE svg PUBLIC "-//W3C//DTD SVG 1.1//EN" "http://www.w3.org/Graphics/SVG/1.1/DTD/svg11.dtd" >
<svg xmlns="http://www.w3.org/2000/svg" xmlns:xlink="http://www.w3.org/1999/xlink" version="1.1" width="2048" height="2048" viewBox="-10 0 2068 2048">
   <path fill="currentColor"
d="M152 871v-5l22 -26l9 -4h356l5 4l-18 26l-8 5h-366zM4 962l-4 -4l22 -26l13 -5h452l4 9l-8 22l-9 4h-470zM244 1053v-4l13 -26l8 -4h200l5 4v26l-9 4h-217zM1279 853l-166 44q-13 4 -17 2t-13 -11q-22 -26 -48 -39q-87 -43 -178 17q-105 70 -100 187q0 61 37 107t93 54
q100 9 174 -69l26 -35h-191q-31 0 -22 -30l52 -109q9 -18 26 -18h318q22 -60 69 -130q105 -135 279 -165q165 -31 287 52t139 222q26 195 -117 339q-96 96 -240 126l-78 9q-143 -5 -243 -87q-74 -65 -96 -152l-44 65q-108 148 -282 165q-152 26 -267.5 -61t-128.5 -222
q-17 -161 87 -298t278 -167q148 -26 261 48q78 52 118 139q4 13 -13 17zM1848 1001l-4 -30q-13 -74 -72 -111t-132 -24q-144 35 -174 174q-13 57 13 111t78 76q83 35 165 -4q118 -61 126 -192z" />
</svg>
