<?xml version="1.0" standalone="no"?>
<!DOCTYPE svg PUBLIC "-//W3C//DTD SVG 1.1//EN" "http://www.w3.org/Graphics/SVG/1.1/DTD/svg11.dtd" >
<svg xmlns="http://www.w3.org/2000/svg" xmlns:xlink="http://www.w3.org/1999/xlink" version="1.1" width="2048" height="2048" viewBox="-10 0 2068 2048">
   <path fill="currentColor"
d="M1024 236q-279 0 -514.5 91t-372.5 250t-137 346q0 163 110.5 307.5t303 240.5t427.5 125v216h351v-216q130 -14 245 -48l145 264h394l-240 -399q149 -96 230.5 -223.5t81.5 -266.5q0 -187 -137 -346t-372.5 -250t-514.5 -91zM1183 500q336 0 533 115q212 121 212 356
q0 255 -245 375q-20 -10 -24 -14q-39 -15 -97 -34l49 -10q52 -14 100 -43q68 -34 106 -96q48 -77 48 -180.5t-48 -175.5q-43 -57 -110 -91q-53 -24 -111 -39l-48 -4h-707v735q-197 -58 -317 -170.5t-120 -245t103.5 -240.5t283.5 -173t392 -65zM1197 909h212l24 4
q28 5 50 27t22 65q0 62 -48 86q-24 15 -48 15h-212v-197zM1192 1361h96q20 0 44 24q14 9 38 43q-77 14 -178 14v-81z" />
</svg>
