<?xml version="1.0" standalone="no"?>
<!DOCTYPE svg PUBLIC "-//W3C//DTD SVG 1.1//EN" "http://www.w3.org/Graphics/SVG/1.1/DTD/svg11.dtd" >
<svg xmlns="http://www.w3.org/2000/svg" xmlns:xlink="http://www.w3.org/1999/xlink" version="1.1" width="2048" height="2048" viewBox="-10 0 2068 2048">
   <path fill="currentColor"
d="M187 96h1674q78 0 132.5 54.5t54.5 128.5v1490q0 74 -54.5 128.5t-132.5 54.5h-1674q-78 0 -132.5 -54.5t-54.5 -128.5v-1490q0 -74 54.5 -128.5t132.5 -54.5zM1116 279v1490h745v-1490h-745zM187 279v1490h745v-1490h-745zM375 1116h183v374h-183v-374zM375 466h370v140
h-370v-140zM375 745h370v140h-370v-140zM1303 1116h187v374h-187v-374zM1303 466h370v140h-370v-140zM1303 745h370v140h-370v-140z" />
</svg>
