<?xml version="1.0" standalone="no"?>
<!DOCTYPE svg PUBLIC "-//W3C//DTD SVG 1.1//EN" "http://www.w3.org/Graphics/SVG/1.1/DTD/svg11.dtd" >
<svg xmlns="http://www.w3.org/2000/svg" xmlns:xlink="http://www.w3.org/1999/xlink" version="1.1" width="2048" height="2048" viewBox="-10 0 2058 2048">
   <path fill="currentColor"
d="M965 0l-346 95l-455 1706q-10 29 -10 48q0 80 59.5 139.5t144.5 59.5h1214q85 0 144 -59.5t59 -139.5q0 -19 -9 -48l-138 -516l-156 156l19 104h-384l289 -289l-142 -142l-431 431h-384l355 -1317h341l152 549l161 -165l-137 -517zM889 332v986l152 -152v-834h-152z
M1752 612l-285 289l-71 -71l-142 142l284 284l143 -142l-72 -71l285 -289z" />
</svg>
