<?xml version="1.0" standalone="no"?>
<!DOCTYPE svg PUBLIC "-//W3C//DTD SVG 1.1//EN" "http://www.w3.org/Graphics/SVG/1.1/DTD/svg11.dtd" >
<svg xmlns="http://www.w3.org/2000/svg" xmlns:xlink="http://www.w3.org/1999/xlink" version="1.1" width="2048" height="2048" viewBox="-10 0 2068 2048">
   <path fill="currentColor"
d="M1024 0q202 0 392 77t334 221t221 334t77 392t-77 392t-221 334t-334 221t-392 77t-392 -77t-334 -221t-221 -334t-77 -392t77 -392t221 -334t334 -221t392 -77zM1024 202q-106 0 -180.5 77t-74.5 182.5t74.5 180t180.5 74.5t180.5 -74.5t74.5 -180t-74.5 -182.5
t-180.5 -77zM245 769q-33 101 15 197t149 127.5t194.5 -16.5t127 -149t-14.5 -195t-149 -127.5t-194.5 14.5t-127.5 149zM1803 769q-34 -101 -127.5 -149t-194.5 -14.5t-149 127.5t-14.5 195t127 149t194.5 16.5t149 -127.5t15 -197zM543 1687q87 63 192.5 46t166 -103.5
t43.5 -190t-101 -166t-190 -45.5t-168.5 101t-45.5 190t103 168zM1505 1687q86 -62 103 -168t-45.5 -192.5t-166 -101t-190 48t-103.5 166t43.5 190t166 103.5t192.5 -46zM1024 870q-62 0 -108 46t-46 108t46 108t108 46t108 -46t46 -108t-46 -108t-108 -46z" />
</svg>
