<?xml version="1.0" standalone="no"?>
<!DOCTYPE svg PUBLIC "-//W3C//DTD SVG 1.1//EN" "http://www.w3.org/Graphics/SVG/1.1/DTD/svg11.dtd" >
<svg xmlns="http://www.w3.org/2000/svg" xmlns:xlink="http://www.w3.org/1999/xlink" version="1.1" width="2048" height="2048" viewBox="-11 0 2069 2048">
   <path fill="currentColor"
d="M1971 1151h-172v776h-681v-322l272 -273l68 14q87 0 145.5 -59t58.5 -143t-58.5 -145t-145 -61t-145.5 61t-59 143l9 68l-145 150v-531q50 -27 79.5 -74.5t29.5 -106.5q0 -82 -59 -141t-145 -59t-145 59t-59 141q0 59 29.5 106.5t79.5 74.5v531l-145 -150l9 -68
q0 -82 -59 -143t-145.5 -61t-145.5 61t-59 145t59 143t146 59l68 -14l272 273v322h-681v-776h-167h-55q-27 -5 -25 -23t84 -99l844 -844q31 -32 45 -45q27 -19 50 -19t50 19l45 45l390 385v-95h191v290l272 268q77 82 77 97.5t-18 18t-59 2.5zM588 1056q36 0 61 25t25 61
t-25 61t-61.5 25t-61.5 -25t-25 -61t25 -61t62 -25zM1458 1056q37 0 62 25t25 61t-25 61t-61.5 25t-61.5 -25t-25 -61t25 -61t61 -25zM1023 561q36 0 61 25t25 61.5t-25 63.5t-61 27t-61 -27t-25 -63.5t25 -61.5t61 -25z" />
</svg>
