<?xml version="1.0" standalone="no"?>
<!DOCTYPE svg PUBLIC "-//W3C//DTD SVG 1.1//EN" "http://www.w3.org/Graphics/SVG/1.1/DTD/svg11.dtd" >
<svg xmlns="http://www.w3.org/2000/svg" xmlns:xlink="http://www.w3.org/1999/xlink" version="1.1" width="2048" height="2048" viewBox="-10 0 2068 2048">
   <path fill="currentColor"
d="M0 627l1337 1343l84 -79l157 157l157 -157l-157 -156l157 -157l156 157l157 -157l-157 -157l79 -84l-1343 -1337zM313 627l314 -314l1029 1024l-319 319zM470 627l157 162l162 -162l-162 -157zM711 867l156 157l157 -157l-157 -156zM946 1102l156 157l157 -157l-157 -156
zM1181 1337l156 157l157 -157l-157 -156z" />
</svg>
