<?xml version="1.0" standalone="no"?>
<!DOCTYPE svg PUBLIC "-//W3C//DTD SVG 1.1//EN" "http://www.w3.org/Graphics/SVG/1.1/DTD/svg11.dtd" >
<svg xmlns="http://www.w3.org/2000/svg" xmlns:xlink="http://www.w3.org/1999/xlink" version="1.1" width="2048" height="2048" viewBox="-10 0 2068 2048">
   <path fill="currentColor"
d="M1024 0q202 0 392 77t334 221t221 334t77 392q0 87 -60 147t-142 60h-1644q-82 0 -142 -60t-60 -147q0 -202 77 -392t221 -334t334 -221t392 -77zM1024 615q87 0 147 -60t60 -146.5t-60 -146.5t-147 -60t-147 60t-60 146.5t60 146.5t147 60zM1538 1024q82 0 142 -60
t60 -144t-60 -144.5t-144 -60.5t-144 60.5t-60 144.5t60 144t146 60zM510 1024q86 0 146 -60t60 -144t-60 -144.5t-144 -60.5t-144 60.5t-60 144.5t60 144t142 60zM1332 1332l129 456l10 58q0 82 -60 142t-147 60h-480q-87 0 -147 -60t-60 -142l10 -58l129 -456h616z" />
</svg>
