<?xml version="1.0" standalone="no"?>
<!DOCTYPE svg PUBLIC "-//W3C//DTD SVG 1.1//EN" "http://www.w3.org/Graphics/SVG/1.1/DTD/svg11.dtd" >
<svg xmlns="http://www.w3.org/2000/svg" xmlns:xlink="http://www.w3.org/1999/xlink" version="1.1" width="2048" height="2048" viewBox="-10 0 2058 2048">
   <path fill="currentColor"
d="M795 0l-224 1477h906l-224 -1477h-458zM965 315q38 0 62 24t24 58.5t-24 61t-59 26.5t-61.5 -26.5t-26.5 -61t26.5 -58.5t58.5 -24zM1083 624q48 0 80 34.5t32 82.5t-32 80t-80 32t-83 -32t-35 -80t35 -82.5t83 -34.5zM965 1024q75 0 123 50.5t48 120t-48 120t-120 50.5
t-122.5 -50.5t-50.5 -120t50.5 -120t119.5 -50.5zM571 1595l224 224l-224 229h906l-224 -229l224 -224h-906z" />
</svg>
