<?xml version="1.0" standalone="no"?>
<!DOCTYPE svg PUBLIC "-//W3C//DTD SVG 1.1//EN" "http://www.w3.org/Graphics/SVG/1.1/DTD/svg11.dtd" >
<svg xmlns="http://www.w3.org/2000/svg" xmlns:xlink="http://www.w3.org/1999/xlink" version="1.1" width="2048" height="2048" viewBox="-10 0 2058 2048">
   <path fill="currentColor"
d="M409 0q-87 0 -147 60t-60 142v1644q0 82 60 142t147 60h1230q87 0 147 -60t60 -142v-1644q0 -82 -60 -142t-147 -60h-1230zM1024 308q139 0 257 67t187.5 185t69.5 257.5t-69.5 257t-187.5 187.5t-257 70q-101 0 -194.5 -38.5t-166 -110.5t-113 -166t-40.5 -197.5
t40.5 -197t113 -165.5t166 -110.5t194.5 -38.5zM1024 409q-67 105 -96 206h192q-29 -105 -96 -206zM889 433q-149 48 -221 182h149q34 -105 72 -182zM1159 433q43 77 72 182h149q-72 -129 -221 -182zM625 716q-10 53 -10 103.5t10 103.5h173q-5 -62 -5 -105.5t5 -101.5h-173
zM904 716q-10 53 -10 101t10 106h240q10 -67 10 -103t-10 -104h-240zM1250 716q5 58 5 101.5t-5 105.5h173q10 -53 10 -103.5t-10 -103.5h-173zM668 1024q72 130 221 183q-38 -77 -72 -183h-149zM928 1024q29 101 96 207q67 -101 96 -207h-192zM1231 1024q-29 101 -72 183
q149 -53 221 -183h-149zM510 1538h1028v202h-1028v-202z" />
</svg>
