<?xml version="1.0" standalone="no"?>
<!DOCTYPE svg PUBLIC "-//W3C//DTD SVG 1.1//EN" "http://www.w3.org/Graphics/SVG/1.1/DTD/svg11.dtd" >
<svg xmlns="http://www.w3.org/2000/svg" xmlns:xlink="http://www.w3.org/1999/xlink" version="1.1" width="2048" height="2048" viewBox="-10 0 2068 2048">
   <path fill="currentColor"
d="M1024 0q202 0 392 77t334 221t221 334t77 392t-77 392t-221 334t-334 221t-392 77t-392 -77t-334 -221t-221 -334t-77 -392t77 -392t221 -334t334 -221t392 -77zM817 1365q24 77 0 154l-9 29q-20 38 -48 72q-44 43 -99 62.5t-84 2.5t-12 -74.5t65 -108t120 -98.5z
M1668 437q-24 -91 -120 -139t-235.5 -50.5t-278.5 50.5q-308 106 -486 279q-106 96 -149 197q-34 77 -24 130q14 96 115 187q53 53 183 145q77 52 101 72v4q-77 39 -149 82q-130 92 -166 171t-12 151q24 58 63 72q101 29 197 -14t154 -130q48 -72 57 -168q5 -87 -24 -144
q77 -20 159 -10q120 14 173 82q43 48 36 98.5t-55 83.5q-20 10 -17.5 17.5t22 2.5t48.5 -29q43 -39 43 -96q5 -87 -74.5 -159t-209.5 -72q-110 5 -163 24l-5 -10q-39 -38 -125 -105q-101 -77 -139 -121q-63 -72 -58 -149q9 -211 408 -413q149 -72 294 -96q120 -19 209 5
t113 77q29 67 -21.5 163t-161.5 168q-125 77 -284 96q-76 10 -144 -14q-38 -14 -62 -38l-5 -5q-14 -15 -21.5 -10t2.5 29q5 24 38.5 50.5t76.5 45.5q58 19 149 15q120 -10 241 -53q149 -58 245 -200t62 -272z" />
</svg>
