<?xml version="1.0" standalone="no"?>
<!DOCTYPE svg PUBLIC "-//W3C//DTD SVG 1.1//EN" "http://www.w3.org/Graphics/SVG/1.1/DTD/svg11.dtd" >
<svg xmlns="http://www.w3.org/2000/svg" xmlns:xlink="http://www.w3.org/1999/xlink" version="1.1" width="2048" height="2048" viewBox="-10 0 2068 2048">
   <path fill="currentColor"
d="M1956 1443v-48q0 -96 -69.5 -163.5t-166 -67.5t-164 67.5t-67.5 163.5v48q-39 0 -65.5 26.5t-26.5 65.5v375q0 40 26.5 66t65.5 26h467q40 0 66 -26t26 -66v-375q0 -39 -26 -65.5t-66 -26.5zM1860 1443h-279v-48q0 -57 41.5 -98.5t100.5 -41.5t98 41.5t39 98.5v48z
M1956 884l-1956 839v-651l1397 -188l-1397 -188v-650z" />
</svg>
