<?xml version="1.0" standalone="no"?>
<!DOCTYPE svg PUBLIC "-//W3C//DTD SVG 1.1//EN" "http://www.w3.org/Graphics/SVG/1.1/DTD/svg11.dtd" >
<svg xmlns="http://www.w3.org/2000/svg" xmlns:xlink="http://www.w3.org/1999/xlink" version="1.1" width="2048" height="2048" viewBox="-10 0 2068 2048">
   <path fill="currentColor"
d="M822 1885h-298q-144 0 -252.5 -108.5t-108.5 -252.5v-1000q0 -144 106 -252.5t255 -108.5h298v1722zM524 0q-144 0 -264.5 69.5t-190 190t-69.5 264.5v1000q0 144 69.5 264.5t190 190t264.5 69.5h466v-2048h-466zM317 615q0 77 58 135t137 58t134.5 -58t55.5 -137
t-55.5 -134.5t-134.5 -55.5t-137 55.5t-58 136.5zM1601 923q82 0 144.5 60t62.5 144t-62.5 144.5t-147 60.5t-147 -60.5t-62.5 -144.5t62.5 -144t149.5 -60zM1524 2048q144 0 264.5 -69.5t190 -190t69.5 -264.5v-1000q0 -144 -69.5 -264.5t-190 -190t-264.5 -69.5h-332v2048
h332z" />
</svg>
