<?xml version="1.0" standalone="no"?>
<!DOCTYPE svg PUBLIC "-//W3C//DTD SVG 1.1//EN" "http://www.w3.org/Graphics/SVG/1.1/DTD/svg11.dtd" >
<svg xmlns="http://www.w3.org/2000/svg" xmlns:xlink="http://www.w3.org/1999/xlink" version="1.1" width="2048" height="2048" viewBox="-10 0 2058 2048">
   <path fill="currentColor"
d="M2022 951h-229q-52 -187 -150 -300l342 -543l-169 -108l-323 511q-61 -47 -118 -70l90 -361l-193 -52l-79 342l-24 -4q-93 -15 -145 -15q-272 0 -487.5 169t-281.5 431h-229q0 300 164 548.5t436 370.5v178h796v-178q272 -122 436 -370.5t164 -548.5zM1024 548
q192 0 344.5 112.5t213.5 290.5h-1116q61 -178 213.5 -290.5t344.5 -112.5z" />
</svg>
