<?xml version="1.0" standalone="no"?>
<!DOCTYPE svg PUBLIC "-//W3C//DTD SVG 1.1//EN" "http://www.w3.org/Graphics/SVG/1.1/DTD/svg11.dtd" >
<svg xmlns="http://www.w3.org/2000/svg" xmlns:xlink="http://www.w3.org/1999/xlink" version="1.1" width="2048" height="2048" viewBox="-10 0 2058 2048">
   <path fill="currentColor"
d="M1024 817l-409 -572l164 -245h490l164 245zM1385 490l-125 173q173 73 276 224t103 344q0 163 -81.5 305t-223.5 226t-310 84t-310 -84t-223.5 -226t-81.5 -305q0 -193 103 -344t276 -224l-125 -173q-206 101 -333.5 298.5t-127.5 442.5q0 221 110.5 408.5t300.5 298
t411 110.5t411 -110.5t300.5 -298t110.5 -408.5q0 -245 -127.5 -442.5t-333.5 -298.5z" />
</svg>
