<?xml version="1.0" standalone="no"?>
<!DOCTYPE svg PUBLIC "-//W3C//DTD SVG 1.1//EN" "http://www.w3.org/Graphics/SVG/1.1/DTD/svg11.dtd" >
<svg xmlns="http://www.w3.org/2000/svg" xmlns:xlink="http://www.w3.org/1999/xlink" version="1.1" width="2048" height="2048" viewBox="-10 0 2068 2048">
   <path fill="currentColor"
d="M202 1024h1644q0 -284 -175.5 -505t-439.5 -288q-15 77 -72.5 127.5t-134.5 50.5t-134.5 -50.5t-72.5 -127.5q-264 67 -439.5 288t-175.5 505zM1024 0q202 0 392 77t334 221t221 334t77 392q0 87 -60 147t-142 60h-1644q-82 0 -142 -60t-60 -147q0 -202 77 -392t221 -334
t334 -221t392 -77zM1178 1538h-308l-86 308h480zM1332 1332l101 360l28 96l10 58q0 82 -60 142t-147 60h-480l-48 -5q-87 -19 -130.5 -93.5t-18.5 -156.5l129 -461h616zM1433 510q86 0 146 60t60 146.5t-60 146.5t-144 60t-144 -60t-60 -146.5t60 -146.5t142 -60zM615 510
q82 0 142 60t60 146.5t-60 146.5t-144 60t-144 -60t-60 -146.5t60 -146.5t146 -60z" />
</svg>
