<?xml version="1.0" standalone="no"?>
<!DOCTYPE svg PUBLIC "-//W3C//DTD SVG 1.1//EN" "http://www.w3.org/Graphics/SVG/1.1/DTD/svg11.dtd" >
<svg xmlns="http://www.w3.org/2000/svg" xmlns:xlink="http://www.w3.org/1999/xlink" version="1.1" width="2048" height="2048" viewBox="-10 0 2068 2048">
   <path fill="currentColor"
d="M154 1690q62 0 108 45.5t46 110.5t-46 108.5t-110.5 43.5t-108 -43.5t-43.5 -108.5t43.5 -110.5t110.5 -45.5zM663 1382q106 0 183 77t77 183t-77 180.5t-182.5 74.5t-180 -74.5t-74.5 -180.5t74.5 -183t179.5 -77zM1279 1281q-92 0 -171 -36t-137 -103
q-53 67 -134.5 103t-173.5 36q-149 0 -262 -96t-141 -240q-116 -44 -188 -147t-72 -233q0 -173 120 -293.5t289 -120.5q28 0 77 10q125 -111 283 -111q92 0 171 36.5t137 103.5q53 -67 134.5 -103.5t173.5 -36.5q149 0 262 96.5t141 240.5q116 43 188 146.5t72 233.5
q0 173 -120 293t-289 120l-77 -9q-125 110 -283 110z" />
</svg>
