<?xml version="1.0" standalone="no"?>
<!DOCTYPE svg PUBLIC "-//W3C//DTD SVG 1.1//EN" "http://www.w3.org/Graphics/SVG/1.1/DTD/svg11.dtd" >
<svg xmlns="http://www.w3.org/2000/svg" xmlns:xlink="http://www.w3.org/1999/xlink" version="1.1" width="2048" height="2048" viewBox="-10 0 2068 2048">
   <path fill="currentColor"
d="M154 1690q62 0 108 45.5t46 110.5t-46 108.5t-110.5 43.5t-108 -43.5t-43.5 -108.5t43.5 -110.5t110.5 -45.5zM663 1382q106 0 183 77t77 183t-77 180.5t-182.5 74.5t-180 -74.5t-74.5 -180.5t74.5 -183t179.5 -77zM1279 1281q-92 0 -171 -36t-137 -103
q-53 67 -134.5 103t-173.5 36q-149 0 -262 -96t-141 -240q-116 -44 -188 -147t-72 -233q0 -173 120 -293.5t289 -120.5l77 10q125 -111 283 -111q92 0 171 36.5t137 103.5q53 -67 134.5 -103.5t173.5 -36.5q149 0 262 96.5t141 240.5q116 43 188 146.5t72 233.5
q0 173 -120 293t-289 120l-77 -9q-125 110 -283 110zM409 358q-87 0 -147 60t-60 144.5t60 144.5t147 60q48 0 96 -19q-43 52 -43 125q0 81 60 141t149 60t146 -67l154 -173l154 173q67 67 154 67q77 0 134.5 -48t72.5 -125q57 73 153 73q87 0 147 -60.5t60 -144.5t-60 -144
t-147 -60q-48 0 -96 19q43 -53 43 -125q0 -82 -60 -142t-146.5 -60t-148.5 68l-159 173l-149 -173q-62 -68 -154 -68q-77 0 -134.5 48t-72.5 125q-57 -72 -153 -72zM663 1536q-43 0 -72 31t-29 74.5t29 72.5t72.5 29t74.5 -29t31 -72.5t-31 -74.5t-75 -31z" />
</svg>
