<?xml version="1.0" standalone="no"?>
<!DOCTYPE svg PUBLIC "-//W3C//DTD SVG 1.1//EN" "http://www.w3.org/Graphics/SVG/1.1/DTD/svg11.dtd" >
<svg xmlns="http://www.w3.org/2000/svg" xmlns:xlink="http://www.w3.org/1999/xlink" version="1.1" width="2048" height="2048" viewBox="-10 0 2068 2048">
   <path fill="currentColor"
d="M1024 1428q-183 -188 -293 -438q-116 -264 -116 -528l-615 -207q0 404 274 769q231 308 601 529q-192 139 -365 139v101q96 0 230.5 -41t283.5 -117q149 76 283.5 117t230.5 41v-101q-173 0 -365 -139q370 -221 601 -529q274 -365 274 -769l-615 207q0 264 -116 528
q-110 250 -293 438z" />
</svg>
