<?xml version="1.0" standalone="no"?>
<!DOCTYPE svg PUBLIC "-//W3C//DTD SVG 1.1//EN" "http://www.w3.org/Graphics/SVG/1.1/DTD/svg11.dtd" >
<svg xmlns="http://www.w3.org/2000/svg" xmlns:xlink="http://www.w3.org/1999/xlink" version="1.1" width="2048" height="2048" viewBox="-10 0 2068 2048">
   <path fill="currentColor"
d="M0 453v230h453v229h-224q-96 0 -162.5 66.5t-66.5 157.5v459h683v-230h-454v-229h224q96 0 163 -66.5t67 -157.5v-229q0 -96 -67 -163t-163 -67h-453zM1136 1595h-224v-230h224v230zM1595 453q-96 0 -163 67t-67 163v682q0 96 67 163t163 67h224q96 0 162.5 -67
t66.5 -163v-682q0 -96 -66.5 -163t-162.5 -67h-224zM1595 683h224v682h-224v-682z" />
</svg>
