<?xml version="1.0" standalone="no"?>
<!DOCTYPE svg PUBLIC "-//W3C//DTD SVG 1.1//EN" "http://www.w3.org/Graphics/SVG/1.1/DTD/svg11.dtd" >
<svg xmlns="http://www.w3.org/2000/svg" xmlns:xlink="http://www.w3.org/1999/xlink" version="1.1" width="2048" height="2048" viewBox="-10 0 2068 2048">
   <path fill="currentColor"
d="M745 558h187v374h184v-374h187v932h-187v-374h-184v374h-187v-932zM1490 558h279q113 0 196 82.5t83 196.5v374q0 114 -83 196.5t-196 82.5h-279v-932zM1769 1303q39 0 65.5 -26t26.5 -66v-374q0 -40 -26.5 -66t-65.5 -26h-96v558h96zM558 1211q0 114 -80.5 196.5
t-196 82.5t-198.5 -82.5t-83 -196.5v-653h187v653q0 40 26.5 66t65.5 26t67.5 -26t28.5 -66v-653h183v653z" />
</svg>
