<?xml version="1.0" standalone="no"?>
<!DOCTYPE svg PUBLIC "-//W3C//DTD SVG 1.1//EN" "http://www.w3.org/Graphics/SVG/1.1/DTD/svg11.dtd" >
<svg xmlns="http://www.w3.org/2000/svg" xmlns:xlink="http://www.w3.org/1999/xlink" version="1.1" width="2048" height="2048" viewBox="-10 0 2066 2048">
   <path fill="currentColor"
d="M36 1293q91 -34 191 -34q207 0 360 130l-321 321q-163 -182 -230 -417zM1389 798q302 226 652 111q5 43 5 115q0 154 -72 350.5t-177 316.5l-648 -648zM693 1499q163 235 67 513q-225 -62 -384 -196zM1043 1149l648 648q-336 292 -782 244q33 -101 33 -220
q0 -96 -43 -223.5t-101 -208.5zM698 1278q-139 -124 -329 -160t-362 21q-5 -43 -5 -115q0 -154 72 -350.5t177 -316.5l682 686zM1389 587q-207 -254 -96 -551q100 24 218 93.5t199 136.5zM2012 755q-91 34 -191 34q-168 0 -322 -101l317 -312q134 168 196 379zM1043 933
l-686 -682q336 -292 782 -244q-33 101 -33 216t52.5 256.5t119.5 218.5z" />
</svg>
