<?xml version="1.0" standalone="no"?>
<!DOCTYPE svg PUBLIC "-//W3C//DTD SVG 1.1//EN" "http://www.w3.org/Graphics/SVG/1.1/DTD/svg11.dtd" >
<svg xmlns="http://www.w3.org/2000/svg" xmlns:xlink="http://www.w3.org/1999/xlink" version="1.1" width="2048" height="2048" viewBox="-10 0 2068 2048">
   <path fill="currentColor"
d="M865 1241q146 0 344 46q-132 142 -132 329q0 146 86 273h-1163v-218q0 -192 298.5 -311t566.5 -119zM865 1024q-172 0 -303.5 -126.5t-131.5 -303.5t129 -306t306 -129t303.5 131.5t126.5 306t-126.5 301t-303.5 126.5zM1674 807h162h212v217h-212v592q0 111 -81 192
t-192.5 81t-189.5 -81t-78 -192.5t78 -189.5t190 -78q60 0 111 20v-561z" />
</svg>
