<?xml version="1.0" standalone="no"?>
<!DOCTYPE svg PUBLIC "-//W3C//DTD SVG 1.1//EN" "http://www.w3.org/Graphics/SVG/1.1/DTD/svg11.dtd" >
<svg xmlns="http://www.w3.org/2000/svg" xmlns:xlink="http://www.w3.org/1999/xlink" version="1.1" width="2048" height="2048" viewBox="-11 0 2069 2048">
   <path fill="currentColor"
d="M606 947q-14 -19 -38 -23.5t-39 9.5l-24 24l-500 1004q-9 25 -2 49t27 33q9 5 28 5h702q38 0 53 -29q72 -154 72 -351t-74.5 -389t-204.5 -332zM976 30q-192 297 -211 645.5t134 666.5l337 677q19 29 53 29h701q24 0 41 -17t17 -38.5t-5 -31.5l-966 -1931q-9 -20 -31 -27
t-41 2.5t-29 24.5z" />
</svg>
