<?xml version="1.0" standalone="no"?>
<!DOCTYPE svg PUBLIC "-//W3C//DTD SVG 1.1//EN" "http://www.w3.org/Graphics/SVG/1.1/DTD/svg11.dtd" >
<svg xmlns="http://www.w3.org/2000/svg" xmlns:xlink="http://www.w3.org/1999/xlink" version="1.1" width="2048" height="2048" viewBox="-10 0 2068 2048">
   <path fill="currentColor"
d="M1108 940q108 0 182 -76t74 -182t-74 -180t-180 -74t-182 74t-76 180t76 182t180 76zM1108 596q28 0 50 16t32 38t4 48t-24 44t-44 24t-50 -4t-38 -32t-14 -46q0 -36 24 -62t60 -26zM1460 928q76 -112 76 -246t-76 -242q36 -12 76 -12q108 0 182 74t74 180t-74 182
t-182 76q-40 0 -76 -12zM1108 1108q-144 0 -248 36q-92 32 -152 84q-48 44 -76 104q-24 40 -32 84l-4 36v168h1024v-168l-4 -36q-8 -44 -28 -84q-28 -60 -76 -104q-64 -52 -152 -84q-108 -36 -252 -36zM768 1452q0 -28 20 -56q28 -48 92 -76q88 -40 228 -40q192 0 284 72
q52 40 60 100h-684zM2048 1452v168h-256v-168q-4 -96 -44 -184t-108 -152q140 12 236 68q76 44 120 116q32 48 44 104zM684 1024h-256v256h-172v-256h-256v-172h256v-256h172v256h256v172z" />
</svg>
