<?xml version="1.0" standalone="no"?>
<!DOCTYPE svg PUBLIC "-//W3C//DTD SVG 1.1//EN" "http://www.w3.org/Graphics/SVG/1.1/DTD/svg11.dtd" >
<svg xmlns="http://www.w3.org/2000/svg" xmlns:xlink="http://www.w3.org/1999/xlink" version="1.1" width="2048" height="2048" viewBox="-10 0 2068 2048">
   <path fill="currentColor"
d="M1070 242h-192v-192h-585v192h-197q-46 0 -71 27.5t-25 73.5v1559q0 45 25 70.5t71 25.5h974q45 0 72.5 -25.5t27.5 -70.5v-1559q0 -46 -27.5 -73.5t-72.5 -27.5zM681 1609h-196v-196h196v196zM681 1221h-196v-586h196v586zM1765 334l-138 132q147 151 199.5 352t0 402.5
t-199.5 347.5l138 137q187 -183 251 -432t0 -502.5t-251 -436.5zM1481 613l-137 137q119 119 119 279t-119 278l137 138q114 -115 155.5 -268t0 -301.5t-155.5 -262.5z" />
</svg>
