<?xml version="1.0" standalone="no"?>
<!DOCTYPE svg PUBLIC "-//W3C//DTD SVG 1.1//EN" "http://www.w3.org/Graphics/SVG/1.1/DTD/svg11.dtd" >
<svg xmlns="http://www.w3.org/2000/svg" xmlns:xlink="http://www.w3.org/1999/xlink" version="1.1" width="2048" height="2048" viewBox="-10 0 2068 2048">
   <path fill="currentColor"
d="M1773 366q131 131 203 301t72 357t-72 357t-203 301l-130 -131q104 -104 161 -239t57 -288t-57 -288t-161 -239zM1512 632q78 74 119.5 176.5t41.5 215.5t-41.5 215.5t-119.5 176.5l-131 -131q109 -108 109 -261t-109 -261zM1116 837q78 0 132.5 54.5t54.5 132.5
t-54.5 132.5t-131 54.5t-131 -54.5t-54.5 -132.5t54.5 -132.5t129.5 -54.5zM976 0q96 0 165.5 69.5t69.5 165.5v419h-187v-375h-837v1394h837v-279h187v419q0 96 -69.5 165.5t-165.5 69.5h-741q-96 0 -165.5 -69.5t-69.5 -165.5v-1578q0 -96 69.5 -165.5t165.5 -69.5h741z
" />
</svg>
