<?xml version="1.0" standalone="no"?>
<!DOCTYPE svg PUBLIC "-//W3C//DTD SVG 1.1//EN" "http://www.w3.org/Graphics/SVG/1.1/DTD/svg11.dtd" >
<svg xmlns="http://www.w3.org/2000/svg" xmlns:xlink="http://www.w3.org/1999/xlink" version="1.1" width="2048" height="2048" viewBox="-10 0 2068 2048">
   <path fill="currentColor"
d="M1707 643q-75 33 -161 46q91 -55 124 -157q-90 52 -179 68q-38 -42 -91 -65t-113 -23q-116 0 -198 82t-82 198q0 41 7 65q-172 -9 -322.5 -86.5t-256.5 -208.5q-39 67 -39 142q0 72 32 133.5t89 99.5q-63 -2 -133 -34v3q0 100 66.5 177t164.5 97q-37 10 -68 10
q-17 0 -52 -4q27 84 99 138.5t162 56.5q-154 120 -348 120q-24 0 -66 -5q199 126 429 126q125 0 237.5 -33.5t198.5 -91t155.5 -135t114 -166.5t68 -184t23.5 -188q0 -25 -1 -36q84 -59 140 -145zM2048 384v1280q0 105 -51.5 193t-139.5 139.5t-193 51.5h-1280
q-105 0 -193 -51.5t-139.5 -139.5t-51.5 -193v-1280q0 -105 51.5 -193t139.5 -139.5t193 -51.5h1280q105 0 193 51.5t139.5 139.5t51.5 193z" />
</svg>
