<?xml version="1.0" standalone="no"?>
<!DOCTYPE svg PUBLIC "-//W3C//DTD SVG 1.1//EN" "http://www.w3.org/Graphics/SVG/1.1/DTD/svg11.dtd" >
<svg xmlns="http://www.w3.org/2000/svg" xmlns:xlink="http://www.w3.org/1999/xlink" version="1.1" width="2048" height="2048" viewBox="-11 0 2070 2048">
   <path fill="currentColor"
d="M1254 875q-19 77 -124 77q-58 0 -159 -29h-9l57 -225l34 9q96 24 139 48q81 48 62 120zM933 1038l-58 245l20 5q115 33 182 33q120 0 141.5 -84t-79.5 -136q-57 -34 -177 -58zM2017 1273q-67 269 -256.5 463t-451 271t-532.5 10t-465 -256.5t-271 -451t-10 -532.5
t256.5 -465t451 -271t532.5 -10t465 256.5t271 451t10 534.5zM1249 621l48 -187l-115 -24l-43 178l-91 -20l48 -182l-115 -29l-43 187l-226 -57l-33 120l43 9l38 10q58 14 53 67l-125 504q-14 33 -52 28l-82 -24l-53 130l226 57l-48 187l110 29l48 -187l91 24l-48 182
l110 29l48 -187q159 34 245 5q110 -34 149 -153q72 -187 -101 -274q125 -33 144 -168q14 -91 -53 -158q-53 -57 -173 -96z" />
</svg>
