<?xml version="1.0" standalone="no"?>
<!DOCTYPE svg PUBLIC "-//W3C//DTD SVG 1.1//EN" "http://www.w3.org/Graphics/SVG/1.1/DTD/svg11.dtd" >
<svg xmlns="http://www.w3.org/2000/svg" xmlns:xlink="http://www.w3.org/1999/xlink" version="1.1" width="2048" height="2048" viewBox="-10 0 2068 2048">
   <path fill="currentColor"
d="M1024 942q0 -5 5 -5q293 -269 380 -370q129 -154 129 -293q0 -115 -84 -194.5t-199 -79.5q-140 0 -231 101q-91 -101 -236 -101q-115 0 -196.5 81.5t-81.5 197.5q0 134 129 288q87 101 380 370zM942 1024q-5 0 -5 -5q-269 -293 -370 -380q-154 -129 -293 -129
q-115 0 -194.5 84t-79.5 199q0 140 101 231q-101 91 -101 236q0 115 81.5 196.5t197.5 81.5q134 0 288 -129q101 -87 370 -380zM1111 1024q187 207 264 284q120 120 207 173q96 57 192 57q115 0 194.5 -84t79.5 -199q0 -140 -101 -231q101 -91 101 -236q0 -115 -81.5 -196.5
t-197.5 -81.5q-134 0 -288 129q-101 87 -370 385zM1024 1106q0 5 -5 5q-293 269 -380 370q-129 154 -129 293q0 115 84 194.5t199 79.5q140 0 231 -101q91 101 236 101q115 0 196.5 -81.5t81.5 -197.5q0 -134 -129 -288q-87 -101 -380 -370z" />
</svg>
