<?xml version="1.0" standalone="no"?>
<!DOCTYPE svg PUBLIC "-//W3C//DTD SVG 1.1//EN" "http://www.w3.org/Graphics/SVG/1.1/DTD/svg11.dtd" >
<svg xmlns="http://www.w3.org/2000/svg" xmlns:xlink="http://www.w3.org/1999/xlink" version="1.1" width="2048" height="2048" viewBox="-10 0 2058 2048">
   <path fill="currentColor"
d="M644 621q-82 0 -96 -13l-40 589q72 45 196.5 74.5t355.5 16t480 -100.5l-77 -910q-131 127 -376 236q-222 95 -380 108h-63zM635 386q-100 86 -84 117.5t142 18.5q159 -14 358 -100q141 -59 238 -127t133.5 -113t27.5 -65.5t-91 -20.5q-163 0 -407 104q-209 91 -317 186z
M1540 82q9 19 9 41l114 1391q0 249 -172.5 391.5t-464.5 142.5t-466.5 -147t-174.5 -396l68 -1010q0 -37 32 -82t59 -72l32 -28q140 -117 339 -203q136 -59 265 -88.5t231 -18.5t129 79z" />
</svg>
