<?xml version="1.0" standalone="no"?>
<!DOCTYPE svg PUBLIC "-//W3C//DTD SVG 1.1//EN" "http://www.w3.org/Graphics/SVG/1.1/DTD/svg11.dtd" >
<svg xmlns="http://www.w3.org/2000/svg" xmlns:xlink="http://www.w3.org/1999/xlink" version="1.1" width="2048" height="2048" viewBox="-10 0 2058 2048">
   <path fill="currentColor"
d="M101 510v-202h207v-106q0 -82 60 -142t142 -60h615v716l260 -154l254 154v-716h101q82 0 144.5 62.5t62.5 139.5v1644q0 77 -62.5 139.5t-144.5 62.5h-1230q-77 0 -139.5 -62.5t-62.5 -139.5v-106h-207v-202h207v-413h-207v-202h207v-413h-207zM510 923h-202v202h202
v-202zM510 510v-202h-202v202h202zM510 1740v-202h-202v202h202z" />
</svg>
