<?xml version="1.0" standalone="no"?>
<!DOCTYPE svg PUBLIC "-//W3C//DTD SVG 1.1//EN" "http://www.w3.org/Graphics/SVG/1.1/DTD/svg11.dtd" >
<svg xmlns="http://www.w3.org/2000/svg" xmlns:xlink="http://www.w3.org/1999/xlink" version="1.1" width="2048" height="2048" viewBox="-10 0 2058 2048">
   <path fill="currentColor"
d="M1947 1125q0 250 -125 464t-336.5 336.5t-461.5 122.5t-461.5 -122.5t-336.5 -336.5t-125 -464l5 -875q423 -250 918 -250t923 240v885zM1125 1836q173 -24 315 -124.5t221 -254.5t79 -332v-760q-336 -163 -716 -163t-726 173l10 750q0 178 81.5 332t221 254.5
t312.5 124.5v-197h202v197zM923 1433h-308l-206 -308l307 106h101l106 -106h202l106 106h101l307 -106l-206 308h-308l-101 -101zM409 721q101 -101 254.5 -101t259.5 101q-106 96 -259.5 96t-254.5 -96zM1125 721q106 -101 257.5 -101t256.5 101q-105 96 -256.5 96
t-257.5 -96z" />
</svg>
