<?xml version="1.0" standalone="no"?>
<!DOCTYPE svg PUBLIC "-//W3C//DTD SVG 1.1//EN" "http://www.w3.org/Graphics/SVG/1.1/DTD/svg11.dtd" >
<svg xmlns="http://www.w3.org/2000/svg" xmlns:xlink="http://www.w3.org/1999/xlink" version="1.1" width="2048" height="2048" viewBox="-10 0 2068 2048">
   <path fill="currentColor"
d="M510 151q86 0 146 60.5t60 147t-60 146.5t-144 60t-144 -60t-60 -146.5t60 -147t142 -60.5zM937 974h1111v822q0 81 -60 141.5t-142 60.5h-1644q-82 0 -142 -60.5t-60 -141.5v-822h308v-77q0 -97 67 -164t163 -67q53 0 99 21.5t75 55.5l139 158q34 39 86 73zM510 1796
v-616h-202v616h202zM923 1796v-616h-207v616h207zM1332 1796v-616h-207v616h207zM1740 1796v-616h-202v616h202zM1707 344q77 77 113 175.5t21 204.5l-9 43h-193l10 -58q24 -130 -67 -226l-10 -5q-77 -81 -113 -179.5t-22 -204.5l10 -44h192l-9 63q-24 125 67 226zM1298 344
q77 77 113 175.5t17 204.5l-5 43h-192l9 -58q24 -130 -72 -226l-5 -5q-81 -81 -115 -179.5t-19 -204.5l5 -44h197l-10 63q-24 125 67 226z" />
</svg>
