<?xml version="1.0" standalone="no"?>
<!DOCTYPE svg PUBLIC "-//W3C//DTD SVG 1.1//EN" "http://www.w3.org/Graphics/SVG/1.1/DTD/svg11.dtd" >
<svg xmlns="http://www.w3.org/2000/svg" xmlns:xlink="http://www.w3.org/1999/xlink" version="1.1" width="2048" height="2048" viewBox="-10 0 2068 2048">
   <path fill="currentColor"
d="M1664 0q105 0 193 51.5t139.5 139.5t51.5 193v1280q0 105 -51.5 193t-139.5 139.5t-193 51.5h-251v-794h266l40 -309h-306v-197q0 -37 6 -62t22 -46t47.5 -31t78.5 -10l162 -2v-276q-93 -12 -236 -12q-181 0 -290.5 107.5t-109.5 301.5v227h-266v309h266v794h-709
q-105 0 -193 -51.5t-139.5 -139.5t-51.5 -193v-1280q0 -105 51.5 -193t139.5 -139.5t193 -51.5h1280z" />
</svg>
