<?xml version="1.0" standalone="no"?>
<!DOCTYPE svg PUBLIC "-//W3C//DTD SVG 1.1//EN" "http://www.w3.org/Graphics/SVG/1.1/DTD/svg11.dtd" >
<svg xmlns="http://www.w3.org/2000/svg" xmlns:xlink="http://www.w3.org/1999/xlink" version="1.1" width="2048" height="2048" viewBox="-10 0 2068 2048">
   <path fill="currentColor"
d="M1024 151l-1024 923h308v823h1432v-823h308zM1024 743q96 0 163.5 67t67.5 163.5t-67.5 163.5t-163.5 67t-163.5 -67t-67.5 -163.5t67.5 -163.5t163.5 -67zM1024 1382q87 0 187 24q116 29 188 77q87 58 87 130v77h-924v-77q0 -72 87 -130q72 -48 188 -77q100 -24 187 -24
z" />
</svg>
