<?xml version="1.0" standalone="no"?>
<!DOCTYPE svg PUBLIC "-//W3C//DTD SVG 1.1//EN" "http://www.w3.org/Graphics/SVG/1.1/DTD/svg11.dtd" >
<svg xmlns="http://www.w3.org/2000/svg" xmlns:xlink="http://www.w3.org/1999/xlink" version="1.1" width="2048" height="2048" viewBox="-10 0 2058 2048">
   <path fill="currentColor"
d="M873 1178v822h-823v-822h823zM666 1385h-409v408h409v-408zM974 0l562 923h-1125zM974 394l-198 322h395zM1536 1125q192 0 327 134.5t135 327t-135 327t-327 134.5t-327 -134.5t-135 -327t135 -327t327 -134.5zM1536 1332q-106 0 -180.5 74.5t-74.5 180t74.5 182.5
t180.5 77t183 -77t77 -182.5t-77 -180t-183 -74.5z" />
</svg>
