<?xml version="1.0" standalone="no"?>
<!DOCTYPE svg PUBLIC "-//W3C//DTD SVG 1.1//EN" "http://www.w3.org/Graphics/SVG/1.1/DTD/svg11.dtd" >
<svg xmlns="http://www.w3.org/2000/svg" xmlns:xlink="http://www.w3.org/1999/xlink" version="1.1" width="2048" height="2048" viewBox="-10 0 2068 2048">
   <path fill="currentColor"
d="M96 932l187 9q18 -157 96.5 -289.5t204.5 -224.5l-105 -161q-21 -35 -10.5 -72t45.5 -56.5t70 -9t57 45.5l87 166q143 -61 296 -61t296 61l87 -166q22 -35 57 -45.5t70 9t45.5 56.5t-10.5 72l-105 161q126 92 204.5 224.5t96.5 289.5l187 -9q39 0 67.5 26.5t28.5 65.5
t-28.5 65.5t-67.5 26.5l-187 -9q-18 157 -96.5 289.5t-204.5 224.5l105 161q21 35 10.5 72t-45.5 56.5t-70 9t-57 -45.5l-87 -166q-143 61 -296 61t-296 -61l-87 166q-22 35 -57 45.5t-70 -9t-45.5 -56.5t10.5 -72l105 -161q-126 -92 -204.5 -224.5t-96.5 -289.5l-187 9
q-39 0 -67.5 -26.5t-28.5 -65.5t28.5 -65.5t67.5 -26.5zM749 963q22 -83 88 -144l-153 -235q-87 65 -141.5 161t-71.5 205zM1024 745q44 0 83 13l131 -248q-105 -44 -214 -44t-214 44l131 248q39 -13 83 -13zM1299 963l278 -13q-17 -109 -71.5 -205t-141.5 -161l-153 235
q66 61 88 144zM1299 1085q-22 83 -88 144l153 235q87 -65 141.5 -161t71.5 -205zM1024 1303q-44 0 -83 -13l-131 248q105 44 214 44t214 -44l-131 -248q-39 13 -83 13zM749 1085l-278 13q17 109 71.5 205t141.5 161l153 -235q-66 -61 -88 -144z" />
</svg>
