<?xml version="1.0" standalone="no"?>
<!DOCTYPE svg PUBLIC "-//W3C//DTD SVG 1.1//EN" "http://www.w3.org/Graphics/SVG/1.1/DTD/svg11.dtd" >
<svg xmlns="http://www.w3.org/2000/svg" xmlns:xlink="http://www.w3.org/1999/xlink" version="1.1" width="2048" height="2048" viewBox="-10 0 2068 2048">
   <path fill="currentColor"
d="M1024 403q-179 0 -327 87t-235 235.5t-87 326.5h183q0 -126 63 -233t170 -170t233 -63t233 63t170 170t63 233h183q0 -178 -87 -326.5t-235 -235.5t-327 -87zM1116 1266q65 -31 102 -87.5t37 -126.5q0 -96 -67.5 -163.5t-163.5 -67.5t-163.5 67.5t-67.5 163.5
q0 70 37 129t102 85v305l-318 318l131 131l279 -279l279 279l131 -131l-318 -318v-305zM1024 28q-279 0 -514 137.5t-372.5 372.5t-137.5 514h187q0 -226 113.5 -418t305 -305t418.5 -113t418.5 113t305 305t113.5 418h187q0 -279 -137.5 -514t-372.5 -372.5t-514 -137.5z
" />
</svg>
