<?xml version="1.0" standalone="no"?>
<!DOCTYPE svg PUBLIC "-//W3C//DTD SVG 1.1//EN" "http://www.w3.org/Graphics/SVG/1.1/DTD/svg11.dtd" >
<svg xmlns="http://www.w3.org/2000/svg" xmlns:xlink="http://www.w3.org/1999/xlink" version="1.1" width="2048" height="2048" viewBox="-10 0 2068 2048">
   <path fill="currentColor"
d="M1061 950.5q0 -15.5 -10.5 -26t-26.5 -10.5q-76 0 -129.5 54t-53.5 130q0 15 10.5 25.5t26.5 10.5t26 -10.5t10 -25.5q0 -46 32 -78t78 -32q16 0 26.5 -11t10.5 -26.5zM1317 1099.5q0 120.5 -86 206.5t-207 86t-207 -86t-86 -206.5t86 -207t207 -86.5t207 86.5t86 207z
M146 1756h1756v-146h-1756v146zM1463 1099.5q0 -89.5 -35 -170.5t-93.5 -140t-140 -94t-170.5 -35t-170.5 35t-140 94t-93.5 140t-35 170.5t35 170.5t93.5 140t140 93.5t170.5 34.5t170.5 -34.5t140 -93.5t93.5 -140t35 -170.5zM293 366h438v-146h-438v146zM146 586h1756
v-136v-158h-947l-73 146h-736v148zM2048 292v1464q0 60 -42.5 103t-103.5 43h-1756q-61 0 -103.5 -43t-42.5 -103v-1464q0 -60 42.5 -103t103.5 -43h1756q61 0 103.5 43t42.5 103z" />
</svg>
