<?xml version="1.0" standalone="no"?>
<!DOCTYPE svg PUBLIC "-//W3C//DTD SVG 1.1//EN" "http://www.w3.org/Graphics/SVG/1.1/DTD/svg11.dtd" >
<svg xmlns="http://www.w3.org/2000/svg" xmlns:xlink="http://www.w3.org/1999/xlink" version="1.1" width="2048" height="2048" viewBox="-10 0 2068 2048">
   <path fill="currentColor"
d="M2048 1024q0 279 -137.5 514t-372.5 372.5t-514 137.5t-514 -137.5t-372.5 -372.5t-137.5 -514t137.5 -514t372.5 -372.5t514 -137.5t514 137.5t372.5 372.5t137.5 514zM1116 288q148 17 278.5 91t222.5 196l161 -96q-118 -161 -290 -263.5t-372 -119.5v192zM270 479
l161 96q92 -122 222.5 -196t278.5 -91v-192q-200 17 -372 119.5t-290 263.5zM179 1403l161 -91q-61 -140 -61 -288t61 -288l-161 -91q-83 179 -83 379t83 379zM932 1760q-148 -17 -278.5 -91t-222.5 -196l-161 96q118 161 290 263.5t372 119.5v-192zM1778 1569l-161 -96
q-92 122 -222.5 196t-278.5 91v188q200 -22 372 -120t290 -259zM1869 1403q83 -179 83 -379t-83 -379l-161 91q61 140 61 288t-61 288zM1303 1024l-279 -466l-279 466l279 466z" />
</svg>
