<?xml version="1.0" standalone="no"?>
<!DOCTYPE svg PUBLIC "-//W3C//DTD SVG 1.1//EN" "http://www.w3.org/Graphics/SVG/1.1/DTD/svg11.dtd" >
<svg xmlns="http://www.w3.org/2000/svg" xmlns:xlink="http://www.w3.org/1999/xlink" version="1.1" width="2048" height="2048" viewBox="-10 0 2066 2048">
   <path fill="currentColor"
d="M2 230l130 -129l1813 1813l-130 134l-206 -206h-1405q-82 0 -142 -60t-60 -146v-1022q0 -77 50.5 -134.5t127.5 -71.5zM631 0l393 393l393 -393l144 144l-264 264h547q82 0 142 60t60 146v1022q0 52 -24 95l-485 -484v-633h-633l-206 -206h53l-264 -264zM204 614v1022
h1204l-1027 -1022h-177zM1791 614q-43 0 -71.5 28.5t-28.5 72t28.5 74.5t72 31t72 -31t28.5 -74.5t-28.5 -72t-72.5 -28.5zM1791 921q-43 0 -71.5 28.5t-28.5 72t28.5 74.5t72 31t72 -31t28.5 -74.5t-28.5 -72t-72.5 -28.5z" />
</svg>
