<?xml version="1.0" standalone="no"?>
<!DOCTYPE svg PUBLIC "-//W3C//DTD SVG 1.1//EN" "http://www.w3.org/Graphics/SVG/1.1/DTD/svg11.dtd" >
<svg xmlns="http://www.w3.org/2000/svg" xmlns:xlink="http://www.w3.org/1999/xlink" version="1.1" width="2048" height="2048" viewBox="-10 0 2068 2048">
   <path fill="currentColor"
d="M1013 522.5q0 -96.5 -69 -165t-165.5 -68.5t-165 68.5t-68.5 165.5q0 51 24 101q-50 -23 -101 -23q-97 0 -166 68t-69 165t69 165.5t165.5 68.5t165 -68.5t68.5 -165.5q0 -53 -23 -101q51 23 101 23q96 0 165 -68.5t69 -165zM2048 1379q0 21 -59.5 81t-80.5 60
q-11 0 -34.5 -19.5t-44.5 -40.5t-46.5 -48.5t-29.5 -32.5l-117 117l267 268q34 34 34 83q0 51 -47.5 98.5t-98.5 47.5q-48 0 -82 -34l-817 -817q-100 74 -213.5 116.5t-230.5 42.5q-198 0 -323 -124.5t-125 -322.5q0 -98 31.5 -197.5t86.5 -187t132 -164.5t164 -131.5
t187 -86.5t198 -32q198 0 322.5 124.5t124.5 323.5q0 116 -42.5 230.5t-116.5 214.5l432 431l117 -116q-4 -3 -32 -29.5t-48.5 -47t-40 -44.5t-19.5 -35q0 -21 59.5 -80.5t80.5 -59.5q16 0 28 12q7 7 55.5 54t99.5 97t105.5 105t89 94.5t34.5 49.5z" />
</svg>
