<?xml version="1.0" standalone="no"?>
<!DOCTYPE svg PUBLIC "-//W3C//DTD SVG 1.1//EN" "http://www.w3.org/Graphics/SVG/1.1/DTD/svg11.dtd" >
<svg xmlns="http://www.w3.org/2000/svg" xmlns:xlink="http://www.w3.org/1999/xlink" version="1.1" width="2048" height="2048" viewBox="-10 0 2068 2048">
   <path fill="currentColor"
d="M654 976q0 -57 -41.5 -98t-100.5 -41t-98 41t-39 100t39 98.5t98 39.5t100.5 -39.5t41.5 -100.5zM1303 514q0 -61 -41.5 -100t-98.5 -39h-278q-57 0 -98.5 39t-41.5 98t41.5 100.5t98.5 41.5h278q57 0 98.5 -41.5t41.5 -98.5zM697 1303q-56 0 -97.5 41.5t-41.5 98
t41.5 98t100 41.5t98 -41.5t39.5 -98t-39.5 -98t-100.5 -41.5zM1024 0q-279 0 -514 137.5t-372.5 372.5t-137.5 514t137.5 514t372.5 372.5t514 137.5t514 -137.5t372.5 -372.5t137.5 -514t-137.5 -514t-372.5 -372.5t-514 -137.5zM1024 1861q-227 0 -418.5 -113.5
t-305 -305t-113.5 -418.5t113.5 -418.5t305 -305t418.5 -113.5t418.5 113.5t305 305t113.5 418.5t-113.5 418.5t-305 305t-418.5 113.5zM1534 837q-57 0 -98.5 41t-41.5 100t41.5 98.5t100.5 39.5t98 -39.5t39 -98.5t-39 -100t-100 -41zM1351 1303q-61 0 -100.5 41.5
t-39.5 98t39.5 98t98 41.5t100 -41.5t41.5 -98t-41.5 -98t-97.5 -41.5z" />
</svg>
