<?xml version="1.0" standalone="no"?>
<!DOCTYPE svg PUBLIC "-//W3C//DTD SVG 1.1//EN" "http://www.w3.org/Graphics/SVG/1.1/DTD/svg11.dtd" >
<svg xmlns="http://www.w3.org/2000/svg" xmlns:xlink="http://www.w3.org/1999/xlink" version="1.1" width="2048" height="2048" viewBox="-10 0 2058 2048">
   <path fill="currentColor"
d="M1740 2048h-1432v-202h1432v202zM1553 639q168 217 187 486q0 139 -96 257t-259.5 187.5t-360.5 69.5t-360.5 -69.5t-259.5 -187.5t-96 -257q0 -125 74.5 -291t194.5 -296q139 -149 288 -206q-48 -53 -48 -130q0 -82 60 -142t147 -60t147 60t60 142q0 77 -48 130
q134 53 235 154l-466 466l144 144z" />
</svg>
