<?xml version="1.0" standalone="no"?>
<!DOCTYPE svg PUBLIC "-//W3C//DTD SVG 1.1//EN" "http://www.w3.org/Graphics/SVG/1.1/DTD/svg11.dtd" >
<svg xmlns="http://www.w3.org/2000/svg" xmlns:xlink="http://www.w3.org/1999/xlink" version="1.1" width="2048" height="2048" viewBox="-10 0 2068 2048">
   <path fill="currentColor"
d="M1051 1q-72 0 -122.5 55t-50.5 127q5 38 19 72l29 67q5 10 0 19.5t-17 14t-26 -9.5l-43 -58q-53 -71 -139 -71q-77 0 -130 50t-55 119.5t41 122.5l43 53q14 24 -2.5 36t-31.5 2l-57 -43q-53 -43 -122.5 -40.5t-120 55t-50.5 129.5q0 86 72 139l58 43q9 10 9 19.5t-12 19
t-26 5.5l-62 -29q-39 -15 -72 -19q-72 0 -127.5 50t-55.5 127q0 53 29 101t77 67l1166 518l470 -470l-518 -1166q-19 -48 -67 -79t-106 -26zM1137 418q34 0 60.5 17t40.5 45l312 701l-408 -403l-91 -216q-24 -48 5 -96t81 -48zM802 701q43 0 71 29l495 494q28 29 30.5 69.5
t-28.5 72t-74.5 31.5t-71.5 -29l-494 -494q-29 -29 -29 -72t28.5 -72t72.5 -29zM523 1042q19 0 39 9l216 96l403 403l-701 -312q-48 -24 -57.5 -72t19 -88.5t81.5 -35.5zM1871 1435l-436 437l86 86q58 58 137 79.5t158 0t139 -81.5t81.5 -139.5t0 -158.5t-78.5 -137z" />
</svg>
