<?xml version="1.0" standalone="no"?>
<!DOCTYPE svg PUBLIC "-//W3C//DTD SVG 1.1//EN" "http://www.w3.org/Graphics/SVG/1.1/DTD/svg11.dtd" >
<svg xmlns="http://www.w3.org/2000/svg" xmlns:xlink="http://www.w3.org/1999/xlink" version="1.1" width="2048" height="2048" viewBox="-10 0 2066 2048">
   <path fill="currentColor"
d="M1844 0q-38 0 -72 29l-973 973l-264 360l-331 336l-29 -34q-34 -28 -74.5 -28t-69.5 28.5t-29 71.5t29 72l206 206q29 34 70 34t72 -29t31 -72t-29 -76l-33 -29l331 -331l364 -264l974 -974q29 -28 29 -71.5t-29 -72.5l-101 -100q-33 -29 -72 -29zM1691 1122
q-106 0 -182.5 77t-76.5 182.5t76.5 180t182 74.5t180 -74.5t74.5 -180t-74.5 -182.5t-179.5 -77z" />
</svg>
