<?xml version="1.0" standalone="no"?>
<!DOCTYPE svg PUBLIC "-//W3C//DTD SVG 1.1//EN" "http://www.w3.org/Graphics/SVG/1.1/DTD/svg11.dtd" >
<svg xmlns="http://www.w3.org/2000/svg" xmlns:xlink="http://www.w3.org/1999/xlink" version="1.1" width="2048" height="2048" viewBox="-10 0 2068 2048">
   <path fill="currentColor"
d="M956 1024q0 -113 -80.5 -193.5t-193 -80.5t-192.5 80.5t-80 193.5t80 193t192.5 80t193 -80t80.5 -193zM1775 1570q0 -56 -40.5 -96.5t-96.5 -40.5t-96 40.5t-40 96.5q0 57 40 96.5t96 39.5q57 0 97 -40t40 -96zM1775 477q0 -56 -40.5 -96t-96.5 -40t-96 40t-40 96
q0 57 40 97t96 40q57 0 97 -40.5t40 -96.5zM1366 927v197q0 11 -7 20.5t-18 11.5l-166 26q-11 38 -33 81q38 55 96 122q7 11 7 22q0 13 -7 20q-24 33 -88 96t-84 63q-12 0 -22 -8l-124 -96q-38 20 -82 33q-12 123 -24 166q-8 25 -32 25h-199q-11 0 -20.5 -8t-10.5 -19
l-25 -162q-36 -11 -80 -34l-126 95q-7 8 -21 8q-13 0 -23 -8q-25 -24 -53.5 -51t-64 -66.5t-35.5 -53.5q0 -10 8 -21q3 -4 39 -50t54 -71q-25 -49 -37 -88l-163 -25q-11 -1 -18 -10t-7 -21v-198q0 -11 7 -20.5t17 -11.5l165 -26q10 -32 35 -80q-42 -60 -96 -123
q-8 -11 -8 -22q0 -12 8 -21q24 -32 87.5 -95t84.5 -63q12 0 22 8l123 96q37 -19 82 -34q13 -121 25 -164q8 -26 31 -26h199q12 0 21.5 8t10.5 19l24 163q41 12 81 33l126 -95q8 -8 21 -8t22 9q25 21 54 49.5t64 68t35 52.5q0 10 -7 21q-14 19 -45 59t-47 62q25 53 36 88
l162 24q11 2 18.5 12t7.5 21zM2048 1495v150q0 10 -59 19.5t-100 12.5q-13 32 -31 56q54 125 54 147q0 4 -5 7q-2 1 -36.5 22t-63.5 37.5t-32 16.5q-9 0 -50 -50.5t-54 -71.5q-21 2 -33 2q-11 0 -32 -2q-13 21 -54 71.5t-50 50.5q-3 0 -31.5 -16.5t-64.5 -37.5t-37 -22
q-3 -2 -3 -7q0 -22 54 -147q-19 -24 -32 -56q-40 -3 -99.5 -12.5t-59.5 -19.5v-150q0 -10 60.5 -20t98.5 -13q14 -32 32 -55q-54 -125 -54 -148q0 -5 3 -7q5 -3 38 -22t62.5 -36t32.5 -17q9 0 50 50.5t54 70.5q21 -1 32 -1q12 0 33 1q53 -74 98 -119l6 -2q2 0 14.5 7
t31 17.5t36 20.5t32.5 19t18 11q5 3 5 7q0 23 -54 148q18 23 31 55q38 3 98.5 13t60.5 20zM2048 402v150q0 10 -60.5 20t-98.5 13q-12 30 -31 55q54 125 54 148q0 4 -5 7q-2 1 -36.5 22t-63.5 37.5t-32 16.5q-9 0 -50 -51t-54 -71q-21 1 -33 1q-11 0 -32 -1q-13 20 -54 71
t-50 51q-3 0 -31.5 -16.5t-64.5 -37.5t-37 -22q-3 -2 -3 -7q0 -23 54 -148q-20 -25 -32 -55q-38 -3 -98.5 -13t-60.5 -20v-150q0 -10 59.5 -19.5t99.5 -12.5q14 -32 32 -55q-54 -125 -54 -148q0 -5 3 -7q5 -3 38 -22t62.5 -36t32.5 -17q9 0 50 50.5t54 70.5q21 -2 32 -2
q12 0 33 2q53 -74 98 -119l6 -2q2 0 14.5 7t31 17.5t36 20.5t32.5 19t18 11q5 3 5 7q0 23 -54 148q18 23 31 55q41 3 100 12.5t59 19.5z" />
</svg>
