<?xml version="1.0" standalone="no"?>
<!DOCTYPE svg PUBLIC "-//W3C//DTD SVG 1.1//EN" "http://www.w3.org/Graphics/SVG/1.1/DTD/svg11.dtd" >
<svg xmlns="http://www.w3.org/2000/svg" xmlns:xlink="http://www.w3.org/1999/xlink" version="1.1" width="2048" height="2048" viewBox="-10 0 2068 2048">
   <path fill="currentColor"
d="M229 0q-96 0 -162.5 66.5t-66.5 162.5v1590q0 96 66.5 162.5t162.5 66.5h1590q96 0 162.5 -66.5t66.5 -162.5v-1590q0 -96 -66.5 -162.5t-162.5 -66.5h-1590zM453 683h342q53 0 85 34.5t32 77.5v570h-171v-170h-229v170h-171v-570q0 -43 32 -77.5t80 -34.5zM1136 683h400
q75 0 123 48t48 122v112q0 54 -29.5 96.5t-72.5 63.5l102 240h-171l-96 -229h-133v229h-171v-682zM512 853v171h229v-171h-229zM1307 853v112h229v-112h-229z" />
</svg>
