<?xml version="1.0" standalone="no"?>
<!DOCTYPE svg PUBLIC "-//W3C//DTD SVG 1.1//EN" "http://www.w3.org/Graphics/SVG/1.1/DTD/svg11.dtd" >
<svg xmlns="http://www.w3.org/2000/svg" xmlns:xlink="http://www.w3.org/1999/xlink" version="1.1" width="2048" height="2048" viewBox="-10 0 2068 2048">
   <path fill="currentColor"
d="M1024 0q-187 0 -358 62.5t-310 182.5q67 53 134 140l111 -68l106 183l-106 58q91 173 111 365h105v202h-105q-20 192 -111 365l106 58l-106 183l-111 -68q-67 87 -134 140q139 120 310 182.5t358 62.5t358 -62.5t310 -182.5q-62 -48 -134 -140l-111 68l-106 -183l106 -58
q-91 -173 -111 -365h-105v-202h105q20 -192 111 -365l-106 -58l106 -183l111 68q72 -92 134 -140q-139 -120 -310 -182.5t-358 -62.5zM216 394q-105 135 -160.5 296t-55.5 334t55.5 334t160.5 296q44 -34 96 -96l-62 -34l101 -178l72 43q63 -125 82 -264h-96v-202h96
q-19 -139 -82 -264l-72 43l-101 -178l62 -34q-52 -62 -96 -96zM1832 394q-44 34 -96 96l62 34l-101 178l-72 -43q-63 125 -82 264h96v202h-96q19 139 82 264l72 -43l101 178l-62 34q52 62 96 96q105 -135 160.5 -296t55.5 -334t-55.5 -334t-160.5 -296z" />
</svg>
