<?xml version="1.0" standalone="no"?>
<!DOCTYPE svg PUBLIC "-//W3C//DTD SVG 1.1//EN" "http://www.w3.org/Graphics/SVG/1.1/DTD/svg11.dtd" >
<svg xmlns="http://www.w3.org/2000/svg" xmlns:xlink="http://www.w3.org/1999/xlink" version="1.1" width="2048" height="2048" viewBox="-10 0 2068 2048">
   <path fill="currentColor"
d="M1024 536q118 0 198.5 80.5t80.5 198t-80.5 198.5t-198.5 81t-198.5 -81t-80.5 -198.5t80.5 -198t198.5 -80.5zM1024 118q340 0 619 191.5t405 505.5q-109 279 -340 459.5t-520.5 224.5t-564.5 -65q-213 -83 -374.5 -244.5t-248.5 -374.5q126 -314 405 -505.5t619 -191.5
zM205 815q109 222 311.5 357t444.5 152.5t464 -91.5q139 -65 246 -174t172 -244q-109 -222 -311.5 -357.5t-444.5 -152.5t-464 92q-139 65 -246 174t-172 244zM745 1743h-187v187h187v-187zM1116 1743h-184v187h184v-187zM1490 1743h-187v187h187v-187z" />
</svg>
