<?xml version="1.0" standalone="no"?>
<!DOCTYPE svg PUBLIC "-//W3C//DTD SVG 1.1//EN" "http://www.w3.org/Graphics/SVG/1.1/DTD/svg11.dtd" >
<svg xmlns="http://www.w3.org/2000/svg" xmlns:xlink="http://www.w3.org/1999/xlink" version="1.1" width="2048" height="2048" viewBox="-10 0 2068 2048">
   <path fill="currentColor"
d="M1609 804q0 119 -63.5 227.5t-171 187t-256.5 124.5t-313 46q-97 0 -202 -18q-142 101 -317 146q-40 11 -99 19h-3q-13 0 -24 -9.5t-13 -23.5q-1 -4 -1 -8t0.5 -7t2.5 -6.5t3 -6t4 -6.5t4 -5.5t5 -6t5 -5.5q5 -5 26.5 -28t30 -34t25 -32.5t29 -44t23.5 -50.5
q-141 -81 -222.5 -201.5t-81.5 -257.5q0 -119 63.5 -227t171.5 -186.5t257 -125t313 -46.5t313 46.5t256.5 125t171 186.5t63.5 227zM2048 1097q0 137 -81 256.5t-223 201.5q11 28 23 50.5t29.5 45t25 32t30.5 34.5t26 28q1 2 5.5 6.5t5.5 6.5t5 6.5t4 6.5t2.5 7.5t1.5 8
t-1 8.5q-4 16 -15 25.5t-25 7.5q-68 -10 -99 -18q-175 -45 -317 -146q-105 18 -202 18q-153 0 -291.5 -39.5t-247.5 -111.5q83 5 101 5q184 0 352.5 -51t301.5 -148q143 -104 219.5 -241.5t76.5 -291.5q0 -87 -26 -173q148 82 233.5 204t85.5 262z" />
</svg>
