<?xml version="1.0" standalone="no"?>
<!DOCTYPE svg PUBLIC "-//W3C//DTD SVG 1.1//EN" "http://www.w3.org/Graphics/SVG/1.1/DTD/svg11.dtd" >
<svg xmlns="http://www.w3.org/2000/svg" xmlns:xlink="http://www.w3.org/1999/xlink" version="1.1" width="2048" height="2048" viewBox="-10 0 2068 2048">
   <path fill="currentColor"
d="M817 50v207q212 0 308 5q120 10 178 34q72 33 158 163h-1153v207h1500l-77 -149q-87 -168 -159 -260q-82 -101 -187 -144q-92 -43 -222 -58q-86 -5 -293 -5h-53zM409 873q-173 0 -291 117.5t-118 290.5v308q0 173 118 291t291 118h1230q173 0 291 -118t118 -291v-308
q0 -173 -118 -290.5t-291 -117.5h-1230z" />
</svg>
