<?xml version="1.0" standalone="no"?>
<!DOCTYPE svg PUBLIC "-//W3C//DTD SVG 1.1//EN" "http://www.w3.org/Graphics/SVG/1.1/DTD/svg11.dtd" >
<svg xmlns="http://www.w3.org/2000/svg" xmlns:xlink="http://www.w3.org/1999/xlink" version="1.1" width="2048" height="2048" viewBox="-10 0 2068 2048">
   <path fill="currentColor"
d="M1024 187q-344 0 -623 194t-401 504q122 309 401 503t623 194q65 0 100 -5q-8 -48 -8 -91.5t8 -95.5q-65 4 -100 4q-261 0 -483.5 -137t-335.5 -372q113 -236 335.5 -373t483.5 -137t483.5 137t335.5 373l-35 65q96 22 175 74q39 -74 65 -139q-122 -310 -401 -504
t-623 -194zM1024 606q-118 0 -198.5 80.5t-80.5 198t80.5 198t198.5 80.5t198.5 -80.5t80.5 -198t-80.5 -198t-198.5 -80.5zM1582 1116v278h-279v188h279v279h187v-279h279v-188h-279v-278h-187z" />
</svg>
