<?xml version="1.0" standalone="no"?>
<!DOCTYPE svg PUBLIC "-//W3C//DTD SVG 1.1//EN" "http://www.w3.org/Graphics/SVG/1.1/DTD/svg11.dtd" >
<svg xmlns="http://www.w3.org/2000/svg" xmlns:xlink="http://www.w3.org/1999/xlink" version="1.1" width="2048" height="2048" viewBox="-10 0 2068 2048">
   <path fill="currentColor"
d="M1024 50l-1024 745l389 1203h1270l389 -1203zM1513 1806h-978l-306 -937l795 -581l795 581zM1513 1390v123h-521v-110l87 -91q105 -105 169 -187q91 -115 91 -165t-27 -78q-18 -23 -50 -27h-23q-50 0 -84.5 36.5t-34.5 86.5h-151q5 -105 85 -178t189 -69q156 0 215 96
q32 51 32 128q0 110 -155 284q-78 87 -156 151h334zM878 1513h-156v-599l-187 60v-128l324 -115h19v782z" />
</svg>
