<?xml version="1.0" standalone="no"?>
<!DOCTYPE svg PUBLIC "-//W3C//DTD SVG 1.1//EN" "http://www.w3.org/Graphics/SVG/1.1/DTD/svg11.dtd" >
<svg xmlns="http://www.w3.org/2000/svg" xmlns:xlink="http://www.w3.org/1999/xlink" version="1.1" width="2048" height="2048" viewBox="-10 0 2068 2048">
   <path fill="currentColor"
d="M2029 846v-5q-63 -43 -168 -43q-39 0 -87 10q-10 -92 -77 -164q-34 -33 -67 -53l-29 -19l-19 29q-44 58 -53 120q-29 125 33 226q-33 19 -86 29q-39 10 -63 10h-1351q-28 0 -45 19t-17 43q0 188 58 346q67 183 206 269q154 97 452 97q125 0 250 -24q173 -29 327 -116
q125 -77 221 -187q125 -140 217 -375h19q144 0 231 -87q38 -34 62 -86l5 -24zM187 947h183q15 0 15 -19v-159q0 -19 -15 -19h-183q-14 0 -14 19v159q0 19 14 19zM437 947h183q15 0 15 -19v-159q0 -19 -15 -19h-183q-14 0 -14 19v159q0 19 14 19zM692 947h178q19 0 19 -19
v-159q0 -19 -19 -19h-178q-19 0 -19 19v159q0 19 19 19zM942 947h178q19 0 19 -19v-159q0 -19 -19 -19h-178q-14 0 -14 19v159q0 19 14 19zM437 716h183q5 0 10 -4.5t5 -14.5v-159q0 -19 -15 -19h-183q-14 0 -14 19v159q0 19 14 19zM692 716h178q19 0 19 -19v-159
q0 -19 -19 -19h-178q-19 0 -19 19v159q0 19 19 19zM942 716h178q19 0 19 -19v-159q0 -19 -19 -19h-178q-14 0 -14 19v159q0 19 14 19zM942 481h178q19 0 19 -15v-158q0 -20 -19 -20h-178q-14 0 -14 20v158q0 15 14 15zM1192 947h183q14 0 14 -19v-159q0 -19 -14 -19h-183
q-14 0 -14 19v159q0 19 14 19z" />
</svg>
