<?xml version="1.0" standalone="no"?>
<!DOCTYPE svg PUBLIC "-//W3C//DTD SVG 1.1//EN" "http://www.w3.org/Graphics/SVG/1.1/DTD/svg11.dtd" >
<svg xmlns="http://www.w3.org/2000/svg" xmlns:xlink="http://www.w3.org/1999/xlink" version="1.1" width="2048" height="2048" viewBox="-10 0 2058 2048">
   <path fill="currentColor"
d="M1605 984q-94 -94 -215 -123.5t-244.5 2.5t-215.5 123.5t-124 213t0 242.5t126 215q119 114 282.5 134t306.5 -69l327 326l148 -148l-326 -327q89 -143 69 -306.5t-134 -282.5zM1452 1504q-74 79 -183 79t-188 -76.5t-79 -185.5t79 -188t188 -79t185.5 79t76.5 188
t-79 183zM784 1806q-109 -109 -158 -248q-253 -39 -413.5 -150.5t-160.5 -244.5v316q0 114 113.5 210.5t309 153.5t423.5 57q-64 -45 -114 -94zM52 633v317q0 133 146 239.5t383 151.5v-20q0 -149 60 -287q-258 -40 -423.5 -151t-165.5 -250zM898 0q-228 0 -423.5 57
t-309 153.5t-113.5 209.5q0 104 96.5 195.5t262 151t363.5 79.5h10q94 -104 220 -158.5t267 -54.5t275 60q79 -40 133.5 -111.5t64.5 -161.5q0 -113 -114 -209.5t-309.5 -153.5t-422.5 -57z" />
</svg>
