<?xml version="1.0" standalone="no"?>
<!DOCTYPE svg PUBLIC "-//W3C//DTD SVG 1.1//EN" "http://www.w3.org/Graphics/SVG/1.1/DTD/svg11.dtd" >
<svg xmlns="http://www.w3.org/2000/svg" xmlns:xlink="http://www.w3.org/1999/xlink" version="1.1" width="2048" height="2048" viewBox="-10 0 2058 2048">
   <path fill="currentColor"
d="M1231 1332q0 86 -60 146t-147 60t-147 -60t-60 -146.5t60 -146.5t147 -60t147 60t60 147zM1639 202v1644q0 82 -60 142t-146 60h-818q-86 0 -146 -60t-60 -142v-1644q0 -82 60 -142t146 -60h818q86 0 146 60t60 142zM870 510q0 67 46 110t108 43t108 -43t46 -108
t-46 -110.5t-108 -45.5t-108 45.5t-46 108.5zM1433 817h-818v1029h818v-1029z" />
</svg>
