<?xml version="1.0" standalone="no"?>
<!DOCTYPE svg PUBLIC "-//W3C//DTD SVG 1.1//EN" "http://www.w3.org/Graphics/SVG/1.1/DTD/svg11.dtd" >
<svg xmlns="http://www.w3.org/2000/svg" xmlns:xlink="http://www.w3.org/1999/xlink" version="1.1" width="2048" height="2048" viewBox="-10 0 2068 2048">
   <path fill="currentColor"
d="M1606 202h-346l-178 413l-24 48q-20 39 -34 73l-236 -534h-346l419 909l72 163l235 514q29 53 92 53l480 5v-413h-408l-145 -322zM1846 1433v413h202v-308q0 -43 -26.5 -74t-74.5 -31h-101zM308 1433v413l480 -5q63 0 92 -53l86 -202l-163 -350l-87 197h-408zM0 1846h202
v-413h-101q-48 0 -74.5 31t-26.5 74v308z" />
</svg>
