<?xml version="1.0" standalone="no"?>
<!DOCTYPE svg PUBLIC "-//W3C//DTD SVG 1.1//EN" "http://www.w3.org/Graphics/SVG/1.1/DTD/svg11.dtd" >
<svg xmlns="http://www.w3.org/2000/svg" xmlns:xlink="http://www.w3.org/1999/xlink" version="1.1" width="2048" height="2048" viewBox="-10 0 2068 2048">
   <path fill="currentColor"
d="M197 0q-83 0 -140 57t-57 140v1362q0 82 57 139t140 57h886q-9 -50 -9 -96q0 -100 32 -196h-909l338 -439l247 293l338 -439l219 288q147 -92 320 -92q46 0 96 9v-886q0 -83 -57 -140t-139 -57h-1362zM1559 1266v293h-293v196h293v293h196v-293h293v-196h-293v-293h-196z
" />
</svg>
