<?xml version="1.0" standalone="no"?>
<!DOCTYPE svg PUBLIC "-//W3C//DTD SVG 1.1//EN" "http://www.w3.org/Graphics/SVG/1.1/DTD/svg11.dtd" >
<svg xmlns="http://www.w3.org/2000/svg" xmlns:xlink="http://www.w3.org/1999/xlink" version="1.1" width="2048" height="2048" viewBox="-10 0 2058 2048">
   <path fill="currentColor"
d="M394 1654.5q0 -32.5 -23.5 -56t-56 -23.5t-55.5 23.5t-23 56t23 55.5t55.5 23t56 -23t23.5 -55.5zM1812 945q0 -63 -47.5 -110t-109.5 -47h-433q0 -49 18 -102.5t40 -94.5t40.5 -95t18.5 -103q0 -47 -4 -80.5t-16.5 -64.5t-34 -49.5t-57 -30t-85.5 -11.5q-21 22 -34.5 59
t-21 79t-17 85.5t-30.5 90t-54 81.5q-16 16 -31 33.5t-36 43.5t-28 35q-3 4 -28 37t-39.5 50.5t-42.5 51.5t-49.5 54.5t-47.5 43t-49.5 33.5t-43.5 11h-38v788h38q17 0 39.5 4t40 8t47.5 13.5t42 14t44.5 16t35.5 12.5q126 43 224.5 66.5t196.5 23.5h149q111 0 174 -49.5
t63 -156.5q0 -24 -6 -69q37 -20 58 -64.5t21 -90.5q0 -48 -21 -85q65 -62 65 -147q0 -31 -12.5 -68t-31.5 -58q27 0 49.5 -31t33 -66.5t10.5 -60.5zM1969 944q0 110 -60 200q12 42 12 85q0 96 -48 178q5 34 5 53q0 124 -75 218q2 172 -104 271t-279 99h-45h-115
q-118 0 -234.5 -28t-264.5 -80q-4 -1 -35.5 -12t-51.5 -17.5t-46 -13t-38 -6.5h-354q-66 0 -111.5 -46t-45.5 -112v-788q0 -66 45.5 -111.5t111.5 -45.5h337q51 -34 169 -191q72 -93 132 -157q20 -22 32.5 -59.5t20 -79.5t17.5 -86.5t32 -90t56 -79.5q47 -45 110 -45
q104 0 187 40t125 125q26 52 34.5 104.5t8.5 123.5q0 113 -59 237h217q83 0 156 42.5t115.5 115t42.5 156.5z" />
</svg>
