<?xml version="1.0" standalone="no"?>
<!DOCTYPE svg PUBLIC "-//W3C//DTD SVG 1.1//EN" "http://www.w3.org/Graphics/SVG/1.1/DTD/svg11.dtd" >
<svg xmlns="http://www.w3.org/2000/svg" xmlns:xlink="http://www.w3.org/1999/xlink" version="1.1" width="2048" height="2048" viewBox="-10 0 2068 2048">
   <path fill="currentColor"
d="M1024 0q202 0 392 77t334 221t221 334t77 392t-77 392t-221 334t-334 221t-392 77t-392 -77t-334 -221t-221 -334t-77 -392t77 -392t221 -334t334 -221t392 -77zM1024 202q-221 0 -411 110.5t-300.5 300.5t-110.5 411q0 183 72 341.5t207 273.5q106 -101 247.5 -153.5
t295.5 -52.5q308 0 543 206q135 -115 207 -273.5t72 -341.5q0 -221 -110.5 -411t-300.5 -300.5t-411 -110.5zM817 399q29 0 55.5 17t40.5 50l140 351q58 10 98.5 46t64.5 84q29 82 -4.5 159t-113 108t-156.5 -2.5t-110 -110.5q-20 -53 -10 -106t43 -96l-144 -361
q-19 -38 -2 -76.5t60 -57.5q14 -5 38 -5zM1231 409q43 0 72 28.5t29 72t-29 74.5t-72.5 31t-74.5 -31t-31 -74.5t31 -72t75 -28.5zM1538 716q44 0 72.5 29t28.5 72.5t-28.5 74.5t-72 31t-74.5 -31t-31 -74.5t31 -72.5t74 -29zM510 716q43 0 74 29t31 72.5t-31 74.5t-74.5 31
t-72 -31t-28.5 -74.5t28.5 -72.5t72.5 -29z" />
</svg>
