<?xml version="1.0" standalone="no"?>
<!DOCTYPE svg PUBLIC "-//W3C//DTD SVG 1.1//EN" "http://www.w3.org/Graphics/SVG/1.1/DTD/svg11.dtd" >
<svg xmlns="http://www.w3.org/2000/svg" xmlns:xlink="http://www.w3.org/1999/xlink" version="1.1" width="2048" height="2048" viewBox="-10 0 2068 2048">
   <path fill="currentColor"
d="M2001 856q-102 88 -232 109t-255.5 -23t-212 -146.5t-107 -235t23.5 -255.5t146 -207l51 -37q-125 134 -132 322.5t114 333t307 170t344 -72.5zM1825 1261q-154 130 -349 165t-381 -32.5t-316.5 -223.5t-163 -349t32.5 -381.5t219 -318.5l93 -65q-117 135 -161 307
t-7 348.5t156 316.5t284 207t344 55.5t328 -104.5zM1713 1744q-218 186 -490.5 232.5t-535 -48.5t-444 -311.5t-228 -491t46.5 -535t312 -441.5l111 -79q-172 186 -237 430t-14 493t218.5 449t405 295.5t488.5 74.5t465 -161z" />
</svg>
