<?xml version="1.0" standalone="no"?>
<!DOCTYPE svg PUBLIC "-//W3C//DTD SVG 1.1//EN" "http://www.w3.org/Graphics/SVG/1.1/DTD/svg11.dtd" >
<svg xmlns="http://www.w3.org/2000/svg" xmlns:xlink="http://www.w3.org/1999/xlink" version="1.1" width="2048" height="2048" viewBox="-10 0 2068 2048">
   <path fill="currentColor"
d="M1822 1375q72 -168 72 -351t-72 -351l-279 130q43 106 43 221t-43 221zM1375 226q-168 -72 -351 -72t-351 72l130 279q106 -43 221 -43t226 43zM226 673q-72 168 -72 351t72 351l279 -130q-43 -106 -43 -221t43 -226zM673 1822q168 72 351 72t351 -72l-125 -279
q-111 43 -226 43t-221 -43zM1024 0q202 0 392 77t334 221t221 334t77 392t-77 392t-221 334t-334 221t-392 77t-392 -77t-334 -221t-221 -334t-77 -392t77 -392t221 -334t334 -221t392 -77zM1024 615q-168 0 -288.5 120.5t-120.5 288.5t120.5 288.5t288.5 120.5
t288.5 -120.5t120.5 -288.5t-120.5 -288.5t-288.5 -120.5z" />
</svg>
