<?xml version="1.0" standalone="no"?>
<!DOCTYPE svg PUBLIC "-//W3C//DTD SVG 1.1//EN" "http://www.w3.org/Graphics/SVG/1.1/DTD/svg11.dtd" >
<svg xmlns="http://www.w3.org/2000/svg" xmlns:xlink="http://www.w3.org/1999/xlink" version="1.1" width="2048" height="2048" viewBox="-10 0 2066 2048">
   <path fill="currentColor"
d="M103 1228v-1022q0 -86 60 -146t146 -60h614l202 206h614q86 0 146 60t60 142v820q0 86 -60 146t-146 60h-614v202h105q43 0 72 31t29 74h715v201h-715q0 44 -29 75t-72 31h-412q-43 0 -72 -31t-29 -75h-715v-201h715q0 -43 29 -74t72 -31h105v-202h-614q-86 0 -146 -60
t-60 -146z" />
</svg>
