<?xml version="1.0" standalone="no"?>
<!DOCTYPE svg PUBLIC "-//W3C//DTD SVG 1.1//EN" "http://www.w3.org/Graphics/SVG/1.1/DTD/svg11.dtd" >
<svg xmlns="http://www.w3.org/2000/svg" xmlns:xlink="http://www.w3.org/1999/xlink" version="1.1" width="2048" height="2048" viewBox="-10 0 2068 2048">
   <path fill="currentColor"
d="M229 0h1590q96 0 162.5 66.5t66.5 162.5v1590q0 96 -66.5 162.5t-162.5 66.5h-1590q-96 0 -162.5 -66.5t-66.5 -162.5v-1590q0 -96 66.5 -162.5t162.5 -66.5zM597 1365h171l112 -389v389h171v-682h-256l-112 389l-112 -389h-256v682h170v-389zM1195 683v682h170v-229h134
l96 229h170l-106 -240q48 -21 77 -63.5t29 -96.5v-112q0 -74 -50.5 -122t-119.5 -48h-400zM1365 853h230v112h-230v-112z" />
</svg>
