<?xml version="1.0" standalone="no"?>
<!DOCTYPE svg PUBLIC "-//W3C//DTD SVG 1.1//EN" "http://www.w3.org/Graphics/SVG/1.1/DTD/svg11.dtd" >
<svg xmlns="http://www.w3.org/2000/svg" xmlns:xlink="http://www.w3.org/1999/xlink" version="1.1" width="2048" height="2048" viewBox="-10 0 2068 2048">
   <path fill="currentColor"
d="M1024 0q202 0 392 77t334 221t221 334t77 392t-77 392t-221 334t-334 221t-392 77t-392 -77t-334 -221t-221 -334t-77 -392t77 -392t221 -334t334 -221t392 -77zM1024 202q-221 0 -411 110.5t-300.5 300.5t-110.5 411q0 183 72 341.5t207 273.5q106 -101 247.5 -153.5
t295.5 -52.5q308 0 543 206q135 -115 207 -273.5t72 -341.5q0 -221 -110.5 -411t-300.5 -300.5t-411 -110.5zM1231 409q43 0 72 28.5t29 72t-29 74.5t-72.5 31t-74.5 -31t-31 -74.5t31 -72t75 -28.5zM817 409q44 0 75 28.5t31 72t-31 74.5t-74.5 31t-72.5 -31t-29 -74.5
t29 -72t72 -28.5zM500 712q14 0 38 4l361 149q43 -33 98.5 -43t103.5 15q77 28 110.5 107.5t2.5 156.5t-110.5 110.5t-156.5 -0.5q-53 -19 -86.5 -62t-43.5 -96l-355 -144q-39 -15 -56 -56t-2 -79q14 -29 40.5 -45.5t55.5 -16.5zM1538 716q44 0 72.5 29t28.5 72.5
t-28.5 74.5t-72 31t-74.5 -31t-31 -74.5t31 -72.5t74 -29z" />
</svg>
