<?xml version="1.0" standalone="no"?>
<!DOCTYPE svg PUBLIC "-//W3C//DTD SVG 1.1//EN" "http://www.w3.org/Graphics/SVG/1.1/DTD/svg11.dtd" >
<svg xmlns="http://www.w3.org/2000/svg" xmlns:xlink="http://www.w3.org/1999/xlink" version="1.1" width="2048" height="2048" viewBox="-10 0 2058 2048">
   <path fill="currentColor"
d="M1024 0l-837 375v557q0 253 109 488.5t301 401t427 226.5q235 -61 427 -226.5t301 -401t109 -488.5v-557zM1024 375q118 0 198.5 80.5t80.5 196t-80.5 198t-198.5 82.5t-198.5 -82.5t-80.5 -198t80.5 -196t198.5 -80.5zM1499 1490q-83 127 -205 220.5t-270 141.5
q-148 -48 -270 -141.5t-205 -220.5q-52 -74 -83 -144q0 -74 76.5 -139t202.5 -102t279 -37t279 37t202.5 100t76.5 141q-31 70 -83 144z" />
</svg>
