<?xml version="1.0" standalone="no"?>
<!DOCTYPE svg PUBLIC "-//W3C//DTD SVG 1.1//EN" "http://www.w3.org/Graphics/SVG/1.1/DTD/svg11.dtd" >
<svg xmlns="http://www.w3.org/2000/svg" xmlns:xlink="http://www.w3.org/1999/xlink" version="1.1" width="2048" height="2048" viewBox="-10 0 2058 2048">
   <path fill="currentColor"
d="M395 394q0 -32 -24 -56t-56 -24t-55.5 24t-23.5 56t23.5 55.5t55.5 23.5t56 -23.5t24 -55.5zM1812 1103q0 -26 -10.5 -61t-33 -65.5t-49.5 -31.5q19 -21 31 -58t12 -69q0 -85 -64 -146q21 -37 21 -85q0 -46 -21.5 -90.5t-58.5 -64.5q7 -45 7 -69q0 -105 -60.5 -155.5
t-167.5 -50.5h-158q-98 0 -195.5 23.5t-225.5 67.5q-4 1 -26.5 9t-31.5 11t-31 11t-34.5 11.5t-33 9t-34 8t-29.5 4.5t-28 2h-39v789h39q20 0 43.5 11t49 33t47.5 43t49.5 54.5t42.5 52.5t39 51t28 37q8 9 28.5 35t35.5 43.5t31 33.5q33 35 54 81t30.5 89.5t17 85t20.5 78.5
t35 59q50 0 85.5 -11.5t57 -30t34 -49.5t16.5 -64.5t4 -80.5q0 -49 -18.5 -103t-40.5 -94.5t-40 -94.5t-18 -102h432q63 0 110.5 -47.5t47.5 -109.5zM1969 1104q0 83 -43 155.5t-115.5 115t-156.5 42.5h-216q59 124 59 237q0 70 -8.5 123.5t-34.5 104.5q-43 85 -126 125.5
t-186 40.5q-62 0 -110 -46q-34 -34 -56 -79.5t-32 -90t-18 -86.5t-20.5 -80t-31.5 -59q-58 -62 -132 -157q-118 -157 -169 -190h-337q-65 0 -111 -46t-46 -111v-789q0 -65 46 -111t111 -46h355q12 0 37.5 -6.5t45.5 -13t51.5 -17.5t35.5 -12q157 -55 274 -81.5t247 -26.5
h138q171 0 277.5 96.5t105.5 266.5v6q74 94 74 219q0 18 -4 53q47 81 47 177q0 43 -11 85q60 90 60 201z" />
</svg>
