<?xml version="1.0" standalone="no"?>
<!DOCTYPE svg PUBLIC "-//W3C//DTD SVG 1.1//EN" "http://www.w3.org/Graphics/SVG/1.1/DTD/svg11.dtd" >
<svg xmlns="http://www.w3.org/2000/svg" xmlns:xlink="http://www.w3.org/1999/xlink" version="1.1" width="2048" height="2048" viewBox="-10 0 2069 2048">
   <path fill="currentColor"
d="M1615 502q-61 0 -174 35l-5 4q-48 -87 -132.5 -137t-184.5 -50q-74 0 -141.5 30.5t-120.5 78.5q-56 -70 -139 -113.5t-174 -43.5q-109 0 -200.5 52t-148 143.5t-56.5 196.5q0 52 35 161l4 8q-78 44 -128 122.5t-50 173.5q0 140 100 242t240 102q52 0 74 -9
q26 109 121.5 176.5t217.5 67.5t213.5 -63t126.5 -163q91 39 139 39q91 0 169.5 -45.5t121.5 -119.5q27 4 83 4q118 0 220 -59t161 -161t61 -224t-54.5 -226.5t-156.5 -163t-222 -58.5z" />
</svg>
