<?xml version="1.0" standalone="no"?>
<!DOCTYPE svg PUBLIC "-//W3C//DTD SVG 1.1//EN" "http://www.w3.org/Graphics/SVG/1.1/DTD/svg11.dtd" >
<svg xmlns="http://www.w3.org/2000/svg" xmlns:xlink="http://www.w3.org/1999/xlink" version="1.1" width="2048" height="2048" viewBox="-10 0 2058 2048">
   <path fill="currentColor"
d="M1806 1856q-206 0 -393 -133q-179 128 -389 128t-389 -128q-187 133 -393 133h-192v192h192q201 0 393 -96q183 96 389 96t389 -96q192 96 393 96h192v-192h-192zM1806 293v-96q0 -42 -30 -69t-71 -27h-974v-101h-292v101h-96v192h96v877h-96v-192h-197v192h-96v197h96
v388h96q46 0 101 -4v-384h484v356q96 28 197 28v-384h96v-197h-96v-192h-197v192h-96v-877h782v452q-36 14 -59 43.5t-23 66.5q0 68 59 105v114h64q23 0 41.5 18.5t18.5 43.5t-18.5 41t-48 16t-48.5 -27q-13 -23 -36 -30t-43.5 7t-27.5 36.5t2 45.5q28 41 69 66.5t91 25.5
q73 0 126 -53t53 -130q0 -55 -34.5 -103t-84.5 -66v-5q59 -37 59 -105.5t-64 -100.5v-461h197zM635 1042l-100 96v-137l100 -100v141zM635 754l-100 96v-137l100 -96v137zM535 558v-137l100 -96v137z" />
</svg>
