<?xml version="1.0" standalone="no"?>
<!DOCTYPE svg PUBLIC "-//W3C//DTD SVG 1.1//EN" "http://www.w3.org/Graphics/SVG/1.1/DTD/svg11.dtd" >
<svg xmlns="http://www.w3.org/2000/svg" xmlns:xlink="http://www.w3.org/1999/xlink" version="1.1" width="2048" height="2048" viewBox="-10 0 2068 2048">
   <path fill="currentColor"
d="M229 0q-96 0 -162.5 66.5t-66.5 162.5v1590q0 96 66.5 162.5t162.5 66.5h1590q96 0 162.5 -66.5t66.5 -162.5v-1590q0 -96 -66.5 -162.5t-162.5 -66.5h-1590zM1024 229q267 0 475 160l-246 246q-106 -64 -229 -64q-187 0 -320 133t-133 320t133 320l-245 245
q-107 -112 -168.5 -258.5t-61.5 -306.5q0 -219 107 -400t288 -288t400 -107zM1659 549q160 208 160 475q0 160 -61.5 306.5t-168.5 258.5l-245 -245q133 -133 133 -320q0 -123 -64 -229z" />
</svg>
