<?xml version="1.0" standalone="no"?>
<!DOCTYPE svg PUBLIC "-//W3C//DTD SVG 1.1//EN" "http://www.w3.org/Graphics/SVG/1.1/DTD/svg11.dtd" >
<svg xmlns="http://www.w3.org/2000/svg" xmlns:xlink="http://www.w3.org/1999/xlink" version="1.1" width="2048" height="2048" viewBox="-10 0 2068 2048">
   <path fill="currentColor"
d="M308 202v745q-140 48 -224 168.5t-84 269.5q0 192 134.5 326.5t327.5 134.5q173 0 305 -117.5t151 -295.5h433q-19 53 -19 105q0 125 89 216.5t218.5 91.5t218.5 -91.5t89 -216.5q0 -52 -19 -105h120v-308q0 -82 -60 -142t-142 -60h-510l-144 -721h-884zM510 409h514
l101 514v308h-231q-43 -125 -146.5 -207t-237.5 -101v-514zM462 1154q96 0 163 67t67 163.5t-67 163.5t-163.5 67t-163.5 -67t-67 -163.5t67 -163.5t164 -67zM1639 1385q63 0 108.5 43t45.5 108t-45.5 110.5t-108 45.5t-108 -45.5t-45.5 -110.5t45.5 -108t107.5 -43z" />
</svg>
