<?xml version="1.0" standalone="no"?>
<!DOCTYPE svg PUBLIC "-//W3C//DTD SVG 1.1//EN" "http://www.w3.org/Graphics/SVG/1.1/DTD/svg11.dtd" >
<svg xmlns="http://www.w3.org/2000/svg" xmlns:xlink="http://www.w3.org/1999/xlink" version="1.1" width="2048" height="2048" viewBox="-10 0 2068 2048">
   <path fill="currentColor"
d="M1024 0q277 0 512 122.5t373.5 330.5t138.5 451t-192 525q-171 251 -416 435t-416 184t-416 -184t-416 -435q-192 -282 -192 -525t138.5 -451t373.5 -330.5t512 -122.5zM832 901q-85 -138 -221 -191.5t-240 10.5t-117.5 210.5t74.5 285.5t224 192t240 -11t114.5 -210.5
t-74.5 -285.5zM1216 901q-85 139 -74.5 285.5t114.5 210.5t240 11t224 -192t74.5 -285.5t-117.5 -210.5t-240 -10.5t-221 191.5zM1024 1680q-144 0 -229 -43q-43 -21 -54 -42q0 10 22 58q32 70 85 107q75 59 176 59t176 -59q53 -43 85 -107l22 -58l-22 21q-32 27 -85 43
q-75 21 -176 21z" />
</svg>
