<?xml version="1.0" standalone="no"?>
<!DOCTYPE svg PUBLIC "-//W3C//DTD SVG 1.1//EN" "http://www.w3.org/Graphics/SVG/1.1/DTD/svg11.dtd" >
<svg xmlns="http://www.w3.org/2000/svg" xmlns:xlink="http://www.w3.org/1999/xlink" version="1.1" width="2048" height="2048" viewBox="-10 0 2058 2048">
   <path fill="currentColor"
d="M1332 490q144 82 225.5 226.5t81.5 307.5q0 288 -129 500q-106 183 -303 303q-159 101 -366 159q-149 38 -303 57l-129 5q192 -144 341 -337l10 -14q19 -38 7 -79t-51 -60q-144 -82 -225.5 -226.5t-81.5 -307.5q0 -288 129 -500q106 -183 303 -303q159 -101 366 -159
q149 -38 303 -57l129 -5q-192 144 -341 337l-10 14q-19 38 -7 79t51 60zM1024 1231q87 0 147 -60t60 -147t-60 -147t-147 -60t-147 60t-60 147t60 147t147 60z" />
</svg>
