<?xml version="1.0" standalone="no"?>
<!DOCTYPE svg PUBLIC "-//W3C//DTD SVG 1.1//EN" "http://www.w3.org/Graphics/SVG/1.1/DTD/svg11.dtd" >
<svg xmlns="http://www.w3.org/2000/svg" xmlns:xlink="http://www.w3.org/1999/xlink" version="1.1" width="2048" height="2048" viewBox="-10 0 2058 2048">
   <path fill="currentColor"
d="M1032 940h424l-212 -216l120 -120l420 420l-420 420l-120 -120l212 -216h-424v-168zM520 0h680l72 428h16q32 0 64 12l-156 156h-764v856h764l156 156q-32 12 -64 12h-16l-72 428h-680l-72 -428h-16q-68 0 -118 -50t-50 -118v-856q0 -68 50 -118t118 -50h16z" />
</svg>
