<?xml version="1.0" standalone="no"?>
<!DOCTYPE svg PUBLIC "-//W3C//DTD SVG 1.1//EN" "http://www.w3.org/Graphics/SVG/1.1/DTD/svg11.dtd" >
<svg xmlns="http://www.w3.org/2000/svg" xmlns:xlink="http://www.w3.org/1999/xlink" version="1.1" width="2048" height="2048" viewBox="-10 0 2068 2048">
   <path fill="currentColor"
d="M1495 96q-31 0 -53 13l-1015 588h370l737 -431q35 -18 43.5 -55t-8.5 -72q-26 -43 -74 -43zM1394 654v183h-1207q-78 0 -132.5 54.5t-54.5 132.5h96v279h-96v370h187q0 118 81 198.5t198.5 80.5t198 -80.5t80.5 -198.5h558q0 118 80.5 198.5t198 80.5t198.5 -80.5
t81 -198.5h187v-601l-327 -418h-327zM1582 793h91l236 279v91h-327v-370zM279 1024h279v279h-279v-279zM745 1024h279v279h-279v-279zM1211 1024h183v279h-183v-279zM466 1534q57 0 98.5 41.5t41.5 100t-41.5 98t-98 39.5t-98 -39.5t-41.5 -98t41.5 -100t97.5 -41.5z
M1582 1534q56 0 97.5 41.5t41.5 100t-41.5 98t-98 39.5t-98 -39.5t-41.5 -98t41.5 -100t98.5 -41.5z" />
</svg>
