<?xml version="1.0" standalone="no"?>
<!DOCTYPE svg PUBLIC "-//W3C//DTD SVG 1.1//EN" "http://www.w3.org/Graphics/SVG/1.1/DTD/svg11.dtd" >
<svg xmlns="http://www.w3.org/2000/svg" xmlns:xlink="http://www.w3.org/1999/xlink" version="1.1" width="2048" height="2048" viewBox="-10 0 2068 2048">
   <path fill="currentColor"
d="M1876 1920v-172q-100 4 -176 -12q-92 -20 -164 -72q-112 80 -256 80t-256 -80q-112 80 -256 80t-256 -80q-72 52 -164 72q-76 16 -176 12v172q216 8 340 -64q116 64 256 64t256 -64q116 64 256 64t256 -64q124 72 340 64zM1996 1424q-304 -124 -660 -168l316 -712
l112 -40l112 -256l-272 -120l-112 252l44 112l-144 316l-240 128l-212 -108q-8 -8 -24 -12q-56 -24 -114 8t-78 92l-116 356q-28 -12 -272 60q-212 64 -256 84l-80 32q176 72 336 120q92 -28 176 -120q64 80 160 110t192 0t160 -110q64 80 160 110t192 0t160 -110
q84 92 176 120l248 -84l88 -36zM1200 1244q-84 -8 -256 -8l60 -184l148 80l128 -72zM1196 596q0 72 -50 122t-122 50t-122 -50t-50 -122t50 -122t122 -50t122 50t50 122z" />
</svg>
