<?xml version="1.0" standalone="no"?>
<!DOCTYPE svg PUBLIC "-//W3C//DTD SVG 1.1//EN" "http://www.w3.org/Graphics/SVG/1.1/DTD/svg11.dtd" >
<svg xmlns="http://www.w3.org/2000/svg" xmlns:xlink="http://www.w3.org/1999/xlink" version="1.1" width="2048" height="2048" viewBox="-10 0 2068 2048">
   <path fill="currentColor"
d="M202 202q-82 0 -142 60t-60 147v1230q0 87 60 147t142 60h1644q82 0 142 -60t60 -147v-1024q0 -86 -60 -146t-142 -60h-822l-207 -207h-615zM923 817q96 0 175.5 58t108.5 149h639v207h-207v202h-206v-202h-226q-29 91 -108.5 146.5t-175.5 55.5q-135 0 -221.5 -86.5
t-86.5 -219t86.5 -221.5t221.5 -89zM923 1024q-48 0 -77 29t-29 74.5t29 74.5t74.5 29t74.5 -29t29 -74.5t-29 -74.5t-72 -29z" />
</svg>
