<?xml version="1.0" standalone="no"?>
<!DOCTYPE svg PUBLIC "-//W3C//DTD SVG 1.1//EN" "http://www.w3.org/Graphics/SVG/1.1/DTD/svg11.dtd" >
<svg xmlns="http://www.w3.org/2000/svg" xmlns:xlink="http://www.w3.org/1999/xlink" version="1.1" width="2048" height="2048" viewBox="-10 0 2068 2048">
   <path fill="currentColor"
d="M1902 682q0 -93 -24.5 -164t-63 -112.5t-93 -68t-107 -36t-112.5 -9.5t-128 29t-126 73t-99.5 83t-68.5 71q-20 24 -56 24t-56 -24q-27 -32 -68.5 -71t-99.5 -83t-126 -73t-128 -29t-112.5 9.5t-107 36t-93 68t-63 112.5t-24.5 164q0 57 22 119.5t49 107t63.5 89.5
t51.5 61t28 27l664 640l663 -638h1q13 -12 28.5 -28t52 -61.5t63 -90t48.5 -107t22 -119.5zM2048 682q0 53 -13.5 109.5t-33 102t-48 92.5t-51.5 78t-51 63t-39.5 43.5t-23.5 22.5q-2 2 -2 3l-712 686q-20 20 -50 20t-50 -20l-713 -688q-12 -11 -31.5 -31t-63.5 -74
t-78 -111t-61 -138.5t-27 -157.5q0 -252 145 -394t401 -142q71 0 144.5 25t137.5 66.5t109.5 78.5t86.5 78q41 -41 86.5 -78t109.5 -78.5t137.5 -66.5t144.5 -25q256 0 401 142t145 394z" />
</svg>
