<?xml version="1.0" standalone="no"?>
<!DOCTYPE svg PUBLIC "-//W3C//DTD SVG 1.1//EN" "http://www.w3.org/Graphics/SVG/1.1/DTD/svg11.dtd" >
<svg xmlns="http://www.w3.org/2000/svg" xmlns:xlink="http://www.w3.org/1999/xlink" version="1.1" width="2048" height="2048" viewBox="-10 0 2068 2048">
   <path fill="currentColor"
d="M835 1734q0 6 1.5 27t1 34.5t-3.5 30t-13 25.5t-27 9h-418q-156 0 -266 -110t-110 -266v-920q0 -156 110 -266t266 -110h418q16 0 28.5 13t12.5 29q0 6 1.5 26.5t1 34t-3.5 30t-13 25.5t-27 9h-418q-87 0 -148 61t-61 148v920q0 87 61 148t148 61h376h14.5h17t15 1t15 4
l10.5 7t8.5 11.5t2.5 17.5zM2048 1025q0 33 -25 58l-710 711q-24 24 -59 24t-59.5 -24.5t-24.5 -59.5v-376h-585q-34 0 -58.5 -24.5t-24.5 -58.5v-502q0 -34 24.5 -58.5t58.5 -24.5h585v-376q0 -35 24.5 -59.5t59.5 -24.5t59 24l710 711q25 25 25 60z" />
</svg>
