<?xml version="1.0" standalone="no"?>
<!DOCTYPE svg PUBLIC "-//W3C//DTD SVG 1.1//EN" "http://www.w3.org/Graphics/SVG/1.1/DTD/svg11.dtd" >
<svg xmlns="http://www.w3.org/2000/svg" xmlns:xlink="http://www.w3.org/1999/xlink" version="1.1" width="2048" height="2048" viewBox="-10 0 2068 2048">
   <path fill="currentColor"
d="M122 1747l133 55v-881l-239 574q-32 73 0 149t106 103zM2032 1384l-487 -1170q-23 -56 -71 -88t-103 -32q-46 0 -78 14l-726 298q-50 23 -82.5 71.5t-36.5 103.5q0 37 13 78l492 1171q18 60 68.5 92t105.5 32q42 0 78 -14l721 -298q74 -33 106 -108.5t0 -149.5zM645 682
q-41 0 -68.5 -30t-27.5 -71t27.5 -69t68.5 -28t69 30t28 69t-28 69t-69 30zM448 1756q0 83 57.5 140.5t139.5 57.5h143l-340 -817v619z" />
</svg>
