<?xml version="1.0" standalone="no"?>
<!DOCTYPE svg PUBLIC "-//W3C//DTD SVG 1.1//EN" "http://www.w3.org/Graphics/SVG/1.1/DTD/svg11.dtd" >
<svg xmlns="http://www.w3.org/2000/svg" xmlns:xlink="http://www.w3.org/1999/xlink" version="1.1" width="2048" height="2048" viewBox="-10 0 2068 2048">
   <path fill="currentColor"
d="M870 308q-173 0 -334 64.5t-283.5 187.5t-187.5 284t-65 334t65 334t187.5 283.5t283.5 187.5t334 65t334 -65t284 -187.5t187.5 -283.5t64.5 -334t-64.5 -334t-187.5 -284t-284 -187.5t-334 -64.5zM1178 1125q-106 0 -180.5 -74.5t-74.5 -180.5t74.5 -180.5t180.5 -74.5
t180.5 74.5t74.5 180.5t-74.5 180.5t-180.5 74.5zM1793 0q-106 0 -180.5 74.5t-74.5 180.5t74.5 180.5t180.5 74.5t180.5 -74.5t74.5 -180.5t-74.5 -180.5t-180.5 -74.5z" />
</svg>
