<?xml version="1.0" standalone="no"?>
<!DOCTYPE svg PUBLIC "-//W3C//DTD SVG 1.1//EN" "http://www.w3.org/Graphics/SVG/1.1/DTD/svg11.dtd" >
<svg xmlns="http://www.w3.org/2000/svg" xmlns:xlink="http://www.w3.org/1999/xlink" version="1.1" width="2048" height="2048" viewBox="-10 0 2058 2048">
   <path fill="currentColor"
d="M1024 615q168 0 288.5 120.5t120.5 288.5t-120.5 288.5t-288.5 120.5t-288.5 -120.5t-120.5 -288.5t120.5 -288.5t288.5 -120.5zM1024 817q-87 0 -147 60t-60 147t60 147t147 60t147 -60t60 -147t-60 -147t-147 -60zM817 2048q-19 0 -33.5 -12t-14.5 -31l-38 -269
q-87 -34 -173 -101l-255 101q-19 9 -38.5 2t-24.5 -22l-206 -355q-10 -20 -7.5 -36.5t16.5 -31.5l217 -168l-5 -101l5 -101l-217 -168q-14 -15 -16.5 -31.5t7.5 -36.5l206 -355q5 -15 24.5 -22t38.5 2l255 101q86 -67 173 -101l38 -269q0 -19 14.5 -31t33.5 -12h414
q19 0 33.5 12t14.5 31l38 269q87 34 173 101l255 -101q19 -9 38.5 -2t24.5 22l206 355q10 20 7.5 36.5t-16.5 31.5l-217 168l5 101l-5 101l217 168q14 15 16.5 31.5t-7.5 36.5l-206 355q-5 15 -24.5 22t-38.5 -2l-255 -101q-86 67 -173 101l-38 269q0 19 -14.5 31t-33.5 12
h-414zM947 202l-38 269q-188 39 -313 183l-245 -106l-77 135l216 158q-62 183 0 366l-216 163l77 130l250 -106q125 144 308 183l38 269h154l38 -269q183 -39 308 -183l250 106l77 -130l-216 -159q62 -187 0 -370l216 -158l-77 -135l-245 106q-125 -144 -313 -183l-38 -269
h-154z" />
</svg>
