<?xml version="1.0" standalone="no"?>
<!DOCTYPE svg PUBLIC "-//W3C//DTD SVG 1.1//EN" "http://www.w3.org/Graphics/SVG/1.1/DTD/svg11.dtd" >
<svg xmlns="http://www.w3.org/2000/svg" xmlns:xlink="http://www.w3.org/1999/xlink" version="1.1" width="2048" height="2048" viewBox="-10 0 2068 2048">
   <path fill="currentColor"
d="M0 255v207h202v-207h-202zM1846 255v207h202v-207h-202zM0 562v207h202v-207h-202zM308 562v207h202v-207h-202zM1231 562v207h202v-207h-202zM1538 562v207h202v-207h-202zM1846 562v207h202v-207h-202zM0 870v207h202v-207h-202zM308 870v207h202v-207h-202zM615 870
v207h202v-207h-202zM923 870v207h202v-207h-202zM1231 870v207h202v-207h-202zM1538 870v207h202v-207h-202zM1846 870v207h202v-207h-202zM0 1178v207h202v-207h-202zM308 1178v207h202v-207h-202zM615 1178v207h202v-207h-202zM923 1178v207h202v-207h-202zM1231 1178v207
h202v-207h-202zM1538 1178v207h202v-207h-202zM1846 1178v207h202v-207h-202zM308 1591v202h202v-202h-202zM615 1591v202h202v-202h-202zM923 1591v202h202v-202h-202zM1231 1591v202h202v-202h-202zM1538 1591v202h202v-202h-202z" />
</svg>
