<?xml version="1.0" standalone="no"?>
<!DOCTYPE svg PUBLIC "-//W3C//DTD SVG 1.1//EN" "http://www.w3.org/Graphics/SVG/1.1/DTD/svg11.dtd" >
<svg xmlns="http://www.w3.org/2000/svg" xmlns:xlink="http://www.w3.org/1999/xlink" version="1.1" width="2048" height="2048" viewBox="-10 0 2068 2048">
   <path fill="currentColor"
d="M1819 571v-342h-1590v342h454q0 138 98.5 239.5t242.5 101.5t242.5 -101.5t98.5 -239.5h454zM1819 0q96 0 162.5 66.5t66.5 162.5v795q0 96 -66.5 162.5t-162.5 66.5h-1590q-96 0 -162.5 -66.5t-66.5 -162.5v-795q0 -96 66.5 -162.5t162.5 -66.5h1590zM0 1365h683
q0 144 98.5 243t242.5 99t242.5 -99t98.5 -243h683v454q0 96 -66.5 162.5t-162.5 66.5h-1590q-96 0 -162.5 -66.5t-66.5 -162.5v-454z" />
</svg>
