<?xml version="1.0" standalone="no"?>
<!DOCTYPE svg PUBLIC "-//W3C//DTD SVG 1.1//EN" "http://www.w3.org/Graphics/SVG/1.1/DTD/svg11.dtd" >
<svg xmlns="http://www.w3.org/2000/svg" xmlns:xlink="http://www.w3.org/1999/xlink" version="1.1" width="2048" height="2048" viewBox="-10 0 2068 2048">
   <path fill="currentColor"
d="M1024 0q-19 48 -53 135q-115 278 -197 452q135 134 264 230q-187 -77 -293 -168q-211 437 -745 1399q255 -144 437 -226q202 -86 375 -120q-19 -72 -19 -140v-9q5 -159 77 -262.5t168.5 -96t161 125t60.5 271.5q0 63 -10 111q163 34 365 120q183 82 433 226l-173 -317
l-43 -39q-159 -130 -313 -206q173 43 284 110q-337 -630 -491 -947q-101 -212 -235 -524z" />
</svg>
