<?xml version="1.0" standalone="no"?>
<!DOCTYPE svg PUBLIC "-//W3C//DTD SVG 1.1//EN" "http://www.w3.org/Graphics/SVG/1.1/DTD/svg11.dtd" >
<svg xmlns="http://www.w3.org/2000/svg" xmlns:xlink="http://www.w3.org/1999/xlink" version="1.1" width="2048" height="2048" viewBox="-10 0 2068 2048">
   <path fill="currentColor"
d="M0 466l139 140l-139 139l139 140l-139 139l139 139l-139 140h1303q0 118 80.5 198.5t198 80.5t198.5 -80.5t81 -198.5h187v-279q0 -78 -54.5 -132.5t-132.5 -54.5h-188l-279 -371h-1394zM340 606h545v231h-593l-92 -92zM1024 606h327l178 231h-505v-231zM1582 1163
q56 0 97.5 41.5t41.5 98.5t-41.5 98t-98 41t-98 -41t-41.5 -98t41.5 -98.5t98.5 -41.5z" />
</svg>
