<?xml version="1.0" standalone="no"?>
<!DOCTYPE svg PUBLIC "-//W3C//DTD SVG 1.1//EN" "http://www.w3.org/Graphics/SVG/1.1/DTD/svg11.dtd" >
<svg xmlns="http://www.w3.org/2000/svg" xmlns:xlink="http://www.w3.org/1999/xlink" version="1.1" width="2048" height="2048" viewBox="-10 0 2068 2048">
   <path fill="currentColor"
d="M202 308h308l206 -207h616l206 207h308q82 0 142 60t60 142v1230q0 87 -60 147t-142 60h-1644q-82 0 -142 -60t-60 -147v-1230q0 -82 60 -142t142 -60zM1433 1538v-105q0 -92 -154 -154q-125 -48 -255 -48t-255 48q-154 62 -154 154v105h818zM1024 716q-87 0 -147 60.5
t-60 144.5t60 144t147 60t147 -60t60 -144t-60 -144.5t-147 -60.5z" />
</svg>
