<?xml version="1.0" standalone="no"?>
<!DOCTYPE svg PUBLIC "-//W3C//DTD SVG 1.1//EN" "http://www.w3.org/Graphics/SVG/1.1/DTD/svg11.dtd" >
<svg xmlns="http://www.w3.org/2000/svg" xmlns:xlink="http://www.w3.org/1999/xlink" version="1.1" width="2048" height="2048" viewBox="-10 0 2068 2048">
   <path fill="currentColor"
d="M510 0q-145 0 -270 91q-110 82 -175 224t-65 300.5t62.5 346t139.5 269.5q29 24 58 110q19 53 62 188q77 250 125 351q82 168 168 168q130 0 202 -72q58 -63 82 -178q14 -72 24 -216q10 -130 24 -178q24 -72 77 -72t77 72q14 48 24 178q10 144 24 216q24 115 82 178
q72 72 202 72q86 0 168 -168q48 -101 125 -351q43 -135 62 -188q29 -86 58 -110q77 -82 139.5 -269.5t62.5 -346t-65 -300.5t-175 -224q-125 -91 -270 -91q-115 0 -197 19q-48 10 -120 39q-53 24 -82 29q-53 14 -115 14t-115 -14q-29 -5 -82 -29q-72 -29 -120 -39
q-82 -19 -197 -19z" />
</svg>
