<?xml version="1.0" standalone="no"?>
<!DOCTYPE svg PUBLIC "-//W3C//DTD SVG 1.1//EN" "http://www.w3.org/Graphics/SVG/1.1/DTD/svg11.dtd" >
<svg xmlns="http://www.w3.org/2000/svg" xmlns:xlink="http://www.w3.org/1999/xlink" version="1.1" width="2048" height="2048" viewBox="-10 0 2068 2048">
   <path fill="currentColor"
d="M316 1715h308v-926h-308v926zM644 504q-1 -70 -47.5 -115t-123.5 -45q-78 0 -126.5 45.5t-48.5 114.5q0 68 47 114t123 46h1q79 0 127 -46t48 -114zM1425 1715h308v-531q0 -103 -26.5 -183.5t-75 -131t-112.5 -76t-141 -25.5q-59 0 -107 14.5t-81 40.5t-53 49t-38 52h3
v-135h-308q3 89 0 926h308v-518q0 -52 9 -74q19 -47 59.5 -79.5t99.5 -32.5q79 0 117 55.5t38 154.5v494zM2048 384v1280q0 105 -51.5 193t-139.5 139.5t-193 51.5h-1280q-105 0 -193 -51.5t-139.5 -139.5t-51.5 -193v-1280q0 -105 51.5 -193t139.5 -139.5t193 -51.5h1280
q105 0 193 51.5t139.5 139.5t51.5 193z" />
</svg>
