<?xml version="1.0" standalone="no"?>
<!DOCTYPE svg PUBLIC "-//W3C//DTD SVG 1.1//EN" "http://www.w3.org/Graphics/SVG/1.1/DTD/svg11.dtd" >
<svg xmlns="http://www.w3.org/2000/svg" xmlns:xlink="http://www.w3.org/1999/xlink" version="1.1" width="2048" height="2048" viewBox="-10 0 2068 2048">
   <path fill="currentColor"
d="M119 662q-51 0 -85 36.5t-34 82.5v215q0 45 34 82t85 37h300v90h-419v181h481q51 0 85 -36.5t34 -82.5v-215q0 -45 -34 -82t-85 -37h-300v-90h419v-181h-481zM843 662q-51 0 -85 36.5t-34 82.5v215q0 45 34 82t85 37h300v90h-419v181h481q51 0 85 -36.5t34 -82.5v-215
q0 -45 -34 -82t-85 -37h-300v-90h419v-181h-481zM1448 662v724h181v-300h238v300h181v-724h-181v243h-238v-243h-181z" />
</svg>
