<?xml version="1.0" standalone="no"?>
<!DOCTYPE svg PUBLIC "-//W3C//DTD SVG 1.1//EN" "http://www.w3.org/Graphics/SVG/1.1/DTD/svg11.dtd" >
<svg xmlns="http://www.w3.org/2000/svg" xmlns:xlink="http://www.w3.org/1999/xlink" version="1.1" width="2048" height="2048" viewBox="-10 0 2068 2048">
   <path fill="currentColor"
d="M1024 0q-202 0 -392 77t-334 221t-221 334t-77 392t77 392t221 334t334 221t392 77t392 -77t334 -221t221 -334t77 -392q0 -178 -62 -346l-164 163q24 92 24 183q0 221 -110.5 411t-300.5 300.5t-411 110.5t-411 -110.5t-300.5 -300.5t-110.5 -411t110.5 -411
t300.5 -300.5t411 -110.5q91 0 183 24l168 -168q-173 -58 -351 -58zM1740 0l-408 409v153l-260 260q-19 -5 -48 -5q-87 0 -147 60t-60 147t60 147t147 60t147 -60t60 -147q0 -29 -5 -48l260 -260h153l409 -408h-308v-308zM1024 409q-168 0 -310 81.5t-223.5 223.5t-81.5 310
t81.5 310t223.5 223.5t310 81.5t310 -81.5t223.5 -223.5t81.5 -310h-206q0 168 -120.5 288.5t-288.5 120.5t-288.5 -120.5t-120.5 -288.5t120.5 -288.5t288.5 -120.5v-206z" />
</svg>
