<?xml version="1.0" standalone="no"?>
<!DOCTYPE svg PUBLIC "-//W3C//DTD SVG 1.1//EN" "http://www.w3.org/Graphics/SVG/1.1/DTD/svg11.dtd" >
<svg xmlns="http://www.w3.org/2000/svg" xmlns:xlink="http://www.w3.org/1999/xlink" version="1.1" width="2048" height="2048" viewBox="-10 0 2068 2048">
   <path fill="currentColor"
d="M1442 279v396l266 157l-70 114l-335 -201v-466h139zM1394 1116q192 0 329.5 -135.5t137.5 -327t-137.5 -329t-329 -137.5t-327 137.5t-135.5 329t135.5 327t326.5 135.5zM1163 1673q61 0 100.5 -41.5t39.5 -98t-39.5 -98t-100.5 -41.5t-100 41.5t-39 98t39 98t100 41.5z
M187 1116h754q-196 -188 -196 -462h-558v462zM327 1673q61 0 100 -41.5t39 -98t-39 -98t-100 -41.5t-100.5 41.5t-39.5 98t39.5 98t100.5 41.5zM1394 0q275 0 464.5 189.5t189.5 464.5q0 244 -161 424.5t-397 215.5v288q0 117 -96 205v165q0 35 -26 65.5t-65 30.5h-92
q-39 0 -67 -28.5t-28 -67.5v-91h-741v91q0 39 -28.5 67.5t-67.5 28.5h-92q-39 0 -65 -30.5t-26 -65.5v-165q-96 -88 -96 -205v-928q0 -223 189.5 -299t555.5 -76h57l56 4q197 -283 536 -283z" />
</svg>
