<?xml version="1.0" standalone="no"?>
<!DOCTYPE svg PUBLIC "-//W3C//DTD SVG 1.1//EN" "http://www.w3.org/Graphics/SVG/1.1/DTD/svg11.dtd" >
<svg xmlns="http://www.w3.org/2000/svg" xmlns:xlink="http://www.w3.org/1999/xlink" version="1.1" width="2048" height="2048" viewBox="-10 0 2058 2048">
   <path fill="currentColor"
d="M1353 1605q101 0 169.5 -71t68.5 -169.5t-68.5 -169t-169 -70.5t-169.5 70.5t-69 169t69 169.5t169 71zM1861 1431l146 114q23 18 4 41l-132 238q-18 23 -46 14l-169 -69q-50 41 -114 69l-28 178q0 14 -9 23t-23 9h-274q-27 0 -32 -32l-27 -178q-60 -28 -115 -69l-169 69
q-14 4 -25 -0.5t-16 -13.5l-137 -238q-14 -23 9 -41l142 -114l-5 -69l5 -64l-142 -114q-23 -18 -9 -46l137 -233q5 -14 16 -18.5t25 0.5l169 73q60 -46 115 -69l27 -182q5 -28 32 -28h274q14 0 23 9t9 19l28 182q59 23 114 69l169 -73q28 -9 46 18l132 233q19 28 -4 46
l-146 114l4 64zM457 590q64 0 107.5 -43.5t43.5 -107.5t-43.5 -110t-107.5 -46t-109.5 46t-45.5 110t45.5 107.5t109.5 43.5zM782 480l96 73q9 14 0 28l-87 150q-9 19 -28 10l-109 -42l-69 42l-18 118q-5 19 -23 19h-174q-23 0 -23 -19l-18 -118l-73 -42l-110 42
q-18 9 -27 -10l-87 -150q-9 -14 5 -28l91 -73v-41v-46l-91 -73q-14 -9 -5 -27l87 -151q9 -19 27 -9l110 41l73 -41l18 -115q0 -18 23 -18h174q18 0 23 18l18 115l69 41l109 -41q19 -10 28 9l87 151q9 18 0 27l-96 73l4 46z" />
</svg>
