<?xml version="1.0" standalone="no"?>
<!DOCTYPE svg PUBLIC "-//W3C//DTD SVG 1.1//EN" "http://www.w3.org/Graphics/SVG/1.1/DTD/svg11.dtd" >
<svg xmlns="http://www.w3.org/2000/svg" xmlns:xlink="http://www.w3.org/1999/xlink" version="1.1" width="2048" height="2048" viewBox="-10 0 2058 2048">
   <path fill="currentColor"
d="M1657 874l-23 37q18 -50 18 -161v-69l-9 -4q-5 -129 -101 -263q-92 -124 -203 -175q-87 -41 -207 -48t-184 25q5 -4 28 -11t18 -12q-55 5 -83 14l-46 23q-37 23 -78 37q-9 9 0 9l41 -9l-18 14q-14 4 -44 6.5t-48 7.5q-32 18 -74 59q5 5 23 -4l10 -5l-14 19
q-56 -5 -157 92q-87 87 -124 147l18 4q-13 33 -43 88t-30 83l-9 73q-14 120 -14 175q0 92 27 129l-4 51l23 46h-14q18 60 32 76t32.5 16t27.5 14q23 23 46 83q-23 -10 -37 -33q-4 14 12 46.5t39 59.5l-9 14q9 23 32 41l9 10q-32 -19 -5 27q14 28 60 83l14 18l9 -18
q-4 32 51 101h32q9 19 37 42t46 27l-18 23q32 10 52.5 26t62.5 30l-19 -28l37 37q41 41 82.5 57t90 25.5t85.5 18.5q-157 0 -212 -23q-193 -51 -363.5 -207.5t-266.5 -367.5q-102 -226 -88 -456q-5 -37 0 -124q0 -97 -5 -111v-9q47 -156 97 -258v0q14 14 37 -23l14 -32
q18 -55 32 -78h14q4 -28 41 -74q28 -23 83 -73q41 -37 55 -51v14q69 -65 267 -147l55 -23q-9 13 0 13l37 -9q42 -9 65 -9l-51 28q32 -10 62 -3t62 3q-50 4 -46 13q33 5 72 -4t76 4l-5 -18l74 23q73 18 138 55q13 0 27 -4q33 -10 65 4l4 9q5 19 56 51q9 -5 -19 -32l-4 -5
q101 55 188 157q92 106 124 221q-18 -33 -20.5 -28t2.5 32.5t0 27.5q28 78 42 147l-5 -4q-37 -143 -83 -203q0 14 -16 11.5t-18.5 7t6.5 45.5q10 14 14.5 5t6.5 -7t16 25q0 19 9 60l5 33q-5 0 -14 -18.5t-14 -9.5q14 60 33 74h-7q-7 0 -7 23q4 36 9 43t14 3h9l-14 32
q-23 60 -14 106l-18 -56v46q5 37 -14 79q14 -42 14 -72t-14 -11q5 46 -32 119q-28 51 -23 79l-23 -32q-28 46 -25.5 62t-11.5 43q5 -9 2.5 -16t6.5 -20q-4 0 -38.5 34.5t-53.5 47.5q-110 88 -241 106.5t-265 -32.5q0 -9 -14 -18q-124 -97 -170 -175q-55 -102 -37 -258
q9 -9 28 -51q27 -73 55 -92q28 -55 92.5 -94t135.5 -41.5t140 34.5q55 28 97 78q-65 -55 -154.5 -69t-172.5 25.5t-129 124.5t-41 177l4 -5q5 0 10 -13q-5 119 68.5 211t179.5 129t203 -9v5q50 -14 82 -42q19 -18 37 -32l-9 14q-18 18 -2 16t113 -90l23 -18q4 -19 2 -32.5
t11 -36.5l28 -14l14 -32q23 -56 23 -102z" />
</svg>
