<?xml version="1.0" standalone="no"?>
<!DOCTYPE svg PUBLIC "-//W3C//DTD SVG 1.1//EN" "http://www.w3.org/Graphics/SVG/1.1/DTD/svg11.dtd" >
<svg xmlns="http://www.w3.org/2000/svg" xmlns:xlink="http://www.w3.org/1999/xlink" version="1.1" width="2048" height="2048" viewBox="-10 0 2068 2048">
   <path fill="currentColor"
d="M878 1513v-978h-686v978h686zM878 146q77 0 134.5 57.5t57.5 139.5v1362q0 82 -57.5 139.5t-134.5 57.5h-686q-78 0 -135 -57.5t-57 -139.5v-1362q0 -82 57 -139.5t135 -57.5h686zM1413 146h489q59 0 102.5 43.5t43.5 103.5v292q0 60 -43.5 103t-102.5 43h-343l-293 293
v-731q0 -60 43.5 -103.5t103.5 -43.5z" />
</svg>
