<?xml version="1.0" standalone="no"?>
<!DOCTYPE svg PUBLIC "-//W3C//DTD SVG 1.1//EN" "http://www.w3.org/Graphics/SVG/1.1/DTD/svg11.dtd" >
<svg xmlns="http://www.w3.org/2000/svg" xmlns:xlink="http://www.w3.org/1999/xlink" version="1.1" width="2048" height="2048" viewBox="-10 0 2068 2048">
   <path fill="currentColor"
d="M1024 0q-279 0 -514.5 137t-372.5 372.5t-137 514.5v793q0 96 67.5 163.5t163.5 67.5h793q279 0 514.5 -137t372.5 -372.5t137 -514.5t-137 -514.5t-372.5 -372.5t-514.5 -137zM1231 423q134 0 235 89t101 224l-5 52q0 34 -28.5 58t-64.5 19.5t-58 -36t-17 -65.5v-28
q0 -73 -48 -109t-110.5 -36t-108 43.5t-45.5 101.5v259h149q53 0 74.5 43.5t0 86.5t-74.5 43h-149v245q-15 145 -125.5 246t-262 101t-262 -113t-108 -272t115.5 -269.5t276 -110.5h121v173h-125q-92 5 -157 62.5t-65 146.5t62.5 149t149 60t147 -57.5t60.5 -148.5v-644
l4 -39q15 -115 106.5 -194.5t211.5 -79.5z" />
</svg>
