<?xml version="1.0" standalone="no"?>
<!DOCTYPE svg PUBLIC "-//W3C//DTD SVG 1.1//EN" "http://www.w3.org/Graphics/SVG/1.1/DTD/svg11.dtd" >
<svg xmlns="http://www.w3.org/2000/svg" xmlns:xlink="http://www.w3.org/1999/xlink" version="1.1" width="2048" height="2048" viewBox="-10 0 2058 2048">
   <path fill="currentColor"
d="M1125 716h567l-567 -562v562zM409 0h822l615 615v1231q0 82 -60 142t-147 60h-1230q-87 0 -147 -60t-60 -142v-1644q0 -82 60 -142t147 -60zM1038 1260q-235 0 -413 158l-216 -216v538h543l-221 -216q134 -111 307 -111q159 0 284 91.5t173 235.5l144 -43
q-62 -192 -228 -314.5t-373 -122.5z" />
</svg>
