<?xml version="1.0" standalone="no"?>
<!DOCTYPE svg PUBLIC "-//W3C//DTD SVG 1.1//EN" "http://www.w3.org/Graphics/SVG/1.1/DTD/svg11.dtd" >
<svg xmlns="http://www.w3.org/2000/svg" xmlns:xlink="http://www.w3.org/1999/xlink" version="1.1" width="2048" height="2048" viewBox="-10 0 2066 2048">
   <path fill="currentColor"
d="M1844 412h-1640v-206h1640v206zM1844 1434h-1640v-614h1640v614zM1844 0h-1640q-82 0 -142 60t-60 146v1228q0 86 60 146t142 60h1640q82 0 142 -60t60 -146v-1228q0 -86 -60 -146t-142 -60zM511 1842h206v206h-206v-206zM923 1842h202v206h-202v-206zM1331 1842h206v206
h-206v-206z" />
</svg>
