<?xml version="1.0" standalone="no"?>
<!DOCTYPE svg PUBLIC "-//W3C//DTD SVG 1.1//EN" "http://www.w3.org/Graphics/SVG/1.1/DTD/svg11.dtd" >
<svg xmlns="http://www.w3.org/2000/svg" xmlns:xlink="http://www.w3.org/1999/xlink" version="1.1" width="2048" height="2048" viewBox="-10 0 2068 2048">
   <path fill="currentColor"
d="M0 0h912v229h-912v-229zM1136 0h912v229h-912v-229zM0 453h912v230h-912v-230zM1136 453h912v230h-912v-230zM0 912h912v224h-912v-224zM1136 912h912v224h-912v-224zM0 1365h912v230h-912v-230zM1136 1365h912v230h-912v-230zM0 1819h912v229h-912v-229zM1136 1819h912
v229h-912v-229z" />
</svg>
