<?xml version="1.0" standalone="no"?>
<!DOCTYPE svg PUBLIC "-//W3C//DTD SVG 1.1//EN" "http://www.w3.org/Graphics/SVG/1.1/DTD/svg11.dtd" >
<svg xmlns="http://www.w3.org/2000/svg" xmlns:xlink="http://www.w3.org/1999/xlink" version="1.1" width="2048" height="2048" viewBox="-10 0 2058 2048">
   <path fill="currentColor"
d="M1555 0l-149 154q104 104 161 238t57 282q0 204 -99 372.5t-270 267.5t-370 99q-149 0 -285 -54.5t-240 -158.5l-149 149q114 114 260 183.5t305 89.5v218h-421v208h1056v-208h-422v-218q238 -30 431.5 -161.5t305 -340t111.5 -446.5q0 -188 -74.5 -364t-207.5 -310z
M885 94q-119 0 -225.5 44.5t-188.5 126.5t-126.5 188.5t-44.5 220.5t44.5 221t126.5 188.5t188.5 126.5t225.5 45q159 0 290.5 -77t210.5 -211t79 -293q0 -114 -44.5 -220.5t-126.5 -188.5t-188.5 -126.5t-220.5 -44.5zM885 302q154 0 260.5 109.5t106.5 263t-106.5 262.5
t-260.5 109t-263 -109t-109 -262.5t109 -263t263 -109.5z" />
</svg>
