<?xml version="1.0" standalone="no"?>
<!DOCTYPE svg PUBLIC "-//W3C//DTD SVG 1.1//EN" "http://www.w3.org/Graphics/SVG/1.1/DTD/svg11.dtd" >
<svg xmlns="http://www.w3.org/2000/svg" xmlns:xlink="http://www.w3.org/1999/xlink" version="1.1" width="2048" height="2048" viewBox="-10 0 2058 2048">
   <path fill="currentColor"
d="M846 0q-58 0 -106 10q-178 28 -331 139q-135 91 -224 221t-101 242.5t80 213.5q43 48 125 96q48 34 153 82l77 43q-197 163 -298 269q-81 87 -129 171t-48 146v10q0 115 33 178v4q58 111 173 176t279 41q226 -29 538 -207q264 -154 523 -365q140 -115 250 -231
q101 -105 135 -163q24 -48 28.5 -120t-14.5 -130q-24 -96 -163.5 -249.5t-326.5 -293.5q-202 -149 -379 -230q-125 -53 -274 -53zM956 298q39 0 68 9q100 24 201 111q111 101 96 187q-14 125 -110 180.5t-231 35.5q-57 -9 -125 -48q-72 -43 -115 -105q-53 -77 -48 -168
q10 -106 96 -159q72 -43 168 -43zM951 476q-43 0 -57 24q-63 91 19 158q5 -19 50.5 -16.5t91 19t45.5 36.5q68 -53 53.5 -103.5t-79.5 -84t-123 -33.5z" />
</svg>
