<?xml version="1.0" standalone="no"?>
<!DOCTYPE svg PUBLIC "-//W3C//DTD SVG 1.1//EN" "http://www.w3.org/Graphics/SVG/1.1/DTD/svg11.dtd" >
<svg xmlns="http://www.w3.org/2000/svg" xmlns:xlink="http://www.w3.org/1999/xlink" version="1.1" width="2048" height="2048" viewBox="-10 0 2069 2048">
   <path fill="currentColor"
d="M93 15q56 -5 203 57q119 47 147 62q-199 123 -327 322q-75 -142 -99 -242q-38 -128 9 -175q24 -24 67 -24zM1931 25q61 -5 94 23q48 48 -4 204q-43 118 -128 270q-76 128 -114 166t-123 7t-165.5 -111.5t-111.5 -168t7 -125.5q24 -24 118 -81q109 -66 214 -113
q132 -62 213 -71zM1035 72q190 0 370 71q-81 52 -100 71q-71 76 -42.5 201.5t147.5 243.5q75 76 158 118.5t154 42.5q86 0 138 -56q23 -19 75 -105q81 185 81 389q0 270 -132.5 495t-357.5 357.5t-490.5 132.5t-490.5 -132.5t-357.5 -357.5t-132.5 -492.5t132.5 -492.5
t357.5 -355.5t490 -130.5z" />
</svg>
