<?xml version="1.0" standalone="no"?>
<!DOCTYPE svg PUBLIC "-//W3C//DTD SVG 1.1//EN" "http://www.w3.org/Graphics/SVG/1.1/DTD/svg11.dtd" >
<svg xmlns="http://www.w3.org/2000/svg" xmlns:xlink="http://www.w3.org/1999/xlink" version="1.1" width="2048" height="2048" viewBox="-10 0 2058 2048">
   <path fill="currentColor"
d="M1024 0q-133 0 -245 66.5t-178 178.5t-66 244v197h-96q-82 0 -139.5 57t-57.5 135v978q0 78 57.5 135t139.5 57h1170q82 0 139.5 -57t57.5 -135v-978q0 -78 -57.5 -135t-139.5 -57h-96v-197q0 -132 -66 -244t-178 -178.5t-245 -66.5zM1024 187q123 0 212.5 89.5
t89.5 212.5v197h-604v-197q0 -123 89.5 -212.5t212.5 -89.5zM1042 928q137 0 217 61.5t80 162.5q0 64 -43 116.5t-112 84.5q-37 23 -50.5 48t-13.5 62h-192q0 -69 29.5 -105.5t103.5 -82.5q36 -18 59 -50t23 -73t-25 -66t-76 -25q-36 0 -63.5 20.5t-27.5 61.5h-192
q-9 -105 73 -160t210 -55zM928 1563h192v192h-192v-192z" />
</svg>
