<?xml version="1.0" standalone="no"?>
<!DOCTYPE svg PUBLIC "-//W3C//DTD SVG 1.1//EN" "http://www.w3.org/Graphics/SVG/1.1/DTD/svg11.dtd" >
<svg xmlns="http://www.w3.org/2000/svg" xmlns:xlink="http://www.w3.org/1999/xlink" version="1.1" width="2048" height="2048" viewBox="-10 0 2068 2048">
   <path fill="currentColor"
d="M0 125v365h154q77 0 106 53q24 39 24 125v649q0 164 89 303.5t238 221t331 81.5h894q87 0 149.5 -50.5t62.5 -132.5v-1004q0 -164 -86.5 -303.5t-238 -221t-329.5 -81.5zM471 351h183v923q0 91 53 156t130 65h610q96 0 161 -55t65 -137v-491q0 -43 -31 -76.5t-79.5 -33.5
t-79.5 33.5t-31 76.5v424h-192v-424q0 -43 -31.5 -76.5t-77 -33.5t-79.5 33.5t-34 76.5v424h-187v-424q0 -125 86.5 -213.5t209 -88.5t209.5 86q86 -86 208.5 -86t211.5 91t89 211v524q-14 135 -110 231q-116 116 -269 116h-683q-120 -10 -221 -111q-111 -111 -111 -260
v-961z" />
</svg>
