<?xml version="1.0" standalone="no"?>
<!DOCTYPE svg PUBLIC "-//W3C//DTD SVG 1.1//EN" "http://www.w3.org/Graphics/SVG/1.1/DTD/svg11.dtd" >
<svg xmlns="http://www.w3.org/2000/svg" xmlns:xlink="http://www.w3.org/1999/xlink" version="1.1" width="2048" height="2048" viewBox="-10 0 2068 2048">
   <path fill="currentColor"
d="M0 202q154 312 204.5 567t0 510t-204.5 567h202q159 -312 209.5 -567t2 -510t-201.5 -567h-212zM409 202q158 312 206 567t0 510t-206 567h307q370 0 707 -221q303 -192 625 -601q-322 -409 -625 -601q-337 -221 -707 -221h-307zM716 409q284 0 548 158q246 149 510 457
q-274 312 -514 457q-260 158 -544 158q231 -615 0 -1230z" />
</svg>
