<?xml version="1.0" standalone="no"?>
<!DOCTYPE svg PUBLIC "-//W3C//DTD SVG 1.1//EN" "http://www.w3.org/Graphics/SVG/1.1/DTD/svg11.dtd" >
<svg xmlns="http://www.w3.org/2000/svg" xmlns:xlink="http://www.w3.org/1999/xlink" version="1.1" width="2048" height="2048" viewBox="-10 0 2068 2048">
   <path fill="currentColor"
d="M0 202q154 312 204.5 567t0 510t-204.5 567h202q159 -312 209.5 -567t2 -510t-201.5 -567h-212zM409 202q158 312 206 567t0 510t-206 567h307q221 0 447 -202q159 -144 342 -413q91 101 235 101q130 0 219 -89t89 -219t-89 -219t-219 -89q-144 0 -235 101
q-202 -283 -346 -413q-222 -202 -443 -202h-307zM716 409q164 0 327 163q96 91 250 322q63 92 92 130q-29 38 -92 130q-154 231 -250 322q-163 163 -327 163q123 -307 123 -615t-123 -615zM1740 923q39 0 72.5 31.5t33.5 69.5t-33.5 69.5t-74.5 31.5t-70 -29t-29 -69.5
t31.5 -72t69.5 -31.5z" />
</svg>
