<?xml version="1.0" standalone="no"?>
<!DOCTYPE svg PUBLIC "-//W3C//DTD SVG 1.1//EN" "http://www.w3.org/Graphics/SVG/1.1/DTD/svg11.dtd" >
<svg xmlns="http://www.w3.org/2000/svg" xmlns:xlink="http://www.w3.org/1999/xlink" version="1.1" width="2048" height="2048" viewBox="-10 0 2068 2048">
   <path fill="currentColor"
d="M0 202q154 312 204.5 567t0 510t-204.5 567h615q246 0 529 -125q265 -110 507.5 -297.5t396.5 -399.5q-154 -212 -396.5 -399.5t-507.5 -297.5q-283 -125 -529 -125h-615zM308 409h307q255 0 596 192q313 173 563 423q-250 250 -563 423q-341 192 -596 192h-307
q105 -317 105 -615t-105 -615z" />
</svg>
