<?xml version="1.0" standalone="no"?>
<!DOCTYPE svg PUBLIC "-//W3C//DTD SVG 1.1//EN" "http://www.w3.org/Graphics/SVG/1.1/DTD/svg11.dtd" >
<svg xmlns="http://www.w3.org/2000/svg" xmlns:xlink="http://www.w3.org/1999/xlink" version="1.1" width="2048" height="2048" viewBox="-10 0 2066 2048">
   <path fill="currentColor"
d="M463 624q-72 0 -120 -48t-48 -117.5t48 -117.5t117.5 -48t117.5 48t48 119q0 68 -48 116t-115 48zM463 0q-192 0 -326.5 134.5t-134.5 325.5q0 216 231 557q115 168 230 297l72 -86q86 -106 158 -211q101 -149 158 -278q72 -163 72 -279q0 -191 -134 -325.5t-326 -134.5z
M1585 624q-67 0 -115 -48t-48 -117.5t48 -117.5t117.5 -48t117.5 48t48 117.5t-48 117.5t-120 48zM1585 0q-192 0 -326 134.5t-134 325.5q0 216 230 557q115 168 230 297l72 -86q87 -106 158 -211q101 -149 159 -278q72 -163 72 -279q0 -191 -134.5 -325.5t-326.5 -134.5z
M1585 1429q-96 0 -175 58t-113 149h-546q-44 -120 -159 -175.5t-235 -12t-175 158.5t-12 235t158.5 172.5t235.5 14.5q62 -24 112.5 -74.5t74.5 -112.5h546q44 120 159 175t235 12t175 -158t12 -235q-34 -91 -113 -149t-180 -58zM1585 1890q-62 0 -107.5 -43t-45.5 -108
t45.5 -110.5t110 -45.5t108 45.5t43.5 110.5t-43.5 108t-110.5 43z" />
</svg>
