<?xml version="1.0" standalone="no"?>
<!DOCTYPE svg PUBLIC "-//W3C//DTD SVG 1.1//EN" "http://www.w3.org/Graphics/SVG/1.1/DTD/svg11.dtd" >
<svg xmlns="http://www.w3.org/2000/svg" xmlns:xlink="http://www.w3.org/1999/xlink" version="1.1" width="2048" height="2048" viewBox="-10 0 2068 2048">
   <path fill="currentColor"
d="M202 308q-82 0 -142 60t-60 142v1028q0 82 60 142t142 60h1644q82 0 142 -60t60 -142v-1028q0 -82 -60 -142t-142 -60h-1644zM255 510q43 0 72 31t29 74.5t-29 72t-72 28.5t-72 -28.5t-29 -72t29 -74.5t72 -31zM510 510h1336v1028h-1336v-1028zM615 615v818h308v-818
h-308zM1024 615v818h308v-818h-308zM1433 615v818h307v-818h-307zM716 716h101v101h-101v-101zM1125 716h106v101h-106v-101zM1538 716h101v101h-101v-101z" />
</svg>
