<?xml version="1.0" standalone="no"?>
<!DOCTYPE svg PUBLIC "-//W3C//DTD SVG 1.1//EN" "http://www.w3.org/Graphics/SVG/1.1/DTD/svg11.dtd" >
<svg xmlns="http://www.w3.org/2000/svg" xmlns:xlink="http://www.w3.org/1999/xlink" version="1.1" width="2048" height="2048" viewBox="-10 0 2068 2048">
   <path fill="currentColor"
d="M1024 0q202 0 392 77t334 221t221 334t77 392t-77 392t-221 334t-334 221t-392 77t-392 -77t-334 -221t-221 -334t-77 -392t77 -392t221 -334t334 -221t392 -77zM1865 1024q0 -293 -180 -519t-454 -293v197h-414v-197q-274 67 -454 293t-180 519q0 168 64.5 322
t182.5 272t272 182.5t322 64.5t322 -64.5t272 -182.5t182.5 -272t64.5 -322zM510 885q57 0 98 40.5t41 98.5t-41 98.5t-98.5 40.5t-98.5 -40.5t-41 -98.5t41 -98.5t99 -40.5zM1538 885q58 0 99 40.5t41 98.5t-41 98.5t-98.5 40.5t-98.5 -40.5t-41 -98.5t41 -98.5t98 -40.5z
M649 1255q58 0 101 43t43 101t-43 98.5t-101 40.5t-98.5 -40.5t-40.5 -98.5t40.5 -101t98.5 -43zM1399 1255q58 0 98.5 43t40.5 101t-40.5 98.5t-98.5 40.5t-101 -40.5t-43 -98.5t43 -101t101 -43zM1024 1399q58 0 98.5 41t40.5 98.5t-40.5 98.5t-98.5 41t-98.5 -41
t-40.5 -98.5t40.5 -98.5t98.5 -41z" />
</svg>
