<?xml version="1.0" standalone="no"?>
<!DOCTYPE svg PUBLIC "-//W3C//DTD SVG 1.1//EN" "http://www.w3.org/Graphics/SVG/1.1/DTD/svg11.dtd" >
<svg xmlns="http://www.w3.org/2000/svg" xmlns:xlink="http://www.w3.org/1999/xlink" version="1.1" width="2048" height="2048" viewBox="-10 0 2068 2048">
   <path fill="currentColor"
d="M1579 1025q0 33 -26 59l-724 726q-25 24 -61 24q-35 0 -60 -25t-25 -60v-384h-598q-35 0 -60 -25t-25 -60v-512q0 -35 25 -60t60 -25h598v-384q0 -35 25 -60t60 -25q36 0 61 24l724 726q26 26 26 61zM2048 554v940q0 104 -51.5 192.5t-139.5 140t-193 51.5h-426
q-16 0 -29.5 -13.5t-13.5 -30.5q0 -5 -1.5 -26.5t-0.5 -35t4 -30.5t13.5 -26t27.5 -9h426q88 0 151 -62.5t63 -150.5v-940q0 -88 -63 -150.5t-151 -62.5h-384h-14.5h-17.5t-15.5 -1t-15 -4t-11 -7.5t-9 -12t-2.5 -17.5q0 -5 -1.5 -27t-0.5 -35.5t4 -31t13.5 -26.5t27.5 -9
h426q105 0 193 51.5t139.5 140t51.5 192.5z" />
</svg>
