<?xml version="1.0" standalone="no"?>
<!DOCTYPE svg PUBLIC "-//W3C//DTD SVG 1.1//EN" "http://www.w3.org/Graphics/SVG/1.1/DTD/svg11.dtd" >
<svg xmlns="http://www.w3.org/2000/svg" xmlns:xlink="http://www.w3.org/1999/xlink" version="1.1" width="2048" height="2048" viewBox="-10 0 2068 2048">
   <path fill="currentColor"
d="M229 0q-96 0 -162.5 66.5t-66.5 162.5v224h229v-224h1590v224h229v-224q0 -96 -66.5 -162.5t-162.5 -66.5h-1590zM571 453v230h906v-230h-906zM0 683v341q0 277 138.5 512t373.5 373.5t512 138.5t512 -138.5t373.5 -373.5t138.5 -512v-341h-229v341q0 219 -107 400
t-288 288t-400 107t-400 -107t-288 -288t-107 -400v-341h-229zM1024 1024q-117 0 -200 82.5t-83 200t83 203t200 85.5t200 -85.5t83 -203t-83 -200t-200 -82.5z" />
</svg>
