<?xml version="1.0" standalone="no"?>
<!DOCTYPE svg PUBLIC "-//W3C//DTD SVG 1.1//EN" "http://www.w3.org/Graphics/SVG/1.1/DTD/svg11.dtd" >
<svg xmlns="http://www.w3.org/2000/svg" xmlns:xlink="http://www.w3.org/1999/xlink" version="1.1" width="2048" height="2048" viewBox="-10 0 2068 2048">
   <path fill="currentColor"
d="M483 712q251 12 364 195.5t107 452.5q0 300 -119.5 477t-363.5 183q-245 -12 -358 -192t-113 -464.5t116 -462t367 -189.5zM477 926q-86 0 -135 107t-49 330t49 333.5t141 110.5q177 0 180 -437.5t-186 -443.5zM1204 2020v-232h61h68l134 -24q80 -25 122 -61
q68 -43 107.5 -104t58.5 -129l-7 -6q-85 86 -256 86t-281.5 -95t-113.5 -284.5t128.5 -321t345.5 -137.5q245 12 361 162t116 388q-6 190 -61 336.5t-153 244.5q-92 80 -217 122.5t-278 54.5h-135zM1565 926q-79 0 -131 61t-52 165q0 86 45.5 144t143.5 64q61 0 104 -27.5
t61 -57.5q19 -19 19 -80q0 -104 -43 -183.5t-147 -85.5zM672 455l428 -427l422 427h-850z" />
</svg>
