<?xml version="1.0" standalone="no"?>
<!DOCTYPE svg PUBLIC "-//W3C//DTD SVG 1.1//EN" "http://www.w3.org/Graphics/SVG/1.1/DTD/svg11.dtd" >
<svg xmlns="http://www.w3.org/2000/svg" xmlns:xlink="http://www.w3.org/1999/xlink" version="1.1" width="2048" height="2048" viewBox="-10 0 2068 2048">
   <path fill="currentColor"
d="M1711 2047l-309 -538q0 -144 -77.5 -234.5t-194.5 -90.5q-75 0 -138.5 40t-95.5 104q58 -32 127 -32q112 0 189.5 77t77.5 189t-77.5 192t-189.5 80h374v213h-965q-48 0 -77.5 -31.5t-29.5 -77t32 -77.5l53 -53q-42 -22 -101 -70q-21 43 -61 69.5t-88 26.5
q-64 0 -112 -48t-48 -114.5t48 -114.5t112 -48l53 11v-224q0 -149 72 -272t197.5 -197.5t269.5 -74.5h5q75 5 202.5 21t165.5 11q58 -16 58 -85t16 -117q16 -38 48 -86q-133 -64 -277 -64q-48 0 -77 -32t-29 -72t21 -69t53 -40l-74 -5q-48 0 -80 -29.5t-32 -75t32 -77
t80 -31.5h106q176 0 325.5 87.5t234.5 237.5h32q117 0 218 69l48 43q155 133 203 261q21 69 16 112q0 106 -77.5 183.5t-189.5 77.5l-58 -5v10q0 187 -139 320l379 650h-251zM1722 539q-43 0 -75 32t-32 77.5t32 74.5t77.5 29t77.5 -29t32 -74.5t-32 -77.5t-80 -32z" />
</svg>
