<?xml version="1.0" standalone="no"?>
<!DOCTYPE svg PUBLIC "-//W3C//DTD SVG 1.1//EN" "http://www.w3.org/Graphics/SVG/1.1/DTD/svg11.dtd" >
<svg xmlns="http://www.w3.org/2000/svg" xmlns:xlink="http://www.w3.org/1999/xlink" version="1.1" width="2048" height="2048" viewBox="-10 0 2068 2048">
   <path fill="currentColor"
d="M0 190l137 -137l1805 1805l-137 137l-217 -212h-1264q-91 0 -154.5 -63.5t-63.5 -154.5v-592q0 -65 38 -123.5t94 -73.5l253 -91zM475 918h248l-66 -66zM324 1241v218h940l-217 -218h-723zM1917 164l75 203l-930 338l-167 -166zM1831 918q91 0 154 63t63 154v430
q0 51 -25 101l-192 -187v-238h-233l-324 -323h557z" />
</svg>
