<?xml version="1.0" standalone="no"?>
<!DOCTYPE svg PUBLIC "-//W3C//DTD SVG 1.1//EN" "http://www.w3.org/Graphics/SVG/1.1/DTD/svg11.dtd" >
<svg xmlns="http://www.w3.org/2000/svg" xmlns:xlink="http://www.w3.org/1999/xlink" version="1.1" width="2048" height="2048" viewBox="-10 0 2058 2048">
   <path fill="currentColor"
d="M959 0l-53 197q337 63 582 308t312 586l198 -53q-77 -394 -361 -677.5t-678 -360.5zM853 394l-53 202q231 34 399.5 200t201.5 401l202 -53q-53 -288 -259.5 -495t-490.5 -255zM123 788q-73 164 -73 337q0 154 53 293.5t154 249.5v380h308v-163q144 62 308 62
q173 0 336 -72zM748 793l-53 202q125 0 216 91.5t91 216.5l202 -53q-19 -178 -149 -308t-307 -149z" />
</svg>
