<?xml version="1.0" standalone="no"?>
<!DOCTYPE svg PUBLIC "-//W3C//DTD SVG 1.1//EN" "http://www.w3.org/Graphics/SVG/1.1/DTD/svg11.dtd" >
<svg xmlns="http://www.w3.org/2000/svg" xmlns:xlink="http://www.w3.org/1999/xlink" version="1.1" width="2048" height="2048" viewBox="-10 0 2068 2048">
   <path fill="currentColor"
d="M1332 0q298 0 507 209t209 507q0 236 -144 428t-370 260l4 -34v-38q0 -337 -242.5 -579.5t-579.5 -242.5h-38l-34 4q68 -226 260 -370t428 -144zM716 615q197 0 360.5 96.5t260 260t96.5 360.5t-96.5 360.5t-260 259.5t-360.5 96t-360.5 -96t-259.5 -259.5t-96 -360.5
t96 -360.5t259.5 -260t360.5 -96.5zM716 817q-101 0 -194.5 41t-165.5 113t-113 166t-41 195q0 139 69.5 257t187.5 187.5t257.5 69.5t257 -69.5t187.5 -187.5t70 -257.5t-70 -257t-187.5 -187.5t-257.5 -70z" />
</svg>
