<?xml version="1.0" standalone="no"?>
<!DOCTYPE svg PUBLIC "-//W3C//DTD SVG 1.1//EN" "http://www.w3.org/Graphics/SVG/1.1/DTD/svg11.dtd" >
<svg xmlns="http://www.w3.org/2000/svg" xmlns:xlink="http://www.w3.org/1999/xlink" version="1.1" width="2048" height="2048" viewBox="-10 0 2068 2048">
   <path fill="currentColor"
d="M1332 0q197 0 360.5 96t259.5 259.5t96 365.5t-106 372.5t-279 262.5q-105 202 -307 307q-92 173 -262.5 279t-372.5 106t-365.5 -96t-259.5 -259.5t-96 -365.5t106 -372.5t279 -262.5q105 -202 307 -307q92 -173 262.5 -279t377.5 -106zM1024 1740q-197 0 -360.5 -96
t-259.5 -259.5t-96 -360.5q-106 135 -106 308q0 139 69.5 257t187.5 187.5t257 69.5q173 0 308 -106zM1332 1433q-197 0 -360.5 -96.5t-260 -260t-96.5 -360.5q-105 135 -105 308q0 139 69.5 257t187.5 187.5t257 69.5q173 0 308 -105zM1332 202q-173 0 -308 106
q197 0 360.5 96t259.5 259.5t96 360.5q106 -135 106 -308q0 -139 -69.5 -257t-187.5 -187.5t-257 -69.5zM817 716q0 140 70 257.5t187.5 187.5t257.5 70q91 0 173 -34q33 -82 33 -173q0 -139 -69.5 -257t-187.5 -187.5t-257 -69.5q-91 0 -173 33q-34 82 -34 173z" />
</svg>
