<?xml version="1.0" standalone="no"?>
<!DOCTYPE svg PUBLIC "-//W3C//DTD SVG 1.1//EN" "http://www.w3.org/Graphics/SVG/1.1/DTD/svg11.dtd" >
<svg xmlns="http://www.w3.org/2000/svg" xmlns:xlink="http://www.w3.org/1999/xlink" version="1.1" width="2048" height="2048" viewBox="-10 0 2068 2048">
   <path fill="currentColor"
d="M202 202q-82 0 -142 60t-60 147v408q82 0 142 60t60 147t-60 147t-142 60v408q0 87 60 147t142 60h1644q82 0 142 -60t60 -147v-408q-82 0 -142 -60t-60 -147t60 -147t142 -60v-408q0 -87 -60 -147t-142 -60h-1644zM202 409h1644v259q-96 58 -151.5 151.5t-55.5 204.5
t55.5 204.5t151.5 151.5v259h-1644v-259q96 -58 151.5 -151.5t55.5 -204.5t-55.5 -204.5t-151.5 -151.5v-259z" />
</svg>
