<?xml version="1.0" standalone="no"?>
<!DOCTYPE svg PUBLIC "-//W3C//DTD SVG 1.1//EN" "http://www.w3.org/Graphics/SVG/1.1/DTD/svg11.dtd" >
<svg xmlns="http://www.w3.org/2000/svg" xmlns:xlink="http://www.w3.org/1999/xlink" version="1.1" width="2048" height="2048" viewBox="-10 0 2058 2048">
   <path fill="currentColor"
d="M409 0h1230q87 0 147 60t60 142v1644q0 82 -60 142t-147 60h-1230q-87 0 -147 -60t-60 -142v-1644q0 -82 60 -142t147 -60zM510 202q-44 0 -72.5 31t-28.5 74.5t28.5 72.5t72 29t74.5 -29t31 -72.5t-31 -74.5t-74 -31zM817 202q-43 0 -72 31t-29 74.5t29 72.5t72.5 29
t74.5 -29t31 -72.5t-31 -74.5t-75 -31zM1024 615q-120 0 -235.5 46t-202 132.5t-132 199.5t-45.5 238q0 163 81.5 305t223.5 226t310 84t310 -84t223.5 -226t81.5 -305q0 -125 -45.5 -238t-132 -199.5t-202 -132.5t-235.5 -46zM625 870h192q-14 101 0.5 168.5t62.5 120.5
q173 168 134 427h-197q20 -100 5.5 -167.5t-62.5 -115.5q-173 -168 -135 -433zM1034 870h197q-20 101 -5.5 168.5t62.5 120.5q173 168 135 427h-192q14 -100 -0.5 -167.5t-62.5 -115.5q-173 -168 -134 -433z" />
</svg>
