<?xml version="1.0" standalone="no"?>
<!DOCTYPE svg PUBLIC "-//W3C//DTD SVG 1.1//EN" "http://www.w3.org/Graphics/SVG/1.1/DTD/svg11.dtd" >
<svg xmlns="http://www.w3.org/2000/svg" xmlns:xlink="http://www.w3.org/1999/xlink" version="1.1" width="2048" height="2048" viewBox="-10 0 2068 2048">
   <path fill="currentColor"
d="M563 1008q-90 -197 -90 -456h-316v117q0 46 30 97.5t82 98.5t129.5 86t164.5 57zM1890 669v-117h-315q0 256 -91 456q87 -18 164.5 -57t129.5 -86t82 -98.5t30 -97.5zM2048 512v157q0 87 -51 176t-138 161t-213 120t-266 55q-55 70 -116 116q-47 42 -65 89t-18 110
q0 31 8.5 58t26 50.5t49 36.5t73.5 13q60 0 114 24.5t88.5 70t34.5 102.5v79q0 17 -11 28t-29 11h-1024q-16 0 -27 -11t-11 -28v-79q0 -57 34.5 -102.5t88 -70t113.5 -24.5q42 0 74 -13t49.5 -36.5t26 -50.5t8.5 -58q0 -63 -18 -110t-65 -89q-64 -48 -117 -116
q-140 -7 -266 -55t-212.5 -120t-137.5 -161t-51 -176v-157q0 -49 34.5 -83.5t83.5 -34.5h355v-118q0 -81 57.5 -139t139.5 -58h708q82 0 139.5 58t57.5 139v118h355q49 0 83.5 34.5t34.5 83.5z" />
</svg>
