<?xml version="1.0" standalone="no"?>
<!DOCTYPE svg PUBLIC "-//W3C//DTD SVG 1.1//EN" "http://www.w3.org/Graphics/SVG/1.1/DTD/svg11.dtd" >
<svg xmlns="http://www.w3.org/2000/svg" xmlns:xlink="http://www.w3.org/1999/xlink" version="1.1" width="2048" height="2048" viewBox="-10 0 2068 2048">
   <path fill="currentColor"
d="M1018 210q-276 0 -540 90.5t-478 259.5q268 342 771 969l247 309l614 -767v-280l-132 157q-91 -54 -202 -83q-136 -41 -280 -41q-239 0 -482 124l-285 -350q347 -211 767 -211q400 0 766 211l-37 53h231q8 -16 33 -45t37 -46q-227 -169 -490.5 -259.5t-539.5 -90.5z
M1809 824v528h177v-528h-177zM1809 1529v177h177v-177h-177z" />
</svg>
