<?xml version="1.0" standalone="no"?>
<!DOCTYPE svg PUBLIC "-//W3C//DTD SVG 1.1//EN" "http://www.w3.org/Graphics/SVG/1.1/DTD/svg11.dtd" >
<svg xmlns="http://www.w3.org/2000/svg" xmlns:xlink="http://www.w3.org/1999/xlink" version="1.1" width="2048" height="2048" viewBox="-10 0 2068 2048">
   <path fill="currentColor"
d="M1639 803q87 0 170 37l239 -301q-219 -169 -483 -260t-541 -91t-541 91t-483 260q248 310 706 883l318 397l87 -112v-268q0 -62 29 -120t78 -99v-21q0 -103 58 -193.5t155 -146.5t208 -56zM1024 630q-314 0 -599 161l-169 -211q355 -215 766 -215t770 215l-173 215
q-120 -70 -252 -112q-170 -53 -343 -53zM1887 1332v-133q0 -90 -76.5 -154t-171.5 -64t-169 64t-74 154v133q-42 0 -75 33t-33 74v310q0 45 33 78t75 33h483q45 0 80 -31t35 -72v-310q0 -45 -33 -80t-74 -35zM1771 1332h-264v-133q0 -49 39.5 -80t95 -31t92.5 31t37 80v133z
" />
</svg>
