<?xml version="1.0" standalone="no"?>
<!DOCTYPE svg PUBLIC "-//W3C//DTD SVG 1.1//EN" "http://www.w3.org/Graphics/SVG/1.1/DTD/svg11.dtd" >
<svg xmlns="http://www.w3.org/2000/svg" xmlns:xlink="http://www.w3.org/1999/xlink" version="1.1" width="2048" height="2048" viewBox="-10 0 2068 2048">
   <path fill="currentColor"
d="M692 1430q6 -9 -3 -18q-12 -10 -19 -2q-6 8 3 17q12 10 19 3zM655 1375q-6 -9 -17 -5q-6 4 0 15q10 12 16.5 7.5t0.5 -17.5zM600 1321q3 -7 -6 -11q-9 -3 -12 4q-4 6 6 10q10 2 12 -3zM628 1352q2 -1 1.5 -6t-4.5 -8q-2 -4 -6.5 -4.5t-5.5 1.5q-5 5 1 14q9 9 14 3z
M743 1452q2 -10 -12 -14q-15 -4 -18 4q-1 5 3 9.5t10 6.5q13 3 17 -6zM799 1456q0 -10 -16 -10q-14 0 -14 10q0 5 4.5 8t10.5 3t10.5 -3t4.5 -8zM851 1447q-2 -9 -18 -7q-13 2 -11 12t16 8q13 -2 13 -13zM1707 1025q0 -139 -54 -265.5t-145.5 -218.5t-218 -146t-265 -54
t-265 54t-218 146t-145.5 218.5t-54 265.5q0 147 60 279.5t166 227.5t241 140q24 5 35 -6t11 -28q0 -11 -2 -126q-4 1 -11 2.5t-27.5 3t-39.5 1.5t-44 -4.5t-44.5 -13.5t-37 -27t-25.5 -43q-1 -3 -3.5 -8.5t-10 -20t-15.5 -27t-21 -25t-26 -17.5q-2 -2 -6 -5t-11 -10.5
t-9 -13t5.5 -10.5t25.5 -5q3 1 7.5 1.5t18 5t26 11.5t27.5 21t25 33q21 36 50 55t58.5 19.5t51 -4.5t40.5 -13q9 -63 43 -92q-51 -6 -91.5 -16.5t-83.5 -35t-71.5 -59.5t-47 -93t-18.5 -134q0 -106 71 -183q-33 -82 6 -181q26 -7 73 10.5t81 38.5l34 21q74 -22 172 -22
q96 0 170 22q5 -3 14.5 -9t35 -20t48 -24t48.5 -16t42 -1q39 100 7 181q70 76 70 183q0 76 -18.5 134.5t-47 93.5t-71.5 59t-83.5 34.5t-91.5 16.5q47 40 47 126q0 54 -0.5 119t-0.5 67q0 17 11.5 28t34.5 6q136 -45 241.5 -140t165.5 -227.5t60 -279.5zM2048 384v1280
q0 105 -51.5 193t-139.5 139.5t-193 51.5h-1280q-105 0 -193 -51.5t-139.5 -139.5t-51.5 -193v-1280q0 -105 51.5 -193t139.5 -139.5t193 -51.5h1280q105 0 193 51.5t139.5 139.5t51.5 193z" />
</svg>
