<?xml version="1.0" standalone="no"?>
<!DOCTYPE svg PUBLIC "-//W3C//DTD SVG 1.1//EN" "http://www.w3.org/Graphics/SVG/1.1/DTD/svg11.dtd" >
<svg xmlns="http://www.w3.org/2000/svg" xmlns:xlink="http://www.w3.org/1999/xlink" version="1.1" width="2048" height="2048" viewBox="-10 0 2068 2048">
   <path fill="currentColor"
d="M1024 1067q103 0 211 33q-17 58 -17 99v21q-49 41 -78 99t-29 120v268l-87 112l-318 -397q-458 -573 -706 -883q219 -169 483 -260t541 -91t541 91t483 260l-239 301q-83 -37 -170 -37l-33 4l186 -227q-359 -215 -770 -215t-766 215l450 558q153 -71 318 -71zM1994 1447
v310q0 41 -35 72t-80 31h-483q-42 0 -75 -33t-33 -78v-310q0 -41 33 -74t75 -33v-133q0 -90 74 -154t169 -64t171.5 64t76.5 154v133q41 0 74 35t33 80zM1771 1199q0 -49 -37 -80t-92.5 -31t-95 31t-39.5 80v133h264v-133z" />
</svg>
