<?xml version="1.0" standalone="no"?>
<!DOCTYPE svg PUBLIC "-//W3C//DTD SVG 1.1//EN" "http://www.w3.org/Graphics/SVG/1.1/DTD/svg11.dtd" >
<svg xmlns="http://www.w3.org/2000/svg" xmlns:xlink="http://www.w3.org/1999/xlink" version="1.1" width="2048" height="2048" viewBox="-10 0 2068 2048">
   <path fill="currentColor"
d="M800 953q-56 99 -80 198q-127 10 -259 47q-113 38 -193 82.5t-80 77.5v109h532q24 98 80 193h-800v-302q0 -127 146 -226q127 -80 330 -132q178 -47 324 -47zM800 49q170 0 287.5 118t117.5 287q0 132 -84 245q-128 47 -226 146l-95 10q-164 0 -282 -118t-118 -285
t118 -285t282 -118zM800 242q-84 0 -145.5 61.5t-61.5 148.5t61.5 148t148.5 61t148 -61t61 -148t-61 -148.5t-151 -61.5zM1356 855q188 0 320 131.5t132 319.5q0 132 -71 241l311 310l-141 142l-316 -311q-108 70 -235 70q-188 0 -320 -131.5t-132 -320t132 -320
t320 -131.5zM1356 1057q-104 0 -179 73t-75 176.5t75 176.5t178.5 73t176.5 -73t73 -176.5t-73 -176.5t-176 -73z" />
</svg>
