<?xml version="1.0" standalone="no"?>
<!DOCTYPE svg PUBLIC "-//W3C//DTD SVG 1.1//EN" "http://www.w3.org/Graphics/SVG/1.1/DTD/svg11.dtd" >
<svg xmlns="http://www.w3.org/2000/svg" xmlns:xlink="http://www.w3.org/1999/xlink" version="1.1" width="2048" height="2048" viewBox="-10 0 2068 2048">
   <path fill="currentColor"
d="M1575 1772.5q0 -32.5 -23 -55.5t-55.5 -23t-55.5 23t-23 55.5t23 55.5t55.5 23t55.5 -23t23 -55.5zM1890 1772.5q0 -32.5 -23.5 -55.5t-55.5 -23t-55 23t-23 55.5t23 55.5t55 23t55.5 -23t23.5 -55.5zM2048 1497v394q0 49 -34.5 83t-83.5 34h-1812q-49 0 -83.5 -34
t-34.5 -83v-394q0 -50 34.5 -84.5t83.5 -34.5h526q25 70 86 113.5t137 43.5h314q76 0 137 -43.5t86 -113.5h526q49 0 83.5 34.5t34.5 84.5zM1647 699q-9 22 -28.5 35.5t-43.5 13.5h-315v552q0 32 -23 55t-56 23h-314q-33 0 -56.5 -23t-23.5 -55v-552h-314q-24 0 -44.5 -13.5
t-29.5 -35.5q-9 -21 -4.5 -45t22.5 -40l551 -552q21 -22 56 -22q34 0 55 22l551 552q18 16 22.5 40t-5.5 45z" />
</svg>
