<?xml version="1.0" standalone="no"?>
<!DOCTYPE svg PUBLIC "-//W3C//DTD SVG 1.1//EN" "http://www.w3.org/Graphics/SVG/1.1/DTD/svg11.dtd" >
<svg xmlns="http://www.w3.org/2000/svg" xmlns:xlink="http://www.w3.org/1999/xlink" version="1.1" width="2048" height="2048" viewBox="-10 0 2067 2048">
   <path fill="currentColor"
d="M1877 931q0 -57 -10 -150t-24 -130q-22 -56 -30.5 -89.5t-8.5 -83.5q0 -31 7 -91t7 -89q0 -49 -14 -74q-6 -1 -18 -1q-26 0 -77.5 6t-77.5 6q-80 0 -235 -32.5t-234 -32.5q-58 0 -126 15.5t-113 31.5t-120 46q-181 72 -269 137q-97 74 -169.5 180t-113.5 227t-60.5 243.5
t-19.5 248.5q0 54 17 160t17 161q0 31 -14.5 89t-14.5 87t16 49t44 20q33 0 97.5 -15.5t97.5 -15.5q76 0 226.5 21t226.5 21q240 0 378 -47q129 -46 244 -141.5t196 -216t128 -262.5t47 -278zM2047 928q0 164 -55 332t-150.5 309.5t-232 253.5t-291.5 167q-165 58 -434 58
q-76 0 -227 -19.5t-226 -19.5q-32 0 -96.5 19.5t-98.5 19.5q-97 0 -164.5 -74t-67.5 -171q0 -32 15 -90.5t15 -89.5q0 -54 -16.5 -161t-16.5 -162q0 -148 23.5 -290t72.5 -279.5t134.5 -259t199.5 -207.5q108 -82 309 -160q126 -50 223.5 -77t198.5 -27q79 0 233 32t232 32
q25 0 76.5 -7t77.5 -7q56 0 96.5 19t64 53t35 78t11.5 98q0 29 -7 90t-7 90q0 14 1 25t4.5 23t5.5 18t8 21.5t9 22.5q21 53 33 158.5t12 181.5z" />
</svg>
