<?xml version="1.0" standalone="no"?>
<!DOCTYPE svg PUBLIC "-//W3C//DTD SVG 1.1//EN" "http://www.w3.org/Graphics/SVG/1.1/DTD/svg11.dtd" >
<svg xmlns="http://www.w3.org/2000/svg" xmlns:xlink="http://www.w3.org/1999/xlink" version="1.1" width="2048" height="2048" viewBox="-10 0 2058 2048">
   <path fill="currentColor"
d="M651 0q-74 0 -128.5 54.5t-54.5 132.5v371h183v-279h933v1490h-933v-279h-183v371q0 78 54.5 132.5t128.5 54.5h933q74 0 128.5 -54.5t54.5 -132.5v-1674q0 -78 -54.5 -132.5t-128.5 -54.5h-933zM560 745q-118 0 -198.5 80.5t-80.5 198.5t80.5 198.5t198.5 80.5
q91 0 161 -50t100 -137h205v187h183v-187h188v-184h-576q-30 -87 -100 -137t-161 -50zM560 932q44 0 67.5 24t23.5 68t-23.5 68t-67.5 24t-68 -24t-24 -68t24 -68t68 -24z" />
</svg>
