<?xml version="1.0" standalone="no"?>
<!DOCTYPE svg PUBLIC "-//W3C//DTD SVG 1.1//EN" "http://www.w3.org/Graphics/SVG/1.1/DTD/svg11.dtd" >
<svg xmlns="http://www.w3.org/2000/svg" xmlns:xlink="http://www.w3.org/1999/xlink" version="1.1" width="2048" height="2048" viewBox="-10 0 2058 2048">
   <path fill="currentColor"
d="M1839 1477l-131 -131l-200 197l-196 -197l-131 131l196 196l-196 201l131 130l196 -200l200 200l131 -130l-201 -201zM1094 2048h-702q-74 0 -128.5 -54.5t-54.5 -132.5v-1674q0 -78 54.5 -132.5t128.5 -54.5h933q74 0 128.5 54.5t54.5 132.5v929q-92 0 -183 34v-775
h-933v1298h558q0 214 144 375z" />
</svg>
