<?xml version="1.0" standalone="no"?>
<!DOCTYPE svg PUBLIC "-//W3C//DTD SVG 1.1//EN" "http://www.w3.org/Graphics/SVG/1.1/DTD/svg11.dtd" >
<svg xmlns="http://www.w3.org/2000/svg" xmlns:xlink="http://www.w3.org/1999/xlink" version="1.1" width="2048" height="2048" viewBox="-10 0 2068 2048">
   <path fill="currentColor"
d="M923 0v101q-264 29 -471 197l-82 -77l-144 144l82 77q-173 212 -207 481h-101v202h101q34 264 207 471l-82 77l144 144l77 -77q212 173 476 207v101h202v-101q264 -34 471 -207l82 77l144 -144l-82 -77q173 -202 207 -471h101v-202h-101q-34 -269 -207 -476l82 -82
l-144 -144l-77 77q-207 -163 -476 -197v-101h-202zM923 308v307l-106 48l-221 -221q149 -110 327 -134zM1125 308q183 29 332 134l-226 221l-106 -48v-307zM452 591l211 226l-48 106h-307q24 -173 139 -336zM1596 591q115 145 144 332h-307l-48 -106l216 -226h-5zM1024 817
q87 0 147 60t60 147t-60 147t-147 60t-147 -60t-60 -147t60 -147t147 -60zM308 1125h307l58 106l-226 221q-110 -144 -139 -327zM1433 1125h307q-29 183 -139 327l-216 -221zM817 1385l106 48v307q-183 -29 -332 -144zM1231 1385l221 211q-164 125 -327 144v-307z" />
</svg>
