<?xml version="1.0" standalone="no"?>
<!DOCTYPE svg PUBLIC "-//W3C//DTD SVG 1.1//EN" "http://www.w3.org/Graphics/SVG/1.1/DTD/svg11.dtd" >
<svg xmlns="http://www.w3.org/2000/svg" xmlns:xlink="http://www.w3.org/1999/xlink" version="1.1" width="2048" height="2048" viewBox="-10 0 2068 2048">
   <path fill="currentColor"
d="M2048 1063zM2048 1072q0 26 -61 87q-70 75 -170 140q-123 79 -254 118q-187 66 -393 57q-227 -9 -362 -105q-162 -109 -162 -319q0 -153 109.5 -264t266.5 -111t266 111t109 269q0 74 -28 144t-81 122q92 0 192 -31q171 -48 306 -161q35 -31 44 -53l4 -4v-9
q0 -22 -44 -83q-56 -74 -139 -144q-105 -91 -232 -153q-157 -78 -332 -113q214 9 406 74q166 57 302 144q113 74 187 157q66 75 66 118v9zM1022 836q-88 0 -151 63.5t-63 153t63 150.5t150.5 61t151 -61t63.5 -150.5t-63.5 -153t-150.5 -63.5zM214 1055v8q4 40 57 101
q74 83 196 157q166 96 393 157q-266 -22 -480 -109q-170 -74 -284 -175q-92 -83 -96 -131v-8q0 -31 66 -101q74 -78 187 -153q136 -91 288 -148q188 -66 380 -79q-152 35 -297 109q-122 66 -222 153q-83 70 -140 140q-48 61 -48 79z" />
</svg>
