<?xml version="1.0" standalone="no"?>
<!DOCTYPE svg PUBLIC "-//W3C//DTD SVG 1.1//EN" "http://www.w3.org/Graphics/SVG/1.1/DTD/svg11.dtd" >
<svg xmlns="http://www.w3.org/2000/svg" xmlns:xlink="http://www.w3.org/1999/xlink" version="1.1" width="2048" height="2048" viewBox="-10 0 2068 2048">
   <path fill="currentColor"
d="M2048 1618q0 39 -14 102.5t-31 99.5q-8 21 -24.5 40.5t-31 33.5t-41 31.5t-39.5 25t-42 23.5q-133 74 -270 74q-38 0 -76.5 -5t-83 -18.5t-70 -21.5t-80.5 -29t-71 -27q-140 -50 -255 -120q-185 -115 -384 -314t-314 -384q-70 -115 -120 -255q-6 -16 -27 -71t-29 -80.5
t-21.5 -70t-18.5 -83t-5 -76.5q0 -137 74 -270q16 -29 23.5 -42t25 -39.5t31.5 -41t33.5 -31t40.5 -24.5q36 -17 99.5 -31t102.5 -14q21 0 31 4q29 10 77 111q16 27 64.5 114.5t75.5 134.5q5 8 25.5 37t31 50.5t10.5 41.5q0 24 -27.5 56.5t-66 64t-77.5 62.5t-66 61.5
t-27 51.5q0 11 3.5 24t11.5 28.5t13 25t16 27t13 21.5q110 199 253 342t342 253q4 2 21.5 13t27 16t25 13t28.5 11.5t24 3.5q18 0 43 -19.5t49 -49t52 -63.5t53 -63.5t52 -49t47 -19.5t41.5 10.5t50.5 31t37 25.5q47 27 134.5 75.5t114.5 64.5q101 48 111 77q4 10 4 31z" />
</svg>
