<?xml version="1.0" standalone="no"?>
<!DOCTYPE svg PUBLIC "-//W3C//DTD SVG 1.1//EN" "http://www.w3.org/Graphics/SVG/1.1/DTD/svg11.dtd" >
<svg xmlns="http://www.w3.org/2000/svg" xmlns:xlink="http://www.w3.org/1999/xlink" version="1.1" width="2048" height="2048" viewBox="-10 0 2068 2048">
   <path fill="currentColor"
d="M1482 1945q-144 0 -254 -130q-91 -110 -168 -326q-48 -134 -134 -436q-101 -350 -159 -499q-105 -245 -206 -245q-153 0 -249 183q-63 134 -91 345q-20 115 -20 187h-201q0 -115 19 -254q43 -269 149 -437q144 -230 393 -230q144 0 254 130q91 110 173 331
q48 134 134 431v10q96 340 154 484q105 250 206 250q158 0 249 -183q68 -134 96 -345q15 -110 15 -187h206q0 115 -24 254q-43 269 -149 437q-144 230 -393 230z" />
</svg>
