<?xml version="1.0" standalone="no"?>
<!DOCTYPE svg PUBLIC "-//W3C//DTD SVG 1.1//EN" "http://www.w3.org/Graphics/SVG/1.1/DTD/svg11.dtd" >
<svg xmlns="http://www.w3.org/2000/svg" xmlns:xlink="http://www.w3.org/1999/xlink" version="1.1" width="2048" height="2048" viewBox="-10 0 2058 2048">
   <path fill="currentColor"
d="M903 0l-168 255l116 77l-327 485h-15q-82 0 -142 60t-60 147q0 72 46 127.5t113 74.5l418 620h-375v202h1029v-202h-413l-457 -692q48 -58 48 -130q0 -48 -19 -91l327 -486q-20 130 50 260t200 216l456 -683q-129 -86 -276 -100.5t-262 52.5zM1673 510l-169 259
q53 34 115.5 22t96.5 -65t22 -115.5t-65 -100.5z" />
</svg>
