<?xml version="1.0" standalone="no"?>
<!DOCTYPE svg PUBLIC "-//W3C//DTD SVG 1.1//EN" "http://www.w3.org/Graphics/SVG/1.1/DTD/svg11.dtd" >
<svg xmlns="http://www.w3.org/2000/svg" xmlns:xlink="http://www.w3.org/1999/xlink" version="1.1" width="2048" height="2048" viewBox="-10 0 2058 2048">
   <path fill="currentColor"
d="M1006 1072l4 -4v-44l-4 -48l105 -74q8 -9 4 -31l-96 -161q-9 -13 -30 -8l-118 47q-35 -30 -83 -47l-17 -122q0 -22 -22 -22h-187q-26 0 -26 22l-22 122q-26 13 -79 43l-117 -48q-22 -4 -31 13l-96 161q-8 18 5 31l104 74q-4 26 -4 48l4 48l-104 74q-13 9 -5 31l96 161
q5 13 31 13l117 -48q40 26 83 43l18 122q0 22 26 22h187q22 0 26 -22l18 -122q30 -13 78 -43l122 48q17 4 26 -13l100 -161q5 -18 -8 -31zM653 1185q-70 0 -117.5 -45.5t-47.5 -115.5t47.5 -115.5t117.5 -45.5t118 45.5t48 115.5t-48 115.5t-118 45.5zM1677 0h-932
q-74 0 -128.5 54.5t-54.5 132.5v279h183v-187h932v1490h-932v-187h-183v279q0 78 54.5 132.5t128.5 54.5h932q74 0 128.5 -54.5t54.5 -132.5v-1674q0 -78 -54.5 -132.5t-128.5 -54.5z" />
</svg>
