<?xml version="1.0" standalone="no"?>
<!DOCTYPE svg PUBLIC "-//W3C//DTD SVG 1.1//EN" "http://www.w3.org/Graphics/SVG/1.1/DTD/svg11.dtd" >
<svg xmlns="http://www.w3.org/2000/svg" xmlns:xlink="http://www.w3.org/1999/xlink" version="1.1" width="2048" height="2048" viewBox="-10 0 2058 2048">
   <path fill="currentColor"
d="M1024 0q103 0 175.5 72.5t72.5 175.5t-72.5 178t-175.5 75t-175.5 -75t-72.5 -178t72.5 -175.5t175.5 -72.5zM1413 351q103 0 199 56.5t154.5 150t58.5 192.5q94 0 148 58.5t54 140.5t-54 140.5t-148 58.5h-1602q-94 0 -148 -58.5t-54 -140.5t54 -140.5t148 -58.5
q0 -99 58.5 -192.5t154.5 -150t199 -56.5q38 132 143 216t246 84t246 -84t143 -216zM326 1350h300l98 698h-201zM822 1350h404l-104 698h-196zM1422 1350h300l-197 698h-201z" />
</svg>
