<?xml version="1.0" standalone="no"?>
<!DOCTYPE svg PUBLIC "-//W3C//DTD SVG 1.1//EN" "http://www.w3.org/Graphics/SVG/1.1/DTD/svg11.dtd" >
<svg xmlns="http://www.w3.org/2000/svg" xmlns:xlink="http://www.w3.org/1999/xlink" version="1.1" width="2048" height="2048" viewBox="-10 0 2068 2048">
   <path fill="currentColor"
d="M1228 103q-259 0 -465.5 72t-297.5 192l537 537q120 19 226 19q220 0 409.5 -55t300 -148.5t110.5 -206.5t-110.5 -206.5t-300 -148.5t-409.5 -55zM403 520l-149 144l259 259h-513v202h513l-259 259l149 144l503 -504zM2048 717q0 110 -110.5 203.5t-300 149t-409.5 55.5
q-96 0 -197 -10l-249 250q206 67 446 67q220 0 409.5 -55.5t300 -149t110.5 -203.5v-307zM2048 1230q0 111 -110.5 204.5t-300 148.5t-409.5 55q-168 0 -321.5 -33.5t-273.5 -96.5l-168 173q87 120 295.5 192t467.5 72q220 0 409.5 -55t300 -148.5t110.5 -204.5v-307z" />
</svg>
