<?xml version="1.0" standalone="no"?>
<!DOCTYPE svg PUBLIC "-//W3C//DTD SVG 1.1//EN" "http://www.w3.org/Graphics/SVG/1.1/DTD/svg11.dtd" >
<svg xmlns="http://www.w3.org/2000/svg" xmlns:xlink="http://www.w3.org/1999/xlink" version="1.1" width="2048" height="2048" viewBox="-10 0 2068 2048">
   <path fill="currentColor"
d="M1865 2005h-336l24 -284h-164l-24 284h-682l-24 -284h-164l24 284h-336l-183 -1212l466 -750h1116l466 750zM1490 418h-298l19 140h-374l19 -140h-298l-188 375l96 745h1116l96 -745zM1327 1288q-19 0 -33.5 -50.5t-14.5 -122.5t14.5 -122.5t33.5 -50.5t33.5 50.5
t14.5 122.5t-14.5 122.5t-33.5 50.5zM740 1303q-19 0 -33.5 -50.5t-14.5 -122.5t14.5 -122.5t34 -50.5t31.5 50.5t12 122.5t-12 122.5t-32 50.5z" />
</svg>
