<?xml version="1.0" standalone="no"?>
<!DOCTYPE svg PUBLIC "-//W3C//DTD SVG 1.1//EN" "http://www.w3.org/Graphics/SVG/1.1/DTD/svg11.dtd" >
<svg xmlns="http://www.w3.org/2000/svg" xmlns:xlink="http://www.w3.org/1999/xlink" version="1.1" width="2048" height="2048" viewBox="-10 0 2068 2048">
   <path fill="currentColor"
d="M184 182h1461q77 0 130.5 53.5t53.5 130.5v442q-141 -137 -338 -163l154 -94v-185l-728 459l-733 -459v185l699 432q-60 120 -60 253q0 116 42.5 221t124.5 190h-806q-77 0 -130.5 -53.5t-53.5 -130.5v-1097q0 -77 53.5 -130.5t130.5 -53.5zM1418 825q172 0 291.5 120
t119.5 291q0 120 -64 219l283 282l-129 129l-282 -283q-103 64 -219 64q-171 0 -291 -120t-120 -291t120 -291t291 -120zM1418 1005q-94 0 -160.5 68.5t-66.5 162.5t66.5 160.5t160.5 66.5t160.5 -66.5t66.5 -160.5t-66.5 -162.5t-160.5 -68.5z" />
</svg>
