<?xml version="1.0" standalone="no"?>
<!DOCTYPE svg PUBLIC "-//W3C//DTD SVG 1.1//EN" "http://www.w3.org/Graphics/SVG/1.1/DTD/svg11.dtd" >
<svg xmlns="http://www.w3.org/2000/svg" xmlns:xlink="http://www.w3.org/1999/xlink" version="1.1" width="2048" height="2048" viewBox="-10 0 2068 2048">
   <path fill="currentColor"
d="M1418 825q172 0 291.5 120t119.5 291q0 120 -64 219l283 282l-129 129l-282 -283q-103 64 -219 64q-171 0 -291 -120t-120 -291t120 -291t291 -120zM1418 1005q-94 0 -160.5 68.5t-66.5 162.5t66.5 160.5t160.5 66.5t160.5 -66.5t66.5 -160.5t-66.5 -162.5t-160.5 -68.5z
M870 1463h-686v-912l699 432q68 -154 214 -248t321 -94q52 0 73 4l154 -94v137q99 38 184 120v-442q0 -77 -53.5 -130.5t-130.5 -53.5h-1461q-77 0 -130.5 53.5t-53.5 130.5v1097q0 77 53.5 130.5t130.5 53.5h806q-77 -81 -120 -184zM1645 366l-728 459l-733 -459h1461z" />
</svg>
