<?xml version="1.0" standalone="no"?>
<!DOCTYPE svg PUBLIC "-//W3C//DTD SVG 1.1//EN" "http://www.w3.org/Graphics/SVG/1.1/DTD/svg11.dtd" >
<svg xmlns="http://www.w3.org/2000/svg" xmlns:xlink="http://www.w3.org/1999/xlink" version="1.1" width="2048" height="2048" viewBox="-10 0 2068 2048">
   <path fill="currentColor"
d="M229 0q-96 0 -162.5 66.5t-66.5 162.5v1590q0 96 66.5 162.5t162.5 66.5h1590q96 0 162.5 -66.5t66.5 -162.5v-1590q0 -96 -66.5 -162.5t-162.5 -66.5h-1590zM1227 341h181l128 294l123 -294h186l-112 283q-128 309 -202 437q-32 48 -91 77.5t-133 29.5v-171
q69 0 117 -74q11 -11 27 -48v-6zM389 752l315 315l320 -315l160 160l-315 315l315 320l-160 160l-320 -320l-315 320l-160 -160l315 -320l-315 -315z" />
</svg>
