<?xml version="1.0" standalone="no"?>
<!DOCTYPE svg PUBLIC "-//W3C//DTD SVG 1.1//EN" "http://www.w3.org/Graphics/SVG/1.1/DTD/svg11.dtd" >
<svg xmlns="http://www.w3.org/2000/svg" xmlns:xlink="http://www.w3.org/1999/xlink" version="1.1" width="2048" height="2048" viewBox="-10 0 2068 2048">
   <path fill="currentColor"
d="M562 0q-153 0 -283 74.5t-204.5 204.5t-74.5 283v53h202v-53q0 -149 105.5 -254.5t254.5 -105.5q116 0 205 65t132 166q-62 -24 -130 -24q-106 0 -194.5 55t-132.5 151l178 101q19 -43 57.5 -72t91.5 -29q63 0 108.5 43.5t45.5 110.5v154h202v-154q0 -67 45.5 -110.5
t108.5 -43.5q53 0 91.5 29t57.5 72l178 -101q-44 -96 -132.5 -151t-194.5 -55q-68 0 -130 24q43 -101 132 -166t205 -65q149 0 254.5 105.5t105.5 254.5v53h202v-53q0 -110 -43.5 -213.5t-122.5 -182.5t-182.5 -122.5t-213.5 -43.5q-140 0 -262.5 65t-199.5 175
q-77 -110 -199.5 -175t-262.5 -65zM409 1024v207h144q38 86 108 153.5t156 105.5v250h-817l144 217q29 43 72.5 67t95.5 24h1424q52 0 95.5 -24t72.5 -67l144 -217h-817v-250q86 -38 156 -105.5t108 -153.5h144v-207h-1230z" />
</svg>
