<?xml version="1.0" standalone="no"?>
<!DOCTYPE svg PUBLIC "-//W3C//DTD SVG 1.1//EN" "http://www.w3.org/Graphics/SVG/1.1/DTD/svg11.dtd" >
<svg xmlns="http://www.w3.org/2000/svg" xmlns:xlink="http://www.w3.org/1999/xlink" version="1.1" width="2048" height="2048" viewBox="-10 0 2058 2048">
   <path fill="currentColor"
d="M1328 0l-154 154l154 154l154 -154zM920 101q-39 221 57 365q82 130 245.5 171t334 -19t286.5 -209l-207 -154q-43 62 -125 110q-96 58 -197 63q-115 5 -212 -67q-110 -82 -182 -260zM713 510q-130 0 -308 77q-91 38 -154 76l154 260q77 -77 204.5 -110.5t202 5t69.5 89
t-67.5 91t-149 52.5t-158.5 -26v361q144 -73 269 -53q106 24 149.5 101t-4.5 153q-111 164 -260 169q-130 5 -269 -111q-120 -101 -206.5 -250t-86.5 -269q-97 288 0 514q81 193 274 308q168 101 341 101q250 0 351 -163q115 -193 10 -553h153q-57 168 5 327q53 153 183 230
t264 24q154 -57 265 -274q43 -81 53 -221q9 -154 -29 -293q-44 -159 -140 -250q-115 -106 -293 -106q-135 0 -226 82q-53 48 -125 173q-48 82 -72 111q-43 52 -101 66.5t-144 -23.5q168 -168 187 -332q20 -144 -81 -240t-260 -96zM1737 1024q86 87 77 212
q-10 105 -84.5 203.5t-170.5 139.5t-159 -12q-72 -62 -72 -235q0 -106 62.5 -207t149.5 -135q101 -38 197 34z" />
</svg>
