<?xml version="1.0" standalone="no"?>
<!DOCTYPE svg PUBLIC "-//W3C//DTD SVG 1.1//EN" "http://www.w3.org/Graphics/SVG/1.1/DTD/svg11.dtd" >
<svg xmlns="http://www.w3.org/2000/svg" xmlns:xlink="http://www.w3.org/1999/xlink" version="1.1" width="2048" height="2048" viewBox="-10 0 2068 2048">
   <path fill="currentColor"
d="M604 420q-165 0 -304.5 80t-219.5 219.5t-80 304.5v481q0 52 35.5 87.5t82.5 35.5h283v-401h-203v-203q0 -165 118 -283t285.5 -118t285.5 118t118 283v203h-203v401h283q52 0 87.5 -35.5t35.5 -87.5v-481q0 -165 -82.5 -304.5t-222 -219.5t-299.5 -80zM1708 519v382
l-231 -231l-71 71l283 283l-283 283l71 71l231 -231v382h52l288 -288l-217 -217l217 -217l-288 -288h-52zM1812 713l94 94l-94 94v-188zM1812 1147l94 94l-94 94v-188z" />
</svg>
