<?xml version="1.0" standalone="no"?>
<!DOCTYPE svg PUBLIC "-//W3C//DTD SVG 1.1//EN" "http://www.w3.org/Graphics/SVG/1.1/DTD/svg11.dtd" >
<svg xmlns="http://www.w3.org/2000/svg" xmlns:xlink="http://www.w3.org/1999/xlink" version="1.1" width="2048" height="2048" viewBox="-10 0 2068 2048">
   <path fill="currentColor"
d="M1024 0q-279 0 -514.5 137t-372.5 372.5t-137 514.5q0 202 77 392t221 334t334 221t392 77t392 -77t334 -221t221 -334t77 -392t-77 -392t-221 -334t-334 -221t-392 -77zM793 596q68 0 128 29t103 77q43 -48 103 -77t128 -29q120 0 201.5 82t81.5 197q0 135 -120 279
q-77 96 -317 312l-77 72l-77 -72q-240 -216 -317 -312q-120 -144 -120 -279q0 -115 81.5 -197t201.5 -82z" />
</svg>
