<?xml version="1.0" standalone="no"?>
<!DOCTYPE svg PUBLIC "-//W3C//DTD SVG 1.1//EN" "http://www.w3.org/Graphics/SVG/1.1/DTD/svg11.dtd" >
<svg xmlns="http://www.w3.org/2000/svg" xmlns:xlink="http://www.w3.org/1999/xlink" version="1.1" width="2048" height="2048" viewBox="-10 0 2068 2048">
   <path fill="currentColor"
d="M1053 0h-29q-202 0 -392 77t-334 221.5t-221 334t-77 391.5t77 392t221 334t334 221t399 77t373 -67q130 -58 288 -188q-274 77 -533 -19q-241 -87 -392.5 -291t-151.5 -459t151.5 -459t392.5 -291q259 -96 533 -19q-130 -125 -293.5 -192t-345.5 -63zM1514 428l-154 361
l-379 28l298 260l-92 356l327 -202l332 202l-106 -356l308 -260l-380 -28z" />
</svg>
