<?xml version="1.0" standalone="no"?>
<!DOCTYPE svg PUBLIC "-//W3C//DTD SVG 1.1//EN" "http://www.w3.org/Graphics/SVG/1.1/DTD/svg11.dtd" >
<svg xmlns="http://www.w3.org/2000/svg" xmlns:xlink="http://www.w3.org/1999/xlink" version="1.1" width="2048" height="2048" viewBox="-10 0 2068 2048">
   <path fill="currentColor"
d="M1356 21q188 0 320 132t132 320q0 132 -71 240l311 311l-141 141l-316 -310q-108 70 -235 70q-188 0 -320 -132t-132 -320t132 -320t320 -132zM1356 219q-104 0 -179 75.5t-75 179t75 176.5t178.5 73t176.5 -73t73 -176.5t-73 -179t-176 -75.5zM551 1274l-353 451h1407
l-452 -602l-353 452zM1808 1829q0 80 -59 139t-144 59h-1407q-80 0 -139 -59t-59 -139v-1408q0 -84 59 -143t139 -59h555q-52 122 -52 254q0 174 87.5 325t238 238t329.5 87q99 0 193 -28l259 254v480z" />
</svg>
