<?xml version="1.0" standalone="no"?>
<!DOCTYPE svg PUBLIC "-//W3C//DTD SVG 1.1//EN" "http://www.w3.org/Graphics/SVG/1.1/DTD/svg11.dtd" >
<svg xmlns="http://www.w3.org/2000/svg" xmlns:xlink="http://www.w3.org/1999/xlink" version="1.1" width="2048" height="2048" viewBox="-10 0 2058 2048">
   <path fill="currentColor"
d="M1024 0l-298 510h-596l307 514l-307 514h596l298 510l298 -510h596l-307 -514l307 -514h-596zM1024 308l125 202h-250zM635 663l-116 207l-120 -207h236zM817 663h414l202 361l-202 361h-414l-202 -361zM1639 663l-125 207l-110 -207h235zM519 1178l116 207h-226z
M1529 1178l120 207h-236zM1159 1538l-135 202l-125 -202h260z" />
</svg>
