<?xml version="1.0" standalone="no"?>
<!DOCTYPE svg PUBLIC "-//W3C//DTD SVG 1.1//EN" "http://www.w3.org/Graphics/SVG/1.1/DTD/svg11.dtd" >
<svg xmlns="http://www.w3.org/2000/svg" xmlns:xlink="http://www.w3.org/1999/xlink" version="1.1" width="2048" height="2048" viewBox="-10 0 2068 2048">
   <path fill="currentColor"
d="M1228 1638v206h820v-206h-820zM1041 1878l-427 -149l-547 211q-5 5 -14 5q-24 0 -38.5 -14.5t-14.5 -38.5v-1544q0 -39 38 -48l576 -197l614 216l547 -216h14q24 0 38.5 14.5t14.5 38.5v1007q-101 -38 -206 -38q-235 0 -408 158v-763l-614 -211v1219l412 143q-4 24 -4 68
q0 67 19 139z" />
</svg>
