<?xml version="1.0" standalone="no"?>
<!DOCTYPE svg PUBLIC "-//W3C//DTD SVG 1.1//EN" "http://www.w3.org/Graphics/SVG/1.1/DTD/svg11.dtd" >
<svg xmlns="http://www.w3.org/2000/svg" xmlns:xlink="http://www.w3.org/1999/xlink" version="1.1" width="2048" height="2048" viewBox="-10 0 2068 2048">
   <path fill="currentColor"
d="M1989 0l-16 5l-608 235l-682 -240l-640 219q-43 10 -43 53v1717q0 27 16 43t43 16l16 -5l608 -235l682 240l640 -219q43 -10 43 -53v-1717q0 -27 -16 -43t-43 -16zM795 283l458 160v1322l-458 -160v-1322zM229 395l342 -118v1334l-342 133v-1349zM1819 1653l-342 118
v-1334l342 -128v1344z" />
</svg>
