<?xml version="1.0" standalone="no"?>
<!DOCTYPE svg PUBLIC "-//W3C//DTD SVG 1.1//EN" "http://www.w3.org/Graphics/SVG/1.1/DTD/svg11.dtd" >
<svg xmlns="http://www.w3.org/2000/svg" xmlns:xlink="http://www.w3.org/1999/xlink" version="1.1" width="2048" height="2048" viewBox="-10 0 2068 2048">
   <path fill="currentColor"
d="M202 1125q-82 0 -142 60t-60 147v408q0 87 60 147t142 60h413q82 0 142 -60t60 -147v-408q0 -87 -60 -147t-142 -60h-413zM635 1279l110 110l-413 404l-260 -259l111 -111l154 154zM202 101q-82 0 -142 60t-60 147v408q0 87 60 147t142 60h413q82 0 142 -60t60 -147v-408
q0 -87 -60 -147t-142 -60h-413zM202 308h413v408h-413v-408zM1024 308h1024v202h-1024v-202zM1024 1740v-202h1024v202h-1024zM1024 923h1024v202h-1024v-202z" />
</svg>
