<?xml version="1.0" standalone="no"?>
<!DOCTYPE svg PUBLIC "-//W3C//DTD SVG 1.1//EN" "http://www.w3.org/Graphics/SVG/1.1/DTD/svg11.dtd" >
<svg xmlns="http://www.w3.org/2000/svg" xmlns:xlink="http://www.w3.org/1999/xlink" version="1.1" width="2048" height="2048" viewBox="-10 0 2068 2048">
   <path fill="currentColor"
d="M1707 1420q0 -14 -2 -21t-23.5 -22t-54.5 -33.5t-63.5 -35.5t-61 -33.5t-37.5 -20.5q-5 -2 -25 -16t-34 -20.5t-28 -6.5q-19 0 -48 27.5t-53.5 60t-52 59.5t-44.5 27q-12 0 -26 -5.5t-34.5 -17.5t-23.5 -14q-132 -75 -226.5 -169.5t-169.5 -226.5q-2 -3 -14 -23.5
t-17.5 -34.5t-5.5 -26q0 -17 27.5 -44.5t60 -51.5t60 -52.5t27.5 -48.5q0 -14 -7 -28.5t-20.5 -34t-16.5 -25.5q-5 -7 -21 -37.5t-32.5 -61t-35 -63t-33.5 -53.5t-22 -24q-11 -3 -22 -3q-25 0 -67 10t-67 20q-42 19 -78 74t-55 116.5t-19 109.5q0 26 3 50.5t12.5 56t13.5 45
t19.5 54.5t17.5 47q53 144 166.5 290t259.5 260.5t290 166.5q10 3 40 14.5t43.5 16.5t40 13t44 12t41.5 7t45 3q48 0 109.5 -19t116.5 -55.5t74 -78.5q10 -25 19.5 -67t9.5 -67zM2048 384v1280q0 105 -51.5 193t-139.5 139.5t-193 51.5h-1280q-105 0 -193 -51.5
t-139.5 -139.5t-51.5 -193v-1280q0 -105 51.5 -193t139.5 -139.5t193 -51.5h1280q105 0 193 51.5t139.5 139.5t51.5 193z" />
</svg>
