<?xml version="1.0" standalone="no"?>
<!DOCTYPE svg PUBLIC "-//W3C//DTD SVG 1.1//EN" "http://www.w3.org/Graphics/SVG/1.1/DTD/svg11.dtd" >
<svg xmlns="http://www.w3.org/2000/svg" xmlns:xlink="http://www.w3.org/1999/xlink" version="1.1" width="2048" height="2048" viewBox="-10 0 2058 2048">
   <path fill="currentColor"
d="M1341 957q179 0 305 125.5t126 305.5q0 126 -68 229l297 296l-135 135l-301 -296q-103 67 -224 67q-180 0 -306 -126t-126 -305.5t126 -305t306 -125.5zM1341 1150q-99 0 -171 69.5t-72 168.5t72 168.5t170.5 69.5t168.5 -69.5t70 -168.5t-70 -168.5t-168 -69.5zM1722 0
q18 0 34 13.5t16 31.5v894q-90 -81 -193 -126v-557l-288 112v396q-103 13 -193 49v-445l-382 -134v1154q0 90 27 175l-121 -40l-512 197l-18 5q-18 0 -31.5 -16t-13.5 -34v-1450q0 -32 32 -45l543 -180l575 198l512 -198h13zM236 328v1136l287 -108v-1122z" />
</svg>
