<?xml version="1.0" standalone="no"?>
<!DOCTYPE svg PUBLIC "-//W3C//DTD SVG 1.1//EN" "http://www.w3.org/Graphics/SVG/1.1/DTD/svg11.dtd" >
<svg xmlns="http://www.w3.org/2000/svg" xmlns:xlink="http://www.w3.org/1999/xlink" version="1.1" width="2048" height="2048" viewBox="-10 0 2068 2048">
   <path fill="currentColor"
d="M1513 1680v320h-978v-320q0 -101 144 -171.5t345 -70.5t345 70.5t144 171.5zM1024 437q174 0 318 86.5t230.5 230.5t86.5 322.5t-96 329.5l-150 -133q50 -96 50 -201q0 -183 -128 -311t-311 -128t-311 128t-128 311q0 105 50 201l-150 133q-96 -151 -96 -329.5
t86.5 -322.5t230.5 -230.5t318 -86.5zM1024 48q279 0 514.5 137t372.5 372.5t137 514.5q0 329 -192 594l-146 -128q141 -210 141 -466q0 -165 -61.5 -318t-178 -269.5t-269.5 -178t-318 -61.5t-318 61.5t-269.5 178t-178 269.5t-61.5 318q0 256 141 466l-146 128
q-192 -265 -192 -594q0 -279 137 -514.5t372.5 -372.5t514.5 -137zM1024 830q101 0 171.5 70.5t70.5 171.5t-70.5 171.5t-171.5 70.5t-171.5 -70.5t-70.5 -171.5t70.5 -171.5t171.5 -70.5z" />
</svg>
