<?xml version="1.0" standalone="no"?>
<!DOCTYPE svg PUBLIC "-//W3C//DTD SVG 1.1//EN" "http://www.w3.org/Graphics/SVG/1.1/DTD/svg11.dtd" >
<svg xmlns="http://www.w3.org/2000/svg" xmlns:xlink="http://www.w3.org/1999/xlink" version="1.1" width="2048" height="2048" viewBox="-10 0 2058 2048">
   <path fill="currentColor"
d="M1037 515v751q0 9 -4 13.5t-9 4.5q-161 0 -277 -116t-116 -277.5t116 -275t277 -113.5q5 0 9 4.5t4 8.5zM1037 1568v227q-4 96 61.5 170t161.5 83q26 0 31 -26v-1703q-5 -26 -31 -35q-162 -66 -334.5 -37.5t-307.5 135.5t-200.5 271t-39.5 336.5t133 307.5t273 201
q109 43 227 43q9 0 17.5 9t8.5 18zM1417 415v952q0 26 4.5 32.5t21.5 -6.5q136 -114 195 -277.5t30.5 -334t-142.5 -305.5q-39 -52 -83 -83q-17 -13 -21.5 -4.5t-4.5 30.5v-4zM1291 131q0 -52 37 -91.5t91.5 -39.5t91.5 39.5t37 91.5t-37 91.5t-94 39.5q-52 0 -89 -39.5
t-37 -91.5z" />
</svg>
