<?xml version="1.0" standalone="no"?>
<!DOCTYPE svg PUBLIC "-//W3C//DTD SVG 1.1//EN" "http://www.w3.org/Graphics/SVG/1.1/DTD/svg11.dtd" >
<svg xmlns="http://www.w3.org/2000/svg" xmlns:xlink="http://www.w3.org/1999/xlink" version="1.1" width="2048" height="2048" viewBox="-10 0 2058 2048">
   <path fill="currentColor"
d="M229 0v2048h683v-400h224v400h683v-2048h-1590zM453 229h230v224h-230v-224zM912 229h224v224h-224v-224zM1365 229h230v224h-230v-224zM453 683h230v229h-230v-229zM912 683h224v229h-224v-229zM1365 683h230v229h-230v-229zM453 1136h230v229h-230v-229zM912 1136h224
v229h-224v-229zM1365 1136h230v229h-230v-229zM453 1595h230v224h-230v-224zM1365 1595h230v224h-230v-224z" />
</svg>
