<?xml version="1.0" standalone="no"?>
<!DOCTYPE svg PUBLIC "-//W3C//DTD SVG 1.1//EN" "http://www.w3.org/Graphics/SVG/1.1/DTD/svg11.dtd" >
<svg xmlns="http://www.w3.org/2000/svg" xmlns:xlink="http://www.w3.org/1999/xlink" version="1.1" width="2048" height="2048" viewBox="-10 0 2068 2048">
   <path fill="currentColor"
d="M2048 390q-86 126 -210 217q1 18 1 55q0 119 -25.5 240.5t-77 239t-124.5 223.5t-173.5 195.5t-219 155.5t-266 103t-308.5 37q-352 0 -645 -189q57 6 101 6q145 0 278.5 -47t243.5 -133q-136 -2 -244 -83.5t-148 -207.5q52 7 78 7q53 0 111 -15q-146 -29 -241.5 -144.5
t-95.5 -267.5v-5q91 50 190 53q-86 -57 -136.5 -149.5t-50.5 -199.5q0 -114 57 -211q158 193 383 309t483 129q-11 -46 -11 -96q0 -114 56 -210.5t152.5 -153t211.5 -56.5q89 0 169 35.5t138 97.5q141 -27 266 -101q-23 73 -70.5 132t-113.5 99q124 -14 241 -65z" />
</svg>
