<?xml version="1.0" standalone="no"?>
<!DOCTYPE svg PUBLIC "-//W3C//DTD SVG 1.1//EN" "http://www.w3.org/Graphics/SVG/1.1/DTD/svg11.dtd" >
<svg xmlns="http://www.w3.org/2000/svg" xmlns:xlink="http://www.w3.org/1999/xlink" version="1.1" width="2048" height="2048" viewBox="-10 0 2058 2048">
   <path fill="currentColor"
d="M94 305l187 187v440q0 253 109 488.5t300.5 401t427.5 226.5q257 -65 462 -257l209 209l117 -118l-1690 -1695zM1118 1861q-170 -48 -320.5 -187.5t-240 -331.5t-89.5 -392v-275l985 985q-157 153 -335 201zM1954 375v557q0 314 -165 593l-135 -135q113 -213 113 -440
v-458l-649 -287l-449 200l-140 -144l589 -261z" />
</svg>
