<?xml version="1.0" standalone="no"?>
<!DOCTYPE svg PUBLIC "-//W3C//DTD SVG 1.1//EN" "http://www.w3.org/Graphics/SVG/1.1/DTD/svg11.dtd" >
<svg xmlns="http://www.w3.org/2000/svg" xmlns:xlink="http://www.w3.org/1999/xlink" version="1.1" width="2048" height="2048" viewBox="-10 0 2058 2048">
   <path fill="currentColor"
d="M1846 1846q43 0 72 29t29 72t-29 72t-72 29t-74.5 -29t-31.5 -72t31.5 -72t74.5 -29zM1433 1846q43 0 74 29t31 72t-31 72t-74.5 29t-72 -29t-28.5 -72t28.5 -72t72.5 -29zM1024 1846q43 0 72 29t29 72t-29 72t-72 29t-72 -29t-29 -72t29 -72t72 -29zM615 1846
q44 0 72.5 29t28.5 72t-28.5 72t-72 29t-74.5 -29t-31 -72t31 -72t74 -29zM202 1846q43 0 74.5 29t31.5 72t-31.5 72t-74.5 29t-72 -29t-29 -72t29 -72t72 -29zM408.5 1538q43.5 0 72.5 29t29 72.5t-29 72t-72.5 28.5t-72 -28.5t-28.5 -72t28.5 -72.5t72 -29zM817 1538
q44 0 75 29t31 72.5t-31 72t-74.5 28.5t-72.5 -28.5t-29 -72t29 -72.5t72 -29zM1231 1538q43 0 72 29t29 72.5t-29 72t-72.5 28.5t-74.5 -28.5t-31 -72t31 -72.5t75 -29zM1639 1538q44 0 72.5 29t28.5 72.5t-28.5 72t-72 28.5t-72.5 -28.5t-29 -72t29 -72.5t72 -29z
M615 1231q44 0 72.5 28.5t28.5 72t-28.5 72.5t-72 29t-74.5 -29t-31 -72.5t31 -72t74 -28.5zM1024 1231q43 0 72 28.5t29 72t-29 72.5t-72 29t-72 -29t-29 -72.5t29 -72t72 -28.5zM1433 1231q43 0 74 28.5t31 72t-31 72.5t-74.5 29t-72 -29t-28.5 -72.5t28.5 -72t72.5 -28.5
zM1740 1024h-1432v-207h1432v207zM1630 716h-1212q29 -192 171 -331.5t334 -172.5v-212h202v212q192 33 334 172.5t171 331.5z" />
</svg>
