<?xml version="1.0" standalone="no"?>
<!DOCTYPE svg PUBLIC "-//W3C//DTD SVG 1.1//EN" "http://www.w3.org/Graphics/SVG/1.1/DTD/svg11.dtd" >
<svg xmlns="http://www.w3.org/2000/svg" xmlns:xlink="http://www.w3.org/1999/xlink" version="1.1" width="2048" height="2048" viewBox="-10 0 2068 2048">
   <path fill="currentColor"
d="M179 223h1514q71 0 123.5 52t52.5 128v179h-355v-179h-1155v1067h801v180h-981q-75 0 -127 -52.5t-52 -127.5v-1067q0 -76 52 -128t127 -52zM1427 757h533q38 0 63 27t25 65v888q0 38 -25 63t-63 25h-533q-38 0 -65 -25t-27 -63v-888q0 -38 27 -65t65 -27zM1514 936v622
h355v-622h-355z" />
</svg>
