<?xml version="1.0" standalone="no"?>
<!DOCTYPE svg PUBLIC "-//W3C//DTD SVG 1.1//EN" "http://www.w3.org/Graphics/SVG/1.1/DTD/svg11.dtd" >
<svg xmlns="http://www.w3.org/2000/svg" xmlns:xlink="http://www.w3.org/1999/xlink" version="1.1" width="2048" height="2048" viewBox="-10 0 2058 2048">
   <path fill="currentColor"
d="M716 2048h822v-255q188 -130 298.5 -331.5t110.5 -437.5v-822q0 -82 -60 -142t-147 -60h-408q-87 0 -147 60t-60 142v822h-1024q0 245 154 447q163 212 461 322v255zM337 1231h1374q-43 144 -144 262t-235 180v173h-409v-173q-106 -14 -233.5 -86.5t-223.5 -163.5
q-101 -101 -129 -192zM1332 202h408v822h-408v-822zM1433 308v307h206v-307h-206z" />
</svg>
