<?xml version="1.0" standalone="no"?>
<!DOCTYPE svg PUBLIC "-//W3C//DTD SVG 1.1//EN" "http://www.w3.org/Graphics/SVG/1.1/DTD/svg11.dtd" >
<svg xmlns="http://www.w3.org/2000/svg" xmlns:xlink="http://www.w3.org/1999/xlink" version="1.1" width="2048" height="2048" viewBox="-10 0 2068 2048">
   <path fill="currentColor"
d="M1024 48l-365 572l-659 173l428 524l-39 683l635 -250l635 250l-39 -683l428 -524l-659 -173zM755 870q48 0 81.5 33.5t33.5 82t-33.5 82t-81.5 33.5t-82 -33.5t-34 -82t34 -82t82 -33.5zM1293 870q48 0 82 33.5t34 82t-34 82t-82 33.5t-81.5 -33.5t-33.5 -82t33.5 -82
t81.5 -33.5zM716 1332h616q-39 91 -123 148.5t-185 57.5t-185 -57.5t-123 -148.5z" />
</svg>
