<?xml version="1.0" standalone="no"?>
<!DOCTYPE svg PUBLIC "-//W3C//DTD SVG 1.1//EN" "http://www.w3.org/Graphics/SVG/1.1/DTD/svg11.dtd" >
<svg xmlns="http://www.w3.org/2000/svg" xmlns:xlink="http://www.w3.org/1999/xlink" version="1.1" width="2048" height="2048" viewBox="-10 0 2068 2048">
   <path fill="currentColor"
d="M1745 288q-259 -250 -620 -288v370l923 529q-43 -356 -303 -611zM1024 2048q529 0 837 -423l-318 -192l-923 533q192 82 404 82zM1125 962l836 480q73 -149 87 -303l-923 -533v356zM192 1620q101 144 221 226l923 -524l-312 -178zM928 0q-159 10 -313 82v1062l313 -182
v-962zM0 1024q0 212 91 423l318 -187v-1058q-409 308 -409 822z" />
</svg>
