<?xml version="1.0" standalone="no"?>
<!DOCTYPE svg PUBLIC "-//W3C//DTD SVG 1.1//EN" "http://www.w3.org/Graphics/SVG/1.1/DTD/svg11.dtd" >
<svg xmlns="http://www.w3.org/2000/svg" xmlns:xlink="http://www.w3.org/1999/xlink" version="1.1" width="2048" height="2048" viewBox="-10 0 2068 2048">
   <path fill="currentColor"
d="M1024 101q168 0 288.5 120t120.5 289q0 115 -53 206h259q72 0 127.5 46t74.5 113l183 736q24 115 24 129q0 87 -60 147t-142 60h-1644q-82 0 -142 -60t-60 -147q0 -14 24 -129l183 -736q19 -67 74.5 -113t127.5 -46h259q-53 -91 -53 -206q0 -169 120.5 -289t288.5 -120z
M1024 308q-87 0 -147 60t-60 144t60 144t147 60t147 -60t60 -144t-60 -144t-147 -60zM409 923v817h514v-202h-308v-615h-206zM1125 923v817h308q86 0 146 -60t60 -142v-52q0 -92 -72 -154q72 -63 72 -154v-53q0 -82 -60 -142t-146 -60h-308zM1332 1125h101v106h-101v-106z
M1332 1433h101v105h-101v-105z" />
</svg>
