<?xml version="1.0" standalone="no"?>
<!DOCTYPE svg PUBLIC "-//W3C//DTD SVG 1.1//EN" "http://www.w3.org/Graphics/SVG/1.1/DTD/svg11.dtd" >
<svg xmlns="http://www.w3.org/2000/svg" xmlns:xlink="http://www.w3.org/1999/xlink" version="1.1" width="2048" height="2048" viewBox="-10 0 2058 2048">
   <path fill="currentColor"
d="M796 1209q-151 -132 -356 -137v292l-388 -388l388 -392v292q251 0 452 155q-60 82 -96 178zM1608 1364v-292q-128 0 -242 55q-214 105 -242 356q114 36 166.5 145.5t14 223.5t-148 166.5t-223.5 11.5t-166.5 -148t-11.5 -222q18 -63 66 -111t112 -66
q13 -174 106.5 -315.5t244.5 -219t324 -72.5v-292l388 392zM1120 1752q0 -41 -27.5 -68.5t-68.5 -27.5t-68.5 27.5t-27.5 68.5t27.5 70.5t68.5 29.5t68.5 -29.5t27.5 -70.5zM928 985q87 -95 192 -164v-429h292l-388 -392l-388 392h292v593z" />
</svg>
