<?xml version="1.0" standalone="no"?>
<!DOCTYPE svg PUBLIC "-//W3C//DTD SVG 1.1//EN" "http://www.w3.org/Graphics/SVG/1.1/DTD/svg11.dtd" >
<svg xmlns="http://www.w3.org/2000/svg" xmlns:xlink="http://www.w3.org/1999/xlink" version="1.1" width="2048" height="2048" viewBox="-10 0 2068 2048">
   <path fill="currentColor"
d="M1024.5 25q139.5 0 272 36.5t245 103t207 161t160.5 206.5t102.5 245t36.5 272q0 167 -52.5 323t-145 282t-221.5 221.5t-281 146.5q-36 6 -53 -10.5t-17 -40.5q0 -4 0.5 -101.5t0.5 -179.5q0 -131 -69 -189q53 -6 98 -15.5t94 -27.5t88 -43t75 -63.5t60 -88t38.5 -117.5
t14.5 -150q0 -158 -106 -276q6 -15 10.5 -35t9 -56t-3 -83.5t-27.5 -97.5q-23 -7 -61 1t-75 25t-70 35.5t-54 31.5l-21 14q-129 -35 -255 -35q-128 0 -257 35q-8 -6 -22 -14.5t-52 -30t-72 -36.5t-73 -24t-62 -2q-20 50 -27.5 97.5t-3 83.5t9 56t10.5 35q-105 117 -105 276
q0 82 14.5 150t38 117t60 88t75 64t87.5 43t94 27.5t98 15.5q-53 48 -65 138q-22 10 -45.5 17t-59 9.5t-67 -5.5t-66.5 -35t-60 -71q-11 -20 -26 -36.5t-29.5 -27.5t-30 -19t-28 -12.5t-22.5 -7t-16 -3.5l-6 -1q-28 0 -39 6.5t-6.5 15.5t12.5 18.5t17 16.5l9 6
q30 14 58.5 51.5t41.5 67.5l14 31q12 37 37.5 64t56.5 40t66 20t67.5 7t59 -2t42.5 -5l16 -3q0 50 1 117.5t1 72.5q0 24 -17.5 40.5t-53.5 10.5q-152 -51 -281 -146.5t-221.5 -221.5t-145 -282t-52.5 -323q0 -139 37 -272t103 -245t160.5 -206.5t207 -161t245 -103
t272 -36.5zM389 1495q3 -9 -10 -15q-13 -4 -17 2q-4 11 9 17q14 6 18 -4zM429 1541q11 -6 -2 -21q-13 -13 -22 -4q-10 6 3 21q13 12 21 4zM469 1601q12 -9 0 -25q-11 -18 -22 -8q-5 2 -5 9.5t5 14.5q12 16 22 9zM525 1657q4 -4 3 -11.5t-8 -13.5q-6 -7 -14 -8t-12 4
q-12 10 4 25q7 7 15 8.5t12 -4.5zM601 1690q2 -6 -3 -12t-13 -9q-9 -2 -16.5 1t-9.5 8q-2 7 3.5 13t13.5 7q8 3 15.5 0.5t9.5 -8.5zM685 1697q0 -7 -6.5 -11.5t-15.5 -3.5q-9 0 -15 4.5t-6 10.5q0 7 6.5 11.5t15.5 3.5q9 0 15 -4.5t6 -10.5zM763 1684q-1 -6 -8 -9.5
t-16 -3.5q-9 2 -14.5 7.5t-4.5 12.5q1 6 8.5 10t16 2t14 -7.5t4.5 -11.5z" />
</svg>
