<?xml version="1.0" standalone="no"?>
<!DOCTYPE svg PUBLIC "-//W3C//DTD SVG 1.1//EN" "http://www.w3.org/Graphics/SVG/1.1/DTD/svg11.dtd" >
<svg xmlns="http://www.w3.org/2000/svg" xmlns:xlink="http://www.w3.org/1999/xlink" version="1.1" width="2048" height="2048" viewBox="-10 0 2068 2048">
   <path fill="currentColor"
d="M0 1024q0 202 77 392t221 334t334 221t392 77t392 -77t334 -221t221 -334t77 -392t-77 -392t-221 -334t-334 -221t-392 -77t-392 77t-334 221t-221 334t-77 392zM332 1716q-140 -139 -214.5 -317t-74.5 -375t74.5 -375t214 -317.5t317.5 -214t375 -74.5t375 74.5
t317.5 214t214 317.5t74.5 375t-74.5 375t-214 317.5t-317.5 214t-375 74.5t-375 -74.5t-317 -214.5zM442 769q-67 77 -110 164q-34 67 -48 139q-10 48 -10 91l5 34l19 -38q29 -53 63 -101q48 -72 110 -135q87 -86 149 -86q24 0 38.5 14t14.5 34v476q0 57 -58 57
q-24 0 -48 -9q87 125 294 192q101 34 182 38l149 -153h5l135 115q110 -63 202 -173q67 -77 120 -168l43 -73q-135 145 -221 140q-39 0 -53 -19l-5 -308q0 -293 5 -293q29 -48 106 -149l72 -92q-111 24 -212 77q-77 44 -134 92l-44 48q-28 -20 -81 -29h-44q29 19 53 57.5
t24 76.5v510l-52 34q-58 38 -101.5 38t-72.5 -38l-14 -20v-629q-14 14 -36 11.5t-34 -26.5t-12 -74.5t34 -98.5q24 -33 62 -67l34 -24q-134 38 -250 110q-130 87 -279 255z" />
</svg>
