<?xml version="1.0" standalone="no"?>
<!DOCTYPE svg PUBLIC "-//W3C//DTD SVG 1.1//EN" "http://www.w3.org/Graphics/SVG/1.1/DTD/svg11.dtd" >
<svg xmlns="http://www.w3.org/2000/svg" xmlns:xlink="http://www.w3.org/1999/xlink" version="1.1" width="2048" height="2048" viewBox="-10 0 2068 2048">
   <path fill="currentColor"
d="M1136 741h571v-229h-571v229zM1136 1536h571v-229h-571v229zM1819 2048h-1590q-96 0 -162.5 -66.5t-66.5 -162.5v-1590q0 -96 66.5 -162.5t162.5 -66.5h1590q96 0 162.5 66.5t66.5 162.5v1590q0 96 -66.5 162.5t-162.5 66.5zM341 912h571v-571h-571v571zM453 453h342v342
h-342v-342zM341 1707h571v-571h-571v571zM453 1253h342v342h-342v-342z" />
</svg>
