<?xml version="1.0" standalone="no"?>
<!DOCTYPE svg PUBLIC "-//W3C//DTD SVG 1.1//EN" "http://www.w3.org/Graphics/SVG/1.1/DTD/svg11.dtd" >
<svg xmlns="http://www.w3.org/2000/svg" xmlns:xlink="http://www.w3.org/1999/xlink" version="1.1" width="2048" height="2048" viewBox="-10 0 2068 2048">
   <path fill="currentColor"
d="M202 308q-82 0 -142 60t-60 142v1028q0 82 60 142t142 60h1644q82 0 142 -60t60 -142v-1028q0 -82 -60 -142t-142 -60h-1644zM615 716q169 0 289 120.5t120 291t-120 290.5t-291 120t-291 -120t-120 -290.5t120 -291t293 -120.5zM1125 716h721v822h-721v-822zM615 923
q-86 0 -146 60t-60 144t60 144.5t144 60.5t144 -60.5t60 -144.5t-60 -144t-142 -60z" />
</svg>
