<?xml version="1.0" standalone="no"?>
<!DOCTYPE svg PUBLIC "-//W3C//DTD SVG 1.1//EN" "http://www.w3.org/Graphics/SVG/1.1/DTD/svg11.dtd" >
<svg xmlns="http://www.w3.org/2000/svg" xmlns:xlink="http://www.w3.org/1999/xlink" version="1.1" width="2048" height="2048" viewBox="-10 0 2068 2048">
   <path fill="currentColor"
d="M1972 1162q5 117 -44.5 222.5t-143.5 176.5l75 145q38 75 7.5 148t-105.5 101l-80 23q-23 10 -56 10q-80 0 -131 -66l-212 -249q-136 -23 -244 -108q-75 19 -150 19q-136 0 -248 -75q-80 23 -165 19q-117 5 -227 -44.5t-176 -145.5t-70 -214q-10 -112 37 -211
q-47 -117 -9 -234q56 -146 197 -226q42 -126 152.5 -201t246.5 -66q122 -113 286 -124.5t295 86.5q66 -18 132 -18q103 0 194.5 42t157.5 122q150 42 250.5 164t105.5 282q10 173 -84 314q9 56 9 108zM1470 1021q47 5 75 35.5t28 72.5t-28 70.5t-70 28.5h-66
q-47 140 -159 229l75 24q314 -5 412 -155q52 -80 43 -169v-5q-5 -103 -84.5 -178t-187.5 -70q-38 0 -68.5 -28t-30.5 -70.5t30.5 -70.5t68.5 -28q192 4 337 126q5 -42 5 -89q-5 -103 -61 -164q-70 -70 -225 -89q-42 -99 -122 -141q-66 -37 -146 -23q-70 14 -121.5 51.5
t-51.5 74.5q0 14 9.5 42.5t13.5 32.5q43 0 73.5 28.5t30.5 70.5t-30.5 72.5t-73.5 30.5q-79 -4 -140 -56q-71 47 -160 56q-42 0 -75 -25.5t-35.5 -65.5t23.5 -73t68 -38q28 -4 52 -14q42 -23 42 -61q0 -103 66 -183q-150 -37 -291 132q-141 -24 -206.5 11.5t-107.5 180.5
q-80 38 -108 71q-43 37 -57 107q165 -32 319 24q38 14 56.5 51.5t4.5 77.5t-51.5 56.5t-79.5 2.5q-113 -47 -230 -5q-19 19 -28 56v75q0 52 26 101t73 78q79 42 168 42q-18 -38 -34.5 -80t2 -82t58.5 -54t80 4.5t54 61.5q28 84 98.5 140.5t164.5 65.5q103 -5 187.5 -63.5
t131.5 -152.5q14 -94 89 -126q51 -24 164 -24zM1672 1772l-61 -132l-71 14l99 127zM1207 909q0 -38 -25.5 -68.5t-68.5 -35.5q-107 -4 -192 66q-89 94 -84 220q0 43 30.5 71t72.5 28t70 -28t28 -70.5t24 -75.5q19 -14 42 -14q42 0 72.5 -25.5t30.5 -67.5z" />
</svg>
