<?xml version="1.0" standalone="no"?>
<!DOCTYPE svg PUBLIC "-//W3C//DTD SVG 1.1//EN" "http://www.w3.org/Graphics/SVG/1.1/DTD/svg11.dtd" >
<svg xmlns="http://www.w3.org/2000/svg" xmlns:xlink="http://www.w3.org/1999/xlink" version="1.1" width="2048" height="2048" viewBox="-10 0 2068 2048">
   <path fill="currentColor"
d="M1877 205q71 0 121 50t50 121v1296q0 71 -50 121t-121 50h-1706q-71 0 -121 -50t-50 -121v-1296q0 -71 50 -121t121 -50h1706zM171 341q-13 0 -24 10.5t-11 24.5v239h1776v-239q0 -14 -11 -24.5t-24 -10.5h-1706zM1877 1707q13 0 24 -10.5t11 -24.5v-648h-1776v648
q0 14 11 24.5t24 10.5h1706zM274 1571v-138h272v138h-272zM682 1571v-138h410v138h-410z" />
</svg>
