<?xml version="1.0" standalone="no"?>
<!DOCTYPE svg PUBLIC "-//W3C//DTD SVG 1.1//EN" "http://www.w3.org/Graphics/SVG/1.1/DTD/svg11.dtd" >
<svg xmlns="http://www.w3.org/2000/svg" xmlns:xlink="http://www.w3.org/1999/xlink" version="1.1" width="2048" height="2048" viewBox="-10 0 2058 2048">
   <path fill="currentColor"
d="M555 615q0 -43 31.5 -74t74.5 -31t72 31t29 74v457l125 14l505 226q43 15 64.5 53.5t21.5 81.5v447q0 63 -45.5 108.5t-108.5 45.5h-663q-62 0 -106 -43l-500 -428l77 -82q29 -34 72 -34h24l327 178v-1024zM1839 0q-63 0 -108.5 43.5t-45.5 108t45.5 110.5t108 46
t108.5 -46t46 -110.5t-46 -108t-108 -43.5zM1839 510q-63 0 -108.5 45.5t-45.5 110.5t45.5 108t108 43t108.5 -43t46 -108t-46 -110.5t-108 -45.5zM1324 510q-62 0 -107.5 45.5t-45.5 110.5t45.5 108t110.5 43t108 -43t43 -108t-43 -110.5t-111 -45.5zM1839 1024
q-63 0 -108.5 45.5t-45.5 108t45.5 108.5t108 46t108.5 -46t46 -108.5t-46 -108t-108 -45.5z" />
</svg>
