<?xml version="1.0" standalone="no"?>
<!DOCTYPE svg PUBLIC "-//W3C//DTD SVG 1.1//EN" "http://www.w3.org/Graphics/SVG/1.1/DTD/svg11.dtd" >
<svg xmlns="http://www.w3.org/2000/svg" xmlns:xlink="http://www.w3.org/1999/xlink" version="1.1" width="2048" height="2048" viewBox="-10 0 2068 2048">
   <path fill="currentColor"
d="M1846 0h-1644q-82 0 -142 60t-60 142v1231q0 86 60 146t142 60h413v308q0 48 26.5 74.5t74.5 26.5h53q39 0 72 -29l380 -380h625q82 0 142 -60t60 -146v-1231q0 -82 -60 -142t-142 -60zM1846 1433h-711l-318 317v-317h-615v-1231h1644v1231zM1433 923v-207h-462l188 -182
l-135 -125l-409 408l409 414l125 -125l-178 -183h462z" />
</svg>
