<?xml version="1.0" standalone="no"?>
<!DOCTYPE svg PUBLIC "-//W3C//DTD SVG 1.1//EN" "http://www.w3.org/Graphics/SVG/1.1/DTD/svg11.dtd" >
<svg xmlns="http://www.w3.org/2000/svg" xmlns:xlink="http://www.w3.org/1999/xlink" version="1.1" width="2048" height="2048" viewBox="-10 0 2069 2048">
   <path fill="currentColor"
d="M559 1769.5q0 115.5 -82.5 197t-198 81.5t-197 -81.5t-81.5 -197t81.5 -198t197 -82.5t198 82.5t82.5 198zM1303 1947q2 42 -24 70q-27 31 -69 31h-196q-36 0 -62 -24t-29 -60q-16 -164 -87 -312t-181.5 -258.5t-258.5 -181.5t-312 -87q-36 -3 -60 -29t-24 -62v-196
q0 -42 31 -69q24 -24 62 -24h8q232 18 444.5 116t377.5 264q166 165 264 377.5t116 444.5zM2048 1950q2 41 -26 69q-27 29 -67 29h-208q-37 0 -64.5 -25.5t-29.5 -62.5q-12 -208 -74 -405.5t-165 -365.5t-245 -311t-310 -245.5t-365.5 -165.5t-405.5 -75q-37 -2 -62.5 -28.5
t-25.5 -63.5v-207q0 -40 29 -67q26 -26 64 -26h5q382 20 730 175t618 427q272 270 427 618t175 730z" />
</svg>
