<?xml version="1.0" standalone="no"?>
<!DOCTYPE svg PUBLIC "-//W3C//DTD SVG 1.1//EN" "http://www.w3.org/Graphics/SVG/1.1/DTD/svg11.dtd" >
<svg xmlns="http://www.w3.org/2000/svg" xmlns:xlink="http://www.w3.org/1999/xlink" version="1.1" width="2048" height="2048" viewBox="-10 0 2068 2048">
   <path fill="currentColor"
d="M179 177q-75 0 -127 52.5t-52 127.5v1067q0 76 52 128t127 52h989q-8 -46 -8 -92q0 -142 70.5 -265t193.5 -196t269 -73q42 0 88 8v-629q0 -75 -52 -127.5t-127 -52.5h-1423zM179 357l714 446l709 -446v179l-709 442l-714 -442v-179zM1602 1157v267h-267v180h267v267h179
v-267h267v-180h-267v-267h-179z" />
</svg>
