<?xml version="1.0" standalone="no"?>
<!DOCTYPE svg PUBLIC "-//W3C//DTD SVG 1.1//EN" "http://www.w3.org/Graphics/SVG/1.1/DTD/svg11.dtd" >
<svg xmlns="http://www.w3.org/2000/svg" xmlns:xlink="http://www.w3.org/1999/xlink" version="1.1" width="2048" height="2048" viewBox="-10 0 2068 2048">
   <path fill="currentColor"
d="M1740 560h-202v-202h202v202zM1740 868h-202v-202h202v202zM1433 560h-202v-202h202v202zM1433 868h-202v-202h202v202zM1433 1281h-818v-207h818v207zM510 560h-202v-202h202v202zM510 868h-202v-202h202v202zM615 666h202v202h-202v-202zM615 358h202v202h-202v-202z
M923 666h202v202h-202v-202zM923 358h202v202h-202v-202zM1846 50h-1644q-82 0 -142 60.5t-60 141.5v1029q0 82 60 142t142 60h1644q82 0 142 -60t60 -142v-1029q0 -81 -60 -141.5t-142 -60.5zM510 1791h206v207h-206v-207zM923 1791h202v207h-202v-207zM1332 1791h206v207
h-206v-207z" />
</svg>
