<?xml version="1.0" standalone="no"?>
<!DOCTYPE svg PUBLIC "-//W3C//DTD SVG 1.1//EN" "http://www.w3.org/Graphics/SVG/1.1/DTD/svg11.dtd" >
<svg xmlns="http://www.w3.org/2000/svg" xmlns:xlink="http://www.w3.org/1999/xlink" version="1.1" width="2048" height="2048" viewBox="-10 0 2068 2048">
   <path fill="currentColor"
d="M510 1791h206v207h-206v-207zM923 1791h202v207h-202v-207zM1332 1791h206v207h-206v-207zM202 50q-82 0 -142 60.5t-60 141.5v1029q0 82 60 142t142 60h1644q82 0 142 -60t60 -142v-1029q0 -81 -60 -141.5t-142 -60.5h-1644zM202 252h1644v1029h-1644v-1029zM308 358
v202h202v-202h-202zM615 358v202h202v-202h-202zM923 358v202h202v-202h-202zM1231 358v202h202v-202h-202zM1538 358v202h202v-202h-202zM308 666v202h202v-202h-202zM615 666v202h202v-202h-202zM923 666v202h202v-202h-202zM1231 666v202h202v-202h-202zM1538 666v202
h202v-202h-202zM615 974v201h818v-201h-818z" />
</svg>
