<?xml version="1.0" standalone="no"?>
<!DOCTYPE svg PUBLIC "-//W3C//DTD SVG 1.1//EN" "http://www.w3.org/Graphics/SVG/1.1/DTD/svg11.dtd" >
<svg xmlns="http://www.w3.org/2000/svg" xmlns:xlink="http://www.w3.org/1999/xlink" version="1.1" width="2048" height="2048" viewBox="-10 0 2058 2048">
   <path fill="currentColor"
d="M101 1125q0 250 125 464t336.5 336.5t461.5 122.5q0 -250 -125 -461.5t-336.5 -336.5t-461.5 -125zM1024 2048q250 0 461.5 -122.5t336.5 -336.5t125 -464q-250 0 -461.5 125t-336.5 336.5t-125 461.5zM1639 101v514q0 121 -45.5 234t-132 199.5t-202 134.5t-235.5 48
t-235.5 -48t-202 -134.5t-132 -199.5t-45.5 -234v-514q120 0 221 38q86 39 149 106l245 -245l245 245q63 -67 149 -106q101 -38 221 -38z" />
</svg>
