<?xml version="1.0" standalone="no"?>
<!DOCTYPE svg PUBLIC "-//W3C//DTD SVG 1.1//EN" "http://www.w3.org/Graphics/SVG/1.1/DTD/svg11.dtd" >
<svg xmlns="http://www.w3.org/2000/svg" xmlns:xlink="http://www.w3.org/1999/xlink" version="1.1" width="2048" height="2048" viewBox="-10 0 2063 2048">
   <path fill="currentColor"
d="M1017 375l-119 91l-142 -148l261 -199l912 708l-375 294l-147 -147l190 -147zM1929 1340l-90 71l-143 -147l67 -52zM147 0l1896 1901l-142 142l-380 -385l-504 390l-912 -708l166 -128l746 584l356 -280l-142 -143l-214 162l-912 -708l327 -252l-427 -432zM1017 1278
l66 -52l-508 -508l-138 109z" />
</svg>
