<?xml version="1.0" standalone="no"?>
<!DOCTYPE svg PUBLIC "-//W3C//DTD SVG 1.1//EN" "http://www.w3.org/Graphics/SVG/1.1/DTD/svg11.dtd" >
<svg xmlns="http://www.w3.org/2000/svg" xmlns:xlink="http://www.w3.org/1999/xlink" version="1.1" width="2048" height="2048" viewBox="-10 0 2058 2048">
   <path fill="currentColor"
d="M101 1125q0 250 125 464t336.5 336.5t461.5 122.5q0 -250 -125 -461.5t-336.5 -336.5t-461.5 -125zM351 1375q149 58 259.5 168.5t163.5 254.5q-149 -53 -259.5 -163.5t-163.5 -259.5zM1024 2048q250 0 461.5 -122.5t336.5 -336.5t125 -464q-250 0 -461.5 125
t-336.5 336.5t-125 461.5zM1274 1798q53 -144 163.5 -257t259.5 -166q-53 149 -166 259.5t-257 163.5zM1024 1231q120 0 235.5 -48t202 -134.5t132 -199.5t45.5 -234v-514q-120 0 -221 38q-86 39 -149 106l-245 -245l-245 245q-63 -67 -149 -106q-101 -38 -221 -38v514
q0 121 45.5 234t132 199.5t202 134.5t235.5 48zM615 370l159 168l250 -250l250 250l159 -168v245q0 169 -120.5 289t-288.5 120t-288.5 -120t-120.5 -289v-245z" />
</svg>
