<?xml version="1.0" standalone="no"?>
<!DOCTYPE svg PUBLIC "-//W3C//DTD SVG 1.1//EN" "http://www.w3.org/Graphics/SVG/1.1/DTD/svg11.dtd" >
<svg xmlns="http://www.w3.org/2000/svg" xmlns:xlink="http://www.w3.org/1999/xlink" version="1.1" width="2048" height="2048" viewBox="-10 0 2058 2048">
   <path fill="currentColor"
d="M699 1179q-128 0 -219 -89t-91 -217q0 -105 68 -187q-68 -87 -68 -192q0 -124 91 -213t219 -89h42q36 -87 111.5 -139.5t171.5 -52.5t171.5 52.5t111.5 139.5h42q128 0 219 89t91 213q0 105 -68 192q68 87 68 187q0 124 -91 215t-219 91l-42 -4q-36 87 -111.5 139.5
t-171.5 52.5t-171.5 -52.5t-111.5 -139.5zM1024 1170q46 0 78 -29.5t32 -75.5l-9 -105q-51 18 -101 18t-96 -18l-14 105q0 46 32 75.5t78 29.5zM1349 983q45 0 79.5 -32t34.5 -78q0 -32 -18.5 -59.5t-45.5 -40.5l-87 -42q-18 106 -105 179l82 55q28 18 60 18zM1285 402
l-78 55q87 73 105 178l82 -41q32 -13 50.5 -40.5t18.5 -59.5q0 -46 -34.5 -78t-79.5 -32q-32 0 -64 18zM1024 197q-46 0 -78 32t-32 73l14 109q46 -18 96 -18t101 18l9 -109q0 -41 -32 -73t-78 -32zM699 384q-45 0 -79.5 32t-34.5 78q0 32 18.5 59.5t45.5 40.5l87 41
q18 -105 105 -178l-82 -55q-28 -18 -60 -18zM649 773q-27 13 -45.5 40.5t-18.5 59.5q0 46 34.5 78t79.5 32q37 0 64 -18l78 -55q-87 -69 -105 -179zM1024 2048q-238 0 -439 -116.5t-320 -320t-119 -441.5q238 0 439 119t320 320t119 439q0 -238 119 -439t320 -320t439 -119
q0 238 -119 441.5t-320 320t-439 116.5zM1262 1810q137 -50 244.5 -155t157.5 -247q-137 55 -244.5 160t-157.5 242zM384 1408q50 142 157.5 247t244.5 155q-50 -137 -155 -242t-247 -160z" />
</svg>
