<?xml version="1.0" standalone="no"?>
<!DOCTYPE svg PUBLIC "-//W3C//DTD SVG 1.1//EN" "http://www.w3.org/Graphics/SVG/1.1/DTD/svg11.dtd" >
<svg xmlns="http://www.w3.org/2000/svg" xmlns:xlink="http://www.w3.org/1999/xlink" version="1.1" width="2048" height="2048" viewBox="-10 0 2068 2048">
   <path fill="currentColor"
d="M229 0q-96 0 -162.5 66.5t-66.5 162.5v1590q0 96 66.5 162.5t162.5 66.5h1590q96 0 162.5 -66.5t66.5 -162.5v-1590q0 -96 -66.5 -162.5t-162.5 -66.5h-1590zM1024 229q261 0 474.5 157.5t288.5 408.5h-310q-48 0 -80 34.5t-32 82.5v224q0 48 32 82.5t80 34.5h310
q-75 251 -288.5 408.5t-474.5 157.5q-219 0 -400 -107t-288 -288t-107 -400t107 -400t288 -288t400 -107zM1024 795q-96 0 -162.5 66.5t-66.5 162.5t66.5 162.5t162.5 66.5t162.5 -66.5t66.5 -162.5t-66.5 -162.5t-162.5 -66.5z" />
</svg>
