<?xml version="1.0" standalone="no"?>
<!DOCTYPE svg PUBLIC "-//W3C//DTD SVG 1.1//EN" "http://www.w3.org/Graphics/SVG/1.1/DTD/svg11.dtd" >
<svg xmlns="http://www.w3.org/2000/svg" xmlns:xlink="http://www.w3.org/1999/xlink" version="1.1" width="2048" height="2048" viewBox="-10 0 2068 2048">
   <path fill="currentColor"
d="M1388 1450.5q0 43.5 -32 75.5t-76 32t-75 -32t-31 -75.5t31 -75t75 -31.5t76 31.5t32 75zM1728 1450.5q0 43.5 -31 75.5t-75 32t-75.5 -32t-31.5 -75.5t31.5 -75t75.5 -31.5t75 31.5t31 75zM1878 1664v-427q0 -17 -13 -29.5t-29 -12.5h-1622q-17 0 -30.5 12.5t-13.5 29.5
v427q0 17 13.5 30t30.5 13h1622q16 0 29 -13t13 -30zM237 1025h1574l-209 -643q-5 -17 -21.5 -29t-34.5 -12h-1043q-18 0 -34.5 12t-21.5 29zM2048 1237v427q0 89 -62 151.5t-150 62.5h-1622q-89 0 -151.5 -63t-62.5 -151v-427q0 -32 21 -99l263 -809q22 -70 83.5 -114.5
t135.5 -44.5h1043q74 0 135 44.5t83 114.5l263 809q21 67 21 99z" />
</svg>
