<?xml version="1.0" standalone="no"?>
<!DOCTYPE svg PUBLIC "-//W3C//DTD SVG 1.1//EN" "http://www.w3.org/Graphics/SVG/1.1/DTD/svg11.dtd" >
<svg xmlns="http://www.w3.org/2000/svg" xmlns:xlink="http://www.w3.org/1999/xlink" version="1.1" width="2048" height="2048" viewBox="-10 0 2063 2048">
   <path fill="currentColor"
d="M673 1028q-22 13 -33 39t-6 43q0 48 39 80.5t82.5 32.5t78 -32.5t34.5 -80.5q-82 -52 -195 -82zM1948 928l95 -373l-61 -4q-73 -13 -160 -48q-122 -48 -243 -130q-104 -74 -225 -204q-87 -91 -135 -121q-78 -48 -195 -48t-195 48q-48 30 -135 121q-121 130 -225 204
q-121 82 -243 130q-87 35 -160 48l-61 4l95 373h9q-9 26 -9 91q0 238 113 444t304 332l-48 82q165 109 343 148q151 35 303 17q121 -13 243 -52q87 -30 160 -74l61 -39l-48 -82q191 -126 304 -332t113 -444v-91zM959 325l-130 -130l65 -65l130 130l130 -130l65 65l-130 130
l130 130l-65 65l-130 -130l-130 130l-65 -65zM773 694q156 -44 251 -44q126 0 356 78q125 44 342 135l22 9q13 26 13 82zM1171 1674q-108 65 -203 78q-35 -31 -35 -76.5t32.5 -75.5t84.5 -34.5t87 25.5q17 9 25.5 33t8.5 50zM1765 1149q-34 143 -121 269t-204 212l-139 -243
h-554l-139 243q-148 -99 -236.5 -259.5t-88.5 -351.5q0 -48 21 -139l165 -74l655 174v225q0 35 28 63t67 28h182q39 0 67.5 -26t28.5 -65v-130z" />
</svg>
