<?xml version="1.0" standalone="no"?>
<!DOCTYPE svg PUBLIC "-//W3C//DTD SVG 1.1//EN" "http://www.w3.org/Graphics/SVG/1.1/DTD/svg11.dtd" >
<svg xmlns="http://www.w3.org/2000/svg" xmlns:xlink="http://www.w3.org/1999/xlink" version="1.1" width="2048" height="2048" viewBox="-10 0 2058 2048">
   <path fill="currentColor"
d="M1024 0q195 0 356.5 95t256.5 256.5t95 356.5q0 209 -114 385l-594 955l-594 -955q-114 -176 -114 -385q0 -195 95 -356.5t256.5 -256.5t356.5 -95zM1024 152q-204 0 -358.5 128.5t-187.5 327.5h261q28 -90 106.5 -147t178.5 -57t178.5 57t106.5 147h261
q-33 -199 -187.5 -327.5t-358.5 -128.5zM1024 1012q-100 0 -178.5 -57t-106.5 -147h-261q19 109 76 195v9q76 114 201.5 183t268.5 69t268.5 -69t201.5 -183v-9q57 -86 76 -195h-261q-28 90 -106.5 147t-178.5 57zM1024 556q-62 0 -107 45t-45 107t45 107t107 45t107 -45
t45 -107t-45 -107t-107 -45z" />
</svg>
