<?xml version="1.0" standalone="no"?>
<!DOCTYPE svg PUBLIC "-//W3C//DTD SVG 1.1//EN" "http://www.w3.org/Graphics/SVG/1.1/DTD/svg11.dtd" >
<svg xmlns="http://www.w3.org/2000/svg" xmlns:xlink="http://www.w3.org/1999/xlink" version="1.1" width="2048" height="2048" viewBox="-10 0 2068 2048">
   <path fill="currentColor"
d="M1490 466h-932q-148 0 -276.5 74t-205 202.5t-76.5 281.5t76.5 281.5t205 202.5t276.5 74h932q148 0 276.5 -74t205 -202.5t76.5 -281.5t-76.5 -281.5t-205 -202.5t-276.5 -74zM1490 1394h-932q-153 0 -262 -108.5t-109 -261.5t109 -261.5t262 -108.5h932
q153 0 262 108.5t109 261.5t-109 261.5t-262 108.5zM1490 745q-117 0 -198 80.5t-81 198.5t81 198.5t196.5 80.5t198 -80.5t82.5 -198.5t-82.5 -198.5t-196.5 -80.5z" />
</svg>
