<?xml version="1.0" standalone="no"?>
<!DOCTYPE svg PUBLIC "-//W3C//DTD SVG 1.1//EN" "http://www.w3.org/Graphics/SVG/1.1/DTD/svg11.dtd" >
<svg xmlns="http://www.w3.org/2000/svg" xmlns:xlink="http://www.w3.org/1999/xlink" version="1.1" width="2048" height="2048" viewBox="-10 0 2068 2048">
   <path fill="currentColor"
d="M1539 1487v-926l-615 465zM22 743q-19 -24 -21.5 -57.5t21.5 -57.5l125 -115q14 -15 47.5 -17t57.5 17l351 269l811 -745q29 -28 70 -33t84 19l408 197q72 43 72 120v1383q0 28 -17 57t-41 43l-451 217q-24 9 -62.5 2t-52.5 -26l-826 -745l-346 264q-29 20 -60 17.5
t-45 -17.5l-125 -110q-24 -29 -21.5 -65t26.5 -60l307 -274z" />
</svg>
