<?xml version="1.0" standalone="no"?>
<!DOCTYPE svg PUBLIC "-//W3C//DTD SVG 1.1//EN" "http://www.w3.org/Graphics/SVG/1.1/DTD/svg11.dtd" >
<svg xmlns="http://www.w3.org/2000/svg" xmlns:xlink="http://www.w3.org/1999/xlink" version="1.1" width="2048" height="2048" viewBox="-10 0 2058 2048">
   <path fill="currentColor"
d="M1639 1125h-72l-202 207h197l178 206h-1432l182 -206h207l-202 -207h-86l-308 308v413q0 82 60 142t147 60h1432q87 0 147 -60t60 -142v-413zM1538 611l-509 504l-366 -360l510 -510zM1101 29l-654 654q-29 29 -29 72t29 72l510 505q29 33 72 33t72 -33l654 -649
q29 -29 29 -72.5t-29 -72.5l-510 -509q-29 -29 -72 -29t-72 29z" />
</svg>
