<?xml version="1.0" standalone="no"?>
<!DOCTYPE svg PUBLIC "-//W3C//DTD SVG 1.1//EN" "http://www.w3.org/Graphics/SVG/1.1/DTD/svg11.dtd" >
<svg xmlns="http://www.w3.org/2000/svg" xmlns:xlink="http://www.w3.org/1999/xlink" version="1.1" width="2048" height="2048" viewBox="-10 0 2068 2048">
   <path fill="currentColor"
d="M1846 202q82 0 142 60t60 147v1230q0 87 -60 147t-142 60h-1644q-82 0 -142 -60t-60 -147v-1230q0 -87 60 -147t142 -60h1644zM1846 1639v-1230h-1644v1230h1644zM409 817h206v207h-206v-207zM409 1231h822v202h-822v-202zM1433 1231h206v202h-206v-202zM817 817h822v207
h-822v-207z" />
</svg>
