<?xml version="1.0" standalone="no"?>
<!DOCTYPE svg PUBLIC "-//W3C//DTD SVG 1.1//EN" "http://www.w3.org/Graphics/SVG/1.1/DTD/svg11.dtd" >
<svg xmlns="http://www.w3.org/2000/svg" xmlns:xlink="http://www.w3.org/1999/xlink" version="1.1" width="2048" height="2048" viewBox="-10 0 2068 2048">
   <path fill="currentColor"
d="M1902 732q61 0 103.5 42.5t42.5 103t-42.5 104t-103.5 43.5v438q0 60 -43.5 103.5t-103.5 43.5q-478 -398 -928 -435q-66 22 -104 75.5t-35.5 114.5t46.5 106q-19 31 -26 61.5t1 58.5t21 52t39.5 51t49.5 47.5t59 48.5q-25 49 -88.5 78t-134.5 33t-140 -13.5t-108 -52.5
q-9 -29 -29 -86t-31 -91t-26 -87.5t-20.5 -96t-8 -94t5 -104t24.5 -105.5h-139q-76 0 -129.5 -54t-53.5 -129v-219q0 -76 53.5 -129.5t129.5 -53.5h548q499 0 1024 -439q60 0 103.5 43t43.5 103v439zM1755 1422v-1090q-449 344 -877 392v309q433 47 877 389z" />
</svg>
