<?xml version="1.0" standalone="no"?>
<!DOCTYPE svg PUBLIC "-//W3C//DTD SVG 1.1//EN" "http://www.w3.org/Graphics/SVG/1.1/DTD/svg11.dtd" >
<svg xmlns="http://www.w3.org/2000/svg" xmlns:xlink="http://www.w3.org/1999/xlink" version="1.1" width="2048" height="2048" viewBox="-10 0 2068 2048">
   <path fill="currentColor"
d="M1538 1231h202v307h308v202h-308v308h-202v-308h-307v-202h307v-307zM817 0h414q81 0 141.5 60t60.5 142v207h413q82 0 142 60t60 146v568q-173 -159 -409 -159q-168 0 -310 81.5t-223.5 223.5t-81.5 310.5t82 307.5h-904q-82 0 -142 -60t-60 -147v-1125q0 -86 60 -146
t142 -60h413v-207q0 -82 60.5 -142t141.5 -60zM1231 409v-207h-414v207h414z" />
</svg>
