<?xml version="1.0" standalone="no"?>
<!DOCTYPE svg PUBLIC "-//W3C//DTD SVG 1.1//EN" "http://www.w3.org/Graphics/SVG/1.1/DTD/svg11.dtd" >
<svg xmlns="http://www.w3.org/2000/svg" xmlns:xlink="http://www.w3.org/1999/xlink" version="1.1" width="2048" height="2048" viewBox="-10 0 2058 2048">
   <path fill="currentColor"
d="M1346 0q-211 19 -538 144q-92 68 -212 135v9q5 0 19 -4h5q15 -5 15 9l9 -9h10v9q0 5 -144 111l9 14l-24 -5q0 5 -19 10v5l14 19q-9 0 -19 -5q-48 5 -96 68l10 14q38 -38 48 -38v19l-20 9l15 24q48 -48 106 -86q33 5 33 14h15q154 -115 307 -168l5 14q-33 44 -43 44
q5 14 14 24q0 29 -144 356q-327 764 -543 1125q0 4 9 19q58 -15 68 -24h9v9h15l14 -9q0 9 15 9v10q0 24 -24 62q-20 24 -44 106v5h10q96 -106 135 -192q264 -77 394 -149q134 -10 207 -68l-5 -9l-34 9h-5v-4q101 -15 135 -49q211 -158 293 -211q308 -226 293 -433
q-4 -24 -134 -168q-5 -29 91 -82l178 -158q58 -72 72 -246l-5 -28q-9 -121 -173 -193q-96 -62 -346 -67zM1562 87q198 9 202 72l-4 14zM1433 197q139 0 144 77h9v-34l15 -4q53 24 58 72q0 29 -29 67q-15 5 -19 -19h-15v43q-86 135 -130 139q-38 49 -48 49q-29 38 -154 115
q-48 5 -307 120q-10 -5 -29 -5v-9q-5 -39 34 -101q14 -106 43 -125l149 -332q0 -34 96 -48l24 -5v24q96 -19 117.5 -21.5t41.5 -2.5zM1740 236h5q19 0 39 62v10q-10 4 -39 -63zM904 447h5l4 19q-14 0 -28 29v-14q19 -24 19 -34zM476 457l5 5q-5 0 -15 4l-4 5h-10l-5 -9z
M841 587l5 28h-9v-28h4zM827 635q-5 28 -19 33h-10q14 -24 14 -33h15zM798 702v10l-14 19h-10l-5 -5q19 0 19 -24h10zM769 769l-5 29h-9v-29h14zM1490 788l29 20q5 14 -9 14q-20 -10 -29 -10v-19zM923 865v15h-24l-5 -10zM1385 913q28 15 28 24v5q-28 5 -52 -29h24z
M1606 933q19 9 24 19l5 53q-10 24 -24 24zM1245 942q111 -5 164 48l4 29q-43 135 -105 164l-183 144q-197 130 -212 130q-317 173 -399 182h-9q14 -38 288 -581q120 -10 380 -111zM986 981v9h-29v-4zM538 1413q-14 73 -28 73v-5q-5 -39 28 -68zM1144 1442v15q5 4 -58 53
q-177 86 -211 115q-192 67 -192 86q-173 68 -221 97q-15 4 -39 -10q-5 -34 29 -58q38 0 58 10q48 -19 110 -34v-14l-43 5q10 -10 125 -58l19 -5l5 10q-58 5 -63 33q0 10 15 10l5 -5l33 -24q72 -14 428 -226zM495 1505l5 5q0 14 -14 19v-10q-5 -9 9 -14zM817 1586
q15 -4 15 10q-29 5 -96 43h-5l-5 -14q53 -5 91 -39zM505 1692v5q-5 0 -19 10h-15q0 -10 15 -15h19zM341 1774l15 5q-10 57 -39 67q-19 -14 -43 -14v-20q0 -9 12 -11.5t17 16.5q34 -43 38 -43z" />
</svg>
