<?xml version="1.0" standalone="no"?>
<!DOCTYPE svg PUBLIC "-//W3C//DTD SVG 1.1//EN" "http://www.w3.org/Graphics/SVG/1.1/DTD/svg11.dtd" >
<svg xmlns="http://www.w3.org/2000/svg" xmlns:xlink="http://www.w3.org/1999/xlink" version="1.1" width="2048" height="2048" viewBox="-10 0 2068 2048">
   <path fill="currentColor"
d="M1274 1445l149 -149l216 221l217 -221l149 149l-221 216l221 216l-149 149l-217 -221l-216 221l-149 -149l221 -216zM817 22h414q81 0 141.5 60t60.5 142v206h413q82 0 142 60t60 147v567q-173 -158 -409 -158q-168 0 -310 81.5t-223.5 223.5t-81.5 310t82 308h-904
q-82 0 -142 -60.5t-60 -146.5v-1125q0 -87 60 -147t142 -60h413v-206q0 -82 60.5 -142t141.5 -60zM1231 430v-206h-414v206h414z" />
</svg>
