<?xml version="1.0" standalone="no"?>
<!DOCTYPE svg PUBLIC "-//W3C//DTD SVG 1.1//EN" "http://www.w3.org/Graphics/SVG/1.1/DTD/svg11.dtd" >
<svg xmlns="http://www.w3.org/2000/svg" xmlns:xlink="http://www.w3.org/1999/xlink" version="1.1" width="2048" height="2048" viewBox="-10 0 2068 2048">
   <path fill="currentColor"
d="M72 340v62l-72 29v-63zM72 947v63l-72 28v-57zM72 1560v67l-72 29v-63zM62 545v53l-57 29v-58zM62 746v53l-57 29v-53zM62 1158v53l-57 28v-57zM62 1364v57l-57 24v-53zM258 373v77l-100 38v-76zM258 991v71l-100 39v-72zM258 1608v72l-100 38v-72zM254 589v67l-82 28
v-67zM254 794v63l-82 33v-72zM254 1201v67l-82 29v-67zM254 1407v67l-82 33v-67zM445 421v86l-129 53v-86zM445 1034v86l-129 52v-86zM445 1646v86l-129 53v-91zM435 636v77l-105 38v-72zM435 837v77l-105 43v-77zM435 1249v76l-105 44v-77zM435 1445v81l-105 39v-77z
M646 416v115l-163 62v-114zM646 1029v115l-163 62v-110zM646 1641v115l-163 62v-115zM636 627v105l-134 58v-106zM636 833v105l-134 53v-106zM636 1244v105l-134 53v-105zM636 1440v106l-134 52v-100zM857 397v148l-178 72v-148zM857 1010v148l-178 72v-149zM857 1622v148
l-178 72v-148zM847 622v124l-153 63v-130zM847 818v125l-153 57v-124zM847 1235v129l-153 57v-124zM847 1431v129l-153 62v-129zM1072 321v205l-192 77v-191q106 -58 192 -91zM1072 545v178l-192 81v-177zM1072 746v182l-192 77v-177zM1072 947v177l-192 82v-182zM1072 1148
v182l-192 82v-182zM1072 1349v182l-192 82v-182zM1072 1550v192q-110 43 -192 81v-191zM2048 330v1431q-182 -120 -455 -120q-224 0 -502 91v-191q148 -58 325 -82v-468q-148 19 -325 105v-134q148 -67 325 -96v-454q-143 23 -325 100v-201q244 -105 483 -105q259 0 474 124
zM1857 455q-110 -63 -278 -63l-38 5v460h38q148 0 278 43v-445zM1857 1034q-125 -53 -278 -53h-38v469h38q158 0 278 38v-454z" />
</svg>
