<?xml version="1.0" standalone="no"?>
<!DOCTYPE svg PUBLIC "-//W3C//DTD SVG 1.1//EN" "http://www.w3.org/Graphics/SVG/1.1/DTD/svg11.dtd" >
<svg xmlns="http://www.w3.org/2000/svg" xmlns:xlink="http://www.w3.org/1999/xlink" version="1.1" width="2048" height="2048" viewBox="-10 0 2058 2048">
   <path fill="currentColor"
d="M1739 1842v-1123h-1430v1123h1430zM1432 0h206v206h101q86 0 146 60t60 146v1430q0 86 -60 146t-146 60h-1430q-86 0 -146 -60t-60 -146v-1430q0 -86 60 -146t146 -60h101v-206h206v206h816v-206zM511 921h206v206h-206v-206zM1331 921h206v206h-206v-206zM923 1333h202
v202h-202v-202zM1331 1333h206v202h-206v-202z" />
</svg>
