<?xml version="1.0" standalone="no"?>
<!DOCTYPE svg PUBLIC "-//W3C//DTD SVG 1.1//EN" "http://www.w3.org/Graphics/SVG/1.1/DTD/svg11.dtd" >
<svg xmlns="http://www.w3.org/2000/svg" xmlns:xlink="http://www.w3.org/1999/xlink" version="1.1" width="2048" height="2048" viewBox="-11 0 2070 2048">
   <path fill="currentColor"
d="M1835 1024l183 180q40 38 27 93q-7 26 -25 44t-44 24l-250 64l70 248q15 56 -25 94q-38 40 -93 24l-249 -70l-64 251q-6 25 -24 43.5t-43 25.5q-17 2 -26 2q-40 0 -68 -29l-179 -184l-181 184q-38 40 -94 27q-26 -7 -43.5 -25t-23.5 -44l-64 -251l-248 70q-55 16 -93 -24
q-41 -39 -26 -94l72 -248l-251 -64q-26 -6 -44.5 -24t-25.5 -44q-13 -55 27 -93l184 -180l-184 -180q-40 -39 -27 -94q7 -25 25.5 -43t44.5 -24l251 -65l-72 -247q-15 -54 26 -93q39 -41 93 -26l248 70l64 -249q6 -26 24 -44.5t43 -24.5q55 -15 94 25l181 186l179 -186
q39 -40 94 -25q25 6 43 24.5t24 44.5l64 249l249 -70q54 -15 93 26q40 38 25 93l-70 247l250 65q26 6 44 24t25 43q13 55 -27 94z" />
</svg>
