<?xml version="1.0" standalone="no"?>
<!DOCTYPE svg PUBLIC "-//W3C//DTD SVG 1.1//EN" "http://www.w3.org/Graphics/SVG/1.1/DTD/svg11.dtd" >
<svg xmlns="http://www.w3.org/2000/svg" xmlns:xlink="http://www.w3.org/1999/xlink" version="1.1" width="2048" height="2048" viewBox="-10 0 2068 2048">
   <path fill="currentColor"
d="M1846 974v408q0 87 -60 147t-147 60h-418l-380 380q-33 29 -72 29h-53q-43 0 -72 -29t-29 -72v-308h-413q-82 0 -142 -60t-60 -147v-1024q0 -86 60 -146.5t142 -60.5h567q-86 101 -139 231l-34 77l34 77q96 245 314.5 391.5t488.5 146.5q216 0 413 -100zM1433 358
q43 0 74 29t31 72t-31 74.5t-74.5 31.5t-72 -31.5t-28.5 -74.5t28.5 -72t72.5 -29zM1433 50q206 0 374.5 113t240.5 296q-72 183 -240.5 298.5t-375 115.5t-372.5 -115.5t-243 -298.5q77 -183 243 -296t373 -113zM1433 204q-106 0 -180.5 74.5t-74.5 180.5t74.5 183t180 77
t182.5 -77t77 -183t-77 -180.5t-182 -74.5z" />
</svg>
