<?xml version="1.0" standalone="no"?>
<!DOCTYPE svg PUBLIC "-//W3C//DTD SVG 1.1//EN" "http://www.w3.org/Graphics/SVG/1.1/DTD/svg11.dtd" >
<svg xmlns="http://www.w3.org/2000/svg" xmlns:xlink="http://www.w3.org/1999/xlink" version="1.1" width="2048" height="2048" viewBox="-10 0 2068 2048">
   <path fill="currentColor"
d="M1303 2048h-187v-187h187v187zM1673 1861h-183v187h183v-187zM1303 1490h-187v183h187v-183zM558 1861h-183v187h183v-187zM558 1490h-183v183h183v-183zM1673 1490h-183v183h183v-183zM1303 1116h-187v187h187v-187zM1673 1116h-183v187h183v-187zM1861 745
q78 0 132.5 54.5t54.5 132.5v1116h-187v-1116h-929v1116h-187v-745h-558v745h-187v-745q0 -79 54.5 -133t132.5 -54h558v-184q0 -78 54.5 -132.5t132.5 -54.5v-187q0 -74 54.5 -128.5t129.5 -54.5h187v-375h187v375h183q79 0 133.5 54.5t54.5 128.5v187zM1673 745v-187h-557
v187h557z" />
</svg>
