<?xml version="1.0" standalone="no"?>
<!DOCTYPE svg PUBLIC "-//W3C//DTD SVG 1.1//EN" "http://www.w3.org/Graphics/SVG/1.1/DTD/svg11.dtd" >
<svg xmlns="http://www.w3.org/2000/svg" xmlns:xlink="http://www.w3.org/1999/xlink" version="1.1" width="2048" height="2048" viewBox="-10 0 2068 2048">
   <path fill="currentColor"
d="M1652 856q-44 -224 -220 -370t-408 -146q-180 0 -334 94t-234 250q-128 16 -232 86t-164 182t-60 244q0 136 68 254t186 188t258 70h1108q116 0 214 -58t156 -156t58 -214q0 -168 -114 -290t-282 -134zM1108 1452h-168v-172h168v172zM1264 1008q-36 48 -96 80
q-36 20 -48 46t-12 62h-168q0 -68 26 -104t90 -76q32 -20 52 -50t20 -70t-22 -64t-66 -24q-32 0 -56 20t-24 60h-168q-8 -100 64 -152t188 -52t186 58t70 154q0 60 -36 112z" />
</svg>
