<?xml version="1.0" standalone="no"?>
<!DOCTYPE svg PUBLIC "-//W3C//DTD SVG 1.1//EN" "http://www.w3.org/Graphics/SVG/1.1/DTD/svg11.dtd" >
<svg xmlns="http://www.w3.org/2000/svg" xmlns:xlink="http://www.w3.org/1999/xlink" version="1.1" width="2048" height="2048" viewBox="-10 0 2068 2048">
   <path fill="currentColor"
d="M293 1536q0 -30 -22 -52t-52 -22t-51.5 22t-21.5 52t21.5 51.5t51.5 21.5t52 -21.5t22 -51.5zM1902 877q0 -58 -44.5 -102t-102.5 -44h-658q0 -23 17 -56t38 -62.5t38 -77.5t17 -97q0 -77 -51 -111.5t-132 -34.5q-9 0 -21 13t-25.5 36.5t-23 41.5t-21.5 42.5t-12 25.5
q-37 65 -42 74q-45 73 -128 166q-4 5 -14 16q-35 40 -56 61.5t-56.5 51.5t-72.5 43.5t-77 13.5h-36v732h36q66 0 149.5 23t151 50t155.5 50t162 23q101 0 158.5 -46t57.5 -145q0 -22 -6 -64q34 -19 54 -60.5t20 -83.5q0 -45 -20 -79q60 -57 60 -136q0 -29 -11.5 -63
t-28.5 -54h378q59 0 103 -44t44 -103zM2048 876q0 120 -86.5 207t-206.5 87h-193q-4 70 -42 136q3 24 3 49q0 117 -68 203q1 159 -97.5 251t-259.5 92q-149 0 -368 -79q-188 -67 -255 -67h-329q-61 0 -103.5 -42.5t-42.5 -103.5v-732q0 -61 42.5 -103.5t103.5 -42.5h329
q10 0 22 -4.5t22.5 -11t24 -18t22.5 -20t22.5 -23t20 -22t18.5 -21.5t14 -16q77 -88 114 -147q15 -24 38 -71t42 -82t46 -72t63.5 -57t79.5 -20q143 0 236 76.5t93 215.5q0 78 -25 147h427q119 0 206 86.5t87 204.5z" />
</svg>
