<?xml version="1.0" standalone="no"?>
<!DOCTYPE svg PUBLIC "-//W3C//DTD SVG 1.1//EN" "http://www.w3.org/Graphics/SVG/1.1/DTD/svg11.dtd" >
<svg xmlns="http://www.w3.org/2000/svg" xmlns:xlink="http://www.w3.org/1999/xlink" version="1.1" width="2048" height="2048" viewBox="-10 0 2068 2048">
   <path fill="currentColor"
d="M1582 279q-192 0 -310 57q-117 -57 -248 -57t-248 57q-118 -57 -310 -57q-126 0 -244 200q-96 162 -161 406q-61 213 -61 326q0 57 83 105t209 70q48 157 237.5 263.5t446.5 119.5v-401q-139 -87 -139 -157q0 -61 95 -82q44 -13 92 -13l48 4q57 9 91 26q48 22 48 65
q0 70 -139 157v401q257 -13 446.5 -119.5t237.5 -263.5q126 -22 209 -70t83 -105q0 -113 -61 -326q-65 -244 -161 -406q-118 -200 -244 -200zM296 1198q-61 -13 -109 -35q13 -122 66 -287q52 -148 115 -270t103 -140q48 0 117 9h5q-127 144 -214 379q-57 161 -83 344z
M745 1024q-39 0 -65 -26t-26 -65.5t26 -67.5t65 -28t65.5 28t26.5 67.5t-26.5 65.5t-65.5 26zM1303 1024q-39 0 -65.5 -26t-26.5 -65.5t26.5 -67.5t65.5 -28t65 28t26 67.5t-26 65.5t-65 26zM1752 1198q-26 -183 -83 -344q-87 -235 -214 -379h5q69 -9 117 -9q40 18 103 140
t115 270q53 165 66 287q-44 22 -109 35z" />
</svg>
