<?xml version="1.0" standalone="no"?>
<!DOCTYPE svg PUBLIC "-//W3C//DTD SVG 1.1//EN" "http://www.w3.org/Graphics/SVG/1.1/DTD/svg11.dtd" >
<svg xmlns="http://www.w3.org/2000/svg" xmlns:xlink="http://www.w3.org/1999/xlink" version="1.1" width="2048" height="2048" viewBox="-10 0 2068 2048">
   <path fill="currentColor"
d="M1986 1082h-875q-68 0 -130.5 28.5t-100.5 76.5q-39 53 -96.5 84.5t-129.5 31.5q-111 0 -192.5 -82t-81.5 -197t81.5 -194.5t192.5 -79.5q72 0 129.5 29t96.5 86v-4q38 52 100.5 81t130.5 29h865q24 0 43 -14q29 -20 29 -68q-34 -216 -180.5 -391.5t-365 -276.5
t-473.5 -101q-231 0 -437.5 86.5t-351.5 235.5q-38 58 29 63h563q67 0 129.5 -29t100.5 -77q39 -53 99 -84t127 -31q116 0 197.5 81.5t81.5 197t-81.5 197t-197.5 81.5q-67 0 -127 -31t-99 -89v5q-38 -48 -100.5 -79.5t-129.5 -31.5h-616h5l-29 5q-29 5 -57 19
q-39 20 -63 53q-34 48 -53 144.5t-19 187.5q0 192 72 337q29 48 91 67q29 5 58 5h-5h616q67 0 129.5 -29t100.5 -77q39 -53 99 -84.5t127 -31.5q116 0 197.5 79.5t81.5 195t-81.5 197t-197.5 81.5q-67 0 -127 -31t-99 -84v5q-38 -53 -100.5 -82t-129.5 -29h-563
q-62 10 -33 58q144 154 350.5 240.5t442.5 86.5q255 0 476 -101t365 -276.5t178 -391.5q0 -39 -19 -58t-43 -19z" />
</svg>
