<?xml version="1.0" standalone="no"?>
<!DOCTYPE svg PUBLIC "-//W3C//DTD SVG 1.1//EN" "http://www.w3.org/Graphics/SVG/1.1/DTD/svg11.dtd" >
<svg xmlns="http://www.w3.org/2000/svg" xmlns:xlink="http://www.w3.org/1999/xlink" version="1.1" width="2048" height="2048" viewBox="-10 0 2058 2048">
   <path fill="currentColor"
d="M37 300l129 -124l1748 1747l-125 125l-578 -573q-60 51 -88 83q-41 46 -60 106q-46 134 -108.5 217.5t-163.5 134.5q-74 32 -162 32q-162 0 -277.5 -115.5t-115.5 -277.5h199q0 83 57.5 141t136.5 58q41 0 78 -19q56 -27 93 -78t74 -153q27 -92 88 -162q41 -50 111 -106
l-634 -638q-4 23 -4 69h-199q0 -120 37 -231zM1341 1059q78 -144 78 -292q0 -134 -64.5 -247t-178 -180t-251.5 -67q-171 0 -306 106l-143 -143q194 -157 449 -157q194 0 351 90t249.5 249.5t92.5 351.5t-106 381l-47 74l-143 -143zM1553 139l139 -139q153 148 236 347
t83 420q0 204 -74 391t-203 335l-139 -138q102 -121 159.5 -271t57.5 -317q0 -180 -67 -341.5t-192 -286.5zM1174 767q0 70 -37 130l-342 -338q60 -37 130 -37q101 0 175 72t74 173z" />
</svg>
