<?xml version="1.0" standalone="no"?>
<!DOCTYPE svg PUBLIC "-//W3C//DTD SVG 1.1//EN" "http://www.w3.org/Graphics/SVG/1.1/DTD/svg11.dtd" >
<svg xmlns="http://www.w3.org/2000/svg" xmlns:xlink="http://www.w3.org/1999/xlink" version="1.1" width="2048" height="2048" viewBox="-10 0 2068 2048">
   <path fill="currentColor"
d="M1356 21q-188 0 -320 132t-132 320t132 320t320 132q118 0 240 -70l311 310l141 -141l-311 -311q71 -122 71 -240q0 -188 -132 -320t-320 -132zM198 219q-80 0 -139 59t-59 143v1408q0 80 59 139t139 59h1407q85 0 144 -59t59 -139v-504l-203 -202v706h-1407v-1408h508
q5 -94 47 -202h-555zM1356 219q103 0 176 73t73 179t-73 179t-178.5 73t-178.5 -73t-73 -179t73 -179t181 -73z" />
</svg>
