<?xml version="1.0" standalone="no"?>
<!DOCTYPE svg PUBLIC "-//W3C//DTD SVG 1.1//EN" "http://www.w3.org/Graphics/SVG/1.1/DTD/svg11.dtd" >
<svg xmlns="http://www.w3.org/2000/svg" xmlns:xlink="http://www.w3.org/1999/xlink" version="1.1" width="2048" height="2048" viewBox="-10 0 2068 2048">
   <path fill="currentColor"
d="M1573 1609h36v-732h-36q-40 0 -77 -13.5t-72.5 -43.5t-56.5 -51.5t-56 -61.5q-10 -11 -14 -16q-83 -93 -128 -166q-10 -15 -43 -77q-2 -4 -12.5 -25.5t-21 -41t-23 -41.5t-24.5 -35t-21 -13q-81 0 -132 34.5t-51 111.5q0 49 17 97t38 77.5t38 62.5t17 56h-658
q-58 0 -102.5 44t-44.5 102q0 59 44 103t103 44h378q-17 20 -28.5 54t-11.5 63q0 79 60 136q-20 34 -20 79q0 42 20 83.5t54 60.5q-4 28 -4 64q0 98 55.5 144.5t154.5 46.5q76 0 165 -23t156.5 -50t151 -50t149.5 -23zM1902 1536q0 -30 -21.5 -52t-51.5 -22t-52 22t-22 52
t22 51.5t52 21.5t51.5 -21.5t21.5 -51.5zM2048 877v732q0 61 -42.5 103.5t-103.5 42.5h-329q-67 0 -255 67q-220 79 -363 79q-162 0 -262.5 -89t-99.5 -248l1 -6q-69 -86 -69 -203q0 -25 3 -49q-38 -66 -42 -136h-193q-120 0 -206.5 -87t-86.5 -207q0 -118 87 -204.5
t206 -86.5h427q-25 -69 -25 -147q0 -139 93 -215.5t236 -76.5q43 0 79.5 20t63.5 57t46 72t42 82t38 71q37 59 114 147q2 2 14 16t18.5 21.5t20 22t22.5 23t22.5 20t24 18t22.5 11t22 4.5h329q61 0 103.5 42.5t42.5 103.5z" />
</svg>
