<?xml version="1.0" standalone="no"?>
<!DOCTYPE svg PUBLIC "-//W3C//DTD SVG 1.1//EN" "http://www.w3.org/Graphics/SVG/1.1/DTD/svg11.dtd" >
<svg xmlns="http://www.w3.org/2000/svg" xmlns:xlink="http://www.w3.org/1999/xlink" version="1.1" width="2048" height="2048" viewBox="-10 0 2058 2048">
   <path fill="currentColor"
d="M639 0q87 0 147 60t60 144t-60 144.5t-146.5 60.5t-146.5 -60.5t-60 -144.5t60 -144t146 -60zM486 2048v-615h-308l264 -779q24 -63 77 -103.5t120.5 -40.5t122.5 40.5t75 103.5l264 779h-308v615h-307zM1356 1024q0 -87 60 -147t146.5 -60t146.5 60t60 147t-60 147
t-146.5 60t-146.5 -60t-60 -147zM1409 1332h307l154 408h-154v308h-307v-308h-154z" />
</svg>
