<?xml version="1.0" standalone="no"?>
<!DOCTYPE svg PUBLIC "-//W3C//DTD SVG 1.1//EN" "http://www.w3.org/Graphics/SVG/1.1/DTD/svg11.dtd" >
<svg xmlns="http://www.w3.org/2000/svg" xmlns:xlink="http://www.w3.org/1999/xlink" version="1.1" width="2048" height="2048" viewBox="-10 0 2058 2048">
   <path fill="currentColor"
d="M1168 1818l613 -619l236 235l-619 614zM1515 928l-337 -333q-21 -21 -46 -31l-123 -470q-10 -46 -48.5 -69.5t-82 -10.5t-66.5 51.5t-13 79.5l118 445l-256 -527q-20 -41 -61 -56.5t-82 5t-56.5 61.5t5.5 82l184 389l-369 -363q-35 -36 -78.5 -36t-77 33t-33.5 79t36 77
l404 404l-194 77l-210 143l-46 62q-46 71 -51 102t41 164l51 133q10 25 35.5 43t61.5 18q46 0 76.5 -30.5t30.5 -76.5q0 -11 -5 -26v-5l-61 -189l133 -108l215 16q102 92 128 168q20 67 -10 118q-21 36 -62 67l-41 20l-378 113l-16 15q-36 31 -36 82l6 117l700 -56
q62 5 113 -41l501 -501q46 -46 46 -117.5t-46 -117.5z" />
</svg>
