<?xml version="1.0" standalone="no"?>
<!DOCTYPE svg PUBLIC "-//W3C//DTD SVG 1.1//EN" "http://www.w3.org/Graphics/SVG/1.1/DTD/svg11.dtd" >
<svg xmlns="http://www.w3.org/2000/svg" xmlns:xlink="http://www.w3.org/1999/xlink" version="1.1" width="2048" height="2048" viewBox="-10 0 2058 2048">
   <path fill="currentColor"
d="M589 0q86 0 146.5 60t60.5 144t-60.5 144.5t-147 60.5t-146.5 -60.5t-60 -144.5t60 -144t147 -60zM435 510h308q86 0 146 60t60 146v563h-153v769h-414v-769h-154v-563q0 -86 60.5 -146t146.5 -60zM1305 1024q0 -87 60 -147t146.5 -60t147 60t60.5 147t-60.5 147t-147 60
t-146.5 -60t-60 -147zM1204 1332h616v408h-154v308h-308v-308h-154v-408z" />
</svg>
