<?xml version="1.0" standalone="no"?>
<!DOCTYPE svg PUBLIC "-//W3C//DTD SVG 1.1//EN" "http://www.w3.org/Graphics/SVG/1.1/DTD/svg11.dtd" >
<svg xmlns="http://www.w3.org/2000/svg" xmlns:xlink="http://www.w3.org/1999/xlink" version="1.1" width="2048" height="2048" viewBox="-10 0 2058 2048">
   <path fill="currentColor"
d="M1673 279h96v-279h-375v279l48 113q57 135 92 275q48 191 48 357q0 292 -140 466q-148 183 -418 183t-418 -183q-140 -174 -140 -466q0 -166 48 -357q35 -140 92 -275l48 -113v-279h-375v279h96l-44 70q-52 87 -96 187q-61 144 -96 292q-43 192 -43 383q0 223 135 423
q131 187 346.5 300.5t446.5 113.5t446.5 -113.5t346.5 -300.5q135 -200 135 -423q0 -348 -139 -675q-70 -161 -140 -257zM279 1116q-39 0 -65.5 -24t-26.5 -68t26.5 -68t67.5 -24t67.5 24t26.5 68t-26.5 68t-69.5 24zM466 1673q-43 0 -67 -24t-24 -67.5t24 -67.5t67.5 -24
t67.5 24t24 67.5t-24 67.5t-68 24zM1024 1952q-44 0 -68 -24t-24 -67.5t24 -67.5t68 -24t68 24t24 67.5t-24 67.5t-68 24zM1582 1673q-44 0 -68 -24t-24 -67.5t24 -67.5t67.5 -24t67.5 24t24 67.5t-24 67.5t-67 24zM1769 1116q-43 0 -69.5 -24t-26.5 -68t26.5 -68t67.5 -24
t67.5 24t26.5 68t-26.5 68t-65.5 24z" />
</svg>
