<?xml version="1.0" standalone="no"?>
<!DOCTYPE svg PUBLIC "-//W3C//DTD SVG 1.1//EN" "http://www.w3.org/Graphics/SVG/1.1/DTD/svg11.dtd" >
<svg xmlns="http://www.w3.org/2000/svg" xmlns:xlink="http://www.w3.org/1999/xlink" version="1.1" width="2048" height="2048" viewBox="-10 0 2068 2048">
   <path fill="currentColor"
d="M1024 1839l-134 117q-355 -318 -493 -456q-209 -204 -297 -355q-100 -167 -100 -330q0 -150 88 -284v50q0 201 113 397q100 171 317 393q142 142 506 468zM1166 1475q17 -16 54 -50q247 -225 343 -322q155 -154 230 -271q84 -134 88 -251q0 -134 -90 -221.5t-224 -87.5
q-104 0 -196 58.5t-125 154.5h-168q-41 -96 -131 -154.5t-190 -58.5q-134 0 -224 87.5t-90 221.5q0 125 88 263q79 121 246 284q105 109 372 347l9 9zM1559 92q138 0 248.5 65t175.5 177.5t65 246.5q0 159 -100 326q-88 146 -297 355q-134 134 -493 460q-356 -313 -493 -451
q-209 -209 -297 -360q-101 -167 -101 -330q0 -134 65 -246.5t176 -177.5t249 -65q112 0 219 50t182 138q75 -88 181.5 -138t219.5 -50z" />
</svg>
