<?xml version="1.0" standalone="no"?>
<!DOCTYPE svg PUBLIC "-//W3C//DTD SVG 1.1//EN" "http://www.w3.org/Graphics/SVG/1.1/DTD/svg11.dtd" >
<svg xmlns="http://www.w3.org/2000/svg" xmlns:xlink="http://www.w3.org/1999/xlink" version="1.1" width="2048" height="2048" viewBox="-10 0 2058 2048">
   <path fill="currentColor"
d="M562 0q87 0 147 60t60 144t-60 144.5t-146.5 60.5t-146.5 -60.5t-60 -144.5t60 -144t146 -60zM409 510h307q87 0 147 60t60 146v563h-154v769h-413v-769h-154v-563q0 -86 60 -146t147 -60zM1486 0q86 0 146 60t60 144t-60 144.5t-146.5 60.5t-146.5 -60.5t-60 -144.5
t60 -144t147 -60zM1332 510h307q87 0 147 60t60 146v563h-154v769h-413v-769h-154v-563q0 -86 60 -146t147 -60z" />
</svg>
