<?xml version="1.0" standalone="no"?>
<!DOCTYPE svg PUBLIC "-//W3C//DTD SVG 1.1//EN" "http://www.w3.org/Graphics/SVG/1.1/DTD/svg11.dtd" >
<svg xmlns="http://www.w3.org/2000/svg" xmlns:xlink="http://www.w3.org/1999/xlink" version="1.1" width="2048" height="2048" viewBox="-10 0 2068 2048">
   <path fill="currentColor"
d="M1158 1739l-21 -21q-351 -326 -481 -456q-205 -209 -292 -355q-97 -163 -97 -322q0 -134 65 -246.5t176 -177.5t249 -65q112 0 219 50t182 138q75 -88 181.5 -138t219.5 -50q138 0 248.5 65t175.5 177.5t65 246.5q0 163 -100 330q-88 151 -297 360q-134 134 -493 464z
M1024 1835q-364 -326 -506 -468q-217 -222 -317 -393q-113 -197 -113 -397v-50q-88 133 -88 284q0 163 100 330q88 150 297 355q138 138 493 456z" />
</svg>
