<?xml version="1.0" standalone="no"?>
<!DOCTYPE svg PUBLIC "-//W3C//DTD SVG 1.1//EN" "http://www.w3.org/Graphics/SVG/1.1/DTD/svg11.dtd" >
<svg xmlns="http://www.w3.org/2000/svg" xmlns:xlink="http://www.w3.org/1999/xlink" version="1.1" width="2048" height="2048" viewBox="-10 0 2068 2048">
   <path fill="currentColor"
d="M932 1906h-374v-188h374v188zM1351 1718h139v188h-374v-188h21l-130 -566l-236 57q-8 48 -43 122q-66 104 -181.5 130.5t-220 -37t-130.5 -179t37 -220t178.5 -133t220.5 37.5q43 22 87 83l231 -57l-57 -231q-35 -9 -109 -48q-100 -61 -128.5 -178.5t32.5 -220
t179 -128.5t222.5 37t130.5 178.5t-39 220.5q-22 43 -83 82zM558 1052q-48 -35 -107 -20t-94 63t-19.5 109t63.5 91.5t109 17.5t91.5 -65t17.5 -111t-61 -85zM1063 511q31 -47 15.5 -108t-63.5 -96t-109 -20t-93.5 65.5t-17.5 111.5t67.5 91.5t111.5 17t89 -61.5zM1098 1004
q-35 -18 -48 12.5t15.5 46t41.5 -10.5q13 -13 11 -26t-20 -22zM1861 742l-606 140l48 205l697 -166l48 -65zM2048 1718h-375v188h375v-188zM375 1718h-375v188h375v-188z" />
</svg>
