<?xml version="1.0" standalone="no"?>
<!DOCTYPE svg PUBLIC "-//W3C//DTD SVG 1.1//EN" "http://www.w3.org/Graphics/SVG/1.1/DTD/svg11.dtd" >
<svg xmlns="http://www.w3.org/2000/svg" xmlns:xlink="http://www.w3.org/1999/xlink" version="1.1" width="2048" height="2048" viewBox="-10 0 2068 2048">
   <path fill="currentColor"
d="M2048 1178q0 134 -86.5 235t-221.5 121v312q0 82 -60 142t-142 60h-389v-29q0 -115 -81.5 -197t-197 -82t-197.5 82t-82 197v29h-389q-82 0 -142 -60t-60 -142v-389h29q115 0 197 -82t82 -197.5t-82 -197t-197 -81.5h-29v-389q0 -82 60 -142t142 -60h312
q20 -135 121 -221.5t235.5 -86.5t235.5 86.5t120 221.5h312q82 0 142 60t60 142v312q135 19 221.5 120t86.5 236zM1538 1332h154q63 0 108.5 -46t45.5 -108.5t-45.5 -108t-108.5 -45.5h-154v-514h-514v-154q0 -63 -45.5 -108.5t-108 -45.5t-108.5 45.5t-46 108.5v154h-514
v221q139 53 223.5 173t84.5 274t-84.5 274t-223.5 173v221h221q53 -139 173 -223.5t274 -84.5t274 84.5t173 223.5h221v-514z" />
</svg>
