<?xml version="1.0" standalone="no"?>
<!DOCTYPE svg PUBLIC "-//W3C//DTD SVG 1.1//EN" "http://www.w3.org/Graphics/SVG/1.1/DTD/svg11.dtd" >
<svg xmlns="http://www.w3.org/2000/svg" xmlns:xlink="http://www.w3.org/1999/xlink" version="1.1" width="2048" height="2048" viewBox="-10 0 2066 2048">
   <path fill="currentColor"
d="M1331 614h-206v-206h206v206zM2046 1741v201h-715q0 44 -29 75t-72 31h-412q-43 0 -72 -31t-29 -75h-715v-201h715q0 -43 29 -74t72 -31h105v-202h-412q-82 0 -142 -60t-60 -146v-1022q0 -86 60 -146t142 -60h1026q82 0 142 60t60 146v1022q0 86 -60 146t-142 60h-412
v202h105q43 0 72 31t29 74h715zM717 206h-206v1022h206v-1022zM923 1228h202v-408h206q86 0 146 -60t60 -146v-206q0 -82 -60 -142t-146 -60h-408v1022z" />
</svg>
