<?xml version="1.0" standalone="no"?>
<!DOCTYPE svg PUBLIC "-//W3C//DTD SVG 1.1//EN" "http://www.w3.org/Graphics/SVG/1.1/DTD/svg11.dtd" >
<svg xmlns="http://www.w3.org/2000/svg" xmlns:xlink="http://www.w3.org/1999/xlink" version="1.1" width="2048" height="2048" viewBox="-10 0 2068 2048">
   <path fill="currentColor"
d="M907 1365h458v-458h224v458h459v224h-459v459h-224v-459h-458v-224zM683 1365v224h-230v-224h230zM224 1365v224h-224v-224h224zM1589 453v230h-224v-230h224zM1589 0v224h-224v-224h224zM1136 0v224h-229v-224h229zM683 0v224h-230v-224h230zM224 0v224h-224v-224h224z
M224 907v229h-224v-229h224zM224 453v230h-224v-230h224z" />
</svg>
