<?xml version="1.0" standalone="no"?>
<!DOCTYPE svg PUBLIC "-//W3C//DTD SVG 1.1//EN" "http://www.w3.org/Graphics/SVG/1.1/DTD/svg11.dtd" >
<svg xmlns="http://www.w3.org/2000/svg" xmlns:xlink="http://www.w3.org/1999/xlink" version="1.1" width="2048" height="2048" viewBox="-10 0 2058 2048">
   <path fill="currentColor"
d="M1788 271q-83 -79 -185.5 -120.5t-207.5 -41.5t-205 41.5t-183 120.5l-75 -79q96 -96 216.5 -144t249 -48t248.5 48t216 144zM1705 345l-74 74q-96 -96 -236 -96t-231 96l-74 -74q61 -66 141.5 -98.5t166 -32.5t164 32.5t143.5 98.5zM1675 930q78 0 132.5 54.5
t54.5 133.5v371q0 79 -54.5 133.5t-132.5 54.5h-1302q-78 0 -132.5 -54.5t-54.5 -133.5v-371q0 -79 54.5 -133.5t132.5 -54.5h930v-371h188v371h184zM653 1397v-187h-188v187h188zM976 1397v-187h-183v187h183zM1303 1397v-187h-187v187h187zM557 1860h188v188h-188v-188z
M932 1860h184v188h-184v-188zM1303 1860h188v188h-188v-188z" />
</svg>
