<?xml version="1.0" standalone="no"?>
<!DOCTYPE svg PUBLIC "-//W3C//DTD SVG 1.1//EN" "http://www.w3.org/Graphics/SVG/1.1/DTD/svg11.dtd" >
<svg xmlns="http://www.w3.org/2000/svg" xmlns:xlink="http://www.w3.org/1999/xlink" version="1.1" width="2048" height="2048" viewBox="-10 0 2068 2048">
   <path fill="currentColor"
d="M1024 0q-202 0 -392 77t-334 221t-221 334t-77 392t77 392t221 334t334 221t392 77t392 -77t334 -221t221 -334t77 -392t-77 -392t-221 -334t-334 -221t-392 -77zM1024 1846q-221 0 -411 -110.5t-300.5 -300.5t-110.5 -411t110.5 -411t300.5 -300.5t411 -110.5t411 110.5
t300.5 300.5t110.5 411t-110.5 411t-300.5 300.5t-411 110.5zM1048 1154h-144v332h-188v-904h337q158 0 245 72t87 202q0 91 -41 153.5t-123 96.5l197 370v10h-202zM904 1005h149q67 0 105.5 -36t38.5 -98.5t-36 -98.5t-108 -36h-149v269z" />
</svg>
