<?xml version="1.0" standalone="no"?>
<!DOCTYPE svg PUBLIC "-//W3C//DTD SVG 1.1//EN" "http://www.w3.org/Graphics/SVG/1.1/DTD/svg11.dtd" >
<svg xmlns="http://www.w3.org/2000/svg" xmlns:xlink="http://www.w3.org/1999/xlink" version="1.1" width="2048" height="2048" viewBox="-10 0 2058 2048">
   <path fill="currentColor"
d="M1610 1828q0 -30 -22 -51.5t-52 -21.5t-51 21.5t-21 51.5t21 51.5t51 21.5t52 -21.5t22 -51.5zM1756 955q0 -216 -192 -216q-22 0 -64 6q-18 -34 -59.5 -54.5t-84.5 -20.5q-42 0 -78 21q-58 -61 -136 -61q-29 0 -63.5 11.5t-54.5 28.5v-378q0 -59 -43.5 -102.5
t-102.5 -43.5t-102.5 44t-43.5 102v658q-24 0 -56.5 -17t-62 -37.5t-77 -37.5t-96.5 -17q-40 0 -69.5 14.5t-46 41t-24.5 58t-8 69.5q0 9 13.5 21t36.5 25.5t41.5 23t42.5 20.5t26 12q49 28 74 43q72 45 166 128q5 5 17 15q32 28 49 43.5t43.5 44.5t40.5 52.5t25 55.5t11 64
v37h732v-37q0 -55 15 -118.5t36 -122.5t42.5 -119t37 -128t15.5 -129zM1902 949q0 152 -78 368q-2 4 -9.5 24.5t-10 28t-9.5 28t-10.5 31.5t-9 29.5t-8 31.5t-6 28.5t-4.5 28.5t-1 25v329q0 61 -43 104t-103 43h-732q-61 0 -103.5 -43t-42.5 -104v-329q0 -10 -5 -22
t-11 -22.5t-17.5 -24t-20 -22.5t-23.5 -22.5t-22 -20t-21 -18.5t-16 -14q-89 -77 -148 -114q-21 -13 -58 -32t-67.5 -33t-64.5 -36t-57.5 -44.5t-39 -54t-15.5 -68.5q0 -93 32.5 -166.5t100 -118.5t161.5 -45q74 0 146 26v-428q0 -119 86 -205.5t204 -86.5q121 0 207.5 86
t86.5 206v193q69 4 136 43q32 -4 50 -4q116 0 204 69q159 -1 250.5 97t91.5 259z" />
</svg>
