<?xml version="1.0" standalone="no"?>
<!DOCTYPE svg PUBLIC "-//W3C//DTD SVG 1.1//EN" "http://www.w3.org/Graphics/SVG/1.1/DTD/svg11.dtd" >
<svg xmlns="http://www.w3.org/2000/svg" xmlns:xlink="http://www.w3.org/1999/xlink" version="1.1" width="2048" height="2048" viewBox="-10 0 2068 2048">
   <path fill="currentColor"
d="M1024 202q-279 0 -514.5 110.5t-372.5 300.5t-137 411q0 164 110.5 281.5t274.5 127.5h24q168 0 288 -120.5t120 -288.5t-120 -288.5t-288 -120.5h-24q129 -125 295 -187.5t344 -62.5q274 0 514 145l125 -125q-293 -188 -639 -183zM409 817q86 0 146 60.5t60 147
t-62.5 146.5t-144 60t-139 -53t-67.5 -135v-38q10 -82 67.5 -135t139.5 -53zM1663 615h-24q-168 0 -288 120.5t-120 288.5t120 288.5t288 120.5h24q-129 125 -295 187.5t-344 62.5q-274 0 -514 -145l-125 125q288 183 639 183q279 0 514.5 -110.5t372.5 -300.5t137 -411
q0 -163 -110.5 -281t-274.5 -128zM1639 1231q-86 0 -146 -60t-60 -146.5t62.5 -147t144 -60.5t139 53t67.5 135v38q-10 82 -67.5 135t-139.5 53z" />
</svg>
