<?xml version="1.0" standalone="no"?>
<!DOCTYPE svg PUBLIC "-//W3C//DTD SVG 1.1//EN" "http://www.w3.org/Graphics/SVG/1.1/DTD/svg11.dtd" >
<svg xmlns="http://www.w3.org/2000/svg" xmlns:xlink="http://www.w3.org/1999/xlink" version="1.1" width="2048" height="2048" viewBox="-10 0 2058 2048">
   <path fill="currentColor"
d="M1756 1097q0 -63 -15.5 -131.5t-37 -129t-42.5 -120t-36 -123t-15 -118.5v-37h-732v37q0 18 -4 36t-7.5 31.5t-14.5 32t-15.5 28t-21.5 28.5t-21.5 25t-25.5 25.5t-24.5 23t-27.5 24t-24 21.5q-94 83 -166 128q-26 16 -78 44q-4 2 -25.5 12.5t-41 21t-41 23t-35 24.5
t-13.5 21q0 81 35 131.5t113 50.5q49 0 96.5 -17t77 -37.5t62 -37.5t56.5 -17v658q0 58 43.5 102t102.5 44t102.5 -43.5t43.5 -102.5v-378q23 17 56 28.5t62 11.5q78 0 136 -61q36 21 78 21q43 0 84.5 -20.5t59.5 -54.5q36 5 64 5q98 0 145 -55.5t47 -154.5zM1610 219
q0 -30 -22 -51.5t-52 -21.5t-51 21.5t-21 51.5t21 51.5t51 21.5t52 -21.5t22 -51.5zM1902 1092q0 162 -89 262.5t-249 99.5l-4 -1q-87 70 -204 70q-26 0 -50 -3q-59 33 -136 42v193q0 120 -86.5 206.5t-207.5 86.5q-77 0 -144.5 -40t-106.5 -107.5t-39 -145.5v-427
q-63 25 -146 25q-94 0 -161 -44.5t-100 -118t-33 -166.5q0 -37 16 -69t39 -54t57 -44t64.5 -36.5t67.5 -33.5t58 -32q59 -37 148 -114q2 -2 16 -14t21 -18.5t22 -20t23.5 -22.5t20 -22.5t17.5 -24t11 -22.5t5 -22v-329q0 -61 42.5 -103.5t103.5 -42.5h732q60 0 103 42.5
t43 103.5v329q0 12 1 25t4.5 28.5t6 28.5t8 31.5t9 29.5t10.5 31.5t9.5 28t10 28t9.5 24.5q37 104 57.5 190t20.5 172z" />
</svg>
