<?xml version="1.0" standalone="no"?>
<!DOCTYPE svg PUBLIC "-//W3C//DTD SVG 1.1//EN" "http://www.w3.org/Graphics/SVG/1.1/DTD/svg11.dtd" >
<svg xmlns="http://www.w3.org/2000/svg" xmlns:xlink="http://www.w3.org/1999/xlink" version="1.1" width="2048" height="2048" viewBox="-10 0 2068 2048">
   <path fill="currentColor"
d="M1024 1024q62 0 108 45.5t46 108t-46 108.5t-108 46t-108 -46t-46 -108.5t46 -108t108 -45.5zM1024 0q202 0 392 77t334 221t221 334t77 392t-77 392t-221 334t-334 221t-392 77t-392 -77t-334 -221t-221 -334t-77 -392t77 -392t221 -334t334 -221t392 -77zM1024 1433
q115 0 211.5 50.5t96.5 122.5v178q206 -92 206 -226v-452q0 -120 -161 -204.5t-353 -84.5t-353 84.5t-161 204.5v452q0 125 165.5 206.5t348.5 81.5l101 -10v-206l-101 9q-159 0 -303 -62q19 -58 110.5 -101t192.5 -43zM1024 202q-106 0 -180.5 77t-74.5 182.5t74.5 180
t180.5 74.5t180.5 -74.5t74.5 -180t-74.5 -182.5t-180.5 -77z" />
</svg>
