<?xml version="1.0" standalone="no"?>
<!DOCTYPE svg PUBLIC "-//W3C//DTD SVG 1.1//EN" "http://www.w3.org/Graphics/SVG/1.1/DTD/svg11.dtd" >
<svg xmlns="http://www.w3.org/2000/svg" xmlns:xlink="http://www.w3.org/1999/xlink" version="1.1" width="2048" height="2048" viewBox="-10 0 2068 2048">
   <path fill="currentColor"
d="M1707 1110v-172q0 -35 -25 -60t-60 -25h-670l252 -252q26 -26 26 -60q0 -35 -26 -60l-121 -122q-23 -23 -60 -23t-60 23l-483 484l-122 121q-23 23 -23 61q0 36 23 59l122 121l483 484q23 23 60 23t60 -23l121 -122q25 -24 25 -60q0 -35 -25 -60l-252 -252h670
q35 0 60 -25t25 -60zM2048 1024.5q0 139.5 -36.5 272t-102.5 245t-160.5 207t-207 160.5t-245 102.5t-272 36.5t-272 -36.5t-245 -102.5t-207 -160.5t-160.5 -207t-103 -245t-37 -272t37 -272t103 -245t160.5 -207t207 -160.5t245 -103t272 -37t272 37t245 103t207 160.5
t160.5 207t102.5 245t36.5 272z" />
</svg>
