<?xml version="1.0" standalone="no"?>
<!DOCTYPE svg PUBLIC "-//W3C//DTD SVG 1.1//EN" "http://www.w3.org/Graphics/SVG/1.1/DTD/svg11.dtd" >
<svg xmlns="http://www.w3.org/2000/svg" xmlns:xlink="http://www.w3.org/1999/xlink" version="1.1" width="2048" height="2048" viewBox="-10 0 2068 2048">
   <path fill="currentColor"
d="M1846 1538q0 124 -91 215.5t-216 86.5t-213.5 -91.5t-93.5 -210.5q24 -245 101 -485q81 -264 101 -543q0 -134 -70 -251.5t-187.5 -187t-254 -69.5t-252 69.5t-185 187t-74.5 251.5q24 226 101 461l24 72q-163 -48 -314.5 29t-201.5 237.5t26.5 312t240 204t314.5 -26.5
t199 -242q19 -58 19 -125q-24 -283 -110 -518q-67 -202 -91 -404q4 -124 93 -210.5t214 -96.5q125 10 211 96.5t96 210.5q-24 245 -106 485q-81 264 -100 543q4 134 74 251.5t185 187t254 69.5t257 -67t185 -184.5t67 -256.5h-202zM411 1638q-86 0 -146 -60t-60 -144
t60 -144t146.5 -60t146.5 60t60 144t-60 144t-147 60z" />
</svg>
