<?xml version="1.0" standalone="no"?>
<!DOCTYPE svg PUBLIC "-//W3C//DTD SVG 1.1//EN" "http://www.w3.org/Graphics/SVG/1.1/DTD/svg11.dtd" >
<svg xmlns="http://www.w3.org/2000/svg" xmlns:xlink="http://www.w3.org/1999/xlink" version="1.1" width="2048" height="2048" viewBox="-10 0 2058 2048">
   <path fill="currentColor"
d="M1727 1740q101 -97 141 -284q21 -106 21 -268q0 -182 -126.5 -308.5t-308.5 -126.5q-111 0 -213 61v-490q0 -137 -96 -230.5t-227 -93.5q-122 0 -218 86q-91 -86 -214.5 -86t-214.5 86q-97 -86 -218 -86v217q46 0 76 30.5t30 76.5v1077h218v-1077q0 -46 30 -76.5
t75.5 -30.5t78.5 30.5t33 76.5v1077h213v-1077q0 -46 32.5 -76.5t78 -30.5t76 30.5t30.5 76.5v864q0 162 20 268q36 187 142 284q-132 70 -268 96v212q152 0 536 -202q384 202 541 202v-212q-142 -26 -268 -96zM1454 971q91 0 154 63t63 154q0 233 -48 331.5t-166.5 98.5
t-167 -98.5t-48.5 -331.5q0 -91 63.5 -154t149.5 -63z" />
</svg>
