<?xml version="1.0" standalone="no"?>
<!DOCTYPE svg PUBLIC "-//W3C//DTD SVG 1.1//EN" "http://www.w3.org/Graphics/SVG/1.1/DTD/svg11.dtd" >
<svg xmlns="http://www.w3.org/2000/svg" xmlns:xlink="http://www.w3.org/1999/xlink" version="1.1" width="2048" height="2048" viewBox="-10 0 2058 2048">
   <path fill="currentColor"
d="M227 1479q0 -134 79 -261t309 -280q-120 -144 -172 -254q-53 -91 -53 -205q0 -225 134 -359q67 -67 155.5 -93.5t212.5 -26.5q197 0 333 119.5t136 296.5q0 120 -62 225t-215 216l-144 110l440 531q91 -182 91 -397h225q0 358 -162 583l287 335h-307l-134 -153
q-105 91 -234 134q-153 48 -278 48q-282 0 -468 -153q-173 -172 -173 -416zM868 1837q201 0 369 -153l-479 -583l-43 28q-225 168 -225 350q0 167 106 253q119 105 272 105zM644 479q0 133 162 325l168 -110q91 -62 122 -124.5t31 -143.5q0 -96 -72 -153q-62 -62 -177 -62
t-174.5 74t-59.5 194z" />
</svg>
