<?xml version="1.0" standalone="no"?>
<!DOCTYPE svg PUBLIC "-//W3C//DTD SVG 1.1//EN" "http://www.w3.org/Graphics/SVG/1.1/DTD/svg11.dtd" >
<svg xmlns="http://www.w3.org/2000/svg" xmlns:xlink="http://www.w3.org/1999/xlink" version="1.1" width="2048" height="2048" viewBox="-10 0 2068 2048">
   <path fill="currentColor"
d="M1024 0q-279 0 -514.5 137t-372.5 372.5t-137 514.5q0 202 77 392t221 334t334 221t392 77t392 -77t334 -221t221 -334t77 -392t-77 -392t-221 -334t-334 -221t-392 -77zM1394 649q82 0 139.5 57.5t57.5 139.5t-57.5 139.5t-139.5 57.5t-139.5 -57.5t-60 -139.5
t57.5 -139.5t142 -57.5zM779 486q101 0 170.5 72t69.5 170.5t-69.5 170.5t-170.5 72t-173 -72t-72 -170.5t72 -170.5t173 -72zM779 1423v385q-188 -58 -325 -192.5t-204 -317.5q72 -77 250 -130q149 -43 279 -43q86 0 192 24q-110 58 -159 144q-33 63 -33 130zM1024 1846
q-58 0 -82 -5v-418q0 -96 169 -163q144 -53 283 -53q92 0 202 29q125 33 192 86q-91 231 -300 377.5t-464 146.5z" />
</svg>
