<?xml version="1.0" standalone="no"?>
<!DOCTYPE svg PUBLIC "-//W3C//DTD SVG 1.1//EN" "http://www.w3.org/Graphics/SVG/1.1/DTD/svg11.dtd" >
<svg xmlns="http://www.w3.org/2000/svg" xmlns:xlink="http://www.w3.org/1999/xlink" version="1.1" width="2048" height="2048" viewBox="-10 0 2068 2048">
   <path fill="currentColor"
d="M809 265q-36 60 -55 114l147 151q59 -160 160 -306q128 187 187 389h-265l196 192h110q9 54 14 123l192 192q4 -78 4 -119q0 -82 -13 -196h329q27 105 27 196.5t-27 196.5h-247l320 320q146 -238 146 -517q0 -265 -130 -489t-354 -354.5t-489 -130.5q-279 0 -517 147
l146 146q51 -32 119 -55zM1737 613h-288q-50 -188 -137 -348q137 46 244.5 135t180.5 213zM123 0l-123 123l288 288q-96 124 -148.5 275t-52.5 315q0 265 130 489t354 354.5t490 130.5q329 0 589 -197l275 270l123 -123zM425 549l60 64h-101q18 -28 41 -64zM306 1198
q-27 -105 -27 -196.5t27 -196.5h329q-13 114 -13 196t13 197h-329zM384 1390h288q55 196 137 347q-137 -46 -244.5 -135t-180.5 -212zM818 1001v-55l252 252h-238q-14 -105 -14 -197zM1061 1778q-128 -187 -188 -388h375q-59 201 -187 388zM1312 1737q50 -91 91 -210
l110 110q-96 64 -201 100z" />
</svg>
