<?xml version="1.0" standalone="no"?>
<!DOCTYPE svg PUBLIC "-//W3C//DTD SVG 1.1//EN" "http://www.w3.org/Graphics/SVG/1.1/DTD/svg11.dtd" >
<svg xmlns="http://www.w3.org/2000/svg" xmlns:xlink="http://www.w3.org/1999/xlink" version="1.1" width="2048" height="2048" viewBox="-10 0 2068 2048">
   <path fill="currentColor"
d="M1714 1025q0 -37 -24 -61l-122 -121l-483 -484q-23 -23 -59 -23q-38 0 -61 23l-121 122q-24 23 -24 60t24 60l252 252h-669q-35 0 -60 25t-25 60v172q0 35 25 60t60 25h669l-252 252q-25 25 -25 60q0 36 25 60l121 122q23 23 61 23q36 0 59 -23l483 -484l122 -121
q24 -24 24 -59zM2048 1024.5q0 139.5 -36.5 272t-102.5 245t-160.5 207t-207 160.5t-245 102.5t-272 36.5t-272 -36.5t-245 -102.5t-207 -160.5t-160.5 -207t-103 -245t-37 -272t37 -272t103 -245t160.5 -207t207 -160.5t245 -103t272 -37t272 37t245 103t207 160.5
t160.5 207t102.5 245t36.5 272z" />
</svg>
