<?xml version="1.0" standalone="no"?>
<!DOCTYPE svg PUBLIC "-//W3C//DTD SVG 1.1//EN" "http://www.w3.org/Graphics/SVG/1.1/DTD/svg11.dtd" >
<svg xmlns="http://www.w3.org/2000/svg" xmlns:xlink="http://www.w3.org/1999/xlink" version="1.1" width="2048" height="2048" viewBox="-10 0 2058 2048">
   <path fill="currentColor"
d="M2034 1899l-1899 -1899l-121 122l451 455q-77 149 -77 316v578l-194 189v99h1453l266 262zM577 1565v-672q0 -90 36 -171l844 843h-880zM866 1854h388q0 81 -56.5 137.5t-137.5 56.5t-137.5 -56.5t-56.5 -137.5zM704 325q67 -45 162 -77v-31q0 -77 56.5 -133.5
t137.5 -56.5t137.5 56.5t56.5 133.5v31q212 63 345 241.5t133 403.5v460l-189 -194v-266q0 -131 -65.5 -241.5t-176 -175.5t-241.5 -65q-113 0 -216 54z" />
</svg>
