<?xml version="1.0" standalone="no"?>
<!DOCTYPE svg PUBLIC "-//W3C//DTD SVG 1.1//EN" "http://www.w3.org/Graphics/SVG/1.1/DTD/svg11.dtd" >
<svg xmlns="http://www.w3.org/2000/svg" xmlns:xlink="http://www.w3.org/1999/xlink" version="1.1" width="2048" height="2048" viewBox="-10 0 2068 2048">
   <path fill="currentColor"
d="M1394 0q179 0 327 89.5t237.5 237.5t89.5 327q0 161 -74 300.5t-202.5 228.5t-281.5 116v283q0 117 -100 205v165q0 39 -24 67.5t-63 28.5h-92q-43 0 -71.5 -28.5t-28.5 -67.5v-91h-732v91q0 39 -28.5 67.5t-71.5 28.5h-92q-39 0 -63 -28.5t-24 -67.5v-165
q-100 -88 -100 -205v-928q0 -223 191.5 -299t553.5 -76l113 4q92 -130 233.5 -206.5t302.5 -76.5zM1394 187q-126 0 -232.5 63.5t-168 170t-61.5 233t61.5 233t168 168t233 61.5t233 -61.5t170 -168t63.5 -233t-63.5 -233t-170 -170t-233.5 -63.5zM1303 837h187v187h-187
v-187zM1303 279h187v466h-187v-466zM187 1116h754q-91 -92 -143.5 -212t-52.5 -250h-558v462zM327 1394q-57 0 -98.5 41.5t-41.5 100.5t41.5 98t100.5 39t98 -39t39 -98t-41.5 -100.5t-97.5 -41.5zM1163 1394q-61 0 -100 41.5t-39 100.5t41.5 98t98 39t98 -39t41.5 -98
t-41.5 -100.5t-98.5 -41.5z" />
</svg>
