<?xml version="1.0" standalone="no"?>
<!DOCTYPE svg PUBLIC "-//W3C//DTD SVG 1.1//EN" "http://www.w3.org/Graphics/SVG/1.1/DTD/svg11.dtd" >
<svg xmlns="http://www.w3.org/2000/svg" xmlns:xlink="http://www.w3.org/1999/xlink" version="1.1" width="2048" height="2048" viewBox="-10 0 2058 2048">
   <path fill="currentColor"
d="M1051 709l-228 -232h536v331h142v-473h-678l228 -232l-98 -103l-406 406l406 402zM1024 1191q-120 0 -203 82.5t-83 201t83 203t203 84.5t203 -84.5t83 -203t-83 -201t-203 -82.5zM167 906v1142h1714v-1142h-1714zM1689 1664q-76 0 -132 56t-56 136h-954q0 -80 -56 -136
t-132 -56v-379q76 0 132 -56t56 -136h954q0 80 56 136t132 56v379z" />
</svg>
