<?xml version="1.0" standalone="no"?>
<!DOCTYPE svg PUBLIC "-//W3C//DTD SVG 1.1//EN" "http://www.w3.org/Graphics/SVG/1.1/DTD/svg11.dtd" >
<svg xmlns="http://www.w3.org/2000/svg" xmlns:xlink="http://www.w3.org/1999/xlink" version="1.1" width="2048" height="2048" viewBox="-10 0 2058 2048">
   <path fill="currentColor"
d="M1031 1755h-786v-1366h-197v1366q0 78 57 135t140 57h859q-55 -86 -73 -192zM1607 0h-485v485l-196 -147l-197 147v-485h-96q-82 0 -139 57t-57 135v1170q0 83 57 140t139 57h398q23 -128 96 -235.5t185 -171.5t240 -77.5t251 31.5v-914q0 -78 -57 -135t-139 -57z
M1707 1266v293h293v196h-293v293h-196v-293h-293v-196h293v-293h196z" />
</svg>
