<?xml version="1.0" standalone="no"?>
<!DOCTYPE svg PUBLIC "-//W3C//DTD SVG 1.1//EN" "http://www.w3.org/Graphics/SVG/1.1/DTD/svg11.dtd" >
<svg xmlns="http://www.w3.org/2000/svg" xmlns:xlink="http://www.w3.org/1999/xlink" version="1.1" width="2048" height="2048" viewBox="-10 0 2068 2048">
   <path fill="currentColor"
d="M1231 202h-1029v1029h-202v-1029q0 -82 60 -142t142 -60h1029v202zM1639 409h-1024q-86 0 -146 60t-60 146v1024h206v-1024h1024v-206zM2048 1024v822q0 82 -60 142t-142 60h-822q-87 0 -147 -60t-60 -142v-822q0 -87 60 -147t147 -60h822q82 0 142 60t60 147zM1846 1332
h-822v206h822v-206z" />
</svg>
