<?xml version="1.0" standalone="no"?>
<!DOCTYPE svg PUBLIC "-//W3C//DTD SVG 1.1//EN" "http://www.w3.org/Graphics/SVG/1.1/DTD/svg11.dtd" >
<svg xmlns="http://www.w3.org/2000/svg" xmlns:xlink="http://www.w3.org/1999/xlink" version="1.1" width="2048" height="2048" viewBox="-10 0 2058 2048">
   <path fill="currentColor"
d="M1639 0h-1230q-87 0 -147 60t-60 142v1644q0 82 60 142t147 60h1230q87 0 147 -60t60 -142v-1644q0 -82 -60 -142t-147 -60zM817 202q44 0 75 31t31 74.5t-31 72.5t-74.5 29t-72.5 -29t-29 -72.5t29 -74.5t72 -31zM510 202q43 0 74 31t31 74.5t-31 72.5t-74.5 29t-72 -29
t-28.5 -72.5t28.5 -74.5t72.5 -31zM1639 1846h-1230v-1231h1230v1231zM1298 1365q5 111 -77 192.5t-197 81.5t-197 -81.5t-74.5 -192t64.5 -206.5q58 -125 140 -236l67 -106q274 399 274 548z" />
</svg>
