<?xml version="1.0" standalone="no"?>
<!DOCTYPE svg PUBLIC "-//W3C//DTD SVG 1.1//EN" "http://www.w3.org/Graphics/SVG/1.1/DTD/svg11.dtd" >
<svg xmlns="http://www.w3.org/2000/svg" xmlns:xlink="http://www.w3.org/1999/xlink" version="1.1" width="2048" height="2048" viewBox="-10 0 2068 2048">
   <path fill="currentColor"
d="M96 1303q39 0 65 26t26 65.5t-26 67.5t-65 28t-67.5 -28t-28.5 -67.5t28.5 -65.5t67.5 -26zM1861 1490h-188v-745h-183v-187h558v187h-187v745zM1394 558v187h-183v187h183v184h-183v187h183v187h-370v-932h370zM932 558v932h-187l-279 -558v558h-187v-932h187l279 558
v-558h187z" />
</svg>
