<?xml version="1.0" standalone="no"?>
<!DOCTYPE svg PUBLIC "-//W3C//DTD SVG 1.1//EN" "http://www.w3.org/Graphics/SVG/1.1/DTD/svg11.dtd" >
<svg xmlns="http://www.w3.org/2000/svg" xmlns:xlink="http://www.w3.org/1999/xlink" version="1.1" width="2048" height="2048" viewBox="-10 0 2068 2048">
   <path fill="currentColor"
d="M1952 1582h-462q-39 0 -67.5 -26.5t-28.5 -65.5v-932q0 -39 28.5 -65.5t67.5 -26.5h462q39 0 67.5 26.5t28.5 65.5v932q0 39 -28.5 65.5t-67.5 26.5zM1952 654h-462v91h462v-91zM1952 837h-462v95h462v-95zM745 1303v187h92v92h-462v-92h91v-187h-370q-39 0 -67.5 -26
t-28.5 -66v-653q0 -39 28.5 -65.5t67.5 -26.5h1020q39 0 67 26.5t28 65.5v653q0 40 -28 66t-67 26h-371zM1024 654h-837v462h837v-462z" />
</svg>
