<?xml version="1.0" standalone="no"?>
<!DOCTYPE svg PUBLIC "-//W3C//DTD SVG 1.1//EN" "http://www.w3.org/Graphics/SVG/1.1/DTD/svg11.dtd" >
<svg xmlns="http://www.w3.org/2000/svg" xmlns:xlink="http://www.w3.org/1999/xlink" version="1.1" width="2048" height="2048" viewBox="-10 0 2068 2048">
   <path fill="currentColor"
d="M820 0q221 0 408 55t297.5 148.5t110.5 206.5t-110.5 206.5t-297.5 148.5t-410 55t-410 -55t-297.5 -148.5t-110.5 -206.5t110.5 -206.5t297.5 -148.5t412 -55zM1636 926q-144 14 -252 110t-142 235q-196 58 -421.5 58t-412.5 -55.5t-297.5 -149t-110.5 -203.5v-307
q0 110 110.5 203.5t297.5 149t410 55.5t410 -55.5t297.5 -149t110.5 -203.5v312zM1127 1506v307q-149 29 -307 29q-225 0 -412 -55.5t-297.5 -149t-110.5 -203.5v-307q0 110 110.5 203.5t297.5 149t412 55.5q158 0 307 -29zM1688 1127q106 0 180 74.5t74 179.5v53
q44 0 75 29t31 72v407q0 44 -31 75t-75 31h-508q-43 0 -74 -31t-31 -75v-407q0 -43 31 -72t74 -29v-53q0 -105 74.5 -179.5t179.5 -74.5zM1688 1228q-62 0 -107.5 45.5t-45.5 107.5v53h307v-53q0 -62 -45.5 -107.5t-108.5 -45.5z" />
</svg>
