<?xml version="1.0" standalone="no"?>
<!DOCTYPE svg PUBLIC "-//W3C//DTD SVG 1.1//EN" "http://www.w3.org/Graphics/SVG/1.1/DTD/svg11.dtd" >
<svg xmlns="http://www.w3.org/2000/svg" xmlns:xlink="http://www.w3.org/1999/xlink" version="1.1" width="2048" height="2048" viewBox="-10 0 2068 2048">
   <path fill="currentColor"
d="M1712 1022q0 -36 -23 -59l-484 -483l-121 -122q-23 -23 -59 -23q-38 0 -61 23l-121 122l-482 483q-25 24 -25 59q0 36 25 61l121 121q23 24 59.5 24t59.5 -24l252 -252v670q0 35 25.5 60t60.5 25h171q35 0 60 -25t25 -60v-670l252 252q26 26 60 26q35 0 60 -26l122 -121
q23 -23 23 -61zM2048 1024.5q0 139.5 -36.5 272t-102.5 245t-160.5 207t-207 160.5t-245 102.5t-272 36.5t-272 -36.5t-245 -102.5t-207 -160.5t-160.5 -207t-103 -245t-37 -272t37 -272t103 -245t160.5 -207t207 -160.5t245 -103t272 -37t272 37t245 103t207 160.5
t160.5 207t102.5 245t36.5 272z" />
</svg>
