<?xml version="1.0" standalone="no"?>
<!DOCTYPE svg PUBLIC "-//W3C//DTD SVG 1.1//EN" "http://www.w3.org/Graphics/SVG/1.1/DTD/svg11.dtd" >
<svg xmlns="http://www.w3.org/2000/svg" xmlns:xlink="http://www.w3.org/1999/xlink" version="1.1" width="2048" height="2048" viewBox="-10 0 2058 2048">
   <path fill="currentColor"
d="M327 0l279 279h-183v279h-188v-279h-187zM327 1303l-279 -279h187v-279h188v279h183zM1163 745q0 -39 28.5 -65t68 -26t65.5 26t26 65v414l113 13l458 205q39 17 58.5 50t19.5 76v406q0 56 -41.5 95.5t-97.5 43.5h-602q-56 0 -96 -44l-453 -387l70 -74q26 -27 65 -27h22
l296 157v-928zM1259 375q96 0 183 50t135 133q79 135 39.5 283t-174.5 227v-114q96 -83 96 -209q0 -118 -82.5 -198.5t-198 -80.5t-196.5 80.5t-81 198.5q0 126 92 209v114q-87 -53 -137 -138t-50 -185q0 -152 108.5 -261t265.5 -109zM793 1211q100 0 187 48v114
q-82 -70 -193.5 -70t-192 80.5t-80.5 198.5q0 69 30.5 128t82.5 98l197 144h-31q-152 0 -261 -109t-109 -261.5t109 -261.5t261 -109z" />
</svg>
