<?xml version="1.0" standalone="no"?>
<!DOCTYPE svg PUBLIC "-//W3C//DTD SVG 1.1//EN" "http://www.w3.org/Graphics/SVG/1.1/DTD/svg11.dtd" >
<svg xmlns="http://www.w3.org/2000/svg" xmlns:xlink="http://www.w3.org/1999/xlink" version="1.1" width="2048" height="2048" viewBox="-10 0 2068 2048">
   <path fill="currentColor"
d="M1822 1058q-90 -34 -184 -34q-145 0 -270.5 74.5t-200.5 200.5t-75 271q0 43 9 94h-918q-76 0 -129.5 -53.5t-53.5 -129.5v-1093q0 -77 53.5 -130t129.5 -53h1455q77 0 130.5 53t53.5 130v670zM2048 1391l-452 452l-320 -316l136 -136l184 179l315 -316zM183 388v184
l730 452l725 -452v-184l-725 457z" />
</svg>
