<?xml version="1.0" standalone="no"?>
<!DOCTYPE svg PUBLIC "-//W3C//DTD SVG 1.1//EN" "http://www.w3.org/Graphics/SVG/1.1/DTD/svg11.dtd" >
<svg xmlns="http://www.w3.org/2000/svg" xmlns:xlink="http://www.w3.org/1999/xlink" version="1.1" width="2048" height="2048" viewBox="-10 0 2068 2048">
   <path fill="currentColor"
d="M2048 638l-128 -151q-32 23 -78 46q-64 32 -112 32t-221 -46l-10 -5q-196 -50 -271.5 -50t-162.5 37q-23 -142 -130.5 -236t-253.5 -94q-210 0 -370 110q-151 101 -231 277t-80 390.5t105 374.5q101 151 279 231t393 80q311 0 521 -155l-32 379l197 19l96 -1143
q110 23 174 23q100 0 210 -55q64 -32 105 -64zM681 368q82 0 139.5 57t57.5 137t-57.5 137.5t-139.5 57.5h-466q46 -179 160 -279q123 -110 306 -110zM777 1442q-251 0 -411 -123q-174 -133 -174 -366h489q114 0 203.5 -55t139.5 -151q32 -22 82 -50q73 -36 119 -36t142 22
l-37 453q-59 146 -207.5 226t-345.5 80z" />
</svg>
