<?xml version="1.0" standalone="no"?>
<!DOCTYPE svg PUBLIC "-//W3C//DTD SVG 1.1//EN" "http://www.w3.org/Graphics/SVG/1.1/DTD/svg11.dtd" >
<svg xmlns="http://www.w3.org/2000/svg" xmlns:xlink="http://www.w3.org/1999/xlink" version="1.1" width="2048" height="2048" viewBox="-10 0 2068 2048">
   <path fill="currentColor"
d="M1639 615h-1024v1024h-206v-1024q0 -86 60 -146t146 -60h1024v206zM1231 0h-1029q-82 0 -142 60t-60 142v1029h202v-1029h1029v-202zM2048 1024v822q0 82 -60 142t-142 60h-822q-87 0 -147 -60t-60 -142v-822q0 -87 60 -147t147 -60h822q82 0 142 60t60 147zM1846 1332
h-308v-308h-206v308h-308v206h308v308h206v-308h308v-206z" />
</svg>
