<?xml version="1.0" standalone="no"?>
<!DOCTYPE svg PUBLIC "-//W3C//DTD SVG 1.1//EN" "http://www.w3.org/Graphics/SVG/1.1/DTD/svg11.dtd" >
<svg xmlns="http://www.w3.org/2000/svg" xmlns:xlink="http://www.w3.org/1999/xlink" version="1.1" width="2048" height="2048" viewBox="-10 0 2058 2048">
   <path fill="currentColor"
d="M255 1433h307v615h-307v-615zM1793 38q-9 226 -115 389.5t-293 226.5v1394h-207v-615h-202v615h-207v-1221q-48 14 -62 34q-145 115 -145 317v53h-201v-53q0 -303 216 -491q211 -177 500 -177q211 0 356 -106q158 -130 158 -356v-48h202v38zM1077 0q86 0 146.5 60
t60.5 144t-60.5 144.5t-147 60.5t-146.5 -60.5t-60 -144.5t60 -144t147 -60z" />
</svg>
