<?xml version="1.0" standalone="no"?>
<!DOCTYPE svg PUBLIC "-//W3C//DTD SVG 1.1//EN" "http://www.w3.org/Graphics/SVG/1.1/DTD/svg11.dtd" >
<svg xmlns="http://www.w3.org/2000/svg" xmlns:xlink="http://www.w3.org/1999/xlink" version="1.1" width="2048" height="2048" viewBox="-10 0 2068 2048">
   <path fill="currentColor"
d="M1024.5 0q139.5 0 272 37t245 103t207 160.5t160.5 207t102.5 245t36.5 272t-36.5 272t-102.5 245t-160.5 207t-207 160.5t-245 102.5t-272 36.5t-272 -36.5t-245 -102.5t-207 -160.5t-160.5 -207t-103 -245t-37 -272t37 -272t103 -245t160.5 -207t207 -160.5t245 -103
t272 -37zM1390 694q-2 2 -12.5 13.5t-18.5 12.5q4 -1 7 -7t6 -14t4 -9q5 -6 30 -20q24 -10 69 -17q45 -11 68 14q-3 -2 13 -16.5t19 -15.5q4 -3 19.5 -6.5t20.5 -10.5l2 -29q-15 2 -22.5 -9.5t-8.5 -27.5q0 2 -8 10q0 -8 -6 -9.5t-15.5 0.5t-12.5 1q-14 -3 -20 -10
t-9.5 -21.5t-5.5 -19.5q-3 -6 -13 -14t-13 -14q-2 -3 -5 -10t-6 -11.5t-9 -5.5q-3 0 -9 7t-10.5 13.5t-5.5 6.5q-4 -3 -8 -2.5t-6.5 1.5t-6.5 4.5t-6 4.5q-5 3 -12 4t-10 2q19 -6 -2 -15q-13 -5 -22 -4q9 -2 10.5 -9t-2 -13t-9.5 -12h7q-1 -5 -11 -10.5t-23.5 -11.5
t-17.5 -9q-10 -7 -45 -13t-44 0q-6 3 -6.5 10t2 13.5t5 14t2.5 11.5q1 9 -7.5 18.5t-8.5 15.5q0 7 6.5 12.5t14 9t11.5 10.5t1 17q-4 10 -21.5 20.5t-21.5 16.5q-7 11 -2 25t14 22q3 3 2.5 5.5t-5 6t-8 5.5t-7.5 4.5t-5 2.5q-15 7 -27.5 -8t-17.5 -35q-1 -1 -2 -7t-1.5 -8
t-2.5 -7t-3.5 -7t-4.5 -5t-7 -5q-32 -9 -39 1q-2 -4 -4.5 -8t-7 -7l-7.5 -5t-9 -5t-8.5 -4t-10 -3.5t-8.5 -2.5q-30 -11 -77 -5q8 -1 0 -20q-10 -21 -25 -16q4 -8 5 -24.5t2 -17.5q3 -17 15 -30q1 -2 9 -11.5t13 -17.5t1 -9q47 5 67 -15q6 -6 14.5 -22t14.5 -22
q6 -7 13.5 -7.5t14 2.5t15 6.5t14.5 4.5q19 0 21 -16t-11 -25q15 1 6 -21q-5 -12 -11 -14q-14 -4 -34 5q-15 7 0 12q-2 0 -6.5 6t-10.5 13.5t-13 14t-14 6.5t-12 -9q-1 -2 -7 -19t-13 -18q-12 0 -21 21q4 -11 -15 -20t-32 -11q9 -6 9 -13.5t-5.5 -13t-13.5 -9.5
q-9 -6 -27.5 -7.5t-26.5 6.5q-6 9 -7 15t6 10.5t14 7t15.5 5.5t11.5 5q18 12 10 18q-1 1 -11 4.5t-16 6.5t-7 6q-3 5 0 18.5t-3 18.5q-6 -6 -11.5 -23t-9.5 -22q9 12 -33 7l-14 -2q-5 0 -21 3t-27.5 1.5t-17.5 -9.5q-5 -13 -1 -27q2 -6 5 -3q-5 -4 -14 -12.5t-14 -11.5
q-60 20 -125 55q9 1 17 -1q2 -1 30 -17l6 -2.5t8.5 -3.5t8 -3.5t9.5 -3t8.5 -1t8.5 0.5t7 4l7 -7q15 17 27 34q-8 -5 -41 -1q-26 6 -29 15q9 18 7 24q-6 -3 -15.5 -12.5t-19 -15.5t-20.5 -7q-21 0 -29 1q-196 109 -314 297q9 9 16 10q5 2 7 12.5t4 14.5t15 -3q12 10 4 24
q1 -1 58 36q1 2 9.5 8t12.5 11t6 9q2 7 -2.5 14.5t-10.5 10.5q-1 -3 -12 -12t-12 -6q-4 7 0.5 24.5t14.5 16.5q-9 1 -12 22t-3.5 47t-2.5 32l3 1q-4 16 7 46.5t29 25.5q-16 3 21 51q12 16 16 18q4 3 17 10t20.5 13t12.5 14q5 7 13 30.5t19 31.5q-3 8 12 27t15 30
q-2 1 -4 1.5t-3 1.5q3 9 20 18t22 18q2 3 2.5 13t3 15.5t10.5 2.5q2 -28 -32 -83q-8 -12 -22 -38q-4 -6 -7.5 -20.5t-6.5 -20.5q2 0 6 1.5t9 3.5t9 4.5t7 4t2 2.5q-3 8 0 18t11.5 21.5t16 20t17.5 19t12 12.5q8 8 18.5 26t0.5 18q11 0 25.5 13.5t23.5 26.5q6 11 10 35t7 32
q3 9 11.5 17.5t16.5 13t21.5 11t17.5 8.5q6 3 24.5 14t29.5 15q12 5 20 5.5t19.5 -3t18.5 -4.5q15 -3 25 5.5t20.5 22.5t20.5 20q17 9 39 14.5t35 0.5q-3 1 0.5 9.5t11 21t11.5 19t7 11.5q6 8 24 20.5t24 20.5q8 -6 9 -13q-4 11 10 26.5t24 14.5q10 -2 14.5 -16.5t4.5 -27.5
q-41 20 -65 -23q-1 -1 -4 -7t-5 -11.5t-4 -12t0 -10t7 -3.5q7 0 10.5 -2t3 -6.5t-1.5 -8.5t-3.5 -10.5t-2.5 -11.5q-2 -11 -15 -26.5t-16 -19.5q-6 11 -21 10t-22 -12q0 2 -1.5 7t-1.5 9q-17 0 -20 -2q0 -4 2.5 -23.5t4.5 -29.5q1 -6 7 -16.5t10 -19t5.5 -16.5t-5.5 -12.5
t-23 -3.5q-14 1 -22 7t-13 20q-2 4 -4.5 14t-6 15.5t-11.5 8.5q-9 5 -32.5 3.5t-31.5 -6.5q-19 -11 -31.5 -39t-12.5 -50q0 -13 4 -35t4 -33t-8 -33q4 -3 12.5 -12.5t13.5 -13.5q3 -2 8 -2t8.5 -2t4.5 -9q-1 -1 -3.5 -3t-4.5 -3.5l-2 -1.5q9 4 38 -1.5t36 1.5q20 15 29 -2
q1 -1 -3 -12.5t0 -18.5q3 17 13.5 20t24.5 -8q5 4 21.5 7t23.5 7q4 2 9 7t7 6t6.5 -0.5t11.5 -9.5q2 5 5.5 10t5 6.5t3 5.5t2.5 10q12 52 26 59q18 12 20.5 -9.5t-2.5 -35.5q0 -1 -0.5 -12t-1.5 -22.5l-1 -11.5q-16 -3 -22.5 -10.5t-4.5 -17t8.5 -19t15.5 -18.5
q1 -1 10.5 -5t21 -9.5t16.5 -9.5q29 -26 20 -47q11 0 15 -12q-1 0 -6 -3.5t-10 -6.5t-6 -3q13 -7 2 -22q7 -4 10.5 -14.5t9.5 -13.5q12 16 27 4q13 -11 2 -22q7 -10 28 -13.5t25 -12.5q9 2 10.5 -3t1 -15.5t3.5 -16.5q6 -7 20 -12t18 -7l21 -13q7 -6 2 -7q22 3 39 -14
q16 -15 -6 -28q3 -7 -4.5 -12t-19.5 -7q4 -1 15.5 0t13.5 -3q21 -14 -9 -21q-22 -7 -57 15zM1173 1865q135 -24 255 -89t213 -163q-5 -5 -17.5 -7.5t-16.5 -4.5l-12 -4.5t-20 -5.5q1 -10 -4 -18t-10 -12t-16 -10.5t-15 -8.5q-4 -3 -10 -8.5t-9 -7t-10 -5.5t-11 -3t-14 1
q0 1 -3.5 2t-7 2.5t-7.5 3.5t-5 4t0 4q-25 -22 -49 -30q-6 -2 -14.5 -7.5t-14.5 -9t-13.5 -2.5t-14.5 10q-6 6 -7.5 19.5t-3.5 17.5q-9 -7 0 -23.5t2 -23.5q-4 -6 -10 -6.5t-13 3t-12.5 7t-12 9t-9.5 6.5q-2 2 -10 7.5t-12 10.5t-8.5 15.5t-6.5 14.5q-2 -5 -14.5 -8
t-13.5 -7q3 14 6 47t7 50q3 16 -1 35t-16 29l-5 5l-5.5 5.5l-5.5 5.5t-5.5 6t-4.5 5.5t-4.5 6t-3.5 6t-3 7t-1 7.5q-4 29 15 34q1 9 -9.5 27t-10.5 29q0 1 4 22z" />
</svg>
