<?xml version="1.0" standalone="no"?>
<!DOCTYPE svg PUBLIC "-//W3C//DTD SVG 1.1//EN" "http://www.w3.org/Graphics/SVG/1.1/DTD/svg11.dtd" >
<svg xmlns="http://www.w3.org/2000/svg" xmlns:xlink="http://www.w3.org/1999/xlink" version="1.1" width="2048" height="2048" viewBox="-10 0 2068 2048">
   <path fill="currentColor"
d="M1822 1536q14 0 29 -5q38 -9 67 -33q39 -29 63 -73q29 -57 29 -134t-34 -135q-29 -48 -77 -77q-34 -24 -72 -38l-34 -5h-389v736h192v-174l178 174h274zM1740 1392h-154v-164h154l24 20q20 24 20 62q4 29 -5.5 48t-23.5 29zM1976 666v19q-390 -111 -664 43
q-245 135 -360 438q-106 274 -72 577h-644q28 -226 163 -481q154 -288 370 -481q250 -226 534 -269q332 -48 673 154zM1894 531q-144 -62 -211 -81l9 -135l212 82zM1692 719q106 0 212 29l-10 125l-183 -24zM1221 421l-43 -125l216 -20l39 135zM1351 800q96 -48 207 -72
l38 121l-183 72zM1005 493q-125 57 -188 101l-81 -135l187 -101zM1260 858l81 125l-110 135l-116 -106q44 -87 145 -154zM981 1363q14 -106 62 -236l125 101l-33 197zM606 776q-63 63 -144 169l-135 -116l154 -163zM284 1228q-29 58 -72 173l-29 63l-183 -72l91 -236z
M971 1498l188 62l28 202l-206 -48v-34q-10 -96 -10 -182z" />
</svg>
