<?xml version="1.0" standalone="no"?>
<!DOCTYPE svg PUBLIC "-//W3C//DTD SVG 1.1//EN" "http://www.w3.org/Graphics/SVG/1.1/DTD/svg11.dtd" >
<svg xmlns="http://www.w3.org/2000/svg" xmlns:xlink="http://www.w3.org/1999/xlink" version="1.1" width="2048" height="2048" viewBox="-10 0 2058 2048">
   <path fill="currentColor"
d="M410 0l-307 307h206v307h-206l307 307l307 -307h-201v-307h201zM1130 513q-44 0 -75 29t-31 72v1022l-326 -173h-24q-43 0 -72 29l-77 81l499 427q43 48 106 48h661q68 0 111 -45.5t43 -107.5v-447q0 -47 -21.5 -83t-64.5 -56l-504 -225l-125 -14v-456q0 -43 -28.5 -72
t-71.5 -29z" />
</svg>
