<?xml version="1.0" standalone="no"?>
<!DOCTYPE svg PUBLIC "-//W3C//DTD SVG 1.1//EN" "http://www.w3.org/Graphics/SVG/1.1/DTD/svg11.dtd" >
<svg xmlns="http://www.w3.org/2000/svg" xmlns:xlink="http://www.w3.org/1999/xlink" version="1.1" width="2048" height="2048" viewBox="-10 0 2058 2048">
   <path fill="currentColor"
d="M1691 1673l191 196l-130 131l-192 -196l-200 200l-131 -135l196 -196l-196 -196l131 -131l196 197l196 -197l135 136zM998 0l836 375v557q0 123 -26 245q-117 -61 -252 -61q-153 0 -281.5 76t-202.5 204.5t-74 276.5q0 192 113 340l-113 35q-235 -61 -427 -226.5
t-301 -401t-109 -488.5v-557z" />
</svg>
