<?xml version="1.0" standalone="no"?>
<!DOCTYPE svg PUBLIC "-//W3C//DTD SVG 1.1//EN" "http://www.w3.org/Graphics/SVG/1.1/DTD/svg11.dtd" >
<svg xmlns="http://www.w3.org/2000/svg" xmlns:xlink="http://www.w3.org/1999/xlink" version="1.1" width="2048" height="2048" viewBox="-10 0 2058 2048">
   <path fill="currentColor"
d="M1941 1229q-24 111 -173 211.5t-336 119.5h-5q-264 34 -405.5 27t-290.5 -31l-115 -24v62q19 154 149 206q77 34 264 44q115 0 245 -24q62 -10 105 -24l10 168l-43 19q-58 19 -125 38q-91 19 -197 24q-226 15 -475 -48q-274 -77 -384 -365q-87 -216 -96 -609v-351
q0 -153 43 -278q38 -101 101 -178q48 -53 100 -91l44 -29q110 -48 288 -72q173 -24 374 -24h10q201 0 374 24q178 24 288 72l44 29q52 38 100 91q63 77 101 178q43 125 43 278l-4 192q-10 221 -34 365zM1639 706q0 -159 -86.5 -259.5t-230.5 -100.5q-164 0 -245 125l-53 91
l-53 -91q-86 -125 -249 -125q-140 0 -226.5 100.5t-86.5 259.5v538h217v-524q0 -163 139 -163q153 0 153 197v283h212v-283q0 -197 153 -197q139 0 139 163v524h217v-538z" />
</svg>
