<?xml version="1.0" standalone="no"?>
<!DOCTYPE svg PUBLIC "-//W3C//DTD SVG 1.1//EN" "http://www.w3.org/Graphics/SVG/1.1/DTD/svg11.dtd" >
<svg xmlns="http://www.w3.org/2000/svg" xmlns:xlink="http://www.w3.org/1999/xlink" version="1.1" width="2048" height="2048" viewBox="-10 0 2058 2048">
   <path fill="currentColor"
d="M1116 2048h-184v-2048h184v2048zM745 1673h-370v-1298h370v-188h-370q-79 0 -133.5 54.5t-54.5 133.5v1298q0 79 54.5 133.5t133.5 54.5h370v-188zM1673 558v187h188v-187h-188zM1673 375h188q0 -79 -54.5 -133.5t-133.5 -54.5v188zM1861 1303h-188v187h188v-187z
M1673 932v184h188v-184h-188zM1490 187h-187v188h187v-188zM1673 1861q79 0 133.5 -54.5t54.5 -133.5h-188v188zM1490 1673h-187v188h187v-188z" />
</svg>
