<?xml version="1.0" standalone="no"?>
<!DOCTYPE svg PUBLIC "-//W3C//DTD SVG 1.1//EN" "http://www.w3.org/Graphics/SVG/1.1/DTD/svg11.dtd" >
<svg xmlns="http://www.w3.org/2000/svg" xmlns:xlink="http://www.w3.org/1999/xlink" version="1.1" width="2048" height="2048" viewBox="-10 0 2068 2048">
   <path fill="currentColor"
d="M483 28q251 12 364 195.5t107 452.5q0 299 -119.5 476.5t-363.5 183.5q-245 -12 -358 -192.5t-113 -465t116 -461.5t367 -189zM477 241q-86 0 -135 107t-49 330.5t49 333.5t141 110q177 0 180 -437t-186 -444zM1204 1336v-233h61h68l134 -24q80 -24 122 -61
q68 -43 107.5 -104t58.5 -128l-7 -7q-85 86 -256 86t-281.5 -94.5t-113.5 -284t128.5 -321t345.5 -137.5q245 12 361 161.5t116 388.5q-6 189 -61 336t-153 244q-92 80 -217 123t-278 55h-135zM1565 241q-79 0 -131 61.5t-52 165.5q0 85 45.5 143t143.5 65q61 0 104 -27.5
t61 -58.5q19 -18 19 -80q0 -103 -43 -182.5t-147 -86.5zM1522 1593l-422 427l-428 -427h850z" />
</svg>
