<?xml version="1.0" standalone="no"?>
<!DOCTYPE svg PUBLIC "-//W3C//DTD SVG 1.1//EN" "http://www.w3.org/Graphics/SVG/1.1/DTD/svg11.dtd" >
<svg xmlns="http://www.w3.org/2000/svg" xmlns:xlink="http://www.w3.org/1999/xlink" version="1.1" width="2048" height="2048" viewBox="-10 0 2068 2048">
   <path fill="currentColor"
d="M1024 2048h-92v-610q-78 65 -174 104.5t-200 39.5q-148 0 -276.5 -76.5t-205 -205t-76.5 -276.5v-92h610q-65 -78 -104.5 -174t-39.5 -200q0 -148 76.5 -276.5t205 -205t276.5 -76.5h92v610q78 -65 174 -104.5t200 -39.5q148 0 276.5 76.5t205 205t76.5 276.5v92h-610
q65 78 104.5 174t39.5 200q0 148 -76.5 276.5t-205 205t-276.5 76.5zM1116 1129v719q122 -31 200 -131t78 -226.5t-78 -227t-200 -134.5zM200 1116q31 122 131 200t226.5 78t227 -78t134.5 -200h-719zM1129 932h719q-31 -122 -133.5 -200t-226.5 -78t-224.5 78t-134.5 200z
M932 200q-122 31 -200 133.5t-78 226.5t78 224.5t200 134.5v-719z" />
</svg>
