<?xml version="1.0" standalone="no"?>
<!DOCTYPE svg PUBLIC "-//W3C//DTD SVG 1.1//EN" "http://www.w3.org/Graphics/SVG/1.1/DTD/svg11.dtd" >
<svg xmlns="http://www.w3.org/2000/svg" xmlns:xlink="http://www.w3.org/1999/xlink" version="1.1" width="2048" height="2048" viewBox="-10 0 2068 2048">
   <path fill="currentColor"
d="M130 0l-130 130l284 283l86 140l-144 226l178 91l130 -207l360 361h-692q-82 0 -142 60t-60 147v817h202v-202h1514l130 130v72h202v-130zM510 1538q0 44 -29 72.5t-72.5 28.5t-72 -28.5t-28.5 -72.5v-206q0 -44 28.5 -72.5t72 -28.5t72.5 28.5t29 72.5v206zM923 1538
q0 44 -31 72.5t-74.5 28.5t-72.5 -28.5t-29 -72.5v-206q0 -44 29 -72.5t72.5 -28.5t74.5 28.5t31 72.5v206zM1332 1538q0 44 -29 72.5t-72.5 28.5t-74.5 -28.5t-31 -72.5v-206q0 -29 19 -58l188 187v77zM1461 769l145 -226l-145 -226l202 -317l183 91l-149 226l149 226
l-207 318zM2048 1231v428l-308 -308v-19q0 -44 -28.5 -72.5t-72.5 -28.5h-14l-212 -207h433q82 0 142 60t60 147zM986 543l-145 -226l207 -317l178 91l-149 226l149 226l-115 173l-145 -139zM562 173l-144 -144l15 -19l178 91z" />
</svg>
