<?xml version="1.0" standalone="no"?>
<!DOCTYPE svg PUBLIC "-//W3C//DTD SVG 1.1//EN" "http://www.w3.org/Graphics/SVG/1.1/DTD/svg11.dtd" >
<svg xmlns="http://www.w3.org/2000/svg" xmlns:xlink="http://www.w3.org/1999/xlink" version="1.1" width="2048" height="2048" viewBox="-10 0 2068 2048">
   <path fill="currentColor"
d="M1846 512h-1644q-82 0 -142 60t-60 147v817h202v-202h1644v202h202v-817q0 -87 -60 -147t-142 -60zM510 1026q0 44 -29 72.5t-72.5 28.5t-72 -28.5t-28.5 -72.5v-206q0 -44 28.5 -72.5t72 -28.5t72.5 28.5t29 72.5v206zM923 1026q0 44 -31 72.5t-74.5 28.5t-72.5 -28.5
t-29 -72.5v-206q0 -44 29 -72.5t72.5 -28.5t74.5 28.5t31 72.5v206zM1332 1026q0 44 -29 72.5t-72.5 28.5t-74.5 -28.5t-31 -72.5v-206q0 -44 31 -72.5t74.5 -28.5t72.5 28.5t29 72.5v206zM1740 1026q0 44 -28.5 72.5t-72 28.5t-72.5 -28.5t-29 -72.5v-206q0 -44 29 -72.5
t72.5 -28.5t72 28.5t28.5 72.5v206z" />
</svg>
