<?xml version="1.0" standalone="no"?>
<!DOCTYPE svg PUBLIC "-//W3C//DTD SVG 1.1//EN" "http://www.w3.org/Graphics/SVG/1.1/DTD/svg11.dtd" >
<svg xmlns="http://www.w3.org/2000/svg" xmlns:xlink="http://www.w3.org/1999/xlink" version="1.1" width="2048" height="2048" viewBox="-10 0 2058 2048">
   <path fill="currentColor"
d="M2019 462v9v442q0 20 -14 24l-370 217v418q0 19 -15 29l-779 447h-24l-5 -5l-769 -442q-14 -10 -14 -29v-1327l5 -9l394 -231q19 -10 34 0l389 221l10 10l4 841l318 -183l4 -432l5 -10l394 -231q15 -9 34 0l390 226l4 5zM1957 894v-365l-322 183v365zM1572 1558v-371
l-707 404v370zM91 308v1250l707 403v-370l-370 -206v-5l-10 -5l-5 -885zM447 67l-322 188l322 182l322 -182zM798 1115v-807l-322 182v808zM1601 284l-322 187l322 183l322 -183zM1572 712l-322 -183v365l322 183v-365zM832 1538l706 -403l-322 -188l-706 409z" />
</svg>
