<?xml version="1.0" standalone="no"?>
<!DOCTYPE svg PUBLIC "-//W3C//DTD SVG 1.1//EN" "http://www.w3.org/Graphics/SVG/1.1/DTD/svg11.dtd" >
<svg xmlns="http://www.w3.org/2000/svg" xmlns:xlink="http://www.w3.org/1999/xlink" version="1.1" width="2048" height="2048" viewBox="-11 0 2069 2048">
   <path fill="currentColor"
d="M798 1216q87 0 144.5 58t57.5 142t-57.5 141.5t-141.5 57.5t-142 -57.5t-58 -141.5t58 -142t139 -58zM1279 135h72q188 0 349 93.5t254.5 254.5t93.5 349l-5 86l-120 -38v-48q0 -154 -77 -286t-209 -209t-286 -77h-38zM1365 433q159 5 272 120t113 274l-125 -39
q-14 -86 -76.5 -148.5t-149.5 -76.5zM0 1375q-4 -91 39 -202q72 -183 264 -356q120 -110 221 -182q87 -58 159 -92q48 -19 87 -24h76q58 5 92 29q53 34 53 101q4 87 -63 216h5q120 -125 365 -149q144 -14 183 87q33 72 5 192q149 72 230.5 175.5t81.5 218.5
q0 144 -120 264.5t-327 190t-452 69.5h-29q-264 0 -480 -86.5t-317 -230.5q-73 -96 -73 -207v-14zM798 1014q-158 0 -297.5 55.5t-219 147t-79.5 199.5t79.5 199.5t219 146.5t300.5 55t300.5 -55t218.5 -146.5t79 -199.5t-79 -199.5t-218.5 -147t-303.5 -55.5z" />
</svg>
