<?xml version="1.0" standalone="no"?>
<!DOCTYPE svg PUBLIC "-//W3C//DTD SVG 1.1//EN" "http://www.w3.org/Graphics/SVG/1.1/DTD/svg11.dtd" >
<svg xmlns="http://www.w3.org/2000/svg" xmlns:xlink="http://www.w3.org/1999/xlink" version="1.1" width="2048" height="2048" viewBox="-10 0 2058 2048">
   <path fill="currentColor"
d="M1628 1769v275h-184v-275h-278v-187h278v-279h184v279h278v187h-278zM1815 932q0 123 -26 245q-83 -40 -179 -57q18 -87 18 -170v-458l-650 -287l-649 287v458q0 200 89.5 392t239.5 331.5t320 187.5l31 -9q22 83 83 161l-114 35q-235 -61 -427 -226.5t-300.5 -401
t-108.5 -488.5v-557l836 -375l837 375v557z" />
</svg>
