<?xml version="1.0" standalone="no"?>
<!DOCTYPE svg PUBLIC "-//W3C//DTD SVG 1.1//EN" "http://www.w3.org/Graphics/SVG/1.1/DTD/svg11.dtd" >
<svg xmlns="http://www.w3.org/2000/svg" xmlns:xlink="http://www.w3.org/1999/xlink" version="1.1" width="2048" height="2048" viewBox="-10 0 2069 2048">
   <path fill="currentColor"
d="M1875 112q109 204 149.5 437t11.5 475q-14 242 -95 475t-223 437l-157 -99q252 -381 276 -813q52 -432 -133 -813zM330 112l157 99q-252 381 -276 813q-52 432 133 813l-171 99q-218 -423 -161 -912q14 -242 95 -475t223 -437zM1034 891l232 -328h257l-380 509l218 498
h-228l-138 -342l-247 338h-256l394 -523l-214 -480h228z" />
</svg>
