<?xml version="1.0" standalone="no"?>
<!DOCTYPE svg PUBLIC "-//W3C//DTD SVG 1.1//EN" "http://www.w3.org/Graphics/SVG/1.1/DTD/svg11.dtd" >
<svg xmlns="http://www.w3.org/2000/svg" xmlns:xlink="http://www.w3.org/1999/xlink" version="1.1" width="2048" height="2048" viewBox="-10 0 2068 2048">
   <path fill="currentColor"
d="M1024 0q-202 0 -392 77t-334 221t-221 334t-77 392t77 392t221 334t334 221t392 77t392 -77t334 -221t221 -334t77 -392t-77 -392t-221 -334t-334 -221t-392 -77zM1471 380q82 -5 135 28.5t53 86.5q4 29 -17.5 60.5t-60 33.5t-60 -17t-21.5 -53q-5 -9 14 -48l10 -29
q0 -19 -19 -24t-34 -5q-101 5 -159 130q-33 77 -67 255l-14 87q115 19 182 -24q20 -15 20 -27t-14.5 -36t-9.5 -38q4 -29 23.5 -43.5t46 -14.5t43 24t16.5 53q0 58 -67 101q-72 53 -192 53q-24 0 -58 -5q-58 283 -91 394q-58 164 -149 274q-135 159 -298 168
q-77 0 -125 -33.5t-48 -86.5t33.5 -84t69.5 -31t62.5 24t29 62.5t-31.5 52.5l-5 5q-19 14 -19 24t7 17t27 7q38 0 86 -34h5q67 -57 111 -177q33 -97 74 -318t75 -336q-20 -15 -60.5 -51t-64.5 -50q-39 -29 -82 -39q-87 -24 -130 29q-24 34 -19 70t29 60q91 101 120 154
t19 110q-14 101 -115 154t-226 15q-101 -34 -144 -101q-34 -58 -15 -111q10 -34 36.5 -46t57.5 -2t43 41t3 65l-24 53q-15 38 62 62q48 15 91.5 -4.5t52.5 -62.5q19 -53 -29 -96q-77 -87 -105 -149q-39 -72 -17.5 -142t74.5 -108q111 -82 241 -44q53 15 96 49q29 19 72 62
l48 38q63 -177 163 -293q116 -134 260 -139z" />
</svg>
