<?xml version="1.0" standalone="no"?>
<!DOCTYPE svg PUBLIC "-//W3C//DTD SVG 1.1//EN" "http://www.w3.org/Graphics/SVG/1.1/DTD/svg11.dtd" >
<svg xmlns="http://www.w3.org/2000/svg" xmlns:xlink="http://www.w3.org/1999/xlink" version="1.1" width="2048" height="2048" viewBox="-10 0 2068 2048">
   <path fill="currentColor"
d="M0 726l134 -134l204 205l201 -205l133 134l-200 205l200 200l-133 133l-201 -200l-204 200l-134 -133l205 -200zM1287 263q156 0 267 111t111 269t-111 269.5t-267 111.5t-267.5 -111.5t-111.5 -269.5t111.5 -269t267.5 -111zM1287 445q-85 0 -143 58t-58 140.5t58 140
t142.5 57.5t142.5 -57.5t58 -140t-58 -140.5t-142 -58zM1287 1117q142 0 311 45q192 49 308 125q142 93 142 213v285h-1523v-285q0 -120 143 -213q116 -76 307 -125q169 -45 312 -45zM1287 1300q-134 0 -276 36q-125 35 -214 84t-89 80v103h1157v-103q0 -31 -89 -80
t-213 -84q-143 -36 -276 -36z" />
</svg>
