<?xml version="1.0" standalone="no"?>
<!DOCTYPE svg PUBLIC "-//W3C//DTD SVG 1.1//EN" "http://www.w3.org/Graphics/SVG/1.1/DTD/svg11.dtd" >
<svg xmlns="http://www.w3.org/2000/svg" xmlns:xlink="http://www.w3.org/1999/xlink" version="1.1" width="2048" height="2048" viewBox="-10 0 2068 2048">
   <path fill="currentColor"
d="M683 453v1142h229v-459h91l133 459h229l-138 -475q64 -27 101 -83t37 -125v-229q0 -96 -66.5 -163t-162.5 -67h-453zM912 683h224v229h-224v-229zM229 0h1590q96 0 162.5 66.5t66.5 162.5v1590q0 96 -66.5 162.5t-162.5 66.5h-1590q-96 0 -162.5 -66.5t-66.5 -162.5
v-1590q0 -96 66.5 -162.5t162.5 -66.5z" />
</svg>
