<?xml version="1.0" standalone="no"?>
<!DOCTYPE svg PUBLIC "-//W3C//DTD SVG 1.1//EN" "http://www.w3.org/Graphics/SVG/1.1/DTD/svg11.dtd" >
<svg xmlns="http://www.w3.org/2000/svg" xmlns:xlink="http://www.w3.org/1999/xlink" version="1.1" width="2048" height="2048" viewBox="-10 0 2058 2048">
   <path fill="currentColor"
d="M724 620l221 99l227 -99l-104 222l104 221l-227 -98l-221 98l103 -221zM1472 0l113 305l305 118l-305 114l-113 305l-113 -305l-305 -114l305 -118zM369 1733h104v-103q0 -45 32 -74.5t76 -29.5h25q-183 -103 -288.5 -285.5t-105.5 -396.5t105.5 -396t288 -288
t393.5 -106q163 0 311 64l-40 104l-148 54q-59 -10 -123 -10q-113 0 -219 44t-187 125.5t-125.5 187.5t-44.5 219q0 157 76.5 290t209.5 209.5t288 76.5t283 -71.5t207 -194.5t88 -271l99 -261l74 -24q39 118 39 246q0 216 -106 398.5t-288 285.5h25q44 0 76 29.5t32 74.5
v103h104q88 0 149.5 61.5t61.5 150.5v103h-1683v-103q0 -89 61.5 -150.5t149.5 -61.5z" />
</svg>
