<?xml version="1.0" standalone="no"?>
<!DOCTYPE svg PUBLIC "-//W3C//DTD SVG 1.1//EN" "http://www.w3.org/Graphics/SVG/1.1/DTD/svg11.dtd" >
<svg xmlns="http://www.w3.org/2000/svg" xmlns:xlink="http://www.w3.org/1999/xlink" version="1.1" width="2048" height="2048" viewBox="-10 0 2068 2048">
   <path fill="currentColor"
d="M1711 551l-473 474l473 472l192 -191q18 -19 44 -24t50 5q23 10 37 31t14 47v598q0 35 -25 60t-60 25h-598q-26 0 -47 -14.5t-31 -38.5q-10 -22 -5 -48t24 -44l191 -192l-472 -474l-474 474l192 192q19 18 24 44t-5 48q-10 24 -31.5 38.5t-47.5 14.5h-598q-35 0 -60 -25
t-25 -60v-598q0 -26 15 -47t39 -31q22 -10 48 -5t44 24l191 191l474 -472l-474 -474l-191 191q-26 26 -61 26q-13 0 -31 -7q-24 -10 -39 -31t-15 -47v-598q0 -35 25 -60t60 -25h598q26 0 47.5 15t31.5 39q10 22 5 47.5t-24 43.5l-192 192l474 474l472 -474l-191 -192
q-19 -18 -24 -43.5t5 -47.5q10 -24 31 -39t47 -15h598q35 0 60 25t25 60v598q0 26 -14 47t-37 31q-21 7 -34 7q-34 0 -60 -26z" />
</svg>
