<?xml version="1.0" standalone="no"?>
<!DOCTYPE svg PUBLIC "-//W3C//DTD SVG 1.1//EN" "http://www.w3.org/Graphics/SVG/1.1/DTD/svg11.dtd" >
<svg xmlns="http://www.w3.org/2000/svg" xmlns:xlink="http://www.w3.org/1999/xlink" version="1.1" width="2048" height="2048" viewBox="-10 0 2058 2048">
   <path fill="currentColor"
d="M557 1860h188v188h-188v-188zM932 1860h184v188h-184v-188zM1303 1860h188v188h-188v-188zM1491 0h-1118q-78 0 -132.5 54.5t-54.5 128.5v1306q0 79 54.5 133.5t132.5 54.5h1302q78 0 132.5 -54.5t54.5 -133.5v-1118zM1675 1489h-1302v-1306h1040l262 267v1039zM1024 838
q-118 0 -198.5 81t-80.5 196.5t80.5 198.5t198.5 83t198.5 -83t80.5 -198.5t-80.5 -196.5t-198.5 -81zM465 279h838v372h-838v-372z" />
</svg>
