<?xml version="1.0" standalone="no"?>
<!DOCTYPE svg PUBLIC "-//W3C//DTD SVG 1.1//EN" "http://www.w3.org/Graphics/SVG/1.1/DTD/svg11.dtd" >
<svg xmlns="http://www.w3.org/2000/svg" xmlns:xlink="http://www.w3.org/1999/xlink" version="1.1" width="2048" height="2048" viewBox="-10 0 2068 2048">
   <path fill="currentColor"
d="M2048 1247q-62 43 -125 87q-158 95 -292 153q-197 86 -326 86q-183 5 -245 -91q-29 -48 -19 -96l110 -43q134 -62 250 -134q167 -106 278 -221q139 -148 182 -307q48 -192 -34 -398q-96 -134 -215.5 -189t-287.5 -51q-187 0 -346 115q-191 140 -316 413q-53 125 -86 273
q-20 87 -39 231l-53 4q-67 5 -119 -4q-77 -10 -125 -48q-63 -53 -115 -34q-29 10 -43 34l-39 57q-38 72 -43 125q0 77 82 105q105 44 287 77l159 19q24 120 86 231q81 153 225 259q111 86 283 100q135 15 307 -14q120 -24 245 -67l101 -39zM988 1055q5 -177 62 -326
q48 -129 130 -216q72 -76 148.5 -98t124.5 22q58 52 60.5 143.5t-50.5 187.5t-153.5 165.5t-182.5 97.5q-57 24 -105 29z" />
</svg>
