<?xml version="1.0" standalone="no"?>
<!DOCTYPE svg PUBLIC "-//W3C//DTD SVG 1.1//EN" "http://www.w3.org/Graphics/SVG/1.1/DTD/svg11.dtd" >
<svg xmlns="http://www.w3.org/2000/svg" xmlns:xlink="http://www.w3.org/1999/xlink" version="1.1" width="2048" height="2048" viewBox="-10 0 2058 2048">
   <path fill="currentColor"
d="M1803 1447q-72 82 -149 82t-120 -48q-29 -34 -62 -116l-164 -403l-168 413q-29 72 -53 101q-43 53 -117.5 53t-122.5 -48q-24 -29 -53 -101l-279 -693h231l221 558l168 -418q29 -67 53 -96q48 -53 120 -53t116 53q28 29 57 96l183 452q67 -101 96 -223.5t12 -247.5
t-77 -235.5t-153.5 -192.5t-211.5 -125t-243 -43q-260 -5 -478.5 153.5t-300 408.5t0 502.5t298 408.5t480.5 151q115 0 221 -28v216q-110 24 -221 24q-332 0 -603.5 -194.5t-375 -512t0 -635t373 -512t605.5 -194.5q245 0 452 120t329.5 327t122.5 452q0 303 -188 548z" />
</svg>
