<?xml version="1.0" standalone="no"?>
<!DOCTYPE svg PUBLIC "-//W3C//DTD SVG 1.1//EN" "http://www.w3.org/Graphics/SVG/1.1/DTD/svg11.dtd" >
<svg xmlns="http://www.w3.org/2000/svg" xmlns:xlink="http://www.w3.org/1999/xlink" version="1.1" width="2048" height="2048" viewBox="-10 0 2058 2048">
   <path fill="currentColor"
d="M1257 1024h510l-510 -510v510zM699 375h650l557 557v929q0 78 -54.5 132.5t-132.5 54.5h-1020q-78 0 -132.5 -54.5t-54.5 -132.5v-279h466v187l371 -279l-371 -279v183h-466v-836q0 -74 54.5 -128.5t132.5 -54.5zM1209 187h-884v1207h187v188h-187q-74 0 -128.5 -54.5
t-54.5 -133.5v-1207q0 -78 54.5 -132.5t128.5 -54.5h697z" />
</svg>
