<?xml version="1.0" standalone="no"?>
<!DOCTYPE svg PUBLIC "-//W3C//DTD SVG 1.1//EN" "http://www.w3.org/Graphics/SVG/1.1/DTD/svg11.dtd" >
<svg xmlns="http://www.w3.org/2000/svg" xmlns:xlink="http://www.w3.org/1999/xlink" version="1.1" width="2048" height="2048" viewBox="-10 0 2058 2048">
   <path fill="currentColor"
d="M1486 418q-53 14 -106 33q-120 44 -202 101q-115 82 -144 173q-29 120 87 255q43 48 38 105q-5 39 -34 77l-28 34l57 -44q67 -48 91 -100q34 -77 -14 -149l-14 -19q-63 -87 -72 -130q-10 -63 57 -135q77 -81 284 -201zM1029 538q116 -91 178 -183q53 -76 72 -149
q10 -57 0 -110q-10 -38 -29 -72l-19 -24q24 106 -5 192q-29 77 -101 149q-43 43 -144 120q-72 62 -105 91q-58 53 -92 96q-62 101 15 226q53 91 226 250q-20 -39 -72 -116q-58 -91 -77 -134q-29 -82 0 -154q33 -86 153 -182zM756 1585q-116 28 -99 71.5t130 72t257 24.5
q163 -10 302 -72q-57 -24 -110 -53q-211 48 -423 14q-86 -9 -81 -33q4 -15 24 -24zM1298 1412q-269 57 -547 24q-82 -5 -72 -43q5 -20 29 -34q-125 43 -110.5 84t137 65t290.5 14q187 -9 360 -57q-43 -20 -87 -53zM1649 1748q5 9 12 21t-5 31.5t-70 33.5q-115 34 -360 51
t-466 7q-244 -14 -340 -53q-48 -24 9 -53q43 -24 96 -33q34 -10 72 -10q-38 -24 -158 7t-161 81.5t94 70.5q235 38 470 48q207 4 394 -15q173 -19 290.5 -52.5t151 -69.5t-28.5 -65zM1370 1253q39 -29 96 -53l-100 15q-116 19 -212 29q-245 24 -494 4q-106 -14 -72 -48
q24 -19 120 -48l86 -28q-168 0 -322 76q-76 39 -6.5 65.5t235 36t338.5 -0.5q197 -14 331 -48zM1462 1498q-5 10 -10 10q182 -43 264 -130q72 -67 62.5 -141.5t-84 -110.5t-160.5 -7q-24 9 -34 24q24 -5 43 -10q48 -9 93.5 19.5t55.5 84t-38 117.5q-58 77 -192 144z
M1476 1974q-461 76 -936 14l24 10q28 9 81 19q77 14 183 24q201 14 408 0q230 -15 370 -58q168 -48 172 -129q5 0 -19 21.5t-81 40.5q-77 34 -202 58z" />
</svg>
