<?xml version="1.0" standalone="no"?>
<!DOCTYPE svg PUBLIC "-//W3C//DTD SVG 1.1//EN" "http://www.w3.org/Graphics/SVG/1.1/DTD/svg11.dtd" >
<svg xmlns="http://www.w3.org/2000/svg" xmlns:xlink="http://www.w3.org/1999/xlink" version="1.1" width="2048" height="2048" viewBox="-10 0 2058 2048">
   <path fill="currentColor"
d="M1257 187l-187 -187h-745q-74 0 -128.5 54.5t-54.5 132.5v1116q0 78 54.5 132.5t128.5 54.5h653v183l371 -279l-371 -278v187h-653v-1116h932zM1906 837v1024q0 78 -54.5 132.5t-132.5 54.5h-1020q-78 0 -132.5 -54.5t-54.5 -132.5v-188h187v188h1020v-837h-462v-466
h-558v558h-187v-558q0 -74 54.5 -128.5t132.5 -54.5h741z" />
</svg>
