<?xml version="1.0" standalone="no"?>
<!DOCTYPE svg PUBLIC "-//W3C//DTD SVG 1.1//EN" "http://www.w3.org/Graphics/SVG/1.1/DTD/svg11.dtd" >
<svg xmlns="http://www.w3.org/2000/svg" xmlns:xlink="http://www.w3.org/1999/xlink" version="1.1" width="2048" height="2048" viewBox="-10 0 2068 2048">
   <path fill="currentColor"
d="M1892 1642q-15 -44 -20 -93q-107 108 -254 108q-127 0 -212.5 -71t-85.5 -188q0 -137 105 -212.5t296 -75.5h146v-69q0 -78 -46.5 -122t-139.5 -44q-78 0 -134 39t-56 93h-152q0 -69 44 -130t132 -97.5t176 -36.5q152 0 237.5 75.5t90.5 207.5v406q0 127 29 196v14h-156z
M1642 1525q69 0 132.5 -34t92.5 -83v-166h-117q-279 0 -279 146q0 64 49 100.5t122 36.5zM367 1193h425l-210 -562zM494 391h176l493 1251h-200l-103 -269h-557l-103 269h-200z" />
</svg>
