<?xml version="1.0" standalone="no"?>
<!DOCTYPE svg PUBLIC "-//W3C//DTD SVG 1.1//EN" "http://www.w3.org/Graphics/SVG/1.1/DTD/svg11.dtd" >
<svg xmlns="http://www.w3.org/2000/svg" xmlns:xlink="http://www.w3.org/1999/xlink" version="1.1" width="2048" height="2048" viewBox="-10 0 2068 2048">
   <path fill="currentColor"
d="M1925 2048l-782 -777l-64 64l-540 -229q10 -68 55 -114l137 -137l-731 -732l123 -123l1925 1925zM1394 1019l-416 -411l512 -512q60 -59 140 -59t135 59l141 137q55 60 55 140t-55 134zM1559 439q27 32 68.5 32t71 -30t29.5 -71t-29.5 -68.5t-71 -27.5t-69 27.5
t-27.5 68.5t28 69zM379 1390v562l567 -507l-489 -197z" />
</svg>
