<?xml version="1.0" standalone="no"?>
<!DOCTYPE svg PUBLIC "-//W3C//DTD SVG 1.1//EN" "http://www.w3.org/Graphics/SVG/1.1/DTD/svg11.dtd" >
<svg xmlns="http://www.w3.org/2000/svg" xmlns:xlink="http://www.w3.org/1999/xlink" version="1.1" width="2048" height="2048" viewBox="-10 0 2058 2048">
   <path fill="currentColor"
d="M2038 707l-173 101l-408 -707l173 -101zM798 606l308 529l625 -356l-308 -534zM962 1096l-202 -360l-443 259l202 356zM10 1288l101 178l269 -154l-106 -177zM1034 1231l-29 -44l-443 255l29 44q34 48 82 81l-163 481h206l145 -437h9l154 437h207l-197 -572
q38 -53 38 -120.5t-38 -124.5z" />
</svg>
