<?xml version="1.0" standalone="no"?>
<!DOCTYPE svg PUBLIC "-//W3C//DTD SVG 1.1//EN" "http://www.w3.org/Graphics/SVG/1.1/DTD/svg11.dtd" >
<svg xmlns="http://www.w3.org/2000/svg" xmlns:xlink="http://www.w3.org/1999/xlink" version="1.1" width="2048" height="2048" viewBox="-10 0 2068 2048">
   <path fill="currentColor"
d="M663 0q169 0 315.5 77t238 214t110.5 300l721 433v207l-202 -125v942h-207v-1067l-307 -183v1250h-207v-1332h-923v1332h-202v-1385q0 -177 89 -331t243 -243t331 -89zM663 202q-149 0 -266.5 86.5t-165.5 221.5h870q-48 -135 -168.5 -221.5t-269.5 -86.5zM409 923h514
v202h-514v-202zM409 1332h514v206h-514v-206zM409 1740h514v207h-514v-207z" />
</svg>
