<?xml version="1.0" standalone="no"?>
<!DOCTYPE svg PUBLIC "-//W3C//DTD SVG 1.1//EN" "http://www.w3.org/Graphics/SVG/1.1/DTD/svg11.dtd" >
<svg xmlns="http://www.w3.org/2000/svg" xmlns:xlink="http://www.w3.org/1999/xlink" version="1.1" width="2048" height="2048" viewBox="-10 0 2068 2048">
   <path fill="currentColor"
d="M1024 0q-202 0 -392 77t-334 221t-221 334t-77 392t77 392t221 334t334 221t392 77t392 -77t334 -221t221 -334t77 -392t-77 -392t-221 -334t-334 -221t-392 -77zM519 1668q34 -67 195 -124.5t310 -57.5t310 57.5t195 124.5q-221 178 -505 178t-505 -178zM1678 1519
q-101 -120 -327 -187q-178 -53 -327 -53t-327 53q-226 67 -327 187q-168 -221 -168 -495q0 -221 110.5 -411t300.5 -300.5t411 -110.5t411 110.5t300.5 300.5t110.5 411q0 274 -168 495zM1024 409q-149 0 -255 105.5t-106 254.5t106 252.5t255 103.5t255 -103.5t106 -252.5
t-106 -254.5t-255 -105.5zM1024 923q-62 0 -108 -45.5t-46 -110.5t46 -108.5t108 -43.5t108 43.5t46 108.5t-46 110.5t-108 45.5z" />
</svg>
