<?xml version="1.0" standalone="no"?>
<!DOCTYPE svg PUBLIC "-//W3C//DTD SVG 1.1//EN" "http://www.w3.org/Graphics/SVG/1.1/DTD/svg11.dtd" >
<svg xmlns="http://www.w3.org/2000/svg" xmlns:xlink="http://www.w3.org/1999/xlink" version="1.1" width="2048" height="2048" viewBox="-10 0 2068 2048">
   <path fill="currentColor"
d="M1813 1255v139h-140v-139h140zM1630 793h-140v-48q0 -118 80.5 -198.5t196 -80.5t198.5 80.5t83 198.5q0 65 -32.5 126t-89.5 96l-26 18q-87 61 -87 161v17h-140v-17q0 -83 39.5 -157t108.5 -118l27 -17q61 -39 61 -109q0 -57 -41.5 -98t-100.5 -41t-98 41t-39 98v48z
M745 1116q140 0 305 43q188 48 301 122q139 92 139 209v279h-1490v-279q0 -117 139 -209q114 -74 301 -122q166 -43 305 -43zM745 279q153 0 262 109t109 263.5t-109 263.5t-261.5 109t-261.5 -109t-109 -263.5t109 -263.5t261 -109zM745 1294q-131 0 -270 35
q-122 35 -209 83t-87 78v100h1133v-100q0 -30 -87.5 -78t-209.5 -83q-139 -35 -270 -35zM745 458q-83 0 -139.5 56.5t-56.5 137t56.5 137t139.5 56.5t139.5 -56.5t56.5 -137t-56.5 -137t-139.5 -56.5z" />
</svg>
