<?xml version="1.0" standalone="no"?>
<!DOCTYPE svg PUBLIC "-//W3C//DTD SVG 1.1//EN" "http://www.w3.org/Graphics/SVG/1.1/DTD/svg11.dtd" >
<svg xmlns="http://www.w3.org/2000/svg" xmlns:xlink="http://www.w3.org/1999/xlink" version="1.1" width="2048" height="2048" viewBox="-10 0 2068 2048">
   <path fill="currentColor"
d="M1335 1026h133v250l217 125l-67 117l-283 -167v-325zM1427 847q-121 0 -223.5 60.5t-163 162.5t-60.5 223t60.5 223t163 160.5t223 58.5t223 -58.5t161 -160.5t58.5 -223t-58.5 -223t-161 -162.5t-222.5 -60.5zM1427 667q166 0 310 85.5t227.5 227.5t83.5 311t-83.5 313
t-227.5 227.5t-310 83.5q-184 0 -336.5 -98.5t-227.5 -256.5h-863v-267q0 -113 133 -200q109 -71 288 -117q159 -42 292 -42q84 0 188 21q83 -133 223 -210.5t303 -77.5zM801 1293q0 -96 29 -179q-54 -9 -117 -9q-125 0 -258 34q-117 33 -200.5 79t-83.5 75v96h638
q-8 -46 -8 -96zM713 133q146 0 250.5 104.5t104.5 252.5t-104.5 252.5t-250.5 104.5t-250 -104.5t-104 -252.5t104 -252.5t250 -104.5zM713 304q-79 0 -133 54.5t-54 131.5t54 131.5t133.5 54.5t133.5 -54.5t54 -131.5t-54 -131.5t-134 -54.5z" />
</svg>
