<?xml version="1.0" standalone="no"?>
<!DOCTYPE svg PUBLIC "-//W3C//DTD SVG 1.1//EN" "http://www.w3.org/Graphics/SVG/1.1/DTD/svg11.dtd" >
<svg xmlns="http://www.w3.org/2000/svg" xmlns:xlink="http://www.w3.org/1999/xlink" version="1.1" width="2048" height="2048" viewBox="-10 0 2058 2048">
   <path fill="currentColor"
d="M1110 0q-60 142 -82 211q-38 121 -38 212q0 73 25 168q-8 -26 -21 -43q-52 -74 -164 -151q-69 -52 -220 -143q0 147 17 220l578 582v-185q125 -73 194 -125q99 -73 146.5 -140t64.5 -166q9 -61 9 -186q-151 91 -220 143q-112 77 -164 151l-21 38q26 -94 26 -176
q0 -91 -44 -207q-21 -69 -86 -203zM313 392l-117 117l427 427q13 90 60.5 155t146.5 138q69 52 194 125v211l-30 -52q-52 -73 -164 -151q-69 -51 -220 -142q0 125 9 186q17 99 64.5 165.5t146.5 140.5q69 51 194 125v168h181v-168q121 -69 190 -125l340 336l117 -116z
M1619 737q-151 91 -220 143q-112 77 -164 150l-17 35l172 172q108 -81 155.5 -148t64.5 -166q9 -61 9 -186zM1619 1220q-86 52 -151 95l134 134q17 -74 17 -229z" />
</svg>
