<?xml version="1.0" standalone="no"?>
<!DOCTYPE svg PUBLIC "-//W3C//DTD SVG 1.1//EN" "http://www.w3.org/Graphics/SVG/1.1/DTD/svg11.dtd" >
<svg xmlns="http://www.w3.org/2000/svg" xmlns:xlink="http://www.w3.org/1999/xlink" version="1.1" width="2048" height="2048" viewBox="-10 0 2068 2048">
   <path fill="currentColor"
d="M860 1034q71 -154 206.5 -250t300 -112.5t317 54.5t248.5 206.5t112.5 300t-49.5 319.5q-80 167 -232 265t-336 98t-336 -96t-227 -259h-864v-179q8 -150 208.5 -250.5t505.5 -104.5q54 0 146 8zM714 133q150 4 250 104.5t100 252.5t-100 252t-250.5 100t-250.5 -100
t-100 -252t100 -252.5t251 -104.5zM1427 1735q121 0 223.5 -58t160.5 -160.5t58 -223.5t-58 -223t-160.5 -162.5t-223.5 -60.5t-223 60.5t-162.5 162.5t-60.5 223t60.5 223.5t162.5 160.5t223 58zM1335 1026h134v250l217 126l-67 116l-284 -166v-326z" />
</svg>
