<?xml version="1.0" standalone="no"?>
<!DOCTYPE svg PUBLIC "-//W3C//DTD SVG 1.1//EN" "http://www.w3.org/Graphics/SVG/1.1/DTD/svg11.dtd" >
<svg xmlns="http://www.w3.org/2000/svg" xmlns:xlink="http://www.w3.org/1999/xlink" version="1.1" width="2048" height="2048" viewBox="-10 0 2068 2048">
   <path fill="currentColor"
d="M0 559q34 -9 64 -13q81 -13 162 -13q115 0 218 26q123 26 217 90l17 89q26 98 69 162q59 90 140 90v-158l18 21q17 30 42 43q39 26 77 26t77 -26q25 -13 42 -43l18 -21v158q81 0 140 -90q43 -64 69 -162l17 -89q170 -116 435 -116q128 0 226 26q-81 38 -132 145
q-39 77 -60 179l-13 86q-162 0 -256 76q-68 52 -94 141q-12 43 -12 77q-205 -38 -320 26q-86 46 -120 140q-17 47 -17 86l-9 -56q-12 -60 -46 -106q-52 -64 -137 -90q-107 -30 -265 0l-4 -47q-13 -55 -38 -102q-43 -64 -111 -103q-85 -42 -209 -42l-13 -86
q-21 -102 -60 -179q-51 -107 -132 -145z" />
</svg>
