<?xml version="1.0" standalone="no"?>
<!DOCTYPE svg PUBLIC "-//W3C//DTD SVG 1.1//EN" "http://www.w3.org/Graphics/SVG/1.1/DTD/svg11.dtd" >
<svg xmlns="http://www.w3.org/2000/svg" xmlns:xlink="http://www.w3.org/1999/xlink" version="1.1" width="2048" height="2048" viewBox="-10 0 2068 2048">
   <path fill="currentColor"
d="M1024 428q-124 0 -212 86t-88 210t88 212t212 88t212 -88t88 -212t-88 -210t-212 -86zM1024 596q52 0 90 38t38 92t-38 90t-90 36t-90 -36t-38 -90t38 -92t90 -38zM468 684q-88 0 -150 62t-62 150q0 60 30 108t80 76t104 28t102 -26t80 -74q-96 -124 -96 -284v-24
q-40 -16 -88 -16zM1580 684q-48 0 -88 16v24q0 160 -96 284q16 20 38 42t42 34q48 24 102 24t104 -28t80 -76t30 -108q0 -88 -62 -150t-150 -62zM1024 1196q-112 0 -244 32q-148 36 -244 100q-108 72 -108 164v128h1192v-128q0 -92 -108 -164q-96 -64 -244 -100
q-132 -32 -244 -32zM400 1240q-148 20 -260 80q-140 72 -140 172v128h256v-164q0 -120 144 -216zM1648 1240q144 96 144 216v164h256v-128q0 -100 -140 -172q-112 -60 -260 -80zM1024 1364q92 0 196 28q96 24 164 60h-720q68 -36 164 -60q104 -28 196 -28z" />
</svg>
