<?xml version="1.0" standalone="no"?>
<!DOCTYPE svg PUBLIC "-//W3C//DTD SVG 1.1//EN" "http://www.w3.org/Graphics/SVG/1.1/DTD/svg11.dtd" >
<svg xmlns="http://www.w3.org/2000/svg" xmlns:xlink="http://www.w3.org/1999/xlink" version="1.1" width="2048" height="2048" viewBox="-10 0 2058 2048">
   <path fill="currentColor"
d="M510 1024h206v207h-206v-207zM1947 409v1437q0 82 -60 142t-147 60h-1432q-87 0 -147 -60t-60 -142v-1437q0 -87 60 -147t147 -60h101v-202h206v202h818v-202h206v202h101q87 0 147 60t60 147zM308 615h1432v-206h-1432v206zM1740 1846v-1029h-1432v1029h1432zM1332 1231
h206v-207h-206v207zM923 1231h202v-207h-202v207z" />
</svg>
