<?xml version="1.0" standalone="no"?>
<!DOCTYPE svg PUBLIC "-//W3C//DTD SVG 1.1//EN" "http://www.w3.org/Graphics/SVG/1.1/DTD/svg11.dtd" >
<svg xmlns="http://www.w3.org/2000/svg" xmlns:xlink="http://www.w3.org/1999/xlink" version="1.1" width="2048" height="2048" viewBox="-10 0 2068 2048">
   <path fill="currentColor"
d="M686 976l146 -439h878l146 439h-1170zM1710 1461q-64 0 -105.5 -41.5t-41.5 -103t41.5 -105t103 -43.5t105 43.5t43.5 105t-43.5 103t-102.5 41.5zM832 1461q-64 0 -105 -41.5t-41 -103t41 -105t102.5 -43.5t105 43.5t43.5 105t-43.5 103t-102.5 41.5zM1847 487
q-14 -46 -53 -71t-84 -25h-878q-50 0 -86.5 25t-55.5 71l-201 585v782q0 41 27.5 68.5t68.5 27.5h101q41 0 68.5 -27.5t27.5 -68.5v-101h973v101q0 41 30 68.5t71 27.5h96q41 0 68.5 -27.5t27.5 -68.5v-782zM1358 194q-14 -45 -53 -70.5t-84 -25.5h-878q-46 0 -85 25.5
t-52 70.5l-206 585v782q0 41 29.5 68.5t71.5 27.5h96q41 0 68.5 -27.5t27.5 -68.5v-402q-55 -18 -80.5 -73t-6.5 -110q18 -46 54.5 -73.5t82.5 -27.5h4l69 -192h-219l146 -438h1033z" />
</svg>
