<?xml version="1.0" standalone="no"?>
<!DOCTYPE svg PUBLIC "-//W3C//DTD SVG 1.1//EN" "http://www.w3.org/Graphics/SVG/1.1/DTD/svg11.dtd" >
<svg xmlns="http://www.w3.org/2000/svg" xmlns:xlink="http://www.w3.org/1999/xlink" version="1.1" width="2048" height="2048" viewBox="-10 0 2068 2048">
   <path fill="currentColor"
d="M932 1116h184v187h-184v-187zM932 745h184v187h-184v-187zM932 1490h184q78 0 132.5 -54.5t54.5 -132.5v-140q0 -56 -41.5 -97.5t-98.5 -41.5q57 0 98.5 -41.5t41.5 -97.5v-140q0 -78 -54.5 -132.5t-132.5 -54.5h-184q-78 0 -132.5 54.5t-54.5 132.5v140q0 56 41.5 97.5
t98.5 41.5q-57 0 -98.5 41.5t-41.5 97.5v140q0 78 54.5 132.5t132.5 54.5zM1024 0q-279 0 -514 137.5t-372.5 372.5t-137.5 514t137.5 514t372.5 372.5t514 137.5t514 -137.5t372.5 -372.5t137.5 -514t-137.5 -514t-372.5 -372.5t-514 -137.5zM1024 1673q-179 0 -327 -87
t-235 -235t-87 -327t87 -327t235 -235t327 -87t327 87t235 235t87 327t-87 327t-235 235t-327 87z" />
</svg>
