<?xml version="1.0" standalone="no"?>
<!DOCTYPE svg PUBLIC "-//W3C//DTD SVG 1.1//EN" "http://www.w3.org/Graphics/SVG/1.1/DTD/svg11.dtd" >
<svg xmlns="http://www.w3.org/2000/svg" xmlns:xlink="http://www.w3.org/1999/xlink" version="1.1" width="2048" height="2048" viewBox="-10 0 2068 2048">
   <path fill="currentColor"
d="M1999 1436l-674 -1167q-72 -126 -211.5 -164.5t-265.5 38.5q-83 43 -126 126l-674 1167q-72 126 -36 263t162 208q76 50 175 50h1348q148 0 249.5 -101.5t101.5 -249.5q0 -93 -49 -170zM256 1551l668 -1167q22 -39 69 -52.5t90 8.5q28 16 44 44l669 1167q27 44 13.5 88
t-57.5 71q-22 16 -55 16h-1348q-44 0 -79.5 -35.5t-35.5 -84.5q0 -33 16 -55h6zM1023 1085q-93 0 -161.5 -68.5t-68.5 -164.5t68.5 -164.5t164.5 -68.5t164.5 68.5t68.5 164.5t-68.5 164.5t-167.5 68.5zM733 1611q-99 0 -167.5 -68.5t-68.5 -167t68.5 -164.5t164.5 -66
t164.5 66t68.5 164.5t-68.5 167t-161.5 68.5zM1314 1611q-94 -5 -162.5 -71t-68.5 -161.5t68.5 -164.5t164.5 -69t164.5 66t68.5 164.5t-68.5 167t-166.5 68.5z" />
</svg>
