<?xml version="1.0" standalone="no"?>
<!DOCTYPE svg PUBLIC "-//W3C//DTD SVG 1.1//EN" "http://www.w3.org/Graphics/SVG/1.1/DTD/svg11.dtd" >
<svg xmlns="http://www.w3.org/2000/svg" xmlns:xlink="http://www.w3.org/1999/xlink" version="1.1" width="2048" height="2048" viewBox="-10 0 2068 2048">
   <path fill="currentColor"
d="M1861 233h-1674q-78 0 -132.5 54.5t-54.5 132.5v1208q0 78 54.5 132.5t132.5 54.5h1674q78 0 132.5 -54.5t54.5 -132.5v-1208q0 -78 -54.5 -132.5t-132.5 -54.5zM187 1628v-1208h745v1208h-745zM1861 1628h-745v-1208h745v1208zM1211 747h558v140h-558v-140zM1211 978
h558v140h-558v-140zM1211 1209h558v140h-558v-140z" />
</svg>
