<?xml version="1.0" standalone="no"?>
<!DOCTYPE svg PUBLIC "-//W3C//DTD SVG 1.1//EN" "http://www.w3.org/Graphics/SVG/1.1/DTD/svg11.dtd" >
<svg xmlns="http://www.w3.org/2000/svg" xmlns:xlink="http://www.w3.org/1999/xlink" version="1.1" width="2048" height="2048" viewBox="-10 0 2068 2048">
   <path fill="currentColor"
d="M1024 101q279 0 514.5 110.5t372.5 298t137 411t-137 411t-372.5 298t-514.5 110.5q-187 0 -361 -48q-105 87 -230 144q-101 49 -217 77q-77 20 -158 29l-58 5q154 -154 226 -298q48 -91 53 -163q-130 -111 -204.5 -257.5t-74.5 -305.5q0 -226 137 -413.5t372.5 -298
t514.5 -110.5zM923 1231v202h202v-202h-202zM923 1024h202v-615h-202v615z" />
</svg>
