<?xml version="1.0" standalone="no"?>
<!DOCTYPE svg PUBLIC "-//W3C//DTD SVG 1.1//EN" "http://www.w3.org/Graphics/SVG/1.1/DTD/svg11.dtd" >
<svg xmlns="http://www.w3.org/2000/svg" xmlns:xlink="http://www.w3.org/1999/xlink" version="1.1" width="2048" height="2048" viewBox="-10 0 2066 2048">
   <path fill="currentColor"
d="M717 1842v206h-206v-206h206zM1125 1842v206h-202v-206h202zM1537 1842v206h-206v-206h206zM1024 1127h-206v-206h206v206zM1638 1127h-408v-206h408v206zM616 719h-206v-206h206v206zM1638 719h-820v-206h820v206zM1844 1640h-1640q-82 0 -142 -60t-60 -146v-1228
q0 -86 60 -146t142 -60h1640q82 0 142 60t60 146v1228q0 86 -60 146t-142 60zM204 206v1228h1640v-1228h-1640z" />
</svg>
