<?xml version="1.0" standalone="no"?>
<!DOCTYPE svg PUBLIC "-//W3C//DTD SVG 1.1//EN" "http://www.w3.org/Graphics/SVG/1.1/DTD/svg11.dtd" >
<svg xmlns="http://www.w3.org/2000/svg" xmlns:xlink="http://www.w3.org/1999/xlink" version="1.1" width="2048" height="2048" viewBox="-10 0 2068 2048">
   <path fill="currentColor"
d="M1910 1838l-139 143l-226 -226h-1268q-79 0 -136.5 -57.5t-57.5 -140.5v-1181q0 -37 14 -74l-97 -92l138 -143zM530 178h1324q79 0 136.5 57.5t57.5 140.5v1181q0 60 -32 110l-162 -166v-1125h-1130zM277 1557h1070l-295 -295h-185v-185l-207 -208h-185v-184l-198 -198
v1070zM1656 1262h-46l-194 -199h240v199zM1656 869h-438l-199 -198h637v198z" />
</svg>
