<?xml version="1.0" standalone="no"?>
<!DOCTYPE svg PUBLIC "-//W3C//DTD SVG 1.1//EN" "http://www.w3.org/Graphics/SVG/1.1/DTD/svg11.dtd" >
<svg xmlns="http://www.w3.org/2000/svg" xmlns:xlink="http://www.w3.org/1999/xlink" version="1.1" width="2048" height="2048" viewBox="-10 0 2068 2048">
   <path fill="currentColor"
d="M684 1108h216v-256h248v256h216l-340 344zM1652 856q168 12 282 134t114 290q0 116 -58 214t-156 156t-214 58h-1108q-140 0 -258 -70t-186 -188t-68 -254q0 -132 60 -244t164 -182t232 -82q80 -160 232 -254t336 -94q232 0 408 148t220 368zM1620 1536q108 0 182 -74
t74 -178t-68 -178t-168 -78l-132 -8l-24 -128q-32 -168 -162 -274t-298 -106q-132 0 -244 68t-172 184l-44 84l-88 8q-132 12 -218 110t-86 230q0 140 100 240t240 100h1108z" />
</svg>
