<?xml version="1.0" standalone="no"?>
<!DOCTYPE svg PUBLIC "-//W3C//DTD SVG 1.1//EN" "http://www.w3.org/Graphics/SVG/1.1/DTD/svg11.dtd" >
<svg xmlns="http://www.w3.org/2000/svg" xmlns:xlink="http://www.w3.org/1999/xlink" version="1.1" width="2048" height="2048" viewBox="-10 0 2068 2048">
   <path fill="currentColor"
d="M208 134l1711 1706l-144 143l-226 -226h-1276q-79 0 -136.5 -58t-57.5 -141v-1184q0 -37 13 -78l-92 -88l143 -143zM532 176h1322q78 0 136 57.5t58 140.5v1184q0 55 -28 106l-407 -402h241v-199h-435l-199 -194h634v-199h-832zM860 1063h-93v199h199v-92zM467 670h-93
v199h195v-92z" />
</svg>
