<?xml version="1.0" standalone="no"?>
<!DOCTYPE svg PUBLIC "-//W3C//DTD SVG 1.1//EN" "http://www.w3.org/Graphics/SVG/1.1/DTD/svg11.dtd" >
<svg xmlns="http://www.w3.org/2000/svg" xmlns:xlink="http://www.w3.org/1999/xlink" version="1.1" width="2048" height="2048" viewBox="-10 0 2068 2048">
   <path fill="currentColor"
d="M1534 512q139 0 257 69.5t187.5 187.5t69.5 257q0 100 -39 194t-111 166t-166 111t-198 39q-118 0 -220.5 -50t-171.5 -137h-236q-69 87 -171.5 137t-220.5 50q-104 0 -198 -39t-166 -111t-111 -166t-39 -196t39 -196t111 -166t166 -111t198 -39h1020zM514 699
q-135 0 -231 96t-96 231t96 229t231 94q96 0 174.5 -50.5t117.5 -132.5h436q39 82 117.5 132.5t174.5 50.5q135 0 231 -94t96 -229t-96 -231t-231 -96h-1020zM444 817h140v139h139v140h-139v139h-140v-139h-139v-140h139v-139zM1464 1026q39 0 67.5 26t28.5 65.5t-28.5 65.5
t-67.5 26t-65 -26t-26 -65.5t26 -65.5t65 -26zM1651 839q40 0 66 26t26 65.5t-26 67.5t-65.5 28t-65.5 -28t-26 -67.5t26 -65.5t65 -26z" />
</svg>
