<?xml version="1.0" standalone="no"?>
<!DOCTYPE svg PUBLIC "-//W3C//DTD SVG 1.1//EN" "http://www.w3.org/Graphics/SVG/1.1/DTD/svg11.dtd" >
<svg xmlns="http://www.w3.org/2000/svg" xmlns:xlink="http://www.w3.org/1999/xlink" version="1.1" width="2048" height="2048" viewBox="-10 0 2068 2048">
   <path fill="currentColor"
d="M0 146l128 -123l1897 1897l-123 128l-270 -274q-251 173 -558 173q-192 0 -372.5 -73t-317.5 -210t-210 -317.5t-73 -372.5q0 -307 173 -558zM585 1463l233 -498l-402 -407q-123 196 -123 411t105 395.5t285.5 285.5t395.5 105t411 -123l-407 -402zM1563 485l-233 493
l-260 -260zM1074 0q192 0 372.5 73t318 210.5t210.5 318t73 372.5q0 306 -169 553l-142 -142q119 -187 119 -411q0 -211 -105 -391.5t-285.5 -285.5t-391.5 -105q-224 0 -411 119l-142 -142q247 -169 553 -169z" />
</svg>
