<?xml version="1.0" standalone="no"?>
<!DOCTYPE svg PUBLIC "-//W3C//DTD SVG 1.1//EN" "http://www.w3.org/Graphics/SVG/1.1/DTD/svg11.dtd" >
<svg xmlns="http://www.w3.org/2000/svg" xmlns:xlink="http://www.w3.org/1999/xlink" version="1.1" width="2048" height="2048" viewBox="-10 0 2068 2048">
   <path fill="currentColor"
d="M1819 1365v454h-1590v-454h1590zM1936 1136h-1824q-48 0 -80 34.5t-32 82.5v683q0 48 32 80t80 32h1824q48 0 80 -32t32 -80v-683q0 -48 -32 -82.5t-80 -34.5zM453 1765q-69 0 -119.5 -50.5t-50.5 -122.5t50.5 -120t122.5 -48t120 48t48 120t-48 122.5t-123 50.5z
M1819 229v454h-1590v-454h1590zM1936 0h-1824q-48 0 -80 32t-32 80v683q0 48 32 82.5t80 34.5h1824q48 0 80 -34.5t32 -82.5v-683q0 -48 -32 -80t-80 -32zM453 624q-69 0 -119.5 -48t-50.5 -120t50.5 -122.5t122.5 -50.5t120 50.5t48 122.5t-48 120t-123 48z" />
</svg>
