<?xml version="1.0" standalone="no"?>
<!DOCTYPE svg PUBLIC "-//W3C//DTD SVG 1.1//EN" "http://www.w3.org/Graphics/SVG/1.1/DTD/svg11.dtd" >
<svg xmlns="http://www.w3.org/2000/svg" xmlns:xlink="http://www.w3.org/1999/xlink" version="1.1" width="2048" height="2048" viewBox="-10 0 2068 2048">
   <path fill="currentColor"
d="M1024 1332h207q0 81 91 143.5t216 62.5t216.5 -62.5t91.5 -144t-82 -124.5q-67 -39 -250 -82q-153 -39 -226 -67q-120 -48 -187 -121q-77 -91 -77 -223t101 -240.5t260 -146.5v-226h307v226q159 38 257.5 146.5t98.5 242.5h-202q0 -81 -91.5 -143.5t-216.5 -62.5
t-216 62.5t-91 144t81 124.5q63 39 250 82q149 39 222 67q125 48 187 121q77 91 77 223t-98.5 240.5t-257.5 146.5v226h-307v-226q-159 -38 -260 -146.5t-101 -242.5zM0 101h356q115 0 218.5 43t183 122.5t122.5 183t43 213.5q0 169 -89 306t-233 204l385 774h-226
l-366 -716h-192v716h-202v-1846zM356 1024q149 0 254.5 -106t105.5 -255t-105.5 -252t-254.5 -103h-154v716h154z" />
</svg>
