<?xml version="1.0" standalone="no"?>
<!DOCTYPE svg PUBLIC "-//W3C//DTD SVG 1.1//EN" "http://www.w3.org/Graphics/SVG/1.1/DTD/svg11.dtd" >
<svg xmlns="http://www.w3.org/2000/svg" xmlns:xlink="http://www.w3.org/1999/xlink" version="1.1" width="2048" height="2048" viewBox="-10 0 2068 2048">
   <path fill="currentColor"
d="M1024 2048q-202 0 -392 -77t-334 -221t-221 -334t-77 -392t77 -392t221 -334t334 -221t392 -77t392 77t334 221t221 334t77 392t-77 392t-221 334t-334 221t-392 77zM1024 1846q221 0 411 -110.5t300.5 -300.5t110.5 -411t-110.5 -411t-300.5 -300.5t-411 -110.5
t-411 110.5t-300.5 300.5t-110.5 411t110.5 411t300.5 300.5t411 110.5zM1024 923q43 0 72 29t29 72t-29 72t-72 29t-72 -29t-29 -72t29 -72t72 -29zM1024 615q202 0 370 111t245 298q-67 168 -209 274t-319.5 130t-341.5 -43q-125 -53 -216 -147t-144 -214
q77 -187 245 -298t370 -111zM1024 769q-106 0 -180.5 74.5t-74.5 180.5t74.5 180.5t180.5 74.5t180.5 -74.5t74.5 -180.5t-74.5 -180.5t-180.5 -74.5z" />
</svg>
