<?xml version="1.0" standalone="no"?>
<!DOCTYPE svg PUBLIC "-//W3C//DTD SVG 1.1//EN" "http://www.w3.org/Graphics/SVG/1.1/DTD/svg11.dtd" >
<svg xmlns="http://www.w3.org/2000/svg" xmlns:xlink="http://www.w3.org/1999/xlink" version="1.1" width="2048" height="2048" viewBox="-10 0 2068 2048">
   <path fill="currentColor"
d="M1726 560h-269l-587 -308l-668 351v986q-82 0 -142 -60t-60 -147v-803q0 -101 82 -139l788 -390l774 390q72 43 82 120zM510 666h1336q82 0 142 60t60 142v923q0 86 -60 146.5t-142 60.5h-1336q-82 0 -142 -60.5t-60 -146.5v-923q0 -82 60 -142t142 -60zM1846 1041v-173
l-668 341l-668 -341v173l668 341z" />
</svg>
