<?xml version="1.0" standalone="no"?>
<!DOCTYPE svg PUBLIC "-//W3C//DTD SVG 1.1//EN" "http://www.w3.org/Graphics/SVG/1.1/DTD/svg11.dtd" >
<svg xmlns="http://www.w3.org/2000/svg" xmlns:xlink="http://www.w3.org/1999/xlink" version="1.1" width="2048" height="2048" viewBox="-10 0 2068 2048">
   <path fill="currentColor"
d="M846 1125q0 53 -38.5 91.5t-91.5 38.5t-91 -38.5t-38 -91.5t38 -89t91 -36t91.5 36t38.5 89zM1332 1000q-53 0 -91.5 36t-38.5 89t38.5 91.5t91.5 38.5t91 -38.5t38 -91.5t-38 -89t-91 -36zM2048 1024q0 202 -77 392t-221 334t-334 221t-392 77t-392 -77t-334 -221
t-221 -334t-77 -392t77 -392t221 -334t334 -221t392 -77t392 77t334 221t221 334t77 392zM885 216q110 183 297.5 291t403.5 108q63 0 140 -14q-111 -183 -296 -291t-406 -108q-62 0 -139 14zM245 764q135 -77 231 -194.5t144 -261.5q-130 77 -228.5 194.5t-146.5 261.5z
M1846 1024q0 -115 -34 -231q-115 24 -226 24q-235 0 -442 -101t-351 -274q-81 197 -235 344t-356 224v14q0 221 110.5 411t300.5 300.5t411 110.5t411 -110.5t300.5 -300.5t110.5 -411z" />
</svg>
