<?xml version="1.0" standalone="no"?>
<!DOCTYPE svg PUBLIC "-//W3C//DTD SVG 1.1//EN" "http://www.w3.org/Graphics/SVG/1.1/DTD/svg11.dtd" >
<svg xmlns="http://www.w3.org/2000/svg" xmlns:xlink="http://www.w3.org/1999/xlink" version="1.1" width="2048" height="2048" viewBox="-10 0 2068 2048">
   <path fill="currentColor"
d="M966 909l149 -145l217 217l216 -217l149 145l-221 216l221 221l-149 144l-216 -221l-217 221l-149 -144l221 -221zM2048 615v1024q0 87 -60 147t-142 60h-1644q-82 0 -142 -60t-60 -147v-1230q0 -87 60 -147t142 -60h615l207 207h822q82 0 142 60t60 146zM1846 615h-1644
v1024h1644v-1024z" />
</svg>
