<?xml version="1.0" standalone="no"?>
<!DOCTYPE svg PUBLIC "-//W3C//DTD SVG 1.1//EN" "http://www.w3.org/Graphics/SVG/1.1/DTD/svg11.dtd" >
<svg xmlns="http://www.w3.org/2000/svg" xmlns:xlink="http://www.w3.org/1999/xlink" version="1.1" width="2048" height="2048" viewBox="-10 0 2068 2048">
   <path fill="currentColor"
d="M460 807l187 -324h587l121 -212l-5 -56q0 -66 45.5 -114t114 -48t116.5 48t48 109t-35.5 106.5t-91.5 55.5l-106 182l147 253l96 -162l-10 -51q0 -71 45.5 -116.5t113.5 -45.5t116 45.5t48 109t-35 106.5t-91 58l-157 273l187 324q61 5 104 50.5t43 111t-45.5 113.5
t-114 48t-116.5 -48t-48 -114v-30l-136 -238l-147 253l106 182q56 10 91.5 55.5t35.5 106.5t-48 109t-116.5 48t-114 -48t-45.5 -114l5 -56l-121 -212h-415l-126 212l10 56q0 66 -48 114t-116.5 48t-114 -48t-45.5 -109t35.5 -106.5t91.5 -55.5l101 -182l-460 -794
q-61 -5 -104 -50.5t-43 -111t48 -113.5t114 -48t114 48t48 114v30zM774 700l-187 324l187 324h505l187 -324l-187 -324h-505z" />
</svg>
