<?xml version="1.0" standalone="no"?>
<!DOCTYPE svg PUBLIC "-//W3C//DTD SVG 1.1//EN" "http://www.w3.org/Graphics/SVG/1.1/DTD/svg11.dtd" >
<svg xmlns="http://www.w3.org/2000/svg" xmlns:xlink="http://www.w3.org/1999/xlink" version="1.1" width="2048" height="2048" viewBox="-10 0 2068 2048">
   <path fill="currentColor"
d="M1376 2014h-19q-24 -5 -29 -24l-226 -595q-9 -19 0.5 -38.5t23.5 -23.5q115 -43 163 -153.5t5 -223.5t-151 -161t-220.5 -4.5t-160.5 153.5t-2.5 225.5t165.5 158.5q19 5 26 24t3 38l-236 595q-4 20 -23.5 27t-38.5 -3q-259 -96 -429.5 -309.5t-213.5 -482t57.5 -528
t312 -429.5t482.5 -213.5t530 52.5q187 77 336 216t230.5 326.5t86 389t-66.5 393.5q-77 206 -230.5 359.5t-360.5 230.5h-14zM1026 133q-250 -10 -466 110t-345.5 329t-134.5 458q-5 283 148.5 523t417.5 351l197 -504q-139 -77 -187 -228t29 -292.5t230.5 -187.5t292.5 31
t187 228t-29 295q-57 101 -158 154l197 509q163 -77 290 -211.5t194 -302.5q92 -235 56 -477.5t-187.5 -434.5t-381.5 -288q-168 -67 -350 -62z" />
</svg>
