<?xml version="1.0" standalone="no"?>
<!DOCTYPE svg PUBLIC "-//W3C//DTD SVG 1.1//EN" "http://www.w3.org/Graphics/SVG/1.1/DTD/svg11.dtd" >
<svg xmlns="http://www.w3.org/2000/svg" xmlns:xlink="http://www.w3.org/1999/xlink" version="1.1" width="2048" height="2048" viewBox="-10 0 2068 2048">
   <path fill="currentColor"
d="M817 1740q-43 0 -72 -26.5t-29 -74.5v-101q0 -43 29 -74t72.5 -31t74.5 28.5t31 76.5v101q0 48 -29 74.5t-77 26.5zM1332 1639v-101q0 -43 -29 -74t-72.5 -31t-74.5 28.5t-31 76.5v101q0 39 29 70t77 31q43 0 72 -26.5t29 -74.5zM2048 1024q0 197 -110.5 367.5
t-298.5 291.5v163q0 82 -60 142t-146 60h-818q-86 0 -146 -60t-60 -142v-163q-188 -121 -298.5 -291.5t-110.5 -370t77 -389.5t221 -334t334 -221t392 -77t392 77t334 221t221 334t77 392zM510 817q0 -81 -41 -153.5t-113 -110.5q-154 197 -154 471q0 72 10 101
q125 -5 211.5 -94t86.5 -214zM716 716q0 130 89 219t219 89t219 -89t89 -218.5t-89 -218.5t-219 -89t-219 89t-89 218zM1433 1846v-461q-202 -53 -409 -53t-409 53v461h818zM1836 1125q10 -29 10 -101q0 -274 -154 -471q-72 38 -113 110.5t-41 153.5q0 125 86.5 214
t211.5 94z" />
</svg>
