<?xml version="1.0" standalone="no"?>
<!DOCTYPE svg PUBLIC "-//W3C//DTD SVG 1.1//EN" "http://www.w3.org/Graphics/SVG/1.1/DTD/svg11.dtd" >
<svg xmlns="http://www.w3.org/2000/svg" xmlns:xlink="http://www.w3.org/1999/xlink" version="1.1" width="2048" height="2048" viewBox="-10 0 2068 2048">
   <path fill="currentColor"
d="M1819 0q96 0 162.5 66.5t66.5 162.5v795q0 96 -66.5 162.5t-162.5 66.5h-1590q-96 0 -162.5 -66.5t-66.5 -162.5v-795q0 -96 66.5 -162.5t162.5 -66.5h1590zM229 795v229h502q-112 -96 -150 -229h-352zM1819 1024v-229h-352q-38 133 -150 229h502zM1819 571v-342h-1590
v342h566v112q0 90 69 159.5t160 69.5t160 -69.5t69 -159.5v-112h566zM2048 1819q0 96 -66.5 162.5t-162.5 66.5h-1590q-96 0 -162.5 -66.5t-66.5 -162.5v-454h795v112q0 91 69 160.5t160 69.5t160 -69.5t69 -160.5v-112h795v454zM229 1595v224h502q-112 -96 -150 -224h-352z
M1819 1819v-224h-352q-38 128 -150 224h502z" />
</svg>
