<?xml version="1.0" standalone="no"?>
<!DOCTYPE svg PUBLIC "-//W3C//DTD SVG 1.1//EN" "http://www.w3.org/Graphics/SVG/1.1/DTD/svg11.dtd" >
<svg xmlns="http://www.w3.org/2000/svg" xmlns:xlink="http://www.w3.org/1999/xlink" version="1.1" width="2048" height="2048" viewBox="-10 0 2068 2048">
   <path fill="currentColor"
d="M202 101h1644q82 0 142 60t60 147v1432q0 87 -60 147t-142 60h-1644q-82 0 -142 -60t-60 -147v-1432q0 -87 60 -147t142 -60zM865 361q-38 0 -64.5 28.5t-26.5 67.5v317q0 38 26.5 64.5t64.5 26.5h318q38 0 64.5 -26.5t26.5 -64.5v-317q0 -39 -26.5 -67.5t-64.5 -28.5
h-318zM928 486h192q10 0 19.5 9.5t9.5 23.5v188q0 14 -9.5 23.5t-19.5 9.5h-192q-10 0 -19.5 -9.5t-9.5 -23.5v-188q0 -14 9.5 -23.5t19.5 -9.5zM298 361q-38 0 -67 28.5t-29 67.5v317q0 38 29 64.5t67 26.5h221v-125h-158q-15 0 -22 -9.5t-7 -23.5v-188q0 -14 7 -23.5
t22 -9.5h187q14 0 24 9.5t10 23.5v380q0 10 -10 19.5t-24 9.5h-346v130h413q39 0 65.5 -29t26.5 -67v-505q0 -39 -26.5 -67.5t-65.5 -28.5h-317zM1433 361q-39 0 -65.5 28.5t-26.5 67.5v317q0 38 26.5 64.5t65.5 26.5h221v-125h-154q-14 0 -24 -9.5t-10 -23.5v-188
q0 -14 10 -23.5t24 -9.5h187q15 0 22 9.5t7 23.5v380q0 10 -7 19.5t-22 9.5h-346v130h409q38 0 67 -29t29 -67v-505q0 -39 -29 -67.5t-67 -28.5h-317zM803 1183q-39 0 -67.5 26.5t-28.5 64.5v317q0 39 28.5 67.5t67.5 28.5h317q39 0 65 -28.5t26 -67.5v-317q0 -38 -26 -64.5
t-65 -26.5h-317zM865 1308h193q14 0 21 9.5t7 23.5v188q0 14 -9.5 23.5t-18.5 9.5h-193q-14 0 -21 -9.5t-7 -23.5v-188q0 -14 7 -23.5t21 -9.5zM298 1183q-38 0 -67 26.5t-29 64.5v317q0 39 29 67.5t67 28.5h346v-125h-283q-15 0 -22 -9.5t-7 -23.5v-188q0 -14 7 -23.5
t22 -9.5h283v-125h-346zM1370 1183q-38 0 -67 26.5t-29 64.5v413h130v-346q0 -14 9.5 -23.5t19.5 -9.5h67v379h125v-379h91v379h130v-504h-476z" />
</svg>
