<?xml version="1.0" standalone="no"?>
<!DOCTYPE svg PUBLIC "-//W3C//DTD SVG 1.1//EN" "http://www.w3.org/Graphics/SVG/1.1/DTD/svg11.dtd" >
<svg xmlns="http://www.w3.org/2000/svg" xmlns:xlink="http://www.w3.org/1999/xlink" version="1.1" width="2048" height="2048" viewBox="-10 0 2068 2048">
   <path fill="currentColor"
d="M1024 0q202 0 392 77t334 221t221 334t77 392t-77 392t-221 334t-334 221t-392 77t-392 -77t-334 -221t-221 -334t-77 -392t77 -392t221 -334t334 -221t392 -77zM1510 1274q96 -96 127 -226t-5 -262t-137 -233t-233 -137t-262 -5t-226 127q-120 121 -187 299
q-53 144 -68 322q-9 125 5 250l10 105l105 10q125 14 250 0q178 -10 322 -63q178 -67 299 -187zM1144 601l96 207l207 96l-207 101l-96 206l-101 -206l-206 -101l206 -96z" />
</svg>
