<?xml version="1.0" standalone="no"?>
<!DOCTYPE svg PUBLIC "-//W3C//DTD SVG 1.1//EN" "http://www.w3.org/Graphics/SVG/1.1/DTD/svg11.dtd" >
<svg xmlns="http://www.w3.org/2000/svg" xmlns:xlink="http://www.w3.org/1999/xlink" version="1.1" width="2048" height="2048" viewBox="-10 0 2068 2048">
   <path fill="currentColor"
d="M1876 256h-1448q-72 0 -122 50t-50 122v340h172v-340h1448v1192h-1448v-340h-172v340q0 72 50 122t122 50h1448q72 0 122 -50t50 -122v-1192q0 -72 -50 -122t-122 -50zM596 1280v-172h-596v-168h596v-172l344 256zM1708 1108h-600v-168h600v168zM1708 768h-600v-172h600
v172zM1452 1452h-344v-172h344v172z" />
</svg>
