<?xml version="1.0" standalone="no"?>
<!DOCTYPE svg PUBLIC "-//W3C//DTD SVG 1.1//EN" "http://www.w3.org/Graphics/SVG/1.1/DTD/svg11.dtd" >
<svg xmlns="http://www.w3.org/2000/svg" xmlns:xlink="http://www.w3.org/1999/xlink" version="1.1" width="2048" height="2048" viewBox="-10 0 2068 2048">
   <path fill="currentColor"
d="M183 1862h1398q78 0 133 -54.5t55 -132.5v-559h-372v187l-375 -279l375 -279v187h372v-559q0 -78 -55 -132.5t-133 -54.5h-1398q-74 0 -128.5 54.5t-54.5 132.5v1302q0 78 54.5 132.5t128.5 54.5zM183 1303h376v188h-376v-188zM183 932h655v184h-655v-184zM183 557h655
v188h-655v-188zM1769 932h279v184h-279v-184z" />
</svg>
