<?xml version="1.0" standalone="no"?>
<!DOCTYPE svg PUBLIC "-//W3C//DTD SVG 1.1//EN" "http://www.w3.org/Graphics/SVG/1.1/DTD/svg11.dtd" >
<svg xmlns="http://www.w3.org/2000/svg" xmlns:xlink="http://www.w3.org/1999/xlink" version="1.1" width="2048" height="2048" viewBox="-10 0 2068 2048">
   <path fill="currentColor"
d="M172 256h1448q72 0 122 50t50 122v340h-172v-340h-1448v1192h1448v-340h172v340q0 72 -50 122t-122 50h-1448q-72 0 -122 -50t-50 -122v-1192q0 -72 50 -122t122 -50zM1452 1280v-172h596v-168h-596v-172l-344 256zM340 1108h600v-168h-600v168zM340 768h600v-172h-600
v172zM340 1452h344v-172h-344v172z" />
</svg>
