<?xml version="1.0" standalone="no"?>
<!DOCTYPE svg PUBLIC "-//W3C//DTD SVG 1.1//EN" "http://www.w3.org/Graphics/SVG/1.1/DTD/svg11.dtd" >
<svg xmlns="http://www.w3.org/2000/svg" xmlns:xlink="http://www.w3.org/1999/xlink" version="1.1" width="2048" height="2048" viewBox="-10 0 2058 2048">
   <path fill="currentColor"
d="M1788 678q0 187 -93.5 346t-247.5 245q-24 19 -14 43l351 693q9 14 -0.5 28.5t-28.5 14.5h-1337l10 -5q14 -5 130 -197q168 -274 274 -428q182 -269 331 -413q77 -72 183 -164q91 -77 111 -105q24 -39 4 -97q-9 -43 -86 -182l-14 -29l33 77q34 86 39 139q4 82 -48.5 91.5
t-125 -53t-110.5 -148.5q-38 -101 0 -190t141.5 -115.5t219 7t192.5 110.5q86 154 86 332zM529 1139q-197 361 -269 558v-1668q0 -10 9.5 -19.5t18.5 -9.5h832q178 0 327 86.5t240 235.5q-62 -82 -158 -125t-197 -43t-164 29q-72 33 -149 127t-197 296q-91 158 -293 533z
" />
</svg>
