<?xml version="1.0" standalone="no"?>
<!DOCTYPE svg PUBLIC "-//W3C//DTD SVG 1.1//EN" "http://www.w3.org/Graphics/SVG/1.1/DTD/svg11.dtd" >
<svg xmlns="http://www.w3.org/2000/svg" xmlns:xlink="http://www.w3.org/1999/xlink" version="1.1" width="2048" height="2048" viewBox="-10 0 2068 2048">
   <path fill="currentColor"
d="M202 0q-82 0 -142 60t-60 142v721q0 82 58 144l923 923q62 58 146 58t142 -58l721 -721q58 -58 58 -142t-58 -146l-923 -923q-62 -58 -144 -58h-721zM923 202l923 923l-721 721l-923 -923v-721h721zM462 308q-68 0 -111 43t-43 108t43 110.5t108 45.5t110.5 -45.5
t45.5 -110.5t-45.5 -108t-107.5 -43zM918 870q-86 0 -148.5 62.5t-62.5 149t62 149.5l356 355l361 -355q62 -63 62 -149.5t-62.5 -149t-149 -62.5t-149.5 63l-62 62l-58 -62q-62 -63 -149 -63z" />
</svg>
