<?xml version="1.0" standalone="no"?>
<!DOCTYPE svg PUBLIC "-//W3C//DTD SVG 1.1//EN" "http://www.w3.org/Graphics/SVG/1.1/DTD/svg11.dtd" >
<svg xmlns="http://www.w3.org/2000/svg" xmlns:xlink="http://www.w3.org/1999/xlink" version="1.1" width="2048" height="2048" viewBox="-10 0 2068 2048">
   <path fill="currentColor"
d="M1620 1846q-34 91 -110.5 146.5t-177.5 55.5h-1024q-135 0 -221.5 -86.5t-86.5 -221.5v-101h1250q29 92 108 149.5t180 57.5h82zM1740 0h-1125q-134 0 -220.5 86.5t-86.5 221.5v1125h1125v105q0 44 28.5 72.5t76.5 28.5h101v-1331q0 -48 29 -77t74.5 -29t74.5 29t29 77
v101h202v-101q0 -135 -86.5 -221.5t-221.5 -86.5z" />
</svg>
