<?xml version="1.0" standalone="no"?>
<!DOCTYPE svg PUBLIC "-//W3C//DTD SVG 1.1//EN" "http://www.w3.org/Graphics/SVG/1.1/DTD/svg11.dtd" >
<svg xmlns="http://www.w3.org/2000/svg" xmlns:xlink="http://www.w3.org/1999/xlink" version="1.1" width="2048" height="2048" viewBox="-10 0 2058 2048">
   <path fill="currentColor"
d="M1861 932q0 253 -109 488.5t-301 401t-427 226.5q-235 -61 -427 -226.5t-301 -401t-109 -488.5v-557l837 -375l837 375v557zM1024 1861q170 -48 320.5 -187.5t239.5 -331.5t89 -392v-458l-649 -287l-649 287v458q0 200 89 392t239.5 331.5t320.5 187.5zM1024 466
q118 0 198.5 80.5t80.5 198.5q0 92 -52.5 163.5t-134.5 98.5v204h187v183h-187v188h-184v-575q-82 -27 -134.5 -98.5t-52.5 -163.5q0 -118 80.5 -198.5t198.5 -80.5zM1024 654q-39 0 -65.5 26t-26.5 65t26.5 65.5t65.5 26.5t65.5 -26.5t26.5 -65.5t-26.5 -65t-65.5 -26z" />
</svg>
