<?xml version="1.0" standalone="no"?>
<!DOCTYPE svg PUBLIC "-//W3C//DTD SVG 1.1//EN" "http://www.w3.org/Graphics/SVG/1.1/DTD/svg11.dtd" >
<svg xmlns="http://www.w3.org/2000/svg" xmlns:xlink="http://www.w3.org/1999/xlink" version="1.1" width="2048" height="2048" viewBox="-10 0 2068 2048">
   <path fill="currentColor"
d="M1181 1147l156 219q4 -85 26.5 -158.5t71.5 -141.5zM1574 1693q-4 -197 63 -396t183 -356l-192 63q-121 76 -172.5 232.5t-2.5 286.5zM1717 1885q-71 67 -156 116l-32 -45q-223 -120 -505 -120t-505 120l-32 45q-85 -49 -156 -116l27 -32q49 -245 -42.5 -524.5
t-275.5 -449.5l-40 -14q22 -98 58 -183l40 13q246 -26 485.5 -198.5t346.5 -400.5v-45l94 -4l94 4v41q103 232 342 404.5t485 203.5l45 -18q36 85 58 183l-49 18q-184 166 -273 443t-40 519zM930 968v-277q-54 67 -116 112q-76 53 -148 80zM930 284q-112 165 -284 290.5
t-369 178.5l188 63q72 5 148 -17.5t143 -71.5q134 -99 174 -237v-206zM1118 968l264 -85q-76 -31 -143 -78t-121 -114v277zM1766 753q-188 -53 -360 -178.5t-288 -290.5v197q36 147 172 245.5t284 89.5zM867 1147l-259 -85q45 67 72 147.5t27 161.5zM219 937
q121 156 188 359.5t63 404.5l111 -161q58 -138 7 -299t-172 -242zM1024 1259l-157 219q77 -22 157 -22t157 22zM626 1809q188 -67 398 -67t398 67l-125 -170q-108 -90 -273 -90t-273 90z" />
</svg>
