<?xml version="1.0" standalone="no"?>
<!DOCTYPE svg PUBLIC "-//W3C//DTD SVG 1.1//EN" "http://www.w3.org/Graphics/SVG/1.1/DTD/svg11.dtd" >
<svg xmlns="http://www.w3.org/2000/svg" xmlns:xlink="http://www.w3.org/1999/xlink" version="1.1" width="2048" height="2048" viewBox="-10 0 2058 2048">
   <path fill="currentColor"
d="M635 1367q-82 0 -139 -57t-57 -137t57 -137.5t137 -57.5t137 57.5t57 137.5t-57 137t-135 57zM878 1563l146 -292l146 292h-292zM1413 1367q-78 0 -135 -57t-57 -137t57 -137.5t137 -57.5t137 57.5t57 137.5t-57 137t-139 57zM1998 978q0 -196 -73.5 -374.5
t-210.5 -315.5t-317.5 -212.5t-372.5 -75.5t-372.5 75.5t-317.5 212.5t-210.5 315.5t-73.5 375t78 379.5q78 173 215 311v379h1362v-379q137 -138 215 -311q78 -183 78 -380zM1513 1856h-196v-197h-197v197h-192v-197h-197v197h-196v-274q-133 -115 -213 -270t-80 -334
q0 -215 105.5 -393t286 -283t390.5 -105t390.5 105t286 283t105.5 393q0 179 -80 339t-213 265v274z" />
</svg>
