<?xml version="1.0" standalone="no"?>
<!DOCTYPE svg PUBLIC "-//W3C//DTD SVG 1.1//EN" "http://www.w3.org/Graphics/SVG/1.1/DTD/svg11.dtd" >
<svg xmlns="http://www.w3.org/2000/svg" xmlns:xlink="http://www.w3.org/1999/xlink" version="1.1" width="2048" height="2048" viewBox="-10 0 2058 2048">
   <path fill="currentColor"
d="M1403 1710l586 155l-37 183l-919 -242l-919 242l-45 -183l585 -155l-595 -156l46 -187l919 242l914 -242l51 187zM791 489q-60 0 -103 43.5t-43 103t43 103t100.5 43.5t103 -43.5t45.5 -103t-45.5 -103t-100.5 -43.5zM1275 489q-54 0 -100 43.5t-46 103t46 103t103 43.5
t100.5 -43.5t43.5 -103t-43.5 -103t-103.5 -43.5zM1129 978l-96 -196l-96 196h192zM1033 0q-187 0 -342.5 91.5t-247 249t-91.5 345.5q0 132 50.5 255.5t141.5 219.5v302h978v-302q92 -96 142 -219.5t50 -255.5q0 -188 -91.5 -345.5t-246.5 -249t-343 -91.5zM1326 1074v197
h-96v-197h-101v197h-192v-197h-100v197h-96v-197q-92 -68 -144.5 -168.5t-52.5 -219.5q0 -137 66.5 -249t178.5 -176t244.5 -64t244.5 64t178 176t66 249q0 114 -52.5 217t-143.5 171z" />
</svg>
