<?xml version="1.0" standalone="no"?>
<!DOCTYPE svg PUBLIC "-//W3C//DTD SVG 1.1//EN" "http://www.w3.org/Graphics/SVG/1.1/DTD/svg11.dtd" >
<svg xmlns="http://www.w3.org/2000/svg" xmlns:xlink="http://www.w3.org/1999/xlink" version="1.1" width="2048" height="2048" viewBox="-10 0 2058 2048">
   <path fill="currentColor"
d="M1423 1692l615 164l-38 192l-966 -255l-967 255l-48 -192l616 -164l-625 -163l48 -197l966 254l962 -254l52 197zM1649 615q0 130 -55.5 245.5t-151.5 206.5v265h-202v-207h-105v207h-202v-207h-106v207h-202v-265q-96 -91 -151.5 -206.5t-55.5 -245.5q0 -168 82 -310
t223.5 -223.5t310 -81.5t310.5 81.5t223.5 223.5t81.5 310zM933 562q0 -62 -48 -107.5t-108.5 -45.5t-106 45.5t-45.5 108t45.5 108t106 45.5t108.5 -45.5t48 -108.5zM1135 923l-101 -207l-101 207h202zM1442 562q0 -62 -45.5 -107.5t-105.5 -45.5t-108 45.5t-48 108t48 108
t108 45.5t105.5 -45.5t45.5 -108.5z" />
</svg>
