<?xml version="1.0" standalone="no"?>
<!DOCTYPE svg PUBLIC "-//W3C//DTD SVG 1.1//EN" "http://www.w3.org/Graphics/SVG/1.1/DTD/svg11.dtd" >
<svg xmlns="http://www.w3.org/2000/svg" xmlns:xlink="http://www.w3.org/1999/xlink" version="1.1" width="2048" height="2048" viewBox="-11 0 2070 2048">
   <path fill="currentColor"
d="M1898 473q105 148 139 326q33 196 -31.5 380.5t-203.5 314.5q-106 101 -235 163q33 81 -3 160.5t-117 112.5q-38 14 -77 14q-86 0 -146 -59.5t-65 -146.5h-316q-5 91 -74.5 146.5t-153.5 48t-139 -67.5t-55 -141q0 -34 10 -58q-250 -86 -408 -292q-29 -34 -21.5 -77
t41 -67t66.5 -24q53 0 79.5 -16.5t40.5 -45.5q39 -115 39 -230q4 -77 19 -163q28 -130 100 -245t178 -196q259 -206 594 -206q221 0 417.5 100.5t321.5 268.5zM1509 1566q134 -63 237.5 -170.5t155.5 -246.5q82 -245 -9 -470q-87 -206 -290.5 -338t-443.5 -132
q-62 0 -110 10q-235 28 -417 172q-197 158 -240 379q-9 43 -14 144q-10 129 -24 187q-24 100 -72 148q-62 63 -173 63q154 191 384 263q67 -62 153.5 -55t148.5 70q19 19 24 43h364q39 -82 125 -108t163 17q14 5 33 24h5zM920 851q-44 0 -77.5 -28.5t-36 -74t26.5 -79
t74.5 -36t79 28.5t36 76.5t-26.5 77t-72 35.5h-4zM1399 851q-43 0 -76.5 -28.5t-36 -74t26 -79t74 -36t79.5 28.5t36 76.5t-29 77t-74 35.5zM790 1029q-5 -19 7 -38.5t33.5 -24t41 9.5t24.5 34q28 86 102.5 136.5t160.5 40.5q87 5 161 -43t103 -134q9 -20 31 -27t41 7
q29 15 29 48q-29 111 -125 178q-110 76 -240 76h-9q-125 5 -228 -67t-132 -196z" />
</svg>
