<?xml version="1.0" standalone="no"?>
<!DOCTYPE svg PUBLIC "-//W3C//DTD SVG 1.1//EN" "http://www.w3.org/Graphics/SVG/1.1/DTD/svg11.dtd" >
<svg xmlns="http://www.w3.org/2000/svg" xmlns:xlink="http://www.w3.org/1999/xlink" version="1.1" width="2048" height="2048" viewBox="-10 0 2068 2048">
   <path fill="currentColor"
d="M1897 928h151v192h-151q-23 201 -130.5 370t-276.5 276.5t-370 130.5v151h-192v-151q-201 -23 -370 -130.5t-276.5 -276.5t-130.5 -370h-151v-192h151q23 -201 130.5 -370t276.5 -276.5t370 -130.5v-151h192v151q201 23 370 130.5t276.5 276.5t130.5 370zM347 928h142
v192h-142q32 224 194.5 386.5t386.5 194.5v-142h192v142q224 -32 386.5 -194.5t194.5 -386.5h-142v-192h142q-32 -224 -194.5 -386.5t-386.5 -194.5v142h-192v-142q-224 32 -386.5 194.5t-194.5 386.5zM1413 1413h-778v-96q0 -87 147 -147q119 -50 242 -50t242 50
q147 60 147 147v96zM1024 635q82 0 139.5 57.5t57.5 137.5t-57.5 137t-139.5 57t-139.5 -57t-57.5 -137t57.5 -137.5t139.5 -57.5z" />
</svg>
