<?xml version="1.0" standalone="no"?>
<!DOCTYPE svg PUBLIC "-//W3C//DTD SVG 1.1//EN" "http://www.w3.org/Graphics/SVG/1.1/DTD/svg11.dtd" >
<svg xmlns="http://www.w3.org/2000/svg" xmlns:xlink="http://www.w3.org/1999/xlink" version="1.1" width="2048" height="2048" viewBox="-10 0 2068 2048">
   <path fill="currentColor"
d="M217 53q-91 0 -154 63.5t-63 154.5v1506q0 91 63 154.5t154 63.5h1507q91 0 154.5 -63.5t63.5 -154.5v-242q50 -31 78 -79t28 -108v-648q0 -60 -28 -108t-78 -79v-242q0 -91 -63.5 -154.5t-154.5 -63.5h-1507zM217 271h1507v212h-647q-86 0 -149 63t-63 154v648
q0 91 63 154t149 63h647v212h-1507v-1506zM1077 700h759v648h-759v-648zM1401 862q-66 0 -114 48t-48 114t48 114t116.5 48t114 -48t45.5 -114t-45.5 -114t-116.5 -48z" />
</svg>
