<?xml version="1.0" standalone="no"?>
<!DOCTYPE svg PUBLIC "-//W3C//DTD SVG 1.1//EN" "http://www.w3.org/Graphics/SVG/1.1/DTD/svg11.dtd" >
<svg xmlns="http://www.w3.org/2000/svg" xmlns:xlink="http://www.w3.org/1999/xlink" version="1.1" width="2048" height="2048" viewBox="-10 0 2058 2048">
   <path fill="currentColor"
d="M962 0q-279 0 -515 144q-173 106 -298 274q-67 87 -96 149l82 58l-29 58q-29 77 -48 158q-24 116 -24 226q0 250 127 478.5t349 363.5q235 139 519 139q269 0 495 -132t358 -358t132 -491q0 -336 -158 -591q-145 -231 -395 -361q-235 -115 -499 -115zM971 173
q240 0 442 118t320 317.5t118 435t-111 432.5q-105 183 -290.5 291t-401.5 108q-159 0 -298 -74.5t-223.5 -207t-84.5 -290.5q0 -140 68 -245q52 -96 149 -154l14 19q-29 24 -67 111q-48 101 -48 197q0 192 132 317t329 125q159 0 284 -81.5t194.5 -221t69.5 -303.5
q0 -187 -101 -348t-269 -257.5t-370 -96.5q-149 0 -298 58q-125 48 -221 120l-15 -14q106 -168 284 -262t394 -94zM817 534q197 0 363 117.5t214 295.5l-24 10q-91 -120 -221 -193q-139 -81 -293 -81q-193 0 -337 105q-130 97 -194.5 253t-50.5 310l-24 10l-19 -63
q-24 -77 -24 -149q0 -168 81.5 -307.5t223.5 -223.5t305 -84zM990 957q92 0 156.5 62.5t64.5 153.5q0 58 -33 111q-15 28 -29 43l72 53l-24 29q-34 33 -72 52q-58 29 -125 29q-111 0 -190 -77t-79 -192t81.5 -189.5t177.5 -74.5z" />
</svg>
