<?xml version="1.0" standalone="no"?>
<!DOCTYPE svg PUBLIC "-//W3C//DTD SVG 1.1//EN" "http://www.w3.org/Graphics/SVG/1.1/DTD/svg11.dtd" >
<svg xmlns="http://www.w3.org/2000/svg" xmlns:xlink="http://www.w3.org/1999/xlink" version="1.1" width="2048" height="2048" viewBox="-10 0 2068 2048">
   <path fill="currentColor"
d="M1024 202h-716q-130 0 -219 91.5t-89 216.5v822q0 129 89 218t219 89l-106 101v106h106l202 -211l206 4v-514h-514v-716h923v206h207v-105q0 -125 -89 -216.5t-219 -91.5zM308 1231q43 0 72 28.5t29 72t-29 72.5t-72.5 29t-74.5 -29t-31 -72.5t31 -72t75 -28.5zM1904 784
q-10 -29 -39 -48.5t-62 -19.5h-736q-38 0 -64.5 19.5t-36.5 48.5l-149 423v562q0 29 22 53t50 24h63q29 0 50.5 -24t21.5 -58v-125h822v125q0 34 19.5 58t47.5 24h63q29 0 50.5 -24t21.5 -53v-562zM1067 817h736l106 308h-947zM1024 1433q-43 0 -72 -29t-29 -72.5t29 -72
t72 -28.5t72 28.5t29 72t-29 72.5t-72 29zM1846 1433q-43 0 -74.5 -29t-31.5 -72.5t31.5 -72t74.5 -28.5t72 28.5t29 72t-29 72.5t-72 29z" />
</svg>
