<?xml version="1.0" standalone="no"?>
<!DOCTYPE svg PUBLIC "-//W3C//DTD SVG 1.1//EN" "http://www.w3.org/Graphics/SVG/1.1/DTD/svg11.dtd" >
<svg xmlns="http://www.w3.org/2000/svg" xmlns:xlink="http://www.w3.org/1999/xlink" version="1.1" width="2048" height="2048" viewBox="-10 0 2064 2048">
   <path fill="currentColor"
d="M2014 1673l-842 -846q65 -166 30.5 -343t-165.5 -307q-162 -157 -384.5 -174.5t-400.5 112.5l357 358l-131 131l-357 -353q-131 179 -116 401.5t177 379.5q126 130 300.5 165t340.5 -26l846 846q27 31 66 31t65 -31l214 -213q30 -26 30 -63.5t-30 -67.5zM1735 1821
l-877 -881q-87 65 -185.5 78.5t-194.5 -15t-163.5 -98.5t-98 -153t-26.5 -170l288 288l393 -397l-288 -288q188 -8 323 122q74 75 102.5 173t11 196t-78.5 185l877 877z" />
</svg>
