<?xml version="1.0" standalone="no"?>
<!DOCTYPE svg PUBLIC "-//W3C//DTD SVG 1.1//EN" "http://www.w3.org/Graphics/SVG/1.1/DTD/svg11.dtd" >
<svg xmlns="http://www.w3.org/2000/svg" xmlns:xlink="http://www.w3.org/1999/xlink" version="1.1" width="2048" height="2048" viewBox="-10 0 2068 2048">
   <path fill="currentColor"
d="M1349 1010q114 -114 114 -276.5t-114 -276.5l137 -137q82 82 127.5 189.5t45.5 226.5t-45.5 224t-127.5 187zM1271 736q0 -82 -57 -139.5t-142 -57.5t-144 69l274 274q69 -59 69 -146zM1627 1285l138 137q132 -133 207.5 -311t75.5 -377t-75.5 -377.5t-207.5 -310.5
l-138 137q106 105 167.5 249t61.5 304t-61.5 301.5t-167.5 247.5zM2048 1728v-114h-114zM1879 1806l73 73l-123 123l-197 -196h-265q0 41 -27.5 70.5t-68.5 29.5h-393q-41 0 -68.5 -29.5t-27.5 -70.5h-681v-192h681q0 -41 27.5 -71t68.5 -30h100v-361l-260 -261
q32 74 82 119l-137 137q-82 -82 -128 -187t-46 -224q0 -46 5 -69l-165 -164q-36 119 -36 233q0 160 61.5 301.5t166.5 247.5l-137 137q-133 -133 -208 -311t-75 -377t77 -382l-178 -178l128 -124l1755 1756h-4zM1440 1614l-270 -270v169h101q41 0 68.5 30t27.5 71h73z" />
</svg>
