<?xml version="1.0" standalone="no"?>
<!DOCTYPE svg PUBLIC "-//W3C//DTD SVG 1.1//EN" "http://www.w3.org/Graphics/SVG/1.1/DTD/svg11.dtd" >
<svg xmlns="http://www.w3.org/2000/svg" xmlns:xlink="http://www.w3.org/1999/xlink" version="1.1" width="2048" height="2048" viewBox="-10 0 2068 2048">
   <path fill="currentColor"
d="M496 852q-28 -76 -92 -122t-148 -46q-108 0 -182 72t-74 182t74 184t182 74q84 0 148 -48t92 -124h100v172h172v-172h172v-172h-444zM256 1024q-40 0 -62 -24t-22 -62t22 -62t62 -24t62 24t22 62t-22 62t-62 24zM1364 340q-140 0 -240 100t-100 242t100 242t242 100
t242 -100t100 -242t-100 -242t-244 -100zM1364 860q-76 0 -126 -50t-50 -128t50 -128t128 -50t128 50t50 128t-50 128t-130 50zM1364 1108q-128 0 -280 40q-168 40 -276 112q-124 84 -124 192v256h1364v-256q0 -108 -124 -192q-108 -72 -280 -112q-152 -40 -280 -40z
M1884 1544h-1040v-92q0 -28 80 -72t192 -72q132 -36 250 -36t250 36q108 28 188 72t80 72v92z" />
</svg>
