<?xml version="1.0" standalone="no"?>
<!DOCTYPE svg PUBLIC "-//W3C//DTD SVG 1.1//EN" "http://www.w3.org/Graphics/SVG/1.1/DTD/svg11.dtd" >
<svg xmlns="http://www.w3.org/2000/svg" xmlns:xlink="http://www.w3.org/1999/xlink" version="1.1" width="2048" height="2048" viewBox="-10 0 2068 2048">
   <path fill="currentColor"
d="M1365 853q0 70 -50.5 120.5t-119.5 50.5q69 0 119.5 50.5t50.5 120.5v170q0 96 -66.5 163t-162.5 67h-453v-1142h453q96 0 162.5 67t66.5 163v170zM1136 1365v-229h-224v229h224zM1136 912v-229h-224v229h224zM0 229q0 -96 66.5 -162.5t162.5 -66.5h1590q96 0 162.5 66.5
t66.5 162.5v1590q0 96 -66.5 162.5t-162.5 66.5h-1590q-96 0 -162.5 -66.5t-66.5 -162.5v-1590zM229 229v1590h1590v-1590h-1590z" />
</svg>
