<?xml version="1.0" standalone="no"?>
<!DOCTYPE svg PUBLIC "-//W3C//DTD SVG 1.1//EN" "http://www.w3.org/Graphics/SVG/1.1/DTD/svg11.dtd" >
<svg xmlns="http://www.w3.org/2000/svg" xmlns:xlink="http://www.w3.org/1999/xlink" version="1.1" width="2048" height="2048" viewBox="-10 0 2068 2048">
   <path fill="currentColor"
d="M1303 279q152 0 261 109t109 263.5t-109 263.5t-261.5 109t-261.5 -109t-109 -263.5t109 -263.5t262 -109zM1303 458q-83 0 -139.5 56.5t-56.5 137t56.5 137t139.5 56.5t139.5 -56.5t56.5 -137t-56.5 -137t-139.5 -56.5zM1303 1116q139 0 305 43q187 48 301 122
q139 92 139 209v279h-1490v-279q0 -117 139 -209q113 -74 301 -122q165 -43 305 -43zM1303 1294q-131 0 -270 35q-122 35 -209.5 83t-87.5 78v100h1133v-100q0 -30 -87 -78t-209 -83q-139 -35 -270 -35zM375 1142l-236 139l66 -261l-205 -175l270 -21l105 -249l100 249
l270 21l-205 175l61 261z" />
</svg>
