<?xml version="1.0" standalone="no"?>
<!DOCTYPE svg PUBLIC "-//W3C//DTD SVG 1.1//EN" "http://www.w3.org/Graphics/SVG/1.1/DTD/svg11.dtd" >
<svg xmlns="http://www.w3.org/2000/svg" xmlns:xlink="http://www.w3.org/1999/xlink" version="1.1" width="2048" height="2048" viewBox="-10 0 2058 2048">
   <path fill="currentColor"
d="M1235 629q0 142 -71 262.5t-191.5 189t-262.5 68.5q-103 0 -199 -39t-169.5 -113t-115.5 -169.5t-42 -198.5q0 -143 71.5 -263t191.5 -191.5t262.5 -71.5t263 71.5t191.5 191.5t71 263zM862 1419l265 261h-206l-368 368l-158 -152zM1550 0q83 0 144.5 61.5t61.5 147.5
t-61.5 147t-147.5 61t-147.5 -61t-61.5 -147t61.5 -147.5t150.5 -61.5zM1274 1360h-294l599 600l147 -148zM1353 1287l447 452l25 19q39 -64 39 -137v-835q0 -108 -78.5 -186.5t-186.5 -78.5t-184.5 78.5t-76.5 186.5v486z" />
</svg>
