<?xml version="1.0" standalone="no"?>
<!DOCTYPE svg PUBLIC "-//W3C//DTD SVG 1.1//EN" "http://www.w3.org/Graphics/SVG/1.1/DTD/svg11.dtd" >
<svg xmlns="http://www.w3.org/2000/svg" xmlns:xlink="http://www.w3.org/1999/xlink" version="1.1" width="2048" height="2048" viewBox="-10 0 2068 2048">
   <path fill="currentColor"
d="M633 1024q-83 2 -156 37t-127 99h-143q-55 0 -100.5 -17t-76 -56.5t-30.5 -96.5v-5q0 -371 133 -371q6 0 32.5 14.5t59.5 31t84.5 31t100.5 14.5q72 0 142 -25q-6 47 -6 70q0 147 87 274zM1775 1704q0 128 -77.5 202t-206.5 74h-933q-129 0 -206.5 -74t-77.5 -202
q0 -57 3.5 -110.5t14.5 -116t28 -116t46 -104t66.5 -86.5t91 -57.5t118.5 -21.5q9 0 32.5 15.5t57 37t75.5 43.5t99.5 37.5t117.5 15.5t117.5 -15.5t99.5 -37.5t75.5 -43.5t57 -37t32.5 -15.5q65 0 118.5 21.5t91 57.5t66.5 86.5t46.5 104t28.5 116t14.5 116t3.5 110.5z
M682 341q0 113 -80 193t-192.5 80t-193 -80.5t-80.5 -193t80.5 -192.5t193.5 -80t192.5 80t79.5 193zM1434 750.5q0 111.5 -55 205.5t-149.5 149t-205.5 55t-205.5 -55t-149.5 -149t-55 -205.5t55 -205.5t149.5 -149t205.5 -55t205.5 55t149.5 149t55 205.5zM2048 990
q0 57 -30 96.5t-75.5 56.5t-100.5 17h-144q-54 -64 -126.5 -99t-155.5 -37q86 -125 86 -274q0 -23 -6 -70q70 25 142 25q49 0 100.5 -14.5t84.5 -31t60 -31t33 -14.5q132 0 132 370v6zM1912 340.5q0 112.5 -80.5 193t-193 80.5t-192.5 -80t-80 -193t79.5 -193t192.5 -80
t193.5 80t80.5 192.5z" />
</svg>
