<?xml version="1.0" standalone="no"?>
<!DOCTYPE svg PUBLIC "-//W3C//DTD SVG 1.1//EN" "http://www.w3.org/Graphics/SVG/1.1/DTD/svg11.dtd" >
<svg xmlns="http://www.w3.org/2000/svg" xmlns:xlink="http://www.w3.org/1999/xlink" version="1.1" width="2048" height="2048" viewBox="-10 0 2068 2048">
   <path fill="currentColor"
d="M683 453h453q96 0 162.5 67t66.5 163v229q0 69 -37 125t-101 83l138 475h-229l-133 -459h-91v459h-229v-1142zM912 683v229h224v-229h-224zM229 0h1590q96 0 162.5 66.5t66.5 162.5v1590q0 96 -66.5 162.5t-162.5 66.5h-1590q-96 0 -162.5 -66.5t-66.5 -162.5v-1590
q0 -96 66.5 -162.5t162.5 -66.5zM229 229v1590h1590v-1590h-1590z" />
</svg>
