<?xml version="1.0" standalone="no"?>
<!DOCTYPE svg PUBLIC "-//W3C//DTD SVG 1.1//EN" "http://www.w3.org/Graphics/SVG/1.1/DTD/svg11.dtd" >
<svg xmlns="http://www.w3.org/2000/svg" xmlns:xlink="http://www.w3.org/1999/xlink" version="1.1" width="2048" height="2048" viewBox="-10 0 2068 2048">
   <path fill="currentColor"
d="M716 510h207v822h202v-822h207v822q0 86 -60.5 146t-146.5 60h-202q-86 0 -146.5 -60t-60.5 -146v-822zM1024 0q202 0 392 77t334 221t221 334t77 392t-77 392t-221 334t-334 221t-392 77t-392 -77t-334 -221t-221 -334t-77 -392t77 -392t221 -334t334 -221t392 -77z
M1024 202q-221 0 -411 110.5t-300.5 300.5t-110.5 411t110.5 411t300.5 300.5t411 110.5t411 -110.5t300.5 -300.5t110.5 -411t-110.5 -411t-300.5 -300.5t-411 -110.5z" />
</svg>
