<?xml version="1.0" standalone="no"?>
<!DOCTYPE svg PUBLIC "-//W3C//DTD SVG 1.1//EN" "http://www.w3.org/Graphics/SVG/1.1/DTD/svg11.dtd" >
<svg xmlns="http://www.w3.org/2000/svg" xmlns:xlink="http://www.w3.org/1999/xlink" version="1.1" width="2048" height="2048" viewBox="-10 0 2068 2048">
   <path fill="currentColor"
d="M2048 1365q0 111 -55 205.5t-149.5 149.5t-205.5 55h-1160q-97 0 -185.5 -38t-152.5 -102t-102 -152.5t-38 -185.5q0 -141 76 -258t199 -174q-1 -30 -1 -46q0 -111 43 -212t116 -174t174.5 -116.5t212.5 -43.5q169 0 305.5 93.5t199.5 245.5q73 -66 177 -66q113 0 193 80
t80 193q0 80 -43 148q137 32 226.5 143t89.5 255z" />
</svg>
