<?xml version="1.0" standalone="no"?>
<!DOCTYPE svg PUBLIC "-//W3C//DTD SVG 1.1//EN" "http://www.w3.org/Graphics/SVG/1.1/DTD/svg11.dtd" >
<svg xmlns="http://www.w3.org/2000/svg" xmlns:xlink="http://www.w3.org/1999/xlink" version="1.1" width="2048" height="2048" viewBox="-11 0 2070 2048">
   <path fill="currentColor"
d="M1097 952q30 0 51.5 21.5t21.5 51t-21.5 51t-51.5 21.5t-51.5 -21.5t-21.5 -51t21.5 -51t51.5 -21.5zM1440 1024l579 455q32 24 29 64q-5 41 -40 58l-146 73q-14 8 -33 8q-21 0 -36 -9l-788 -442l-126 75q-1 1 -6 3.5t-8 2.5q16 57 12 111q-7 88 -63.5 168.5
t-151.5 140.5q-150 96 -317 96q-156 0 -254 -89q-49 -45 -72.5 -107t-17.5 -129q8 -87 64 -168t150 -142q150 -96 318 -96q96 0 172 35q10 -14 25 -25l140 -83l-140 -83q-15 -11 -25 -25q-78 36 -172 36q-168 0 -318 -96q-94 -61 -150 -142t-64 -168q-6 -67 18 -129.5
t72 -106.5q98 -90 254 -90q167 0 317 96q95 59 151.5 140t63.5 170q4 54 -12 111q3 0 14 5l126 76l788 -442q16 -10 36 -10q19 0 33 8l146 74q35 17 40 58q3 40 -29 64zM662 728q52 -48 23.5 -124t-120.5 -134q-104 -67 -220 -67q-83 0 -129 41q-52 48 -23.5 123t120.5 134
q106 68 220 68q83 0 129 -41zM565 1578q92 -58 120.5 -133t-23.5 -124q-46 -41 -129 -41q-116 0 -220 67q-92 59 -120.5 134t23.5 123q46 41 129 41q116 0 220 -67zM768 878l110 67v-13q0 -42 37 -64l16 -9l-90 -54l-30 30q-3 3 -11.5 12t-13.5 14q-2 1 -4.5 3.5l-3.5 3.5z
M1024 1133l110 37l841 -657l-146 -73l-878 492v128l-183 110l10 9q2 3 8 7q5 5 13 14t12 13l30 30zM1829 1609l146 -73l-594 -467l-203 158q-2 4 -15 8z" />
</svg>
