<?xml version="1.0" standalone="no"?>
<!DOCTYPE svg PUBLIC "-//W3C//DTD SVG 1.1//EN" "http://www.w3.org/Graphics/SVG/1.1/DTD/svg11.dtd" >
<svg xmlns="http://www.w3.org/2000/svg" xmlns:xlink="http://www.w3.org/1999/xlink" version="1.1" width="2048" height="2048" viewBox="-10 0 2068 2048">
   <path fill="currentColor"
d="M452 512q108 -120 256 -188t316 -68t316 68t256 188h-268q-140 -84 -304 -84t-304 84h-268zM1228 820v-136h-272q-56 0 -96 40t-40 96v136q0 56 40 96t96 40h136v136h-272v136h272q56 0 96 -40t40 -96v-136q0 -56 -40 -96t-96 -40h-136v-136h272zM1572 684h-276v680h136
v-272h140q56 0 96 -40t40 -96v-136q0 -56 -40 -96t-96 -40zM1572 956h-140v-136h140v136zM752 820v-136h-412v680h412v-136h-276v-136h276v-136h-276v-136h276zM1328 1536q-140 84 -304 84t-304 -84h-268q108 120 256 188t316 68t316 -68t256 -188h-268zM1748 300l-92 92
q124 124 194 288t70 344t-70 344t-194 288l92 92q144 -140 222 -328t78 -396t-78 -396t-222 -328zM392 392l-92 -92q-144 140 -222 328t-78 396t78 396t222 328l92 -92q-124 -124 -194 -288t-70 -344t70 -344t194 -288z" />
</svg>
