<?xml version="1.0" standalone="no"?>
<!DOCTYPE svg PUBLIC "-//W3C//DTD SVG 1.1//EN" "http://www.w3.org/Graphics/SVG/1.1/DTD/svg11.dtd" >
<svg xmlns="http://www.w3.org/2000/svg" xmlns:xlink="http://www.w3.org/1999/xlink" version="1.1" width="2048" height="2048" viewBox="-11 0 2070 2048">
   <path fill="currentColor"
d="M1101 199q154 -111 357 -111q115 0 245 60t207 142q159 197 135 459.5t-173 406.5l-780 780q-29 29 -72.5 29t-72 -29t-28.5 -72t28 -72l472 -472q39 -34 0.5 -72.5t-72.5 0.5l-472 472q-29 28 -72 28t-72 -28.5t-29 -72t29 -72.5l471 -472q44 -38 5.5 -76.5t-77.5 -0.5
l-471 477q-29 29 -72.5 29t-75 -29t-31.5 -72.5t34 -76.5l472 -472q38 -38 -0.5 -72t-71.5 0l-477 472q-34 33 -74.5 33t-69.5 -31t-29 -74.5t29 -72.5q419 -419 582 -577l366 361q63 57 144 57q106 0 169 -86q43 -63 31 -140t-65 -130zM1313 848l-438 -438l-727 727
q-130 -130 -146.5 -402t146.5 -469q183 -183 438 -183t434 183l438 438q28 29 28 72t-28.5 72t-72 29t-72.5 -29z" />
</svg>
