<?xml version="1.0" standalone="no"?>
<!DOCTYPE svg PUBLIC "-//W3C//DTD SVG 1.1//EN" "http://www.w3.org/Graphics/SVG/1.1/DTD/svg11.dtd" >
<svg xmlns="http://www.w3.org/2000/svg" xmlns:xlink="http://www.w3.org/1999/xlink" version="1.1" width="2048" height="2048" viewBox="-10 0 2068 2048">
   <path fill="currentColor"
d="M2048 1024q0 208 -78 396t-222 328l-92 -92q124 -124 194 -288t70 -344t-70 -344t-194 -288l92 -92q144 140 222 328t78 396zM1708 820v-136h-276q-56 0 -96 40t-40 96v136q0 56 40 96t96 40h140v136h-276v136h276q56 0 96 -40t40 -96v-136q0 -56 -40 -96t-96 -40h-140
v-136h276zM720 512q140 -84 304 -84t304 84h268q-108 -120 -256 -188t-316 -68t-316 68t-256 188h268zM1128 1024q40 0 70 30t30 74v100q0 56 -40 96t-96 40h-272v-680h272q56 0 96 40t40 96v100q0 44 -30 74t-70 30zM1092 1092h-136v136h136v-136zM1092 820h-136v136h136
v-136zM392 392l-92 -92q-144 140 -222 328t-78 396t78 396t222 328l92 -92q-124 -124 -194 -288t-70 -344t70 -344t194 -288zM616 1364v-272h-140v272h-136v-544q0 -56 40 -96t96 -40h140q56 0 96 40t40 96v544h-136zM616 956v-136h-140v136h140zM1328 1536q-140 84 -304 84
t-304 -84h-268q108 120 256 188t316 68t316 -68t256 -188h-268z" />
</svg>
