<?xml version="1.0" standalone="no"?>
<!DOCTYPE svg PUBLIC "-//W3C//DTD SVG 1.1//EN" "http://www.w3.org/Graphics/SVG/1.1/DTD/svg11.dtd" >
<svg xmlns="http://www.w3.org/2000/svg" xmlns:xlink="http://www.w3.org/1999/xlink" version="1.1" width="2048" height="2048" viewBox="-10 0 2068 2048">
   <path fill="currentColor"
d="M1846 0h-1231q-86 0 -146 60t-60 142v1231q0 86 60 146t146 60h1231q82 0 142 -60t60 -146v-1231q0 -82 -60 -142t-142 -60zM1846 1433h-1231v-1231h1231v1231zM1433 1846v202h-1231q-82 0 -142 -60t-60 -142v-1336h202v1336h1231zM1692 620l-106 -110l-500 500
l-221 -217l-105 111l326 327z" />
</svg>
