<?xml version="1.0" standalone="no"?>
<!DOCTYPE svg PUBLIC "-//W3C//DTD SVG 1.1//EN" "http://www.w3.org/Graphics/SVG/1.1/DTD/svg11.dtd" >
<svg xmlns="http://www.w3.org/2000/svg" xmlns:xlink="http://www.w3.org/1999/xlink" version="1.1" width="2048" height="2048" viewBox="-10 0 2058 2048">
   <path fill="currentColor"
d="M1740 202h-428q-43 -120 -158.5 -173t-230.5 -10q-135 44 -187 183h-428q-87 0 -147 60t-60 147v1432q0 87 60 147t147 60h1432q87 0 147 -60t60 -147v-1432q0 -87 -60 -147t-147 -60zM1024 202q43 0 72 29t29 72t-29 74.5t-72 31.5t-72 -31.5t-29 -74.5t29 -72t72 -29z
M817 1639v-822l515 409z" />
</svg>
