<?xml version="1.0" standalone="no"?>
<!DOCTYPE svg PUBLIC "-//W3C//DTD SVG 1.1//EN" "http://www.w3.org/Graphics/SVG/1.1/DTD/svg11.dtd" >
<svg xmlns="http://www.w3.org/2000/svg" xmlns:xlink="http://www.w3.org/1999/xlink" version="1.1" width="2048" height="2048" viewBox="-10 0 2068 2048">
   <path fill="currentColor"
d="M1769 606h-96h-370v557h-1207v279h91q0 114 81 196.5t198.5 82.5t198 -82.5t80.5 -196.5h558q0 114 80.5 196.5t198 82.5t198.5 -82.5t81 -196.5h187v-466zM466 1582q-56 0 -97.5 -41.5t-41.5 -100.5t41.5 -98t98 -39t98 39t41.5 98t-41.5 100.5t-98.5 41.5zM1582 1582
q-57 0 -98.5 -41.5t-41.5 -100.5t41.5 -98t98 -39t98 39t41.5 98t-41.5 100.5t-97.5 41.5zM1490 976v-231h231l183 231h-414zM1582 510h-371v558h-1024l-135 -462h-52v-188h1116l95 -91h371v183z" />
</svg>
