<?xml version="1.0" standalone="no"?>
<!DOCTYPE svg PUBLIC "-//W3C//DTD SVG 1.1//EN" "http://www.w3.org/Graphics/SVG/1.1/DTD/svg11.dtd" >
<svg xmlns="http://www.w3.org/2000/svg" xmlns:xlink="http://www.w3.org/1999/xlink" version="1.1" width="2048" height="2048" viewBox="-10 0 2068 2048">
   <path fill="currentColor"
d="M322 1596q0 -77 77 -221q63 -125 168 -269q111 144 173 269q77 144 77 221q0 101 -72 175.5t-175.5 74.5t-175.5 -74.5t-72 -175.5zM2048 1024q0 202 -77 392t-221 334t-334 221t-392 77q-135 0 -274 -38q125 -53 199.5 -163.5t74.5 -250.5q0 -67 -34 -163h34
q96 0 173 36t111 93l144 -149q-67 -81 -180 -131.5t-248 -50.5q-62 0 -120 9q-72 -125 -168 -254l-49 -63q53 -10 91.5 -55.5t38.5 -103t-45.5 -103.5t-105.5 -46t-108 46t-48 108q0 24 14 53l-120 164q-236 322 -279 533q-125 -231 -125 -495q0 -202 77 -392t221 -334
t334 -221t392 -77t392 77t334 221t221 334t77 392zM1538 769q0 -62 -48 -108t-108 -46t-105.5 46t-45.5 106t45.5 108t105.5 48t108 -48t48 -106z" />
</svg>
