<?xml version="1.0" standalone="no"?>
<!DOCTYPE svg PUBLIC "-//W3C//DTD SVG 1.1//EN" "http://www.w3.org/Graphics/SVG/1.1/DTD/svg11.dtd" >
<svg xmlns="http://www.w3.org/2000/svg" xmlns:xlink="http://www.w3.org/1999/xlink" version="1.1" width="2048" height="2048" viewBox="-10 0 2068 2048">
   <path fill="currentColor"
d="M1024 0q-202 0 -392 77t-334 221t-221 334t-77 392t77 392t221 334t334 221t392 77t392 -77t334 -221t221 -334t77 -392t-77 -392t-221 -334t-334 -221t-392 -77zM510 769v-154l307 154q0 58 -45.5 106t-105.5 48t-108 -48t-48 -106zM1308 1562q-34 -57 -111 -93
t-173 -36t-173 36t-111 93l-144 -149q67 -81 180 -131.5t248 -50.5t248 50.5t180 131.5zM1538 769q0 58 -48 106t-108 48t-105.5 -48t-45.5 -106l307 -154v154z" />
</svg>
