<?xml version="1.0" standalone="no"?>
<!DOCTYPE svg PUBLIC "-//W3C//DTD SVG 1.1//EN" "http://www.w3.org/Graphics/SVG/1.1/DTD/svg11.dtd" >
<svg xmlns="http://www.w3.org/2000/svg" xmlns:xlink="http://www.w3.org/1999/xlink" version="1.1" width="2048" height="2048" viewBox="-10 0 2058 2048">
   <path fill="currentColor"
d="M267 1939l127 -181q-158 -136 -246.5 -326.5t-88.5 -407.5q0 -190 72.5 -369t208.5 -315t315 -208.5t369 -72.5q254 0 471 122l127 -181l159 109l-127 181q158 136 246.5 326.5t88.5 407.5q0 190 -72.5 369t-208.5 315t-315 208.5t-369 72.5q-254 0 -471 -122l-127 181z
M1024 249q-208 0 -387 104.5t-283.5 283.5t-104.5 387q0 168 68 317.5t186 257.5l883 -1259q-167 -91 -362 -91zM1024 1799q208 0 387 -104.5t283.5 -283.5t104.5 -387q0 -168 -68 -317.5t-186 -257.5l-883 1259q167 91 362 91z" />
</svg>
