<?xml version="1.0" standalone="no"?>
<!DOCTYPE svg PUBLIC "-//W3C//DTD SVG 1.1//EN" "http://www.w3.org/Graphics/SVG/1.1/DTD/svg11.dtd" >
<svg xmlns="http://www.w3.org/2000/svg" xmlns:xlink="http://www.w3.org/1999/xlink" version="1.1" width="2048" height="2048" viewBox="-10 0 2068 2048">
   <path fill="currentColor"
d="M1024 0q-279 0 -514.5 137t-372.5 372.5t-137 514.5q0 202 77 392t221 334t334 221t392 77t392 -77t334 -221t221 -334t77 -392t-77 -392t-221 -334t-334 -221t-392 -77zM1385 615q62 0 107.5 43.5t45.5 108.5t-45.5 110.5t-110.5 45.5t-108 -45.5t-43 -110.5t43 -108.5
t111 -43.5zM663 615q68 0 111 43.5t43 108.5t-43 110.5t-108 45.5t-110.5 -45.5t-45.5 -110.5t45.5 -108.5t107.5 -43.5zM1024 1586q-178 0 -320 -98.5t-204 -256.5h1048q-62 158 -204 256.5t-320 98.5z" />
</svg>
