<?xml version="1.0" standalone="no"?>
<!DOCTYPE svg PUBLIC "-//W3C//DTD SVG 1.1//EN" "http://www.w3.org/Graphics/SVG/1.1/DTD/svg11.dtd" >
<svg xmlns="http://www.w3.org/2000/svg" xmlns:xlink="http://www.w3.org/1999/xlink" version="1.1" width="2048" height="2048" viewBox="-10 0 2068 2048">
   <path fill="currentColor"
d="M125 534q130 -246 370.5 -390t528.5 -144t528.5 144t370.5 390l-77 81h-1644zM1990 673q58 178 58 351q0 202 -77 392t-221 334t-334 221t-392 77t-392 -77t-334 -221t-221 -334t-77 -392q0 -173 58 -351l144 144h106q0 101 125 183q115 77 228 77t199.5 -77t86.5 -183
h154q0 106 86.5 183t199.5 77t228 -77q125 -82 125 -183h106zM1452 1375l-144 -144q-34 53 -111 89t-173 36t-173 -36t-111 -89l-144 144q67 86 182.5 136.5t245.5 50.5t245.5 -50.5t182.5 -136.5z" />
</svg>
