<?xml version="1.0" standalone="no"?>
<!DOCTYPE svg PUBLIC "-//W3C//DTD SVG 1.1//EN" "http://www.w3.org/Graphics/SVG/1.1/DTD/svg11.dtd" >
<svg xmlns="http://www.w3.org/2000/svg" xmlns:xlink="http://www.w3.org/1999/xlink" version="1.1" width="2048" height="2048" viewBox="-10 0 2068 2048">
   <path fill="currentColor"
d="M2048 59q-128 128 -407 211q-128 -105 -285.5 -162.5t-331.5 -57.5t-331.5 57.5t-285.5 162.5q-279 -83 -407 -211q5 234 215 421q-165 242 -165 544q0 192 73.5 372.5t210.5 317.5t317.5 210.5t372.5 73.5t372.5 -73.5t317.5 -210.5t210.5 -317.5t73.5 -372.5
q0 -302 -165 -544q210 -187 215 -421zM585 681l293 146q0 60 -43.5 103.5t-103 43.5t-103 -43.5t-43.5 -103.5v-146zM1024 1536q-123 0 -233 -48t-174 -130l137 -137q32 50 105.5 84t164.5 34t164.5 -34t105.5 -84l137 137q-64 82 -174 130t-233 48zM1463 827
q0 60 -43.5 103.5t-103 43.5t-103 -43.5t-43.5 -103.5l293 -146v146z" />
</svg>
