<?xml version="1.0" standalone="no"?>
<!DOCTYPE svg PUBLIC "-//W3C//DTD SVG 1.1//EN" "http://www.w3.org/Graphics/SVG/1.1/DTD/svg11.dtd" >
<svg xmlns="http://www.w3.org/2000/svg" xmlns:xlink="http://www.w3.org/1999/xlink" version="1.1" width="2048" height="2048" viewBox="-10 0 2068 2048">
   <path fill="currentColor"
d="M567 1846q-101 0 -173 -74.5t-72 -175.5q0 -77 77 -221q63 -125 168 -269q111 144 173 269q77 144 77 221q0 101 -72 175.5t-178 74.5zM1024 0q-202 0 -392 77t-334 221t-221 334t-77 392q0 264 125 495q24 -115 111 -274q-34 -106 -34 -221q0 -221 110.5 -411
t300.5 -300.5t411 -110.5t411 110.5t300.5 300.5t110.5 411t-110.5 411t-300.5 300.5t-411 110.5q-48 0 -72 -5q-72 116 -202 169q135 38 274 38q202 0 392 -77t334 -221t221 -334t77 -392t-77 -392t-221 -334t-334 -221t-392 -77zM1024 1231q-62 0 -120 9q58 106 86 193h34
q96 0 173 36t111 93l144 -149q-67 -81 -180 -131.5t-248 -50.5zM1385 615q-63 0 -108.5 46t-45.5 106t45.5 108t105.5 48t108 -48t48 -108t-48 -106t-105 -46zM817 769q0 -62 -45.5 -108t-105.5 -46t-108 46t-48 106t48 108t108 48t105.5 -48t45.5 -106z" />
</svg>
