<?xml version="1.0" standalone="no"?>
<!DOCTYPE svg PUBLIC "-//W3C//DTD SVG 1.1//EN" "http://www.w3.org/Graphics/SVG/1.1/DTD/svg11.dtd" >
<svg xmlns="http://www.w3.org/2000/svg" xmlns:xlink="http://www.w3.org/1999/xlink" version="1.1" width="2048" height="2048" viewBox="-10 0 2058 2048">
   <path fill="currentColor"
d="M1962 1679q0 103 -48.5 187.5t-133.5 133t-187 48.5q-88 0 -169.5 -35.5t-145.5 -99.5l-1041 -1038q-71 -73 -111 -168t-40 -196q0 -105 40 -199.5t107.5 -162.5t161.5 -108.5t199 -40.5q102 0 197 40t169 112l810 812q14 14 14 29q0 21 -41 62t-63 41q-18 0 -31 -13
l-811 -813q-50 -49 -113 -76.5t-130 -27.5q-93 0 -171 46.5t-122.5 125.5t-44.5 172q0 68 27 131t75 112l1040 1041q39 39 89.5 61.5t104.5 22.5q85 0 141.5 -57t56.5 -142q0 -54 -23 -104.5t-62 -89.5l-778 -778q-35 -33 -80 -33q-38 0 -64 25.5t-26 64.5q0 43 34 79
l549 550q14 14 14 29q0 21 -42 62.5t-63 41.5q-16 0 -29 -13l-550 -549q-40 -40 -62 -92t-22 -108q0 -110 76 -186t186 -76q117 0 200 84l778 779q64 63 99.5 144.5t35.5 169.5z" />
</svg>
