<?xml version="1.0" standalone="no"?>
<!DOCTYPE svg PUBLIC "-//W3C//DTD SVG 1.1//EN" "http://www.w3.org/Graphics/SVG/1.1/DTD/svg11.dtd" >
<svg xmlns="http://www.w3.org/2000/svg" xmlns:xlink="http://www.w3.org/1999/xlink" version="1.1" width="2048" height="2048" viewBox="-10 0 2068 2048">
   <path fill="currentColor"
d="M768 1004q-44 0 -76 30t-32 74t32 76t76 32t76 -32t32 -76t-32 -74t-76 -30zM1280 1004q-44 0 -76 30t-32 74t32 76t76 32t76 -32t32 -76t-32 -74t-76 -30zM1024 172q-168 0 -326 64t-278 184t-184 278t-64 326t64 326t184 278t278 184t326 64t326 -64t278 -184t184 -278
t64 -326t-64 -326t-184 -278t-278 -184t-326 -64zM1024 1708q-184 0 -342 -92t-250 -250t-92 -342q-4 -36 0 -72q152 -68 270 -188t182 -272q116 172 302 266t394 94q92 0 192 -20q52 176 8 354t-168 310t-304 184q-96 28 -192 28zM0 172q0 -72 50 -122t122 -50h340v172
h-340v340h-172v-340zM2048 1876q0 72 -50 122t-122 50h-340v-172h340v-340h172v340zM172 2048q-72 0 -122 -50t-50 -122v-340h172v340h340v172h-340zM1876 0q72 0 122 50t50 122v340h-172v-340h-340v-172h340z" />
</svg>
