<?xml version="1.0" standalone="no"?>
<!DOCTYPE svg PUBLIC "-//W3C//DTD SVG 1.1//EN" "http://www.w3.org/Graphics/SVG/1.1/DTD/svg11.dtd" >
<svg xmlns="http://www.w3.org/2000/svg" xmlns:xlink="http://www.w3.org/1999/xlink" version="1.1" width="2048" height="2048" viewBox="-10 0 2058 2048">
   <path fill="currentColor"
d="M1970 1216q-43 -86 -120 -125q-53 -33 -106 -48q39 -125 -62 -231q-48 -52 -111 -81q-29 -10 -48 -15q43 -86 24 -173q-24 -96 -110 -149q-63 -38 -188 -57l-5 -5q-168 -29 -221 -101q-29 -44 -48 -164q-5 -38 -9 -48q-10 -19 -29 -19q-29 0 -79.5 33.5t-117.5 110.5
q-73 87 -106 173q-48 125 -19 241q-58 9 -116 33q-53 24 -106 87q-62 86 -67 187q-5 53 10 135v29q-53 14 -96 38h-5q-24 10 -58 34t-43 38q-53 58 -74.5 142t-14.5 175.5t50 163.5q53 106 116 168q101 101 279 164q129 43 322 77q129 19 254 19q260 0 479 -89t348 -248
q77 -96 99 -187t7 -192q-9 -77 -29 -116zM1417 957q44 0 72.5 33.5t26.5 74.5t-33.5 69.5t-77 26.5t-72 -33.5t-24 -72.5t31 -69.5t67.5 -28.5h9zM1845 1490h-5q-14 63 -67 125q-101 125 -288.5 202t-418.5 77q-115 0 -230 -19q-380 -58 -519 -197q-44 -48 -87 -130
q-24 -48 -31 -108t7 -123q14 -43 43 -77q15 -14 39 -29l24 -9q14 -10 43 -19q34 96 118 158.5t180 62.5h24q135 -10 219 -118t74.5 -240.5t-98.5 -223.5t-214 -96l-34 5q-38 0 -86 19l19 -19q38 -15 82 -24l158 -29l-33 -159q-15 -67 14 -149q19 -53 82 -130q14 48 43 82
q87 125 313 164h4q101 19 140 43q29 14 36 48t-7 67l-58 92q-96 24 -166 105.5t-79 187.5q-15 139 64.5 247.5t214.5 127.5h33q116 0 202 -77q63 -53 96 -135h15q24 5 57 29l10 10q34 9 53 48q9 24 14 77q10 72 0 134zM557 1072q-5 -43 21.5 -76.5t69.5 -43.5h10
q43 0 72 26.5t33.5 67t-21.5 74.5t-69.5 38.5t-77 -21.5t-38.5 -65zM667 1452q20 -5 63 5l19 4q135 29 274.5 29t273.5 -29l19 -4q39 -5 58 -5q29 -5 53 9q34 25 14.5 99.5t-76.5 131.5q-140 144 -342 144t-341 -144q-58 -57 -77 -131.5t14 -99.5q24 -9 48 -9z" />
</svg>
