<?xml version="1.0" standalone="no"?>
<!DOCTYPE svg PUBLIC "-//W3C//DTD SVG 1.1//EN" "http://www.w3.org/Graphics/SVG/1.1/DTD/svg11.dtd" >
<svg xmlns="http://www.w3.org/2000/svg" xmlns:xlink="http://www.w3.org/1999/xlink" version="1.1" width="2048" height="2048" viewBox="-10 0 2068 2048">
   <path fill="currentColor"
d="M1024 0q-202 0 -392 77t-334 221t-221 334t-77 392t77 392t221 334t334 221t392 77t392 -77t334 -221t221 -334t77 -392t-77 -392t-221 -334t-334 -221t-392 -77zM1024 1846q-221 0 -411 -110.5t-300.5 -300.5t-110.5 -411t110.5 -411t300.5 -300.5t411 -110.5t411 110.5
t300.5 300.5t110.5 411t-110.5 411t-300.5 300.5t-411 110.5zM817 769q0 58 -45.5 106t-105.5 48t-108 -48t-48 -108t48 -106t108 -46t105.5 46t45.5 108zM1024 1562q-130 0 -245.5 -50.5t-182.5 -136.5l144 -144q34 53 111 89t173 36t173 -36t111 -89l144 144
q-67 86 -182.5 136.5t-245.5 50.5zM1538 817h-413v-101h413v101z" />
</svg>
