<?xml version="1.0" standalone="no"?>
<!DOCTYPE svg PUBLIC "-//W3C//DTD SVG 1.1//EN" "http://www.w3.org/Graphics/SVG/1.1/DTD/svg11.dtd" >
<svg xmlns="http://www.w3.org/2000/svg" xmlns:xlink="http://www.w3.org/1999/xlink" version="1.1" width="2048" height="2048" viewBox="-10 0 2068 2048">
   <path fill="currentColor"
d="M745 793q0 52 -41.5 95.5t-98 43.5t-98 -43.5t-41.5 -98t41.5 -95.5t98 -41t98 41t41.5 98zM1394 793q0 52 -41 95.5t-95.5 43.5t-98 -43.5t-43.5 -98t43.5 -95.5t98 -41t95.5 41t41 98zM1211 1220l-200 -196l-96 100l96 96l-96 100l96 96l-96 100l96 101l200 -201
l-100 -96zM1473 1116q-79 0 -133.5 56.5t-54.5 135t57 134.5l323 327l326 -327q57 -56 57 -134.5t-56.5 -135t-135 -56.5t-135.5 56l-56 57l-57 -57q-52 -56 -135 -56zM1303 1669q-174 100 -374.5 100t-370.5 -100t-270.5 -272.5t-100.5 -372.5t100.5 -372.5t270.5 -272.5
t368 -100t363.5 93.5t268 252.5t115.5 351q87 -44 183 -44q-22 -235 -152.5 -424.5t-333 -300.5t-438.5 -111q-187 0 -357 69.5t-300.5 200.5t-202.5 303t-72 355t72 355t202.5 303t300.5 200.5t357 69.5q275 0 506 -148z" />
</svg>
