<?xml version="1.0" standalone="no"?>
<!DOCTYPE svg PUBLIC "-//W3C//DTD SVG 1.1//EN" "http://www.w3.org/Graphics/SVG/1.1/DTD/svg11.dtd" >
<svg xmlns="http://www.w3.org/2000/svg" xmlns:xlink="http://www.w3.org/1999/xlink" version="1.1" width="2048" height="2048" viewBox="-10 0 2068 2048">
   <path fill="currentColor"
d="M1723 1692l-284 -285q-36 -40 -36 -89.5t36 -88t88 -38.5t88 41l108 108l108 -113q37 -36 88.5 -36t90 38.5t38.5 90t-36 87.5zM1583 1759q-126 109 -286 167.5t-332 58.5q-194 0 -369.5 -72.5t-311 -207.5t-210 -313.5t-74.5 -367.5t74.5 -367.5t210 -313.5t311 -207.5
t367.5 -72.5t370 72.5t313.5 207.5t207.5 313.5t72 367.5q0 18 -4 23q-109 0 -190 81l-9 4l-4 -4q-77 -81 -190 -81t-191.5 78.5t-78.5 191.5t76 190zM1155 785q0 54 45 99t101.5 45t99.5 -45t43 -101.5t-43 -99t-99.5 -42.5t-101.5 42.5t-45 101.5zM771 785
q0 -59 -42.5 -101.5t-101.5 -42.5t-101.5 42.5t-42.5 99t42.5 101.5t101.5 45t101.5 -45t42.5 -99zM1150 1331l104 -104l-207 -203l-100 104l100 99l-100 104l100 99l-100 104l100 103l207 -207z" />
</svg>
