<?xml version="1.0" standalone="no"?>
<!DOCTYPE svg PUBLIC "-//W3C//DTD SVG 1.1//EN" "http://www.w3.org/Graphics/SVG/1.1/DTD/svg11.dtd" >
<svg xmlns="http://www.w3.org/2000/svg" xmlns:xlink="http://www.w3.org/1999/xlink" version="1.1" width="2048" height="2048" viewBox="-10 0 2068 2048">
   <path fill="currentColor"
d="M512 1878h1025v-513h-1025v513zM1707 1878h171v-1195q0 -20 -13.5 -52t-26.5 -45l-375 -376q-14 -14 -45.5 -27t-52.5 -13v556q0 53 -36.5 90t-90.5 37h-769q-53 0 -90 -37t-37 -90v-556h-172v1708h172v-555q0 -53 37 -90.5t90 -37.5h1110q53 0 90.5 37.5t37.5 90.5v555z
M1195 639v-425q0 -17 -13.5 -30.5t-29.5 -13.5h-256q-16 0 -29.5 13.5t-13.5 30.5v425q0 17 13.5 30.5t29.5 13.5h256q16 0 29.5 -13.5t13.5 -30.5zM2048 683v1238q0 53 -37 90t-90 37h-1793q-53 0 -90.5 -37t-37.5 -90v-1793q0 -53 37.5 -90.5t90.5 -37.5h1237
q54 0 118 26.5t102 64.5l373 373q38 38 64 101.5t26 117.5z" />
</svg>
