<?xml version="1.0" standalone="no"?>
<!DOCTYPE svg PUBLIC "-//W3C//DTD SVG 1.1//EN" "http://www.w3.org/Graphics/SVG/1.1/DTD/svg11.dtd" >
<svg xmlns="http://www.w3.org/2000/svg" xmlns:xlink="http://www.w3.org/1999/xlink" version="1.1" width="2048" height="2048" viewBox="-10 0 2068 2048">
   <path fill="currentColor"
d="M1024 0q-202 0 -392 77t-334 221t-221 334t-77 392t77 392t221 334t334 221t392 77t392 -77t334 -221t221 -334t77 -392t-77 -392t-221 -334t-334 -221t-392 -77zM510 769q0 -62 48 -108t108 -46t105.5 46t45.5 106t-45.5 108t-105.5 48t-108 -48t-48 -106zM1024 1562
q-130 0 -245.5 -50.5t-182.5 -136.5l144 -144q34 53 111 89t173 36t173 -36t111 -89l144 144q-67 86 -182.5 136.5t-245.5 50.5zM1538 817h-413v-101h413v101z" />
</svg>
