<?xml version="1.0" standalone="no"?>
<!DOCTYPE svg PUBLIC "-//W3C//DTD SVG 1.1//EN" "http://www.w3.org/Graphics/SVG/1.1/DTD/svg11.dtd" >
<svg xmlns="http://www.w3.org/2000/svg" xmlns:xlink="http://www.w3.org/1999/xlink" version="1.1" width="2048" height="2048" viewBox="-10 0 2066 2048">
   <path fill="currentColor"
d="M1331 1741q0 -43 -31 -74t-70 -31h-105v-202h614q86 0 146 -60t60 -146v-820q0 -82 -60 -142t-146 -60h-614l-202 -206h-614q-86 0 -146 60t-60 146v1022q0 86 60 146t146 60h614v202h-105q-39 0 -70 31t-31 74h-715v201h715q0 44 31 75t70 31h412q39 0 70 -31t31 -75
h715v-201h-715zM309 1228v-820h1430v820h-1430z" />
</svg>
