<?xml version="1.0" standalone="no"?>
<!DOCTYPE svg PUBLIC "-//W3C//DTD SVG 1.1//EN" "http://www.w3.org/Graphics/SVG/1.1/DTD/svg11.dtd" >
<svg xmlns="http://www.w3.org/2000/svg" xmlns:xlink="http://www.w3.org/1999/xlink" version="1.1" width="2048" height="2048" viewBox="-10 0 2058 2048">
   <path fill="currentColor"
d="M1866 788q-74 -123 -197 -194.5t-266 -76.5t-276 64v-527h-206v527q-133 -69 -276 -64t-266 76.5t-197 194.5q-74 113 -34 330q34 192 142 418q99 212 219.5 362t202 150t135.5 -20q34 -14 79 -44q29 -20 48.5 -29.5t49.5 -9.5t49.5 9.5t48.5 29.5q45 30 79 44
q54 20 135.5 20t202 -150t219.5 -362q108 -226 142 -418q40 -217 -34 -330zM1679 1142q-99 394 -369 699q-35 0 -64 -29q-99 -79 -222 -79t-222 79q-29 29 -64 29q-275 -305 -369 -694q-44 -123 -10 -241q45 -79 123.5 -128t172 -49t172.5 39l94 44h206l94 -44
q79 -39 172.5 -39t172 49t123.5 128q34 118 -10 236zM921 266q-168 88 -306 108q-113 20 -206 -15q-74 -29 -128 -83q-40 -45 -69 -94l-15 -44l29 -40q45 -39 94 -64q74 -34 153 -34q98 0 201 59q119 64 247 207z" />
</svg>
