<?xml version="1.0" standalone="no"?>
<!DOCTYPE svg PUBLIC "-//W3C//DTD SVG 1.1//EN" "http://www.w3.org/Graphics/SVG/1.1/DTD/svg11.dtd" >
<svg xmlns="http://www.w3.org/2000/svg" xmlns:xlink="http://www.w3.org/1999/xlink" version="1.1" width="2048" height="2048" viewBox="-10 0 2058 2048">
   <path fill="currentColor"
d="M1019 745q154 0 264.5 -110.5t110.5 -264.5t-110.5 -262t-264.5 -108t-264.5 108t-110.5 262t110.5 264.5t264.5 110.5zM754 1125q-33 77 -62 159q-63 168 -82 202l-5 9q-4 10 -9 14.5t-22 4.5t-46 -14l-28 -14l-10 -10q-5 -15 0 -29q14 -48 106 -404l53 -197
q14 -43 33 -62.5t44 -23.5l19 -5h67l216 375l217 -375h77l19 5q24 9 38 28q24 29 29 77l149 572q5 24 2.5 34t-11.5 15l-68 19q-24 9 -38 -10q-5 -5 -10 -14l-130 -351l-19 918h-197l-34 -524l-4 -5q-10 -5 -22 -5t-17 5l-5 5l-38 524h-197z" />
</svg>
