<?xml version="1.0" standalone="no"?>
<!DOCTYPE svg PUBLIC "-//W3C//DTD SVG 1.1//EN" "http://www.w3.org/Graphics/SVG/1.1/DTD/svg11.dtd" >
<svg xmlns="http://www.w3.org/2000/svg" xmlns:xlink="http://www.w3.org/1999/xlink" version="1.1" width="2048" height="2048" viewBox="-10 0 2068 2048">
   <path fill="currentColor"
d="M1047 91q-101 -4 -192 48q-122 70 -159.5 205t32.5 257l685 1182q70 122 205 159t259 -32.5t159 -207t-35 -259.5l-680 -1182q-43 -74 -115 -117.5t-159 -52.5zM541 584l-493 859q-48 78 -48 170q0 144 100.5 244t243.5 100q92 0 170.5 -45.5t122.5 -128.5v4l296 -510
l-61 -105q-214 -357 -309 -545q-14 -21 -18 -43l890 -162z" />
</svg>
