<?xml version="1.0" standalone="no"?>
<!DOCTYPE svg PUBLIC "-//W3C//DTD SVG 1.1//EN" "http://www.w3.org/Graphics/SVG/1.1/DTD/svg11.dtd" >
<svg xmlns="http://www.w3.org/2000/svg" xmlns:xlink="http://www.w3.org/1999/xlink" version="1.1" width="2048" height="2048" viewBox="-10 0 2058 2048">
   <path fill="currentColor"
d="M510 0q-82 0 -142 60t-60 142v1644q0 82 60 142t142 60h1028q82 0 142 -60t60 -142v-1644q0 -82 -60 -142t-142 -60h-1028zM510 202h1028v615h-1028v-615zM1024 1024q168 0 288.5 120t120.5 291t-120.5 291t-288.5 120t-288.5 -120t-120.5 -291t120.5 -291t288.5 -120z
M1024 1231q-87 0 -147 60t-60 144t60 144t147 60t147 -60t60 -144t-60 -144t-147 -60z" />
</svg>
