<?xml version="1.0" standalone="no"?>
<!DOCTYPE svg PUBLIC "-//W3C//DTD SVG 1.1//EN" "http://www.w3.org/Graphics/SVG/1.1/DTD/svg11.dtd" >
<svg xmlns="http://www.w3.org/2000/svg" xmlns:xlink="http://www.w3.org/1999/xlink" version="1.1" width="2048" height="2048" viewBox="-10 0 2068 2048">
   <path fill="currentColor"
d="M202 510q-82 0 -142 60t-60 146v207q0 82 60 142t142 60h207v207h-409v206h409q86 0 146 -60t60 -146v-207q0 -82 -60 -142t-146 -60h-207v-207h413v-206h-413zM1231 510v206h-106v616h106v206h-414v-206h106v-616h-106v-206h414zM1433 510v1028h206v-514l207 514h202
v-1028h-202v514l-207 -514h-206z" />
</svg>
