<?xml version="1.0" standalone="no"?>
<!DOCTYPE svg PUBLIC "-//W3C//DTD SVG 1.1//EN" "http://www.w3.org/Graphics/SVG/1.1/DTD/svg11.dtd" >
<svg xmlns="http://www.w3.org/2000/svg" xmlns:xlink="http://www.w3.org/1999/xlink" version="1.1" width="2048" height="2048" viewBox="-10 0 2068 2048">
   <path fill="currentColor"
d="M923 1125h202v207h-202v-207zM923 716h202v207h-202v-207zM923 1538h202q86 0 146.5 -60t60.5 -146v-154q0 -63 -46 -108.5t-108 -45.5q62 0 108 -45.5t46 -108.5v-154q0 -86 -60.5 -146t-146.5 -60h-202q-86 0 -146.5 60t-60.5 146v154q0 63 46 108.5t108 45.5
q-62 0 -108 45.5t-46 108.5v154q0 86 60.5 146t146.5 60zM1024 0q202 0 392 77t334 221t221 334t77 392t-77 392t-221 334t-334 221t-392 77t-392 -77t-334 -221t-221 -334t-77 -392t77 -392t221 -334t334 -221t392 -77z" />
</svg>
