<?xml version="1.0" standalone="no"?>
<!DOCTYPE svg PUBLIC "-//W3C//DTD SVG 1.1//EN" "http://www.w3.org/Graphics/SVG/1.1/DTD/svg11.dtd" >
<svg xmlns="http://www.w3.org/2000/svg" xmlns:xlink="http://www.w3.org/1999/xlink" version="1.1" width="2048" height="2048" viewBox="-10 0 2068 2048">
   <path fill="currentColor"
d="M439 1609.5q0 90.5 -64.5 154.5t-155.5 64t-155 -64t-64 -154.5t64 -155t155 -64.5t155.5 64.5t64.5 155zM439 1024.5q0 90.5 -64.5 155t-155.5 64.5t-155 -64.5t-64 -155t64 -155.5t155 -65t155.5 65t64.5 155.5zM2048 1500v218q0 15 -11.5 26.5t-25.5 11.5h-1389
q-14 0 -25.5 -11.5t-11.5 -26.5v-218q0 -15 11.5 -26.5t25.5 -11.5h1389q14 0 25.5 11.5t11.5 26.5zM439 438.5q0 90.5 -64.5 155t-155.5 64.5t-155 -64.5t-64 -155t64 -154.5t155 -64t155.5 64t64.5 154.5zM2048 914v220q0 14 -11.5 25t-25.5 11h-1389q-14 0 -25.5 -11
t-11.5 -25v-220q0 -14 11.5 -25t25.5 -11h1389q14 0 25.5 11t11.5 25zM2048 330v218q0 15 -11.5 26.5t-25.5 11.5h-1389q-14 0 -25.5 -11.5t-11.5 -26.5v-218q0 -15 11.5 -26.5t25.5 -11.5h1389q14 0 25.5 11.5t11.5 26.5z" />
</svg>
