<?xml version="1.0" standalone="no"?>
<!DOCTYPE svg PUBLIC "-//W3C//DTD SVG 1.1//EN" "http://www.w3.org/Graphics/SVG/1.1/DTD/svg11.dtd" >
<svg xmlns="http://www.w3.org/2000/svg" xmlns:xlink="http://www.w3.org/1999/xlink" version="1.1" width="2048" height="2048" viewBox="-10 0 2068 2048">
   <path fill="currentColor"
d="M0 0v356q82 0 142 77t60 182.5t-60 180t-142 74.5v308q82 0 142 74.5t60 180t-60 182.5t-142 77v356h356q0 -82 77 -142t182.5 -60t180 60t74.5 142h308q0 -82 74.5 -142t180 -60t182.5 60t77 142h356v-356q-82 0 -142 -77t-60 -182.5t60 -180t142 -74.5v-308
q-82 0 -142 -74.5t-60 -180t60 -182.5t142 -77v-356h-356q0 82 -77 142t-182.5 60t-180 -60t-74.5 -142h-308q0 82 -74.5 142t-180 60t-182.5 -60t-77 -142h-356zM409 409h1230v1230h-1230v-1230zM716 510q-86 0 -146 60t-60 146.5t60 146.5t146.5 60t146.5 -60t60 -146.5
t-60 -146.5t-147 -60zM1538 817l-307 308l-207 -101l-514 514h1028v-721z" />
</svg>
