<?xml version="1.0" standalone="no"?>
<!DOCTYPE svg PUBLIC "-//W3C//DTD SVG 1.1//EN" "http://www.w3.org/Graphics/SVG/1.1/DTD/svg11.dtd" >
<svg xmlns="http://www.w3.org/2000/svg" xmlns:xlink="http://www.w3.org/1999/xlink" version="1.1" width="2048" height="2048" viewBox="-10 0 2058 2048">
   <path fill="currentColor"
d="M1922 873l-896 1175l-900 -1175l9 -9q27 -27 68 -50l700 909l-210 -653l64 -115l269 837l265 -837l69 115l-210 653l695 -909h4q46 27 64 45zM1026 192q179 0 339 80t269 217q-146 18 -269 105q-151 -109 -338.5 -109t-343.5 114q-118 -92 -269 -110q109 -137 269 -217
t343 -80zM1026 0q-233 0 -438.5 103t-343 285.5t-178.5 406.5q115 -114 279 -114q105 0 196.5 57t141.5 149q51 -96 142.5 -151t201 -55t198.5 55t144 151q46 -96 137.5 -151t200.5 -55q165 0 275 110q-41 -224 -178.5 -404.5t-341 -283.5t-436.5 -103z" />
</svg>
