<?xml version="1.0" standalone="no"?>
<!DOCTYPE svg PUBLIC "-//W3C//DTD SVG 1.1//EN" "http://www.w3.org/Graphics/SVG/1.1/DTD/svg11.dtd" >
<svg xmlns="http://www.w3.org/2000/svg" xmlns:xlink="http://www.w3.org/1999/xlink" version="1.1" width="2048" height="2048" viewBox="-10 0 2064 2048">
   <path fill="currentColor"
d="M424 1850q0 92 -62.5 145t-155.5 53q-56 0 -108 -19.5t-89 -56.5l65 -101q24 23 57 37t64 14q34 0 58.5 -16.5t24.5 -48.5q0 -72 -121 -64l-29 -65q10 -13 30 -39.5t32 -42.5t31 -37t36 -37v-1q-19 0 -56 1.5t-56 1.5v60h-121v-175h381v102l-108 131q58 14 92.5 56.5
t34.5 101.5zM427 1130v182h-416q-7 -49 -7 -62q0 -50 19 -92t48 -69t62.5 -52.5t62 -43t48 -39.5t19.5 -45q0 -29 -16 -44t-46 -15q-27 0 -52 19.5t-41 46.5l-97 -68q28 -59 82 -91t121 -32q83 0 141 47t58 129q0 40 -18.5 75t-46.5 58t-60.5 46t-60.5 40t-47 37.5t-20 41.5
h146v-69h121zM2044 1496v220q0 15 -11 26.5t-26 11.5h-1396q-15 0 -26 -11.5t-11 -26.5v-220q0 -16 11 -26.5t26 -10.5h1396q15 0 26 11t11 26zM428 464v114h-385v-114h122q0 -46 0.5 -139t0.5 -140v-14h-2q-6 12 -17 24t-17 18t-23 20l-81 -87l155 -146h122v464h125z
M2044 908v221q0 14 -11 25.5t-26 11.5h-1396q-15 0 -26 -11.5t-11 -25.5v-221q0 -15 11 -26t26 -11h1396q15 0 26 11t11 26zM2044 321v220q0 14 -11 25.5t-26 11.5h-1396q-15 0 -26 -11.5t-11 -25.5v-220q0 -15 11 -26.5t26 -11.5h1396q15 0 26 11.5t11 26.5z" />
</svg>
