<?xml version="1.0" standalone="no"?>
<!DOCTYPE svg PUBLIC "-//W3C//DTD SVG 1.1//EN" "http://www.w3.org/Graphics/SVG/1.1/DTD/svg11.dtd" >
<svg xmlns="http://www.w3.org/2000/svg" xmlns:xlink="http://www.w3.org/1999/xlink" version="1.1" width="2048" height="2048" viewBox="-10 0 2068 2048">
   <path fill="currentColor"
d="M1295 268v217h-1295v-217h1295zM1295 698v217h-1295v-217h1295zM0 1345v-212h865v212h-865zM1512 268h536v217h-324v971q0 132 -93.5 228t-227.5 96t-230 -96t-96 -230t96 -227.5t228 -93.5q55 0 111 20v-885zM1401 1345q-46 0 -76 33t-30 78.5t30 76t75.5 30.5
t78.5 -30.5t33 -76t-33 -78.5t-78 -33z" />
</svg>
