<?xml version="1.0" standalone="no"?>
<!DOCTYPE svg PUBLIC "-//W3C//DTD SVG 1.1//EN" "http://www.w3.org/Graphics/SVG/1.1/DTD/svg11.dtd" >
<svg xmlns="http://www.w3.org/2000/svg" xmlns:xlink="http://www.w3.org/1999/xlink" version="1.1" width="2048" height="2048" viewBox="-10 0 2058 2048">
   <path fill="currentColor"
d="M1019 0q87 0 147 60t60 144t-60 144.5t-146.5 60.5t-147 -60.5t-60.5 -144.5t60.5 -144t146.5 -60zM1058 1312q235 0 437 24q5 -211 -12 -379.5t-55 -240.5q-15 -38 -48 -72l-827 712q269 -44 505 -44zM553 1538q24 294 82 510h216q-43 -120 -67 -308l67 -9
q91 -10 178 -10q120 0 226 19q-24 188 -68 308h217q62 -221 82 -534q-212 -24 -428 -24q-255 0 -505 48zM1019 510q-43 4 -82 9q-100 15 -177 53q-106 53 -149 144q-53 106 -68 404l673 -572q-101 -38 -197 -38zM1692 375l-115 -135l-361 308q101 34 164 96zM1909 1418
q-154 -53 -414 -82q0 77 -9 178q206 29 360 72h5zM543 1120l-404 351l92 149q14 -5 86 -29q111 -33 236 -53q-15 -221 -10 -418z" />
</svg>
