<?xml version="1.0" standalone="no"?>
<!DOCTYPE svg PUBLIC "-//W3C//DTD SVG 1.1//EN" "http://www.w3.org/Graphics/SVG/1.1/DTD/svg11.dtd" >
<svg xmlns="http://www.w3.org/2000/svg" xmlns:xlink="http://www.w3.org/1999/xlink" version="1.1" width="2048" height="2048" viewBox="-10 0 2068 2048">
   <path fill="currentColor"
d="M1846 663q0 106 -77 183t-183 77q-81 0 -146 -48t-94 -120q-72 62 -168 62q-87 0 -154 -48q-67 48 -154 48q-96 0 -168 -62q-29 72 -94 120t-146 48q-106 0 -183 -77t-77 -183q0 -91 62.5 -163t153.5 -87q-9 -28 -9 -57q0 -63 45.5 -108.5t107.5 -45.5q29 0 58 14
q15 -53 55.5 -84t93.5 -31q39 0 68 19q24 -53 74.5 -86.5t112.5 -33.5t112.5 33.5t74.5 86.5q29 -19 68 -19q53 0 93.5 31t55.5 84q29 -14 58 -14q62 0 107.5 45.5t45.5 108.5q0 29 -9 57q91 15 153.5 87t62.5 163zM817 1024q-43 0 -72 29t-29 72t29 74.5t72.5 31.5
t74.5 -31.5t31 -74.5t-31 -72t-75 -29zM1231 1024q-44 0 -75 29t-31 72t31 74.5t74.5 31.5t72.5 -31.5t29 -74.5t-29 -72t-72 -29zM1870 885q-53 67 -125 103t-159 36q-62 0 -129 -29q0 231 -39 409q-48 221 -144 332q-77 91 -197 105v-202h-106v202q-120 -14 -197 -105
q-101 -111 -144 -332q-39 -178 -39 -409q-67 29 -129 29q-87 0 -159 -36t-125 -103q-91 91 -178 139l34 53q43 62 101 101q81 53 173 53q43 0 86 -10q34 356 159 563q163 264 471 264t471 -264q125 -207 159 -563q43 10 86 10q92 0 173 -53q58 -39 101 -101l34 -53l-53 -34
q-72 -48 -125 -105z" />
</svg>
