<?xml version="1.0" standalone="no"?>
<!DOCTYPE svg PUBLIC "-//W3C//DTD SVG 1.1//EN" "http://www.w3.org/Graphics/SVG/1.1/DTD/svg11.dtd" >
<svg xmlns="http://www.w3.org/2000/svg" xmlns:xlink="http://www.w3.org/1999/xlink" version="1.1" width="2048" height="2048" viewBox="-10 0 2068 2048">
   <path fill="currentColor"
d="M2048 1362v360q0 48 -41 84t-93 36h-561q-48 0 -86.5 -38.5t-38.5 -91.5v-359q0 -48 38.5 -86.5t86.5 -38.5v-254q0 -106 86 -180.5t196.5 -74.5t199 74.5t88.5 180.5v52h-134v-52q0 -58 -43 -96.5t-108 -38.5t-110.5 38.5t-45.5 96.5v254h441q48 0 86.5 40.5t38.5 93.5z
M0 921v-202h1228v202h-1228zM0 206h1842v206h-1842v-206zM0 1434v-206h614v206h-614z" />
</svg>
