<?xml version="1.0" standalone="no"?>
<!DOCTYPE svg PUBLIC "-//W3C//DTD SVG 1.1//EN" "http://www.w3.org/Graphics/SVG/1.1/DTD/svg11.dtd" >
<svg xmlns="http://www.w3.org/2000/svg" xmlns:xlink="http://www.w3.org/1999/xlink" version="1.1" width="2048" height="2048" viewBox="-10 0 2068 2048">
   <path fill="currentColor"
d="M2011 1024q16 0 26.5 10.5t10.5 25.5v74q0 15 -10.5 25.5t-26.5 10.5h-1974q-16 0 -26.5 -10.5t-10.5 -25.5v-74q0 -15 10.5 -25.5t26.5 -10.5h1974zM552 950q-30 -37 -58 -90q-55 -110 -55 -216q0 -207 153 -352q152 -146 449 -146q57 0 191 22q74 14 202 54
q12 44 24 136q16 143 16 208q0 22 -5 52l-14 4l-96 -8l-16 -2q-58 -170 -118 -234q-100 -104 -240 -104q-132 0 -208 67.5t-76 166.5q0 84 75 160q76 78 319 148q78 23 198 76q66 30 108 58h-849zM1131 1244h470q8 42 8 104q0 126 -47 242q-26 64 -81 120q-46 44 -124 92
q-91 55 -175 76q-91 24 -232 24q-131 0 -223 -26l-160 -46q-66 -20 -82 -32q-10 -10 -10 -26v-14q0 -2 0.5 -11.5t0.5 -24v-35t-1 -49t-2 -58.5q-1 -35 0.5 -77.5l1.5 -42.5v-50l117 -4q17 40 34 82t25.5 63.5t14.5 30.5q39 65 92 108q51 42 120 66q68 24 151 24
q74 0 158 -30q89 -30 140 -98q54 -71 54 -148q0 -96 -93 -180q-37 -32 -157 -80z" />
</svg>
