<?xml version="1.0" standalone="no"?>
<!DOCTYPE svg PUBLIC "-//W3C//DTD SVG 1.1//EN" "http://www.w3.org/Graphics/SVG/1.1/DTD/svg11.dtd" >
<svg xmlns="http://www.w3.org/2000/svg" xmlns:xlink="http://www.w3.org/1999/xlink" version="1.1" width="2048" height="2048" viewBox="-10 0 2058 2048">
   <path fill="currentColor"
d="M1861 932q0 253 -109 488.5t-301 401t-427 226.5q-235 -61 -427 -226.5t-301 -401t-109 -488.5v-557l837 -375l837 375v557zM1024 1861q170 -48 320.5 -187.5t239.5 -331.5t89 -392v-458l-649 -287l-649 287v458q0 200 89 392t239.5 331.5t320.5 187.5zM1285 932v-139
q0 -96 -80.5 -165.5t-180.5 -69.5t-180.5 69.5t-80.5 165.5v139q-40 0 -74.5 35t-34.5 74v327q0 48 32.5 85t76.5 37h514q48 0 82.5 -34.5t34.5 -78.5v-327q0 -48 -32.5 -83t-76.5 -35zM1163 932h-278v-139q0 -57 41 -89.5t98 -32.5t98 32.5t41 89.5v139z" />
</svg>
