<?xml version="1.0" standalone="no"?>
<!DOCTYPE svg PUBLIC "-//W3C//DTD SVG 1.1//EN" "http://www.w3.org/Graphics/SVG/1.1/DTD/svg11.dtd" >
<svg xmlns="http://www.w3.org/2000/svg" xmlns:xlink="http://www.w3.org/1999/xlink" version="1.1" width="2048" height="2048" viewBox="-10 0 2058 2048">
   <path fill="currentColor"
d="M409 0h1230q87 0 147 60t60 142v1644q0 82 -60 142t-147 60h-1230q-87 0 -147 -60t-60 -142v-1644q0 -82 60 -142t147 -60zM1101 1178q187 0 288 -120q68 -77 92 -197q67 -24 112.5 -84.5t45.5 -137.5q0 -96 -67 -163t-163.5 -67t-163.5 67t-67 163q0 73 38.5 130.5
t105.5 81.5q-24 72 -82 115q-81 58 -216 58q-192 0 -308 87v-409q68 -24 111 -84t43 -132q0 -97 -67 -164t-163.5 -67t-163.5 67t-67 164q0 72 43 132t110 84v644q-67 24 -110 84t-43 132q0 97 67 164t163.5 67t163.5 -67t67 -164q0 -72 -38.5 -129.5t-100.5 -81.5
q29 -72 96 -115q101 -58 274 -58zM639 1486q34 0 55.5 21.5t21.5 55t-21.5 55t-55 21.5t-55.5 -21.5t-22 -55t22 -55t55 -21.5zM639 409q34 0 55.5 21.5t21.5 55t-21.5 55t-55 21.5t-55.5 -21.5t-22 -55t22 -55t55 -21.5zM1409 562q33 0 55 22t22 55.5t-22 55t-55.5 21.5
t-55 -21.5t-21.5 -55t21.5 -55.5t55.5 -22z" />
</svg>
