<?xml version="1.0" standalone="no"?>
<!DOCTYPE svg PUBLIC "-//W3C//DTD SVG 1.1//EN" "http://www.w3.org/Graphics/SVG/1.1/DTD/svg11.dtd" >
<svg xmlns="http://www.w3.org/2000/svg" xmlns:xlink="http://www.w3.org/1999/xlink" version="1.1" width="2048" height="2048" viewBox="-10 0 2068 2048">
   <path fill="currentColor"
d="M1923 1228v-154q0 -105 -88.5 -179.5t-199 -74.5t-196.5 74.5t-86 179.5v154q-48 0 -86.5 38.5t-38.5 86.5v359q0 53 38.5 91.5t86.5 38.5h561q52 0 93 -36t41 -84v-360q0 -53 -38.5 -93.5t-86.5 -40.5zM1789 1228h-307v-154q0 -57 45.5 -93t110.5 -36t108 36t43 93v154z
M0 921v-202h1228v202h-1228zM0 206h1842v206h-1842v-206zM0 1434v-206h614v206h-614z" />
</svg>
