<?xml version="1.0" standalone="no"?>
<!DOCTYPE svg PUBLIC "-//W3C//DTD SVG 1.1//EN" "http://www.w3.org/Graphics/SVG/1.1/DTD/svg11.dtd" >
<svg xmlns="http://www.w3.org/2000/svg" xmlns:xlink="http://www.w3.org/1999/xlink" version="1.1" width="2048" height="2048" viewBox="-10 0 2068 2048">
   <path fill="currentColor"
d="M663 437q73 -43 154 -67v-134q0 -82 60 -142t147 -60t147 60t60 142v134q86 24 154 67l-164 217h-394zM1740 1058q0 72 -14 144l-260 -82l-120 -375l164 -216q67 62 115 139q130 -9 231 39q77 43 129.5 115t62.5 164l-308 33v39zM308 1058v-34l-308 -38q10 -92 62.5 -164
t129.5 -115q111 -53 226 -34q53 -82 116 -139l168 211l-120 375l-260 82q-14 -72 -14 -144zM841 808h366l110 346l-293 211l-293 -211zM625 1269l322 231v269q-86 -5 -168 -38l-125 283q-82 -33 -137 -105.5t-70 -158.5q-24 -115 34 -226q-72 -82 -116 -178zM1423 1269
l260 77q-44 96 -116 178q58 111 34 226q-15 86 -70 158.5t-137 105.5l-125 -283q-101 38 -168 43v-274z" />
</svg>
