<?xml version="1.0" standalone="no"?>
<!DOCTYPE svg PUBLIC "-//W3C//DTD SVG 1.1//EN" "http://www.w3.org/Graphics/SVG/1.1/DTD/svg11.dtd" >
<svg xmlns="http://www.w3.org/2000/svg" xmlns:xlink="http://www.w3.org/1999/xlink" version="1.1" width="2048" height="2048" viewBox="-10 0 2068 2048">
   <path fill="currentColor"
d="M1385 779q-15 -217 -104 -418.5t-252 -360.5q-159 159 -252.5 360.5t-113.5 418.5q202 110 361 274q159 -164 361 -274zM1024 1380q-168 -260 -440 -411.5t-584 -151.5q0 462 250 774q183 231 476 361q168 77 298 96q135 -24 298 -96q293 -130 476 -361
q250 -312 250 -774q-312 0 -584 151.5t-440 411.5z" />
</svg>
