<?xml version="1.0" standalone="no"?>
<!DOCTYPE svg PUBLIC "-//W3C//DTD SVG 1.1//EN" "http://www.w3.org/Graphics/SVG/1.1/DTD/svg11.dtd" >
<svg xmlns="http://www.w3.org/2000/svg" xmlns:xlink="http://www.w3.org/1999/xlink" version="1.1" width="2048" height="2048" viewBox="-10 0 2068 2048">
   <path fill="currentColor"
d="M187 279h1303v375h279l279 370v466h-187q0 114 -81 196.5t-198.5 82.5t-198 -82.5t-80.5 -196.5h-558q0 114 -80.5 196.5t-198 82.5t-198.5 -82.5t-81 -196.5h-187v-1024q0 -78 54.5 -132.5t132.5 -54.5zM1490 793v231h414l-183 -231h-231zM466 1351q-56 0 -97.5 39
t-41.5 98t41.5 100.5t98 41.5t98 -41.5t41.5 -100.5t-41.5 -98t-98.5 -39zM1582 1351q-57 0 -98.5 39t-41.5 98t41.5 100.5t98 41.5t98 -41.5t41.5 -100.5t-41.5 -98t-97.5 -39zM654 1211l557 -557l-130 -135l-427 427l-196 -192l-131 131z" />
</svg>
