<?xml version="1.0" standalone="no"?>
<!DOCTYPE svg PUBLIC "-//W3C//DTD SVG 1.1//EN" "http://www.w3.org/Graphics/SVG/1.1/DTD/svg11.dtd" >
<svg xmlns="http://www.w3.org/2000/svg" xmlns:xlink="http://www.w3.org/1999/xlink" version="1.1" width="2048" height="2048" viewBox="-10 0 2068 2048">
   <path fill="currentColor"
d="M1385 779q-202 110 -361 274q-159 -164 -361 -274q20 -217 113.5 -418.5t252.5 -360.5q163 159 252 360.5t104 418.5zM1024 1380q168 -260 440 -411.5t584 -151.5q0 462 -250 774q-183 231 -476 361q-163 72 -298 96q-130 -19 -298 -96q-293 -130 -476 -361
q-250 -312 -250 -774q312 0 584 151.5t440 411.5zM1029 327q-101 159 -140 346l135 101l139 -101q-38 -187 -134 -346zM1024 1841q34 -9 67 -14q82 -24 159 -63q115 -57 211 -134q121 -101 207 -231q101 -154 149 -351q-259 82 -466 264q-149 130 -250 299q-53 81 -77 139
l-58 -96q-72 -120 -158 -226q-121 -144 -250 -236q-159 -115 -327 -139q77 303 283 509q149 149 342 226q101 44 168 53z" />
</svg>
