<?xml version="1.0" standalone="no"?>
<!DOCTYPE svg PUBLIC "-//W3C//DTD SVG 1.1//EN" "http://www.w3.org/Graphics/SVG/1.1/DTD/svg11.dtd" >
<svg xmlns="http://www.w3.org/2000/svg" xmlns:xlink="http://www.w3.org/1999/xlink" version="1.1" width="2048" height="2048" viewBox="-10 0 2068 2048">
   <path fill="currentColor"
d="M202 308q-82 0 -142 60t-60 142v1028q0 82 60 142t142 60h1644q82 0 142 -60t60 -142v-1028q0 -82 -60 -142t-142 -60h-1644zM202 510h1231v1028h-1231v-1028zM1740 510q44 0 75 31t31 74.5t-31 72t-74.5 28.5t-72.5 -28.5t-29 -72t29 -74.5t72 -31zM409 716v207h822
v-207h-822zM1740 923q44 0 75 29t31 72t-31 72t-74.5 29t-72.5 -29t-29 -72t29 -72t72 -29z" />
</svg>
