<?xml version="1.0" standalone="no"?>
<!DOCTYPE svg PUBLIC "-//W3C//DTD SVG 1.1//EN" "http://www.w3.org/Graphics/SVG/1.1/DTD/svg11.dtd" >
<svg xmlns="http://www.w3.org/2000/svg" xmlns:xlink="http://www.w3.org/1999/xlink" version="1.1" width="2048" height="2048" viewBox="-10 0 2068 2048">
   <path fill="currentColor"
d="M64 126q-50 -2 -60 -5l-4 -117q18 -2 54 -2q62 0 149 6q167 10 221 10q77 0 224 -5q157 -5 195 -6q56 0 115 -3l-2 18l3 85v13q-76 12 -165 12q-79 0 -105 34q-18 19 -18 175q0 17 0.5 43t0.5 35l1 305l19 373q9 165 68 269q45 79 128 123q118 63 236 63q142 0 255 -37
q77 -25 132 -68q63 -47 87 -85q50 -77 71 -153q28 -98 28 -305q0 -105 -4.5 -171t-15 -163.5t-18.5 -212.5l-5 -78q-6 -90 -32 -118q-45 -47 -103 -45l-134 3l-19 -5l4 -114h112l273 13q108 4 261 -13l25 2q7 41 7 68q0 9 -5 42q-62 16 -112 18q-97 14 -105 22
q-21 21 -21 55q0 8 2 33.5t3 43.5q10 25 29 528q9 254 -20 405q-18 99 -55 164q-52 87 -149 163q-102 77 -243 119q-147 44 -339 44q-220 0 -380 -62q-157 -61 -239 -162q-79 -98 -109 -260q-23 -107 -23 -316v-445q0 -253 -22 -283q-34 -50 -196 -53zM2048 2006v-85
q0 -19 -12 -31t-30 -12h-1963q-18 0 -30.5 12t-12.5 31v85q0 18 12.5 30t30.5 12h1963q18 0 30 -12t12 -30z" />
</svg>
