<?xml version="1.0" standalone="no"?>
<!DOCTYPE svg PUBLIC "-//W3C//DTD SVG 1.1//EN" "http://www.w3.org/Graphics/SVG/1.1/DTD/svg11.dtd" >
<svg xmlns="http://www.w3.org/2000/svg" xmlns:xlink="http://www.w3.org/1999/xlink" version="1.1" width="2048" height="2048" viewBox="-10 0 2068 2048">
   <path fill="currentColor"
d="M865 159q177 0 303.5 126.5t126.5 306t-126.5 306t-306 126.5t-306 -126.5t-126.5 -306t126.5 -306t308.5 -126.5zM865 377q-91 0 -154.5 63t-63.5 151.5t63.5 152t152 63.5t151.5 -63.5t63 -152t-63 -151.5t-149 -63zM865 1130q207 0 440 76q-96 61 -162 167
q-147 -35 -278 -35q-152 0 -314 40q-141 40 -242.5 96t-101.5 91v116h875q15 112 81 208h-1163v-324q0 -136 162 -243q131 -86 349 -141q192 -51 354 -51zM1674 807h162h212v217h-212v592q0 111 -81 192t-192.5 81t-189.5 -81t-78 -192.5t78 -189.5t190 -78q60 0 111 20
v-561z" />
</svg>
