<?xml version="1.0" standalone="no"?>
<!DOCTYPE svg PUBLIC "-//W3C//DTD SVG 1.1//EN" "http://www.w3.org/Graphics/SVG/1.1/DTD/svg11.dtd" >
<svg xmlns="http://www.w3.org/2000/svg" xmlns:xlink="http://www.w3.org/1999/xlink" version="1.1" width="2048" height="2048" viewBox="-10 0 2068 2048">
   <path fill="currentColor"
d="M0 1450l176 -426l-176 -426l426 -172l172 -426l426 176l426 -176l172 426l426 172l-176 426l176 426l-426 172l-172 426l-426 -176l-426 176l-172 -426zM274 710l128 314l-128 314l309 127l127 309l314 -128l314 128l127 -309l309 -127l-128 -314l128 -314l-309 -127
l-127 -309l-314 128l-314 -128l-127 309zM921 1338h206v210h-206v-210zM921 500h206v627h-206v-627z" />
</svg>
