<?xml version="1.0" standalone="no"?>
<!DOCTYPE svg PUBLIC "-//W3C//DTD SVG 1.1//EN" "http://www.w3.org/Graphics/SVG/1.1/DTD/svg11.dtd" >
<svg xmlns="http://www.w3.org/2000/svg" xmlns:xlink="http://www.w3.org/1999/xlink" version="1.1" width="2048" height="2048" viewBox="-10 0 2068 2048">
   <path fill="currentColor"
d="M2048 510l-48 -48h-5q-159 153 -235 216q-125 106 -231 159q-92 48 -183 62q-58 14 -183 19l-38 5l5 -38q5 -125 19 -183q14 -91 62 -183q53 -106 159 -231q63 -76 216 -235v-5l-48 -48q-259 187 -514 187t-514 -187l-48 48v5q153 159 216 235q106 125 159 231
q48 92 62 183q14 58 19 183l5 38l-38 -5q-125 -5 -183 -19q-91 -14 -183 -62q-106 -53 -235 -159q-77 -67 -236 -216l-48 48q187 259 187 514t-187 514l48 48h5q159 -153 235 -216q125 -106 231 -159q92 -48 183 -62q58 -14 183 -19l38 -5l-5 38q-5 125 -19 183
q-14 91 -62 183q-53 106 -159 231q-63 76 -216 235v5l48 48q259 -187 514 -187t514 187l48 -48v-5q-153 -159 -216 -235q-106 -125 -159 -231q-48 -92 -62 -183q-14 -58 -19 -183l-5 -38l38 5q125 5 183 19q91 14 183 62q106 53 231 159q76 63 235 216h5l48 -48
q-187 -259 -187 -514t187 -514z" />
</svg>
