<?xml version="1.0" standalone="no"?>
<!DOCTYPE svg PUBLIC "-//W3C//DTD SVG 1.1//EN" "http://www.w3.org/Graphics/SVG/1.1/DTD/svg11.dtd" >
<svg xmlns="http://www.w3.org/2000/svg" xmlns:xlink="http://www.w3.org/1999/xlink" version="1.1" width="2048" height="2048" viewBox="-10 0 2058 2048">
   <path fill="currentColor"
d="M1861 558q-40 0 -66 -22q-17 -17 -26 -44v-26v-91h-187v183h-188v-92q0 -96 -43 -191q-61 -118 -170 -188q-140 -87 -342.5 -87t-341.5 87q-114 70 -170 188q-48 95 -48 191v1207q0 61 -26 105q-44 83 -157 83v187q126 0 218 -65q74 -53 117 -144q35 -83 35 -166v-1207
q0 -35 13 -78q31 -79 101 -131q95 -70 256.5 -70t257.5 66q69 48 100 130q17 44 17 83v92h-187v-183h-187v91v26q-9 27 -27 44q-26 22 -65 22q-57 0 -83 48q-8 21 -8 48v1115l4 26q17 35 52 66q53 39 140 65q109 26 266 26h374q157 0 266 -26q87 -26 139 -65q35 -31 53 -66
l4 -26v-1115v-27q-9 -26 -26 -43q-26 -26 -65 -26zM1303 1712q-118 0 -198.5 -82.5t-80.5 -195.5q0 -83 74 -214q48 -91 131 -200l74 -88l74 88q83 109 131 200q74 131 74 214q0 113 -80.5 195.5t-198.5 82.5z" />
</svg>
