<?xml version="1.0" standalone="no"?>
<!DOCTYPE svg PUBLIC "-//W3C//DTD SVG 1.1//EN" "http://www.w3.org/Graphics/SVG/1.1/DTD/svg11.dtd" >
<svg xmlns="http://www.w3.org/2000/svg" xmlns:xlink="http://www.w3.org/1999/xlink" version="1.1" width="2048" height="2048" viewBox="-10 0 2068 2048">
   <path fill="currentColor"
d="M1024 0q279 0 514.5 103.5t372.5 279t137 386.5q0 255 -202 462v817h-1644v-817q-202 -207 -202 -462q0 -211 137 -386.5t372.5 -279t514.5 -103.5zM1639 1139q97 -77 152 -170.5t55 -199.5q0 -154 -110.5 -283.5t-300.5 -206.5t-411 -77t-411 77t-300.5 206.5
t-110.5 283.5q0 106 55 199.5t152 170.5v707h1230v-707zM615 1639v-408h409v408h-409z" />
</svg>
