<?xml version="1.0" standalone="no"?>
<!DOCTYPE svg PUBLIC "-//W3C//DTD SVG 1.1//EN" "http://www.w3.org/Graphics/SVG/1.1/DTD/svg11.dtd" >
<svg xmlns="http://www.w3.org/2000/svg" xmlns:xlink="http://www.w3.org/1999/xlink" version="1.1" width="2048" height="2048" viewBox="-10 0 2068 2048">
   <path fill="currentColor"
d="M0 0v229q96 0 162.5 67t66.5 157v1366q0 96 67 162.5t157 66.5h1142q90 0 157 -66.5t67 -162.5v-1366q0 -90 66.5 -157t162.5 -67v-229h-2048zM453 683h342v112h-342v-112zM453 912h342v112h-342v-112zM795 1477h-342v-112h342v112zM1024 1253h-571v-117h571v117z
M1024 571h-571v-118h571v118z" />
</svg>
