<?xml version="1.0" standalone="no"?>
<!DOCTYPE svg PUBLIC "-//W3C//DTD SVG 1.1//EN" "http://www.w3.org/Graphics/SVG/1.1/DTD/svg11.dtd" >
<svg xmlns="http://www.w3.org/2000/svg" xmlns:xlink="http://www.w3.org/1999/xlink" version="1.1" width="2048" height="2048" viewBox="-10 0 2068 2048">
   <path fill="currentColor"
d="M630 1693v-236q0 -17 -11 -28t-28 -11h-394q-17 0 -28.5 11t-11.5 28v236q0 17 11.5 28.5t28.5 11.5h394q17 0 28 -11.5t11 -28.5zM630 1221v-236q0 -17 -11 -28.5t-28 -11.5h-394q-17 0 -28.5 11.5t-11.5 28.5v236q0 16 11.5 27.5t28.5 11.5h394q17 0 28 -11t11 -28z
M1260 1693v-236q0 -17 -11 -28t-28 -11h-394q-17 0 -28.5 11t-11.5 28v236q0 17 11.5 28.5t28.5 11.5h394q17 0 28 -11.5t11 -28.5zM630 748v-236q0 -17 -11 -28.5t-28 -11.5h-394q-17 0 -28.5 11.5t-11.5 28.5v236q0 17 11.5 28.5t28.5 11.5h394q17 0 28 -11.5t11 -28.5z
M1260 1221v-236q0 -17 -11 -28.5t-28 -11.5h-394q-17 0 -28.5 11.5t-11.5 28.5v236q0 16 11.5 27.5t28.5 11.5h394q17 0 28 -11t11 -28zM1890 1693v-236q0 -17 -11 -28t-28 -11h-394q-17 0 -28 11t-11 28v236q0 17 11 28.5t28 11.5h394q17 0 28 -11.5t11 -28.5zM1260 748
v-236q0 -17 -11 -28.5t-28 -11.5h-394q-17 0 -28.5 11.5t-11.5 28.5v236q0 17 11.5 28.5t28.5 11.5h394q17 0 28 -11.5t11 -28.5zM1890 1221v-236q0 -17 -11 -28.5t-28 -11.5h-394q-17 0 -28 11.5t-11 28.5v236q0 17 11 28t28 11h394q17 0 28 -11t11 -28zM1890 748v-236
q0 -17 -11 -28.5t-28 -11.5h-394q-17 0 -28 11.5t-11 28.5v236q0 17 11 28.5t28 11.5h394q17 0 28 -11.5t11 -28.5zM2048 355v1338q0 82 -57.5 139.5t-139.5 57.5h-1654q-82 0 -139.5 -57.5t-57.5 -139.5v-1338q0 -82 57.5 -139.5t139.5 -57.5h1654q82 0 139.5 57.5
t57.5 139.5z" />
</svg>
