<?xml version="1.0" standalone="no"?>
<!DOCTYPE svg PUBLIC "-//W3C//DTD SVG 1.1//EN" "http://www.w3.org/Graphics/SVG/1.1/DTD/svg11.dtd" >
<svg xmlns="http://www.w3.org/2000/svg" xmlns:xlink="http://www.w3.org/1999/xlink" version="1.1" width="2048" height="2048" viewBox="-10 0 2058 2048">
   <path fill="currentColor"
d="M1585 921v153q173 0 293 120t120 288q0 125 -72 225l-111 -110q29 -53 29 -115q0 -105 -76.5 -179.5t-182.5 -74.5v153l-230 -230zM1585 2048v-153q-168 0 -288 -120t-120 -293q0 -120 68 -225l115 110q-29 57 -29 115q0 106 74.5 182.5t179.5 76.5v-153l230 230zM871 0
q220 0 409.5 55t300 148.5t110.5 206.5t-110.5 206.5t-300 148.5t-410 55t-410 -55t-300 -148.5t-110.5 -206.5t110.5 -206.5t300 -148.5t410.5 -55zM50 614q0 110 110.5 203.5t300 149t410.5 55.5q167 0 321 -29q-154 134 -202 331l-119 5q-221 0 -410.5 -55.5t-300 -149
t-110.5 -203.5v-307zM1691 614v206h-115q115 -96 115 -206zM50 1127q0 110 110.5 203.5t300 149t410.5 55.5l100 -5q15 158 101 297l-201 15q-221 0 -410.5 -55.5t-300 -149t-110.5 -203.5v-307z" />
</svg>
