<?xml version="1.0" standalone="no"?>
<!DOCTYPE svg PUBLIC "-//W3C//DTD SVG 1.1//EN" "http://www.w3.org/Graphics/SVG/1.1/DTD/svg11.dtd" >
<svg xmlns="http://www.w3.org/2000/svg" xmlns:xlink="http://www.w3.org/1999/xlink" version="1.1" width="2048" height="2048" viewBox="-10 0 2068 2048">
   <path fill="currentColor"
d="M1455 727l366 -366l-133 -135l-367 367zM2014 361q0 33 -23 55l-1608 1610q-22 21 -57 21q-34 0 -56 -21l-248 -248q-22 -22 -22 -57q0 -34 22 -56l1609 -1609q23 -23 57 -23q33 0 56 23l247 248q23 23 23 57zM324 123l123 37l-123 38l-37 122l-39 -122l-122 -38l122 -37
l39 -122zM762 326l245 74l-245 76l-76 245l-74 -245l-245 -76l245 -74l74 -246zM1925 923l123 38l-123 38l-38 122l-37 -122l-123 -38l123 -38l37 -122zM1124 123l123 37l-123 38l-37 122l-37 -122l-123 -38l123 -37l37 -122z" />
</svg>
