<?xml version="1.0" standalone="no"?>
<!DOCTYPE svg PUBLIC "-//W3C//DTD SVG 1.1//EN" "http://www.w3.org/Graphics/SVG/1.1/DTD/svg11.dtd" >
<svg xmlns="http://www.w3.org/2000/svg" xmlns:xlink="http://www.w3.org/1999/xlink" version="1.1" width="2048" height="2048" viewBox="-10 0 2068 2048">
   <path fill="currentColor"
d="M229 0q-96 0 -162.5 66.5t-66.5 162.5v1590q0 96 66.5 162.5t162.5 66.5h1590q96 0 162.5 -66.5t66.5 -162.5v-1590q0 -96 -66.5 -162.5t-162.5 -66.5h-1590zM389 400h1270q69 0 114.5 45.5t45.5 114.5v928q0 69 -45.5 114.5t-114.5 45.5h-1270q-69 0 -114.5 -45.5
t-45.5 -114.5v-928q0 -69 45.5 -114.5t114.5 -45.5zM341 571v224l683 458l683 -458v-224l-683 453z" />
</svg>
