<?xml version="1.0" standalone="no"?>
<!DOCTYPE svg PUBLIC "-//W3C//DTD SVG 1.1//EN" "http://www.w3.org/Graphics/SVG/1.1/DTD/svg11.dtd" >
<svg xmlns="http://www.w3.org/2000/svg" xmlns:xlink="http://www.w3.org/1999/xlink" version="1.1" width="2048" height="2048" viewBox="-10 0 2068 2048">
   <path fill="currentColor"
d="M1267 1422l155 -160l233 238l238 -233l155 155l-238 233l238 233l-155 160l-238 -238l-233 233l-155 -155l233 -233zM884 0q238 0 442.5 59.5t323.5 160.5t119 222.5t-119 222t-323.5 160t-442.5 59.5t-442 -59.5t-323 -160t-119 -222t119 -222.5t323 -160.5t442 -59.5z
M0 662q0 119 119 220t323 160.5t442 59.5t442.5 -59.5t323.5 -160.5t119 -220v341l-114 -10q-212 0 -380 121.5t-241 312.5l-150 6q-238 0 -442 -59.5t-323 -160.5t-119 -220v-331zM0 1215q0 119 119 220t323 160.5t442 59.5h109q0 171 83 321l-192 10q-238 0 -442 -59.5
t-323 -160.5t-119 -220v-331z" />
</svg>
