<?xml version="1.0" standalone="no"?>
<!DOCTYPE svg PUBLIC "-//W3C//DTD SVG 1.1//EN" "http://www.w3.org/Graphics/SVG/1.1/DTD/svg11.dtd" >
<svg xmlns="http://www.w3.org/2000/svg" xmlns:xlink="http://www.w3.org/1999/xlink" version="1.1" width="2048" height="2048" viewBox="-10 0 2068 2048">
   <path fill="currentColor"
d="M777 96l197 197h781q78 0 135 57t57 139v338q-114 -45 -242 -45q-174 0 -318 84.5t-230.5 230.5t-86.5 316q0 128 50 246h-928q-78 0 -135 -57t-57 -139v-1170q0 -83 57 -140t135 -57h585zM1655 878v146q164 0 278.5 114.5t114.5 274.5q0 118 -69 214l-105 -105
q28 -50 28 -109q0 -101 -73.5 -172t-173.5 -71v147l-220 -220zM1655 1952v-146q-160 0 -274.5 -114.5t-114.5 -278.5q0 -115 64 -215l110 105q-27 55 -27 110q0 100 70.5 173t171.5 73v-146l219 220z" />
</svg>
