<?xml version="1.0" standalone="no"?>
<!DOCTYPE svg PUBLIC "-//W3C//DTD SVG 1.1//EN" "http://www.w3.org/Graphics/SVG/1.1/DTD/svg11.dtd" >
<svg xmlns="http://www.w3.org/2000/svg" xmlns:xlink="http://www.w3.org/1999/xlink" version="1.1" width="2048" height="2048" viewBox="-10 0 2068 2048">
   <path fill="currentColor"
d="M1846 1639h-1644v-1024h1644v1024zM1846 409h-822l-207 -207h-615q-82 0 -142 60t-60 147v1230q0 87 60 147t142 60h1644q82 0 142 -60t60 -147v-1024q0 -86 -60 -146t-142 -60zM1740 1024v-101h-154l53 -207h-101l-52 207h-207l53 -207h-101l-53 207h-154v101h130
l-53 207h-178v101h154l-53 206h101l53 -206h207l-53 206h101l53 -206h153v-101h-129l52 -207h178zM1409 1231h-207l53 -207h206z" />
</svg>
