<?xml version="1.0" standalone="no"?>
<!DOCTYPE svg PUBLIC "-//W3C//DTD SVG 1.1//EN" "http://www.w3.org/Graphics/SVG/1.1/DTD/svg11.dtd" >
<svg xmlns="http://www.w3.org/2000/svg" xmlns:xlink="http://www.w3.org/1999/xlink" version="1.1" width="2048" height="2048" viewBox="-10 0 2068 2048">
   <path fill="currentColor"
d="M1692 1024q149 0 252.5 -106t103.5 -255q0 -177 -89 -331t-243 -243t-331 -89q-149 0 -255 103.5t-106 252.5q0 -149 -106 -252.5t-255 -103.5q-177 0 -331 89t-243 243t-89 331q0 149 103.5 255t252.5 106q-149 0 -252.5 106t-103.5 255q0 177 89 331t243 243t331 89
q149 0 255 -103.5t106 -252.5q0 149 106 252.5t255 103.5q177 0 331 -89t243 -243t89 -331q0 -149 -103.5 -255t-252.5 -106zM1024 1433q-168 0 -288.5 -120.5t-120.5 -288.5t120.5 -288.5t288.5 -120.5t288.5 120.5t120.5 288.5t-120.5 288.5t-288.5 120.5zM1279 1024
q0 106 -74.5 180.5t-180.5 74.5t-180.5 -74.5t-74.5 -180.5t74.5 -180.5t180.5 -74.5t180.5 74.5t74.5 180.5z" />
</svg>
