<?xml version="1.0" standalone="no"?>
<!DOCTYPE svg PUBLIC "-//W3C//DTD SVG 1.1//EN" "http://www.w3.org/Graphics/SVG/1.1/DTD/svg11.dtd" >
<svg xmlns="http://www.w3.org/2000/svg" xmlns:xlink="http://www.w3.org/1999/xlink" version="1.1" width="2048" height="2048" viewBox="-10 0 2068 2048">
   <path fill="currentColor"
d="M0 1130v-212h1512v212h-1512zM0 1777v-212h1512v212h-1512zM0 483v-212h1512v212h-1512zM1836 594v-323h-112v-112h218v435h-106zM1724 1565v-111h324v435h-324v-112h218v-50h-106v-111h106v-51h-218zM1967 807q35 0 58 25t23 58t-20 53l-182 187h202v111h-324v-101
l218 -222h-218v-111h243z" />
</svg>
