<?xml version="1.0" standalone="no"?>
<!DOCTYPE svg PUBLIC "-//W3C//DTD SVG 1.1//EN" "http://www.w3.org/Graphics/SVG/1.1/DTD/svg11.dtd" >
<svg xmlns="http://www.w3.org/2000/svg" xmlns:xlink="http://www.w3.org/1999/xlink" version="1.1" width="2048" height="2048" viewBox="-11 0 2070 2048">
   <path fill="currentColor"
d="M625 1788q-168 -63 -290.5 -202t-160.5 -322l-168 -797q-20 -86 26 -156t127 -89l1004 -211q87 -20 156.5 26t83.5 127l39 173l447 96q81 20 127 89.5t26 151.5l-168 802q-38 192 -168 331t-310 199t-372 22q-240 -53 -399 -240zM1845 635l-1004 -216l-168 807
q-28 134 15 261.5t144 218.5t235.5 120t264 -14t221 -141.5t119.5 -238.5zM1432 1485q-48 82 -136.5 123t-185 19t-163.5 -94t-77 -168zM664 323l-461 101l173 802q24 106 86 197q-14 -125 10 -245l43 -207q-72 -9 -106 -67q5 -48 41 -86.5t89 -47.5h24l82 -394
q4 -29 19 -53zM1336 1048q24 -43 72 -62t101 -7t89 48t41 84q-24 43 -72 62t-101 7t-89 -48t-41 -84zM837 942q24 -43 69.5 -62t98.5 -7t89 48t45 84q-29 43 -74.5 62.5t-98 7.5t-89 -48t-40.5 -85zM1019 251l202 38l-14 -81z" />
</svg>
