<?xml version="1.0" standalone="no"?>
<!DOCTYPE svg PUBLIC "-//W3C//DTD SVG 1.1//EN" "http://www.w3.org/Graphics/SVG/1.1/DTD/svg11.dtd" >
<svg xmlns="http://www.w3.org/2000/svg" xmlns:xlink="http://www.w3.org/1999/xlink" version="1.1" width="2048" height="2048" viewBox="-10 0 2058 2048">
   <path fill="currentColor"
d="M535 1851h196v197h-196v-197zM928 1851h192v197h-192v-197zM1317 1851h196v197h-196v-197zM1024 0q210 0 390.5 52.5t286 141.5t105.5 196.5t-105.5 197t-286 142t-390.5 52.5t-390.5 -52.5t-286 -142t-105.5 -197t105.5 -196.5t286 -141.5t390.5 -52.5zM242 585
q0 105 105.5 194.5t286 142t390.5 52.5t390.5 -52.5t286 -142t105.5 -194.5v293q0 105 -105.5 194t-286 141.5t-390.5 52.5t-390.5 -52.5t-286 -141.5t-105.5 -194v-293zM242 1074q0 105 105.5 194.5t286 142t390.5 52.5t390.5 -52.5t286 -142t105.5 -194.5v293
q0 82 -71 160t-194 132h-1034q-123 -54 -194 -132t-71 -160v-293z" />
</svg>
