<?xml version="1.0" standalone="no"?>
<!DOCTYPE svg PUBLIC "-//W3C//DTD SVG 1.1//EN" "http://www.w3.org/Graphics/SVG/1.1/DTD/svg11.dtd" >
<svg xmlns="http://www.w3.org/2000/svg" xmlns:xlink="http://www.w3.org/1999/xlink" version="1.1" width="2048" height="2048" viewBox="-10 0 2068 2048">
   <path fill="currentColor"
d="M1819 0h-1590q-96 0 -162.5 66.5t-66.5 162.5v1590q0 96 66.5 162.5t162.5 66.5h1590q96 0 162.5 -66.5t66.5 -162.5v-1590q0 -96 -66.5 -162.5t-162.5 -66.5zM1243 1344l-251 251q-107 112 -267 112t-272 -112t-112 -269.5t112 -269.5l155 -155v64q0 91 27 166l5 16
l-48 48q-53 53 -53 127.5t53 130.5t130.5 56t130.5 -53l251 -251q53 -58 53 -130t-53 -131q-32 -27 -32 -69.5t29.5 -72t72 -29.5t69.5 32q112 112 112 269.5t-112 269.5zM1595 992l-155 155v-64q0 -91 -27 -166l-5 -16l48 -48q53 -53 53 -127.5t-53 -130.5t-130.5 -53.5
t-130.5 50.5l-251 251q-53 58 -53 130t53 131q32 27 32 69.5t-29.5 72t-72 29.5t-69.5 -32q-112 -112 -112 -269.5t112 -269.5l251 -251q112 -112 269.5 -112t269.5 112t112 269.5t-112 269.5z" />
</svg>
