<?xml version="1.0" standalone="no"?>
<!DOCTYPE svg PUBLIC "-//W3C//DTD SVG 1.1//EN" "http://www.w3.org/Graphics/SVG/1.1/DTD/svg11.dtd" >
<svg xmlns="http://www.w3.org/2000/svg" xmlns:xlink="http://www.w3.org/1999/xlink" version="1.1" width="2048" height="2048" viewBox="-10 0 2068 2048">
   <path fill="currentColor"
d="M1819 0h-1590q-96 0 -162.5 66.5t-66.5 162.5v1590q0 96 66.5 162.5t162.5 66.5h1590q96 0 162.5 -66.5t66.5 -162.5v-1590q0 -96 -66.5 -162.5t-162.5 -66.5zM1819 1819h-1590v-1590h1590v1590zM912 1477h-117q-102 0 -198 -42q-112 -48 -181 -144q-75 -112 -75 -267
t75 -267q69 -96 181 -144q96 -42 198 -42h117v224h-117q-75 0 -134 37q-90 59 -90 195t96 194q58 32 128 32h117v224zM1253 1477h-117v-224h117q75 0 134 -37q90 -59 90 -195t-96 -194q-58 -32 -128 -32h-117v-224h117q102 0 198 42q112 48 181 144q75 112 75 267t-75 267
q-69 96 -181 144q-96 42 -198 42zM1365 1136h-682v-224h682v224z" />
</svg>
