<?xml version="1.0" standalone="no"?>
<!DOCTYPE svg PUBLIC "-//W3C//DTD SVG 1.1//EN" "http://www.w3.org/Graphics/SVG/1.1/DTD/svg11.dtd" >
<svg xmlns="http://www.w3.org/2000/svg" xmlns:xlink="http://www.w3.org/1999/xlink" version="1.1" width="2048" height="2048" viewBox="-10 0 2068 2048">
   <path fill="currentColor"
d="M562 286q44 0 63 10l245 418l-380 471q-144 -168 -206 -284q-82 -134 -82 -259q0 -154 103.5 -255t256.5 -101zM562 79q-158 0 -285.5 74.5t-202 204.5t-74.5 284q0 187 111 375q96 168 302 375q140 144 467 432l144 130l-308 -716l409 -514l-365 -616q-97 -29 -198 -29z
M1486 286q153 0 256.5 101t103.5 255q0 187 -187 413q-135 173 -491 491l-33 -236l495 -543l-236 -462q29 -19 92 -19zM1486 79q-97 0 -195.5 36t-175.5 99l270 524l-462 510l101 721l144 -135q332 -303 467 -437q206 -212 302 -375q111 -188 111 -371q0 -158 -74.5 -290.5
t-202 -207t-285.5 -74.5z" />
</svg>
