<?xml version="1.0" standalone="no"?>
<!DOCTYPE svg PUBLIC "-//W3C//DTD SVG 1.1//EN" "http://www.w3.org/Graphics/SVG/1.1/DTD/svg11.dtd" >
<svg xmlns="http://www.w3.org/2000/svg" xmlns:xlink="http://www.w3.org/1999/xlink" version="1.1" width="2048" height="2048" viewBox="-10 0 2058 2048">
   <path fill="currentColor"
d="M1555 672v-246q48 -24 79.5 -67.5t31.5 -96.5v-9q0 -77 -53 -130t-130 -53h-10q-77 0 -132.5 53t-55.5 130v9q0 53 31.5 96.5t84.5 67.5v246q-145 19 -260 115l-674 -525q19 -86 -26.5 -163t-132 -94t-159 24t-94 123t24 161t127.5 103q101 20 164 -19l659 515
q-91 140 -91 303.5t101 298.5l-207 207q-10 0 -24.5 -5t-23.5 -5q-72 0 -122.5 53t-50.5 120.5t50.5 115.5t120 48t122.5 -53t53 -120q0 -29 -10 -53l193 -193q120 87 262 104t272 -36t216.5 -171t103.5 -260t-36 -272t-163.5 -219t-240.5 -103zM1473 1475
q-115 0 -197 -81.5t-82 -197t82 -195t197.5 -79.5t194.5 79.5t79 195t-79 197t-195 81.5z" />
</svg>
