<?xml version="1.0" standalone="no"?>
<!DOCTYPE svg PUBLIC "-//W3C//DTD SVG 1.1//EN" "http://www.w3.org/Graphics/SVG/1.1/DTD/svg11.dtd" >
<svg xmlns="http://www.w3.org/2000/svg" xmlns:xlink="http://www.w3.org/1999/xlink" version="1.1" width="2048" height="2048" viewBox="-10 0 2058 2048">
   <path fill="currentColor"
d="M453 2048h-224v-2048h224v2048zM1819 0h-224v2048h224v-2048zM1136 571h-453v224h453q32 0 64 37q53 59 53 192t-53 192q-32 37 -64 37h-224v-229l-341 341l341 342v-230h224q75 0 144 -37q85 -48 139 -139q58 -112 58 -277t-58 -277q-54 -91 -139 -139q-69 -37 -144 -37
z" />
</svg>
