<?xml version="1.0" standalone="no"?>
<!DOCTYPE svg PUBLIC "-//W3C//DTD SVG 1.1//EN" "http://www.w3.org/Graphics/SVG/1.1/DTD/svg11.dtd" >
<svg xmlns="http://www.w3.org/2000/svg" xmlns:xlink="http://www.w3.org/1999/xlink" version="1.1" width="2048" height="2048" viewBox="-10 0 2068 2048">
   <path fill="currentColor"
d="M682 1555.5q0 -62.5 -44.5 -107.5t-106.5 -45t-106.5 45t-44.5 107.5t44.5 107t106.5 44.5t106.5 -44.5t44.5 -107zM228 949h454v-304h-186q-4 0 -14 4t-12 6l-231 232q-3 2 -7 12t-4 14v36zM1744 1555.5q0 -62.5 -44.5 -107.5t-106.5 -45t-107 45t-45 107.5t45 107
t107 44.5t106.5 -44.5t44.5 -107zM2048 265v1215q0 16 -4.5 28.5t-10.5 20.5t-17.5 13.5t-20.5 8t-25 4t-24.5 1.5t-26 -0.5t-22.5 -0.5q0 126 -89.5 214.5t-214.5 88.5t-214 -88.5t-89 -214.5h-455q0 126 -89.5 214.5t-214.5 88.5t-214 -88.5t-89 -214.5h-77
q-5 0 -22.5 0.5t-26 0.5t-24.5 -1.5t-25 -4t-20.5 -8t-17.5 -13.5t-10.5 -20.5t-4.5 -28.5q0 -31 22.5 -54t53.5 -23v-378q0 -9 -0.5 -42t-0.5 -45.5t3 -40.5t8.5 -44t16.5 -36t27 -36l234 -235q22 -22 60 -37t70 -15h188v-229q0 -31 23 -53t54 -22h1213q31 0 53.5 22
t22.5 53z" />
</svg>
