<?xml version="1.0" standalone="no"?>
<!DOCTYPE svg PUBLIC "-//W3C//DTD SVG 1.1//EN" "http://www.w3.org/Graphics/SVG/1.1/DTD/svg11.dtd" >
<svg xmlns="http://www.w3.org/2000/svg" xmlns:xlink="http://www.w3.org/1999/xlink" version="1.1" width="2048" height="2048" viewBox="-10 0 2068 2048">
   <path fill="currentColor"
d="M1266 974h147v416l278 164l-73 119l-352 -210v-489zM2048 1362q0 188 -93.5 343.5t-249 249t-343.5 93.5q-215 0 -391 -125.5t-249 -322.5l-137 -50l-521 201l-18 4q-19 0 -32.5 -16t-13.5 -34v-1476q0 -32 32 -46l553 -183l585 201l521 -201h14q18 0 34 13.5t16 32.5
v759q133 91 213 239.5t80 317.5zM681 1362q0 -228 137 -408.5t352 -244.5v-311l-585 -206v1161l96 32v-23zM1362 878q-132 0 -244 64t-176 176t-64 244.5t64 244.5t176 178t244.5 66t244.5 -66t178 -178t66 -244.5t-66 -244.5t-178 -176t-245 -64z" />
</svg>
