<?xml version="1.0" standalone="no"?>
<!DOCTYPE svg PUBLIC "-//W3C//DTD SVG 1.1//EN" "http://www.w3.org/Graphics/SVG/1.1/DTD/svg11.dtd" >
<svg xmlns="http://www.w3.org/2000/svg" xmlns:xlink="http://www.w3.org/1999/xlink" version="1.1" width="2048" height="2048" viewBox="-10 0 2068 2048">
   <path fill="currentColor"
d="M673 1029q0 38 -9.5 72t-29 62.5t-50.5 45.5t-74.5 17t-72 -17t-48 -45.5t-29 -65t-9.5 -74.5t9.5 -74.5t29 -65t50.5 -45.5t74.5 -17t74.5 17t48 48t26.5 67t9.5 75zM2048 1024v803q0 38 -26.5 67t-69.5 29h-1346q-39 0 -67.5 -29t-28.5 -67v-289h-428q-34 0 -58 -26
t-24 -60v-856q0 -34 24 -60t58 -26h557v-294q0 -38 26.5 -64.5t65.5 -26.5h1101q38 0 64.5 26.5t26.5 64.5v712l106 58q9 9 14 18.5t5 19.5zM1538 317v260h255v-260h-255zM1538 702v260h255v-260h-255zM1538 1086v159l260 -159h-260zM1086 317v260h323v-260h-323zM1086 702
v260h323v-260h-323zM1086 1086v174l207 129l116 -67v-236h-323zM769 317v193h178q10 0 15 4v-197h-193zM510 1365q77 0 137 -26.5t100.5 -72t62.5 -110.5t22 -137t-22 -132t-60 -105.5t-98.5 -72t-135 -26.5t-137 26.5t-103 72t-62.5 110.5t-22 139.5t22 134.5t62.5 103
t100.5 69.5t133 26.5zM639 1793h1058l-673 -418v77q0 34 -26.5 60t-60.5 26h-298v255zM1923 1784v-621l-505 303z" />
</svg>
