<?xml version="1.0" standalone="no"?>
<!DOCTYPE svg PUBLIC "-//W3C//DTD SVG 1.1//EN" "http://www.w3.org/Graphics/SVG/1.1/DTD/svg11.dtd" >
<svg xmlns="http://www.w3.org/2000/svg" xmlns:xlink="http://www.w3.org/1999/xlink" version="1.1" width="2048" height="2048" viewBox="-10 0 2058 2048">
   <path fill="currentColor"
d="M615 510l-206 -510l408 202l207 -202l207 202l408 -202l-206 510h-818zM1433 2048h-818q-173 0 -293 -43q-96 -34 -154 -101q-48 -53 -62 -120q-15 -48 -10 -101l5 -44l24 -115q29 -139 77 -269q67 -178 159 -308q110 -159 254 -231h818q144 72 254 231q92 130 159 308
q48 130 77 269l24 115l5 44q5 53 -10 101q-14 67 -62 120q-58 67 -154 101q-120 43 -293 43zM562 1077q0 62 46 108t108.5 46t108 -46t45.5 -110.5t-45.5 -108t-108 -43.5t-108.5 43.5t-46 110.5zM1486 1692q0 -67 -46 -110.5t-108.5 -43.5t-108 43.5t-45.5 108.5
t45.5 110.5t108 45.5t108.5 -45.5t46 -108.5zM1486 1058l-140 -135l-784 784l140 139z" />
</svg>
