<?xml version="1.0" standalone="no"?>
<!DOCTYPE svg PUBLIC "-//W3C//DTD SVG 1.1//EN" "http://www.w3.org/Graphics/SVG/1.1/DTD/svg11.dtd" >
<svg xmlns="http://www.w3.org/2000/svg" xmlns:xlink="http://www.w3.org/1999/xlink" version="1.1" width="2048" height="2048" viewBox="-10 0 2058 2048">
   <path fill="currentColor"
d="M1024 0q130 0 219 89t89 216.5t-89 218.5t-218.5 91t-218.5 -91t-89 -218.5t89 -216.5t218 -89zM1847 1639l-207 -557q-34 -96 -63 -145q-48 -67 -144 -120q-110 -53 -199 -77t-209.5 -24t-209.5 24t-199 77q-96 53 -144 120q-29 49 -63 145l-207 557q-19 87 125 183
q82 53 279 135l19 9v-226q0 -144 265 -206l43 -10q-53 -77 -77 -163l178 -63v5q19 48 48 96q58 96 130 144q34 10 62 24q121 53 145 135q-207 82 -395 82l-100 -10v269l100 5q207 0 400 -82q182 -77 288 -149q149 -101 135 -178zM1385 1538q-67 0 -110.5 -45.5t-43.5 -110.5
t43.5 -108t108.5 -43t110.5 43t45.5 108t-45.5 110.5t-108.5 45.5z" />
</svg>
