<?xml version="1.0" standalone="no"?>
<!DOCTYPE svg PUBLIC "-//W3C//DTD SVG 1.1//EN" "http://www.w3.org/Graphics/SVG/1.1/DTD/svg11.dtd" >
<svg xmlns="http://www.w3.org/2000/svg" xmlns:xlink="http://www.w3.org/1999/xlink" version="1.1" width="2048" height="2048" viewBox="-10 0 2058 2048">
   <path fill="currentColor"
d="M1824 1725q33 -38 43 -77v-33h154v24q-5 33 -12 69.5t-31 98.5q-10 44 -68 106l-53 48q-72 58 -163 77q-44 10 -73 5l-43 5q-53 0 -96 -10q-68 -14 -121 -43q-67 -48 -144 -144l-58 -82l-77 14q-96 10 -193 10q-139 -10 -260 -48q-154 -49 -274 -155q-212 -178 -289 -428
q-44 -125 -39 -255v-5q0 -111 44 -256q72 -255 236 -414q226 -216 602 -231q337 -14 578 164q192 144 289 371q72 173 72 327q0 111 -24 207q-5 63 -29 133t-53 113l-5 10q-72 115 -115.5 163t-110.5 111l-15 15l58 62q67 68 106 77l19 5q106 19 145 -34zM1106 1571
q10 -9 -38 -72l-87 -120q-39 -68 -130 -87h-72q-39 0 -77 9l-20 5q0 -9 -9 -29l-20 -24q-9 -19 -9 -53q0 -9 48 -33t116 -39q86 -19 163 -19q97 0 183 48q58 29 106 77q20 14 46 50.5t46 50.5h5q4 5 4 10q20 14 41.5 -72.5t33.5 -219t7 -243.5q-5 -188 -24 -269
q-19 -102 -74.5 -181.5t-161.5 -132.5t-209.5 -53t-194.5 29q-150 44 -217 154q-77 131 -96 367q-15 120 -5 211l-5 92q5 111 34 202q33 130 110 207q102 101 227 135q67 15 173 10h34z" />
</svg>
