<?xml version="1.0" standalone="no"?>
<!DOCTYPE svg PUBLIC "-//W3C//DTD SVG 1.1//EN" "http://www.w3.org/Graphics/SVG/1.1/DTD/svg11.dtd" >
<svg xmlns="http://www.w3.org/2000/svg" xmlns:xlink="http://www.w3.org/1999/xlink" version="1.1" width="2048" height="2048" viewBox="-10 0 2069 2048">
   <path fill="currentColor"
d="M1721 5q182 34 264 149q67 101 63 260v-5l-116 1533l-1514 101q-163 -5 -255 -58q-158 -96 -163 -351l139 -254l284 658l240 -778h-4h4l789 249l-202 -797l754 -49l-596 -485zM0 1630v4v-4zM437 433q154 -154 322.5 -255t310 -125t214 50.5t53 211.5t-115.5 300.5
t-250 315t-322 254.5t-307.5 129.5t-214 -48t-55.5 -214t115.5 -305t249.5 -314.5z" />
</svg>
