<?xml version="1.0" standalone="no"?>
<!DOCTYPE svg PUBLIC "-//W3C//DTD SVG 1.1//EN" "http://www.w3.org/Graphics/SVG/1.1/DTD/svg11.dtd" >
<svg xmlns="http://www.w3.org/2000/svg" xmlns:xlink="http://www.w3.org/1999/xlink" version="1.1" width="2048" height="2048" viewBox="-10 0 2068 2048">
   <path fill="currentColor"
d="M1618 1370q137 0 230.5 93.5t93.5 230.5t-93.5 230.5t-230.5 93.5q-106 0 -189.5 -61t-113.5 -157h-127v-212h127q30 -96 113.5 -157t189.5 -61zM1618 1588q-45 0 -75.5 30.5t-30.5 76t30.5 75.5t76 30t75.5 -30t30 -75.5t-30 -76t-76 -30.5zM1618 617q66 0 111.5 -45.5
t45.5 -109t-45.5 -109t-111.5 -45.5t-111.5 45.5t-45.5 109t45.5 109t111.5 45.5zM1618 30q177 0 303.5 126.5t126.5 303.5q0 202 -212 521q-112 162 -218 283l-111 -136q-126 -167 -207 -314q-112 -207 -112 -354q0 -177 126.5 -303.5t303.5 -126.5zM627 1588h126v212h-126
q-30 96 -113.5 157t-189.5 61q-137 0 -230.5 -93.5t-93.5 -230.5q0 -106 60.5 -189.5t156.5 -113.5v-127h213v127q71 20 124 73t73 124zM324 1588q-46 0 -76.5 30.5t-30.5 76t30.5 75.5t76 30t76 -30t30.5 -75.5t-30.5 -76t-75.5 -30.5zM324 76q136 0 229.5 93.5t93.5 229.5
q0 107 -60.5 190.5t-156.5 113.5v126h-213v-126q-96 -30 -156.5 -113.5t-60.5 -190.5q0 -136 93.5 -229.5t230.5 -93.5zM324 293q-46 0 -76.5 30.5t-30.5 76t30.5 76t76 30.5t76 -30.5t30.5 -76t-30.5 -76t-75.5 -30.5zM865 1800v-212h212v212h-212zM430 1153h-213v-212h213
v212z" />
</svg>
