<?xml version="1.0" standalone="no"?>
<!DOCTYPE svg PUBLIC "-//W3C//DTD SVG 1.1//EN" "http://www.w3.org/Graphics/SVG/1.1/DTD/svg11.dtd" >
<svg xmlns="http://www.w3.org/2000/svg" xmlns:xlink="http://www.w3.org/1999/xlink" version="1.1" width="2048" height="2048" viewBox="-10 0 2058 2048">
   <path fill="currentColor"
d="M341 1559q-101 0 -172 71t-71 171.5t71 173.5t171.5 73t171.5 -73t71 -173.5t-71 -171.5t-171 -71zM1707 1559q-100 0 -173 71t-73 171.5t73 173.5t173.5 73t171.5 -73t71 -173.5t-71 -171.5t-172 -71zM1854 1463v-50q0 -128 -5 -192q-14 -106 -46 -156
q-50 -110 -192 -178q-86 -37 -265 -82l-87 -23q-68 0 -130 -62t-75 -135h-275q-22 0 -36 -13.5t-14 -36.5t14 -36.5t36 -13.5h243v-96h-243q-22 0 -36 -14t-14 -34.5t14 -34t36 -13.5h243v-293h-828v1463h1660zM1022 1559q-101 0 -172 71t-71 171.5t71 173.5t171.5 73
t174 -73t73.5 -173.5t-73.5 -171.5t-173.5 -71z" />
</svg>
