<?xml version="1.0" standalone="no"?>
<!DOCTYPE svg PUBLIC "-//W3C//DTD SVG 1.1//EN" "http://www.w3.org/Graphics/SVG/1.1/DTD/svg11.dtd" >
<svg xmlns="http://www.w3.org/2000/svg" xmlns:xlink="http://www.w3.org/1999/xlink" version="1.1" width="2048" height="2048" viewBox="-10 0 2068 2048">
   <path fill="currentColor"
d="M2048 1024.5q0 139.5 -36.5 272t-102.5 245t-160.5 207t-207 160.5t-245 102.5t-271.5 36.5q-151 0 -291 -42q79 -127 104 -219q12 -46 71 -282q27 53 98 91t152 38q121 0 224.5 -53.5t175.5 -147t112.5 -223t40.5 -279.5q0 -90 -29.5 -176.5t-86.5 -160.5t-134.5 -130
t-180.5 -88t-218 -32q-140 0 -261.5 38.5t-206 103t-145 147.5t-89 172.5t-28.5 178.5q0 138 53 244t155 148q17 7 31 0t20 -27q3 -9 11 -40.5t11 -40.5q5 -20 2 -30t-17 -27q-68 -81 -68 -202q0 -97 35.5 -185.5t99.5 -156.5t160 -108.5t209 -40.5q101 0 182.5 30t134.5 83
t81.5 125t28.5 157q0 147 -40 270.5t-115 198t-170 74.5q-82 0 -131.5 -58t-31.5 -139q11 -47 36 -125t40 -137.5t15 -100.5q0 -67 -36 -111t-102 -44q-83 0 -140.5 76.5t-57.5 189.5q0 11 1 29t9.5 61t23.5 72l-132 558q-22 91 -17 236q-181 -80 -319.5 -219t-216.5 -326
t-78 -393q0 -140 37 -272.5t103 -245t160.5 -207t207 -160.5t245 -103t272 -37t272 37t245 103t207 160.5t160.5 207t102.5 245t36.5 272z" />
</svg>
