<?xml version="1.0" standalone="no"?>
<!DOCTYPE svg PUBLIC "-//W3C//DTD SVG 1.1//EN" "http://www.w3.org/Graphics/SVG/1.1/DTD/svg11.dtd" >
<svg xmlns="http://www.w3.org/2000/svg" xmlns:xlink="http://www.w3.org/1999/xlink" version="1.1" width="2048" height="2048" viewBox="-10 0 2058 2048">
   <path fill="currentColor"
d="M1861 932q0 253 -109 488.5t-301 401t-427 226.5q-235 -61 -427 -226.5t-301 -401t-109 -488.5v-557l837 -375l837 375v557zM1024 1861q170 -48 320.5 -187.5t239.5 -331.5t89 -392v-458l-649 -287l-649 287v458q0 200 89 392t239.5 331.5t320.5 187.5zM1238 815
q82 83 82 200.5t-82 200.5l-188 187q-87 87 -204.5 87t-202.5 -85t-85 -202.5t87 -204.5l113 -113v52q0 65 22 122l4 13l-35 35q-43 39 -43 95.5t41.5 96t98 39.5t95.5 -39l188 -188q43 -39 43 -95.5t-43 -96.5q-22 -26 -22 -54t21.5 -50t54.5 -22t55 22zM1582 754
q0 117 -83 200l-118 118v-52q0 -66 -17 -122l-4 -13l30 -35q44 -40 44 -96.5t-39.5 -98t-98 -41.5t-98.5 40l-187 187q-39 39 -39 98t39 98q22 22 22 52.5t-22 52t-52.5 21.5t-52.5 -21q-87 -83 -87 -203t87 -203l188 -187q83 -83 202.5 -83t202.5 85t83 203z" />
</svg>
