<?xml version="1.0" standalone="no"?>
<!DOCTYPE svg PUBLIC "-//W3C//DTD SVG 1.1//EN" "http://www.w3.org/Graphics/SVG/1.1/DTD/svg11.dtd" >
<svg xmlns="http://www.w3.org/2000/svg" xmlns:xlink="http://www.w3.org/1999/xlink" version="1.1" width="2048" height="2048" viewBox="-10 0 2058 2048">
   <path fill="currentColor"
d="M1303 1024q0 -87 -52.5 -159t-134.5 -102v-223q82 -26 134.5 -98t52.5 -163q0 -113 -80.5 -196t-198.5 -83t-198.5 83t-80.5 196q0 91 52.5 163t134.5 98v223q-82 30 -134.5 102t-52.5 159t52.5 159t134.5 102v223q-82 26 -134.5 98t-52.5 163q0 113 80.5 196t198.5 83
t198.5 -83t80.5 -196q0 -91 -52.5 -163t-134.5 -98v-223q82 -30 134.5 -102t52.5 -159zM1024 187q39 0 65.5 26.5t26.5 65.5t-26.5 67.5t-65.5 28.5t-65.5 -28.5t-26.5 -67.5t26.5 -65.5t65.5 -26.5zM1024 1861q-39 0 -65.5 -26.5t-26.5 -65.5t26.5 -67.5t65.5 -28.5
t65.5 28.5t26.5 67.5t-26.5 65.5t-65.5 26.5z" />
</svg>
