<?xml version="1.0" standalone="no"?>
<!DOCTYPE svg PUBLIC "-//W3C//DTD SVG 1.1//EN" "http://www.w3.org/Graphics/SVG/1.1/DTD/svg11.dtd" >
<svg xmlns="http://www.w3.org/2000/svg" xmlns:xlink="http://www.w3.org/1999/xlink" version="1.1" width="2048" height="2048" viewBox="-10 0 2068 2048">
   <path fill="currentColor"
d="M1639 923h-327q-33 -91 -112.5 -149t-175.5 -58t-175.5 58t-112.5 149h-327q-63 0 -116 -29q-91 -53 -91 -178v-101q0 -120 86 -173q53 -33 121 -33h1043q34 91 113 148.5t175 57.5q130 0 219 -91t89 -218.5t-89 -216.5t-219 -89q-96 0 -175 55.5t-113 146.5h-1043
q-92 0 -178 43q-106 43 -164 130q-67 96 -67 240v101q0 140 67 241q58 86 164 129q86 39 178 39h327q33 91 112.5 149t175.5 58t175.5 -58t112.5 -149h327q63 0 116 29q91 53 91 178v101q0 120 -86 173q-53 33 -121 33h-1043q-34 -91 -113 -148.5t-175 -57.5q-130 0 -219 91
t-89 218.5t89 216.5t219 89q96 0 175 -55.5t113 -146.5h1043q92 0 178 -43q101 -43 164 -130q67 -101 67 -240v-101q0 -140 -67 -241q-63 -86 -164 -129q-86 -39 -178 -39zM1740 202q44 0 75 31t31 74.5t-31 72.5t-74.5 29t-72.5 -29t-29 -72.5t29 -74.5t72 -31zM308 1846
q-44 0 -75 -31t-31 -74.5t31 -72.5t74.5 -29t72.5 29t29 72.5t-29 74.5t-72 31z" />
</svg>
