<?xml version="1.0" standalone="no"?>
<!DOCTYPE svg PUBLIC "-//W3C//DTD SVG 1.1//EN" "http://www.w3.org/Graphics/SVG/1.1/DTD/svg11.dtd" >
<svg xmlns="http://www.w3.org/2000/svg" xmlns:xlink="http://www.w3.org/1999/xlink" version="1.1" width="2048" height="2048" viewBox="-10 0 2058 2048">
   <path fill="currentColor"
d="M647 351l-183 -91l130 -260h865l130 260l-183 91l-72 -149h-615zM1704 615h-461l-82 -307h-269l-82 307h-461l-135 260l187 91l73 -149h1105l72 149l183 -91zM1618 2048h-212l-24 -91l-356 -534l-355 534l-24 91h-212l298 -1125h212l-39 135l120 182l121 -182l-39 -135
h212zM964 1332l-91 -140l-121 462zM1300 1654l-120 -462l-91 140z" />
</svg>
