<?xml version="1.0" standalone="no"?>
<!DOCTYPE svg PUBLIC "-//W3C//DTD SVG 1.1//EN" "http://www.w3.org/Graphics/SVG/1.1/DTD/svg11.dtd" >
<svg xmlns="http://www.w3.org/2000/svg" xmlns:xlink="http://www.w3.org/1999/xlink" version="1.1" width="2048" height="2048" viewBox="-10 0 2058 2048">
   <path fill="currentColor"
d="M1024 0l-837 375v557q0 253 109 488.5t301 401t427 226.5q235 -61 427 -226.5t301 -401t109 -488.5v-557zM1238 1216l-188 187q-87 87 -204.5 87t-202.5 -85t-85 -202.5t87 -204.5l113 -113v52q0 65 22 122l4 13l-35 35q-43 39 -43 95.5t41.5 96t98 39.5t95.5 -39
l188 -188q43 -39 43 -95.5t-39 -96.5q-26 -26 -26 -54t21.5 -50t54.5 -22t55 22q82 83 82 200.5t-82 200.5zM1499 954l-118 118v-52q0 -66 -17 -122l-4 -13l30 -35q44 -40 44 -96.5t-39.5 -98t-98 -41.5t-98.5 44l-187 183q-39 44 -39 100.5t39 95.5q22 22 22 52.5t-22 52
t-52.5 21.5t-52.5 -21q-87 -83 -87 -203t87 -203l188 -187q83 -83 202.5 -83t202.5 85t83 202.5t-83 200.5z" />
</svg>
