<?xml version="1.0" standalone="no"?>
<!DOCTYPE svg PUBLIC "-//W3C//DTD SVG 1.1//EN" "http://www.w3.org/Graphics/SVG/1.1/DTD/svg11.dtd" >
<svg xmlns="http://www.w3.org/2000/svg" xmlns:xlink="http://www.w3.org/1999/xlink" version="1.1" width="2048" height="2048" viewBox="-10 0 2068 2048">
   <path fill="currentColor"
d="M1774 337q-96 0 -178 67t-110 183q-39 153 -58 191.5t-96 115.5q-149 149 -409 241q-250 91 -721 168q-72 9 -118 35.5t-84 65.5q202 0 260 19q96 34 -5 135l-154 153h308l206 -201q154 76 272 76t272 -76l72 201h307l-105 -307l33 -111q39 -125 72 -221
q58 -135 101.5 -178t71.5 -48q20 0 49 19q48 29 86 29q77 0 139.5 -74.5t62.5 -184.5q0 -63 -19 -106q-34 -82 -135 -149q-53 -39 -120 -43zM716 380q-168 0 -310 81.5t-223.5 223.5t-81.5 310q0 48 19 135l5 29q462 -77 716.5 -163.5t379.5 -211.5l53 -53
q-77 -159 -228.5 -255t-329.5 -96z" />
</svg>
