<?xml version="1.0" standalone="no"?>
<!DOCTYPE svg PUBLIC "-//W3C//DTD SVG 1.1//EN" "http://www.w3.org/Graphics/SVG/1.1/DTD/svg11.dtd" >
<svg xmlns="http://www.w3.org/2000/svg" xmlns:xlink="http://www.w3.org/1999/xlink" version="1.1" width="2048" height="2048" viewBox="-10 0 2068 2048">
   <path fill="currentColor"
d="M1856 1490q-17 118 -108.5 198.5t-213.5 80.5h-140v-187h279v-118q5 -131 0 -196q-8 -105 -43 -157q-48 -104 -183 -170q-83 -35 -253 -78l-83 -22q-65 0 -124 -59t-72 -128h-261q-22 0 -35 -15.5t-13 -33t13 -32.5t35 -15h231v-92h-231q-22 0 -35 -13t-13 -32.5
t13 -32.5t35 -13h231v-279h-789v1486h279v187h-375v183h1534q200 0 346 -133t168 -329h-192zM1211 1769h-653v-187h653v187z" />
</svg>
