<?xml version="1.0" standalone="no"?>
<!DOCTYPE svg PUBLIC "-//W3C//DTD SVG 1.1//EN" "http://www.w3.org/Graphics/SVG/1.1/DTD/svg11.dtd" >
<svg xmlns="http://www.w3.org/2000/svg" xmlns:xlink="http://www.w3.org/1999/xlink" version="1.1" width="2048" height="2048" viewBox="-10 0 2068 2048">
   <path fill="currentColor"
d="M1664 0q105 0 193 51.5t139.5 139.5t51.5 193v1280q0 105 -51.5 193t-139.5 139.5t-193 51.5h-966q113 -161 143 -280q13 -46 72 -279q28 53 97.5 90t149.5 37q160 0 285.5 -90t193.5 -248.5t68 -355.5q0 -90 -29 -175.5t-85.5 -158.5t-133.5 -128.5t-179 -87t-215 -31.5
q-139 0 -259 38t-204 101.5t-143.5 146t-88 171t-28.5 176.5q0 137 52.5 241.5t155.5 146.5q16 7 30.5 0t19.5 -26q10 -50 20 -82q5 -19 2.5 -29.5t-16.5 -26.5q-67 -82 -67 -199q0 -96 35.5 -183.5t98.5 -154.5t158 -106.5t206 -39.5q100 0 180.5 29t133 81.5t80.5 123
t28 154.5q0 146 -39.5 268.5t-113.5 196t-168 73.5q-81 0 -130 -58t-30 -138q11 -46 35 -123.5t39 -135.5t15 -99q0 -66 -35 -109t-101 -43q-82 0 -138.5 75t-56.5 187q0 10 1 28t9 61t22 72l-131 552q-32 134 -9 338h-244q-105 0 -193 -51.5t-139.5 -139.5t-51.5 -193
v-1280q0 -105 51.5 -193t139.5 -139.5t193 -51.5h1280z" />
</svg>
