<?xml version="1.0" standalone="no"?>
<!DOCTYPE svg PUBLIC "-//W3C//DTD SVG 1.1//EN" "http://www.w3.org/Graphics/SVG/1.1/DTD/svg11.dtd" >
<svg xmlns="http://www.w3.org/2000/svg" xmlns:xlink="http://www.w3.org/1999/xlink" version="1.1" width="2048" height="2048" viewBox="-10 0 2068 2048">
   <path fill="currentColor"
d="M2048 596h-172v512h172v-512zM2048 1280h-172v172h172v-172zM1708 512q0 -72 -50 -122t-122 -50h-1364q-72 0 -122 50t-50 122v1024q0 72 50 122t122 50h1364q72 0 122 -50t50 -122v-1024zM1536 512l-684 428l-680 -428h1364zM1536 1536h-1364v-852l680 424l684 -424v852
z" />
</svg>
