<?xml version="1.0" standalone="no"?>
<!DOCTYPE svg PUBLIC "-//W3C//DTD SVG 1.1//EN" "http://www.w3.org/Graphics/SVG/1.1/DTD/svg11.dtd" >
<svg xmlns="http://www.w3.org/2000/svg" xmlns:xlink="http://www.w3.org/1999/xlink" version="1.1" width="2048" height="2048" viewBox="-10 0 2068 2048">
   <path fill="currentColor"
d="M615 716v154h231v462h154v-462h231v-154h-616zM409 716h-308q-43 0 -72 29t-29 72v515h154v-154h202v154h154v-515q0 -43 -29 -72t-72 -29zM356 1024h-202v-154h202v154zM1947 716h-461q-44 0 -72.5 29t-28.5 72v515h153v-462h101v361h154v-361h101v462h154v-515
q0 -43 -29 -72t-72 -29z" />
</svg>
