<?xml version="1.0" standalone="no"?>
<!DOCTYPE svg PUBLIC "-//W3C//DTD SVG 1.1//EN" "http://www.w3.org/Graphics/SVG/1.1/DTD/svg11.dtd" >
<svg xmlns="http://www.w3.org/2000/svg" xmlns:xlink="http://www.w3.org/1999/xlink" version="1.1" width="2048" height="2048" viewBox="-10 0 2068 2048">
   <path fill="currentColor"
d="M1846 1846h-1336q-82 0 -142 -60t-60 -147v-927l-284 -342q-24 -29 -24 -67.5t29 -69.5t72 -31h1745q82 0 142 60t60 147v1230q0 87 -60 147t-142 60zM663 510q-19 0 -33.5 16.5t-14.5 35.5v101q0 24 14.5 38.5t33.5 14.5h1029q19 0 33.5 -14.5t14.5 -38.5v-101
q0 -19 -14.5 -35.5t-33.5 -16.5h-1029zM663 923q-19 0 -33.5 14.5t-14.5 33.5v106q0 19 14.5 33.5t33.5 14.5h1029q19 0 33.5 -14.5t14.5 -33.5v-106q0 -19 -14.5 -33.5t-33.5 -14.5h-1029zM663 1332q-19 0 -33.5 14.5t-14.5 38.5v101q0 19 14.5 35.5t33.5 16.5h515
q19 0 36 -16.5t17 -35.5v-101q0 -24 -17 -38.5t-36 -14.5h-515z" />
</svg>
