<?xml version="1.0" standalone="no"?>
<!DOCTYPE svg PUBLIC "-//W3C//DTD SVG 1.1//EN" "http://www.w3.org/Graphics/SVG/1.1/DTD/svg11.dtd" >
<svg xmlns="http://www.w3.org/2000/svg" xmlns:xlink="http://www.w3.org/1999/xlink" version="1.1" width="2048" height="2048" viewBox="-10 0 2068 2048">
   <path fill="currentColor"
d="M912 571q187 0 320 133t133 322.5t-133 323t-322.5 133.5t-323 -133.5t-133.5 -323t133.5 -322.5t325.5 -133zM912 800q-96 0 -162.5 66.5t-66.5 160t66.5 160t160 66.5t160 -66.5t66.5 -160t-66.5 -160t-157.5 -66.5zM453 0h800q187 0 320.5 133.5t133.5 325.5v112h-230
v-112q0 -96 -66.5 -163t-157.5 -67h-800q-90 0 -157 67t-67 163v1365h1248v-229h230v453h-1707v-1589q0 -192 133.5 -325.5t319.5 -133.5zM1477 800q96 0 171 -37q43 -22 115 -78t114 -77q75 -37 171 -37v229q-96 0 -171 32q-42 21 -114 80t-115 80q-75 32 -171 32v-224z
M1477 1253q96 0 171 -37q43 -21 115 -77t114 -78q75 -37 171 -37v229q-96 0 -171 38q-42 21 -114 77t-115 77q-75 38 -171 38v-230z" />
</svg>
