<?xml version="1.0" standalone="no"?>
<!DOCTYPE svg PUBLIC "-//W3C//DTD SVG 1.1//EN" "http://www.w3.org/Graphics/SVG/1.1/DTD/svg11.dtd" >
<svg xmlns="http://www.w3.org/2000/svg" xmlns:xlink="http://www.w3.org/1999/xlink" version="1.1" width="2048" height="2048" viewBox="-10 0 2068 2048">
   <path fill="currentColor"
d="M1931 449q45 0 81 36t36 86v338q0 45 -38.5 81t-87.5 36h-528q-45 0 -81 -38t-36 -88v-338q0 -41 36 -77t81 -36v-145q0 -99 81 -171t185 -72t187.5 72t83.5 171v145zM1804 449v-145q0 -58 -40.5 -92t-97 -34t-94.5 27t-52 68q-4 9 -4 31v145h288zM0 1820l140 -528
l144 244l415 -239v-1042h194v1042l902 523l-94 167l-907 -523l-415 239l149 257z" />
</svg>
