<?xml version="1.0" standalone="no"?>
<!DOCTYPE svg PUBLIC "-//W3C//DTD SVG 1.1//EN" "http://www.w3.org/Graphics/SVG/1.1/DTD/svg11.dtd" >
<svg xmlns="http://www.w3.org/2000/svg" xmlns:xlink="http://www.w3.org/1999/xlink" version="1.1" width="2048" height="2048" viewBox="-10 0 2068 2048">
   <path fill="currentColor"
d="M1223 1036q0 -25 -8 -85h-483v176h289q-3 25 -14 52t-34 57.5t-54.5 54.5t-80 40t-106.5 16q-133 0 -226 -94.5t-93 -227.5q0 -88 42.5 -162.5t116 -118t160.5 -43.5q123 0 204 79l139 -135q-145 -133 -343 -133q-105 0 -199.5 41t-163 109.5t-108.5 163t-40 199t40 199
t108.5 163t163 109t199.5 40.5q145 0 257 -64t173 -177.5t61 -258.5zM1683 1097h146v-146h-146v-147h-146v147h-147v146h147v147h146v-147zM2048 384v1280q0 105 -51.5 193t-139.5 139.5t-193 51.5h-1280q-105 0 -193 -51.5t-139.5 -139.5t-51.5 -193v-1280
q0 -105 51.5 -193t139.5 -139.5t193 -51.5h1280q105 0 193 51.5t139.5 139.5t51.5 193z" />
</svg>
