<?xml version="1.0" standalone="no"?>
<!DOCTYPE svg PUBLIC "-//W3C//DTD SVG 1.1//EN" "http://www.w3.org/Graphics/SVG/1.1/DTD/svg11.dtd" >
<svg xmlns="http://www.w3.org/2000/svg" xmlns:xlink="http://www.w3.org/1999/xlink" version="1.1" width="2048" height="2048" viewBox="-10 0 2068 2048">
   <path fill="currentColor"
d="M1026 1213h273q-22 247 -99 405.5t-174 158.5q-75 0 -136.5 -92.5t-101 -253t-44.5 -354.5l-189 -106v53q0 255 64 471t171.5 341.5t235.5 125.5q110 0 209.5 -97t165.5 -268.5t88 -383.5h290l-378 -378zM1026 86q-132 0 -242 132t-167 352l163 93q35 -176 101 -284
t149.5 -108t156.5 134.5t103 345.5l111 -115l66 66q-49 -273 -170 -444.5t-271 -171.5zM97 377l-93 167l-4 4l943 546l149 -149l-991 -573zM1956 1671l92 -167l-344 -198h-136l-26 128z" />
</svg>
