<?xml version="1.0" standalone="no"?>
<!DOCTYPE svg PUBLIC "-//W3C//DTD SVG 1.1//EN" "http://www.w3.org/Graphics/SVG/1.1/DTD/svg11.dtd" >
<svg xmlns="http://www.w3.org/2000/svg" xmlns:xlink="http://www.w3.org/1999/xlink" version="1.1" width="2048" height="2048" viewBox="-10 0 2068 2048">
   <path fill="currentColor"
d="M1024 256q-208 0 -386 102t-280 280t-102 386t102 386t280 280t386 102t386 -102t280 -280t102 -386t-102 -386t-280 -280t-386 -102zM1024 1620q-164 0 -300 -80t-216 -216t-80 -300t80 -300t216 -216t300 -80t300 80t216 216t80 300t-80 300t-216 216t-300 80z
M1748 1748q144 -140 222 -328t78 -396t-78 -396t-222 -328l-92 92q124 124 194 288t70 344t-70 344t-194 288zM392 1656q-124 -124 -194 -288t-70 -344t70 -344t194 -288l-92 -92q-144 140 -222 328t-78 396t78 396t222 328zM812 596v856h168v-344h172q72 0 122 -50t50 -118
v-172q0 -72 -50 -122t-122 -50h-340zM980 768h172v172h-172v-172z" />
</svg>
