<?xml version="1.0" standalone="no"?>
<!DOCTYPE svg PUBLIC "-//W3C//DTD SVG 1.1//EN" "http://www.w3.org/Graphics/SVG/1.1/DTD/svg11.dtd" >
<svg xmlns="http://www.w3.org/2000/svg" xmlns:xlink="http://www.w3.org/1999/xlink" version="1.1" width="2048" height="2048" viewBox="-10 0 2068 2048">
   <path fill="currentColor"
d="M1231 1024l-414 409l414 413v-317q230 -24 417.5 -96t293.5 -180.5t106 -228.5t-106 -228.5t-293.5 -180.5t-417.5 -96v207q269 24 442 108t173 190t-173 190t-442 108v-298zM202 1024q0 -106 173 -190t442 -108v-207q-230 24 -417.5 96t-293.5 180.5t-106 228.5
q0 163 187.5 295.5t485.5 185.5l-72 -72l125 -121q-231 -33 -377.5 -112.5t-146.5 -175.5zM1125 0h-202v1125l202 -202v-923zM1125 2048v-101l-202 -207v308h202z" />
</svg>
