<?xml version="1.0" standalone="no"?>
<!DOCTYPE svg PUBLIC "-//W3C//DTD SVG 1.1//EN" "http://www.w3.org/Graphics/SVG/1.1/DTD/svg11.dtd" >
<svg xmlns="http://www.w3.org/2000/svg" xmlns:xlink="http://www.w3.org/1999/xlink" version="1.1" width="2048" height="2048" viewBox="-10 0 2066 2048">
   <path fill="currentColor"
d="M818 1564q0 139 -101 297q-58 77 -129 153h-5q-29 34 -70 34t-84 -43q-24 -29 -21.5 -72t31.5 -72q53 -43 110 -120q67 -101 67 -177q0 -34 -24 -82q-9 -24 -43 -86l-14 -24q-125 -163 -125 -309.5t67 -251.5q43 -63 87 -87q33 -14 76 -4.5t58 38.5q24 38 14.5 79
t-48.5 65l-9 14q-19 19 -29 53q-10 38 -10 91t24 105q15 34 58 92q120 167 120 307zM1024 1065q0 -58 14 -96q10 -34 24 -53l15 -14q38 -24 45.5 -65t-16.5 -79.5t-65 -45.5t-82 14.5t-79 84.5q-72 105 -72 251.5t125 309.5l14 24q34 62 48 86q19 48 19 82q0 76 -67 177
q-53 77 -105 120q-34 29 -34 72t26.5 74t64.5 31q58 15 96 -24q77 -76 130 -153q105 -158 105 -297.5t-124 -306.5l-15 -24q-33 -58 -48 -87q-19 -48 -19 -81zM1844 0h-1640q-82 0 -142 60t-60 146v1123q0 86 60 146t142 60h105v-206h-105v-1123h1640v1123h-105v206h105
q82 0 142 -60t60 -146v-1123q0 -86 -60 -146t-142 -60zM1456 1074q0 -76 24 -129q14 -24 24 -34q33 -24 42.5 -64.5t-12 -76.5t-64.5 -45.5t-81.5 12t-81.5 83.5q-67 106 -67 254q0 77 33 159q24 48 77 129l29 48q33 58 43 86q19 44 19 82q0 72 -67 173q-53 81 -105 120
q-29 33 -34 74t24 72t72 31q14 0 62 -14l29 -10h5q72 -72 125 -153q105 -159 105 -293q0 -77 -33 -158q-24 -48 -77 -130l-29 -48q-34 -57 -43 -86q-19 -48 -19 -82z" />
</svg>
