<?xml version="1.0" standalone="no"?>
<!DOCTYPE svg PUBLIC "-//W3C//DTD SVG 1.1//EN" "http://www.w3.org/Graphics/SVG/1.1/DTD/svg11.dtd" >
<svg xmlns="http://www.w3.org/2000/svg" xmlns:xlink="http://www.w3.org/1999/xlink" version="1.1" width="2048" height="2048" viewBox="-10 0 2068 2048">
   <path fill="currentColor"
d="M1266 1614l144 -144l437 432l-149 144zM1693 2q149 0 252 103.5t103 252t-103 254t-252 105.5t-254.5 -105.5t-105.5 -254t105.5 -252t254.5 -103.5zM29 525l288 -292q28 -29 71.5 -29t76.5 29l864 868q33 33 33 74t-33 74l-288 288q-29 29 -72 29t-72 -29l-868 -868
q-29 -29 -29 -72t29 -72z" />
</svg>
