<?xml version="1.0" standalone="no"?>
<!DOCTYPE svg PUBLIC "-//W3C//DTD SVG 1.1//EN" "http://www.w3.org/Graphics/SVG/1.1/DTD/svg11.dtd" >
<svg xmlns="http://www.w3.org/2000/svg" xmlns:xlink="http://www.w3.org/1999/xlink" version="1.1" width="2048" height="2048" viewBox="-10 0 2068 2048">
   <path fill="currentColor"
d="M2048 1368q0 197 -84 367.5t-233 276.5l-265 -264l145 -145l120 125q86 -125 105 -259h-197v-202h197q-33 -144 -105 -260l-120 125l-145 -144l120 -125q-120 -87 -254 -101v197h-207v-197q-139 34 -255 101l308 308q9 0 26 -5t27 -5q81 0 141.5 60t60.5 146.5
t-60.5 146.5t-144.5 60t-144 -60t-60 -146q0 -29 10 -53l-308 -308q-87 125 -101 260h192v202h-192q29 144 101 259l125 -125l144 145l-269 264q-149 -106 -233 -276.5t-84 -367.5q0 -221 110.5 -411t298 -300.5t411 -110.5t411 110.5t298 300.5t110.5 411zM481 373
l-337 -337l-144 144l337 337l-135 134h413v-413z" />
</svg>
