<?xml version="1.0" standalone="no"?>
<!DOCTYPE svg PUBLIC "-//W3C//DTD SVG 1.1//EN" "http://www.w3.org/Graphics/SVG/1.1/DTD/svg11.dtd" >
<svg xmlns="http://www.w3.org/2000/svg" xmlns:xlink="http://www.w3.org/1999/xlink" version="1.1" width="2048" height="2048" viewBox="-10 0 2068 2048">
   <path fill="currentColor"
d="M820 1297h409v-103h-137v-478h-121l-158 147l82 85q4 -4 16.5 -14.5t17 -15t12 -13t13.5 -18.5h2v307h-136v103zM1366 1024.5q0 59.5 -14 120.5t-42.5 119t-68 103.5t-96 73t-121.5 27.5t-121.5 -27.5t-96 -73t-68 -103.5t-42.5 -119t-14 -120.5t14 -121t42.5 -119.5
t68 -103.5t96 -73t121.5 -27.5t121.5 27.5t96 73t68 103.5t42.5 119.5t14 121zM1912 1297v-546q-113 0 -193.5 -80.5t-80.5 -193.5h-1228q0 113 -80.5 193.5t-193.5 80.5v546q113 0 193.5 80.5t80.5 193.5h1228q0 -113 80.5 -193.5t193.5 -80.5zM2048 409v1230q0 28 -20 48
t-48 20h-1912q-28 0 -48 -20t-20 -48v-1230q0 -28 20 -48t48 -20h1912q28 0 48 20t20 48z" />
</svg>
