<?xml version="1.0" standalone="no"?>
<!DOCTYPE svg PUBLIC "-//W3C//DTD SVG 1.1//EN" "http://www.w3.org/Graphics/SVG/1.1/DTD/svg11.dtd" >
<svg xmlns="http://www.w3.org/2000/svg" xmlns:xlink="http://www.w3.org/1999/xlink" version="1.1" width="2048" height="2048" viewBox="-10 0 2068 2048">
   <path fill="currentColor"
d="M587 1019q0 130 -5 161t-20 51q-24 24 -76 24h-53l-5 -467h53q53 0 74.5 19.5t26.5 48.5t5 163zM2048 562v924q0 86 -60 146t-142 60h-1644q-82 0 -142 -60t-60 -146v-924q0 -86 60 -146t142 -60h1644q82 0 142 60t60 146zM712 995q-5 -139 -10 -175t-24 -70
q-29 -53 -77 -70t-164 -17h-129v722h120q106 0 156.5 -17t81.5 -58t40.5 -98.5t5.5 -216.5zM1139 663h-153q-116 0 -137.5 5t-38.5 26.5t-19.5 69.5t-2.5 260v303l29 29q20 19 41.5 24t131.5 5h149v-125l-226 -5v-169l140 -9v-120h-144v-169h230v-125zM1740 673
q0 -10 -67 -10l-67 10l-63 240q-62 236 -67 217l-115 -462q0 -5 -73 -5h-72l125 486q29 101 43.5 137t33.5 60q34 39 63 39t55 -24.5t41 -52.5q5 -20 84 -322.5t79 -312.5z" />
</svg>
