<?xml version="1.0" standalone="no"?>
<!DOCTYPE svg PUBLIC "-//W3C//DTD SVG 1.1//EN" "http://www.w3.org/Graphics/SVG/1.1/DTD/svg11.dtd" >
<svg xmlns="http://www.w3.org/2000/svg" xmlns:xlink="http://www.w3.org/1999/xlink" version="1.1" width="2048" height="2048" viewBox="-10 0 2068 2048">
   <path fill="currentColor"
d="M1014 856l-139 72q-19 -48 -53 -67.5t-58 -19.5q-139 0 -139 183q0 82 33.5 132.5t105.5 50.5q87 0 125 -92l125 68q-38 72 -110 115t-159 43q-139 0 -223.5 -84t-84.5 -230.5t87 -233t216 -86.5q193 0 274 149zM1606 856l-135 72q-24 -43 -55 -65t-65 -22
q-135 0 -135 183q0 77 36 130t99 53q91 0 130 -92l130 68q-44 72 -116 115t-159 43q-139 0 -220.5 -84t-81.5 -230.5t84 -233t214 -86.5q192 0 274 149zM1024 154q173 0 334 65t283.5 187.5t187.5 283.5t65 334t-65 334t-187.5 283.5t-283.5 187.5t-334 65t-334 -65
t-283.5 -187.5t-187.5 -283.5t-65 -334t65 -334t187.5 -283.5t283.5 -187.5t334 -65zM1024 0q-202 0 -392 77t-334 221t-221 334t-77 392t77 392t221 334t334 221t392 77t392 -77t334 -221t221 -334t77 -392t-77 -392t-221 -334t-334 -221t-392 -77z" />
</svg>
