<?xml version="1.0" standalone="no"?>
<!DOCTYPE svg PUBLIC "-//W3C//DTD SVG 1.1//EN" "http://www.w3.org/Graphics/SVG/1.1/DTD/svg11.dtd" >
<svg xmlns="http://www.w3.org/2000/svg" xmlns:xlink="http://www.w3.org/1999/xlink" version="1.1" width="2048" height="2048" viewBox="-10 0 2068 2048">
   <path fill="currentColor"
d="M1097 1586h368l-182 -182h-186v182zM912 1218v-185h-182v185h182zM912 1586v-182h-182v182h182zM544 851v-186h-185v186h185zM544 1218v-185h-185v185h185zM544 1586v-182h-185v182h185zM112 0l1936 1927l-121 121l-277 -277h-1473v-1473l-177 -177zM1465 851h185v182
h-185v-182zM730 298v82l-268 -268h635v368h921v1192l-182 -186v-821h-739v82l-267 -267h82v-182h-182z" />
</svg>
