<?xml version="1.0" standalone="no"?>
<!DOCTYPE svg PUBLIC "-//W3C//DTD SVG 1.1//EN" "http://www.w3.org/Graphics/SVG/1.1/DTD/svg11.dtd" >
<svg xmlns="http://www.w3.org/2000/svg" xmlns:xlink="http://www.w3.org/1999/xlink" version="1.1" width="2048" height="2048" viewBox="-10 0 2068 2048">
   <path fill="currentColor"
d="M624 784q60 32 96 84q48 68 48 156t-48 156q-36 52 -96 84q-28 -92 -28 -240t28 -240zM556 596q-60 0 -96 136q-32 120 -32 292t32 292q36 136 96 136q88 0 176 -54t144 -146q64 -104 64 -228t-64 -228q-56 -92 -144 -146t-176 -54zM1424 784q20 92 20 240t-20 240
q-60 -32 -96 -84q-48 -68 -48 -156t48 -156q36 -52 96 -84zM1492 596q-88 0 -176 54t-144 146q-64 104 -64 228t64 228q56 92 144 146t176 54q60 0 96 -136q32 -120 32 -292t-32 -292q-36 -136 -96 -136zM420 528l-208 -136l-92 144l220 148q32 -108 80 -156zM1708 684
l220 -148l-92 -144l-208 136q60 76 80 156zM340 1364l-220 148l92 144l208 -136q-60 -76 -80 -156zM1748 940v84v84h300v-168h-300zM1628 1520l208 136l92 -144l-220 -148q-32 108 -80 156zM300 1024v-84h-300v168h300v-84z" />
</svg>
