<?xml version="1.0" standalone="no"?>
<!DOCTYPE svg PUBLIC "-//W3C//DTD SVG 1.1//EN" "http://www.w3.org/Graphics/SVG/1.1/DTD/svg11.dtd" >
<svg xmlns="http://www.w3.org/2000/svg" xmlns:xlink="http://www.w3.org/1999/xlink" version="1.1" width="2048" height="2048" viewBox="-10 0 2068 2048">
   <path fill="currentColor"
d="M1303 1954q-39 0 -65.5 -28t-22 -65t30.5 -68q48 -35 96 -109q61 -91 61 -157q0 -35 -17 -74q-9 -26 -40 -78l-26 -44q-48 -74 -69 -117q-31 -75 -31 -144q0 -135 61 -231q39 -57 74 -76.5t74 -11t59 41.5t11 70t-39 59l-9 13q-17 17 -26 48q-9 39 -9 87q0 30 18 74
q8 26 39 78l26 44q48 74 70 117q30 75 30 144q0 122 -96 266q-48 74 -113 140h-4l-26 8q-44 13 -57 13zM998 1924q70 -70 118 -140q95 -143 95 -269.5t-113 -279.5l-13 -21q-30 -53 -44 -79q-17 -43 -17 -74q0 -52 13 -87q9 -31 22 -48l13 -13q35 -22 41.5 -59t-15.5 -72
t-59 -41.5t-74 13t-72 76.5q-65 96 -65 229t113 281l13 22q31 56 44 78q17 44 17 74q0 70 -61 161q-48 70 -96 109q-30 27 -30 66t24 67.5t59 28.5q52 13 87 -22zM623 1924h4q66 -70 118 -140q92 -143 92 -269.5t-109 -279.5q-40 -52 -53 -82q-21 -48 -21 -96t8 -83
q9 -31 26 -48l9 -13q35 -22 43.5 -59t-12.5 -72q-13 -26 -52.5 -34.5t-69.5 4.5q-40 21 -79 78q-61 96 -61 229t114 281l13 22q30 56 39 78q22 44 22 74q0 70 -61 161q-53 70 -101 109q-26 27 -28 66t20 65q39 39 76 39t63 -30zM1024 94q-192 0 -370 21q-279 31 -440 101
q-214 96 -214 246t65 508q48 278 105 518h205v-187h-57q-131 -628 -131 -837q0 -44 120 -87.5t314 -69.5t403 -26t403 26t314 69.5t120 87.5q0 209 -131 837h-57v187h205q57 -240 105 -518q65 -358 65 -508t-214 -246q-161 -70 -440 -101q-178 -21 -370 -21z" />
</svg>
