<?xml version="1.0" standalone="no"?>
<!DOCTYPE svg PUBLIC "-//W3C//DTD SVG 1.1//EN" "http://www.w3.org/Graphics/SVG/1.1/DTD/svg11.dtd" >
<svg xmlns="http://www.w3.org/2000/svg" xmlns:xlink="http://www.w3.org/1999/xlink" version="1.1" width="2048" height="2048" viewBox="-10 0 2058 2048">
   <path fill="currentColor"
d="M1472 2048q-61 -26 -74 -96q0 -18 6.5 -37.5t32.5 -67.5q214 -385 205 -826q9 -424 -196 -800q-35 -70 -53 -122q9 -57 53 -88q30 -13 65 -11t66 20q43 57 65 109q153 293 206 612q30 254 8 512q-43 327 -192 625q-48 91 -76.5 130.5t-54.5 39.5h-61zM1065 1843
q-39 -14 -61 -48.5t-13 -78.5q0 -5 31 -70l21 -44q171 -323 140 -686q-22 -258 -144 -490q-44 -87 -50.5 -117.5t22 -65.5t74.5 -39.5t85 26.5q101 144 158 319q91 266 78 544t-131 535q-57 132 -105 180t-105 26v9zM646 1633q-53 -22 -66 -79q0 -44 40 -118
q104 -188 104 -404.5t-104 -403.5q-44 -88 -46.5 -120.5t30.5 -67.5t76.5 -31t74.5 32.5t70 102.5q122 223 124.5 479t-124.5 483q-35 70 -61 96t-61 30.5t-57 -4.5v5zM252 1436q-48 -26 -65 -74q-9 -26 0 -50.5t39 -72.5q70 -96 61 -218q13 -123 -61 -223q-17 -26 -39 -74
q-9 -44 17.5 -81t74.5 -46q39 -4 69.5 13.5t65.5 69.5q101 157 101 340.5t-101 336.5q-70 105 -157 79h-5z" />
</svg>
