<?xml version="1.0" standalone="no"?>
<!DOCTYPE svg PUBLIC "-//W3C//DTD SVG 1.1//EN" "http://www.w3.org/Graphics/SVG/1.1/DTD/svg11.dtd" >
<svg xmlns="http://www.w3.org/2000/svg" xmlns:xlink="http://www.w3.org/1999/xlink" version="1.1" width="2048" height="2048" viewBox="-10 0 2058 2048">
   <path fill="currentColor"
d="M793 932h92q21 0 34 -13t13 -34v-140h741v140q0 21 13 34t35 13h92q21 0 34.5 -13t13.5 -34v-419l-131 -401q-4 -26 -30.5 -45.5t-52.5 -19.5h-680q-26 0 -50 19.5t-32 45.5l-140 401v419q0 21 13 34t35 13zM959 96h679l83 279h-845zM1024 2048h-187q0 -48 -92 -100
q-57 -31 -196 -87l-39 -13q-201 -79 -279 -131q-135 -96 -135 -229t118 -216q69 -43 244 -100l26 -9q130 -30 191 -61q70 -34 70 -78h187q0 135 -117 214q-70 47 -249 104l-26 9q-130 30 -187 56q-74 35 -74 81t96 98q56 31 196 87l39 18q200 74 279 130q135 92 135 227z
M1952 2048h-183q0 -48 -96 -100q-56 -31 -196 -87l-39 -13q-200 -79 -279 -131q-135 -96 -135 -229t118 -216q69 -43 248 -100l65 -22q118 -34 157 -56q61 -31 61 -70h188q0 135 -118 214q-70 47 -248 104l-27 9q-126 30 -183 56q-74 35 -74 81t92 98q57 31 196 87l39 18
q201 74 279 130q135 92 135 227z" />
</svg>
