<?xml version="1.0" standalone="no"?>
<!DOCTYPE svg PUBLIC "-//W3C//DTD SVG 1.1//EN" "http://www.w3.org/Graphics/SVG/1.1/DTD/svg11.dtd" >
<svg xmlns="http://www.w3.org/2000/svg" xmlns:xlink="http://www.w3.org/1999/xlink" version="1.1" width="2048" height="2048" viewBox="-10 0 2068 2048">
   <path fill="currentColor"
d="M1524 414v-204h-810v204h810zM610 1634q-81 0 -140.5 59.5t-59.5 142.5t59.5 142.5t142.5 59.5t142.5 -59.5t59.5 -142.5t-59.5 -142.5t-144.5 -59.5zM1629 1634q-86 0 -145.5 59.5t-59.5 142.5t59.5 142.5t143 59.5t143 -59.5t59.5 -142.5t-59.5 -142.5t-140.5 -59.5z
M629 1305l4 -14l91 -167h757q57 0 105 -28.5t71 -76.5l391 -709l-176 -100l-391 714h-714l-434 -914h-333v200h205l367 771l-139 253q-23 42 -23 95q0 86 59.5 145.5t140.5 59.5h1219v-205h-1176q-10 0 -17 -7t-7 -17z" />
</svg>
