<?xml version="1.0" standalone="no"?>
<!DOCTYPE svg PUBLIC "-//W3C//DTD SVG 1.1//EN" "http://www.w3.org/Graphics/SVG/1.1/DTD/svg11.dtd" >
<svg xmlns="http://www.w3.org/2000/svg" xmlns:xlink="http://www.w3.org/1999/xlink" version="1.1" width="2048" height="2048" viewBox="-10 0 2058 2048">
   <path fill="currentColor"
d="M1573 715h140v1333h-140v-967q-109 -22 -209 -83t-170 -140l-61 284l209 204v702h-187v-558l-205 -205l-174 763h-200l291 -1482q18 -69 68 -104t102.5 -35t98 26t76.5 70l96 152q43 74 110.5 126.5t154.5 83.5v-170zM741 458l-104 -22q-79 -22 -144.5 23.5t-78.5 124.5
l-78 370q-4 44 17.5 74.5t60.5 39.5l205 39zM1155 0q-74 0 -128.5 54.5t-54.5 133t54.5 133t131 54.5t130.5 -54.5t54 -133t-54 -133t-133 -54.5z" />
</svg>
