<?xml version="1.0" standalone="no"?>
<!DOCTYPE svg PUBLIC "-//W3C//DTD SVG 1.1//EN" "http://www.w3.org/Graphics/SVG/1.1/DTD/svg11.dtd" >
<svg xmlns="http://www.w3.org/2000/svg" xmlns:xlink="http://www.w3.org/1999/xlink" version="1.1" width="2048" height="2048" viewBox="-10 0 2068 2048">
   <path fill="currentColor"
d="M2048 417q0 -135 -94 -229t-229.5 -94t-231.5 94t-96 229v48q0 118 -80.5 199t-198.5 81q-57 0 -114 -35q-35 -22 -104 -83q-92 -79 -149 -110q-92 -52 -192 -52q-153 0 -262 109t-109 262v96h183v-96q0 -74 54.5 -128.5t133.5 -54.5q57 0 105 30q39 22 109 83
q70 75 159.5 116.5t185.5 49.5q127 0 233.5 -63t170 -170t63.5 -234v-48q0 -57 39.5 -98.5t98.5 -41.5t100.5 41.5t41.5 98.5q-22 122 -79 227q-92 179 -109 380q13 197 113 362q57 92 75 197q0 79 -55 133.5t-133.5 54.5t-133 -54.5t-54.5 -133.5q0 -144 -102.5 -246.5
t-246.5 -102.5t-247 102.5t-103 246.5v48q0 57 -39 98.5t-100 41.5q-114 0 -197 -83t-83 -197v-188h188v-187h-559v187h188v188q0 127 61 234t168 168t238 61t227 -94t96 -229v-48q0 -66 48 -114t116 -48t116 48t48 114q0 153 109 262t262 109t262 -109t109 -262
q0 -66 -31 -144q-17 -44 -65 -144q-44 -88 -61 -136q-26 -74 -26 -135t26 -148q17 -49 65 -153.5t66 -157.5q26 -82 26 -148z" />
</svg>
