<?xml version="1.0" standalone="no"?>
<!DOCTYPE svg PUBLIC "-//W3C//DTD SVG 1.1//EN" "http://www.w3.org/Graphics/SVG/1.1/DTD/svg11.dtd" >
<svg xmlns="http://www.w3.org/2000/svg" xmlns:xlink="http://www.w3.org/1999/xlink" version="1.1" width="2048" height="2048" viewBox="-10 0 2068 2048">
   <path fill="currentColor"
d="M1582 769h-231l-105 -157l131 -91l-100 -153l-419 279l101 153l135 -88l104 162l-82 82h-258l-409 -610l-153 105l157 235q-196 40 -324.5 194.5t-128.5 354.5v188h187q0 113 81 196t198.5 83t198 -83t80.5 -196h558q0 113 80.5 196t198 83t198.5 -83t81 -196h187v-188
q0 -126 -63 -233t-170 -170t-233 -63zM466 1562q-56 0 -97.5 -41.5t-41.5 -100t41.5 -98t98 -39.5t98 39.5t41.5 98t-41.5 100t-98.5 41.5zM1582 1562q-57 0 -98.5 -41.5t-41.5 -100t41.5 -98t98 -39.5t98 39.5t41.5 98t-41.5 100t-97.5 41.5z" />
</svg>
