<?xml version="1.0" standalone="no"?>
<!DOCTYPE svg PUBLIC "-//W3C//DTD SVG 1.1//EN" "http://www.w3.org/Graphics/SVG/1.1/DTD/svg11.dtd" >
<svg xmlns="http://www.w3.org/2000/svg" xmlns:xlink="http://www.w3.org/1999/xlink" version="1.1" width="2048" height="2048" viewBox="-10 0 2068 2048">
   <path fill="currentColor"
d="M1711 1308q58 -135 58 -284q0 -106 -33 -212q-101 25 -207 25q-231 0 -430.5 -106t-329.5 -289q-72 169 -197 298.5t-288 201.5q-5 29 -5 82q0 149 57.5 286t161 240.5t240.5 161t286 57.5q159 0 303 -67q91 168 86 168q-254 87 -389 87q-187 0 -358 -72.5t-301 -201.5
q-163 -164 -230 -380h-135v-466h111q43 -212 172.5 -380.5t324.5 -267t416 -98.5q183 0 356 72.5t303 201.5q197 197 254 472h111v466h-5l-365 336l-543 -62v-168h495zM745 1000q48 0 82 33.5t34 81.5t-34 84.5t-82 36.5t-84 -36.5t-36 -84.5t36 -81.5t84 -33.5zM1303 1000
q48 0 81.5 33.5t33.5 81.5t-33.5 84.5t-81.5 36.5t-82 -36.5t-34 -84.5t34 -81.5t82 -33.5z" />
</svg>
