<?xml version="1.0" standalone="no"?>
<!DOCTYPE svg PUBLIC "-//W3C//DTD SVG 1.1//EN" "http://www.w3.org/Graphics/SVG/1.1/DTD/svg11.dtd" >
<svg xmlns="http://www.w3.org/2000/svg" xmlns:xlink="http://www.w3.org/1999/xlink" version="1.1" width="2048" height="2048" viewBox="-10 0 2068 2048">
   <path fill="currentColor"
d="M952 978q128 128 309 128l8 181q-245 0 -438 -181l-60 -60l-197 205l189 181v514h-173v-446l-108 -101v189l-362 366l-120 -121l309 -305l-104 -301q-20 -68 52 -129l285 -281q44 -60 117 -60q56 0 96 24zM2048 1090h-173v-293l-152 -60l76 377l84 446l81 378h-181
l-157 -687l-176 173v514h-173v-643l181 -173l-53 -257q-92 97 -180 141q-125 -16 -213 -104q197 -37 289 -197l88 -137q37 -64 95 -82t126 14l438 189v401zM968 448q72 0 122 50t50 120.5t-50 120.5t-120 50t-120.5 -50t-50.5 -120.5t50.5 -120.5t118.5 -50zM1405 94
q73 0 123 50.5t50 122.5t-50 122.5t-122.5 50.5t-122.5 -50.5t-50 -122.5t50 -122.5t122 -50.5z" />
</svg>
