<?xml version="1.0" standalone="no"?>
<!DOCTYPE svg PUBLIC "-//W3C//DTD SVG 1.1//EN" "http://www.w3.org/Graphics/SVG/1.1/DTD/svg11.dtd" >
<svg xmlns="http://www.w3.org/2000/svg" xmlns:xlink="http://www.w3.org/1999/xlink" version="1.1" width="2048" height="2048" viewBox="-10 0 2068 2048">
   <path fill="currentColor"
d="M1538 202h-1028q-140 0 -257.5 69.5t-185 187.5t-67.5 257v1130h1846q82 0 142 -60t60 -147v-923q0 -139 -67.5 -257t-185 -187.5t-257.5 -69.5zM817 1639h-615v-923q0 -129 91.5 -218t218.5 -89t216 89t89 218v923zM1846 1639h-822v-923q0 -173 -101 -307h615
q125 0 216.5 89t91.5 218v923zM1125 923v202h413v207h202v-409h-615zM716 923h-408v-207h408v207z" />
</svg>
