<?xml version="1.0" standalone="no"?>
<!DOCTYPE svg PUBLIC "-//W3C//DTD SVG 1.1//EN" "http://www.w3.org/Graphics/SVG/1.1/DTD/svg11.dtd" >
<svg xmlns="http://www.w3.org/2000/svg" xmlns:xlink="http://www.w3.org/1999/xlink" version="1.1" width="2048" height="2048" viewBox="-10 0 2068 2048">
   <path fill="currentColor"
d="M1211 932h558v371h-187v-187h-371v-184zM1582 279h-928q-127 0 -233.5 63t-170 170t-63.5 233v837h-187v187h1861q78 0 132.5 -54.5t54.5 -132.5v-837q0 -126 -63 -233t-170 -170t-233 -63zM932 1582h-557v-837q0 -118 80.5 -198.5t196 -80.5t198 80.5t82.5 198.5v837z
M1861 1582h-745v-837q0 -157 -92 -279h558q117 0 198 80.5t81 198.5v837z" />
</svg>
