<?xml version="1.0" standalone="no"?>
<!DOCTYPE svg PUBLIC "-//W3C//DTD SVG 1.1//EN" "http://www.w3.org/Graphics/SVG/1.1/DTD/svg11.dtd" >
<svg xmlns="http://www.w3.org/2000/svg" xmlns:xlink="http://www.w3.org/1999/xlink" version="1.1" width="2048" height="2048" viewBox="-10 0 2068 2048">
   <path fill="currentColor"
d="M1433 974v-515h-510v515h510zM1279 1589q62 0 108 -48t46 -108t-46 -106t-106 -46t-108 46t-48 106t48 108t106 48zM716 974v-515h-514v515h514zM356 1589q62 0 108 -48t46 -108t-46 -106t-106 -46t-108 46t-48 106t48 108t106 48zM817 50q399 0 582 68q240 96 240 341
v976q0 144 -105.5 250t-254.5 106l154 154v53h-1231v-53l154 -154q-144 0 -250 -106t-106 -250v-976q0 -245 240 -341q183 -68 577 -68zM1846 1175v-615h202v615h-202zM1846 1589v-207h202v207h-202z" />
</svg>
