<?xml version="1.0" standalone="no"?>
<!DOCTYPE svg PUBLIC "-//W3C//DTD SVG 1.1//EN" "http://www.w3.org/Graphics/SVG/1.1/DTD/svg11.dtd" >
<svg xmlns="http://www.w3.org/2000/svg" xmlns:xlink="http://www.w3.org/1999/xlink" version="1.1" width="2048" height="2048" viewBox="-10 0 2068 2048">
   <path fill="currentColor"
d="M202 0h1644q82 0 142 60t60 142v1029q0 81 -60 141.5t-142 60.5h-514v413h307v202h-514v-615h-202v615h-514v-202h307v-413h-514q-82 0 -142 -60.5t-60 -141.5v-1029q0 -82 60 -142t142 -60zM202 202v413h721v-413h-721zM202 1231h721v-414h-721v414zM1846 1231v-414
h-721v414h721zM1846 202h-721v413h721v-413z" />
</svg>
