<?xml version="1.0" standalone="no"?>
<!DOCTYPE svg PUBLIC "-//W3C//DTD SVG 1.1//EN" "http://www.w3.org/Graphics/SVG/1.1/DTD/svg11.dtd" >
<svg xmlns="http://www.w3.org/2000/svg" xmlns:xlink="http://www.w3.org/1999/xlink" version="1.1" width="2048" height="2048" viewBox="-10 0 2068 2048">
   <path fill="currentColor"
d="M654 1233l-305 -301h209q13 -257 78.5 -470.5t167.5 -337.5t220 -124q139 0 252.5 165.5t170.5 435.5q270 57 435.5 170.5t165.5 252.5q0 126 -137.5 233t-367.5 168l30 -192q135 -39 211.5 -93.5t76.5 -115.5q0 -74 -105 -135t-279 -96q13 118 13 231q0 279 -63 514
t-170 372.5t-233 137.5t-233 -137.5t-168 -367.5l192 30q39 135 93.5 211.5t115.5 76.5q74 0 139.5 -113.5t102.5 -305t37 -418.5q0 -139 -13 -266q-127 -13 -266 -13l-174 4l30 -187l144 -4q113 0 231 13q-35 -174 -96 -279t-133 -105t-133 98t-100 268t-48 379h209z
M1233 1394l-301 305v-209q-257 -13 -470.5 -78.5t-337.5 -167.5t-124 -224t137.5 -229t367.5 -168l-30 192q-135 39 -211.5 93.5t-76.5 120t98 126.5t268 100t379 48v-209z" />
</svg>
