<?xml version="1.0" standalone="no"?>
<!DOCTYPE svg PUBLIC "-//W3C//DTD SVG 1.1//EN" "http://www.w3.org/Graphics/SVG/1.1/DTD/svg11.dtd" >
<svg xmlns="http://www.w3.org/2000/svg" xmlns:xlink="http://www.w3.org/1999/xlink" version="1.1" width="2048" height="2048" viewBox="-10 0 2058 2048">
   <path fill="currentColor"
d="M1630 1394q96 0 163.5 67.5t67.5 166t-67.5 166t-166 67.5t-166 -67.5t-67.5 -166t67.5 -166t168.5 -67.5zM885 0q-258 0 -401.5 48t-208.5 148q-61 92 -75 257q-13 105 -13 366q0 148 92 318q83 148 211.5 272.5t254.5 180.5v458h279v-458q126 -56 254.5 -180.5
t211.5 -272.5q92 -170 92 -318q0 -266 -9 -370q-17 -166 -78 -253q-66 -104 -209.5 -150t-400.5 -46zM1342 301q18 21 26 69q9 31 18 96h-83v-205q13 9 30 27zM1394 819v18h-91v-279h91v261zM1211 1211h-279v-279h279v279zM558 1211v-279h279v279h-279zM375 819v-26v-235h91
v279h-91v-18zM558 558h279v279h-279v-279zM932 187q114 0 258 27h21v252h-279v-279zM837 466h-279v-239q113 -40 279 -40v279zM932 837v-279h279v279h-279zM466 261v205h-83q9 -65 18 -96q9 -48 26 -69zM392 932h74v157l-22 -43q-39 -74 -52 -114zM654 1303h183v122l-18 -9
q-56 -22 -165 -113zM950 1425h-18v-122h184q-109 91 -166 122zM1303 1089v-157h74q-17 44 -74 157z" />
</svg>
