<?xml version="1.0" standalone="no"?>
<!DOCTYPE svg PUBLIC "-//W3C//DTD SVG 1.1//EN" "http://www.w3.org/Graphics/SVG/1.1/DTD/svg11.dtd" >
<svg xmlns="http://www.w3.org/2000/svg" xmlns:xlink="http://www.w3.org/1999/xlink" version="1.1" width="2048" height="2048" viewBox="-10 0 2058 2048">
   <path fill="currentColor"
d="M1884 2048l-393 -389q-118 83 -255.5 116t-272.5 15l44 -187q192 13 345 -83l-1306 -1306l122 -122l1834 1838zM1063 493q109 0 212 44t181 122q123 127 153.5 293t-35.5 323l140 140q122 -210 87 -456.5t-218 -425.5q-100 -109 -238 -168t-282 -59v-306l-380 371
l380 384v-262zM561 812l-140 -140q-126 219 -97.5 472t207.5 441q122 105 253 157l48 -187q-87 -40 -170 -110q-123 -126 -151 -303t50 -330z" />
</svg>
