<?xml version="1.0" standalone="no"?>
<!DOCTYPE svg PUBLIC "-//W3C//DTD SVG 1.1//EN" "http://www.w3.org/Graphics/SVG/1.1/DTD/svg11.dtd" >
<svg xmlns="http://www.w3.org/2000/svg" xmlns:xlink="http://www.w3.org/1999/xlink" version="1.1" width="2048" height="2048" viewBox="-11 0 2070 2048">
   <path fill="currentColor"
d="M1479 1479q328 -329 348 -864q-177 389 -500 712t-712 500q530 -15 864 -348zM569 569q-328 329 -348 864q70 -151 222 -374q136 -197 278 -338q323 -323 712 -500q-530 15 -864 348zM1938 110q86 90 106.5 345.5t-78 601.5t-331.5 578q-207 213 -500 311.5t-576 98.5
q-343 0 -449 -107q-86 -90 -106.5 -345.5t78 -601.5t331.5 -578q207 -213 500 -311.5t576 -98.5q343 0 449 107z" />
</svg>
