<?xml version="1.0" standalone="no"?>
<!DOCTYPE svg PUBLIC "-//W3C//DTD SVG 1.1//EN" "http://www.w3.org/Graphics/SVG/1.1/DTD/svg11.dtd" >
<svg xmlns="http://www.w3.org/2000/svg" xmlns:xlink="http://www.w3.org/1999/xlink" version="1.1" width="2048" height="2048" viewBox="-10 0 2058 2048">
   <path fill="currentColor"
d="M1846 308q-48 0 -77 31t-29 79v1015q0 48 29 76.5t74.5 33.5t74.5 -28.5t29 -81.5v-1015q0 -48 -29 -79t-72 -31zM1476 0h-1212q-67 0 -115 45.5t-48 117.5v1414q0 72 48 117.5t115 45.5h145v207q0 48 28.5 74.5t72.5 26.5h615q48 0 77 -26.5t29 -74.5v-207h245
q67 0 115 -45.5t48 -117.5v-1414q0 -72 -48 -117.5t-115 -45.5zM308 615h307v202h-307v-202zM1024 923v202h-308v-202h308zM716 817v-202h308v202h-308zM1024 1231v202h-308v-202h308zM308 923h307v202h-307v-202zM308 1433v-202h307v202h-307zM615 1947h-105v-207h105v207z
M1125 1947h-308v-207h308v207zM1433 1433h-308v-202h308v202zM1433 1125h-308v-202h308v202zM1433 817h-308v-202h308v202zM1433 409h-1125v-207h1125v207z" />
</svg>
