<?xml version="1.0" standalone="no"?>
<!DOCTYPE svg PUBLIC "-//W3C//DTD SVG 1.1//EN" "http://www.w3.org/Graphics/SVG/1.1/DTD/svg11.dtd" >
<svg xmlns="http://www.w3.org/2000/svg" xmlns:xlink="http://www.w3.org/1999/xlink" version="1.1" width="2048" height="2048" viewBox="-10 0 2058 2048">
   <path fill="currentColor"
d="M786 0q-70 0 -118.5 50.5t-48.5 121t48.5 119t119 48.5t121 -48.5t50.5 -119t-50.5 -121t-121.5 -50.5zM1319 75q0 189 92.5 347.5t251 251t348.5 92.5v-127q-155 0 -284.5 -75t-204.5 -205t-75 -284h-128zM1570 75q0 119 59.5 220t161 160.5t220.5 59.5v-127
q-133 0 -223 -90.5t-90 -222.5h-128zM1821 75q0 79 55 134t135 55v-189h-190zM592 361q-22 0 -48 9l-507 159v488h168v-348l198 -61l-366 1440h168l268 -762l221 295v467h167v-599l-233 -427l70 -269l101 167h458v-167h-339l-189 -313q-22 -35 -57.5 -57t-79.5 -22z" />
</svg>
