<?xml version="1.0" standalone="no"?>
<!DOCTYPE svg PUBLIC "-//W3C//DTD SVG 1.1//EN" "http://www.w3.org/Graphics/SVG/1.1/DTD/svg11.dtd" >
<svg xmlns="http://www.w3.org/2000/svg" xmlns:xlink="http://www.w3.org/1999/xlink" version="1.1" width="2048" height="2048" viewBox="-10 0 2068 2048">
   <path fill="currentColor"
d="M1608 1022l407 -402q28 -34 28 -77t-28 -72l-441 -440q-28 -29 -71.5 -29t-76.5 29l-402 407l-407 -407q-33 -29 -74 -29t-69 29l-445 440q-29 29 -29 72t29 77l406 402l-406 406q-29 34 -29 74.5t29 69.5l445 445q28 29 69 29t74 -29l407 -407l402 407q33 29 74 29
t74 -29l441 -445q33 -29 33 -69.5t-33 -74.5zM1024 715q43 0 71.5 29t28.5 72t-28.5 74t-71.5 31t-71.5 -31t-28.5 -74t28.5 -72t71.5 -29zM545 916l-373 -368l373 -373l369 368zM818 1122q-43 0 -71.5 -28.5t-28.5 -71.5t28.5 -72t71.5 -29t74.5 29t31.5 72t-31.5 71.5
t-74.5 28.5zM1024 1328q-43 0 -71.5 -29t-28.5 -72t28.5 -74t71.5 -31t71.5 31t28.5 74t-28.5 72t-71.5 29zM1230 921q43 0 71.5 29t28.5 72t-28.5 71.5t-71.5 28.5t-74.5 -28.5t-31.5 -71.5t31.5 -72t74.5 -29zM1498 1873l-369 -368l369 -373l373 368z" />
</svg>
