<?xml version="1.0" standalone="no"?>
<!DOCTYPE svg PUBLIC "-//W3C//DTD SVG 1.1//EN" "http://www.w3.org/Graphics/SVG/1.1/DTD/svg11.dtd" >
<svg xmlns="http://www.w3.org/2000/svg" xmlns:xlink="http://www.w3.org/1999/xlink" version="1.1" width="2048" height="2048" viewBox="-10 0 2058 2048">
   <path fill="currentColor"
d="M1120 489q0 -41 14 -87q23 -77 64 -128l-174 -137l-174 146q41 46 64 119q14 46 14 87q-215 14 -398 92q-146 64 -274 169q-87 73 -155 155l-51 73l681 681l23 -36q28 -41 64 -73q51 -46 110 -64v201q-46 23 -73.5 68.5t-27.5 100.5q0 78 57.5 135t139.5 57t139.5 -57
t57.5 -135q0 -55 -27.5 -100.5t-73.5 -68.5v-201q59 18 110 64q36 32 64 73l23 36l681 -681l-51 -73q-68 -82 -155 -155q-128 -101 -274 -165q-183 -78 -398 -96zM928 1280q-128 32 -206 96l-411 -407q251 -251 617 -274v585zM1326 1376q-110 -73 -206 -96v-585
q215 18 384 105q133 69 233 169zM1609 32l-68 183q-51 -23 -124 -23t-128 23l-68 -183q86 -32 193.5 -32t194.5 32zM1902 489h-197v-36q-9 -42 -23 -83q-18 -50 -55 -87l147 -128q82 87 114 215q14 64 14 119zM265 155l146 128q-45 51 -59 133q-9 41 -9 73h-197
q0 -55 14 -119q32 -128 105 -215zM827 32l-68 183q-50 -23 -121 -23t-131 23l-68 -183q87 -32 194.5 -32t193.5 32z" />
</svg>
