<?xml version="1.0" standalone="no"?>
<!DOCTYPE svg PUBLIC "-//W3C//DTD SVG 1.1//EN" "http://www.w3.org/Graphics/SVG/1.1/DTD/svg11.dtd" >
<svg xmlns="http://www.w3.org/2000/svg" xmlns:xlink="http://www.w3.org/1999/xlink" version="1.1" width="2048" height="2048" viewBox="-10 0 2058 2048">
   <path fill="currentColor"
d="M1592 1301q152 0 261.5 109.5t109.5 264.5t-109.5 264t-262 109t-262 -109t-109.5 -264t109.5 -264.5t262.5 -109.5zM1592 1489q-79 0 -133.5 54.5t-54.5 131t54.5 131t133 54.5t133 -54.5t54.5 -131t-54.5 -131t-132.5 -54.5zM478 1258l35 -44q39 -57 61 -131
q35 -105 35 -218q-26 -157 35 -325.5t196.5 -301.5t301.5 -194t323 -37t264 131t131 264t-35 325t-194 301.5t-303.5 194.5t-320.5 35q-118 0 -223 35q-70 26 -131 61l-44 35l-393 397l-131 -131zM1596 271q-70 -74 -179 -85t-227 37t-216 146t-146.5 216t-37.5 227.5
t83 181.5t181.5 85t227 -35t216 -146.5t146.5 -218.5t37 -229t-85 -179z" />
</svg>
