<?xml version="1.0" standalone="no"?>
<!DOCTYPE svg PUBLIC "-//W3C//DTD SVG 1.1//EN" "http://www.w3.org/Graphics/SVG/1.1/DTD/svg11.dtd" >
<svg xmlns="http://www.w3.org/2000/svg" xmlns:xlink="http://www.w3.org/1999/xlink" version="1.1" width="2048" height="2048" viewBox="-10 0 2058 2048">
   <path fill="currentColor"
d="M1303 187h-279v279h-370v-279h-279q-79 0 -133.5 54.5t-54.5 133.5v1486q0 78 54.5 132.5t133.5 54.5h928q78 0 132.5 -54.5t54.5 -132.5v-1486q0 -79 -54.5 -133.5t-132.5 -54.5zM837 654q78 0 132.5 54.5t54.5 130.5t-54.5 130.5t-130.5 54.5t-130.5 -54.5
t-54.5 -130.5t54.5 -130.5t128.5 -54.5zM1211 1394h-745v-91q0 -83 140 -140q117 -47 232.5 -47t233.5 47q139 57 139 140v91zM932 375h-187v-375h187v375zM1211 1673h-745v-91h745v91zM837 1861h-371v-92h371v92zM1673 1116v-558h188v558h-188zM1673 1490v-187h188v187
h-188z" />
</svg>
