<?xml version="1.0" standalone="no"?>
<!DOCTYPE svg PUBLIC "-//W3C//DTD SVG 1.1//EN" "http://www.w3.org/Graphics/SVG/1.1/DTD/svg11.dtd" >
<svg xmlns="http://www.w3.org/2000/svg" xmlns:xlink="http://www.w3.org/1999/xlink" version="1.1" width="2048" height="2048" viewBox="-10 0 2058 2048">
   <path fill="currentColor"
d="M1282 1454l142 -142l206 210l205 -210l142 142l-210 205l210 206l-142 142l-205 -210l-206 210l-142 -142l211 -206zM994 0l928 489v197h-1851v-197zM1433 878h293v205l-96 -9q-101 0 -197 32v-228zM71 2048v-293h983q27 165 141 293h-1124zM848 878h293v457
q-69 105 -87 228h-206v-685zM263 878h292v685h-292v-685z" />
</svg>
