<?xml version="1.0" standalone="no"?>
<!DOCTYPE svg PUBLIC "-//W3C//DTD SVG 1.1//EN" "http://www.w3.org/Graphics/SVG/1.1/DTD/svg11.dtd" >
<svg xmlns="http://www.w3.org/2000/svg" xmlns:xlink="http://www.w3.org/1999/xlink" version="1.1" width="2048" height="2048" viewBox="-10 0 2068 2048">
   <path fill="currentColor"
d="M1846 716v1130h-1644v-1231h418l188 -206h524v-207h-616l-187 207h-327q-82 0 -142 60t-60 146v1231q0 82 60 142t142 60h1644q82 0 142 -60t60 -142v-1130h-202zM1913 615h135q0 -168 -81.5 -310t-223.5 -223.5t-310 -81.5v135q129 0 240 64.5t175.5 173t64.5 242.5z
M1639 615h135q0 -144 -98.5 -242.5t-242.5 -98.5v135q86 0 146 60t60 146zM510 1231q0 101 40.5 194.5t113 165.5t166 110.5t194.5 38.5q139 0 257 -67t187.5 -185t69.5 -257.5t-69.5 -257t-187.5 -187.5t-257 -70t-257 70t-187.5 187.5t-69.5 257.5zM1332 1231
q0 125 -89 216t-219 91t-219 -91t-89 -218.5t89 -216.5t219 -89t219 89t89 219z" />
</svg>
