<?xml version="1.0" standalone="no"?>
<!DOCTYPE svg PUBLIC "-//W3C//DTD SVG 1.1//EN" "http://www.w3.org/Graphics/SVG/1.1/DTD/svg11.dtd" >
<svg xmlns="http://www.w3.org/2000/svg" xmlns:xlink="http://www.w3.org/1999/xlink" version="1.1" width="2048" height="2048" viewBox="-10 0 2068 2048">
   <path fill="currentColor"
d="M1024 899q135 0 231 96t96 233t-96 233.5t-231 96.5t-231 -96.5t-96 -233.5t96 -233t231 -96zM1433 135v-135q168 0 310 81.5t223.5 223.5t81.5 310h-135q0 -129 -64.5 -240t-175.5 -175.5t-240 -64.5zM1433 409v-135q144 0 242.5 98.5t98.5 242.5h-135q0 -86 -60 -146
t-146 -60zM1538 716h510v1130q0 82 -60 142t-142 60h-1644q-82 0 -142 -60t-60 -142v-1231q0 -86 60 -146t142 -60h327l187 -207h616v308q86 0 146 60t60 146zM1024 1740q139 0 257 -67t187.5 -185t69.5 -257.5t-69.5 -257t-187.5 -187.5t-257 -70t-257 70t-187.5 187.5
t-69.5 257.5q0 101 40.5 194.5t113 165.5t166 110.5t194.5 38.5z" />
</svg>
