<?xml version="1.0" standalone="no"?>
<!DOCTYPE svg PUBLIC "-//W3C//DTD SVG 1.1//EN" "http://www.w3.org/Graphics/SVG/1.1/DTD/svg11.dtd" >
<svg xmlns="http://www.w3.org/2000/svg" xmlns:xlink="http://www.w3.org/1999/xlink" version="1.1" width="2048" height="2048" viewBox="-10 0 2058 2048">
   <path fill="currentColor"
d="M1267 1444v604h-486v-361h-118q-152 0 -256.5 -104.5t-104.5 -256.5v-361q0 -51 34 -85t84.5 -34t87 34t36.5 85v361q0 51 34 84.5t85 33.5h118v-1201q0 -102 70.5 -172.5t172.5 -70.5t172.5 70.5t70.5 172.5v964h118q51 0 85 -36.5t34 -87.5v-237q0 -50 36.5 -87t87 -37
t84.5 37t34 87v237q0 153 -104.5 257t-256.5 104h-118z" />
</svg>
