<?xml version="1.0" standalone="no"?>
<!DOCTYPE svg PUBLIC "-//W3C//DTD SVG 1.1//EN" "http://www.w3.org/Graphics/SVG/1.1/DTD/svg11.dtd" >
<svg xmlns="http://www.w3.org/2000/svg" xmlns:xlink="http://www.w3.org/1999/xlink" version="1.1" width="2048" height="2048" viewBox="-10 0 2068 2048">
   <path fill="currentColor"
d="M1674 1325q-56 0 -94 -38t-38 -91t40.5 -91t88.5 -38t88.5 40.5t45.5 88.5t-35.5 88.5t-95.5 40.5zM1674 809q-157 0 -268 111.5t-111 267.5q0 122 96 304q70 131 182 278l101 116l96 -116q111 -147 182 -278q96 -182 96 -304q0 -156 -111 -267.5t-263 -111.5zM1284 733
q-25 -106 -113.5 -177t-199.5 -71q-137 0 -230.5 94t-93.5 230.5t93.5 230t230.5 93.5q45 0 106 -21q35 -222 207 -379zM1077 1239h-647q0 -86 -63.5 -149t-149.5 -63v-435q86 0 149.5 -63.5t63.5 -149.5h1082q0 86 63 149.5t149 63.5l71 10q81 15 147 55v-495h-1942v1294
h1133l-10 -40q-36 -111 -46 -177z" />
</svg>
