<?xml version="1.0" standalone="no"?>
<!DOCTYPE svg PUBLIC "-//W3C//DTD SVG 1.1//EN" "http://www.w3.org/Graphics/SVG/1.1/DTD/svg11.dtd" >
<svg xmlns="http://www.w3.org/2000/svg" xmlns:xlink="http://www.w3.org/1999/xlink" version="1.1" width="2048" height="2048" viewBox="-10 0 2068 2048">
   <path fill="currentColor"
d="M1795 219q-48 -9 -128.5 -74.5t-124 -76t-146 15.5t-145.5 17q-74 -26 -150.5 -17.5t-141.5 48.5l-9 1329l-18 91q-26 113 37.5 211.5t174.5 122.5t209 -39.5t124 -172.5l18 -96l553 -1207q-44 -65 -111.5 -104t-141.5 -48zM1294 1631q-9 39 -41.5 60.5t-71.5 13t-61 -41
t-13 -72.5l83 -366q4 -34 36.5 -56t69.5 -17.5t59 37t18 71.5zM810 1862q-52 -88 -65 -183l-70 -314q-8 -35 11.5 -70t58.5 -43h22v-1055q-39 0 -113 -17q-109 -27 -148.5 -18t-117.5 70q-87 70 -135 78q-74 9 -141.5 48t-111.5 105l553 1207l18 96q26 113 124 174t207 35
h13q-65 -52 -105 -113z" />
</svg>
