<?xml version="1.0" standalone="no"?>
<!DOCTYPE svg PUBLIC "-//W3C//DTD SVG 1.1//EN" "http://www.w3.org/Graphics/SVG/1.1/DTD/svg11.dtd" >
<svg xmlns="http://www.w3.org/2000/svg" xmlns:xlink="http://www.w3.org/1999/xlink" version="1.1" width="2048" height="2048" viewBox="-10 0 2068 2048">
   <path fill="currentColor"
d="M1873 895q-18 0 -36 17l-92 97l193 197l97 -96q13 -14 13 -38t-13 -37l-123 -123q-17 -17 -39 -17zM1697 1061l-574 566v193h201l571 -570zM1873 605v9l-189 189v-198h-1495v934h749v189h-749q-79 0 -134 -55t-55 -134v-1122q0 -75 55 -132t134 -57h561l188 189h746
q79 0 134 54.5t55 133.5z" />
</svg>
