<?xml version="1.0" standalone="no"?>
<!DOCTYPE svg PUBLIC "-//W3C//DTD SVG 1.1//EN" "http://www.w3.org/Graphics/SVG/1.1/DTD/svg11.dtd" >
<svg xmlns="http://www.w3.org/2000/svg" xmlns:xlink="http://www.w3.org/1999/xlink" version="1.1" width="2048" height="2048" viewBox="-10 0 2068 2048">
   <path fill="currentColor"
d="M1303 885h187v466h-187v-466zM1303 1442h187v188h-187v-188zM1394 606q149 0 279 61v-153h-1486v928h584q-26 -91 -26 -187q0 -174 87 -324.5t237.5 -237.5t324.5 -87zM2048 1255q0 179 -89.5 327t-237.5 237.5t-327 89.5q-161 0 -302.5 -76.5t-228.5 -202.5h-676
q-78 0 -132.5 -54.5t-54.5 -133.5v-1115q0 -79 54.5 -133.5t132.5 -54.5h558l187 188h741q79 0 133.5 54.5t54.5 132.5v288q87 87 137 204.5t50 248.5zM1394 793q-126 0 -232.5 61t-168 168t-61.5 233t61.5 233t168 170t233 63t233 -63t170 -170t63.5 -233t-63.5 -233
t-170 -168t-233.5 -61z" />
</svg>
