<?xml version="1.0" standalone="no"?>
<!DOCTYPE svg PUBLIC "-//W3C//DTD SVG 1.1//EN" "http://www.w3.org/Graphics/SVG/1.1/DTD/svg11.dtd" >
<svg xmlns="http://www.w3.org/2000/svg" xmlns:xlink="http://www.w3.org/1999/xlink" version="1.1" width="2048" height="2048" viewBox="-10 0 2058 2048">
   <path fill="currentColor"
d="M1125 716h567l-567 -562v562zM409 0h822l615 615v1231q0 82 -60 142t-147 60h-1230q-87 0 -147 -60t-60 -142v-1644q0 -82 60 -142t147 -60zM870 923q-192 0 -326.5 134.5t-134.5 327t134.5 327t326.5 134.5t327 -134.5t135 -327t-135 -327t-327 -134.5zM870 1077
q130 0 219 89t89 219q0 86 -43 153l-419 -418q68 -43 154 -43zM562 1385q0 -87 44 -154l418 418q-67 43 -154 43q-130 0 -219 -91t-89 -216z" />
</svg>
