<?xml version="1.0" standalone="no"?>
<!DOCTYPE svg PUBLIC "-//W3C//DTD SVG 1.1//EN" "http://www.w3.org/Graphics/SVG/1.1/DTD/svg11.dtd" >
<svg xmlns="http://www.w3.org/2000/svg" xmlns:xlink="http://www.w3.org/1999/xlink" version="1.1" width="2048" height="2048" viewBox="-10 0 2058 2048">
   <path fill="currentColor"
d="M1769 986q0 38 -27 65l-652 652q-28 28 -66 28q-37 0 -65 -28l-652 -652q-28 -28 -28 -65q0 -38 27.5 -65.5t65.5 -27.5h1304q38 0 65.5 27.5t27.5 65.5zM1769 427.5q0 38.5 -27.5 65.5t-65.5 27h-1304q-38 0 -65.5 -27t-27.5 -65q0 -37 28 -65l652 -652q28 -28 65 -28
q38 0 66 28l652 652q27 26 27 64.5z" />
</svg>
