<?xml version="1.0" standalone="no"?>
<!DOCTYPE svg PUBLIC "-//W3C//DTD SVG 1.1//EN" "http://www.w3.org/Graphics/SVG/1.1/DTD/svg11.dtd" >
<svg xmlns="http://www.w3.org/2000/svg" xmlns:xlink="http://www.w3.org/1999/xlink" version="1.1" width="2048" height="2048" viewBox="-10 0 2058 2048">
   <path fill="currentColor"
d="M918 1295q106 0 189.5 60.5t113.5 156.5h344q177 0 303.5 126.5t126.5 303.5v106h-212v-106q0 -91 -63.5 -154.5t-154.5 -63.5h-344q-30 96 -113.5 157t-189.5 61q-137 0 -230.5 -93.5t-93.5 -230t93.5 -230t230.5 -93.5zM918 1512q-46 0 -76 30.5t-30 76t30 75.5
t75.5 30t76 -30t30.5 -75.5t-30.5 -76t-75.5 -30.5zM1565 0q91 0 154.5 63t63.5 154v536q0 91 -63.5 154.5t-154.5 63.5h-339q-35 0 -63 17.5t-38 48.5q-35 106 -141 141q-81 26 -162 -14.5t-112 -126.5q-10 -31 -37.5 -48.5t-63.5 -17.5h-338q-91 0 -154.5 -63.5
t-63.5 -154.5v-536q0 -91 63.5 -154t154.5 -63h1294zM1565 753v-536h-1294v536h500q20 -40 60.5 -70.5t86.5 -35.5q45 5 85.5 35.5t60.5 70.5h501z" />
</svg>
