<?xml version="1.0" standalone="no"?>
<!DOCTYPE svg PUBLIC "-//W3C//DTD SVG 1.1//EN" "http://www.w3.org/Graphics/SVG/1.1/DTD/svg11.dtd" >
<svg xmlns="http://www.w3.org/2000/svg" xmlns:xlink="http://www.w3.org/1999/xlink" version="1.1" width="2048" height="2048" viewBox="-10 0 2058 2048">
   <path fill="currentColor"
d="M1332 1024q0 168 -120.5 288.5t-288.5 120.5t-288.5 -120.5t-120.5 -288.5t120.5 -288.5t288.5 -120.5t288.5 120.5t120.5 288.5zM1687 601l-144 72l29 43h173v616h-173q-77 158 -216 264q264 87 355 236q-76 96 -295 156t-493 60t-492.5 -60t-295.5 -156
q91 -149 355 -236q-139 -106 -216 -264h-173v-616h173q111 -230 341 -341v-173h616v173q101 48 187 135l178 -87q96 -53 125 -159q24 -77 24 -264h202q0 144 -10 221q-14 125 -67 212q-62 110 -183 168zM1437 1024q0 -139 -69.5 -257t-187.5 -187.5t-257 -69.5t-257 69.5
t-187.5 187.5t-69.5 257t69.5 257t187.5 187.5t257 69.5t257 -69.5t187.5 -187.5t69.5 -257z" />
</svg>
