<?xml version="1.0" standalone="no"?>
<!DOCTYPE svg PUBLIC "-//W3C//DTD SVG 1.1//EN" "http://www.w3.org/Graphics/SVG/1.1/DTD/svg11.dtd" >
<svg xmlns="http://www.w3.org/2000/svg" xmlns:xlink="http://www.w3.org/1999/xlink" version="1.1" width="2048" height="2048" viewBox="-10 0 2058 2048">
   <path fill="currentColor"
d="M1231 0l615 615v1231q0 82 -60 142t-147 60h-1230q-87 0 -147 -60t-60 -142v-1644q0 -82 60 -142t147 -60h822zM1639 1846v-1130h-514v-514h-716v1644h1230zM971 817q192 0 327 134.5t135 327t-135 327t-327 134.5t-326.5 -134.5t-134.5 -327t134.5 -327t326.5 -134.5z
M971 971q-86 0 -154 43l419 419q43 -68 43 -154q0 -125 -89 -216.5t-219 -91.5zM663 1279q0 130 91.5 218.5t216.5 88.5q87 0 154 -43l-418 -418q-44 67 -44 154z" />
</svg>
