<?xml version="1.0" standalone="no"?>
<!DOCTYPE svg PUBLIC "-//W3C//DTD SVG 1.1//EN" "http://www.w3.org/Graphics/SVG/1.1/DTD/svg11.dtd" >
<svg xmlns="http://www.w3.org/2000/svg" xmlns:xlink="http://www.w3.org/1999/xlink" version="1.1" width="2048" height="2048" viewBox="-10 0 2068 2048">
   <path fill="currentColor"
d="M1433 101h-1231q-82 0 -142 60t-60 147v509q0 87 60 147t142 60h327q29 0 55.5 17t40.5 45q24 82 101 120.5t159 14.5q96 -34 129 -135q10 -28 36.5 -45t60.5 -17h322q86 0 146 -60t60 -147v-509q0 -87 -60 -147t-146 -60zM1433 817h-476q-20 -38 -56 -67t-84 -34
q-43 5 -79 34t-55 67h-481v-509h1231v509zM2048 0v1385q0 177 -89 331t-243 243t-331 89q-135 0 -255 -50.5t-217 -141.5q-153 38 -297.5 -19.5t-235.5 -182.5l197 -87q67 72 161 91.5t185 -19.5q29 -14 58 -33q62 -48 96 -120.5t29 -153.5l192 -87q34 144 -16.5 283.5
t-166.5 231.5q121 86 270 86q192 0 326.5 -134.5t134.5 -326.5v-1385h202z" />
</svg>
