<?xml version="1.0" standalone="no"?>
<!DOCTYPE svg PUBLIC "-//W3C//DTD SVG 1.1//EN" "http://www.w3.org/Graphics/SVG/1.1/DTD/svg11.dtd" >
<svg xmlns="http://www.w3.org/2000/svg" xmlns:xlink="http://www.w3.org/1999/xlink" version="1.1" width="2048" height="2048" viewBox="-10 0 2068 2048">
   <path fill="currentColor"
d="M1522 1151q170 0 288.5 119t118.5 288.5t-118.5 288t-288 118.5t-288.5 -118.5t-119 -288t119 -288.5t288 -119zM1522 1287q-76 0 -135 38l368 369q39 -59 39 -136q0 -110 -78.5 -190.5t-193.5 -80.5zM1251 1558q0 115 80.5 193.5t190.5 78.5q77 0 136 -39l-369 -368
q-38 59 -38 135zM1616 83q72 0 122 51l259 254q51 55 51 129.5t-51 129.5l-343 339q-64 -13 -132 -13q-106 0 -212 38l-352 -352l526 -525q55 -51 132 -51zM873 744l323 327q-119 80 -189 209.5t-70 277.5q0 68 13 132l-106 106q-51 55 -125 55t-130 -51l-76 76h-513
l335 -335q-55 -55 -55 -129t55 -129z" />
</svg>
