<?xml version="1.0" standalone="no"?>
<!DOCTYPE svg PUBLIC "-//W3C//DTD SVG 1.1//EN" "http://www.w3.org/Graphics/SVG/1.1/DTD/svg11.dtd" >
<svg xmlns="http://www.w3.org/2000/svg" xmlns:xlink="http://www.w3.org/1999/xlink" version="1.1" width="2048" height="2048" viewBox="-10 0 2068 2048">
   <path fill="currentColor"
d="M1947 358h101v-207h-101v-101h-308v101h-1230v-101h-308v101h-101v207h101v1438h-101v202h510v-202h-101v-1438h514v101h48v375q-38 10 -60 43.5t-22 71.5q0 73 63 106v125h62q29 0 48.5 17t19.5 43.5t-19.5 45.5t-50.5 19t-50 -29q-15 -24 -39 -31t-48 5t-31 38.5
t7 50.5q24 43 69.5 67t93.5 24q82 0 135 -55t53 -137q0 -58 -33.5 -106t-91.5 -67v-10q48 -24 62.5 -72t-9.5 -91q-19 -34 -53 -53v-380h48v-101h514v1438h-101v202h510v-202h-101v-1438zM308 1310v144l-106 106v-144zM202 1796v-82l106 -101v144l-39 39h-67zM202 493
l106 -106v144l-106 106v-144zM202 800l106 -105v144l-106 106v-145zM202 1108l106 -106v145l-106 105v-153v9zM1846 1310v144l-106 106v-144zM1740 1796v-82l106 -101v144l-38 39h-68zM1740 493l106 -106v144l-106 106v-144zM1740 800l106 -105v144l-106 106v-145z
M1740 1108l106 -106v145l-106 105v-153v9z" />
</svg>
