<?xml version="1.0" standalone="no"?>
<!DOCTYPE svg PUBLIC "-//W3C//DTD SVG 1.1//EN" "http://www.w3.org/Graphics/SVG/1.1/DTD/svg11.dtd" >
<svg xmlns="http://www.w3.org/2000/svg" xmlns:xlink="http://www.w3.org/1999/xlink" version="1.1" width="2048" height="2048" viewBox="-10 0 2058 2048">
   <path fill="currentColor"
d="M376 381q-38 -10 -38 -125q0 -58 14 -135l5 -4q115 -53 250 -87q254 -58 470 -5q293 77 475.5 360.5t153.5 518.5q-19 183 -163 331q-82 87 -250 188l-24 19q-105 67 -129 202q-15 72 0 182l4 29q0 38 -33.5 55t-42.5 -26q-24 -120 -15 -236q15 -211 149 -302
q293 -192 358 -401t-84 -492q-82 -159 -288 -236q-168 -57 -375 -52q-178 9 -254 48q-68 33 -120 120q-20 28 -32 40t-31 8zM794 1087l-24 -48q5 -68 -17 -101.5t-48 -21.5t-40.5 77t-0.5 166q10 38 -4.5 50t-36 5t-21.5 -12q-43 -173 -9.5 -264.5t119.5 -71.5q53 9 77 48
q19 24 24 62v29l43 -43q48 -43 87 -58q53 -24 72 10q67 96 5 225q-34 68 -106 145l-14 19q-15 14 -24.5 19t-24 -9.5t-14.5 -26.5t15 -31q129 -192 120 -245q-5 -39 -82 4.5t-96 72.5zM506 1365l29 43q33 48 81 87q63 53 130 67q86 19 178 -19q28 -10 42.5 -0.5t19.5 19.5
q10 34 -34 48q-139 48 -269 14q-100 -24 -187 -91q-62 -48 -81 -86q-34 -63 14 -91q24 -20 77 9zM453 1586q14 19 34 34q38 33 91 62q72 39 153 58q101 19 212 0q38 -5 47.5 38t-31 57.5t-127.5 9.5q-125 -4 -230 -48q-149 -57 -240 -187q-5 -10 9.5 -24t26.5 -14t36 7t19 7
zM448 1783q77 101 192 149q101 43 202 40.5t154 -40.5q14 -10 26 7t2 26q-91 92 -244 82q-125 -5 -260 -72q-115 -58 -144 -96q-9 -24 -9 -50.5t14 -41t36 -12t31 7.5z" />
</svg>
