<?xml version="1.0" standalone="no"?>
<!DOCTYPE svg PUBLIC "-//W3C//DTD SVG 1.1//EN" "http://www.w3.org/Graphics/SVG/1.1/DTD/svg11.dtd" >
<svg xmlns="http://www.w3.org/2000/svg" xmlns:xlink="http://www.w3.org/1999/xlink" version="1.1" width="2048" height="2048" viewBox="-10 0 2068 2048">
   <path fill="currentColor"
d="M921 739l412 -413l389 389l-413 412l-139 -144l264 -278l-91 -91l-269 264zM2019 264l-235 -235q-33 -29 -74 -29t-70 29l-187 187l389 388l177 -196q29 -20 29 -65.5t-29 -78.5zM1842 1914l-130 134l-666 -667l-451 461h-389v-389l461 -460l-667 -657l134 -130z
M902 1237l-91 -91l-399 398v92h92z" />
</svg>
