<?xml version="1.0" standalone="no"?>
<!DOCTYPE svg PUBLIC "-//W3C//DTD SVG 1.1//EN" "http://www.w3.org/Graphics/SVG/1.1/DTD/svg11.dtd" >
<svg xmlns="http://www.w3.org/2000/svg" xmlns:xlink="http://www.w3.org/1999/xlink" version="1.1" width="2048" height="2048" viewBox="-10 0 2068 2048">
   <path fill="currentColor"
d="M1371 779l92 87l-887 887h-91v-87zM1723 194q-36 0 -68 28l-174 178l361 370l174 -187q32 -28 32 -66.5t-32 -70.5l-224 -224q-27 -28 -69 -28zM1371 505l-1078 1074v371h370l1070 -1084zM585 391v-50q0 -101 -71 -172t-173.5 -71t-173.5 71t-71 172v50q-46 0 -71 25
t-25 71v388q0 46 25 73.5t71 27.5h489q41 0 68.5 -27.5t27.5 -73.5v-388q0 -46 -27.5 -71t-68.5 -25zM485 391h-293v-50q0 -60 45.5 -103.5t103 -43.5t101 43.5t43.5 103.5v50z" />
</svg>
