<?xml version="1.0" standalone="no"?>
<!DOCTYPE svg PUBLIC "-//W3C//DTD SVG 1.1//EN" "http://www.w3.org/Graphics/SVG/1.1/DTD/svg11.dtd" >
<svg xmlns="http://www.w3.org/2000/svg" xmlns:xlink="http://www.w3.org/1999/xlink" version="1.1" width="2048" height="2048" viewBox="-10 0 2068 2048">
   <path fill="currentColor"
d="M1907 0l-1907 1907l136 141l530 -525q247 227 565 348.5t656 121.5q45 0 75.5 -30.5t30.5 -75.5v-379q0 -45 -30.5 -75.5t-75.5 -30.5q-202 0 -384 -60q-65 -20 -111 25l-237 237q-181 -91 -338 -237l1231 -1231zM161 55q-45 0 -75.5 30.5t-30.5 75.5q0 288 88.5 563
t260.5 507l151 -152q-61 -85 -111 -186l237 -237q45 -46 25 -111q-60 -182 -60 -384q0 -45 -30.5 -75.5t-75.5 -30.5h-379z" />
</svg>
