<?xml version="1.0" standalone="no"?>
<!DOCTYPE svg PUBLIC "-//W3C//DTD SVG 1.1//EN" "http://www.w3.org/Graphics/SVG/1.1/DTD/svg11.dtd" >
<svg xmlns="http://www.w3.org/2000/svg" xmlns:xlink="http://www.w3.org/1999/xlink" version="1.1" width="2048" height="2048" viewBox="-10 0 2068 2048">
   <path fill="currentColor"
d="M1962 550q-10 14 -35 39q-39 44 -39 68.5t44 78.5l15 25l25 20q39 44 54 64q24 34 21.5 66t-36.5 76q-20 25 -74 79l-428 428l-147 -133l442 -443l-108 -103l-147 148l-399 -404l423 -398q30 -29 71.5 -29t76.5 29l241 241q29 34 29 81t-29 67zM103 1621l1008 -1008
l389 399l-999 1008h-398v-399zM521 28v315h315v207h-315v314h-206v-314h-315v-207h315v-315h206z" />
</svg>
