<?xml version="1.0" standalone="no"?>
<!DOCTYPE svg PUBLIC "-//W3C//DTD SVG 1.1//EN" "http://www.w3.org/Graphics/SVG/1.1/DTD/svg11.dtd" >
<svg xmlns="http://www.w3.org/2000/svg" xmlns:xlink="http://www.w3.org/1999/xlink" version="1.1" width="2048" height="2048" viewBox="-10 0 2068 2048">
   <path fill="currentColor"
d="M1962 498q-10 15 -35 39q-39 45 -39 69.5t44 78.5l15 24l25 20q39 44 54 64q24 34 21.5 66t-36.5 77q-20 24 -74 78l-428 428l-147 -133l442 -442l-108 -104l-147 148l-399 -403l423 -398q30 -30 71.5 -30t76.5 30l241 240q29 35 29 81.5t-29 66.5zM103 1570l1008 -1008
l389 398l-999 1008h-398v-398zM836 291v207h-836v-207h836z" />
</svg>
