<?xml version="1.0" standalone="no"?>
<!DOCTYPE svg PUBLIC "-//W3C//DTD SVG 1.1//EN" "http://www.w3.org/Graphics/SVG/1.1/DTD/svg11.dtd" >
<svg xmlns="http://www.w3.org/2000/svg" xmlns:xlink="http://www.w3.org/1999/xlink" version="1.1" width="2048" height="2048" viewBox="-10 0 2068 2048">
   <path fill="currentColor"
d="M1685 57q-47 0 -78 31l-202 202l410 420l202 -212q31 -31 31 -75.5t-31 -80.5l-254 -254q-36 -31 -78 -31zM1286 410l-1229 1218v420h420l1218 -1229zM378 1825h-98v-98l1006 -1006l98 98zM156 0l233 233l233 -233l156 156l-234 233l234 233l-156 156l-233 -234l-233 234
l-156 -156l233 -233l-233 -233z" />
</svg>
