<?xml version="1.0" standalone="no"?>
<!DOCTYPE svg PUBLIC "-//W3C//DTD SVG 1.1//EN" "http://www.w3.org/Graphics/SVG/1.1/DTD/svg11.dtd" >
<svg xmlns="http://www.w3.org/2000/svg" xmlns:xlink="http://www.w3.org/1999/xlink" version="1.1" width="2048" height="2048" viewBox="-10 0 2068 2048">
   <path fill="currentColor"
d="M1846 1021q-385 -192 -947 -279l-111 -346q-19 -53 -72 -74.5t-103.5 0t-69.5 74.5l-106 317q-182 29 -309.5 175.5t-127.5 339.5q0 139 67.5 257t185 185t257.5 67l125 -4q153 -10 312 -34q226 -34 428 -91q260 -73 471 -178l53 -29q58 -39 96 -77q53 -53 53 -98.5
t-53 -98.5q-38 -39 -96 -77zM308 1228q-48 0 -77 -29t-29 -74.5t29 -74.5t74.5 -29t74.5 29t29 72t-29 74.5t-72 31.5zM510 1535q-44 0 -72.5 -28.5t-28.5 -74.5t28.5 -74.5t74.5 -28.5t74.5 28.5t28.5 72t-28.5 74.5t-76.5 31zM716 1228q-48 0 -74.5 -29t-26.5 -74.5
t26.5 -74.5t74.5 -29t74.5 29t26.5 72t-28.5 74.5t-72.5 31.5zM923 1535q-48 0 -77 -28.5t-29 -74.5t29 -74.5t74.5 -28.5t74.5 28.5t29 72t-29 74.5t-72 31zM1433 1228q-44 0 -72.5 -29t-28.5 -74.5t28.5 -74.5t74.5 -29t74.5 29t28.5 72t-28.5 74.5t-76.5 31.5zM1740 1329
q-43 0 -72 -29t-29 -74.5t29 -74.5t74.5 -29t74.5 29t29 72t-29 74.5t-77 31.5z" />
</svg>
