<?xml version="1.0" standalone="no"?>
<!DOCTYPE svg PUBLIC "-//W3C//DTD SVG 1.1//EN" "http://www.w3.org/Graphics/SVG/1.1/DTD/svg11.dtd" >
<svg xmlns="http://www.w3.org/2000/svg" xmlns:xlink="http://www.w3.org/1999/xlink" version="1.1" width="2048" height="2048" viewBox="-10 0 2068 2048">
   <path fill="currentColor"
d="M202 202q-82 0 -142 60t-60 147v514h625q38 -139 149 -223.5t250 -84.5t250 84.5t149 223.5h625v-514q0 -87 -60 -147t-142 -60h-1644zM1024 817q-87 0 -147 60t-60 147t60 147t147 60t147 -60t60 -147t-60 -147t-147 -60zM0 1125v514q0 87 60 147t142 60h1644
q82 0 142 -60t60 -147v-514h-625q-38 139 -149 223.5t-250 84.5t-250 -84.5t-149 -223.5h-625z" />
</svg>
