<?xml version="1.0" standalone="no"?>
<!DOCTYPE svg PUBLIC "-//W3C//DTD SVG 1.1//EN" "http://www.w3.org/Graphics/SVG/1.1/DTD/svg11.dtd" >
<svg xmlns="http://www.w3.org/2000/svg" xmlns:xlink="http://www.w3.org/1999/xlink" version="1.1" width="2048" height="2048" viewBox="-10 0 2058 2048">
   <path fill="currentColor"
d="M1178 1538v202l-154 308l-154 -308zM1279 437l-101 73v-101h-308v307l-101 72v101l510 -336v-116zM1279 851l-101 72v-207l-308 207v202l-101 72v106l510 -341v-111zM1279 1260l-101 72v-207l-308 207v206l-101 73v100l510 -336v-115zM615 0h-28q-29 10 -49 29
q-28 29 -28 72l307 207h414l307 -207l-4 -29q-10 -29 -29 -48q-24 -24 -72 -24h-818z" />
</svg>
