<?xml version="1.0" standalone="no"?>
<!DOCTYPE svg PUBLIC "-//W3C//DTD SVG 1.1//EN" "http://www.w3.org/Graphics/SVG/1.1/DTD/svg11.dtd" >
<svg xmlns="http://www.w3.org/2000/svg" xmlns:xlink="http://www.w3.org/1999/xlink" version="1.1" width="2048" height="2048" viewBox="-10 0 2058 2048">
   <path fill="currentColor"
d="M894 995q39 106 24 183q-24 91 -125 125q-182 67 -288 -43q-58 -58 -77 -144l-5 -5zM380 914l442 -111q-9 -67 0 -202q10 -91 10 -139q0 -96 -43 -207q-49 -125 -121 -192q-91 -82 -187 -58q-168 39 -236 207q-52 125 -43 264q10 111 164 409zM1625 1827q-10 38 -34 82
q-38 81 -110 115q-92 48 -226 0q-101 -38 -120 -130q-20 -77 19 -182zM1846 1193q9 -140 -43 -260q-68 -168 -231 -211q-101 -24 -188 52q-76 73 -125 197q-43 111 -43 207q0 48 10 144q14 135 5 197l437 111l10 -19q158 -303 168 -418z" />
</svg>
