<?xml version="1.0" standalone="no"?>
<!DOCTYPE svg PUBLIC "-//W3C//DTD SVG 1.1//EN" "http://www.w3.org/Graphics/SVG/1.1/DTD/svg11.dtd" >
<svg xmlns="http://www.w3.org/2000/svg" xmlns:xlink="http://www.w3.org/1999/xlink" version="1.1" width="2048" height="2048" viewBox="-10 0 2068 2048">
   <path fill="currentColor"
d="M2048 2038h-2048v-202h2048v202zM428 1558l-72 72l-144 -144l-140 144l-72 -72l144 -145l-144 -144l72 -72l140 144l144 -144l72 72l-144 144zM1457 1264q0 -91 -221 -202q-274 -139 -377.5 -225.5t-103.5 -192.5q0 -274 281 -454t454 -180q116 0 168.5 38.5t52.5 134.5
q0 43 -38 74t-57.5 31t-67.5 -28l-58 -29q-72 0 -290.5 103t-218.5 233q0 77 77 142t274 156q163 72 257 156.5t94 199.5q0 207 -291 324.5t-555 117.5q-222 0 -222 -149q0 -53 50.5 -77t103.5 -24l149 24q154 0 327 -50.5t212 -122.5z" />
</svg>
