<?xml version="1.0" standalone="no"?>
<!DOCTYPE svg PUBLIC "-//W3C//DTD SVG 1.1//EN" "http://www.w3.org/Graphics/SVG/1.1/DTD/svg11.dtd" >
<svg xmlns="http://www.w3.org/2000/svg" xmlns:xlink="http://www.w3.org/1999/xlink" version="1.1" width="2048" height="2048" viewBox="-10 0 2058 2048">
   <path fill="currentColor"
d="M1178 1538v202l-154 308l-154 -308zM1279 437l-101 73v-101h-308v307l-101 72v101l510 -336v-116zM1279 851l-101 72v-207l-308 207v202l-101 72v106l510 -341v-111zM1279 1260l-101 72v-207l-308 207v206l-101 73v100l510 -336v-115zM510 308h1028l-24 -48
q-33 -58 -81 -106q-68 -67 -154 -106q-116 -48 -255 -48q-255 0 -409 154q-77 77 -105 154z" />
</svg>
