<?xml version="1.0" standalone="no"?>
<!DOCTYPE svg PUBLIC "-//W3C//DTD SVG 1.1//EN" "http://www.w3.org/Graphics/SVG/1.1/DTD/svg11.dtd" >
<svg xmlns="http://www.w3.org/2000/svg" xmlns:xlink="http://www.w3.org/1999/xlink" version="1.1" width="2048" height="2048" viewBox="-10 0 2058 2048">
   <path fill="currentColor"
d="M368 0q292 0 452.5 160.5t174.5 442.5q34 -196 144 -297q76 -76 186 -91q58 -9 96 -4q10 181 -119 296q-120 110 -307 120q-28 -62 -148 -187q-86 -86 -206 -196l-105 -96l19 24q129 120 211 211q143 162 134 244q-211 -24 -355 -172q-162 -168 -177 -455zM412 1134
l397 -397q86 -86 215 -86t215 86l393 397q91 86 91 213t-91 218l-393 392q-86 91 -215 91t-215 -91l-397 -392q-87 -91 -87 -218t87 -213zM751 1794q0 -110 67 -186q72 -96 211 -96q62 0 191 57q82 34 120 44q67 19 119 14q-114 -5 -195.5 -81.5t-81.5 -200.5q0 -43 14 -91
q10 -29 38.5 -91t38.5 -96q19 -62 19 -115q-5 91 -67 163q-81 86 -206 86q-48 0 -100 -19q-29 -10 -96 -38.5t-100 -38.5q-67 -24 -125 -24q81 5 163 63q105 81 105 215q0 57 -14 105q-10 29 -38.5 89t-43.5 103q-19 62 -19 138z" />
</svg>
