<?xml version="1.0" standalone="no"?>
<!DOCTYPE svg PUBLIC "-//W3C//DTD SVG 1.1//EN" "http://www.w3.org/Graphics/SVG/1.1/DTD/svg11.dtd" >
<svg xmlns="http://www.w3.org/2000/svg" xmlns:xlink="http://www.w3.org/1999/xlink" version="1.1" width="2048" height="2048" viewBox="-10 0 2068 2048">
   <path fill="currentColor"
d="M2048 738v908q0 75 -53.5 128.5t-129.5 53.5h-1682q-76 0 -129.5 -53.5t-53.5 -128.5v-908q46 52 115 100q389 264 568 394q47 36 78 56.5t78.5 47.5t93.5 40.5t90 13.5h1h1q44 0 90 -13.5t93.5 -40.5t78.5 -47.5t78 -56.5q212 -154 569 -394q69 -49 114 -100zM2048 402
q0 90 -56 173t-139 141q-383 264 -535 372q-11 7 -48 34t-61.5 43.5t-59.5 37t-66.5 31t-57.5 10.5h-1h-1q-26 0 -57.5 -10.5t-66.5 -31t-59.5 -37t-61.5 -43.5t-48 -34q-142 -101 -533 -372q-71 -48 -134 -132.5t-63 -155.5q0 -90 48 -149t135 -59h1682q75 0 129 53.5
t54 128.5z" />
</svg>
