<?xml version="1.0" standalone="no"?>
<!DOCTYPE svg PUBLIC "-//W3C//DTD SVG 1.1//EN" "http://www.w3.org/Graphics/SVG/1.1/DTD/svg11.dtd" >
<svg xmlns="http://www.w3.org/2000/svg" xmlns:xlink="http://www.w3.org/1999/xlink" version="1.1" width="2048" height="2048" viewBox="-10 0 2069 2048">
   <path fill="currentColor"
d="M578 854q0 43 5 67l24 43q5 10 5 19.5t-14 18.5l-44 29q-9 5 -16.5 5t-21.5 -12t-24 -31l-19 -39q-82 96 -202 96q-86 0 -136.5 -50t-50.5 -132t64.5 -137t165.5 -55q29 0 70 4.5t79 14.5v-48q0 -77 -31 -108t-108 -31q-38 0 -79 9.5t-70 19.5l-34 9q-14 0 -14 -19v-34
q0 -14 5 -21t19 -12q34 -24 84.5 -36t107.5 -12q120 0 177.5 55t57.5 170v217zM300 959q34 0 70 -12t64 -45q20 -20 29 -44l5 -86q-14 -5 -38 -5l-24 -5l-68 -4q-67 0 -100.5 26t-33.5 76.5t24 74.5t72 24zM847 1031q-14 0 -23.5 -9.5t-14.5 -19.5l-163 -533l-5 -24
q0 -19 19 -19h62q24 0 31.5 7.5t12.5 31.5l115 446l106 -446q4 -24 14 -31.5t24 -7.5h58q19 0 26 7.5t12 31.5l110 456l116 -456q4 -20 14 -29.5t24 -9.5h67q15 0 15 19l-168 557q-10 20 -17 27t-27 7h-57q-15 0 -27 -9.5t-12 -24.5l-105 -441l-106 437q-5 19 -14.5 26
t-28.5 7h-58zM1726 1050q-58 0 -108 -12t-74 -26q-20 -10 -24.5 -19.5t-4.5 -18.5v-34q0 -19 14 -19h15l19 5q33 19 74 26t79 7q68 0 101.5 -24t33.5 -62q0 -29 -19.5 -48t-67.5 -34l-100 -33q-77 -24 -108.5 -70t-31.5 -99q0 -43 17 -74t50.5 -55t72 -36t81.5 -12h48l43 9
l39 10l29 14q14 10 21 17t7 22v33q0 20 -12 20t-31 -5q-57 -29 -129 -29q-58 0 -91.5 19t-33.5 63q0 28 19 47.5t77 38.5l96 29q72 19 105.5 62.5t33.5 100.5q0 39 -19 77t-48 60t-74.5 36t-98.5 14zM1851 1382q-163 120 -394 192q-216 62 -432 62q-293 0 -552.5 -100.5
t-460.5 -283.5q-19 -14 -7 -28.5t26 -5.5q226 130 485 199.5t528 69.5q408 0 778 -158q29 -10 43.5 12t-14.5 41zM1947 1276q-29 -34 -255 -10h-9q-15 5 -17 -7t12 -21q58 -44 144 -58q72 -10 139 0t79.5 24t5 81.5t-41.5 134.5q-33 77 -91 125q-14 10 -23.5 7.5t-5.5 -17.5
l5 -4q87 -217 58 -255z" />
</svg>
