<?xml version="1.0" standalone="no"?>
<!DOCTYPE svg PUBLIC "-//W3C//DTD SVG 1.1//EN" "http://www.w3.org/Graphics/SVG/1.1/DTD/svg11.dtd" >
<svg xmlns="http://www.w3.org/2000/svg" xmlns:xlink="http://www.w3.org/1999/xlink" version="1.1" width="2048" height="2048" viewBox="-10 0 2058 2048">
   <path fill="currentColor"
d="M1539 1123v-614h202v614h-202zM1539 1536v-206h202v206h-202zM1126 1123v-816q0 -134 -86 -220.5t-218 -86.5t-221 86.5t-89 220.5v816q-110 87 -163 214t-38.5 261.5t101 245t211 163t259 38.5t247.5 -100.5t165.5 -211.5t36 -259.5t-98.5 -244.5q-43 -63 -106 -106z
M819 202q48 0 77 28.5t29 76.5v307h-207v-307q0 -48 29 -76.5t72 -28.5z" />
</svg>
