<?xml version="1.0" standalone="no"?>
<!DOCTYPE svg PUBLIC "-//W3C//DTD SVG 1.1//EN" "http://www.w3.org/Graphics/SVG/1.1/DTD/svg11.dtd" >
<svg xmlns="http://www.w3.org/2000/svg" xmlns:xlink="http://www.w3.org/1999/xlink" version="1.1" width="2048" height="2048" viewBox="-10 0 2068 2048">
   <path fill="currentColor"
d="M1024 2048q-202 0 -392 -77t-334 -221t-221 -334t-77 -392t77 -392t221 -334t334 -221t392 -77q279 0 514.5 122.5t372.5 334t137 466.5q0 163 -81.5 305t-223.5 226t-310 84h-183q-24 0 -38.5 14.5t-14.5 33.5q0 5 5 17t5 17q62 77 62 173q10 106 -62 180.5t-183 74.5z
M1024 202q-221 0 -411 110.5t-300.5 300.5t-110.5 411t110.5 411t300.5 300.5t411 110.5q24 0 38.5 -14.5t14.5 -38.5q0 -9 -10 -29v-14q-62 -77 -62 -164q0 -105 74.5 -179.5t180.5 -74.5h173q173 0 293 -120.5t120 -288.5q0 -197 -110.5 -363t-300.5 -262t-411 -96z
M462 817q57 0 105 48t48 108.5t-48 106t-108 45.5t-105.5 -45.5t-45.5 -106t45.5 -108.5t108.5 -48zM769 409q58 0 106 45.5t48 108t-48 108t-108 45.5t-106 -45.5t-46 -108t46 -108t108 -45.5zM1279 409q62 0 108 45.5t46 108t-46 108t-106 45.5t-108 -45.5t-48 -108
t48 -108t106 -45.5zM1586 817q63 0 108.5 48t45.5 108.5t-45.5 106t-105.5 45.5t-108 -45.5t-48 -106t48 -108.5t105 -48z" />
</svg>
