<?xml version="1.0" standalone="no"?>
<!DOCTYPE svg PUBLIC "-//W3C//DTD SVG 1.1//EN" "http://www.w3.org/Graphics/SVG/1.1/DTD/svg11.dtd" >
<svg xmlns="http://www.w3.org/2000/svg" xmlns:xlink="http://www.w3.org/1999/xlink" version="1.1" width="2048" height="2048" viewBox="-10 0 2068 2048">
   <path fill="currentColor"
d="M1100 406q-38 114 -106 233l119 123q106 -170 161 -356h275v-186h-652v-186h-186v186h-136l187 186h338zM1401 1045l135 136l59 -153l127 339l301 300l-335 -888h-186zM118 0l-118 118l102 102h-43v186h229l186 186h-72q106 233 279 424l-474 469l132 131l465 -465
l288 288l63 -165l119 118l-191 504h186l106 -280h123l432 432l118 -118z" />
</svg>
