<?xml version="1.0" standalone="no"?>
<!DOCTYPE svg PUBLIC "-//W3C//DTD SVG 1.1//EN" "http://www.w3.org/Graphics/SVG/1.1/DTD/svg11.dtd" >
<svg xmlns="http://www.w3.org/2000/svg" xmlns:xlink="http://www.w3.org/1999/xlink" version="1.1" width="2048" height="2048" viewBox="-10 0 2068 2048">
   <path fill="currentColor"
d="M1888 1762l-1371 -1371l-394 -389l-123 119l334 338l-151 444v777q0 41 27.5 71t68.5 30h100q42 0 69 -30t27 -71v-96h988l462 462l123 -124zM526 1291q-64 0 -105.5 -43t-41.5 -102.5t41.5 -103t103 -43.5t105 43.5t43.5 103t-43.5 102.5t-102.5 43zM379 802l74 -224
l228 224h-302zM1595 363l147 439h-563l284 288q27 -55 84.5 -75.5t112 5t73 82.5t-6.5 109.5t-67 70.5l279 284v-663l-201 -585q-18 -46 -54.5 -73.5t-87.5 -27.5h-1001l147 146h854z" />
</svg>
