<?xml version="1.0" standalone="no"?>
<!DOCTYPE svg PUBLIC "-//W3C//DTD SVG 1.1//EN" "http://www.w3.org/Graphics/SVG/1.1/DTD/svg11.dtd" >
<svg xmlns="http://www.w3.org/2000/svg" xmlns:xlink="http://www.w3.org/1999/xlink" version="1.1" width="2048" height="2048" viewBox="-10 0 2058 2048">
   <path fill="currentColor"
d="M1074 1434h413v-307l508 461l-508 460v-307h-413v-307zM1180 1002q-86 -81 -211 -81t-213.5 88.5t-88.5 218.5q0 101 57.5 177.5t148.5 110.5q5 -163 86.5 -300t220.5 -214zM883 1636h-624v-1430h1142l287 288v460q120 44 207 125v-671l-408 -408h-1228q-86 0 -146 60
t-60 146v1430q0 86 60 146t146 60h695q-57 -96 -71 -206zM360 715h921v-408h-921v408z" />
</svg>
