<?xml version="1.0" standalone="no"?>
<!DOCTYPE svg PUBLIC "-//W3C//DTD SVG 1.1//EN" "http://www.w3.org/Graphics/SVG/1.1/DTD/svg11.dtd" >
<svg xmlns="http://www.w3.org/2000/svg" xmlns:xlink="http://www.w3.org/1999/xlink" version="1.1" width="2048" height="2048" viewBox="-10 0 2068 2048">
   <path fill="currentColor"
d="M1125 909q43 0 74.5 28.5t31.5 72t-31.5 72.5t-74.5 29t-72 -29t-29 -72.5t29 -72t72 -28.5zM601 418q101 -106 235.5 -168.5t288.5 -62.5q178 0 332 82t254.5 224t124.5 310h212v207h-615q0 -130 -89 -219t-216.5 -89t-219 89t-91.5 219h-817v-207h5q29 -346 250 -616z
M486 587l-174 -116q-86 159 -100 332h201q20 -116 73 -216zM553 1361l-144 -145h596q14 29 47.5 50.5t72 21.5t72.5 -21.5t53 -50.5h596v145q-77 -49 -115 -39q-29 10 -39 39l-5 33v202l-201 202q-34 -115 -92 -111q-29 5 -53 29l-144 145h-284q63 -101 20 -140
q-24 -19 -58 -19h-202l-202 -202q116 -29 111 -87q-5 -33 -29 -52z" />
</svg>
