<?xml version="1.0" standalone="no"?>
<!DOCTYPE svg PUBLIC "-//W3C//DTD SVG 1.1//EN" "http://www.w3.org/Graphics/SVG/1.1/DTD/svg11.dtd" >
<svg xmlns="http://www.w3.org/2000/svg" xmlns:xlink="http://www.w3.org/1999/xlink" version="1.1" width="2048" height="2048" viewBox="-10 0 2058 2048">
   <path fill="currentColor"
d="M1487 0h-1228q-86 0 -146 60t-60 146v1430q0 86 60 146t146 60h695q-62 -101 -76 -221q-120 -43 -175.5 -155.5t-16.5 -232.5q33 -96 112.5 -153.5t175.5 -57.5q67 0 129 33q178 -139 401 -132t391 156v-671zM1281 614h-1022v-408h1022v408zM1074 1434h413v-307l508 461
l-508 460v-307h-413v-307z" />
</svg>
