<?xml version="1.0" standalone="no"?>
<!DOCTYPE svg PUBLIC "-//W3C//DTD SVG 1.1//EN" "http://www.w3.org/Graphics/SVG/1.1/DTD/svg11.dtd" >
<svg xmlns="http://www.w3.org/2000/svg" xmlns:xlink="http://www.w3.org/1999/xlink" version="1.1" width="2048" height="2048" viewBox="-10 0 2058 2048">
   <path fill="currentColor"
d="M1231 0l615 615v1231q0 82 -60 142t-147 60h-1230q-87 0 -147 -60t-60 -142v-1644q0 -82 60 -142t147 -60h822zM1639 1846v-1130h-514v-514h-716v1644h1230zM1125 817v207h-202v514q0 82 -60 142t-146.5 60t-146.5 -60t-60 -144t60 -144t146 -60q58 0 101 29v-544h308z
" />
</svg>
