<?xml version="1.0" standalone="no"?>
<!DOCTYPE svg PUBLIC "-//W3C//DTD SVG 1.1//EN" "http://www.w3.org/Graphics/SVG/1.1/DTD/svg11.dtd" >
<svg xmlns="http://www.w3.org/2000/svg" xmlns:xlink="http://www.w3.org/1999/xlink" version="1.1" width="2048" height="2048" viewBox="-10 0 2068 2048">
   <path fill="currentColor"
d="M2048 1024.5q0 138.5 -37 271t-103 245t-160.5 207t-207 160.5t-245 103t-270.5 37q-230 0 -436.5 -96.5t-352.5 -272.5q-10 -13 -9 -29.5t12 -27.5l182 -184q14 -12 34 -12q21 2 30 15q99 127 239.5 196.5t300.5 69.5q138 0 264.5 -54t218 -145.5t145.5 -218t54 -265
t-54 -265t-145.5 -218t-218 -146t-264.5 -54.5q-131 0 -251 48t-214 135l183 184q19 18 24 44t-5 49t-31.5 37.5t-47.5 14.5h-598q-35 0 -60 -25t-25 -60v-598q0 -26 15 -47t39 -31q22 -10 48 -5t44 24l173 171q141 -134 325.5 -208t380.5 -74q138 0 270.5 37t245 103
t207 161t160.5 207.5t103 245t37 271z" />
</svg>
