<?xml version="1.0" standalone="no"?>
<!DOCTYPE svg PUBLIC "-//W3C//DTD SVG 1.1//EN" "http://www.w3.org/Graphics/SVG/1.1/DTD/svg11.dtd" >
<svg xmlns="http://www.w3.org/2000/svg" xmlns:xlink="http://www.w3.org/1999/xlink" version="1.1" width="2048" height="2048" viewBox="-10 0 2068 2048">
   <path fill="currentColor"
d="M2048 1998h-2048v-202h2048v202zM2048 358h-2048v-308h2048v308zM1846 459v1231h-308v-817l-77 -29q-96 -29 -192 -48q-130 -29 -245 -29t-245 29q-96 19 -192 48l-77 29v817h-308v-1231h1644zM1279 1248l38 67q34 77 14.5 158.5t-81.5 139.5q-53 48 -122.5 65t-142 9.5
t-130 -48.5t-91.5 -98q-24 -34 -33 -77l-15 -67q-4 -77 24.5 -149.5t86.5 -115.5q-29 53 -22 118t46 113l5 10q14 9 28.5 2t14.5 -22v-14q-43 -106 -12 -219t118 -185q53 -43 110 -58q-33 63 -23.5 135t62.5 120l91 77zM1139 1531q44 -43 39 -101v-19q-10 -43 -58 -87
q-34 -24 -43 -43l-24 -48q-19 43 -10 96l5 29q10 43 5 72t-29 55.5t-62 36.5q24 24 57.5 36t71.5 2z" />
</svg>
