<?xml version="1.0" standalone="no"?>
<!DOCTYPE svg PUBLIC "-//W3C//DTD SVG 1.1//EN" "http://www.w3.org/Graphics/SVG/1.1/DTD/svg11.dtd" >
<svg xmlns="http://www.w3.org/2000/svg" xmlns:xlink="http://www.w3.org/1999/xlink" version="1.1" width="2048" height="2048" viewBox="-10 0 2068 2048">
   <path fill="currentColor"
d="M375 654q152 0 261 108.5t109 261.5t-109 261.5t-263.5 108.5t-263.5 -108.5t-109 -261.5t109 -261.5t266 -108.5zM1024 0q153 0 261.5 109t108.5 263.5t-108.5 263.5t-261.5 109t-261.5 -109t-108.5 -263.5t108.5 -263.5t261.5 -109zM1024 1303q153 0 261.5 109
t108.5 263.5t-108.5 263.5t-261.5 109t-261.5 -109t-108.5 -263.5t108.5 -263.5t261.5 -109zM1673 654q157 0 266 108.5t109 261.5t-109 261.5t-263.5 108.5t-263.5 -108.5t-109 -261.5t109 -261.5t261 -108.5zM1673 837q-74 0 -128.5 54.5t-54.5 132.5t54.5 132.5t131 54.5
t131 -54.5t54.5 -132.5t-54.5 -132.5t-133.5 -54.5zM1024 1490q-78 0 -132.5 54.5t-54.5 131t54.5 131t132.5 54.5t132.5 -54.5t54.5 -131t-54.5 -131t-132.5 -54.5zM1024 187q-78 0 -132.5 54.5t-54.5 131t54.5 131t132.5 54.5t132.5 -54.5t54.5 -131t-54.5 -131
t-132.5 -54.5z" />
</svg>
