<?xml version="1.0" standalone="no"?>
<!DOCTYPE svg PUBLIC "-//W3C//DTD SVG 1.1//EN" "http://www.w3.org/Graphics/SVG/1.1/DTD/svg11.dtd" >
<svg xmlns="http://www.w3.org/2000/svg" xmlns:xlink="http://www.w3.org/1999/xlink" version="1.1" width="2048" height="2048" viewBox="-10 0 2068 2048">
   <path fill="currentColor"
d="M320 1547l-149 -150l885 -885l480 480l-885 885l-160 -160q-54 16 -80 48q-11 16 -11 27l-21 48q-27 53 -48.5 85t-40 51t-40 32t-31.5 19q-64 21 -192 21h-27v-229h101q22 0 32 -6l6 -5q10 -11 21 -32l27 -75q21 -48 48 -80l42 -42q27 -22 43 -32zM2048 0l-128 933
l-805 -805z" />
</svg>
