<?xml version="1.0" standalone="no"?>
<!DOCTYPE svg PUBLIC "-//W3C//DTD SVG 1.1//EN" "http://www.w3.org/Graphics/SVG/1.1/DTD/svg11.dtd" >
<svg xmlns="http://www.w3.org/2000/svg" xmlns:xlink="http://www.w3.org/1999/xlink" version="1.1" width="2048" height="2048" viewBox="-10 0 2067 2048">
   <path fill="currentColor"
d="M2047 1770q0 63 -43 106l-127 128q-46 44 -108 44q-61 0 -105 -44l-430 -431q-45 -44 -45 -107q0 -62 50 -112l-302 -304l-149 149q-17 17 -40.5 17t-40.5 -17q3 3 15 14.5t15 15t12 13.5t11.5 16t7.5 16t6.5 20t1.5 21q0 46 -33 81q-6 5 -20.5 21.5t-22 24t-22 20
t-25 18.5t-26 10.5t-30.5 4.5q-48 0 -81 -33l-482 -482q-33 -33 -33 -81q0 -15 5 -30.5t10.5 -26.5t18.5 -26t19.5 -21.5t23.5 -22t22 -20.5q35 -33 80 -33q11 0 21 1.5t20 6.5t16 7.5t16 11.5t13 12l15 15t14 15q-16 -17 -16 -40q0 -24 16 -40l412 -412q17 -17 40.5 -17
t40.5 17l-14 -14l-15 -15t-12 -13.5t-12 -16.5t-7.5 -16t-6 -19.5t-1.5 -21.5q0 -46 33 -81q5 -5 20 -21t22 -23.5t21.5 -20t25.5 -18.5t26 -11t31 -5q47 0 81 33l482 483q33 34 33 80q0 16 -5 31t-11 26t-18.5 26t-19.5 21.5t-24 22.5t-21 20q-35 33 -80 33
q-12 0 -21.5 -1.5t-19.5 -6t-16 -7.5t-16.5 -12t-13.5 -12l-15 -15l-14 -14q16 16 16 40q0 23 -16 40l-149 149l302 303q51 -51 114 -51q62 0 108 44l429 429q43 45 43 108z" />
</svg>
