<?xml version="1.0" standalone="no"?>
<!DOCTYPE svg PUBLIC "-//W3C//DTD SVG 1.1//EN" "http://www.w3.org/Graphics/SVG/1.1/DTD/svg11.dtd" >
<svg xmlns="http://www.w3.org/2000/svg" xmlns:xlink="http://www.w3.org/1999/xlink" version="1.1" width="2048" height="2048" viewBox="-10 0 2068 2048">
   <path fill="currentColor"
d="M202 615h413v-413q0 -82 60.5 -142t141.5 -60h414q81 0 141.5 60t60.5 142v413h413q82 0 142 60.5t60 141.5v414q0 81 -60 141.5t-142 60.5h-413v413q0 82 -60.5 142t-141.5 60h-414q-81 0 -141.5 -60t-60.5 -142v-413h-413q-82 0 -142 -60.5t-60 -141.5v-414
q0 -81 60 -141.5t142 -60.5zM1433 817v414h413v-414h-413z" />
</svg>
