<?xml version="1.0" standalone="no"?>
<!DOCTYPE svg PUBLIC "-//W3C//DTD SVG 1.1//EN" "http://www.w3.org/Graphics/SVG/1.1/DTD/svg11.dtd" >
<svg xmlns="http://www.w3.org/2000/svg" xmlns:xlink="http://www.w3.org/1999/xlink" version="1.1" width="2048" height="2048" viewBox="-10 0 2068 2048">
   <path fill="currentColor"
d="M439 1243.5q0 -60.5 -42.5 -103t-103.5 -42.5t-104 42.5t-43 103t43 103.5t104 43t103.5 -43t42.5 -103.5zM658 731.5q0 -60.5 -42.5 -103t-103.5 -42.5t-103.5 42.5t-42.5 103t42.5 103.5t103.5 43t103.5 -43t42.5 -103.5zM1147 1282l116 -438q7 -29 -8.5 -55
t-44.5 -33.5t-55 8t-34 44.5l-115 436q-68 6 -122 50.5t-73 113.5q-23 88 23 166t134 102q88 23 167 -23t102 -133q18 -69 -7.5 -134t-82.5 -104zM1902 1243.5q0 -60.5 -43 -103t-104 -42.5t-103.5 42.5t-42.5 103t42.5 103.5t103.5 43t104 -43t43 -103.5zM1170 512.5
q0 -60.5 -42.5 -103.5t-103.5 -43t-103.5 43t-42.5 103.5t42.5 103t103.5 42.5t103.5 -42.5t42.5 -103zM1682 731.5q0 -60.5 -42.5 -103t-103.5 -42.5t-103.5 42.5t-42.5 103t42.5 103.5t103.5 43t103.5 -43t42.5 -103.5zM2048 1244q0 297 -161 552q-22 32 -62 32h-1602
q-40 0 -62 -32q-161 -254 -161 -552q0 -140 37 -272.5t103 -245t160.5 -207t206.5 -160.5t245 -102.5t272 -36.5t272 36.5t245 102.5t206.5 160.5t160.5 207t103 245t37 272.5z" />
</svg>
