<?xml version="1.0" standalone="no"?>
<!DOCTYPE svg PUBLIC "-//W3C//DTD SVG 1.1//EN" "http://www.w3.org/Graphics/SVG/1.1/DTD/svg11.dtd" >
<svg xmlns="http://www.w3.org/2000/svg" xmlns:xlink="http://www.w3.org/1999/xlink" version="1.1" width="2048" height="2048" viewBox="-10 0 2068 2048">
   <path fill="currentColor"
d="M749 92q-87 0 -163 52t-109 139t7 188h-297q-78 0 -132.5 54.5t-54.5 132.5v183q0 39 28.5 67.5t67.5 28.5h836v-279h184v279h836q39 0 67.5 -28.5t28.5 -67.5v-183q0 -78 -54.5 -132.5t-132.5 -54.5h-297q40 -109 0.5 -200.5t-131 -139.5t-189.5 -28.5t-168 111.5
l-52 69l-52 -69q-83 -118 -223 -122zM745 283q39 0 65.5 28.5t28.5 65.5t-26.5 65.5t-67.5 28.5t-65 -26.5t-26 -65.5t26 -67.5t65 -28.5zM1303 283q39 0 65 28.5t28.5 65.5t-26 65.5t-67.5 28.5t-65.5 -26.5t-26.5 -65.5t26.5 -67.5t65.5 -28.5zM96 1028v745q0 75 54.5 129
t128.5 54h1490q74 0 128.5 -54t54.5 -129v-745h-836v745h-184v-745h-836z" />
</svg>
