<?xml version="1.0" standalone="no"?>
<!DOCTYPE svg PUBLIC "-//W3C//DTD SVG 1.1//EN" "http://www.w3.org/Graphics/SVG/1.1/DTD/svg11.dtd" >
<svg xmlns="http://www.w3.org/2000/svg" xmlns:xlink="http://www.w3.org/1999/xlink" version="1.1" width="2048" height="2048" viewBox="-10 0 2058 2048">
   <path fill="currentColor"
d="M567 0q-29 178 92 303q77 77 48 207h101q19 -82 4.5 -147t-96.5 -156q-72 -87 -48 -207h-101zM822 0q-29 178 91 303q77 77 49 207h100q20 -87 5.5 -149.5t-96.5 -153.5q-72 -87 -48 -207h-101zM1082 0q-29 178 91 303q77 77 43 207h106q19 -77 4.5 -142t-95.5 -161
q-72 -87 -48 -207h-101zM255 615q0 217 115.5 392.5t307.5 261.5l-409 620q-14 20 -14 58q0 63 43 87q19 14 58 14q62 0 86 -43l101 -164h654q34 92 111 149.5t178 57.5q125 0 216 -91.5t91 -216.5t-91 -216t-216 -91q-106 0 -180.5 57.5t-108.5 148.5h-519l202 -312
q14 5 91 5t91 -5l101 159q63 -87 164 -125l-58 -92q173 -77 295.5 -271.5t122.5 -382.5h-1432zM1486 1639q43 0 71.5 29t28.5 72.5t-28.5 74.5t-72 31t-74.5 -31t-31 -74.5t31 -72.5t75 -29z" />
</svg>
