<?xml version="1.0" standalone="no"?>
<!DOCTYPE svg PUBLIC "-//W3C//DTD SVG 1.1//EN" "http://www.w3.org/Graphics/SVG/1.1/DTD/svg11.dtd" >
<svg xmlns="http://www.w3.org/2000/svg" xmlns:xlink="http://www.w3.org/1999/xlink" version="1.1" width="2048" height="2048" viewBox="-10 0 2058 2048">
   <path fill="currentColor"
d="M1901 1882l-242 -237l-995 -996l-147 -142l-275 -279l-128 128l279 279q-128 157 -163.5 353.5t21.5 391t199 336.5q119 119 268.5 178t305.5 59q289 0 507 -180l275 275l128 -128zM1024 1754q-123 0 -232 -45t-197 -132.5t-133 -196.5t-45 -233q0 -208 123 -365l484 484
v488zM1024 289v465l735 730q104 -223 61.5 -474t-222.5 -436l-574 -574l-375 375l143 142z" />
</svg>
