<?xml version="1.0" standalone="no"?>
<!DOCTYPE svg PUBLIC "-//W3C//DTD SVG 1.1//EN" "http://www.w3.org/Graphics/SVG/1.1/DTD/svg11.dtd" >
<svg xmlns="http://www.w3.org/2000/svg" xmlns:xlink="http://www.w3.org/1999/xlink" version="1.1" width="2048" height="2048" viewBox="-10 0 2068 2048">
   <path fill="currentColor"
d="M745 466h-370v371h183v-183h187v-188zM1673 837h-183v187h-187v187h370v-374zM1861 1394h-1674v-1115h1674v1115zM1861 96h-1674q-78 0 -132.5 54.5t-54.5 128.5v1115q0 79 54.5 133.5t132.5 54.5h650v187h-183v183h740v-183h-183v-187h650q78 0 132.5 -54.5t54.5 -133.5
v-1115q0 -74 -54.5 -128.5t-132.5 -54.5z" />
</svg>
