<?xml version="1.0" standalone="no"?>
<!DOCTYPE svg PUBLIC "-//W3C//DTD SVG 1.1//EN" "http://www.w3.org/Graphics/SVG/1.1/DTD/svg11.dtd" >
<svg xmlns="http://www.w3.org/2000/svg" xmlns:xlink="http://www.w3.org/1999/xlink" version="1.1" width="2048" height="2048" viewBox="-10 0 2068 2048">
   <path fill="currentColor"
d="M749 743h-183v-279h183v-183h-183v-91q0 -79 52.5 -133.5t130.5 -54.5h558v649l227 -139l235 139v-649h92q74 0 130.5 56.5t56.5 131.5v1298q0 70 -56.5 126.5t-130.5 56.5h-1112q-74 0 -128.5 -56.5t-54.5 -126.5v-96h183v-183h-183v-279h183v-187zM0 1580h187v-279
h-187v-188h187v-279h-187v-183h187v-278h188v278h-188v183h188v279h-188v188h188v279h-188v187h188v91h1486v188h-1486q-79 0 -133.5 -54.5t-54.5 -133.5v-91h-187v-187z" />
</svg>
