<?xml version="1.0" standalone="no"?>
<!DOCTYPE svg PUBLIC "-//W3C//DTD SVG 1.1//EN" "http://www.w3.org/Graphics/SVG/1.1/DTD/svg11.dtd" >
<svg xmlns="http://www.w3.org/2000/svg" xmlns:xlink="http://www.w3.org/1999/xlink" version="1.1" width="2048" height="2048" viewBox="-10 0 2068 2048">
   <path fill="currentColor"
d="M1388 957q179 0 305 125.5t126 305.5q0 126 -67 229l296 296l-135 135l-296 -296q-103 67 -229 67q-180 0 -305.5 -126t-125.5 -305.5t125.5 -305t305.5 -125.5zM1388 1150q-99 0 -168.5 69.5t-69.5 168.5t69.5 168.5t168.5 69.5t168.5 -69.5t69.5 -168.5t-69.5 -168.5
t-168.5 -69.5zM1532 382v399q-81 -22 -194 -17v-189h-287v215l54 45q-180 90 -270 270q-71 -59 -71 -148q0 -54 26.5 -97t71.5 -70v-215q0 -81 56.5 -137t132.5 -56h481zM382 1532v-1150h382v193h-189v763h189q-5 108 17 194h-399zM1725 189h-1536v1536h673q81 121 193 188
h-866q-77 0 -133 -56t-56 -132v-1536q0 -77 56 -133t133 -56h1536q76 0 132 56t56 133v866q-72 -116 -188 -193v-673z" />
</svg>
