<?xml version="1.0" standalone="no"?>
<!DOCTYPE svg PUBLIC "-//W3C//DTD SVG 1.1//EN" "http://www.w3.org/Graphics/SVG/1.1/DTD/svg11.dtd" >
<svg xmlns="http://www.w3.org/2000/svg" xmlns:xlink="http://www.w3.org/1999/xlink" version="1.1" width="2048" height="2048" viewBox="-10 0 2068 2048">
   <path fill="currentColor"
d="M1024 204q-279 0 -514.5 137t-372.5 372.5t-137 514.5v616h2048v-616q0 -279 -137 -514.5t-372.5 -372.5t-514.5 -137zM1024 406q192 0 358 82t281 226h-1278q115 -144 281 -226t358 -82zM615 1637h-413v-409q0 -158 62 -307h351v716zM1231 1637h-414v-716h414v716z
M1846 1637h-413v-716h351q62 149 62 307v409z" />
</svg>
