<?xml version="1.0" standalone="no"?>
<!DOCTYPE svg PUBLIC "-//W3C//DTD SVG 1.1//EN" "http://www.w3.org/Graphics/SVG/1.1/DTD/svg11.dtd" >
<svg xmlns="http://www.w3.org/2000/svg" xmlns:xlink="http://www.w3.org/1999/xlink" version="1.1" width="2048" height="2048" viewBox="-10 0 2058 2048">
   <path fill="currentColor"
d="M1125 0q-168 0 -315 72t-248 202l145 144q72 -96 182.5 -156t235.5 -60q139 0 257 69.5t187.5 187.5t69.5 257q0 125 -60 235.5t-156 183.5l144 144q130 -101 202 -247.5t72 -315.5q0 -197 -96 -360.5t-259.5 -259.5t-360.5 -96zM231 202l-130 130l312 312q-4 24 -4 72
q0 178 81.5 334.5t225.5 252.5v235q0 44 29 72.5t72 28.5h587l413 409l130 -130zM635 870l567 563h-284v-246q-101 -48 -175.5 -129.5t-107.5 -187.5zM817 1846v101q0 43 29 72t72 29h414q43 0 72 -29t29 -72v-101h-616z" />
</svg>
