<?xml version="1.0" standalone="no"?>
<!DOCTYPE svg PUBLIC "-//W3C//DTD SVG 1.1//EN" "http://www.w3.org/Graphics/SVG/1.1/DTD/svg11.dtd" >
<svg xmlns="http://www.w3.org/2000/svg" xmlns:xlink="http://www.w3.org/1999/xlink" version="1.1" width="2048" height="2048" viewBox="-10 0 2058 2048">
   <path fill="currentColor"
d="M2013 1929l-1859 -1858l-119 119l362 362q-92 84 -92 203t83.5 200.5t198.5 81.5l472 940l256 -507l579 578zM1059 1558l-291 -587l18 -13l39 22l349 349zM605 278q66 -124 187.5 -201t266.5 -77q203 0 351 139t166 338q101 17 169.5 94.5t68.5 183.5q0 119 -84 200.5
t-198 81.5l-58 115z" />
</svg>
