<?xml version="1.0" standalone="no"?>
<!DOCTYPE svg PUBLIC "-//W3C//DTD SVG 1.1//EN" "http://www.w3.org/Graphics/SVG/1.1/DTD/svg11.dtd" >
<svg xmlns="http://www.w3.org/2000/svg" xmlns:xlink="http://www.w3.org/1999/xlink" version="1.1" width="2048" height="2048" viewBox="-10 0 2068 2048">
   <path fill="currentColor"
d="M2048 255v-173l-191 -23q-78 -4 -150 -4q-296 0 -512.5 81.5t-343.5 236.5q-205 -127 -505 -127q-59 0 -118 4l-46 5l-182 32l9 164q5 177 64 350q68 214 200 341q164 155 396 155h18v328q-232 32 -478 104q-123 41 -200 73v191h1939v-191l-91 -36q-123 -41 -246 -73
q-177 -45 -341 -68v-310q282 -4 473 -200q155 -159 237 -428q68 -214 68 -432zM978 1607h-95v-542l-9 -55q-14 -59 -37 -113q-31 -73 -86 -114q-68 -50 -159 -50l22 18q28 23 55 55q36 50 59 109q32 82 46 177q-37 9 -105 9q-155 0 -264 -100q-86 -82 -136 -223
q-41 -104 -55 -227l-14 -100l41 -5q50 -5 105 -5q191 0 323 51q191 77 250 250q32 -287 323 -410q192 -86 465 -86q86 0 145 9l-4 91q-9 114 -37 218q-32 146 -91 260q-72 141 -182 214q-127 91 -296 91h-68q0 -119 96 -314q50 -96 95 -169q-182 59 -255 273
q-36 110 -36 201v487h-96z" />
</svg>
