<?xml version="1.0" standalone="no"?>
<!DOCTYPE svg PUBLIC "-//W3C//DTD SVG 1.1//EN" "http://www.w3.org/Graphics/SVG/1.1/DTD/svg11.dtd" >
<svg xmlns="http://www.w3.org/2000/svg" xmlns:xlink="http://www.w3.org/1999/xlink" version="1.1" width="2048" height="2048" viewBox="-10 0 2068 2048">
   <path fill="currentColor"
d="M1846 1332q-10 9 -19 24q-19 24 -24 53q0 33 29 67q38 38 125 62l-289 284h-283l-29 5q-34 5 -55.5 24t-21.5 62q5 53 53 135h-409l-207 -202l-24 -19q-24 -19 -53 -24q-33 0 -67 29q-38 38 -62 125l-284 -289v-283l-5 -29q-5 -34 -24 -55.5t-62 -21.5q-53 5 -135 53
v-409l202 -207l19 -24q19 -24 21.5 -55t-30.5 -60q-39 -34 -130 -58l283 -293h298l29 -5q34 -5 55.5 -24t21.5 -62q-5 -53 -53 -135h409l207 202l24 19q24 19 53 19q33 5 67 -28q38 -39 62 -130l284 283v298l5 29q5 34 24 55.5t62 21.5q53 -5 135 -53v409zM1231 1024
q0 -87 -60 -147t-147 -60t-147 60t-60 147t60 147t147 60t147 -60t60 -147z" />
</svg>
