<?xml version="1.0" standalone="no"?>
<!DOCTYPE svg PUBLIC "-//W3C//DTD SVG 1.1//EN" "http://www.w3.org/Graphics/SVG/1.1/DTD/svg11.dtd" >
<svg xmlns="http://www.w3.org/2000/svg" xmlns:xlink="http://www.w3.org/1999/xlink" version="1.1" width="2048" height="2048" viewBox="-10 0 2058 2048">
   <path fill="currentColor"
d="M795 0q-214 0 -363 149.5t-149 362.5q0 101 42 203q-74 69 -114 165t-40 203q0 213 149 362.5t363 149.5q74 0 170 -32v485h224v-597q96 26 171 26q128 0 242.5 -48t202.5 -136t136 -202.5t48 -237t-48 -237.5t-136 -203t-202.5 -136t-242.5 -48h-27
q-74 -106 -186 -167.5t-240 -61.5zM795 229q112 0 194.5 77.5t87.5 189.5q80 -43 171 -43q165 0 282.5 117.5t117.5 283t-117.5 282.5t-285.5 117t-285 -128q-16 107 -96 173.5t-181 66.5q-118 0 -203 -82.5t-85 -194.5t64 -187q42 -53 165 -128q-64 -85 -88 -143.5
t-24 -117.5q0 -117 82.5 -200t200.5 -83z" />
</svg>
