<?xml version="1.0" standalone="no"?>
<!DOCTYPE svg PUBLIC "-//W3C//DTD SVG 1.1//EN" "http://www.w3.org/Graphics/SVG/1.1/DTD/svg11.dtd" >
<svg xmlns="http://www.w3.org/2000/svg" xmlns:xlink="http://www.w3.org/1999/xlink" version="1.1" width="2048" height="2048" viewBox="-10 0 2068 2048">
   <path fill="currentColor"
d="M2014 32q-59 -5 -112 -16q-139 -16 -288 -16q-411 0 -731 128q-448 176 -672 576q-272 501 -192 1323q251 21 368 21q363 0 651 -85q261 -80 458 -230q176 -133 299 -320q107 -165 165 -373q54 -171 75 -368q16 -160 11 -325q-6 -118 -22 -224zM451 1595q5 -59 11 -123
q16 -144 64 -277q64 -192 170 -342q139 -181 342 -277q234 -123 554 -123l-74 32q-96 43 -198 107q-138 91 -272 208q-160 144 -304 325q-165 214 -293 470z" />
</svg>
