<?xml version="1.0" standalone="no"?>
<!DOCTYPE svg PUBLIC "-//W3C//DTD SVG 1.1//EN" "http://www.w3.org/Graphics/SVG/1.1/DTD/svg11.dtd" >
<svg xmlns="http://www.w3.org/2000/svg" xmlns:xlink="http://www.w3.org/1999/xlink" version="1.1" width="2048" height="2048" viewBox="-10 0 2068 2048">
   <path fill="currentColor"
d="M0 700h430v-429h-430v429zM0 1241h430v-434h-430v434zM541 1241h430v-434h-430v434zM1077 1241h435v-434h-435v434zM541 700h430v-429h-430v429zM1077 271v429h435v-429h-435zM1618 1241h430v-434h-430v434zM0 1777h430v-429h-430v429zM541 1777h430v-429h-430v429z
M1077 1777h435v-429h-435v429zM1618 1777h430v-429h-430v429zM1618 271v429h430v-429h-430z" />
</svg>
