<?xml version="1.0" standalone="no"?>
<!DOCTYPE svg PUBLIC "-//W3C//DTD SVG 1.1//EN" "http://www.w3.org/Graphics/SVG/1.1/DTD/svg11.dtd" >
<svg xmlns="http://www.w3.org/2000/svg" xmlns:xlink="http://www.w3.org/1999/xlink" version="1.1" width="2048" height="2048" viewBox="-10 0 2068 2048">
   <path fill="currentColor"
d="M0 1949v-201l149 -53q192 -63 380 -101q269 -53 495 -53t495 53q188 38 380 101l149 53v201h-2048zM952 627q-43 -134 -168 -216q-101 -62 -250 -86q-111 -20 -231 -15l-101 10l10 81q9 101 38 193q34 130 91 216q77 115 178 164q125 57 289 24q-24 -188 -111 -303
q-43 -58 -82 -77q97 0 169 53q57 43 91 120q24 58 38 120l10 58v471h202v-433l5 -62q9 -82 33 -149q34 -101 92 -169q72 -86 178 -120l-53 87q-58 105 -96 202q-53 129 -53 221q197 19 351 -68q125 -72 211 -221q68 -120 106 -283q29 -116 43 -236l5 -106l-96 -4
q-115 0 -231 9q-159 19 -284 67q-153 58 -250 159q-110 120 -134 293z" />
</svg>
