<?xml version="1.0" standalone="no"?>
<!DOCTYPE svg PUBLIC "-//W3C//DTD SVG 1.1//EN" "http://www.w3.org/Graphics/SVG/1.1/DTD/svg11.dtd" >
<svg xmlns="http://www.w3.org/2000/svg" xmlns:xlink="http://www.w3.org/1999/xlink" version="1.1" width="2048" height="2048" viewBox="-10 0 2068 2048">
   <path fill="currentColor"
d="M1614 229q138 0 192 11q26 283 -16 533q-64 374 -267 614q-347 432 -1136 432h-149q-38 -806 320 -1195q192 -219 512 -320q245 -75 544 -75zM1614 0q-411 0 -731 128q-448 176 -672 576q-272 501 -192 1323q251 21 368 21q363 0 651 -85q261 -80 458 -230
q176 -133 299 -320q107 -165 165 -373q54 -171 75 -368q16 -160 11 -325q-6 -118 -22 -224l-10 -91l-112 -16q-139 -16 -288 -16zM1592 453q-320 0 -554 123q-203 96 -342 277q-106 150 -170 342q-48 133 -64 277l-11 123q128 -256 293 -470q144 -181 304 -325
q134 -117 272 -208q102 -64 198 -107z" />
</svg>
