<?xml version="1.0" standalone="no"?>
<!DOCTYPE svg PUBLIC "-//W3C//DTD SVG 1.1//EN" "http://www.w3.org/Graphics/SVG/1.1/DTD/svg11.dtd" >
<svg xmlns="http://www.w3.org/2000/svg" xmlns:xlink="http://www.w3.org/1999/xlink" version="1.1" width="2048" height="2048" viewBox="-10 0 2068 2048">
   <path fill="currentColor"
d="M1255 767q48 0 83 35t35 82.5t-35 82.5t-83 35t-80.5 -35t-32.5 -82.5t32.5 -82.5t80.5 -35zM793 767q48 0 80.5 35t32.5 82.5t-32.5 82.5t-80.5 35t-83 -35t-35 -82.5t35 -82.5t83 -35zM606 1211h836q-52 122 -165.5 200.5t-252.5 78.5t-252.5 -78.5t-165.5 -200.5z
M0 1024q0 -126 76.5 -224t189.5 -133q104 -214 307 -347t451 -133t451 133t307 347q118 35 192 133t74 224t-74 224t-192 133q-104 214 -307 347t-451 133t-451 -133t-307 -347q-113 -35 -189.5 -133t-76.5 -224zM1024 375q-218 0 -390 130.5t-233 331.5h-26
q-79 0 -133.5 54.5t-54.5 132.5t54.5 132.5t133.5 54.5h26q61 201 233 331.5t390 130.5t390 -130.5t233 -331.5h26q79 0 133.5 -54.5t54.5 -132.5t-54.5 -132.5t-133.5 -54.5h-26q-61 -201 -233 -331.5t-390 -130.5z" />
</svg>
