<?xml version="1.0" standalone="no"?>
<!DOCTYPE svg PUBLIC "-//W3C//DTD SVG 1.1//EN" "http://www.w3.org/Graphics/SVG/1.1/DTD/svg11.dtd" >
<svg xmlns="http://www.w3.org/2000/svg" xmlns:xlink="http://www.w3.org/1999/xlink" version="1.1" width="2048" height="2048" viewBox="-10 0 2068 2048">
   <path fill="currentColor"
d="M1678 62q125 0 216.5 91.5t91.5 219t-91.5 216.5t-219 89t-216.5 -89t-89 -219q0 -43 15 -86q-174 -82 -361 -82q-221 0 -411 110.5t-300.5 300.5t-110.5 411l5 87l-202 19l-5 -106q0 -202 77 -392t221 -334t334 -221t392 -77q255 0 481 115q77 -53 173 -53zM1678 269
q-43 0 -74.5 29t-31.5 72t31.5 74.5t74.5 31.5t72 -31.5t29 -74.5t-29 -72t-72 -29zM370 1370q130 0 219 89t89 219q0 43 -15 86q174 82 361 82q221 0 411 -110.5t300.5 -300.5t110.5 -411l-5 -87l202 -19l5 106q0 202 -77 392t-221 334t-334 221t-392 77q-255 0 -481 -115
q-77 53 -173 53q-125 0 -216.5 -91.5t-91.5 -219t91.5 -216.5t216.5 -89zM370 1572q-43 0 -72 31.5t-29 74.5t29 72t72 29t74.5 -29t31.5 -72t-31.5 -74.5t-74.5 -31.5zM1024 615q168 0 288.5 120.5t120.5 288.5t-120.5 288.5t-288.5 120.5t-288.5 -120.5t-120.5 -288.5
t120.5 -288.5t288.5 -120.5z" />
</svg>
