<?xml version="1.0" standalone="no"?>
<!DOCTYPE svg PUBLIC "-//W3C//DTD SVG 1.1//EN" "http://www.w3.org/Graphics/SVG/1.1/DTD/svg11.dtd" >
<svg xmlns="http://www.w3.org/2000/svg" xmlns:xlink="http://www.w3.org/1999/xlink" version="1.1" width="2048" height="2048" viewBox="-10 0 2058 2048">
   <path fill="currentColor"
d="M1562 538q22 25 8 55l-664 1424q-17 31 -52 31q-3 0 -9 -1.5t-8 -1.5q-20 -7 -31 -24t-6 -37l243 -993l-500 123q-5 2 -15 2q-23 0 -38 -13q-22 -18 -16 -49l248 -1015q5 -18 19.5 -28.5t34.5 -10.5h403q24 0 39.5 15t15.5 37q0 9 -5 21l-211 571l488 -121q1 0 6 -1.5
t9 -1.5q22 0 41 18z" />
</svg>
