<?xml version="1.0" standalone="no"?>
<!DOCTYPE svg PUBLIC "-//W3C//DTD SVG 1.1//EN" "http://www.w3.org/Graphics/SVG/1.1/DTD/svg11.dtd" >
<svg xmlns="http://www.w3.org/2000/svg" xmlns:xlink="http://www.w3.org/1999/xlink" version="1.1" width="2048" height="2048" viewBox="-10 0 2068 2048">
   <path fill="currentColor"
d="M0 1024q0 -126 76.5 -224t189.5 -133q104 -214 307 -347t451 -133t451 133t307 347q118 35 192 133t74 224t-74 224t-192 133q-104 214 -307 347t-451 133t-451 -133t-307 -347q-113 -35 -189.5 -133t-76.5 -224zM1255 767q-48 0 -80.5 35t-32.5 82.5t32.5 82.5t80.5 35
t83 -35t35 -82.5t-35 -82.5t-83 -35zM793 767q-48 0 -83 35t-35 82.5t35 82.5t83 35t80.5 -35t32.5 -82.5t-32.5 -82.5t-80.5 -35zM606 1211q52 122 165.5 200.5t252.5 78.5t252.5 -78.5t165.5 -200.5h-836zM187 1024q0 57 30.5 102.5t83.5 67.5q-22 -83 -22 -170t22 -170
q-53 22 -83.5 67.5t-30.5 102.5zM1861 1024q0 -57 -30.5 -102.5t-83.5 -67.5q22 83 22 170t-22 170q53 -22 83.5 -67.5t30.5 -102.5z" />
</svg>
