<?xml version="1.0" standalone="no"?>
<!DOCTYPE svg PUBLIC "-//W3C//DTD SVG 1.1//EN" "http://www.w3.org/Graphics/SVG/1.1/DTD/svg11.dtd" >
<svg xmlns="http://www.w3.org/2000/svg" xmlns:xlink="http://www.w3.org/1999/xlink" version="1.1" width="2048" height="2048" viewBox="-10 0 2068 2048">
   <path fill="currentColor"
d="M1671 1081v263l96 92v-166h281v-189h-377zM118 29l-118 118l175 176l-92 79l119 140l105 -88l75 75q-150 175 -191.5 394.5t31 432t243.5 361.5q114 101 256.5 153.5t295.5 52.5q62 0 93 -4v-189q-31 9 -93 9q-179 0 -328.5 -90t-237 -239t-87.5 -329q0 -237 149 -421
l447 452l-364 215l71 114l390 -233l368 369q-83 44 -113.5 133.5t11 177.5t133.5 118.5t180 -13.5q74 -35 105 -105l105 105l119 -118zM1017 428q220 0 393 129.5t235 339.5h192q-39 -193 -159.5 -342t-294 -232.5t-366.5 -83.5t-364 88l141 140q109 -39 223 -39zM969 643
l141 140v-167h-141v27zM632 182l-119 -140l-79 66l132 131zM1522 42l-119 140l430 364l119 -144z" />
</svg>
