<?xml version="1.0" standalone="no"?>
<!DOCTYPE svg PUBLIC "-//W3C//DTD SVG 1.1//EN" "http://www.w3.org/Graphics/SVG/1.1/DTD/svg11.dtd" >
<svg xmlns="http://www.w3.org/2000/svg" xmlns:xlink="http://www.w3.org/1999/xlink" version="1.1" width="2048" height="2048" viewBox="-10 0 2068 2048">
   <path fill="currentColor"
d="M428 1332l120 120l304 -308l308 308l120 -120l-308 -308l308 -308l-120 -120l-308 308l-304 -308l-120 120l304 308zM172 256q-72 0 -122 50t-50 122v1192q0 72 50 122t122 50h1280q84 0 136 -76l460 -692l-460 -692q-52 -76 -136 -76h-1280zM172 428h1280l400 596
l-400 596h-1280v-1192z" />
</svg>
