<?xml version="1.0" standalone="no"?>
<!DOCTYPE svg PUBLIC "-//W3C//DTD SVG 1.1//EN" "http://www.w3.org/Graphics/SVG/1.1/DTD/svg11.dtd" >
<svg xmlns="http://www.w3.org/2000/svg" xmlns:xlink="http://www.w3.org/1999/xlink" version="1.1" width="2048" height="2048" viewBox="-10 0 2068 2048">
   <path fill="currentColor"
d="M2048 1426v366q0 46 -32 78t-78 32h-365q-46 0 -78 -32t-32 -78v-366q0 -45 32 -77.5t78 -32.5h109v-218h-585v218h110q46 0 78 32.5t32 77.5v366q0 46 -32 78t-78 32h-366q-46 0 -78 -32t-32 -78v-366q0 -45 32 -77.5t78 -32.5h110v-218h-585v218h109q46 0 78 32.5
t32 77.5v366q0 46 -32 78t-78 32h-365q-46 0 -78 -32t-32 -78v-366q0 -45 32 -77.5t78 -32.5h109v-218q0 -60 43.5 -104t103.5 -44h585v-218h-110q-46 0 -78 -32.5t-32 -77.5v-366q0 -45 32 -77.5t78 -32.5h366q46 0 78 32.5t32 77.5v366q0 45 -32 77.5t-78 32.5h-110v218
h585q60 0 103.5 44t43.5 104v218h109q46 0 78 32.5t32 77.5z" />
</svg>
