<?xml version="1.0" standalone="no"?>
<!DOCTYPE svg PUBLIC "-//W3C//DTD SVG 1.1//EN" "http://www.w3.org/Graphics/SVG/1.1/DTD/svg11.dtd" >
<svg xmlns="http://www.w3.org/2000/svg" xmlns:xlink="http://www.w3.org/1999/xlink" version="1.1" width="2048" height="2048" viewBox="-10 0 2058 2048">
   <path fill="currentColor"
d="M1881 105q38 72 16.5 153.5t-93.5 124.5l-1037 600v863q43 0 72 29t29 72v101h-816v-101q0 -43 29 -72t72 -29v-921q0 -129 89 -218t218 -89q43 0 96 14l1041 -604q77 -43 158.5 -19t125.5 96zM614 1846v-657q-72 43 -153.5 43t-153.5 -43v657h307zM460 1079
q63 0 108.5 -46t45.5 -110.5t-45.5 -107.5t-108 -43t-108 43t-45.5 107.5t45.5 110.5t107.5 46zM911 781l135 -77l-236 -100l-134 76zM1266 580l130 -77l-235 -106l-130 77zM1621 373l130 -77l-235 -100l-130 76zM1482 940h207v513h307l-408 393l-413 -393h307v-513z" />
</svg>
