<?xml version="1.0" standalone="no"?>
<!DOCTYPE svg PUBLIC "-//W3C//DTD SVG 1.1//EN" "http://www.w3.org/Graphics/SVG/1.1/DTD/svg11.dtd" >
<svg xmlns="http://www.w3.org/2000/svg" xmlns:xlink="http://www.w3.org/1999/xlink" version="1.1" width="2048" height="2048" viewBox="-10 0 2058 2048">
   <path fill="currentColor"
d="M1070 1830q-77 29 -154 -7t-108 -115.5t5 -156.5t117.5 -105.5t158.5 7.5t105.5 115t-7.5 156t-117 106zM858 1253q-158 58 -230 211.5t-14.5 314.5t213.5 231t314.5 12t230.5 -211.5t14.5 -312t-213.5 -230.5t-315 -15zM1478 264l-673 245l140 384l672 -245zM1924 1191
l-485 178q24 43 41 91t27 101l490 -178zM1848 672l-865 317l48 135q197 14 341 158l615 -225zM51 0v202h317l365 999q39 -24 89.5 -43.5t103.5 -24.5l-413 -1133h-462z" />
</svg>
