<?xml version="1.0" standalone="no"?>
<!DOCTYPE svg PUBLIC "-//W3C//DTD SVG 1.1//EN" "http://www.w3.org/Graphics/SVG/1.1/DTD/svg11.dtd" >
<svg xmlns="http://www.w3.org/2000/svg" xmlns:xlink="http://www.w3.org/1999/xlink" version="1.1" width="2048" height="2048" viewBox="-10 0 2068 2048">
   <path fill="currentColor"
d="M172 512q-72 0 -122 50t-50 122v680q0 72 50 122t122 50h1704q72 0 122 -50t50 -122v-680q0 -72 -50 -122t-122 -50h-1704zM172 684h1704v680h-1704v-680zM256 768v128h276l-276 384h148l280 -384v-128h-428zM788 768v128h128v-128h-128zM1024 768v128h128v384h128v-512
h-256zM1452 768q-36 0 -62 24t-26 60v344q0 36 26 60t62 24h256q36 0 60 -24t24 -60v-344q0 -36 -24 -60t-60 -24h-256zM1492 896h172v256h-172v-256zM788 1152v128h128v-128h-128z" />
</svg>
