<?xml version="1.0" standalone="no"?>
<!DOCTYPE svg PUBLIC "-//W3C//DTD SVG 1.1//EN" "http://www.w3.org/Graphics/SVG/1.1/DTD/svg11.dtd" >
<svg xmlns="http://www.w3.org/2000/svg" xmlns:xlink="http://www.w3.org/1999/xlink" version="1.1" width="2048" height="2048" viewBox="-10 0 2068 2048">
   <path fill="currentColor"
d="M1103 980v714q0 84 -43 156.5t-116 115t-157 42.5t-156.5 -42.5t-115 -115t-42.5 -156.5q0 -33 23 -56t55.5 -23t55.5 23t23 56q0 62 47.5 109.5t109.5 47.5t110 -47.5t48 -109.5v-714q42 -14 79 -14t79 14zM2048 1013q0 15 -12 27t-28 12q-14 0 -28 -12
q-60 -56 -114.5 -84.5t-125.5 -28.5q-84 0 -157.5 45.5t-126.5 119.5q-8 11 -21 33t-19 30q-13 22 -35 22t-35 -22q-6 -9 -18.5 -30.5t-20.5 -32.5q-53 -74 -126 -119.5t-157 -45.5t-157 45.5t-126 119.5q-8 11 -21 33t-19 30q-13 22 -36 22q-21 0 -34 -22
q-6 -9 -18.5 -30.5t-20.5 -32.5q-53 -74 -126.5 -119.5t-157.5 -45.5q-71 0 -125.5 28.5t-114.5 84.5q-14 12 -28 12q-16 0 -28 -12t-12 -27q0 -6 1 -8q33 -137 105.5 -254.5t171.5 -204t219.5 -148t254.5 -92t272 -30.5t271.5 30.5t254.5 92t220.5 148t171.5 204t105 254.5
q1 2 1 8zM1103 118v121q-52 -2 -79 -2t-79 2v-121q0 -32 23.5 -55t55.5 -23t55.5 23t23.5 55z" />
</svg>
