<?xml version="1.0" standalone="no"?>
<!DOCTYPE svg PUBLIC "-//W3C//DTD SVG 1.1//EN" "http://www.w3.org/Graphics/SVG/1.1/DTD/svg11.dtd" >
<svg xmlns="http://www.w3.org/2000/svg" xmlns:xlink="http://www.w3.org/1999/xlink" version="1.1" width="2048" height="2048" viewBox="-10 0 2068 2048">
   <path fill="currentColor"
d="M1876 256h-1704q-72 0 -122 50t-50 122v1192q0 72 50 122t122 50h1704q72 0 122 -50t50 -122v-1192q0 -72 -50 -122t-122 -50zM1876 1620h-1704v-1192h1704v1192zM1620 1536l172 -172l-128 -168h-140q-32 -88 -32 -172t32 -172h140l128 -168l-172 -172q-172 136 -232 340
q-24 88 -24 172t24 172q60 208 232 340zM768 1024q108 0 182 -74t74 -182t-74 -182t-182 -74t-182 74t-74 182t74 182t182 74zM768 684q36 0 60 24t24 60t-24 60t-60 24t-60 -24t-24 -60t24 -60t60 -24zM1280 1416q0 -100 -96 -176q-76 -60 -208 -100q-112 -32 -208 -32
t-208 32q-132 40 -208 100q-96 76 -96 176v120h1024v-120zM468 1364q52 -32 136 -58t164 -26t164 26t136 58h-600z" />
</svg>
