<?xml version="1.0" standalone="no"?>
<!DOCTYPE svg PUBLIC "-//W3C//DTD SVG 1.1//EN" "http://www.w3.org/Graphics/SVG/1.1/DTD/svg11.dtd" >
<svg xmlns="http://www.w3.org/2000/svg" xmlns:xlink="http://www.w3.org/1999/xlink" version="1.1" width="2048" height="2048" viewBox="-10 0 2068 2048">
   <path fill="currentColor"
d="M0 1124h205q26 -83 98 -135t161 -52t163 52l624 -436l104 153l-619 436q9 35 9 74q0 117 -80.5 198t-198.5 81q-91 0 -163 -52.5t-98 -135.5h-205v-183zM2048 1124v183h-205q-26 83 -98 135.5t-163 52.5q-118 0 -198.5 -81t-80.5 -198.5t80.5 -198t198.5 -80.5
q91 0 163 52t98 135h205zM466 1124q-39 0 -65 26.5t-26 65.5t26 65t65 26t65.5 -26t26.5 -65t-26.5 -65.5t-65.5 -26.5zM1582 1124q-39 0 -65.5 26.5t-26.5 65.5t26.5 65t65.5 26t65 -26t26 -65t-26 -65.5t-65 -26.5z" />
</svg>
