<?xml version="1.0" standalone="no"?>
<!DOCTYPE svg PUBLIC "-//W3C//DTD SVG 1.1//EN" "http://www.w3.org/Graphics/SVG/1.1/DTD/svg11.dtd" >
<svg xmlns="http://www.w3.org/2000/svg" xmlns:xlink="http://www.w3.org/1999/xlink" version="1.1" width="2048" height="2048" viewBox="-10 0 2058 2048">
   <path fill="currentColor"
d="M1024 1673q61 0 107 35t67 87q79 -17 148 -48l-165 -387q-74 34 -157 34t-157 -34l-165 387q69 31 148 48q21 -52 67 -87t107 -35zM1604 1560q-40 -57 -40 -118q0 -74 54.5 -130.5t133.5 -56.5l26 4q35 -113 35 -235t-35 -231h-26q-79 0 -133.5 -54.5t-54.5 -132.5
q0 -66 40 -118q-170 -183 -406 -235q-21 52 -67 87t-107 35t-107 -35t-67 -87q-236 52 -406 235q40 52 40 118q0 78 -54.5 132.5t-128.5 54.5h-31q-35 109 -35 229t35 237l31 -4q74 0 128.5 56.5t54.5 128.5t-40 120q40 44 96 91l179 -418q-65 -91 -65 -209
q0 -153 108.5 -261.5t261.5 -108.5t261.5 108.5t108.5 261.5q0 118 -65 209l179 418q48 -39 96 -91zM1024 2048q-70 0 -122 -46t-65 -115q-83 -18 -170 -57l-92 218h-200l130 -309q-78 -57 -135 -122q-30 13 -69 13q-79 0 -133.5 -54.5t-54.5 -133.5q0 -87 70 -143
q-44 -136 -44 -275t44 -270q-70 -57 -70 -148q0 -79 54.5 -133.5t133.5 -54.5q30 0 65 18q192 -218 471 -275q13 -69 65 -115t122 -46t122 46t65 115q275 57 471 270q30 -13 70 -13q74 0 128.5 54.5t54.5 133.5q0 91 -70 143q44 136 44 275t-44 275q70 56 70 143
q0 79 -54.5 133.5t-128.5 54.5q-40 0 -74 -13q-57 65 -135 122l130 309h-200l-92 -218q-87 39 -170 57q-13 69 -65 115t-122 46z" />
</svg>
