<?xml version="1.0" standalone="no"?>
<!DOCTYPE svg PUBLIC "-//W3C//DTD SVG 1.1//EN" "http://www.w3.org/Graphics/SVG/1.1/DTD/svg11.dtd" >
<svg xmlns="http://www.w3.org/2000/svg" xmlns:xlink="http://www.w3.org/1999/xlink" version="1.1" width="2048" height="2048" viewBox="-10 0 2068 2048">
   <path fill="currentColor"
d="M1531 2007l-302 -328l128 -128l174 174l389 -389l128 154zM1070 2007h-850q-92 0 -156 -64t-64 -156v-1526q0 -92 64 -156t156 -64h1526q92 0 156 64t64 156v850q-102 -61 -220 -77v-773h-1526v1526h773q16 118 77 220zM983 1572h-548v-220h548v220zM1275 1132h-840v-216
h1096v118q-138 21 -256 98zM1531 696h-1096v-220h1096v220z" />
</svg>
