<?xml version="1.0" standalone="no"?>
<!DOCTYPE svg PUBLIC "-//W3C//DTD SVG 1.1//EN" "http://www.w3.org/Graphics/SVG/1.1/DTD/svg11.dtd" >
<svg xmlns="http://www.w3.org/2000/svg" xmlns:xlink="http://www.w3.org/1999/xlink" version="1.1" width="2048" height="2048" viewBox="-10 0 2068 2048">
   <path fill="currentColor"
d="M1861 466h-1674q-78 0 -132.5 54.5t-54.5 133.5v740q0 79 54.5 133.5t132.5 54.5h1674q78 0 132.5 -54.5t54.5 -133.5v-740q0 -79 -54.5 -133.5t-132.5 -54.5zM1861 1394h-1674v-740h1674v740zM466 1303h188v-187h183v-184h-183v-187h-188v187h-187v184h187v187z
M1255 1024q61 0 100 41.5t39 98t-39 98t-98 41.5t-100 -41.5t-41 -98t41 -98t98 -41.5zM1630 745q56 0 97.5 41.5t41.5 98t-41.5 98t-100 41.5t-98 -41.5t-39.5 -98t39.5 -98t100.5 -41.5z" />
</svg>
