<?xml version="1.0" standalone="no"?>
<!DOCTYPE svg PUBLIC "-//W3C//DTD SVG 1.1//EN" "http://www.w3.org/Graphics/SVG/1.1/DTD/svg11.dtd" >
<svg xmlns="http://www.w3.org/2000/svg" xmlns:xlink="http://www.w3.org/1999/xlink" version="1.1" width="2048" height="2048" viewBox="-10 0 2058 2048">
   <path fill="currentColor"
d="M1323 597q0 17 -13 29.5t-29.5 12.5t-29.5 -12.5t-13 -29.5q0 -32 -23 -58t-58 -40.5t-69.5 -22t-63.5 -7.5q-17 0 -29.5 -12.5t-12.5 -29.5t12.5 -30t29.5 -13q49 0 99.5 13t96 37.5t74.5 67.5t29 95zM1536 597q0 -77 -30 -146t-80.5 -119.5t-116.5 -87.5t-139 -55.5
t-146 -18.5t-146 18.5t-139 55.5t-116.5 87.5t-80.5 119.5t-30 146q0 64 24 127.5t67 113.5q13 15 40.5 43.5t40.5 43.5q172 206 188 398h304q16 -191 189 -398q13 -15 40 -43.5t40 -43.5q43 -50 67 -113.5t24 -127.5zM1707 597q0 207 -137 358q-43 47 -74 85t-67.5 91
t-57.5 106.5t-25 104.5q29 17 45.5 46t16.5 63q0 50 -33 85q33 34 33 86q0 68 -60 107q18 32 18 63q0 62 -42 95.5t-104 33.5q-26 58 -79.5 92.5t-116.5 34.5t-116.5 -34.5t-79.5 -92.5q-62 0 -103.5 -33.5t-41.5 -95.5q0 -34 17 -63q-60 -39 -60 -107q0 -51 34 -86
q-34 -36 -34 -85q0 -34 17 -63t46 -46q-4 -51 -25 -104.5t-57.5 -106.5t-67.5 -91t-74 -85q-138 -152 -138 -358q0 -105 38.5 -200.5t105 -166.5t153 -123.5t186 -79.5t200.5 -27t200.5 27t186 79.5t153 123.5t105 166.5t38.5 200.5z" />
</svg>
