<?xml version="1.0" standalone="no"?>
<!DOCTYPE svg PUBLIC "-//W3C//DTD SVG 1.1//EN" "http://www.w3.org/Graphics/SVG/1.1/DTD/svg11.dtd" >
<svg xmlns="http://www.w3.org/2000/svg" xmlns:xlink="http://www.w3.org/1999/xlink" version="1.1" width="2048" height="2048" viewBox="-10 0 2068 2048">
   <path fill="currentColor"
d="M1559 1995l-278 -307l115 -120l163 163l369 -369l120 149zM1789 53q24 0 38.5 14.5t14.5 38.5v1007q-101 -39 -206 -39q-116 0 -221.5 43.5t-186.5 119.5v-767l-614 -211v1218l412 139q-4 29 -4 72q0 67 19 139l-427 -148l-547 211q-5 5 -14 5q-24 0 -38.5 -14.5
t-14.5 -38.5v-1545q0 -38 34 -48l580 -196l614 216l547 -216h14z" />
</svg>
