<?xml version="1.0" standalone="no"?>
<!DOCTYPE svg PUBLIC "-//W3C//DTD SVG 1.1//EN" "http://www.w3.org/Graphics/SVG/1.1/DTD/svg11.dtd" >
<svg xmlns="http://www.w3.org/2000/svg" xmlns:xlink="http://www.w3.org/1999/xlink" version="1.1" width="2048" height="2048" viewBox="-10 0 2068 2048">
   <path fill="currentColor"
d="M512 768h172v172h168v168h-168v172h-172v-172h-172v-168h172v-172zM1580 768q52 0 90 38t38 90t-38 90t-92 38t-90 -38t-36 -90t36 -90t92 -38zM1324 1024q52 0 90 38t38 90t-38 90t-92 38t-90 -38t-36 -90t36 -90t92 -38zM1452 428q160 0 298 80t218 216t80 300t-80 300
t-218 216t-298 80q-124 0 -234 -46t-194 -130q-84 84 -194 130t-234 46q-160 0 -298 -80t-218 -216t-80 -300t80 -300t218 -216t298 -80h856zM596 596q-116 0 -214 58t-154 156t-56 214t56 214t154 156t214 58q104 0 194 -46t150 -126h168q60 80 150 126t194 46
q116 0 214 -58t154 -156t56 -214t-56 -214t-154 -156t-214 -58h-856z" />
</svg>
