<?xml version="1.0" standalone="no"?>
<!DOCTYPE svg PUBLIC "-//W3C//DTD SVG 1.1//EN" "http://www.w3.org/Graphics/SVG/1.1/DTD/svg11.dtd" >
<svg xmlns="http://www.w3.org/2000/svg" xmlns:xlink="http://www.w3.org/1999/xlink" version="1.1" width="2048" height="2048" viewBox="-10 0 2068 2048">
   <path fill="currentColor"
d="M1861 466h-1674q-78 0 -132.5 54.5t-54.5 133.5v740q0 79 54.5 133.5t132.5 54.5h1674q78 0 132.5 -54.5t54.5 -133.5v-740q0 -79 -54.5 -133.5t-132.5 -54.5zM932 1116h-278v278h-188v-278h-279v-184h279v-278h188v278h278v184zM1351 1303q-61 0 -100.5 -41.5t-39.5 -98
t39.5 -98t98 -41.5t100 41.5t41.5 98t-41.5 98t-97.5 41.5zM1721 1024q-56 0 -97.5 -41.5t-41.5 -98t41.5 -98t98 -41.5t98 41.5t41.5 98t-41.5 98t-98.5 41.5z" />
</svg>
