<?xml version="1.0" standalone="no"?>
<!DOCTYPE svg PUBLIC "-//W3C//DTD SVG 1.1//EN" "http://www.w3.org/Graphics/SVG/1.1/DTD/svg11.dtd" >
<svg xmlns="http://www.w3.org/2000/svg" xmlns:xlink="http://www.w3.org/1999/xlink" version="1.1" width="2048" height="2048" viewBox="-10 0 2058 2048">
   <path fill="currentColor"
d="M50 277l127 -127l1771 1771l-126 127l-253 -258q-164 -4 -286 -89q-113 -75 -176 -189.5t-63 -241.5l-117 -117q-38 47 -38 112q0 127 49 244t138 206q71 71 146 113t183 70q18 5 27.5 23.5t5 37.5t-16.5 28t-31 9h-14q-117 -32 -203.5 -81.5t-166.5 -128.5
q-103 -104 -159 -239.5t-56 -281.5q0 -103 65 -182l-108 -108q-112 126 -112 290q0 221 89 385q47 79 89 136q33 42 98 107q15 14 15 33t-16.5 35.5t-35.5 16.5t-33 -14q-70 -71 -112 -124.5t-89 -142.5q-108 -188 -108 -432q0 -103 40 -196.5t105 -164.5l-108 -107
q-84 79 -136 187q-56 122 -56 281q0 183 66 361q4 19 -3 37.5t-28 26t-39.5 -2t-23.5 -28.5q-75 -192 -75 -394q0 -182 70 -323q61 -127 155 -216l-103 -103q-56 57 -108 127q-14 19 -37 19l-33 -10q-14 -9 -19 -30t9 -35q57 -80 118 -141zM1681 244l-23 -5
q-146 -75 -277 -108t-281 -33q-300 0 -558 141l-14 5l-56 -57q0 -23 23 -37q277 -150 605 -150q159 0 304.5 35t299.5 115q19 9 24 30.5t-5 35.5q-14 28 -42 28zM1615 366q225 112 375 323q10 14 7.5 35t-19 33t-37.5 9.5t-35 -16.5q-131 -192 -332.5 -295.5t-433.5 -112.5
t-438 75l-75 -75q229 -103 496 -98.5t492 122.5zM1100 726q155 0 283.5 73t206 197t77.5 269q0 19 -16.5 33t-35.5 14l-23 -4l-19 -19l-9 -24q0 -178 -133.5 -306.5t-321.5 -133.5l-93 -94zM1339 1622q47 32 108 51l-286 -286q47 145 178 235zM1822 1265q0 -187 -98.5 -344
t-265 -248.5t-363.5 -91.5q-103 0 -201 28l-80 -79q141 -52 281 -52q225 0 415 105.5t300 286t110 395.5q0 71 -35 134t-96 105l-70 -70q46 -28 74.5 -72.5t28.5 -96.5z" />
</svg>
