<?xml version="1.0" standalone="no"?>
<!DOCTYPE svg PUBLIC "-//W3C//DTD SVG 1.1//EN" "http://www.w3.org/Graphics/SVG/1.1/DTD/svg11.dtd" >
<svg xmlns="http://www.w3.org/2000/svg" xmlns:xlink="http://www.w3.org/1999/xlink" version="1.1" width="2048" height="2048" viewBox="-10 0 2058 2048">
   <path fill="currentColor"
d="M1846 1832v216l-187 -120l-491 -923q101 -29 183 -101zM1332 510q0 129 -89 218t-219 89q-24 5 -43 0l-592 1111l-187 120v-216l596 -1116q-62 -67 -76.5 -156t24 -173t113 -134.5t165.5 -50.5v-202q43 0 72 29t29 72v120q91 34 149 113t58 176zM1125 510
q0 -29 -17 -55.5t-45.5 -38.5t-60 -5t-53 29t-26.5 53t7 57.5t38.5 45.5t55.5 19q43 0 72 -31t29 -74zM226 817l183 188l-149 283l-250 -254zM1024 1615l-154 -154l-154 279l308 308l308 -308l-149 -283zM1822 817l-183 188l154 283l245 -254z" />
</svg>
