<?xml version="1.0" standalone="no"?>
<!DOCTYPE svg PUBLIC "-//W3C//DTD SVG 1.1//EN" "http://www.w3.org/Graphics/SVG/1.1/DTD/svg11.dtd" >
<svg xmlns="http://www.w3.org/2000/svg" xmlns:xlink="http://www.w3.org/1999/xlink" version="1.1" width="2048" height="2048" viewBox="-10 0 2068 2048">
   <path fill="currentColor"
d="M1606 534v144q0 53 -36 89t-91.5 36t-91.5 -36t-36 -89v-144q0 -53 36 -91.5t91.5 -38.5t91.5 38.5t36 91.5zM1154 649v745q0 53 -38.5 91.5t-91.5 38.5t-91.5 -38.5t-38.5 -91.5v-745q0 -53 38.5 -89t91.5 -36t91.5 36t38.5 89zM2048 952v144q0 53 -36 89t-89 36
t-91.5 -36t-38.5 -89v-144q0 -53 38.5 -89t91.5 -36t89 36t36 89zM255 952v144q0 53 -38.5 89t-91.5 36t-89 -36t-36 -89v-144q0 -53 36 -89t89 -36t91.5 36t38.5 89zM697 1370v144q0 53 -36 89t-91.5 36t-91.5 -36t-36 -89v-144q0 -53 36 -91.5t91.5 -38.5t91.5 38.5
t36 91.5zM1154 1779v144q0 53 -38.5 89t-91.5 36t-91.5 -36t-38.5 -89v-144q0 -53 38.5 -91.5t91.5 -38.5t91.5 38.5t38.5 91.5zM1154 125v144q0 53 -38.5 91.5t-91.5 38.5t-91.5 -38.5t-38.5 -91.5v-144q0 -53 38.5 -89t91.5 -36t91.5 36t38.5 89zM1606 1058v456
q0 53 -36 89t-91.5 36t-91.5 -36t-36 -89v-456q0 -53 36 -89t91.5 -36t91.5 36t36 89zM697 534v456q0 53 -36 89t-91.5 36t-91.5 -36t-36 -89v-456q0 -53 36 -91.5t91.5 -38.5t91.5 38.5t36 91.5z" />
</svg>
