<?xml version="1.0" standalone="no"?>
<!DOCTYPE svg PUBLIC "-//W3C//DTD SVG 1.1//EN" "http://www.w3.org/Graphics/SVG/1.1/DTD/svg11.dtd" >
<svg xmlns="http://www.w3.org/2000/svg" xmlns:xlink="http://www.w3.org/1999/xlink" version="1.1" width="2048" height="2048" viewBox="-10 0 2064 2048">
   <path fill="currentColor"
d="M640 1836q-212 -104 -348 -296t-160 -432h-128q20 260 162 476t368 340t490 124l56 -4l-324 -324zM716 1276q-20 0 -42 -8t-36 -20t-22 -30t-8 -42h-108q0 52 18 86t48 56t68 34t84 12t86 -12t72 -38t48 -62t16 -80q0 -28 -8 -52t-20 -42t-32 -34t-52 -28q20 -8 40 -26
t34 -38t20 -40t6 -40q0 -44 -16 -80q-24 -44 -46 -64t-64 -32t-88 -12t-84 14t-68 38t-44 56t-14 72h112q0 -20 8 -38t22 -30t32 -18t38 -6q52 0 78 26t26 74q0 16 -8 38t-22 34t-34 20t-52 8h-64v88h64q32 0 54 6t38 22t24 34t8 46q0 52 -28 80t-84 28zM1448 772
q-44 -44 -98 -66t-126 -22h-200v680h196q72 0 130 -22t100 -66t62 -102t20 -134v-32q0 -72 -20 -132t-64 -104zM1412 1040q0 60 -12 100t-34 68t-60 46t-86 18h-76v-492h80q92 0 140 56t48 172v32zM1024 0l-56 4l324 324l116 -116q212 104 348 296t160 432h128
q-24 -260 -164 -476t-366 -340t-490 -124z" />
</svg>
