<?xml version="1.0" standalone="no"?>
<!DOCTYPE svg PUBLIC "-//W3C//DTD SVG 1.1//EN" "http://www.w3.org/Graphics/SVG/1.1/DTD/svg11.dtd" >
<svg xmlns="http://www.w3.org/2000/svg" xmlns:xlink="http://www.w3.org/1999/xlink" version="1.1" width="2048" height="2048" viewBox="-10 0 2058 2048">
   <path fill="currentColor"
d="M1740 1433q0 129 -43 249.5t-125 211.5q67 67 67 154h-1230q0 -87 67 -154q-82 -91 -125 -211.5t-43 -249.5h-207q0 -92 41 -176t108 -142q120 -86 190 -218.5t70 -281.5v-105q0 -140 69.5 -257.5t187.5 -185t257 -67.5t257 67.5t187.5 185t69.5 257.5v105
q0 149 70 281.5t190 218.5q67 58 108 142t41 176h-207zM1433 1433q0 -169 -120.5 -289t-288.5 -120t-288.5 120t-120.5 291t120.5 291t288.5 120t288.5 -120t120.5 -293zM817 716l207 154l207 -154l-207 -154zM817 308q-43 0 -72 28.5t-29 72t29 72.5t72.5 29t74.5 -29
t31 -72.5t-31 -72t-75 -28.5zM1231 308q-44 0 -75 28.5t-31 72t31 72.5t74.5 29t72.5 -29t29 -72.5t-29 -72t-72 -28.5z" />
</svg>
