<?xml version="1.0" standalone="no"?>
<!DOCTYPE svg PUBLIC "-//W3C//DTD SVG 1.1//EN" "http://www.w3.org/Graphics/SVG/1.1/DTD/svg11.dtd" >
<svg xmlns="http://www.w3.org/2000/svg" xmlns:xlink="http://www.w3.org/1999/xlink" version="1.1" width="2048" height="2048" viewBox="-10 0 2058 2048">
   <path fill="currentColor"
d="M190 1163l745 -1067v1067h-745zM1074 1163q92 -253 87 -584q-4 -309 -87 -579q214 70 396 261q175 179 281.5 423t106.5 479h-784zM1871 1494q-56 91 -135 157q-87 -39 -157 -118q-65 87 -171.5 120t-211 0t-174.5 -120q-66 87 -170.5 120t-211 0t-171.5 -120
q-83 83 -157 118q-83 -66 -139.5 -157.5t-74.5 -191.5h1852q-22 105 -79 192zM1858 2047q-148 0 -279 -70q-126 70 -276.5 70t-280.5 -70q-126 70 -276.5 70t-276.5 -70q-140 79 -371 70v-187q109 4 192 -13q100 -22 179 -79q122 87 276.5 87t276.5 -87q126 87 280.5 87
t276.5 -87q79 57 179 79q83 17 192 13v187h-92z" />
</svg>
