<?xml version="1.0" standalone="no"?>
<!DOCTYPE svg PUBLIC "-//W3C//DTD SVG 1.1//EN" "http://www.w3.org/Graphics/SVG/1.1/DTD/svg11.dtd" >
<svg xmlns="http://www.w3.org/2000/svg" xmlns:xlink="http://www.w3.org/1999/xlink" version="1.1" width="2048" height="2048" viewBox="-10 0 2058 2048">
   <path fill="currentColor"
d="M464 934q148 0 249 101t101 245.5t-101 248.5t-246 104t-248.5 -104t-103.5 -248.5t103.5 -245.5t245.5 -101zM934 0q142 0 245.5 101t103.5 248.5t-103.5 248.5t-248.5 101t-246 -101t-101 -248.5t101 -248.5t249 -101zM1584 1349q147 0 248 103.5t101 248.5t-101 246
t-245.5 101t-248.5 -101t-104 -246t104 -248.5t246 -103.5z" />
</svg>
