<?xml version="1.0" standalone="no"?>
<!DOCTYPE svg PUBLIC "-//W3C//DTD SVG 1.1//EN" "http://www.w3.org/Graphics/SVG/1.1/DTD/svg11.dtd" >
<svg xmlns="http://www.w3.org/2000/svg" xmlns:xlink="http://www.w3.org/1999/xlink" version="1.1" width="2048" height="2048" viewBox="-10 0 2068 2048">
   <path fill="currentColor"
d="M1673 1582h-1298v-1116h1298v1116zM1861 279h-1674q-78 0 -132.5 54.5t-54.5 132.5v1116q0 78 54.5 132.5t132.5 54.5h1674q78 0 132.5 -54.5t54.5 -132.5v-1116q0 -78 -54.5 -132.5t-132.5 -54.5zM558 654h558v462h-558v-462zM1211 654h279v183h-279v-183zM1490 932v462
h-279v-462h279zM558 1211h558v183h-558v-183z" />
</svg>
