<?xml version="1.0" standalone="no"?>
<!DOCTYPE svg PUBLIC "-//W3C//DTD SVG 1.1//EN" "http://www.w3.org/Graphics/SVG/1.1/DTD/svg11.dtd" >
<svg xmlns="http://www.w3.org/2000/svg" xmlns:xlink="http://www.w3.org/1999/xlink" version="1.1" width="2048" height="2048" viewBox="-10 0 2058 2048">
   <path fill="currentColor"
d="M522 1671q-172 0 -294.5 -122.5t-122.5 -296.5t122.5 -296.5t296.5 -122.5t296.5 122.5t122.5 296.5t-122.5 296.5t-298.5 122.5zM522 1044q-83 0 -144.5 61t-61.5 147t61.5 147t147 61t146.5 -61t61 -147t-61 -147t-149 -61zM943 833q-176 0 -298.5 -122.5t-122.5 -294
t122.5 -294t296.5 -122.5t296.5 122.5t122.5 294t-122.5 294t-294.5 122.5zM943 206q-88 0 -149.5 61t-61.5 149.5t61.5 149.5t147 61t147 -61t61.5 -149.5t-61.5 -149.5t-144.5 -61zM1526 2048q-171 0 -293.5 -122.5t-122.5 -296.5t122.5 -296.5t294 -122.5t294 122.5
t122.5 296.5t-122.5 296.5t-294.5 122.5zM1526 1421q-88 0 -149 61t-61 147t63.5 147t149 61t147 -61t61.5 -147t-61.5 -147t-149.5 -61z" />
</svg>
