<?xml version="1.0" standalone="no"?>
<!DOCTYPE svg PUBLIC "-//W3C//DTD SVG 1.1//EN" "http://www.w3.org/Graphics/SVG/1.1/DTD/svg11.dtd" >
<svg xmlns="http://www.w3.org/2000/svg" xmlns:xlink="http://www.w3.org/1999/xlink" version="1.1" width="2048" height="2048" viewBox="-10 0 2058 2048">
   <path fill="currentColor"
d="M1024 817q101 0 166 70t65 163.5t-70 163.5t-163.5 67.5t-161 -67.5t-67.5 -163.5t67.5 -166t163.5 -67.5zM1486 1740h-924v-115q0 -96 135 -163.5t327 -67.5t327 67.5t135 163.5v115zM1740 1846h-1432v-1130h1432v1130zM1433 0v202h-818v-202h-206v202h-101
q-87 0 -147 60t-60 147v1437q0 82 60 142t147 60h1432q87 0 147 -60t60 -142v-1437q0 -87 -60 -147t-147 -60h-101v-202h-206z" />
</svg>
