<?xml version="1.0" standalone="no"?>
<!DOCTYPE svg PUBLIC "-//W3C//DTD SVG 1.1//EN" "http://www.w3.org/Graphics/SVG/1.1/DTD/svg11.dtd" >
<svg xmlns="http://www.w3.org/2000/svg" xmlns:xlink="http://www.w3.org/1999/xlink" version="1.1" width="2048" height="2048" viewBox="-10 0 2068 2048">
   <path fill="currentColor"
d="M683 0v229h-230q-90 0 -157 67t-67 157v230h-229v229h229v224h-229v229h229v230q0 90 67 157t157 67h230v229h229v-229h224v229h229v-229h230q90 0 157 -67t67 -157v-230h229v-229h-229v-224h229v-229h-229v-230q0 -90 -67 -157t-157 -67h-230v-229h-229v229h-224v-229
h-229zM453 683h400q48 0 80 32t32 80v458q0 48 -32 80t-80 32h-400v-170h342v-86h-171v-170h171v-86h-342v-170zM1083 683h394q48 0 83 32t35 80v202q0 48 -35 80t-83 32h-224v86h342v170h-512v-314q0 -48 32 -80t80 -32h229v-86h-341v-170z" />
</svg>
