<?xml version="1.0" standalone="no"?>
<!DOCTYPE svg PUBLIC "-//W3C//DTD SVG 1.1//EN" "http://www.w3.org/Graphics/SVG/1.1/DTD/svg11.dtd" >
<svg xmlns="http://www.w3.org/2000/svg" xmlns:xlink="http://www.w3.org/1999/xlink" version="1.1" width="2048" height="2048" viewBox="-10 0 2068 2048">
   <path fill="currentColor"
d="M1366 1126q0 -14 -10 -23.5t-25 -9.5h-239v-377q0 -13 -10 -23t-23 -10h-206q-13 0 -23 10t-10 23v377h-239q-15 0 -25 10t-10 23q0 15 9 24l377 377q9 9 24 9t24 -9l374 -375q12 -12 12 -26zM2048 1365q0 111 -55 205.5t-149.5 149.5t-205.5 55h-1160q-97 0 -185.5 -38
t-152.5 -102t-102 -152.5t-38 -185.5q0 -139 75 -256.5t200 -175.5q-1 -32 -1 -46q0 -111 43 -212t116 -174t174.5 -116.5t212.5 -43.5q166 0 303.5 92.5t201.5 246.5q76 -66 177 -66q113 0 193 80t80 193q0 81 -43 148q139 32 227.5 144t88.5 254z" />
</svg>
