<?xml version="1.0" standalone="no"?>
<!DOCTYPE svg PUBLIC "-//W3C//DTD SVG 1.1//EN" "http://www.w3.org/Graphics/SVG/1.1/DTD/svg11.dtd" >
<svg xmlns="http://www.w3.org/2000/svg" xmlns:xlink="http://www.w3.org/1999/xlink" version="1.1" width="2048" height="2048" viewBox="-10 0 2068 2048">
   <path fill="currentColor"
d="M745 57h-196v200q-95 22 -163 81l-250 -254l-136 136l282 286q-23 73 -23 132h-191v191h195q9 104 37 209l-264 86l59 186l264 -86q41 91 77 145l-232 155l109 163l246 -163q81 81 190 145l-91 181l173 91l95 -195l-13 -9q145 50 318 59v195h190v-200q155 -18 268 -72
l150 150l136 -137l-127 -131q59 -82 59 -191q0 -59 -13 -127l154 -73l-86 -177l-132 68q-73 -109 -186 -145l63 -191l-181 -63l-73 222q-168 -18 -254 -118l172 -82l-90 -177l-150 77q-9 -109 -68 -195l149 -222l-158 -109l-137 204q-77 -36 -172 -45v-200zM1326 1605
q-431 0 -649 -236q-155 -168 -205 -449q-27 -141 -18 -264v-18q0 -82 36 -132q50 -63 159 -63q164 0 236 77q50 45 55 118q0 104 54 209q64 123 187 191q140 81 340 81q59 0 109 46q82 72 82 245q0 82 -100 132q-68 36 -186 54q-64 9 -100 9zM695 638q-59 0 -102.5 41
t-43.5 102t43.5 104.5t104.5 43.5t102 -43.5t41 -104.5t-41 -102t-104 -41zM940 1024q-41 0 -70.5 27t-29.5 68t29.5 70.5t70.5 29.5t68 -29.5t27 -70.5t-27 -68t-68 -27zM1376 1219q-64 0 -104.5 41t-40.5 102.5t40.5 104.5t102 43t104.5 -43t43 -104.5t-43 -102.5
t-102 -41z" />
</svg>
