<?xml version="1.0" standalone="no"?>
<!DOCTYPE svg PUBLIC "-//W3C//DTD SVG 1.1//EN" "http://www.w3.org/Graphics/SVG/1.1/DTD/svg11.dtd" >
<svg xmlns="http://www.w3.org/2000/svg" xmlns:xlink="http://www.w3.org/1999/xlink" version="1.1" width="2048" height="2048" viewBox="-10 0 2058 2048">
   <path fill="currentColor"
d="M1740 202h-101v-202h-206v202h-818v-202h-206v202h-101q-87 0 -147 60t-60 147v1437q0 82 60 142t147 60h1432q87 0 147 -60t60 -142v-1437q0 -87 -60 -147t-147 -60zM1740 1846h-1432v-1029h1432v1029zM1740 615h-1432v-206h1432v206zM1024 923q101 0 166 67.5t65 161
t-70 163.5t-163.5 67.5t-161 -67.5t-67.5 -161t67.5 -163.5t163.5 -67.5zM1486 1731v9h-924v-9q0 -96 135 -163.5t327 -67.5t327 67.5t135 163.5z" />
</svg>
