<?xml version="1.0" standalone="no"?>
<!DOCTYPE svg PUBLIC "-//W3C//DTD SVG 1.1//EN" "http://www.w3.org/Graphics/SVG/1.1/DTD/svg11.dtd" >
<svg xmlns="http://www.w3.org/2000/svg" xmlns:xlink="http://www.w3.org/1999/xlink" version="1.1" width="2048" height="2048" viewBox="-10 0 2058 2048">
   <path fill="currentColor"
d="M1423 1692l615 164l-38 192l-966 -255l-962 255l-53 -192l616 -164l-625 -163l48 -197l966 254l966 -254l48 197zM1442 606q-24 -34 -57 -63q-24 -19 -68 -53q-57 -43 -81 -67q-82 -82 -99 -202t36 -221q-91 24 -183 96q-144 116 -192 301t19 358l5 24q0 24 -24 36
t-48 -7q-5 -5 -10 -15q-62 -77 -71.5 -180t33.5 -200q-91 77 -139.5 195t-38.5 243q0 58 19 106q15 72 53 129q58 97 154 161.5t202 79.5q125 14 235 -10q125 -33 207 -110q101 -92 132.5 -226.5t-21.5 -264.5l-10 -19q-19 -48 -58 -91h5zM1211 1072q-33 34 -81 43
q-53 24 -110.5 2.5t-96.5 -59.5q58 -15 98.5 -58t55.5 -96q5 -43 -15 -116l-9 -48q-15 -86 14 -153q24 52 43.5 78.5t65 65t64.5 62.5q29 34 34 77l5 34q0 48 -17 93.5t-51 74.5z" />
</svg>
