<?xml version="1.0" standalone="no"?>
<!DOCTYPE svg PUBLIC "-//W3C//DTD SVG 1.1//EN" "http://www.w3.org/Graphics/SVG/1.1/DTD/svg11.dtd" >
<svg xmlns="http://www.w3.org/2000/svg" xmlns:xlink="http://www.w3.org/1999/xlink" version="1.1" width="2048" height="2048" viewBox="-10 0 2068 2048">
   <path fill="currentColor"
d="M1679 1112l-600 595v203h203l600 -595zM2034 1084l-124 -129q-14 -14 -37 -14t-37 14l-102 101l203 194l97 -97q14 -14 14 -34.5t-14 -34.5zM886 1518h-692v-983l788 489l789 -489v194h194v-392q0 -83 -57.5 -141t-136.5 -58h-1577q-79 0 -136.5 58t-57.5 141v1181
q0 83 57.5 140.5t136.5 57.5h692v-198zM1771 337l-789 493l-788 -493h1577z" />
</svg>
