<?xml version="1.0" standalone="no"?>
<!DOCTYPE svg PUBLIC "-//W3C//DTD SVG 1.1//EN" "http://www.w3.org/Graphics/SVG/1.1/DTD/svg11.dtd" >
<svg xmlns="http://www.w3.org/2000/svg" xmlns:xlink="http://www.w3.org/1999/xlink" version="1.1" width="2048" height="2048" viewBox="-10 0 2068 2048">
   <path fill="currentColor"
d="M1366 1058q0 -15 -10 -24l-376 -376q-9 -10 -24 -10t-24 10l-375 375q-11 13 -11 25q0 15 10 25t25 10h239v375q0 13 10 23t23 10h206q13 0 23 -10t10 -23v-375h239q14 0 24.5 -10.5t10.5 -24.5zM2048 1365q0 111 -55 205.5t-149.5 149.5t-205.5 55h-1160
q-97 0 -185.5 -38t-152.5 -102t-102 -152.5t-38 -185.5q0 -139 75 -256.5t200 -175.5q-1 -32 -1 -46q0 -111 43 -212t116 -174t174.5 -116.5t212.5 -43.5q166 0 303.5 92.5t201.5 246.5q76 -66 177 -66q113 0 193 80t80 193q0 81 -43 148q139 32 227.5 144t88.5 254z" />
</svg>
