<?xml version="1.0" standalone="no"?>
<!DOCTYPE svg PUBLIC "-//W3C//DTD SVG 1.1//EN" "http://www.w3.org/Graphics/SVG/1.1/DTD/svg11.dtd" >
<svg xmlns="http://www.w3.org/2000/svg" xmlns:xlink="http://www.w3.org/1999/xlink" version="1.1" width="2048" height="2048" viewBox="-10 0 2068 2048">
   <path fill="currentColor"
d="M229 0q-96 0 -162.5 66.5t-66.5 162.5v1590q0 96 66.5 162.5t162.5 66.5h1590q96 0 162.5 -66.5t66.5 -162.5v-1590q0 -96 -66.5 -162.5t-162.5 -66.5h-1590zM939 256h170v128q70 0 120.5 50.5t50.5 120.5v282l-16 16l123 214q64 -107 64 -230h170q0 219 -144 390
l230 394v171l-150 -85l-208 -368q-149 96 -325 96t-325 -96l-208 368l-150 85v-171l443 -768l-16 -16v-282q0 -70 50.5 -120.5t120.5 -50.5v-128zM1024 555q-48 0 -77.5 32t-29.5 74.5t32 77t75 32t75 -32t32 -74.5t-32 -77t-75 -32zM912 976l-128 219q112 74 240 74
t240 -74l-128 -219q-48 48 -112 48t-112 -48z" />
</svg>
