<?xml version="1.0" standalone="no"?>
<!DOCTYPE svg PUBLIC "-//W3C//DTD SVG 1.1//EN" "http://www.w3.org/Graphics/SVG/1.1/DTD/svg11.dtd" >
<svg xmlns="http://www.w3.org/2000/svg" xmlns:xlink="http://www.w3.org/1999/xlink" version="1.1" width="2048" height="2048" viewBox="-10 0 2058 2048">
   <path fill="currentColor"
d="M483 0q91 0 149 60t60.5 144t-60 146.5t-147 60.5t-144.5 -60t-60 -144.5t60 -146.5t142 -60zM329 510h308q87 0 147 60t60 146v563h-154v769h-409v-769h-154v-563q0 -86 60.5 -146t141.5 -60zM1921 615h-616v202h616v-202zM1921 923h-308v202h308v-202zM1921 0h-616v202
h616v-202zM1921 308h-308v202h308v-202zM1921 1231h-616v202h616v-202zM1921 1846h-616v202h616v-202zM1921 1538h-308v202h308v-202z" />
</svg>
