<?xml version="1.0" standalone="no"?>
<!DOCTYPE svg PUBLIC "-//W3C//DTD SVG 1.1//EN" "http://www.w3.org/Graphics/SVG/1.1/DTD/svg11.dtd" >
<svg xmlns="http://www.w3.org/2000/svg" xmlns:xlink="http://www.w3.org/1999/xlink" version="1.1" width="2048" height="2048" viewBox="-10 0 2068 2048">
   <path fill="currentColor"
d="M1486 82q-130 0 -252.5 57.5t-209.5 158.5q-87 -101 -209.5 -158.5t-252.5 -57.5q-153 0 -283 74.5t-204.5 204t-74.5 288.5q0 183 111 370q96 164 302 380q130 130 462 433l149 134l149 -134q332 -303 462 -433q206 -216 302 -380q111 -187 111 -370
q0 -159 -74.5 -288.5t-204.5 -204t-283 -74.5zM1024 1620v-409h-308l308 -716v409h308z" />
</svg>
