<?xml version="1.0" standalone="no"?>
<!DOCTYPE svg PUBLIC "-//W3C//DTD SVG 1.1//EN" "http://www.w3.org/Graphics/SVG/1.1/DTD/svg11.dtd" >
<svg xmlns="http://www.w3.org/2000/svg" xmlns:xlink="http://www.w3.org/1999/xlink" version="1.1" width="2048" height="2048" viewBox="-10 0 2058 2048">
   <path fill="currentColor"
d="M433 0q91 0 148.5 60t60 144t-60 146.5t-146.5 60.5t-144 -60t-60 -144.5t60 -146.5t142 -60zM279 510h308q86 0 146 60t60 146v563h-154v769h-408v-769h-154v-563q0 -86 60 -146t142 -60zM1663 615h207l-308 -413l-307 413h206v818h-206l307 413l308 -413h-207v-818z
M1971 0h-817v202h817v-202zM1971 1846h-817v202h817v-202z" />
</svg>
