<?xml version="1.0" standalone="no"?>
<!DOCTYPE svg PUBLIC "-//W3C//DTD SVG 1.1//EN" "http://www.w3.org/Graphics/SVG/1.1/DTD/svg11.dtd" >
<svg xmlns="http://www.w3.org/2000/svg" xmlns:xlink="http://www.w3.org/1999/xlink" version="1.1" width="2048" height="2048" viewBox="-10 0 2068 2048">
   <path fill="currentColor"
d="M1846 0h-1644q-82 0 -142 60t-60 142v1644q0 82 60 142t142 60h1644q82 0 142 -60t60 -142v-1644q0 -82 -60 -142t-142 -60zM1846 1846h-1644v-1644h1644v1644zM1125 615v202h-202v-202h-207l308 -307l308 307h-207zM1433 1332v-207h-202v-202h202v-207l307 308z
M817 1125h-202v207l-307 -308l307 -308v207h202v202zM1332 1433l-308 307l-308 -307h207v-202h202v202h207z" />
</svg>
