<?xml version="1.0" standalone="no"?>
<!DOCTYPE svg PUBLIC "-//W3C//DTD SVG 1.1//EN" "http://www.w3.org/Graphics/SVG/1.1/DTD/svg11.dtd" >
<svg xmlns="http://www.w3.org/2000/svg" xmlns:xlink="http://www.w3.org/1999/xlink" version="1.1" width="2048" height="2048" viewBox="-10 0 2068 2048">
   <path fill="currentColor"
d="M1707 1740q-72 0 -130 20q-34 14 -82 43l-58 29q-33 14 -69 14t-70 -14q-19 -10 -58 -29q-53 -29 -86 -43q-58 -20 -130 -20t-130 20q-33 14 -82 43q-38 19 -57 29q-34 14 -72.5 14t-71.5 -14l-58 -29q-48 -29 -82 -43q-58 -20 -130 -20t-129 20q-34 14 -82 43
q-39 19 -58 29q-34 14 -72 14v202q72 0 130 -19q33 -10 82 -39q38 -24 57 -29q34 -14 72.5 -14t71.5 14q20 5 58 29q48 29 82 39q58 19 130 19t129 -19q34 -10 82 -39q39 -24 58 -29q34 -14 72 -14t72 14q19 5 58 29q48 29 82 39q57 19 129 19t130 -19q34 -10 82 -39
q38 -24 62 -29q29 -14 67.5 -14t72.5 14q19 5 57 29q49 29 82 39q58 19 130 19v-202q-38 0 -67 -14q-24 -10 -58 -29q-53 -29 -87 -43q-52 -20 -129 -20zM683 1586q77 0 129 -19q34 -9 82 -38q39 -24 58 -29q34 -14 72 -14t72 14q19 5 58 29q48 29 82 38q57 19 131.5 19
t127.5 -19q34 -9 87 -38q33 -24 53 -29q33 -14 71.5 -14t72.5 14q19 5 57 29q49 29 82 38q58 19 130 19v-201q-34 0 -67 -15q-20 -9 -58 -29l-29 -14l-202 -774l212 86l77 -187l-1183 -452l-798 986l159 125l144 -183l96 356q-19 -5 -58 -5q-77 0 -129 19q-34 14 -87 43
q-34 20 -58 29q-29 15 -67 15v201q72 0 130 -19q33 -9 86 -38q34 -24 58 -29q34 -14 70 -14t69 14q20 5 58 29q48 29 82 38q58 19 130 19zM1236 837l144 548q-44 0 -82 -15q-19 -5 -62 -29q-49 -29 -82 -43q-58 -19 -130 -19q-48 0 -96 9l-91 -346z" />
</svg>
