<?xml version="1.0" standalone="no"?>
<!DOCTYPE svg PUBLIC "-//W3C//DTD SVG 1.1//EN" "http://www.w3.org/Graphics/SVG/1.1/DTD/svg11.dtd" >
<svg xmlns="http://www.w3.org/2000/svg" xmlns:xlink="http://www.w3.org/1999/xlink" version="1.1" width="2048" height="2048" viewBox="-10 0 2068 2048">
   <path fill="currentColor"
d="M1595 1024q0 -181 -99 -320t-253.5 -205.5t-319.5 -34.5q-171 27 -301.5 157.5t-157.5 301.5q-32 165 34.5 319.5t200.5 250.5q144 102 325 102q155 0 285.5 -77.5t208 -208t77.5 -285.5zM1024 1365q-144 0 -240 -101t-101.5 -240t98.5 -243t243 -98.5t240 101.5t101 240
t-98.5 242.5t-242.5 98.5zM229 1365h-229v454q0 96 66.5 162.5t162.5 66.5h454v-229h-454v-454zM229 229h454v-229h-454q-96 0 -162.5 66.5t-66.5 162.5v454h229v-454zM1819 0h-454v229h454v454h229v-454q0 -96 -66.5 -162.5t-162.5 -66.5zM1819 1819h-454v229h454
q96 0 162.5 -66.5t66.5 -162.5v-454h-229v454z" />
</svg>
