<?xml version="1.0" standalone="no"?>
<!DOCTYPE svg PUBLIC "-//W3C//DTD SVG 1.1//EN" "http://www.w3.org/Graphics/SVG/1.1/DTD/svg11.dtd" >
<svg xmlns="http://www.w3.org/2000/svg" xmlns:xlink="http://www.w3.org/1999/xlink" version="1.1" width="2048" height="2048" viewBox="-10 0 2058 2048">
   <path fill="currentColor"
d="M1024 202q192 0 343.5 89t238 247.5t86.5 360.5q-322 125 -668 125t-668 -125q0 -202 86.5 -360.5t238 -247.5t343.5 -89zM1024 0q-240 0 -439.5 113t-315.5 315q-115 211 -115 485q5 58 41 108.5t89 74.5l178 53v235q0 20 -17 34t-36 14t-36 -14t-17 -34
q5 -48 -26.5 -79t-74.5 -26q-43 -5 -74.5 26t-26.5 79q-5 101 67.5 178t177.5 77h10q110 5 184.5 -72t70.5 -183v-187h105v586q0 34 -26 46t-52.5 0t-26.5 -46q4 -43 -27 -76.5t-74 -24.5q-44 -9 -75 24.5t-26 76.5q-10 106 62 185.5t183 79.5h10q110 5 184.5 -69.5
t69.5 -185.5v-562h106v562q-5 111 69.5 185.5t185.5 69.5h9q106 0 178 -74.5t68 -180.5q0 -63 -50.5 -89t-101 0t-50.5 89q0 34 -26.5 46t-53 0t-26.5 -46v-586h106v187q0 106 74.5 178t179.5 67h10q106 0 178 -77t67 -178q0 -67 -50.5 -91t-101 0t-50.5 91q0 29 -26.5 43.5
t-52.5 0t-26 -43.5v-235l177 -53q53 -29 89 -77t41 -106q0 -274 -115 -485q-116 -202 -315 -315t-440 -113zM1024 428q-115 33 -209 100.5t-161 168.5q-19 24 -48 19t-41 -31t7 -50q77 -116 187.5 -195t245.5 -113q19 -5 38.5 7t23.5 31q15 44 -43 63z" />
</svg>
