<?xml version="1.0" standalone="no"?>
<!DOCTYPE svg PUBLIC "-//W3C//DTD SVG 1.1//EN" "http://www.w3.org/Graphics/SVG/1.1/DTD/svg11.dtd" >
<svg xmlns="http://www.w3.org/2000/svg" xmlns:xlink="http://www.w3.org/1999/xlink" version="1.1" width="2048" height="2048" viewBox="-10 0 2058 2048">
   <path fill="currentColor"
d="M1024 0q197 0 360.5 96t259.5 259.5t96 360.5q0 241 -182 587q-135 245 -347 519q-105 139 -187 226l-111 -130q-134 -168 -250 -332q-153 -235 -245 -432q-110 -250 -110 -442.5t96 -356t259.5 -259.5t360.5 -96zM1024 202q-139 0 -257 69.5t-187.5 187.5t-69.5 257
q0 82 19 149q33 130 134 308q125 226 361 538q236 -312 361 -538q101 -178 134 -308q19 -67 19 -149q0 -139 -69.5 -257t-187.5 -187.5t-257 -69.5zM923 409h202v514h-202v-514zM923 1125h202v207h-202v-207z" />
</svg>
