<?xml version="1.0" standalone="no"?>
<!DOCTYPE svg PUBLIC "-//W3C//DTD SVG 1.1//EN" "http://www.w3.org/Graphics/SVG/1.1/DTD/svg11.dtd" >
<svg xmlns="http://www.w3.org/2000/svg" xmlns:xlink="http://www.w3.org/1999/xlink" version="1.1" width="2048" height="2048" viewBox="-10 0 2058 2048">
   <path fill="currentColor"
d="M1791 1276q-43 -5 -74 26t-26 79q0 29 -26.5 43.5t-53 0t-26.5 -43.5v-235l178 -52q52 -29 88 -77t41 -106q0 -273 -115 -484q-115 -202 -314 -314.5t-439 -112.5t-439 112.5t-314 314.5q-115 211 -115 484q5 58 41 108.5t88 74.5l178 52v235q0 20 -17 34t-36 14t-36 -14
t-17 -34q5 -48 -26 -79t-74 -26q-44 -5 -75 26t-26 79q-5 106 69.5 182.5t184.5 76.5t184.5 -76.5t69.5 -182.5v-187h106v585q0 34 -26.5 46t-53 0t-26.5 -46q5 -43 -26 -76.5t-74 -23.5q-44 -10 -75 23.5t-26 76.5q-10 111 67 190t187 79t184.5 -74.5t69.5 -184.5v-561h106
v561q-5 110 69.5 184.5t184.5 74.5t184.5 -74.5t69.5 -184.5q0 -62 -50.5 -88.5t-100.5 0t-50 88.5q0 34 -26.5 46t-53 0t-26.5 -46v-585h106v187q0 105 74 177t182 72t182.5 -76.5t69.5 -182.5q5 -48 -26 -79t-75 -26zM880 273q-115 29 -211 96t-158 173q-10 14 -31.5 19
t-38.5 -9.5t-19 -36t7 -35.5q77 -115 187.5 -194.5t244.5 -112.5q19 0 36 9.5t24 31t-5 38.5t-36 21z" />
</svg>
