<?xml version="1.0" standalone="no"?>
<!DOCTYPE svg PUBLIC "-//W3C//DTD SVG 1.1//EN" "http://www.w3.org/Graphics/SVG/1.1/DTD/svg11.dtd" >
<svg xmlns="http://www.w3.org/2000/svg" xmlns:xlink="http://www.w3.org/1999/xlink" version="1.1" width="2048" height="2048" viewBox="-10 0 2058 2048">
   <path fill="currentColor"
d="M1024 0q-196 0 -364.5 98t-267 266.5t-98.5 365.5q0 226 167 541q119 227 311 478q103 137 184 226l68 73l68 -73q81 -89 184 -226q192 -251 311 -478q167 -315 167 -541q0 -197 -98.5 -365.5t-267 -266.5t-364.5 -98zM1024 1775q-201 -243 -346 -491
q-200 -341 -200 -554q0 -150 72.5 -275.5t198.5 -198.5t275 -73t275 73t198.5 198.5t72.5 275.5q0 226 -213 580q-137 226 -333 465zM943 1186h162v158h-162v-158zM1024 367q-132 0 -226 91.5t-94 224.5h162q0 -64 47 -111t111 -47t111 47t47 111q0 47 -30 85q-17 21 -68 64
q-69 51 -94 90q-47 64 -47 162h162q0 -60 34 -107q22 -30 81.5 -83t85.5 -88q38 -55 38 -123q0 -133 -94 -224.5t-226 -91.5z" />
</svg>
