<?xml version="1.0" standalone="no"?>
<!DOCTYPE svg PUBLIC "-//W3C//DTD SVG 1.1//EN" "http://www.w3.org/Graphics/SVG/1.1/DTD/svg11.dtd" >
<svg xmlns="http://www.w3.org/2000/svg" xmlns:xlink="http://www.w3.org/1999/xlink" version="1.1" width="2048" height="2048" viewBox="-10 0 2068 2048">
   <path fill="currentColor"
d="M2048 217h-217q0 217 -108.5 403.5t-295 295t-403.5 108.5t-403.5 -108.5t-295 -295t-108.5 -403.5h-217q5 267 136 499t358 371t500 149q-71 101 -116 192q-71 131 -71 186q0 101 65.5 159t151.5 58t151.5 -58t65.5 -159q0 -55 -71 -186q-45 -91 -116 -192
q273 -10 500 -149t358 -371t136 -499z" />
</svg>
