<?xml version="1.0" standalone="no"?>
<!DOCTYPE svg PUBLIC "-//W3C//DTD SVG 1.1//EN" "http://www.w3.org/Graphics/SVG/1.1/DTD/svg11.dtd" >
<svg xmlns="http://www.w3.org/2000/svg" xmlns:xlink="http://www.w3.org/1999/xlink" version="1.1" width="2048" height="2048" viewBox="-10 0 2058 2048">
   <path fill="currentColor"
d="M1024 0q266 0 490.5 91.5t355 247.5t130.5 344q0 155 -94 292.5t-261 234t-378 137.5v-28q0 -87 -28 -164q248 -46 408 -176.5t160 -295.5q0 -133 -105 -245.5t-286 -179t-392 -66.5t-392 66.5t-286 179t-105 245.5q0 174 178 307q-68 77 -101 165q-128 -92 -199 -213.5
t-71 -258.5q0 -188 130.5 -344t355 -247.5t490.5 -91.5zM781 976q142 0 240.5 100.5t98.5 240.5t-96 240.5t-234 100.5q-50 88 23 165q41 46 115 32q50 -4 165 -45q105 -37 165 -55q105 -23 197 -28q197 0 352 28l28 4q27 14 46 32q23 28 18 69t-32 64q-18 14 -46 23l-23 5
l-36 -5q-184 -32 -326 -23q-82 0 -160 23q-46 14 -119 46q-55 18 -78 27q-247 78 -417 -64q-82 -68 -87 -188q0 -77 28 -155q-78 -51 -121.5 -128.5t-43.5 -165.5q0 -142 100.5 -242.5t242.5 -100.5zM781 1173q-64 0 -105 41t-41 103t41 105.5t103 43.5t105.5 -43.5
t43.5 -105.5t-43.5 -103t-103.5 -41z" />
</svg>
