<?xml version="1.0" standalone="no"?>
<!DOCTYPE svg PUBLIC "-//W3C//DTD SVG 1.1//EN" "http://www.w3.org/Graphics/SVG/1.1/DTD/svg11.dtd" >
<svg xmlns="http://www.w3.org/2000/svg" xmlns:xlink="http://www.w3.org/1999/xlink" version="1.1" width="2048" height="2048" viewBox="-10 0 2068 2048">
   <path fill="currentColor"
d="M1538 1180h202v308h308v202h-308v308h-202v-308h-307v-202h307v-308zM1846 873v-308h-1644v308h1644zM1125 1074v174q-101 153 -101 341q0 168 82 308h-904q-82 0 -142 -60.5t-60 -146.5v-1640l168 174l173 -174l169 174l173 -174l168 174l173 -174l173 174l168 -174
l173 174l169 -174l173 174l168 -174v1077q-178 -153 -409 -153q-187 0 -341 100h-173zM923 1690v-616h-721v616h721z" />
</svg>
