<?xml version="1.0" standalone="no"?>
<!DOCTYPE svg PUBLIC "-//W3C//DTD SVG 1.1//EN" "http://www.w3.org/Graphics/SVG/1.1/DTD/svg11.dtd" >
<svg xmlns="http://www.w3.org/2000/svg" xmlns:xlink="http://www.w3.org/1999/xlink" version="1.1" width="2048" height="2048" viewBox="-10 0 2058 2048">
   <path fill="currentColor"
d="M597 1622q0 35 -25 60t-60 25t-60 -25t-25 -60t25 -60.5t60 -25.5t60 25.5t25 60.5zM1963 1703q0 161 -97 253t-259 92h-1166q-162 0 -259 -92t-97 -253q0 -63 4 -122.5t14.5 -130.5t27.5 -133.5t46 -124.5t66.5 -109.5t92 -83t120.5 -49.5q-29 70 -29 160v271
q-77 27 -124 93.5t-47 147.5q0 106 75 181t181 75t181 -75t75 -181q0 -81 -47 -147.5t-124 -93.5v-271q0 -85 33 -125q85 66 187 102.5t207.5 36.5t207 -36.5t186.5 -102.5q33 40 33 125v85q-93 0 -171.5 45.5t-124 124t-45.5 171.5v119q-43 39 -43 94q0 54 37.5 91.5
t90.5 37.5t90.5 -37.5t37.5 -91.5q0 -55 -43 -94v-119q0 -70 50.5 -120.5t120.5 -50.5t120.5 50.5t50.5 120.5v119q-43 39 -43 94q0 54 37.5 91.5t91 37.5t90 -37.5t36.5 -91.5q0 -56 -42 -94v-119q0 -91 -45.5 -170.5t-124.5 -123.5q0 -9 0.5 -56.5t0 -65t-3 -54
t-9.5 -63.5t-18 -53q66 14 120.5 49.5t92 83t66.5 109.5t46 124.5t27.5 133.5t14.5 130.5t4 122.5zM1536 512q0 104 -40.5 199t-109 163.5t-163 109.5t-198.5 41t-199 -41t-163.5 -109.5t-109.5 -163.5t-41 -199t41 -198.5t109.5 -163.5t163.5 -109.5t199 -40.5t198.5 40.5
t163 109.5t109 163.5t40.5 198.5z" />
</svg>
