<?xml version="1.0" standalone="no"?>
<!DOCTYPE svg PUBLIC "-//W3C//DTD SVG 1.1//EN" "http://www.w3.org/Graphics/SVG/1.1/DTD/svg11.dtd" >
<svg xmlns="http://www.w3.org/2000/svg" xmlns:xlink="http://www.w3.org/1999/xlink" version="1.1" width="2048" height="2048" viewBox="-10 0 2058 2048">
   <path fill="currentColor"
d="M1792 768q0 -35 -25 -60t-60 -25t-60 25t-25 60t25 60t60 25t60 -25t25 -60zM1963 768q0 83 -47 148.5t-124 92.5v527q0 104 -47 198.5t-127.5 163.5t-191 109.5t-231.5 40.5t-231.5 -40.5t-191 -109.5t-128 -163.5t-47.5 -198.5v-175q-143 -18 -260 -89.5t-184.5 -181.5
t-67.5 -237v-683q0 -35 25 -60t60 -25q7 0 21 3q23 -40 62.5 -64t87.5 -24q71 0 121 50t50 120.5t-50 120.5t-121 50q-46 0 -85 -24v536q0 92 57 171t155.5 125t214 46t214 -46t156 -125t57.5 -171v-536q-40 24 -85 24q-71 0 -121.5 -50t-50.5 -120.5t50.5 -120.5t121.5 -50
q47 0 87 24t62 64q14 -3 21 -3q35 0 60 25t25 60v683q0 127 -67.5 237t-184.5 181.5t-260 89.5v175q0 92 57.5 171t156 125t213.5 46t213.5 -46t156 -125t57.5 -171v-527q-76 -27 -123.5 -92.5t-47.5 -148.5q0 -106 75 -181t181 -75t181 75t75 181z" />
</svg>
