<?xml version="1.0" standalone="no"?>
<!DOCTYPE svg PUBLIC "-//W3C//DTD SVG 1.1//EN" "http://www.w3.org/Graphics/SVG/1.1/DTD/svg11.dtd" >
<svg xmlns="http://www.w3.org/2000/svg" xmlns:xlink="http://www.w3.org/1999/xlink" version="1.1" width="2048" height="2048" viewBox="-10 0 2068 2048">
   <path fill="currentColor"
d="M1303 745h-187v-187h187v187zM187 375v1486h1486v187h-1486q-78 0 -132.5 -54.5t-54.5 -132.5v-1486h187zM1303 375h-187q-75 0 -129.5 54.5t-54.5 128.5v187q0 79 54.5 133t129.5 54h187v184h-371v187h371q78 0 132.5 -54.5t54.5 -132.5v-558q0 -74 -54.5 -128.5
t-132.5 -54.5zM1861 0q78 0 132.5 54.5t54.5 132.5v1303q0 74 -54.5 128.5t-132.5 54.5h-1303q-74 0 -128.5 -54.5t-54.5 -128.5v-1303q0 -78 54.5 -132.5t128.5 -54.5h1303z" />
</svg>
