<?xml version="1.0" standalone="no"?>
<!DOCTYPE svg PUBLIC "-//W3C//DTD SVG 1.1//EN" "http://www.w3.org/Graphics/SVG/1.1/DTD/svg11.dtd" >
<svg xmlns="http://www.w3.org/2000/svg" xmlns:xlink="http://www.w3.org/1999/xlink" version="1.1" width="2048" height="2048" viewBox="-10 0 2069 2048">
   <path fill="currentColor"
d="M308 1846h1124v202h-1124v-202zM923 308h-106q-82 0 -142 60t-60 142h510q0 -82 -60 -142t-142 -60zM1432 615h616q0 82 -60 142t-142 60h-106q-168 0 -288 120.5t-120 293.5v101q0 168 -120.5 288t-288.5 120h-106q-168 0 -288 -120t-120 -288h-207q-82 0 -142 -60.5
t-60 -146.5v-308q0 -81 60 -141.5t142 -60.5h1230zM409 817h-207v308h207v-308zM1740 308q87 0 147 60t60 142h101q5 -130 -86.5 -221.5t-221.5 -86.5q-82 0 -142 -60t-60 -142h-106q-4 130 87 221.5t221 86.5z" />
</svg>
