<?xml version="1.0" standalone="no"?>
<!DOCTYPE svg PUBLIC "-//W3C//DTD SVG 1.1//EN" "http://www.w3.org/Graphics/SVG/1.1/DTD/svg11.dtd" >
<svg xmlns="http://www.w3.org/2000/svg" xmlns:xlink="http://www.w3.org/1999/xlink" version="1.1" width="2048" height="2048" viewBox="-10 0 2058 2048">
   <path fill="currentColor"
d="M1588 870q-96 0 -175 55.5t-113 151.5h-173v-486l356 212l105 -173l-365 -221l365 -222l-101 -173l-360 212v-226h-207v226l-356 -212l-101 173l361 222l-365 221l101 173l360 -212v486h-168q-43 -120 -139.5 -170.5t-204.5 -31.5t-182.5 98.5t-74.5 204.5t74.5 204
t182.5 98.5t204.5 -31t139.5 -170.5h168v567q-82 0 -142 60t-60 142h616q0 -82 -60.5 -142t-146.5 -60v-567h173q38 115 141.5 170.5t216.5 29t183 -125t53 -211.5t-101 -192.5t-205 -79.5zM459 1279q-44 0 -72.5 -29t-28.5 -72t31 -74.5t72 -29t72 31.5t31 72t-31 72
t-74 29zM1588 1279q-43 0 -72 -29t-31 -72t29 -74.5t74.5 -29t72 31.5t28.5 72t-28.5 72t-72.5 29z" />
</svg>
