<?xml version="1.0" standalone="no"?>
<!DOCTYPE svg PUBLIC "-//W3C//DTD SVG 1.1//EN" "http://www.w3.org/Graphics/SVG/1.1/DTD/svg11.dtd" >
<svg xmlns="http://www.w3.org/2000/svg" xmlns:xlink="http://www.w3.org/1999/xlink" version="1.1" width="2048" height="2048" viewBox="-10 0 2068 2048">
   <path fill="currentColor"
d="M1846 1074h-413q0 87 -60.5 147t-141.5 60h-414q-81 0 -141.5 -60t-60.5 -147h-413l-202 515v207q0 81 60 141.5t142 60.5h1644q82 0 142 -60.5t60 -141.5v-207zM409 1796q-44 0 -72.5 -31.5t-31 -72.5t28.5 -72t74.5 -31t72.5 29t29 72t-29 74.5t-72 31.5zM817 1796
q-43 0 -72 -31.5t-29 -72.5t31.5 -72t72.5 -31t72 29t31 72t-31 74.5t-75 31.5zM1231 1796q-48 0 -77 -31.5t-29 -72.5t31 -72t72 -31t72.5 29t31.5 72t-31.5 74.5t-69.5 31.5zM1639 1796q-43 0 -72 -31.5t-31 -72.5t29 -72t74.5 -31t72 29t28.5 72t-28.5 74.5t-72.5 31.5z
M1639 767v-717h-1230v717h-308v207h1846v-207h-308zM615 257h818v101h-818v-101zM615 459h616v106h-616v-106z" />
</svg>
