<?xml version="1.0" standalone="no"?>
<!DOCTYPE svg PUBLIC "-//W3C//DTD SVG 1.1//EN" "http://www.w3.org/Graphics/SVG/1.1/DTD/svg11.dtd" >
<svg xmlns="http://www.w3.org/2000/svg" xmlns:xlink="http://www.w3.org/1999/xlink" version="1.1" width="2048" height="2048" viewBox="-10 0 2068 2048">
   <path fill="currentColor"
d="M942 202q-197 19 -365 125l-101 -178q207 -130 447 -149zM1591 433q-144 -135 -327 -197l68 -198q240 73 408 246zM341 553q-105 159 -139 351l-202 -29q29 -245 173 -442zM2048 1024v67l-202 -14v-53q0 -173 -62 -322l187 -82q77 188 77 404zM409 1567l-154 135
q-159 -183 -226 -418l192 -53q58 187 188 336zM1038 2048h-14q-236 0 -447 -96l91 -188q169 82 356 82h19zM1538 1947h-206v-615h615v206h-264l278 284l-144 144l-279 -274v255z" />
</svg>
