<?xml version="1.0" standalone="no"?>
<!DOCTYPE svg PUBLIC "-//W3C//DTD SVG 1.1//EN" "http://www.w3.org/Graphics/SVG/1.1/DTD/svg11.dtd" >
<svg xmlns="http://www.w3.org/2000/svg" xmlns:xlink="http://www.w3.org/1999/xlink" version="1.1" width="2048" height="2048" viewBox="-10 0 2068 2048">
   <path fill="currentColor"
d="M1948 905q-37 5 -69 5q-146 0 -281 -55t-244 -160q-119 -119 -174 -276.5t-37 -317.5q0 -37 -32 -69t-68 -32q-18 0 -37 14q-55 41 -96 77q-164 170 -203 398.5t57 433.5q-114 51 -194 142.5t-112 209.5l-69 -4q-160 0 -274 114t-114 274t114 274.5t274 114.5h1266
q124 0 208.5 -84.5t84.5 -205.5t-84.5 -208t-208.5 -87q-82 0 -150 46l4 -92q0 -46 -4 -68q265 -23 452 -211q32 -32 78 -96q27 -36 -5 -86.5t-77 -50.5h-5zM1655 1659q42 0 71.5 27.5t29.5 69t-29.5 71t-71.5 29.5h-1266q-82 0 -139 -57t-57 -139.5t57 -139.5t139 -57h242
v-46q0 -114 66.5 -203t171.5 -121q28 -10 50 -14q37 -5 60 -5t59 5q9 4 23 9q23 5 37 9l23 14q18 4 32 18l22 14l46 41l41 50l28 55q27 60 27 128v242h338zM1445 1157q-68 -124 -194 -201.5t-277 -77.5h-13q-69 -124 -69 -265.5t69 -265.5q54 284 257.5 485t482.5 256
q-114 69 -256 69z" />
</svg>
