<?xml version="1.0" standalone="no"?>
<!DOCTYPE svg PUBLIC "-//W3C//DTD SVG 1.1//EN" "http://www.w3.org/Graphics/SVG/1.1/DTD/svg11.dtd" >
<svg xmlns="http://www.w3.org/2000/svg" xmlns:xlink="http://www.w3.org/1999/xlink" version="1.1" width="2048" height="2048" viewBox="-10 0 2068 2048">
   <path fill="currentColor"
d="M949 77l-53 48q-101 -58 -219 -67.5t-229 24.5l-9 -5q-73 -77 -181.5 -77t-183 74.5t-74.5 183t77 181.5l5 9q-34 111 -24.5 229t67.5 219l-48 53q-48 44 -48 106.5t48 110.5l145 145q43 43 108 43t109 -43l38 -39l728 728q43 48 105.5 48t111.5 -48l578 -578
q48 -49 48 -111.5t-48 -110.5l-728 -723l39 -38q43 -44 43 -109t-43 -108l-145 -145q-43 -48 -108 -48t-109 48zM226 511q10 -48 39 -101l-82 -82q-14 -15 -24 -39t-2.5 -53t29 -50.5t50.5 -29t53 2.5t39 24l82 82q53 -29 101 -39q140 -43 270 15l-540 540
q-58 -130 -15 -270zM1894 1311l-583 583l-728 -728l583 -583zM1205 328l-877 877l-145 -150l872 -872zM1311 983l-328 328l-111 -106l333 -333zM1528 1205l-323 323l-111 -106l328 -328z" />
</svg>
