<?xml version="1.0" standalone="no"?>
<!DOCTYPE svg PUBLIC "-//W3C//DTD SVG 1.1//EN" "http://www.w3.org/Graphics/SVG/1.1/DTD/svg11.dtd" >
<svg xmlns="http://www.w3.org/2000/svg" xmlns:xlink="http://www.w3.org/1999/xlink" version="1.1" width="2048" height="2048" viewBox="-10 0 2058 2048">
   <path fill="currentColor"
d="M1202 161q-66 -29 -149 -45l224 -116l78 257q-70 -58 -153 -96zM544 232q-66 45 -116 103l12 -248l261 62q-83 25 -157 83zM1595 695q-12 -82 -37 -149l211 133l-182 199q17 -87 8 -183zM275 836q8 75 33 153l-207 -132l178 -199q-13 91 -4 178zM1479 1888
q0 66 -45.5 111.5t-107.5 45.5t-107.5 -45.5t-45.5 -112t79 -181.5q37 -54 74 -100l42 50q41 58 70 112q41 74 41 120zM540 1821q-9 -29 3.5 -49.5t41.5 -28.5l137 -37l-104 -104q-16 -17 -16 -43.5t18.5 -45.5t45.5 -19t48 21l99 99l37 -136q4 -29 27 -41.5t50 -6.5t39 29
t4 52l-37 137l141 -38q29 -4 49.5 8.5t29 37.5t-6 47.5t-39.5 31.5l-141 37l104 99q20 21 20 48t-18.5 45.5t-45.5 18.5t-48 -21l-99 -103l-37 140q-8 25 -31 39.5t-48 6.5t-39.5 -31t-5.5 -48l37 -136l-141 33q-25 8 -47.5 -4.5t-26.5 -37.5zM1682 1254q-45 0 -87 13v-13
q0 -120 -49.5 -223.5t-132.5 -177.5q29 -166 -49.5 -315t-231.5 -215q-120 -54 -248.5 -39.5t-234 89t-159.5 194.5q-58 128 -37.5 265t107.5 244h-24q-145 0 -248.5 103.5t-103.5 248.5q0 75 29 141t82 116l17 16q25 13 46 13q33 0 62 -29q37 -37 24 -87q-8 -21 -24 -37
q-62 -54 -62 -128.5t51.5 -126.5t126.5 -52h178q0 -149 103.5 -252.5t248 -103.5t248 103.5t103.5 252.5v174h265q37 0 64 27t27 62t-27 62t-64 27h-87l-25 4q-24 4 -41 21q-21 25 -21 62q0 58 42 79q25 12 45 12h87q112 0 188.5 -78.5t76.5 -188.5t-76.5 -186.5
t-188.5 -76.5zM1065 724q-120 0 -225.5 50t-179.5 137q-33 -62 -35.5 -132.5t26.5 -136.5q50 -120 170 -165.5t240 7.5q79 38 128.5 110t53.5 159q-87 -29 -178 -29z" />
</svg>
