<?xml version="1.0" standalone="no"?>
<!DOCTYPE svg PUBLIC "-//W3C//DTD SVG 1.1//EN" "http://www.w3.org/Graphics/SVG/1.1/DTD/svg11.dtd" >
<svg xmlns="http://www.w3.org/2000/svg" xmlns:xlink="http://www.w3.org/1999/xlink" version="1.1" width="2048" height="2048" viewBox="-10 0 2058 2048">
   <path fill="currentColor"
d="M536 1606q-75 0 -126.5 -51.5t-51.5 -124t51.5 -124.5t126.5 -52h178q0 -149 103.5 -252.5t248 -103.5t248 103.5t103.5 252.5v174h265q37 0 64 27t27 62t-27 62t-64 27h-174l-24 4q-25 4 -42 21q-25 25 -25 62q0 58 46 79q21 12 45 12h174q112 0 188.5 -78.5
t76.5 -188.5t-76.5 -186.5t-188.5 -76.5q-45 0 -87 13v-13q0 -120 -49.5 -223.5t-132.5 -177.5q29 -166 -49.5 -315t-231.5 -215q-120 -54 -248.5 -39.5t-234 89t-159.5 194.5q-58 128 -37.5 265t107.5 244h-24q-145 0 -248.5 103.5t-103.5 250.5t103.5 250.5t248.5 103.5
l24 -4q25 -8 42 -25q20 -20 20 -59.5t-20 -64.5q-17 -17 -42 -21zM1065 724q-120 0 -225.5 50t-179.5 137q-33 -62 -35.5 -132.5t26.5 -136.5q50 -120 170 -165.5t240 7.5q79 38 128.5 110t53.5 159q-87 -29 -178 -29zM1202 161q-66 -29 -149 -45l224 -116l78 257
q-70 -58 -153 -96zM544 232q-66 45 -116 103l12 -248l261 62q-83 25 -157 83zM1595 695q-12 -82 -37 -149l211 133l-182 199q17 -87 8 -183zM275 836q8 75 33 153l-207 -132l178 -199q-13 91 -4 178zM714 1821q8 25 30.5 37.5t47.5 4.5l141 -33l-37 136q-9 25 3.5 48
t39.5 31t50 -6.5t27 -39.5l37 -140l103 103q17 21 44 21t45.5 -18.5t18.5 -45.5t-16 -48l-104 -103l141 -33q25 -9 37 -31.5t6 -47.5t-28.5 -37.5t-47.5 -8.5l-141 38l37 -137q8 -29 -6.5 -52t-39 -29t-47.5 6.5t-31 41.5l-33 136l-104 -103q-16 -17 -45 -17t-45.5 19
t-16.5 45.5t16 43.5l104 104l-141 37q-25 8 -37.5 28.5t-7.5 49.5z" />
</svg>
