<?xml version="1.0" standalone="no"?>
<!DOCTYPE svg PUBLIC "-//W3C//DTD SVG 1.1//EN" "http://www.w3.org/Graphics/SVG/1.1/DTD/svg11.dtd" >
<svg xmlns="http://www.w3.org/2000/svg" xmlns:xlink="http://www.w3.org/1999/xlink" version="1.1" width="2048" height="2048" viewBox="-10 0 2058 2048">
   <path fill="currentColor"
d="M1132 323q153 70 231.5 219t49.5 310q83 75 132.5 180.5t49.5 221.5v16q41 -16 87 -16q112 0 188.5 76.5t76.5 188t-76.5 188t-188.5 76.5h-174l-25 -4q-25 -4 -41 -21q-25 -24 -25 -62q0 -58 46 -78q20 -13 45 -13h174q37 0 64 -24.5t27 -62t-27 -62t-64 -24.5h-265
v-178q0 -145 -103.5 -248.5t-248 -103.5t-248 103.5t-103.5 248.5h-178q-75 0 -126.5 51.5t-51.5 124t51.5 124t126.5 51.5h87l24 4q25 9 42 25q25 21 25 60.5t-25 63.5q-17 17 -42 21l-24 4h-87q-145 0 -248.5 -103.5t-103.5 -250t103.5 -250t248.5 -103.5h25
q-87 -104 -108 -240.5t37 -264.5q54 -120 159.5 -196.5t234 -91t248.5 39.5zM1061 484q-120 -50 -240 -4.5t-169 161.5q-29 66 -27 138.5t35 130.5q74 -87 179.5 -136.5t225.5 -49.5q91 0 178 29q-4 -87 -53.5 -159.5t-128.5 -109.5zM1202 161q-75 -29 -149 -45l223 -116
l79 257q-70 -54 -153 -96zM544 232q-66 45 -116 107l13 -248l260 58q-82 29 -157 83zM1595 699q-12 -83 -37 -153l211 133l-182 198q16 -83 8 -178zM275 840q8 74 33 149l-207 -133l178 -194q-12 91 -4 178zM1065 1597q87 137 87 186q0 37 -24.5 62t-62 25t-62.5 -25
t-25 -62q0 -49 87 -186zM1065 1307q-33 42 -70 87q-79 100 -124 186q-70 125 -70 203q0 112 76.5 188.5t188 76.5t188 -76.5t76.5 -188.5q0 -78 -70 -203q-46 -86 -124 -186z" />
</svg>
