<?xml version="1.0" standalone="no"?>
<!DOCTYPE svg PUBLIC "-//W3C//DTD SVG 1.1//EN" "http://www.w3.org/Graphics/SVG/1.1/DTD/svg11.dtd" >
<svg xmlns="http://www.w3.org/2000/svg" xmlns:xlink="http://www.w3.org/1999/xlink" version="1.1" width="2048" height="2048" viewBox="-10 0 2058 2048">
   <path fill="currentColor"
d="M311 2048q-91 0 -149 -130q-38 -96 -53 -206q-19 -144 34 -279q19 -62 72 -105.5t120 -57.5q48 -10 106 5q33 5 100.5 33.5t105.5 38.5q68 19 120.5 -26.5t38.5 -117.5q-29 -111 -216 -154q-106 -24 -279 -24q0 -130 120 -178q96 -38 233 -23.5t267 57.5q14 5 48 24
q77 38 115 34q63 -5 79.5 -55.5t-12.5 -103.5q-96 -163 -494 -163q0 -144 110 -197q91 -43 240 -19q130 28 255 81l33 15q44 24 68 28q38 15 72 5q67 -24 57 -77q-4 -43 -53 -96q-38 -48 -76 -67q-72 -38 -149 -62l-34 -5q-38 -10 -50 -22t12 -45q120 -106 278 -130
q188 -43 312 -14q169 43 197 206q24 197 -86 365q-288 495 -701 884q-216 226 -471 408l-5 5q-110 77 -173 110q-105 58 -192 58z" />
</svg>
