<?xml version="1.0" standalone="no"?>
<!DOCTYPE svg PUBLIC "-//W3C//DTD SVG 1.1//EN" "http://www.w3.org/Graphics/SVG/1.1/DTD/svg11.dtd" >
<svg xmlns="http://www.w3.org/2000/svg" xmlns:xlink="http://www.w3.org/1999/xlink" version="1.1" width="2048" height="2048" viewBox="-10 0 2068 2048">
   <path fill="currentColor"
d="M279 1430q-9 -39 10.5 -72t59.5 -46l209 -56l-153 -153q-30 -26 -30 -65.5t28 -67.5t69.5 -28t67.5 26l153 152l56 -209q9 -39 44 -58.5t72 -8.5t56.5 45.5t10.5 74.5l-56 209l209 -57q39 -9 74 11t46 57t-8.5 71.5t-59.5 43.5l-209 57l153 152q26 26 26 67.5t-28.5 70
t-67.5 28.5t-65 -31l-153 -152l-57 209q-13 39 -45.5 58.5t-71.5 9t-59 -43.5t-11 -72l57 -209l-209 57q-40 8 -72.5 -11.5t-45.5 -58.5zM0 837q0 -91 37 -176t102.5 -150.5t150.5 -100.5t176 -35q70 -170 220.5 -272t337.5 -102q157 0 292 76t218 202.5t96 283.5l43 -5
q157 0 266 109t109 264t-109 263.5t-266 108.5q-39 0 -65 -26t-26 -65t26 -67.5t65 -28.5q79 0 133.5 -54.5t54.5 -130.5t-54.5 -130.5t-133.5 -54.5h-183v-92q0 -126 -63 -233t-170 -170t-233 -63q-174 0 -302.5 111t-155.5 277q-52 -18 -100 -18q-117 0 -198 83t-81 198.5
t83 198.5q26 30 26 67t-26 63.5t-65 26.5t-66 -27q-65 -65 -102 -150t-37 -181zM1211 1809q9 26 33 39t50 9l148 -44l-39 148q-9 31 4.5 53t41.5 30.5t52 -7t28 -41.5l40 -143l109 104q17 22 45.5 22t48 -19.5t19.5 -48t-18 -45.5l-108 -109l143 -40q31 -8 44 -32t6.5 -50.5
t-30.5 -39.5t-50 -8l-148 43l39 -148q9 -30 -6.5 -52t-41.5 -30.5t-50 6.5t-33 41l-35 144l-109 -105q-21 -21 -49.5 -21t-48 19.5t-19.5 48t22 45.5l108 109l-148 39q-26 9 -39 33t-9 50z" />
</svg>
