<?xml version="1.0" standalone="no"?>
<!DOCTYPE svg PUBLIC "-//W3C//DTD SVG 1.1//EN" "http://www.w3.org/Graphics/SVG/1.1/DTD/svg11.dtd" >
<svg xmlns="http://www.w3.org/2000/svg" xmlns:xlink="http://www.w3.org/1999/xlink" version="1.1" width="2048" height="2048" viewBox="-10 0 2068 2048">
   <path fill="currentColor"
d="M1024 101l245 351q-120 -43 -245 -43t-245 43zM135 611l427 -34q-96 82 -158.5 187.5t-86.5 235.5zM1913 611l-182 389q-24 -125 -86.5 -235.5t-158.5 -187.5zM1231 1433q0 -44 -31.5 -72.5t-74.5 -28.5h-1024q-43 0 -72 28.5t-29 72t29 72.5t72 29h1024q43 0 74.5 -29
t31.5 -72zM2048 1433q0 -44 -29 -72.5t-72 -28.5h-409q-43 0 -74 28.5t-31 72t31 72.5t74 29h409q43 0 72 -29t29 -72zM817 1841q0 44 31.5 75t74.5 31h923q43 0 72 -31t29 -74.5t-29 -72.5t-72 -29h-923q-43 0 -74.5 29t-31.5 72zM101 1841q0 44 29 75t72 31h308
q43 0 74 -31t31 -74.5t-31 -72.5t-74 -29h-308q-43 0 -72 29t-29 72zM1024 817q130 0 219 89t89 219h206q0 -139 -69.5 -257t-187.5 -187.5t-257 -69.5t-257 69.5t-187.5 187.5t-69.5 257h206q0 -130 89 -219t219 -89z" />
</svg>
