<?xml version="1.0" standalone="no"?>
<!DOCTYPE svg PUBLIC "-//W3C//DTD SVG 1.1//EN" "http://www.w3.org/Graphics/SVG/1.1/DTD/svg11.dtd" >
<svg xmlns="http://www.w3.org/2000/svg" xmlns:xlink="http://www.w3.org/1999/xlink" version="1.1" width="2048" height="2048" viewBox="-10 0 2058 2048">
   <path fill="currentColor"
d="M845 359q-347 0 -501 58q-208 84 -208 296v889q0 121 87 200v158q0 34 27 61t61 27h92q33 0 60 -27t27 -61v-91h713v91q0 34 25 61t63 27h88q37 0 64 -27t27 -61v-158q88 -79 88 -200v-889q0 -212 -209 -296q-158 -58 -504 -58zM444 1693q-54 0 -93.5 -39.5t-39.5 -95.5
t39.5 -93.5t96 -37.5t94 37.5t37.5 93.5t-37.5 95.5t-96.5 39.5zM1245 1693q-54 0 -93.5 -39.5t-39.5 -95.5t39.5 -93.5t95.5 -37.5t94 37.5t38 93.5t-38 95.5t-96 39.5zM1379 1160h-1068v-447h1068v447zM1912 359v888q0 117 -87 196v159q0 37 -27 64t-61 27h-12
q12 -50 12 -91v-889q0 -242 -171 -375q-133 -104 -371 -138q-133 -21 -350 -21q-196 0 -313 17q67 -117 254 -158q146 -38 417 -38q347 0 501 63q208 79 208 296z" />
</svg>
