<?xml version="1.0" standalone="no"?>
<!DOCTYPE svg PUBLIC "-//W3C//DTD SVG 1.1//EN" "http://www.w3.org/Graphics/SVG/1.1/DTD/svg11.dtd" >
<svg xmlns="http://www.w3.org/2000/svg" xmlns:xlink="http://www.w3.org/1999/xlink" version="1.1" width="2048" height="2048" viewBox="-10 0 2058 2048">
   <path fill="currentColor"
d="M1682 1254q-46 0 -87 16v-16q0 -116 -49.5 -221.5t-132.5 -180.5q29 -161 -49.5 -310t-231.5 -219q-120 -54 -248.5 -39.5t-234 91t-159.5 196.5q-58 128 -37 264.5t108 240.5h-25q-145 0 -248.5 103.5t-103.5 250t103.5 250t248.5 103.5h87l24 -4q25 -4 42 -21
q25 -24 25 -63.5t-25 -60.5q-17 -16 -42 -25l-24 -4h-87q-75 0 -126.5 -51.5t-51.5 -124t51.5 -124t126.5 -51.5h178q0 -145 103.5 -248.5t248 -103.5t248 103.5t103.5 248.5v178h265q37 0 64 24.5t27 62t-27 62t-64 24.5h-174l-25 4q-25 9 -41 25q-25 21 -25 60.5t25 63.5
q16 17 41 21l25 4h174q112 0 188.5 -76.5t76.5 -188t-76.5 -188t-188.5 -76.5zM1065 724q-120 0 -225.5 49.5t-179.5 136.5q-33 -58 -35 -130.5t27 -138.5q49 -116 169 -161.5t240 4.5q79 37 128.5 109.5t53.5 159.5q-87 -29 -178 -29zM1202 161q-75 -29 -149 -45l223 -116
l79 257q-70 -54 -153 -96zM544 232q-66 45 -116 107l13 -248l260 58q-82 29 -157 83zM1595 699q-12 -83 -37 -153l211 133l-182 198q16 -83 8 -178zM275 840q8 74 33 149l-207 -133l178 -194q-12 91 -4 178zM1049 1254h215l-145 289h145l-269 505l54 -360h-182z" />
</svg>
