<?xml version="1.0" standalone="no"?>
<!DOCTYPE svg PUBLIC "-//W3C//DTD SVG 1.1//EN" "http://www.w3.org/Graphics/SVG/1.1/DTD/svg11.dtd" >
<svg xmlns="http://www.w3.org/2000/svg" xmlns:xlink="http://www.w3.org/1999/xlink" version="1.1" width="2048" height="2048" viewBox="-10 0 2058 2048">
   <path fill="currentColor"
d="M82 298l399 409v1033q0 82 62.5 144.5t143.5 62.5v-1048l101 106v942h433q-24 -82 -24 -101q0 -91 41 -156t123 -113l86 82q-135 48 -135 197q0 81 63 144q48 48 130 48q154 0 197 -130l120 120l144 -144l-1740 -1740zM1096 0q0 82 62.5 142t144.5 60v308h-433l635 639
v-1149h-409z" />
</svg>
