<?xml version="1.0" standalone="no"?>
<!DOCTYPE svg PUBLIC "-//W3C//DTD SVG 1.1//EN" "http://www.w3.org/Graphics/SVG/1.1/DTD/svg11.dtd" >
<svg xmlns="http://www.w3.org/2000/svg" xmlns:xlink="http://www.w3.org/1999/xlink" version="1.1" width="2048" height="2048" viewBox="-10 0 2068 2048">
   <path fill="currentColor"
d="M836 1978q131 -55 136 -187q0 -116 -86 -227q-61 -91 -167 -177q-65 -55 -192 -141q-151 -96 -252 -223l-5 -5q-36 -45 -46 -65q-15 -36 20 -46q51 -10 192 56l41 20q156 66 283 141l111 -181q-137 -86 -283 -147q-162 -71 -303 -91q-96 -15 -167 10q-81 36 -106 121
q-45 132 81 299q60 75 146 151q56 41 167 121q167 117 238 187v5q80 76 101 127q15 35 10 42.5t-46 7.5q-86 0 -212 -60q-76 -36 -197 -117l-106 187q182 111 308 157q202 81 334 35zM2033 296q15 -20 15 -43t-15 -43l-142 -141q-20 -16 -42.5 -16t-42.5 16l-112 111
l228 227zM972 907v222h222l662 -661l-222 -223z" />
</svg>
