<?xml version="1.0" standalone="no"?>
<!DOCTYPE svg PUBLIC "-//W3C//DTD SVG 1.1//EN" "http://www.w3.org/Graphics/SVG/1.1/DTD/svg11.dtd" >
<svg xmlns="http://www.w3.org/2000/svg" xmlns:xlink="http://www.w3.org/1999/xlink" version="1.1" width="2048" height="2048" viewBox="-10 0 2058 2048">
   <path fill="currentColor"
d="M510 0q-82 0 -142 60t-60 142v1538q0 87 60 147t142 60v101h206v-101h616v101h206v-101q82 0 142 -60t60 -147v-1538q0 -82 -60 -142t-142 -60h-1028zM510 202h1028v308h-1028v-308zM510 716h1028v308h-1028v-308zM510 1231h413v509h-413v-509zM1125 1231h413v509h-413
v-509zM615 1332v307h202v-307h-202zM1231 1332v307h202v-307h-202z" />
</svg>
