<?xml version="1.0" standalone="no"?>
<!DOCTYPE svg PUBLIC "-//W3C//DTD SVG 1.1//EN" "http://www.w3.org/Graphics/SVG/1.1/DTD/svg11.dtd" >
<svg xmlns="http://www.w3.org/2000/svg" xmlns:xlink="http://www.w3.org/1999/xlink" version="1.1" width="2048" height="2048" viewBox="-10 0 2068 2048">
   <path fill="currentColor"
d="M837 1769v-187h-650q-78 0 -132.5 -54.5t-54.5 -133.5v-1115q0 -74 54.5 -128.5t132.5 -54.5h1674q78 0 132.5 54.5t54.5 128.5v375h-187v-375h-1674v1115h837v558h-370v-183h183zM1630 1303q-96 0 -166 67.5t-70 163.5t70 165.5t166 69.5t163.5 -69.5t67.5 -165.5
t-67.5 -163.5t-163.5 -67.5zM2048 837v1024q0 39 -28.5 65t-67.5 26h-649q-39 0 -65.5 -26t-26.5 -65v-1024q0 -35 26.5 -63.5t65.5 -28.5h649q39 0 67.5 28.5t28.5 63.5zM1490 976q0 61 39.5 100.5t98 39.5t100 -39.5t41.5 -98.5t-41.5 -100t-100 -41t-98 41t-39.5 98z
M1952 1534q0 -135 -93.5 -229t-228.5 -94t-231 94t-96 229t96 231t231 96t228.5 -96t93.5 -231z" />
</svg>
