<?xml version="1.0" standalone="no"?>
<!DOCTYPE svg PUBLIC "-//W3C//DTD SVG 1.1//EN" "http://www.w3.org/Graphics/SVG/1.1/DTD/svg11.dtd" >
<svg xmlns="http://www.w3.org/2000/svg" xmlns:xlink="http://www.w3.org/1999/xlink" version="1.1" width="2048" height="2048" viewBox="-10 0 2058 2048">
   <path fill="currentColor"
d="M1430 0q62 0 115 33.5t77 91.5t12 118t-57.5 105.5t-105.5 57.5t-118 -12t-91.5 -77t-33.5 -115q0 -82 60 -142t142 -60zM1026 101q63 0 108.5 45.5t45.5 108t-45.5 108t-108 45.5t-108 -45.5t-45.5 -108t45.5 -108t107.5 -45.5zM724 255q43 0 71.5 28.5t28.5 72
t-28.5 74.5t-72 31t-72 -31t-28.5 -74.5t28.5 -72t72.5 -28.5zM512 408q43 0 74.5 29t31.5 72t-31.5 74.5t-74.5 31.5t-72 -31.5t-29 -74.5t29 -72t72 -29zM1281 1023q115 0 189.5 -84t64.5 -199q-14 -101 -91 -166t-178 -65h-254q-207 0 -372.5 127.5t-218.5 324.5
q-24 77 10 144q67 144 64.5 300t-64.5 291q-44 91 4 178q68 100 176 146t223 17q87 -19 154 -74.5t100.5 -137t24 -168t-57.5 -161t-43 -165.5q-5 -77 24 -154q62 -154 245 -154z" />
</svg>
