<?xml version="1.0" standalone="no"?>
<!DOCTYPE svg PUBLIC "-//W3C//DTD SVG 1.1//EN" "http://www.w3.org/Graphics/SVG/1.1/DTD/svg11.dtd" >
<svg xmlns="http://www.w3.org/2000/svg" xmlns:xlink="http://www.w3.org/1999/xlink" version="1.1" width="2048" height="2048" viewBox="-10 0 2068 2048">
   <path fill="currentColor"
d="M1904 1639h-1760q-57 0 -100.5 -43t-43.5 -101v-942q0 -58 43.5 -101t100.5 -43h1760q57 0 100.5 43t43.5 101v942q0 58 -43.5 101t-100.5 43zM144 505q-19 0 -33.5 14.5t-14.5 33.5v942q0 19 14.5 33.5t33.5 14.5h1760q19 0 33.5 -14.5t14.5 -33.5v-942
q0 -19 -14.5 -33.5t-33.5 -14.5h-1760zM293 1351v-654h197l197 240l198 -240h197v654h-197v-375l-198 240l-197 -240v375h-197zM1529 1351l-298 -317h197v-337h197v337h197z" />
</svg>
