<?xml version="1.0" standalone="no"?>
<!DOCTYPE svg PUBLIC "-//W3C//DTD SVG 1.1//EN" "http://www.w3.org/Graphics/SVG/1.1/DTD/svg11.dtd" >
<svg xmlns="http://www.w3.org/2000/svg" xmlns:xlink="http://www.w3.org/1999/xlink" version="1.1" width="2048" height="2048" viewBox="-10 0 2068 2048">
   <path fill="currentColor"
d="M1024 0q-279 0 -514.5 137t-372.5 372.5t-137 514.5t137 514.5t372.5 372.5t514.5 137t514.5 -137t372.5 -372.5t137 -514.5t-137 -514.5t-372.5 -372.5t-514.5 -137zM760 1803q-250 -87 -404 -301t-154 -478t154 -478t404 -301q-198 366 -198 779t198 779zM1024 1846
q-125 -183 -192.5 -392t-67.5 -430t67.5 -430t192.5 -392q125 183 192.5 392t67.5 430t-67.5 430t-192.5 392zM1288 1803q198 -366 198 -779t-198 -779q250 87 404 301t154 478t-151.5 480.5t-406.5 298.5z" />
</svg>
