<?xml version="1.0" standalone="no"?>
<!DOCTYPE svg PUBLIC "-//W3C//DTD SVG 1.1//EN" "http://www.w3.org/Graphics/SVG/1.1/DTD/svg11.dtd" >
<svg xmlns="http://www.w3.org/2000/svg" xmlns:xlink="http://www.w3.org/1999/xlink" version="1.1" width="2048" height="2048" viewBox="-10 0 2058 2048">
   <path fill="currentColor"
d="M973 0q-252 0 -462 88.5t-334 235t-124 323.5q0 187 152 354q-152 203 -152 455v380q0 86 63.5 149t154.5 63h1400q91 0 154.5 -63t63.5 -149v-380q0 -207 -107 -379l213 -212l-324 -324l-222 223q-238 -127 -508.5 -119.5t-497.5 154.5q-61 -61 -63.5 -154.5
t78.5 -174.5t217.5 -129t297.5 -48q112 0 218 28t192 79l212 -218q-283 -187 -622 -182zM973 865q182 0 349 91q157 86 253 225t96 275v380h-1400v-380q0 -136 98.5 -275t255.5 -225q166 -91 348 -91zM1024 1027q-248 0 -392 123.5t-144 361.5v106h212v-106q0 -152 41 -243
q76 -177 283 -242z" />
</svg>
