<?xml version="1.0" standalone="no"?>
<!DOCTYPE svg PUBLIC "-//W3C//DTD SVG 1.1//EN" "http://www.w3.org/Graphics/SVG/1.1/DTD/svg11.dtd" >
<svg xmlns="http://www.w3.org/2000/svg" xmlns:xlink="http://www.w3.org/1999/xlink" version="1.1" width="2048" height="2048" viewBox="-10 0 2068 2048">
   <path fill="currentColor"
d="M1024 0q-279 0 -514.5 137t-372.5 372.5t-137 514.5t137 514.5t372.5 372.5t514.5 137t514.5 -137t372.5 -372.5t137 -514.5t-137 -514.5t-372.5 -372.5t-514.5 -137zM1024 202q226 0 411 110.5t296 302.5h-1414q111 -192 296 -302.5t411 -110.5zM1024 1846
q-226 0 -411 -110.5t-296 -302.5h1414q-111 192 -296 302.5t-411 110.5zM236 1231q-34 -96 -34 -207t34 -207h1586q34 96 34 207t-34 207h-1586z" />
</svg>
