<?xml version="1.0" standalone="no"?>
<!DOCTYPE svg PUBLIC "-//W3C//DTD SVG 1.1//EN" "http://www.w3.org/Graphics/SVG/1.1/DTD/svg11.dtd" >
<svg xmlns="http://www.w3.org/2000/svg" xmlns:xlink="http://www.w3.org/1999/xlink" version="1.1" width="2048" height="2048" viewBox="-10 0 2058 2048">
   <path fill="currentColor"
d="M1368 844q92 71 150.5 173.5t74.5 219.5q21 109 0.5 215.5t-79.5 198.5l-150 -88q58 -104 58 -226q-4 -142 -88 -259l-560 970l-154 -88l267 -464l-155 -87l-133 229l-155 -87l460 -794q-142 -155 -167 -360t83 -389l155 92q-46 80 -58.5 165.5t10.5 171t75 157
t132 117.5zM1380 359q-71 0 -123 52.5t-52 125.5t52 125.5t125.5 52.5t125.5 -52.5t52 -125.5t-52 -125.5t-128 -52.5zM1159 0q-55 0 -94.5 39.5t-39.5 96t39.5 94t94 37.5t94.5 -37.5t40 -94t-40 -96t-94 -39.5z" />
</svg>
