<?xml version="1.0" standalone="no"?>
<!DOCTYPE svg PUBLIC "-//W3C//DTD SVG 1.1//EN" "http://www.w3.org/Graphics/SVG/1.1/DTD/svg11.dtd" >
<svg xmlns="http://www.w3.org/2000/svg" xmlns:xlink="http://www.w3.org/1999/xlink" version="1.1" width="2048" height="2048" viewBox="-10 0 2058 2048">
   <path fill="currentColor"
d="M950 73v731q0 70 -40 127t-106 80v890q0 60 -43 103.5t-103 43.5h-146q-60 0 -103 -43.5t-43 -103.5v-890q-66 -23 -106 -80t-40 -127v-731q0 -30 21 -51.5t51 -21.5t52 21.5t22 51.5v475q0 30 21 51.5t51.5 21.5t52 -21.5t21.5 -51.5v-475q0 -30 22 -51.5t52 -21.5
t51 21.5t21 51.5v475q0 30 22 51.5t52 21.5t51 -21.5t21 -51.5v-475q0 -30 22 -51.5t52 -21.5t51 21.5t21 51.5zM1828 73v1828q0 60 -43 103.5t-103 43.5h-146q-60 0 -103 -43.5t-43 -103.5v-585h-256q-15 0 -25.5 -11t-10.5 -25v-915q0 -99 48.5 -183t133 -133t182.5 -49
h294q30 0 51 21.5t21 51.5z" />
</svg>
