<?xml version="1.0" standalone="no"?>
<!DOCTYPE svg PUBLIC "-//W3C//DTD SVG 1.1//EN" "http://www.w3.org/Graphics/SVG/1.1/DTD/svg11.dtd" >
<svg xmlns="http://www.w3.org/2000/svg" xmlns:xlink="http://www.w3.org/1999/xlink" version="1.1" width="2048" height="2048" viewBox="-10 0 2058 2048">
   <path fill="currentColor"
d="M1539 584q-144 0 -295 96v-680h-296v674q-110 -90 -288 -90q-145 0 -296 96v-680h-295v2048q632 -350 879 -674v674q523 -289 784 -557q247 -254 247 -467q0 -179 -96 -296q-117 -144 -344 -144zM364 1519v-454q76 -82 155 -133.5t141 -51.5q75 0 109.5 24t34.5 120
q0 55 -62 144q-110 158 -378 351zM1244 1519v-454q76 -82 155 -133.5t140 -51.5q76 0 110.5 24t34.5 120q0 55 -62 144q-110 158 -378 351z" />
</svg>
