<?xml version="1.0" standalone="no"?>
<!DOCTYPE svg PUBLIC "-//W3C//DTD SVG 1.1//EN" "http://www.w3.org/Graphics/SVG/1.1/DTD/svg11.dtd" >
<svg xmlns="http://www.w3.org/2000/svg" xmlns:xlink="http://www.w3.org/1999/xlink" version="1.1" width="2048" height="2048" viewBox="-10 0 2058 2048">
   <path fill="currentColor"
d="M1824 434q32 32 55 86.5t23 100.5v1317q0 46 -32 78t-78 32h-1536q-45 0 -77.5 -32t-32.5 -78v-1829q0 -46 32.5 -77.5t77.5 -31.5h1024q46 0 101 22.5t87 54.5zM1316 155v430h430q-12 -35 -24 -47l-358 -358q-13 -12 -48 -25zM1756 1901v-1170h-476q-45 0 -77.5 -32
t-32.5 -78v-475h-878v1755h1464zM586 914q0 -16 10 -26.5t26 -10.5h804q16 0 27 10.5t11 26.5v73q0 16 -11 26.5t-27 10.5h-804q-16 0 -26 -10.5t-10 -26.5v-73zM1426 1170q16 0 27 10t11 26v74q0 16 -11 26t-27 10h-804q-16 0 -26 -10t-10 -26v-74q0 -16 10 -26t26 -10h804
zM1426 1462q16 0 27 10.5t11 26.5v73q0 16 -11 26.5t-27 10.5h-804q-16 0 -26 -10.5t-10 -26.5v-73q0 -16 10 -26.5t26 -10.5h804z" />
</svg>
