<?xml version="1.0" standalone="no"?>
<!DOCTYPE svg PUBLIC "-//W3C//DTD SVG 1.1//EN" "http://www.w3.org/Graphics/SVG/1.1/DTD/svg11.dtd" >
<svg xmlns="http://www.w3.org/2000/svg" xmlns:xlink="http://www.w3.org/1999/xlink" version="1.1" width="2048" height="2048" viewBox="-10 0 2068 2048">
   <path fill="currentColor"
d="M1024 1846q-250 0 -456.5 -139.5t-300.5 -370t-46 -473.5t223.5 -418.5t418.5 -223.5t473.5 46t370 300.5t139.5 456.5q0 221 -110.5 411t-300.5 300.5t-411 110.5zM1024 0q-279 0 -514.5 137t-372.5 372.5t-137 514.5t137 514.5t372.5 372.5t514.5 137t514.5 -137
t372.5 -372.5t137 -514.5q0 -202 -77 -392t-221 -334t-334 -221t-392 -77z" />
</svg>
