<?xml version="1.0" standalone="no"?>
<!DOCTYPE svg PUBLIC "-//W3C//DTD SVG 1.1//EN" "http://www.w3.org/Graphics/SVG/1.1/DTD/svg11.dtd" >
<svg xmlns="http://www.w3.org/2000/svg" xmlns:xlink="http://www.w3.org/1999/xlink" version="1.1" width="2048" height="2048" viewBox="-10 0 2068 2048">
   <path fill="currentColor"
d="M2048 1940l-1931 -1940l-117 117l100 96q-21 54 -21 79v1068q0 75 52.5 127t127.5 52h621v179h-175v176h354v-534h-800v-985l980 976v455q0 38 27 63t60 25h455l150 154zM1639 1806q-129 0 -221 -91.5t-92 -221.5q0 -33 9 -50l87 88q17 67 65 114.5t115 64.5l87 88
q-16 8 -50 8zM1860 1493v29l-250 -250h29q92 0 156.5 64.5t64.5 156.5zM2040 1698v-872q0 -38 -27.5 -63t-64.5 -25h-622q-37 0 -62 27.5t-25 60.5v71l300 304q54 -16 100 -16q125 0 217 91.5t92 216.5q0 46 -17 100zM1639 1093q-54 0 -93.5 -39.5t-39.5 -92t39.5 -94
t91.5 -41.5t94 41.5t42 94t-42 92t-92 39.5zM634 292l-179 -175h1405q75 0 127.5 52t52.5 123v359h-180v-359h-1226z" />
</svg>
