<?xml version="1.0" standalone="no"?>
<!DOCTYPE svg PUBLIC "-//W3C//DTD SVG 1.1//EN" "http://www.w3.org/Graphics/SVG/1.1/DTD/svg11.dtd" >
<svg xmlns="http://www.w3.org/2000/svg" xmlns:xlink="http://www.w3.org/1999/xlink" version="1.1" width="2048" height="2048" viewBox="-10 0 2058 2048">
   <path fill="currentColor"
d="M1788 131q78 0 134.5 54t56.5 134.5t-56.5 137t-137 56.5t-134.5 -56.5t-54 -137t54 -134.5t137 -54zM1788 896q78 0 134.5 53.5t56.5 134t-56.5 137.5t-137 57t-134.5 -57t-54 -137.5t54 -134t137 -53.5zM702 0q-174 0 -320 86.5t-229.5 233t-83.5 319.5v125
q0 108 71.5 179.5t173 74.5t179 -65.5t83.5 -173t-62.5 -182.5t-170.5 -84q42 -113 140.5 -184.5t218.5 -71.5q215 0 364 149t149 358q0 347 -218 600.5t-678 444.5l102 239q525 -227 785 -543.5t260 -740.5q0 -203 -101.5 -379t-277.5 -280.5t-385 -104.5z" />
</svg>
