<?xml version="1.0" standalone="no"?>
<!DOCTYPE svg PUBLIC "-//W3C//DTD SVG 1.1//EN" "http://www.w3.org/Graphics/SVG/1.1/DTD/svg11.dtd" >
<svg xmlns="http://www.w3.org/2000/svg" xmlns:xlink="http://www.w3.org/1999/xlink" version="1.1" width="2048" height="2048" viewBox="-10 0 2058 2048">
   <path fill="currentColor"
d="M1148 932v-326l205 -205q57 -57 67.5 -135.5t-28.5 -147.5q-35 -53 -87 -85.5t-113 -32.5q-35 0 -61 9q-74 22 -120 85t-46 141v301l-292 292q-117 118 -150 281t33 320q52 131 161 218t248 109v57q0 21 -15 34.5t-33 13.5h-139v187h139q96 0 163.5 -69.5t67.5 -165.5
v-44q96 0 185.5 -56.5t146 -159t56.5 -228.5q0 -105 -52.5 -196.5t-141.5 -144t-194 -52.5zM1148 235q0 -35 33 -45.5t50 24.5q9 13 6.5 28t-15.5 28l-74 79v-114zM965 976q-65 44 -115 113.5t-68 143.5l183 48v283q-83 -17 -146 -73.5t-93 -135.5q-44 -100 -22 -207
t100 -185l161 -170v183zM1148 1582v-471q83 0 144 65.5t61 148.5q0 113 -70 191q-61 66 -135 66z" />
</svg>
