<?xml version="1.0" standalone="no"?>
<!DOCTYPE svg PUBLIC "-//W3C//DTD SVG 1.1//EN" "http://www.w3.org/Graphics/SVG/1.1/DTD/svg11.dtd" >
<svg xmlns="http://www.w3.org/2000/svg" xmlns:xlink="http://www.w3.org/1999/xlink" version="1.1" width="2048" height="2048" viewBox="-10 0 2058 2048">
   <path fill="currentColor"
d="M1253 0h-229v1200q-107 -59 -229 -64q-187 0 -320.5 133.5t-133.5 322.5t133.5 322.5t323 133.5t322.5 -133.5t133 -319.5v-1595zM795 1819q-91 0 -157.5 -67t-66.5 -160t66.5 -160t160 -67t160 67t66.5 160t-66.5 160t-162.5 67zM1536 1936q-69 0 -120 -50.5t-51 -122.5
t51 -120t120 -48t120 48t51 120t-51 122.5t-120 50.5z" />
</svg>
