<?xml version="1.0" standalone="no"?>
<!DOCTYPE svg PUBLIC "-//W3C//DTD SVG 1.1//EN" "http://www.w3.org/Graphics/SVG/1.1/DTD/svg11.dtd" >
<svg xmlns="http://www.w3.org/2000/svg" xmlns:xlink="http://www.w3.org/1999/xlink" version="1.1" width="2048" height="2048" viewBox="-10 0 2058 2048">
   <path fill="currentColor"
d="M936 1573q-69 64 -72 157.5t61 157.5l-165 160q-128 -128 -122.5 -312t138.5 -317q85 -86 208 -118l-357 -352l208 -202q85 -80 87.5 -197.5t-77.5 -197.5l-202 -192l170 -160l470 464q64 64 61 154.5t-67 160.5l-250 240l394 384l-42 42q-43 43 -101.5 61.5t-114.5 2.5
t-120 0t-107 64z" />
</svg>
