<?xml version="1.0" standalone="no"?>
<!DOCTYPE svg PUBLIC "-//W3C//DTD SVG 1.1//EN" "http://www.w3.org/Graphics/SVG/1.1/DTD/svg11.dtd" >
<svg xmlns="http://www.w3.org/2000/svg" xmlns:xlink="http://www.w3.org/1999/xlink" version="1.1" width="2048" height="2048" viewBox="-10 0 2068 2048">
   <path fill="currentColor"
d="M680 684q104 0 192 56t128 152t20 200t-96 176t-176 92t-196 -20t-152 -124t-56 -188q0 -144 100 -244t236 -100zM680 340q-280 0 -480 200t-200 484t200 484t484 200t484 -200t200 -484t-200 -484t-488 -200zM1792 1028q104 0 180 72t76 180t-76 184t-180 76t-180 -76
t-76 -184t76 -180t180 -72z" />
</svg>
