<?xml version="1.0" standalone="no"?>
<!DOCTYPE svg PUBLIC "-//W3C//DTD SVG 1.1//EN" "http://www.w3.org/Graphics/SVG/1.1/DTD/svg11.dtd" >
<svg xmlns="http://www.w3.org/2000/svg" xmlns:xlink="http://www.w3.org/1999/xlink" version="1.1" width="2048" height="2048" viewBox="-10 0 2068 2048">
   <path fill="currentColor"
d="M1819 1819h-1590v-1590h1590v1590zM1819 0h-1590q-96 0 -162.5 66.5t-66.5 162.5v1590q0 96 66.5 162.5t162.5 66.5h1590q96 0 162.5 -66.5t66.5 -162.5v-1590q0 -96 -66.5 -162.5t-162.5 -66.5zM571 1595h224v-1142h-454v230h230v912zM1253 453h224q96 0 163 67t67 163
v682q0 96 -67 163t-163 67h-224q-96 0 -162.5 -67t-66.5 -163v-682q0 -96 66.5 -163t162.5 -67zM1253 683v682h224v-682h-224z" />
</svg>
