<?xml version="1.0" standalone="no"?>
<!DOCTYPE svg PUBLIC "-//W3C//DTD SVG 1.1//EN" "http://www.w3.org/Graphics/SVG/1.1/DTD/svg11.dtd" >
<svg xmlns="http://www.w3.org/2000/svg" xmlns:xlink="http://www.w3.org/1999/xlink" version="1.1" width="2048" height="2048" viewBox="-10 0 2058 2048">
   <path fill="currentColor"
d="M1364 0q-138 165 -346 213q10 -53 -8.5 -103.5t-64 -80t-101.5 -27t-98.5 34.5t-58.5 85.5t2.5 104t64 82.5t98.5 32h27q219 0 400 -122l-155 474q-133 155 -336 203q16 -53 -5 -104t-66.5 -80t-101.5 -26.5t-98.5 34.5t-56 85.5t2.5 104t61.5 82.5t98.5 32h27
q218 0 400 -123l-368 1147h229l683 -2048h-230z" />
</svg>
