<?xml version="1.0" standalone="no"?>
<!DOCTYPE svg PUBLIC "-//W3C//DTD SVG 1.1//EN" "http://www.w3.org/Graphics/SVG/1.1/DTD/svg11.dtd" >
<svg xmlns="http://www.w3.org/2000/svg" xmlns:xlink="http://www.w3.org/1999/xlink" version="1.1" width="2048" height="2048" viewBox="-10 0 2068 2048">
   <path fill="currentColor"
d="M1244 466h449v-450h-677v518l228 228v-296zM1016 857l-857 -857l-159 159l1016 1016v32q-85 -48 -182.5 -58.5t-193.5 21.5q-164 58 -248.5 214t-39.5 325.5t190.5 264.5t317.5 66t278 -161.5t106 -301.5v-175l645 646l159 -159zM789 1820q-90 0 -156.5 -66t-66.5 -158.5
t66.5 -158.5t159 -66t158.5 66t66 158.5t-66 158.5t-161 66z" />
</svg>
