<?xml version="1.0" standalone="no"?>
<!DOCTYPE svg PUBLIC "-//W3C//DTD SVG 1.1//EN" "http://www.w3.org/Graphics/SVG/1.1/DTD/svg11.dtd" >
<svg xmlns="http://www.w3.org/2000/svg" xmlns:xlink="http://www.w3.org/1999/xlink" version="1.1" width="2048" height="2048" viewBox="-10 0 2058 2048">
   <path fill="currentColor"
d="M1598 458h-180q0 -124 -62 -229t-167 -167t-229.5 -62t-229 62t-167 167t-62.5 229h-180q-77 0 -130.5 54t-53.5 131v1097q0 72 53.5 125.5t130.5 53.5h643q-129 -81 -203.5 -214t-74.5 -287q0 -193 115 -347q-137 -51 -218.5 -169t-81.5 -259h185q0 111 79 192.5
t195 81.5h4q86 -56 184 -77q86 -82 86 -197h184q0 98 -43 188q125 22 232 94.5t175 179.5v-462q0 -77 -53.5 -131t-130.5 -54zM686 458q0 -115 79 -194.5t194.5 -79.5t195 79.5t79.5 194.5h-548zM1628 1637q82 -133 56 -287.5t-148 -253t-278.5 -90t-268 120t-120 268
t88 278.5t250.5 150t287 -58l287 283l129 -129zM1281 1645q-94 0 -162.5 -66.5t-68.5 -160.5t68.5 -160.5t162.5 -66.5t160.5 66.5t66.5 160.5t-66.5 160.5t-160.5 66.5z" />
</svg>
