<?xml version="1.0" standalone="no"?>
<!DOCTYPE svg PUBLIC "-//W3C//DTD SVG 1.1//EN" "http://www.w3.org/Graphics/SVG/1.1/DTD/svg11.dtd" >
<svg xmlns="http://www.w3.org/2000/svg" xmlns:xlink="http://www.w3.org/1999/xlink" version="1.1" width="2048" height="2048" viewBox="-10 0 2068 2048">
   <path fill="currentColor"
d="M1058 1796h-241v-308h217q19 -111 72 -207h-289v-307h414v158q86 -82 202 -125v-33h413v33q115 43 202 125v-875q0 -86 -60 -146.5t-142 -60.5h-1644q-82 0 -142 60.5t-60 146.5v1539q0 81 60 141.5t142 60.5h981q-82 -87 -125 -202zM1433 459h413v308h-413v-308z
M817 459h414v308h-414v-308zM615 1796h-413v-308h413v308zM615 1281h-413v-307h413v307zM615 767h-413v-308h413v308zM1538 1180h202v308h308v202h-308v308h-202v-308h-307v-202h307v-308z" />
</svg>
