<?xml version="1.0" standalone="no"?>
<!DOCTYPE svg PUBLIC "-//W3C//DTD SVG 1.1//EN" "http://www.w3.org/Graphics/SVG/1.1/DTD/svg11.dtd" >
<svg xmlns="http://www.w3.org/2000/svg" xmlns:xlink="http://www.w3.org/1999/xlink" version="1.1" width="2048" height="2048" viewBox="-10 0 2068 2048">
   <path fill="currentColor"
d="M229 0q-96 0 -162.5 66.5t-66.5 162.5h229v-229zM453 0v229h230v-229h-230zM912 0v229h224v-229h-224zM1365 0v229h230v-229h-230zM1819 0v229h229q0 -96 -66.5 -162.5t-162.5 -66.5zM0 453v230h229v-230h-229zM453 453v459h459v-459h-459zM1136 453v459h459v-459h-459z
M1819 453v230h229v-230h-229zM0 912v224h229v-224h-229zM1819 912v224h229v-224h-229zM453 1136v459h459v-459h-459zM1136 1136v459h459v-459h-459zM0 1365v230h229v-230h-229zM1819 1365v230h229v-230h-229zM0 1819q0 96 66.5 162.5t162.5 66.5v-229h-229zM453 1819v229
h230v-229h-230zM912 1819v229h224v-229h-224zM1365 1819v229h230v-229h-230zM1819 1819v229q96 0 162.5 -66.5t66.5 -162.5h-229z" />
</svg>
