<?xml version="1.0" standalone="no"?>
<!DOCTYPE svg PUBLIC "-//W3C//DTD SVG 1.1//EN" "http://www.w3.org/Graphics/SVG/1.1/DTD/svg11.dtd" >
<svg xmlns="http://www.w3.org/2000/svg" xmlns:xlink="http://www.w3.org/1999/xlink" version="1.1" width="2048" height="2048" viewBox="-10 0 2068 2048">
   <path fill="currentColor"
d="M1024 1466q130 0 219 -89t89 -218q0 -82 -41 -154t-113 -111l-995 -577l567 981q38 77 112.5 122.5t161.5 45.5zM1024 135q-269 0 -510 134l217 125q139 -53 293 -53q221 0 411 110.5t300.5 298t110.5 409.5q0 168 -65 317t-175 264q-34 29 -34 72.5t31.5 72t74.5 28.5
t72 -28q139 -140 218.5 -327.5t79.5 -398.5q0 -274 -137 -510t-372.5 -375t-514.5 -139zM0 1159q0 211 79.5 398.5t218.5 327.5q29 28 72 28t72 -28.5t29 -72t-29 -72.5q-110 -115 -175 -264t-65 -317q0 -154 58 -298l-125 -212q-135 245 -135 510z" />
</svg>
