<?xml version="1.0" standalone="no"?>
<!DOCTYPE svg PUBLIC "-//W3C//DTD SVG 1.1//EN" "http://www.w3.org/Graphics/SVG/1.1/DTD/svg11.dtd" >
<svg xmlns="http://www.w3.org/2000/svg" xmlns:xlink="http://www.w3.org/1999/xlink" version="1.1" width="2048" height="2048" viewBox="-10 0 2058 2048">
   <path fill="currentColor"
d="M658 1499v73q0 14 -11 25.5t-25 11.5h-74q-14 0 -25 -11.5t-11 -25.5v-73q0 -14 11 -25.5t25 -11.5h74q14 0 25 11.5t11 25.5zM658 1206v74q0 14 -11 25t-25 11h-74q-14 0 -25 -11t-11 -25v-74q0 -14 11 -25t25 -11h74q14 0 25 11t11 25zM950 1206v74q0 14 -10.5 25
t-25.5 11h-72q-15 0 -26.5 -11t-11.5 -25v-74q0 -14 11.5 -25t26.5 -11h72q15 0 25.5 11t10.5 25zM658 914v73q0 14 -11 25.5t-25 11.5h-74q-14 0 -25 -11.5t-11 -25.5v-73q0 -14 11 -25.5t25 -11.5h74q14 0 25 11.5t11 25.5zM1536 1499v73q0 14 -11 25.5t-25 11.5h-74
q-14 0 -25 -11.5t-11 -25.5v-73q0 -14 11 -25.5t25 -11.5h74q14 0 25 11.5t11 25.5zM1244 1206v74q0 14 -11.5 25t-26.5 11h-72q-15 0 -25.5 -11t-10.5 -25v-74q0 -14 10.5 -25t25.5 -11h72q15 0 26.5 11t11.5 25zM950 914v73q0 14 -10.5 25.5t-25.5 11.5h-72
q-15 0 -26.5 -11.5t-11.5 -25.5v-73q0 -14 11.5 -25.5t26.5 -11.5h72q15 0 25.5 11.5t10.5 25.5zM1536 1206v74q0 14 -11 25t-25 11h-74q-14 0 -25 -11t-11 -25v-74q0 -14 11 -25t25 -11h74q14 0 25 11t11 25zM1244 914v73q0 14 -11.5 25.5t-26.5 11.5h-72
q-15 0 -25.5 -11.5t-10.5 -25.5v-73q0 -14 10.5 -25.5t25.5 -11.5h72q15 0 26.5 11.5t11.5 25.5zM1536 914v73q0 14 -11 25.5t-25 11.5h-74q-14 0 -25 -11.5t-11 -25.5v-73q0 -14 11 -25.5t25 -11.5h74q14 0 25 11.5t11 25.5zM1244 1901h438v-1316h-292v36q0 46 -32 78
t-78 32h-512q-45 0 -77.5 -32t-32.5 -78v-36h-292v1316h438v-256q0 -14 11.5 -25t26.5 -11h364q15 0 26.5 11t11.5 25v256zM1244 548v-366q0 -14 -11.5 -25t-26.5 -11h-72q-15 0 -25.5 11t-10.5 25v110h-148v-110q0 -14 -10.5 -25t-25.5 -11h-72q-15 0 -26.5 11t-11.5 25
v366q0 14 11.5 25.5t26.5 11.5h72q15 0 25.5 -11.5t10.5 -25.5v-110h148v110q0 14 10.5 25.5t25.5 11.5h72q15 0 26.5 -11.5t11.5 -25.5zM1828 512v1462q0 30 -21.5 52t-50.5 22h-1464q-29 0 -50.5 -22t-21.5 -52v-1462q0 -30 21.5 -52t50.5 -22h366v-329q0 -46 32.5 -77.5
t77.5 -31.5h512q46 0 78 31.5t32 77.5v329h366q29 0 50.5 22t21.5 52z" />
</svg>
