<?xml version="1.0" standalone="no"?>
<!DOCTYPE svg PUBLIC "-//W3C//DTD SVG 1.1//EN" "http://www.w3.org/Graphics/SVG/1.1/DTD/svg11.dtd" >
<svg xmlns="http://www.w3.org/2000/svg" xmlns:xlink="http://www.w3.org/1999/xlink" version="1.1" width="2048" height="2048" viewBox="-10 0 2068 2048">
   <path fill="currentColor"
d="M409 1740h206v207h-206v-207zM1024 101l-1024 514v1332h202v-822h1644v822h202v-1332zM615 923h-413v-207h413v207zM1231 923h-414v-207h414v207zM1846 923h-413v-207h413v207zM409 1332h206v206h-206v-206zM817 1332h207v206h-207v-206zM817 1740h207v207h-207v-207z
M1231 1740h202v207h-202v-207z" />
</svg>
