<?xml version="1.0" standalone="no"?>
<!DOCTYPE svg PUBLIC "-//W3C//DTD SVG 1.1//EN" "http://www.w3.org/Graphics/SVG/1.1/DTD/svg11.dtd" >
<svg xmlns="http://www.w3.org/2000/svg" xmlns:xlink="http://www.w3.org/1999/xlink" version="1.1" width="2048" height="2048" viewBox="-10 0 2068 2048">
   <path fill="currentColor"
d="M677 1184h-272q-37 -160 0 -320h272q-10 80 -10 160t10 160zM475 704h229q43 -144 112 -283q-224 80 -341 283zM1573 704q-117 -203 -341 -283q69 134 107 283h234zM1024 1659q101 -144 155 -315h-310q54 171 155 315zM1024 389q-101 144 -155 315h310
q-54 -171 -155 -315zM475 1344q117 203 341 283q-69 -139 -112 -283h-229zM2048 229v1590q0 96 -66.5 162.5t-162.5 66.5h-1590q-96 0 -162.5 -66.5t-66.5 -162.5v-1590q0 -96 66.5 -162.5t162.5 -66.5h1590q96 0 162.5 66.5t66.5 162.5zM1819 1024q0 -240 -133.5 -442.5
t-357.5 -293.5t-461.5 -45.5t-408 216t-216 408t45.5 461.5t293.5 357.5t442.5 133.5q219 0 400 -107t288 -288t107 -400zM1381 1024q0 80 -10 160h272q37 -160 0 -320h-272q10 80 10 160zM1232 1627q224 -80 341 -283h-234q-38 149 -107 283zM837 864q-26 160 0 320h374
q10 -80 10 -160t-10 -160h-374z" />
</svg>
