<?xml version="1.0" standalone="no"?>
<!DOCTYPE svg PUBLIC "-//W3C//DTD SVG 1.1//EN" "http://www.w3.org/Graphics/SVG/1.1/DTD/svg11.dtd" >
<svg xmlns="http://www.w3.org/2000/svg" xmlns:xlink="http://www.w3.org/1999/xlink" version="1.1" width="2048" height="2048" viewBox="-10 0 2068 2048">
   <path fill="currentColor"
d="M635 1589.5q0 -58.5 -41 -100.5t-99.5 -42t-100 42t-41.5 100.5t41.5 99.5t100 41t99.5 -41t41 -99.5zM212 1024h423v-282h-173q-16 2 -25 9l-215 216q-9 17 -10 24v33zM1624 1589.5q0 -58.5 -41 -100.5t-99.5 -42t-100 42t-41.5 100.5t41 99.5t100 41t100 -41t41 -99.5z
M1766 848v-213q0 -15 -10 -24.5t-26 -9.5h-247v-248q0 -15 -10 -25t-25 -10h-212q-15 0 -25 10t-10 25v248h-247q-15 0 -25.5 9.5t-10.5 24.5v213q0 15 10.5 25t25.5 10h247v247q0 15 10 25t25 10h212q15 0 25 -10t10 -25v-247h247q16 0 26 -10t10 -25zM2048 247v1272
q0 29 -21 49.5t-49 20.5h-212q0 117 -83 199.5t-200 82.5q-116 0 -199 -82.5t-83 -199.5h-424q0 117 -82.5 199.5t-200 82.5t-200 -82.5t-82.5 -199.5h-142q-28 0 -49 -20.5t-21 -49.5t21 -50.5t49 -21.5v-458q0 -29 15 -64.5t36 -56.5l218 -218q21 -21 56 -35t65 -14h175
v-354q0 -29 21.5 -49.5t50.5 -20.5h1271q28 0 49 20.5t21 49.5z" />
</svg>
