<?xml version="1.0" standalone="no"?>
<!DOCTYPE svg PUBLIC "-//W3C//DTD SVG 1.1//EN" "http://www.w3.org/Graphics/SVG/1.1/DTD/svg11.dtd" >
<svg xmlns="http://www.w3.org/2000/svg" xmlns:xlink="http://www.w3.org/1999/xlink" version="1.1" width="2048" height="2048" viewBox="-10 0 2068 2048">
   <path fill="currentColor"
d="M359 1024q0 75 -52.5 127t-127.5 52t-127 -52t-52 -127t52 -127t127 -52t127.5 52t52.5 127zM267 136v533h-175v-533h175zM92 1912v-533h175v533h-175zM2048 490v1068q0 75 -52 127t-127 52h-1068q-71 0 -123 -52t-52 -127v-355l-180 -179l180 -179v-355q0 -75 52 -127
t123 -52h1068q75 0 127 52t52 127zM1869 490h-1068v430l-104 104l104 104v430h1068v-1068zM1381 1337v133h-134v-133h134zM1201 891h-133v-46q0 -109 79 -188t189.5 -79t188 79t77.5 188q0 66 -29.5 122.5t-83.5 94.5l-29 16q-79 54 -79 150v17h-134v-17q0 -79 37.5 -148
t104.5 -114l25 -17q54 -38 54 -104q0 -55 -37.5 -94.5t-93.5 -39.5t-96 39.5t-40 94.5v46z" />
</svg>
