<?xml version="1.0" standalone="no"?>
<!DOCTYPE svg PUBLIC "-//W3C//DTD SVG 1.1//EN" "http://www.w3.org/Graphics/SVG/1.1/DTD/svg11.dtd" >
<svg xmlns="http://www.w3.org/2000/svg" xmlns:xlink="http://www.w3.org/1999/xlink" version="1.1" width="2048" height="2048" viewBox="-10 0 2069 2048">
   <path fill="currentColor"
d="M1464 1755l174 174q37 37 78 18.5t41 -64.5v-420l270 -335q37 -50 9.5 -102.5t-87.5 -52.5h-682q-59 0 -86.5 57t9.5 98l274 335v292zM1267 1659h-1267v-293q0 -123 142 -219q123 -83 316 -128q173 -46 320 -46q55 0 178 18l28 5q-28 78 9 183q-137 -18 -215 -18
q-133 0 -284 41q-128 32 -219.5 82t-91.5 82v106h1034l50 59v128zM778 877q165 0 279 -114.5t114 -277t-114 -277t-276.5 -114.5t-277 114.5t-114.5 277t114.5 277t274.5 114.5zM778 291q82 0 139.5 57.5t57.5 137.5t-57.5 137t-137.5 57t-137 -57t-57 -137t57 -137.5
t135 -57.5z" />
</svg>
