<?xml version="1.0" standalone="no"?>
<!DOCTYPE svg PUBLIC "-//W3C//DTD SVG 1.1//EN" "http://www.w3.org/Graphics/SVG/1.1/DTD/svg11.dtd" >
<svg xmlns="http://www.w3.org/2000/svg" xmlns:xlink="http://www.w3.org/1999/xlink" version="1.1" width="2048" height="2048" viewBox="-10 0 2068 2048">
   <path fill="currentColor"
d="M2034 670q-96 110 -240 186q-165 82 -330 82q-138 0 -261 -41q-69 -21 -186 -83l-103 -41q-96 -41 -151 -62q-96 -27 -193 -27q-123 0 -247 62q-103 55 -179 130l-144 -220q117 -117 247 -185q165 -90 323 -90q110 0 220 28q62 21 165 69l179 75q89 41 144 62
q90 28 186 28q117 0 247 -69q96 -55 179 -138zM2048 1392q-117 117 -247 185q-165 90 -323 90q-138 0 -262 -35q-68 -27 -185 -82l-117 -55q-89 -41 -144 -62q-90 -28 -186 -28q-117 0 -247 69q-96 55 -179 138l-144 -234q117 -117 247 -192q165 -90 323 -90q138 0 261 41
q69 21 186 83l103 41q96 41 151 55q96 28 193 28q116 0 247 -69q96 -55 179 -131z" />
</svg>
