<?xml version="1.0" standalone="no"?>
<!DOCTYPE svg PUBLIC "-//W3C//DTD SVG 1.1//EN" "http://www.w3.org/Graphics/SVG/1.1/DTD/svg11.dtd" >
<svg xmlns="http://www.w3.org/2000/svg" xmlns:xlink="http://www.w3.org/1999/xlink" version="1.1" width="2048" height="2048" viewBox="-10 0 2068 2048">
   <path fill="currentColor"
d="M1819 0h-1590q-96 0 -162.5 66.5t-66.5 162.5v1590q0 96 66.5 162.5t162.5 66.5h1590q96 0 162.5 -66.5t66.5 -162.5v-1590q0 -96 -66.5 -162.5t-162.5 -66.5zM715 592q85 0 160 21q42 16 117 48l59 27q69 37 112 53q69 22 146.5 22t162.5 -48q69 -38 123 -91l90 149
q-69 75 -165 128q-112 54 -224 54q-85 0 -165 -27q-48 -16 -118 -53l-21 -11q-75 -37 -123 -53q-80 -27 -160 -27t-165 48q-69 37 -123 91l-80 -150q64 -74 160 -122q112 -59 214 -59zM1317 1456q-80 0 -154 -21q-43 -16 -118 -48l-42 -22q-75 -37 -123 -53
q-80 -27 -160 -27t-165 48q-70 38 -123 91l-91 -160q64 -75 160 -128q112 -53 214 -53q85 0 160 21q42 16 117 48l59 27q69 37 112 48q74 26 154 26t166 -48q69 -37 122 -90l91 149q-53 80 -157 136t-222 56z" />
</svg>
