<?xml version="1.0" standalone="no"?>
<!DOCTYPE svg PUBLIC "-//W3C//DTD SVG 1.1//EN" "http://www.w3.org/Graphics/SVG/1.1/DTD/svg11.dtd" >
<svg xmlns="http://www.w3.org/2000/svg" xmlns:xlink="http://www.w3.org/1999/xlink" version="1.1" width="2048" height="2048" viewBox="-10 0 2058 2048">
   <path fill="currentColor"
d="M615 0q-86 0 -146 60t-60 142v1231q0 86 60 146t146 60h101v207h-307v202h307q87 0 147 -60t60 -142v-207h202v207q0 82 60 142t147 60h307v-202h-307v-207h101q86 0 146 -60t60 -146v-1231q0 -82 -60 -142t-146 -60h-818zM1024 303q87 0 147 60t60 144t-60 144.5
t-147 60.5t-147 -60.5t-60 -144.5t60 -144t147 -60zM817 1279h414v154h-414v-154z" />
</svg>
