<?xml version="1.0" standalone="no"?>
<!DOCTYPE svg PUBLIC "-//W3C//DTD SVG 1.1//EN" "http://www.w3.org/Graphics/SVG/1.1/DTD/svg11.dtd" >
<svg xmlns="http://www.w3.org/2000/svg" xmlns:xlink="http://www.w3.org/1999/xlink" version="1.1" width="2048" height="2048" viewBox="-10 0 2058 2048">
   <path fill="currentColor"
d="M1973 841l-144 39l-125 -72v-173l125 -73l144 44l29 -116l-110 -28l29 -116l-111 -29l-43 145l-125 72l-154 -97v-129l106 -106l-82 -82l-82 82l-81 -82l-82 82l101 106v129l-154 97l-125 -72l-29 -145l-115 29l33 116l-115 19l34 110l144 -38l120 72v173l-120 72
l-144 -43l-34 135l115 33l-33 101l115 29l39 -144l125 -68l153 92v130l-101 105l82 82l82 -82l82 82l81 -82l-101 -105v-130l154 -92l120 68l44 144l110 -29l-38 -115l110 -29zM1276 635l154 -92l154 92v173l-154 91l-154 -91v-173zM353 1639q-43 -115 -81 -226
q-92 -274 -149 -504q-77 -318 -77 -500q0 -140 29 -236q28 -77 72 -125q33 -29 72 -43l29 -5h105h24q34 10 48 29q29 29 29 72q0 29 -9.5 48t-28.5 48q-29 43 -43 77q-20 53 -20 135q0 62 39 139q24 48 91 144q87 130 120 202q58 120 58 228.5t-48 213.5q-39 82 -106 164
q-48 53 -106 101zM1377 1538q87 0 147 60.5t60 141.5v106q0 82 -60 142t-147 60h-615q-130 0 -231 -91q-53 -44 -77 -92q-19 -19 -19 -43t19 -38l82 -68q101 -77 178 -125q106 -62 149 -62h514v9z" />
</svg>
