<?xml version="1.0" standalone="no"?>
<!DOCTYPE svg PUBLIC "-//W3C//DTD SVG 1.1//EN" "http://www.w3.org/Graphics/SVG/1.1/DTD/svg11.dtd" >
<svg xmlns="http://www.w3.org/2000/svg" xmlns:xlink="http://www.w3.org/1999/xlink" version="1.1" width="2048" height="2048" viewBox="-10 0 2068 2048">
   <path fill="currentColor"
d="M2048 1502l-474 474l-335 -330l143 -144l192 188l331 -331zM1046 1690q0 -205 135 -371l-322 -201v-572h143v496l295 183q147 -107 322 -107q134 0 268 67l4 -22q14 -90 14 -139q0 -259 -127.5 -478.5t-346.5 -346.5t-478.5 -127t-478.5 127t-346.5 346.5t-127.5 478.5
t127.5 478.5t346.5 346.5t478 127q68 0 161 -17q-67 -135 -67 -269z" />
</svg>
