<?xml version="1.0" standalone="no"?>
<!DOCTYPE svg PUBLIC "-//W3C//DTD SVG 1.1//EN" "http://www.w3.org/Graphics/SVG/1.1/DTD/svg11.dtd" >
<svg xmlns="http://www.w3.org/2000/svg" xmlns:xlink="http://www.w3.org/1999/xlink" version="1.1" width="2048" height="2048" viewBox="-10 0 2058 2048">
   <path fill="currentColor"
d="M1806 580q-82 -252 -349 -362v-218h-143v205h-61q-232 0 -410 170l-55 62l-204 -75q-89 -27 -144 -27q-143 0 -252 88q-103 69 -157 198q-41 150 0 294q68 164 157 218q-89 335 150 567q171 177 403 177q123 0 164 -13q143 184 348 184q102 0 143 -14q109 -34 201.5 -160
t92.5 -235.5t-14 -157.5l-75 -232l89 -54q184 -185 163 -458h185v-157h-232zM393 915q-130 -62 -85.5 -191.5t173.5 -81.5l464 170q-334 171 -552 103zM1314 1734q-130 41 -191 -89q-68 -218 102 -553l171 451q48 143 -82 191zM1485 956l-89 -232v-14l-41 -41h-14l-232 -89
q96 -75 191 -75q117 0 202 89t85 191l-34 62q-41 75 -68 109z" />
</svg>
