<?xml version="1.0" standalone="no"?>
<!DOCTYPE svg PUBLIC "-//W3C//DTD SVG 1.1//EN" "http://www.w3.org/Graphics/SVG/1.1/DTD/svg11.dtd" >
<svg xmlns="http://www.w3.org/2000/svg" xmlns:xlink="http://www.w3.org/1999/xlink" version="1.1" width="2048" height="2048" viewBox="-10 0 2063 2048">
   <path fill="currentColor"
d="M979 1103v-9l-29 -29h-9l-164 -63q68 -52 135 -52q81 0 141 62t60 139t-48 130zM787 1751q-48 -154 72 -389l120 317q33 86 -58 131.5t-134 -59.5zM211 1113q34 -91 125 -58l326 120q-235 120 -388 72q-91 -43 -63 -134zM1022 604h-101v144h-43q-163 0 -288 120l-38 62
l-144 -81q-29 -10 -101 -10q-100 0 -177 63q-86 67 -110 144q-29 100 0 201q48 115 110 154q-62 235 105 398q120 124 283 124q87 0 116 -9q100 134 244 134q72 0 101 -14q77 -24 141.5 -113t64.5 -165.5t-9 -110.5l-63 -139l63 -43q129 -130 110 -317h144v-100h-163
q-63 -187 -245 -250v-192zM1564 470q-29 -29 -29 -69.5t29 -72t72 -31.5t72 29q29 15 29 72q0 43 -29 72q-14 14 -28.5 16.5t-43.5 2.5t-43.5 -2.5t-28.5 -16.5zM1914 192h-115l-29 -91q-29 -101 -134 -101q-120 0 -134 101l-29 91h-115q-87 0 -130 96q-33 91 58 153l96 48
l-43 125q-24 53 9 125q48 57 113 57t93 -29l82 -62l82 72q43 19 91 19q67 0 115 -57q33 -72 9 -125l-43 -125l82 -48q96 -62 62 -153q-14 -53 -43 -74.5t-77 -21.5z" />
</svg>
