<?xml version="1.0" standalone="no"?>
<!DOCTYPE svg PUBLIC "-//W3C//DTD SVG 1.1//EN" "http://www.w3.org/Graphics/SVG/1.1/DTD/svg11.dtd" >
<svg xmlns="http://www.w3.org/2000/svg" xmlns:xlink="http://www.w3.org/1999/xlink" version="1.1" width="2048" height="2048" viewBox="-10 0 2068 2048">
   <path fill="currentColor"
d="M308 1639q-44 -115 -82 -226q-91 -274 -149 -504q-77 -318 -77 -500q0 -140 29 -236q29 -77 72 -125q34 -29 72 -43l29 -5h106h24q33 10 48 29q29 29 29 72q0 29 -10 48t-29 48q-29 43 -43 77q-19 53 -19 135q0 62 38 139q24 48 91 144q87 130 121 202q57 120 57 228.5
t-48 213.5q-38 82 -105 164q-49 53 -106 101zM1332 1538q86 0 146 60.5t60 141.5v106q0 82 -60 142t-146 60h-616q-129 0 -230 -91q-53 -44 -77 -92q-20 -19 -20 -43t20 -38l81 -68q101 -77 178 -125q106 -62 149 -62h515v9zM1197 144l-144 346l144 351l-202 491l-178 -145
l145 -346l-145 -351l207 -490zM1630 144l-144 346l144 351l-207 491l-173 -145l144 -346l-144 -351l207 -490zM2048 144l-144 346l144 351l-202 491l-178 -145l144 -346l-144 -351l207 -490z" />
</svg>
