<?xml version="1.0" standalone="no"?>
<!DOCTYPE svg PUBLIC "-//W3C//DTD SVG 1.1//EN" "http://www.w3.org/Graphics/SVG/1.1/DTD/svg11.dtd" >
<svg xmlns="http://www.w3.org/2000/svg" xmlns:xlink="http://www.w3.org/1999/xlink" version="1.1" width="2048" height="2048" viewBox="-10 0 2058 2048">
   <path fill="currentColor"
d="M1565 268q0 111 -78.5 189.5t-192 78.5t-192 -78.5t-78.5 -189.5t78.5 -189.5t192 -78.5t192 78.5t78.5 189.5zM1348 647h-86q-172 0 -321.5 -91t-230.5 -242q-20 -26 -20 -36l-197 86q46 121 167 243q136 131 308 202l-192 536l-419 -116l-304 591l218 56l192 -389
l485 131q81 15 154.5 -23t103.5 -108l248 -688q20 -61 -15.5 -106.5t-90.5 -45.5zM1767 536l-364 1016q-50 127 -159 203t-240 76q-76 0 -111 -11l-309 -86l-101 198l217 50l152 46q106 20 162 20q202 0 366.5 -114t235.5 -306l379 -1092h-228z" />
</svg>
