<?xml version="1.0" standalone="no"?>
<!DOCTYPE svg PUBLIC "-//W3C//DTD SVG 1.1//EN" "http://www.w3.org/Graphics/SVG/1.1/DTD/svg11.dtd" >
<svg xmlns="http://www.w3.org/2000/svg" xmlns:xlink="http://www.w3.org/1999/xlink" version="1.1" width="2048" height="2048" viewBox="-10 0 2068 2048">
   <path fill="currentColor"
d="M1024 31l-385 241h-331v206l-212 130q-43 29 -69.5 74.5t-26.5 103.5v1024q0 87 60 147t142 60h1644q82 0 142 -60t60 -147v-1024q0 -58 -26.5 -103.5t-69.5 -74.5l-212 -130v-206h-331zM510 478h1028v500l-514 318l-514 -318v-500zM615 579v154h818v-154h-818zM308 719
v130l-106 -63zM1740 719l106 67l-106 63v-130zM615 834v154h818v-154h-818z" />
</svg>
