<?xml version="1.0" standalone="no"?>
<!DOCTYPE svg PUBLIC "-//W3C//DTD SVG 1.1//EN" "http://www.w3.org/Graphics/SVG/1.1/DTD/svg11.dtd" >
<svg xmlns="http://www.w3.org/2000/svg" xmlns:xlink="http://www.w3.org/1999/xlink" version="1.1" width="2048" height="2048" viewBox="-10 0 2068 2048">
   <path fill="currentColor"
d="M1822 0h-1596q-91 0 -158.5 67.5t-67.5 158.5v1596q0 91 67.5 158.5t158.5 67.5h1596q91 0 158.5 -67.5t67.5 -158.5v-1596q0 -91 -67.5 -158.5t-158.5 -67.5zM1846 1125l-356 356q-57 57 -129 57h-674q-72 0 -129 -57l-356 -356q-39 -39 -39 -101t39 -101l356 -356
q57 -57 129 -57h674q72 0 129 57l356 356q39 39 39 101t-39 101zM870 1231q0 -68 46 -111t108 -43t108 43t46 108t-46 111t-108 46t-108 -46t-46 -108zM1385 1024q0 -62 43 -108t108 -46t110.5 46t45.5 108t-45.5 108t-110.5 46t-108 -46t-43 -108zM356 1024
q0 -62 45.5 -108t110.5 -46t108 46t43 108t-43 108t-108 46t-110.5 -46t-45.5 -108z" />
</svg>
