<?xml version="1.0" standalone="no"?>
<!DOCTYPE svg PUBLIC "-//W3C//DTD SVG 1.1//EN" "http://www.w3.org/Graphics/SVG/1.1/DTD/svg11.dtd" >
<svg xmlns="http://www.w3.org/2000/svg" xmlns:xlink="http://www.w3.org/1999/xlink" version="1.1" width="2048" height="2048" viewBox="-10 0 2068 2048">
   <path fill="currentColor"
d="M1819 0h-1590q-96 0 -162.5 66.5t-66.5 162.5v1590q0 96 66.5 162.5t162.5 66.5h1590q96 0 162.5 -66.5t66.5 -162.5v-1590q0 -96 -66.5 -162.5t-162.5 -66.5zM1467 443q-22 -6 -43 -16q-48 -16 -69 -16q-54 -11 -88.5 15.5t-50.5 106.5l-192 1035q-37 144 -112 208
q-64 43 -149 43q-59 0 -150 -27l-80 -27l59 -160l48 16q53 16 64 16q37 11 80 -10q21 -11 48 -80l181 -1046q16 -117 112 -218q96 -64 240 -43q48 5 118 32l53 21z" />
</svg>
