<?xml version="1.0" standalone="no"?>
<!DOCTYPE svg PUBLIC "-//W3C//DTD SVG 1.1//EN" "http://www.w3.org/Graphics/SVG/1.1/DTD/svg11.dtd" >
<svg xmlns="http://www.w3.org/2000/svg" xmlns:xlink="http://www.w3.org/1999/xlink" version="1.1" width="2048" height="2048" viewBox="-10 0 2058 2048">
   <path fill="currentColor"
d="M732 780q0 -119 86.5 -203t205.5 -84t205.5 84t86.5 205t-86.5 205.5t-205.5 84.5t-205.5 -84.5t-86.5 -207.5zM1024 1656l388 100v-301q-178 110 -388 110t-388 -110v301zM1024 196q-114 0 -223.5 43.5t-191.5 125.5t-125.5 191.5t-43.5 226t43.5 223.5t125.5 189
t189 127.5t226 45.5t226 -45.5t189 -127.5t125.5 -189t43.5 -223.5t-43.5 -226t-125.5 -191.5t-191.5 -125.5t-223.5 -43.5zM1804 780q-5 141 -55 273.5t-141 241.5v753l-584 -196l-584 196v-753q-96 -105 -146 -239.5t-50 -275.5q0 -155 59.5 -296.5t169 -253t253 -171
t298.5 -59.5t298.5 59.5t253 171t169 253t59.5 296.5z" />
</svg>
