<?xml version="1.0" standalone="no"?>
<!DOCTYPE svg PUBLIC "-//W3C//DTD SVG 1.1//EN" "http://www.w3.org/Graphics/SVG/1.1/DTD/svg11.dtd" >
<svg xmlns="http://www.w3.org/2000/svg" xmlns:xlink="http://www.w3.org/1999/xlink" version="1.1" width="2048" height="2048" viewBox="-10 0 2064 2048">
   <path fill="currentColor"
d="M220 334l154 159q175 -175 410 -236q117 -31 234 -31t234 31q234 61 404 236l160 -159q-213 -218 -503 -295.5t-585.5 0t-507.5 295.5zM544 664l160 159q138 -138 324 -138t325 138l159 -159q-133 -133 -311 -181t-351 0t-306 181zM1002 1366q-48 -128 -152 -215.5
t-237 -114.5t-260.5 24t-218 154.5t-119.5 234t18 257.5q80 197 269 290t380 19q112 -43 192 -125.5t117 -183.5h372v341h341v-341h340v-340h-1042zM512 1706q-69 0 -119.5 -50.5t-50.5 -119.5t50.5 -119.5t119.5 -50.5t119.5 50.5t50.5 119.5t-50.5 119.5t-119.5 50.5z" />
</svg>
