<?xml version="1.0" standalone="no"?>
<!DOCTYPE svg PUBLIC "-//W3C//DTD SVG 1.1//EN" "http://www.w3.org/Graphics/SVG/1.1/DTD/svg11.dtd" >
<svg xmlns="http://www.w3.org/2000/svg" xmlns:xlink="http://www.w3.org/1999/xlink" version="1.1" width="2048" height="2048" viewBox="-10 0 2068 2048">
   <path fill="currentColor"
d="M1720 0q-96 0 -163.5 67.5t-67.5 163.5v48q-39 0 -65.5 26.5t-26.5 65.5v376q0 39 26.5 65t65.5 26h467q40 0 66 -26t26 -65v-376q0 -39 -26 -65.5t-66 -26.5v-48q0 -96 -69.5 -163.5t-166.5 -67.5zM1720 92q62 0 101 41.5t39 97.5v48h-279v-48q0 -56 41.5 -97.5
t97.5 -41.5zM183 188q-74 0 -128.5 54.5t-54.5 128.5v1677l371 -371h1306q74 0 128.5 -54.5t54.5 -133.5v-463h-463q-78 0 -132.5 -54.5t-54.5 -133.5v-650h-1027zM371 559h651v188h-651v-188zM371 838h651v188h-651v-188zM371 1118h747v188h-747v-188z" />
</svg>
