<?xml version="1.0" standalone="no"?>
<!DOCTYPE svg PUBLIC "-//W3C//DTD SVG 1.1//EN" "http://www.w3.org/Graphics/SVG/1.1/DTD/svg11.dtd" >
<svg xmlns="http://www.w3.org/2000/svg" xmlns:xlink="http://www.w3.org/1999/xlink" version="1.1" width="2048" height="2048" viewBox="-10 0 2068 2048">
   <path fill="currentColor"
d="M1819 795v1024h-1590v-1590h1024v-229h-1024q-96 0 -162.5 66.5t-66.5 162.5v1590q0 96 66.5 162.5t162.5 66.5h1590q96 0 162.5 -66.5t66.5 -162.5v-1024h-229zM1595 795l106 -235l235 -107l-235 -106l-106 -235l-107 235l-235 106l235 107zM1168 880l-144 -309
l-144 309l-309 144l309 144l144 309l144 -309l309 -144z" />
</svg>
