<?xml version="1.0" standalone="no"?>
<!DOCTYPE svg PUBLIC "-//W3C//DTD SVG 1.1//EN" "http://www.w3.org/Graphics/SVG/1.1/DTD/svg11.dtd" >
<svg xmlns="http://www.w3.org/2000/svg" xmlns:xlink="http://www.w3.org/1999/xlink" version="1.1" width="2048" height="2048" viewBox="-10 0 2058 2048">
   <path fill="currentColor"
d="M1568 397q-18 -45 -76 -90q-32 -27 -43 -43t-25 -52q-27 -72 -67.5 -101.5t-117.5 -33.5q-41 0 -59 -4.5t-54 -31.5q-58 -41 -108 -41t-113 41q-31 27 -51.5 33.5t-61.5 6.5q-76 0 -114.5 29.5t-65.5 101.5q-14 36 -25 52t-43 43q-58 45 -74 92.5t7 114.5q13 41 13 61
t-13.5 58.5t-13.5 56.5q-4 32 5 63q18 50 76 95q32 23 43 38.5t25 56.5q27 72 67.5 101.5t117.5 29.5q41 0 59 4.5t54 31.5q58 45 108 45t113 -45q31 -23 51.5 -29.5t61.5 -6.5q76 -5 114.5 -32t65.5 -99q14 -41 25 -56.5t43 -38.5q58 -45 74 -92.5t-7 -119.5
q-13 -41 -13 -61t13.5 -56t13.5 -59q4 -31 -5 -63zM1018 961q-158 0 -270.5 -113t-112.5 -273t112.5 -273t270.5 -113t270.5 113t112.5 273t-112.5 273t-270.5 113zM1212 577q0 59 -34 106.5t-88 70t-110.5 11t-97 -52t-51.5 -99t11.5 -112.5t69.5 -86t106 -32
q81 0 137.5 56.5t56.5 137.5zM1180 1304l-58 347l-72 397l-249 -239l-320 140l131 -722q86 41 180 41q59 45 131 63q45 13 95 13q86 0 162 -40zM1586 1615l-248 -90l50 -284q45 -14 81 -41l14 -9z" />
</svg>
