<?xml version="1.0" standalone="no"?>
<!DOCTYPE svg PUBLIC "-//W3C//DTD SVG 1.1//EN" "http://www.w3.org/Graphics/SVG/1.1/DTD/svg11.dtd" >
<svg xmlns="http://www.w3.org/2000/svg" xmlns:xlink="http://www.w3.org/1999/xlink" version="1.1" width="2048" height="2048" viewBox="-10 0 2068 2048">
   <path fill="currentColor"
d="M515 132q-102 0 -180 74.5t-78 176.5v384q-101 0 -179 74.5t-78 182.5v641h174l83 251h126l90 -251h1108l84 251h126l83 -251h174v-641q0 -102 -75 -179.5t-182 -77.5v-384q0 -102 -78 -176.5t-180 -74.5h-1018zM515 383h383v384h-383v-384zM1150 383h383v384h-383v-384z
M257 1024h1534v383h-1534v-383z" />
</svg>
