<?xml version="1.0" standalone="no"?>
<!DOCTYPE svg PUBLIC "-//W3C//DTD SVG 1.1//EN" "http://www.w3.org/Graphics/SVG/1.1/DTD/svg11.dtd" >
<svg xmlns="http://www.w3.org/2000/svg" xmlns:xlink="http://www.w3.org/1999/xlink" version="1.1" width="2048" height="2048" viewBox="-10 0 2058 2048">
   <path fill="currentColor"
d="M1262 0l-54 120l-124 57l124 54l54 119l53 -119l124 -54l-124 -57zM866 177l-95 210l-214 95l214 99l95 210l95 -210l214 -99l-214 -95zM1604 453q-91 -8 -186 31t-169 118q-107 103 -138 232.5t15 228.5l-858 861l124 124l606 -606l606 606l123 -124l-606 -605l128 -128
q103 45 233 12t233 -136q82 -82 121.5 -183t27 -196t-78.5 -156q-74 -75 -181 -79zM285 482q-103 103 -103 249.5t103 249.5l371 366l247 -247z" />
</svg>
