<?xml version="1.0" standalone="no"?>
<!DOCTYPE svg PUBLIC "-//W3C//DTD SVG 1.1//EN" "http://www.w3.org/Graphics/SVG/1.1/DTD/svg11.dtd" >
<svg xmlns="http://www.w3.org/2000/svg" xmlns:xlink="http://www.w3.org/1999/xlink" version="1.1" width="2048" height="2048" viewBox="-10 0 2068 2048">
   <path fill="currentColor"
d="M1846 817v-307q0 -82 -60 -142t-147 -60h-1230q-87 0 -147 60t-60 142v307q-82 0 -142 60t-60 147v514h135l67 202h106l67 -202h1298l67 202h106l67 -202h135v-514q0 -87 -60 -147t-142 -60zM1125 510h514v307h-514v-307zM409 510h514v307h-514v-307zM1846 1332h-1644
v-308h1644v308z" />
</svg>
