<?xml version="1.0" standalone="no"?>
<!DOCTYPE svg PUBLIC "-//W3C//DTD SVG 1.1//EN" "http://www.w3.org/Graphics/SVG/1.1/DTD/svg11.dtd" >
<svg xmlns="http://www.w3.org/2000/svg" xmlns:xlink="http://www.w3.org/1999/xlink" version="1.1" width="2048" height="2048" viewBox="-10 0 2068 2048">
   <path fill="currentColor"
d="M1707 1110v-172q0 -35 -25 -60t-60 -25h-427v-426q0 -35 -25 -60.5t-60 -25.5h-171q-35 0 -60.5 25.5t-25.5 60.5v426h-426q-35 0 -60 25t-25 60v172q0 35 25 60t60 25h426v427q0 35 25.5 60t60.5 25h171q35 0 60 -25t25 -60v-427h427q35 0 60 -25t25 -60zM2048 384v1280
q0 105 -51.5 193t-139.5 139.5t-193 51.5h-1280q-105 0 -193 -51.5t-139.5 -139.5t-51.5 -193v-1280q0 -105 51.5 -193t139.5 -139.5t193 -51.5h1280q105 0 193 51.5t139.5 139.5t51.5 193z" />
</svg>
