<?xml version="1.0" standalone="no"?>
<!DOCTYPE svg PUBLIC "-//W3C//DTD SVG 1.1//EN" "http://www.w3.org/Graphics/SVG/1.1/DTD/svg11.dtd" >
<svg xmlns="http://www.w3.org/2000/svg" xmlns:xlink="http://www.w3.org/1999/xlink" version="1.1" width="2048" height="2048" viewBox="-10 0 2068 2048">
   <path fill="currentColor"
d="M1024 0q279 0 514.5 137t372.5 372.5t137 514.5t-137 514.5t-372.5 372.5t-514.5 137t-514.5 -137t-372.5 -372.5t-137 -514.5t137 -514.5t372.5 -372.5t514.5 -137zM1024 202q-221 0 -411 110.5t-300.5 300.5t-110.5 411t110.5 411t300.5 300.5t411 110.5t411 -110.5
t300.5 -300.5t110.5 -411t-110.5 -411t-300.5 -300.5t-411 -110.5zM817 510h-408v206h206v822h202v-1028zM1433 510h-202q-87 0 -147 60t-60 146v616q0 86 60 146t147 60h202q86 0 146 -60t60 -146v-616q0 -86 -60 -146t-146 -60zM1433 1332h-202v-616h202v616z" />
</svg>
