<?xml version="1.0" standalone="no"?>
<!DOCTYPE svg PUBLIC "-//W3C//DTD SVG 1.1//EN" "http://www.w3.org/Graphics/SVG/1.1/DTD/svg11.dtd" >
<svg xmlns="http://www.w3.org/2000/svg" xmlns:xlink="http://www.w3.org/1999/xlink" version="1.1" width="2048" height="2048" viewBox="-10 0 2068 2048">
   <path fill="currentColor"
d="M1769 654h-466v557h-1207v279h91q0 118 81 198.5t198.5 80.5t198 -80.5t80.5 -198.5h558q0 118 80.5 198.5t198 80.5t198.5 -80.5t81 -198.5h187v-466zM466 1630q-56 0 -97.5 -43.5t-41.5 -98t41.5 -96t98 -41.5t98 41.5t41.5 96t-41.5 98t-98.5 43.5zM1582 1630
q-57 0 -98.5 -43.5t-41.5 -98t41.5 -96t98 -41.5t98 41.5t41.5 96t-41.5 98t-97.5 43.5zM1490 1024v-231h231l188 231h-419zM1211 793q0 131 -98 227t-228 96h-558q-131 0 -229 -96t-98 -229t98 -229t229 -96h48v-91h-96v-96h375v96h-96v91h327q130 0 228 96t98 231z" />
</svg>
