<?xml version="1.0" standalone="no"?>
<!DOCTYPE svg PUBLIC "-//W3C//DTD SVG 1.1//EN" "http://www.w3.org/Graphics/SVG/1.1/DTD/svg11.dtd" >
<svg xmlns="http://www.w3.org/2000/svg" xmlns:xlink="http://www.w3.org/1999/xlink" version="1.1" width="2048" height="2048" viewBox="-10 0 2068 2048">
   <path fill="currentColor"
d="M1024 1595v-230h229v230h-229zM1253 1136v-224h-229v224h229zM1253 683v-230h-229v230h229zM795 912h229v-229h-229v229zM795 1365h229v-229h-229v229zM2048 229v1590q0 96 -66.5 162.5t-162.5 66.5h-1590q-96 0 -162.5 -66.5t-66.5 -162.5v-1590q0 -96 66.5 -162.5
t162.5 -66.5h1590q96 0 162.5 66.5t66.5 162.5zM1819 229h-795v224h-229v-224h-566v1590h1590v-1590z" />
</svg>
