<?xml version="1.0" standalone="no"?>
<!DOCTYPE svg PUBLIC "-//W3C//DTD SVG 1.1//EN" "http://www.w3.org/Graphics/SVG/1.1/DTD/svg11.dtd" >
<svg xmlns="http://www.w3.org/2000/svg" xmlns:xlink="http://www.w3.org/1999/xlink" version="1.1" width="2048" height="2048" viewBox="-10 0 2068 2048">
   <path fill="currentColor"
d="M847 426h257v-173h-257v-84q0 -40 -22 -64.5t-62 -24.5t-62 24.5t-22 64.5v1136q-41 20 -65 60t-24 89q0 68 50.5 118t122.5 50t122.5 -50t50.5 -118q0 -49 -24.5 -89t-64.5 -60v-197h257v-168h-257v-173h257v-173h-257v-168zM1875 1494q24 28 44 56q53 60 85 117
q44 80 44 128q0 72 -50 122.5t-120.5 50.5t-120.5 -50.5t-50 -122.5q0 -48 44 -128q32 -57 80 -117zM1956 1325q-20 28 -54.5 38t-66.5 -6l-181 -100l-309 538q-20 40 -62 62t-90 22h-771q-73 0 -123 -50t-50 -118v-257q0 -73 50 -123t123 -50v430h771l176 -310l-265 153
v-205l534 -309l281 165q33 16 41 50t-4 70zM293 1189l-148 144q-25 24 -59 24t-60 -26t-26 -60t28 -58l145 -145q24 -28 58 -28t60 26t26 60.5t-24 62.5z" />
</svg>
