<?xml version="1.0" standalone="no"?>
<!DOCTYPE svg PUBLIC "-//W3C//DTD SVG 1.1//EN" "http://www.w3.org/Graphics/SVG/1.1/DTD/svg11.dtd" >
<svg xmlns="http://www.w3.org/2000/svg" xmlns:xlink="http://www.w3.org/1999/xlink" version="1.1" width="2048" height="2048" viewBox="-10 0 2058 2048">
   <path fill="currentColor"
d="M1026 2048q-65 0 -130 -17q-157 -31 -277 -140t-170 -261t-15 -315.5t152 -289.5q27 -26 27 -61t-27 -57q-95 -117 -117 -265t30.5 -287.5t172 -233t265.5 -115t285 30.5t235 170q122 152 122 348t-122 352q-22 27 -19.5 64t28.5 58q109 122 146 279t-9 311.5t-168 263.5
q-82 78 -189 121.5t-220 43.5zM1026 189q-130 0 -231 83q-69 52 -104 128.5t-35 158.5q0 131 78 235q70 79 65.5 183.5t-80.5 182.5t-100 187t8.5 215.5t115.5 185t192 102.5t215.5 -8.5t180.5 -115.5q113 -118 113 -283t-113 -287q-74 -74 -78.5 -181t65.5 -189
q96 -122 78.5 -274.5t-139.5 -248.5q-70 -56 -148 -74h-83zM1026 468q0 39 28.5 65t65.5 26t65 -26t28 -65t-28 -65.5t-65 -26.5t-65.5 26.5t-28.5 65.5zM1213 1674q35 0 63.5 -26.5t28.5 -65.5t-28.5 -65t-65.5 -26t-65 26t-28 65t28 65.5t67 26.5zM1118 1395q39 0 67 -26
t28 -65.5t-28 -65.5t-65 -26t-65.5 26t-28.5 65.5t28.5 65.5t63.5 26zM935 1582q35 0 63 -28t28 -65t-28 -65.5t-65 -28.5t-65.5 28.5t-28.5 65.5t28.5 65t67.5 28z" />
</svg>
