<?xml version="1.0" standalone="no"?>
<!DOCTYPE svg PUBLIC "-//W3C//DTD SVG 1.1//EN" "http://www.w3.org/Graphics/SVG/1.1/DTD/svg11.dtd" >
<svg xmlns="http://www.w3.org/2000/svg" xmlns:xlink="http://www.w3.org/1999/xlink" version="1.1" width="2048" height="2048" viewBox="-10 0 2068 2048">
   <path fill="currentColor"
d="M1440 818q78 -100 100.5 -223.5t-20.5 -242.5t-137 -203.5t-217 -111.5q-51 -10 -105 -10q-133 0 -245 64t-176 179l846 845q-14 -18 -32 -41q-51 -50 -55.5 -123t41.5 -133zM1157 512q-42 0 -69 -27.5t-27 -68.5t27 -68.5t68.5 -27.5t71 27.5t29.5 68.5t-29.5 68.5
t-70.5 27.5zM571 453l-448 -453l-123 123l649 654l5 5q18 27 27 36q46 55 41.5 128t-50.5 124q-101 105 -135 246.5t9.5 281t151 238t248.5 130.5q55 9 115 9q155 4 287.5 -80.5t201.5 -225.5l375 379l123 -123zM965 1586q-42 0 -71.5 -27.5t-29.5 -68.5t29.5 -70.5
t71 -29.5t69 29.5t27.5 70.5t-27.5 68.5t-68.5 27.5zM1257 1682q-41 0 -70.5 -27.5t-29.5 -68.5t29.5 -68.5t70.5 -27.5t68.5 27.5t27.5 68.5t-27.5 68.5t-68.5 27.5zM1157 1390q-42 0 -69 -27.5t-27 -71t32 -70.5l141 137q-32 32 -77 32z" />
</svg>
