<?xml version="1.0" standalone="no"?>
<!DOCTYPE svg PUBLIC "-//W3C//DTD SVG 1.1//EN" "http://www.w3.org/Graphics/SVG/1.1/DTD/svg11.dtd" >
<svg xmlns="http://www.w3.org/2000/svg" xmlns:xlink="http://www.w3.org/1999/xlink" version="1.1" width="2048" height="2048" viewBox="-10 0 2058 2048">
   <path fill="currentColor"
d="M2001 1905l-118 118l-297 -292q-43 87 -117 152q-109 105 -251 144t-290 5q-157 -31 -277 -140t-170 -261.5t-15 -316t153 -289.5q26 -27 26 -61.5t-26 -56.5q-92 -114 -114 -262l-458 -458l118 -117zM1364 1726q57 -61 83 -135l-227 -226q-26 30 -65 30t-67.5 -26
t-28.5 -67.5t35 -67.5l-262 -262q-4 109 -80.5 187.5t-100.5 187.5t9 216t115.5 185.5t191.5 102.5t216 -9t181 -116zM1246 1491q-56 0 -80 46t0 91.5t80.5 45.5t78.5 -45.5t0 -91.5t-79 -46zM584 253l144 144q34 -74 100 -127q100 -83 231 -83h83q78 18 148 75
q122 95 139.5 248t-78.5 275q-61 74 -65 170l361 362q-34 -162 -148 -288q-26 -22 -28 -59t19 -63l31 -48q39 -61 61 -127q35 -91 35 -174q0 -100 -61 -227q-74 -139 -188 -226q-139 -105 -309 -105q-127 0 -231 39q-83 31 -144 87q-48 40 -79 88zM1059 1491q0 -57 -46 -81
t-94 0t-48 81t48 78.5t94 0t46 -78.5zM1150 375q-56 0 -78 45.5t0 91.5t78.5 46t80.5 -46t0 -91.5t-81 -45.5z" />
</svg>
