<?xml version="1.0" standalone="no"?>
<!DOCTYPE svg PUBLIC "-//W3C//DTD SVG 1.1//EN" "http://www.w3.org/Graphics/SVG/1.1/DTD/svg11.dtd" >
<svg xmlns="http://www.w3.org/2000/svg" xmlns:xlink="http://www.w3.org/1999/xlink" version="1.1" width="2048" height="2048" viewBox="-10 0 2068 2048">
   <path fill="currentColor"
d="M1755 96h-1563q-78 0 -135 57t-57 140v1170q0 82 57 139t135 57h887q-9 -50 -9 -100q0 -156 80 -290.5t214.5 -214.5t292.5 -80t290 82v-763q0 -83 -57 -140t-135 -57zM1755 782h-1563v-293h1563v293zM1755 1170v293h293v196h-293v293h-196v-293h-293v-196h293v-293h196z
" />
</svg>
