<?xml version="1.0" standalone="no"?>
<!DOCTYPE svg PUBLIC "-//W3C//DTD SVG 1.1//EN" "http://www.w3.org/Graphics/SVG/1.1/DTD/svg11.dtd" >
<svg xmlns="http://www.w3.org/2000/svg" xmlns:xlink="http://www.w3.org/1999/xlink" version="1.1" width="2048" height="2048" viewBox="-10 0 2068 2048">
   <path fill="currentColor"
d="M1827 613l-231 -231q10 -67 29 -120q14 -29 14 -58q0 -67 -45.5 -110.5t-107.5 -43.5q-125 0 -231 55.5t-178 146.5h-515q-153 0 -283 77t-204.5 207t-74.5 284q0 192 125 706q67 255 130 472h562v-207h207v207h562l174 -573l288 -96v-716h-221zM1433 974
q-39 0 -70 -31.5t-31 -72.5t31 -72t72 -31t72 31t31 72t-31 72.5t-74 31.5z" />
</svg>
