<?xml version="1.0" standalone="no"?>
<!DOCTYPE svg PUBLIC "-//W3C//DTD SVG 1.1//EN" "http://www.w3.org/Graphics/SVG/1.1/DTD/svg11.dtd" >
<svg xmlns="http://www.w3.org/2000/svg" xmlns:xlink="http://www.w3.org/1999/xlink" version="1.1" width="2048" height="2048" viewBox="-10 0 2068 2048">
   <path fill="currentColor"
d="M1846 308v1432h-1644v-1432h1644zM1846 101h-1644q-82 0 -142 60t-60 147v1432q0 87 60 147t142 60h1644q82 0 142 -60t60 -147v-1432q0 -87 -60 -147t-142 -60zM1639 1332h-1230v206h1230v-206zM817 510h-408v615h408v-615zM1024 716h615v-206h-615v206zM1639 923h-615
v202h615v-202z" />
</svg>
