<?xml version="1.0" standalone="no"?>
<!DOCTYPE svg PUBLIC "-//W3C//DTD SVG 1.1//EN" "http://www.w3.org/Graphics/SVG/1.1/DTD/svg11.dtd" >
<svg xmlns="http://www.w3.org/2000/svg" xmlns:xlink="http://www.w3.org/1999/xlink" version="1.1" width="2048" height="2048" viewBox="-10 0 2058 2048">
   <path fill="currentColor"
d="M1216 1887.5q0 23.5 -20 43.5l-96 98q-19 19 -44 19q-27 0 -45 -19l-898 -899q-20 -20 -20 -44q0 -25 20 -46l898 -897q20 -20 45 -20q24 0 44 20l96 96q20 20 20 44q0 25 -20 46l-757 757l757 757q20 21 20 44.5zM1955 1887.5q0 25.5 -18 43.5l-96 98q-19 19 -44 19
q-27 0 -46 -19l-897 -899q-21 -20 -21 -44q0 -25 21 -46l897 -897q20 -20 46 -20q23 0 44 20l96 96q18 19 18 44q0 27 -18 46l-758 757l758 757q18 19 18 44.5z" />
</svg>
