<?xml version="1.0" standalone="no"?>
<!DOCTYPE svg PUBLIC "-//W3C//DTD SVG 1.1//EN" "http://www.w3.org/Graphics/SVG/1.1/DTD/svg11.dtd" >
<svg xmlns="http://www.w3.org/2000/svg" xmlns:xlink="http://www.w3.org/1999/xlink" version="1.1" width="2048" height="2048" viewBox="-10 0 2058 2048">
   <path fill="currentColor"
d="M1389 1125q-105 0 -182 67l-135 -77q14 -43 14 -91t-9 -96l125 -77q77 72 187.5 72t192 -81.5t81.5 -194.5t-81.5 -195t-194.5 -82t-194.5 82t-81.5 197q0 24 4 53l-129 77q-68 -72 -169 -96v-145q87 -28 140 -100.5t53 -163.5q0 -115 -79.5 -194.5t-195 -79.5
t-194.5 79.5t-79 194.5q0 91 50 163.5t137 100.5v145q-115 29 -189.5 122.5t-74.5 216t74.5 216.5t189.5 123v149q-87 28 -137 100.5t-50 163.5q0 115 79 194.5t194.5 79.5t195 -79.5t79.5 -194.5q0 -91 -53 -163.5t-140 -100.5v-149q101 -25 169 -97l129 77q-4 29 -4 58
q0 115 81.5 197t194.5 82t194.5 -82t81.5 -197t-81.5 -194.5t-192.5 -79.5zM1389 510q53 0 94 40.5t41 96t-41 96.5t-96 41t-96 -41t-41 -96.5t41 -96t98 -40.5zM596 274q0 -58 41 -98.5t98.5 -40.5t96 40.5t38.5 98.5t-38.5 98.5t-96 40.5t-98.5 -40.5t-41 -98.5zM870 1774
q0 58 -38.5 96.5t-96 38.5t-98.5 -38.5t-41 -96.5t41 -98.5t98.5 -40.5t96 40.5t38.5 98.5zM736 1216q-82 0 -140 -57.5t-58 -139.5t58 -139.5t139.5 -57.5t139.5 57.5t58 139.5t-58 139.5t-139 57.5zM1389 1538q-57 0 -98 -40.5t-41 -98.5t41 -96.5t96 -38.5t96 38.5
t41 96.5t-41 98.5t-94 40.5z" />
</svg>
