<?xml version="1.0" standalone="no"?>
<!DOCTYPE svg PUBLIC "-//W3C//DTD SVG 1.1//EN" "http://www.w3.org/Graphics/SVG/1.1/DTD/svg11.dtd" >
<svg xmlns="http://www.w3.org/2000/svg" xmlns:xlink="http://www.w3.org/1999/xlink" version="1.1" width="2048" height="2048" viewBox="-10 0 2058 2048">
   <path fill="currentColor"
d="M932 2048q-78 0 -132.5 -54.5t-54.5 -132.5v-188h558v188q0 78 -54.5 132.5t-132.5 54.5h-184zM1024 187q52 0 74 5q48 91 79 222q34 152 34 331q0 122 -48 397q-21 139 -47 252h-184l-47 -252q-48 -275 -48 -397q0 -179 34 -331q31 -131 79 -222q22 -5 74 -5zM1024 0
q-96 0 -192 26q-83 109 -130.5 301t-47.5 418q0 148 21 314q22 135 70 335q0 79 54.5 133.5t132.5 54.5h184q78 0 132.5 -54.5t54.5 -133.5q48 -200 70 -335q21 -166 21 -314q0 -226 -47.5 -418t-130.5 -301q-96 -26 -192 -26zM279 654q0 148 54.5 326.5t150.5 318.5
q100 152 218 209q-70 -127 -109 -392q-57 -105 -92 -229t-35 -233q0 -96 33 -168t102 -133q40 -157 101 -279q-205 100 -305 222q-118 148 -118 358zM1346 74q61 122 101 279q69 61 102 133t33 168q0 109 -35 233t-92 229q-39 265 -109 392q118 -57 218 -209
q96 -140 150.5 -318.5t54.5 -326.5q0 -210 -118 -358q-100 -122 -305 -222z" />
</svg>
