<?xml version="1.0" standalone="no"?>
<!DOCTYPE svg PUBLIC "-//W3C//DTD SVG 1.1//EN" "http://www.w3.org/Graphics/SVG/1.1/DTD/svg11.dtd" >
<svg xmlns="http://www.w3.org/2000/svg" xmlns:xlink="http://www.w3.org/1999/xlink" version="1.1" width="2048" height="2048" viewBox="-11 0 2070 2048">
   <path fill="currentColor"
d="M2044 1402l-234 -926q-9 -36 -38 -56t-65 -16q-117 14 -310 23q-234 13 -373 13t-373 -13q-193 -9 -310 -23q-36 -4 -65 16t-38 56l-234 926q-14 58 20 112t92 63q454 68 908 68t908 -68q58 -9 92 -63t20 -112zM1024 1447q-413 4 -822 -45l197 -800q117 13 301 22
q198 9 324 9t324 -9q184 -9 301 -22l197 800q-409 49 -822 45z" />
</svg>
