<?xml version="1.0" standalone="no"?>
<!DOCTYPE svg PUBLIC "-//W3C//DTD SVG 1.1//EN" "http://www.w3.org/Graphics/SVG/1.1/DTD/svg11.dtd" >
<svg xmlns="http://www.w3.org/2000/svg" xmlns:xlink="http://www.w3.org/1999/xlink" version="1.1" width="2048" height="2048" viewBox="-11 0 2069 2048">
   <path fill="currentColor"
d="M2048 510v923q0 57 -26.5 103t-74.5 74v159q0 29 -21.5 53t-55.5 24h-53q-29 0 -53 -24t-24 -53v-130h-716v130q0 29 -21.5 53t-55.5 24h-53q-28 0 -52.5 -24t-24.5 -53v-159q-43 -28 -71.5 -74t-28.5 -103v-923q0 -145 91 -217q82 -57 245 -77q96 -14 329 -14t334 14
q164 20 241 77q91 72 91 217zM1125 1332q0 -44 -29 -72.5t-72 -28.5t-72 28.5t-29 72t29 72.5t72 29t72 -29t29 -72zM1846 1332q0 -44 -31 -72.5t-72 -28.5t-72.5 28.5t-31.5 72t31.5 72.5t72.5 29t72 -29t31 -72zM1846 510h-923v413h923v-413zM510 769q0 -110 -77 -182.5
t-183 -70t-180.5 79.5t-69.5 183q0 91 58 158.5t144 86.5v822h106v-822q86 -19 144 -91t58 -164z" />
</svg>
