<?xml version="1.0" standalone="no"?>
<!DOCTYPE svg PUBLIC "-//W3C//DTD SVG 1.1//EN" "http://www.w3.org/Graphics/SVG/1.1/DTD/svg11.dtd" >
<svg xmlns="http://www.w3.org/2000/svg" xmlns:xlink="http://www.w3.org/1999/xlink" version="1.1" width="2048" height="2048" viewBox="-10 0 2058 2048">
   <path fill="currentColor"
d="M1215 1086q0 25 -19 44l-899 899q-19 19 -44 19q-27 0 -46 -19l-96 -98q-18 -18 -18 -43.5t18 -44.5l758 -757l-758 -757q-18 -19 -18 -46q0 -25 18 -44l96 -96q21 -20 46 -20q24 0 44 20l899 897q19 19 19 46zM1955 1086q0 24 -20 44l-898 899q-18 19 -43 19
q-27 0 -46 -19l-96 -98q-19 -18 -19 -43.5t19 -44.5l757 -757l-757 -757q-19 -19 -19 -46q0 -25 19 -44l96 -96q20 -20 46 -20q23 0 43 20l898 897q20 21 20 46z" />
</svg>
