<?xml version="1.0" standalone="no"?>
<!DOCTYPE svg PUBLIC "-//W3C//DTD SVG 1.1//EN" "http://www.w3.org/Graphics/SVG/1.1/DTD/svg11.dtd" >
<svg xmlns="http://www.w3.org/2000/svg" xmlns:xlink="http://www.w3.org/1999/xlink" version="1.1" width="2048" height="2048" viewBox="-10 0 2068 2048">
   <path fill="currentColor"
d="M1024 256q-208 0 -386 102t-280 280t-102 386t102 386t280 280t386 102t386 -102t280 -280t102 -386t-102 -386t-280 -280t-386 -102zM1024 1620q-164 0 -300 -80t-216 -216t-80 -300t80 -300t216 -216t300 -80t300 80t216 216t80 300t-80 300t-216 216t-300 80z
M1748 1748q144 -140 222 -328t78 -396t-78 -396t-222 -328l-92 92q124 124 194 288t70 344t-70 344t-194 288zM392 1656q-124 -124 -194 -288t-70 -344t70 -344t194 -288l-92 -92q-144 140 -222 328t-78 396t78 396t222 328zM1304 896q44 0 74 38t30 90t-30 90t-70 38
t-72 -32l-96 -96l100 -96q28 -32 64 -32zM744 896q36 0 68 32v4l4 4l92 88l-100 100q-28 28 -68 28t-70 -38t-30 -90t30 -90t74 -38zM1304 768q-96 0 -160 72l-120 120l-120 -116q-64 -76 -160 -76t-164 76t-68 180t68 180t162 76t162 -72l120 -120l120 116q68 76 162 76
t162 -76t68 -182t-68 -180t-164 -74z" />
</svg>
