<?xml version="1.0" standalone="no"?>
<!DOCTYPE svg PUBLIC "-//W3C//DTD SVG 1.1//EN" "http://www.w3.org/Graphics/SVG/1.1/DTD/svg11.dtd" >
<svg xmlns="http://www.w3.org/2000/svg" xmlns:xlink="http://www.w3.org/1999/xlink" version="1.1" width="2048" height="2048" viewBox="-10 0 2068 2048">
   <path fill="currentColor"
d="M0 923v202q250 0 461.5 125t336.5 336.5t125 461.5h202q0 -308 -151.5 -565t-408.5 -408.5t-565 -151.5zM1846 0h-1029q-81 0 -141.5 60t-60.5 142v668q125 63 274 197q73 -115 190.5 -182.5t254.5 -67.5t255 70t187.5 187.5t69.5 257t-69.5 257.5t-187.5 187.5
t-257 69.5h-20v24q20 116 20 178h514q82 0 142 -60t60 -142v-1644q0 -82 -60 -142t-142 -60zM1332 615q-87 0 -147 -60t-60 -146.5t60 -146.5t146.5 -60t146.5 60t60 146.5t-60 146.5t-146 60zM1332 1639q-53 0 -72 -9q-73 -221 -217 -409q34 -91 113.5 -149t175.5 -58
q129 0 218 89t89 219t-89 223.5t-218 93.5zM0 1332v206q139 0 257 67.5t185.5 185.5t67.5 257h206q0 -197 -96 -360.5t-259.5 -259.5t-360.5 -96zM0 1740v308h308q0 -130 -89 -219t-219 -89z" />
</svg>
