<?xml version="1.0" standalone="no"?>
<!DOCTYPE svg PUBLIC "-//W3C//DTD SVG 1.1//EN" "http://www.w3.org/Graphics/SVG/1.1/DTD/svg11.dtd" >
<svg xmlns="http://www.w3.org/2000/svg" xmlns:xlink="http://www.w3.org/1999/xlink" version="1.1" width="2048" height="2048" viewBox="-10 0 2068 2048">
   <path fill="currentColor"
d="M2048 1125v207h-375q67 -149 67 -308q0 -192 -96 -358t-262 -262t-358 -96h-1024v-207h1024q250 0 461.5 125t336.5 336.5t125 461.5q0 34 -5 101h106zM1024 1740q-192 0 -358 -96t-262 -262t-96 -358q0 -163 67 -308h-375v207h106q-5 67 -5 101q0 250 125 461.5
t336.5 336.5t461.5 125h1024v-207h-1024zM1524 1043q-67 53 -159 39q-62 -10 -134 -53v-5q178 -111 178 -274q0 -87 -39 -149l-24 -39q-34 -43 -50.5 -43t-4.5 82t-46 154q-43 53 -115 96l-5 -5q0 -115 -48 -192q-39 -63 -101 -101q-43 -24 -101 -39l-43 -4l-48 4
q-53 5 -62.5 22t71.5 46q130 53 135 264h-5q-101 -53 -192 -53q-72 0 -140 39q-43 24 -81 67l-24 34l-24 48q-20 43 -12.5 60t74.5 -36t159 -39q62 10 134 53v5q-96 58 -139 139q-39 63 -39 140q0 48 20 101l19 43l24 43q34 39 50.5 39t7.5 -82q-24 -139 158 -250l5 5
q5 211 149 293q72 43 144 43l48 -4q53 -5 62.5 -22t-71.5 -46q-130 -53 -135 -264h5q101 53 192 53q72 0 140 -39q43 -24 81 -67l24 -34l24 -43q20 -48 12.5 -65t-74.5 36z" />
</svg>
