<?xml version="1.0" standalone="no"?>
<!DOCTYPE svg PUBLIC "-//W3C//DTD SVG 1.1//EN" "http://www.w3.org/Graphics/SVG/1.1/DTD/svg11.dtd" >
<svg xmlns="http://www.w3.org/2000/svg" xmlns:xlink="http://www.w3.org/1999/xlink" version="1.1" width="2048" height="2048" viewBox="-10 0 2068 2048">
   <path fill="currentColor"
d="M1673 558v-183h188v-188h-745v188h187v183h-1303v1303h2048v-1303h-375zM1861 1251q-22 -22 -41.5 -31t-54.5 -9t-54.5 9t-50.5 39l-13 18q-118 117 -250.5 117t-250.5 -117l-17 -18q-31 -30 -48.5 -39t-56.5 -9q-26 0 -48 6.5t-65 50.5l-9 9q-118 117 -250.5 117
t-250.5 -117l-13 -18q-31 -30 -50.5 -39t-54.5 -9t-54.5 9t-41.5 31v-506h1674v506z" />
</svg>
