<?xml version="1.0" standalone="no"?>
<!DOCTYPE svg PUBLIC "-//W3C//DTD SVG 1.1//EN" "http://www.w3.org/Graphics/SVG/1.1/DTD/svg11.dtd" >
<svg xmlns="http://www.w3.org/2000/svg" xmlns:xlink="http://www.w3.org/1999/xlink" version="1.1" width="2048" height="2048" viewBox="-10 0 2068 2048">
   <path fill="currentColor"
d="M1024 327q-340 0 -619 191.5t-405 505.5q126 314 405 505.5t619 191.5h100q-8 -48 -8 -96t8 -100h-100q-261 4 -483.5 -131t-335.5 -370q113 -235 335.5 -374.5t483.5 -139.5t483.5 139.5t335.5 374.5l-39 65q96 18 179 74q39 -65 65 -139q-126 -314 -405 -505.5
t-619 -191.5zM1024 745q-118 0 -198.5 80.5t-80.5 198.5t80.5 198.5t198.5 80.5t198.5 -80.5t82.5 -198.5t-80.5 -200.5t-200.5 -78.5zM1303 1534v187h745v-187h-745z" />
</svg>
