<?xml version="1.0" standalone="no"?>
<!DOCTYPE svg PUBLIC "-//W3C//DTD SVG 1.1//EN" "http://www.w3.org/Graphics/SVG/1.1/DTD/svg11.dtd" >
<svg xmlns="http://www.w3.org/2000/svg" xmlns:xlink="http://www.w3.org/1999/xlink" version="1.1" width="2048" height="2048" viewBox="-10 0 2058 2048">
   <path fill="currentColor"
d="M1024 2048q-130 0 -238 -108t-180 -305q-10 -20 -2.5 -34.5t24 -19t31 2.5t19.5 22q62 173 153.5 269t192.5 96q72 0 142 -50.5t127 -146.5q10 -14 24.5 -19t29 4.5t19 26.5t-4.5 26q-68 116 -154.5 176t-182.5 60zM1423 1611h-10q-33 -15 -24 -53q68 -212 68 -481
q0 -298 -86.5 -536t-226.5 -325q-43 68 -120 68q-58 0 -101 -41t-43 -101t43 -101t101 -41t101 41t43 98q164 87 267 346.5t103 591.5q0 274 -77 505q-4 29 -38 29zM1024 77q-24 0 -43 19t-19 45.5t19 43.5t45.5 17t45.5 -17t19 -43.5t-19 -45.5t-48 -19zM212 1697
q-58 0 -101.5 -43t-43.5 -101q0 -77 68 -120q-10 -188 165.5 -409t468.5 -389q250 -140 491 -193q14 -5 28.5 5t19 26.5t-5 31t-23.5 14.5q-236 53 -471 188q-265 149 -430.5 346t-165.5 356q62 0 103 43t41 101t-43.5 101t-100.5 43zM212 1490q-25 0 -44 17t-19 43.5
t19 45.5t45.5 19t43.5 -19t17 -45.5t-17 -43.5t-45 -17zM1692 1173q-14 0 -26 -9.5t-12 -26.5t9 -31q121 -140 159.5 -265t-14.5 -211q-72 -130 -308 -135q-19 0 -29 -12t-10 -26.5t12.5 -26.5t26.5 -12q135 0 233.5 46t141.5 123q67 110 26.5 259t-180.5 313q-10 14 -29 14
zM1486 1731q-159 0 -346.5 -55.5t-370.5 -161.5q-240 -139 -413 -322q-10 -14 -10 -31t12 -26.5t29 -9.5t26 14q164 173 395 303q254 149 504 195t395 -26q-15 -34 -15 -58q0 -58 43.5 -101t101 -43t101 43t43.5 101t-43.5 101t-101.5 43q-43 0 -76 -24q-106 58 -274 58z
M1793 1601q24 14 48 14t41 -19t17 -45.5t-17 -43.5t-45.5 -17t-45.5 17t-17 41t14 43q5 5 5 10zM250 1024q-19 0 -34 -19q-67 -120 -79 -228.5t36 -189.5q63 -111 214 -152t363 -2q14 4 24 18.5t7.5 29t-17 24t-28.5 5.5q-183 -29 -315.5 -0.5t-180.5 115.5
q-33 67 -23.5 153.5t67.5 183.5q9 14 4.5 31t-16.5 24t-22 7zM1043 1168q-38 5 -69.5 -14t-41 -57.5t12 -72.5t60 -41t72.5 14.5t41 60t-14.5 70t-60.5 40.5z" />
</svg>
