<?xml version="1.0" standalone="no"?>
<!DOCTYPE svg PUBLIC "-//W3C//DTD SVG 1.1//EN" "http://www.w3.org/Graphics/SVG/1.1/DTD/svg11.dtd" >
<svg xmlns="http://www.w3.org/2000/svg" xmlns:xlink="http://www.w3.org/1999/xlink" version="1.1" width="2048" height="2048" viewBox="-10 0 2058 2048">
   <path fill="currentColor"
d="M1231 0h-822q-87 0 -147 60t-60 142v1644q0 82 60 142t147 60h1230q87 0 147 -60t60 -142v-1231zM1639 1846h-1230v-1644h716v514h514v1130zM1125 1125q0 86 -60 146.5t-144 60.5t-144.5 -60.5t-60.5 -144.5t60.5 -144t144.5 -60t144 60t60 142zM1332 1639v101h-822v-101
q0 -91 153 -153q130 -53 257.5 -53t257.5 53q154 62 154 153z" />
</svg>
