<?xml version="1.0" standalone="no"?>
<!DOCTYPE svg PUBLIC "-//W3C//DTD SVG 1.1//EN" "http://www.w3.org/Graphics/SVG/1.1/DTD/svg11.dtd" >
<svg xmlns="http://www.w3.org/2000/svg" xmlns:xlink="http://www.w3.org/1999/xlink" version="1.1" width="2048" height="2048" viewBox="-10 0 2058 2048">
   <path fill="currentColor"
d="M1986 1764.5q0 23.5 -20 43.5l-96 96q-20 20 -44 20q-25 0 -45 -20l-758 -757l-757 757q-21 20 -44.5 20t-43.5 -20l-98 -96q-18 -19 -18 -44t18 -44l899 -899q19 -18 44 -18q27 0 46 18l897 899q20 21 20 44.5zM1986 1023.5q0 23.5 -20 43.5l-96 98q-19 19 -44 19
q-27 0 -45 -19l-758 -759l-757 759q-19 19 -44 19t-44 -19l-98 -98q-18 -18 -18 -43.5t18 -43.5l899 -899q19 -19 44 -19q27 0 46 19l897 899q20 20 20 43.5z" />
</svg>
