<?xml version="1.0" standalone="no"?>
<!DOCTYPE svg PUBLIC "-//W3C//DTD SVG 1.1//EN" "http://www.w3.org/Graphics/SVG/1.1/DTD/svg11.dtd" >
<svg xmlns="http://www.w3.org/2000/svg" xmlns:xlink="http://www.w3.org/1999/xlink" version="1.1" width="2048" height="2048" viewBox="-10 0 2058 2048">
   <path fill="currentColor"
d="M1231 0h-822q-87 0 -147 60t-60 142v1644q0 82 60 142t147 60h1230q87 0 147 -60t60 -142v-1231zM1639 1846h-1230v-1644h716v514h514v1130zM1538 1529q0 86 -62.5 148.5t-153.5 62.5h-553q-106 0 -182.5 -74.5t-76.5 -175.5t67 -175.5t163 -83.5q39 -82 116 -127.5
t168 -45.5q115 0 204 74.5t108 179.5q87 10 144.5 72.5t57.5 144.5z" />
</svg>
