<?xml version="1.0" standalone="no"?>
<!DOCTYPE svg PUBLIC "-//W3C//DTD SVG 1.1//EN" "http://www.w3.org/Graphics/SVG/1.1/DTD/svg11.dtd" >
<svg xmlns="http://www.w3.org/2000/svg" xmlns:xlink="http://www.w3.org/1999/xlink" version="1.1" width="2048" height="2048" viewBox="-10 0 2058 2048">
   <path fill="currentColor"
d="M1231 0h-822q-87 0 -147 60t-60 142v1644q0 82 60 142t147 60h1230q87 0 147 -60t60 -142v-1231zM1639 1846h-1230v-1644h716v514h514v1130zM1332 1125q0 67 -39 120q-24 34 -81.5 84.5t-76.5 79.5q-34 48 -34 105h-154q0 -96 43 -158q29 -39 92 -87q48 -38 67 -62
q29 -34 29 -82q0 -63 -46 -108.5t-108 -45.5t-108 45.5t-46 108.5h-154q0 -125 89 -216.5t219 -91.5t219 91.5t89 216.5zM1101 1586v154h-154v-154h154z" />
</svg>
