<?xml version="1.0" standalone="no"?>
<!DOCTYPE svg PUBLIC "-//W3C//DTD SVG 1.1//EN" "http://www.w3.org/Graphics/SVG/1.1/DTD/svg11.dtd" >
<svg xmlns="http://www.w3.org/2000/svg" xmlns:xlink="http://www.w3.org/1999/xlink" version="1.1" width="2048" height="2048" viewBox="-10 0 2058 2048">
   <path fill="currentColor"
d="M1513 1070q-105 0 -189.5 73t-84.5 174v146q-41 0 -77.5 36.5t-36.5 77.5v343q0 50 34 89t80 39h539q51 0 87.5 -36.5t36.5 -82.5v-343q0 -50 -34.5 -86.5t-80.5 -36.5v-146q0 -101 -84.5 -174t-189.5 -73zM1513 1189q60 0 103 34t43 94v146h-292v-146q0 -60 43.5 -94
t102.5 -34zM343 0q-82 0 -139.5 57t-57.5 135v1563q0 78 57.5 135t139.5 57h585v-192h-585v-1563h681v489h489v197q78 0 197 36v-329l-585 -585h-782z" />
</svg>
