<?xml version="1.0" standalone="no"?>
<!DOCTYPE svg PUBLIC "-//W3C//DTD SVG 1.1//EN" "http://www.w3.org/Graphics/SVG/1.1/DTD/svg11.dtd" >
<svg xmlns="http://www.w3.org/2000/svg" xmlns:xlink="http://www.w3.org/1999/xlink" version="1.1" width="2048" height="2048" viewBox="-10 0 2058 2048">
   <path fill="currentColor"
d="M1231 0h-822q-87 0 -147 60t-60 142v1644q0 82 60 142t147 60h1230q87 0 147 -60t60 -142v-1231zM1639 1846h-1230v-1644h716v514h514v1130zM1351 899q-39 -38 -94 -60t-151 -22h-390v923h164v-336h226q96 0 146.5 -17t98.5 -55q82 -68 82 -217q0 -72 -17 -120t-65 -96z
M1221 1231q-29 24 -55.5 36t-69.5 12h-216v-327h206q82 0 135 53q39 38 39 110t-39 116z" />
</svg>
