<?xml version="1.0" standalone="no"?>
<!DOCTYPE svg PUBLIC "-//W3C//DTD SVG 1.1//EN" "http://www.w3.org/Graphics/SVG/1.1/DTD/svg11.dtd" >
<svg xmlns="http://www.w3.org/2000/svg" xmlns:xlink="http://www.w3.org/1999/xlink" version="1.1" width="2048" height="2048" viewBox="-10 0 2058 2048">
   <path fill="currentColor"
d="M1080 1992h-781q-84 0 -142.5 -58.5t-58.5 -137.5v-1600q0 -79 58.5 -137.5t142.5 -58.5h800l598 599v504q-60 -9 -100 -9t-101 9v-406h-500v-501h-697v1600h706q19 102 75 196zM1950 1908l-215 -215l215 -211l-140 -140l-216 210l-210 -210l-140 140l210 211l-210 215
l140 140l210 -215l216 215z" />
</svg>
