<?xml version="1.0" standalone="no"?>
<!DOCTYPE svg PUBLIC "-//W3C//DTD SVG 1.1//EN" "http://www.w3.org/Graphics/SVG/1.1/DTD/svg11.dtd" >
<svg xmlns="http://www.w3.org/2000/svg" xmlns:xlink="http://www.w3.org/1999/xlink" version="1.1" width="2048" height="2048" viewBox="-10 0 2058 2048">
   <path fill="currentColor"
d="M1986 900.5q0 23.5 -20 43.5l-897 899q-19 19 -46 19q-25 0 -44 -19l-899 -899q-18 -18 -18 -43.5t18 -43.5l98 -97q20 -20 43.5 -20t44.5 20l757 758l758 -758q20 -20 45 -20q24 0 44 20l96 97q20 20 20 43.5zM1986 159.5q0 23.5 -20 44.5l-897 899q-19 18 -46 18
q-25 0 -44 -18l-899 -899q-18 -19 -18 -44t18 -44l98 -96q20 -20 43.5 -20t44.5 20l757 757l758 -757q20 -20 45 -20q24 0 44 20l96 96q20 20 20 43.5z" />
</svg>
