<?xml version="1.0" standalone="no"?>
<!DOCTYPE svg PUBLIC "-//W3C//DTD SVG 1.1//EN" "http://www.w3.org/Graphics/SVG/1.1/DTD/svg11.dtd" >
<svg xmlns="http://www.w3.org/2000/svg" xmlns:xlink="http://www.w3.org/1999/xlink" version="1.1" width="2048" height="2048" viewBox="-10 0 2068 2048">
   <path fill="currentColor"
d="M2048 663q0 106 -74.5 183t-180.5 77t-180.5 -77t-74.5 -183q0 106 -76.5 183t-182.5 77t-180.5 -77t-74.5 -183q0 106 -74.5 183t-180.5 77t-182.5 -77t-76.5 -183q0 106 -74.5 183t-180.5 77t-180.5 -77t-74.5 -183l139 -552l15 -29q14 -34 38 -53q39 -29 82 -29h1500
q43 0 82 29q24 19 38 53l15 29zM1947 1043v803q0 82 -60 142t-147 60h-1432q-87 0 -147 -60t-60 -142v-803q72 34 154 34q144 0 255 -91q115 91 259 91t255 -91q115 91 257 91t257 -91q111 91 255 91q82 0 154 -34zM1740 1572q0 -43 -4 -67v-15h-308v121h187q-14 43 -33 62
q-53 53 -130 53t-132.5 -55.5t-55.5 -134.5t53 -132t130 -53t130 48l14 14l87 -86l-15 -15q-91 -81 -211 -81h-5q-125 0 -218.5 91t-93.5 216t91 212q96 96 226 96h5q125 0 206 -82q34 -38 55.5 -91t21.5 -101z" />
</svg>
