<?xml version="1.0" standalone="no"?>
<!DOCTYPE svg PUBLIC "-//W3C//DTD SVG 1.1//EN" "http://www.w3.org/Graphics/SVG/1.1/DTD/svg11.dtd" >
<svg xmlns="http://www.w3.org/2000/svg" xmlns:xlink="http://www.w3.org/1999/xlink" version="1.1" width="2048" height="2048" viewBox="-10 0 2058 2048">
   <path fill="currentColor"
d="M1246 623q83 -52 196 -70q79 -13 162 -4l69 9q-113 -148 -261 -183q-109 -26 -240 17v-17q48 -70 127 -105q56 -26 122 -35h61q-175 -152 -366 -48q-44 -113 -92 -187q-39 65 -92 196q-78 -52 -161 -52q-113 0 -213 91l61 5q69 13 130 39q79 43 127 113
q-131 -43 -240 -17q-148 35 -261 183l69 -9q83 -9 162 4q113 18 196 70q-148 87 -242 270t-94 410q0 200 76.5 372.5t202.5 272.5t279 100t279 -100t202.5 -272.5t76.5 -372.5q0 -227 -94 -410t-242 -270zM1377 1468q-17 75 -35 114l-131 -188l-139 188l148 196l-74 56
l-122 -161l-122 161q-48 -17 -74 -56l148 -196l-139 -188l-140 179q-4 -17 -17 -54t-18 -59l131 -157l-122 -166q17 -74 35 -113l131 187l139 -187l-148 -196l74 -57l122 161l122 -161q48 18 74 57l-148 196l139 187l140 -178q4 17 17 54t18 59l-131 157zM1024 1116l139 187
l-139 187l-139 -187z" />
</svg>
