<?xml version="1.0" standalone="no"?>
<!DOCTYPE svg PUBLIC "-//W3C//DTD SVG 1.1//EN" "http://www.w3.org/Graphics/SVG/1.1/DTD/svg11.dtd" >
<svg xmlns="http://www.w3.org/2000/svg" xmlns:xlink="http://www.w3.org/1999/xlink" version="1.1" width="2048" height="2048" viewBox="-10 0 2058 2048">
   <path fill="currentColor"
d="M1452 1188h-51q-50 -91 -100 -237q-30 -86 -86 -267l101 96q181 141 382 176q101 20 161 10l10 -70q5 -81 -5 -161q-15 -116 -60 -207q-55 -115 -156 -186q-161 -126 -337 -171q-121 -25 -201 -10l-11 -80q-5 -61 -10 -81l-151 10q0 221 -156 639q-95 252 -231 539
q-161 20 -274 140.5t-113 294t125.5 299.5t301.5 126t292 -116q-75 -171 -75 -314.5t75 -309.5q-50 -55 -161 -95q191 -413 292 -730q30 186 93 390t143 370q-100 60 -163 158.5t-63 218.5q0 176 126 302t304.5 126t304 -126t125.5 -304.5t-125.5 -304t-306.5 -125.5z
M596 1459q-65 0 -113 48t-48 113h-110q0 -115 78 -193t193 -78v110zM1452 1459q-61 0 -111 48t-50 113h-106q0 -115 78 -193t189 -78v110z" />
</svg>
