<?xml version="1.0" standalone="no"?>
<!DOCTYPE svg PUBLIC "-//W3C//DTD SVG 1.1//EN" "http://www.w3.org/Graphics/SVG/1.1/DTD/svg11.dtd" >
<svg xmlns="http://www.w3.org/2000/svg" xmlns:xlink="http://www.w3.org/1999/xlink" version="1.1" width="2048" height="2048" viewBox="-10 0 2068 2048">
   <path fill="currentColor"
d="M1793 1538q-29 0 -38 5l-169 -336q77 -77 77 -183t-74.5 -180.5t-179.5 -74.5q-24 0 -44 5l-163 -337q77 -72 77 -180t-74.5 -182.5t-180.5 -74.5t-180.5 74.5t-74.5 182.5t77 180l-163 337q-20 -5 -44 -5q-105 0 -179.5 74.5t-74.5 183t77 180.5l-169 336q-9 -5 -38 -5
q-106 0 -180.5 74.5t-74.5 180.5t74.5 180.5t180.5 74.5t180.5 -74.5t74.5 -182.5t-77 -180l168 -337q14 5 38 5t39 -5l168 337q-77 72 -77 180t74.5 182.5t180.5 74.5t180.5 -74.5t74.5 -180.5t-74.5 -180.5t-180.5 -74.5q-29 0 -38 5l-169 -336q77 -77 77 -183t-77 -183
l169 -336q9 5 38 5t38 -5l169 336q-77 72 -77 180.5t74.5 183t180.5 74.5q24 0 38 -5l168 337q-77 72 -77 180t74.5 182.5t180.5 74.5t180.5 -74.5t74.5 -180.5t-74.5 -180.5t-180.5 -74.5zM255 1894q-43 0 -72 -29t-29 -72t29 -72t72 -29t72 29t29 72t-29 72t-72 29z
M1125 1793q0 43 -29 72t-72 29t-72 -29t-29 -72t29 -72t72 -29t72 29t29 72zM538 1024q0 -43 29 -72t72.5 -29t72 29t28.5 72t-28.5 72t-72 29t-72.5 -29t-29 -72zM923 255q0 -43 29 -72t72 -29t72 29t29 72t-29 72t-72 29t-72 -29t-29 -72zM1308 1024q0 -43 28.5 -72
t72 -29t72.5 29t29 72t-29 72t-72.5 29t-72 -29t-28.5 -72zM1793 1894q-43 0 -72 -29t-29 -72t29 -72t72 -29t72 29t29 72t-29 72t-72 29z" />
</svg>
