<?xml version="1.0" standalone="no"?>
<!DOCTYPE svg PUBLIC "-//W3C//DTD SVG 1.1//EN" "http://www.w3.org/Graphics/SVG/1.1/DTD/svg11.dtd" >
<svg xmlns="http://www.w3.org/2000/svg" xmlns:xlink="http://www.w3.org/1999/xlink" version="1.1" width="2048" height="2048" viewBox="-11 0 2070 2048">
   <path fill="currentColor"
d="M717 1423q-162 -14 -294 -74t-218 -161q-62 0 -115 -36t-77 -95.5t-4.5 -117t76.5 -96.5q5 -234 199 -447.5t505.5 -321t603.5 -55t450 229.5q62 0 115 36t77 96t4.5 117.5t-76.5 95.5q0 125 -62 249q-206 -124 -417 -124q-197 0 -367 93.5t-277.5 254t-122.5 356.5z
M2044 1485q0 149 -76.5 278t-206 206t-278 77t-277.5 -77t-206 -206t-77 -277.5t77 -278t206 -206t277.5 -76.5t278 76.5t206 206t76.5 277.5zM1158 1639l235 -154l-235 -153q-33 77 -33 153.5t33 153.5zM1431 1576l-211 144q72 86 211 125v-269zM1431 1136q-62 9 -119.5 40
t-91.5 84l211 144v-268zM1537 1394l210 -143q-72 -87 -210 -125v268zM1747 1720l-210 -144v259q62 -10 119.5 -38.5t90.5 -76.5zM1843 1485q0 -76 -33 -153l-235 153l235 154q33 -77 33 -154z" />
</svg>
