<?xml version="1.0" standalone="no"?>
<!DOCTYPE svg PUBLIC "-//W3C//DTD SVG 1.1//EN" "http://www.w3.org/Graphics/SVG/1.1/DTD/svg11.dtd" >
<svg xmlns="http://www.w3.org/2000/svg" xmlns:xlink="http://www.w3.org/1999/xlink" version="1.1" width="2048" height="2048" viewBox="-10 0 2058 2048">
   <path fill="currentColor"
d="M1673 1024q0 -96 -56.5 -170t-148.5 -96q22 -52 22 -104q0 -118 -82.5 -198.5t-196.5 -80.5q-56 0 -113 22q44 -244 148 -284l-74 -113q-104 48 -161 187q-44 92 -57 214q-56 -26 -117 -26q-114 0 -196.5 80.5t-82.5 198.5q0 52 22 104q-92 22 -148.5 96t-56.5 170
t56.5 170t148.5 96q-22 52 -22 104q0 96 58.5 170t150.5 101q-22 52 -22 104q0 113 80.5 196t198.5 83t198.5 -83t80.5 -196q0 -52 -22 -104q92 -27 150.5 -101t58.5 -170q0 -52 -22 -104q92 -22 148.5 -96t56.5 -170zM1425 828zM1211 514q57 0 98.5 39.5t41.5 98t-41.5 100
t-100.5 41.5t-98 -41.5t-39 -100t39 -98t100 -39.5zM1163 1024q0 57 -41 98t-98 41t-98 -41t-41 -98t41 -98t98 -41t98 41t41 98zM837 514q61 0 100 39.5t39 98t-39 100t-98 41.5t-100.5 -41.5t-41.5 -100t41.5 -98t98.5 -39.5zM514 1024q0 -57 39.5 -98t98 -41t100 41
t41.5 98t-41.5 98t-100 41t-98 -41t-39.5 -98zM697 1394q0 -56 41.5 -97.5t100.5 -41.5t98 41.5t39 100t-39 98t-98 39.5t-100.5 -39.5t-41.5 -100.5zM1024 1909q-57 0 -98 -41.5t-41 -100.5t41 -98t98 -39t98 39t41 98t-41 100.5t-98 41.5zM1211 1534q-61 0 -100 -39.5
t-39 -98t39 -100t98 -41.5t100.5 41.5t41.5 100t-41.5 98t-98.5 39.5zM1394 1163q-56 0 -97.5 -41t-41.5 -98t41.5 -98t100 -41t98 41t39.5 98t-39.5 98t-100.5 41z" />
</svg>
