<?xml version="1.0" standalone="no"?>
<!DOCTYPE svg PUBLIC "-//W3C//DTD SVG 1.1//EN" "http://www.w3.org/Graphics/SVG/1.1/DTD/svg11.dtd" >
<svg xmlns="http://www.w3.org/2000/svg" xmlns:xlink="http://www.w3.org/1999/xlink" version="1.1" width="2048" height="2048" viewBox="-10 0 2064 2048">
   <path fill="currentColor"
d="M1475 1471q172 -173 232 -400.5t0 -455t-232 -390.5l-1246 1246q163 172 391 232q114 30 227.5 30t227.5 -30q227 -60 400 -232zM1432 508q48 0 76.5 28.5t28.5 74t-28.5 74.5t-74 29t-74.5 -29t-29 -74.5t29 -74t72 -28.5zM1432 920q48 0 76.5 26.5t28.5 74t-28.5 74
t-74 26.5t-74.5 -26.5t-29 -74t29 -74t72 -26.5zM1025 920q48 0 74 26.5t26 74t-26 74t-74 26.5t-74.5 -26.5t-26.5 -74t26.5 -74t74.5 -26.5zM1025 1327q48 0 74 28.5t26 74.5t-26 74.5t-74 28.5t-74.5 -28.5t-26.5 -74.5t26.5 -74.5t74.5 -28.5zM617 1533
q-48 0 -76.5 -28.5t-28.5 -74.5t28.5 -74.5t74.5 -28.5t74.5 28.5t28.5 74.5t-28.5 74.5t-72.5 28.5zM1700 1696q-230 230 -539 311.5t-618 0t-539 -311.5l144 -144q187 192 443 259t510 0t445.5 -258.5t259 -445.5t0 -508t-258.5 -446l153 -153q225 230 304 539
q40 154 40 308.5t-40 309.5q-79 309 -304 539z" />
</svg>
