<?xml version="1.0" standalone="no"?>
<!DOCTYPE svg PUBLIC "-//W3C//DTD SVG 1.1//EN" "http://www.w3.org/Graphics/SVG/1.1/DTD/svg11.dtd" >
<svg xmlns="http://www.w3.org/2000/svg" xmlns:xlink="http://www.w3.org/1999/xlink" version="1.1" width="2048" height="2048" viewBox="-10 0 2058 2048">
   <path fill="currentColor"
d="M1221 1074q0 83 -57.5 140t-139.5 57t-139.5 -57t-57.5 -139.5t57.5 -139.5t139.5 -57t139.5 57t57.5 139zM535 878q-78 0 -135 57t-57 139.5t57 139.5t137 57t137 -57t57 -139.5t-57 -139.5t-139 -57zM1513 878q-82 0 -139 57t-57 139.5t57 139.5t137 57t137 -57
t57 -139.5t-57 -139.5t-135 -57zM1266 489q-77 0 -134.5 57t-57.5 137t57.5 137.5t137.5 57.5t137 -57.5t57 -137.5t-57 -137t-140 -57zM782 489q-83 0 -140 57t-57 137t57 137.5t137 57.5t137.5 -57.5t57.5 -137.5t-57.5 -137t-134.5 -57zM1266 1271q-77 0 -134.5 57
t-57.5 137t57.5 137t137.5 57t137 -57t57 -137t-57 -137t-140 -57zM782 1271q-83 0 -140 57t-57 137t57 137t137 57t137.5 -57t57.5 -137t-57.5 -137t-134.5 -57zM1024 1659q-82 0 -139.5 57.5t-57.5 137.5t57.5 137t139.5 57t139.5 -57t57.5 -137t-57.5 -137.5
t-139.5 -57.5zM1257 119l-78 -119q-137 64 -196 265q-37 124 -37 224h147v-4q41 -320 164 -366z" />
</svg>
