<?xml version="1.0" standalone="no"?>
<!DOCTYPE svg PUBLIC "-//W3C//DTD SVG 1.1//EN" "http://www.w3.org/Graphics/SVG/1.1/DTD/svg11.dtd" >
<svg xmlns="http://www.w3.org/2000/svg" xmlns:xlink="http://www.w3.org/1999/xlink" version="1.1" width="2048" height="2048" viewBox="-10 0 2058 2048">
   <path fill="currentColor"
d="M1170 681q-41 0 -68.5 27.5t-27.5 68.5t27.5 71t68.5 30t68.5 -30t27.5 -71t-27.5 -68.5t-68.5 -27.5zM1170 681q-41 0 -68.5 27.5t-27.5 68.5t27.5 71t68.5 30t68.5 -30t27.5 -71t-27.5 -68.5t-68.5 -27.5zM1755 0h-1170q-82 0 -139 57t-57 135v887q50 -9 100 -9
q101 0 192 36q-87 -128 -98.5 -281t52.5 -292.5t192 -231t279 -105t293 46t235.5 183t112 276.5t-36.5 294.5t-179 237.5l-187 -233q-18 -36 -57 -47.5t-76 11.5l-82 50q-36 18 -47.5 57t11.5 75l86 215q-105 0 -205 -36q96 141 100.5 310.5t-82.5 310.5h763q83 0 140 -57
t57 -135v-1563q0 -78 -57 -135t-140 -57zM1422 1714l-243 -617l83 -50l411 521zM1170 878q41 0 68.5 -30t27.5 -71t-27.5 -68.5t-68.5 -27.5t-68.5 27.5t-27.5 68.5t27.5 71t68.5 30zM878 1755h-293v293h-196v-293h-293v-196h293v-293h196v293h293v196z" />
</svg>
