<?xml version="1.0" standalone="no"?>
<!DOCTYPE svg PUBLIC "-//W3C//DTD SVG 1.1//EN" "http://www.w3.org/Graphics/SVG/1.1/DTD/svg11.dtd" >
<svg xmlns="http://www.w3.org/2000/svg" xmlns:xlink="http://www.w3.org/1999/xlink" version="1.1" width="2048" height="2048" viewBox="-10 0 2068 2048">
   <path fill="currentColor"
d="M676 1455q-125 0 -233 112l-12 12q-29 28 -47 38.5t-52 10.5t-52 -10.5t-47 -38.5l-12 -12q-72 -76 -149 -100v193l29 28q108 109 231 109t231 -109l12 -16q29 -28 47 -36t52 -8t52 8t47 36l12 16q96 92 189 105q16 4 44 4q121 0 233 -109l12 -16q29 -28 47 -36t52 -8
t52 8t47 36l12 16q108 109 231 109t231 -109l29 -28v-193q-77 24 -149 100l-12 12q-29 28 -47 38.5t-52 10.5t-52 -10.5t-47 -38.5l-12 -12q-108 -112 -231 -112t-231 112l-16 12q-29 28 -45 38.5t-52 10.5q-24 0 -44 -8.5t-61 -48.5l-8 -4q-108 -112 -229 -112zM1875 811
q24 28 44 52q53 64 85 121q44 76 44 129q0 68 -50.5 118.5t-120.5 50.5t-120.5 -50.5t-50.5 -121t84 -191.5q45 -60 85 -108zM1919 521l-281 -161l-556 322q-24 -40 -64 -62t-85 -22h-173v-174h85q36 0 62 -26t26 -60t-26 -60.5t-62 -26.5h-342q-36 0 -60.5 26.5t-24.5 60.5
t24.5 60t60.5 26h84v174h-169q-72 0 -122.5 50t-50.5 118v258q0 72 50.5 122.5t122.5 50.5h773q44 0 84.5 -24t64.5 -65l314 -543l181 105q32 16 64 8t50.5 -40t10 -66.5t-40.5 -50.5zM1191 1024h-773v-258h572l80 125l298 -173zM290 505l-149 145q-24 20 -58.5 20
t-58.5 -24t-24 -58.5t20 -58.5l149 -149q24 -24 58.5 -24t60.5 26t26 60.5t-24 62.5z" />
</svg>
