<?xml version="1.0" standalone="no"?>
<!DOCTYPE svg PUBLIC "-//W3C//DTD SVG 1.1//EN" "http://www.w3.org/Graphics/SVG/1.1/DTD/svg11.dtd" >
<svg xmlns="http://www.w3.org/2000/svg" xmlns:xlink="http://www.w3.org/1999/xlink" version="1.1" width="2048" height="2048" viewBox="-10 0 2068 2048">
   <path fill="currentColor"
d="M1442 1116h-139v344l296 170l70 -118l-227 -135v-261zM1394 745q-130 0 -252 52.5t-210 143.5v-383h558l183 -183l-183 -188h-558v-91l-95 -96l-92 96v370h-558l-187 188l187 183h558v932q-78 0 -132.5 54.5t-54.5 128.5h505q153 96 331.5 96t329 -87t237.5 -237.5
t87 -327t-87 -327t-237.5 -237.5t-329.5 -87zM1394 1848q-122 0 -224 -61t-163 -166t-61 -227t61 -224t163 -163t224 -61t227 61t166 163t61 224t-61 227t-166 166t-227 61z" />
</svg>
