<?xml version="1.0" standalone="no"?>
<!DOCTYPE svg PUBLIC "-//W3C//DTD SVG 1.1//EN" "http://www.w3.org/Graphics/SVG/1.1/DTD/svg11.dtd" >
<svg xmlns="http://www.w3.org/2000/svg" xmlns:xlink="http://www.w3.org/1999/xlink" version="1.1" width="2048" height="2048" viewBox="-10 0 2068 2048">
   <path fill="currentColor"
d="M96 101l-96 399l1779 447l96 -399zM418 500l-197 -48l48 -202l197 48zM812 601l-197 -53l48 -197l198 48zM1207 697l-197 -48l48 -202l197 53zM1606 798l-202 -48l53 -202l197 48zM269 1101l-96 399l1779 447l96 -399zM591 1500l-197 -48l48 -202l202 48zM990 1601
l-197 -53l48 -197l197 48zM1385 1697l-198 -48l49 -202l197 53zM1779 1798l-197 -48l48 -202l197 48zM433 1034l490 -193l692 173l-490 193z" />
</svg>
