<?xml version="1.0" standalone="no"?>
<!DOCTYPE svg PUBLIC "-//W3C//DTD SVG 1.1//EN" "http://www.w3.org/Graphics/SVG/1.1/DTD/svg11.dtd" >
<svg xmlns="http://www.w3.org/2000/svg" xmlns:xlink="http://www.w3.org/1999/xlink" version="1.1" width="2048" height="2048" viewBox="-10 0 2058 2048">
   <path fill="currentColor"
d="M1024 716q72 346 19 693q-38 245 -134 471q-48 110 -92 168h308q130 -385 120 -755q-5 -221 -67 -476zM1399 529q34 38 48 67q130 207 110.5 447.5t-172.5 417.5q62 -163 50 -338.5t-108 -329.5l-24 -33q-92 -125 -221 -202q-226 67 -368 259.5t-142 432.5q0 115 29 216
q-135 -187 -135 -423q0 -178 79.5 -331.5t218.5 -254.5q-245 -20 -447 105q-96 63 -163 145q86 -217 283 -342q231 -144 500 -105q-67 -92 -156 -159t-190 -101q236 5 419 144q91 68 158 168h29q245 0 437.5 144.5t259.5 370.5q-86 -120 -213.5 -199.5t-281.5 -98.5z" />
</svg>
