<?xml version="1.0" standalone="no"?>
<!DOCTYPE svg PUBLIC "-//W3C//DTD SVG 1.1//EN" "http://www.w3.org/Graphics/SVG/1.1/DTD/svg11.dtd" >
<svg xmlns="http://www.w3.org/2000/svg" xmlns:xlink="http://www.w3.org/1999/xlink" version="1.1" width="2048" height="2048" viewBox="-10 0 2058 2048">
   <path fill="currentColor"
d="M1304 1463v-293h293v-196l388 343l-388 338v-192h-293zM1501 1559v292h-293v197l-393 -343l393 -343v197h293zM1012 585q-160 0 -274.5 114.5t-114.5 274.5q0 137 87 246.5t224 137.5l466 -398q-4 -155 -116 -265t-272 -110zM1012 1170q-83 0 -140 -57t-57 -139.5
t57 -139.5t139.5 -57t139.5 57t57 139.5t-57 139.5t-139 57zM1953 654l-196 -339q-5 -13 -23 -20t-37 2l-242 96q-73 -59 -164 -96l-37 -256q0 -18 -13.5 -29.5t-32.5 -11.5h-393q-18 0 -32 11.5t-14 29.5l-36 256q-87 37 -165 96l-237 -96q-19 -9 -37 -2t-23 20l-196 339
q-10 18 -7.5 34t16.5 30l201 160l-5 96l5 96l-206 160q-14 9 -16 27t7 37l197 338q4 18 22.5 25t41.5 -2l242 -96q36 27 73 50l160 -137q-114 -46 -192 -137l-238 96l-73 -128l201 -156q-59 -173 0 -347l-205 -151l73 -128l233 96q119 -137 292 -174l42 -251h146l36 256
q174 37 293 174l233 -96l73 123l-201 151q14 37 18 78h197l206 -160q13 -9 18 -27.5t-5 -36.5zM1012 585q-160 0 -274.5 114.5t-114.5 274.5q0 137 87 246.5t224 137.5l466 -398q-4 -155 -116 -265t-272 -110zM1012 1170q-83 0 -140 -57t-57 -139.5t57 -139.5t139.5 -57
t139.5 57t57 139.5t-57 139.5t-139 57zM1012 585q-160 0 -274.5 114.5t-114.5 274.5q0 137 87 246.5t224 137.5l466 -398q-4 -155 -116 -265t-272 -110zM1012 1170q-83 0 -140 -57t-57 -139.5t57 -139.5t139.5 -57t139.5 57t57 139.5t-57 139.5t-139 57z" />
</svg>
