<?xml version="1.0" standalone="no"?>
<!DOCTYPE svg PUBLIC "-//W3C//DTD SVG 1.1//EN" "http://www.w3.org/Graphics/SVG/1.1/DTD/svg11.dtd" >
<svg xmlns="http://www.w3.org/2000/svg" xmlns:xlink="http://www.w3.org/1999/xlink" version="1.1" width="2048" height="2048" viewBox="-10 0 2058 2048">
   <path fill="currentColor"
d="M1861 932q0 253 -109 488.5t-301 401t-427 226.5q-235 -61 -427 -226.5t-301 -401t-109 -488.5v-557l837 -375l837 375v557zM1024 1861q170 -48 320.5 -187.5t239.5 -331.5t89 -392v-458l-649 -287l-649 287v458q0 200 89 392t239.5 331.5t320.5 187.5zM1024 736
q113 0 191.5 78.5t78.5 190t-78.5 189.5t-191.5 78t-191.5 -78t-78.5 -189.5t80.5 -190t189.5 -78.5zM1024 466l126 188q-56 -27 -126 -27t-126 27zM558 736l226 -21q-56 52 -86.5 102t-43.5 120zM558 1272l96 -200q13 61 45.5 120t84.5 98zM1490 736l-96 201
q-13 -66 -43.5 -118t-86.5 -104zM1490 1272l-226 18q52 -39 84.5 -96t45.5 -122zM1024 1538l-131 -183q70 22 131 22t126 -22z" />
</svg>
