<?xml version="1.0" standalone="no"?>
<!DOCTYPE svg PUBLIC "-//W3C//DTD SVG 1.1//EN" "http://www.w3.org/Graphics/SVG/1.1/DTD/svg11.dtd" >
<svg xmlns="http://www.w3.org/2000/svg" xmlns:xlink="http://www.w3.org/1999/xlink" version="1.1" width="2048" height="2048" viewBox="-10 0 2068 2048">
   <path fill="currentColor"
d="M889 1077q0 19 -79 45.5t-151 26.5t-147 -38.5t-75 -55.5t29 -48t77 -55q58 -24 130 -31.5t137 36t79 120.5zM1375 923q-82 -10 -142 33.5t-74 120.5q0 24 76.5 48t153.5 24t149.5 -36t72.5 -53t-29 -48t-77 -55q-58 -29 -130 -34zM2048 1024q0 279 -137 514.5
t-372.5 372.5t-514.5 137t-514.5 -137t-372.5 -372.5t-137 -514.5t137 -514.5t372.5 -372.5t514.5 -137t514.5 137t372.5 372.5t137 514.5zM1846 942q0 -158 -72 -218.5t-269 -60.5q-101 0 -193 24q-52 15 -134 49q-101 43 -154 43t-149 -43q-82 -34 -135 -49
q-91 -24 -197 -24q-144 0 -213.5 24.5t-98.5 84.5t-29 170q0 255 103.5 399.5t266.5 144.5q58 0 115 -34q39 -19 111 -69.5t111 -70.5q62 -33 115 -33t115 33q34 20 103.5 70.5t108.5 69.5q67 34 125 34q163 0 266.5 -144.5t103.5 -399.5z" />
</svg>
