<?xml version="1.0" standalone="no"?>
<!DOCTYPE svg PUBLIC "-//W3C//DTD SVG 1.1//EN" "http://www.w3.org/Graphics/SVG/1.1/DTD/svg11.dtd" >
<svg xmlns="http://www.w3.org/2000/svg" xmlns:xlink="http://www.w3.org/1999/xlink" version="1.1" width="2048" height="2048" viewBox="-10 0 2058 2048">
   <path fill="currentColor"
d="M1208 1559v-197l-393 343l393 343v-197h293v-292h-293zM1985 1317l-388 -343v196h-293v293h293v192zM1953 654l-196 -339q-5 -13 -23 -20t-37 2l-242 96q-73 -59 -164 -96l-37 -256q0 -18 -13.5 -29.5t-32.5 -11.5h-393q-18 0 -32 11.5t-14 29.5l-36 256q-87 37 -165 96
l-237 -96q-19 -9 -37 -2t-23 20l-196 339q-10 18 -7.5 34t16.5 30l201 160q-5 55 -5 96t5 96l-206 160q-14 9 -16 27t7 37l197 338q4 18 22.5 25t41.5 -2l242 -96q36 27 73 50l343 -292q-142 -10 -235.5 -115t-82 -246.5t118.5 -235.5t245 -85q105 10 189.5 76t111.5 167
h403l205 -160q14 -9 16.5 -27.5t-7.5 -36.5z" />
</svg>
