<?xml version="1.0" standalone="no"?>
<!DOCTYPE svg PUBLIC "-//W3C//DTD SVG 1.1//EN" "http://www.w3.org/Graphics/SVG/1.1/DTD/svg11.dtd" >
<svg xmlns="http://www.w3.org/2000/svg" xmlns:xlink="http://www.w3.org/1999/xlink" version="1.1" width="2048" height="2048" viewBox="-10 0 2068 2048">
   <path fill="currentColor"
d="M837 697h374v1116h-374v-1116zM558 606h187v-188h-187v188zM279 514h187v-187h-187v187zM279 793h187v-187h-187v187zM0 976h187v-183h-187v183zM0 418h187v-183h-187v183zM0 697h187v-183h-187v183zM1582 793h187v-187h-187v187zM1861 697h187v-183h-187v183zM1861 235
v183h187v-183h-187zM1861 976h187v-183h-187v183zM1303 606h187v-188h-187v188zM1582 514h187v-187h-187v187zM837 418h30l65 188h184l65 -188h30v-91h-374v91z" />
</svg>
