<?xml version="1.0" standalone="no"?>
<!DOCTYPE svg PUBLIC "-//W3C//DTD SVG 1.1//EN" "http://www.w3.org/Graphics/SVG/1.1/DTD/svg11.dtd" >
<svg xmlns="http://www.w3.org/2000/svg" xmlns:xlink="http://www.w3.org/1999/xlink" version="1.1" width="2048" height="2048" viewBox="-10 0 2058 2048">
   <path fill="currentColor"
d="M1639 0h-615v716l-255 -154l-259 154v-716h-101q-87 0 -147 60t-60 142v1644q0 82 60 142t147 60h1230q87 0 147 -60t60 -142v-1644q0 -82 -60 -142t-147 -60zM1606 1683q-10 4 -72 48l-97 62q-62 43 -115 53q-82 5 -67 -110q24 -130 77 -327q38 -140 33 -173
q0 -44 -67 0l-77 43q-10 9 -12 9t-12 -14l-5 -10q-5 -9 -5 -11.5t10 -12.5l125 -91q135 -91 185.5 -96t59.5 43q5 29 -5 87l-52 197q-77 288 -70 314.5t55 2.5q24 -14 77 -48l14 -10q5 -4 15 5l5 10q9 9 9 14t-9 15zM1534 928q-44 0 -75 -31.5t-31 -74.5t31 -74.5
t74.5 -31.5t74.5 31.5t31 74.5t-31 74.5t-74 31.5z" />
</svg>
