<?xml version="1.0" standalone="no"?>
<!DOCTYPE svg PUBLIC "-//W3C//DTD SVG 1.1//EN" "http://www.w3.org/Graphics/SVG/1.1/DTD/svg11.dtd" >
<svg xmlns="http://www.w3.org/2000/svg" xmlns:xlink="http://www.w3.org/1999/xlink" version="1.1" width="2048" height="2048" viewBox="-10 0 2068 2048">
   <path fill="currentColor"
d="M1947 923q0 -86 -60 -146.5t-147 -60.5h-1432q-87 0 -147 60.5t-60 146.5h-101v202h101v721h1846v-721h101v-202h-101zM1538 1332q-62 0 -115 -34t-77 -91.5t-12 -120t57.5 -106t106 -55.5t118 12.5t91 74.5t33.5 113q0 86 -60 146.5t-142 60.5zM1639 615h-1230
q24 -178 199.5 -295.5t413.5 -117.5t413.5 117.5t203.5 295.5z" />
</svg>
