<?xml version="1.0" standalone="no"?>
<!DOCTYPE svg PUBLIC "-//W3C//DTD SVG 1.1//EN" "http://www.w3.org/Graphics/SVG/1.1/DTD/svg11.dtd" >
<svg xmlns="http://www.w3.org/2000/svg" xmlns:xlink="http://www.w3.org/1999/xlink" version="1.1" width="2048" height="2048" viewBox="-10 0 2068 2048">
   <path fill="currentColor"
d="M1202 1125q0 -53 38.5 -89t91.5 -36t91 36t38 89t-38 91.5t-91 38.5t-91.5 -38.5t-38.5 -91.5zM2048 1024v1024h-2048v-1024q0 -279 137 -514.5t372.5 -372.5t514.5 -137t514.5 137t372.5 372.5t137 514.5zM202 1024q0 221 110.5 411t300.5 300.5t411 110.5t411 -110.5
t300.5 -300.5t110.5 -411q0 -115 -34 -231q-115 24 -230 24q-255 0 -476 -115t-361 -317q-77 182 -216.5 326.5t-321.5 225.5q-5 29 -5 87zM716 1255q53 0 91.5 -38.5t38.5 -91.5t-38.5 -89t-91.5 -36t-91 36t-38 89t38 91.5t91 38.5z" />
</svg>
