<?xml version="1.0" standalone="no"?>
<!DOCTYPE svg PUBLIC "-//W3C//DTD SVG 1.1//EN" "http://www.w3.org/Graphics/SVG/1.1/DTD/svg11.dtd" >
<svg xmlns="http://www.w3.org/2000/svg" xmlns:xlink="http://www.w3.org/1999/xlink" version="1.1" width="2048" height="2048" viewBox="-10 0 2058 2048">
   <path fill="currentColor"
d="M286 0q-78 0 -132.5 54.5t-54.5 128.5v1494q0 74 54.5 128.5t132.5 54.5h559v-183h-559v-1494h651v468h467v279h188v-371l-559 -559h-747zM1404 1118q-21 0 -26 17l-17 123q-40 21 -79 43l-113 -43q-22 0 -31 8l-92 162q-8 17 5 30l100 79q-4 22 -4 46t4 46l-100 74
q-13 13 -5 31l92 161q4 13 31 13l113 -48q44 31 79 44l17 127q5 17 26 17h188q18 0 22 -17l17 -127q35 -13 79 -44l114 48q26 0 30 -13l92 -161q9 -18 -5 -31l-100 -74l4 -48q0 -22 -4 -44l100 -79q14 -13 5 -30l-92 -162q-4 -8 -30 -8l-114 43q-48 -30 -79 -43l-17 -123
q-4 -17 -22 -17h-188zM1496 1441q61 0 100.5 41.5t39.5 100.5t-39.5 98t-98.5 39t-100.5 -39t-41.5 -98t41.5 -100.5t98.5 -41.5z" />
</svg>
