<?xml version="1.0" standalone="no"?>
<!DOCTYPE svg PUBLIC "-//W3C//DTD SVG 1.1//EN" "http://www.w3.org/Graphics/SVG/1.1/DTD/svg11.dtd" >
<svg xmlns="http://www.w3.org/2000/svg" xmlns:xlink="http://www.w3.org/1999/xlink" version="1.1" width="2048" height="2048" viewBox="-10 0 2068 2048">
   <path fill="currentColor"
d="M971 1433q135 0 245 -72l250 250l145 -145l-250 -250q72 -110 72 -245q0 -192 -135 -326.5t-327 -134.5t-326.5 134.5t-134.5 326.5t134.5 327t326.5 135zM971 716q106 0 183 74.5t77 180.5t-77 183t-183 77t-180.5 -77t-74.5 -183t74.5 -180.5t180.5 -74.5zM1846 202
h-1644q-82 0 -142 60t-60 147v1230q0 87 60 147t142 60h1644q82 0 142 -60t60 -147v-1230q0 -87 -60 -147t-142 -60zM1846 1639h-1644v-1230h1644v1230z" />
</svg>
