<?xml version="1.0" standalone="no"?>
<!DOCTYPE svg PUBLIC "-//W3C//DTD SVG 1.1//EN" "http://www.w3.org/Graphics/SVG/1.1/DTD/svg11.dtd" >
<svg xmlns="http://www.w3.org/2000/svg" xmlns:xlink="http://www.w3.org/1999/xlink" version="1.1" width="2048" height="2048" viewBox="-10 0 2068 2048">
   <path fill="currentColor"
d="M185 85q-75 0 -130 55t-55 134v1126q0 79 55 134t130 55h752v-189h-752v-937h1503v374h185v-374q0 -79 -55 -134t-130 -55h-751l-190 -189h-562zM1499 1026q-22 0 -26 18l-18 123q-39 22 -79 44l-114 -44q-22 0 -31 9l-92 162q-9 18 4 31l101 79q-4 22 -4 46.5t4 46.5
l-101 74q-13 14 -4 31l92 163q4 13 31 13l114 -48q44 30 79 44l18 127q4 18 26 18h189q18 0 22 -18l18 -127q35 -14 79 -44l114 48q27 0 31 -13l92 -163q9 -17 -4 -31l-101 -74l4 -49q0 -22 -4 -44l101 -79q13 -13 4 -31l-92 -162q-4 -9 -31 -9l-114 44q-48 -31 -79 -44
l-18 -123q-4 -18 -22 -18h-189zM1592 1352q61 0 100.5 41.5t39.5 101t-39.5 99t-99 39.5t-101 -39.5t-41.5 -99t41.5 -101t99.5 -41.5z" />
</svg>
