<?xml version="1.0" standalone="no"?>
<!DOCTYPE svg PUBLIC "-//W3C//DTD SVG 1.1//EN" "http://www.w3.org/Graphics/SVG/1.1/DTD/svg11.dtd" >
<svg xmlns="http://www.w3.org/2000/svg" xmlns:xlink="http://www.w3.org/1999/xlink" version="1.1" width="2048" height="2048" viewBox="-10 0 2068 2048">
   <path fill="currentColor"
d="M308 305q-87 0 -147 60t-60 147v409q0 86 60 146t147 60h615v202h-106q-38 0 -69.5 31.5t-31.5 74.5h-716v202h716q0 43 31.5 74.5t69.5 31.5h414q38 0 69.5 -31.5t31.5 -74.5h716v-202h-716q0 -43 -31.5 -74.5t-69.5 -31.5h-106v-202h615q87 0 147 -60t60 -146v-409
q0 -87 -60 -147t-147 -60h-1432zM409 613h206v207h-206v-207zM769 613h202v207h-202v-207zM1125 613h207v207h-207v-207z" />
</svg>
