<?xml version="1.0" standalone="no"?>
<!DOCTYPE svg PUBLIC "-//W3C//DTD SVG 1.1//EN" "http://www.w3.org/Graphics/SVG/1.1/DTD/svg11.dtd" >
<svg xmlns="http://www.w3.org/2000/svg" xmlns:xlink="http://www.w3.org/1999/xlink" version="1.1" width="2048" height="2048" viewBox="-10 0 2068 2048">
   <path fill="currentColor"
d="M1639 510q-86 0 -146 60t-60 146v616q0 86 60 146t146 60h207q82 0 142 -60t60 -146v-409h-202v409h-207v-616h409v-206h-409zM0 510v1028h615v-206h-413v-822h-202zM923 510q-86 0 -146.5 60t-60.5 146v616q0 86 60.5 146t146.5 60h202q86 0 146.5 -60t60.5 -146v-616
q0 -86 -60.5 -146t-146.5 -60h-202zM923 716h202v616h-202v-616z" />
</svg>
