<?xml version="1.0" standalone="no"?>
<!DOCTYPE svg PUBLIC "-//W3C//DTD SVG 1.1//EN" "http://www.w3.org/Graphics/SVG/1.1/DTD/svg11.dtd" >
<svg xmlns="http://www.w3.org/2000/svg" xmlns:xlink="http://www.w3.org/1999/xlink" version="1.1" width="2048" height="2048" viewBox="-10 0 2058 2048">
   <path fill="currentColor"
d="M517 1739v-203h1033v203h-207q-82 0 -145 62.5t-63 145.5v101h-203v-101q0 -83 -62.5 -145.5t-144.5 -62.5h-208zM932 401q0 -44 29 -73t72.5 -29t72.5 29t29 72.5t-29 72.5t-72.5 29t-72.5 -29t-29 -72zM1135 609q0 -44 31.5 -75.5t72.5 -31.5t72.5 31.5t31.5 72.5
t-31.5 72.5t-72.5 31.5t-72.5 -31.5t-31.5 -69.5zM725 609q0 -44 31 -75.5t72 -31.5t72.5 31.5t31.5 72.5t-31.5 72.5t-72.5 31.5t-72 -31.5t-31 -69.5zM1541 203q-208 -203 -507.5 -203t-507.5 203q-101 106 -156.5 234t-55.5 273q0 300 205.5 505t504.5 205t504.5 -205
t205.5 -505q0 -324 -193 -507zM1396 1072q-155 155 -362 155q-102 0 -198.5 -41t-164.5 -114q-154 -174 -154 -362q0 -222 154 -362q174 -155 363 -155q222 0 362 155q154 174 154 362q0 222 -154 362z" />
</svg>
