<?xml version="1.0" standalone="no"?>
<!DOCTYPE svg PUBLIC "-//W3C//DTD SVG 1.1//EN" "http://www.w3.org/Graphics/SVG/1.1/DTD/svg11.dtd" >
<svg xmlns="http://www.w3.org/2000/svg" xmlns:xlink="http://www.w3.org/1999/xlink" version="1.1" width="2048" height="2048" viewBox="-10 0 2068 2048">
   <path fill="currentColor"
d="M663 1415v-146q0 -101 -82.5 -174t-187.5 -73t-189.5 73t-84.5 174v146q-46 0 -82.5 36.5t-36.5 77.5v343q0 50 36.5 89t82.5 39h535q50 0 89 -36.5t39 -82.5v-343q0 -50 -36.5 -86.5t-82.5 -36.5zM539 1415h-292v-146q0 -60 41 -94t103 -34t105 34t43 94v146zM1952 48
h-974l-781 782v41q96 -41 196 -41q124 0 231 59.5t171 160t64 219.5v22q55 46 87 110t32 137v265h1070v-1659q0 -37 -27.5 -66.5t-68.5 -29.5zM1755 1314h-292v-192h292v192zM1856 830h-1385l585 -585h800v585z" />
</svg>
