<?xml version="1.0" standalone="no"?>
<!DOCTYPE svg PUBLIC "-//W3C//DTD SVG 1.1//EN" "http://www.w3.org/Graphics/SVG/1.1/DTD/svg11.dtd" >
<svg xmlns="http://www.w3.org/2000/svg" xmlns:xlink="http://www.w3.org/1999/xlink" version="1.1" width="2048" height="2048" viewBox="-10 0 2058 2048">
   <path fill="currentColor"
d="M1671 595q-23 -34 -64 -43.5t-77 14.5t-43 64.5t12 79.5q38 53 35.5 117.5t-40.5 117.5t-103 72t-127.5 -2.5t-100.5 -74.5t-38 -120v-220q105 -39 162.5 -135t38.5 -206t-105.5 -184.5t-196.5 -74.5t-196.5 74.5t-105.5 184.5t38.5 206t162.5 135v220q0 67 -38 120
t-100.5 74.5t-127.5 2.5t-103 -72t-40.5 -117.5t35.5 -117.5q19 -39 12 -79.5t-43 -64.5t-77 -14.5t-64 43.5q-82 120 -70 261.5t110.5 244.5t240 124.5t265.5 -50.5v672q-86 0 -146 59.5t-60 141.5h614q0 -82 -60 -141.5t-146 -59.5v-672q124 72 265.5 50.5t240 -124.5
t110.5 -244.5t-70 -261.5zM1024 206q29 0 55.5 19.5t38.5 45.5t7 57.5t-26.5 53t-53 28.5t-60 -5t-45.5 -38t-17 -55q0 -43 29 -74.5t72 -31.5z" />
</svg>
