<?xml version="1.0" standalone="no"?>
<!DOCTYPE svg PUBLIC "-//W3C//DTD SVG 1.1//EN" "http://www.w3.org/Graphics/SVG/1.1/DTD/svg11.dtd" >
<svg xmlns="http://www.w3.org/2000/svg" xmlns:xlink="http://www.w3.org/1999/xlink" version="1.1" width="2048" height="2048" viewBox="-10 0 2068 2048">
   <path fill="currentColor"
d="M1024 0q-279 0 -514.5 137t-372.5 372.5t-137 514.5t137 514.5t372.5 372.5t514.5 137t514.5 -137t372.5 -372.5t137 -514.5t-137 -514.5t-372.5 -372.5t-514.5 -137zM1442 1538q-19 0 -53 -28l-528 -428l-178 447h-154l447 -1082q19 -43 64.5 -43t65.5 43l408 986
q5 19 5 28q0 34 -21.5 55.5t-55.5 21.5zM1043 625l265 654l-404 -313z" />
</svg>
