<?xml version="1.0" standalone="no"?>
<!DOCTYPE svg PUBLIC "-//W3C//DTD SVG 1.1//EN" "http://www.w3.org/Graphics/SVG/1.1/DTD/svg11.dtd" >
<svg xmlns="http://www.w3.org/2000/svg" xmlns:xlink="http://www.w3.org/1999/xlink" version="1.1" width="2048" height="2048" viewBox="-10 0 2068 2048">
   <path fill="currentColor"
d="M1463 1456q41 0 68.5 27.5t27.5 68.5t-27.5 71t-68.5 30t-71 -30t-30 -69t30 -68.5t71 -29.5zM1463 1163q196 0 354 107.5t231 281.5q-73 174 -231 283.5t-354.5 109.5t-356.5 -109.5t-228 -283.5q68 -174 228 -281.5t357 -107.5zM1463 1310q-101 0 -174 70.5t-73 173.5
t73 174t173.5 71t171.5 -71t71 -174t-71 -173.5t-171 -70.5zM1559 103h-1367q-78 0 -135 57t-57 139v1171q0 77 57 134.5t135 57.5h530q-23 -41 -41 -96q18 -55 41 -96h-530v-393h585v292q82 -123 197 -215v-77h114q174 -96 375 -96q151 0 292 59v-741q0 -82 -57 -139
t-139 -57zM777 885h-585v-394h585v394zM1559 885h-585v-394h585v394z" />
</svg>
