<?xml version="1.0" standalone="no"?>
<!DOCTYPE svg PUBLIC "-//W3C//DTD SVG 1.1//EN" "http://www.w3.org/Graphics/SVG/1.1/DTD/svg11.dtd" >
<svg xmlns="http://www.w3.org/2000/svg" xmlns:xlink="http://www.w3.org/1999/xlink" version="1.1" width="2048" height="2048" viewBox="-10 0 2068 2048">
   <path fill="currentColor"
d="M912 571q-192 0 -325.5 133t-133.5 322.5t133.5 323t323 133.5t322.5 -133.5t133 -323t-133 -322.5t-320 -133zM912 1253q-96 0 -162.5 -66.5t-66.5 -160t66.5 -160t160 -66.5t160 66.5t66.5 160t-66.5 160t-157.5 66.5zM453 0h800q187 0 320.5 133.5t133.5 325.5v112
h-230v-112q0 -96 -66.5 -163t-157.5 -67h-800q-90 0 -157 67t-67 163v1365h1248v-229h230v453h-1707v-1589q0 -192 133.5 -325.5t319.5 -133.5zM1819 741q32 38 58 70q70 85 112 160q59 101 59 170q0 91 -66.5 157.5t-160 66.5t-160 -66.5t-66.5 -160t112 -253.5
q58 -80 112 -144z" />
</svg>
