<?xml version="1.0" standalone="no"?>
<!DOCTYPE svg PUBLIC "-//W3C//DTD SVG 1.1//EN" "http://www.w3.org/Graphics/SVG/1.1/DTD/svg11.dtd" >
<svg xmlns="http://www.w3.org/2000/svg" xmlns:xlink="http://www.w3.org/1999/xlink" version="1.1" width="2048" height="2048" viewBox="-10 0 2068 2048">
   <path fill="currentColor"
d="M443 1433q-70 0 -119.5 -49.5t-49.5 -120.5v-751q0 -71 49.5 -121t119.5 -50h1162q70 0 120 50t50 121v751q0 71 -50 120.5t-120 49.5h-1162zM410 512v751q0 14 10 24t23 10h1162q13 0 23 -10t10 -24v-751q0 -13 -10 -24t-23 -11h-1162q-13 0 -23 11t-10 24zM1877 1502
h171v102q0 43 -50 73t-121 30h-1706q-71 0 -121 -30t-50 -73v-102h171h1706zM1110 1604q7 0 12 -5t5 -12t-5 -11.5t-12 -4.5h-171q-7 0 -12.5 4.5t-5.5 11.5t5.5 12t12.5 5h171z" />
</svg>
