<?xml version="1.0" standalone="no"?>
<!DOCTYPE svg PUBLIC "-//W3C//DTD SVG 1.1//EN" "http://www.w3.org/Graphics/SVG/1.1/DTD/svg11.dtd" >
<svg xmlns="http://www.w3.org/2000/svg" xmlns:xlink="http://www.w3.org/1999/xlink" version="1.1" width="2048" height="2048" viewBox="-10 0 2068 2048">
   <path fill="currentColor"
d="M996 447v-398h-996v1796h1132q-38 -99 -38 -201h-98v-197h136q23 -70 65 -131v-70h-201v-201h201v-196h-201v-201h800v406q102 19 196 75v-682h-996zM397 1644h-201v-197h201v197zM397 1246h-201v-201h201v201zM397 849h-201v-201h201v201zM397 447h-201v-197h201v197z
M795 1644h-196v-197h196v197zM795 1246h-196v-201h196v201zM795 849h-196v-201h196v201zM795 447h-196v-197h196v197zM1393 1045h201v-196h-201v196zM1393 849v196h201v-196h-201zM1393 849v196h201v-196h-201zM2048 1433l-215 211l215 215l-140 140l-215 -215l-211 215
l-140 -140l210 -215l-210 -211l140 -140l211 210l215 -210z" />
</svg>
