<?xml version="1.0" standalone="no"?>
<!DOCTYPE svg PUBLIC "-//W3C//DTD SVG 1.1//EN" "http://www.w3.org/Graphics/SVG/1.1/DTD/svg11.dtd" >
<svg xmlns="http://www.w3.org/2000/svg" xmlns:xlink="http://www.w3.org/1999/xlink" version="1.1" width="2048" height="2048" viewBox="-10 0 2058 2048">
   <path fill="currentColor"
d="M936 1324l-41 -217h-621v770h-217v-1877h993l41 222h621v781q-67 -10 -111 -10t-112 10v-558h-579l-41 -223h-595v662h802l41 223h119q-129 82 -207 217h-93zM1836 1267l-238 233l-233 -233l-155 155l233 233l-233 238l155 155l233 -238l238 238l155 -155l-238 -238
l238 -233z" />
</svg>
