<?xml version="1.0" standalone="no"?>
<!DOCTYPE svg PUBLIC "-//W3C//DTD SVG 1.1//EN" "http://www.w3.org/Graphics/SVG/1.1/DTD/svg11.dtd" >
<svg xmlns="http://www.w3.org/2000/svg" xmlns:xlink="http://www.w3.org/1999/xlink" version="1.1" width="2048" height="2048" viewBox="-10 0 2068 2048">
   <path fill="currentColor"
d="M1861 802v-288q0 -78 -54.5 -132.5t-133.5 -54.5h-741l-187 -188h-558q-78 0 -132.5 54.5t-54.5 133.5v1115q0 79 54.5 133.5t132.5 54.5h680q87 130 231 204.5t296 74.5q179 0 329.5 -87.5t237.5 -237.5t87 -329q0 -126 -48 -246t-139 -207zM1394 1721
q-126 0 -232.5 -61t-168 -167.5t-61.5 -235t61.5 -235.5t168 -168t235 -61t235.5 61t168 168t61 235.5t-61 235t-168 167.5t-238 61zM1490 1630h-187v-467h187v467zM1490 1072h-187v-187h187v187z" />
</svg>
