<?xml version="1.0" standalone="no"?>
<!DOCTYPE svg PUBLIC "-//W3C//DTD SVG 1.1//EN" "http://www.w3.org/Graphics/SVG/1.1/DTD/svg11.dtd" >
<svg xmlns="http://www.w3.org/2000/svg" xmlns:xlink="http://www.w3.org/1999/xlink" version="1.1" width="2048" height="2048" viewBox="-10 0 2068 2048">
   <path fill="currentColor"
d="M1956 1164v-44q0 -96 -69.5 -166t-166 -70t-164 70t-67.5 166v44q-39 0 -65.5 28.5t-26.5 67.5v371q0 39 26.5 65.5t65.5 26.5h467q40 0 66 -26.5t26 -65.5v-371q0 -39 -26 -67.5t-66 -28.5zM1860 1164h-279v-44q0 -61 41.5 -100.5t100.5 -39.5t98 39.5t39 100.5v44z
M463 504h375v-179h-375q-127 0 -234 63.5t-168 170.5t-61 233.5t61 233.5t168 170.5t234 63.5h375v-179h-375q-118 0 -203 -85.5t-85 -203t85 -203t203 -85.5zM559 701v183h742v-183h-742zM1022 1081v179h188v-179h-188zM1397 325h-375v179h375q92 0 168.5 55t102.5 142
q26 -5 52 0h131q-30 -166 -159 -271t-295 -105z" />
</svg>
