<?xml version="1.0" standalone="no"?>
<!DOCTYPE svg PUBLIC "-//W3C//DTD SVG 1.1//EN" "http://www.w3.org/Graphics/SVG/1.1/DTD/svg11.dtd" >
<svg xmlns="http://www.w3.org/2000/svg" xmlns:xlink="http://www.w3.org/1999/xlink" version="1.1" width="2048" height="2048" viewBox="-10 0 2058 2048">
   <path fill="currentColor"
d="M442 946q117 227 301.5 411.5t411.5 301.5l238 -238q46 -46 111 -25q182 60 385 60q40 0 73 30.5t33 76.5v379q0 40 -33 73t-73 33q-501 0 -926 -253q-414 -243 -657 -657q-253 -425 -253 -926q0 -40 33 -73t73 -33h380q45 0 75.5 33t30.5 73q0 203 60 385q21 65 -25 111
zM1509 0q-202 0 -343.5 141.5t-141.5 344t141.5 344t344 141.5t344 -141.5t141.5 -344t-141.5 -344t-344.5 -141.5zM1509 809q-136 0 -229.5 -96t-93.5 -228q0 -91 45 -161l440 440q-71 45 -162 45zM1788 647l-440 -440q70 -45 161 -45q137 0 230.5 93.5t93.5 229.5
q0 91 -45 162z" />
</svg>
