<?xml version="1.0" standalone="no"?>
<!DOCTYPE svg PUBLIC "-//W3C//DTD SVG 1.1//EN" "http://www.w3.org/Graphics/SVG/1.1/DTD/svg11.dtd" >
<svg xmlns="http://www.w3.org/2000/svg" xmlns:xlink="http://www.w3.org/1999/xlink" version="1.1" width="2048" height="2048" viewBox="-10 0 2068 2048">
   <path fill="currentColor"
d="M313 102q-67 0 -124.5 43t-72.5 111l-105 451q-39 168 62 293l29 29v711q0 86 65 146t141 60h1432q86 0 146 -65t60 -141v-711l29 -29q101 -125 62 -293l-105 -451q-19 -68 -74.5 -111t-122.5 -43h-1422zM1730 304l110 451q15 67 -26 117.5t-93.5 50.5t-86.5 -36t-38 -84
l-63 -495zM313 308h202l-63 495q-19 120 -120 120q-62 0 -96 -48q-43 -53 -28 -120zM721 308h202v481q0 52 -38.5 93t-93.5 41t-91 -43t-36 -96v-15zM1125 308h202l57 461q10 63 -28.5 108.5t-105.5 45.5q-48 0 -86.5 -41t-38.5 -93v-481zM558 1029q101 96 240 96
q130 0 226 -96q110 96 237.5 96t228.5 -96q86 96 230 96h24v615h-1436v-615h24q140 0 226 -96z" />
</svg>
