<?xml version="1.0" standalone="no"?>
<!DOCTYPE svg PUBLIC "-//W3C//DTD SVG 1.1//EN" "http://www.w3.org/Graphics/SVG/1.1/DTD/svg11.dtd" >
<svg xmlns="http://www.w3.org/2000/svg" xmlns:xlink="http://www.w3.org/1999/xlink" version="1.1" width="2048" height="2048" viewBox="-10 0 2068 2048">
   <path fill="currentColor"
d="M1538 925q-14 -158 -83.5 -288t-182.5 -204.5t-248 -74.5t-248 74.5t-182.5 204.5t-83.5 288q-236 53 -373 147t-137 207t137 206.5t372.5 149t514.5 55.5t514.5 -55.5t372.5 -149t137 -206.5t-137 -207t-373 -147zM1327 1060q-303 29 -606 0q-5 -53 -5 -86
q0 -174 91.5 -294t216.5 -120t216.5 120t91.5 294q0 57 -5 86z" />
</svg>
