<?xml version="1.0" standalone="no"?>
<!DOCTYPE svg PUBLIC "-//W3C//DTD SVG 1.1//EN" "http://www.w3.org/Graphics/SVG/1.1/DTD/svg11.dtd" >
<svg xmlns="http://www.w3.org/2000/svg" xmlns:xlink="http://www.w3.org/1999/xlink" version="1.1" width="2048" height="2048" viewBox="-10 0 2068 2048">
   <path fill="currentColor"
d="M851 913q77 125 67.5 257.5t-103.5 190t-216.5 9.5t-202 -173t-67.5 -257t106 -190t216.5 -10t199.5 173zM1024 1615q91 0 159 -19q48 -14 77 -38l19 -20l-19 53q-29 58 -77 96q-68 53 -159 53t-159 -53q-48 -33 -77 -96q-19 -43 -19 -53l19 20q29 24 77 38q68 19 159 19
zM1615 750q92 58 104 190t-67.5 257t-202 173t-216.5 -9.5t-103.5 -190t67.5 -257.5t199.5 -173t218.5 10zM1024 1846q130 0 327 -151.5t336 -358.5q159 -230 159 -420t-110.5 -353.5t-300.5 -262t-411 -98.5t-411 98.5t-300.5 262t-110.5 353.5t159 420q139 207 336 358.5
t327 151.5zM1024 0q279 0 514.5 122.5t372.5 336.5t137 464q0 207 -166 476t-396 452q-250 197 -462 197t-462 -197q-230 -183 -396 -452t-166 -476q0 -250 137 -464t372.5 -336.5t514.5 -122.5z" />
</svg>
