<?xml version="1.0" standalone="no"?>
<!DOCTYPE svg PUBLIC "-//W3C//DTD SVG 1.1//EN" "http://www.w3.org/Graphics/SVG/1.1/DTD/svg11.dtd" >
<svg xmlns="http://www.w3.org/2000/svg" xmlns:xlink="http://www.w3.org/1999/xlink" version="1.1" width="2048" height="2048" viewBox="-10 0 2068 2048">
   <path fill="currentColor"
d="M2048 1255q0 -105 -65.5 -190t-165.5 -115q44 -79 44 -157q0 -109 -63.5 -194t-163.5 -115q39 -74 39 -157q0 -135 -93.5 -231t-228.5 -96h-654q-135 0 -228.5 96t-93.5 231q0 83 39 157q-100 30 -163.5 115t-63.5 194q0 78 44 157q-100 30 -165.5 115t-65.5 190
q0 87 43.5 159t113.5 115q-61 88 -61 192q0 135 93.5 231t228.5 96h1212q135 0 228.5 -96t93.5 -231q0 -104 -61 -192q70 -43 113.5 -115t43.5 -159zM697 187h654q56 0 97.5 41.5t41.5 98t-41.5 98t-97.5 41.5h-654q-56 0 -97.5 -41.5t-41.5 -98t41.5 -98t97.5 -41.5z
M514 654h1020q61 0 100 39t39 98t-39 100t-100 41h-1020q-61 0 -100 -41t-39 -100t39 -98t100 -39zM279 1721q0 -56 41.5 -97.5t97.5 -41.5h327v279h-327q-56 0 -97.5 -41.5t-41.5 -98.5zM1630 1861h-327v-279h327q56 0 97.5 41.5t41.5 98t-41.5 98t-97.5 41.5zM1721 1394
h-436q-30 -82 -102 -132.5t-159 -50.5t-159 50.5t-102 132.5h-436q-57 0 -98.5 -39t-41.5 -98t41.5 -100t98.5 -41h1394q57 0 98.5 41t41.5 100t-41.5 98t-98.5 39z" />
</svg>
