<?xml version="1.0" standalone="no"?>
<!DOCTYPE svg PUBLIC "-//W3C//DTD SVG 1.1//EN" "http://www.w3.org/Graphics/SVG/1.1/DTD/svg11.dtd" >
<svg xmlns="http://www.w3.org/2000/svg" xmlns:xlink="http://www.w3.org/1999/xlink" version="1.1" width="2048" height="2048" viewBox="-10 0 2058 2048">
   <path fill="currentColor"
d="M1024 1528q-86 0 -145.5 -60t-59.5 -146t59.5 -145.5t145.5 -59.5t145.5 59.5t59.5 145.5t-59.5 146t-145.5 60zM1024 812q134 0 291 43q182 42 291 114q129 91 129 201v520q0 124 -167 224v-759q0 -28 -83.5 -73.5t-202.5 -74.5q-134 -38 -258 -38t-258 38
q-119 29 -202.5 74.5t-83.5 73.5v549q0 19 45 50t122 60q48 -57 176 -95q106 -34 201 -34q129 0 253 53q153 57 153 152v82q-100 38 -210 57t-196 19t-196 -19t-210 -57q-138 -48 -215 -115q-90 -76 -90 -167v-520q0 -110 129 -201q109 -72 291 -114q157 -43 291 -43z
M1024 177q-76 0 -126.5 52.5t-50.5 126.5t50.5 126.5t126.5 52.5t126.5 -52.5t50.5 -126.5t-50.5 -126.5t-126.5 -52.5zM1024 711q-148 0 -253 -105t-105 -253t105 -250.5t253 -102.5t253 102.5t105 250.5t-105 253t-253 105z" />
</svg>
