<?xml version="1.0" standalone="no"?>
<!DOCTYPE svg PUBLIC "-//W3C//DTD SVG 1.1//EN" "http://www.w3.org/Graphics/SVG/1.1/DTD/svg11.dtd" >
<svg xmlns="http://www.w3.org/2000/svg" xmlns:xlink="http://www.w3.org/1999/xlink" version="1.1" width="2048" height="2048" viewBox="-10 0 2068 2048">
   <path fill="currentColor"
d="M1125 1385h413v-308l510 461l-510 462v-308h-413v-307zM1846 48h-1644q-82 0 -142 60t-60 147v1231q0 86 60 146t142 60h755q-34 -101 -34 -206q0 -202 120 -365.5t315 -223.5t387 9.5t303 237.5v-889q0 -87 -60 -147t-142 -60zM1846 462l-822 509l-822 -509v-207
l822 514l822 -514v207z" />
</svg>
