<?xml version="1.0" standalone="no"?>
<!DOCTYPE svg PUBLIC "-//W3C//DTD SVG 1.1//EN" "http://www.w3.org/Graphics/SVG/1.1/DTD/svg11.dtd" >
<svg xmlns="http://www.w3.org/2000/svg" xmlns:xlink="http://www.w3.org/1999/xlink" version="1.1" width="2048" height="2048" viewBox="-10 0 2068 2048">
   <path fill="currentColor"
d="M1819 0h-1590q-96 0 -162.5 66.5t-66.5 162.5v1590q0 96 66.5 162.5t162.5 66.5h1590q96 0 162.5 -66.5t66.5 -162.5v-1590q0 -96 -66.5 -162.5t-162.5 -66.5zM912 571h-229v224q0 96 -67 162.5t-163 66.5q96 0 163 66.5t67 162.5v224h229v230h-229q-96 0 -163 -67
t-67 -163v-112q0 -96 -66.5 -162.5t-157.5 -66.5v-224q91 0 157.5 -66.5t66.5 -162.5v-112q0 -96 67 -163t163 -67h229v230zM1819 1136q-91 0 -157.5 66.5t-66.5 162.5v112q0 96 -67 163t-163 67h-229v-230h229v-224q0 -96 67 -162.5t163 -66.5q-96 0 -163 -66.5t-67 -162.5
v-224h-229v-230h229q96 0 163 67t67 163v112q0 96 66.5 162.5t157.5 66.5v224z" />
</svg>
