<?xml version="1.0" standalone="no"?>
<!DOCTYPE svg PUBLIC "-//W3C//DTD SVG 1.1//EN" "http://www.w3.org/Graphics/SVG/1.1/DTD/svg11.dtd" >
<svg xmlns="http://www.w3.org/2000/svg" xmlns:xlink="http://www.w3.org/1999/xlink" version="1.1" width="2048" height="2048" viewBox="-10 0 2068 2048">
   <path fill="currentColor"
d="M1024 0q-279 0 -514.5 137t-372.5 372.5t-137 514.5t137 514.5t372.5 372.5t514.5 137t514.5 -137t372.5 -372.5t137 -514.5q0 -202 -77 -392t-221 -334t-334 -221t-392 -77zM663 615q68 0 111 43.5t43 108.5t-43 110.5t-108 45.5t-110.5 -45.5t-43.5 -108t45.5 -108.5
t105.5 -46zM1538 1433h-413q-111 0 -204.5 55t-151.5 151l-178 -101q87 -144 229 -225.5t305 -81.5h413v202zM1385 923q-68 0 -111 -45.5t-43 -110.5t43 -108.5t108 -43.5t110.5 43.5t43.5 108.5t-45.5 108t-105.5 48z" />
</svg>
