<?xml version="1.0" standalone="no"?>
<!DOCTYPE svg PUBLIC "-//W3C//DTD SVG 1.1//EN" "http://www.w3.org/Graphics/SVG/1.1/DTD/svg11.dtd" >
<svg xmlns="http://www.w3.org/2000/svg" xmlns:xlink="http://www.w3.org/1999/xlink" version="1.1" width="2048" height="2048" viewBox="-10 0 2068 2048">
   <path fill="currentColor"
d="M945 1182v472q0 98 -69.5 167t-166.5 69h-473q-98 0 -167 -69t-69 -167v-866q0 -128 50 -244.5t134.5 -201t201 -134.5t244.5 -50h79q32 0 55 23t23 55v158q0 32 -23 55t-55 23h-79q-85 0 -157.5 42.5t-115 115t-42.5 158.5v39q0 50 34.5 84t83.5 34h276q97 0 166.5 69.5
t69.5 167.5zM2048 1182v472q0 98 -69.5 167t-167.5 69h-473q-97 0 -166 -69t-69 -167v-866q0 -128 50 -244.5t134.5 -201t201 -134.5t244.5 -50h78q32 0 55.5 23t23.5 55v158q0 32 -23.5 55t-55.5 23h-78q-86 0 -158.5 42.5t-114.5 115t-42 158.5v39q0 50 34 84t83 34h276
q98 0 167.5 69.5t69.5 167.5z" />
</svg>
