<?xml version="1.0" standalone="no"?>
<!DOCTYPE svg PUBLIC "-//W3C//DTD SVG 1.1//EN" "http://www.w3.org/Graphics/SVG/1.1/DTD/svg11.dtd" >
<svg xmlns="http://www.w3.org/2000/svg" xmlns:xlink="http://www.w3.org/1999/xlink" version="1.1" width="2048" height="2048" viewBox="-10 0 2068 2048">
   <path fill="currentColor"
d="M1846 1024q0 -250 -139.5 -456.5t-370 -300.5t-473.5 -46t-418.5 223.5t-223.5 418.5t46 473.5t300.5 370t456.5 139.5q221 0 411 -110.5t300.5 -300.5t110.5 -411zM2048 1024q0 279 -137 514.5t-372.5 372.5t-514.5 137t-514.5 -137t-372.5 -372.5t-137 -514.5
t137 -514.5t372.5 -372.5t514.5 -137q202 0 392 77t334 221t221 334t77 392zM1385 615q62 0 107.5 43.5t45.5 108.5t-45.5 110.5t-110.5 45.5t-108 -45.5t-43 -108t45.5 -108.5t108.5 -46zM817 769q0 63 -43 108.5t-108 45.5t-110.5 -45.5t-45.5 -110.5t45.5 -108.5
t108 -43.5t108 46t45.5 108zM1538 1332h-413q-111 0 -204.5 55t-151.5 151l-178 -105q87 -140 229 -224t305 -84h413v207z" />
</svg>
