<?xml version="1.0" standalone="no"?>
<!DOCTYPE svg PUBLIC "-//W3C//DTD SVG 1.1//EN" "http://www.w3.org/Graphics/SVG/1.1/DTD/svg11.dtd" >
<svg xmlns="http://www.w3.org/2000/svg" xmlns:xlink="http://www.w3.org/1999/xlink" version="1.1" width="2048" height="2048" viewBox="-10 0 2058 2048">
   <path fill="currentColor"
d="M1739 206h-427q-34 -91 -113 -148.5t-175 -57.5t-175 57.5t-113 148.5h-427q-86 0 -146 60t-60 146v1430q0 86 60 146t146 60h1430q86 0 146 -60t60 -146v-1430q0 -86 -60 -146t-146 -60zM1024 206q43 0 72 31.5t29 72t-29 71.5t-72 31t-72 -31t-29 -71.5t29 -72
t72 -31.5zM511 614h1026v-202h202v1430h-1430v-1430h202v202zM1024 1640v-206h513v206h-513zM1024 1026v-206h513v206h-513zM616 1127v-307h-105v-101h206v408h-101zM741 1333q34 0 55.5 22t21.5 53t-19 55l-173 177h192v101h-307v-96l206 -211h-206v-101h230z" />
</svg>
