<?xml version="1.0" standalone="no"?>
<!DOCTYPE svg PUBLIC "-//W3C//DTD SVG 1.1//EN" "http://www.w3.org/Graphics/SVG/1.1/DTD/svg11.dtd" >
<svg xmlns="http://www.w3.org/2000/svg" xmlns:xlink="http://www.w3.org/1999/xlink" version="1.1" width="2048" height="2048" viewBox="-10 0 2068 2048">
   <path fill="currentColor"
d="M1846 1639h-1644v-1024h1644v1024zM1846 409h-822l-207 -207h-615q-82 0 -142 60t-60 147v1230q0 87 60 147t142 60h1644q82 0 142 -60t60 -147v-1024q0 -86 -60 -146t-142 -60zM1106 1024q-29 -91 -108.5 -149t-180.5 -58q-130 0 -218.5 89t-88.5 221.5t88.5 219
t218.5 86.5q101 0 180.5 -55.5t108.5 -146.5h226v202h206v-202h202v-207h-634zM817 1231q-43 0 -72 -29t-29 -74.5t29 -74.5t74.5 -29t74.5 29t29 74.5t-29 74.5t-77 29z" />
</svg>
