<?xml version="1.0" standalone="no"?>
<!DOCTYPE svg PUBLIC "-//W3C//DTD SVG 1.1//EN" "http://www.w3.org/Graphics/SVG/1.1/DTD/svg11.dtd" >
<svg xmlns="http://www.w3.org/2000/svg" xmlns:xlink="http://www.w3.org/1999/xlink" version="1.1" width="2048" height="2048" viewBox="-10 0 2058 2048">
   <path fill="currentColor"
d="M1954 651q-109 4 -205 -53q-78 -43 -166 -39v-96q109 0 206 52q78 44 165 44v92zM1954 371q-87 5 -165 -43q-97 -53 -206 -49v92q88 -4 166 44q96 52 205 48v-92zM1954 742q-87 5 -165 -39q-97 -57 -206 -52v91q88 0 166 44q96 52 205 52v-96zM837 1000q331 -66 655 -162
v-655l-171 -48q-196 -52 -362 -87q-232 -48 -354 -48q-192 0 -336 126.5t-170.5 319t83 351.5t297.5 207l78 577h96q5 70 39.5 126.5t98 93.5t100.5 102.5t42 144.5h91q0 -96 -48 -183.5t-131 -139.5q-52 -44 -74 -66q-26 -35 -26 -78h92v-581zM605 742q-96 0 -163.5 -67.5
t-67.5 -163.5t67.5 -164t163.5 -68t164 68t68 164t-68 163.5t-164 67.5z" />
</svg>
