<?xml version="1.0" standalone="no"?>
<!DOCTYPE svg PUBLIC "-//W3C//DTD SVG 1.1//EN" "http://www.w3.org/Graphics/SVG/1.1/DTD/svg11.dtd" >
<svg xmlns="http://www.w3.org/2000/svg" xmlns:xlink="http://www.w3.org/1999/xlink" version="1.1" width="2048" height="2048" viewBox="-10 0 2058 2048">
   <path fill="currentColor"
d="M990 2048q123 0 195.5 -103t72.5 -289q0 -288 -42 -536l688 -1120h-399l-378 701l-21 -69q-103 -288 -206 -433q-151 -199 -364 -199q-144 0 -247 76q-145 123 -145 433h131q14 -83 48 -145q55 -96 151 -96q172 0 296 275q68 165 165 543q-207 495 -207 666
q0 117 69 206.5t193 89.5z" />
</svg>
