<?xml version="1.0" standalone="no"?>
<!DOCTYPE svg PUBLIC "-//W3C//DTD SVG 1.1//EN" "http://www.w3.org/Graphics/SVG/1.1/DTD/svg11.dtd" >
<svg xmlns="http://www.w3.org/2000/svg" xmlns:xlink="http://www.w3.org/1999/xlink" version="1.1" width="2048" height="2048" viewBox="-10 0 2058 2048">
   <path fill="currentColor"
d="M1395 405l165 -233l-62 -48q-75 -48 -172 -83q-123 -41 -268 -41q-288 0 -474 165q-172 165 -172 385q0 172 131 316q62 76 124 110l-48 27q-55 28 -104 76q-68 62 -103 144q-48 110 -48 241q0 275 200 440q178 144 449.5 144t498.5 -144q110 -69 172 -138l-206 -227
l-62 49q-83 61 -165 96q-117 55 -213 55q-193 0 -282 -103q-69 -76 -69 -186q0 -144 83 -220q123 -110 446 -110v-275h-75q-96 0 -172 -20q-110 -28 -172 -83q-75 -75 -75 -192q0 -151 116 -220q90 -48 207 -48q151 0 261 62q62 27 89 61z" />
</svg>
