<?xml version="1.0" standalone="no"?>
<!DOCTYPE svg PUBLIC "-//W3C//DTD SVG 1.1//EN" "http://www.w3.org/Graphics/SVG/1.1/DTD/svg11.dtd" >
<svg xmlns="http://www.w3.org/2000/svg" xmlns:xlink="http://www.w3.org/1999/xlink" version="1.1" width="2048" height="2048" viewBox="-10 0 2068 2048">
   <path fill="currentColor"
d="M945 394v866q0 128 -50 244.5t-134.5 201t-201 134.5t-244.5 50h-79q-32 0 -55.5 -23t-23.5 -55v-158q0 -32 23.5 -55.5t55.5 -23.5h79q131 0 223 -92.5t92 -222.5v-39q0 -50 -34.5 -84t-84.5 -34h-275q-98 0 -167 -69.5t-69 -167.5v-472q0 -98 69 -167t167 -69h473
q97 0 166.5 69t69.5 167zM2048 394v866q0 128 -50 244.5t-134.5 201t-201 134.5t-244.5 50h-80q-32 0 -55 -23t-23 -55v-158q0 -32 23 -55.5t55 -23.5h80q130 0 222.5 -92.5t92.5 -222.5v-39q0 -50 -35 -84t-84 -34h-276q-97 0 -166 -69.5t-69 -167.5v-472q0 -98 69 -167
t166 -69h473q98 0 167.5 69t69.5 167z" />
</svg>
