<?xml version="1.0" standalone="no"?>
<!DOCTYPE svg PUBLIC "-//W3C//DTD SVG 1.1//EN" "http://www.w3.org/Graphics/SVG/1.1/DTD/svg11.dtd" >
<svg xmlns="http://www.w3.org/2000/svg" xmlns:xlink="http://www.w3.org/1999/xlink" version="1.1" width="2048" height="2048" viewBox="-10 0 2068 2048">
   <path fill="currentColor"
d="M1219 1174h-23q-14 9 -18.5 23t0.5 28l83 210q131 -84 177 -224zM875 1202q-9 -28 -37 -28l-228 37q51 140 177 219l83 -205q5 -4 5 -23zM1057 1281q-10 -9 -24 -13.5t-28 -0.5v5q-9 5 -14 9l-111 196q121 42 242 14q23 -5 46 -14zM1401 830l-168 144v5q-14 9 -14 25.5
t9.5 25.5t18.5 14l219 60q9 -153 -65 -274zM1089 844q0 18 11.5 27.5t25.5 9.5t24 -5l181 -130q-102 -103 -251 -121zM898 876q14 10 28 7.5t21 -14t12 -21.5l9 -223l-42 5q-125 27 -214 116zM801 1044q14 -5 21 -19t4.5 -25.5t-11.5 -20.5l-168 -154q-79 135 -61 279z
M963 1109l61 33l61 -33l13 -65l-41 -51h-66l-46 51zM2043 1239l-177 -758q-13 -66 -69 -94l-712 -344q-61 -23 -122 0l-712 344q-56 28 -69 94l-177 758q-10 33 0 61l4 18q5 14 14 24l498 628q5 0 5 5l28 23q19 9 42 14q9 5 32 5h806h14l46 -19q14 -9 33 -28l488 -614
q14 -19 24 -38l4 -18q10 -28 0 -61zM1308 1537q0 14 5 19q-5 14 -5 23q23 47 42 70l23 32l5 14q4 14 2 30.5t-18.5 26t-32.5 4.5t-26 -19l-9 -18l-14 -47q-19 -42 -28 -65q-9 -9 -23 -14l-5 -14q-200 75 -395 0l-10 14q-14 5 -18 9q-19 33 -33 79l-14 38l-5 9
q-4 19 -20.5 26t-32.5 2t-25.5 -21t-0.5 -35v-5q5 -4 5 -14l23 -32q23 -33 42 -70q0 -14 -5 -23l10 -19q-182 -107 -247 -307l-19 5q-14 -10 -23 -10q-28 5 -79 19q-14 9 -37 19h-10q-18 4 -34.5 -3t-21 -23t2.5 -32.5t26 -21.5l18 -4q14 -5 42 -5t79 -14q9 -5 19 -18l18 -5
q-32 -205 84 -382l-14 -14q0 -14 -9 -23q-28 -28 -61 -47l-37 -18l-9 -10q-14 -9 -18.5 -27.5t9.5 -35t32.5 -14t32.5 11.5l32 38q33 32 61 51q9 4 23 4l19 10q111 -121 274 -159q38 -9 79 -13v-19q10 -5 14 -19q0 -37 -4 -79q-5 -18 -5 -42v-9q0 -19 9.5 -33t28 -16
t32.5 9.5t14 30.5v18q0 24 -5 42q-4 42 -4 79q0 14 14 19v19q209 18 353 172l14 -14q14 4 28 0q33 -24 56 -51l28 -33l9 -5q14 -14 32.5 -14t30.5 14t12 30.5t-14 30.5l-5 4l-9 10q-14 9 -37 18q-38 24 -61 47q-9 9 -9 23l-14 14q116 172 84 382l18 5q10 13 19 18
q32 9 79 14h42q0 5 9 5q19 4 30.5 18t7 30.5t-16.5 28t-30 7.5l-23 -5q-19 -5 -33 -14q-42 -14 -79 -19q-14 0 -23 5h-19q-28 93 -93 174.5t-149 132.5z" />
</svg>
