<?xml version="1.0" standalone="no"?>
<!DOCTYPE svg PUBLIC "-//W3C//DTD SVG 1.1//EN" "http://www.w3.org/Graphics/SVG/1.1/DTD/svg11.dtd" >
<svg xmlns="http://www.w3.org/2000/svg" xmlns:xlink="http://www.w3.org/1999/xlink" version="1.1" width="2048" height="2048" viewBox="-10 0 2068 2048">
   <path fill="currentColor"
d="M1861 96h-1674q-78 0 -132.5 54.5t-54.5 128.5v1490q0 74 54.5 128.5t132.5 54.5h1674q78 0 132.5 -54.5t54.5 -128.5v-1490q0 -74 -54.5 -128.5t-132.5 -54.5zM932 932h-187v140q0 74 -54.5 128.5t-132.5 54.5q78 0 132.5 54.5t54.5 132.5v140h187v187h-187
q-78 0 -132.5 -54.5t-54.5 -132.5v-48q0 -74 -54.5 -128.5t-128.5 -54.5v-188q74 0 128.5 -54t54.5 -133v-44q0 -78 54.5 -132.5t132.5 -54.5h187v187zM1673 1351q-74 0 -128.5 54.5t-54.5 128.5v48q0 78 -54.5 132.5t-132.5 54.5h-187v-187h187v-140q0 -78 54.5 -132.5
t132.5 -54.5q-78 0 -132.5 -54.5t-54.5 -128.5v-140h-187v-187h187q78 0 132.5 54.5t54.5 132.5v44q0 79 54.5 133t128.5 54v188zM1861 558h-1674v-279h1674v279z" />
</svg>
