<?xml version="1.0" standalone="no"?>
<!DOCTYPE svg PUBLIC "-//W3C//DTD SVG 1.1//EN" "http://www.w3.org/Graphics/SVG/1.1/DTD/svg11.dtd" >
<svg xmlns="http://www.w3.org/2000/svg" xmlns:xlink="http://www.w3.org/1999/xlink" version="1.1" width="2048" height="2048" viewBox="-10 0 2058 2048">
   <path fill="currentColor"
d="M1394 1769q266 -144 410 -331q148 -192 148 -414q0 -183 -98 -348.5t-281 -300.5h-9q175 196 175 462q0 196 -109 361q-92 135 -279 275l-235 148v-100l187 -127l-13 -39q-13 -48 -26 -104q143 -61 230.5 -185.5t87.5 -272.5t-85 -272t-225 -190l31 -144l-279 -187
l-279 187l31 144q-140 66 -225 190t-85 272t87.5 272.5t230.5 185.5q-21 91 -39 143l187 127v100l-235 -148q-187 -140 -279 -275q-109 -165 -109 -361q0 -266 175 -462h-5q-183 135 -283 300.5t-100 348.5q0 222 148 414q144 187 410 331l91 -139l179 113l-331 209l61 96
l278 -183v183h184v-183l278 183l61 -96l-331 -209l179 -113zM1464 793q0 109 -61 198.5t-165 141.5q-27 -161 -27 -296q0 -153 40 -384q95 52 154 141.5t59 198.5zM584 793q0 -109 59 -198.5t159 -141.5q35 235 35 384q0 135 -27 296q-104 -52 -165 -141.5t-61 -198.5z" />
</svg>
