<?xml version="1.0" standalone="no"?>
<!DOCTYPE svg PUBLIC "-//W3C//DTD SVG 1.1//EN" "http://www.w3.org/Graphics/SVG/1.1/DTD/svg11.dtd" >
<svg xmlns="http://www.w3.org/2000/svg" xmlns:xlink="http://www.w3.org/1999/xlink" version="1.1" width="2048" height="2048" viewBox="-10 0 2058 2048">
   <path fill="currentColor"
d="M837 1000q331 -66 655 -162v-655l-171 -48q-196 -52 -362 -87q-232 -48 -354 -48q-192 0 -336 126.5t-170.5 319t83 351.5t297.5 207l78 577h96q5 70 39.5 126.5t98 93.5t100.5 102.5t42 144.5h91q0 -96 -48 -183.5t-131 -139.5q-52 -44 -74 -66q-26 -35 -26 -78h92v-581
zM278 511q0 -135 96 -231.5t231 -96.5q358 35 699 140v376q-341 104 -699 139q-135 0 -231 -96t-96 -231zM1954 651q-109 4 -205 -53q-78 -43 -166 -39v-96q109 0 206 52q78 44 165 44v92zM1954 371q-87 5 -165 -43q-97 -53 -206 -49v92q88 -4 166 44q96 52 205 48v-92z
M1954 742q-87 5 -165 -39q-97 -57 -206 -52v91q88 0 166 44q96 52 205 52v-96zM745 511q0 57 -41.5 98.5t-98.5 41.5t-98.5 -41.5t-41.5 -98.5t41.5 -98.5t98.5 -41.5t98.5 41.5t41.5 98.5z" />
</svg>
