<?xml version="1.0" standalone="no"?>
<!DOCTYPE svg PUBLIC "-//W3C//DTD SVG 1.1//EN" "http://www.w3.org/Graphics/SVG/1.1/DTD/svg11.dtd" >
<svg xmlns="http://www.w3.org/2000/svg" xmlns:xlink="http://www.w3.org/1999/xlink" version="1.1" width="2048" height="2048" viewBox="-10 0 2068 2048">
   <path fill="currentColor"
d="M1852 1512q82 0 139 57t57 135l-780 292l-684 -192v-876h191l707 260q78 32 78 110q0 45 -34 79.5t-85 34.5h-273l-169 -64l-32 91l201 73h684zM1460 171q105 -119 264 -119q132 0 223.5 96t95.5 224q0 100 -95.5 239t-191.5 232.5t-296 276.5q-201 -183 -297 -276.5
t-191.5 -232.5t-95.5 -239q0 -133 95.5 -224t228.5 -96q155 0 260 119zM0 928h392v1068h-392v-1068z" />
</svg>
