<?xml version="1.0" standalone="no"?>
<!DOCTYPE svg PUBLIC "-//W3C//DTD SVG 1.1//EN" "http://www.w3.org/Graphics/SVG/1.1/DTD/svg11.dtd" >
<svg xmlns="http://www.w3.org/2000/svg" xmlns:xlink="http://www.w3.org/1999/xlink" version="1.1" width="2048" height="2048" viewBox="-10 0 2068 2048">
   <path fill="currentColor"
d="M1861 96h-1674q-78 0 -132.5 54.5t-54.5 128.5v1490q0 74 54.5 128.5t132.5 54.5h1674q78 0 132.5 -54.5t54.5 -128.5v-1490q0 -74 -54.5 -128.5t-132.5 -54.5zM1861 1769h-1674v-1303h1674v1303zM1360 654q104 91 163 211t59 250.5t-59 252.5t-163 214l-149 -57
q88 -65 135.5 -176t47.5 -231t-47.5 -231t-135.5 -181zM688 654l149 52q-88 70 -135.5 181t-47.5 231t47.5 231t135.5 176l-149 57q-104 -92 -163 -214t-59 -252.5t59 -250.5t163 -211z" />
</svg>
