<?xml version="1.0" standalone="no"?>
<!DOCTYPE svg PUBLIC "-//W3C//DTD SVG 1.1//EN" "http://www.w3.org/Graphics/SVG/1.1/DTD/svg11.dtd" >
<svg xmlns="http://www.w3.org/2000/svg" xmlns:xlink="http://www.w3.org/1999/xlink" version="1.1" width="2048" height="2048" viewBox="-10 0 2068 2048">
   <path fill="currentColor"
d="M1861 96h-1674q-78 0 -132.5 54.5t-54.5 128.5v1490q0 74 54.5 128.5t132.5 54.5h1674q78 0 132.5 -54.5t54.5 -128.5v-1490q0 -74 -54.5 -128.5t-132.5 -54.5zM1861 1769h-1674v-1303h1674v1303zM745 654q-78 0 -132.5 54.5t-54.5 130.5t-54.5 130.5t-128.5 54.5v187
q74 0 128.5 54.5t54.5 131t54.5 131t132.5 54.5h187v-188h-187v-91q0 -79 -54.5 -133t-132.5 -54q78 0 132.5 -54.5t54.5 -129.5v-95h187v-183h-187zM1303 654q78 0 132.5 54.5t54.5 130.5t54.5 130.5t128.5 54.5v187q-74 0 -128.5 54.5t-54.5 131t-54.5 131t-132.5 54.5
h-187v-188h187v-91q0 -79 54.5 -133t132.5 -54q-78 0 -132.5 -54.5t-54.5 -129.5v-95h-187v-183h187z" />
</svg>
