<?xml version="1.0" standalone="no"?>
<!DOCTYPE svg PUBLIC "-//W3C//DTD SVG 1.1//EN" "http://www.w3.org/Graphics/SVG/1.1/DTD/svg11.dtd" >
<svg xmlns="http://www.w3.org/2000/svg" xmlns:xlink="http://www.w3.org/1999/xlink" version="1.1" width="2048" height="2048" viewBox="-10 0 2068 2048">
   <path fill="currentColor"
d="M1861 96h-1674q-78 0 -132.5 54.5t-54.5 128.5v1490q0 74 54.5 128.5t132.5 54.5h1674q78 0 132.5 -54.5t54.5 -128.5v-1490q0 -74 -54.5 -128.5t-132.5 -54.5zM1861 1769h-1674v-1303h1674v1303zM1451 654q105 91 163.5 211t58.5 250.5t-58.5 252.5t-163.5 214l-148 -57
q87 -65 137 -176t50 -231t-50 -231t-137 -181zM597 654l148 52q-87 70 -137 181t-50 231t50 231t137 176l-148 57q-105 -92 -163.5 -214t-58.5 -252.5t58.5 -250.5t163.5 -211zM1033 1024l130 -187h140l-205 279l122 278h-122l-74 -183l-131 183h-148l214 -287l-122 -270
h122z" />
</svg>
