<?xml version="1.0" standalone="no"?>
<!DOCTYPE svg PUBLIC "-//W3C//DTD SVG 1.1//EN" "http://www.w3.org/Graphics/SVG/1.1/DTD/svg11.dtd" >
<svg xmlns="http://www.w3.org/2000/svg" xmlns:xlink="http://www.w3.org/1999/xlink" version="1.1" width="2048" height="2048" viewBox="-11 0 2070 2048">
   <path fill="currentColor"
d="M2029 1624l-590 -1056l-10 -9q-43 -53 -95.5 -53t-95.5 62l-77 125l-207 -370q-9 -19 -28 -38q-34 -29 -72 -29q-63 0 -96 67l-739 1296q-34 67 -7.5 120t112.5 53h1809q77 0 103.5 -55.5t-7.5 -112.5zM628 1619l-14 53h-485l729 -1281l236 422zM739 1672l422 -734
l427 734h-849zM1717 1672l-19 -53l-465 -806l105 -178l586 1037h-207z" />
</svg>
