<?xml version="1.0" standalone="no"?>
<!DOCTYPE svg PUBLIC "-//W3C//DTD SVG 1.1//EN" "http://www.w3.org/Graphics/SVG/1.1/DTD/svg11.dtd" >
<svg xmlns="http://www.w3.org/2000/svg" xmlns:xlink="http://www.w3.org/1999/xlink" version="1.1" width="2048" height="2048" viewBox="-10 0 2068 2048">
   <path fill="currentColor"
d="M226 0q-96 0 -161 65t-65 161v1596q0 91 67.5 158.5t158.5 67.5h1596q96 0 161 -65t65 -161v-1596q0 -91 -67.5 -158.5t-158.5 -67.5h-1596zM1024 202q221 0 411 110.5t300.5 300.5t110.5 411t-110.5 411t-300.5 300.5t-411 110.5t-411 -110.5t-300.5 -300.5t-110.5 -411
t110.5 -411t300.5 -300.5t411 -110.5zM1024 409q-62 0 -108 45.5t-46 108t46 108t108 45.5t108 -45.5t46 -108t-46 -108t-108 -45.5zM562 870q-62 0 -107.5 46t-45.5 108t45.5 108t108 46t108 -46t45.5 -108t-45.5 -108t-108.5 -46zM1486 870q-63 0 -108.5 46t-45.5 108
t45.5 108t108 46t108 -46t45.5 -108t-45.5 -108t-107.5 -46z" />
</svg>
