<?xml version="1.0" standalone="no"?>
<!DOCTYPE svg PUBLIC "-//W3C//DTD SVG 1.1//EN" "http://www.w3.org/Graphics/SVG/1.1/DTD/svg11.dtd" >
<svg xmlns="http://www.w3.org/2000/svg" xmlns:xlink="http://www.w3.org/1999/xlink" version="1.1" width="2048" height="2048" viewBox="-10 0 2068 2048">
   <path fill="currentColor"
d="M814 1105q24 30 21.5 68.5t-29 65.5t-65.5 31.5t-73 -19.5q-73 -73 -114 -167.5t-41 -196.5t41 -197t114 -168l365 -369q102 -102 235 -136q67 -17 134 -17t133 17q134 34 233.5 133.5t133.5 233t0 267.5t-136 236l-155 155q5 -126 -39 -248l53 -53q83 -92 83 -221
t-83 -226q-97 -83 -225.5 -83t-221.5 83l-364 374q-92 92 -92 221t92 216zM1397 1135q24 -127 -15 -251t-131 -216q-34 -24 -73 -19t-65.5 31.5t-29 65.5t21.5 68q93 87 93 216t-93 221l-364 374q-92 83 -221 83t-226 -83q-83 -97 -83 -225.5t83 -221.5l53 -43
q-43 -127 -38 -258l-156 156q-102 102 -136 235.5t0 267t133.5 233t233 133.5t267.5 0t236 -136l184 -184q25 -141 110 -260t216 -187zM1902 1324l-218 214l-214 -214l-146 146l214 214l-214 218l146 146l214 -219l218 219l146 -146l-219 -218l219 -214z" />
</svg>
