<?xml version="1.0" standalone="no"?>
<!DOCTYPE svg PUBLIC "-//W3C//DTD SVG 1.1//EN" "http://www.w3.org/Graphics/SVG/1.1/DTD/svg11.dtd" >
<svg xmlns="http://www.w3.org/2000/svg" xmlns:xlink="http://www.w3.org/1999/xlink" version="1.1" width="2048" height="2048" viewBox="-10 0 2068 2048">
   <path fill="currentColor"
d="M1170 146q-237 0 -438.5 116.5t-320 320t-118.5 441.5h-293l393 389l389 -389h-293q0 -187 91.5 -342.5t247 -247t343 -91.5t345 91.5t249 247t91.5 342.5t-91.5 342.5t-249 247t-345.5 91.5q-137 0 -262.5 -52.5t-212.5 -148.5l-137 133q119 128 276.5 196.5t335.5 68.5
q243 0 444 -116.5t317.5 -320t116.5 -441.5t-116.5 -441.5t-317.5 -320t-444 -116.5zM1074 1317h197v196h-197v-196zM1074 535h197v585h-197v-585z" />
</svg>
