<?xml version="1.0" standalone="no"?>
<!DOCTYPE svg PUBLIC "-//W3C//DTD SVG 1.1//EN" "http://www.w3.org/Graphics/SVG/1.1/DTD/svg11.dtd" >
<svg xmlns="http://www.w3.org/2000/svg" xmlns:xlink="http://www.w3.org/1999/xlink" version="1.1" width="2048" height="2048" viewBox="-10 0 2058 2048">
   <path fill="currentColor"
d="M585 1653q0 62 -44 106.5t-107 44.5t-107.5 -44.5t-44.5 -106.5q0 -63 44.5 -108t107.5 -45t107 45t44 108zM1175 1896.5q0 63.5 -44 107.5t-107 44t-107 -44t-44 -107.5t44 -107.5t107 -44t107 44t44 107.5zM341 1062q0 63 -44.5 107.5t-107.5 44.5t-107.5 -44.5
t-44.5 -107.5t44.5 -107.5t107.5 -44.5t107.5 44.5t44.5 107.5zM1766 1653q0 62 -44.5 106.5t-107.5 44.5t-107 -44.5t-44 -106.5q0 -63 44 -108t107 -45t107.5 45t44.5 108zM624 471.5q0 78.5 -56 134t-134.5 55.5t-134 -55.5t-55.5 -134t55.5 -134t134 -55.5t134.5 55.5
t56 134zM2011 1062q0 63 -44.5 107.5t-107.5 44.5t-107.5 -44.5t-44.5 -107.5t44.5 -107.5t107.5 -44.5t107.5 44.5t44.5 107.5zM1251 227q0 94 -66.5 160.5t-160.5 66.5t-160.5 -66.5t-66.5 -160.5t66.5 -160.5t160.5 -66.5t160.5 66.5t66.5 160.5zM1880 471q0 110 -78 188
t-188 78t-187.5 -77.5t-77.5 -188.5q0 -110 77.5 -188t187.5 -78t188 78t78 188z" />
</svg>
