<?xml version="1.0" standalone="no"?>
<!DOCTYPE svg PUBLIC "-//W3C//DTD SVG 1.1//EN" "http://www.w3.org/Graphics/SVG/1.1/DTD/svg11.dtd" >
<svg xmlns="http://www.w3.org/2000/svg" xmlns:xlink="http://www.w3.org/1999/xlink" version="1.1" width="2048" height="2048" viewBox="-10 0 2068 2048">
   <path fill="currentColor"
d="M226 0q-96 0 -161 65t-65 161v1596q0 91 67.5 158.5t158.5 67.5h1596q96 0 161 -65t65 -161v-1596q0 -91 -67.5 -158.5t-158.5 -67.5h-1596zM923 212v197h202v-197q202 24 368 139t259.5 293t93.5 380t-93.5 380t-259.5 293t-368 139v-197h-202v197q-202 -24 -368 -139
t-259.5 -293t-93.5 -380t93.5 -380t259.5 -293t368 -139zM562 870q-62 0 -107.5 46t-45.5 108t45.5 108t108 46t108 -46t45.5 -108t-45.5 -108t-108.5 -46zM1486 870q-63 0 -108.5 46t-45.5 108t45.5 108t108 46t108 -46t45.5 -108t-45.5 -108t-107.5 -46z" />
</svg>
