<?xml version="1.0" standalone="no"?>
<!DOCTYPE svg PUBLIC "-//W3C//DTD SVG 1.1//EN" "http://www.w3.org/Graphics/SVG/1.1/DTD/svg11.dtd" >
<svg xmlns="http://www.w3.org/2000/svg" xmlns:xlink="http://www.w3.org/1999/xlink" version="1.1" width="2048" height="2048" viewBox="-10 0 2068 2048">
   <path fill="currentColor"
d="M808 687l-500 871l-116 -197l135 -236h-269l-58 -101l58 -101h379l135 -236h236zM841 1385h995l-115 192h-264l129 235l-57 106h-116l-182 -341h-279zM1423 1005l-500 -875h226l130 235l134 -235h116l57 106l-192 326l144 236zM1207 663h-1005l115 -192h265l-130 -235
l58 -106h115l192 332h279zM1240 1361l500 -871l116 197l-135 236h269l58 101l-58 101h-379l-135 236h-236zM625 1043l500 861h-226l-130 -236l-115 236h-135l-57 -101l192 -327l-144 -226z" />
</svg>
