<?xml version="1.0" standalone="no"?>
<!DOCTYPE svg PUBLIC "-//W3C//DTD SVG 1.1//EN" "http://www.w3.org/Graphics/SVG/1.1/DTD/svg11.dtd" >
<svg xmlns="http://www.w3.org/2000/svg" xmlns:xlink="http://www.w3.org/1999/xlink" version="1.1" width="2048" height="2048" viewBox="-10 0 2068 2048">
   <path fill="currentColor"
d="M1750 1327l298 -303l-298 -303v-423h-423l-303 -298l-303 298h-423v423l-298 303l298 303v423h423l303 298l303 -298h423v-423zM1990 1024l-240 240v-192h-553l-48 -48l48 -48h553v-192zM1707 1308l-140 134l-327 -327h467v193zM1072 1135l-48 -44l-48 44v-63h-63l44 -48
l-44 -48h63v-63l48 44l48 -44v63h63l-44 48l44 48h-63v63zM1240 933l327 -327l140 134v193h-467zM1707 341v342l-140 -140l-389 390h-63v-63l390 -389l-140 -140h342zM1115 808v-467h193l134 140zM1024 58l240 240h-192v553l-48 48l-48 -48v-553h-192zM933 808l-327 -327
l134 -140h193v467zM341 341h342l-140 140l390 389v63h-63l-389 -390l-140 140v-342zM341 740l140 -134l327 327h-467v-193zM58 1024l240 -240v192h553l48 48l-48 48h-553v192zM808 1115l-327 327l-140 -134v-193h467zM341 1707v-342l140 140l389 -390h63v63l-390 389
l140 140h-342zM933 1240v467h-193l-134 -140zM1024 1990l-240 -240h192v-553l48 -48l48 48v553h192zM1115 1240l327 327l-134 140h-193v-467zM1365 1707l140 -140l-390 -389v-63h63l389 390l140 -140v342h-342z" />
</svg>
