<?xml version="1.0" standalone="no"?>
<!DOCTYPE svg PUBLIC "-//W3C//DTD SVG 1.1//EN" "http://www.w3.org/Graphics/SVG/1.1/DTD/svg11.dtd" >
<svg xmlns="http://www.w3.org/2000/svg" xmlns:xlink="http://www.w3.org/1999/xlink" version="1.1" width="2048" height="2048" viewBox="-10 0 2068 2048">
   <path fill="currentColor"
d="M1364 148q-64 0 -108 44t-44 108t44 108t108 44t110 -44t46 -108t-46 -108t-110 -44zM1060 392q-64 0 -104 44l-316 316q-44 44 -44 104q0 80 72 124l288 172v428h152v-556l-192 -140l200 -200l148 212h356v-152h-272l-164 -280q-20 -32 -54 -52t-70 -20zM852 300h-596
q-36 0 -60 -26t-24 -60t24 -60t60 -26h836q-32 48 -40 96q-112 4 -200 76zM428 1068q-116 0 -214 58t-156 156t-58 214t58 214t156 154t214 56t214 -56t154 -154t56 -214t-56 -214t-154 -156t-214 -58zM428 1792q-124 0 -212 -86t-88 -210t88 -212t212 -88t210 88t86 212
t-86 210t-210 86zM1620 1068q-116 0 -214 58t-154 156t-56 214t56 214t154 154t214 56t214 -56t156 -154t58 -214t-58 -214t-156 -156t-214 -58zM1620 1792q-124 0 -210 -86t-86 -210t86 -212t210 -88t212 88t88 212t-88 210t-212 86zM452 984h-368q-32 0 -58 -26t-26 -60
t26 -60t58 -26h348l-4 44q0 64 24 128zM512 640h-340q-36 0 -62 -24t-26 -60t26 -60t62 -24h508l-160 160q-8 4 -8 8z" />
</svg>
