<?xml version="1.0" standalone="no"?>
<!DOCTYPE svg PUBLIC "-//W3C//DTD SVG 1.1//EN" "http://www.w3.org/Graphics/SVG/1.1/DTD/svg11.dtd" >
<svg xmlns="http://www.w3.org/2000/svg" xmlns:xlink="http://www.w3.org/1999/xlink" version="1.1" width="2048" height="2048" viewBox="-10 0 2068 2048">
   <path fill="currentColor"
d="M1365 1144q135 0 217 -33q115 -49 115 -159q0 -15 -5 -34l-77 -351q-14 -62 -43 -91q-34 -39 -125 -84.5t-216 -93.5q-140 -48 -188 -48q-29 0 -72 38.5t-81.5 38.5t-101 -29t-91.5 -29q-91 0 -139 135l-106 293v19q0 58 120 154q135 111 322 183q231 91 471 91z
M1716 1019q20 87 20 106q0 115 -108.5 177.5t-281.5 62.5q-240 0 -471 -86q-207 -77 -341.5 -192.5t-134.5 -211.5q0 -43 14 -82q-177 10 -274 53q-139 58 -139 197q0 164 231 346q221 173 553 289q346 120 653 120q332 0 491 -130q120 -101 120 -264q0 -106 -86.5 -212
t-245.5 -173z" />
</svg>
