<?xml version="1.0" standalone="no"?>
<!DOCTYPE svg PUBLIC "-//W3C//DTD SVG 1.1//EN" "http://www.w3.org/Graphics/SVG/1.1/DTD/svg11.dtd" >
<svg xmlns="http://www.w3.org/2000/svg" xmlns:xlink="http://www.w3.org/1999/xlink" version="1.1" width="2048" height="2048" viewBox="-10 0 2068 2048">
   <path fill="currentColor"
d="M1639 202l207 308h-308l-206 -308h-207l207 308h-308l-207 -308h-202l202 308h-307l-202 -308h-106q-82 0 -142 60t-60 147v1230q0 87 60 147t142 60h1644q82 0 142 -60t60 -147v-1437h-409zM947 1356l-130 283l-125 -283l-283 -125l283 -130l125 -284l130 284l284 130z
M1529 1019l-96 212l-97 -212l-211 -96l211 -96l97 -212l96 212l211 96z" />
</svg>
