<?xml version="1.0" standalone="no"?>
<!DOCTYPE svg PUBLIC "-//W3C//DTD SVG 1.1//EN" "http://www.w3.org/Graphics/SVG/1.1/DTD/svg11.dtd" >
<svg xmlns="http://www.w3.org/2000/svg" xmlns:xlink="http://www.w3.org/1999/xlink" version="1.1" width="2048" height="2048" viewBox="-10 0 2068 2048">
   <path fill="currentColor"
d="M1877 895q-22 0 -35 17l-97 92l193 193l92 -92q18 -17 18 -37t-18 -37l-118 -119q-17 -17 -35 -17zM1693 1061l-570 566v193h193l570 -566zM938 1728h-749q-79 0 -134 -55t-55 -134v-1122q0 -79 55 -134t134 -55h92l188 377h281l-189 -377h189l188 377h281l-188 -377h188
l184 377h281l-184 -377h373v386l-935 934v180z" />
</svg>
