<?xml version="1.0" standalone="no"?>
<!DOCTYPE svg PUBLIC "-//W3C//DTD SVG 1.1//EN" "http://www.w3.org/Graphics/SVG/1.1/DTD/svg11.dtd" >
<svg xmlns="http://www.w3.org/2000/svg" xmlns:xlink="http://www.w3.org/1999/xlink" version="1.1" width="2048" height="2048" viewBox="-10 0 2068 2048">
   <path fill="currentColor"
d="M1873 182v386l-176 175h-1342l-166 -329v1079h749v189h-749q-79 0 -134 -55t-55 -134v-1122q0 -79 55 -134t134 -55h92l188 377h281l-189 -377h189l188 377h281l-188 -377h188l184 377h281l-184 -377h373zM1912 958l118 123q18 13 18 35t-18 35l-92 92l-193 -188l97 -97
q13 -13 33 -13t37 13zM1886 1300l-570 566h-193v-193l570 -566z" />
</svg>
