<?xml version="1.0" standalone="no"?>
<!DOCTYPE svg PUBLIC "-//W3C//DTD SVG 1.1//EN" "http://www.w3.org/Graphics/SVG/1.1/DTD/svg11.dtd" >
<svg xmlns="http://www.w3.org/2000/svg" xmlns:xlink="http://www.w3.org/1999/xlink" version="1.1" width="2048" height="2048" viewBox="-10 0 2058 2048">
   <path fill="currentColor"
d="M1596 0l-497 492l216 211l103 -103l-103 -108l281 -281l108 103l107 -103zM1952 211l-586 581l-211 75l-1045 1040l145 141l563 -567l426 426l422 -426l-422 -422l14 -19l216 -70l478 -478q56 -56 56 -140.5t-56 -140.5zM466 281l-426 422l497 497l421 -422zM1633 1659
l-215 211l140 141l216 -211z" />
</svg>
