<?xml version="1.0" standalone="no"?>
<!DOCTYPE svg PUBLIC "-//W3C//DTD SVG 1.1//EN" "http://www.w3.org/Graphics/SVG/1.1/DTD/svg11.dtd" >
<svg xmlns="http://www.w3.org/2000/svg" xmlns:xlink="http://www.w3.org/1999/xlink" version="1.1" width="2048" height="2048" viewBox="-10 0 2068 2048">
   <path fill="currentColor"
d="M1486 1385q125 0 257 45.5t151 83.5v72h-817v-72q19 -38 151.5 -83.5t257.5 -45.5zM1486 1231q-106 0 -231 29q-140 38 -231 96q-101 67 -101 154v230h1125v-230q0 -87 -101 -154q-91 -58 -231 -96q-125 -29 -230 -29zM716 1125q-134 0 -293 43q-178 43 -293 120
q-130 87 -130 198v254h716v-154h-562v-100q0 -34 91.5 -87t225.5 -87q164 -38 327 -33q67 -77 164 -125q-121 -24 -246 -29zM716 462q63 0 108.5 43t45.5 108t-45.5 110.5t-108 45.5t-108.5 -45.5t-46 -110.5t46 -108t108 -43zM716 308q-129 0 -218 89t-89 216t89 218.5
t218.5 91.5t218.5 -91.5t89 -218.5t-89 -216t-219 -89zM1486 663q43 0 71.5 31.5t28.5 74.5t-28.5 72t-72 29t-72 -29t-28.5 -72t28.5 -74.5t72.5 -31.5zM1486 510q-106 0 -180.5 76.5t-74.5 182.5t74.5 180.5t180 74.5t180 -74.5t74.5 -180.5t-74.5 -182.5t-179.5 -76.5z
" />
</svg>
