<?xml version="1.0" standalone="no"?>
<!DOCTYPE svg PUBLIC "-//W3C//DTD SVG 1.1//EN" "http://www.w3.org/Graphics/SVG/1.1/DTD/svg11.dtd" >
<svg xmlns="http://www.w3.org/2000/svg" xmlns:xlink="http://www.w3.org/1999/xlink" version="1.1" width="2048" height="2048" viewBox="-10 0 2068 2048">
   <path fill="currentColor"
d="M1303 28q33 -29 71.5 -26.5t67.5 31t31.5 69.5t-26.5 70l-322 317l82 96l197 515q14 38 4.5 81.5t-38.5 76.5l-317 318q-48 43 -110.5 43t-105.5 -43l-476 -471q-39 -44 -39 -106l-53 -659h111q43 0 77 29l14 19l106 356zM577 2047l-577 -577l216 -216l582 581zM1793 254
q-33 38 -67 81q-77 97 -125 183q-63 120 -63 197q0 106 74.5 180.5t180.5 74.5t180.5 -74.5t74.5 -180.5q0 -77 -62 -197q-49 -86 -125 -183z" />
</svg>
