<?xml version="1.0" standalone="no"?>
<!DOCTYPE svg PUBLIC "-//W3C//DTD SVG 1.1//EN" "http://www.w3.org/Graphics/SVG/1.1/DTD/svg11.dtd" >
<svg xmlns="http://www.w3.org/2000/svg" xmlns:xlink="http://www.w3.org/1999/xlink" version="1.1" width="2048" height="2048" viewBox="-10 0 2069 2048">
   <path fill="currentColor"
d="M1444 851l362 305l-175 35l157 349l-43 22l-162 -349l-139 114v-476zM1361 616q-26 0 -41.5 15t-15.5 37v837q0 22 15.5 39.5t37 17.5t34.5 -13l140 -113l122 261q13 35 48 35q17 0 26 -9l196 -91q22 -9 31 -30.5t-4 -43.5l-118 -266l174 -31q18 -4 31 -19.5t11 -39.5
t-20 -41l-632 -537q-18 -8 -35 -8zM1073 498q22 -9 100 96l131 -100q-17 -27 -48 -70q-22 -31 -57 -57q-56 -44 -113 -50.5t-109 28.5q-70 44 -83 140q-9 61 9 118q13 39 48 113q26 48 48 113q35 88 43.5 140t-4.5 89t-37 33t-59 -57l-65 -96q-48 -78 -70 -117
q-44 -75 -109 -131q-92 -87 -192 -101q-127 -17 -214 75q-65 65 -87 170l-205 -26v165l183 26q-13 219 79 341q69 96 174 113q87 9 157 -43.5t83 -139.5q9 -61 -17 -140q-31 -87 -101 -152q-74 -79 -187 -114v-8q13 -53 30 -70q31 -35 101 -22q52 4 126 96q39 48 113 166
q57 96 83 135q48 57 92 76.5t89.5 19.5t89.5 -22q96 -57 115.5 -192t-120.5 -419l-13 -26q-43 -91 -4 -100zM515 1244q-5 21 -24.5 32t-36.5 11q-44 -8 -70 -61q-39 -65 -39 -192q91 40 135 114q35 52 35 96z" />
</svg>
