<?xml version="1.0" standalone="no"?>
<!DOCTYPE svg PUBLIC "-//W3C//DTD SVG 1.1//EN" "http://www.w3.org/Graphics/SVG/1.1/DTD/svg11.dtd" >
<svg xmlns="http://www.w3.org/2000/svg" xmlns:xlink="http://www.w3.org/1999/xlink" version="1.1" width="2048" height="2048" viewBox="-10 0 2069 2048">
   <path fill="currentColor"
d="M1868 436q-139 -139 -331 -170.5t-370 50.5l-96 -96q-29 -29 -72 -29t-72 29l-10 9q-9 -77 -67 -127t-139.5 -50t-141.5 60t-60 146q0 19 5 24q-48 29 -77 77t-29 101q0 67 43 125q-43 33 -43 81v140q-182 62 -295 220.5t-113 355.5q0 168 81.5 309.5t223.5 223
t307.5 81.5t307 -81.5t225.5 -223t84 -309.5q0 -197 -115 -355.5t-298 -220.5v-140q0 -48 -43 -81q43 -58 43 -125v-24q15 -10 44 -39h4q72 39 115.5 111t43.5 158v10l38 24q34 -72 82 -120q120 -120 290.5 -120t290.5 120t120 290.5t-120 290.5t-298 120q5 34 5 101
q0 43 -5 105q125 0 238 -45.5t204 -136.5q115 -115 158.5 -273.5t0 -317t-158.5 -278.5zM715 152q44 0 72.5 31.5t28.5 77t-43 79.5q-58 -82 -158 -82q0 -43 28.5 -74.5t71.5 -31.5zM552 378q63 82 163 82q0 43 -31 74t-72 31t-72 -31t-31 -76.5t43 -79.5zM1023 1382
q0 173 -120 293t-290.5 120t-290.5 -120t-120 -290.5t120 -290.5t290.5 -120t290.5 120t120 288z" />
</svg>
