<?xml version="1.0" standalone="no"?>
<!DOCTYPE svg PUBLIC "-//W3C//DTD SVG 1.1//EN" "http://www.w3.org/Graphics/SVG/1.1/DTD/svg11.dtd" >
<svg xmlns="http://www.w3.org/2000/svg" xmlns:xlink="http://www.w3.org/1999/xlink" version="1.1" width="2048" height="2048" viewBox="-10 0 2058 2048">
   <path fill="currentColor"
d="M483 0q0 126 58 240t159 190q-101 76 -159 189.5t-58 245.5q0 192 121.5 341t313.5 185v227h-218v218h218v212h212v-212h218v-218h-218v-227q192 -36 313.5 -185t121.5 -341q0 -132 -58 -245.5t-159 -189.5q101 -76 159 -190t58 -240h-217q0 137 -93.5 230.5t-230.5 93.5
t-230.5 -93.5t-93.5 -230.5h-217zM1024 541q137 0 230.5 93.5t93.5 227.5t-93.5 230t-230.5 96t-230.5 -96t-93.5 -230t93.5 -227.5t230.5 -93.5z" />
</svg>
