<?xml version="1.0" standalone="no"?>
<!DOCTYPE svg PUBLIC "-//W3C//DTD SVG 1.1//EN" "http://www.w3.org/Graphics/SVG/1.1/DTD/svg11.dtd" >
<svg xmlns="http://www.w3.org/2000/svg" xmlns:xlink="http://www.w3.org/1999/xlink" version="1.1" width="2048" height="2048" viewBox="-10 0 2068 2048">
   <path fill="currentColor"
d="M0 343v1362h1170v-192h-196q-83 0 -140 -57t-57 -139v-586q0 -82 57 -139t140 -57h196v-192h-1170zM1170 535v196h192v-196h-192zM1170 731h-196v586h196v-586zM1170 1317v196h192v-196h-192zM293 535h192q82 0 139 57t57 139v586q0 82 -57 139t-139 57h-192
q-83 0 -140 -57t-57 -139v-586q0 -82 57 -139t140 -57zM1463 535v978h192v-393h100v101h96v292h197v-292h-101v-197h101v-389h-101v-100h-484zM293 731v586h192v-586h-192zM1655 731h196v197h-196v-197z" />
</svg>
