<?xml version="1.0" standalone="no"?>
<!DOCTYPE svg PUBLIC "-//W3C//DTD SVG 1.1//EN" "http://www.w3.org/Graphics/SVG/1.1/DTD/svg11.dtd" >
<svg xmlns="http://www.w3.org/2000/svg" xmlns:xlink="http://www.w3.org/1999/xlink" version="1.1" width="2048" height="2048" viewBox="-10 0 2068 2048">
   <path fill="currentColor"
d="M1925 2048l123 -123l-1925 -1925l-123 123l672 672v988q-82 0 -139.5 57t-57.5 135h1171q0 -78 -57.5 -135t-139.5 -57v-206zM887 1010l260 261q-41 23 -86 23q-83 0 -140 -57.5t-57 -139.5q0 -46 23 -87zM983 613l-270 -270q37 -78 103 -130.5t149 -75.5v-110h192v110
q105 28 180.5 103t97.5 176h211v197h-663zM1742 905v96h100v197h-100v96h-78l-114 -119v-270h192zM379 1294v-96h-100v-197h100v-96h192v389h-192zM1449 1079l-370 -370h370v370z" />
</svg>
