<?xml version="1.0" standalone="no"?>
<!DOCTYPE svg PUBLIC "-//W3C//DTD SVG 1.1//EN" "http://www.w3.org/Graphics/SVG/1.1/DTD/svg11.dtd" >
<svg xmlns="http://www.w3.org/2000/svg" xmlns:xlink="http://www.w3.org/1999/xlink" version="1.1" width="2048" height="2048" viewBox="-10 0 2068 2048">
   <path fill="currentColor"
d="M192 1116h-192v-184h192q22 -191 124 -352.5t263.5 -263.5t352.5 -124v-192h184v192q191 22 352.5 124t263.5 263.5t124 352.5h192v184h-192q-22 191 -124 352.5t-263.5 263.5t-352.5 124v192h-184v-192q-191 -22 -352.5 -124t-263.5 -263.5t-124 -352.5zM1024 375
q-179 0 -327 87t-235 235t-87 327t87 327t235 235t327 87t327 -87t235 -235t87 -327t-87 -327t-235 -235t-327 -87zM941 1512h166v-161h-166v161zM1024 536q-135 0 -231 96t-96 231h166q0 -70 45.5 -118t115.5 -48t115.5 48t45.5 118q0 48 -30 83q-18 26 -70 65
q-70 52 -96 91q-48 70 -48 166h166q0 -61 35 -109q21 -30 82 -84.5t88 -85.5q39 -57 39 -126q0 -135 -96 -231t-231 -96z" />
</svg>
