<?xml version="1.0" standalone="no"?>
<!DOCTYPE svg PUBLIC "-//W3C//DTD SVG 1.1//EN" "http://www.w3.org/Graphics/SVG/1.1/DTD/svg11.dtd" >
<svg xmlns="http://www.w3.org/2000/svg" xmlns:xlink="http://www.w3.org/1999/xlink" version="1.1" width="2048" height="2048" viewBox="-10 0 2068 2048">
   <path fill="currentColor"
d="M787 1339q0 36 -9.5 75t-27 76.5t-49.5 61.5t-71 24t-71 -24t-50 -61.5t-27 -76.5t-9 -75t9 -75t27 -76t50 -61t71 -24t71 24t49.5 61t27 76t9.5 75zM1575 1339q0 36 -9 75t-27 76.5t-50 61.5t-71 24t-71 -24t-50 -61.5t-27.5 -76.5t-9.5 -75t9.5 -75t27.5 -76t50 -61
t71 -24t71 24t50 61t27 76t9 75zM1772 1339q0 -96 -36 -175.5t-109 -129t-170 -49.5q-28 0 -62 2.5t-56.5 5.5t-63 9t-58.5 9q-92 14 -193 14q-102 0 -194 -14q-17 -3 -57.5 -9t-63 -9t-56.5 -5.5t-62 -2.5q-97 0 -170 49.5t-109 129t-36 175.5q0 79 20 143t54.5 108.5
t85 78t104.5 53t121.5 32t128 16.5t131.5 4h206q71 0 131.5 -4t128 -16.5t121.5 -32t104.5 -53t85 -78t54.5 -108.5t20 -143zM2048 1123q0 252 -75 407q-34 68 -87 123t-112 92t-135 64.5t-146 42.5t-154.5 24t-150.5 11.5t-145 2.5q-61 0 -113 -1t-119.5 -6t-125 -12.5
t-123 -21t-120.5 -32.5t-111.5 -46.5t-101.5 -61.5t-85 -79.5t-68 -99.5q-76 -152 -76 -407q0 -293 167 -487q-32 -97 -32 -210q0 -143 62 -268q71 0 132.5 13.5t120.5 44t103.5 61t109.5 81.5q184 -43 380 -43q179 0 345 40q63 -49 109 -80t104 -60.5t119 -43t131 -13.5
q62 125 62 268q0 108 -33 207q168 197 168 490z" />
</svg>
