<?xml version="1.0" standalone="no"?>
<!DOCTYPE svg PUBLIC "-//W3C//DTD SVG 1.1//EN" "http://www.w3.org/Graphics/SVG/1.1/DTD/svg11.dtd" >
<svg xmlns="http://www.w3.org/2000/svg" xmlns:xlink="http://www.w3.org/1999/xlink" version="1.1" width="2048" height="2048" viewBox="-10 0 2058 2048">
   <path fill="currentColor"
d="M308 1332v-101h-106v-207h106v-101h202v409h-202zM1740 1024v-101h-202v409h202v-101h106v-207h-106zM1639 409h-221q-24 -106 -103 -185.5t-190 -108.5v-115h-202v115q-111 29 -190 108.5t-103 185.5h-221v206h1230v-206zM1639 2048h-1230q0 -82 60 -142t146 -60v-1130
h818v1130q86 0 146 60t60 142zM817 1125q0 86 60 146.5t147 60.5t147 -60.5t60 -144.5t-60 -144t-147 -60t-147 60t-60 142z" />
</svg>
