<?xml version="1.0" standalone="no"?>
<!DOCTYPE svg PUBLIC "-//W3C//DTD SVG 1.1//EN" "http://www.w3.org/Graphics/SVG/1.1/DTD/svg11.dtd" >
<svg xmlns="http://www.w3.org/2000/svg" xmlns:xlink="http://www.w3.org/1999/xlink" version="1.1" width="2048" height="2048" viewBox="-10 0 2068 2048">
   <path fill="currentColor"
d="M1819 229v1590h-1590v-1590h1590zM1819 0h-1590q-96 0 -162.5 66.5t-66.5 162.5v1590q0 96 66.5 162.5t162.5 66.5h1590q96 0 162.5 -66.5t66.5 -162.5v-1590q0 -96 -66.5 -162.5t-162.5 -66.5zM1024 853q-69 0 -120 51t-51 120t51 120t120 51t120 -51t51 -120t-51 -120
t-120 -51zM512 341q-69 0 -120 51t-51 120t51 120t120 51t120 -51t51 -120t-51 -120t-120 -51zM1536 1365q-69 0 -120 51t-51 120t51 120t120 51t120 -51t51 -120t-51 -120t-120 -51z" />
</svg>
