<?xml version="1.0" standalone="no"?>
<!DOCTYPE svg PUBLIC "-//W3C//DTD SVG 1.1//EN" "http://www.w3.org/Graphics/SVG/1.1/DTD/svg11.dtd" >
<svg xmlns="http://www.w3.org/2000/svg" xmlns:xlink="http://www.w3.org/1999/xlink" version="1.1" width="2048" height="2048" viewBox="-10 0 2068 2048">
   <path fill="currentColor"
d="M1639 923h-307v308h-207v-308h-308v-207h308v-307h207v307h307v207zM1846 202v1231h-1231v-1231h1231zM1846 0h-1231q-86 0 -146 60t-60 142v1231q0 86 60 146t146 60h1231q82 0 142 -60t60 -146v-1231q0 -82 -60 -142t-142 -60zM202 409h-202v1437q0 82 60 142t142 60
h1437v-202h-1437v-1437z" />
</svg>
