<?xml version="1.0" standalone="no"?>
<!DOCTYPE svg PUBLIC "-//W3C//DTD SVG 1.1//EN" "http://www.w3.org/Graphics/SVG/1.1/DTD/svg11.dtd" >
<svg xmlns="http://www.w3.org/2000/svg" xmlns:xlink="http://www.w3.org/1999/xlink" version="1.1" width="2048" height="2048" viewBox="-10 0 2068 2048">
   <path fill="currentColor"
d="M409 462q0 -174 120 -294t290.5 -120t291 120t120.5 291t-120.5 291t-291 120t-290.5 -120t-120 -288zM1024 1505q0 -72 33.5 -137t91.5 -113v-24q0 -58 14 -116q-163 -38 -346 -38q-221 0 -408.5 55t-298 149t-110.5 205v206h1024v-187zM2048 1514v361q0 48 -38.5 86.5
t-91.5 38.5h-567q-48 0 -84 -41t-36 -94v-360q0 -44 38.5 -82t81.5 -38v-154q0 -106 89 -183t199.5 -77t199.5 77t89 183v154q48 0 84 38t36 91zM1793 1231q0 -63 -45.5 -99t-108 -36t-108 36t-45.5 99v154h307v-154z" />
</svg>
