<?xml version="1.0" standalone="no"?>
<!DOCTYPE svg PUBLIC "-//W3C//DTD SVG 1.1//EN" "http://www.w3.org/Graphics/SVG/1.1/DTD/svg11.dtd" >
<svg xmlns="http://www.w3.org/2000/svg" xmlns:xlink="http://www.w3.org/1999/xlink" version="1.1" width="2048" height="2048" viewBox="-10 0 2068 2048">
   <path fill="currentColor"
d="M1910 1131q0 -21 -17 -29.5t-39 -8.5h-1168q-43 0 -91.5 23t-76.5 56l-315 389q-20 28 -20 44q0 20 17.5 28.5t39.5 8.5h1167q43 0 92 -23.5t77 -57.5l315 -389q19 -25 19 -41zM686 955h824v-172q0 -43 -30 -72.5t-73 -29.5h-618q-43 0 -73 -30t-30 -73v-69
q0 -43 -29.5 -73t-72.5 -30h-344q-43 0 -73 30t-30 73v915l275 -338q47 -57 124 -94t150 -37zM2048 1131q0 66 -50 128l-316 390q-46 56 -124 93t-151 37h-1167q-99 0 -169.5 -70.5t-70.5 -169.5v-1030q0 -99 70.5 -169.5t169.5 -70.5h344q99 0 169.5 70.5t70.5 169.5v34
h583q99 0 169.5 70.5t70.5 169.5v172h207q57 0 106 26.5t72 75.5q16 35 16 74z" />
</svg>
