<?xml version="1.0" standalone="no"?>
<!DOCTYPE svg PUBLIC "-//W3C//DTD SVG 1.1//EN" "http://www.w3.org/Graphics/SVG/1.1/DTD/svg11.dtd" >
<svg xmlns="http://www.w3.org/2000/svg" xmlns:xlink="http://www.w3.org/1999/xlink" version="1.1" width="2048" height="2048" viewBox="-10 0 2058 2048">
   <path fill="currentColor"
d="M1721 923v-154q0 -106 -89 -182.5t-199.5 -76.5t-197 76.5t-86.5 182.5v154q-48 0 -86.5 38.5t-38.5 81.5v361q0 53 38.5 93.5t86.5 40.5h562q53 0 94 -38.5t41 -86.5v-360q0 -53 -38.5 -91.5t-86.5 -38.5zM1586 923h-307v-154q0 -62 45.5 -98t110.5 -36t108 36t43 98
v154zM716 409h308l-409 -409l-413 409h308v1230h-308l413 409l409 -409h-308v-1230z" />
</svg>
