<?xml version="1.0" standalone="no"?>
<!DOCTYPE svg PUBLIC "-//W3C//DTD SVG 1.1//EN" "http://www.w3.org/Graphics/SVG/1.1/DTD/svg11.dtd" >
<svg xmlns="http://www.w3.org/2000/svg" xmlns:xlink="http://www.w3.org/1999/xlink" version="1.1" width="2048" height="2048" viewBox="-10 0 2058 2048">
   <path fill="currentColor"
d="M1024 375q-78 0 -132.5 54.5t-54.5 130.5t54.5 130.5t132.5 54.5t132.5 -54.5t54.5 -130.5t-54.5 -130.5t-132.5 -54.5zM1952 0v466h-183v-187h-1490v187h-183v-466h183v187h1490v-187h183zM1303 954v1094h-187v-466h-184v466h-187v-1094q-148 -78 -237.5 -219.5
t-89.5 -316.5v-43h188v43q0 175 122 297t296 122t296 -122t122 -297v-43h188v43q0 175 -89.5 316.5t-237.5 219.5z" />
</svg>
