<?xml version="1.0" standalone="no"?>
<!DOCTYPE svg PUBLIC "-//W3C//DTD SVG 1.1//EN" "http://www.w3.org/Graphics/SVG/1.1/DTD/svg11.dtd" >
<svg xmlns="http://www.w3.org/2000/svg" xmlns:xlink="http://www.w3.org/1999/xlink" version="1.1" width="2048" height="2048" viewBox="-10 0 2058 2048">
   <path fill="currentColor"
d="M1894 471l-812 -452q-24 -19 -58 -19t-58 19l-812 452q-53 29 -53 91v924q0 62 53 91l812 452q24 19 58 19t58 -19l812 -452q53 -29 53 -91v-924q0 -62 -53 -91zM966 1428h-524v-106l92 -91q101 -111 168 -193q91 -115 91 -163q0 -77 -53 -101q-24 -14 -53 -10l-24 5
q-33 10 -52 34q-29 34 -34 86l-154 10l5 -43q9 -48 29 -87q33 -57 86 -86q63 -44 154 -44q159 0 216 97q34 52 34 131.5t-82 194.5q-62 77 -153 169l-82 77h336v120zM1586 1178q0 106 -76.5 182.5t-185 76.5t-185.5 -76.5t-77 -182.5v-274q0 -111 77 -188t185.5 -77t185 77
t76.5 188v274zM1433 899v284q0 43 -31.5 74t-77 31t-77 -31t-31.5 -74v-284q0 -48 31.5 -79.5t77 -31.5t77 31.5t31.5 79.5z" />
</svg>
