<?xml version="1.0" standalone="no"?>
<!DOCTYPE svg PUBLIC "-//W3C//DTD SVG 1.1//EN" "http://www.w3.org/Graphics/SVG/1.1/DTD/svg11.dtd" >
<svg xmlns="http://www.w3.org/2000/svg" xmlns:xlink="http://www.w3.org/1999/xlink" version="1.1" width="2048" height="2048" viewBox="-10 0 2068 2048">
   <path fill="currentColor"
d="M1024 0q-82 0 -144 58l-822 822q-58 57 -58 144t58 144l822 822q57 58 144 58t144 -58l822 -822q58 -57 58 -144t-58 -144l-822 -822q-62 -58 -144 -58zM1024 639q101 0 173 65t72 152q0 53 -26.5 98.5t-69.5 74.5q53 33 84 81.5t31 110.5q0 91 -76.5 156t-187.5 65
t-187.5 -65t-76.5 -156q0 -62 31 -110.5t84 -81.5q-96 -63 -96 -173q0 -87 72 -152t173 -65zM1024 769q-38 0 -64.5 29t-26.5 72t26.5 72t64.5 29t64.5 -29t26.5 -72t-26.5 -72t-64.5 -29zM1024 1091q-48 0 -79.5 34t-31.5 79.5t31.5 79t79.5 33.5t79.5 -33.5t31.5 -79
t-31.5 -79.5t-79.5 -34z" />
</svg>
