<?xml version="1.0" standalone="no"?>
<!DOCTYPE svg PUBLIC "-//W3C//DTD SVG 1.1//EN" "http://www.w3.org/Graphics/SVG/1.1/DTD/svg11.dtd" >
<svg xmlns="http://www.w3.org/2000/svg" xmlns:xlink="http://www.w3.org/1999/xlink" version="1.1" width="2048" height="2048" viewBox="-10 0 2068 2048">
   <path fill="currentColor"
d="M1141 1195q0 64 -32 106.5t-85 42.5t-93 -42.5t-40 -106.5v-80l16 -27q16 -21 45 -40t67 -13q53 0 87.5 48t34.5 112zM2048 229v1590q0 96 -66.5 162.5t-162.5 66.5h-1590q-96 0 -162.5 -66.5t-66.5 -162.5v-1590q0 -96 66.5 -162.5t162.5 -66.5h1590q96 0 162.5 66.5
t66.5 162.5zM1312 1184q0 -149 -85 -229q-64 -59 -144 -59q-54 0 -107 21q-32 11 -59 32l-21 22l5 -38q6 -42 32 -80q32 -48 86 -74q64 -38 165 -38v-133h-75q-85 11 -160 43q-101 48 -160 144q-69 117 -74 304q0 165 64 261q48 80 133 107q64 21 139 21l58 -11l59 -21
q59 -37 96 -91q53 -74 48 -181z" />
</svg>
