<?xml version="1.0" standalone="no"?>
<!DOCTYPE svg PUBLIC "-//W3C//DTD SVG 1.1//EN" "http://www.w3.org/Graphics/SVG/1.1/DTD/svg11.dtd" >
<svg xmlns="http://www.w3.org/2000/svg" xmlns:xlink="http://www.w3.org/1999/xlink" version="1.1" width="2048" height="2048" viewBox="-10 0 2068 2048">
   <path fill="currentColor"
d="M1253 571q-48 0 -82.5 -35t-34.5 -80t34.5 -80t80 -35t80 35t34.5 80t-34.5 80t-77.5 35zM1024 1024v795h-795v-795h795zM1115 795h-976q-59 0 -99 42.5t-40 95.5v976q0 59 40 99t99 40h976q53 0 95.5 -40t42.5 -99v-976q0 -53 -42.5 -95.5t-95.5 -42.5zM1909 0h-976
q-53 0 -95.5 40t-42.5 99v432h229v-342h795v795h-342v229h432q59 0 99 -42.5t40 -95.5v-976q0 -59 -40 -99t-99 -40zM1595 571q-48 0 -83 -35t-35 -80t35 -80t80 -35t80 35t35 80t-35 80t-77 35zM1595 912q-48 0 -83 -34.5t-35 -80t35 -80t80 -34.5t80 34.5t35 80t-35 80
t-77 34.5zM453 1365q-42 0 -77 -34.5t-35 -80t35 -80t80 -34.5t80 34.5t35 80t-35 80t-83 34.5zM795 1707q-43 0 -77.5 -35t-34.5 -80t34.5 -80t80 -35t80 35t34.5 80t-34.5 80t-82.5 35z" />
</svg>
