<?xml version="1.0" standalone="no"?>
<!DOCTYPE svg PUBLIC "-//W3C//DTD SVG 1.1//EN" "http://www.w3.org/Graphics/SVG/1.1/DTD/svg11.dtd" >
<svg xmlns="http://www.w3.org/2000/svg" xmlns:xlink="http://www.w3.org/1999/xlink" version="1.1" width="2048" height="2048" viewBox="-10 0 2068 2048">
   <path fill="currentColor"
d="M817 870q173 0 293.5 -120t120.5 -291t-120.5 -291t-291 -120t-290.5 120t-120 291t120 291t288 120zM817 255q87 0 147 60t60 144t-60 144t-144 60t-144.5 -60t-60.5 -144t60.5 -144t141.5 -60zM1024 1692h-1024v-307q0 -130 149 -231q130 -82 337 -135q182 -48 331 -48
q178 0 380 58q-48 91 -48 187q-173 -48 -332 -48q-139 0 -298 39q-134 38 -230.5 91t-96.5 87v110h832v197zM1928 1385v-154q0 -106 -89 -183t-199.5 -77t-199.5 77t-89 183v154q-43 0 -81.5 38t-38.5 82v360q0 53 36 94t84 41h567q53 0 91.5 -38.5t38.5 -86.5v-361
q0 -53 -36 -91t-84 -38zM1793 1385h-307v-154q0 -63 45.5 -99t108 -36t108 36t45.5 99v154z" />
</svg>
