<?xml version="1.0" standalone="no"?>
<!DOCTYPE svg PUBLIC "-//W3C//DTD SVG 1.1//EN" "http://www.w3.org/Graphics/SVG/1.1/DTD/svg11.dtd" >
<svg xmlns="http://www.w3.org/2000/svg" xmlns:xlink="http://www.w3.org/1999/xlink" version="1.1" width="2048" height="2048" viewBox="-10 0 2068 2048">
   <path fill="currentColor"
d="M1024 226q197 82 409 82q163 0 317 -48q-111 182 -111 355q0 87 34 217q19 77 77 245v9q96 279 96 347q0 53 -113 132t-291 151q-197 77 -418 125q-221 -48 -418 -125q-178 -72 -291 -151t-113 -132q0 -68 96 -347v-9q58 -168 77 -245q34 -130 34 -217q0 -173 -111 -355
q154 48 317 48q212 0 409 -82zM1846 0q-187 101 -411 101t-411 -101q-187 101 -411 101t-411 -101l-202 202l53 62q58 77 96 154q53 106 53 197q0 68 -29 183q-19 72 -72 226t-72 226q-29 115 -29 183q0 144 159 269q129 106 351 192q163 67 355 116l159 38l159 -38
q192 -49 355 -116q222 -86 351 -192q159 -125 159 -269q0 -68 -29 -183q-19 -72 -72 -226t-72 -226q-29 -115 -29 -183q0 -91 53 -197q38 -77 96 -154l53 -62zM1336 1481l-317 -193l-312 193l81 -361l-278 -240l370 -29l139 -341l144 341l371 29l-279 240z" />
</svg>
