<?xml version="1.0" standalone="no"?>
<!DOCTYPE svg PUBLIC "-//W3C//DTD SVG 1.1//EN" "http://www.w3.org/Graphics/SVG/1.1/DTD/svg11.dtd" >
<svg xmlns="http://www.w3.org/2000/svg" xmlns:xlink="http://www.w3.org/1999/xlink" version="1.1" width="2048" height="2048" viewBox="-10 0 2068 2048">
   <path fill="currentColor"
d="M1947 1015v-823q0 -78 -57 -135t-135 -57h-1563q-78 0 -135 57t-57 135v1755l389 -388h320q64 215 244.5 352t408.5 137q188 0 343.5 -91.5t249 -249t93.5 -345t-101 -347.5zM389 389h1170v196h-1170v-196zM1362 681q-132 0 -255.5 52.5t-219.5 144.5h-498v-197h973z
M389 974h416q-64 91 -96 196h-320v-196zM1362 1838q-128 0 -235.5 -64t-171.5 -174t-64 -238t64 -235.5t171.5 -171.5t235.5 -64t238 64t174 171.5t64 235.5t-64 238t-174 174t-238 64zM1413 1344l237 142l-73 123l-311 -178v-361h147v274z" />
</svg>
