<?xml version="1.0" standalone="no"?>
<!DOCTYPE svg PUBLIC "-//W3C//DTD SVG 1.1//EN" "http://www.w3.org/Graphics/SVG/1.1/DTD/svg11.dtd" >
<svg xmlns="http://www.w3.org/2000/svg" xmlns:xlink="http://www.w3.org/1999/xlink" version="1.1" width="2048" height="2048" viewBox="-10 0 2068 2048">
   <path fill="currentColor"
d="M1846 0h-1644q-82 0 -142 60t-60 142v1846l409 -409h1437q82 0 142 -60t60 -146v-1231q0 -82 -60 -142t-142 -60zM1846 1433h-1519l-125 125v-1356h1644v1231zM1514 952l-110 -82v-101l110 -82q15 -14 15 -33l-106 -173q-19 -19 -29 -10l-134 39l-20 -15q-43 -29 -72 -33
l-19 -135q0 -10 -7 -14.5t-17 -4.5h-202q-10 0 -17 4.5t-7 14.5l-19 135q-15 9 -46 23.5t-46 24.5l-125 -48q-19 0 -28 9l-101 173q-15 10 9 29l111 87v101l-111 81q-9 10 -9 29l101 178q19 19 28 10l125 -34l24 19q39 29 58 34l19 134q0 20 34 20h202q10 0 17 -7.5t7 -12.5
l19 -134q43 -15 82 -53l125 53q19 0 29 -10l101 -173q29 -29 9 -43zM1024 971q-62 0 -108 -45.5t-46 -105.5t46 -108.5t108 -48.5t108 48.5t46 108.5t-46 105.5t-108 45.5z" />
</svg>
