<?xml version="1.0" standalone="no"?>
<!DOCTYPE svg PUBLIC "-//W3C//DTD SVG 1.1//EN" "http://www.w3.org/Graphics/SVG/1.1/DTD/svg11.dtd" >
<svg xmlns="http://www.w3.org/2000/svg" xmlns:xlink="http://www.w3.org/1999/xlink" version="1.1" width="2048" height="2048" viewBox="-10 0 2058 2048">
   <path fill="currentColor"
d="M1231 0h-822q-87 0 -147 60t-60 142v1644q0 82 60 142t147 60h1230q87 0 147 -60t60 -142v-1231zM1639 1846h-1230v-1644h716v514h514v1130zM716 1159q130 250 375 379l125 -129q29 -24 58 -15q106 34 207 34q24 0 40.5 16.5t16.5 41.5v201q0 20 -16.5 36.5t-40.5 16.5
q-265 0 -486 -129.5t-353 -351t-132 -485.5q0 -24 16.5 -41t40.5 -17h202q24 0 41 17t17 41q0 106 29 202q9 34 -15 58z" />
</svg>
