<?xml version="1.0" standalone="no"?>
<!DOCTYPE svg PUBLIC "-//W3C//DTD SVG 1.1//EN" "http://www.w3.org/Graphics/SVG/1.1/DTD/svg11.dtd" >
<svg xmlns="http://www.w3.org/2000/svg" xmlns:xlink="http://www.w3.org/1999/xlink" version="1.1" width="2048" height="2048" viewBox="-10 0 2068 2048">
   <path fill="currentColor"
d="M1819 1819h-1590v-1590h1590v1590zM1819 0h-1590q-96 0 -162.5 66.5t-66.5 162.5v1590q0 96 66.5 162.5t162.5 66.5h1590q96 0 162.5 -66.5t66.5 -162.5v-1590q0 -96 -66.5 -162.5t-162.5 -66.5zM453 683h267l32 -342h229l-37 342h229l38 -342h224l-32 342h192v229h-219
l-21 224h240v229h-267l-32 342h-229l37 -342h-229l-38 342h-224l32 -342h-192v-229h219l21 -224h-240v-229zM923 912l-22 224h224l22 -224h-224z" />
</svg>
