<?xml version="1.0" standalone="no"?>
<!DOCTYPE svg PUBLIC "-//W3C//DTD SVG 1.1//EN" "http://www.w3.org/Graphics/SVG/1.1/DTD/svg11.dtd" >
<svg xmlns="http://www.w3.org/2000/svg" xmlns:xlink="http://www.w3.org/1999/xlink" version="1.1" width="2048" height="2048" viewBox="-10 0 2068 2048">
   <path fill="currentColor"
d="M1024 112q96 0 162.5 66.5t66.5 162.5t-66.5 163t-162.5 67t-162.5 -67t-66.5 -163t66.5 -162.5t162.5 -66.5zM2048 1477v-224q-192 0 -352 -80t-283 -229l-154 -181q-70 -80 -176 -80h-118q-106 0 -176 80l-149 181q-261 309 -640 309v224q235 0 437.5 -93t357.5 -275
v256l-438 176q-58 22 -93 75t-35 112q0 85 59 146.5t144 61.5h251v-59q0 -117 82.5 -199.5t199.5 -82.5h342q26 0 42 16t16 40t-16 40t-42 16h-342q-69 0 -119.5 50.5t-50.5 119.5v59h821q85 0 144 -61.5t59 -146.5q0 -59 -35 -112t-93 -75l-438 -176v-256
q155 182 357.5 275t437.5 93z" />
</svg>
