<?xml version="1.0" standalone="no"?>
<!DOCTYPE svg PUBLIC "-//W3C//DTD SVG 1.1//EN" "http://www.w3.org/Graphics/SVG/1.1/DTD/svg11.dtd" >
<svg xmlns="http://www.w3.org/2000/svg" xmlns:xlink="http://www.w3.org/1999/xlink" version="1.1" width="2048" height="2048" viewBox="-11 0 2069 2048">
   <path fill="currentColor"
d="M1433 841h-153q-77 -9 -132.5 -66.5t-55.5 -137t55.5 -132.5t132.5 -48v-149q-140 0 -241 101t-101 242.5t101 242.5t241 101h153q87 -5 149.5 55t57.5 147v134h153v-168q-4 -144 -110 -237.5t-250 -84.5zM1721 587q77 -72 98.5 -175.5t-16.5 -199.5t-124.5 -153.5
t-192.5 -57.5v154q77 0 132 55t55 132t-55 134.5t-132 57.5v154q173 0 293 122.5t115 290.5v230h154v-230q0 -163 -86.5 -302.5t-235.5 -211.5h-5zM1640 1432v615h153v-615h-153zM1894 1432v615h154v-615h-154zM1025 1432v130q48 29 74.5 77t26.5 103t-26.5 103t-74.5 72
v130h514v-615h-514zM88 1524q-62 67 -81.5 158t17 177.5t113 137t172.5 50.5h509v-130q-48 -24 -74 -72t-26 -103t26 -103t74 -77v-130h-509q-129 0 -221 92zM1025 1740q0 33 -17 59.5t-45.5 38.5t-60 5t-53 -29t-28.5 -53t5 -60t38 -45.5t60 -16.5q43 0 72 28.5t29 72.5z
" />
</svg>
