<?xml version="1.0" standalone="no"?>
<!DOCTYPE svg PUBLIC "-//W3C//DTD SVG 1.1//EN" "http://www.w3.org/Graphics/SVG/1.1/DTD/svg11.dtd" >
<svg xmlns="http://www.w3.org/2000/svg" xmlns:xlink="http://www.w3.org/1999/xlink" version="1.1" width="2048" height="2048" viewBox="-10 0 2068 2048">
   <path fill="currentColor"
d="M1512 1263q-50 161 -184.5 260t-303 99t-304 -99t-184.5 -260q-12 -34 4.5 -64.5t51.5 -42.5q33 -11 64.5 5.5t42.5 50.5q33 107 123 173t202.5 66t202.5 -66t123 -173q12 -34 43 -50.5t65 -5.5q33 12 49.5 42.5t4.5 64.5zM853 683q0 71 -49.5 120.5t-120.5 49.5
t-121 -49.5t-50 -120.5t50 -121t121 -50t120.5 50t49.5 121zM1537 682.5q0 70.5 -50.5 120.5t-121.5 50t-120.5 -49.5t-49.5 -120.5t49.5 -121t120.5 -50t121.5 50t50.5 120.5zM1878 1024.5q0 -115.5 -31 -226t-86 -204.5t-134 -173t-172.5 -134t-204 -86t-226 -31t-226 31
t-204.5 86t-173 134t-134 173t-86 204.5t-31 226t31 226t86 204t134 172.5t173 134t204.5 86t226 31t226 -31t204 -86t172.5 -134t134 -172.5t86 -204t31 -226zM2048 1024.5q0 139.5 -36.5 272t-102.5 245t-160.5 207t-207 160.5t-245 102.5t-272 36.5t-272 -36.5
t-245 -102.5t-207 -160.5t-160.5 -207t-103 -245t-37 -272t37 -272t103 -245t160.5 -207t207 -160.5t245 -103t272 -37t272 37t245 103t207 160.5t160.5 207t102.5 245t36.5 272z" />
</svg>
