<?xml version="1.0" standalone="no"?>
<!DOCTYPE svg PUBLIC "-//W3C//DTD SVG 1.1//EN" "http://www.w3.org/Graphics/SVG/1.1/DTD/svg11.dtd" >
<svg xmlns="http://www.w3.org/2000/svg" xmlns:xlink="http://www.w3.org/1999/xlink" version="1.1" width="2048" height="2048" viewBox="-10 0 2058 2048">
   <path fill="currentColor"
d="M1486 2048q115 0 204 -77t101 -194.5t-55.5 -214t-182.5 -123t-216 31.5t-140 168h-519l202 -312q91 9 183 0l101 159q72 -87 168 -125l-63 -92q193 -91 306 -266.5t113 -387.5h-1433q0 212 113 387.5t310 266.5l-408 620q-20 39 -10 77.5t43.5 60t74.5 14.5t65 -36
l101 -159h653q29 91 108.5 146.5t180.5 55.5zM1486 1639q43 0 72 29t29 72.5t-31.5 74.5t-72 31t-72 -31t-31.5 -74.5t31.5 -72.5t74.5 -29zM500 817h943q-63 140 -190.5 224t-281 84t-281 -84t-190.5 -224zM707 510h101v-5q14 -96 5 -140q-19 -67 -96 -158l-5 -5
q-34 -43 -43 -72q-15 -48 0 -130h-101q-20 82 4 163.5t87 139.5l5 5q33 33 43 62q19 58 0 140zM962 510h101v-5q14 -96 5 -140q-20 -67 -97 -158h-4q-34 -48 -44 -77q-14 -43 0 -130h-101q-19 82 5 163.5t87 139.5l5 5q33 33 43 62q19 58 0 140zM1217 510h105v-5
q15 -96 0 -140q-14 -67 -96 -158l-5 -5q-33 -43 -43 -72q-9 -48 5 -130h-101q-19 82 5 163.5t86 139.5l5 5q29 33 43 62q20 58 -4 140z" />
</svg>
