<?xml version="1.0" standalone="no"?>
<!DOCTYPE svg PUBLIC "-//W3C//DTD SVG 1.1//EN" "http://www.w3.org/Graphics/SVG/1.1/DTD/svg11.dtd" >
<svg xmlns="http://www.w3.org/2000/svg" xmlns:xlink="http://www.w3.org/1999/xlink" version="1.1" width="2048" height="2048" viewBox="-10 0 2068 2048">
   <path fill="currentColor"
d="M1125 1947l207 -101l206 101v-716h-413v716zM1538 716v-206l-206 105l-207 -105v206l-202 101l202 106v202l207 -101l206 101v-202l202 -106zM1846 101h-1644q-82 0 -142 60t-60 147v1024q0 86 60 146t142 60h721v-206h-721v-1024h1644v1024h-106v206h106q82 0 142 -60
t60 -146v-1024q0 -87 -60 -147t-142 -60zM923 615h-615v-206h615v206zM716 923h-408v-207h408v207zM923 1231h-615v-207h615v207z" />
</svg>
