<?xml version="1.0" standalone="no"?>
<!DOCTYPE svg PUBLIC "-//W3C//DTD SVG 1.1//EN" "http://www.w3.org/Graphics/SVG/1.1/DTD/svg11.dtd" >
<svg xmlns="http://www.w3.org/2000/svg" xmlns:xlink="http://www.w3.org/1999/xlink" version="1.1" width="2048" height="2048" viewBox="-10 0 2058 2048">
   <path fill="currentColor"
d="M923 1433q0 48 -29 76.5t-74.5 28.5t-74.5 -28.5t-29 -74.5t29 -74.5t74.5 -28.5t74.5 28.5t29 72.5zM1846 615v1231q0 82 -60 142t-147 60h-1230q-87 0 -147 -60t-60 -142v-1644q0 -82 60 -142t147 -60h822zM1639 1332h-533q-48 -125 -161 -178t-233.5 -7.5t-173 161
t-7 231t161 173t230.5 9.5q130 -43 183 -183h125v202h202v-202h206v-206zM1692 716l-567 -562v562h567z" />
</svg>
