<?xml version="1.0" standalone="no"?>
<!DOCTYPE svg PUBLIC "-//W3C//DTD SVG 1.1//EN" "http://www.w3.org/Graphics/SVG/1.1/DTD/svg11.dtd" >
<svg xmlns="http://www.w3.org/2000/svg" xmlns:xlink="http://www.w3.org/1999/xlink" version="1.1" width="2048" height="2048" viewBox="-10 0 2068 2048">
   <path fill="currentColor"
d="M1936 1424q-213 0 -405 -64q-70 -21 -118 27l-250 250q-246 -128 -438 -320t-314 -432l250 -250q48 -48 27 -118q-64 -192 -64 -405q0 -43 -32 -77.5t-80 -34.5h-400q-43 0 -77.5 34.5t-34.5 77.5q0 528 267 976q256 437 693 693q448 267 976 267q43 0 77.5 -34.5
t34.5 -77.5v-400q0 -48 -34.5 -80t-77.5 -32zM1024 0v1136l341 -341h683v-795h-1024z" />
</svg>
