<?xml version="1.0" standalone="no"?>
<!DOCTYPE svg PUBLIC "-//W3C//DTD SVG 1.1//EN" "http://www.w3.org/Graphics/SVG/1.1/DTD/svg11.dtd" >
<svg xmlns="http://www.w3.org/2000/svg" xmlns:xlink="http://www.w3.org/1999/xlink" version="1.1" width="2048" height="2048" viewBox="-10 0 2068 2048">
   <path fill="currentColor"
d="M2024 1045q-276 -264 -644 -356q-178 -44 -356 -44t-356 44q-368 92 -644 356q-24 24 -24 60t24 60l212 212q28 24 62 24t58 -24q104 -96 228 -156q48 -24 48 -80v-264q192 -60 392 -60t392 64v264q0 52 48 76q124 60 228 156q24 24 58 26t62 -26l212 -212q24 -24 24 -60
t-24 -60zM460 1093q-84 48 -160 108l-92 -92q120 -96 252 -164v148zM1748 1201q-76 -60 -160 -108v-144q136 64 252 160z" />
</svg>
