<?xml version="1.0" standalone="no"?>
<!DOCTYPE svg PUBLIC "-//W3C//DTD SVG 1.1//EN" "http://www.w3.org/Graphics/SVG/1.1/DTD/svg11.dtd" >
<svg xmlns="http://www.w3.org/2000/svg" xmlns:xlink="http://www.w3.org/1999/xlink" version="1.1" width="2048" height="2048" viewBox="-10 0 2058 2048">
   <path fill="currentColor"
d="M1911 1441q-218 0 -400 -67h-36q-41 0 -73 31l-243 244q-239 -125 -428 -314t-303 -417l243 -244q26 -21 31.5 -52t-10.5 -57q-57 -202 -57 -399q0 -42 -33.5 -75.5t-75.5 -33.5h-389q-41 0 -74.5 33.5t-33.5 75.5q0 513 254 949q248 430 679 679q435 254 949 254
q41 0 74.5 -33.5t33.5 -75.5v-389q0 -41 -33.5 -75t-74.5 -34zM251 280h166q11 119 52 285l-129 135q-73 -223 -89 -420zM1797 1825q-197 -16 -420 -88l134 -130q177 42 286 42v176zM2019 389v555h-165v-389h-623l270 269l-119 120l-467 -472l467 -472l119 119l-270 270h788
z" />
</svg>
