<?xml version="1.0" standalone="no"?>
<!DOCTYPE svg PUBLIC "-//W3C//DTD SVG 1.1//EN" "http://www.w3.org/Graphics/SVG/1.1/DTD/svg11.dtd" >
<svg xmlns="http://www.w3.org/2000/svg" xmlns:xlink="http://www.w3.org/1999/xlink" version="1.1" width="2048" height="2048" viewBox="-10 0 2058 2048">
   <path fill="currentColor"
d="M539 0q-203 0 -344.5 141.5t-141.5 344t141.5 344t344.5 141.5q161 0 282.5 -88.5t172.5 -235.5h354v324h323v-324h324v-323h-1001q-51 -147 -172.5 -235.5t-282.5 -88.5zM539 324q65 0 113 48t48 113.5t-48 113.5t-113.5 48t-113.5 -48t-48 -113.5t48 -113.5t114 -48z
M807 1188q-97 0 -188 41q-106 50 -166 136q-76 107 -76 253.5t76 252.5q60 86 166 137q91 40 188 40h111v-212h-111q-66 0 -117 -31q-96 -55 -96 -184t86 -185q56 -35 127 -35h111v-213h-111zM1130 1188v213h111q66 0 117 30q96 56 96 185t-86 184q-56 36 -127 36h-111v212
h111q97 0 188 -40q106 -51 166 -137q76 -106 76 -252.5t-76 -253.5q-60 -86 -166 -136q-91 -41 -188 -41h-111zM700 1512v212h648v-212h-648z" />
</svg>
