<?xml version="1.0" standalone="no"?>
<!DOCTYPE svg PUBLIC "-//W3C//DTD SVG 1.1//EN" "http://www.w3.org/Graphics/SVG/1.1/DTD/svg11.dtd" >
<svg xmlns="http://www.w3.org/2000/svg" xmlns:xlink="http://www.w3.org/1999/xlink" version="1.1" width="2048" height="2048" viewBox="-10 0 2058 2048">
   <path fill="currentColor"
d="M1844 1487q-201 0 -369 -63h-34q-38 0 -67 29l-225 226q-221 -115 -396 -290.5t-281 -386.5l226 -225q24 -19 28.5 -48t-9.5 -53q-53 -187 -53 -369q0 -38 -31 -69.5t-69 -31.5h-360q-39 0 -70 31.5t-31 69.5q0 475 235 878q230 398 628 628q403 235 878 235q39 0 70 -31
t31 -70v-359q0 -39 -31 -70t-70 -31zM309 412h154q9 111 48 264l-120 125q-67 -206 -82 -389zM1739 1842q-183 -15 -389 -82l125 -120q163 39 264 39v163zM1763 307h-351v-48q0 -72 50.5 -124.5t122.5 -52.5t125 52.5t53 124.5v48zM1844 307v-48q0 -106 -76.5 -182.5
t-182 -76.5t-180 76.5t-74.5 182.5v48q-43 0 -72 31t-29 74v408q0 43 29 72t72 29h513q43 0 72 -29t29 -72v-408q0 -43 -29 -74t-72 -31z" />
</svg>
