<?xml version="1.0" standalone="no"?>
<!DOCTYPE svg PUBLIC "-//W3C//DTD SVG 1.1//EN" "http://www.w3.org/Graphics/SVG/1.1/DTD/svg11.dtd" >
<svg xmlns="http://www.w3.org/2000/svg" xmlns:xlink="http://www.w3.org/1999/xlink" version="1.1" width="2048" height="2048" viewBox="-10 0 2058 2048">
   <path fill="currentColor"
d="M1916 1211l-126 -126q-18 -18 -38 -18t-38 18l-95 99l189 189l99 -95q18 -13 20.5 -33.5t-11.5 -33.5zM984 1818v198h203l585 -585l-193 -202zM791 2048q-297 -149 -484 -446t-187 -639v-576l864 -387l865 387v297l-194 189v-364l-671 -297l-670 297v472q0 248 135 484
t342 371v212z" />
</svg>
