<?xml version="1.0" standalone="no"?>
<!DOCTYPE svg PUBLIC "-//W3C//DTD SVG 1.1//EN" "http://www.w3.org/Graphics/SVG/1.1/DTD/svg11.dtd" >
<svg xmlns="http://www.w3.org/2000/svg" xmlns:xlink="http://www.w3.org/1999/xlink" version="1.1" width="2048" height="2048" viewBox="-10 0 2068 2048">
   <path fill="currentColor"
d="M2048 1925l-1925 -1925l-123 123l379 380v206h206l96 96h-302v877q0 83 57.5 140t134.5 57v96h197v-96h585v96h197v-96q82 0 141 -64l234 233zM864 1294h-192v-293h192v293zM1742 1371l-563 -566h563v566zM690 320l-242 -247q55 -46 123 -46h979q77 0 134.5 57.5
t57.5 134.5v490h-663l-215 -215v-174h-174z" />
</svg>
