<?xml version="1.0" standalone="no"?>
<!DOCTYPE svg PUBLIC "-//W3C//DTD SVG 1.1//EN" "http://www.w3.org/Graphics/SVG/1.1/DTD/svg11.dtd" >
<svg xmlns="http://www.w3.org/2000/svg" xmlns:xlink="http://www.w3.org/1999/xlink" version="1.1" width="2048" height="2048" viewBox="-10 0 2068 2048">
   <path fill="currentColor"
d="M1756 1013l-152 -684h69v-187h-1486v370h-187v187h187v332q-87 78 -137 184.5t-50 228.5v184h187q0 117 81 197.5t198.5 80.5t198 -80.5t80.5 -197.5h558q0 117 80.5 197.5t198 80.5t198.5 -80.5t81 -197.5h187v-184q0 -143 -80.5 -261t-211.5 -170zM466 1767
q-56 0 -97.5 -39t-41.5 -98t41.5 -100.5t98 -41.5t98 41.5t41.5 100.5t-41.5 98t-98.5 39zM1351 978l-105 -161l131 -87l-100 -153l-419 279l101 153l135 -87l104 161l-82 83h-258l-483 -654v-183h1041l144 649h-209zM1582 1767q-57 0 -98.5 -39t-41.5 -98t41.5 -100.5
t98 -41.5t98 41.5t41.5 100.5t-41.5 98t-97.5 39z" />
</svg>
