<?xml version="1.0" standalone="no"?>
<!DOCTYPE svg PUBLIC "-//W3C//DTD SVG 1.1//EN" "http://www.w3.org/Graphics/SVG/1.1/DTD/svg11.dtd" >
<svg xmlns="http://www.w3.org/2000/svg" xmlns:xlink="http://www.w3.org/1999/xlink" version="1.1" width="2048" height="2048" viewBox="-10 0 2068 2048">
   <path fill="currentColor"
d="M202 0h1231q86 0 146 60t60 142v1644q0 82 -60 142t-146 60h-1231q-82 0 -142 -60t-60 -142v-1644q0 -82 60 -142t142 -60zM308 202q-44 0 -75 31t-31 72t31 72.5t72 31.5t72.5 -31.5t31.5 -72.5t-31.5 -72t-69.5 -31zM615 202q-43 0 -74 31t-31 72t31 72.5t72 31.5
t72 -31.5t31 -72.5t-31 -72t-70 -31zM817 615q-163 0 -305 82t-226 223.5t-84 307.5t84 308t226 226t308 84t307.5 -84t223.5 -226t82 -308t-82 -307.5t-223.5 -223.5t-310.5 -82zM418 870h197q-19 101 -4.5 168.5t62.5 120.5q173 168 135 427h-193q15 -100 0.5 -167.5
t-62.5 -115.5q-173 -168 -135 -433zM832 870h192q-19 101 -2.5 168.5t60.5 120.5q178 168 134 427h-192q19 -100 2.5 -167.5t-60.5 -115.5q-173 -168 -134 -433zM1846 1332h202v206h-202v-206zM1846 510h202v615h-202v-615z" />
</svg>
