<?xml version="1.0" standalone="no"?>
<!DOCTYPE svg PUBLIC "-//W3C//DTD SVG 1.1//EN" "http://www.w3.org/Graphics/SVG/1.1/DTD/svg11.dtd" >
<svg xmlns="http://www.w3.org/2000/svg" xmlns:xlink="http://www.w3.org/1999/xlink" version="1.1" width="2048" height="2048" viewBox="-10 0 2068 2048">
   <path fill="currentColor"
d="M2048 1925l-1925 -1925l-123 123l379 380v1179q0 83 57.5 140t134.5 57v96h197v-96h585v96h197v-96q82 0 141 -64l234 233zM1550 1682h-979v-777h206l773 768v9zM594 219l-146 -146q55 -46 123 -46h979q77 0 134.5 57.5t57.5 134.5v1152l-192 -196v-270h-275l-196 -196
h471v-490h-956zM672 1001h192v293h-192v-293z" />
</svg>
