<?xml version="1.0" standalone="no"?>
<!DOCTYPE svg PUBLIC "-//W3C//DTD SVG 1.1//EN" "http://www.w3.org/Graphics/SVG/1.1/DTD/svg11.dtd" >
<svg xmlns="http://www.w3.org/2000/svg" xmlns:xlink="http://www.w3.org/1999/xlink" version="1.1" width="2048" height="2048" viewBox="-10 0 2068 2048">
   <path fill="currentColor"
d="M2048 1925l-1925 -1925l-123 123l279 284v1376q0 78 57 135t139 57h1171q87 0 141 -64l138 137zM1646 1783h-1171v-1170h10l429 425q-27 45 -50 91q-55 92 -62 197t71 182.5t187.5 77.5t187.5 -77q32 -32 55 -83l343 343v14zM983 613h663v662l196 192v-1248
q0 -77 -57 -134.5t-139 -57.5h-1171q-32 0 -64 10zM864 219q41 0 71 30t30 69t-30 68.5t-69 29.5t-68.5 -29.5t-29.5 -68.5t29.5 -69t66.5 -30z" />
</svg>
