<?xml version="1.0" standalone="no"?>
<!DOCTYPE svg PUBLIC "-//W3C//DTD SVG 1.1//EN" "http://www.w3.org/Graphics/SVG/1.1/DTD/svg11.dtd" >
<svg xmlns="http://www.w3.org/2000/svg" xmlns:xlink="http://www.w3.org/1999/xlink" version="1.1" width="2048" height="2048" viewBox="-10 0 2058 2048">
   <path fill="currentColor"
d="M409 0q-87 0 -147 60t-60 142v1231q0 86 60 146t147 60h101v207h-308v202h308q86 0 146 -60t60 -142v-207h207v207q0 82 60 142t142 60h308v-202h-308v-207h106q81 0 141.5 -60t60.5 -146v-1231q0 -82 -60.5 -142t-141.5 -60h-822zM817 303q87 0 147 60t60 144t-60 144.5
t-144 60.5t-144.5 -60.5t-60.5 -144.5t60.5 -144t141.5 -60zM615 1279h409v154h-409v-154zM1639 1332h207v206h-207v-206zM1639 510h207v615h-207v-615z" />
</svg>
