<?xml version="1.0" standalone="no"?>
<!DOCTYPE svg PUBLIC "-//W3C//DTD SVG 1.1//EN" "http://www.w3.org/Graphics/SVG/1.1/DTD/svg11.dtd" >
<svg xmlns="http://www.w3.org/2000/svg" xmlns:xlink="http://www.w3.org/1999/xlink" version="1.1" width="2048" height="2048" viewBox="-10 0 2058 2048">
   <path fill="currentColor"
d="M308 0h1024q86 0 146 60t60 142v514h-1437v-514q0 -82 60 -142t147 -60zM1538 1740q0 87 -60 147t-146 60v101h-207v-101h-615v101h-202v-101q-87 0 -147 -60t-60 -147v-923h1437v923zM409 308v202h206v-202h-206zM409 1024v308h206v-308h-206zM1740 1332h207v206h-207
v-206zM1740 510h207v615h-207v-615z" />
</svg>
