<?xml version="1.0" standalone="no"?>
<!DOCTYPE svg PUBLIC "-//W3C//DTD SVG 1.1//EN" "http://www.w3.org/Graphics/SVG/1.1/DTD/svg11.dtd" >
<svg xmlns="http://www.w3.org/2000/svg" xmlns:xlink="http://www.w3.org/1999/xlink" version="1.1" width="2048" height="2048" viewBox="-10 0 2068 2048">
   <path fill="currentColor"
d="M888 1092v-136q0 -15 -10 -25t-25 -10h-204v-204q0 -15 -10 -25t-25 -10h-136q-15 0 -25 10t-10 25v204h-204q-15 0 -25 10t-10 25v136q0 15 10 25t25 10h204v204q0 15 10 25t25 10h136q15 0 25 -10t10 -25v-204h204q15 0 25 -10t10 -25zM1502 1160.5q0 -56.5 -40 -96.5
t-96.5 -40t-96.5 40t-40 96.5t40 96.5t96.5 40t96.5 -40t40 -96.5zM1775 887.5q0 -56.5 -40 -97t-96.5 -40.5t-96.5 40.5t-40 97t40 96.5t96.5 40t96.5 -40t40 -96.5zM2048 1024q0 111 -43.5 212t-116.5 174.5t-174 116.5t-212 43q-102 0 -194 -36t-166 -100h-236
q-74 64 -166 100t-194 36q-111 0 -212 -43t-174 -116.5t-116.5 -174.5t-43.5 -212t43.5 -212t116.5 -174.5t174 -116.5t212 -43h956q111 0 212 43t174 116.5t116.5 174.5t43.5 212z" />
</svg>
