<?xml version="1.0" standalone="no"?>
<!DOCTYPE svg PUBLIC "-//W3C//DTD SVG 1.1//EN" "http://www.w3.org/Graphics/SVG/1.1/DTD/svg11.dtd" >
<svg xmlns="http://www.w3.org/2000/svg" xmlns:xlink="http://www.w3.org/1999/xlink" version="1.1" width="2048" height="2048" viewBox="-10 0 2068 2048">
   <path fill="currentColor"
d="M410 1246v102q0 7 -5 12t-12 5h-103q-7 0 -11.5 -5t-4.5 -12v-102q0 -7 4.5 -12t11.5 -5h103q7 0 12 5t5 12zM546 973v103q0 7 -5 12t-12 5h-239q-7 0 -11.5 -5t-4.5 -12v-103q0 -7 4.5 -12t11.5 -5h239q7 0 12 5t5 12zM410 700v102q0 7 -5 12t-12 5h-103q-7 0 -11.5 -5
t-4.5 -12v-102q0 -7 4.5 -12t11.5 -5h103q7 0 12 5t5 12zM1502 1246v102q0 7 -5 12t-12 5h-922q-7 0 -12 -5t-5 -12v-102q0 -7 5 -12t12 -5h922q7 0 12 5t5 12zM820 973v103q0 7 -5.5 12t-12.5 5h-102q-7 0 -12.5 -5t-5.5 -12v-103q0 -7 5.5 -12t12.5 -5h102q7 0 12.5 5
t5.5 12zM682 700v102q0 7 -4.5 12t-11.5 5h-103q-7 0 -12 -5t-5 -12v-102q0 -7 5 -12t12 -5h103q7 0 11.5 5t4.5 12zM1092 973v103q0 7 -5 12t-12 5h-102q-7 0 -12 -5t-5 -12v-103q0 -7 5 -12t12 -5h102q7 0 12 5t5 12zM956 700v102q0 7 -5 12t-12 5h-103q-7 0 -11.5 -5
t-4.5 -12v-102q0 -7 4.5 -12t11.5 -5h103q7 0 12 5t5 12zM1366 973v103q0 7 -5 12t-12 5h-103q-7 0 -12 -5t-5 -12v-103q0 -7 5 -12t12 -5h103q7 0 12 5t5 12zM1775 1246v102q0 7 -5 12t-12 5h-102q-7 0 -12.5 -5t-5.5 -12v-102q0 -7 5.5 -12t12.5 -5h102q7 0 12 5t5 12z
M1229 700v102q0 7 -5 12t-12 5h-102q-7 0 -12.5 -5t-5.5 -12v-102q0 -7 5.5 -12t12.5 -5h102q7 0 12 5t5 12zM1502 700v102q0 7 -5 12t-12 5h-103q-7 0 -11.5 -5t-4.5 -12v-102q0 -7 4.5 -12t11.5 -5h103q7 0 12 5t5 12zM1775 700v376q0 7 -5 12t-12 5h-239q-7 0 -12 -5
t-5 -12v-103q0 -7 5 -12t12 -5h119v-256q0 -7 5.5 -12t12.5 -5h102q7 0 12 5t5 12zM1912 1502v-955h-1776v955h1776zM2048 547v955q0 57 -40 97t-96 40h-1776q-56 0 -96 -40t-40 -97v-955q0 -57 40 -97.5t96 -40.5h1776q56 0 96 40.5t40 97.5z" />
</svg>
