<?xml version="1.0" standalone="no"?>
<!DOCTYPE svg PUBLIC "-//W3C//DTD SVG 1.1//EN" "http://www.w3.org/Graphics/SVG/1.1/DTD/svg11.dtd" >
<svg xmlns="http://www.w3.org/2000/svg" xmlns:xlink="http://www.w3.org/1999/xlink" version="1.1" width="2048" height="2048" viewBox="-10 0 2068 2048">
   <path fill="currentColor"
d="M878 146q-238 0 -439 119t-320 320t-119 439t119 439t320 320t439 119q297 0 535 -183l-138 -137q-182 123 -397 123q-188 0 -343.5 -91.5t-246.5 -247t-91 -342.5t91 -342.5t246.5 -247t343 -91.5t343 91.5t247 247t91.5 342.5h-293l393 389l389 -389h-293
q0 -238 -118.5 -439t-320 -320t-438.5 -119zM457 1138q-14 9 -4 28l86 151q5 13 28 13l110 -45q36 22 73 41l18 114q5 18 23 18h174q9 5 15.5 0.5t6.5 -13.5l19 -115q41 -18 73 -45l110 45q18 5 27 -13l87 -147q9 -18 -5 -32l-96 -68q5 -46 0 -92l96 -73q14 -9 5 -27
l-87 -151q-9 -18 -27 -9l-110 41q-28 -18 -73 -41l-19 -115q-4 -18 -22 -18h-170q-18 0 -22 18l-14 115q-46 18 -78 41l-110 -41q-22 -5 -27 13l-91 147q-5 18 4 32l101 68q-5 23 -5 46t5 46zM877.5 1170q-59.5 0 -103 -43.5t-43.5 -102.5t43.5 -102.5t103 -43.5t103 43.5
t43.5 102.5t-43.5 102.5t-103 43.5z" />
</svg>
