<?xml version="1.0" standalone="no"?>
<!DOCTYPE svg PUBLIC "-//W3C//DTD SVG 1.1//EN" "http://www.w3.org/Graphics/SVG/1.1/DTD/svg11.dtd" >
<svg xmlns="http://www.w3.org/2000/svg" xmlns:xlink="http://www.w3.org/1999/xlink" version="1.1" width="2048" height="2048" viewBox="-10 0 2068 2048">
   <path fill="currentColor"
d="M1897 1201v-730q-201 108 -363 108q-97 0 -172 -39q-118 -58 -217.5 -90.5t-211.5 -32.5q-106 0 -233 43.5t-245 107.5v710q126 -59 263.5 -96.5t250.5 -37.5q65 0 122.5 9t115 30.5t91 36.5t98.5 47l33 17q52 26 120 26q144 0 348 -109zM304 265q0 42 -21 76.5t-55 54.5
v1501q0 16 -11 26.5t-27 10.5h-76q-16 0 -27 -10.5t-11 -26.5v-1501q-35 -20 -55.5 -54.5t-20.5 -76.5q0 -63 44 -107t107 -44t108 44.5t45 106.5zM2048 341v904q0 21 -11.5 39.5t-29.5 28.5q-5 1 -20 11q-45 24 -78 40t-97 42.5t-131.5 40.5t-131.5 14q-103 0 -187 -41
l-34 -17q-58 -29 -88.5 -43t-78.5 -32t-94 -25.5t-98 -7.5q-122 0 -279.5 52.5t-270.5 120.5q-16 11 -39 11q-22 0 -39 -10q-37 -22 -37 -66v-879q0 -43 36 -66q42 -25 93 -50t135.5 -61.5t181.5 -59t183 -22.5q71 0 139.5 11.5t134 34.5t112 43t109.5 50q46 23 106 23
q49 0 103 -13.5t107.5 -37.5t85 -41t71.5 -41q28 -15 37 -20q39 -19 74 2q36 23 36 65z" />
</svg>
