<?xml version="1.0" standalone="no"?>
<!DOCTYPE svg PUBLIC "-//W3C//DTD SVG 1.1//EN" "http://www.w3.org/Graphics/SVG/1.1/DTD/svg11.dtd" >
<svg xmlns="http://www.w3.org/2000/svg" xmlns:xlink="http://www.w3.org/1999/xlink" version="1.1" width="2048" height="2048" viewBox="-10 0 2068 2048">
   <path fill="currentColor"
d="M1170 146q-237 0 -438.5 119t-320 320t-118.5 439h-293l389 389l393 -389h-293q0 -187 91.5 -342.5t247 -247t343 -91.5t343 91.5t246.5 247t91 342.5t-91 342.5t-246.5 247t-343.5 91.5q-215 0 -397 -123l-138 137q238 183 535 183q238 0 439 -119t320 -320t119 -439
t-119 -439t-320 -320t-439 -119zM1591 1138l-101 -68q5 -23 5 -46t-5 -46l101 -68q9 -14 4 -32l-91 -147q-5 -18 -27 -13l-110 41q-32 -23 -78 -41l-14 -115q-4 -18 -22 -18h-170q-18 0 -22 18l-19 115q-45 23 -73 41l-110 -41q-18 -9 -27 9l-87 151q-9 18 5 27l96 73
q-5 46 0 92l-96 68q-14 14 -5 32l87 147q9 18 27 13l110 -45q32 27 73 45l19 115q0 9 6.5 13.5t15.5 -0.5h174q23 0 23 -18l18 -114q37 -19 73 -41l110 45q23 0 28 -13l86 -151q10 -19 -4 -28zM1170.5 1170q-59.5 0 -103 -43.5t-43.5 -102.5t43.5 -102.5t103 -43.5t103 43.5
t43.5 102.5t-43.5 102.5t-103 43.5z" />
</svg>
