<?xml version="1.0" standalone="no"?>
<!DOCTYPE svg PUBLIC "-//W3C//DTD SVG 1.1//EN" "http://www.w3.org/Graphics/SVG/1.1/DTD/svg11.dtd" >
<svg xmlns="http://www.w3.org/2000/svg" xmlns:xlink="http://www.w3.org/1999/xlink" version="1.1" width="2048" height="2048" viewBox="-10 0 2068 2048">
   <path fill="currentColor"
d="M1947 1125h-1846q-43 0 -72 31t-29 75v615q0 43 29 72t72 29h1846q43 0 72 -29t29 -72v-615q0 -44 -29 -75t-72 -31zM1846 1740h-1644v-408h1644v408zM1947 101h-1846q-43 0 -72 29t-29 72v615q0 44 29 75t72 31h1846q43 0 72 -31t29 -75v-615q0 -43 -29 -72t-72 -29z
M1846 716h-1644v-408h1644v408z" />
</svg>
