<?xml version="1.0" standalone="no"?>
<!DOCTYPE svg PUBLIC "-//W3C//DTD SVG 1.1//EN" "http://www.w3.org/Graphics/SVG/1.1/DTD/svg11.dtd" >
<svg xmlns="http://www.w3.org/2000/svg" xmlns:xlink="http://www.w3.org/1999/xlink" version="1.1" width="2048" height="2048" viewBox="-10 0 2068 2048">
   <path fill="currentColor"
d="M512 371l230 230l-141 141l-230 -230l-230 230l-141 -141l230 -230l-230 -230l141 -141l230 230l230 -230l141 141zM2048 1447l-141 -141l-230 230l-230 -230l-141 141l230 230l-230 230l141 141l230 -230l230 230l141 -141l-230 -230zM1865 507l-320 418l-159 -126
l117 -151q-230 42 -406 192.5t-261 366.5q132 99 171.5 261t-35.5 310t-227.5 213.5t-312.5 14t-246.5 -194.5t-61 -307.5t155 -272.5t293.5 -108q38 0 80 9q103 -263 321.5 -444t495.5 -237l-145 -108l126 -160zM822 1574q0 -104 -73 -176.5t-176 -72.5t-176 72.5t-73 176
t73 178.5t176 75t176 -75t73 -178z" />
</svg>
