<?xml version="1.0" standalone="no"?>
<!DOCTYPE svg PUBLIC "-//W3C//DTD SVG 1.1//EN" "http://www.w3.org/Graphics/SVG/1.1/DTD/svg11.dtd" >
<svg xmlns="http://www.w3.org/2000/svg" xmlns:xlink="http://www.w3.org/1999/xlink" version="1.1" width="2048" height="2048" viewBox="-10 0 2068 2048">
   <path fill="currentColor"
d="M1596 1985l-263 -286l111 -112l152 152l345 -344l107 134zM1046 1109v-572h-187v572h187zM1046 1494v-193h-187v193h187zM952 63q260 0 479 127t346.5 346.5t127.5 478.5l-9 125q-85 -31 -179 -31q-156 0 -288 78t-208 210t-76 284q0 134 58 255q-121 32 -251 32
q-259 0 -478 -127.5t-346.5 -347t-127.5 -478.5t127.5 -478.5t346.5 -346.5t478 -127z" />
</svg>
