<?xml version="1.0" standalone="no"?>
<!DOCTYPE svg PUBLIC "-//W3C//DTD SVG 1.1//EN" "http://www.w3.org/Graphics/SVG/1.1/DTD/svg11.dtd" >
<svg xmlns="http://www.w3.org/2000/svg" xmlns:xlink="http://www.w3.org/1999/xlink" version="1.1" width="2048" height="2048" viewBox="-10 0 2068 2048">
   <path fill="currentColor"
d="M2031 1210l-102 102l-208 -203l107 -107q19 -19 38.5 -19t43.5 19l130 136q10 19 7.5 38.5t-16.5 33.5zM1030 1790v213h217l629 -628l-203 -204zM1857 253q0 -87 -60.5 -147.5t-147.5 -60.5h-1441q-87 0 -147.5 60.5t-60.5 147.5v1441q0 87 60.5 147.5t147.5 60.5h619
v-199l111 -111h-730l358 -464l261 309l358 -464l164 218l508 -518v-420z" />
</svg>
