<?xml version="1.0" standalone="no"?>
<!DOCTYPE svg PUBLIC "-//W3C//DTD SVG 1.1//EN" "http://www.w3.org/Graphics/SVG/1.1/DTD/svg11.dtd" >
<svg xmlns="http://www.w3.org/2000/svg" xmlns:xlink="http://www.w3.org/1999/xlink" version="1.1" width="2048" height="2048" viewBox="-10 0 2068 2048">
   <path fill="currentColor"
d="M910 1147v-227q-104 10 -226 48t-229 91v219q110 -52 230 -87.5t225 -43.5zM910 652v-233q-104 5 -225 47t-230 102v224q254 -131 455 -140zM1897 1201v-218q-281 138 -456 84v-265q-31 -11 -46 -18q-5 -2 -43.5 -22t-45.5 -23t-41 -19t-46 -20t-42.5 -15.5t-49 -14.5
t-47 -9t-55.5 -8t-56 -2t-59 3v264h23q122 0 228.5 34.5t233.5 96.5q15 8 46 18v223q47 20 108 20q144 0 348 -109zM1897 695v-224q-201 108 -363 108q-54 0 -93 -10v233q176 49 456 -107zM304 265q0 42 -21 76.5t-55 54.5v1501q0 16 -11 26.5t-27 10.5h-76q-16 0 -27 -10.5
t-11 -26.5v-1501q-35 -20 -55.5 -54.5t-20.5 -76.5q0 -63 44 -107t107 -44t108 44.5t45 106.5zM2048 341v904q0 21 -11.5 39.5t-29.5 28.5q-5 1 -20 11q-45 24 -78 40t-97 42.5t-131.5 40.5t-131.5 14q-103 0 -187 -41l-34 -17q-58 -29 -88.5 -43t-78.5 -32t-94 -25.5
t-98 -7.5q-122 0 -279.5 52.5t-270.5 120.5q-16 11 -39 11q-22 0 -39 -10q-37 -22 -37 -66v-879q0 -43 36 -66q42 -25 93 -50t135.5 -61.5t181.5 -59t183 -22.5q71 0 139.5 11.5t134 34.5t112 43t109.5 50q46 23 106 23q49 0 103 -13.5t107.5 -37.5t85 -41t71.5 -41
q28 -15 37 -20q39 -19 74 2q36 23 36 65z" />
</svg>
