<?xml version="1.0" standalone="no"?>
<!DOCTYPE svg PUBLIC "-//W3C//DTD SVG 1.1//EN" "http://www.w3.org/Graphics/SVG/1.1/DTD/svg11.dtd" >
<svg xmlns="http://www.w3.org/2000/svg" xmlns:xlink="http://www.w3.org/1999/xlink" version="1.1" width="2048" height="2048" viewBox="-10 0 2058 2048">
   <path fill="currentColor"
d="M1513 1865l-270 -292l115 -110l155 155l348 -352l114 137zM754 1851h275q36 60 82 110q-55 87 -160 87q-82 0 -139.5 -57t-57.5 -140zM73 1755v-100l197 -192v-585q0 -229 134.5 -409.5t349.5 -244.5v-32q0 -78 57.5 -135t139.5 -57t139 57t57 135v32q215 64 350 244.5
t135 409.5v105l-96 -9l-96 9v-105q0 -133 -66.5 -245t-178.5 -178t-244.5 -66t-244.5 66t-178 178t-66 245v681h489q0 100 32 196h-910z" />
</svg>
