<?xml version="1.0" standalone="no"?>
<!DOCTYPE svg PUBLIC "-//W3C//DTD SVG 1.1//EN" "http://www.w3.org/Graphics/SVG/1.1/DTD/svg11.dtd" >
<svg xmlns="http://www.w3.org/2000/svg" xmlns:xlink="http://www.w3.org/1999/xlink" version="1.1" width="2048" height="2048" viewBox="-10 0 2068 2048">
   <path fill="currentColor"
d="M1024 0q-279 0 -514.5 137t-372.5 372.5t-137 514.5t137 514.5t372.5 372.5t514.5 137t514.5 -137t372.5 -372.5t137 -514.5t-137 -514.5t-372.5 -372.5t-514.5 -137zM1024 1846q-221 0 -411 -110.5t-300.5 -300.5t-110.5 -411t110.5 -411t300.5 -300.5t411 -110.5
t411 110.5t300.5 300.5t110.5 411t-110.5 411t-300.5 300.5t-411 110.5zM1125 1125v308h207l-308 307l-308 -307h207v-308h202zM308 1125h307v207l308 -308l-308 -308v207h-307v202zM923 923v-308h-207l308 -307l308 307h-207v308h-202zM1740 923h-307v-207l-308 308
l308 308v-207h307v-202z" />
</svg>
