<?xml version="1.0" standalone="no"?>
<!DOCTYPE svg PUBLIC "-//W3C//DTD SVG 1.1//EN" "http://www.w3.org/Graphics/SVG/1.1/DTD/svg11.dtd" >
<svg xmlns="http://www.w3.org/2000/svg" xmlns:xlink="http://www.w3.org/1999/xlink" version="1.1" width="2048" height="2048" viewBox="-10 0 2068 2048">
   <path fill="currentColor"
d="M2031 1210l-102 102l-208 -203l107 -107q19 -19 38.5 -19t43.5 19l130 136q10 19 7.5 38.5t-16.5 33.5zM1030 1790v213h217l629 -628l-203 -204zM846 1370l-203 -247l-280 368h681l261 -257l-174 -232zM827 1790v-92l5 -4h-624v-1441h1441v648l208 -199v-449
q0 -87 -60.5 -147.5t-147.5 -60.5h-1441q-87 0 -147.5 60.5t-60.5 147.5v1441q0 87 60.5 147.5t147.5 60.5h619v-112z" />
</svg>
