<?xml version="1.0" standalone="no"?>
<!DOCTYPE svg PUBLIC "-//W3C//DTD SVG 1.1//EN" "http://www.w3.org/Graphics/SVG/1.1/DTD/svg11.dtd" >
<svg xmlns="http://www.w3.org/2000/svg" xmlns:xlink="http://www.w3.org/1999/xlink" version="1.1" width="2048" height="2048" viewBox="-10 0 2068 2048">
   <path fill="currentColor"
d="M1120 55v491q-46 -9 -96 -9t-96 9v-491h192zM1502 1315q-9 28 -18 55l318 182v441h-195v-332l-219 -123q-68 78 -163.5 121t-200.5 43t-200.5 -43t-163.5 -121l-219 123v332h-195v-441l318 -182q-9 -27 -18 -55h-173l-268 178l-105 -160l314 -213h232q9 -41 27 -82
l-150 -100l-346 86l-45 -196l428 -104l223 150q95 -91 218 -123t246 0t218 123l219 -150l432 104l-45 196l-346 -86l-150 95q18 46 27 87h232l314 209l-105 164l-268 -178h-173zM928 1220q0 -41 -29.5 -70.5t-70.5 -29.5t-68 29.5t-27 70.5t27 68t68 27t70.5 -27t29.5 -68z
M1315 1220q0 -41 -27 -70.5t-68 -29.5t-70.5 29.5t-29.5 70.5t29.5 68t70.5 27t68 -27t27 -68z" />
</svg>
