<?xml version="1.0" standalone="no"?>
<!DOCTYPE svg PUBLIC "-//W3C//DTD SVG 1.1//EN" "http://www.w3.org/Graphics/SVG/1.1/DTD/svg11.dtd" >
<svg xmlns="http://www.w3.org/2000/svg" xmlns:xlink="http://www.w3.org/1999/xlink" version="1.1" width="2048" height="2048" viewBox="-10 0 2058 2048">
   <path fill="currentColor"
d="M345 0q-82 0 -139 57t-57 135v1563q0 78 57 135t139 57h389v-182l978 -979v-201l-585 -585h-782zM1026 146l540 535h-540v-535zM1721 1070q-18 0 -41 23l-96 96l206 205l96 -100q13 -14 13 -37t-13 -41l-128 -123q-19 -23 -37 -23zM1525 1248l-595 594v206h206l594 -594z
" />
</svg>
