<?xml version="1.0" standalone="no"?>
<!DOCTYPE svg PUBLIC "-//W3C//DTD SVG 1.1//EN" "http://www.w3.org/Graphics/SVG/1.1/DTD/svg11.dtd" >
<svg xmlns="http://www.w3.org/2000/svg" xmlns:xlink="http://www.w3.org/1999/xlink" version="1.1" width="2048" height="2048" viewBox="-10 0 2068 2048">
   <path fill="currentColor"
d="M1846 151v207h-1644v-207h-202v823h202v-207q202 0 356 67q129 53 245 164q72 67 199.5 218.5t204.5 223.5q125 120 264 178q164 72 375 72v207h202v-616h-202v207q-163 0 -293 -58q-111 -48 -212 -144q-62 -62 -182 -202q-140 -168 -222 -245q-139 -130 -298 -197
q-192 -77 -437 -77h1644v202h202v-616h-202z" />
</svg>
