<?xml version="1.0" standalone="no"?>
<!DOCTYPE svg PUBLIC "-//W3C//DTD SVG 1.1//EN" "http://www.w3.org/Graphics/SVG/1.1/DTD/svg11.dtd" >
<svg xmlns="http://www.w3.org/2000/svg" xmlns:xlink="http://www.w3.org/1999/xlink" version="1.1" width="2048" height="2048" viewBox="-10 0 2068 2048">
   <path fill="currentColor"
d="M1486 12q62 0 107.5 45.5t45.5 108t-45.5 108.5t-108 46t-108 -46t-45.5 -108.5t45.5 -108t108.5 -45.5zM1846 1627q82 0 142 60.5t60 144.5t-60 144t-142 60q-58 0 -106 -26.5t-72 -74.5h-981q-24 48 -72 74.5t-105 26.5q-82 0 -142 -60t-60 -144t60 -144.5t142 -60.5
q57 0 105 29t72 72h438v-562l-332 -231l-307 284q-29 29 -72.5 26.5t-72.5 -36.5l-312 -336q-29 -29 -29 -72.5t31 -72.5t74.5 -26.5t72.5 31.5l245 265l736 -683q28 -29 71.5 -26.5t72.5 36.5l231 278h312q39 0 70 29t31 72.5t-31 72t-70 28.5h-360q-53 0 -87 -43
l-154 -183l-259 241l302 211q44 29 44 82v615h62q34 -144 147 -242.5t262 -112.5l-82 -462h154l111 649q-68 -34 -140 -34q-101 0 -180.5 55.5t-112.5 146.5h115q24 -43 72 -72t106 -29z" />
</svg>
