<?xml version="1.0" standalone="no"?>
<!DOCTYPE svg PUBLIC "-//W3C//DTD SVG 1.1//EN" "http://www.w3.org/Graphics/SVG/1.1/DTD/svg11.dtd" >
<svg xmlns="http://www.w3.org/2000/svg" xmlns:xlink="http://www.w3.org/1999/xlink" version="1.1" width="2048" height="2048" viewBox="-10 0 2068 2048">
   <path fill="currentColor"
d="M1068 936q112 0 189.5 -79t77.5 -189.5t-77.5 -187.5t-188 -77t-189.5 77t-79 187.5t79 189.5t188 79zM1068 578q29 0 52 16.5t33.5 39.5t4 50t-25 46t-46 25t-52.5 -4.5t-39.5 -33.5t-14.5 -48q0 -37 25 -64t63 -27zM1435 924q79 -117 79 -256.5t-79 -252.5
q37 -12 79 -12q113 0 190 77t77 187.5t-77 189.5t-190 79q-42 0 -79 -12zM1068 1112q-150 0 -259 37q-96 34 -158 88q-50 46 -80 108q-25 42 -33 88l-4 37v175h1068v-175l-4 -37q-9 -46 -30 -88q-29 -62 -79 -108q-67 -54 -158 -88q-113 -37 -263 -37zM713 1470
q0 -29 21 -58q29 -50 96 -79q92 -42 238 -42q200 0 296 75q54 42 63 104h-714zM2048 1470v175h-267v-175q-4 -100 -46 -191.5t-112 -158.5q146 12 246 71q79 46 125 121q33 50 46 108zM567 749l100 125l-421 425l-246 -267l104 -104l142 142z" />
</svg>
