<?xml version="1.0" standalone="no"?>
<!DOCTYPE svg PUBLIC "-//W3C//DTD SVG 1.1//EN" "http://www.w3.org/Graphics/SVG/1.1/DTD/svg11.dtd" >
<svg xmlns="http://www.w3.org/2000/svg" xmlns:xlink="http://www.w3.org/1999/xlink" version="1.1" width="2048" height="2048" viewBox="-10 0 2058 2048">
   <path fill="currentColor"
d="M1688 1596q70 -108 70 -240q0 -188 -131.5 -320t-320 -132t-320 132t-131.5 320t131.5 320t319.5 132q128 0 236 -71l315 311l142 -141zM1306 1605q-103 0 -178.5 -73t-75.5 -176.5t75.5 -176.5t179 -73t176.5 73t73 176.5t-73 176.5t-177 73zM1857 603h-202v-203h202
v203zM1857 202h-202v-202h103q38 0 68.5 30.5t30.5 68.5v103zM1655 805h202v198h-4q-76 -118 -198 -198zM1457 202h-202v-202h202v202zM1052 202h-197v-202h197v202zM49 400h203v203h-203v-203zM450 1605h202v203h-202v-203zM49 805h203v198h-203v-198zM148 0h104v202h-203
v-103q0 -38 31 -68.5t68 -30.5zM652 202h-202v-202h202v202zM49 1605h203v203h-104q-37 0 -68 -30.5t-31 -68.5v-104zM49 1205h203v203h-203v-203z" />
</svg>
