<?xml version="1.0" standalone="no"?>
<!DOCTYPE svg PUBLIC "-//W3C//DTD SVG 1.1//EN" "http://www.w3.org/Graphics/SVG/1.1/DTD/svg11.dtd" >
<svg xmlns="http://www.w3.org/2000/svg" xmlns:xlink="http://www.w3.org/1999/xlink" version="1.1" width="2048" height="2048" viewBox="-10 0 2058 2048">
   <path fill="currentColor"
d="M1657 1617q68 -103 68 -229q0 -180 -126 -305.5t-305.5 -125.5t-305.5 125.5t-126 305t126 305.5t305 126q122 0 225 -67l301 296l135 -135zM1293 1626q-98 0 -170 -69.5t-72 -168.5t72 -168.5t170.5 -69.5t168.5 69.5t70 168.5t-70 168.5t-169 69.5zM728 1648l-634 -494
l158 -121l417 328v27q0 135 59 260zM252 790l-158 -121l863 -669l862 669l-225 175q-139 -80 -301 -80q-193 0 -350 107.5t-224 282.5z" />
</svg>
