<?xml version="1.0" standalone="no"?>
<!DOCTYPE svg PUBLIC "-//W3C//DTD SVG 1.1//EN" "http://www.w3.org/Graphics/SVG/1.1/DTD/svg11.dtd" >
<svg xmlns="http://www.w3.org/2000/svg" xmlns:xlink="http://www.w3.org/1999/xlink" version="1.1" width="2048" height="2048" viewBox="-10 0 2068 2048">
   <path fill="currentColor"
d="M2048 1461v171h-261v-171q0 -102 -43 -190t-116 -153q147 12 245 69q77 45 122 118q33 49 45 107zM1526 416q110 0 185.5 75.5t75.5 183.5t-75.5 185.5t-185.5 77.5q-41 0 -78 -12q78 -114 78 -250.5t-78 -247.5q37 -12 78 -12zM1089 416q110 0 185.5 75.5t75.5 183.5
t-75.5 185.5t-183.5 77.5t-185.5 -77.5t-77.5 -185.5t77.5 -183.5t183.5 -75.5zM1611 1461v171h-1044v-171q0 -98 71.5 -177.5t192 -126.5t261 -47t261 47t189.5 126.5t69 177.5zM0 1122l184 -184l-184 -187l122 -123l184 188l188 -188l122 123l-188 187l188 184l-122 122
l-188 -183l-184 183z" />
</svg>
