<?xml version="1.0" standalone="no"?>
<!DOCTYPE svg PUBLIC "-//W3C//DTD SVG 1.1//EN" "http://www.w3.org/Graphics/SVG/1.1/DTD/svg11.dtd" >
<svg xmlns="http://www.w3.org/2000/svg" xmlns:xlink="http://www.w3.org/1999/xlink" version="1.1" width="2048" height="2048" viewBox="-10 0 2068 2048">
   <path fill="currentColor"
d="M0 0v654l654 -654h-654zM1582 1394h-53l-78 -74q131 -174 131 -388q0 -178 -87.5 -328.5t-237.5 -237.5t-325 -87q-217 0 -392 131q-143 109 -208.5 268t-46 331t124 313.5t266 207t333.5 46t311 -124.5l74 74v57l467 466l187 -187zM1264 1133l-131 131l-196 -196
l-196 196l-135 -131l200 -196l-200 -201l135 -130l196 196l196 -196l131 130l-196 201z" />
</svg>
