<?xml version="1.0" standalone="no"?>
<!DOCTYPE svg PUBLIC "-//W3C//DTD SVG 1.1//EN" "http://www.w3.org/Graphics/SVG/1.1/DTD/svg11.dtd" >
<svg xmlns="http://www.w3.org/2000/svg" xmlns:xlink="http://www.w3.org/1999/xlink" version="1.1" width="2048" height="2048" viewBox="-10 0 2068 2048">
   <path fill="currentColor"
d="M710 1005l-578 578q-13 12 -29.5 12t-28.5 -12l-62 -63q-12 -12 -12 -28t12 -28l487 -488l-487 -487q-12 -12 -12 -28.5t12 -28.5l62 -62q12 -12 28.5 -12t29.5 12l578 577q12 12 12 28.5t-12 29.5zM2048 1571v79q0 17 -11.5 28.5t-28.5 11.5h-1191q-17 0 -28.5 -11.5
t-11.5 -28.5v-79q0 -17 11.5 -28t28.5 -11h1191q17 0 28.5 11t11.5 28z" />
</svg>
