<?xml version="1.0" standalone="no"?>
<!DOCTYPE svg PUBLIC "-//W3C//DTD SVG 1.1//EN" "http://www.w3.org/Graphics/SVG/1.1/DTD/svg11.dtd" >
<svg xmlns="http://www.w3.org/2000/svg" xmlns:xlink="http://www.w3.org/1999/xlink" version="1.1" width="2048" height="2048" viewBox="-10 0 2058 2048">
   <path fill="currentColor"
d="M923 0q-399 0 -582 67q-240 96 -240 342v1024q0 139 106 230v183q0 43 28.5 72t72.5 29h101q43 0 74 -29t31 -72v-106h616q-96 -168 -106 -355q5 -140 70 -262.5t175 -199.5h-961v-514h1230v408h53q77 0 154 24v-432q0 -246 -240 -342q-183 -67 -582 -67zM462 1231
q62 0 107.5 43t45.5 108t-45.5 110.5t-108 45.5t-108 -45.5t-45.5 -110.5t45.5 -108t108.5 -43zM1591 1024q-149 0 -254.5 106t-105.5 255q0 115 91 288q67 125 173 264l96 111l92 -111q105 -139 173 -264q91 -173 91 -288q0 -149 -105.5 -255t-250.5 -106zM1591 1514
q-53 0 -89 -36t-36 -86.5t36 -86.5t86.5 -33.5t86.5 36t38.5 86.5t-36 89t-86.5 31z" />
</svg>
