<?xml version="1.0" standalone="no"?>
<!DOCTYPE svg PUBLIC "-//W3C//DTD SVG 1.1//EN" "http://www.w3.org/Graphics/SVG/1.1/DTD/svg11.dtd" >
<svg xmlns="http://www.w3.org/2000/svg" xmlns:xlink="http://www.w3.org/1999/xlink" version="1.1" width="2048" height="2048" viewBox="-10 0 2068 2048">
   <path fill="currentColor"
d="M410 923v154h154v153h153v-307h-307zM1077 410h-154v307h307v-153h-153v-154zM799 1537q158 62 326 31t290 -153t153 -290t-31 -326zM444 444q177 -173 421.5 -221t474.5 48q10 -105 68 -196q-288 -115 -587.5 -53t-518 280.5t-280.5 518t53 582.5q91 -58 196 -67
q-96 -226 -48 -470.5t221 -421.5zM1604 1604q-177 173 -421.5 221t-474.5 -48q-10 105 -68 196q288 115 587.5 53t518 -280.5t280.5 -518t-53 -582.5q-91 58 -196 67q96 226 48 470.5t-221 421.5zM410 923v154h154v153h153v-307h-307zM799 1537q158 62 326 31t290 -153
t153 -290t-31 -326zM1077 410h-154v307h307v-153h-153v-154zM410 923v154h154v153h153v-307h-307zM1077 410h-154v307h307v-153h-153v-154zM799 1537q158 62 326 31t290 -153t153 -290t-31 -326zM300 1945q-82 0 -141.5 -60t-59.5 -144t59.5 -144t141.5 -60h206v201
q0 87 -60 151.5t-146 59.5v-4zM1748 99q82 0 141.5 59.5t59.5 143.5t-59.5 144t-141.5 60h-206v-206q0 -82 60 -141.5t146 -59.5z" />
</svg>
