<?xml version="1.0" standalone="no"?>
<!DOCTYPE svg PUBLIC "-//W3C//DTD SVG 1.1//EN" "http://www.w3.org/Graphics/SVG/1.1/DTD/svg11.dtd" >
<svg xmlns="http://www.w3.org/2000/svg" xmlns:xlink="http://www.w3.org/1999/xlink" version="1.1" width="2048" height="2048" viewBox="-10 0 2068 2048">
   <path fill="currentColor"
d="M1655 1435l-55 -50l-14 -9q-173 -169 -228 -238q-92 -114 -92 -207.5t64 -155.5t155.5 -62t169.5 78q78 -78 171.5 -78t157.5 62t64 153t-82 192q-51 64 -206 215zM1042 242h-164v-192h-585v192h-170q-50 0 -86.5 39t-36.5 89v1491q0 59 36.5 98t86.5 39h910
q50 0 89 -36.5t39 -87.5v-1504q5 -50 -31.5 -89t-87.5 -39zM974 1806h-782v-1367h782v1367z" />
</svg>
