<?xml version="1.0" standalone="no"?>
<!DOCTYPE svg PUBLIC "-//W3C//DTD SVG 1.1//EN" "http://www.w3.org/Graphics/SVG/1.1/DTD/svg11.dtd" >
<svg xmlns="http://www.w3.org/2000/svg" xmlns:xlink="http://www.w3.org/1999/xlink" version="1.1" width="2048" height="2048" viewBox="-10 0 2068 2048">
   <path fill="currentColor"
d="M0 420v1208q0 78 54.5 132.5t132.5 54.5h558v-928h1116v-467q0 -78 -54.5 -132.5t-133.5 -54.5h-1486q-78 0 -132.5 54.5t-54.5 132.5zM187 420h371v279h-371v-279zM558 1628h-371v-279h371v279zM558 1166h-371v-279h371v279zM745 699v-279h371v279h-371zM1673 699h-370
v-279h370v279zM1490 1349q39 0 65.5 28t26.5 67.5t-26.5 65.5t-65.5 26t-67.5 -26t-28.5 -65.5t28.5 -67.5t67.5 -28zM1490 1070q183 0 335.5 102.5t222.5 271.5q-70 166 -222.5 268.5t-335.5 102.5t-335.5 -102.5t-222.5 -268.5q70 -169 222.5 -271.5t335.5 -102.5z
M1490 1209q-96 0 -165.5 70t-69.5 165.5t69.5 163t165.5 67.5t163.5 -67.5t67.5 -163t-67.5 -165.5t-163.5 -70z" />
</svg>
