<?xml version="1.0" standalone="no"?>
<!DOCTYPE svg PUBLIC "-//W3C//DTD SVG 1.1//EN" "http://www.w3.org/Graphics/SVG/1.1/DTD/svg11.dtd" >
<svg xmlns="http://www.w3.org/2000/svg" xmlns:xlink="http://www.w3.org/1999/xlink" version="1.1" width="2048" height="2048" viewBox="-10 0 2058 2048">
   <path fill="currentColor"
d="M1505 202h-173v-202h-616v202h-173q-53 0 -93.5 41t-40.5 98v1572q0 58 40.5 96.5t93.5 38.5h962q53 0 93.5 -38.5t40.5 -96.5v-1572q0 -57 -40.5 -98t-93.5 -41zM1082 1399l-58 53l-62 -58q-193 -173 -250 -250q-97 -115 -97 -221q-4 -96 63 -161t163 -65q111 0 183 82
q72 -82 183 -82q96 0 163 65t63 161q0 106 -97 221q-57 77 -250 250z" />
</svg>
