<?xml version="1.0" standalone="no"?>
<!DOCTYPE svg PUBLIC "-//W3C//DTD SVG 1.1//EN" "http://www.w3.org/Graphics/SVG/1.1/DTD/svg11.dtd" >
<svg xmlns="http://www.w3.org/2000/svg" xmlns:xlink="http://www.w3.org/1999/xlink" version="1.1" width="2048" height="2048" viewBox="-10 0 2068 2048">
   <path fill="currentColor"
d="M131 48l-118 118l105 109q-53 17 -85.5 65t-32.5 104v1207q0 79 54.5 133.5t132.5 54.5h558v-928h9l335 335q-104 92 -157 222q70 170 222.5 270.5t335.5 100.5q87 0 170 -26l188 187l117 -118l-144 -143zM558 1651h-371v-278h371v278zM558 1190h-371v-279h371v279z
M558 723h-371v-279h105l266 271v8zM1490 1699q-113 0 -182.5 -87t-43.5 -196l279 279q-27 4 -53 4zM1416 1094l153 152q100 35 139 140l240 239q61 -69 100 -157q-70 -169 -222.5 -271.5t-335.5 -102.5h-74zM1116 444v279h-75l188 188h632v-467q0 -78 -54.5 -132.5
t-133.5 -54.5h-1093l183 187h353zM1303 444h370v279h-370v-279z" />
</svg>
