<?xml version="1.0" standalone="no"?>
<!DOCTYPE svg PUBLIC "-//W3C//DTD SVG 1.1//EN" "http://www.w3.org/Graphics/SVG/1.1/DTD/svg11.dtd" >
<svg xmlns="http://www.w3.org/2000/svg" xmlns:xlink="http://www.w3.org/1999/xlink" version="1.1" width="2048" height="2048" viewBox="-10 0 2068 2048">
   <path fill="currentColor"
d="M462 308q-68 0 -111 43t-43 108t43 110.5t108 45.5t110.5 -45.5t45.5 -110.5t-45.5 -108t-107.5 -43zM462 308q-68 0 -111 43t-43 108t43 110.5t108 45.5t110.5 -45.5t45.5 -110.5t-45.5 -108t-107.5 -43zM1990 981l-923 -923q-62 -58 -144 -58h-721q-82 0 -142 60
t-60 142v721q0 82 58 144l43 39q101 -58 211 -72l-110 -111v-721h721l923 923l-721 721l-111 -110q-14 110 -72 211l39 43q62 58 146 58t142 -58l721 -721q58 -58 58 -142t-58 -146zM462 308q-68 0 -111 43t-43 108t43 110.5t108 45.5t110.5 -45.5t45.5 -110.5t-45.5 -108
t-107.5 -43zM817 1740h-817v-202h817v202z" />
</svg>
