<?xml version="1.0" standalone="no"?>
<!DOCTYPE svg PUBLIC "-//W3C//DTD SVG 1.1//EN" "http://www.w3.org/Graphics/SVG/1.1/DTD/svg11.dtd" >
<svg xmlns="http://www.w3.org/2000/svg" xmlns:xlink="http://www.w3.org/1999/xlink" version="1.1" width="2048" height="2048" viewBox="-10 0 2068 2048">
   <path fill="currentColor"
d="M1551 1977l-291 -315l123 -119l168 168l374 -379l123 147zM0 71h1890v212q-88 0 -149.5 61.5t-61.5 145.5v527q-109 0 -207 34v-768h-1054v207h527v108h-527v104h316v103h-316v108h316v104h-316v103h527v108h-527v104h316v103h-316v315h640q20 113 74 212h-714
q-83 0 -144.5 -61.5t-61.5 -150.5v-1260q0 -84 -61.5 -145.5t-150.5 -61.5v-212z" />
</svg>
