<?xml version="1.0" standalone="no"?>
<!DOCTYPE svg PUBLIC "-//W3C//DTD SVG 1.1//EN" "http://www.w3.org/Graphics/SVG/1.1/DTD/svg11.dtd" >
<svg xmlns="http://www.w3.org/2000/svg" xmlns:xlink="http://www.w3.org/1999/xlink" version="1.1" width="2048" height="2048" viewBox="-10 0 2068 2048">
   <path fill="currentColor"
d="M1551 1977l-291 -315l123 -119l168 168l374 -379l123 147zM0 71h1890v212q-88 0 -149.5 61.5t-61.5 145.5v527q-168 0 -313 83.5t-231 228.5t-86 317.5t83 315.5h-714q-83 0 -144.5 -61.5t-61.5 -150.5v-1260q0 -84 -61.5 -145.5t-150.5 -61.5v-212zM418 702v103h316
v-103h-316zM418 913v104h316v-104h-316zM734 1435v-103h-316v103h316zM945 1228v-108h-527v108h527zM945 598v-108h-527v108h527z" />
</svg>
