<?xml version="1.0" standalone="no"?>
<!DOCTYPE svg PUBLIC "-//W3C//DTD SVG 1.1//EN" "http://www.w3.org/Graphics/SVG/1.1/DTD/svg11.dtd" >
<svg xmlns="http://www.w3.org/2000/svg" xmlns:xlink="http://www.w3.org/1999/xlink" version="1.1" width="2048" height="2048" viewBox="-10 0 2068 2048">
   <path fill="currentColor"
d="M1535 1180h206v307h307v201h-307v307h-206v-307h-307v-201h307v-307zM0 53h1842v206q-87 0 -146.5 60t-59.5 141v514q-164 0 -305.5 81.5t-225 223t-83.5 309t81 307.5h-695q-82 0 -142 -60t-60 -147v-1228q0 -81 -60 -141t-146 -60v-206zM408 667v100h307v-100h-307z
M408 873v101h307v-101h-307zM715 1381v-100h-307v100h307zM921 1180v-106h-513v106h513zM921 566v-106h-513v106h513z" />
</svg>
