<?xml version="1.0" standalone="no"?>
<!DOCTYPE svg PUBLIC "-//W3C//DTD SVG 1.1//EN" "http://www.w3.org/Graphics/SVG/1.1/DTD/svg11.dtd" >
<svg xmlns="http://www.w3.org/2000/svg" xmlns:xlink="http://www.w3.org/1999/xlink" version="1.1" width="2048" height="2048" viewBox="-10 0 2068 2048">
   <path fill="currentColor"
d="M1598 634l450 -446l-138 -142l-1864 1864l142 138l446 -450l303 303q59 55 139.5 55t135.5 -55l689 -689q55 -55 55 -135.5t-55 -139.5zM354 1313l964 -955l-299 -303q-59 -55 -137 -55h-689q-78 0 -135.5 57.5t-57.5 135.5v689q0 78 55 137zM340 193q64 0 105.5 43.5
t41.5 105.5t-41.5 103.5t-103.5 41.5t-105.5 -41.5t-43.5 -103.5t43.5 -105.5t103.5 -43.5z" />
</svg>
