<?xml version="1.0" standalone="no"?>
<!DOCTYPE svg PUBLIC "-//W3C//DTD SVG 1.1//EN" "http://www.w3.org/Graphics/SVG/1.1/DTD/svg11.dtd" >
<svg xmlns="http://www.w3.org/2000/svg" xmlns:xlink="http://www.w3.org/1999/xlink" version="1.1" width="2048" height="2048" viewBox="-10 0 2068 2048">
   <path fill="currentColor"
d="M2048 1537v202h-820v-202h820zM0 103h1842v206q-87 0 -146.5 60t-59.5 142v513q-164 0 -305.5 81.5t-225 223t-83.5 309.5t81 307h-695q-82 0 -142 -60t-60 -146v-1228q0 -82 -60 -142t-146 -60v-206zM408 717v101h307v-101h-307zM408 923v101h307v-101h-307zM715 1432
v-101h-307v101h307zM921 1230v-105h-513v105h513zM921 616v-105h-513v105h513z" />
</svg>
