<?xml version="1.0" standalone="no"?>
<!DOCTYPE svg PUBLIC "-//W3C//DTD SVG 1.1//EN" "http://www.w3.org/Graphics/SVG/1.1/DTD/svg11.dtd" >
<svg xmlns="http://www.w3.org/2000/svg" xmlns:xlink="http://www.w3.org/1999/xlink" version="1.1" width="2048" height="2048" viewBox="-10 0 2068 2048">
   <path fill="currentColor"
d="M1907 1301l-210 206l-207 -206l-140 140l206 206l-206 211l140 141l207 -211l210 211l141 -141l-211 -211l211 -206zM1397 251v459l-539 539h-150l-202 -600h94v-600h-600v600h300l197 600h-99v600h600v-459l539 -539h459v-600h-599zM398 448h-201v-197h201v197z
M797 1647h-197v-197h197v197zM1800 649h-202v-201h202v201z" />
</svg>
