<?xml version="1.0" standalone="no"?>
<!DOCTYPE svg PUBLIC "-//W3C//DTD SVG 1.1//EN" "http://www.w3.org/Graphics/SVG/1.1/DTD/svg11.dtd" >
<svg xmlns="http://www.w3.org/2000/svg" xmlns:xlink="http://www.w3.org/1999/xlink" version="1.1" width="2048" height="2048" viewBox="-10 0 2068 2048">
   <path fill="currentColor"
d="M1535 1180h206v307h307v201h-307v307h-206v-307h-307v-201h307v-307zM0 53h1842v206q-87 0 -146.5 60t-59.5 141v514q-106 0 -202 33v-748h-1026v201h513v106h-513v101h307v100h-307v106h307v101h-307v100h513v106h-513v101h307v100h-307v307h623q19 111 72 207h-695
q-82 0 -142 -60t-60 -147v-1228q0 -81 -60 -141t-146 -60v-206z" />
</svg>
