<?xml version="1.0" standalone="no"?>
<!DOCTYPE svg PUBLIC "-//W3C//DTD SVG 1.1//EN" "http://www.w3.org/Graphics/SVG/1.1/DTD/svg11.dtd" >
<svg xmlns="http://www.w3.org/2000/svg" xmlns:xlink="http://www.w3.org/1999/xlink" version="1.1" width="2048" height="2048" viewBox="-10 0 2058 2048">
   <path fill="currentColor"
d="M1300 1423l145 -149l216 221l221 -216l144 144l-221 216l221 217l-144 149l-221 -221l-216 216l-145 -144l217 -217zM228 1740q0 44 29 75t72 31h755q39 115 120 202h-875q-129 0 -218 -89t-89 -219q0 -91 53 -168l562 -976v-187q-43 0 -72 -31.5t-29 -69.5v-106
q0 -82 60 -142t142 -60h413q82 0 142 60t60 142v106q0 38 -28.5 69.5t-72.5 31.5v187l255 447q-101 24 -183 82l-278 -476v-447h-202v447l-596 1034q-20 28 -20 57z" />
</svg>
