<?xml version="1.0" standalone="no"?>
<!DOCTYPE svg PUBLIC "-//W3C//DTD SVG 1.1//EN" "http://www.w3.org/Graphics/SVG/1.1/DTD/svg11.dtd" >
<svg xmlns="http://www.w3.org/2000/svg" xmlns:xlink="http://www.w3.org/1999/xlink" version="1.1" width="2048" height="2048" viewBox="-10 0 2068 2048">
   <path fill="currentColor"
d="M1306 1402l148 -152l221 226l226 -221l147 147l-226 221l226 221l-147 152l-226 -225l-221 221l-148 -148l221 -221zM0 52h1886v211q-88 0 -149.5 61.5t-61.5 144.5v526q-108 0 -207 34v-766h-1051v206h526v108h-526v103h315v103h-315v108h315v104h-315v103h526v108h-526
v103h315v103h-315v314h639q20 113 74 211h-713q-83 0 -144.5 -61t-61.5 -150v-1257q0 -83 -61.5 -144.5t-149.5 -61.5v-211z" />
</svg>
