<?xml version="1.0" standalone="no"?>
<!DOCTYPE svg PUBLIC "-//W3C//DTD SVG 1.1//EN" "http://www.w3.org/Graphics/SVG/1.1/DTD/svg11.dtd" >
<svg xmlns="http://www.w3.org/2000/svg" xmlns:xlink="http://www.w3.org/1999/xlink" version="1.1" width="2048" height="2048" viewBox="-10 0 2068 2048">
   <path fill="currentColor"
d="M1306 1402l148 -152l221 226l226 -221l147 147l-226 221l226 221l-147 152l-226 -225l-221 221l-148 -148l221 -221zM0 52h1886v211q-88 0 -149.5 61.5t-61.5 144.5v526q-167 0 -312 83.5t-231 228t-86 316.5t84 314h-713q-83 0 -144.5 -61t-61.5 -150v-1257
q0 -83 -61.5 -144.5t-149.5 -61.5v-211zM417 680v103h315v-103h-315zM417 891v104h315v-104h-315zM732 1412v-103h-315v103h315zM943 1206v-108h-526v108h526zM943 577v-108h-526v108h526z" />
</svg>
