<?xml version="1.0" standalone="no"?>
<!DOCTYPE svg PUBLIC "-//W3C//DTD SVG 1.1//EN" "http://www.w3.org/Graphics/SVG/1.1/DTD/svg11.dtd" >
<svg xmlns="http://www.w3.org/2000/svg" xmlns:xlink="http://www.w3.org/1999/xlink" version="1.1" width="2048" height="2048" viewBox="-10 0 2068 2048">
   <path fill="currentColor"
d="M1925 2048l-476 -471v9h-192v-205l-196 -197v402h-96v-498l-101 -96v594h-293v-887l-96 -100v987h-96v-1083l-379 -380l123 -123l1134 1134l293 292l160 160l338 339zM1449 416h-192v466l192 197v-663zM1061 416h-96v174l96 100v-274zM1842 416h-292v759l292 292v-1051z
M2034 1586v-1170h-96v1152l19 18h77zM864 416h-78l78 78v-78zM87 1586h192v-1170h-192v1170z" />
</svg>
