<?xml version="1.0" standalone="no"?>
<!DOCTYPE svg PUBLIC "-//W3C//DTD SVG 1.1//EN" "http://www.w3.org/Graphics/SVG/1.1/DTD/svg11.dtd" >
<svg xmlns="http://www.w3.org/2000/svg" xmlns:xlink="http://www.w3.org/1999/xlink" version="1.1" width="2048" height="2048" viewBox="-11 0 2070 2048">
   <path fill="currentColor"
d="M1459 1186l317 -307l-438 -65l-81 -12l-37 -74l-196 -397v1186l72 38l392 207l-74 -437l-15 -81zM2016 863l-447 436l106 616q6 40 -7 63t-42 23q-21 0 -49 -15l-553 -291l-552 291q-29 15 -50 15q-29 0 -42.5 -23t-7.5 -63l107 -616l-448 -436q-40 -39 -29 -73.5
t67 -42.5l618 -89l277 -560q24 -51 60 -51q34 0 60 51l277 560l619 89q55 8 66 42.5t-30 73.5z" />
</svg>
