<?xml version="1.0" standalone="no"?>
<!DOCTYPE svg PUBLIC "-//W3C//DTD SVG 1.1//EN" "http://www.w3.org/Graphics/SVG/1.1/DTD/svg11.dtd" >
<svg xmlns="http://www.w3.org/2000/svg" xmlns:xlink="http://www.w3.org/1999/xlink" version="1.1" width="2048" height="2048" viewBox="-10 0 2058 2048">
   <path fill="currentColor"
d="M1332 1332q0 129 -89 218t-219 89t-219 -89t-89 -218v-101h207v101q0 43 29 72t72 29t72 -29t29 -72v-101h207v101zM1740 1332q0 197 -96 360.5t-259.5 259.5t-360.5 96t-360.5 -96t-259.5 -259.5t-96 -360.5q0 -212 113 -387.5t295 -261.5v-375q0 -44 31.5 -75t69.5 -31
h53l-101 -202h510l-101 202h53q38 0 69.5 31t31.5 75v375q182 86 295 261.5t113 387.5zM923 409v418q-178 38 -295.5 180t-117.5 325q0 139 69.5 257t187.5 187.5t257 69.5t257 -69.5t187.5 -187.5t69.5 -257q0 -183 -117.5 -325t-295.5 -180v-418h-202z" />
</svg>
