<?xml version="1.0" standalone="no"?>
<!DOCTYPE svg PUBLIC "-//W3C//DTD SVG 1.1//EN" "http://www.w3.org/Graphics/SVG/1.1/DTD/svg11.dtd" >
<svg xmlns="http://www.w3.org/2000/svg" xmlns:xlink="http://www.w3.org/1999/xlink" version="1.1" width="2048" height="2048" viewBox="-10 0 2058 2048">
   <path fill="currentColor"
d="M1740 1332q0 197 -96 360.5t-259.5 259.5t-360.5 96t-360.5 -96t-259.5 -259.5t-96 -360.5q0 -212 113 -387.5t295 -261.5v-375q0 -44 31.5 -75t69.5 -31h53l-101 -202h510l-101 202h53q38 0 69.5 31t31.5 75v375q182 86 295 261.5t113 387.5zM923 409v418
q-178 38 -295.5 180t-117.5 325l9 91l197 -202l419 418l394 -394q-24 -159 -137 -271.5t-267 -146.5v-418h-202zM1135 1024q43 0 72 31t29 72t-29 72.5t-72.5 31.5t-74.5 -31.5t-31 -74.5t31 -72t75 -29z" />
</svg>
