<?xml version="1.0" standalone="no"?>
<!DOCTYPE svg PUBLIC "-//W3C//DTD SVG 1.1//EN" "http://www.w3.org/Graphics/SVG/1.1/DTD/svg11.dtd" >
<svg xmlns="http://www.w3.org/2000/svg" xmlns:xlink="http://www.w3.org/1999/xlink" version="1.1" width="2048" height="2048" viewBox="-10 0 2058 2048">
   <path fill="currentColor"
d="M1300 1423l145 -149l216 221l221 -216l144 144l-221 216l221 217l-144 149l-221 -221l-216 216l-145 -144l217 -217zM329 2048q-129 0 -218 -89t-89 -219q0 -91 53 -168l562 -976v-187q-43 0 -72 -31.5t-29 -69.5v-106q0 -82 60 -142t142 -60h413q82 0 142 60t60 142v106
q0 38 -28.5 69.5t-72.5 31.5v187l255 447q-154 39 -271.5 152t-161.5 266l-442 -442l-384 664q-20 28 -20 57q0 44 29 75t72 31h755q39 115 120 202h-875zM1046 817q-39 0 -70 31.5t-31 72.5t31 72t72 31t72 -31t31 -72t-31 -72.5t-74 -31.5z" />
</svg>
