<?xml version="1.0" standalone="no"?>
<!DOCTYPE svg PUBLIC "-//W3C//DTD SVG 1.1//EN" "http://www.w3.org/Graphics/SVG/1.1/DTD/svg11.dtd" >
<svg xmlns="http://www.w3.org/2000/svg" xmlns:xlink="http://www.w3.org/1999/xlink" version="1.1" width="2048" height="2048" viewBox="-10 0 2068 2048">
   <path fill="currentColor"
d="M1266 1024v389l293 196l73 -123l-219 -147v-315h-147zM1947 1010v-36q0 -265 -130 -489t-354 -354.5t-489 -130.5t-489 130.5t-354.5 354.5t-130.5 489t130.5 489t354.5 354t489 130h36q165 101 352.5 101t343 -93.5t249 -249t93.5 -343t-101 -352.5zM1733 791
q-5 -5 -10 -5l-9 -9h14zM1650 585h-288q-50 -187 -137 -347q137 45 244.5 134.5t180.5 212.5zM974 197q128 187 187 388h-375q60 -201 188 -388zM745 777h270q-192 114 -279 316q-5 -69 -5 -119q0 -92 14 -197zM722 238q-82 151 -137 347h-288q73 -123 180.5 -212.5
t244.5 -134.5zM219 1170q-27 -105 -27 -196.5t27 -196.5h330q-14 114 -14 196.5t14 196.5h-330zM297 1362h288q55 197 137 348q-137 -46 -244.5 -135t-180.5 -213zM1362 1851q-132 0 -244 -66t-176 -178t-64 -244.5t64 -244.5t176 -176t244.5 -64t244.5 64t178 176t66 244.5
t-66 244.5t-178 178t-245 66z" />
</svg>
