<?xml version="1.0" standalone="no"?>
<!DOCTYPE svg PUBLIC "-//W3C//DTD SVG 1.1//EN" "http://www.w3.org/Graphics/SVG/1.1/DTD/svg11.dtd" >
<svg xmlns="http://www.w3.org/2000/svg" xmlns:xlink="http://www.w3.org/1999/xlink" version="1.1" width="2048" height="2048" viewBox="-11 0 2070 2048">
   <path fill="currentColor"
d="M1332 1178v202q0 43 -29 74t-72 31h-414q-43 0 -72 -31t-29 -74v-202q-134 -101 -182 -259.5t5 -315t187.5 -252.5t297.5 -96t297.5 96t187.5 252.5t5 315t-182 259.5zM1231 1586h-414v101q0 43 31.5 74.5t74.5 31.5h202q43 0 74.5 -31.5t31.5 -74.5v-101zM510 1687v-101
h-202v101q0 43 29 74.5t72 31.5h120q-19 -53 -19 -106zM308 765q-5 -159 67 -308q-134 14 -235 100.5t-130 219t24 255t168 189.5v159q0 43 31.5 74t74.5 31h202v-221q-96 -96 -149 -225.5t-53 -273.5zM1538 1586v101q0 53 -19 106h120q43 0 72 -31.5t29 -74.5v-101h-202z
M1673 457q72 149 67 308q0 144 -53 273.5t-149 225.5v221h202q43 0 74.5 -31t31.5 -74v-159q115 -67 168 -189.5t24 -255t-130 -219t-235 -100.5z" />
</svg>
