<?xml version="1.0" standalone="no"?>
<!DOCTYPE svg PUBLIC "-//W3C//DTD SVG 1.1//EN" "http://www.w3.org/Graphics/SVG/1.1/DTD/svg11.dtd" >
<svg xmlns="http://www.w3.org/2000/svg" xmlns:xlink="http://www.w3.org/1999/xlink" version="1.1" width="2048" height="2048" viewBox="-10 0 2058 2048">
   <path fill="currentColor"
d="M1834 342q-53 0 -89 36t-36 89v471h-87v-725q0 -53 -38.5 -91.5t-91 -38.5t-88.5 38.5t-36 91.5v725h-87v-812q0 -72 -65 -108t-129.5 0t-64.5 108v812h-82v-596q0 -53 -38.5 -91t-91.5 -38t-91.5 38t-38.5 91v1019l-365 -207q-24 -14 -53 -14q-38 0 -67 24l-110 106
l668 677q100 101 245 101h624q140 0 240.5 -98.5t100.5 -242.5v-1240q0 -53 -38.5 -89t-90.5 -36zM940 1332q-43 0 -74.5 -29t-31.5 -72t31.5 -74.5t74.5 -31.5t72 31.5t29 74.5t-29 72t-72 29zM1142 1640q-44 0 -72.5 -29t-28.5 -72.5t28.5 -74.5t72 -31t74.5 31t31 74.5
t-31 72.5t-74 29zM1656 1433q-43 0 -72 -29t-29 -72t29 -72t72 -29t72 29t29 72t-29 72t-72 29zM1555 1740q-43 0 -74.5 -28.5t-31.5 -72t31.5 -72t74.5 -28.5t72 28.5t29 72t-29 72t-72 28.5zM1348 1332q-43 0 -72 -29t-29 -72t29 -74.5t72.5 -31.5t72 31.5t28.5 74.5
t-28.5 72t-72.5 29z" />
</svg>
