<?xml version="1.0" standalone="no"?>
<!DOCTYPE svg PUBLIC "-//W3C//DTD SVG 1.1//EN" "http://www.w3.org/Graphics/SVG/1.1/DTD/svg11.dtd" >
<svg xmlns="http://www.w3.org/2000/svg" xmlns:xlink="http://www.w3.org/1999/xlink" version="1.1" width="2048" height="2048" viewBox="-10 0 2058 2048">
   <path fill="currentColor"
d="M1074 1947q0 43 31.5 72t70.5 29h206q44 0 72.5 -29t28.5 -72v-101h-409v101zM1281 508q-139 0 -257 70t-187.5 188t-69.5 257q0 120 55 228.5t151 180.5v207q0 43 29 72t72 29h409q44 0 75 -29t31 -72v-207q111 -82 164 -207t36 -262t-99 -248q-72 -96 -180 -151.5
t-229 -55.5zM1382 1312v226h-206v-226q-121 -44 -176 -159t-12 -233t158.5 -173.5t236 -14.5t175.5 156.5t12 235.5q-24 68 -72 116t-116 72zM632 1331h-72v101q0 43 31 74.5t74 31.5h102v-14q-87 -92 -135 -193zM1238 306q-53 -130 -163.5 -209.5t-247.5 -93.5t-265 41
t-207 166t-96 245.5t38.5 259.5t161.5 207v202q0 43 31 74.5t70 31.5h33q-33 -101 -33 -207q0 -188 91 -349t245 -259.5t342 -108.5z" />
</svg>
