<?xml version="1.0" standalone="no"?>
<!DOCTYPE svg PUBLIC "-//W3C//DTD SVG 1.1//EN" "http://www.w3.org/Graphics/SVG/1.1/DTD/svg11.dtd" >
<svg xmlns="http://www.w3.org/2000/svg" xmlns:xlink="http://www.w3.org/1999/xlink" version="1.1" width="2048" height="2048" viewBox="-11 0 2070 2048">
   <path fill="currentColor"
d="M510 1688q0 53 19 106h-120q-43 0 -72 -31t-29 -75v-100h202v100zM817 1688q0 44 31.5 75t74.5 31h202q43 0 74.5 -31t31.5 -75v-100h-414v100zM202 1381q0 43 31.5 74.5t74.5 31.5h202v-221q-96 -97 -149 -226.5t-53 -273.5q-5 -159 67 -308q-134 15 -235 101.5
t-130 218.5t24 254.5t168 189.5v159zM1538 1688q0 53 -19 106h120q43 0 72 -31t29 -75v-100h-202v100zM1538 766q0 125 -55 233t-151 180v202q0 43 -29 74.5t-72 31.5h-414q-43 0 -72 -31.5t-29 -74.5v-202q-144 -110 -189.5 -285.5t31.5 -339t238 -245t336 -43t290.5 180
t115.5 319.5zM1332 766q0 -115 -77 -204t-195 -101t-214 55t-122.5 182.5t31.5 216.5t168 139v226h202v-226q91 -29 149 -108t58 -180zM1673 458q72 149 67 308q0 144 -53 273.5t-149 226.5v221h202q43 0 74.5 -31.5t31.5 -74.5v-159q115 -67 168 -189.5t24 -254.5
t-130 -218.5t-235 -101.5z" />
</svg>
