<?xml version="1.0" standalone="no"?>
<!DOCTYPE svg PUBLIC "-//W3C//DTD SVG 1.1//EN" "http://www.w3.org/Graphics/SVG/1.1/DTD/svg11.dtd" >
<svg xmlns="http://www.w3.org/2000/svg" xmlns:xlink="http://www.w3.org/1999/xlink" version="1.1" width="2048" height="2048" viewBox="-10 0 2058 2048">
   <path fill="currentColor"
d="M725 1792.5q0 -53.5 -37.5 -91t-90.5 -37.5t-90 37.5t-37 91t37 91t90 37.5t90.5 -37.5t37.5 -91zM725 255.5q0 -53.5 -37.5 -90.5t-90.5 -37t-90 37t-37 90.5t37 91t90 37.5t90.5 -37.5t37.5 -91zM1579 427q0 -53 -37.5 -90.5t-90.5 -37.5t-90.5 37.5t-37.5 90.5
t37.5 90t91 37t90.5 -37t37 -90zM1707 427q0 70 -34.5 128.5t-93.5 92.5q0 77 -13.5 146t-32.5 121.5t-53 100t-63.5 80t-77 64t-80 50t-86.5 40t-82 31t-80 26.5q-3 1 -5 1q-59 19 -94.5 31.5t-71.5 28.5t-54.5 30.5t-34 35t-21 45t-5.5 57.5v35q58 34 93.5 93t35.5 128
q0 106 -75.5 181t-181.5 75t-181 -75t-75 -181q0 -69 35.5 -128t93.5 -93v-1094q-58 -34 -93.5 -93t-35.5 -128q0 -106 75 -181t181 -75t181.5 75t75.5 181q0 69 -35.5 128t-93.5 93v663q69 -34 206 -76q47 -15 79 -25.5t70 -26t62.5 -29t52.5 -33t45.5 -40t34.5 -48
t26.5 -59t15 -70.5t6.5 -85q-59 -34 -94 -93t-35 -128q0 -106 75.5 -181.5t181.5 -75.5t181 75.5t75 181.5z" />
</svg>
