<?xml version="1.0" standalone="no"?>
<!DOCTYPE svg PUBLIC "-//W3C//DTD SVG 1.1//EN" "http://www.w3.org/Graphics/SVG/1.1/DTD/svg11.dtd" >
<svg xmlns="http://www.w3.org/2000/svg" xmlns:xlink="http://www.w3.org/1999/xlink" version="1.1" width="2048" height="2048" viewBox="-10 0 2068 2048">
   <path fill="currentColor"
d="M1228 1228v206h307v307h206v-307h307v-206h-307v-307h-206v307h-307zM1223 883q-10 -106 -96 -187.5t-206 -81.5q-130 0 -218.5 88.5t-88.5 218t88.5 216t218.5 91.5q57 0 115 -24q24 -96 62 -163q48 -87 125 -158zM1022 1329h-614q0 -82 -60 -142t-142 -60v-412
q82 0 142 -60t60 -142h1026q0 82 60 142t142 60v9q100 0 206 34v-451h-1842v1228h1055q-33 -101 -33 -206z" />
</svg>
