<?xml version="1.0" standalone="no"?>
<!DOCTYPE svg PUBLIC "-//W3C//DTD SVG 1.1//EN" "http://www.w3.org/Graphics/SVG/1.1/DTD/svg11.dtd" >
<svg xmlns="http://www.w3.org/2000/svg" xmlns:xlink="http://www.w3.org/1999/xlink" version="1.1" width="2048" height="2048" viewBox="-10 0 2058 2048">
   <path fill="currentColor"
d="M827 974q0 -83 57.5 -140t139.5 -57t139.5 57t57.5 139.5t-57.5 139.5t-139.5 57t-139.5 -57t-57.5 -139zM613 1531l-147 -137l147 -146q-78 -128 -78 -279t78 -260l-147 -147l147 -146l137 146q128 -77 274 -77t274 77l147 -146l137 137l-147 146q78 128 78 274.5
t-78 274.5l147 146l-137 137l-147 -146q-128 78 -278.5 78t-260.5 -78zM1024 681q-123 0 -208 84.5t-85 208t85 208t208 84.5t208 -84.5t85 -208t-85 -208t-208 -84.5zM1806 0q77 0 134.5 57t57.5 135v1563q0 78 -57.5 135t-134.5 57h-101v101h-388v-101h-586v101h-388v-101
h-101q-77 0 -134.5 -57t-57.5 -135v-1563q0 -78 57.5 -135t134.5 -57h1564zM1806 1755v-1563h-1564v1563h1564z" />
</svg>
