<?xml version="1.0" standalone="no"?>
<!DOCTYPE svg PUBLIC "-//W3C//DTD SVG 1.1//EN" "http://www.w3.org/Graphics/SVG/1.1/DTD/svg11.dtd" >
<svg xmlns="http://www.w3.org/2000/svg" xmlns:xlink="http://www.w3.org/1999/xlink" version="1.1" width="2048" height="2048" viewBox="-10 0 2068 2048">
   <path fill="currentColor"
d="M541 1564l-316 315q-12 11 -28 11t-28 -11q-11 -12 -11 -28t11 -29l314 -314q13 -11 29 -11t29 11q11 12 11 28t-11 28zM748 1615v394q0 17 -11 27.5t-28 10.5t-28 -10.5t-11 -27.5v-394q0 -17 11 -28.5t27.5 -11.5t28 11.5t11.5 28.5zM473 1339q0 17 -11.5 28.5
t-28.5 11.5h-393q-17 0 -28.5 -11.5t-11.5 -28.5t11.5 -28.5t28.5 -11.5h393q17 0 28.5 11.5t11.5 28.5zM2028 1496q0 147 -105 250l-181 180q-102 102 -250 102q-71 0 -136 -27t-114 -77l-412 -413q-25 -25 -52 -69l296 -22l335 338q34 33 84 33.5t83 -32.5l181 -180
q35 -34 35 -82.5t-35 -83.5l-337 -339l22 -294q44 27 69 52l413 413q104 105 104 251zM1268 606l-294 21l-335 -337q-35 -34 -84 -34q-46 0 -83 33l-181 180q-35 34 -35 82.5t35 83.5l337 337l-23 296q-44 -27 -69 -52l-413 -413q-104 -105 -104 -251q0 -147 105 -250
l181 -180q102 -102 250 -102q71 0 136.5 27t114.5 77l411 413q25 25 51 69zM2048 709q0 17 -11.5 28t-28.5 11h-394q-17 0 -28 -11t-11 -28t11 -28.5t28 -11.5h394q17 0 28.5 11.5t11.5 28.5zM1378 39v394q0 17 -11.5 28t-28.5 11t-27.5 -11t-10.5 -28v-394
q0 -17 10.5 -27.5t27.5 -10.5t28.5 10.5t11.5 27.5zM1879 226l-314 314q-14 12 -30 12q-14 0 -28 -12q-11 -12 -11 -28t11 -28l316 -315q12 -12 28 -12t28 12q11 12 11 28t-11 29z" />
</svg>
