<?xml version="1.0" standalone="no"?>
<!DOCTYPE svg PUBLIC "-//W3C//DTD SVG 1.1//EN" "http://www.w3.org/Graphics/SVG/1.1/DTD/svg11.dtd" >
<svg xmlns="http://www.w3.org/2000/svg" xmlns:xlink="http://www.w3.org/1999/xlink" version="1.1" width="2048" height="2048" viewBox="-10 0 2058 2048">
   <path fill="currentColor"
d="M971 716q0 -105 77 -179.5t183 -74.5q81 0 148.5 48t91.5 125q15 43 15 81q0 106 -75 180.5t-180 74.5q-87 0 -152 -45.5t-93 -122.5q-15 -43 -15 -87zM308 716q0 284 254 712q140 226 347 485l14 15l-106 120l-110 -130q-135 -168 -245 -332q-159 -235 -250 -432
q-111 -250 -111 -438q0 -240 144 -430t370 -257q-144 130 -225.5 307.5t-81.5 379.5zM1231 0q192 0 358 96t262 259.5t96 360.5q0 241 -187 587q-130 245 -347 519q-105 139 -182 226l-116 -130q-134 -168 -245 -332q-158 -235 -245 -432q-115 -250 -115 -442.5t98.5 -356
t262 -259.5t360.5 -96zM1231 202q-140 0 -257.5 69.5t-187.5 187.5t-70 257q0 82 20 149q33 130 134 308q125 226 361 538q230 -312 360 -538q96 -178 130 -308q19 -67 19 -149q0 -139 -67 -257t-185 -187.5t-257 -69.5z" />
</svg>
