<?xml version="1.0" standalone="no"?>
<!DOCTYPE svg PUBLIC "-//W3C//DTD SVG 1.1//EN" "http://www.w3.org/Graphics/SVG/1.1/DTD/svg11.dtd" >
<svg xmlns="http://www.w3.org/2000/svg" xmlns:xlink="http://www.w3.org/1999/xlink" version="1.1" width="2048" height="2048" viewBox="-10 0 2068 2048">
   <path fill="currentColor"
d="M777 878q165 0 279 -114.5t114 -276.5t-114 -276.5t-276.5 -114.5t-276.5 114.5t-114 276.5t114 276.5t274 114.5zM777 293q82 0 139.5 57t57.5 137t-57.5 137t-137.5 57t-137 -57t-57 -137t57 -137t135 -57zM709 1659h-709v-292q0 -124 142 -220q123 -77 320 -128
q173 -45 315 -45q174 0 380 59q-128 50 -234 137q-77 -9 -146 -9q-132 0 -283 37q-128 36 -219.5 86.5t-91.5 82.5v105h521l-9 14l-28 73zM1463 1463q41 0 68.5 27.5t27.5 68.5t-27.5 70.5t-68.5 29.5t-71 -29.5t-30 -70.5t30 -68.5t71 -27.5zM1463 1170q-197 0 -357 107.5
t-228 281.5q68 174 228 283.5t356.5 109.5t354.5 -109.5t231 -283.5q-73 -174 -231 -281.5t-354 -107.5zM1463 1806q-101 0 -174 -73.5t-73 -174t73 -171t173.5 -70.5t171.5 70.5t71 171t-71 174t-171 73.5z" />
</svg>
