<?xml version="1.0" standalone="no"?>
<!DOCTYPE svg PUBLIC "-//W3C//DTD SVG 1.1//EN" "http://www.w3.org/Graphics/SVG/1.1/DTD/svg11.dtd" >
<svg xmlns="http://www.w3.org/2000/svg" xmlns:xlink="http://www.w3.org/1999/xlink" version="1.1" width="2048" height="2048" viewBox="-10 0 2068 2048">
   <path fill="currentColor"
d="M1538 2048v-202h308v-308h202v356q0 63 -45.5 108.5t-108.5 45.5h-356zM510 2048h-356q-63 0 -108.5 -45.5t-45.5 -108.5v-356h202v308h308v202zM1538 0h356q63 0 108.5 45.5t45.5 108.5v356h-202v-308h-308v-202zM510 0v202h-308v308h-202v-356q0 -63 45.5 -108.5
t108.5 -45.5h356zM870 409q192 0 327 134.5t135 326.5q0 135 -72 245l336 337l-144 144l-337 -336q-110 72 -245 72q-192 0 -326.5 -135t-134.5 -327t134.5 -326.5t326.5 -134.5zM870 615q-106 0 -180.5 74.5t-74.5 180.5t74.5 180.5t180.5 74.5t180.5 -74.5t74.5 -180.5
t-74.5 -180.5t-180.5 -74.5z" />
</svg>
