<?xml version="1.0" standalone="no"?>
<!DOCTYPE svg PUBLIC "-//W3C//DTD SVG 1.1//EN" "http://www.w3.org/Graphics/SVG/1.1/DTD/svg11.dtd" >
<svg xmlns="http://www.w3.org/2000/svg" xmlns:xlink="http://www.w3.org/1999/xlink" version="1.1" width="2048" height="2048" viewBox="-10 0 2068 2048">
   <path fill="currentColor"
d="M1024 150q284 0 548 108q252 100 452 292q24 24 24 60t-24 60l-212 212q-24 24 -60 24t-60 -24q-112 -100 -228 -160q-20 -8 -34 -30t-14 -46v-264q-188 -60 -388 -60t-388 56l-132 -132q248 -96 516 -96zM768 490h172v172h168v-172h172v256l80 72q96 88 176 176
q112 120 176 220q80 128 80 216v100l-1024 -1024v-16zM84 258l112 -108l1640 1640l-108 108l-128 -128h-1344v-340q0 -120 148 -312q104 -132 260 -280l-100 -104q-116 64 -208 148q-24 24 -60 24t-60 -24l-212 -212q-24 -24 -24 -60t24 -60q60 -60 196 -156zM684 1258
q0 144 100 244t240 100q80 0 152 -36t120 -100l-92 -92q-32 48 -78 74t-102 26q-88 0 -150 -64t-62 -152q0 -56 26 -102t70 -74l-92 -92q-64 48 -98 118t-34 150z" />
</svg>
