<?xml version="1.0" standalone="no"?>
<!DOCTYPE svg PUBLIC "-//W3C//DTD SVG 1.1//EN" "http://www.w3.org/Graphics/SVG/1.1/DTD/svg11.dtd" >
<svg xmlns="http://www.w3.org/2000/svg" xmlns:xlink="http://www.w3.org/1999/xlink" version="1.1" width="2048" height="2048" viewBox="-10 0 2068 2048">
   <path fill="currentColor"
d="M1559 341v-96q0 -83 -57 -140t-135 -57h-197q-82 0 -139 57t-57 140v96h-192v-96q0 -83 -57.5 -140t-139.5 -57h-196q-78 0 -135 57t-57 140v96h-197v1366h1074v-196h-877v-974h1362v485h196v-681h-196zM1755 1218v293h293v196h-293v293h-196v-293h-293v-196h293v-293
h196z" />
</svg>
