<?xml version="1.0" standalone="no"?>
<!DOCTYPE svg PUBLIC "-//W3C//DTD SVG 1.1//EN" "http://www.w3.org/Graphics/SVG/1.1/DTD/svg11.dtd" >
<svg xmlns="http://www.w3.org/2000/svg" xmlns:xlink="http://www.w3.org/1999/xlink" version="1.1" width="2048" height="2048" viewBox="-10 0 2068 2048">
   <path fill="currentColor"
d="M202 409v1437h1437v202h-1538q-48 0 -74.5 -26.5t-26.5 -74.5v-1538h202zM1034 880l-193 -183l265 -43l125 -245l120 245l269 43l-197 192l43 270l-235 -135l-250 125zM615 0h1231q82 0 142 60t60 142v1231q0 86 -60 146t-142 60h-1231q-86 0 -146 -60t-60 -146v-1231
q0 -82 60 -142t146 -60zM615 202v1231h1231v-1231h-1231z" />
</svg>
