<?xml version="1.0" standalone="no"?>
<!DOCTYPE svg PUBLIC "-//W3C//DTD SVG 1.1//EN" "http://www.w3.org/Graphics/SVG/1.1/DTD/svg11.dtd" >
<svg xmlns="http://www.w3.org/2000/svg" xmlns:xlink="http://www.w3.org/1999/xlink" version="1.1" width="2048" height="2048" viewBox="-10 0 2068 2048">
   <path fill="currentColor"
d="M202 409v1437h1437v202h-1538q-48 0 -74.5 -26.5t-26.5 -74.5v-1538h202zM615 0h1231q82 0 142 60t60 142v1231q0 86 -60 146t-142 60h-1231q-86 0 -146 -60t-60 -146v-1231q0 -82 60 -142t146 -60zM1466 1159l-43 -270l197 -192l-269 -43l-120 -245l-125 245l-265 43
l193 183l-53 269l250 -125z" />
</svg>
