<?xml version="1.0" standalone="no"?>
<!DOCTYPE svg PUBLIC "-//W3C//DTD SVG 1.1//EN" "http://www.w3.org/Graphics/SVG/1.1/DTD/svg11.dtd" >
<svg xmlns="http://www.w3.org/2000/svg" xmlns:xlink="http://www.w3.org/1999/xlink" version="1.1" width="2048" height="2048" viewBox="-10 0 2068 2048">
   <path fill="currentColor"
d="M510 101h206v207h-101v101h-206v-202q0 -44 31 -75t70 -31zM1740 101q44 0 75 31t31 75v202h-207v-101h-101v-207h202zM923 308v-207h409v207h-409zM510 1538q-39 0 -70 -31t-31 -70v-206h206v101h101v206h-206zM409 615h206v409h-206v-409zM101 514h101v1231h1086
l149 202h-1336q-43 0 -72 -29t-29 -72v-1231q0 -43 29 -72t72 -29zM1692 923q144 0 250 106t106 255q0 163 -178 432q-91 135 -178 231l-96 -111q-106 -139 -173 -264q-91 -173 -91 -288q0 -149 105.5 -255t254.5 -106zM1692 1413q53 0 91.5 -38.5t33.5 -84t-43 -84
t-84 -38.5t-84.5 36t-38.5 86.5t36 86.5t89 36zM923 1538v-206h202q14 96 53 206h-255zM1846 615v125q-82 -24 -154 -24l-53 5v-106h207z" />
</svg>
