<?xml version="1.0" standalone="no"?>
<!DOCTYPE svg PUBLIC "-//W3C//DTD SVG 1.1//EN" "http://www.w3.org/Graphics/SVG/1.1/DTD/svg11.dtd" >
<svg xmlns="http://www.w3.org/2000/svg" xmlns:xlink="http://www.w3.org/1999/xlink" version="1.1" width="2048" height="2048" viewBox="-10 0 2058 2048">
   <path fill="currentColor"
d="M1258 1600v384q0 26 -19 45t-45 19h-384q-26 0 -45 -19t-19 -45v-384q0 -26 19 -45t45 -19h384q26 0 45 19t19 45zM1763 640q0 49 -7.5 94.5t-19 81.5t-32.5 71t-39.5 60t-48 52.5t-50.5 44t-55 38.5t-53 33t-53 30q-65 38 -109.5 105t-44.5 106q0 28 -19 52.5t-45 24.5
h-384q-24 0 -40.5 -29.5t-16.5 -59.5v-72q0 -68 31.5 -137t82 -123.5t107 -96t112.5 -67.5q94 -43 133.5 -89.5t39.5 -121.5q0 -67 -74 -118t-172 -51q-51 0 -97.5 13t-74.5 33q-32 22 -69.5 61t-102.5 122q-22 27 -49 27q-22 0 -41 -13l-262 -200q-20 -16 -24.5 -39.5
t9.5 -45.5q129 -215 313 -320.5t429 -105.5q102 0 207 31t197 89t165 135.5t115 177.5t42 207z" />
</svg>
