<?xml version="1.0" standalone="no"?>
<!DOCTYPE svg PUBLIC "-//W3C//DTD SVG 1.1//EN" "http://www.w3.org/Graphics/SVG/1.1/DTD/svg11.dtd" >
<svg xmlns="http://www.w3.org/2000/svg" xmlns:xlink="http://www.w3.org/1999/xlink" version="1.1" width="2048" height="2048" viewBox="-10 0 2058 2048">
   <path fill="currentColor"
d="M1489 1769v186q0 38 -27.5 65.5t-65.5 27.5h-744q-38 0 -65.5 -27.5t-27.5 -65.5v-186q0 -38 27.5 -66t65.5 -28h93v-557h-93q-38 0 -65.5 -28t-27.5 -67v-185q0 -39 27.5 -66t65.5 -27h558q39 0 66 27t27 66v837h93q38 0 65.5 28t27.5 66zM1303 93v279q0 38 -27 66
t-66 28h-372q-39 0 -66 -28t-27 -66v-279q0 -38 27 -65.5t66 -27.5h372q39 0 66 27.5t27 65.5z" />
</svg>
