<?xml version="1.0" standalone="no"?>
<!DOCTYPE svg PUBLIC "-//W3C//DTD SVG 1.1//EN" "http://www.w3.org/Graphics/SVG/1.1/DTD/svg11.dtd" >
<svg xmlns="http://www.w3.org/2000/svg" xmlns:xlink="http://www.w3.org/1999/xlink" version="1.1" width="2048" height="2048" viewBox="-10 0 2068 2048">
   <path fill="currentColor"
d="M654 1303q34 0 62.5 28.5t28.5 65.5t-28.5 65t-65.5 28t-65 -28t-28 -65t28 -65.5t68 -28.5zM1307 344l135 131l-135 131l-130 -131zM1573 606l131 135l-131 130l-131 -130zM654 1116q-118 0 -198.5 82.5t-80.5 198t80.5 196t196 80.5t198 -80.5t82.5 -196t-82.5 -198
t-195.5 -82.5zM815 309l70 70l353 -348q26 -31 65 -31t65 31l658 657q22 22 22 61.5t-35 65.5l-344 348l70 70l-628 623q-87 92 -207 142t-250 50q-179 0 -329.5 -87t-237.5 -237.5t-87 -329.5q0 -130 50 -250t142 -207zM1821 745l-518 -518l-283 287l514 519z" />
</svg>
