<?xml version="1.0" standalone="no"?>
<!DOCTYPE svg PUBLIC "-//W3C//DTD SVG 1.1//EN" "http://www.w3.org/Graphics/SVG/1.1/DTD/svg11.dtd" >
<svg xmlns="http://www.w3.org/2000/svg" xmlns:xlink="http://www.w3.org/1999/xlink" version="1.1" width="2048" height="2048" viewBox="-10 0 2068 2048">
   <path fill="currentColor"
d="M654 1116q113 0 195.5 82.5t82.5 198t-82.5 196t-198 80.5t-196 -80.5t-80.5 -196t80.5 -198t198.5 -82.5zM654 1303q-40 0 -68 28.5t-28 65.5t28 65t65 28t65.5 -28t28.5 -65t-28.5 -65.5t-62.5 -28.5zM815 309l70 70l353 -348q26 -31 65 -31t65 31l658 657
q22 22 22 61.5t-35 65.5l-344 348l70 70l-628 623q-87 92 -207 142t-250 50q-179 0 -329.5 -87t-237.5 -237.5t-87 -329.5q0 -130 50 -250t142 -207zM980 1726l493 -493l-658 -658l-493 493q-65 65 -100 150t-35 176q0 127 63.5 233.5t170 170t233.5 63.5q91 0 176 -35
t150 -100zM1307 344l135 131l-135 131l-130 -131zM1573 606l131 135l-131 130l-131 -130zM1821 745l-518 -518l-283 287l514 519z" />
</svg>
