<?xml version="1.0" standalone="no"?>
<!DOCTYPE svg PUBLIC "-//W3C//DTD SVG 1.1//EN" "http://www.w3.org/Graphics/SVG/1.1/DTD/svg11.dtd" >
<svg xmlns="http://www.w3.org/2000/svg" xmlns:xlink="http://www.w3.org/1999/xlink" version="1.1" width="2048" height="2048" viewBox="-10 0 2068 2048">
   <path fill="currentColor"
d="M1125 308q173 0 293 120t120 288q0 116 -55 209.5t-151 146.5v-125q101 -91 101 -225.5t-89 -223.5t-216.5 -89t-219 89t-91.5 223.5t106 225.5v125q-96 -53 -151.5 -146.5t-55.5 -209.5q0 -168 120.5 -288t288.5 -120zM1846 1894q-5 63 -48 108.5t-106 45.5h-567
q-58 0 -101 -43l-409 -428l72 -82q34 -34 82 -34h19l236 178v-923q0 -43 31 -72t72 -29t72.5 29t31.5 72v457l120 14l409 226q38 20 62 56t24 84v341zM1846 0h-1644q-82 0 -142 60t-60 142v822q0 87 60 147t142 60h413v-207h-413v-822h1644v822h-207v207h207v-5l5 5
q82 0 139.5 -60t57.5 -147v-822q0 -82 -60 -142t-142 -60z" />
</svg>
