<?xml version="1.0" standalone="no"?>
<!DOCTYPE svg PUBLIC "-//W3C//DTD SVG 1.1//EN" "http://www.w3.org/Graphics/SVG/1.1/DTD/svg11.dtd" >
<svg xmlns="http://www.w3.org/2000/svg" xmlns:xlink="http://www.w3.org/1999/xlink" version="1.1" width="2048" height="2048" viewBox="-10 0 2058 2048">
   <path fill="currentColor"
d="M1303 1629v326q0 38 -27 65.5t-66 27.5h-372q-39 0 -66 -27.5t-27 -65.5v-326q0 -38 27 -65.5t66 -27.5h372q39 0 66 27.5t27 65.5zM1347 93l-41 1117q-1 39 -29 66t-67 27h-372q-39 0 -67 -27t-29 -66l-41 -1117q-1 -38 26 -65.5t65 -27.5h466q38 0 64 27.5t25 65.5z
" />
</svg>
