<?xml version="1.0" standalone="no"?>
<!DOCTYPE svg PUBLIC "-//W3C//DTD SVG 1.1//EN" "http://www.w3.org/Graphics/SVG/1.1/DTD/svg11.dtd" >
<svg xmlns="http://www.w3.org/2000/svg" xmlns:xlink="http://www.w3.org/1999/xlink" version="1.1" width="2048" height="2048" viewBox="-10 0 2068 2048">
   <path fill="currentColor"
d="M1846 1433h202v206h-202q-207 0 -413 -101q-193 97 -409 97t-409 -97q-206 101 -413 101h-202v-206h202q212 0 413 -130q183 130 409 130t409 -130q201 130 413 130zM1125 880q120 -58 207 -72v33q38 125 19 294q-144 86 -308 86q82 -168 82 -341zM1115 164
q-216 62 -370 216q-57 -154 -57 -308q168 -77 350.5 -72t355.5 92q63 19 82 38q-188 -14 -361 34zM490 1159q-91 43 -182 62q-106 -192 -106 -423q82 164 207 289q14 9 40.5 35.5t40.5 36.5zM1740 1221q-77 -14 -173 -53q29 -173 -19 -370q178 15 308 101q-15 149 -92 289z
M553 942q-173 -158 -226 -442l-10 -91q72 -120 173 -207q15 216 145 390q115 187 288 278q0 111 -53 245q-168 -43 -317 -173zM1178 356q115 -29 240 -24t241 48l81 38q43 73 82 236q-188 -82 -399.5 -70t-398.5 113q-87 -38 -173 -144l10 -10q163 -149 317 -187zM1433 1712
q201 134 413 134h202v202h-202q-207 0 -413 -101q-193 101 -409 101t-409 -101q-206 101 -413 101h-202v-202h202q212 0 413 -134q183 129 409 129t409 -129z" />
</svg>
