<?xml version="1.0" standalone="no"?>
<!DOCTYPE svg PUBLIC "-//W3C//DTD SVG 1.1//EN" "http://www.w3.org/Graphics/SVG/1.1/DTD/svg11.dtd" >
<svg xmlns="http://www.w3.org/2000/svg" xmlns:xlink="http://www.w3.org/1999/xlink" version="1.1" width="2048" height="2048" viewBox="-10 0 2068 2048">
   <path fill="currentColor"
d="M974 1806h-782v-1367h782v1367zM1038 242h-160v-192h-585v192h-165q-55 0 -91.5 39t-36.5 94v1495q0 55 36.5 91.5t91.5 36.5h910q55 0 93.5 -36.5t38.5 -91.5v-1495q0 -55 -38.5 -94t-93.5 -39zM878 1413h-585v292h585v-292zM878 535h-585v292h585v-292zM878 974h-585
v292h585v-292zM2048 827h-293v-681l-489 974h293v782z" />
</svg>
