<?xml version="1.0" standalone="no"?>
<!DOCTYPE svg PUBLIC "-//W3C//DTD SVG 1.1//EN" "http://www.w3.org/Graphics/SVG/1.1/DTD/svg11.dtd" >
<svg xmlns="http://www.w3.org/2000/svg" xmlns:xlink="http://www.w3.org/1999/xlink" version="1.1" width="2048" height="2048" viewBox="-10 0 2068 2048">
   <path fill="currentColor"
d="M1212 884v-166q139 -8 253 -26l39 162q-70 100 -39 222l26 92l384 384q153 -39 170 -249q13 -148 -39 -358q-13 -56 -50 -104t-90 -79l-39 -157q70 -22 127 -48v-205q-153 83 -376 131q-257 56 -554 56q-61 0 -170 -4zM1836 1421q-83 22 -170 -174q-40 -101 -66 -201
l-4 -35q0 -44 22 -74q26 -44 87 -61q83 -18 135 39q22 30 31 65l22 105q17 122 13 205q-9 114 -70 131zM1299 1216l-135 -135l-367 -363h4l-672 -672l-118 118l258 262q-105 -39 -175 -74v205q57 26 127 48l-39 157q-53 31 -90 79t-50 104q-52 214 -39 358q17 214 174 254
q105 26 197 -53q131 -113 209 -428q31 -122 -39 -222l30 -127l219 218q-48 70 -48 149q0 218 48 358q69 201 231 201q70 0 127 -44q74 -57 113 -188l585 581l118 -118zM448 1046q-18 52 -31 105q-39 117 -83 187q-61 96 -122 83q-83 -22 -70 -235q9 -105 35 -206l13 -35
q22 -39 53 -56q43 -27 100 -13q87 21 105 96q9 39 0 74zM1024 1513q-61 0 -100 -109q-22 -74 -35 -201l-5 -109v-13q5 -18 9 -31l253 249q-35 214 -122 214z" />
</svg>
