<?xml version="1.0" standalone="no"?>
<!DOCTYPE svg PUBLIC "-//W3C//DTD SVG 1.1//EN" "http://www.w3.org/Graphics/SVG/1.1/DTD/svg11.dtd" >
<svg xmlns="http://www.w3.org/2000/svg" xmlns:xlink="http://www.w3.org/1999/xlink" version="1.1" width="2048" height="2048" viewBox="-10 0 2068 2048">
   <path fill="currentColor"
d="M1195 1729v224h-332l-214 -338l-31 -56q-12 -13 -15 -28h-4q-1 5 -6 14.5t-7 13.5q-13 27 -33 59l-207 335h-346v-224h171l264 -389l-247 -365h-184v-225h370l185 305q11 18 32 56q10 12 14 28h5q3 -14 14 -28l34 -56l187 -305h345v225h-168l-247 358l274 396h146z
M2048 819v277h-688l-5 -36q-5 -38 -5 -62q0 -75 26 -137.5t67.5 -106t91.5 -81t100 -68t91.5 -60t67 -64.5t25.5 -74q0 -51 -39.5 -83.5t-94.5 -32.5q-67 0 -129 51q-19 16 -50 52l-140 -123q37 -52 84 -89q110 -87 252 -87q147 0 238.5 79.5t91.5 212.5q0 65 -24.5 120.5
t-64.5 94t-88 72t-96.5 62.5t-89.5 56.5t-69 62t-31 72.5h310v-108h169z" />
</svg>
