<?xml version="1.0" standalone="no"?>
<!DOCTYPE svg PUBLIC "-//W3C//DTD SVG 1.1//EN" "http://www.w3.org/Graphics/SVG/1.1/DTD/svg11.dtd" >
<svg xmlns="http://www.w3.org/2000/svg" xmlns:xlink="http://www.w3.org/1999/xlink" version="1.1" width="2048" height="2048" viewBox="-10 0 2068 2048">
   <path fill="currentColor"
d="M2006 967q-13 -56 -50 -104.5t-90 -78.5l-39 -157q70 -22 127 -48v-205q-153 83 -376 131q-257 56 -554 56t-554 -56q-223 -48 -376 -131v205q57 26 127 48l-39 157q-53 30 -90 78.5t-50 104.5q-52 214 -39 358q17 214 174 253q105 27 197 -52q131 -114 209 -428
q31 -122 -39 -222l39 -162q114 18 253 26v166q-43 39 -67 96t-24 114q0 218 48 358q69 200 231 200q109 0 179 -96q100 -139 100 -462q0 -57 -24 -114t-67 -96v-166q139 -8 253 -26l39 162q-70 100 -39 222q78 314 209 428q92 79 197 52q153 -39 174 -253q13 -144 -39 -358z
M448 1068q-18 52 -31 104q-39 118 -83 188q-61 96 -122 83q-83 -22 -70 -236q9 -104 35 -205l13 -35q22 -39 53 -56q43 -27 100 -14q87 22 105 96q9 40 0 75zM1024 1535q-61 0 -100 -109q-22 -75 -35 -201l-5 -109l5 -35q13 -40 35 -66q39 -39 100 -39t100 39q22 26 35 66
l5 35l-5 109q-13 126 -35 201q-39 109 -100 109zM1836 1443q-83 22 -170 -175q-40 -100 -66 -200l-4 -35q0 -44 22 -74q26 -44 87 -62q83 -17 135 40q22 30 31 65l22 105q17 122 13 205q-9 114 -70 131z" />
</svg>
