<?xml version="1.0" standalone="no"?>
<!DOCTYPE svg PUBLIC "-//W3C//DTD SVG 1.1//EN" "http://www.w3.org/Graphics/SVG/1.1/DTD/svg11.dtd" >
<svg xmlns="http://www.w3.org/2000/svg" xmlns:xlink="http://www.w3.org/1999/xlink" version="1.1" width="2048" height="2048" viewBox="-10 0 2068 2048">
   <path fill="currentColor"
d="M1193 1230v223h-331l-213 -337l-32 -56q-11 -13 -15 -28h-4q-1 5 -6 14.5t-7 13.5q-13 27 -32 58l-208 335h-345v-223h171l263 -389l-247 -364h-183v-225h370l185 304q11 18 31 56q10 12 14 29h5q3 -15 14 -29l34 -56l187 -304h345v225h-168l-247 357l274 396h145z
M2048 1520v276h-687l-6 -36q-4 -60 -4 -62q0 -74 26 -137t67.5 -106.5t91 -80.5t99.5 -68t91.5 -60t67.5 -64t26 -74q0 -51 -39.5 -83.5t-94.5 -32.5q-68 0 -130 51q-13 12 -48 52l-140 -123q37 -52 84 -89q107 -87 252 -87q147 0 238 79.5t91 212.5q0 65 -24.5 120
t-64.5 93.5t-88 72t-97 62t-90 56t-68.5 62.5t-31.5 74h310v-108h169z" />
</svg>
