<?xml version="1.0" standalone="no"?>
<!DOCTYPE svg PUBLIC "-//W3C//DTD SVG 1.1//EN" "http://www.w3.org/Graphics/SVG/1.1/DTD/svg11.dtd" >
<svg xmlns="http://www.w3.org/2000/svg" xmlns:xlink="http://www.w3.org/1999/xlink" version="1.1" width="2048" height="2048" viewBox="-10 0 2068 2048">
   <path fill="currentColor"
d="M1925 2048l-270 -265h-124q19 -50 19 -101v-9l-220 -219q-32 36 -73 36h-393q-37 0 -66.5 -29.5t-29.5 -70.5v-192q-114 -87 -162 -219.5t-21 -269.5l-160 -156q-46 128 -46 258.5t50.5 254t141.5 214.5v210h-192q-41 0 -70.5 -29.5t-29.5 -70.5v-151
q-82 -46 -132.5 -128t-59.5 -178q-14 -147 75 -263.5t236 -148.5l-398 -398l123 -123l1925 1925zM1353 416q-128 -96 -285.5 -96t-285.5 91l676 677q73 -105 87 -233t-36.5 -244.5t-155.5 -194.5zM1819 1449q23 -27 23 -59v-151q137 -82 180.5 -237.5t-38.5 -292.5
q-50 -83 -130 -135.5t-176 -61.5q64 142 64 293q0 237 -147 420zM864 1682q0 41 29.5 71t71.5 30h192q41 0 70.5 -30t29.5 -71v-96h-393v96zM571 1586h-192v96q0 41 27.5 71t68.5 30h115q-19 -50 -19 -101v-96z" />
</svg>
