<?xml version="1.0" standalone="no"?>
<!DOCTYPE svg PUBLIC "-//W3C//DTD SVG 1.1//EN" "http://www.w3.org/Graphics/SVG/1.1/DTD/svg11.dtd" >
<svg xmlns="http://www.w3.org/2000/svg" xmlns:xlink="http://www.w3.org/1999/xlink" version="1.1" width="2048" height="2048" viewBox="-10 0 2068 2048">
   <path fill="currentColor"
d="M1829 569h-110l-1219 1219h-300q-81 0 -140.5 -59.5t-59.5 -145t59.5 -145t140.5 -59.5h133l172 -172v-438q0 -38 31 -69t74 -31h100q43 0 71.5 31t28.5 69v134l743 -743h276q81 0 140.5 59.5t59.5 145t-59.5 145t-140.5 59.5zM657 264q67 0 110 43t43 107.5t-43 109.5
t-107.5 45t-109.5 -45t-45 -109.5t45 -107.5t107 -43zM1300 1517l562 -562l186 186l-562 562l191 185h-563v-557z" />
</svg>
