<?xml version="1.0" standalone="no"?>
<!DOCTYPE svg PUBLIC "-//W3C//DTD SVG 1.1//EN" "http://www.w3.org/Graphics/SVG/1.1/DTD/svg11.dtd" >
<svg xmlns="http://www.w3.org/2000/svg" xmlns:xlink="http://www.w3.org/1999/xlink" version="1.1" width="2048" height="2048" viewBox="-10 0 2058 2048">
   <path fill="currentColor"
d="M635 1545q0 87 -57 148.5t-139 61.5t-139.5 -61.5t-57.5 -148.5t101 -242q46 -73 96 -133l50 64q60 83 96 151q50 96 50 160zM1458 974v-142l197 -110l228 60l51 -188l-174 -45l46 -174l-192 -50l-60 228l-192 110l-242 -142v-219l169 -165l-137 -137l-128 123l-128 -123
l-137 137l169 165v219l-247 142l-192 -110l-59 -228l-188 50l46 174l-169 45l50 188l224 -60l197 110v142h-540v96h1948v-96h-540zM782 974v-142l242 -142l242 142v142h-484zM1806 1545q0 87 -57.5 148.5t-139.5 61.5t-139 -61.5t-57 -148.5t100 -242q46 -73 96 -133l50 64
q60 83 96 151q51 96 51 160zM1221 1838q0 87 -57.5 148.5t-139.5 61.5t-139.5 -61.5t-57.5 -148.5t101 -243q46 -73 96 -132l50 64q60 82 96 151q51 96 51 160z" />
</svg>
