<?xml version="1.0" standalone="no"?>
<!DOCTYPE svg PUBLIC "-//W3C//DTD SVG 1.1//EN" "http://www.w3.org/Graphics/SVG/1.1/DTD/svg11.dtd" >
<svg xmlns="http://www.w3.org/2000/svg" xmlns:xlink="http://www.w3.org/1999/xlink" version="1.1" width="2048" height="2048" viewBox="-10 0 2068 2048">
   <path fill="currentColor"
d="M202 0h1644q82 0 142 60t60 142v1231q0 86 -60 146t-142 60h-413l-409 409l-409 -409h-413q-82 0 -142 -60t-60 -146v-1231q0 -82 60 -142t142 -60zM202 202v1231h495l327 327l327 -327h495v-1231h-1644zM1418 635l-106 101l-211 -207l106 -106q14 -14 38 -14t39 14
l134 130q15 14 15 38t-15 44zM615 1014l428 -427l212 211l-428 433h-212v-217z" />
</svg>
