<?xml version="1.0" standalone="no"?>
<!DOCTYPE svg PUBLIC "-//W3C//DTD SVG 1.1//EN" "http://www.w3.org/Graphics/SVG/1.1/DTD/svg11.dtd" >
<svg xmlns="http://www.w3.org/2000/svg" xmlns:xlink="http://www.w3.org/1999/xlink" version="1.1" width="2048" height="2048" viewBox="-10 0 2068 2048">
   <path fill="currentColor"
d="M2048 1925l-1925 -1925l-123 123l398 398q-147 32 -236 148.5t-75 263.5q9 96 59.5 178t132.5 128v151q0 41 29.5 70.5t70.5 29.5h192v-210q-91 -91 -141.5 -214.5t-50.5 -254t46 -258.5l160 156q-27 137 21 269.5t162 219.5v192q0 41 29.5 70.5t66.5 29.5h393
q41 0 73 -36l220 219v9q0 51 -19 101h124l270 265zM791 914l160 160q-114 -45 -160 -160zM1157 1294h-192v-206l192 197v9zM919 549l-137 -138q128 -91 285.5 -91t285.5 96q92 69 144.5 171.5t52.5 217.5q0 155 -92 283l-141 -142q36 -68 36 -141q0 -119 -84.5 -206
t-207.5 -87q-74 0 -142 37zM1595 1225q147 -183 147 -420q0 -151 -64 -293q96 9 176 61.5t130 135.5q82 137 38.5 292.5t-180.5 237.5v151q0 32 -23 59zM864 1586h393v96q0 41 -29.5 71t-70.5 30h-192q-42 0 -71.5 -30t-29.5 -71v-96zM571 1682q0 51 19 101h-115
q-41 0 -68.5 -30t-27.5 -71v-96h192v96z" />
</svg>
