<?xml version="1.0" standalone="no"?>
<!DOCTYPE svg PUBLIC "-//W3C//DTD SVG 1.1//EN" "http://www.w3.org/Graphics/SVG/1.1/DTD/svg11.dtd" >
<svg xmlns="http://www.w3.org/2000/svg" xmlns:xlink="http://www.w3.org/1999/xlink" version="1.1" width="2048" height="2048" viewBox="-10 0 2068 2048">
   <path fill="currentColor"
d="M2048 1925l-1925 -1925l-123 123l293 298q-32 150 32 292q50 114 150 192v192q0 41 30 71t66 30h32q-32 -96 -32 -197q0 -128 51 -251l155 155q-9 60 -9 96q0 114 52.5 217t144.5 172v196q0 41 27 68.5t69 27.5h388q46 0 73 -32l403 398zM987 1111l160 160
q-114 -46 -160 -160zM1353 1490h-196v-205l196 192v13zM837 466l-348 -347q41 -32 82 -50q124 -55 254 -39t235.5 91.5t155.5 198.5q-215 14 -379 146zM974 603q128 -91 283 -91q114 0 217 52.5t172 144.5q96 128 96 285.5t-92 285.5l-137 -142l18 -41q42 -114 -11 -224
t-171.5 -151t-233.5 23zM640 1294q46 96 128 183v13h-96q-41 0 -71 -29.5t-30 -70.5v-96h69zM1061 1783h388v96q0 41 -27.5 68.5t-68.5 27.5h-196q-37 0 -66.5 -27.5t-29.5 -68.5v-96z" />
</svg>
