<?xml version="1.0" standalone="no"?>
<!DOCTYPE svg PUBLIC "-//W3C//DTD SVG 1.1//EN" "http://www.w3.org/Graphics/SVG/1.1/DTD/svg11.dtd" >
<svg xmlns="http://www.w3.org/2000/svg" xmlns:xlink="http://www.w3.org/1999/xlink" version="1.1" width="2048" height="2048" viewBox="-10 0 2058 2048">
   <path fill="currentColor"
d="M1882 2022l-187 -188q-22 57 -67.5 87.5t-102.5 30.5h-196q-13 -200 -87 -370h200l-849 -846v196q-88 -39 -183 -61v-322l-362 -362l118 -117l1834 1834zM1525 375v815l183 187v-1190q0 -78 -54.5 -132.5t-128.5 -54.5h-932q-53 0 -94 28.5t-68 71.5l275 275h819z
M131 1769v279h279q0 -118 -83 -198.5t-196 -80.5zM131 1394v188q126 0 233 63t168 170t61 233h187q0 -179 -87 -329t-237.5 -237.5t-324.5 -87.5zM131 1024v187q226 0 418 111.5t305 305t113 420.5h183q0 -279 -137 -514t-372.5 -372.5t-509.5 -137.5z" />
</svg>
