<?xml version="1.0" standalone="no"?>
<!DOCTYPE svg PUBLIC "-//W3C//DTD SVG 1.1//EN" "http://www.w3.org/Graphics/SVG/1.1/DTD/svg11.dtd" >
<svg xmlns="http://www.w3.org/2000/svg" xmlns:xlink="http://www.w3.org/1999/xlink" version="1.1" width="2048" height="2048" viewBox="-10 0 2068 2048">
   <path fill="currentColor"
d="M1367 974q-101 0 -171.5 -71t-70.5 -171.5t70.5 -171.5t171 -71t171.5 71t71 171.5t-71 171.5t-171 71zM686 731q0 174 105 416q87 188 233 412q110 155 238 315l105 124l105 -124q128 -160 238 -315q146 -224 233 -412q105 -242 105 -422.5t-91.5 -336t-247 -247
t-343 -91.5t-342.5 91.5t-246.5 247t-91.5 342.5zM489 535l-489 489l489 489v-978z" />
</svg>
