<?xml version="1.0" standalone="no"?>
<!DOCTYPE svg PUBLIC "-//W3C//DTD SVG 1.1//EN" "http://www.w3.org/Graphics/SVG/1.1/DTD/svg11.dtd" >
<svg xmlns="http://www.w3.org/2000/svg" xmlns:xlink="http://www.w3.org/1999/xlink" version="1.1" width="2048" height="2048" viewBox="-10 0 2058 2048">
   <path fill="currentColor"
d="M1125 620v-620h-202v620q-173 29 -315 127.5t-221 252.5t-79 332q0 197 96 360.5t259.5 259.5t360.5 96t360.5 -96t259.5 -259.5t96 -360.5q0 -178 -79 -332t-221 -252.5t-315 -127.5zM1024 1846q-139 0 -257 -69.5t-187.5 -187.5t-69.5 -257q0 -169 105 -308h818
q105 139 105 308q0 139 -69.5 257t-187.5 187.5t-257 69.5z" />
</svg>
