<?xml version="1.0" standalone="no"?>
<!DOCTYPE svg PUBLIC "-//W3C//DTD SVG 1.1//EN" "http://www.w3.org/Graphics/SVG/1.1/DTD/svg11.dtd" >
<svg xmlns="http://www.w3.org/2000/svg" xmlns:xlink="http://www.w3.org/1999/xlink" version="1.1" width="2048" height="2048" viewBox="-10 0 2068 2048">
   <path fill="currentColor"
d="M1925 2048l-558 -558q-311 293 -695 293q-50 0 -133 -32l-91 224l-187 -64l27 -60q123 -310 210 -466q142 -260 334 -430l-87 -86q-347 237 -489 644l-46 -50q-50 -64 -82 -133q-41 -96 -41 -183q0 -128 87 -278q100 -179 274 -298l-448 -448l123 -123l1925 1925z
M1550 613q-233 50 -421 146l466 466q206 -302 343 -731q69 -215 96 -371q-45 92 -292 156q-151 36 -531 91q-278 41 -406 64l269 270q165 -59 334 -82q87 -9 142 -9z" />
</svg>
