<?xml version="1.0" standalone="no"?>
<!DOCTYPE svg PUBLIC "-//W3C//DTD SVG 1.1//EN" "http://www.w3.org/Graphics/SVG/1.1/DTD/svg11.dtd" >
<svg xmlns="http://www.w3.org/2000/svg" xmlns:xlink="http://www.w3.org/1999/xlink" version="1.1" width="2048" height="2048" viewBox="-10 0 2068 2048">
   <path fill="currentColor"
d="M1367 489q100 0 171 71t71 171.5t-71 171.5t-171.5 71t-171 -71t-70.5 -171.5t70.5 -171.5t171.5 -71zM1367 50q187 0 342.5 91.5t247 247t91.5 342.5q0 229 -174 558q-128 233 -329 494q-100 132 -178 215l-105 -124q-128 -160 -238 -315q-146 -224 -233 -412
q-105 -237 -105 -420t91.5 -338.5t246.5 -247t343 -91.5zM878 731q0 78 18 142q32 124 128 293q119 215 343 512q224 -297 343 -512q96 -169 128 -293q18 -64 18 -142q0 -132 -66.5 -244t-178.5 -178.5t-244.5 -66.5t-244.5 66.5t-178 178.5t-66 244zM489 535l-489 489
l489 489v-978z" />
</svg>
