<?xml version="1.0" standalone="no"?>
<!DOCTYPE svg PUBLIC "-//W3C//DTD SVG 1.1//EN" "http://www.w3.org/Graphics/SVG/1.1/DTD/svg11.dtd" >
<svg xmlns="http://www.w3.org/2000/svg" xmlns:xlink="http://www.w3.org/1999/xlink" version="1.1" width="2048" height="2048" viewBox="-10 0 2068 2048">
   <path fill="currentColor"
d="M2048 1407q0 100 -55 166.5t-152 66.5q-41 0 -77 -14t-63.5 -34t-54 -40t-60 -34t-70.5 -14q-136 0 -136 152q0 47 20 141t19 142v7q-27 0 -41 1q-43 4 -120 14t-141 16t-121 6q-35 0 -65 -7t-56.5 -22t-42 -42t-15.5 -63q0 -37 14 -70.5t34.5 -60t40.5 -54t34 -63.5
t14 -77q0 -98 -66.5 -152.5t-166.5 -54.5q-66 0 -121.5 23t-91 72.5t-35.5 117.5q0 43 12 83t29.5 69t35.5 55t30 52t12 49q0 55 -57 110q-46 43 -144 43q-121 0 -302 -29q-11 -2 -33 -5t-33 -5l-17 -3q0 -1 -3 -1l-3 -1v-1260q2 1 21.5 4t42 6t25.5 4q187 30 302 30
q98 0 144 -43q57 -55 57 -110q0 -23 -12 -49t-30 -52t-35.5 -55.5t-29.5 -69.5t-12 -83q0 -68 35.5 -117t91 -72t123.5 -23q99 0 165 55t66 152q0 41 -14 77t-34 63t-40.5 53.5t-34.5 60t-14 70.5q0 36 15.5 63.5t41.5 42.5t56.5 22.5t65.5 7.5q78 0 221.5 -18.5
t200.5 -21.5v3q-1 2 -4.5 21.5t-6.5 42t-4 25.5q-30 187 -30 302q0 98 43 144q54 56 110 56q23 0 49 -12t52 -29.5t55.5 -35t69.5 -29.5t83 -12q68 0 117.5 35.5t72.5 90.5t23 121z" />
</svg>
