<?xml version="1.0" standalone="no"?>
<!DOCTYPE svg PUBLIC "-//W3C//DTD SVG 1.1//EN" "http://www.w3.org/Graphics/SVG/1.1/DTD/svg11.dtd" >
<svg xmlns="http://www.w3.org/2000/svg" xmlns:xlink="http://www.w3.org/1999/xlink" version="1.1" width="2048" height="2048" viewBox="-10 0 2068 2048">
   <path fill="currentColor"
d="M1544 132q-67 0 -122 38.5t-74 105.5l-82 259q-57 0 -110 24l-187 -202l-134 -148q-63 52 -67.5 138.5t52.5 148.5l187 202q-14 24 -21.5 50.5t-11.5 54.5l-470 106q19 81 91 127t153 26l269 -57q29 48 77 81l-144 456q81 24 155.5 -14.5t98.5 -119.5l86 -259
q58 0 111 -24l321 350q62 -58 64.5 -142t-55.5 -146l-182 -201q15 -24 22 -50.5t12 -55.5l465 -105q-19 -82 -88.5 -127.5t-156.5 -26.5l-263 58q-34 -48 -77 -82l144 -456q-29 -9 -63 -9zM1285 688q20 0 39 5q62 19 91 76.5t9.5 117.5t-77 89t-117.5 12t-88.5 -74.5
t-9.5 -119.5q14 -48 57.5 -77t91.5 -29h4zM614 1168q-197 134 -413 134h-201v206h201q211 0 413 -105q110 62 245 86l62 -201q-163 -19 -307 -120zM1885 1302q10 115 -53 206h211v-206h-158zM614 1576q-197 134 -413 134h-201v206h201q211 0 413 -101q192 96 407.5 96
t407.5 -96q202 101 413 101h201v-206h-201q-216 0 -413 -134q-187 129 -407.5 129t-407.5 -129z" />
</svg>
