<?xml version="1.0" standalone="no"?>
<!DOCTYPE svg PUBLIC "-//W3C//DTD SVG 1.1//EN" "http://www.w3.org/Graphics/SVG/1.1/DTD/svg11.dtd" >
<svg xmlns="http://www.w3.org/2000/svg" xmlns:xlink="http://www.w3.org/1999/xlink" version="1.1" width="2048" height="2048" viewBox="-10 0 2068 2048">
   <path fill="currentColor"
d="M1401 1565h-1184v-1082h1184l384 541zM1578 362q-31 -46 -76.5 -68.5t-100.5 -22.5h-1184q-91 0 -154 63t-63 149v1082q0 86 63 149t154 63h1184q55 0 100.5 -22.5t76.5 -68.5l470 -662zM1163 594l132 127l-734 733l-131 -127zM587 594q65 0 110.5 45.5t45.5 109
t-45.5 109t-108.5 45.5t-108.5 -45.5t-45.5 -109t45.5 -109t106.5 -45.5zM1138 1145q66 0 108.5 45.5t42.5 109t-42.5 109t-106 45.5t-109 -45.5t-45.5 -109t45.5 -109t106.5 -45.5z" />
</svg>
