<?xml version="1.0" standalone="no"?>
<!DOCTYPE svg PUBLIC "-//W3C//DTD SVG 1.1//EN" "http://www.w3.org/Graphics/SVG/1.1/DTD/svg11.dtd" >
<svg xmlns="http://www.w3.org/2000/svg" xmlns:xlink="http://www.w3.org/1999/xlink" version="1.1" width="2048" height="2048" viewBox="-10 0 2068 2048">
   <path fill="currentColor"
d="M202 202q-82 0 -142 60t-60 147v1230q0 87 60 147t142 60h1644q82 0 142 -60t60 -147v-1024q0 -86 -60 -146t-142 -60h-822l-207 -207h-615zM1024 716h308v207h-308v-207zM1433 716h307v207h-307v-207zM1024 1024h308v207h-308v-207zM1433 1024h307v207h-307v-207z
M1024 1332h308v206h-308v-206zM1433 1332h307v206h-307v-206z" />
</svg>
