<?xml version="1.0" standalone="no"?>
<!DOCTYPE svg PUBLIC "-//W3C//DTD SVG 1.1//EN" "http://www.w3.org/Graphics/SVG/1.1/DTD/svg11.dtd" >
<svg xmlns="http://www.w3.org/2000/svg" xmlns:xlink="http://www.w3.org/1999/xlink" version="1.1" width="2048" height="2048" viewBox="-10 0 2058 2048">
   <path fill="currentColor"
d="M1024 0q-72 0 -154 10v278q77 -14 154 -14t154 14v-278q-77 -10 -154 -10zM798 24q-221 53 -401.5 197t-283.5 353.5t-103 449.5q0 279 137 514.5t370 372.5t507 137t507 -137t370 -372.5t137 -514.5q0 -240 -103 -449.5t-283.5 -353.5t-401.5 -197v284q231 72 380 269
t149 447q0 202 -103.5 375t-276.5 274t-375 101t-375 -101t-274 -274t-101 -375q0 -250 146.5 -447t377.5 -269v-284zM1024 351q-82 0 -154 19v1298q77 15 156.5 15t151.5 -15v-1298q-72 -19 -154 -19z" />
</svg>
