<?xml version="1.0" standalone="no"?>
<!DOCTYPE svg PUBLIC "-//W3C//DTD SVG 1.1//EN" "http://www.w3.org/Graphics/SVG/1.1/DTD/svg11.dtd" >
<svg xmlns="http://www.w3.org/2000/svg" xmlns:xlink="http://www.w3.org/1999/xlink" version="1.1" width="2048" height="2048" viewBox="-10 0 2058 2048">
   <path fill="currentColor"
d="M1024 202q139 0 257 69.5t187.5 187.5t69.5 257q0 202 -177 515q-130 235 -337 500q-207 -265 -337 -500q-177 -313 -177 -515q0 -139 69.5 -257t187.5 -187.5t257 -69.5zM1024 0q-197 0 -360.5 96t-259.5 259.5t-96 360.5q0 183 110 433q92 202 245 433q116 168 250 336
l111 130l111 -130q134 -168 250 -336q153 -231 245 -433q110 -250 110 -433q0 -197 -96 -360.5t-259.5 -259.5t-360.5 -96zM952 1231l505 -515l-145 -144l-360 370l-164 -163l-144 144z" />
</svg>
