<?xml version="1.0" standalone="no"?>
<!DOCTYPE svg PUBLIC "-//W3C//DTD SVG 1.1//EN" "http://www.w3.org/Graphics/SVG/1.1/DTD/svg11.dtd" >
<svg xmlns="http://www.w3.org/2000/svg" xmlns:xlink="http://www.w3.org/1999/xlink" version="1.1" width="2048" height="2048" viewBox="-10 0 2068 2048">
   <path fill="currentColor"
d="M344 168q-144 0 -244 100t-100 244v1024q0 144 100 244t244 100h512v-344h-512v-1024h512v-344h-512zM1368 168q-144 0 -244 100t-100 244v1024q0 144 100 244t244 100h336q144 0 244 -100t100 -244v-1024q0 -144 -100 -244t-244 -100h-336zM1368 512h336v1024h-336
v-1024z" />
</svg>
