<?xml version="1.0" standalone="no"?>
<!DOCTYPE svg PUBLIC "-//W3C//DTD SVG 1.1//EN" "http://www.w3.org/Graphics/SVG/1.1/DTD/svg11.dtd" >
<svg xmlns="http://www.w3.org/2000/svg" xmlns:xlink="http://www.w3.org/1999/xlink" version="1.1" width="2048" height="2048" viewBox="-10 0 2068 2048">
   <path fill="currentColor"
d="M1266 1513h782v192h-782v-192zM681 489q101 0 171.5 71t70.5 171.5t-70.5 171.5t-171 71t-171.5 -71t-71 -171.5t71 -171.5t171 -71zM681 50q188 0 343 91.5t246.5 247t91.5 342.5q0 224 -173 554q-128 237 -330 498q-100 132 -178 215l-105 -124q-128 -160 -238 -320
q-146 -219 -233 -411q-105 -238 -105 -412q0 -187 91.5 -342.5t247 -247t342.5 -91.5zM681 242q-132 0 -244 66.5t-178.5 178.5t-66.5 244q0 78 18 142q32 124 128 288q119 220 343 517q224 -297 343 -517q96 -164 128 -288q18 -64 18 -142q0 -132 -66 -244t-178 -178.5
t-245 -66.5z" />
</svg>
