<?xml version="1.0" standalone="no"?>
<!DOCTYPE svg PUBLIC "-//W3C//DTD SVG 1.1//EN" "http://www.w3.org/Graphics/SVG/1.1/DTD/svg11.dtd" >
<svg xmlns="http://www.w3.org/2000/svg" xmlns:xlink="http://www.w3.org/1999/xlink" version="1.1" width="2048" height="2048" viewBox="-10 0 2068 2048">
   <path fill="currentColor"
d="M1438 1241l-139 139l236 236l-236 236l139 138l236 -236l240 236l134 -138l-236 -236l236 -236l-134 -139l-240 236zM689 483q102 0 173.5 71.5t71.5 173.5t-71.5 173.5t-173.5 71.5t-173.5 -71.5t-71.5 -173.5t71.5 -173.5t173.5 -71.5zM689 39q189 0 346.5 92.5
t250 250t92.5 346.5q0 227 -176 560q-129 240 -333 503q-102 134 -180 218l-106 -125q-130 -162 -241 -324q-148 -222 -236 -416q-106 -240 -106 -416q0 -189 92.5 -346.5t249.5 -250t347 -92.5zM689 233q-134 0 -247.5 67.5t-180.5 180.5t-67 247q0 79 19 143
q32 125 129 292q120 222 347 522q226 -300 347 -522q97 -167 129 -292q18 -64 18 -143q0 -134 -67 -247t-180 -180.5t-247 -67.5z" />
</svg>
