<?xml version="1.0" standalone="no"?>
<!DOCTYPE svg PUBLIC "-//W3C//DTD SVG 1.1//EN" "http://www.w3.org/Graphics/SVG/1.1/DTD/svg11.dtd" >
<svg xmlns="http://www.w3.org/2000/svg" xmlns:xlink="http://www.w3.org/1999/xlink" version="1.1" width="2048" height="2048" viewBox="-10 0 2058 2048">
   <path fill="currentColor"
d="M1024 192q160 0 274.5 114.5t114.5 278.5q0 142 -124 375q-105 192 -265 393q-165 -215 -265 -398q-124 -233 -124 -370q0 -164 114.5 -278.5t274.5 -114.5zM1024 0q-160 0 -292.5 77.5t-212.5 212.5t-80 295q0 274 292 700q147 214 293 370l91 -105q110 -133 202 -270
q128 -187 201 -347q91 -202 91 -348q0 -160 -80 -295t-212.5 -212.5t-292.5 -77.5zM1024 389q-82 0 -139.5 57t-57.5 137t57.5 137t139.5 57t139.5 -57t57.5 -137t-57.5 -137t-139.5 -57zM1806 1655q0 105 -105.5 196.5t-286 144t-390.5 52.5t-390.5 -52.5t-286 -144
t-105.5 -196.5q0 -92 80 -172t222 -139l59 87q-164 82 -164 178q0 64 77.5 121t212.5 89t295 32t295 -32t212.5 -89t77.5 -121q0 -96 -174 -178l55 -87q151 59 233.5 139t82.5 172z" />
</svg>
