<?xml version="1.0" standalone="no"?>
<!DOCTYPE svg PUBLIC "-//W3C//DTD SVG 1.1//EN" "http://www.w3.org/Graphics/SVG/1.1/DTD/svg11.dtd" >
<svg xmlns="http://www.w3.org/2000/svg" xmlns:xlink="http://www.w3.org/1999/xlink" version="1.1" width="2048" height="2048" viewBox="-10 0 2058 2048">
   <path fill="currentColor"
d="M1947 1812l-1716 -1711l-130 135l327 326q-19 101 -19 154q0 183 110 433q92 202 245 433q116 168 250 336l111 130l111 -130q129 -158 240 -322l346 351zM1125 1711q-313 -423 -433 -677q-81 -169 -81 -289l697 697q-34 58 -121 183zM755 365l-144 -139
q96 -111 228 -168.5t286 -57.5q197 0 360.5 96t259.5 259.5t96 360.5q0 231 -173 563l-154 -154q82 -159 106 -274q19 -63 19 -135q0 -139 -69.5 -257t-187.5 -187.5t-257 -69.5q-106 0 -202 43t-168 120zM1125 462q106 0 180.5 74.5t74.5 182.5t-82 194l-356 -360
q29 -43 77 -67t106 -24z" />
</svg>
