<?xml version="1.0" standalone="no"?>
<!DOCTYPE svg PUBLIC "-//W3C//DTD SVG 1.1//EN" "http://www.w3.org/Graphics/SVG/1.1/DTD/svg11.dtd" >
<svg xmlns="http://www.w3.org/2000/svg" xmlns:xlink="http://www.w3.org/1999/xlink" version="1.1" width="2048" height="2048" viewBox="-10 0 2068 2048">
   <path fill="currentColor"
d="M462 817q57 0 105 -45.5t48 -105.5t-48 -108t-108 -48t-105.5 48t-45.5 108t45.5 105.5t108.5 45.5zM716 409l717 716l-510 514l-721 -716v-514h514zM716 202h-514q-82 0 -142 60t-60 147v514q0 96 58 144l721 717q43 62 141.5 62t146.5 -62l510 -515q62 -62 62 -144
q0 -96 -62 -144l-716 -717q-49 -62 -145 -62zM1178 380l101 -106l711 707q58 62 58 144q0 43 -14.5 84t-43.5 60l-557 553l-101 -101l586 -596z" />
</svg>
