<?xml version="1.0" standalone="no"?>
<!DOCTYPE svg PUBLIC "-//W3C//DTD SVG 1.1//EN" "http://www.w3.org/Graphics/SVG/1.1/DTD/svg11.dtd" >
<svg xmlns="http://www.w3.org/2000/svg" xmlns:xlink="http://www.w3.org/1999/xlink" version="1.1" width="2048" height="2048" viewBox="-10 0 2058 2048">
   <path fill="currentColor"
d="M1621 971q-157 0 -268.5 111t-111.5 268q0 122 97 304q70 131 182 278l101 116l96 -116q111 -147 182 -278q96 -182 96 -304q0 -157 -111.5 -268t-262.5 -111zM1621 1487q-56 0 -94 -38t-38 -91t40.5 -91t88.5 -38t88.5 40.5t45.5 88.5t-35.5 88.5t-95.5 40.5zM53 971
v-324q0 117 116.5 215.5t316 156.5t432.5 58q91 0 182 -10q-76 137 -76 283q0 31 5 46q-35 5 -111 5q-233 0 -432.5 -58.5t-316 -157t-116.5 -214.5zM53 430q0 -116 116.5 -215t316 -157t432 -58t432.5 58t316.5 157t116.5 217.5t-116.5 217t-316.5 157t-432.5 58.5
t-432 -58.5t-316 -157t-116.5 -219.5zM1241 1911q-151 31 -323 31q-233 0 -432.5 -58t-316 -157t-116.5 -215v-324q0 117 116.5 215.5t316 156.5t432.5 58q71 0 162 -5q60 147 161 298z" />
</svg>
