<?xml version="1.0" standalone="no"?>
<!DOCTYPE svg PUBLIC "-//W3C//DTD SVG 1.1//EN" "http://www.w3.org/Graphics/SVG/1.1/DTD/svg11.dtd" >
<svg xmlns="http://www.w3.org/2000/svg" xmlns:xlink="http://www.w3.org/1999/xlink" version="1.1" width="2048" height="2048" viewBox="-10 0 2063 2048">
   <path fill="currentColor"
d="M2043 170v679q0 58 -40 108.5t-98 61.5v599q0 90 -32 175q-48 112 -133 175q-106 80 -265 80h-170q85 -85 117 -170h53q154 0 218 -111q31 -64 31 -138v-610q-58 -11 -95 -56t-37 -114v-679q0 -69 50.5 -119.5t118.5 -50.5h112q69 0 119.5 50.5t50.5 119.5zM1342 1719
q0 133 -92.5 225.5t-225.5 92.5h-451q-159 0 -265 -79q-85 -64 -133 -175q-32 -85 -32 -175v-589q-58 -11 -98 -61.5t-40 -108.5v-679q0 -69 50.5 -119.5t119.5 -50.5h112q68 0 118.5 50.5t50.5 119.5v679q0 58 -37 108.5t-95 61.5v599q0 80 31 143q64 107 218 107h180
q-37 -69 -37 -138v-1130q0 -128 93 -223.5t228.5 -95.5t220 90.5t84.5 228.5v1119zM1162 589q0 -53 -40 -95.5t-98 -42.5t-98 42.5t-40 95.5v1130q0 58 42.5 98t95.5 40t95.5 -42.5t42.5 -95.5v-1130z" />
</svg>
