<?xml version="1.0" standalone="no"?>
<!DOCTYPE svg PUBLIC "-//W3C//DTD SVG 1.1//EN" "http://www.w3.org/Graphics/SVG/1.1/DTD/svg11.dtd" >
<svg xmlns="http://www.w3.org/2000/svg" xmlns:xlink="http://www.w3.org/1999/xlink" version="1.1" width="2048" height="2048" viewBox="-10 0 2069 2048">
   <path fill="currentColor"
d="M1465 361q144 153 144 345t-144 331l-157 -157q61 -83 61 -181t-61 -181zM1774 47q179 188 242.5 423.5t0 468.5t-242.5 412l-152 -153q126 -143 172 -324t0 -357.5t-172 -316.5zM746 326q152 0 261 109t109 264t-109 264t-261.5 109t-261.5 -109t-109 -264t109 -264
t262 -109zM1116 1307q0 109 -35 236q-52 183 -170 349l-74 -449l87 -175q-100 -9 -180.5 -9t-181.5 9l92 175l-79 449q-117 -166 -165 -349q-35 -127 -35 -236q-174 53 -274.5 135.5t-100.5 187.5v371h1491v-371q0 -100 -102.5 -185t-272.5 -138z" />
</svg>
