<?xml version="1.0" standalone="no"?>
<!DOCTYPE svg PUBLIC "-//W3C//DTD SVG 1.1//EN" "http://www.w3.org/Graphics/SVG/1.1/DTD/svg11.dtd" >
<svg xmlns="http://www.w3.org/2000/svg" xmlns:xlink="http://www.w3.org/1999/xlink" version="1.1" width="2048" height="2048" viewBox="-10 0 2058 2048">
   <path fill="currentColor"
d="M1964 1850q-18 -27 -45 -31q-36 -9 -63 13q-53 45 -113.5 63t-136.5 4l-103 -27l-102 -589l-309 -251l166 -272q84 129 225 209.5t302 80.5v-192q-134 0 -239 -71.5t-150 -187.5l-54 -116q-17 -27 -55 -63t-101 -36h-541l-241 380l165 103l179 -295h223l-236 380
q-45 62 -27 147l80 327l-335 223l-45 -9q-67 -13 -120.5 -55.5t-75.5 -100.5q-18 -36 -51.5 -42.5t-56 11t-27 42t0.5 47.5q44 89 120 151.5t179 85.5l1202 259q108 22 201.5 -4.5t169.5 -93.5q18 -14 23 -36q0 -40 -9 -54zM712 1707l291 -192l-45 -317l273 192l71 442z
M1593 192q0 81 -56 136.5t-134 55.5t-134 -55.5t-56 -136t56 -136.5t134 -56t134 56t56 136z" />
</svg>
