<?xml version="1.0" standalone="no"?>
<!DOCTYPE svg PUBLIC "-//W3C//DTD SVG 1.1//EN" "http://www.w3.org/Graphics/SVG/1.1/DTD/svg11.dtd" >
<svg xmlns="http://www.w3.org/2000/svg" xmlns:xlink="http://www.w3.org/1999/xlink" version="1.1" width="2048" height="2048" viewBox="-10 0 2069 2048">
   <path fill="currentColor"
d="M767 479l-161 -157q65 -30 140 -30q152 0 261 109t109 265q0 70 -26 140l-157 -161q-9 -66 -57 -111.5t-109 -54.5zM1774 1316q179 -179 242.5 -412t0 -468.5t-242.5 -422.5l-152 152q126 140 172 316.5t0 357.5t-172 325zM1465 1002q144 -139 144 -331t-144 -345
l-157 157q61 83 61 181t-61 181zM131 82l-118 118l375 375q-13 52 -13 91q0 153 109 262t262 109q39 0 91 -13l266 270l-30 70q100 31 178 74l61 66v287h-392l-83 -471l87 -174q-96 -13 -178.5 -13t-178.5 13l87 174l-83 471h-392v-287q0 -31 69.5 -70t170.5 -70l-79 -161
q-148 48 -235 117q-105 83 -105 184v462h1491v-288l358 357l117 -117z" />
</svg>
