<?xml version="1.0" standalone="no"?>
<!DOCTYPE svg PUBLIC "-//W3C//DTD SVG 1.1//EN" "http://www.w3.org/Graphics/SVG/1.1/DTD/svg11.dtd" >
<svg xmlns="http://www.w3.org/2000/svg" xmlns:xlink="http://www.w3.org/1999/xlink" version="1.1" width="2048" height="2048" viewBox="-10 0 2058 2048">
   <path fill="currentColor"
d="M1740 1231h-144v817h144v-817zM452 2048h-144l202 -817h149zM692 774v351h-182v-481l476 -202q62 -29 134 -7t116 84l96 154q72 130 168 183q106 67 240 67v188q-158 0 -293 -68q-111 -53 -231 -187l-57 288l202 188v716h-193v-562l-197 -202l-178 764h-202l274 -1341z
M1433 202q0 86 -60.5 146.5t-144.5 60.5t-144 -60.5t-60 -144.5t60 -144t144 -60t144.5 60t60.5 142z" />
</svg>
