<?xml version="1.0" standalone="no"?>
<!DOCTYPE svg PUBLIC "-//W3C//DTD SVG 1.1//EN" "http://www.w3.org/Graphics/SVG/1.1/DTD/svg11.dtd" >
<svg xmlns="http://www.w3.org/2000/svg" xmlns:xlink="http://www.w3.org/1999/xlink" version="1.1" width="2048" height="2048" viewBox="-10 0 2058 2048">
   <path fill="currentColor"
d="M255 0l207 2048h1129l202 -2048h-1538zM481 202h1086l-29 332q-355 139 -524 9l-24 -19q-57 -53 -105 -77q-116 -53 -270 -5q-53 15 -101 48zM755 625q24 0 40.5 7t45.5 36l48 39q87 67 222 86q182 29 403 -33l-110 1086h-760l-110 -1125q4 -5 48 -34q62 -38 86 -48
q58 -14 87 -14z" />
</svg>
