<?xml version="1.0" standalone="no"?>
<!DOCTYPE svg PUBLIC "-//W3C//DTD SVG 1.1//EN" "http://www.w3.org/Graphics/SVG/1.1/DTD/svg11.dtd" >
<svg xmlns="http://www.w3.org/2000/svg" xmlns:xlink="http://www.w3.org/1999/xlink" version="1.1" width="2048" height="2048" viewBox="-10 0 2069 2048">
   <path fill="currentColor"
d="M1465 361q144 153 144 345t-144 331l-157 -157q61 -83 61 -181t-61 -181zM1774 47q179 188 242.5 423.5t0 468.5t-242.5 412l-152 -153q126 -143 172 -324t0 -357.5t-172 -316.5zM1151 1238q148 48 235 117q105 83 105 183v463h-1491v-463q0 -100 105 -183
q87 -69 235 -117l79 161q-101 30 -170.5 69.5t-69.5 69.5v288h392l83 -471l-87 -174q96 -13 178.5 -13t178.5 13l-87 174l83 471h392v-288q0 -30 -69.5 -69.5t-169.5 -69.5l21 -48zM746 514q-79 0 -133.5 54.5t-54.5 130.5t54.5 130.5t133 54.5t133 -54.5t54.5 -130.5
t-54.5 -130.5t-132.5 -54.5zM746 1072q-153 0 -262 -109t-109 -264t109 -264t261.5 -109t261.5 109t109 264t-109 264t-261 109z" />
</svg>
