<?xml version="1.0" standalone="no"?>
<!DOCTYPE svg PUBLIC "-//W3C//DTD SVG 1.1//EN" "http://www.w3.org/Graphics/SVG/1.1/DTD/svg11.dtd" >
<svg xmlns="http://www.w3.org/2000/svg" xmlns:xlink="http://www.w3.org/1999/xlink" version="1.1" width="2048" height="2048" viewBox="-10 0 2058 2048">
   <path fill="currentColor"
d="M269 155q0 -64 45.5 -109.5t109 -45.5t109 43t45.5 109t-48 107t-107 41t-106.5 -45.5t-47.5 -99.5zM1993 191l-45 -86l-778 396l50 91zM1880 1784l86 87q-82 81 -187 127q-109 50 -223 50h-1501v-127h259l205 -342l-223 -309l-78 -756q0 -68 50.5 -118t113.5 -50
q41 0 78 23l341 250l223 -77l77 154l-341 146l-59 -46q-137 -104 -200 -159l36 341l514 437l169 506h336q101 0 178 -41q73 -23 146 -96zM537 1921h487l-155 -378l-223 -187l114 246z" />
</svg>
