<?xml version="1.0" standalone="no"?>
<!DOCTYPE svg PUBLIC "-//W3C//DTD SVG 1.1//EN" "http://www.w3.org/Graphics/SVG/1.1/DTD/svg11.dtd" >
<svg xmlns="http://www.w3.org/2000/svg" xmlns:xlink="http://www.w3.org/1999/xlink" version="1.1" width="2048" height="2048" viewBox="-10 0 2058 2048">
   <path fill="currentColor"
d="M1600 1202q-18 0 -70.5 -16t-71.5 -25l-201 631l-302 -110l215 -562l-297 -338l247 -142q64 160 205.5 276.5t320.5 144.5l109 -334l-141 -46l-51 156q-96 -42 -169 -122t-105 -185l-32 -105q-18 -59 -66 -93.5t-107.5 -39t-109.5 22.5l-339 197q-54 32 -79.5 84.5
t-20.5 116.5q4 50 55 105l347 361l-164 435l-677 -243l-46 138l1367 498q114 41 242 41q92 0 179 -23t160 -64l-110 -105q-110 46 -229 46q-96 0 -192 -32l-73 -28zM1705 197q0 82 -57 139t-137 57t-137 -57t-57 -139.5t57 -139.5t137 -57t137 57t57 140z" />
</svg>
