<?xml version="1.0" standalone="no"?>
<!DOCTYPE svg PUBLIC "-//W3C//DTD SVG 1.1//EN" "http://www.w3.org/Graphics/SVG/1.1/DTD/svg11.dtd" >
<svg xmlns="http://www.w3.org/2000/svg" xmlns:xlink="http://www.w3.org/1999/xlink" version="1.1" width="2048" height="2048" viewBox="-10 0 2058 2048">
   <path fill="currentColor"
d="M1024 0q-24 14 -48 34q-58 48 -106 105q-67 77 -106 164q-48 101 -48 202t29 207q15 67 63 192q57 154 77 240q38 144 38 289h-106v-58q-9 -77 -29 -154q-28 -106 -72 -197q-72 -144 -182 -202q-97 -48 -197.5 -16.5t-168 120t-67.5 197t34 180.5q24 58 67 91
q34 24 72 34l34 5q0 -106 52.5 -168.5t125 -62.5t125 62.5t52.5 168.5h-153v206h360l-154 207l29 19q39 24 77 24q53 0 101 -43l101 202l101 -202q48 43 101 43q38 0 77 -24l29 -19l-154 -207h360v-206h-153q0 -106 52.5 -168.5t125 -62.5t125 62.5t52.5 168.5l34 -5
q38 -10 72 -34q43 -33 67 -91q34 -72 34 -180.5t-67.5 -197t-168 -120t-197.5 16.5q-110 58 -182 202q-63 130 -92 284q-9 77 -9 125h-106q0 -145 38 -289q20 -86 77 -240q48 -125 63 -192q29 -106 29 -202q0 -193 -154 -371q-77 -91 -154 -139z" />
</svg>
