<?xml version="1.0" standalone="no"?>
<!DOCTYPE svg PUBLIC "-//W3C//DTD SVG 1.1//EN" "http://www.w3.org/Graphics/SVG/1.1/DTD/svg11.dtd" >
<svg xmlns="http://www.w3.org/2000/svg" xmlns:xlink="http://www.w3.org/1999/xlink" version="1.1" width="2048" height="2048" viewBox="-10 0 2058 2048">
   <path fill="currentColor"
d="M1733 866v157q0 134 -49 258t-133 216.5t-201 154t-248 76.5v162h316q32 0 55 23.5t23 55.5t-23 55.5t-55 23.5h-788q-32 0 -55.5 -23.5t-23.5 -55.5t23.5 -55.5t55.5 -23.5h315v-162q-131 -15 -247.5 -76.5t-201 -154t-133 -216.5t-48.5 -258v-157q0 -32 23 -55.5
t55.5 -23.5t55.5 23.5t23 55.5v157q0 112 43.5 214t117.5 176t176.5 118t214 44t214 -44t176 -118t117.5 -176t44 -214v-157q0 -32 23 -55.5t55.5 -23.5t56 23.5t23.5 55.5zM1418 393v630q0 107 -53 198t-144 144t-197.5 53t-197 -53t-143.5 -144t-53 -198v-630
q0 -106 53 -197t143.5 -143.5t197 -52.5t197.5 52.5t144 143.5t53 197z" />
</svg>
