<?xml version="1.0" standalone="no"?>
<!DOCTYPE svg PUBLIC "-//W3C//DTD SVG 1.1//EN" "http://www.w3.org/Graphics/SVG/1.1/DTD/svg11.dtd" >
<svg xmlns="http://www.w3.org/2000/svg" xmlns:xlink="http://www.w3.org/1999/xlink" version="1.1" width="2048" height="2048" viewBox="-10 0 2058 2048">
   <path fill="currentColor"
d="M1663 1538q0 135 -52 260h-145q72 -120 72 -257t-67 -257.5t-187.5 -190t-259.5 -69.5t-257 -69.5t-187.5 -187.5t-69.5 -257.5t69.5 -257t187.5 -185t257 -67.5t257 67.5t187.5 185t69.5 257.5h-129q0 -159 -113 -272t-272 -113t-272 113t-113 271.5t113 271.5t272 113
q173 0 319.5 86.5t233 235.5t86.5 322zM437 1798q-52 -125 -52 -260h125q0 140 72 260h-145zM1663 1923v125h-1278v-125h384v-514h-130v-130h770v130h-130v514h384zM1154 1409h-260v514h260v-514zM1274 519q-5 101 -77 173t-175.5 72t-175.5 -76.5t-69.5 -180t74.5 -178
t175.5 -72t178 79t69.5 182.5zM1154 510q0 -53 -38.5 -89t-91.5 -36t-91.5 36t-38.5 88.5t38.5 91t91.5 38.5t91.5 -38.5t38.5 -90.5z" />
</svg>
