<?xml version="1.0" standalone="no"?>
<!DOCTYPE svg PUBLIC "-//W3C//DTD SVG 1.1//EN" "http://www.w3.org/Graphics/SVG/1.1/DTD/svg11.dtd" >
<svg xmlns="http://www.w3.org/2000/svg" xmlns:xlink="http://www.w3.org/1999/xlink" version="1.1" width="2048" height="2048" viewBox="-10 0 2068 2048">
   <path fill="currentColor"
d="M793 235q-218 0 -398.5 76.5t-287.5 203t-107 278.5q0 161 131 305q-61 87 -96 187.5t-35 204.5v327q0 74 54.5 128.5t132.5 54.5h1207q79 0 133.5 -54.5t54.5 -128.5v-327q0 -178 -92 -327l183 -183l-279 -278l-191 191q-205 -109 -438 -102.5t-429 133.5
q-57 -57 -57 -135.5t69.5 -148t187.5 -111t257 -41.5q96 0 187.5 24t165.5 68l183 -188q-240 -161 -536 -157zM793 980q157 0 301 79q135 74 217.5 194t82.5 237v327h-1207v-327q0 -117 85 -237t220 -194q144 -79 301 -79zM837 1120q-214 0 -338 106.5t-124 311.5v92h183
v-92q0 -131 35 -209q65 -152 244 -209zM2048 636q0 113 -69.5 213.5t-174.5 126.5l-131 -126h70q65 0 115.5 -74t50.5 -148.5t-52.5 -133t-122.5 -58.5v-140q127 0 220.5 104.5t93.5 235.5zM1551 584q-96 -92 -96 -222.5t91.5 -222t222.5 -91.5v139q-70 0 -122 52.5t-52 122
t52 120t122 50.5v139q-113 0 -205 65l-100 -100q39 -30 87 -52z" />
</svg>
