<?xml version="1.0" standalone="no"?>
<!DOCTYPE svg PUBLIC "-//W3C//DTD SVG 1.1//EN" "http://www.w3.org/Graphics/SVG/1.1/DTD/svg11.dtd" >
<svg xmlns="http://www.w3.org/2000/svg" xmlns:xlink="http://www.w3.org/1999/xlink" version="1.1" width="2048" height="2048" viewBox="-10 0 2058 2048">
   <path fill="currentColor"
d="M1115 226q169 77 308 82q115 0 207 -44q77 -38 130 -110q38 -48 67 -106l19 -48l-29 101q-38 125 -96 240q-82 164 -192 289q-140 158 -322 245q-106 53 -173 82l-856 -419l856 -355v4zM933 2048l-798 -433v-894l798 409v918zM1115 2048l798 -433v-894l-798 409v918z" />
</svg>
