<?xml version="1.0" standalone="no"?>
<!DOCTYPE svg PUBLIC "-//W3C//DTD SVG 1.1//EN" "http://www.w3.org/Graphics/SVG/1.1/DTD/svg11.dtd" >
<svg xmlns="http://www.w3.org/2000/svg" xmlns:xlink="http://www.w3.org/1999/xlink" version="1.1" width="2048" height="2048" viewBox="-10 0 2068 2048">
   <path fill="currentColor"
d="M793 142q-218 0 -398.5 76t-287.5 202.5t-107 278.5q0 162 131 305q-131 175 -131 393v326q0 74 54.5 128.5t132.5 54.5h1207q79 0 133.5 -54.5t54.5 -128.5v-326q0 -179 -92 -327l183 -183l-279 -279l-191 192q-205 -109 -438 -102.5t-429 132.5q-57 -57 -57 -135
t69.5 -148t187.5 -111.5t257 -41.5q96 0 187.5 24t165.5 68l183 -188q-222 -156 -536 -156zM793 887q157 0 301 78q135 74 217.5 194t82.5 238v326h-1207v-326q0 -118 85 -238t220 -194q144 -78 301 -78zM837 1026q-214 0 -338 107t-124 311v92h183v-92q0 -130 35 -209
q65 -152 244 -209zM1861 1070v-558h187v558h-187zM1861 1444v-187h187v187h-187z" />
</svg>
