<?xml version="1.0" standalone="no"?>
<!DOCTYPE svg PUBLIC "-//W3C//DTD SVG 1.1//EN" "http://www.w3.org/Graphics/SVG/1.1/DTD/svg11.dtd" >
<svg xmlns="http://www.w3.org/2000/svg" xmlns:xlink="http://www.w3.org/1999/xlink" version="1.1" width="2048" height="2048" viewBox="-10 0 2068 2048">
   <path fill="currentColor"
d="M1563 839q-203 0 -344.5 142t-141.5 344t141.5 343.5t344 141.5t344 -141.5t141.5 -343.5t-141.5 -344t-343.5 -142zM1563 1649q-137 0 -230.5 -94t-93.5 -230q0 -76 45 -162l440 440q-86 46 -161 46zM1841 1487l-440 -445q55 -41 162 -41q136 0 229.5 91t93.5 233
q0 76 -45 162zM1087 804l-162 -162l359 -354q46 -50 111.5 -50t111.5 50l238 228q60 55 45 136q-96 -30 -217 -30q-263 0 -486 182zM915 1583l-162 151q-50 46 -113.5 46t-113.5 -46l-76 76h-450l298 -303q-45 -51 -45 -114t45 -114l511 -505l172 172q-121 172 -121 379
q0 111 55 258z" />
</svg>
