<?xml version="1.0" standalone="no"?>
<!DOCTYPE svg PUBLIC "-//W3C//DTD SVG 1.1//EN" "http://www.w3.org/Graphics/SVG/1.1/DTD/svg11.dtd" >
<svg xmlns="http://www.w3.org/2000/svg" xmlns:xlink="http://www.w3.org/1999/xlink" version="1.1" width="2048" height="2048" viewBox="-10 0 2058 2048">
   <path fill="currentColor"
d="M491 1163l-125 124q-51 -125 -51 -264v-157q0 -32 23 -55.5t55.5 -23.5t56 23.5t23.5 55.5v157q0 65 18 140zM1863 422l-445 444v157q0 107 -53 198t-143.5 144t-196.5 53q-69 0 -135 -24l-119 118q119 63 254 63q111 0 213.5 -44t176.5 -118t117.5 -176t43.5 -214v-157
q0 -32 23 -55.5t55.5 -23.5t55.5 23.5t23 55.5v157q0 134 -48.5 258t-133 216.5t-201 154t-247.5 76.5v162h315q32 0 55 23.5t23 55.5t-23 55.5t-55 23.5h-788q-32 0 -55 -23.5t-23 -55.5t23 -55.5t55 -23.5h315v-162q-153 -16 -289 -99l-312 312q-12 12 -28.5 12t-28.5 -12
l-102 -101q-12 -12 -12 -28t12 -28l1520 -1520q13 -12 28.5 -12t27.5 12l102 101q12 12 12 28.5t-12 28.5zM1395 259l-765 764v-630q0 -106 53 -197t144 -143.5t198 -52.5q125 0 226.5 72.5t143.5 186.5z" />
</svg>
