<?xml version="1.0" standalone="no"?>
<!DOCTYPE svg PUBLIC "-//W3C//DTD SVG 1.1//EN" "http://www.w3.org/Graphics/SVG/1.1/DTD/svg11.dtd" >
<svg xmlns="http://www.w3.org/2000/svg" xmlns:xlink="http://www.w3.org/1999/xlink" version="1.1" width="2048" height="2048" viewBox="-10 0 2068 2048">
   <path fill="currentColor"
d="M1740 1947v-207h-408v-202h408v-206l308 307zM1024 1639q0 -168 84 -307.5t224 -225.5q-10 -39 -36.5 -60.5t-64.5 -21.5h-616v-207h202q48 0 77 -26.5t29 -74.5v-206h202q86 0 146.5 -60.5t60.5 -141.5v-44q230 97 372 301t142 459v29q87 29 192 115q10 -43 10 -144
q0 -279 -137 -514.5t-372.5 -372.5t-514.5 -137t-514.5 137t-372.5 372.5t-137 514.5t137 514.5t372.5 372.5t514.5 137q101 0 144 -10q-144 -173 -144 -399zM923 1836q-207 -28 -370.5 -141t-257 -288.5t-93.5 -382.5q0 -62 24 -183l490 491v101q0 86 60.5 146t146.5 60
v197z" />
</svg>
