<?xml version="1.0" standalone="no"?>
<!DOCTYPE svg PUBLIC "-//W3C//DTD SVG 1.1//EN" "http://www.w3.org/Graphics/SVG/1.1/DTD/svg11.dtd" >
<svg xmlns="http://www.w3.org/2000/svg" xmlns:xlink="http://www.w3.org/1999/xlink" version="1.1" width="2048" height="2048" viewBox="-10 0 2068 2048">
   <path fill="currentColor"
d="M1673 980l-279 -278l-191 191q-188 -100 -410 -100q-253 0 -462 131q-52 -61 -52 -131q0 -83 69.5 -152.5t187.5 -109t257 -39.5q205 0 353 83l187 -187q-109 -74 -248 -113.5t-292 -39.5q-218 0 -398.5 74t-287.5 203t-107 281q0 170 135 309q-135 175 -135 388v327
q0 74 54.5 128.5t132.5 54.5h1207q79 0 133.5 -54.5t54.5 -128.5v-327q0 -174 -92 -327zM375 1582v235h-188v-235q0 -161 81 -300.5t220 -220.5t305 -81q35 0 92 9q-218 31 -364 201t-146 392zM2048 636q0 113 -69.5 213.5t-174.5 126.5l-131 -126h70q65 0 115.5 -74
t50.5 -148.5t-52.5 -133t-122.5 -58.5v-140q127 0 220.5 104.5t93.5 235.5zM1551 584q-96 -92 -96 -222.5t91.5 -222t222.5 -91.5v139q-70 0 -122 52.5t-52 122t52 120t122 50.5v139q-113 0 -205 65l-100 -100q39 -30 87 -52z" />
</svg>
