<?xml version="1.0" standalone="no"?>
<!DOCTYPE svg PUBLIC "-//W3C//DTD SVG 1.1//EN" "http://www.w3.org/Graphics/SVG/1.1/DTD/svg11.dtd" >
<svg xmlns="http://www.w3.org/2000/svg" xmlns:xlink="http://www.w3.org/1999/xlink" version="1.1" width="2048" height="2048" viewBox="-10 0 2068 2048">
   <path fill="currentColor"
d="M1533 257q-156 0 -269.5 114t-113.5 270v766q0 156 113.5 270t269.5 114h132q155 0 269 -114t114 -270v-383q0 -156 -114 -269.5t-269 -113.5h-258q0 -54 36 -90t90 -36h258q101 0 179 -78t78 -180h-515zM132 641v257h383q54 0 90 36t36 90h-258q-155 0 -269 114
t-114 269.5t114 269.5t269 114h515v-767q0 -156 -113.5 -269.5t-269.5 -113.5h-383zM1407 898h258q54 0 90 36t36 90v383q0 54 -36 90t-90 36h-132q-54 0 -90 -36t-36 -90v-509zM383 1281h258v252h-258q-54 0 -90 -36t-36 -90t36 -90t90 -36z" />
</svg>
