<?xml version="1.0" standalone="no"?>
<!DOCTYPE svg PUBLIC "-//W3C//DTD SVG 1.1//EN" "http://www.w3.org/Graphics/SVG/1.1/DTD/svg11.dtd" >
<svg xmlns="http://www.w3.org/2000/svg" xmlns:xlink="http://www.w3.org/1999/xlink" version="1.1" width="2048" height="2048" viewBox="-10 0 2068 2048">
   <path fill="currentColor"
d="M1981 1577q67 62 67 151t-60 154t-152 65h-908q-144 0 -262 -69.5t-187.5 -187.5t-69.5 -262v-5q-178 -38 -293.5 -177.5t-115.5 -322.5q0 -139 67.5 -257t185 -187.5t257.5 -69.5h259q19 0 33.5 -14.5t14.5 -36t-14.5 -36t-33.5 -14.5h-259v-207h259q106 0 180.5 74.5
t74.5 182.5t-74.5 182.5t-180.5 74.5h-259q-125 0 -216.5 89t-91.5 219q0 101 62.5 182.5t158.5 110.5q43 -173 182.5 -286t322.5 -113q115 0 235 58q-110 62 -175 170.5t-65 233.5q0 197 135 327l72 -72q-106 -101 -106 -255q0 -120 67 -212q53 -72 145 -110
q76 -34 149 -34q105 0 196.5 57.5t135 158.5t19.5 217zM1639 1740q44 0 72.5 -28.5t28.5 -72t-28.5 -72.5t-72 -29t-72.5 29t-29 72.5t29 72t72 28.5z" />
</svg>
