<?xml version="1.0" standalone="no"?>
<!DOCTYPE svg PUBLIC "-//W3C//DTD SVG 1.1//EN" "http://www.w3.org/Graphics/SVG/1.1/DTD/svg11.dtd" >
<svg xmlns="http://www.w3.org/2000/svg" xmlns:xlink="http://www.w3.org/1999/xlink" version="1.1" width="2048" height="2048" viewBox="-10 0 2058 2048">
   <path fill="currentColor"
d="M1442 1135l577 576l-341 332l-572 -572v-91l240 -245h96zM1534 875l-101 -96l-491 490v202l-577 577l-336 -337l572 -576h202l82 -77l-395 -399h-134l-289 -289l270 -269l288 288v135l399 394l274 -274l-101 -106l135 -134h-274l-68 -67l342 -337l67 67v270l135 -135
l336 336q82 87 82 207t-82 202l-202 -207z" />
</svg>
