<?xml version="1.0" standalone="no"?>
<!DOCTYPE svg PUBLIC "-//W3C//DTD SVG 1.1//EN" "http://www.w3.org/Graphics/SVG/1.1/DTD/svg11.dtd" >
<svg xmlns="http://www.w3.org/2000/svg" xmlns:xlink="http://www.w3.org/1999/xlink" version="1.1" width="2048" height="2048" viewBox="-10 0 2058 2048">
   <path fill="currentColor"
d="M994 0q-186 0 -317.5 131.5t-131.5 314.5t132 309q-150 101 -237 257t-87 338.5t96 344t257.5 257.5t353.5 96q347 0 635 -174l-126 -221q-240 138 -509 138q-186 0 -317.5 -132t-131.5 -318q0 -149 92.5 -269t236.5 -162l665 -179l-66 -246l-569 156q-72 -12 -120 -66
t-48 -129t57 -132t135 -57q48 0 96 24l126 -221q-102 -60 -222 -60z" />
</svg>
