<?xml version="1.0" standalone="no"?>
<!DOCTYPE svg PUBLIC "-//W3C//DTD SVG 1.1//EN" "http://www.w3.org/Graphics/SVG/1.1/DTD/svg11.dtd" >
<svg xmlns="http://www.w3.org/2000/svg" xmlns:xlink="http://www.w3.org/1999/xlink" version="1.1" width="2048" height="2048" viewBox="-10 0 2058 2048">
   <path fill="currentColor"
d="M1621 1110v-854h-598v1517q164 -88 285 -184q60 -47 110 -96t98.5 -111t76.5 -132.5t28 -139.5zM1878 85v1025q0 90 -28 179t-71.5 162.5t-106.5 145.5t-124.5 126.5t-134 107t-127 86t-112 64.5t-78.5 41.5t-38 17.5q-14 8 -35 8q-19 0 -33 -8q-17 -7 -38 -17.5
t-78.5 -41.5t-112 -64.5t-127 -86t-134 -107t-124.5 -126.5t-106.5 -145.5t-71.5 -162.5t-28 -179v-1025q0 -35 25.5 -60t60.5 -25h1536q35 0 60.5 25t25.5 60z" />
</svg>
