<?xml version="1.0" standalone="no"?>
<!DOCTYPE svg PUBLIC "-//W3C//DTD SVG 1.1//EN" "http://www.w3.org/Graphics/SVG/1.1/DTD/svg11.dtd" >
<svg xmlns="http://www.w3.org/2000/svg" xmlns:xlink="http://www.w3.org/1999/xlink" version="1.1" width="2048" height="2048" viewBox="-10 0 2058 2048">
   <path fill="currentColor"
d="M1137 0q-208 0 -387 101.5t-288 274.5t-120 381l-219 288q-21 27 -5 59t53 32h171v341q0 96 66.5 163t162.5 67h112v341h795v-533q208 -96 333.5 -291t125.5 -429q0 -214 -107 -398t-291 -290.5t-402 -106.5zM795 912q-42 0 -77 -34.5t-35 -80t35 -80t80 -34.5t80 34.5
t35 80t-35 80t-83 34.5zM1137 912q-43 0 -77.5 -34.5t-34.5 -80t34.5 -80t80 -34.5t80 34.5t34.5 80t-34.5 80t-82.5 34.5zM1478 912q-43 0 -77.5 -34.5t-34.5 -80t34.5 -80t80 -34.5t80 34.5t34.5 80t-34.5 80t-82.5 34.5z" />
</svg>
