<?xml version="1.0" standalone="no"?>
<!DOCTYPE svg PUBLIC "-//W3C//DTD SVG 1.1//EN" "http://www.w3.org/Graphics/SVG/1.1/DTD/svg11.dtd" >
<svg xmlns="http://www.w3.org/2000/svg" xmlns:xlink="http://www.w3.org/1999/xlink" version="1.1" width="2048" height="2048" viewBox="-10 0 2058 2048">
   <path fill="currentColor"
d="M1137 635q69 0 117 48t48 114.5t-48 114.5t-114.5 48t-114.5 -48t-48 -114.5t45 -114.5t115 -48zM1137 0q218 0 402 106.5t291 290.5t107 398q0 234 -125.5 429t-333.5 291v533h-795v-341h-112q-96 0 -162.5 -67t-66.5 -163v-341h-171q-37 0 -53 -32t5 -59l219 -288
q11 -208 120 -381t288 -274.5t387 -101.5zM1478 795q0 -27 -5 -43l101 -75q5 -5 8 -15.5t-3 -16.5l-90 -154q-6 -11 -16.5 -13.5t-15.5 2.5l-112 48q-27 -32 -75 -48l-16 -117q-5 -22 -27 -22h-181q-21 0 -21 22l-16 117q-43 16 -75 48l-117 -48q-16 -5 -27 11l-91 154
q-10 27 6 32l96 75l-6 43l6 48l-96 74q-16 6 -6 27l91 160q5 11 27 11l112 -48q37 26 80 42l16 123q0 21 21 21h181q16 0 27 -21l16 -123q53 -21 75 -42l112 48q26 0 32 -11l90 -160q6 -16 -5 -27l-96 -74v-48z" />
</svg>
