<?xml version="1.0" standalone="no"?>
<!DOCTYPE svg PUBLIC "-//W3C//DTD SVG 1.1//EN" "http://www.w3.org/Graphics/SVG/1.1/DTD/svg11.dtd" >
<svg xmlns="http://www.w3.org/2000/svg" xmlns:xlink="http://www.w3.org/1999/xlink" version="1.1" width="2048" height="2048" viewBox="-10 0 2058 2048">
   <path fill="currentColor"
d="M1118 187q179 0 329 87.5t237.5 237.5t87.5 325q0 191 -102.5 350t-272.5 238v436h-649v-279h-92q-78 0 -132.5 -54.5t-54.5 -133.5v-278h-140q-30 0 -43 -26.5t4 -48.5l179 -235q8 -170 97.5 -311.5t235.5 -224.5t316 -83zM1118 0q-209 0 -390 98t-298.5 266t-139.5 372
l-148 196h-4q-40 53 -44 118.5t26 126.5q52 100 161 122v95q0 131 81 231.5t198 130.5v292h1024v-514q175 -113 273 -298.5t98 -398.5q0 -227 -111.5 -418.5t-305 -305t-420.5 -113.5zM1493 728q0 100 -87 204q-57 70 -231 227l-57 52l-52 -52q-175 -157 -231 -227
q-87 -104 -87 -204q0 -83 58.5 -142t141.5 -63h4q101 0 166 78q70 -78 170 -78q83 0 144 59t61 146z" />
</svg>
