<?xml version="1.0" standalone="no"?>
<!DOCTYPE svg PUBLIC "-//W3C//DTD SVG 1.1//EN" "http://www.w3.org/Graphics/SVG/1.1/DTD/svg11.dtd" >
<svg xmlns="http://www.w3.org/2000/svg" xmlns:xlink="http://www.w3.org/1999/xlink" version="1.1" width="2048" height="2048" viewBox="-10 0 2058 2048">
   <path fill="currentColor"
d="M783 201q0 -33 -23.5 -56.5t-56.5 -23.5t-57 23.5t-24 56.5t24 56.5t57 23.5t56.5 -23.5t23.5 -56.5zM1907 160v402q0 20 -15 32q-10 9 -24 9q-6 0 -9 -1l-562 -121q-14 -2 -23 -14t-9 -26h-322v129q139 28 230.5 139t91.5 255v1004q0 33 -23.5 56.5t-56.5 23.5h-643
q-33 0 -56.5 -23.5t-23.5 -56.5v-1004q0 -133 78.5 -239t202.5 -144v-140h-40q-55 0 -107 16t-91 39t-75 54.5t-59.5 58.5t-43 54.5t-26.5 39t-9 16.5q-11 21 -30.5 32.5t-41 11.5t-36.5 -9q-29 -15 -39 -46t4 -61q0 -1 1 -2q9 -17 21 -36.5t48.5 -67.5t76.5 -87t104 -81
t133 -64q-31 -55 -31 -108q0 -83 58.5 -142t142 -59t142.5 59t59 142q0 40 -18 80h379q0 -14 9 -25t23 -13l562 -121q3 -1 9 -1q14 0 24 9q15 12 15 30z" />
</svg>
