<?xml version="1.0" standalone="no"?>
<!DOCTYPE svg PUBLIC "-//W3C//DTD SVG 1.1//EN" "http://www.w3.org/Graphics/SVG/1.1/DTD/svg11.dtd" >
<svg xmlns="http://www.w3.org/2000/svg" xmlns:xlink="http://www.w3.org/1999/xlink" version="1.1" width="2048" height="2048" viewBox="-10 0 2058 2048">
   <path fill="currentColor"
d="M1137 0q-208 0 -387 101.5t-288 274.5t-120 381l-219 288q-21 27 -5 59t53 32h171v341q0 96 66.5 163t162.5 67h112v341h795v-533q208 -96 333.5 -291t125.5 -429q0 -214 -107 -398t-291 -290.5t-402 -106.5zM1254 1253h-229v-229h229v229zM1451 661q-48 64 -128 107
q-42 27 -55.5 56t-13.5 88h-229q0 -91 34.5 -136t119.5 -104q48 -27 72 -67t24 -93t-32 -85t-80 -32t-77 26.5t-35 79.5h-218v-5q0 -133 90.5 -200t242.5 -67t242.5 77.5t90.5 205.5q0 80 -48 149z" />
</svg>
