<?xml version="1.0" standalone="no"?>
<!DOCTYPE svg PUBLIC "-//W3C//DTD SVG 1.1//EN" "http://www.w3.org/Graphics/SVG/1.1/DTD/svg11.dtd" >
<svg xmlns="http://www.w3.org/2000/svg" xmlns:xlink="http://www.w3.org/1999/xlink" version="1.1" width="2048" height="2048" viewBox="-10 0 2058 2048">
   <path fill="currentColor"
d="M1137 0q-208 0 -387 101.5t-288 274.5t-120 381l-219 288q-21 27 -5 59t53 32h171v341q0 96 66.5 163t162.5 67h112v341h795v-533q208 -96 333.5 -291t125.5 -429q0 -214 -107 -398t-291 -290.5t-402 -106.5zM1601 747l-224 58l165 166q27 32 27 74.5t-29.5 72t-72 29.5
t-69.5 -32l-165 -160l-59 218q-11 43 -48 64.5t-77 10.5t-61.5 -48t-10.5 -75l58 -224l-224 59q-42 11 -77 -10.5t-45.5 -61.5t11 -77.5t58.5 -47.5l224 -59l-165 -165q-27 -32 -27 -72t29.5 -72t72 -32t69.5 32l165 165l64 -224q5 -43 42.5 -64t77.5 -10.5t61.5 48
t10.5 79.5l-59 224l224 -64q43 -10 80.5 11t48 64t-11 77.5t-63.5 45.5z" />
</svg>
