<?xml version="1.0" standalone="no"?>
<!DOCTYPE svg PUBLIC "-//W3C//DTD SVG 1.1//EN" "http://www.w3.org/Graphics/SVG/1.1/DTD/svg11.dtd" >
<svg xmlns="http://www.w3.org/2000/svg" xmlns:xlink="http://www.w3.org/1999/xlink" version="1.1" width="2048" height="2048" viewBox="-10 0 2058 2048">
   <path fill="currentColor"
d="M1137 0q-208 0 -387 101.5t-288 274.5t-120 381l-219 288q-21 27 -5 59t53 32h171v341q0 96 66.5 163t162.5 67h112v341h795v-533q208 -96 333.5 -291t125.5 -429q0 -214 -107 -398t-291 -290.5t-402 -106.5zM1595 661q0 123 -106 251q-70 85 -283 277l-69 64l-64 -64
q-214 -192 -283 -277q-107 -128 -107 -251q0 -101 72 -173t174 -77h5q123 0 203 96q85 -96 208 -96q101 0 175.5 72t74.5 178z" />
</svg>
