<?xml version="1.0" standalone="no"?>
<!DOCTYPE svg PUBLIC "-//W3C//DTD SVG 1.1//EN" "http://www.w3.org/Graphics/SVG/1.1/DTD/svg11.dtd" >
<svg xmlns="http://www.w3.org/2000/svg" xmlns:xlink="http://www.w3.org/1999/xlink" version="1.1" width="2048" height="2048" viewBox="-10 0 2058 2048">
   <path fill="currentColor"
d="M1118 187q179 0 329 87.5t237.5 237.5t87.5 325q0 191 -102.5 350t-272.5 238v436h-649v-279h-92q-78 0 -132.5 -54.5t-54.5 -133.5v-278h-140q-30 0 -43 -26.5t4 -48.5l179 -235q8 -170 97.5 -311.5t235.5 -224.5t316 -83zM870 597h178q5 -44 29 -65.5t63 -21.5t65 26
t26 69.5t-19.5 76.5t-58.5 54q-70 48 -98.5 85t-28.5 111h188q0 -47 11 -71t45 -46q66 -35 105 -89.5t39 -119.5q0 -105 -74 -168t-198 -63t-198 54.5t-74 163.5v4zM1026 1211h188v-187h-188v187zM1118 0q-209 0 -390 98t-298.5 266t-139.5 372l-148 196h-4
q-40 53 -44 118.5t26 126.5q52 100 161 122v95q0 131 81 231.5t198 130.5v292h1024v-514q175 -113 273 -298.5t98 -398.5q0 -227 -111.5 -418.5t-305 -305t-420.5 -113.5z" />
</svg>
