<?xml version="1.0" standalone="no"?>
<!DOCTYPE svg PUBLIC "-//W3C//DTD SVG 1.1//EN" "http://www.w3.org/Graphics/SVG/1.1/DTD/svg11.dtd" >
<svg xmlns="http://www.w3.org/2000/svg" xmlns:xlink="http://www.w3.org/1999/xlink" version="1.1" width="2048" height="2048" viewBox="-10 0 2058 2048">
   <path fill="currentColor"
d="M1118 187q179 0 329 87.5t237.5 237.5t87.5 325q0 191 -102.5 350t-272.5 238v436h-649v-279h-92q-78 0 -132.5 -54.5t-54.5 -133.5v-278h-140q-30 0 -43 -26.5t4 -48.5l179 -235q8 -170 97.5 -311.5t235.5 -224.5t316 -83zM1118 0q-209 0 -390 98t-298.5 266t-139.5 372
l-148 196h-4q-40 53 -44 118.5t26 126.5q52 100 161 122v95q0 131 81 231.5t198 130.5v292h1024v-514q175 -113 273 -298.5t98 -398.5q0 -227 -111.5 -418.5t-305 -305t-420.5 -113.5zM1523 771l-183 48l135 135q22 26 22 61t-24 59t-59 24t-56 -22l-135 -135l-53 183
q-4 31 -34.5 48.5t-63 8.5t-50 -39.5t-9.5 -60.5l48 -183l-183 48q-35 8 -65.5 -9.5t-39 -50t9 -63t52.5 -39.5l183 -48l-135 -135q-22 -21 -22 -56t24 -61t59 -26t56 26l135 135l48 -183q9 -35 39.5 -52.5t63 -9t50 39t9.5 65.5l-48 183l183 -52q34 -9 62.5 8.5t37.5 52.5
t-8.5 63.5t-48.5 36.5z" />
</svg>
