<?xml version="1.0" standalone="no"?>
<!DOCTYPE svg PUBLIC "-//W3C//DTD SVG 1.1//EN" "http://www.w3.org/Graphics/SVG/1.1/DTD/svg11.dtd" >
<svg xmlns="http://www.w3.org/2000/svg" xmlns:xlink="http://www.w3.org/1999/xlink" version="1.1" width="2048" height="2048" viewBox="-10 0 2058 2048">
   <path fill="currentColor"
d="M1116 187q178 0 328.5 87.5t237.5 235.5t87 327q0 196 -102 352.5t-272 235.5v436h-650v-279h-91q-79 0 -133 -54.5t-54 -133.5v-278h-140q-30 0 -43.5 -26.5t4.5 -48.5l179 -231q8 -174 97.5 -315.5t233 -224.5t318.5 -83zM1116 0q-209 0 -390 96t-296.5 263.5
t-141.5 376.5l-148 196q-40 53 -44 118.5t26 121.5q61 109 157 122v100q0 131 78.5 229t200.5 137v288h1024v-514q174 -118 272 -301t98 -396q0 -227 -111 -418.5t-302.5 -305t-422.5 -113.5zM1212 1211h-188v-95h188v95zM1360 793q-57 74 -105 100v131h-279v-131
q-96 -56 -126.5 -169.5t26.5 -211.5t170 -128.5t211 26t128.5 170t-25.5 213.5z" />
</svg>
