<?xml version="1.0" standalone="no"?>
<!DOCTYPE svg PUBLIC "-//W3C//DTD SVG 1.1//EN" "http://www.w3.org/Graphics/SVG/1.1/DTD/svg11.dtd" >
<svg xmlns="http://www.w3.org/2000/svg" xmlns:xlink="http://www.w3.org/1999/xlink" version="1.1" width="2048" height="2048" viewBox="-10 0 2058 2048">
   <path fill="currentColor"
d="M1118 187q179 0 329 87.5t237.5 237.5t87.5 325q0 191 -102.5 350t-272.5 238v436h-649v-279h-92q-78 0 -132.5 -54.5t-54.5 -133.5v-278h-140q-30 0 -43 -26.5t4 -48.5l179 -235q8 -170 97.5 -311.5t235.5 -224.5t316 -83zM1118 0q-209 0 -390 98t-298.5 266t-139.5 372
l-148 196h-4q-40 53 -44 118.5t26 126.5q52 100 161 122v95q0 131 81 231.5t198 130.5v292h1024v-514q175 -113 273 -298.5t98 -398.5q0 -227 -111.5 -418.5t-305 -305t-420.5 -113.5zM1214 1303v-140q-157 0 -266 -108.5t-109 -261.5q0 -113 65 -205l101 100
q-26 48 -26 105q0 96 69.5 163.5t165.5 67.5v-139l209 209zM1523 998l-104 -100q26 -53 26 -105q0 -96 -67.5 -165.5t-163.5 -69.5v139l-209 -209l209 -209v139q152 0 261 109t109 266q0 109 -61 205z" />
</svg>
