<?xml version="1.0" standalone="no"?>
<!DOCTYPE svg PUBLIC "-//W3C//DTD SVG 1.1//EN" "http://www.w3.org/Graphics/SVG/1.1/DTD/svg11.dtd" >
<svg xmlns="http://www.w3.org/2000/svg" xmlns:xlink="http://www.w3.org/1999/xlink" version="1.1" width="2048" height="2048" viewBox="-10 0 2068 2048">
   <path fill="currentColor"
d="M1846 1639v-1024h-1644v1024h1644zM1846 409q82 0 142 60t60 146v1024q0 87 -60 147t-142 60h-1644q-82 0 -142 -60t-60 -147v-1230q0 -87 60 -147t142 -60h615l207 207h822zM1639 716v207h-206v409q0 86 -60.5 146t-144.5 60t-144 -60t-60 -146.5t60 -146.5t147 -60
q33 0 48 10v-419h360z" />
</svg>
