<?xml version="1.0" standalone="no"?>
<!DOCTYPE svg PUBLIC "-//W3C//DTD SVG 1.1//EN" "http://www.w3.org/Graphics/SVG/1.1/DTD/svg11.dtd" >
<svg xmlns="http://www.w3.org/2000/svg" xmlns:xlink="http://www.w3.org/1999/xlink" version="1.1" width="2048" height="2048" viewBox="-10 0 2058 2048">
   <path fill="currentColor"
d="M1137 0q-208 0 -387 101.5t-288 274.5t-120 381l-219 288q-21 27 -5 59t53 32h171v341q0 96 66.5 163t162.5 67h112v341h795v-533q208 -96 333.5 -291t125.5 -429q0 -214 -107 -398t-291 -290.5t-402 -106.5zM1137 1365v-170q-187 0 -320.5 -133.5t-133.5 -320.5
q0 -138 75 -250l128 122q-32 59 -32 128q0 118 82.5 200.5t200.5 82.5v-171l256 256zM1515 992l-122 -123q32 -64 32 -128q0 -117 -85.5 -202.5t-202.5 -85.5v171l-256 -256l256 -256v171q192 0 325 133t133 325q0 134 -80 251z" />
</svg>
