<?xml version="1.0" standalone="no"?>
<!DOCTYPE svg PUBLIC "-//W3C//DTD SVG 1.1//EN" "http://www.w3.org/Graphics/SVG/1.1/DTD/svg11.dtd" >
<svg xmlns="http://www.w3.org/2000/svg" xmlns:xlink="http://www.w3.org/1999/xlink" version="1.1" width="2048" height="2048" viewBox="-10 0 2068 2048">
   <path fill="currentColor"
d="M154 1531v363h363l1069 -1069l-363 -363zM2048 1640l-408 408l-503 -503l172 -168l96 96l240 -241l136 136l-141 141l100 95l140 -136zM503 911l-503 -503l408 -408l172 168l-240 240l104 104l236 -240l140 136l-140 136l99 99zM1867 539q27 -27 27 -65.5t-27 -70.5
l-227 -222q-27 -27 -68 -27t-68 27l-176 177l362 362z" />
</svg>
