<?xml version="1.0" standalone="no"?>
<!DOCTYPE svg PUBLIC "-//W3C//DTD SVG 1.1//EN" "http://www.w3.org/Graphics/SVG/1.1/DTD/svg11.dtd" >
<svg xmlns="http://www.w3.org/2000/svg" xmlns:xlink="http://www.w3.org/1999/xlink" version="1.1" width="2048" height="2048" viewBox="-10 0 2058 2048">
   <path fill="currentColor"
d="M1114 0q-210 0 -390.5 96t-296 263.5t-141.5 376.5l-148 196q-35 57 -39.5 120.5t21.5 119.5q61 109 157 122v100q0 127 80.5 227t198.5 139v288h1024v-514q174 -118 272 -301t98 -396q0 -227 -111 -418.5t-302.5 -305t-422.5 -113.5zM1393 1425v436h-650v-279h-91
q-79 0 -133.5 -54.5t-54.5 -133.5v-278h-139q-31 0 -44 -26.5t5 -48.5l178 -231q9 -169 98.5 -313t235.5 -227t320 -83t324.5 87.5t237.5 235.5t87 327q0 196 -102.5 352.5t-271.5 235.5z" />
</svg>
