<?xml version="1.0" standalone="no"?>
<!DOCTYPE svg PUBLIC "-//W3C//DTD SVG 1.1//EN" "http://www.w3.org/Graphics/SVG/1.1/DTD/svg11.dtd" >
<svg xmlns="http://www.w3.org/2000/svg" xmlns:xlink="http://www.w3.org/1999/xlink" version="1.1" width="2048" height="2048" viewBox="-10 0 2068 2048">
   <path fill="currentColor"
d="M118 1736l129 59v-879l-234 568q-27 78 2.5 151t102.5 101zM1359 289l490 1172l-714 293l-486 -1158v-14zM1368 97q-46 0 -78 9l-723 302q-50 23 -82 71t-32 101t9 80l490 1163q18 59 66 89t108 30q50 0 77 -9l724 -302q73 -32 105 -108t0 -149l-485 -1163
q-23 -54 -73.5 -84t-105.5 -30zM901 788q-46 0 -71 -27.5t-25 -71t25 -68.5t68.5 -25t71 27.5t27.5 66.5t-27.5 68.5t-68.5 29.5zM453 1754q0 83 57 140t139 57h133l-329 -810v613z" />
</svg>
