<?xml version="1.0" standalone="no"?>
<!DOCTYPE svg PUBLIC "-//W3C//DTD SVG 1.1//EN" "http://www.w3.org/Graphics/SVG/1.1/DTD/svg11.dtd" >
<svg xmlns="http://www.w3.org/2000/svg" xmlns:xlink="http://www.w3.org/1999/xlink" version="1.1" width="2048" height="2048" viewBox="-10 0 2058 2048">
   <path fill="currentColor"
d="M183 2048l-10 -29q-24 -86 -19 -187q14 -158 134 -288q-29 -96 -29 -191q0 -130 53 -247.5t144 -203.5q139 -135 331 -178q101 -355 134 -724q48 403 135 724q196 39 345 178q91 86 144 203.5t53 247.5q0 91 -29 182q134 62 326 81l-10 15q-9 38 -72 76h-4
q-120 82 -288 82h-48l-48 -5l-24 24q-91 91 -213.5 139t-259 48t-259 -48t-213.5 -139l-10 -9q-153 81 -249 225zM360 1477q34 -29 96 -86q91 -86 120 -134l10 -20q110 164 278 461h-24q-173 9 -312 62q82 72 185 113t213 41q226 0 393 -149l-96 -24q-139 -29 -220 -34h-19
l9 -19q24 -48 163 -283l96 -163l10 19q101 144 230 231q19 -68 19 -135q0 -115 -45.5 -215.5t-126.5 -177.5q-111 -110 -259 -144q52 173 105 288l5 10l-5 4q-38 82 -129 226q-77 129 -116 201l-9 19l-15 -19q-47 -67 -230 -369l-29 -53q58 -144 106 -307q-144 39 -249 144
q-77 72 -122.5 175t-45.5 214q0 62 14 124z" />
</svg>
