<?xml version="1.0" standalone="no"?>
<!DOCTYPE svg PUBLIC "-//W3C//DTD SVG 1.1//EN" "http://www.w3.org/Graphics/SVG/1.1/DTD/svg11.dtd" >
<svg xmlns="http://www.w3.org/2000/svg" xmlns:xlink="http://www.w3.org/1999/xlink" version="1.1" width="2048" height="2048" viewBox="-10 0 2068 2048">
   <path fill="currentColor"
d="M1024 0q-279 0 -514.5 137t-372.5 372.5t-137 514.5t137 514.5t372.5 372.5t514.5 137t514.5 -137t372.5 -372.5t137 -514.5q0 -202 -77 -392t-221 -334t-334 -221t-392 -77zM1639 923h-514l187 -187q-120 -121 -283.5 -121t-281 106t-132 267t84 286t255 154t291 -57.5
t172.5 -245.5h212q-24 159 -125 281.5t-245.5 185t-305.5 43t-288.5 -110.5t-197 -233t-60 -303t94 -293.5t223.5 -209t298 -76.5q120 0 233 48t200 134l182 -182v514z" />
</svg>
