<?xml version="1.0" standalone="no"?>
<!DOCTYPE svg PUBLIC "-//W3C//DTD SVG 1.1//EN" "http://www.w3.org/Graphics/SVG/1.1/DTD/svg11.dtd" >
<svg xmlns="http://www.w3.org/2000/svg" xmlns:xlink="http://www.w3.org/1999/xlink" version="1.1" width="2048" height="2048" viewBox="-10 0 2069 2048">
   <path fill="currentColor"
d="M783 140q-161 0 -276.5 115t-115.5 278.5t115.5 278.5t279 115t278.5 -115t115 -278.5t-115 -278.5t-281 -115zM783 338q83 0 140.5 57.5t57.5 138t-57.5 138t-138 57.5t-138 -57.5t-57.5 -138t57.5 -138t135.5 -57.5zM1474 927q-23 0 -23 23l-28 125q-14 9 -46 32
l-32 18l-124 -50q-24 0 -33 9l-92 175q-9 4 -6.5 13.5t11.5 18.5l106 78v97l-106 83q-5 5 -7 14t2 18l92 171q9 9 33 9l124 -46l32 18q32 19 46 28l28 124q0 23 23 23h193q9 0 16 -4.5t7 -18.5l19 -124l87 -46l120 46q28 0 28 -9l101 -171q5 -9 2.5 -18t-7.5 -14l-106 -83
v-97l106 -78q5 -9 7.5 -18.5t-2.5 -13.5l-101 -175q0 -9 -28 -9l-120 50l-87 -50l-19 -125q0 -9 -7 -16t-16 -7h-193zM783 1024q-143 0 -318 46q-198 51 -322 129q-143 97 -143 221v295h949q-42 -92 -55 -189h-710v-106q0 -32 92 -82.5t221 -87.5q152 -37 286 -37
q60 0 129 9q32 -97 83 -175q-125 -23 -212 -23zM1575 1273q60 0 101.5 43.5t41.5 103.5t-41.5 103.5t-103.5 43.5t-106 -43.5t-44 -105.5t44 -103.5t108 -41.5z" />
</svg>
