<?xml version="1.0" standalone="no"?>
<!DOCTYPE svg PUBLIC "-//W3C//DTD SVG 1.1//EN" "http://www.w3.org/Graphics/SVG/1.1/DTD/svg11.dtd" >
<svg xmlns="http://www.w3.org/2000/svg" xmlns:xlink="http://www.w3.org/1999/xlink" version="1.1" width="2048" height="2048" viewBox="-10 0 2068 2048">
   <path fill="currentColor"
d="M923 716q0 130 -91.5 219t-218.5 89t-216 -89t-89 -218.5t89 -218.5t216 -89t218.5 89t91.5 218zM1231 1846h-1231v-207q0 -110 81.5 -204t223.5 -149t308 -55t307.5 55t226 149t84.5 204v207zM510 716q0 44 31 72.5t72 28.5t72 -28.5t31 -72t-31 -72.5t-72 -29t-72 29
t-31 72zM202 1639h822q0 -86 -120 -146t-291 -60t-291 60t-120 146zM2048 1024v207h-923v-207h923zM2048 615v202h-923v-202h923zM2048 202v207h-923v-207h923z" />
</svg>
