<?xml version="1.0" standalone="no"?>
<!DOCTYPE svg PUBLIC "-//W3C//DTD SVG 1.1//EN" "http://www.w3.org/Graphics/SVG/1.1/DTD/svg11.dtd" >
<svg xmlns="http://www.w3.org/2000/svg" xmlns:xlink="http://www.w3.org/1999/xlink" version="1.1" width="2048" height="2048" viewBox="-10 0 2069 2048">
   <path fill="currentColor"
d="M783 140q-161 0 -276.5 115t-115.5 278.5t115.5 278.5t278.5 115t278.5 -115t115.5 -278.5t-115.5 -278.5t-280.5 -115zM1473 927q-23 0 -27 19l-19 133q-46 19 -83 46l-124 -50q-23 0 -27 13l-97 171q-14 18 4 32l102 78v49v48l-102 83q-18 14 -4 32l97 170q4 10 27 10
l124 -46q47 27 83 46l19 129q4 18 27 18h194q23 0 23 -18l23 -129q37 -19 78 -46l124 46q23 0 33 -10l96 -170q10 -18 -4 -32l-106 -83l4 -46q0 -28 -4 -51l106 -78q14 -14 4 -32l-101 -171q-5 -13 -28 -13l-124 50q-46 -37 -83 -46l-18 -133q0 -19 -23 -19h-194zM783 1125
q-212 0 -391.5 53t-285.5 143t-106 196v198h948q-64 -143 -64 -295t60 -285q-78 -10 -161 -10zM1570 1273q60 0 103.5 41.5t43.5 103.5t-43.5 105.5t-103.5 43.5t-103.5 -43.5t-43.5 -105.5t43.5 -103.5t103.5 -41.5z" />
</svg>
