<?xml version="1.0" standalone="no"?>
<!DOCTYPE svg PUBLIC "-//W3C//DTD SVG 1.1//EN" "http://www.w3.org/Graphics/SVG/1.1/DTD/svg11.dtd" >
<svg xmlns="http://www.w3.org/2000/svg" xmlns:xlink="http://www.w3.org/1999/xlink" version="1.1" width="2048" height="2048" viewBox="-10 0 2068 2048">
   <path fill="currentColor"
d="M1279 62q139 0 279 15l67 10l101 19q53 9 110.5 26t105.5 38.5t77 50.5t29 67v1472q0 38 -29 67t-77 50.5t-105.5 38.5t-110.5 26l-101 19l-72 10q-135 15 -272 15t-276 -15l-68 -10l-100 -19q-58 -9 -116 -26t-103.5 -38.5t-76.5 -50.5t-31 -67v-222h-428q-34 0 -58 -26
t-24 -60v-856q0 -34 24 -60t58 -26h428v-222q0 -38 31 -67t76.5 -50.5t103.5 -38.5t116 -26l100 -19l68 -10q139 -15 274 -15zM1279 192q-63 0 -144.5 2.5t-163.5 14.5t-158.5 31.5t-139.5 47.5q63 29 139.5 46t158.5 29t161 17t146.5 5t147 -5t161 -17t161 -29t141.5 -46
q-62 -28 -139 -47.5t-161 -31.5t-163.5 -14.5t-146.5 -2.5zM404 1207h216l48 154h173l-245 -674h-168l-245 674h168zM1923 1740v-307q-67 33 -149 52.5t-168.5 31.5t-170.5 16.5t-156 4.5t-144.5 -4.5t-144.5 -14.5q-24 19 -53 19h-298v202q29 24 79.5 41t108.5 31.5
t122.5 24t127 14.5t115.5 5h87h91q53 0 113 -5t125 -14.5t125 -24t110.5 -31.5t79.5 -41zM1923 1293v-370q-67 29 -149 48t-168.5 31t-170.5 17t-151.5 5t-129.5 -5l-130 -9v384q62 10 127 12.5t128 2.5h91l116 -10q57 -5 122 -14.5t125 -21.5t108 -29t82 -41zM1923 779
v-370q-67 33 -149 52.5t-168.5 29t-170.5 14.5t-154 5t-154 -5t-170.5 -14.5t-168 -29t-149.5 -52.5v101h298q34 0 60.5 26t26.5 60v289q62 4 127 6.5t128 2.5h91l116 -9q57 -5 122 -12.5t125 -21.5t108 -31t82 -41zM442 1077l68 -207l67 207h-135z" />
</svg>
