<?xml version="1.0" standalone="no"?>
<!DOCTYPE svg PUBLIC "-//W3C//DTD SVG 1.1//EN" "http://www.w3.org/Graphics/SVG/1.1/DTD/svg11.dtd" >
<svg xmlns="http://www.w3.org/2000/svg" xmlns:xlink="http://www.w3.org/1999/xlink" version="1.1" width="2048" height="2048" viewBox="-10 0 2068 2048">
   <path fill="currentColor"
d="M1724 483h324l-430 -430l-430 430h324v1512h212v-1512zM217 1130q-91 0 -154 63.5t-63 154.5v429q0 91 63 154.5t154 63.5h430q91 0 154.5 -63.5t63.5 -154.5v-429q0 -91 -63.5 -154.5t-154.5 -63.5h-430zM667 1292l117 116l-430 425l-273 -273l116 -116l157 162zM217 53
q-91 0 -154 63.5t-63 154.5v429q0 91 63 154.5t154 63.5h430q91 0 154.5 -63.5t63.5 -154.5v-429q0 -91 -63.5 -154.5t-154.5 -63.5h-430zM217 271h430v429h-430v-429z" />
</svg>
