<?xml version="1.0" standalone="no"?>
<!DOCTYPE svg PUBLIC "-//W3C//DTD SVG 1.1//EN" "http://www.w3.org/Graphics/SVG/1.1/DTD/svg11.dtd" >
<svg xmlns="http://www.w3.org/2000/svg" xmlns:xlink="http://www.w3.org/1999/xlink" version="1.1" width="2048" height="2048" viewBox="-10 0 2058 2048">
   <path fill="currentColor"
d="M1648 453h341l-453 -453l-453 453h341v1595h224v-1595zM512 2048h-453v-229h453v-112h-229q-91 0 -157.5 -67t-66.5 -163v-112q0 -96 66.5 -162.5t157.5 -66.5h229q96 0 162.5 66.5t66.5 162.5v454q0 96 -66.5 162.5t-162.5 66.5zM512 1365h-229v112h229v-112zM283 0h229
q96 0 162.5 66.5t66.5 162.5v454q0 96 -66.5 162.5t-162.5 66.5h-229q-91 0 -157.5 -66.5t-66.5 -162.5v-454q0 -96 66.5 -162.5t157.5 -66.5zM283 683h229v-454h-229v454z" />
</svg>
