<?xml version="1.0" standalone="no"?>
<!DOCTYPE svg PUBLIC "-//W3C//DTD SVG 1.1//EN" "http://www.w3.org/Graphics/SVG/1.1/DTD/svg11.dtd" >
<svg xmlns="http://www.w3.org/2000/svg" xmlns:xlink="http://www.w3.org/1999/xlink" version="1.1" width="2048" height="2048" viewBox="-10 0 2068 2048">
   <path fill="currentColor"
d="M1966 125q34 0 58 26.5t24 60.5v1624q0 34 -24 60.5t-58 26.5h-1370q-34 0 -60 -26.5t-26 -60.5v-298h-428q-34 0 -58 -26t-24 -60v-856q0 -34 24 -60t58 -26h428v-298q0 -34 26 -60.5t60 -26.5h1370zM510 1135l125 226h182l-202 -332l197 -322h-177l-116 216
q-29 -53 -57 -111l-58 -105h-183l192 327l-211 327h183zM1216 1793v-255h-577v255h577zM1216 1409v-323h-192v323h192zM1216 962v-323h-192v323h192zM1216 510v-255h-577v255h577zM1923 1793v-255h-577v255h577zM1923 1409v-323h-577v323h577zM1923 962v-323h-577v323h577z
M1923 510v-255h-577v255h577z" />
</svg>
