<?xml version="1.0" standalone="no"?>
<!DOCTYPE svg PUBLIC "-//W3C//DTD SVG 1.1//EN" "http://www.w3.org/Graphics/SVG/1.1/DTD/svg11.dtd" >
<svg xmlns="http://www.w3.org/2000/svg" xmlns:xlink="http://www.w3.org/1999/xlink" version="1.1" width="2048" height="2048" viewBox="-10 0 2068 2048">
   <path fill="currentColor"
d="M1385 1690v207h-183q-29 48 -74.5 74.5t-103.5 26.5t-103.5 -26.5t-74.5 -74.5h-183v-207h183q29 -48 77 -72v-130h-106q-38 0 -69.5 -31.5t-31.5 -74.5v-308h-307v414q0 38 -31.5 69.5t-69.5 31.5h-207q-43 0 -72 -31.5t-29 -69.5v-923q0 -43 29 -74.5t72 -31.5h207
q38 0 69.5 31.5t31.5 74.5v308h307v-308q0 -43 31.5 -74.5t69.5 -31.5h106v-101h-106q-38 0 -69.5 -31t-31.5 -70v-106q0 -38 31.5 -69.5t69.5 -31.5h414q38 0 69.5 31.5t31.5 69.5v106q0 39 -31.5 70t-69.5 31h-106v101h106q38 0 69.5 31.5t31.5 74.5v308h307v-308
q0 -43 31.5 -74.5t69.5 -31.5h207q43 0 72 31.5t29 74.5v923q0 38 -29 69.5t-72 31.5h-207q-38 0 -69.5 -31.5t-31.5 -69.5v-414h-307v308q0 43 -31.5 74.5t-69.5 31.5h-106v130q48 24 77 72h183zM101 1382v106h207v-106h-207zM101 1180v101h207v-101h-207zM101 974v100h207
v-100h-207zM101 767v106h207v-106h-207zM101 565v101h207v-101h-207zM1740 1382v106h207v-106h-207zM1740 1180v101h207v-101h-207zM1740 974v100h207v-100h-207zM1740 767v106h207v-106h-207zM1740 565v101h207v-101h-207z" />
</svg>
