<?xml version="1.0" standalone="no"?>
<!DOCTYPE svg PUBLIC "-//W3C//DTD SVG 1.1//EN" "http://www.w3.org/Graphics/SVG/1.1/DTD/svg11.dtd" >
<svg xmlns="http://www.w3.org/2000/svg" xmlns:xlink="http://www.w3.org/1999/xlink" version="1.1" width="2048" height="2048" viewBox="-10 0 2068 2048">
   <path fill="currentColor"
d="M1154 125q120 0 235.5 33.5t216.5 91.5t182.5 139.5t139.5 180t89 214t31 240.5t-31 240.5t-89 214t-139.5 180t-182.5 139.5t-216.5 91.5t-235.5 33.5q-111 0 -216.5 -26.5t-199.5 -77t-175.5 -122.5t-149.5 -159h-331q-34 0 -58 -26t-24 -60v-856q0 -34 24 -60t58 -26
h331q68 -87 149.5 -159t175.5 -122.5t199.5 -77t216.5 -26.5zM1216 260v702h702q-14 -145 -72 -265t-151.5 -214t-216 -154t-262.5 -69zM769 904q0 -58 -21.5 -99t-55 -67t-79.5 -38.5t-103 -12.5h-270v674h159v-236h106q48 0 96 -14.5t84 -41t60 -69.5t24 -96zM1154 1793
q101 0 192 -26.5t175.5 -69.5t151.5 -108t120 -142t84.5 -168.5t40.5 -192.5h-827v-826q-149 9 -281 76.5t-228 173.5h355q34 0 60.5 26t26.5 60v856q0 34 -26.5 60t-60.5 26h-355q53 58 120 106t139 82t151.5 50.5t161.5 16.5zM495 817q48 0 77 19.5t29 72.5
q0 24 -9.5 38.5t-26.5 24t-36 12t-39 2.5h-91v-169h96z" />
</svg>
