<?xml version="1.0" standalone="no"?>
<!DOCTYPE svg PUBLIC "-//W3C//DTD SVG 1.1//EN" "http://www.w3.org/Graphics/SVG/1.1/DTD/svg11.dtd" >
<svg xmlns="http://www.w3.org/2000/svg" xmlns:xlink="http://www.w3.org/1999/xlink" version="1.1" width="2048" height="2048" viewBox="-10 0 2068 2048">
   <path fill="currentColor"
d="M524 170q-104 104 -104 250t104 250l859 854q42 43 42 106.5t-45 106t-106 42.5t-108 -42l-425 -430l104 -104l-354 -358l-38 37l-142 -141q-28 -33 -70.5 -33t-70.5 33l-142 141q-28 29 -28 71.5t28 70.5l142 142l-38 37l359 354l108 -108l425 429q104 104 250 104
t250 -104t104 -250t-104 -245l-859 -859q-42 -43 -42 -106.5t45 -106t106 -42.5t108 42l425 430l-104 104l354 358l38 -37l142 141q28 33 70.5 33t70.5 -33l142 -141q28 -29 28 -71.5t-28 -70.5l-142 -142l38 -37l-359 -354l-108 108l-425 -429q-104 -104 -250 -104
t-250 104zM99 953l142 -141l141 141l-141 142zM1666 1095l141 -142l142 142l-142 141z" />
</svg>
