<?xml version="1.0" standalone="no"?>
<!DOCTYPE svg PUBLIC "-//W3C//DTD SVG 1.1//EN" "http://www.w3.org/Graphics/SVG/1.1/DTD/svg11.dtd" >
<svg xmlns="http://www.w3.org/2000/svg" xmlns:xlink="http://www.w3.org/1999/xlink" version="1.1" width="2048" height="2048" viewBox="-10 0 2068 2048">
   <path fill="currentColor"
d="M2048 1154q0 106 -41 197t-110.5 161t-161 110.5t-197.5 40.5q-67 0 -129 -14q-10 87 -48.5 159t-98.5 127t-139.5 84t-168.5 29t-170.5 -33.5t-141.5 -96t-96 -144.5t-36 -173v-34l4 -29h-432q-34 0 -58 -26t-24 -60v-856q0 -34 24 -60t58 -26h303q14 -106 64.5 -200
t127.5 -163.5t175.5 -108t214 -38.5t218.5 45.5t182.5 122.5t125 183t45.5 226v29q0 19 -4 33q105 0 199 41t163.5 108.5t110.5 161t41 204.5zM962 125q-87 0 -161.5 29t-134.5 81.5t-98.5 122.5t-53.5 152h423q34 0 60.5 26t26.5 60v423l19 -5q15 -62 48.5 -119.5
t81.5 -103.5t105.5 -82t120.5 -50q10 -44 10 -82q0 -96 -36.5 -178t-96.5 -142t-141.5 -96t-172.5 -36zM519 1356q48 0 94 -10t79.5 -31.5t55 -57.5t21.5 -89t-21.5 -89t-55 -60t-72.5 -38l-77 -34q-33 -10 -55 -26.5t-22 -36t12 -29t29 -16.5t31 -7l34 -5q48 0 89 14.5
t79 38.5v-149l-81 -24l-44 -5h-48q-43 0 -88.5 9.5t-84 33.5t-62.5 58t-24 86.5t24 86.5t57.5 58t72.5 43l72 29q33 14 57 28.5t24 36t-12 33.5t-26.5 19.5t-33.5 7.5h-33q-58 0 -106 -19.5t-92 -52.5v158q101 39 207 39zM962 1923q62 0 122 -26.5t103.5 -69.5t67.5 -101
t24 -120.5t-19.5 -115.5t-53 -93.5t-79 -69.5t-103.5 -39v164q0 34 -26.5 60t-60.5 26h-293q-5 29 -5 63q0 67 24 125t70 101t103.5 69.5t125.5 26.5zM1538 1538q77 0 147 -31t123 -84t84 -122.5t31 -146.5t-31 -149t-84 -125t-123 -82t-149 -29t-149 29t-123 82t-81.5 125
t-28.5 149v43q48 24 86.5 55.5t72 72t55 88.5t31.5 97q67 28 139 28z" />
</svg>
