<?xml version="1.0" standalone="no"?>
<!DOCTYPE svg PUBLIC "-//W3C//DTD SVG 1.1//EN" "http://www.w3.org/Graphics/SVG/1.1/DTD/svg11.dtd" >
<svg xmlns="http://www.w3.org/2000/svg" xmlns:xlink="http://www.w3.org/1999/xlink" version="1.1" width="2048" height="2048" viewBox="-10 0 2068 2048">
   <path fill="currentColor"
d="M1966 125q34 0 58 26.5t24 60.5v1624q0 34 -24 60.5t-58 26.5h-1370q-34 0 -60 -26.5t-26 -60.5v-298h-428q-34 0 -58 -26t-24 -60v-856q0 -34 24 -60t58 -26h428v-298q0 -34 26 -60.5t60 -26.5h1370zM514 957l125 404h140l134 -674h-144l-77 399l-115 -384h-115
l-125 384l-77 -399h-149l134 674h140zM1923 1793v-255h-1284v255h1284zM1923 1409v-323h-899v323h899zM1923 962v-323h-899v323h899zM1923 510v-255h-1284v255h1284z" />
</svg>
