<?xml version="1.0" standalone="no"?>
<!DOCTYPE svg PUBLIC "-//W3C//DTD SVG 1.1//EN" "http://www.w3.org/Graphics/SVG/1.1/DTD/svg11.dtd" >
<svg xmlns="http://www.w3.org/2000/svg" xmlns:xlink="http://www.w3.org/1999/xlink" version="1.1" width="2048" height="2048" viewBox="-10 0 2058 2048">
   <path fill="currentColor"
d="M1542 2048h-1152q-133 0 -224.5 -93.5t-91.5 -223.5v-580q0 -134 93 -227l536 -527l98 103q27 27 27 62q0 27 -14 49l-169 246h1013q49 0 84.5 35.5t35.5 84.5t-35.5 85t-84.5 36h-554v75h754q49 0 82.5 36t33.5 85t-33.5 84.5t-82.5 35.5h-754v81h674q49 0 85 33.5
t36 82.5t-36 84.5t-85 35.5h-674v81h438q49 0 82.5 33t33.5 82.5t-33.5 85t-82.5 35.5zM1167 361l-36 45q-45 58 -71 103q-36 67 -36 111q0 89 71.5 125t143 0t71.5 -125q0 -44 -36 -111q-27 -45 -72 -103zM1644 0q-31 40 -62 76q-72 89 -116 169q-63 112 -63 183
q0 112 76 179q67 62 163 62t163 -62q76 -67 76 -174t-121 -281q-58 -85 -116 -152z" />
</svg>
