<?xml version="1.0" standalone="no"?>
<!DOCTYPE svg PUBLIC "-//W3C//DTD SVG 1.1//EN" "http://www.w3.org/Graphics/SVG/1.1/DTD/svg11.dtd" >
<svg xmlns="http://www.w3.org/2000/svg" xmlns:xlink="http://www.w3.org/1999/xlink" version="1.1" width="2048" height="2048" viewBox="-10 0 2058 2048">
   <path fill="currentColor"
d="M1639 0q87 0 147 60t60 142v1644q0 82 -60 142t-147 60h-1230q-87 0 -147 -60t-60 -142v-1644q0 -82 60 -142t147 -60h1230zM1639 202h-514v514l-255 -235l-255 235v-514h-206v1644h1230v-1644zM1125 923q62 0 115 33.5t77 91.5t12 118t-57.5 105.5t-105.5 57.5t-118 -12
t-91.5 -77t-33.5 -115q0 -82 60 -142t142 -60zM1538 1740h-822v-101q0 -91 154 -153q130 -53 257.5 -53t257.5 53q153 62 153 153v101z" />
</svg>
