<?xml version="1.0" standalone="no"?>
<!DOCTYPE svg PUBLIC "-//W3C//DTD SVG 1.1//EN" "http://www.w3.org/Graphics/SVG/1.1/DTD/svg11.dtd" >
<svg xmlns="http://www.w3.org/2000/svg" xmlns:xlink="http://www.w3.org/1999/xlink" version="1.1" width="2048" height="2048" viewBox="-10 0 2058 2048">
   <path fill="currentColor"
d="M1024 0q-29 14 -53 24q-67 43 -130 101q-81 77 -149 183q-81 129 -130 293q-52 192 -52 423q0 413 173 803q24 58 74.5 89t112.5 31h308q62 0 112.5 -31t74.5 -89q173 -390 173 -803q0 -231 -52 -423q-49 -164 -130 -293q-68 -106 -149 -183q-63 -58 -130 -101z
M1178 1740h-308q-154 -341 -154 -716q0 -312 111 -538q77 -154 197 -250q120 96 197 250q111 226 111 538q0 375 -154 716zM1846 2048l-399 -159q106 -230 159 -480zM601 1889l-399 159l240 -639q53 250 159 480zM1024 1024q-87 0 -147 -60t-60 -144t60 -144.5t147 -60.5
t147 60.5t60 144.5t-60 144t-147 60z" />
</svg>
