<?xml version="1.0" standalone="no"?>
<!DOCTYPE svg PUBLIC "-//W3C//DTD SVG 1.1//EN" "http://www.w3.org/Graphics/SVG/1.1/DTD/svg11.dtd" >
<svg xmlns="http://www.w3.org/2000/svg" xmlns:xlink="http://www.w3.org/1999/xlink" version="1.1" width="2048" height="2048" viewBox="-10 0 2068 2048">
   <path fill="currentColor"
d="M716 510h207l101 259l101 -259h207l-207 514l207 514h-207l-101 -259l-101 259h-207l207 -514zM1433 510h206v822h409v206h-615v-1028zM615 1332q0 86 -60 146t-146 60h-409v-206h409v-207h-207v-202h207v-207h-409v-206h409q86 0 146 60t60 146v154q0 63 -45.5 108.5
t-107.5 45.5q62 0 107.5 45.5t45.5 108.5v154z" />
</svg>
