<?xml version="1.0" standalone="no"?>
<!DOCTYPE svg PUBLIC "-//W3C//DTD SVG 1.1//EN" "http://www.w3.org/Graphics/SVG/1.1/DTD/svg11.dtd" >
<svg xmlns="http://www.w3.org/2000/svg" xmlns:xlink="http://www.w3.org/1999/xlink" version="1.1" width="2048" height="2048" viewBox="-10 0 2068 2048">
   <path fill="currentColor"
d="M1084 1561l606 -605q25 -26 25 -60.5t-25 -59.5l-137 -136q-25 -25 -59 -25t-60 25l-409 410l-410 -410q-25 -25 -60 -25t-60 25l-137 136q-25 25 -25 59.5t25 60.5l606 605q25 26 60 26t60 -26zM2048 1024.5q0 139.5 -36.5 272t-102.5 245t-160.5 207t-207 160.5
t-245 102.5t-272 36.5t-272 -36.5t-245 -102.5t-207 -160.5t-160.5 -207t-103 -245t-37 -272t37 -272t103 -245t160.5 -207t207 -160.5t245 -103t272 -37t272 37t245 103t207 160.5t160.5 207t102.5 245t36.5 272z" />
</svg>
