<?xml version="1.0" standalone="no"?>
<!DOCTYPE svg PUBLIC "-//W3C//DTD SVG 1.1//EN" "http://www.w3.org/Graphics/SVG/1.1/DTD/svg11.dtd" >
<svg xmlns="http://www.w3.org/2000/svg" xmlns:xlink="http://www.w3.org/1999/xlink" version="1.1" width="2048" height="2048" viewBox="-10 0 2058 2048">
   <path fill="currentColor"
d="M246 279l-117 118l257 257q-140 209 -140 462q0 226 113.5 420t305 305t418.5 111q253 0 466 -139l231 235l118 -118l-719 -719zM1362 0h-558v187h558v-187zM1919 1116q0 252 -139 461l-606 -605v-414h-183v231l-370 -371q209 -139 462 -139q144 0 279 48t244 135
l130 -131l131 131l-131 135q88 109 135.5 242t47.5 277z" />
</svg>
