<?xml version="1.0" standalone="no"?>
<!DOCTYPE svg PUBLIC "-//W3C//DTD SVG 1.1//EN" "http://www.w3.org/Graphics/SVG/1.1/DTD/svg11.dtd" >
<svg xmlns="http://www.w3.org/2000/svg" xmlns:xlink="http://www.w3.org/1999/xlink" version="1.1" width="2048" height="2048" viewBox="-10 0 2058 2048">
   <path fill="currentColor"
d="M1023 0q-69 0 -113.5 45t-44.5 113q0 38 17 72.5t51 59.5v124q-124 21 -230 81l-98 -145q25 -81 -22 -147t-128 -66q-51 0 -94 25q-51 39 -63.5 105t25.5 117q47 68 132 68l107 154q-56 55 -98 132q-26 -13 -56 -13q-64 0 -111 47t-47 113t43 113q39 35 94 47
q0 69 17 141l-119 34q-47 -38 -103 -38q-30 0 -42 4q-64 17 -96 74.5t-15 121.5q12 56 55 88t98 32q26 0 39 -9q81 -21 111 -98l136 -38q60 106 158 188l-98 183q-86 13 -124 85q-30 56 -10.5 120t74.5 94q38 21 79 21t79 -23.5t60 -61.5q38 -73 0 -145l98 -180
q115 43 239 43h17q-17 34 -17 81q4 64 51 106.5t107 42.5h12q69 -8 111.5 -57t36 -117.5t-57.5 -110.5q60 -26 119 -73l214 213q-13 86 42 145q52 43 116 43t111 -47t47 -111t-47 -111t-111 -47h-30l-214 -213q73 -90 103 -196h102q22 30 56 49t72 19q69 0 115.5 -47
t46.5 -113t-46.5 -113t-115.5 -47q-38 0 -72 19t-56 49h-77q0 -213 -128 -379l124 -124q9 4 30 4q64 0 111 -47t47 -113t-47 -113t-113 -47t-113 47q-56 60 -43 141l-124 124q-128 -99 -290 -124v-124q34 -25 51.5 -59.5t17.5 -72.5q0 -68 -45 -113t-113 -45zM1023 1502
q-124 0 -228.5 -62t-166.5 -166.5t-62 -228t62 -228t166.5 -166.5t228 -62t228.5 62t166.5 166.5t61.5 228t-61.5 228t-166.5 166.5t-228 62zM886 772q-55 0 -95.5 40.5t-40.5 96t40.5 96t96 40.5t96 -40.5t40.5 -96t-40.5 -96t-96.5 -40.5zM1206 1135q-38 0 -66 27.5
t-28 64t28 64t64 27.5t64 -27.5t28 -64t-28 -64t-62 -27.5z" />
</svg>
