<?xml version="1.0" standalone="no"?>
<!DOCTYPE svg PUBLIC "-//W3C//DTD SVG 1.1//EN" "http://www.w3.org/Graphics/SVG/1.1/DTD/svg11.dtd" >
<svg xmlns="http://www.w3.org/2000/svg" xmlns:xlink="http://www.w3.org/1999/xlink" version="1.1" width="2048" height="2048" viewBox="-10 0 2058 2048">
   <path fill="currentColor"
d="M1735 1228q21 30 55.5 49.5t72.5 19.5q68 0 115 -47t47 -113t-47 -113t-115 -47q-38 0 -72.5 19t-55.5 49h-77q0 -213 -128 -380l124 -123q81 12 141 -43q47 -47 47 -113t-47 -113t-113 -47t-113 47q-56 60 -43 141l-124 123q-128 -98 -290 -123v-124q34 -26 51.5 -60
t17.5 -72q0 -68 -45 -113t-113.5 -45t-113 45t-44.5 113q0 38 17 72t51 60v124q-124 21 -230 81l-98 -145q25 -81 -22 -145q-38 -56 -102 -66.5t-117.5 25.5t-66 102.5t25.5 117.5q47 68 132 68l107 154q-55 55 -98 132q-43 -17 -89.5 -8.5t-81.5 42.5q-42 47 -42 113
t42 113q39 38 94 47q0 68 17 141l-119 34q-64 -56 -145 -34q-64 17 -96 74.5t-15 121.5t74.5 96t117.5 15q81 -22 111 -98l136 -39q60 107 158 188l-98 183q-85 13 -124 86q-30 55 -10.5 119t77 96t119.5 13t96 -79q38 -73 0 -145l98 -179q115 42 239 42h17q-17 35 -17 81
q4 69 55 111.5t115 38t109 -55.5t38.5 -119t-57.5 -111q60 -26 119 -73l214 214q-13 85 42 145q51 42 115 42t113 -44.5t47 -110.5t-45 -118q-59 -55 -145 -42l-213 -213q73 -90 103 -197h102zM886 1045q-55 0 -95.5 -40.5t-40.5 -96t40.5 -96t96 -40.5t96 40.5t40.5 96
t-40.5 96t-96.5 40.5zM1206 1318q-38 0 -66 -28t-28 -64t28 -64t64 -28t64 28t28 64t-28 64t-62 28z" />
</svg>
