<?xml version="1.0" standalone="no"?>
<!DOCTYPE svg PUBLIC "-//W3C//DTD SVG 1.1//EN" "http://www.w3.org/Graphics/SVG/1.1/DTD/svg11.dtd" >
<svg xmlns="http://www.w3.org/2000/svg" xmlns:xlink="http://www.w3.org/1999/xlink" version="1.1" width="2048" height="2048" viewBox="-10 0 2068 2048">
   <path fill="currentColor"
d="M1266 1803v-192h782v192h-782zM192 245h1367q82 0 139 57t57 139v690q-114 -18 -221.5 5t-198.5 82h-361v393h105q-14 96 0 192h-887q-78 0 -135 -57t-57 -135v-1170q0 -82 57 -139t135 -57zM192 633v393h585v-393h-585zM974 633v393h585v-393h-585zM192 1218v393h585
v-393h-585z" />
</svg>
