<?xml version="1.0" standalone="no"?>
<!DOCTYPE svg PUBLIC "-//W3C//DTD SVG 1.1//EN" "http://www.w3.org/Graphics/SVG/1.1/DTD/svg11.dtd" >
<svg xmlns="http://www.w3.org/2000/svg" xmlns:xlink="http://www.w3.org/1999/xlink" version="1.1" width="2048" height="2048" viewBox="-10 0 2068 2048">
   <path fill="currentColor"
d="M192 82h1367q82 0 139 57.5t57 139.5v690q-114 -18 -221.5 5t-198.5 82h-361v393h105q-14 96 0 192h-887q-78 0 -135 -57t-57 -135v-1170q0 -82 57 -139.5t135 -57.5zM192 471v393h585v-393h-585zM974 471v393h585v-393h-585zM192 1056v393h585v-393h-585zM1655 1966
l-55 -51l-46 -41q-155 -151 -210 -215q-78 -100 -78 -189t64 -153t151 -64q50 0 98 20.5t76 56.5q32 -36 77.5 -56.5t100.5 -20.5q87 0 151 59t64 153t-82 194q-51 64 -206 215l-46 41z" />
</svg>
