<?xml version="1.0" standalone="no"?>
<!DOCTYPE svg PUBLIC "-//W3C//DTD SVG 1.1//EN" "http://www.w3.org/Graphics/SVG/1.1/DTD/svg11.dtd" >
<svg xmlns="http://www.w3.org/2000/svg" xmlns:xlink="http://www.w3.org/1999/xlink" version="1.1" width="2048" height="2048" viewBox="-10 0 2068 2048">
   <path fill="currentColor"
d="M192 117h1367q82 0 139 57t57 139v690q-114 -18 -221.5 5t-198.5 82h-361v393h105q-14 96 0 192h-887q-78 0 -135 -57t-57 -135v-1170q0 -82 57 -139t135 -57zM192 505v393h585v-393h-585zM974 505v393h585v-393h-585zM192 1090v393h585v-393h-585zM1413 1931l68 -274
l-215 -183l284 -23l105 -260l110 251l283 19l-215 187l69 274l-247 -137z" />
</svg>
