<?xml version="1.0" standalone="no"?>
<!DOCTYPE svg PUBLIC "-//W3C//DTD SVG 1.1//EN" "http://www.w3.org/Graphics/SVG/1.1/DTD/svg11.dtd" >
<svg xmlns="http://www.w3.org/2000/svg" xmlns:xlink="http://www.w3.org/1999/xlink" version="1.1" width="2048" height="2048" viewBox="-10 0 2068 2048">
   <path fill="currentColor"
d="M362 149q-53 0 -91.5 29t-57.5 73l-213 618v827q0 43 29 72t72 29h107q43 0 72 -29t29 -72v-107h546q-29 -101 -29 -203q0 -193 94.5 -357t253.5 -261h-966l154 -464h1131l126 362q92 10 184 44l-160 -459q-19 -44 -58 -73t-92 -29h-1131zM1445 869q-24 0 -29 20l-19 140
q-49 19 -87 48l-131 -53q-24 0 -29 14l-101 179q-15 20 4 34l107 82v51v51l-107 87q-19 14 -4 34l101 178q5 10 29 10l131 -48q48 29 87 48l19 135q5 20 29 20h203q24 0 24 -20l24 -135q39 -19 82 -48l131 48q24 0 34 -10l101 -178q10 -20 -5 -34l-111 -87l5 -49
q0 -29 -5 -53l111 -82q15 -14 5 -34l-106 -179q-5 -14 -29 -14l-131 53q-48 -39 -87 -48l-19 -140q0 -20 -24 -20h-203zM362 971q63 0 109 46t46 111t-46 108.5t-111 43.5t-108.5 -43.5t-43.5 -108.5t43.5 -111t110.5 -46zM1546 1232q63 0 109 43.5t46 108.5t-46 111
t-108.5 46t-108.5 -46t-46 -111t46 -108.5t108 -43.5z" />
</svg>
