<?xml version="1.0" standalone="no"?>
<!DOCTYPE svg PUBLIC "-//W3C//DTD SVG 1.1//EN" "http://www.w3.org/Graphics/SVG/1.1/DTD/svg11.dtd" >
<svg xmlns="http://www.w3.org/2000/svg" xmlns:xlink="http://www.w3.org/1999/xlink" version="1.1" width="2048" height="2048" viewBox="-10 0 2068 2048">
   <path fill="currentColor"
d="M2048 1925l-1925 -1925l-123 123l279 279l-160 279q-9 18 -7 34t16 30l206 160q-5 55 -5 96t5 96l-206 160q-14 14 -16 30t7 34l196 338q5 14 23.5 21t36.5 -2l242 -96q82 64 165 96l36 256q0 18 14 29.5t32 11.5h393q18 0 32 -11.5t14 -29.5l36 -256q69 -28 138 -78
l448 448zM1061 1344q-142 0 -242.5 -100.5t-100.5 -242.5q0 -59 32 -128l439 439q-64 32 -128 32zM1033 663l-306 -311l55 -27l36 -256q0 -19 14 -30.5t32 -11.5h393q18 0 32 11.5t14 30.5l36 256q83 32 165 96l242 -96q19 -10 37 -3t23 21l196 338q9 18 7 34t-16 30
l-206 160q5 55 5 96t-5 96l206 160q14 14 16 30t-7 34l-114 197l-489 -489q4 -10 4 -28q0 -142 -100.5 -242.5t-241.5 -100.5q-19 0 -28 5z" />
</svg>
