<?xml version="1.0" standalone="no"?>
<!DOCTYPE svg PUBLIC "-//W3C//DTD SVG 1.1//EN" "http://www.w3.org/Graphics/SVG/1.1/DTD/svg11.dtd" >
<svg xmlns="http://www.w3.org/2000/svg" xmlns:xlink="http://www.w3.org/1999/xlink" version="1.1" width="2048" height="2048" viewBox="-10 0 2068 2048">
   <path fill="currentColor"
d="M1413 1296l237 142l-73 123l-311 -178v-361h147v274zM1755 757v-512q0 -83 -57 -140t-139 -57h-1367q-78 0 -135 57t-57 140v1170q0 78 57 135t135 57h558q82 178 246.5 285.5t365.5 107.5q188 0 345.5 -91.5t249 -249t91.5 -345.5q0 -169 -80 -315t-213 -242zM1559 437
v224q-101 -28 -197 -28q-215 0 -388 124v-320h585zM192 437h585v393h-585v-393zM192 1415v-393h558q-69 141 -69 292q0 46 9 101h-498zM1362 1803q-132 0 -244 -66t-176 -178t-64 -244.5t64 -244.5t176 -176t244.5 -64t244.5 64t178 176t66 244.5t-66 244.5t-178 178
t-245 66z" />
</svg>
