<?xml version="1.0" standalone="no"?>
<!DOCTYPE svg PUBLIC "-//W3C//DTD SVG 1.1//EN" "http://www.w3.org/Graphics/SVG/1.1/DTD/svg11.dtd" >
<svg xmlns="http://www.w3.org/2000/svg" xmlns:xlink="http://www.w3.org/1999/xlink" version="1.1" width="2048" height="2048" viewBox="-10 0 2068 2048">
   <path fill="currentColor"
d="M189 87h1311q75 0 130 55t55 134v662q-106 -17 -211 5t-193 79h-342v377h101q-18 92 0 184h-851q-79 0 -134 -54.5t-55 -129.5v-1123q0 -79 55 -134t134 -55zM189 460v378h561v-378h-561zM939 460v378h561v-378h-561zM189 1022v377h561v-377h-561zM2040 1614l-101 -74
l5 -49q0 -26 -5 -48l101 -75q13 -13 4 -30l-92 -163q-8 -13 -30 -13l-114 48h-5q-48 -35 -74 -43l-22 -123q0 -22 -22 -22h-185q-21 0 -26 22l-17 123q-40 17 -79 43l-114 -48q-22 0 -31 13l-92 163q-9 17 4 30l101 75q-4 26 -4 48t4 49l-101 74q-13 13 -4 31l92 162
q4 13 31 13l114 -48q43 31 79 44l17 123q5 22 26 22h185q22 0 26 -22l18 -123q30 -13 79 -44l114 48q22 0 30 -13l92 -162q9 -18 -4 -31zM1593 1632q-57 0 -99 -42t-42 -99t42 -98.5t99 -41.5t98.5 41.5t41.5 98.5t-41.5 99t-98.5 42z" />
</svg>
