<?xml version="1.0" standalone="no"?>
<!DOCTYPE svg PUBLIC "-//W3C//DTD SVG 1.1//EN" "http://www.w3.org/Graphics/SVG/1.1/DTD/svg11.dtd" >
<svg xmlns="http://www.w3.org/2000/svg" xmlns:xlink="http://www.w3.org/1999/xlink" version="1.1" width="2048" height="2048" viewBox="-10 0 2063 2048">
   <path fill="currentColor"
d="M1791 1024l-215 210l-141 -140l-766 772l-459 182l-149 -150l182 -458l772 -767l-141 -140l211 -215zM1534 154q84 -89 208 -89t212.5 89t88.5 213t-89 208l-191 192l-421 -421zM416 1552l-107 248l247 -107l739 -739l-140 -140zM711 140l-211 215l211 211l-141 140
l-210 -210l-215 210l-140 -140l215 -211l-215 -215l140 -140l215 215l210 -215z" />
</svg>
