<?xml version="1.0" standalone="no"?>
<!DOCTYPE svg PUBLIC "-//W3C//DTD SVG 1.1//EN" "http://www.w3.org/Graphics/SVG/1.1/DTD/svg11.dtd" >
<svg xmlns="http://www.w3.org/2000/svg" xmlns:xlink="http://www.w3.org/1999/xlink" version="1.1" width="2048" height="2048" viewBox="-10 0 2063 2048">
   <path fill="currentColor"
d="M1797 1047l-211 206l-137 -138l-750 755l-448 178l-146 -146l178 -448l755 -750l-137 -137l205 -210zM1545 197q82 -87 203.5 -87t208 86.5t86.5 208t-86 203.5l-188 187l-411 -411zM453 1563l-106 243l243 -105l722 -723l-137 -137zM494 0v293h292v196h-292v293h-197
v-293h-292v-196h292v-293h197z" />
</svg>
