<?xml version="1.0" standalone="no"?>
<!DOCTYPE svg PUBLIC "-//W3C//DTD SVG 1.1//EN" "http://www.w3.org/Graphics/SVG/1.1/DTD/svg11.dtd" >
<svg xmlns="http://www.w3.org/2000/svg" xmlns:xlink="http://www.w3.org/1999/xlink" version="1.1" width="2048" height="2048" viewBox="-10 0 2068 2048">
   <path fill="currentColor"
d="M1097 302q0 -30 -21.5 -52t-51.5 -22t-51.5 22t-21.5 52t21.5 51t51.5 21t51.5 -21t21.5 -51zM2048 1362v402q0 25 -23 34q-1 1 -6 2.5t-8 1.5q-13 0 -26 -12l-106 -106q-135 164 -363.5 259t-491.5 95t-491.5 -95t-363.5 -259l-106 106q-11 12 -26 12q-3 0 -8 -1.5
t-6 -2.5q-23 -9 -23 -34v-402q0 -15 10.5 -25.5t26.5 -10.5h402q24 0 34 22q9 22 -8 40l-114 114q77 104 217 175.5t310 94.5v-738h-220q-30 0 -51.5 -22t-21.5 -52v-146q0 -30 21.5 -52t51.5 -22h220v-186q-67 -38 -107 -105t-40 -147q0 -121 86 -206.5t207 -85.5t207 85.5
t86 206.5q0 80 -40 147t-107 105v186h220q30 0 51.5 22t21.5 52v146q0 30 -21.5 52t-51.5 22h-220v738q170 -23 310 -94.5t217 -175.5l-114 -114q-17 -18 -8 -40q10 -22 34 -22h402q16 0 26.5 10.5t10.5 25.5z" />
</svg>
