<?xml version="1.0" standalone="no"?>
<!DOCTYPE svg PUBLIC "-//W3C//DTD SVG 1.1//EN" "http://www.w3.org/Graphics/SVG/1.1/DTD/svg11.dtd" >
<svg xmlns="http://www.w3.org/2000/svg" xmlns:xlink="http://www.w3.org/1999/xlink" version="1.1" width="2048" height="2048" viewBox="-10 0 2066 2048">
   <path fill="currentColor"
d="M145 0l1901 1900l-143 148l-519 -524h-186v-186l-200 -200v200q-14 77 -64.5 124.5t-121.5 61.5h-424v-205h405v-205h-305v-200h286l-205 -204h-181v-181l-386 -386zM1503 505h23q120 14 196 90.5t85 190.5v457q-9 67 -28 105l-172 -172v-381q-9 -33 -33 -57t-57 -28
h-114v262l-205 -205v-262h305z" />
</svg>
