<?xml version="1.0" standalone="no"?>
<!DOCTYPE svg PUBLIC "-//W3C//DTD SVG 1.1//EN" "http://www.w3.org/Graphics/SVG/1.1/DTD/svg11.dtd" >
<svg xmlns="http://www.w3.org/2000/svg" xmlns:xlink="http://www.w3.org/1999/xlink" version="1.1" width="2048" height="2048" viewBox="-10 0 2068 2048">
   <path fill="currentColor"
d="M1957 530l-197 197l-431 -432l196 -197q87 -91 214 -91t218 91t91 218.5t-91 213.5zM926 693l148 144l63 -62l144 143l-63 63l144 149l62 -68l144 144l221 -216l-724 -724l-216 221l144 144zM1842 1868l-135 130l-609 -609l-460 465l-470 187l-154 -154l187 -470
l466 -460l-667 -672l129 -129zM954 1245l-143 -144l-432 431l-110 255l254 -111z" />
</svg>
