<?xml version="1.0" standalone="no"?>
<!DOCTYPE svg PUBLIC "-//W3C//DTD SVG 1.1//EN" "http://www.w3.org/Graphics/SVG/1.1/DTD/svg11.dtd" >
<svg xmlns="http://www.w3.org/2000/svg" xmlns:xlink="http://www.w3.org/1999/xlink" version="1.1" width="2048" height="2048" viewBox="-10 0 2068 2048">
   <path fill="currentColor"
d="M172 512h-172v1196q0 68 50 118t122 50h1536v-168h-1536v-1196zM1876 340h-680l-172 -168h-512q-72 0 -122 50t-50 118v1024q0 72 50 122t122 50h1364q72 0 122 -50t50 -122v-852q0 -72 -50 -122t-122 -50zM1700 1280l-248 -148l-252 148l68 -284l-224 -192l292 -24
l116 -268l112 268l292 24l-220 192z" />
</svg>
