<?xml version="1.0" standalone="no"?>
<!DOCTYPE svg PUBLIC "-//W3C//DTD SVG 1.1//EN" "http://www.w3.org/Graphics/SVG/1.1/DTD/svg11.dtd" >
<svg xmlns="http://www.w3.org/2000/svg" xmlns:xlink="http://www.w3.org/1999/xlink" version="1.1" width="2048" height="2048" viewBox="-10 0 2068 2048">
   <path fill="currentColor"
d="M172 512v1196h1536v168h-1536q-72 0 -122 -50t-50 -118v-1196h172zM1092 856l256 -20l104 -240l100 240l260 20l-196 172l56 252l-220 -132l-224 132l60 -252zM2048 512v852q0 72 -50 122t-122 50h-1364q-72 0 -122 -50t-50 -122v-1024q0 -68 50 -118t122 -50h512
l172 168h680q72 0 122 50t50 122zM1876 512h-1364v852h1364v-852z" />
</svg>
