<?xml version="1.0" standalone="no"?>
<!DOCTYPE svg PUBLIC "-//W3C//DTD SVG 1.1//EN" "http://www.w3.org/Graphics/SVG/1.1/DTD/svg11.dtd" >
<svg xmlns="http://www.w3.org/2000/svg" xmlns:xlink="http://www.w3.org/1999/xlink" version="1.1" width="2048" height="2048" viewBox="-10 0 2068 2048">
   <path fill="currentColor"
d="M9 187l335 327q-157 109 -157 279q0 78 48 157q-104 26 -169.5 111t-65.5 194q0 170 161 279q-65 65 -65 187q0 131 96 229t226 98h1212q96 0 191 -65l66 65l122 -122l-1878 -1861zM763 932h-249q-56 0 -97.5 -43.5t-41.5 -93.5t30.5 -89t78.5 -52zM745 1861h-327
q-52 0 -95.5 -41.5t-43.5 -98t43.5 -98t95.5 -41.5h327v279zM763 1394h-436q-57 0 -98.5 -41t-41.5 -95.5t41.5 -98t98.5 -43.5h623l91 95h-17q-92 0 -161.5 50.5t-99.5 132.5zM1630 1861h-327v-279h113l266 270q-17 9 -52 9zM566 270l-126 -131q39 -61 109 -100t148 -39
h654q131 0 226.5 98t95.5 229q0 78 -43 157q104 30 167.5 113t63.5 196q0 78 -48 157q100 35 167.5 120t67.5 185q0 170 -161 279q43 56 56 113l-248 -253h26q57 0 98.5 -41t41.5 -95.5t-41.5 -98t-98.5 -43.5h-305l-187 -184h305q56 0 97.5 -43.5t41.5 -98t-41.5 -95.5
t-97.5 -41h-584l-187 -188h588q52 0 95.5 -41.5t43.5 -98t-43.5 -98t-95.5 -41.5h-654q-39 0 -76 24t-55 59z" />
</svg>
