<?xml version="1.0" standalone="no"?>
<!DOCTYPE svg PUBLIC "-//W3C//DTD SVG 1.1//EN" "http://www.w3.org/Graphics/SVG/1.1/DTD/svg11.dtd" >
<svg xmlns="http://www.w3.org/2000/svg" xmlns:xlink="http://www.w3.org/1999/xlink" version="1.1" width="2048" height="2048" viewBox="-10 0 2063 2048">
   <path fill="currentColor"
d="M2043 1925l-1911 -1925l-127 127l596 592q-23 118 -23 187q-241 -100 -482 -100q177 81 300 273q68 113 164 368q68 178 109 260q68 127 155 191q100 73 241 73q168 0 282 -96q91 -77 164 -241l419 414zM687 806l96 100h-105zM755 1001h123l91 87v77q-136 -114 -214 -164
zM1288 1702q-14 -95 -64 -200q-54 -114 -141 -209h87l204 204q-27 114 -86 205zM969 419v173l114 118h178v-96h-196v-195h96v-96h-96v-196q100 0 186.5 116.5t141 312t59.5 427.5v96l196 195q68 -168 145 -273q100 -132 241 -195q-255 0 -482 109q-9 -251 -75 -453.5
t-175.5 -316t-236.5 -113.5q-105 0 -198 79.5t-162 220.5l87 87h177zM969 155v168h-145q77 -127 145 -168zM1356 983l-77 -77h77v77z" />
</svg>
