<?xml version="1.0" standalone="no"?>
<!DOCTYPE svg PUBLIC "-//W3C//DTD SVG 1.1//EN" "http://www.w3.org/Graphics/SVG/1.1/DTD/svg11.dtd" >
<svg xmlns="http://www.w3.org/2000/svg" xmlns:xlink="http://www.w3.org/1999/xlink" version="1.1" width="2048" height="2048" viewBox="-10 0 2058 2048">
   <path fill="currentColor"
d="M1511 1070q-87 0 -167 34t-141.5 96t-96 142t-34.5 167q0 182 130.5 310t311 128t308.5 -128t128 -310q0 -87 -32 -167t-94 -142t-144 -96t-169 -34zM1511 1216q123 0 207.5 87t84.5 206q0 82 -41 146l-397 -398q68 -36 146 -41zM1259 1362l398 398q-64 41 -146 41
q-119 0 -206 -84.5t-87 -207.5q5 -78 41 -147zM976 0q-82 0 -139.5 57t-57.5 135v32q-210 59 -347 240t-137 414v585l-197 192v100h828q-46 -118 -46 -246q0 -170 84.5 -316t231 -230.5t315.5 -84.5q78 0 146 18v-18q0 -233 -137 -414t-347 -240v-32q0 -78 -57.5 -135
t-139.5 -57zM779 1851q0 83 57.5 140t135 57t132.5 -50q-73 -64 -123 -147h-202z" />
</svg>
