<?xml version="1.0" standalone="no"?>
<!DOCTYPE svg PUBLIC "-//W3C//DTD SVG 1.1//EN" "http://www.w3.org/Graphics/SVG/1.1/DTD/svg11.dtd" >
<svg xmlns="http://www.w3.org/2000/svg" xmlns:xlink="http://www.w3.org/1999/xlink" version="1.1" width="2048" height="2048" viewBox="-10 0 2068 2048">
   <path fill="currentColor"
d="M127 54l-127 123l227 223q-73 367 -95 608q-23 204 -28 450q-4 145 -4 436h677q0 -291 -5 -436q-5 -246 -27 -450l-14 -100l409 404h-168v196q0 159 113.5 272.5t272.5 113.5h290q46 0 64 -5l104 105l123 -128zM372 54l264 264l-14 -68h59v-196h-100h-209zM1894 854
l-264 458l368 368q36 -82 36 -172v-196h-204l218 -372z" />
</svg>
