<?xml version="1.0" standalone="no"?>
<!DOCTYPE svg PUBLIC "-//W3C//DTD SVG 1.1//EN" "http://www.w3.org/Graphics/SVG/1.1/DTD/svg11.dtd" >
<svg xmlns="http://www.w3.org/2000/svg" xmlns:xlink="http://www.w3.org/1999/xlink" version="1.1" width="2048" height="2048" viewBox="-10 0 2063 2048">
   <path fill="currentColor"
d="M2043 1925l-1911 -1925l-127 127l468 465q-341 441 -264 1265q214 18 314 18q606 0 961 -273l446 446zM578 1488q5 -50 9 -95q14 -114 46 -228q50 -155 132 -282l127 127q-182 210 -314 478zM1024 651l-300 -301q332 -223 846 -223q205 0 341 28l14 114q14 145 9 291
q-4 205 -50 382q-54 228 -168 401l-574 -574q100 -86 205 -155q77 -45 146 -77l59 -23q-328 0 -528 137z" />
</svg>
