<?xml version="1.0" standalone="no"?>
<!DOCTYPE svg PUBLIC "-//W3C//DTD SVG 1.1//EN" "http://www.w3.org/Graphics/SVG/1.1/DTD/svg11.dtd" >
<svg xmlns="http://www.w3.org/2000/svg" xmlns:xlink="http://www.w3.org/1999/xlink" version="1.1" width="2048" height="2048" viewBox="-10 0 2058 2048">
   <path fill="currentColor"
d="M1024 202q115 0 250 192q130 178 221 435t91 450q0 154 -74.5 283.5t-204 206.5t-283.5 77t-283.5 -77t-204 -206.5t-74.5 -283.5q0 -193 91 -450t221 -435q135 -192 250 -192zM1024 0q-197 0 -389 236q-164 206 -274 524q-106 298 -106 519q0 211 103.5 386.5t281 279
t384.5 103.5t384.5 -103.5t281 -279t103.5 -386.5q0 -221 -106 -519q-110 -318 -274 -524q-192 -236 -389 -236z" />
</svg>
