<?xml version="1.0" standalone="no"?>
<!DOCTYPE svg PUBLIC "-//W3C//DTD SVG 1.1//EN" "http://www.w3.org/Graphics/SVG/1.1/DTD/svg11.dtd" >
<svg xmlns="http://www.w3.org/2000/svg" xmlns:xlink="http://www.w3.org/1999/xlink" version="1.1" width="2048" height="2048" viewBox="-10 0 2068 2048">
   <path fill="currentColor"
d="M1024 409q-409 0 -514 408q153 -202 360 -154q53 15 106 53q29 29 91 87v5q106 105 178 144q125 72 293 72q409 0 510 -409q-154 202 -356 154q-53 -14 -106 -53q-28 -24 -86 -81l-10 -10q-101 -106 -173 -144q-125 -72 -293 -72zM510 1024q-409 0 -510 409
q154 -202 356 -154q53 14 106 53q28 24 86 81l10 10q101 106 173 144q125 72 293 72q409 0 514 -408q-153 202 -360 154q-53 -15 -101 -53q-34 -24 -91 -82l-5 -10q-106 -105 -178 -144q-125 -72 -293 -72z" />
</svg>
