<?xml version="1.0" standalone="no"?>
<!DOCTYPE svg PUBLIC "-//W3C//DTD SVG 1.1//EN" "http://www.w3.org/Graphics/SVG/1.1/DTD/svg11.dtd" >
<svg xmlns="http://www.w3.org/2000/svg" xmlns:xlink="http://www.w3.org/1999/xlink" version="1.1" width="2048" height="2048" viewBox="-10 0 2068 2048">
   <path fill="currentColor"
d="M2048 1934l-1920 -1934l-128 128l293 293q-96 118 -149 269t-53 316q0 82 57.5 139t134.5 57h791l96 96h-397l-128 439q-19 78 22.5 149t114.5 84l59 9h457q83 0 140 -57t57 -135l-9 -50l-32 -96l-19 -91l499 498zM283 1006q0 -238 147 -448l68 68q-18 60 -18 87
q0 82 57 139.5t140 57.5q27 0 86 -23l115 119h-595zM841 1787l28 -100l59 -192h293l86 292h-466zM1454 910q-78 0 -135 -57.5t-57 -139.5t57 -139t137 -57t137 57t57 139t-57 139.5t-139 57.5zM695 325l-146 -147q260 -146 520.5 -146t484.5 130.5t354.5 354.5t130.5 489
q0 82 -57 139t-135 57h-274l-197 -196h471q0 -270 -167 -482.5t-418 -276.5q-9 73 -66.5 123.5t-130.5 50.5t-130 -50.5t-66 -123.5q-101 32 -174 78z" />
</svg>
