<?xml version="1.0" standalone="no"?>
<!DOCTYPE svg PUBLIC "-//W3C//DTD SVG 1.1//EN" "http://www.w3.org/Graphics/SVG/1.1/DTD/svg11.dtd" >
<svg xmlns="http://www.w3.org/2000/svg" xmlns:xlink="http://www.w3.org/1999/xlink" version="1.1" width="2048" height="2048" viewBox="-10 0 2068 2048">
   <path fill="currentColor"
d="M2048 1934l-1920 -1934l-128 128l325 320q-142 169 -156 384q-55 37 -73 91.5t4.5 112t73 91.5t109.5 34q83 96 208.5 153t281.5 71q13 -183 128 -361l146 146q-78 128 -78 272t73 267.5t196.5 196.5t267.5 73t272 -77l147 146zM1161 1445q0 -64 32 -138l165 165
l-165 119q-32 -73 -32 -146zM1253 1669l173 -119l28 32v205q-133 -36 -201 -118zM1554 1778v-100l78 77l-18 10q-37 13 -60 13zM1847 1472v-27q0 -74 -32 -147l-87 60l-69 -69l96 -68q-68 -83 -201 -119v77l-237 -233q118 -36 187 -36q142 0 265.5 73t196.5 196.5t73 265.5
q0 105 -37 187zM1161 791l-576 -576q114 -69 256 -114q297 -106 576 -55.5t430 219.5q59 0 109.5 34.5t73.5 91.5t4.5 112t-73.5 91q0 119 -59 238q-197 -119 -398 -119q-169 0 -343 78z" />
</svg>
