<?xml version="1.0" standalone="no"?>
<!DOCTYPE svg PUBLIC "-//W3C//DTD SVG 1.1//EN" "http://www.w3.org/Graphics/SVG/1.1/DTD/svg11.dtd" >
<svg xmlns="http://www.w3.org/2000/svg" xmlns:xlink="http://www.w3.org/1999/xlink" version="1.1" width="2048" height="2048" viewBox="-10 0 2063 2048">
   <path fill="currentColor"
d="M2043 1925l-1911 -1925l-127 127l291 292q-96 118 -148 268t-52 314q0 82 56.5 139t134.5 57h787l96 96h-396l-128 436v50q0 78 57 135t139 57h455q82 0 139 -57t57 -135l-9 -50l-50 -173l496 492zM578 1001q-77 0 -134 -57t-57 -138q0 -60 34 -110t89 -72l255 250
q-23 59 -75.5 93t-111.5 34zM869 419q0 -82 57 -139t139 -57t139 57t57 139t-57 138.5t-139 56.5q-64 0 -127 -50l632 633h273q78 0 134.5 -57t56.5 -139q0 -264 -129.5 -487t-352.5 -352.5t-482.5 -129.5t-518.5 145l359 360q-41 -59 -41 -118zM1552 614q77 0 134 57
t57 136.5t-57 136.5t-136.5 57t-136.5 -57t-57 -136.5t57 -136.5t139 -57z" />
</svg>
