<?xml version="1.0" standalone="no"?>
<!DOCTYPE svg PUBLIC "-//W3C//DTD SVG 1.1//EN" "http://www.w3.org/Graphics/SVG/1.1/DTD/svg11.dtd" >
<svg xmlns="http://www.w3.org/2000/svg" xmlns:xlink="http://www.w3.org/1999/xlink" version="1.1" width="2048" height="2048" viewBox="-10 0 2068 2048">
   <path fill="currentColor"
d="M1925 2048l-499 -498l-13 18q-96 114 -142 151q-55 46 -105 59q-37 9 -101 9l78 -292q-242 -18 -432 -109.5t-249 -224.5q-19 82 -41 119q-46 78 -142 101q-60 13 -188 13q74 0 110 -100q37 -87 37 -240t-37 -240q-36 -101 -110 -101q128 0 183 14q101 27 137 105
q19 23 37 101l5 13q45 -105 182 -183l-635 -635l128 -128l1920 1925zM850 480l-77 -155q196 0 283 9q151 13 233 59q73 37 137 110q46 59 96 151q224 55 366 160q151 114 151 242q0 91 -78 176t-215 144zM1454 1006q0 45 27.5 70.5t70.5 25.5t70.5 -25.5t27.5 -71
t-27.5 -70.5t-70.5 -25t-70.5 25t-27.5 71z" />
</svg>
