<?xml version="1.0" standalone="no"?>
<!DOCTYPE svg PUBLIC "-//W3C//DTD SVG 1.1//EN" "http://www.w3.org/Graphics/SVG/1.1/DTD/svg11.dtd" >
<svg xmlns="http://www.w3.org/2000/svg" xmlns:xlink="http://www.w3.org/1999/xlink" version="1.1" width="2048" height="2048" viewBox="-10 0 2068 2048">
   <path fill="currentColor"
d="M2048 1934l-1920 -1934l-128 128l745 741q-68 164 -110 233q-146 18 -249 127.5t-103 267.5t114.5 272t274.5 114t265 -105q-68 -155 -68 -285.5t68 -281.5q-46 -50 -146 -86l68 -147l284 279q-78 110 -78 238q0 160 114.5 274t274.5 114q132 0 224 -77l247 242z
M677 1349q-60 0 -103.5 43t-43.5 103h-100q0 -105 70.5 -176t176.5 -71v101zM1307 1495h-96q0 -69 28 -128l78 78q-10 18 -10 50zM1847 1472l-370 -370q146 9 253.5 116.5t116.5 253.5zM997 626l-119 -119q109 -320 109 -475l138 -9q4 18 9 73l9 73q73 -14 183 9
q160 41 306 156q165 119 197 356q13 115 -5 211h-37q-54 0 -109 -10q-83 -13 -160 -45q-101 -41 -188 -115l-91 -86q46 169 110 333l-224 -224q-32 -100 -69 -292q-41 114 -59 164z" />
</svg>
