<?xml version="1.0" standalone="no"?>
<!DOCTYPE svg PUBLIC "-//W3C//DTD SVG 1.1//EN" "http://www.w3.org/Graphics/SVG/1.1/DTD/svg11.dtd" >
<svg xmlns="http://www.w3.org/2000/svg" xmlns:xlink="http://www.w3.org/1999/xlink" version="1.1" width="2048" height="2048" viewBox="-10 0 2068 2048">
   <path fill="currentColor"
d="M2048 1565v212h-860v-212h860zM217 53h1507q91 0 154.5 63.5t63.5 154.5v839q-101 -61 -218 -76v-763h-343q-11 80 -71.5 136t-146.5 56h-212v217q0 41 -33 73.5t-79 32.5h-212v218h647q36 0 63.5 17.5t37.5 48.5q-177 70 -288 229.5t-116 351.5q-106 0 -172 -63
t-66 -154v-107l-516 -485v935h764q15 117 76 218h-840q-91 0 -154 -63.5t-63 -154.5v-1506q0 -91 63 -154.5t154 -63.5z" />
</svg>
