<?xml version="1.0" standalone="no"?>
<!DOCTYPE svg PUBLIC "-//W3C//DTD SVG 1.1//EN" "http://www.w3.org/Graphics/SVG/1.1/DTD/svg11.dtd" >
<svg xmlns="http://www.w3.org/2000/svg" xmlns:xlink="http://www.w3.org/1999/xlink" version="1.1" width="2048" height="2048" viewBox="-10 0 2068 2048">
   <path fill="currentColor"
d="M1365 1024.5q0 92.5 -45.5 171t-124 124t-171 45.5t-171 -45.5t-124.5 -124t-46 -171t46 -171t124.5 -124.5t171 -46t171 46t124 124.5t45.5 171zM1537 1025q0 -104 -40.5 -199t-109.5 -163.5t-163.5 -109.5t-198.5 -41t-199 41t-163.5 109.5t-109.5 163.5t-41 199
t41 198.5t109.5 163t163.5 109t199 40.5t198.5 -40.5t163.5 -109t109.5 -163t40.5 -198.5zM1707 1024.5q0 138.5 -54 265t-145.5 218t-218 145.5t-265 54t-265 -54t-218 -145.5t-145.5 -218t-54 -265t54 -265t145.5 -218.5t218 -146t265 -54t265 54t218 146t145.5 218.5
t54 265zM1878 1024.5q0 -115.5 -31 -226t-86 -204.5t-134 -173t-172.5 -134t-204 -86t-226 -31t-226 31t-204.5 86t-173 134t-134 173t-86 204.5t-31 226t31 226t86 204t134 172.5t173 134t204.5 86t226 31t226 -31t204 -86t172.5 -134t134 -172.5t86 -204t31 -226z
M2048 1024.5q0 139.5 -36.5 272t-102.5 245t-160.5 207t-207 160.5t-245 102.5t-272 36.5t-272 -36.5t-245 -102.5t-207 -160.5t-160.5 -207t-103 -245t-37 -272t37 -272t103 -245t160.5 -207t207 -160.5t245 -103t272 -37t272 37t245 103t207 160.5t160.5 207t102.5 245
t36.5 272z" />
</svg>
