<?xml version="1.0" standalone="no"?>
<!DOCTYPE svg PUBLIC "-//W3C//DTD SVG 1.1//EN" "http://www.w3.org/Graphics/SVG/1.1/DTD/svg11.dtd" >
<svg xmlns="http://www.w3.org/2000/svg" xmlns:xlink="http://www.w3.org/1999/xlink" version="1.1" width="2048" height="2048" viewBox="-10 0 2068 2048">
   <path fill="currentColor"
d="M1433 1125q-82 0 -142 60t-60 147v307h-106q-91 0 -149 -14q-77 -14 -125 -63l-389 -389q-73 -72 -166.5 -110.5t-194.5 -38.5h-101v207h101q125 0 216 86l390 390q144 149 249.5 221t216.5 96q101 24 260 24h206q169 0 289 -120t120 -289v-307q0 -87 -60 -147t-142 -60
h-413zM1231 534h-154q-82 -10 -137 -67.5t-53 -137t55 -132.5t130 -48h5v-149q-144 0 -245 101t-101 243t101 242.5t245 100.5h154q81 -4 141.5 51t60.5 137v149h153v-168q-4 -140 -107.5 -236t-242.5 -86h-5zM1846 793v231h-154v-236q0 -168 -120 -288t-293 -120v-154
q77 0 134.5 -57.5t57.5 -134.5q0 -20 -5 -34h154q5 77 -19 149t-82 130q149 72 238 211.5t89 302.5z" />
</svg>
