<?xml version="1.0" standalone="no"?>
<!DOCTYPE svg PUBLIC "-//W3C//DTD SVG 1.1//EN" "http://www.w3.org/Graphics/SVG/1.1/DTD/svg11.dtd" >
<svg xmlns="http://www.w3.org/2000/svg" xmlns:xlink="http://www.w3.org/1999/xlink" version="1.1" width="2048" height="2048" viewBox="-10 0 2068 2048">
   <path fill="currentColor"
d="M1925 2048l-270 -265h-9v-14l-96 -96v110h-489v-124q45 -27 73 -73q36 -68 15.5 -146t-88.5 -119v-123h9l-1070 -1075l123 -123l1925 1925zM1303 777h146q78 -4 135 50.5t62 132.5v137h146v-160q-5 -132 -103 -221.5t-235 -84.5h-151q-73 -5 -125.5 -62t-52.5 -130
t52.5 -123.5t120.5 -50.5h5v-142q-133 0 -229 96t-96 231t96 231t229 96zM1888 873v9v215h146v-215q0 -160 -82 -292.5t-224 -200.5h-5q55 -51 80.5 -121.5t15.5 -144.5h-141v32q0 78 -52.5 130.5t-126.5 52.5v147q160 0 274.5 114t114.5 274zM795 1390q28 -41 69 -69v-123
h-485q-123 0 -207.5 84.5t-84.5 205.5t87 208t205 87h485v-124q-69 -41 -89.5 -118.5t20.5 -150.5zM1646 1275l146 147v-224h-146v77zM1888 1518l146 146v-466h-146v320zM965 1390q-42 0 -71.5 29.5t-29.5 68.5t29.5 68.5t68.5 29.5t69 -29.5t30 -68.5t-30 -68.5t-66 -29.5z
" />
</svg>
