<?xml version="1.0" standalone="no"?>
<!DOCTYPE svg PUBLIC "-//W3C//DTD SVG 1.1//EN" "http://www.w3.org/Graphics/SVG/1.1/DTD/svg11.dtd" >
<svg xmlns="http://www.w3.org/2000/svg" xmlns:xlink="http://www.w3.org/1999/xlink" version="1.1" width="2048" height="2048" viewBox="-10 0 2067 2048">
   <path fill="currentColor"
d="M1860 1102q139 -144 175 -333.5t-38.5 -372t-247.5 -293.5q-153 -101 -343 -103t-343 98q-135 87 -209.5 214t-88.5 271q-24 217 -159 356l-4 5q-87 86 -89.5 206t84.5 202l101 101q81 86 201 86t202 -86q144 -144 369.5 -168t389.5 -183zM438 1832q20 43 12.5 91
t-45.5 82q-44 43 -106 43t-105.5 -43t-48.5 -101q-57 -5 -100.5 -48t-43.5 -105.5t44 -105.5q33 -39 81 -46t91 12l255 -245h5q29 43 43 58l106 101q33 38 67 52z" />
</svg>
