<?xml version="1.0" standalone="no"?>
<!DOCTYPE svg PUBLIC "-//W3C//DTD SVG 1.1//EN" "http://www.w3.org/Graphics/SVG/1.1/DTD/svg11.dtd" >
<svg xmlns="http://www.w3.org/2000/svg" xmlns:xlink="http://www.w3.org/1999/xlink" version="1.1" width="2048" height="2048" viewBox="-10 0 2069 2048">
   <path fill="currentColor"
d="M1953 1250q36 41 54 87l10 18q50 123 20 252.5t-125 220.5q-82 78 -200 105q-110 27 -228 9q-105 -14 -198 -75t-148 -152q-36 -64 -50 -128q-14 -36 -23 -105q-4 -118 41.5 -232t131.5 -186q-41 91 -32 191t69 177l13 9q18 19 43 9.5t25 -36.5l-4 -23
q-64 -168 -16 -345.5t184 -291.5q87 -68 173 -91q-50 100 -34 216t98 189q23 27 82 73q41 32 59 50zM1734 1701l-4 -5q36 -27 52 -70t16 -89l-5 -32q-9 -41 -36 -77q-14 -23 -57 -59.5t-66 -66t-41 -70.5q-27 64 -13 146l9 45q18 73 13 114q-13 50 -52 91t-102 55
q40 41 97 59t112 0q36 -9 77 -41zM678 1847v-292h-678l483 -487h-292l487 -482h-291l487 -487l482 487h-291l178 173q-169 95 -269 268t-100 383q0 250 137 437h-333z" />
</svg>
