<?xml version="1.0" standalone="no"?>
<!DOCTYPE svg PUBLIC "-//W3C//DTD SVG 1.1//EN" "http://www.w3.org/Graphics/SVG/1.1/DTD/svg11.dtd" >
<svg xmlns="http://www.w3.org/2000/svg" xmlns:xlink="http://www.w3.org/1999/xlink" version="1.1" width="2048" height="2048" viewBox="-10 0 2068 2048">
   <path fill="currentColor"
d="M1342 1384l140 -145l211 215l215 -210l140 140l-215 210l215 211l-140 145l-215 -215l-211 215l-140 -145l210 -211zM996 98q271 0 500 107.5t362.5 290t133.5 402.5q0 79 -19 168q-93 -51 -192 -65q15 -52 15 -103q0 -164 -108 -302t-292.5 -217.5t-399.5 -79.5
t-400 79.5t-292.5 217.5t-107.5 299.5t107.5 299.5t292.5 219.5t400 81.5l107 -4l-9 102l9 94l-107 5q-178 0 -351 -47q-140 112 -306 175t-339 73q150 -155 224 -290q47 -94 47 -159q-126 -98 -198.5 -243t-72.5 -304q0 -220 133.5 -402.5t362.5 -290t500 -107.5z" />
</svg>
