<?xml version="1.0" standalone="no"?>
<!DOCTYPE svg PUBLIC "-//W3C//DTD SVG 1.1//EN" "http://www.w3.org/Graphics/SVG/1.1/DTD/svg11.dtd" >
<svg xmlns="http://www.w3.org/2000/svg" xmlns:xlink="http://www.w3.org/1999/xlink" version="1.1" width="2048" height="2048" viewBox="-10 0 2068 2048">
   <path fill="currentColor"
d="M1342 1384l140 -145l211 215l215 -210l140 140l-215 210l215 211l-140 145l-215 -215l-211 215l-140 -145l210 -211zM996 98q271 0 500 107.5t362.5 290t133.5 402.5q0 79 -19 168q-131 -70 -280 -70q-159 0 -297 79.5t-220 217.5t-82 301l9 94l-107 5q-182 0 -351 -47
q-103 84 -224 140q-98 47 -211 75q-74 19 -154 28l-56 5q150 -150 220 -290q47 -89 51 -159q-126 -108 -198.5 -250.5t-72.5 -296.5q0 -220 133.5 -402.5t362.5 -290t500 -107.5z" />
</svg>
