<?xml version="1.0" standalone="no"?>
<!DOCTYPE svg PUBLIC "-//W3C//DTD SVG 1.1//EN" "http://www.w3.org/Graphics/SVG/1.1/DTD/svg11.dtd" >
<svg xmlns="http://www.w3.org/2000/svg" xmlns:xlink="http://www.w3.org/1999/xlink" version="1.1" width="2048" height="2048" viewBox="-10 0 2068 2048">
   <path fill="currentColor"
d="M1925 2048l-348 -347l-462 256q-22 18 -54 18t-55 -18l-773 -430q-50 -28 -50 -87v-878q0 -59 50 -87l78 -41l-311 -311l123 -123l1925 1925zM1061 238l580 324l-452 256l704 704q45 -27 45 -82v-878q0 -59 -50 -87l-773 -429q-22 -19 -54 -19t-55 19l-380 210l142 142z
" />
</svg>
