<?xml version="1.0" standalone="no"?>
<!DOCTYPE svg PUBLIC "-//W3C//DTD SVG 1.1//EN" "http://www.w3.org/Graphics/SVG/1.1/DTD/svg11.dtd" >
<svg xmlns="http://www.w3.org/2000/svg" xmlns:xlink="http://www.w3.org/1999/xlink" version="1.1" width="2048" height="2048" viewBox="-10 0 2068 2048">
   <path fill="currentColor"
d="M980 480q42 -27 87 -13.5t68.5 53t10.5 84t-50 70.5l-926 531q-42 21 -86.5 10.5t-68 -49.5t-10.5 -84t55 -71zM475 1979l-131 -679l831 -478q68 -37 105 -103t37 -145q0 -115 -81.5 -196.5t-197.5 -81.5q-79 0 -147 42l-663 384l-89 -426h-111v-227h2020v227h-110
l-337 1683h-1126z" />
</svg>
