<?xml version="1.0" standalone="no"?>
<!DOCTYPE svg PUBLIC "-//W3C//DTD SVG 1.1//EN" "http://www.w3.org/Graphics/SVG/1.1/DTD/svg11.dtd" >
<svg xmlns="http://www.w3.org/2000/svg" xmlns:xlink="http://www.w3.org/1999/xlink" version="1.1" width="2048" height="2048" viewBox="-10 0 2068 2048">
   <path fill="currentColor"
d="M1925 2048l-115 -110q-77 37 -164 37h-197q-151 0 -247 -23q-105 -23 -205.5 -91.5t-237.5 -210.5l-370 -370q-87 -82 -206 -82h-96v-197h96q96 0 185 36.5t158 105.5l370 370q46 46 119 60q55 13 142 13h100v-205l-1257 -1258l123 -123l1925 1925zM2030 1659
q4 -41 4 -73v-292q0 -83 -57 -140t-135 -57h-370zM1696 777v5v219h146v-219q0 -156 -84.5 -288.5t-226.5 -200.5q55 -55 78 -123.5t18 -142.5h-146q5 14 5 32q0 74 -55 128.5t-128 54.5v147q164 0 278.5 114t114.5 274zM1042 672q32 9 69 9h146q78 -4 135 48.5t57 129.5v142
h146v-160q-4 -132 -102.5 -223.5t-230.5 -82.5h-151q-78 -9 -130.5 -64t-50 -130.5t52.5 -125.5t123 -46h5v-142q-137 0 -233 96t-96 229q0 37 9 64z" />
</svg>
