<?xml version="1.0" standalone="no"?>
<!DOCTYPE svg PUBLIC "-//W3C//DTD SVG 1.1//EN" "http://www.w3.org/Graphics/SVG/1.1/DTD/svg11.dtd" >
<svg xmlns="http://www.w3.org/2000/svg" xmlns:xlink="http://www.w3.org/1999/xlink" version="1.1" width="2048" height="2048" viewBox="-10 0 2068 2048">
   <path fill="currentColor"
d="M2048 1502l-474 474l-335 -330l143 -144l192 188l331 -331zM1905 1167v27q-90 -49 -197 -67q-13 -45 -51 -74t-83 -29h-143v-478h-479v-144q0 -58 -42.5 -100.5t-100.5 -42.5t-100.5 42.5t-42.5 100.5v144h-478v205q129 49 207.5 161t78.5 255t-78.5 255t-207.5 161v206
h206q49 -130 160.5 -208.5t250.5 -78.5t255 76l-14 112q0 157 76 286h-53v-26q0 -108 -76 -184t-183.5 -76t-183.5 76t-76 184v26h-362q-76 0 -132 -55.5t-56 -131.5v-363h27q107 0 183 -76t76 -183t-76 -183t-183 -76h-27v-362q0 -76 56 -132t132 -56h290
q18 -125 112 -205.5t219.5 -80.5t219 80.5t111.5 205.5h291q76 0 132 56t56 132v290q125 18 205.5 112t80.5 219z" />
</svg>
