<?xml version="1.0" standalone="no"?>
<!DOCTYPE svg PUBLIC "-//W3C//DTD SVG 1.1//EN" "http://www.w3.org/Graphics/SVG/1.1/DTD/svg11.dtd" >
<svg xmlns="http://www.w3.org/2000/svg" xmlns:xlink="http://www.w3.org/1999/xlink" version="1.1" width="2048" height="2048" viewBox="-10 0 2068 2048">
   <path fill="currentColor"
d="M1024 0q279 0 514.5 137t372.5 372.5t137 514.5t-137 514.5t-372.5 372.5t-514.5 137t-514.5 -137t-372.5 -372.5t-137 -514.5t137 -514.5t372.5 -372.5t514.5 -137zM1322 1106q-82 0 -144.5 50.5t-81.5 131.5q-72 -33 -144 -4q-19 -77 -81.5 -127.5t-144.5 -50.5
q-96 0 -166 67t-70 163.5t70 166t163.5 69.5t158.5 -62.5t75 -153.5q67 -44 134 5q10 86 75 148.5t158.5 62.5t163.5 -69.5t70 -166t-70 -163.5t-166 -67zM726 1173q67 0 115 48t48 118t-48 118t-117.5 48t-117.5 -48t-48 -118t48 -118t120 -48zM1322 1173q72 0 120 48
t48 118t-48 118t-117.5 48t-117.5 -48t-48 -118t48 -118t115 -48zM1620 971h-1192v72h1192v-72zM1245 500q-14 -24 -36 -33.5t-46 -4.5l-139 48l-139 -48h-5q-24 -5 -46 7t-31 36l-154 399h750z" />
</svg>
