<?xml version="1.0" standalone="no"?>
<!DOCTYPE svg PUBLIC "-//W3C//DTD SVG 1.1//EN" "http://www.w3.org/Graphics/SVG/1.1/DTD/svg11.dtd" >
<svg xmlns="http://www.w3.org/2000/svg" xmlns:xlink="http://www.w3.org/1999/xlink" version="1.1" width="2048" height="2048" viewBox="-10 0 2068 2048">
   <path fill="currentColor"
d="M1404 202q135 0 235 67q178 120 207 327q5 101 -26 195t-104 161q-110 110 -264 130q-303 29 -495 226q-24 24 -58 24t-58 -24l-101 -101q-24 -24 -24 -58t34 -67q188 -193 216 -481q10 -101 63 -187.5t144 -144.5q101 -67 231 -67zM1404 0q-188 0 -341 96
q-135 87 -209.5 214t-88.5 272q-25 216 -159 355l-5 5q-86 87 -88.5 207t83.5 202l101 101q82 86 202 86t202 -86q144 -144 370 -168t390 -183q139 -144 175 -334t-38.5 -372.5t-247.5 -293.5q-154 -101 -346 -101zM438 1832q19 43 11.5 91t-45.5 82q-43 43 -105.5 43
t-106 -43.5t-48.5 -100.5q-57 -5 -100.5 -48.5t-43.5 -106t43 -105.5q34 -38 82 -45.5t91 12.5l255 -246h5q29 44 43 58l106 101q34 38 67 53z" />
</svg>
