<?xml version="1.0" standalone="no"?>
<!DOCTYPE svg PUBLIC "-//W3C//DTD SVG 1.1//EN" "http://www.w3.org/Graphics/SVG/1.1/DTD/svg11.dtd" >
<svg xmlns="http://www.w3.org/2000/svg" xmlns:xlink="http://www.w3.org/1999/xlink" version="1.1" width="2048" height="2048" viewBox="-10 0 2068 2048">
   <path fill="currentColor"
d="M1312 615l121 121l-697 697l-121 -121zM202 202h1644q82 0 142 60t60 147v408q-82 0 -142 60t-60 147t60 147t142 60v408q0 87 -60 147t-142 60h-1644q-82 0 -142 -60t-60 -147v-408q82 0 142 -60t60 -147t-60 -147t-142 -60v-408q0 -87 60 -147t142 -60zM202 409v259
q96 58 151.5 151.5t55.5 204.5t-55.5 204.5t-151.5 151.5v259h1644v-259q-96 -58 -151.5 -151.5t-55.5 -204.5t55.5 -204.5t151.5 -151.5v-259h-1644zM769 615q63 0 108.5 43.5t45.5 108.5t-45.5 110.5t-110.5 45.5t-108.5 -45.5t-43.5 -110.5t43.5 -108.5t110.5 -43.5z
M1279 1125q67 0 110.5 45.5t43.5 110.5t-43.5 108.5t-108.5 43.5t-110.5 -43.5t-45.5 -108.5t45.5 -110.5t108.5 -45.5z" />
</svg>
