<?xml version="1.0" standalone="no"?>
<!DOCTYPE svg PUBLIC "-//W3C//DTD SVG 1.1//EN" "http://www.w3.org/Graphics/SVG/1.1/DTD/svg11.dtd" >
<svg xmlns="http://www.w3.org/2000/svg" xmlns:xlink="http://www.w3.org/1999/xlink" version="1.1" width="2048" height="2048" viewBox="-10 0 2068 2048">
   <path fill="currentColor"
d="M2048 1925l-1925 -1925l-123 123l498 503q-23 41 -23 83v534l343 343v293h485v-293l82 -77l540 539zM1166 1449l-41 41h-128l-325 -324v-371l571 576zM1079 709l-192 -197h370v-389h192v389q73 0 135 61.5t62 135.5v534l-14 19l-183 -183v-361v-5l-4 -4h-366zM864 494
l-192 -197v-174h192v371z" />
</svg>
