<?xml version="1.0" standalone="no"?>
<!DOCTYPE svg PUBLIC "-//W3C//DTD SVG 1.1//EN" "http://www.w3.org/Graphics/SVG/1.1/DTD/svg11.dtd" >
<svg xmlns="http://www.w3.org/2000/svg" xmlns:xlink="http://www.w3.org/1999/xlink" version="1.1" width="2048" height="2048" viewBox="-10 0 2068 2048">
   <path fill="currentColor"
d="M2048 1925l-1925 -1925l-123 123l288 288q-201 261 -201 590q0 265 130 489t354 354.5t490 130.5q329 0 589 -201l275 274zM763 887h-59l14 -41zM494 951h333l64 68h-397v-68zM1344 1522q-87 0 -148.5 -59.5t-70.5 -141.5q-64 -46 -128 -4q-10 86 -71.5 145.5
t-150.5 59.5t-155.5 -66t-66.5 -157.5t66.5 -155.5t157.5 -64q78 0 137.5 48t77.5 121q64 -27 133 0l64 64q4 59 45 100.5t96 45.5l60 55q-28 9 -46 9zM859 489l-315 -315q238 -147 517 -147q265 0 489 130.5t354 354.5t130 489q0 279 -146 517l-498 -499h237v-68h-301
l-69 -64h160l-146 -384q-14 -23 -34.5 -32t-43.5 -5l-132 46l-133 -46h-5q-36 -9 -64 23zM933 1298q0 69 -46 114.5t-112 45.5t-112 -45.5t-46 -112t46 -112t112 -45.5t112 45.5t46 109.5z" />
</svg>
