<?xml version="1.0" standalone="no"?>
<!DOCTYPE svg PUBLIC "-//W3C//DTD SVG 1.1//EN" "http://www.w3.org/Graphics/SVG/1.1/DTD/svg11.dtd" >
<svg xmlns="http://www.w3.org/2000/svg" xmlns:xlink="http://www.w3.org/1999/xlink" version="1.1" width="2048" height="2048" viewBox="-10 0 2068 2048">
   <path fill="currentColor"
d="M1024 1589q0 149 67 279l-67 62l-149 -134q-332 -298 -462 -433q-206 -212 -302 -375q-111 -188 -111 -375q0 -154 74.5 -283.5t204.5 -204.5t283 -75q135 0 255 58t207 154q87 -96 207 -154t255 -58q153 0 283 75t204.5 204.5t74.5 283.5q0 207 -139 423
q-130 -62 -270 -62q-168 0 -310 81.5t-223.5 223.5t-81.5 310zM1740 1180h-202v308h-307v202h307v308h202v-308h308v-202h-308v-308z" />
</svg>
