<?xml version="1.0" standalone="no"?>
<!DOCTYPE svg PUBLIC "-//W3C//DTD SVG 1.1//EN" "http://www.w3.org/Graphics/SVG/1.1/DTD/svg11.dtd" >
<svg xmlns="http://www.w3.org/2000/svg" xmlns:xlink="http://www.w3.org/1999/xlink" version="1.1" width="2048" height="2048" viewBox="-10 0 2068 2048">
   <path fill="currentColor"
d="M1091 1868l-67 62l-149 -134q-332 -298 -462 -433q-206 -212 -302 -375q-111 -188 -111 -375q0 -154 74.5 -283.5t204.5 -204.5t283 -75q135 0 255 58t207 154q87 -96 207 -154t255 -58q153 0 283 75t204.5 204.5t74.5 283.5q0 207 -139 423q-101 -48 -207 -58
q144 -197 144 -365q0 -154 -103.5 -255t-256.5 -101q-121 0 -224 67.5t-142 173.5h-192q-39 -106 -142 -173.5t-224 -67.5q-153 0 -256.5 101t-103.5 255q0 144 101 303q91 139 284 332q120 120 427 399l10 9l5 -5q9 116 62 217zM1538 1180v308h-307v202h307v308h202v-308
h308v-202h-308v-308h-202z" />
</svg>
