<?xml version="1.0" standalone="no"?>
<!DOCTYPE svg PUBLIC "-//W3C//DTD SVG 1.1//EN" "http://www.w3.org/Graphics/SVG/1.1/DTD/svg11.dtd" >
<svg xmlns="http://www.w3.org/2000/svg" xmlns:xlink="http://www.w3.org/1999/xlink" version="1.1" width="2048" height="2048" viewBox="-10 0 2068 2048">
   <path fill="currentColor"
d="M683 1536q0 -71 -50 -121t-121 -50t-120.5 50t-49.5 121t50 121t120.5 50t120.5 -50t50 -121zM1151 1662q-9 -153 -71.5 -290.5t-164 -239t-239 -164t-290.5 -71.5q-18 -1 -31 12t-13 32v170q0 17 11.5 29t28.5 13q134 10 248.5 80t184.5 184.5t80 248.5q1 17 13.5 29
t28.5 12h172q16 0 30 -14q13 -13 12 -31zM1663 1663q-6 -171 -55 -333.5t-132 -301t-200.5 -256t-256 -200.5t-301 -132t-333.5 -55q-19 -2 -30 12q-13 13 -13 31v171q0 16 12 29t29 14q136 5 266 44.5t241 106.5t205 161t161 204.5t106.5 240.5t44.5 266q1 17 13.5 29.5
t28.5 12.5h172q16 0 30 -14q14 -12 12 -30zM2048 384v1280q0 105 -51.5 193t-139.5 139.5t-193 51.5h-1280q-105 0 -193 -51.5t-139.5 -139.5t-51.5 -193v-1280q0 -105 51.5 -193t139.5 -139.5t193 -51.5h1280q105 0 193 51.5t139.5 139.5t51.5 193z" />
</svg>
