<?xml version="1.0" standalone="no"?>
<!DOCTYPE svg PUBLIC "-//W3C//DTD SVG 1.1//EN" "http://www.w3.org/Graphics/SVG/1.1/DTD/svg11.dtd" >
<svg xmlns="http://www.w3.org/2000/svg" xmlns:xlink="http://www.w3.org/1999/xlink" version="1.1" width="2048" height="2048" viewBox="-10 0 2068 2048">
   <path fill="currentColor"
d="M124 30l-124 124l202 203q-115 147 -115 336q0 179 106 359q92 156 290 359q124 128 442 414l143 129l382 -346l405 410l124 -124zM1077 1682l-9 9l-9 -9q-295 -267 -410 -382q-184 -184 -272 -317q-96 -152 -96 -290q0 -111 60 -194l971 967zM704 361l-193 -193
q60 -14 115 -14q129 0 244 55.5t198 147.5q83 -92 198 -147.5t244 -55.5q147 0 271 71.5t195.5 195.5t71.5 272q0 165 -92 331q-78 152 -253 336l-138 -138q142 -157 211 -276q79 -134 79 -253q0 -148 -99 -244.5t-246 -96.5q-102 0 -194 53t-138 140h-221
q-37 -69 -103.5 -117t-149.5 -67z" />
</svg>
