<?xml version="1.0" standalone="no"?>
<!DOCTYPE svg PUBLIC "-//W3C//DTD SVG 1.1//EN" "http://www.w3.org/Graphics/SVG/1.1/DTD/svg11.dtd" >
<svg xmlns="http://www.w3.org/2000/svg" xmlns:xlink="http://www.w3.org/1999/xlink" version="1.1" width="2048" height="2048" viewBox="-10 0 2068 2048">
   <path fill="currentColor"
d="M1024 1611q0 149 67 278l-67 63l-149 -135q-332 -298 -462 -432q-206 -212 -302 -375q-111 -188 -111 -375q0 -154 74.5 -284t204.5 -204.5t283 -74.5q135 0 255 57.5t207 154.5q87 -97 207 -154.5t255 -57.5q153 0 283 74.5t204.5 204.5t74.5 284q0 206 -139 423
q-130 -63 -270 -63q-168 0 -310 82t-223.5 223.5t-81.5 310.5zM2005 1394l-149 -144l-217 216l-216 -216l-144 144l216 217l-216 216l144 149l216 -221l217 221l149 -149l-221 -216z" />
</svg>
