<?xml version="1.0" standalone="no"?>
<!DOCTYPE svg PUBLIC "-//W3C//DTD SVG 1.1//EN" "http://www.w3.org/Graphics/SVG/1.1/DTD/svg11.dtd" >
<svg xmlns="http://www.w3.org/2000/svg" xmlns:xlink="http://www.w3.org/1999/xlink" version="1.1" width="2048" height="2048" viewBox="-10 0 2068 2048">
   <path fill="currentColor"
d="M1925 2048l-343 -343l-32 174h-979l-105 -535l179 -105l86 443h659l27 -141l-617 -618l-494 284q-36 18 -75 9t-59.5 -43.5t-9 -73t47.5 -61.5l444 -256l-142 -147l-169 101l-64 -320h-96v-110l-183 -183l123 -123l1925 1925zM1641 416l-142 713l165 165l178 -878h96
v-197h-1344l192 197h855zM1010 576l-41 23l142 142q32 -19 43.5 -57.5t-9 -73t-59.5 -46t-76 11.5z" />
</svg>
