<?xml version="1.0" standalone="no"?>
<!DOCTYPE svg PUBLIC "-//W3C//DTD SVG 1.1//EN" "http://www.w3.org/Graphics/SVG/1.1/DTD/svg11.dtd" >
<svg xmlns="http://www.w3.org/2000/svg" xmlns:xlink="http://www.w3.org/1999/xlink" version="1.1" width="2048" height="2048" viewBox="-10 0 2068 2048">
   <path fill="currentColor"
d="M1024 1846q221 0 411 -110.5t300.5 -300.5t110.5 -411t-110.5 -411t-300.5 -300.5t-411 -110.5t-411 110.5t-300.5 300.5t-110.5 411t110.5 411t300.5 300.5t411 110.5zM1024 0q279 0 514.5 137t372.5 372.5t137 514.5t-137 514.5t-372.5 372.5t-514.5 137t-514.5 -137
t-372.5 -372.5t-137 -514.5t137 -514.5t372.5 -372.5t514.5 -137zM1077 1106l-495 288l-72 -144l413 -236v-504h154v596z" />
</svg>
