<?xml version="1.0" standalone="no"?>
<!DOCTYPE svg PUBLIC "-//W3C//DTD SVG 1.1//EN" "http://www.w3.org/Graphics/SVG/1.1/DTD/svg11.dtd" >
<svg xmlns="http://www.w3.org/2000/svg" xmlns:xlink="http://www.w3.org/1999/xlink" version="1.1" width="2048" height="2048" viewBox="-10 0 2065 2048">
   <path fill="currentColor"
d="M1845 892v-484l-407 -408h-1228q-87 0 -147 60t-60 146v1430q0 86 60 146t147 60h686q-48 -111 -63 -226q-96 -28 -156 -107.5t-60 -179.5q0 -130 89 -218.5t218 -88.5q29 0 91 24q101 -111 235.5 -168.5t287.5 -57.5q178 0 307 72zM1231 614h-1021v-408h1021v408z
M1917 1597v-105l110 -82q24 -19 15 -29l-106 -172q0 -10 -28 -10l-125 48q-63 -38 -91 -48l-19 -134q0 -10 -7.5 -14.5t-16.5 -4.5h-202q-33 0 -33 19l-20 134l-81 48l-125 -48q-19 0 -29 10l-100 172q0 20 9 29l111 82v105l-111 82q-19 19 -9 28l100 178q10 10 29 10
l125 -53q38 33 81 53l20 129q24 24 33 24h202q9 0 16.5 -7t7.5 -17l19 -129l81 -53l125 43q19 0 29 -14l100 -173q10 -5 10 -12t-10 -7zM1538 1688q-62 0 -107.5 -45.5t-45.5 -108t45.5 -108t108 -45.5t108 45.5t45.5 108t-45.5 108t-108.5 45.5z" />
</svg>
