<?xml version="1.0" standalone="no"?>
<!DOCTYPE svg PUBLIC "-//W3C//DTD SVG 1.1//EN" "http://www.w3.org/Graphics/SVG/1.1/DTD/svg11.dtd" >
<svg xmlns="http://www.w3.org/2000/svg" xmlns:xlink="http://www.w3.org/1999/xlink" version="1.1" width="2048" height="2048" viewBox="-10 0 2068 2048">
   <path fill="currentColor"
d="M759 1803q-5 -9 -18 -32q-32 -59 -42 -96l-36 -68h-78v-485h485q196 -100 393 -100q270 0 484 155v-347q0 -128 -82 -210.5t-210 -82.5h-1362q-128 0 -210.5 82.5t-82.5 210.5v585h389v388h370zM1655 729q46 0 73 27.5t27 71t-27 71t-70.5 27.5t-71 -27.5t-27.5 -71
t27.5 -71t68.5 -27.5zM1559 437h-1170v-389h1170v389zM1463 1511q41 0 68.5 27.5t27.5 71t-27.5 70.5t-71 27t-71 -27t-27.5 -70.5t27.5 -71t73.5 -27.5zM1463 1218q-197 0 -359 110t-226 279q64 174 226 283.5t356.5 109.5t356.5 -109.5t231 -283.5q-69 -169 -231 -279
t-354 -110zM1463 1854q-105 0 -176 -71t-71 -174t71 -173.5t173.5 -70.5t173.5 70.5t71 173.5t-71 174t-171 71z" />
</svg>
