<?xml version="1.0" standalone="no"?>
<!DOCTYPE svg PUBLIC "-//W3C//DTD SVG 1.1//EN" "http://www.w3.org/Graphics/SVG/1.1/DTD/svg11.dtd" >
<svg xmlns="http://www.w3.org/2000/svg" xmlns:xlink="http://www.w3.org/1999/xlink" version="1.1" width="2048" height="2048" viewBox="-10 0 2058 2048">
   <path fill="currentColor"
d="M1612 1247q173 0 281 121l117 -121v403h-398l178 -183q-84 -70 -178 -70q-103 0 -175.5 72.5t-72.5 178t72.5 178t175.5 72.5q117 0 201 -98h169q-47 112 -145.5 180t-224.5 68q-164 0 -281 -117t-117 -283.5t117 -283.5t281 -117zM960 1650q0 -146 71 -300h-19
q-141 0 -246 -105.5t-105 -246t105 -246t246 -105.5t246.5 105.5t105.5 245.5q0 42 -10 52q131 -52 258 -52q51 0 150 19v-19q0 -70 -9 -98l210 -160q24 -28 10 -60l-202 -352q-4 -19 -18.5 -23.5t-42.5 -4.5l-248 98q-52 -42 -169 -98l-42 -272q9 -5 -7 -16.5t-30 -11.5
h-403q-15 0 -31 11.5t-16 25.5l-43 272q-37 10 -103 52l-65 37l-239 -98q-28 0 -42 4.5t-29 23.5l-201 352q-14 23 19 60l211 160q0 14 -5 49t-5 49q0 71 10 99l-211 173q-24 23 -10 56l202 352q5 14 19 16.5t42 2.5l248 -99q52 42 169 99l42 271q0 14 14 26t33 12h253
q-113 -169 -113 -356z" />
</svg>
