<?xml version="1.0" standalone="no"?>
<!DOCTYPE svg PUBLIC "-//W3C//DTD SVG 1.1//EN" "http://www.w3.org/Graphics/SVG/1.1/DTD/svg11.dtd" >
<svg xmlns="http://www.w3.org/2000/svg" xmlns:xlink="http://www.w3.org/1999/xlink" version="1.1" width="2048" height="2048" viewBox="-10 0 2058 2048">
   <path fill="currentColor"
d="M987 1677h-39l-35 -245q-157 -26 -280 -166l-227 92l-74 -122l197 -149q-57 -166 0 -336l-197 -127l74 -122l227 92q110 -127 280 -166l26 -245h140l35 245q83 13 157 59t122 107l227 -92l74 122l-196 140q26 83 26 166h48q48 0 140 18v-18l-9 -92l197 -148q22 -26 8 -57
l-187 -327q-5 -18 -18 -22.5t-39 -4.5l-232 92q-48 -39 -157 -92l-39 -253q9 -4 -6.5 -15t-28.5 -11h-375q-14 0 -29 11t-15 24l-39 253q-35 9 -97 48l-61 35l-222 -92q-27 0 -40 4.5t-26 22.5l-188 327q-13 22 18 57l196 148l-8 92l8 92l-196 161q-22 22 -9 53l188 327
q4 13 17 15.5t40 2.5l231 -92q48 39 157 92l40 253q0 13 13 24t30 11h236q-31 -39 -52 -96q-13 -31 -31 -96zM1384 956v-26q0 -153 -109 -262t-262 -109t-262 109t-109 262t109 262t262 109q48 -118 148.5 -209.5t222.5 -135.5zM826 930q0 -78 54.5 -133t133 -55t133 55
t54.5 133.5t-54.5 133t-133 54.5t-133.5 -54.5t-54 -133.5zM1572 1162v-140l-205 205l205 205v-131q96 0 164 68t68 168q0 61 -27 101l101 104q87 -126 56.5 -279t-157.5 -236q-78 -65 -205 -65zM1572 1769q-96 0 -163.5 -68t-67.5 -164q0 -61 26 -105l-100 -100
q-88 126 -57.5 277t157.5 234q114 65 205 65v140l205 -205l-205 -214v140z" />
</svg>
