<?xml version="1.0" standalone="no"?>
<!DOCTYPE svg PUBLIC "-//W3C//DTD SVG 1.1//EN" "http://www.w3.org/Graphics/SVG/1.1/DTD/svg11.dtd" >
<svg xmlns="http://www.w3.org/2000/svg" xmlns:xlink="http://www.w3.org/1999/xlink" version="1.1" width="2048" height="2048" viewBox="-10 0 2068 2048">
   <path fill="currentColor"
d="M123 0l-123 123l402 407q-23 92 -23 206q5 183 105.5 338.5t256.5 237.5q105 55 164.5 148.5t59.5 203.5v18q0 124 84.5 208.5t207.5 84.5q233 0 348 -242l320 315l123 -123zM1257 1783q-41 0 -70.5 -30t-29.5 -71v-18q0 -165 -87 -304t-238 -222q-114 -59 -185 -171
t-76 -240v-28l115 110l9 32l14 -4l118 114l-50 23q46 50 101 77q96 51 173 128h5l119 119l-23 9q78 124 96 266l123 -46l10 -23l77 78q-41 114 -100 164q-41 37 -101 37zM1431 571l-357 133l-219 -219l370 -138q156 60 206 224zM727 357l-137 -138q91 -91 210 -141.5
t247 -50.5q196 0 343 69q119 59 205 169q64 87 106 201q27 83 36 169l5 74q0 379 -32 630l-179 -178q19 -201 19 -452q0 -78 -28 -160q-41 -138 -137 -220q-123 -110 -338 -110q-178 0 -320 138zM1422 1051l-229 -228l256 -96q0 164 -4 315z" />
</svg>
