<?xml version="1.0" standalone="no"?>
<!DOCTYPE svg PUBLIC "-//W3C//DTD SVG 1.1//EN" "http://www.w3.org/Graphics/SVG/1.1/DTD/svg11.dtd" >
<svg xmlns="http://www.w3.org/2000/svg" xmlns:xlink="http://www.w3.org/1999/xlink" version="1.1" width="2048" height="2048" viewBox="-10 0 2058 2048">
   <path fill="currentColor"
d="M965 1537q0 -135 66 -279h-18q-131 0 -229 -98.5t-98 -229.5t98 -229t229 -98t229.5 98t98.5 229q0 39 -9 48q122 -48 240 -48q48 0 140 18v-18q0 -65 -9 -92l197 -148q22 -26 8 -57l-187 -327q-5 -18 -18 -22.5t-39 -4.5l-232 92q-48 -39 -157 -92l-39 -253
q9 -4 -6.5 -15t-28.5 -11h-375q-14 0 -29 11t-15 24l-39 253q-35 9 -97 48l-61 35l-222 -92q-27 0 -40 4.5t-26 22.5l-188 327q-13 22 18 57l196 148q0 14 -4 46.5t-4 45.5q0 66 8 92l-196 161q-22 22 -9 53l188 327q4 13 17 15.5t40 2.5l231 -92q48 39 157 92l40 253
q0 13 13 24t30 11h236q-105 -157 -105 -332zM1572 1162v-140l-205 205l205 205v-131q96 0 164 68t68 168q0 61 -27 101l101 104q87 -126 56.5 -279t-157.5 -236q-78 -65 -205 -65zM1572 1769q-96 0 -163.5 -68t-67.5 -164q0 -61 26 -105l-100 -100q-88 126 -57.5 277
t157.5 234q114 65 205 65v140l205 -205l-205 -214v140z" />
</svg>
