<?xml version="1.0" standalone="no"?>
<!DOCTYPE svg PUBLIC "-//W3C//DTD SVG 1.1//EN" "http://www.w3.org/Graphics/SVG/1.1/DTD/svg11.dtd" >
<svg xmlns="http://www.w3.org/2000/svg" xmlns:xlink="http://www.w3.org/1999/xlink" version="1.1" width="2048" height="2048" viewBox="-10 0 2068 2048">
   <path fill="currentColor"
d="M1070 1655q0 -201 128 -361q-23 -60 -41 -92q59 -50 86 -119q83 14 147 55q128 -68 272 -68t276 73q9 -64 9 -119q0 -169 -109.5 -256t-283 -80t-352.5 103q-50 -60 -119 -87q37 -183 156 -242q87 -41 125.5 -119t16 -158t-105.5 -130q-96 -55 -251 -55
q-169 0 -256 109.5t-80 283.5t103 352q-60 46 -92 119q-178 -37 -237 -155q-46 -87 -121.5 -126t-155.5 -16t-130 105q-55 96 -55 251q0 170 109.5 256.5t281 80t354.5 -102.5q46 59 119 91q-37 178 -155 238q-87 41 -126 118.5t-16 157.5t105 131q96 54 251 54
q119 0 197 -54q-50 -119 -50 -238zM974 1070q-41 0 -68.5 -27.5t-27.5 -68.5t27.5 -68.5t68.5 -27.5t68.5 27.5t27.5 68.5t-27.5 68.5t-68.5 27.5zM1755 1266v293h293v196h-293v293h-196v-293h-293v-196h293v-293h196z" />
</svg>
