<?xml version="1.0" standalone="no"?>
<!DOCTYPE svg PUBLIC "-//W3C//DTD SVG 1.1//EN" "http://www.w3.org/Graphics/SVG/1.1/DTD/svg11.dtd" >
<svg xmlns="http://www.w3.org/2000/svg" xmlns:xlink="http://www.w3.org/1999/xlink" version="1.1" width="2048" height="2048" viewBox="-10 0 2068 2048">
   <path fill="currentColor"
d="M852 940q-36 0 -60 24t-24 60t24 60t60 24t62 -24t26 -60t-26 -60t-62 -24zM896 172q136 0 220 48q76 44 94 114t-16 138t-106 104q-108 52 -140 212q60 24 104 76q156 -84 308 -90t250 70t98 224q0 136 -52 220q-40 72 -110 92t-138 -14t-104 -110q-56 -104 -216 -136
q-24 60 -76 104q84 156 90 308t-70 248t-220 96q-136 0 -220 -48q-76 -44 -96 -114t14 -138t110 -104q104 -52 136 -208q-64 -28 -104 -80q-156 84 -308 90t-248 -70t-96 -224q0 -136 48 -220q44 -72 114 -92t138 14t104 110q52 104 212 136q24 -64 76 -104
q-84 -156 -90 -308t70 -248t224 -96zM1876 1108v-512h172v512h-172zM1876 1452v-172h172v172h-172z" />
</svg>
