<?xml version="1.0" standalone="no"?>
<!DOCTYPE svg PUBLIC "-//W3C//DTD SVG 1.1//EN" "http://www.w3.org/Graphics/SVG/1.1/DTD/svg11.dtd" >
<svg xmlns="http://www.w3.org/2000/svg" xmlns:xlink="http://www.w3.org/1999/xlink" version="1.1" width="2048" height="2048" viewBox="-10 0 2068 2048">
   <path fill="currentColor"
d="M1042 1687q0 -196 124 -351q-22 -58 -40 -89q58 -49 85 -116q80 13 142 53q125 -67 265.5 -67t269.5 72q9 -63 9 -116q0 -165 -107 -249.5t-276 -78t-343 100.5q-49 -58 -116 -85q36 -178 152 -236q84 -40 122 -115.5t15.5 -153.5t-102.5 -127q-93 -53 -245 -53
q-164 0 -249 106.5t-78 276t100 342.5q-58 45 -89 116q-173 -35 -231 -151q-45 -85 -118.5 -123t-151.5 -15.5t-127 102.5q-53 94 -53 245q0 165 107 249.5t274 78t345 -100.5q44 58 115 89q-35 174 -151 232q-85 40 -122.5 115.5t-15.5 153.5t102 127q94 53 245 53
q116 0 192 -53q-49 -116 -49 -232zM948 1117q-40 0 -66.5 -26.5t-26.5 -66.5t26.5 -66.5t66.5 -26.5t67 26.5t27 66.5t-27 66.5t-67 26.5zM1612 1705l302 -303l134 134l-436 436l-437 -436l138 -134z" />
</svg>
