<?xml version="1.0" standalone="no"?>
<!DOCTYPE svg PUBLIC "-//W3C//DTD SVG 1.1//EN" "http://www.w3.org/Graphics/SVG/1.1/DTD/svg11.dtd" >
<svg xmlns="http://www.w3.org/2000/svg" xmlns:xlink="http://www.w3.org/1999/xlink" version="1.1" width="2048" height="2048" viewBox="-10 0 2058 2048">
   <path fill="currentColor"
d="M1015 0q-198 0 -361.5 103.5t-257 274t-88.5 367.5t108 358t272 248q105 53 170 154t65 216v19q0 135 86.5 221.5t221.5 86.5q197 0 312 -163q111 -149 159 -457q38 -274 38 -712l-4 -77q-10 -91 -39 -177q-43 -121 -110 -212q-92 -115 -217 -178q-154 -72 -355 -72z
M1231 1846q-48 0 -77 -29t-29 -77v-19q0 -168 -91.5 -317t-244.5 -236q-125 -62 -197.5 -177.5t-81.5 -254.5q0 -101 38.5 -202t105.5 -175.5t161 -115.5t190 -41q226 0 360 115q101 87 145 231q29 87 29 168q0 471 -53 745q-39 226 -116 318q-57 67 -139 67zM1414 572
l-770 279q-29 -48 -29 -130t49 -202l533 -192q164 82 217 245zM1115 1341l289 -101q-10 159 -63 337l-134 53q0 -149 -92 -289zM1433 736q0 235 -10 331l-408 154q-97 -96 -188 -135q-58 -33 -111 -81z" />
</svg>
