<?xml version="1.0" standalone="no"?>
<!DOCTYPE svg PUBLIC "-//W3C//DTD SVG 1.1//EN" "http://www.w3.org/Graphics/SVG/1.1/DTD/svg11.dtd" >
<svg xmlns="http://www.w3.org/2000/svg" xmlns:xlink="http://www.w3.org/1999/xlink" version="1.1" width="2048" height="2048" viewBox="-10 0 2058 2048">
   <path fill="currentColor"
d="M1120 1655q0 -201 128 -361q-23 -60 -41 -92q59 -50 87 -119q82 14 146 55q128 -68 272 -68t277 73q9 -64 9 -119q0 -169 -110 -256t-283.5 -80t-351.5 103q-51 -60 -119 -87q36 -183 155 -242q87 -41 126 -119t16 -158t-105 -130q-96 -55 -252 -55q-169 0 -256 109.5
t-80 283.5t103 352q-59 46 -91 119q-179 -37 -238 -155q-46 -87 -121.5 -126t-155.5 -16t-130 105q-55 96 -55 251q0 170 110 256.5t281.5 80t353.5 -102.5q46 59 119 91q-36 178 -155 238q-87 41 -126 118.5t-16 157.5t105 131q96 54 252 54q119 0 196 -54
q-50 -119 -50 -238zM1024 1070q-41 0 -68.5 -27.5t-27.5 -68.5t27.5 -68.5t68.5 -27.5t68.5 27.5t27.5 68.5t-27.5 68.5t-68.5 27.5zM1513 1266v197h96v585h197v-782h-293z" />
</svg>
