<?xml version="1.0" standalone="no"?>
<!DOCTYPE svg PUBLIC "-//W3C//DTD SVG 1.1//EN" "http://www.w3.org/Graphics/SVG/1.1/DTD/svg11.dtd" >
<svg xmlns="http://www.w3.org/2000/svg" xmlns:xlink="http://www.w3.org/1999/xlink" version="1.1" width="2048" height="2048" viewBox="-10 0 2068 2048">
   <path fill="currentColor"
d="M1094 1693q0 -206 131 -370q-23 -61 -42 -93q61 -52 89 -122q84 14 149 56q131 -70 278.5 -70t283.5 75q9 -66 9 -122q0 -173 -112.5 -261.5t-290 -81.5t-359.5 105q-52 -61 -122 -89q38 -187 159 -248q89 -42 128.5 -121.5t16.5 -161t-107 -133.5q-99 -56 -258 -56
q-173 0 -261.5 112t-81.5 290t105 360q-61 47 -94 122q-182 -38 -243 -159q-47 -89 -124 -129t-158.5 -16.5t-133.5 107.5q-56 99 -56 258q0 173 112 261.5t287.5 81.5t362.5 -105q47 61 122 93q-38 183 -159 244q-89 42 -129 121.5t-16.5 161t107.5 133.5q99 56 258 56
q121 0 201 -56q-52 -122 -52 -243zM996 1094q-42 0 -70 -28t-28 -70t28 -70t70 -28t70 28t28 70t-28 70t-70 28zM2048 1482l-215 211l215 215l-140 140l-215 -215l-211 215l-140 -140l210 -215l-210 -211l140 -140l211 210l215 -210z" />
</svg>
