<?xml version="1.0" standalone="no"?>
<!DOCTYPE svg PUBLIC "-//W3C//DTD SVG 1.1//EN" "http://www.w3.org/Graphics/SVG/1.1/DTD/svg11.dtd" >
<svg xmlns="http://www.w3.org/2000/svg" xmlns:xlink="http://www.w3.org/1999/xlink" version="1.1" width="2048" height="2048" viewBox="-10 0 2068 2048">
   <path fill="currentColor"
d="M1070 1705q0 -201 128 -361q-23 -59 -41 -91q59 -51 86 -119q83 13 147 55q128 -69 272 -69t276 73q9 -64 9 -119q0 -169 -109.5 -256t-283 -80t-352.5 103q-50 -59 -119 -87q37 -183 156 -242q87 -41 125.5 -119t16 -158t-105.5 -130q-96 -55 -251 -55q-169 0 -256 110
t-80 283.5t103 351.5q-60 46 -92 119q-178 -36 -237 -155q-46 -87 -121.5 -126t-155.5 -16t-130 105q-55 96 -55 252q0 169 109.5 256t281 80t354.5 -103q46 59 119 91q-37 179 -155 238q-87 41 -126 119t-16 158t105 130q96 55 251 55q119 0 197 -55q-50 -119 -50 -238z
M974 1120q-41 0 -68.5 -27.5t-27.5 -68.5t27.5 -68.5t68.5 -27.5t68.5 27.5t27.5 68.5t-27.5 68.5t-68.5 27.5zM2048 1609v197h-782v-197h782z" />
</svg>
