<?xml version="1.0" standalone="no"?>
<!DOCTYPE svg PUBLIC "-//W3C//DTD SVG 1.1//EN" "http://www.w3.org/Graphics/SVG/1.1/DTD/svg11.dtd" >
<svg xmlns="http://www.w3.org/2000/svg" xmlns:xlink="http://www.w3.org/1999/xlink" version="1.1" width="2048" height="2048" viewBox="-10 0 2068 2048">
   <path fill="currentColor"
d="M1125 5v207q202 24 365.5 139t259.5 290.5t96 382.5q0 245 -134.5 447t-350.5 298l-236 -231v510h514l-125 -125q246 -130 390 -372.5t144 -526.5q0 -260 -122.5 -486t-331.5 -367.5t-469 -165.5zM923 0q-308 29 -548 226l144 144q178 -134 404 -168v-202zM226 375
q-197 240 -226 548h202q34 -226 168 -404zM409 615v202h307v106h-101q-86 0 -146 60t-60 142v308h514v-202h-308v-106h101q87 0 147 -60t60 -142v-106q0 -81 -60 -141.5t-147 -60.5h-307zM1024 615v510h308v308h206v-308h101v-202h-101v-308h-206v308h-101v-308h-207z
M0 1125q29 308 226 548l144 -144q-134 -178 -168 -404h-202zM524 1678l-149 144q240 197 548 226v-202q-226 -34 -399 -168z" />
</svg>
