<?xml version="1.0" standalone="no"?>
<!DOCTYPE svg PUBLIC "-//W3C//DTD SVG 1.1//EN" "http://www.w3.org/Graphics/SVG/1.1/DTD/svg11.dtd" >
<svg xmlns="http://www.w3.org/2000/svg" xmlns:xlink="http://www.w3.org/1999/xlink" version="1.1" width="2048" height="2048" viewBox="-10 0 2058 2048">
   <path fill="currentColor"
d="M1760 690q-26 54 -84 54h-279v1257q0 20 -13.5 33.5t-33.5 13.5h-1024q-14 0 -26 -7.5t-17 -19.5q-12 -28 6 -51l233 -279q15 -16 36 -16h466v-931h-279q-27 0 -50 -14.5t-35 -39.5q-11 -24 -7 -51t21 -48l465 -559q26 -32 71.5 -32t70.5 32l467 559q17 21 20.5 48
t-8.5 51z" />
</svg>
