<?xml version="1.0" standalone="no"?>
<!DOCTYPE svg PUBLIC "-//W3C//DTD SVG 1.1//EN" "http://www.w3.org/Graphics/SVG/1.1/DTD/svg11.dtd" >
<svg xmlns="http://www.w3.org/2000/svg" xmlns:xlink="http://www.w3.org/1999/xlink" version="1.1" width="2048" height="2048" viewBox="-10 0 2068 2048">
   <path fill="currentColor"
d="M1067 923q0 -5 -9 -19q-96 -135 -193 -226q-178 -168 -355 -168q-198 0 -356 173q-106 115 -154 240v202h981l9 19q97 135 193 226q178 168 355 168q198 0 356 -173q106 -115 154 -240v-202h-981zM510 716q163 0 307 207h-581q48 -91 101 -135q76 -72 173 -72zM1538 1332
q-163 0 -307 -207h581q-48 91 -101 135q-76 72 -173 72z" />
</svg>
