<?xml version="1.0" standalone="no"?>
<!DOCTYPE svg PUBLIC "-//W3C//DTD SVG 1.1//EN" "http://www.w3.org/Graphics/SVG/1.1/DTD/svg11.dtd" >
<svg xmlns="http://www.w3.org/2000/svg" xmlns:xlink="http://www.w3.org/1999/xlink" version="1.1" width="2048" height="2048" viewBox="-10 0 2058 2048">
   <path fill="currentColor"
d="M715 1123l-408 307q-72 63 -96 154q-19 77 -7 156t67.5 158.5t136.5 117.5q115 48 225.5 24t187.5 -106l917 -811q91 -67 103 -163t-45.5 -170.5t-158.5 -74.5h-614l763 -451q67 -43 62 -125q-5 -57 -45.5 -98t-103.5 -41h-4q-53 0 -101 29l-1287 686q-62 34 -86 86.5
t-19 120.5q5 81 60 141t146 60h307zM307 1690q0 -106 74.5 -183t180 -77t180 77t74.5 182.5t-74.5 180t-180 74.5t-180 -74.5t-74.5 -179.5z" />
</svg>
