<?xml version="1.0" standalone="no"?>
<!DOCTYPE svg PUBLIC "-//W3C//DTD SVG 1.1//EN" "http://www.w3.org/Graphics/SVG/1.1/DTD/svg11.dtd" >
<svg xmlns="http://www.w3.org/2000/svg" xmlns:xlink="http://www.w3.org/1999/xlink" version="1.1" width="2048" height="2048" viewBox="-10 0 2058 2048">
   <path fill="currentColor"
d="M326 0h1024q20 0 33.5 14t13.5 34v1256h279q27 0 49 14.5t35 38.5q12 25 8.5 52t-21.5 49l-466 558q-26 32 -71.5 32t-70.5 -32l-465 -558q-17 -21 -21 -48.5t7 -52.5q13 -24 35.5 -38.5t49.5 -14.5h279v-931h-466q-19 0 -35 -17l-233 -278q-20 -22 -7 -50q6 -12 18 -20
t25 -8z" />
</svg>
