<?xml version="1.0" standalone="no"?>
<!DOCTYPE svg PUBLIC "-//W3C//DTD SVG 1.1//EN" "http://www.w3.org/Graphics/SVG/1.1/DTD/svg11.dtd" >
<svg xmlns="http://www.w3.org/2000/svg" xmlns:xlink="http://www.w3.org/1999/xlink" version="1.1" width="2048" height="2048" viewBox="-10 0 2068 2048">
   <path fill="currentColor"
d="M914 1561l819 -819q25 -25 25 -59t-25 -60l-137 -136q-25 -26 -59.5 -26t-60.5 26l-623 623l-281 -281q-26 -26 -60.5 -26t-59.5 26l-136 135q-25 25 -25 60t25 60l478 477q25 26 59.5 26t60.5 -26zM2048 384v1280q0 105 -51.5 193t-139.5 139.5t-193 51.5h-1280
q-105 0 -193 -51.5t-139.5 -139.5t-51.5 -193v-1280q0 -105 51.5 -193t139.5 -139.5t193 -51.5h1280q105 0 193 51.5t139.5 139.5t51.5 193z" />
</svg>
