<?xml version="1.0" standalone="no"?>
<!DOCTYPE svg PUBLIC "-//W3C//DTD SVG 1.1//EN" "http://www.w3.org/Graphics/SVG/1.1/DTD/svg11.dtd" >
<svg xmlns="http://www.w3.org/2000/svg" xmlns:xlink="http://www.w3.org/1999/xlink" version="1.1" width="2048" height="2048" viewBox="-10 0 2068 2048">
   <path fill="currentColor"
d="M172 0q-72 0 -122 50t-50 122v340h172v-340h340v-172h-340zM1536 0v172h340v340h172v-340q0 -72 -50 -122t-122 -50h-340zM812 1108q-52 0 -90 -38t-38 -88t38 -90t88 -40t90 40t40 90t-40 88t-88 38zM940 1280l84 -172l84 172h-168zM1236 1108q-48 0 -88 -38t-40 -88
t40 -90t90 -40t88 40t38 90t-38 88t-90 38zM0 1536v340q0 72 50 122t122 50h340v-172h-340v-340h-172zM1876 1536v340h-340v172h340q72 0 122 -50t50 -122v-340h-172zM1024 256q-184 0 -342 92t-250 250t-92 342q0 124 46 242t126 210v400h1024v-400q172 -200 172 -452
q0 -184 -92 -342t-250 -250t-342 -92zM1364 1316v304h-168v-168h-88v168h-168v-168h-88v168h-168v-304q-80 -76 -126 -174t-46 -202q0 -140 70 -258t186 -186t256 -68t256 68t186 186t70 258q0 108 -46 204t-126 172z" />
</svg>
