<?xml version="1.0" standalone="no"?>
<!DOCTYPE svg PUBLIC "-//W3C//DTD SVG 1.1//EN" "http://www.w3.org/Graphics/SVG/1.1/DTD/svg11.dtd" >
<svg xmlns="http://www.w3.org/2000/svg" xmlns:xlink="http://www.w3.org/1999/xlink" version="1.1" width="2048" height="2048" viewBox="-10 0 2068 2048">
   <path fill="currentColor"
d="M1819 0h-1590q-96 0 -162.5 66.5t-66.5 162.5v1590q0 96 66.5 162.5t162.5 66.5h1590q96 0 162.5 -66.5t66.5 -162.5v-1590q0 -96 -66.5 -162.5t-162.5 -66.5zM1605 1136h-469v117h459l-11 86q-11 101 -43 165q-48 91 -117 91q-53 0 -91 -32q-21 -16 -50.5 -67t-50.5 -72
q-37 -43 -96 -59v230q0 42 -32 77t-80 35t-80 -35t-32 -77v-230q-59 16 -96 59q-21 21 -50.5 72t-50.5 67q-38 32 -91 32q-101 0 -144 -171q-21 -85 -27 -171h459v-117h-469l-11 -112h480v-112h-480q5 -48 21 -117h459v-112h-416l5 -11q32 -69 48 -101h363v-118
q0 -42 32 -77t80 -35t80 35t32 77v118h363q16 32 48 101l5 11h-416v112h459q16 64 21 117h-480v112h480z" />
</svg>
