<?xml version="1.0" standalone="no"?>
<!DOCTYPE svg PUBLIC "-//W3C//DTD SVG 1.1//EN" "http://www.w3.org/Graphics/SVG/1.1/DTD/svg11.dtd" >
<svg xmlns="http://www.w3.org/2000/svg" xmlns:xlink="http://www.w3.org/1999/xlink" version="1.1" width="2048" height="2048" viewBox="-10 0 2068 2048">
   <path fill="currentColor"
d="M1146 224l-327 323l66 65l130 -126l101 100v214q0 78 -54.5 132.5t-129.5 54.5h-52q144 157 144 370q0 48 -9 92h292q18 -157 135.5 -264t278.5 -107q127 0 231 70v-440q0 -78 -54.5 -132.5t-128.5 -54.5h-588l-100 -101l130 -130zM279 612q-35 0 -63.5 28.5t-28.5 65.5
t28.5 65.5t63.5 28.5h466q0 -79 -54.5 -133.5t-132.5 -54.5h-279zM466 891q-74 0 -144 26l31 87l-44 13l-30 -82q-153 65 -227 213l83 39l-17 40l-83 -35q-35 78 -35 165q0 74 26 144l87 -30l13 43l-82 31q65 152 213 226l35 -82l44 17l-35 83q78 35 165 35q74 0 144 -27
l-30 -87l43 -13l31 83q152 -65 226 -213l-83 -35l18 -44l83 35q34 -79 34 -166q0 -74 -26 -143l-87 30l-13 -44l83 -30q-65 -153 -214 -227l-34 83l-44 -17l35 -83q-79 -35 -166 -35zM466 1078q118 0 198.5 81t80.5 198.5t-80.5 198t-198 80.5t-198.5 -80.5t-81 -198
t81 -198.5t198 -81zM1721 1170q-135 0 -231 96t-96 231t96 231t231 96t231 -96t96 -231t-96 -231t-231 -96zM1721 1357q57 0 98.5 41.5t41.5 98t-41.5 98t-98 41.5t-98 -41.5t-41.5 -98t41.5 -98t97.5 -41.5z" />
</svg>
