<?xml version="1.0" standalone="no"?>
<!DOCTYPE svg PUBLIC "-//W3C//DTD SVG 1.1//EN" "http://www.w3.org/Graphics/SVG/1.1/DTD/svg11.dtd" >
<svg xmlns="http://www.w3.org/2000/svg" xmlns:xlink="http://www.w3.org/1999/xlink" version="1.1" width="2048" height="2048" viewBox="-10 0 2058 2048">
   <path fill="currentColor"
d="M594 1669q0 71 -48 116.5t-116.5 45.5t-114 -45.5t-45.5 -114t45.5 -116.5t114 -48t116.5 48t48 114zM1671 384q-15 -167 -131.5 -275.5t-273.5 -108.5h-581q-152 0 -268 108.5t-132 270.5l-15 117q-10 60 30.5 105.5t96 45.5t93.5 -35.5t43 -85.5l15 -116
q5 -61 45.5 -101.5t91.5 -40.5h581q51 0 91.5 40.5t45.5 101.5l106 1193q5 71 -35.5 124t-100.5 53l-562 -76q-15 157 -131 258l662 86h31q86 0 161.5 -35.5t134 -98.5t88.5 -151.5t20 -184.5zM988 637q-50 -30 -103 -17.5t-84 63.5l-384 612h15q137 0 248 91l349 -562
q30 -45 17.5 -101t-58.5 -86z" />
</svg>
