<?xml version="1.0" standalone="no"?>
<!DOCTYPE svg PUBLIC "-//W3C//DTD SVG 1.1//EN" "http://www.w3.org/Graphics/SVG/1.1/DTD/svg11.dtd" >
<svg xmlns="http://www.w3.org/2000/svg" xmlns:xlink="http://www.w3.org/1999/xlink" version="1.1" width="2048" height="2048" viewBox="-10 0 2058 2048">
   <path fill="currentColor"
d="M1024 1118q-205 0 -328 70q-87 52 -117 135q74 35 120 105t46 153q0 118 -81 198.5t-196.5 80.5t-198.5 -80.5t-83 -198.5q0 -88 52 -160t135 -102v-778q-83 -30 -135 -102t-52 -160q0 -117 83 -198t198.5 -81t196.5 81t81 198q0 88 -50.5 160t-133.5 102v494
q140 -105 371 -105q166 0 262 -74q70 -53 96 -135q-74 -31 -122 -101t-48 -157q0 -114 81 -197t196.5 -83t198.5 83t83 197q0 96 -54.5 170t-141.5 96q-27 149 -110 245q-122 144 -349 144zM465 1489q-35 0 -63.5 28.5t-28.5 65.5t28.5 65.5t65.5 28.5t65.5 -28.5
t28.5 -65.5t-28.5 -65.5t-67.5 -28.5zM465 183q-35 0 -63.5 28.5t-28.5 65.5t28.5 65.5t65.5 28.5t65.5 -28.5t28.5 -65.5t-28.5 -65.5t-67.5 -28.5zM1400 371q-40 0 -68.5 28.5t-28.5 65.5t28.5 65.5t65.5 28.5t65.5 -28.5t28.5 -65.5t-28.5 -65.5t-62.5 -28.5zM1491 1022
v140q153 0 262 109t109 266q0 109 -61 205l-100 -100q22 -53 22 -105q0 -96 -68 -166t-164 -70v140l-209 -210zM1491 2048v-140q-153 0 -262 -109t-109 -262q0 -113 61 -205l101 100q-22 48 -22 105q0 96 67.5 164t163.5 68v-140l210 214q-18 17 -210 205z" />
</svg>
