<?xml version="1.0" standalone="no"?>
<!DOCTYPE svg PUBLIC "-//W3C//DTD SVG 1.1//EN" "http://www.w3.org/Graphics/SVG/1.1/DTD/svg11.dtd" >
<svg xmlns="http://www.w3.org/2000/svg" xmlns:xlink="http://www.w3.org/1999/xlink" version="1.1" width="2048" height="2048" viewBox="-10 0 2068 2048">
   <path fill="currentColor"
d="M255 1531l110 111l-235 231q-24 24 -55.5 24t-53 -22t-21.5 -55.5t19 -52.5zM1668 300v-149l-644 649l-644 -649v149l572 573l-390 389q-91 -67 -204 -57.5t-195 91.5l438 432q82 -77 89 -190t-55 -204zM2029 1767l-236 -236l-110 111l235 231q24 24 55.5 24t53 -22
t21.5 -55.5t-19 -52.5zM1486 1262l-318 -317l-72 72l317 317q-62 91 -55 204t89 190l438 -432q-82 -82 -195 -91.5t-204 57.5z" />
</svg>
