<?xml version="1.0" standalone="no"?>
<!DOCTYPE svg PUBLIC "-//W3C//DTD SVG 1.1//EN" "http://www.w3.org/Graphics/SVG/1.1/DTD/svg11.dtd" >
<svg xmlns="http://www.w3.org/2000/svg" xmlns:xlink="http://www.w3.org/1999/xlink" version="1.1" width="2048" height="2048" viewBox="-10 0 2058 2048">
   <path fill="currentColor"
d="M1046 1231q-226 0 -361 77q-96 57 -130 149q82 38 132.5 115t50.5 168q0 130 -89 219t-216.5 89t-218.5 -89t-91 -219q0 -96 57.5 -175t148.5 -113v-856q-91 -34 -148.5 -113t-57.5 -175q0 -130 91 -219t218.5 -89t216.5 89t89 219q0 96 -55.5 175t-146.5 113v543
q154 -115 409 -115q182 0 288 -82q77 -57 106 -149q-82 -33 -135 -110t-53 -173q0 -125 89 -216.5t216.5 -91.5t219 91.5t91.5 216.5q0 105 -60 187t-157 106q-28 163 -120 269q-134 159 -384 159zM430 1639q-38 0 -69.5 31.5t-31.5 72.5t31.5 72t72.5 31t72 -31t31 -72
t-31 -72.5t-75 -31.5zM430 202q-38 0 -69.5 31t-31.5 72t31.5 72.5t72.5 31.5t72 -31.5t31 -72.5t-31 -72t-75 -31zM1459 409q-43 0 -74.5 31t-31.5 72t31.5 72t72.5 31t72 -31t31 -72t-31 -72t-70 -31zM1776 1274l-216 221l-216 -216l-145 144l217 216l-217 217l145 149
l216 -221l216 221l149 -149l-221 -217l221 -216z" />
</svg>
