<?xml version="1.0" standalone="no"?>
<!DOCTYPE svg PUBLIC "-//W3C//DTD SVG 1.1//EN" "http://www.w3.org/Graphics/SVG/1.1/DTD/svg11.dtd" >
<svg xmlns="http://www.w3.org/2000/svg" xmlns:xlink="http://www.w3.org/1999/xlink" version="1.1" width="2048" height="2048" viewBox="-10 0 2068 2048">
   <path fill="currentColor"
d="M1074 1815q-27 -78 -93.5 -126t-153.5 -48q-109 0 -187 75.5t-78 185.5v146h-370q-78 0 -135 -57t-57 -135v-370h146q110 0 185.5 -78t75.5 -187.5t-75.5 -187.5t-185.5 -78h-146v-370q0 -78 57 -135t135 -57h393v-146q0 -101 71 -174t171.5 -73t171.5 73t71 174v146h393
q78 0 135 57t57 135v393h146q101 0 174 71t73 172q0 45 -18 86q-165 -137 -375 -137q-156 0 -290.5 80t-214.5 215t-80 290q0 42 4 60zM1266 1659v197h782v-197h-782z" />
</svg>
