<?xml version="1.0" standalone="no"?>
<!DOCTYPE svg PUBLIC "-//W3C//DTD SVG 1.1//EN" "http://www.w3.org/Graphics/SVG/1.1/DTD/svg11.dtd" >
<svg xmlns="http://www.w3.org/2000/svg" xmlns:xlink="http://www.w3.org/1999/xlink" version="1.1" width="2048" height="2048" viewBox="-10 0 2068 2048">
   <path fill="currentColor"
d="M1869 1038q-23 0 -37 14l-102 101l203 198l97 -97q18 -14 18 -37t-18 -37l-125 -128q-18 -14 -36 -14zM1675 1208l-598 594v202h202l599 -593zM888 1719q-18 -9 -55 -9q-110 0 -188.5 78t-78.5 189v27h-373q-78 0 -135.5 -57.5t-57.5 -135.5v-373h28q110 0 188.5 -78
t78.5 -188.5t-78.5 -189t-188.5 -78.5h-28v-372q0 -79 57.5 -136.5t135.5 -57.5h299q19 -129 115.5 -211.5t225.5 -82.5t225.5 82.5t115.5 211.5h299q78 0 135.5 57.5t57.5 136.5v299q46 9 101 32q-50 28 -78 51l-106 110h-110v-492h-493v-148q0 -60 -43.5 -103.5
t-103.5 -43.5t-103.5 43.5t-43.5 103.5v148h-493v211q134 51 214.5 166t80.5 262.5t-80.5 262.5t-214.5 165v212h212q51 -133 166 -214t262 -81q115 0 207 46z" />
</svg>
