<?xml version="1.0" standalone="no"?>
<!DOCTYPE svg PUBLIC "-//W3C//DTD SVG 1.1//EN" "http://www.w3.org/Graphics/SVG/1.1/DTD/svg11.dtd" >
<svg xmlns="http://www.w3.org/2000/svg" xmlns:xlink="http://www.w3.org/1999/xlink" version="1.1" width="2048" height="2048" viewBox="-10 0 2068 2048">
   <path fill="currentColor"
d="M1341 1298l469 -469q25 -26 25 -60.5t-25 -60.5l-469 -470q-18 -19 -44 -24t-48 5q-24 10 -39 32t-15 48v213q-125 0 -231 16t-185.5 43t-144.5 67.5t-110 85t-78.5 101t-53 110t-31 116.5t-15.5 116t-4 113q0 73 22 154.5t49 140t64.5 119.5t53.5 83t31 41q1 1 2 1
q13 15 33 15q9 0 18 -3q13 -5 20 -17.5t6 -26.5q-30 -241 -10.5 -395t91.5 -236q62 -69 174 -100t299 -31v212q0 26 15 48t39 31q18 7 31 7q35 0 61 -25zM2048 384v1280q0 105 -51.5 193t-139.5 139.5t-193 51.5h-1280q-105 0 -193 -51.5t-139.5 -139.5t-51.5 -193v-1280
q0 -105 51.5 -193t139.5 -139.5t193 -51.5h1280q105 0 193 51.5t139.5 139.5t51.5 193z" />
</svg>
