<?xml version="1.0" standalone="no"?>
<!DOCTYPE svg PUBLIC "-//W3C//DTD SVG 1.1//EN" "http://www.w3.org/Graphics/SVG/1.1/DTD/svg11.dtd" >
<svg xmlns="http://www.w3.org/2000/svg" xmlns:xlink="http://www.w3.org/1999/xlink" version="1.1" width="2048" height="2048" viewBox="-10 0 2068 2048">
   <path fill="currentColor"
d="M1147 2048l-166 -386q228 -86 447 -233zM386 1067l-386 -167l619 -281q-148 219 -233 448zM1766 200q53 0 77 5q19 152 -39 314q-76 234 -299 453q-258 261 -610 395l-219 -214q143 -358 400 -610q190 -190 390 -276q153 -67 300 -67zM1766 0q-185 0 -371 77
q-238 100 -462 323q-281 276 -443 681q-23 57 -9 114.5t57 99.5l214 215q62 62 143 62q33 0 72 -15q390 -147 680 -443q162 -157 262 -333q81 -143 115 -295q28 -119 23 -233q0 -86 -19 -157l-19 -58l-66 -19q-81 -19 -177 -19zM1290 757q-57 -62 -57 -145t59.5 -142.5
t143 -59.5t143 59.5t59.5 142.5t-59.5 143t-143 60t-145.5 -58zM714 1476l-143 -143zM448 2029l371 -367q-52 -14 -100 -48l-414 415h143zM19 2029h143l486 -481l-148 -143l-481 481v143zM19 1743l414 -414q-33 -48 -47 -100l-367 371v143z" />
</svg>
