<?xml version="1.0" standalone="no"?>
<!DOCTYPE svg PUBLIC "-//W3C//DTD SVG 1.1//EN" "http://www.w3.org/Graphics/SVG/1.1/DTD/svg11.dtd" >
<svg xmlns="http://www.w3.org/2000/svg" xmlns:xlink="http://www.w3.org/1999/xlink" version="1.1" width="2048" height="2048" viewBox="-10 0 2068 2048">
   <path fill="currentColor"
d="M1118 1992v-28q0 -112 -79.5 -191.5t-192 -79.5t-192 79.5t-79.5 191.5v28h-379q-79 0 -137.5 -58.5t-58.5 -137.5v-379h28q112 0 191.5 -79.5t79.5 -192t-79.5 -192t-191.5 -79.5h-28v-378q0 -80 58.5 -138.5t137.5 -58.5h304q19 -131 117 -215t229 -84t229.5 84
t116.5 215h304q80 0 138.5 58.5t58.5 138.5v304q131 18 215 116.5t84 229.5v28q-94 -52 -206 -71q-14 -46 -53.5 -76.5t-86.5 -30.5h-150v-500h-500v-150q0 -61 -44.5 -105.5t-105 -44.5t-105 44.5t-44.5 105.5v150h-501v215q136 51 218 168t82 266.5t-82 266.5t-218 168
v216h215q52 -136 169 -218t262 -82t266 80q-14 56 -14 117q0 163 84 299h-60zM1908 1342l-215 210l-211 -210l-140 140l210 211l-210 215l140 140l211 -215l215 215l140 -140l-215 -215l215 -211z" />
</svg>
