<?xml version="1.0" standalone="no"?>
<!DOCTYPE svg PUBLIC "-//W3C//DTD SVG 1.1//EN" "http://www.w3.org/Graphics/SVG/1.1/DTD/svg11.dtd" >
<svg xmlns="http://www.w3.org/2000/svg" xmlns:xlink="http://www.w3.org/1999/xlink" version="1.1" width="2048" height="2048" viewBox="-10 0 2068 2048">
   <path fill="currentColor"
d="M1093 1982v-28q0 -109 -78 -187t-187.5 -78t-187.5 78t-78 187v28h-370q-78 0 -135 -57.5t-57 -134.5v-371h27q110 0 188 -77.5t78 -187t-78 -187.5t-188 -78h-27v-370q0 -78 57 -135t135 -57h297q18 -128 114 -210.5t224 -82.5t224 82.5t115 210.5h297q78 0 135 57
t57 135v297q110 18 187.5 89t95.5 176q-132 -73 -283 -73h-192v-489h-489v-146q0 -60 -43.5 -103.5t-103 -43.5t-103 43.5t-43.5 103.5v146h-489v210q133 50 213 164.5t80 261t-80 260.5t-213 164v211h210q51 -133 165 -213t260 -80q133 0 243 69v27q0 224 151 389h-128z
M1655 2014l59 -51l46 -41q155 -151 206 -215q82 -100 82 -194t-64 -153t-151 -59q-55 0 -100.5 20.5t-77.5 56.5q-28 -36 -76 -56.5t-98 -20.5q-87 0 -151 64t-64 153t78 189q55 64 210 215l46 41z" />
</svg>
