<?xml version="1.0" standalone="no"?>
<!DOCTYPE svg PUBLIC "-//W3C//DTD SVG 1.1//EN" "http://www.w3.org/Graphics/SVG/1.1/DTD/svg11.dtd" >
<svg xmlns="http://www.w3.org/2000/svg" xmlns:xlink="http://www.w3.org/1999/xlink" version="1.1" width="2048" height="2048" viewBox="-10 0 2068 2048">
   <path fill="currentColor"
d="M1147 2048l-166 -386q228 -85 447 -233zM386 1067l-386 -166l619 -281q-148 219 -233 447zM2009 39q-28 -10 -57 -19q-71 -19 -157 -19q-114 -5 -233 23q-153 34 -296 115q-176 100 -333 262q-281 276 -443 680q-23 58 -9 115t57 100l214 214q43 43 100 57t115 -9
q390 -148 680 -443q162 -157 262 -333q81 -143 115 -296q28 -119 23 -233q0 -86 -19 -157zM1290 758q-57 -62 -57 -145.5t59.5 -143t143 -59.5t143 59.5t59.5 143t-59.5 143t-143 59.5t-145.5 -57zM714 1477l-143 -143zM448 2029l371 -367q-52 -14 -100 -47l-414 414h143z
M19 2029h143l486 -481l-148 -143l-481 481v143zM19 1743l414 -414q-33 -48 -47 -100l-367 371v143z" />
</svg>
