<?xml version="1.0" standalone="no"?>
<!DOCTYPE svg PUBLIC "-//W3C//DTD SVG 1.1//EN" "http://www.w3.org/Graphics/SVG/1.1/DTD/svg11.dtd" >
<svg xmlns="http://www.w3.org/2000/svg" xmlns:xlink="http://www.w3.org/1999/xlink" version="1.1" width="2048" height="2048" viewBox="-10 0 2058 2048">
   <path fill="currentColor"
d="M1073 1768q-27 -76 -91.5 -123t-148.5 -47q-107 0 -183 73.5t-76 180.5v143h-360q-76 0 -131.5 -56t-55.5 -131v-361h142q107 0 180.5 -75.5t73.5 -182.5t-73.5 -182.5t-180.5 -75.5h-142v-361q0 -76 55.5 -131.5t131.5 -55.5h383v-143q0 -98 69 -169t167 -71t167 71
t69 169v143h382q76 0 131.5 55.5t55.5 131.5v383h143q98 0 169 69t71 167q0 44 -18 84q-160 -133 -365 -133q-151 0 -282.5 78t-209 209t-77.5 283q0 40 4 58zM1843 1376l-205 200l-200 -200l-134 133l201 201l-201 204l134 134l200 -205l205 205l134 -134l-205 -204
l205 -201z" />
</svg>
