<?xml version="1.0" standalone="no"?>
<!DOCTYPE svg PUBLIC "-//W3C//DTD SVG 1.1//EN" "http://www.w3.org/Graphics/SVG/1.1/DTD/svg11.dtd" >
<svg xmlns="http://www.w3.org/2000/svg" xmlns:xlink="http://www.w3.org/1999/xlink" version="1.1" width="2048" height="2048" viewBox="-10 0 2058 2048">
   <path fill="currentColor"
d="M1645 2048l-54 -50l-45 -40q-153 -149 -207 -212q-76 -99 -76 -186.5t63 -150.5t148 -63q50 0 97 20t74 56q32 -36 77 -56t99 -20q85 0 148 58.5t63 150.5t-81 191q-49 63 -202 212l-45 40zM1789 963h-144v-387q0 -76 -56 -132.5t-133 -56.5h-387v-144q0 -99 -70 -171
t-169 -72t-168.5 72t-69.5 171v144h-387q-77 0 -133 56.5t-56 132.5v365h144q108 0 182 76.5t74 184.5t-74 184.5t-182 76.5h-144v364q0 77 56 133t133 56h364v-144q0 -108 76.5 -182t184.5 -74q68 0 124 29t93 83h31q-9 -54 -9 -94q0 -158 79 -290.5t211.5 -209
t285.5 -76.5q221 0 387 148v-4q0 -99 -72 -169t-171 -70z" />
</svg>
