<?xml version="1.0" standalone="no"?>
<!DOCTYPE svg PUBLIC "-//W3C//DTD SVG 1.1//EN" "http://www.w3.org/Graphics/SVG/1.1/DTD/svg11.dtd" >
<svg xmlns="http://www.w3.org/2000/svg" xmlns:xlink="http://www.w3.org/1999/xlink" version="1.1" width="2048" height="2048" viewBox="-10 0 2068 2048">
   <path fill="currentColor"
d="M1024 0q-82 0 -144 58l-822 822q-58 57 -58 144t58 144l822 822q57 58 144 58t144 -58l822 -822q58 -57 58 -144t-58 -144l-822 -822q-62 -58 -144 -58zM1024 202l337 341l-337 337l-337 -337zM543 687l337 337l-337 337l-341 -337zM1505 687l341 337l-341 337l-337 -337
zM1024 1168l337 337l-337 341l-337 -341z" />
</svg>
