<?xml version="1.0" standalone="no"?>
<!DOCTYPE svg PUBLIC "-//W3C//DTD SVG 1.1//EN" "http://www.w3.org/Graphics/SVG/1.1/DTD/svg11.dtd" >
<svg xmlns="http://www.w3.org/2000/svg" xmlns:xlink="http://www.w3.org/1999/xlink" version="1.1" width="2048" height="2048" viewBox="-10 0 2068 2048">
   <path fill="currentColor"
d="M1093 1947v-27q0 -110 -78 -187.5t-187.5 -77.5t-187.5 77.5t-78 187.5v27h-370q-78 0 -135 -57t-57 -135v-370h27q110 0 188 -77.5t78 -187.5t-78 -187.5t-188 -77.5h-27v-370q0 -78 57 -135t135 -57h297q18 -128 114 -210.5t224 -82.5t224 82.5t115 210.5h297
q78 0 135 57t57 135v297q128 18 210 114t82 224v27q-91 -50 -201 -68q-13 -46 -52 -75.5t-85 -29.5h-146v-489h-489v-147q0 -59 -43.5 -102.5t-103 -43.5t-103 43.5t-43.5 102.5v147h-489v210q133 50 213 164.5t80 260.5t-80 260.5t-213 164.5v210h210q51 -132 165 -212
t256 -80t260 78q-13 54 -13 114q0 160 82 292h-59zM1559 1266v293h-293v196h293v293h196v-293h293v-196h-293v-293h-196z" />
</svg>
