<?xml version="1.0" standalone="no"?>
<!DOCTYPE svg PUBLIC "-//W3C//DTD SVG 1.1//EN" "http://www.w3.org/Graphics/SVG/1.1/DTD/svg11.dtd" >
<svg xmlns="http://www.w3.org/2000/svg" xmlns:xlink="http://www.w3.org/1999/xlink" version="1.1" width="2048" height="2048" viewBox="-10 0 2068 2048">
   <path fill="currentColor"
d="M1077 817q0 -125 -91.5 -216t-219 -91t-216 91t-88.5 218.5t88.5 216.5t216 89t219 -89t91.5 -219zM769 923q-43 0 -74.5 -31t-31.5 -74.5t31.5 -72.5t74.5 -29t72 29t29 72.5t-29 74.5t-72 31zM1433 1125q86 0 146 -60t60 -144t-60 -144.5t-144 -60.5t-144 60.5
t-60 144.5t60 144t142 60zM1024 0q-279 0 -514.5 137t-372.5 372.5t-137 514.5t137 514.5t372.5 372.5t514.5 137t514.5 -137t372.5 -372.5t137 -514.5t-137 -514.5t-372.5 -372.5t-514.5 -137zM394 1548q53 -43 163.5 -79t211.5 -36h24q44 -111 135 -188q-87 -14 -159 -14
q-115 0 -240 33q-149 39 -245 111q-82 -168 -82 -351q0 -221 110.5 -411t300.5 -300.5t411 -110.5t411 110.5t300.5 300.5t110.5 411q0 178 -77 346q-72 -43 -173 -67q-86 -24 -163 -24q-87 0 -188 29q-115 33 -187 91q-87 67 -87 159v283q-168 -9 -319.5 -86t-257.5 -207z
" />
</svg>
