<?xml version="1.0" standalone="no"?>
<!DOCTYPE svg PUBLIC "-//W3C//DTD SVG 1.1//EN" "http://www.w3.org/Graphics/SVG/1.1/DTD/svg11.dtd" >
<svg xmlns="http://www.w3.org/2000/svg" xmlns:xlink="http://www.w3.org/1999/xlink" version="1.1" width="2048" height="2048" viewBox="-10 0 2068 2048">
   <path fill="currentColor"
d="M2048 1925l-1925 -1925l-123 123l375 375l-160 14l174 370q22 -123 82 -224q4 -9 14 -23l13 -13l137 141q-64 110 -64 240.5t66.5 242.5t178.5 178t242.5 66t239.5 -64l627 622zM1061 1294q-124 0 -208.5 -84.5t-84.5 -208.5q0 -41 18 -91l366 365q-50 19 -91 19z
M1650 658q-59 -105 -151 -178l407 32l-173 370q-23 -119 -83 -224zM1061 512q132 0 244 66.5t178.5 178.5t66.5 244q0 69 -28 151l-169 -174q-9 -105 -86.5 -182.5t-183.5 -86.5l-173 -170q82 -27 151 -27zM1061 320q-119 0 -234 41l234 -334l233 334q-115 -41 -233 -41z
M1733 1120l169 370l-37 5l-196 -197q45 -96 64 -178zM1061 1682q114 0 233 -41l-233 334l-234 -334q115 41 234 41zM471 1344q59 101 151 183l-403 -37l170 -370q22 119 82 224z" />
</svg>
