<?xml version="1.0" standalone="no"?>
<!DOCTYPE svg PUBLIC "-//W3C//DTD SVG 1.1//EN" "http://www.w3.org/Graphics/SVG/1.1/DTD/svg11.dtd" >
<svg xmlns="http://www.w3.org/2000/svg" xmlns:xlink="http://www.w3.org/1999/xlink" version="1.1" width="2048" height="2048" viewBox="-10 0 2058 2048">
   <path fill="currentColor"
d="M1740 308h-307q0 -130 -120.5 -219t-288.5 -89t-288.5 89t-120.5 219h-307q-44 0 -75 28.5t-31 72t31 72.5t75 29v721q0 81 60 141.5t142 60.5h1028q82 0 142 -60.5t60 -141.5v-721q44 0 75 -29t31 -72.5t-31 -72t-75 -28.5zM1538 1231h-1028v-721h1028v721zM1418 615
q15 58 15 101q0 169 -120.5 289t-288.5 120t-288.5 -120t-120.5 -289q0 -43 15 -101h216q-29 48 -29 101q0 87 60 147t147 60t147 -60t60 -147q0 -53 -29 -101h216zM1846 1740v308h-1644v-308q0 -110 125 -202h697q-130 0 -279 34q-134 34 -230.5 84.5t-105.5 83.5v106h1230
v-106q-9 -33 -105.5 -83.5t-230.5 -84.5q-149 -34 -279 -34h697q125 92 125 202z" />
</svg>
