<?xml version="1.0" standalone="no"?>
<!DOCTYPE svg PUBLIC "-//W3C//DTD SVG 1.1//EN" "http://www.w3.org/Graphics/SVG/1.1/DTD/svg11.dtd" >
<svg xmlns="http://www.w3.org/2000/svg" xmlns:xlink="http://www.w3.org/1999/xlink" version="1.1" width="2048" height="2048" viewBox="-10 0 2058 2048">
   <path fill="currentColor"
d="M1623 1253l201 201l-594 594h-201v-201zM1815 1083q18 0 36 19l124 123q18 14 18 37t-18 36l-96 101l-201 -201l100 -96q14 -19 37 -19zM1810 681h-585v681l-196 197v-197h-192v585h-197v-1266h-585v-196h1755v196zM933 0q82 0 139 57t57 137t-57 137.5t-139.5 57.5
t-139.5 -57.5t-57 -137.5t57 -137t140 -57z" />
</svg>
