<?xml version="1.0" standalone="no"?>
<!DOCTYPE svg PUBLIC "-//W3C//DTD SVG 1.1//EN" "http://www.w3.org/Graphics/SVG/1.1/DTD/svg11.dtd" >
<svg xmlns="http://www.w3.org/2000/svg" xmlns:xlink="http://www.w3.org/1999/xlink" version="1.1" width="2048" height="2048" viewBox="-10 0 2068 2048">
   <path fill="currentColor"
d="M1639 1332q63 0 108.5 43t45.5 108t-45.5 110.5t-108 45.5t-108 -45.5t-45.5 -110.5t45.5 -108t107.5 -43zM1639 1178q-129 0 -218 89t-89 216.5t89 218.5t218.5 91t218.5 -91t89 -218.5t-89 -216.5t-219 -89zM510 562l-202 -307h-308v202h317l298 442v894h202l265 -514
h202q57 -96 151 -151.5t204 -55.5q135 0 241 82l168 -592h-1538zM755 1687h-39v-634l92 134q57 87 158 92z" />
</svg>
