<?xml version="1.0" standalone="no"?>
<!DOCTYPE svg PUBLIC "-//W3C//DTD SVG 1.1//EN" "http://www.w3.org/Graphics/SVG/1.1/DTD/svg11.dtd" >
<svg xmlns="http://www.w3.org/2000/svg" xmlns:xlink="http://www.w3.org/1999/xlink" version="1.1" width="2048" height="2048" viewBox="-10 0 2068 2048">
   <path fill="currentColor"
d="M1846 988h202v207h-202q-187 0 -413 -106q-193 101 -409 101t-409 -101q-226 106 -413 106h-202v-207h202q211 0 413 -135q183 130 409 130t409 -130q202 135 413 135zM1846 373h202v206h-202q-221 0 -413 -105q-193 100 -409 100t-409 -100q-192 105 -413 105h-202v-206
h202q211 0 413 -135q183 130 409 130t409 -130q202 135 413 135zM2048 1810h-2048v-207h2048v207z" />
</svg>
