<?xml version="1.0" standalone="no"?>
<!DOCTYPE svg PUBLIC "-//W3C//DTD SVG 1.1//EN" "http://www.w3.org/Graphics/SVG/1.1/DTD/svg11.dtd" >
<svg xmlns="http://www.w3.org/2000/svg" xmlns:xlink="http://www.w3.org/1999/xlink" version="1.1" width="2048" height="2048" viewBox="-10 0 2058 2048">
   <path fill="currentColor"
d="M1479 2048l-276 -305l114 -119l162 162l367 -367l119 143zM83 505v-200h205v-105q0 -81 59.5 -140.5t140.5 -59.5h610v710l257 -153l252 153v-710h100q81 0 143 62t62 138v995q-138 -81 -304.5 -81t-307 83.5t-221.5 224t-81 305t81 302.5h-591q-76 0 -138 -62t-62 -138
v-105h-205v-200h205v-410h-205v-200h205v-409h-205zM288 305v200h200v-200h-200zM288 1724h200v-200h-200v200zM288 1114h200v-200h-200v200z" />
</svg>
