<?xml version="1.0" standalone="no"?>
<!DOCTYPE svg PUBLIC "-//W3C//DTD SVG 1.1//EN" "http://www.w3.org/Graphics/SVG/1.1/DTD/svg11.dtd" >
<svg xmlns="http://www.w3.org/2000/svg" xmlns:xlink="http://www.w3.org/1999/xlink" version="1.1" width="2048" height="2048" viewBox="-10 0 2068 2048">
   <path fill="currentColor"
d="M870 1486q0 -63 46 -108.5t108 -45.5t108 45.5t46 108t-46 108t-108 45.5t-108 -45.5t-46 -107.5zM870 562q0 -62 46 -107.5t108 -45.5t108 45.5t46 108t-46 108t-108 45.5t-108 -45.5t-46 -108.5zM226 0h1596q91 0 158.5 67.5t67.5 158.5v1596q0 91 -67.5 158.5
t-158.5 67.5h-1596q-91 0 -158.5 -67.5t-67.5 -158.5v-1596q0 -91 67.5 -158.5t158.5 -67.5zM1024 202q-221 0 -411 110.5t-300.5 300.5t-110.5 411t110.5 411t300.5 300.5t411 110.5t411 -110.5t300.5 -300.5t110.5 -411t-110.5 -411t-300.5 -300.5t-411 -110.5zM870 1024
q0 -62 46 -108t108 -46t108 46t46 108t-46 108t-108 46t-108 -46t-46 -108z" />
</svg>
