<?xml version="1.0" standalone="no"?>
<!DOCTYPE svg PUBLIC "-//W3C//DTD SVG 1.1//EN" "http://www.w3.org/Graphics/SVG/1.1/DTD/svg11.dtd" >
<svg xmlns="http://www.w3.org/2000/svg" xmlns:xlink="http://www.w3.org/1999/xlink" version="1.1" width="2048" height="2048" viewBox="-10 0 2068 2048">
   <path fill="currentColor"
d="M1534 1148q113 0 235 22v139q-87 -21 -235 -21q-262 0 -418 91v-157q165 -74 418 -74zM1116 974q178 -74 418 -74q117 0 235 22v139q-87 -22 -235 -22q-262 0 -418 92v-157zM1534 791q-266 0 -418 91v-152q174 -79 418 -79q109 0 235 22v144q-104 -26 -235 -26z
M1861 1536v-1072q-149 -44 -327 -44q-283 0 -510 140v1068q227 -140 510 -140q170 0 327 48zM1534 233q331 0 514 140v1355q0 17 -17.5 32.5t-30.5 15.5t-22 -5q-178 -96 -444 -96q-283 0 -510 140q-187 -140 -510 -140q-231 0 -444 96l-22 9q-17 0 -32.5 -13t-15.5 -31
v-1363q187 -140 512 -140t512 140q187 -140 510 -140z" />
</svg>
