<?xml version="1.0" standalone="no"?>
<!DOCTYPE svg PUBLIC "-//W3C//DTD SVG 1.1//EN" "http://www.w3.org/Graphics/SVG/1.1/DTD/svg11.dtd" >
<svg xmlns="http://www.w3.org/2000/svg" xmlns:xlink="http://www.w3.org/1999/xlink" version="1.1" width="2048" height="2048" viewBox="-10 0 2058 2048">
   <path fill="currentColor"
d="M806 1613q0 112 36 220h-36q-179 0 -330 -89.5t-238 -240.5t-87 -325q0 -154 102 -369q82 -174 226 -384q102 -149 225 -302l102 -123l128 154q149 189 262 368q158 246 225 435q-113 11 -215 52q-51 -139 -164 -328q-102 -169 -236 -338q-184 236 -302 451
q-133 245 -133 384q0 179 128 307t307 128zM1569 1505v-327h-215v327h-327v215h327v328h215v-328h328v-215h-328z" />
</svg>
