<?xml version="1.0" standalone="no"?>
<!DOCTYPE svg PUBLIC "-//W3C//DTD SVG 1.1//EN" "http://www.w3.org/Graphics/SVG/1.1/DTD/svg11.dtd" >
<svg xmlns="http://www.w3.org/2000/svg" xmlns:xlink="http://www.w3.org/1999/xlink" version="1.1" width="2048" height="2048" viewBox="-10 0 2068 2048">
   <path fill="currentColor"
d="M2048 1925l-1925 -1925l-123 123l635 640q-160 261 -160 458q0 155 78 290t213 215t295 80q123 0 235 -50.5t194 -141.5l435 434zM1061 1609q-165 0 -277 -114t-112 -274q0 -101 110 -316l571 572q-55 64 -130.5 98t-161.5 34zM978 603l-141 -137q82 -109 150 -187
l74 -82l73 82l77 96q96 114 174 228q119 179 178 298q83 178 83 320q0 32 -5 50l-242 -242q-78 -170 -174 -316q-73 -100 -146 -187l-18 -23z" />
</svg>
