<?xml version="1.0" standalone="no"?>
<!DOCTYPE svg PUBLIC "-//W3C//DTD SVG 1.1//EN" "http://www.w3.org/Graphics/SVG/1.1/DTD/svg11.dtd" >
<svg xmlns="http://www.w3.org/2000/svg" xmlns:xlink="http://www.w3.org/1999/xlink" version="1.1" width="2048" height="2048" viewBox="-10 0 2058 2048">
   <path fill="currentColor"
d="M1932 1502l-546 546l-319 -346l135 -135l184 184l411 -411zM349 1243q0 -146 140 -405q124 -227 319 -476q140 178 248 357q119 200 173 346q103 -44 227 -55q-97 -281 -383 -675q-141 -195 -265 -335l-108 130q-130 162 -238 319q-151 221 -238 405q-108 227 -108 389
q0 184 92 343t251.5 254t348.5 95h38q-38 -114 -38 -233q-189 0 -324 -135t-135 -324z" />
</svg>
