<?xml version="1.0" standalone="no"?>
<!DOCTYPE svg PUBLIC "-//W3C//DTD SVG 1.1//EN" "http://www.w3.org/Graphics/SVG/1.1/DTD/svg11.dtd" >
<svg xmlns="http://www.w3.org/2000/svg" xmlns:xlink="http://www.w3.org/1999/xlink" version="1.1" width="2048" height="2048" viewBox="-10 0 2058 2048">
   <path fill="currentColor"
d="M824 1654q0 116 37 226h-37q-183 0 -338 -92t-244.5 -247t-89.5 -333q0 -158 105 -378q84 -179 231 -394q105 -152 231 -310l105 -126l132 158q152 194 268 378q162 252 231 446q-174 10 -318.5 105t-228.5 244.5t-84 322.5zM1896 1418l-163 -158l-236 237l-237 -237
l-157 158l236 236l-236 236l157 158l237 -236l236 236l157 -158l-236 -236z" />
</svg>
