<?xml version="1.0" standalone="no"?>
<!DOCTYPE svg PUBLIC "-//W3C//DTD SVG 1.1//EN" "http://www.w3.org/Graphics/SVG/1.1/DTD/svg11.dtd" >
<svg xmlns="http://www.w3.org/2000/svg" xmlns:xlink="http://www.w3.org/1999/xlink" version="1.1" width="2048" height="2048" viewBox="-10 0 2068 2048">
   <path fill="currentColor"
d="M1793 1538h-154q87 0 147 -60t60 -146.5t-60 -146.5t-147 -60v-409q0 -101 -14 -154q-24 -81 -96 -139q9 -34 9 -67q0 -149 -134.5 -252.5t-326.5 -103.5q-173 0 -303 86.5t-154 221.5h-211l-236 -226l-72 72l207 202l-207 206l72 73l236 -226h211q24 129 154 218t303 89
q72 0 144 -19q10 10 10 19v409h-616q-86 0 -146 60t-60 146.5t60 146.5t146 60h-153q-106 0 -183 74.5t-77 180.5q0 34 5 53h-5q-82 0 -142 60t-60 142h1793q106 0 180.5 -74.5t74.5 -180.5t-74.5 -180.5t-180.5 -74.5zM1024 308q-43 0 -72 -31.5t-29 -72.5t29 -72t72 -31
t72 31t29 72t-29 72.5t-72 31.5z" />
</svg>
