<?xml version="1.0" standalone="no"?>
<!DOCTYPE svg PUBLIC "-//W3C//DTD SVG 1.1//EN" "http://www.w3.org/Graphics/SVG/1.1/DTD/svg11.dtd" >
<svg xmlns="http://www.w3.org/2000/svg" xmlns:xlink="http://www.w3.org/1999/xlink" version="1.1" width="2048" height="2048" viewBox="-10 0 2058 2048">
   <path fill="currentColor"
d="M1999 1682v240h-972v-240h972zM295 1316q0 -155 148 -429q132 -241 338 -504q149 189 263 378q126 212 183 366q109 -46 240 -57q-103 -298 -406 -715q-149 -206 -280 -355l-115 137q-137 172 -251 338q-160 234 -252 429q-114 240 -114 412q0 194 97 363t266 269
t369 100h40q-40 -120 -40 -246q-200 0 -343 -143t-143 -343z" />
</svg>
