<?xml version="1.0" standalone="no"?>
<!DOCTYPE svg PUBLIC "-//W3C//DTD SVG 1.1//EN" "http://www.w3.org/Graphics/SVG/1.1/DTD/svg11.dtd" >
<svg xmlns="http://www.w3.org/2000/svg" xmlns:xlink="http://www.w3.org/1999/xlink" version="1.1" width="2048" height="2048" viewBox="-10 0 2068 2048">
   <path fill="currentColor"
d="M1567 308q135 115 207 273.5t72 341.5q0 221 -110.5 408.5t-300.5 298t-411 110.5t-411 -110.5t-300.5 -298t-110.5 -408.5q0 -178 77 -346q72 -149 202 -269h1086zM1639 101h-1230l-63 53q-168 144 -257 343.5t-89 425.5q0 274 137 509.5t372.5 375t514.5 139.5
t514.5 -139.5t372.5 -375t137 -509.5q0 -226 -89 -425.5t-257 -343.5zM1125 562q0 63 48 108.5t108 45.5t106 -45.5t46 -108t-46 -108t-106 -45.5t-108 45.5t-48 107.5zM615 562q0 63 46 108.5t106 45.5t108 -45.5t48 -108t-48 -108t-108 -45.5t-106 45.5t-46 107.5z
M510 1125q86 0 146 -60t60 -144t-60 -144.5t-144 -60.5t-144 60.5t-60 144.5t60 144t142 60zM971 1332q0 -87 -60 -147t-144 -60t-144.5 60t-60.5 146.5t60.5 146.5t144.5 60t144 -60t60 -146zM1024 1125q87 0 147 -60t60 -144t-60 -144.5t-147 -60.5t-147 60.5t-60 144.5
t60 144t147 60zM1486 1332q0 -87 -60.5 -147t-144.5 -60t-144 60t-60 146.5t60 146.5t144 60t144.5 -60t60.5 -146zM1740 923q0 -86 -60 -146.5t-144 -60.5t-144 60.5t-60 144.5t60 144t144 60t144 -60t60 -142z" />
</svg>
