<?xml version="1.0" standalone="no"?>
<!DOCTYPE svg PUBLIC "-//W3C//DTD SVG 1.1//EN" "http://www.w3.org/Graphics/SVG/1.1/DTD/svg11.dtd" >
<svg xmlns="http://www.w3.org/2000/svg" xmlns:xlink="http://www.w3.org/1999/xlink" version="1.1" width="2048" height="2048" viewBox="-10 0 2058 2048">
   <path fill="currentColor"
d="M1582 1024q0 -275 -155 -490.5t-403 -298.5q-22 -100 -98 -167.5t-181 -67.5q-118 0 -198.5 80.5t-80.5 200.5t80.5 198.5t198.5 78.5q74 0 139.5 -37t100.5 -103q187 74 298 237.5t111 366t-113 370.5t-296 238q-35 -66 -100.5 -103t-139.5 -37q-118 0 -198.5 78.5
t-80.5 198.5t80.5 200.5t198.5 80.5q105 0 181 -67.5t98 -167.5q248 -83 403 -301t155 -488zM745 375q-43 0 -67 -26.5t-24 -67.5t24 -67.5t67.5 -26.5t67.5 26.5t24 67.5t-24 67.5t-68 26.5zM745 1861q-43 0 -67 -26.5t-24 -67.5t24 -67.5t67.5 -26.5t67.5 26.5t24 67.5
t-24 67.5t-68 26.5zM745 745q118 0 198.5 80.5t80.5 198.5t-80.5 198.5t-198.5 80.5t-198.5 -80.5t-80.5 -198.5t80.5 -198.5t198.5 -80.5z" />
</svg>
