<?xml version="1.0" standalone="no"?>
<!DOCTYPE svg PUBLIC "-//W3C//DTD SVG 1.1//EN" "http://www.w3.org/Graphics/SVG/1.1/DTD/svg11.dtd" >
<svg xmlns="http://www.w3.org/2000/svg" xmlns:xlink="http://www.w3.org/1999/xlink" version="1.1" width="2048" height="2048" viewBox="-10 0 2068 2048">
   <path fill="currentColor"
d="M1925 2048l-855 -850h-9q-83 0 -140 -57.5t-57 -139.5v-9l-155 -155q-37 77 -37 164q0 160 114 274l-137 138q-82 -78 -128 -185.5t-46 -226.5q0 -169 92 -311l-142 -141q-146 201 -146 452q0 160 61.5 302t166.5 251l-137 137q-132 -137 -207.5 -315t-75.5 -375
q0 -329 201 -590l-288 -288l123 -123l1925 1925zM1445 1074l155 156q46 -110 46 -229t-46 -226.5t-128 -184.5l-137 137q114 114 114 274q0 32 -4 73zM1746 1376l142 142q146 -238 146 -517q0 -196 -75.5 -374.5t-207.5 -315.5l-137 137q105 110 166.5 251.5t61.5 301.5
q0 201 -96 375z" />
</svg>
