<?xml version="1.0" standalone="no"?>
<!DOCTYPE svg PUBLIC "-//W3C//DTD SVG 1.1//EN" "http://www.w3.org/Graphics/SVG/1.1/DTD/svg11.dtd" >
<svg xmlns="http://www.w3.org/2000/svg" xmlns:xlink="http://www.w3.org/1999/xlink" version="1.1" width="2048" height="2048" viewBox="-10 0 2068 2048">
   <path fill="currentColor"
d="M409 716q0 -43 31 -72t72 -29t72 29t31 72.5t-31 72t-72 28.5t-72 -28.5t-31 -72.5zM1538 817q39 0 70 -28.5t31 -72t-31 -72.5t-72 -29t-72 29t-31 72.5t31 72t74 28.5zM2048 812v111q0 250 -122.5 461.5t-336.5 336.5t-464 125h-202q-255 0 -466.5 -125t-334 -336.5
t-122.5 -461.5v-111q0 -168 81.5 -307.5t221 -221t303.5 -81.5h836q164 0 303.5 81.5t221 221t81.5 307.5zM1279 716q0 106 77 180.5t182.5 74.5t180 -74.5t74.5 -180t-74.5 -180t-180 -74.5t-182.5 74.5t-77 179.5zM255 716q0 106 74.5 180.5t180 74.5t182.5 -74.5t77 -180
t-77 -180t-182.5 -74.5t-180 74.5t-74.5 179.5zM716 1538q0 -43 -31 -74t-72 -31t-72 31t-31 72t31 72t72 31t72 -31t31 -70zM1178 1538q0 -67 -46 -110t-108 -43t-108 43t-46 108t46 110.5t108 45.5t108 -45.5t46 -108.5zM1538 1538q0 -43 -31 -74t-72 -31t-72 31t-31 72
t31 72t72 31t72 -31t31 -70zM1841 990q-120 135 -303 135q-173 0 -293 -120t-120 -289q0 -91 38.5 -170.5t105.5 -136.5h-490q67 57 105.5 136.5t38.5 170.5q0 169 -120 289t-293 120q-87 0 -166.5 -36t-136.5 -99q24 255 206 438q274 -197 611 -197t611 197
q182 -183 206 -438z" />
</svg>
