<?xml version="1.0" standalone="no"?>
<!DOCTYPE svg PUBLIC "-//W3C//DTD SVG 1.1//EN" "http://www.w3.org/Graphics/SVG/1.1/DTD/svg11.dtd" >
<svg xmlns="http://www.w3.org/2000/svg" xmlns:xlink="http://www.w3.org/1999/xlink" version="1.1" width="2048" height="2048" viewBox="-10 0 2058 2048">
   <path fill="currentColor"
d="M606 1673q0 57 -41.5 98.5t-98 41.5t-98 -41.5t-41.5 -96t41.5 -98t98 -43.5t98 43.5t41.5 95.5zM1582 1534q-57 0 -98.5 43.5t-41.5 98t41.5 96t98 41.5t98 -41.5t41.5 -96t-41.5 -98t-97.5 -43.5zM1582 1303h-26q139 -113 222 -285.5t83 -366t-83 -366t-222 -285.5
h-1064q-139 113 -222 285.5t-83 366t83 366t222 285.5h-26q-152 0 -261 109t-109 263.5t109 263.5t261 109h1116q152 0 261 -109t109 -263.5t-109 -263.5t-261 -109zM375 654q0 -131 50 -253t141 -214h916q91 92 141 214t50 253q0 178 -87 326.5t-235 235.5t-327 87
t-327 -87t-235 -235.5t-87 -326.5zM1582 1861h-1116q-78 0 -132.5 -54.5t-54.5 -131t54.5 -131t132.5 -54.5h1116q78 0 132.5 54.5t54.5 131t-54.5 131t-132.5 54.5zM1107 401q0 48 37 85t85 37t85 -37t37 -85t-39.5 -85t-89.5 -37t-82.5 37t-32.5 85zM706 401q0 48 37 85
t85 37t85 -37t37 -85t-37 -85t-87 -37t-85 35t-35 87zM623 837q70 0 115.5 -46t45.5 -109t-48 -111t-113 -48t-111 43.5t-46 109t48 113.5t109 48zM985 998q0 -66 -46 -113.5t-111 -47.5t-111 47.5t-46 113t46 111.5t111 46t111 -46t46 -111zM1024 837q70 0 113.5 -46
t43.5 -109t-48 -111t-109 -48t-109 48t-48 109t48 109t109 48zM1386 998q0 -66 -48 -113.5t-113.5 -47.5t-109 47.5t-43.5 113t45.5 111.5t111 46t111.5 -46t46 -111zM1582 680q0 -61 -48 -109t-113.5 -48t-111 45.5t-45.5 113t48 111.5t111 44t111 -48t48 -109z" />
</svg>
