<?xml version="1.0" standalone="no"?>
<!DOCTYPE svg PUBLIC "-//W3C//DTD SVG 1.1//EN" "http://www.w3.org/Graphics/SVG/1.1/DTD/svg11.dtd" >
<svg xmlns="http://www.w3.org/2000/svg" xmlns:xlink="http://www.w3.org/1999/xlink" version="1.1" width="2048" height="2048" viewBox="-10 0 2068 2048">
   <path fill="currentColor"
d="M562 769q-105 0 -179.5 74.5t-74.5 180.5t74.5 180.5t180 74.5t180 -74.5t74.5 -180.5t-74.5 -180.5t-180.5 -74.5zM1486 769q-106 0 -180.5 74.5t-74.5 180.5t74.5 180.5t180 74.5t180 -74.5t74.5 -180.5t-74.5 -180.5t-179.5 -74.5zM1024 202q221 0 411 110.5
t300.5 300.5t110.5 411t-110.5 411t-300.5 300.5t-411 110.5t-411 -110.5t-300.5 -300.5t-110.5 -411t110.5 -411t300.5 -300.5t411 -110.5zM1024 0q-279 0 -514.5 137t-372.5 372.5t-137 514.5t137 514.5t372.5 372.5t514.5 137t514.5 -137t372.5 -372.5t137 -514.5
t-137 -514.5t-372.5 -372.5t-514.5 -137zM1024 308q-106 0 -180.5 74.5t-74.5 180t74.5 180t180.5 74.5t180.5 -74.5t74.5 -180t-74.5 -180t-180.5 -74.5zM1178 562q0 20 -19 63l-63 -63l63 -62q19 43 19 62zM1086 428l-62 62l-62 -62q43 -19 62 -19t62 19zM889 625
q-19 -43 -19 -62.5t19 -62.5l63 62zM962 697l62 -62l62 62q-43 19 -62 19t-62 -19zM1024 1231q-106 0 -180.5 74.5t-74.5 180t74.5 180t180.5 74.5t180.5 -74.5t74.5 -180t-74.5 -180t-180.5 -74.5zM1178 1486q0 19 -19 62l-63 -62l63 -63q19 43 19 63zM1086 1351l-62 62
l-62 -62q43 -19 62 -19t62 19zM889 1548q-19 -43 -19 -62.5t19 -62.5l63 63zM962 1620l62 -62l62 62q-43 19 -62 19t-62 -19z" />
</svg>
