<?xml version="1.0" standalone="no"?>
<!DOCTYPE svg PUBLIC "-//W3C//DTD SVG 1.1//EN" "http://www.w3.org/Graphics/SVG/1.1/DTD/svg11.dtd" >
<svg xmlns="http://www.w3.org/2000/svg" xmlns:xlink="http://www.w3.org/1999/xlink" version="1.1" width="2048" height="2048" viewBox="-10 0 2068 2048">
   <path fill="currentColor"
d="M1528 1319q-12 21 -33 33.5t-44 12.5h-854q-23 0 -43.5 -12.5t-31.5 -33.5q-12 -22 -10 -45t17 -43l426 -597q26 -37 70 -37q42 0 68 37l428 597q14 20 16 43t-9 45zM1707 1664v-1280q0 -17 -13 -30t-30 -13h-1280q-17 0 -29.5 13t-12.5 30v1280q0 17 12.5 30t29.5 13
h1280q17 0 30 -13t13 -30zM2048 384v1280q0 105 -51.5 193t-139.5 139.5t-193 51.5h-1280q-105 0 -193 -51.5t-139.5 -139.5t-51.5 -193v-1280q0 -105 51.5 -193t139.5 -139.5t193 -51.5h1280q105 0 193 51.5t139.5 139.5t51.5 193z" />
</svg>
