<?xml version="1.0" standalone="no"?>
<!DOCTYPE svg PUBLIC "-//W3C//DTD SVG 1.1//EN" "http://www.w3.org/Graphics/SVG/1.1/DTD/svg11.dtd" >
<svg xmlns="http://www.w3.org/2000/svg" xmlns:xlink="http://www.w3.org/1999/xlink" version="1.1" width="2048" height="2048" viewBox="-10 0 2058 2048">
   <path fill="currentColor"
d="M1642 1449q-116 0 -203 77l-734 -425q10 -43 10 -72t-10 -73l725 -425q92 87 217.5 87t214.5 -91.5t89 -219.5t-89 -217.5t-219.5 -89.5t-220 89.5t-89.5 219.5q0 29 10 73l-725 420q-92 -82 -217.5 -82t-214.5 89t-89 219.5t89 220t214.5 89.5t217.5 -82l730 425
q-5 34 -5 68q0 125 87 212t212.5 87t212.5 -87t87 -210t-87 -212.5t-213 -89.5zM1642 203q44 0 73 31.5t29 72.5t-29 72.5t-72.5 31.5t-72.5 -31.5t-29 -72.5t29 -72.5t72 -31.5zM406 1130q-44 0 -73 -29t-29 -72.5t29 -72.5t72.5 -29t72.5 29t29 72.5t-29 72.5t-72 29z
M1642 1855q-43 0 -72 -31.5t-29 -72.5t29 -72.5t72.5 -31.5t72.5 31.5t29 72.5t-29 72.5t-73 31.5z" />
</svg>
