<?xml version="1.0" standalone="no"?>
<!DOCTYPE svg PUBLIC "-//W3C//DTD SVG 1.1//EN" "http://www.w3.org/Graphics/SVG/1.1/DTD/svg11.dtd" >
<svg xmlns="http://www.w3.org/2000/svg" xmlns:xlink="http://www.w3.org/1999/xlink" version="1.1" width="2048" height="2048" viewBox="-10 0 2058 2048">
   <path fill="currentColor"
d="M640 1708q0 48 -38 88t-90 40t-90 -40t-38 -90t38 -88t90 -38t90 38t38 90zM1536 1580q-52 0 -90 38t-38 88t38 90t90 40t90 -40t38 -90t-38 -88t-90 -38zM1876 1708q0 140 -100 240t-240 100h-1024q-140 0 -240 -100t-100 -242t100 -242t240 -100h24
q-128 -104 -204 -262t-76 -334q0 -208 102 -386t280 -280t386 -102t386 102t280 280t102 386q0 176 -76 334t-204 262h24q140 0 240 100t100 244zM1024 1364q164 0 300 -80t216 -216t80 -300t-80 -300t-216 -216t-300 -80t-300 80t-216 216t-80 300t80 300t216 216t300 80z
M1708 1708q0 -72 -50 -122t-122 -50h-1024q-72 0 -122 50t-50 120t50 120t122 50h1024q72 0 122 -50t50 -118zM1100 536q0 -64 46 -108t110 -44t108 44t44 108t-44 110t-108 46t-110 -46t-46 -110zM640 536q0 -64 44 -108t108 -44t110 44t46 108t-46 110t-110 46t-108 -46
t-44 -110zM792 872q0 36 -26 64t-66 28t-68 -28t-28 -66t26 -70t66 -32t68 32t28 72zM1176 1084q0 64 -44 108t-108 44t-108 -44t-44 -108t44 -108t108 -44t108 44t44 108zM1452 872q0 36 -28 64t-66 28t-66 -28t-28 -68t26 -70t66 -30t68 32t28 72z" />
</svg>
