<?xml version="1.0" standalone="no"?>
<!DOCTYPE svg PUBLIC "-//W3C//DTD SVG 1.1//EN" "http://www.w3.org/Graphics/SVG/1.1/DTD/svg11.dtd" >
<svg xmlns="http://www.w3.org/2000/svg" xmlns:xlink="http://www.w3.org/1999/xlink" version="1.1" width="2048" height="2048" viewBox="-10 0 2068 2048">
   <path fill="currentColor"
d="M1125 716q0 87 60 147t146.5 60t146.5 -60t60 -146.5t-60 -146.5t-146.5 -60t-146.5 60t-60 146zM510 716q0 87 60 147t146.5 60t146.5 -60t60 -146.5t-60 -146.5t-146.5 -60t-146.5 60t-60 146zM716 1149q0 -48 -38.5 -86.5t-84 -38.5t-84 38.5t-38.5 84t38.5 84
t84 38.5t84 -36t38.5 -84zM1231 1433q0 -82 -60 -142t-147 -60t-147 60t-60 144t60 144t147 60t147 -60t60 -146zM1024 202q221 0 411 110.5t300.5 300.5t110.5 411t-110.5 411t-300.5 300.5t-411 110.5t-411 -110.5t-300.5 -300.5t-110.5 -411t110.5 -411t300.5 -300.5
t411 -110.5zM1024 0q-279 0 -514.5 137t-372.5 372.5t-137 514.5t137 514.5t372.5 372.5t514.5 137t514.5 -137t372.5 -372.5t137 -514.5t-137 -514.5t-372.5 -372.5t-514.5 -137zM1586 1149q0 -53 -36 -89t-86.5 -36t-86.5 38.5t-36 84t38.5 84t84.5 43.5t84 -33.5
t38 -91.5z" />
</svg>
