<?xml version="1.0" standalone="no"?>
<!DOCTYPE svg PUBLIC "-//W3C//DTD SVG 1.1//EN" "http://www.w3.org/Graphics/SVG/1.1/DTD/svg11.dtd" >
<svg xmlns="http://www.w3.org/2000/svg" xmlns:xlink="http://www.w3.org/1999/xlink" version="1.1" width="2048" height="2048" viewBox="-10 0 2068 2048">
   <path fill="currentColor"
d="M1582 1118l74 8l-5 22l44 13l17 -13q75 39 109 109l-13 13l18 44l22 -5q13 44 13 88l-9 69h-22l-17 44l17 13q-39 74 -109 113l-17 -17l-39 22v21q-40 13 -83 13l-74 -8v-26l-40 -18l-17 18q-74 -40 -113 -105l17 -17l-17 -44h-22q-13 -39 -13 -78l9 -75h21l18 -43
l-18 -13q40 -74 109 -113l18 17l39 -22v-17q39 -13 83 -13zM1582 1257q-57 0 -98.5 39.5t-41.5 98t41.5 100t98 41.5t98 -41.5t41.5 -100t-41.5 -98t-97.5 -39.5zM466 1118l74 8l-4 22l44 13l17 -13q74 39 109 109l-13 13l17 44l22 -5q13 44 13 88l-9 69h-21l-18 44l18 13
q-40 74 -109 113l-18 -17l-39 22v21q-39 13 -83 13l-74 -8v-26l-39 -18l-17 18q-75 -40 -114 -105l18 -17l-18 -44h-22q-13 -39 -13 -78l9 -75h22l17 -43l-17 -13q39 -74 109 -113l17 17l39 -22v-17q40 -13 83 -13zM466 1257q-56 0 -97.5 39.5t-41.5 98t41.5 100t98 41.5
t98 -41.5t41.5 -100t-41.5 -98t-98.5 -39.5zM1394 373l279 370h188q78 0 132.5 54.5t54.5 132.5v279h-187q0 -117 -81 -198t-198.5 -81t-198 81t-80.5 198h-558q0 -117 -80.5 -198t-198 -81t-198.5 81t-81 198h-187v-466h885v-370h509zM1024 512v231h505l-178 -231h-327z
" />
</svg>
