<?xml version="1.0" standalone="no"?>
<!DOCTYPE svg PUBLIC "-//W3C//DTD SVG 1.1//EN" "http://www.w3.org/Graphics/SVG/1.1/DTD/svg11.dtd" >
<svg xmlns="http://www.w3.org/2000/svg" xmlns:xlink="http://www.w3.org/1999/xlink" version="1.1" width="2048" height="2048" viewBox="-10 0 2068 2048">
   <path fill="currentColor"
d="M2048 1628v187h-745v-187h745zM2048 882l-4 31l-92 322q-126 -74 -276.5 -74t-279 76.5t-204.5 205t-76 276.5q0 96 34 187h-732q-52 0 -95.5 -28t-69.5 -72l-244 -880l-9 -44q0 -34 28.5 -62.5t67.5 -28.5h423l431 -610q26 -39 74 -39t78 39l427 610h423q39 0 67.5 28.5
t28.5 62.5zM1211 1349q0 -79 -54.5 -133.5t-132.5 -54.5t-132.5 54.5t-54.5 133t54.5 133t132.5 54.5t132.5 -54.5t54.5 -132.5zM1303 791l-279 -397l-279 397h558z" />
</svg>
