<?xml version="1.0" standalone="no"?>
<!DOCTYPE svg PUBLIC "-//W3C//DTD SVG 1.1//EN" "http://www.w3.org/Graphics/SVG/1.1/DTD/svg11.dtd" >
<svg xmlns="http://www.w3.org/2000/svg" xmlns:xlink="http://www.w3.org/1999/xlink" version="1.1" width="2048" height="2048" viewBox="-10 0 2068 2048">
   <path fill="currentColor"
d="M1769 1255v279h279v187h-279v279h-187v-279h-279v-187h279v-279h187zM1024 1068q-78 0 -132.5 54.5t-54.5 132.5t54.5 132.5t132.5 54.5t132.5 -54.5t54.5 -132.5t-54.5 -132.5t-132.5 -54.5zM1150 1813h-732q-61 0 -111 -39.5t-67 -95.5l-236 -863q-4 -9 -4 -26
q0 -35 28.5 -63.5t67.5 -28.5h444l406 -610q30 -39 78 -39t78 39l406 610h444q39 0 67.5 28.5t28.5 63.5l-4 26l-92 331q-87 -52 -174 -65l56 -196h-1616l200 740h698q0 96 34 188zM763 697h522l-261 -392z" />
</svg>
