<?xml version="1.0" standalone="no"?>
<!DOCTYPE svg PUBLIC "-//W3C//DTD SVG 1.1//EN" "http://www.w3.org/Graphics/SVG/1.1/DTD/svg11.dtd" >
<svg xmlns="http://www.w3.org/2000/svg" xmlns:xlink="http://www.w3.org/1999/xlink" version="1.1" width="2048" height="2048" viewBox="-10 0 2068 2048">
   <path fill="currentColor"
d="M2048 815l-4 30l-192 689l-811 -811h262l-279 -396l-157 222l-131 -135l214 -301q26 -39 74 -39t78 39l427 610h423q39 0 67.5 28.5t28.5 63.5zM1965 1882l-117 118l-170 -170q-27 9 -48 9h-1212q-52 0 -95.5 -28.5t-69.5 -71.5l-244 -881l-9 -43q0 -35 28.5 -63.5
t67.5 -28.5h423l21 -30l-527 -527l118 -118zM1194 1351l-240 -240q-52 18 -84.5 65.5t-32.5 104.5q0 79 54.5 133t132.5 54q57 0 105 -32.5t65 -84.5z" />
</svg>
