<?xml version="1.0" standalone="no"?>
<!DOCTYPE svg PUBLIC "-//W3C//DTD SVG 1.1//EN" "http://www.w3.org/Graphics/SVG/1.1/DTD/svg11.dtd" >
<svg xmlns="http://www.w3.org/2000/svg" xmlns:xlink="http://www.w3.org/1999/xlink" version="1.1" width="2048" height="2048" viewBox="-10 0 2068 2048">
   <path fill="currentColor"
d="M1451 1025q0 43 -35 68l-598 428q-19 14 -43.5 15.5t-45.5 -10.5q-21 -11 -33.5 -31.5t-12.5 -43.5v-854q0 -23 12.5 -43.5t33.5 -31.5q21 -12 45.5 -10.5t43.5 15.5l598 428q35 25 35 70zM1707 1664v-1280q0 -18 -12.5 -30.5t-30.5 -12.5h-1280q-18 0 -30 12t-12 31
v1280q0 19 12 31t30 12h1280q18 0 30.5 -12.5t12.5 -30.5zM2048 384v1280q0 105 -51.5 193t-139.5 139.5t-193 51.5h-1280q-105 0 -193 -51.5t-139.5 -139.5t-51.5 -193v-1280q0 -105 51.5 -193t139.5 -139.5t193 -51.5h1280q105 0 193 51.5t139.5 139.5t51.5 193z" />
</svg>
