<?xml version="1.0" standalone="no"?>
<!DOCTYPE svg PUBLIC "-//W3C//DTD SVG 1.1//EN" "http://www.w3.org/Graphics/SVG/1.1/DTD/svg11.dtd" >
<svg xmlns="http://www.w3.org/2000/svg" xmlns:xlink="http://www.w3.org/1999/xlink" version="1.1" width="2048" height="2048" viewBox="-10 0 2068 2048">
   <path fill="currentColor"
d="M1253 795v458q0 22 -16 38t-42 16h-112v-566h112q26 0 42 16t16 38zM1595 853v-400q0 -48 -32 -80t-86 -32h-1365q-48 0 -80 32t-32 80v1142q0 48 32 80t80 32h1365q54 0 86 -32t32 -80v-400l453 453v-1248zM741 1477h-170v-362h-230v362h-170v-906h170v362h230v-362h170
v906zM1424 1307q0 69 -53.5 119.5t-117.5 50.5h-341v-906h341q64 0 117.5 50.5t53.5 119.5v566z" />
</svg>
