<?xml version="1.0" standalone="no"?>
<!DOCTYPE svg PUBLIC "-//W3C//DTD SVG 1.1//EN" "http://www.w3.org/Graphics/SVG/1.1/DTD/svg11.dtd" >
<svg xmlns="http://www.w3.org/2000/svg" xmlns:xlink="http://www.w3.org/1999/xlink" version="1.1" width="2048" height="2048" viewBox="-10 0 2068 2048">
   <path fill="currentColor"
d="M2000 716h-514l192 -192q-116 -149 -286.5 -235.5t-367.5 -86.5q-221 0 -411 110.5t-300.5 300.5t-110.5 411q0 279 168 495q96 -110 267 -175t387 -65t387 65t267 175q168 -216 168 -495h202q0 279 -137 514.5t-372.5 372.5t-514.5 137t-514.5 -137t-372.5 -372.5
t-137 -514.5t137 -514.5t372.5 -372.5t514.5 -137q236 0 445 101t353 279l178 -178v514zM1024 1846q288 0 514 -183q-52 -77 -191.5 -127t-322.5 -50t-322.5 50t-191.5 127q226 183 514 183zM1024 409q149 0 255 105.5t106 254.5t-106 252.5t-255 103.5t-255 -103.5
t-106 -252.5t106 -254.5t255 -105.5zM1024 615q-62 0 -108 43.5t-46 108.5t46 110.5t108 45.5t108 -45.5t46 -110.5t-46 -108.5t-108 -43.5z" />
</svg>
