<?xml version="1.0" standalone="no"?>
<!DOCTYPE svg PUBLIC "-//W3C//DTD SVG 1.1//EN" "http://www.w3.org/Graphics/SVG/1.1/DTD/svg11.dtd" >
<svg xmlns="http://www.w3.org/2000/svg" xmlns:xlink="http://www.w3.org/1999/xlink" version="1.1" width="2048" height="2048" viewBox="-10 0 2068 2048">
   <path fill="currentColor"
d="M1846 1034q-24 0 -43 19l-101 106l216 216l101 -106q15 -14 15 -40.5t-15 -41.5l-134 -134q-20 -19 -39 -19zM1649 1221l-625 615v212h216l625 -625zM615 409h-206v-409h206v409zM817 1433h-202v-202h202v202zM1024 409h-207v-409h207v409zM1433 0v202h-202v-202h202z
M1846 202h-207v-202h207v202zM817 1846v-207h-202v-206h-206v-202h-207v-207h207v-615h-207v-409h-202v2048h817v-202zM409 1846h-207v-207h207v207zM2048 817h-409v-202h409v202zM1846 409v-207h202v207h-202zM1639 202v413h-408v-206h202v-207h206zM817 1639v-206h207
v-409h-409v-409h409v202h207v207h202v-207h206v116l-298 298h-110v110l-298 298h-116z" />
</svg>
