<?xml version="1.0" standalone="no"?>
<!DOCTYPE svg PUBLIC "-//W3C//DTD SVG 1.1//EN" "http://www.w3.org/Graphics/SVG/1.1/DTD/svg11.dtd" >
<svg xmlns="http://www.w3.org/2000/svg" xmlns:xlink="http://www.w3.org/1999/xlink" version="1.1" width="2048" height="2048" viewBox="-10 0 2068 2048">
   <path fill="currentColor"
d="M1869 311h-1068q-71 0 -123 52t-52 127v355l-180 179l180 179v355q0 75 52 127t123 52h1068q75 0 127 -52t52 -127v-1068q0 -75 -52 -127t-127 -52zM1869 1558h-1068v-1068h1068v1068zM267 669h-175v-533h175v533zM92 1379h175v533h-175v-533zM359 1024q0 75 -52.5 127
t-127.5 52t-127 -52t-52 -127t52 -127t127 -52t127.5 52t52.5 127zM1247 1299l-246 -267l104 -104l142 142l321 -321l100 125z" />
</svg>
