<?xml version="1.0" standalone="no"?>
<!DOCTYPE svg PUBLIC "-//W3C//DTD SVG 1.1//EN" "http://www.w3.org/Graphics/SVG/1.1/DTD/svg11.dtd" >
<svg xmlns="http://www.w3.org/2000/svg" xmlns:xlink="http://www.w3.org/1999/xlink" version="1.1" width="2048" height="2048" viewBox="-10 0 2068 2048">
   <path fill="currentColor"
d="M1433 899q0 -168 -121 -288l145 -145q86 82 134 195t48 238q-105 0 -211 38zM442 317l-144 -144q-139 144 -218.5 331.5t-79.5 394.5t79.5 394.5t218.5 331.5l144 -144q-110 -116 -175 -265t-65 -317t65 -317t175 -265zM1750 173l-144 144q110 116 175 265t65 317v34
q106 43 192 115q10 -86 10 -149q0 -207 -79.5 -394.5t-218.5 -331.5zM1024 692q-87 0 -147 60t-60 147t60 147t147 60t147 -60t60 -147t-60 -147t-147 -60zM591 466q-86 82 -134 195t-48 238t48 238t134 195l145 -145q-121 -120 -121 -288t121 -288zM1856 1149l-217 221
l-216 -216l-144 144l216 216l-216 217l144 144l216 -216l217 216l144 -144l-216 -217l216 -216z" />
</svg>
