<?xml version="1.0" standalone="no"?>
<!DOCTYPE svg PUBLIC "-//W3C//DTD SVG 1.1//EN" "http://www.w3.org/Graphics/SVG/1.1/DTD/svg11.dtd" >
<svg xmlns="http://www.w3.org/2000/svg" xmlns:xlink="http://www.w3.org/1999/xlink" version="1.1" width="2048" height="2048" viewBox="-10 0 2068 2048">
   <path fill="currentColor"
d="M1362 0v192h-192v-192h192zM974 0h-197v389h197v-389zM777 1170h-192v192h192v-192zM1362 192v197h-192v196h389v-393h-197zM585 0h-196v389h196v-389zM1755 0h-196v192h196v-192zM1147 1947h-1147v-1947h192v389h197v585h-197v196h197v192h196v197h192v196h197v-196
h-197v-197h197v-388h-389v-389h389v192h196v197h192v-197h197v197h388v173q-137 -77 -292 -77q-174 0 -320 100h-165v165q-100 146 -100 320q0 155 77 292zM389 1559h-197v196h197v-196zM1947 585h-388v192h388v-192zM1947 389v-197h-192v197h192zM1559 1266v293h-293v196
h293v293h196v-293h293v-196h-293v-293h-196z" />
</svg>
