<?xml version="1.0" standalone="no"?>
<!DOCTYPE svg PUBLIC "-//W3C//DTD SVG 1.1//EN" "http://www.w3.org/Graphics/SVG/1.1/DTD/svg11.dtd" >
<svg xmlns="http://www.w3.org/2000/svg" xmlns:xlink="http://www.w3.org/1999/xlink" version="1.1" width="2048" height="2048" viewBox="-10 0 2058 2048">
   <path fill="currentColor"
d="M1561 1493l40 182q4 13 -2.5 25t-19.5 17l-8 2.5t-20 5.5t-28.5 7t-38 8t-45 7.5t-52 5.5t-56.5 2q-268 0 -468 -149.5t-272 -401.5h-108q-16 0 -26.5 -11t-10.5 -25v-130q0 -14 10.5 -25t26.5 -11h75q-2 -65 1 -120h-76q-16 0 -26.5 -10.5t-10.5 -26.5v-130
q0 -16 10.5 -26.5t26.5 -10.5h112q50 -159 158.5 -279.5t258.5 -186.5t319 -66q19 0 38.5 1t36.5 2.5t33.5 3t31 4t26.5 4.5t22 4t16.5 3.5t11.5 2.5l5 1q12 3 23 17q7 12 4 28l-50 181q-4 15 -16.5 22.5t-26.5 3.5l-5 -1t-13.5 -3t-19.5 -4t-25.5 -4t-29.5 -4t-33 -3
t-34 -1q-144 0 -258 73t-172 201h535q18 0 29 14q11 13 8 30l-28 130q-2 13 -12.5 21.5t-23.5 8.5h-558q-4 42 0 120h525q16 0 28 14q10 13 7 30l-27 128q-2 13 -12.5 21.5t-23.5 8.5h-442q55 134 171 212t261 78q20 0 41 -1.5t38 -4t33.5 -5.5t28.5 -5.5t21.5 -5t14.5 -4
l5 -1.5q16 -5 29 2q14 9 17 24z" />
</svg>
