<?xml version="1.0" standalone="no"?>
<!DOCTYPE svg PUBLIC "-//W3C//DTD SVG 1.1//EN" "http://www.w3.org/Graphics/SVG/1.1/DTD/svg11.dtd" >
<svg xmlns="http://www.w3.org/2000/svg" xmlns:xlink="http://www.w3.org/1999/xlink" version="1.1" width="2048" height="2048" viewBox="-10 0 2068 2048">
   <path fill="currentColor"
d="M1904 1219l120 144l-486 485l-283 -307l120 -120l163 163zM1750 200l-144 144q110 115 175 264t65 317v34q106 43 192 115q10 -86 10 -149q0 -206 -79.5 -393.5t-218.5 -331.5zM1428 964q106 -39 211 -39q0 -125 -48 -238t-134 -194l-145 144q121 120 121 288zM1024 719
q-87 0 -147 60t-60 146.5t60 146.5t147 60t147 -60t60 -146.5t-60 -146.5t-147 -60zM442 344l-144 -144q-139 144 -218.5 331.5t-79.5 394t79.5 394t218.5 331.5l144 -144q-110 -115 -175 -264t-65 -317.5t65 -317.5t175 -264zM591 493q-86 81 -134 194t-48 238t48 238
t134 195l145 -144q-121 -120 -121 -288.5t121 -288.5z" />
</svg>
