<?xml version="1.0" standalone="no"?>
<!DOCTYPE svg PUBLIC "-//W3C//DTD SVG 1.1//EN" "http://www.w3.org/Graphics/SVG/1.1/DTD/svg11.dtd" >
<svg xmlns="http://www.w3.org/2000/svg" xmlns:xlink="http://www.w3.org/1999/xlink" version="1.1" width="2048" height="2048" viewBox="-10 0 2068 2048">
   <path fill="currentColor"
d="M866 1546l-110 -110l1292 -1292l-144 -144l-1292 1292l-110 -110q-57 -58 -143 -58t-144 58l-215 220l72 72l215 -220l72 76l-215 216l71 71l216 -215l71 72l-215 215l72 72l215 -215l72 71l-215 216l71 71l216 -215l76 72l-220 215l72 72l220 -215q58 -58 58 -144
t-58 -143z" />
</svg>
