<?xml version="1.0" standalone="no"?>
<!DOCTYPE svg PUBLIC "-//W3C//DTD SVG 1.1//EN" "http://www.w3.org/Graphics/SVG/1.1/DTD/svg11.dtd" >
<svg xmlns="http://www.w3.org/2000/svg" xmlns:xlink="http://www.w3.org/1999/xlink" version="1.1" width="2048" height="2048" viewBox="-10 0 2068 2048">
   <path fill="currentColor"
d="M1024 745q-92 0 -161.5 50t-99.5 137h-223q-26 -87 -98 -137t-163 -50q-118 0 -198.5 80.5t-80.5 198.5t80.5 198.5t198.5 80.5q91 0 163 -50t98 -137h223q30 87 99.5 137t161.5 50t161.5 -50t99.5 -137h223q26 87 98 137t163 50q118 0 198.5 -80.5t80.5 -198.5
t-80.5 -198.5t-198.5 -80.5q-91 0 -163 50t-98 137h-223q-30 -87 -99.5 -137t-161.5 -50zM187 1024q0 -44 26.5 -68t67.5 -24t67.5 24t26.5 68t-26.5 68t-67.5 24t-67.5 -24t-26.5 -68zM1861 1024q0 44 -26.5 68t-67.5 24t-67.5 -24t-26.5 -68t26.5 -68t67.5 -24t67.5 24
t26.5 68z" />
</svg>
