<?xml version="1.0" standalone="no"?>
<!DOCTYPE svg PUBLIC "-//W3C//DTD SVG 1.1//EN" "http://www.w3.org/Graphics/SVG/1.1/DTD/svg11.dtd" >
<svg xmlns="http://www.w3.org/2000/svg" xmlns:xlink="http://www.w3.org/1999/xlink" version="1.1" width="2048" height="2048" viewBox="-10 0 2068 2048">
   <path fill="currentColor"
d="M172 172h340v-172h-340q-72 0 -122 50t-50 122v340h172v-340zM1876 0h-340v172h340v340h172v-340q0 -72 -50 -122t-122 -50zM172 1536h-172v340q0 72 50 122t122 50h340v-172h-340v-340zM1876 1876h-340v172h340q72 0 122 -50t50 -122v-340h-172v340zM684 512v-172h168
v172h-168zM852 1196v-172h172v172h-172zM1364 340h172v172h-172v-172zM1536 512h172v172h-172v-172zM1536 1196h172v168h-172v-168zM1708 1024h-344v512h344v172h-1368v-1368h172v172h172v340h-172v172h172v172h168v168h172v172h172v-172h-172v-168h172v-344h-344v-340h172
v-172h172v344h168v168h344v172zM684 1536v-172h-172v172h172z" />
</svg>
