<?xml version="1.0" standalone="no"?>
<!DOCTYPE svg PUBLIC "-//W3C//DTD SVG 1.1//EN" "http://www.w3.org/Graphics/SVG/1.1/DTD/svg11.dtd" >
<svg xmlns="http://www.w3.org/2000/svg" xmlns:xlink="http://www.w3.org/1999/xlink" version="1.1" width="2048" height="2048" viewBox="-10 0 2068 2048">
   <path fill="currentColor"
d="M615 1125q-144 0 -252 86.5t-147 221.5h-216v206h216q39 135 147 221.5t250 86.5t252.5 -86.5t144.5 -221.5h1038v-206h-1038q-34 -135 -144.5 -221.5t-250.5 -86.5zM615 1740q-86 0 -146 -60t-60 -144t60 -144t144 -60t144 60t60 144t-60 144t-142 60zM1832 409
q-39 -135 -147 -221.5t-250 -86.5t-252.5 86.5t-144.5 221.5h-1038v206h1038q34 135 144.5 221.5t252.5 86.5t250 -86.5t147 -221.5h216v-206h-216zM1433 716q-82 0 -142 -60t-60 -144t60 -144t144 -60t144 60t60 144t-60 144t-146 60z" />
</svg>
