<?xml version="1.0" standalone="no"?>
<!DOCTYPE svg PUBLIC "-//W3C//DTD SVG 1.1//EN" "http://www.w3.org/Graphics/SVG/1.1/DTD/svg11.dtd" >
<svg xmlns="http://www.w3.org/2000/svg" xmlns:xlink="http://www.w3.org/1999/xlink" version="1.1" width="2048" height="2048" viewBox="-10 0 2068 2048">
   <path fill="currentColor"
d="M1397 0v197h-197v-197h197zM998 0h-201v398h201v-398zM797 1200h-197v197h197v-197zM1397 197v201h-197v202h398v-403h-201zM600 0h-202v398h202v-398zM1800 0h-202v197h202v-197zM1176 1996h-1176v-1996h197v398h201v600h-201v202h201v197h202v201h197v202h201v-202
h-201v-201h201v-399h-398v-398h398v197h202v201h197v-201h201v201h398v178q-140 -79 -299 -79q-179 0 -329 103h-168v168q-103 150 -103 329q0 159 79 299zM398 1598h-201v202h201v-202zM1996 600h-398v197h398v-197zM1996 398v-201h-196v201h196zM1907 1350l-210 206
l-207 -206l-140 140l206 207l-206 210l140 141l207 -211l210 211l141 -141l-211 -210l211 -207z" />
</svg>
