<?xml version="1.0" standalone="no"?>
<!DOCTYPE svg PUBLIC "-//W3C//DTD SVG 1.1//EN" "http://www.w3.org/Graphics/SVG/1.1/DTD/svg11.dtd" >
<svg xmlns="http://www.w3.org/2000/svg" xmlns:xlink="http://www.w3.org/1999/xlink" version="1.1" width="2048" height="2048" viewBox="-10 0 2068 2048">
   <path fill="currentColor"
d="M411 885q117 235 311.5 429.5t440.5 322.5l250 -250q22 -27 54 -32.5t58 10.5q187 70 411 70q48 0 80 32t32 80v389q0 48 -32 80t-80 32q-528 0 -976 -261q-443 -256 -699 -699q-261 -448 -261 -976q0 -48 34.5 -80t77.5 -32h400q53 0 82.5 32t29.5 80q0 208 69 411
q16 53 -21 112zM1253 0q-53 0 -85 32t-32 82.5t32 82.5t82.5 32t82.5 -32t32 -82.5t-32 -82.5t-80 -32zM1595 0q-54 0 -86 32t-32 82.5t32 82.5t83 32t83 -32t32 -82.5t-32 -82.5t-80 -32zM1936 0q-53 0 -85 32t-32 82.5t32 82.5t82.5 32t82.5 -32t32 -82.5t-32 -82.5
t-80 -32zM1253 341q-53 0 -85 32t-32 83t32 83t82.5 32t82.5 -32t32 -83t-32 -83t-80 -32zM1595 341q-54 0 -86 32t-32 83t32 83t83 32t83 -32t32 -83t-32 -83t-80 -32zM1936 341q-53 0 -85 32t-32 83t32 83t82.5 32t82.5 -32t32 -83t-32 -83t-80 -32zM1253 683
q-53 0 -85 32t-32 82.5t32 82.5t82.5 32t82.5 -32t32 -82.5t-32 -82.5t-80 -32zM1595 683q-54 0 -86 32t-32 82.5t32 82.5t83 32t83 -32t32 -82.5t-32 -82.5t-80 -32zM1936 683q-53 0 -85 32t-32 82.5t32 82.5t82.5 32t82.5 -32t32 -82.5t-32 -82.5t-80 -32z" />
</svg>
