<?xml version="1.0" standalone="no"?>
<!DOCTYPE svg PUBLIC "-//W3C//DTD SVG 1.1//EN" "http://www.w3.org/Graphics/SVG/1.1/DTD/svg11.dtd" >
<svg xmlns="http://www.w3.org/2000/svg" xmlns:xlink="http://www.w3.org/1999/xlink" version="1.1" width="2048" height="2048" viewBox="-10 0 2068 2048">
   <path fill="currentColor"
d="M1822 471l-82 140v211l-134 164l-39 168l-134 77l-48 -92l96 -53l33 -149l72 -86q15 -14 12.5 -36t-19.5 -36.5t-38.5 -12t-35.5 17.5l-87 105l-29 130h-9q-34 5 -48 5q-106 0 -183 -62q-5 100 -36 182t-75 130l-168 178l-58 370l-192 125l-53 -86l154 -101l48 -332
l48 -144q-81 -73 -115 -231l-34 62q-62 116 -101 173l-9 15q-44 62 -72 91q-44 53 -101 87q-34 19 -79.5 28.5t-84.5 0.5q-82 -20 -134 -87q-39 -53 -58 -115q-15 -44 -29 -116l96 -29q48 125 98.5 168.5t94 5t91.5 -153.5q29 -58 72 -193l19 -53q91 -254 168 -391t173 -219
q145 -125 313 -125q91 0 202 77q91 67 168 163q29 44 84.5 39t83.5 -53l92 -159q-19 -9 -34 -24q-29 -33 -29 -74t29 -70l115 115h10q63 0 91 58l111 236l-101 52z" />
</svg>
