<?xml version="1.0" standalone="no"?>
<!DOCTYPE svg PUBLIC "-//W3C//DTD SVG 1.1//EN" "http://www.w3.org/Graphics/SVG/1.1/DTD/svg11.dtd" >
<svg xmlns="http://www.w3.org/2000/svg" xmlns:xlink="http://www.w3.org/1999/xlink" version="1.1" width="2048" height="2048" viewBox="-10 0 2058 2048">
   <path fill="currentColor"
d="M1557 1354q0 174 -113.5 300.5t-295.5 156.5v200q0 16 -11 26.5t-26 10.5h-154q-15 0 -26 -11t-11 -26v-200q-75 -11 -145.5 -36t-116 -50.5t-84.5 -55t-53 -43t-20 -20.5q-19 -24 -3 -46l118 -155q8 -11 25.5 -13t28.5 10l2 2q13 11 27.5 23t53.5 37.5t77.5 43.5t94 33
t109.5 15q59 0 110.5 -19.5t87.5 -63.5t36 -105q0 -18 -5.5 -35t-13 -30.5t-23.5 -28.5t-28 -25t-36.5 -23.5t-39.5 -21.5t-46 -21.5t-47 -20t-51 -20.5q-59 -23 -92 -37t-88.5 -41.5t-88.5 -50.5t-74.5 -60.5t-63.5 -76.5t-38 -91.5t-16 -112.5q0 -157 111.5 -276
t291.5 -154v-206q0 -15 11 -25.5t26 -10.5h154q16 0 26.5 10t10.5 26v201q65 7 126 26.5t99 38t73 43t44.5 33t17.5 16.5q17 21 5 43l-92 167q-10 16 -27 18q-16 3 -30 -8q-3 -3 -16.5 -13.5t-45 -30t-67 -36.5t-85 -30t-97.5 -13q-109 0 -177.5 49t-68.5 127q0 20 5.5 38.5
t13 33t24 30t29.5 26.5t38 25t41 22t48 21.5t49 20.5t54 21q59 23 91.5 36.5t87.5 39.5t86.5 48.5t71 57.5t60.5 72t36 87.5t15 107.5z" />
</svg>
