<?xml version="1.0" standalone="no"?>
<!DOCTYPE svg PUBLIC "-//W3C//DTD SVG 1.1//EN" "http://www.w3.org/Graphics/SVG/1.1/DTD/svg11.dtd" >
<svg xmlns="http://www.w3.org/2000/svg" xmlns:xlink="http://www.w3.org/1999/xlink" version="1.1" width="2048" height="2048" viewBox="-10 0 2068 2048">
   <path fill="currentColor"
d="M245 1461q-117 -138 -181 -309t-64 -357q0 -155 77.5 -285.5t208 -205.5t285.5 -75q133 0 253 61.5t200 162.5q80 -101 200 -162.5t253 -61.5q155 0 285.5 75t208 205.5t77.5 285.5q0 186 -64 357t-181 309l154 155l-160 160l-160 -160q-128 96 -285 149.5t-328 53.5
t-328 -53.5t-285 -149.5l-160 160l-160 -160zM1472 1451l-448 -448l-448 448q203 144 448 144t448 -144zM912 795q0 -139 -101.5 -240.5t-242.5 -101.5t-240 101.5t-99 240.5q0 282 176 506zM1643 1301q176 -224 176 -506q0 -139 -99 -240.5t-240 -101.5t-242.5 101.5
t-101.5 240.5z" />
</svg>
