<?xml version="1.0" standalone="no"?>
<!DOCTYPE svg PUBLIC "-//W3C//DTD SVG 1.1//EN" "http://www.w3.org/Graphics/SVG/1.1/DTD/svg11.dtd" >
<svg xmlns="http://www.w3.org/2000/svg" xmlns:xlink="http://www.w3.org/1999/xlink" version="1.1" width="2048" height="2048" viewBox="-10 0 2068 2048">
   <path fill="currentColor"
d="M389 1971l164 -716l-553 -495l736 -63l288 -673l288 673l736 63l-327 288h-82q-120 0 -216 43l226 -197l-452 -43l-173 -409l-173 409l-452 43l337 298l-101 443l389 -236l53 29q-43 101 -43 163zM1856 1303l-217 216l-216 -216l-144 144l216 216l-216 217l144 144
l216 -216l217 216l144 -144l-216 -217l216 -216z" />
</svg>
