<?xml version="1.0" standalone="no"?>
<!DOCTYPE svg PUBLIC "-//W3C//DTD SVG 1.1//EN" "http://www.w3.org/Graphics/SVG/1.1/DTD/svg11.dtd" >
<svg xmlns="http://www.w3.org/2000/svg" xmlns:xlink="http://www.w3.org/1999/xlink" version="1.1" width="2048" height="2048" viewBox="-10 0 2068 2048">
   <path fill="currentColor"
d="M1851 731q-82 0 -139 -57t-57 -139q0 -46 50 -146q37 -74 96 -165l50 -78l51 78q59 91 96 165q50 100 50 146q0 82 -57 139t-140 57zM1509 535q0 -92 91 -256q-128 -110 -290.5 -169.5t-335.5 -59.5q-265 0 -489 130.5t-354.5 354.5t-130.5 489t130.5 489t354.5 354.5
t489 130.5t489 -130.5t354 -354.5t130 -489q0 -69 -13 -160q-46 14 -83 14q-141 0 -241.5 -100.5t-100.5 -242.5zM1326 571l105 106l-105 105l105 100l-105 105l-206 -205zM517 677l105 -106l205 211l-205 205l-105 -105l105 -100zM1307 1513q-50 -91 -139 -143.5
t-194 -52.5t-194.5 52.5t-139.5 143.5h-165q42 -110 128 -196l-288 -165q-36 18 -72.5 18t-73.5 -18q-50 -32 -66 -89t13.5 -109.5t87 -68.5t111.5 11q37 23 55.5 57t18.5 71l347 201q110 -55 238 -55q169 0 304 94t194 249h-165z" />
</svg>
