<?xml version="1.0" standalone="no"?>
<!DOCTYPE svg PUBLIC "-//W3C//DTD SVG 1.1//EN" "http://www.w3.org/Graphics/SVG/1.1/DTD/svg11.dtd" >
<svg xmlns="http://www.w3.org/2000/svg" xmlns:xlink="http://www.w3.org/1999/xlink" version="1.1" width="2048" height="2048" viewBox="-10 0 2068 2048">
   <path fill="currentColor"
d="M409 409q86 0 146 -60.5t60 -144.5t-60 -144t-146.5 -60t-146.5 60t-60 144t60 144.5t147 60.5zM817 760q0 -63 -33.5 -113.5t-91.5 -74.5q-134 -62 -283 -62t-284 62q-58 24 -91.5 74.5t-33.5 113.5v57h817v-57zM1639 409q87 0 147 -60.5t60 -144.5t-60 -144t-146.5 -60
t-146.5 60t-60 144t60 144.5t146 60.5zM2048 760q0 -63 -33.5 -113.5t-91.5 -74.5q-135 -62 -284 -62t-283 62q-58 24 -91.5 74.5t-33.5 113.5v57h817v-57zM1740 1538v-206h-1432v206l-308 -307l308 -308v202h1432v-202l308 308zM716 1894v53h207v101h-308v-154
q0 -38 29 -69.5t72 -31.5h101v-53h-202v-101h202q44 0 75 31.5t31 69.5v53q0 43 -31 72t-75 29h-101zM1433 1740v308h-101v-308h-53v207h-101v-207h-53v308h-101v-308q0 -38 31 -69.5t70 -31.5h207q43 0 72 31.5t29 69.5z" />
</svg>
