<?xml version="1.0" standalone="no"?>
<!DOCTYPE svg PUBLIC "-//W3C//DTD SVG 1.1//EN" "http://www.w3.org/Graphics/SVG/1.1/DTD/svg11.dtd" >
<svg xmlns="http://www.w3.org/2000/svg" xmlns:xlink="http://www.w3.org/1999/xlink" version="1.1" width="2048" height="2048" viewBox="-10 0 2058 2048">
   <path fill="currentColor"
d="M1004 1181q-65 65 -152 96v771h-279v-187h-279v-279h279v-305q-126 -44 -202.5 -150.5t-76.5 -241.5q0 -175 122 -297t296 -122h9q-70 140 -52 288q-44 13 -70 50t-26 81q0 56 39 97.5t100 41.5q27 0 61 -13q88 118 231 170zM1754 1717l-257 104l-70 -170l-257 109
l-109 -257l257 -109l-118 -278q-130 8 -243.5 -61.5t-165.5 -191.5q-70 -161 -2.5 -322.5t224.5 -226.5q26 -13 70 -22q-48 -87 -135 -141.5t-192 -54.5q-152 0 -261 109t-109 261v22q-44 39 -79 87q-13 -61 -13 -109q0 -126 61 -233t168 -170t233 -63t233 63t170 170
t63 233q0 96 -37 181t-107 150q31 31 70 39.5t83 -8.5q52 -22 74 -76.5t0 -106.5q-4 -13 -13 -26q22 -79 22 -153q0 -87 -26 -170q91 26 163 89.5t111 150.5q52 126 21.5 254.5t-130.5 216.5zM1035 706q52 -57 78 -131q-39 18 -58.5 55t-19.5 76z" />
</svg>
