<?xml version="1.0" standalone="no"?>
<!DOCTYPE svg PUBLIC "-//W3C//DTD SVG 1.1//EN" "http://www.w3.org/Graphics/SVG/1.1/DTD/svg11.dtd" >
<svg xmlns="http://www.w3.org/2000/svg" xmlns:xlink="http://www.w3.org/1999/xlink" version="1.1" width="2048" height="2048" viewBox="-10 0 2068 2048">
   <path fill="currentColor"
d="M1926 1590v-95l100 -74q22 -18 13 -27l-96 -156q0 -9 -26 -9l-113 43q-57 -34 -83 -43l-17 -122q0 -9 -6.5 -13.5t-15.5 -4.5h-183q-31 0 -31 18l-17 122l-74 43l-113 -43q-18 0 -26 9l-92 156q0 18 9 27l100 74v95l-100 75q-18 17 -9 26l92 161q8 9 26 9l113 -48
q35 30 74 48l17 117q22 22 31 22h183q9 0 15.5 -6.5t6.5 -15.5l17 -117l74 -48l114 39q17 0 26 -13l91 -157q9 -4 9 -10.5t-9 -6.5zM1582 1673q-57 0 -98.5 -41.5t-41.5 -98t41.5 -98t98 -41.5t98 41.5t41.5 98t-41.5 98t-97.5 41.5zM1050 1904h-863q-78 0 -132.5 -54.5
t-54.5 -128.5v-1490q0 -74 54.5 -128.5t132.5 -54.5h1674q78 0 132.5 54.5t54.5 128.5v845q-92 -87 -187 -126v-532h-1674v1303h772q30 113 91 183z" />
</svg>
