<?xml version="1.0" standalone="no"?>
<!DOCTYPE svg PUBLIC "-//W3C//DTD SVG 1.1//EN" "http://www.w3.org/Graphics/SVG/1.1/DTD/svg11.dtd" >
<svg xmlns="http://www.w3.org/2000/svg" xmlns:xlink="http://www.w3.org/1999/xlink" version="1.1" width="2048" height="2048" viewBox="-10 0 2058 2048">
   <path fill="currentColor"
d="M946 0v96l-70 -61l-323 383l301 188v-218l-22 -13l114 -135v1808h187v-911l179 -178q165 26 348 -48q157 -66 275 -183l-131 -131q-83 87 -222 139q-153 57 -266 35l-183 -191v-580h-187zM1412 279q-79 0 -133.5 54.5t-54.5 133t54.5 133t131 54.5t131 -54.5t54.5 -133
t-54.5 -133t-128.5 -54.5zM854 632l-366 361q-131 131 -205 249q-83 131 -170 353l175 65q69 -174 130 -279q53 -91 144 -187l126 126l-461 462l130 131l497 -497v-784z" />
</svg>
