<?xml version="1.0" standalone="no"?>
<!DOCTYPE svg PUBLIC "-//W3C//DTD SVG 1.1//EN" "http://www.w3.org/Graphics/SVG/1.1/DTD/svg11.dtd" >
<svg xmlns="http://www.w3.org/2000/svg" xmlns:xlink="http://www.w3.org/1999/xlink" version="1.1" width="2048" height="2048" viewBox="-10 0 2068 2048">
   <path fill="currentColor"
d="M308 409q-87 0 -147 60t-60 144t60 144t144 60t144.5 -60t60.5 -144t-60.5 -144t-141.5 -60zM1024 202q-87 0 -147 60t-60 146.5t60 146.5t147 60t147 -60t60 -146.5t-60 -146.5t-147 -60zM1740 0q-81 0 -141.5 60t-60.5 144t60.5 144.5t144.5 60.5t144 -60.5t60 -144.5
t-60 -144t-147 -60zM154 923q-67 0 -110.5 43.5t-43.5 110.5v461h101v510h409v-510h105v-461q0 -67 -45.5 -110.5t-107.5 -43.5h-308zM870 716q-62 0 -108 46t-46 108v462h101v514h414v-514h101v-462q0 -62 -46 -108t-108 -46h-308zM1586 510q-62 0 -107.5 45.5t-45.5 107.5
v462h105v514h409v-514h101v-462q0 -62 -43.5 -107.5t-110.5 -45.5h-308z" />
</svg>
