<?xml version="1.0" standalone="no"?>
<!DOCTYPE svg PUBLIC "-//W3C//DTD SVG 1.1//EN" "http://www.w3.org/Graphics/SVG/1.1/DTD/svg11.dtd" >
<svg xmlns="http://www.w3.org/2000/svg" xmlns:xlink="http://www.w3.org/1999/xlink" version="1.1" width="2048" height="2048" viewBox="-10 0 2068 2048">
   <path fill="currentColor"
d="M503 881l106 -101l-106 -107l106 -106l207 213l-207 207zM226 729h9q88 -222 286.5 -358t442.5 -136q157 0 300 60t254 166q18 -83 78 -189q-129 -111 -293 -170.5t-339 -59.5q-235 0 -440.5 103.5t-343.5 285.5t-180 408q42 -50 101.5 -80t124.5 -30zM1850 876
q-56 0 -116 -23q19 88 19 171q0 212 -106 394.5t-288.5 288.5t-394.5 106q-244 0 -442.5 -136t-286.5 -358h-9q-78 0 -148 -41q-46 -23 -78 -65q42 222 180 404t343.5 285.5t440.5 103.5q268 0 494 -131t357.5 -357t131.5 -494q0 -69 -14 -161q-46 13 -83 13zM1850 138
q-28 37 -51 79q-60 92 -97 166q-51 101 -51 147q0 83 58 141t141 58t140.5 -58t57.5 -141q0 -64 -101 -235q-47 -87 -97 -157zM1319 567l-207 213l207 207l106 -106l-106 -101l106 -107zM627 1518q51 -93 141 -146t196 -53t196 53t141 146h166q-60 -157 -196 -251.5
t-307 -94.5q-129 0 -240 55l-350 -203q0 -37 -18.5 -71.5t-55.5 -57.5q-56 -28 -113.5 -12t-87.5 69.5t-16 111t69 89.5q33 19 74.5 19t73.5 -19l290 171q-83 78 -129 194h166z" />
</svg>
