<?xml version="1.0" standalone="no"?>
<!DOCTYPE svg PUBLIC "-//W3C//DTD SVG 1.1//EN" "http://www.w3.org/Graphics/SVG/1.1/DTD/svg11.dtd" >
<svg xmlns="http://www.w3.org/2000/svg" xmlns:xlink="http://www.w3.org/1999/xlink" version="1.1" width="2048" height="2048" viewBox="-10 0 2058 2048">
   <path fill="currentColor"
d="M1950 1909l-139 139l-320 -311l-107 241l-195 -687l692 195l-251 102zM1681 697h-1384v1086h831l56 200h-887q-83 0 -141 -58t-58 -142v-1384q0 -83 58 -141t141 -58h98v-200h199v200h790v-200h200v200h97q84 0 142 58t58 141v887l-200 -60v-529zM989 892v497h-497v-497
h497z" />
</svg>
