<?xml version="1.0" standalone="no"?>
<!DOCTYPE svg PUBLIC "-//W3C//DTD SVG 1.1//EN" "http://www.w3.org/Graphics/SVG/1.1/DTD/svg11.dtd" >
<svg xmlns="http://www.w3.org/2000/svg" xmlns:xlink="http://www.w3.org/1999/xlink" version="1.1" width="2048" height="2048" viewBox="-10 0 2068 2048">
   <path fill="currentColor"
d="M1563 318l60 132l132 60l-132 64l-60 132l-64 -132l-132 -64l132 -60zM1856 1195q78 0 135 -57t57 -139q0 -69 -96 -233q-50 -87 -96 -156l-50 78q-60 91 -96 160q-51 105 -51 151q0 82 57.5 139t139.5 57zM978 423v-206h192q83 0 151 46l142 -142q-133 -96 -293 -96
h-535v192h147v206q-128 32 -226.5 119t-139.5 215h210q41 -69 107.5 -108t144.5 -39q119 0 203.5 82.5t88.5 201.5l197 73v-64q0 -178 -112 -311t-277 -169zM2048 1680v101l-777 242l-686 -188v138h-585v-1070h777l604 224q82 27 132 100.5t50 159.5h192q124 0 208.5 87
t84.5 206zM393 1781v-686h-196v686h196zM1847 1639q-14 -23 -39 -39t-53 -16h-521q-82 0 -155 -23l-229 -78l60 -187l233 78q18 4 123 13h101q0 -27 -16 -47.5t-39 -29.5l-567 -215h-160v539l681 183z" />
</svg>
