<?xml version="1.0" standalone="no"?>
<!DOCTYPE svg PUBLIC "-//W3C//DTD SVG 1.1//EN" "http://www.w3.org/Graphics/SVG/1.1/DTD/svg11.dtd" >
<svg xmlns="http://www.w3.org/2000/svg" xmlns:xlink="http://www.w3.org/1999/xlink" version="1.1" width="2048" height="2048" viewBox="-10 0 2068 2048">
   <path fill="currentColor"
d="M885 279q-157 0 -290 74t-218 202.5t-98 281.5h-279l375 374l370 -374h-274q17 -157 134.5 -264t279.5 -107q174 0 296 122t122 296.5t-122 296.5t-296 122h-789v187h789q165 0 302.5 -82.5t220 -220t82.5 -303t-82.5 -303t-220 -220t-302.5 -82.5zM1673 1024v279h-231
q-87 113 -209 187h440v279l375 -375z" />
</svg>
