<?xml version="1.0" standalone="no"?>
<!DOCTYPE svg PUBLIC "-//W3C//DTD SVG 1.1//EN" "http://www.w3.org/Graphics/SVG/1.1/DTD/svg11.dtd" >
<svg xmlns="http://www.w3.org/2000/svg" xmlns:xlink="http://www.w3.org/1999/xlink" version="1.1" width="2048" height="2048" viewBox="-10 0 2068 2048">
   <path fill="currentColor"
d="M1125 1947h-202v-1538l-202 -207l96 -101l207 207l207 -207l101 101l-207 207v1538zM1231 716v-206q134 -101 307 -101q140 0 257.5 69.5t185 187.5t67.5 257q0 120 -55.5 228.5t-146.5 180.5v206q0 169 -120 289t-293 120q-111 0 -202 -58v-202q91 53 202 53
q86 0 146 -60t60 -142v-327q92 -33 149.5 -112.5t57.5 -175.5q0 -130 -91.5 -219t-216.5 -89q-173 0 -307 101zM817 716q-134 -101 -307 -101q-125 0 -216.5 89t-91.5 219q0 96 57.5 175.5t149.5 112.5v327q0 82 60 142t146 60q111 0 202 -53v202q-91 58 -202 58
q-173 0 -293 -120t-120 -289v-206q-91 -72 -146.5 -180.5t-55.5 -228.5q0 -139 67.5 -257t185 -187.5t257.5 -69.5q173 0 307 101v206zM716 923l-154 -154l-153 154l153 154zM1639 923l-153 -154l-154 154l154 154z" />
</svg>
