<?xml version="1.0" standalone="no"?>
<!DOCTYPE svg PUBLIC "-//W3C//DTD SVG 1.1//EN" "http://www.w3.org/Graphics/SVG/1.1/DTD/svg11.dtd" >
<svg xmlns="http://www.w3.org/2000/svg" xmlns:xlink="http://www.w3.org/1999/xlink" version="1.1" width="2048" height="2048" viewBox="-10 0 2058 2048">
   <path fill="currentColor"
d="M769 1639v-923h-154v923h154zM1101 1639v-923h-154v923h154zM1433 1639v-923h-154v923h154zM1538 409q87 0 144.5 60t57.5 146v1125q0 87 -57.5 147t-144.5 60q0 43 -31 72t-72 29t-72 -29t-31 -72h-616q0 43 -31 72t-72 29t-72 -29t-31 -72q-87 0 -144.5 -60t-57.5 -147
v-1125q0 -86 57.5 -146t144.5 -60h206v-308q0 -43 31.5 -72t69.5 -29h414q38 0 69.5 29t31.5 72v308h206zM870 154v255h308v-255h-308zM1538 1740v-1125h-1028v1125h1028z" />
</svg>
