<?xml version="1.0" standalone="no"?>
<!DOCTYPE svg PUBLIC "-//W3C//DTD SVG 1.1//EN" "http://www.w3.org/Graphics/SVG/1.1/DTD/svg11.dtd" >
<svg xmlns="http://www.w3.org/2000/svg" xmlns:xlink="http://www.w3.org/1999/xlink" version="1.1" width="2048" height="2048" viewBox="-10 0 2068 2048">
   <path fill="currentColor"
d="M1125 1947h-202v-1538l-202 -207l96 -101l207 207l207 -207l101 101l-207 207v1538zM510 409q-140 0 -257.5 69.5t-185 187.5t-67.5 257q0 120 55.5 228.5t146.5 180.5v206q0 169 120 289t293 120q106 0 202 -53v-5v-1379q-134 -101 -307 -101zM462 1077l-154 -154
l154 -154l153 154zM2048 923q0 -139 -67.5 -257t-185 -187.5t-257.5 -69.5q-173 0 -307 101v1379q91 58 202 58q173 0 293 -120t120 -289v-206q91 -72 146.5 -180.5t55.5 -228.5zM1586 1077l-153 -154l153 -154l154 154z" />
</svg>
