<?xml version="1.0" standalone="no"?>
<!DOCTYPE svg PUBLIC "-//W3C//DTD SVG 1.1//EN" "http://www.w3.org/Graphics/SVG/1.1/DTD/svg11.dtd" >
<svg xmlns="http://www.w3.org/2000/svg" xmlns:xlink="http://www.w3.org/1999/xlink" version="1.1" width="2048" height="2048" viewBox="-10 0 2068 2048">
   <path fill="currentColor"
d="M1791 420q-100 0 -174 70t-83 170l-458 -131q-52 -17 -104 0l-458 131q-9 -100 -83 -170t-176 -70t-178.5 74.5t-76.5 183.5v322q0 109 76.5 183t180.5 74h179q83 166 239.5 268.5t348.5 102.5t348.5 -102.5t239.5 -268.5h179q104 0 180.5 -74t76.5 -183v-322
q0 -109 -76.5 -183.5t-180.5 -74.5zM375 1118h-118q-48 0 -83 -35t-35 -83v-322q0 -48 35 -83t83 -35t83 35t35 83v440zM1303 978l-240 -65q-48 -13 -78 0l-240 65v-91l214 -66q56 -17 130 0l214 66v91zM1909 1000q0 48 -35 83t-83 35h-118v-440q0 -48 35 -83t83 -35t83 35
t35 83v322z" />
</svg>
