<?xml version="1.0" standalone="no"?>
<!DOCTYPE svg PUBLIC "-//W3C//DTD SVG 1.1//EN" "http://www.w3.org/Graphics/SVG/1.1/DTD/svg11.dtd" >
<svg xmlns="http://www.w3.org/2000/svg" xmlns:xlink="http://www.w3.org/1999/xlink" version="1.1" width="2048" height="2048" viewBox="-10 0 2068 2048">
   <path fill="currentColor"
d="M923 1231h-207q0 -250 125 -464t336.5 -336.5t461.5 -122.5v202q-197 0 -360.5 96t-259.5 262t-96 363zM1639 923v-207q-139 0 -257 70t-187.5 187.5t-69.5 257.5h207q0 -130 89 -219t218 -89zM510 202q0 -82 -60.5 -142t-144.5 -60t-144 60t-60 144t60 144.5t144 60.5
t144.5 -60.5t60.5 -146.5zM966 255h-202q-19 110 -105.5 182.5t-196.5 72.5h-308q-67 0 -110.5 45.5t-43.5 107.5v260h615v-236q145 -43 241 -160.5t110 -271.5zM1740 1538q87 0 147 -60t60 -146.5t-60 -146.5t-144 -60t-144.5 60t-60.5 146.5t60.5 146.5t141.5 60z
M1894 1639h-308q-110 0 -196.5 -72t-105.5 -182h-202q14 149 110 269t241 163v231h615v-255q0 -62 -43.5 -108t-110.5 -46z" />
</svg>
