<?xml version="1.0" standalone="no"?>
<!DOCTYPE svg PUBLIC "-//W3C//DTD SVG 1.1//EN" "http://www.w3.org/Graphics/SVG/1.1/DTD/svg11.dtd" >
<svg xmlns="http://www.w3.org/2000/svg" xmlns:xlink="http://www.w3.org/1999/xlink" version="1.1" width="2048" height="2048" viewBox="-10 0 2068 2048">
   <path fill="currentColor"
d="M587 1365l93 -341h-182l86 342q0 1 1 3.5t1 3.5q0 -1 0.5 -4t0.5 -4zM720 877l40 -146h-334l37 146h257zM939 877h159l-40 -146h-80zM1453 1366l89 -342h-185l92 341q0 1 0.5 4t1.5 4q0 -1 1 -3.5t1 -3.5zM1579 877l38 -146h-339l39 146h262zM2048 914v73
q0 16 -10.5 26.5t-26.5 10.5h-243l-187 704q-8 27 -36 27h-182q-27 0 -35 -27l-190 -704h-239l-190 704q-8 27 -36 27h-182q-12 0 -22 -7.5t-12 -19.5l-183 -704h-237q-16 0 -26.5 -10.5t-10.5 -26.5v-73q0 -16 10.5 -26.5t26.5 -10.5h200l-38 -146h-162q-16 0 -26.5 -10.5
t-10.5 -26.5v-73q0 -16 10.5 -26t26.5 -10h124l-102 -393q-5 -18 6 -32q12 -14 30 -14h156q13 0 23.5 7.5t12.5 19.5l103 412h410l111 -412q8 -27 35 -27h144q28 0 36 27l112 412h417l106 -412q2 -12 12.5 -19.5t23.5 -7.5h156q18 0 30 14q11 14 6 32l-104 393h126
q16 0 26.5 10t10.5 26v73q0 16 -10.5 26.5t-26.5 10.5h-165l-39 146h204q16 0 26.5 10.5t10.5 26.5z" />
</svg>
