<?xml version="1.0" standalone="no"?>
<!DOCTYPE svg PUBLIC "-//W3C//DTD SVG 1.1//EN" "http://www.w3.org/Graphics/SVG/1.1/DTD/svg11.dtd" >
<svg xmlns="http://www.w3.org/2000/svg" xmlns:xlink="http://www.w3.org/1999/xlink" version="1.1" width="2048" height="2048" viewBox="-10 0 2058 2048">
   <path fill="currentColor"
d="M1607 731q21 209 -150 295q65 16 113 42.5t82.5 69.5t49 105.5t7 144.5t-37 143.5t-74 101.5t-110.5 66.5t-138.5 39t-166.5 17.5v292h-176v-287q-92 0 -140 -1v288h-176v-292q-20 0 -61.5 -0.5t-62.5 -0.5h-229l35 -209h127q33 0 48.5 -17.5t18.5 -40.5v-460h18
q-7 -1 -18 -1v-328q-15 -78 -102 -78h-127v-187l242 1q73 0 111 -1v-288h176v282q94 -2 140 -2v-280h176v288q71 6 129.5 18t112 35t91 55t62.5 80t30 109zM1361 1354q0 -33 -11 -60.5t-28.5 -46.5t-44.5 -34t-54 -24.5t-63 -16t-65.5 -9t-66.5 -3.5t-61 -0.5t-54.5 1
t-42.5 0.5v386q9 0 42.5 0.5t55 0.5t60.5 -1.5t67 -4.5t65 -9.5t63 -16t54 -24.5t45 -34t28 -45.5t11 -58.5zM1280 810q0 -37 -14 -66.5t-35 -48t-55 -32t-63 -19.5t-70.5 -9t-66 -3t-61 1t-45.5 1v351q8 0 35.5 0.5t45.5 0.5t50.5 -1.5t56 -4t54.5 -8.5t53 -14.5t45 -22.5
t37.5 -31t23.5 -41t9 -53z" />
</svg>
