<?xml version="1.0" standalone="no"?>
<!DOCTYPE svg PUBLIC "-//W3C//DTD SVG 1.1//EN" "http://www.w3.org/Graphics/SVG/1.1/DTD/svg11.dtd" >
<svg xmlns="http://www.w3.org/2000/svg" xmlns:xlink="http://www.w3.org/1999/xlink" version="1.1" width="2048" height="2048" viewBox="-10 0 2068 2048">
   <path fill="currentColor"
d="M1434 1165q43 0 76.5 34t33.5 79.5t-33.5 79t-79 33.5t-79 -33.5t-33.5 -79t33.5 -79.5t81.5 -34zM1434 1482q-67 0 -139 29q-86 38 -86 86q38 53 98 86.5t127 33.5t124.5 -33.5t101.5 -86.5q0 -48 -87 -86q-72 -29 -139 -29zM1535 830v-494l-768 -336l-767 336v503
q0 226 100.5 439.5t276 364.5t390.5 199q63 -10 163 -53q87 120 219 189.5t285 69.5q163 0 304.5 -84t225.5 -225.5t84 -304.5q0 -230 -146.5 -398t-366.5 -206zM820 1434q0 58 19 163l-72 29q-244 -77 -402.5 -297.5t-158.5 -489.5v-369l561 -245l562 245v360
q-216 38 -362.5 206t-146.5 398zM1434 1842q-173 0 -292.5 -120t-119.5 -290.5t119.5 -290t290 -119.5t290.5 119.5t120 290t-120 290.5t-288 120z" />
</svg>
