<?xml version="1.0" standalone="no"?>
<!DOCTYPE svg PUBLIC "-//W3C//DTD SVG 1.1//EN" "http://www.w3.org/Graphics/SVG/1.1/DTD/svg11.dtd" >
<svg xmlns="http://www.w3.org/2000/svg" xmlns:xlink="http://www.w3.org/1999/xlink" version="1.1" width="2048" height="2048" viewBox="-10 0 2068 2048">
   <path fill="currentColor"
d="M1974 703q82 -82 73 -188q-14 -82 -73 -147l-294 -293q-83 -83 -188 -74q-83 14 -147 74l-165 165h-252q-133 0 -225 64q-78 55 -124 147l-436 436v390l-69 69q-82 82 -73 188q14 82 73 147l294 293q73 74 161 74q50 0 96 -21t78 -53l261 -266h354q114 0 192 -64
q65 -51 87 -138q78 -23 134 -78q41 -50 64 -119q105 -28 160 -119q46 -78 46 -166v-293h-55zM1809 1024q0 42 -23 69.5t-78 27.5h-97v101q0 36 -23 66t-73 30h-101v96q0 42 -20.5 71.5t-75.5 29.5h-432l-321 322q-32 27 -59 0l-294 -294q-28 -28 0 -60l128 -124v-394
l193 -193v156q0 106 69 188q78 106 225 106t229 -106q64 -82 64 -188h689v96zM1836 566l-165 165h-743v197q0 37 -23 66.5t-76 29.5t-76 -29.5t-23 -66.5v-294q0 -64 32 -114q51 -83 166 -83h330l225 -225q32 -27 59 0l294 294q28 28 0 60z" />
</svg>
