<?xml version="1.0" standalone="no"?>
<!DOCTYPE svg PUBLIC "-//W3C//DTD SVG 1.1//EN" "http://www.w3.org/Graphics/SVG/1.1/DTD/svg11.dtd" >
<svg xmlns="http://www.w3.org/2000/svg" xmlns:xlink="http://www.w3.org/1999/xlink" version="1.1" width="2048" height="2048" viewBox="-10 0 2068 2048">
   <path fill="currentColor"
d="M1595 912q80 0 112 11v-550l-854 -373l-853 373v560q0 251 112 488.5t306.5 405.5t434.5 221q70 -11 182 -59q-123 -176 -123 -394q0 -187 90.5 -344.5t248 -248t344.5 -90.5zM1595 1136q-192 0 -325.5 133.5t-133.5 322.5t133.5 322.5t322.5 133.5t322.5 -133.5
t133.5 -322.5t-133.5 -322.5t-319.5 -133.5zM1595 1296q48 0 85 37.5t37 88t-37 88t-88 37.5t-88 -37.5t-37 -88t37 -88t91 -37.5zM1595 1909q-75 0 -141.5 -37t-109.5 -96q5 -53 96 -96q80 -32 154.5 -32t154.5 32q96 43 96 96q-48 59 -112 96t-138 37z" />
</svg>
