<?xml version="1.0" standalone="no"?>
<!DOCTYPE svg PUBLIC "-//W3C//DTD SVG 1.1//EN" "http://www.w3.org/Graphics/SVG/1.1/DTD/svg11.dtd" >
<svg xmlns="http://www.w3.org/2000/svg" xmlns:xlink="http://www.w3.org/1999/xlink" version="1.1" width="2048" height="2048" viewBox="-10 0 2068 2048">
   <path fill="currentColor"
d="M1620 574q-64 0 -136 24l-252 -492h-292v128h216l76 148l-208 460l-152 -356q20 -8 32 -24t12 -40t-18 -42t-46 -18h-168q-28 0 -48 18t-20 46t20 46t48 18h52l192 448h-80q-24 -156 -144 -260t-276 -104q-116 0 -214 58t-156 156t-58 214t58 214t156 156t214 58
q156 0 276 -104t144 -260h220l236 -540l68 132q-84 60 -130 150t-46 194q0 116 56 214t154 156t214 58t214 -58t156 -156t58 -214t-58 -214t-156 -156t-214 -58zM428 1302q-124 0 -212 -88t-88 -212t88 -212t212 -88q104 0 186 68t102 168h-376v128h376q-20 100 -102 168
t-186 68zM1620 1302q-124 0 -210 -88t-86 -212q0 -68 28 -126t80 -102l152 300l112 -60l-152 -300q48 -12 76 -12q124 0 212 88t88 212t-88 212t-212 88zM940 1686h-344l512 256v-172h344l-512 -256v172z" />
</svg>
