<?xml version="1.0" standalone="no"?>
<!DOCTYPE svg PUBLIC "-//W3C//DTD SVG 1.1//EN" "http://www.w3.org/Graphics/SVG/1.1/DTD/svg11.dtd" >
<svg xmlns="http://www.w3.org/2000/svg" xmlns:xlink="http://www.w3.org/1999/xlink" version="1.1" width="2048" height="2048" viewBox="-10 0 2068 2048">
   <path fill="currentColor"
d="M510 1125h-409q-43 0 -72 -29t-29 -72t29 -72t72 -29h409q43 0 74 29t31 72t-31 72t-74 29zM409 615q0 -43 -31.5 -74t-69.5 -31h-106q-39 0 -70 31t-31 72t31 72t70 31h106q38 0 69.5 -31t31.5 -70zM2048 1024q0 139 -67.5 257t-185 187.5t-257.5 69.5h-1336
q-39 0 -70 -31t-31 -72t31 -72t70 -31h923q-67 -96 -91 -207h-217q-38 0 -69.5 -29t-31.5 -72t31.5 -72t69.5 -29h217q24 -111 91 -207h-510q-43 0 -74 -31t-31 -72t31 -72t74 -31h923q140 0 257.5 69.5t185 187.5t67.5 257zM1846 1024q0 -125 -91.5 -216.5t-218.5 -91.5
t-216 91.5t-89 216.5t89 216.5t216 91.5t218.5 -91.5t91.5 -216.5z" />
</svg>
