<?xml version="1.0" standalone="no"?>
<!DOCTYPE svg PUBLIC "-//W3C//DTD SVG 1.1//EN" "http://www.w3.org/Graphics/SVG/1.1/DTD/svg11.dtd" >
<svg xmlns="http://www.w3.org/2000/svg" xmlns:xlink="http://www.w3.org/1999/xlink" version="1.1" width="2048" height="2048" viewBox="-10 0 2068 2048">
   <path fill="currentColor"
d="M1861 699q-66 0 -114 35t-65 89.5t0 106.5l-331 336q-48 -18 -96 0l-240 -244q18 -48 0.5 -102.5t-63.5 -91.5t-111 -37t-113 37t-65.5 91.5t-0.5 102.5l-427 418q-82 -22 -158.5 32.5t-76.5 155.5q0 78 54.5 132.5t132.5 54.5q61 0 109 -37t67.5 -91.5t2.5 -106.5
l418 -427q44 17 92 0l240 244q-14 47 6 101.5t68 92t113 37.5t113 -37.5t65.5 -92t0.5 -101.5l331 -336q82 22 158.5 -30.5t76.5 -148.5q0 -74 -54.5 -128.5t-132.5 -54.5zM1303 791l83 -196l196 -83l-196 -83l-83 -196l-83 196l-196 83l196 83zM235 978l44 -187l187 -48
l-187 -44l-44 -187l-48 187l-187 44l187 48z" />
</svg>
