<?xml version="1.0" standalone="no"?>
<!DOCTYPE svg PUBLIC "-//W3C//DTD SVG 1.1//EN" "http://www.w3.org/Graphics/SVG/1.1/DTD/svg11.dtd" >
<svg xmlns="http://www.w3.org/2000/svg" xmlns:xlink="http://www.w3.org/1999/xlink" version="1.1" width="2048" height="2048" viewBox="-10 0 2058 2048">
   <path fill="currentColor"
d="M637 1394h667v-91q0 -153 109 -262t261 -109h70l-174 -784q-18 -65 -68 -106.5t-115 -41.5h-362v187h362l131 580q-153 48 -259.5 168t-133.5 276h-488q-34 -95 -123.5 -147.5t-194.5 -35.5q-82 18 -143 79t-76.5 146t19.5 161t102.5 122t154.5 46t159 -52.5t102 -135.5z
M376 1394q-39 0 -67.5 -26t-28.5 -65t28.5 -65.5t65.5 -26.5t65 26.5t28 65.5t-28 65t-63 26zM1674 1024q-113 0 -195.5 80.5t-82.5 198.5t82.5 198.5t198 80.5t196 -80.5t80.5 -198.5t-80.5 -198.5t-198.5 -80.5zM1674 1394q-34 0 -62.5 -26t-28.5 -65t28.5 -65.5
t65.5 -26.5t65 26.5t28 65.5t-28 65t-68 26zM934 1769h-375l558 279v-187h374l-557 -279v187z" />
</svg>
