<?xml version="1.0" standalone="no"?>
<!DOCTYPE svg PUBLIC "-//W3C//DTD SVG 1.1//EN" "http://www.w3.org/Graphics/SVG/1.1/DTD/svg11.dtd" >
<svg xmlns="http://www.w3.org/2000/svg" xmlns:xlink="http://www.w3.org/1999/xlink" version="1.1" width="2048" height="2048" viewBox="-11 0 2069 2048">
   <path fill="currentColor"
d="M818 154q0 -67 45.5 -110t110.5 -43t108.5 43t43.5 108t-43.5 110.5t-108.5 45.5t-110.5 -45.5t-45.5 -108.5zM2048 616v355l-106 39q-9 91 -81 156t-168 65h-10q-19 100 -96 182v634h-255v-509h-24q-24 0 -67 -10l-452 -72l-115 202l77 389h-260l-81 -384q-5 -53 14 -87
l106 -187q-77 -43 -122.5 -117.5t-50.5 -165.5q-5 28 0 72v33q10 96 7.5 151.5t-26.5 108.5t-58 91q-58 67 -144 111l-67 -68l5 -19q33 -82 33 -115q10 -48 -9 -96l-53 -116q-53 -120 -44 -216q0 -72 38.5 -146.5t101.5 -117.5q130 -86 274 -53q76 15 149 67q57 -24 129 -24
h24v-144q0 -77 48 -139.5t120 -71.5q97 -19 169 43.5t72 158.5v153h153v-52q0 -169 120.5 -289t293.5 -120h355l-91 135q43 29 67 74.5t24 98.5zM1846 942l-110 -168q-10 -19 -26.5 -14t-16.5 24v341q62 0 107.5 -43.5t45.5 -110.5v-29z" />
</svg>
