<?xml version="1.0" standalone="no"?>
<!DOCTYPE svg PUBLIC "-//W3C//DTD SVG 1.1//EN" "http://www.w3.org/Graphics/SVG/1.1/DTD/svg11.dtd" >
<svg xmlns="http://www.w3.org/2000/svg" xmlns:xlink="http://www.w3.org/1999/xlink" version="1.1" width="2048" height="2048" viewBox="-10 0 2066 2048">
   <path fill="currentColor"
d="M1103 1019q-58 -384 -164 -639q-153 -380 -376.5 -380t-377.5 380q-101 250 -159 639q-38 245 -14 452t96 356q48 106 120 173q58 48 135 48h399q77 0 134 -48q173 -164 217 -529q24 -207 -10 -452zM564 202q29 -10 77 55t101 185l-480 409q38 -192 101 -356
q57 -144 112.5 -223.5t88.5 -69.5zM790 1125h-456q-29 0 -53 -19l533 -457q53 178 77 356q10 48 -21 84t-80 36zM2026 1019q-58 -384 -163 -639q-154 -380 -375 -380q-207 0 -351 312q57 154 101 342l533 452q-29 19 -58 19h-394q20 197 0 370q-38 308 -163 505
q58 48 130 48h399q77 0 134 -48q173 -164 217 -529q24 -207 -10 -452zM1310 442q53 -120 101 -185t77 -55q28 -10 86 69.5t111 223.5q62 164 105 356z" />
</svg>
