<?xml version="1.0" standalone="no"?>
<!DOCTYPE svg PUBLIC "-//W3C//DTD SVG 1.1//EN" "http://www.w3.org/Graphics/SVG/1.1/DTD/svg11.dtd" >
<svg xmlns="http://www.w3.org/2000/svg" xmlns:xlink="http://www.w3.org/1999/xlink" version="1.1" width="2048" height="2048" viewBox="-10 0 2068 2048">
   <path fill="currentColor"
d="M1846 101h-1644q-82 0 -142 60t-60 147v1432q0 87 60 147t142 60h1644q82 0 142 -60t60 -147v-1432q0 -87 -60 -147t-142 -60zM615 1740h-307v-202h307v202zM615 1433h-307v-202h307v202zM615 1125h-307v-202h307v202zM1178 1740h-308v-202h308v202zM1178 1433h-308v-202
h308v202zM1178 1125h-308v-202h308v202zM1740 1740h-307v-202h307v202zM1740 1433h-307v-202h307v202zM1740 1125h-307v-202h307v202zM1740 716h-1432v-408h1432v408z" />
</svg>
