<?xml version="1.0" standalone="no"?>
<!DOCTYPE svg PUBLIC "-//W3C//DTD SVG 1.1//EN" "http://www.w3.org/Graphics/SVG/1.1/DTD/svg11.dtd" >
<svg xmlns="http://www.w3.org/2000/svg" xmlns:xlink="http://www.w3.org/1999/xlink" version="1.1" width="2048" height="2048" viewBox="-10 0 2068 2048">
   <path fill="currentColor"
d="M2048 1022l-297 -110q-18 -69 -55 -128l-37 -46q-118 -123 -287.5 -123t-288.5 123l-146 142l-644 -686q-74 288 -10 571.5t247 521.5l-530 516l142 23q178 28 352 28q247 -5 448 -51q256 -64 429 -201q183 -141 270 -260q64 -87 96 -201zM1531 1045q-27 27 -68 27
t-71 -27.5t-30 -68.5t30 -68.5t71 -27.5t68.5 27.5t27.5 68.5t-28 69z" />
</svg>
