<?xml version="1.0" standalone="no"?>
<!DOCTYPE svg PUBLIC "-//W3C//DTD SVG 1.1//EN" "http://www.w3.org/Graphics/SVG/1.1/DTD/svg11.dtd" >
<svg xmlns="http://www.w3.org/2000/svg" xmlns:xlink="http://www.w3.org/1999/xlink" version="1.1" width="2048" height="2048" viewBox="-10 0 2058 2048">
   <path fill="currentColor"
d="M1824 544q17 17 32 41h-540v-540q24 15 42 32zM1280 731h622v1207q0 46 -32 78t-78 32h-1536q-45 0 -77.5 -32t-32.5 -78v-1829q0 -46 32.5 -77.5t77.5 -31.5h914v621q0 46 32.5 78t77.5 32zM1464 1572v-73q0 -16 -11 -26.5t-27 -10.5h-804q-16 0 -26 10.5t-10 26.5v73
q0 16 10 26.5t26 10.5h804q16 0 27 -10.5t11 -26.5zM1464 1280v-74q0 -16 -11 -26t-27 -10h-804q-16 0 -26 10t-10 26v74q0 16 10 26t26 10h804q16 0 27 -10t11 -26zM1464 987v-73q0 -16 -11 -26.5t-27 -10.5h-804q-16 0 -26 10.5t-10 26.5v73q0 16 10 26.5t26 10.5h804
q16 0 27 -10.5t11 -26.5z" />
</svg>
