<?xml version="1.0" standalone="no"?>
<!DOCTYPE svg PUBLIC "-//W3C//DTD SVG 1.1//EN" "http://www.w3.org/Graphics/SVG/1.1/DTD/svg11.dtd" >
<svg xmlns="http://www.w3.org/2000/svg" xmlns:xlink="http://www.w3.org/1999/xlink" version="1.1" width="2048" height="2048" viewBox="-10 0 2068 2048">
   <path fill="currentColor"
d="M1947 553h-72l-5 -5q-159 -10 -288.5 -58t-196.5 -120l-154 77l-20 29q121 106 121 231q0 38 -20 96l-192 -192q-38 43 -72 72l207 206q-34 44 -77 73l-212 -217q-33 24 -91 58l207 211q-53 20 -111 29l-192 -192q-63 24 -106 38l173 173h-29q-226 0 -380 -120
q-115 20 -235 20q-91 0 -144 81q-39 53 -53 144l-5 82q0 87 60 147t142 60v101q0 43 31 72t72 29t72.5 -29t31.5 -72v-101h101v101q0 43 31 72t72 29t72 -29t31 -72v-101h101v101q0 43 31.5 72t72.5 29t72 -29t31 -72v-101h308v101q0 43 31 72t72 29t72 -29t31 -72v-101h101
v101q0 43 31.5 72t72.5 29t72 -29t31 -72v-101h101l14 -10q20 -14 39 -48q19 -53 34 -139q14 -106 14 -267t-24 -276q-19 -87 -48 -145z" />
</svg>
