<?xml version="1.0" standalone="no"?>
<!DOCTYPE svg PUBLIC "-//W3C//DTD SVG 1.1//EN" "http://www.w3.org/Graphics/SVG/1.1/DTD/svg11.dtd" >
<svg xmlns="http://www.w3.org/2000/svg" xmlns:xlink="http://www.w3.org/1999/xlink" version="1.1" width="2048" height="2048" viewBox="-10 0 2068 2048">
   <path fill="currentColor"
d="M1705 0l-105 238l-238 105l238 105l105 238l105 -238l238 -105l-238 -105zM974 101q-265 0 -489 130t-354.5 354t-130.5 489t130.5 489t354.5 354.5t489 130.5t489 -130.5t354 -354.5t130 -489q0 -210 -86 -402l-119 261q13 73 13 141q0 211 -105 391.5t-285.5 285.5
t-391 105t-391 -105t-285.5 -285.5t-105 -391.5v-13q192 -74 338.5 -213t223.5 -327q137 169 336 263t419 94q68 0 132 -9l-87 -183h-45q-206 0 -382 -103t-286 -277q78 -13 137.5 -13t132.5 13l265 -119q-192 -86 -402 -86zM594 393q-45 137 -139 251.5t-222 187.5
q46 -142 139.5 -254t221.5 -185zM681 1051q-50 0 -86.5 34.5t-36.5 85t36.5 87t86.5 36.5t87 -36.5t37 -87t-37 -85t-87 -34.5zM1266 1051q-50 0 -86.5 34.5t-36.5 85t36.5 87t87 36.5t87 -36.5t36.5 -87t-36.5 -85t-87.5 -34.5z" />
</svg>
