<?xml version="1.0" standalone="no"?>
<!DOCTYPE svg PUBLIC "-//W3C//DTD SVG 1.1//EN" "http://www.w3.org/Graphics/SVG/1.1/DTD/svg11.dtd" >
<svg xmlns="http://www.w3.org/2000/svg" xmlns:xlink="http://www.w3.org/1999/xlink" version="1.1" width="2048" height="2048" viewBox="-10 0 2058 2048">
   <path fill="currentColor"
d="M827 1563q-77 0 -134.5 -57t-57.5 -139t57.5 -139.5t137.5 -57.5t137 57.5t57 139.5t-57 139t-140 57zM1413 1856v-978h-1171v978h1171zM1413 686q82 0 139 57t57 135v978q0 78 -57 135t-139 57h-1171q-77 0 -134.5 -57t-57.5 -135v-978q0 -78 57.5 -135t134.5 -57h101
v-197q0 -132 64 -244t176 -178.5t247 -66.5t247 66.5t176 178.5t64 244v197h96zM827 197q-123 0 -207.5 84.5t-84.5 207.5v197h585v-197q0 -123 -82.5 -207.5t-210.5 -84.5zM1998 585h-192v585h192v-585zM1998 1367h-192v196h192v-196z" />
</svg>
