<?xml version="1.0" standalone="no"?>
<!DOCTYPE svg PUBLIC "-//W3C//DTD SVG 1.1//EN" "http://www.w3.org/Graphics/SVG/1.1/DTD/svg11.dtd" >
<svg xmlns="http://www.w3.org/2000/svg" xmlns:xlink="http://www.w3.org/1999/xlink" version="1.1" width="2048" height="2048" viewBox="-11 0 2069 2048">
   <path fill="currentColor"
d="M1440 934q-21 -27 -69 -80l-16 -16q-37 -27 -106 -80q-91 -70 -134 -107q-122 -122 -149 -306t53 -344q-138 32 -282 149q-224 181 -301.5 463.5t29.5 549.5q11 21 11 37q0 43 -40 59t-78 -16q-10 -6 -16 -16q-95 -123 -111 -283t47 -304q-138 118 -212.5 299t-64.5 368
q16 112 32 170q22 91 80 197q96 144 245.5 243t319.5 120q197 27 368 -16q192 -43 325 -165q155 -144 203 -349.5t-32 -402.5l-11 -26q-27 -54 -91 -144zM1083 1648q-58 53 -128 69q-85 32 -181 0q-85 -27 -149 -91q96 -26 160 -90t80 -144q16 -64 -16 -181l-16 -75
q-22 -128 21 -234q43 85 72 122.5t98.5 98.5t96.5 98q48 54 58 123q11 21 11 48q0 69 -29.5 141t-77.5 115zM2048 1136h-229v-682h229v682zM2048 1595h-229v-230h229v230z" />
</svg>
