<?xml version="1.0" standalone="no"?>
<!DOCTYPE svg PUBLIC "-//W3C//DTD SVG 1.1//EN" "http://www.w3.org/Graphics/SVG/1.1/DTD/svg11.dtd" >
<svg xmlns="http://www.w3.org/2000/svg" xmlns:xlink="http://www.w3.org/1999/xlink" version="1.1" width="2048" height="2048" viewBox="-10 0 2068 2048">
   <path fill="currentColor"
d="M2004 1336l-200 196l200 200l-130 131l-201 -201l-196 201l-131 -131l197 -200l-197 -196l131 -131l196 196l201 -196zM1024 604q-118 0 -198.5 80.5t-80.5 198t80.5 198t198.5 80.5t198.5 -80.5t80.5 -198t-80.5 -198t-198.5 -80.5zM1024 1392q-261 0 -483.5 -137
t-335.5 -373q113 -235 335.5 -372t483.5 -137t483.5 137t335.5 372q-26 53 -61 105q100 17 179 65q48 -78 87 -170q-122 -309 -401 -503t-623 -194t-623 194t-401 503q122 310 401 504t623 194q65 0 96 -5q-4 -13 -4 -43q0 -70 21 -149q-65 9 -113 9z" />
</svg>
