<?xml version="1.0" standalone="no"?>
<!DOCTYPE svg PUBLIC "-//W3C//DTD SVG 1.1//EN" "http://www.w3.org/Graphics/SVG/1.1/DTD/svg11.dtd" >
<svg xmlns="http://www.w3.org/2000/svg" xmlns:xlink="http://www.w3.org/1999/xlink" version="1.1" width="2048" height="2048" viewBox="-10 0 2068 2048">
   <path fill="currentColor"
d="M2004 1336l-200 196l200 200l-130 131l-201 -201l-196 201l-131 -131l197 -200l-197 -196l131 -131l196 196l201 -196zM1024 604q-118 0 -198.5 80.5t-80.5 198t80.5 198t198.5 80.5t198.5 -80.5t80.5 -198t-80.5 -198t-198.5 -80.5zM1024 1349q-126 0 -233 -63.5
t-170 -170t-63 -233t63 -233t170 -170t233 -63.5t233 63.5t170 170t63 232.5q0 61 -22 135q101 -43 205 -43q153 0 288 78q48 -78 87 -170q-122 -309 -401 -503t-623 -194t-623 194t-401 503q122 310 401 504t623 194q65 0 96 -5q-4 -13 -4 -43q0 -105 43 -205
q-74 22 -135 22z" />
</svg>
