<?xml version="1.0" standalone="no"?>
<!DOCTYPE svg PUBLIC "-//W3C//DTD SVG 1.1//EN" "http://www.w3.org/Graphics/SVG/1.1/DTD/svg11.dtd" >
<svg xmlns="http://www.w3.org/2000/svg" xmlns:xlink="http://www.w3.org/1999/xlink" version="1.1" width="2048" height="2048" viewBox="-10 0 2068 2048">
   <path fill="currentColor"
d="M1024 142q-183 0 -357 65q-148 57 -284 161q-108 83 -209 192q-69 78 -130 161l-44 70l771 771q66 -78 161 -104l-296 -297l388 -388l388 388l-296 297q95 26 161 104l771 -771l-44 -70q-61 -83 -130 -161q-101 -109 -209 -192q-136 -104 -284 -161q-174 -65 -357 -65z
M1543 1031l-519 -519l-519 519l-261 -262q131 -170 292 -283q235 -161 488 -161t484 161q165 113 296 283zM1116 1161q0 39 -26.5 67.5t-65.5 28.5t-65.5 -28.5t-26.5 -65.5t26.5 -65t65.5 -28t65.5 28t26.5 63zM1163 1815l-139 91l-139 -91v-187h278v187z" />
</svg>
