<?xml version="1.0" standalone="no"?>
<!DOCTYPE svg PUBLIC "-//W3C//DTD SVG 1.1//EN" "http://www.w3.org/Graphics/SVG/1.1/DTD/svg11.dtd" >
<svg xmlns="http://www.w3.org/2000/svg" xmlns:xlink="http://www.w3.org/1999/xlink" version="1.1" width="2048" height="2048" viewBox="-10 0 2068 2048">
   <path fill="currentColor"
d="M389 1106l-389 -390l72 -96q96 -115 207 -211q158 -135 327 -212q206 -96 418 -96t418 96q169 77 327 212q111 96 207 211l72 96l-389 390l-635 -635zM1178 1639h-308v207l154 101l154 -101v-207zM1514 1250l-264 264q-101 -81 -226 -81t-226 81l-264 -264l490 -490z
M1125 1231q0 -44 -29 -75t-72 -31t-72 31t-29 72t29 72.5t72 31.5t72 -31.5t29 -69.5z" />
</svg>
