<?xml version="1.0" standalone="no"?>
<!DOCTYPE svg PUBLIC "-//W3C//DTD SVG 1.1//EN" "http://www.w3.org/Graphics/SVG/1.1/DTD/svg11.dtd" >
<svg xmlns="http://www.w3.org/2000/svg" xmlns:xlink="http://www.w3.org/1999/xlink" version="1.1" width="2048" height="2048" viewBox="-10 0 2068 2048">
   <path fill="currentColor"
d="M1842 1719l-1719 -1719l-123 123l306 307q-55 23 -89 71t-34 112v681q0 59 32 107t87 71l370 174v137l-101 96v96h1280l74 73l123 -123zM672 1431l-293 -137v-681h106l187 182v636zM672 219l-101 -96v-96h1367v96l-96 96v1248l-955 -955h759v-293h-782v275l-192 -197v-78
z" />
</svg>
