<?xml version="1.0" standalone="no"?>
<!DOCTYPE svg PUBLIC "-//W3C//DTD SVG 1.1//EN" "http://www.w3.org/Graphics/SVG/1.1/DTD/svg11.dtd" >
<svg xmlns="http://www.w3.org/2000/svg" xmlns:xlink="http://www.w3.org/1999/xlink" version="1.1" width="2048" height="2048" viewBox="-10 0 2068 2048">
   <path fill="currentColor"
d="M1351 379v-283h-327v183h139v100q-104 9 -213 39q-26 -43 -79 -43h-313q-35 0 -63.5 26t-28.5 65t28.5 65.5t63.5 26.5h100q-209 144 -335.5 368t-135.5 486q-82 30 -134.5 102t-52.5 159q0 118 83 198.5t198.5 80.5t196 -80.5t80.5 -198.5q0 -87 -50 -159t-133 -102
q8 -209 104 -388q-13 74 -13 139q0 214 107 397t287.5 287.5t396.5 104.5t396.5 -104.5t287.5 -287.5t107 -397q0 -200 -93.5 -370t-252.5 -281t-351 -133zM279 1769q-35 0 -63.5 -28.5t-28.5 -65.5t28.5 -65t65.5 -28t65.5 28t28.5 65t-28.5 65.5t-67.5 28.5zM1255 1769
q-161 0 -300.5 -82.5t-220 -220t-80.5 -303.5q0 -222 146 -392t363 -205v737h188v-737q218 35 364 205t146 392q0 166 -81 303.5t-220 220t-305 82.5z" />
</svg>
