<?xml version="1.0" standalone="no"?>
<!DOCTYPE svg PUBLIC "-//W3C//DTD SVG 1.1//EN" "http://www.w3.org/Graphics/SVG/1.1/DTD/svg11.dtd" >
<svg xmlns="http://www.w3.org/2000/svg" xmlns:xlink="http://www.w3.org/1999/xlink" version="1.1" width="2048" height="2048" viewBox="-10 0 2068 2048">
   <path fill="currentColor"
d="M594 219l-196 -192h1444q78 0 135 57.5t57 134.5v1171q0 55 -27.5 100.5t-72.5 72.5l-169 -173h77v-1171h-1248zM2048 1925l-123 123l-462 -462h-215l-361 361q-32 28 -69 28h-50q-41 0 -68.5 -27.5t-27.5 -68.5v-293h-393q-78 0 -135 -57t-57 -139v-1180l-87 -87
l123 -123zM1266 1390l-987 -983v983h585v301l302 -301h100z" />
</svg>
