<?xml version="1.0" standalone="no"?>
<!DOCTYPE svg PUBLIC "-//W3C//DTD SVG 1.1//EN" "http://www.w3.org/Graphics/SVG/1.1/DTD/svg11.dtd" >
<svg xmlns="http://www.w3.org/2000/svg" xmlns:xlink="http://www.w3.org/1999/xlink" version="1.1" width="2048" height="2048" viewBox="-10 0 2058 2048">
   <path fill="currentColor"
d="M1418 1636h202l-82 -249l-14 -54q-2 -18 -2 -23h-4l-4 23q-1 4 -2.5 14t-4 20t-5.5 20zM898 1645q0 15 -11 28l-365 364q-13 11 -26.5 11t-25.5 -11l-366 -365q-17 -19 -8 -40q10 -23 34 -23h220v-1573q0 -16 10 -26t26 -10h220q16 0 26 10t10 26v1573h220q16 0 26 10
t10 26zM1955 1926v122h-329v-122h86l-54 -164h-278l-53 164h85v122h-328v-122h80l263 -756h185l263 756h80zM1854 611v266h-668v-103l422 -604q13 -20 24 -31l12 -10v-4q-2 0 -7 0.5t-9 0.5q-18 4 -34 4h-265v131h-137v-261h648v101l-422 606q-10 14 -24 30l-12 11v4l16 -4
q10 -1 34 -1h283v-136h139z" />
</svg>
