<?xml version="1.0" standalone="no"?>
<!DOCTYPE svg PUBLIC "-//W3C//DTD SVG 1.1//EN" "http://www.w3.org/Graphics/SVG/1.1/DTD/svg11.dtd" >
<svg xmlns="http://www.w3.org/2000/svg" xmlns:xlink="http://www.w3.org/1999/xlink" version="1.1" width="2048" height="2048" viewBox="-10 0 2058 2048">
   <path fill="currentColor"
d="M1231 154q0 62 -46 108t-110.5 46t-108 -46t-43.5 -110.5t43.5 -108t108 -43.5t110.5 43.5t46 110.5zM663 308q-62 0 -107.5 43t-45.5 108t45.5 110.5t110.5 45.5t108 -45.5t43 -110.5t-43 -108t-111 -43zM1231 1024l-82 -231h303l221 -110q29 -15 38.5 -43.5t-2.5 -57.5
t-43 -41t-60 2l-87 44l-48 -87q-24 -48 -72 -74.5t-101 -12.5l-255 53q-53 15 -86.5 58t-33.5 96v72l-250 169v0q-19 14 -24 28l-91 178l-183 92q-29 14 -38.5 45.5t4.5 59.5q20 44 68 44q19 0 33 -10l231 -115l106 -212l144 154q-38 106 -173 245q-111 106 -279 231
q-120 86 -255 173l-115 72l125 53q159 58 332 96q240 53 466 53t466 -53q173 -38 332 -96l125 -53l-139 -125q-169 -149 -303 -303q-183 -211 -274 -394zM1519 933l-29 14h-125l5 15q77 153 216 312l-52 -351z" />
</svg>
