<?xml version="1.0" standalone="no"?>
<!DOCTYPE svg PUBLIC "-//W3C//DTD SVG 1.1//EN" "http://www.w3.org/Graphics/SVG/1.1/DTD/svg11.dtd" >
<svg xmlns="http://www.w3.org/2000/svg" xmlns:xlink="http://www.w3.org/1999/xlink" version="1.1" width="2048" height="2048" viewBox="-10 0 2068 2048">
   <path fill="currentColor"
d="M1024 1533q108 0 182.5 75t74.5 182.5t-74.5 182.5t-182.5 75t-182.5 -75t-74.5 -182.5t74.5 -182.5t182.5 -75zM1407 767q108 0 183 74.5t75 182.5t-75 182.5t-183 74.5t-182.5 -74.5t-74.5 -182.5t74.5 -182.5t182.5 -74.5zM257 1533q108 0 183 75t75 182.5t-75 182.5
t-182.5 75t-182.5 -75t-75 -182.5t75 -182.5t182 -75zM641 767q108 0 182.5 74.5t74.5 182.5t-74.5 182.5t-182.5 74.5t-183 -74.5t-75 -182.5t75 -182.5t183 -74.5zM1024 0q108 0 182.5 75t74.5 182.5t-74.5 182.5t-182.5 75t-182.5 -75t-74.5 -182.5t74.5 -182.5
t182.5 -75zM1791 1533q107 0 182 75t75 182.5t-75 182.5t-182.5 75t-182.5 -75t-75 -182.5t75 -182.5t183 -75z" />
</svg>
