<?xml version="1.0" standalone="no"?>
<!DOCTYPE svg PUBLIC "-//W3C//DTD SVG 1.1//EN" "http://www.w3.org/Graphics/SVG/1.1/DTD/svg11.dtd" >
<svg xmlns="http://www.w3.org/2000/svg" xmlns:xlink="http://www.w3.org/1999/xlink" version="1.1" width="2048" height="2048" viewBox="-10 0 2068 2048">
   <path fill="currentColor"
d="M123 0l-123 123l379 380v1179q0 83 57.5 140t134.5 57v96h197v-96h242v-741l101 96v645h242v96h197v-96q82 0 141 -64l234 233l123 -123zM864 1198h-293v-393h110l183 187v206zM1742 1371l-631 -635v-709h439q77 0 134.5 57.5t57.5 134.5v1152zM1010 640l-562 -567
q55 -46 123 -46h439v613z" />
</svg>
