<?xml version="1.0" standalone="no"?>
<!DOCTYPE svg PUBLIC "-//W3C//DTD SVG 1.1//EN" "http://www.w3.org/Graphics/SVG/1.1/DTD/svg11.dtd" >
<svg xmlns="http://www.w3.org/2000/svg" xmlns:xlink="http://www.w3.org/1999/xlink" version="1.1" width="2048" height="2048" viewBox="-10 0 2058 2048">
   <path fill="currentColor"
d="M1024 0q197 0 360.5 96t259.5 259.5t96 360.5q0 236 -182 582q-135 250 -347 524q-105 139 -187 226l-111 -130q-134 -168 -250 -336q-153 -231 -245 -433q-110 -250 -110 -433q0 -197 96 -360.5t259.5 -259.5t360.5 -96zM1024 202q-139 0 -257 69.5t-187.5 187.5
t-69.5 257q0 82 19 149q33 130 134 303q125 231 361 543q236 -312 361 -543q101 -173 134 -303q19 -67 19 -149q0 -139 -69.5 -257t-187.5 -187.5t-257 -69.5zM1024 971l245 154l-62 -284l226 -197l-298 -19l-111 -279l-111 269l-298 29l226 197l-72 284z" />
</svg>
