<?xml version="1.0" standalone="no"?>
<!DOCTYPE svg PUBLIC "-//W3C//DTD SVG 1.1//EN" "http://www.w3.org/Graphics/SVG/1.1/DTD/svg11.dtd" >
<svg xmlns="http://www.w3.org/2000/svg" xmlns:xlink="http://www.w3.org/1999/xlink" version="1.1" width="2048" height="2048" viewBox="-10 0 2068 2048">
   <path fill="currentColor"
d="M2048 1125h-817v-202h817v202zM2048 510h-817v206h817v-206zM1231 1538h817v-206h-817v206zM1024 716v616q0 86 -60 146t-147 60h-615q-82 0 -142 -60t-60 -146v-616q0 -86 60 -146t142 -60h615q87 0 147 60t60 146zM870 1332l-226 -308l-182 236l-125 -154l-183 226h716
z" />
</svg>
