<?xml version="1.0" standalone="no"?>
<!DOCTYPE svg PUBLIC "-//W3C//DTD SVG 1.1//EN" "http://www.w3.org/Graphics/SVG/1.1/DTD/svg11.dtd" >
<svg xmlns="http://www.w3.org/2000/svg" xmlns:xlink="http://www.w3.org/1999/xlink" version="1.1" width="2048" height="2048" viewBox="-10 0 2068 2048">
   <path fill="currentColor"
d="M1679 1184v630q0 84 -61.5 145.5t-145.5 61.5h-212q-88 0 -149.5 -61.5t-61.5 -145.5v-630q0 -89 61.5 -150.5t149.5 -61.5h212q84 0 145.5 61.5t61.5 150.5zM1260 1184v630h212v-630h-212zM999 27q360 0 648 211.5t401 546.5l-251 84q-89 -256 -308 -418.5t-490 -162.5
q-305 0 -536 202l271 271h-734v-734l271 271q147 -128 337 -199.5t391 -71.5zM418 972q-83 0 -144.5 61.5t-61.5 150.5v630q0 84 61.5 145.5t144.5 61.5h212q89 0 150.5 -61.5t61.5 -145.5v-212q0 -88 -61.5 -149.5t-150.5 -61.5h-212v-207h424v-212h-424zM418 1602h212v212
h-212v-212z" />
</svg>
