<?xml version="1.0" standalone="no"?>
<!DOCTYPE svg PUBLIC "-//W3C//DTD SVG 1.1//EN" "http://www.w3.org/Graphics/SVG/1.1/DTD/svg11.dtd" >
<svg xmlns="http://www.w3.org/2000/svg" xmlns:xlink="http://www.w3.org/1999/xlink" version="1.1" width="2048" height="2048" viewBox="-10 0 2068 2048">
   <path fill="currentColor"
d="M1049 27q-365 0 -650.5 209.5t-398.5 548.5l251 84q79 -256 303 -418.5t495 -162.5q305 0 536 202l-271 271h734v-734l-271 271q-157 -128 -342 -199.5t-386 -71.5zM1836 1184v630q0 84 -61.5 145.5t-144.5 61.5h-212q-89 0 -150.5 -61.5t-61.5 -145.5v-630
q0 -89 61.5 -150.5t150.5 -61.5h212q83 0 144.5 61.5t61.5 150.5zM1418 1184v630h212v-630h-212zM576 972q-84 0 -145.5 61.5t-61.5 150.5v630q0 84 61.5 145.5t145.5 61.5h212q88 0 149.5 -61.5t61.5 -145.5v-212q0 -88 -61.5 -149.5t-149.5 -61.5h-212v-207h423v-212h-423
zM576 1602h212v212h-212v-212z" />
</svg>
