<?xml version="1.0" standalone="no"?>
<!DOCTYPE svg PUBLIC "-//W3C//DTD SVG 1.1//EN" "http://www.w3.org/Graphics/SVG/1.1/DTD/svg11.dtd" >
<svg xmlns="http://www.w3.org/2000/svg" xmlns:xlink="http://www.w3.org/1999/xlink" version="1.1" width="2048" height="2048" viewBox="-10 0 2058 2048">
   <path fill="currentColor"
d="M690 841q68 96 160 137h388q28 -9 69 -50q73 -73 98 -176t-11 -194l-10 -19q-9 -32 -50 -68q-4 -9 -18 -25t-18 -25q-78 -60 -119 -96q-64 -64 -75.5 -155.5t24.5 -169.5q-73 18 -132 78q-114 91 -151 230.5t14 276.5v23q0 9 -23 27q-5 5 -16.5 2.5t-20.5 -11.5l-9 -9
q-46 -59 -52.5 -139t20.5 -153q-64 59 -98 146t-25 183q0 32 18 87q0 41 37 100zM1051 695q9 -37 -9 -101l-10 -27q-13 -64 10 -119l32 59q13 23 54 60q28 23 42 41q22 23 27 55v32q0 78 -46 128l-23 9q-22 18 -36 18q-41 14 -87 -2t-78 -48q51 0 85 -32t39 -73zM1316 1074
v197h-96l-101 777h-192l-100 -777h-96v-197h585z" />
</svg>
