<?xml version="1.0" standalone="no"?>
<!DOCTYPE svg PUBLIC "-//W3C//DTD SVG 1.1//EN" "http://www.w3.org/Graphics/SVG/1.1/DTD/svg11.dtd" >
<svg xmlns="http://www.w3.org/2000/svg" xmlns:xlink="http://www.w3.org/1999/xlink" version="1.1" width="2048" height="2048" viewBox="-10 0 2068 2048">
   <path fill="currentColor"
d="M1024 42q-92 0 -157 67t-65 158q0 67 36 121.5t98 83.5v105h-359q-71 0 -123.5 52t-52.5 128v62q-62 29 -98 83.5t-36 121.5t36 121.5t98 83.5v62h-92q-71 0 -123 52.5t-52 127.5v105q-63 29 -98.5 83.5t-35.5 121.5q0 91 65 158t156.5 67t156.5 -67t65 -158
q0 -67 -35.5 -121.5t-98.5 -83.5v-105h360v105q-63 29 -98.5 83.5t-35.5 121.5q0 91 65 158t156.5 67t156.5 -67t65 -158q0 -67 -35.5 -121.5t-98.5 -83.5v-105q0 -75 -52 -127.5t-123 -52.5h-92v-62q62 -29 98 -83.5t36 -121.5t-36 -121.5t-98 -83.5v-62h894v62
q-62 29 -98 83.5t-36 121.5t36 121.5t98 83.5v62h-92q-71 0 -123 52.5t-52 127.5v105q-63 29 -98.5 83.5t-35.5 121.5q0 91 65 158t156.5 67t156.5 -67t65 -158q0 -67 -35.5 -121.5t-98.5 -83.5v-105h360v105q-63 29 -98.5 83.5t-35.5 121.5q0 91 65 158t156.5 67t156.5 -67
t65 -158q0 -67 -35.5 -121.5t-98.5 -83.5v-105q0 -75 -52 -127.5t-123 -52.5h-92v-62q62 -29 98 -83.5t36 -121.5t-36 -121.5t-98 -83.5v-62q0 -76 -52.5 -128t-123.5 -52h-359v-105q62 -29 98 -83.5t36 -121.5q0 -91 -65 -158t-157 -67zM1024 176q38 0 63 27t25 64.5
t-25 62.5t-63 25t-63 -25t-25 -62.5t25 -64.5t63 -27zM489 936q38 0 63 25t25 63t-25 63t-63 25t-63 -25t-25 -63t25 -63t63 -25zM1559 936q38 0 63 25t25 63t-25 63t-63 25t-63 -25t-25 -63t25 -63t63 -25zM222 1693q37 0 62 25t25 62.5t-25 64.5t-62.5 27t-62.5 -27
t-25 -64.5t25 -62.5t63 -25zM757 1693q37 0 62 25t25 62.5t-25 64.5t-62.5 27t-62.5 -27t-25 -64.5t25 -62.5t63 -25zM1291 1693q38 0 63 25t25 62.5t-25 64.5t-62.5 27t-62.5 -27t-25 -64.5t25 -62.5t62 -25zM1826 1693q38 0 63 25t25 62.5t-25 64.5t-62.5 27t-62.5 -27
t-25 -64.5t25 -62.5t62 -25z" />
</svg>
