<?xml version="1.0" standalone="no"?>
<!DOCTYPE svg PUBLIC "-//W3C//DTD SVG 1.1//EN" "http://www.w3.org/Graphics/SVG/1.1/DTD/svg11.dtd" >
<svg xmlns="http://www.w3.org/2000/svg" xmlns:xlink="http://www.w3.org/1999/xlink" version="1.1" width="2048" height="2048" viewBox="-10 0 2058 2048">
   <path fill="currentColor"
d="M1500 197v600l-202 -197l-201 197v-600h-399v1603h310q14 84 70 196h-581q-80 0 -138.5 -60.5t-58.5 -135.5v-103h-202v-197h202v-403h-202v-197h202v-403h-202v-197h202v-103q0 -80 58.5 -138.5t138.5 -58.5h1200q74 0 137.5 61t63.5 136v979q-80 -51 -201 -70v-909
h-197zM300 1697h197v-197h-197v197zM300 1097h197v-197h-197v197zM300 497h197v-197h-197v197zM1809 1350l-211 206l-211 -206l-140 140l211 207l-211 210l140 141l211 -211l211 211l141 -141l-211 -210l211 -207z" />
</svg>
