<?xml version="1.0" standalone="no"?>
<!DOCTYPE svg PUBLIC "-//W3C//DTD SVG 1.1//EN" "http://www.w3.org/Graphics/SVG/1.1/DTD/svg11.dtd" >
<svg xmlns="http://www.w3.org/2000/svg" xmlns:xlink="http://www.w3.org/1999/xlink" version="1.1" width="2048" height="2048" viewBox="-10 0 2058 2048">
   <path fill="currentColor"
d="M1907 380q0 -80 -55.5 -135t-134.5 -55h-393q-31 -84 -103.5 -137t-161 -53t-161.5 53t-104 137h-282l1395 1395v-1205zM1059 380q-39 0 -65.5 -29t-26.5 -66.5t26.5 -66t66 -28.5t66 28.5t26.5 66t-26.5 66.5t-66.5 29zM2013 1929l-119 119l-168 -163h-1324
q-80 0 -135 -55.5t-55 -134.5v-1324l-177 -181l119 -119z" />
</svg>
