<?xml version="1.0" standalone="no"?>
<!DOCTYPE svg PUBLIC "-//W3C//DTD SVG 1.1//EN" "http://www.w3.org/Graphics/SVG/1.1/DTD/svg11.dtd" >
<svg xmlns="http://www.w3.org/2000/svg" xmlns:xlink="http://www.w3.org/1999/xlink" version="1.1" width="2048" height="2048" viewBox="-10 0 2063 2048">
   <path fill="currentColor"
d="M1931 595q54 59 54 140t-54 131l-271 266l-753 -749l270 -270q59 -54 140 -54t131 54l171 176l289 -289l135 135l-288 289zM1371 1155l-135 -136l-271 271l-203 -203l271 -271l-135 -135l-266 271l-145 -136l-270 271q-59 59 -59 138t59 133l171 171l-383 384l135 135
l383 -383l172 171q58 59 139.5 59t130.5 -59l271 -271l-135 -130z" />
</svg>
