<?xml version="1.0" standalone="no"?>
<!DOCTYPE svg PUBLIC "-//W3C//DTD SVG 1.1//EN" "http://www.w3.org/Graphics/SVG/1.1/DTD/svg11.dtd" >
<svg xmlns="http://www.w3.org/2000/svg" xmlns:xlink="http://www.w3.org/1999/xlink" version="1.1" width="2048" height="2048" viewBox="-10 0 2069 2048">
   <path fill="currentColor"
d="M2040 997l-91 -53v-19l72 -73q10 -9 10 -21t-10 -22l-10 -10l-91 -28q0 -24 -14 -24l62 -82q10 -5 7.5 -19.5t-17.5 -19.5h-4q-5 -5 -5 -9l-101 -24q0 -5 -5 -10t-5 -10l39 -91v-29q-10 -14 -29 -14h-106v-5q0 -5 -10 -5l20 -101q0 -29 -20 -29h-9l-101 19q0 -9 -10 -14
l-14 -5v-106q0 -29 -29 -29h-10l-91 39h-10l-24 -101q0 -15 -9.5 -22t-19.5 2h-10l-81 63q-24 0 -24 -14l-29 -92q-19 -19 -39 -19h-9q-5 5 -5 10l-82 72h-19l-53 -82q-10 -19 -48 -19l-10 9l-53 92h-19l-72 -72q-10 -10 -22 -10t-22 10l-9 9l-29 92q-24 0 -24 14l-82 -63
q-34 -19 -48 10v10l-24 101l-5 5q-10 0 -14 4l-92 -38q-9 -10 -21 -5t-22 14v116q0 5 -5 9.5t-5 9.5l-101 -19q-29 -19 -29 19v10l20 101q-5 0 -10 5t-10 5h-106q-28 0 -28 33v10l38 91v20l-101 24q-14 0 -21.5 9.5t-7.5 18.5v10l58 82q0 24 -10 24l-82 38q-19 20 -19 44v5
q5 4 10 4l72 73v19l-82 53q-19 9 -19 38l10 10l91 62v20l-72 72q-10 9 -10 21.5t10 21.5l9 10l92 29q0 24 14 24l-62 82q-10 4 -7.5 18.5t16.5 19.5h5q5 5 5 10l101 24q0 4 5 9t5 10l-39 91q-9 10 -4.5 22t14.5 22h115q5 0 10 4.5t10 4.5l-20 101q0 29 20 29h9l101 -19
q0 10 10 14l14 5v106q0 29 29 29h10l91 -39h10l24 102q0 14 9.5 21t19.5 -2h9l82 -63q24 0 24 15l29 91q19 19 39 19h9q5 -4 5 -9l82 -72h19l53 81q5 10 19.5 15t19.5 -5l9 -10l53 -81h19l73 72q9 9 21 9t22 -9l10 -10l28 -91q20 0 20 -15l86 63q5 9 19.5 7t19.5 -17v-5
q5 -4 9 -4l20 -102q9 0 14 -4.5t10 -4.5l91 38q5 10 19.5 5t19.5 -14v-116l24 -19l101 19q29 0 29 -19v-10l-20 -101l20 -24h105q29 0 29 -29v-9l-38 -92q0 -5 4.5 -9.5t4.5 -14.5l101 -19q15 0 22 -12t-2 -17v-9l-58 -82l10 -24l91 -29q19 -19 19 -44v-4q-5 -5 -9 -5
l-82 -72v-20l82 -53q29 -9 9 -57v5v-5zM1458 1714q-24 -10 -38.5 -29t-9.5 -43.5t24 -38.5t43 -9.5t38.5 24t14.5 48t-21.5 43t-50.5 5.5zM1434 1516q-19 -4 -38.5 8t-19.5 36l-43 144q-140 63 -310.5 63t-315.5 -73l-33 -144q-15 -58 -58 -43l-125 33l-63 -72l626 -5v-230
h-183v-135h197q92 0 121 101l14 58q14 86 26.5 112.5t46 62.5t67.5 36h317q-19 29 -72 82zM582 1714q-24 9 -43 -5.5t-26.5 -43t7 -48t43.5 -28.5q58 -15 72 53q0 24 -14.5 43t-38.5 29zM346 771q10 24 0.5 48t-31 31t-48 0t-34 -31t2 -48t29.5 -34q67 -15 81 34zM274 934
l135 -53q24 -5 31.5 -26.5t-2.5 -45.5l-29 -62h101v486h-202q-48 -154 -34 -299zM852 891v-144h255q24 0 48 14q43 19 43 57.5t-33.5 55.5t-76.5 17h-236zM1776 1016v53h-92v38q0 58 -29 79.5t-62.5 21.5t-60 -12t-35.5 -26q-10 -82 -39 -125q-19 -29 -67 -68l-15 -14
q154 -111 154 -219t-115 -190q-48 -29 -101 -43q-39 -10 -63 -10h-779q173 -188 418 -236l92 101q33 34 86 0l101 -101q159 34 294 130t221 241l-72 163q-10 24 -2.5 43.5t31.5 29.5l135 62v82zM982 193q19 -14 43 -14t41 14.5t17 40.5t-15 41q-48 48 -96 0q-24 -24 10 -82z
M1694 771q5 -24 31.5 -31.5t48 0t31 31.5t2.5 48t-33.5 31t-50.5 0t-31.5 -31t2.5 -48z" />
</svg>
