<?xml version="1.0" standalone="no"?>
<!DOCTYPE svg PUBLIC "-//W3C//DTD SVG 1.1//EN" "http://www.w3.org/Graphics/SVG/1.1/DTD/svg11.dtd" >
<svg xmlns="http://www.w3.org/2000/svg" xmlns:xlink="http://www.w3.org/1999/xlink" version="1.1" width="2048" height="2048" viewBox="-10 0 2058 2048">
   <path fill="currentColor"
d="M1372 1792v219q0 16 -10.5 26.5t-26.5 10.5h-292q-16 0 -26.5 -10.5t-10.5 -26.5v-219q0 -16 10.5 -26.5t26.5 -10.5h292q16 0 26.5 10.5t10.5 26.5zM823 1645q0 15 -11 28l-365 364q-13 11 -26.5 11t-25.5 -11l-366 -365q-17 -19 -8 -40q10 -23 34 -23h220v-1573
q0 -16 10 -26t26 -10h220q16 0 26 10t10 26v1573h220q16 0 26 10t10 26zM1591 1206v220q0 16 -10 26t-26 10h-512q-16 0 -26.5 -10t-10.5 -26v-220q0 -16 10.5 -26t26.5 -10h512q16 0 26 10t10 26zM1811 621v220q0 16 -10.5 26t-26.5 10h-731q-16 0 -26.5 -10t-10.5 -26
v-220q0 -16 10.5 -26t26.5 -10h731q16 0 26.5 10t10.5 26zM2030 36v220q0 16 -10.5 26t-26.5 10h-950q-16 0 -26.5 -10t-10.5 -26v-220q0 -16 10.5 -26t26.5 -10h950q16 0 26.5 10t10.5 26z" />
</svg>
