<?xml version="1.0" standalone="no"?>
<!DOCTYPE svg PUBLIC "-//W3C//DTD SVG 1.1//EN" "http://www.w3.org/Graphics/SVG/1.1/DTD/svg11.dtd" >
<svg xmlns="http://www.w3.org/2000/svg" xmlns:xlink="http://www.w3.org/1999/xlink" version="1.1" width="2048" height="2048" viewBox="-10 0 2058 2048">
   <path fill="currentColor"
d="M98 485v-192h197v-101q0 -78 57 -135t135 -57h585v681l247 -146l242 146v-681h96q73 0 135 59.5t62 132.5v955q-142 -77 -297.5 -77t-288 80t-212.5 214.5t-80 290t78 292.5h-567q-78 0 -135 -59t-57 -133v-100h-197v-192h197v-393h-197v-192h197v-393h-197zM295 293v192
h192v-192h-192zM295 1655h192v-192h-192v192zM295 1070h192v-192h-192v192zM1465 1266v293h-292v196h292v293h192v-293h293v-196h-293v-293h-192z" />
</svg>
