<?xml version="1.0" standalone="no"?>
<!DOCTYPE svg PUBLIC "-//W3C//DTD SVG 1.1//EN" "http://www.w3.org/Graphics/SVG/1.1/DTD/svg11.dtd" >
<svg xmlns="http://www.w3.org/2000/svg" xmlns:xlink="http://www.w3.org/1999/xlink" version="1.1" width="2048" height="2048" viewBox="-10 0 2058 2048">
   <path fill="currentColor"
d="M918 1724q-192 0 -354 -40q-132 -35 -218 -96q-75 -46 -75 -76v-243q273 132 647 132l111 -5q-5 -15 -5 -46q0 -86 25 -172q-40 10 -131 10q-197 0 -369 -45.5t-278 -121.5v-303q121 66 290.5 106.5t356.5 40.5t356.5 -40.5t290.5 -106.5v41q20 -6 56 -6q76 0 162 26
v-349q0 -116 -116.5 -215t-316.5 -157t-432.5 -58t-432 58t-316 157t-116.5 215v1082q0 116 116.5 215t316 157t432.5 58q162 0 323 -31q-65 -96 -116 -202q-106 15 -207 15zM918 217q192 0 354 41q131 35 217 96q76 45 76 78t-76 79q-86 55 -217 91q-162 45 -354 45
t-354 -45q-132 -36 -218 -91q-75 -46 -75 -79t75 -78q86 -61 218 -96q162 -41 354 -41zM1621 971q-157 0 -268.5 111t-111.5 268q0 122 97 304q70 131 182 278l101 116l96 -116q111 -147 182 -278q96 -182 96 -304q0 -157 -111.5 -268t-262.5 -111zM1621 1487q-56 0 -94 -38
t-38 -91t40.5 -91t88.5 -38t88.5 40.5t45.5 88.5t-35.5 88.5t-95.5 40.5z" />
</svg>
