<?xml version="1.0" standalone="no"?>
<!DOCTYPE svg PUBLIC "-//W3C//DTD SVG 1.1//EN" "http://www.w3.org/Graphics/SVG/1.1/DTD/svg11.dtd" >
<svg xmlns="http://www.w3.org/2000/svg" xmlns:xlink="http://www.w3.org/1999/xlink" version="1.1" width="2048" height="2048" viewBox="-10 0 2058 2048">
   <path fill="currentColor"
d="M735 1533h-305v-193h287q13 -108 49 -193h-336v-188h462l9 -9q89 -90 203.5 -137t235.5 -47h-910v-192h959v192h-49q116 0 228.5 45t201.5 130v-556q0 -80 -56 -136t-137 -56h-398q-32 -85 -106 -139t-163.5 -54t-163.5 54t-105 139h-399q-81 0 -137 56t-56 136v1336
q0 81 56 137t137 56h771q-67 -41 -112 -86q-121 -121 -166 -295zM910 193q40 0 67 29t27 67t-27 67t-67.5 29t-67 -29t-26.5 -67t26.5 -67t67.5 -29zM1703 1618q67 -103 67 -229q0 -179 -125.5 -304.5t-304.5 -125.5t-304.5 125.5t-125.5 304.5t125.5 304.5t304.5 125.5
q121 0 228 -67l296 296l135 -134zM1340 1627q-99 0 -168.5 -69.5t-69.5 -168t69.5 -170.5t168.5 -72t168 72t69 170.5t-69 168t-168 69.5z" />
</svg>
