<?xml version="1.0" standalone="no"?>
<!DOCTYPE svg PUBLIC "-//W3C//DTD SVG 1.1//EN" "http://www.w3.org/Graphics/SVG/1.1/DTD/svg11.dtd" >
<svg xmlns="http://www.w3.org/2000/svg" xmlns:xlink="http://www.w3.org/1999/xlink" version="1.1" width="2048" height="2048" viewBox="-10 0 2058 2048">
   <path fill="currentColor"
d="M1755 1087v-657q0 -116 -116.5 -215t-316 -157t-432.5 -58t-432.5 58t-316 157t-116.5 215v1082q0 116 116.5 215t316 157t432.5 58q96 0 142 -5q-36 -106 -36 -213v-5q-30 5 -106 5q-192 0 -354 -40q-131 -35 -217 -96q-76 -46 -76 -76v-243q273 132 647 132
q101 0 202 -10q86 -142 233 -228t318 -86q46 0 112 10zM1537 1021q-106 76 -278 121.5t-369 45.5t-369 -45.5t-278 -121.5v-303q121 66 290.5 106.5t356.5 40.5t356.5 -40.5t290.5 -106.5v303zM890 647q-192 0 -354 -45q-131 -36 -217 -91q-76 -46 -76 -79t76 -78
q86 -61 217 -96q162 -41 354 -41t354 41q131 35 217 96q76 45 76 78t-76 79q-86 55 -217 91q-162 45 -354 45zM2023 1537l-511 511l-298 -324l126 -121l172 172l384 -389z" />
</svg>
