<?xml version="1.0" standalone="no"?>
<!DOCTYPE svg PUBLIC "-//W3C//DTD SVG 1.1//EN" "http://www.w3.org/Graphics/SVG/1.1/DTD/svg11.dtd" >
<svg xmlns="http://www.w3.org/2000/svg" xmlns:xlink="http://www.w3.org/1999/xlink" version="1.1" width="2048" height="2048" viewBox="-10 0 2068 2048">
   <path fill="currentColor"
d="M1430 1642l106 102q-111 96 -299.5 151.5t-410.5 55.5t-413 -55.5t-302 -149.5t-111 -205v-1034q0 -111 111 -205t302 -149.5t413 -55.5t410.5 55.5t299.5 151.5l-106 102l-39 43q-77 -58 -208 -96q-159 -49 -357 -49q-184 0 -338 39q-126 34 -208 92q-72 43 -72 74.5
t72 74.5q82 54 208 87q154 44 342.5 44t348.5 -48l96 101h-294v145q-83 10 -155 10q-179 0 -340.5 -39t-277.5 -102v290q101 73 265.5 116.5t352.5 43.5q72 0 155 -10v58h294l-101 106l14 10q-178 39 -362 39q-357 0 -618 -126v232q0 29 72 72q82 58 208 92q154 39 338 39
q193 0 357 -49q131 -33 208 -91zM1541 517l-150 145l261 261h-517v202h517l-261 261l150 145l507 -507z" />
</svg>
