<?xml version="1.0" standalone="no"?>
<!DOCTYPE svg PUBLIC "-//W3C//DTD SVG 1.1//EN" "http://www.w3.org/Graphics/SVG/1.1/DTD/svg11.dtd" >
<svg xmlns="http://www.w3.org/2000/svg" xmlns:xlink="http://www.w3.org/1999/xlink" version="1.1" width="2048" height="2048" viewBox="-10 0 2068 2048">
   <path fill="currentColor"
d="M863 1400q116 0 247 -20l313 -313q-106 55 -252.5 88t-307.5 33q-197 0 -368.5 -45.5t-277.5 -121.5v-302q121 65 290 105.5t355.5 40.5t355.5 -40.5t290 -105.5v267l152 -151q25 -25 65 -46v-358q0 -116 -116 -214t-315 -156t-431 -58t-431.5 58t-315.5 156t-116 214
v1080q0 106 101 199t272.5 153.5t383.5 71.5v-197l15 -20q-162 -5 -303 -51q-116 -35 -187 -86q-65 -45 -65 -70v-242q272 131 646 131zM863 219q191 0 353 41q131 35 217 96q75 45 75 78t-75 78q-86 55 -217 91q-162 45 -353.5 45t-353.5 -45q-131 -36 -216 -91
q-76 -45 -76 -78t76 -78q85 -61 216 -96q162 -41 354 -41zM1629 1168l222 222l-661 655h-221v-216zM2028 1208l-101 106l-222 -222l106 -106q15 -15 37.5 -15t38.5 15l141 141q20 21 20 43.5t-20 37.5z" />
</svg>
