<?xml version="1.0" standalone="no"?>
<!DOCTYPE svg PUBLIC "-//W3C//DTD SVG 1.1//EN" "http://www.w3.org/Graphics/SVG/1.1/DTD/svg11.dtd" >
<svg xmlns="http://www.w3.org/2000/svg" xmlns:xlink="http://www.w3.org/1999/xlink" version="1.1" width="2048" height="2048" viewBox="-10 0 2068 2048">
   <path fill="currentColor"
d="M817 101q-221 0 -408.5 55.5t-298 149t-110.5 204.5v1028q0 111 110.5 204.5t298 149t411 55.5t411 -55.5t298 -149t110.5 -204.5v-1028q0 -111 -110.5 -204.5t-298 -149t-413.5 -55.5zM1433 1538q0 29 -72 73q-82 57 -207 91q-154 38 -334.5 38t-338.5 -38
q-125 -34 -207 -91q-72 -44 -72 -73v-230q260 125 615.5 125t615.5 -125v230zM1433 1072q-101 72 -264.5 115.5t-348.5 43.5t-351 -43.5t-267 -115.5v-288q115 62 276 100.5t341.5 38.5t339 -38.5t274.5 -100.5v288zM817 716q-178 0 -336 -43q-125 -34 -207 -86
q-72 -44 -72 -75t72 -75q82 -57 207 -91q158 -38 338.5 -38t334.5 38q125 34 207 91q72 44 72 75t-72 75q-82 52 -207 86q-154 43 -337 43zM2048 510v615h-202v-615h202zM1846 1332h202v206h-202v-206z" />
</svg>
