<?xml version="1.0" standalone="no"?>
<!DOCTYPE svg PUBLIC "-//W3C//DTD SVG 1.1//EN" "http://www.w3.org/Graphics/SVG/1.1/DTD/svg11.dtd" >
<svg xmlns="http://www.w3.org/2000/svg" xmlns:xlink="http://www.w3.org/1999/xlink" version="1.1" width="2048" height="2048" viewBox="-10 0 2058 2048">
   <path fill="currentColor"
d="M271 1021v-303q121 66 290.5 106.5t356.5 40.5t356.5 -40.5t290.5 -106.5v152l56 -5q76 0 162 25v-460q0 -116 -116.5 -215t-316.5 -157t-432.5 -58t-432 58t-316 157t-116.5 215v1082q0 116 116.5 215t316 157t432.5 58q71 0 106 -5v-218q-30 5 -106 5q-192 0 -354 -40
q-132 -35 -218 -96q-75 -46 -75 -76v-243q273 132 647 132q45 0 131 -5q31 -81 91 -132q10 -45 31 -101q-122 25 -253 25q-197 0 -369 -45.5t-278 -121.5zM918 217q192 0 354 41q131 35 217 96q76 45 76 78t-76 79q-86 55 -217 91q-162 45 -354 45t-354 -45
q-132 -36 -218 -91q-75 -46 -75 -79t75 -78q86 -61 218 -96q162 -41 354 -41zM1889 1401v-51q0 -111 -78.5 -192t-190 -81t-192 81t-80.5 192v51q-41 0 -74 32.5t-33 78.5v430q0 45 33 75.5t74 30.5h541q45 0 75.5 -30.5t30.5 -75.5v-430q0 -46 -30.5 -78.5t-75.5 -32.5z
M1783 1401h-324v-51q0 -71 45.5 -116.5t113.5 -45.5t116.5 45.5t48.5 116.5v51z" />
</svg>
