<?xml version="1.0" standalone="no"?>
<!DOCTYPE svg PUBLIC "-//W3C//DTD SVG 1.1//EN" "http://www.w3.org/Graphics/SVG/1.1/DTD/svg11.dtd" >
<svg xmlns="http://www.w3.org/2000/svg" xmlns:xlink="http://www.w3.org/1999/xlink" version="1.1" width="2048" height="2048" viewBox="-10 0 2068 2048">
   <path fill="currentColor"
d="M1725 1087v-656q0 -116 -116 -214t-315 -156t-431 -58t-431.5 58t-315.5 156t-116 214v1080q0 116 116 214.5t315.5 156.5t431.5 58q95 0 141 -5q-35 -106 -35 -212v-5q-31 5 -106 5q-192 0 -354 -41q-131 -35 -216 -96q-76 -45 -76 -75v-242q272 131 646 131
q100 0 201 -10q86 -142 232.5 -227.5t317.5 -85.5q46 0 111 10zM1508 1021q-106 76 -277.5 121.5t-368 45.5t-368 -45.5t-277.5 -121.5v-302q121 65 290 105.5t355.5 40.5t355.5 -40.5t290 -105.5v302zM863 648q-192 0 -354 -45q-131 -36 -216 -91q-76 -45 -76 -78t76 -78
q85 -61 216 -96q162 -41 353.5 -41t353.5 41q131 35 217 96q75 45 75 78t-75 78q-86 55 -217 91q-162 45 -353 45zM1725 2045v-211h-434v-217h434v-217l323 323z" />
</svg>
