<?xml version="1.0" standalone="no"?>
<!DOCTYPE svg PUBLIC "-//W3C//DTD SVG 1.1//EN" "http://www.w3.org/Graphics/SVG/1.1/DTD/svg11.dtd" >
<svg xmlns="http://www.w3.org/2000/svg" xmlns:xlink="http://www.w3.org/1999/xlink" version="1.1" width="2048" height="2048" viewBox="-10 0 2058 2048">
   <path fill="currentColor"
d="M1365 1390l278 164l-73 119l-352 -210v-489h147v416zM2000 1362q0 188 -91.5 345.5t-249 249t-345.5 91.5q-169 0 -317.5 -80t-239.5 -213q-197 -13 -359.5 -65.5t-256 -139.5t-93.5 -188v-973q0 -106 105 -195t283.5 -141.5t391 -52.5t391 52.5t283.5 141.5t105 195v361
q178 82 285.5 246.5t107.5 365.5zM1415 690v-45q-37 22 -78 36q28 0 78 9zM245 389q0 27 68 73q78 50 197 82q146 41 317.5 41t322.5 -41q119 -32 196 -82q69 -46 69 -73.5t-69 -73.5q-77 -50 -196 -82q-151 -41 -322.5 -41t-317.5 41q-119 32 -197 82q-68 46 -68 74z
M245 919q77 59 196 95.5t261 50.5q91 -187 279 -292q-83 4 -151 4q-174 0 -325 -34t-260 -98v274zM661 1545q-28 -96 -28 -183q0 -50 9 -109q-233 -28 -397 -106v215q0 23 50 59.5t137 68.5q101 41 229 55zM1803 1362q0 -132 -66 -244t-178 -176t-244.5 -64t-244.5 64
t-176 176t-64 244.5t64 244.5t176 178t244.5 66t244.5 -66t178 -178t66 -245z" />
</svg>
