<?xml version="1.0" standalone="no"?>
<!DOCTYPE svg PUBLIC "-//W3C//DTD SVG 1.1//EN" "http://www.w3.org/Graphics/SVG/1.1/DTD/svg11.dtd" >
<svg xmlns="http://www.w3.org/2000/svg" xmlns:xlink="http://www.w3.org/1999/xlink" version="1.1" width="2048" height="2048" viewBox="-10 0 2068 2048">
   <path fill="currentColor"
d="M906 1024l-503 504l-149 -144l259 -259h-513v-202h513l-259 -259l149 -144zM1228 103q-259 0 -467.5 72t-295.5 192l48 43l106 110l-5 -9q0 -29 72 -72q81 -58 206 -91q154 -39 336 -39t336 39q124 33 206 91q72 43 72 74t-72 75q-82 52 -206 86q-154 43 -336 43
t-341 -43q-120 -34 -201 -86l316 316q116 19 226 19q177 0 338 -38t276 -101v288q-101 72 -264 115t-350 43q-144 0 -283 -29l-168 168q211 63 451 63q355 0 614 -125v230q0 29 -72 72q-82 58 -206 91q-154 39 -336 39t-336 -39q-125 -33 -206 -91q-72 -43 -72 -72v-5
l-101 106l-48 43q91 120 297.5 192t465.5 72q220 0 409.5 -55t300 -148.5t110.5 -204.5v-1026q0 -111 -110.5 -204.5t-300 -148.5t-409.5 -55z" />
</svg>
