<?xml version="1.0" standalone="no"?>
<!DOCTYPE svg PUBLIC "-//W3C//DTD SVG 1.1//EN" "http://www.w3.org/Graphics/SVG/1.1/DTD/svg11.dtd" >
<svg xmlns="http://www.w3.org/2000/svg" xmlns:xlink="http://www.w3.org/1999/xlink" version="1.1" width="2048" height="2048" viewBox="-10 0 2058 2048">
   <path fill="currentColor"
d="M1695 1500q0 -72 -50.5 -132.5t-117.5 -60.5q-59 0 -94.5 42.5t-35.5 107.5t41.5 108.5t119.5 43.5q57 0 97 -31t40 -78zM998 1645q0 15 -11 28l-365 364q-13 11 -26.5 11t-25.5 -11l-366 -365q-17 -19 -8 -40q10 -23 34 -23h220v-1573q0 -16 10 -26t26 -10h220
q16 0 26 10t10 26v1573h220q16 0 26 10t10 26zM1855 1566q0 71 -15 139t-47 130.5t-77.5 109.5t-112 75t-145.5 28q-67 0 -124 -19q-38 -13 -48 -17l45 -129q18 9 35 13q40 14 86 14q49 0 90 -19.5t68.5 -53t45 -73.5t26.5 -87h-3q-24 26 -70.5 42.5t-96.5 16.5
q-81 0 -144 -39t-96.5 -102t-33.5 -138q0 -120 82 -203.5t207 -83.5q68 0 128 27.5t104.5 77.5t70 125t25.5 166zM1821 747v130h-536v-130h191v-494q0 -8 0.5 -22t0.5 -19v-18h-2l-8 14q-10 15 -30 35l-71 66l-94 -98l220 -211h140v747h189z" />
</svg>
