<?xml version="1.0" standalone="no"?>
<!DOCTYPE svg PUBLIC "-//W3C//DTD SVG 1.1//EN" "http://www.w3.org/Graphics/SVG/1.1/DTD/svg11.dtd" >
<svg xmlns="http://www.w3.org/2000/svg" xmlns:xlink="http://www.w3.org/1999/xlink" version="1.1" width="2048" height="2048" viewBox="-10 0 2058 2048">
   <path fill="currentColor"
d="M1390 764h-49h49zM429 1338h287q14 -107 50 -193h-337v193zM901 948q89 -90 203.5 -137t236.5 -47h-912v193h463zM901 1828q44 45 112 85h-773q-80 0 -136.5 -56t-56.5 -137v-1338q0 -81 56.5 -137t136.5 -56h400q49 -130 175 -171q108 -40 216 9.5t148 161.5h400
q80 0 136.5 56t56.5 137v557q-86 -81 -193 -126v-431h-189v189h-961v-189h-189v1338h575q36 54 86 108zM815 283q0 41 27 70t67.5 29t67.5 -29t27 -67.5t-27 -67.5t-67.5 -29t-67.5 29t-27 65zM2001 1913l-135 135l-296 -296q-108 67 -229 67q-180 0 -306 -126t-126 -305.5
t126 -305t305.5 -125.5t305.5 125.5t126 305.5q0 126 -68 229zM1579 1388q0 -99 -70 -171t-168.5 -72t-168 72t-69.5 171t69.5 168.5t168 69.5t168.5 -69.5t70 -168.5z" />
</svg>
