<?xml version="1.0" standalone="no"?>
<!DOCTYPE svg PUBLIC "-//W3C//DTD SVG 1.1//EN" "http://www.w3.org/Graphics/SVG/1.1/DTD/svg11.dtd" >
<svg xmlns="http://www.w3.org/2000/svg" xmlns:xlink="http://www.w3.org/1999/xlink" version="1.1" width="2048" height="2048" viewBox="-10 0 2068 2048">
   <path fill="currentColor"
d="M742 1682q-158 -10 -292 -54q-109 -35 -173 -79.5t-64 -69.5v-237q178 89 420 118q0 -128 25 -212q-287 -35 -445 -149v-297q113 65 274 102t339 42l10 -10q173 -173 413 -198t443 104v-322q0 -113 -114 -209.5t-309.5 -153.5t-423 -57t-422.5 57t-309 153.5t-114 209.5
v1059q0 114 114 210.5t309 153.5t423 57q74 0 104 -5q-69 -45 -114 -89q-59 -60 -94 -124zM846 213q188 0 346 39q129 35 213 94q74 45 74 77t-74 77q-84 54 -213 89q-158 44 -346 44t-346 -44q-129 -35 -213 -89q-74 -45 -74 -77t74 -77q84 -59 213 -94q158 -39 346 -39z
M1722 1573q74 -114 74 -252q0 -198 -138.5 -336.5t-336.5 -138.5t-336.5 138.5t-138.5 336.5t138.5 336.5t336.5 138.5q133 0 252 -74l327 326l148 -148zM1321 1583q-109 0 -185.5 -76.5t-76.5 -185.5t76.5 -188t185.5 -79t185.5 79t76.5 188t-76.5 185.5t-185.5 76.5z" />
</svg>
