<?xml version="1.0" standalone="no"?>
<!DOCTYPE svg PUBLIC "-//W3C//DTD SVG 1.1//EN" "http://www.w3.org/Graphics/SVG/1.1/DTD/svg11.dtd" >
<svg xmlns="http://www.w3.org/2000/svg" xmlns:xlink="http://www.w3.org/1999/xlink" version="1.1" width="2048" height="2048" viewBox="-10 0 2068 2048">
   <path fill="currentColor"
d="M0 431q0 -116 116 -214t315.5 -156t431.5 -58t431 58t315 156t116 216.5t-116 217t-315 156.5t-431 58t-431.5 -58t-315.5 -156.5t-116 -219.5zM1695 1082q30 -55 30 -111v-323q0 116 -116 214.5t-315 156.5t-431 58t-431.5 -58t-315.5 -156.5t-116 -214.5v323
q0 116 116 214.5t315.5 156.5t431.5 58q100 0 201 -10q86 -142 232.5 -227.5t317.5 -85.5q56 0 81 5zM979 1612q-36 5 -116 5q-232 0 -431.5 -58t-315.5 -156.5t-116 -214.5v323q0 116 116 214.5t315.5 156.5t431.5 58q95 0 141 -5q-35 -106 -35 -212q0 -51 10 -111z
M2048 1723l-323 -323v217h-434v217h434v211z" />
</svg>
