<?xml version="1.0" standalone="no"?>
<!DOCTYPE svg PUBLIC "-//W3C//DTD SVG 1.1//EN" "http://www.w3.org/Graphics/SVG/1.1/DTD/svg11.dtd" >
<svg xmlns="http://www.w3.org/2000/svg" xmlns:xlink="http://www.w3.org/1999/xlink" version="1.1" width="2048" height="2048" viewBox="-10 0 2058 2048">
   <path fill="currentColor"
d="M1731 1056v-639q0 -113 -113 -208.5t-307 -152t-420 -56.5t-420 56.5t-306.5 152t-112.5 208.5v1051q0 113 112.5 209t306.5 152.5t420 56.5q94 0 138 -5q-34 -103 -34 -206v-5q-30 5 -104 5q-186 0 -343 -40q-128 -34 -212 -93q-73 -44 -73 -74v-235q265 127 628 127
q99 0 197 -9q83 -138 225.5 -221.5t309.5 -83.5q44 0 108 10zM1520 992q-103 74 -270 118t-358.5 44t-358.5 -44t-270 -118v-295q118 64 282.5 103.5t346 39.5t346 -39.5t282.5 -103.5v295zM891 629q-186 0 -343 -45q-128 -34 -212 -88q-73 -44 -73 -76t73 -76
q84 -59 212 -94q157 -39 343.5 -39t343.5 39q128 35 211 94q74 44 74 76t-74 76q-83 54 -211 88q-157 45 -344 45zM1771 1675l225 226l-147 147l-226 -226l-221 226l-147 -147l221 -226l-221 -221l147 -148l221 221l226 -221l147 148z" />
</svg>
