<?xml version="1.0" standalone="no"?>
<!DOCTYPE svg PUBLIC "-//W3C//DTD SVG 1.1//EN" "http://www.w3.org/Graphics/SVG/1.1/DTD/svg11.dtd" >
<svg xmlns="http://www.w3.org/2000/svg" xmlns:xlink="http://www.w3.org/1999/xlink" version="1.1" width="2048" height="2048" viewBox="-10 0 2058 2048">
   <path fill="currentColor"
d="M1695 330q0 -72 -50.5 -132.5t-117.5 -60.5q-59 0 -94.5 42t-35.5 107t41.5 108.5t119.5 43.5q57 0 97 -30.5t40 -77.5zM998 1645q0 15 -11 28l-365 364q-13 11 -26.5 11t-25.5 -11l-366 -365q-17 -19 -8 -40q10 -23 34 -23h220v-1573q0 -16 10 -26t26 -10h220
q16 0 26 10t10 26v1573h220q16 0 26 10t10 26zM1821 1917v131h-536v-131h191v-493q0 -8 0.5 -22.5t0.5 -19.5v-18h-2l-8 14q-10 15 -30 35l-71 67l-94 -99l220 -211h140v747h189zM1855 396q0 71 -15 139t-47 130t-77.5 109t-112 75t-145.5 28q-70 0 -124 -18
q-38 -13 -48 -17l45 -129q14 7 35 12q43 15 86 15q49 0 90 -19.5t68.5 -53t45 -73.5t26.5 -87h-3q-24 26 -70.5 42t-96.5 16q-81 0 -144 -39t-96.5 -102t-33.5 -138q0 -120 82 -203t207 -83q68 0 128 27.5t104.5 77.5t70 125t25.5 166z" />
</svg>
