<?xml version="1.0" standalone="no"?>
<!DOCTYPE svg PUBLIC "-//W3C//DTD SVG 1.1//EN" "http://www.w3.org/Graphics/SVG/1.1/DTD/svg11.dtd" >
<svg xmlns="http://www.w3.org/2000/svg" xmlns:xlink="http://www.w3.org/1999/xlink" version="1.1" width="2048" height="2048" viewBox="-10 0 2058 2048">
   <path fill="currentColor"
d="M1024 0q-245 0 -456 61.5t-333.5 165.5t-122.5 226v1142q0 122 122.5 226t333.5 165.5t456 61.5t456 -61.5t333.5 -165.5t122.5 -226v-1142q0 -122 -122.5 -226t-333.5 -165.5t-456 -61.5zM1707 1595q0 32 -80 80q-91 64 -230 101q-170 43 -373 43t-373 -43
q-139 -37 -230 -101q-80 -48 -80 -80v-256q288 138 683 138t683 -138v256zM1707 1077q-112 80 -293.5 128t-389.5 48t-389.5 -48t-293.5 -128v-320q128 70 307 112.5t376 42.5t376 -42.5t307 -112.5v320zM1024 683q-203 0 -373 -48q-139 -38 -230 -96q-80 -48 -80 -83
t80 -83q91 -64 230 -101q170 -43 373 -43t373 43q139 37 230 101q80 48 80 83t-80 83q-91 58 -230 96q-170 48 -373 48z" />
</svg>
