<?xml version="1.0" standalone="no"?>
<!DOCTYPE svg PUBLIC "-//W3C//DTD SVG 1.1//EN" "http://www.w3.org/Graphics/SVG/1.1/DTD/svg11.dtd" >
<svg xmlns="http://www.w3.org/2000/svg" xmlns:xlink="http://www.w3.org/1999/xlink" version="1.1" width="2048" height="2048" viewBox="-10 0 2058 2048">
   <path fill="currentColor"
d="M1691 1031v-623q0 -111 -110.5 -204.5t-300 -148.5t-410 -55t-410 55t-300 148.5t-110.5 204.5v1026q0 110 110.5 203.5t300 149t410.5 55.5q91 0 134 -5q-34 -101 -34 -201v-5q-29 5 -100 5q-183 0 -336 -39q-125 -33 -206 -91q-72 -43 -72 -72v-230q259 125 614 125
q95 0 191 -10q82 -134 221 -215.5t302 -81.5q43 0 106 9zM1484 969q-100 72 -263 115t-350.5 43t-350.5 -43t-263 -115v-288q115 62 275.5 100.5t338 38.5t338 -38.5t275.5 -100.5v288zM871 614q-183 0 -336 -43q-125 -34 -206 -87q-72 -43 -72 -74t72 -74q81 -58 206 -91
q153 -39 335.5 -39t335.5 39q125 33 206 91q72 43 72 74t-72 74q-81 53 -206 87q-153 43 -335 43zM1998 1535v206h-307v307h-207v-307h-307v-206h307v-307h207v307h307z" />
</svg>
