<?xml version="1.0" standalone="no"?>
<!DOCTYPE svg PUBLIC "-//W3C//DTD SVG 1.1//EN" "http://www.w3.org/Graphics/SVG/1.1/DTD/svg11.dtd" >
<svg xmlns="http://www.w3.org/2000/svg" xmlns:xlink="http://www.w3.org/1999/xlink" version="1.1" width="2048" height="2048" viewBox="-10 0 2068 2048">
   <path fill="currentColor"
d="M123 0l-123 123l302 302q-23 46 -23 87v978q0 105 105 194.5t285.5 142t391.5 52.5q164 0 312.5 -32t258.5 -92l293 293l123 -123zM475 773q115 64 270 96l325 329h-9q-179 0 -334.5 -41.5t-251.5 -109.5v-274zM1061 1682q-174 0 -320 -36q-119 -32 -197 -87
q-69 -41 -69 -69v-219q247 119 586 119q91 0 196 -9l229 228q-183 73 -425 73zM731 361l-150 -155q214 -83 480 -83q210 0 390.5 53t285.5 142t105 194v955l-196 -192v-4l-151 -146q91 -37 151 -78v-274q-156 86 -384 118l-183 -182q169 -5 311 -42q114 -32 192 -82
q64 -46 64 -73t-69 -69q-78 -54 -196 -86q-147 -37 -323 -37t-327 41z" />
</svg>
