<?xml version="1.0" standalone="no"?>
<!DOCTYPE svg PUBLIC "-//W3C//DTD SVG 1.1//EN" "http://www.w3.org/Graphics/SVG/1.1/DTD/svg11.dtd" >
<svg xmlns="http://www.w3.org/2000/svg" xmlns:xlink="http://www.w3.org/1999/xlink" version="1.1" width="2048" height="2048" viewBox="-10 0 2058 2048">
   <path fill="currentColor"
d="M871 1329q43 0 124 -5q29 -120 96 -216q-110 19 -220 19q-188 0 -351 -43t-263 -115v-288q115 62 275.5 100.5t338 38.5t338 -38.5t275.5 -100.5v158q82 -19 159 -19h48v-412q0 -111 -110.5 -204.5t-300 -148.5t-410 -55t-410 55t-300 148.5t-110.5 204.5v1026
q0 110 110.5 203.5t300 149t410.5 55.5q100 0 196 -15q-57 -91 -77 -196q-38 5 -119 5q-183 0 -336 -39q-125 -33 -206 -91q-72 -43 -72 -72v-230q259 125 614 125zM871 206q182 0 335 39q125 33 206 91q72 43 72 74t-72 74q-81 53 -206 87q-153 43 -335.5 43t-335.5 -43
q-125 -34 -206 -87q-72 -43 -72 -74t72 -74q81 -58 206 -91q153 -39 336 -39zM1998 1482q0 125 -72 225l-111 -110q29 -53 29 -115q0 -105 -76.5 -179.5t-182.5 -74.5v153l-230 -230l230 -230v153q173 0 293 120t120 288zM1585 1588l230 230l-230 230v-153q-168 0 -288 -120
t-120 -293q0 -120 68 -225l115 110q-29 57 -29 115q0 106 74.5 182.5t179.5 76.5v-153z" />
</svg>
