<?xml version="1.0" standalone="no"?>
<!DOCTYPE svg PUBLIC "-//W3C//DTD SVG 1.1//EN" "http://www.w3.org/Graphics/SVG/1.1/DTD/svg11.dtd" >
<svg xmlns="http://www.w3.org/2000/svg" xmlns:xlink="http://www.w3.org/1999/xlink" version="1.1" width="2048" height="2048" viewBox="-10 0 2058 2048">
   <path fill="currentColor"
d="M1638 1022q-163 0 -302 81.5t-221 215.5q-96 10 -192 10q-220 0 -409.5 -55.5t-300 -149t-110.5 -203.5v-307q0 110 110.5 203.5t300 149t410 55.5t410 -55.5t299.5 -149t110 -203.5v307q0 53 -28 105q-24 -4 -77 -4zM923 820q221 0 410.5 -55t299.5 -148.5t110 -206.5
t-110 -206.5t-299.5 -148.5t-410 -55t-410 55t-300 148.5t-110.5 206.5t110.5 206.5t300 148.5t409.5 55zM1034 1530q-34 5 -111 5q-220 0 -409.5 -55.5t-300 -149t-110.5 -203.5v307q0 110 110.5 203.5t300 149t409.5 55.5q91 0 135 -5q-34 -101 -34 -201q0 -48 10 -106z
M1743 1741v-412h-206v412h-206l307 307l307 -307h-202z" />
</svg>
