<?xml version="1.0" standalone="no"?>
<!DOCTYPE svg PUBLIC "-//W3C//DTD SVG 1.1//EN" "http://www.w3.org/Graphics/SVG/1.1/DTD/svg11.dtd" >
<svg xmlns="http://www.w3.org/2000/svg" xmlns:xlink="http://www.w3.org/1999/xlink" version="1.1" width="2048" height="2048" viewBox="-10 0 2058 2048">
   <path fill="currentColor"
d="M1671 1077q-172 0 -318.5 86t-232.5 228q-101 10 -202 10q-233 0 -432.5 -58.5t-316 -157t-116.5 -214.5v-324q0 117 116.5 215.5t316 156.5t432 58t432.5 -58t316.5 -156.5t116.5 -215.5v324q0 56 -31 111q-25 -5 -81 -5zM918 865q232 0 432 -58.5t316.5 -157
t116.5 -217t-116.5 -217.5t-316.5 -157t-432.5 -58t-432 58t-316 157t-116.5 217.5t116.5 217t316 157t432.5 58.5zM1034 1613q-35 5 -116 5q-233 0 -432.5 -58t-316 -156.5t-116.5 -215.5v324q0 116 116.5 215t316 157t432.5 58q96 0 141 -5q-35 -106 -35 -213
q0 -50 10 -111zM1671 1295l-323 323h217v430h218v-430h212z" />
</svg>
