<?xml version="1.0" standalone="no"?>
<!DOCTYPE svg PUBLIC "-//W3C//DTD SVG 1.1//EN" "http://www.w3.org/Graphics/SVG/1.1/DTD/svg11.dtd" >
<svg xmlns="http://www.w3.org/2000/svg" xmlns:xlink="http://www.w3.org/1999/xlink" version="1.1" width="2048" height="2048" viewBox="-10 0 2068 2048">
   <path fill="currentColor"
d="M1639 510q0 115 -110.5 208.5t-298 149t-411 55.5t-411 -55.5t-298 -149t-110.5 -206.5t110.5 -206.5t298 -149t411 -55.5t411 55.5t298 149t110.5 204.5zM817 1639q-221 0 -408.5 -55t-298 -149t-110.5 -204v307q0 111 110.5 204.5t298 149t411 55.5t411 -55.5t298 -149
t110.5 -204.5v-307q0 110 -110.5 204t-298 149t-413.5 55zM817 1125q-221 0 -408.5 -55.5t-298 -149t-110.5 -204.5v308q0 111 110.5 204.5t298 149t411 55.5t411 -55.5t298 -149t110.5 -204.5v-308q0 111 -110.5 204.5t-298 149t-413.5 55.5zM1846 1538h202v-206h-202v206z
M1846 510v615h202v-615h-202z" />
</svg>
