<?xml version="1.0" standalone="no"?>
<!DOCTYPE svg PUBLIC "-//W3C//DTD SVG 1.1//EN" "http://www.w3.org/Graphics/SVG/1.1/DTD/svg11.dtd" >
<svg xmlns="http://www.w3.org/2000/svg" xmlns:xlink="http://www.w3.org/1999/xlink" version="1.1" width="2048" height="2048" viewBox="-10 0 2058 2048">
   <path fill="currentColor"
d="M1365 1390l278 164l-73 119l-352 -210v-489h147v416zM2000 1362q0 188 -91.5 345.5t-249 249t-345.5 91.5q-169 0 -317.5 -80t-239.5 -213q-197 -13 -359.5 -65.5t-256 -139.5t-93.5 -188v-292q0 137 167 242t423 137q-5 -55 -5 -87q0 -45 9 -109q-256 -32 -425 -137.5
t-169 -237.5v-293q0 101 93.5 185.5t256 139.5t359.5 64q86 -128 219 -201q-82 4 -146 4q-215 0 -393.5 -52.5t-283.5 -141.5t-105 -194.5t105 -194.5t283.5 -141.5t391 -52.5t391 52.5t283.5 141.5t105 195q0 86 -71 161.5t-194 130.5q109 5 210 46q55 -73 55 -142v165
q178 82 285.5 246.5t107.5 365.5zM1803 1362q0 -132 -66 -244t-178 -176t-244.5 -64t-244.5 64t-176 176t-64 244.5t64 244.5t176 178t244.5 66t244.5 -66t178 -178t66 -245z" />
</svg>
