<?xml version="1.0" standalone="no"?>
<!DOCTYPE svg PUBLIC "-//W3C//DTD SVG 1.1//EN" "http://www.w3.org/Graphics/SVG/1.1/DTD/svg11.dtd" >
<svg xmlns="http://www.w3.org/2000/svg" xmlns:xlink="http://www.w3.org/1999/xlink" version="1.1" width="2048" height="2048" viewBox="-10 0 2058 2048">
   <path fill="currentColor"
d="M1024 0q-210 0 -390.5 52.5t-286 141.5t-105.5 195v978q0 87 71 162.5t199 129.5h1024q128 -54 199 -129.5t71 -162.5v-978q0 -106 -105.5 -195t-286 -141.5t-390.5 -52.5zM1609 1367q0 27 -68 68q-78 55 -197 87q-146 37 -320 37t-320 -37q-119 -32 -197 -87
q-68 -41 -68 -68v-220q247 119 585 119t585 -119v220zM1609 923q-96 69 -251.5 110t-333.5 41t-333.5 -41t-251.5 -110v-274q110 60 263 96.5t322 36.5t322 -36.5t263 -96.5v274zM1024 585q-174 0 -320 -41q-119 -32 -197 -82q-68 -41 -68 -71t68 -71q78 -55 197 -87
q146 -36 320 -36t320 36q119 32 197 87q68 41 68 71t-68 71q-78 50 -197 82q-146 41 -320 41zM535 1851h196v197h-196v-197zM1317 1851h196v197h-196v-197zM928 1851h192v197h-192v-197z" />
</svg>
