<?xml version="1.0" standalone="no"?>
<!DOCTYPE svg PUBLIC "-//W3C//DTD SVG 1.1//EN" "http://www.w3.org/Graphics/SVG/1.1/DTD/svg11.dtd" >
<svg xmlns="http://www.w3.org/2000/svg" xmlns:xlink="http://www.w3.org/1999/xlink" version="1.1" width="2048" height="2048" viewBox="-10 0 2058 2048">
   <path fill="currentColor"
d="M290 994v-295q119 64 283.5 103.5t347 39.5t347.5 -39.5t283 -103.5v251q19 -5 54 -5q69 0 157 20v-547q0 -113 -113 -209t-307.5 -152.5t-421 -56.5t-421 56.5t-307.5 152.5t-113 209v1054q0 113 113 209t307.5 152.5t421.5 56.5h54q-40 -93 -49 -211h-5
q-187 0 -345 -40q-128 -34 -212 -93q-74 -44 -74 -74v-236q266 128 631 128h54q54 -128 152 -222q-103 15 -206 15q-192 0 -359.5 -44.5t-271.5 -118.5zM921 212q187 0 344 39q128 35 212 94q74 44 74 76t-74 76q-84 54 -212 89q-157 44 -344 44t-345 -44q-128 -35 -212 -89
q-74 -44 -74 -76t74 -76q84 -59 212 -94q158 -39 345 -39zM1551 1630l187 -188q-79 -78 -187.5 -78t-184.5 78.5t-76 187t76 184.5t185 76q64 0 118 -27t93 -76h178q-45 118 -150.5 189.5t-238.5 71.5q-173 0 -296 -123t-123 -298t123 -298t295.5 -123t295.5 123l123 -123
v424h-418z" />
</svg>
