<?xml version="1.0" standalone="no"?>
<!DOCTYPE svg PUBLIC "-//W3C//DTD SVG 1.1//EN" "http://www.w3.org/Graphics/SVG/1.1/DTD/svg11.dtd" >
<svg xmlns="http://www.w3.org/2000/svg" xmlns:xlink="http://www.w3.org/1999/xlink" version="1.1" width="2048" height="2048" viewBox="-10 0 2058 2048">
   <path fill="currentColor"
d="M51 389q0 -106 105 -195t285.5 -141.5t391 -52.5t391 52.5t285.5 141.5t105 196.5t-105 197t-285.5 142t-391 52.5t-391 -52.5t-285.5 -142t-105 -198.5zM842 1463h-9q-211 0 -391.5 -52.5t-285.5 -142t-105 -194.5v293q0 105 105 194t285.5 141.5t391.5 52.5h27
q-27 -100 -27 -196q0 -46 9 -96zM1614 887v-9v-293q0 105 -105 194.5t-285.5 142t-391 52.5t-391 -52.5t-285.5 -142t-105 -194.5v293q0 105 105 194t285.5 141.5t391.5 52.5h68q83 -173 249.5 -280.5t363.5 -107.5q46 0 100 9zM1985 1696q4 0 4 7t-4 11l-101 169
q-9 10 -27 10l-119 -42l-78 51l-18 128q0 4 -7 11t-11 7h-197q-9 0 -27 -18l-23 -128q-41 -14 -78 -51l-114 51q-19 0 -32 -9l-96 -165q-9 -14 9 -32l110 -78v-96l-110 -77q-9 -10 -9 -32l96 -165q13 -9 32 -9l114 50l78 -50l23 -128q0 -18 27 -18h197q4 0 11 6.5t7 11.5
l18 128q32 9 92 50l114 -50q32 0 32 9l96 165q9 9 -9 32l-110 77v96zM1660 1559q0 -55 -43.5 -100.5t-100.5 -45.5t-102.5 45.5t-45.5 102.5t45.5 100.5t102.5 43.5t100.5 -43.5t43.5 -102.5z" />
</svg>
