<?xml version="1.0" standalone="no"?>
<!DOCTYPE svg PUBLIC "-//W3C//DTD SVG 1.1//EN" "http://www.w3.org/Graphics/SVG/1.1/DTD/svg11.dtd" >
<svg xmlns="http://www.w3.org/2000/svg" xmlns:xlink="http://www.w3.org/1999/xlink" version="1.1" width="2048" height="2048" viewBox="-10 0 2068 2048">
   <path fill="currentColor"
d="M328 1598q0 -34 -24.5 -58.5t-58.5 -24.5t-58 24.5t-24 58.5t24 58t58 24t58.5 -24t24.5 -58zM532 942v819q0 34 -24 58t-58 24h-368q-34 0 -58 -24t-24 -58v-819q0 -34 24 -58t58 -24h368q34 0 58 24t24 58zM2048 942q0 51 -19 102t-52 89q19 54 19 98q4 95 -54 174
q22 72 0 150q-19 73 -70 120q12 144 -63 232q-82 98 -251 100h-46h-98h-22q-65 0 -130.5 -9t-137.5 -28.5t-112 -32t-114 -38.5q-56 -19 -81.5 -27.5t-62.5 -18t-58 -10.5q-33 -1 -57 -24.5t-24 -57.5v-820q0 -32 22.5 -56t54.5 -26q22 -2 68.5 -46.5t84.5 -90.5t74 -94
q84 -109 129 -153q22 -22 38 -56.5t22.5 -59.5t16.5 -71q2 -9 3 -14q7 -39 11.5 -58.5t14.5 -51.5t24 -55.5t34 -42.5q24 -25 58 -25q46 0 85 8.5t66.5 21.5t49.5 34t36 40t24 47t15 47.5t7.5 48.5t2.5 43v37q0 49 -11.5 97.5t-24.5 78t-35 71.5q-3 6 -12.5 22t-15 28.5
t-9.5 30.5h354q100 0 173 73t73 173z" />
</svg>
