<?xml version="1.0" standalone="no"?>
<!DOCTYPE svg PUBLIC "-//W3C//DTD SVG 1.1//EN" "http://www.w3.org/Graphics/SVG/1.1/DTD/svg11.dtd" >
<svg xmlns="http://www.w3.org/2000/svg" xmlns:xlink="http://www.w3.org/1999/xlink" version="1.1" width="2048" height="2048" viewBox="-10 0 2068 2048">
   <path fill="currentColor"
d="M690 320l-196 -197h1056l388 389v1056l-859 -859h274v-389h-663zM2048 1925l-123 123l-174 -169h-1372q-82 0 -139 -57t-57 -140v-1371l-183 -188l123 -123zM585 709l-206 -206v206h206zM1344 1467l-361 -356q-92 23 -153.5 100.5t-61.5 178.5q0 123 84.5 207.5
t208.5 84.5q100 0 178 -59.5t105 -155.5z" />
</svg>
