<?xml version="1.0" standalone="no"?>
<!DOCTYPE svg PUBLIC "-//W3C//DTD SVG 1.1//EN" "http://www.w3.org/Graphics/SVG/1.1/DTD/svg11.dtd" >
<svg xmlns="http://www.w3.org/2000/svg" xmlns:xlink="http://www.w3.org/1999/xlink" version="1.1" width="2048" height="2048" viewBox="-10 0 2068 2048">
   <path fill="currentColor"
d="M1751 1381q91 -87 91 -183v269zM1842 709q0 109 -114 200.5t-302 141.5l211 211q96 -51 150.5 -119.5t54.5 -141.5v-292zM1842 512q0 -105 -105 -194t-285.5 -142t-390.5 -53q-266 0 -480 83l681 685q251 -36 415.5 -139t164.5 -240zM123 0l-123 123l302 302
q-23 46 -23 87q0 119 128 215t338 142l224 228q-192 -14 -349.5 -66.5t-249 -137t-91.5 -184.5v292q0 105 105 194.5t285.5 142t391.5 52.5q91 0 196 -9l160 160q-164 45 -356 45q-211 0 -391.5 -52.5t-285.5 -141.5t-105 -194v292q0 105 105 194.5t285.5 142t391.5 52.5
q164 0 312.5 -32t258.5 -92l293 293l123 -123z" />
</svg>
