<?xml version="1.0" standalone="no"?>
<!DOCTYPE svg PUBLIC "-//W3C//DTD SVG 1.1//EN" "http://www.w3.org/Graphics/SVG/1.1/DTD/svg11.dtd" >
<svg xmlns="http://www.w3.org/2000/svg" xmlns:xlink="http://www.w3.org/1999/xlink" version="1.1" width="2048" height="2048" viewBox="-10 0 2058 2048">
   <path fill="currentColor"
d="M833 1074q-179 0 -334 -41t-251 -110v-274q109 60 262.5 96.5t322.5 36.5t322 -36.5t263 -96.5v238q50 -9 96 -9t100 9v-498q0 -106 -105 -195t-285.5 -141.5t-391 -52.5t-391 52.5t-285.5 141.5t-105 195v978q0 105 105 194t285.5 141.5t391.5 52.5h27
q-27 -100 -27 -196q-174 0 -320 -37q-119 -32 -197 -87q-68 -41 -68 -68v-220q246 119 585 119h68q60 -123 156 -210q-115 18 -224 18zM833 197q173 0 320 36q119 32 196 87q69 41 69 71t-69 71q-77 50 -196 82q-147 41 -320.5 41t-319.5 -41q-119 -32 -197 -82
q-68 -41 -68 -71t68 -71q78 -55 197 -87q146 -36 320 -36zM1875 1618v-96l110 -77q18 -23 9 -32l-96 -165q0 -9 -32 -9l-114 50q-60 -41 -92 -50l-18 -128q0 -5 -7 -11.5t-11 -6.5h-197q-27 0 -27 18l-23 128l-78 50l-114 -50q-19 0 -32 9l-96 165q0 22 9 32l110 77v96
l-110 78q-18 18 -9 32l96 165q13 9 32 9l114 -51q37 37 78 51l23 128q18 18 27 18h197q4 0 11 -7t7 -11l18 -128l78 -51l119 42q18 0 27 -10l101 -169q4 -4 4 -11t-4 -7zM1514 1705q-55 0 -100.5 -43.5t-45.5 -100.5t45.5 -102.5t102.5 -45.5t100.5 45.5t43.5 102.5
t-43.5 100.5t-102.5 43.5z" />
</svg>
