<?xml version="1.0" standalone="no"?>
<!DOCTYPE svg PUBLIC "-//W3C//DTD SVG 1.1//EN" "http://www.w3.org/Graphics/SVG/1.1/DTD/svg11.dtd" >
<svg xmlns="http://www.w3.org/2000/svg" xmlns:xlink="http://www.w3.org/1999/xlink" version="1.1" width="2048" height="2048" viewBox="-10 0 2068 2048">
   <path fill="currentColor"
d="M699 329l-141 -142q228 -160 503 -160q237 0 438.5 117t320 320t118.5 441v663l-196 -197v-466q0 -187 -91.5 -342.5t-249.5 -249.5t-340 -94q-197 0 -362 110zM2048 1925l-123 123l-320 -320l-252 247l-292 -293l-293 293l-293 -293l-292 293v-1070q0 -251 132 -466
l-315 -316l123 -123zM1463 1591l-608 -613q-41 23 -87 23q-82 0 -139.5 -57t-57.5 -139q0 -46 23 -87l-137 -137q-78 150 -78 324v599l96 -96l293 293l293 -293l292 293zM1353 613q-78 0 -132.5 50t-63.5 123l214 215q74 -9 126.5 -64t52.5 -132.5t-57.5 -134.5t-139.5 -57z
" />
</svg>
