<?xml version="1.0" standalone="no"?>
<!DOCTYPE svg PUBLIC "-//W3C//DTD SVG 1.1//EN" "http://www.w3.org/Graphics/SVG/1.1/DTD/svg11.dtd" >
<svg xmlns="http://www.w3.org/2000/svg" xmlns:xlink="http://www.w3.org/1999/xlink" version="1.1" width="2048" height="2048" viewBox="-10 0 2068 2048">
   <path fill="currentColor"
d="M328 451q0 33 -24.5 57t-58.5 24t-58 -24t-24 -57q0 -35 24 -58.5t58 -23.5t58.5 24t24.5 58zM532 1106v-819q0 -33 -24 -58t-58 -25h-368q-34 0 -58 25t-24 58v819q0 33 24 57t58 24h368q34 0 58 -24t24 -57zM1977 915q33 36 52 87.5t19 103.5q-1 100 -73.5 172.5
t-172.5 72.5h-354q4 19 9 31t15 29.5t13 22.5q23 45 34.5 71.5t24 75.5t12.5 98v38t-2.5 43t-7.5 48.5t-15 47.5t-24 47t-36 40.5t-49.5 34t-66.5 21t-85 8.5q-34 0 -58 -25q-20 -19 -34 -42.5t-24 -55.5t-14.5 -51t-11.5 -59q-1 -5 -3 -14q-10 -47 -16.5 -71.5t-22.5 -59
t-38 -56.5q-45 -45 -129 -154q-36 -47 -74 -93t-84.5 -91t-68.5 -46q-32 -3 -54.5 -26.5t-22.5 -55.5v-820q0 -33 24 -57.5t57 -25.5q21 0 58 -9.5t62.5 -18t81.5 -28.5q74 -25 114 -37.5t112 -32t137.5 -28.5t130.5 -9h22h98h46q169 2 251 100q75 88 63 231q50 47 70 121
q22 78 0 149q58 79 54 176q0 43 -19 97z" />
</svg>
