<?xml version="1.0" standalone="no"?>
<!DOCTYPE svg PUBLIC "-//W3C//DTD SVG 1.1//EN" "http://www.w3.org/Graphics/SVG/1.1/DTD/svg11.dtd" >
<svg xmlns="http://www.w3.org/2000/svg" xmlns:xlink="http://www.w3.org/1999/xlink" version="1.1" width="2048" height="2048" viewBox="-10 0 2058 2048">
   <path fill="currentColor"
d="M1024 0q-250 0 -461.5 122.5t-336.5 336.5t-125 464v1125l308 -308l307 308l308 -308l308 308l307 -308l308 308v-1125q0 -250 -125 -464t-336.5 -336.5t-461.5 -122.5zM1740 1553l-101 -101l-307 308l-308 -308l-308 308l-307 -308l-101 101v-630q0 -197 96 -360.5
t262 -262t358 -98.5t358 98.5t262 262t96 360.5v630zM923 817q0 87 -60 147t-146.5 60t-146.5 -60t-60 -144t60 -144.5t146.5 -60.5t146.5 60.5t60 141.5zM1538 817q0 87 -60 147t-146.5 60t-146.5 -60t-60 -144t60 -144.5t146.5 -60.5t146.5 60.5t60 141.5z" />
</svg>
