<?xml version="1.0" standalone="no"?>
<!DOCTYPE svg PUBLIC "-//W3C//DTD SVG 1.1//EN" "http://www.w3.org/Graphics/SVG/1.1/DTD/svg11.dtd" >
<svg xmlns="http://www.w3.org/2000/svg" xmlns:xlink="http://www.w3.org/1999/xlink" version="1.1" width="2048" height="2048" viewBox="-10 0 2058 2048">
   <path fill="currentColor"
d="M1532 1205v-358h185v548zM1059 216l490 256h-755l190 190h971v-190l-896 -472l-481 256l141 137zM402 847v663h185v-663h-185zM1955 1871l-362 -361l-61 -62l-565 -565l-813 -812l-119 119l230 229l-102 53v190h340l464 459v389h185v-199l388 384h-1377v190h1567l164 163
l119 -119z" />
</svg>
