<?xml version="1.0" standalone="no"?>
<!DOCTYPE svg PUBLIC "-//W3C//DTD SVG 1.1//EN" "http://www.w3.org/Graphics/SVG/1.1/DTD/svg11.dtd" >
<svg xmlns="http://www.w3.org/2000/svg" xmlns:xlink="http://www.w3.org/1999/xlink" version="1.1" width="2048" height="2048" viewBox="-10 0 2068 2048">
   <path fill="currentColor"
d="M1513 1138l-210 -205q146 -142 347 -243q101 -50 174 -68q-123 324 -311 516zM1061 27q-14 32 -32 69q-37 87 -64 178q-42 133 -60 261l325 320q36 -370 -169 -828zM1925 2048l123 -123l-1925 -1925l-123 123l731 732q-91 -78 -205 -137q-78 -41 -160 -73l-69 -23
q183 475 498 667q-123 -14 -256 9q-96 23 -187 60l-73 32q329 146 580 96q-86 68 -146 178q-27 55 -41 101q242 -92 338 -243v453h101v-453q96 151 338 243l-18 -51q-28 -55 -60 -109q-50 -69 -109 -119h18q59 9 91 13z" />
</svg>
