<?xml version="1.0" standalone="no"?>
<!DOCTYPE svg PUBLIC "-//W3C//DTD SVG 1.1//EN" "http://www.w3.org/Graphics/SVG/1.1/DTD/svg11.dtd" >
<svg xmlns="http://www.w3.org/2000/svg" xmlns:xlink="http://www.w3.org/1999/xlink" version="1.1" width="2048" height="2048" viewBox="-10 0 2068 2048">
   <path fill="currentColor"
d="M1415 1254l239 743l-632 -460l-633 465l239 -748l-628 -460h779l243 -748l243 748h783zM1146 1449l239 177l-93 -284zM929 794h186l-93 -288zM902 1449l-150 -111l-97 292zM1615 936h-306l58 176zM885 936l-89 261l226 168l225 -164l-88 -265h-274zM433 936l244 176
l57 -176h-301z" />
</svg>
