<?xml version="1.0" standalone="no"?>
<!DOCTYPE svg PUBLIC "-//W3C//DTD SVG 1.1//EN" "http://www.w3.org/Graphics/SVG/1.1/DTD/svg11.dtd" >
<svg xmlns="http://www.w3.org/2000/svg" xmlns:xlink="http://www.w3.org/1999/xlink" version="1.1" width="2048" height="2048" viewBox="-10 0 2068 2048">
   <path fill="currentColor"
d="M1359 228q-110 0 -204.5 61.5t-130.5 158.5h-175q-36 -97 -130.5 -158.5t-204.5 -61.5q-140 0 -234.5 92.5t-94.5 233.5q0 131 92 277q84 127 259 303q110 110 392 365l9 9v-5v35q0 97 30 194l-30 26l-137 -123q-303 -272 -422 -396q-189 -193 -277 -343
q-101 -171 -101 -342q0 -141 68 -260t187 -187t259 -68q124 0 233.5 53t189.5 141q79 -88 188.5 -141t233.5 -53q140 0 259 68t187 187t68 260q0 171 -106 351q-87 -22 -175 -22h-36q132 -176 132 -329q0 -141 -94.5 -233.5t-234.5 -92.5zM2044 1692l-92 163q-4 13 -31 13
l-114 -48q-44 31 -79 44l-18 127q-4 18 -22 18h-189q-22 0 -26 -18l-18 -127q-35 -13 -79 -44l-114 48q-27 0 -31 -13l-92 -163q-9 -17 4 -30l101 -75q-4 -22 -4 -46.5t4 -46.5l-101 -79q-13 -13 -4 -30l92 -163q9 -9 31 -9l114 44q40 -22 79 -44l18 -123q4 -18 26 -18h189
q18 0 22 18l18 123q31 13 79 44l114 -44q27 0 31 9l92 163q9 17 -4 30l-101 79q4 22 4 44l-4 49l101 75q13 13 4 30zM1732 1538q0 -57 -39.5 -98.5t-99 -41.5t-101 41.5t-41.5 101t41.5 99t101 39.5t99 -39.5t39.5 -101.5z" />
</svg>
