<?xml version="1.0" standalone="no"?>
<!DOCTYPE svg PUBLIC "-//W3C//DTD SVG 1.1//EN" "http://www.w3.org/Graphics/SVG/1.1/DTD/svg11.dtd" >
<svg xmlns="http://www.w3.org/2000/svg" xmlns:xlink="http://www.w3.org/1999/xlink" version="1.1" width="2048" height="2048" viewBox="-10 0 2068 2048">
   <path fill="currentColor"
d="M1225 1567v-210q0 -66 -38 -66q-24 0 -45 21v298q23 23 45 23q38 0 38 -66zM1472 1404h87v-46q0 -67 -44 -67q-43 0 -43 67v46zM710 1049v93h-107v565h-99v-565h-104v-93h310zM978 1217v490h-90v-53q-52 59 -101 59q-45 0 -56 -37q-9 -21 -9 -71v-388h89v361q0 32 1 35
q2 20 20 20q26 0 56 -42v-374h90zM1314 1365v195q0 71 -9 97q-16 56 -72 56q-47 0 -91 -54v48h-88v-658h88v215q42 -53 91 -53q56 0 72 56q9 27 9 98zM1649 1538v12q0 29 -4 57q-3 28 -19 54q-36 52 -106.5 52t-108.5 -50q-28 -37 -28 -114v-173q0 -78 27 -115
q38 -50 106 -50q69 0 105 50q28 39 28 115v101h-177v87q0 69 44 69q32 0 41 -35v-10t0.5 -21.5t0.5 -28.5h91zM1047 439v207q0 68 -42 68q-43 0 -43 -68v-207q0 -70 43 -70q42 0 42 70zM1757 1390q0 -84 -0.5 -122t-6 -105.5t-17.5 -119.5q-14 -58 -58 -98t-101 -46
q-84 -10 -188 -14.5t-171 -5t-190 -0.5t-190 0.5t-170.5 5t-188.5 14.5q-58 6 -101.5 46t-57.5 98q-12 52 -18 117t-7 111t-1 119q0 76 0.5 119t7 109t18.5 118q13 58 57 97.5t101 46.5q85 9 189 13.5t171 5.5t189.5 1t189.5 -1t171 -5.5t189 -13.5q57 -7 100 -46.5
t57 -97.5q12 -52 18.5 -118t7 -109t0.5 -119zM750 522l121 -396h-100l-68 260l-71 -260h-103q10 31 31 92t30 92q49 145 62 212v267h98v-267zM1137 629v-173q0 -78 -28 -116q-38 -51 -104 -51q-69 0 -105 51q-28 38 -28 116v173q0 78 28 117q36 50 105 50q66 0 104 -50
q28 -37 28 -117zM1378 789h89v-493h-89v377q-29 41 -56 41q-20 0 -22 -21q-1 -2 -1 -35v-362h-89v390q0 54 7 74q14 36 58 36q49 0 103 -60v53zM2048 384v1280q0 105 -51.5 193t-139.5 139.5t-193 51.5h-1280q-105 0 -193 -51.5t-139.5 -139.5t-51.5 -193v-1280
q0 -105 51.5 -193t139.5 -139.5t193 -51.5h1280q105 0 193 51.5t139.5 139.5t51.5 193z" />
</svg>
