<?xml version="1.0" standalone="no"?>
<!DOCTYPE svg PUBLIC "-//W3C//DTD SVG 1.1//EN" "http://www.w3.org/Graphics/SVG/1.1/DTD/svg11.dtd" >
<svg xmlns="http://www.w3.org/2000/svg" xmlns:xlink="http://www.w3.org/1999/xlink" version="1.1" width="2048" height="2048" viewBox="-10 0 2068 2048">
   <path fill="currentColor"
d="M1103 1496h-907v-996l800 496l800 -496v505q102 19 196 75v-781q0 -84 -58.5 -142.5t-137.5 -58.5h-1600q-79 0 -137.5 58.5t-58.5 142.5v1197q0 84 58.5 142.5t137.5 58.5h907q-9 -60 -9 -100t9 -101zM1796 299l-800 501l-800 -501h1600zM1833 1594l215 216l-140 140
l-215 -215l-211 215l-140 -140l210 -216l-210 -210l140 -140l211 210l215 -210l140 140z" />
</svg>
