<?xml version="1.0" standalone="no"?>
<!DOCTYPE svg PUBLIC "-//W3C//DTD SVG 1.1//EN" "http://www.w3.org/Graphics/SVG/1.1/DTD/svg11.dtd" >
<svg xmlns="http://www.w3.org/2000/svg" xmlns:xlink="http://www.w3.org/1999/xlink" version="1.1" width="2048" height="2048" viewBox="-10 0 2058 2048">
   <path fill="currentColor"
d="M535 1851h196v197h-196v-197zM928 2048h192v-197h-192v197zM1317 2048h196v-197h-196v197zM1998 535q0 178 -105 356q-92 156 -288 357q-124 128 -439 411l-142 128l-142 -128q-315 -283 -439 -411q-196 -201 -288 -357q-105 -178 -105 -356q0 -146 71 -269.5
t194.5 -194.5t269.5 -71q128 0 242.5 55t196.5 146q82 -91 196.5 -146t242.5 -55q146 0 269.5 71t194.5 194.5t71 269.5zM1806 535q0 -146 -98.5 -242t-244.5 -96q-114 0 -212.5 64t-135.5 164h-182q-37 -100 -135.5 -164t-212.5 -64q-146 0 -244.5 96t-98.5 242
q0 137 96 288q87 132 270 315q114 115 407 380l9 9l9 -9q293 -265 407 -380q183 -183 270 -315q96 -151 96 -288z" />
</svg>
