<?xml version="1.0" standalone="no"?>
<!DOCTYPE svg PUBLIC "-//W3C//DTD SVG 1.1//EN" "http://www.w3.org/Graphics/SVG/1.1/DTD/svg11.dtd" >
<svg xmlns="http://www.w3.org/2000/svg" xmlns:xlink="http://www.w3.org/1999/xlink" version="1.1" width="2048" height="2048" viewBox="-10 0 2058 2048">
   <path fill="currentColor"
d="M932 1860h184v188h-184v-188zM557 2048h188v-188h-188v188zM1303 2048h188v-188h-188v188zM1448 1114l152 655l-576 -350l-576 350l152 -655l-506 -442l668 -56l262 -616l262 616l668 56zM1373 1458l-91 -401l310 -267l-411 -35l-157 -375l-157 375l-411 35l310 267
l-91 401l349 -213z" />
</svg>
