<?xml version="1.0" standalone="no"?>
<!DOCTYPE svg PUBLIC "-//W3C//DTD SVG 1.1//EN" "http://www.w3.org/Graphics/SVG/1.1/DTD/svg11.dtd" >
<svg xmlns="http://www.w3.org/2000/svg" xmlns:xlink="http://www.w3.org/1999/xlink" version="1.1" width="2048" height="2048" viewBox="-10 0 2068 2048">
   <path fill="currentColor"
d="M1692 1231q-149 0 -250 101h-687l-375 -1231h-380v207h231l279 928l-48 -5q-150 0 -255.5 103t-105.5 252.5t105.5 255t255.5 105.5q105 0 191.5 -55.5t130.5 -151.5h581q48 96 134.5 151.5t192.5 55.5q149 0 252.5 -105.5t103.5 -255t-103.5 -252.5t-252.5 -103z
M462 1740q-68 0 -111 -43t-43 -108t43 -110.5t108 -45.5t110.5 45.5t45.5 110.5t-45.5 108t-107.5 43zM1692 1740q-67 0 -110.5 -43t-43.5 -108t43.5 -110.5t108.5 -45.5t110.5 45.5t45.5 110.5t-45.5 108t-108.5 43zM832 1231l-63 -207h332q58 0 108.5 31t74.5 84l48 92
h-500z" />
</svg>
