<?xml version="1.0" standalone="no"?>
<!DOCTYPE svg PUBLIC "-//W3C//DTD SVG 1.1//EN" "http://www.w3.org/Graphics/SVG/1.1/DTD/svg11.dtd" >
<svg xmlns="http://www.w3.org/2000/svg" xmlns:xlink="http://www.w3.org/1999/xlink" version="1.1" width="2048" height="2048" viewBox="-10 0 2068 2048">
   <path fill="currentColor"
d="M1833 1594l215 216l-140 140l-215 -215l-211 215l-140 -140l210 -216l-210 -210l140 -140l211 210l215 -210l140 140zM1094 1594q0 43 9 103h-907q-79 0 -137.5 -58.5t-58.5 -142.5v-1197q0 -84 58.5 -142.5t137.5 -58.5h1600q79 0 137.5 58.5t58.5 142.5v781
q-136 -84 -297 -84t-299 82t-220 219.5t-82 296.5zM1796 500v-201l-800 501l-800 -501v201l800 496z" />
</svg>
