<?xml version="1.0" standalone="no"?>
<!DOCTYPE svg PUBLIC "-//W3C//DTD SVG 1.1//EN" "http://www.w3.org/Graphics/SVG/1.1/DTD/svg11.dtd" >
<svg xmlns="http://www.w3.org/2000/svg" xmlns:xlink="http://www.w3.org/1999/xlink" version="1.1" width="2048" height="2048" viewBox="-10 0 2062 2048">
   <path fill="currentColor"
d="M1570 930q-222 9 -392.5 148.5t-222.5 353.5l-18 -13l-576 350l153 -655l-507 -442l668 -56l262 -616l262 616l668 56zM2038 1734l-92 161q-5 13 -31 13l-113 -48q-44 31 -79 44l-17 127q-5 17 -22 17h-188q-22 0 -26 -17l-18 -127q-35 -13 -78 -44l-114 48
q-26 0 -30 -13l-92 -161q-9 -18 4 -31l101 -74q-5 -22 -5 -46t5 -46l-101 -79q-13 -13 -4 -30l92 -162q8 -8 30 -8l114 43q39 -22 78 -43l18 -123q4 -17 26 -17h188q17 0 22 17l17 123q31 13 79 43l113 -43q26 0 31 8l92 162q8 17 -5 30l-100 79q4 22 4 44l-4 48l100 74
q13 13 5 31zM1727 1581q0 -57 -39 -98.5t-98 -41.5t-100.5 41.5t-41.5 100.5t41.5 98t100.5 39t98 -39t39 -100z" />
</svg>
