<?xml version="1.0" standalone="no"?>
<!DOCTYPE svg PUBLIC "-//W3C//DTD SVG 1.1//EN" "http://www.w3.org/Graphics/SVG/1.1/DTD/svg11.dtd" >
<svg xmlns="http://www.w3.org/2000/svg" xmlns:xlink="http://www.w3.org/1999/xlink" version="1.1" width="2048" height="2048" viewBox="-10 0 2068 2048">
   <path fill="currentColor"
d="M2048 1281v279q0 35 -22 59t-56 32l-183 -183h74v-95h-166l-22 -18v-165q0 -127 -61 -233.5t-167.5 -170t-233.5 -63.5h-170l-183 -187h74v-118q-43 -21 -69 -65t-26 -96q0 -74 54.5 -128.5t132.5 -54.5t132.5 54.5t54.5 128.5q0 52 -26 96t-69 65v118h95q175 0 325 87
t237.5 237.5t87.5 329.5h91q39 0 67.5 26t28.5 65zM697 1142q-74 0 -128.5 54.5t-54.5 130.5t54.5 130.5t131 54.5t131 -54.5t54.5 -130.5t-54.5 -130.5t-133.5 -54.5zM1965 1882l-117 118l-92 -87q-39 17 -83 17h-1298q-79 0 -133.5 -54.5t-54.5 -128.5v-96h-91
q-39 0 -67.5 -26t-28.5 -65v-279q0 -39 28.5 -65t67.5 -26h91q0 -170 81 -316t220 -233l-475 -475l118 -118zM1590 1747l-230 -235h-9q-79 0 -133.5 -54.5t-54.5 -128.5v-9l-540 -540q-113 57 -180.5 166t-67.5 244v183h-188v95h188v279h1215z" />
</svg>
