<?xml version="1.0" standalone="no"?>
<!DOCTYPE svg PUBLIC "-//W3C//DTD SVG 1.1//EN" "http://www.w3.org/Graphics/SVG/1.1/DTD/svg11.dtd" >
<svg xmlns="http://www.w3.org/2000/svg" xmlns:xlink="http://www.w3.org/1999/xlink" version="1.1" width="2048" height="2048" viewBox="-11 0 2070 2048">
   <path fill="currentColor"
d="M2028 654q-39 -104 -134 -143q-79 -35 -172.5 -11t-167.5 98q14 -39 27 -83q17 -95 2 -184.5t-59 -150.5q-61 -91 -165.5 -106t-200 65.5t-138.5 214.5q-48 -139 -146 -217t-200 -61t-163 104l-4 9l139 135q8 -26 17 -35q17 -30 35 -30q39 -5 89 49.5t67 145.5q9 44 5 83
l152 157l9 -9l13 30l126 122q30 13 49.5 17.5t37.5 4.5q100 0 191 -83q-65 152 -13 283q35 104 130 148q48 17 100 17q96 0 191.5 -65t152.5 -178q39 -83 48 -168t-18 -159zM1394 476q-18 91 -65.5 145.5t-87.5 50.5q-21 -5 -38.5 -31t-26.5 -76t5 -111q17 -87 62.5 -141
t84.5 -54h9q17 0 37 30.5t26.5 82.5t-6.5 104zM1833 898q-39 74 -102 115t-103 24q-21 -9 -32 -43.5t-6.5 -82.5t25.5 -96q35 -61 87 -100t96 -39h22q21 13 32 43.5t9 78.5t-28 100zM15 167l339 344q-108 -44 -204 -2.5t-130 145.5q-27 74 -18 159t48 168q57 113 152.5 178
t191.5 65q52 0 100 -17q95 -44 130 -148q43 -126 -4 -265q21 17 56 34l139 139q-35 35 -95 122q-74 105 -118 144q-30 30 -100 91q-82 61 -117 100q-57 61 -61 122q-9 78 32.5 156.5t110.5 112.5q44 22 100 22q70 0 218 -52q78 -26 117 -35q61 -17 111 -17t115 17
q39 9 113 35q148 48 218 48q56 0 104 -18q31 -17 57 -43l226 226l117 -117l-1830 -1831zM946 1098l543 543l-4 5q-9 4 -26 4q-35 0 -152 -39l-9 -4q-87 -31 -135 -39q-78 -22 -147.5 -22t-152.5 22q-48 13 -135 43l-17 4q-109 35 -144 35q-13 0 -17 -4q-17 -9 -30 -33
t-11 -43.5t85 -88.5l21 -13q83 -61 122 -105q48 -48 130 -161v-4q40 -57 79 -100zM428 815q26 48 30.5 96t-6.5 82.5t-32 43.5q-40 17 -103 -24t-102 -115q-26 -52 -28 -100t9 -78.5t32 -43.5l26 -4q40 0 92 39t82 104z" />
</svg>
