<?xml version="1.0" standalone="no"?>
<!DOCTYPE svg PUBLIC "-//W3C//DTD SVG 1.1//EN" "http://www.w3.org/Graphics/SVG/1.1/DTD/svg11.dtd" >
<svg xmlns="http://www.w3.org/2000/svg" xmlns:xlink="http://www.w3.org/1999/xlink" version="1.1" width="2048" height="2048" viewBox="-10 0 2058 2048">
   <path fill="currentColor"
d="M1256 1421v241q0 77 -45 77q-26 0 -51 -25v-344q25 -25 51 -25q45 0 45 76zM1642 1422v53h-103v-53q0 -77 52 -77q51 0 51 77zM538 1173h122v-107h-356v107h120v651h114v-651zM867 1824h102v-565h-102v432q-35 48 -65 48q-21 0 -24 -24q-1 -3 -1 -40v-416h-102v447
q0 58 9 83q13 43 67 43q55 0 116 -70v62zM1357 1654v-225q0 -84 -10 -113q-20 -64 -81 -64q-56 0 -106 62v-248h-102v758h102v-55q51 63 106 63q61 0 81 -63q10 -30 10 -115zM1744 1643v-15h-104q0 52 -3 70q-9 41 -45 41q-53 0 -53 -79v-99h205v-118q0 -90 -31 -133
q-45 -58 -121 -58q-78 0 -123 58q-32 42 -32 133v198q0 90 34 132q45 59 123 59q82 0 123 -61q21 -29 24 -62q3 -15 3 -66zM1049 600v-240q0 -79 -49 -79t-49 79v240q0 80 49 80t49 -80zM1871 1458q0 268 -30 400q-17 68 -67 113.5t-116 52.5q-210 24 -634 24
q-425 0 -635 -24q-66 -7 -116 -52.5t-66 -113.5q-30 -128 -30 -400q0 -268 30 -400q17 -68 67 -114t117 -53q209 -23 633 -23t634 23q66 8 116.5 54t66.5 113q14 60 21 136t8 125.5t1 138.5zM730 0h117l-139 456v309h-114v-309q-16 -87 -70 -243q-50 -142 -74 -213h121
l81 300zM1153 380v200q0 93 -32 135q-43 58 -121 58q-77 0 -120 -58q-32 -44 -32 -135v-200q0 -92 32 -134q43 -58 120 -58q78 0 121 58q32 42 32 134zM1536 195v570h-104v-63q-61 71 -118 71q-53 0 -67 -42q-10 -28 -10 -86v-450h104v419q0 36 2 40q3 26 24 26q30 0 65 -50
v-435h104z" />
</svg>
