<?xml version="1.0" standalone="no"?>
<!DOCTYPE svg PUBLIC "-//W3C//DTD SVG 1.1//EN" "http://www.w3.org/Graphics/SVG/1.1/DTD/svg11.dtd" >
<svg xmlns="http://www.w3.org/2000/svg" xmlns:xlink="http://www.w3.org/1999/xlink" version="1.1" width="2048" height="2048" viewBox="-10 0 2068 2048">
   <path fill="currentColor"
d="M2048 1433v206h-202q-207 0 -413 -101q-193 97 -409 97t-409 -97q-206 101 -413 101h-202v-206h202q211 0 413 -130q183 130 409 130t409 -130q202 130 413 130h202zM337 1207q86 -24 163 -77l115 -77q121 -404 -43 -837q332 58 610.5 317.5t394.5 610.5q115 72 231 82
q-72 -332 -281.5 -615.5t-497.5 -442.5q-298 -168 -620 -168q-58 0 -87 48t-5 101q154 308 145 601q-10 236 -125 457zM1433 1711q-183 130 -409 130t-409 -130q-202 135 -413 135h-202v202h202q207 0 413 -101q193 101 409 101t409 -101q206 101 413 101h202v-202h-202
q-211 0 -413 -135z" />
</svg>
