<?xml version="1.0" standalone="no"?>
<!DOCTYPE svg PUBLIC "-//W3C//DTD SVG 1.1//EN" "http://www.w3.org/Graphics/SVG/1.1/DTD/svg11.dtd" >
<svg xmlns="http://www.w3.org/2000/svg" xmlns:xlink="http://www.w3.org/1999/xlink" version="1.1" width="2048" height="2048" viewBox="-11 0 2070 2048">
   <path fill="currentColor"
d="M2028 724q-39 -104 -130 -143q-83 -35 -174 -11t-170 98q14 -40 27 -83q17 -96 2 -185t-59 -150q-61 -91 -165.5 -106.5t-200 65t-138.5 215.5q-48 -139 -146 -217.5t-200 -61t-163 104.5q-48 65 -61 152t9 183q4 39 17 65q-78 -65 -163 -84.5t-163 15.5q-91 39 -130 143
q-27 74 -18 159t48 167q57 113 152.5 178.5t191.5 65.5q52 0 100 -18q95 -43 130 -148q48 -117 -4 -265q82 65 169 65q18 0 31 -4q100 -13 161 -104q21 -31 39 -65q13 39 30 65q65 91 165 104q13 4 31 4q100 0 191 -82q-65 152 -13 282q35 105 130 148q48 18 100 18
q96 0 191.5 -65.5t152.5 -178.5q39 -82 48 -167t-18 -159zM454 1068q-13 30 -34 39q-40 17 -103 -24t-102 -115q-26 -53 -28 -100.5t9 -78t32 -43.5l26 -5q40 0 92 39.5t82 104.5q26 48 32.5 98t-6.5 85zM828 715q-17 22 -34 26q-40 5 -87.5 -49.5t-69.5 -145.5
q-9 -61 -2.5 -111t26 -78.5t37.5 -28.5q39 -4 89 50.5t67 145.5q13 61 4.5 111t-30.5 80zM1394 546q-18 91 -65.5 145.5t-87.5 49.5q-21 -4 -38.5 -30t-26.5 -76t5 -111q17 -87 62.5 -141.5t84.5 -54.5h9q17 0 37 30.5t26.5 83t-6.5 104.5zM1833 968q-39 74 -102 115
t-103 24q-21 -9 -32 -44t-6.5 -82.5t25.5 -95.5q35 -61 87 -100t96 -39h26q17 13 30.5 43.5t9 78t-30.5 100.5zM1424 1302q-35 -34 -104 -130q-87 -122 -135 -170q-83 -74 -170 -74t-165 74q-48 44 -130 157q-74 104 -118 143q-30 31 -100 92q-82 61 -117 100
q-57 61 -61 121q-9 79 32.5 157t110.5 113q44 22 100 22q70 0 218 -52q78 -26 117 -35q61 -18 111 -18t115 18q39 9 113 35q148 47 218 47q56 0 104 -17q61 -30 102.5 -93t39 -133t-63.5 -139q-30 -44 -121 -122q-70 -61 -96 -96zM1485 1715q-9 5 -26 5q-35 0 -157 -39
l-4 -5q-87 -30 -135 -39q-78 -22 -147.5 -22t-152.5 22q-48 13 -135 44l-17 4q-109 35 -144 35q-13 0 -17 -5q-17 -8 -30 -32t-11 -43.5t85 -89.5l21 -13q83 -61 122 -104q48 -48 130 -161l9 -13q105 -148 139.5 -148t147.5 157l4 8q70 100 118 153q30 30 87 86l22 22
q121 100 126 131q0 13 -13 28t-22 19z" />
</svg>
