<?xml version="1.0" standalone="no"?>
<!DOCTYPE svg PUBLIC "-//W3C//DTD SVG 1.1//EN" "http://www.w3.org/Graphics/SVG/1.1/DTD/svg11.dtd" >
<svg xmlns="http://www.w3.org/2000/svg" xmlns:xlink="http://www.w3.org/1999/xlink" version="1.1" width="2048" height="2048" viewBox="-10 0 2068 2048">
   <path fill="currentColor"
d="M1875 615l96 -312q34 -10 55.5 -36.5t21.5 -65t-29 -69.5t-72 -31t-72 31t-29 69.5t24 72.5l-77 264l-77 -264q24 -34 24 -72.5t-28.5 -69.5t-72 -31t-72.5 31t-29 69.5t22 65t55 36.5l96 312q-76 15 -124.5 70t-48.5 132v231q-105 -240 -324 -389t-488 -149
q-197 0 -363 101t-264.5 271.5t-98.5 372.5q0 139 57.5 261.5t154.5 209.5l-125 14q-39 5 -63 36.5t-24 70t29 69.5t72 31h1654q81 0 136.5 -55.5t55.5 -136.5v-760q48 -29 74.5 -74.5t26.5 -103.5q0 -77 -48 -132t-125 -70zM1394 1577l-365 48q77 -135 77 -264
q0 -183 -125 -308t-298 -125q-82 0 -159 34q-38 19 -50 59.5t7 79t57.5 53t74.5 -2t70 -16.5q91 0 153.5 64.5t62.5 161.5q0 125 -86.5 216t-211.5 91q-164 0 -281.5 -120t-117.5 -293q0 -144 72 -269t192.5 -197.5t259.5 -72.5q187 0 343.5 94t248 255t91.5 348
q0 77 -15 164z" />
</svg>
