<?xml version="1.0" standalone="no"?>
<!DOCTYPE svg PUBLIC "-//W3C//DTD SVG 1.1//EN" "http://www.w3.org/Graphics/SVG/1.1/DTD/svg11.dtd" >
<svg xmlns="http://www.w3.org/2000/svg" xmlns:xlink="http://www.w3.org/1999/xlink" version="1.1" width="2048" height="2048" viewBox="-10 0 2058 2048">
   <path fill="currentColor"
d="M841 1581q0 148 66 279h-625q-78 0 -132.5 -54.5t-54.5 -128.5v-1494q0 -74 54.5 -128.5t132.5 -54.5h92v651l236 -140l231 140v-651h559q79 0 133.5 54.5t54.5 128.5v756q-52 -9 -96 -9q-175 0 -325.5 87.5t-238 238t-87.5 325.5zM1942 1712q4 0 4 6.5t-4 10.5l-96 162
q-9 9 -27 9l-113 -40l-74 48l-18 123q0 4 -6.5 10.5t-10.5 6.5h-188q-9 0 -26 -17l-22 -123q-39 -13 -74 -48l-109 48q-18 0 -31 -8l-92 -158q-8 -13 9 -30l105 -74v-92l-105 -74q-9 -9 -9 -31l92 -157q13 -9 31 -9l109 48l74 -48l22 -122q0 -18 26 -18h188q4 0 10.5 6.5
t6.5 11.5l18 122q30 9 87 48l109 -48q31 0 31 9l91 157q9 9 -8 31l-105 74v92zM1632 1581q0 -53 -41.5 -96.5t-96 -43.5t-98.5 43.5t-44 98.5t44 96t98.5 41t96 -41t41.5 -98z" />
</svg>
