<?xml version="1.0" standalone="no"?>
<!DOCTYPE svg PUBLIC "-//W3C//DTD SVG 1.1//EN" "http://www.w3.org/Graphics/SVG/1.1/DTD/svg11.dtd" >
<svg xmlns="http://www.w3.org/2000/svg" xmlns:xlink="http://www.w3.org/1999/xlink" version="1.1" width="2048" height="2048" viewBox="-10 0 2058 2048">
   <path fill="currentColor"
d="M971 1918q0 68 29 130h-745q-87 0 -147 -60t-60 -142v-1644q0 -82 60 -142t147 -60h1231q86 0 146 60t60 142v524q-53 -10 -103.5 -10t-102.5 10v-524h-515v822l-255 -231l-254 231v-822h-207v1644h716v72zM1875 1433h-442v-255q0 -58 45.5 -96.5t110.5 -38.5t108 38.5
t43 96.5v53h135v-53q0 -106 -89 -180.5t-199.5 -74.5t-197 74.5t-86.5 180.5v255q-48 0 -86.5 38.5t-38.5 86.5v360q0 53 38.5 91.5t86.5 38.5h562q53 0 94 -36t41 -84v-361q0 -53 -38.5 -93.5t-86.5 -40.5z" />
</svg>
