<?xml version="1.0" standalone="no"?>
<!DOCTYPE svg PUBLIC "-//W3C//DTD SVG 1.1//EN" "http://www.w3.org/Graphics/SVG/1.1/DTD/svg11.dtd" >
<svg xmlns="http://www.w3.org/2000/svg" xmlns:xlink="http://www.w3.org/1999/xlink" version="1.1" width="2048" height="2048" viewBox="-10 0 2058 2048">
   <path fill="currentColor"
d="M1631 860v-677q0 -74 -54.5 -128.5t-133.5 -54.5h-1118q-78 0 -132.5 54.5t-54.5 128.5v1494q0 74 54.5 128.5t132.5 54.5h476q92 92 207.5 140t246.5 48q179 0 330 -87.5t238 -238t87 -325.5q0 -166 -76 -305.5t-203 -231.5zM1443 183v590q-96 -31 -188 -31
q-144 0 -279 66v-625h467zM325 183h188v747l232 -209l148 135q-131 87 -209.5 231t-78.5 310q0 144 65 280h-345v-1494zM1255 1860q-126 0 -233 -61t-168 -168t-61 -233.5t61 -233.5t168 -170.5t233.5 -63.5t233.5 63.5t170.5 170.5t63.5 233.5t-63.5 233.5t-170.5 168
t-234 61zM1303 1419l267 157l-70 114l-336 -201v-467h139v397z" />
</svg>
