<?xml version="1.0" standalone="no"?>
<!DOCTYPE svg PUBLIC "-//W3C//DTD SVG 1.1//EN" "http://www.w3.org/Graphics/SVG/1.1/DTD/svg11.dtd" >
<svg xmlns="http://www.w3.org/2000/svg" xmlns:xlink="http://www.w3.org/1999/xlink" version="1.1" width="2048" height="2048" viewBox="-10 0 2058 2048">
   <path fill="currentColor"
d="M1630 894l-861 861v293h-514q-87 0 -147 -60t-60 -142v-1644q0 -82 60 -142t147 -60h101v716l259 -154l255 154v-716h616q86 0 146 60t60 142v649q-38 19 -62 43zM971 1841v207h212l629 -625l-211 -212zM1981 1173l-135 -135q-14 -14 -36 -14t-36 14l-101 101l212 212
l96 -101q19 -14 19 -36t-19 -41z" />
</svg>
