<?xml version="1.0" standalone="no"?>
<!DOCTYPE svg PUBLIC "-//W3C//DTD SVG 1.1//EN" "http://www.w3.org/Graphics/SVG/1.1/DTD/svg11.dtd" >
<svg xmlns="http://www.w3.org/2000/svg" xmlns:xlink="http://www.w3.org/1999/xlink" version="1.1" width="2048" height="2048" viewBox="-10 0 2058 2048">
   <path fill="currentColor"
d="M1303 1419l267 157l-70 114l-336 -201v-467h139v397zM1910 1397q0 175 -87 325.5t-238 238t-330 87.5q-131 0 -246.5 -48t-207.5 -140h-476q-78 0 -132.5 -54.5t-54.5 -128.5v-1494q0 -74 54.5 -128.5t132.5 -54.5h92v651l236 -140l231 140v-651h559q79 0 133.5 54.5
t54.5 128.5v677q127 92 203 231.5t76 305.5zM1723 1397q0 -126 -63.5 -233t-170.5 -170.5t-233.5 -63.5t-233.5 63.5t-168 170.5t-61 233.5t61 233.5t168 168t233.5 61t233.5 -61t170.5 -168t63.5 -234z" />
</svg>
