<?xml version="1.0" standalone="no"?>
<!DOCTYPE svg PUBLIC "-//W3C//DTD SVG 1.1//EN" "http://www.w3.org/Graphics/SVG/1.1/DTD/svg11.dtd" >
<svg xmlns="http://www.w3.org/2000/svg" xmlns:xlink="http://www.w3.org/1999/xlink" version="1.1" width="2048" height="2048" viewBox="-10 0 2058 2048">
   <path fill="currentColor"
d="M891 814q-12 21 -317 564q-11 17 -19.5 28t-25 20.5t-37.5 9.5h-296q-24 0 -37 -22q-13 -20 0 -44l313 -555q1 0 0 -1l-200 -346q-14 -27 -1 -45q12 -19 39 -19h296q50 0 82 55zM1889 18q14 20 0 46l-653 1157q-1 0 -1 0.5t1 0.5l416 762q13 26 1 46q-14 18 -39 18h-297
q-51 0 -81 -55l-420 -771q22 -40 657 -1167q15 -26 32.5 -40.5t47.5 -14.5h298q26 0 38 18z" />
</svg>
