<?xml version="1.0" standalone="no"?>
<!DOCTYPE svg PUBLIC "-//W3C//DTD SVG 1.1//EN" "http://www.w3.org/Graphics/SVG/1.1/DTD/svg11.dtd" >
<svg xmlns="http://www.w3.org/2000/svg" xmlns:xlink="http://www.w3.org/1999/xlink" version="1.1" width="2048" height="2048" viewBox="-10 0 2068 2048">
   <path fill="currentColor"
d="M402 1275l-196 192v-1248q0 -77 57 -134.5t139 -57.5h1171q36 0 68 10l-187 182h-371v371l-214 215l-28 -23l-242 219v-782h-197v1056zM2048 123l-279 284v1376q0 78 -57 135t-139 57h-1171q-87 0 -141 -64l-138 137l-123 -123l1925 -1925zM1573 599l-1171 1170v14h1171
v-1184z" />
</svg>
