<?xml version="1.0" standalone="no"?>
<!DOCTYPE svg PUBLIC "-//W3C//DTD SVG 1.1//EN" "http://www.w3.org/Graphics/SVG/1.1/DTD/svg11.dtd" >
<svg xmlns="http://www.w3.org/2000/svg" xmlns:xlink="http://www.w3.org/1999/xlink" version="1.1" width="2048" height="2048" viewBox="-10 0 2058 2048">
   <path fill="currentColor"
d="M1024 1801q0 78 27 146h-708q-82 0 -139.5 -57t-57.5 -135v-1563q0 -78 57.5 -135t139.5 -57h1170q82 0 139.5 57t57.5 135v686h-197v-686h-489v782l-242 -220l-243 220v-782h-196v1563h686zM1710 1070h-147v507q-45 -18 -100 -18q-101 0 -171.5 71t-70.5 171.5
t70.5 173.5t171 73t174 -73t73.5 -174v-535h192v-196h-192z" />
</svg>
