<?xml version="1.0" standalone="no"?>
<!DOCTYPE svg PUBLIC "-//W3C//DTD SVG 1.1//EN" "http://www.w3.org/Graphics/SVG/1.1/DTD/svg11.dtd" >
<svg xmlns="http://www.w3.org/2000/svg" xmlns:xlink="http://www.w3.org/1999/xlink" version="1.1" width="2048" height="2048" viewBox="-10 0 2058 2048">
   <path fill="currentColor"
d="M1005 1796q19 102 75 196h-781q-84 0 -142.5 -58.5t-58.5 -137.5v-1600q0 -79 58.5 -137.5t142.5 -58.5h1197q84 0 142.5 58.5t58.5 137.5v907q-60 -9 -100 -9t-101 9v-907h-500v800l-248 -224l-248 224v-800h-201v1600h706zM1950 1482l-140 -140l-216 210l-210 -210
l-140 140l210 211l-210 215l140 140l210 -215l216 215l140 -140l-215 -215z" />
</svg>
