<?xml version="1.0" standalone="no"?>
<!DOCTYPE svg PUBLIC "-//W3C//DTD SVG 1.1//EN" "http://www.w3.org/Graphics/SVG/1.1/DTD/svg11.dtd" >
<svg xmlns="http://www.w3.org/2000/svg" xmlns:xlink="http://www.w3.org/1999/xlink" version="1.1" width="2048" height="2048" viewBox="-10 0 2068 2048">
   <path fill="currentColor"
d="M1769 279h-187v-92h231q21 0 34.5 13.5t13.5 34.5v183q0 22 -13.5 35t-34.5 13h-44v92h-96v-183h96v-96zM1673 745h96v-91h-96v91zM1490 187h-96v371h96v-371zM2048 1303v279q0 39 -28.5 65t-67.5 26h-91v96q0 74 -54.5 128.5t-133.5 54.5h-1298q-79 0 -133.5 -54.5
t-54.5 -128.5v-96h-91q-39 0 -67.5 -26t-28.5 -65v-279q0 -39 28.5 -65.5t67.5 -26.5h91q0 -178 87.5 -328.5t237.5 -237.5t325 -87h95v-118q-43 -22 -69 -65.5t-26 -95.5q0 -74 54.5 -128.5t132.5 -54.5t132.5 54.5t54.5 128.5q0 52 -26 95.5t-69 65.5v118h95q44 0 92 8
v271h440q118 170 118 374h91q39 0 67.5 26.5t28.5 65.5zM837 1351q0 -96 -67.5 -165.5t-163.5 -69.5t-163.5 69.5t-67.5 165.5t67.5 163.5t163.5 67.5t163.5 -67.5t67.5 -163.5zM1673 1351q0 -96 -67.5 -165.5t-163.5 -69.5t-163.5 69.5t-67.5 165.5t67.5 163.5t163.5 67.5
t163.5 -67.5t67.5 -163.5zM1490 654h-96v91h96v-91z" />
</svg>
