<?xml version="1.0" standalone="no"?>
<!DOCTYPE svg PUBLIC "-//W3C//DTD SVG 1.1//EN" "http://www.w3.org/Graphics/SVG/1.1/DTD/svg11.dtd" >
<svg xmlns="http://www.w3.org/2000/svg" xmlns:xlink="http://www.w3.org/1999/xlink" version="1.1" width="2048" height="2048" viewBox="-10 0 2068 2048">
   <path fill="currentColor"
d="M1673 654h96v91h-96v-91zM1769 375h-96v183h96v-92h44q21 0 34.5 -13t13.5 -35v-183q0 -21 -13.5 -34.5t-34.5 -13.5h-231v92h187v96zM1490 187h-96v371h96v-371zM1163 1351q0 74 54.5 128.5t131 54.5t131 -54.5t54.5 -131t-54.5 -131t-131 -54.5t-131 54.5t-54.5 133.5z
M1490 654h-96v91h96v-91zM1952 1211h-91q0 -204 -118 -374h-257q87 65 137 163t50 211v183h188v96h-188v279h-1298v-279h-188v-96h188v-183q0 -126 61 -233t167.5 -170t233.5 -63h374q44 0 92 9v-188q-48 -8 -92 -8h-95v-118q43 -22 69 -65.5t26 -95.5q0 -74 -54.5 -128.5
t-132.5 -54.5t-132.5 54.5t-54.5 128.5q0 52 26 95.5t69 65.5v118h-95q-175 0 -325 87t-237.5 237.5t-87.5 328.5h-91q-39 0 -67.5 26.5t-28.5 65.5v279q0 39 28.5 65t67.5 26h91v96q0 74 54.5 128.5t133.5 54.5h1298q79 0 133.5 -54.5t54.5 -128.5v-96h91q39 0 67.5 -26
t28.5 -65v-279q0 -39 -28.5 -65.5t-67.5 -26.5zM697 1163q-74 0 -128.5 54.5t-54.5 131t54.5 131t131 54.5t131 -54.5t54.5 -131t-54.5 -131t-133.5 -54.5z" />
</svg>
