<?xml version="1.0" standalone="no"?>
<!DOCTYPE svg PUBLIC "-//W3C//DTD SVG 1.1//EN" "http://www.w3.org/Graphics/SVG/1.1/DTD/svg11.dtd" >
<svg xmlns="http://www.w3.org/2000/svg" xmlns:xlink="http://www.w3.org/1999/xlink" version="1.1" width="2048" height="2048" viewBox="-10 0 2068 2048">
   <path fill="currentColor"
d="M1952 1211h-91q0 -178 -87.5 -328.5t-237.5 -237.5t-325 -87h-95v-118q43 -22 69 -65.5t26 -95.5q0 -74 -54.5 -128.5t-132.5 -54.5t-132.5 54.5t-54.5 128.5q0 52 26 95.5t69 65.5v118h-95q-175 0 -325 87t-237.5 237.5t-87.5 328.5h-91q-39 0 -67.5 26.5t-28.5 65.5
v279q0 39 28.5 65t67.5 26h91v96q0 74 54.5 128.5t133.5 54.5h1298q79 0 133.5 -54.5t54.5 -128.5v-96h91q39 0 67.5 -26t28.5 -65v-279q0 -39 -28.5 -65.5t-67.5 -26.5zM810 1346l-69 66l-135 139l-205 -205q-26 -30 -26 -69t28 -67.5t67.5 -28.5t65.5 30l70 66l69 -66
q27 -30 66 -30t67.5 28.5t28.5 67.5t-27 69zM1647 1346l-70 66l-135 139l-204 -205q-27 -30 -27 -69t28.5 -67.5t67.5 -28.5t66 30l69 66l70 -66q26 -30 65.5 -30t67.5 28.5t28 67.5t-26 69z" />
</svg>
