<?xml version="1.0" standalone="no"?>
<!DOCTYPE svg PUBLIC "-//W3C//DTD SVG 1.1//EN" "http://www.w3.org/Graphics/SVG/1.1/DTD/svg11.dtd" >
<svg xmlns="http://www.w3.org/2000/svg" xmlns:xlink="http://www.w3.org/1999/xlink" version="1.1" width="2048" height="2048" viewBox="-10 0 2068 2048">
   <path fill="currentColor"
d="M1952 1211h-91q0 -178 -87.5 -328.5t-237.5 -237.5t-325 -87h-95v-118q43 -22 69 -65.5t26 -95.5q0 -74 -54.5 -128.5t-132.5 -54.5t-132.5 54.5t-54.5 128.5q0 52 26 95.5t69 65.5v118h-95q-175 0 -325 87t-237.5 237.5t-87.5 328.5h-91q-39 0 -67.5 26.5t-28.5 65.5
v279q0 39 28.5 65t67.5 26h91v96q0 74 54.5 128.5t133.5 54.5h1298q79 0 133.5 -54.5t54.5 -128.5v-96h91q39 0 67.5 -26t28.5 -65v-279q0 -39 -28.5 -65.5t-67.5 -26.5zM1861 1490h-188v279h-1298v-279h-188v-96h188v-183q0 -126 61 -233t167.5 -170t233.5 -63h374
q127 0 233.5 63t167.5 170t61 233v183h188v96zM697 1163l222 218l-109 114l-113 -114l-109 114l-109 -114zM1351 1163l218 218l-109 114l-109 -114l-113 114l-109 -114z" />
</svg>
