<?xml version="1.0" standalone="no"?>
<!DOCTYPE svg PUBLIC "-//W3C//DTD SVG 1.1//EN" "http://www.w3.org/Graphics/SVG/1.1/DTD/svg11.dtd" >
<svg xmlns="http://www.w3.org/2000/svg" xmlns:xlink="http://www.w3.org/1999/xlink" version="1.1" width="2048" height="2048" viewBox="-10 0 2068 2048">
   <path fill="currentColor"
d="M898 1251l-101 100l101 96l-101 100l-100 -100l-96 100l-100 -100l100 -96l-100 -100l100 -101l96 101l100 -101zM1447 1150l-96 101l-100 -101l-101 101l101 100l-101 96l101 100l100 -100l96 100l100 -100l-100 -96l100 -100zM2048 1303v279q0 39 -28.5 65t-67.5 26
h-91v96q0 74 -54.5 128.5t-133.5 54.5h-1298q-79 0 -133.5 -54.5t-54.5 -128.5v-96h-91q-39 0 -67.5 -26t-28.5 -65v-279q0 -39 28.5 -65.5t67.5 -26.5h91q0 -178 87.5 -328.5t237.5 -237.5t325 -87h95v-118q-43 -22 -69 -65.5t-26 -95.5q0 -74 54.5 -128.5t132.5 -54.5
t132.5 54.5t54.5 128.5q0 52 -26 95.5t-69 65.5v118h95q175 0 325 87t237.5 237.5t87.5 328.5h91q39 0 67.5 26.5t28.5 65.5zM1861 1394h-188v-183q0 -126 -61 -233t-167.5 -170t-233.5 -63h-374q-127 0 -233.5 63t-167.5 170t-61 233v183h-188v96h188v279h1298v-279h188
v-96z" />
</svg>
