<?xml version="1.0" standalone="no"?>
<!DOCTYPE svg PUBLIC "-//W3C//DTD SVG 1.1//EN" "http://www.w3.org/Graphics/SVG/1.1/DTD/svg11.dtd" >
<svg xmlns="http://www.w3.org/2000/svg" xmlns:xlink="http://www.w3.org/1999/xlink" version="1.1" width="2048" height="2048" viewBox="-11 0 2070 2048">
   <path fill="currentColor"
d="M813 1289l553 -286l-553 -289v575zM1024 304q192 0 371 5t263 10l83 5q3 0 19.5 2t25.5 3.5t27.5 5t32.5 9.5t32 14.5t35 22t33 30.5q3 2 7 7t16 23.5t22 40t20.5 57t15.5 75.5q10 74 15 157t6 129v46v155q1 166 -21 332q-5 39 -15 74.5t-21 58t-21.5 39.5t-16.5 24l-7 7
q-16 17 -33 30t-35 21.5t-32 14.5t-32.5 9.5t-27.5 5t-25.5 3.5t-19.5 2q-287 22 -717 22q-237 -2 -411 -7.5t-229 -9.5l-56 -4q-6 -1 -32.5 -4t-45.5 -7t-46.5 -12.5t-53.5 -24.5t-48 -39q-3 -3 -7 -8t-16 -23t-22 -39.5t-20.5 -57.5t-15.5 -75q-10 -74 -15 -157t-6 -129
v-46v-155q-1 -166 21 -332q5 -40 15 -75.5t21 -57.5t21.5 -39t16.5 -24l7 -7q16 -17 33 -30.5t35 -22t32 -14.5t32.5 -9.5t27.5 -5t25.5 -3.5t19.5 -2q287 -20 717 -20z" />
</svg>
