<?xml version="1.0" standalone="no"?>
<!DOCTYPE svg PUBLIC "-//W3C//DTD SVG 1.1//EN" "http://www.w3.org/Graphics/SVG/1.1/DTD/svg11.dtd" >
<svg xmlns="http://www.w3.org/2000/svg" xmlns:xlink="http://www.w3.org/1999/xlink" version="1.1" width="2048" height="2048" viewBox="-10 0 2058 2048">
   <path fill="currentColor"
d="M1099 1367q0 82 -57 139t-139 57t-139.5 -57t-57.5 -139t57.5 -139.5t139.5 -57.5t139 57.5t57 139.5zM318 1856v-978h1170v301q59 -9 98 -9t99 9v-301q0 -78 -57.5 -135t-139.5 -57h-96v-197q0 -132 -66.5 -244t-178.5 -178.5t-244.5 -66.5t-244.5 66.5t-178 178.5
t-66 244h196q0 -123 84.5 -207.5t208 -84.5t208 84.5t84.5 207.5v197h-877q-83 0 -140 57t-57 135v978q0 78 57 135t140 57h763q-55 -87 -73 -192h-690zM1813 1449l-348 352l-155 -155l-115 109l270 293l462 -462z" />
</svg>
