<?xml version="1.0" standalone="no"?>
<!DOCTYPE svg PUBLIC "-//W3C//DTD SVG 1.1//EN" "http://www.w3.org/Graphics/SVG/1.1/DTD/svg11.dtd" >
<svg xmlns="http://www.w3.org/2000/svg" xmlns:xlink="http://www.w3.org/1999/xlink" version="1.1" width="2048" height="2048" viewBox="-10 0 2058 2048">
   <path fill="currentColor"
d="M1099 1367q0 82 -57 139t-139 57t-139.5 -57t-57.5 -139t57.5 -139.5t139.5 -57.5t139 57.5t57 139.5zM1008 1856q18 101 73 192h-763q-83 0 -140 -57t-57 -135v-978q0 -78 57 -135t140 -57h96v-197q0 -132 66 -244t178 -178.5t244.5 -66.5t244.5 66.5t178.5 178.5
t66.5 244v197h96q82 0 139.5 57t57.5 135v301q-60 -9 -99 -9t-98 9v-301h-1170v978h690zM610 686h585v-197q0 -123 -84.5 -207.5t-208 -84.5t-208 84.5t-84.5 207.5v197zM1813 1449l-348 352l-155 -155l-115 109l270 293l462 -462z" />
</svg>
