<?xml version="1.0" standalone="no"?>
<!DOCTYPE svg PUBLIC "-//W3C//DTD SVG 1.1//EN" "http://www.w3.org/Graphics/SVG/1.1/DTD/svg11.dtd" >
<svg xmlns="http://www.w3.org/2000/svg" xmlns:xlink="http://www.w3.org/1999/xlink" version="1.1" width="2048" height="2048" viewBox="-10 0 2068 2048">
   <path fill="currentColor"
d="M2048 1281v279q0 35 -22 59t-56 32l-297 -300v-22q0 -96 -67.5 -165.5t-163.5 -69.5q-17 0 -26 4l-558 -562h74v-118q-43 -21 -69 -65t-26 -96q0 -74 54.5 -128.5t132.5 -54.5t132.5 54.5t54.5 128.5q0 52 -26 96t-69 65v118h95q175 0 325 87t237.5 237.5t87.5 329.5h91
q39 0 67.5 26t28.5 65zM1965 1882l-117 118l-92 -87q-39 17 -83 17h-1298q-79 0 -133.5 -54.5t-54.5 -128.5v-96h-91q-39 0 -67.5 -26t-28.5 -65v-279q0 -39 28.5 -65t67.5 -26h91q0 -170 81 -316t220 -233l-475 -475l118 -118zM837 1329q0 -96 -67.5 -165.5t-163.5 -69.5
t-163.5 69.5t-67.5 165.5t67.5 163.5t163.5 67.5t163.5 -67.5t67.5 -163.5zM1403 1556l-187 -188q13 70 63 122.5t124 65.5z" />
</svg>
