<?xml version="1.0" standalone="no"?>
<!DOCTYPE svg PUBLIC "-//W3C//DTD SVG 1.1//EN" "http://www.w3.org/Graphics/SVG/1.1/DTD/svg11.dtd" >
<svg xmlns="http://www.w3.org/2000/svg" xmlns:xlink="http://www.w3.org/1999/xlink" version="1.1" width="2048" height="2048" viewBox="-10 0 2058 2048">
   <path fill="currentColor"
d="M1095 1331q0 80 -55.5 136t-135.5 56t-136 -56t-56 -136t56 -135.5t136 -55.5t135.5 55.5t55.5 135.5zM334 1808v-953h1140v294q58 -9 95.5 -9t95.5 9v-294q0 -76 -55.5 -131.5t-135.5 -55.5h-94v-192q0 -129 -64.5 -238t-173.5 -173.5t-238 -64.5t-238 64.5t-174 173.5
t-65 238h192q0 -120 82.5 -202.5t202.5 -82.5t202.5 82.5t82.5 202.5v192h-855q-80 0 -136 55.5t-56 131.5v953q0 75 56 131t136 56h743q-53 -85 -71 -187h-672zM1906 1509l-134 -133l-205 200l-200 -200l-134 133l201 201l-201 204l134 134l200 -205l205 205l134 -134
l-205 -204z" />
</svg>
