<?xml version="1.0" standalone="no"?>
<!DOCTYPE svg PUBLIC "-//W3C//DTD SVG 1.1//EN" "http://www.w3.org/Graphics/SVG/1.1/DTD/svg11.dtd" >
<svg xmlns="http://www.w3.org/2000/svg" xmlns:xlink="http://www.w3.org/1999/xlink" version="1.1" width="2048" height="2048" viewBox="-10 0 2068 2048">
   <path fill="currentColor"
d="M1013 366q-233 0 -449 72.5t-397 208.5l-167 -224q216 -163 473.5 -251t539.5 -88t539.5 88t473.5 251l-167 224q-181 -136 -397 -208.5t-449 -72.5zM1343 995q132 -66 282 -66h22l44 -57q-145 -106 -319 -165.5t-359 -59.5t-359 59.5t-319 165.5l171 225
q225 -168 507 -168q172 0 330 66zM1013 1211q-189 0 -339 115l339 449l31 -44q-31 -97 -31 -189q0 -177 92 -322q-48 -9 -92 -9zM2048 1542q0 176 -123.5 299t-299.5 123t-299.5 -123t-123.5 -299.5t123.5 -299.5t299.5 -123t299.5 123t123.5 300zM1766 1784l-383 -383
q-40 61 -40 141q0 114 81.5 197.5t200.5 83.5q79 0 141 -39zM1907 1542q0 -119 -83.5 -200.5t-198.5 -81.5q-79 0 -141 39l383 383q40 -61 40 -140z" />
</svg>
