<?xml version="1.0" standalone="no"?>
<!DOCTYPE svg PUBLIC "-//W3C//DTD SVG 1.1//EN" "http://www.w3.org/Graphics/SVG/1.1/DTD/svg11.dtd" >
<svg xmlns="http://www.w3.org/2000/svg" xmlns:xlink="http://www.w3.org/1999/xlink" version="1.1" width="2048" height="2048" viewBox="-10 0 2058 2048">
   <path fill="currentColor"
d="M1567 1140q40 0 98 9v-294q0 -76 -55.5 -131.5t-135.5 -55.5h-94v-192q0 -129 -64.5 -238t-173.5 -173.5t-238 -64.5t-238 64.5t-174 173.5t-65 238h192q0 -120 82.5 -202.5t202.5 -82.5t202.5 82.5t82.5 202.5v192h-855q-80 0 -136 55.5t-56 131.5v953q0 75 56 131
t136 56h743q-80 -130 -80 -283.5t78 -284.5t209.5 -209t282.5 -78zM904 1523q-80 0 -136 -56t-56 -136t56 -135.5t136 -55.5t135.5 55.5t55.5 135.5t-55.5 136t-135.5 56zM1701 1710l205 204l-134 134l-205 -205l-200 205l-134 -134l201 -204l-201 -201l134 -133l200 200
l205 -200l134 133z" />
</svg>
