<?xml version="1.0" standalone="no"?>
<!DOCTYPE svg PUBLIC "-//W3C//DTD SVG 1.1//EN" "http://www.w3.org/Graphics/SVG/1.1/DTD/svg11.dtd" >
<svg xmlns="http://www.w3.org/2000/svg" xmlns:xlink="http://www.w3.org/1999/xlink" version="1.1" width="2048" height="2048" viewBox="-10 0 2058 2048">
   <path fill="currentColor"
d="M1095 1331q0 80 -55.5 136t-135.5 56t-136 -56t-56 -136t56 -135.5t136 -55.5t135.5 55.5t55.5 135.5zM1006 1808q18 98 71 187h-743q-80 0 -136 -56t-56 -131v-953q0 -76 56 -131.5t136 -55.5h93v-192q0 -129 65 -238t174 -173.5t238 -64.5t238 64.5t173.5 173.5
t64.5 238v192h94q80 0 135.5 55.5t55.5 131.5v294q-58 -9 -95.5 -9t-95.5 9v-294h-1140v953h672zM619 668h570v-192q0 -120 -82.5 -202.5t-202.5 -82.5t-202.5 82.5t-82.5 202.5v192zM1906 1509l-134 -133l-205 200l-200 -200l-134 133l201 201l-201 204l134 134l200 -205
l205 205l134 -134l-205 -204z" />
</svg>
