<?xml version="1.0" standalone="no"?>
<!DOCTYPE svg PUBLIC "-//W3C//DTD SVG 1.1//EN" "http://www.w3.org/Graphics/SVG/1.1/DTD/svg11.dtd" >
<svg xmlns="http://www.w3.org/2000/svg" xmlns:xlink="http://www.w3.org/1999/xlink" version="1.1" width="2048" height="2048" viewBox="-10 0 2068 2048">
   <path fill="currentColor"
d="M1877 335h-222v222q-282 -125 -592 -125q-245 0 -471.5 76.5t-415.5 219.5l-176 -236q227 -171 497 -263.5t566 -92.5q430 0 814 199zM707 1440l356 472l356 -472q-157 -120 -355.5 -120t-356.5 120zM351 964l181 236q235 -176 531 -176t532 176l60 -79v-231
q-273 -162 -592 -162q-194 0 -376.5 62.5t-335.5 173.5zM1854 1519h194v-199h-194v199zM1854 529v592h194v-592h-194z" />
</svg>
