<?xml version="1.0" standalone="no"?>
<!DOCTYPE svg PUBLIC "-//W3C//DTD SVG 1.1//EN" "http://www.w3.org/Graphics/SVG/1.1/DTD/svg11.dtd" >
<svg xmlns="http://www.w3.org/2000/svg" xmlns:xlink="http://www.w3.org/1999/xlink" version="1.1" width="2048" height="2048" viewBox="-10 0 2068 2048">
   <path fill="currentColor"
d="M1013 414q-233 0 -449 72.5t-397 209.5l-167 -225q216 -163 473.5 -251t539.5 -88t539.5 88t473.5 251l-167 225q-181 -137 -397 -209.5t-449 -72.5zM1519 819q-242 -123 -506 -123q-185 0 -359 59.5t-319 164.5l171 225q225 -167 507 -167q132 0 260 39
q84 -145 246 -198zM674 1374l339 449l92 -123v-233q0 -97 67 -181q-80 -26 -159 -26q-189 0 -339 114zM2048 1475v331q0 44 -37.5 77t-85.5 33h-516q-44 0 -79 -35.5t-35 -83.5v-330q0 -44 35 -79.5t79 -35.5v-141q0 -97 79.5 -165t181 -68t182.5 68t81 165v141
q45 0 80 37.5t35 85.5zM1810 1211q0 -53 -39.5 -86t-99 -33t-101.5 33t-42 86v141h282v-141z" />
</svg>
