<?xml version="1.0" standalone="no"?>
<!DOCTYPE svg PUBLIC "-//W3C//DTD SVG 1.1//EN" "http://www.w3.org/Graphics/SVG/1.1/DTD/svg11.dtd" >
<svg xmlns="http://www.w3.org/2000/svg" xmlns:xlink="http://www.w3.org/1999/xlink" version="1.1" width="2048" height="2048" viewBox="-10 0 2069 2048">
   <path fill="currentColor"
d="M972 889q-271 0 -486 160l-165 -215q140 -102 306.5 -159t344 -57t344.5 57t307 159l-43 55q-148 8 -270 72q-161 -72 -338 -72zM1783 618l161 -215q-207 -157 -454.5 -241.5t-518 -84.5t-517.5 84.5t-454 241.5l161 215q173 -131 380 -200.5t431 -69.5t431 69.5
t380 200.5zM972 1159q-182 0 -325 110l325 431l21 -25q-21 -81 -21 -157q0 -190 106 -346q-55 -13 -106 -13zM2037 1645q4 0 4 6.5t-4 10.5l-93 156q-9 9 -26 9l-109 -38l-72 46l-17 119q0 4 -6.5 10.5t-10.5 6.5h-182q-8 0 -25 -17l-21 -119q-38 -12 -72 -46l-106 46
q-17 0 -29 -8l-89 -152q-9 -13 8 -30l102 -72v-88l-102 -72q-8 -9 -8 -30l89 -152q12 -8 29 -8l106 46l72 -46l21 -119q0 -17 25 -17h182q4 0 10.5 6.5t6.5 10.5l17 119q29 8 84 46l106 -46q29 0 29 8l89 152q9 9 -8 30l-102 72v88zM1737 1518q0 -50 -40.5 -92.5t-93 -42.5
t-95 42.5t-42.5 95t42.5 93t95 40.5t93 -40.5t40.5 -95.5z" />
</svg>
