<?xml version="1.0" standalone="no"?>
<!DOCTYPE svg PUBLIC "-//W3C//DTD SVG 1.1//EN" "http://www.w3.org/Graphics/SVG/1.1/DTD/svg11.dtd" >
<svg xmlns="http://www.w3.org/2000/svg" xmlns:xlink="http://www.w3.org/1999/xlink" version="1.1" width="2048" height="2048" viewBox="-10 0 2068 2048">
   <path fill="currentColor"
d="M1013 907q-282 0 -507 168l-171 -225q145 -106 319 -165.5t359 -59.5t359 59.5t319 165.5l-123 159q-57 13 -101 30q-203 -132 -454 -132zM1859 625l167 -224q-216 -163 -473.5 -251t-539.5 -88t-539.5 88t-473.5 251l167 224q181 -136 397 -208.5t449 -72.5t449 72.5
t397 208.5zM1013 1189q-189 0 -339 115l339 449l97 -132q-5 -18 -5 -57q0 -185 115 -335q-106 -40 -207 -40zM1577 1519l-282 234l282 233v-141h374v-185h-374v-141zM2048 1379l-282 -238v141h-379v189h379v141z" />
</svg>
