<?xml version="1.0" standalone="no"?>
<!DOCTYPE svg PUBLIC "-//W3C//DTD SVG 1.1//EN" "http://www.w3.org/Graphics/SVG/1.1/DTD/svg11.dtd" >
<svg xmlns="http://www.w3.org/2000/svg" xmlns:xlink="http://www.w3.org/1999/xlink" version="1.1" width="2048" height="2048" viewBox="-10 0 2068 2048">
   <path fill="currentColor"
d="M416 798l608 375l-421 351l-603 -393zM1629 1481v133l-603 360v1l-1 -1l-1 1v-1l-602 -360v-133l181 119l421 -350v-3l1 2l1 -2v3l422 350zM603 73l421 351l-608 374l-416 -332zM1632 798l416 333l-602 393l-422 -351zM1446 73l602 393l-416 332l-608 -374z" />
</svg>
