<?xml version="1.0" standalone="no"?>
<!DOCTYPE svg PUBLIC "-//W3C//DTD SVG 1.1//EN" "http://www.w3.org/Graphics/SVG/1.1/DTD/svg11.dtd" >
<svg xmlns="http://www.w3.org/2000/svg" xmlns:xlink="http://www.w3.org/1999/xlink" version="1.1" width="2048" height="2048" viewBox="-10 0 2068 2048">
   <path fill="currentColor"
d="M1024 407q-236 0 -454 73.5t-401 211.5l-169 -227q218 -164 478.5 -253.5t545.5 -89.5t545.5 89.5t478.5 253.5l-169 227q-183 -138 -401 -211.5t-454 -73.5zM1117 1271q-44 -9 -93 -9q-191 0 -343 116l343 454l169 -227q-76 -165 -76 -294v-40zM1024 692
q-187 0 -363 60.5t-323 166.5l174 227q227 -169 512 -169q98 0 200 23q116 -152 290 -196q-232 -112 -490 -112zM1972 1311q0 152 -164 401q-85 125 -165 214l-89 -103q-98 -129 -160 -245q-85 -160 -85 -267q0 -138 98 -236t233.5 -98t233.5 98t98 236zM1754 1320
q0 -44 -35.5 -80t-78 -36t-78 33.5t-35.5 80.5t33.5 80t82.5 33t84.5 -35.5t26.5 -75.5z" />
</svg>
