<?xml version="1.0" standalone="no"?>
<!DOCTYPE svg PUBLIC "-//W3C//DTD SVG 1.1//EN" "http://www.w3.org/Graphics/SVG/1.1/DTD/svg11.dtd" >
<svg xmlns="http://www.w3.org/2000/svg" xmlns:xlink="http://www.w3.org/1999/xlink" version="1.1" width="2048" height="2048" viewBox="-10 0 2068 2048">
   <path fill="currentColor"
d="M1013 366q-233 0 -449 72.5t-397 208.5l-167 -224q216 -163 473.5 -251t539.5 -88t539.5 88t473.5 251l-167 224q-181 -136 -397 -208.5t-449 -72.5zM1013 1211q-189 0 -339 115l339 449l119 -159q-27 -88 -27 -171q0 -106 45 -216q-75 -18 -137 -18zM1317 987
q141 -124 326 -146q-286 -194 -630 -194q-185 0 -359 59.5t-319 165.5l171 225q225 -168 507 -168q159 0 304 58zM1669 1682q-97 0 -165 -70t-68 -167q0 -53 26 -106l-105 -101q-62 97 -62 207q0 158 110 268t264 110v141l212 -211l-212 -211v140zM1669 1070v-141l-211 212
l211 211v-141q97 0 167.5 68.5t70.5 165.5q0 57 -26 105l101 102q66 -93 66 -207q0 -155 -110 -265t-269 -110z" />
</svg>
