<?xml version="1.0" standalone="no"?>
<!DOCTYPE svg PUBLIC "-//W3C//DTD SVG 1.1//EN" "http://www.w3.org/Graphics/SVG/1.1/DTD/svg11.dtd" >
<svg xmlns="http://www.w3.org/2000/svg" xmlns:xlink="http://www.w3.org/1999/xlink" version="1.1" width="2048" height="2048" viewBox="-10 0 2068 2048">
   <path fill="currentColor"
d="M1013 366q-233 0 -449 72.5t-397 208.5l-167 -224q216 -163 473.5 -251t539.5 -88t539.5 88t473.5 251l-167 224q-181 -136 -397 -208.5t-449 -72.5zM1013 1211q-189 0 -339 115l339 449l97 -132q-5 -18 -5 -57q0 -185 115 -335q-106 -40 -207 -40zM1467 1061
q44 -17 101 -30l123 -159q-145 -106 -319 -165.5t-359 -59.5t-359 59.5t-319 165.5l171 225q225 -168 507 -168q251 0 454 132zM1766 1493v-282h-189v282h-282v189h282v282h189v-282h282v-189h-282z" />
</svg>
