<?xml version="1.0" standalone="no"?>
<!DOCTYPE svg PUBLIC "-//W3C//DTD SVG 1.1//EN" "http://www.w3.org/Graphics/SVG/1.1/DTD/svg11.dtd" >
<svg xmlns="http://www.w3.org/2000/svg" xmlns:xlink="http://www.w3.org/1999/xlink" version="1.1" width="2048" height="2048" viewBox="-10 0 2068 2048">
   <path fill="currentColor"
d="M1024 953q-285 0 -512 169l-174 -227q147 -107 323 -167t363 -60t363 60t323 167l-45 58h-22q-152 0 -285 67q-160 -67 -334 -67zM1879 668l169 -227q-218 -165 -478.5 -254t-545.5 -89t-545.5 89t-478.5 254l169 227q183 -138 401 -211.5t454 -73.5t454 73.5t401 211.5z
M1024 1238q-191 0 -343 115l343 455l31 -45q-31 -98 -31 -191q0 -178 93 -325q-48 -9 -93 -9zM1594 1189q-156 0 -267.5 111t-111.5 269t111.5 269.5t267.5 111.5q120 0 216 -64.5t136 -171.5h-161q-35 45 -84 69.5t-107 24.5q-98 0 -167 -69t-69 -167t69 -169.5t167 -71.5
t169 71l-169 170h378v-383l-111 111q-111 -111 -267 -111z" />
</svg>
