<?xml version="1.0" standalone="no"?>
<!DOCTYPE svg PUBLIC "-//W3C//DTD SVG 1.1//EN" "http://www.w3.org/Graphics/SVG/1.1/DTD/svg11.dtd" >
<svg xmlns="http://www.w3.org/2000/svg" xmlns:xlink="http://www.w3.org/1999/xlink" version="1.1" width="2048" height="2048" viewBox="-10 0 2068 2048">
   <path fill="currentColor"
d="M1013 414q-233 0 -449 72.5t-397 209.5l-167 -225q216 -163 473.5 -251t539.5 -88t539.5 88t473.5 251l-167 225q-181 -137 -397 -209.5t-449 -72.5zM1418 771q-198 -75 -405 -75q-185 0 -359 59.5t-319 164.5l171 225q225 -167 507 -167q115 0 225 31q44 -150 180 -238z
M674 1374l339 449l92 -123v-233q0 -97 67 -181q-80 -26 -159 -26q-189 0 -339 114zM1933 1352h-405v-233q0 -53 42 -88.5t101.5 -35.5t99 35.5t39.5 88.5v48h123v-48q0 -97 -81 -165.5t-182.5 -68.5t-181 68.5t-79.5 165.5v233q-44 0 -79 35.5t-35 79.5v330q0 48 35 83.5
t79 35.5h516q48 0 85.5 -33t37.5 -77v-331q0 -48 -35 -85.5t-80 -37.5z" />
</svg>
