<?xml version="1.0" standalone="no"?>
<!DOCTYPE svg PUBLIC "-//W3C//DTD SVG 1.1//EN" "http://www.w3.org/Graphics/SVG/1.1/DTD/svg11.dtd" >
<svg xmlns="http://www.w3.org/2000/svg" xmlns:xlink="http://www.w3.org/1999/xlink" version="1.1" width="2048" height="2048" viewBox="-10 0 2068 2048">
   <path fill="currentColor"
d="M1498 1071q-133 44 -241 137v-5q0 -64 47 -110.5t110 -46.5q45 0 84 25zM1360 732v54q0 64 47 110.5t111 46.5h157q0 49 -5 103h5q103 0 201 34q10 -68 10 -137q0 -84 -15 -157q-15 -35 -54 -44q-19 -10 -34 -10h-211v-103q0 -64 -54 -94q-25 -9 -50 -9h-211v-109
q0 -63 -54 -88q-24 -15 -49 -15h-108v-211q0 -64 -49 -88q-29 -15 -54 -15q-255 0 -471.5 127.5t-344 344t-127.5 471.5t127.5 471.5t344 344t471.5 127.5q69 0 137 -10q-34 -98 -34 -201v-5q-74 10 -177 0q54 -10 91 -51.5t37 -103t-46.5 -108.5t-113 -47t-110.5 47
t-44 111q0 83 68 132q-206 -54 -353.5 -216t-176.5 -373q-10 -54 -10 -157q5 59 49 100.5t108 41.5t111 -44t47 -110.5t-47 -113t-111 -46.5q-54 0 -95.5 32t-56.5 81q34 -241 206 -418t418 -211v152q0 64 44 111t113 47h49v49q0 68 46.5 112.5t110.5 44.5h157zM840 471
q0 -63 -46.5 -110t-113 -47t-110.5 47t-44 110.5t44 110.5t110.5 47t113 -47t46.5 -111zM889 1154q69 0 113 -46.5t44 -113t-44 -110.5t-110.5 -44t-113 44t-46.5 110.5t46.5 113t110.5 46.5zM2048 1454l-147 -148l-226 221l-221 -221l-148 148l221 221l-221 226l148 147
l221 -226l226 226l147 -147l-226 -226z" />
</svg>
