<?xml version="1.0" standalone="no"?>
<!DOCTYPE svg PUBLIC "-//W3C//DTD SVG 1.1//EN" "http://www.w3.org/Graphics/SVG/1.1/DTD/svg11.dtd" >
<svg xmlns="http://www.w3.org/2000/svg" xmlns:xlink="http://www.w3.org/1999/xlink" version="1.1" width="2048" height="2048" viewBox="-10 0 2068 2048">
   <path fill="currentColor"
d="M1414 1046q45 0 84 25q93 -25 177 -25q103 0 201 34q10 -68 10 -137q0 -84 -15 -157q-15 -35 -54 -44q-19 -10 -34 -10h-211v-103q0 -64 -54 -94q-25 -9 -50 -9h-211v-109q0 -63 -54 -88q-24 -15 -49 -15h-108v-211q0 -64 -49 -88q-29 -15 -54 -15q-255 0 -471.5 127.5
t-344 344t-127.5 471.5t127.5 471.5t344 344t471.5 127.5q69 0 137 -10q-34 -98 -34 -201q0 -138 56.5 -258t154.5 -209v-5q0 -64 47 -110.5t110 -46.5zM368 1046q-68 0 -112.5 -44t-44.5 -110.5t44.5 -113t110.5 -46.5t113 46.5t47 113t-47 110.5t-111 44zM526 471
q0 -63 44 -110t110.5 -47t113 47t46.5 110.5t-46.5 110.5t-113 47t-110.5 -47t-44 -111zM840 1675q-69 0 -113 -44.5t-44 -110.5t44 -113t110.5 -47t113 47t46.5 113t-46.5 110.5t-110.5 44.5zM889 1154q-64 0 -110.5 -46.5t-46.5 -113t46.5 -110.5t113 -44t110.5 44
t44 110.5t-44 113t-113 46.5zM1822 1675l226 226l-147 147l-226 -226l-221 226l-148 -147l221 -226l-221 -221l148 -148l221 221l226 -221l147 148z" />
</svg>
