<?xml version="1.0" standalone="no"?>
<!DOCTYPE svg PUBLIC "-//W3C//DTD SVG 1.1//EN" "http://www.w3.org/Graphics/SVG/1.1/DTD/svg11.dtd" >
<svg xmlns="http://www.w3.org/2000/svg" xmlns:xlink="http://www.w3.org/1999/xlink" version="1.1" width="2048" height="2048" viewBox="-10 0 2068 2048">
   <path fill="currentColor"
d="M1260 1238v-5q0 -64 47 -110.5t111 -46.5q44 0 84 24q93 -24 177 -24q103 0 202 34q9 -69 9 -138q0 -83 -14 -157q-15 -35 -54 -45q-20 -9 -35 -9h-212v-104q0 -64 -54 -93q-24 -10 -49 -10h-212v-108q0 -64 -54 -89q-24 -15 -49 -15h-108v-212q0 -64 -50 -88
q-29 -15 -54 -15q-256 0 -472.5 128t-344.5 344.5t-128 472.5t128 473t344.5 345t472.5 128q69 0 138 -10q-34 -99 -34 -202q0 -138 56.5 -258.5t154.5 -209.5zM369 1076q-69 0 -113 -44.5t-44 -111t44 -113t110.5 -46.5t113.5 46.5t47 113t-47 111t-111 44.5zM527 500
q0 -64 44 -111t110.5 -47t113.5 47t47 111t-47 110.5t-113.5 46.5t-110.5 -46.5t-44 -110.5zM842 1706q-69 0 -113.5 -44.5t-44.5 -111t44.5 -113t111 -46.5t113 46.5t46.5 113t-46.5 111t-110.5 44.5zM891 1184q-64 0 -110.5 -47t-46.5 -113t46.5 -110.5t113 -44.5
t111 44.5t44.5 110.5t-44.5 113t-113.5 47zM2048 1524l-497 497l-291 -315l123 -118l168 167l374 -379z" />
</svg>
