<?xml version="1.0" standalone="no"?>
<!DOCTYPE svg PUBLIC "-//W3C//DTD SVG 1.1//EN" "http://www.w3.org/Graphics/SVG/1.1/DTD/svg11.dtd" >
<svg xmlns="http://www.w3.org/2000/svg" xmlns:xlink="http://www.w3.org/1999/xlink" version="1.1" width="2048" height="2048" viewBox="-10 0 2068 2048">
   <path fill="currentColor"
d="M1365 1024.5q0 -92.5 -45.5 -171t-124 -124.5t-171 -46t-171.5 45.5t-124.5 124.5t-45.5 171.5t46 171t124.5 124t171 45.5t171 -45.5t124 -124t45.5 -171zM1549 1024q0 107 -41.5 204.5t-111.5 167.5t-167.5 111.5t-204.5 41.5t-204 -41.5t-167.5 -111.5t-112.5 -167.5
t-42 -204.5t42 -204t112.5 -167.5t167.5 -112.5t204 -42t204.5 42t167.5 112.5t111.5 167.5t41.5 204zM1693 477.5q0 50.5 -36 86.5t-86.5 36t-86.5 -36t-36 -86.5t36 -86.5t86.5 -36t86.5 36t36 86.5zM1024.5 184q-13.5 0 -103 -1t-140 0t-129.5 4.5t-136.5 13t-95.5 24.5
q-68 27 -118 77t-77 118q-15 38 -24.5 95.5t-13 136.5t-4.5 129.5t0 140t1 103t-1 103t0 139.5t4.5 129t13 136.5t24.5 95.5q27 68 77 117.5t118 77.5q38 15 95 24.5t138 13t127.5 4.5t142 0.5t102 -0.5t102 0.5t141.5 -0.5t127 -4.5t138 -13t95 -24.5q68 -28 117.5 -77.5
t77.5 -117.5q15 -38 24.5 -95t13 -138t4.5 -127t0.5 -141.5t-0.5 -102t0.5 -102t-0.5 -142t-4.5 -127.5t-13 -138t-24.5 -95q-28 -68 -77.5 -118t-117.5 -77q-38 -15 -95.5 -24.5t-136.5 -13t-129 -4.5t-139.5 0t-103 1zM2048 1024.5v100v117t-1.5 93.5t-4.5 112
q-7 135 -44 239.5t-122 189.5t-189.5 122t-239.5 44q-50 3 -112 4.5t-93.5 1.5h-117h-100h-100h-117.5t-94 -1.5t-112 -4.5q-135 -7 -240 -44t-189.5 -121.5t-121 -189.5t-43.5 -240q-7 -121 -7 -423t7 -423q7 -135 43.5 -240t121 -189.5t189.5 -121t240 -43.5
q121 -7 423 -7t423 7q135 7 240 43.5t189.5 121t121.5 189.5t44 240q3 50 4.5 112t1.5 94v117.5v100z" />
</svg>
