<?xml version="1.0" standalone="no"?>
<!DOCTYPE svg PUBLIC "-//W3C//DTD SVG 1.1//EN" "http://www.w3.org/Graphics/SVG/1.1/DTD/svg11.dtd" >
<svg xmlns="http://www.w3.org/2000/svg" xmlns:xlink="http://www.w3.org/1999/xlink" version="1.1" width="2048" height="2048" viewBox="-10 0 2068 2048">
   <path fill="currentColor"
d="M2032 853q-16 -37 -59 -48q-21 -10 -37 -10h-229v-112q0 -70 -59 -102q-27 -10 -53 -10h-230v-118q0 -69 -58 -96q-27 -16 -54 -16h-117v-229q0 -69 -53 -96q-32 -16 -59 -16q-277 0 -512 138.5t-373.5 373.5t-138.5 512t138.5 512t373.5 373.5t512 138.5t512 -138.5
t373.5 -373.5t138.5 -512q0 -91 -16 -171zM944 1813q59 -10 99 -55.5t40 -112t-51 -117.5t-123 -51t-120 51t-48 120q0 91 75 144q-224 -59 -384 -235t-192 -405q-11 -59 -11 -171q6 64 54 109.5t117 45.5t120 -48t51 -120t-51 -122.5t-120 -50.5q-59 0 -104 34.5t-61 87.5
q37 -261 223.5 -453t453.5 -229v165q0 69 48 120t123 51h53v53q0 75 50.5 123t120.5 48h170v58q0 70 51 120.5t120 50.5h171q0 229 -117.5 418.5t-320 293.5t-437.5 77zM741 683q-74 0 -122 -51t-48 -120t48 -120t120 -51t122.5 51t50.5 120t-50.5 120t-120.5 51zM1136 1083
q0 69 -48 119.5t-120 50.5t-122.5 -50.5t-50.5 -122.5t50.5 -120t122.5 -48t120 48t48 123zM1707 1307q0 74 -51 122t-120 48t-120 -48t-51 -120t51 -122.5t120 -50.5t120 50.5t51 120.5z" />
</svg>
