<?xml version="1.0" standalone="no"?>
<!DOCTYPE svg PUBLIC "-//W3C//DTD SVG 1.1//EN" "http://www.w3.org/Graphics/SVG/1.1/DTD/svg11.dtd" >
<svg xmlns="http://www.w3.org/2000/svg" xmlns:xlink="http://www.w3.org/1999/xlink" version="1.1" width="2048" height="2048" viewBox="-10 0 2068 2048">
   <path fill="currentColor"
d="M1394 1255q0 57 -41 98t-95.5 41t-98 -41t-43.5 -95.5t43.5 -98t98 -43.5t95.5 43.5t41 95.5zM1665 885q8 47 8 139q0 227 -111 420.5t-302.5 305t-420.5 111.5t-420.5 -111.5t-305 -305t-113.5 -420.5t113.5 -420.5t305 -305t418.5 -111.5l26 5q26 4 43 22q26 26 26 65
v187h92l26 5q26 4 44 21q22 27 22 66v96h187h26q26 8 44 26q21 26 21 65v92h188l30 8q35 9 53 40zM1490 1024h-139q-57 0 -98.5 -41.5t-41.5 -97.5v-48h-139q-57 0 -98.5 -41.5t-41.5 -98.5v-43h-47q-57 0 -98.5 -44t-41.5 -96v-131q-213 27 -365.5 183.5t-183.5 374.5
q9 -43 46 -73.5t89 -30.5t93.5 43.5t41.5 98t-41.5 96t-98 41.5t-93.5 -37.5t-46 -93.5q0 96 9 139q26 188 159 331.5t316 191.5q-65 -48 -65 -106.5t41 -102.5t98 -44t98.5 44t41.5 94t-30.5 89t-83.5 52q192 22 357.5 -63t263.5 -242t98 -344zM793 932q-57 0 -98 41.5
t-41 96t41 98t95.5 43.5t98 -43.5t43.5 -98t-43.5 -96t-95.5 -41.5zM745 606q0 -57 -41.5 -98.5t-98 -41.5t-98 41.5t-41.5 98t41.5 98t98 41.5t98 -41.5t41.5 -97.5zM1861 1490h187v-187h-187v187zM1861 558v558h187v-558h-187z" />
</svg>
