<?xml version="1.0" standalone="no"?>
<!DOCTYPE svg PUBLIC "-//W3C//DTD SVG 1.1//EN" "http://www.w3.org/Graphics/SVG/1.1/DTD/svg11.dtd" >
<svg xmlns="http://www.w3.org/2000/svg" xmlns:xlink="http://www.w3.org/1999/xlink" version="1.1" width="2048" height="2048" viewBox="-10 0 2065 2048">
   <path fill="currentColor"
d="M1123 681q-59 0 -102.5 -41t-43.5 -105v-46h-46q-64 0 -105 -43.5t-41 -102.5v-142q-229 32 -389 196.5t-192 388.5q14 -45 53 -75t89 -30q59 0 102.5 43.5t43.5 105t-43.5 103t-103 41.5t-100.5 -39t-45 -94q0 96 9 146q27 197 164 348t329 201q-64 -46 -64 -123
q0 -60 41.5 -103.5t105.5 -43.5q41 0 75 23t53 60q-23 73 -32 169q-28 32 -69 36q23 5 69 5q0 96 27 196h-27q-238 0 -439 -118.5t-320 -320t-119 -439t119 -438.5t320 -320t439 -119l27 5q28 4 46 22q23 28 23 69v197h100l23 4q32 5 46 23q27 27 27 69v100h197h23
q32 9 45 28q28 27 28 68v96h196l32 9q37 9 51 41q13 69 13 147v27q-100 -27 -196 -27h-146q-60 0 -103.5 -43.5t-43.5 -103.5v-50h-146zM830 782q-59 0 -102.5 41t-43.5 102.5t43.5 105t105 43.5t103 -43.5t41.5 -105t-41.5 -102.5t-105.5 -41zM785 439q0 -60 -43.5 -103
t-105.5 -43t-103 43t-41 102.5t41 103t103 43.5t105.5 -43.5t43.5 -102.5zM2033 1696q4 0 4 7t-4 11l-101 169q-9 10 -27 10l-119 -42l-78 51l-18 128q0 4 -7 11t-11 7h-197q-9 0 -27 -18l-23 -128q-41 -14 -78 -51l-114 51q-19 0 -32 -9l-96 -165q-9 -14 9 -32l110 -78v-96
l-110 -77q-9 -10 -9 -32l96 -165q13 -9 32 -9l114 50l78 -50l23 -128q0 -18 27 -18h197q4 0 11 6.5t7 11.5l18 128q32 9 92 50l114 -50q32 0 32 9l96 165q9 9 -9 32l-110 77v96zM1708 1559q0 -55 -43.5 -100.5t-100.5 -45.5t-102.5 45.5t-45.5 102.5t45.5 100.5t102.5 43.5
t100.5 -43.5t43.5 -102.5z" />
</svg>
