<?xml version="1.0" standalone="no"?>
<!DOCTYPE svg PUBLIC "-//W3C//DTD SVG 1.1//EN" "http://www.w3.org/Graphics/SVG/1.1/DTD/svg11.dtd" >
<svg xmlns="http://www.w3.org/2000/svg" xmlns:xlink="http://www.w3.org/1999/xlink" version="1.1" width="2048" height="2048" viewBox="-10 0 2068 2048">
   <path fill="currentColor"
d="M1381 1022q43 0 82 24q-130 43 -235 134v-5q0 -62 45.5 -107.5t107.5 -45.5zM1329 715v52q0 63 45.5 108.5t107.5 45.5h154q0 48 -5 101h5q100 0 196 33q10 -67 10 -134q0 -82 -15 -154q-14 -33 -52 -43q-20 -9 -34 -9h-206v-101q0 -62 -53 -91q-24 -10 -48 -10h-206
v-105q0 -63 -53 -87q-24 -14 -48 -14h-105v-206q0 -63 -48 -87q-29 -14 -53 -14q-250 0 -461 124.5t-335.5 335.5t-124.5 460.5t124.5 460.5t335.5 336t461 125q67 0 134 -10q-33 -96 -33 -196v-5q-72 9 -173 0q53 -10 89 -50.5t36 -100.5t-45.5 -105.5t-110.5 -45.5
t-108 45.5t-43 107.5q0 82 67 130q-202 -53 -345.5 -211.5t-172.5 -364.5q-10 -53 -10 -153q5 57 48 98t105.5 41t108 -43.5t45.5 -108t-45.5 -110t-107.5 -45.5q-53 0 -94 31t-55 79q34 -235 201.5 -407.5t407.5 -206.5v149q0 62 43 107.5t111 45.5h48v48q0 67 45.5 110.5
t107.5 43.5h154zM868 1127q67 0 110.5 -45.5t43.5 -110.5t-43.5 -108t-108 -43t-110 43t-45.5 108t45.5 110.5t107.5 45.5zM820 460q0 -62 -45.5 -107.5t-110 -45.5t-108 45.5t-43.5 108t43.5 108t108 45.5t110 -45.5t45.5 -108.5zM1741 1535v-307h-206v307h-307v206h307
v307h206v-307h307v-206h-307z" />
</svg>
