<?xml version="1.0" standalone="no"?>
<!DOCTYPE svg PUBLIC "-//W3C//DTD SVG 1.1//EN" "http://www.w3.org/Graphics/SVG/1.1/DTD/svg11.dtd" >
<svg xmlns="http://www.w3.org/2000/svg" xmlns:xlink="http://www.w3.org/1999/xlink" version="1.1" width="2048" height="2048" viewBox="-10 0 2058 2048">
   <path fill="currentColor"
d="M1849 699q-13 -31 -48 -44l-30 -4h-188v-92q0 -61 -48 -83q-22 -13 -44 -13h-188v-92q0 -57 -48 -83q-21 -9 -43 -9h-96v-187q0 -40 -22 -66q-18 -17 -44 -26h-26q-227 0 -419 111.5t-305.5 305.5t-113.5 421t113.5 419.5t305.5 306t419 113.5t419 -113.5t305.5 -306
t113.5 -419.5q0 -74 -13 -139zM513 930q-61 0 -100.5 -41.5t-39.5 -98t39.5 -98t98.5 -41.5t100.5 41.5t41.5 98t-41.5 98t-98.5 41.5zM653 419q0 -61 39 -100.5t98 -39.5t100.5 39.5t41.5 98.5t-41.5 100.5t-100.5 41.5t-98 -41.5t-39 -98.5zM932 1489q-61 0 -100 -41.5
t-39 -98t39 -98t98 -41.5t100.5 41.5t41.5 98t-41.5 98t-98.5 41.5zM976 1022q-57 0 -98.5 -39.5t-41.5 -98.5t41.5 -100.5t100.5 -41.5t98.5 41.5t39.5 100.5t-39.5 98.5t-100.5 39.5zM1443 1210q-57 0 -98.5 -41.5t-41.5 -98.5t41.5 -98.5t98.5 -41.5t98.5 41.5t41.5 98.5
t-41.5 98.5t-98.5 41.5zM557 1860h188v188h-188v-188zM932 1860h184v188h-184v-188zM1303 1860h188v188h-188v-188z" />
</svg>
