<?xml version="1.0" standalone="no"?>
<!DOCTYPE svg PUBLIC "-//W3C//DTD SVG 1.1//EN" "http://www.w3.org/Graphics/SVG/1.1/DTD/svg11.dtd" >
<svg xmlns="http://www.w3.org/2000/svg" xmlns:xlink="http://www.w3.org/1999/xlink" version="1.1" width="2048" height="2048" viewBox="-10 0 2068 2048">
   <path fill="currentColor"
d="M1228 818h-53q-62 0 -107.5 -43.5t-45.5 -110.5v-48h-48q-68 0 -111 -45.5t-43 -107.5v-149q-240 34 -407.5 206.5t-201.5 407.5q14 -48 55 -79t94 -31q62 0 107.5 45.5t45.5 110t-45.5 108t-108 43.5t-105.5 -41t-48 -98q0 100 10 153q29 206 172.5 364.5t345.5 211.5
q-67 -48 -67 -130q0 -62 43 -107.5t108 -45.5t110.5 45.5t45.5 105.5t-36 100.5t-89 50.5q101 9 173 0v5q0 100 33 196q-67 10 -134 10q-250 0 -461 -125t-335.5 -336t-124.5 -460t124.5 -460t335.5 -336t461 -125l29 5q28 5 48 24q24 29 24 72v206h105l24 5q34 5 48 24
q29 29 29 72v105h206h24q34 10 48 29q29 29 29 72v101h206l34 9q38 10 52 44q15 71 15 153q0 67 -10 134q-96 -33 -196 -33h-5q5 -53 5 -101h-154q-62 0 -107.5 -45.5t-45.5 -107.5v-53h-101zM1228 1278v5q105 -91 235 -134q-39 -24 -82 -24q-62 0 -107.5 45.5t-45.5 107.5z
M820 564q0 -63 -45.5 -108.5t-110 -45.5t-108 45.5t-43.5 108t43.5 108t108 45.5t110 -45.5t45.5 -107.5zM868 1230q67 0 110.5 -45.5t43.5 -110t-43.5 -108t-108 -43.5t-110 43.5t-45.5 108t45.5 110t107.5 45.5zM1228 1638v206h820v-206h-820z" />
</svg>
