<?xml version="1.0" standalone="no"?>
<!DOCTYPE svg PUBLIC "-//W3C//DTD SVG 1.1//EN" "http://www.w3.org/Graphics/SVG/1.1/DTD/svg11.dtd" >
<svg xmlns="http://www.w3.org/2000/svg" xmlns:xlink="http://www.w3.org/1999/xlink" version="1.1" width="2048" height="2048" viewBox="-10 0 2068 2048">
   <path fill="currentColor"
d="M1228 1180v-5q0 -62 45.5 -107.5t107.5 -45.5q43 0 82 24q91 -24 173 -24q100 0 196 33q10 -67 10 -134q0 -82 -15 -154q-14 -33 -52 -43q-20 -9 -34 -9h-206v-101q0 -62 -53 -91q-24 -10 -48 -10h-206v-105q0 -63 -53 -87q-24 -14 -48 -14h-105v-206q0 -63 -48 -87
q-29 -14 -53 -14q-250 0 -461 124.5t-335.5 335.5t-124.5 460.5t124.5 460.5t335.5 336t461 125q67 0 134 -10q-33 -96 -33 -196q0 -135 55 -252.5t151 -203.5zM360 1022q-67 0 -110.5 -43.5t-43.5 -108t43.5 -110t108 -45.5t110 45.5t45.5 110t-45.5 108t-107.5 43.5z
M513 460q0 -62 43.5 -107.5t108 -45.5t110 45.5t45.5 108t-45.5 108t-110 45.5t-108 -45.5t-43.5 -108.5zM820 1636q-67 0 -110 -43.5t-43 -108t43 -110t108 -45.5t110.5 45.5t45.5 110t-45.5 108t-108.5 43.5zM868 1127q-62 0 -107.5 -45.5t-45.5 -110.5t45.5 -108t110 -43
t108 43t43.5 108t-43.5 110.5t-110.5 45.5zM2048 1535v206h-307v307h-206v-307h-307v-206h307v-307h206v307h307z" />
</svg>
