<?xml version="1.0" standalone="no"?>
<!DOCTYPE svg PUBLIC "-//W3C//DTD SVG 1.1//EN" "http://www.w3.org/Graphics/SVG/1.1/DTD/svg11.dtd" >
<svg xmlns="http://www.w3.org/2000/svg" xmlns:xlink="http://www.w3.org/1999/xlink" version="1.1" width="2048" height="2048" viewBox="-10 0 2068 2048">
   <path fill="currentColor"
d="M1582 837h-188v-92q0 -57 -43 -83q-26 -8 -48 -8h-187v-96q0 -57 -44 -79q-26 -13 -48 -13h-92v-187q0 -57 -47 -79q-22 -13 -48 -13q-227 0 -418.5 111.5t-305 305t-113.5 420.5t113.5 420.5t305 305t420.5 111.5t420.5 -111.5t302.5 -305t111 -420.5q0 -92 -8 -139
q-18 -31 -53 -40q-17 -8 -30 -8v0zM327 1116q-57 0 -98.5 -41.5t-41.5 -96t41.5 -98t98 -43.5t98 43.5t41.5 98t-41.5 96t-97.5 41.5zM466 606q0 -57 41.5 -98.5t98 -41.5t98 41.5t41.5 98t-41.5 98t-98 41.5t-98 -41.5t-41.5 -97.5zM745 1673q-57 0 -98 -41.5t-41 -95.5
t41 -98t98 -44t98.5 44t41.5 98t-41.5 95.5t-98.5 41.5zM793 1211q-57 0 -98 -43.5t-41 -98t41 -96t95.5 -41.5t98 41.5t43.5 96t-43.5 98t-95.5 43.5zM1255 1394q-52 0 -95.5 -41t-43.5 -95.5t43.5 -98t98 -43.5t95.5 43.5t41 98t-41 95.5t-98 41zM1861 1303h187v187h-187
v-187zM2048 558v558h-187v-558h187z" />
</svg>
