<?xml version="1.0" standalone="no"?>
<!DOCTYPE svg PUBLIC "-//W3C//DTD SVG 1.1//EN" "http://www.w3.org/Graphics/SVG/1.1/DTD/svg11.dtd" >
<svg xmlns="http://www.w3.org/2000/svg" xmlns:xlink="http://www.w3.org/1999/xlink" version="1.1" width="2048" height="2048" viewBox="-10 0 2068 2048">
   <path fill="currentColor"
d="M1260 761h-54q-64 0 -110.5 -44.5t-46.5 -113.5v-49h-50q-69 0 -113 -47t-44 -111v-152q-246 34 -418.5 211.5t-206.5 418.5q14 -49 56 -81t96 -32q64 0 111 46.5t47 113t-47 111t-111 44.5t-108 -42t-49 -101q0 103 10 157q29 212 176.5 374.5t354.5 216.5
q-69 -49 -69 -133q0 -64 44.5 -110.5t111 -46.5t113 46.5t46.5 108t-36.5 103.5t-91.5 52q104 10 178 0v5q0 103 34 202q-69 10 -138 10q-256 0 -472.5 -128t-344.5 -345t-128 -473t128 -472.5t344.5 -344.5t472.5 -128l30 5q29 5 49 25q25 29 25 73v212h108l25 5
q34 5 49 25q29 29 29 74v108h212h25q34 10 49 29q29 30 29 74v104h212l35 9q39 10 54 45q14 74 14 157q0 69 -9 138q-99 -34 -202 -34h-5q5 -54 5 -104h-158q-64 0 -110.5 -46.5t-46.5 -110.5v-54h-104zM1260 1233v5q109 -93 242 -138q-40 -24 -84 -24q-64 0 -111 46.5
t-47 110.5zM891 1184q69 0 113.5 -47t44.5 -113t-44.5 -110.5t-111 -44.5t-113 44.5t-46.5 110.5t46.5 113t110.5 47zM842 500q0 -64 -47 -111t-113.5 -47t-110.5 47t-44 111t44 110.5t110.5 46.5t113.5 -46.5t47 -110.5zM1925 1376l-374 379l-168 -167l-123 118l291 315
l497 -497z" />
</svg>
