<?xml version="1.0" standalone="no"?>
<!DOCTYPE svg PUBLIC "-//W3C//DTD SVG 1.1//EN" "http://www.w3.org/Graphics/SVG/1.1/DTD/svg11.dtd" >
<svg xmlns="http://www.w3.org/2000/svg" xmlns:xlink="http://www.w3.org/1999/xlink" version="1.1" width="2048" height="2048" viewBox="-10 0 2068 2048">
   <path fill="currentColor"
d="M1024 795q96 0 162.5 66.5t66.5 162.5t-66.5 162.5t-162.5 66.5t-162.5 -66.5t-66.5 -162.5t66.5 -162.5t162.5 -66.5zM229 0h1590q96 0 162.5 66.5t66.5 162.5v1366h-464q112 -112 173.5 -259t61.5 -312q0 -219 -107 -400t-288 -288t-400 -107t-400 107t-288 288
t-107 400t107 400t288 288t400 107h1024q0 96 -66.5 162.5t-162.5 66.5h-1590q-96 0 -162.5 -66.5t-66.5 -162.5v-1590q0 -96 66.5 -162.5t162.5 -66.5z" />
</svg>
