<?xml version="1.0" standalone="no"?>
<!DOCTYPE svg PUBLIC "-//W3C//DTD SVG 1.1//EN" "http://www.w3.org/Graphics/SVG/1.1/DTD/svg11.dtd" >
<svg xmlns="http://www.w3.org/2000/svg" xmlns:xlink="http://www.w3.org/1999/xlink" version="1.1" width="2048" height="2048" viewBox="-10 0 2058 2048">
   <path fill="currentColor"
d="M1116 882q0 61 -39.5 100.5t-98.5 39.5t-100.5 -39.5t-41.5 -98.5t41.5 -100.5t100.5 -41.5t98.5 41.5t39.5 98.5zM932 419q0 -61 -41.5 -100.5t-100.5 -39.5t-98 39.5t-39 98.5t39 100.5t98 41.5t100.5 -41.5t41.5 -98.5zM1862 838q0 227 -113.5 419.5t-305.5 306
t-419 113.5t-419 -113.5t-305.5 -306t-113.5 -419.5t113.5 -421t305.5 -305.5t419 -111.5h26q26 9 44 26q22 26 22 66v187h96h22q30 9 43 27q26 26 26 65v92h188l22 4q31 9 44 26q26 22 26 66v92h188l30 4q35 13 48 44q13 65 13 139zM1675 838h-140q-57 0 -98.5 -41.5
t-41.5 -97.5v-48h-140q-56 0 -97.5 -41.5t-41.5 -98.5v-48h-44q-61 0 -100.5 -39.5t-39.5 -100.5v-131q-218 31 -371 188t-183 371q13 -44 50 -72t85 -28q57 0 98.5 41.5t41.5 98t-41.5 98t-98.5 41.5t-96 -37t-44 -90q0 92 9 140q26 184 157 328t315 192q-61 -39 -61 -114
q0 -56 39 -97.5t98 -41.5t100.5 41.5t41.5 93.5t-32.5 91.5t-81.5 48.5q193 17 359 -66t262 -238t96 -343zM1443 930q-57 0 -98.5 41.5t-41.5 98.5t41.5 98.5t98.5 41.5t98.5 -41.5t41.5 -98.5t-41.5 -98.5t-98.5 -41.5zM557 2048h188v-188h-188v188zM1303 2048h188v-188
h-188v188zM932 2048h184v-188h-184v188z" />
</svg>
