<?xml version="1.0" standalone="no"?>
<!DOCTYPE svg PUBLIC "-//W3C//DTD SVG 1.1//EN" "http://www.w3.org/Graphics/SVG/1.1/DTD/svg11.dtd" >
<svg xmlns="http://www.w3.org/2000/svg" xmlns:xlink="http://www.w3.org/1999/xlink" version="1.1" width="2048" height="2048" viewBox="-10 0 2068 2048">
   <path fill="currentColor"
d="M1674 865q141 0 268 81q0 -61 -15 -137q-16 -35 -56 -45q-20 -11 -35 -11h-218v-106q0 -65 -55 -96q-26 -10 -51 -10h-217v-111q0 -66 -56 -91q-25 -15 -51 -15h-111v-218q0 -66 -50 -91q-31 -15 -56 -15q-263 0 -485.5 131.5t-354 354t-131.5 485.5t131.5 485.5t354 354
t485.5 131.5q71 0 106 -5v-425q0 -76 33 -139t83 -109q31 -172 167.5 -285.5t313.5 -113.5zM379 1077q-71 0 -116.5 -45.5t-45.5 -113.5t45.5 -116.5t114 -48.5t116.5 48.5t48 116.5t-48 113.5t-114 45.5zM541 485q0 -65 45.5 -113t114 -48t116.5 48t48 113.5t-48 113.5
t-116.5 48t-114 -48t-45.5 -114zM865 1724q-71 0 -116.5 -45.5t-45.5 -113.5t45.5 -116t113.5 -48t116.5 48t48.5 116t-48.5 113.5t-113.5 45.5zM915 1188q-65 0 -113.5 -48t-48.5 -116t48.5 -113.5t116.5 -45.5t113.5 45.5t45.5 113.5t-45.5 116t-116.5 48zM1942 1401v-51
q0 -111 -78.5 -192t-189.5 -81t-192 81t-81 192v51q-41 0 -73.5 32.5t-32.5 78.5v430q0 45 32.5 75.5t73.5 30.5h541q45 0 75.5 -30.5t30.5 -75.5v-430q0 -46 -30.5 -78.5t-75.5 -32.5zM1836 1401h-324v-51q0 -71 45.5 -116.5t114 -45.5t116.5 45.5t48 116.5v51z" />
</svg>
