<?xml version="1.0" standalone="no"?>
<!DOCTYPE svg PUBLIC "-//W3C//DTD SVG 1.1//EN" "http://www.w3.org/Graphics/SVG/1.1/DTD/svg11.dtd" >
<svg xmlns="http://www.w3.org/2000/svg" xmlns:xlink="http://www.w3.org/1999/xlink" version="1.1" width="2048" height="2048" viewBox="-10 0 2058 2048">
   <path fill="currentColor"
d="M869 1364q39 0 73.5 19.5t59.5 54.5q59 -217 241 -355t414 -138q133 0 261 54v-54q0 -83 -15 -157q-15 -35 -54 -45q-20 -9 -35 -9h-212v-104q0 -64 -54 -93q-24 -10 -49 -10h-212v-109q0 -64 -54 -88q-24 -15 -49 -15h-108v-212q0 -64 -50 -88q-29 -15 -54 -15
q-256 0 -472.5 128t-344.5 344.5t-128 472.5t128 472.5t344.5 344.5t472.5 128h54q-54 -128 -54 -251q-44 40 -108 40t-108.5 -44.5t-44.5 -111t44.5 -113t113.5 -46.5zM1076 999q0 64 -44.5 111t-111 47t-113 -47t-46.5 -113.5t46.5 -110.5t113 -44t111 44t44.5 113z
M396 1049q-69 0 -113 -44.5t-44 -111t44 -113t110.5 -46.5t113.5 46.5t47 113t-47 111t-111 44.5zM554 473q0 -64 44 -111t110.5 -47t113.5 47t47 111t-47 110.5t-113.5 46.5t-110.5 -46.5t-44 -110.5zM1602 1630l188 -188q-79 -78 -187.5 -78t-184.5 78.5t-76 187t76 184.5
t184 76q64 0 118.5 -27t93.5 -76h177q-44 118 -150 189.5t-239 71.5q-172 0 -295 -123t-123 -298t123 -298t295.5 -123t295.5 123l123 -123v424h-419z" />
</svg>
