<?xml version="1.0" standalone="no"?>
<!DOCTYPE svg PUBLIC "-//W3C//DTD SVG 1.1//EN" "http://www.w3.org/Graphics/SVG/1.1/DTD/svg11.dtd" >
<svg xmlns="http://www.w3.org/2000/svg" xmlns:xlink="http://www.w3.org/1999/xlink" version="1.1" width="2048" height="2048" viewBox="-10 0 2068 2048">
   <path fill="currentColor"
d="M667 360q62 0 107.5 45.5t45.5 108t-45.5 108t-110 45.5t-108 -45.5t-43.5 -108t43.5 -108t110.5 -45.5zM868 873q-62 0 -107.5 43t-45.5 108t45.5 110.5t110 45.5t108 -45.5t43.5 -110.5t-43.5 -108t-110.5 -43zM820 1381q-67 0 -110 45.5t-43 108.5q0 81 67 129
q-202 -52 -345.5 -210.5t-172.5 -364.5q-10 -53 -10 -154q5 58 48 98.5t105.5 40.5t108 -43t45.5 -107.5t-45.5 -110.5t-107.5 -46q-53 0 -94 31.5t-55 79.5q34 -235 201.5 -408t407.5 -206v148q0 63 43 108.5t111 45.5h48v48q0 67 45.5 110t107.5 43h154v53
q0 63 45.5 108.5t107.5 45.5h67l130 -130q43 -43 105 -62q-14 -10 -29 -10l-220 -5v-100q0 -63 -53 -91q-24 -10 -48 -10h-206v-106q0 -62 -53 -86q-24 -14 -48 -14h-105v-207q0 -62 -48 -86q-29 -14 -53 -14q-250 0 -461 124.5t-335.5 335.5t-124.5 461q0 235 108 434
t295 326t417 156v-187l149 -149q5 -10 5 -19q0 -63 -45.5 -108.5t-108.5 -45.5zM1228 1228q0 29 9 57l197 -201q-29 -10 -53 -10q-62 0 -107.5 45.5t-45.5 108.5zM2029 1122l-134 -134q-15 -14 -36.5 -14t-35.5 14l-101 101l211 211l96 -101q19 -14 19 -35.5t-19 -41.5z
M1022 1789v206h211l628 -623l-211 -211z" />
</svg>
