<?xml version="1.0" standalone="no"?>
<!DOCTYPE svg PUBLIC "-//W3C//DTD SVG 1.1//EN" "http://www.w3.org/Graphics/SVG/1.1/DTD/svg11.dtd" >
<svg xmlns="http://www.w3.org/2000/svg" xmlns:xlink="http://www.w3.org/1999/xlink" version="1.1" width="2048" height="2048" viewBox="-10 0 2068 2048">
   <path fill="currentColor"
d="M1237 1285q-9 -28 -9 -57q0 -63 45.5 -108.5t107.5 -45.5q24 0 53 10l245 -240q43 -43 105 -62q-14 -10 -29 -10l-220 -5v-100q0 -63 -53 -91q-24 -10 -48 -10h-206v-106q0 -62 -53 -86q-24 -14 -48 -14h-105v-207q0 -62 -48 -86q-29 -14 -53 -14q-250 0 -461 124.5
t-335.5 335.5t-124.5 461q0 235 108 434t295 326t417 156v-187l15 -15h-15q-67 0 -110 -43t-43 -108t43 -110.5t108 -45.5t110.5 45.5t45.5 108.5v14zM360 1074q-67 0 -110.5 -43t-43.5 -107.5t43.5 -110.5t108 -46t110 46t45.5 110.5t-45.5 107.5t-107.5 43zM667 667
q-67 0 -110.5 -45.5t-43.5 -108t43.5 -108t108 -45.5t110 45.5t45.5 108t-45.5 108t-107.5 45.5zM868 1180q-62 0 -107.5 -45.5t-45.5 -110.5t45.5 -108t110 -43t108 43t43.5 108t-43.5 110.5t-110.5 45.5zM2029 1199l-96 101l-211 -211l101 -101q14 -14 35.5 -14t36.5 14
l134 134q19 20 19 41.5t-19 35.5zM1650 1161l211 211l-628 623h-211v-206z" />
</svg>
