<?xml version="1.0" standalone="no"?>
<!DOCTYPE svg PUBLIC "-//W3C//DTD SVG 1.1//EN" "http://www.w3.org/Graphics/SVG/1.1/DTD/svg11.dtd" >
<svg xmlns="http://www.w3.org/2000/svg" xmlns:xlink="http://www.w3.org/1999/xlink" version="1.1" width="2048" height="2048" viewBox="-10 0 2068 2048">
   <path fill="currentColor"
d="M1751 800q0 -27 -9 -69q-19 -32 -55 -45l-32 -5h-192v-96q0 -64 -50 -87q-23 -13 -51 -13h-192v-96q0 -60 -50 -87q-23 -9 -50 -9h-96v-197q0 -41 -28 -69q-13 -18 -45 -27h-23q-238 0 -441.5 116.5t-320 320t-116.5 441.5q0 224 105 418t290.5 315.5t404.5 139.5
q96 137 244.5 217t317.5 80q188 0 345.5 -91.5t249 -249t91.5 -345.5q0 -169 -80 -317.5t-217 -244.5zM937 832q-114 91 -178 219q-37 -18 -57.5 -52t-20.5 -76q0 -59 43.5 -102.5t105 -43.5t107.5 55zM338 974q-59 0 -102.5 -43.5t-43.5 -103t43.5 -103t105 -43.5t103 43.5
t41.5 103t-41.5 103t-105.5 43.5zM485 439q0 -64 43 -105t105 -41t103 41t41 102.5t-41 105t-103 43.5t-105 -43.5t-43 -102.5zM631 1413q0 -64 55 -110q-5 18 -5 59q0 87 23 179q-73 -51 -73 -128zM1362 1851q-132 0 -244 -66t-176 -178t-64 -244.5t64 -244.5t176 -176
t244.5 -64t244.5 64t178 176t66 244.5t-66 244.5t-178 178t-245 66zM1413 1390l278 164l-73 119l-352 -210v-489h147v416z" />
</svg>
