<?xml version="1.0" standalone="no"?>
<!DOCTYPE svg PUBLIC "-//W3C//DTD SVG 1.1//EN" "http://www.w3.org/Graphics/SVG/1.1/DTD/svg11.dtd" >
<svg xmlns="http://www.w3.org/2000/svg" xmlns:xlink="http://www.w3.org/1999/xlink" version="1.1" width="2048" height="2048" viewBox="-10 0 2058 2048">
   <path fill="currentColor"
d="M1076 999q0 64 -44.5 111t-111 47t-113 -47t-46.5 -113.5t46.5 -110.5t113 -44t111 44t44.5 113zM869 473q0 -64 -47 -111t-113.5 -47t-110.5 47t-44 111t44 110.5t110.5 46.5t113.5 -46.5t47 -110.5zM1287 734h104v54q0 64 46.5 110.5t110.5 46.5h158v5q113 10 212 49
v-54q0 -83 -15 -157q-15 -35 -54 -45q-20 -9 -35 -9h-212v-104q0 -64 -54 -93q-24 -10 -49 -10h-212v-109q0 -64 -54 -88q-24 -15 -49 -15h-108v-212q0 -64 -50 -88q-29 -15 -54 -15q-256 0 -472.5 128t-344.5 344.5t-128 472.5t128 472.5t344.5 344.5t472.5 128h54
q-39 -98 -49 -211q-49 0 -79 -5q40 -5 74 -40v-4q0 -94 30 -192q-25 -35 -59.5 -54.5t-73.5 -19.5q-69 0 -113.5 46.5t-44.5 110.5q0 84 69 133q-206 -54 -354 -216.5t-177 -374.5q-10 -54 -10 -157q5 59 49 101t108 42t111 -44.5t47 -111t-47 -113t-111 -46.5q-54 0 -96 32
t-56 81q34 -241 206.5 -418.5t418.5 -211.5v152q0 64 44.5 111t112.5 47h50v49q0 69 46.5 113.5t110.5 44.5h54zM2021 1630v-424l-123 123q-123 -123 -295.5 -123t-295.5 123t-123 298t123 298t295 123q133 0 239 -71.5t150 -189.5h-177q-39 49 -93.5 76t-118.5 27
q-108 0 -184 -76t-76 -184.5t76 -187t184.5 -78.5t187.5 78l-188 188h419z" />
</svg>
