<?xml version="1.0" standalone="no"?>
<!DOCTYPE svg PUBLIC "-//W3C//DTD SVG 1.1//EN" "http://www.w3.org/Graphics/SVG/1.1/DTD/svg11.dtd" >
<svg xmlns="http://www.w3.org/2000/svg" xmlns:xlink="http://www.w3.org/1999/xlink" version="1.1" width="2048" height="2048" viewBox="-10 0 2058 2048">
   <path fill="currentColor"
d="M373 0v187h-92q-78 0 -132.5 54.5t-54.5 133.5v1298q0 79 54.5 133.5t132.5 54.5h567q87 87 204.5 137t248.5 50q178 0 328.5 -87t237.5 -237.5t87 -329.5q0 -130 -50 -248t-137 -205v-566q0 -79 -54.5 -133.5t-132.5 -54.5h-92v-187h-187v187h-741v-187h-187zM281 375
h1299v183h-1299v-183zM281 745h1299v61q-131 -61 -279 -61q-175 0 -325 87t-237.5 237.5t-87.5 324.5q0 149 61 279h-431v-928zM1301 946q122 0 226.5 61t165.5 163t61 224t-61 227t-165.5 166t-226.5 61t-224.5 -61t-163.5 -166t-61 -227t61 -224t163.5 -163t224.5 -61z
M1209 1116v344l296 170l70 -118l-226 -135v-261h-140z" />
</svg>
