<?xml version="1.0" standalone="no"?>
<!DOCTYPE svg PUBLIC "-//W3C//DTD SVG 1.1//EN" "http://www.w3.org/Graphics/SVG/1.1/DTD/svg11.dtd" >
<svg xmlns="http://www.w3.org/2000/svg" xmlns:xlink="http://www.w3.org/1999/xlink" version="1.1" width="2048" height="2048" viewBox="-10 0 2068 2048">
   <path fill="currentColor"
d="M631 585q-60 0 -103 -43.5t-43 -105t43 -102.5t105 -41t103 41t41 102.5t-41 105t-105 43.5zM1413 974h-147v489l352 210l73 -119l-278 -164v-416zM2048 1362q0 188 -91.5 345.5t-249 249t-345.5 91.5q-169 0 -317.5 -80t-244.5 -217q-219 -18 -404.5 -139.5
t-290.5 -315.5t-105 -418q0 -238 116.5 -441.5t320 -320t441.5 -116.5h23q32 9 45 27q28 28 28 69v197h96h27q28 9 46 27q27 27 27 69v96h192l28 4q27 9 45 28q28 22 28 68v96h192l32 5q36 13 55 45q9 42 9 69q137 96 217 244.5t80 317.5zM695 1531q-64 -41 -64 -118
q0 -64 55 -110q9 -133 73 -252q-37 -18 -57.5 -52t-20.5 -76q0 -59 43.5 -102.5t105 -43.5t107.5 55q146 -119 329 -142v-9h-146q-59 0 -102.5 -43.5t-43.5 -102.5v-50h-51q-59 0 -102.5 -41.5t-43.5 -105.5v-137q-224 32 -386 196.5t-190 388.5q14 -45 53 -75t84 -30
q64 0 105.5 43.5t41.5 103t-41.5 103t-101 43.5t-102.5 -39t-48 -94q0 96 9 146q32 192 167 343t327 201zM1851 1362q0 -132 -66 -244t-178 -176t-244.5 -64t-244.5 64t-176 176t-64 244.5t64 244.5t176 178t244.5 66t244.5 -66t178 -178t66 -245z" />
</svg>
