<?xml version="1.0" standalone="no"?>
<!DOCTYPE svg PUBLIC "-//W3C//DTD SVG 1.1//EN" "http://www.w3.org/Graphics/SVG/1.1/DTD/svg11.dtd" >
<svg xmlns="http://www.w3.org/2000/svg" xmlns:xlink="http://www.w3.org/1999/xlink" version="1.1" width="2048" height="2048" viewBox="-10 0 2068 2048">
   <path fill="currentColor"
d="M791 421l-174 -174q206 -124 444 -124l27 5q27 5 46 23q23 27 23 68v197h100l23 5q32 4 46 22q27 28 27 69v101h197h23q32 9 45 27q28 27 28 69v96h196l32 9q37 9 51 41q13 68 13 146q0 238 -123 444l-174 -174l5 -28q0 -59 -43.5 -102.5t-103.5 -43.5l-22 5l-517 -517
l5 -23q0 -59 -43.5 -102.5t-103.5 -43.5zM2048 1925l-123 123l-343 -343q-233 174 -521 174q-238 0 -439 -119t-320 -320t-119 -439q0 -288 174 -521l-357 -357l123 -123zM672 951q0 -60 -43.5 -103t-105 -43t-103 43t-41.5 105t41.5 103t103 41t105 -41t43.5 -105z
M864 1051q0 60 43.5 103.5t102.5 43.5q28 0 51 -9l-188 -188q-9 23 -9 50zM1111 1536q0 -59 -43.5 -102.5t-105 -43.5t-103 43.5t-41.5 105t41.5 102.5t103 41t105 -41t43.5 -105z" />
</svg>
