<?xml version="1.0" standalone="no"?>
<!DOCTYPE svg PUBLIC "-//W3C//DTD SVG 1.1//EN" "http://www.w3.org/Graphics/SVG/1.1/DTD/svg11.dtd" >
<svg xmlns="http://www.w3.org/2000/svg" xmlns:xlink="http://www.w3.org/1999/xlink" version="1.1" width="2048" height="2048" viewBox="-10 0 2058 2048">
   <path fill="currentColor"
d="M1349 1421l265 156l-69 114l-336 -201v-466h140v397zM1954 1394q0 179 -87 329.5t-237.5 237.5t-328.5 87q-131 0 -246.5 -50t-206.5 -137h-567q-78 0 -132.5 -54.5t-54.5 -133.5v-1298q0 -79 54.5 -133.5t132.5 -54.5h388q30 -82 102 -134.5t159 -52.5t159 52.5
t103 134.5h388q78 0 132.5 54.5t54.5 133.5v566q87 92 137 207.5t50 245.5zM839 279q0 39 26 67.5t65.5 28.5t65.5 -28.5t26 -65.5t-26 -65.5t-65.5 -28.5t-65.5 28.5t-26 63.5zM1767 1394q0 -126 -63 -232.5t-170 -168t-233.5 -61.5t-233 61.5t-167.5 168t-61 233t61 233
t167.5 170t233 63.5t233.5 -63.5t170 -170t63 -233.5z" />
</svg>
