<?xml version="1.0" standalone="no"?>
<!DOCTYPE svg PUBLIC "-//W3C//DTD SVG 1.1//EN" "http://www.w3.org/Graphics/SVG/1.1/DTD/svg11.dtd" >
<svg xmlns="http://www.w3.org/2000/svg" xmlns:xlink="http://www.w3.org/1999/xlink" version="1.1" width="2048" height="2048" viewBox="-10 0 2068 2048">
   <path fill="currentColor"
d="M13 133l279 283h-105q-78 0 -132.5 54.5t-54.5 133.5v183q0 39 28.5 67t67.5 28h662l96 92h-758v745q0 74 54.5 128.5t128.5 54.5h1490q4 0 9 -4l135 135l118 -118l-1900 -1900zM932 1052l184 188v479h-184v-667zM1952 974v627l-627 -627h627zM1861 416h-297
q40 -109 0.5 -202.5t-131 -139.5t-189.5 -28.5t-168 113.5l-52 70l-52 -70q-83 -118 -223 -122q-65 0 -130.5 32.5t-104.5 89.5l144 144q4 -31 28 -52.5t61 -21.5t63.5 28t28.5 65t-26.5 63.5t-49.5 26.5l191 192h162v161l117 117h719q39 0 67.5 -28t28.5 -67v-183
q0 -79 -54.5 -133.5t-132.5 -54.5zM1368 390q-26 26 -65 26t-65.5 -26t-26.5 -65.5t26.5 -67.5t65.5 -28t65 28t28.5 65t-28.5 68z" />
</svg>
