<?xml version="1.0" standalone="no"?>
<!DOCTYPE svg PUBLIC "-//W3C//DTD SVG 1.1//EN" "http://www.w3.org/Graphics/SVG/1.1/DTD/svg11.dtd" >
<svg xmlns="http://www.w3.org/2000/svg" xmlns:xlink="http://www.w3.org/1999/xlink" version="1.1" width="2048" height="2048" viewBox="-10 0 2068 2048">
   <path fill="currentColor"
d="M753 1027q0 -71 48.5 -116.5t116.5 -45.5t113.5 45.5t45.5 113.5t-45.5 116t-113.5 48t-116.5 -48t-48.5 -113zM1401 753v56q0 66 45 111q111 -55 228 -55q141 0 268 81q0 -61 -15 -137q-16 -35 -56 -45q-20 -11 -35 -11h-218v-106q0 -65 -55 -96q-26 -10 -51 -10h-217
v-111q0 -66 -56 -91q-25 -15 -51 -15h-111v-218q0 -66 -50 -91q-31 -15 -56 -15q-263 0 -485.5 131.5t-354 354t-131.5 485.5t131.5 485.5t354 354t485.5 131.5q71 0 106 -5v-218q-76 10 -182 0q56 -10 94 -53t38 -106t-48.5 -111t-116.5 -48t-113.5 48t-45.5 114
q0 86 71 136q-213 -56 -364.5 -222.5t-181.5 -384.5q-11 -55 -11 -162q5 61 51 104t111.5 43t113.5 -45.5t48 -113.5t-48 -116.5t-114 -48.5q-55 0 -98 33t-59 84q36 -248 213 -430t430 -218v157q0 66 45.5 114t116.5 48h50v51q0 70 48 115.5t114 45.5h162zM865 485
q0 -65 -48 -113t-116.5 -48t-114 48t-45.5 113.5t45.5 113.5t114 48t116.5 -48t48 -114zM2048 1512v430q0 45 -30.5 75.5t-75.5 30.5h-541q-41 0 -73.5 -30.5t-32.5 -75.5v-430q0 -46 32.5 -78.5t73.5 -32.5v-51q0 -111 81 -192t192 -81t189.5 81t78.5 192v51
q45 0 75.5 32.5t30.5 78.5zM1836 1350q0 -71 -48 -116.5t-116.5 -45.5t-114 45.5t-45.5 116.5v51h324v-51z" />
</svg>
