<?xml version="1.0" standalone="no"?>
<!DOCTYPE svg PUBLIC "-//W3C//DTD SVG 1.1//EN" "http://www.w3.org/Graphics/SVG/1.1/DTD/svg11.dtd" >
<svg xmlns="http://www.w3.org/2000/svg" xmlns:xlink="http://www.w3.org/1999/xlink" version="1.1" width="2048" height="2048" viewBox="-10 0 2068 2048">
   <path fill="currentColor"
d="M763 389l-146 -142q206 -124 444 -124l27 5q27 5 46 23q23 27 23 68v197h100l23 5q32 4 46 22q27 28 27 69v101h197h23q32 9 45 27q28 27 28 69v96h196l32 9q37 9 51 41q13 68 13 146q0 238 -123 444l-142 -142q69 -142 69 -302h-147q-59 0 -102.5 -43.5t-43.5 -102.5
v-50h-146q-60 0 -103 -41.5t-43 -105.5v-45h-46q-64 0 -105 -43.5t-41 -103.5v-141q-106 18 -202 64zM791 421l169 164l5 -23q0 -59 -43.5 -102.5t-103.5 -43.5zM1477 1102l164 169l5 -28q0 -59 -43.5 -102.5t-103.5 -43.5zM2048 1925l-123 123l-343 -343q-233 174 -521 174
q-238 0 -439 -119t-320 -320t-119 -439q0 -288 174 -521l-357 -357l123 -123zM1440 1568l-379 -379q-23 9 -51 9q-59 0 -102.5 -43.5t-43.5 -103.5q0 -27 9 -50l-379 -379q-92 137 -110 288q14 -46 52.5 -75.5t89.5 -29.5q59 0 102.5 43t43.5 105t-43.5 103t-103 41
t-100.5 -39t-46 -93q0 96 10 146q27 196 164 347t329 201q-64 -45 -64 -123q0 -59 41.5 -102.5t103 -43.5t105 43.5t43.5 100.5t-34.5 96t-84.5 48q247 23 448 -110z" />
</svg>
