<?xml version="1.0" standalone="no"?>
<!DOCTYPE svg PUBLIC "-//W3C//DTD SVG 1.1//EN" "http://www.w3.org/Graphics/SVG/1.1/DTD/svg11.dtd" >
<svg xmlns="http://www.w3.org/2000/svg" xmlns:xlink="http://www.w3.org/1999/xlink" version="1.1" width="2048" height="2048" viewBox="-10 0 2069 2048">
   <path fill="currentColor"
d="M1947 964l-265 -156q37 -32 64 -77q60 -105 28 -222t-137 -176q-60 -37 -131 -39t-135 25l-86 37l-10 -92q-9 -68 -45.5 -127.5t-100.5 -96.5q-105 -59 -221.5 -29.5t-176.5 135.5q-22 41 -36 96l-265 -156q-73 -41 -151 -20.5t-114 89.5l-147 256q-23 36 -11.5 75
t43.5 57l581 334h-631v978q0 78 57 135t135 57h1563q78 0 135 -57t57 -135v-503l74 -123q41 -69 20.5 -146.5t-94.5 -118.5zM1408 539q18 -37 57 -48.5t73.5 9t45.5 59.5t-9.5 75.5t-59 46t-73 -11.5t-46 -57.5t11.5 -72.5zM1175 740l676 393l-96 169l-676 -393zM878 1855
h-686v-781h686v781zM910 813l-677 -389l96 -169l677 389zM937 379q-36 -23 -47.5 -59.5t9 -73t59.5 -48t75.5 9t45.5 59.5t-11.5 75.5t-59.5 45.5t-71 -9zM1070 1855v-722l685 393v329h-685z" />
</svg>
