<?xml version="1.0" standalone="no"?>
<!DOCTYPE svg PUBLIC "-//W3C//DTD SVG 1.1//EN" "http://www.w3.org/Graphics/SVG/1.1/DTD/svg11.dtd" >
<svg xmlns="http://www.w3.org/2000/svg" xmlns:xlink="http://www.w3.org/1999/xlink" version="1.1" width="2048" height="2048" viewBox="-11 0 2069 2048">
   <path fill="currentColor"
d="M1768 478l-266 -348l386 -73l73 380zM1479 533l-265 -343l-193 36l271 344zM1704 1111q161 0 294 83v-376h-1954v981q0 78 57.5 135t135.5 57h963q-83 -133 -83 -291t80.5 -293t215.5 -215.5t291 -80.5zM1003 630l-271 -349l-192 42l270 343zM255 378l-96 18
q-78 18 -124 84.5t-32 149.5l41 188l477 -92zM1933 1391l-348 353l-156 -156l-115 110l271 293l463 -463z" />
</svg>
