<?xml version="1.0" standalone="no"?>
<!DOCTYPE svg PUBLIC "-//W3C//DTD SVG 1.1//EN" "http://www.w3.org/Graphics/SVG/1.1/DTD/svg11.dtd" >
<svg xmlns="http://www.w3.org/2000/svg" xmlns:xlink="http://www.w3.org/1999/xlink" version="1.1" width="2048" height="2048" viewBox="-11 0 2070 2048">
   <path fill="currentColor"
d="M1209 507l-254 -322l181 -34l248 322zM1835 383l-69 -356l-360 68l249 326zM938 563l-253 -326l-180 38l253 322zM239 327l-90 17q-73 17 -116 79.5t-30 139.5l39 176l446 -86zM222 1657v-734h1467v9q94 13 180 56v-249h-1827v918q0 73 53.5 126.5t126.5 53.5h798
q-43 -86 -56 -180h-742zM2037 1691q4 0 4 6.5t-4 10.5l-95 159q-8 9 -26 9l-111 -39l-73 47l-17 120q0 5 -6.5 11t-10.5 6h-185q-8 0 -26 -17l-21 -120q-39 -13 -73 -47l-107 47q-17 0 -30 -8l-90 -155q-9 -13 8 -30l103 -73v-90l-103 -73q-8 -8 -8 -30l90 -154q13 -9 30 -9
l107 47l73 -47l21 -120q0 -17 26 -17h185q4 0 10.5 6.5t6.5 10.5l17 120q30 9 86 47l107 -47q30 0 30 9l90 154q9 9 -8 30l-103 73v90zM1732 1562q0 -51 -41 -94t-94.5 -43t-96.5 43t-43 96.5t43 94.5t96.5 41t94.5 -41t41 -97z" />
</svg>
