<?xml version="1.0" standalone="no"?>
<!DOCTYPE svg PUBLIC "-//W3C//DTD SVG 1.1//EN" "http://www.w3.org/Graphics/SVG/1.1/DTD/svg11.dtd" >
<svg xmlns="http://www.w3.org/2000/svg" xmlns:xlink="http://www.w3.org/1999/xlink" version="1.1" width="2048" height="2048" viewBox="-10 0 2068 2048">
   <path fill="currentColor"
d="M933 1490q0 44 9 97h-758q-75 0 -129.5 -55t-54.5 -134v-1121q0 -78 54.5 -133t129.5 -55h96l184 377h280l-183 -377h183l189 377h280l-188 -377h188l188 377h281l-189 -377h373v815q-88 -44 -184 -57v-197h-1332l-166 -329v1077h758q-9 49 -9 92zM2036 1622q5 0 5 6.5
t-5 10.5l-96 162q-9 9 -26 9l-114 -39l-75 48l-17 122q0 5 -6.5 11.5t-11.5 6.5h-188q-9 0 -26 -18l-22 -122q-40 -13 -75 -48l-109 48q-18 0 -31 -9l-92 -158q-8 -13 9 -30l105 -75v-92l-105 -74q-9 -9 -9 -31l92 -157q13 -9 31 -9l109 48l75 -48l22 -123q0 -17 26 -17h188
q5 0 11.5 6.5t6.5 10.5l17 123q31 9 88 48l109 -48q31 0 31 9l92 157q9 9 -9 31l-105 74v92zM1725 1490q0 -52 -41.5 -96t-96 -44t-98.5 44t-44 98.5t44 96.5t98.5 42t96 -42t41.5 -99z" />
</svg>
