<?xml version="1.0" standalone="no"?>
<!DOCTYPE svg PUBLIC "-//W3C//DTD SVG 1.1//EN" "http://www.w3.org/Graphics/SVG/1.1/DTD/svg11.dtd" >
<svg xmlns="http://www.w3.org/2000/svg" xmlns:xlink="http://www.w3.org/1999/xlink" version="1.1" width="2048" height="2048" viewBox="-10 0 2068 2048">
   <path fill="currentColor"
d="M1070 1705q0 41 9 101h-887q-78 0 -135 -57.5t-57 -139.5v-1170q0 -82 57 -139.5t135 -57.5h101l192 393h292l-192 -393h192l197 393h292l-196 -393h196l197 393h292l-196 -393h388v960q-86 -55 -192 -73v-302h-1389l-174 -342v1124h887q-9 60 -9 96zM1266 1609v197h782
v-197h-782z" />
</svg>
