<?xml version="1.0" standalone="no"?>
<!DOCTYPE svg PUBLIC "-//W3C//DTD SVG 1.1//EN" "http://www.w3.org/Graphics/SVG/1.1/DTD/svg11.dtd" >
<svg xmlns="http://www.w3.org/2000/svg" xmlns:xlink="http://www.w3.org/1999/xlink" version="1.1" width="2048" height="2048" viewBox="-10 0 2068 2048">
   <path fill="currentColor"
d="M1861 412h-297q18 -44 18 -92q0 -117 -80.5 -198t-198.5 -81q-70 0 -128.5 30.5t-98.5 83.5l-52 69l-52 -69q-40 -53 -98.5 -83.5t-128.5 -30.5t-131 33t-100 89l140 140q8 -35 32 -57t61 -22t63.5 28.5t26.5 65.5t-22 61t-52 28l353 358v-166h745v183h-724l183 188h449
v444l183 187v-631q39 0 67.5 -28.5t28.5 -63.5v-279q0 -78 -54.5 -132.5t-132.5 -54.5zM1303 412q-39 0 -65.5 -28.5t-26.5 -65.5t26.5 -65.5t65.5 -28.5t65 28.5t26 65.5t-26 65.5t-65 28.5zM13 133l279 279h-105q-78 0 -132.5 54.5t-54.5 132.5v279q0 35 28.5 63.5
t67.5 28.5v745q0 74 54.5 128.5t128.5 54.5h1499l135 135l118 -118l-1900 -1900zM1116 1240l474 475h-474v-475zM932 1052v663h-653v-745h571zM662 782h-475v-183h288z" />
</svg>
