<?xml version="1.0" standalone="no"?>
<!DOCTYPE svg PUBLIC "-//W3C//DTD SVG 1.1//EN" "http://www.w3.org/Graphics/SVG/1.1/DTD/svg11.dtd" >
<svg xmlns="http://www.w3.org/2000/svg" xmlns:xlink="http://www.w3.org/1999/xlink" version="1.1" width="2048" height="2048" viewBox="-10 0 2069 2048">
   <path fill="currentColor"
d="M1947 968l-265 -155q92 -78 103.5 -183t-46 -196.5t-158 -125.5t-210.5 16l-86 36l-10 -96q-13 -146 -137 -224q-77 -45 -175.5 -38.5t-174 68.5t-93.5 176l-265 -155q-73 -41 -151 -20.5t-114 93.5l-101 164q-18 37 -9 76t46 62l758 438l147 -256l169 101l-146 251
l758 439q37 19 76 9.5t62 -45.5l96 -169q41 -69 20.5 -146.5t-94.5 -119.5zM1010 392q-41 10 -75 -11t-45.5 -57.5t9 -73t59.5 -48t75.5 9t45.5 59.5t-9.5 75.5t-59.5 45.5zM1518 685q-41 9 -75.5 -11.5t-46 -57t9 -73t59.5 -48t75.5 9t45.5 59.5t-11.5 75.5t-56.5 45.5z
M1838 1549q59 0 109 -37v343q0 78 -57 135t-135 57h-1563q-78 0 -135 -57t-57 -135v-877h795l83 45v832h192v-717l672 384q41 27 96 27z" />
</svg>
