<?xml version="1.0" standalone="no"?>
<!DOCTYPE svg PUBLIC "-//W3C//DTD SVG 1.1//EN" "http://www.w3.org/Graphics/SVG/1.1/DTD/svg11.dtd" >
<svg xmlns="http://www.w3.org/2000/svg" xmlns:xlink="http://www.w3.org/1999/xlink" version="1.1" width="2048" height="2048" viewBox="-10 0 2063 2048">
   <path fill="currentColor"
d="M1811 469l-268 -342l378 -77l77 378zM2043 1925l-122 123l-69 -77h-1565q-78 0 -134.5 -57t-56.5 -135v-973h591l-100 -96l-491 96l-41 -192q-14 -77 31.5 -143t122.5 -80l50 -13l-254 -251l127 -127zM1657 1779l-779 -778h-591v778h1370zM2034 1661v-855h-851l191 195
h469v464zM1520 523l-259 -346l-196 37l273 341zM1047 614l-264 -341l-114 18l328 333z" />
</svg>
