<?xml version="1.0" standalone="no"?>
<!DOCTYPE svg PUBLIC "-//W3C//DTD SVG 1.1//EN" "http://www.w3.org/Graphics/SVG/1.1/DTD/svg11.dtd" >
<svg xmlns="http://www.w3.org/2000/svg" xmlns:xlink="http://www.w3.org/1999/xlink" version="1.1" width="2048" height="2048" viewBox="-10 0 2068 2048">
   <path fill="currentColor"
d="M1726 442l-260 -340l376 -71l72 371zM1444 496l-260 -336l-188 36l264 336zM1663 1060q157 0 287 80v-367h-1907v958q0 76 56 132t132 56h940q-81 -130 -81 -284.5t78.5 -286.5t210.5 -210t284 -78zM979 590l-264 -340l-188 40l264 336zM249 344l-94 18
q-76 18 -120.5 82.5t-31.5 145.5l40 183l466 -89zM1762 1539v-287h-193v287h-286v192h286v286h193v-286h286v-192h-286z" />
</svg>
