<?xml version="1.0" standalone="no"?>
<!DOCTYPE svg PUBLIC "-//W3C//DTD SVG 1.1//EN" "http://www.w3.org/Graphics/SVG/1.1/DTD/svg11.dtd" >
<svg xmlns="http://www.w3.org/2000/svg" xmlns:xlink="http://www.w3.org/1999/xlink" version="1.1" width="2048" height="2048" viewBox="-11 0 2069 2048">
   <path fill="currentColor"
d="M1324 559l-277 -353l197 -38l273 353zM2010 422l-75 -390l-395 75l273 358zM262 361l-99 19q-80 19 -127 87t-33 153l43 192l488 -94zM1028 620l-277 -357l-198 42l278 352zM46 812v1006q0 80 58.5 139t138.5 59h987q-85 -136 -85 -298.5t82.5 -301t221 -221t301 -82.5
t298.5 85v-386h-2002zM1550 2016l498 -301l-498 -301v602z" />
</svg>
