<?xml version="1.0" standalone="no"?>
<!DOCTYPE svg PUBLIC "-//W3C//DTD SVG 1.1//EN" "http://www.w3.org/Graphics/SVG/1.1/DTD/svg11.dtd" >
<svg xmlns="http://www.w3.org/2000/svg" xmlns:xlink="http://www.w3.org/1999/xlink" version="1.1" width="2048" height="2048" viewBox="-10 0 2068 2048">
   <path fill="currentColor"
d="M1184 809h855v860zM2002 430l-77 -380l-380 78l261 343zM1047 617l-265 -343l-115 19l330 333zM128 0l-128 128l256 251l-50 14q-78 14 -123.5 80t-32.5 144l41 192l494 -96l101 96h-595v978q0 78 57.5 135t134.5 57h1573l69 69l123 -123zM1522 526l-260 -348l-197 37
l274 343z" />
</svg>
