<?xml version="1.0" standalone="no"?>
<!DOCTYPE svg PUBLIC "-//W3C//DTD SVG 1.1//EN" "http://www.w3.org/Graphics/SVG/1.1/DTD/svg11.dtd" >
<svg xmlns="http://www.w3.org/2000/svg" xmlns:xlink="http://www.w3.org/1999/xlink" version="1.1" width="2048" height="2048" viewBox="-10 0 2068 2048">
   <path fill="currentColor"
d="M1260 581l-264 -336l188 -35l260 335zM1914 451l-72 -371l-376 71l260 341zM979 639l-264 -340l-188 40l264 336zM249 393l-94 18q-76 18 -120.5 83t-31.5 145l40 184l466 -90zM1663 1109q157 0 287 81v-367h-1907v957q0 76 56 132t132 56h940q-81 -130 -81 -284
t78.5 -286t210.5 -210.5t284 -78.5zM1283 1588v192h765v-192h-765z" />
</svg>
