<?xml version="1.0" standalone="no"?>
<!DOCTYPE svg PUBLIC "-//W3C//DTD SVG 1.1//EN" "http://www.w3.org/Graphics/SVG/1.1/DTD/svg11.dtd" >
<svg xmlns="http://www.w3.org/2000/svg" xmlns:xlink="http://www.w3.org/1999/xlink" version="1.1" width="2048" height="2048" viewBox="-10 0 2068 2048">
   <path fill="currentColor"
d="M1726 462l-260 -340l376 -71l72 371zM1444 516l-260 -335l-188 35l264 336zM249 364l-94 18q-76 18 -120.5 83t-31.5 145l40 184l466 -90zM979 610l-264 -340l-188 40l264 336zM231 1751v-765h1531v103q98 18 188 71v-366h-1907v957q0 76 56 132t132 56h940
q-54 -85 -72 -188h-868zM2048 1550l-277 -27l-108 -251l-107 251l-273 27l210 179l-67 268l237 -143l237 143l-62 -268z" />
</svg>
