<?xml version="1.0" standalone="no"?>
<!DOCTYPE svg PUBLIC "-//W3C//DTD SVG 1.1//EN" "http://www.w3.org/Graphics/SVG/1.1/DTD/svg11.dtd" >
<svg xmlns="http://www.w3.org/2000/svg" xmlns:xlink="http://www.w3.org/1999/xlink" version="1.1" width="2048" height="2048" viewBox="-11 0 2069 2048">
   <path fill="currentColor"
d="M1764 452l-265 -347l384 -74l74 380zM1476 507l-265 -343l-192 37l270 343zM255 352l-96 18q-78 18 -124 84.5t-32 148.5l41 188l476 -92zM1000 603l-269 -348l-193 42l270 343zM236 1770v-783h1565v106q101 18 192 73v-375h-1949v979q0 77 57.5 134.5t134.5 57.5h961
q-55 -87 -73 -192h-888zM2048 1463l-137 -137l-211 206l-206 -206l-137 137l206 206l-206 210l137 138l206 -211l211 211l137 -138l-210 -210z" />
</svg>
