<?xml version="1.0" standalone="no"?>
<!DOCTYPE svg PUBLIC "-//W3C//DTD SVG 1.1//EN" "http://www.w3.org/Graphics/SVG/1.1/DTD/svg11.dtd" >
<svg xmlns="http://www.w3.org/2000/svg" xmlns:xlink="http://www.w3.org/1999/xlink" version="1.1" width="2048" height="2048" viewBox="-10 0 2058 2048">
   <path fill="currentColor"
d="M1281 452l-237 -303l169 -32l234 302zM1870 335l-65 -335l-338 65l234 306zM1027 504l-237 -306l-170 36l238 302zM185 673v859q0 73 50.5 123t118.5 50h1379q68 0 118.5 -50t50.5 -123v-859h-1717zM370 286l-84 16q-69 12 -109.5 72.5t-27.5 129.5l36 169l419 -84z
M959 2048h169v-173h-169v173zM612 2048h174v-173h-174v173zM1302 2048h173v-173h-173v173z" />
</svg>
