<?xml version="1.0" standalone="no"?>
<!DOCTYPE svg PUBLIC "-//W3C//DTD SVG 1.1//EN" "http://www.w3.org/Graphics/SVG/1.1/DTD/svg11.dtd" >
<svg xmlns="http://www.w3.org/2000/svg" xmlns:xlink="http://www.w3.org/1999/xlink" version="1.1" width="2048" height="2048" viewBox="-10 0 2068 2048">
   <path fill="currentColor"
d="M1260 532l-264 -336l188 -36l260 336zM1914 402l-72 -371l-376 71l260 340zM231 1731v-765h1531v103q98 18 188 71v-367h-1907v958q0 76 56 132t132 56h940q-54 -85 -72 -188h-868zM979 590l-264 -340l-188 40l264 336zM249 344l-94 18q-76 18 -120.5 82.5t-31.5 145.5
l40 183l466 -89zM1762 1539v-287h-193v287h-286v192h286v286h193v-286h286v-192h-286z" />
</svg>
