<?xml version="1.0" standalone="no"?>
<!DOCTYPE svg PUBLIC "-//W3C//DTD SVG 1.1//EN" "http://www.w3.org/Graphics/SVG/1.1/DTD/svg11.dtd" >
<svg xmlns="http://www.w3.org/2000/svg" xmlns:xlink="http://www.w3.org/1999/xlink" version="1.1" width="2048" height="2048" viewBox="-10 0 2068 2048">
   <path fill="currentColor"
d="M1099 1780q18 99 72 188h-940q-76 0 -132 -56t-56 -132v-957h1907v367q-85 -54 -188 -72v-103h-1531v765h868zM1914 451l-72 -371l-376 71l260 341zM1444 545l-260 -335l-188 35l264 336zM249 393l-94 18q-76 18 -120.5 83t-31.5 145l40 184l466 -90zM979 639l-264 -340
l-188 40l264 336zM1283 1588v192h765v-192h-765z" />
</svg>
