<?xml version="1.0" standalone="no"?>
<!DOCTYPE svg PUBLIC "-//W3C//DTD SVG 1.1//EN" "http://www.w3.org/Graphics/SVG/1.1/DTD/svg11.dtd" >
<svg xmlns="http://www.w3.org/2000/svg" xmlns:xlink="http://www.w3.org/1999/xlink" version="1.1" width="2048" height="2048" viewBox="-10 0 2068 2048">
   <path fill="currentColor"
d="M1260 581l-264 -336l188 -35l260 335zM1914 451l-72 -371l-376 71l260 341zM231 1015h1352l188 -192h-1728v957q0 76 56 132t132 56h671v-188h-671v-765zM979 639l-264 -340l-188 40l264 336zM249 393l-94 18q-76 18 -120.5 83t-31.5 145l40 184l466 -90zM1090 1776v192
h197l586 -582l-196 -196zM2030 1154l-125 -126q-14 -13 -34 -13t-33 13l-94 94l197 197l89 -94q18 -13 18 -33t-18 -38z" />
</svg>
