<?xml version="1.0" standalone="no"?>
<!DOCTYPE svg PUBLIC "-//W3C//DTD SVG 1.1//EN" "http://www.w3.org/Graphics/SVG/1.1/DTD/svg11.dtd" >
<svg xmlns="http://www.w3.org/2000/svg" xmlns:xlink="http://www.w3.org/1999/xlink" version="1.1" width="2048" height="2048" viewBox="-10 0 2058 2048">
   <path fill="currentColor"
d="M1701 371l-234 -306l338 -65l65 335zM1447 419l-234 -302l-169 32l237 303zM1027 504l-237 -306l-170 36l238 302zM370 286l-84 16q-69 12 -109.5 72.5t-27.5 129.5l36 169l419 -84zM1902 673v859q0 73 -50.5 123t-118.5 50h-1379q-68 0 -118.5 -50t-50.5 -123v-859h1717
zM1733 843h-1379v689h1379v-689zM612 2048h174v-173h-174v173zM1302 2048h173v-173h-173v173zM959 2048h169v-173h-169v173z" />
</svg>
