<?xml version="1.0" standalone="no"?>
<!DOCTYPE svg PUBLIC "-//W3C//DTD SVG 1.1//EN" "http://www.w3.org/Graphics/SVG/1.1/DTD/svg11.dtd" >
<svg xmlns="http://www.w3.org/2000/svg" xmlns:xlink="http://www.w3.org/1999/xlink" version="1.1" width="2048" height="2048" viewBox="-11 0 2069 2048">
   <path fill="currentColor"
d="M2048 812v386q-89 -56 -197 -75v-108h-1608v803h912q19 104 75 198h-987q-80 0 -138.5 -59t-58.5 -139v-1006h2002zM1517 521l-273 -353l-197 38l277 353zM2010 422l-75 -390l-395 75l273 358zM1028 620l-277 -357l-198 42l278 352zM262 361l-99 19q-80 19 -127 87
t-33 153l43 192l488 -94zM1550 2016l498 -301l-498 -301v602z" />
</svg>
