<?xml version="1.0" standalone="no"?>
<!DOCTYPE svg PUBLIC "-//W3C//DTD SVG 1.1//EN" "http://www.w3.org/Graphics/SVG/1.1/DTD/svg11.dtd" >
<svg xmlns="http://www.w3.org/2000/svg" xmlns:xlink="http://www.w3.org/1999/xlink" version="1.1" width="2048" height="2048" viewBox="-10 0 2058 2048">
   <path fill="currentColor"
d="M1610 1305l-849 -849q137 -76 287.5 -76t278.5 75.5t205.5 206t77.5 285.5v358zM1809 358l-133 -128l-199 195l133 132zM1752 898v190h283v-190h-283zM336 898h-283v190h283v-190zM13 190l522 518q-57 101 -57 239v752h1048l93 97h-1141q-80 0 -135 55t-55 131h1521
l66 66l120 -119l-1858 -1863zM1137 0h-186v283h186v-283z" />
</svg>
