<?xml version="1.0" standalone="no"?>
<!DOCTYPE svg PUBLIC "-//W3C//DTD SVG 1.1//EN" "http://www.w3.org/Graphics/SVG/1.1/DTD/svg11.dtd" >
<svg xmlns="http://www.w3.org/2000/svg" xmlns:xlink="http://www.w3.org/1999/xlink" version="1.1" width="2048" height="2048" viewBox="-10 0 2068 2048">
   <path fill="currentColor"
d="M870 1788q-120 58 -255 58q-168 0 -310 -84t-223.5 -226t-81.5 -305v-515q0 -168 81.5 -310t223.5 -223.5t310 -81.5l255 471q-187 96 -297.5 257t-110.5 348.5t110.5 348.5t297.5 262zM1433 1736v110h105q39 0 70 29t31 72t-31 72t-70 29h-307q-44 0 -75 -29t-31 -72
t31 -72t75 -29v-110q-173 -20 -315 -99t-221.5 -199.5t-79.5 -259.5q0 -154 96.5 -284t260 -204.5t360.5 -74.5h57l-28 -53q-68 -125 -92 -182q-38 -101 -38 -178q0 -82 60 -142t142 -60q173 0 293 120t120 289h-207l63 53q77 72 144 158q87 120 140 241q62 158 62 317
q0 139 -79.5 259.5t-221 199.5t-314.5 99zM1433 202q0 43 31 74.5t72 31.5t72 -31.5t31 -72.5t-31 -72t-72 -31t-72 31t-31 70zM1538 1024q0 -87 -60 -147t-146 -60q-169 0 -289 120.5t-120 293.5h409q86 0 146 -60t60 -147z" />
</svg>
