<?xml version="1.0" standalone="no"?>
<!DOCTYPE svg PUBLIC "-//W3C//DTD SVG 1.1//EN" "http://www.w3.org/Graphics/SVG/1.1/DTD/svg11.dtd" >
<svg xmlns="http://www.w3.org/2000/svg" xmlns:xlink="http://www.w3.org/1999/xlink" version="1.1" width="2048" height="2048" viewBox="-10 0 2058 2048">
   <path fill="currentColor"
d="M1163 977q4 30 -7 59t-33 49.5t-49 32.5t-58 11t-57 -17q-48 -21 -66.5 -73t-0.5 -103.5t65 -73.5q32 -20 68 -17.5t66.5 18.5t51 47t20.5 67zM1303 950q-7 -52 -33.5 -98.5t-66.5 -78t-87.5 -50t-101 -18t-101.5 22.5q-79 35 -126 111t-43 163q3 75 46.5 139t113.5 98.5
t145 27.5t137 -53.5t94 -117.5t23 -146zM1603 269q-18 -24 -42.5 -41.5t-58 -28t-55 -15.5t-61.5 -11l-15 -3q-369 -59 -712 2q-39 6 -61.5 11t-55 15.5t-56.5 28t-41 42.5q23 22 53.5 38.5t54 25.5t65.5 17t60 10.5t65 7.5q286 37 563 1q5 0 14 -1q51 -6 78.5 -10.5t70 -15
t75 -28.5t59.5 -45zM1676 1571q-9 29 -16 76.5t-13.5 84t-18.5 76.5t-37 71.5t-62 52.5q-82 45 -175.5 72.5t-189.5 37t-190.5 5t-190.5 -21.5q-57 -11 -102 -23t-96 -33t-91 -54.5t-66 -77.5q-32 -121 -72 -368l8 -19l22 -11q186 122 411.5 164.5t451.5 0t412 -164.5
q27 8 30.5 29t-6 56t-9.5 47zM1902 362q-34 220 -138 824q-5 28 -20.5 52.5t-40.5 44.5t-45.5 33t-51.5 29q-318 159 -767 111q-311 -33 -496 -175q-19 -14 -32.5 -33t-21 -44.5t-11 -42t-8 -50t-6.5 -43.5q-10 -58 -32.5 -188t-35.5 -204.5t-29.5 -183.5t-27.5 -201
q3 -27 15 -51t32.5 -43t40 -33.5t49.5 -28.5t49 -21.5t50 -19.5q161 -59 394 -80q477 -46 849 63q90 26 158 60.5t113 91.5q19 24 20.5 60t-5.5 64q-1 6 -2 9z" />
</svg>
