<?xml version="1.0" standalone="no"?>
<!DOCTYPE svg PUBLIC "-//W3C//DTD SVG 1.1//EN" "http://www.w3.org/Graphics/SVG/1.1/DTD/svg11.dtd" >
<svg xmlns="http://www.w3.org/2000/svg" xmlns:xlink="http://www.w3.org/1999/xlink" version="1.1" width="2048" height="2048" viewBox="-10 0 2068 2048">
   <path fill="currentColor"
d="M369 642l56 -55q45 -51 113.5 -48.5t118.5 48.5v5q76 75 203 86q81 10 151.5 53t121.5 113q55 92 52.5 198t-57.5 192q-66 96 -167 139t-207.5 20t-187.5 -98q-86 -91 -101 -217.5t-96 -207.5q-45 -46 -45 -114t45 -114zM824 1507q-197 0 -333 -137q-117 -121 -137 -278
q-5 -65 -35 -116q-107 142 -107 319q0 126 61 240t162 189h1396v-106q0 -288 -169.5 -515.5t-437.5 -313.5q71 116 68 255t-73 251q-66 101 -172 156.5t-223 55.5zM1375 597h137q76 0 126.5 50.5t50.5 136.5v76h137v-107q0 -121 -91.5 -202t-222.5 -81h-137
q-65 0 -115.5 -55.5t-50.5 -124t50.5 -114t115.5 -45.5v-131q-121 0 -209.5 86t-88.5 212.5t88.5 212.5t209.5 86zM268 597q10 -15 25 -31l56 -55q10 -10 30 -26l-151 -156q10 -21 7.5 -46t-23 -48t-56 -23t-58 23t-22.5 53q-30 5 -53 28t-23 56t20 55.5t45.5 25t45.5 -7.5z
M1765 258q91 -91 91 -212h-137q0 65 -48 113t-114 48v137q147 0 253.5 106t106.5 258v263h131v-263q0 -147 -78.5 -268t-204.5 -182zM324 2048h1507q91 0 154 -63t63 -154h-1942q0 91 63.5 154t154.5 63z" />
</svg>
