<?xml version="1.0" standalone="no"?>
<!DOCTYPE svg PUBLIC "-//W3C//DTD SVG 1.1//EN" "http://www.w3.org/Graphics/SVG/1.1/DTD/svg11.dtd" >
<svg xmlns="http://www.w3.org/2000/svg" xmlns:xlink="http://www.w3.org/1999/xlink" version="1.1" width="2048" height="2048" viewBox="-10 0 2068 2048">
   <path fill="currentColor"
d="M1952 1211h-91q0 -178 -87.5 -328.5t-237.5 -237.5t-325 -87h-95v-118q43 -22 69 -65.5t26 -95.5q0 -74 -54.5 -128.5t-132.5 -54.5t-132.5 54.5t-54.5 128.5q0 52 26 95.5t69 65.5v118h-95q-175 0 -325 87t-237.5 237.5t-87.5 328.5h-91q-39 0 -67.5 26.5t-28.5 65.5
v279q0 39 28.5 65t67.5 26h91v96q0 74 54.5 128.5t133.5 54.5h1298q79 0 133.5 -54.5t54.5 -128.5v-96h91q39 0 67.5 -26t28.5 -65v-279q0 -39 -28.5 -65.5t-67.5 -26.5zM819 1442q-30 -61 -87 -100t-126.5 -39t-126 39t-87.5 100q-17 -48 -17 -91q0 -96 67.5 -165.5
t163.5 -69.5t163.5 69.5t67.5 165.5q0 43 -18 91zM1656 1442q-26 -61 -85 -100t-128.5 -39t-128.5 39t-85 100q-18 -48 -18 -91q0 -96 67.5 -165.5t163.5 -69.5t163.5 69.5t67.5 165.5q0 43 -17 91z" />
</svg>
