<?xml version="1.0" standalone="no"?>
<!DOCTYPE svg PUBLIC "-//W3C//DTD SVG 1.1//EN" "http://www.w3.org/Graphics/SVG/1.1/DTD/svg11.dtd" >
<svg xmlns="http://www.w3.org/2000/svg" xmlns:xlink="http://www.w3.org/1999/xlink" version="1.1" width="2048" height="2048" viewBox="-10 0 2068 2048">
   <path fill="currentColor"
d="M885 1351q0 48 -27 91q-26 -43 -67.5 -67t-91.5 -24t-93.5 24t-65.5 67q-26 -48 -26 -91q0 -79 54.5 -133.5t131 -54.5t131 54.5t54.5 133.5zM2048 1303v279q0 39 -28.5 65t-67.5 26h-91v96q0 74 -54.5 128.5t-133.5 54.5h-1298q-79 0 -133.5 -54.5t-54.5 -128.5v-96h-91
q-39 0 -67.5 -26t-28.5 -65v-279q0 -39 28.5 -65.5t67.5 -26.5h91q0 -178 87.5 -328.5t237.5 -237.5t325 -87h95v-118q-43 -22 -69 -65.5t-26 -95.5q0 -74 54.5 -128.5t132.5 -54.5t132.5 54.5t54.5 128.5q0 52 -26 95.5t-69 65.5v118h95q175 0 325 87t237.5 237.5
t87.5 328.5h91q39 0 67.5 26.5t28.5 65.5zM1861 1394h-188v-183q0 -126 -61 -233t-167.5 -170t-233.5 -63h-374q-127 0 -233.5 63t-167.5 170t-61 233v183h-188v96h188v279h1298v-279h188v-96zM1351 1163q-79 0 -133.5 54.5t-54.5 133.5q0 43 27 91q26 -43 67.5 -67
t91.5 -24t93.5 24t65.5 67q26 -43 26 -91q0 -79 -54.5 -133.5t-128.5 -54.5z" />
</svg>
