<?xml version="1.0" standalone="no"?>
<!DOCTYPE svg PUBLIC "-//W3C//DTD SVG 1.1//EN" "http://www.w3.org/Graphics/SVG/1.1/DTD/svg11.dtd" >
<svg xmlns="http://www.w3.org/2000/svg" xmlns:xlink="http://www.w3.org/1999/xlink" version="1.1" width="2048" height="2048" viewBox="-10 0 2068 2048">
   <path fill="currentColor"
d="M1070 1559q0 41 9 100h-887q-78 0 -135 -57t-57 -139v-1170q0 -83 57 -140t135 -57h101l192 393h292l-192 -393h192l197 393h292l-196 -393h196l197 393h292l-196 -393h388v960q-86 -55 -192 -73v-302h-1389l-174 -343v1125h887q-9 59 -9 96zM1755 1463v-293h-196v293
h-293v196h293v293h196v-293h293v-196h-293z" />
</svg>
