<?xml version="1.0" standalone="no"?>
<!DOCTYPE svg PUBLIC "-//W3C//DTD SVG 1.1//EN" "http://www.w3.org/Graphics/SVG/1.1/DTD/svg11.dtd" >
<svg xmlns="http://www.w3.org/2000/svg" xmlns:xlink="http://www.w3.org/1999/xlink" version="1.1" width="2048" height="2048" viewBox="-10 0 2068 2048">
   <path fill="currentColor"
d="M1596 1269q43 -96 43 -226q0 -168 -84 -307.5t-223.5 -223.5t-307.5 -84q-101 0 -226 43l164 164h62q168 0 288.5 120t120.5 288q0 43 -10 63zM1024 221q221 0 411 110.5t300.5 300.5t110.5 411q0 193 -106 380l154 154q154 -255 154 -534t-137 -514.5t-372.5 -372.5
t-514.5 -137q-303 0 -534 154l154 154q164 -106 380 -106zM130 67l-130 135l212 216q-212 279 -212 625q0 279 139.5 514.5t370.5 365.5l105 -173q-187 -111 -300 -298.5t-113 -408.5q0 -259 154 -481l154 154q-101 154 -101 324.5t84 310t223 226.5l101 -173
q-91 -58 -146.5 -151.5t-55.5 -199.5q0 -63 39 -183l163 164v19q0 86 60 146.5t147 60.5h19l769 769l135 -135z" />
</svg>
