<?xml version="1.0" standalone="no"?>
<!DOCTYPE svg PUBLIC "-//W3C//DTD SVG 1.1//EN" "http://www.w3.org/Graphics/SVG/1.1/DTD/svg11.dtd" >
<svg xmlns="http://www.w3.org/2000/svg" xmlns:xlink="http://www.w3.org/1999/xlink" version="1.1" width="2048" height="2048" viewBox="-10 0 2068 2048">
   <path fill="currentColor"
d="M1131 990q0 -28 -15.5 -52t-39 -36.5t-51.5 -15t-52 13.5q-36 17 -50 57t0 79.5t51 54.5q26 17 55 13t53 -18t38.5 -40.5t10.5 -55.5zM1238 969q12 88 -47 161t-147.5 81t-159 -53.5t-74.5 -150.5q-3 -66 33.5 -124.5t97.5 -85.5q46 -22 96 -16t92.5 29.5t72.5 66
t36 92.5zM1467 447q-17 17 -40.5 30t-40.5 20t-50.5 13t-45 7.5t-50.5 6.5q-208 27 -431 0q-46 -6 -63 -9t-54 -11.5t-63 -22.5t-48 -34q13 -19 31.5 -32.5t44 -21.5t42 -11.5t47.5 -8.5q265 -46 543 -1q33 5 51 8.5t45.5 11.5t47 21.5t34.5 33.5zM1523 1441q0 -8 7 -34
t4.5 -42.5t-23.5 -22.5q-142 93 -314.5 126t-345.5 0t-315 -126l-16 7l-7 16q3 12 12 67t13.5 77.5t13 63t16.5 72.5q20 34 51 60t69.5 42t73.5 26t78 17q99 17 194 18.5t194.5 -21t182.5 -68.5q28 -16 47 -40.5t28 -55t14 -59t10.5 -64.5t12.5 -59zM1697 517
q12 -69 -11 -99q-58 -74 -207 -118q-285 -83 -649 -48q-180 16 -301 61q-30 11 -47 18.5t-44.5 22t-43.5 29t-30 36t-17 45.5q8 70 21 153.5t22.5 140t27 157t24.5 143.5q2 10 5.5 34.5t6.5 37.5t9.5 32.5t16.5 33.5t24 26q138 105 379 133q347 37 586 -84
q24 -13 39.5 -22.5t35 -25t31 -34.5t14.5 -41q63 -348 108 -631zM2048 384v1280q0 105 -51.5 193t-139.5 139.5t-193 51.5h-1280q-105 0 -193 -51.5t-139.5 -139.5t-51.5 -193v-1280q0 -105 51.5 -193t139.5 -139.5t193 -51.5h1280q105 0 193 51.5t139.5 139.5t51.5 193z
" />
</svg>
