<?xml version="1.0" standalone="no"?>
<!DOCTYPE svg PUBLIC "-//W3C//DTD SVG 1.1//EN" "http://www.w3.org/Graphics/SVG/1.1/DTD/svg11.dtd" >
<svg xmlns="http://www.w3.org/2000/svg" xmlns:xlink="http://www.w3.org/1999/xlink" version="1.1" width="2048" height="2048" viewBox="-10 0 2068 2048">
   <path fill="currentColor"
d="M1024 889q-87 0 -147 60.5t-60 147t60 146.5t147 60t147 -60t60 -146.5t-60 -147t-147 -60.5zM1639 1096q0 -168 -84 -307.5t-223.5 -223.5t-307.5 -84t-307.5 84t-223.5 223.5t-84 307.5t84 307.5t223 226.5l101 -173q-91 -58 -146.5 -152t-55.5 -199q0 -169 120.5 -289
t288.5 -120t288.5 120t120.5 289q0 115 -55.5 209t-146.5 142l101 173q139 -77 223 -221.5t84 -312.5zM1024 72q-279 0 -514.5 137t-372.5 372.5t-137 514.5t139.5 514.5t370.5 365.5l105 -173q-187 -111 -300 -298.5t-113 -408.5t110.5 -411t300.5 -300.5t411 -110.5
t411 110.5t300.5 300.5t110.5 413.5t-110.5 408.5t-302.5 296l105 173q231 -130 370.5 -365.5t139.5 -514.5t-137 -514.5t-372.5 -372.5t-514.5 -137z" />
</svg>
