<?xml version="1.0" standalone="no"?>
<!DOCTYPE svg PUBLIC "-//W3C//DTD SVG 1.1//EN" "http://www.w3.org/Graphics/SVG/1.1/DTD/svg11.dtd" >
<svg xmlns="http://www.w3.org/2000/svg" xmlns:xlink="http://www.w3.org/1999/xlink" version="1.1" width="2048" height="2048" viewBox="-10 0 2068 2048">
   <path fill="currentColor"
d="M1541 1655q-32 -87 -105.5 -139.5t-169.5 -52.5q-123 0 -207.5 82t-84.5 208t84.5 210.5t207.5 84.5q96 0 169.5 -55t105.5 -142h114v197h196v-197h197v-196h-507zM1266 1879q-50 0 -89 -36.5t-39 -89t39 -89.5t89.5 -37t89 37t38.5 89.5t-38.5 89t-89.5 36.5zM1266 1266
q78 0 155.5 25.5t137.5 70.5v-1069q0 -46 27.5 -73.5t71 -27.5t70.5 27.5t27 73.5v96h192v-96q0 -128 -82 -210.5t-210 -82.5h-1070q-128 0 -210 82.5t-82 210.5v1069h681q59 -45 137 -70.5t155 -25.5zM585 389h681v196h-681v-196zM585 777h585v197h-585v-197zM818 1947
h-525q-128 0 -210.5 -82t-82.5 -210v-96h818q-41 78 -41 194.5t41 193.5z" />
</svg>
