<?xml version="1.0" standalone="no"?>
<!DOCTYPE svg PUBLIC "-//W3C//DTD SVG 1.1//EN" "http://www.w3.org/Graphics/SVG/1.1/DTD/svg11.dtd" >
<svg xmlns="http://www.w3.org/2000/svg" xmlns:xlink="http://www.w3.org/1999/xlink" version="1.1" width="2048" height="2048" viewBox="-10 0 2058 2048">
   <path fill="currentColor"
d="M1837 0h-1626q-38 0 -68.5 28.5t-30.5 71.5v100q0 42 30.5 73t68.5 31h105v912h608v262l-427 427l142 143l285 -285v261h200v-261l285 285l142 -143l-427 -427v-262h608v-912h105q38 0 68.5 -31t30.5 -73v-100q0 -43 -30.5 -71.5t-68.5 -28.5zM1532 1012h-1016v-708h1016
v708z" />
</svg>
