<?xml version="1.0" standalone="no"?>
<!DOCTYPE svg PUBLIC "-//W3C//DTD SVG 1.1//EN" "http://www.w3.org/Graphics/SVG/1.1/DTD/svg11.dtd" >
<svg xmlns="http://www.w3.org/2000/svg" xmlns:xlink="http://www.w3.org/1999/xlink" version="1.1" width="2048" height="2048" viewBox="-10 0 2068 2048">
   <path fill="currentColor"
d="M2048 1925l-1925 -1925l-123 123l581 586q-101 100 -156 242t-46 292q10 96 28 147q18 77 68 169q78 123 208.5 207.5t276.5 103.5q165 23 315 -14q160 -37 275 -142l18 -18l357 352zM750 1202q-37 14 -64 -13q-9 -5 -14 -14q-73 -96 -93.5 -217t20.5 -236l128 128
q0 147 46 270q9 18 9 32q0 37 -32 50zM1303 1536q-50 46 -105 59q-78 28 -160 0q-69 -22 -124 -77q83 -23 135.5 -78t70.5 -123q5 -28 5 -69l228 229q-27 41 -50 59zM1737 1362l-905 -900q73 -124 174 -211q128 -100 247 -128q-74 138 -51 295.5t133 262.5q36 32 110 92
q64 45 91 68l14 14q45 46 64 68l27 46q32 50 46 78l14 23q54 137 36 292z" />
</svg>
