<?xml version="1.0" standalone="no"?>
<!DOCTYPE svg PUBLIC "-//W3C//DTD SVG 1.1//EN" "http://www.w3.org/Graphics/SVG/1.1/DTD/svg11.dtd" >
<svg xmlns="http://www.w3.org/2000/svg" xmlns:xlink="http://www.w3.org/1999/xlink" version="1.1" width="2048" height="2048" viewBox="-10 0 2068 2048">
   <path fill="currentColor"
d="M1536 596v172h340v172h-168q-72 0 -122 50t-50 118v344h512v-172h-340v-172h168q72 0 122 -50t50 -118v-172q0 -72 -50 -122t-122 -50h-340zM768 1452h-172v-172h172v172zM768 596v172h172v684h168v-856h-340zM0 596v512h340v172h-340v172h340q72 0 122 -50t50 -122v-172
q0 -68 -50 -118t-122 -50h-168v-172h340v-172h-512zM1452 1452h-172v-172h172v172z" />
</svg>
