<?xml version="1.0" standalone="no"?>
<!DOCTYPE svg PUBLIC "-//W3C//DTD SVG 1.1//EN" "http://www.w3.org/Graphics/SVG/1.1/DTD/svg11.dtd" >
<svg xmlns="http://www.w3.org/2000/svg" xmlns:xlink="http://www.w3.org/1999/xlink" version="1.1" width="2048" height="2048" viewBox="-10 0 2058 2048">
   <path fill="currentColor"
d="M1514 1635l98 292q-28 43 -136.5 81t-217.5 40q-93 1 -175 -16.5t-143 -48.5t-111.5 -74.5t-84.5 -93t-57.5 -104t-33.5 -107t-10 -102.5v-670h-207v-265q64 -24 118.5 -58.5t93.5 -72.5t70.5 -83.5t51.5 -88.5t34.5 -90t22 -84.5t11.5 -75.5q0 -7 5 -10.5t10 -3.5h300
v521h411v311h-412v637q0 29 4.5 55t18 54.5t34.5 48.5t57 33t83 12q40 -1 88 -12t77 -25z" />
</svg>
