<?xml version="1.0" standalone="no"?>
<!DOCTYPE svg PUBLIC "-//W3C//DTD SVG 1.1//EN" "http://www.w3.org/Graphics/SVG/1.1/DTD/svg11.dtd" >
<svg xmlns="http://www.w3.org/2000/svg" xmlns:xlink="http://www.w3.org/1999/xlink" version="1.1" width="2048" height="2048" viewBox="-10 0 2068 2048">
   <path fill="currentColor"
d="M1024 101q-279 0 -514.5 110.5t-372.5 300.5t-137 411q0 159 74.5 308t209.5 255q0 67 -48 163q-77 144 -236 298l58 -5q77 -9 158 -29q111 -28 217 -77q125 -57 230 -144q188 48 361 48q279 0 514.5 -110.5t372.5 -298t137 -408.5t-137 -411t-372.5 -300.5
t-514.5 -110.5zM1125 1332h-202v-207h202v207zM1312 817q-33 44 -115 82q-38 29 -48 53q-14 14 -19 28.5t-5 43.5h-202q0 -67 29 -111q38 -38 115 -86q39 -15 60.5 -53t21.5 -74.5t-31.5 -65t-83.5 -28.5q-29 0 -72 19q-29 14 -29 62h-207q19 -115 91 -177q68 -48 217 -48
t228 62.5t79 172.5q15 63 -29 120z" />
</svg>
