<?xml version="1.0" standalone="no"?>
<!DOCTYPE svg PUBLIC "-//W3C//DTD SVG 1.1//EN" "http://www.w3.org/Graphics/SVG/1.1/DTD/svg11.dtd" >
<svg xmlns="http://www.w3.org/2000/svg" xmlns:xlink="http://www.w3.org/1999/xlink" version="1.1" width="2048" height="2048" viewBox="-10 0 2068 2048">
   <path fill="currentColor"
d="M1061 416q123 0 207.5 84.5t84.5 203.5t-78 201l-411 -411q82 -78 197 -78zM1061 219q132 0 244 66.5t178.5 178.5t66.5 245q0 192 -137 333l141 137q87 -91 137.5 -212t50.5 -258q0 -188 -91.5 -343.5t-247 -247t-342.5 -91.5q-138 0 -259 50.5t-212 137.5l137 142
q142 -138 334 -138zM2048 1925l-123 123l-138 -137q-54 64 -141 64h-1171q-82 0 -139 -57t-57 -135q0 -60 32 -101l174 -311q118 101 267 158t313.5 57t328.5 -68l-155 -151q-87 23 -178 23q-188 0 -343.5 -91.5t-247 -247t-91.5 -342.5q0 -92 23 -179l-402 -407l123 -123z
M1070 1198l-499 -499v10q0 132 66.5 244t178.5 178.5t245 66.5h9z" />
</svg>
