<?xml version="1.0" standalone="no"?>
<!DOCTYPE svg PUBLIC "-//W3C//DTD SVG 1.1//EN" "http://www.w3.org/Graphics/SVG/1.1/DTD/svg11.dtd" >
<svg xmlns="http://www.w3.org/2000/svg" xmlns:xlink="http://www.w3.org/1999/xlink" version="1.1" width="2048" height="2048" viewBox="-10 0 2068 2048">
   <path fill="currentColor"
d="M1846 0h-1644q-82 0 -142 60t-60 142v1846l409 -409h1437q82 0 142 -60t60 -146v-1231q0 -82 -60 -142t-142 -60zM1846 1433h-1519l-125 125v-1356h1644v1231zM1043 356q-130 0 -216 53q-96 67 -82 173h207q0 -44 29 -63q43 -19 72 -19q53 0 84 31t31 67.5t-19 74.5
q-43 43 -63 53q-76 48 -115 82q-29 24 -38.5 48t-9.5 67h202q0 -19 10 -43v-29q9 -14 33 -34l19 -19q63 -24 116 -91q38 -58 38 -125q0 -106 -81 -173q-68 -53 -217 -53zM923 1024v207h202v-207h-202z" />
</svg>
