<?xml version="1.0" standalone="no"?>
<!DOCTYPE svg PUBLIC "-//W3C//DTD SVG 1.1//EN" "http://www.w3.org/Graphics/SVG/1.1/DTD/svg11.dtd" >
<svg xmlns="http://www.w3.org/2000/svg" xmlns:xlink="http://www.w3.org/1999/xlink" version="1.1" width="2048" height="2048" viewBox="-10 0 2068 2048">
   <path fill="currentColor"
d="M1861 466h-1674q-78 0 -132.5 54.5t-54.5 133.5v745h96q0 74 54.5 128.5t130.5 54.5t130.5 -54.5t54.5 -128.5h1116q0 74 54.5 128.5t130.5 54.5t130.5 -54.5t54.5 -128.5h96v-745q0 -79 -54.5 -133.5t-132.5 -54.5zM654 932h-467v-278h467v278zM1211 1303h-374v-649h374
v649zM1861 932h-467v-278h467v278z" />
</svg>
