<?xml version="1.0" standalone="no"?>
<!DOCTYPE svg PUBLIC "-//W3C//DTD SVG 1.1//EN" "http://www.w3.org/Graphics/SVG/1.1/DTD/svg11.dtd" >
<svg xmlns="http://www.w3.org/2000/svg" xmlns:xlink="http://www.w3.org/1999/xlink" version="1.1" width="2048" height="2048" viewBox="-10 0 2068 2048">
   <path fill="currentColor"
d="M1673 187q-122 0 -205 35q-156 70 -230 253q-35 -9 -122 -9h-184q-87 0 -122 9q-74 -183 -230 -253q-83 -35 -205 -35q-66 0 -140 40q-100 56 -157 165q-78 140 -78 353q0 222 135 344q92 83 240 114v100q0 152 74 278.5t202.5 203t280.5 76.5h184q152 0 280.5 -76.5
t202.5 -203t74 -278.5v-100q148 -31 240 -114q135 -122 135 -344q0 -213 -78 -353q-57 -109 -157 -165q-74 -40 -140 -40zM375 1024v39q-92 -26 -127 -100q-26 -61 -6.5 -133t67.5 -111q-17 -22 -74 -4q-26 4 -37 4t-11 -13q0 -26 88 -74q56 -26 108 -44q-13 -26 -82 -39
q-31 -4 -44 -8.5t-13 -17.5q0 -26 69.5 -48t135.5 -9q87 18 148 66q-105 95 -161 213q-61 131 -61 279zM697 1303q-87 0 -122 -70t0 -139.5t122 -69.5t122 69.5t0 139.5t-122 70zM1072 1582h-96q-48 0 -76.5 -39.5t-6.5 -82.5l66 -279q13 -44 74 -65q48 0 74 65l65 279
q9 43 -21.5 82.5t-78.5 39.5zM1351 1303q-87 0 -122 -70t0 -139.5t122 -69.5t122 69.5t0 139.5t-122 70zM1739 706q48 39 67.5 113t-6.5 135q-35 70 -127 96q9 -148 -52 -287.5t-170 -230.5q61 -48 148 -66q70 -13 137.5 6.5t67.5 50.5q0 13 -15.5 17.5t-45.5 8.5
q-65 9 -78 31l43 21q153 70 153 105q0 13 -11 13t-33 -9q-57 -17 -78 -4z" />
</svg>
