<?xml version="1.0" standalone="no"?>
<!DOCTYPE svg PUBLIC "-//W3C//DTD SVG 1.1//EN" "http://www.w3.org/Graphics/SVG/1.1/DTD/svg11.dtd" >
<svg xmlns="http://www.w3.org/2000/svg" xmlns:xlink="http://www.w3.org/1999/xlink" version="1.1" width="2048" height="2048" viewBox="-10 0 2058 2048">
   <path fill="currentColor"
d="M1974 2047v-192q-112 5 -196 -13q-103 -22 -183 -80q-125 89 -285.5 89t-285.5 -89q-125 89 -285.5 89t-285.5 -89q-80 58 -183 80q-84 18 -196 13v192q236 9 379 -71q129 71 283 71t288 -71q134 71 288 71t283 -71q143 80 379 71zM1831 995v-192q-125 0 -238.5 -65
t-171.5 -176l-85 -147q-40 -63 -116 -85l-530 -98l-331 232l108 156l267 -183l192 31l-205 139q-45 31 -65 77.5t-11 95.5l49 295q-174 -67 -308 -76q-205 -22 -218 116q18 134 147 268q76 75 259 209l75 54q98 35 201 -5t174 -125q62 81 156 116.5t194 20t172 -82.5
q-72 -67 -143 -116v-366l-361 -285l214 -143q85 156 241 247.5t334 87.5zM1216 1191v138q0 -4 -196 -111q-18 -9 -14 -5l-102 -53l-41 -250zM1689 192q0 76 -56 131.5t-134 55.5t-134 -55.5t-56 -134t56 -134t134 -55.5t134 55.5t56 136.5z" />
</svg>
