<?xml version="1.0" standalone="no"?>
<!DOCTYPE svg PUBLIC "-//W3C//DTD SVG 1.1//EN" "http://www.w3.org/Graphics/SVG/1.1/DTD/svg11.dtd" >
<svg xmlns="http://www.w3.org/2000/svg" xmlns:xlink="http://www.w3.org/1999/xlink" version="1.1" width="2048" height="2048" viewBox="-10 0 2068 2048">
   <path fill="currentColor"
d="M1679 1076q44 0 108 10v-532h-1684v1364h985q-39 -104 -39 -212q0 -168 86 -313t231 -231t313 -86zM630 1076v-158q0 -20 15 -34.5t39 -14.5h522q25 0 39.5 14.5t14.5 34.5v158h-630zM1890 446h-1890v-419h1890v419zM2048 1524l-497 497l-291 -315l123 -118l168 167
l374 -379z" />
</svg>
