<?xml version="1.0" standalone="no"?>
<!DOCTYPE svg PUBLIC "-//W3C//DTD SVG 1.1//EN" "http://www.w3.org/Graphics/SVG/1.1/DTD/svg11.dtd" >
<svg xmlns="http://www.w3.org/2000/svg" xmlns:xlink="http://www.w3.org/1999/xlink" version="1.1" width="2048" height="2048" viewBox="-10 0 2068 2048">
   <path fill="currentColor"
d="M2048 653l-602 -52l-235 -554l-236 554l-602 52l454 397l-135 589l519 -314l514 314l-135 -589zM1407 1094l39 157l-235 -140l-240 140l65 -266l-209 -183l275 -22l109 -253l104 253l275 22l-209 183zM16 1072q-22 -35 -13.5 -72t39.5 -59l253 -166l148 127l-301 196
q-22 13 -48 13q-48 0 -78 -39zM42 1831l545 -358l-31 135l-30 127l-384 253q-22 13 -48 13q-52 0 -78 -39q-22 -35 -13.5 -72t39.5 -59zM587 1024l87 79l-26 109l-506 331q-22 13 -48 13q-52 0 -78 -39q-22 -35 -13.5 -72t39.5 -59z" />
</svg>
