<?xml version="1.0" standalone="no"?>
<!DOCTYPE svg PUBLIC "-//W3C//DTD SVG 1.1//EN" "http://www.w3.org/Graphics/SVG/1.1/DTD/svg11.dtd" >
<svg xmlns="http://www.w3.org/2000/svg" xmlns:xlink="http://www.w3.org/1999/xlink" version="1.1" width="2048" height="2048" viewBox="-10 0 2068 2048">
   <path fill="currentColor"
d="M1890 27h-1890v630h1890v-630zM1679 446h-1467v-207h1467v207zM1206 869q25 0 39.5 14.5t14.5 34.5v158h-630v-158q0 -20 15 -34.5t39 -14.5h522zM1575 1086v-325h212v325q-64 -10 -106 -10t-106 10zM1049 1706q0 108 39 212h-985v-1157h212v945h734zM2048 1524l-497 497
l-291 -315l123 -118l168 167l374 -379z" />
</svg>
