<?xml version="1.0" standalone="no"?>
<!DOCTYPE svg PUBLIC "-//W3C//DTD SVG 1.1//EN" "http://www.w3.org/Graphics/SVG/1.1/DTD/svg11.dtd" >
<svg xmlns="http://www.w3.org/2000/svg" xmlns:xlink="http://www.w3.org/1999/xlink" version="1.1" width="2048" height="2048" viewBox="-10 0 2068 2048">
   <path fill="currentColor"
d="M1515 1777l-83 -244q-24 13 -63.5 21.5t-73.5 8.5q-39 1 -69 -9.5t-47.5 -27t-29 -40t-15 -45.5t-3.5 -46v-531h343v-258h-342v-436h-251q-3 0 -7 4t-5 10q-4 38 -12 74.5t-23.5 82.5t-41 88t-60 83t-85.5 75.5t-114 56.5v220h174v557q0 60 17 121.5t56.5 123.5t97 109
t146 76t195.5 27q92 -2 182 -34t114 -67zM2048 384v1280q0 105 -51.5 193t-139.5 139.5t-193 51.5h-1280q-105 0 -193 -51.5t-139.5 -139.5t-51.5 -193v-1280q0 -105 51.5 -193t139.5 -139.5t193 -51.5h1280q105 0 193 51.5t139.5 139.5t51.5 193z" />
</svg>
