<?xml version="1.0" standalone="no"?>
<!DOCTYPE svg PUBLIC "-//W3C//DTD SVG 1.1//EN" "http://www.w3.org/Graphics/SVG/1.1/DTD/svg11.dtd" >
<svg xmlns="http://www.w3.org/2000/svg" xmlns:xlink="http://www.w3.org/1999/xlink" version="1.1" width="2048" height="2048" viewBox="-10 0 2068 2048">
   <path fill="currentColor"
d="M1024 1490q-78 0 -132.5 -54.5t-54.5 -133t54.5 -132.5t132.5 -54t132.5 54t54.5 132.5t-54.5 133t-132.5 54.5zM1673 1211h-183q0 127 -63 233.5t-170 167.5t-233 61t-233 -61t-170 -167.5t-63 -233.5h-183q0 192 102.5 349t267.5 235v253h558v-253q165 -78 267.5 -235
t102.5 -349zM2048 632q0 52 -52.5 80.5t-95.5 -6.5q-9 -4 -22 -13l-17 -13l-188 436h-183l-139 -580q-327 -35 -654 0l-139 580h-183l-188 -436l-17 13q-13 9 -22 13q-43 35 -95.5 6.5t-52.5 -80.5v-353l4 -9q5 -17 16 -36.5t39 -43.5t76 -50.5t118 -47.5q78 -27 178 -48
q114 -18 257 -31q153 -13 336 -13t336 13q143 13 257 31q100 21 178 48q70 21 118 47.5t76 50.5t39 43.5t16 36.5l4 9v353zM549 558q-135 30 -235 65l139 331zM1734 623q-100 -35 -235 -65l96 396z" />
</svg>
