<?xml version="1.0" standalone="no"?>
<!DOCTYPE svg PUBLIC "-//W3C//DTD SVG 1.1//EN" "http://www.w3.org/Graphics/SVG/1.1/DTD/svg11.dtd" >
<svg xmlns="http://www.w3.org/2000/svg" xmlns:xlink="http://www.w3.org/1999/xlink" version="1.1" width="2048" height="2048" viewBox="-10 0 2058 2048">
   <path fill="currentColor"
d="M1444 327l-91 -101l222 -226h196zM1858 2047q-148 0 -279 -70q-126 70 -276.5 70t-280.5 -70q-126 70 -276.5 70t-276.5 -70q-140 79 -371 70v-187q109 4 192 -13q100 -22 179 -79q122 87 276.5 87t276.5 -87q126 87 280.5 87t276.5 -87q79 57 179 79q83 17 192 13v187
h-92zM1801 1050q-108 -44 -248 -13q-83 17 -248 78l-87 35l-157 -174h-261v-323q174 13 318 -30q165 -48 270 -161l-131 -131q-61 65 -148 100t-174 35h-279q-78 0 -135 54.5t-52 132.5v135q-5 153 0 231q8 127 43 179l144 274q-83 57 -139 109q69 70 165 85t187.5 -19.5
t152.5 -113.5q70 83 170 120t196 6q126 -87 222 -165q157 -135 218 -240q74 -135 -27 -204zM974 1272q-113 61 -153 87l-78 -187l231 -9l65 70zM656 0q-78 0 -132.5 54.5t-54.5 133t54.5 133t130.5 54.5t130.5 -54.5t54.5 -133t-54.5 -133t-128.5 -54.5z" />
</svg>
