<?xml version="1.0" standalone="no"?>
<!DOCTYPE svg PUBLIC "-//W3C//DTD SVG 1.1//EN" "http://www.w3.org/Graphics/SVG/1.1/DTD/svg11.dtd" >
<svg xmlns="http://www.w3.org/2000/svg" xmlns:xlink="http://www.w3.org/1999/xlink" version="1.1" width="2048" height="2048" viewBox="-10 0 2068 2048">
   <path fill="currentColor"
d="M1279 1024q0 -106 -74.5 -180.5t-180.5 -74.5t-180.5 74.5t-74.5 180.5q0 77 38.5 137t105.5 94l-115 110q-82 -53 -132.5 -144t-50.5 -197q0 -168 120.5 -288.5t288.5 -120.5t288.5 120.5t120.5 288.5q0 106 -50.5 197t-132.5 144l-115 -110q67 -34 105.5 -94t38.5 -137
zM1024 0q-279 0 -514.5 137t-372.5 372.5t-137 514.5q0 231 96 435t265 349l110 -111q-149 -120 -233 -298t-84 -375q0 -236 115.5 -437.5t317 -317t437.5 -115.5t437.5 115.5t317 317t115.5 437.5q0 197 -84 375t-233 298l110 111q169 -145 265 -349t96 -435
q0 -279 -137 -514.5t-372.5 -372.5t-514.5 -137zM1740 1024q0 -197 -96 -360.5t-259.5 -259.5t-360.5 -96t-360.5 96t-259.5 259.5t-96 360.5q0 168 72 315t202 247l110 -105q-110 -82 -170 -200t-60 -257q0 -154 74.5 -283.5t204 -204t283.5 -74.5t283.5 74.5t204 204
t74.5 283.5q0 139 -60 257t-170 200l110 105q130 -100 202 -247t72 -315zM409 2048h1230l-615 -615z" />
</svg>
