<?xml version="1.0" standalone="no"?>
<!DOCTYPE svg PUBLIC "-//W3C//DTD SVG 1.1//EN" "http://www.w3.org/Graphics/SVG/1.1/DTD/svg11.dtd" >
<svg xmlns="http://www.w3.org/2000/svg" xmlns:xlink="http://www.w3.org/1999/xlink" version="1.1" width="2048" height="2048" viewBox="-10 0 2068 2048">
   <path fill="currentColor"
d="M1755 389h-1755v-389h1755v389zM1413 974h-147v489l352 210l73 -119l-278 -164v-416zM2048 1362q0 188 -91.5 345.5t-249 249t-345.5 91.5q-169 0 -315 -80t-242 -213h-709v-1270h1559v265q178 82 285.5 246.5t107.5 365.5zM585 974h220q86 -124 210 -197h-384
q-18 0 -32 16t-14 34v147zM1851 1362q0 -132 -66 -244t-178 -176t-244.5 -64t-244.5 64t-176 176t-64 244.5t64 244.5t176 178t244.5 66t244.5 -66t178 -178t66 -245z" />
</svg>
