<?xml version="1.0" standalone="no"?>
<!DOCTYPE svg PUBLIC "-//W3C//DTD SVG 1.1//EN" "http://www.w3.org/Graphics/SVG/1.1/DTD/svg11.dtd" >
<svg xmlns="http://www.w3.org/2000/svg" xmlns:xlink="http://www.w3.org/1999/xlink" version="1.1" width="2048" height="2048" viewBox="-10 0 2068 2048">
   <path fill="currentColor"
d="M1590 1050l135 589l-514 -314l-519 314l135 -589l-454 -397l602 -52l236 -554l235 554l602 52zM94 1111q26 0 48 -13l301 -196l-148 -127l-253 166q-31 22 -39.5 59t13.5 72q30 39 78 39zM16 1962q26 39 78 39q26 0 48 -13l384 -253l30 -127l31 -135l-545 358
q-31 22 -39.5 59t13.5 72zM42 1386q-31 22 -39.5 59t13.5 72q26 39 78 39q26 0 48 -13l506 -331l26 -109l-87 -79z" />
</svg>
