<?xml version="1.0" standalone="no"?>
<!DOCTYPE svg PUBLIC "-//W3C//DTD SVG 1.1//EN" "http://www.w3.org/Graphics/SVG/1.1/DTD/svg11.dtd" >
<svg xmlns="http://www.w3.org/2000/svg" xmlns:xlink="http://www.w3.org/1999/xlink" version="1.1" width="2048" height="2048" viewBox="-10 0 2058 2048">
   <path fill="currentColor"
d="M1434 1343v-523h360v-307h-1641v1329h926q-5 -15 -5 -53q0 -163 103.5 -287.5t256.5 -158.5zM667 1022v-154q0 -19 14 -33.5t38 -14.5h509q24 0 38.5 14.5t14.5 33.5v154h-614zM1895 408h-1842v-408h1842v408zM1995 1022v206h-201v561q0 106 -77 182.5t-182.5 76.5
t-179.5 -76.5t-74 -182.5t74 -180t180 -74q57 0 105 19v-532h355z" />
</svg>
