<?xml version="1.0" standalone="no"?>
<!DOCTYPE svg PUBLIC "-//W3C//DTD SVG 1.1//EN" "http://www.w3.org/Graphics/SVG/1.1/DTD/svg11.dtd" >
<svg xmlns="http://www.w3.org/2000/svg" xmlns:xlink="http://www.w3.org/1999/xlink" version="1.1" width="2048" height="2048" viewBox="-10 0 2065 2048">
   <path fill="currentColor"
d="M1758 389h-1755v-389h1755v389zM881 1559q0 100 27 196h-809v-1266h1563v398q-54 -9 -100 -9q-183 0 -340.5 91.5t-249 249t-91.5 340.5zM1173 974v-147q0 -18 -13.5 -31.5t-36.5 -13.5h-485q-22 0 -36 13.5t-14 31.5v147h585zM2033 1696q4 0 4 7t-4 11l-101 169
q-9 10 -27 10l-119 -42l-78 51l-18 128q0 4 -7 11t-11 7h-197q-9 0 -27 -18l-23 -128q-41 -14 -78 -51l-114 51q-19 0 -32 -9l-96 -165q-9 -14 9 -32l110 -78v-96l-110 -77q-9 -10 -9 -32l96 -165q13 -9 32 -9l114 50l78 -50l23 -128q0 -18 27 -18h197q4 0 11 6.5t7 11.5
l18 128q32 9 92 50l114 -50q32 0 32 9l96 165q9 9 -9 32l-110 77v96zM1708 1559q0 -55 -43.5 -100.5t-100.5 -45.5t-102.5 45.5t-45.5 102.5t45.5 100.5t102.5 43.5t100.5 -43.5t43.5 -102.5z" />
</svg>
