<?xml version="1.0" standalone="no"?>
<!DOCTYPE svg PUBLIC "-//W3C//DTD SVG 1.1//EN" "http://www.w3.org/Graphics/SVG/1.1/DTD/svg11.dtd" >
<svg xmlns="http://www.w3.org/2000/svg" xmlns:xlink="http://www.w3.org/1999/xlink" version="1.1" width="2048" height="2048" viewBox="-10 0 2068 2048">
   <path fill="currentColor"
d="M1022 1739q0 105 38 206h-959v-1127h206v921h715zM1636 1125q43 0 105 9v-316h-206v316q62 -9 101 -9zM667 923q-24 0 -38.5 14.5t-14.5 33.5v154h614v-154q0 -19 -14.5 -33.5t-38.5 -14.5h-508zM1842 717h-1842v-614h1842v614zM1636 309h-1430v202h1430v-202zM1228 1638
v206h820v-206h-820z" />
</svg>
