<?xml version="1.0" standalone="no"?>
<!DOCTYPE svg PUBLIC "-//W3C//DTD SVG 1.1//EN" "http://www.w3.org/Graphics/SVG/1.1/DTD/svg11.dtd" >
<svg xmlns="http://www.w3.org/2000/svg" xmlns:xlink="http://www.w3.org/1999/xlink" version="1.1" width="2048" height="2048" viewBox="-10 0 2068 2048">
   <path fill="currentColor"
d="M1535 988v-221h206v34q-38 19 -62 43zM667 873q-24 0 -38.5 14.5t-14.5 33.5v153h614v-153q0 -19 -14.5 -33.5t-38.5 -14.5h-508zM307 767h-206v1128h719v-192l10 -15h-523v-921zM1842 667h-1842v-614h1842v614zM1636 259h-1430v201h1430v-201zM1022 1789v206h211
l628 -623l-211 -211zM2029 1122l-134 -134q-15 -14 -36.5 -14t-35.5 14l-101 101l211 211l96 -101q19 -14 19 -35.5t-19 -41.5z" />
</svg>
