<?xml version="1.0" standalone="no"?>
<!DOCTYPE svg PUBLIC "-//W3C//DTD SVG 1.1//EN" "http://www.w3.org/Graphics/SVG/1.1/DTD/svg11.dtd" >
<svg xmlns="http://www.w3.org/2000/svg" xmlns:xlink="http://www.w3.org/1999/xlink" version="1.1" width="2048" height="2048" viewBox="-10 0 2068 2048">
   <path fill="currentColor"
d="M1942 430h-1942v-430h1942v430zM1148 1077h-501v-162q0 -20 15.5 -35t40.5 -15h536q40 0 50 35q167 -147 385 -147q76 0 162 26v-238h-1730v1401h1209q-238 -349 -238 -592q0 -141 71 -273zM2048 1350q0 172 -187 455q-96 142 -187 243l-101 -116q-112 -147 -182 -278
q-96 -182 -96 -304q0 -157 111 -268t265.5 -111t265.5 111t111 268zM1800 1360q0 -50 -40.5 -90.5t-88.5 -40.5t-88.5 38t-40.5 91t38 91t93.5 38t96 -40.5t30.5 -86.5z" />
</svg>
