<?xml version="1.0" standalone="no"?>
<!DOCTYPE svg PUBLIC "-//W3C//DTD SVG 1.1//EN" "http://www.w3.org/Graphics/SVG/1.1/DTD/svg11.dtd" >
<svg xmlns="http://www.w3.org/2000/svg" xmlns:xlink="http://www.w3.org/1999/xlink" version="1.1" width="2048" height="2048" viewBox="-10 0 2068 2048">
   <path fill="currentColor"
d="M1741 801v-235h-1640v1329h719v-192l859 -859q24 -24 62 -43zM1228 1074h-614v-153q0 -19 14.5 -33.5t38.5 -14.5h508q24 0 38.5 14.5t14.5 33.5v153zM1842 460h-1842v-407h1842v407zM2029 1199l-96 101l-211 -211l101 -101q14 -14 35.5 -14t36.5 14l134 134
q19 20 19 41.5t-19 35.5zM1650 1161l211 211l-628 623h-211v-206z" />
</svg>
