<?xml version="1.0" standalone="no"?>
<!DOCTYPE svg PUBLIC "-//W3C//DTD SVG 1.1//EN" "http://www.w3.org/Graphics/SVG/1.1/DTD/svg11.dtd" >
<svg xmlns="http://www.w3.org/2000/svg" xmlns:xlink="http://www.w3.org/1999/xlink" version="1.1" width="2048" height="2048" viewBox="-10 0 2065 2048">
   <path fill="currentColor"
d="M1466 887v-206h196v206q-54 -9 -100 -9t-96 9zM638 782q-22 0 -36 13.5t-14 31.5v147h585v-147q0 -18 -13.5 -31.5t-36.5 -13.5h-485zM296 1559v-878h-197v1074h809q-27 -96 -27 -196h-585zM1758 585h-1755v-585h1755v585zM1562 197h-1362v192h1362v-192zM2033 1696
q4 0 4 7t-4 11l-101 169q-9 10 -27 10l-119 -42l-78 51l-18 128q0 4 -7 11t-11 7h-197q-9 0 -27 -18l-23 -128q-41 -14 -78 -51l-114 51q-19 0 -32 -9l-96 -165q-9 -14 9 -32l110 -78v-96l-110 -77q-9 -10 -9 -32l96 -165q13 -9 32 -9l114 50l78 -50l23 -128q0 -18 27 -18
h197q4 0 11 6.5t7 11.5l18 128q32 9 92 50l114 -50q32 0 32 9l96 165q9 9 -9 32l-110 77v96zM1708 1559q0 -55 -43.5 -100.5t-100.5 -45.5t-102.5 45.5t-45.5 102.5t45.5 100.5t102.5 43.5t100.5 -43.5t43.5 -102.5z" />
</svg>
