<?xml version="1.0" standalone="no"?>
<!DOCTYPE svg PUBLIC "-//W3C//DTD SVG 1.1//EN" "http://www.w3.org/Graphics/SVG/1.1/DTD/svg11.dtd" >
<svg xmlns="http://www.w3.org/2000/svg" xmlns:xlink="http://www.w3.org/1999/xlink" version="1.1" width="2048" height="2048" viewBox="-10 0 2068 2048">
   <path fill="currentColor"
d="M1175 873q29 0 43 19q-53 86 -67 182h-537v-153q0 -19 14.5 -33.5t38.5 -14.5h508zM1022 1688h-715v-921h-206v1128h925q-4 -10 -4 -29v-178zM1842 667h-1842v-614h1842v614zM1636 259h-1430v201h1430v-201zM1923 1381h-441v-254q0 -57 45.5 -95.5t110.5 -38.5t108 38.5
t43 95.5v53h134v-53q0 -105 -88.5 -179.5t-199 -74.5t-196.5 74.5t-86 179.5v254q-48 0 -86.5 38.5t-38.5 86.5v360q0 52 38.5 90.5t86.5 38.5h561q52 0 93 -36t41 -84v-359q0 -53 -38.5 -94t-86.5 -41z" />
</svg>
