<?xml version="1.0" standalone="no"?>
<!DOCTYPE svg PUBLIC "-//W3C//DTD SVG 1.1//EN" "http://www.w3.org/Graphics/SVG/1.1/DTD/svg11.dtd" >
<svg xmlns="http://www.w3.org/2000/svg" xmlns:xlink="http://www.w3.org/1999/xlink" version="1.1" width="2048" height="2048" viewBox="-10 0 2068 2048">
   <path fill="currentColor"
d="M1535 1053v-317h206v317q-62 -10 -103 -10t-103 10zM667 842q-24 0 -38.5 14.5t-14.5 33.5v153h614v-153q0 -19 -14.5 -33.5t-38.5 -14.5h-508zM307 1657v-921h-206v1127h959q-38 -100 -38 -206h-715zM1842 636h-1842v-614h1842v614zM1636 228h-1430v201h1430v-201z
M2048 1547l-297 -29l-115 -269l-116 269l-292 29l225 192l-72 287l255 -153l254 153l-67 -287z" />
</svg>
