<?xml version="1.0" standalone="no"?>
<!DOCTYPE svg PUBLIC "-//W3C//DTD SVG 1.1//EN" "http://www.w3.org/Graphics/SVG/1.1/DTD/svg11.dtd" >
<svg xmlns="http://www.w3.org/2000/svg" xmlns:xlink="http://www.w3.org/1999/xlink" version="1.1" width="2048" height="2048" viewBox="-10 0 2068 2048">
   <path fill="currentColor"
d="M1842 429h-1842v-407h1842v407zM1022 1657q0 106 38 206h-959v-1328h1640v518q-62 -10 -105 -10q-164 0 -305.5 84t-225 225.5t-83.5 304.5zM1228 1043v-153q0 -19 -14.5 -33.5t-38.5 -14.5h-508q-24 0 -38.5 14.5t-14.5 33.5v153h614zM2048 1547l-297 -29l-115 -269
l-116 269l-292 29l225 192l-72 287l255 -153l254 153l-67 -287z" />
</svg>
