<?xml version="1.0" standalone="no"?>
<!DOCTYPE svg PUBLIC "-//W3C//DTD SVG 1.1//EN" "http://www.w3.org/Graphics/SVG/1.1/DTD/svg11.dtd" >
<svg xmlns="http://www.w3.org/2000/svg" xmlns:xlink="http://www.w3.org/1999/xlink" version="1.1" width="2048" height="2048" viewBox="-10 0 2068 2048">
   <path fill="currentColor"
d="M1886 417h-1886v-417h1886v417zM1046 1675q0 108 39 211h-982v-1360h1680v530q-64 -10 -108 -10q-167 0 -312 86t-231 231t-86 312zM1257 1046v-157q0 -20 -14.5 -34.5t-39.5 -14.5h-520q-25 0 -39.5 14.5t-14.5 34.5v157h628zM2048 1454l-147 -148l-226 221l-221 -221
l-148 148l221 221l-221 226l148 147l221 -226l226 226l147 -147l-226 -226z" />
</svg>
