<?xml version="1.0" standalone="no"?>
<!DOCTYPE svg PUBLIC "-//W3C//DTD SVG 1.1//EN" "http://www.w3.org/Graphics/SVG/1.1/DTD/svg11.dtd" >
<svg xmlns="http://www.w3.org/2000/svg" xmlns:xlink="http://www.w3.org/1999/xlink" version="1.1" width="2048" height="2048" viewBox="-10 0 2058 2048">
   <path fill="currentColor"
d="M186 0v559h1676v-559h-1676zM1675 371h-1302v-188h1302v188zM1583 651h188v1026h-1494v-1026h188v838h1118v-838zM1303 790v140h-558v-140q0 -17 13 -32.5t35 -15.5h462q22 0 35 15.5t13 32.5zM557 1860h188v188h-188v-188zM932 1860h184v188h-184v-188zM1303 1860h188
v188h-188v-188z" />
</svg>
