<?xml version="1.0" standalone="no"?>
<!DOCTYPE svg PUBLIC "-//W3C//DTD SVG 1.1//EN" "http://www.w3.org/Graphics/SVG/1.1/DTD/svg11.dtd" >
<svg xmlns="http://www.w3.org/2000/svg" xmlns:xlink="http://www.w3.org/1999/xlink" version="1.1" width="2048" height="2048" viewBox="-10 0 2068 2048">
   <path fill="currentColor"
d="M1055 811q-58 36 -107.5 87.5t-85.5 105.5h-287v-144q0 -18 13.5 -33.5t31.5 -15.5h435zM1725 622h-1725v-575h1725v575zM1532 236h-1343v193h1343v-193zM287 1579v-863h-193v1056h845q-81 -86 -126 -193h-526zM2048 1866l-135 135l-296 -297q-108 68 -229 68
q-180 0 -305.5 -126t-125.5 -305.5t125.5 -305.5t305 -126t305.5 126t126 306q0 125 -67 229zM1626 1341q0 -99 -69.5 -171t-168.5 -72t-168.5 72t-69.5 170.5t69.5 168.5t168.5 70t168.5 -70t69.5 -168z" />
</svg>
