<?xml version="1.0" standalone="no"?>
<!DOCTYPE svg PUBLIC "-//W3C//DTD SVG 1.1//EN" "http://www.w3.org/Graphics/SVG/1.1/DTD/svg11.dtd" >
<svg xmlns="http://www.w3.org/2000/svg" xmlns:xlink="http://www.w3.org/1999/xlink" version="1.1" width="2048" height="2048" viewBox="-10 0 2068 2048">
   <path fill="currentColor"
d="M1842 408h-1842v-408h1842v408zM1022 1636q0 105 38 206h-959v-1329h1640v518q-62 -9 -105 -9q-164 0 -305.5 83.5t-225 225t-83.5 305.5zM1228 1022v-154q0 -19 -14.5 -33.5t-38.5 -14.5h-508q-24 0 -38.5 14.5t-14.5 33.5v154h614zM1741 1535v-307h-206v307h-307v206
h307v307h206v-307h307v-206h-307z" />
</svg>
