<?xml version="1.0" standalone="no"?>
<!DOCTYPE svg PUBLIC "-//W3C//DTD SVG 1.1//EN" "http://www.w3.org/Graphics/SVG/1.1/DTD/svg11.dtd" >
<svg xmlns="http://www.w3.org/2000/svg" xmlns:xlink="http://www.w3.org/1999/xlink" version="1.1" width="2048" height="2048" viewBox="-10 0 2068 2048">
   <path fill="currentColor"
d="M1535 1031v-316h206v316q-62 -9 -103 -9t-103 9zM667 820q-24 0 -38.5 14.5t-14.5 33.5v154h614v-154q0 -19 -14.5 -33.5t-38.5 -14.5h-508zM1842 614h-1842v-614h1842v614zM1636 206h-1430v202h1430v-202zM307 1636v-921h-206v1127h959q-38 -101 -38 -206h-715z
M1741 1535v-307h-206v307h-307v206h307v307h206v-307h307v-206h-307z" />
</svg>
