<?xml version="1.0" standalone="no"?>
<!DOCTYPE svg PUBLIC "-//W3C//DTD SVG 1.1//EN" "http://www.w3.org/Graphics/SVG/1.1/DTD/svg11.dtd" >
<svg xmlns="http://www.w3.org/2000/svg" xmlns:xlink="http://www.w3.org/1999/xlink" version="1.1" width="2048" height="2048" viewBox="-10 0 2068 2048">
   <path fill="currentColor"
d="M1898 675h-1800l10 -61q14 -80 47 -150q51 -103 136 -178q112 -94 267 -150q187 -61 440 -61t441 61q154 56 267 150q84 75 136 178q33 70 47 150zM1134 1476h-1036v99q0 126 87 213t213 87h736q-37 -99 -37 -199.5t37 -199.5zM1982 1148q14 -37 14 -75q0 -79 -58.5 -138
t-137.5 -59h-900l-253 197l-249 -197h-201q-80 0 -138.5 59t-58.5 141t58.5 140.5t138.5 58.5h1054q85 -94 202 -148t244 -54q154 0 285 75zM1931 1359l-356 361l-160 -159l-117 112l277 300l473 -473z" />
</svg>
