<?xml version="1.0" standalone="no"?>
<!DOCTYPE svg PUBLIC "-//W3C//DTD SVG 1.1//EN" "http://www.w3.org/Graphics/SVG/1.1/DTD/svg11.dtd" >
<svg xmlns="http://www.w3.org/2000/svg" xmlns:xlink="http://www.w3.org/1999/xlink" version="1.1" width="2048" height="2048" viewBox="-10 0 2068 2048">
   <path fill="currentColor"
d="M1894 648h-1796l10 -61q14 -80 46 -150q52 -103 136 -177q112 -94 266 -150q187 -61 439.5 -61t439.5 61q155 56 267 150q84 74 136 177q32 70 46 150zM1132 1447h-1034v98q0 127 86.5 213.5t212.5 86.5h735q-38 -99 -38 -199.5t38 -198.5zM1978 1120q14 -38 14 -75
q0 -79 -58.5 -137.5t-137.5 -58.5h-898l-253 196l-248 -196h-201q-79 0 -137.5 58.5t-58.5 140t58.5 140t137.5 58.5h1052q85 -93 201.5 -147t243.5 -54q154 0 285 75zM2048 1433l-140 -140l-215 210l-211 -210l-140 140l210 211l-210 215l140 140l211 -215l215 215
l140 -140l-215 -215z" />
</svg>
