<?xml version="1.0" standalone="no"?>
<!DOCTYPE svg PUBLIC "-//W3C//DTD SVG 1.1//EN" "http://www.w3.org/Graphics/SVG/1.1/DTD/svg11.dtd" >
<svg xmlns="http://www.w3.org/2000/svg" xmlns:xlink="http://www.w3.org/1999/xlink" version="1.1" width="2048" height="2048" viewBox="-10 0 2058 2048">
   <path fill="currentColor"
d="M308 1846l615 -615l106 105q14 -144 91 -261.5t202 -187.5t269 -70q72 0 154 24v-226l-615 -615h-822q-87 0 -147 60t-60 142v1644q0 82 60 142t147 60h1014q-91 -125 -139 -202h-875zM1024 154l567 562h-567v-562zM514 716q82 0 142 60.5t60 144.5t-60 144t-144 60
t-144 -60t-60 -144t60 -144.5t146 -60.5zM1591 1024q-149 0 -254.5 106t-105.5 255q0 115 91 288q67 125 173 264l96 111l92 -111q105 -139 173 -264q91 -173 91 -288q0 -149 -105.5 -255t-250.5 -106zM1591 1514q-53 0 -89 -36t-36 -86.5t38.5 -86.5t84.5 -36t84 38.5
t43 84t-33.5 84t-91.5 38.5z" />
</svg>
