<?xml version="1.0" standalone="no"?>
<!DOCTYPE svg PUBLIC "-//W3C//DTD SVG 1.1//EN" "http://www.w3.org/Graphics/SVG/1.1/DTD/svg11.dtd" >
<svg xmlns="http://www.w3.org/2000/svg" xmlns:xlink="http://www.w3.org/1999/xlink" version="1.1" width="2048" height="2048" viewBox="-10 0 2058 2048">
   <path fill="currentColor"
d="M562 1024q-62 0 -107.5 -45.5t-45.5 -108t45.5 -108.5t110.5 -46t108 46t43 108.5t-43 108t-111 45.5zM1130 1740q-106 -202 -106 -355q0 -34 5 -49l-106 -105l-514 509h721zM308 1846v-1644h716v514h514v106q20 -5 53 -5q72 0 154 24v-226l-615 -615h-822q-87 0 -147 60
t-60 142v1644q0 82 60 142t147 60h1014q-91 -125 -139 -202h-875zM1947 1385q0 163 -178 432q-91 135 -178 231l-96 -111q-106 -139 -173 -264q-91 -173 -91 -288q0 -149 105.5 -255t252.5 -106t252.5 106t105.5 255zM1711 1394q0 -48 -38 -86.5t-84 -38.5t-84.5 36
t-38.5 86.5t36 86.5t89 36t91.5 -38.5t28.5 -81.5z" />
</svg>
