<?xml version="1.0" standalone="no"?>
<!DOCTYPE svg PUBLIC "-//W3C//DTD SVG 1.1//EN" "http://www.w3.org/Graphics/SVG/1.1/DTD/svg11.dtd" >
<svg xmlns="http://www.w3.org/2000/svg" xmlns:xlink="http://www.w3.org/1999/xlink" version="1.1" width="2048" height="2048" viewBox="-10 0 2068 2048">
   <path fill="currentColor"
d="M1535 839v-124h206v105h-53q-72 0 -153 19zM1228 868q0 -19 -14.5 -33.5t-38.5 -14.5h-508q-24 0 -38.5 14.5t-14.5 33.5v154h595l19 -20v-134zM307 1636v-921h-206v1127h1026q-57 -96 -86 -206h-734zM1842 614h-1842v-614h1842v614zM1636 206h-1430v202h1430v-202z
M1636 1074v-153l-231 230l231 230v-153q105 0 182 74.5t77 179.5q0 62 -29 115l110 110q72 -100 72 -225q0 -168 -120 -288t-292 -120zM1636 1741q-106 0 -180.5 -76.5t-74.5 -182.5q0 -58 29 -115l-115 -110q-67 105 -67 225q0 173 120 293t288 120v153l230 -230l-230 -230
v153z" />
</svg>
