<?xml version="1.0" standalone="no"?>
<!DOCTYPE svg PUBLIC "-//W3C//DTD SVG 1.1//EN" "http://www.w3.org/Graphics/SVG/1.1/DTD/svg11.dtd" >
<svg xmlns="http://www.w3.org/2000/svg" xmlns:xlink="http://www.w3.org/1999/xlink" version="1.1" width="2048" height="2048" viewBox="-10 0 2058 2048">
   <path fill="currentColor"
d="M1183 1846q48 77 139 202h-1014q-87 0 -147 -60t-60 -142v-1644q0 -82 60 -142t147 -60h822l615 615v226q-82 -24 -154 -24q-33 0 -53 5v-106h-514v-514h-716v1644h875zM1947 1385q0 163 -178 432q-91 135 -178 231l-96 -111q-106 -139 -173 -264q-91 -173 -91 -288
q0 -149 105.5 -255t252.5 -106t252.5 106t105.5 255zM1711 1394q0 -48 -38 -86.5t-84 -38.5t-84.5 36t-38.5 86.5t36 86.5t89 36t91.5 -38.5t28.5 -81.5z" />
</svg>
