<?xml version="1.0" standalone="no"?>
<!DOCTYPE svg PUBLIC "-//W3C//DTD SVG 1.1//EN" "http://www.w3.org/Graphics/SVG/1.1/DTD/svg11.dtd" >
<svg xmlns="http://www.w3.org/2000/svg" xmlns:xlink="http://www.w3.org/1999/xlink" version="1.1" width="2048" height="2048" viewBox="-10 0 2068 2048">
   <path fill="currentColor"
d="M1925 2048l-819 -818l-59 68l-274 -274l68 -69l-841 -827l128 -128l1920 1925zM576 1202q-123 0 -208 82.5t-85 210.5q0 87 -68 142q-60 50 -124 50q64 91 171.5 143.5t217.5 52.5q160 0 274.5 -114t114.5 -274q0 -128 -82.5 -210.5t-210.5 -82.5zM1915 421
q28 -28 28 -67t-28 -71l-128 -128q-32 -27 -70.5 -27t-66.5 27l-567 558l275 274z" />
</svg>
