<?xml version="1.0" standalone="no"?>
<!DOCTYPE svg PUBLIC "-//W3C//DTD SVG 1.1//EN" "http://www.w3.org/Graphics/SVG/1.1/DTD/svg11.dtd" >
<svg xmlns="http://www.w3.org/2000/svg" xmlns:xlink="http://www.w3.org/1999/xlink" version="1.1" width="2048" height="2048" viewBox="-10 0 2068 2048">
   <path fill="currentColor"
d="M1188 1724q51 107 127 218h-1098q-91 0 -154 -63.5t-63 -154.5v-1507q0 -91 63 -154t154 -63h1507q91 0 154.5 63t63.5 154v607q-101 -55 -218 -65v-542h-1507v1507h971zM1183 1001l-298 385l-212 -258l-294 384h723q-25 -91 -25 -162q0 -182 111 -339zM2048 1350
q0 172 -187 455q-96 142 -187 243l-101 -116q-112 -147 -182 -278q-96 -182 -96 -304q0 -157 111 -268t265.5 -111t265.5 111t111 268zM1800 1360q0 -50 -40.5 -90.5t-88.5 -40.5t-88.5 38t-40.5 91t38 91t93.5 38t96 -40.5t30.5 -86.5z" />
</svg>
