<?xml version="1.0" standalone="no"?>
<!DOCTYPE svg PUBLIC "-//W3C//DTD SVG 1.1//EN" "http://www.w3.org/Graphics/SVG/1.1/DTD/svg11.dtd" >
<svg xmlns="http://www.w3.org/2000/svg" xmlns:xlink="http://www.w3.org/1999/xlink" version="1.1" width="2048" height="2048" viewBox="-10 0 2068 2048">
   <path fill="currentColor"
d="M1842 767v-100l-614 -614h-1022q-86 0 -146 60t-60 146v1429q0 87 60 147t146 60h614v-192l859 -859q62 -67 163 -77zM1127 206l561 561h-561v-561zM2029 1199l-96 101l-211 -211l101 -101q14 -14 35.5 -14t36.5 14l134 134q19 20 19 41.5t-19 35.5zM1650 1161l211 211
l-628 623h-211v-206z" />
</svg>
