<?xml version="1.0" standalone="no"?>
<!DOCTYPE svg PUBLIC "-//W3C//DTD SVG 1.1//EN" "http://www.w3.org/Graphics/SVG/1.1/DTD/svg11.dtd" >
<svg xmlns="http://www.w3.org/2000/svg" xmlns:xlink="http://www.w3.org/1999/xlink" version="1.1" width="2048" height="2048" viewBox="-10 0 2058 2048">
   <path fill="currentColor"
d="M1882 1495q-51 156 -152 308q-158 242 -316 242q-58 0 -172 -40q-104 -39 -187 -39q-75 0 -174 40q-102 42 -163 42q-188 0 -371 -319q-181 -321 -181 -619q0 -281 139 -460q139 -178 351 -178q86 0 217 38q126 36 170 36q55 0 176 -42q126 -42 213 -42q145 0 262 81
q63 42 128 123q-98 83 -140 145q-79 116 -79 254q0 156 84 275q85 121 195 155zM1418 52q0 76 -35 167q-38 94 -114 170q-65 65 -134 88q-40 13 -127 21q3 -183 96 -316q91 -132 307 -182q1 5 3.5 14t2.5 13t0.5 12t0.5 13z" />
</svg>
