<?xml version="1.0" standalone="no"?>
<!DOCTYPE svg PUBLIC "-//W3C//DTD SVG 1.1//EN" "http://www.w3.org/Graphics/SVG/1.1/DTD/svg11.dtd" >
<svg xmlns="http://www.w3.org/2000/svg" xmlns:xlink="http://www.w3.org/1999/xlink" version="1.1" width="2048" height="2048" viewBox="-10 0 2068 2048">
   <path fill="currentColor"
d="M1413 946q0 -55 -14 -164v-5h329q14 55 18 101q110 9 201 45q-13 -251 -145.5 -463.5t-352 -336t-480 -123.5t-484.5 130.5t-354.5 354.5t-130.5 489t130.5 489t354.5 354t489 130q123 0 242 -32q-119 -146 -142 -338q-50 96 -100 174q-128 -188 -188 -389h302
q27 -100 82 -192h-425q-14 -105 -14 -196.5t14 -196.5h457q14 114 14 197q0 64 -9 146q82 -110 206 -174zM219 1170q-27 -105 -27 -196.5t27 -196.5h330q-14 114 -14 196.5t14 196.5h-330zM297 1362h288q55 197 137 348q-137 -46 -244.5 -135t-180.5 -213zM585 585h-288
q73 -123 180.5 -212.5t244.5 -134.5q-82 151 -137 347zM786 585q60 -201 188 -388q128 187 187 388h-375zM1650 585h-288q-50 -187 -137 -347q137 45 244.5 134.5t180.5 212.5zM2048 1509q0 118 -69 214l-105 -105q28 -50 28 -109q0 -101 -73.5 -172t-173.5 -71v147
l-220 -220l220 -219v146q164 0 278.5 114.5t114.5 274.5zM1655 1609l219 220l-219 219v-146q-160 0 -274.5 -114.5t-114.5 -278.5q0 -115 64 -215l110 105q-27 55 -27 110q0 100 70.5 173t171.5 73v-146z" />
</svg>
