<?xml version="1.0" standalone="no"?>
<!DOCTYPE svg PUBLIC "-//W3C//DTD SVG 1.1//EN" "http://www.w3.org/Graphics/SVG/1.1/DTD/svg11.dtd" >
<svg xmlns="http://www.w3.org/2000/svg" xmlns:xlink="http://www.w3.org/1999/xlink" version="1.1" width="2048" height="2048" viewBox="-10 0 2068 2048">
   <path fill="currentColor"
d="M1538 1740v308h-206v-308q0 -81 -60.5 -141.5t-146.5 -60.5h-308q-139 0 -257 -69.5t-185 -187.5t-67 -257q0 -173 110 -317q-178 -34 -298 -176t-120 -329q0 -82 38 -202h246q-82 82 -82 209.5t89 214t219 86.5h307v206q-130 0 -218.5 89t-88.5 219t88.5 219t218.5 89
h308q173 0 293 120t120 288zM1630 707q178 -34 298 -176t120 -329q0 -82 -38 -202h-246q82 82 82 209.5t-89 214t-219 86.5h-125q20 62 20 105q0 130 -86.5 219t-221.5 89v202q144 0 262 69.5t185 187.5t67 257v409h207v-409q0 -206 -105.5 -374.5t-283.5 -259.5
q139 -111 173 -298z" />
</svg>
