<?xml version="1.0" standalone="no"?>
<!DOCTYPE svg PUBLIC "-//W3C//DTD SVG 1.1//EN" "http://www.w3.org/Graphics/SVG/1.1/DTD/svg11.dtd" >
<svg xmlns="http://www.w3.org/2000/svg" xmlns:xlink="http://www.w3.org/1999/xlink" version="1.1" width="2048" height="2048" viewBox="-10 0 2068 2048">
   <path fill="currentColor"
d="M1303 1120q0 118 -80.5 198.5t-198.5 80.5t-198.5 -80.5t-80.5 -196t80.5 -198.5t198.5 -83t198.5 83t80.5 196zM745 92v91q0 78 54.5 132.5t132.5 54.5v379q48 -8 92 -8t92 8v-379q78 0 132.5 -54.5t54.5 -132.5v-91h-558zM279 937q-113 0 -196 80.5t-83 196t83 198.5
t198.5 83t196 -83t80.5 -198.5t-80.5 -196t-198.5 -80.5zM1769 937q-118 0 -198.5 80.5t-80.5 196t80.5 198.5t196 83t198.5 -83t83 -198.5t-83 -196t-196 -80.5zM1769 1586q-96 0 -179 -35q-74 35 -148 35t-141.5 -32.5t-110.5 -89.5q-74 31 -166 31t-166 -31
q-43 57 -110.5 89.5t-141.5 32.5t-148 -35q-83 35 -179 35q-31 0 -74 -9q74 92 178.5 144t222.5 52q183 0 326 -117v209q0 39 26.5 65t65.5 26t65.5 -26t26.5 -65v-209q143 117 326 117q118 0 222.5 -52t178.5 -144q-43 9 -74 9z" />
</svg>
