<?xml version="1.0" standalone="no"?>
<!DOCTYPE svg PUBLIC "-//W3C//DTD SVG 1.1//EN" "http://www.w3.org/Graphics/SVG/1.1/DTD/svg11.dtd" >
<svg xmlns="http://www.w3.org/2000/svg" xmlns:xlink="http://www.w3.org/1999/xlink" version="1.1" width="2048" height="2048" viewBox="-10 0 2068 2048">
   <path fill="currentColor"
d="M1024 459q-279 0 -514.5 77t-372.5 207t-137 283.5t137 281t372.5 204.5t514.5 77t514.5 -77t372.5 -204.5t137 -281t-137 -283.5t-372.5 -207t-514.5 -77zM1486 767q0 24 -58 62.5t-154 67.5q-115 28 -250 28t-250 -28q-96 -29 -154 -67.5t-58 -58t44 -47.5
q192 -58 418 -58t418 58q44 28 44 43zM1024 1382q-236 0 -437 -58q-174 -52 -279.5 -136.5t-105.5 -161.5q0 -52 55 -112.5t156 -113.5q20 116 195.5 197.5t415.5 81.5t415.5 -81.5t195.5 -197.5q101 53 156 113.5t55 112.5q0 77 -105.5 161.5t-279.5 136.5q-201 58 -437 58
z" />
</svg>
