<?xml version="1.0" standalone="no"?>
<!DOCTYPE svg PUBLIC "-//W3C//DTD SVG 1.1//EN" "http://www.w3.org/Graphics/SVG/1.1/DTD/svg11.dtd" >
<svg xmlns="http://www.w3.org/2000/svg" xmlns:xlink="http://www.w3.org/1999/xlink" version="1.1" width="2048" height="2048" viewBox="-10 0 2058 2048">
   <path fill="currentColor"
d="M1207 1200h-417q-14 -108 -14 -202t14 -201h468q14 117 14 201q0 71 -9 146q94 -75 211 -113v-33q0 -84 -14 -201h337q28 107 28 201v19q99 23 193 80q4 -28 4 -99q0 -272 -133.5 -501.5t-363 -363t-501.5 -133.5t-501.5 133.5t-363 363t-133.5 501.5t133.5 501.5
t363 363t501.5 133.5q70 0 98 -4q-61 -103 -84 -221l-14 24q-131 -192 -192 -398h244q42 -108 131 -197zM1718 600h-296q-51 -192 -140 -356q140 47 250.5 138t185.5 218zM1024 202q131 192 192 398h-384q61 -206 192 -398zM251 1200q-28 -108 -28 -202t28 -201h337
q-14 117 -14 201.5t14 201.5h-337zM330 1397h296q56 201 140 356q-140 -47 -250.5 -138.5t-185.5 -217.5zM626 600h-296q75 -127 185.5 -218t250.5 -138q-84 154 -140 356zM1905 1364l117 -117v403h-398l178 -178q-75 -75 -178 -75t-176 75t-73 178t73 175.5t176 72.5
q61 0 112.5 -26t88.5 -72h169q-42 112 -143 180t-227 68q-164 0 -281 -117t-117 -283.5t117 -283.5t281 -117t281 117z" />
</svg>
