<?xml version="1.0" standalone="no"?>
<!DOCTYPE svg PUBLIC "-//W3C//DTD SVG 1.1//EN" "http://www.w3.org/Graphics/SVG/1.1/DTD/svg11.dtd" >
<svg xmlns="http://www.w3.org/2000/svg" xmlns:xlink="http://www.w3.org/1999/xlink" version="1.1" width="2048" height="2048" viewBox="-10 0 2058 2048">
   <path fill="currentColor"
d="M764 437q20 0 34 -14.5t14 -34t-14 -34t-34 -14.5q-19 0 -32.5 14.5t-13.5 34t13.5 34t32.5 14.5zM1284 437q19 0 32.5 -14.5t13.5 -34t-13.5 -34t-32.5 -14.5q-20 0 -34 14.5t-14 34t14 34t34 14.5zM285 663q51 0 87.5 36.5t36.5 88.5v530q0 52 -36 89.5t-88 37.5
q-53 0 -90.5 -37.5t-37.5 -89.5v-530q0 -52 37.5 -88.5t90.5 -36.5zM1589 686v820q0 57 -39 96t-95 39h-92v280q0 52 -37.5 89.5t-90 37.5t-89.5 -37.5t-37 -89.5v-280h-170v280q0 52 -37 89.5t-90 37.5q-51 0 -88.5 -37.5t-37.5 -89.5l-1 -280h-90q-57 0 -96.5 -39
t-39.5 -96v-820h1130zM1304 188q131 67 210 188t79 265h-1139q0 -144 79 -265t211 -188l-87 -162q-4 -6 -2 -13t9 -12q16 -6 24 8l89 163q117 -52 248 -52q129 0 246 52l90 -163q8 -13 23 -8q7 5 9 12t-2 13zM1891 788v530q0 52 -37.5 89.5t-90.5 37.5q-51 0 -87.5 -37.5
t-36.5 -89.5v-530q0 -53 36.5 -89t87.5 -36q53 0 90.5 36t37.5 89z" />
</svg>
