<?xml version="1.0" standalone="no"?>
<!DOCTYPE svg PUBLIC "-//W3C//DTD SVG 1.1//EN" "http://www.w3.org/Graphics/SVG/1.1/DTD/svg11.dtd" >
<svg xmlns="http://www.w3.org/2000/svg" xmlns:xlink="http://www.w3.org/1999/xlink" version="1.1" width="2048" height="2048" viewBox="-10 0 2068 2048">
   <path fill="currentColor"
d="M905 119v362h238v-362h-238zM170 419l-170 169l209 215l176 -169zM1878 419l-215 215l176 169l209 -215zM1709 1205q-46 119 -128 221t-195 164q-170 96 -362 96t-362 -96q-113 -62 -195 -164t-128 -221h1370zM1991 962h-1934q0 260 130 483.5t353.5 353.5t483.5 130
t483.5 -130t353.5 -353.5t130 -483.5z" />
</svg>
