<?xml version="1.0" standalone="no"?>
<!DOCTYPE svg PUBLIC "-//W3C//DTD SVG 1.1//EN" "http://www.w3.org/Graphics/SVG/1.1/DTD/svg11.dtd" >
<svg xmlns="http://www.w3.org/2000/svg" xmlns:xlink="http://www.w3.org/1999/xlink" version="1.1" width="2048" height="2048" viewBox="-10 0 2058 2048">
   <path fill="currentColor"
d="M904 469q-12 1 -17 12t-11 11q-7 1 -5 -8q3 -16 33 -15zM1003 485q-4 1 -12.5 -7t-20.5 -5q27 -12 36 2q5 7 -3 10zM602 973q-4 -1 -6.5 3.5t-5 14t-6.5 15.5q-3 6 -11 15q-9 13 -2 14q5 1 14.5 -8t14.5 -21q1 -2 2 -6q8 -24 0 -27zM1579 1384q0 -20 -63 -48
q14 -46 17 -84t-0.5 -63t-15.5 -76q-2 -12 -4 -19q-12 -54 -54 -116.5t-82 -86.5q27 21 65 95q42 78 62.5 162.5t-0.5 155.5q-12 46 -57 48q-23 3 -34 -6.5t-14.5 -33t-3.5 -50t-3 -69t-12 -80.5q-13 -55 -28 -94t-24.5 -53t-20.5 -25l-12 -12q-16 -70 -35.5 -117.5
t-33.5 -64t-27 -37.5t-18 -46q-3 -18 1 -40t8.5 -37t5 -29.5t-12 -24.5t-40.5 -16q-16 -3 -50 -20.5t-42 -18.5q-9 -1 -12.5 -29.5t9 -58t41.5 -30.5q22 -2 38 9t21.5 28t7.5 34.5t-4 28.5q-12 22 -2 30.5t34 0.5q11 -3 14 -22.5t0.5 -36.5t0.5 -24q-5 -34 -15 -57
t-24.5 -35t-27 -17t-31.5 -9q-122 10 -101 153q1 17 -1 17q-6 -6 -18 -9t-23.5 -3t-23 0.5t-18.5 -0.5t-7 -5q1 -65 -18 -103t-51 -39q-31 -1 -48 32t-19 68q-1 17 4.5 42t15 43t17.5 15q12 -3 18 -16q5 -9 -8 -9q-8 0 -17 -17t-11 -38q-1 -25 10.5 -42t38.5 -16
q13 0 22 9.5t13 23t6 27.5t1.5 23.5t-2.5 10.5q-10 7 -21.5 18.5l-14.5 14.5q-9 14 -31 27t-23 14q-14 16 -17.5 30.5t7.5 20.5q17 10 29 23t18 21.5t21.5 15.5t40.5 7q54 2 117 -17q2 0 26.5 -7t39.5 -12t33 -15t24 -21q10 -16 23 -9q6 3 8 10t-3.5 14t-19.5 10
q-23 7 -65 25.5t-52 21.5q-46 20 -80 26q-30 6 -88 -2q-12 -2 -12 2t19 22q15 14 31 20t46 5q20 0 42 -7t41 -16.5t38 -20.5t34 -19.5t27.5 -13.5t20 -3t9.5 12q1 2 -0.5 4.5t-5 5.5t-6.5 5.5t-9.5 6t-10 5.5t-11.5 6t-11 5q-20 10 -42.5 25t-38.5 27.5t-35.5 25.5t-33 19.5
t-31 9.5t-29.5 -6q-24 -13 -70 -81q-21 -30 -27 -30q-4 0 -4 14q1 28 -16.5 64.5t-34.5 64t-24 66t13 71.5q-26 7 -72 103t-54 161q-3 21 -1.5 79.5t-6.5 66.5q-9 27 -32 4q-33 -31 -41 -99q-3 -37 4 -73q5 -20 -1 -20q-2 0 -5 5q-14 27 -16 62.5t6 66.5t21 61
q6 14 28.5 31.5t27.5 23.5q23 26 119 103t106 88q18 17 20 43.5t-15.5 49.5t-52.5 26q11 20 27.5 43.5t25 37.5t15.5 43t6 70q52 -28 8 -106q-5 -9 -12.5 -18t-11 -13.5t-2.5 -7.5q2 -2 8 -6t15 -6.5t15 4.5q53 59 190 41q151 -17 202 -100q27 -43 39 -34q13 7 11 60
q0 13 -3 29.5t-5.5 24.5t-9.5 28.5t-8 23.5q-9 26 -5.5 42.5t26.5 17.5q4 -24 17 -89.5t15 -102.5q2 -21 -3.5 -63t-10.5 -77t0 -73.5t24 -61.5q18 -21 58 -21q2 -42 40 -60t82.5 -11.5t68.5 25.5zM861 438q4 -19 -2.5 -34t-13.5 -17q-10 -2 -10 8q2 7 6 7t7 5t1 12
q-3 23 9 23q3 0 3 -4zM1340 664q-2 -10 -7.5 -13.5t-15 -6t-16.5 -6.5q-9 -5 -16 -14.5t-10.5 -13t-7.5 -0.5q-16 18 8 50t45 36q11 2 17 -8.5t3 -23.5zM1137 420q1 -18 -10.5 -29.5t-18.5 -10.5t-9 3t0.5 4t5.5 3q7 2 13 12.5t7 23.5q0 1 3 0t6 -2.5t3 -3.5zM1199 154
q1 -3 -2.5 -6t-11 -7.5t-10.5 -7.5q-17 -17 -28 -17q-10 1 -13 8.5t-1.5 15.5t-0.5 14q-1 4 -5 9.5t-6 8.5t-2.5 7.5t3.5 6.5q5 4 9.5 0.5t12.5 -11t17 -10.5q2 0 11 -0.5t17 -2.5t10 -8zM1844 1686q23 15 36 29t13.5 27.5t-3 25.5t-17.5 25t-27 22.5t-34.5 21.5t-36 19
t-36 17.5t-31.5 15.5q-43 22 -97.5 64t-86.5 73q-19 18 -77 21.5t-102 -16.5q-17 -9 -28.5 -22t-17 -23.5t-14 -20.5t-26 -16.5t-46.5 -6.5q-50 -1 -148 -1q-21 0 -65 2t-67 3q-41 0 -75 11t-55 25t-40.5 28.5t-42 23.5t-49.5 9q-33 -1 -127 -35.5t-167 -49.5
q-22 -5 -58.5 -11.5t-57 -10.5t-44.5 -11t-38 -16.5t-20 -21.5q-8 -15 -5 -35t10 -35t14.5 -35t8.5 -34q1 -18 -4.5 -45.5t-11.5 -48.5t-5.5 -41.5t12.5 -31.5q16 -13 65 -15.5t69 -13.5q34 -19 47.5 -39.5t13.5 -59.5q11 42 1 73t-37 48q-16 11 -43 16t-52 2q-39 -3 -49 11
q-14 19 6 65q2 6 9 20.5t9.5 21t5 19t1.5 25.5q0 18 -20 56.5t-16 55.5q3 18 43 29q24 6 98.5 21t111.5 24q27 6 84.5 24.5t94.5 26.5t63 5q36 -5 59 -20t32 -33.5t9 -43.5t-5 -46.5t-15 -46t-17.5 -39t-15.5 -27.5q-133 -209 -187 -269q-82 -93 -135 -53q-12 11 -16.5 -12
t-3.5 -49q1 -33 11.5 -59t27.5 -54t25 -48q9 -22 30.5 -82t33.5 -89.5t34 -69t45 -62.5q126 -164 142 -223q-14 -127 -18 -354q-1 -50 4 -86.5t19.5 -75.5t45.5 -71.5t79 -58.5q45 -24 119 -24q61 -1 121.5 15.5t101.5 46.5q65 48 104.5 139t33.5 169q-6 106 34 244
q22 72 58 130t94 120q64 68 114.5 186.5t67.5 217.5q9 57 5.5 97.5t-13.5 63.5t-23 24q-9 2 -20.5 15t-24 30.5t-28.5 34.5t-42 28t-58 9q-21 0 -36 -5t-25.5 -15.5t-15.5 -17.5t-13 -24t-11 -23q-25 -41 -47 -33.5t-32 55.5t8 111q10 35 12.5 73t-0.5 70.5t-11 79.5
q-8 57 9 94.5t49 49.5t71 4t72 -35q68 -56 103 -76t118 -50q50 -16 76.5 -33t31.5 -31.5t-5.5 -29t-30.5 -25.5t-50 -21q-37 -12 -56 -54.5t-17 -83t17 -54.5q2 36 9.5 65t16.5 46t23.5 32.5t24 21.5t24.5 14.5t18 10.5z" />
</svg>
