<?xml version="1.0" standalone="no"?>
<!DOCTYPE svg PUBLIC "-//W3C//DTD SVG 1.1//EN" "http://www.w3.org/Graphics/SVG/1.1/DTD/svg11.dtd" >
<svg xmlns="http://www.w3.org/2000/svg" xmlns:xlink="http://www.w3.org/1999/xlink" version="1.1" width="2048" height="2048" viewBox="-10 0 2068 2048">
   <path fill="currentColor"
d="M1079 1654l600 -600l208 208l-600 599h-208v-207zM1910 906l124 130q14 13 14 34t-14 35l-97 97l-207 -199l97 -97q23 -18 41.5 -18t41.5 18zM886 1566h-692v-590h1291l480 -485v-106q0 -83 -57.5 -140.5t-136.5 -57.5h-1577q-79 0 -136.5 57.5t-57.5 140.5v1181
q0 83 57.5 140.5t136.5 57.5h692v-198zM194 385h1577v198h-1577v-198z" />
</svg>
