<?xml version="1.0" standalone="no"?>
<!DOCTYPE svg PUBLIC "-//W3C//DTD SVG 1.1//EN" "http://www.w3.org/Graphics/SVG/1.1/DTD/svg11.dtd" >
<svg xmlns="http://www.w3.org/2000/svg" xmlns:xlink="http://www.w3.org/1999/xlink" version="1.1" width="2048" height="2048" viewBox="-10 0 2058 2048">
   <path fill="currentColor"
d="M1639 510q63 0 108.5 -43.5t45.5 -113t-43 -156.5q-53 -96 -110.5 -96t-110.5 96q-43 87 -43 156.5t45.5 113t107.5 43.5zM1639 332q20 0 36.5 14.5t16.5 36t-16.5 36t-36 14.5t-36.5 -14.5t-17 -36t17 -36t36 -14.5zM1024 409q62 0 108 -46t46 -113t-43 -154
q-53 -96 -111 -96t-111 96q-43 87 -43 154t46 113t108 46zM1024 231q19 0 36 14.5t17 36t-17 36t-36 14.5t-36 -14.5t-17 -36t17 -36t36 -14.5zM409 510q62 0 107.5 -43.5t45.5 -113t-43 -156.5q-53 -96 -110.5 -96t-110.5 96q-43 87 -43 156.5t45.5 113t108.5 43.5z
M409 332q19 0 36 14.5t17 36t-17 36t-36.5 14.5t-36 -14.5t-16.5 -36t16.5 -36t36.5 -14.5zM1894 923q0 39 -29 70t-72 31h-53v207q0 81 -60 141.5t-142 60.5h-413v413h106q81 0 141.5 60t60.5 142h-818q0 -82 60.5 -142t141.5 -60h106v-413h-413q-82 0 -142 -60.5
t-60 -141.5v-207h-53q-43 0 -72 -31t-29 -72t29 -72.5t72 -31.5v-101q0 -43 31 -72t70 -29h106q38 0 69 29t31 72v101q44 0 72.5 31.5t28.5 72.5t-28.5 72t-72.5 31h-52v207h413v-207h-53q-43 0 -72 -31t-29 -72t29 -72.5t72 -31.5v-202q0 -43 31.5 -74t69.5 -31h106
q38 0 69.5 31t31.5 74v202q43 0 72 31.5t29 72.5t-29 72t-72 31h-53v207h413v-207h-52q-44 0 -72.5 -31t-28.5 -72t28.5 -72.5t72.5 -31.5v-101q0 -43 31 -72t69 -29h106q39 0 70 29t31 72v101q43 0 72 31.5t29 74.5z" />
</svg>
