<?xml version="1.0" standalone="no"?>
<!DOCTYPE svg PUBLIC "-//W3C//DTD SVG 1.1//EN" "http://www.w3.org/Graphics/SVG/1.1/DTD/svg11.dtd" >
<svg xmlns="http://www.w3.org/2000/svg" xmlns:xlink="http://www.w3.org/1999/xlink" version="1.1" width="2048" height="2048" viewBox="-10 0 2068 2048">
   <path fill="currentColor"
d="M2000 937v-120q0 -38 -31.5 -69.5t-74.5 -31.5h-101q-43 0 -72 31.5t-29 69.5v106h-106v-106q0 -38 -28.5 -69.5t-71.5 -31.5h-101q-44 0 -75 31.5t-31 69.5v106h-101v-308q0 -43 -31.5 -74t-69.5 -31h-106q-38 0 -69.5 31t-31.5 74v308h-101v-106q0 -38 -31 -69.5
t-75 -31.5h-101q-43 0 -71.5 31.5t-28.5 69.5v106h-106v-106q0 -38 -29 -69.5t-72 -31.5h-101q-43 0 -74.5 31.5t-31.5 69.5v120q-48 29 -48 87q0 43 29 72t72 29h130q67 183 216 317q192 169 476 193v211h-106q-81 0 -141.5 60t-60.5 142h818q0 -82 -60.5 -142t-141.5 -60
h-106v-211q284 -29 476 -198q154 -129 216 -312h130q43 0 72 -29t29 -72q0 -58 -48 -87zM457 1125h466v303q-183 -19 -312 -120q-97 -72 -154 -183zM1125 1428v-303h466q-57 111 -154 183q-129 101 -312 120zM1024 409q62 0 108 -46t46 -113t-43 -154q-53 -96 -111 -96
t-111 96q-43 87 -43 154t46 113t108 46zM1024 231q19 0 36 14.5t17 36t-17 36t-36 14.5t-36 -14.5t-17 -36t17 -36t36 -14.5zM1433 615q67 0 110 -45.5t43 -115t-43 -156.5q-48 -96 -108 -96t-108 96q-48 87 -48 156.5t45.5 115t108.5 45.5zM1433 433q24 0 38.5 16.5
t14.5 36t-14.5 36t-36.5 16.5t-36 -16.5t-14 -36t14 -36t34 -16.5zM1846 615q63 0 108.5 -45.5t45.5 -115t-48 -156.5q-48 -96 -108 -96t-108 96q-44 87 -44 156.5t43.5 115t110.5 45.5zM1846 433q19 0 33.5 16.5t14.5 36t-14.5 36t-36 16.5t-36 -16.5t-14.5 -36t14.5 -36
t38.5 -16.5zM202 615q67 0 110.5 -45.5t43.5 -115t-44 -156.5q-48 -96 -108 -96t-108 96q-48 87 -48 156.5t45.5 115t108.5 45.5zM202 433q24 0 38.5 16.5t14.5 36t-14.5 36t-36 16.5t-36 -16.5t-14.5 -36t14.5 -36t33.5 -16.5zM615 615q63 0 108.5 -45.5t45.5 -115
t-48 -156.5q-48 -96 -108 -96t-108 96q-43 87 -43 156.5t43 115t110 45.5zM615 433q20 0 34 16.5t14 36t-14 36t-36 16.5t-36.5 -16.5t-14.5 -36t14.5 -36t38.5 -16.5z" />
</svg>
