<?xml version="1.0" standalone="no"?>
<!DOCTYPE svg PUBLIC "-//W3C//DTD SVG 1.1//EN" "http://www.w3.org/Graphics/SVG/1.1/DTD/svg11.dtd" >
<svg xmlns="http://www.w3.org/2000/svg" xmlns:xlink="http://www.w3.org/1999/xlink" version="1.1" width="2048" height="2048" viewBox="-10 0 2068 2048">
   <path fill="currentColor"
d="M1365 1830q-10 -59 -26.5 -136t-60.5 -230t-99 -298q-1 0 -2.5 0.5t-2.5 0.5q-11 4 -30 11t-76.5 33t-112 55.5t-127 78t-132.5 100.5t-117.5 123t-91.5 145l-20 -14q116 95 259 147.5t299 52.5q177 0 340 -69zM1119 1020q-29 -68 -71 -148q-122 36 -257.5 62t-233 38
t-198.5 18t-137.5 6.5t-68.5 0.5h-2q-2 9 -2 28q0 164 59 314t165 269q49 -87 114.5 -166t131.5 -135.5t134.5 -104.5t126.5 -78.5t104.5 -52.5t73.5 -31l26 -10q4 -1 11.5 -3t13 -4t10.5 -3zM977 738q-22 -40 -46 -80t-45.5 -75t-44 -70.5t-41.5 -64.5t-38.5 -57.5
t-34.5 -50t-29 -42t-23 -32.5t-16 -22t-8 -11q-184 87 -312 248t-171 363q32 0 54.5 -0.5t117 -5.5t179.5 -15t212.5 -32t245.5 -53zM1888 1162q-17 -5 -37.5 -10.5t-80.5 -17.5t-119 -18t-144 -5.5t-164 13.5q117 322 171 625q148 -100 246.5 -252.5t127.5 -334.5zM815 175
q-2 0 -3 1q1 -1 3 -1zM1602 368q-116 -104 -265 -161.5t-312 -57.5q-102 0 -207 26q197 269 328 509q92 -34 173.5 -80t128.5 -82.5t87 -77t50.5 -54t16.5 -22.5zM1899 1015q-2 -153 -53.5 -293t-145.5 -254l-1 2q-11 14 -24.5 30.5t-58 59.5t-95 81.5t-133.5 87t-176 86.5
q31 62 59 127q3 7 9 22.5t9 22.5q49 -6 100 -9t97.5 -3t92 2t85.5 5.5t75 7.5t64 8.5t49 8t33 6t14 2.5zM2048 1024.5q0 139.5 -36.5 272t-102.5 245t-160.5 207t-207 160.5t-245 102.5t-272 36.5t-272 -36.5t-245 -102.5t-207 -160.5t-160.5 -207t-103 -245t-37 -272
t37 -272t103 -245t160.5 -207t207 -160.5t245 -103t272 -37t272 37t245 103t207 160.5t160.5 207t102.5 245t36.5 272z" />
</svg>
