<?xml version="1.0" standalone="no"?>
<!DOCTYPE svg PUBLIC "-//W3C//DTD SVG 1.1//EN" "http://www.w3.org/Graphics/SVG/1.1/DTD/svg11.dtd" >
<svg xmlns="http://www.w3.org/2000/svg" xmlns:xlink="http://www.w3.org/1999/xlink" version="1.1" width="2048" height="2048" viewBox="-10 0 2068 2048">
   <path fill="currentColor"
d="M1835 906q23 -19 41.5 -19t41.5 19l116 120q14 14 14 39.5t-14 39.5l-97 97l-199 -199zM1084 1656l593 -602l209 209l-593 602h-209v-209zM890 1675v-97l699 -700h-1394v-296h1584v106l195 -199v-107q0 -83 -58 -141t-137 -58h-1584q-79 0 -137 60t-58 139v1186
q0 79 58 139.5t137 60.5h695v-93z" />
</svg>
