<?xml version="1.0" standalone="no"?>
<!DOCTYPE svg PUBLIC "-//W3C//DTD SVG 1.1//EN" "http://www.w3.org/Graphics/SVG/1.1/DTD/svg11.dtd" >
<svg xmlns="http://www.w3.org/2000/svg" xmlns:xlink="http://www.w3.org/1999/xlink" version="1.1" width="2048" height="2048" viewBox="-10 0 2068 2048">
   <path fill="currentColor"
d="M1463 1559q41 0 68.5 27.5t27.5 71t-27.5 70.5t-71 27t-71 -27t-27.5 -70.5t27.5 -71t73.5 -27.5zM1463 1266q-197 0 -359 110t-226 279q64 174 226 283.5t356.5 109.5t356.5 -109.5t231 -283.5q-69 -169 -231 -279t-354 -110zM1463 1902q-105 0 -176 -71t-71 -174
t71 -173.5t173.5 -70.5t173.5 70.5t71 173.5t-71 174t-171 71zM690 1723l-27 -68h-471v-1070h1563v544q138 60 192 110v-654q0 -78 -57 -137t-135 -59h-393v-197q0 -78 -57 -135t-135 -57h-393q-78 0 -135 57t-57 135v197h-393q-78 0 -135 59t-57 137v1070q0 78 57 137
t135 59h567q-37 -50 -69 -128zM777 192h393v197h-393v-197z" />
</svg>
