<?xml version="1.0" standalone="no"?>
<!DOCTYPE svg PUBLIC "-//W3C//DTD SVG 1.1//EN" "http://www.w3.org/Graphics/SVG/1.1/DTD/svg11.dtd" >
<svg xmlns="http://www.w3.org/2000/svg" xmlns:xlink="http://www.w3.org/1999/xlink" version="1.1" width="2048" height="2048" viewBox="-10 0 2068 2048">
   <path fill="currentColor"
d="M202 615q-82 0 -142 60.5t-60 141.5v414q0 81 60 141.5t142 60.5h1644q82 0 142 -60.5t60 -141.5v-414q0 -81 -60 -141.5t-142 -60.5h-1644zM716 817q87 0 147 60t60 147t-60 147t-146.5 60t-146.5 -60t-60 -147t60 -147t146 -60zM1332 817q86 0 146 60t60 147t-60 147
t-146.5 60t-146.5 -60t-60 -147t60 -147t147 -60zM308 923q38 0 69.5 29t31.5 72t-31.5 72t-72.5 29t-72 -29t-31 -72t31 -72t75 -29zM716 923q-43 0 -72 29t-29 72t29 72t72.5 29t72 -29t28.5 -72t-28.5 -72t-72.5 -29zM1332 923q-44 0 -72.5 29t-28.5 72t28.5 72t72 29
t72.5 -29t29 -72t-29 -72t-72 -29zM1740 923q44 0 75 29t31 72t-31 72t-72 29t-72.5 -29t-31.5 -72t31.5 -72t69.5 -29z" />
</svg>
