<?xml version="1.0" standalone="no"?>
<!DOCTYPE svg PUBLIC "-//W3C//DTD SVG 1.1//EN" "http://www.w3.org/Graphics/SVG/1.1/DTD/svg11.dtd" >
<svg xmlns="http://www.w3.org/2000/svg" xmlns:xlink="http://www.w3.org/1999/xlink" version="1.1" width="2048" height="2048" viewBox="-10 0 2068 2048">
   <path fill="currentColor"
d="M1565 1246q0 -48 -13.5 -90t-35.5 -74t-55.5 -59.5t-68 -46.5t-78.5 -36t-81.5 -27.5t-83.5 -20.5l-138 -32q-27 -6 -38 -9t-32.5 -9t-31 -10.5t-25 -11.5t-22.5 -14t-15 -17t-11 -22t-3 -26q0 -52 50.5 -77.5t142.5 -25.5q58 0 102.5 16t72 38.5t51 45.5t53 38.5
t64.5 15.5q62 0 100 -42.5t38 -103.5q0 -73 -74.5 -132t-189.5 -90t-243 -31q-72 0 -140.5 12.5t-134.5 41t-115 70t-78.5 105.5t-29.5 142q0 66 17.5 118.5t47 88.5t75 64.5t93.5 46t111 32.5l194 48q5 2 15 4q27 7 40 10t34 9t31 10.5t24.5 12t21 15t14 18t10 23t2.5 27.5
q0 51 -53.5 85.5t-139.5 34.5q-50 0 -92 -11.5t-71 -29.5t-54 -40t-45.5 -44t-41 -40t-45.5 -29.5t-54 -11.5q-66 0 -100 40.5t-34 99.5q0 81 74.5 150t201.5 108.5t275 39.5q76 0 149 -15t139 -47t115.5 -78t79 -112t29.5 -145zM2048 1536q0 104 -40.5 198.5t-109 163.5
t-163 109.5t-198.5 40.5q-175 0 -313 -106q-105 21 -199 21q-128 0 -250 -33.5t-225 -94t-189.5 -147t-147 -189.5t-94.5 -225t-34 -249q0 -96 21 -201q-106 -138 -106 -312q0 -104 40.5 -198.5t109.5 -163.5t163.5 -109.5t198.5 -40.5q174 0 312 106q105 -21 201 -21
q127 0 249 34t225 94.5t189.5 147t147 189.5t94 225t33.5 250q0 94 -21 199q106 138 106 312z" />
</svg>
