<?xml version="1.0" standalone="no"?>
<!DOCTYPE svg PUBLIC "-//W3C//DTD SVG 1.1//EN" "http://www.w3.org/Graphics/SVG/1.1/DTD/svg11.dtd" >
<svg xmlns="http://www.w3.org/2000/svg" xmlns:xlink="http://www.w3.org/1999/xlink" version="1.1" width="2048" height="2048" viewBox="-10 0 2058 2048">
   <path fill="currentColor"
d="M846 562l-159 -91q87 -149 226 -197q-9 -29 -35.5 -50.5t-60.5 -21.5v-202q120 0 207 77t101 192q144 48 236 202l-159 91l-178 -100zM1433 817v1231l-82 -29q-106 -38 -207 -101q-134 -86 -240 -202q-135 -144 -207 -322q-82 -216 -82 -471v-106q0 -53 26.5 -101
t74.5 -72l130 72l178 -101l178 101l130 -72q48 24 74.5 72t26.5 101zM1231 966l-207 -115l-207 115q15 279 145 491q100 163 269 274v-765z" />
</svg>
