<?xml version="1.0" standalone="no"?>
<!DOCTYPE svg PUBLIC "-//W3C//DTD SVG 1.1//EN" "http://www.w3.org/Graphics/SVG/1.1/DTD/svg11.dtd" >
<svg xmlns="http://www.w3.org/2000/svg" xmlns:xlink="http://www.w3.org/1999/xlink" version="1.1" width="2048" height="2048" viewBox="-10 0 2058 2048">
   <path fill="currentColor"
d="M913 274q-9 -29 -35.5 -50.5t-60.5 -21.5v-202q120 0 207 77v125q34 0 60.5 21.5t35.5 50.5q-86 29 -151 101t-104 168l-163 -91q82 -130 211 -178zM817 923q0 -120 63 -216l-135 -77q-62 24 -96 74.5t-34 112.5v106q0 471 279 784q178 202 442 307q-230 -178 -360 -423
q-159 -298 -159 -668zM712 274q-10 -29 -36.5 -50.5t-60.5 -21.5v-125q-86 -77 -206 -77v202q33 0 59.5 21.5t36.5 50.5q-130 48 -212 178l159 91q38 -96 105.5 -168t154.5 -101zM409 923q0 -120 62 -216l-139 -77q-58 24 -94 74.5t-36 112.5v106q0 471 279 784
q182 202 442 307q-226 -178 -356 -423q-158 -298 -158 -668zM1846 817v1231l-86 -29q-106 -38 -202 -101q-140 -86 -246 -202q-129 -144 -201 -322q-87 -216 -87 -471v-106q0 -53 29 -101t72 -72l130 72l178 -101l182 101l125 -72q48 24 77 72t29 101zM1639 1731v-765
l-206 -115l-202 115q9 279 144 491q101 163 264 274zM1101 471l154 91l178 -100l182 100l154 -91q-91 -154 -235 -202q-15 -115 -101.5 -192t-201.5 -77v202q33 0 57 21.5t39 50.5q-144 48 -226 197z" />
</svg>
