<?xml version="1.0" standalone="no"?>
<!DOCTYPE svg PUBLIC "-//W3C//DTD SVG 1.1//EN" "http://www.w3.org/Graphics/SVG/1.1/DTD/svg11.dtd" >
<svg xmlns="http://www.w3.org/2000/svg" xmlns:xlink="http://www.w3.org/1999/xlink" version="1.1" width="2048" height="2048" viewBox="-10 0 2068 2048">
   <path fill="currentColor"
d="M1353 640q46 23 71 68.5t25 96.5v274l-439 -439l51 -27l169 96zM1061 466l169 96l151 -87q-87 -146 -224 -192q-14 -109 -96.5 -182.5t-196.5 -73.5v192q32 0 57 21t34 48q-96 32 -169 123l133 138zM2048 1925l-123 123l-476 -471v398l-78 -28q-100 -36 -196 -96
q-128 -82 -229 -192q-128 -137 -196 -306q-78 -206 -78 -448v-110l-672 -672l123 -123zM1257 1381l-384 -384q18 246 142 429q91 147 242 247v-292z" />
</svg>
