<?xml version="1.0" standalone="no"?>
<!DOCTYPE svg PUBLIC "-//W3C//DTD SVG 1.1//EN" "http://www.w3.org/Graphics/SVG/1.1/DTD/svg11.dtd" >
<svg xmlns="http://www.w3.org/2000/svg" xmlns:xlink="http://www.w3.org/1999/xlink" version="1.1" width="2048" height="2048" viewBox="-10 0 2058 2048">
   <path fill="currentColor"
d="M659 543l-164 -91q82 -130 217 -178q-10 -29 -36.5 -50.5t-60.5 -21.5v-202q116 0 202 77v125q34 0 60.5 21.5t35.5 50.5q-81 29 -148.5 101t-105.5 168zM615 923q0 -120 58 -216l-135 -77q-57 24 -93 74.5t-36 112.5v106q0 471 278 784q178 202 443 307
q-226 -178 -361 -423q-154 -298 -154 -668zM1639 817v1231l-86 -29q-106 -38 -202 -101q-140 -86 -245 -202q-130 -144 -202 -322q-87 -216 -87 -471v-106q0 -53 29 -101t77 -72l125 72l183 -101l178 101l129 -72q44 24 72.5 72t28.5 101zM1433 1731v-765l-202 -115
l-207 115q10 279 144 491q101 163 265 274zM894 471l154 91l183 -100l178 100l153 -91q-86 -154 -235 -202q-15 -115 -101.5 -192t-201.5 -77v202q34 0 60.5 21.5t35.5 50.5q-139 48 -226 197z" />
</svg>
