<?xml version="1.0" standalone="no"?>
<!DOCTYPE svg PUBLIC "-//W3C//DTD SVG 1.1//EN" "http://www.w3.org/Graphics/SVG/1.1/DTD/svg11.dtd" >
<svg xmlns="http://www.w3.org/2000/svg" xmlns:xlink="http://www.w3.org/1999/xlink" version="1.1" width="2048" height="2048" viewBox="-10 0 2058 2048">
   <path fill="currentColor"
d="M1024 559q79 0 133.5 -54.5t54.5 -133.5q0 -52 -31 -96l-157 -275l-157 275q-31 44 -31 96q0 79 54.5 133.5t133.5 54.5zM1583 838h-467v-187h-184v187h-467q-118 0 -198.5 81t-80.5 199v838q0 40 28 66t63 26h1494q35 0 63 -26t28 -66v-838q0 -118 -80.5 -199
t-198.5 -81zM1675 1865h-1302v-280q127 0 223 -96l100 -100l101 100q92 92 227 92t227 -92l101 -100l100 100q96 96 223 96v280zM1675 1445q-75 0 -123 -52l-200 -201l-201 201q-48 48 -127 48t-131 -48l-197 -201l-200 201q-48 52 -123 52v-327q0 -39 26.5 -65.5
t65.5 -26.5h1118q39 0 65.5 26.5t26.5 65.5v327z" />
</svg>
