<?xml version="1.0" standalone="no"?>
<!DOCTYPE svg PUBLIC "-//W3C//DTD SVG 1.1//EN" "http://www.w3.org/Graphics/SVG/1.1/DTD/svg11.dtd" >
<svg xmlns="http://www.w3.org/2000/svg" xmlns:xlink="http://www.w3.org/1999/xlink" version="1.1" width="2048" height="2048" viewBox="-10 0 2058 2048">
   <path fill="currentColor"
d="M869 466q127 0 233.5 63.5t167.5 170t61 233t-61 233t-167.5 167.5t-233 61t-233.5 -61t-170 -167.5t-63 -233t63 -233t170 -170t233 -63.5zM869 0l223 318q-109 -39 -224.5 -39t-220.5 39zM63 466l388 -30q-92 74 -148.5 170t-73.5 213zM63 1394l166 -348q22 113 76 211
t146 172zM1671 466l-166 353q-17 -113 -76 -213.5t-141 -174.5zM1985 1116h-188q0 148 -54 285t-163 244t-244.5 161.5t-283.5 54.5v187q183 0 353 -69.5t305 -202.5t205 -305t70 -355zM1610 1116h-183q0 74 -28.5 143.5t-80.5 122t-122 80.5t-144 28v183q109 0 213.5 -41.5
t183 -119.5t120 -183t41.5 -213z" />
</svg>
