<?xml version="1.0" standalone="no"?>
<!DOCTYPE svg PUBLIC "-//W3C//DTD SVG 1.1//EN" "http://www.w3.org/Graphics/SVG/1.1/DTD/svg11.dtd" >
<svg xmlns="http://www.w3.org/2000/svg" xmlns:xlink="http://www.w3.org/1999/xlink" version="1.1" width="2048" height="2048" viewBox="-10 0 2068 2048">
   <path fill="currentColor"
d="M1928 1279v-154q0 -106 -89 -180.5t-199.5 -74.5t-199.5 74.5t-89 180.5v154q-43 0 -81.5 38.5t-38.5 86.5v360q0 53 36 91.5t84 38.5h567q53 0 91.5 -36t38.5 -84v-361q0 -52 -36 -93t-84 -41zM1793 1279h-307v-154q0 -58 45.5 -94t108 -36t108 36t45.5 94v154zM308 870
h817v207h-817v-207zM308 1178h812q-82 86 -96 207h-716v-207zM1024 1692h-716v-206h716v206zM1231 769h-1029v923h-202v-1130l716 -408l717 408v150q-125 52 -202 163v-106z" />
</svg>
