<?xml version="1.0" standalone="no"?>
<!DOCTYPE svg PUBLIC "-//W3C//DTD SVG 1.1//EN" "http://www.w3.org/Graphics/SVG/1.1/DTD/svg11.dtd" >
<svg xmlns="http://www.w3.org/2000/svg" xmlns:xlink="http://www.w3.org/1999/xlink" version="1.1" width="2048" height="2048" viewBox="-10 0 2068 2048">
   <path fill="currentColor"
d="M708 12q195 0 356.5 95t256.5 256.5t95 356.5q0 176 -81 330.5t-223 249.5v232q0 38 -28.5 69t-71.5 31h-608q-43 0 -71.5 -31t-28.5 -69v-232q-142 -95 -223 -249.5t-81 -330.5q0 -195 95 -356.5t256.5 -256.5t356.5 -95zM404 1936v-99h608v99q0 43 -31 71.5t-69 28.5
h-408q-38 0 -69 -28.5t-31 -71.5zM708 211q-138 0 -254.5 69t-185 185.5t-68.5 254.5q0 152 85.5 278t218.5 188v242h408v-242q133 -62 218.5 -188t85.5 -278q0 -138 -68.5 -254.5t-185 -185.5t-254.5 -69zM1720 1124h-199l-328 912h195l71 -199h323l71 199h195zM1502 1699
l118 -371l119 371h-237z" />
</svg>
