<?xml version="1.0" standalone="no"?>
<!DOCTYPE svg PUBLIC "-//W3C//DTD SVG 1.1//EN" "http://www.w3.org/Graphics/SVG/1.1/DTD/svg11.dtd" >
<svg xmlns="http://www.w3.org/2000/svg" xmlns:xlink="http://www.w3.org/1999/xlink" version="1.1" width="2048" height="2048" viewBox="-10 0 2068 2048">
   <path fill="currentColor"
d="M1819 0h-1590q-96 0 -162.5 66.5t-66.5 162.5v1590q0 96 66.5 162.5t162.5 66.5h1590q96 0 162.5 -66.5t66.5 -162.5v-1590q0 -96 -66.5 -162.5t-162.5 -66.5zM1819 1819h-1590v-1590h1590v1590zM1024 1707q187 0 344 -91t248 -248t91 -344t-91 -344t-248 -248t-344 -91
t-344 91t-248 248t-91 344t91 344t248 248t344 91zM1024 571q187 0 320 133t133 320t-133 320t-320 133t-320 -133t-133 -320t133 -320t320 -133z" />
</svg>
