<?xml version="1.0" standalone="no"?>
<!DOCTYPE svg PUBLIC "-//W3C//DTD SVG 1.1//EN" "http://www.w3.org/Graphics/SVG/1.1/DTD/svg11.dtd" >
<svg xmlns="http://www.w3.org/2000/svg" xmlns:xlink="http://www.w3.org/1999/xlink" version="1.1" width="2048" height="2048" viewBox="-10 0 2058 2048">
   <path fill="currentColor"
d="M1468 534l45 -239q6 -29 -11 -49.5t-43 -20.5h-877q-28 0 -47.5 20.5t-19.5 45.5v1356q0 3 2.5 3.5t5.5 -2.5l359 -433q27 -32 46 -41t59 -9h294q28 0 46.5 -18.5t21.5 -36.5q17 -101 45 -235q6 -26 -13 -49t-45 -23h-362q-36 0 -59.5 -23.5t-23.5 -59.5v-52
q0 -36 23.5 -58.5t59.5 -22.5h426q21 0 42.5 -16.5t25.5 -36.5zM1747 261q-19 90 -66 328t-85 430.5t-43 213.5q-5 20 -7.5 28t-10 28.5t-15 31t-21.5 26.5t-30.5 24t-40.5 14.5t-53 6.5h-334h-3q-9 0 -12.5 1.5t-11.5 11.5q-10 11 -525 607q-18 22 -46 30t-49 6t-36 -8
q-26 -10 -47 -38.5t-21 -81.5v-1736q0 -23 6 -46.5t20 -48.5t35.5 -44.5t56 -32t77.5 -12.5h1094q117 0 155.5 64.5t12.5 196.5zM1747 261l-194 972q5 -21 43 -213.5t85 -430.5t66 -328z" />
</svg>
