<?xml version="1.0" standalone="no"?>
<!DOCTYPE svg PUBLIC "-//W3C//DTD SVG 1.1//EN" "http://www.w3.org/Graphics/SVG/1.1/DTD/svg11.dtd" >
<svg xmlns="http://www.w3.org/2000/svg" xmlns:xlink="http://www.w3.org/1999/xlink" version="1.1" width="2048" height="2048" viewBox="-10 0 2068 2048">
   <path fill="currentColor"
d="M1024 202q221 0 411 110.5t300.5 300.5t110.5 411t-110.5 411t-300.5 300.5t-411 110.5t-411 -110.5t-300.5 -300.5t-110.5 -411t110.5 -411t300.5 -300.5t411 -110.5zM1024 0q-279 0 -514.5 137t-372.5 372.5t-137 514.5t137 514.5t372.5 372.5t514.5 137t514.5 -137
t372.5 -372.5t137 -514.5t-137 -514.5t-372.5 -372.5t-514.5 -137zM1024 923q-43 0 -72 29t-29 72t29 72t72 29t72 -29t29 -72t-29 -72t-72 -29zM894 745q63 -29 130 -29t135 29l72 -72q-96 -58 -207 -58t-207 58zM1332 1024q0 67 -29 135l72 72q58 -96 58 -207t-58 -207
l-72 77q29 63 29 130zM716 1024q0 -67 29 -130l-72 -77q-58 96 -58 207t58 207l72 -72q-29 -68 -29 -135zM1159 1303q-68 29 -135 29t-130 -29l-77 72q96 58 207 58t207 -58zM1524 668l-72 72q86 130 86 284t-86 284l72 72q115 -159 115 -356t-115 -356zM740 596
q130 -86 284 -86t284 86l72 -72q-159 -115 -356 -115t-356 115zM1308 1452q-130 86 -284 86t-284 -86l-72 72q159 115 356 115t356 -115zM596 1308q-86 -130 -86 -284t86 -284l-72 -72q-115 159 -115 356t115 356z" />
</svg>
