<?xml version="1.0" standalone="no"?>
<!DOCTYPE svg PUBLIC "-//W3C//DTD SVG 1.1//EN" "http://www.w3.org/Graphics/SVG/1.1/DTD/svg11.dtd" >
<svg xmlns="http://www.w3.org/2000/svg" xmlns:xlink="http://www.w3.org/1999/xlink" version="1.1" width="2048" height="2048" viewBox="-10 0 2068 2048">
   <path fill="currentColor"
d="M2048 1925l-1925 -1925l-123 123l288 288q-201 261 -201 590q0 265 130 489t354 354.5t490 130.5q329 0 589 -201l275 274zM1061 1783q-211 0 -391.5 -105t-285.5 -286t-105 -391q0 -247 146 -452l142 141q-92 147 -92 311q0 188 110 338l69 -68q-83 -124 -83 -270
q0 -123 64 -238l74 74q-37 77 -37 164q0 105 55 197l68 -69q-27 -64 -27 -128q0 -46 18 -91l366 365q-46 19 -91 19q-64 0 -124 -28l-73 69q91 55 197 55q86 0 164 -37l73 73q-114 64 -237 64q-147 0 -270 -82l-69 69q151 109 339 109q164 0 310 -91l142 142
q-206 146 -452 146zM1061 613q105 0 196 54l-68 69q-51 -18 -106 -23l-91 -96q32 -4 69 -4zM1349 978q-5 -59 -23 -100l68 -73q55 91 55 196q0 37 -4 69zM1330 594q-123 -82 -269 -82q-78 0 -151 27l-73 -73q105 -50 224 -50q187 0 338 110zM690 320l-146 -146
q238 -147 517 -147q265 0 489 130.5t354 354.5t130 489q0 279 -146 517l-146 -142q100 -174 100 -379.5t-105 -386t-285.5 -286t-386.5 -105.5t-375 101zM1522 1152q28 -73 28 -151q0 -146 -83 -270l69 -68q110 151 110 338q0 114 -51 224z" />
</svg>
