<?xml version="1.0" standalone="no"?>
<!DOCTYPE svg PUBLIC "-//W3C//DTD SVG 1.1//EN" "http://www.w3.org/Graphics/SVG/1.1/DTD/svg11.dtd" >
<svg xmlns="http://www.w3.org/2000/svg" xmlns:xlink="http://www.w3.org/1999/xlink" version="1.1" width="2048" height="2048" viewBox="-10 0 2058 2048">
   <path fill="currentColor"
d="M1024 0q-197 0 -360.5 96t-259.5 259.5t-96 360.5q0 178 81.5 334.5t225.5 252.5v235q0 39 29 70t72 31h616q43 0 72 -31t29 -70v-235q144 -96 225.5 -252.5t81.5 -334.5q0 -197 -96 -360.5t-259.5 -259.5t-360.5 -96zM1231 1187v246h-106v-471l178 -174q29 -28 29 -71.5
t-29 -72.5t-72.5 -29t-71.5 29l-135 135l-135 -135q-28 -29 -71.5 -29t-72.5 29t-29 72.5t29 71.5l178 174v471h-106v-246q-134 -62 -220.5 -189.5t-86.5 -281.5q0 -139 69.5 -257t187.5 -187.5t257 -69.5t257 69.5t187.5 187.5t69.5 257q0 154 -86.5 281.5t-220.5 189.5z
M716 1846h616v101q0 43 -31.5 72t-69.5 29h-414q-38 0 -69.5 -29t-31.5 -72v-101z" />
</svg>
