<?xml version="1.0" standalone="no"?>
<!DOCTYPE svg PUBLIC "-//W3C//DTD SVG 1.1//EN" "http://www.w3.org/Graphics/SVG/1.1/DTD/svg11.dtd" >
<svg xmlns="http://www.w3.org/2000/svg" xmlns:xlink="http://www.w3.org/1999/xlink" version="1.1" width="2048" height="2048" viewBox="-10 0 2068 2048">
   <path fill="currentColor"
d="M708 12q-195 0 -356.5 95t-256.5 256.5t-95 356.5q0 176 81 330.5t223 249.5v232q0 38 28.5 69t71.5 31h608q43 0 71.5 -31t28.5 -69v-232q142 -95 223 -249.5t81 -330.5q0 -195 -95 -356.5t-256.5 -256.5t-356.5 -95zM404 1936q0 43 31 71.5t69 28.5h408q38 0 69 -28.5
t31 -71.5v-99h-608v99zM1720 1124h-199l-328 912h195l71 -199h323l71 199h195zM1502 1699l118 -371l119 371h-237z" />
</svg>
