<?xml version="1.0" standalone="no"?>
<!DOCTYPE svg PUBLIC "-//W3C//DTD SVG 1.1//EN" "http://www.w3.org/Graphics/SVG/1.1/DTD/svg11.dtd" >
<svg xmlns="http://www.w3.org/2000/svg" xmlns:xlink="http://www.w3.org/1999/xlink" version="1.1" width="2048" height="2048" viewBox="-10 0 2058 2048">
   <path fill="currentColor"
d="M716 1846h616v101q0 43 -31.5 72t-69.5 29h-414q-38 0 -69.5 -29t-31.5 -72v-101zM1740 716q0 178 -81.5 334.5t-225.5 252.5v235q0 39 -29 70t-72 31h-616q-43 0 -72 -31t-29 -70v-235q-144 -96 -225.5 -252.5t-81.5 -334.5q0 -197 96 -360.5t259.5 -259.5t360.5 -96
t360.5 96t259.5 259.5t96 360.5zM1303 644q-29 -29 -72.5 -29t-71.5 29l-135 135l-135 -135q-28 -29 -71.5 -29t-72.5 29t-29 72.5t29 71.5l178 174v471h202v-471l178 -174q29 -28 29 -71.5t-29 -72.5z" />
</svg>
