<?xml version="1.0" standalone="no"?>
<!DOCTYPE svg PUBLIC "-//W3C//DTD SVG 1.1//EN" "http://www.w3.org/Graphics/SVG/1.1/DTD/svg11.dtd" >
<svg xmlns="http://www.w3.org/2000/svg" xmlns:xlink="http://www.w3.org/1999/xlink" version="1.1" width="2048" height="2048" viewBox="-10 0 2068 2048">
   <path fill="currentColor"
d="M1298 1250q5 14 5 29q0 53 -19.5 101t-58 81.5t-86.5 48.5q-62 24 -134 0q-53 -20 -101 -63q67 -19 112.5 -62.5t60.5 -105.5q5 -43 -15 -120l-9 -53q-15 -92 14 -164q29 58 50.5 84.5t70 69.5t67.5 67q33 39 43 87zM2048 1024q0 279 -137 514.5t-372.5 372.5t-514.5 137
t-514.5 -137t-372.5 -372.5t-137 -514.5t137 -514.5t372.5 -372.5t514.5 -137t514.5 137t372.5 372.5t137 514.5zM1553 1082l-10 -20q-14 -38 -62 -100q-15 -20 -53 -58l-10 -10q-24 -19 -77 -57q-62 -49 -91 -73q-87 -91 -106 -218.5t39 -237.5q-101 24 -202 105
q-159 125 -212 322.5t19 384.5q5 19 5 29q0 24 -28.5 36t-48.5 -7q-9 -5 -14 -15q-67 -81 -79 -194t36 -214q-101 82 -154 209t-43 257v19q9 68 24 101q14 58 57 140q63 101 171 170.5t228 84.5q135 19 260 -10q134 -34 226 -115q115 -101 149 -248t-24 -281z" />
</svg>
