<?xml version="1.0" standalone="no"?>
<!DOCTYPE svg PUBLIC "-//W3C//DTD SVG 1.1//EN" "http://www.w3.org/Graphics/SVG/1.1/DTD/svg11.dtd" >
<svg xmlns="http://www.w3.org/2000/svg" xmlns:xlink="http://www.w3.org/1999/xlink" version="1.1" width="2048" height="2048" viewBox="-10 0 2068 2048">
   <path fill="currentColor"
d="M1839 1326q0 -4 5 -19v-29v53zM821 1278q0 111 43 207h-557v101q0 43 -31 74t-70 31h-105q-39 0 -70 -31t-31 -74v-816l211 -615q19 -48 57.5 -77t91.5 -29h1124q52 0 90.5 29t57.5 77l212 615v508q0 -139 -70 -256.5t-187.5 -184.5t-256.5 -67t-257 67t-185 184.5
t-67 256.5zM514 1024q0 -62 -46 -108t-110.5 -46t-108 46t-43.5 108t43.5 108t108 46t110.5 -46t46 -108zM1637 664l-153 -461h-1124l-154 461h1431zM2036 1811l-423 -422q34 -77 14.5 -166t-84 -153.5t-160.5 -81.5t-183 22l202 201l-139 139l-202 -201q-43 86 -26.5 179.5
t84 161t154 86.5t167.5 -14l418 422q14 15 33.5 15t33.5 -15l106 -105q14 -15 16.5 -36.5t-11.5 -31.5z" />
</svg>
