<?xml version="1.0" standalone="no"?>
<!DOCTYPE svg PUBLIC "-//W3C//DTD SVG 1.1//EN" "http://www.w3.org/Graphics/SVG/1.1/DTD/svg11.dtd" >
<svg xmlns="http://www.w3.org/2000/svg" xmlns:xlink="http://www.w3.org/1999/xlink" version="1.1" width="2048" height="2048" viewBox="-10 0 2068 2048">
   <path fill="currentColor"
d="M2048 817h-409v-307q0 -125 -89 -216.5t-218.5 -91.5t-218.5 91.5t-89 216.5h207q0 -39 28.5 -70t72 -31t72.5 31t29 70v307h-818q82 0 142 -60t60 -142v-413h-615v413q0 82 60 142t147 60h-409v207h202v822h1644v-822h202v-207zM409 409h206v206h-206v-206zM409 1639
v-615h514v615h-514zM1639 1639h-514v-615h514v615z" />
</svg>
