<?xml version="1.0" standalone="no"?>
<!DOCTYPE svg PUBLIC "-//W3C//DTD SVG 1.1//EN" "http://www.w3.org/Graphics/SVG/1.1/DTD/svg11.dtd" >
<svg xmlns="http://www.w3.org/2000/svg" xmlns:xlink="http://www.w3.org/1999/xlink" version="1.1" width="2048" height="2048" viewBox="-10 0 2058 2048">
   <path fill="currentColor"
d="M1024 817q168 0 288.5 -120t120.5 -288.5t-120.5 -288.5t-288.5 -120t-288.5 120t-120.5 288.5t120.5 288.5t288.5 120zM1024 202q87 0 147 60t60 146.5t-60 146.5t-147 60t-147 -60t-60 -146.5t60 -146.5t147 -60zM1678 1082q-313 -159 -654 -159t-654 159
q-77 38 -122.5 112.5t-45.5 161.5v692h207v-692q0 -63 53 -92q269 -139 562 -139q115 0 216 24l-158 337h-289q-115 0 -199 81.5t-84 199.5t84 199.5t199 81.5h846q87 0 147 -60t60 -142v-490q0 -87 -45.5 -161.5t-122.5 -112.5zM913 1846h-120q-33 0 -55 -24t-22 -55
t22 -53t55 -22h193zM1639 1846h-495l298 -644q77 29 144 62q53 29 53 92v490z" />
</svg>
