<?xml version="1.0" standalone="no"?>
<!DOCTYPE svg PUBLIC "-//W3C//DTD SVG 1.1//EN" "http://www.w3.org/Graphics/SVG/1.1/DTD/svg11.dtd" >
<svg xmlns="http://www.w3.org/2000/svg" xmlns:xlink="http://www.w3.org/1999/xlink" version="1.1" width="2048" height="2048" viewBox="-10 0 2068 2048">
   <path fill="currentColor"
d="M2048 1490q0 148 -76.5 276.5t-205 205t-276.5 76.5v-139q175 0 297 -122t122 -297h139zM0 558q0 -148 76.5 -276.5t205 -205t276.5 -76.5v139q-175 0 -297 122t-122 297h-139zM654 309l-427 427q-149 149 -201 347t0 394t200.5 344.5t344.5 200.5t394 0t347 -201
l658 -658q30 -34 30 -80t-32.5 -81t-80.5 -35t-83 35l-414 410l-65 -66l610 -610q35 -34 35 -82t-35 -81t-83 -33t-83 35l-540 541l-66 -66l641 -640q30 -35 30 -83t-32.5 -83t-80.5 -35t-83 35l-640 641l-66 -66l510 -510q35 -34 35 -82t-35 -81t-82.5 -33t-82.5 31
l-706 710q83 109 76.5 250.5t-107.5 241.5l-69 -69q82 -79 82 -194.5t-82 -197.5l-31 -31l379 -379q35 -35 35 -83t-35 -82.5t-83 -34.5t-82 34z" />
</svg>
