<?xml version="1.0" standalone="no"?>
<!DOCTYPE svg PUBLIC "-//W3C//DTD SVG 1.1//EN" "http://www.w3.org/Graphics/SVG/1.1/DTD/svg11.dtd" >
<svg xmlns="http://www.w3.org/2000/svg" xmlns:xlink="http://www.w3.org/1999/xlink" version="1.1" width="2048" height="2048" viewBox="-10 0 2058 2048">
   <path fill="currentColor"
d="M1813 596q0 -88 -62 -150t-150 -62q-32 0 -44 4v-48q0 -88 -62 -150t-150 -62q-32 0 -60 8q-24 -60 -78 -98t-118 -38q-80 0 -138 50t-74 126q-12 -4 -44 -4q-88 0 -152 62t-64 150v504q-44 -44 -104 -56l-64 -20q-56 -16 -106 4t-82 68q-24 36 -26 80t14 84l220 552
q80 200 260 324t400 124q188 0 344 -92t248 -248t92 -344v-768zM1641 1364q0 140 -68 258t-186 186t-258 68q-164 0 -302 -92t-202 -248l-220 -560l44 12q64 16 84 80l84 212h172v-896q0 -16 12 -30t30 -14t30 14t12 30v640h172v-812q0 -16 12 -28t30 -12t30 12t12 28v812
h172v-684q0 -16 12 -28t30 -12t30 12t12 28v684h172v-428q0 -16 12 -28t30 -12t30 12t12 28v768z" />
</svg>
