<?xml version="1.0" standalone="no"?>
<!DOCTYPE svg PUBLIC "-//W3C//DTD SVG 1.1//EN" "http://www.w3.org/Graphics/SVG/1.1/DTD/svg11.dtd" >
<svg xmlns="http://www.w3.org/2000/svg" xmlns:xlink="http://www.w3.org/1999/xlink" version="1.1" width="2048" height="2048" viewBox="-10 0 2068 2048">
   <path fill="currentColor"
d="M562 370l-327 327q-152 153 -206.5 355.5t0 407.5t207 355t355 204.5t405 0t355.5 -206.5l558 -558q69 -65 69 -163.5t-69 -163.5q-14 -17 -35 -30l35 -35q69 -70 69 -166t-69 -165q-18 -18 -48 -40q26 -65 13 -134.5t-66 -122.5q-56 -56 -141 -65t-155 39
q-13 -22 -30 -39q-70 -65 -166 -65t-166 65l-231 235q-13 -17 -30 -35q-65 -69 -163.5 -69t-163.5 69zM693 501q13 -13 32.5 -13t32.5 13t13 32.5t-13 32.5l-296 297q83 83 83 198.5t-83 193.5l131 131q100 -96 128 -233.5t-24 -263.5l588 -584q14 -17 33.5 -17t32.5 15
t13 34.5t-13 32.5l-427 427l131 131l557 -558q13 -13 33 -13t33 13t13 33t-13 33l-558 557l131 131l461 -457q14 -18 33.5 -18t32.5 15.5t13 35t-13 32.5l-527 523l130 135l331 -331q14 -13 33.5 -13t32.5 13t13 32.5t-13 32.5l-558 558q-118 118 -272.5 159t-311.5 0
t-272.5 -156.5t-156.5 -272.5t0 -311.5t159 -272.5zM2048 1490q0 148 -76.5 276.5t-205 205t-276.5 76.5v-139q175 0 297 -122t122 -297h139zM0 558q0 -148 76.5 -276.5t205 -205t276.5 -76.5v139q-175 0 -297 122t-122 297h-139z" />
</svg>
