<?xml version="1.0" standalone="no"?>
<!DOCTYPE svg PUBLIC "-//W3C//DTD SVG 1.1//EN" "http://www.w3.org/Graphics/SVG/1.1/DTD/svg11.dtd" >
<svg xmlns="http://www.w3.org/2000/svg" xmlns:xlink="http://www.w3.org/1999/xlink" version="1.1" width="2048" height="2048" viewBox="-10 0 2058 2048">
   <path fill="currentColor"
d="M1936 795h-341v-128q149 -38 245 -160.5t96 -277.5h-341v-117q0 -43 -35 -77.5t-83 -34.5h-906q-48 0 -83 34.5t-35 77.5v117h-341q0 155 96 277.5t245 160.5v128h-341q0 160 96 280t245 162v128h-341q0 155 96 277.5t245 160.5v133q0 43 35 77.5t83 34.5h906
q48 0 83 -34.5t35 -77.5v-133q149 -38 245 -160.5t96 -277.5h-341v-128q149 -42 245 -162t96 -280zM1365 1819h-682v-1590h682v1590zM1024 1707q69 0 120 -51t51 -120t-51 -120t-120 -51t-120 51t-51 120t51 120t120 51zM1024 1195q69 0 120 -51t51 -120t-51 -120t-120 -51
t-120 51t-51 120t51 120t120 51zM1024 683q69 0 120 -51t51 -120t-51 -120t-120 -51t-120 51t-51 120t51 120t120 51z" />
</svg>
