<?xml version="1.0" standalone="no"?>
<!DOCTYPE svg PUBLIC "-//W3C//DTD SVG 1.1//EN" "http://www.w3.org/Graphics/SVG/1.1/DTD/svg11.dtd" >
<svg xmlns="http://www.w3.org/2000/svg" xmlns:xlink="http://www.w3.org/1999/xlink" version="1.1" width="2048" height="2048" viewBox="-10 0 2058 2048">
   <path fill="currentColor"
d="M1861 932q0 253 -109 488.5t-301 401t-427 226.5q-235 -61 -427 -226.5t-301 -401t-109 -488.5v-557l837 -375l837 375v557zM1024 1861q170 -48 320.5 -187.5t239.5 -331.5t89 -392v-458l-649 -287l-649 287v458q0 200 89 392t239.5 331.5t320.5 187.5zM745 1242
q79 96 201 133t244 4t204 -133q13 -17 6.5 -41t-32.5 -28q-91 -14 -169.5 -66t-126.5 -137t-54.5 -178.5t23.5 -181.5q9 -21 -6 -41t-37 -15q-153 30 -248.5 145.5t-100 266t95.5 272.5z" />
</svg>
