<?xml version="1.0" standalone="no"?>
<!DOCTYPE svg PUBLIC "-//W3C//DTD SVG 1.1//EN" "http://www.w3.org/Graphics/SVG/1.1/DTD/svg11.dtd" >
<svg xmlns="http://www.w3.org/2000/svg" xmlns:xlink="http://www.w3.org/1999/xlink" version="1.1" width="2048" height="2048" viewBox="-10 0 2068 2048">
   <path fill="currentColor"
d="M2048 682q0 -56 -84 -160q-44 -56 -88 -96l-44 48q-48 52 -80 100q-44 68 -44 112t22 84t62 60v364h-172v-168q0 -56 -38 -104t-90 -60q44 -84 44 -170t-38 -158t-106 -116l-368 -248l-368 240q-64 52 -104 126t-40 154q0 96 52 172q-60 12 -98 58t-38 106v168h-172v-364
q40 -20 62 -60t22 -88q0 -56 -84 -160q-44 -56 -84 -96l-44 48q-52 52 -84 100q-44 68 -44 112t24 84t60 60v1048h856v-340q0 -36 24 -62t60 -26t60 26t24 62v340h856v-1048q36 -20 60 -60t24 -88zM760 554l264 -176l264 176q76 52 76 136q0 64 -48 114t-112 50h-360
q-64 0 -112 -50t-48 -114q0 -84 76 -136zM1792 1706h-512v-168q0 -104 -76 -180t-180 -76t-180 76t-76 180v168h-512v-340h340v-340h856v340h340v340z" />
</svg>
