<?xml version="1.0" standalone="no"?>
<!DOCTYPE svg PUBLIC "-//W3C//DTD SVG 1.1//EN" "http://www.w3.org/Graphics/SVG/1.1/DTD/svg11.dtd" >
<svg xmlns="http://www.w3.org/2000/svg" xmlns:xlink="http://www.w3.org/1999/xlink" version="1.1" width="2048" height="2048" viewBox="-10 0 2068 2048">
   <path fill="currentColor"
d="M1397 218q0 -80 58.5 -138.5t142.5 -58.5t143 58.5t59 140.5t-59 140.5t-143 58.5t-142.5 -58.5t-58.5 -142.5zM1800 2018v-600h248l-248 -760q-24 -60 -75.5 -100t-117.5 -40h-9q-66 0 -117.5 40t-74.5 100l-89 263q84 42 133.5 124t49.5 185v797h300v-9zM1050 968
q56 0 103 -44.5t47 -103t-47 -105.5t-105.5 -47t-103 47t-44.5 105.5t44.5 103t105.5 44.5zM347 419q84 0 142.5 -58.5t58.5 -140.5t-58.5 -140.5t-140.5 -58.5t-140.5 58.5t-58.5 140.5t58.5 140.5t138.5 58.5zM548 2018v-699h150v-600q0 -84 -58.5 -142.5t-142.5 -58.5
h-300q-80 0 -138.5 58.5t-58.5 142.5v600h150v699h398zM1200 2018v-399h98v-398q0 -61 -44.5 -105.5t-105.5 -44.5h-201q-57 0 -103.5 44.5t-46.5 105.5v398h103v399h300z" />
</svg>
