<?xml version="1.0" standalone="no"?>
<!DOCTYPE svg PUBLIC "-//W3C//DTD SVG 1.1//EN" "http://www.w3.org/Graphics/SVG/1.1/DTD/svg11.dtd" >
<svg xmlns="http://www.w3.org/2000/svg" xmlns:xlink="http://www.w3.org/1999/xlink" version="1.1" width="2048" height="2048" viewBox="-10 0 2058 2048">
   <path fill="currentColor"
d="M1024 0l-837 375v557q0 253 109 488.5t301 401t427 226.5q235 -61 427 -226.5t301 -401t109 -488.5v-557zM1394 1246q-82 100 -204 133t-244 -2t-201 -135q-100 -122 -95.5 -272.5t100 -266t248.5 -145.5q22 0 37 17.5t6 38.5q-30 88 -23.5 183.5t54.5 178.5t126.5 135
t169.5 70q26 0 32.5 24t-6.5 41z" />
</svg>
