<?xml version="1.0" standalone="no"?>
<!DOCTYPE svg PUBLIC "-//W3C//DTD SVG 1.1//EN" "http://www.w3.org/Graphics/SVG/1.1/DTD/svg11.dtd" >
<svg xmlns="http://www.w3.org/2000/svg" xmlns:xlink="http://www.w3.org/1999/xlink" version="1.1" width="2048" height="2048" viewBox="-10 0 2068 2048">
   <path fill="currentColor"
d="M1654 1504q-63 106 -154 106q-62 -5 -168 -62l-34 -24q-96 -58 -139 -68q-67 -19 -111 39q-38 43 -33 120q4 43 33 144l15 58q24 101 5 149q-34 67 -154 81q-101 -9 -120 -91q-15 -53 4 -173l10 -34q19 -115 19 -163q-5 -82 -57 -106q-49 -33 -92 0q-29 19 -81 92l-20 24
q-62 81 -110 105q-72 44 -154 0q-77 -62 -72 -115q5 -38 58 -101q67 -72 86 -130q38 -91 10 -197q-15 -38 -58 -48q-29 -5 -96 -5h-48q-87 -4 -125 -28q-58 -34 -67 -125q-5 -58 33 -92q24 -24 82 -48l19 -9q58 -20 77 -34q34 -29 36 -62.5t-12 -67.5q-10 -24 -34 -58
l-19 -33q-24 -39 -21.5 -77.5t45.5 -86.5q72 -57 149 -28q48 19 130 96l10 5q81 81 125 100q76 39 144 -4q48 -34 33 -96q-14 -39 -67 -125l-19 -29q-58 -87 -53 -135q0 -67 106 -96q91 -24 149 29q38 33 81 134l15 29q38 101 67 140q53 62 120 77q96 19 193 -68
q57 -53 158 -192l39 -48q101 -135 168 -163q96 -39 197 88.5t34 223.5q-44 62 -202 139l-53 20q-154 67 -207 110q-91 67 -62 154q14 48 67 48q29 0 110 -29l34 -14q91 -29 139 -20q77 20 111 121t-38 149q-48 33 -173 48l-87 9q-110 5 -149 15q-67 19 -72 57.5t34 67.5
q19 19 86 53l43 24q72 38 97 81q33 63 -10 149zM1894 1740q-67 0 -105.5 -46t-38.5 -108t38.5 -108t108 -46t110.5 46t41 108t-41 108t-113 46z" />
</svg>
