<?xml version="1.0" standalone="no"?>
<!DOCTYPE svg PUBLIC "-//W3C//DTD SVG 1.1//EN" "http://www.w3.org/Graphics/SVG/1.1/DTD/svg11.dtd" >
<svg xmlns="http://www.w3.org/2000/svg" xmlns:xlink="http://www.w3.org/1999/xlink" version="1.1" width="2048" height="2048" viewBox="-10 0 2058 2048">
   <path fill="currentColor"
d="M298 896v428q0 196 98 362t264 264t364 98t364 -98t264 -264t98 -362v-728q0 -88 -64 -150t-152 -62q-28 0 -40 4v-48q0 -88 -64 -150t-152 -62q-28 0 -56 8q-24 -60 -78 -98t-122 -38q-76 0 -136 50t-72 126q-16 -4 -48 -4q-88 0 -150 62t-62 150v304q-12 -4 -44 -4
q-88 0 -150 62t-62 150zM470 896q0 -16 12 -30t30 -14t30 14t12 30v384q108 0 182 74t74 182h172q0 -128 -72 -234t-184 -158v-760q0 -16 12 -30t30 -14t30 14t12 30v556h172v-728q0 -16 12 -28t30 -12t30 12t12 28v728h172v-600q0 -16 12 -28t30 -12t30 12t12 28v684h172
v-428q0 -16 12 -28t30 -12t30 12t12 28v728q0 148 -74 276t-202 202t-278 74t-278 -74t-202 -202t-74 -276v-428z" />
</svg>
