<?xml version="1.0" standalone="no"?>
<!DOCTYPE svg PUBLIC "-//W3C//DTD SVG 1.1//EN" "http://www.w3.org/Graphics/SVG/1.1/DTD/svg11.dtd" >
<svg xmlns="http://www.w3.org/2000/svg" xmlns:xlink="http://www.w3.org/1999/xlink" version="1.1" width="2048" height="2048" viewBox="-10 0 2058 2048">
   <path fill="currentColor"
d="M1538 684q-32 0 -44 4v-304q0 -88 -62 -150t-150 -62q-32 0 -48 4q-12 -76 -72 -126t-136 -50q-68 0 -122 38t-78 98q-28 -8 -56 -8q-88 0 -152 62t-64 150v48q-12 -4 -40 -4q-88 0 -152 62t-64 150v728q0 196 98 362t264 264t364 98t364 -98t264 -264t98 -362v-428
q0 -88 -62 -150t-150 -62zM1578 1324q0 148 -74 276t-202 202t-278 74t-278 -74t-202 -202t-74 -276v-728q0 -16 12 -28t30 -12t30 12t12 28v428h172v-684q0 -16 12 -28t30 -12t30 12t12 28v600h172v-728q0 -16 12 -28t30 -12t30 12t12 28v728h172v-556q0 -16 12 -30t30 -14
t30 14t12 30v760q-112 52 -184 158t-72 234h172q0 -108 74 -182t182 -74v-384q0 -16 12 -30t30 -14t30 14t12 30v428z" />
</svg>
