<?xml version="1.0" standalone="no"?>
<!DOCTYPE svg PUBLIC "-//W3C//DTD SVG 1.1//EN" "http://www.w3.org/Graphics/SVG/1.1/DTD/svg11.dtd" >
<svg xmlns="http://www.w3.org/2000/svg" xmlns:xlink="http://www.w3.org/1999/xlink" version="1.1" width="2048" height="2048" viewBox="-10 0 2068 2048">
   <path fill="currentColor"
d="M1024 0q-279 0 -514.5 137t-372.5 372.5t-137 514.5v1024h2048v-1024q0 -279 -137 -514.5t-372.5 -372.5t-514.5 -137zM1380 524q-116 -82 -255 -106v-206q221 24 404 163zM668 524l-149 -149q183 -139 404 -163v206q-139 24 -255 106zM375 519l149 149q-82 116 -106 255
h-206q24 -221 163 -404zM409 1125v260h-207v-260h207zM202 1846v-260h207v260h-207zM1433 1846h-818v-822q0 -168 120.5 -288.5t288.5 -120.5t288.5 120.5t120.5 288.5v822zM1524 668l149 -149q139 183 163 404h-206q-24 -139 -106 -255zM1639 1125h207v260h-207v-260z
M1639 1846v-260h207v260h-207z" />
</svg>
