<?xml version="1.0" standalone="no"?>
<!DOCTYPE svg PUBLIC "-//W3C//DTD SVG 1.1//EN" "http://www.w3.org/Graphics/SVG/1.1/DTD/svg11.dtd" >
<svg xmlns="http://www.w3.org/2000/svg" xmlns:xlink="http://www.w3.org/1999/xlink" version="1.1" width="2048" height="2048" viewBox="-10 0 2058 2048">
   <path fill="currentColor"
d="M982 1860h-581q-48 0 -85 -35t-37 -87v-1428q0 -52 37 -89.5t85 -37.5h157v-183h559v183h157q48 0 85 37.5t37 89.5v620q-91 0 -187 31v-590h-743v1306h402q39 105 114 183zM1396 1022l210 209l-210 210v-140q-82 0 -145.5 52.5t-81 131t17.5 157.5l-101 100
q-78 -122 -58.5 -257.5t122 -229t246.5 -93.5v-140zM1396 2048l-209 -210l209 -209v140q83 0 146.5 -52.5t81 -131t-17.5 -153.5l101 -100q78 118 58.5 255.5t-122 229t-247.5 91.5v140z" />
</svg>
