<?xml version="1.0" standalone="no"?>
<!DOCTYPE svg PUBLIC "-//W3C//DTD SVG 1.1//EN" "http://www.w3.org/Graphics/SVG/1.1/DTD/svg11.dtd" >
<svg xmlns="http://www.w3.org/2000/svg" xmlns:xlink="http://www.w3.org/1999/xlink" version="1.1" width="2048" height="2048" viewBox="-10 0 2058 2048">
   <path fill="currentColor"
d="M1920 1832l-1684 -1684l-108 108l208 208q-48 60 -48 132v768q0 188 92 344t248 248t342 92t348 -92t262 -248l232 232zM972 1876q-140 0 -258 -68t-186 -186t-68 -258v-776l84 84v352h172v-180l84 84v96h96l556 560q-68 132 -198 212t-282 80zM716 408l-156 -152
q28 -56 80 -92t116 -36q32 0 60 8q24 -60 78 -98t118 -38q80 0 138 50t74 126q12 -4 44 -4q88 0 152 62t64 150v504q44 -44 104 -56l64 -20q56 -16 106 4t82 68q24 36 26 80t-14 84l-140 356l-132 -128l116 -300l-44 12q-64 16 -84 80l-56 140l-200 -200v-624q0 -16 -12 -30
t-30 -14t-30 14t-12 30v536l-172 -168v-540q0 -16 -12 -28t-30 -12t-30 12t-12 28v452l-172 -168v-156q0 -16 -12 -28t-30 -12t-30 12t-12 28v68z" />
</svg>
