<?xml version="1.0" standalone="no"?>
<!DOCTYPE svg PUBLIC "-//W3C//DTD SVG 1.1//EN" "http://www.w3.org/Graphics/SVG/1.1/DTD/svg11.dtd" >
<svg xmlns="http://www.w3.org/2000/svg" xmlns:xlink="http://www.w3.org/1999/xlink" version="1.1" width="2048" height="2048" viewBox="-10 0 2068 2048">
   <path fill="currentColor"
d="M1024 817q53 -14 106 -24q120 -38 197 -81q106 -68 106 -140q0 -38 -41 -163t-41 -171t43 -108q19 -29 39 -48l-82 -82q-72 38 -161 38t-166 -38q-77 38 -166 38t-161 -38l-82 82l39 48q43 62 43 108t-41 171t-41 163q0 101 202 188q106 38 207 57zM966 337l58 -135
l58 135l149 14l-116 96l34 144l-125 -77l-125 77l34 -144l-116 -96zM1947 409h-447q38 110 38 163q0 149 -206 250q-116 63 -289 101h-38q-173 -38 -289 -101q-206 -101 -206 -250q0 -53 38 -163h-447q-43 0 -72 31t-29 70v1538h817v-510h414v510h817v-1538q0 -39 -29 -70
t-72 -31zM615 1846h-413v-308h413v308zM615 1332h-413v-308h413v308zM1231 1332h-414v-308h414v308zM1846 1846h-413v-308h413v308zM1846 1332h-413v-308h413v308z" />
</svg>
