<?xml version="1.0" standalone="no"?>
<!DOCTYPE svg PUBLIC "-//W3C//DTD SVG 1.1//EN" "http://www.w3.org/Graphics/SVG/1.1/DTD/svg11.dtd" >
<svg xmlns="http://www.w3.org/2000/svg" xmlns:xlink="http://www.w3.org/1999/xlink" version="1.1" width="2048" height="2048" viewBox="-10 0 2068 2048">
   <path fill="currentColor"
d="M2048 1332h-202v307q0 87 -60 147t-147 60h-307v202l-308 -308l308 -307v206h307v-307h-206l307 -308zM2048 202v413q0 82 -60 142t-142 60h-1029v1029q0 82 -60 142t-142 60h-413q-82 0 -142 -60t-60 -142v-1644q0 -82 60 -142t142 -60h1644q82 0 142 60t60 142z
M202 615h413v-413h-413v413zM202 817v414h413v-414h-413zM615 1846v-413h-413v413h413zM1231 615v-413h-414v413h414zM1846 202h-413v413h413v-413z" />
</svg>
