<?xml version="1.0" standalone="no"?>
<!DOCTYPE svg PUBLIC "-//W3C//DTD SVG 1.1//EN" "http://www.w3.org/Graphics/SVG/1.1/DTD/svg11.dtd" >
<svg xmlns="http://www.w3.org/2000/svg" xmlns:xlink="http://www.w3.org/1999/xlink" version="1.1" width="2048" height="2048" viewBox="-10 0 2058 2048">
   <path fill="currentColor"
d="M1920 1832l-1684 -1684l-108 108l500 504v128q-44 -44 -104 -56l-64 -20q-56 -16 -106 4t-82 68q-24 36 -26 80t14 84l220 552q80 200 260 324t400 124q160 0 296 -66t232 -186l144 144zM1140 1876q-164 0 -302 -92t-202 -248l-220 -560l44 12q64 16 84 80l84 212h172
v-352l748 748q-72 92 -178 146t-230 54zM800 496l-164 -164q20 -72 76 -116t132 -44q32 0 44 4q16 -76 74 -126t138 -50q64 0 118 38t78 98q28 -8 60 -8q88 0 150 62t62 150v48q12 -4 44 -4q88 0 150 62t62 150v768q0 72 -16 140l-156 -156v-752q0 -16 -12 -28t-30 -12
t-30 12t-12 28v428h-172v-684q0 -16 -12 -28t-30 -12t-30 12t-12 28v668l-172 -172v-624q0 -16 -12 -28t-30 -12t-30 12t-12 28v540l-172 -172v-196q0 -16 -12 -30t-30 -14t-30 14t-12 30v112z" />
</svg>
