<?xml version="1.0" standalone="no"?>
<!DOCTYPE svg PUBLIC "-//W3C//DTD SVG 1.1//EN" "http://www.w3.org/Graphics/SVG/1.1/DTD/svg11.dtd" >
<svg xmlns="http://www.w3.org/2000/svg" xmlns:xlink="http://www.w3.org/1999/xlink" version="1.1" width="2048" height="2048" viewBox="-10 0 2068 2048">
   <path fill="currentColor"
d="M2048 96q-275 0 -540 122q-240 -122 -484 -122t-484 122q-265 -122 -540 -122v183q170 0 344 61q-83 61 -100 87q-57 57 -57 131v1024q0 152 109 261t264 109t263.5 -109t108.5 -261v-1024q0 -83 -65 -140q-52 -43 -122 -87q144 -52 279 -52t279 52q-70 44 -122 87
q-65 57 -65 140v1024q0 152 108.5 261t263.5 109t264 -109t109 -261v-1024q0 -74 -57 -131q-17 -26 -100 -87q174 -61 344 -61v-183zM745 558v1024q0 78 -54.5 132.5t-130.5 54.5t-130.5 -54.5t-54.5 -132.5v-1024l43 -39q61 -48 131 -92q122 70 196 131zM1673 558v1024
q0 78 -54.5 132.5t-130.5 54.5t-130.5 -54.5t-54.5 -132.5v-1024l52 -39q70 -48 144 -92q109 70 174 131z" />
</svg>
