<?xml version="1.0" standalone="no"?>
<!DOCTYPE svg PUBLIC "-//W3C//DTD SVG 1.1//EN" "http://www.w3.org/Graphics/SVG/1.1/DTD/svg11.dtd" >
<svg xmlns="http://www.w3.org/2000/svg" xmlns:xlink="http://www.w3.org/1999/xlink" version="1.1" width="2048" height="2048" viewBox="-10 0 2068 2048">
   <path fill="currentColor"
d="M2048 1125v822h-202v-207h-351q-62 140 -189.5 224t-281.5 84t-281.5 -84t-189.5 -224h-351v207h-202v-822h202v207h356q77 -183 259 -265v-144h-202v-207h818v207h-202v144q182 82 259 265h356v-207h202zM1538 0h-1028q-39 0 -70 29t-31 72t31 72t70 29h307v106h106v307
h202v-307h106v-106h307q39 0 70 -29t31 -72t-31 -72t-70 -29z" />
</svg>
