<?xml version="1.0" standalone="no"?>
<!DOCTYPE svg PUBLIC "-//W3C//DTD SVG 1.1//EN" "http://www.w3.org/Graphics/SVG/1.1/DTD/svg11.dtd" >
<svg xmlns="http://www.w3.org/2000/svg" xmlns:xlink="http://www.w3.org/1999/xlink" version="1.1" width="2048" height="2048" viewBox="-10 0 2068 2048">
   <path fill="currentColor"
d="M1024 171q117 0 186.5 21t117.5 69q32 27 91 112l5 6q85 117 160 197q59 53 144 133h5q70 64 91 91q32 37 42.5 82.5t10.5 141.5q0 192 -5 256q-11 91 -45.5 152t-125.5 152l-10 11q-128 122 -176 165q-80 64 -163 90.5t-216 26.5q-85 0 -139 -26q-37 -16 -96 -64l-5 -6
q-75 -58 -128 -85q-91 -48 -197 -48q-230 0 -331 -224q-69 -155 -69 -400q0 -133 48 -240q58 -128 176 -165q133 -48 240 -139q64 -53 154 -160q80 -91 112 -112q54 -37 123 -37zM1024 0q-123 0 -213 64q-59 37 -150 144q-80 96 -133 139q-80 74 -187 106q-170 59 -261 230
q-80 154 -80 341q0 320 112 528q149 267 459 267q69 0 122 32q38 16 96 64q80 64 134 90q90 43 213 43q165 0 274.5 -37.5t205.5 -111.5q64 -54 203 -192q112 -112 160 -200t58 -206q11 -74 11 -277q0 -128 -21.5 -202.5t-69.5 -133.5q-32 -32 -114.5 -106.5t-135.5 -128.5
q-59 -58 -150 -176q-69 -101 -112 -138q-69 -70 -160 -102q-106 -37 -261 -37zM1024 571q-187 0 -320 133t-133 320t133 320t320 133t320 -133t133 -320t-133 -320t-320 -133zM1024 795q-96 0 -162.5 66.5t-66.5 162.5h-112q0 -139 101 -240t240 -101v112z" />
</svg>
