<?xml version="1.0" standalone="no"?>
<!DOCTYPE svg PUBLIC "-//W3C//DTD SVG 1.1//EN" "http://www.w3.org/Graphics/SVG/1.1/DTD/svg11.dtd" >
<svg xmlns="http://www.w3.org/2000/svg" xmlns:xlink="http://www.w3.org/1999/xlink" version="1.1" width="2048" height="2048" viewBox="-10 0 2068 2048">
   <path fill="currentColor"
d="M1030 1566l467 -631q16 -21 25.5 -55.5t11 -77.5t-22 -88t-71.5 -77q-41 -27 -83.5 -33.5t-79 5t-66 31.5t-52.5 46q-46 54 -129 54q-80 0 -126 -54q-23 -26 -52.5 -46t-66 -31.5t-79.5 -5t-84 33.5q-47 32 -70 77t-22 88t11 77.5t25 55.5zM2048 1024.5
q0 139.5 -36.5 272t-102.5 245t-160.5 207t-207 160.5t-245 102.5t-272 36.5t-272 -36.5t-245 -102.5t-207 -160.5t-160.5 -207t-103 -245t-37 -272t37 -272t103 -245t160.5 -207t207 -160.5t245 -103t272 -37t272 37t245 103t207 160.5t160.5 207t102.5 245t36.5 272z" />
</svg>
