<?xml version="1.0" standalone="no"?>
<!DOCTYPE svg PUBLIC "-//W3C//DTD SVG 1.1//EN" "http://www.w3.org/Graphics/SVG/1.1/DTD/svg11.dtd" >
<svg xmlns="http://www.w3.org/2000/svg" xmlns:xlink="http://www.w3.org/1999/xlink" version="1.1" width="2048" height="2048" viewBox="-10 0 2068 2048">
   <path fill="currentColor"
d="M1024 0q-279 0 -514.5 137t-372.5 372.5t-137 514.5t137 514.5t372.5 372.5t514.5 137t514.5 -137t372.5 -372.5t137 -514.5t-137 -514.5t-372.5 -372.5t-514.5 -137zM1024 817q87 0 147 60t60 147t-60 147t-147 60t-147 -60t-60 -147t60 -147t147 -60zM202 1024
q0 -250 139.5 -454.5t360.5 -300.5l154 380q-111 53 -176 154t-65 221h-413zM1024 1846q-236 0 -433 -125l226 -341q96 53 207 53t207 -53l226 341q-197 125 -433 125zM1433 1024q0 -120 -65 -221t-176 -154l154 -380q226 96 363 300.5t137 454.5h-413z" />
</svg>
