<?xml version="1.0" standalone="no"?>
<!DOCTYPE svg PUBLIC "-//W3C//DTD SVG 1.1//EN" "http://www.w3.org/Graphics/SVG/1.1/DTD/svg11.dtd" >
<svg xmlns="http://www.w3.org/2000/svg" xmlns:xlink="http://www.w3.org/1999/xlink" version="1.1" width="2048" height="2048" viewBox="-10 0 2068 2048">
   <path fill="currentColor"
d="M1024 0q202 0 392 77t334 221t221 334t77 392t-77 392t-221 334t-334 221t-392 77t-392 -77t-334 -221t-221 -334t-77 -392q0 -279 137 -514.5t372.5 -372.5t514.5 -137zM1024 202q-221 0 -411 110.5t-300.5 300.5t-110.5 411t110.5 411t300.5 300.5t411 110.5
t411 -110.5t300.5 -300.5t110.5 -411q0 -163 -62.5 -314.5t-178 -267t-267 -178t-314.5 -62.5zM1178 1231l211 288q-163 120 -365 120t-365 -120l211 -288q72 48 154 48t154 -48zM1024 923q43 0 72 29t29 72t-29 72t-72 29t-72 -29t-29 -72t29 -72t72 -29zM750 471l159 322
q-63 34 -101.5 94t-38.5 137h-360q0 -178 93.5 -324.5t247.5 -228.5zM1298 471q154 82 247.5 228.5t93.5 324.5h-360q0 -77 -38.5 -137t-101.5 -94z" />
</svg>
