<?xml version="1.0" standalone="no"?>
<!DOCTYPE svg PUBLIC "-//W3C//DTD SVG 1.1//EN" "http://www.w3.org/Graphics/SVG/1.1/DTD/svg11.dtd" >
<svg xmlns="http://www.w3.org/2000/svg" xmlns:xlink="http://www.w3.org/1999/xlink" version="1.1" width="2048" height="2048" viewBox="-10 0 2058 2048">
   <path fill="currentColor"
d="M1682 1023.5q0 -133.5 -52 -255.5t-140.5 -210.5t-210 -140.5t-255.5 -52t-255.5 52t-210 140.5t-140.5 210.5t-52 255.5t52 255.5t140.5 210.5t210 140.5t255.5 52t255.5 -52t210 -140.5t140.5 -210.5t52 -255.5zM1998 1340q-5 17 -23 23l-334 110v349q0 18 -15 30
q-17 12 -33 5l-334 -108l-205 284q-12 15 -30 15t-30 -15l-205 -284l-334 108q-16 7 -33 -5q-15 -12 -15 -30v-349l-334 -110q-18 -6 -23 -23q-6 -20 5 -33l206 -283l-206 -284q-10 -15 -5 -33t23 -23l334 -110v-349q0 -19 15 -30q17 -13 33 -5l334 108l205 -284
q10 -14 30 -14t30 14l205 284l334 -108q16 -8 33 5q15 11 15 30v349l334 110q18 5 23 23t-5 33l-206 284l206 283q11 13 5 33z" />
</svg>
