<?xml version="1.0" standalone="no"?>
<!DOCTYPE svg PUBLIC "-//W3C//DTD SVG 1.1//EN" "http://www.w3.org/Graphics/SVG/1.1/DTD/svg11.dtd" >
<svg xmlns="http://www.w3.org/2000/svg" xmlns:xlink="http://www.w3.org/1999/xlink" version="1.1" width="2048" height="2048" viewBox="-10 0 2068 2048">
   <path fill="currentColor"
d="M2048 1925l-352 -352l-430 -430l-727 -727l-416 -416l-123 123l137 142q-50 82 -50 151v489q0 55 34 123.5t94 114.5q73 55 162 55t194 -73v658q0 36 30 66t71 30h96q41 0 68.5 -30t27.5 -66v-791l439 439v352q0 36 29.5 66t70.5 30h192q32 0 57.5 -18.5t34.5 -50.5
l238 238zM672 827l-206 133q-59 41 -87 41q-45 0 -77 -46q-23 -36 -23 -50v-484q0 -10 4 -14l389 388v32zM1211 837l-242 -243q23 -201 174 -336t356 -135q147 0 270.5 73.5t194 194.5t70.5 267q0 206 -134.5 359t-336.5 176l-242 -242q82 50 178 50q142 0 242.5 -100.5
t100.5 -242t-100.5 -240t-242 -98.5t-242 98.5t-100.5 239.5q0 96 54 179z" />
</svg>
