<?xml version="1.0" standalone="no"?>
<!DOCTYPE svg PUBLIC "-//W3C//DTD SVG 1.1//EN" "http://www.w3.org/Graphics/SVG/1.1/DTD/svg11.dtd" >
<svg xmlns="http://www.w3.org/2000/svg" xmlns:xlink="http://www.w3.org/1999/xlink" version="1.1" width="2048" height="2048" viewBox="-10 0 2068 2048">
   <path fill="currentColor"
d="M1925 2048l-270 -265h-105q-83 0 -140 -57t-57 -140v-109l-228 -229l-83 50q-68 41 -146 18.5t-119 -91.5l-146 -251q-32 -51 -27.5 -108t36.5 -103l-640 -640l123 -123l1925 1925zM1696 1097q0 -82 -55 -146l192 -110q78 -46 98.5 -128t-20.5 -155l-137 -233
q-41 -74 -123.5 -96.5t-155.5 18.5l-553 320l690 695q64 -69 64 -165zM87 1061l338 594l247 -311l-192 -338z" />
</svg>
