<?xml version="1.0" standalone="no"?>
<!DOCTYPE svg PUBLIC "-//W3C//DTD SVG 1.1//EN" "http://www.w3.org/Graphics/SVG/1.1/DTD/svg11.dtd" >
<svg xmlns="http://www.w3.org/2000/svg" xmlns:xlink="http://www.w3.org/1999/xlink" version="1.1" width="2048" height="2048" viewBox="-10 0 2068 2048">
   <path fill="currentColor"
d="M1522 836q-79 -79 -187.5 -79t-187.5 79.5t-79 187.5t79 187.5t187.5 79.5t188 -79.5t79.5 -187.5t-80 -188zM621 490v1068h1427v-1068h-1427zM1869 1203q-75 0 -127.5 52.5t-52.5 123.5h-709q0 -71 -52 -123.5t-127 -52.5v-358q75 0 127 -52.5t52 -123.5h709
q0 71 52.5 123.5t127.5 52.5v358zM446 669h-179q-38 0 -63 -27t-25 -62.5t25 -62.5t63 -27h179v179zM446 1112h-267q-37 0 -64 -25t-27 -63t27 -63t64 -25h267v176zM446 1558h-358q-34 0 -61 -27t-27 -62.5t27 -62.5t61 -27h358v179z" />
</svg>
