<?xml version="1.0" standalone="no"?>
<!DOCTYPE svg PUBLIC "-//W3C//DTD SVG 1.1//EN" "http://www.w3.org/Graphics/SVG/1.1/DTD/svg11.dtd" >
<svg xmlns="http://www.w3.org/2000/svg" xmlns:xlink="http://www.w3.org/1999/xlink" version="1.1" width="2048" height="2048" viewBox="-10 0 2068 2048">
   <path fill="currentColor"
d="M308 101q-96 0 -173 58q-63 48 -99 120t-36 130v514q0 58 36 130t99 120q77 58 170.5 58t204.5 -77v692q0 39 31 70t74 31h101q44 0 72.5 -31t28.5 -70v-1231q0 -101 -84 -223.5t-206.5 -206.5t-218.5 -84zM615 841l-216 140q-62 43 -91 43q-48 0 -82 -48
q-24 -39 -24 -53v-510q0 -24 24 -57q34 -48 79.5 -48t120 57.5t132 129.5t57.5 120v226zM1486 1332q105 0 206 -34v548q0 39 -31 70t-75 31h-201q-44 0 -75 -31t-31 -70v-548q101 34 207 34zM1486 101q-154 0 -284 77t-204.5 204.5t-74.5 281t74.5 283.5t204.5 207t283.5 77
t283.5 -77t204.5 -207t74.5 -283.5t-74.5 -281t-204.5 -204.5t-283 -77zM1486 1024q-150 0 -255.5 -106t-105.5 -255t105.5 -252t255 -103t255 103t105.5 252t-105.5 255t-254.5 106z" />
</svg>
