<?xml version="1.0" standalone="no"?>
<!DOCTYPE svg PUBLIC "-//W3C//DTD SVG 1.1//EN" "http://www.w3.org/Graphics/SVG/1.1/DTD/svg11.dtd" >
<svg xmlns="http://www.w3.org/2000/svg" xmlns:xlink="http://www.w3.org/1999/xlink" version="1.1" width="2048" height="2048" viewBox="-10 0 2068 2048">
   <path fill="currentColor"
d="M1819 1136v-224h229v224h-229zM2048 683v-230h-229v230h229zM2048 0h-229v229h229v-229zM1595 1365h224v-229h-224v229zM2048 1595v-230h-229v230h229zM1136 1595v-230h229v-229h-229v-224h229v-229h-229v-230h229v-224h-229v-229h-1136v2048h1136v-229h229v-224h-229z
M1365 2048h230v-229h-230v229zM1595 0h-230v229h230v-229zM1595 912h224v-229h-224v229zM1365 1595h230v-230h-230v230zM1595 1819h224v-224h-224v224zM2048 2048v-229h-229v229h229zM1365 683h230v-230h-230v230zM1365 1136h230v-224h-230v224zM1595 229v224h224v-224h-224
z" />
</svg>
