<?xml version="1.0" standalone="no"?>
<!DOCTYPE svg PUBLIC "-//W3C//DTD SVG 1.1//EN" "http://www.w3.org/Graphics/SVG/1.1/DTD/svg11.dtd" >
<svg xmlns="http://www.w3.org/2000/svg" xmlns:xlink="http://www.w3.org/1999/xlink" version="1.1" width="2048" height="2048" viewBox="-10 0 2068 2048">
   <path fill="currentColor"
d="M1024 202q221 0 411 110.5t300.5 300.5t110.5 411t-110.5 411t-300.5 300.5t-411 110.5t-411 -110.5t-300.5 -300.5t-110.5 -411t110.5 -411t300.5 -300.5t411 -110.5zM1024 0q-279 0 -514.5 137t-372.5 372.5t-137 514.5t137 514.5t372.5 372.5t514.5 137t514.5 -137
t372.5 -372.5t137 -514.5t-137 -514.5t-372.5 -372.5t-514.5 -137zM1178 1486q0 -63 -46 -108.5t-108 -45.5t-108 45.5t-46 108t46 108t108 45.5t108 -45.5t46 -107.5zM716 1024q0 -62 -45.5 -108t-108 -46t-108 46t-45.5 108t45.5 108t108 46t108 -46t45.5 -108zM1639 1024
q0 -62 -45.5 -108t-108 -46t-108 46t-45.5 108t45.5 108t108 46t108 -46t45.5 -108z" />
</svg>
