<?xml version="1.0" standalone="no"?>
<!DOCTYPE svg PUBLIC "-//W3C//DTD SVG 1.1//EN" "http://www.w3.org/Graphics/SVG/1.1/DTD/svg11.dtd" >
<svg xmlns="http://www.w3.org/2000/svg" xmlns:xlink="http://www.w3.org/1999/xlink" version="1.1" width="2048" height="2048" viewBox="-10 0 2068 2048">
   <path fill="currentColor"
d="M1876 468h-1108q-72 0 -122 50t-50 122v768q0 72 50 122t122 50h1108q72 0 122 -50t50 -122v-768q0 -72 -50 -122t-122 -50zM1876 784l-552 284l-556 -284v-144l556 284l552 -284v144zM428 1408v32l4 12h-348q-32 0 -58 -26t-26 -60t26 -60t58 -26h344v128zM256 596h176
l-4 44v128h-172q-36 0 -60 -26t-24 -60t24 -60t60 -26zM84 1024q0 -36 26 -60t62 -24h256v168h-256q-36 0 -62 -24t-26 -60z" />
</svg>
