<?xml version="1.0" standalone="no"?>
<!DOCTYPE svg PUBLIC "-//W3C//DTD SVG 1.1//EN" "http://www.w3.org/Graphics/SVG/1.1/DTD/svg11.dtd" >
<svg xmlns="http://www.w3.org/2000/svg" xmlns:xlink="http://www.w3.org/1999/xlink" version="1.1" width="2048" height="2048" viewBox="-10 0 2058 2048">
   <path fill="currentColor"
d="M932 466v558h-557v-558h183v-370q0 -39 28 -67.5t65 -28.5t65.5 28.5t28.5 67.5v370h187zM375 1211v183q0 92 50 164t133 98v392h187v-392q83 -26 135 -98t52 -164v-183h-557zM1490 466v-370q0 -39 -28 -67.5t-65 -28.5t-65.5 28.5t-28.5 67.5v370h-187v558h557v-558
h-183zM1116 1211v183q0 92 52 164t135 98v392h187v-392q83 -26 133 -98t50 -164v-183h-557z" />
</svg>
