<?xml version="1.0" standalone="no"?>
<!DOCTYPE svg PUBLIC "-//W3C//DTD SVG 1.1//EN" "http://www.w3.org/Graphics/SVG/1.1/DTD/svg11.dtd" >
<svg xmlns="http://www.w3.org/2000/svg" xmlns:xlink="http://www.w3.org/1999/xlink" version="1.1" width="2048" height="2048" viewBox="-10 0 2068 2048">
   <path fill="currentColor"
d="M1244 1305l-346 -211v-598h149v523l304 183q-60 46 -107 103zM1103 1786q-56 10 -107 10q-215 0 -400 -108t-292.5 -292.5t-107.5 -399.5t107.5 -400t292.5 -292.5t400 -107.5t399.5 107.5t292.5 292.5t108 400q0 51 -10 107q103 15 192 66q14 -89 14 -173
q0 -271 -133.5 -500t-362.5 -362.5t-500 -133.5t-500 133.5t-362.5 362.5t-133.5 500t133.5 500t362.5 362.5t500 133.5q84 0 173 -14q-51 -89 -66 -192zM1908 1342l-215 210l-211 -210l-140 140l210 211l-210 215l140 140l211 -215l215 215l140 -140l-215 -215l215 -211z
" />
</svg>
