<?xml version="1.0" standalone="no"?>
<!DOCTYPE svg PUBLIC "-//W3C//DTD SVG 1.1//EN" "http://www.w3.org/Graphics/SVG/1.1/DTD/svg11.dtd" >
<svg xmlns="http://www.w3.org/2000/svg" xmlns:xlink="http://www.w3.org/1999/xlink" version="1.1" width="2048" height="2048" viewBox="-10 0 2058 2048">
   <path fill="currentColor"
d="M1726 1567q-68 12 -146 12q-121 0 -237.5 -32.5t-215 -90t-181 -140.5t-140.5 -181.5t-90 -214.5t-32 -238q0 -260 138 -476q-177 52 -315 171t-216 288t-78 359q0 116 31 226.5t86 204t134 172.5t173 134t204.5 86t226.5 31q192 0 365 -82.5t293 -228.5zM1997 1454
q-82 179 -225 314t-325 207.5t-379 72.5q-139 0 -271.5 -37t-245 -103t-207.5 -160.5t-161 -207t-103 -245t-37 -271.5q0 -136 35 -266t98 -241t153.5 -205t198.5 -161t236.5 -106.5t264.5 -44.5q28 -1 49.5 13.5t31.5 39.5q11 25 5.5 51t-25.5 44q-114 105 -175 242.5
t-61 291.5q0 147 57.5 281.5t155 232t232 155t281.5 57.5q157 0 304 -69q26 -11 51 -6.5t44.5 24t24.5 46.5t-7 51z" />
</svg>
