<?xml version="1.0" standalone="no"?>
<!DOCTYPE svg PUBLIC "-//W3C//DTD SVG 1.1//EN" "http://www.w3.org/Graphics/SVG/1.1/DTD/svg11.dtd" >
<svg xmlns="http://www.w3.org/2000/svg" xmlns:xlink="http://www.w3.org/1999/xlink" version="1.1" width="2048" height="2048" viewBox="-10 0 2058 2048">
   <path fill="currentColor"
d="M1947 510v1538h-1846v-202h1639v-1336h-437q-29 48 -74.5 76.5t-103.5 28.5q0 82 -60 142t-142 60h-308q-86 0 -146 -60t-60 -142v-413q0 -82 60 -142t146 -60h308q82 0 142 60t60 142q58 0 103.5 29t74.5 77h437q87 0 147 60t60 142zM409 1332h716l-202 -409h-308z" />
</svg>
