<?xml version="1.0" standalone="no"?>
<!DOCTYPE svg PUBLIC "-//W3C//DTD SVG 1.1//EN" "http://www.w3.org/Graphics/SVG/1.1/DTD/svg11.dtd" >
<svg xmlns="http://www.w3.org/2000/svg" xmlns:xlink="http://www.w3.org/1999/xlink" version="1.1" width="2048" height="2048" viewBox="-10 0 2068 2048">
   <path fill="currentColor"
d="M928 987l-379 380l36 242l-105 105l-169 -311l-311 -173l101 -105l242 36l379 -379l-722 -380l137 -137l896 206l380 -380q41 -41 102.5 -41t105 41.5t43.5 103t-46 102.5l-379 380l128 553l-206 201zM1070 1801v197h201l599 -595l-201 -201zM2030 1166l-128 -128
q-14 -14 -34.5 -14t-34.5 14l-96 96l201 201l92 -96q18 -14 18 -34.5t-18 -38.5z" />
</svg>
