<?xml version="1.0" standalone="no"?>
<!DOCTYPE svg PUBLIC "-//W3C//DTD SVG 1.1//EN" "http://www.w3.org/Graphics/SVG/1.1/DTD/svg11.dtd" >
<svg xmlns="http://www.w3.org/2000/svg" xmlns:xlink="http://www.w3.org/1999/xlink" version="1.1" width="2048" height="2048" viewBox="-10 0 2068 2048">
   <path fill="currentColor"
d="M1619 235q41 46 41 105t-41 105l-378 378l205 894l-137 137l-379 -725l-378 383l32 237l-101 105l-173 -310l-310 -173l105 -105l242 36l378 -374l-725 -383l137 -137l894 205l378 -378q41 -41 105 -41t105 41zM1856 536v584h192v-584h-192zM1856 1512h192v-196h-192v196
z" />
</svg>
