<?xml version="1.0" standalone="no"?>
<!DOCTYPE svg PUBLIC "-//W3C//DTD SVG 1.1//EN" "http://www.w3.org/Graphics/SVG/1.1/DTD/svg11.dtd" >
<svg xmlns="http://www.w3.org/2000/svg" xmlns:xlink="http://www.w3.org/1999/xlink" version="1.1" width="2048" height="2048" viewBox="-10 0 2058 2048">
   <path fill="currentColor"
d="M375 1116l139 -419h1020l139 419h-1298zM1534 1582q-52 0 -96 -41.5t-44 -98t44 -98t98 -41.5t95.5 41.5t41.5 98t-41.5 98t-97.5 41.5zM514 1582q-56 0 -97.5 -41.5t-41.5 -98t41.5 -98t95.5 -41.5t98 41.5t44 98t-44 98t-96 41.5zM1665 654q-14 -44 -51 -70t-80 -26
h-1020q-48 0 -82.5 26t-48.5 70l-196 557v741q0 44 26.5 70t65.5 26h96q39 0 65 -26t26 -70v-91h1116v91q0 44 26 70t65 26h96q39 0 65.5 -26t26.5 -70v-741zM654 0l370 418l370 -418h-740z" />
</svg>
