<?xml version="1.0" standalone="no"?>
<!DOCTYPE svg PUBLIC "-//W3C//DTD SVG 1.1//EN" "http://www.w3.org/Graphics/SVG/1.1/DTD/svg11.dtd" >
<svg xmlns="http://www.w3.org/2000/svg" xmlns:xlink="http://www.w3.org/1999/xlink" version="1.1" width="2048" height="2048" viewBox="-10 0 2068 2048">
   <path fill="currentColor"
d="M1422 801q-116 0 -225 46l-62 -271l346 -347q37 -37 37 -93.5t-39.5 -96t-93.5 -39.5t-96 38l-346 346l-818 -188l-125 125l663 346l-346 347l-221 -30l-96 92l284 159l158 283l92 -96l-29 -221l346 -346l87 175q-137 171 -137 392q0 171 83.5 315t227 227.5t312.5 83.5
t313 -83.5t227.5 -227.5t83.5 -313t-83.5 -312.5t-227.5 -227t-315 -83.5zM1422 1869q-121 0 -223 -60.5t-160.5 -163t-58.5 -223.5t58.5 -223t160.5 -160.5t223 -58.5t223.5 58.5t163 160.5t60.5 223t-60.5 223.5t-163 163t-223.5 60.5zM1468 1447v-379h-133v446l321 192
l67 -108z" />
</svg>
