<?xml version="1.0" standalone="no"?>
<!DOCTYPE svg PUBLIC "-//W3C//DTD SVG 1.1//EN" "http://www.w3.org/Graphics/SVG/1.1/DTD/svg11.dtd" >
<svg xmlns="http://www.w3.org/2000/svg" xmlns:xlink="http://www.w3.org/1999/xlink" version="1.1" width="2048" height="2048" viewBox="-10 0 2058 2048">
   <path fill="currentColor"
d="M1024 392q-74 0 -125 51.5t-51 120.5v90h-302q-45 0 -78 24.5t-49 61.5l-180 523v699q0 33 26.5 59.5t59.5 26.5h90q33 0 59.5 -26.5t26.5 -59.5v-90h1046v90q0 33 26.5 59.5t59.5 26.5h90q33 0 59.5 -26.5t26.5 -59.5v-699l-180 -523q-16 -37 -49 -61.5t-78 -24.5h-302
v-90q0 -69 -51 -120.5t-125 -51.5zM546 785h956l131 392h-1218zM546 1349q53 0 92 39t39 94t-39 92t-94.5 37t-92 -37t-36.5 -92t36.5 -94t94.5 -39zM1502 1349q58 0 94.5 39t36.5 94t-36.5 92t-92 37t-94.5 -37t-39 -92t39 -94t92 -39zM1392 253q-82 -73 -176 -112
t-192 -39t-192 39t-176 112l-69 -73q90 -90 204 -135t233 -45t233 45t204 135zM1310 323l-69 69q-86 -90 -217 -90t-217 90l-69 -69q57 -61 132.5 -92t153.5 -31t153.5 31t132.5 92z" />
</svg>
