<?xml version="1.0" standalone="no"?>
<!DOCTYPE svg PUBLIC "-//W3C//DTD SVG 1.1//EN" "http://www.w3.org/Graphics/SVG/1.1/DTD/svg11.dtd" >
<svg xmlns="http://www.w3.org/2000/svg" xmlns:xlink="http://www.w3.org/1999/xlink" version="1.1" width="2048" height="2048" viewBox="-10 0 2065 2048">
   <path fill="currentColor"
d="M1282 1004q-139 75 -227 201l-166 -310l-362 363l35 231l-101 100l-161 -296l-297 -166l96 -101l231 35l363 -362l-690 -363l131 -131l856 197l362 -363q40 -39 98.5 -39t100 39.5t41.5 98.5t-43 98l-363 362zM2033 1712q5 0 5 6.5t-5 10.5l-96 162q-8 9 -26 9l-113 -40
l-75 48l-17 123q0 4 -6.5 10.5t-11.5 6.5h-187q-9 0 -26 -17l-22 -123q-40 -13 -75 -48l-109 48q-17 0 -30 -8l-92 -158q-9 -13 9 -30l105 -74v-92l-105 -74q-9 -9 -9 -31l92 -157q13 -9 30 -9l109 48l75 -48l22 -122q0 -18 26 -18h187q5 0 11.5 6.5t6.5 11.5l17 122
q31 9 88 48l109 -48q30 0 30 9l92 157q9 9 -9 31l-104 74v92zM1723 1581q0 -53 -41.5 -96.5t-96 -43.5t-98 43.5t-43.5 98.5t43.5 96t98 41t96 -41t41.5 -98z" />
</svg>
