<?xml version="1.0" standalone="no"?>
<!DOCTYPE svg PUBLIC "-//W3C//DTD SVG 1.1//EN" "http://www.w3.org/Graphics/SVG/1.1/DTD/svg11.dtd" >
<svg xmlns="http://www.w3.org/2000/svg" xmlns:xlink="http://www.w3.org/1999/xlink" version="1.1" width="2048" height="2048" viewBox="-10 0 2068 2048">
   <path fill="currentColor"
d="M1819 1024q0 155 -109.5 267t-267 112t-269.5 -112l-69 -64l123 -123l69 69q59 59 144 59t146.5 -61.5t61.5 -146.5t-61.5 -146.5t-146.5 -61.5t-144 59l-421 416q-107 112 -267 112t-269.5 -112t-109.5 -267t109.5 -267t269.5 -112t267 112l69 64l-123 123l-64 -69
q-64 -59 -149 -59t-146.5 61.5t-61.5 146.5t61.5 146.5t146.5 61.5t149 -59l416 -416q112 -112 269.5 -112t267 112t109.5 267zM2048 229v1590q0 96 -66.5 162.5t-162.5 66.5h-1590q-96 0 -162.5 -66.5t-66.5 -162.5v-1590q0 -96 66.5 -162.5t162.5 -66.5h1590
q96 0 162.5 66.5t66.5 162.5zM1819 229h-1590v1590h1590v-1590z" />
</svg>
