<?xml version="1.0" standalone="no"?>
<!DOCTYPE svg PUBLIC "-//W3C//DTD SVG 1.1//EN" "http://www.w3.org/Graphics/SVG/1.1/DTD/svg11.dtd" >
<svg xmlns="http://www.w3.org/2000/svg" xmlns:xlink="http://www.w3.org/1999/xlink" version="1.1" width="2048" height="2048" viewBox="-10 0 2068 2048">
   <path fill="currentColor"
d="M1819 0h-1590q-96 0 -162.5 66.5t-66.5 162.5v1590q0 96 66.5 162.5t162.5 66.5h1590q96 0 162.5 -66.5t66.5 -162.5v-1590q0 -96 -66.5 -162.5t-162.5 -66.5zM1488 1467q-181 0 -309 -128l-75 -75l160 -160l75 75q64 64 152 64t152 -64t64 -155t-64 -155t-152 -64
t-152 64l-470 470q-128 128 -312 128t-314.5 -131t-130.5 -312t130.5 -312t314.5 -131t312 128l75 75l-160 160l-75 -75q-64 -64 -152 -64t-152 64t-64 155t64 155t152 64t152 -64l470 -470q128 -128 312 -128t314.5 131t130.5 312t-130.5 312t-317.5 131z" />
</svg>
