<?xml version="1.0" standalone="no"?>
<!DOCTYPE svg PUBLIC "-//W3C//DTD SVG 1.1//EN" "http://www.w3.org/Graphics/SVG/1.1/DTD/svg11.dtd" >
<svg xmlns="http://www.w3.org/2000/svg" xmlns:xlink="http://www.w3.org/1999/xlink" version="1.1" width="2048" height="2048" viewBox="-10 0 2068 2048">
   <path fill="currentColor"
d="M1362 1152q-132 78 -210 210l-224 -425l-379 380l36 242l-105 105l-169 -311l-311 -174l101 -105l242 37l379 -380l-722 -379l137 -137l896 206l380 -380q41 -41 102.5 -41t105 41t43.5 103t-46 103l-379 379zM1755 1559v-293h-196v293h-293v196h293v293h196v-293h293
v-196h-293z" />
</svg>
