<?xml version="1.0" standalone="no"?>
<!DOCTYPE svg PUBLIC "-//W3C//DTD SVG 1.1//EN" "http://www.w3.org/Graphics/SVG/1.1/DTD/svg11.dtd" >
<svg xmlns="http://www.w3.org/2000/svg" xmlns:xlink="http://www.w3.org/1999/xlink" version="1.1" width="2048" height="2048" viewBox="-10 0 2068 2048">
   <path fill="currentColor"
d="M1393 1178q-135 80 -215 215l-229 -434l-388 388l38 247l-108 108l-173 -318l-318 -178l103 -107l248 37l388 -388l-739 -388l140 -140l917 210l388 -388q42 -42 105 -42t107.5 42t44.5 105t-47 105l-388 389zM2048 1482l-140 -140l-215 210l-211 -210l-140 140l210 211
l-210 215l140 140l211 -215l215 215l140 -140l-215 -215z" />
</svg>
