<?xml version="1.0" standalone="no"?>
<!DOCTYPE svg PUBLIC "-//W3C//DTD SVG 1.1//EN" "http://www.w3.org/Graphics/SVG/1.1/DTD/svg11.dtd" >
<svg xmlns="http://www.w3.org/2000/svg" xmlns:xlink="http://www.w3.org/1999/xlink" version="1.1" width="2048" height="2048" viewBox="-10 0 2068 2048">
   <path fill="currentColor"
d="M2048 1167.5q0 33.5 -24 57.5t-58 24h-287q0 219 -86 371l267 268q24 24 24 57.5t-24 57.5q-23 25 -57 25q-36 0 -59 -25l-253 -252q-7 6 -19.5 16.5t-53 37t-83 46.5t-105.5 37t-124 17v-1148h-164v1148q-65 0 -130 -17.5t-111.5 -42.5t-84 -50t-56.5 -42l-19 -18
l-234 266q-25 27 -62 27q-30 0 -55 -21q-25 -23 -26.5 -57t20.5 -60l259 -290q-74 -146 -74 -351h-287q-34 0 -58 -24t-24 -57.5t24 -57.5t58 -24h287v-377l-222 -222q-25 -24 -25 -57.5t24.5 -57.5t58 -24t57.5 24l222 222h1080l222 -222q24 -24 57.5 -24t58 24t24.5 57.5
t-25 57.5l-222 222v377h287q34 0 58 24t24 57.5zM1434 429h-820q0 -111 55 -205.5t149.5 -149t205.5 -54.5t205.5 54.5t149.5 149t55 205.5z" />
</svg>
