<?xml version="1.0" standalone="no"?>
<!DOCTYPE svg PUBLIC "-//W3C//DTD SVG 1.1//EN" "http://www.w3.org/Graphics/SVG/1.1/DTD/svg11.dtd" >
<svg xmlns="http://www.w3.org/2000/svg" xmlns:xlink="http://www.w3.org/1999/xlink" version="1.1" width="2048" height="2048" viewBox="-10 0 2067 2048">
   <path fill="currentColor"
d="M2047 1883l-165 165l-731 -731l166 -165zM1151 0q-224 0 -434.5 85.5t-375.5 250.5h-6q-218 224 -296 520q-38 148 -38 296t38 296q78 296 296 515l1627 -1627q-165 -165 -376 -250.5t-435 -85.5zM357 1621q-128 -213 -128 -469q0 -155 48 -304q37 336 240 619zM682 1301
q-117 -176 -160 -378.5t0 -399.5q117 -22 197 -22q315 0 582 182zM847 277q150 -48 304 -48q256 0 470 128l-155 160q-283 -202 -619 -240z" />
</svg>
