<?xml version="1.0" standalone="no"?>
<!DOCTYPE svg PUBLIC "-//W3C//DTD SVG 1.1//EN" "http://www.w3.org/Graphics/SVG/1.1/DTD/svg11.dtd" >
<svg xmlns="http://www.w3.org/2000/svg" xmlns:xlink="http://www.w3.org/1999/xlink" version="1.1" width="2048" height="2048" viewBox="-10 0 2058 2048">
   <path fill="currentColor"
d="M923 409q0 -44 29 -72.5t72 -28.5t72 28.5t29 72t-29 72.5t-72 29t-72 -29t-29 -72zM615 716q39 0 70 -31t31 -72t-31 -72t-72 -31t-72 31t-31 72t31 72t74 31zM409 308q0 -44 -31.5 -75t-72.5 -31t-72 31t-31 72t31 72.5t72 31.5t72.5 -31.5t31.5 -69.5zM716 202
q44 0 72.5 -29t28.5 -72t-28.5 -72t-72 -29t-72.5 29t-29 72t29 72t72 29zM1332 202q43 0 72 -29t29 -72t-29 -72t-72.5 -29t-72 29t-28.5 72t28.5 72t72.5 29zM1740 202q-38 0 -69.5 31t-31.5 72t31.5 72.5t72.5 31.5t72 -31.5t31 -72.5t-31 -72t-75 -31zM1332 615
q0 39 31 70t72 31t72 -31t31 -72t-31 -72t-72 -31t-72 31t-31 74zM1692 1135q0 110 -72 197q72 91 72 197q0 134 -96 228t-231 94h-43q-38 86 -117.5 141.5t-180.5 55.5t-180.5 -55.5t-117.5 -141.5h-43q-135 0 -231 -94t-96 -228q0 -111 72 -197q-72 -92 -72 -197
q0 -135 96 -229t231 -94h43q38 -86 117.5 -141.5t180.5 -55.5t180.5 55.5t117.5 141.5h43q135 0 231 94t96 229zM562 1135q0 33 19.5 62t48.5 43l91 39q19 -111 111 -183l-87 -58q-29 -19 -62 -19q-48 0 -84.5 33.5t-36.5 82.5zM832 1567q-92 -72 -111 -182l-91 38
q-29 14 -48.5 43t-19.5 63q0 48 36.5 81.5t84.5 33.5q38 0 67 -19zM1139 1731l-9 -111q-53 19 -106 19t-101 -19l-14 111q0 48 33.5 81.5t81.5 33.5t81.5 -33.5t33.5 -81.5zM1139 933q0 -48 -33.5 -82t-81.5 -34t-81.5 34t-33.5 82l14 110q48 -19 101 -19t106 19zM1486 1529
q0 -34 -19.5 -63t-48.5 -43l-91 -43q-19 115 -111 187l87 58q29 19 62 19q48 0 84.5 -33.5t36.5 -81.5zM1486 1135q0 -49 -36.5 -82.5t-84.5 -33.5q-33 0 -67 19l-82 58q92 72 111 183l86 -39q34 -14 53.5 -43t19.5 -62z" />
</svg>
