<?xml version="1.0" standalone="no"?>
<!DOCTYPE svg PUBLIC "-//W3C//DTD SVG 1.1//EN" "http://www.w3.org/Graphics/SVG/1.1/DTD/svg11.dtd" >
<svg xmlns="http://www.w3.org/2000/svg" xmlns:xlink="http://www.w3.org/1999/xlink" version="1.1" width="2048" height="2048" viewBox="-10 0 2058 2048">
   <path fill="currentColor"
d="M1683 1101q0 -106 -77 -180.5t-183 -74.5q-82 0 -144 43v-19q0 -106 -74.5 -180.5t-180.5 -74.5t-180.5 74.5t-74.5 180.5v19q-62 -43 -144 -43q-106 0 -183 74.5t-77 180.5q0 77 41 137t108 94q-67 33 -108 93.5t-41 136.5q0 106 77 180.5t183 74.5q77 0 144 -43v19
q0 106 74.5 180.5t180.5 74.5t180.5 -74.5t74.5 -180.5v-19q67 43 144 43q106 0 183 -74.5t77 -180.5q0 -76 -41 -136.5t-108 -93.5q67 -34 108 -94t41 -137zM1024 1586q-106 0 -180.5 -74.5t-74.5 -180t74.5 -180t180.5 -74.5t180.5 74.5t74.5 180t-74.5 180t-180.5 74.5z
M923 409q0 -44 29 -72.5t72 -28.5t72 28.5t29 72t-29 72.5t-72 29t-72 -29t-29 -72zM510 615q0 -43 31 -74t72 -31t72 31t31 72t-31 72t-72 31t-72 -31t-31 -70zM308 409q-44 0 -75 -31.5t-31 -72.5t31 -72t72 -31t72.5 31t31.5 72t-31.5 72.5t-69.5 31.5zM615 101
q0 -43 29 -72t72.5 -29t72 29t28.5 72t-28.5 72t-72 29t-72.5 -29t-29 -72zM1231 101q0 -43 28.5 -72t72 -29t72.5 29t29 72t-29 72t-72.5 29t-72 -29t-28.5 -72zM1846 308q0 38 -31 69.5t-72 31.5t-72.5 -31.5t-31.5 -72.5t31.5 -72t72.5 -31t72 31t31 75zM1433 510
q43 0 74 31t31 72t-31 72t-72 31t-72 -31t-31 -72t31 -72t70 -31z" />
</svg>
