<?xml version="1.0" standalone="no"?>
<!DOCTYPE svg PUBLIC "-//W3C//DTD SVG 1.1//EN" "http://www.w3.org/Graphics/SVG/1.1/DTD/svg11.dtd" >
<svg xmlns="http://www.w3.org/2000/svg" xmlns:xlink="http://www.w3.org/1999/xlink" version="1.1" width="2048" height="2048" viewBox="-10 0 2068 2048">
   <path fill="currentColor"
d="M1153 1319l166 -166l729 730l-165 165zM1643 664l325 -325q-224 -219 -519.5 -298.5t-591 -2.5t-513.5 301q336 -112 684.5 -24t614.5 349zM339 344q-224 218 -301 513.5t2.5 591t298.5 519.5l325 -325q-261 -266 -349 -614.5t24 -684.5zM339 339q-32 266 95.5 572
t394.5 567l649 -649q-261 -267 -567 -394.5t-572 -95.5z" />
</svg>
