<?xml version="1.0" standalone="no"?>
<!DOCTYPE svg PUBLIC "-//W3C//DTD SVG 1.1//EN" "http://www.w3.org/Graphics/SVG/1.1/DTD/svg11.dtd" >
<svg xmlns="http://www.w3.org/2000/svg" xmlns:xlink="http://www.w3.org/1999/xlink" version="1.1" width="2048" height="2048" viewBox="-10 0 2068 2048">
   <path fill="currentColor"
d="M1808 784l-34 -97l187 -72q-67 -163 -189.5 -290.5t-281.5 -209.5l-81 183l-97 -43l82 -183q-183 -72 -370 -72q-135 0 -312 48l72 192l-97 34l-72 -187q-163 67 -290.5 189.5t-209.5 281.5l183 81l-43 97l-183 -82q-72 183 -72 370q0 135 48 312l192 -72l34 97l-187 72
q67 163 189.5 290.5t281.5 209.5l81 -183l97 43l-82 183q183 72 370 72q135 0 312 -48l-72 -192l97 -34l72 187q163 -67 290.5 -189.5t209.5 -281.5l-183 -81l43 -97l183 82q72 -183 72 -370q0 -135 -48 -312zM1260 1591q-154 63 -317.5 41.5t-293.5 -120.5t-192.5 -252.5
t-41 -317t120.5 -293.5t252.5 -192.5t317 -41t293.5 120.5t195 252.5t41 317t-123 293.5t-252 192z" />
</svg>
