<?xml version="1.0" standalone="no"?>
<!DOCTYPE svg PUBLIC "-//W3C//DTD SVG 1.1//EN" "http://www.w3.org/Graphics/SVG/1.1/DTD/svg11.dtd" >
<svg xmlns="http://www.w3.org/2000/svg" xmlns:xlink="http://www.w3.org/1999/xlink" version="1.1" width="2048" height="2048" viewBox="-10 0 2068 2048">
   <path fill="currentColor"
d="M2045 524q25 68 -160 314q-26 33 -68 88q-33 42 -47 60t-31 46.5t-21.5 37.5t-4 31t5 29.5t22 30.5t32 36t48.5 44q4 3 6 5q26 25 49.5 48t41.5 42t33 36.5t26.5 31.5t19.5 25.5t14.5 21t10 15t6 10.5l2.5 5q2 3 4 7t6 16.5t5.5 24t-1 25.5t-11.5 24t-29 17t-49 7l-274 4
q-26 6 -60 -4.5t-55 -23.5l-21 -14q-33 -22 -75 -67.5t-72.5 -82.5t-65.5 -61.5t-60 -16.5q-3 1 -8.5 3.5t-18.5 15.5t-23 31.5t-18 55t-7 82.5q0 16 -4 29.5t-8 19.5l-4 5q-19 21 -56 24h-123q-76 4 -156 -18t-140 -57t-109.5 -70.5t-75.5 -60.5l-27 -26q-10 -11 -29 -32
t-76 -96.5t-112.5 -161.5t-131 -225.5t-139.5 -289.5q-6 -18 -6 -29.5t4 -16.5l3 -6q16 -20 61 -20l292 -3q12 3 24 7.5t17 8.5l6 4q17 12 26 35q21 53 48.5 109.5t44.5 87.5l17 30q26 54 50.5 95.5t44.5 68t39 45t34 24.5t28.5 7.5t23.5 -5.5q2 -1 5.5 -5t13 -23
t14.5 -50.5t10 -87t0 -132.5q-2 -43 -9.5 -78t-14.5 -49l-7 -13q-27 -37 -90 -46q-14 -2 5 -26q17 -21 40 -32q36 -17 95.5 -21.5t159.5 -3.5q91 1 144 13q21 5 35.5 14.5t22.5 26t11 34t3.5 48.5t-1 59t-3 75t-1.5 88q0 12 -1 45.5t-0.5 51t3.5 43t12 41.5t24 26
q6 3 12.5 4t16.5 -3t22 -12.5t29 -26.5t36.5 -43t45 -63.5t53.5 -86.5q63 -111 114 -240q4 -10 10.5 -18t11.5 -11l5 -3q2 -1 5.5 -2.5t14 -3.5t20.5 -1l307 -2q27 -3 46.5 -1t31.5 7t18.5 10.5t9.5 10.5z" />
</svg>
