<?xml version="1.0" standalone="no"?>
<!DOCTYPE svg PUBLIC "-//W3C//DTD SVG 1.1//EN" "http://www.w3.org/Graphics/SVG/1.1/DTD/svg11.dtd" >
<svg xmlns="http://www.w3.org/2000/svg" xmlns:xlink="http://www.w3.org/1999/xlink" version="1.1" width="2048" height="2048" viewBox="-10 0 2058 2048">
   <path fill="currentColor"
d="M409 255q0 -72 81.5 -130t223.5 -91.5t310 -33.5t310 33.5t223.5 91.5t81.5 130q0 53 -53 101q-67 -68 -218.5 -111t-343.5 -43t-343.5 43t-218.5 111q-53 -48 -53 -101zM1024 308q-163 0 -288 31t-183 79q202 92 471 92t471 -92q-58 -48 -183 -79t-288 -31zM1231 615
q0 82 -60 142t-147 60t-147 -60t-60 -142v-9q-144 -24 -202 -44v53q0 169 120.5 289t288.5 120t288.5 -120t120.5 -289q0 -43 -10 -62q-62 19 -202 38q10 15 10 24zM1476 1207l-72 125l-19 53q115 38 189.5 79t74.5 74v318h-428l-96 -524l96 -197q-34 0 -96.5 -5t-100.5 -5
q-135 0 -197 10l96 197l-96 524h-428v-318q0 -33 74.5 -74t189.5 -79l-19 -53l-62 -125q-164 53 -265 129q-115 92 -115 202v510h1644v-510q0 -110 -115 -202q-96 -76 -255 -129z" />
</svg>
