<?xml version="1.0" standalone="no"?>
<!DOCTYPE svg PUBLIC "-//W3C//DTD SVG 1.1//EN" "http://www.w3.org/Graphics/SVG/1.1/DTD/svg11.dtd" >
<svg xmlns="http://www.w3.org/2000/svg" xmlns:xlink="http://www.w3.org/1999/xlink" version="1.1" width="2048" height="2048" viewBox="-10 0 2069 2048">
   <path fill="currentColor"
d="M2045 1774l-404 -399q33 -78 14.5 -163t-83 -147t-151.5 -75.5t-169 23.5l183 183l-137 137l-193 -192q-37 78 -23 167.5t80.5 158t146.5 87t158 -13.5l399 403q14 14 32.5 14t27.5 -14l96 -101q23 -18 25.5 -38.5t-2.5 -29.5zM390 485q0 -165 114.5 -279.5t277.5 -114.5
t277.5 114.5t114.5 277.5t-114.5 277.5t-277.5 114.5t-277.5 -114.5t-114.5 -275.5zM1073 1659h-1073v-197q0 -106 105.5 -195t284.5 -142t389 -53q92 0 138 9q-37 78 -37 190.5t53 215.5t140 172z" />
</svg>
