<?xml version="1.0" standalone="no"?>
<!DOCTYPE svg PUBLIC "-//W3C//DTD SVG 1.1//EN" "http://www.w3.org/Graphics/SVG/1.1/DTD/svg11.dtd" >
<svg xmlns="http://www.w3.org/2000/svg" xmlns:xlink="http://www.w3.org/1999/xlink" version="1.1" width="2048" height="2048" viewBox="-10 0 2068 2048">
   <path fill="currentColor"
d="M1582 279h-466v837h-1116v374h187q0 114 83 196.5t196.5 82.5t196 -82.5t82.5 -196.5h510q0 114 83 196.5t196 82.5t196 -82.5t83 -196.5h235v-653zM566 1586q-39 44 -100 44t-100 -41.5t-39 -98t39 -98t100 -41.5t100.5 41.5t39.5 98t-40 95.5zM1634 1586
q-44 44 -100.5 44t-98 -41.5t-41.5 -98t41.5 -98t98 -41.5t98 41.5t41.5 98t-39 95.5zM1303 837v-371h192l309 371h-501z" />
</svg>
