<?xml version="1.0" standalone="no"?>
<!DOCTYPE svg PUBLIC "-//W3C//DTD SVG 1.1//EN" "http://www.w3.org/Graphics/SVG/1.1/DTD/svg11.dtd" >
<svg xmlns="http://www.w3.org/2000/svg" xmlns:xlink="http://www.w3.org/1999/xlink" version="1.1" width="2048" height="2048" viewBox="-10 0 2058 2048">
   <path fill="currentColor"
d="M1433 1279q0 120 -39 259q-58 198 -187 390l-82 -495l96 -193q-34 0 -96.5 -4.5t-100.5 -4.5t-100.5 4.5t-96.5 4.5l96 193l-82 495q-129 -183 -187 -385q-39 -139 -39 -264q-187 57 -300 151t-113 209v409h1644v-409q0 -115 -113 -209t-300 -151zM409 255
q0 -72 81.5 -130t223.5 -91.5t310 -33.5t310 33.5t223.5 91.5t81.5 130q0 53 -53 101q-67 -68 -218.5 -111t-343.5 -43t-343.5 43t-218.5 111q-53 -48 -53 -101zM1423 553q10 19 10 62q0 169 -120.5 289t-288.5 120t-288.5 -120t-120.5 -289q0 -43 10 -62q154 62 399 62
t399 -62zM1495 418q-202 92 -471 92t-471 -92q58 -48 183 -79t288 -31t288 31t183 79z" />
</svg>
