<?xml version="1.0" standalone="no"?>
<!DOCTYPE svg PUBLIC "-//W3C//DTD SVG 1.1//EN" "http://www.w3.org/Graphics/SVG/1.1/DTD/svg11.dtd" >
<svg xmlns="http://www.w3.org/2000/svg" xmlns:xlink="http://www.w3.org/1999/xlink" version="1.1" width="2048" height="2048" viewBox="-10 0 2069 2048">
   <path fill="currentColor"
d="M779 91q-160 0 -274.5 114.5t-114.5 277.5t114.5 277.5t277.5 114.5t277.5 -114.5t114.5 -277.5t-114.5 -277.5t-280.5 -114.5zM779 678q-77 0 -134.5 -57.5t-57.5 -137.5t57.5 -137.5t137.5 -57.5t137.5 57.5t57.5 137.5t-57.5 137.5t-140.5 57.5zM2045 1774l-404 -399
q33 -78 14.5 -163t-83 -147t-151.5 -75.5t-169 23.5l183 183l-137 137l-193 -192q-37 78 -23 167.5t80.5 158t146.5 87t158 -13.5l399 403q14 14 32.5 14t27.5 -14l96 -101q23 -18 25.5 -38.5t-2.5 -29.5zM692 1168q-9 28 -9 97q0 110 28 197h-518v-96q0 -28 61.5 -71.5
t167.5 -75.5q124 -41 270 -51zM779 971q-210 0 -389 53t-284.5 144.5t-105.5 197.5v293h1073q-87 -69 -140 -172t-53 -222q0 -165 87 -285q-27 0 -89 -4.5t-99 -4.5z" />
</svg>
