<?xml version="1.0" standalone="no"?>
<!DOCTYPE svg PUBLIC "-//W3C//DTD SVG 1.1//EN" "http://www.w3.org/Graphics/SVG/1.1/DTD/svg11.dtd" >
<svg xmlns="http://www.w3.org/2000/svg" xmlns:xlink="http://www.w3.org/1999/xlink" version="1.1" width="2048" height="2048" viewBox="-10 0 2068 2048">
   <path fill="currentColor"
d="M1463 25q-133 0 -245 64t-176 176t-64 244.5t64 244.5t176 178.5t244.5 66.5t244.5 -66.5t178.5 -178.5t66.5 -244.5t-66.5 -244.5t-178.5 -176t-244 -64zM1463 802q-119 0 -206 -84.5t-87 -205.5t87 -208t208 -87t205.5 87t84.5 208t-84.5 205.5t-207.5 84.5zM1755 1387
h-192q0 -86 -50 -159.5t-132 -100.5l-604 -224h-777v1070h585v-138l686 188l777 -242v-101q0 -119 -84.5 -206t-208.5 -87zM393 1781h-196v-686h196v686zM1266 1817l-681 -183v-539h160l567 215q23 9 39 29.5t16 47.5h-101q-105 -9 -123 -13l-233 -78l-60 187l229 78
q73 23 155 23h521q28 0 53 16t39 39z" />
</svg>
