<?xml version="1.0" standalone="no"?>
<!DOCTYPE svg PUBLIC "-//W3C//DTD SVG 1.1//EN" "http://www.w3.org/Graphics/SVG/1.1/DTD/svg11.dtd" >
<svg xmlns="http://www.w3.org/2000/svg" xmlns:xlink="http://www.w3.org/1999/xlink" version="1.1" width="2048" height="2048" viewBox="-10 0 2058 2048">
   <path fill="currentColor"
d="M1495 769q43 -125 43 -207q0 -153 -69.5 -283t-187.5 -204.5t-257 -74.5t-257 74.5t-187.5 204.5t-69.5 283q0 125 43 207q-192 5 -322 130t-130 312.5t132 307.5t329 120l73 -4q81 -5 149 -24q91 -29 139 -73v34q0 48 -14 106q-20 77 -63 163q-48 101 -130 207h616
q-149 -192 -193 -370q-19 -92 -14 -140q48 44 139 73q68 19 149 24l73 4q197 0 329 -120t132 -307.5t-130 -312.5t-322 -130zM1486 1433h-73q-81 -10 -149 -29q-91 -29 -139 -72h-202q-67 62 -221 91q-77 10 -140 10q-100 0 -173 -53q-81 -63 -81 -166t74.5 -173t179.5 -70
q29 0 135 24q5 0 14.5 5t14.5 5l91 -178q-19 -19 -38 -58q-63 -96 -63 -207q0 -149 89 -254.5t219 -105.5t219 105.5t89 254.5q0 125 -63 217l-29 48l92 178q4 0 14 -5t15 -5q81 -24 134 -24q111 0 183 70t72 166q-5 110 -87 173q-77 53 -177 53z" />
</svg>
