<?xml version="1.0" standalone="no"?>
<!DOCTYPE svg PUBLIC "-//W3C//DTD SVG 1.1//EN" "http://www.w3.org/Graphics/SVG/1.1/DTD/svg11.dtd" >
<svg xmlns="http://www.w3.org/2000/svg" xmlns:xlink="http://www.w3.org/1999/xlink" version="1.1" width="2048" height="2048" viewBox="-10 0 2058 2048">
   <path fill="currentColor"
d="M1538 0h-1028q-82 0 -142 60t-60 142v1644q0 82 60 142t142 60h1028q82 0 142 -60t60 -142v-1644q0 -82 -60 -142t-142 -60zM1538 1846h-1028v-1644h1028v1644zM1024 615q-87 0 -147 60.5t-60 141.5q0 58 34 106h-34q-81 0 -141.5 60t-60.5 144t60.5 144.5t142 60.5
t153.5 -72l-101 278h308l-101 -278q72 72 153.5 72t142 -60.5t60.5 -144.5t-60.5 -144t-141.5 -60h-34q34 -48 34 -106q0 -81 -60 -141.5t-147 -60.5z" />
</svg>
