<?xml version="1.0" standalone="no"?>
<!DOCTYPE svg PUBLIC "-//W3C//DTD SVG 1.1//EN" "http://www.w3.org/Graphics/SVG/1.1/DTD/svg11.dtd" >
<svg xmlns="http://www.w3.org/2000/svg" xmlns:xlink="http://www.w3.org/1999/xlink" version="1.1" width="2048" height="2048" viewBox="-10 0 2058 2048">
   <path fill="currentColor"
d="M1538 0h-1028q-82 0 -142 60t-60 142v1644q0 82 60 142t142 60h1028q82 0 142 -60t60 -142v-1644q0 -82 -60 -142t-142 -60zM1207 1332q-58 0 -121 -29l92 235h-308l92 -235q-63 29 -121 29q-96 0 -161 -67.5t-65 -161t82 -199.5q53 -67 221 -226l44 -43l62 -53l62 53
l44 43q168 159 221 226q82 106 82 202t-65 161t-161 65z" />
</svg>
