<?xml version="1.0" standalone="no"?>
<!DOCTYPE svg PUBLIC "-//W3C//DTD SVG 1.1//EN" "http://www.w3.org/Graphics/SVG/1.1/DTD/svg11.dtd" >
<svg xmlns="http://www.w3.org/2000/svg" xmlns:xlink="http://www.w3.org/1999/xlink" version="1.1" width="2048" height="2048" viewBox="-10 0 2058 2048">
   <path fill="currentColor"
d="M256 340v1536q0 72 50 122t122 50h1024v-172h-1024v-1536h-172zM1620 0h-852q-72 0 -122 50t-50 122v1364q0 72 50 122t122 50h852q72 0 122 -50t50 -122v-1364q0 -72 -50 -122t-122 -50zM1244 1176l-48 44l-52 -44l-40 -36q-136 -128 -180 -184q-72 -92 -72 -170
t56 -134t132 -56q48 0 88 18t68 50q24 -32 66 -50t86 -18q80 0 134 54t54 134t-68 172q-48 56 -184 184z" />
</svg>
