<?xml version="1.0" standalone="no"?>
<!DOCTYPE svg PUBLIC "-//W3C//DTD SVG 1.1//EN" "http://www.w3.org/Graphics/SVG/1.1/DTD/svg11.dtd" >
<svg xmlns="http://www.w3.org/2000/svg" xmlns:xlink="http://www.w3.org/1999/xlink" version="1.1" width="2048" height="2048" viewBox="-10 0 2058 2048">
   <path fill="currentColor"
d="M1538 0h-1028q-82 0 -142 60t-60 142v1644q0 82 60 142t142 60h1028q82 0 142 -60t60 -142v-1644q0 -82 -60 -142t-142 -60zM1086 1413l-62 53l-62 -53l-44 -43q-168 -159 -221 -226q-82 -106 -82 -199.5t65 -161t161 -67.5q53 0 103.5 22t79.5 60q29 -38 79.5 -60
t103.5 -22q96 0 161 62.5t65 161t-82 204.5q-53 67 -221 226z" />
</svg>
