<?xml version="1.0" standalone="no"?>
<!DOCTYPE svg PUBLIC "-//W3C//DTD SVG 1.1//EN" "http://www.w3.org/Graphics/SVG/1.1/DTD/svg11.dtd" >
<svg xmlns="http://www.w3.org/2000/svg" xmlns:xlink="http://www.w3.org/1999/xlink" version="1.1" width="2048" height="2048" viewBox="-11 0 2069 2048">
   <path fill="currentColor"
d="M1270 90h147q79 0 136.5 58t57.5 141v627zM1800 247l129 60q69 28 101.5 104t4.5 150l-235 581v-895zM1593 1400l-494 -1181q-18 -60 -66.5 -89.5t-108.5 -29.5q-23 0 -60 13l-747 300q-74 32 -104 103.5t7 145.5l489 1180q23 56 71.5 86t108.5 30q46 0 78 -19l729 -295
q55 -23 85 -69t30 -106q-5 -14 -9.5 -37t-8.5 -32zM942 1349l-313 -235l37 -397l318 240z" />
</svg>
