<?xml version="1.0" standalone="no"?>
<!DOCTYPE svg PUBLIC "-//W3C//DTD SVG 1.1//EN" "http://www.w3.org/Graphics/SVG/1.1/DTD/svg11.dtd" >
<svg xmlns="http://www.w3.org/2000/svg" xmlns:xlink="http://www.w3.org/1999/xlink" version="1.1" width="2048" height="2048" viewBox="-10 0 2058 2048">
   <path fill="currentColor"
d="M1538 0h-1028q-82 0 -142 60t-60 142v1644q0 82 60 142t142 60h1028q82 0 142 -60t60 -142v-1644q0 -82 -60 -142t-142 -60zM1231 1332q-82 0 -154 -72l101 278h-308l101 -278q-72 72 -153.5 72t-142 -60.5t-60.5 -144.5t60.5 -144t141.5 -60h34q-34 -48 -34 -106
q0 -81 60 -141.5t147 -60.5t147 60.5t60 141.5q0 58 -34 106h34q81 0 141.5 60t60.5 144t-60.5 144.5t-141.5 60.5z" />
</svg>
