<?xml version="1.0" standalone="no"?>
<!DOCTYPE svg PUBLIC "-//W3C//DTD SVG 1.1//EN" "http://www.w3.org/Graphics/SVG/1.1/DTD/svg11.dtd" >
<svg xmlns="http://www.w3.org/2000/svg" xmlns:xlink="http://www.w3.org/1999/xlink" version="1.1" width="2048" height="2048" viewBox="-10 0 2068 2048">
   <path fill="currentColor"
d="M771 1467q24 -39 13 -78.5t-51 -57.5q-38 -16 -83 -1t-69 52q-25 39 -14.5 78.5t48.5 57.5q40 19 85.5 4t70.5 -55zM879 1329q8 -15 3.5 -30.5t-19.5 -21.5q-16 -5 -32.5 1.5t-24.5 20.5q-9 16 -5 30.5t20 20.5q15 7 32.5 1t25.5 -22zM1078 1451q-26 58 -74 102.5
t-107 69t-126 30t-130 -16.5q-60 -19 -103.5 -57.5t-65 -87t-20 -104.5t27.5 -110q53 -106 173 -158t241 -22q62 16 109.5 52t71.5 84t27 104.5t-24 113.5zM1434 1268.5q-11 -109.5 -102 -194.5t-237.5 -125t-313.5 -23q-167 16 -303 84t-209 169t-62 210.5t102.5 194.5
t238 125t313.5 23q167 -16 302.5 -84t208.5 -169t62 -210.5zM1786 1273q0 65 -30.5 133t-86 132t-139 121.5t-183.5 100.5t-226.5 68t-261.5 25q-128 0 -252.5 -23.5t-233.5 -70.5t-192.5 -111.5t-132 -152.5t-48.5 -187q0 -131 79.5 -279.5t225.5 -294.5q95 -95 198 -165.5
t192.5 -105t164.5 -33.5t117 43q74 72 23 238q-4 15 -1 22t11 8.5t17 -0.5t15.5 -4l6.5 -2q158 -67 281 -67.5t175 70.5q51 72 0 203q-5 11 -5 19t1.5 13t8 9t12 6l16.5 6q47 14 89 37.5t79 57t58.5 81.5t21.5 103zM1702 561q48 53 62.5 123t-7.5 135q-8 26 -33.5 38.5
t-51.5 4.5q-26 -9 -38.5 -33.5t-4.5 -50.5q10 -32 3 -66.5t-31 -60.5t-56.5 -36.5t-65.5 -3.5q-28 6 -51.5 -9.5t-28.5 -42.5q-6 -28 8.5 -51t42.5 -29q68 -15 136 6.5t116 75.5zM1909 374q66 73 101.5 164t37 183t-25.5 184q-11 30 -40 45t-59 5q-31 -11 -46 -39.5
t-5 -58.5q32 -94 11 -197.5t-91 -180.5q-71 -78 -169 -108.5t-198 -9.5q-32 6 -59.5 -12t-34.5 -49.5t11 -59t50 -33.5q141 -30 279 13t238 154z" />
</svg>
