<?xml version="1.0" standalone="no"?>
<!DOCTYPE svg PUBLIC "-//W3C//DTD SVG 1.1//EN" "http://www.w3.org/Graphics/SVG/1.1/DTD/svg11.dtd" >
<svg xmlns="http://www.w3.org/2000/svg" xmlns:xlink="http://www.w3.org/1999/xlink" version="1.1" width="2048" height="2048" viewBox="-10 0 2058 2048">
   <path fill="currentColor"
d="M256 340v1536q0 72 50 122t122 50h1024v-172h-1024v-1536h-172zM1620 0h-852q-72 0 -122 50t-50 122v1364q0 72 50 122t122 50h852q72 0 122 -50t50 -122v-1364q0 -72 -50 -122t-122 -50zM1364 1108q-68 0 -128 -60l88 232h-256l84 -232q-60 60 -130 60t-120 -50
t-50 -120t50 -120t122 -50h24q-24 -40 -24 -84q0 -72 50 -122t120 -50t120 50t50 122q0 44 -24 84h24q72 0 122 50t50 120t-50 120t-122 50z" />
</svg>
