<?xml version="1.0" standalone="no"?>
<!DOCTYPE svg PUBLIC "-//W3C//DTD SVG 1.1//EN" "http://www.w3.org/Graphics/SVG/1.1/DTD/svg11.dtd" >
<svg xmlns="http://www.w3.org/2000/svg" xmlns:xlink="http://www.w3.org/1999/xlink" version="1.1" width="2048" height="2048" viewBox="-10 0 2058 2048">
   <path fill="currentColor"
d="M1024 0l837 375v557q0 253 -109 486t-298.5 401t-429.5 229q-240 -61 -429.5 -229t-298.5 -401t-109 -486v-557zM1024 205l-649 287v458q0 196 87 390t237.5 335.5t324.5 185.5q174 -44 324.5 -185.5t237.5 -335.5t87 -390v-458zM1024 418l187 148l-95 550h187v187h-187
v279h-184v-279h-187v-187h187l-95 -550z" />
</svg>
