<?xml version="1.0" standalone="no"?>
<!DOCTYPE svg PUBLIC "-//W3C//DTD SVG 1.1//EN" "http://www.w3.org/Graphics/SVG/1.1/DTD/svg11.dtd" >
<svg xmlns="http://www.w3.org/2000/svg" xmlns:xlink="http://www.w3.org/1999/xlink" version="1.1" width="2048" height="2048" viewBox="-10 0 2068 2048">
   <path fill="currentColor"
d="M409 50v207h-207q-82 0 -142 60t-60 142v1029q0 82 60 142t142 60v106q0 81 60 141.5t147 60.5h101q86 0 146 -60.5t60 -141.5v-106h616v106q0 81 60 141.5t146 60.5h101q87 0 147 -60.5t60 -141.5v-106q82 0 142 -60t60 -142h-1125v-1231h-308v-207h-206zM1433 50v207
h-308v202h923q0 -82 -60 -142t-142 -60h-207v-207h-206zM510 459v414h206l-307 615v-414h-207zM1125 666v207h923v-207h-923zM1125 1074v207h923v-207h-923z" />
</svg>
