<?xml version="1.0" standalone="no"?>
<!DOCTYPE svg PUBLIC "-//W3C//DTD SVG 1.1//EN" "http://www.w3.org/Graphics/SVG/1.1/DTD/svg11.dtd" >
<svg xmlns="http://www.w3.org/2000/svg" xmlns:xlink="http://www.w3.org/1999/xlink" version="1.1" width="2048" height="2048" viewBox="-10 0 2068 2048">
   <path fill="currentColor"
d="M2048 1243v96l-777 247l-686 -187v137h-585v-1074h782l603 224q78 32 128 105t50 160h192q128 0 210.5 84.5t82.5 207.5zM393 1339v-681h-196v681h196zM1847 1202q-32 -55 -92 -55h-525q-60 0 -156 -22l-224 -78l60 -183l233 78l224 9q0 -64 -60 -78l-566 -215h-156v535
l686 188z" />
</svg>
