<?xml version="1.0" standalone="no"?>
<!DOCTYPE svg PUBLIC "-//W3C//DTD SVG 1.1//EN" "http://www.w3.org/Graphics/SVG/1.1/DTD/svg11.dtd" >
<svg xmlns="http://www.w3.org/2000/svg" xmlns:xlink="http://www.w3.org/1999/xlink" version="1.1" width="2048" height="2048" viewBox="-10 0 2068 2048">
   <path fill="currentColor"
d="M1769 559q-4 -27 -9 -57q-13 -70 -52 -126q-48 -83 -135 -131q-109 -57 -270 -57q-201 0 -371 48q-108 -96 -230 -126q-231 -61 -423 130l240 240q-131 140 -197 344q-52 162 -65 362q-9 139 9 283l13 114l-44 4q-52 13 -96 44q-61 39 -95 108q-44 88 -44 214l375 -92
l370 92q0 -126 -43 -214q-35 -69 -96 -108q-44 -31 -96 -44l-44 -4l13 -57q18 -70 53 -140q43 -95 109 -174q82 -96 187 -161q131 -74 288 -100v261q126 0 196 -100q56 -70 74 -179h196q257 0 370 -61q96 -43 96 -126q0 -65 -102.5 -126t-176.5 -61zM1582 654
q-39 0 -65.5 -28t-26.5 -65t26.5 -65.5t65.5 -28.5t65 28.5t26 65.5t-26 65t-65 28z" />
</svg>
