<?xml version="1.0" standalone="no"?>
<!DOCTYPE svg PUBLIC "-//W3C//DTD SVG 1.1//EN" "http://www.w3.org/Graphics/SVG/1.1/DTD/svg11.dtd" >
<svg xmlns="http://www.w3.org/2000/svg" xmlns:xlink="http://www.w3.org/1999/xlink" version="1.1" width="2048" height="2048" viewBox="-10 0 2058 2048">
   <path fill="currentColor"
d="M1024 0l837 375v557q0 253 -109 488.5t-301 401t-427 226.5q-235 -61 -427 -226.5t-301 -401t-109 -488.5v-557zM1024 205l-649 287v458q0 200 89 392t239.5 331.5t320.5 187.5q170 -48 320.5 -187.5t239.5 -331.5t89 -392v-458zM1394 1211v140v9q-4 30 -43 34h-654
q-39 -4 -43 -34v-149h740zM1490 654l-96 462h-740l-96 -462l248 248l218 -218l218 218z" />
</svg>
