<?xml version="1.0" standalone="no"?>
<!DOCTYPE svg PUBLIC "-//W3C//DTD SVG 1.1//EN" "http://www.w3.org/Graphics/SVG/1.1/DTD/svg11.dtd" >
<svg xmlns="http://www.w3.org/2000/svg" xmlns:xlink="http://www.w3.org/1999/xlink" version="1.1" width="2048" height="2048" viewBox="-10 0 2058 2048">
   <path fill="currentColor"
d="M923 1538v34q0 48 -14 106q-20 77 -63 163q-48 101 -130 207h616q-149 -192 -193 -370q-19 -92 -14 -140l34 24q48 34 105 49q77 28 173.5 28t192.5 -60t156 -153.5t60 -194.5q0 -149 -62 -284q-48 -115 -149 -235q-63 -77 -205 -221.5t-214 -226.5q-115 -134 -192 -264
q-77 130 -192 264q-72 82 -214 226.5t-205 221.5q-101 120 -149 235q-62 135 -62 284q0 101 60 194.5t156 153.5t192.5 60t173.5 -28q57 -15 105 -49zM1125 1231h-202l-34 53q-48 57 -105 96q-77 53 -169 53q-72 0 -139 -67.5t-67 -134.5q-10 -145 110 -313
q72 -106 265 -303q173 -178 240 -269q62 82 226 245q202 207 274 313q125 178 115 327q0 67 -67 134.5t-139 67.5q-125 0 -231 -101q-48 -53 -77 -101z" />
</svg>
