<?xml version="1.0" standalone="no"?>
<!DOCTYPE svg PUBLIC "-//W3C//DTD SVG 1.1//EN" "http://www.w3.org/Graphics/SVG/1.1/DTD/svg11.dtd" >
<svg xmlns="http://www.w3.org/2000/svg" xmlns:xlink="http://www.w3.org/1999/xlink" version="1.1" width="2048" height="2048" viewBox="-10 0 2068 2048">
   <path fill="currentColor"
d="M954 636l676 676q78 -27 126 -48q-26 -31 -57 -48q-74 -48 -209 -74q140 -26 240 -13q78 8 131 48l21 17q79 -52 122.5 -104.5t43.5 -89.5t-104.5 -93.5t-257.5 -104.5q-170 -53 -331 -70q-61 -126 -192 -209q-117 -79 -231 -79q31 96 22 192zM1512 850q65 17 161 43v18
q0 35 -26 63t-65 28t-65.5 -28t-26.5 -61t22 -63zM1965 1882l-117 118l-506 -505q-78 65 -131 65v-187q-174 0 -479 -92q-148 -48 -266 -91l-56 69q-66 83 -135 135q-96 74 -179 74l91 -374l-187 -558q118 0 305 187q92 92 161 188l61 -26q74 -27 153 -53l-667 -666
l118 -118z" />
</svg>
