<?xml version="1.0" standalone="no"?>
<!DOCTYPE svg PUBLIC "-//W3C//DTD SVG 1.1//EN" "http://www.w3.org/Graphics/SVG/1.1/DTD/svg11.dtd" >
<svg xmlns="http://www.w3.org/2000/svg" xmlns:xlink="http://www.w3.org/1999/xlink" version="1.1" width="2048" height="2048" viewBox="-10 0 2068 2048">
   <path fill="currentColor"
d="M1355 754q-61 -127 -192 -209q-117 -79 -231 -79q53 166 -4 318q-148 35 -318 92l-144 56l-78 -95q-96 -114 -183 -183q-122 -96 -205 -96l187 558l-91 374q83 0 179 -74q69 -52 135 -135l56 -70l131 48q157 53 296 87q192 48 318 48v188q48 0 124.5 -57t128.5 -152
q153 -27 292 -88q-26 -30 -57 -47q-74 -48 -209 -75q140 -26 240 -13q78 9 131 48l21 18q79 -53 122.5 -105t43.5 -89t-104.5 -94t-257.5 -104q-170 -53 -331 -70zM1582 1024q-39 0 -65.5 -28.5t-26.5 -61t22 -63.5q65 18 161 44v17q0 35 -26 63.5t-65 28.5z" />
</svg>
