<?xml version="1.0" standalone="no"?>
<!DOCTYPE svg PUBLIC "-//W3C//DTD SVG 1.1//EN" "http://www.w3.org/Graphics/SVG/1.1/DTD/svg11.dtd" >
<svg xmlns="http://www.w3.org/2000/svg" xmlns:xlink="http://www.w3.org/1999/xlink" version="1.1" width="2048" height="2048" viewBox="-10 0 2068 2048">
   <path fill="currentColor"
d="M1741 309h-1640v-206h1640v206zM1127 1345l-307 307v91h-719v-613h-101v-207l101 -513h1640l62 317q-72 14 -124 67l-336 336h-216v215zM921 1130h-614v407h614v-407zM2029 1072l-134 -134q-15 -15 -36.5 -15t-35.5 15l-101 100l211 211l96 -100q19 -15 19 -36.5
t-19 -40.5zM1022 1739v206h211l628 -624l-211 -211z" />
</svg>
