<?xml version="1.0" standalone="no"?>
<!DOCTYPE svg PUBLIC "-//W3C//DTD SVG 1.1//EN" "http://www.w3.org/Graphics/SVG/1.1/DTD/svg11.dtd" >
<svg xmlns="http://www.w3.org/2000/svg" xmlns:xlink="http://www.w3.org/1999/xlink" version="1.1" width="2048" height="2048" viewBox="-10 0 2068 2048">
   <path fill="currentColor"
d="M1664 242h-1568v-197h1568v197zM1564 829q-138 0 -259.5 50.5t-217.5 146.5h-10v9q-96 97 -146.5 218.5t-50.5 258.5q0 46 10 101h-794v-587h-96v-197l96 -490h1568l97 490v28q-97 -28 -197 -28zM880 1026h-587v390h587v-390zM2036 1650q4 0 4 7t-4 11l-101 170
q-9 9 -28 9l-119 -41l-78 50l-18 129q0 4 -7 11t-11 7h-198q-9 0 -27 -18l-23 -129q-41 -14 -78 -50l-115 50q-18 0 -32 -9l-96 -165q-9 -14 9 -32l110 -78v-96l-110 -78q-9 -9 -9 -32l96 -165q14 -10 32 -10l115 51l78 -51l23 -128q0 -18 27 -18h198q4 0 11 6.5t7 11.5
l18 128q32 10 92 51l115 -51q32 0 32 10l96 165q9 9 -9 32l-110 78v96zM1710 1512q0 -55 -43.5 -100.5t-101 -45.5t-103 45.5t-45.5 103t45.5 101t103 43.5t101 -43.5t43.5 -103.5z" />
</svg>
