<?xml version="1.0" standalone="no"?>
<!DOCTYPE svg PUBLIC "-//W3C//DTD SVG 1.1//EN" "http://www.w3.org/Graphics/SVG/1.1/DTD/svg11.dtd" >
<svg xmlns="http://www.w3.org/2000/svg" xmlns:xlink="http://www.w3.org/1999/xlink" version="1.1" width="2048" height="2048" viewBox="-10 0 2058 2048">
   <path fill="currentColor"
d="M1825 1260q-37 91 -87 157.5t-104 101t-113 53t-116 17t-110.5 -10t-98.5 -25t-79 -31.5t-53 -26l-19 -11q-129 261 -331 411.5t-440 151.5q-22 0 -36.5 -15t-14.5 -37t14.5 -36t36.5 -14q198 -1 368.5 -123t287.5 -337q-41 16 -82 26.5t-95 14.5t-104 -3t-106 -32
t-105 -67.5t-97 -114t-85 -166.5q94 -39 180 -55.5t152.5 -14t126 20.5t102.5 44t80 61.5t60.5 67t42.5 65.5q62 -154 90 -332q-7 1 -20 2.5t-53.5 3.5t-79.5 0t-93 -11.5t-101 -26.5t-96.5 -48.5t-85.5 -74.5t-62 -108.5t-33 -145.5q80 -32 152.5 -41.5t128.5 1.5t105 34.5
t84.5 57t64.5 69.5t47.5 71.5t31 64t18.5 45.5l5 18q3 -31 6.5 -86.5t5.5 -94.5t2 -42q-9 -6 -24.5 -18t-56 -51.5t-72.5 -81.5t-62 -106t-38 -128.5t14 -145t80 -158.5q83 29 145.5 70.5t97 87.5t55 97t23.5 101t-0.5 97.5t-15 88t-22 71t-19.5 47.5l-8 17q2 5 2 57.5
t-2 82.5q4 -8 11.5 -21t34.5 -49t58 -66.5t81 -63.5t104.5 -50.5t128 -17t151.5 27.5q-3 114 -38 200t-87 132.5t-115 76t-124.5 36.5t-113 7.5t-83.5 -4.5l-31 -5q-27 171 -83 324q7 -8 20.5 -21t56.5 -47t88.5 -60t113.5 -47.5t134 -23t147 26t157 88.5z" />
</svg>
