<?xml version="1.0" standalone="no"?>
<!DOCTYPE svg PUBLIC "-//W3C//DTD SVG 1.1//EN" "http://www.w3.org/Graphics/SVG/1.1/DTD/svg11.dtd" >
<svg xmlns="http://www.w3.org/2000/svg" xmlns:xlink="http://www.w3.org/1999/xlink" version="1.1" width="2048" height="2048" viewBox="-10 0 2058 2048">
   <path fill="currentColor"
d="M1824 535q-265 -371 -752 -535q260 154 434 342q154 169 226 347q63 169 53 333q-10 154 -79.5 281.5t-183 209.5t-253 101.5t-279.5 -33.5q-149 -58 -280 -193l-265 48l-351 352q-44 43 -44 110.5t46 108.5t111 41t103 -43l328 -333q222 178 477 198q232 14 439 -99
t330 -315.5t113 -438.5q-5 -256 -173 -482z" />
</svg>
