<?xml version="1.0" standalone="no"?>
<!DOCTYPE svg PUBLIC "-//W3C//DTD SVG 1.1//EN" "http://www.w3.org/Graphics/SVG/1.1/DTD/svg11.dtd" >
<svg xmlns="http://www.w3.org/2000/svg" xmlns:xlink="http://www.w3.org/1999/xlink" version="1.1" width="2048" height="2048" viewBox="-10 0 2068 2048">
   <path fill="currentColor"
d="M859 35l-237 334q158 -37 237 -37t242 37zM1751 332q-79 0 -137 58t-58 137v673q-102 89 -102 219q0 125 88 211t211 86t209 -86t86 -211q0 -135 -98 -219v-673q0 -79 -58 -137t-141 -58zM1751 430q42 0 72 30t30 67v102h-200v-102q0 -37 30.5 -67t67.5 -30zM413 499
l-413 28l176 376q14 -111 79 -227q84 -112 158 -177zM859 527q-135 0 -248.5 67.5t-178.5 181t-65 248.5t65 248.5t178.5 181t250.5 67.5t251 -67.5t179 -181t65 -248.5t-65 -248.5t-179 -181t-253 -67.5zM186 1145l-177 376l404 37q-93 -93 -148 -186q-61 -88 -79 -227z
M622 1679l237 334l242 -334q-163 37 -242 37q-97 0 -237 -37z" />
</svg>
