<?xml version="1.0" standalone="no"?>
<!DOCTYPE svg PUBLIC "-//W3C//DTD SVG 1.1//EN" "http://www.w3.org/Graphics/SVG/1.1/DTD/svg11.dtd" >
<svg xmlns="http://www.w3.org/2000/svg" xmlns:xlink="http://www.w3.org/1999/xlink" version="1.1" width="2048" height="2048" viewBox="-10 0 2068 2048">
   <path fill="currentColor"
d="M1555 272h-1461v-180h1461v180zM1101 820h-912l55 -274h1161l39 185q103 4 193 42l-82 -407h-1461l-94 454v185h94v548h776q-47 -111 -47 -227v43h-549v-364h549v321q0 -116 45 -225t130 -195q47 -51 103 -86zM2048 1827l-129 129l-282 -283q-103 64 -219 64
q-171 0 -291 -120t-120 -291t120 -291t291.5 -120t291 120t119.5 291q0 120 -64 219zM1645 1326q0 -94 -66.5 -162.5t-160.5 -68.5t-160.5 68.5t-66.5 162.5t66.5 160.5t160.5 66.5t160.5 -66.5t66.5 -160.5z" />
</svg>
