<?xml version="1.0" standalone="no"?>
<!DOCTYPE svg PUBLIC "-//W3C//DTD SVG 1.1//EN" "http://www.w3.org/Graphics/SVG/1.1/DTD/svg11.dtd" >
<svg xmlns="http://www.w3.org/2000/svg" xmlns:xlink="http://www.w3.org/1999/xlink" version="1.1" width="2048" height="2048" viewBox="-10 0 2068 2048">
   <path fill="currentColor"
d="M940 556q0 -36 12 -76q16 -68 56 -112l-156 -120l-152 128q40 40 56 104q12 40 12 76q-184 12 -348 80q-128 56 -236 148q-80 64 -140 136l-44 64l596 596l20 -32q28 -36 60 -64q44 -40 92 -56v176q-40 20 -62 60t-22 88q0 68 50 118t120 50t120 -50t50 -118
q0 -48 -24 -88t-60 -60v-176q48 16 92 56q32 28 56 64l20 32l600 -596l-44 -64q-60 -72 -140 -136q-108 -88 -240 -144q-160 -68 -344 -84zM768 1248q-108 28 -180 84l-356 -356q216 -220 536 -240v512zM1116 1332q-96 -64 -176 -84v-512q184 16 336 92q112 60 200 148z
M1364 156l-60 160q-44 -20 -106 -20t-114 20l-60 -160q76 -28 170 -28t170 28zM1620 556h-168l-4 -32q-4 -36 -16 -72q-20 -44 -48 -76l128 -112q68 76 96 188q12 56 12 104zM188 264l128 112q-28 32 -44 76q-8 36 -12 72l-4 32h-172q0 -48 16 -104q24 -112 88 -188z
M684 156l-60 160q-44 -20 -108 -20t-116 20l-60 -160q80 -28 172 -28t172 28zM1876 1068v-428h172v512h-172v-84zM1876 1496h172v-172h-172v172z" />
</svg>
