<?xml version="1.0" standalone="no"?>
<!DOCTYPE svg PUBLIC "-//W3C//DTD SVG 1.1//EN" "http://www.w3.org/Graphics/SVG/1.1/DTD/svg11.dtd" >
<svg xmlns="http://www.w3.org/2000/svg" xmlns:xlink="http://www.w3.org/1999/xlink" version="1.1" width="2048" height="2048" viewBox="-10 0 2068 2048">
   <path fill="currentColor"
d="M1769 654h-279v-375h-1490v1211h187q0 114 81 196.5t198.5 82.5t198 -82.5t80.5 -196.5h558q0 114 80.5 196.5t198 82.5t198.5 -82.5t81 -196.5h187v-466zM466 1630q-56 0 -97.5 -41.5t-41.5 -100.5t41.5 -98t98 -39t98 39t41.5 98t-41.5 100.5t-98.5 41.5zM1303 558
h-187v653h-184v-653h-187v653h-187v-653h-183v653h-188v-745h1116v92zM1582 1630q-57 0 -98.5 -41.5t-41.5 -100.5t41.5 -98t98 -39t98 39t41.5 98t-41.5 100.5t-97.5 41.5zM1490 1024v-231h231l183 231h-414z" />
</svg>
