<?xml version="1.0" standalone="no"?>
<!DOCTYPE svg PUBLIC "-//W3C//DTD SVG 1.1//EN" "http://www.w3.org/Graphics/SVG/1.1/DTD/svg11.dtd" >
<svg xmlns="http://www.w3.org/2000/svg" xmlns:xlink="http://www.w3.org/1999/xlink" version="1.1" width="2048" height="2048" viewBox="-10 0 2068 2048">
   <path fill="currentColor"
d="M1917 1373l-357 361l-126 -126l-131 131l257 261l488 -497zM1211 1255q0 78 -54.5 132.5t-132.5 54.5t-132.5 -54.5t-54.5 -132.5t54.5 -132.5t132.5 -54.5t132.5 54.5t54.5 132.5zM1116 1721q0 -39 8 -96h-706l-200 -740h1616l-78 283q96 13 174 56l114 -409l4 -26
q0 -35 -28.5 -63.5t-67.5 -28.5h-444l-406 -610q-30 -39 -78 -39t-78 39l-406 610h-444q-39 0 -67.5 28.5t-28.5 63.5q0 17 4 26l236 863q17 56 67 95.5t111 39.5h706q-8 -57 -8 -92zM1024 305l261 392h-522z" />
</svg>
