<?xml version="1.0" standalone="no"?>
<!DOCTYPE svg PUBLIC "-//W3C//DTD SVG 1.1//EN" "http://www.w3.org/Graphics/SVG/1.1/DTD/svg11.dtd" >
<svg xmlns="http://www.w3.org/2000/svg" xmlns:xlink="http://www.w3.org/1999/xlink" version="1.1" width="2048" height="2048" viewBox="-10 0 2058 2048">
   <path fill="currentColor"
d="M1024 0q-192 0 -358 96t-262 262t-96 353.5t110 442.5q92 197 245 432q116 164 250 332l111 130l111 -130q134 -168 250 -332q153 -235 245 -432q110 -250 110 -440t-96 -356t-262 -262t-358 -96zM1024 202q87 0 147 60t60 146.5t-60 146.5t-147 60t-147 -60t-60 -146.5
t60 -146.5t147 -60zM1024 1231q-125 0 -233 -60t-176 -161q0 -92 154 -159q130 -53 255 -53t255 53q154 67 154 159q-68 101 -176 161t-233 60z" />
</svg>
