<?xml version="1.0" standalone="no"?>
<!DOCTYPE svg PUBLIC "-//W3C//DTD SVG 1.1//EN" "http://www.w3.org/Graphics/SVG/1.1/DTD/svg11.dtd" >
<svg xmlns="http://www.w3.org/2000/svg" xmlns:xlink="http://www.w3.org/1999/xlink" version="1.1" width="2048" height="2048" viewBox="-10 0 2068 2048">
   <path fill="currentColor"
d="M1917 1373l-357 361l-126 -126l-131 131l257 261l488 -497zM1116 1721q0 -152 76 -280.5t204.5 -203t276.5 -74.5q140 0 257 61l114 -405l4 -30q0 -35 -28.5 -63.5t-67.5 -28.5h-423l-427 -610q-30 -39 -78 -39t-74 39l-431 610h-423q-39 0 -67.5 28.5t-28.5 63.5l9 43
l244 880q26 44 69.5 72.5t95.5 28.5h706q-8 -57 -8 -92zM1024 301l279 396h-558zM837 1255q0 -78 54.5 -132.5t132.5 -54.5t132.5 54.5t54.5 132.5t-54.5 132.5t-132.5 54.5t-132.5 -54.5t-54.5 -132.5z" />
</svg>
