<?xml version="1.0" standalone="no"?>
<!DOCTYPE svg PUBLIC "-//W3C//DTD SVG 1.1//EN" "http://www.w3.org/Graphics/SVG/1.1/DTD/svg11.dtd" >
<svg xmlns="http://www.w3.org/2000/svg" xmlns:xlink="http://www.w3.org/1999/xlink" version="1.1" width="2048" height="2048" viewBox="-10 0 2058 2048">
   <path fill="currentColor"
d="M2025 1135q0 68 -46.5 115t-115.5 47q-38 0 -72 -19t-56 -49h-102q-13 42 -39 98l-140 -141q25 -77 25 -141q0 -123 -61.5 -227.5t-166.5 -166.5t-228 -62q-64 0 -141 25l-141 -140q94 -43 192 -60v-124q-34 -25 -51 -59.5t-17 -72.5q0 -68 44.5 -113t113 -45t113.5 45
t45 113q0 38 -17.5 72.5t-51.5 59.5v124q162 25 290 124l124 -124q-13 -81 43 -141q47 -47 113 -47t113 47t47 113t-47 113t-111 47q-21 0 -30 -4l-124 124q128 166 128 379h77q22 -30 56 -49t72 -19q69 0 115.5 47t46.5 111zM1944 1907l-115 115l-68 -68
q-60 -4 -100.5 -44.5t-44.5 -100.5l-239 -235l-9 5q-55 34 -85 47q51 42 57.5 110.5t-36 117.5t-111.5 57h-12q-60 0 -107 -42.5t-51 -106.5q0 -47 17 -81h-17q-124 0 -239 -43l-98 180q38 72 0 145q-22 38 -60 61.5t-79 23.5t-79 -21q-55 -30 -74.5 -94t10.5 -120
q38 -72 124 -85l98 -183q-98 -82 -158 -188l-136 38q-30 77 -111 98q-13 9 -39 9q-55 0 -98 -32t-55 -88q-17 -64 15 -121.5t96 -74.5q12 -4 42 -4q56 0 103 38l119 -34q-17 -72 -17 -141q-55 -12 -94 -47q-43 -47 -43 -113t47 -113t111 -47q30 0 56 13l30 -47l-461 -465
l115 -115zM1245 1442l-619 -619q-60 107 -60 226.5t62 224t166.5 166.5t226 62t224.5 -60zM583 205q-47 -68 -128 -68q-21 0 -47 4l197 196q21 -72 -22 -132z" />
</svg>
