<?xml version="1.0" standalone="no"?>
<!DOCTYPE svg PUBLIC "-//W3C//DTD SVG 1.1//EN" "http://www.w3.org/Graphics/SVG/1.1/DTD/svg11.dtd" >
<svg xmlns="http://www.w3.org/2000/svg" xmlns:xlink="http://www.w3.org/1999/xlink" version="1.1" width="2048" height="2048" viewBox="-10 0 2068 2048">
   <path fill="currentColor"
d="M1595 0h-1366q-96 0 -162.5 66.5t-66.5 162.5v1590q0 96 66.5 162.5t162.5 66.5h774q-70 -112 -86 -245q-133 -48 -194.5 -173.5t-18.5 -258.5q37 -107 125 -171t195 -64q75 0 144 37q197 -154 445 -146t435 173v-747zM1365 683h-1136v-454h1136v454zM1451 2048
l-315 -341l133 -134l182 182l410 -406l128 160z" />
</svg>
