<?xml version="1.0" standalone="no"?>
<!DOCTYPE svg PUBLIC "-//W3C//DTD SVG 1.1//EN" "http://www.w3.org/Graphics/SVG/1.1/DTD/svg11.dtd" >
<svg xmlns="http://www.w3.org/2000/svg" xmlns:xlink="http://www.w3.org/1999/xlink" version="1.1" width="2048" height="2048" viewBox="-10 0 2058 2048">
   <path fill="currentColor"
d="M605 337l-192 -196q47 -13 94 4t76 60q43 59 22 132zM1863 977q-38 0 -72.5 19t-55.5 49h-77q0 -213 -128 -380l124 -123q81 12 141 -43q47 -47 47 -113t-47 -113t-113 -47t-113 47q-56 60 -43 141l-124 123q-128 -98 -290 -123v-124q34 -26 51.5 -60t17.5 -72
q0 -68 -45 -113t-113.5 -45t-113 45t-44.5 113q0 38 17 72t51 60v124q-98 17 -192 59l853 853q26 -55 39 -98h102q21 30 55.5 49.5t72.5 19.5q68 0 115 -47t47 -113t-47 -113t-115 -47zM1944 1906l-115 116l-68 -69q-60 -4 -100.5 -44.5t-44.5 -100.5l-239 -234l-9 4
q-55 34 -85 47q51 43 57.5 111t-38.5 119t-109 55.5t-115 -38t-55 -111.5q0 -46 17 -81h-17q-124 0 -239 -42l-98 179q38 72 0 145q-34 60 -96 79t-119.5 -13t-77 -96t10.5 -119q39 -73 124 -86l98 -183q-98 -81 -158 -188l-136 39q-30 76 -111 98q-60 17 -117.5 -15
t-74.5 -96t15 -121.5t96 -74.5q81 -22 145 34l119 -34q-17 -73 -17 -141q-55 -9 -94 -47q-42 -47 -42 -113t42 -113q35 -34 81.5 -42.5t89.5 8.5l30 -47l-461 -465l115 -115z" />
</svg>
