<?xml version="1.0" standalone="no"?>
<!DOCTYPE svg PUBLIC "-//W3C//DTD SVG 1.1//EN" "http://www.w3.org/Graphics/SVG/1.1/DTD/svg11.dtd" >
<svg xmlns="http://www.w3.org/2000/svg" xmlns:xlink="http://www.w3.org/1999/xlink" version="1.1" width="2048" height="2048" viewBox="-10 0 2068 2048">
   <path fill="currentColor"
d="M204 128l-108 108l12 12q-48 20 -78 64t-30 96v1192q4 72 52 120t120 52h1460l148 148l108 -108zM1196 1516h-1024v-84q0 -80 92 -144q80 -56 212 -92q112 -28 206 -28t210 28q128 36 208 92q96 64 96 144v84zM684 1004q-108 0 -182 -74t-74 -182q0 -76 40 -140l352 352
q-60 44 -136 44zM1876 236h-1348l316 316q20 16 36 36l1124 1124q44 -52 44 -112v-1192q-4 -72 -52 -120t-120 -52zM1792 1088h-340v-256h340v256z" />
</svg>
