<?xml version="1.0" standalone="no"?>
<!DOCTYPE svg PUBLIC "-//W3C//DTD SVG 1.1//EN" "http://www.w3.org/Graphics/SVG/1.1/DTD/svg11.dtd" >
<svg xmlns="http://www.w3.org/2000/svg" xmlns:xlink="http://www.w3.org/1999/xlink" version="1.1" width="2048" height="2048" viewBox="-10 0 2063 2048">
   <path fill="currentColor"
d="M2043 1925l-1911 -1925l-127 127l564 565l-9 18q-59 -73 -155 -105q-82 -27 -182 -13q-109 13 -129.5 68t61.5 127.5t163.5 88.5t163.5 -2v127q0 91 32 182t87 169q-119 113 -119 232q0 104 80 193t212 141.5t291 52.5q182 0 330 -66t212 -176l323 319zM815 924
q-41 27 -41 75t27 73t75 25t71 -37l136 137h-9q-168 0 -300 55q-96 -96 -96 -251q0 -100 37 -164zM1452 1584q0 82 -114 138.5t-273 56.5t-273 -56.5t-114 -138.5t114 -139t273 -57q141 0 250 50l137 137v9zM842 469l-187 -187q87 -114 214 -155l-9 10q-36 63 -50 127
q-18 109 32 205zM997 624l-155 -155q114 -50 223 -50t223 50q73 -141 -14 -314l-13 -28q132 46 204 151q64 82 73 195q5 96 -27 160l59 77q59 -73 155 -105q82 -27 182 -13q109 13 129.5 68t-61.5 127.5t-164 88.5t-163 -2v127q0 109 -51 223l-154 -154q0 -10 4.5 -35
t4.5 -34q0 -159 -114 -273t-273 -114q-50 0 -68 10zM1261 1634q0 18 -14 31.5t-36.5 13.5t-36 -13.5t-13.5 -34t13.5 -34t36 -13.5t36.5 13.5t14 36.5zM969 1634q0 18 -13.5 31.5t-36 13.5t-36.5 -13.5t-14 -34t14 -34t36.5 -13.5t36 13.5t13.5 36.5z" />
</svg>
