<?xml version="1.0" standalone="no"?>
<!DOCTYPE svg PUBLIC "-//W3C//DTD SVG 1.1//EN" "http://www.w3.org/Graphics/SVG/1.1/DTD/svg11.dtd" >
<svg xmlns="http://www.w3.org/2000/svg" xmlns:xlink="http://www.w3.org/1999/xlink" version="1.1" width="2048" height="2048" viewBox="-10 0 2068 2048">
   <path fill="currentColor"
d="M1303 928h139v262l227 135l-70 117l-296 -170v-344zM1595 588q-66 -178 -220.5 -289.5t-346 -111.5t-342 102.5t-220.5 268.5q-126 0 -233 63t-170 170t-63 233t63 233t170 168t233 61h344q79 170 236 272.5t348 102.5q179 0 329.5 -87.5t237.5 -237.5t87 -329
q0 -214 -126.5 -383.5t-326.5 -235.5zM466 1303q-117 0 -198 -83t-81 -198.5t81 -196t198 -80.5q48 0 100 18q27 -170 155.5 -281.5t302.5 -111.5q113 0 209 50.5t161 137.5q-174 0 -324.5 87t-237.5 237.5t-87 324.5q0 44 9 96h-288zM1394 1673q-126 0 -232.5 -63
t-168 -170t-61.5 -233t61.5 -233t168 -168t233 -61t233 61t170 168t63.5 233t-63.5 233t-170 170t-233.5 63z" />
</svg>
