<?xml version="1.0" standalone="no"?>
<!DOCTYPE svg PUBLIC "-//W3C//DTD SVG 1.1//EN" "http://www.w3.org/Graphics/SVG/1.1/DTD/svg11.dtd" >
<svg xmlns="http://www.w3.org/2000/svg" xmlns:xlink="http://www.w3.org/1999/xlink" version="1.1" width="2048" height="2048" viewBox="-10 0 2058 2048">
   <path fill="currentColor"
d="M1767 941v-566q0 -79 -54.5 -133.5t-132.5 -54.5h-388q-31 -82 -103 -134.5t-159 -52.5t-159 52.5t-102 134.5h-388q-78 0 -132.5 54.5t-54.5 133.5v1298q0 79 54.5 133.5t132.5 54.5h567q91 87 206.5 137t246.5 50q178 0 328.5 -87t237.5 -237.5t87 -329.5
q0 -130 -50 -245.5t-137 -207.5zM930 187q40 0 66 28.5t26 65.5t-26 65.5t-65.5 28.5t-65.5 -28.5t-26 -65.5t26 -65.5t65 -28.5zM373 558h1115v187h-1115v-187zM660 1490h-287v-187h287q-9 48 -9 91.5t9 95.5zM373 1116v-184h475q-79 75 -131 184h-344zM1301 1861
q-127 0 -233.5 -63.5t-167.5 -170t-61 -233t61 -233t167.5 -168t233 -61.5t233.5 61.5t170 168t63 233t-63 233t-170 170t-233 63.5zM1349 1421l265 156l-69 114l-336 -201v-466h140v397z" />
</svg>
