<?xml version="1.0" standalone="no"?>
<!DOCTYPE svg PUBLIC "-//W3C//DTD SVG 1.1//EN" "http://www.w3.org/Graphics/SVG/1.1/DTD/svg11.dtd" >
<svg xmlns="http://www.w3.org/2000/svg" xmlns:xlink="http://www.w3.org/1999/xlink" version="1.1" width="2048" height="2048" viewBox="-10 0 2068 2048">
   <path fill="currentColor"
d="M1451 1835q-70 0 -120.5 -61.5t-50.5 -149.5t50.5 -152t120 -64t120 64t50.5 152t-50.5 149.5t-119.5 61.5zM1024 939q-107 0 -181.5 -61.5t-74.5 -152t74.5 -152t181.5 -61.5t181.5 61.5t74.5 152t-74.5 152t-181.5 61.5zM597 1835q-69 0 -119.5 -61.5t-50.5 -149.5
t50.5 -152t120 -64t120 64t50.5 152t-50.5 149.5t-120.5 61.5zM1024 597q37 0 61 24t24 61.5t-24 61.5t-61 24t-61 -24t-24 -61.5t24 -61.5t61 -24zM1792 1024q-53 0 -101 21q-86 -101 -219 -170q101 -150 101 -326v-5q96 -21 157.5 -96t61.5 -171q0 -117 -80 -197
t-197.5 -80t-197.5 85q-133 -85 -293 -85t-293 85q-80 -85 -197.5 -85t-197.5 80t-80 197q0 96 61.5 171t157.5 96v5q0 176 101 326q-133 69 -219 170q-48 -21 -101 -21q-107 0 -181.5 74.5t-74.5 181.5t74.5 181.5t181.5 74.5h5q-5 43 -5 85q0 176 98.5 301.5t242.5 125.5
q86 0 158 -48t120 -133q74 10 149 10t149 -10q48 85 120 133t158 48q144 0 242.5 -125.5t98.5 -301.5q0 -42 -5 -85h5q107 0 181.5 -74.5t74.5 -181.5t-74.5 -181.5t-181.5 -74.5z" />
</svg>
