<?xml version="1.0" standalone="no"?>
<!DOCTYPE svg PUBLIC "-//W3C//DTD SVG 1.1//EN" "http://www.w3.org/Graphics/SVG/1.1/DTD/svg11.dtd" >
<svg xmlns="http://www.w3.org/2000/svg" xmlns:xlink="http://www.w3.org/1999/xlink" version="1.1" width="2048" height="2048" viewBox="-10 0 2068 2048">
   <path fill="currentColor"
d="M1925 2048l-983 -983q-69 -55 -110 -78q-59 -36 -114 -36q-133 0 -224 55q-73 41 -115 119q-32 50 -45 114l-5 55h-242l4 -83q19 -100 55 -187q55 -123 151 -197q119 -96 293 -114l-590 -590l123 -123l1294 1294h-4l635 631zM2034 709h-242l-5 50q-13 64 -41 114
q-41 73 -109 119q-87 55 -215 59l219 220q137 -41 229 -137q73 -78 119 -188q27 -77 41 -164z" />
</svg>
