<?xml version="1.0" standalone="no"?>
<!DOCTYPE svg PUBLIC "-//W3C//DTD SVG 1.1//EN" "http://www.w3.org/Graphics/SVG/1.1/DTD/svg11.dtd" >
<svg xmlns="http://www.w3.org/2000/svg" xmlns:xlink="http://www.w3.org/1999/xlink" version="1.1" width="2048" height="2048" viewBox="-10 0 2068 2048">
   <path fill="currentColor"
d="M1024 257q-344 0 -623 194t-401 503q122 310 401 503.5t623 193.5h100q-8 -26 -8 -91q0 -52 17 -139l4 -22q-74 22 -113 22q-126 0 -233 -63.5t-170 -170t-63 -233t63 -233.5t170 -170t233 -63t233 63t170 170t63 233q0 57 -8 83q126 -35 191 -35q175 0 310 92
q26 -48 65 -140q-122 -309 -401 -503t-623 -194zM1024 675q-118 0 -198.5 81t-80.5 198.5t80.5 198t198.5 80.5t198.5 -80.5t80.5 -198t-80.5 -198.5t-198.5 -81zM1673 1791v-187h-370v-183h370v-188l279 279z" />
</svg>
