<?xml version="1.0" standalone="no"?>
<!DOCTYPE svg PUBLIC "-//W3C//DTD SVG 1.1//EN" "http://www.w3.org/Graphics/SVG/1.1/DTD/svg11.dtd" >
<svg xmlns="http://www.w3.org/2000/svg" xmlns:xlink="http://www.w3.org/1999/xlink" version="1.1" width="2048" height="2048" viewBox="-10 0 2068 2048">
   <path fill="currentColor"
d="M1990 981l-923 -923q-62 -58 -144 -58h-721q-82 0 -142 60t-60 142v721q0 87 58 144l923 923q62 58 146 58t142 -58l43 -43q-163 -5 -300 -89t-216.5 -223.5t-79.5 -305.5t82 -307.5t223.5 -223.5t307.5 -82t305.5 79.5t223.5 216.5t89 300l43 -43q58 -58 58 -142
t-58 -146zM356 510q-63 0 -108.5 -43.5t-45.5 -108.5t45.5 -110.5t110.5 -45.5t108.5 45.5t43.5 110.5t-43.5 108.5t-110.5 43.5zM1341 880q193 0 327.5 134.5t134.5 326.5q0 140 -67 245l312 323l-139 139l-323 -312q-110 67 -245 67q-192 0 -326.5 -134.5t-134.5 -327
t134.5 -327t326.5 -134.5zM1341 1086q-105 0 -180 75t-75 180.5t75 182.5t180.5 77t182.5 -74.5t77 -182.5t-74.5 -183t-185.5 -75z" />
</svg>
