<?xml version="1.0" standalone="no"?>
<!DOCTYPE svg PUBLIC "-//W3C//DTD SVG 1.1//EN" "http://www.w3.org/Graphics/SVG/1.1/DTD/svg11.dtd" >
<svg xmlns="http://www.w3.org/2000/svg" xmlns:xlink="http://www.w3.org/1999/xlink" version="1.1" width="2048" height="2048" viewBox="-10 0 2068 2048">
   <path fill="currentColor"
d="M1559 1351q0 187 -80 349.5t-222 262.5l-256 -251l137 -137l119 119q82 -119 96 -247h-183v-192h183q-27 -137 -96 -247l-119 119l-137 -137l119 -119q-119 -82 -242 -96v187h-197v-187q-137 32 -242 96l292 292q10 0 23.5 -4.5t22.5 -4.5q82 0 139.5 57.5t57.5 139.5
t-57.5 139t-137.5 57t-137 -57t-57 -139q0 -28 9 -50l-292 -293q-83 119 -101 247h188v192h-188q32 137 101 247l114 -119l137 137l-251 251q-142 -100 -222 -262.5t-80 -349.5q0 -210 105 -391t283.5 -286t391 -105t391 105t283.5 286t105 391zM2048 377q0 -123 -87 -207.5
t-208 -84.5t-205.5 84.5t-84.5 207.5q0 92 52.5 167t139.5 107v311h196v-311q87 -32 142 -107t55 -167zM1755 473q-41 0 -70.5 -29.5t-29.5 -68.5t29.5 -68.5t68.5 -29.5t68.5 29.5t29.5 68.5t-29.5 68.5t-66.5 29.5z" />
</svg>
