<?xml version="1.0" standalone="no"?>
<!DOCTYPE svg PUBLIC "-//W3C//DTD SVG 1.1//EN" "http://www.w3.org/Graphics/SVG/1.1/DTD/svg11.dtd" >
<svg xmlns="http://www.w3.org/2000/svg" xmlns:xlink="http://www.w3.org/1999/xlink" version="1.1" width="2048" height="2048" viewBox="-10 0 2068 2048">
   <path fill="currentColor"
d="M620 1471v-5q67 -173 120 -259q82 -145 197 -236q140 -106 342 -154l-82 10q-101 14 -192 53q-130 48 -226 139q-120 111 -178 274l-24 -29q-24 -33 -43 -67q-24 -53 -24 -96q0 -58 38 -130q43 -86 115 -144q87 -72 207 -96t236 -39q192 -24 279 -48q129 -33 153 -82
l-24 92q-28 110 -67 216q-58 144 -130 260q-96 139 -206 211q-135 92 -294 92q-24 0 -67 -15l-48 120l-96 -33zM1024 202q221 0 411 110.5t300.5 300.5t110.5 411t-110.5 411t-300.5 300.5t-411 110.5t-411 -110.5t-300.5 -300.5t-110.5 -411t110.5 -411t300.5 -300.5
t411 -110.5zM1024 0q-279 0 -514.5 137t-372.5 372.5t-137 514.5t137 514.5t372.5 372.5t514.5 137t514.5 -137t372.5 -372.5t137 -514.5t-137 -514.5t-372.5 -372.5t-514.5 -137z" />
</svg>
