<?xml version="1.0" standalone="no"?>
<!DOCTYPE svg PUBLIC "-//W3C//DTD SVG 1.1//EN" "http://www.w3.org/Graphics/SVG/1.1/DTD/svg11.dtd" >
<svg xmlns="http://www.w3.org/2000/svg" xmlns:xlink="http://www.w3.org/1999/xlink" version="1.1" width="2048" height="2048" viewBox="-10 0 2068 2048">
   <path fill="currentColor"
d="M1024 428q160 0 298 80t218 218t80 298t-80 298t-218 218t-298 80t-298 -80t-218 -218t-80 -298t80 -298t218 -218t298 -80zM1024 256q-208 0 -384 104t-280 280t-104 384t104 384t280 280t384 104t384 -104t280 -280t104 -384t-104 -384t-280 -280t-384 -104zM392 392
l-92 -92q-148 148 -228 344l124 40q68 -168 196 -292zM144 1204q-16 -88 -16 -180t16 -180l-120 -36q-24 108 -24 216t24 216zM1976 644q-80 -196 -228 -344l-92 92q128 124 196 292zM72 1404q76 192 228 344l92 -92q-128 -124 -196 -292zM1656 1656l92 92
q152 -152 228 -344l-124 -40q-68 168 -196 292zM1904 844q16 88 16 180t-16 180l120 36q24 -112 24 -216t-24 -216z" />
</svg>
