<?xml version="1.0" standalone="no"?>
<!DOCTYPE svg PUBLIC "-//W3C//DTD SVG 1.1//EN" "http://www.w3.org/Graphics/SVG/1.1/DTD/svg11.dtd" >
<svg xmlns="http://www.w3.org/2000/svg" xmlns:xlink="http://www.w3.org/1999/xlink" version="1.1" width="2048" height="2048" viewBox="-10 0 2068 2048">
   <path fill="currentColor"
d="M2048 1125q0 86 -58 144l-43 43q-5 -216 -146.5 -379.5t-353.5 -206.5l-524 -524h-721v721l524 524q43 212 206.5 353.5t379.5 146.5l-43 43q-58 58 -142 58t-146 -58l-923 -923q-58 -62 -58 -144v-721q0 -82 60 -142t142 -60h721q82 0 144 58l923 923q58 62 58 144z
M308 462q0 62 43 107.5t108 45.5t110.5 -45.5t45.5 -110.5t-45.5 -108t-110.5 -43t-108 43t-43 111zM1341 880q-192 0 -326.5 134.5t-134.5 327t134.5 327t326.5 134.5q135 0 245 -67l323 312l139 -139l-312 -323q67 -105 67 -245q0 -192 -134.5 -326.5t-327.5 -134.5z
M1341 1086q111 0 185.5 75t74.5 180.5t-74.5 182.5t-182.5 77t-183 -74.5t-75 -182.5t75 -183t180 -75z" />
</svg>
