<?xml version="1.0" standalone="no"?>
<!DOCTYPE svg PUBLIC "-//W3C//DTD SVG 1.1//EN" "http://www.w3.org/Graphics/SVG/1.1/DTD/svg11.dtd" >
<svg xmlns="http://www.w3.org/2000/svg" xmlns:xlink="http://www.w3.org/1999/xlink" version="1.1" width="2048" height="2048" viewBox="-10 0 2068 2048">
   <path fill="currentColor"
d="M1024 852h256v-168h-256v-88q0 -36 -24 -60t-62 -24t-62 24t-24 60v880q-36 20 -60 60t-24 84q0 72 50 122t120 50t120 -50t50 -122q0 -44 -22 -84t-62 -60v-280h256v-172h-256v-172zM2048 1024q0 208 -78 396t-222 328l-92 -92q124 -124 194 -288t70 -344t-70 -344
t-194 -288l92 -92q144 140 222 328t78 396zM128 1024q0 180 70 344t194 288l-92 92q-144 -140 -222 -328t-78 -396t78 -396t222 -328l92 92q-124 124 -194 288t-70 344zM1792 1024q0 224 -116 408t-312 280v-200q120 -80 188 -210t68 -278q0 -160 -80 -298t-218 -218
t-298 -80t-298 80t-218 218t-80 298q0 148 68 278t188 210v200q-196 -96 -312 -280t-116 -408q0 -208 104 -384t280 -280t384 -104t384 104t280 280t104 384z" />
</svg>
