<?xml version="1.0" standalone="no"?>
<!DOCTYPE svg PUBLIC "-//W3C//DTD SVG 1.1//EN" "http://www.w3.org/Graphics/SVG/1.1/DTD/svg11.dtd" >
<svg xmlns="http://www.w3.org/2000/svg" xmlns:xlink="http://www.w3.org/1999/xlink" version="1.1" width="2048" height="2048" viewBox="-10 0 2068 2048">
   <path fill="currentColor"
d="M1024 0q-279 0 -514.5 137t-372.5 372.5t-137 514.5t137 514.5t372.5 372.5t514.5 137t514.5 -137t372.5 -372.5t137 -514.5t-137 -514.5t-372.5 -372.5t-514.5 -137zM779 1558q-34 0 -82 -20l-58 145l-120 -44l19 -38q82 -212 140 -317q101 -173 240 -279
q168 -130 414 -188l-68 5q-81 10 -163 34q-115 33 -212 86q-120 68 -211 169q-106 120 -164 278l-24 -33q-33 -44 -53 -82q-28 -63 -28 -115q0 -73 43 -159q53 -101 139 -173q106 -87 250 -115q63 -15 197 -34l82 -15q236 -28 332 -52q159 -39 187 -101l-24 110
q-33 135 -86 260q-68 173 -154 307q-111 169 -245 260q-164 111 -351 111z" />
</svg>
