<?xml version="1.0" standalone="no"?>
<!DOCTYPE svg PUBLIC "-//W3C//DTD SVG 1.1//EN" "http://www.w3.org/Graphics/SVG/1.1/DTD/svg11.dtd" >
<svg xmlns="http://www.w3.org/2000/svg" xmlns:xlink="http://www.w3.org/1999/xlink" version="1.1" width="2048" height="2048" viewBox="-10 0 2068 2048">
   <path fill="currentColor"
d="M2048 558v558h-187v-558h187zM1861 1490h187v-187h-187v187zM0 745v187h375q4 -34 8.5 -95t8.5 -92h-392zM375 1116h-375v187h392q-4 -31 -8.5 -92t-8.5 -95zM458 505q4 -43 39 -104l17 -26h-514v183h440q4 -9 8.5 -26.5t9.5 -26.5zM0 1490v183h523q-61 -87 -83 -183
h-440zM837 353q-131 0 -210 209q-69 192 -69 462t69 462q79 209 210 209q196 0 383 -83q201 -83 323 -231q130 -157 130 -357t-130 -357q-122 -148 -323 -231q-187 -83 -383 -83zM845 1508q-35 -35 -61 -153q-39 -144 -39 -331t39 -331q26 -118 61 -153q144 5 288 61
q157 61 248 162q109 117 109 261t-109 261q-91 101 -248 162q-144 56 -288 61z" />
</svg>
