<?xml version="1.0" standalone="no"?>
<!DOCTYPE svg PUBLIC "-//W3C//DTD SVG 1.1//EN" "http://www.w3.org/Graphics/SVG/1.1/DTD/svg11.dtd" >
<svg xmlns="http://www.w3.org/2000/svg" xmlns:xlink="http://www.w3.org/1999/xlink" version="1.1" width="2048" height="2048" viewBox="-10 0 2068 2048">
   <path fill="currentColor"
d="M128 1024q0 180 70 344t194 288l-92 92q-144 -140 -222 -328t-78 -396t78 -396t222 -328l92 92q-124 124 -194 288t-70 344zM1792 1024q0 208 -104 384t-280 280t-384 104t-384 -104t-280 -280t-104 -384t104 -384t280 -280t384 -104t384 104t280 280t104 384zM428 1024
q0 48 8 108q24 -24 54 -24t44 10t34 38l12 12q84 112 178 112t182 -112l4 -4q28 -40 44 -48t40 -8t36 10t36 42l8 8q88 112 182 112t178 -112l12 -12q20 -28 34 -38t44 -10t54 24q8 -60 8 -108q0 -160 -80 -298t-218 -218t-298 -80t-298 80t-218 218t-80 298zM1748 300
l-92 92q124 124 194 288t70 344t-70 344t-194 288l92 92q144 -140 222 -328t78 -396t-78 -396t-222 -328z" />
</svg>
