<?xml version="1.0" standalone="no"?>
<!DOCTYPE svg PUBLIC "-//W3C//DTD SVG 1.1//EN" "http://www.w3.org/Graphics/SVG/1.1/DTD/svg11.dtd" >
<svg xmlns="http://www.w3.org/2000/svg" xmlns:xlink="http://www.w3.org/1999/xlink" version="1.1" width="2048" height="2048" viewBox="-10 0 2068 2048">
   <path fill="currentColor"
d="M1108 1024q0 36 -24 60t-60 24t-60 -24t-24 -60t24 -60t60 -24t60 24t24 60zM852 1024l-256 -256v172h-340v168h340v172zM1196 1024l256 256v-172h340v-168h-340v-172zM1748 300l-92 92q124 124 194 288t70 344t-70 344t-194 288l92 92q144 -140 222 -328t78 -396
t-78 -396t-222 -328zM484 768q76 -152 220 -246t320 -94t320 94t220 246h184q-80 -228 -278 -370t-446 -142t-446 142t-278 370h184zM392 392l-92 -92q-144 140 -222 328t-78 396t78 396t222 328l92 -92q-124 -124 -194 -288t-70 -344t70 -344t194 -288zM1564 1280
q-76 152 -220 246t-320 94t-320 -94t-220 -246h-184q80 228 278 370t446 142t446 -142t278 -370h-184z" />
</svg>
