<?xml version="1.0" standalone="no"?>
<!DOCTYPE svg PUBLIC "-//W3C//DTD SVG 1.1//EN" "http://www.w3.org/Graphics/SVG/1.1/DTD/svg11.dtd" >
<svg xmlns="http://www.w3.org/2000/svg" xmlns:xlink="http://www.w3.org/1999/xlink" version="1.1" width="2048" height="2048" viewBox="-10 0 2068 2048">
   <path fill="currentColor"
d="M1024 1796h-716v-822h-308l1024 -924l284 255h-77v173q-92 34 -149.5 113.5t-57.5 175.5v1029zM1332 666h101v-154h413v154h101q43 0 72 31t29 70v1130q0 43 -29 72t-72 29h-615q-44 0 -72.5 -29t-28.5 -72v-1130q0 -39 28.5 -70t72.5 -31zM1433 873v307h413v-307h-413z
" />
</svg>
