<?xml version="1.0" standalone="no"?>
<!DOCTYPE svg PUBLIC "-//W3C//DTD SVG 1.1//EN" "http://www.w3.org/Graphics/SVG/1.1/DTD/svg11.dtd" >
<svg xmlns="http://www.w3.org/2000/svg" xmlns:xlink="http://www.w3.org/1999/xlink" version="1.1" width="2048" height="2048" viewBox="-10 0 2065 2048">
   <path fill="currentColor"
d="M865 0q-181 0 -307.5 126t-126.5 305t126.5 305.5t305.5 126.5t305 -126.5t126 -305.5t-126 -305t-303 -126zM865 217q86 0 149 63t63 151.5t-63 151.5t-151.5 63t-151.5 -63t-63 -151.5t63 -151.5t154 -63zM865 969q-161 0 -353 50q-217 50 -353 141q-156 106 -156 242
v323h1024q-36 -70 -56 -207h-762v-116q0 -35 101 -90.5t237 -90.5q167 -46 318 -46q25 0 78 5t84 5q60 -131 116 -181q-162 -35 -278 -35zM1617 1725q-111 0 -189.5 -78t-78.5 -194q0 -71 31 -116l-116 -121q-76 116 -76 237q0 181 126 307.5t303 126.5v161l237 -237
l-237 -247v161zM1617 1024v-161l-237 237l237 237v-152q111 0 189 78.5t78 189.5q0 70 -30 121l116 116q75 -111 75 -237q0 -177 -126 -303t-302 -126z" />
</svg>
