<?xml version="1.0" standalone="no"?>
<!DOCTYPE svg PUBLIC "-//W3C//DTD SVG 1.1//EN" "http://www.w3.org/Graphics/SVG/1.1/DTD/svg11.dtd" >
<svg xmlns="http://www.w3.org/2000/svg" xmlns:xlink="http://www.w3.org/1999/xlink" version="1.1" width="2048" height="2048" viewBox="-10 0 2058 2048">
   <path fill="currentColor"
d="M932 932v-374h184v374h-184zM1116 0v375h-184v-375h184zM932 1490v-374h184v374h-184zM745 1769h-279v-1490h279v-183h-279q-78 0 -132.5 54.5t-54.5 128.5v1490q0 74 54.5 128.5t132.5 54.5h279v-183zM1303 187v467h279v1115h-279v183h279q78 0 132.5 -54.5t54.5 -128.5
v-1115zM1116 1673h-184v375h184v-375z" />
</svg>
