<?xml version="1.0" standalone="no"?>
<!DOCTYPE svg PUBLIC "-//W3C//DTD SVG 1.1//EN" "http://www.w3.org/Graphics/SVG/1.1/DTD/svg11.dtd" >
<svg xmlns="http://www.w3.org/2000/svg" xmlns:xlink="http://www.w3.org/1999/xlink" version="1.1" width="2048" height="2048" viewBox="-10 0 2065 2048">
   <path fill="currentColor"
d="M1509 1128q-9 0 -31 22l-17 118q-44 18 -75 49l-115 -49q-17 0 -26 9l-93 163q-13 9 9 27l102 75v96l-102 75q-9 9 -9 27l93 158q9 9 26 9l115 -44l22 13q35 27 53 31l17 123q0 18 31 18h185q9 0 15.5 -4.5t6.5 -13.5l18 -123q39 -13 75 -44l114 44q27 0 27 -9l92 -158
q9 -9 -9 -27l-101 -75v-96l101 -75q9 -9 9 -27l-92 -163q-9 -9 -27 -9l-105 49l-18 -13q-40 -27 -66 -36l-18 -118q0 -9 -6.5 -15.5t-15.5 -6.5h-185zM1602 1458q57 0 99 42t42 99t-42 99t-99.5 42t-99 -42t-41.5 -99t41.5 -99t99.5 -42zM1012 1881h-1009l1881 -1881v1009
q-150 -66 -282 -66q-181 0 -330.5 88t-238 237.5t-88.5 330.5q0 163 67 282z" />
</svg>
