<?xml version="1.0" standalone="no"?>
<!DOCTYPE svg PUBLIC "-//W3C//DTD SVG 1.1//EN" "http://www.w3.org/Graphics/SVG/1.1/DTD/svg11.dtd" >
<svg xmlns="http://www.w3.org/2000/svg" xmlns:xlink="http://www.w3.org/1999/xlink" version="1.1" width="2048" height="2048" viewBox="-10 0 2068 2048">
   <path fill="currentColor"
d="M0 1952q0 39 28.5 67.5t67.5 28.5h1207q39 0 65 -28.5t26 -67.5v-91h-1394v91zM697 745q-178 0 -335 61q-162 65 -257 187q-105 131 -105 310h1394q0 -179 -100 -310q-96 -122 -261 -187q-153 -61 -336 -61zM244 1116q70 -96 218 -144q113 -40 235 -40t240 40
q144 48 213 144h-906zM0 1490h1394v183h-1394v-183zM1582 375v-375h-188v375h-462l22 183h889l-131 1303h-130v187h161q57 0 100.5 -39t47.5 -100l157 -1534h-466z" />
</svg>
