<?xml version="1.0" standalone="no"?>
<!DOCTYPE svg PUBLIC "-//W3C//DTD SVG 1.1//EN" "http://www.w3.org/Graphics/SVG/1.1/DTD/svg11.dtd" >
<svg xmlns="http://www.w3.org/2000/svg" xmlns:xlink="http://www.w3.org/1999/xlink" version="1.1" width="2048" height="2048" viewBox="-10 0 2068 2048">
   <path fill="currentColor"
d="M1673 558q-74 0 -128.5 54.5t-54.5 132.5v187q0 75 54.5 129.5t128.5 54.5h188v187h-371v187h371q78 0 132.5 -54.5t54.5 -132.5v-187q0 -75 -54.5 -129.5t-132.5 -54.5h-188v-187h375v-187h-375zM745 558v932h371q78 0 132.5 -54.5t54.5 -132.5v-558q0 -78 -54.5 -132.5
t-132.5 -54.5h-371zM932 745h184v558h-184v-558zM187 558q-78 0 -132.5 54.5t-54.5 132.5v745h187v-374h188v374h183v-745q0 -78 -54.5 -132.5t-128.5 -54.5h-188zM187 745h188v187h-188v-187z" />
</svg>
