<?xml version="1.0" standalone="no"?>
<!DOCTYPE svg PUBLIC "-//W3C//DTD SVG 1.1//EN" "http://www.w3.org/Graphics/SVG/1.1/DTD/svg11.dtd" >
<svg xmlns="http://www.w3.org/2000/svg" xmlns:xlink="http://www.w3.org/1999/xlink" version="1.1" width="2048" height="2048" viewBox="-10 0 2068 2048">
   <path fill="currentColor"
d="M967 414l-165 -83l117 -235h789l118 235l-166 83l-70 -135h-557zM1930 654h-422l-74 -279h-240l-78 279h-419l-117 235l165 83l70 -135h998l65 135l170 -83zM1848 1952h-192l-22 -83l-322 -483l-323 483l-22 83h-191l270 -1020h192l-35 123l109 165l109 -165l-31 -123
h192zM1255 1303l-83 -126l-109 418zM1564 1595l-113 -418l-83 126zM745 1394l-370 -370v279h-375v187h375v279z" />
</svg>
