<?xml version="1.0" standalone="no"?>
<!DOCTYPE svg PUBLIC "-//W3C//DTD SVG 1.1//EN" "http://www.w3.org/Graphics/SVG/1.1/DTD/svg11.dtd" >
<svg xmlns="http://www.w3.org/2000/svg" xmlns:xlink="http://www.w3.org/1999/xlink" version="1.1" width="2048" height="2048" viewBox="-10 0 2068 2048">
   <path fill="currentColor"
d="M2048 1639q-22 39 -31 48l-411 -411q153 35 269 131t173 232zM1020 335q166 0 306 35q114 30 188 83q66 39 66 65.5t-66 70.5q-70 43 -184 74q-131 39 -293 44l180 179q227 -30 363 -114v263q-57 35 -92 52q140 0 280 57v-625q0 -101 -100.5 -186.5t-273.5 -135.5
t-374 -50q-276 0 -460 83l153 149q123 -44 307 -44zM1960 1875l-118 118l-57 -52q-166 83 -297 83q-188 0 -343.5 -105t-216.5 -271q83 -197 271 -298l-140 -140q-66 39 -179 149q-250 -13 -429 -110v206q0 26 74 70q88 53 206 79l-9 35l74 171q-227 -36 -376 -134
t-149 -221v-936q0 -27 22 -84l-293 -288l123 -123zM1028 1175l-315 -319q-118 -22 -262 -92v262q87 66 236 103t324 37q4 5 13 5zM1654 1801l-100 -105q-14 39 -66 39q-44 0 -70 -26t-26 -72t39 -73l-105 -100q-74 74 -74 170.5t67.5 164t168.5 67.5q48 5 94 -12.5t72 -52.5
z" />
</svg>
