<?xml version="1.0" standalone="no"?>
<!DOCTYPE svg PUBLIC "-//W3C//DTD SVG 1.1//EN" "http://www.w3.org/Graphics/SVG/1.1/DTD/svg11.dtd" >
<svg xmlns="http://www.w3.org/2000/svg" xmlns:xlink="http://www.w3.org/1999/xlink" version="1.1" width="2048" height="2048" viewBox="-10 0 2068 2048">
   <path fill="currentColor"
d="M1198 1970q-101 28 -224 28q-265 0 -489 -130.5t-354.5 -354.5t-130.5 -489t130.5 -489t354.5 -354.5t489 -130.5q164 0 370 69l-155 155q-101 -32 -215 -32q-211 0 -391.5 105.5t-285.5 286t-105 390.5t105 390.5t285.5 286t391.5 105.5q87 0 128 -9q23 82 96 173z
M576 837l-137 137l439 439l973 -974l-137 -137l-836 841zM1559 1221v292h-293v192h293v293h196v-293h293v-192h-293v-292h-196z" />
</svg>
