<?xml version="1.0" standalone="no"?>
<!DOCTYPE svg PUBLIC "-//W3C//DTD SVG 1.1//EN" "http://www.w3.org/Graphics/SVG/1.1/DTD/svg11.dtd" >
<svg xmlns="http://www.w3.org/2000/svg" xmlns:xlink="http://www.w3.org/1999/xlink" version="1.1" width="2048" height="2048" viewBox="-10 0 2068 2048">
   <path fill="currentColor"
d="M392 414l-165 -83l113 -235h789l117 235l-165 83l-66 -135h-557zM1351 654h-419l-74 -279h-244l-74 279h-418l-122 235l170 83l65 -135h1003l65 135l165 -83zM1272 1952h-191l-22 -83l-323 -483l-322 483l-22 83h-192l266 -1020h196l-35 123l109 165l109 -165l-35 -123
h192zM680 1303l-83 -126l-109 418zM985 1595l-109 -418l-83 126zM2048 1394l-375 -370v279h-370v187h370v279z" />
</svg>
