<?xml version="1.0" standalone="no"?>
<!DOCTYPE svg PUBLIC "-//W3C//DTD SVG 1.1//EN" "http://www.w3.org/Graphics/SVG/1.1/DTD/svg11.dtd" >
<svg xmlns="http://www.w3.org/2000/svg" xmlns:xlink="http://www.w3.org/1999/xlink" version="1.1" width="2048" height="2048" viewBox="-10 0 2068 2048">
   <path fill="currentColor"
d="M1211 887l-653 -654q183 -83 457 -83q201 0 373 50.5t272 135t100 185.5q0 130 -154.5 228.5t-394.5 137.5zM1407 1078h75q130 0 230 40q48 -61 48 -131v-279q0 105 -111 194t-289 133zM1612 1283l405 410q22 -35 31 -48q-65 -140 -178.5 -235.5t-257.5 -126.5z
M1952 1872l-118 117l-56 -52q-166 83 -296 83q-188 0 -342.5 -104.5t-215.5 -270.5q83 -196 270 -296l-139 -140q-66 39 -179 148q-262 -26 -434 -128.5t-172 -241.5v-279q0 144 189.5 246.5t472.5 123.5l-213 -213q-200 -48 -324.5 -141.5t-124.5 -202.5q0 -26 22 -83
l-292 -288l122 -122zM1647 1797l-100 -104q-13 39 -65 39q-44 0 -70 -26t-26 -72t39 -72l-105 -100q-74 74 -74 170t67.5 163.5t168.5 67.5q47 4 93 -13.5t72 -52.5zM719 1636l26 -65l9 -13q9 -18 9 -31q-223 -43 -358 -137t-135 -216v279q0 122 148 220t384 133
q-35 -52 -48 -104z" />
</svg>
