<?xml version="1.0" standalone="no"?>
<!DOCTYPE svg PUBLIC "-//W3C//DTD SVG 1.1//EN" "http://www.w3.org/Graphics/SVG/1.1/DTD/svg11.dtd" >
<svg xmlns="http://www.w3.org/2000/svg" xmlns:xlink="http://www.w3.org/1999/xlink" version="1.1" width="2048" height="2048" viewBox="-10 0 2058 2048">
   <path fill="currentColor"
d="M1620 548l128 -120q-84 -88 -128 -120l-120 120q-208 -172 -476 -172q-208 0 -386 102t-280 280t-102 386t102 386t280 280t386 102t386 -102t280 -280t102 -386q0 -136 -44 -260t-128 -216zM1108 1108h-168v-596h168v596zM1280 0h-512v172h512v-172zM1108 2048h-168
v-172h168v172zM1452 2048h-172v-172h172v172zM768 2048h-172v-172h172v172z" />
</svg>
