<?xml version="1.0" standalone="no"?>
<!DOCTYPE svg PUBLIC "-//W3C//DTD SVG 1.1//EN" "http://www.w3.org/Graphics/SVG/1.1/DTD/svg11.dtd" >
<svg xmlns="http://www.w3.org/2000/svg" xmlns:xlink="http://www.w3.org/1999/xlink" version="1.1" width="2048" height="2048" viewBox="-10 0 2058 2048">
   <path fill="currentColor"
d="M1936 1712q8 0 8 7t-8 11l-92 157q-9 13 -26 13l-113 -39l-74 48l-18 117q0 9 -6.5 15.5t-15.5 6.5h-183q-8 0 -30 -22l-18 -117q-39 -18 -74 -48l-113 48q-17 0 -26 -9l-92 -161q-8 -9 9 -27l100 -74v-95l-100 -75q-9 -8 -9 -26l92 -157q9 -8 26 -8l113 43l74 -43
l18 -122q0 -18 30 -18h183q9 0 15.5 4.5t6.5 13.5l18 122q26 8 82 43l114 -43q26 0 26 8l96 157q8 9 -13 26l-101 75v95zM1631 1582q0 -57 -41.5 -98.5t-98 -41.5t-98 41.5t-41.5 98t41.5 98t98 41.5t98 -41.5t41.5 -97.5zM1025 1211v-557h-183v557h183zM1212 0h-557v187
h557v-187zM868 1769q-161 -22 -294 -113.5t-211.5 -233t-78.5 -306.5q0 -179 87 -327t235.5 -235.5t326.5 -87.5q223 0 395 131t229 335q104 14 204 53q-43 -227 -178 -388l139 -131q-91 -91 -139 -130l-131 130q-100 -91 -235 -139t-284 -48q-226 0 -420 113t-305 305
t-111 420.5t111 420.5t305 303t420 111h27q-61 -70 -92 -183z" />
</svg>
