<?xml version="1.0" standalone="no"?>
<!DOCTYPE svg PUBLIC "-//W3C//DTD SVG 1.1//EN" "http://www.w3.org/Graphics/SVG/1.1/DTD/svg11.dtd" >
<svg xmlns="http://www.w3.org/2000/svg" xmlns:xlink="http://www.w3.org/1999/xlink" version="1.1" width="2048" height="2048" viewBox="-10 0 2058 2048">
   <path fill="currentColor"
d="M573 1707l-29 -71l20 -39q-135 -38 -226 -91q-81 -48 -81 -72v-225q201 91 470 120q105 -120 254 -202h-110q-183 0 -348.5 -43t-265.5 -110v-298q124 63 273 101q163 43 341 43q374 0 613 -144v288q-62 38 -100 58q153 0 307 62v-676q0 -111 -110.5 -204.5t-300 -148.5
t-410 -55t-410 55t-300 148.5t-110.5 204.5v1026q0 134 163.5 242t422.5 147q-20 -34 -63 -116zM871 206q182 0 335 39q125 33 206 91q72 43 72 74t-72 74q-81 53 -206 87q-153 43 -335.5 43t-335.5 -43q-125 -34 -206 -87q-72 -43 -72 -74t72 -74q81 -58 206 -91
q153 -39 336 -39zM1384 1535q43 0 71.5 28.5t28.5 74t-28.5 74.5t-74 29t-74.5 -29t-29 -74.5t29 -74t77 -28.5zM1384 1228q-207 0 -377 115t-237 293q67 182 237 297t374 115t374.5 -115t242.5 -297q-72 -178 -242.5 -293t-371.5 -115zM1384 1895q-111 0 -185 -74.5
t-74 -182.5t74 -182.5t182 -74.5t182.5 74.5t74.5 182.5t-74.5 182.5t-179.5 74.5z" />
</svg>
