<?xml version="1.0" standalone="no"?>
<!DOCTYPE svg PUBLIC "-//W3C//DTD SVG 1.1//EN" "http://www.w3.org/Graphics/SVG/1.1/DTD/svg11.dtd" >
<svg xmlns="http://www.w3.org/2000/svg" xmlns:xlink="http://www.w3.org/1999/xlink" version="1.1" width="2048" height="2048" viewBox="-10 0 2058 2048">
   <path fill="currentColor"
d="M1266 1344l119 237q-67 208 -244 337.5t-395 129.5q-136 0 -260 -53.5t-213.5 -143.5t-143 -214t-53.5 -260q0 -211 121.5 -383.5t319.5 -245.5l20 153q-142 63 -227 192.5t-85 283.5q0 106 41.5 202.5t111 166.5t166 111t202.5 41q110 0 210 -45t170.5 -119.5t109 -177
t30.5 -212.5zM1903 1460l69 133l-299 149q-13 8 -33 8q-21 0 -39.5 -11.5t-26.5 -29.5l-278 -555h-550q-28 0 -49 -19t-25 -47l-112 -907q-2 -17 7 -49q17 -59 67 -95.5t112 -36.5q77 0 131.5 54.5t54.5 131.5q0 80 -60 137t-139 49l43 335h491v149h-473l18 150h530
q20 0 39 11t28 29l264 530z" />
</svg>
