<?xml version="1.0" standalone="no"?>
<!DOCTYPE svg PUBLIC "-//W3C//DTD SVG 1.1//EN" "http://www.w3.org/Graphics/SVG/1.1/DTD/svg11.dtd" >
<svg xmlns="http://www.w3.org/2000/svg" xmlns:xlink="http://www.w3.org/1999/xlink" version="1.1" width="2048" height="2048" viewBox="-10 0 2068 2048">
   <path fill="currentColor"
d="M1221 910q24 216 -29 322q-19 38 -57.5 62t-101 24t-110.5 -38q-24 -24 -38.5 -53t-14.5 -53h-183q0 53 31.5 113t74.5 99q72 67 178 84t207 -17t158 -106q101 -129 101 -321.5t-101 -322.5q-62 -77 -163 -108t-206.5 -14.5t-178.5 84.5q-48 43 -74.5 103t-26.5 132h183
q0 -62 48 -115t120 -53q106 0 154 86q19 44 29 92zM1024 1q-279 0 -514.5 137t-372.5 372.5t-137 514.5q14 390 226 654q192 240 500 327q149 41 298 41t298 -41q308 -87 500 -327q212 -264 226 -654q0 -279 -137 -514.5t-372.5 -372.5t-514.5 -137zM202 1025
q14 -312 187 -524q154 -187 394.5 -257t481 0t394.5 257q173 212 187 524q0 221 -110.5 411t-300.5 300.5t-411 110.5t-411 -110.5t-300.5 -300.5t-110.5 -411z" />
</svg>
