<?xml version="1.0" standalone="no"?>
<!DOCTYPE svg PUBLIC "-//W3C//DTD SVG 1.1//EN" "http://www.w3.org/Graphics/SVG/1.1/DTD/svg11.dtd" >
<svg xmlns="http://www.w3.org/2000/svg" xmlns:xlink="http://www.w3.org/1999/xlink" version="1.1" width="2048" height="2048" viewBox="-10 0 2058 2048">
   <path fill="currentColor"
d="M981 1846h-726l615 -615l192 192q101 -159 260 -236l164 -163v111q62 -10 103 -10t103 10v-520l-615 -615h-822q-87 0 -147 60t-60 142v1644q0 82 60 142t147 60h803q-58 -96 -77 -202zM971 154l567 562h-567v-562zM462 716q81 0 141 60.5t60 144.5t-60 144t-144 60
t-144 -60t-60 -144t60 -144.5t147 -60.5zM2000 1639v207h-822v-207h822z" />
</svg>
