<?xml version="1.0" standalone="no"?>
<!DOCTYPE svg PUBLIC "-//W3C//DTD SVG 1.1//EN" "http://www.w3.org/Graphics/SVG/1.1/DTD/svg11.dtd" >
<svg xmlns="http://www.w3.org/2000/svg" xmlns:xlink="http://www.w3.org/1999/xlink" version="1.1" width="2048" height="2048" viewBox="-10 0 2058 2048">
   <path fill="currentColor"
d="M1183 2048h-366q-19 0 -33.5 -12t-14.5 -31l-38 -269q-87 -34 -173 -101l-255 101q-19 9 -38.5 2t-24.5 -22l-206 -355q-10 -20 -7.5 -36.5t16.5 -31.5l217 -168l-5 -101l5 -101l-217 -168q-14 -15 -16.5 -31.5t7.5 -36.5l206 -355q5 -15 24.5 -22t38.5 2l255 101
q86 -67 173 -101l38 -269q0 -19 14.5 -31t33.5 -12h414q19 0 33.5 12t14.5 31l38 269q87 34 173 101l255 -101q19 -9 38.5 -2t24.5 22l206 355q10 20 7.5 36.5t-16.5 31.5l-217 168l5 120q-82 -19 -154 -19q-33 0 -53 5q0 -101 -28 -188l216 -158l-77 -135l-245 106
q-125 -144 -313 -183l-38 -269h-154l-38 269q-188 39 -313 183l-245 -106l-77 135l216 158q-62 183 0 366l-216 163l77 130l250 -106q125 144 308 183l38 269h111q43 115 125 202zM1062 1428q-14 5 -38 5q-168 0 -288.5 -120.5t-120.5 -288.5t120.5 -288.5t288.5 -120.5
t288.5 120.5t120.5 288.5q0 24 -5 38q-125 44 -223.5 142.5t-142.5 223.5zM1231 1024q0 -87 -60 -147t-147 -60t-147 60t-60 147t60 147t147 60t147 -60t60 -147zM1740 1332h207v615h-207v-615zM1332 1332h206v615h-206v-615z" />
</svg>
