<?xml version="1.0" standalone="no"?>
<!DOCTYPE svg PUBLIC "-//W3C//DTD SVG 1.1//EN" "http://www.w3.org/Graphics/SVG/1.1/DTD/svg11.dtd" >
<svg xmlns="http://www.w3.org/2000/svg" xmlns:xlink="http://www.w3.org/1999/xlink" version="1.1" width="2048" height="2048" viewBox="-10 0 2068 2048">
   <path fill="currentColor"
d="M852 340q184 0 342 92t250 250t92 342t-92 342t-250 250t-342 92t-340 -92t-248 -250t-92 -342t92 -342t248 -250t340 -92zM852 172q-228 0 -424 114t-312 310t-116 428t116 428t312 310t426 114t426 -114t312 -310t116 -428t-116 -428t-312 -310t-428 -114zM852 940
q-36 0 -60 22t-24 62t24 62t62 22t62 -22t24 -62t-24 -62t-64 -22zM744 792q48 -24 108 -24t112 24l60 -60q-76 -48 -170 -48t-170 48zM1108 1024q0 60 -24 112l60 60q52 -80 52 -172t-52 -172l-60 60q24 52 24 112zM596 1024q0 -60 28 -112l-60 -60q-52 80 -52 172t52 172
l60 -60q-28 -52 -28 -112zM964 1256q-52 24 -112 24t-108 -24l-60 60q76 48 170 48t170 -48zM1272 724l-60 60q68 112 68 240t-68 240l60 60q92 -136 92 -300t-92 -300zM616 664q108 -68 238 -68t238 68l60 -60q-136 -92 -300 -92t-296 92zM1092 1384q-108 68 -238 68
t-238 -68l-60 60q132 92 296 92t300 -92zM496 1264q-68 -112 -68 -240t68 -240l-60 -60q-96 136 -96 300t96 300zM2048 596h-172v512h172v-424v-88zM2048 1280h-172v172h172v-172z" />
</svg>
