<?xml version="1.0" standalone="no"?>
<!DOCTYPE svg PUBLIC "-//W3C//DTD SVG 1.1//EN" "http://www.w3.org/Graphics/SVG/1.1/DTD/svg11.dtd" >
<svg xmlns="http://www.w3.org/2000/svg" xmlns:xlink="http://www.w3.org/1999/xlink" version="1.1" width="2048" height="2048" viewBox="-10 0 2058 2048">
   <path fill="currentColor"
d="M1005 1796h-706l599 -599l187 187q98 -154 252 -229l159 -159v107q61 -9 101 -9t100 9v-504l-598 -599h-800q-84 0 -142.5 58.5t-58.5 137.5v1600q0 79 58.5 137.5t142.5 58.5h781q-56 -94 -75 -196zM996 150l552 547h-552v-547zM500 697q80 0 138.5 58.5t58.5 140
t-58.5 140t-140.5 58.5t-140.5 -58.5t-58.5 -140t58.5 -140t142.5 -58.5zM1950 1482l-215 211l215 215l-140 140l-216 -215l-210 215l-140 -140l210 -215l-210 -211l140 -140l210 210l216 -210z" />
</svg>
