<?xml version="1.0" standalone="no"?>
<!DOCTYPE svg PUBLIC "-//W3C//DTD SVG 1.1//EN" "http://www.w3.org/Graphics/SVG/1.1/DTD/svg11.dtd" >
<svg xmlns="http://www.w3.org/2000/svg" xmlns:xlink="http://www.w3.org/1999/xlink" version="1.1" width="2048" height="2048" viewBox="-10 0 2058 2048">
   <path fill="currentColor"
d="M1183 2048h-366q-19 0 -33.5 -12t-14.5 -31l-38 -269q-87 -34 -173 -101l-255 101q-19 9 -38.5 2t-24.5 -22l-206 -355q-10 -20 -7.5 -36.5t16.5 -31.5l217 -168q-5 -58 -5 -101t5 -101l-217 -168q-14 -15 -16.5 -31.5t7.5 -36.5l206 -355q5 -15 24.5 -22t38.5 2l255 101
q86 -67 173 -101l38 -269q0 -19 14.5 -31t33.5 -12h414q19 0 33.5 12t14.5 31l38 269q87 34 173 101l255 -101q19 -9 38.5 -2t24.5 22l206 355q10 20 7.5 36.5t-16.5 31.5l-217 168q5 58 5 101v19q-82 -19 -154 -19q-139 0 -264 58q10 -39 10 -58q0 -149 -106 -255
t-255 -106t-255 106t-106 255t106 255t255 106q19 0 58 -10q-58 125 -58 264q0 236 159 409zM1740 1332h207v615h-207v-615zM1332 1332h206v615h-206v-615z" />
</svg>
