<?xml version="1.0" standalone="no"?>
<!DOCTYPE svg PUBLIC "-//W3C//DTD SVG 1.1//EN" "http://www.w3.org/Graphics/SVG/1.1/DTD/svg11.dtd" >
<svg xmlns="http://www.w3.org/2000/svg" xmlns:xlink="http://www.w3.org/1999/xlink" version="1.1" width="2048" height="2048" viewBox="-10 0 2068 2048">
   <path fill="currentColor"
d="M2010 1505l-899 -1457q-29 -48 -87 -48t-87 48l-899 1452q-38 67 -38 139q0 159 178 265q255 144 846 144q404 0 659 -67q365 -106 365 -342q0 -72 -38 -134zM1024 298l615 990q-250 -57 -615 -57t-615 57zM1024 1846q-221 0 -411 -29t-300.5 -74.5t-110.5 -103
t110.5 -103.5t300.5 -74.5t411 -28.5t411 28.5t300.5 74.5t110.5 103.5t-110.5 103t-300.5 74.5t-411 29z" />
</svg>
