<?xml version="1.0" standalone="no"?>
<!DOCTYPE svg PUBLIC "-//W3C//DTD SVG 1.1//EN" "http://www.w3.org/Graphics/SVG/1.1/DTD/svg11.dtd" >
<svg xmlns="http://www.w3.org/2000/svg" xmlns:xlink="http://www.w3.org/1999/xlink" version="1.1" width="2048" height="2048" viewBox="-10 0 2068 2048">
   <path fill="currentColor"
d="M1724 680q13 -287 -215 -296q-308 -11 -417 348q56 -25 110 -25q112 0 98 127q-5 78 -98 223q-93 147 -140 147q-57 0 -110 -225q-17 -73 -59 -341q-20 -126 -73.5 -184.5t-140.5 -50.5q-81 9 -219 133q-37 32 -108.5 96.5t-107.5 95.5l70 89q101 -69 115 -69
q76 0 143 239q20 74 60 219.5t60 219.5q89 238 219 238q208 0 510 -392q294 -378 303 -592zM2048 384v1280q0 105 -51.5 193t-139.5 139.5t-193 51.5h-1280q-105 0 -193 -51.5t-139.5 -139.5t-51.5 -193v-1280q0 -105 51.5 -193t139.5 -139.5t193 -51.5h1280q105 0 193 51.5
t139.5 139.5t51.5 193z" />
</svg>
