<?xml version="1.0" standalone="no"?>
<!DOCTYPE svg PUBLIC "-//W3C//DTD SVG 1.1//EN" "http://www.w3.org/Graphics/SVG/1.1/DTD/svg11.dtd" >
<svg xmlns="http://www.w3.org/2000/svg" xmlns:xlink="http://www.w3.org/1999/xlink" version="1.1" width="2048" height="2048" viewBox="-10 0 2068 2048">
   <path fill="currentColor"
d="M914 544l-141 -142l205 -329q28 -46 82.5 -46t82.5 46l855 1385q36 60 36 128q0 37 -9 69l-407 -407l28 5l-585 -942zM2048 1925l-123 123l-165 -165q-256 92 -699 92q-563 0 -805 -137q-169 -101 -169 -252q0 -68 36 -132l462 -745l-585 -586l123 -123zM475 1253
q238 -55 586 -55h9l-343 -348zM1600 1728l-325 -329q-109 -9 -214 -9q-211 0 -391.5 27.5t-285.5 70.5t-105 98t105 98.5t285.5 71t391.5 27.5q315 0 539 -55z" />
</svg>
