<?xml version="1.0" standalone="no"?>
<!DOCTYPE svg PUBLIC "-//W3C//DTD SVG 1.1//EN" "http://www.w3.org/Graphics/SVG/1.1/DTD/svg11.dtd" >
<svg xmlns="http://www.w3.org/2000/svg" xmlns:xlink="http://www.w3.org/1999/xlink" version="1.1" width="2048" height="2048" viewBox="-10 0 2058 2048">
   <path fill="currentColor"
d="M1851 1031q-19 0 -43 24l-101 101l216 216l101 -101q14 -19 14 -43t-14 -43l-129 -130q-24 -24 -44 -24zM1655 1218l-624 614v216h216l624 -624zM1851 614h-820v-614h820v614zM1031 1540v-720h820v10q-52 0 -102.5 24t-84.5 57zM830 1022h-820v-1022h820v1022zM830 1842
h-820v-614h820v614z" />
</svg>
