<?xml version="1.0" standalone="no"?>
<!DOCTYPE svg PUBLIC "-//W3C//DTD SVG 1.1//EN" "http://www.w3.org/Graphics/SVG/1.1/DTD/svg11.dtd" >
<svg xmlns="http://www.w3.org/2000/svg" xmlns:xlink="http://www.w3.org/1999/xlink" version="1.1" width="2048" height="2048" viewBox="-10 0 2058 2048">
   <path fill="currentColor"
d="M1024 0q-173 0 -337 19q-250 34 -394 116q-192 101 -192 274v1230q0 173 192 274q144 82 394 116q164 19 337 19t337 -19q250 -34 394 -116q192 -101 192 -274v-1230q0 -173 -192 -274q-144 -82 -394 -116q-164 -19 -337 -19zM1024 817q168 0 327 -19q245 -34 389 -106
v664q-144 -72 -389 -106q-159 -19 -327 -19t-327 19q-245 34 -389 106v-664q144 72 389 106q159 19 327 19zM1024 202q197 0 360.5 29t259.5 74.5t96 103t-96 103.5t-259.5 74.5t-360.5 28.5t-360.5 -28.5t-259.5 -74.5t-96 -103.5t96 -103t259.5 -74.5t360.5 -29z
M1024 1846q-197 0 -360.5 -29t-259.5 -74.5t-96 -103t96 -103.5t259.5 -74.5t360.5 -28.5t360.5 28.5t259.5 74.5t96 103.5t-96 103t-259.5 74.5t-360.5 29z" />
</svg>
