<?xml version="1.0" standalone="no"?>
<!DOCTYPE svg PUBLIC "-//W3C//DTD SVG 1.1//EN" "http://www.w3.org/Graphics/SVG/1.1/DTD/svg11.dtd" >
<svg xmlns="http://www.w3.org/2000/svg" xmlns:xlink="http://www.w3.org/1999/xlink" version="1.1" width="2048" height="2048" viewBox="-10 0 2058 2048">
   <path fill="currentColor"
d="M1449 1116q-21 0 -26 21l-17 122q-44 18 -79 44l-117 -48q-22 0 -27 13l-91 161q-13 18 4 31l96 74v48v48l-96 74q-17 13 -4 30l91 161q5 14 27 14l117 -48q44 30 79 43l17 122q5 22 26 22h183q22 0 22 -22l22 -122q35 -17 74 -43l118 48q21 0 30 -14l92 -161
q8 -17 -5 -30l-100 -74l4 -48q0 -26 -4 -48l100 -74q13 -13 5 -31l-96 -161q-5 -13 -26 -13l-118 48q-44 -31 -78 -44l-18 -122q0 -21 -22 -21h-183zM1541 1442q56 0 97.5 41.5t41.5 98t-41.5 98t-98 41.5t-98 -41.5t-41.5 -98t41.5 -98t98.5 -41.5zM796 375h187v183h-187
v-183zM1353 558h-183v-183h183v183zM1170 745h183v187h-183v-187zM796 745h187v187h-187v-187zM1088 2048h-1033v-2048h1673v959q-96 -27 -187 -27v-745h-1303v1674h558v-327h96v48q0 135 50 254.5t146 211.5zM613 1303h-188v-187h188v187zM613 932h-188v-187h188v187z
M613 558h-188v-183h188v183zM425 1490h188v183h-188v-183zM796 1116h187v130l-30 57h-157v-187z" />
</svg>
