<?xml version="1.0" standalone="no"?>
<!DOCTYPE svg PUBLIC "-//W3C//DTD SVG 1.1//EN" "http://www.w3.org/Graphics/SVG/1.1/DTD/svg11.dtd" >
<svg xmlns="http://www.w3.org/2000/svg" xmlns:xlink="http://www.w3.org/1999/xlink" version="1.1" width="2048" height="2048" viewBox="-10 0 2060 2048">
   <path fill="currentColor"
d="M1437 1022q-19 0 -24 24l-19 134q-48 19 -86 48l-130 -53q-24 0 -28 14l-106 178q-10 19 5 34l110 81q-5 29 -5 53t5 53l-110 81q-15 14 -5 34l106 177q4 15 28 15l130 -53q43 33 86 48l19 134q5 24 24 24h207q19 0 23 -24l20 -134q38 -19 86 -48l125 53q28 0 33 -15
l106 -177q9 -20 -10 -34l-105 -81v-53v-53l105 -81q19 -15 5 -34l-101 -178q-5 -14 -33 -14l-125 53q-53 -34 -86 -48l-20 -134q0 -24 -23 -24h-207zM1543 1381q62 0 107.5 45.5t45.5 108t-45.5 108t-110 45.5t-108 -45.5t-43.5 -108t43.5 -108t110.5 -45.5zM1437 825v-825
h-1429v1842h614v-360h206q19 -249 189.5 -434t419.5 -223zM416 1636h-207v-202h207v202zM416 1228h-207v-206h207v206zM416 820h-207v-206h207v206zM416 408h-207v-202h207v202zM1030 206h206v202h-206v-202zM1030 614h206v206h-206v-206zM823 1228h-201v-206h201v206z
M823 820h-201v-206h201v206zM622 408v-202h201v202h-201z" />
</svg>
