<?xml version="1.0" standalone="no"?>
<!DOCTYPE svg PUBLIC "-//W3C//DTD SVG 1.1//EN" "http://www.w3.org/Graphics/SVG/1.1/DTD/svg11.dtd" >
<svg xmlns="http://www.w3.org/2000/svg" xmlns:xlink="http://www.w3.org/1999/xlink" version="1.1" width="2048" height="2048" viewBox="-10 0 2058 2048">
   <path fill="currentColor"
d="M1954 651v838q0 79 -54.5 133.5t-128.5 54.5h-1306l-371 371v-1677q0 -74 54.5 -128.5t128.5 -54.5h944q-9 26 -9 91q0 127 61 234t168 170.5t234 63.5q78 0 150 -26.5t129 -69.5zM1395 279q0 118 81 199t201 81t198.5 -81t78.5 -198.5t-78.5 -198.5t-198.5 -81t-201 81
t-81 198z" />
</svg>
