<?xml version="1.0" standalone="no"?>
<!DOCTYPE svg PUBLIC "-//W3C//DTD SVG 1.1//EN" "http://www.w3.org/Graphics/SVG/1.1/DTD/svg11.dtd" >
<svg xmlns="http://www.w3.org/2000/svg" xmlns:xlink="http://www.w3.org/1999/xlink" version="1.1" width="2048" height="2048" viewBox="-10 0 2068 2048">
   <path fill="currentColor"
d="M635 265l-155 -160q233 -78 581 -78q164 0 320 19q237 32 374 109q183 96 183 261v1152l-288 -288q51 14 92 37v-631q-197 100 -567 119l-192 -192h78q187 0 342.5 -27.5t247 -71t91.5 -98.5t-91.5 -98.5t-247 -71t-342.5 -27.5q-234 0 -426 46zM2048 1925l-123 123
l-192 -187q-138 68 -366 96q-151 18 -311 18t-315 -18q-238 -32 -375 -110q-183 -96 -183 -261v-1170q0 -41 18 -91l-201 -202l123 -123zM379 1317q138 -69 371 -101q151 -18 311 -18h9l-425 -430q-160 -32 -266 -82v631zM1586 1710l-311 -311q-114 -9 -214 -9
q-188 0 -343.5 27.5t-247 70.5t-91.5 98t91.5 98.5t247 71t343.5 27.5q320 0 525 -73z" />
</svg>
