<?xml version="1.0" standalone="no"?>
<!DOCTYPE svg PUBLIC "-//W3C//DTD SVG 1.1//EN" "http://www.w3.org/Graphics/SVG/1.1/DTD/svg11.dtd" >
<svg xmlns="http://www.w3.org/2000/svg" xmlns:xlink="http://www.w3.org/1999/xlink" version="1.1" width="2048" height="2048" viewBox="-10 0 2058 2048">
   <path fill="currentColor"
d="M644 1904q-135 -113 -179 -283t17 -332l197 -554q17 -43 60.5 -47.5t70.5 34.5l26 53q35 56 13 122l-92 253l44 35l554 -629q22 -26 59 -28t65.5 22t30.5 61t-20 63l-414 471l52 44l506 -572q26 -30 63 -32t65.5 22t31 61t-24.5 67l-506 572l53 48l436 -493
q26 -31 63 -33t63.5 24t28.5 61t-20 61l-436 498l52 48l293 -332q26 -31 63 -33t65.5 22t30.5 61t-24 63l-484 550q-101 118 -245 166t-294.5 19.5t-263.5 -133.5zM984 766l266 -301q35 -39 79 -57l39 -74q13 -35 2 -70t-43.5 -50t-69.5 -4.5t-50 45.5l-236 480zM932 652v5
l257 -528q18 -35 4.5 -70t-46 -50t-67.5 -4.5t-52 45.5l-245 502q96 17 149 100zM352 1241l196 -554q17 -52 58.5 -87t94.5 -44l200 -410q18 -35 5 -69.5t-46 -50t-68 -4.5t-52 46l-367 755l-48 -22l18 -271q9 -65 -39 -118l-44 -39q-35 -30 -76.5 -15t-45.5 59l-44 589
q-9 139 48 268t170 216q-4 -131 40 -249z" />
</svg>
