<?xml version="1.0" standalone="no"?>
<!DOCTYPE svg PUBLIC "-//W3C//DTD SVG 1.1//EN" "http://www.w3.org/Graphics/SVG/1.1/DTD/svg11.dtd" >
<svg xmlns="http://www.w3.org/2000/svg" xmlns:xlink="http://www.w3.org/1999/xlink" version="1.1" width="2048" height="2048" viewBox="-10 0 2068 2048">
   <path fill="currentColor"
d="M1024 202q-245 0 -486 34q-139 14 -370 57l-67 15l-5 19q-48 197 -67 308q-29 182 -29 389t29 399q19 115 72 317l67 15q231 43 370 57q241 34 486 34q255 0 510 -34q149 -19 379 -62l34 -10q53 -168 72 -317q29 -183 29 -394.5t-29 -403.5q-24 -135 -72 -317l-34 -10
q-230 -43 -379 -62q-255 -34 -510 -34z" />
</svg>
