<?xml version="1.0" standalone="no"?>
<!DOCTYPE svg PUBLIC "-//W3C//DTD SVG 1.1//EN" "http://www.w3.org/Graphics/SVG/1.1/DTD/svg11.dtd" >
<svg xmlns="http://www.w3.org/2000/svg" xmlns:xlink="http://www.w3.org/1999/xlink" version="1.1" width="2048" height="2048" viewBox="-10 0 2068 2048">
   <path fill="currentColor"
d="M1317 1445q-156 224 -156 388q0 32 18 105l5 23q0 18 -9 27.5t-16 5t-7 -14.5q-73 -96 -109.5 -187t-36.5 -192q0 -174 119 -352l-138 -137q-173 224 -173 430q0 32 13 105l5 23q0 18 -9 27t-16 4.5t-7 -13.5q-73 -96 -109.5 -187.5t-36.5 -192.5q0 -182 146 -388
l-133 -128q-169 201 -169 352q0 50 23 87q0 9 -9 18t-18 5l-5 -5q-105 -119 -105 -272t137 -322l-521 -526l128 -128l1920 1925l-123 123zM891 517q55 -101 55 -202q0 -155 -105 -274q-9 -9 -27 -9q-9 0 -5 9l5 9q18 60 18 87q0 110 -78 233zM1582 471q0 219 -243 494
l192 196q215 -215 215 -448q0 -192 -146 -379q-9 -9 -18 -4.5t-9 22.5t4.5 57t4.5 62zM1211 841q174 -219 174 -430q0 -192 -146 -379h-18q-10 9 -10 27q19 78 19 128q0 202 -215 467z" />
</svg>
