<?xml version="1.0" standalone="no"?>
<!DOCTYPE svg PUBLIC "-//W3C//DTD SVG 1.1//EN" "http://www.w3.org/Graphics/SVG/1.1/DTD/svg11.dtd" >
<svg xmlns="http://www.w3.org/2000/svg" xmlns:xlink="http://www.w3.org/1999/xlink" version="1.1" width="2048" height="2048" viewBox="-10 0 2058 2048">
   <path fill="currentColor"
d="M1578 328q80 100 115.5 194.5t35.5 198.5q0 133 -56.5 256t-184.5 260q-166 175 -251 312q-114 180 -114 332q0 33 19 109l5 23q0 19 -9.5 28.5t-16.5 5t-7 -14.5q-76 -99 -114 -194t-38 -199q0 -132 59.5 -255t182.5 -261q170 -175 255 -312q109 -180 109 -331
q0 -33 -14 -109l-5 -24q0 -19 9.5 -23.5t19.5 4.5zM792 25q99 128 99 284q0 185 -179 384q-128 132 -190 236q-85 138 -85 246q0 53 24 90q0 10 -9.5 19.5t-19.5 4.5l-4 -5q-109 -137 -109 -288q0 -190 180 -384q123 -137 189 -241q85 -133 85 -246q0 -52 -24 -90v-19
q34 0 43 9zM830 811q170 -175 256 -312q108 -180 108 -332q0 -33 -14 -109l-5 -23q0 -19 9.5 -28.5t14.5 -5t5 14.5q80 99 115.5 194t35.5 199q0 132 -56.5 255t-184.5 261q-166 175 -251 312q-114 180 -114 331q0 33 19 109l5 24q0 19 -9.5 28.5t-16.5 4.5t-7 -14
q-76 -100 -113.5 -194.5t-37.5 -198.5q0 -133 59 -256t182 -260z" />
</svg>
