<?xml version="1.0" standalone="no"?>
<!DOCTYPE svg PUBLIC "-//W3C//DTD SVG 1.1//EN" "http://www.w3.org/Graphics/SVG/1.1/DTD/svg11.dtd" >
<svg xmlns="http://www.w3.org/2000/svg" xmlns:xlink="http://www.w3.org/1999/xlink" version="1.1" width="2048" height="2048" viewBox="-10 0 2058 2048">
   <path fill="currentColor"
d="M1087 1151q-26 -83 -4 -184l4 -4l-4 -9q-22 -92 -4 -166q22 -66 87 -132l13 -8q22 -92 101 -154q66 -43 171 -43q8 -9 48 -31v-271q4 -61 -37.5 -105t-102.5 -44h-1199q-62 0 -105.5 44t-43.5 105v919q0 61 43.5 105t105.5 44h962q-21 -27 -35 -66zM199 376v-188l560 280
l560 -280v188l-560 280zM2028 831q-13 -35 -61 -70q-22 -13 -30.5 -21.5t-17.5 -34.5q-18 -57 -48.5 -79t-91.5 -22q-26 0 -39.5 -4.5t-43.5 -26.5q-44 -30 -81 -30t-86 35l-30 22q-13 4 -44 4q-57 0 -87.5 19.5t-43.5 67.5q-13 35 -22 46t-31 29q-52 35 -63 67.5t6 85.5
q13 31 13 44t-13 43q-17 53 -6 90t63 68q22 13 28.5 22t15.5 35q22 61 52.5 83t87.5 22q31 0 44 2t39 24q48 31 83 31t88 -35l30 -22h40q61 0 91.5 -26.5t48.5 -78.5q9 -26 17.5 -35t30.5 -26q48 -35 61 -68t-8 -86q-9 -30 -9 -43t9 -44q21 -53 8 -88zM1617 1252
q-118 0 -199 -83.5t-81 -195t85.5 -197t197 -85.5t194.5 85.5t83 197t-81 195t-199 83.5zM1757 963q0 57 -41.5 98.5t-98.5 41.5t-98.5 -41.5t-41.5 -98.5t41.5 -98.5t98.5 -41.5t98.5 41.5t41.5 98.5zM1739 1505l-48 250l-52 293l-188 -179l-224 100l92 -529q57 26 132 26
q48 31 92 48q17 9 74 9q61 13 122 -18zM2037 1729l-184 -66l35 -206l57 -26l9 -9z" />
</svg>
