<?xml version="1.0" standalone="no"?>
<!DOCTYPE svg PUBLIC "-//W3C//DTD SVG 1.1//EN" "http://www.w3.org/Graphics/SVG/1.1/DTD/svg11.dtd" >
<svg xmlns="http://www.w3.org/2000/svg" xmlns:xlink="http://www.w3.org/1999/xlink" version="1.1" width="2048" height="2048" viewBox="-10 0 2058 2048">
   <path fill="currentColor"
d="M1639 923v-514h-307v-207h-308v-202h-409v308h-206v615h-101l202 1125h1028l202 -1125h-101zM1418 923q-24 91 -86 163v-408l206 101v144h-120zM1538 510v153l-206 -101v-52h206zM1024 308h207v355l-207 106v-461zM1024 885l207 -106v394q-96 58 -207 58v-346zM923 1216
q-130 -33 -207 -130v-307l207 -101v538zM716 101h207v461l-106 53v-307h-101v-207zM510 409h206v254l-101 53v207h-105v-514z" />
</svg>
