<?xml version="1.0" standalone="no"?>
<!DOCTYPE svg PUBLIC "-//W3C//DTD SVG 1.1//EN" "http://www.w3.org/Graphics/SVG/1.1/DTD/svg11.dtd" >
<svg xmlns="http://www.w3.org/2000/svg" xmlns:xlink="http://www.w3.org/1999/xlink" version="1.1" width="2048" height="2048" viewBox="-10 0 2058 2048">
   <path fill="currentColor"
d="M1862 1023q0 139 -37 272t-103 245t-161 207t-207 161t-245 103t-271 37h-233q-20 0 -33 -13.5t-13 -33.5v-889l-313 97q-4 1 -13 1q-16 0 -28 -8q-19 -15 -19 -39v-185q0 -16 9 -28.5t24 -17.5l340 -103v-135l-313 95q-8 3 -13 3q-16 0 -28 -9q-19 -15 -19 -38v-186
q0 -16 9 -28t24 -18l340 -103v-364q0 -20 13 -33t33 -13h233q20 0 33.5 13t13.5 33v263l544 -168q24 -7 41 7q19 14 19 38v186q0 15 -9 27.5t-24 17.5l-571 176v135l544 -168q23 -7 41 8q19 15 19 37v187q0 32 -33 44l-571 176v709q134 -9 254.5 -68t207.5 -151.5
t138 -217.5t51 -261q0 -20 13 -32.5t33 -12.5h233q20 0 33.5 12.5t13.5 32.5z" />
</svg>
