<?xml version="1.0" standalone="no"?>
<!DOCTYPE svg PUBLIC "-//W3C//DTD SVG 1.1//EN" "http://www.w3.org/Graphics/SVG/1.1/DTD/svg11.dtd" >
<svg xmlns="http://www.w3.org/2000/svg" xmlns:xlink="http://www.w3.org/1999/xlink" version="1.1" width="2048" height="2048" viewBox="-10 0 2068 2048">
   <path fill="currentColor"
d="M1024 0q-279 0 -514.5 137t-372.5 372.5t-137 514.5t137 514.5t372.5 372.5t514.5 137t514.5 -137t372.5 -372.5t137 -514.5t-137 -514.5t-372.5 -372.5t-514.5 -137zM1024 1231q-221 0 -411 -29t-300.5 -74.5t-110.5 -103.5t110.5 -103.5t300.5 -74.5t411 -29t411 29
t300.5 74.5t110.5 103.5t-110.5 103.5t-300.5 74.5t-411 29zM1024 202q255 0 461.5 144t302.5 375q-264 -106 -759 -106t-769 106q96 -231 302.5 -375t461.5 -144zM1024 1846q-255 0 -461.5 -144t-302.5 -375q264 106 759 106t769 -106q-96 231 -302.5 375t-461.5 144z" />
</svg>
