<?xml version="1.0" standalone="no"?>
<!DOCTYPE svg PUBLIC "-//W3C//DTD SVG 1.1//EN" "http://www.w3.org/Graphics/SVG/1.1/DTD/svg11.dtd" >
<svg xmlns="http://www.w3.org/2000/svg" xmlns:xlink="http://www.w3.org/1999/xlink" version="1.1" width="2048" height="2048" viewBox="-10 0 2068 2048">
   <path fill="currentColor"
d="M123 0l-123 123l288 288q-201 261 -201 590q0 265 130 489t354 354.5t490 130.5q329 0 589 -201l275 274l123 -123zM425 553l105 105q-119 23 -196 55q36 -82 91 -160zM279 1001q0 -55 116.5 -100.5t308.5 -73.5l366 371h-9q-211 0 -391.5 -27.5t-285.5 -71t-105 -98.5z
M1061 1783q-243 0 -439.5 -137t-287.5 -357q251 101 727 101q128 0 201 -5l251 252q-201 146 -452 146zM690 320l-146 -146q238 -147 517 -147q265 0 489 130.5t354 354.5t130 489q0 279 -146 517l-146 -147q23 -32 45 -82q-41 18 -96 32l-164 -164q146 -28 230.5 -69
t84.5 -87q0 -73 -189.5 -128t-473.5 -64l-196 -196h78q475 0 726 100q-91 -219 -287.5 -356.5t-438.5 -137.5q-202 0 -371 101z" />
</svg>
