<?xml version="1.0" standalone="no"?>
<!DOCTYPE svg PUBLIC "-//W3C//DTD SVG 1.1//EN" "http://www.w3.org/Graphics/SVG/1.1/DTD/svg11.dtd" >
<svg xmlns="http://www.w3.org/2000/svg" xmlns:xlink="http://www.w3.org/1999/xlink" version="1.1" width="2048" height="2048" viewBox="-10 0 2068 2048">
   <path fill="currentColor"
d="M914 544l-141 -142l205 -329q28 -46 82.5 -46t82.5 46l878 1413q22 32 13 70.5t-45 61.5l-302 -306l-530 -846v320l-192 -196v-124zM2048 1925l-123 123l-288 -288l-540 210q-14 5 -36.5 5t-36.5 -5l-878 -343q-45 -18 -56.5 -61.5t11.5 -79.5l480 -777l-581 -586
l123 -123zM421 1344l544 -215v-41l-243 -238zM1486 1609l-238 -233l-187 -78l-608 238l608 238z" />
</svg>
