<?xml version="1.0" standalone="no"?>
<!DOCTYPE svg PUBLIC "-//W3C//DTD SVG 1.1//EN" "http://www.w3.org/Graphics/SVG/1.1/DTD/svg11.dtd" >
<svg xmlns="http://www.w3.org/2000/svg" xmlns:xlink="http://www.w3.org/1999/xlink" version="1.1" width="2048" height="2048" viewBox="-10 0 2068 2048">
   <path fill="currentColor"
d="M202 1846h1437v202h-1437q-82 0 -142 -60t-60 -142v-1437h202v1437zM2048 202v1231q0 86 -60 146t-142 60h-1231q-86 0 -146 -60t-60 -146v-1231q0 -82 60 -142t146 -60h1231q82 0 142 60t60 142zM1846 202h-1231v1231h1231v-1231zM1639 409h-514v716l260 -154l254 154
v-716z" />
</svg>
