<?xml version="1.0" standalone="no"?>
<!DOCTYPE svg PUBLIC "-//W3C//DTD SVG 1.1//EN" "http://www.w3.org/Graphics/SVG/1.1/DTD/svg11.dtd" >
<svg xmlns="http://www.w3.org/2000/svg" xmlns:xlink="http://www.w3.org/1999/xlink" version="1.1" width="2048" height="2048" viewBox="-10 0 2068 2048">
   <path fill="currentColor"
d="M409 462q0 -174 120 -294t290.5 -120t291 120t120.5 291t-120.5 291t-291 120t-290.5 -120t-120 -288zM1024 1505q0 -72 33.5 -137t91.5 -113v-144q-159 -34 -332 -34q-221 0 -408.5 55t-298 149t-110.5 205v206h1024v-187zM2048 1514v361q0 48 -38.5 86.5t-91.5 38.5
h-567q-48 0 -84 -41t-36 -94v-360q0 -44 38.5 -82t81.5 -38v-260q0 -106 89 -180.5t199.5 -74.5t199.5 74.5t89 180.5v53h-135v-53q0 -58 -45.5 -94t-108 -36t-108 36t-45.5 94v260h442q48 0 84 38t36 91z" />
</svg>
