<?xml version="1.0" standalone="no"?>
<!DOCTYPE svg PUBLIC "-//W3C//DTD SVG 1.1//EN" "http://www.w3.org/Graphics/SVG/1.1/DTD/svg11.dtd" >
<svg xmlns="http://www.w3.org/2000/svg" xmlns:xlink="http://www.w3.org/1999/xlink" version="1.1" width="2048" height="2048" viewBox="-10 0 2068 2048">
   <path fill="currentColor"
d="M2048 1925l-137 -138l-1788 -1787l-123 123l183 188v1371q0 83 57 140t139 57h1372l174 169zM965 1198h-101v388h-293v-388h-96v-247q0 -69 46 -123.5t114 -64.5l330 325v110zM1202 832l-708 -709h1248q82 0 139 57.5t57 139.5v1248l-361 -361l69 -110h-174l-197 -192
h371l-243 -393z" />
</svg>
