<?xml version="1.0" standalone="no"?>
<!DOCTYPE svg PUBLIC "-//W3C//DTD SVG 1.1//EN" "http://www.w3.org/Graphics/SVG/1.1/DTD/svg11.dtd" >
<svg xmlns="http://www.w3.org/2000/svg" xmlns:xlink="http://www.w3.org/1999/xlink" version="1.1" width="2048" height="2048" viewBox="-10 0 2058 2048">
   <path fill="currentColor"
d="M1204 327h5q29 -29 72 -26.5t72 36.5l231 278h313q38 0 69.5 29t31.5 72.5t-31.5 72t-69.5 28.5h-361q-53 0 -87 -43l-153 -183l-260 241l303 211q43 29 43 82v413q0 39 -31 70t-72 31t-72.5 -31t-31.5 -70v-360l-331 -231q-72 -48 -77 -137t62 -151zM1536 308
q62 0 108 -46t46 -110.5t-46 -108t-108 -43.5t-108 43.5t-46 108t46 110.5t108 46zM459 1740h-101q-130 0 -219 91.5t-89 216.5h409v-154h923v-154h-923z" />
</svg>
