<?xml version="1.0" standalone="no"?>
<!DOCTYPE svg PUBLIC "-//W3C//DTD SVG 1.1//EN" "http://www.w3.org/Graphics/SVG/1.1/DTD/svg11.dtd" >
<svg xmlns="http://www.w3.org/2000/svg" xmlns:xlink="http://www.w3.org/1999/xlink" version="1.1" width="2048" height="2048" viewBox="-10 0 2068 2048">
   <path fill="currentColor"
d="M1024 606q118 0 198.5 80.5t80.5 198t-80.5 198t-198.5 80.5t-198.5 -80.5t-80.5 -198t80.5 -198t198.5 -80.5zM1582 1490l165 -170q-78 -65 -165 -65q-96 0 -163.5 67.5t-67.5 165.5t67.5 165.5t163.5 67.5q109 0 187 -91h157q-44 104 -135.5 167.5t-208.5 63.5
q-153 0 -262 -109t-109 -264t109 -263.5t266 -108.5t257 113l109 -113v374h-370zM1024 1490q0 -65 9 -96h-9q-266 0 -486 -137t-333 -372q113 -236 333 -373t486 -137t486 137t333 373q-9 4 -13 17l-9 22q88 26 170 83l57 -122q-122 -310 -401 -504t-623 -194t-623 194
t-401 504q122 309 401 503t623 194h9q-9 -26 -9 -92z" />
</svg>
