<?xml version="1.0" standalone="no"?>
<!DOCTYPE svg PUBLIC "-//W3C//DTD SVG 1.1//EN" "http://www.w3.org/Graphics/SVG/1.1/DTD/svg11.dtd" >
<svg xmlns="http://www.w3.org/2000/svg" xmlns:xlink="http://www.w3.org/1999/xlink" version="1.1" width="2048" height="2048" viewBox="-10 0 2063 2048">
   <path fill="currentColor"
d="M2043 1925l-1911 -1925l-127 127l641 642q-77 137 -56.5 300.5t136.5 279.5t280 139t300 -59l624 619zM860 1206q-59 -59 -77 -141t9 -159l369 368q-82 28 -162 12t-139 -80zM1338 446q-27 -91 -5 -182q23 -114 110 -196q132 132 145 282q69 -41 137 -63q36 -9 59 -14
q-14 114 -77 196q168 32 282 145q-82 82 -196 105q-95 23 -186 0q-19 -95 -94 -168t-175 -105zM1083 710l-173 -173q128 -45 262 -15.5t234 129.5t130 232t-16 264l-164 -164q-18 -127 -86 -187q-91 -72 -187 -86zM792 1556q27 92 4 183q-22 113 -109 195
q-132 -132 -145 -282q-69 41 -137 64q-36 9 -59 13v0q14 -113 77 -195q-168 -32 -282 -146q82 -82 196 -105q95 -22 186 0q19 96 94 169t175 104z" />
</svg>
