<?xml version="1.0" standalone="no"?>
<!DOCTYPE svg PUBLIC "-//W3C//DTD SVG 1.1//EN" "http://www.w3.org/Graphics/SVG/1.1/DTD/svg11.dtd" >
<svg xmlns="http://www.w3.org/2000/svg" xmlns:xlink="http://www.w3.org/1999/xlink" version="1.1" width="2048" height="2048" viewBox="-10 0 2068 2048">
   <path fill="currentColor"
d="M173 731q-29 -29 -67 -29q-62 0 -93.5 60t16.5 113q183 163 231 231q62 81 62 250q0 197 154 303q87 67 188 100v-399q0 -144 -97 -240zM1481 1125q-96 96 -96 235v404q144 -53 245 -161t101 -247q0 -173 57 -250q15 -29 53.5 -65t76.5 -75l68 -62l33 -29q29 -29 29 -72
t-29 -72t-72 -29t-72 29zM1024 1846q111 0 207 -29v-365q0 -92 -62.5 -156.5t-144.5 -64.5t-144.5 62.5t-62.5 148.5v375q97 29 207 29zM717 663q0 68 -46 111t-108.5 43t-108 -43t-45.5 -108t45.5 -110.5t108 -45.5t108.5 45.5t46 107.5zM1639 663q0 68 -45.5 111t-108 43
t-108 -43t-45.5 -108t45.5 -110.5t108 -45.5t108 45.5t45.5 107.5zM1178 356q0 67 -45.5 110.5t-108 43.5t-108.5 -43.5t-46 -108.5t46 -110.5t108.5 -45.5t108 45.5t45.5 108.5zM1178 923q0 63 -45.5 108.5t-108 45.5t-108.5 -45.5t-46 -110.5t46 -108.5t108.5 -43.5
t108 43.5t45.5 110.5z" />
</svg>
