<?xml version="1.0" standalone="no"?>
<!DOCTYPE svg PUBLIC "-//W3C//DTD SVG 1.1//EN" "http://www.w3.org/Graphics/SVG/1.1/DTD/svg11.dtd" >
<svg xmlns="http://www.w3.org/2000/svg" xmlns:xlink="http://www.w3.org/1999/xlink" version="1.1" width="2048" height="2048" viewBox="-10 0 2068 2048">
   <path fill="currentColor"
d="M2048 654q0 -179 -87 -329.5t-237.5 -237.5t-329.5 -87q-161 0 -298 74t-228.5 202.5t-113.5 281.5h-427q-44 0 -81 26t-50 70l-196 557v741q0 39 28.5 67.5t67.5 28.5h91q40 0 66 -28.5t26 -67.5v-91h1115v91q0 39 28.5 67.5t67.5 28.5h92q39 0 65 -28.5t26 -67.5v-714
q170 -79 272.5 -236t102.5 -348zM327 697h422q9 122 59 229t133 190h-754zM327 1582q-57 0 -98.5 -41.5t-41.5 -98t41.5 -98t98 -41.5t98 41.5t41.5 98t-41.5 98t-97.5 41.5zM1351 1582q-61 0 -100.5 -41.5t-39.5 -98t39.5 -98t98 -41.5t100 41.5t41.5 98t-41.5 98
t-97.5 41.5zM1394 1116q-191 0 -326.5 -135.5t-135.5 -327t135.5 -329t327 -137.5t329 137.5t137.5 329t-137.5 327t-329.5 135.5zM1442 675l266 157l-70 114l-335 -201v-466h139v396z" />
</svg>
