<?xml version="1.0" standalone="no"?>
<!DOCTYPE svg PUBLIC "-//W3C//DTD SVG 1.1//EN" "http://www.w3.org/Graphics/SVG/1.1/DTD/svg11.dtd" >
<svg xmlns="http://www.w3.org/2000/svg" xmlns:xlink="http://www.w3.org/1999/xlink" version="1.1" width="2048" height="2048" viewBox="-10 0 2068 2048">
   <path fill="currentColor"
d="M584 1175q-103 60 -253 60h-120v-60h-60q-13 0 -22 -22t-9 -54q0 -25 7 -46q-55 -1 -91 -9t-36 -19.5t36.5 -20t90.5 -9.5q-7 -21 -7 -46q0 -31 9 -53t22 -22h60v-60h120q150 0 253 60h1047q31 5 64 10.5t65.5 11t46.5 7.5q64 11 113 27.5t75.5 33.5t39.5 32.5t13 28
t-13 27.5t-39.5 32t-75.5 33.5t-113 27.5q-73 12 -176 30h-1047zM1636 938q50 34 50 86.5t-50 86.5l77 28q64 -45 64 -115q0 -33 -17 -63.5t-47 -51.5zM588 1190h955q-204 35 -429 75q-33 0 -67.5 9.5t-59 22.5t-44.5 26.5t-30 22.5l-10 9l-271 271q-24 25 -66 42.5
t-84 17.5h-91l-87 -436h27q148 0 257 -60zM331 798h-27l87 -436h91q43 0 84.5 17.5t65.5 42.5q181 180 271 271q4 3 11 9t29 22t45 28t58 21.5t68 9.5l429 76h-955q-110 -61 -257 -61z" />
</svg>
