<?xml version="1.0" standalone="no"?>
<!DOCTYPE svg PUBLIC "-//W3C//DTD SVG 1.1//EN" "http://www.w3.org/Graphics/SVG/1.1/DTD/svg11.dtd" >
<svg xmlns="http://www.w3.org/2000/svg" xmlns:xlink="http://www.w3.org/1999/xlink" version="1.1" width="2048" height="2048" viewBox="-10 0 2068 2048">
   <path fill="currentColor"
d="M798 798q90 -95 226 -95t228.5 92.5t92.5 228.5t-92.5 228.5t-228.5 92.5t-228.5 -92.5t-92.5 -228.5t95 -226zM643 643q-101 105 -136 243q-18 69 -18 138t18 138q35 138 138 241t241 138t276 0t241 -138t138 -241q18 -69 18 -138t-18 -138q-35 -138 -138 -241
t-241 -138q-69 -18 -138 -18t-138 18q-138 35 -243 136zM1822 226q-30 10 -65 15q-80 25 -151 75q-25 -185 -160 -316q-96 90 -121 211q-25 105 0 206q116 30 196 110t110 196q101 25 206 0q121 -25 211 -121q-131 -130 -306 -160q70 -106 80 -216zM226 1822q30 -10 65 -15
q80 -25 151 -70q25 180 160 311q96 -90 121 -211q25 -105 0 -206q-116 -30 -196 -110t-110 -196q-101 -25 -206 0q-121 25 -211 121q131 130 306 160q-70 106 -80 216z" />
</svg>
