<?xml version="1.0" standalone="no"?>
<!DOCTYPE svg PUBLIC "-//W3C//DTD SVG 1.1//EN" "http://www.w3.org/Graphics/SVG/1.1/DTD/svg11.dtd" >
<svg xmlns="http://www.w3.org/2000/svg" xmlns:xlink="http://www.w3.org/1999/xlink" version="1.1" width="2048" height="2048" viewBox="-10 0 2068 2048">
   <path fill="currentColor"
d="M2048 1925l-1925 -1925l-123 123l183 188v1371q0 83 57 140t139 57h1372l174 169zM379 1682v-1179l256 260q-68 10 -114 64.5t-46 123.5v247h96v388h293v-388h101v-110l594 594h-1180zM690 320l-196 -197h1248q82 0 139 57.5t57 139.5v1248l-196 -197v-1051h-1052z
M1646 905h-371l-73 -73l201 -320zM1577 1207l-105 -110h174z" />
</svg>
