<?xml version="1.0" standalone="no"?>
<!DOCTYPE svg PUBLIC "-//W3C//DTD SVG 1.1//EN" "http://www.w3.org/Graphics/SVG/1.1/DTD/svg11.dtd" >
<svg xmlns="http://www.w3.org/2000/svg" xmlns:xlink="http://www.w3.org/1999/xlink" version="1.1" width="2048" height="2048" viewBox="-10 0 2068 2048">
   <path fill="currentColor"
d="M1925 2048l-627 -622q-137 78 -301.5 57.5t-281 -137t-139.5 -281t59 -302.5l-635 -635l128 -128l1920 1925zM1408 663q-101 -101 -233.5 -130.5t-264.5 16.5l612 612q46 -132 16.5 -267t-130.5 -231zM1623 731q87 28 183 5q114 -27 196 -110q-114 -114 -283 -146
q64 -96 78 -197l-60 14q-73 23 -137 64q-5 -73 -43.5 -148.5t-102.5 -134.5q-83 82 -105 196q-23 96 0 188q96 18 169 93.5t105 175.5zM507 1280q-86 -27 -182 -5q-115 28 -197 110q114 114 283 146q-64 96 -77 197l59 -14q73 -23 137 -64q5 73 44 148.5t103 135.5
q82 -83 105 -197q23 -96 0 -187q-96 -19 -169.5 -94t-105.5 -176z" />
</svg>
