<?xml version="1.0" standalone="no"?>
<!DOCTYPE svg PUBLIC "-//W3C//DTD SVG 1.1//EN" "http://www.w3.org/Graphics/SVG/1.1/DTD/svg11.dtd" >
<svg xmlns="http://www.w3.org/2000/svg" xmlns:xlink="http://www.w3.org/1999/xlink" version="1.1" width="2048" height="2048" viewBox="-10 0 2068 2048">
   <path fill="currentColor"
d="M1024 606q-118 0 -198.5 80.5t-80.5 198t80.5 198t198.5 80.5t198.5 -80.5t80.5 -198t-80.5 -198t-198.5 -80.5zM1582 1490l165 -170q-78 -65 -165 -65q-96 0 -163.5 67.5t-67.5 165.5t67.5 165.5t163.5 67.5q109 0 187 -91h157q-44 104 -135.5 167.5t-208.5 63.5
q-153 0 -262 -109t-109 -264t109 -263.5t266 -108.5t257 113l109 -113v374h-370zM1033 1582h-5h5q-349 0 -630 -194t-403 -503q122 -310 401 -504t623 -194t623 194t401 504l-57 122q-165 -122 -361 -122q-48 0 -140 17v-17q0 -127 -63 -233.5t-170 -170t-233 -63.5
t-233 63.5t-170 170t-63 233t63 233t170 170t233 63.5h17q-17 91 -17 139q0 66 9 92z" />
</svg>
