<?xml version="1.0" standalone="no"?>
<!DOCTYPE svg PUBLIC "-//W3C//DTD SVG 1.1//EN" "http://www.w3.org/Graphics/SVG/1.1/DTD/svg11.dtd" >
<svg xmlns="http://www.w3.org/2000/svg" xmlns:xlink="http://www.w3.org/1999/xlink" version="1.1" width="2048" height="2048" viewBox="-10 0 2058 2048">
   <path fill="currentColor"
d="M1262 49q-54 -49 -126 -49t-121 49l-614 594q-44 45 -49 119t30 123l643 891q-40 84 -144 84q-123 0 -158 -119q-30 -104 -129 -178t-207 -74q-164 0 -268 124l144 118q44 -59 124 -59q128 0 158 119q29 104 128 180.5t208 76.5q198 0 302 -178l712 -985
q40 -54 32.5 -125.5t-56.5 -116.5z" />
</svg>
