<?xml version="1.0" standalone="no"?>
<!DOCTYPE svg PUBLIC "-//W3C//DTD SVG 1.1//EN" "http://www.w3.org/Graphics/SVG/1.1/DTD/svg11.dtd" >
<svg xmlns="http://www.w3.org/2000/svg" xmlns:xlink="http://www.w3.org/1999/xlink" version="1.1" width="2048" height="2048" viewBox="-10 0 2058 2048">
   <path fill="currentColor"
d="M202 462q0 -193 134.5 -327.5t327 -134.5t327 134.5t134.5 327.5q0 149 -84 266.5t-224 165.5v438h308v307h-308v409h-307v-1154q-135 -48 -221.5 -165.5t-86.5 -266.5zM510 462q0 62 45.5 107.5t110.5 45.5t108 -45.5t43 -110.5t-43 -108t-108 -43t-110.5 43t-45.5 111z
M1639 510h207v615h-207v-615zM1639 1538h207v-206h-207v206z" />
</svg>
