<?xml version="1.0" standalone="no"?>
<!DOCTYPE svg PUBLIC "-//W3C//DTD SVG 1.1//EN" "http://www.w3.org/Graphics/SVG/1.1/DTD/svg11.dtd" >
<svg xmlns="http://www.w3.org/2000/svg" xmlns:xlink="http://www.w3.org/1999/xlink" version="1.1" width="2048" height="2048" viewBox="-10 0 2068 2048">
   <path fill="currentColor"
d="M629 1461h-629v-211h629q39 0 71 32t32 73.5t-32 73.5t-71 32zM1542 1869l-633 -1552l-197 78l39 99l-501 432l89 221h290q83 0 144.5 61.5t61.5 147t-61.5 147t-144.5 61.5h-118l137 329l658 -39l40 93zM1969 1746l-240 -103l78 -192l241 99zM1758 985l-83 -197
l294 -118l79 192zM1380 420l-191 -79l98 -240l196 78z" />
</svg>
