<?xml version="1.0" standalone="no"?>
<!DOCTYPE svg PUBLIC "-//W3C//DTD SVG 1.1//EN" "http://www.w3.org/Graphics/SVG/1.1/DTD/svg11.dtd" >
<svg xmlns="http://www.w3.org/2000/svg" xmlns:xlink="http://www.w3.org/1999/xlink" version="1.1" width="2048" height="2048" viewBox="-10 0 2068 2048">
   <path fill="currentColor"
d="M1918 208q-413 145 -894 145q-462 0 -894 -145q-43 -19 -86.5 10t-43.5 86v1433q0 53 43.5 86.5t86.5 19.5q211 -72 380 -106q245 -48 514 -48t519 48q178 34 375 106q53 14 91.5 -17t38.5 -89v-1433q0 -57 -43.5 -86t-86.5 -10zM1024 1328q-394 0 -668 44l380 -452
l206 245l289 -351l461 558q-274 -44 -668 -44z" />
</svg>
