<?xml version="1.0" standalone="no"?>
<!DOCTYPE svg PUBLIC "-//W3C//DTD SVG 1.1//EN" "http://www.w3.org/Graphics/SVG/1.1/DTD/svg11.dtd" >
<svg xmlns="http://www.w3.org/2000/svg" xmlns:xlink="http://www.w3.org/1999/xlink" version="1.1" width="2048" height="2048" viewBox="-10 0 2068 2048">
   <path fill="currentColor"
d="M629 798h-629v-211h629q39 0 71 32t32 73.5t-32 73.5t-71 32zM1346 101l-40 93l-658 -39l-137 329h118q83 0 144.5 61.5t61.5 147t-61.5 147t-144.5 61.5h-290l-89 221l501 432l-39 99l197 78l633 -1552zM1969 302l79 196l-241 99l-78 -192zM1758 1063l290 123l-79 192
l-294 -118zM1483 1869l-196 78l-98 -240l191 -79z" />
</svg>
