<?xml version="1.0" standalone="no"?>
<!DOCTYPE svg PUBLIC "-//W3C//DTD SVG 1.1//EN" "http://www.w3.org/Graphics/SVG/1.1/DTD/svg11.dtd" >
<svg xmlns="http://www.w3.org/2000/svg" xmlns:xlink="http://www.w3.org/1999/xlink" version="1.1" width="2048" height="2048" viewBox="-10 0 2068 2048">
   <path fill="currentColor"
d="M1869 955q76 0 127.5 49.5t51.5 125.5q0 119 -115 159l-211 74l69 205q8 25 8 57q0 73 -52 126t-124 53q-59 0 -105.5 -33t-64.5 -89l-68 -203l-383 130l68 203q10 27 10 58q0 72 -52 124.5t-125 52.5q-58 0 -104.5 -33t-65.5 -88l-68 -200l-188 64q-36 12 -61 12
q-76 0 -125.5 -49t-49.5 -124q0 -58 34 -105t88 -66l192 -65l-130 -385l-191 66q-29 10 -60 10q-73 0 -123.5 -50t-50.5 -124q0 -57 33.5 -103.5t88.5 -65.5l193 -65l-65 -196q-10 -28 -10 -57q0 -73 52 -126t125 -53q58 0 104.5 33t65.5 89l67 197l381 -130l-67 -197
q-10 -27 -10 -58q0 -72 52.5 -124.5t125.5 -52.5q58 0 105.5 33.5t65.5 87.5l65 198l199 -68q24 -7 54 -7q73 0 125 49t52 121q0 55 -37 100t-91 64l-192 65l129 390l201 -69q31 -10 57 -10zM893 1278l381 -130l-129 -387l-382 131z" />
</svg>
