<?xml version="1.0" standalone="no"?>
<!DOCTYPE svg PUBLIC "-//W3C//DTD SVG 1.1//EN" "http://www.w3.org/Graphics/SVG/1.1/DTD/svg11.dtd" >
<svg xmlns="http://www.w3.org/2000/svg" xmlns:xlink="http://www.w3.org/1999/xlink" version="1.1" width="2048" height="2048" viewBox="-10 0 2068 2048">
   <path fill="currentColor"
d="M681 98q124 0 208.5 84.5t84.5 208.5v585q0 119 -84.5 206t-208 87t-208 -87t-84.5 -206v-585q0 -124 84.5 -208.5t207.5 -84.5zM1362 976q0 169 -75.5 315.5t-210 240t-299.5 121.5v297h-192v-297q-164 -28 -299 -121.5t-210.5 -240t-75.5 -315.5h192q0 133 66.5 245
t178.5 176t244.5 64t244.5 -64t178 -176t66 -245h192zM1801 1314v147h-146v-147h146zM1609 830h-146v-51q0 -123 84.5 -207.5t205.5 -84.5t208 84.5t87 207.5q0 69 -34.5 133t-93.5 101l-27 18q-92 64 -92 169v18h-146v-18q0 -87 41 -164.5t114 -123.5l28 -18
q64 -41 64 -115q0 -59 -43.5 -102.5t-105.5 -43.5t-103 43.5t-41 102.5v51z" />
</svg>
