<?xml version="1.0" standalone="no"?>
<!DOCTYPE svg PUBLIC "-//W3C//DTD SVG 1.1//EN" "http://www.w3.org/Graphics/SVG/1.1/DTD/svg11.dtd" >
<svg xmlns="http://www.w3.org/2000/svg" xmlns:xlink="http://www.w3.org/1999/xlink" version="1.1" width="2048" height="2048" viewBox="-10 0 2068 2048">
   <path fill="currentColor"
d="M1952 662q-13 -4 -43 -17l-48 -22q-114 -240 -338 -383.5t-499 -143.5t-499 143.5t-338 383.5q-26 9 -78 37t-80.5 74t-28.5 94v392q0 48 26 94t70 72l91 39q114 240 338 383.5t499 143.5t499 -143.5t338 -383.5q26 -9 82 -48q105 -70 105 -166v-383q0 -48 -26 -94
t-70 -72zM1024 279q166 0 309.5 65.5t248.5 187.5q-236 -66 -560.5 -66t-546.5 66q100 -122 241.5 -187.5t307.5 -65.5zM1024 1769q-166 0 -307.5 -65.5t-241.5 -187.5q222 66 546.5 66t560.5 -66q-105 122 -248.5 187.5t-309.5 65.5z" />
</svg>
