<?xml version="1.0" standalone="no"?>
<!DOCTYPE svg PUBLIC "-//W3C//DTD SVG 1.1//EN" "http://www.w3.org/Graphics/SVG/1.1/DTD/svg11.dtd" >
<svg xmlns="http://www.w3.org/2000/svg" xmlns:xlink="http://www.w3.org/1999/xlink" version="1.1" width="2048" height="2048" viewBox="-10 0 2068 2048">
   <path fill="currentColor"
d="M1198 976q0 142 -71 254t-192 176t-253.5 64t-254 -64t-192 -176t-70.5 -254h-165q0 160 77.5 301.5t212.5 235.5t295 117v320h192v-320q160 -23 295 -117t212.5 -235.5t77.5 -301.5h-164zM562 382q0 -51 34.5 -85t84.5 -34t84.5 34t34.5 85l-5 603q0 46 -32 80t-82 34
t-84.5 -34t-34.5 -80v-603zM681 1269q124 0 208.5 -87t84.5 -206v-585q0 -124 -84.5 -208.5t-208 -84.5t-208 84.5t-84.5 208.5v585q0 119 84.5 206t207.5 87zM1801 1314v147h-146v-147h146zM1609 830h-146v-51q0 -123 84.5 -207.5t205.5 -84.5t208 84.5t87 207.5
q0 69 -34.5 133t-93.5 101l-27 18q-92 64 -92 169v18h-146v-18q0 -87 41 -164.5t114 -123.5l28 -18q64 -41 64 -115q0 -59 -43.5 -102.5t-105.5 -43.5t-103 43.5t-41 102.5v51z" />
</svg>
