<?xml version="1.0" standalone="no"?>
<!DOCTYPE svg PUBLIC "-//W3C//DTD SVG 1.1//EN" "http://www.w3.org/Graphics/SVG/1.1/DTD/svg11.dtd" >
<svg xmlns="http://www.w3.org/2000/svg" xmlns:xlink="http://www.w3.org/1999/xlink" version="1.1" width="2048" height="2048" viewBox="-10 0 2058 2048">
   <path fill="currentColor"
d="M375 1861v187h183v-187h-183zM932 1861h-187v187h187v-187zM558 1582v187h187v-187h-187zM932 1303v187h-187v-187h187zM1303 1861h-187v187h187v-187zM932 1582v187h184v-187h-184zM1303 1303v187h-187v-187h187zM1673 1861h-183v187h183v-187zM1303 1582v187h187v-187
h-187zM1394 932v184h-740v-184h278v-557h184v557h278zM1861 0v187h-279v279l-371 371v-257l183 -188v-205h-740v205l183 188v257l-371 -371v-279h-279v-187h1674z" />
</svg>
