<?xml version="1.0" standalone="no"?>
<!DOCTYPE svg PUBLIC "-//W3C//DTD SVG 1.1//EN" "http://www.w3.org/Graphics/SVG/1.1/DTD/svg11.dtd" >
<svg xmlns="http://www.w3.org/2000/svg" xmlns:xlink="http://www.w3.org/1999/xlink" version="1.1" width="2048" height="2048" viewBox="-10 0 2058 2048">
   <path fill="currentColor"
d="M458 975q113 221 292.5 401t401.5 293l231 -231q45 -45 109 -25q177 59 374 59q39 0 71 29.5t32 73.5v370q0 39 -32 71t-71 32q-488 0 -901 -246q-404 -236 -640 -640q-246 -414 -246 -901q0 -39 32 -71t71 -32h369q45 0 74.5 32t29.5 71q0 197 59 374q20 64 -25 108z
M1551 158v-158l-237 236l237 237v-158q108 0 184.5 76.5t76.5 184.5q0 64 -30 118l118 113q69 -103 69 -231q0 -172 -123 -295t-295 -123zM1551 842q-109 0 -187.5 -79t-78.5 -187q0 -59 29 -118l-113 -113q-74 108 -74 231q0 177 123.5 300t300.5 123v158l236 -236
l-236 -237v158z" />
</svg>
