<?xml version="1.0" standalone="no"?>
<!DOCTYPE svg PUBLIC "-//W3C//DTD SVG 1.1//EN" "http://www.w3.org/Graphics/SVG/1.1/DTD/svg11.dtd" >
<svg xmlns="http://www.w3.org/2000/svg" xmlns:xlink="http://www.w3.org/1999/xlink" version="1.1" width="2048" height="2048" viewBox="-10 0 2068 2048">
   <path fill="currentColor"
d="M411 885q122 240 317 435t435 317l250 -250q48 -48 118 -27q192 64 405 64q43 0 77.5 32t34.5 80v400q0 43 -34.5 77.5t-77.5 34.5q-528 0 -976 -267q-437 -256 -693 -693q-267 -448 -267 -976q0 -43 34.5 -77.5t77.5 -34.5h400q48 0 80 34.5t32 77.5q0 213 64 405
q21 70 -27 118zM1595 453l197 -197q-80 -85 -197.5 -85t-202.5 82.5t-85 200t85 202.5t203 85q69 0 127.5 -32t96.5 -85h197q-53 128 -168 208t-253 80q-192 0 -325.5 -133.5t-133.5 -322.5t133.5 -322.5t322.5 -133.5t323 133l133 -133v453h-453z" />
</svg>
