<?xml version="1.0" standalone="no"?>
<!DOCTYPE svg PUBLIC "-//W3C//DTD SVG 1.1//EN" "http://www.w3.org/Graphics/SVG/1.1/DTD/svg11.dtd" >
<svg xmlns="http://www.w3.org/2000/svg" xmlns:xlink="http://www.w3.org/1999/xlink" version="1.1" width="2048" height="2048" viewBox="-10 0 2068 2048">
   <path fill="currentColor"
d="M1664 0q105 0 193 51.5t139.5 139.5t51.5 193v1280q0 105 -51.5 193t-139.5 139.5t-193 51.5h-1280q-105 0 -193 -51.5t-139.5 -139.5t-51.5 -193v-1280q0 -105 51.5 -193t139.5 -139.5t193 -51.5h1280zM1707 1409v-583q-43 47 -85 74q-48 32 -179 115t-200 131
q-130 91 -218 91v0v0q-90 0 -220 -91q-62 -43 -189 -124t-189 -123q-16 -11 -43.5 -37t-41.5 -36v583q0 53 37 90t90 37h1110q53 0 90.5 -37t37.5 -90zM1707 644q0 -55 -36.5 -93.5t-91.5 -38.5h-1110q-53 0 -90 37t-37 90q0 50 40.5 103.5t90.5 86.5q64 42 184 118.5
t172 109.5q1 1 17 12t21 14t20.5 13.5t23.5 14.5t22.5 12t24.5 12t22.5 8.5t23.5 6.5t21 2t20.5 -2t23.5 -6.5t22.5 -8.5t24 -12t22.5 -12t24 -14.5t20.5 -13.5t20.5 -14t18 -12q160 -103 356 -232q47 -31 88.5 -83t41.5 -98z" />
</svg>
