<?xml version="1.0" standalone="no"?>
<!DOCTYPE svg PUBLIC "-//W3C//DTD SVG 1.1//EN" "http://www.w3.org/Graphics/SVG/1.1/DTD/svg11.dtd" >
<svg xmlns="http://www.w3.org/2000/svg" xmlns:xlink="http://www.w3.org/1999/xlink" version="1.1" width="2048" height="2048" viewBox="-10 0 2068 2048">
   <path fill="currentColor"
d="M1024 356q-279 0 -514.5 69.5t-372.5 187.5t-137 257q0 168 199.5 303t516.5 188v331l409 -413l-409 -409v279q-230 -43 -379 -135q-135 -77 -135 -141.5t101 -132.5q106 -77 279 -125q202 -53 442 -53t442 53q173 48 279 125q101 68 101 128t-110 132q-121 82 -303 125
v216q278 -62 446.5 -187t168.5 -284q0 -139 -137 -257t-372.5 -187.5t-514.5 -69.5z" />
</svg>
