<?xml version="1.0" standalone="no"?>
<!DOCTYPE svg PUBLIC "-//W3C//DTD SVG 1.1//EN" "http://www.w3.org/Graphics/SVG/1.1/DTD/svg11.dtd" >
<svg xmlns="http://www.w3.org/2000/svg" xmlns:xlink="http://www.w3.org/1999/xlink" version="1.1" width="2048" height="2048" viewBox="-10 0 2058 2048">
   <path fill="currentColor"
d="M1074 991l294 298q67 -63 67 -140q0 -53 -34 -106l-33 -43l-149 -158q29 -58 29 -125q0 -82 -38.5 -149.5t-101.5 -105.5l140 -452q-87 -24 -154 10q-48 24 -82 77l-24 48l-82 269q-96 9 -165.5 69.5t-98.5 151.5l-457 144q44 125 154 139q58 10 106 -4l211 -72
q58 120 178 163v735l-53 10q-57 14 -96 53q-53 53 -53 144v101h616v-101l-10 -53q-15 -62 -53 -101q-53 -53 -144 -53v-735zM786 717q0 -63 43.5 -108.5t108 -45.5t110.5 45.5t46 108t-46 108t-110.5 45.5t-108 -45.5t-43.5 -107.5zM1656 1024v-514h207v615h-207v-101z
M1656 1539v-207h207v207h-207z" />
</svg>
