<?xml version="1.0" standalone="no"?>
<!DOCTYPE svg PUBLIC "-//W3C//DTD SVG 1.1//EN" "http://www.w3.org/Graphics/SVG/1.1/DTD/svg11.dtd" >
<svg xmlns="http://www.w3.org/2000/svg" xmlns:xlink="http://www.w3.org/1999/xlink" version="1.1" width="2048" height="2048" viewBox="-10 0 2068 2048">
   <path fill="currentColor"
d="M145 1024q0 -185 77 -358l419 1148q-224 -109 -360 -321.5t-136 -468.5zM1617 979q0 16 -1.5 32t-6 37t-7 35t-11 42.5t-12 40.5t-14.5 49t-15 49l-87 292l-318 -944q53 -3 101 -9q22 -3 29.5 -21.5t-3 -35t-32.5 -15.5l-234 11q-86 -1 -231 -11q-23 -1 -33.5 16t-3 36
t30.5 20l92 9l137 375l-192 576l-320 -951q52 -3 100 -9q22 -3 30 -21.5t-2.5 -35t-32.5 -15.5l-235 11q-7 0 -26 -0.5t-30 -0.5q120 -182 314 -289t420 -107q168 0 320.5 60.5t272.5 170.5h-11q-63 0 -105.5 46.5t-42.5 108.5q0 12 1 23t5 24t6.5 22t9.5 23.5t10 21t13 23
t12.5 21.5t14.5 24.5t15 23.5q72 123 72 242zM1039 1100l271 740q1 6 5 12q-142 50 -291 50q-130 0 -248 -36zM1794 602q109 199 109 422q0 240 -119 441t-319 317l269 -774q67 -191 67 -316q0 -49 -7 -90zM1024 0q208 0 397.5 81t327 218.5t218.5 327t81 397.5t-81 397.5
t-218.5 327t-327 218.5t-397.5 81t-397.5 -81t-327 -218.5t-218.5 -327t-81 -397.5t81 -397.5t218.5 -327t327 -218.5t397.5 -81zM1024 2001q198 0 379 -77.5t312 -208.5t208.5 -312t77.5 -379t-77.5 -379t-208.5 -312t-312 -209t-379 -78t-379 78t-312 209t-208.5 312
t-77.5 379t77.5 379t208.5 312t312 208.5t379 77.5z" />
</svg>
