<?xml version="1.0" standalone="no"?>
<!DOCTYPE svg PUBLIC "-//W3C//DTD SVG 1.1//EN" "http://www.w3.org/Graphics/SVG/1.1/DTD/svg11.dtd" >
<svg xmlns="http://www.w3.org/2000/svg" xmlns:xlink="http://www.w3.org/1999/xlink" version="1.1" width="2048" height="2048" viewBox="-10 0 2058 2048">
   <path fill="currentColor"
d="M806 309l214 -309l213 309q-96 -30 -213.5 -30t-213.5 30zM1529 484q179 174 214 383l161 -344zM370 662q0 -4 5 -8l-5 8q9 -8 9 -17q57 -87 131 -161l-375 30l161 344q31 -109 74 -196zM1691 1342v0q-22 35 -31 44v17q-26 52 -96 131l-35 39l384 -30l-157 -340
q-39 91 -65 139zM388 1416q0 -4 -4.5 -10.5t-4.5 -11.5q-9 -8 -9 -17l-8 -13q-13 -18 -13 -35q-35 -91 -44 -139l-161 344l383 30q-78 -56 -139 -148zM1076 1769h-113q-39 0 -118 -22l-39 -8l214 309l213 -309zM1412 632q-109 -105 -250.5 -142t-287.5 0t-255 141.5
t-146 248.5t2 288t143.5 255t248.5 148t288 -2.5t255 -144t148 -250.5t0 -289.5t-146 -252.5zM693 1351l196 -458l466 -205l-196 458zM1085 1089q-26 27 -65.5 27t-65.5 -26.5t-26 -65.5t26 -65.5t65.5 -26.5t65.5 26.5t26 65.5t-26 65z" />
</svg>
