<?xml version="1.0" standalone="no"?>
<!DOCTYPE svg PUBLIC "-//W3C//DTD SVG 1.1//EN" "http://www.w3.org/Graphics/SVG/1.1/DTD/svg11.dtd" >
<svg xmlns="http://www.w3.org/2000/svg" xmlns:xlink="http://www.w3.org/1999/xlink" version="1.1" width="2048" height="2048" viewBox="-10 0 2068 2048">
   <path fill="currentColor"
d="M1490 279h-1303q-78 0 -132.5 54.5t-54.5 132.5v1024h187q0 118 81 198.5t198.5 80.5t198 -80.5t80.5 -198.5h558q0 118 80.5 198.5t198 80.5t198.5 -80.5t81 -198.5h187v-466l-279 -370h-279v-375zM858 401h27q34 9 54 37t11 67l-48 183l187 -43q35 -9 65.5 10.5
t37 52.5t-11 63.5t-43.5 38.5l-187 48l131 127q26 22 26 59t-24 65t-61 28t-63 -30l-140 -131l-48 187q-4 35 -34.5 52.5t-65.5 6.5t-52.5 -41.5t-4.5 -64.5l48 -184l-187 44q-35 9 -65.5 -8.5t-37 -48t11 -61t43.5 -39.5l187 -48l-130 -148q-22 -22 -22 -56.5t21.5 -58.5
t59 -24t63.5 21l130 127l48 -183q5 -18 26.5 -33t47.5 -15zM1490 793h231l188 231h-419v-231zM466 1351q57 0 98.5 41.5t41.5 96t-41.5 98t-98 43.5t-98 -43.5t-41.5 -98t41.5 -96t97.5 -41.5zM1582 1351q56 0 97.5 41.5t41.5 96t-41.5 98t-98 43.5t-98 -43.5t-41.5 -98
t41.5 -96t98.5 -41.5z" />
</svg>
