<?xml version="1.0" standalone="no"?>
<!DOCTYPE svg PUBLIC "-//W3C//DTD SVG 1.1//EN" "http://www.w3.org/Graphics/SVG/1.1/DTD/svg11.dtd" >
<svg xmlns="http://www.w3.org/2000/svg" xmlns:xlink="http://www.w3.org/1999/xlink" version="1.1" width="2048" height="2048" viewBox="-10 0 2068 2048">
   <path fill="currentColor"
d="M1692 1514q-53 0 -89 -36t-36 -86.5t38.5 -86.5t84.5 -36t84 38.5t43 84t-33.5 84t-91.5 38.5zM1692 1024q-149 0 -254.5 106t-105.5 255q0 115 91 288q67 125 173 264l96 111l92 -111q105 -139 173 -264q91 -173 91 -288q0 -149 -106 -255t-250 -106zM716 0l-182 202
h-332q-82 0 -142 60t-60 147v1230q0 87 60 147t142 60h1077q-77 -115 -101 -207h-976v-1230h423l183 -207h432l183 207h423v432q106 29 202 111v-543q0 -87 -60 -147t-142 -60h-332l-182 -202h-616zM1024 510q-139 0 -257 69.5t-187.5 187.5t-69.5 257t69.5 257t187.5 187.5
t257 69.5q82 0 125 -9l-5 -24q-19 -77 -19 -120v-73q-58 20 -101 20q-130 0 -219 -89t-89 -219t89 -219t219 -89q106 0 190 67.5t108 168.5q96 -77 183 -101q-53 -154 -185.5 -247.5t-295.5 -93.5z" />
</svg>
