<?xml version="1.0" standalone="no"?>
<!DOCTYPE svg PUBLIC "-//W3C//DTD SVG 1.1//EN" "http://www.w3.org/Graphics/SVG/1.1/DTD/svg11.dtd" >
<svg xmlns="http://www.w3.org/2000/svg" xmlns:xlink="http://www.w3.org/1999/xlink" version="1.1" width="2048" height="2048" viewBox="-10 0 2058 2048">
   <path fill="currentColor"
d="M947 991l293 298q68 -63 68 -140q0 -53 -34 -106l-34 -43l-154 -158q29 -58 29 -125q0 -82 -36 -149.5t-103 -105.5l139 -452q-86 -24 -153 10q-44 24 -77 77l-24 48l-82 269q-96 9 -168 69.5t-96 151.5l-457 144q38 125 154 139q57 10 105 -4l212 -72q53 120 178 163
v735l-53 10q-63 14 -101 53q-53 53 -53 144v101h615v-101l-4 -53q-15 -62 -53 -101q-53 -53 -145 -53v-735zM654 717q0 -63 45.5 -108.5t110.5 -45.5t108.5 45.5t43.5 108t-43.5 108t-108.5 45.5t-110.5 -45.5t-45.5 -107.5zM1500 1961l-279 -307l115 -115l164 163l370 -370
l120 144z" />
</svg>
