<?xml version="1.0" standalone="no"?>
<!DOCTYPE svg PUBLIC "-//W3C//DTD SVG 1.1//EN" "http://www.w3.org/Graphics/SVG/1.1/DTD/svg11.dtd" >
<svg xmlns="http://www.w3.org/2000/svg" xmlns:xlink="http://www.w3.org/1999/xlink" version="1.1" width="2048" height="2048" viewBox="-11 0 2069 2048">
   <path fill="currentColor"
d="M780 1964q122 -52 127 -174q0 -109 -80 -213q-57 -84 -156 -165q-61 -51 -179 -132q-141 -89 -236 -207l-4 -5q-33 -42 -43 -61q-14 -33 19 -43q47 -9 179 52l38 19q146 62 264 132l104 -169q-128 -81 -264 -137q-151 -66 -283 -85q-90 -14 -156 9q-75 33 -99 113
q-42 123 76 279q56 70 136 141l156 113q156 109 222 175v4q75 71 94 118q14 33 9.5 40t-42.5 7q-80 0 -198 -56q-71 -33 -184 -109l-99 175q170 104 288 146q188 75 311 33zM1704 601l-566 571h-231v-231l571 -571zM2048 526q0 28 -66 90l-250 254l-89 -85l264 -259l-62 -61
l-66 66l-231 -231l217 -212q14 -19 40 -19t45 19l141 141q19 19 19 45t-19 40q-37 42 -39.5 65.5t39.5 56.5l5 5q52 57 52 85z" />
</svg>
