<?xml version="1.0" standalone="no"?>
<!DOCTYPE svg PUBLIC "-//W3C//DTD SVG 1.1//EN" "http://www.w3.org/Graphics/SVG/1.1/DTD/svg11.dtd" >
<svg xmlns="http://www.w3.org/2000/svg" xmlns:xlink="http://www.w3.org/1999/xlink" version="1.1" width="2048" height="2048" viewBox="-10 0 2068 2048">
   <path fill="currentColor"
d="M1241 74v1754l-311 146q-195 -17 -367 -76t-296 -146.5t-195.5 -203t-71.5 -240.5q0 -120 67 -231.5t184 -197.5t279 -146.5t347 -82.5v196q-163 28 -291.5 95t-202 163t-73.5 204q0 115 81 215t222.5 167t316.5 90v-1554zM2006 738l42 446l-600 -130l168 -96
q-133 -78 -320 -112v-196q316 37 550 178z" />
</svg>
