<?xml version="1.0" standalone="no"?>
<!DOCTYPE svg PUBLIC "-//W3C//DTD SVG 1.1//EN" "http://www.w3.org/Graphics/SVG/1.1/DTD/svg11.dtd" >
<svg xmlns="http://www.w3.org/2000/svg" xmlns:xlink="http://www.w3.org/1999/xlink" version="1.1" width="2048" height="2048" viewBox="-11 0 2069 2048">
   <path fill="currentColor"
d="M1124 1844v-1146q91 -39 134 -91l360 129l-298 696q-38 148 60.5 227.5t297.5 79.5t299.5 -79.5t57.5 -227.5l-264 -643l91 29l72 -192l-604 -216q0 -96 -55 -177.5t-146.5 -120t-185 -9.5t-155.5 101l-595 -202l-72 183l163 62l-273 676q-39 149 59.5 228t297.5 79
t300 -79t58 -228l-255 -604l245 91q0 96 55 177.5t151 119.5v1137h-921v202h2044v-202h-921zM1834 1432h-307l153 -389zM519 923h-307l154 -388zM932 381q14 -43 55 -60t79 -2.5t55 55.5t2.5 79.5t-52.5 55t-79 2t-58 -52.5t-2 -77z" />
</svg>
