<?xml version="1.0" standalone="no"?>
<!DOCTYPE svg PUBLIC "-//W3C//DTD SVG 1.1//EN" "http://www.w3.org/Graphics/SVG/1.1/DTD/svg11.dtd" >
<svg xmlns="http://www.w3.org/2000/svg" xmlns:xlink="http://www.w3.org/1999/xlink" version="1.1" width="2048" height="2048" viewBox="-10 0 2068 2048">
   <path fill="currentColor"
d="M1769 654h-279v-375h-1303q-78 0 -132.5 54.5t-54.5 132.5v1024h187q0 114 81 196.5t198.5 82.5t198 -82.5t80.5 -196.5h558q0 114 80.5 196.5t198 82.5t198.5 -82.5t81 -196.5h187v-466zM466 1630q-56 0 -97.5 -41.5t-41.5 -100.5t41.5 -98t98 -39t98 39t41.5 98
t-41.5 100.5t-98.5 41.5zM1303 1303h-628q-82 -92 -208.5 -92t-209.5 92h-70v-837h1116v837zM1582 1630q-57 0 -98.5 -41.5t-41.5 -100.5t41.5 -98t98 -39t98 39t41.5 98t-41.5 100.5t-97.5 41.5zM1490 1024v-231h231l183 231h-414zM449 1002l165 -165l-165 -162l131 -135
l165 166l166 -166l130 135l-165 162l165 165l-130 131l-166 -166l-165 166z" />
</svg>
