<?xml version="1.0" standalone="no"?>
<!DOCTYPE svg PUBLIC "-//W3C//DTD SVG 1.1//EN" "http://www.w3.org/Graphics/SVG/1.1/DTD/svg11.dtd" >
<svg xmlns="http://www.w3.org/2000/svg" xmlns:xlink="http://www.w3.org/1999/xlink" version="1.1" width="2048" height="2048" viewBox="-10 0 2068 2048">
   <path fill="currentColor"
d="M1550 1001q0 73 -28 151l-169 -174q-9 -105 -86.5 -182.5t-183.5 -86.5l-173 -170q77 -27 151 -27q132 0 244 66.5t178.5 178.5t66.5 244zM855 219h411l179 197h397v1051l183 188q9 -32 9 -69v-1170q0 -82 -57 -139.5t-135 -57.5h-311l-178 -192h-585l-178 192l137 138z
M2048 1925l-123 123l-270 -265h-1376q-78 0 -135 -57t-57 -140v-1170q0 -87 64 -142l-151 -151l123 -123zM768 1001q0 124 84.5 208.5t208.5 84.5q45 0 91 -19l-366 -365q-18 50 -18 91zM1463 1586l-165 -160q-114 64 -242 64t-240 -66t-178.5 -178t-66.5 -240t64 -243
l-342 -347h-14v1170h1184z" />
</svg>
