<?xml version="1.0" standalone="no"?>
<!DOCTYPE svg PUBLIC "-//W3C//DTD SVG 1.1//EN" "http://www.w3.org/Graphics/SVG/1.1/DTD/svg11.dtd" >
<svg xmlns="http://www.w3.org/2000/svg" xmlns:xlink="http://www.w3.org/1999/xlink" version="1.1" width="2048" height="2048" viewBox="-10 0 2058 2048">
   <path fill="currentColor"
d="M2024 1538l-510 510l-360 -356l154 -154l206 202l356 -355zM231 0q-87 0 -147 60t-60 142v1644q0 82 60 142t147 60h798q-53 -82 -72 -202h-726v-1644h716v514h514v419q29 -10 101.5 -10t105.5 10v-520l-615 -615h-822zM745 923v817h202v-817h-202zM332 1125v615h206
v-615h-206z" />
</svg>
