<?xml version="1.0" standalone="no"?>
<!DOCTYPE svg PUBLIC "-//W3C//DTD SVG 1.1//EN" "http://www.w3.org/Graphics/SVG/1.1/DTD/svg11.dtd" >
<svg xmlns="http://www.w3.org/2000/svg" xmlns:xlink="http://www.w3.org/1999/xlink" version="1.1" width="2048" height="2048" viewBox="-10 0 2068 2048">
   <path fill="currentColor"
d="M1639 918q-110 0 -199 77t-89 183v154q-43 0 -81.5 38.5t-38.5 81.5v360q0 53 36 94t84 41h567q53 0 91.5 -38.5t38.5 -86.5v-361q0 -52 -36 -90.5t-84 -38.5v-154q0 -106 -89 -183t-200 -77zM1639 1043q63 0 108.5 36t45.5 99v154h-307v-154q0 -63 45.5 -99t107.5 -36z
M562 101q-149 0 -278.5 77t-206.5 206.5t-77 278.5t77 279t206.5 207t278.5 77h587v-48q0 -72 10 -106h-597q-168 0 -288 -120t-120 -288.5t120 -288.5t288 -120h1077q106 0 180.5 74.5t74.5 180.5q0 67 -33.5 127t-96.5 99q58 9 164 72q120 -125 120 -296t-120 -291
t-289 -120h-1077zM769 409q-110 0 -184.5 74.5t-74.5 180t74.5 180t184.5 74.5h462q77 -106 182 -154h-644q-48 0 -77 -26t-29 -74.5t29 -75t77 -26.5h769v-153h-769z" />
</svg>
