<?xml version="1.0" standalone="no"?>
<!DOCTYPE svg PUBLIC "-//W3C//DTD SVG 1.1//EN" "http://www.w3.org/Graphics/SVG/1.1/DTD/svg11.dtd" >
<svg xmlns="http://www.w3.org/2000/svg" xmlns:xlink="http://www.w3.org/1999/xlink" version="1.1" width="2048" height="2048" viewBox="-10 0 2058 2048">
   <path fill="currentColor"
d="M1902 1586v343q0 46 -36.5 82.5t-87.5 36.5h-539q-46 0 -80 -39t-34 -89v-343q0 -41 36.5 -77.5t77.5 -36.5v-247q0 -101 84.5 -171.5t189.5 -70.5t189.5 70.5t84.5 171.5v50h-128v-50q0 -55 -43 -89t-102.5 -34t-103 34t-43.5 89v247h420q46 0 80.5 36.5t34.5 86.5z
M343 0q-82 0 -139.5 57t-57.5 135v1563q0 78 57.5 135t139.5 57h585v-192h-585v-1563h681v489h489v96q78 0 197 41v-233l-585 -585h-782z" />
</svg>
