<?xml version="1.0" standalone="no"?>
<!DOCTYPE svg PUBLIC "-//W3C//DTD SVG 1.1//EN" "http://www.w3.org/Graphics/SVG/1.1/DTD/svg11.dtd" >
<svg xmlns="http://www.w3.org/2000/svg" xmlns:xlink="http://www.w3.org/1999/xlink" version="1.1" width="2048" height="2048" viewBox="-10 0 2068 2048">
   <path fill="currentColor"
d="M1846 1639h-1644v-1024h1644v1024zM1846 409h-822l-207 -207h-615q-82 0 -142 60t-60 147v1230q0 87 60 147t142 60h1644q82 0 142 -60t60 -147v-1024q0 -86 -60 -146t-142 -60zM1740 995q0 58 -33 106q-20 29 -70.5 72t-69.5 67q-29 44 -29 92h-134q0 -87 38 -140
q24 -33 82 -81q43 -29 58 -49q29 -28 29 -67q0 -58 -41 -96t-94 -38t-94 38t-41 96h-134q0 -115 81.5 -197t197 -82t185 79.5t69.5 199.5zM1538 1404v134h-134v-134h134z" />
</svg>
