<?xml version="1.0" standalone="no"?>
<!DOCTYPE svg PUBLIC "-//W3C//DTD SVG 1.1//EN" "http://www.w3.org/Graphics/SVG/1.1/DTD/svg11.dtd" >
<svg xmlns="http://www.w3.org/2000/svg" xmlns:xlink="http://www.w3.org/1999/xlink" version="1.1" width="2048" height="2048" viewBox="-10 0 2058 2048">
   <path fill="currentColor"
d="M2024 1538l-510 510l-360 -356l154 -154l206 202l356 -355zM231 0q-87 0 -147 60t-60 142v1644q0 82 60 142t147 60h798q-82 -144 -82 -308v106h-202v-822h202v716q0 -163 84 -305t226 -226t305 -84q73 0 106 10v-520l-615 -615h-822zM947 154l567 562h-567v-562z
M332 1231h206v615h-206v-615z" />
</svg>
