<?xml version="1.0" standalone="no"?>
<!DOCTYPE svg PUBLIC "-//W3C//DTD SVG 1.1//EN" "http://www.w3.org/Graphics/SVG/1.1/DTD/svg11.dtd" >
<svg xmlns="http://www.w3.org/2000/svg" xmlns:xlink="http://www.w3.org/1999/xlink" version="1.1" width="2048" height="2048" viewBox="-10 0 2068 2048">
   <path fill="currentColor"
d="M1022 1086l614 -350v389q124 0 206 43v-604q0 -58 -53 -92l-806 -450q-43 -20 -62 -20t-62 20l-806 450q-53 34 -53 92v920q0 58 53 92l806 450q43 20 62 20t62 -20l91 -52q-28 -58 -52 -202v-686zM921 228l614 336l-206 110l-605 -345zM820 1772l-614 -350v-686l614 350
v686zM921 899l-614 -335l206 -125l614 360zM2048 1638v206h-820v-206h820z" />
</svg>
