<?xml version="1.0" standalone="no"?>
<!DOCTYPE svg PUBLIC "-//W3C//DTD SVG 1.1//EN" "http://www.w3.org/Graphics/SVG/1.1/DTD/svg11.dtd" >
<svg xmlns="http://www.w3.org/2000/svg" xmlns:xlink="http://www.w3.org/1999/xlink" version="1.1" width="2048" height="2048" viewBox="-10 0 2058 2048">
   <path fill="currentColor"
d="M1793 154l-154 -154l-153 154l-154 -154l-154 154l-154 -154l-154 154l-154 -154l-154 154l-153 -154l-154 154l-154 -154v2048l154 -154l154 154l153 -154l154 154l154 -154l154 154l154 -154l154 154l154 -154l153 154l154 -154l154 154v-2048zM1740 1750h-1432v-1452
h1432v1452zM409 1332h1230v206h-1230v-206zM409 923h1230v202h-1230v-202zM409 510h1230v206h-1230v-206z" />
</svg>
