<?xml version="1.0" standalone="no"?>
<!DOCTYPE svg PUBLIC "-//W3C//DTD SVG 1.1//EN" "http://www.w3.org/Graphics/SVG/1.1/DTD/svg11.dtd" >
<svg xmlns="http://www.w3.org/2000/svg" xmlns:xlink="http://www.w3.org/1999/xlink" version="1.1" width="2048" height="2048" viewBox="-10 0 2068 2048">
   <path fill="currentColor"
d="M1386 0q-175 4 -321 93.5t-233 237.5t-87 324.5t87 325t235.5 235.5t327 87t329 -87t237.5 -235.5t87 -327t-87 -329t-239.5 -237.5t-335.5 -87h4h-4zM1394 187q131 0 238 61t168 168t61 235.5t-61 235t-168 168t-235.5 61.5t-235 -61.5t-168 -168t-61.5 -235
t61.5 -235.5t168 -168t232.5 -61zM1303 279v466l335 205l74 -113l-270 -157v-401h-139zM336 1098q100 196 259 355t355 259l205 -204q22 -22 45.5 -26.5t45.5 8.5q153 53 336 53q35 0 63 30.5t28 64.5v314q0 35 -28 65.5t-63 30.5q-432 0 -798 -218q-357 -209 -566 -566
q-218 -366 -218 -798q0 -39 28.5 -65t67.5 -26h322q44 0 70 24t26 67q0 166 52 336q14 48 -17 91z" />
</svg>
