<?xml version="1.0" standalone="no"?>
<!DOCTYPE svg PUBLIC "-//W3C//DTD SVG 1.1//EN" "http://www.w3.org/Graphics/SVG/1.1/DTD/svg11.dtd" >
<svg xmlns="http://www.w3.org/2000/svg" xmlns:xlink="http://www.w3.org/1999/xlink" version="1.1" width="2048" height="2048" viewBox="-10 0 2068 2048">
   <path fill="currentColor"
d="M187 279q-78 0 -132.5 54.5t-54.5 132.5v1024h187q0 118 81 198.5t198.5 80.5t198 -80.5t80.5 -198.5h558q0 118 80.5 198.5t198 80.5t198.5 -80.5t81 -198.5h187v-466l-279 -370h-279v-375h-1303zM654 466h183v371h-183v-371zM1490 793h231l188 231h-419v-231zM654 1024
h183v187h-183v-187zM466 1351q57 0 98.5 41.5t41.5 96t-41.5 98t-98 43.5t-98 -43.5t-41.5 -98t41.5 -96t97.5 -41.5zM1582 1351q56 0 97.5 41.5t41.5 96t-41.5 98t-98 43.5t-98 -43.5t-41.5 -98t41.5 -96t98.5 -41.5z" />
</svg>
