<?xml version="1.0" standalone="no"?>
<!DOCTYPE svg PUBLIC "-//W3C//DTD SVG 1.1//EN" "http://www.w3.org/Graphics/SVG/1.1/DTD/svg11.dtd" >
<svg xmlns="http://www.w3.org/2000/svg" xmlns:xlink="http://www.w3.org/1999/xlink" version="1.1" width="2048" height="2048" viewBox="-10 0 2068 2048">
   <path fill="currentColor"
d="M2048 1934l-1920 -1934l-128 128l489 489h-68l-128 242l178 87l68 -137h147l96 101l-284 1069h206l18 -86l343 -508l343 508l18 86h206l-78 -310l380 379zM800 1600l119 -439l87 128zM1330 1600l-205 -302l18 -27l128 123zM1280 910h69l18 87zM1271 617h439l128 252
l-179 86l-68 -146h-407l-293 -292l46 -192h256zM713 343l-146 -146l87 -165h832l123 242l-174 87l-77 -137h-585z" />
</svg>
