<?xml version="1.0" standalone="no"?>
<!DOCTYPE svg PUBLIC "-//W3C//DTD SVG 1.1//EN" "http://www.w3.org/Graphics/SVG/1.1/DTD/svg11.dtd" >
<svg xmlns="http://www.w3.org/2000/svg" xmlns:xlink="http://www.w3.org/1999/xlink" version="1.1" width="2048" height="2048" viewBox="-10 0 2068 2048">
   <path fill="currentColor"
d="M2048 1934l-1920 -1934l-128 128l677 672l-384 379l205 206l-301 302v274l438 -439l206 206l380 -379l704 699zM987 1317l-137 137l-274 -275l247 -242l137 137l-110 105zM1056 686l-137 -137l343 -334l201 206l137 -138l-137 -137l137 -137l421 412l-138 137l-146 -137
l-137 137l206 205l-329 339l-275 -270l60 -69l137 138l132 -138l-269 -274z" />
</svg>
