<?xml version="1.0" standalone="no"?>
<!DOCTYPE svg PUBLIC "-//W3C//DTD SVG 1.1//EN" "http://www.w3.org/Graphics/SVG/1.1/DTD/svg11.dtd" >
<svg xmlns="http://www.w3.org/2000/svg" xmlns:xlink="http://www.w3.org/1999/xlink" version="1.1" width="2048" height="2048" viewBox="-10 0 2058 2048">
   <path fill="currentColor"
d="M1218 1390l279 164l-73 119l-352 -210v-489h146v416zM1854 1362q0 188 -91.5 345.5t-249.5 249t-345 91.5t-347 -101h-499q-50 0 -89 -36.5t-39 -91.5v-1494q0 -55 39 -94t89 -39h165v-192h585v192h165q50 0 89 39t39 94v384q214 64 351.5 244.5t137.5 408.5zM1657 1362
q0 -132 -66 -244t-178 -176t-245 -64t-245 64t-176 176t-64 244.5t64 244.5t176 178t245 66t245 -66t178 -178t66 -245z" />
</svg>
