<?xml version="1.0" standalone="no"?>
<!DOCTYPE svg PUBLIC "-//W3C//DTD SVG 1.1//EN" "http://www.w3.org/Graphics/SVG/1.1/DTD/svg11.dtd" >
<svg xmlns="http://www.w3.org/2000/svg" xmlns:xlink="http://www.w3.org/1999/xlink" version="1.1" width="2048" height="2048" viewBox="-10 0 2058 2048">
   <path fill="currentColor"
d="M1136 1178l16 870q-72 -13 -129 -13q-55 0 -129 13l15 -870q-55 -95 -209 -366.5t-264 -456t-223 -355.5q73 18 132 18q54 0 137 -18q77 136 165.5 283.5t204.5 337t171 281.5q38 -62 169 -272.5t213.5 -350.5t157.5 -279q69 17 132 17q68 0 140 -17v0q-28 39 -55 80
t-57.5 90.5t-48.5 80t-54.5 92.5t-49.5 84q-122 208 -434 751z" />
</svg>
