<?xml version="1.0" standalone="no"?>
<!DOCTYPE svg PUBLIC "-//W3C//DTD SVG 1.1//EN" "http://www.w3.org/Graphics/SVG/1.1/DTD/svg11.dtd" >
<svg xmlns="http://www.w3.org/2000/svg" xmlns:xlink="http://www.w3.org/1999/xlink" version="1.1" width="2048" height="2048" viewBox="-10 0 2068 2048">
   <path fill="currentColor"
d="M654 96q178 0 326.5 87t235.5 235t87 327q0 166 -76.5 305.5t-202.5 226.5v213q0 39 -26 65.5t-66 26.5h-557q-44 0 -70 -26.5t-26 -65.5v-213q-126 -87 -202.5 -226.5t-76.5 -305.5q0 -179 87 -327t237.5 -235t329.5 -87zM375 1861v-92h557v92q0 43 -26 67t-69 24h-371
q-43 0 -67 -24t-24 -67zM654 279q-131 0 -238 63t-168 170t-61 233q0 144 76.5 257.5t202.5 169.5v222h371v-222q130 -56 204.5 -169.5t74.5 -257.5q0 -126 -61.5 -233t-168 -170t-232.5 -63zM1813 1255v139h-140v-139h140zM1630 793h-140v-48q0 -118 78.5 -198.5
t198.5 -80.5t200.5 80.5t80.5 198.5q0 70 -32.5 128.5t-89.5 93.5l-26 18q-87 56 -87 161v17h-140v-17q0 -87 41.5 -159t106.5 -111l31 -18q57 -43 57 -113q0 -57 -44 -98t-98.5 -41t-95.5 41t-41 98v48z" />
</svg>
