<?xml version="1.0" standalone="no"?>
<!DOCTYPE svg PUBLIC "-//W3C//DTD SVG 1.1//EN" "http://www.w3.org/Graphics/SVG/1.1/DTD/svg11.dtd" >
<svg xmlns="http://www.w3.org/2000/svg" xmlns:xlink="http://www.w3.org/1999/xlink" version="1.1" width="2048" height="2048" viewBox="-10 0 2058 2048">
   <path fill="currentColor"
d="M817 0q197 0 363 96t262 259.5t96 360.5q0 183 -84 337t-223 250v235q0 44 -29 72.5t-77 28.5h-615q-44 0 -72.5 -28.5t-28.5 -72.5v-235q-140 -96 -224 -250t-84 -337q0 -197 96 -360.5t259.5 -259.5t360.5 -96zM510 1947v-101h615v101q0 48 -26.5 74.5t-74.5 26.5h-409
q-48 0 -76.5 -26.5t-28.5 -74.5zM817 202q-139 0 -257 69.5t-185 187.5t-67 257q0 159 81.5 284t225.5 187v246h409v-246q139 -62 223.5 -187t84.5 -284q0 -139 -67.5 -257t-185 -187.5t-262.5 -69.5zM1740 1024v-514h207v615h-207v-101zM1740 1538v-206h207v206h-207z" />
</svg>
