<?xml version="1.0" standalone="no"?>
<!DOCTYPE svg PUBLIC "-//W3C//DTD SVG 1.1//EN" "http://www.w3.org/Graphics/SVG/1.1/DTD/svg11.dtd" >
<svg xmlns="http://www.w3.org/2000/svg" xmlns:xlink="http://www.w3.org/1999/xlink" version="1.1" width="2048" height="2048" viewBox="-10 0 2068 2048">
   <path fill="currentColor"
d="M1266 489q-160 0 -274 114.5t-114 274.5v781h-686q-78 0 -135 -57t-57 -139v-1170q0 -83 57 -140t135 -57h585l197 197h781q78 0 135 57t57 139v210l-210 -210h-471zM2048 1074v681q0 83 -57 140t-140 57h-585q-82 0 -139 -57t-57 -140v-877q0 -83 57 -140t139 -57h389z
M1851 1152l-274 -274h-18v292h292v-18z" />
</svg>
