<?xml version="1.0" standalone="no"?>
<!DOCTYPE svg PUBLIC "-//W3C//DTD SVG 1.1//EN" "http://www.w3.org/Graphics/SVG/1.1/DTD/svg11.dtd" >
<svg xmlns="http://www.w3.org/2000/svg" xmlns:xlink="http://www.w3.org/1999/xlink" version="1.1" width="2048" height="2048" viewBox="-10 0 2068 2048">
   <path fill="currentColor"
d="M1538 1356q0 72 -55 127t-129.5 55t-127.5 -55t-53 -129.5t53 -127.5t127.5 -53t129.5 53t55 130zM697 880q77 0 130 -53t53 -127.5t-53 -130t-127.5 -55.5t-130 55.5t-55.5 130t55.5 127.5t127.5 53zM510 1385l153 153l875 -875l-153 -153zM2048 1024q0 279 -137 514.5
t-372.5 372.5t-514.5 137t-514.5 -137t-372.5 -372.5t-137 -514.5t137 -514.5t372.5 -372.5t514.5 -137t514.5 137t372.5 372.5t137 514.5zM1846 1024q0 -221 -110.5 -411t-300.5 -300.5t-411 -110.5t-411 110.5t-300.5 300.5t-110.5 411t110.5 411t300.5 300.5t411 110.5
t411 -110.5t300.5 -300.5t110.5 -411z" />
</svg>
