<?xml version="1.0" standalone="no"?>
<!DOCTYPE svg PUBLIC "-//W3C//DTD SVG 1.1//EN" "http://www.w3.org/Graphics/SVG/1.1/DTD/svg11.dtd" >
<svg xmlns="http://www.w3.org/2000/svg" xmlns:xlink="http://www.w3.org/1999/xlink" version="1.1" width="2048" height="2048" viewBox="-10 0 2058 2048">
   <path fill="currentColor"
d="M1045 878h966q17 91 17 170q0 217 -71 402.5t-198.5 317t-311.5 206t-402 74.5q-140 0 -273 -36.5t-245 -102.5t-206.5 -160.5t-160.5 -206.5t-103 -245t-37 -272.5t37 -272.5t103 -245.5t160.5 -207t206.5 -160.5t245 -102.5t273 -36.5q202 0 375 70t311 198l-279 268
q-31 -31 -68.5 -57t-88 -50t-115 -38t-135.5 -14q-129 0 -246 51.5t-202.5 138t-136 206.5t-50.5 251.5t50.5 251.5t136 206.5t202.5 137.5t246 51q84 0 158.5 -16.5t130 -44.5t102.5 -65.5t79 -77.5t56 -84t37 -81.5t18 -71.5h-581v-352z" />
</svg>
