<?xml version="1.0" standalone="no"?>
<!DOCTYPE svg PUBLIC "-//W3C//DTD SVG 1.1//EN" "http://www.w3.org/Graphics/SVG/1.1/DTD/svg11.dtd" >
<svg xmlns="http://www.w3.org/2000/svg" xmlns:xlink="http://www.w3.org/1999/xlink" version="1.1" width="2048" height="2048" viewBox="-10 0 2058 2048">
   <path fill="currentColor"
d="M1654 1418q0 172 -83.5 317.5t-229 229t-317.5 83.5t-317.5 -83.5t-229 -229t-83.5 -317.5q0 -104 34 -187q20 -49 71.5 -128t71.5 -128q35 -79 35 -190t54 -209t152 -153q64 -39 133 -49v-108q0 -54 -24.5 -81t-108.5 -27v-158q148 0 219.5 74t71.5 192v108
q74 15 133 49q98 55 152 153t54 209t35 190q20 49 71.5 128t71.5 128q34 83 34 187z" />
</svg>
