<?xml version="1.0" standalone="no"?>
<!DOCTYPE svg PUBLIC "-//W3C//DTD SVG 1.1//EN" "http://www.w3.org/Graphics/SVG/1.1/DTD/svg11.dtd" >
<svg xmlns="http://www.w3.org/2000/svg" xmlns:xlink="http://www.w3.org/1999/xlink" version="1.1" width="2048" height="2048" viewBox="-10 0 2068 2048">
   <path fill="currentColor"
d="M1819 0h-1590q-96 0 -162.5 66.5t-66.5 162.5v1590q0 96 66.5 162.5t162.5 66.5h1590q96 0 162.5 -66.5t66.5 -162.5v-1590q0 -96 -66.5 -162.5t-162.5 -66.5zM1819 1819h-1590v-1590h1590v1590zM1595 1392q0 80 -61.5 141.5t-144 61.5t-141.5 -61.5t-59 -144t59 -141.5
t141.5 -59t144 59t61.5 144zM624 1595l-171 -171l971 -971l171 171zM459 661q0 -80 61 -141t144 -61t141.5 61t58.5 144t-58.5 141.5t-141.5 58.5t-144 -58.5t-61 -144.5z" />
</svg>
