<?xml version="1.0" standalone="no"?>
<!DOCTYPE svg PUBLIC "-//W3C//DTD SVG 1.1//EN" "http://www.w3.org/Graphics/SVG/1.1/DTD/svg11.dtd" >
<svg xmlns="http://www.w3.org/2000/svg" xmlns:xlink="http://www.w3.org/1999/xlink" version="1.1" width="2048" height="2048" viewBox="-10 0 2068 2048">
   <path fill="currentColor"
d="M536 1454q46 0 78.5 33t32.5 78q0 86 -63 149t-154 63q-36 0 -56 -5q56 -96 56 -207q0 -45 33 -78t73 -33zM1795 53q-40 0 -76 30l-966 966l299 299l966 -966q30 -31 30 -76.5t-30 -75.5l-147 -147q-30 -30 -76 -30zM536 1241q-131 0 -227.5 94t-96.5 230q0 96 -70 157
q-66 55 -142 55q71 102 189.5 160t240.5 58q177 0 303.5 -126.5t126.5 -303.5q0 -136 -93.5 -230t-230.5 -94z" />
</svg>
