<?xml version="1.0" standalone="no"?>
<!DOCTYPE svg PUBLIC "-//W3C//DTD SVG 1.1//EN" "http://www.w3.org/Graphics/SVG/1.1/DTD/svg11.dtd" >
<svg xmlns="http://www.w3.org/2000/svg" xmlns:xlink="http://www.w3.org/1999/xlink" version="1.1" width="2048" height="2048" viewBox="-10 0 2058 2048">
   <path fill="currentColor"
d="M1454 753q0 203 -132 324q-121 106 -298 106t-298 -106q-132 -121 -132 -324h213q0 102 65.5 160t151.5 58t151.5 -58t65.5 -160h213zM1889 1724v324h-1730v-324q0 -131 162 -237q132 -91 349 -147q192 -45 354 -45t354 45q217 56 349 147q162 106 162 237zM1681 1724
q0 -35 -101 -90.5t-242 -91.5q-162 -45 -314 -45t-314 45q-141 36 -242 91.5t-101 90.5v117h1314v-117zM1080 0q20 0 35 15t15 36v323h111v-268q117 56 182.5 167t60.5 238l20 10q21 10 36 35q20 36 25 91h-1082q0 -55 20 -91q15 -25 41 -35l20 -10q-5 -127 60.5 -238
t182.5 -167v268h111v-323q0 -21 15 -36t35 -15h112z" />
</svg>
