<?xml version="1.0" standalone="no"?>
<!DOCTYPE svg PUBLIC "-//W3C//DTD SVG 1.1//EN" "http://www.w3.org/Graphics/SVG/1.1/DTD/svg11.dtd" >
<svg xmlns="http://www.w3.org/2000/svg" xmlns:xlink="http://www.w3.org/1999/xlink" version="1.1" width="2048" height="2048" viewBox="-10 0 2068 2048">
   <path fill="currentColor"
d="M192 192h293l196 -192h585l197 192h292q78 0 135 57t57 140v585q-128 -96 -292 -96q-110 0 -215 45q-46 -173 -174 -301q-132 -137 -292 -137q-133 0 -245 66t-178 178t-66 244.5t66 244.5t178 178.5t245 66.5q64 0 119 -18q-23 54 -23 114v196h-878q-78 0 -135 -57
t-57 -139v-1170q0 -83 57 -140t135 -57zM974 681q123 0 207.5 84.5t84.5 208t-84.5 208t-208 84.5t-208 -84.5t-84.5 -208t84.5 -208t208.5 -84.5zM2048 1586v343q0 46 -39 82.5t-89 36.5h-535q-46 0 -82.5 -39t-36.5 -89v-343q0 -41 36.5 -77.5t82.5 -36.5v-146
q0 -101 82.5 -174t187.5 -73t189.5 73t84.5 174v146q46 0 82.5 36.5t36.5 86.5zM1801 1317q0 -60 -41 -94t-103 -34t-105 34t-43 94v146h292v-146z" />
</svg>
