<?xml version="1.0" standalone="no"?>
<!DOCTYPE svg PUBLIC "-//W3C//DTD SVG 1.1//EN" "http://www.w3.org/Graphics/SVG/1.1/DTD/svg11.dtd" >
<svg xmlns="http://www.w3.org/2000/svg" xmlns:xlink="http://www.w3.org/1999/xlink" version="1.1" width="2048" height="2048" viewBox="-10 0 2069 2048">
   <path fill="currentColor"
d="M1953 1224q36 46 54 91l10 18q50 123 20 253t-125 221q-82 72 -200 104q-110 23 -228 9q-105 -13 -198 -74.5t-148 -157.5q-36 -63 -50 -123q-14 -36 -23 -104q-4 -119 41.5 -232.5t131.5 -186.5q-41 86 -32 188.5t69 175.5l13 14q18 18 43 9t25 -37l-4 -22
q-64 -169 -16 -346.5t184 -291.5q87 -72 173 -95q-50 100 -34 216t98 193q23 28 82 69q41 32 59 50zM1734 1679l-4 -4q36 -28 52 -73.5t16 -86.5l-5 -32q-9 -41 -36 -77q-14 -23 -57 -61.5t-61 -61.5l-46 -77q-27 64 -13 145l9 46q18 77 13 118q-13 50 -52 91t-102 55
q40 41 97 59t112 0q36 -13 77 -41zM96 1288h783l-5 100q0 200 96 373v14h-874v-487zM0 705h583v487h-583v-487zM678 705h583v9q-137 78 -230 203t-134 275h-219v-487zM96 122h778v487h-778v-487zM970 122h874v487h-874v-487z" />
</svg>
