<?xml version="1.0" standalone="no"?>
<!DOCTYPE svg PUBLIC "-//W3C//DTD SVG 1.1//EN" "http://www.w3.org/Graphics/SVG/1.1/DTD/svg11.dtd" >
<svg xmlns="http://www.w3.org/2000/svg" xmlns:xlink="http://www.w3.org/1999/xlink" version="1.1" width="2048" height="2048" viewBox="-10 0 2068 2048">
   <path fill="currentColor"
d="M1604 1186l-248 -243l-72 -296h153l72 305l81 -305h152l72 305l81 -305h153l-153 611h-153l-81 -310zM0 160l143 -143l1872 1871l-144 143l-926 -926h-5l-38 153h-152l66 -277l-143 -148v67q0 43 -26 81t-69 62l95 215h-153l-95 -205h-110v205h-153v-611h325zM520 900
v-100h-205v100h205z" />
</svg>
