<?xml version="1.0" standalone="no"?>
<!DOCTYPE svg PUBLIC "-//W3C//DTD SVG 1.1//EN" "http://www.w3.org/Graphics/SVG/1.1/DTD/svg11.dtd" >
<svg xmlns="http://www.w3.org/2000/svg" xmlns:xlink="http://www.w3.org/1999/xlink" version="1.1" width="2048" height="2048" viewBox="-10 0 2058 2048">
   <path fill="currentColor"
d="M1464 644q35 40 60 95l10 20q54 135 22 277.5t-137 242.5q-90 85 -220 115q-120 30 -250 10q-115 -15 -217.5 -82.5t-162.5 -167.5q-40 -75 -55 -140q-14 -40 -24 -115q-5 -130 44.5 -255t144.5 -204q-45 99 -35 209t75 195l15 10q20 25 47.5 12.5t27.5 -42.5l-5 -25
q-70 -185 -17.5 -379.5t202.5 -319.5q95 -75 190 -100q-55 110 -37.5 237.5t107.5 207.5q25 30 85 74q50 35 70 60zM1224 1139l-5 -5q40 -30 57.5 -77.5t17.5 -97.5l-5 -35q-10 -45 -40 -85q-15 -25 -62.5 -65t-72.5 -72.5t-45 -82.5q-30 75 -15 165l10 50q20 80 15 125
q-15 55 -57.5 100t-112.5 60q45 45 107.5 65t122.5 0q45 -15 85 -45zM919 1623v105q0 45 30 77.5t75 32.5t75 -32.5t30 -77.5v-105h215v105q0 45 32.5 77.5t75 32.5t74.5 -32.5t32 -77.5v-105q95 0 205 65q115 65 115 150v210h-1708v-210q0 -85 120 -150q105 -65 200 -65
v105q0 45 32 77.5t74.5 32.5t75 -32.5t32.5 -77.5v-105h215z" />
</svg>
