<?xml version="1.0" standalone="no"?>
<!DOCTYPE svg PUBLIC "-//W3C//DTD SVG 1.1//EN" "http://www.w3.org/Graphics/SVG/1.1/DTD/svg11.dtd" >
<svg xmlns="http://www.w3.org/2000/svg" xmlns:xlink="http://www.w3.org/1999/xlink" version="1.1" width="2048" height="2048" viewBox="-10 0 2068 2048">
   <path fill="currentColor"
d="M1251 1333q7 7 7 18t-7 18q-29 29 -80.5 46.5t-84.5 21t-62 3.5t-62 -3.5t-84.5 -21t-80.5 -46.5q-7 -7 -7 -18t7 -18t17 -7t17 7q28 29 83 42.5t110 13.5t109.5 -13.5t83.5 -42.5q7 -7 17 -7t17 7zM901 1126q0 42 -30 72t-72 30q-43 0 -73 -30t-30 -72q0 -43 30 -72.5
t73 -29.5q42 0 72 29.5t30 72.5zM1352 1126q0 42 -30 72t-73 30q-42 0 -72 -30t-30 -72q0 -43 30 -72.5t72 -29.5q43 0 73 29.5t30 72.5zM1639 989q0 -56 -40.5 -96t-96.5 -40q-58 0 -99 41q-147 -101 -355 -109l72 -324l229 52q0 42 29.5 71.5t71.5 29.5q43 0 73 -30
t30 -72t-30 -72.5t-73 -30.5q-29 0 -53.5 16t-37.5 41l-253 -56q-10 -2 -18 3t-10 15l-79 357q-205 9 -353 111q-41 -43 -100 -43q-56 0 -96.5 40t-40.5 96q0 40 21.5 73t56.5 51q-7 29 -7 64q0 107 73 197.5t198.5 143t273.5 52.5q149 0 274.5 -52.5t198.5 -143t73 -197.5
q0 -37 -8 -65q34 -18 55 -50.5t21 -72.5zM2048 1024q0 209 -81 398.5t-218 326.5t-326.5 218t-398.5 81t-398.5 -81t-326.5 -218t-218 -326.5t-81 -398.5t81 -398.5t218 -326.5t326.5 -218t398.5 -81t398.5 81t326.5 218t218 326.5t81 398.5z" />
</svg>
