<?xml version="1.0" standalone="no"?>
<!DOCTYPE svg PUBLIC "-//W3C//DTD SVG 1.1//EN" "http://www.w3.org/Graphics/SVG/1.1/DTD/svg11.dtd" >
<svg xmlns="http://www.w3.org/2000/svg" xmlns:xlink="http://www.w3.org/1999/xlink" version="1.1" width="2048" height="2048" viewBox="-10 0 2068 2048">
   <path fill="currentColor"
d="M2048 1586v343q0 46 -39 82.5t-89 36.5h-535q-46 0 -82.5 -39t-36.5 -89v-343q0 -41 36.5 -77.5t82.5 -36.5v-146q0 -101 82.5 -174t187.5 -73t189.5 73t84.5 174v146q46 0 82.5 36.5t36.5 86.5zM1801 1317q0 -60 -41 -94t-103 -34t-105 34t-43 94v146h292v-146z
M1755 192q78 0 135 57t57 140v585q-86 -64 -192 -87v-498h-397l-179 -197h-411l-178 197h-398v1170h878v196h-878q-78 0 -135 -57t-57 -139v-1170q0 -83 57 -140t135 -57h311l178 -192h585l179 192h310zM974 485q187 0 324 125.5t160 308.5q-123 55 -203 169t-85 251
q-50 46 -77 106q-55 18 -119 18q-133 0 -245 -66.5t-178 -178.5t-66 -244.5t66 -244.5t178 -178t245 -66zM974 1266q119 0 205.5 -86.5t86.5 -205.5t-86.5 -206t-205.5 -87t-206 87t-87 206t87 205.5t206 86.5z" />
</svg>
