<?xml version="1.0" standalone="no"?>
<!DOCTYPE svg PUBLIC "-//W3C//DTD SVG 1.1//EN" "http://www.w3.org/Graphics/SVG/1.1/DTD/svg11.dtd" >
<svg xmlns="http://www.w3.org/2000/svg" xmlns:xlink="http://www.w3.org/1999/xlink" version="1.1" width="2048" height="2048" viewBox="-10 0 2058 2048">
   <path fill="currentColor"
d="M1621 57q-57 -57 -131 -57h-932q-74 0 -128.5 56.5t-54.5 130.5v1674q0 74 54.5 130.5t128.5 56.5h932q74 0 128.5 -56.5t54.5 -130.5v-1674q0 -74 -52 -130zM1394 558q0 43 -24 69.5t-67 26.5h-558q-43 0 -67 -26.5t-24 -69.5v-183q0 -44 24 -70t67 -26h558q43 0 67 26
t24 70v183z" />
</svg>
