<?xml version="1.0" standalone="no"?>
<!DOCTYPE svg PUBLIC "-//W3C//DTD SVG 1.1//EN" "http://www.w3.org/Graphics/SVG/1.1/DTD/svg11.dtd" >
<svg xmlns="http://www.w3.org/2000/svg" xmlns:xlink="http://www.w3.org/1999/xlink" version="1.1" width="2048" height="2048" viewBox="-10 0 2068 2048">
   <path fill="currentColor"
d="M1252 1335q7 7 7 17.5t-7 17.5q-23 23 -56.5 38.5t-69 21.5t-58.5 8t-43.5 2t-43.5 -2t-59 -8t-69.5 -21.5t-56.5 -38.5q-7 -7 -7 -17.5t7 -17.5q7 -8 17.5 -8t17.5 8q28 28 83.5 42t110 14t109.5 -14t83 -42q7 -8 17.5 -8t17.5 8zM902 1127q0 42 -30.5 72.5t-72.5 30.5
t-72 -30.5t-30 -72.5t30 -72t72.5 -30t72.5 30t30 72zM1352 1127q0 42 -30 72.5t-72 30.5t-72.5 -30.5t-30.5 -72.5t30.5 -72t72.5 -30t72 30t30 72zM1640 990q0 -57 -40.5 -97t-97.5 -40q-56 0 -98 42q-152 -104 -356 -110l72 -324l228 52q1 43 31 72.5t72 29.5t72 -30.5
t30 -72.5t-30 -72t-72 -30q-30 0 -54 15t-38 42l-252 -56q-9 -3 -17.5 2.5t-10.5 14.5l-80 357q-207 9 -354 111q-41 -43 -97.5 -43t-97 40t-40.5 97q0 40 21 73t56 50q-7 40 -7 64q0 107 73 197.5t199 143.5t274 53t273.5 -53t199 -143.5t73.5 -197.5q0 -40 -7 -65
q34 -17 54.5 -50t20.5 -72zM2048 384v1280q0 105 -51.5 193t-139.5 139.5t-193 51.5h-1280q-105 0 -193 -51.5t-139.5 -139.5t-51.5 -193v-1280q0 -105 51.5 -193t139.5 -139.5t193 -51.5h1280q105 0 193 51.5t139.5 139.5t51.5 193z" />
</svg>
