<?xml version="1.0" standalone="no"?>
<!DOCTYPE svg PUBLIC "-//W3C//DTD SVG 1.1//EN" "http://www.w3.org/Graphics/SVG/1.1/DTD/svg11.dtd" >
<svg xmlns="http://www.w3.org/2000/svg" xmlns:xlink="http://www.w3.org/1999/xlink" version="1.1" width="2048" height="2048" viewBox="-10 0 2058 2048">
   <path fill="currentColor"
d="M1890 1629v-46v-46l96 -79q13 -8 5 -30l-92 -157q-9 -18 -26 -13l-118 43l-13 -8q-40 -22 -66 -31l-17 -127q-5 -17 -22 -17h-188q-22 0 -22 17l-17 127q-26 9 -66 35l-13 4l-113 -43q-22 -5 -31 13l-96 157q-9 22 9 30l96 79l-5 44l5 48l-96 74q-18 13 -9 31l96 161
q4 13 31 13l113 -48q44 31 79 44l17 127q0 17 22 17h188q17 0 22 -17l17 -127q31 -13 79 -44l118 48q22 0 26 -13l92 -161q13 -18 -5 -31zM1541 1747q-66 0 -114 -48t-48 -116t48 -116t116 -48t116 48t48 116t-48 116t-118 48zM899 1677h-847v-96l188 -184v-559
q0 -218 126.5 -390.5t335.5 -233.5v-31q0 -74 55 -128.5t133.5 -54.5t133 54.5t54.5 128.5v31q210 61 336.5 233.5t126.5 390.5v92q-92 0 -184 26v-118q0 -131 -63 -238t-170 -168t-233.5 -61t-233.5 61t-170.5 168t-63.5 238v651h476q-9 48 -9 91.5t9 96.5zM916 1769
q31 91 75 157q-48 30 -101 30q-78 0 -133 -54.5t-55 -132.5h214z" />
</svg>
