<?xml version="1.0" standalone="no"?>
<!DOCTYPE svg PUBLIC "-//W3C//DTD SVG 1.1//EN" "http://www.w3.org/Graphics/SVG/1.1/DTD/svg11.dtd" >
<svg xmlns="http://www.w3.org/2000/svg" xmlns:xlink="http://www.w3.org/1999/xlink" version="1.1" width="2048" height="2048" viewBox="-10 0 2068 2048">
   <path fill="currentColor"
d="M1846 1651v-1639h-1644v1639h-202v207h1154q0 77 50.5 127.5t127.5 50.5t127.5 -50.5t50.5 -127.5h538v-207h-202zM1639 834h-206v-207h206v207zM1231 834h-822v-207h822v207zM1231 1036v207h-822v-207h822zM1433 1036h206v207h-206v-207zM1639 421h-206v-202h206v202z
M1231 219v202h-822v-202h822zM409 1651v-202h822v202h-822zM1433 1651v-202h206v202h-206z" />
</svg>
