<?xml version="1.0" standalone="no"?>
<!DOCTYPE svg PUBLIC "-//W3C//DTD SVG 1.1//EN" "http://www.w3.org/Graphics/SVG/1.1/DTD/svg11.dtd" >
<svg xmlns="http://www.w3.org/2000/svg" xmlns:xlink="http://www.w3.org/1999/xlink" version="1.1" width="2048" height="2048" viewBox="-10 0 2068 2048">
   <path fill="currentColor"
d="M683 1141q0 139 98.5 237.5t242.5 98.5t242.5 -98.5t98.5 -237.5q0 -90 -48 -160q-32 -58 -181 -229l-112 -128l-101 117q-160 182 -192 240q-48 70 -48 160zM1936 1136q43 0 77.5 -32t34.5 -80t-34.5 -80t-77.5 -32h-117v-683h117q43 0 77.5 -34.5t34.5 -80t-34.5 -80
t-77.5 -34.5h-1824q-43 0 -77.5 34.5t-34.5 80t34.5 80t77.5 34.5h117v683h-117q-43 0 -77.5 32t-34.5 80t34.5 80t77.5 32h117v683h-117q-43 0 -77.5 34.5t-34.5 80t34.5 80t77.5 34.5h1824q43 0 77.5 -34.5t34.5 -80t-34.5 -80t-77.5 -34.5h-117v-683h117zM1595 1819
h-1142v-683q48 0 83 -32t35 -80t-35 -80t-83 -32v-683h1142v683q-48 0 -83 32t-35 80t35 80t83 32v683z" />
</svg>
