<?xml version="1.0" standalone="no"?>
<!DOCTYPE svg PUBLIC "-//W3C//DTD SVG 1.1//EN" "http://www.w3.org/Graphics/SVG/1.1/DTD/svg11.dtd" >
<svg xmlns="http://www.w3.org/2000/svg" xmlns:xlink="http://www.w3.org/1999/xlink" version="1.1" width="2048" height="2048" viewBox="-10 0 2068 2048">
   <path fill="currentColor"
d="M1435 695q-73 0 -130 50t-62 128l211 210q87 -4 135 -66t43 -137t-55 -130t-142 -55zM1339 1216l384 389v-5zM622 498l489 489zM1829 498h-83q-141 -96 -310.5 -96t-306.5 96h-260l256 256q45 -109 145.5 -162t212.5 -39t197 96t96 194t-41.5 213t-161.5 146l274 275
q73 -10 123.5 -64.5t50.5 -132.5v-585q0 -82 -57.5 -139.5t-134.5 -57.5zM1435 695q-73 0 -130 50t-62 128l211 210q87 -4 135 -66t43 -137t-55 -130t-142 -55zM1435 695q-73 0 -130 50t-62 128l211 210q87 -4 135 -66t43 -137t-55 -130t-142 -55zM2048 1925l-1925 -1925
l-123 123l375 375h-110q-78 0 -135 57.5t-57 139.5v585q0 82 57 139.5t135 57.5h101v96q0 41 27.5 68.5t68.5 27.5h196q37 0 66.5 -27.5t29.5 -68.5v-96h585v96q0 41 30 68.5t66 27.5h110l380 379zM658 1184h-393v-101h393v101zM658 987h-393v-96h393v96zM658 791h-393v-96
h302l91 87v9zM123 0l499 498zM622 498l489 489zM1723 1600v5l-384 -389zM622 498l-499 -498zM1111 987l-489 -489zM1723 1600v5l-384 -389z" />
</svg>
