<?xml version="1.0" standalone="no"?>
<!DOCTYPE svg PUBLIC "-//W3C//DTD SVG 1.1//EN" "http://www.w3.org/Graphics/SVG/1.1/DTD/svg11.dtd" >
<svg xmlns="http://www.w3.org/2000/svg" xmlns:xlink="http://www.w3.org/1999/xlink" version="1.1" width="2048" height="2048" viewBox="-10 0 2058 2048">
   <path fill="currentColor"
d="M1541 930q-175 0 -325.5 87.5t-238 238t-87.5 325.5q0 43 9 96h-847v-96l188 -184v-559q0 -218 128.5 -390.5t333.5 -233.5v-31q0 -74 55 -128.5t133.5 -54.5t133 54.5t54.5 128.5v31q205 61 334 233.5t129 390.5v92zM702 1769q0 78 55 132.5t133 54.5q53 0 101 -30
q-44 -66 -75 -157h-214zM1986 1703q18 13 5 31l-92 161q-4 13 -26 13l-118 -48q-48 31 -79 44l-17 127q-5 17 -22 17h-188q-22 0 -22 -17l-17 -127q-35 -13 -79 -44l-113 48q-27 0 -31 -13l-96 -161q-9 -18 9 -31l96 -74l-5 -48l5 -44l-96 -79q-18 -8 -9 -30l96 -157
q9 -18 31 -13l113 43l13 -4q40 -26 66 -35l17 -127q0 -17 22 -17h188q17 0 22 17l17 127q26 9 66 31l13 8l118 -43q17 -5 26 13l92 157q8 22 -5 30l-96 79v46v46zM1707 1581q0 -66 -48 -114t-116 -48t-116 48t-48 116t48 116t116 48t116 -48t48 -118z" />
</svg>
