<?xml version="1.0" standalone="no"?>
<!DOCTYPE svg PUBLIC "-//W3C//DTD SVG 1.1//EN" "http://www.w3.org/Graphics/SVG/1.1/DTD/svg11.dtd" >
<svg xmlns="http://www.w3.org/2000/svg" xmlns:xlink="http://www.w3.org/1999/xlink" version="1.1" width="2048" height="2048" viewBox="-10 0 2058 2048">
   <path fill="currentColor"
d="M1109 1124q-36 -58 -36 -125q0 -98 69 -167t168 -69h93q89 0 152 -49q27 -22 40 -49l5 89q-5 107 -23 196q-22 125 -80 197q-71 89 -187 89q-67 0 -125 -36q-54 139 -72 281q89 18 158.5 62.5t104.5 107.5q121 -85 194.5 -219t73.5 -290h286q0 246 -123 453.5t-330.5 330
t-452.5 122.5t-452.5 -122.5t-330.5 -330t-123 -453t123 -453t330.5 -330.5t452.5 -123v-236l379 379l-379 384v-241q-170 0 -310.5 85t-225 225.5t-84.5 309.5q0 156 73.5 290t194.5 219q40 -67 113.5 -111.5t171.5 -58.5q-13 -107 -49 -196q-49 49 -125 49t-131.5 -55.5
t-55.5 -136.5v-93q0 -81 -49 -143h67q80 4 147 18q93 26 147 71q67 58 67 147q0 40 -13 76q-81 -53 -130 -76q45 31 96 98t96 148q107 -259 286 -438q-103 67 -201 174z" />
</svg>
