<?xml version="1.0" standalone="no"?>
<!DOCTYPE svg PUBLIC "-//W3C//DTD SVG 1.1//EN" "http://www.w3.org/Graphics/SVG/1.1/DTD/svg11.dtd" >
<svg xmlns="http://www.w3.org/2000/svg" xmlns:xlink="http://www.w3.org/1999/xlink" version="1.1" width="2048" height="2048" viewBox="-10 0 2068 2048">
   <path fill="currentColor"
d="M1652 856q-44 -224 -220 -370t-408 -146q-180 0 -334 94t-234 250q-128 16 -232 86t-164 182t-60 244q0 136 68 254t186 188t258 70h1108q116 0 214 -58t156 -156t58 -214q0 -168 -114 -290t-282 -134zM808 772q48 0 84 34t36 84t-36 86t-86 36t-86 -36t-36 -86t36 -84
t88 -34zM1240 1448q-48 0 -84 -36t-36 -86t36 -86t86 -36t86 36t36 86t-36 86t-88 36zM784 1452l-100 -104l580 -580l100 104z" />
</svg>
