<?xml version="1.0" standalone="no"?>
<!DOCTYPE svg PUBLIC "-//W3C//DTD SVG 1.1//EN" "http://www.w3.org/Graphics/SVG/1.1/DTD/svg11.dtd" >
<svg xmlns="http://www.w3.org/2000/svg" xmlns:xlink="http://www.w3.org/1999/xlink" version="1.1" width="2048" height="2048" viewBox="-10 0 2068 2048">
   <path fill="currentColor"
d="M1155 948l120 -35v-83q0 -106 -77 -181t-183.5 -75t-184 74.5t-77.5 180.5v376q0 27 -18.5 45t-44.5 18t-44 -18t-18 -45v-159h-201v162q0 109 76.5 185t186.5 76q107 0 184 -75t77 -182v-373q0 -26 18.5 -44.5t44.5 -18.5q25 0 43 18.5t18 44.5v71zM1599 1208v-162h-200
v168q0 26 -18.5 44.5t-44.5 18.5q-25 0 -43 -18.5t-18 -44.5v-165l-120 35l-80 -37v164q0 107 77 182.5t185 75.5t185 -76t77 -185zM2048 1024.5q0 139.5 -36.5 272t-102.5 245t-160.5 207t-207 160.5t-245 102.5t-272 36.5t-272 -36.5t-245 -102.5t-207 -160.5t-160.5 -207
t-103 -245t-37 -272t37 -272t103 -245t160.5 -207t207 -160.5t245 -103t272 -37t272 37t245 103t207 160.5t160.5 207t102.5 245t36.5 272z" />
</svg>
