<?xml version="1.0" standalone="no"?>
<!DOCTYPE svg PUBLIC "-//W3C//DTD SVG 1.1//EN" "http://www.w3.org/Graphics/SVG/1.1/DTD/svg11.dtd" >
<svg xmlns="http://www.w3.org/2000/svg" xmlns:xlink="http://www.w3.org/1999/xlink" version="1.1" width="2048" height="2048" viewBox="-10 0 2068 2048">
   <path fill="currentColor"
d="M1335 1160h133v246l217 125l-75 117l-275 -159v-329zM1781 918q-8 -146 -108.5 -219t-256.5 -65t-319 96q-42 -54 -108 -79q37 -171 141 -221q80 -42 117.5 -113t16.5 -144t-100 -119q-88 -54 -230 -54q-154 0 -233 104q-75 100 -69 258.5t90 325.5q-55 38 -80 105
q-171 -38 -221 -142q-37 -80 -106 -115t-142 -16.5t-119 97.5q-54 88 -54 230q0 154 104 233q100 75 258.5 71t325.5 -92q29 42 105 80q-38 171 -142 225q-80 33 -115 104t-16.5 144t97.5 119q88 50 230 50q46 0 62 -8q88 129 223.5 202t294.5 73q171 0 312.5 -83.5
t225 -225t83.5 -312.5q0 -159 -73 -292.5t-194 -216.5zM893 801q37 0 62 25t25 64.5t-25 64.5t-64.5 25t-64.5 -25t-25 -64.5t25 -64.5t67 -25zM1427 1869q-126 0 -228 -58.5t-160.5 -161t-58.5 -225.5t58.5 -225t160.5 -160.5t225 -58.5t225.5 58.5t161 160.5t58.5 225
t-58.5 225.5t-161 161t-222.5 58.5z" />
</svg>
