<?xml version="1.0" standalone="no"?>
<!DOCTYPE svg PUBLIC "-//W3C//DTD SVG 1.1//EN" "http://www.w3.org/Graphics/SVG/1.1/DTD/svg11.dtd" >
<svg xmlns="http://www.w3.org/2000/svg" xmlns:xlink="http://www.w3.org/1999/xlink" version="1.1" width="2048" height="2048" viewBox="-10 0 2058 2048">
   <path fill="currentColor"
d="M884 1118l-279 -371h-559v1301h1860l-559 -742zM1024 1376l-607 205l-188 -66v-174l188 61l367 -123zM509 930l148 197l-240 78l-188 -61v-214h280zM229 1865v-153l188 65l843 -284l275 372h-1306zM1443 559v-467l-467 -92l-280 188v371l280 188zM884 284l131 -87l240 48
v187l-257 105l-114 -78v-175zM1583 651l-236 187v280l236 188l419 -188v-371zM1814 996l-205 91l-74 -56v-105l92 -74l187 43v101z" />
</svg>
