<?xml version="1.0" standalone="no"?>
<!DOCTYPE svg PUBLIC "-//W3C//DTD SVG 1.1//EN" "http://www.w3.org/Graphics/SVG/1.1/DTD/svg11.dtd" >
<svg xmlns="http://www.w3.org/2000/svg" xmlns:xlink="http://www.w3.org/1999/xlink" version="1.1" width="2048" height="2048" viewBox="-10 0 2068 2048">
   <path fill="currentColor"
d="M1819 0h-1590q-96 0 -162.5 66.5t-66.5 162.5v1590q0 96 66.5 162.5t162.5 66.5h1590q96 0 162.5 -66.5t66.5 -162.5v-1590q0 -96 -66.5 -162.5t-162.5 -66.5zM1819 1819h-1590v-1590h1590v1590zM1024 1707q187 0 344 -91t248 -248t91 -344t-91 -344t-248 -248t-344 -91
t-344 91t-248 248t-91 344t91 344t248 248t344 91zM939 1472q-91 -16 -171 -75l171 -170v245zM1109 1472v-240l171 171q-80 53 -171 69zM1403 1280l-171 -171h240q-16 91 -69 171zM1472 939h-240l171 -171q53 80 69 171zM1109 576q91 16 171 75l-171 170v-245zM1024 912
q48 0 80 32t32 80t-32 80t-80 32t-80 -32t-32 -80t32 -80t80 -32zM939 576v240l-171 -171q80 -53 171 -69zM645 768l171 171h-240q16 -91 69 -171zM816 1109l-171 171q-48 -75 -69 -171h240z" />
</svg>
