<?xml version="1.0" standalone="no"?>
<!DOCTYPE svg PUBLIC "-//W3C//DTD SVG 1.1//EN" "http://www.w3.org/Graphics/SVG/1.1/DTD/svg11.dtd" >
<svg xmlns="http://www.w3.org/2000/svg" xmlns:xlink="http://www.w3.org/1999/xlink" version="1.1" width="2048" height="2048" viewBox="-10 0 2068 2048">
   <path fill="currentColor"
d="M1708 340q68 0 118 50t50 122v852q0 72 -50 122t-118 50h340v172h-2048v-172h340q-68 0 -118 -50t-50 -122v-852q0 -72 50 -122t118 -50h1368zM1708 512h-1368v852h1368v-852zM1024 1024q140 0 240 50t100 122v84h-680v-84q0 -72 100 -122t240 -50zM1024 596q72 0 122 50
t50 122t-50 122t-122 50t-122 -50t-50 -122t50 -122t122 -50z" />
</svg>
