<?xml version="1.0" standalone="no"?>
<!DOCTYPE svg PUBLIC "-//W3C//DTD SVG 1.1//EN" "http://www.w3.org/Graphics/SVG/1.1/DTD/svg11.dtd" >
<svg xmlns="http://www.w3.org/2000/svg" xmlns:xlink="http://www.w3.org/1999/xlink" version="1.1" width="2048" height="2048" viewBox="-10 0 2058 2048">
   <path fill="currentColor"
d="M2001 1904l-1836 -1836l-118 118l170 174q-44 18 -44 57l-43 589q-9 139 47.5 268t170.5 216q-5 -131 39 -249l188 -528l109 110l-166 466q-61 162 -17.5 332t178.5 283q114 105 264.5 133.5t294.5 -19.5t244 -166l109 -122l292 292zM409 823l-48 -22l17 -279l118 117z
M836 1185l-43 -35l57 -157l82 83zM1334 997l336 -380q26 -30 63 -32t65.5 22t30.5 61t-24 67l-345 389zM1787 862q27 -31 64 -33t63 22t28 61t-19 63l-288 327l-127 -126zM1962 1180q26 22 28 59t-24 63l-152 179l-127 -126l144 -166q26 -31 63 -33t68 24zM1390 556
q22 -26 59 -28t65.5 22t30.5 61t-19 63l-245 275l-126 -126zM1028 692l214 -437q13 -35 50 -45.5t70 4.5t44 50t-2 70l-40 74q-43 18 -78 57l-227 257zM788 452l-135 -131l122 -253q18 -35 53 -46t67.5 4.5t45.5 50t-4 69.5zM841 508l222 -458q18 -35 53 -45.5t67.5 4.5
t45.5 50t-4 70l-253 510z" />
</svg>
