<?xml version="1.0" standalone="no"?>
<!DOCTYPE svg PUBLIC "-//W3C//DTD SVG 1.1//EN" "http://www.w3.org/Graphics/SVG/1.1/DTD/svg11.dtd" >
<svg xmlns="http://www.w3.org/2000/svg" xmlns:xlink="http://www.w3.org/1999/xlink" version="1.1" width="2048" height="2048" viewBox="-10 0 2068 2048">
   <path fill="currentColor"
d="M2048 1925l-1925 -1925l-123 123l142 147l-55 233l393 100l297 298l-279 109l517 133l137 132l-809 -201l-92 380l1440 361l234 233zM649 1454l-187 -46l45 -192l192 46zM1029 1550l-188 -51l46 -187l187 46zM1403 1641l-187 -46l46 -192l23 10l141 137zM1815 1445
l219 54l-32 133zM1435 1065l-160 -160l348 87zM905 407l-23 100l256 261l640 160l92 -379l-1267 -320l133 132zM1472 549l187 45l-45 192l-192 -45zM1093 453l187 50l-46 187l-187 -45z" />
</svg>
