<?xml version="1.0" standalone="no"?>
<!DOCTYPE svg PUBLIC "-//W3C//DTD SVG 1.1//EN" "http://www.w3.org/Graphics/SVG/1.1/DTD/svg11.dtd" >
<svg xmlns="http://www.w3.org/2000/svg" xmlns:xlink="http://www.w3.org/1999/xlink" version="1.1" width="2048" height="2048" viewBox="-10 0 2068 2048">
   <path fill="currentColor"
d="M1819 0h-1590q-96 0 -162.5 66.5t-66.5 162.5v1590q0 96 66.5 162.5t162.5 66.5h1590q96 0 162.5 -66.5t66.5 -162.5v-1590q0 -96 -66.5 -162.5t-162.5 -66.5zM1109 464q144 21 251 107l-251 245v-352zM939 464v352l-251 -245q107 -86 251 -107zM571 688l245 251h-352
q21 -144 107 -251zM464 1109h352l-245 251q-86 -107 -107 -251zM939 1584q-144 -21 -251 -107l251 -245v352zM1024 1136q-48 0 -80 -32t-32 -80t32 -80t80 -32t80 32t32 80t-32 80t-80 32zM1109 1584v-352l251 245q-107 86 -251 107zM1477 1360l-245 -251h352
q-21 144 -107 251zM1232 939l245 -251q86 107 107 251h-352z" />
</svg>
