<?xml version="1.0" standalone="no"?>
<!DOCTYPE svg PUBLIC "-//W3C//DTD SVG 1.1//EN" "http://www.w3.org/Graphics/SVG/1.1/DTD/svg11.dtd" >
<svg xmlns="http://www.w3.org/2000/svg" xmlns:xlink="http://www.w3.org/1999/xlink" version="1.1" width="2048" height="2048" viewBox="-10 0 2058 2048">
   <path fill="currentColor"
d="M423 1947q0 43 31.5 72t69.5 29h413q39 0 70 -29t31 -72v-101h-615v101zM1139 1466v72q0 39 -28.5 70t-72.5 31h-615q-43 0 -72 -31t-29 -70v-235q-144 -96 -226 -252.5t-82 -334.5q0 -197 96.5 -360.5t260 -259.5t360.5 -96q250 0 447 154q-202 82 -324.5 262
t-122.5 401q0 212 113 387.5t295 261.5zM1952 812l-144 -91l-145 96l44 -168l-140 -106l173 -9l58 -169l67 164l169 5l-130 110zM1798 1125q-96 115 -233 153.5t-274 -2t-229 -156.5q-110 -139 -105 -310t110.5 -303t278.5 -166q29 -4 46 17.5t7 45.5q-38 101 -28.5 209
t64.5 204t141.5 156.5t192.5 74.5q24 5 33.5 31.5t-4.5 45.5z" />
</svg>
