<?xml version="1.0" standalone="no"?>
<!DOCTYPE svg PUBLIC "-//W3C//DTD SVG 1.1//EN" "http://www.w3.org/Graphics/SVG/1.1/DTD/svg11.dtd" >
<svg xmlns="http://www.w3.org/2000/svg" xmlns:xlink="http://www.w3.org/1999/xlink" version="1.1" width="2048" height="2048" viewBox="-10 0 2058 2048">
   <path fill="currentColor"
d="M423 1846h615v101q0 43 -31 72t-70 29h-413q-38 0 -69.5 -29t-31.5 -72v-101zM937 1322v111h-413v-246q-135 -62 -221.5 -189.5t-86.5 -281.5q0 -139 70 -257t187.5 -187.5t252.5 -69.5t255 72q81 -72 197 -120q-197 -154 -447 -154q-197 0 -360.5 96t-260 259.5
t-96.5 360.5q0 178 82 334.5t226 252.5v235q0 39 29 70t72 31h615q44 0 72.5 -31t28.5 -70v-72q-120 -57 -202 -144zM1952 812l-48 -168l130 -110l-169 -5l-67 -164l-58 169l-173 9l140 106l-44 168l145 -96zM1769 1048q-106 -14 -192.5 -74.5t-141.5 -156.5t-64.5 -204
t28.5 -209q10 -24 -7 -45.5t-46 -17.5q-173 34 -278.5 166t-110.5 303t105 310q92 116 229 156.5t274 2t233 -153.5q14 -19 4.5 -45.5t-33.5 -31.5z" />
</svg>
