<?xml version="1.0" standalone="no"?>
<!DOCTYPE svg PUBLIC "-//W3C//DTD SVG 1.1//EN" "http://www.w3.org/Graphics/SVG/1.1/DTD/svg11.dtd" >
<svg xmlns="http://www.w3.org/2000/svg" xmlns:xlink="http://www.w3.org/1999/xlink" version="1.1" width="2048" height="2048" viewBox="-10 0 2058 2048">
   <path fill="currentColor"
d="M1433 202h-101v-202h-207v202h-202v-202h-207v202h-101q-173 0 -293 120t-120 293v1024q0 169 120 289t293 120h818q173 0 293 -120t120 -289v-1024q0 -173 -120 -293t-293 -120zM1639 1639q0 87 -60 147t-146 60h-818q-86 0 -146 -60t-60 -147v-1024q0 -86 60 -146
t146 -60h818q86 0 146 60t60 146v1024zM769 1389q0 101 74.5 175.5t180.5 74.5t180.5 -74.5t74.5 -175.5q0 -67 -34 -125q-24 -38 -134 -168l-87 -96l-82 91q-115 135 -139 173q-34 58 -34 125zM615 615h818v202h-818v-202z" />
</svg>
