<?xml version="1.0" standalone="no"?>
<!DOCTYPE svg PUBLIC "-//W3C//DTD SVG 1.1//EN" "http://www.w3.org/Graphics/SVG/1.1/DTD/svg11.dtd" >
<svg xmlns="http://www.w3.org/2000/svg" xmlns:xlink="http://www.w3.org/1999/xlink" version="1.1" width="2048" height="2048" viewBox="-10 0 2058 2048">
   <path fill="currentColor"
d="M741 0v683h-682v224h682v682h224v-682h683v-224h-683v-683h-224zM1648 1136q-91 0 -163 61.5t-72 146.5v208q-42 0 -74 29.5t-32 66.5v288q0 43 32 77.5t74 34.5h470q42 0 74 -32t32 -69v-288q0 -43 -32 -75t-69 -32h-368v-208q0 -48 37.5 -77.5t90.5 -29.5t90.5 29.5
t37.5 77.5v43h112v-43q0 -85 -72 -146.5t-168 -61.5z" />
</svg>
