<?xml version="1.0" standalone="no"?>
<!DOCTYPE svg PUBLIC "-//W3C//DTD SVG 1.1//EN" "http://www.w3.org/Graphics/SVG/1.1/DTD/svg11.dtd" >
<svg xmlns="http://www.w3.org/2000/svg" xmlns:xlink="http://www.w3.org/1999/xlink" version="1.1" width="2048" height="2048" viewBox="-10 0 2058 2048">
   <path fill="currentColor"
d="M1893 1440v-53q0 -102 -72 -176.5t-173 -74.5t-170.5 74.5t-69.5 176.5v53q-48 0 -74.5 26.5t-26.5 74.5v406q0 42 26.5 71.5t74.5 29.5h485q43 0 69.5 -29.5t26.5 -71.5v-406q0 -48 -26.5 -74.5t-69.5 -26.5zM1797 1440h-293v-53q0 -59 42.5 -104.5t101.5 -45.5
t104 45.5t45 104.5v53zM741 0v683h-682v224h682v682h224v-682h683v-224h-683v-683h-224z" />
</svg>
