<?xml version="1.0" standalone="no"?>
<!DOCTYPE svg PUBLIC "-//W3C//DTD SVG 1.1//EN" "http://www.w3.org/Graphics/SVG/1.1/DTD/svg11.dtd" >
<svg xmlns="http://www.w3.org/2000/svg" xmlns:xlink="http://www.w3.org/1999/xlink" version="1.1" width="2048" height="2048" viewBox="-10 0 2068 2048">
   <path fill="currentColor"
d="M1742 462q-82 0 -141.5 59.5t-59.5 146.5v693q-105 101 -105 227.5t88.5 215t220 88.5t217.5 -88.5t86 -217.5q0 -67 -26.5 -126.5t-73.5 -98.5v-693q0 -87 -60 -146.5t-146 -59.5zM1742 562q43 0 74 29t31 77v100h-206v-100q0 -48 31 -77t70 -29zM1335 1921
q-163 72 -278 72q-71 0 -162 -34q-58 -14 -172.5 -66.5t-172.5 -71.5q-95 -34 -177 -34q-143 0 -373 72v-201q230 -72 388 -72q71 0 162 29q58 19 172.5 69.5t172.5 74.5q96 28 177 28q115 0 273 -72v206h-10zM1057 1586q115 0 278 -72v-205q-91 38 -206 71v-1019
q0 -48 29 -76.5t77 -28.5h282q-29 -91 -108 -146t-174 -55q-134 0 -220.5 86t-86.5 220v101h-512v-101q0 -48 29 -76.5t72 -28.5h287q-29 -91 -108 -146t-179 -55q-129 0 -217.5 86t-88.5 220v838q-91 9 -201 57v206q196 -82 378 -82q71 0 167 34q57 19 167.5 69.5
t167.5 69.5q96 33 167 33zM416 668h512v200h-512v-200zM416 1074h512v287q-71 -24 -210 -81q-101 -48 -149 -67q-86 -29 -153 -38v-101z" />
</svg>
