<?xml version="1.0" standalone="no"?>
<!DOCTYPE svg PUBLIC "-//W3C//DTD SVG 1.1//EN" "http://www.w3.org/Graphics/SVG/1.1/DTD/svg11.dtd" >
<svg xmlns="http://www.w3.org/2000/svg" xmlns:xlink="http://www.w3.org/1999/xlink" version="1.1" width="2048" height="2048" viewBox="-10 0 2058 2048">
   <path fill="currentColor"
d="M1531 1310q-25 -15 -84 -84q128 -177 202 -369q109 -271 109 -542q0 -153 -54.5 -234t-152.5 -81q-89 0 -190 74t-189 207q-94 152 -148 344q-54 -192 -148 -344q-88 -133 -189 -207t-190 -74q-98 0 -152.5 81t-54.5 234q0 271 109 542q74 192 202 369q-59 69 -84 84
l-5 4q-69 60 -103 114q-69 93 -69 197q0 177 123 300t300 123q99 0 192 -30q44 -14 69 -29v0l30 15q44 14 93 29q69 15 138 15q177 0 300 -123t123 -300q0 -104 -69 -197q-34 -54 -103 -114zM743 1068q-98 -147 -162 -315q-84 -221 -84 -438q0 -69 15 -103q59 19 133 108
q89 108 143 261q74 197 78 433q-68 20 -123 54zM866 1546q-19 0 -36.5 -22t-17.5 -54t17.5 -57t37 -25t37 25t17.5 57t-17.5 54t-37.5 22zM1024 1836q-39 0 -71 -39t-32 -64t29.5 -39.5t73.5 -14.5t73.5 14.5t29.5 39.5t-32 64t-71 39zM1182 1546q-20 0 -37.5 -22t-17.5 -54
t17.5 -57t37 -25t37 25t17.5 57t-17.5 54t-36.5 22zM1182 1014q4 -236 78 -433q54 -153 143 -261q74 -89 133 -108q15 34 15 103q0 217 -84 438q-64 168 -162 315q-55 -34 -123 -54z" />
</svg>
