<?xml version="1.0" standalone="no"?>
<!DOCTYPE svg PUBLIC "-//W3C//DTD SVG 1.1//EN" "http://www.w3.org/Graphics/SVG/1.1/DTD/svg11.dtd" >
<svg xmlns="http://www.w3.org/2000/svg" xmlns:xlink="http://www.w3.org/1999/xlink" version="1.1" width="2048" height="2048" viewBox="-10 0 2058 2048">
   <path fill="currentColor"
d="M1511 1266v293h-293v196h293v293h196v-293h293v-196h-293v-293h-196zM1049 1824l-123 123l-147 -146l-146 146l-146 -146l-146 146l-147 -146l-146 146v-1947l146 146l147 -146l146 146l146 -146l146 146l147 -146l146 146l146 -146l147 146l146 -146l146 146l146 -146
v1106q-96 -36 -196 -36v-787h-1362v1381h777q0 78 27 160zM1173 1266q-78 83 -115 197h-717v-197h832zM341 878h1170v192h-1170v-192zM341 485h1170v196h-1170v-196z" />
</svg>
