<?xml version="1.0" standalone="no"?>
<!DOCTYPE svg PUBLIC "-//W3C//DTD SVG 1.1//EN" "http://www.w3.org/Graphics/SVG/1.1/DTD/svg11.dtd" >
<svg xmlns="http://www.w3.org/2000/svg" xmlns:xlink="http://www.w3.org/1999/xlink" version="1.1" width="2048" height="2048" viewBox="-10 0 2067 2048">
   <path fill="currentColor"
d="M1531 217q131 0 182 11q35 414 -76 743q101 0 217 45q51 -166 71 -359q20 -156 15 -318q-5 -111 -20 -223l-10 -86l-106 -15q-132 -15 -273 -15q-390 0 -693 121q-425 167 -637 546q-258 476 -182 1255q237 20 349 20q359 0 647 -91q-46 -111 -46 -213q-257 86 -601 86
h-142q-35 -763 303 -1132q183 -208 486 -304q233 -71 516 -71zM1510 430q-303 0 -525 116q-193 91 -324 263q-101 142 -162 324q-45 126 -61 263l-10 116q122 -243 278 -445q137 -172 289 -308q126 -112 258 -198q96 -60 187 -101zM1510 1512h-323v212h323v324h213v-324h324
v-212h-324v-324h-213v324z" />
</svg>
