<?xml version="1.0" standalone="no"?>
<!DOCTYPE svg PUBLIC "-//W3C//DTD SVG 1.1//EN" "http://www.w3.org/Graphics/SVG/1.1/DTD/svg11.dtd" >
<svg xmlns="http://www.w3.org/2000/svg" xmlns:xlink="http://www.w3.org/1999/xlink" version="1.1" width="2048" height="2048" viewBox="-10 0 2058 2048">
   <path fill="currentColor"
d="M1538 1231q-19 -20 -52 -58l-15 -19q111 -173 178 -356q91 -245 91 -490q0 -149 -52.5 -228.5t-149.5 -79.5q-86 0 -184.5 72t-185.5 202q-91 149 -144 337q-53 -188 -144 -337q-87 -130 -185.5 -202t-184.5 -72q-97 0 -149.5 79.5t-52.5 228.5q0 245 91 490
q67 183 178 356l-15 19q-33 38 -52 58l-15 14q-72 58 -115 116q-72 105 -72 225q0 193 134.5 327.5t326.5 134.5q68 0 135 -10q48 -9 86 -28l34 -10l34 10q38 19 86 28q67 10 135 10q192 0 326.5 -134.5t134.5 -327.5q0 -120 -72 -225q-43 -58 -115 -116zM1524 207
q14 33 14 101q0 197 -72 394q-53 154 -139 298q-58 -43 -144 -63q9 -211 77 -389q57 -144 139 -240q72 -82 125 -101zM510 308q0 -68 14 -101q53 19 125 101q82 96 139 240q68 178 82 389q-91 20 -144 63q-91 -144 -144 -298q-72 -197 -72 -394zM1279 1846q-120 0 -226 -58
q29 -14 50.5 -45.5t21.5 -53t-29 -36t-72 -14.5t-72 14.5t-29 36t21.5 53t50.5 45.5q-106 58 -226 58q-106 0 -182.5 -77t-76.5 -183q0 -86 105 -177q58 -44 130 -140l5 -5q67 -81 106 -105q57 -34 168 -34t168 34q39 24 106 105l5 5q72 96 130 140q105 91 105 177
q0 106 -76.5 183t-182.5 77zM1231 1433q0 33 -17 55t-36 22t-36 -22t-17 -53t17 -55t36 -24t36 24t17 53zM923 1433q0 33 -17 55t-36 22t-36 -22t-17 -53t17 -55t36 -24t36 24t17 53z" />
</svg>
