<?xml version="1.0" standalone="no"?>
<!DOCTYPE svg PUBLIC "-//W3C//DTD SVG 1.1//EN" "http://www.w3.org/Graphics/SVG/1.1/DTD/svg11.dtd" >
<svg xmlns="http://www.w3.org/2000/svg" xmlns:xlink="http://www.w3.org/1999/xlink" version="1.1" width="2048" height="2048" viewBox="-10 0 2068 2048">
   <path fill="currentColor"
d="M1228 1638v206h820v-206h-820zM1050 1916l-129 130l-154 -154l-153 154l-154 -154l-153 154l-154 -154l-153 154v-2044l153 154l154 -154l153 154l154 -154l153 154l154 -154l153 154l154 -154l153 154l154 -154l153 154l154 -154v1161q-101 -38 -206 -38v-825h-1430
v1448h816q0 82 28 168zM1180 1331q-82 86 -120 206h-753v-206h873zM307 923h1228v202h-1228v-202zM307 511h1228v206h-1228v-206z" />
</svg>
