<?xml version="1.0" standalone="no"?>
<!DOCTYPE svg PUBLIC "-//W3C//DTD SVG 1.1//EN" "http://www.w3.org/Graphics/SVG/1.1/DTD/svg11.dtd" >
<svg xmlns="http://www.w3.org/2000/svg" xmlns:xlink="http://www.w3.org/1999/xlink" version="1.1" width="2048" height="2048" viewBox="-10 0 2068 2048">
   <path fill="currentColor"
d="M1228 1638v206h820v-206h-820zM1688 156l-153 -154l-154 154l-153 -154l-154 154l-153 -154l-154 154l-153 -154l-154 154l-153 -154l-154 154l-153 -154v2044l153 -154l154 154l153 -154l154 154l153 -154l154 154l129 -130q-28 -86 -28 -177q0 -101 38 -202h-753v-206
h873q86 -96 206 -151t250 -55q105 0 206 38v-1161zM1535 1125h-1228v-202h1228v202zM1535 717h-1228v-206h1228v206z" />
</svg>
