<?xml version="1.0" standalone="no"?>
<!DOCTYPE svg PUBLIC "-//W3C//DTD SVG 1.1//EN" "http://www.w3.org/Graphics/SVG/1.1/DTD/svg11.dtd" >
<svg xmlns="http://www.w3.org/2000/svg" xmlns:xlink="http://www.w3.org/1999/xlink" version="1.1" width="2048" height="2048" viewBox="-10 0 2058 2048">
   <path fill="currentColor"
d="M1628 1637q60 -95 64.5 -204t-47 -207.5t-146 -156.5t-203.5 -62t-205.5 47t-156.5 145.5t-64.5 203.5t45 205.5t148 158.5t216.5 62t216 -64l287 283l129 -129zM1281 1645q-94 0 -162.5 -66.5t-68.5 -160.5t68.5 -160.5t162.5 -66.5t160.5 66.5t66.5 160.5t-66.5 160.5
t-160.5 66.5zM780 1740h-459v-1097h1277v274q116 73 184 184v-458q0 -77 -53.5 -131t-130.5 -54h-180q0 -124 -62 -229t-167 -167t-229.5 -62t-229 62t-167 167t-62.5 229h-180q-77 0 -130.5 54t-53.5 131v1097q0 72 53.5 125.5t130.5 53.5h643q-111 -68 -184 -179zM960 184
q115 0 194.5 79.5t79.5 194.5h-548q0 -115 79 -194.5t195 -79.5zM1234 733h184q0 51 -13 107q-60 -17 -124 -17q-43 0 -64 4q17 -47 17 -94zM754 1140q-116 -56 -184.5 -165.5t-68.5 -241.5h185q0 90 51 160.5t133 96.5q-73 68 -116 150z" />
</svg>
