<?xml version="1.0" standalone="no"?>
<!DOCTYPE svg PUBLIC "-//W3C//DTD SVG 1.1//EN" "http://www.w3.org/Graphics/SVG/1.1/DTD/svg11.dtd" >
<svg xmlns="http://www.w3.org/2000/svg" xmlns:xlink="http://www.w3.org/1999/xlink" version="1.1" width="2048" height="2048" viewBox="-10 0 2068 2048">
   <path fill="currentColor"
d="M328 410h204v983h-532v-697h328v-286zM328 1229v-369h-123v369h123zM614 696v697h205v-697h-205zM614 410v204h205v-204h-205zM901 696h533v942h-533v-163h328v-82h-328v-697zM1229 1229v-369h-123v369h123zM1516 696h532v942h-532v-163h326v-82h-326v-697zM1842 1229
v-369h-122v369h122z" />
</svg>
