<?xml version="1.0" standalone="no"?>
<!DOCTYPE svg PUBLIC "-//W3C//DTD SVG 1.1//EN" "http://www.w3.org/Graphics/SVG/1.1/DTD/svg11.dtd" >
<svg xmlns="http://www.w3.org/2000/svg" xmlns:xlink="http://www.w3.org/1999/xlink" version="1.1" width="2048" height="2048" viewBox="-10 0 2058 2048">
   <path fill="currentColor"
d="M869 1124v-817q0 -129 -89 -218t-216.5 -89t-218.5 89t-91 218v817q-111 87 -163.5 211.5t-36 259t98.5 247.5t209 166t261.5 36t247.5 -98.5t166 -209t36 -262t-99 -244.5q-43 -63 -105 -106zM561 202q44 0 75 31t31 74v308h-207v-308q0 -43 31.5 -74t69.5 -31z
M1512 1345l-283 -307l120 -116l163 164l365 -370l121 144z" />
</svg>
