<?xml version="1.0" standalone="no"?>
<!DOCTYPE svg PUBLIC "-//W3C//DTD SVG 1.1//EN" "http://www.w3.org/Graphics/SVG/1.1/DTD/svg11.dtd" >
<svg xmlns="http://www.w3.org/2000/svg" xmlns:xlink="http://www.w3.org/1999/xlink" version="1.1" width="2048" height="2048" viewBox="-10 0 2068 2048">
   <path fill="currentColor"
d="M1322 776l-330 -199v-216l163 -163l-136 -135l-126 122l-122 -122l-135 135l162 163v216l-239 140l-194 -108l-54 -226l-185 50l45 171l-171 46l50 185l225 -59l190 108v280l-190 108l-225 -59l-50 185l171 46l-45 171l185 50l59 -226l194 -108l234 140v216l-162 163
l135 135l122 -122l126 122l136 -135l-163 -163v-216l330 -194v-501zM654 884l239 -140l244 140v280l-244 140l-239 -140v-280zM1759 352q-76 0 -132.5 56.5t-56.5 132.5v654q-99 86 -99 212q0 122 85.5 205.5t205 83.5t203 -83.5t83.5 -205.5q0 -130 -95 -212v-654
q0 -76 -56.5 -132.5t-137.5 -56.5zM1759 447q41 0 70.5 29t29.5 65v100h-194v-100q0 -36 29 -65t65 -29z" />
</svg>
