<?xml version="1.0" standalone="no"?>
<!DOCTYPE svg PUBLIC "-//W3C//DTD SVG 1.1//EN" "http://www.w3.org/Graphics/SVG/1.1/DTD/svg11.dtd" >
<svg xmlns="http://www.w3.org/2000/svg" xmlns:xlink="http://www.w3.org/1999/xlink" version="1.1" width="2048" height="2048" viewBox="-10 0 2058 2048">
   <path fill="currentColor"
d="M1529 771l140 -305l-379 -39q87 74 139 179q35 74 66 157q-96 -18 -162 -18h-34q-57 -126 -170.5 -202.5t-257.5 -76.5q-130 0 -237 61t-168 168t-61 237q0 144 76.5 257.5t202.5 170.5v34q0 179 87 329.5t235.5 237.5t327 87t329 -87t237.5 -237.5t87 -329.5
q0 -213 -128.5 -385t-329.5 -238zM1333 1861q-126 0 -233 -61t-168 -168t-61 -235.5t61 -235t168 -168t235.5 -61.5t235.5 61.5t168 168t61 235t-61 235.5t-168 168t-238 61zM1381 1416l270 157l-74 109l-335 -192v-466h139v392zM871 279q-74 0 -226 39l226 -318l223 318
q-148 -39 -223 -39zM305 1255q57 100 148 179l-383 -40l170 -353q13 131 65 214zM227 819l-166 -353l392 -26q-74 57 -148 166q-61 104 -78 213z" />
</svg>
