<?xml version="1.0" standalone="no"?>
<!DOCTYPE svg PUBLIC "-//W3C//DTD SVG 1.1//EN" "http://www.w3.org/Graphics/SVG/1.1/DTD/svg11.dtd" >
<svg xmlns="http://www.w3.org/2000/svg" xmlns:xlink="http://www.w3.org/1999/xlink" version="1.1" width="2048" height="2048" viewBox="-10 0 2068 2048">
   <path fill="currentColor"
d="M1395 1189q0 85 -50.5 145.5t-121.5 60.5q-56 0 -93 -20v-369q37 -23 93 -23q71 0 121.5 60t50.5 146zM937 618q0 86 -50.5 146.5t-120.5 60.5q-56 0 -94 -20v-369q38 -23 94 -23q70 0 120.5 60.5t50.5 144.5zM1687 1193.5q0 -117.5 -53.5 -217t-146 -157.5t-201.5 -58
q-18 0 -53 5q-29 101 -103 180q-56 62 -129 96.5t-153 39.5v848l282 -55v-275q68 26 156 26q109 0 201.5 -58t146 -157.5t53.5 -217zM1230 624.5q0 -117.5 -54 -217.5t-146.5 -158t-202.5 -58q-96 0 -189 49h-247v1121l281 -55v-276q74 26 155 26q110 0 202.5 -57.5
t146.5 -157t54 -217zM2048 384v1280q0 105 -51.5 193t-139.5 139.5t-193 51.5h-1280q-105 0 -193 -51.5t-139.5 -139.5t-51.5 -193v-1280q0 -105 51.5 -193t139.5 -139.5t193 -51.5h1280q105 0 193 51.5t139.5 139.5t51.5 193z" />
</svg>
