<?xml version="1.0" standalone="no"?>
<!DOCTYPE svg PUBLIC "-//W3C//DTD SVG 1.1//EN" "http://www.w3.org/Graphics/SVG/1.1/DTD/svg11.dtd" >
<svg xmlns="http://www.w3.org/2000/svg" xmlns:xlink="http://www.w3.org/1999/xlink" version="1.1" width="2048" height="2048" viewBox="-10 0 2058 2048">
   <path fill="currentColor"
d="M1073 192q0 -80 56 -136t134 -56t133.5 56t55.5 134t-55.5 133.5t-133.5 55.5t-134 -55.5t-56 -131.5zM484 1669l-107 -139l-116 90l228 290q75 93 178 134q40 13 71 -14q23 -18 27.5 -47t-18.5 -55q-13 -14 -26 -18q-67 -27 -112 -81l-9 -9l330 -232l85 -303l201 192
v428h-192v143h370q121 0 215 -58q35 -22 35 -62q0 -27 -22 -49.5t-54 -22.5q-17 0 -35 9q-58 36 -130 40v-571l-201 -192l58 -285q94 111 232.5 173.5t294.5 62.5v-187q-134 0 -243.5 -65t-167.5 -167l-98 -152q-62 -94 -160 -94q-40 0 -116 27q-54 22 -277 116l-178 76v446
h191v-326l170 -66l-152 776z" />
</svg>
