<?xml version="1.0" standalone="no"?>
<!DOCTYPE svg PUBLIC "-//W3C//DTD SVG 1.1//EN" "http://www.w3.org/Graphics/SVG/1.1/DTD/svg11.dtd" >
<svg xmlns="http://www.w3.org/2000/svg" xmlns:xlink="http://www.w3.org/1999/xlink" version="1.1" width="2048" height="2048" viewBox="-10 0 2058 2048">
   <path fill="currentColor"
d="M1527 776l144 -310l-383 -35q82 74 143 175q40 69 61 161q-78 -22 -161 -22h-39q-52 -126 -167.5 -202.5t-255.5 -76.5q-126 0 -233 63.5t-170 170t-63 232.5q0 140 76.5 255.5t202.5 167.5v39q0 179 87 329.5t237.5 237.5t327 87t327 -87t237.5 -237.5t87 -329.5
q0 -213 -128.5 -385t-329.5 -233zM590 932q0 -117 81 -197.5t198 -80.5q74 0 137.5 34.5t98.5 100.5q-131 48 -231.5 148t-147.5 231q-66 -35 -101 -98t-35 -138zM1331 1861q-126 0 -233 -63.5t-168 -170t-61 -233t61 -233t168 -168t233.5 -61.5t233 61.5t169.5 168t63 233
t-63 233t-169.5 170t-233.5 63.5zM1379 1421l266 156l-70 114l-335 -201v-466h139v397zM869 279q-117 0 -222 39l222 -318l223 318q-109 -39 -223 -39zM307 1255q52 100 144 174l-388 -35l166 -348q22 113 78 209zM229 819l-166 -353l388 -30q-92 74 -148.5 170t-73.5 213z
" />
</svg>
