<?xml version="1.0" standalone="no"?>
<!DOCTYPE svg PUBLIC "-//W3C//DTD SVG 1.1//EN" "http://www.w3.org/Graphics/SVG/1.1/DTD/svg11.dtd" >
<svg xmlns="http://www.w3.org/2000/svg" xmlns:xlink="http://www.w3.org/1999/xlink" version="1.1" width="2048" height="2048" viewBox="-10 0 2068 2048">
   <path fill="currentColor"
d="M701 492v202h-701v-202h701zM701 996v197h-701v-197h701zM1605 1495v202h-1605v-202h1605zM1737 1043q71 -104 71 -240q0 -189 -132 -320.5t-320 -131.5t-320 131.5t-132 320t132 320.5t320 132q127 0 235 -66l316 306l141 -137zM1356 1057q-104 0 -179 -73t-75 -179
t75 -179t178.5 -73t176.5 73t73 176.5t-73 179t-176 75.5z" />
</svg>
