<?xml version="1.0" standalone="no"?>
<!DOCTYPE svg PUBLIC "-//W3C//DTD SVG 1.1//EN" "http://www.w3.org/Graphics/SVG/1.1/DTD/svg11.dtd" >
<svg xmlns="http://www.w3.org/2000/svg" xmlns:xlink="http://www.w3.org/1999/xlink" version="1.1" width="2048" height="2048" viewBox="-10 0 2068 2048">
   <path fill="currentColor"
d="M286 142h571v192h-571v-192zM0 522h477v191h-477v-191zM192 1664h477v191h-477v-191zM1213 865q107 36 148 138l406 -673q49 -76 26.5 -163t-98.5 -136q-62 -36 -136 -29t-123 56l-330 307q-58 54 -58 139v370q85 -31 165 -9zM914 1026q23 -76 85 -121h-780
q-94 0 -156.5 62.5t-62.5 151.5q0 76 44.5 134t116.5 76l428 125q80 22 147 -22l259 -152q-58 -45 -80.5 -114t-0.5 -140zM2021 1628l-219 -393q-40 -67 -120 -89l-299 -76q0 63 -13 94q-23 76 -85.5 122.5t-142.5 46.5q-36 0 -67 -13l-27 -9v544q-80 0 -135.5 56t-55.5 136
h571q0 -80 -56 -136t-132 -56v-406l437 438q63 62 152 62t156 -62q49 -54 60 -125.5t-24 -133.5zM1102 1231q58 18 109 -11t69 -85t-11 -109.5t-84.5 -69t-109 11t-69.5 84.5t11 109.5t85 69.5z" />
</svg>
