<?xml version="1.0" standalone="no"?>
<!DOCTYPE svg PUBLIC "-//W3C//DTD SVG 1.1//EN" "http://www.w3.org/Graphics/SVG/1.1/DTD/svg11.dtd" >
<svg xmlns="http://www.w3.org/2000/svg" xmlns:xlink="http://www.w3.org/1999/xlink" version="1.1" width="2048" height="2048" viewBox="-10 0 2068 2048">
   <path fill="currentColor"
d="M1707 1601q-231 168 -438 130q-110 -20 -226 -116l-19 -14l-19 14q-120 96 -231 116q-207 38 -433 -130q-129 91 -216 125q-53 14 -120 14h-5v207q178 0 341 -96q159 96 341.5 96t341.5 -96q159 96 341.5 96t341.5 -96q163 96 341 96v-207q-72 0 -125 -14
q-91 -34 -216 -125zM1774 1024h274v-207h-274q-139 0 -240 -98.5t-101 -242.5q0 -63 24 -130q14 -43 67 -159l24 -52l-48 -5q-173 -29 -269 -29q-337 0 -615.5 156t-444.5 425.5t-171 596.5v207q178 0 341 -97q159 97 341.5 97t341.5 -97q159 97 341.5 97t341.5 -97
q163 97 341 97v-207q-72 0 -125 -15q-91 -33 -216 -125q-231 169 -438 130q-110 -19 -226 -115l-19 -15l-77 53l-14 15q-116 -154 -116 -337q0 -197 122.5 -348.5t310.5 -199.5q-19 87 -19 154q0 149 72 274t199.5 199.5t271.5 74.5z" />
</svg>
