<?xml version="1.0" standalone="no"?>
<!DOCTYPE svg PUBLIC "-//W3C//DTD SVG 1.1//EN" "http://www.w3.org/Graphics/SVG/1.1/DTD/svg11.dtd" >
<svg xmlns="http://www.w3.org/2000/svg" xmlns:xlink="http://www.w3.org/1999/xlink" version="1.1" width="2048" height="2048" viewBox="-10 0 2068 2048">
   <path fill="currentColor"
d="M286 143h571v192h-571v-192zM0 522h477v192h-477v-192zM192 1664h477v192h-477v-192zM2021 1628l-219 -392q-40 -67 -120 -89l-254 -63q-5 -71 -36 -129l375 -625q49 -80 26.5 -167t-98.5 -132q-49 -31 -111 -31q-85 0 -148 58l-330 308q-58 54 -58 138v321
q-67 27 -116 81h-713q-94 0 -156.5 62.5t-62.5 151.5q0 76 44.5 134t116.5 76l428 124q27 5 49 5q53 0 98 -27l219 -129q40 40 93 58v495q-80 0 -135.5 55.5t-55.5 136.5h571q0 -81 -56 -136.5t-132 -55.5v-406l437 437q63 63 154.5 63t153.5 -63q49 -53 60 -124.5
t-24 -134.5zM642 1272l-432 -125q-18 -9 -18 -22.5t9 -22.5t18 -9h638q0 31 4 45zM1142 1191q-36 0 -65 -29t-29 -67t29 -67t67 -29t67 29t29 67t-29 67t-69 29zM1240 821v-317l326 -308q13 -13 31 -4q9 9 11 18t-2 18l-357 597zM1851 1753q-9 5 -20 7t-20 -7l-459 -464
l22 -22l263 67l219 388q9 14 -5 31z" />
</svg>
