<?xml version="1.0" standalone="no"?>
<!DOCTYPE svg PUBLIC "-//W3C//DTD SVG 1.1//EN" "http://www.w3.org/Graphics/SVG/1.1/DTD/svg11.dtd" >
<svg xmlns="http://www.w3.org/2000/svg" xmlns:xlink="http://www.w3.org/1999/xlink" version="1.1" width="2048" height="2048" viewBox="-10 0 2058 2048">
   <path fill="currentColor"
d="M1219 1507l141 192q-81 157 -235 253t-333.5 96t-328.5 -86t-237.5 -235t-88.5 -326q0 -192 106 -351.5t278 -235.5l25 233q-91 60 -141.5 154t-50.5 200q0 177 126.5 303.5t303.5 126.5q152 0 265.5 -91t154.5 -233h15zM1815 1522l-136 66l-298 -405h-496l-25 -212h359
v-218h-380l-30 -323q81 -10 136.5 -71t55.5 -147t-63 -149t-151.5 -63t-152 63t-63.5 149l117 1189h581l349 460l293 -147z" />
</svg>
