<?xml version="1.0" standalone="no"?>
<!DOCTYPE svg PUBLIC "-//W3C//DTD SVG 1.1//EN" "http://www.w3.org/Graphics/SVG/1.1/DTD/svg11.dtd" >
<svg xmlns="http://www.w3.org/2000/svg" xmlns:xlink="http://www.w3.org/1999/xlink" version="1.1" width="2048" height="2048" viewBox="-10 0 2068 2048">
   <path fill="currentColor"
d="M1024 0q-279 0 -514.5 137t-372.5 372.5t-137 514.5t137 514.5t372.5 372.5t514.5 137t514.5 -137t372.5 -372.5t137 -514.5t-137 -514.5t-372.5 -372.5t-514.5 -137zM1024 1846q-221 0 -411 -110.5t-300.5 -300.5t-110.5 -411t110.5 -411t300.5 -300.5t411 -110.5
t411 110.5t300.5 300.5t110.5 411t-110.5 411t-300.5 300.5t-411 110.5zM1558 1082l-140 -39l346 -91q-19 -82 -93.5 -125t-156.5 -19l-139 33l255 -250q-58 -62 -144.5 -62t-144.5 62l-101 101l39 -149l53 -197q-82 -24 -156.5 19.5t-93.5 124.5l-39 140l-91 -346
q-82 19 -125 93.5t-19 156.5l33 139l-250 -255q-62 58 -62 144.5t62 144.5l101 101l-149 -39l-197 -53q-24 82 19.5 156.5t124.5 93.5l140 39l-346 91q19 82 93.5 125t156.5 19l139 -33l-255 250q58 62 144.5 62t144.5 -62l101 -101l-39 149l-53 197q82 24 156.5 -19.5
t93.5 -124.5l39 -140l91 346q82 -19 125 -93.5t19 -156.5l-33 -139l250 255q62 -58 62 -144.5t-62 -144.5l-101 -101l149 39l197 53q24 -82 -19.5 -156.5t-124.5 -93.5zM1024 1178q-62 0 -108 -46t-46 -108t46 -108t108 -46t108 46t46 108t-46 108t-108 46z" />
</svg>
