<?xml version="1.0" standalone="no"?>
<!DOCTYPE svg PUBLIC "-//W3C//DTD SVG 1.1//EN" "http://www.w3.org/Graphics/SVG/1.1/DTD/svg11.dtd" >
<svg xmlns="http://www.w3.org/2000/svg" xmlns:xlink="http://www.w3.org/1999/xlink" version="1.1" width="2048" height="2048" viewBox="-10 0 2068 2048">
   <path fill="currentColor"
d="M1740 329q-81 0 -141.5 60.5t-60.5 141.5v697q-105 92 -105 226q0 130 91 219t218.5 89t216.5 -89t89 -219q0 -139 -101 -226v-697q0 -81 -60 -141.5t-147 -60.5zM1740 430q44 0 75 31.5t31 69.5v106h-207v-106q0 -38 31.5 -69.5t69.5 -31.5zM615 180l-77 82l-81 101
q-101 120 -183 240q-125 188 -187 313q-87 187 -87 336q0 164 81.5 305.5t223.5 226t308 84.5t307.5 -84.5t226 -226t84.5 -305.5q0 -149 -92 -336q-57 -125 -187 -313q-82 -120 -178 -240l-82 -101zM615 498q5 9 15 24q82 91 158 202q97 139 164 283q72 159 72 245
q0 169 -120 289t-291 120t-291 -120t-120 -289q0 -86 72 -245q67 -144 168 -283q72 -111 154 -202z" />
</svg>
