<?xml version="1.0" standalone="no"?>
<!DOCTYPE svg PUBLIC "-//W3C//DTD SVG 1.1//EN" "http://www.w3.org/Graphics/SVG/1.1/DTD/svg11.dtd" >
<svg xmlns="http://www.w3.org/2000/svg" xmlns:xlink="http://www.w3.org/1999/xlink" version="1.1" width="2048" height="2048" viewBox="-10 0 2068 2048">
   <path fill="currentColor"
d="M1920 1549v-106l111 -82q24 -19 14 -29l-106 -173q0 -10 -28 -10l-126 48q-62 -38 -91 -48l-19 -135q0 -9 -7.5 -14t-16.5 -5h-202q-34 0 -34 19l-19 135l-82 48l-125 -48q-20 0 -29 10l-101 173q0 19 9 29l111 82v106l-111 81q-19 20 -9 29l101 178q9 10 29 10l125 -53
q38 34 82 53l19 130q24 24 34 24h202q9 0 16.5 -7.5t7.5 -16.5l19 -130l82 -53l125 43q19 0 29 -14l101 -173q9 -5 9 -12.5t-9 -7.5zM1540 1640q-63 0 -108.5 -45.5t-45.5 -108.5t45.5 -108.5t108.5 -45.5t108.5 45.5t45.5 108.5t-45.5 108.5t-108.5 45.5zM515 562h818v207
h-818v-207zM1439 461h-1030v1232h-202v-1232h-207v-414h1848v414h-207v318q-14 0 -50.5 -5t-50.5 -5q-72 0 -101 10v-318zM852 1693h-337v-207h308q0 111 29 207zM515 870h654q-144 91 -216 207h-438v-207zM515 1178h380q-48 91 -62 207h-318v-207z" />
</svg>
