<?xml version="1.0" standalone="no"?>
<!DOCTYPE svg PUBLIC "-//W3C//DTD SVG 1.1//EN" "http://www.w3.org/Graphics/SVG/1.1/DTD/svg11.dtd" >
<svg xmlns="http://www.w3.org/2000/svg" xmlns:xlink="http://www.w3.org/1999/xlink" version="1.1" width="2048" height="2048" viewBox="-10 0 2068 2048">
   <path fill="currentColor"
d="M1237 1063q57 -2 110 10t95.5 32.5t85 55t74 67.5t67 81t59.5 85.5t55 89.5q33 56 76.5 107.5t75.5 81.5t94 85q13 11 19 17q-50 32 -112.5 60.5t-146 62.5t-119.5 49q-35 -30 -61.5 -84.5t-41 -117.5t-29 -136.5t-26 -143.5t-31.5 -135t-46 -113.5t-69.5 -77.5
t-101.5 -29l-10 2l-7 3q5 6 14 15q6 5 26.5 22t24.5 20.5t18.5 17.5t17.5 19t12.5 18t11.5 23t6.5 25t6 31.5t2.5 37.5l1 34q1 28 -2.5 61t-7.5 54.5t-13 61.5t-12 55q-37 -1 -106 10t-103 11q-39 0 -75 -11q-2 -25 -2 -48q0 -76 3 -101q2 -12 21.5 -33t41.5 -41t40 -44.5
t17 -41.5q-23 -2 -45 26q-38 56 -116.5 104t-142.5 48q-20 0 -58.5 -42t-75.5 -94.5t-79 -105.5t-65 -70q-8 -6 -29 -33q-500 118 -537 118q-17 0 -29.5 -11.5t-12.5 -28.5q0 -15 8.5 -27t23.5 -16l510 -111q-9 -15 -9 -26.5t5.5 -18t16.5 -12t21 -7.5t24 -4.5t19 -4.5
q5 -1 17 -8t18 -7q16 0 30 17t21 35q160 -39 180 -39q18 0 31 11.5t13 29.5q0 15 -9 26.5t-25 15.5l-190 42l-1 16q-1 18 41.5 72t90.5 100.5t62 46.5q32 0 80.5 -40.5t84.5 -93t36 -85.5q0 -31 -16.5 -48t-39.5 -22t-46 -8t-39 -13.5t-16 -30.5q0 -16 11 -36l-71 -19
q44 -48 44 -123q0 -27 -4 -61q92 -17 150 -17q46 0 74.5 1.5t51 9t33 14.5t21.5 25.5t16.5 34.5t18 50t24.5 63l53 -26q-3 35 -17.5 55t-33 25t-37 7.5t-30.5 7.5t-11 18zM1299 817q-7 -8 -21.5 -24.5t-19 -21.5t-13.5 -14t-15 -13t-13 -7q-7 -4 -15 -6t-21.5 -2.5
t-23.5 -0.5h-33.5h-39.5q-133 0 -227 45q16 -31 37.5 -48.5t56.5 -30.5q29 -11 53.5 -26t47 -36t37 -37t39 -45t38.5 -43q12 9 28.5 32.5t34 38.5t39.5 14l13 -1v80l23 1q123 -47 216 -93t172 -106q30 -23 53 -41.5t44 -38.5t34.5 -32.5t31 -35.5t25.5 -33t25.5 -39t24 -40
t28 -49.5t30.5 -55.5l8 -9q-2 56 -45 146q-82 172 -214.5 276t-320.5 149q-15 3 -44.5 7.5t-52 10t-41.5 14.5q3 20 26 48t23 35q0 12 -28 32zM1068 1781q41 -26 138 -49t153 -23q10 0 23.5 16t29.5 45.5t27 52t25.5 54t15.5 34.5q-126 46 -256 46q-66 0 -131 -11zM817 1104
l51 -13l114 185l-77 51zM1342 1646l3 16q0 8 -18 15.5t-48 13.5t-57 10t-55.5 8t-33.5 5l-8 -45q22 -3 63.5 -9.5t76 -10.5t63.5 -3h14zM864 988l-101 21l-6 -18q11 -1 34.5 -7t35.5 -6q21 0 37 10zM1068 1652h33l10 86l-43 13v-99zM1999 92v-1v1zM1999 92l-1 4l-2 3l1 -4z
M1999 92l1 -1z" />
</svg>
