<?xml version="1.0" standalone="no"?>
<!DOCTYPE svg PUBLIC "-//W3C//DTD SVG 1.1//EN" "http://www.w3.org/Graphics/SVG/1.1/DTD/svg11.dtd" >
<svg xmlns="http://www.w3.org/2000/svg" xmlns:xlink="http://www.w3.org/1999/xlink" version="1.1" width="2048" height="2048" viewBox="-10 0 2069 2048">
   <path fill="currentColor"
d="M0 206v1228h1055q-33 -101 -33 -206h-614q0 -82 -60 -142t-142 -60v-412q82 0 142 -60t60 -141h1026q0 81 60 141t141 60v10q101 0 207 33v-451h-1842zM921 513q-130 0 -218.5 89t-88.5 218.5t88.5 215.5t218.5 91q57 0 115 -24q24 -96 62 -163q48 -86 125 -158
q-10 -106 -96 -187.5t-206 -81.5zM1635 719l231 231l-231 230v-154q-91 0 -158 55.5t-88.5 144t21.5 170.5l-115 110q-86 -130 -62.5 -281t134 -251.5t268.5 -100.5v-154zM1635 1842l-230 -231l230 -230v154q96 0 163.5 -55.5t89 -144t-21.5 -170.5l110 -110q91 130 67 281
t-136.5 251.5t-271.5 100.5v154z" />
</svg>
