<?xml version="1.0" standalone="no"?>
<!DOCTYPE svg PUBLIC "-//W3C//DTD SVG 1.1//EN" "http://www.w3.org/Graphics/SVG/1.1/DTD/svg11.dtd" >
<svg xmlns="http://www.w3.org/2000/svg" xmlns:xlink="http://www.w3.org/1999/xlink" version="1.1" width="2048" height="2048" viewBox="-10 0 2058 2048">
   <path fill="currentColor"
d="M1536 1070q41 0 101 9v-494l-586 -585h-781q-83 0 -140 57t-57 135v1563q0 78 57 135t140 57h763q-82 -132 -82 -290t80 -292.5t215 -214.5t290 -80zM951 146l539 535h-539v-535zM1975 1755l-242 293l-243 -293h147v-393h192v393h146zM1586 1559h-146v388h-197v-388h-146
l247 -293z" />
</svg>
