<?xml version="1.0" standalone="no"?>
<!DOCTYPE svg PUBLIC "-//W3C//DTD SVG 1.1//EN" "http://www.w3.org/Graphics/SVG/1.1/DTD/svg11.dtd" >
<svg xmlns="http://www.w3.org/2000/svg" xmlns:xlink="http://www.w3.org/1999/xlink" version="1.1" width="2048" height="2048" viewBox="-10 0 2058 2048">
   <path fill="currentColor"
d="M1547 1046q40 0 99 9v-483l-573 -572h-764q-81 0 -137 56t-56 132v1529q0 76 56 132t137 56h746q-80 -130 -80 -284t78 -286t210 -210.5t284 -78.5zM975 143l527 523h-527v-523zM1646 1668v-143h-385v-192h385v-144l286 242zM1453 1717h380v188h-380v143l-286 -237
l286 -237v143z" />
</svg>
