<?xml version="1.0" standalone="no"?>
<!DOCTYPE svg PUBLIC "-//W3C//DTD SVG 1.1//EN" "http://www.w3.org/Graphics/SVG/1.1/DTD/svg11.dtd" >
<svg xmlns="http://www.w3.org/2000/svg" xmlns:xlink="http://www.w3.org/1999/xlink" version="1.1" width="2048" height="2048" viewBox="-10 0 2058 2048">
   <path fill="currentColor"
d="M1074 0h-781q-83 0 -140 57t-57 135v1563q0 78 57 135t140 57h763q-82 -132 -82 -292q0 -46 9 -96h-690v-197h763q69 -119 183 -192h-946v-196h1170v105q50 -9 96 -9t100 9v-494zM974 681v-535l539 535h-539zM1463 1266v293h-293v196h293v293h196v-293h293v-196h-293
v-293h-196z" />
</svg>
