<?xml version="1.0" standalone="no"?>
<!DOCTYPE svg PUBLIC "-//W3C//DTD SVG 1.1//EN" "http://www.w3.org/Graphics/SVG/1.1/DTD/svg11.dtd" >
<svg xmlns="http://www.w3.org/2000/svg" xmlns:xlink="http://www.w3.org/1999/xlink" version="1.1" width="2048" height="2048" viewBox="-10 0 2068 2048">
   <path fill="currentColor"
d="M1441 1288l227 131l-70 122l-297 -174v-341h140v262zM2048 1306q0 174 -87.5 325t-238 238t-327.5 87t-327.5 -87t-238 -238t-87.5 -325q0 -44 9 -96h-751v-1118h1677v624q166 79 268.5 238.5t102.5 351.5zM808 1026q26 -57 57 -96h-27q-117 0 -198 -80.5t-81 -196.5
t81 -199t196.5 -83t198.5 83t83 197q0 35 -9 70q136 -70 288 -70q44 0 92 8v-192q-79 0 -133.5 -54.5t-54.5 -133.5h-930q0 79 -54.5 133.5t-133.5 54.5v371q79 0 133.5 55t54.5 133h437zM1860 1306q0 -127 -61 -234t-168 -170.5t-233.5 -63.5t-233.5 63.5t-170.5 170.5
t-63.5 233.5t63.5 233.5t170.5 168.5t233.5 61.5t233.5 -61.5t168 -168.5t61 -233z" />
</svg>
