<?xml version="1.0" standalone="no"?>
<!DOCTYPE svg PUBLIC "-//W3C//DTD SVG 1.1//EN" "http://www.w3.org/Graphics/SVG/1.1/DTD/svg11.dtd" >
<svg xmlns="http://www.w3.org/2000/svg" xmlns:xlink="http://www.w3.org/1999/xlink" version="1.1" width="2048" height="2048" viewBox="-10 0 2058 2048">
   <path fill="currentColor"
d="M2024 1538l-510 510l-360 -356l154 -154l206 202l356 -355zM231 0q-87 0 -147 60t-60 142v1644q0 82 60 142t147 60h803q-58 -96 -77 -202h-726v-1644h716v514h514v419q53 -10 101.5 -10t105.5 10v-520l-615 -615h-822zM437 1024v207h818v-207h-818zM437 1433v206h510
v-206h-510z" />
</svg>
