<?xml version="1.0" standalone="no"?>
<!DOCTYPE svg PUBLIC "-//W3C//DTD SVG 1.1//EN" "http://www.w3.org/Graphics/SVG/1.1/DTD/svg11.dtd" >
<svg xmlns="http://www.w3.org/2000/svg" xmlns:xlink="http://www.w3.org/1999/xlink" version="1.1" width="2048" height="2048" viewBox="-10 0 2058 2048">
   <path fill="currentColor"
d="M1490 1829q-2 -9 -8 -12t-21 5q-35 27 -101.5 46.5t-152.5 19.5q-150 0 -224 -57q-5 -4 -6 -4h-10q-12 0 -30 14q-8 7 -9 18.5t9 23.5q31 28 72 44t91 20t86.5 3t86.5 -5q49 -5 99.5 -24.5t76 -35t33.5 -23.5q13 -13 8 -33zM1444 1695q-24 -57 -45 -71q-27 -18 -89 -18
h-16.5h-17t-14 1t-17.5 3.5t-17 6.5q-32 14 -92 66q-31 26 -14 52q5 5 9.5 6.5t12 -2.5t14.5 -9.5t22 -17.5q3 -2 12 -9.5l12 -10t11.5 -8t13.5 -8t14.5 -6t17.5 -5t19.5 -3t23.5 -1.5q25 0 41.5 4t27 13t14.5 15t12 19q2 3 4 8q8 15 11.5 17t13.5 -2q27 -14 16 -40z
M1858 1367q0 -25 -6 -51t-19.5 -52.5t-39.5 -43t-61 -16.5q-31 0 -85 30t-103.5 66.5t-104.5 67t-88 30.5q-31 1 -73.5 -22.5t-89 -57t-98 -67t-116.5 -56.5t-129 -23q-88 1 -164 43.5t-119.5 111t-44.5 144.5q-1 132 86 192q34 23 73.5 33t120.5 10q54 0 121 -25t128 -60
t118.5 -70.5t108.5 -59.5t82 -24q25 1 59 24.5t67 57t65 67t62.5 57.5t49.5 25q41 4 68.5 -16t65.5 -74q32 -48 49 -117.5t17 -123.5zM1919 1181q0 128 -32.5 245t-91.5 212t-141 172t-180 129.5t-210.5 80.5t-230.5 28t-232.5 -30.5t-214 -85.5t-184 -135.5t-145 -176.5
t-94.5 -213.5t-34 -242.5q0 -104 22.5 -201t57 -169.5t82.5 -138.5t91.5 -109t91.5 -81t75 -54.5t50 -28.5q16 -9 59.5 -31.5t63 -33.5t55.5 -34.5t71 -51.5q42 -34 68 -85t35 -146q48 57 77 90t70 75t69 61q51 33 151.5 78.5t150.5 77.5q25 15 46 29t70.5 54.5t88.5 82.5
t87.5 110.5t81 141.5t54.5 173t22 208z" />
</svg>
