<?xml version="1.0" standalone="no"?>
<!DOCTYPE svg PUBLIC "-//W3C//DTD SVG 1.1//EN" "http://www.w3.org/Graphics/SVG/1.1/DTD/svg11.dtd" >
<svg xmlns="http://www.w3.org/2000/svg" xmlns:xlink="http://www.w3.org/1999/xlink" version="1.1" width="2048" height="2048" viewBox="-11 0 2070 2048">
   <path fill="currentColor"
d="M2040 1643l-106 -78l4 -51q0 -27 -4 -50l106 -79q14 -14 4 -32l-101 -170q-5 -14 -28 -14l-124 51q-46 -33 -83 -46l-18 -129q0 -23 -23 -23h-193q-23 0 -28 23l-18 129q-46 18 -83 46l-125 -51q-23 0 -27 14l-97 170q-14 18 5 32l101 79v50v51l-101 78q-19 14 -5 32
l97 171q4 13 27 13l125 -50q46 32 83 46l18 129q5 23 28 23h193q23 0 23 -23l23 -129q37 -19 78 -46l124 50q23 0 33 -13l96 -171q10 -18 -4 -32zM1570 1661q-60 0 -103.5 -43.5t-43.5 -103.5t43.5 -103.5t103.5 -43.5t104 43.5t44 103.5t-44 103.5t-104 43.5zM1533 64
q-27 -23 -59 -23h-1377q-32 0 -62 23t-34.5 64.5t18.5 73.5l470 599v506q-5 46 32 78l391 396q14 14 37 23q-65 -138 -65 -290q0 -133 51 -259.5t143 -223.5v-230l474 -599q23 -32 18.5 -73.5t-37.5 -64.5zM884 732v741l-197 -198v-539l-387 -497h971z" />
</svg>
