<?xml version="1.0" standalone="no"?>
<!DOCTYPE svg PUBLIC "-//W3C//DTD SVG 1.1//EN" "http://www.w3.org/Graphics/SVG/1.1/DTD/svg11.dtd" >
<svg xmlns="http://www.w3.org/2000/svg" xmlns:xlink="http://www.w3.org/1999/xlink" version="1.1" width="2048" height="2048" viewBox="-10 0 2068 2048">
   <path fill="currentColor"
d="M1947 430h-207v625q178 29 308 144v-668q0 -38 -31 -69.5t-70 -31.5zM409 1560q0 38 31 69.5t70 31.5h514q0 -159 82 -308h-697v207zM1433 22h-1332q-39 0 -70 31t-31 70v1437l409 -413h894q106 -77 235 -92v-932q0 -39 -33.5 -70t-71.5 -31zM1856 1296l149 149l-221 216
l221 216l-149 149l-217 -221l-216 221l-144 -149l216 -216l-216 -216l144 -145l216 217z" />
</svg>
