<?xml version="1.0" standalone="no"?>
<!DOCTYPE svg PUBLIC "-//W3C//DTD SVG 1.1//EN" "http://www.w3.org/Graphics/SVG/1.1/DTD/svg11.dtd" >
<svg xmlns="http://www.w3.org/2000/svg" xmlns:xlink="http://www.w3.org/1999/xlink" version="1.1" width="2048" height="2048" viewBox="-10 0 2068 2048">
   <path fill="currentColor"
d="M1070 1710h-878q-78 0 -135 -57.5t-57 -139.5v-1170q0 -82 57 -139.5t135 -57.5h585l197 197h781q78 0 135 57t57 139v298q-91 -74 -192 -92v-206h-1563v974h878v197zM2048 1445v342q0 46 -39 80.5t-89 34.5h-535q-46 0 -82.5 -36.5t-36.5 -87.5v-343q0 -45 36.5 -81.5
t82.5 -36.5v-147q0 -100 82.5 -171t187.5 -71t189.5 71t84.5 171v147q46 0 82.5 38.5t36.5 89.5zM1801 1170q0 -55 -41 -89t-103 -34t-105 34t-43 89v147h292v-147z" />
</svg>
