<?xml version="1.0" standalone="no"?>
<!DOCTYPE svg PUBLIC "-//W3C//DTD SVG 1.1//EN" "http://www.w3.org/Graphics/SVG/1.1/DTD/svg11.dtd" >
<svg xmlns="http://www.w3.org/2000/svg" xmlns:xlink="http://www.w3.org/1999/xlink" version="1.1" width="2048" height="2048" viewBox="-10 0 2058 2048">
   <path fill="currentColor"
d="M1317 1851h196v197h-196v-197zM928 1851h192v197h-192v-197zM535 1851h196v197h-196v-197zM1317 1646q4 50 -25.5 79.5t-71 29.5t-68.5 -27l-393 -393q-32 -32 -28 -78v-503l-466 -594q-27 -32 -20.5 -73t36.5 -64t62 -23h1362q32 0 62 23t36.5 64t-20.5 73l-466 594v892
zM539 197l389 493v535l192 197v-736l389 -489h-970z" />
</svg>
