<?xml version="1.0" standalone="no"?>
<!DOCTYPE svg PUBLIC "-//W3C//DTD SVG 1.1//EN" "http://www.w3.org/Graphics/SVG/1.1/DTD/svg11.dtd" >
<svg xmlns="http://www.w3.org/2000/svg" xmlns:xlink="http://www.w3.org/1999/xlink" version="1.1" width="2048" height="2048" viewBox="-10 0 2068 2048">
   <path fill="currentColor"
d="M1427 1260l-213 214l-202 202l-40 41q-87 85 -202 115.5t-229 1.5q-21 93 -96 153.5t-172 60.5q-113 0 -193 -80.5t-80 -193.5q0 -97 60 -171.5t151 -95.5q-29 -116 1 -231.5t117 -201.5l16 -17l202 203l-15 14q-50 50 -49.5 119.5t49.5 120.5q49 49 118.5 49t118.5 -49
l41 -40l201 -203l214 -214zM972 350l16 16l-203 203l-16 -16q-49 -49 -118.5 -49t-118.5 49t-49 119.5t49 119.5l39 39l203 203l213 212l-202 203l-214 -213l-201 -202l-41 -41q-90 -89 -120 -212.5t7 -239.5q-93 -20 -153.5 -94.5t-60.5 -172.5q0 -113 80.5 -193.5
t194.5 -80.5q102 0 178 65.5t92 163.5q113 -27 226 4.5t199 116.5zM2048 1774q0 113 -80 193.5t-193 80.5q-99 0 -174.5 -62.5t-95.5 -156.5q-115 37 -239 7.5t-215 -119.5l-15 -17l202 -203l15 17q49 49 119 49t119 -49t49 -118.5t-49 -118.5l-40 -41l-202 -202l-214 -214
l203 -203l213 214l203 203l38 40q86 85 117.5 200.5t2.5 228.5q101 14 168.5 90.5t67.5 180.5zM2046 274q0 104 -68.5 181t-168.5 91q34 113 3.5 235t-120.5 212l-15 16l-202 -203l16 -15q49 -49 49 -119t-49 -119t-119 -49t-119 49l-39 40l-203 203l-214 213l-202 -203
l215 -213l202 -202l39 -41q90 -90 212.5 -120t237.5 6q14 -101 91 -168.5t181 -67.5q113 0 193 80.5t80 193.5z" />
</svg>
