<?xml version="1.0" standalone="no"?>
<!DOCTYPE svg PUBLIC "-//W3C//DTD SVG 1.1//EN" "http://www.w3.org/Graphics/SVG/1.1/DTD/svg11.dtd" >
<svg xmlns="http://www.w3.org/2000/svg" xmlns:xlink="http://www.w3.org/1999/xlink" version="1.1" width="2048" height="2048" viewBox="-10 0 2068 2048">
   <path fill="currentColor"
d="M1947 562h-207v625q178 29 308 145v-669q0 -38 -31 -69.5t-70 -31.5zM409 1692q0 39 31 70t70 31h514q0 -158 82 -307h-697v206zM1433 154h-1332q-39 0 -70 31t-31 70v1437l409 -413h894q106 -77 235 -92v-932q0 -39 -33.5 -70t-71.5 -31zM1332 1077h-1005l-125 120v-841
h1130v721zM2048 1692v202h-817v-202h817z" />
</svg>
