<?xml version="1.0" standalone="no"?>
<!DOCTYPE svg PUBLIC "-//W3C//DTD SVG 1.1//EN" "http://www.w3.org/Graphics/SVG/1.1/DTD/svg11.dtd" >
<svg xmlns="http://www.w3.org/2000/svg" xmlns:xlink="http://www.w3.org/1999/xlink" version="1.1" width="2048" height="2048" viewBox="-10 0 2068 2048">
   <path fill="currentColor"
d="M1740 1538q116 0 202 -72q106 -81 106 -235t-106 -241q-86 -67 -202 -67h-202v-207h202q154 0 241 -105q67 -87 67 -202q0 -154 -106 -241q-86 -67 -202 -67h-202v-101h-105v101h-818v-101h-105v101h-510v207h510v202h-202q-116 0 -202 72q-106 81 -106 235t106 241
q86 67 202 67h202v207h-202q-116 0 -202 67q-106 87 -106 240.5t106 240.5q86 67 202 67h202v101h105v-101h818v101h105v-101h510v-207h-510v-202h202zM1740 1125q44 0 75 24t31 79.5t-31 79.5t-75 24h-202v-207h202zM1433 923h-818v-207h818v207zM1740 308q44 0 75 21.5
t31 79.5q0 43 -24 72t-82 29h-202v-202h202zM615 308h818v202h-818v-202zM308 923q-44 0 -75 -24t-31 -79.5t31 -79.5t75 -24h202v207h-202zM615 1125h818v207h-818v-207zM308 1740q-44 0 -75 -21.5t-31 -79t31 -79.5t75 -22h202v202h-202zM1433 1740h-818v-202h818v202z
" />
</svg>
