<?xml version="1.0" standalone="no"?>
<!DOCTYPE svg PUBLIC "-//W3C//DTD SVG 1.1//EN" "http://www.w3.org/Graphics/SVG/1.1/DTD/svg11.dtd" >
<svg xmlns="http://www.w3.org/2000/svg" xmlns:xlink="http://www.w3.org/1999/xlink" version="1.1" width="2048" height="2048" viewBox="-10 0 2068 2048">
   <path fill="currentColor"
d="M1832 308h-140v202q0 105 -77 182t-182.5 77t-180 -77t-74.5 -182v-178q0 -10 -7.5 -17t-16.5 -7h-260q-9 0 -16.5 7t-7.5 17v178q0 105 -74.5 182t-180 77t-182.5 -77t-77 -182v-202h-140q-86 -5 -151 55t-65 147v1230q0 87 65 147t151 60h1616q86 0 151 -60t65 -147
v-1230q0 -87 -65 -147t-151 -55zM510 1639h-202v-206h202v206zM510 1231h-202v-207h202v207zM923 1639h-207v-206h207v206zM923 1231h-207v-207h207v207zM1332 1639h-207v-206h207v206zM1332 1231h-207v-207h207v207zM1740 1639h-202v-206h202v206zM1740 1231h-202v-207h202
v207zM1433 615q-39 0 -70 -31t-31 -74v-308q0 -39 31 -70t72 -31t72 31t31 70v308q0 43 -31 74t-74 31zM615 615q-43 0 -74 -31t-31 -74v-308q0 -39 31 -70t72 -31t72 31t31 70v308q0 43 -31 74t-70 31z" />
</svg>
