<?xml version="1.0" standalone="no"?>
<!DOCTYPE svg PUBLIC "-//W3C//DTD SVG 1.1//EN" "http://www.w3.org/Graphics/SVG/1.1/DTD/svg11.dtd" >
<svg xmlns="http://www.w3.org/2000/svg" xmlns:xlink="http://www.w3.org/1999/xlink" version="1.1" width="2048" height="2048" viewBox="-10 0 2068 2048">
   <path fill="currentColor"
d="M1846 0h-1644q-82 0 -142 60t-60 142v1644q0 82 60 142t142 60h1644q82 0 142 -60t60 -142v-1644q0 -82 -60 -142t-142 -60zM1125 562q0 -144 108 -252t252.5 -108t252.5 108t108 252.5t-108 252.5t-252.5 108t-252.5 -108t-108 -253zM202 202h721v721h-721v-721z
M202 1846v-721h721v721h-721zM1846 1846h-721v-721h721v721z" />
</svg>
