<?xml version="1.0" standalone="no"?>
<!DOCTYPE svg PUBLIC "-//W3C//DTD SVG 1.1//EN" "http://www.w3.org/Graphics/SVG/1.1/DTD/svg11.dtd" >
<svg xmlns="http://www.w3.org/2000/svg" xmlns:xlink="http://www.w3.org/1999/xlink" version="1.1" width="2048" height="2048" viewBox="-10 0 2058 2048">
   <path fill="currentColor"
d="M894 1232q-3 1 -7.5 1t-15.5 -4t-19 -7.5t-18.5 -8t-13.5 -5.5q-11 -5 -48.5 -26.5t-49.5 -29.5q-8 -5 -47 -36t-43 -33q-70 107 -154 207q-3 3 -22 25.5t-33 38.5t-33 35t-32 27q-5 2 -22.5 3.5t-21.5 0.5q9 -6 26 -25.5t40 -46.5t28 -33q23 -26 97 -130.5t91 -135.5
q19 -36 58 -113.5t42 -87.5q-12 -1 -126 37q-10 3 -32 8.5t-39 10.5t-19 6q-3 3 -3.5 12.5t-0.5 10.5q-2 4 -14 10t-22 7q-28 8 -54 0q-10 -2 -19.5 -10t-12.5 -14q-5 -7 -6 -26q7 -2 28.5 -5t33.5 -7q57 -16 120 -37q13 -4 39.5 -13.5t48 -17t30.5 -9.5q11 -2 49 -22.5
t49 -24.5q8 -2 16 -5.5t13 -5.5l10 -4t6.5 -1.5t2.5 1.5q3 14 0 38q-1 3 -15 31t-30.5 60.5t-18.5 38.5q-52 93 -88 150q2 1 32.5 14t39.5 18q15 7 86 37.5t76 31.5t12 29t6 35zM660 676q2 16 -4 32q-13 25 -58 44q-32 13 -68 13q-31 -3 -56 -29q-16 -17 -21 -47q0 -4 1 -4
q3 4 22 6t30 0q24 -5 66 -18q40 -14 64 -16q20 0 24 19zM1458 824l72 259l-160 -48zM192 1738l792 -265v-1180l-792 267v1178zM1610 1376l116 35l-206 -751l-116 -35l-246 612l116 36l52 -126l242 74zM1034 276l656 210v-434zM1390 1788l180 15l-62 183l-44 -76
q-154 97 -316 124q-67 14 -104 14h-96q-91 0 -228.5 -44.5t-209.5 -97.5q-10 -8 -10 -18t6.5 -16t15.5 -6q4 0 20 8t35 19t23 13q85 42 183 70t179 28q109 0 191.5 -16.5t178.5 -57.5q17 -8 35 -17.5t39.5 -22t33.5 -18.5zM1902 555v1233l-884 -281q-16 7 -429 146t-421 139
q-16 0 -20 -15q0 -1 -1 -2t-1 -2v-1232q4 -9 6 -11q7 -9 22 -13l5 -1.5t13 -4.5t19.5 -6.5t26 -8.5t31 -10.5t36.5 -12t39 -13.5v-439l638 227l362 -124t368 -124q9 0 15.5 6.5t6.5 17.5v477z" />
</svg>
