<?xml version="1.0" standalone="no"?>
<!DOCTYPE svg PUBLIC "-//W3C//DTD SVG 1.1//EN" "http://www.w3.org/Graphics/SVG/1.1/DTD/svg11.dtd" >
<svg xmlns="http://www.w3.org/2000/svg" xmlns:xlink="http://www.w3.org/1999/xlink" version="1.1" width="2048" height="2048" viewBox="-10 0 2068 2048">
   <path fill="currentColor"
d="M1454 898q-117 51 -206 149h-500q-103 0 -177.5 -72.5t-74.5 -175t74.5 -177.5t177.5 -75h748v150h-748q-42 0 -72.5 30t-30.5 70t30.5 70.5t72.5 30.5h706zM150 800q0 -169 116.5 -286t280.5 -117h1047q103 0 175.5 75t72.5 178q0 61 -28 114.5t-75 86.5q89 5 173 37
q80 -107 80 -238q0 -168 -117 -285t-281 -117h-1047q-150 0 -276 74.5t-198.5 201t-72.5 276t72.5 273.5t198.5 199t276 75h556q15 -75 47 -150h-603q-164 0 -280.5 -117t-116.5 -280zM2048 1234l-140 -140l-215 211l-211 -211l-140 140l210 211l-210 215l140 140l211 -215
l215 215l140 -140l-215 -215z" />
</svg>
