<?xml version="1.0" standalone="no"?>
<!DOCTYPE svg PUBLIC "-//W3C//DTD SVG 1.1//EN" "http://www.w3.org/Graphics/SVG/1.1/DTD/svg11.dtd" >
<svg xmlns="http://www.w3.org/2000/svg" xmlns:xlink="http://www.w3.org/1999/xlink" version="1.1" width="2048" height="2048" viewBox="-10 0 2058 2048">
   <path fill="currentColor"
d="M839 654h183v557h-183v-557zM1209 0h-558v187h558v-187zM930 1769q-178 0 -326.5 -87t-235.5 -237.5t-87 -327t87 -326.5t235.5 -237.5t326.5 -87.5q162 0 301 74t230.5 202.5t113.5 285.5q105 5 192 44q-17 -270 -183 -475l131 -135q-66 -74 -131 -131l-131 135
q-109 -87 -244 -137t-279 -50q-226 0 -418 113t-305 305t-113 418.5t113 420.5t305 305t418 111q61 0 92 -4q-52 -83 -74 -179h-18zM1954 1630q0 174 -122 296t-296 122t-296 -122t-122 -296.5t122 -296.5t296 -122t296 122t122 297zM1675 1869l-379 -379q-39 61 -39 140
q0 113 80.5 196t198.5 83q78 0 139 -40zM1815 1630q0 -118 -83 -198.5t-196 -80.5q-78 0 -139 39l379 379q39 -61 39 -139z" />
</svg>
