<?xml version="1.0" standalone="no"?>
<!DOCTYPE svg PUBLIC "-//W3C//DTD SVG 1.1//EN" "http://www.w3.org/Graphics/SVG/1.1/DTD/svg11.dtd" >
<svg xmlns="http://www.w3.org/2000/svg" xmlns:xlink="http://www.w3.org/1999/xlink" version="1.1" width="2048" height="2048" viewBox="-10 0 2068 2048">
   <path fill="currentColor"
d="M1550 805v146h-224l-147 -146h371zM1646 658q100 0 171 73.5t71 174t-71 171t-171 70.5h-128l146 147q155 -9 262.5 -121t107.5 -272t-114 -274.5t-274 -114.5h-759l146 146h613zM2048 1925l-123 123l-462 -462h-841q-147 0 -270 -73t-194 -194t-71 -268
q0 -169 93.5 -303.5t244.5 -198.5l-425 -426l123 -123zM718 1051q0 37 29.5 66.5t70.5 29.5h206l-197 -196h-9q-41 0 -70.5 29.5t-29.5 70.5zM1317 1440l-147 -146h-352q-100 0 -173.5 -71t-73.5 -172q0 -73 37 -130t101 -89l-165 -165q-137 28 -224 135.5t-87 248.5
q0 160 114.5 274.5t274.5 114.5h695z" />
</svg>
