<?xml version="1.0" standalone="no"?>
<!DOCTYPE svg PUBLIC "-//W3C//DTD SVG 1.1//EN" "http://www.w3.org/Graphics/SVG/1.1/DTD/svg11.dtd" >
<svg xmlns="http://www.w3.org/2000/svg" xmlns:xlink="http://www.w3.org/1999/xlink" version="1.1" width="2048" height="2048" viewBox="-10 0 2058 2048">
   <path fill="currentColor"
d="M1490 745h-836v-187h836v187zM558 558h-183v187h183v-187zM558 279h-183v187h183v-187zM837 279h-183v187h183v-187zM1116 1490v183h95q35 0 63.5 28.5t28.5 67.5h649v183h-649q0 39 -28.5 67.5t-63.5 28.5h-374q-35 0 -63.5 -28.5t-28.5 -67.5h-649v-183h649
q0 -39 28.5 -67.5t63.5 -28.5h95v-183h-653q-74 0 -128.5 -54.5t-54.5 -132.5v-1116q0 -78 54.5 -132.5t128.5 -54.5h1490q74 0 128.5 54.5t54.5 132.5v1116q0 78 -54.5 132.5t-128.5 54.5h-653zM1769 1303v-1116h-1490v1116h1490zM932 466h741v-187h-741v187zM375 1024h557
v-187h-557v187zM1116 1211h557v-187h-557v187z" />
</svg>
