<?xml version="1.0" standalone="no"?>
<!DOCTYPE svg PUBLIC "-//W3C//DTD SVG 1.1//EN" "http://www.w3.org/Graphics/SVG/1.1/DTD/svg11.dtd" >
<svg xmlns="http://www.w3.org/2000/svg" xmlns:xlink="http://www.w3.org/1999/xlink" version="1.1" width="2048" height="2048" viewBox="-10 0 2058 2048">
   <path fill="currentColor"
d="M732 401l-122 -126q31 -118 129 -196.5t228 -78.5q153 0 262 109t109 266v632l-140 -140v-492q0 -96 -67.5 -166t-163.5 -70t-165.5 70t-69.5 166v26zM1617 466h-140v680l140 139v-819zM2000 1904l-118 118l-300 -301q-57 144 -187.5 235.5t-287.5 91.5
q-140 0 -257.5 -69.5t-187 -187.5t-69.5 -257v-798l-545 -549l118 -117zM1011 1351q0 35 28.5 63t65.5 28t65 -28t28 -63v-13l-187 -183v196zM1468 1612l-156 -157q-31 57 -85.5 92t-119.5 35q-96 0 -166 -67.5t-70 -163.5v-336l-139 -139v658q0 157 109 266t266 109
q131 0 233 -85t128 -212zM871 540l140 140v-214h-140v74z" />
</svg>
