<?xml version="1.0" standalone="no"?>
<!DOCTYPE svg PUBLIC "-//W3C//DTD SVG 1.1//EN" "http://www.w3.org/Graphics/SVG/1.1/DTD/svg11.dtd" >
<svg xmlns="http://www.w3.org/2000/svg" xmlns:xlink="http://www.w3.org/1999/xlink" version="1.1" width="2048" height="2048" viewBox="-10 0 2058 2048">
   <path fill="currentColor"
d="M1209 187h-558v-187h558v187zM930 1630q0 170 92 318q-31 4 -92 4q-226 0 -418 -111t-305 -305t-113 -420.5t113 -418.5t305 -305t418 -113q144 0 279 50t244 137l131 -135q65 57 131 131l-131 135q166 205 183 475q-113 -48 -231 -48q-166 0 -305 80.5t-220 220
t-81 305.5zM1022 558h-183v653h183v-653zM1954 1630q0 174 -122 296t-296 122t-296 -122t-122 -296.5t122 -296.5t296 -122t296 122t122 297zM1675 1869l-379 -379q-39 61 -39 140q0 113 80.5 196t198.5 83q78 0 139 -40zM1815 1630q0 -118 -83 -198.5t-196 -80.5
q-78 0 -139 39l379 379q39 -61 39 -139z" />
</svg>
