<?xml version="1.0" standalone="no"?>
<!DOCTYPE svg PUBLIC "-//W3C//DTD SVG 1.1//EN" "http://www.w3.org/Graphics/SVG/1.1/DTD/svg11.dtd" >
<svg xmlns="http://www.w3.org/2000/svg" xmlns:xlink="http://www.w3.org/1999/xlink" version="1.1" width="2048" height="2048" viewBox="-10 0 2058 2048">
   <path fill="currentColor"
d="M1218 197h-585v-197h585v197zM1141 1317v22q-55 46 -87 110t-32 133v343q0 54 23 114q-69 9 -119 9q-238 0 -439 -116.5t-320 -320t-119 -441t119 -439t320 -320t439 -118.5q151 0 292.5 52.5t255.5 143.5l137 -142q69 60 138 138l-138 141q101 124 151 279
q-82 -27 -155 -27q-124 0 -231 61.5t-171 162t-64 215.5zM1022 585h-192v686h192v-686zM2000 1591v343q0 45 -39 79.5t-89 34.5h-535q-46 0 -82.5 -36.5t-36.5 -86.5v-343q0 -46 36.5 -82.5t82.5 -36.5v-146q0 -101 82.5 -172t187.5 -71t189.5 71t84.5 172v146q46 0 82.5 39
t36.5 89zM1753 1317q0 -55 -41 -89.5t-103 -34.5t-105 34.5t-43 89.5v146h292v-146z" />
</svg>
