<?xml version="1.0" standalone="no"?>
<!DOCTYPE svg PUBLIC "-//W3C//DTD SVG 1.1//EN" "http://www.w3.org/Graphics/SVG/1.1/DTD/svg11.dtd" >
<svg xmlns="http://www.w3.org/2000/svg" xmlns:xlink="http://www.w3.org/1999/xlink" version="1.1" width="2048" height="2048" viewBox="-10 0 2058 2048">
   <path fill="currentColor"
d="M1756 0q30 0 51 21.5t21 51.5v1901q0 30 -21.5 52t-50.5 22h-1464q-29 0 -50.5 -22t-21.5 -52v-1901q0 -30 21 -51.5t51 -21.5h1464zM804 329v73q0 16 11 26t27 10h72q16 0 26 -10t10 -26v-73q0 -16 -10 -26.5t-26 -10.5h-72q-16 0 -27 10.5t-11 26.5zM804 621v73
q0 16 11 26.5t27 10.5h72q16 0 26 -10.5t10 -26.5v-73q0 -16 -10 -26t-26 -10h-72q-16 0 -27 10t-11 26zM804 914v73q0 16 11 26.5t27 10.5h72q16 0 26 -10.5t10 -26.5v-73q0 -16 -10 -26.5t-26 -10.5h-72q-16 0 -27 10.5t-11 26.5zM804 1206v74q0 16 11 26t27 10h72
q16 0 26 -10t10 -26v-74q0 -16 -10 -26t-26 -10h-72q-16 0 -27 10t-11 26zM658 1572v-73q0 -16 -10.5 -26.5t-25.5 -10.5h-74q-15 0 -25.5 10.5t-10.5 26.5v73q0 16 10.5 26.5t25.5 10.5h74q15 0 25.5 -10.5t10.5 -26.5zM658 1280v-74q0 -16 -10.5 -26t-25.5 -10h-74
q-15 0 -25.5 10t-10.5 26v74q0 16 10.5 26t25.5 10h74q15 0 25.5 -10t10.5 -26zM658 987v-73q0 -16 -10.5 -26.5t-25.5 -10.5h-74q-15 0 -25.5 10.5t-10.5 26.5v73q0 16 10.5 26.5t25.5 10.5h74q15 0 25.5 -10.5t10.5 -26.5zM658 694v-73q0 -16 -10.5 -26t-25.5 -10h-74
q-15 0 -25.5 10t-10.5 26v73q0 16 10.5 26.5t25.5 10.5h74q15 0 25.5 -10.5t10.5 -26.5zM658 402v-73q0 -16 -10.5 -26.5t-25.5 -10.5h-74q-15 0 -25.5 10.5t-10.5 26.5v73q0 16 10.5 26t25.5 10h74q15 0 25.5 -10t10.5 -26zM1244 1865v-220q0 -16 -11 -26t-27 -10h-364
q-16 0 -27 10t-11 26v220q0 16 11 26t27 10h364q16 0 27 -10t11 -26zM1244 1280v-74q0 -16 -11 -26t-27 -10h-72q-16 0 -26 10t-10 26v74q0 16 10 26t26 10h72q16 0 27 -10t11 -26zM1244 987v-73q0 -16 -11 -26.5t-27 -10.5h-72q-16 0 -26 10.5t-10 26.5v73q0 16 10 26.5
t26 10.5h72q16 0 27 -10.5t11 -26.5zM1244 694v-73q0 -16 -11 -26t-27 -10h-72q-16 0 -26 10t-10 26v73q0 16 10 26.5t26 10.5h72q16 0 27 -10.5t11 -26.5zM1244 402v-73q0 -16 -11 -26.5t-27 -10.5h-72q-16 0 -26 10.5t-10 26.5v73q0 16 10 26t26 10h72q16 0 27 -10t11 -26
zM1536 1572v-73q0 -16 -10.5 -26.5t-25.5 -10.5h-74q-15 0 -25.5 10.5t-10.5 26.5v73q0 16 10.5 26.5t25.5 10.5h74q15 0 25.5 -10.5t10.5 -26.5zM1536 1280v-74q0 -16 -10.5 -26t-25.5 -10h-74q-15 0 -25.5 10t-10.5 26v74q0 16 10.5 26t25.5 10h74q15 0 25.5 -10t10.5 -26
zM1536 987v-73q0 -16 -10.5 -26.5t-25.5 -10.5h-74q-15 0 -25.5 10.5t-10.5 26.5v73q0 16 10.5 26.5t25.5 10.5h74q15 0 25.5 -10.5t10.5 -26.5zM1536 694v-73q0 -16 -10.5 -26t-25.5 -10h-74q-15 0 -25.5 10t-10.5 26v73q0 16 10.5 26.5t25.5 10.5h74q15 0 25.5 -10.5
t10.5 -26.5zM1536 402v-73q0 -16 -10.5 -26.5t-25.5 -10.5h-74q-15 0 -25.5 10.5t-10.5 26.5v73q0 16 10.5 26t25.5 10h74q15 0 25.5 -10t10.5 -26z" />
</svg>
