<?xml version="1.0" standalone="no"?>
<!DOCTYPE svg PUBLIC "-//W3C//DTD SVG 1.1//EN" "http://www.w3.org/Graphics/SVG/1.1/DTD/svg11.dtd" >
<svg xmlns="http://www.w3.org/2000/svg" xmlns:xlink="http://www.w3.org/1999/xlink" version="1.1" width="2048" height="2048" viewBox="-10 0 2058 2048">
   <path fill="currentColor"
d="M1218 197h-585v-197h585v197zM1141 1221v118q-55 46 -87 110t-32 133v343q0 54 23 114q-69 9 -119 9q-238 0 -439 -116.5t-320 -320t-119 -441t119 -439t320 -320t439 -118.5q151 0 292.5 52.5t255.5 143.5l137 -142q69 60 138 138l-138 141q64 78 106 169
q-60 -13 -110 -13q-124 0 -231 59.5t-171 160t-64 219.5zM1022 585h-192v686h192v-686zM1881 1463h-420v-242q0 -55 43 -91.5t105 -36.5t103 36.5t41 91.5v50h128v-50q0 -101 -84.5 -172t-189.5 -71t-187.5 71t-82.5 172v242q-46 0 -82.5 36.5t-36.5 82.5v343
q0 50 36.5 86.5t82.5 36.5h535q50 0 89 -34.5t39 -79.5v-343q0 -50 -36.5 -89t-82.5 -39z" />
</svg>
