<?xml version="1.0" standalone="no"?>
<!DOCTYPE svg PUBLIC "-//W3C//DTD SVG 1.1//EN" "http://www.w3.org/Graphics/SVG/1.1/DTD/svg11.dtd" >
<svg xmlns="http://www.w3.org/2000/svg" xmlns:xlink="http://www.w3.org/1999/xlink" version="1.1" width="2048" height="2048" viewBox="-10 0 2058 2048">
   <path fill="currentColor"
d="M830 686h192v585h-192v-585zM1022 1847q-51 9 -96 9q-188 0 -343.5 -91.5t-246.5 -249t-91 -343t91 -343t246.5 -249t343.5 -91.5q201 0 368 110t249 288l64 -9q73 0 155 27q-50 -155 -151 -279l138 -141q-69 -78 -138 -138l-137 142q-114 -91 -255.5 -143.5
t-292.5 -52.5q-238 0 -439 118.5t-320 320t-119 439t119 441t320 320t439 116.5q50 0 119 -9q-23 -60 -23 -114v-78zM1218 0h-585v197h585v-197zM2000 1591v343q0 45 -39 79.5t-89 34.5h-535q-46 0 -82.5 -36.5t-36.5 -86.5v-343q0 -46 36.5 -82.5t82.5 -36.5v-146
q0 -101 82.5 -172t187.5 -71t189.5 71t84.5 172v146q46 0 82.5 39t36.5 89zM1753 1317q0 -55 -41 -89.5t-103 -34.5t-105 34.5t-43 89.5v146h292v-146z" />
</svg>
