<?xml version="1.0" standalone="no"?>
<!DOCTYPE svg PUBLIC "-//W3C//DTD SVG 1.1//EN" "http://www.w3.org/Graphics/SVG/1.1/DTD/svg11.dtd" >
<svg xmlns="http://www.w3.org/2000/svg" xmlns:xlink="http://www.w3.org/1999/xlink" version="1.1" width="2048" height="2048" viewBox="-10 0 2058 2048">
   <path fill="currentColor"
d="M1877 1207q-101 -37 -197 -37q0 -183 -91.5 -340.5t-247 -249t-343 -91.5t-342.5 91.5t-246.5 249t-91.5 343t91.5 343t246.5 249t343 91.5q41 0 105 -9q14 96 59 187q-82 14 -164 14q-238 0 -439 -116.5t-320 -320t-119 -441t119 -439t320 -320t439 -118.5
q151 0 292.5 52.5t255.5 143.5l138 -142q68 60 137 138l-137 141q91 115 141.5 254t50.5 290v37zM903 1271h192v-585h-192v585zM1291 0h-585v197h585v-197zM1744 1513v489h183v-489h-183zM1438 2002h183v-489h-183v489z" />
</svg>
