<?xml version="1.0" standalone="no"?>
<!DOCTYPE svg PUBLIC "-//W3C//DTD SVG 1.1//EN" "http://www.w3.org/Graphics/SVG/1.1/DTD/svg11.dtd" >
<svg xmlns="http://www.w3.org/2000/svg" xmlns:xlink="http://www.w3.org/1999/xlink" version="1.1" width="2048" height="2048" viewBox="-10 0 2058 2048">
   <path fill="currentColor"
d="M1218 197h-585v-197h585v197zM1648 951l-818 818v274q-220 -22 -398 -145.5t-281 -313.5t-103 -414q0 -237 119 -438.5t320 -320t439 -118.5q151 0 292.5 52.5t255.5 143.5l137 -142q69 60 138 138l-138 141q96 119 142 261q-59 18 -105 64zM1022 585h-192v686h192v-686z
M1022 1851v197h201l599 -594l-201 -201zM1982 1216l-128 -128q-14 -14 -34.5 -14t-34.5 14l-96 96l201 201l92 -96q18 -14 18 -34.5t-18 -38.5z" />
</svg>
