<?xml version="1.0" standalone="no"?>
<!DOCTYPE svg PUBLIC "-//W3C//DTD SVG 1.1//EN" "http://www.w3.org/Graphics/SVG/1.1/DTD/svg11.dtd" >
<svg xmlns="http://www.w3.org/2000/svg" xmlns:xlink="http://www.w3.org/1999/xlink" version="1.1" width="2048" height="2048" viewBox="-10 0 2058 2048">
   <path fill="currentColor"
d="M830 686h192v585h-192v-585zM1022 1847q-51 9 -96 9q-188 0 -343.5 -91.5t-246.5 -249t-91 -343t91 -343t246.5 -249t343.5 -91.5q173 0 324 82.5t247 223.5q60 -13 110 -13t110 13q-42 -91 -106 -169l138 -141q-69 -78 -138 -138l-137 142q-114 -91 -255.5 -143.5
t-292.5 -52.5q-238 0 -439 118.5t-320 320t-119 439t119 441t320 320t439 116.5q50 0 119 -9q-23 -60 -23 -114v-78zM1218 0h-585v197h585v-197zM1881 1463h-420v-242q0 -55 43 -91.5t105 -36.5t103 36.5t41 91.5v50h128v-50q0 -101 -84.5 -172t-189.5 -71t-187.5 71
t-82.5 172v242q-46 0 -82.5 36.5t-36.5 82.5v343q0 50 36.5 86.5t82.5 36.5h535q50 0 89 -34.5t39 -79.5v-343q0 -50 -36.5 -89t-82.5 -39z" />
</svg>
