<?xml version="1.0" standalone="no"?>
<!DOCTYPE svg PUBLIC "-//W3C//DTD SVG 1.1//EN" "http://www.w3.org/Graphics/SVG/1.1/DTD/svg11.dtd" >
<svg xmlns="http://www.w3.org/2000/svg" xmlns:xlink="http://www.w3.org/1999/xlink" version="1.1" width="2048" height="2048" viewBox="-10 0 2058 2048">
   <path fill="currentColor"
d="M1269 197h-586v-197h586v197zM1072 1417q0 238 238 567q-160 64 -334 64q-238 0 -439 -116.5t-320 -320t-119 -441t119 -439t320 -320t439 -118.5q151 0 292.5 52.5t256.5 143.5l137 -142q68 60 137 138l-137 141q105 133 155 297q-100 -45 -206 -45q-146 0 -269.5 73
t-196.5 196.5t-73 269.5zM1072 1271v-686h-192v686h192zM1950 1417q0 156 -169 412q-87 128 -170 219l-91 -105q-101 -133 -165 -252q-86 -164 -86 -274q0 -142 100.5 -242.5t240 -100.5t240 100.5t100.5 242.5zM1726 1426q0 -45 -36.5 -82t-80 -37t-80 34.5t-36.5 82.5
t34 82.5t84.5 34.5t87 -37t27.5 -78z" />
</svg>
