<?xml version="1.0" standalone="no"?>
<!DOCTYPE svg PUBLIC "-//W3C//DTD SVG 1.1//EN" "http://www.w3.org/Graphics/SVG/1.1/DTD/svg11.dtd" >
<svg xmlns="http://www.w3.org/2000/svg" xmlns:xlink="http://www.w3.org/1999/xlink" version="1.1" width="2048" height="2048" viewBox="-10 0 2058 2048">
   <path fill="currentColor"
d="M1022 1271h-192v-585h192v585zM1218 0h-585v197h585v-197zM245 1170q0 -183 91 -340.5t246.5 -249t343.5 -91.5q237 0 422.5 146.5t240.5 374.5l59 -59q46 -46 105 -64q-46 -142 -142 -261l138 -141q-69 -78 -138 -138l-137 142q-114 -91 -255.5 -143.5t-292.5 -52.5
q-238 0 -439 118.5t-320 320t-119 438.5q0 224 103 414t281 313.5t398 145.5v-196q-165 -23 -300 -119t-210 -242.5t-75 -315.5zM1022 1851v197h201l599 -594l-201 -201zM1982 1216l-128 -128q-14 -14 -34.5 -14t-34.5 14l-96 96l201 201l92 -96q18 -14 18 -34.5t-18 -38.5z
" />
</svg>
