<?xml version="1.0" standalone="no"?>
<!DOCTYPE svg PUBLIC "-//W3C//DTD SVG 1.1//EN" "http://www.w3.org/Graphics/SVG/1.1/DTD/svg11.dtd" >
<svg xmlns="http://www.w3.org/2000/svg" xmlns:xlink="http://www.w3.org/1999/xlink" version="1.1" width="2048" height="2048" viewBox="-10 0 2058 2048">
   <path fill="currentColor"
d="M903 686h192v585h-192v-585zM999 1856q-188 0 -343 -91.5t-246.5 -249t-91.5 -343t91.5 -343t246.5 -249t342.5 -91.5t343 91.5t247 249t91.5 340.5q96 0 197 37v-37q0 -151 -50.5 -290t-141.5 -254l137 -141q-69 -78 -137 -138l-138 142q-114 -91 -255.5 -143.5
t-292.5 -52.5q-238 0 -439 118.5t-320 320t-119 439t119 441t320 320t439 116.5q82 0 164 -14q-45 -91 -59 -187q-64 9 -105 9zM1291 0h-585v197h585v-197zM1438 1513v489h489v-489h-489z" />
</svg>
