<?xml version="1.0" standalone="no"?>
<!DOCTYPE svg PUBLIC "-//W3C//DTD SVG 1.1//EN" "http://www.w3.org/Graphics/SVG/1.1/DTD/svg11.dtd" >
<svg xmlns="http://www.w3.org/2000/svg" xmlns:xlink="http://www.w3.org/1999/xlink" version="1.1" width="2048" height="2048" viewBox="-10 0 2058 2048">
   <path fill="currentColor"
d="M1006 460q-99 0 -169 70t-70 169t70 169t169 70t169 -70t70 -169t-70 -169t-169 -70zM1389 1471v189h194v388h194v-388h190v-189h-578zM974 1128l-771 821l-122 -122l708 -753q86 49 185 54zM1678 699q0 190 -99 375q-63 108 -140 189q-50 50 -135 113q-72 59 -100 86
q-45 49 -67 112q-41 131 -102 212.5t-160 130.5q-77 32 -160 32t-157.5 -34t-128.5 -93l139 -139q55 76 149 76q41 0 72 -18q55 -27 93 -76.5t72 -149t102 -175.5q40 -45 130 -113q77 -63 113 -99q63 -63 108 -145q82 -139 82 -284q0 -131 -65.5 -241.5t-176 -175.5
t-241.5 -65t-241.5 65t-176 175.5t-65.5 241.5h-189q0 -185 88 -340.5t243.5 -243.5t340.5 -88t340.5 88t243.5 243.5t88 340.5zM1619 230l226 -230l122 122l-257 261q-36 -81 -91 -153z" />
</svg>
