<?xml version="1.0" standalone="no"?>
<!DOCTYPE svg PUBLIC "-//W3C//DTD SVG 1.1//EN" "http://www.w3.org/Graphics/SVG/1.1/DTD/svg11.dtd" >
<svg xmlns="http://www.w3.org/2000/svg" xmlns:xlink="http://www.w3.org/1999/xlink" version="1.1" width="2048" height="2048" viewBox="-10 0 2058 2048">
   <path fill="currentColor"
d="M1209 187h-558v-187h558v187zM1022 1534q0 218 139 388q-117 30 -231 30q-226 0 -418 -111t-305 -305t-113 -420.5t113 -418.5t305 -305t418 -113q144 0 279 50t244 137l131 -135q65 57 131 131l-131 135q122 152 166 344q-66 -9 -122 -9q-166 0 -303.5 81t-220 220.5
t-82.5 300.5zM1022 558h-183v653h183v-653zM1580 1163v-139l-210 209l210 209v-139q95 0 165 67.5t70 163.5q0 56 -26 104l100 101q65 -92 65 -205q0 -153 -109 -262t-265 -109zM1580 1769q-96 0 -163.5 -69.5t-67.5 -165.5q0 -52 26 -105l-105 -100q-61 96 -61 205
q0 157 109 266t262 109v139l209 -209l-209 -209v139z" />
</svg>
