<?xml version="1.0" standalone="no"?>
<!DOCTYPE svg PUBLIC "-//W3C//DTD SVG 1.1//EN" "http://www.w3.org/Graphics/SVG/1.1/DTD/svg11.dtd" >
<svg xmlns="http://www.w3.org/2000/svg" xmlns:xlink="http://www.w3.org/1999/xlink" version="1.1" width="2048" height="2048" viewBox="-10 0 2058 2048">
   <path fill="currentColor"
d="M1269 197h-586v-197h586v197zM1072 1755q0 151 69 279q-83 14 -165 14q-238 0 -439 -116.5t-320 -320t-119 -441t119 -439t320 -320t439 -118.5q151 0 292.5 52.5t256.5 143.5l137 -142q68 60 137 138l-137 141q91 115 141.5 254t50.5 290v37q-101 -37 -197 -37
q-155 0 -290 80t-215 215t-80 290zM1072 585h-192v686h192v-686zM1465 1463v585l485 -293z" />
</svg>
