<?xml version="1.0" standalone="no"?>
<!DOCTYPE svg PUBLIC "-//W3C//DTD SVG 1.1//EN" "http://www.w3.org/Graphics/SVG/1.1/DTD/svg11.dtd" >
<svg xmlns="http://www.w3.org/2000/svg" xmlns:xlink="http://www.w3.org/1999/xlink" version="1.1" width="2048" height="2048" viewBox="-10 0 2058 2048">
   <path fill="currentColor"
d="M1263 192h-571v-192h571v192zM977 1669q0 174 94 325q-31 5 -94 5q-232 0 -428.5 -114t-312.5 -312.5t-116 -430.5t116 -428t312.5 -312t428.5 -116q147 0 285.5 51t250.5 140l133 -138q67 58 134 134l-134 138q170 210 188 487q-116 -49 -237 -49q-169 0 -312 82.5
t-225.5 225t-82.5 312.5zM1071 571h-188v669h188v-669zM1928 1669v-384l-112 112q-112 -112 -268 -112t-267.5 111.5t-111.5 270t111.5 270t267.5 111.5q121 0 217 -64.5t136 -171.5h-161q-36 44 -85 68.5t-107 24.5q-98 0 -167 -69t-69 -167t69 -169.5t167 -71.5t170 71
l-170 170h380z" />
</svg>
