<?xml version="1.0" standalone="no"?>
<!DOCTYPE svg PUBLIC "-//W3C//DTD SVG 1.1//EN" "http://www.w3.org/Graphics/SVG/1.1/DTD/svg11.dtd" >
<svg xmlns="http://www.w3.org/2000/svg" xmlns:xlink="http://www.w3.org/1999/xlink" version="1.1" width="2048" height="2048" viewBox="-10 0 2058 2048">
   <path fill="currentColor"
d="M883 669h188v571h-188v-571zM1263 0h-571v192h571v-192zM977 1812q-183 0 -334.5 -89.5t-241 -243.5t-89.5 -334.5t89.5 -334.5t241 -243.5t334.5 -89.5q165 0 308 76t236.5 207.5t116.5 292.5q107 4 196 45q-18 -277 -188 -487l134 -138q-67 -76 -134 -134l-133 138
q-112 -89 -250.5 -140t-285.5 -51q-232 0 -428.5 116t-312.5 312t-116 428t116 430.5t312.5 312.5t428.5 114q63 0 94 -5q-54 -84 -76 -182h-18zM1928 1669v-384l-112 112q-112 -112 -268 -112t-267.5 111.5t-111.5 270t111.5 270t267.5 111.5q121 0 217 -64.5t136 -171.5
h-161q-36 44 -85 68.5t-107 24.5q-98 0 -167 -69t-69 -167t69 -169.5t167 -71.5t170 71l-170 170h380z" />
</svg>
