<?xml version="1.0" standalone="no"?>
<!DOCTYPE svg PUBLIC "-//W3C//DTD SVG 1.1//EN" "http://www.w3.org/Graphics/SVG/1.1/DTD/svg11.dtd" >
<svg xmlns="http://www.w3.org/2000/svg" xmlns:xlink="http://www.w3.org/1999/xlink" version="1.1" width="2048" height="2048" viewBox="-10 0 2058 2048">
   <path fill="currentColor"
d="M839 654h183v557h-183v-557zM930 1769q-178 0 -326.5 -87t-235.5 -237.5t-87 -327t87 -326.5t235.5 -237.5t326.5 -87.5q218 0 392.5 133t230.5 338q27 -5 75 -5q56 0 122 9q-44 -192 -166 -344l131 -135q-66 -74 -131 -131l-131 135q-109 -87 -244 -137t-279 -50
q-226 0 -418 113t-305 305t-113 418.5t113 420.5t305 305t418 111q114 0 231 -30q-61 -74 -96 -170q-61 17 -135 17zM1209 0h-558v187h558v-187zM1580 1163v-139l-210 209l210 209v-139q95 0 165 67.5t70 163.5q0 56 -26 104l100 101q65 -92 65 -205q0 -153 -109 -262
t-265 -109zM1580 1769q-96 0 -163.5 -69.5t-67.5 -165.5q0 -52 26 -105l-105 -100q-61 96 -61 205q0 157 109 266t262 109v139l209 -209l-209 -209v139z" />
</svg>
