<?xml version="1.0" standalone="no"?>
<!DOCTYPE svg PUBLIC "-//W3C//DTD SVG 1.1//EN" "http://www.w3.org/Graphics/SVG/1.1/DTD/svg11.dtd" >
<svg xmlns="http://www.w3.org/2000/svg" xmlns:xlink="http://www.w3.org/1999/xlink" version="1.1" width="2048" height="2048" viewBox="-10 0 2068 2048">
   <path fill="currentColor"
d="M959 502q0 43 -8.5 85t-26.5 81t-44.5 69t-65 48.5t-84.5 18.5q-57 0 -109 -27.5t-89.5 -72t-65.5 -100.5t-42 -113.5t-14 -109.5q0 -43 8.5 -85t27 -81t45 -69.5t65 -48.5t84.5 -18q57 0 109.5 27.5t89.5 72t65 100.5t41.5 113.5t13.5 109.5zM539 1097q0 62 -20 116
t-66.5 90.5t-111.5 36.5q-57 0 -110.5 -26t-94.5 -70t-72 -98t-47.5 -112.5t-16.5 -112.5q0 -62 20.5 -116.5t67 -91.5t110.5 -37q57 0 111 26.5t95 70.5t72 98.5t47 113t16 112.5zM1024 1063q73 0 157 34t161 89.5t149 130t125 154t85 163t32 154.5q0 45 -15 78.5t-38 52.5
t-57.5 31t-68 15.5t-75.5 3.5q-55 0 -118.5 -17.5t-112 -38t-110.5 -38t-114 -17.5q-55 0 -120 17t-116.5 37.5t-119.5 38t-127 17.5q-48 0 -86.5 -9t-71 -28.5t-50.5 -56t-18 -86.5q0 -71 32 -155t85 -163t125 -153.5t149 -130.5t161 -89.5t157 -33.5zM1318 804
q-46 0 -84.5 -18.5t-65 -48.5t-45 -69t-27 -81t-8.5 -85q0 -52 13.5 -109.5t41.5 -113.5t65 -100.5t89.5 -72t109.5 -27.5q46 0 85 18t65 48.5t45 69.5t27.5 81t8.5 85q0 52 -14 109.5t-42 113.5t-65.5 100.5t-89.5 72t-109 27.5zM1850 676q64 0 110.5 37t67 91.5
t20.5 116.5q0 54 -16.5 112.5t-47.5 112.5t-72 98t-94.5 70t-110.5 26q-65 0 -111.5 -36.5t-66.5 -90.5t-20 -116q0 -54 16 -112.5t47 -113t72 -98.5t95 -70.5t111 -26.5z" />
</svg>
