<?xml version="1.0" standalone="no"?>
<!DOCTYPE svg PUBLIC "-//W3C//DTD SVG 1.1//EN" "http://www.w3.org/Graphics/SVG/1.1/DTD/svg11.dtd" >
<svg xmlns="http://www.w3.org/2000/svg" xmlns:xlink="http://www.w3.org/1999/xlink" version="1.1" width="2048" height="2048" viewBox="-10 0 2068 2048">
   <path fill="currentColor"
d="M1848 467h-511v124h511v-124zM1596 893q-90 0 -146.5 52.5t-62.5 142.5h409q-9 -93 -58.5 -144t-141.5 -51zM1611 1478q63 0 122.5 -32.5t76.5 -86.5h221q-51 156 -157 231.5t-270 75.5q-142 0 -248.5 -60.5t-163 -168.5t-56.5 -250q0 -136 58.5 -246t165.5 -173.5
t244 -63.5q104 0 189 39.5t140.5 107t85 157t29.5 191.5q0 2 -3 47h-658q0 110 57.5 171t166.5 61zM277 1428h296q44 0 79.5 -8.5t64.5 -27.5t45 -52t16 -79q0 -180 -199 -180h-302v347zM277 891h281q78 0 123.5 -36.5t45.5 -113.5q0 -42 -15 -71.5t-43 -44.5t-59.5 -21
t-72.5 -6h-260v293zM0 382h594q69 0 125.5 8t109.5 29.5t88.5 56t57 90t21.5 128.5q0 93 -42.5 157.5t-128.5 105.5q114 32 172 115t58 204q0 75 -24.5 136.5t-66 103.5t-98.5 71t-121 42t-134 13h-611v-1260z" />
</svg>
