<?xml version="1.0" standalone="no"?>
<!DOCTYPE svg PUBLIC "-//W3C//DTD SVG 1.1//EN" "http://www.w3.org/Graphics/SVG/1.1/DTD/svg11.dtd" >
<svg xmlns="http://www.w3.org/2000/svg" xmlns:xlink="http://www.w3.org/1999/xlink" version="1.1" width="2048" height="2048" viewBox="-10 0 2068 2048">
   <path fill="currentColor"
d="M1664 0q105 0 193 51.5t139.5 139.5t51.5 193v1280q0 105 -51.5 193t-139.5 139.5t-193 51.5h-1280q-105 0 -193 -51.5t-139.5 -139.5t-51.5 -193v-1280q0 -105 51.5 -193t139.5 -139.5t193 -51.5h1280zM665 489h-495v1050h510q74 0 138.5 -18t117 -53.5t83 -95.5
t30.5 -137q0 -101 -48 -170t-142 -96q142 -70 142 -220q0 -61 -18 -107t-48 -74.5t-74 -46.5t-91.5 -25t-104.5 -7zM636 914h-235v-247h217q159 0 159 121q0 64 -37.5 95t-103.5 31zM648 1361h-247v-290h252q166 0 166 151q0 139 -171 139zM1515 1403q-91 0 -139 -51
t-48 -143h548q2 -13 2 -40q0 -84 -25 -158.5t-71 -131t-117 -89.5t-158 -33q-114 0 -203 53.5t-137.5 145t-48.5 204.5q0 179 105 289t284 110q138 0 226.5 -62.5t130.5 -191.5h-185q-14 45 -63 71.5t-101 26.5zM1502 915q76 0 117 42.5t49 119.5h-340q5 -75 52 -118.5
t122 -43.5zM1286 560h425v103h-425v-103z" />
</svg>
