<?xml version="1.0" standalone="no"?>
<!DOCTYPE svg PUBLIC "-//W3C//DTD SVG 1.1//EN" "http://www.w3.org/Graphics/SVG/1.1/DTD/svg11.dtd" >
<svg xmlns="http://www.w3.org/2000/svg" xmlns:xlink="http://www.w3.org/1999/xlink" version="1.1" width="2048" height="2048" viewBox="-10 0 2068 2048">
   <path fill="currentColor"
d="M1808 665.5q0 115.5 -82 197t-197 81.5t-197 -81.5t-82 -197t82 -197.5t197 -82t197 82t82 197.5zM928 1513.5q0 -119.5 -83.5 -202.5t-202.5 -83q-32 0 -61 6l118 48q88 36 125 122t2 173.5t-121.5 124t-174.5 0.5q-23 -9 -70 -27.5t-70 -28.5q37 69 104 110.5t148 41.5
q119 0 202.5 -82.5t83.5 -202zM1877 666q0 -94 -47 -174.5t-127.5 -127t-174.5 -46.5q-95 0 -175.5 46.5t-127.5 127t-47 174.5q0 95 47 175.5t127.5 126.5t175.5 46t175 -46t127 -126.5t47 -175.5zM2048 666q0 107 -41 203t-111 165.5t-166 110.5t-202 41l-499 364
q-14 149 -125.5 250.5t-261.5 101.5q-138 0 -244 -87t-135 -219l-263 -106v-490l445 180q91 -56 197 -56q14 0 40 2l325 -464q1 -105 42.5 -200.5t111 -164.5t166 -110t201.5 -41q106 0 202 41.5t166 111t111 166t41 201.5z" />
</svg>
