<?xml version="1.0" standalone="no"?>
<!DOCTYPE svg PUBLIC "-//W3C//DTD SVG 1.1//EN" "http://www.w3.org/Graphics/SVG/1.1/DTD/svg11.dtd" >
<svg xmlns="http://www.w3.org/2000/svg" xmlns:xlink="http://www.w3.org/1999/xlink" version="1.1" width="2048" height="2048" viewBox="-10 0 2068 2048">
   <path fill="currentColor"
d="M1656 692q0 -106 -75.5 -182t-182.5 -76q-106 0 -182 76t-76 182q0 107 76 182.5t182 75.5q107 0 182.5 -75.5t75.5 -182.5zM843 1476q0 110 -77 187t-187 77q-75 0 -137.5 -38.5t-96.5 -102.5q52 20 131 53q80 33 160 -1.5t113 -115.5q33 -80 -1 -160t-116 -112
l-109 -45q29 -6 56 -6q110 0 187 77t77 187zM2048 384v1280q0 105 -51.5 193t-139.5 139.5t-193 51.5h-1280q-105 0 -193 -51.5t-139.5 -139.5t-51.5 -193v-204l230 92q26 122 124 202t225 80q139 0 241.5 -93t115.5 -230l461 -336q98 0 187.5 -38t153.5 -103t102 -153.5
t38 -186.5t-38 -187t-102 -153.5t-153.5 -102t-187.5 -37.5q-97 0 -185.5 37.5t-153 101.5t-103 152t-39.5 185l-300 429q-12 -1 -37 -1q-100 0 -183 49l-396 -159v-624q0 -105 51.5 -193t139.5 -139.5t193 -51.5h1280q105 0 193 51.5t139.5 139.5t51.5 193zM1719 694
q0 88 -43 162t-117 117t-162 43q-87 0 -161.5 -43t-117.5 -117t-43 -162q0 -87 43 -161.5t117.5 -117.5t161.5 -43q134 0 228 94t94 228z" />
</svg>
