<?xml version="1.0" standalone="no"?>
<!DOCTYPE svg PUBLIC "-//W3C//DTD SVG 1.1//EN" "http://www.w3.org/Graphics/SVG/1.1/DTD/svg11.dtd" >
<svg xmlns="http://www.w3.org/2000/svg" xmlns:xlink="http://www.w3.org/1999/xlink" version="1.1" width="2048" height="2048" viewBox="-10 0 2069 2048">
   <path fill="currentColor"
d="M954 1392l-18 427l-2 26l-488 -34q-42 -3 -78 -36.5t-55 -76.5q-11 -26 -14.5 -56t-1.5 -55.5t10.5 -60.5t15.5 -56t20.5 -58t18.5 -53q90 15 592 33zM504 710l209 441l-171 -107q-73 84 -129.5 168.5t-84.5 145t-45.5 109.5t-21.5 73l-5 25l-220 -415
q-13 -19 -18.5 -40.5t-3.5 -38.5t5.5 -31.5t7.5 -22.5l4 -8q40 -73 132 -219l-163 -100zM1936 1312l-219 417q-9 21 -23.5 37t-30 24.5t-29 13.5t-22.5 6l-9 1q-83 8 -254 15l9 190l-268 -427l245 -421l9 202q118 13 212.5 12t165.5 -12t118.5 -24t71.5 -24zM1023 237
q-56 73 -308 506l-369 -218l-22 -14l261 -414q23 -36 70 -52.5t93 -11.5q28 3 56.5 14.5t49 24t48.5 38.5t41.5 39.5t42.5 46t37 41.5zM1784 594l248 421q15 25 16 57.5t-8.5 62.5t-25.5 55q-15 24 -38.5 43.5t-45 32t-55.5 25.5t-54.5 18.5t-60 16t-53.5 14.5
q-40 -83 -309 -507l365 -227zM1618 330l165 -96l-255 434l-488 -23l176 -100q-39 -104 -86.5 -193.5t-88 -143.5t-75.5 -93t-54 -54l-20 -16l471 1q23 -2 44 4t35 15.5t25 19.5t16 17l5 8q46 71 130 220z" />
</svg>
