<?xml version="1.0" standalone="no"?>
<!DOCTYPE svg PUBLIC "-//W3C//DTD SVG 1.1//EN" "http://www.w3.org/Graphics/SVG/1.1/DTD/svg11.dtd" >
<svg xmlns="http://www.w3.org/2000/svg" xmlns:xlink="http://www.w3.org/1999/xlink" version="1.1" width="2048" height="2048" viewBox="-10 0 2068 2048">
   <path fill="currentColor"
d="M480 1184q0 -66 -47 -113t-113 -47t-113 47t-47 113t47 113t113 47t113 -47t47 -113zM516 864h1016l-89 -357q-2 -9 -14 -18t-21 -9h-768q-10 0 -22 9t-13 18zM1888 1184q0 -66 -47 -113t-113 -47t-113 47t-47 113t47 113t113 47t113 -47t47 -113zM2048 1088v384
q0 14 -9.5 23t-22.5 9h-97v128q0 79 -56 135.5t-135.5 56.5t-136 -56.5t-56.5 -135.5v-128h-1023v128q0 79 -56 135.5t-135.5 56.5t-136 -56.5t-56.5 -135.5v-128h-96q-13 0 -22.5 -9t-9.5 -23v-384q0 -93 65.5 -158.5t158.5 -65.5h28l105 -419q23 -95 104 -158t179 -63h768
q98 0 179 63.5t104 157.5l105 419h28q93 0 158.5 65.5t65.5 158.5z" />
</svg>
