<?xml version="1.0" standalone="no"?>
<!DOCTYPE svg PUBLIC "-//W3C//DTD SVG 1.1//EN" "http://www.w3.org/Graphics/SVG/1.1/DTD/svg11.dtd" >
<svg xmlns="http://www.w3.org/2000/svg" xmlns:xlink="http://www.w3.org/1999/xlink" version="1.1" width="2048" height="2048" viewBox="-10 0 2068 2048">
   <path fill="currentColor"
d="M1824 1024q93 0 158.5 65.5t65.5 158.5v383q0 14 -9.5 23.5t-22.5 9.5h-97v63q0 80 -56 136.5t-135.5 56.5t-136 -56.5t-56.5 -136.5v-63h-1023v63q0 80 -56 136.5t-135.5 56.5t-136 -56.5t-56.5 -136.5v-63h-96q-13 0 -22.5 -9.5t-9.5 -23.5v-383q0 -93 65.5 -158.5
t158.5 -65.5h28l105 -419q23 -95 104 -158t179 -63h128v-224q0 -14 9 -23t23 -9h448q13 0 22.5 9t9.5 23v224h128q97 0 178.5 63.5t104.5 157.5l105 419h28zM320 1503q66 0 113 -46.5t47 -113t-47 -113.5t-113 -47t-113 47t-47 113.5t47 113t113 46.5zM516 1024h1016
l-89 -357q-2 -8 -14 -17.5t-21 -9.5h-768q-10 0 -22 9.5t-13 17.5zM1728 1503q66 0 113 -46.5t47 -113t-47 -113.5t-113 -47t-113 47t-47 113.5t47 113t113 46.5z" />
</svg>
