<?xml version="1.0" standalone="no"?>
<!DOCTYPE svg PUBLIC "-//W3C//DTD SVG 1.1//EN" "http://www.w3.org/Graphics/SVG/1.1/DTD/svg11.dtd" >
<svg xmlns="http://www.w3.org/2000/svg" xmlns:xlink="http://www.w3.org/1999/xlink" version="1.1" width="2048" height="2048" viewBox="-10 0 2068 2048">
   <path fill="currentColor"
d="M1503 1442q0 -26 -9 -40t-31 -27q-255 -153 -596 -153q-176 0 -383 45q-56 13 -56 69q0 27 18.5 46.5t47.5 19.5q5 0 13 -2t19 -5t17 -4q178 -36 324 -36q303 0 530 138q24 14 43 14q26 0 44.5 -18.5t18.5 -46.5zM1631 1156q0 -54 -46 -81q-153 -91 -342 -139.5
t-390 -48.5q-118 0 -211.5 14.5t-192.5 41.5q-64 17 -64 85q0 33 23.5 57t57.5 24q8 0 14.5 -1.5t18 -5.5t16.5 -5q157 -43 335 -43q185 0 353.5 44t297.5 120q32 18 50 18q34 0 57 -23t23 -57zM1775 825q0 -62 -54 -93q-168 -98 -390.5 -148t-456.5 -50q-273 0 -485 63
q-31 9 -52 34t-21 65q0 41 27.5 69.5t68.5 28.5q9 0 18 -2t21 -5t15 -4q179 -50 409 -50q212 0 412.5 45.5t338.5 127.5q29 16 53 16q39 0 67.5 -28t28.5 -69zM2048 1024.5q0 139.5 -36.5 272t-102.5 245t-160.5 207t-207 160.5t-245 102.5t-272 36.5t-272 -36.5
t-245 -102.5t-207 -160.5t-160.5 -207t-103 -245t-37 -272t37 -272t103 -245t160.5 -207t207 -160.5t245 -103t272 -37t272 37t245 103t207 160.5t160.5 207t102.5 245t36.5 272z" />
</svg>
