<?xml version="1.0" standalone="no"?>
<!DOCTYPE svg PUBLIC "-//W3C//DTD SVG 1.1//EN" "http://www.w3.org/Graphics/SVG/1.1/DTD/svg11.dtd" >
<svg xmlns="http://www.w3.org/2000/svg" xmlns:xlink="http://www.w3.org/1999/xlink" version="1.1" width="2048" height="2048" viewBox="-10 0 2068 2048">
   <path fill="currentColor"
d="M697 1448l14 -215l-14 -465q-1 -9 -6.5 -15t-14.5 -6q-8 0 -14.5 6t-6.5 15l-13 465l13 215q1 8 7 14t14 6q9 0 14.5 -6t6.5 -14zM960 1421l10 -187l-11 -521q0 -14 -12 -22q-9 -4 -13.5 -4t-14.5 4q-11 8 -11 22l-1 5l-9 515q0 1 10 210v1q0 8 5 14q9 11 20 11
q10 0 18 -8q8 -7 8 -18zM31 1119l18 114l-18 112q-1 8 -8 8t-8 -8l-15 -112l15 -114q1 -7 8 -7t8 7zM107 1049l24 184l-24 180q-1 8 -8 8q-8 0 -8 -8l-21 -180l21 -184q0 -8 8 -8q7 0 8 8zM356 1451zM189 1015l23 218l-23 211q0 10 -9.5 10t-10.5 -10l-19 -211l19 -218
q1 -11 10.5 -11t9.5 11zM273 1009l20 224l-20 217q-1 12 -12 12q-5 0 -8.5 -3.5t-3.5 -8.5l-19 -217l19 -224q0 -5 3.5 -8.5t8.5 -3.5q11 0 12 12zM356 1025l19 208l-19 218q0 6 -4.5 10.5t-9.5 4.5t-9 -4.5t-4 -10.5l-18 -218l18 -208q0 -5 4 -9t9 -4t9.5 4t4.5 9z
M697 1448zM440 895l19 338l-19 218q0 7 -4.5 12t-10.5 5q-7 0 -11 -5t-5 -12l-16 -218l16 -338q1 -6 5 -11t11 -5q6 0 10.5 5t4.5 11zM523 819l18 415l-18 217q0 8 -5 13t-12 5q-15 0 -17 -18l-15 -217l15 -415q2 -17 17 -17q7 0 12 5t5 12zM611 783l16 450l-16 215
q-1 9 -6.5 14t-13.5 5q-7 0 -12.5 -5.5t-6.5 -13.5l-14 -215l14 -450q0 -8 6 -13.5t13 -5.5q8 0 13.5 5.5t6.5 13.5zM959 1443v0v0v0zM783 779l13 454l-13 212q0 10 -6.5 16.5t-15.5 6.5t-15 -6.5t-7 -16.5l-13 -212l13 -454q0 -9 6 -15t15.5 -6t16 6t6.5 15zM871 796
l13 438l-13 210q0 10 -7 17t-17 7t-17 -7t-8 -17l-11 -210l11 -438q1 -10 8 -17t17 -7t17 7t7 17zM1059 1234l-12 205v0q0 11 -8 19.5t-19 8.5t-19.5 -8.5t-9.5 -19.5l-6 -101l-4 -104l10 -566v-2q1 -13 11 -21q7 -6 18 -6q6 0 13 3q13 8 14 24zM2048 1217
q0 104 -73.5 177.5t-177.5 73.5h-699q-12 -1 -20 -9.5t-8 -20.5v-799q0 -11 5.5 -17.5t19.5 -11.5q77 -31 161 -31q114 0 212.5 54t159.5 146.5t71 204.5q47 -20 98 -20q104 0 177.5 74.5t73.5 178.5z" />
</svg>
