<?xml version="1.0" standalone="no"?>
<!DOCTYPE svg PUBLIC "-//W3C//DTD SVG 1.1//EN" "http://www.w3.org/Graphics/SVG/1.1/DTD/svg11.dtd" >
<svg xmlns="http://www.w3.org/2000/svg" xmlns:xlink="http://www.w3.org/1999/xlink" version="1.1" width="2048" height="2048" viewBox="-10 0 2058 2048">
   <path fill="currentColor"
d="M1024 877q271 0 506 -49t372 -145v194q0 59 -69.5 113.5t-187 93.5t-280 62.5t-341 23.5t-341 -23.5t-280 -62.5t-187.5 -93.5t-70 -113.5v-194q137 96 372 145t506 49zM1024 1755q271 0 506 -49t372 -145v194q0 59 -69.5 113.5t-187 93.5t-280 62.5t-341 23.5
t-341 -23.5t-280 -62.5t-187.5 -93.5t-70 -113.5v-194q137 96 372 145t506 49zM1024 1316q271 0 506 -49t372 -145v194q0 59 -69.5 113.5t-187 93.5t-280 62.5t-341 23.5t-341 -23.5t-280 -62.5t-187.5 -93.5t-70 -113.5v-194q137 96 372 145t506 49zM1024.5 0
q178.5 0 341 23t280 62.5t187 93.5t69.5 113v146q0 59 -69.5 113.5t-187 93.5t-280 62.5t-341 23.5t-341 -23.5t-280 -62.5t-187.5 -93.5t-70 -113.5v-146q0 -59 70 -113t187.5 -93.5t280 -62.5t341 -23z" />
</svg>
