<?xml version="1.0" standalone="no"?>
<!DOCTYPE svg PUBLIC "-//W3C//DTD SVG 1.1//EN" "http://www.w3.org/Graphics/SVG/1.1/DTD/svg11.dtd" >
<svg xmlns="http://www.w3.org/2000/svg" xmlns:xlink="http://www.w3.org/1999/xlink" version="1.1" width="2048" height="2048" viewBox="-10 0 2058 2048">
   <path fill="currentColor"
d="M1824 434q32 32 55 86.5t23 100.5v1317q0 46 -32 78t-78 32h-1536q-45 0 -77.5 -32t-32.5 -78v-1829q0 -46 32.5 -77.5t77.5 -31.5h1024q46 0 101 22.5t87 54.5zM1316 155v430h430q-12 -35 -24 -47l-358 -358q-13 -12 -48 -25zM1756 1901v-1170h-476q-45 0 -77.5 -32
t-32.5 -78v-475h-878v1755h1464zM1168 1224q34 26 96 64q64 -8 134 -8q168 0 202 56q19 25 2 59q0 1 -1 3l-1 2v1q-7 43 -82 43q-55 0 -131.5 -22.5t-148.5 -60.5q-250 27 -448 95q-89 152 -157 225.5t-119 73.5q-19 0 -32 -8l-28 -14q-2 -1 -6 -5q-12 -11 -8 -42
q10 -46 64 -104.5t152 -109.5q15 -10 26 6q2 2 2 5q59 -98 122 -225q80 -162 118 -300q-27 -94 -34.5 -182.5t8.5 -145.5q12 -45 48 -45h24q27 0 40 17q21 23 10 78q-2 8 -4 9q2 3 2 9v34q-2 141 -16 220q61 186 166 272zM510 1693q60 -29 156 -180q-58 45 -100 95.5
t-56 84.5zM964 642q-16 48 -2 151q6 -36 8 -51q2 -11 5 -28t3 -21l6 -9l-4 -6q-1 -25 -14 -41q0 1 -1 3zM824 1397q149 -59 324 -92q-4 -3 -11 -8.5t-12.5 -10t-10.5 -8.5q-85 -75 -144 -201q-31 98 -96 225q-34 64 -50 95zM1562 1379q-28 -27 -160 -27q85 32 142 32
q10 0 20 -2q0 -1 -2 -3z" />
</svg>
