<?xml version="1.0" standalone="no"?>
<!DOCTYPE svg PUBLIC "-//W3C//DTD SVG 1.1//EN" "http://www.w3.org/Graphics/SVG/1.1/DTD/svg11.dtd" >
<svg xmlns="http://www.w3.org/2000/svg" xmlns:xlink="http://www.w3.org/1999/xlink" version="1.1" width="2048" height="2048" viewBox="-10 0 2058 2048">
   <path fill="currentColor"
d="M1824 434q32 32 55 86.5t23 100.5v1317q0 46 -32 78t-78 32h-1536q-45 0 -77.5 -32t-32.5 -78v-1829q0 -46 32.5 -77.5t77.5 -31.5h1024q46 0 101 22.5t87 54.5zM1316 155v430h430q-12 -35 -24 -47l-358 -358q-13 -12 -48 -25zM1756 1901v-1170h-476q-45 0 -77.5 -32
t-32.5 -78v-475h-878v1755h1464zM1610 1389v366h-1170v-219l218 -220l146 146l440 -438zM658.5 1170q-90.5 0 -154.5 -64.5t-64 -155.5t64 -155t154.5 -64t155 64t64.5 155t-64.5 155.5t-155 64.5z" />
</svg>
