<?xml version="1.0" standalone="no"?>
<!DOCTYPE svg PUBLIC "-//W3C//DTD SVG 1.1//EN" "http://www.w3.org/Graphics/SVG/1.1/DTD/svg11.dtd" >
<svg xmlns="http://www.w3.org/2000/svg" xmlns:xlink="http://www.w3.org/1999/xlink" version="1.1" width="2048" height="2048" viewBox="-10 0 2058 2048">
   <path fill="currentColor"
d="M878 438v-146h-146v146h146zM1024 585v-147h-146v147h146zM878 731v-146h-146v146h146zM1024 877v-146h-146v146h146zM1824 434q32 32 55 86.5t23 100.5v1317q0 46 -32 78t-78 32h-1536q-45 0 -77.5 -32t-32.5 -78v-1829q0 -46 32.5 -77.5t77.5 -31.5h1024q46 0 101 22.5
t87 54.5zM1316 155v430h430q-12 -35 -24 -47l-358 -358q-13 -12 -48 -25zM1756 1901v-1170h-476q-45 0 -77.5 -32t-32.5 -78v-475h-146v146h-146v-146h-586v1755h1464zM1040 1077q43 146 73.5 245.5t39.5 126.5l9 27q8 28 8 60q0 95 -83 157t-209.5 62t-209 -62t-82.5 -157
q0 -32 8 -60q25 -71 138 -452v-147h146v147h90q25 0 45 14.5t27 38.5zM877.5 1609q60.5 0 103.5 -21.5t43 -51.5t-43 -52t-103.5 -22t-103 22t-42.5 52t42.5 51.5t103 21.5z" />
</svg>
