<?xml version="1.0" standalone="no"?>
<!DOCTYPE svg PUBLIC "-//W3C//DTD SVG 1.1//EN" "http://www.w3.org/Graphics/SVG/1.1/DTD/svg11.dtd" >
<svg xmlns="http://www.w3.org/2000/svg" xmlns:xlink="http://www.w3.org/1999/xlink" version="1.1" width="2048" height="2048" viewBox="-10 0 2058 2048">
   <path fill="currentColor"
d="M1824 434q32 32 55 86.5t23 100.5v1317q0 46 -32 78t-78 32h-1536q-45 0 -77.5 -32t-32.5 -78v-1829q0 -46 32.5 -77.5t77.5 -31.5h1024q46 0 101 22.5t87 54.5zM1316 155v430h430q-12 -35 -24 -47l-358 -358q-13 -12 -48 -25zM1756 1901v-1170h-476q-45 0 -77.5 -32
t-32.5 -78v-475h-878v1755h1464zM856 971q22 9 22 34v622q0 25 -22 34q-1 0 -6.5 1.5t-7.5 1.5q-14 0 -26 -11l-190 -191h-150q-16 0 -26 -10t-10 -26v-220q0 -16 10 -26t26 -10h150l190 -191q18 -17 40 -8zM1332 1758q34 0 56 -27q72 -88 110 -195t38 -220t-38 -220
t-110 -195q-18 -24 -48.5 -27t-53.5 16q-24 19 -27 49.5t17 54.5q114 140 114 322t-114 322q-20 24 -17 54t27 49q21 17 46 17zM1090 1589q32 0 54 -23q100 -107 100 -250t-100 -250q-20 -22 -50.5 -23t-53.5 19q-22 21 -23 51t21 53q60 65 60 150t-60 150q-22 23 -21 53
t23 51q22 19 50 19z" />
</svg>
