<?xml version="1.0" standalone="no"?>
<!DOCTYPE svg PUBLIC "-//W3C//DTD SVG 1.1//EN" "http://www.w3.org/Graphics/SVG/1.1/DTD/svg11.dtd" >
<svg xmlns="http://www.w3.org/2000/svg" xmlns:xlink="http://www.w3.org/1999/xlink" version="1.1" width="2048" height="2048" viewBox="-10 0 2058 2048">
   <path fill="currentColor"
d="M1824 434q32 32 55 86.5t23 100.5v1317q0 46 -32 78t-78 32h-1536q-45 0 -77.5 -32t-32.5 -78v-1829q0 -46 32.5 -77.5t77.5 -31.5h1024q46 0 101 22.5t87 54.5zM1316 155v430h430q-12 -35 -24 -47l-358 -358q-13 -12 -48 -25zM1756 1901v-1170h-476q-45 0 -77.5 -32
t-32.5 -78v-475h-878v1755h1464zM1024 877q60 0 103 43.5t43 103.5v438q0 60 -43 103.5t-103 43.5h-438q-60 0 -103 -43.5t-43 -103.5v-438q0 -60 43 -103.5t103 -43.5h438zM1586 880q24 10 24 34v658q0 24 -24 34l-5.5 1.5t-8.5 1.5q-14 0 -26 -11l-302 -304v-102l302 -304
q12 -11 26 -11q3 0 8.5 1.5z" />
</svg>
