<?xml version="1.0" standalone="no"?>
<!DOCTYPE svg PUBLIC "-//W3C//DTD SVG 1.1//EN" "http://www.w3.org/Graphics/SVG/1.1/DTD/svg11.dtd" >
<svg xmlns="http://www.w3.org/2000/svg" xmlns:xlink="http://www.w3.org/1999/xlink" version="1.1" width="2048" height="2048" viewBox="-10 0 2058 2048">
   <path fill="currentColor"
d="M1824 434q32 32 55 86.5t23 100.5v1317q0 46 -32 78t-78 32h-1536q-45 0 -77.5 -32t-32.5 -78v-1829q0 -46 32.5 -77.5t77.5 -31.5h1024q46 0 101 22.5t87 54.5zM1316 155v430h430q-12 -35 -24 -47l-358 -358q-13 -12 -48 -25zM1756 1901v-1170h-476q-45 0 -77.5 -32
t-32.5 -78v-475h-878v1755h1464zM696 877q9 -12 23.5 -14.5t26.5 7.5l58 44q13 10 15 24.5t-7 26.5l-208 278l208 278q9 12 7 26.5t-15 24.5l-58 44q-12 10 -26.5 7.5t-23.5 -14.5l-260 -344q-15 -22 0 -44zM1612 1221q15 22 0 44l-258 344q-10 12 -25 14.5t-27 -7.5
l-58 -44q-13 -10 -15 -24.5t7 -26.5l208 -278l-208 -278q-9 -12 -7 -26.5t15 -24.5l58 -44q12 -10 27 -7.5t25 14.5zM904 1748q-16 -2 -24.5 -14.5t-5.5 -27.5l158 -950q2 -15 14.5 -23.5t27.5 -6.5l72 12q15 2 23.5 14.5t6.5 27.5l-158 950q-3 15 -15.5 23.5t-26.5 6.5z
" />
</svg>
