<?xml version="1.0" standalone="no"?>
<!DOCTYPE svg PUBLIC "-//W3C//DTD SVG 1.1//EN" "http://www.w3.org/Graphics/SVG/1.1/DTD/svg11.dtd" >
<svg xmlns="http://www.w3.org/2000/svg" xmlns:xlink="http://www.w3.org/1999/xlink" version="1.1" width="2048" height="2048" viewBox="-10 0 2058 2048">
   <path fill="currentColor"
d="M1921 1018v243q-124 28 -243 28q-61 128 -148.5 257.5t-171 223.5t-154 160t-111.5 90q-51 28 -99 28t-100 -32q-34 -20 -74.5 -53t-105 -103t-126 -158t-132.5 -226.5t-130 -300.5t-112.5 -387.5t-86.5 -480.5h348q25 217 67 405t91 330t113.5 270t126.5 220.5
t138 185.5q210 -210 353 -500q-174 -88 -273.5 -270.5t-99.5 -409.5q0 -116 32.5 -214t92.5 -170t150.5 -113t201.5 -41q218 0 335.5 129.5t117.5 366.5q0 89 -18.5 182.5t-52.5 169.5q-4 1 -12 2t-32.5 3t-47.5 1t-54 -6.5t-57.5 -16t-52 -31t-41.5 -48.5q39 -127 39 -226
q0 -107 -36 -163t-98 -56q-66 0 -105 60.5t-39 173.5q0 115 35 209t97 156t146 95.5t181 33.5q73 0 148 -17z" />
</svg>
