<?xml version="1.0" standalone="no"?>
<!DOCTYPE svg PUBLIC "-//W3C//DTD SVG 1.1//EN" "http://www.w3.org/Graphics/SVG/1.1/DTD/svg11.dtd" >
<svg xmlns="http://www.w3.org/2000/svg" xmlns:xlink="http://www.w3.org/1999/xlink" version="1.1" width="2048" height="2048" viewBox="-10 0 2068 2048">
   <path fill="currentColor"
d="M1800 960q110 46 179 145.5t69 221.5q0 107 -54 198.5t-147 145t-202 53.5q-4 0 -11.5 -0.5t-10.5 -0.5h-1209h-1h-2h-5q-111 -7 -204 -61t-147.5 -145t-54.5 -200q0 -110 55 -203t147 -147q-12 -41 -12 -82q0 -115 82 -196t199 -81q95 0 172 58q75 -154 222 -248
t327 -94q124 0 236.5 47.5t194 128t129.5 191.5t48 233v18v18zM468 1226q0 82 40 143t106 91t146 30q73 0 129.5 -24t110.5 -75q-16 -20 -47 -56t-44 -51q-66 65 -144 65q-55 0 -93.5 -33.5t-38.5 -87.5q0 -53 38 -87t92 -34q39 0 75 16.5t64 43.5t58.5 61.5t58 70.5
t63 70.5t72.5 61.5t88 43.5t108 16.5q78 0 143 -31t105 -91.5t40 -139.5q0 -81 -40 -141.5t-105.5 -91t-146.5 -30.5q-74 0 -131 23t-109 74q11 13 93 108q65 -64 142 -64q52 0 91.5 33.5t39.5 83.5q0 57 -36.5 91.5t-93.5 34.5q-38 0 -73.5 -16.5t-63.5 -43.5t-58.5 -61.5
t-58 -70.5t-63 -70.5t-72.5 -61.5t-87 -43.5t-106 -16.5q-78 0 -144 30t-107 90t-41 140z" />
</svg>
