<?xml version="1.0" standalone="no"?>
<!DOCTYPE svg PUBLIC "-//W3C//DTD SVG 1.1//EN" "http://www.w3.org/Graphics/SVG/1.1/DTD/svg11.dtd" >
<svg xmlns="http://www.w3.org/2000/svg" xmlns:xlink="http://www.w3.org/1999/xlink" version="1.1" width="2048" height="2048" viewBox="-10 0 2068 2048">
   <path fill="currentColor"
d="M2048 1019q0 140 -37 272.5t-103 245t-160.5 207t-206.5 160.5t-245 102.5t-272 36.5t-272 -36.5t-245 -102.5t-206.5 -160.5t-160.5 -207t-103 -245t-37 -272.5q0 -189 67.5 -364.5t183.5 -308.5t277.5 -223.5t344.5 -117.5v270q-129 26 -241.5 94.5t-193 166
t-126.5 223t-46 260.5q0 154 60 294.5t161.5 242t242 162t294.5 60.5t294.5 -60.5t242 -162t161.5 -242t60 -294.5q0 -135 -46 -260.5t-126.5 -223t-193 -166t-241.5 -94.5v-270q183 27 344.5 117.5t277.5 223.5t183.5 308.5t67.5 364.5z" />
</svg>
