<?xml version="1.0" standalone="no"?>
<!DOCTYPE svg PUBLIC "-//W3C//DTD SVG 1.1//EN" "http://www.w3.org/Graphics/SVG/1.1/DTD/svg11.dtd" >
<svg xmlns="http://www.w3.org/2000/svg" xmlns:xlink="http://www.w3.org/1999/xlink" version="1.1" width="2048" height="2048" viewBox="-10 0 2058 2048">
   <path fill="currentColor"
d="M22 998q8 -248 132 -463.5t349 -363.5h1q2 -1 3 -0.5t0 3.5q-10 9 -33 38t-59 87.5t-68 126.5t-51 155t-16 172t45 179.5t124 176.5q42 42 85 65t78.5 27t69 -1.5t58 -19t43 -26.5t28.5 -24l10 -10q32 -42 49.5 -93.5t19.5 -100t-3.5 -97.5t-17.5 -89.5t-23 -72.5
t-20 -49l-8 -18q-12 -29 -35.5 -56.5t-49 -46.5t-49.5 -34t-39 -22l-15 -7l119 -132q28 12 56.5 33t49.5 42t38 40.5t25 32.5l9 12q1 -34 -8 -72.5t-22.5 -69.5t-27 -57t-23.5 -40l-9 -14l184 -209l182 206q-24 33 -42 72t-27 71t-14 59t-6 42l-1 15q25 -42 70 -83t77 -60
l33 -20l117 132q-32 10 -63 31t-52.5 43t-38.5 42.5t-25 34.5l-8 13q-26 47 -43.5 111t-23.5 136.5t11 147.5t58 131q27 38 62 57.5t68.5 21t68 -5.5t63 -21.5t51.5 -28t36 -24.5l13 -10q68 -61 110 -131.5t55.5 -138.5t11.5 -139t-20.5 -134.5t-42.5 -122.5t-52 -106.5
t-51 -83t-39 -54.5l-15 -19q-18 -16 -6 -14l9 2q58 43 92 69t91 77t91.5 94.5t77.5 111t67 136.5t41.5 162t19.5 196q2 148 -31 284.5t-94.5 249.5t-151.5 206t-201 157t-244.5 98.5t-278.5 34.5q-142 0 -275.5 -38.5t-245 -107t-204 -166t-155.5 -213t-96 -250.5t-28 -275z
" />
</svg>
