<?xml version="1.0" standalone="no"?>
<!DOCTYPE svg PUBLIC "-//W3C//DTD SVG 1.1//EN" "http://www.w3.org/Graphics/SVG/1.1/DTD/svg11.dtd" >
<svg xmlns="http://www.w3.org/2000/svg" xmlns:xlink="http://www.w3.org/1999/xlink" version="1.1" width="2048" height="2048" viewBox="-10 0 2068 2048">
   <path fill="currentColor"
d="M999 1872v75q-238 -7 -440.5 -125.5t-323.5 -314.5l67 -39q36 60 83 113l74 -65q168 192 421 242l-19 99q77 14 138 15zM315 1266l-94 32q25 70 56 128l-66 38q-112 -205 -112 -440t112 -440l66 37q-34 62 -56 128l93 32q-40 115 -40 243q0 124 41 242zM1746 1468l67 39
q-121 196 -323.5 314.5t-440.5 125.5v-75q61 -1 138 -15l-19 -99q253 -50 421 -242l74 65q47 -53 83 -113zM1574 835l-267 91q16 50 16 98q0 47 -16 97l266 91q-35 105 -112 193l-212 -185q-65 75 -168 97l55 276q-55 11 -112 11t-112 -11l55 -276q-103 -22 -168 -97
l-212 185q-77 -88 -112 -193l266 -91q-16 -50 -16 -97q0 -48 16 -98l-267 -91q37 -106 113 -193l212 185q66 -77 168 -98l-55 -275q48 -11 112 -11t112 11l-55 275q102 21 168 98l212 -185q76 87 113 193zM999 100v76q-76 2 -138 14l19 99q-124 24 -232 86t-189 155l-74 -64
q-41 45 -83 112l-65 -38q121 -197 322.5 -315t439.5 -125zM1949 1024q0 235 -112 440l-66 -38q31 -58 56 -128l-94 -32q41 -118 41 -242q0 -128 -40 -243l93 -32q-22 -66 -56 -128l66 -37q112 205 112 440zM1811 540l-65 38q-42 -67 -83 -112l-74 64q-81 -93 -189 -155
t-232 -86l19 -99q-62 -12 -138 -14v-76q238 7 439.5 125t322.5 315zM1998 1024q0 -198 -77.5 -378t-208 -310.5t-310.5 -208t-378 -77.5t-378 77.5t-310.5 208t-208 310.5t-77.5 378t77.5 378t208 310.5t310.5 207.5t378 77t378 -77t310.5 -207.5t208 -310.5t77.5 -378z
M2048 1024q0 209 -81 398.5t-218 326.5t-326.5 218t-398.5 81t-398.5 -81t-326.5 -218t-218 -326.5t-81 -398.5t81 -398.5t218 -326.5t326.5 -218t398.5 -81t398.5 81t326.5 218t218 326.5t81 398.5z" />
</svg>
