<?xml version="1.0" standalone="no"?>
<!DOCTYPE svg PUBLIC "-//W3C//DTD SVG 1.1//EN" "http://www.w3.org/Graphics/SVG/1.1/DTD/svg11.dtd" >
<svg xmlns="http://www.w3.org/2000/svg" xmlns:xlink="http://www.w3.org/1999/xlink" version="1.1" width="2048" height="2048" viewBox="-10 0 2068 2048">
   <path fill="currentColor"
d="M776 1573q0 89 -124 89q-142 0 -142 -84q0 -85 131 -85q135 0 135 80zM728 952q0 113 -99 113q-103 0 -103 -112q0 -120 103 -120q48 0 73.5 34.5t25.5 84.5zM950 852v-167q-105 39 -181 39q-66 -39 -146 -39q-115 0 -193.5 76t-78.5 191q0 67 39 136.5t98 88.5v4
q-50 22 -50 114q0 71 54 103v4q-150 48 -150 185q0 49 18 87.5t47.5 62.5t69.5 39.5t81 21.5t86 6q299 0 299 -251q0 -38 -14 -69t-35.5 -50.5t-54 -34.5t-62 -23.5t-66.5 -14.5q-36 -7 -69 -28.5t-33 -52.5q0 -32 16.5 -47.5t48.5 -21.5q103 -20 163 -94t60 -179
q0 -34 -12 -69q5 -1 29 -7t36 -10zM1028 1411h183q-3 -54 -3 -110v-516q0 -46 3 -92h-183q5 41 5 95v522q0 56 -5 101zM1707 1390v-162q-40 28 -91 28q-70 0 -70 -109v-300h69q12 0 35.5 1.5t35.5 1.5v-157h-140q0 -11 -0.5 -33t-0.5 -35.5t1 -32t4 -34.5h-187q6 41 6 72v63
h-81v157q6 -1 22.5 -3t26.5 -2q5 0 15.5 1t16.5 1v3h-4v289q0 49 3.5 85t15.5 75.5t33 64.5t58 41t88 16q87 0 144 -31zM1232 448q0 -49 -32 -85t-80 -36t-80.5 36t-32.5 85q0 48 33 83.5t80 35.5t79.5 -35.5t32.5 -83.5zM2048 384v1280q0 105 -51.5 193t-139.5 139.5
t-193 51.5h-1280q-105 0 -193 -51.5t-139.5 -139.5t-51.5 -193v-1280q0 -105 51.5 -193t139.5 -139.5t193 -51.5h1280q105 0 193 51.5t139.5 139.5t51.5 193z" />
</svg>
