<?xml version="1.0" standalone="no"?>
<!DOCTYPE svg PUBLIC "-//W3C//DTD SVG 1.1//EN" "http://www.w3.org/Graphics/SVG/1.1/DTD/svg11.dtd" >
<svg xmlns="http://www.w3.org/2000/svg" xmlns:xlink="http://www.w3.org/1999/xlink" version="1.1" width="2048" height="2048" viewBox="-10 0 2058 2048">
   <path fill="currentColor"
d="M680 1730q0 -114 -189 -114q-180 0 -180 118q0 116 196 116q173 0 173 -120zM613 867q0 -70 -34.5 -116.5t-101.5 -46.5q-142 0 -142 165q0 155 142 155q136 0 136 -157zM920 497v231q-44 14 -90 25q18 51 18 96q0 145 -83.5 247.5t-225.5 128.5q-45 9 -67.5 31t-22.5 66
q0 35 25.5 58.5t66 37t90 25t99 29t90 43t66 73t25.5 112.5q0 348 -415 348q-62 0 -118.5 -8.5t-112.5 -30t-96.5 -54.5t-65.5 -86.5t-25 -121.5q0 -189 208 -257v-5q-77 -46 -77 -144q0 -124 72 -156v-5q-82 -28 -136.5 -124.5t-54.5 -188.5q0 -159 109 -264.5t268 -105.5
q110 0 204 53q114 0 249 -53zM1283 1504h-253q4 -41 4 -154v-696q0 -114 -4 -146h253q-4 31 -4 142v700q0 113 4 154zM1970 1250v224q-81 44 -199 44q-60 0 -105.5 -14.5t-74.5 -43.5t-48 -63t-28.5 -81.5t-13 -90.5t-3.5 -99v-401h3v-4q-8 0 -22 -1.5t-21 -1.5q-16 0 -67 7
v-217h110v-87q0 -63 -7 -101h259q-7 49 -7 188h196v217q-17 0 -50 -2t-49 -2h-97v417q0 150 100 150q68 0 124 -38zM1312 168q0 66 -44.5 115.5t-109.5 49.5q-66 0 -112 -49.5t-46 -115.5q0 -68 45.5 -118t112.5 -50q66 0 110 50.5t44 117.5z" />
</svg>
