<?xml version="1.0" standalone="no"?>
<!DOCTYPE svg PUBLIC "-//W3C//DTD SVG 1.1//EN" "http://www.w3.org/Graphics/SVG/1.1/DTD/svg11.dtd" >
<svg xmlns="http://www.w3.org/2000/svg" xmlns:xlink="http://www.w3.org/1999/xlink" version="1.1" width="2048" height="2048" viewBox="-10 0 2058 2048">
   <path fill="currentColor"
d="M1254 653q0 91 -64.5 156t-155.5 65q-67 0 -126 -40q-73 79 -132 167q-282 423 -230 981q1 25 -15 44.5t-39 21.5h-6q-23 0 -40 -15.5t-20 -38.5q-11 -104 -7 -205.5t13.5 -188t31 -170t44.5 -152t53.5 -134t59 -116t61.5 -98.5q69 -106 150 -189q-18 -37 -18 -88
q0 -91 64.5 -155.5t155.5 -64.5t155.5 64.5t64.5 155.5zM1690 666q0 135 -52.5 258t-142 212.5t-213 142t-258.5 52.5q-71 0 -150 -16q-23 -6 -36.5 -27t-7.5 -45t26.5 -37t43.5 -8q60 15 124 15q111 0 212.5 -43.5t175 -116.5t117 -174.5t43.5 -212.5t-43.5 -212.5
t-117 -175t-175 -117t-213 -43.5t-212.5 43.5t-174.5 117t-117 175t-43.5 212.5q0 131 60 249q11 23 3.5 46t-29.5 34t-45 3.5t-35 -29.5q-72 -141 -72 -303q0 -136 52.5 -259t142 -212.5t212.5 -142t259 -52.5q135 0 258.5 52.5t213 142t142 212.5t52.5 259z" />
</svg>
