<?xml version="1.0" standalone="no"?>
<!DOCTYPE svg PUBLIC "-//W3C//DTD SVG 1.1//EN" "http://www.w3.org/Graphics/SVG/1.1/DTD/svg11.dtd" >
<svg xmlns="http://www.w3.org/2000/svg" xmlns:xlink="http://www.w3.org/1999/xlink" version="1.1" width="2048" height="2048" viewBox="-10 0 2058 2048">
   <path fill="currentColor"
d="M309 921q-10 -24 -10 -60q0 -23 12.5 -55.5t27.5 -51.5q-1 -26 9 -61.5t26 -48.5q0 -159 106 -330t248 -239q158 -75 370 -75q155 0 304 62q57 24 103.5 55t81 64t63 77.5t48 84.5t37 96.5t29 102.5t25.5 112l1 6q63 95 63 172q0 16 -10.5 46t-10.5 43q0 1 2 3.5t4 5.5
t2 4q88 130 137.5 245.5t49.5 238.5q0 26 -7 64.5t-28 76.5t-50 38q-11 0 -23 -8.5t-21.5 -20t-21.5 -30t-18 -29.5t-15.5 -29.5t-10.5 -20.5q-1 -1 -3 -1l-6 4q-68 176 -151 255q23 23 70.5 44t79.5 47.5t40 74.5q-2 5 -5 18.5t-8 20.5q-74 111 -345 111
q-87 0 -167.5 -17.5t-191.5 -50.5q-16 -5 -25 -8q-16 -5 -53.5 -5.5t-44.5 -1.5q-47 52 -146 75t-193 23q-26 0 -51.5 -0.5t-70 -4t-82 -9.5t-79.5 -17.5t-71 -27.5t-48.5 -40.5t-19.5 -55.5q0 -46 11 -68.5t47 -54.5q12 -2 46 -15t57 -14q4 0 16 -2q2 -2 2 -5l-2 -3
q-37 -8 -84 -66t-80.5 -124t-42.5 -109l-6 -4q-6 0 -14 23q-20 47 -61.5 85t-88.5 43h-2q-5 0 -7 -5t-5 -6q-26 -62 -26 -115q0 -314 288 -532z" />
</svg>
