<?xml version="1.0" standalone="no"?>
<!DOCTYPE svg PUBLIC "-//W3C//DTD SVG 1.1//EN" "http://www.w3.org/Graphics/SVG/1.1/DTD/svg11.dtd" >
<svg xmlns="http://www.w3.org/2000/svg" xmlns:xlink="http://www.w3.org/1999/xlink" version="1.1" width="2048" height="2048" viewBox="-10 0 2068 2048">
   <path fill="currentColor"
d="M580 589q0 -42 -25 -66.5t-66 -24.5q-43 0 -76 25.5t-33 65.5q0 39 33 64.5t76 25.5q41 0 66 -24.5t25 -65.5zM1323 1096q0 -28 -25.5 -50t-65.5 -22q-27 0 -49.5 22.5t-22.5 49.5q0 28 22.5 50.5t49.5 22.5q40 0 65.5 -22t25.5 -51zM1087 589q0 -42 -25 -66.5t-66 -24.5
q-43 0 -75.5 25.5t-32.5 65.5q0 39 32.5 64.5t75.5 25.5q41 0 66 -25t25 -65zM1722 1096q0 -28 -26 -50t-65 -22q-27 0 -49.5 22.5t-22.5 49.5q0 28 22.5 50.5t49.5 22.5q39 0 65 -22t26 -51zM1456 699q-31 -4 -70 -4q-127 0 -241 45.5t-196.5 122.5t-130.5 182.5t-48 222.5
q0 78 23 152q-46 3 -68 3t-45 -1.5t-40 -3.5t-43 -6.5t-39.5 -7t-44 -9t-42.5 -8.5l-253 127l72 -218q-290 -203 -290 -490q0 -127 57.5 -241.5t155 -196.5t231.5 -130t281 -48q176 0 332.5 66t262 182.5t136.5 260.5zM2048 1260q0 116 -69 223t-186 194l56 181l-199 -109
q-145 37 -218 37q-127 0 -241.5 -42t-196 -112.5t-130 -167.5t-48.5 -204t48.5 -204t130 -168t196 -112.5t241.5 -41.5q121 0 234 42t197 112t134.5 168t50.5 204z" />
</svg>
