<?xml version="1.0" standalone="no"?>
<!DOCTYPE svg PUBLIC "-//W3C//DTD SVG 1.1//EN" "http://www.w3.org/Graphics/SVG/1.1/DTD/svg11.dtd" >
<svg xmlns="http://www.w3.org/2000/svg" xmlns:xlink="http://www.w3.org/1999/xlink" version="1.1" width="2048" height="2048" viewBox="-11 0 2070 2048">
   <path fill="currentColor"
d="M2016 12q39 28 31 73l-293 1756q-5 33 -36 51q-15 9 -36 9q-12 0 -27 -5l-518 -212l-276 337q-22 27 -56 27q-13 0 -26 -5q-22 -8 -35 -27t-13 -42v-398l988 -1211l-1222 1057l-451 -185q-20 -8 -32 -24.5t-14 -38.5q-1 -20 9 -38.5t28 -28.5l1901 -1097q16 -10 37 -10
q24 0 41 12z" />
</svg>
