<?xml version="1.0" standalone="no"?>
<!DOCTYPE svg PUBLIC "-//W3C//DTD SVG 1.1//EN" "http://www.w3.org/Graphics/SVG/1.1/DTD/svg11.dtd" >
<svg xmlns="http://www.w3.org/2000/svg" xmlns:xlink="http://www.w3.org/1999/xlink" version="1.1" width="2048" height="2048" viewBox="-11 0 2070 2048">
   <path fill="currentColor"
d="M2016 13q39 27 31 73l-293 1755q-5 33 -36 51q-15 9 -36 9q-12 0 -27 -5l-602 -246l-341 374q-21 24 -54 24q-13 0 -26 -5q-21 -8 -34 -27t-13 -42v-516l-539 -221q-19 -7 -31.5 -24t-14.5 -39q-1 -20 9 -38t28 -29l1901 -1096q18 -12 39 -11t39 13zM1625 1725l253 -1511
l-1639 944l384 157l986 -730l-546 911z" />
</svg>
