<?xml version="1.0" standalone="no"?>
<!DOCTYPE svg PUBLIC "-//W3C//DTD SVG 1.1//EN" "http://www.w3.org/Graphics/SVG/1.1/DTD/svg11.dtd" >
<svg xmlns="http://www.w3.org/2000/svg" xmlns:xlink="http://www.w3.org/1999/xlink" version="1.1" width="2048" height="2048" viewBox="-10 0 2068 2048">
   <path fill="currentColor"
d="M1989 1967q-54 0 -163 -4.5t-164 -4.5q-54 0 -161.5 4.5t-161.5 4.5q-29 0 -45.5 -25.5t-16.5 -55.5q0 -38 21 -56.5t48 -21t62.5 -8t54.5 -18.5q41 -26 41 -172l-1 -480q0 -27 -1 -39q-13 -4 -62 -4h-829q-49 0 -62 4q-1 12 -1 39l-2 455q0 174 46 201q20 13 59 16.5
t70 4.5t55.5 18.5t24.5 55.5q0 32 -15.5 59t-45.5 27q-57 0 -171 -4.5t-170 -4.5q-52 0 -156.5 4.5t-156.5 4.5q-28 0 -43.5 -25.5t-15.5 -55.5q0 -36 19 -54.5t44 -21.5t58 -9t52 -19q41 -28 41 -176l-1 -70v-998v-32t-0.5 -45.5t-1.5 -47t-4 -52t-8 -44t-13.5 -39.5
t-20.5 -22q-19 -11 -55 -14t-64.5 -3t-50.5 -17t-22 -55q0 -32 15 -59t44 -27q57 0 170 4.5t170 4.5q51 0 155 -4.5t155 -4.5q30 0 46 27t16 59q0 36 -20.5 53.5t-47 18.5t-61.5 5t-53 15q-43 26 -43 196l2 393q0 26 1 40q16 3 47 3h859q31 0 47 -3q1 -14 1 -40l1 -393
q0 -170 -43 -196q-18 -11 -53.5 -15t-62.5 -5.5t-47.5 -18.5t-20.5 -53q0 -32 16 -59t46 -27q54 0 161.5 4.5t161.5 4.5q53 0 159 -4.5t158 -4.5q30 0 45.5 27t15.5 59q0 37 -21 54t-48.5 17.5t-63.5 4t-55 14.5q-43 28 -43 198l3 1158q0 147 40 172q20 13 56.5 17.5
t65.5 5.5t51.5 18.5t22.5 54.5q0 32 -15 59t-44 27z" />
</svg>
