<?xml version="1.0" standalone="no"?>
<!DOCTYPE svg PUBLIC "-//W3C//DTD SVG 1.1//EN" "http://www.w3.org/Graphics/SVG/1.1/DTD/svg11.dtd" >
<svg xmlns="http://www.w3.org/2000/svg" xmlns:xlink="http://www.w3.org/1999/xlink" version="1.1" width="2048" height="2048" viewBox="-10 0 2068 2048">
   <path fill="currentColor"
d="M469 1622v170h-469v-170h469zM939 1451q35 0 60.5 25.5t25.5 60.5v341q0 35 -25.5 60t-60.5 25h-342q-35 0 -60 -25t-25 -60v-341q0 -35 25.5 -60.5t59.5 -25.5h342zM1152 939v171h-1152v-171h1152zM299 256v171h-299v-171h299zM2048 1622v170h-981v-170h981zM768 85
q35 0 60 25t25 60v342q0 35 -25 60t-60 25h-341q-35 0 -60 -25t-25 -60v-342q0 -35 25 -60t60 -25h341zM1622 768q35 0 60 25t25 60v342q0 35 -25 60t-60 25h-342q-35 0 -60 -25t-25 -60v-342q0 -35 25 -60t60 -25h342zM2048 939v171h-299v-171h299zM2048 256v171h-1152
v-171h1152z" />
</svg>
