<?xml version="1.0" standalone="no"?>
<!DOCTYPE svg PUBLIC "-//W3C//DTD SVG 1.1//EN" "http://www.w3.org/Graphics/SVG/1.1/DTD/svg11.dtd" >
<svg xmlns="http://www.w3.org/2000/svg" xmlns:xlink="http://www.w3.org/1999/xlink" version="1.1" width="2048" height="2048" viewBox="-10 0 2068 2048">
   <path fill="currentColor"
d="M1707 1423q0 -118 -83.5 -201.5t-200.5 -83.5q-112 0 -193 77l-322 -160q0 -1 1.5 -12.5t1.5 -17.5l-3 -32l322 -160q81 77 193 77q117 0 200.5 -83.5t83.5 -201.5q0 -117 -83.5 -200.5t-200.5 -83.5q-118 0 -201.5 83.5t-83.5 200.5q0 10 2 31l-321 160
q-81 -76 -194 -76q-117 0 -200 83.5t-83 201.5t83 200.5t200 82.5q113 0 194 -76l321 160q-2 21 -2 31q0 117 83.5 200.5t201.5 83.5q117 0 200.5 -83.5t83.5 -200.5zM2048 384v1280q0 105 -51.5 193t-139.5 139.5t-193 51.5h-1280q-105 0 -193 -51.5t-139.5 -139.5
t-51.5 -193v-1280q0 -105 51.5 -193t139.5 -139.5t193 -51.5h1280q105 0 193 51.5t139.5 139.5t51.5 193z" />
</svg>
