<?xml version="1.0" standalone="no"?>
<!DOCTYPE svg PUBLIC "-//W3C//DTD SVG 1.1//EN" "http://www.w3.org/Graphics/SVG/1.1/DTD/svg11.dtd" >
<svg xmlns="http://www.w3.org/2000/svg" xmlns:xlink="http://www.w3.org/1999/xlink" version="1.1" width="2048" height="2048" viewBox="-10 0 2068 2048">
   <path fill="currentColor"
d="M653 673q-11 -28 -38.5 -39.5t-56.5 -0.5q-124 50 -219.5 144.5t-144.5 218.5q-11 29 0.5 56.5t39.5 38.5q18 6 28 6q47 0 68 -46q38 -96 112.5 -170t170.5 -112q29 -12 40.5 -39.5t-0.5 -56.5zM1729 266l53 52l-279 278l78 78q22 22 22 52t-22 52l-74 73
q102 183 102 392q0 164 -63.5 313t-171 257t-256.5 171.5t-313 63.5t-313 -63.5t-257 -171.5t-171.5 -257t-63.5 -313t63.5 -313t171.5 -257t257 -171.5t313 -63.5q209 0 392 102l73 -73q22 -22 52 -22t52 22l77 78zM1738 202q-11 11 -25 11q-15 0 -26 -11l-104 -103
q-11 -11 -11 -26.5t11 -26.5q11 -10 26 -10t26 10l103 104q11 10 11 26t-11 26zM2001 465q-11 10 -26 10t-26 -10l-103 -104q-11 -11 -11 -26t11 -26q10 -11 25 -11t26 11l104 103q11 11 11 26.5t-11 26.5zM2048 256q0 16 -10.5 26t-26.5 10h-109q-16 0 -26.5 -10t-10.5 -26
t10.5 -26.5t26.5 -10.5h109q16 0 26.5 10.5t10.5 26.5zM1829 36v110q0 16 -10.5 26t-26.5 10t-26.5 -10t-10.5 -26v-110q0 -16 10.5 -26t26.5 -10t26.5 10t10.5 26zM2001 99l-104 103q-11 11 -25 11q-15 0 -26 -11q-11 -10 -11 -26t11 -26l103 -104q11 -10 26 -10t26 10
q11 11 11 26.5t-11 26.5z" />
</svg>
