<?xml version="1.0" standalone="no"?>
<!DOCTYPE svg PUBLIC "-//W3C//DTD SVG 1.1//EN" "http://www.w3.org/Graphics/SVG/1.1/DTD/svg11.dtd" >
<svg xmlns="http://www.w3.org/2000/svg" xmlns:xlink="http://www.w3.org/1999/xlink" version="1.1" width="2048" height="2048" viewBox="-10 0 2068 2048">
   <path fill="currentColor"
d="M696 932l328 -238l328 238l-125 384h-405zM1024 0q209 0 398.5 81t326.5 218t218 326.5t81 398.5t-81 398.5t-218 326.5t-326.5 218t-398.5 81t-398.5 -81t-326.5 -218t-218 -326.5t-81 -398.5t81 -398.5t218 -326.5t326.5 -218t398.5 -81zM1731 1542q171 -233 171 -518
v-4l-117 102l-274 -256l72 -369l153 13q-83 -114 -197 -197t-248 -125l61 142l-328 182l-328 -182l61 -142q-134 42 -248 125t-197 197l154 -13l71 369l-274 256l-117 -102v4q0 285 171 518l34 -150l372 45l159 341l-132 79q130 44 274 44t274 -44l-132 -79l159 -341
l372 -45z" />
</svg>
