<?xml version="1.0" standalone="no"?>
<!DOCTYPE svg PUBLIC "-//W3C//DTD SVG 1.1//EN" "http://www.w3.org/Graphics/SVG/1.1/DTD/svg11.dtd" >
<svg xmlns="http://www.w3.org/2000/svg" xmlns:xlink="http://www.w3.org/1999/xlink" version="1.1" width="2048" height="2048" viewBox="-10 0 2068 2048">
   <path fill="currentColor"
d="M512 1572v220q0 15 -10.5 25.5t-26.5 10.5h-219q-16 0 -26.5 -10.5t-10.5 -25.5v-220q0 -15 10.5 -25.5t26.5 -10.5h219q16 0 26.5 10.5t10.5 25.5zM293 1134v220q0 15 -10.5 25.5t-26.5 10.5h-219q-16 0 -26.5 -10.5t-10.5 -25.5v-220q0 -16 10.5 -26t26.5 -10h219
q16 0 26.5 10t10.5 26zM951 1572v220q0 15 -10.5 25.5t-26.5 10.5h-219q-16 0 -26.5 -10.5t-10.5 -25.5v-220q0 -15 10.5 -25.5t26.5 -10.5h219q16 0 26.5 10.5t10.5 25.5zM731 1134v220q0 15 -10 25.5t-26 10.5h-220q-16 0 -26 -10.5t-10 -25.5v-220q0 -16 10 -26t26 -10
h220q16 0 26 10t10 26zM75 950q-31 0 -53 -21.5t-22 -52.5v-146h587v146q0 31 -21.5 52.5t-52.5 21.5h-438zM1390 1572v220q0 15 -10.5 25.5t-26.5 10.5h-219q-16 0 -26.5 -10.5t-10.5 -25.5v-220q0 -15 10.5 -25.5t26.5 -10.5h219q16 0 26.5 10.5t10.5 25.5zM1170 1134v220
q0 15 -10 25.5t-26 10.5h-220q-16 0 -26 -10.5t-10 -25.5v-220q0 -16 10 -26t26 -10h220q16 0 26 10t10 26zM1829 1572v220q0 15 -10.5 25.5t-26.5 10.5h-219q-16 0 -26.5 -10.5t-10.5 -25.5v-220q0 -15 10.5 -25.5t26.5 -10.5h219q16 0 26.5 10.5t10.5 25.5zM1609 1134v220
q0 15 -10 25.5t-26 10.5h-220q-16 0 -26 -10.5t-10 -25.5v-220q0 -16 10 -26t26 -10h220q16 0 26 10t10 26zM2048 668v14h-587v-12q0 -118 -437 -116t-437 116v12h-587v-14q0 -15 5.5 -36t21.5 -52t41 -63t67.5 -68t96.5 -68.5t133 -62t172 -51.5t218.5 -34.5t268.5 -12.5
t268.5 12.5t218.5 34.5t172 51.5t133 62t96.5 68.5t67.5 68t41 63t21.5 52t5.5 36zM2048 1134v220q0 15 -10.5 25.5t-26.5 10.5h-219q-16 0 -26.5 -10.5t-10.5 -25.5v-220q0 -16 10.5 -26t26.5 -10h219q16 0 26.5 10t10.5 26zM2048 730v146q0 31 -21.5 52.5t-52.5 21.5h-439
q-31 0 -52.5 -21.5t-21.5 -52.5v-146h587z" />
</svg>
