<?xml version="1.0" standalone="no"?>
<!DOCTYPE svg PUBLIC "-//W3C//DTD SVG 1.1//EN" "http://www.w3.org/Graphics/SVG/1.1/DTD/svg11.dtd" >
<svg xmlns="http://www.w3.org/2000/svg" xmlns:xlink="http://www.w3.org/1999/xlink" version="1.1" width="2048" height="2048" viewBox="-10 0 2068 2048">
   <path fill="currentColor"
d="M2006 517q42 43 42 103.5t-42 103.5l-459 457l172 172l-183 183q-186 186 -445 212.5t-470 -114.5l-414 414h-207v-207l414 -414q-141 -211 -114.5 -470t212.5 -445l183 -183l171 171l457 -458q43 -42 103.5 -42t103.5 42q43 43 43 104t-43 103l-457 458l268 267
l458 -457q43 -43 103.5 -43t103.5 43z" />
</svg>
