<?xml version="1.0" standalone="no"?>
<!DOCTYPE svg PUBLIC "-//W3C//DTD SVG 1.1//EN" "http://www.w3.org/Graphics/SVG/1.1/DTD/svg11.dtd" >
<svg xmlns="http://www.w3.org/2000/svg" xmlns:xlink="http://www.w3.org/1999/xlink" version="1.1" width="2048" height="2048" viewBox="-10 0 2058 2048">
   <path fill="currentColor"
d="M998 845q0 96 -72.5 163.5t-174.5 67.5t-174.5 -67.5t-72.5 -163.5t72.5 -163.5t174.5 -67.5t174.5 67.5t72.5 163.5zM1571 845q0 96 -71.5 163.5t-174.5 67.5q-102 0 -174.5 -67.5t-72.5 -163.5t72.5 -163.5t174.5 -67.5q103 0 174.5 67.5t71.5 163.5zM1829 1051v-762
q0 -99 -37 -141t-127 -42h-1271q-95 0 -128.5 39t-33.5 144v769q44 23 87.5 41.5t87 31t79.5 21.5t79 13.5t70 7.5t68.5 2.5t58 -0.5t55.5 -2t45 -3q77 -1 108 31q7 7 12 10q32 31 69 59q4 -51 35.5 -76.5t99.5 -23.5q3 1 41 3t50 2t52.5 0.5t60.5 -1t62 -5t70 -9.5
t70.5 -15.5t77.5 -22.5t77 -31t82 -40zM2015 1045q-60 75 -168 151.5t-257 137.5q93 317 -20 522q-71 127 -199 173q-113 41 -207 -3q-95 -44 -109 -153q-3 -21 -2 -43l-2 -372v-1l-16 -4t-19 -5t-19 -4l-2 386q4 126 -90 185q-85 53 -200 23q-128 -34 -208 -151
q-122 -182 -60 -472q9 -40 21 -81q-149 -61 -257 -137.5t-168 -151.5q-18 -26 -13.5 -51.5t25.5 -31.5t52 12q4 3 12.5 9t12.5 9v-794q0 -82 53.5 -140t130.5 -58h1437q77 0 130.5 58t53.5 140v794q5 -3 14 -9.5t10 -8.5q24 -16 41.5 -14t27.5 13.5t9.5 32t-14.5 39.5z" />
</svg>
