<?xml version="1.0" standalone="no"?>
<!DOCTYPE svg PUBLIC "-//W3C//DTD SVG 1.1//EN" "http://www.w3.org/Graphics/SVG/1.1/DTD/svg11.dtd" >
<svg xmlns="http://www.w3.org/2000/svg" xmlns:xlink="http://www.w3.org/1999/xlink" version="1.1" width="2048" height="2048" viewBox="-10 0 2058 2048">
   <path fill="currentColor"
d="M1029 1508v145v123q-1 154 -1.5 185t-4.5 41q-13 35 -59 45q-39 6 -123.5 -17t-164 -60.5t-105.5 -67.5q-16 -19 -19 -41q-1 -14 4 -30q5 -12 38.5 -53.5t207.5 -246.5q2 -1 69 -80q17 -22 45 -28.5t56 4.5t43 32.5t14 48.5zM859 1221q-1 29 -17 50.5t-42 29.5l-137 45
q-152 48 -220.5 69.5t-86.5 26t-27 4.5q-40 -2 -62 -41q-14 -29 -19 -86q-10 -86 0.5 -190t34.5 -142q25 -39 64 -37q11 0 42.5 12t186.5 75q82 34 133 55l96 39q26 10 41 34.5t13 55.5zM1803 1561q-5 39 -53 112.5t-108 137.5t-98 79q-43 16 -72 -8q-11 -8 -43.5 -59
t-167.5 -269l-53 -88q-15 -25 -12.5 -53t21.5 -52q19 -23 45 -31t50 1q1 1 136 46q238 78 279.5 92t50.5 22q33 24 25 70zM1035 838q2 33 -2.5 59t-11 39.5t-18 23.5t-16.5 12t-14 6q-66 20 -130 -81l-432 -685q-10 -39 22 -71q30 -31 133 -68.5t210.5 -59t150.5 -10.5
q45 11 56 51q4 21 25 346.5t27 437.5zM1792 962q3 44 -30 67q-11 7 -66.5 21.5t-309.5 76.5q-80 18 -104 27q0 -1 1 -3q-26 6 -52 -5t-43 -36q-16 -26 -16 -52.5t16 -46.5q1 -3 86 -117q141 -193 170.5 -232t39.5 -45q34 -24 75 -3q36 16 90 83t96.5 143t46.5 118v4z" />
</svg>
