<?xml version="1.0" standalone="no"?>
<!DOCTYPE svg PUBLIC "-//W3C//DTD SVG 1.1//EN" "http://www.w3.org/Graphics/SVG/1.1/DTD/svg11.dtd" >
<svg xmlns="http://www.w3.org/2000/svg" xmlns:xlink="http://www.w3.org/1999/xlink" version="1.1" width="2048" height="2048" viewBox="-10 0 2068 2048">
   <path fill="currentColor"
d="M1024 704h-384v384h384v-384zM1152 1344v127h-640v-127h640zM1152 576v640h-640v-640h640zM1792 1344v127h-512v-127h512zM1792 1088v128h-512v-128h512zM1792 832v128h-512v-128h512zM1792 576v128h-512v-128h512zM256 1536v-960h-128v960q0 26 18.5 45t45 19t45.5 -19
t19 -45zM1919 1536v-1088h-1535v1088q0 31 -11 64h1483q26 0 44.5 -19t18.5 -45zM2048 320v1216q0 80 -56.5 136t-135.5 56h-1664q-80 0 -136 -56t-56 -136v-1088h256v-128h1792z" />
</svg>
