<?xml version="1.0" standalone="no"?>
<!DOCTYPE svg PUBLIC "-//W3C//DTD SVG 1.1//EN" "http://www.w3.org/Graphics/SVG/1.1/DTD/svg11.dtd" >
<svg xmlns="http://www.w3.org/2000/svg" xmlns:xlink="http://www.w3.org/1999/xlink" version="1.1" width="2048" height="2048" viewBox="-10 0 2068 2048">
   <path fill="currentColor"
d="M1023.5 1751q-20.5 0 -96.5 -76.5t-76 -97.5q0 -23 36 -42.5t74.5 -28.5t62 -9t62.5 9t75 28.5t36 42.5q0 21 -76.5 97.5t-97 76.5zM1305 1468q-3 0 -28.5 -16t-59.5 -35.5t-87.5 -36t-105.5 -16.5q-53 0 -106.5 16.5t-87 36t-59 35.5t-28.5 16q-19 0 -97.5 -78
t-78.5 -97q0 -14 10 -24q81 -80 204 -125.5t242.5 -45.5t243 45.5t204.5 125.5q10 10 10 24q0 19 -78.5 97t-97.5 78zM1590 1185q-11 0 -24 -9q-70 -54 -127 -90t-123 -65.5t-138 -43t-154 -13.5q-89 0 -178 22.5t-155 55.5t-118.5 65.5t-82.5 55t-32 22.5q-18 0 -96 -78
t-78 -97q0 -13 10 -23q137 -138 333 -214t396.5 -76t396.5 76t333 214q11 11 11 23q0 19 -78 97t-96 78zM1873 903q-13 0 -24 -9q-187 -165 -387.5 -248t-438 -83t-438 83t-387.5 248q-11 9 -23 9q-18 0 -96.5 -78.5t-78.5 -96.5q0 -14 10 -24q195 -194 464 -300.5
t549.5 -106.5t549.5 106.5t464 300.5q11 11 11 24q0 18 -78.5 96.5t-96.5 78.5z" />
</svg>
