<?xml version="1.0" standalone="no"?>
<!DOCTYPE svg PUBLIC "-//W3C//DTD SVG 1.1//EN" "http://www.w3.org/Graphics/SVG/1.1/DTD/svg11.dtd" >
<svg xmlns="http://www.w3.org/2000/svg" xmlns:xlink="http://www.w3.org/1999/xlink" version="1.1" width="2048" height="2048" viewBox="-10 0 2058 2048">
   <path fill="currentColor"
d="M512 1755q0 -61 -42.5 -103.5t-103.5 -42.5t-104 42.5t-43 103.5t43 103.5t104 42.5t103.5 -42.5t42.5 -103.5zM951 1755q0 -61 -43 -103.5t-104 -42.5t-103.5 42.5t-42.5 103.5t42.5 103.5t103.5 42.5t104 -42.5t43 -103.5zM512 1316q0 -61 -42.5 -103.5t-103.5 -42.5
t-104 42.5t-43 103.5t43 103.5t104 42.5t103.5 -42.5t42.5 -103.5zM1390 1755q0 -61 -43 -103.5t-104 -42.5t-103.5 42.5t-42.5 103.5t42.5 103.5t103.5 42.5t104 -42.5t43 -103.5zM951 1316q0 -61 -43 -103.5t-104 -42.5t-103.5 42.5t-42.5 103.5t42.5 103.5t103.5 42.5
t104 -42.5t43 -103.5zM512 877q0 -61 -42.5 -103.5t-103.5 -42.5t-104 42.5t-43 103.5t43 104t104 43t103.5 -43t42.5 -104zM1390 1316q0 -61 -43 -103.5t-104 -42.5t-103.5 42.5t-42.5 103.5t42.5 103.5t103.5 42.5t104 -42.5t43 -103.5zM951 877q0 -61 -43 -103.5
t-104 -42.5t-103.5 42.5t-42.5 103.5t42.5 104t103.5 43t104 -43t43 -104zM1828 1755v-439q0 -60 -43 -103t-103 -43t-103 43t-43 103v439q0 60 43 103t103 43t103 -43t43 -103zM1390 877q0 -61 -43 -103.5t-104 -42.5t-103.5 42.5t-42.5 103.5t42.5 104t103.5 43t104 -43
t43 -104zM1828 512v-293q0 -30 -21.5 -51.5t-51.5 -21.5h-1463q-30 0 -51.5 21.5t-21.5 51.5v293q0 30 21.5 51.5t51.5 21.5h1463q30 0 51.5 -21.5t21.5 -51.5zM1828 877q0 -61 -42.5 -103.5t-103.5 -42.5t-103.5 42.5t-42.5 103.5t42.5 104t103.5 43t103.5 -43t42.5 -104z
M1975 146v1755q0 60 -43.5 103.5t-103.5 43.5h-1609q-60 0 -103 -43.5t-43 -103.5v-1755q0 -60 43 -103t103 -43h1609q60 0 103.5 43t43.5 103z" />
</svg>
