<?xml version="1.0" standalone="no"?>
<!DOCTYPE svg PUBLIC "-//W3C//DTD SVG 1.1//EN" "http://www.w3.org/Graphics/SVG/1.1/DTD/svg11.dtd" >
<svg xmlns="http://www.w3.org/2000/svg" xmlns:xlink="http://www.w3.org/1999/xlink" version="1.1" width="2048" height="2048" viewBox="-10 0 2058 2048">
   <path fill="currentColor"
d="M1883 738q20 95 -5 233q-100 507 -645 507h-51q-29 0 -50.5 19t-26.5 49l-5 22l-63 395l-2 17q-6 30 -28 49t-51 19h-287q-24 0 -38 -17.5t-10 -41.5l30 -192t30.5 -192t31 -191.5t31.5 -191.5q2 -20 15 -31t34 -11h149q155 2 270 -24q199 -44 328 -164
q115 -108 177 -282q27 -81 40 -152q1 -10 4.5 -10t9.5 5q90 67 112 185zM1686 416q0 123 -52 269q-91 267 -345 360q-131 46 -288 48h-206q-114 0 -135 110q-10 51 -97 606q-2 11 -14 11h-337q-26 0 -42.5 -19t-12.5 -44l265 -1681q5 -32 31 -54t60 -22h683q39 0 111.5 15
t127.5 36q121 47 186 141t65 224z" />
</svg>
