<?xml version="1.0" standalone="no"?>
<!DOCTYPE svg PUBLIC "-//W3C//DTD SVG 1.1//EN" "http://www.w3.org/Graphics/SVG/1.1/DTD/svg11.dtd" >
<svg xmlns="http://www.w3.org/2000/svg" xmlns:xlink="http://www.w3.org/1999/xlink" version="1.1" width="2048" height="2048" viewBox="-10 0 2058 2048">
   <path fill="currentColor"
d="M484 768q36 0 59 29q305 417 414 885h-510q-144 -502 -419 -856q-14 -18 -3.5 -38t33.5 -20h426zM1123 1176q-57 229 -143 449q-91 -355 -293 -679q46 -258 51 -513q241 388 385 743zM1236 365q268 369 439 798t211 885h-515q-11 -178 -51 -362.5t-97.5 -350.5
t-137.5 -340t-163.5 -323.5t-182.5 -306.5h497zM2028 1024q0 236 -30.5 477t-84.5 451q-76 -640 -411 -1238q-29 -344 -121 -668q-5 -18 6 -32t30 -14h410q24 0 44 14.5t26 37.5q131 465 131 972z" />
</svg>
