<?xml version="1.0" standalone="no"?>
<!DOCTYPE svg PUBLIC "-//W3C//DTD SVG 1.1//EN" "http://www.w3.org/Graphics/SVG/1.1/DTD/svg11.dtd" >
<svg xmlns="http://www.w3.org/2000/svg" xmlns:xlink="http://www.w3.org/1999/xlink" version="1.1" width="2048" height="2048" viewBox="-10 0 2068 2048">
   <path fill="currentColor"
d="M1756 1108h-123q13 -34 59 -160q-1 0 2.5 -8.5t8.5 -22.5t8 -23l11 49zM472 1050l-51 -262q-9 -48 -67 -48h-238l-2 11q276 71 358 299zM631 740l-144 389l-15 -79q-23 -62 -75.5 -114.5t-116.5 -79.5l120 453h155l233 -569h-157zM754 1311h148l93 -571h-148zM1437 754
q-61 -24 -132 -24q-109 0 -178.5 52.5t-70.5 136.5q0 29 11.5 54t32.5 43.5t40.5 31t44.5 25.5q42 20 59.5 36t17.5 35q0 27 -26.5 41t-61.5 14q-45 0 -74.5 -6t-64.5 -23l-20 -10l-20 128q65 30 164 30q116 1 186 -52t71 -142q0 -94 -124 -155q-44 -22 -63.5 -37.5
t-19.5 -33.5q0 -20 22 -34.5t63 -14.5q62 -1 110 21l13 7zM1815 740h-114q-58 0 -77 48l-218 523h154l31 -86h189q4 20 18 86h136zM2048 455v1138q0 47 -33.5 80.5t-80.5 33.5h-1820q-47 0 -80.5 -33.5t-33.5 -80.5v-1138q0 -47 33.5 -80.5t80.5 -33.5h1820q47 0 80.5 33.5
t33.5 80.5z" />
</svg>
