<?xml version="1.0" standalone="no"?>
<!DOCTYPE svg PUBLIC "-//W3C//DTD SVG 1.1//EN" "http://www.w3.org/Graphics/SVG/1.1/DTD/svg11.dtd" >
<svg xmlns="http://www.w3.org/2000/svg" xmlns:xlink="http://www.w3.org/1999/xlink" version="1.1" width="2048" height="2048" viewBox="-10 0 2068 2048">
   <path fill="currentColor"
d="M995 530q-114 -75 -250 -75q-92 0 -175.5 36t-144.5 96.5t-97 144t-36 175.5t36 175.5t97 144t144.5 96.5t175.5 36q136 0 250 -76q-87 -71 -133 -172t-46 -204t46 -204t133 -173zM1024 552q-84 66 -128.5 162t-44.5 193.5t44.5 193.5t128.5 161q85 -65 129.5 -161
t44 -193.5t-45 -193.5t-128.5 -162zM1053 530q87 72 132.5 173t46 204.5t-45 204.5t-133.5 171q114 76 250 76q92 0 175.5 -36t144.5 -96.5t97 -144t36 -175.5t-36 -175.5t-97 -144t-144.5 -96.5t-175.5 -36q-136 0 -250 75zM1712 1172h6v-2h-15v2h7v16h2v-16zM1738 1188h4
v-18h-5l-6 12l-5 -12h-4v18h2v-13l6 11h4l4 -11v13zM1731 1579v2h-2h-3v-3h3h2v1zM1731 1587h3l-4 -5q1 0 1.5 -0.5l0.5 -0.5q2 -1 2 -2q0 -2 -2 -3l-1 -0.5t-2 -0.5h-5v12h2v-5h2zM609 1526q0 -16 10 -27t27 -11q15 0 25 11t10 27q0 17 -10 27.5t-25 10.5q-17 0 -27 -11
t-10 -27zM1029 1487q28 0 31 29h-62q4 -29 31 -29zM1346 1526q0 -16 9.5 -27t26 -11t26.5 11t10 27q0 17 -10 27.5t-27 10.5q-16 0 -25.5 -11t-9.5 -27zM1588 1526q0 -16 10 -27t26 -11t26.5 11t10.5 27q0 17 -10.5 27.5t-26.5 10.5t-26 -11t-10 -27zM1728 1591l-4 -2l-2 -1
l-2 -3q-1 -1 -1 -3.5t1 -3.5q0 -1 2 -4l1 -0.5l1 -0.5q2 -1 4.5 -1t2.5 1q1 0 2.5 0.5t2 1t1 2l0.5 1.5l0.5 1t0.5 2t-0.5 2t-0.5 2q-1 1 -1 1.5t-1 1.5t-4 1q-1 2 -3 2zM533 1587h26v-76q0 -21 -13 -34t-35 -14q-28 0 -42 22q-13 -22 -40 -22q-21 0 -35 18v-14h-26v120h26
v-67q0 -32 30 -32q26 0 26 32v67h27v-67q0 -16 7.5 -24t21.5 -8q27 0 27 32v67zM680 1587h25v-61v-59h-25v14q-14 -18 -38 -18q-26 0 -42.5 18t-16.5 45t16.5 45t42.5 18q25 0 38 -17v15zM838 1550q0 -29 -42 -36l-12 -1q-20 -3 -20 -13q0 -13 22 -13q21 0 38 10l11 -21
q-20 -13 -49 -13q-23 0 -36.5 10.5t-13.5 28.5q0 29 42 35l11 2q21 3 21 12q0 16 -27 16q-23 0 -40 -13l-11 20q20 15 51 15q26 0 40.5 -10.5t14.5 -28.5zM954 1581l-7 -23q-11 6 -24 6q-16 0 -16 -19v-54h43v-24h-43v-37h-27v37h-25v24h25v54q0 44 42 44q19 0 32 -8z
M1031 1463q-27 0 -43.5 17.5t-16.5 45.5t17 45.5t44 17.5q31 0 49 -16l-12 -20q-17 14 -35 14q-30 0 -37 -30h90v-11q0 -28 -15.5 -45.5t-40.5 -17.5zM1171 1463q-20 0 -31 18v-14h-26v120h26v-68q0 -31 26 -31q7 0 16 4l8 -25q-10 -4 -19 -4zM1199 1526q0 28 17.5 45.5
t45.5 17.5q27 0 43 -14l-12 -21q-16 11 -31 10q-16 0 -26.5 -10.5t-10.5 -27.5t10.5 -27.5t26.5 -10.5q15 0 31 11l12 -22q-17 -14 -43 -14q-28 0 -45.5 17.5t-17.5 45.5zM1416 1587h27v-61v-59h-27v14q-12 -18 -37 -18t-43 18t-18 45t18 45t43 18q26 0 37 -17v15z
M1535 1463q-21 0 -31 18v-14h-27v120h27v-68q0 -31 25 -31q7 0 16 4l8 -25q-9 -4 -18 -4zM1659 1587h26v-61v-108h-26v63q-13 -18 -39 -18q-25 0 -42 18t-17 45t17 45t42 18q28 0 39 -17v15zM1728 1569l-1.5 0.5t-2.5 0.5q-2 0 -4 3q-3 1 -3 3v5v5t3 3q2 2 3.5 3t4.5 1
q4 0 6 -1l2.5 -2.5l3.5 -3.5q1 -2 1 -5q0 -4 -1 -5l-3.5 -3.5l-2.5 -2.5q-1 0 -3 -0.5t-3 -0.5zM2048 455v1138q0 47 -33.5 80.5t-80.5 33.5h-1820q-47 0 -80.5 -33.5t-33.5 -80.5v-1138q0 -47 33.5 -80.5t80.5 -33.5h1820q47 0 80.5 33.5t33.5 80.5z" />
</svg>
