<?xml version="1.0" standalone="no"?>
<!DOCTYPE svg PUBLIC "-//W3C//DTD SVG 1.1//EN" "http://www.w3.org/Graphics/SVG/1.1/DTD/svg11.dtd" >
<svg xmlns="http://www.w3.org/2000/svg" xmlns:xlink="http://www.w3.org/1999/xlink" version="1.1" width="2048" height="2048" viewBox="-10 0 2068 2048">
   <path fill="currentColor"
d="M278 919q0 45 -31 74q-25 23 -80 23h-15v-195h15q54 0 80 24q31 28 31 74zM1857 860q0 47 -57 47h-16v-90h17q56 0 56 43zM338 919q0 -66 -44.5 -107.5t-114.5 -41.5h-85v296h85q66 0 106 -34q53 -45 53 -113zM365 1066h57v-296h-57v296zM649 976q0 -36 -18 -55t-67 -37
q-26 -10 -35.5 -17.5t-9.5 -20.5q0 -14 12 -23t31 -9q26 0 47 24l30 -40q-36 -33 -87 -33q-39 0 -65.5 24.5t-26.5 60.5q0 31 16 49t57 33q33 11 39 16q18 10 18 30q0 19 -13 30.5t-32 11.5q-43 0 -64 -38l-37 35q39 57 103 57q45 0 73.5 -27.5t28.5 -70.5zM896 1056v-68
q-33 32 -69 32q-44 0 -72 -28.5t-28 -72.5q0 -43 28 -73t69 -30q38 0 72 34v-68q-36 -18 -71 -18q-65 0 -111.5 45t-46.5 110t45.5 109.5t111.5 44.5q38 0 72 -17zM1991 1593v-468q-58 36 -128 74.5t-211 104t-293 122.5t-371 119t-448 105h1394q24 0 40.5 -17t16.5 -40z
M1234 920.5q0 -66.5 -46.5 -114t-113 -47.5t-114 47.5t-47.5 114t47.5 113.5t114 47t113 -47t46.5 -113.5zM1370 1074l128 -304h-63l-80 199l-79 -199h-63l126 304h31zM1524 1066h163v-50h-106v-80h103v-50h-103v-65h106v-51h-163v296zM1871 1066h71l-93 -125
q33 -6 50.5 -27.5t17.5 -55.5q0 -42 -27.5 -65t-77.5 -23h-87v296h59v-119h7zM2048 460v1128q0 49 -34.5 84t-82.5 35h-1814q-48 0 -82.5 -35t-34.5 -84v-1128q0 -49 34.5 -84t82.5 -35h1814q48 0 82.5 35t34.5 84z" />
</svg>
