<?xml version="1.0" standalone="no"?>
<!DOCTYPE svg PUBLIC "-//W3C//DTD SVG 1.1//EN" "http://www.w3.org/Graphics/SVG/1.1/DTD/svg11.dtd" >
<svg xmlns="http://www.w3.org/2000/svg" xmlns:xlink="http://www.w3.org/1999/xlink" version="1.1" width="2048" height="2048" viewBox="-10 0 2068 2048">
   <path fill="currentColor"
d="M106 834h79l-40 -96zM658 1301l65 -70l-62 -70h-145v44h126v48h-126v48h142zM798 1232l88 98v-193zM1054 1190q0 -29 -35 -29h-75v61h74q36 0 36 -32zM1311 1187q0 -26 -37 -26h-73v54h72q38 0 38 -28zM1064 772q0 -25 -37 -25h-73v53h72q38 0 38 -28zM1472 834h79
l-39 -96zM621 696v241h-59v-189l-83 189h-50l-84 -189v189h-117l-23 -53h-119l-23 53h-62l103 -241h85l98 229v-229h94l76 163l68 -163h96zM1115 1190q0 20 -5 35t-17.5 23.5t-23 14t-30.5 7t-31.5 2t-33.5 0t-30 -0.5v81h-112l-71 -80l-74 80h-227v-240h231l70 78l74 -78
h184q96 0 96 78zM857 887v50h-193v-241h193v51h-135v43h131v49h-131v48h135zM2048 1384v204q0 48 -34.5 83.5t-82.5 35.5h-1814q-48 0 -82.5 -35.5t-34.5 -83.5v-603h99l22 -54h49l22 54h194v-41l17 41h100l18 -42v42h481v-88l8 -1q10 0 10 12v77h248v-21q20 11 48.5 16.5
t46.5 6t55.5 -0.5t46.5 -1l22 -54h50l23 54h201v-52l30 52h162v-336h-160v39l-22 -39h-165v39l-20 -39h-222q-61 0 -96 19v-19h-153v19q-22 -19 -65 -19h-558l-39 86l-38 -86h-176v39l-20 -39h-150l-69 159v-348q0 -48 34.5 -83.5t82.5 -35.5h1814q48 0 82.5 35.5t34.5 83.5
v603h-107q-45 0 -72 20v-20h-157q-49 0 -69 20v-20h-281v20q-28 -20 -78 -20h-185v20q-20 -20 -81 -20h-208l-49 52l-44 -52h-310v336h305l49 -53l46 53h188v-79h18q53 0 81 -12v91h154v-88h7q7 0 9 1.5t2 9.5v77h470q52 0 79 -21v21h149q52 0 84 -15zM1374 1176
q0 21 -11 38.5t-30 25.5q23 8 30.5 23.5t7.5 40.5v48h-57v-40q0 -30 -11 -39t-41 -9h-61v88h-58v-240h137q20 0 34.5 2t29.5 8.5t22.5 20t7.5 33.5zM1128 761q0 21 -11 39t-30 26q23 8 31 22.5t8 41.5v47h-58q0 -7 0.5 -23.5t0 -22.5t-3 -16t-8 -14t-16 -7.5t-25.5 -3.5h-62
v87h-57v-241l136 1q20 0 34.5 2t29.5 8t23 19.5t8 34.5zM1598 1302v50h-192v-240h192v49h-134v44h131v48h-131v48zM1220 696v241h-59v-241h59zM1836 1276q0 76 -91 76h-112v-51h112q30 0 30 -23q0 -12 -11 -17t-27.5 -5t-36 -2t-36 -7t-27.5 -21t-11 -43q0 -35 23.5 -53
t59.5 -18h115v50h-106q-32 0 -32 22q0 12 11 17t28 4t36 1t36 6t28 20t11 44zM2048 1231v90q-21 31 -78 31h-111v-51h111q29 0 29 -23q0 -12 -11 -17t-27.5 -4.5t-36 -2t-36 -7t-27.5 -21t-11 -43.5q0 -35 24 -53t60 -18h114v50h-105q-32 0 -32 22q0 14 16.5 18.5t38 3t46 4
t36.5 21.5zM1902 697v240h-83l-108 -180v180h-117l-24 -53h-119l-21 53h-67q-115 0 -115 -118q0 -123 119 -123h56v52q-8 0 -22.5 -0.5t-21.5 -0.5t-19 1t-18 3.5t-14 7.5t-12 12.5t-6.5 19t-2.5 26.5q0 34 12 51.5t44 17.5h25l82 -189h86l98 228v-228h88l101 167v-167h59z
" />
</svg>
