<?xml version="1.0" standalone="no"?>
<!DOCTYPE svg PUBLIC "-//W3C//DTD SVG 1.1//EN" "http://www.w3.org/Graphics/SVG/1.1/DTD/svg11.dtd" >
<svg xmlns="http://www.w3.org/2000/svg" xmlns:xlink="http://www.w3.org/1999/xlink" version="1.1" width="2048" height="2048" viewBox="-10 0 2068 2048">
   <path fill="currentColor"
d="M662 1033q0 32 -22.5 54t-55.5 22q-25 0 -41 -13.5t-16 -39.5q0 -33 22.5 -55.5t54.5 -22.5q26 0 42 14.5t16 40.5zM1360 901q0 37 -19.5 50t-58.5 13l-29 1l16 -95q1 -10 11 -10h16q14 0 23 1t20 5t16 12.5t5 22.5zM1672 1033q0 32 -22.5 54t-54.5 22q-26 0 -42 -13.5
t-16 -39.5q0 -33 22 -55.5t55 -22.5q25 0 41.5 14.5t16.5 40.5zM456 881q0 -52 -34.5 -75.5t-89.5 -23.5h-141q-7 0 -13 4.5t-6 11.5l-58 363q-1 6 2.5 10t8.5 4h68q8 0 13.5 -4.5t5.5 -12.5l17 -98q1 -7 6 -11.5t13 -5.5t15.5 -1t16.5 1t12 1q77 0 120.5 -43.5t43.5 -119.5
zM730 1158l37 -232q1 -5 -3 -9.5t-9 -4.5h-67q-13 0 -15 29q-24 -35 -84 -35q-65 0 -109.5 48t-44.5 112q0 53 30.5 84.5t82.5 31.5q25 0 51 -10.5t43 -28.5q-3 11 -3 18q0 14 10 14h62q17 0 19 -17zM1128 924.5q0 -4.5 -3.5 -8.5t-8.5 -4h-68q-10 0 -16 9l-94 138l-40 -133
q-4 -14 -19 -14h-66q-5 0 -8.5 4t-3.5 9q0 2 17 52.5t37.5 109.5t21.5 62q-74 95 -74 106q0 5 3.5 8.5t8.5 3.5h69q9 0 16 -9l226 -327q2 -2 2 -6.5zM1466 881q0 -52 -34.5 -75.5t-88.5 -23.5h-142q-18 0 -19 16l-58 363q-1 6 2.5 10t8.5 4h73q11 0 14 -11l16 -104
q1 -7 6.5 -11.5t13.5 -5.5t15 -1t16.5 1t12.5 1q76 0 120 -43.5t44 -119.5zM1741 1158l36 -232q1 -5 -2.5 -9.5t-8.5 -4.5h-68q-13 0 -16 29q-13 -21 -33 -28t-51 -7q-64 0 -109 48t-45 112q0 53 31 84.5t82 31.5q26 0 52.5 -10.5t41.5 -28.5q0 1 -1.5 8t-1.5 10q0 14 12 14
h61q17 0 20 -17zM1934 795v-1q0 -5 -3.5 -8.5t-7.5 -3.5h-66q-10 0 -11 9l-59 370v2q0 5 3.5 8.5t8.5 3.5h59q7 0 12.5 -5t6.5 -12zM348 914q-4 31 -23 40.5t-53 9.5l-29 1l14 -95q2 -10 12 -10h17q35 0 51.5 10.5t10.5 43.5zM2048 455v1138q0 47 -33.5 80.5t-80.5 33.5
h-1820q-47 0 -80.5 -33.5t-33.5 -80.5v-1138q0 -47 33.5 -80.5t80.5 -33.5h1820q47 0 80.5 33.5t33.5 80.5z" />
</svg>
