<?xml version="1.0" standalone="no"?>
<!DOCTYPE svg PUBLIC "-//W3C//DTD SVG 1.1//EN" "http://www.w3.org/Graphics/SVG/1.1/DTD/svg11.dtd" >
<svg xmlns="http://www.w3.org/2000/svg" xmlns:xlink="http://www.w3.org/1999/xlink" version="1.1" width="2048" height="2048" viewBox="-10 0 2068 2048">
   <path fill="currentColor"
d="M1420 1031q0 60 -19 94q-18 31 -46 31q-19 0 -37 -9v-199q26 -26 51 -26q51 0 51 109zM1809 998h-98q6 -87 50 -87q46 0 48 87zM423 1119q0 -53 -29 -82.5t-90 -51.5q-31 -11 -46 -20.5t-15 -22.5q0 -23 35 -23q50 0 109 29l17 -99q-58 -28 -133 -28q-70 0 -109 33
q-43 35 -43 97q0 52 29 81t88 50q36 13 49.5 23t13.5 24q0 28 -43 28q-25 0 -62 -11.5t-64 -26.5l-16 100q26 15 66 25.5t83 10.5q72 0 115 -33q45 -36 45 -103zM685 927l17 -99h-85v-119l-115 18l-16 101l-40 7l-16 92h55v195q0 74 39 106q35 27 99 27q32 0 70 -10v-105
q-31 7 -39 7q-37 0 -37 -45v-175h68zM966 950v-124q-17 -3 -25 -3q-28 0 -49 14.5t-29 40.5l-10 -50h-116v419h133v-272q24 -28 73 -28q10 0 23 3zM999 1247h134v-419h-134v419zM1552 1026q0 -109 -40 -160q-35 -45 -99 -45q-56 0 -104 49l-7 -42h-117v574l133 -22v-135
q33 10 61 10q74 0 119 -49q54 -57 54 -180zM1136 716.5q0 -29.5 -20.5 -50t-50 -20.5t-49.5 20.5t-20 50t20.5 50.5t49.5 21t49.5 -21t20.5 -50.5zM1934 1034q0 -101 -42 -157q-45 -56 -129 -56q-85 0 -134 58.5t-49 159.5q0 114 56 167q49 49 143 49q90 0 142 -35l-15 -92
q-51 28 -113 28q-38 0 -56 -17q-22 -18 -25 -59h221q1 -12 1 -46zM2048 455v1138q0 47 -33.5 80.5t-80.5 33.5h-1820q-47 0 -80.5 -33.5t-33.5 -80.5v-1138q0 -47 33.5 -80.5t80.5 -33.5h1820q47 0 80.5 33.5t33.5 80.5z" />
</svg>
