<?xml version="1.0" standalone="no"?>
<!DOCTYPE svg PUBLIC "-//W3C//DTD SVG 1.1//EN" "http://www.w3.org/Graphics/SVG/1.1/DTD/svg11.dtd" >
<svg xmlns="http://www.w3.org/2000/svg" xmlns:xlink="http://www.w3.org/1999/xlink" version="1.1" width="2048" height="2048" viewBox="-11 0 2070 2048">
   <path fill="currentColor"
d="M1041 1835.5q0 -6.5 -5 -11.5t-12 -5q-60 0 -103 -43t-43 -103q0 -7 -5 -11.5t-11.5 -4.5t-11.5 4.5t-5 11.5q0 74 52.5 126t126.5 52q7 0 12 -4.5t5 -11zM496 1353l889 -771q-42 -89 -134 -148.5t-227 -59.5q-77 0 -142.5 21.5t-110 55.5t-76.5 77.5t-46.5 87
t-14.5 83.5q0 391 -138 654zM1868 1543q0 53 -38.5 91.5t-91.5 38.5h-454q0 107 -76.5 183.5t-183.5 76.5t-183 -76t-76 -183l151 -131h767q-167 -188 -230 -466l113 -98q62 362 302 564zM1955 131l85 98q9 10 8 23.5t-11 22.5l-1898 1645q-10 9 -24 8t-22 -12l-85 -97
q-9 -11 -8 -24t11 -22l188 -163q-19 -32 -19 -67q50 -42 91.5 -89t86.5 -121.5t76 -161t51 -209t20 -263.5q0 -73 30 -146t83.5 -135t136 -107t180.5 -59q-8 -19 -8 -40q0 -41 28 -69t68.5 -28t69 28t28.5 69q0 21 -8 40q127 18 222.5 83.5t149.5 159.5l425 -368
q9 -9 22.5 -7.5t22.5 11.5z" />
</svg>
