<?xml version="1.0" standalone="no"?>
<!DOCTYPE svg PUBLIC "-//W3C//DTD SVG 1.1//EN" "http://www.w3.org/Graphics/SVG/1.1/DTD/svg11.dtd" >
<svg xmlns="http://www.w3.org/2000/svg" xmlns:xlink="http://www.w3.org/1999/xlink" version="1.1" width="2048" height="2048" viewBox="-10 0 2058 2048">
   <path fill="currentColor"
d="M768 1664v-938q0 -19 -12 -31t-30 -12h-87q-18 0 -30 12t-12 31v938q0 19 12 31t30 12h87q18 0 30 -12t12 -31zM1110 1664v-938q0 -19 -12.5 -31t-30.5 -12h-86q-18 0 -30.5 12t-12.5 31v938q0 18 12.5 30.5t30.5 12.5h86q18 0 30.5 -12.5t12.5 -30.5zM1451 1664v-938
q0 -19 -12 -31t-30 -12h-86q-18 0 -30.5 12t-12.5 31v938q0 18 12.5 30.5t30.5 12.5h86q18 0 30 -12t12 -31zM726 341h597l-64 -155q-2 -5 -10 -10t-13 -6h-423q-14 2 -22 16zM1963 384v85q0 19 -12 31t-30 12h-129v1264q0 111 -62.5 191.5t-150.5 80.5h-1110
q-88 0 -150.5 -78t-62.5 -188v-1270h-128q-18 0 -30.5 -12.5t-12.5 -30.5v-85q0 -18 12.5 -30.5t30.5 -12.5h412l94 -222q20 -49 72 -84t105 -35h426q53 0 105 35t72 84l94 222h413q18 0 30 12t12 31z" />
</svg>
