<?xml version="1.0" standalone="no"?>
<!DOCTYPE svg PUBLIC "-//W3C//DTD SVG 1.1//EN" "http://www.w3.org/Graphics/SVG/1.1/DTD/svg11.dtd" >
<svg xmlns="http://www.w3.org/2000/svg" xmlns:xlink="http://www.w3.org/1999/xlink" version="1.1" width="2048" height="2048" viewBox="-10 0 2068 2048">
   <path fill="currentColor"
d="M1533 1261v146q0 54 -32.5 99t-84.5 73.5t-118 48t-129.5 28t-122.5 8.5q-135 0 -254 -49.5t-204 -135.5t-134 -206t-49 -255q0 -134 48.5 -251.5t132.5 -201.5t201.5 -132.5t251.5 -48.5q31 0 68 3t84 11t91 20.5t87 33.5t75.5 47t52 63t19.5 81v145q0 9 -6 15.5
t-15 6.5h-158q-8 0 -14.5 -6.5t-6.5 -15.5v-94q0 -30 -26.5 -54t-68 -38.5t-87 -22t-88.5 -7.5q-188 0 -305.5 122t-117.5 317q0 132 55.5 238t154.5 166t223 60q39 0 84.5 -7.5t90 -21t74 -37.5t29.5 -54v-94q0 -8 6 -14.5t14 -6.5h158q8 0 14.5 6.5t6.5 14.5zM1024.5 170
q-115.5 0 -226 31t-204.5 86t-173 134t-134 173t-86 204.5t-31 226t31 226t86 204t134 172.5t173 134t204.5 86t226 31t226 -31t204 -86t172.5 -134t134 -172.5t86 -204t31 -226t-31 -226t-86 -204.5t-134 -173t-172.5 -134t-204 -86t-226 -31zM2048 1024.5
q0 139.5 -36.5 272t-102.5 245t-160.5 207t-207 160.5t-245 102.5t-272 36.5t-272 -36.5t-245 -102.5t-207 -160.5t-160.5 -207t-103 -245t-37 -272t37 -272t103 -245t160.5 -207t207 -160.5t245 -103t272 -37t272 37t245 103t207 160.5t160.5 207t102.5 245t36.5 272z" />
</svg>
