<?xml version="1.0" standalone="no"?>
<!DOCTYPE svg PUBLIC "-//W3C//DTD SVG 1.1//EN" "http://www.w3.org/Graphics/SVG/1.1/DTD/svg11.dtd" >
<svg xmlns="http://www.w3.org/2000/svg" xmlns:xlink="http://www.w3.org/1999/xlink" version="1.1" width="2048" height="2048" viewBox="-10 0 2068 2048">
   <path fill="currentColor"
d="M1296 862q0 -144 -71 -225.5t-197 -81.5q-67 0 -133 25.5t-124.5 76t-103.5 118.5t-71.5 160.5t-26.5 196.5q0 149 71 231t201 82q78 0 150 -34t126.5 -92.5t95.5 -132.5t62 -158t21 -166zM2048 1025q0 119 -33 217.5t-87 163t-126.5 109.5t-147.5 65.5t-154 22.5
q-9 0 -21.5 1t-22.5 1q-126 0 -189 -72q-39 -44 -44 -110q-70 87 -176 146t-231 59q-215 0 -333 -127.5t-118 -359.5q0 -157 52 -299.5t140 -245.5t209 -164t254 -61q117 0 208 47t141 133l2 -26l14 -75q1 -8 7.5 -15.5t13.5 -7.5h157q9 0 17 14q7 7 5 21l-160 819
q-7 31 -7 64q0 53 16.5 70t59.5 17q24 -1 50 -4t65.5 -14t74 -27.5t71.5 -48t63 -72.5t43 -103.5t17 -137.5q0 -193 -61 -352.5t-171 -270t-269.5 -171.5t-351.5 -61q-116 0 -226.5 31t-204.5 86t-173 134t-134 173t-86 204.5t-31 226t31 226t86 204t134 172.5t173 134
t204.5 86t226.5 31q146 0 286 -50t254 -143q14 -12 31 -10t28 16l55 65q11 15 10 32q-2 18 -17 30q-135 111 -302.5 170.5t-344.5 59.5q-139 0 -271.5 -37t-245 -103t-207.5 -160.5t-161 -207t-103 -245t-37 -271t37 -271t103 -245t161 -207.5t207.5 -161t245 -103
t271.5 -37q227 0 417.5 74.5t324 207.5t207.5 324t74 419z" />
</svg>
