<?xml version="1.0" standalone="no"?>
<!DOCTYPE svg PUBLIC "-//W3C//DTD SVG 1.1//EN" "http://www.w3.org/Graphics/SVG/1.1/DTD/svg11.dtd" >
<svg xmlns="http://www.w3.org/2000/svg" xmlns:xlink="http://www.w3.org/1999/xlink" version="1.1" width="2048" height="2048" viewBox="-10 0 2067 2048">
   <path fill="currentColor"
d="M1847 0q80 0 140 53t60 133q0 68 -52 172q-74 141 -149.5 278t-196 330t-185.5 252q-112 104 -249 104q-144 0 -247.5 -106t-103.5 -251q0 -69 27.5 -132.5t77.5 -109.5l729 -662q66 -61 149 -61zM808 1181q44 86 122 148.5t172 87.5l1 81q5 244 -148 397t-399 153
q-113 0 -206 -35t-157 -96t-108 -145t-64 -180.5t-20 -203.5q6 4 47 34t71.5 51t66.5 41t53 20q47 0 63 -42q29 -75 66 -128.5t79 -87.5t100.5 -54t118 -28.5t142.5 -12.5z" />
</svg>
