<?xml version="1.0" standalone="no"?>
<!DOCTYPE svg PUBLIC "-//W3C//DTD SVG 1.1//EN" "http://www.w3.org/Graphics/SVG/1.1/DTD/svg11.dtd" >
<svg xmlns="http://www.w3.org/2000/svg" xmlns:xlink="http://www.w3.org/1999/xlink" version="1.1" width="2048" height="2048" viewBox="-10 0 2068 2048">
   <path fill="currentColor"
d="M2048 1609v439h-2048v-439q52 0 97.5 -16.5t66.5 -31.5t54 -43q35 -30 59.5 -43t64.5 -13q28 0 50.5 8t34.5 17t38 31q34 29 54 43.5t66 31t98 16.5t98 -16.5t66 -31t55 -43.5q25 -21 37.5 -30.5t34.5 -17.5t50 -8q39 0 63.5 12.5t59.5 43.5q33 28 54.5 43t67 31.5
t97.5 16.5t97.5 -16.5t66.5 -31.5t54 -43q24 -21 37.5 -30.5t35.5 -17.5t50 -8q39 0 63.5 13t59.5 43q33 28 54 43t66.5 31.5t97.5 16.5zM2048 1243v219q-28 0 -50.5 -8t-34.5 -17t-38 -31q-33 -28 -54 -43t-66.5 -31t-97.5 -16t-97.5 16t-66.5 31t-54 43q-26 22 -38 31
t-34.5 17t-50.5 8q-40 0 -64.5 -13t-59.5 -43q-33 -28 -54 -43t-66.5 -31t-97.5 -16q-40 0 -73 7.5t-61.5 23.5t-43 27t-40.5 32q-24 21 -37.5 30.5t-35.5 17.5t-50 8q-39 0 -63.5 -12.5t-59.5 -43.5q-33 -28 -54 -43t-66.5 -31t-97.5 -16t-98 16t-67 31t-54 43
q-24 21 -37.5 30.5t-35.5 17.5t-50 8v-219q0 -91 64 -155t155 -64h74v-512h292v512h293v-512h292v512h293v-512h292v512h74q91 0 155 64t64 155zM585 256q0 87 -41 134.5t-105 47.5q-61 0 -103.5 -42.5t-42.5 -103.5q0 -39 15 -66t36.5 -45t43 -37.5t36.5 -55.5t15 -88
q27 0 61.5 38t59.5 99t25 119zM1170 256q0 87 -41 134.5t-105 47.5q-61 0 -103.5 -42.5t-42.5 -103.5q0 -39 15 -66t36.5 -45t43 -37.5t36.5 -55.5t15 -88q27 0 61.5 38t59.5 99t25 119zM1755 256q0 87 -41 134.5t-105 47.5q-61 0 -103.5 -42.5t-42.5 -103.5q0 -39 15 -66
t36.5 -45t43 -37.5t36.5 -55.5t15 -88q27 0 61.5 38t59.5 99t25 119z" />
</svg>
