<?xml version="1.0" standalone="no"?>
<!DOCTYPE svg PUBLIC "-//W3C//DTD SVG 1.1//EN" "http://www.w3.org/Graphics/SVG/1.1/DTD/svg11.dtd" >
<svg xmlns="http://www.w3.org/2000/svg" xmlns:xlink="http://www.w3.org/1999/xlink" version="1.1" width="2048" height="2048" viewBox="-10 0 2068 2048">
   <path fill="currentColor"
d="M2048 1664v128h-2048v-1536h128v1408h1920zM1919 416v435q0 21 -19.5 29.5t-35.5 -7.5l-120 -121l-633 633q-10 10 -23 10t-23 -10l-233 -233l-416 416l-192 -192l585 -585q10 -10 23 -10t23 10l232 233l465 -464l-122 -121q-15 -16 -6.5 -35.5t29.5 -19.5h435
q14 0 22.5 9.5t8.5 22.5z" />
</svg>
