<?xml version="1.0" standalone="no"?>
<!DOCTYPE svg PUBLIC "-//W3C//DTD SVG 1.1//EN" "http://www.w3.org/Graphics/SVG/1.1/DTD/svg11.dtd" >
<svg xmlns="http://www.w3.org/2000/svg" xmlns:xlink="http://www.w3.org/1999/xlink" version="1.1" width="2048" height="2048" viewBox="-10 0 2068 2048">
   <path fill="currentColor"
d="M1477 708q0 3 11 47q8 23 18 41t26.5 31.5t29 22t36 17.5t37 13t42.5 12q61 17 112 38.5t100.5 54t83.5 72.5t54.5 95t20.5 120q0 111 -56.5 200.5t-150 138t-204.5 48.5q-54 0 -103.5 -13.5t-89 -35t-77 -57t-66 -70.5t-57.5 -84.5t-49 -90.5t-43 -97t-37.5 -95.5
t-34.5 -95t-32 -86.5q-29 -73 -55 -124.5t-62.5 -98.5t-79.5 -74.5t-103 -44t-135 -16.5q-83 0 -161.5 37.5t-136.5 98.5t-93 141.5t-35 162.5q0 88 32 171t87 146t134.5 101t169.5 38q202 0 295 -109q65 -74 95 -133l96 174q-17 39 -50 80l1 1q-149 174 -444 174
q-126 0 -239 -53t-192.5 -141t-125.5 -205t-46 -242q0 -120 50 -235.5t132.5 -201.5t196.5 -139t234 -53q100 0 182 22t140.5 57.5t108.5 91t83 113t67 133.5t57.5 142t56.5 149.5t63 145.5q21 44 45.5 81t57.5 72.5t75.5 55.5t88.5 20q93 0 158.5 -56t65.5 -147
q0 -43 -17 -74.5t-47 -51t-68.5 -34t-82.5 -28t-88.5 -28.5t-88 -40.5t-79 -60t-62.5 -89.5t-38 -127q-3 -19 -3 -38q0 -82 46.5 -155t122 -115t158.5 -39q88 3 137 16t104 62h-1q14 13 26.5 29t29.5 41t22 31l-148 113q-29 -55 -62 -80v-1q-12 -11 -34.5 -17t-36 -6.5
t-39.5 -0.5q-56 0 -96 37.5t-40 94.5z" />
</svg>
