<?xml version="1.0" standalone="no"?>
<!DOCTYPE svg PUBLIC "-//W3C//DTD SVG 1.1//EN" "http://www.w3.org/Graphics/SVG/1.1/DTD/svg11.dtd" >
<svg xmlns="http://www.w3.org/2000/svg" xmlns:xlink="http://www.w3.org/1999/xlink" version="1.1" width="2048" height="2048" viewBox="-10 0 2068 2048">
   <path fill="currentColor"
d="M1910 1232q0 -54 -17.5 -100.5t-46 -79.5t-70 -60.5t-84.5 -45.5t-94 -32q-28 -8 -43.5 -12.5t-37 -14.5t-34 -21t-25.5 -29t-20 -41q-1 -2 -4.5 -18t-3.5 -19q0 -48 32.5 -79.5t80.5 -31.5h33.5t30 5t30.5 14h-1q17 13 27.5 27.5t25.5 41.5l123 -94q-5 -7 -14.5 -21.5
t-16 -23.5t-16 -21t-18.5 -21q-44 -39 -90 -52t-114 -13q-70 0 -132.5 34t-101 94.5t-38.5 131.5q0 11 2 32q11 66 33.5 113t60 79t81.5 52t110 39q30 9 51.5 16t50.5 21t47.5 29.5t31.5 39.5t14 52v7q1 77 -54.5 123.5t-133.5 46.5q-128 0 -223 -192q-25 -52 -53 -122
t-48 -125.5t-48.5 -119.5t-56 -112t-70 -95t-91.5 -77t-118.5 -48.5t-152.5 -18.5q-102 0 -198.5 44.5t-167 117t-111.5 170t-38 197.5v1q4 107 41.5 204.5t102.5 171.5t159.5 118t204.5 44q246 0 371 -147q29 -37 42 -68l-81 -146q-56 108 -132 155.5t-194 47.5
q-78 0 -145 -32t-113 -86t-72 -124.5t-26 -145.5q0 -91 49.5 -175.5t133 -136.5t174.5 -52q63 0 113 13.5t86.5 37t67 63.5t53 83t46.5 105q10 26 27 72t29.5 79.5t31.5 80.5t36 81.5t41 76t48 71t55.5 59t65 47.5t75 29.5t86.5 11.5q92 0 171 -41t126.5 -116.5t47.5 -168.5
zM2048 384v1280q0 105 -51.5 193t-139.5 139.5t-193 51.5h-1280q-105 0 -193 -51.5t-139.5 -139.5t-51.5 -193v-1280q0 -105 51.5 -193t139.5 -139.5t193 -51.5h1280q105 0 193 51.5t139.5 139.5t51.5 193z" />
</svg>
