<?xml version="1.0" standalone="no"?>
<!DOCTYPE svg PUBLIC "-//W3C//DTD SVG 1.1//EN" "http://www.w3.org/Graphics/SVG/1.1/DTD/svg11.dtd" >
<svg xmlns="http://www.w3.org/2000/svg" xmlns:xlink="http://www.w3.org/1999/xlink" version="1.1" width="2048" height="2048" viewBox="-10 0 2068 2048">
   <path fill="currentColor"
d="M1152 1024.5q0 -103.5 -40.5 -198.5t-109.5 -164t-164 -109.5t-198.5 -40.5t-198.5 40.5t-163.5 109.5t-109 164t-40.5 198.5t40.5 198.5t109 163.5t163.5 109t198.5 40.5t198.5 -40.5t164 -109t109.5 -163.5t40.5 -198.5zM1919 1024.5q0 -103.5 -40.5 -198.5t-109 -164
t-163.5 -109.5t-198 -40.5h-386q119 90 188.5 224.5t69.5 288t-69.5 287.5t-188.5 224h386q103 0 198 -40.5t163.5 -109t109 -163.5t40.5 -198.5zM2048 1024.5q0 129.5 -51 248t-136.5 204t-204.5 136.5t-248 51h-768q-130 0 -248.5 -51t-204.5 -136.5t-136.5 -204
t-50.5 -248t50.5 -248.5t136.5 -204.5t204.5 -136.5t248.5 -51h768q129 0 248 51t204.5 136.5t136.5 204.5t51 248.5z" />
</svg>
