<?xml version="1.0" standalone="no"?>
<!DOCTYPE svg PUBLIC "-//W3C//DTD SVG 1.1//EN" "http://www.w3.org/Graphics/SVG/1.1/DTD/svg11.dtd" >
<svg xmlns="http://www.w3.org/2000/svg" xmlns:xlink="http://www.w3.org/1999/xlink" version="1.1" width="2048" height="2048" viewBox="-10 0 2068 2048">
   <path fill="currentColor"
d="M677 1252h-279q-35 0 -50.5 -31.5t5.5 -59.5l167 -223q-58 -28 -122 -28q-117 0 -200.5 83.5t-83.5 201t83.5 201t200.5 83.5q103 0 181 -64.5t98 -162.5zM512 1138h165q-16 -75 -66 -132zM939 1138l256 -342h-427l-88 118q93 90 112 224h147zM1934 1194.5
q0 -117.5 -83.5 -201t-200.5 -83.5q-52 0 -108 22l155 231q13 20 8.5 43t-23.5 36q-14 10 -32 10q-31 0 -47 -26l-155 -231q-83 84 -83 200q0 117 83.5 200.5t201 83.5t201 -83.5t83.5 -201zM2048 1195q0 108 -53.5 199.5t-145 145t-199.5 53.5t-200 -53.5t-145 -145
t-53 -199.5q0 -87 35 -164t97 -133l-58 -87l-313 417q-17 24 -46 24h-175q-21 145 -132.5 243t-261.5 98q-108 0 -199.5 -53.5t-145 -145t-53.5 -199.5t53.5 -200t145 -145.5t199.5 -53.5q102 0 192 49l121 -162h-199q-24 0 -40.5 -17t-16.5 -40t17 -40t40 -17h341v114h387
l-76 -114h-197q-24 0 -40.5 -17t-16.5 -40.5t16.5 -40t40.5 -16.5h228q29 0 47 25l237 355q81 -39 171 -39q108 0 199.5 53.5t145 145.5t53.5 200z" />
</svg>
