<?xml version="1.0" standalone="no"?>
<!DOCTYPE svg PUBLIC "-//W3C//DTD SVG 1.1//EN" "http://www.w3.org/Graphics/SVG/1.1/DTD/svg11.dtd" >
<svg xmlns="http://www.w3.org/2000/svg" xmlns:xlink="http://www.w3.org/1999/xlink" version="1.1" width="2048" height="2048" viewBox="-10 0 2058 2048">
   <path fill="currentColor"
d="M586 1389q0 -61 -43 -103.5t-103.5 -42.5t-104 42.5t-43.5 103.5t43.5 104t104 43t103.5 -43t43 -104zM1756 1389q0 -61 -43 -103.5t-103.5 -42.5t-103 42.5t-42.5 103.5t42.5 104t103 43t103.5 -43t43 -104zM1704 937l-84 -439q-5 -26 -25 -43t-47 -17h-1048
q-27 0 -47 17t-25 43l-82 439q-6 34 15.5 60.5t56.5 26.5h1214q34 0 55.5 -26.5t16.5 -60.5zM1444 237q0 -23 -15.5 -39t-38.5 -16h-732q-22 0 -38 16t-16 39t16 39t38 16h732q23 0 38.5 -16t15.5 -39zM1902 1066v689h-146v146q0 61 -43 104t-103.5 43t-103 -43t-42.5 -104
v-146h-878v146q0 61 -43 104t-103.5 43t-104 -43t-43.5 -104v-146h-146v-689q0 -129 30 -255l116 -519q11 -89 112.5 -156t262.5 -101.5t357.5 -34.5t357.5 34.5t262 101.5t112 156l120 519q26 113 26 255z" />
</svg>
