<?xml version="1.0" standalone="no"?>
<!DOCTYPE svg PUBLIC "-//W3C//DTD SVG 1.1//EN" "http://www.w3.org/Graphics/SVG/1.1/DTD/svg11.dtd" >
<svg xmlns="http://www.w3.org/2000/svg" xmlns:xlink="http://www.w3.org/1999/xlink" version="1.1" width="2048" height="2048" viewBox="-10 0 2068 2048">
   <path fill="currentColor"
d="M1463 1023.5q0 35.5 -25 61t-61 25.5h-702q-36 0 -61 -25.5t-25 -61t25 -60.5t61 -25h702q36 0 61 25t25 60.5zM1677 1024q0 -83 -24 -170h-981q-36 0 -61 -25t-25 -60q0 -36 25 -61t61 -25h908q-87 -142 -235 -226.5t-321 -84.5q-132 0 -253 51.5t-208.5 139t-139 208
t-51.5 253.5q0 86 23 170h982q36 0 61 25t25 60q0 36 -25 61t-61 25h-908q87 143 234.5 227t320.5 84q133 0 253.5 -51.5t208 -139t139.5 -208.5t52 -253zM2048 769q0 35 -25.5 60t-61.5 25h-130q17 80 17 170q0 111 -30 218t-83 197.5t-129 166.5t-166 129t-197 83t-219 30
q-246 0 -448 -133t-301 -350h-189q-36 0 -61 -25t-25 -61q0 -35 25 -60t61 -25h132q-17 -80 -17 -170q0 -112 29.5 -219t82.5 -197t129 -166t166.5 -129t197 -83t218.5 -30q246 0 448 133t301 350h188q37 0 62 25t25 61z" />
</svg>
