<?xml version="1.0" standalone="no"?>
<!DOCTYPE svg PUBLIC "-//W3C//DTD SVG 1.1//EN" "http://www.w3.org/Graphics/SVG/1.1/DTD/svg11.dtd" >
<svg xmlns="http://www.w3.org/2000/svg" xmlns:xlink="http://www.w3.org/1999/xlink" version="1.1" width="2048" height="2048" viewBox="-10 0 2058 2048">
   <path fill="currentColor"
d="M1382 432l-130 374l134 24q188 -520 188 -592q0 -26 -10 -45t-34 -19q-18 0 -38.5 23t-36 52.5t-33 71.5t-25 64t-15.5 47zM1040 1217q31 80 38 100q38 -45 80 -76q-13 -3 -37.5 -6.5t-44 -7.5t-36.5 -10zM706 193q0 111 182 595q19 -11 56 -11q18 0 86 5l-138 -401
q-1 -3 -4 -11q-82 -240 -138 -240q-21 0 -32.5 20t-11.5 43zM616 1060q0 41 59 136t134 175t115 80q16 0 29 -15t13 -31q0 -26 -36 -116q-15 -37 -37 -82.5t-54.5 -101.5t-70.5 -92.5t-70 -36.5q-24 0 -53 30.5t-29 53.5zM436 1443q0 48 28 119q66 166 209 259.5t323 93.5
q258 0 436 -194q174 -194 174 -488q0 -36 -1 -56t-5 -55t-15 -60t-29 -41q-44 -39 -156.5 -67t-215 -38.5t-178.5 -10.5q-42 0 -56 12q-14 6 -14 40q0 30 14 54t38 40t56 28.5t68.5 18.5t74.5 11t75 5.5t69.5 1.5t57.5 0h27q16 0 25.5 5t20.5 17q18 22 22 63q-31 30 -110 61
q-70 26 -106 53q-73 53 -124.5 130.5t-51.5 156.5q0 36 21 101t21 100l-4 14t-4 16q-156 -11 -166 -247q-10 2 -46 2q2 8 2 24q0 61 -46.5 102.5t-107.5 41.5t-128.5 -41t-113.5 -105t-46 -125q0 -24 9 -40.5t29 -35.5q7 10 21.5 27.5t26 32t20.5 27.5q17 22 30.5 38.5
t34.5 37t43.5 31.5t43.5 11q14 0 31 -10t17 -23q0 -25 -48.5 -96.5t-106 -133.5t-79.5 -62q-33 0 -59.5 26.5t-38.5 61t-12 66.5zM306 1453q0 -115 48 -186.5t156 -100.5q-32 -81 -32 -118q0 -46 32 -95.5t81.5 -82.5t94.5 -33q33 0 80 17q-2 -7 -8 -23q-178 -503 -178 -625
q0 -91 47 -148.5t137 -57.5q149 0 370 661q7 21 10 29q7 -18 27 -75t40.5 -110.5t49 -123.5t59 -127.5t64.5 -108.5t72 -79.5t74 -28.5q82 0 129 56.5t47 139.5q0 125 -182 628q55 14 95.5 41t64 60.5t37 81t17.5 91t4 101.5q0 137 -33.5 260t-99 223.5t-157 174t-212.5 114
t-260 40.5q-129 0 -256 -48q-81 -31 -156.5 -86.5t-134 -126.5t-93 -158.5t-34.5 -175.5z" />
</svg>
