<?xml version="1.0" standalone="no"?>
<!DOCTYPE svg PUBLIC "-//W3C//DTD SVG 1.1//EN" "http://www.w3.org/Graphics/SVG/1.1/DTD/svg11.dtd" >
<svg xmlns="http://www.w3.org/2000/svg" xmlns:xlink="http://www.w3.org/1999/xlink" version="1.1" width="2048" height="2048" viewBox="-10 0 2068 2048">
   <path fill="currentColor"
d="M785 1136h207q-14 158 -98.5 248.5t-214.5 90.5q-162 0 -254.5 -116t-92.5 -316q0 -194 93 -311.5t233 -117.5q148 0 232 87.5t97 246.5h-203q-5 -64 -35.5 -99t-81.5 -35q-58 0 -89 60.5t-31 177.5q0 48 5 84t18 69.5t40 51.5t66 18q49 0 75.5 -37.5t33.5 -101.5z
M1497 1136h205q-14 158 -97.5 248.5t-213.5 90.5q-162 0 -254.5 -116t-92.5 -316q0 -194 93 -311.5t233 -117.5q148 0 232 87.5t97 246.5h-204q-4 -63 -35 -98.5t-81 -35.5q-58 0 -89 60.5t-31 177.5q0 38 2.5 68t11 60t22 50t37 32.5t55.5 12.5q49 0 76.5 -38t33.5 -101z
M1856 1017q0 -207 -15.5 -306.5t-61.5 -161.5q-5 -7 -13 -13.5t-21 -15t-16 -11.5q-86 -63 -698 -63q-625 0 -709 63q-5 4 -18 12t-21.5 14.5t-13.5 13.5q-45 61 -60 160t-15 308t15 308t60 160q6 8 14.5 15t20.5 14t18 12q44 33 239.5 49t470 16t463.5 -16t234 -49
q5 -4 16.5 -11.5t20 -14t13.5 -15.5q46 -60 61.5 -159t15.5 -309zM2048 256v1536h-2048v-1536h2048z" />
</svg>
