<?xml version="1.0" standalone="no"?>
<!DOCTYPE svg PUBLIC "-//W3C//DTD SVG 1.1//EN" "http://www.w3.org/Graphics/SVG/1.1/DTD/svg11.dtd" >
<svg xmlns="http://www.w3.org/2000/svg" xmlns:xlink="http://www.w3.org/1999/xlink" version="1.1" width="2048" height="2048" viewBox="-10 0 2068 2048">
   <path fill="currentColor"
d="M2048 1022q0 21 -13 36.5t-33 19.5l-205 356q3 9 3 19q0 20 -12.5 35.5t-32.5 19.5l-193 337q3 10 3 15q0 24 -17 40.5t-41 16.5q-25 0 -40 -17h-401q-15 20 -42 20t-43 -20h-399q-16 20 -43 20q-23 0 -40 -17t-17 -41q0 -7 4 -19l-193 -335q-20 -4 -32.5 -19.5
t-12.5 -35.5q0 -6 3 -19l-206 -356q-20 -4 -32.5 -19.5t-12.5 -36.5t13.5 -36.5t33.5 -19.5l199 -344l-0.5 -2.5t-0.5 -3.5q0 -16 9.5 -30t24.5 -20l209 -363q-4 -14 -4 -18q0 -24 16.5 -40.5t40.5 -16.5q26 0 44 21h396q15 -21 42.5 -21t42.5 21h398q19 -21 45 -21
q23 0 40 16.5t17 40.5q0 2 -4 18l207 357q22 1 38.5 17.5t16.5 38.5q0 15 -7 27l186 325q20 4 32.5 19t12.5 35zM1063 1822h388l-341 -354h-143l-342 354h360q18 -17 39 -17t39 17zM112 1010q1 4 1 12q0 11 -2 16l208 360q3 0 8 2.5l7 3.5l188 -200v-346l-187 -194
q-13 9 -29 10zM986 226h-388l190 200l554 -200h-280q-16 16 -38 16t-38 -16zM1688 1438q1 -5 6 -12l-64 -68l-18 80h76zM1583 1438l21 -105l-251 -266l-296 307l63 64h463zM1495 1805l16 -28l65 -309h-427l333 342l5 -2t8 -3zM578 1822h5l342 -354h-373v335l4 6q13 4 22 13z
M552 1438h402l63 -67l-308 -321l-157 166v222zM359 1438h163v-189l-168 177q4 9 5 12zM358 613l0.5 1.5l0.5 1.5q0 18 -8 30l171 177v-270zM552 543v310l153 158l297 -314l-223 -236zM556 238l-4 9v263l205 -73l-191 -201q-4 1 -10 2zM1447 226h-17l-620 224l213 225z
M1023 718l-297 315l311 318l295 -306zM688 1029l-136 -141v285zM1038 1393l-42 45h84zM1373 1046l238 251l133 -625l-3 -4l-1 -1zM1717 646q-8 -12 -8 -30v-1l-216 -377q-2 0 -12 -4l-437 463l309 327zM522 522v-223l-163 281zM522 1468h-163l163 282v-282zM1607 1468
l-48 226l129 -226h-81zM1729 1398l207 -362q0 -1 -1.5 -6t-1.5 -8t2 -8.5t2 -6.5l-172 -296l-128 611l77 83q12 -7 15 -7z" />
</svg>
