<?xml version="1.0" standalone="no"?>
<!DOCTYPE svg PUBLIC "-//W3C//DTD SVG 1.1//EN" "http://www.w3.org/Graphics/SVG/1.1/DTD/svg11.dtd" >
<svg xmlns="http://www.w3.org/2000/svg" xmlns:xlink="http://www.w3.org/1999/xlink" version="1.1" width="2048" height="2048" viewBox="-10 0 2058 2048">
   <path fill="currentColor"
d="M220 777q0 -98 47 -182.5t130 -135t181 -50.5h848l402 -409v1680q0 98 -47 183t-130 135t-181 50h-892q-98 0 -181 -50t-130 -135t-47 -183v-903zM1628 1638l-202 -205v-486q0 -53 -36.5 -90.5t-89.5 -37.5h-552q-53 0 -89.5 37.5t-36.5 90.5v562q0 53 36.5 91t89.5 38
h880z" />
</svg>
