<?xml version="1.0" standalone="no"?>
<!DOCTYPE svg PUBLIC "-//W3C//DTD SVG 1.1//EN" "http://www.w3.org/Graphics/SVG/1.1/DTD/svg11.dtd" >
<svg xmlns="http://www.w3.org/2000/svg" xmlns:xlink="http://www.w3.org/1999/xlink" version="1.1" width="2048" height="2048" viewBox="-10 0 2068 2048">
   <path fill="currentColor"
d="M1245 29q-422 161 -740.5 483.5t-477.5 747.5q-27 -118 -27 -234q0 -139 36.5 -271.5t102.5 -244.5t160 -206.5t206 -160.5t244 -102.5t271 -36.5q110 0 225 25zM1605 188q123 85 218 206q-343 101 -632 307.5t-494 496t-303 633.5q-126 -100 -206 -216
q98 -340 301.5 -627.5t489.5 -493t626 -306.5zM627 1967q154 -475 506.5 -830t825.5 -512q55 126 73 261q-390 160 -688.5 459.5t-457.5 690.5q-139 -18 -259 -69zM2048 2044q-250 -65 -489 -154q-183 115 -386 144q146 -274 365.5 -495t490.5 -367q-28 204 -134 379
q84 227 153 493z" />
</svg>
