<?xml version="1.0" standalone="no"?>
<!DOCTYPE svg PUBLIC "-//W3C//DTD SVG 1.1//EN" "http://www.w3.org/Graphics/SVG/1.1/DTD/svg11.dtd" >
<svg xmlns="http://www.w3.org/2000/svg" xmlns:xlink="http://www.w3.org/1999/xlink" version="1.1" width="2048" height="2048" viewBox="-10 0 2068 2048">
   <path fill="currentColor"
d="M1892 452l156 1271q-130 0 -257 -56q-200 -91 -393 -91q-227 0 -374 147q-148 -147 -374 -147q-193 0 -393 91q-129 56 -252 56h-5l155 -1271q107 -61 232.5 -94t249.5 -33q232 0 387 106q154 -106 387 -106q124 0 249 33t232 94zM1398 1439q129 0 232 28.5t260 93.5
l-125 -1021q-171 -78 -367 -78q-225 0 -374 141q-150 -141 -374 -141q-196 0 -368 78l-124 1021q80 -33 126 -50t110.5 -36.5t125.5 -27.5t130 -8q201 0 374 108q172 -108 374 -108zM1437 1405l-54 -907q-212 4 -359 155q-79 -80 -170 -117.5t-204 -37.5q-174 0 -336 66
l-114 941q124 -51 228.5 -76t221.5 -25q210 0 374 102q170 -106 374 -102z" />
</svg>
