<?xml version="1.0" standalone="no"?>
<!DOCTYPE svg PUBLIC "-//W3C//DTD SVG 1.1//EN" "http://www.w3.org/Graphics/SVG/1.1/DTD/svg11.dtd" >
<svg xmlns="http://www.w3.org/2000/svg" xmlns:xlink="http://www.w3.org/1999/xlink" version="1.1" width="2048" height="2048" viewBox="-10 0 2068 2048">
   <path fill="currentColor"
d="M1499 1499v-733q0 -21 -14.5 -36t-34.5 -15h-93q-20 0 -35 15t-15 36v733q0 20 15 35t35 15h93q20 0 34.5 -15t14.5 -35zM1216 1499v-531q0 -20 -15 -35t-35 -15h-101q-21 0 -35.5 15t-14.5 35v531q0 20 14.5 35t35.5 15h101q20 0 35 -15t15 -35zM924 1499v-429
q0 -20 -15 -35t-35 -15h-102q-20 0 -34.5 15t-14.5 35v429q0 20 14.5 35t34.5 15h102q20 0 35 -15t15 -35zM632 1499v-362q0 -20 -15 -35t-35 -15h-101q-20 0 -35 15t-15 35v362q0 20 15 35t35 15h101q20 0 35 -15t15 -35zM2048 1353q0 110 -54 202.5t-146.5 146
t-201.5 53.5h-1244q-109 0 -201.5 -53.5t-146.5 -146t-54 -202.5q0 -116 63 -214.5t168 -148.5q-10 -32 -10 -73q0 -114 80.5 -194t193.5 -80q101 0 180 67q45 -183 194 -300t337 -117q112 0 213.5 43.5t175 117t117 175t43.5 212.5q0 64 -14 122q135 33 221 142.5t86 247.5
z" />
</svg>
