<?xml version="1.0" standalone="no"?>
<!DOCTYPE svg PUBLIC "-//W3C//DTD SVG 1.1//EN" "http://www.w3.org/Graphics/SVG/1.1/DTD/svg11.dtd" >
<svg xmlns="http://www.w3.org/2000/svg" xmlns:xlink="http://www.w3.org/1999/xlink" version="1.1" width="2048" height="2048" viewBox="-10 0 2058 2048">
   <path fill="currentColor"
d="M115 0h1818v1647l-918 401l-900 -401v-1647zM1815 1570v-1096h-1582v1096l783 349zM1815 356v-238h-1582v238h1582zM329 709v136h-43v-136h43zM329 884v136h-43v-136h43zM329 1059v136h-43v-136h43zM329 1235v136h-43v-136h43zM329 1410v136h-43v-136h43zM360 1579
l18 -41l124 56l-17 40zM521 1650l18 -40l124 54l-18 40zM681 1721l17 -41l125 55l-18 41zM842 1791l18 -39l123 55l-18 39zM1059 1807l124 -55l18 39l-125 55zM1218 1735l125 -55l17 41l-124 55zM1380 1664l124 -54l18 40l-125 54zM1539 1594l125 -56l17 41l-124 55z
M422 174v43h-135v-43h135zM613 174v43h-135v-43h135zM805 174v43h-136v-43h136zM996 174v43h-135v-43h135zM1187 174v43h-135v-43h135zM1380 174v43h-137v-43h137zM1571 174v43h-136v-43h136zM1762 174v43h-136v-43h136zM329 576v93h-43v-136h136v43h-93zM613 533v43h-135
v-43h135zM805 533v43h-136v-43h136zM996 533v43h-135v-43h135zM1187 533v43h-135v-43h135zM1380 533v43h-137v-43h137zM1571 533v43h-136v-43h136zM1720 669v-93h-94v-43h137v136h-43zM1720 845v-136h43v136h-43zM1720 1020v-136h43v136h-43zM1720 1195v-136h43v136h-43z
M1720 1371v-136h43v136h-43zM1720 1546v-136h43v136h-43zM1015 1504q-100 0 -185.5 -49.5t-135.5 -135t-50 -186.5q0 -100 50 -185.5t135.5 -135t185.5 -49.5q101 0 186 50t134.5 135t49.5 185q0 101 -49.5 186.5t-134.5 135t-186 49.5zM819 1054q0 42 23.5 66t58.5 30t76 8
t76 2t58 11t23 36q0 18 -15 31t-39 18t-42 7t-36 2q-116 0 -146 -60h-3l-37 74q78 50 192 50q34 0 66.5 -5.5t66 -18.5t54 -39.5t20.5 -62.5q0 -46 -23.5 -73.5t-59 -34.5t-77 -9.5t-77 -1.5t-59 -7t-23.5 -29q0 -18 13.5 -31t34.5 -18.5t38.5 -8t34.5 -2.5q41 0 84 13
t60 40h4l36 -68q-4 -2 -22 -9.5t-23 -9t-20.5 -7.5t-22.5 -8l-21 -6t-23.5 -5t-22.5 -2.5t-26 -1.5q-34 0 -66.5 6t-64 20t-51 40.5t-19.5 63.5z" />
</svg>
