<?xml version="1.0" standalone="no"?>
<!DOCTYPE svg PUBLIC "-//W3C//DTD SVG 1.1//EN" "http://www.w3.org/Graphics/SVG/1.1/DTD/svg11.dtd" >
<svg xmlns="http://www.w3.org/2000/svg" xmlns:xlink="http://www.w3.org/1999/xlink" version="1.1" width="2048" height="2048" viewBox="-10 0 2068 2048">
   <path fill="currentColor"
d="M1429 712zM1689 916q97 0 179 43.5t131 123t49 175.5q0 104 -50.5 188t-136.5 131t-189 47q-44 0 -86 -8t-76.5 -19t-72.5 -33t-65.5 -40.5t-62.5 -52t-56.5 -55.5t-56 -63t-52.5 -63.5t-53 -67.5q-35 -44 -52.5 -66.5t-51.5 -63t-55.5 -62.5t-56 -54.5t-61.5 -50.5
t-64 -40t-71 -33t-75 -19t-83 -8q-154 0 -251.5 91.5t-97.5 244.5q0 105 48.5 183.5t131.5 119t187 40.5q99 0 207.5 -37.5t193.5 -97.5q5 -4 21 -18.5t30 -24.5t22 -10q14 0 24.5 10.5t10.5 24.5q0 25 -60 77q-102 88 -235 142t-260 54q-100 0 -190 -34t-157 -94
t-106.5 -147.5t-39.5 -188.5q0 -134 65 -244t177 -171t247 -61q95 0 181 26.5t153.5 72.5t129.5 105t116 124t106 130t105.5 124t108 104.5t120.5 72.5t137 27q103 0 169.5 -61.5t66.5 -162.5q0 -95 -64.5 -159t-159.5 -64q-30 0 -82 19t-69 19q-20 0 -35 -15t-15 -35
q0 -18 8.5 -57t8.5 -59q0 -105 -49.5 -189t-135 -131t-189.5 -47q-58 0 -111.5 18.5t-84 40.5t-55.5 40t-33 18q-15 0 -26 -10.5t-11 -25.5q0 -18 26 -45q59 -67 147 -103.5t182 -36.5q125 0 227 57t160 158t58 226q0 29 -4 65q58 -14 114 -14z" />
</svg>
