<?xml version="1.0" standalone="no"?>
<!DOCTYPE svg PUBLIC "-//W3C//DTD SVG 1.1//EN" "http://www.w3.org/Graphics/SVG/1.1/DTD/svg11.dtd" >
<svg xmlns="http://www.w3.org/2000/svg" xmlns:xlink="http://www.w3.org/1999/xlink" version="1.1" width="2048" height="2048" viewBox="-10 0 2068 2048">
   <path fill="currentColor"
d="M1497 709q0 -32 -23.5 -55.5t-55.5 -23.5h-158v-157q0 -32 -23 -55t-55.5 -23t-55.5 23t-23 55v157h-158q-32 0 -55 23.5t-23 55.5t23 55.5t55 23.5h158v158q0 32 23 55.5t55.5 23.5t55.5 -23.5t23 -55.5v-158h158q32 0 55.5 -23.5t23.5 -55.5zM787 1733q0 65 -46 111
t-111.5 46t-111 -46t-45.5 -111t45.5 -111t111 -46t111.5 46t46 111zM1890 1733q0 65 -46 111t-111.5 46t-111.5 -46t-46 -111t46 -111t111.5 -46t111.5 46t46 111zM2048 395v630q0 30 -19.5 52t-50.5 26l-1286 150l6.5 26t7.5 32.5t3 27.5q0 10 -3.5 21.5t-6.5 18.5
t-10 20.5t-10 18.5h1132q32 0 55.5 23.5t23.5 56t-23.5 55.5t-55.5 23h-1260q-32 0 -55 -23t-23 -56q0 -17 13.5 -48.5t36.5 -73.5t25 -47l-219 -1013h-250q-33 0 -56 -23t-23 -55.5t23 -55.5t56 -23h315q20 0 35.5 8t24.5 18.5t16 30t9.5 32.5t6 36.5t5.5 31.5h1478
q33 0 56 23.5t23 56.5z" />
</svg>
