<?xml version="1.0" standalone="no"?>
<!DOCTYPE svg PUBLIC "-//W3C//DTD SVG 1.1//EN" "http://www.w3.org/Graphics/SVG/1.1/DTD/svg11.dtd" >
<svg xmlns="http://www.w3.org/2000/svg" xmlns:xlink="http://www.w3.org/1999/xlink" version="1.1" width="2048" height="2048" viewBox="-11 0 2069 2048">
   <path fill="currentColor"
d="M212 832l623 664l-300 -664h-323zM1024 1604l349 -772h-698zM538 704l204 -384h-261l-289 384h346zM1213 1496l623 -664h-323zM683 704h682l-204 -384h-274zM1510 704h346l-288 -384h-262zM1651 218l384 512q14 18 12.5 41t-16.5 40l-960 1025q-19 20 -47 20t-47 -20
l-960 -1025q-16 -17 -17 -40t13 -41l384 -512q20 -26 51 -26h1152q32 0 51 26z" />
</svg>
