<?xml version="1.0" standalone="no"?>
<!DOCTYPE svg PUBLIC "-//W3C//DTD SVG 1.1//EN" "http://www.w3.org/Graphics/SVG/1.1/DTD/svg11.dtd" >
<svg xmlns="http://www.w3.org/2000/svg" xmlns:xlink="http://www.w3.org/1999/xlink" version="1.1" width="2048" height="2048" viewBox="-10 0 2068 2048">
   <path fill="currentColor"
d="M1826 1695q19 -19 45.5 -19t46.5 19l130 131l-92 91l-85 -84l-84 84q-19 20 -46 20q-28 0 -46 -20l-84 -84l-85 84q-19 20 -45.5 20t-45.5 -20l-85 -84l-85 84q-19 20 -45.5 20t-46.5 -20l-84 -84l-84 84q-20 20 -46.5 20t-45.5 -20l-85 -84l-84 84q-20 20 -46.5 20
t-45.5 -20l-85 -84l-85 84q-19 20 -45 20t-46 -20l-84 -84l-85 84q-19 20 -45.5 20t-46.5 -20l-130 -130l92 -92l84 85l84 -85q20 -19 46.5 -19t45.5 19l85 85l85 -85q19 -19 45.5 -19t45.5 19l85 85l84 -85q19 -19 45.5 -19t46.5 19l84 85l85 -85q20 -19 46.5 -19t45.5 19
l85 85l84 -85q20 -19 46 -19t45 19l85 85l85 -85q19 -19 45.5 -19t46.5 19l84 85zM222 1656q-19 20 -45.5 20t-46.5 -20l-130 -130l92 -92l84 84l84 -84q20 -19 46.5 -19t45.5 19l85 84l65 -65v-299l-214 -320q-18 -27 -7.5 -57.5t41.5 -41.5l180 -59v-305h130v-130h261
v-130h262v130h260v130h130v305l181 59q31 11 41 41.5t-8 57.5l-214 320v299l20 -19q19 -19 45.5 -19t46.5 19l84 84l85 -84q19 -19 45.5 -19t46.5 19l130 130l-92 92l-85 -85l-84 85q-19 20 -46 20q-28 0 -46 -20l-84 -85l-85 85q-19 20 -45.5 20t-45.5 -20l-85 -85l-85 85
q-19 20 -45.5 20t-46.5 -20l-84 -85l-84 85q-20 20 -46.5 20t-45.5 -20l-85 -85l-84 85q-20 20 -46.5 20t-45.5 -20l-85 -85l-85 85q-19 20 -45 20t-46 -20l-84 -85zM632 502v131l392 -131l391 131v-131h-130v-131h-522v131h-131z" />
</svg>
