<?xml version="1.0" standalone="no"?>
<!DOCTYPE svg PUBLIC "-//W3C//DTD SVG 1.1//EN" "http://www.w3.org/Graphics/SVG/1.1/DTD/svg11.dtd" >
<svg xmlns="http://www.w3.org/2000/svg" xmlns:xlink="http://www.w3.org/1999/xlink" version="1.1" width="2048" height="2048" viewBox="-10 0 2058 2048">
   <path fill="currentColor"
d="M866 1891l119 -552l-119 -157l-157 -79zM1182 1891l157 -788l-157 79l-119 157zM1379 647q-2 -4 -5 -7q-13 -10 -119 -10q-93 0 -205 23q-13 3 -25.5 3t-25.5 -3q-112 -23 -206 -23q-106 0 -119 10q-3 3 -5 7q1 13 5 34q3 3 9.5 7.5t9.5 12.5q2 7 8.5 25.5t9 25t9 21.5
t10.5 21t11.5 17.5t14.5 16t17 11.5t21 10t25.5 5t30.5 2q37 0 63.5 -10.5t39 -27t21 -35.5t12.5 -35t11.5 -27t19.5 -11h14q12 0 19.5 11t11.5 27t12.5 35t21 35.5t39 27t63.5 10.5q16 0 30.5 -2t25.5 -5t21 -10t17 -11.5t14.5 -16t11.5 -17.5t10.5 -21t9 -21.5t9 -25
t8.5 -25.5q3 -8 9.5 -12.5t9.5 -7.5q4 -21 5 -34zM1891 1729q0 149 -89.5 234t-239.5 85h-1076q-150 0 -239.5 -85t-89.5 -234q0 -62 4.5 -120t14.5 -127.5t29.5 -131t48 -118.5t72.5 -102t100 -72l-111 -270h264q-27 -80 -27 -158q0 -16 2 -40q-23 -4 -44.5 -9t-60 -16.5
t-65.5 -24t-48 -31t-21 -37.5q0 -71 258 -122q21 -75 64 -164.5t87 -140.5q40 -45 94 -45q31 0 67 19t72.5 37.5t67.5 18.5t67 -18.5t72 -37.5t67 -19q53 0 93 45q44 51 87 140.5t64 164.5q258 51 258 122q0 19 -21 37.5t-48 31t-65.5 24t-60 16.5t-44.5 9q10 101 -25 198
h264l-101 276q53 28 95.5 73.5t70 102t46.5 117.5t29 129t14 125.5t4 117.5z" />
</svg>
