<?xml version="1.0" standalone="no"?>
<!DOCTYPE svg PUBLIC "-//W3C//DTD SVG 1.1//EN" "http://www.w3.org/Graphics/SVG/1.1/DTD/svg11.dtd" >
<svg xmlns="http://www.w3.org/2000/svg" xmlns:xlink="http://www.w3.org/1999/xlink" version="1.1" width="2048" height="2048" viewBox="-10 0 2068 2048">
   <path fill="currentColor"
d="M2045 1149q11 91 -19 176t-88 145.5t-141.5 94t-174.5 27.5q-143 -9 -248 -110.5t-120 -244.5q-10 -99 25 -187.5t104 -151.5l-63 -95q-85 72 -133.5 173.5t-48.5 216.5q0 24 -16.5 41t-40.5 17h-228h-61q-21 146 -132.5 244t-261.5 98q-108 0 -199.5 -53.5t-145 -145.5
t-53.5 -199.5t53.5 -199.5t145 -145.5t199.5 -53.5q66 0 135 25l21 -41q-108 -97 -269 -97h-57q-24 0 -41 -17t-17 -40t17.5 -40t40.5 -17h113q57 0 109 9.5t85 20.5t68 31t47 28.5t33 24.5h455h102l-76 -114h-197q-27 0 -44 -20t-12 -46q3 -21 20.5 -34.5t38.5 -13.5h225
q29 0 47 25l62 93l101 -101q17 -17 41 -17h90q23 0 40 17t17 40v114q0 23 -17 40t-40 17h-160l103 152q117 -56 244 -32q128 24 218 120.5t104 225.5zM398 1479q103 0 181 -64.5t98 -163.5h-279q-32 0 -49 -27q-16 -28 -1 -56l131 -246q-43 -12 -81 -12q-117 0 -200.5 83.5
t-83.5 201t83.5 201t200.5 83.5zM1649.5 1479q117.5 0 201 -83.5t83.5 -201t-83.5 -201t-201.5 -83.5q-52 0 -107 22l155 231q13 20 8.5 43t-24.5 36q-13 9 -32 9q-30 0 -46 -25l-155 -231q-83 84 -83 200q0 117 83.5 200.5t201 83.5z" />
</svg>
