<?xml version="1.0" standalone="no"?>
<!DOCTYPE svg PUBLIC "-//W3C//DTD SVG 1.1//EN" "http://www.w3.org/Graphics/SVG/1.1/DTD/svg11.dtd" >
<svg xmlns="http://www.w3.org/2000/svg" xmlns:xlink="http://www.w3.org/1999/xlink" version="1.1" width="2048" height="2048" viewBox="-10 0 2058 2048">
   <path fill="currentColor"
d="M1843 1750q0 59 -47.5 109t-127 84.5t-185.5 58.5t-222 35t-236.5 11t-236.5 -11t-222 -35t-186 -58.5t-127.5 -84.5t-47.5 -109q0 -46 26.5 -85.5t68.5 -67.5t101 -51t116 -37.5t122 -25.5q30 -5 55.5 13t31 48.5t-12.5 55t-49 30.5q-67 11 -123 26.5t-89 29.5t-56 28
t-32 23t-10 14q3 13 31 30.5t85.5 38t133 38t186.5 29t234.5 11.5t234.5 -11.5t186.5 -29t132.5 -38t85 -39t31 -31.5q-1 -5 -10 -13t-32 -22t-56 -27.5t-89 -29.5t-123 -27q-31 -6 -49 -30.5t-12.5 -55t31 -48.5t55.5 -13q65 11 122 25.5t116 37.5t101 51t68.5 67.5
t26.5 85.5zM1396 707v447q0 31 -22 53t-52 22h-75v446q0 31 -21.5 53t-52.5 22h-298q-31 0 -52.5 -22t-21.5 -53v-446h-75q-30 0 -52 -22t-22 -53v-447q0 -61 43.5 -104.5t105.5 -43.5h446q62 0 105.5 43.5t43.5 104.5zM1285 260.5q0 108.5 -76 184.5t-184.5 76t-184.5 -76
t-76 -184.5t76 -184.5t184.5 -76t184.5 76t76 184.5z" />
</svg>
