<?xml version="1.0" standalone="no"?>
<!DOCTYPE svg PUBLIC "-//W3C//DTD SVG 1.1//EN" "http://www.w3.org/Graphics/SVG/1.1/DTD/svg11.dtd" >
<svg xmlns="http://www.w3.org/2000/svg" xmlns:xlink="http://www.w3.org/1999/xlink" version="1.1" width="2048" height="2048" viewBox="-10 0 2068 2048">
   <path fill="currentColor"
d="M1463 1170h348q-5 6 -9.5 10.5l-7.5 7.5t-5.5 5t-2.5 3l-712 686q-20 20 -50 20t-50 -20l-713 -688q-5 -3 -24 -24h421q25 0 45 -15.5t26 -38.5l80 -322l217 762q7 24 26.5 39t44.5 15q24 0 43.5 -15t26.5 -39l167 -554l64 128q10 19 27.5 29.5t37.5 10.5zM2048 682
q0 166 -118 342h-421l-127 -252q-10 -20 -29.5 -31t-41.5 -9q-23 2 -40.5 16t-23.5 36l-148 492l-224 -784q-7 -24 -27 -39t-45 -15t-44 15.5t-25 40.5l-133 530h-483q-118 -176 -118 -342q0 -252 145 -394t401 -142q71 0 144.5 25t137.5 66.5t109.5 78.5t86.5 78
q41 -41 86.5 -78t109.5 -78.5t137.5 -66.5t144.5 -25q256 0 401 142t145 394z" />
</svg>
