<?xml version="1.0" standalone="no"?>
<!DOCTYPE svg PUBLIC "-//W3C//DTD SVG 1.1//EN" "http://www.w3.org/Graphics/SVG/1.1/DTD/svg11.dtd" >
<svg xmlns="http://www.w3.org/2000/svg" xmlns:xlink="http://www.w3.org/1999/xlink" version="1.1" width="2048" height="2048" viewBox="-10 0 2058 2048">
   <path fill="currentColor"
d="M1600 704q0 109 -40 209.5t-108 175.5t-163 125t-202 62v260h224q14 0 23.5 9t9.5 22v64q0 14 -9.5 23.5t-23.5 9.5h-224v223q0 14 -8.5 23.5t-22.5 9.5h-64q-14 0 -23 -9.5t-9 -23.5v-223h-224q-14 0 -23 -9.5t-9 -23.5v-64q0 -13 9 -22t23 -9h224v-260
q-112 -12 -211 -66.5t-167.5 -136.5t-104.5 -191t-27 -225q11 -134 80.5 -249t182 -188t245.5 -88q128 -15 247 25t205 118t138 191t52 238zM576 704q0 91 35.5 174t95.5 143t143 95.5t173.5 35.5t173.5 -35.5t143 -95.5t95.5 -143t35.5 -174t-35.5 -174t-95.5 -143
t-143 -95.5t-173.5 -35.5t-173.5 35.5t-143 95.5t-95.5 143t-35.5 174z" />
</svg>
