<?xml version="1.0" standalone="no"?>
<!DOCTYPE svg PUBLIC "-//W3C//DTD SVG 1.1//EN" "http://www.w3.org/Graphics/SVG/1.1/DTD/svg11.dtd" >
<svg xmlns="http://www.w3.org/2000/svg" xmlns:xlink="http://www.w3.org/1999/xlink" version="1.1" width="2048" height="2048" viewBox="-10 0 2058 2048">
   <path fill="currentColor"
d="M1728 256q26 0 45 19t19 45v415q0 14 -9 23.5t-23 9.5h-64q-14 0 -23 -9.5t-9 -23.5v-261l-382 383q126 157 126 359q0 117 -45.5 223.5t-123 183.5t-184 122.5t-223.5 45.5t-223.5 -45.5t-183.5 -122.5t-123 -183.5t-46 -223.5t46 -223.5t123 -184t183.5 -123
t223.5 -45.5q100 0 192.5 33t167.5 93l381 -382h-261q-14 0 -23 -9t-9 -23v-64q0 -14 9 -23t23 -9h416zM832 1664q91 0 174 -36t143 -96t95.5 -142.5t35.5 -173.5t-35.5 -174t-95.5 -143t-143 -95.5t-174 -35.5t-174 35.5t-143 95.5t-95.5 143t-35.5 174t35.5 173.5
t95.5 142.5t143 96t174 36z" />
</svg>
