<?xml version="1.0" standalone="no"?>
<!DOCTYPE svg PUBLIC "-//W3C//DTD SVG 1.1//EN" "http://www.w3.org/Graphics/SVG/1.1/DTD/svg11.dtd" >
<svg xmlns="http://www.w3.org/2000/svg" xmlns:xlink="http://www.w3.org/1999/xlink" version="1.1" width="2048" height="2048" viewBox="-10 0 2058 2048">
   <path fill="currentColor"
d="M1278 444q145 72 233.5 210.5t88.5 304.5q0 109 -40 209.5t-108.5 176t-163 125t-201.5 61.5v133h97q13 0 22.5 9t9.5 23v64q0 13 -9.5 22t-22.5 9h-97v96q0 14 -8.5 23.5t-22.5 9.5h-64q-14 0 -23 -9.5t-9 -23.5v-96h-97q-13 0 -22 -9t-9 -22v-64q0 -14 9 -23t22 -9h97
v-133q-107 -12 -201.5 -61.5t-163 -125t-108 -176t-39.5 -209.5q0 -166 88.5 -304.5t233.5 -210.5q-80 -46 -139 -116t-89 -157q-6 -15 4 -29t26 -14h69q21 0 29 20q44 105 140 170.5t213.5 65.5t214 -65.5t140.5 -170.5q8 -20 37 -20h61q16 0 25.5 14t4.5 29
q-31 87 -89.5 157t-138.5 116zM1023.5 1407q90.5 0 173.5 -35.5t143 -95.5t95.5 -143t35.5 -173.5t-35.5 -173.5t-95.5 -143t-143 -95.5t-173.5 -35.5t-173.5 35.5t-143 95.5t-95.5 143t-35.5 173.5t35.5 173.5t95.5 143t143 95.5t173.5 35.5z" />
</svg>
