<?xml version="1.0" standalone="no"?>
<!DOCTYPE svg PUBLIC "-//W3C//DTD SVG 1.1//EN" "http://www.w3.org/Graphics/SVG/1.1/DTD/svg11.dtd" >
<svg xmlns="http://www.w3.org/2000/svg" xmlns:xlink="http://www.w3.org/1999/xlink" version="1.1" width="2048" height="2048" viewBox="-10 0 2058 2048">
   <path fill="currentColor"
d="M1344 160q0 -14 9 -23t23 -9h288q26 0 45 19t19 45v288q0 14 -9 23t-23 9h-64q-14 0 -23 -9t-9 -23v-134l-254 255q126 158 126 358q0 109 -39.5 209.5t-108 176t-163.5 125t-201 61.5v133h96q14 0 23 9t9 23v64q0 13 -9 22t-23 9h-96v96q0 14 -9 23.5t-23 9.5h-64
q-13 0 -22.5 -9.5t-9.5 -23.5v-96h-96q-14 0 -23 -9t-9 -22v-64q0 -14 9 -23t23 -9h96v-133q-112 -12 -210.5 -66t-167.5 -136t-105 -190.5t-27 -224.5q10 -134 79.5 -249t182 -188.5t245.5 -88.5q119 -14 229 19t197 103l255 -254h-134q-14 0 -23 -9t-9 -23v-64zM896 1407
q91 0 174 -35.5t143 -95.5t95.5 -143t35.5 -173.5t-35.5 -173.5t-95.5 -143t-143 -95.5t-174 -35.5t-174 35.5t-143 95.5t-95.5 143t-35.5 173.5t35.5 173.5t95.5 143t143 95.5t174 35.5z" />
</svg>
