<?xml version="1.0" standalone="no"?>
<!DOCTYPE svg PUBLIC "-//W3C//DTD SVG 1.1//EN" "http://www.w3.org/Graphics/SVG/1.1/DTD/svg11.dtd" >
<svg xmlns="http://www.w3.org/2000/svg" xmlns:xlink="http://www.w3.org/1999/xlink" version="1.1" width="2048" height="2048" viewBox="-10 0 2058 2048">
   <path fill="currentColor"
d="M1472 160q0 -14 9 -23t22 -9h289q26 0 45 19t19 45v288q0 14 -9.5 23t-23.5 9h-63q-14 0 -23.5 -9t-9.5 -23v-134l-253 255q126 158 126 358q0 109 -40 209.5t-108 176t-163 125t-201 61.5v133h96q14 0 23 9t9 23v64q0 13 -9 22t-23 9h-96v96q0 14 -9.5 23.5t-23.5 9.5
h-63q-14 0 -23 -9.5t-9 -23.5v-96h-96q-14 0 -23 -9t-9 -22v-64q0 -14 9 -23t23 -9h96v-133q-106 -12 -201 -61.5t-163 -125t-108 -176t-40 -209.5q0 -200 126 -358l-52 -53l-101 110q-9 10 -22 11t-23 -7l-48 -44q-10 -8 -10.5 -21.5t8.5 -23.5l105 -115l-111 -112v134
q0 14 -9 23t-23 9h-63q-14 0 -23.5 -9t-9.5 -23v-288q0 -26 19 -45t45 -19h288q14 0 23 9t9 23v64q0 14 -9 23t-23 9h-133l106 107l86 -94q10 -10 22.5 -11t22.5 8l48 44q10 9 10.5 22t-8.5 23l-90 99l57 56q159 -126 359 -126t359 126l255 -254h-135q-13 0 -22 -9t-9 -23
v-64zM1024 1407q91 0 174 -35.5t143 -95.5t95.5 -143t35.5 -173.5t-35.5 -173.5t-95.5 -143t-143 -95.5t-174 -35.5t-174 35.5t-143 95.5t-95.5 143t-35.5 173.5t35.5 173.5t95.5 143t143 95.5t174 35.5z" />
</svg>
