<?xml version="1.0" standalone="no"?>
<!DOCTYPE svg PUBLIC "-//W3C//DTD SVG 1.1//EN" "http://www.w3.org/Graphics/SVG/1.1/DTD/svg11.dtd" >
<svg xmlns="http://www.w3.org/2000/svg" xmlns:xlink="http://www.w3.org/1999/xlink" version="1.1" width="2048" height="2048" viewBox="-10 0 2058 2048">
   <path fill="currentColor"
d="M1918 657q9 116 -27 225t-105 191t-167.5 136.5t-210.5 66.5v260h224q14 0 22.5 9t8.5 22v64q0 14 -8.5 23.5t-22.5 9.5h-224v223q0 14 -9.5 23.5t-22.5 9.5h-64q-14 0 -23 -9.5t-9 -23.5v-223h-512v223q0 14 -9 23.5t-23 9.5h-64q-13 0 -22.5 -9.5t-9.5 -23.5v-223h-224
q-14 0 -22.5 -9.5t-8.5 -23.5v-64q0 -13 8.5 -22t22.5 -9h224v-260q-112 -12 -210.5 -66.5t-167.5 -136.5t-105 -191t-27 -225q11 -136 82 -251.5t185.5 -188.5t249.5 -86q206 -21 377 94q171 -115 377 -94q135 13 249.5 86t185.5 188.5t82 251.5zM1024 1017q60 -62 94 -143
t34 -170t-34 -170t-94 -143q-60 62 -94 143t-34 170t34 170t94 143zM704 1152q115 0 218 -57q-74 -79 -114 -179t-40 -212q0 -111 40.5 -211.5t113.5 -179.5q-103 -57 -218 -57q-91 0 -174 35.5t-143 95.5t-95.5 143t-35.5 174t35.5 174t95.5 143t143 95.5t174 35.5z
M1280 1536v-260q-134 -14 -256 -94q-122 80 -256 94v260h512zM1344 1152q91 0 174 -35.5t143 -95.5t95.5 -143t35.5 -174t-35.5 -174t-95.5 -143t-143 -95.5t-174 -35.5q-115 0 -218 57q73 79 113.5 179.5t40.5 211.5q0 112 -40 212t-114 179q103 57 218 57z" />
</svg>
