<?xml version="1.0" standalone="no"?>
<!DOCTYPE svg PUBLIC "-//W3C//DTD SVG 1.1//EN" "http://www.w3.org/Graphics/SVG/1.1/DTD/svg11.dtd" >
<svg xmlns="http://www.w3.org/2000/svg" xmlns:xlink="http://www.w3.org/1999/xlink" version="1.1" width="2048" height="2048" viewBox="-10 0 2058 2048">
   <path fill="currentColor"
d="M1600 544q0 -14 9 -23t23 -9h288q26 0 45 19t19 45v288q0 14 -9 23t-23 9h-64q-13 0 -22.5 -9t-9.5 -23v-134l-254 255q76 95 107 214t10 247q-32 182 -166.5 312t-317.5 156q-105 14 -206 -8t-182 -74t-143 -129t-94 -170q-117 -6 -221.5 -57t-178 -132.5t-113 -192.5
t-31.5 -230q9 -135 78 -252t182 -191.5t248 -89.5q117 -14 227 19t199 103l254 -254h-134q-13 0 -22.5 -9t-9.5 -23v-64q0 -14 9.5 -23t22.5 -9h288q26 0 45 19t19 45v288q0 14 -9 23t-22 9h-65q-14 0 -23 -9t-9 -23v-134l-253 255q59 73 92 169q182 9 328 124l255 -254
h-134q-14 0 -23 -9t-9 -23v-64zM1088 959q0 -19 -3 -57q-163 25 -272 150t-109 291q0 11 4 59q163 -25 271.5 -150.5t108.5 -292.5zM192 959q0 111 51.5 208t140 159t196.5 77q-4 -39 -4 -60q0 -138 62 -259.5t170 -201.5t242 -105q-54 -119 -164.5 -192t-245.5 -73
q-91 0 -173.5 35.5t-143 95.5t-96 143t-35.5 173zM1152 1791q91 0 174 -35.5t143 -95.5t95.5 -143t35.5 -174q0 -110 -51 -206.5t-139.5 -159t-196.5 -76.5q4 38 4 58q0 139 -62.5 260t-170 201.5t-241.5 104.5q54 120 164 193t245 73z" />
</svg>
