<?xml version="1.0" standalone="no"?>
<!DOCTYPE svg PUBLIC "-//W3C//DTD SVG 1.1//EN" "http://www.w3.org/Graphics/SVG/1.1/DTD/svg11.dtd" >
<svg xmlns="http://www.w3.org/2000/svg" xmlns:xlink="http://www.w3.org/1999/xlink" version="1.1" width="2048" height="2048" viewBox="-10 0 2068 2048">
   <path fill="currentColor"
d="M1664 160q0 -14 8.5 -23t22.5 -9h288q26 0 45.5 19t19.5 45v288q0 14 -9.5 23t-23.5 9h-63q-14 0 -23.5 -9t-9.5 -23v-134l-253 255q75 95 106.5 214t10.5 247q-32 180 -165 310t-314 157q-111 16 -216 -8t-192 -82q-119 78 -256 92v133h96q13 0 22.5 9t9.5 23v64
q0 13 -9 22t-23 9h-96v96q0 14 -9 23.5t-23 9.5h-64q-14 0 -23 -9.5t-9 -23.5v-96h-96q-14 0 -23 -9t-9 -22v-64q0 -14 9 -23t23 -9h96v-133q-116 -13 -218 -70.5t-171 -144.5t-101.5 -202t-15.5 -236q26 -187 160 -323t320 -164q112 -17 217 7t193 83q145 -97 320 -97
q200 0 359 126l254 -254h-134q-13 0 -22 -9t-9 -23v-64zM896 1273q60 -63 93.5 -143.5t33.5 -170t-33.5 -169.5t-93.5 -143q-61 63 -94.5 143t-33.5 169.5t33.5 170t94.5 143.5zM128 959.5q0 90.5 35.5 173.5t95.5 143t143 95.5t174 35.5q116 0 217 -57q-73 -79 -113 -179
t-40 -211.5t40 -211.5t113 -179q-102 -57 -217 -57q-91 0 -174 35.5t-143 95.5t-95.5 143t-35.5 173.5zM1216 1407q91 0 174 -35.5t143 -95.5t95.5 -143t35.5 -173.5t-35.5 -173.5t-95.5 -143t-143 -95.5t-174 -35.5q-115 0 -218 57q73 79 113.5 179t40.5 211.5t-40.5 211.5
t-113.5 179q101 57 218 57z" />
</svg>
