<?xml version="1.0" standalone="no"?>
<!DOCTYPE svg PUBLIC "-//W3C//DTD SVG 1.1//EN" "http://www.w3.org/Graphics/SVG/1.1/DTD/svg11.dtd" >
<svg xmlns="http://www.w3.org/2000/svg" xmlns:xlink="http://www.w3.org/1999/xlink" version="1.1" width="2048" height="2048" viewBox="-10 0 2058 2048">
   <path fill="currentColor"
d="M1087 772q107 12 202 61.5t163 125t108 175.5t40 209q0 126 -52 238.5t-138 190.5t-205 118t-247 25q-133 -14 -245.5 -87t-182 -188t-80.5 -249q-9 -117 27 -225.5t104.5 -190.5t167.5 -136.5t211 -66.5v-132h-160q-14 0 -23 -9t-9 -23v-64q0 -14 9 -23t23 -9h160v-165
l-92 92q-10 9 -22.5 9t-22.5 -9l-46 -46q-9 -10 -9 -22.5t9 -22.5l202 -201q19 -19 45 -19t45 19l202 201q9 10 9 22.5t-9 22.5l-46 46q-9 9 -22 9t-23 -9l-93 -92v165h161q13 0 22.5 9t9.5 23v64q0 14 -9.5 23t-22.5 9h-161v132zM1023.5 1791q90.5 0 173.5 -35.5t143 -95.5
t95.5 -143t35.5 -173.5t-35.5 -173.5t-95.5 -143t-143 -95.5t-173.5 -35.5t-173.5 35.5t-143 95.5t-95.5 143t-35.5 173.5t35.5 173.5t95.5 143t143 95.5t173.5 35.5z" />
</svg>
