<?xml version="1.0" standalone="no"?>
<!DOCTYPE svg PUBLIC "-//W3C//DTD SVG 1.1//EN" "http://www.w3.org/Graphics/SVG/1.1/DTD/svg11.dtd" >
<svg xmlns="http://www.w3.org/2000/svg" xmlns:xlink="http://www.w3.org/1999/xlink" version="1.1" width="2048" height="2048" viewBox="-10 0 2058 2048">
   <path fill="currentColor"
d="M1965 1042q19 19 19 45.5t-19 45.5l-294 293q-10 10 -23.5 10t-22.5 -10l-44 -44q-10 -9 -10 -22.5t10 -23.5l184 -184h-294v224q0 14 -8.5 22.5t-22.5 8.5h-65q-14 0 -22.5 -8.5t-8.5 -22.5v-224h-133q-12 106 -61.5 201t-125 163t-176 108t-209.5 40q-125 0 -237.5 -52
t-190.5 -138.5t-117.5 -205.5t-25.5 -247q15 -133 88 -245.5t188 -181.5t249 -80q116 -9 225 27t191 105t136 167.5t66 210.5h133v-224q0 -14 8.5 -23t22.5 -9h65q13 0 22 9t9 23v224h294l-184 -185q-10 -10 -10 -23t10 -22l44 -45q9 -10 22.5 -10t23.5 10zM639.5 1536
q90.5 0 173.5 -35.5t143 -95.5t95.5 -143t35.5 -174t-35.5 -174t-95.5 -143t-143 -95.5t-173.5 -35.5t-173.5 35.5t-143 95.5t-95.5 143t-35.5 174t35.5 174t95.5 143t143 95.5t173.5 35.5z" />
</svg>
