<?xml version="1.0" standalone="no"?>
<!DOCTYPE svg PUBLIC "-//W3C//DTD SVG 1.1//EN" "http://www.w3.org/Graphics/SVG/1.1/DTD/svg11.dtd" >
<svg xmlns="http://www.w3.org/2000/svg" xmlns:xlink="http://www.w3.org/1999/xlink" version="1.1" width="2048" height="2048" viewBox="-10 0 2058 2048">
   <path fill="currentColor"
d="M1471 1088q0 -91 -35.5 -174t-95.5 -143t-143 -95.5t-173.5 -35.5t-173.5 35.5t-143 95.5t-95.5 143t-35.5 174t35.5 174t95.5 143t143 95.5t173.5 35.5t173.5 -35.5t143 -95.5t95.5 -143t35.5 -174zM1600 1088q0 117 -46 223.5t-123 183.5t-183.5 123t-223.5 46
t-224 -46t-184 -123t-122.5 -183.5t-45.5 -223.5t45.5 -223.5t122.5 -184t184 -123t224 -45.5t223.5 45.5t183.5 123t123 184t46 223.5z" />
</svg>
