<?xml version="1.0" standalone="no"?>
<!DOCTYPE svg PUBLIC "-//W3C//DTD SVG 1.1//EN" "http://www.w3.org/Graphics/SVG/1.1/DTD/svg11.dtd" >
<svg xmlns="http://www.w3.org/2000/svg" xmlns:xlink="http://www.w3.org/1999/xlink" version="1.1" width="2048" height="2048" viewBox="-10 0 2068 2048">
   <path fill="currentColor"
d="M1935 0q47 0 80 33t33 80v1822q0 47 -33 80t-80 33h-522v-794h266l40 -309h-306v-197q0 -37 6 -62t22 -46t47.5 -31t78.5 -10l162 -2v-276q-93 -12 -236 -12q-181 0 -290.5 107.5t-109.5 301.5v227h-266v309h266v794h-980q-47 0 -80 -33t-33 -80v-1822q0 -47 33 -80
t80 -33h1822z" />
</svg>
