<?xml version="1.0" standalone="no"?>
<!DOCTYPE svg PUBLIC "-//W3C//DTD SVG 1.1//EN" "http://www.w3.org/Graphics/SVG/1.1/DTD/svg11.dtd" >
<svg xmlns="http://www.w3.org/2000/svg" xmlns:xlink="http://www.w3.org/1999/xlink" version="1.1" width="2048" height="2048" viewBox="-10 0 2058 2048">
   <path fill="currentColor"
d="M236 735q0 -133 46.5 -251t127 -205t186.5 -151t228.5 -96t248.5 -32q116 0 225.5 30.5t202 89.5t162.5 140t109.5 187.5t39.5 225.5q0 98 -16.5 193t-49.5 186t-86 168.5t-121 135.5t-160 91t-198 33q-84 0 -166.5 -39.5t-118.5 -107.5q-12 49 -30 123.5t-26 105
t-22.5 82.5t-25.5 78t-29 67.5t-40 76t-51 79t-69 98.5l-17 5l-12 -12q-2 -18 -6 -56.5t-6 -61t-4 -54.5t-2 -59q0 -88 20 -211t43 -217.5t59.5 -234t49.5 -196.5q-39 -78 -39 -208q0 -47 16.5 -96.5t44.5 -90.5t71.5 -67.5t94.5 -26.5q75 0 116.5 49.5t41.5 125.5
q0 54 -17 119t-37 116t-37 115t-17 116q0 78 56 129t134 51q59 0 110 -23.5t88 -63t67 -92.5t49 -110t32.5 -119t19 -116t5.5 -103q0 -107 -37 -193t-102.5 -142t-154 -86t-193.5 -30q-121 0 -227.5 42t-183.5 116t-121.5 179t-44.5 227q0 54 15.5 104.5t34 80.5t33.5 56.5
t15 37.5q0 35 -18.5 89.5t-45.5 54.5q-1 0 -21 -3q-62 -19 -110.5 -69t-75.5 -115.5t-40.5 -133t-13.5 -131.5z" />
</svg>
