<?xml version="1.0" standalone="no"?>
<!DOCTYPE svg PUBLIC "-//W3C//DTD SVG 1.1//EN" "http://www.w3.org/Graphics/SVG/1.1/DTD/svg11.dtd" >
<svg xmlns="http://www.w3.org/2000/svg" xmlns:xlink="http://www.w3.org/1999/xlink" version="1.1" width="2048" height="2048" viewBox="-10 0 2060 2048">
   <path fill="currentColor"
d="M1312 1128q16 0 127.5 58t118.5 70q4 11 4 20q0 40 -23 101q-21 51 -93.5 86t-134.5 35q-42 0 -117 -26.5t-136 -55.5q-68 -31 -128 -73.5t-111.5 -97.5t-92 -107t-88.5 -123q-95 -141 -94 -257v-10q2 -64 25.5 -114.5t71.5 -95.5q31 -29 70 -29q8 0 24 2t24 2
q26 0 36 8.5t20 36.5q10 23 43 115.5t33 101.5q0 21 -22.5 48.5t-45 51.5t-22.5 36q0 9 6 21q21 45 58.5 94t76.5 87q79 73 200 134q14 9 30 9t44 -32t54.5 -64t41.5 -32zM1043 1828q113 0 220.5 -30t198.5 -83.5t167.5 -130t130 -167.5t83.5 -198.5t30 -220.5t-30 -220.5
t-83.5 -198.5t-130 -168t-167.5 -130.5t-198.5 -83.5t-220 -30t-220.5 30t-199 83.5t-168 130.5t-130.5 168t-83.5 198.5t-30 220.5q0 131 40.5 255.5t117.5 230.5l-104 309l320 -102q101 67 218.5 102t238.5 35zM1043 0q135 0 264.5 36t238.5 100.5t201.5 156.5
t156.5 201.5t100 239t36 264.5t-36 264.5t-100 238.5t-156.5 201t-201.5 156.5t-238.5 100.5t-264.5 36q-259 0 -483 -124l-552 177l180 -536q-143 -236 -143 -514q0 -135 36 -264.5t100.5 -239t156.5 -201.5t201.5 -156.5t239 -100.5t264.5 -36z" />
</svg>
