<?xml version="1.0" standalone="no"?>
<!DOCTYPE svg PUBLIC "-//W3C//DTD SVG 1.1//EN" "http://www.w3.org/Graphics/SVG/1.1/DTD/svg11.dtd" >
<svg xmlns="http://www.w3.org/2000/svg" xmlns:xlink="http://www.w3.org/1999/xlink" version="1.1" width="2048" height="2048" viewBox="-10 0 2068 2048">
   <path fill="currentColor"
d="M146 1682h1171v-146h-1171v146zM146 1098h1171v-148h-1171v148zM1938 1609.5q0 -45.5 -31.5 -77.5t-77.5 -32t-78 32t-32 77.5t32 77t78 31.5t77.5 -31.5t31.5 -77zM146 512h1171v-146h-1171v146zM1938 1023.5q0 -45.5 -31.5 -77.5t-77.5 -32t-78 32t-32 77.5t32 78
t78 32.5t77.5 -32.5t31.5 -78zM1938 438.5q0 -45.5 -31.5 -77t-77.5 -31.5t-78 31.5t-32 77t32 77.5t78 32t77.5 -32t31.5 -77.5zM2048 1390v438h-2048v-438h2048zM2048 804v440h-2048v-440h2048zM2048 220v438h-2048v-438h2048z" />
</svg>
