<?xml version="1.0" standalone="no"?>
<!DOCTYPE svg PUBLIC "-//W3C//DTD SVG 1.1//EN" "http://www.w3.org/Graphics/SVG/1.1/DTD/svg11.dtd" >
<svg xmlns="http://www.w3.org/2000/svg" xmlns:xlink="http://www.w3.org/1999/xlink" version="1.1" width="2048" height="2048" viewBox="-10 0 2068 2048">
   <path fill="currentColor"
d="M704 1024q-104 0 -192.5 -51.5t-140 -139.5t-51.5 -192.5t51.5 -193t140 -140t192.5 -51.5t192.5 51.5t139.5 140t51 193t-51 192.5t-139.5 139.5t-192.5 51.5zM1664 1152h352q12 0 22 9.5t10 22.5v192q0 13 -10 22.5t-22 9.5h-352v352q0 13 -10 22.5t-22 9.5h-192
q-13 0 -22.5 -9.5t-9.5 -22.5v-352h-352q-13 0 -22.5 -9.5t-9.5 -22.5v-192q0 -13 9.5 -22.5t22.5 -9.5h352v-352q0 -12 10 -22t22 -10h192q12 0 22 10t10 22v352zM928 1376q0 53 37.5 90.5t90.5 37.5h255v238q-68 50 -170 50h-874q-122 0 -194.5 -69.5t-72.5 -189.5
q0 -53 3.5 -103.5t14 -109t26.5 -108.5t43 -97.5t62 -81t85.5 -53.5t111.5 -20q17 0 39 17q79 61 154.5 91.5t165 30.5t164.5 -30.5t154 -91.5q22 -17 39 -17q131 0 217 96h-223q-53 0 -90.5 37.5t-37.5 90.5v192z" />
</svg>
