<?xml version="1.0" standalone="no"?>
<!DOCTYPE svg PUBLIC "-//W3C//DTD SVG 1.1//EN" "http://www.w3.org/Graphics/SVG/1.1/DTD/svg11.dtd" >
<svg xmlns="http://www.w3.org/2000/svg" xmlns:xlink="http://www.w3.org/1999/xlink" version="1.1" width="2048" height="2048" viewBox="-10 0 2068 2048">
   <path fill="currentColor"
d="M707.5 1024q-104.5 0 -193.5 -51.5t-140.5 -140.5t-51.5 -193.5t51.5 -193.5t140.5 -140.5t193.5 -51.5t193.5 51.5t140.5 140.5t51.5 193.5t-51.5 193.5t-140.5 140.5t-193.5 51.5zM1789 1345l250 251q9 9 9 23q0 13 -9 22l-136 137q-9 9 -23 9t-23 -9l-249 -251
l-251 251q-9 9 -23 9q-13 0 -22 -9l-137 -137q-9 -9 -9 -22q0 -14 9 -23l251 -251l-251 -249q-9 -9 -9 -24q0 -13 9 -22l137 -136q9 -9 22 -9q14 0 23 9l251 249l249 -249q9 -9 23 -9t23 9l136 136q9 9 9 22q0 15 -9 24zM1289 1345l-182 182q-37 37 -37 92q0 53 37 90l83 84
q-21 2 -44 2h-878q-122 0 -195 -69.5t-73 -190.5q0 -53 3.5 -103.5t14 -109.5t26.5 -109t43 -98t62.5 -81.5t86 -54t111.5 -20.5q17 0 40 18q76 61 153 91.5t167.5 30.5t167 -30.5t153.5 -91.5q22 -18 39 -18q30 0 57 7q-29 28 -41.5 50t-12.5 56q0 54 37 91z" />
</svg>
