<?xml version="1.0" standalone="no"?>
<!DOCTYPE svg PUBLIC "-//W3C//DTD SVG 1.1//EN" "http://www.w3.org/Graphics/SVG/1.1/DTD/svg11.dtd" >
<svg xmlns="http://www.w3.org/2000/svg" xmlns:xlink="http://www.w3.org/1999/xlink" version="1.1" width="2048" height="2048" viewBox="-10 0 2068 2048">
   <path fill="currentColor"
d="M682 482v1340q0 28 -14.5 48t-41.5 20q-20 0 -37 -8l-532 -268q-24 -11 -40.5 -38t-16.5 -52v-1304q0 -23 11.5 -38.5t33.5 -15.5q16 0 50 16l584 294q3 2 3 6zM755 596l611 990l-611 -304v-686zM2048 618v1204q0 29 -15.5 46.5t-43.5 17.5q-27 0 -54 -16l-504 -250z
M2045 480q0 4 -295.5 484t-341.5 552l-446 -724l371 -602q20 -32 59 -32q17 0 30 6l618 310q5 2 5 6z" />
</svg>
