<?xml version="1.0" standalone="no"?>
<!DOCTYPE svg PUBLIC "-//W3C//DTD SVG 1.1//EN" "http://www.w3.org/Graphics/SVG/1.1/DTD/svg11.dtd" >
<svg xmlns="http://www.w3.org/2000/svg" xmlns:xlink="http://www.w3.org/1999/xlink" version="1.1" width="2048" height="2048" viewBox="-10 0 2068 2048">
   <path fill="currentColor"
d="M380 1775q-7 16 -25.5 33.5t-35.5 24.5q-25 8 -50.5 -4t-26.5 -30q-1 -21 38 -52.5t66 -36.5q22 -4 32.5 20.5t1.5 44.5zM1669 1775q6 16 24.5 33.5t36.5 24.5q24 8 49.5 -4t26.5 -30q2 -21 -37.5 -52.5t-66.5 -36.5q-20 -4 -31 20.5t-2 44.5zM1715 1670q13 26 54.5 57.5
t74.5 40.5q43 12 78.5 -5t35.5 -48q0 -44 -65 -96.5t-111 -57.5q-38 -5 -60.5 36t-6.5 73zM332 1670q-13 26 -54 57.5t-74 40.5q-43 12 -78.5 -5t-35.5 -48q0 -44 65 -96.5t111 -57.5q25 -3 45 16.5t25 45t-4 47.5zM1033 591h2q-39 0 -73 14q25 8 41.5 29t16.5 48
q0 34 -26 57.5t-62 23.5q-25 0 -45 -11t-32 -30q-5 27 -5 40q0 72 53.5 122.5t130 50.5t130.5 -50.5t54 -122t-54 -121.5t-131 -50zM1326 382q-96 -105 -212.5 -127t-235.5 42q21 -48 62.5 -80t90 -44t99.5 -4.5t93.5 32.5t71 72t31.5 109zM2046 1572q7 9 -11 40q7 20 7 38
q1 54 -42.5 108.5t-105 88t-113.5 35.5q-46 2 -88 -21t-64 -63q-669 24 -1209 0q-22 40 -64.5 62.5t-88.5 21.5q-52 -2 -113 -35.5t-105 -88t-43 -108.5q1 -22 7 -38q-18 -31 -11 -40q7 -10 29 -2q14 -21 40 -49q-7 -26 2 -36q11 -9 37 4q26 -19 57 -33q0 -28 12 -35
q8 -5 22.5 -1.5t27.5 16.5q33 -4 58 2q17 4 37 18v-70q-11 0 -18 -2q-51 -9 -93 -42.5t-52 -83.5q-9 -37 0 -79q14 -59 89 -90q2 -16 18.5 -34.5t34.5 -23.5q18 -4 31 7.5t18 29.5h13q44 5 58 22q2 2 4 7q10 -1 29.5 -3.5t29.5 -3.5q-12 -9 -29 -16q-22 -39 -87 -42
q0 -5 1 -9q-59 -1 -113.5 -17t-81.5 -46q-31 -34 -41 -88.5t-3 -108.5q6 -52 28 -98.5t59 -72.5q22 -16 49.5 -5t30.5 39q0 2 1 9t1.5 12.5t1.5 14t2.5 15t3.5 13t4.5 11t6.5 6.5q27 13 73 12q45 -45 94 -72q-22 0 -31.5 -1t-31 1.5t-31 3.5t-31 4.5t-31.5 5.5l46 -44
q61 -58 156 -107q142 -71 271 -83q-19 -8 -39.5 -15t-45.5 -13.5t-40 -10t-46.5 -10.5l-40.5 -9q570 -122 868 134q95 80 152 212q81 11 116 -8h1q14 -7 21 -81q3 -27 30.5 -38t49.5 5q37 26 59 72.5t29 97.5q6 55 -4 109t-41 88q-27 30 -80.5 46t-110.5 18v10q-68 1 -91 41
q-16 6 -30 16q11 1 31 3.5t29 3.5q2 -5 4 -8q16 -17 58 -22h13q5 -17 18 -29t31 -8q19 5 35 23t18 35q75 29 89 90q10 41 2 79q-11 50 -53.5 83.5t-93.5 42.5q-10 2 -17 2q0 47 -1 70q21 -15 37 -18q25 -6 58 -2q13 -13 27.5 -17t22.5 2q13 9 13 35q32 14 57 33
q25 -13 36 -4q10 11 2 36q27 29 40 49q21 -8 29 2zM1782 657q0 27 -9 52q79 31 108 126q4 -35 -9 -94t-40 -87q-20 -18 -35 -16t-15 19zM1707 753q34 40 46 104t-1 120q64 -13 93 -43q11 -13 18 -27q-3 -62 -30 -110.5t-76 -63.5q-15 15 -50 20zM1671 756h-42q41 112 52 229
q19 0 41 -2q15 -66 0.5 -130.5t-51.5 -96.5zM169 835q29 -95 108 -126q-9 -22 -9 -52q0 -17 -15.5 -19.5t-34.5 16.5q-27 28 -40 87t-9 94zM203 934q28 30 94 43q-13 -56 -0.5 -120t45.5 -104v0q-35 -5 -50 -20q-49 15 -75.5 63.5t-30.5 110.5q10 18 17 27zM373 985
q13 -118 71 -225q-22 5 -53 17l-44 18v-1q-20 38 -25 88t7 101q24 2 44 2zM1299 1023q7 37 16 108t11 82q3 17 9.5 20.5t22.5 -3.5q38 -20 59.5 -82.5t21.5 -120.5q-46 -2 -140 -4zM1028.5 407q-111.5 0 -191.5 79.5t-80 190.5q0 112 79.5 191.5t191.5 79.5t191.5 -79
t79.5 -192q0 -111 -79.5 -190.5t-191 -79.5zM1247 1021q-102 -1 -203 0v-1q-1 27 2.5 83t12.5 63q28 14 90.5 14t91.5 -10q9 -3 10.5 -37.5t-0.5 -65.5t-4 -46zM990 1212q7 -4 9 -46t0 -84.5t-4 -60.5v-1l-206 3q-4 19 -7 59.5t0 80t13 43.5q33 15 97.5 15.5t97.5 -9.5z
M611 1031q-16 57 3.5 113.5t74.5 81.5q15 7 23.5 4.5t11.5 -20.5q3 -15 8 -86.5t10 -98.5q-46 1 -131 6zM488 1152q3 22 -31 34q126 136 260.5 231.5t293.5 147.5q86 -24 166 -63t152.5 -91.5t131 -104t130.5 -122.5q-31 -11 -29 -32q0 -3 3 -9v-1v1q-17 -1 -48 -5t-47 -5
q-24 87 -78 127q-50 37 -80 -2q-4 -6 -7 -12q-6 -12 -17 -60q-8 19 -26 24t-54 8h-7q-99 9 -157 -11q-3 13 -8.5 22t-11.5 13.5t-18 8t-20.5 4.5t-27.5 3h-9q-172 18 -195 -38q-2 60 -55 52q-45 -8 -87 -53q-11 -12 -18 -24q-16 -26 -26 -63q-41 4 -83 10q1 1 3 10z
M408 1755q3 -17 3 -28q-17 -69 -49.5 -125.5t-69.5 -67.5q-30 -9 -72 5t-79.5 41.5t-62.5 68t-22 79.5q34 52 96.5 90t114.5 40q48 2 89.5 -27.5t51.5 -75.5zM411 1590q23 62 26 115q186 -108 377 -167q-94 -50 -174 -116t-173 -158l-27 13q-1 1 -1.5 4t-0.5 4q30 17 21 36
q-12 21 -54 32q-10 13 -27 24h-1q-2 80 1 144q20 37 33 69zM478 1750q516 20 1099 0q-117 -68 -213.5 -114t-197.5 -74q-76 34 -150 54q-7 3 -15 0q-68 -21 -124 -47q-196 57 -399 181h-1v1q1 0 1 -1zM1615 1706q3 -51 27 -116q13 -36 32 -68l-2 1q4 -97 4 -146
q-13 -7 -29 -24q-17 -4 -32.5 -13t-21.5 -19q-9 -19 21 -37q-2 -5 -2 -8q-15 -3 -27 -12q-194 181 -368 273q185 54 398 169zM1992 1728q4 -39 -21 -79.5t-62.5 -68t-80 -41.5t-72.5 -5q-36 11 -69.5 68t-49.5 125q0 11 3 28q10 46 51.5 75.5t89.5 27.5q52 -2 114.5 -40
t96.5 -90z" />
</svg>
