<?xml version="1.0" standalone="no"?>
<!DOCTYPE svg PUBLIC "-//W3C//DTD SVG 1.1//EN" "http://www.w3.org/Graphics/SVG/1.1/DTD/svg11.dtd" >
<svg xmlns="http://www.w3.org/2000/svg" xmlns:xlink="http://www.w3.org/1999/xlink" version="1.1" width="2048" height="2048" viewBox="-10 0 2068 2048">
   <path fill="currentColor"
d="M1355 1615.5q0 60.5 -42.5 103t-103.5 42.5t-103.5 -42.5t-42.5 -103t42.5 -103.5t103 -43t103.5 43t43 103.5zM689 1615.5q0 60.5 -43 103t-103.5 42.5t-103 -42.5t-42.5 -103t42.5 -103.5t103 -43t103.5 43t43 103.5zM0 287q51 53 98.5 92.5t107.5 73t120.5 56
t147.5 40.5t178.5 28t222.5 16.5t270 8.5t331 2q448 0 541 70q67 50 -14 154q-59 75 -260 246q-259 222 -323 279q26 -46 68.5 -97.5t84 -93.5t84 -87.5t73.5 -81.5t48 -72t11.5 -62.5t-40.5 -49t-103.5 -36.5t-181.5 -20.5t-270 -4.5q-150 2 -279 -5t-227 -20.5t-182 -36.5
t-142 -45.5t-109 -55.5t-81.5 -59.5t-60.5 -63.5t-44.5 -61.5t-36 -60.5t-32.5 -53z" />
</svg>
