<?xml version="1.0" standalone="no"?>
<!DOCTYPE svg PUBLIC "-//W3C//DTD SVG 1.1//EN" "http://www.w3.org/Graphics/SVG/1.1/DTD/svg11.dtd" >
<svg xmlns="http://www.w3.org/2000/svg" xmlns:xlink="http://www.w3.org/1999/xlink" version="1.1" width="2048" height="2048" viewBox="-10 0 2068 2048">
   <path fill="currentColor"
d="M1024 73q-193 0 -369.5 75.5t-303.5 202.5t-202.5 303.5t-75.5 369.5t75.5 369t202.5 303.5t303.5 202.5t369.5 75t369.5 -75t303.5 -202.5t202.5 -303.5t75.5 -369t-75.5 -369.5t-202.5 -303.5t-303.5 -202.5t-369.5 -75.5zM1024 0q209 0 398.5 81t326.5 218t218 326.5
t81 398.5t-81 398.5t-218 326.5t-326.5 218t-398.5 81t-398.5 -81t-326.5 -218t-218 -326.5t-81 -398.5t81 -398.5t218 -326.5t326.5 -218t398.5 -81zM567 950q7 0 12.5 5.5t5.5 13.5v548q0 8 -5.5 13.5t-12.5 5.5h-37q-7 0 -12.5 -5.5t-5.5 -13.5v-548q0 -8 5.5 -13.5
t12.5 -5.5h37zM1024 1024q61 0 103.5 42.5t42.5 103.5q0 40 -20 73.5t-53 52.5v130q0 16 -10 26t-26 10h-74q-16 0 -26 -10t-10 -26v-130q-33 -19 -53 -52.5t-20 -73.5q0 -61 42.5 -103.5t103.5 -42.5zM1024 146q179 0 341.5 69.5t280 187t187 280t69.5 341.5t-69.5 341.5
t-187 279.5t-280 186.5t-341.5 69.5t-341.5 -69.5t-280 -186.5t-187 -279.5t-69.5 -341.5t69.5 -341.5t187 -280t280 -187t341.5 -69.5zM622 694v110q0 16 10 26.5t26 10.5h73q16 0 26.5 -10.5t10.5 -26.5v-110q0 -106 75 -181t181 -75t181 75t75 181v110q0 16 10.5 26.5
t26.5 10.5h73q16 0 26 -10.5t10 -26.5v-110q0 -166 -118 -284t-284 -118t-284 118t-118 284zM1609 1536v-586q0 -30 -21.5 -51.5t-51.5 -21.5h-1024q-30 0 -51.5 21.5t-21.5 51.5v586q0 30 21.5 51.5t51.5 21.5h1024q30 0 51.5 -21.5t21.5 -51.5z" />
</svg>
