<?xml version="1.0" standalone="no"?>
<!DOCTYPE svg PUBLIC "-//W3C//DTD SVG 1.1//EN" "http://www.w3.org/Graphics/SVG/1.1/DTD/svg11.dtd" >
<svg xmlns="http://www.w3.org/2000/svg" xmlns:xlink="http://www.w3.org/1999/xlink" version="1.1" width="2048" height="2048" viewBox="-10 0 2058 2048">
   <path fill="currentColor"
d="M1661 1192q16 16 20 37.5t-4 40.5q-9 21 -27.5 33.5t-40.5 12.5h-436l230 544q12 29 0.5 56.5t-39.5 39.5l-203 86q-29 12 -56.5 0.5t-39.5 -39.5l-218 -517l-356 357q-22 22 -52 22q-11 0 -27 -6q-21 -8 -33.5 -26.5t-12.5 -40.5v-1719q0 -22 12.5 -41t33.5 -27
q13 -5 27 -5q32 0 52 21z" />
</svg>
