<?xml version="1.0" standalone="no"?>
<!DOCTYPE svg PUBLIC "-//W3C//DTD SVG 1.1//EN" "http://www.w3.org/Graphics/SVG/1.1/DTD/svg11.dtd" >
<svg xmlns="http://www.w3.org/2000/svg" xmlns:xlink="http://www.w3.org/1999/xlink" version="1.1" width="2048" height="2048" viewBox="-10 0 2068 2048">
   <path fill="currentColor"
d="M1735 1115q0 23 -14 39.5t-35 20.5q-7 2 -16 2h-135v-125h135q9 0 16 2q21 4 35 21t14 40zM1718 925.5q0 22.5 -13 37.5t-33 19h-14h-123v-115h123q2 0 7.5 1t6.5 1q20 3 33 18.5t13 38zM647 1071v-274h-203v274q0 52 -33.5 84.5t-93.5 32.5q-94 0 -203 -53v99
q47 14 107.5 21t97.5 8l36 1q292 0 292 -193zM1282 1234v-100q-88 46 -178 53q-96 8 -150 -35.5t-54 -127t54 -127t150 -36.5q88 7 178 52v-99q-42 -11 -88.5 -18t-71.5 -9l-25 -1q-91 -4 -162 7t-115 33t-73 54.5t-40.5 68t-11.5 76t11.5 75.5t40.5 67.5t73.5 54.5t115 33
t161.5 7q90 -4 185 -28zM1934 1133q0 -49 -38 -79.5t-97 -34.5v-3q51 -8 79 -37.5t28 -70.5q0 -49 -36.5 -78t-94.5 -32q-2 0 -10 -0.5t-13 -0.5h-404v454h436q66 0 108 -32.5t42 -85.5zM2048 455v1138q0 47 -33.5 80.5t-80.5 33.5h-1820q-47 0 -80.5 -33.5t-33.5 -80.5
v-1138q0 -47 33.5 -80.5t80.5 -33.5h1820q47 0 80.5 33.5t33.5 80.5z" />
</svg>
