<?xml version="1.0" standalone="no"?>
<!DOCTYPE svg PUBLIC "-//W3C//DTD SVG 1.1//EN" "http://www.w3.org/Graphics/SVG/1.1/DTD/svg11.dtd" >
<svg xmlns="http://www.w3.org/2000/svg" xmlns:xlink="http://www.w3.org/1999/xlink" version="1.1" width="2048" height="2048" viewBox="-10 0 2068 2048">
   <path fill="currentColor"
d="M763 1331v-616q-94 37 -153 120.5t-59 187.5t59 188t153 120zM1211 1023q0 -104 -58.5 -187.5t-153.5 -120.5v617q95 -37 153.5 -121t58.5 -188zM1402 1023q0 106 -41.5 202t-111 166t-166 111.5t-202.5 41.5q-105 0 -201.5 -41.5t-166.5 -111t-111.5 -166t-41.5 -202.5
t41.5 -202.5t111.5 -166t166.5 -111t201.5 -41.5q106 0 202.5 41.5t166 111t111 166t41.5 202.5zM1742 1029q0 -124 -49 -232.5t-131.5 -182.5t-190.5 -116.5t-224 -42.5h-267q-117 0 -222.5 42.5t-183 116.5t-123 182t-45.5 233q0 114 45.5 218.5t122.5 180t183.5 120.5
t222.5 45h267q115 0 224 -45t190.5 -120t131 -180t49.5 -219zM2048 455v1138q0 47 -33.5 80.5t-80.5 33.5h-1820q-47 0 -80.5 -33.5t-33.5 -80.5v-1138q0 -47 33.5 -80.5t80.5 -33.5h1820q47 0 80.5 33.5t33.5 80.5z" />
</svg>
