<?xml version="1.0" standalone="no"?>
<!DOCTYPE svg PUBLIC "-//W3C//DTD SVG 1.1//EN" "http://www.w3.org/Graphics/SVG/1.1/DTD/svg11.dtd" >
<svg xmlns="http://www.w3.org/2000/svg" xmlns:xlink="http://www.w3.org/1999/xlink" version="1.1" width="2048" height="2048" viewBox="-10 0 2068 2048">
   <path fill="currentColor"
d="M1626 602l-361 662h723zM422 602l-362 662h723zM1194 421q-14 39 -42.5 68t-66.5 43v1214h571q13 0 21.5 9t8.5 22v60q0 13 -8.5 21.5t-21.5 8.5h-1265q-13 0 -21 -8.5t-8 -21.5v-60q0 -13 8 -22t21 -9h572v-1214q-38 -14 -66.5 -43t-42.5 -68h-463q-13 0 -21 -8t-8 -21
v-61q0 -13 8 -21.5t21 -8.5h463q19 -54 65 -87t104.5 -33t105 33t65.5 87h462q13 0 21.5 8.5t8.5 21.5v61q0 12 -8.5 20.5t-21.5 8.5h-462zM1024 436q31 0 53 -22t22 -53t-22 -53t-53 -22t-53 22t-22 53t22 53t53 22zM2048 1264q0 56 -29.5 102.5t-75 77t-102.5 52
t-111.5 30.5t-103 9t-103 -9t-111.5 -30.5t-103 -52t-75 -77t-29 -102.5q0 -10 33 -76.5t86 -164t101 -184l96 -173t53 -93.5q17 -32 52 -32t53 32q4 7 52.5 93.5t96 173t101 184t86.5 164t33 76.5zM843 1264q0 56 -29 102.5t-75 77t-103 52t-111.5 30.5t-103 9t-103 -9
t-111.5 -30.5t-102.5 -52t-75 -77t-29.5 -102.5q0 -10 33 -76.5t86.5 -164t101 -184t96 -173t52.5 -93.5q18 -32 53 -32t52 32q5 7 53 93.5l96 173t101 184t86 164t33 76.5z" />
</svg>
