<?xml version="1.0" standalone="no"?>
<!DOCTYPE svg PUBLIC "-//W3C//DTD SVG 1.1//EN" "http://www.w3.org/Graphics/SVG/1.1/DTD/svg11.dtd" >
<svg xmlns="http://www.w3.org/2000/svg" xmlns:xlink="http://www.w3.org/1999/xlink" version="1.1" width="2048" height="2048" viewBox="-10 0 2058 2048">
   <path fill="currentColor"
d="M1756 146q0 153 -35 293.5t-95 249.5t-135 193t-161 142q86 58 161 141.5t135 193t95 249.5t35 293h110q15 0 25.5 10.5t10.5 26.5v73q0 16 -10.5 26.5t-25.5 10.5h-1682q-16 0 -27 -10.5t-11 -26.5v-73q0 -16 11 -26.5t27 -10.5h108q0 -153 35 -293t95.5 -249.5
t135.5 -193t162 -141.5q-87 -58 -162 -142t-135.5 -193t-95.5 -249.5t-35 -293.5h-108q-16 0 -27 -10.5t-11 -26.5v-73q0 -16 11 -26t27 -10h1682q15 0 25.5 10t10.5 26v73q0 16 -10.5 26.5t-25.5 10.5h-110zM1610 146h-1170q0 233 96 439h976q98 -206 98 -439zM1544 1536
q-61 -161 -165.5 -276t-222.5 -163h-264q-117 48 -221.5 163t-166.5 276h1040z" />
</svg>
