<?xml version="1.0" standalone="no"?>
<!DOCTYPE svg PUBLIC "-//W3C//DTD SVG 1.1//EN" "http://www.w3.org/Graphics/SVG/1.1/DTD/svg11.dtd" >
<svg xmlns="http://www.w3.org/2000/svg" xmlns:xlink="http://www.w3.org/1999/xlink" version="1.1" width="2048" height="2048" viewBox="-10 0 2058 2048">
   <path fill="currentColor"
d="M1756 146q0 153 -35 293.5t-95 249.5t-135 193t-161 142q86 58 161 141.5t135 193t95 249.5t35 293h110q15 0 25.5 10.5t10.5 26.5v73q0 16 -10.5 26.5t-25.5 10.5h-1682q-16 0 -27 -10.5t-11 -26.5v-73q0 -16 11 -26.5t27 -10.5h108q0 -153 35 -293t95.5 -249.5
t135.5 -193t162 -141.5q-87 -58 -162 -142t-135.5 -193t-95.5 -249.5t-35 -293.5h-108q-16 0 -27 -10.5t-11 -26.5v-73q0 -16 11 -26t27 -10h1682q15 0 25.5 10t10.5 26v73q0 16 -10.5 26.5t-25.5 10.5h-110zM1146 955q70 -26 136.5 -77t126 -126t104 -166t71 -205
t26.5 -235h-1170q0 121 26 235t70.5 205t104 166t126 126t137.5 77q21 7 34.5 26.5t13.5 42.5t-13.5 42t-34.5 26q-75 28 -147.5 85.5t-132.5 138.5h800q-59 -81 -131.5 -138.5t-146.5 -85.5q-22 -7 -35 -26t-13 -42t13 -42.5t35 -26.5z" />
</svg>
