<?xml version="1.0" standalone="no"?>
<!DOCTYPE svg PUBLIC "-//W3C//DTD SVG 1.1//EN" "http://www.w3.org/Graphics/SVG/1.1/DTD/svg11.dtd" >
<svg xmlns="http://www.w3.org/2000/svg" xmlns:xlink="http://www.w3.org/1999/xlink" version="1.1" width="2048" height="2048" viewBox="-10 0 2058 2048">
   <path fill="currentColor"
d="M1866 1828q15 0 25.5 10.5t10.5 26.5v146q0 16 -10.5 26.5t-25.5 10.5h-1682q-16 0 -27 -10.5t-11 -26.5v-146q0 -16 11 -26.5t27 -10.5h1682zM296 1755q4 -80 27 -155t52 -132.5t79 -118t89 -99t102.5 -88t98 -73t96.5 -64.5q1 -1 2 -1q-63 -41 -97.5 -65t-98 -73
t-102.5 -88t-89 -99.5t-79.5 -118t-52.5 -133t-27 -155.5h1458q-5 80 -28 155.5t-52.5 133t-79.5 118t-89 99.5t-102.5 88t-98 73t-96.5 65l1 1q62 41 96.5 64.5t98 73t102.5 88t89 99t79 118t52 132.5t28 155h-1458zM1866 0q15 0 25.5 10t10.5 26v146q0 16 -10.5 26.5
t-25.5 10.5h-1682q-16 0 -27 -10.5t-11 -26.5v-146q0 -16 11 -26t27 -10h1682z" />
</svg>
