<?xml version="1.0" standalone="no"?>
<!DOCTYPE svg PUBLIC "-//W3C//DTD SVG 1.1//EN" "http://www.w3.org/Graphics/SVG/1.1/DTD/svg11.dtd" >
<svg xmlns="http://www.w3.org/2000/svg" xmlns:xlink="http://www.w3.org/1999/xlink" version="1.1" width="2048" height="2048" viewBox="-10 0 2058 2048">
   <path fill="currentColor"
d="M1024 511q-53 0 -90.5 38t-37.5 91v128h-32v-93q0 -48 -32 -82t-80 -34q-46 0 -79 33t-33 79v430l-32 -31v-171q0 -48 -32.5 -82t-79.5 -34t-79.5 33t-32.5 79v224q0 48 35 83l311 295q38 39 38 103q0 26 19 45t45 19h640q27 0 45.5 -19t18.5 -45v-26q0 -42 10 -77
l108 -435q10 -35 10 -77v-246q0 -48 -32.5 -82t-79.5 -34t-79.5 33t-32.5 79v33h-32v-125q0 -41 -24.5 -73t-64.5 -40q-14 -2 -22 -2q-47 0 -79.5 32.5t-32.5 79.5v128h-33v-122q0 -51 -32.5 -89.5t-81.5 -43.5q-11 -2 -14 -2zM1024 384q85 0 149 49q57 -34 124 -34
q59 0 111 27.5t85 76.5q26 -7 59 -7q100 0 170 71.5t70 171.5v246q0 53 -13 107l-109 437q-6 23 -6 71q0 79 -56 135t-136 56h-640q-84 0 -138 -58t-54 -142l-308 -297q-35 -33 -55.5 -79.5t-20.5 -95.5v-224q0 -99 70.5 -169t169.5 -70q11 0 17 1q6 -95 75.5 -160
t163.5 -65q52 0 98 21q74 -69 174 -69z" />
</svg>
