<?xml version="1.0" standalone="no"?>
<!DOCTYPE svg PUBLIC "-//W3C//DTD SVG 1.1//EN" "http://www.w3.org/Graphics/SVG/1.1/DTD/svg11.dtd" >
<svg xmlns="http://www.w3.org/2000/svg" xmlns:xlink="http://www.w3.org/1999/xlink" version="1.1" width="2048" height="2048" viewBox="-10 0 2058 2048">
   <path fill="currentColor"
d="M1088.5 256q-46.5 0 -79.5 32.5t-33 79.5v656h-32v-528q0 -47 -32.5 -79.5t-79.5 -32.5t-79.5 32.5t-32.5 79.5v528v255l-154 -204q-37 -51 -101 -51q-54 0 -91.5 37.5t-37.5 90.5q0 42 26 77l384 511q37 51 102 51h688q35 0 61.5 -22t33.5 -56l76 -405q5 -38 5 -58v-498
q0 -47 -32.5 -79.5t-79.5 -32.5t-79.5 32.5t-32.5 79.5v272h-32v-528q0 -47 -33 -79.5t-79.5 -32.5t-79 32.5t-32.5 79.5v528h-32v-656q0 -47 -32.5 -79.5t-79 -32.5zM1088 128q68 0 125.5 35.5t88.5 95.5q18 -3 42 -3q99 0 169.5 70.5t70.5 169.5v17q105 -6 180.5 64
t75.5 175v498q0 42 -8 83l-76 403q-15 80 -77 132t-143 52h-688q-60 0 -114.5 -27.5t-90.5 -75.5l-384 -511q-51 -67 -51 -154q0 -106 75 -181.5t182 -75.5q77 0 127 35v-434q0 -99 70.5 -169.5t169.5 -70.5q23 0 42 3q31 -60 88.5 -95.5t125.5 -35.5z" />
</svg>
