<?xml version="1.0" standalone="no"?>
<!DOCTYPE svg PUBLIC "-//W3C//DTD SVG 1.1//EN" "http://www.w3.org/Graphics/SVG/1.1/DTD/svg11.dtd" >
<svg xmlns="http://www.w3.org/2000/svg" xmlns:xlink="http://www.w3.org/1999/xlink" version="1.1" width="2048" height="2048" viewBox="-10 0 2058 2048">
   <path fill="currentColor"
d="M1201 1791h-177q-163 0 -226 -141q-23 -51 -23 -101v-5q-62 -31 -98.5 -89.5t-36.5 -126.5q0 -39 5 -49h-261q-105 0 -180.5 -74.5t-75.5 -180.5t75.5 -181t180.5 -75h113l-44 -17q-74 -27 -119.5 -93.5t-45.5 -146.5q0 -105 75 -180t181 -75q49 0 91 17l628 238h401
q105 0 180.5 75.5t75.5 181.5v667q0 89 -54.5 158.5t-139.5 90.5l-339 84q-92 23 -186 23zM1152 1081l-155 71l-163 73q-30 14 -48 42t-18 61q0 46 32.5 79t79.5 33q27 0 46 -10l338 -154q-49 -11 -80.5 -50.5t-31.5 -89.5v-55zM1472 1391q0 -46 -32.5 -79t-79.5 -33
q-25 0 -46 11l-290 131q-21 9 -26.5 12t-23 12t-24 14t-18.5 16t-16 20.5t-8.5 23.5t-4.5 30q0 50 31.5 82t81.5 32q22 0 38 -9l352 -160q30 -14 48 -42t18 -61zM1240 640l-650 -249q-22 -7 -46 -7q-53 0 -90.5 37t-37.5 90q0 40 22.5 73.5t59.5 47.5l526 200v63h-640
q-53 0 -90.5 38t-37.5 91t37.5 90.5t90.5 37.5h535l233 -106v-199q0 -62 46 -106l111 -101h-69zM1201 1664q81 0 155 -20l339 -85q43 -10 70 -45t27 -79v-667q0 -53 -37.5 -90.5t-90.5 -37.5h-308l-136 126q-36 33 -36 81v297q0 46 33 76.5t79 30.5t79 -34.5t33 -80.5v-208
h32v208q0 33 -15.5 63t-41.5 51q52 8 86.5 48.5t34.5 92.5q0 43 -23 79t-61 53l-310 141h91z" />
</svg>
