<?xml version="1.0" standalone="no"?>
<!DOCTYPE svg PUBLIC "-//W3C//DTD SVG 1.1//EN" "http://www.w3.org/Graphics/SVG/1.1/DTD/svg11.dtd" >
<svg xmlns="http://www.w3.org/2000/svg" xmlns:xlink="http://www.w3.org/1999/xlink" version="1.1" width="2048" height="2048" viewBox="-10 0 2068 2048">
   <path fill="currentColor"
d="M1150 128q61 0 116.5 28t91.5 77l572 780q118 160 118 359v355q0 80 -56.5 136.5t-135.5 56.5h-385q-79 0 -135 -56.5t-56 -136.5v-176l-286 -144h-546q-79 0 -135.5 -56t-56.5 -135v-33q0 -119 84.5 -203.5t203.5 -84.5h420l42 -127h-686q-100 0 -173.5 -67.5
t-81.5 -166.5q-65 -78 -65 -182v-32q0 -80 56 -136t136 -56h958zM1919 1727v-355q0 -157 -92 -283l-573 -782q-38 -51 -104 -51h-958q-27 0 -45.5 19t-18.5 45q0 32 1.5 49.5t9.5 40t25 43.5q9 -31 35 -50t57 -19h831v32h-831q-26 0 -45 19t-19 45q0 42 3 58q9 44 44.5 73
t80.5 29h640h91q40 0 68 27.5t28 67.5q0 13 -5 31l-64 192q-10 29 -35 47.5t-56 18.5h-443q-66 0 -113 46.5t-47 112.5v33q0 26 19 44.5t45 18.5h561q17 0 29 7l317 159q24 12 38.5 35.5t14.5 50.5v196q0 27 18.5 45.5t44.5 18.5h385q26 0 44.5 -18.5t18.5 -45.5z" />
</svg>
