<?xml version="1.0" standalone="no"?>
<!DOCTYPE svg PUBLIC "-//W3C//DTD SVG 1.1//EN" "http://www.w3.org/Graphics/SVG/1.1/DTD/svg11.dtd" >
<svg xmlns="http://www.w3.org/2000/svg" xmlns:xlink="http://www.w3.org/1999/xlink" version="1.1" width="2048" height="2048" viewBox="-10 0 2058 2048">
   <path fill="currentColor"
d="M524 1920q-78 0 -138 -48t-79 -123l-102 -400q-13 -59 -13 -108t-4 -67l-117 -477q-7 -26 -7 -57q0 -93 62 -161t155 -78q17 -85 82.5 -139t153.5 -54q83 0 148 51.5t84 131.5l83 349l103 -428q19 -81 84.5 -132.5t148.5 -51.5q89 0 155 57t81 144q92 11 152 80t60 162
q0 26 -7 58l-123 512q9 -7 32.5 -25t33 -25t30 -21t34 -19.5t33 -13t39 -10.5t41.5 -3q105 0 180 74t75 179q0 62 -28.5 118t-78.5 94l-507 379q-67 52 -153 52h-693zM1168 256q-38 0 -68.5 24t-39.5 62l-164 682h-127l-145 -602q-9 -37 -39.5 -62t-67.5 -25q-48 0 -80 33
t-32 80q0 15 2 28l132 548h-26l-99 -409q-9 -37 -40 -62t-69 -25q-47 0 -80 32.5t-33 79.5q0 10 4 25l115 479q7 28 9.5 86.5t9.5 87.5l100 401q9 32 35 52t59 20h693q43 0 76 -25l507 -380q56 -43 56 -109q0 -52 -37.5 -88.5t-89.5 -36.5q-42 0 -77 26l-307 229v-226
q0 -4 32.5 -139t68 -280.5t38.5 -161.5q4 -18 4 -29q0 -48 -31.5 -82t-79.5 -34q-38 0 -69 24.5t-40 62.5l-116 482h-26l150 -625q3 -17 3 -28q0 -48 -31.5 -81.5t-79.5 -33.5z" />
</svg>
