<?xml version="1.0" standalone="no"?>
<!DOCTYPE svg PUBLIC "-//W3C//DTD SVG 1.1//EN" "http://www.w3.org/Graphics/SVG/1.1/DTD/svg11.dtd" >
<svg xmlns="http://www.w3.org/2000/svg" xmlns:xlink="http://www.w3.org/1999/xlink" version="1.1" width="2048" height="2048" viewBox="-10 0 2058 2048">
   <path fill="currentColor"
d="M832 256q-54 0 -91 37t-37 91v511v384l-151 -202q-19 -25 -47.5 -39t-59.5 -14q-52 0 -89 38t-37 90q0 42 26 77l384 511q37 51 102 51h718q21 0 39 -13.5t23 -34.5l92 -367q23 -96 23 -195v-216q0 -41 -27 -71t-68 -30q-40 0 -68 27.5t-28 67.5h-33v-60q0 -48 -32 -82
t-80 -34q-46 0 -79 33t-33 79v64h-31v-89q0 -55 -37 -95t-91 -40q-53 0 -90.5 38t-37.5 91v95h-32v-569q0 -55 -37.5 -94.5t-90.5 -39.5zM832 128q106 0 181 77.5t75 184.5v219q23 -1 32 -1q98 0 173 69q46 -21 98 -21q54 0 103 22.5t82 63.5q26 -7 56 -7q94 0 159 68
t65 162v216q0 117 -28 225l-92 369q-16 63 -68 104t-118 41h-718q-60 0 -114.5 -27.5t-90.5 -75.5l-384 -511q-51 -67 -51 -154q0 -106 74.5 -181.5t179.5 -75.5q70 0 130 35v-546q0 -106 75 -181t181 -75zM960 1536v-384h-32v384h32zM1216 1536v-384h-32v384h32zM1472 1536
v-384h-32v384h32z" />
</svg>
