<?xml version="1.0" standalone="no"?>
<!DOCTYPE svg PUBLIC "-//W3C//DTD SVG 1.1//EN" "http://www.w3.org/Graphics/SVG/1.1/DTD/svg11.dtd" >
<svg xmlns="http://www.w3.org/2000/svg" xmlns:xlink="http://www.w3.org/1999/xlink" version="1.1" width="2048" height="2048" viewBox="-10 0 2058 2048">
   <path fill="currentColor"
d="M1544 775q59 0 107 22q141 63 141 227v177q0 93 -23 185l-85 340q-21 85 -90 139.5t-158 54.5h-668q-105 0 -180 -75.5t-75 -180.5v-401l-240 -628q-17 -43 -17 -91q0 -106 75.5 -181.5t181.5 -75.5q79 0 145 46t93 120l17 43v-112q0 -106 75.5 -181t181 -75t180.5 75
t75 181v260q26 -4 48 -4q69 0 127.5 36.5t88.5 98.5zM1328 768q-33 0 -60.5 17.5t-40.5 47.5l-75 164l-71 155h55q51 0 90.5 31.5t49.5 80.5l154 -338q10 -19 10 -46q0 -47 -32.5 -79.5t-79.5 -32.5zM1549 902q-21 0 -38.5 7t-28.5 16t-22.5 26.5t-17.5 29.5t-16 35
q-2 5 -4 8l-132 290q-10 21 -10 46q0 47 32.5 79.5t79.5 32.5q33 0 60.5 -18t41.5 -49l160 -351q9 -16 9 -39q0 -50 -32 -81.5t-82 -31.5zM384 544q0 24 8 46l248 649v69l102 -111q43 -45 107 -45h197l106 -233v-535q0 -54 -37 -91t-90.5 -37t-91 37.5t-37.5 90.5v640h-64
l-199 -527q-15 -36 -47.5 -58.5t-72.5 -22.5q-53 0 -91 37.5t-38 90.5zM1436 1791q44 0 78.5 -27t45.5 -70l85 -338q19 -74 19 -155v-91l-141 309q-17 38 -53 61t-78 23q-53 0 -93 -34t-49 -86q-20 26 -50 41.5t-64 15.5h-208v-33h208q47 0 81.5 -33t34.5 -79t-31 -79
t-77 -33h-295q-49 0 -83 37l-126 136v308q0 53 37.5 90t90.5 37h668z" />
</svg>
