<?xml version="1.0" standalone="no"?>
<!DOCTYPE svg PUBLIC "-//W3C//DTD SVG 1.1//EN" "http://www.w3.org/Graphics/SVG/1.1/DTD/svg11.dtd" >
<svg xmlns="http://www.w3.org/2000/svg" xmlns:xlink="http://www.w3.org/1999/xlink" version="1.1" width="2048" height="2048" viewBox="-10 0 2068 2048">
   <path fill="currentColor"
d="M1191 803q0 -101 -69 -138q-37 -21 -133 -21h-141v321h185q76 0 117 -42.5t41 -119.5zM1250 1129l235 426q10 18 -2 35q-10 19 -30 19h-174q-23 0 -32 -20l-222 -417h-177v400q0 16 -10.5 26.5t-26.5 10.5h-153q-16 0 -26 -10.5t-10 -26.5v-1097q0 -16 10 -26.5t26 -10.5
h336q143 0 217 28q97 36 153.5 125t56.5 205q0 105 -48.5 188.5t-132.5 125.5q1 2 4.5 8.5t5.5 10.5zM1024 182q-171 0 -326.5 67t-268.5 179.5t-179.5 268.5t-66.5 327t66.5 326.5t179.5 268.5t268.5 179.5t326.5 66.5t326.5 -66.5t268.5 -179.5t179.5 -268.5t66.5 -326.5
t-66.5 -327t-179.5 -268.5t-268.5 -179.5t-326.5 -67zM2048 1024q0 209 -81 398.5t-218 326.5t-326.5 218t-398.5 81t-398.5 -81t-326.5 -218t-218 -326.5t-81 -398.5t81 -398.5t218 -326.5t326.5 -218t398.5 -81t398.5 81t326.5 218t218 326.5t81 398.5z" />
</svg>
