<?xml version="1.0" standalone="no"?>
<!DOCTYPE svg PUBLIC "-//W3C//DTD SVG 1.1//EN" "http://www.w3.org/Graphics/SVG/1.1/DTD/svg11.dtd" >
<svg xmlns="http://www.w3.org/2000/svg" xmlns:xlink="http://www.w3.org/1999/xlink" version="1.1" width="2048" height="2048" viewBox="-10 0 2068 2048">
   <path fill="currentColor"
d="M691 1409q175 0 294 -119q17 -20 4 -41l-52 -94q-8 -15 -27 -19q-19 -2 -31 12l-5 4q-4 4 -12.5 11t-20 15t-27 16.5t-32.5 15.5t-38.5 11t-42.5 4q-86 0 -142.5 -57.5t-56.5 -145.5t54.5 -144t139.5 -56q42 0 81.5 16t58.5 32l18 16q13 13 29 12q18 -2 28 -16l60 -89
q15 -23 -2 -45q-2 -3 -12.5 -13.5t-35 -27.5t-55 -32t-77.5 -26t-98 -11q-168 0 -280.5 110.5t-112.5 275.5q0 167 110.5 276t282.5 109zM1411 1409q175 0 294 -119q16 -20 5 -41l-52 -94q-10 -16 -28 -19q-19 -2 -31 12l-5 4q-4 4 -12.5 11t-20 15t-27 16.5t-32.5 15.5
t-38.5 11t-42.5 4q-86 0 -142.5 -57.5t-56.5 -145.5t54.5 -144t139.5 -56q43 0 82.5 16t57.5 32l18 16q13 13 29 12q18 -2 28 -16l60 -89q15 -23 -2 -45q-2 -3 -12.5 -13.5t-35 -27.5t-55 -32t-77.5 -26t-98 -11q-168 0 -280.5 111t-112.5 275q0 167 110.5 276t282.5 109z
M1024 182q-171 0 -326.5 67t-268.5 179.5t-179.5 268.5t-66.5 327t66.5 326.5t179.5 268.5t268.5 179.5t326.5 66.5t326.5 -66.5t268.5 -179.5t179.5 -268.5t66.5 -326.5t-66.5 -327t-179.5 -268.5t-268.5 -179.5t-326.5 -67zM1024 0q209 0 398.5 81t326.5 218t218 326.5
t81 398.5t-81 398.5t-218 326.5t-326.5 218t-398.5 81t-398.5 -81t-326.5 -218t-218 -326.5t-81 -398.5t81 -398.5t218 -326.5t326.5 -218t398.5 -81z" />
</svg>
