<?xml version="1.0" standalone="no"?>
<!DOCTYPE svg PUBLIC "-//W3C//DTD SVG 1.1//EN" "http://www.w3.org/Graphics/SVG/1.1/DTD/svg11.dtd" >
<svg xmlns="http://www.w3.org/2000/svg" xmlns:xlink="http://www.w3.org/1999/xlink" version="1.1" width="2048" height="2048" viewBox="-10 0 2068 2048">
   <path fill="currentColor"
d="M579 1114q0 34 -24.5 58.5t-58.5 24.5t-59 -24.5t-25 -58.5t25 -58.5t59 -24.5t58.5 24.5t24.5 58.5zM1605 1113q0 34 -25 58.5t-59.5 24.5t-59 -24.5t-24.5 -58.5t24.5 -58t59 -24t59.5 24t25 58zM680 1114q0 -71 -50.5 -121.5t-120.5 -50.5q-71 0 -121.5 50.5
t-50.5 121.5t50.5 121.5t121.5 50.5q70 0 120.5 -50.5t50.5 -121.5zM1705 1113q0 -71 -50.5 -121.5t-121.5 -50.5q-70 0 -120.5 50.5t-50.5 121.5t50 121t121 50t121.5 -50t50.5 -121zM755 1114q0 103 -72 175.5t-174.5 72.5t-175 -72.5t-72.5 -175.5q0 -102 72.5 -175
t175 -73t174.5 73t72 175zM1781 1113q0 103 -72.5 175t-175.5 72q-102 0 -174 -72t-72 -175t72 -175t174 -72q103 0 175.5 72t72.5 175zM925 1115.5q0 -111.5 -55 -206t-150 -149.5t-206 -55t-205.5 55t-149.5 149.5t-55 206t55 206t149.5 149.5t205.5 55t206 -55
t150 -149.5t55 -206zM1518 606q-226 -98 -494 -98q-285 0 -509 97q104 0 198 40.5t162.5 109t108.5 163t40 197.5q0 -101 39 -194t105 -161t157.5 -109.5t192.5 -44.5zM1944 1115.5q0 -111.5 -55 -206t-149 -149.5t-205.5 -55t-206 55t-149.5 149.5t-55 206t55 206
t149.5 149.5t206 55t205.5 -55t149 -149.5t55 -206zM1707 612h341q-39 45 -66.5 102t-35.5 102q97 134 97 299q0 104 -40 198.5t-108.5 162.5t-162.5 108.5t-197 40.5q-118 0 -221.5 -50t-174.5 -138q-42 50 -115 160q-9 -20 -47.5 -74t-66.5 -86q-71 88 -174 138t-222 50
q-103 0 -197.5 -40.5t-162.5 -108.5t-108.5 -162.5t-40.5 -198.5q0 -165 97 -299q-8 -45 -35.5 -102t-66.5 -102h324q133 -89 316 -139t384 -50q200 0 374.5 49.5t308.5 139.5z" />
</svg>
