<?xml version="1.0" standalone="no"?>
<!DOCTYPE svg PUBLIC "-//W3C//DTD SVG 1.1//EN" "http://www.w3.org/Graphics/SVG/1.1/DTD/svg11.dtd" >
<svg xmlns="http://www.w3.org/2000/svg" xmlns:xlink="http://www.w3.org/1999/xlink" version="1.1" width="2048" height="2048" viewBox="-10 0 2058 2048">
   <path fill="currentColor"
d="M1023.5 1036q-105.5 0 -201.5 -41t-165.5 -110.5t-110.5 -165t-41 -201.5t41 -202t110.5 -165t165.5 -110t201.5 -41t201.5 41t165.5 110t111 165t41.5 202q0 105 -41.5 201t-111 165.5t-165.5 110.5t-201.5 41zM1023.5 262q-105.5 0 -180 75t-74.5 181t74.5 180.5
t180 74.5t180.5 -74.5t75 -180.5t-75 -181t-180.5 -75zM1622 1099q15 31 16.5 57t-5.5 46.5t-30 43.5t-48.5 42.5t-69.5 47.5q-132 84 -360 107l83 82l306 305q34 36 34 85t-34 83l-14 15q-36 35 -85 35t-84 -35q-78 -78 -305 -306l-307 306q-35 35 -84 35t-84 -35l-13 -15
q-35 -34 -35 -83t35 -85q305 -304 305 -305l82 -82q-231 -23 -362 -107q-44 -28 -69.5 -47.5t-48.5 -42.5t-30 -43.5t-5.5 -46.5t16.5 -57q12 -23 32.5 -40t47.5 -25t63.5 2t74.5 40q6 5 17.5 13t49 28t78.5 35t105 27.5t129.5 12.5t129 -12t106.5 -29t77.5 -34t50.5 -29
l17 -12q38 -30 74.5 -40t63.5 -2t47.5 25t32.5 40z" />
</svg>
