<?xml version="1.0" standalone="no"?>
<!DOCTYPE svg PUBLIC "-//W3C//DTD SVG 1.1//EN" "http://www.w3.org/Graphics/SVG/1.1/DTD/svg11.dtd" >
<svg xmlns="http://www.w3.org/2000/svg" xmlns:xlink="http://www.w3.org/1999/xlink" version="1.1" width="2048" height="2048" viewBox="-10 0 2068 2048">
   <path fill="currentColor"
d="M1236 602.5q0 88.5 -61.5 150.5t-150 62t-150.5 -62t-62 -150.5t62 -150t150.5 -61.5t150 61.5t61.5 150zM1522 1086q-10 -19 -26.5 -33t-39.5 -21t-53 1.5t-62 34.5q-5 4 -14.5 10.5t-41 23t-65.5 29.5t-87.5 23.5t-108 10.5t-107 -10t-89 -24.5t-64.5 -28.5t-42 -24
l-14 -10q-32 -26 -62.5 -34.5t-53 -1.5t-39.5 21t-27 33q-13 26 -14.5 47.5t4.5 38.5t25.5 36.5t41 35t58.5 40.5q112 71 301 90l-68 68q-190 191 -256 255q-28 29 -28 70t28 70l13 11q29 29 70 29t70 -29l255 -254q151 153 254 254q29 29 70 29t70 -29l12 -11
q29 -29 29 -70t-29 -70l-255 -255l-68 -68q187 -19 300 -90q36 -25 57.5 -40.5t40.5 -35t25 -36.5t4.5 -38.5t-14.5 -47.5zM1456 602q0 -118 -57.5 -217t-157 -157t-217 -58t-217.5 58t-157.5 157.5t-57.5 217t57.5 217t157.5 157.5t217.5 58t217 -58t157 -157.5
t57.5 -217.5zM2048 384v1280q0 105 -51.5 193t-139.5 139.5t-193 51.5h-1280q-105 0 -193 -51.5t-139.5 -139.5t-51.5 -193v-1280q0 -105 51.5 -193t139.5 -139.5t193 -51.5h1280q105 0 193 51.5t139.5 139.5t51.5 193z" />
</svg>
