<?xml version="1.0" standalone="no"?>
<!DOCTYPE svg PUBLIC "-//W3C//DTD SVG 1.1//EN" "http://www.w3.org/Graphics/SVG/1.1/DTD/svg11.dtd" >
<svg xmlns="http://www.w3.org/2000/svg" xmlns:xlink="http://www.w3.org/1999/xlink" version="1.1" width="2048" height="2048" viewBox="-10 0 2068 2048">
   <path fill="currentColor"
d="M1328 1685l-262 -619q-17 34 -138 267t-180 352l-23.5 -0.5l-23.5 -0.5q-72 -168 -226.5 -518.5t-231.5 -533.5q-19 -44 -59.5 -95.5t-92 -89.5t-90.5 -38q0 -5 -0.5 -22t-0.5 -24h518v45q-25 2 -52 10t-51.5 21t-35 33.5t0.5 44.5q16 37 188.5 435.5t213.5 488.5
q28 -55 126 -240.5t114 -216.5q-16 -34 -111.5 -249.5t-121.5 -262.5q-11 -20 -31 -33.5t-47 -19.5t-49 -8t-51 -2v-44h455v42q-53 1 -83 22t-11 62q30 62 78 168.5t76 166.5q99 -193 154 -323q22 -49 -8 -70.5t-115 -23.5v-22v-22q382 -2 394 -2v44q-55 1 -106 29t-80 73
l-189 392q12 30 114 258.5t108 242.5l392 -904q-10 -25 -30 -44t-44 -28t-43 -13t-35 -5v-45l409 4l1 2l-1 39q-123 3 -179 129q-483 1117 -497 1148h-43z" />
</svg>
