<?xml version="1.0" standalone="no"?>
<!DOCTYPE svg PUBLIC "-//W3C//DTD SVG 1.1//EN" "http://www.w3.org/Graphics/SVG/1.1/DTD/svg11.dtd" >
<svg xmlns="http://www.w3.org/2000/svg" xmlns:xlink="http://www.w3.org/1999/xlink" version="1.1" width="2048" height="2048" viewBox="-10 0 2068 2048">
   <path fill="currentColor"
d="M1085 1020q0 29 -19 51t-48 22t-51 -19t-22 -47q0 -29 19.5 -51t48.5 -22t50.5 18.5t21.5 47.5zM1102 1086l400 -664q-556 515 -568 535l-399 663q554 -512 567 -534zM1841 1024q0 230 -119 424q-3 -2 -19.5 -12.5t-30.5 -19t-18 -8.5q-15 0 -15 14q0 13 67 51
q-85 128 -211.5 217.5t-275.5 126.5l-18 -77q-1 -11 -17 -11q-6 0 -9 6t-2 11l18 78q-85 17 -167 17q-228 0 -425 -120q50 -79 50 -84q0 -6 -4.5 -10.5t-10.5 -4.5q-7 0 -19 17t-25.5 40t-15.5 26q-130 -85 -219.5 -213.5t-125.5 -280.5l78 -17q12 -3 12 -17q0 -6 -6 -9.5
t-12 -2.5l-78 17q-16 -85 -16 -158q0 -237 124 -434q71 45 76 45q15 0 15 -14q0 -6 -10 -14.5t-21.5 -15.5t-26.5 -15.5t-17 -10.5q88 -128 216.5 -216t278.5 -122l17 77q2 11 18 11q6 0 9 -6t2 -12l-17 -76q83 -15 153 -15q232 0 433 125q-44 61 -44 74q0 15 13 15t55 -73
q127 86 214.5 212.5t122.5 275.5l-64 14q-11 2 -11 18q0 6 6 9t11 2l65 -14q16 85 16 160zM1938 1024q0 -186 -72.5 -355.5t-194.5 -292t-291.5 -195t-355.5 -72.5t-355.5 72.5t-291.5 195t-194.5 292t-72.5 355.5q0 248 122.5 458.5t333 333t458.5 122.5t458.5 -122.5
t333 -333t122.5 -458.5zM2048 1024q0 209 -81 398.5t-218 326.5t-326.5 218t-398.5 81t-398.5 -81t-326.5 -218t-218 -326.5t-81 -398.5t81 -398.5t218 -326.5t326.5 -218t398.5 -81t398.5 81t326.5 218t218 326.5t81 398.5z" />
</svg>
