<?xml version="1.0" standalone="no"?>
<!DOCTYPE svg PUBLIC "-//W3C//DTD SVG 1.1//EN" "http://www.w3.org/Graphics/SVG/1.1/DTD/svg11.dtd" >
<svg xmlns="http://www.w3.org/2000/svg" xmlns:xlink="http://www.w3.org/1999/xlink" version="1.1" width="2048" height="2048" viewBox="-10 0 2068 2048">
   <path fill="currentColor"
d="M1021 0q276 -1 515 137q132 77 234 185.5t168 239.5l-848 -45q-119 -7 -229.5 33t-194.5 122t-123 193l-316 -485q146 -181 355.5 -280t438.5 -100zM167 462l385 758q83 164 242 249t334 51l-263 515q-181 -27 -341 -117.5t-275.5 -223t-182 -307t-66.5 -363.5
q0 -306 167 -562zM1979 656q67 171 68.5 355t-56 350t-174.5 310.5t-281 238.5q-261 152 -569 136l463 -712q66 -101 86.5 -216t-8.5 -229t-106 -204zM1024 678q94 0 173.5 46.5t125.5 126t46 173.5t-46 173.5t-125.5 125.5t-173.5 46t-173.5 -46t-125.5 -125.5t-46 -173.5
t46 -173.5t125.5 -126t173.5 -46.5z" />
</svg>
