<?xml version="1.0" standalone="no"?>
<!DOCTYPE svg PUBLIC "-//W3C//DTD SVG 1.1//EN" "http://www.w3.org/Graphics/SVG/1.1/DTD/svg11.dtd" >
<svg xmlns="http://www.w3.org/2000/svg" xmlns:xlink="http://www.w3.org/1999/xlink" version="1.1" width="2048" height="2048" viewBox="-10 0 2068 2048">
   <path fill="currentColor"
d="M1706 260q-189 -126 -410 -126q-177 0 -334.5 83.5t-274.5 228.5q-85 106 -136.5 249t-55.5 305v48q4 162 55.5 304.5t136.5 248.5q117 145 274.5 228.5t334.5 83.5q221 0 410 -126q-139 124 -314 192.5t-368 68.5q-17 0 -49 -2q-200 -9 -380.5 -93.5t-311 -220
t-207 -320.5t-76.5 -388q0 -209 81 -398.5t218 -326.5t326.5 -218t398.5 -81h3q192 1 366.5 69t312.5 191zM2048 1024q0 219 -88 414.5t-243 338.5q-119 72 -254 72q-157 0 -292 -96q176 -65 290 -267t114 -462t-113 -462.5t-289 -267.5q134 -94 290 -94q136 0 258 74
q154 143 240.5 337.5t86.5 412.5z" />
</svg>
