<?xml version="1.0" standalone="no"?>
<!DOCTYPE svg PUBLIC "-//W3C//DTD SVG 1.1//EN" "http://www.w3.org/Graphics/SVG/1.1/DTD/svg11.dtd" >
<svg xmlns="http://www.w3.org/2000/svg" xmlns:xlink="http://www.w3.org/1999/xlink" version="1.1" width="2048" height="2048" viewBox="-10 0 2068 2048">
   <path fill="currentColor"
d="M2048 1070q0 68 -8 120h-1315q0 82 35 156t92.5 125t134 81t157.5 30q113 0 212 -53.5t156 -148.5h483q-64 181 -194.5 320.5t-305 215.5t-367.5 76q-214 0 -407 -94q-110 55 -230.5 93.5t-219.5 38.5q-139 0 -205 -79t-66 -221q0 -136 51 -316q16 -60 125 -260
q229 -414 543 -694q-209 90 -488 406q36 -155 121 -288t202.5 -227t266 -147.5t307.5 -53.5q17 0 51 2q123 -56 255.5 -95t239.5 -39q57 0 107 9t94 30t75.5 52.5t49.5 79.5t18 109q0 134 -85 328q115 208 115 444zM1968 340q0 -95 -60.5 -151.5t-156.5 -56.5
q-122 0 -290 80q139 54 254.5 151t194.5 223q58 -149 58 -246zM146 1754q0 98 55 151t154 53q131 0 304 -96q-140 -82 -244 -208.5t-157 -279.5q-112 232 -112 380zM722 938h832q-4 -107 -63 -195t-152.5 -136.5t-200.5 -48.5t-200.5 48.5t-152.5 136.5t-63 195z" />
</svg>
