<?xml version="1.0" standalone="no"?>
<!DOCTYPE svg PUBLIC "-//W3C//DTD SVG 1.1//EN" "http://www.w3.org/Graphics/SVG/1.1/DTD/svg11.dtd" >
<svg xmlns="http://www.w3.org/2000/svg" xmlns:xlink="http://www.w3.org/1999/xlink" version="1.1" width="2048" height="2048" viewBox="-10 0 2068 2048">
   <path fill="currentColor"
d="M136 125h231q-82 74 -148 174q-29 44 -50 92.5t-34.5 91.5t-20 97.5t-9 95.5t2.5 101t9 98.5t16.5 105t19.5 102.5t23 106q4 18 5 27q3 11 7 31q16 73 24 110.5t24.5 104t29.5 106t33.5 95.5t42 95.5t51 84t62.5 80.5h-319q-56 0 -96 -39.5t-40 -95.5v-1528
q0 -56 40 -95.5t96 -39.5zM1551 125h361q56 0 96 39.5t40 95.5v1528q0 56 -40 95.5t-96 39.5h-208q119 -118 179 -284.5t50 -376.5l-549 118q-3 42 -10 77t-23 71t-41 63.5t-64.5 49t-91.5 32.5q-77 15 -135 1.5t-99 -48.5q-27 -23 -46 -49.5t-44 -81.5t-51 -151.5
t-56 -242.5q-31 -145 -46.5 -244.5t-15 -159.5t7 -92t21.5 -64q24 -48 73.5 -85.5t120.5 -53.5q45 -7 82 -8t69.5 11t58 27.5t48 40t39.5 49.5t33 56l548 -117q-81 -206 -211 -336z" />
</svg>
