<?xml version="1.0" standalone="no"?>
<!DOCTYPE svg PUBLIC "-//W3C//DTD SVG 1.1//EN" "http://www.w3.org/Graphics/SVG/1.1/DTD/svg11.dtd" >
<svg xmlns="http://www.w3.org/2000/svg" xmlns:xlink="http://www.w3.org/1999/xlink" version="1.1" width="2048" height="2048" viewBox="-10 0 2058 2048">
   <path fill="currentColor"
d="M1813 1768l-7 6q-130 130 -296 200q-178 74 -362 74q-187 0 -362 -74q-169 -72 -296 -200q-130 -128 -200 -294q-49 -118 -62 -216q-3 -15 9 -25t23 -12.5t23 -4.5q57 -10 64 23q1 1 1 5q0 2 2.5 15t5 23l7 28t9.5 34.5t12.5 38.5t16.5 43q57 143 173 258
q111 112 259 174q151 64 315 64q161 0 315 -64q146 -63 258 -174l6 -7q11 -12 29 -7q14 3 38 25q41 42 19 67zM1274 1065l-76 75l72 72q24 24 -8 56q-20 20 -36 20q-12 0 -22 -12l-71 -70q-3 3 -37.5 38t-37.5 38q-6 6 -17 6q-17 0 -36 -19l-2 -2q-21 -18 -21 -33
q0 -10 9 -20l76 -74l-76 -75q-18 -18 16 -52q20 -20 36 -20q6 0 15 5l74 76l74 -74q20 -20 55 14q31 31 13 51zM1812 1130q0 132 -53 260q-51 120 -144 213t-213 144q-124 53 -261 53q-136 0 -260 -53q-122 -52 -214 -144q-94 -94 -143 -213q-17 -36 -17 -45h-1
q-4 -11 0 -20t16 -16t17 -9t16 -6q24 -9 42.5 -7.5t25.5 21.5q41 111 111 191h1v-387v-3q1 -73 31.5 -142.5t85.5 -122.5q58 -57 132.5 -87.5t156.5 -30.5q110 0 203.5 54t148 147t54.5 202q0 110 -55 203.5t-148.5 147.5t-202.5 54q-68 0 -128 -18q-3 -1 -6 -2.5t-7 -7
t-6 -12.5t-1.5 -19.5t5.5 -28.5q19 -58 51 -49l16 3.5t37 7t35 3.5q119 0 201 -81.5t82 -199.5q0 -56 -21.5 -107t-60.5 -89q-81 -81 -200 -81q-122 0 -204 92q-35 38 -54 87t-19 96v472q124 76 277 76q109 0 210.5 -41.5t178.5 -118.5t118.5 -177t41.5 -209
q0 -110 -41.5 -210t-119.5 -178q-78 -77 -177.5 -118.5t-209.5 -41.5q-111 0 -211.5 41.5t-177.5 118.5q-4 3 -19 19t-37 41.5t-32 39.5l-2 2q-6 8 -9 11.5t-10 9t-14.5 7t-20.5 1.5t-29 -4q-25 -6 -42.5 -19t-17.5 -30v-777q0 -17 12 -30t32 -13h1002q34 0 34 62
q0 63 -34 63h-927v552h1q45 -48 116 -95.5t124 -69.5q126 -53 264 -53q137 0 261 53q120 51 213 144q93 94 144 212q53 129 53 262zM1777 466q10 9 10 20t-6 20.5t-19 24.5q-30 30 -45 30q-10 0 -18 -8q-120 -104 -237 -152q-148 -64 -315 -64q-155 0 -300 56
q-30 11 -51 -43q-11 -27 -9 -43q3 -19 18 -23q70 -31 160.5 -48t181.5 -17q187 0 361 73q156 67 269 174z" />
</svg>
