<?xml version="1.0" standalone="no"?>
<!DOCTYPE svg PUBLIC "-//W3C//DTD SVG 1.1//EN" "http://www.w3.org/Graphics/SVG/1.1/DTD/svg11.dtd" >
<svg xmlns="http://www.w3.org/2000/svg" xmlns:xlink="http://www.w3.org/1999/xlink" version="1.1" width="2048" height="2048" viewBox="-10 0 2058 2048">
   <path fill="currentColor"
d="M1773 1686q17 -7 29.5 -3.5t12 20t-16.5 38.5q-9 12 -30 31.5t-60.5 49t-88 59.5t-116.5 60.5t-142 54t-168.5 38t-192.5 14.5q-136 0 -272 -35.5t-239 -87.5t-197 -118.5t-151 -120t-96 -100.5q-15 -16 -12.5 -28.5t14.5 -13.5t23 4q6 4 19 12q77 46 120 71.5t131 71
t151.5 68.5t164 53.5t185.5 38.5t200 9t224.5 -19.5t241 -61.5t266.5 -105zM2009 1555q12 18 2.5 79.5t-32.5 117.5q-21 49 -48 86.5t-49 54.5q-19 16 -29 10.5t0 -27.5q5 -12 14 -34t21 -56t19.5 -64.5t10 -58.5t-6.5 -38q-5 -6 -13.5 -10.5t-21.5 -7t-24 -4.5t-29 -1.5
t-29 0.5t-31 1.5t-27 2t-26 2.5l-19 2q-7 1 -15 1.5t-12.5 1.5t-10 1.5t-8 0.5h-6t-5 -0.5l-3 -1t-2.5 -1.5t-2 -3q-5 -12 23 -29.5t70.5 -32t78.5 -18.5q52 -8 123 -1.5t87 27.5zM1559 1049q0 35 15 73t36.5 66.5t43 52.5t37.5 36l15 13l-259 256q-46 -43 -90.5 -87
t-65.5 -66l-22 -23q-15 -15 -29 -38q-38 59 -95.5 104.5t-123 71.5t-138 35t-141 -0.5t-131 -41t-109 -79.5t-74 -122.5t-27.5 -165.5q0 -96 32 -176t82 -133.5t121.5 -95t140 -65t148.5 -39t136.5 -21t114.5 -7.5v-145v-6q3 -165 -162 -165q-4 0 -10.5 0.5t-26 5t-38.5 12
t-44.5 24.5t-47.5 40t-44 60.5t-37 83.5l-336 -31q0 -68 25 -135.5t76.5 -129t123.5 -108.5t173 -75t218 -28q83 0 154.5 15t122.5 39.5t92.5 57.5t67.5 67.5t43.5 71.5t25 68t7.5 57v673zM791 1073q0 96 76 150q70 49 152 30q93 -22 133 -122q24 -58 24 -137v-185
q-36 1 -70 4.5t-73.5 12t-73 21t-65.5 33.5t-54 47t-35.5 63.5t-13.5 82.5z" />
</svg>
