<?xml version="1.0" standalone="no"?>
<!DOCTYPE svg PUBLIC "-//W3C//DTD SVG 1.1//EN" "http://www.w3.org/Graphics/SVG/1.1/DTD/svg11.dtd" >
<svg xmlns="http://www.w3.org/2000/svg" xmlns:xlink="http://www.w3.org/1999/xlink" version="1.1" width="2048" height="2048" viewBox="-10 0 2058 2048">
   <path fill="currentColor"
d="M1994 339q11 11 11 26.5t-11 26.5l-161 161q-32 32 -78 32h-1536q-30 0 -51.5 -21.5t-21.5 -51.5v-293q0 -30 21.5 -51.5t51.5 -21.5h659v-73q0 -30 21.5 -51.5t51.5 -21.5h146q30 0 51.5 21.5t21.5 51.5v73h585q46 0 78 32zM878 1389h292v585q0 30 -21.5 52t-51.5 22
h-146q-30 0 -51.5 -22t-21.5 -52v-585zM1829 877q30 0 51.5 21.5t21.5 51.5v293q0 30 -21.5 51.5t-51.5 21.5h-1536q-46 0 -78 -32l-161 -161q-11 -11 -11 -26.5t11 -26.5l161 -161q32 -32 78 -32h585v-219h292v219h659z" />
</svg>
