<?xml version="1.0" standalone="no"?>
<!DOCTYPE svg PUBLIC "-//W3C//DTD SVG 1.1//EN" "http://www.w3.org/Graphics/SVG/1.1/DTD/svg11.dtd" >
<svg xmlns="http://www.w3.org/2000/svg" xmlns:xlink="http://www.w3.org/1999/xlink" version="1.1" width="2048" height="2048" viewBox="-10 0 2068 2048">
   <path fill="currentColor"
d="M585 0q14 0 25.5 11t11.5 25v1682q0 21 -20 32l-548 293q-10 5 -17 5q-14 0 -25.5 -11.5t-11.5 -25.5v-1682q0 -22 19 -32l549 -293q8 -4 17 -4zM2011 0q14 0 25.5 11t11.5 25v1682q0 22 -19 32l-549 293q-10 5 -17 5q-14 0 -25.5 -11.5t-11.5 -25.5v-1682q0 -21 20 -32
l548 -293q8 -4 17 -4zM731 0q9 0 16 3l586 293q20 11 20 33v1682q0 14 -11 25.5t-25 11.5q-6 0 -16 -4l-586 -292q-20 -11 -20 -34v-1682q0 -14 11 -25t25 -11z" />
</svg>
