<?xml version="1.0" standalone="no"?>
<!DOCTYPE svg PUBLIC "-//W3C//DTD SVG 1.1//EN" "http://www.w3.org/Graphics/SVG/1.1/DTD/svg11.dtd" >
<svg xmlns="http://www.w3.org/2000/svg" xmlns:xlink="http://www.w3.org/1999/xlink" version="1.1" width="2048" height="2048" viewBox="-10 0 2068 2048">
   <path fill="currentColor"
d="M731 896.5q0 -60.5 -42.5 -104t-103.5 -43.5t-103.5 43.5t-42.5 104t42.5 103t103.5 42.5t103.5 -42.5t42.5 -103zM1170 896.5q0 -60.5 -42.5 -104t-103.5 -43.5t-103.5 43.5t-42.5 104t42.5 103t103.5 42.5t103.5 -42.5t42.5 -103zM1609 896.5q0 -60.5 -42.5 -104
t-103.5 -43.5t-103.5 43.5t-42.5 104t42.5 103t103.5 42.5t103.5 -42.5t42.5 -103zM2048 896.5q0 99.5 -37 194.5t-102.5 175t-160 147.5t-207 114.5t-245.5 73t-272 26q-126 0 -241 -21q-198 199 -497 262q-59 12 -99 15q-13 2 -24.5 -6t-15.5 -21q-2 -8 1.5 -16.5
t7.5 -12.5l14 -14q5 -5 26.5 -24t29.5 -27t27 -29t27.5 -36t23 -42.5t23 -55t17.5 -66t14 -82.5q-167 -102 -262.5 -246.5t-95.5 -308.5q0 -99 37 -194t102.5 -175.5t160 -148t207 -114.5t245.5 -73.5t272 -26.5t272 26.5t245.5 73.5t207 114.5t160 148t102.5 175.5
t37 194.5z" />
</svg>
