<?xml version="1.0" standalone="no"?>
<!DOCTYPE svg PUBLIC "-//W3C//DTD SVG 1.1//EN" "http://www.w3.org/Graphics/SVG/1.1/DTD/svg11.dtd" >
<svg xmlns="http://www.w3.org/2000/svg" xmlns:xlink="http://www.w3.org/1999/xlink" version="1.1" width="2048" height="2048" viewBox="-10 0 2068 2048">
   <path fill="currentColor"
d="M731 878q0 61 -42.5 103.5t-103.5 42.5t-103.5 -42.5t-42.5 -103.5t42.5 -104t103.5 -43t103.5 43t42.5 104zM1170 878q0 61 -42.5 103.5t-103.5 42.5t-103.5 -42.5t-42.5 -103.5t42.5 -104t103.5 -43t103.5 43t42.5 104zM1609 878q0 61 -42.5 103.5t-103.5 42.5
t-103.5 -42.5t-42.5 -103.5t42.5 -104t103.5 -43t103.5 43t42.5 104zM1024 292q-233 0 -436 79.5t-322.5 215t-119.5 291.5q0 127 81.5 243.5t230.5 200.5l100 57l-31 110q-29 107 -80 197q171 -71 314 -196l49 -43l65 7q73 9 149 9q233 0 436 -79.5t322.5 -214.5
t119.5 -291t-119.5 -291.5t-322.5 -215t-436 -79.5zM2048 878q0 119 -51.5 231t-146.5 201.5t-220.5 157t-282 104.5t-323.5 37q-85 0 -166 -9q-226 201 -525 276q-63 17 -131 26h-5q-17 0 -31 -12.5t-19 -31.5v-1q1 -12 -0.5 -16t4 -13.5t7.5 -12.5t10 -12t10 -12
q7 -8 35.5 -39t39.5 -44t35 -45t37.5 -58.5t30.5 -67.5t30 -87q-180 -103 -283 -252t-103 -320q0 -148 81 -283.5t218 -234t327 -156.5t398 -58t398 58t327 156.5t218 234t81 283.5z" />
</svg>
