<?xml version="1.0" standalone="no"?>
<!DOCTYPE svg PUBLIC "-//W3C//DTD SVG 1.1//EN" "http://www.w3.org/Graphics/SVG/1.1/DTD/svg11.dtd" >
<svg xmlns="http://www.w3.org/2000/svg" xmlns:xlink="http://www.w3.org/1999/xlink" version="1.1" width="2048" height="2048" viewBox="-10 0 2068 2048">
   <path fill="currentColor"
d="M2047 549q-13 300 -417 819q-420 542 -708 542q-180 0 -302 -330q-21 -77 -78 -285t-88 -322q-91 -330 -197 -330q-23 0 -160 95l-97 -123q290 -258 300 -266q196 -174 302 -184q120 -12 193.5 69.5t101.5 256.5q56 362 83 469q69 314 151 314q64 0 194 -203
q127 -201 137 -309q17 -176 -137 -176q-69 0 -152 34q150 -495 577 -482q315 10 297 411z" />
</svg>
