<?xml version="1.0" standalone="no"?>
<!DOCTYPE svg PUBLIC "-//W3C//DTD SVG 1.1//EN" "http://www.w3.org/Graphics/SVG/1.1/DTD/svg11.dtd" >
<svg xmlns="http://www.w3.org/2000/svg" xmlns:xlink="http://www.w3.org/1999/xlink" version="1.1" width="2048" height="2048" viewBox="-10 0 2068 2048">
   <path fill="currentColor"
d="M0 0h2048v2048h-2048v-2048zM1211 427l-16 43l100 111l-42 152l34 34l143 -76l142 76l34 -34l-41 -152l99 -111l-15 -43h-127l-71 -128h-42l-72 128h-126zM855 644q43 0 59.5 21.5t15.5 83.5l231 -28q0 -59 -16 -103t-42 -70t-66 -42t-80 -21t-91 -5q-178 0 -266 77
t-88 244v95h-128v171h101q27 0 27 10v510q0 20 -6 27.5t-24 8.5l-98 10v116h597v-114l-198 -19q-7 0 -11 -1t-5 -4t-1 -5.5t1 -9.5t1 -14v-515h255l51 -171h-308q-6 -1 -5.5 -2.5t4 -7.5t3.5 -10v-107q0 -29 1 -44.5t5.5 -33.5t13.5 -26.5t26 -14.5t41 -6zM1664 1749v-114
l-71 -12q-10 -1 -13.5 -3t-3.5 -4.5t1.5 -10.5t1.5 -16v-693h-367l-30 134l110 30q31 10 31 36v493q0 19 -7.5 25.5t-27.5 8.5l-93 12v114h469z" />
</svg>
