<?xml version="1.0" standalone="no"?>
<!DOCTYPE svg PUBLIC "-//W3C//DTD SVG 1.1//EN" "http://www.w3.org/Graphics/SVG/1.1/DTD/svg11.dtd" >
<svg xmlns="http://www.w3.org/2000/svg" xmlns:xlink="http://www.w3.org/1999/xlink" version="1.1" width="2048" height="2048" viewBox="-10 0 2068 2048">
   <path fill="currentColor"
d="M2048 1024q0 65 -34 120t-91 84q14 54 14 110q0 106 -46 205.5t-130.5 180t-196.5 141t-251 93.5t-287 33t-287 -33t-250.5 -93.5t-195.5 -141t-130 -180t-46 -205.5q0 -57 12 -108q-59 -29 -94 -84.5t-35 -121.5q0 -95 66 -161t161 -66q99 0 166 72
q118 -83 269.5 -131.5t319.5 -53.5l132 -596q4 -16 17.5 -24.5t29.5 -4.5l422 92q20 -42 61.5 -67.5t90.5 -25.5q71 0 121 49.5t50 120.5t-50 121t-121 50t-120.5 -50t-49.5 -120l-382 -85l-119 540q169 5 321.5 53t271.5 130q67 -70 164 -70q95 0 161 66t66 161zM478 1252
q0 71 49.5 121t120.5 50t121 -50t50 -121t-50 -120.5t-121 -49.5q-70 0 -120 49.5t-50 120.5zM1403 1658q13 -13 13 -30.5t-13 -29.5q-12 -12 -29 -12t-29 12q-47 48 -138 71t-183 23t-183 -23t-138 -71q-12 -12 -29 -12t-29 12q-13 12 -13 29.5t13 30.5q38 38 94 63.5
t115.5 35.5t97 13.5t72.5 3.5t72.5 -3.5t97 -13.5t115.5 -35.5t94 -63.5zM1400 1423q71 0 120.5 -50t49.5 -121t-50 -120.5t-120 -49.5q-71 0 -121 49.5t-50 120.5t50 121t121 50z" />
</svg>
