<?xml version="1.0" standalone="no"?>
<!DOCTYPE svg PUBLIC "-//W3C//DTD SVG 1.1//EN" "http://www.w3.org/Graphics/SVG/1.1/DTD/svg11.dtd" >
<svg xmlns="http://www.w3.org/2000/svg" xmlns:xlink="http://www.w3.org/1999/xlink" version="1.1" width="2048" height="2048" viewBox="-10 0 2058 2048">
   <path fill="currentColor"
d="M78 909h1q18 -145 67 -277t131.5 -248t191.5 -201t256 -134t316 -49q264 0 473.5 120.5t336.5 346.5q119 215 119 506v215h-1287q1 96 36 173.5t93.5 127t137.5 82t167 43.5t182.5 7t183.5 -24t170.5 -53.5t144.5 -76.5v431q-77 46 -189.5 82t-244.5 56t-278.5 8.5
t-269.5 -58.5q-143 -55 -257 -167t-177 -254.5t-64 -288.5q-4 -277 126.5 -471.5t371.5 -306.5q-54 69 -89 144t-53 183h726q7 -70 -2.5 -129.5t-32 -101t-53 -75t-66 -54.5t-71.5 -36.5t-69.5 -22.5t-59 -11t-41.5 -4l-15 -1q-124 5 -241.5 36t-213.5 79.5t-183 115
t-153 137.5t-121 151z" />
</svg>
