<?xml version="1.0" standalone="no"?>
<!DOCTYPE svg PUBLIC "-//W3C//DTD SVG 1.1//EN" "http://www.w3.org/Graphics/SVG/1.1/DTD/svg11.dtd" >
<svg xmlns="http://www.w3.org/2000/svg" xmlns:xlink="http://www.w3.org/1999/xlink" version="1.1" width="2048" height="2048" viewBox="-10 0 2058 2048">
   <path fill="currentColor"
d="M1850 1474l-250 -127q-84 137 -224 216t-302 79q-125 0 -239 -49t-196.5 -131t-131.5 -196t-49 -239q0 -126 49 -240t131.5 -196.5t196.5 -131t239 -48.5q151 0 284 69.5t220 192.5l246 -143q-127 -194 -328.5 -303.5t-431.5 -109.5q-124 0 -241.5 32.5t-217 91
t-183 142.5t-141.5 183t-90.5 217t-32.5 241t32.5 240.5t90.5 217t141.5 183t183 142t217 91t241.5 32.5q243 0 454 -122.5t332 -333.5zM1216 1020l792 402q-132 289 -382 457.5t-562 168.5q-140 0 -272.5 -37t-245 -102.5t-207 -160t-160.5 -207t-102.5 -245.5t-36.5 -272
t36.5 -272t102.5 -245.5t160.5 -207t207 -160t245 -102.5t272.5 -37q297 0 537.5 152t382.5 419zM1802 1024h-44v182h-110v-402h156q37 0 62.5 22.5t32 55t1 65t-31.5 55t-66 22.5z" />
</svg>
