<?xml version="1.0" standalone="no"?>
<!DOCTYPE svg PUBLIC "-//W3C//DTD SVG 1.1//EN" "http://www.w3.org/Graphics/SVG/1.1/DTD/svg11.dtd" >
<svg xmlns="http://www.w3.org/2000/svg" xmlns:xlink="http://www.w3.org/1999/xlink" version="1.1" width="2048" height="2048" viewBox="-10 0 2058 2048">
   <path fill="currentColor"
d="M802 1144v-258q0 -8 -5.5 -13.5t-12.5 -5.5h-111q-8 0 -13 5.5t-5 13.5v258q0 8 5 13t13 5h111q7 0 12.5 -5t5.5 -13zM1393 1144v-258q0 -8 -5.5 -13.5t-13.5 -5.5h-110q-7 0 -13 5.5t-6 13.5v258q0 8 5.5 13t13.5 5h110q8 0 13.5 -5t5.5 -13zM1983 1180v868h-738v-369
q0 -92 -65 -157t-156.5 -65t-156.5 65t-65 157v369h-737v-868q0 -7 5 -12.5t13 -5.5h111q7 0 12.5 5.5t5.5 12.5v130h148v-720q0 -7 5.5 -12.5t12.5 -5.5h111q8 0 13 5.5t5 12.5v129h148v-129q0 -7 5 -12.5t13 -5.5h111q7 0 12.5 5.5t5.5 12.5v129h148v-129q0 -7 3.5 -11
t10 -5.5t11 -2t13 0t10.5 0.5v-451q-17 -8 -27.5 -23.5t-10.5 -33.5q0 -26 19 -45t45 -19t45 19t19 45q0 18 -10.5 33.5t-27.5 23.5v19q49 -11 96 -11q25 0 69 8.5t62 8.5q20 0 54 -8.5t43 -8.5q8 0 13.5 5.5t5.5 12.5v242q0 18 -41 25.5t-71 7.5q-21 0 -63 -8.5t-64 -8.5
q-46 0 -104 14v153q2 0 10.5 -0.5t13 0t11 2t10 5.5t3.5 11v129h147v-129q0 -7 5.5 -12.5t13.5 -5.5h110q8 0 13.5 5.5t5.5 12.5v129h148v-129q0 -7 5 -12.5t13 -5.5h111q7 0 12.5 5.5t5.5 12.5v720h147v-130q0 -7 6 -12.5t13 -5.5h110q8 0 13.5 5.5t5.5 12.5z" />
</svg>
