<?xml version="1.0" standalone="no"?>
<!DOCTYPE svg PUBLIC "-//W3C//DTD SVG 1.1//EN" "http://www.w3.org/Graphics/SVG/1.1/DTD/svg11.dtd" >
<svg xmlns="http://www.w3.org/2000/svg" xmlns:xlink="http://www.w3.org/1999/xlink" version="1.1" width="2048" height="2048" viewBox="-10 0 2068 2048">
   <path fill="currentColor"
d="M2034 1000q14 8 14 24t-14 24l-285 171q-7 4 -14 4t-14 -3q-14 -10 -14 -25v-114h-763q35 54 74 146q16 35 22.5 49t21 43t24 42.5t23.5 30t28 23.5t29 7h86v-85q0 -12 8 -20.5t20 -8.5h284q12 0 20.5 8.5t8.5 20.5v284q0 12 -8.5 20.5t-20.5 8.5h-284q-12 0 -20 -8.5
t-8 -20.5v-85h-86q-22 0 -43 -5.5t-37.5 -12.5t-33.5 -23t-28.5 -27.5t-26.5 -34.5t-23 -36t-22 -41t-19.5 -40t-18.5 -42q-17 -38 -26 -57.5t-25.5 -50t-29.5 -46t-30.5 -27.5t-34.5 -12h-320q-19 75 -80.5 123t-139.5 48q-94 0 -161 -67t-67 -161t67 -161t161 -67
q78 0 139.5 48t80.5 123h93q14 0 28 -7t27.5 -23t23.5 -30t23.5 -42t21 -43t21.5 -48q16 -37 24.5 -54.5t26 -50.5t30 -50.5t33 -41.5t40 -35.5t45 -20.5t54.5 -9h95q18 -51 61.5 -82.5t99.5 -31.5q70 0 120 50t50 120.5t-50 121t-120 50.5q-55 0 -99 -32t-62 -83h-95
q-15 0 -29 7t-28 23.5t-24 30.5t-24.5 42.5t-21.5 43.5t-22 49q-39 92 -74 146h991v-114q0 -15 14 -25q14 -9 28 1z" />
</svg>
