<?xml version="1.0" standalone="no"?>
<!DOCTYPE svg PUBLIC "-//W3C//DTD SVG 1.1//EN" "http://www.w3.org/Graphics/SVG/1.1/DTD/svg11.dtd" >
<svg xmlns="http://www.w3.org/2000/svg" xmlns:xlink="http://www.w3.org/1999/xlink" version="1.1" width="2048" height="2048" viewBox="-10 0 2068 2048">
   <path fill="currentColor"
d="M1462 1203q0 -52 -30 -94.5t-77 -61.5q-6 38 -21 83q-6 21 -24 33.5t-40 12.5q-10 0 -21 -3q-27 -9 -39.5 -34t-3.5 -52q20 -63 20 -128q0 -109 -54 -202t-147.5 -147t-203.5 -54q-119 0 -219 65t-149 173q96 25 168 94q20 20 20 48t-20 48t-49 20t-49 -20
q-66 -66 -160 -66t-160.5 66.5t-66.5 160t66.5 160t160.5 66.5h931q69 0 118.5 -49.5t49.5 -118.5zM1598 1203q0 126 -89 215t-215 89h-931q-98 0 -182 -48.5t-132.5 -132t-48.5 -181.5q0 -136 89 -238t221 -121q56 -163 197 -264.5t314 -101.5q138 0 257 64.5t193.5 176
t87.5 246.5q103 23 171 105.5t68 190.5zM1821 1203q0 155 -86 284q-21 29 -57 29q-22 0 -39 -11q-23 -15 -28 -43t11 -51q63 -93 63 -208t-63 -207q-16 -23 -11 -50.5t28 -43.5t51.5 -10.5t44.5 29.5q86 126 86 282zM2048 1203q0 218 -119 394q-21 31 -57 31q-20 0 -37 -12
q-24 -16 -29 -43.5t10 -50.5q96 -145 96 -319t-96 -317q-16 -24 -10 -51.5t29 -43.5q23 -15 50.5 -10t43.5 29q119 176 119 393z" />
</svg>
