<?xml version="1.0" standalone="no"?>
<!DOCTYPE svg PUBLIC "-//W3C//DTD SVG 1.1//EN" "http://www.w3.org/Graphics/SVG/1.1/DTD/svg11.dtd" >
<svg xmlns="http://www.w3.org/2000/svg" xmlns:xlink="http://www.w3.org/1999/xlink" version="1.1" width="2048" height="2048" viewBox="-10 0 2058 2048">
   <path fill="currentColor"
d="M1860 1770q0 102 -72 174.5t-174.5 72.5t-175 -72.5t-72.5 -174.5q0 -103 72.5 -175.5t175 -72.5t174.5 72.5t72 175.5zM1594 1449q-131 17 -219.5 117t-88.5 235q0 83 38 157q-169 90 -434 90q-124 0 -229.5 -24t-175.5 -62t-126 -88t-87 -97.5t-51 -94.5t-26.5 -76
t-6.5 -45q0 -22 4.5 -48.5t21 -63.5t42 -66.5t73 -50t107.5 -20.5q61 0 108 19.5t72 47t41 61t20.5 55.5t4.5 38q-1 39 -26 93q32 31 93 48t106 18l45 2q132 0 218 -58.5t86 -151.5q0 -30 -9.5 -55t-38 -51.5t-53 -45.5t-86 -51t-104 -52.5t-136.5 -64.5q-35 -16 -53 -25
q-88 -42 -150.5 -77t-117 -74.5t-88.5 -80t-58.5 -90.5t-35 -108t-10.5 -130q0 -89 23.5 -171t75.5 -157t128.5 -130.5t190.5 -88t254 -32.5q137 0 251 29.5t188 76.5t125 107.5t72.5 120.5t21.5 118q0 52 -16.5 94t-41.5 66.5t-56 41t-56 22.5t-44 6h-10h-27.5t-32.5 -2.5
t-37.5 -7t-38 -15t-38 -24.5t-32.5 -37t-28 -52t-17.5 -70t-6.5 -90q-17 -19 -68 -29.5t-93 -12.5l-43 -1q-58 0 -106 20.5t-75.5 52.5t-42 65.5t-14.5 64.5q0 27 5.5 49t27.5 53t61 58.5t110.5 61t171.5 66.5q110 37 196.5 79.5t143.5 82.5t97.5 89.5t61.5 89t33 93.5
t14 91t2 92z" />
</svg>
