<?xml version="1.0" standalone="no"?>
<!DOCTYPE svg PUBLIC "-//W3C//DTD SVG 1.1//EN" "http://www.w3.org/Graphics/SVG/1.1/DTD/svg11.dtd" >
<svg xmlns="http://www.w3.org/2000/svg" xmlns:xlink="http://www.w3.org/1999/xlink" version="1.1" width="2048" height="2048" viewBox="-10 0 2068 2048">
   <path fill="currentColor"
d="M1024.5 0q139.5 0 272 37t245 103t207 160.5t160.5 207t102.5 245t36.5 272t-36.5 272t-102.5 245t-160.5 207t-207 160.5t-245 102.5t-272 36.5t-272 -36.5t-245 -102.5t-207 -160.5t-160.5 -207t-103 -245t-37 -272t37 -272t103 -245t160.5 -207t207 -160.5t245 -103
t272 -37zM1024.5 1749q147.5 0 281.5 -57.5t231 -154.5t154.5 -231t57.5 -281.5t-57.5 -282t-154.5 -231.5t-231 -154.5t-281.5 -57.5t-282 57.5t-231.5 154.5t-154.5 231.5t-57.5 282t57.5 281.5t154.5 231t231.5 154.5t282 57.5zM641 1451q-19 0 -31.5 -12t-12.5 -30v-770
q0 -18 12.5 -30t31.5 -12h768q18 0 30 12t12 30v770q0 18 -12 30t-30 12h-768z" />
</svg>
