<?xml version="1.0" standalone="no"?>
<!DOCTYPE svg PUBLIC "-//W3C//DTD SVG 1.1//EN" "http://www.w3.org/Graphics/SVG/1.1/DTD/svg11.dtd" >
<svg xmlns="http://www.w3.org/2000/svg" xmlns:xlink="http://www.w3.org/1999/xlink" version="1.1" width="2048" height="2048" viewBox="-10 0 2068 2048">
   <path fill="currentColor"
d="M1919 895q54 0 91.5 38t37.5 91t-37.5 90.5t-91.5 37.5h-14l-115 661q-9 46 -44.5 76.5t-81.5 30.5h-1280q-46 0 -81.5 -30.5t-44.5 -76.5l-115 -661h-15q-53 0 -90.5 -37.5t-37.5 -90.5t37.5 -91t90.5 -38h1791zM485 1696q26 -2 43.5 -22.5t15.5 -46.5l-32 -417
q-2 -26 -22.5 -43t-46.5 -15t-43.5 22.5t-15.5 46.5l32 415q2 25 20.5 42.5t43.5 17.5h5zM896 1631v-415q0 -27 -19 -45.5t-45 -18.5t-45 18.5t-19 45.5v415q0 26 19 45.5t45 19.5t45 -19.5t19 -45.5zM1280 1631v-415q0 -27 -19 -45.5t-45 -18.5t-45 18.5t-19 45.5v415
q0 26 19 45.5t45 19.5t45 -19.5t19 -45.5zM1632 1636l32 -415q2 -26 -15.5 -46.5t-44 -22.5t-47 15t-22.5 43l-31 417q-2 26 15 46.5t43 22.5h6q25 0 43.5 -17.5t20.5 -42.5zM476 419l-93 413h-132l101 -441q19 -88 89 -143.5t160 -55.5h167q0 -26 19 -45t45 -19h384
q26 0 45 19t19 45h167q90 0 159.5 55.5t88.5 143.5l102 441h-132l-93 -413q-10 -44 -45 -71.5t-80 -27.5h-167q0 26 -19 45t-45 19h-384q-26 0 -45 -19t-19 -45h-167q-45 0 -80 27.5t-45 71.5z" />
</svg>
