<?xml version="1.0" standalone="no"?>
<!DOCTYPE svg PUBLIC "-//W3C//DTD SVG 1.1//EN" "http://www.w3.org/Graphics/SVG/1.1/DTD/svg11.dtd" >
<svg xmlns="http://www.w3.org/2000/svg" xmlns:xlink="http://www.w3.org/1999/xlink" version="1.1" width="2048" height="2048" viewBox="-11 0 2070 2048">
   <path fill="currentColor"
d="M1137 1176l76 -304h-302l-76 304h302zM2047 578l-66 266q-9 28 -37 28h-388l-75 304h368q17 0 30 15q12 15 7 33l-66 265q-2 13 -13 20.5t-24 7.5h-387l-97 390q-4 12 -14 20t-22 8h-266q-19 0 -31 -14q-11 -14 -7 -33l92 -371h-301l-96 390q-4 12 -14 20t-23 8h-267
q-18 0 -30 -14q-10 -14 -7 -33l94 -371h-370q-16 0 -29 -14q-11 -14 -7 -33l66 -266q9 -28 37 -28h388l75 -304h-368q-18 0 -30 -14q-12 -15 -7 -33l66 -265q2 -13 13 -21t24 -8h387l97 -390q4 -12 14 -20t23 -8h266q17 0 30 15q11 14 7 33l-92 370h301l96 -390
q4 -12 14.5 -20t23.5 -8h266q17 0 30 15q10 14 7 33l-94 370h370q16 0 29 14q11 14 7 33z" />
</svg>
