<?xml version="1.0" standalone="no"?>
<!DOCTYPE svg PUBLIC "-//W3C//DTD SVG 1.1//EN" "http://www.w3.org/Graphics/SVG/1.1/DTD/svg11.dtd" >
<svg xmlns="http://www.w3.org/2000/svg" xmlns:xlink="http://www.w3.org/1999/xlink" version="1.1" width="2048" height="2048" viewBox="-10 0 2058 2048">
   <path fill="currentColor"
d="M1108 1203l168 169l-170 170zM1106 505l170 170l-168 169zM958 1904l530 -531l-350 -349l350 -350l-530 -530v698l-292 -292l-106 107l366 367l-366 366l106 107l292 -292v699zM1780 1024q0 171 -19 312t-53 246t-85.5 185.5t-113 133t-140 86t-162 47.5t-183 14
t-183 -14t-162 -47.5t-140.5 -86t-113.5 -133t-85.5 -185.5t-53 -246t-19 -312t19 -312t53 -246t85.5 -185.5t113.5 -133t140.5 -86t162 -47.5t183 -14t183 14t162 47.5t140 86t113 133t85.5 185.5t53 246t19 312z" />
</svg>
