<?xml version="1.0" standalone="no"?>
<!DOCTYPE svg PUBLIC "-//W3C//DTD SVG 1.1//EN" "http://www.w3.org/Graphics/SVG/1.1/DTD/svg11.dtd" >
<svg xmlns="http://www.w3.org/2000/svg" xmlns:xlink="http://www.w3.org/1999/xlink" version="1.1" width="2048" height="2048" viewBox="-10 0 2068 2048">
   <path fill="currentColor"
d="M1707 1536q0 -70 -50 -120.5t-120 -50.5t-121 50.5t-51 120.5t51 120.5t121 50.5t120 -50.5t50 -120.5zM683 512q0 -70 -50.5 -120.5t-120.5 -50.5t-120 50.5t-50 120.5t50 120.5t120 50.5t120.5 -50.5t50.5 -120.5zM2048 1536q0 104 -40.5 198.5t-109 163.5t-163 109.5
t-198.5 40.5t-199 -40.5t-163.5 -109.5t-109 -163.5t-40.5 -198.5t40.5 -199t109 -163t163.5 -108.5t199 -40.5t198.5 40.5t163 108.5t109 163t40.5 199zM1921 85q0 25 -18 50l-1408 1879q-27 34 -68 34h-213q-35 0 -60.5 -25t-25.5 -60q0 -25 18 -50l1407 -1878
q27 -35 69 -35h214q35 0 60 25t25 60zM1025 512q0 104 -41 199t-109.5 163.5t-163.5 109.5t-199 41t-198.5 -41t-163.5 -109.5t-109.5 -163.5t-40.5 -199t40.5 -198.5t109.5 -163.5t163.5 -109.5t198.5 -40.5t199 40.5t163.5 109.5t109.5 163.5t41 198.5z" />
</svg>
