<?xml version="1.0" standalone="no"?>
<!DOCTYPE svg PUBLIC "-//W3C//DTD SVG 1.1//EN" "http://www.w3.org/Graphics/SVG/1.1/DTD/svg11.dtd" >
<svg xmlns="http://www.w3.org/2000/svg" xmlns:xlink="http://www.w3.org/1999/xlink" version="1.1" width="2048" height="2048" viewBox="-11 0 2070 2048">
   <path fill="currentColor"
d="M119 807l905 1159l-992 -719q-20 -16 -28 -40.5t-1 -47.5l116 -352v0zM647 807h754l-377 1159v0zM421 108l226 699h-528l226 -699q10 -26 38.5 -26t37.5 26zM1929 807l116 352q7 23 -1 47.5t-28 40.5l-992 719l905 -1159v0zM1929 807h-528l226 -699q9 -26 37.5 -26
t38.5 26z" />
</svg>
