<?xml version="1.0" standalone="no"?>
<!DOCTYPE svg PUBLIC "-//W3C//DTD SVG 1.1//EN" "http://www.w3.org/Graphics/SVG/1.1/DTD/svg11.dtd" >
<svg xmlns="http://www.w3.org/2000/svg" xmlns:xlink="http://www.w3.org/1999/xlink" version="1.1" width="2048" height="2048" viewBox="-10 0 2068 2048">
   <path fill="currentColor"
d="M439 950h183v-256h-183v256zM1395 1330v-104q-119 41 -277 42q-155 1 -297 -53t-252 -139l1 110q101 91 242.5 146t310.5 54q146 0 272 -56zM731 950h732v-256h-732v256zM2048 914q0 214 -113 402q102 117 102 262q0 118 -68 218t-184.5 158t-254.5 58q-140 0 -257 -60.5
t-184 -161.5q-44 2 -65 2t-65 -2q-67 101 -184 161.5t-257 60.5q-138 0 -254.5 -58t-184.5 -158t-68 -218q0 -145 102 -262q-113 -188 -113 -402q0 -119 37 -233t102.5 -210t160 -177t207 -137.5t245.5 -88.5t272 -32t272 32t245.5 88.5t207 137.5t160 177t102.5 210t37 233
z" />
</svg>
