<?xml version="1.0" standalone="no"?>
<!DOCTYPE svg PUBLIC "-//W3C//DTD SVG 1.1//EN" "http://www.w3.org/Graphics/SVG/1.1/DTD/svg11.dtd" >
<svg xmlns="http://www.w3.org/2000/svg" xmlns:xlink="http://www.w3.org/1999/xlink" version="1.1" width="2048" height="2048" viewBox="-10 0 2068 2048">
   <path fill="currentColor"
d="M1024 932q-113 -214 -173 -302q-147 -219 -356 -349q-61 -38 -130 -71q-102 -46 -107 -36.5t39 44.5l44 34q57 39 108 89t84 90t76.5 110t62 105t63.5 120q12 22 18 34q50 95 96 174t112.5 176t132 171.5t149.5 141t170 103.5q176 76 176 69q0 -4 -54 -41
q-62 -41 -95 -66q-88 -66 -204.5 -241t-211.5 -355zM627 1553q-87 -69 -152 -143.5t-112 -163.5t-80.5 -176.5t-66.5 -212.5t-59 -239t-69.5 -288.5t-87.5 -329.5q312 0 568.5 41t433 106t310.5 164t212 198t125.5 226t64 229t14.5 226t-11 198.5t-23 164.5q-15 95 -15 121
l369 374h-119l-321 -326q-26 3 -104.5 16.5t-139 21.5t-158.5 6.5t-183 -19.5t-191.5 -67t-204.5 -127z" />
</svg>
