<?xml version="1.0" standalone="no"?>
<!DOCTYPE svg PUBLIC "-//W3C//DTD SVG 1.1//EN" "http://www.w3.org/Graphics/SVG/1.1/DTD/svg11.dtd" >
<svg xmlns="http://www.w3.org/2000/svg" xmlns:xlink="http://www.w3.org/1999/xlink" version="1.1" width="2048" height="2048" viewBox="-10 0 2068 2048">
   <path fill="currentColor"
d="M1570 750q-7 -29 -32.5 -44.5t-55.5 -8.5q-297 71 -458 71t-458 -71q-30 -7 -55.5 8.5t-32.5 44.5q-7 30 8.5 55.5t44.5 32.5q216 52 347 67q-2 181 -17.5 307t-31 178t-46.5 132l-10 24q-11 28 1 56t41 39q11 4 26 4q23 0 42 -12.5t27 -34.5l9 -22q21 -54 32 -85
t25.5 -89t23.5 -122h48q9 64 23.5 122t25.5 89t32 85l9 22q8 22 27 34.5t42 12.5q15 0 26 -4q29 -11 41 -39t1 -56l-10 -24q-31 -80 -46.5 -132t-31 -178t-17.5 -307q131 -15 347 -67q29 -7 44.5 -32.5t8.5 -55.5zM1170 585q0 -61 -42.5 -104t-103.5 -43t-103.5 43
t-42.5 104t42.5 103.5t103.5 42.5t103.5 -42.5t42.5 -103.5zM1829 1024q0 164 -63.5 313t-171.5 256.5t-257 171t-313 63.5t-313 -63.5t-257 -171t-171.5 -256.5t-63.5 -313t63.5 -313t171.5 -257t257 -171.5t313 -63.5t313 63.5t257 171.5t171.5 257t63.5 313zM1024 146
q-178 0 -340.5 70t-280 187.5t-187.5 280t-70 340.5t70 340.5t187.5 280t280 187t340.5 69.5t340.5 -69.5t280 -187t187.5 -280t70 -340.5t-70 -340.5t-187.5 -280t-280 -187.5t-340.5 -70zM2048 1024q0 209 -81 398.5t-218 326.5t-326.5 218t-398.5 81t-398.5 -81
t-326.5 -218t-218 -326.5t-81 -398.5t81 -398.5t218 -326.5t326.5 -218t398.5 -81t398.5 81t326.5 218t218 326.5t81 398.5z" />
</svg>
