<?xml version="1.0" standalone="no"?>
<!DOCTYPE svg PUBLIC "-//W3C//DTD SVG 1.1//EN" "http://www.w3.org/Graphics/SVG/1.1/DTD/svg11.dtd" >
<svg xmlns="http://www.w3.org/2000/svg" xmlns:xlink="http://www.w3.org/1999/xlink" version="1.1" width="2048" height="2048" viewBox="-10 0 2058 2048">
   <path fill="currentColor"
d="M1789.5 929q38.5 40 33.5 93l-51 630q-4 48 -38.5 80t-82.5 32q-7 0 -10 -1q-50 -4 -82.5 -42t-29.5 -88l40 -491l-164 10q63 129 63 274q0 122 -44 231t-125 194l-156 -157q104 -115 104 -268q0 -109 -53.5 -201.5t-145.5 -146t-201 -53.5q-153 0 -270 105l-157 -158
q138 -129 325 -161l302 -343l-171 -99l-207 184q-37 34 -87 31.5t-84 -40.5q-33 -38 -30.5 -88t39.5 -84l273 -243q30 -26 69 -30t73 16l558 323q41 23 55 78q19 76 -30 134l-234 265l424 -23q56 -3 94.5 37zM1563 406q-84 0 -143.5 -59t-59.5 -144q0 -84 59.5 -143.5
t143.5 -59.5q85 0 145 59.5t60 143.5q0 85 -60 144t-145 59zM847 1826q120 0 224 -70l158 159q-168 133 -382 133q-126 0 -241.5 -49.5t-199 -132.5t-133 -198.5t-49.5 -241.5q0 -215 132 -384l159 159q-68 101 -68 225q0 109 53.5 201t146 145.5t200.5 53.5z" />
</svg>
