<?xml version="1.0" standalone="no"?>
<!DOCTYPE svg PUBLIC "-//W3C//DTD SVG 1.1//EN" "http://www.w3.org/Graphics/SVG/1.1/DTD/svg11.dtd" >
<svg xmlns="http://www.w3.org/2000/svg" xmlns:xlink="http://www.w3.org/1999/xlink" version="1.1" width="2048" height="2048" viewBox="-10 0 2068 2048">
   <path fill="currentColor"
d="M1174 1430v213q0 18 -12.5 30t-30.5 12h-214q-18 0 -30 -12t-12 -30v-213q0 -19 12 -31.5t30 -12.5h214q18 0 30.5 12.5t12.5 31.5zM1515 768q0 39 -8.5 74.5t-19.5 61.5t-32 51.5t-37.5 41.5t-44.5 35.5t-43.5 28.5t-43.5 25q-32 19 -47.5 29t-33 24t-24.5 27t-7 29v42
q0 18 -12.5 30.5t-30.5 12.5h-214q-18 0 -30 -12.5t-12 -30.5v-90q0 -27 4.5 -51t11 -43t19 -37t22 -30.5t28 -26t29.5 -21.5t33 -19l32 -16t32 -15q71 -33 100.5 -57.5t29.5 -64.5q0 -56 -58.5 -96t-127.5 -40q-73 0 -126 36q-42 29 -107 111q-13 17 -33 17q-16 0 -25 -9
l-144 -109q-13 -10 -15.5 -27t6.5 -31q163 -255 465 -255q82 0 165 31t149 83.5t108 129.5t42 161zM1024.5 170q-115.5 0 -226 31t-204.5 86t-173 134t-134 173t-86 204.5t-31 226t31 226t86 204t134 172.5t173 134t204.5 86t226 31t226 -31t204 -86t172.5 -134t134 -172.5
t86 -204t31 -226t-31 -226t-86 -204.5t-134 -173t-172.5 -134t-204 -86t-226 -31zM2048 1024.5q0 139.5 -36.5 272t-102.5 245t-160.5 207t-207 160.5t-245 102.5t-272 36.5t-272 -36.5t-245 -102.5t-207 -160.5t-160.5 -207t-103 -245t-37 -272t37 -272t103 -245
t160.5 -207t207 -160.5t245 -103t272 -37t272 37t245 103t207 160.5t160.5 207t102.5 245t36.5 272z" />
</svg>
