<?xml version="1.0" standalone="no"?>
<!DOCTYPE svg PUBLIC "-//W3C//DTD SVG 1.1//EN" "http://www.w3.org/Graphics/SVG/1.1/DTD/svg11.dtd" >
<svg xmlns="http://www.w3.org/2000/svg" xmlns:xlink="http://www.w3.org/1999/xlink" version="1.1" width="2048" height="2048" viewBox="-10 0 2058 2048">
   <path fill="currentColor"
d="M636.5 355q-73.5 0 -125.5 -52t-52 -126q0 -73 52.5 -125t125.5 -52t125 52t52 125q0 74 -52 126t-125.5 52zM1267 1089q0 43 -21 65.5t-48.5 22.5t-54 -12t-37.5 -31l-420 -500q-8 -13 -16 -17t-12 -2l-4 3q-8 9 5 24l139 159l2 404q-44 127 -90 258t-70 198l-24 67
l-9 24q-24 70 -37 104.5t-31.5 80t-33 67.5t-27.5 28q-38 17 -62 16t-55 -15q-33 -15 -47.5 -49.5t-11.5 -65.5q3 -19 226 -706l5 -475l-97 187l40 254q4 27 -1 48t-15.5 32t-22 17.5t-19.5 8.5l-8 2q-22 4 -39.5 -3t-27.5 -19t-16.5 -25.5t-8.5 -22t-2 -10.5l-52 -341
l241 -436q26 -39 129 -39q85 0 122 46l485 596q7 5 16 19l3 3l-1 2q8 13 8 33zM806 1260q49 129 101 257t79 192l28 63q3 7 8 21q10 24 15 37t12.5 37t10 39t4 35.5t-3 34t-14 27.5t-25.5 23q-40 25 -75.5 18t-58.5 -25t-33 -40h-1q-8 -24 -9 -29l-142 -401zM1748 1937
q3 5 7.5 12t7.5 11.5t6.5 10.5t6 9.5t4.5 8t3 7.5t1 6t-1 5t-3 3q-10 6 -16.5 0t-17.5 -29.5t-18 -35.5q-131 -197 -484 -756q3 1 8 -1t9 -5l3 -2q12 -10 12 -19z" />
</svg>
