<?xml version="1.0" standalone="no"?>
<!DOCTYPE svg PUBLIC "-//W3C//DTD SVG 1.1//EN" "http://www.w3.org/Graphics/SVG/1.1/DTD/svg11.dtd" >
<svg xmlns="http://www.w3.org/2000/svg" xmlns:xlink="http://www.w3.org/1999/xlink" version="1.1" width="2048" height="2048" viewBox="-11 0 2069 2048">
   <path fill="currentColor"
d="M448 1111h152l-1 -236zM1360 1022q0 -77 -45 -124t-130 -47h-48v345h46q81 0 129 -51t48 -123zM850 688l1 672q0 12 -8.5 20.5t-21.5 8.5h-192q-12 0 -20.5 -8.5t-8.5 -20.5v-56h-259l-49 72q-9 13 -25 13h-237q-19 0 -27 -16t3 -30l494 -673q9 -13 24 -13h296
q13 0 21.5 9t8.5 22zM1585 1022q0 114 -52.5 198.5t-142.5 126.5t-205 42h-240q-13 0 -21.5 -8.5t-8.5 -20.5v-672q0 -13 8.5 -22t21.5 -9h238q116 0 206.5 42t143 125.5t52.5 197.5zM1724 1024q0 9 -0.5 25.5t-7.5 63.5t-19 90.5t-39.5 96.5t-65.5 91h-45q34 -41 59 -93.5
t36.5 -99t18.5 -87.5t8 -65l1 -24q0 -7 -0.5 -20t-7 -53.5t-17.5 -81.5t-36 -98.5t-59 -110.5h38q37 42 64.5 95t40.5 99t20.5 85.5t8.5 63.5zM1887 1024q0 9 -0.5 25.5t-7 63.5t-19 90.5t-40 96.5t-65.5 91h-45q33 -41 58.5 -93.5t37 -99t18.5 -87.5t8 -65l1 -24
q0 -7 -0.5 -20t-7 -53.5t-17.5 -81.5t-36 -98.5t-59 -110.5h39q37 42 64.5 95t40.5 99t20.5 85.5t8.5 63.5zM2048 1024q0 9 -0.5 25.5t-7 63.5t-19 90.5t-40 96.5t-64.5 91h-46q34 -41 59 -93.5t36.5 -99t18.5 -87.5t8 -65l1 -24q0 -7 -1 -20t-7 -53.5t-17 -81.5t-36 -98.5
t-58 -110.5h38q36 42 63.5 95t40.5 99t21 85.5t9 63.5z" />
</svg>
