<?xml version="1.0" standalone="no"?>
<!DOCTYPE svg PUBLIC "-//W3C//DTD SVG 1.1//EN" "http://www.w3.org/Graphics/SVG/1.1/DTD/svg11.dtd" >
<svg xmlns="http://www.w3.org/2000/svg" xmlns:xlink="http://www.w3.org/1999/xlink" version="1.1" width="2048" height="2048" viewBox="-10 0 2058 2048">
   <path fill="currentColor"
d="M924 1929q0 -12 -14.5 -64.5t-36.5 -128t-23 -77.5q-1 -4 -5.5 -30t-10 -41.5t-15.5 -25.5q-17 -16 -58 -16q-28 0 -81.5 6.5t-81.5 6.5q-37 0 -54 -13q-8 -7 -14.5 -21.5t-13 -41l-6.5 -26.5q-44 -153 -44 -294t44 -294q1 -5 5.5 -21t7.5 -27t9 -23.5t12 -17.5
q15 -13 54 -13q28 0 81.5 6.5t81.5 6.5q41 0 58 -17q10 -9 15.5 -24.5t10 -41.5t5.5 -30t23 -78t36.5 -126.5t14.5 -64.5q0 -26 -50 -60.5t-87 -49.5q-22 -9 -52 -9q-34 0 -112 21q-30 9 -56.5 20.5t-47 23t-40.5 29t-33.5 30.5t-29.5 36.5t-25.5 38t-24 43t-22 45
t-23.5 50.5q-5 11 -8 17q-57 123 -78.5 248.5t-21.5 282t21.5 281.5t78.5 248q3 6 8 18q16 34 23.5 50t22 45t24 43.5t25.5 37.5t29.5 36.5t33.5 31t40.5 29t47 23t56.5 20.5q78 21 112 21q27 0 52 -10q37 -15 87 -49t50 -60zM1107 877q-31 0 -52 -21q-22 -22 -22.5 -52.5
t22.5 -52.5q43 -43 43 -103q0 -59 -43 -105q-23 -22 -22.5 -52t22.5 -52t52 -22t52 22q86 87 86 208.5t-86 208.5q-23 21 -52 21zM1316 1086q-33 0 -53 -21q-22 -22 -22 -52t22 -52q62 -63 95.5 -144t33.5 -169.5t-33.5 -169.5t-95.5 -144q-22 -22 -22 -52t22 -51.5
t52 -21.5t52 21q84 84 128.5 191.5t44.5 226t-44.5 226t-128.5 191.5q-20 21 -51 21zM1524 1294q-31 0 -52 -22q-22 -22 -22 -51.5t22 -51.5q104 -104 159.5 -239t55.5 -282.5t-55.5 -282.5t-159.5 -239q-22 -22 -22 -52t22 -52t52 -22t52 22q125 125 192 287t67 338.5
t-67 338t-192 286.5q-21 22 -52 22z" />
</svg>
