<?xml version="1.0" standalone="no"?>
<!DOCTYPE svg PUBLIC "-//W3C//DTD SVG 1.1//EN" "http://www.w3.org/Graphics/SVG/1.1/DTD/svg11.dtd" >
<svg xmlns="http://www.w3.org/2000/svg" xmlns:xlink="http://www.w3.org/1999/xlink" version="1.1" width="2048" height="2048" viewBox="-10 0 2068 2048">
   <path fill="currentColor"
d="M180.5 1355q-62.5 0 -106.5 44.5t-44 107t44 106t106.5 43.5t106.5 -44t44 -106t-44 -106.5t-106.5 -44.5zM663 1355q-62 0 -106.5 44.5t-44.5 106.5t44 106t106.5 44t106.5 -43.5t44 -106t-44 -107t-106 -44.5zM662.5 874q-62.5 0 -106.5 43.5t-44 106t44.5 106.5
t106.5 44t106 -44t44 -106.5t-44 -106t-106.5 -43.5zM1385 1355q-62 0 -106.5 44.5t-44.5 106.5t44.5 106t107 44t106.5 -44t44 -106t-44.5 -106.5t-106.5 -44.5zM1867 1355q-62 0 -106 44.5t-44 107t43.5 106t106 43.5t107 -44t44.5 -106t-44.5 -106.5t-106.5 -44.5z
M1385.5 874q-62.5 0 -107 43.5t-44.5 106t44.5 106.5t106.5 44t106.5 -44t44.5 -106.5t-44 -106t-106.5 -43.5zM1866.5 874q-62.5 0 -106 43.5t-43.5 106t44 106.5t106 44t106.5 -44t44.5 -106.5t-44.5 -106t-107 -43.5zM1867 391q-62 0 -106 44t-44 106.5t44 107t106 44.5
t106.5 -44.5t44.5 -107t-44.5 -106.5t-106.5 -44zM362 1506q0 75 -53.5 127.5t-128 52.5t-127.5 -52.5t-53 -127.5t53 -128t127.5 -53t128 53t53.5 128zM843 1506q0 75 -52.5 127.5t-127.5 52.5t-128 -52.5t-53 -127.5t53 -128t128 -53t127.5 53t52.5 128zM362 1023.5
q0 74.5 -53.5 128t-128 53.5t-127.5 -53.5t-53 -128t53 -127.5t127.5 -53t128 53t53.5 127.5zM843 1023.5q0 74.5 -52.5 128t-127.5 53.5t-128 -53.5t-53 -128t53 -127.5t128 -53t127.5 53t52.5 127.5zM362 542q0 75 -53.5 128t-128 53t-127.5 -53t-53 -128t53 -127.5
t127.5 -52.5t128 52.5t53.5 127.5zM1566 1506q0 75 -53 127.5t-128 52.5t-127.5 -52.5t-52.5 -127.5t52.5 -128t127.5 -53t128 53t53 128zM843 542q0 75 -52.5 128t-127.5 53t-128 -53t-53 -128t53 -127.5t128 -52.5t127.5 52.5t52.5 127.5zM2048 1506q0 75 -53 127.5
t-128 52.5t-128 -52.5t-53 -127.5t53 -128t128 -53t128 53t53 128zM1566 1023.5q0 74.5 -53 128t-128 53.5t-127.5 -53.5t-52.5 -128t52.5 -127.5t127.5 -53t128 53t53 127.5zM2048 1023.5q0 74.5 -53 128t-128 53.5t-128 -53.5t-53 -128t53 -127.5t128 -53t128 53t53 127.5
zM1566 542q0 75 -53 128t-128 53t-127.5 -53t-52.5 -128t52.5 -127.5t127.5 -52.5t128 52.5t53 127.5zM2048 542q0 75 -53 128t-128 53t-128 -53t-53 -128t53 -127.5t128 -52.5t128 52.5t53 127.5z" />
</svg>
