<?xml version="1.0" standalone="no"?>
<!DOCTYPE svg PUBLIC "-//W3C//DTD SVG 1.1//EN" "http://www.w3.org/Graphics/SVG/1.1/DTD/svg11.dtd" >
<svg xmlns="http://www.w3.org/2000/svg" xmlns:xlink="http://www.w3.org/1999/xlink" version="1.1" width="2048" height="2048" viewBox="-11 0 2070 2048">
   <path fill="currentColor"
d="M917 1081q-24 -1 -44 -14t-31 -35q-14 -30 -41.5 -47.5t-60.5 -17.5q-48 0 -81 33.5t-33 80.5q0 49 32 78l8 8q30 28 74 28q33 0 60.5 -17.5t41.5 -47.5q11 -22 31 -35t44 -14zM1423 967q0 -49 -33 -79l-9 -7q-30 -28 -73 -28q-33 0 -60.5 17.5t-41.5 47.5
q-11 23 -31 35.5t-44 13.5q24 0 44 13t31 36q14 30 41.5 47.5t60.5 17.5q48 0 81.5 -33.5t33.5 -80.5zM1044 770q-15 32 -49 43.5t-66 -4.5q-54 -27 -119 -27q-48 0 -88 15q3 0 9 -0.5t9 -0.5q82 0 151.5 44t104.5 119q15 32 3.5 65t-43.5 48q-17 9 -35 9q19 0 35 8
q32 15 43.5 48t-3.5 65q-35 75 -104.5 119t-151.5 44h-6q-14 -2 -39 -3l-258 -24l-213 106q-11 6 -25 6q-35 0 -51 -31l-142 -284q-10 -21 -3.5 -43t25.5 -33l186 -106l132 -237q15 -137 81 -259t174 -210q27 -23 62.5 -19.5t57.5 30.5q23 28 19.5 63t-31.5 57
q-62 53 -104 114q107 -73 237 -90q36 -4 64 17.5t32 56.5q5 36 -16.5 63.5t-57.5 31.5q-74 9 -142 49q44 -9 88 -9q103 0 194 44q32 16 43.5 49.5t-3.5 65.5zM1900 628l142 285q10 20 3.5 42t-25.5 33l-186 106l-131 237q-15 138 -81.5 259.5t-173.5 210.5q-25 20 -55 20
q-40 0 -66 -31q-23 -28 -19.5 -63t31.5 -58q62 -53 104 -113q-107 73 -237 89q-8 2 -11 2q-32 0 -56.5 -21.5t-28.5 -53.5q-5 -36 16.5 -64t57.5 -32q74 -9 141 -49q-43 9 -88 9q-102 0 -193 -44q-32 -16 -44 -49.5t4 -65.5q15 -31 49 -42.5t65 3.5q55 27 119 27
q49 0 88 -14h-8h-9q-82 0 -151.5 -44t-104.5 -118q-16 -32 -3.5 -65.5t44.5 -48.5q17 -8 34 -8q-19 0 -34 -8q-32 -15 -44.5 -48.5t3.5 -65.5q35 -74 104.5 -118t151.5 -44h6h1q12 1 37 3l259 24l212 -107q12 -6 26 -6q34 0 51 31z" />
</svg>
