<?xml version="1.0" standalone="no"?>
<!DOCTYPE svg PUBLIC "-//W3C//DTD SVG 1.1//EN" "http://www.w3.org/Graphics/SVG/1.1/DTD/svg11.dtd" >
<svg xmlns="http://www.w3.org/2000/svg" xmlns:xlink="http://www.w3.org/1999/xlink" version="1.1" width="2048" height="2048" viewBox="-10 0 2067 2048">
   <path fill="currentColor"
d="M1207 950q0 30 21.5 52t51.5 22t51.5 -22t21.5 -52q0 -109 -54 -201.5t-146.5 -146.5t-201.5 -54t-201.5 54t-146.5 146.5t-54 201.5q0 30 21.5 52t51.5 22t51.5 -22t21.5 -52q0 -106 75 -181t181 -75t181 75t75 181zM954 292q-134 0 -255.5 52.5t-210 140.5t-140.5 210
t-52 255q0 30 21.5 52t51.5 22t51.5 -22t21.5 -52q0 -104 40.5 -198.5t109.5 -163t163.5 -109.5t198.5 -41t198.5 41t163.5 109.5t109.5 163t40.5 198.5q0 49 -9.5 89t-31 76.5t-39 59t-51.5 61.5q-31 36 -47.5 56t-43 59.5t-40 73t-24 82.5t-10.5 102q0 121 -85.5 206.5
t-206.5 85.5q-30 0 -51.5 21.5t-21.5 51.5t21.5 52t51.5 22q89 0 170.5 -35t140 -93.5t93.5 -140t35 -170.5q0 -46 8.5 -84t30 -73.5t38.5 -57.5t52 -62q32 -37 48.5 -57t43 -60.5t40 -74.5t24.5 -84.5t11 -105.5q0 -133 -52.5 -255t-140.5 -210t-210 -140.5t-256 -52.5z
M675 1114l259 258l-662 662q-13 14 -32.5 14t-33.5 -14l-192 -192q-13 -13 -13 -32.5t13 -33.5zM1842 13l192 192q13 14 13 34t-13 34l-266 266l-30 29l-81 81q-75 -174 -223 -295l104 -104l237 -237q14 -13 33.5 -13t33.5 13z" />
</svg>
