<?xml version="1.0" standalone="no"?>
<!DOCTYPE svg PUBLIC "-//W3C//DTD SVG 1.1//EN" "http://www.w3.org/Graphics/SVG/1.1/DTD/svg11.dtd" >
<svg xmlns="http://www.w3.org/2000/svg" xmlns:xlink="http://www.w3.org/1999/xlink" version="1.1" width="2048" height="2048" viewBox="-10 0 2068 2048">
   <path fill="currentColor"
d="M1155 516q0 38 -17 126q-14 66 -41.5 199t-41.5 200q-3 14 -6.5 17t-18.5 4q-25 2 -40 2q-41 0 -71 -20t-46 -53.5t-23 -69.5t-7 -74q0 -54 10.5 -111t32 -112t58 -101.5t83.5 -73.5q37 -18 68 -18q37 0 48.5 21.5t11.5 63.5zM1803 1082q0 -19 -52.5 -101t-68.5 -89
q-32 -11 -46 -11q-74 0 -145 27t-156 76l-2 -3q7 -51 25.5 -131.5t31 -150.5t12.5 -135q0 -311 -323 -311q-23 0 -91 8q-94 17 -175.5 77.5t-134.5 144.5t-82.5 181t-29.5 190q0 196 107.5 301t303.5 105h5.5t8.5 -0.5t8.5 0t7 1.5t2.5 3q0 4 -1 7q-5 41 -35 156
q-8 30 -24 63t-38.5 64.5t-53 52t-62.5 20.5q-28 0 -42 -17.5t-14 -45.5q0 -33 13.5 -63.5t33.5 -52.5t40 -38.5t34.5 -26t14.5 -11.5q0 -4 -9 -14q-32 -28 -78.5 -47.5t-87.5 -19.5q-36 0 -67 26t-49.5 65t-29 80t-10.5 74q0 117 68.5 189t184.5 72q67 0 130.5 -27
t113.5 -71t92 -102t70.5 -119.5t45.5 -122.5q7 -29 19.5 -88.5t19.5 -89.5q3 -15 19 -24q157 -79 302 -79q65 0 171 23q2 2 4 2q6 0 12.5 -5.5t6.5 -11.5zM2048 384v1280q0 105 -51.5 193t-139.5 139.5t-193 51.5h-1280q-105 0 -193 -51.5t-139.5 -139.5t-51.5 -193v-1280
q0 -105 51.5 -193t139.5 -139.5t193 -51.5h1280q105 0 193 51.5t139.5 139.5t51.5 193z" />
</svg>
