<?xml version="1.0" standalone="no"?>
<!DOCTYPE svg PUBLIC "-//W3C//DTD SVG 1.1//EN" "http://www.w3.org/Graphics/SVG/1.1/DTD/svg11.dtd" >
<svg xmlns="http://www.w3.org/2000/svg" xmlns:xlink="http://www.w3.org/1999/xlink" version="1.1" width="2048" height="2048" viewBox="-10 0 2058 2048">
   <path fill="currentColor"
d="M997 347q0 -21 -1 -35.5t-5.5 -30.5t-13 -25t-23.5 -15.5t-36 -6.5q-45 0 -89 26q-62 34 -110.5 95.5t-76.5 134.5t-42 148.5t-14 147.5q0 40 5.5 78t19 77t35 68t55.5 47.5t78 18.5q4 0 20.5 0.5t23 -0.5t18 -3.5t17 -9.5t8.5 -18q18 -89 54.5 -265.5t55.5 -264.5
q21 -105 21 -167zM1859 1098q0 8 -8.5 15.5t-17.5 7.5l-7 -1q-26 -4 -71 -13t-82 -14t-72 -5q-190 0 -401 106q-11 5 -15.5 11t-8.5 20q-12 43 -29.5 124t-24.5 111q-21 82 -59 163.5t-93.5 158.5t-122 136t-150.5 94.5t-172 35.5q-155 0 -245.5 -96t-90.5 -251
q0 -44 13.5 -98.5t38.5 -106.5t65.5 -87t88.5 -35q25 0 79.5 16.5t103 43.5t49.5 49q-1 1 -19.5 14t-44.5 35.5t-52.5 51t-44.5 70t-18 84.5q0 37 18.5 60t55.5 23q52 0 97.5 -36t76 -89t54.5 -120.5t36.5 -123t18.5 -102.5v-10q0 -3 -3.5 -4.5t-9.5 -1.5t-11.5 0.5t-11.5 1
t-7 0.5q-259 0 -402 -140.5t-143 -399.5q0 -98 24 -201t73 -199.5t115 -176.5t156.5 -135.5t192.5 -73.5q57 -10 121 -10q427 0 427 411q0 84 -16.5 178t-41 201t-34.5 174l3 4q114 -64 207.5 -100t192.5 -36q26 0 61 15q22 9 91.5 117.5t69.5 133.5z" />
</svg>
