<?xml version="1.0" standalone="no"?>
<!DOCTYPE svg PUBLIC "-//W3C//DTD SVG 1.1//EN" "http://www.w3.org/Graphics/SVG/1.1/DTD/svg11.dtd" >
<svg xmlns="http://www.w3.org/2000/svg" xmlns:xlink="http://www.w3.org/1999/xlink" version="1.1" width="2048" height="2048" viewBox="-10 0 2058 2048">
   <path fill="currentColor"
d="M1023 769q37 0 67 20l254 169q67 45 126 111l166 195q47 53 34 121l-83 472q-7 36 -33.5 61t-63.5 29l-602 64l-402 37h-11q-44 0 -76.5 -32t-32.5 -78q0 -42 31 -73.5t74 -36.5l297 -36h-512q-47 0 -79.5 -34.5t-30.5 -81.5q3 -43 37.5 -73.5t78.5 -30.5l505 -1
l-596 -73q-46 -5 -74.5 -42t-21.5 -84q6 -40 38.5 -65.5t74.5 -25.5h12l550 68l-402 -107q-43 -11 -70 -47t-21 -79q7 -40 38 -66t71 -26q6 0 22 2l512 110l248 42q1 0 3.5 0.5t3.5 0.5q26 0 35 -25.5t-14 -41.5l-213 -143q-39 -26 -47 -72.5t20 -84.5q31 -43 87 -43z
M943 1000l212 142l-249 -42l-6 -2l-41 -44l-272 -299q-1 -1 -2.5 -4t-2.5 -4q-26 -34 -20.5 -79t41.5 -73q35 -26 78 -20.5t73 38.5l162 167q-1 2 -4.5 5t-5.5 4q-37 51 -26 113t63 98zM1956 482l18 303q4 82 -13 168l-55 250q-14 67 -76 99l-122 62q1 -72 -44 -124
l-167 -195q-58 -66 -134 -117l-253 -170q-38 -25 -87 -25q-59 0 -101 41l-268 -355q-28 -38 -20.5 -84.5t46.5 -72.5q37 -25 81 -16t72 46l304 402l-299 -520q-24 -41 -12 -86t54 -67q40 -20 82.5 -6.5t65.5 52.5l276 480l-156 -385q-18 -41 -5.5 -85.5t51.5 -63.5
q42 -22 86.5 -6.5t64.5 58.5l221 474l115 223q9 17 26 20t31 -8t13 -30l-14 -255q-2 -48 30 -82.5t79 -34.5q44 0 76 32.5t34 77.5z" />
</svg>
