<?xml version="1.0" standalone="no"?>
<!DOCTYPE svg PUBLIC "-//W3C//DTD SVG 1.1//EN" "http://www.w3.org/Graphics/SVG/1.1/DTD/svg11.dtd" >
<svg xmlns="http://www.w3.org/2000/svg" xmlns:xlink="http://www.w3.org/1999/xlink" version="1.1" width="2048" height="2048" viewBox="-10 0 2068 2048">
   <path fill="currentColor"
d="M383 1476q-3 0 -7 -2q-98 -65 -192 -165t-160 -205q-24 -35 -24 -80q0 -12 2 -23.5t7.5 -24.5t9 -21.5t13 -22.5t13 -19.5t15.5 -21.5t14 -19q102 -138 233 -245t284 -171q-2 -5 -19 -35t-33 -59t-34 -62.5t-29 -57t-11 -28.5q0 -21 20 -34q129 -72 146 -72q21 0 32 18
l142 262q106 -22 219 -22q153 0 300 42t274 118.5t236 183t191 236.5q23 35 23 78.5t-23 79.5q-103 162 -249 289t-319 201q3 4 19.5 33.5t32.5 59t34 62.5t29 56.5t11 28.5q0 23 -20 34q-129 72 -145 72q-22 0 -33 -18l-142 -262l-73 -136l-507 -936l8 -8q-64 26 -113 54
q2 3 63 115t141 259.5t161.5 298t137.5 255t56 106.5q0 10 -11 12t-24 3t-34 0t-24 -1q-65 0 -69 -8l-521 -960q-33 23 -93 78q35 62 248 455.5t213 398.5q0 12 -12 12q-15 0 -94 -25t-83 -33l-122 -224l-256 -472q-52 63 -89 120q4 6 21.5 30t25.5 38q2 4 56 102.5
t99.5 183t45.5 88.5t-3 7t-8 3zM1331 1360l56 104q157 -63 288 -177t227 -263q-98 -150 -232 -265.5t-293 -178.5q76 72 117.5 169t41.5 203q0 120 -54 228.5t-151 179.5zM969 658.5q0 22.5 16.5 39t38.5 16.5q98 0 168 70t70 168q0 22 16 38t39 16t38.5 -16t15.5 -38
q0 -95 -46.5 -175t-126.5 -126.5t-174 -46.5q-22 0 -38.5 16t-16.5 38.5zM1387 584l-10 -4l8 8z" />
</svg>
