<?xml version="1.0" standalone="no"?>
<!DOCTYPE svg PUBLIC "-//W3C//DTD SVG 1.1//EN" "http://www.w3.org/Graphics/SVG/1.1/DTD/svg11.dtd" >
<svg xmlns="http://www.w3.org/2000/svg" xmlns:xlink="http://www.w3.org/1999/xlink" version="1.1" width="2048" height="2048" viewBox="-10 0 2058 2048">
   <path fill="currentColor"
d="M1589 1313q0 295 -202 514q-202 221 -520 221q-319 0 -519 -221q-202 -219 -202 -514q0 -151 55 -287.5t150 -237t229.5 -159.5t286.5 -59q131 0 250 43q-43 86 -54 173q-89 -38 -196 -38q-114 0 -215.5 46.5t-172.5 124.5t-112 182t-41 216q0 114 41 217t111.5 178
t172 119.5t216.5 44.5t216.5 -44.5t172 -119.5t111 -178t40.5 -217q0 -123 -43 -229q88 -17 168 -67q57 136 57 292zM1308 1053q0 265 -109 474.5t-328 347.5l-20 1q-28 0 -84 -7q83 -32 151 -91.5t116 -133t84.5 -165.5t58.5 -183t35.5 -192.5t18.5 -186t5 -170.5
q0 -95 -3 -142q75 222 75 448zM1233 602v3q-100 -295 -283 -605q62 42 114.5 114t86.5 156t55 169t27 163zM1568 881q-114 0 -220 -103q299 -164 398 -339q26 -52 29 -77q-58 130 -191 228.5t-282 133.5q-48 -75 -48 -155q0 -51 23.5 -109t59.5 -93q38 -37 91 -59.5
t125 -41.5q80 -22 145 -81t102 -138q102 147 102 347q0 54 -8.5 123.5t-24.5 110.5q-20 49 -48.5 92t-65.5 80.5t-85.5 59t-101.5 21.5z" />
</svg>
