<?xml version="1.0" standalone="no"?>
<!DOCTYPE svg PUBLIC "-//W3C//DTD SVG 1.1//EN" "http://www.w3.org/Graphics/SVG/1.1/DTD/svg11.dtd" >
<svg xmlns="http://www.w3.org/2000/svg" xmlns:xlink="http://www.w3.org/1999/xlink" version="1.1" width="2048" height="2048" viewBox="-10 0 2068 2048">
   <path fill="currentColor"
d="M1400 1217q0 -104 -37 -196q-56 34 -113 46q29 66 29 151q0 102 -46.5 187.5t-129.5 136t-185 50.5t-185 -50.5t-129 -136t-46 -187.5q0 -100 46 -186.5t129.5 -139t184.5 -52.5q71 0 131 26q5 -56 36 -117q-80 -28 -167 -28q-101 0 -191 39.5t-153 106t-99.5 158
t-36.5 192.5t36.5 191.5t100 156t153 104t190.5 38.5t191 -38.5t153.5 -104t100.5 -156t37 -191.5zM1163 745q3 31 3 94q0 68 -5 135t-17.5 145.5t-36 149t-56.5 134.5t-84 112.5t-115 72.5q28 4 56 4h14q146 -93 219 -232.5t73 -315.5q0 -158 -51 -299zM1163 745
q-3 -68 -26.5 -146t-67.5 -150.5t-96 -107.5q125 213 190 404zM1609 604q0 -136 -67 -232q-25 52 -68.5 91t-97.5 54q-44 12 -76.5 27t-61.5 38.5t-45 58.5t-16 80q0 53 33 103q99 -23 187 -89t127 -154q-3 37 -36 81t-81.5 83t-89.5 67t-77 48q69 69 148 69
q67 0 118.5 -49.5t80.5 -119.5q22 -54 22 -156zM2048 384v1280q0 105 -51.5 193t-139.5 139.5t-193 51.5h-1280q-105 0 -193 -51.5t-139.5 -139.5t-51.5 -193v-1280q0 -105 51.5 -193t139.5 -139.5t193 -51.5h1280q105 0 193 51.5t139.5 139.5t51.5 193z" />
</svg>
