<?xml version="1.0" standalone="no"?>
<!DOCTYPE svg PUBLIC "-//W3C//DTD SVG 1.1//EN" "http://www.w3.org/Graphics/SVG/1.1/DTD/svg11.dtd" >
<svg xmlns="http://www.w3.org/2000/svg" xmlns:xlink="http://www.w3.org/1999/xlink" version="1.1" width="2048" height="2048" viewBox="-10 0 2068 2048">
   <path fill="currentColor"
d="M1706 1361q0 -31 -29 -37q-90 -19 -158.5 -78t-106.5 -144q-9 -28 -9 -34q0 -16 17 -28t41.5 -20.5t49 -18t42 -26.5t17.5 -40q0 -26 -25 -42.5t-51 -16.5q-16 0 -43 10.5t-41 10.5q-5 0 -17 -2q7 -150 7 -153q0 -106 -22 -152q-48 -104 -137.5 -161.5t-203.5 -57.5
q-130 0 -221.5 52t-144.5 167q-23 49 -23 152q0 3 7 153q-6 2 -19 2q-15 0 -42 -9.5t-41 -9.5q-28 0 -51.5 16t-23.5 42q0 23 17.5 39.5t42 26t49 18t41.5 20.5t17 28q0 6 -9 34q-41 86 -107.5 144.5t-156.5 77.5q-29 6 -29 37q0 59 176 89q4 0 6 1q3 7 7 26t7 30.5
t13.5 21.5t27.5 10t50.5 -6.5t52.5 -6.5q38 0 72.5 13.5t62 32t55.5 37t67 32t83 13.5q47 0 86.5 -13.5t67.5 -32t55 -37t61 -32t72 -13.5q19 0 53 6t51 6q16 0 26.5 -10t13.5 -22t7 -30t7 -25q2 -1 6 -2q177 -29 177 -88zM2048 1024.5q0 139.5 -36.5 272t-102.5 245
t-160.5 207t-207 160.5t-245 102.5t-272 36.5t-272 -36.5t-245 -102.5t-207 -160.5t-160.5 -207t-103 -245t-37 -272t37 -272t103 -245t160.5 -207t207 -160.5t245 -103t272 -37t272 37t245 103t207 160.5t160.5 207t102.5 245t36.5 272z" />
</svg>
