<?xml version="1.0" standalone="no"?>
<!DOCTYPE svg PUBLIC "-//W3C//DTD SVG 1.1//EN" "http://www.w3.org/Graphics/SVG/1.1/DTD/svg11.dtd" >
<svg xmlns="http://www.w3.org/2000/svg" xmlns:xlink="http://www.w3.org/1999/xlink" version="1.1" width="2048" height="2048" viewBox="-10 0 2068 2048">
   <path fill="currentColor"
d="M1044 62q168 -2 301.5 85.5t204.5 241.5q34 73 34 224q0 63 -12 239q16 9 35 9q23 0 64.5 -17t64.5 -17q36 0 70 22.5t34 57.5q0 33 -26 56.5t-63 37.5t-74.5 26.5t-63 33t-25.5 49.5q0 20 15 55q47 102 129 187.5t180 125.5q35 16 101 30q35 8 35 44q0 20 -15.5 38
t-43.5 31.5t-56 23.5t-64 17.5t-55 11t-41 6.5q-8 12 -13 36.5t-8 44t-15.5 35t-36.5 15.5q-25 0 -77.5 -8.5t-79.5 -8.5q-48 0 -78 7q-40 7 -79 28.5t-72.5 47.5t-72 51t-95 41.5t-124.5 16.5q-66 0 -121 -16.5t-94 -41.5t-72.5 -51t-72.5 -47.5t-78 -28.5q-31 -7 -79 -7
q-29 0 -81.5 10t-73.5 10q-24 0 -37.5 -15.5t-17 -35.5t-8.5 -45t-13 -38q-22 -3 -41 -6.5t-55 -11t-63.5 -17.5t-55.5 -23.5t-43.5 -31.5t-15.5 -38q0 -36 35 -44q66 -14 101 -30q98 -40 180.5 -125.5t128.5 -187.5q15 -35 15 -55q0 -29 -26 -49.5t-63 -34t-74.5 -27
t-63.5 -36.5t-26 -55q0 -34 32.5 -57t68.5 -23q18 0 59.5 16.5t67.5 16.5q24 0 40 -9q-11 -157 -11 -237q0 -153 34 -226q80 -172 215.5 -248.5t330.5 -78.5z" />
</svg>
