<?xml version="1.0" standalone="no"?>
<!DOCTYPE svg PUBLIC "-//W3C//DTD SVG 1.1//EN" "http://www.w3.org/Graphics/SVG/1.1/DTD/svg11.dtd" >
<svg xmlns="http://www.w3.org/2000/svg" xmlns:xlink="http://www.w3.org/1999/xlink" version="1.1" width="2048" height="2048" viewBox="-10 0 2068 2048">
   <path fill="currentColor"
d="M1707 1361q0 -31 -29 -37q-89 -18 -157.5 -77t-107.5 -145q-9 -17 -9 -34q0 -16 17 -28t41.5 -20.5t48.5 -18t41.5 -26.5t17.5 -40q0 -26 -25 -42.5t-51 -16.5q-15 0 -42 10.5t-42 10.5q-5 0 -17 -2q7 -100 7 -154q0 -103 -22 -152q-48 -104 -137 -162t-204 -58
q-263 0 -366 220q-25 54 -25 153q0 36 9 153q-14 2 -20 2q-15 0 -42 -10.5t-41 -10.5q-28 0 -51 17t-23 43q0 23 17.5 39.5t41.5 26t48.5 18t41.5 20.5t17 28q0 17 -9 34q-41 86 -108 144.5t-156 77.5q-29 6 -29 37q0 61 183 91q3 8 7 26.5t7 30t13.5 21.5t26.5 10
q17 0 51 -7t52 -7q38 0 73 13.5t62 32t55.5 37t67.5 32t83 13.5q47 0 86.5 -13.5t67.5 -32t55 -37t61 -32t73 -13.5q18 0 53 6.5t53 6.5q15 0 25 -10t13 -21.5t6.5 -30t6.5 -25.5q184 -30 184 -91zM2048 384v1280q0 105 -51.5 193t-139.5 139.5t-193 51.5h-1280
q-105 0 -193 -51.5t-139.5 -139.5t-51.5 -193v-1280q0 -105 51.5 -193t139.5 -139.5t193 -51.5h1280q105 0 193 51.5t139.5 139.5t51.5 193z" />
</svg>
