<?xml version="1.0" standalone="no"?>
<!DOCTYPE svg PUBLIC "-//W3C//DTD SVG 1.1//EN" "http://www.w3.org/Graphics/SVG/1.1/DTD/svg11.dtd" >
<svg xmlns="http://www.w3.org/2000/svg" xmlns:xlink="http://www.w3.org/1999/xlink" version="1.1" width="2048" height="2048" viewBox="-10 0 2068 2048">
   <path fill="currentColor"
d="M2048 285q-73 48 -128.5 95t-86.5 86.5t-48 66t-30 54.5t-15 31q-9 16 -31.5 121.5t-43.5 146.5q-13 26 -44.5 53.5t-60 45t-64 37t-42.5 24.5q-42 28 -135 205q-303 -11 -560 141q-82 47 -269 159q42 -14 76.5 -27t48.5 -20l13 -6q65 -24 145.5 -57.5t118.5 -48
t96.5 -31t126.5 -27.5q167 -28 413 6q2 0 3.5 0.5t3 1.5t2.5 1q9 6 12 15.5t-2 18.5l-173 308q-6 11 -17.5 16.5t-24.5 2.5q-119 -22 -314 -22q-106 0 -230 19.5t-249 40t-227 21.5q-73 1 -132.5 -11.5t-95.5 -33t-54 -35.5t-29 -29q0 -1 -0.5 -2l-0.5 -1q0 -6 5 -6
q14 0 40 -1.5t112 -13.5t178 -34q88 -166 172.5 -283.5t168 -188t164.5 -102.5t169 -32q5 0 13 0.5t33 4.5t49 10.5t55 21.5t56 35t48.5 53t35.5 73l90 -157l27 -53.5t56.5 -107.5t83.5 -137.5t110 -153.5q48 -59 96 -106.5t82.5 -75t78 -52.5t65 -34.5t60.5 -25.5z" />
</svg>
