<?xml version="1.0" standalone="no"?>
<!DOCTYPE svg PUBLIC "-//W3C//DTD SVG 1.1//EN" "http://www.w3.org/Graphics/SVG/1.1/DTD/svg11.dtd" >
<svg xmlns="http://www.w3.org/2000/svg" xmlns:xlink="http://www.w3.org/1999/xlink" version="1.1" width="2048" height="2048" viewBox="-10 0 2058 2048">
   <path fill="currentColor"
d="M1658 1024q0 51 -6 86l-270 -16l256 90q-23 88 -66 161l-244 -118l202 181q-51 70 -122 123l-180 -203l118 245q-70 43 -160 68l-90 -261l16 274q-41 7 -87.5 7t-86.5 -7l16 -272l-90 259q-85 -23 -160 -68l118 -245l-180 203q-68 -49 -122 -123l202 -181l-244 119
q-44 -75 -66 -161l256 -91l-272 16q-4 -48 -4 -86q0 -40 4 -88l272 16l-256 -91q22 -87 66 -160l244 119l-202 -182q52 -70 122 -123l182 203l-118 -245q75 -45 160 -67l88 256l-16 -269q38 -7 86 -7q47 0 88 7l-16 271l88 -258q86 23 160 68l-118 244l182 -203
q70 53 122 123l-202 182l242 -119q42 68 66 161l-256 90l272 -16q6 35 6 88zM1692 1024q0 -137 -53 -261.5t-142.5 -214.5t-213 -143t-259.5 -53q-135 0 -259 53t-213.5 143t-142.5 214.5t-53 261.5q0 136 53 260t142.5 214t213.5 143t259 53q136 0 259.5 -53t213 -143
t142.5 -214t53 -260zM1776 586v875l-752 438l-750 -438v-875l750 -438zM1024 1964l810 -471v-940l-810 -470l-808 470v940zM1902 512v1024l-878 512l-878 -512v-1024l878 -512z" />
</svg>
