<?xml version="1.0" standalone="no"?>
<!DOCTYPE svg PUBLIC "-//W3C//DTD SVG 1.1//EN" "http://www.w3.org/Graphics/SVG/1.1/DTD/svg11.dtd" >
<svg xmlns="http://www.w3.org/2000/svg" xmlns:xlink="http://www.w3.org/1999/xlink" version="1.1" width="2048" height="2048" viewBox="-10 0 2068 2048">
   <path fill="currentColor"
d="M974 353q0 33 -19.5 60t-51.5 27t-51.5 -26.5t-19.5 -60.5q0 -33 19.5 -60t51.5 -27t51.5 27t19.5 60zM786 1925v-130q0 -34 -23.5 -58.5t-57.5 -24.5t-57 24.5t-23 58.5v130q0 34 23 59.5t57 25.5t57.5 -25t23.5 -60zM983 1925v-130q0 -34 -23 -58.5t-57 -24.5
t-57.5 24.5t-23.5 58.5v130q0 34 23.5 59.5t57.5 25.5t57 -25.5t23 -59.5zM1182 1925v-130q0 -34 -23.5 -58.5t-57.5 -24.5t-58 24.5t-24 58.5v130q0 34 24 59.5t58 25.5t57.5 -25t23.5 -60zM1381 1925v-130q0 -34 -24 -58.5t-58 -24.5t-57.5 24.5t-23.5 58.5v130
q0 34 23.5 59.5t57.5 25.5t58 -25.5t24 -59.5zM1687 1144q-95 183 -264.5 296.5t-369.5 113.5q-141 0 -263 -58.5t-204 -156.5t-129 -225.5t-47 -265.5q0 -102 24 -199q-119 201 -119 445q0 185 74.5 356.5t211.5 287.5q35 -65 104 -65q63 0 98 57q37 -57 100 -57t98 57
q37 -57 100 -57q62 0 99 57q35 -57 98 -57q32 0 60.5 17.5t42.5 46.5q129 -107 203.5 -264t82.5 -329zM1515 1110q0 -85 -82 -85q-14 0 -54 7q-109 21 -170 21q-258 0 -258 -277q0 -96 34 -234q-95 145 -95 315q0 110 43 205.5t129.5 157t198.5 61.5q126 0 240 -80
q14 -52 14 -91zM1010 357q0 -57 -36 -102t-93 -45t-93 45t-36 102q0 58 36 103.5t93 45.5t93 -45.5t36 -103.5zM1729 745q0 -109 -43 -204.5t-129 -157t-198 -61.5q-88 0 -170.5 39.5t-145.5 107.5q-54 177 -54 307q0 118 52 179t168 61q54 0 162 -22q49 -7 61 -7
q59 0 89 32t30 91q0 25 -5 53q86 -78 134.5 -189.5t48.5 -228.5zM2048 993q0 127 -38.5 285.5t-106.5 233.5q-66 72 -223 162.5t-261 119.5l-4 1v130q0 50 -34 86.5t-83 36.5q-62 0 -98 -58q-38 58 -99 58q-62 0 -100 -58q-36 58 -98 58t-100 -58q-36 58 -98 58
q-54 0 -86 -39t-32 -93q-103 78 -226 78q-135 0 -241 -92q64 -2 121 -22q-129 -36 -208 -146q35 8 81 8q102 0 188 -52q-220 -220 -275 -350q-27 -63 -27 -183q0 -65 10 -143t36 -167.5t63.5 -161.5t99 -120t136.5 -48q68 0 93 60q24 -35 48 -62q2 -2 13 -14.5t15 -18.5
q11 -17 26.5 -43.5t29 -48t31.5 -44.5q99 -127 241.5 -202.5t298.5 -75.5q32 0 70 5q67 -73 167 -73q95 0 160 65q6 6 6 13q0 4 -4 11t-11 15.5t-13.5 15.5t-14 14.5t-8.5 9.5q20 7 41 20.5t21 27.5q0 7 -18 28q180 158 225 432q28 -34 69 -34q50 0 114 56q103 92 103 319z
" />
</svg>
