<?xml version="1.0" standalone="no"?>
<!DOCTYPE svg PUBLIC "-//W3C//DTD SVG 1.1//EN" "http://www.w3.org/Graphics/SVG/1.1/DTD/svg11.dtd" >
<svg xmlns="http://www.w3.org/2000/svg" xmlns:xlink="http://www.w3.org/1999/xlink" version="1.1" width="2048" height="2048" viewBox="-10 0 2068 2048">
   <path fill="currentColor"
d="M1223 1036q0 -46 -8 -85h-483v176h289q-10 68 -54 119t-105.5 76t-129.5 25q-87 0 -160.5 -43.5t-116 -118t-42.5 -161t42.5 -161t116 -118.5t160.5 -44q124 0 204 79l139 -135q-144 -133 -343 -133q-105 0 -199.5 41t-163 109.5t-108.5 163t-40 199t40 199t108.5 163
t163 109t199.5 40.5q145 0 257 -64t173 -177.5t61 -258.5zM1683 1097h146v-146h-146v-147h-146v147h-147v146h147v147h146v-147zM2048 1024.5q0 139.5 -36.5 272t-102.5 245t-160.5 207t-207 160.5t-245 102.5t-272 36.5t-272 -36.5t-245 -102.5t-207 -160.5t-160.5 -207
t-103 -245t-37 -272t37 -272t103 -245t160.5 -207t207 -160.5t245 -103t272 -37t272 37t245 103t207 160.5t160.5 207t102.5 245t36.5 272z" />
</svg>
