<?xml version="1.0" standalone="no"?>
<!DOCTYPE svg PUBLIC "-//W3C//DTD SVG 1.1//EN" "http://www.w3.org/Graphics/SVG/1.1/DTD/svg11.dtd" >
<svg xmlns="http://www.w3.org/2000/svg" xmlns:xlink="http://www.w3.org/1999/xlink" version="1.1" width="2048" height="2048" viewBox="-10 0 2058 2048">
   <path fill="currentColor"
d="M1880 585v959q0 26 -15 44.5t-41 25.5q-197 60 -386 60q-83 0 -245.5 -34t-260.5 -34q-187 0 -422 55v387h-184v-1564q-71 -28 -114.5 -92.5t-43.5 -141.5q0 -103 73.5 -176.5t177 -73.5t176.5 73t73 177q0 77 -43.5 141.5t-114.5 92.5v78q213 -50 392 -50q110 0 226 17
q13 2 126 25.5t172 23.5q88 0 188 -21q13 -2 92 -23.5t102 -21.5q30 0 51 21.5t21 51.5z" />
</svg>
