<?xml version="1.0" standalone="no"?>
<!DOCTYPE svg PUBLIC "-//W3C//DTD SVG 1.1//EN" "http://www.w3.org/Graphics/SVG/1.1/DTD/svg11.dtd" >
<svg xmlns="http://www.w3.org/2000/svg" xmlns:xlink="http://www.w3.org/1999/xlink" version="1.1" width="2048" height="2048" viewBox="-10 0 2068 2048">
   <path fill="currentColor"
d="M170.5 1174q26.5 0 41.5 -18t15 -39t-15 -39t-41.5 -18t-41.5 18t-15 39t15 39t41.5 18zM1480 1122q-5 -7 -33.5 -44t-37.5 -49t-33 -42.5t-38.5 -47.5t-35.5 -41t-40 -44l-112 124q-48 55 -116.5 74t-136.5 -2t-115 -77q-50 -61 -50 -140t52 -140l157 -184
q-19 -10 -44.5 -14.5t-42.5 -5t-50 0.5t-44 1q-81 0 -140 59l-141 140h-138v484q5 0 19 -0.5t19.5 0t17 1.5t18.5 3.5t16 7.5t16 13l264 259q103 99 202 99q69 0 111 -42q51 18 100 -6.5t65 -75.5q64 6 112 -40q18 -17 32 -40.5t13 -44.5q8 9 38 9q38 0 68 -19t44 -47
t11 -63t-27 -66zM1622 1174h85v-455h-83l-139 -161q-28 -31 -68 -49t-83 -18h-148q-37 0 -71.5 16t-58.5 44l-186 216q-24 29 -24 66.5t24 66.5q37 45 97 46t99 -43l172 -194q14 -17 34.5 -19t36 7t24 27.5t1.5 39.5q15 17 50.5 56.5t52.5 59.5q26 33 73.5 94.5t57.5 74.5
q46 61 54 125zM1877.5 1174q26.5 0 41.5 -18t15 -39t-15 -39t-41.5 -18t-41.5 18t-15 39t15 39t41.5 18zM2048 662v568q0 24 -16.5 40.5t-40.5 16.5h-386q-23 58 -72.5 95t-111.5 46q-29 43 -71.5 73t-90.5 40q-38 47 -93 72.5t-114 21.5q-53 30 -112 35t-114 -12
t-104 -47.5t-92 -71.5l-255 -252h-318q-24 0 -40.5 -16.5t-16.5 -40.5v-597q0 -23 16.5 -40t40.5 -17h374q13 -13 37 -37.5t36.5 -37t34.5 -33t37.5 -31t38.5 -24t43.5 -20t47 -11.5t54.5 -5h104q87 0 161 50q74 -50 161 -50h148q31 0 59.5 5.5t50.5 13t46 23.5t39.5 27.5
t38.5 35.5t34.5 37.5t36.5 43t36 42.5h316q24 0 40.5 17t16.5 40z" />
</svg>
