<?xml version="1.0" standalone="no"?>
<!DOCTYPE svg PUBLIC "-//W3C//DTD SVG 1.1//EN" "http://www.w3.org/Graphics/SVG/1.1/DTD/svg11.dtd" >
<svg xmlns="http://www.w3.org/2000/svg" xmlns:xlink="http://www.w3.org/1999/xlink" version="1.1" width="2048" height="2048" viewBox="-10 0 2068 2048">
   <path fill="currentColor"
d="M2048 747v1118q0 76 -53.5 129.5t-129.5 53.5h-1682q-76 0 -129.5 -53.5t-53.5 -129.5v-1118q0 -16 13 -27q10 -9 51.5 -46t56.5 -49t70 -56.5t116 -90t169.5 -126t253.5 -186.5q11 -8 47.5 -36.5t61 -46t60 -39.5t67 -33t58.5 -11q33 0 78.5 21t74.5 40.5t81 59t60 45.5
q145 106 253.5 186.5t169.5 126t116 90t70 56.5t56.5 49t51.5 46q13 11 13 27zM1403 1416q343 -249 395 -288q12 -8 14.5 -23.5t-7.5 -27.5l-44 -59q-10 -12 -24.5 -14.5t-26.5 7.5q-289 212 -392 286q-7 5 -60 45t-81 59t-74 40t-79 21t-79 -21t-74 -40t-81 -59t-60 -45
q-170 -123 -392 -286q-12 -10 -26.5 -7.5t-24.5 14.5l-44 59q-10 12 -7.5 27.5t14.5 23.5q52 39 395 288q12 9 57 43.5t74 53.5t73.5 45t88 38.5t86.5 12.5t87 -12.5t89.5 -39t73.5 -45t74 -54.5t55 -42z" />
</svg>
