<?xml version="1.0" standalone="no"?>
<!DOCTYPE svg PUBLIC "-//W3C//DTD SVG 1.1//EN" "http://www.w3.org/Graphics/SVG/1.1/DTD/svg11.dtd" >
<svg xmlns="http://www.w3.org/2000/svg" xmlns:xlink="http://www.w3.org/1999/xlink" version="1.1" width="2048" height="2048" viewBox="-10 0 2068 2048">
   <path fill="currentColor"
d="M1685 1043l44 58q9 12 7.5 26.5t-13.5 24.5q-49 38 -144.5 112t-167.5 129.5t-76 58.5q-45 37 -68.5 54.5t-69 47t-88 42.5t-84.5 13h-1h-1q-42 0 -84.5 -13.5t-87.5 -42t-69.5 -47t-68.5 -54.5q-215 -165 -378 -292q-12 -10 -14.5 -24.5t7.5 -26.5l42 -59
q10 -13 25.5 -15t27.5 8q35 27 83.5 64.5t127.5 98.5t139 107q6 5 49.5 39.5t69 53t64.5 37.5t67 19h1h1q28 0 67 -19t64.5 -37.5t69 -53t49.5 -39.5q280 -215 358 -277q12 -10 27 -7.5t25 14.5zM1902 1865v-1061q-60 -56 -73.5 -68.5t-82.5 -69t-168 -133.5t-303 -235
q-8 -6 -39 -32t-52 -42t-51.5 -36.5t-57.5 -31t-50 -10.5h-1h-1q-23 0 -50 10.5t-57.5 31t-51.5 36.5t-52 42t-39 32q-204 158 -303 235t-168 133.5t-82.5 69t-73.5 68.5v1061q0 14 11.5 25t25.5 11h1682q14 0 25.5 -11t11.5 -25zM2048 804v1061q0 76 -53.5 129.5
t-129.5 53.5h-1682q-76 0 -129.5 -53.5t-53.5 -129.5v-1061q0 -65 47 -107q103 -96 230 -198t254.5 -199.5t181.5 -142.5q41 -34 67.5 -54t70.5 -48t87 -41.5t85 -13.5h1h1q42 0 85 13.5t87 41.5t70.5 48t67.5 54q50 41 178.5 139.5t257.5 202.5t230 198q47 42 47 107z" />
</svg>
