<?xml version="1.0" standalone="no"?>
<!DOCTYPE svg PUBLIC "-//W3C//DTD SVG 1.1//EN" "http://www.w3.org/Graphics/SVG/1.1/DTD/svg11.dtd" >
<svg xmlns="http://www.w3.org/2000/svg" xmlns:xlink="http://www.w3.org/1999/xlink" version="1.1" width="2048" height="2048" viewBox="-10 0 2058 2048">
   <path fill="currentColor"
d="M524 1754l231 244l-39 -269l-247 -244zM782 2012l314 -249l-13 -280l-343 246zM427 1283l259 243l-54 -373l-280 -233zM713 1539l362 -245l-16 -370l-402 229zM1110 1552l109 91l-2 -273l-118 -90v7.5v9.5t-1 8.5t-4 6.5l-89 59l97 80q3 3 5 12.5t2.5 23.5t0.5 25v25.5
v14.5zM305 692l292 229l-77 -532l-319 -197zM1488 1450l17 -268l-263 188l2 274zM624 930l426 -222l-22 -504l-483 186zM1598 1347l23 -266l-258 -163l-2 120l164 109q6 5 5 10l-8 136zM1817 1188l34 -254l-205 147l-22 260zM1602 1379l-81 -56l-9 134q0 6 -5 9l-267 214
q-8 5 -16 0l-112 -95l8 184q0 6 -5 9l-335 267q-6 3 -7 3q-8 -2 -9 -4l-260 -276q-3 -3 -68 -317q-2 -8 6 -13l70 -42q-3 -2 -16.5 -14.5t-28 -25.5t-29.5 -27t-25 -24.5t-10 -13.5l-82 -401q-2 -10 7 -14l107 -51q-4 -3 -23 -17t-39 -29t-41.5 -32t-36 -29.5t-14.5 -16.5
l-110 -532q-2 -12 8 -15l495 -154q6 0 9 1l362 175q7 5 7 10l23 529q0 8 -7 11l-135 70l144 97q6 2 6 9l6 141l138 -85q2 -2 6 -2t7 2l96 64l3 -125q0 -7 6 -11l235 -144q8 -3 13 0l280 155q3 3 5 8q0 4 -8.5 70t-19 139.5t-10.5 81.5q0 6 -5 8l-218 175q-8 5 -15 0z" />
</svg>
