<?xml version="1.0" standalone="no"?>
<!DOCTYPE svg PUBLIC "-//W3C//DTD SVG 1.1//EN" "http://www.w3.org/Graphics/SVG/1.1/DTD/svg11.dtd" >
<svg xmlns="http://www.w3.org/2000/svg" xmlns:xlink="http://www.w3.org/1999/xlink" version="1.1" width="2048" height="2048" viewBox="-10 0 2058 2048">
   <path fill="currentColor"
d="M1446 1414q0 -65 -6.5 -122.5t-24 -114.5t-45.5 -98t-73 -66.5t-104 -25.5q-5 3 -38.5 23.5t-49 28.5t-45 22t-56 19.5t-53.5 5.5t-53.5 -5.5t-56.5 -20t-45 -21.5t-49.5 -28.5t-38.5 -23.5q-73 0 -124.5 37t-78 102t-38 135t-11.5 153q0 84 48.5 139.5t117.5 55.5h658
q69 0 117.5 -55.5t48.5 -139.5zM1248 736q0 -124 -87 -211t-210 -87t-210 87t-87 211q0 122 87.5 209t209.5 87t209.5 -87t87.5 -209zM1975 1353v219q0 16 -10.5 26.5t-26.5 10.5h-110v256q0 76 -53 129.5t-129 53.5h-1390q-76 0 -129.5 -53.5t-53.5 -129.5v-1683
q0 -76 53.5 -129t129.5 -53h1390q76 0 129 53t53 129v256h110q16 0 26.5 10.5t10.5 26.5v219q0 16 -10.5 26.5t-26.5 10.5h-110v146h110q16 0 26.5 10.5t10.5 26.5v219q0 16 -10.5 26.5t-26.5 10.5h-110v146h110q16 0 26.5 10.5t10.5 26.5z" />
</svg>
