<?xml version="1.0" standalone="no"?>
<!DOCTYPE svg PUBLIC "-//W3C//DTD SVG 1.1//EN" "http://www.w3.org/Graphics/SVG/1.1/DTD/svg11.dtd" >
<svg xmlns="http://www.w3.org/2000/svg" xmlns:xlink="http://www.w3.org/1999/xlink" version="1.1" width="2048" height="2048" viewBox="-10 0 2058 2048">
   <path fill="currentColor"
d="M1248 736q0 122 -87.5 209t-209.5 87t-209.5 -87t-87.5 -209q0 -124 87 -211t210 -87t210 87t87 211zM1193 987q52 0 94 19.5t68.5 54.5t45.5 76t28 92t13 94.5t4 90.5q0 77 -45.5 136t-120.5 59h-658q-75 0 -120.5 -59t-45.5 -136q0 -55 5 -106.5t21 -112.5t42 -105
t72 -73.5t107 -29.5h5q5 3 31.5 19t34.5 20.5t31.5 17.5t36.5 17.5t33.5 12t38.5 10t37 2.5t37 -2.5t38 -9.5t33.5 -12t36 -17.5t32 -18t34 -20.5t31.5 -19zM1975 694q0 14 -11.5 25.5t-25.5 11.5h-110v146h110q14 0 25.5 11.5t11.5 25.5v219q0 14 -11.5 25.5t-25.5 11.5
h-110v146h110q14 0 25.5 11.5t11.5 25.5v219q0 14 -11.5 25.5t-25.5 11.5h-110v256q0 76 -53 129.5t-129 53.5h-1390q-76 0 -129.5 -53.5t-53.5 -129.5v-1683q0 -76 53.5 -129t129.5 -53h1390q76 0 129 53t53 129v256h110q14 0 25.5 11.5t11.5 25.5v219zM1682 1865v-1683
q0 -14 -11 -25t-25 -11h-1390q-14 0 -25.5 11t-11.5 25v1683q0 14 11.5 25t25.5 11h1390q14 0 25 -11t11 -25z" />
</svg>
