<?xml version="1.0" standalone="no"?>
<!DOCTYPE svg PUBLIC "-//W3C//DTD SVG 1.1//EN" "http://www.w3.org/Graphics/SVG/1.1/DTD/svg11.dtd" >
<svg xmlns="http://www.w3.org/2000/svg" xmlns:xlink="http://www.w3.org/1999/xlink" version="1.1" width="2048" height="2048" viewBox="-10 0 2068 2048">
   <path fill="currentColor"
d="M1024 1259q0 -50 -5 -94t-19 -88t-35 -75t-56.5 -50.5t-80.5 -19.5q-6 3 -30.5 17.5t-37.5 21.5t-35.5 17.5t-43.5 15t-41.5 4.5t-41.5 -4.5t-43 -15t-35.5 -17.5t-37 -21t-30.5 -18q-45 0 -80.5 19.5t-57 50.5t-35 75t-18.5 88t-5 94q0 64 37 106.5t91 42.5h512
q54 0 91 -42.5t37 -106.5zM867 739q0 -94 -67 -160.5t-160.5 -66.5t-160 66.5t-66.5 160.5q0 95 66.5 161t160.5 66t160.5 -66.5t66.5 -160.5zM1792 1248v-64q0 -14 -9.5 -23t-23.5 -9h-575q-14 0 -23 9t-9 23v64q0 14 9 23t23 9h575q14 0 23.5 -9t9.5 -23zM1792 988v-56
q0 -15 -10.5 -25.5t-25.5 -10.5h-568q-15 0 -25.5 10.5t-10.5 25.5v56q0 15 10.5 25.5t25.5 10.5h568q15 0 25.5 -10.5t10.5 -25.5zM1792 736v-64q0 -14 -9.5 -23t-23.5 -9h-575q-14 0 -23 9t-9 23v64q0 14 9 23t23 9h575q14 0 23.5 -9t9.5 -23zM2048 416v1216q0 66 -47 113
t-113 47h-353v-96q0 -14 -8.5 -23t-22.5 -9h-64q-14 0 -23 9.5t-9 22.5v96h-768v-96q0 -14 -9 -23t-23 -9h-64q-14 0 -23 9.5t-9 22.5v96h-352q-66 0 -113 -47t-47 -113v-1216q0 -66 47 -113t113 -47h1728q66 0 113 47t47 113z" />
</svg>
