<?xml version="1.0" standalone="no"?>
<!DOCTYPE svg PUBLIC "-//W3C//DTD SVG 1.1//EN" "http://www.w3.org/Graphics/SVG/1.1/DTD/svg11.dtd" >
<svg xmlns="http://www.w3.org/2000/svg" xmlns:xlink="http://www.w3.org/1999/xlink" version="1.1" width="2048" height="2048" viewBox="-10 0 2068 2048">
   <path fill="currentColor"
d="M1024 1259q0 64 -37 106.5t-91 42.5h-512q-54 0 -91 -42.5t-37 -106.5q0 -50 5 -94t18.5 -88t35 -75t57 -50.5t80.5 -19.5q7 4 30.5 18t37 21t35.5 17.5t43 15t41.5 4.5t41.5 -4.5t43.5 -15t35.5 -17.5t37.5 -21.5t30.5 -17.5q45 0 80.5 19.5t56.5 50.5t35 75t19 88t5 94
zM867 739q0 94 -66.5 160.5t-160.5 66.5t-160.5 -66t-66.5 -161q0 -94 66.5 -160.5t160 -66.5t160.5 66.5t67 160.5zM1792 1184v64q0 14 -9.5 23t-23.5 9h-575q-14 0 -23 -9t-9 -23v-64q0 -14 9 -23t23 -9h575q14 0 23.5 9t9.5 23zM1792 932v56q0 15 -10.5 25.5t-25.5 10.5
h-568q-15 0 -25.5 -10.5t-10.5 -25.5v-56q0 -15 10.5 -25.5t25.5 -10.5h568q15 0 25.5 10.5t10.5 25.5zM1792 672v64q0 14 -9.5 23t-23.5 9h-575q-14 0 -23 -9t-9 -23v-64q0 -14 9 -23t23 -9h575q14 0 23.5 9t9.5 23zM1919 1632v-1216q0 -12 -9.5 -22t-21.5 -10h-1728
q-12 0 -22 10t-10 22v1216q0 12 10 22t22 10h352v-96q0 -14 9 -23t23 -9h64q14 0 23 9t9 23v96h768v-96q0 -14 9 -23t23 -9h64q14 0 22.5 9t8.5 23v96h353q12 0 21.5 -10t9.5 -22zM2048 416v1216q0 66 -47 113t-113 47h-1728q-66 0 -113 -47t-47 -113v-1216q0 -66 47 -113
t113 -47h1728q66 0 113 47t47 113z" />
</svg>
