<?xml version="1.0" standalone="no"?>
<!DOCTYPE svg PUBLIC "-//W3C//DTD SVG 1.1//EN" "http://www.w3.org/Graphics/SVG/1.1/DTD/svg11.dtd" >
<svg xmlns="http://www.w3.org/2000/svg" xmlns:xlink="http://www.w3.org/1999/xlink" version="1.1" width="2048" height="2048" viewBox="-10 0 2068 2048">
   <path fill="currentColor"
d="M1741 1530q-16 -114 -50 -201.5t-101 -152t-160 -76.5q-77 84 -182.5 132t-223.5 48t-223.5 -48t-182.5 -132q-93 12 -160 76.5t-101 152t-50 201.5q122 171 310.5 271t406.5 100t406.5 -100t310.5 -271zM1463 731q0 -181 -128.5 -310t-310.5 -129t-310.5 129t-128.5 310
t128.5 310t310.5 129t310.5 -129t128.5 -310zM2048 1024q0 208 -81 397t-218 326.5t-326.5 219t-398.5 81.5q-208 0 -398 -81t-327 -218.5t-218 -327t-81 -397.5q0 -209 81 -398.5t218 -326.5t326.5 -218t398.5 -81t398.5 81t326.5 218t218 326.5t81 398.5z" />
</svg>
