<?xml version="1.0" standalone="no"?>
<!DOCTYPE svg PUBLIC "-//W3C//DTD SVG 1.1//EN" "http://www.w3.org/Graphics/SVG/1.1/DTD/svg11.dtd" >
<svg xmlns="http://www.w3.org/2000/svg" xmlns:xlink="http://www.w3.org/1999/xlink" version="1.1" width="2048" height="2048" viewBox="-10 0 2068 2048">
   <path fill="currentColor"
d="M1024 0q209 0 398.5 81t326.5 218t218 326.5t81 398.5q0 207 -81 396.5t-217.5 327t-326.5 219t-399 81.5t-398.5 -81.5t-326.5 -219t-218 -326.5t-81 -397q0 -209 81 -398.5t218 -326.5t326.5 -218t398.5 -81zM1731 1544q171 -236 171 -520q0 -178 -70 -340.5
t-187.5 -280t-280 -187.5t-340.5 -70t-340.5 70t-280 187.5t-187.5 280t-70 340.5q0 284 171 520q16 -81 43 -145.5t68 -117.5t101.5 -82t136.5 -29q151 146 358 146t358 -146q76 0 136.5 29t101.5 82t68 117.5t43 145.5zM1463 804q0 -119 -59 -220t-160 -160t-220 -59
t-220 59t-160 160t-59 220t59 220t160 160t220 59t220 -59t160 -160t59 -220z" />
</svg>
