<?xml version="1.0" standalone="no"?>
<!DOCTYPE svg PUBLIC "-//W3C//DTD SVG 1.1//EN" "http://www.w3.org/Graphics/SVG/1.1/DTD/svg11.dtd" >
<svg xmlns="http://www.w3.org/2000/svg" xmlns:xlink="http://www.w3.org/1999/xlink" version="1.1" width="2048" height="2048" viewBox="-10 0 2058 2048">
   <path fill="currentColor"
d="M1520 896q37 11 71.5 27.5t74 46t72.5 67.5t64 95t52.5 126t34.5 162t13 201q0 116 -52.5 214t-142 155.5t-195.5 57.5h-976q-105 0 -195 -57.5t-142.5 -155.5t-52.5 -214q0 -108 13 -201t35 -162t53 -126t64 -95t72.5 -67.5t74 -46t72.5 -27.5q-90 -142 -90 -311
q0 -119 46 -227t124.5 -186.5t187 -125t227 -46.5t227 46.5t187 125t125 186.5t46.5 227q0 169 -90 311zM1024.5 146q-89.5 0 -170.5 35t-140 93.5t-93.5 140t-34.5 170.5t34.5 170.5t93.5 140t140 93.5t170.5 35t170.5 -35t140 -93.5t94 -140t35 -170.5t-35 -170.5
t-94 -140t-140 -93.5t-170.5 -35zM1512 1901q101 0 172.5 -82t71.5 -198q0 -273 -90 -430.5t-258 -165.5q-78 69 -176.5 107t-207 38t-207 -38t-177.5 -107q-167 8 -257.5 165.5t-90.5 430.5q0 116 72 198t172 82h976z" />
</svg>
