<?xml version="1.0" standalone="no"?>
<!DOCTYPE svg PUBLIC "-//W3C//DTD SVG 1.1//EN" "http://www.w3.org/Graphics/SVG/1.1/DTD/svg11.dtd" >
<svg xmlns="http://www.w3.org/2000/svg" xmlns:xlink="http://www.w3.org/1999/xlink" version="1.1" width="2048" height="2048" viewBox="-10 0 2058 2048">
   <path fill="currentColor"
d="M1462 1437q0 73 -42 122.5t-104 49.5h-584q-62 0 -104 -49.5t-42 -122.5q0 -57 5.5 -107.5t21.5 -101t40.5 -86.5t64.5 -58.5t92 -22.5q90 86 214 86t214 -86q52 0 92 22.5t64.5 58.5t40.5 86.5t21.5 101t5.5 107.5zM1286 844q0 108 -77 184t-185.5 76t-185 -76
t-76.5 -184q0 -107 76.5 -183t185 -76t185.5 76t77 183zM1610 1865v-1573h-1172v1573q0 14 11.5 25t26.5 11h1096q15 0 26.5 -11t11.5 -25zM1756 182v1683q0 76 -54 129.5t-130 53.5h-1096q-76 0 -130 -53.5t-54 -129.5v-1683q0 -76 54 -129t130 -53h402v109q0 16 10.5 26.5
t25.5 10.5h220q15 0 25.5 -10.5t10.5 -26.5v-109h402q76 0 130 53t54 129z" />
</svg>
