<?xml version="1.0" standalone="no"?>
<!DOCTYPE svg PUBLIC "-//W3C//DTD SVG 1.1//EN" "http://www.w3.org/Graphics/SVG/1.1/DTD/svg11.dtd" >
<svg xmlns="http://www.w3.org/2000/svg" xmlns:xlink="http://www.w3.org/1999/xlink" version="1.1" width="2048" height="2048" viewBox="-10 0 2068 2048">
   <path fill="currentColor"
d="M896 1340.5q0 -54.5 -7.5 -101t-24.5 -90t-51 -68.5t-81 -25q-64 64 -156 64t-156 -64q-47 0 -81 25t-51 68.5t-24.5 90t-7.5 101t31.5 93t75.5 38.5h426q44 0 75.5 -38.5t31.5 -93zM768 896q0 -79 -56.5 -135.5t-136 -56.5t-135.5 56t-56 135.5t56 136t135.5 56.5
t136 -56.5t56.5 -135.5zM1792 1376v-64q0 -14 -9.5 -23t-23.5 -9h-703q-14 0 -23 9t-9 23v64q0 14 9 23t23 9h703q14 0 23.5 -9t9.5 -23zM1408 1120v-64q0 -14 -9 -23t-23 -9h-320q-14 0 -23 9t-9 23v64q0 14 9 23t23 9h320q14 0 23 -9t9 -23zM1792 1120v-64q0 -14 -9.5 -23
t-23.5 -9h-191q-14 0 -23.5 9t-9.5 23v64q0 14 9.5 23t23.5 9h191q14 0 23.5 -9t9.5 -23zM1792 864v-64q0 -13 -9.5 -22.5t-23.5 -9.5h-703q-14 0 -23 9.5t-9 22.5v64q0 14 9 23t23 9h703q14 0 23.5 -9t9.5 -23zM128 512h1791v-96q0 -13 -8.5 -22.5t-22.5 -9.5h-1728
q-14 0 -23 9.5t-9 22.5v96zM2048 416v1216q0 66 -47 113t-113 47h-1728q-66 0 -113 -47t-47 -113v-1216q0 -66 47 -113t113 -47h1728q66 0 113 47t47 113z" />
</svg>
