<?xml version="1.0" standalone="no"?>
<!DOCTYPE svg PUBLIC "-//W3C//DTD SVG 1.1//EN" "http://www.w3.org/Graphics/SVG/1.1/DTD/svg11.dtd" >
<svg xmlns="http://www.w3.org/2000/svg" xmlns:xlink="http://www.w3.org/1999/xlink" version="1.1" width="2048" height="2048" viewBox="-10 0 2068 2048">
   <path fill="currentColor"
d="M896 1340.5q0 54.5 -31.5 93t-75.5 38.5h-426q-44 0 -75.5 -38.5t-31.5 -93t7.5 -101t24.5 -90t51 -68.5t81 -25q64 64 156 64t156 -64q47 0 81 25t51 68.5t24.5 90t7.5 101zM768 896q0 79 -56.5 135.5t-136 56.5t-135.5 -56.5t-56 -136t56 -135.5t135.5 -56t136 56.5
t56.5 135.5zM1792 1312v64q0 14 -9.5 23t-23.5 9h-703q-14 0 -23 -9t-9 -23v-64q0 -14 9 -23t23 -9h703q14 0 23.5 9t9.5 23zM1408 1056v64q0 14 -9 23t-23 9h-320q-14 0 -23 -9t-9 -23v-64q0 -14 9 -23t23 -9h320q14 0 23 9t9 23zM1792 1056v64q0 14 -9.5 23t-23.5 9h-191
q-14 0 -23.5 -9t-9.5 -23v-64q0 -14 9.5 -23t23.5 -9h191q14 0 23.5 9t9.5 23zM1792 800v64q0 14 -9.5 23t-23.5 9h-703q-14 0 -23 -9t-9 -23v-64q0 -13 9 -22.5t23 -9.5h703q14 0 23.5 9.5t9.5 22.5zM1919 1632v-1120h-1791v1120q0 12 10 22t22 10h1728q12 0 21.5 -10
t9.5 -22zM2048 416v1216q0 66 -47 113t-113 47h-1728q-66 0 -113 -47t-47 -113v-1216q0 -66 47 -113t113 -47h1728q66 0 113 47t47 113z" />
</svg>
