<?xml version="1.0" standalone="no"?>
<!DOCTYPE svg PUBLIC "-//W3C//DTD SVG 1.1//EN" "http://www.w3.org/Graphics/SVG/1.1/DTD/svg11.dtd" >
<svg xmlns="http://www.w3.org/2000/svg" xmlns:xlink="http://www.w3.org/1999/xlink" version="1.1" width="2048" height="2048" viewBox="-10 0 2058 2048">
   <path fill="currentColor"
d="M1434 899q0 -363 -119.5 -542t-377.5 -179q-254 0 -372.5 179t-118.5 542q0 361 118.5 539t372.5 178q84 0 150 -20q-25 -49 -45 -83t-50.5 -74.5t-60.5 -65t-72 -41t-89 -16.5q-53 0 -90 18l-56 -110q54 -47 135 -75.5t180 -28.5q79 0 144 17.5t115 52t87 74t73 94.5
q76 -170 76 -459zM1880 1621h134q2 20 0 49.5t-12 71t-27 82.5t-48.5 82t-73.5 72t-105.5 50.5t-140.5 19.5q-66 0 -123.5 -15.5t-101.5 -40.5t-84 -63t-69 -77t-58 -89q-109 31 -234 31q-113 0 -225.5 -30t-212 -84t-185.5 -135t-148 -178t-97.5 -218t-35.5 -250
q0 -131 35.5 -252t97.5 -219t148 -179t186 -135.5t212 -84t225 -29.5q116 0 229 29.5t213.5 84t186 135t147.5 178.5t97 219.5t35 252.5q0 217 -92 396.5t-250 302.5q53 80 106.5 122t119.5 42q37 0 66 -13t46 -34.5t26.5 -45t12.5 -48.5z" />
</svg>
