<?xml version="1.0" standalone="no"?>
<!DOCTYPE svg PUBLIC "-//W3C//DTD SVG 1.1//EN" "http://www.w3.org/Graphics/SVG/1.1/DTD/svg11.dtd" >
<svg xmlns="http://www.w3.org/2000/svg" xmlns:xlink="http://www.w3.org/1999/xlink" version="1.1" width="2048" height="2048" viewBox="-10 0 2068 2048">
   <path fill="currentColor"
d="M403 1682q0 19 -14.5 34t-33.5 15q-1 0 -3 -0.5t-4.5 -1t-3.5 -1.5q-55 -13 -144 -124q-200 -253 -200 -601q0 -304 189 -546q20 -26 45.5 -54t62.5 -56.5t60 -28.5q18 0 32 12t14 29q0 4 -1.5 8.5t-3 8.5t-4.5 9t-5.5 9t-7 9t-7 8t-8 8.5t-7 7.5t-7 7l-5.5 5
q-87 90 -131 164q-106 176 -106 399q0 250 109 436q44 75 122 154q2 2 13 13.5t17 19t15 18.5t13 21t4 18zM1597 1563q0 26 -16 43.5t-42 17.5h-960q-24 0 -40.5 -16.5t-16.5 -40.5q0 -25 15.5 -42.5t41.5 -17.5h960q24 0 41 16.5t17 39.5zM1406 1020q0 119 -60 207
q-23 34 -62.5 70t-73.5 54q-14 9 -24 9q-6 0 -13.5 -5t-7.5 -11q0 -8 17 -27t37.5 -41t37.5 -59.5t17 -78.5q0 -68 -31 -116q-27 -37 -41 -37q-3 0 -3 4q0 11 7 32t7 32q0 20 -19 31.5t-40 11.5q-30 0 -44.5 -18.5t-14.5 -49.5q0 -13 1.5 -39t1.5 -39q0 -22 -9 -41
q-12 -22 -37.5 -47.5t-45.5 -25.5q-6 0 -8 1.5t-2 7.5q0 4 7 12.5t14 23.5t7 34q0 33 -16.5 61t-40.5 48.5l-48 41t-41 48t-17 60.5q0 87 37 141q27 38 71 56q1 0 2 1q14 4 14 13q0 14 -16 14q-2 0 -8 -2t-13 -4.5t-8 -3.5q-107 -38 -174.5 -123.5t-67.5 -194.5
q0 -49 22 -102.5t53.5 -102t62.5 -96.5t53 -100.5t22 -99.5q0 -49 -22 -84q-26 -42 -50 -57q-17 -9 -17 -18q0 -10 12 -14t25 -4q44 0 98 25q36 18 63 40t44 45t29.5 56t19.5 61.5t14 70.5q0 2 2.5 16.5t4 22t5.5 22.5t8 24t9.5 19t13 14.5t16.5 4.5q20 0 32.5 -12.5
t12.5 -32.5q0 -22 -17.5 -59t-17.5 -46.5t9 -9.5q23 0 82 62q64 68 91.5 139t27.5 165zM2048 1046q0 243 -123 447q-17 29 -42.5 64.5t-60 76.5t-72 68.5t-65.5 27.5q-14 0 -27.5 -14t-13.5 -28t25.5 -45t61 -68t42.5 -47q163 -203 163 -472q0 -116 -18 -209t-64 -187
q-29 -59 -62.5 -105.5t-82.5 -97.5l-14 -14t-19 -20t-14.5 -18.5t-13.5 -22.5t-4 -19q0 -17 14 -31.5t31 -14.5q20 0 46 16.5t52 44t43 48t33 41.5q87 118 130 244t53 278q2 38 2 57z" />
</svg>
