<?xml version="1.0" standalone="no"?>
<!DOCTYPE svg PUBLIC "-//W3C//DTD SVG 1.1//EN" "http://www.w3.org/Graphics/SVG/1.1/DTD/svg11.dtd" >
<svg xmlns="http://www.w3.org/2000/svg" xmlns:xlink="http://www.w3.org/1999/xlink" version="1.1" width="2048" height="2048" viewBox="-10 0 2068 2048">
   <path fill="currentColor"
d="M1359 1493l168 -792q11 -50 -11.5 -72t-59.5 -8l-987 381q-32 13 -44.5 28.5t-3.5 30t36 22.5l253 79l586 -369q23 -16 36 -7q10 5 -4 17l-474 429v0v0l-19 260q27 0 52 -25l123 -119l256 189q73 41 93 -44zM2048 1024q0 209 -81 398.5t-218 326.5t-326.5 218t-398.5 81
t-398.5 -81t-326.5 -218t-218 -326.5t-81 -398.5t81 -398.5t218 -326.5t326.5 -218t398.5 -81t398.5 81t326.5 218t218 326.5t81 398.5z" />
</svg>
