<?xml version="1.0" standalone="no"?>
<!DOCTYPE svg PUBLIC "-//W3C//DTD SVG 1.1//EN" "http://www.w3.org/Graphics/SVG/1.1/DTD/svg11.dtd" >
<svg xmlns="http://www.w3.org/2000/svg" xmlns:xlink="http://www.w3.org/1999/xlink" version="1.1" width="2048" height="2048" viewBox="-10 0 2058 2048">
   <path fill="currentColor"
d="M1170 1536q0 91 -64 155t-155 64t-155 -64t-64 -155q0 -69 40 -126t106 -81v-452h146v452q66 24 106 81t40 126zM1317 1536q0 -88 -39.5 -165t-107.5 -128v-878q0 -91 -64 -155t-155 -64t-155 64t-64 155v878q-68 51 -107.5 128t-39.5 165q0 151 107 258t259 107
t259 -107t107 -258zM1463 1536q0 104 -40.5 198.5t-109.5 163.5t-163.5 109.5t-198.5 40.5t-198.5 -40.5t-163.5 -109.5t-109.5 -163.5t-40.5 -198.5q0 -207 146 -358v-813q0 -151 107 -258t259 -107t259 107t107 258v813q146 151 146 358zM1609 877v147h-219v-147h219z
M1609 585v146h-219v-146h219zM1609 292v146h-219v-146h219z" />
</svg>
