<?xml version="1.0" standalone="no"?>
<!DOCTYPE svg PUBLIC "-//W3C//DTD SVG 1.1//EN" "http://www.w3.org/Graphics/SVG/1.1/DTD/svg11.dtd" >
<svg xmlns="http://www.w3.org/2000/svg" xmlns:xlink="http://www.w3.org/1999/xlink" version="1.1" width="2048" height="2048" viewBox="-10 0 2068 2048">
   <path fill="currentColor"
d="M1529 333q11 11 11 25t-11 25l-668 667q-11 11 -24.5 11t-24.5 -11l-88 -88q-10 -10 -10 -24t10 -24l47 -47q-77 -97 -87 -221t50 -230q-80 -75 -188 -75q-113 0 -192.5 80t-79.5 193v1366h-274v-1366q0 -110 43.5 -211.5t116.5 -174.5t174 -116.5t212 -43.5
q114 0 215.5 44t176.5 122q100 -41 209.5 -25.5t197.5 84.5l47 -48q10 -10 24.5 -10t24.5 10zM1434 614q28 0 48 20t20 48t-20 48t-48 20t-48 -20t-20 -48t20 -48t48 -20zM1707 750q-28 0 -48.5 -20t-20.5 -48t20.5 -48t48.5 -20t48 20t20 48t-20 48t-48 20zM1980 614
q28 0 48 20t20 48t-20 48t-48 20t-48 -20t-20 -48t20 -48t48 -20zM1297.5 750q28.5 0 48.5 20.5t20 48.5t-20 48t-48.5 20t-48.5 -20t-20 -48t20 -48.5t48.5 -20.5zM1502 819q0 -28 20 -48.5t48 -20.5t48 20.5t20 48.5t-20 48t-48 20t-48 -20t-20 -48zM1844 750
q28 0 48 20.5t20 48.5t-20 48t-48 20t-48.5 -20t-20.5 -48t20.5 -48.5t48.5 -20.5zM1160 887q28 0 48.5 20t20.5 48t-20.5 48.5t-48.5 20.5t-48 -20.5t-20 -48.5t20 -48t48 -20zM1434 1024q-28 0 -48 -20.5t-20 -48.5t20 -48t48 -20t48 20t20 48t-20 48.5t-48 20.5z
M1707 887q28 0 48 20t20 48t-20 48.5t-48 20.5t-48.5 -20.5t-20.5 -48.5t20.5 -48t48.5 -20zM1297.5 1160q-28.5 0 -48.5 -20t-20 -48t20 -48t48.5 -20t48.5 20t20 48t-20 48t-48.5 20zM1570 1024q28 0 48 20t20 48t-20 48t-48 20t-48 -20t-20 -48t20 -48t48 -20zM1160 1160
q28 0 48.5 20.5t20.5 48t-20.5 48t-48.5 20.5t-48 -20.5t-20 -48.5t20 -48t48 -20zM1434 1160q28 0 48 20t20 48t-20 48.5t-48 20.5t-48 -20.5t-20 -48.5t20 -48t48 -20zM1297.5 1297q28.5 0 48.5 20t20 48t-20 48t-48.5 20t-48.5 -20t-20 -48t20 -48t48.5 -20zM1160 1433
q28 0 48.5 20.5t20.5 48.5t-20.5 48t-48.5 20t-48 -20t-20 -48t20 -48.5t48 -20.5z" />
</svg>
