<?xml version="1.0" standalone="no"?>
<!DOCTYPE svg PUBLIC "-//W3C//DTD SVG 1.1//EN" "http://www.w3.org/Graphics/SVG/1.1/DTD/svg11.dtd" >
<svg xmlns="http://www.w3.org/2000/svg" xmlns:xlink="http://www.w3.org/1999/xlink" version="1.1" width="2048" height="2048" viewBox="-10 0 2068 2048">
   <path fill="currentColor"
d="M1902 1243v219q0 95 -39 180t-108 147v222q0 16 -10 26.5t-26 10.5h-73q-16 0 -26.5 -10.5t-10.5 -26.5v-135q-72 25 -146 25h-878q-74 0 -146 -25v126q0 19 -10.5 32.5t-26.5 13.5h-73q-16 0 -26 -13.5t-10 -32.5v-213q-69 -62 -108 -147t-39 -180v-219h1756zM805 768
q0 16 -10.5 26t-26.5 10t-26.5 -10t-10.5 -26t10.5 -26.5t26.5 -10.5t26.5 10.5t10.5 26.5zM878 694q0 16 -10.5 26.5t-26.5 10.5t-26 -10.5t-10 -26.5t10 -26t26 -10t26.5 10t10.5 26zM805 621q0 16 -10.5 26.5t-26.5 10.5t-26.5 -10.5t-10.5 -26.5t10.5 -26t26.5 -10
t26.5 10t10.5 26zM951 621q0 16 -10.5 26.5t-26.5 10.5t-26 -10.5t-10 -26.5t10 -26t26 -10t26.5 10t10.5 26zM878 548q0 16 -10.5 26.5t-26.5 10.5t-26 -10.5t-10 -26.5t10 -26t26 -10t26.5 10t10.5 26zM805 475q0 16 -10.5 26.5t-26.5 10.5t-26.5 -10.5t-10.5 -26.5
t10.5 -26.5t26.5 -10.5t26.5 10.5t10.5 26.5zM2048 1060v73q0 16 -10.5 26.5t-26.5 10.5h-1974q-16 0 -26.5 -10.5t-10.5 -26.5v-73q0 -16 10.5 -26t26.5 -10h109v-732q0 -121 86 -206.5t207 -85.5q123 0 210 89q53 -22 112 -14t106 45l26 -26q13 -12 25 0l48 48q13 13 0 26
l-359 358q-13 12 -25 0l-48 -48q-12 -12 0 -25l25 -25q-41 -52 -46.5 -118t26.5 -124q-42 -40 -100 -40q-61 0 -103.5 42.5t-42.5 103.5v732h1718q16 0 26.5 10t10.5 26zM1024 548q0 16 -10.5 26.5t-26.5 10.5t-26 -10.5t-10 -26.5t10 -26t26 -10t26.5 10t10.5 26zM951 475
q0 16 -10.5 26.5t-26.5 10.5t-26 -10.5t-10 -26.5t10 -26.5t26 -10.5t26.5 10.5t10.5 26.5zM878 402q0 16 -10.5 26t-26.5 10t-26 -10t-10 -26t10 -26.5t26 -10.5t26.5 10.5t10.5 26.5zM1097 475q0 16 -10 26.5t-26 10.5t-26.5 -10.5t-10.5 -26.5t10.5 -26.5t26.5 -10.5
t26 10.5t10 26.5zM1024 402q0 16 -10.5 26t-26.5 10t-26 -10t-10 -26t10 -26.5t26 -10.5t26.5 10.5t10.5 26.5zM951 329q0 16 -10.5 26t-26.5 10t-26 -10t-10 -26t10 -26.5t26 -10.5t26.5 10.5t10.5 26.5zM1170 402q0 16 -10 26t-26 10t-26.5 -10t-10.5 -26t10.5 -26.5
t26.5 -10.5t26 10.5t10 26.5zM1097 329q0 16 -10 26t-26 10t-26.5 -10t-10.5 -26t10.5 -26.5t26.5 -10.5t26 10.5t10 26.5zM1243 329q0 16 -10 26t-26 10t-26.5 -10t-10.5 -26t10.5 -26.5t26.5 -10.5t26 10.5t10 26.5z" />
</svg>
