<?xml version="1.0" standalone="no"?>
<!DOCTYPE svg PUBLIC "-//W3C//DTD SVG 1.1//EN" "http://www.w3.org/Graphics/SVG/1.1/DTD/svg11.dtd" >
<svg xmlns="http://www.w3.org/2000/svg" xmlns:xlink="http://www.w3.org/1999/xlink" version="1.1" width="2048" height="2048" viewBox="-10 0 2058 2048">
   <path fill="currentColor"
d="M1283 1362q0 97 -19 225q-35 245 -63 358q-27 103 -174.5 103t-173.5 -103q-28 -113 -63 -358q-19 -128 -19 -225q0 -192 256 -192t256 192zM1902 877q0 182 -70.5 346t-195.5 285t-287 185q-10 4 -18 -3t-6 -17q4 -39 12 -76q1 -10 3.5 -27.5t3.5 -25.5q1 -11 10 -14
q181 -92 291.5 -267.5t110.5 -385.5q0 -103 -28 -200.5t-78 -179.5t-121.5 -150t-156 -114t-184.5 -69t-203 -17q-143 8 -271.5 70t-221 160.5t-146.5 231t-54 274.5q2 210 113.5 384t293.5 265q9 3 10 14q1 6 3.5 23.5t3.5 27.5q3 12 7 38.5t7 39.5q1 11 -7.5 17t-18.5 2
q-126 -50 -232 -136t-180.5 -197t-113 -247.5t-31.5 -279.5q9 -163 76.5 -312.5t176.5 -260t257 -180t312 -79.5q125 -8 245.5 19t223 81.5t189 136.5t147 180.5t94.5 216t34 241.5zM1283 840.5q0 106.5 -75 181.5t-181.5 75t-181 -75t-74.5 -181.5t74.5 -181t181 -74.5
t181.5 74.5t75 181zM1612 877q0 139 -61.5 261t-166.5 203q-9 7 -19 2.5t-11 -15.5q-6 -61 -33 -106q-8 -11 3 -22q66 -61 104 -145t38 -178q0 -95 -40 -181t-105.5 -145.5t-156.5 -90t-187 -19.5q-152 17 -262.5 129t-125.5 264q-10 105 28 201t113 165q10 11 3 22
q-28 46 -34 107q-1 10 -11 14.5t-19 -2.5q-108 -84 -169 -208.5t-59 -267.5q3 -112 48 -215.5t119 -180t176 -124t214 -52.5q123 -6 237 38t196 122.5t131.5 189.5t49.5 234z" />
</svg>
