<?xml version="1.0" standalone="no"?>
<!DOCTYPE svg PUBLIC "-//W3C//DTD SVG 1.1//EN" "http://www.w3.org/Graphics/SVG/1.1/DTD/svg11.dtd" >
<svg xmlns="http://www.w3.org/2000/svg" xmlns:xlink="http://www.w3.org/1999/xlink" version="1.1" width="2048" height="2048" viewBox="-10 0 2068 2048">
   <path fill="currentColor"
d="M1474 544q-18 -19 -40.5 -9t-29.5 32.5t6 42.5q15 19 45 17t39.5 -23t-20.5 -60zM1022 825q-10 10 -23 10t-21 -10q-10 -8 -10 -21.5t10 -21.5q8 -10 21 -10t23 10q8 8 8 21.5t-8 21.5zM1210 909l-40 40q-14 14 -34 14t-34 -14l-44 -43q-14 -14 -14 -34.5t14 -34.5
l40 -40q13 -13 34 -13t35 13l43 45q13 14 13 34t-13 33zM1086 761q-8 8 -21 8t-23 -8q-8 -9 -8 -22t8 -22q10 -9 23 -9t21 9q10 9 10 22t-10 22zM1545 649q-18 36 -51.5 61.5t-70.5 36.5t-76 6.5t-69 -25.5q-32 -23 -55 -54.5t-34 -69t-1.5 -79.5t41.5 -78q32 -38 64 -54
t63.5 -10.5t59.5 22t60 46.5q1 1 14.5 13.5t16.5 15.5t14.5 15.5t14.5 18t11 18t9.5 20.5t4.5 21t1 24t-5.5 24.5t-11.5 27.5zM1775 1200q4 -23 -9 -39.5t-31 -24.5t-38 -19.5t-27 -23.5q-17 -31 -33.5 -53.5t-37.5 -41t-42.5 -26.5t-50 -10.5t-60.5 6.5q21 -15 45 -21.5
t38 -5.5l13 1q1 -16 -0.5 -27.5t-10.5 -31.5t-27 -43q7 -22 7 -45.5t-3 -35.5l-3 -12q48 -26 80.5 -73t38.5 -105q12 -96 -48.5 -172t-155.5 -87q-69 -8 -130.5 21.5t-93.5 85.5q-34 58 -38.5 115t16 99.5t50 73t64.5 47.5q-52 -5 -101 -41.5t-65 -100.5q-8 -43 -9 -77.5
t8 -71t18 -60t20 -44.5q-18 -23 -33 -36q-57 -1 -102 21q22 -28 48 -43t41 -16h15q0 -58 -15 -89q-12 -24 -37.5 -33t-53 3.5t-42.5 46.5q2 -6 4 -8q-8 18 -8 59t7.5 90.5t26 107t44.5 102.5q-32 20 -54 41q-39 18 -97 80.5t-97 115.5l-38 53q-45 18 -98.5 54.5t-101 82
t-74.5 98t-17 94.5q1 19 12 31q-21 16 -34 34q-25 28 -24.5 61t25 46t71.5 -6q47 -22 88.5 -57.5t62.5 -68.5q-2 -2 -7.5 -5.5t-23.5 -8.5t-38 -4q30 -7 69.5 -17t53.5 -13t32.5 -6t36.5 -2q15 7 23 -28t9 -74l1 -39q0 -120 -45 -172q121 118 115 250q-1 21 -7.5 38.5
t-15.5 27.5t-18 17t-16 9l-6 3q-4 7 -21 36t-29.5 52.5t-30.5 60t-29 70t-19.5 71t-7.5 75.5t12 72q-41 -61 -43 -91q-18 21 -29 33.5t-29.5 35t-29.5 38.5t-24 37t-17 37.5t-5 33t7 29.5t24 22q40 22 118.5 -35t158 -152t150 -207t96.5 -193q98 -59 165.5 -132t98.5 -136
q51 103 169 199q114 92 188 96q53 2 61 -49zM2048 1024q0 139 -37 272t-103 245t-160.5 206.5t-206.5 160.5t-245 102.5t-272 36.5t-272 -36.5t-245 -102.5t-206.5 -160.5t-160.5 -206.5t-103 -245t-37 -272t37 -272t103 -245t160.5 -206.5t206.5 -160.5t245 -102.5
t272 -36.5t272 36.5t245 102.5t206.5 160.5t160.5 206.5t103 245t37 272z" />
</svg>
