<?xml version="1.0" standalone="no"?>
<!DOCTYPE svg PUBLIC "-//W3C//DTD SVG 1.1//EN" "http://www.w3.org/Graphics/SVG/1.1/DTD/svg11.dtd" >
<svg xmlns="http://www.w3.org/2000/svg" xmlns:xlink="http://www.w3.org/1999/xlink" version="1.1" width="2048" height="2048" viewBox="-10 0 2058 2048">
   <path fill="currentColor"
d="M738 209v748q118 1 219.5 -2t143.5 -6l43 -3q40 -1 64 -7t40.5 -23.5t24.5 -39.5t19 -66l38 -162h118l-16 368l8 364h-118l-34 -145q-17 -78 -51.5 -106.5t-96.5 -29.5q-98 -9 -402 -9v635q0 89 50 132t152 43h408q40 0 68 -2t63 -8.5t62 -21t55 -36.5t52.5 -57.5
t45.5 -83.5l106 -247h102q-7 41 -36 287t-34 317q-168 -6 -302.5 -9.5t-185.5 -4.5h-50h-718l-430 14v-117l146 -29q76 -14 104.5 -42t29.5 -90q3 -123 5 -307t3 -306v-122q4 -460 -8 -737q-3 -70 -29.5 -96t-104.5 -41l-146 -28v-116l430 13h802q159 1 428 -30
q-8 78 -16.5 222.5t-13.5 249.5l-6 106h-106l-36 -142q-36 -139 -85.5 -205.5t-128.5 -66.5h-626q-18 0 -28 2.5t-14.5 9.5t-6 13.5t-1.5 19.5z" />
</svg>
