<?xml version="1.0" standalone="no"?>
<!DOCTYPE svg PUBLIC "-//W3C//DTD SVG 1.1//EN" "http://www.w3.org/Graphics/SVG/1.1/DTD/svg11.dtd" >
<svg xmlns="http://www.w3.org/2000/svg" xmlns:xlink="http://www.w3.org/1999/xlink" version="1.1" width="2048" height="2048" viewBox="-10 0 2068 2048">
   <path fill="currentColor"
d="M1230 892v242v17.5v17.5t-0.5 15t-2.5 14.5t-6 11t-9.5 9t-13.5 5t-19 1.5v-412q10 0 18.5 2t14 3.5t9 7.5t5.5 8.5t3 11.5t1 12.5v16v17.5zM1651 1020v161q0 4 0.5 14.5t0.5 16t-1.5 14.5t-4.5 14t-9.5 8.5t-15.5 3.5q-14 0 -19 -12q-1 -3 -2.5 -12t-2 -20.5t-1 -25.5
t-1 -29.5t-0.5 -31t0.5 -30t0.5 -27.5v-22.5v-15.5v-6v-9.5v-11.5t0.5 -11.5t2.5 -12t4.5 -9t7 -7t10.5 -2.5q7 0 13 2t9 6t5 8t2.5 11t1 11t0 13t-0.5 12zM240 1335h163v-630h-163v630zM819 1335h141v-630h-212l-37 295q-26 -198 -42 -295h-212v630h143v-417l60 417h102
l57 -426v426zM1385 928q0 -4 0.5 -29t0 -34t-2 -26.5t-4.5 -30.5q-4 -22 -14.5 -39t-23 -27.5t-32.5 -18t-35.5 -11t-41 -5.5t-39 -2h-39.5h-16h-122v630h75q171 1 215 -10q54 -13 70 -60q13 -41 11 -185v-19q-2 -83 -2 -133zM1809 1190v-177q0 -31 -1.5 -49t-7.5 -39
t-17 -32.5t-32 -19t-52 -7.5q-62 0 -103 44v-205h-156v630h147l9 -40q40 48 103 48q28 0 48.5 -9t32 -22.5t18.5 -34.5t9 -41t2 -46zM2048 214v1620q0 89 -62 151.5t-150 62.5h-1622q-89 0 -151.5 -62.5t-62.5 -151.5v-1620q0 -89 62.5 -151.5t151.5 -62.5h1622
q88 0 150 62.5t62 151.5z" />
</svg>
