<?xml version="1.0" standalone="no"?>
<!DOCTYPE svg PUBLIC "-//W3C//DTD SVG 1.1//EN" "http://www.w3.org/Graphics/SVG/1.1/DTD/svg11.dtd" >
<svg xmlns="http://www.w3.org/2000/svg" xmlns:xlink="http://www.w3.org/1999/xlink" version="1.1" width="2048" height="2048" viewBox="-10 0 2068 2048">
   <path fill="currentColor"
d="M1078 1849q-3 0 -10 -3q-7 -4 -19 -11.5t-47.5 -33.5t-70 -54.5t-80 -73.5t-83.5 -92t-74.5 -109t-59.5 -124q-25 -4 -172 -37q64 210 231 357t385 181zM447 1253l166 27q-25 -74 -41 -164.5t-19 -143.5l-3 -53q-83 80 -120 221q4 56 17 113zM555 653q-43 66 -76 146
q46 -49 73 -67q0 -16 0.5 -33.5t1.5 -31.5zM1971 1081q0 -159 -61.5 -303t-164.5 -248t-246 -166t-300 -62q-146 0 -277.5 52t-236.5 146q-30 58 -44 157q59 -50 140.5 -82t156.5 -42t141.5 -13t106.5 0l39 4q16 1 28 4t20.5 9t15 11.5t10 15.5t5.5 16t2.5 16.5t1 15
t-0.5 14.5l-1 10q-56 -5 -107 -5t-95.5 3.5t-86 12t-77 19t-70.5 26t-64 31.5t-60 37t-57 41t-56 45q2 13 4.5 35t12 83t21 114.5t30 114t39.5 96.5q88 4 177.5 -5.5t162.5 -28t140 -42.5t117 -48t87.5 -44.5t56.5 -33.5l19 -12q30 -24 55 -21.5t31 39.5q14 95 -39 119
q-205 96 -459 132q-79 11 -140 14.5t-173 1.5q29 69 73.5 130t91.5 103.5t96.5 78t93.5 57t79 36.5t56 21l20 6q143 23 259 -15q193 -98 310 -285t117 -411zM2043 1043q-14 136 -38 210q-35 102 -75.5 181.5t-99 152.5t-136.5 135.5t-182 120.5q-48 34 -81 44
q-70 25 -161 16q-35 2 -71 2q-139 0 -268 -45.5t-231.5 -125.5t-178 -192t-111.5 -243h-4h-4q-7 49 2 110.5t26 113.5t35 96.5t32 70.5l13 26q8 11 54 80q-52 -27 -93.5 -70.5t-68 -91.5t-46 -100t-29 -98.5t-15 -83.5t-6.5 -59l-1 -22q-3 -1 -28 -10.5t-40.5 -15t-44.5 -17
t-49 -20.5t-46 -21.5t-43 -22.5t-32 -22t-22 -23q18 10 49 25.5t112 45t143 37.5l2 -32q10 -145 93 -285q40 -198 173 -359q28 -116 80 -212q15 -28 31.5 -44.5t48.5 -30.5q116 -55 224.5 -84.5t221.5 -36t226.5 19t225.5 83.5q143 75 243 200t143.5 279.5t26.5 317.5z" />
</svg>
