<?xml version="1.0" standalone="no"?>
<!DOCTYPE svg PUBLIC "-//W3C//DTD SVG 1.1//EN" "http://www.w3.org/Graphics/SVG/1.1/DTD/svg11.dtd" >
<svg xmlns="http://www.w3.org/2000/svg" xmlns:xlink="http://www.w3.org/1999/xlink" version="1.1" width="2048" height="2048" viewBox="-10 0 2058 2048">
   <path fill="currentColor"
d="M1537 895q13 -19 14.5 -47.5t-8.5 -63t-29 -70t-51.5 -71t-73.5 -62.5q-66 -44 -144 -61t-136 -5.5t-79 42.5q-9 13 -10.5 20.5t6.5 12t16.5 6.5t31.5 5q27 3 44.5 6t50.5 11t65 20q41 15 77 36t61.5 42.5t46.5 45t35 44t25.5 39.5t19 32.5t14 21.5t12.5 7t12 -11z
M1955 1557q-48 117 -129.5 210t-182 152t-219 92t-240.5 36.5t-245 -21t-234.5 -75t-208 -131t-165.5 -182.5t-107 -236.5t-33 -286.5q1 -38 5 -72.5t13 -73t15.5 -61t22 -71.5t21.5 -70q-58 239 2 457t199 366.5t335.5 237.5t399.5 96t402 -85.5t333 -281.5q22 -30 21 -18
q0 6 -5 18zM1680 1038q0 120 -46.5 229.5t-125 189t-187 126.5t-228 47t-228 -47t-187 -126t-125 -189t-46.5 -230t46.5 -229.5t125 -188.5t187 -126t228 -47t228 47t187 126t125 188.5t46.5 229.5zM2011 706q-75 -169 -208 -289t-291.5 -176.5t-337 -61.5t-347 41.5
t-317.5 148.5t-253.5 243.5t-150.5 342.5t-12 430q-57 -185 -60 -358.5t41.5 -314t126 -261.5t190 -208t238.5 -145.5t267.5 -82t280 -10.5t272.5 62.5t248.5 144t205.5 226.5q38 58 71 139.5t36 128.5zM1939 1101q7 -143 -36.5 -268t-127.5 -219.5t-198 -163t-252 -106.5
q-11 0 -12 -5q-2 -6 28 -9q129 5 240 48.5t190 114.5t135 164.5t82 198t25.5 214.5t-28 214t-86.5 196.5t-142.5 162.5t-203 112t-260.5 44q99 -27 187.5 -68.5t171 -103t143.5 -137t99.5 -176t44.5 -213.5z" />
</svg>
