<?xml version="1.0" standalone="no"?>
<!DOCTYPE svg PUBLIC "-//W3C//DTD SVG 1.1//EN" "http://www.w3.org/Graphics/SVG/1.1/DTD/svg11.dtd" >
<svg xmlns="http://www.w3.org/2000/svg" xmlns:xlink="http://www.w3.org/1999/xlink" version="1.1" width="2048" height="2048" viewBox="-10 0 2058 2048">
   <path fill="currentColor"
d="M315 1575v158h-138q-8 0 -14 -6t-6 -14v-19h-59q-8 0 -13.5 -6t-5.5 -14v-40q0 -8 5.5 -13.5t13.5 -5.5h59v-19q0 -9 6 -15t14 -6h138zM315 1260v158h-138q-8 0 -14 -6t-6 -14v-19h-59q-8 0 -13.5 -6t-5.5 -14v-39q0 -8 5.5 -14.5t13.5 -6.5h59v-19q0 -8 6 -14t14 -6h138
zM315 945v158h-138q-8 0 -14 -6t-6 -14v-20h-59q-8 0 -13.5 -5.5t-5.5 -13.5v-40q0 -8 5.5 -13.5t13.5 -5.5h59v-20q0 -8 6 -14t14 -6h138zM315 630v158h-138q-8 0 -14 -6t-6 -14v-20h-59q-8 0 -13.5 -6t-5.5 -14v-39q0 -8 5.5 -14t13.5 -6h59v-19q0 -8 6 -14t14 -6h138z
M315 315v157h-138q-8 0 -14 -5.5t-6 -14.5v-19h-59q-8 0 -13.5 -5.5t-5.5 -13.5v-40q0 -8 5.5 -14t13.5 -6h59v-20q0 -8 6 -13.5t14 -5.5h138zM1655 117v1814q0 49 -34.5 83t-84.5 34h-1024q-50 0 -84 -34t-34 -83v-1814q0 -49 34 -83t84 -34h1024q50 0 84.5 34t34.5 83z
M1969 1634v40q0 8 -5.5 14t-13.5 6h-59v19q0 8 -6 14t-14 6h-138v-158h138q8 0 14 6t6 15v19h59q8 0 13.5 5.5t5.5 13.5zM1969 1320v39q0 8 -5.5 14t-13.5 6h-59v19q0 8 -6 14t-14 6h-138v-158h138q8 0 14 6t6 14v19h59q8 0 13.5 6.5t5.5 14.5zM1969 1004v40q0 8 -5.5 13.5
t-13.5 5.5h-59v20q0 8 -6 14t-14 6h-138v-158h138q8 0 14 6t6 14v20h59q8 0 13.5 5.5t5.5 13.5zM1969 689v39q0 8 -5.5 14t-13.5 6h-59v20q0 8 -6 14t-14 6h-138v-158h138q8 0 14 6t6 14v19h59q8 0 13.5 6t5.5 14zM1969 374v40q0 8 -5.5 13.5t-13.5 5.5h-59v19q0 9 -6 14.5
t-14 5.5h-138v-157h138q8 0 14 5.5t6 13.5v20h59q8 0 13.5 6t5.5 14z" />
</svg>
