<?xml version="1.0" standalone="no"?>
<!DOCTYPE svg PUBLIC "-//W3C//DTD SVG 1.1//EN" "http://www.w3.org/Graphics/SVG/1.1/DTD/svg11.dtd" >
<svg xmlns="http://www.w3.org/2000/svg" xmlns:xlink="http://www.w3.org/1999/xlink" version="1.1" width="2048" height="2048" viewBox="-10 0 2058 2048">
   <path fill="currentColor"
d="M1863 1276l-191 38l212 122q26 14 34 44t-7 56q-16 26 -45 33.5t-55 -7.5l-212 -121l63 183q8 26 1 48.5t-27 33.5t-41.5 14t-42 -9.5t-29.5 -38.5l-116 -343l-310 -179v358l238 272q18 21 19 45t-12 41t-32.5 28t-43 7t-41.5 -25l-128 -146v244q0 30 -21.5 52t-51.5 22
t-51.5 -22t-21.5 -52v-244l-128 146q-18 21 -41.5 25t-43 -7t-32.5 -28t-12 -41t19 -45l238 -272v-358l-310 179l-117 343q-9 26 -29.5 38.5t-42 9.5t-41 -14t-26.5 -33.5t1 -48.5l63 -183l-213 121q-26 15 -54.5 7.5t-44.5 -33.5t-8 -56t34 -44l213 -122l-191 -38
q-27 -5 -42.5 -23.5t-15.5 -40.5t8.5 -42.5t30 -31.5t48.5 -6l354 71l310 -179l-310 -180l-354 71q-5 1 -15 1q-41 0 -61 -32.5t-7 -68.5t54 -44l191 -38l-213 -122q-26 -14 -34 -43.5t8 -55.5t44.5 -34.5t54.5 7.5l213 121l-63 -182q-8 -26 -1 -48.5t26.5 -33.5t41 -14
t42 9.5t29.5 38.5l117 342l310 179v-358l-238 -272q-18 -21 -19 -45t12 -41t32.5 -28t43 -7t41.5 25l128 146v-244q0 -30 21.5 -51.5t51.5 -21.5t51.5 21.5t21.5 51.5v244l128 -146q18 -21 41.5 -25t43 7t32.5 28t12 41t-19 45l-238 272v358l310 -179l116 -342
q9 -26 29.5 -38.5t42 -9.5t41.5 14t27 33.5t-1 48.5l-63 182l212 -121q26 -15 55 -7t45 34q15 26 7 55.5t-34 43.5l-212 122l191 38q41 8 54 44t-7 68.5t-61 32.5q-10 0 -15 -1l-354 -71l-310 180l310 179l354 -71q27 -5 48.5 6t30 31.5t8.5 42.5t-15.5 40.5t-42.5 23.5z
" />
</svg>
