<?xml version="1.0" standalone="no"?>
<!DOCTYPE svg PUBLIC "-//W3C//DTD SVG 1.1//EN" "http://www.w3.org/Graphics/SVG/1.1/DTD/svg11.dtd" >
<svg xmlns="http://www.w3.org/2000/svg" xmlns:xlink="http://www.w3.org/1999/xlink" version="1.1" width="2048" height="2048" viewBox="-10 0 2068 2048">
   <path fill="currentColor"
d="M1683 1061q10 -180 -70 -335t-226 -249.5t-325 -105.5q-177 -11 -334.5 67.5t-256.5 224t-109 323.5q-8 135 37.5 259t129.5 215.5t203 149.5t253 66q177 11 334.5 -67t256 -224t107.5 -324zM2048 0l-399 397q137 133 206.5 310.5t57.5 367.5q-9 157 -72.5 299.5
t-165 250t-240 179.5t-293.5 93q-191 25 -571.5 75.5t-570.5 75.5l397 -397q-137 -133 -206 -310.5t-58 -367.5q10 -157 73 -300t164.5 -250.5t240 -179.5t294.5 -93z" />
</svg>
