<?xml version="1.0" standalone="no"?>
<!DOCTYPE svg PUBLIC "-//W3C//DTD SVG 1.1//EN" "http://www.w3.org/Graphics/SVG/1.1/DTD/svg11.dtd" >
<svg xmlns="http://www.w3.org/2000/svg" xmlns:xlink="http://www.w3.org/1999/xlink" version="1.1" width="2048" height="2048" viewBox="-10 0 2068 2048">
   <path fill="currentColor"
d="M1083 1174l187 376h-59l-200 -400l-195 400h-56l205 -427l-90 -38l24 -56l275 117l-24 57zM643 498l348 148l-149 348l-347 -149zM1037 709l274 118l-118 273l-273 -116zM1358 881l218 92l-94 217l-217 -92zM1920 1024q0 -182 -71 -348t-191 -286t-286 -191t-348 -71
t-348 71t-286 191t-191 286t-71 348t71 348t191 286t286 191t348 71t348 -71t286 -191t191 -286t71 -348zM2048 1024q0 208 -81 397.5t-218.5 327t-327 218.5t-397.5 81t-397.5 -81t-327 -218.5t-218.5 -327t-81 -397.5t81 -397.5t218.5 -327t327 -218.5t397.5 -81t397.5 81
t327 218.5t218.5 327t81 397.5z" />
</svg>
