<?xml version="1.0" standalone="no"?>
<!DOCTYPE svg PUBLIC "-//W3C//DTD SVG 1.1//EN" "http://www.w3.org/Graphics/SVG/1.1/DTD/svg11.dtd" >
<svg xmlns="http://www.w3.org/2000/svg" xmlns:xlink="http://www.w3.org/1999/xlink" version="1.1" width="2048" height="2048" viewBox="-11 0 2070 2048">
   <path fill="currentColor"
d="M1439 1399q-3 -22 -21 -33t-41 -14t-46 -6.5t-40 -16t-20 -36.5q-4 -41 21.5 -115t57.5 -141t56.5 -136.5t20.5 -103.5q-17 -112 -130 -114q-25 0 -42 2.5t-22.5 5.5t-18.5 9q0 1 -3.5 3t-4.5 2.5l-4 2t-4.5 2t-5 1t-6 0t-5.5 -1.5t-6 -3.5t-7 -5.5q-2 -3 -9.5 -10.5
t-10 -9.5t-9.5 -8t-11 -8.5t-10 -6t-12.5 -5.5t-12.5 -3q-33 -5 -53.5 3.5t-49.5 34.5q-2 2 -10 9.5t-14 12t-17 11t-18 6t-19 -2.5q-60 -30 -93 -45q-46 -20 -104.5 5.5t-84.5 72.5q-17 30 -44.5 108t-49 148.5t-44 148t-23.5 81.5q-25 76 20.5 131.5t121.5 50.5
q34 -1 56.5 -16t42.5 -52q9 -15 88.5 -221t84.5 -215q7 -12 24 -19.5t32 -0.5q29 17 24 59q-3 20 -57 154.5t-55 146.5q-6 43 22 63t67 7.5t61 -54.5q4 -8 50.5 -102t90.5 -182t51 -97q22 -33 45 -31q33 0 28 41q-3 18 -73 163.5t-78 177.5q-13 59 14.5 114t81.5 82
q19 9 57 17t79.5 9.5t69.5 -16t22 -53.5zM384.5 1639q3.5 17 -5.5 30.5t-26 16.5q-16 4 -29.5 -5t-16.5 -26q-4 -16 5 -30t25 -17.5t30 5.5t17.5 26zM1016 1930q13 19 9 41.5t-22 36.5q-19 13 -42 8.5t-36 -23.5q-12 -19 -8 -41.5t22 -36.5q19 -13 42 -8.5t35 23.5z
M155.5 1029.5q-19.5 29.5 -54.5 36.5t-64 -14q-29 -20 -35.5 -55.5t13.5 -64.5q19 -29 54 -36t64 13q29 21 35.5 56t-13 64.5zM1587 1781q21 30 14 67t-38 59q-30 21 -66.5 14t-57.5 -37.5t-14.5 -67.5t36.5 -59q30 -21 67 -14t59 38zM1711 1111q50 83 54.5 178t-37 181
t-120.5 142q-100 70 -220 67q-17 66 -64 113.5t-105.5 65t-123.5 5t-116 -57.5q-5 3 -13 11q-75 52 -163.5 59t-168.5 -31.5t-132 -114.5q-56 -82 -59 -181q-62 -10 -113 -42.5t-84 -77.5t-49 -101t-13 -111.5t28 -111.5t71 -99q-39 -66 -41.5 -141.5t27 -138.5t88 -109
t133.5 -56q36 -95 110.5 -165t162.5 -101t186 -18.5t177 73.5q65 -23 129.5 -20t123 21.5t107.5 57.5t84 88.5t52.5 113t11.5 131.5q59 18 97.5 63t50 99t-6 111t-64.5 97zM464 378.5q15 22.5 10.5 49.5t-27.5 43q-21 15 -48 10t-42 -27t-10.5 -49t27.5 -43q21 -16 48 -11
t42 27.5zM641 67q4 18 -6.5 34t-29 20.5t-34 -6t-20.5 -29.5q-3 -18 7.5 -34t28.5 -20.5t34 6t20 29.5zM1955 1119q6 22 -6 40.5t-34 23.5t-40.5 -7t-22.5 -34q-5 -22 6.5 -41.5t33.5 -24.5q22 -4 40.5 8.5t22.5 34.5zM1219 128q18 30 9 64.5t-39 52.5q-30 19 -63.5 10.5
t-51.5 -38.5t-9.5 -65.5t38 -53.5t64 -9.5t52.5 39.5zM2047 856q4 16 -5 30t-25 18q-17 4 -30.5 -5.5t-17.5 -25.5q-4 -17 5 -31t26 -17q16 -4 29.5 5t17.5 26zM1835 588q17 25 11.5 55t-29.5 48q-25 17 -54.5 11t-46.5 -30.5t-11.5 -54.5t30.5 -48q24 -17 53.5 -11.5
t46.5 30.5z" />
</svg>
