<?xml version="1.0" standalone="no"?>
<!DOCTYPE svg PUBLIC "-//W3C//DTD SVG 1.1//EN" "http://www.w3.org/Graphics/SVG/1.1/DTD/svg11.dtd" >
<svg xmlns="http://www.w3.org/2000/svg" xmlns:xlink="http://www.w3.org/1999/xlink" version="1.1" width="2048" height="2048" viewBox="-10 0 2068 2048">
   <path fill="currentColor"
d="M745 1242v-218l-154 159q20 17 46 29q21 9 41 17q17 4 34 8.5t33 4.5zM1537 1225q4 0 4 4q9 0 13 4q12 5 21 5q12 4 29 4t29 -4q21 0 38 -9q21 -8 42 -17q25 -12 50 -29l-121 -117l-390 -390l-171 172l-231 -239l-582 574q25 17 50 29l42 17q17 9 38 9q12 4 29 4t30 -4
q8 0 20 -5q5 -4 13 -8h4l260 -264l96 -88l260 256l88 96q4 0 4 4q8 0 13 4q12 5 21 5q12 4 29 4t29 -4q21 0 38 -9q21 -8 42 -17q25 -12 50 -29l-209 -205l37 -38l180 180zM1537 136l511 888l-511 888h-1026l-511 -888l511 -888h1026zM1215 982l-134 -138l8 -8l138 134z" />
</svg>
