<?xml version="1.0" standalone="no"?>
<!DOCTYPE svg PUBLIC "-//W3C//DTD SVG 1.1//EN" "http://www.w3.org/Graphics/SVG/1.1/DTD/svg11.dtd" >
<svg xmlns="http://www.w3.org/2000/svg" xmlns:xlink="http://www.w3.org/1999/xlink" version="1.1" width="2048" height="2048" viewBox="-10 0 2058 2048">
   <path fill="currentColor"
d="M1850 1596q-44 108 -108 196q-88 124 -144 172q-84 80 -180 80q-72 0 -170 -40t-182 -40q-88 0 -186 40t-162 44q-92 4 -184 -84q-60 -52 -148 -176q-96 -136 -160 -312q-64 -192 -64 -372q0 -204 88 -352q72 -120 188 -190t252 -70q72 0 194 44t154 44q28 0 172 -52
q140 -48 236 -40q256 20 388 204q-232 140 -232 392q4 196 144 324q64 60 140 92q-16 52 -36 96zM1454 40q0 156 -112 288q-144 168 -316 156v-40q0 -152 116 -288q60 -64 146 -108t166 -48v40z" />
</svg>
