<?xml version="1.0" standalone="no"?>
<!DOCTYPE svg PUBLIC "-//W3C//DTD SVG 1.1//EN" "http://www.w3.org/Graphics/SVG/1.1/DTD/svg11.dtd" >
<svg xmlns="http://www.w3.org/2000/svg" xmlns:xlink="http://www.w3.org/1999/xlink" version="1.1" width="2048" height="2048" viewBox="-10 0 2068 2048">
   <path fill="currentColor"
d="M0 1024l104 -104l104 -104v148h608q12 8 22 18t22 24t20 18q-8 12 -26 28t-26 24h-620v156zM1840 952v-136l66 66l76 76l66 66l-104 104l-104 104v-148h-608q-16 -12 -38 -34l-26 -26q8 -12 26 -28t26 -28q52 0 282 2t278 -2q56 4 60 -16zM816 208l208 -208l66 66l76 76
l66 66h-148v604q-8 16 -32 40l-28 28l-52 -52v-620h-156zM964 1228l32 -32l28 -28l26 26q18 18 30 26v620h152l-104 104l-104 104l-208 -208h148v-612zM276 748q80 -84 164 -164l98 98l114 114l100 100h-476v-148zM748 280h152v476l-312 -312zM580 1612l156 -156l156 -156
v476h-4h-4h-4h-4h-4h-4h-4h-4h-4h-4h-4h-4h-4h-4h-4h-4h-4h-4h-4h-4h-4h-4h-4h-4h-4h-4h-4h-4h-4h-4h-4h-4h-4h-4h-4h-8l-52 -52l-60 -60zM276 1300v-74v-74h476l-156 156l-156 156zM1152 752v-480h4h4h4h4h4h4h4h4h4h4h4h4h4h4h4h4h4h4h4h4l4 4h4h4h4h4h4h4h4h4h4h4h4h4h4
h4h8q80 80 164 160zM1292 896l312 -312q80 84 164 164v74v74h-476zM1608 1460l-156 -156l-156 -156h476v76v76zM1152 1764v-476l156 156l156 156l-164 164h-148zM276 648v-372h376q-108 104 -168 164l416 408v48h-52l-408 -408q-24 24 -164 160zM1152 1148h48l412 412
l164 -164v376h-372l164 -168l-416 -412v-44zM1552 424l-152 -152h376v376l-168 -168l-412 416h-40v-52l368 -372zM844 1152h48v52l-404 408l164 160h-372v-372l164 164z" />
</svg>
