<?xml version="1.0" standalone="no"?>
<!DOCTYPE svg PUBLIC "-//W3C//DTD SVG 1.1//EN" "http://www.w3.org/Graphics/SVG/1.1/DTD/svg11.dtd" >
<svg xmlns="http://www.w3.org/2000/svg" xmlns:xlink="http://www.w3.org/1999/xlink" version="1.1" width="2048" height="2048" viewBox="-10 0 2068 2048">
   <path fill="currentColor"
d="M1022 0q423 0 724.5 301.5t301.5 724.5t-301.5 722.5t-724.5 299.5t-722.5 -299.5t-299.5 -722.5t299.5 -724.5t722.5 -301.5zM1024 95q-124 0 -221 175.5t-134 452.5q-4 16 -4 37q-13 86 -13 177q-4 42 -4 89.5t4 84.5q0 91 13 177q115 17 243 21q58 4 116 4t111 -4
q133 -4 248 -21q4 0 25 -4q244 -33 394.5 -103t150.5 -157q0 -384 -272.5 -656.5t-656.5 -272.5zM1024 562q215 0 355 161q17 20 29 41q78 115 78 260q0 50 -90.5 87t-235.5 49q-66 9 -136 9t-136 -9q-9 -66 -9 -136t9 -136q8 -83 20 -149q46 -177 116 -177z" />
</svg>
