<?xml version="1.0" standalone="no"?>
<!DOCTYPE svg PUBLIC "-//W3C//DTD SVG 1.1//EN" "http://www.w3.org/Graphics/SVG/1.1/DTD/svg11.dtd" >
<svg xmlns="http://www.w3.org/2000/svg" xmlns:xlink="http://www.w3.org/1999/xlink" version="1.1" width="2048" height="2048" viewBox="-10 0 2058 2048">
   <path fill="currentColor"
d="M200 665q4 -8 2 -20t0 -24t18 -28q-16 60 -20 72zM268 439q0 4 14 2t-2 31q-12 8 -20 16h-4q16 -24 12 -49zM1062 8h-12q4 -4 93 -8q-8 0 -38.5 2t-42.5 6zM1800 923q-12 109 -64 202q44 -89 60 -190zM865 1125l12 32q-32 -52 -36 -77q16 37 24 45zM812 1129
q16 28 36.5 60.5t28.5 48.5q-12 -8 -69 -85zM1659 883q0 32 -32 129l-33 16q-12 24 -10 36t-2 33q-121 104 -141 108q-4 -4 16 -28q-16 12 -32 28.5t-32 26.5t-53 18v-4q-145 68 -298 -42.5t-153 -288.5q0 4 -8 20q-8 -96 38.5 -179t130.5 -123q85 -40 171.5 -26t147.5 70
q-89 -121 -234 -113q-73 0 -137.5 40.5t-88.5 92.5q-28 21 -50 79.5t-26 66.5q-25 153 25.5 243.5t175.5 183.5q16 4 14 18l-2 14q-76 -36 -133 -101q36 53 69 77q-25 -8 -73 -60.5t-52 -52.5q60 105 207 169.5t240 24.5q-121 8 -197 -21q-16 -8 -30.5 -18t-24.5 -20t-6 -14
q282 109 504 -68q16 -13 38.5 -35t36.5 -34t18 -12q-8 12 -6 18t-6 18q16 -28 14 -46t26 -59l20 29q-4 -25 28.5 -89.5t28.5 -104.5q12 -20 12 12q0 28 -12 69q16 -20 14 -66.5t-2 -58.5q20 48 20 56q-4 -40 -2 -56t14 -44.5t12 -36.5q0 -4 -6 -2t-8 2t-6 -10t-8 -38
q0 -16 6 -20l6 -4q-16 -9 -32 -73q4 -4 10 4t10 16t8 12q0 -12 -8 -44t-8 -49q-12 -32 -20 -20q-4 8 -12 -8q-13 -32 -8.5 -42t10.5 -8t16 2t10 -16q40 60 84 213q-12 -72 -44 -153q8 4 4 -28q-4 -24 -4 -28q4 0 20 28q-32 -117 -120.5 -220t-193.5 -155q36 32 28 32
q-20 -12 -34 -22t-16 -14t-6 -10t-4 -10q-21 -16 -53 -8t-40 8q-45 -24 -73 -34t-66.5 -22.5t-70.5 -24.5l4 20q-24 -12 -70.5 -4t-74.5 4l44 -16q-28 4 -60 0t-61 4l49 -28q-20 4 -65 12q-40 0 -36 -4q-12 4 -72.5 28.5t-92.5 40.5t-78.5 44t-74.5 56l-4 -20
q-13 16 -59 56.5t-80.5 79t-38.5 62.5l-12 4l-48 105q-24 44 -33 24q-48 101 -100 266q8 12 8 52.5t-2 86.5t-2 99q-16 338 201.5 640.5t515.5 383.5q45 16 210 20q-36 -8 -84.5 -16t-92.5 -24q-25 -12 -43 -26.5t-38 -36.5t-32 -34l16 28q-41 -12 -61 -28t-56 -28l20 -24
q-20 0 -46.5 -24.5t-38.5 -44.5l-28 4q-52 -69 -52 -101l-8 16q-4 -4 -20 -28q-77 -101 -65 -105q4 0 16 4q-36 -32 -44 -44l12 -16q-57 -73 -53 -105q17 24 41 32q-28 -64 -46.5 -84.5t-30.5 -14t-26 -12t-34 -78.5l12 -4l-24 -41l8 -52q-20 -24 -26.5 -74.5t-2 -93
t10.5 -115t10 -96.5t34 -80.5t38 -84.5l-16 -4q36 -61 131 -151.5t147 -86.5l12 -20l-8 4q-16 12 -20 4q36 -36 60.5 -50.5t56.5 -16.5t44 -6l17 -16q-5 4 -17 4q-24 4 -24 -4q41 -8 87 -36t123 -36q4 4 -12 12q-28 8 -33 12q61 -32 180 -24t208 48q112 52 205 179t97 260h8
v69q0 48 -2 88.5t-14 72.5zM1091 36h-13h13zM1054 24l49 8q-4 0 -12 4q4 -4 -25 -8q-8 -4 -12 -4zM1433 863q-4 12 -8 -4l-8 -16q4 -13 8 -21t8 4q4 13 0 37zM1369 1036q32 -44 36 -89q0 17 -28 61q-28 20 -28 12t12 -28q16 -24 16 -33q-20 33 -28.5 47t-2 16t14.5 4t8 10z
M1183 1080q-36 4 12 17q20 8 41 8q16 -12 32 -29q-36 13 -85 4z" />
</svg>
