<?xml version="1.0" standalone="no"?>
<!DOCTYPE svg PUBLIC "-//W3C//DTD SVG 1.1//EN" "http://www.w3.org/Graphics/SVG/1.1/DTD/svg11.dtd" >
<svg xmlns="http://www.w3.org/2000/svg" xmlns:xlink="http://www.w3.org/1999/xlink" version="1.1" width="2048" height="2048" viewBox="-10 0 2069 2048">
   <path fill="currentColor"
d="M0 34q537 79 950.5 199t642 248t340 249.5t115.5 226.5q4 143 -174.5 304.5t-434.5 287t-514 230.5t-438 160l-181 59q-8 4 -18.5 6t-46 8.5t-65.5 -6.5q-92 -21 -142 -101q-55 -96 8 -201q50 -84 155 -97q42 -12 115.5 -29t273 -71.5t369.5 -115.5t350.5 -155
t272.5 -191t81.5 -218.5t-168 -243t-533 -264.5t-958.5 -285zM0 34z" />
</svg>
