<?xml version="1.0" standalone="no"?>
<!DOCTYPE svg PUBLIC "-//W3C//DTD SVG 1.1//EN" "http://www.w3.org/Graphics/SVG/1.1/DTD/svg11.dtd" >
<svg xmlns="http://www.w3.org/2000/svg" xmlns:xlink="http://www.w3.org/1999/xlink" version="1.1" width="2048" height="2048" viewBox="-11 0 2069 2048">
   <path fill="currentColor"
d="M1062 777h210v215h105q73 0 146 -25q40 -12 72 -32q-44 -52 -48 -133q-12 -130 48 -202l25 -29l24 25q117 93 133 210q134 -41 243 24l28 16l-16 28q-81 158 -303 146q-134 331 -410.5 499t-644.5 168q-420 0 -602 -315h-4l-16 -41q-65 -141 -49 -307v-32h182v-215h210
v-210h416v-206h251v416zM371 826h16v154h-16v-154zM343 826h16v154h-16v-154zM314 826h17v154h-17v-154zM290 826h12v154h-12v-154zM262 826h12v154h-12v-154zM234 826h16v154h-16v-154zM217 814v182h182v-182h-182zM581 620h12v149h-12v-149zM553 620h16v149h-16v-149z
M525 620h16v149h-16v-149zM496 620h16v149h-16v-149zM472 620h12v149h-12v-149zM444 620h12v149h-12v-149zM428 604v182h181v-182h-181zM581 826h12v154h-12v-154zM553 826h16v154h-16v-154zM525 826h16v154h-16v-154zM496 826h16v154h-16v-154zM472 826h12v154h-12v-154z
M444 826h12v154h-12v-154zM428 814v182h181v-182h-181zM791 826h12v154h-12v-154zM763 826h12v154h-12v-154zM735 826h16v154h-16v-154zM706 826h17v154h-17v-154zM678 826h16v154h-16v-154zM654 826h12v154h-12v-154zM638 814v182h182v-182h-182zM791 620h12v149h-12v-149z
M763 620h12v149h-12v-149zM735 620h16v149h-16v-149zM706 620h17v149h-17v-149zM678 620h16v149h-16v-149zM654 620h12v149h-12v-149zM638 604v182h182v-182h-182zM997 826h16v154h-16v-154zM973 826h12v154h-12v-154zM945 826h12v154h-12v-154zM917 826h16v154h-16v-154z
M888 826h16v154h-16v-154zM864 826h12v154h-12v-154zM848 814v182h182v-182h-182zM997 620h16v149h-16v-149zM973 620h12v149h-12v-149zM945 620h12v149h-12v-149zM917 620h16v149h-16v-149zM888 620h16v149h-16v-149zM864 620h12v149h-12v-149zM848 604v182h182v-182h-182z
M997 410h16v149h-16v-149zM973 410h12v149h-12v-149zM945 410h12v149h-12v-149zM917 410h16v149h-16v-149zM888 410h16v149h-16v-149zM864 410h12v149h-12v-149zM848 394v181h182v-181h-182zM1207 826h17v154h-17v-154zM1179 826h16v154h-16v-154zM1155 826h12v154h-12v-154
zM1127 826h12v154h-12v-154zM1098 826h17v154h-17v-154zM1070 826h16v154h-16v-154zM1058 814v182h178v-182h-178zM597 1287q-20 0 -34 16t-14 36t14 34.5t34 14.5t36.5 -14.5t16.5 -34.5t-16.5 -36t-36.5 -16zM597 1303q8 0 12 4q-4 4 -4 12q0 12 12 12q9 0 13 -8q4 8 4 16
q0 37 -36.5 37t-36.5 -36.5t36 -36.5zM731 1650q-166 -80 -231 -226q-68 20 -165 24h-77h-97q202 198 513 202h57z" />
</svg>
