<?xml version="1.0" standalone="no"?>
<!DOCTYPE svg PUBLIC "-//W3C//DTD SVG 1.1//EN" "http://www.w3.org/Graphics/SVG/1.1/DTD/svg11.dtd" >
<svg xmlns="http://www.w3.org/2000/svg" xmlns:xlink="http://www.w3.org/1999/xlink" version="1.1" width="2048" height="2048" viewBox="-10 0 2068 2048">
   <path fill="currentColor"
d="M1024 0q424 0 724 300t300 724t-300 724t-724 300t-724 -300t-300 -724t300 -724t724 -300zM1024 84q-388 0 -664 276t-276 664q0 268 140 492q156 -20 304 -72q-28 -28 -48 -60q-104 -148 -116 -332q-16 -172 52 -340t196 -296q160 -164 344 -196q104 -20 200 4
q100 28 168 104q72 72 92 180q20 96 0 204q-40 172 -200 356q-204 240 -484 392q104 56 228 64q148 8 308 -64q128 -56 260 -172q252 -220 400 -520q-84 -300 -334 -492t-570 -192zM1028 276q-96 0 -188 52q-152 80 -260 292q-84 168 -100 320q-16 188 64 332q40 72 104 124
q32 -12 56 -28q296 -144 488 -392q124 -168 144 -324q8 -92 -20 -176q-32 -88 -100 -140q-80 -60 -188 -60zM1952 900q-132 248 -340 444q-196 180 -396 252q-248 84 -464 4q-76 -32 -144 -80q-148 64 -308 100q132 160 320 252t404 92q388 0 662 -276t274 -664
q0 -64 -8 -124z" />
</svg>
