<?xml version="1.0" standalone="no"?>
<!DOCTYPE svg PUBLIC "-//W3C//DTD SVG 1.1//EN" "http://www.w3.org/Graphics/SVG/1.1/DTD/svg11.dtd" >
<svg xmlns="http://www.w3.org/2000/svg" xmlns:xlink="http://www.w3.org/1999/xlink" version="1.1" width="2048" height="2048" viewBox="-10 0 2068 2048">
   <path fill="currentColor"
d="M1024 0q424 0 724 300t300 724t-300 724t-724 300h-788h-4q-96 0 -164 -68t-68 -164v-792q0 -424 300 -724t724 -300zM1036 72h-40q-128 4 -248 40q-184 56 -332 180q-156 128 -244 308q-72 140 -92 292q-8 64 -8 136v162v158v472q4 80 68 128q44 28 96 28h496h316
q216 -4 408 -104q172 -88 300 -236q120 -144 176 -324q44 -148 44 -300q-4 -164 -56 -312q-64 -180 -192 -318t-300 -218q-124 -60 -264 -80q-64 -12 -128 -12zM1232 420q132 0 232 92t100 224v52q-4 36 -32 58t-66 18t-58 -34t-12 -66v-28q0 -72 -48 -108t-116 -36
q-60 0 -106 44t-46 100v260h148q56 0 78 42t0 86t-78 44h-148v56v36v152q-16 144 -124 244t-256 100q-156 0 -268 -110t-112 -266q8 -164 120 -274t276 -110h120v172h-120h-4q-92 4 -156 62t-64 150q0 84 62 146t146 62q88 0 148 -58t60 -150v-644q0 -20 4 -36
q12 -120 106 -200t214 -80z" />
</svg>
