<?xml version="1.0" standalone="no"?>
<!DOCTYPE svg PUBLIC "-//W3C//DTD SVG 1.1//EN" "http://www.w3.org/Graphics/SVG/1.1/DTD/svg11.dtd" >
<svg xmlns="http://www.w3.org/2000/svg" xmlns:xlink="http://www.w3.org/1999/xlink" version="1.1" width="2048" height="2048" viewBox="-10 0 2068 2048">
   <path fill="currentColor"
d="M105 14q117 0 348 122q-203 127 -330 335q-181 -344 -95 -430q22 -27 77 -27zM1024 32q240 0 449 109l-64 36q-90 -27 -131 14q-50 49 0 171.5t170 242.5t242 170t172 0q36 -36 18 -113q18 -37 41 -73q104 209 104 444q0 412 -292 706.5t-706.5 294.5t-709 -294.5
t-294.5 -709t294.5 -706.5t706.5 -292zM2020.5 41.5q72.5 72.5 -47.5 328t-192 328.5q-37 36 -125 2t-174 -120t-120 -174.5t2 -124.5q72 -72 328 -192t328.5 -47.5z" />
</svg>
