<?xml version="1.0" standalone="no"?>
<!DOCTYPE svg PUBLIC "-//W3C//DTD SVG 1.1//EN" "http://www.w3.org/Graphics/SVG/1.1/DTD/svg11.dtd" >
<svg xmlns="http://www.w3.org/2000/svg" xmlns:xlink="http://www.w3.org/1999/xlink" version="1.1" width="2048" height="2048" viewBox="-10 0 2058 2048">
   <path fill="currentColor"
d="M850 0q144 0 271 56q272 120 550 369.5t318 401.5q16 52 12 126t-28 118q-80 148 -384 395q-256 216 -543.5 380t-515.5 196q-164 24 -284 -44q-107 -60 -167 -180q-32 -64 -32 -188q0 -128 179 -315q88 -92 292 -268q-20 -12 -84 -46t-104 -54t-87.5 -56t-79.5 -68
q-88 -96 -76 -216q20 -171 207.5 -361t447.5 -234q52 -12 108 -12zM846 8h-20q-284 12 -501.5 216t-201.5 371q0 32 20 64t49.5 60t67.5 56t78 52t82 46t78 38t64 28t44 18t16 10q-156 132 -252 220q-179 164 -247 275.5t-20 239.5q36 108 109.5 154t163.5 42t198 -24
q260 -52 601.5 -256t575.5 -435.5t214 -355.5q-28 -144 -310 -391.5t-522 -363.5q-135 -68 -287 -64zM838 52q144 -4 367 124q244 136 492 395q108 120 144 188q32 64 12 132q-8 32 -148 172t-296 260q-383 299 -691 411q-120 48 -242 60t-214 -28q-59 -32 -83 -94t-20 -126
q4 -28 20 -64t49.5 -76t61.5 -71.5t80 -79.5t80 -74t92 -80t84 -70q116 -100 60 -128q-28 -12 -122 -56t-138 -66t-108 -60t-104 -70q-55 -48 -39 -124q35 -167 203 -291q140 -108 206 -138t210 -46h44zM934 360h-12q-148 4 -160 195q-4 92 126 160t198 44q103 -36 143 -90
t22 -104t-62 -91.5t-103 -69.5q-84 -44 -152 -44zM946 475q100 -4 173.5 66t-17.5 154h-4q0 -28 -86 -48t-98 8q-84 -60 -20 -156q16 -24 52 -24z" />
</svg>
