<?xml version="1.0" standalone="no"?>
<!DOCTYPE svg PUBLIC "-//W3C//DTD SVG 1.1//EN" "http://www.w3.org/Graphics/SVG/1.1/DTD/svg11.dtd" >
<svg xmlns="http://www.w3.org/2000/svg" xmlns:xlink="http://www.w3.org/1999/xlink" version="1.1" width="2048" height="2048" viewBox="-10 0 2068 2048">
   <path fill="currentColor"
d="M951 1942q-288 0 -498.5 -194t-210.5 -474v-463v-117h-242v-588l1018 5l317 4q292 0 502.5 191.5t210.5 475.5v1160h-1097zM1894 1633v-851q0 -213 -163 -363t-396 -150h-317l-864 -4v275h96q54 0 100 44t46 106v584q0 213 163 363t392 150h759q75 0 129.5 -43.5
t54.5 -110.5zM1143 574q104 0 183 75q75 -75 180 -75q112 0 189.5 79t77.5 192v458q-13 117 -96 205q-100 100 -238 100h-605q-104 -13 -192 -96q-96 -96 -96 -234v-842h159v813q0 79 48 135.5t110 56.5l543 4q83 0 141.5 -50t58.5 -121v-429q0 -42 -29.5 -71t-69 -29
t-68.5 29t-29 71v367h-167v-367q0 -42 -29 -71t-71 -29t-71 29t-29 71v367h-167v-367q0 -113 79 -192t188 -79z" />
</svg>
