<?xml version="1.0" standalone="no"?>
<!DOCTYPE svg PUBLIC "-//W3C//DTD SVG 1.1//EN" "http://www.w3.org/Graphics/SVG/1.1/DTD/svg11.dtd" >
<svg xmlns="http://www.w3.org/2000/svg" xmlns:xlink="http://www.w3.org/1999/xlink" version="1.1" width="2048" height="2048" viewBox="-10 0 2068 2048">
   <path fill="currentColor"
d="M0 104l1020 8h316q292 0 502 194t210 474v1164h-1096q-288 0 -500 -194t-212 -478v-392v-120h-240v-656zM52 152v564h232v112v444q0 268 202 454t478 186h1052v-1112q0 -272 -202 -456t-482 -184l-304 -4zM200 304l828 4h304q220 0 376 144t156 348v816q0 64 -50 106
t-122 42h-728q-220 0 -376 -144t-156 -348v-560q0 -60 -44 -102t-96 -42h-92v-264zM576 468v808q0 132 92 224q80 80 184 92h576q136 0 232 -96q80 -84 92 -196v-440q0 -108 -76 -184t-180 -76q-100 0 -176 72q-72 -72 -172 -72q-108 0 -182 76t-74 184v352h160v-352
q0 -40 28 -68t66 -28t66 28t28 68v352h160v-352q0 -40 28 -68t68 -28t66 28t26 68l4 412q0 68 -56 116t-136 48l-520 -4q-64 0 -108 -54t-44 -130v-780h-152z" />
</svg>
