<?xml version="1.0" standalone="no"?>
<!DOCTYPE svg PUBLIC "-//W3C//DTD SVG 1.1//EN" "http://www.w3.org/Graphics/SVG/1.1/DTD/svg11.dtd" >
<svg xmlns="http://www.w3.org/2000/svg" xmlns:xlink="http://www.w3.org/1999/xlink" version="1.1" width="2048" height="2048" viewBox="-10 0 2058 2048">
   <path fill="currentColor"
d="M876 792q-48 0 -82 -34t-34 -82t34 -82t82 -34t82 34t34 82t-34 82t-82 34zM1188 708q-44 0 -76 -32t-32 -76t32 -76t78 -32t76 32t30 76t-30 76t-78 32zM1100 400q0 40 -28 68t-68 28t-68 -28t-28 -68t28 -70t68 -30t68 30t28 70zM1248 236q0 36 -26 62t-64 26t-64 -26
t-26 -62t26 -62t64 -26t64 26t26 62zM1048 76q0 32 -24 56t-56 24t-54 -24t-22 -56t22 -54t54 -22t56 22t24 54zM552 896q60 -60 144 -8q164 88 328 88q96 0 162 -18t162 -70q80 -52 140 8q188 240 188 452q0 288 -192 494t-462 206t-460 -206t-190 -494q0 -216 180 -452z
M640 1004q-144 204 -144 344q0 236 156 400t372 164q212 0 364 -164t152 -400q0 -156 -136 -344q-188 104 -380 104t-384 -104z" />
</svg>
