<?xml version="1.0" standalone="no"?>
<!DOCTYPE svg PUBLIC "-//W3C//DTD SVG 1.1//EN" "http://www.w3.org/Graphics/SVG/1.1/DTD/svg11.dtd" >
<svg xmlns="http://www.w3.org/2000/svg" xmlns:xlink="http://www.w3.org/1999/xlink" version="1.1" width="2048" height="2048" viewBox="-11 0 2069 2048">
   <path fill="currentColor"
d="M1244 332q-4 -28 -16 -32t-28 20l-232 364q-36 52 -104 44l-425 -68q-24 -4 -32 8t8 32l273 332q44 52 12 112l-197 380q-12 24 -2 34t34 2l401 -156q64 -24 108 24l304 304q20 20 32 14t12 -34l-24 -428q-4 -64 56 -96l384 -192q24 -12 22 -26t-30 -22l-416 -112
q-24 -4 -46 -28t-26 -52zM1948 808l-72 136zM1948 808l-72 136zM1948 808q-20 0 -28 8l-24 52q-24 40 -28 50t8 26q20 0 28 -8l24 -48q24 -44 28 -52t-8 -28zM2048 968h-160h160zM2048 968h-160h160zM2048 968q-12 -20 -20 -20h-60h-58q-10 0 -22 20q12 20 24 20h56h58
q10 0 22 -20zM1960 1124l-84 -132zM1960 1124l-84 -132zM1960 1124q12 -20 8 -28l-32 -48q-24 -40 -30 -48t-30 -8q-8 20 -4 28l32 48q24 44 30 52t26 4zM1776 1128l76 -136zM1776 1128l76 -136zM1776 1128q24 0 28 -8l28 -52q24 -40 28 -48t-8 -28q-24 0 -28 8l-28 52
q-24 40 -28 48t8 28zM1836 968zM1764 812l84 136zM1764 812l84 136zM1764 812q-12 20 -4 28l28 48q28 44 32 52t28 8q12 -20 8 -32l-32 -48q-24 -40 -30 -48t-30 -8zM207 640q-180 204 -204 476q-12 148 20 294t120 238q252 268 865 -176q20 -12 54 -50t54 -54
q-597 432 -865 176q-156 -148 -140 -512q8 -276 204 -496q-16 20 -54 52t-54 52z" />
</svg>
