<?xml version="1.0" standalone="no"?>
<!DOCTYPE svg PUBLIC "-//W3C//DTD SVG 1.1//EN" "http://www.w3.org/Graphics/SVG/1.1/DTD/svg11.dtd" >
<svg xmlns="http://www.w3.org/2000/svg" xmlns:xlink="http://www.w3.org/1999/xlink" version="1.1" width="2048" height="2048" viewBox="-11 0 2069 2048">
   <path fill="currentColor"
d="M1832 854q-36 -2 -60 -28t-24 -62t26 -60t62 -22t62 28t24 62t-28 60t-62 22zM1852 776q36 0 36 -26t-38 -26t-38 26t40 26zM849 1351l-127 -64l-4 -20q-8 -27 -16 -47q-32 -88 -102 -150t-154 -78q-204 -36 -288 124q-48 92 6 193.5t166 113.5q108 12 156 -48
q48 -64 12 -135q-32 -68 -104 -76q-56 -4 -76 28q-8 16 -8 28q0 24 14 33.5t26 9.5h24l8 -4h4v-4q44 -3 56 36v12q0 24 -20 36l-4 4q-8 4 -20 8q-28 8 -52 8q-44 0 -88 -38t-44 -101q0 -80 68 -124q104 -68 224 4q72 44 98 121.5t6 145.5q-28 92 -106 138t-186 34
q-164 -12 -252 -144q-40 -52 -56 -116q-28 -111 20 -227q84 -208 312 -352l12 -4q148 -92 297.5 -138t225.5 -50t196 0q208 8 440 88v-68h4q295 40 419 112q12 8 32 28q20 24 48 100t32 108q-4 0 -12 8q-96 64 -180 60q-112 -12 -291 -128q32 72 36 80q179 96 263 92
q84 0 164 -52h12v8q-4 20 -8 32l-4 4q-4 16 -12 24q-16 16 -84 44q-104 48 -264 44q-36 0 -99 -8q-68 -12 -114 0t-54 64q-8 48 14 105.5t40 85.5t26 40v4h-4q-152 -72 -156 -76h-8l-4 -4q-20 -20 -80 -91q-120 -140 -284 -100q-32 8 -60 36q-48 44 -36 159q0 28 4 40v4h-4z
M1748 680q-36 32 -38 84t32 88t84 38t88 -32t40 -84t-34 -88t-86 -40t-86 34zM1553 1363q-4 0 -4 -4v-24l-4 8h-2h-6l-4 -8v24q0 4 -4 4t-4 -4v-28h-12v28q0 4 -4 4h-4v-4v-28h-12h-4v-4q0 -4 4 -4h40v4l8 12l8 -12q0 -4 4 -4h4v36q0 4 -4 4z" />
</svg>
