<?xml version="1.0" standalone="no"?>
<!DOCTYPE svg PUBLIC "-//W3C//DTD SVG 1.1//EN" "http://www.w3.org/Graphics/SVG/1.1/DTD/svg11.dtd" >
<svg xmlns="http://www.w3.org/2000/svg" xmlns:xlink="http://www.w3.org/1999/xlink" version="1.1" width="2048" height="2048" viewBox="-10 0 2058 2048">
   <path fill="currentColor"
d="M658 0l52 16q28 -4 36 -4t22 8t18 12q44 -12 80 28l8 8l28 -4q88 52 120 180q36 -128 124 -180l28 4q0 -4 8 -8q36 -40 80 -28q4 -4 18 -12t22 -8t36 4q4 0 18 -6t22 -8t22 0t26 14q56 -24 88 8q44 -8 64 16q76 0 96 32q48 -4 66 24t-2 60q28 44 -4 84q16 36 -20 80
q8 40 -32 72q4 40 -56 76q-8 48 -68 64q-8 36 -68 52q88 52 136 122t48 198l12 24q64 40 104 114t34 174t-82 184q-4 36 -44 144q-12 116 -86 188t-126 84q-108 84 -208 120q-108 112 -252 112h-4q-144 0 -252 -112q-100 -36 -208 -120q-52 -12 -126 -84t-90 -188
q-36 -108 -40 -144q-76 -84 -82 -184t34 -174t104 -114l12 -24q0 -128 48 -198t136 -122q-60 -16 -68 -52q-60 -16 -68 -64q-60 -36 -56 -76q-40 -32 -32 -72q-40 -44 -20 -80q-32 -40 -4 -84q-24 -32 -4 -60t68 -24q20 -32 96 -32q20 -24 64 -16q32 -32 88 -8
q16 -16 36 -16zM1394 52q-36 12 -76 48q-16 -20 -4 -36q-40 20 -64 52q-8 -8 -8 -36q-12 8 -68 68q-4 -4 -12 -32q-36 40 -64 90t-24 110t64 88q160 -132 404 -212q-268 136 -368 248q20 84 100 110t156 18q-20 -8 -28 -20q8 -4 48 -8t60 -16q-20 -4 -28 -16q80 -24 96 -40
q-28 0 -40 -8q76 -40 92 -56q-32 -4 -36 -8q40 -28 72 -60q-28 4 -40 -4q60 -60 64 -68q-28 8 -44 0q4 -8 26 -26t34 -42q-40 4 -44 0q8 -32 40 -72h-32q-64 0 -64 -4l24 -24q-36 -8 -104 12q-12 -12 16 -36q-48 4 -88 20q0 -8 -2 -10t10 -14l12 -12q-48 8 -88 36
q-16 -12 8 -40zM658 52q24 28 12 40q-44 -28 -92 -36l12 12t10 14t-2 10q-40 -16 -88 -20q28 24 16 36q-68 -20 -104 -12l24 24q0 4 -96 4q32 40 40 72q-4 4 -44 0q12 24 34 42t26 26q-16 8 -44 0q4 8 64 68q-12 8 -40 4q32 32 76 60q-8 4 -40 8q16 16 92 56q-12 8 -40 8
q16 16 96 40q-8 12 -28 16q20 12 60 16t48 8q-8 12 -28 20q44 4 88 -2t100 -36t68 -90q-100 -112 -368 -248q244 80 404 212q60 -28 64 -88t-24 -110t-64 -90q-8 28 -12 32q-56 -60 -68 -68q0 28 -8 36q-24 -32 -64 -52q12 16 -4 36q-40 -36 -76 -48zM1014 576
q-76 0 -138 44t-62 84q0 44 60 80t148 40q96 0 154 -32t58 -76q4 -52 -68 -96t-144 -44h-8zM698 616q-116 4 -188 78t-68 198q4 56 192 -104q172 -152 132 -168q-36 -4 -68 -4zM1326 620q-32 0 -64 8q-48 8 124 156q188 164 200 116q4 -128 -70 -202t-190 -78zM1254 828
q-56 4 -100 32h-4q-72 48 -82 142t48 180t148 112t162 -22l2 -2l2 -2q72 -48 82 -142t-50 -178q-76 -112 -200 -120h-8zM786 840q-124 4 -200 120q-60 84 -48 178t84 142v4q72 44 162 18t146 -110t46 -178t-82 -142q-48 -32 -108 -32zM1606 968q-64 0 -36 200q24 188 84 196
q4 0 12 -4q48 -36 68 -110t-8 -154t-112 -128h-8zM422 972q-4 0 -12 4q-80 44 -108 126t-8 154t68 112q32 16 64 -64q60 -152 32 -280q-8 -52 -36 -52zM1034 1268h-4q-96 0 -166 64t-70 152t70 152t166 64t164 -64t68 -152t-66 -150t-162 -66zM1542 1348q-72 4 -180 124
q-56 64 -76 156t16 132q32 16 74 20t104 -28t106 -96q52 -76 48 -166t-40 -126q-24 -16 -52 -16zM490 1384q-24 0 -44 12q-36 20 -36 98t44 154q64 92 150 118t122 -6q40 -32 24 -116t-64 -148q-104 -116 -196 -112zM1046 1768h-16q-76 -4 -156 24t-80 64q0 32 76 82t152 46
q80 0 154 -52t74 -88q0 -32 -66 -54t-138 -22z" />
</svg>
