<?xml version="1.0" standalone="no"?>
<!DOCTYPE svg PUBLIC "-//W3C//DTD SVG 1.1//EN" "http://www.w3.org/Graphics/SVG/1.1/DTD/svg11.dtd" >
<svg xmlns="http://www.w3.org/2000/svg" xmlns:xlink="http://www.w3.org/1999/xlink" version="1.1" width="2048" height="2048" viewBox="-10 0 2068 2048">
   <path fill="currentColor"
d="M1024 122q424 0 724 300t300 724q0 300 -164 552q-60 -12 -124 -12q-108 0 -188 32q-8 4 -8 16v4q8 16 -4 28t-48 20q-28 4 -56 24t-54 52l-26 32q-48 36 -100 32q64 -88 68 -100q12 -24 34 -50t30 -38q40 -60 44 -80q8 -16 10 -48t2 -36t12 -42t16 -54q-4 -8 -18 -2
t-40 14t-38 8q-20 0 -48 -10t-44 -10t-44 12t-44 12q-4 0 -24 -10t-40 -10q-12 -4 -76 10t-120 10q-64 0 -122 -54t-82 -90q-24 -32 -52 -4q-16 8 -32 4t-20 -16q-52 -88 -104 -104q-52 -12 -82 20t-26 72q4 20 14 36t22 30t16 22q24 44 52 56t20 36q-4 16 -40 16
q-36 4 -60 -16q-28 -16 -48 -48q-24 -44 -76 -44q-20 0 -40 12q-80 40 -172 40h-72q-52 -156 -52 -324q0 -424 300 -724t724 -300zM1196 330q-44 0 -88 12q-4 0 -24 6t-36 10t-42 8t-56 2t-66 -10q-216 -48 -256 104l-44 180q-12 20 -2 48t30 54t92 56t188 54q72 12 112 32
t46 32t14 32q16 72 52 96q28 20 -16 28h-8q-52 8 -200 -38t-252 -106q-144 -88 -92 -192q-136 -12 -228 14t-108 86q-32 108 192 266t532 250q324 100 604 34t316 -262q16 -92 -52 -158t-204 -94q-20 76 -88 108q-4 4 -8 0t0 -12q24 -40 36 -64q20 -48 -4 -128
q-32 -112 -84 -226t-96 -158q-56 -60 -160 -64zM1196 378h8q48 4 82 20t34 40t-36 38t-84 14q-32 0 -60 -8q-4 0 -4 -4t4 -4q72 -16 68 -40q-4 -36 -120 -24q-8 0 -20 4q-4 0 -4 -4t4 -4q36 -20 96 -24q16 -4 32 -4zM712 502q12 0 24 12q28 36 64 36q12 0 50 -4t66 -4
q84 0 88 36q0 12 -10 20t-50 12q-120 8 -152 44q-16 12 -32 2t-28 -26l-12 -20q-20 -4 -36 -30t-4 -54q12 -24 32 -24zM1244 1606h4q20 16 4 44q-8 20 -24 32q-36 28 -80 0q-28 -20 -52 -16q-16 4 -22 -8t2 -24q4 -16 24 -22t52 10q48 28 64 12q12 -8 28 -28zM2012 1630
q28 0 28 28t-28 28t-28 -28t28 -28zM2012 1634q-24 0 -24 24t24 24t24 -24t-24 -24zM2004 1642h12q8 0 8 8t-8 12l8 12h-4l-8 -12h-4v12h-4v-32zM2008 1646h4q8 0 8 6t-8 6h-4v-12z" />
</svg>
