<?xml version="1.0" standalone="no"?>
<!DOCTYPE svg PUBLIC "-//W3C//DTD SVG 1.1//EN" "http://www.w3.org/Graphics/SVG/1.1/DTD/svg11.dtd" >
<svg xmlns="http://www.w3.org/2000/svg" xmlns:xlink="http://www.w3.org/1999/xlink" version="1.1" width="2048" height="2048" viewBox="-11 0 2070 2048">
   <path fill="currentColor"
d="M1032 0q412 4 710 296t306 708q8 424 -286 730t-718 314t-730 -286t-314 -718t286 -730t718 -314h28zM1020 288q-24 4 -32 26t-10 60t-2 50q-12 8 -10 18t6 26t4 20q-4 20 12 38t36 18t28 -20q24 -68 4 -180q-8 0 -12 -28t-24 -28zM1012 588q-24 4 -42 22t-24 34t-18 52
t-12 44q-20 84 -26 192t-4 196t-2 196q0 8 4 20t-8 16q-16 36 -44 38t-72 -20t-56 -26q-28 -8 -104 -48t-124 -40q-68 -24 -112 32t20 100q8 16 24 28t26 18t32 18t30 16q44 28 134 100t166 114t160 46q104 20 216 -84q40 -28 140 -84t148 -92q120 -72 160 -172
q52 -48 6 -88t-98 -20q-32 12 -136 90t-176 90q-52 -8 -84 -44t-8 -84q4 -4 -2 -20t2 -24q4 -12 2 -40t6 -36v-124v-124q-12 -80 -28 -208q-4 0 -10 -14t-8 -16t-8 -12t-10 -14l-12 -12t-14 -10t-14 -4t-20 -2zM1816 1048q-144 28 -164 120l4 4q28 48 80 32q48 -12 90 -62
t6 -90q-8 -4 -16 -4zM192 1132q36 128 108 144q28 -4 50 -28t-10 -44q-40 -36 -104 -72h-44z" />
</svg>
