<?xml version="1.0" standalone="no"?>
<!DOCTYPE svg PUBLIC "-//W3C//DTD SVG 1.1//EN" "http://www.w3.org/Graphics/SVG/1.1/DTD/svg11.dtd" >
<svg xmlns="http://www.w3.org/2000/svg" xmlns:xlink="http://www.w3.org/1999/xlink" version="1.1" width="2048" height="2048" viewBox="-10 0 2068 2048">
   <path fill="currentColor"
d="M1024 0q424 0 724 300t300 724t-300 724t-724 300t-724 -300t-300 -724t300 -724t724 -300zM972 368q-160 0 -292 68q-160 88 -160 244q0 148 156 228q116 64 272 64q136 0 212 32q84 40 84 116t-80 116q-84 44 -212 44q-124 0 -204 -68q-64 -52 -64 -104q0 -32 -32 -52
q-28 -20 -68 -20q-36 0 -60 20q-28 20 -28 52v208q4 48 24 80q28 36 80 36q56 0 76 -16q16 -12 20 -32v-6v-6q136 60 280 60q204 0 332 -88q136 -88 132 -224q0 -188 -192 -268q-120 -48 -300 -48q-104 0 -168 -44q-56 -36 -56 -80q0 -56 62 -108t182 -52q92 0 152 30t74 56
t18 46l4 4q16 60 92 60q36 0 60 -16q28 -20 28 -52v-196q0 -28 -32 -56q-32 -24 -68 -24t-60 16q-16 8 -28 24q-36 -16 -80 -28q-80 -16 -156 -16zM312 1204h-4q-20 4 -20 24l4 328q0 20 24 20h1308q20 0 20 -20v-40q0 -24 -20 -24h-1248v-264q0 -20 -20 -24h-44z" />
</svg>
