<?xml version="1.0" standalone="no"?>
<!DOCTYPE svg PUBLIC "-//W3C//DTD SVG 1.1//EN" "http://www.w3.org/Graphics/SVG/1.1/DTD/svg11.dtd" >
<svg xmlns="http://www.w3.org/2000/svg" xmlns:xlink="http://www.w3.org/1999/xlink" version="1.1" width="2048" height="2048" viewBox="-10 0 2068 2048">
   <path fill="currentColor"
d="M1024 0q424 0 724 300t300 724t-300 724t-724 300t-724 -300t-300 -724t300 -724t724 -300zM1024 56q-400 0 -684 284t-284 684t284 684t684 284t684 -284t284 -684t-284 -684t-684 -284zM972 368q76 0 156 16q44 12 80 28q12 -16 28 -24q24 -16 60 -16t68 24
q32 28 32 56v196q0 32 -28 52q-24 16 -60 16q-76 0 -92 -60l-4 -4q-4 -20 -18 -46t-74 -56t-152 -30q-120 0 -182 52t-62 108q0 44 56 80q64 44 168 44q180 0 300 48q192 80 192 268q4 136 -132 224q-128 88 -332 88q-144 0 -280 -60v6v6q-4 20 -20 32q-20 16 -76 16
q-52 0 -80 -36q-20 -32 -24 -80v-208q0 -32 28 -52q24 -20 60 -20q40 0 68 20q32 20 32 52q0 52 64 104q80 68 204 68q128 0 212 -44q80 -40 80 -116t-84 -116q-76 -32 -212 -32q-156 0 -272 -64q-156 -80 -156 -228q0 -156 160 -244q132 -68 292 -68zM312 1204h44
q20 4 20 24v264h1248q20 0 20 24v40q0 20 -20 20h-1308q-24 0 -24 -20l-4 -328q0 -20 20 -24h4z" />
</svg>
