<?xml version="1.0" standalone="no"?>
<!DOCTYPE svg PUBLIC "-//W3C//DTD SVG 1.1//EN" "http://www.w3.org/Graphics/SVG/1.1/DTD/svg11.dtd" >
<svg xmlns="http://www.w3.org/2000/svg" xmlns:xlink="http://www.w3.org/1999/xlink" version="1.1" width="2048" height="2048" viewBox="-10 0 2058 2048">
   <path fill="currentColor"
d="M989 404h16q4 16 8 36q4 4 4 8q-8 -4 -16 -4q-36 -12 -76 0v-16v-20q12 -4 28 -4h36zM805 500q4 8 8 12l4 4q-12 8 -20 20q-4 4 -8 12q8 -28 16 -48zM777 587v4l4 4q0 4 8 8l8 6t16 14q0 8 -4 24q0 56 -4 68q-8 24 -36 64q-47 68 -59 108q-12 36 -8 76q-40 60 -68 128
q-48 104 -60 212q-4 32 0 64h-4q-16 -28 -24 -56q-16 -72 8 -144q4 -8 28 -60q16 -40 36 -100q16 -52 64 -166l48 -114q15 -24 23 -48t24 -92zM550 1359q4 4 4 8q0 -4 -4 -8zM558 1371v4v-4zM478 1371h4h-4zM478 1371h-4h4zM482 1371h4h-4zM486 1371q4 0 4 4q0 -4 -4 -4z
M562 1375q0 4 4 8q-4 -4 -4 -8zM566 1383q4 4 8 4q-4 0 -8 -4zM1317 1631v2v2q-52 167 -28 303q-4 0 -20 -4t-24 -4q-52 -12 -100 -20q-52 -8 -108 -12h-20h-8q-28 0 -60 -4h-24q-32 4 -72 12q-4 -12 -12 -40t-18 -52t-26 -40q8 4 36 16q64 24 140 28q16 0 24 -4
q56 -4 92 -16q28 -8 52 -20q56 -32 140 -111zM1317 1507v8v-4v-4zM1317 1527v8v-8zM1193 444q0 8 -4 16q4 -8 4 -16zM1189 464v4v-4zM1189 472q-4 4 -4 8q0 -4 4 -8zM1177 516h4h-4zM1181 516zM1185 520zM1357 568q8 11 12 19q12 16 56 116q8 16 16 36q12 12 24 34t20 30
q12 16 44 52t48 52q32 48 64 128q40 92 56 184q12 84 0 140q-4 40 -24 72v8q-4 16 -20 36q-36 52 -100 76q-36 12 -72 0q-28 -8 -40 -24q-16 -16 -20 -52q0 -32 8 -60q-8 -4 -20 -8q0 -8 2 -12t2 -8q28 -224 -40 -360q-28 -56 -72 -100q-12 -80 -44 -156q-4 -4 -8 -16
q8 -88 30 -122t78 -65zM1365 939l8 8q12 12 40 28t40 28q64 48 76 132q12 80 -36 220q-20 4 -32 16t-20 28v-4h8q0 -4 12 -12q8 -4 12 -8h4q4 0 8 -4q8 0 16 -4h8h12q16 -4 28 -4h16h4h8h4h12h-8q-4 0 -18 -4t-26 -4q-16 -4 -28 -4h-4q60 -152 28 -248q-28 -92 -128 -140
q-40 -20 -44 -24zM1213 683zM1217 691q4 12 8 20q-4 -8 -8 -20zM1481 1435h4h-4zM1497 1439h8h-8zM1509 1443h4h-4zM1517 1443h4h-4zM1525 1443zM1317 1595v16v-16zM1317 1615v16v-16zM1021 0q104 0 184 60q48 36 84 88q28 48 44 96q8 36 16 216q0 4 8 83.5t4 123.5
q-4 88 -112 88q-40 -84 -44 -88l-6 -16q-6 -16 -10 -24l-8 -16q4 0 4 -4t4 -24q0 -4 2 -13.5t2 -13.5q4 -8 0 -16q0 -8 -4 -12v-4h-4v-4q-4 -4 -8 -4q-4 -4 -6 -4h-2q-4 -4 -8 -4q16 -12 24 -28q8 -24 12 -52q0 -40 -8 -68q-16 -40 -44 -60q-16 -12 -36 -12q-20 -4 -36 4
q-8 4 -20 8q-32 24 -40 52q-16 40 0 88q4 4 4 8q-8 -4 -16 -4l-4 -4h-4h-4h-4h-4h-8q-8 -4 -20 0h-8h-12l-4 4h-4v-16q0 -32 -8 -56q-12 -28 -28 -48q-12 -12 -24 -16q-12 -8 -24 -8q-20 4 -32 16q-16 12 -20 32q-8 20 -4 72q4 44 12 64q4 16 16 28l4 4l-4 2q-4 2 -6 4t-2 4
t-4 2q-4 4 -4 8q-12 12 -12 24q-4 4 -4 8v4q0 4 -4 7v6v6l4 4q0 4 8 8l8 6q8 6 16 14q0 8 -4 24q0 56 -4 68q-4 16 -20 40q-4 -8 -12 -16q-12 -12 -16 -32q-4 -8 -4 -56q0 -8 -4 -48q0 -31 -2 -91t-2 -68q-4 -140 -4 -152q4 -88 32 -148q36 -72 108 -112q60 -32 140 -32z
M1133 244h-8q-8 0 -12 4q20 4 36 12q28 20 48 56q0 -4 -4 -16q-12 -32 -40 -52q-8 -4 -20 -4zM845 260h-4h-4q12 0 24 4t24 16q20 16 32 40q-4 -20 -12 -32l-8 -8q-16 -12 -28 -16t-24 -4zM610 1491q-20 -24 -40 -52q-28 -40 -48 -52q-16 -12 -32 -12q-16 -4 -32 0
q-16 8 -28 24q-8 8 -20 28t-16 28q-12 16 -26 24t-34 8h-36q-24 0 -36 4q-20 4 -32 16t-16 32q-4 16 0 40q0 12 2 42t6 46q0 52 -12 83l-12 24t-12 28t-4 24q0 16 4 24q8 16 28 24q8 4 32 12q16 4 42 12t34 8q28 8 114 28t130 40q92 36 116 36q40 4 75.5 -18t51.5 -58
q28 -52 12 -108q-8 -36 -40 -76q-8 -12 -26 -33.5t-25 -33.5q-12 -16 -68 -108q-8 -12 -12 -20q-8 -16 -14 -24t-12 -18t-14 -22zM530 1379q128 88 223 300q4 8 28 35.5t42 55.5t26 56q20 72 -16 128q-44 80 -147 88q-32 4 -72 -12l-20 -10t-22 -10t-14 -4q-44 -12 -124 -32
t-124 -36q-4 0 -22 -6t-32 -10t-22 -4q0 -4 -14 -6t-22 -6q-24 -8 -36 -32q-20 -32 -8 -72q4 -12 26 -55.5t2 -155.5q-8 -32 0 -52q4 -24 28 -44q24 -24 84 -24q48 -4 60 -8t32 -44q12 -24 20 -36q44 -48 124 -4zM1357 1391q12 0 32 4q52 8 68 12q8 0 22 4t22 8q32 8 60 4
q4 0 32 -6t48 -6t40 8q24 8 40 20q12 12 18 30t10 42v12v16v4q4 16 20 32q12 12 36 34t40 30l20 16q16 12 23 28l8 16q4 16 0 35v4q-7 20 -23 40q-24 28 -76 52q-108 56 -124 64q-36 24 -68 56q-52 48 -64 56q-44 32 -88 40q-56 8 -112 -20q-48 -20 -68 -52q-20 -28 -20 -80
q0 -40 16 -128q12 -59 16 -99q8 -80 4 -180q-4 -24 0 -36v-8q8 -24 20 -36q20 -16 44 -16h4zM1365 1411h-4q-20 0 -28 12q-4 0 -4 4l-8 8v4v4q0 4 -2 6t-2 6v4v12v6v2q8 100 0 188q-4 40 -16 99q-16 84 -16 124q0 44 16 68t56 40q48 24 96 16q40 -4 76 -32q12 -8 60 -52
q36 -36 72 -60q16 -12 124 -68q48 -24 68 -48q8 -8 16 -20v-4q0 -3 4 -7q4 -16 -4 -32q-4 0 -4 -4l-4 -4q-4 -4 -12 -8q0 -4 -20 -16q-16 -12 -42 -34t-38 -34q-20 -24 -24 -48v-28v-4q-4 -20 -8 -36q-8 -12 -16 -20q-8 -12 -28 -16q-16 -4 -30 -6t-40 4t-34 6q-36 4 -72 -4
q-8 -4 -22 -8t-18 -4q-16 -4 -68 -12q-16 -4 -24 -4zM1721 1511v12v-8v-4zM1721 1523l4 16q-4 -4 -4 -16zM929 416q36 -44 72 -12q8 12 16 28q12 20 16 24q-64 -32 -128 -4q0 -4 10 -16t14 -20zM734 723q-4 16 -12 54t-12 52t-12 44t-18 48t-26 42t-40 48q-16 24 -48 92
q-20 40 -24 56q-24 68 -8 148q4 32 16 52t36 44q76 68 155 132q52 40 68 64q8 16 12 36q0 20 -8 36q-8 12 -24 20q-12 4 -32 4h-20q-4 -8 -7 -12q-16 -68 -78 -162t-122 -142q-20 -8 -38 -12t-24 -4t-28 6t-26 10q-8 -32 -4 -60q4 -24 28 -68q32 -60 48 -92q28 -56 40 -104
q24 -84 28 -96q16 -32 64 -92q16 -20 60 -76q28 -36 56 -68zM1101 360h16q20 8 32 32q12 20 8 44q0 16 -8 24q-4 12 -16 20q-16 12 -32 8h-4q-8 -8 -28 -12q-8 -8 -14 -24t-6 -32q0 -24 12 -40q8 -8 16 -14t20 -6h4zM1109 376q-4 0 -6 4t2 8l4 2l4 2q8 4 10 8t4 12t6 10
t8 -2q4 -12 -8 -32q-8 -12 -20 -12h-4zM841 364h8l16 8q16 12 24 36t0 52q-8 0 -24 12t-20 12q-8 -4 -16 -12q-12 -12 -16 -24q-8 -20 -4 -48q4 -12 8 -20t16 -12q4 -4 8 -4zM853 380h-4v8q0 4 4 6l4 2l8 8v12v12h8q8 -8 4 -28q-4 -12 -16 -16q-4 -4 -8 -4zM913 436
q48 -16 92 -4q12 4 36 16q32 20 36 20q32 16 72 28q20 4 24 8q20 8 20 20h-8q-4 -8 -12 -12t-24 -8q-40 -8 -76 -28q-4 0 -32 -16q-24 -12 -40 -16q-40 -12 -88 4t-80 56q-20 12 -36 32q-12 12 -12 24q-4 0 -8 19v4q-4 -4 -2 -11.5t8 -21.5t10 -26q20 -16 36 -32
q36 -36 84 -56zM1193 552q12 4 12 15.5t-6 31.5t-6 24l-8 16q-8 4 -16 4q-4 4 -16 8h-4q-20 8 -52 30t-40 26q-24 16 -56 24q-36 8 -64 4q-32 0 -56 -16q-12 -8 -52 -56q-24 -28 -56 -48q-4 -4 -4 -14t8 -14v4l4 4q0 4 8 8l8 8q20 12 40 36q36 48 52 56q20 16 48 20t60 -8
q32 -8 56 -24q8 -4 40 -28t52 -32l8 -2q8 -2 12 -6q16 -4 20 -16q0 -4 4 -24q0 -4 2 -13.5t2 -13.5v-4zM1149 544h12q4 0 4 4l-2 4q-2 4 -6 8h-4q-4 4 -14 8t-14 7.5t-24 23.5q-36 28 -72 40q-20 8 -52 16q-44 8 -72 8q-40 0 -68 -20l-10 -10t-6 -10q-12 -8 -20 -8
q-12 -4 -16 -16v-4l8 4q12 0 28 8q4 4 12 10t12 10q24 16 64 16q24 4 64 -4q32 -8 52 -16q28 -12 68 -40q16 -11 28 -23l8 -8q8 -4 12 -8h8zM989 460q-4 0 -8 2t-2 6t10 4h4q0 4 6 6l6 2q12 0 12 -6t-12 -10q-8 -4 -16 -4zM901 464q-20 4 -12 16q4 4 4 0q4 0 6 -4t4 -4t2 -4
t-4 -4zM1597 1363l-28 -12q-24 -8 -36 -8q-20 -4 -40 4l-12 8zM1437 1399q4 -4 12 -4q0 -4 10 -10t18 -10q16 -8 44 -8q16 -4 28 -4h60h-12zM1453 1375l-16 12l-4 12h4zM1481 1355l-28 20z" />
</svg>
