<?xml version="1.0" standalone="no"?>
<!DOCTYPE svg PUBLIC "-//W3C//DTD SVG 1.1//EN" "http://www.w3.org/Graphics/SVG/1.1/DTD/svg11.dtd" >
<svg xmlns="http://www.w3.org/2000/svg" xmlns:xlink="http://www.w3.org/1999/xlink" version="1.1" width="2048" height="2048" viewBox="-10 0 2068 2048">
   <path fill="currentColor"
d="M1500.5 41q119.5 0 205 85.5t85.5 205t-85.5 205t-205 85.5t-205 -85.5t-85.5 -205t85.5 -205t205 -85.5zM1103 71h68q-60 77 -81 171l-9 68q-171 0 -322.5 81.5t-245.5 222.5q-64 -39 -137 -56q-43 -8 -85 -8h-22q124 -223 350.5 -353t483.5 -126zM1889 494
q218 333 137 727q-47 218 -184 389q-34 -129 -141 -214q64 -107 90 -227q55 -252 -64 -483q111 -68 162 -192zM1842 1610zM290.5 678q119.5 0 205 85.5t85.5 205t-85.5 205t-205 85.5t-205 -85.5t-85.5 -205t85.5 -205t205 -85.5zM462 1349q158 299 483 367q38 9 72 13
q5 133 86 244q-103 0 -205 -22q-236 -51 -415.5 -202.5t-268.5 -369.5q128 25 248 -30zM1436 1426q120 0 205.5 85.5t85.5 207t-85.5 205t-205.5 83.5t-205.5 -83.5t-85.5 -205t85.5 -207t205.5 -85.5z" />
</svg>
