<?xml version="1.0" standalone="no"?>
<!DOCTYPE svg PUBLIC "-//W3C//DTD SVG 1.1//EN" "http://www.w3.org/Graphics/SVG/1.1/DTD/svg11.dtd" >
<svg xmlns="http://www.w3.org/2000/svg" xmlns:xlink="http://www.w3.org/1999/xlink" version="1.1" width="2048" height="2048" viewBox="-10 0 2066 2048">
   <path fill="currentColor"
d="M1024 0q423 0 722.5 299.5t299.5 724.5t-299.5 724.5t-722.5 299.5t-722.5 -299.5t-299.5 -724.5t299.5 -724.5t722.5 -299.5zM1325.5 259q-93.5 0 -159.5 68t-66 162t66 160t159.5 66t161.5 -66t68 -160t-68 -162t-161.5 -68zM1016 283q-204 0 -379.5 102t-275.5 274h20
q32 0 68 8q56 12 104 44q76 -112 193.5 -176t253.5 -64q0 -28 4 -52q16 -72 64 -132q-28 -4 -52 -4zM1631 615q-40 96 -128 152q92 179 52 375q-20 96 -72 179q84 64 108 168q108 -136 144 -307q67 -304 -104 -567zM379 759q-94 0 -159.5 65.5t-65.5 161.5t65.5 162
t159.5 66t162 -66t68 -162t-68 -161.5t-162 -65.5zM517 1281q-96 44 -196 24q68 172 210 292t321 156q80 20 164 16q-64 -84 -68 -188l-56 -8q-255 -56 -375 -292zM1277.5 1345q-93.5 0 -161.5 66t-68 160t68 161.5t161.5 67.5t159.5 -67.5t66 -161.5t-66 -160t-159.5 -66z
" />
</svg>
