<?xml version="1.0" standalone="no"?>
<!DOCTYPE svg PUBLIC "-//W3C//DTD SVG 1.1//EN" "http://www.w3.org/Graphics/SVG/1.1/DTD/svg11.dtd" >
<svg xmlns="http://www.w3.org/2000/svg" xmlns:xlink="http://www.w3.org/1999/xlink" version="1.1" width="2048" height="2048" viewBox="-11 0 2070 2048">
   <path fill="currentColor"
d="M1884 1151q64 -4 112 36t52 104q4 68 -38 116t-106 56q-64 4 -112 -38t-52 -106t36 -112t108 -56zM824 1866q0 -64 42 -108t104 -44t110 46t48 110q0 60 -42 106t-102 50q-72 0 -116 -42t-44 -118zM1060 887q-16 8 -24 -12q-96 -172 -62 -372t194 -328q44 -36 110 -40
t102 32q20 16 28 60q12 96 48 140q56 64 140 56h16h18q6 0 18 2t16 4t14 4t16 8t12 14t14 16q12 24 8 90t-24 82q-12 8 -36 0q-108 -40 -236 -16q-40 4 -40 -36q-8 -84 -40 -140q-44 -68 -102 -70t-106 58q-48 68 -76 232q-12 68 -8 216zM1144 939q-8 -16 8 -28
q148 -136 340 -150t360 114q44 36 64 96t0 104q-20 28 -52 40q-88 40 -120 84q-44 64 -24 148q0 4 4 18t4 16t2 16t2 18t-2 14t-6 18l-8 16q-4 8 -12 16q-20 16 -82 25.5t-86 -1.5q-12 -12 -8 -36q12 -104 -40 -232q-16 -40 20 -48q76 -24 124 -72q56 -52 44 -112t-84 -88
q-76 -36 -236 -20q-92 8 -212 44zM1100 1027q12 -12 28 0q168 104 236 282t0 373q-20 52 -76 90t-104 26q-28 -4 -52 -36q-56 -72 -116 -92q-72 -24 -144 20q-4 0 -16 8t-16 10l-16 8t-16 6t-14 2t-18 0t-18 -4t-18 -6q-24 -16 -52 -74t-20 -82q8 -12 36 -12
q104 -20 212 -107q32 -28 56 4q40 68 104 99q64 36 118 8t62 -103q8 -76 -48 -232q-40 -92 -108 -188zM996 1047q-20 96 -84 188q-184 264 -512 232q-56 -4 -100 -44t-48 -88q-4 -40 20 -68q44 -56 56 -96q24 -100 -64 -188q-108 -108 24 -192q12 -8 40 -20q32 -20 40 12
q40 96 160 180q28 28 4 60q-64 68 -68 156q-4 56 26 88t86 32t128 -36q120 -60 264 -212q24 -8 28 -4zM444 339q8 0 40 8q184 36 240 -136q44 -124 160 -64l2 2q2 2 6 2q52 32 56 50t-36 70q-52 72 -68 176q-8 48 -56 32q-80 -32 -168 0q-44 12 -64 52t-4 88q8 24 20 44
t32 40t32 28t44 28t36 24q32 24 208 96q0 4 4 4q20 4 20 16q-4 12 -32 12q-268 4 -412 -116q-196 -160 -176 -356q24 -84 116 -100zM168 1283q-60 8 -112 -34t-56 -106q-4 -60 38 -112t102 -56q64 -8 116 32t56 100q8 60 -34 116t-110 60zM1580 87q60 -4 112 40t56 104
q8 64 -36 112t-104 56q-64 4 -114 -38t-58 -106q-4 -64 36 -112t108 -56zM704 151q4 68 -36 116t-108 60q-56 8 -108 -32t-60 -96q-8 -72 30 -122t106 -54q60 -8 114 32t62 96z" />
</svg>
