<?xml version="1.0" standalone="no"?>
<!DOCTYPE svg PUBLIC "-//W3C//DTD SVG 1.1//EN" "http://www.w3.org/Graphics/SVG/1.1/DTD/svg11.dtd" >
<svg xmlns="http://www.w3.org/2000/svg" xmlns:xlink="http://www.w3.org/1999/xlink" version="1.1" width="2048" height="2048" viewBox="-10 0 2066 2048">
   <path fill="currentColor"
d="M1028 0q152 399 455.5 992t562.5 1052q-415 -244 -723 -327q60 -152 62 -280t-42 -223.5t-95.5 -181.5t-99.5 -193.5t-56 -215.5q-180 116 -275.5 269.5t-103.5 357t99 447.5q-179 40 -343 109.5t-467 241.5q707 -1242 1026 -2048zM1072 846q0 96 48 194t92 173.5
t63.5 175.5t-50 244t-241.5 331q108 -124 122 -301.5t-28 -295t-86 -117.5q-24 0 -62 63.5t-54 151.5t24 180q-16 -24 -38 -74t-42 -144t-12 -187.5t74 -203.5t190 -190z" />
</svg>
