<?xml version="1.0" standalone="no"?>
<!DOCTYPE svg PUBLIC "-//W3C//DTD SVG 1.1//EN" "http://www.w3.org/Graphics/SVG/1.1/DTD/svg11.dtd" >
<svg xmlns="http://www.w3.org/2000/svg" xmlns:xlink="http://www.w3.org/1999/xlink" version="1.1" width="2048" height="2048" viewBox="-10 0 2068 2048">
   <path fill="currentColor"
d="M980 0h96q364 24 624 256q156 136 248 328t100 400v92q-24 364 -252 624q-136 156 -326 246t-398 102h-92q-368 -16 -636 -260q-152 -132 -242 -322t-102 -394v-92q8 -208 98 -398t246 -322q268 -244 636 -260zM1256 540q-152 0 -248 68q-72 52 -172 180t-148 172
q-76 84 -204 44q-120 -40 -156 -164q-40 212 24 376q76 188 252 300q280 172 608 92q224 -56 372 -212q148 -196 136 -416q32 -20 88 -52q-72 -24 -100 -36q-16 -128 -88 -204q-104 -120 -304 -144q-28 -4 -60 -4zM800 1052q36 -60 108 -68q60 -8 108 38t40 106
q-28 100 -104 120q-36 8 -76 10t-92 -8t-72 -14t-92 -24l-72 -20q184 -28 252 -140zM1412 764q28 0 48 16h-12q-24 0 -24 20t22 20t22 -20v-8q12 16 12 36q0 28 -20 48t-48 20t-46 -20t-18 -48t18 -46t46 -18z" />
</svg>
