<?xml version="1.0" standalone="no"?>
<!DOCTYPE svg PUBLIC "-//W3C//DTD SVG 1.1//EN" "http://www.w3.org/Graphics/SVG/1.1/DTD/svg11.dtd" >
<svg xmlns="http://www.w3.org/2000/svg" xmlns:xlink="http://www.w3.org/1999/xlink" version="1.1" width="2048" height="2048" viewBox="-10 0 2068 2048">
   <path fill="currentColor"
d="M189 1615q-173 -29 -189 -37q4 -20 278 -350q536 -641 741 -870q16 -16 58.5 -64.5t62.5 -68.5q44 -52 52 -52l-6 10t-20 26t-22 28q-137 189 -741 1160l-141 226h-16q-16 0 -57 -8zM250 1872q-129 -4 -131 -6t68.5 -118.5t74.5 -118.5t125 10q374 36 729 60q92 4 229 4
t174 -4q245 -44 290 -213q12 -49 12 -109q-4 -97 -37 -201q-100 -343 -499 -879l-64.5 -86t-20.5 -38q20 16 45 44q157 169 322 366q427 516 475 826q32 210 -113 314q-96 73 -310 97q-564 68 -1369 52zM1188 225l2 -4l2 -4q16 24 125 173q206 290 322 512q4 4 20 40
q57 113 89 209q12 33 20 61q8 36 16 68q0 8 4 28q16 113 -16 190q-32 84 -117 129q-76 40 -217 48q-52 4 -117 0q-121 0 -326 -12q-262 -20 -669 -56q0 -5 -8 -5h-8q65 -104 266 -426q274 -440 419 -665q153 -234 193 -286z" />
</svg>
