<?xml version="1.0" standalone="no"?>
<!DOCTYPE svg PUBLIC "-//W3C//DTD SVG 1.1//EN" "http://www.w3.org/Graphics/SVG/1.1/DTD/svg11.dtd" >
<svg xmlns="http://www.w3.org/2000/svg" xmlns:xlink="http://www.w3.org/1999/xlink" version="1.1" width="2048" height="2048" viewBox="-11 0 2069 2048">
   <path fill="currentColor"
d="M1015 349q16 0 24 16l48 84q12 4 24 4l68 -76q12 -12 26 -8t22 20l32 92l24 8l80 -56q12 -12 26 -6t18 22l16 100q8 4 20 12l87 -40q12 -8 26 2t14 26l-4 100q8 8 20 15l92 -23q16 -4 28 7.5t8 27.5l-24 100l16 16h96q16 -4 24 10t4 30l-40 92q8 12 12 24l92 16
q16 0 22 16t-2 28l-56 84q0 4 4 16l172 123q27 16 1.5 64t-213.5 308q-44 72 -48 72q-4 -4 0 -26t18 -64t38 -82q92 -208 64 -224q-4 -4 -12 -8q-4 8 -8 12q-20 36 -148 220q-28 52 -32 48l4 -18t16 -50t32 -64q48 -100 60 -152q-32 28 -84 52q-36 60 -98 110t-106 70
l-43 20q-72 80 -144 120t-120 38t-88 -16t-56 -34l-20 -20q76 4 144 -28t92 -68l28 -32q-84 -24 -150 -26t-90 6l-24 12q12 -20 28 -36h-88h-6h-9q15 16 27 32q-99 4 -267 24q8 8 30 26t86 46t124 36q-4 12 -14 28t-44 42t-72 30t-104 -34t-134 -130q-12 0 -30 -6t-77.5 -54
t-119.5 -132q-52 -20 -88 -44q20 52 56 120q20 32 36 62t20 48t4 20t-12 -12t-28 -38q-144 -176 -168 -208l-12 -24l-20 20q-24 20 108 216q32 40 54 82t30 64t4 22q-4 4 -64 -64q-240 -236 -276 -280q-16 -20 -20 -36t4 -24l4 -4l160 -167v-4l-56 -84q-8 -12 -2 -28t22 -16
l96 -16l8 -24l-40 -92q-4 -16 4 -30t24 -10h96l16 -16l-20 -100q-4 -16 6 -27.5t26 -7.5l95 23q8 -7 16 -15l-4 -100q0 -16 14 -26t26 -2l88 40q12 -4 24 -12l16 -100q0 -16 16 -22t28 6l76 56q16 -4 24 -8l36 -92q4 -16 20 -20t24 8l68 76q12 0 24 -4l51 -84q8 -16 24 -16z
M1251 1004q-24 0 -48 8h8q20 0 34 18t14 44t-14 44t-32 18t-32 -18t-14 -46q0 -32 20 -48l-20 16q-32 52 -32 96t16 59l16 20q24 36 64 36t68 -16l24 -20q28 -24 28 -67.5t-12 -75.5l-16 -32q-32 -36 -72 -36zM876 1004l-68 12v6v2q8 -12 24 -12q20 0 34 18t14 46t-14 46
t-34 18t-34 -18t-14 -46q0 -12 4 -24q-36 84 -18 129.5t62 61.5l40 16q68 -4 95.5 -45.5t19.5 -81.5l-4 -40q-23 -88 -107 -88zM1558 1367q-63 20 -139 32l20 32l48 -12q39 -24 71 -52zM532 1395q32 36 60 44q8 -12 24 -28q-44 -8 -84 -16z" />
</svg>
