<?xml version="1.0" standalone="no"?>
<!DOCTYPE svg PUBLIC "-//W3C//DTD SVG 1.1//EN" "http://www.w3.org/Graphics/SVG/1.1/DTD/svg11.dtd" >
<svg xmlns="http://www.w3.org/2000/svg" xmlns:xlink="http://www.w3.org/1999/xlink" version="1.1" width="2048" height="2048" viewBox="-10 0 2068 2048">
   <path fill="currentColor"
d="M276 1648l-276 -180v-292v-292l512 -332q508 -332 510 -332t514 332l512 332v292v292l-276 180q-276 176 -278 178t-234 -150l-236 -152l-232 152q-236 152 -238 152t-278 -180zM548 1456v-232l-224 -144q-220 -144 -224 -148v10v36q0 26 -2 70t-2 116v236l224 144
q224 144 226 144t2 -232zM1488 1456v-232l-8 -4q-4 -4 -222 -146l-218 -142v232v236l220 144l224 144q4 0 4 -10v-36v-70v-116zM1724 1056q68 -44 108 -72t66 -44t36 -22t6 -10l-222 -144t-224 -144t-224 144t-222 146t224 148t228 144t224 -146zM782 1058
q222 -146 222 -148t-224 -146t-228 -144l-222 144q-222 144 -224 146t222 148t228 146t226 -146zM1250 752l222 -144l-30 -20t-80 -54t-114 -74l-224 -148l-224 148q-224 144 -224 146t224 146t226 144t224 -144z" />
</svg>
