<?xml version="1.0" standalone="no"?>
<!DOCTYPE svg PUBLIC "-//W3C//DTD SVG 1.1//EN" "http://www.w3.org/Graphics/SVG/1.1/DTD/svg11.dtd" >
<svg xmlns="http://www.w3.org/2000/svg" xmlns:xlink="http://www.w3.org/1999/xlink" version="1.1" width="2048" height="2048" viewBox="-10 0 2068 2048">
   <path fill="currentColor"
d="M66 406v0q8 12 12 20q4 4 4 8q4 4 8 12l8 17h4q4 4 9 12v4h4v4l4 4l4 5l8 8v2q0 2 4 2q4 8 8 12q9 4 13 8v4q4 0 8 4.5t6 6.5t6 4l4 2q4 4 10.5 8t10.5 4q8 4 16 12h4q17 9 41 13q8 4 21 4q49 8 106 8q45 0 78 -4h16q17 -4 25 -4q82 -17 147 8q9 0 13 4q8 4 20 8q4 4 8 6
t9 6l2 3l2 2q4 0 4 4q4 0 8 4l8 8l6 6l6 6q13 13 21 29l4 4q4 12 8 21q4 4 6 8t2 8l4 12l238 660l238 -660q0 -4 4 -12q12 -33 32.5 -63.5t86 -59.5t155.5 -12q8 0 25 4h16q33 4 78 4q57 0 106 -8q33 -4 62 -17h4q8 -8 16 -12q37 -20 70 -57q16 -17 33 -41q4 -8 8 -14.5
t8 -10.5q8 -12 16 -28l54 20l12 4q-37 90 -78 156q-33 49 -65 86q-9 8 -13 12l-2 2q-2 2 -6 2l-4 8q-8 4 -14 8.5t-15 8.5v4q-4 4 -10 8t-14 8h-4q-29 12 -58 25q-24 8 -57 12q-37 4 -82 4q-61 0 -98 -4h-4v4h-4q-4 4 -9 4q0 4 -4 4q-49 41 -106.5 197t-123 362.5
t-106.5 300.5h-294q-5 -12 -9 -24q-16 -41 -32 -86q-29 -78 -78 -233.5t-70 -208.5q-4 -17 -8 -29q-12 -37 -25 -66q-4 -12 -8 -28q-8 -13 -12 -25q-12 -29 -25 -53q0 -4 -4 -12q-4 -9 -12 -21q0 -4 -4 -8q-8 -12 -12 -21q-5 -4 -7 -8l-4 -8t-6 -8l-6 -6l-6 -6l-4 -5l-4 -4
q-4 0 -4 -2t-2.5 -4t-4.5 -2h-2h-4q0 -4 -4 -4h-16q-12 4 -33 4h-8h-8h-9h-12h-6h-6h-2h-6h-4h-13h-4h-4h-12h-4h-4h-9q-4 0 -8 -4q-12 0 -24 -4h-6h-7h-4q-4 -4 -8 -4q-8 0 -12 -4h-2h-6h-2q-2 0 -2 -4h-5q-4 0 -8 -4q-8 0 -16 -5q-4 0 -8 -4l-2 -2q-2 -2 -4 -2h-3
q-4 -4 -8 -4h-2q-2 0 -2 -2t-2 -2h-2q-4 0 -4 -4h-4q0 -4 -4 -4t-4 -4h-4l-2 -2l-2 -2h-5v-4h-4l-2 -2l-2 -2l-8 -9h-4l-6 -6l-6 -6l-4 -4l-5 -4l-8 -8l-2 -2l-2 -2l-4 -5q0 -4 -4 -4q0 -4 -2 -4h-2q0 -4 -4 -8l-4 -4l-4 -4q0 -4 -2.5 -4t-2.5 -4q-4 -4 -8 -9q0 -4 -4 -8
q-4 0 -4 -4v-2v-2h-4v-4l-4 -4l-4 -4v-4l-4 -4v-4q-4 0 -4 -5v-4q-13 -16 -21 -32l-4 -5v-8h-4v-4q-4 -4 -4 -12h-4v-4q-4 -4 -4 -8q-4 -4 -4 -13q-5 0 -5 -2v-4q0 -2 -2 -2t-6 -12v-4q-8 -17 -12 -29l12 -4z" />
</svg>
