<?xml version="1.0" standalone="no"?>
<!DOCTYPE svg PUBLIC "-//W3C//DTD SVG 1.1//EN" "http://www.w3.org/Graphics/SVG/1.1/DTD/svg11.dtd" >
<svg xmlns="http://www.w3.org/2000/svg" xmlns:xlink="http://www.w3.org/1999/xlink" version="1.1" width="2048" height="2048" viewBox="-10 0 2058 2048">
   <path fill="currentColor"
d="M284 0q4 0 4 2v2q8 12 24 56l8 8q12 16 32 36q36 40 84 72q12 8 32 20t28 16h-4l8 4q-4 -12 -8 -32v-20v-14q0 -10 8 -2q12 8 32 52q24 40 44 92q4 4 8 16l4 4q8 12 12 20q8 16 14 24t10 12q16 24 40 52q40 44 84 92q20 20 44 40q4 8 20 24q4 4 8 4q0 4 12 12
q120 108 400 300q12 8 48 36q12 4 24 28q8 -28 20 -52q20 -40 60 -84q24 -28 44 -48q72 -60 144 -72q28 -4 60 0q36 0 92 20q36 12 60 24q20 12 28 20q-4 0 -4 -4l4 8q0 4 -24 -4l-20 -4h-6h-6h-24q-56 8 -108 40q-20 16 -44 36h-4q-12 16 -28 20q-16 8 -32 4q-8 24 -12 28
q-20 52 -32 92h4q8 8 16 36q12 24 12 48q8 52 -16 144l-16 56q-8 20 -12 32q-8 16 -12 28q-16 36 -40 80q-44 68 -72 104q-32 44 -44 56l-4 -8l4 -4q8 -20 32 -56v-4q4 -4 4 -8q4 -4 4 -16q-68 108 -184 205l-4 4q-136 204 -304 324q-20 12 -52 32t-34 14t14 -26q0 -4 4 -4
q16 -28 44 -56q40 -40 64 -56l2 -2q2 -2 6 -2l-4 4q4 -4 12 -8q16 -12 36 -28l8 -8h4q4 -8 10 -14l18 -18q4 -4 4 -8q4 -8 12 -16l8 -8q8 -16 16 -28q-164 108 -328 152q-24 4 -60 12t-38 2t22 -22h4v-2v-2q24 -16 64 -36q48 -24 76 -28h4q4 0 16 -4q16 -4 40 -12
q12 -4 14 -4h2l16 -8l4 -4l16 -8l8 -4q8 -4 20 -12q4 -4 8 -4q20 -16 36 -24q4 -8 16 -16q4 -4 8 -4q16 -16 36 -32l20 -20q-120 60 -244 80q-44 4 -76 8q-36 0 -48 -6t8 -18q16 -8 56 -16h4q8 0 16 -4q16 -4 18 -4t6 -4q36 -8 72 -24q4 0 8 -4q8 -4 20 -8q12 -8 32 -20
q32 -17 68 -41q0 -4 6 -8t14 -8l32 -24q28 -24 56 -54t60 -70v-20q8 -44 20 -84q-40 4 -72 4q-28 -4 -36 -12q0 4 2 4h2l-8 -4l24 -8h4l20 -4l6 -2l6 -2q8 -4 20 -12q36 -20 64 -56l2 -4l2 -4l-2 2q-2 2 -6 2q-32 16 -84 28q-60 12 -96 16q-28 4 -40 0q16 -8 60 -16l8 -8
q20 -8 40 -24q28 -24 56 -52q-36 8 -88 8q-44 0 -72 -4t-36 -12l-4 -4l28 -4h22q2 0 6 -2l4 -2q16 -4 16 -8q44 -20 80 -56q-12 4 -24 4q-40 8 -100 0q-44 -4 -72 -12q-24 -8 -32 -16v4l-4 -8h24h4h22h6q4 0 8 -4q12 0 16 -4q44 -12 84 -48l-6 2q-6 2 -10 2q-44 8 -76 4
q-36 0 -92 -16t-92 -28q-24 -12 -32 -20h4q12 0 56 12h12q20 0 48 -4q48 -8 92 -24h-4q-28 0 -60 -8q-40 -8 -92 -40q-40 -20 -60 -36q-24 -16 -28 -28v4v-8q0 -4 24 8l20 8l6 2l6 2q16 4 20 4q40 0 88 -12q-32 0 -62 -8t-58 -24q-36 -16 -80 -56q-32 -28 -52 -52
q-16 -20 -20 -36v4v-4q0 -4 24 12q16 12 18 14t6 4l4 2q12 4 16 8q60 16 124 4q-20 -4 -72 -16q-40 -12 -68 -28q-32 -16 -76 -56t-68 -64q-20 -24 -24 -32h4q12 8 48 36q4 4 8 4q20 8 48 20q28 8 56 12q-8 -4 -12 -4q-32 -16 -72 -44q-32 -20 -68 -56l-24 -24q0 -4 -4 -4
q-12 -16 -20 -28q-16 -20 -32 -48v-4h-4v-4l4 4h-4q16 4 56 32l24 24h4l2 2q2 2 2 6h4l8 4q12 8 32 16q32 12 64 12h8q-12 -4 -20 -8q-24 -8 -80 -36q-40 -20 -64 -40q-28 -24 -60 -68q-36 -48 -56 -80q-16 -24 -16 -36h4q12 12 36 48q8 4 12 8q16 12 40 24h4
q-12 -12 -24 -20q-24 -32 -52 -72q-4 -4 -20 -28v-8q-8 -16 -16 -28q-12 -24 -20 -52l-4 -4v-4h4h-4q16 8 44 44q8 8 24 28v4l2 2l2 2h4q0 4 4 8l32 24q-12 -28 -28 -68q-20 -56 -28 -92q-8 -28 -8 -40zM760 1843q4 -2 0 2h-4z" />
</svg>
