<?xml version="1.0" standalone="no"?>
<!DOCTYPE svg PUBLIC "-//W3C//DTD SVG 1.1//EN" "http://www.w3.org/Graphics/SVG/1.1/DTD/svg11.dtd" >
<svg xmlns="http://www.w3.org/2000/svg" xmlns:xlink="http://www.w3.org/1999/xlink" version="1.1" width="2048" height="2048" viewBox="-10 0 2068 2048">
   <path fill="currentColor"
d="M321 257q273 -3 441 19.5t311 79.5l66 23q12 6 12 18v78q9 81 49.5 115.5t93 37.5t148.5 30t180 87q-78 -84 -195 -171v-3q-9 -6 -15 -12l-6 -6l-4.5 -4.5t-1.5 -4.5t-3 -9v-6v-3v-3q3 -15 18 -24q9 -3 18 -3q6 0 15 3t24 12q153 93 264 237q0 3 4.5 7.5l7.5 7.5
q6 6 9 12v3h3l6 12v3q3 6 6 9q0 3 1.5 6t4.5 6q15 33 30 48q12 12 3 27l6 6q36 27 72 30q15 3 16.5 18t-13.5 21q-6 3 -16.5 6t-13.5 3t-9 4.5t-10.5 7.5t-10.5 10.5t-12 16.5q-15 18 -30 0q-30 -39 -75 -66q-9 -3 -39 -18q-33 -12 -40.5 -21t-19.5 -48q-3 -6 -9 -9
q-12 -9 -60 -30q-120 -51 -162 -63q-39 -12 -93 -12q-87 0 -136.5 51t-54 123t39 126t130.5 63q15 0 60 3q6 0 15 1.5t12 1.5h15q99 0 207 24q276 57 390 213q30 39 57 102q12 30 18 51q3 12 3 21q0 21 -12 36q-6 6 -16.5 9t-19.5 0q-12 -3 -19.5 -12t-13.5 -21
q-21 -63 -84 -129t-135 -87q96 117 138 285q15 54 18 102q3 24 3 39q0 12 -3 18q-3 9 -9 15q-12 12 -27 12q-21 0 -33 -15q-3 -6 -6 -18q-6 -12 -6 -30q0 -9 -6 -36q-9 -30 -24 -66q-159 -393 -441 -381q-72 -3 -123 -12q-99 -15 -166 -84t-88 -162q-15 -87 19 -172.5
t118 -145.5l-21 -48q-3 -3 -9 -18q-191 9 -350 55.5t-360 136.5q-60 30 -108 51q-21 9 -33 15q-9 3 -12 6h-6h-9h-9q-9 -3 -16.5 -9t-7.5 -18q-3 -9 0 -18t7.5 -15t13.5 -15q15 -12 45 -30q57 -36 132 -72q180 -90 453 -162h-117q-234 12 -528 48q-51 6 -96 12q-21 3 -30 3
h-12h-6q-3 0 -6 -3h-6q-6 -3 -9 -9q-6 -6 -9 -15q-6 -12 0 -24t18 -21q9 -3 30 -9q24 -6 120 -24q252 -45 693 -66q-252 -62 -636 -86q-57 -3 -63 -3q-12 -3 -18 -3q-3 0 -6 -3h-6l-9 -9q-9 -12 -9 -25.5t12 -22.5q3 -3 9 -6l3 -3h6h3q9 -3 54 -3h117z" />
</svg>
