<?xml version="1.0" standalone="no"?>
<!DOCTYPE svg PUBLIC "-//W3C//DTD SVG 1.1//EN" "http://www.w3.org/Graphics/SVG/1.1/DTD/svg11.dtd" >
<svg xmlns="http://www.w3.org/2000/svg" xmlns:xlink="http://www.w3.org/1999/xlink" version="1.1" width="2048" height="2048" viewBox="-10 0 2068 2048">
   <path fill="currentColor"
d="M1224 1903q-16 -52 -24 -72q-4 -12 -16 -44t-18 -36t-22 -4h-12l-8 20q-4 24 -4 32q0 12 -4 22t-10 16t-8 4t-10 -48t-8 -50q-4 -4 -36 -8q-4 0 -26 46t-30 74q-8 32 -20 20q-4 -8 -4 -44q0 -56 -16 -108q-4 -20 -32 -28q-16 -4 -20 -6t-8 8t-16 38q-8 24 -12 28t-8 4
q-16 -4 -18 -6t-2 -14t4 -36q4 -40 -4 -44q-4 0 -14 -4t-14 -4q-20 0 -68 92q-16 32 -20 32t-8 -6t4 -42q12 -80 8 -112q0 -12 -16 -24q-40 -32 -48 -28q-24 20 -40 56q-12 20 -28 12q-8 -4 12 -56q16 -40 16 -46t-18 -22t-30 -16q-52 16 -88 72q-20 28 -28 24t12 -44
l16 -36l12 -36q24 -60 4 -80q-20 -24 -68 28q-16 12 -20 12q-16 -8 6 -30t38 -54l8 -12l-16 -36l-20 -40q0 -8 -12 -4q-4 4 -16 40t-20 44q-32 56 -120 64q-16 0 -16 -4q-4 -8 12 -12q8 -4 16 -16q12 -24 -4 -88q-20 -80 -72 -164q-28 -44 -68 -94t-60 -58q-24 -12 -44 0
q-8 8 -14 4t-6 -8q0 -12 60 -40q40 -24 80 -24q36 0 72 20q24 20 26 22t26 20t52 38q32 28 52 20q8 -4 12 -12q24 -36 16 -48q-4 -12 -44 -28q-20 -8 -32 -12q-24 -16 0 -16q12 0 28 4q40 8 56 4q4 -4 4 -14t-16 -24t-32 -22q-52 -32 -48 -48q4 -12 24 -12q8 0 36 12t44 16
h16l4 -20q4 -20 6 -26t-18 -16t-34 -16t-14 -10t48 0h24l-12 -16q-36 -44 -84 -80q-16 -12 -14 -18t12 -8t42 14q52 32 80 32q36 0 36 -12q0 -16 -28 -40t-8 -24q8 0 14 6t20 12t24 10t10 2t-44 -52t-48 -54q8 -28 36 -16q12 4 28 20q72 56 92 48q12 -4 12 -28
q0 -32 -60 -96q-20 -24 -20 -32t12 -8q4 0 32 28q52 48 80 56q12 4 24 -4q16 -8 4 -32q-8 -12 -8 -16t-8 -22l-8 -18q8 -12 28 16q20 24 32 32l12 8l4 -8q8 -8 -4 -36q-4 -16 -4 -22t-12 -40t-12 -44t12 -12t14 0t22 42q28 52 40 64q4 8 12 4q20 -16 20 -40t-24 -96
q-16 -44 -10 -46l6 -2q8 0 36 48q48 80 88 80q8 0 10 -8t0 -30t-2 -28t6 -4l6 2l6 20q6 20 16 34t20 14t12 -10t-2 -46q-12 -68 0 -72q4 0 12 4q12 8 14 22t18 54q12 28 16 34t16 2h8v-16q0 -40 -8 -60q-4 -4 4 -4t16 20q16 44 24 44q4 0 16 -16t20 -68l6 -48q2 -16 4 -24
t4 -10t6 -2q12 0 16 72q4 40 4 52q12 48 28 48q8 0 24 -48q8 -24 10 -24t8 2t2 10v38q0 30 2 32t10 4t12 -10t10 -34t10 -34t10 -10t14 8t8 26q8 72 8 80q4 0 16 8q12 4 20 -4t12 -32q8 -28 12 -24t4 18t4 40t8 26q12 4 40 -20q40 -36 56 -92q4 -4 10 -6t10 2t-10 50t-14 74
t4 34t14 0t30 -24l20 -18q12 0 12 12q0 4 -16 20q-36 32 -20 48q8 4 12 -4t18 -24t18 -16q12 0 8 16q-4 12 -8 18t-10 26t-2 28q8 12 48 -4q24 -12 28 -12q8 8 -12 24q-36 28 -20 36q12 8 60 -8q44 -16 80 -44l20 -12l4 8q8 8 -28 48q-56 60 -56 72q0 4 -4 12q-12 20 -4 24
t52 -4q32 -4 32 0t-32 20t-32 28q0 20 12 36q0 4 20 20q16 12 52 64q12 16 16 28t-2 20t-10 8t-2 12t2 22t8 22q28 24 44 68q12 20 20 36q12 32 20 76q4 20 12 20q20 0 28 20q20 48 36 64q28 28 44 12q8 -12 16 4q0 12 -8 28q-20 36 -52 44q-12 4 -42 4t-42 -4t-20 -8
l-12 -8l-48 52l-52 52l12 20q12 16 24 28q20 24 8 24q-8 0 -36 -24q-24 -16 -36 -20q-8 0 -8 4q-8 16 16 48q8 12 0 20t-36 -16q-12 -8 -24 4q-12 20 -4 38t48 58q44 44 24 48q-12 0 -20 -8q-12 -16 -76 -36q-32 -8 -40 -4q-16 4 -28 20l-8 8l16 24q12 28 26 48t14 24
q0 8 -10 12t-18 0q-4 0 -30 -32t-34 -38t-16 -2t-30 18t-30 18l-6 6l-2 2q4 4 8 36q8 48 24 76q16 36 8 36q-4 0 -44 -40q-52 -60 -72 -64q-4 -4 -18 -6t-16 0t6 74q8 28 -4 36q-8 4 -16 0q-12 -4 -28 -48q-12 -40 -16 -44t-16 0l-20 4l-8 28q-16 52 -20 96q0 32 -4 32
q-8 8 -8 4zM1224 1815q16 -56 8 -60q-8 -8 -28 0q-12 4 -8 10t6 10t10 30l8 26zM992 1783q8 -36 10 -38t-6 -6t-16 -4t-6 18t4 42t4 24t10 -36zM1344 1783q-20 -120 -16 -184q8 -28 12 -28t8 48q0 72 6 78t98 -34q36 -16 44 -24t8 -16q-8 -48 -52 -68q-20 -12 -20 -16t14 -2
t38 18q80 56 116 116q8 8 10 8t-6 -8q-56 -92 -76 -180q-16 -72 8 -16q8 20 8 24q16 28 32 76q0 4 12 -4q56 -48 68 -80q4 -4 8 -4q16 0 0 -36q-4 -8 -16 -12q-16 -8 -12 -16t48 16q28 12 30 12t-2 -12q-20 -36 -20 -64q-4 -12 0 -12q8 0 16 24q4 16 8 20q0 4 24 -20l52 -52
l40 -40q28 -36 44 -88q8 -32 8 -64q0 -60 -44 -152q-20 -40 -36 -32q-4 0 -12 16t-8 20l12 8q32 8 44 32q4 12 4 32q0 36 -16 64t-4 62t4 62q-8 36 -28 56q-52 52 -112 24q-28 -16 -44 28q-8 20 -14 24t-6 0q-4 -8 4 -38t20 -42l8 -12l-8 -28q-12 -44 -24 -68q-4 -12 -6 -14
t-6 2q-12 0 -24 24q-44 60 -60 68q-12 8 -16 0q-4 0 20 -28q76 -88 88 -176q4 -32 -8 -68q-20 -56 -136 -80q-24 -4 -24 -8q0 -8 24 -8q8 0 10 -2t2 -6t-4 -28q-4 -16 -6 -18t-14 2l-4 4v-12q0 -80 132 -172q20 -12 24 -12v8l-4 8q-8 8 -8 12t24 36q40 56 64 100q12 16 8 18
t-12 0t-10 -2t2 16t4 40q0 44 -12 68q-8 12 -8 14t-8 14q-16 20 -12 40q4 24 -4 56l-4 8l8 -4q16 -8 44 -52q32 -48 48 -48q4 0 0 -4q-12 -32 -12 -116q0 -96 -16 -148q-12 -52 -36 -92q-4 -8 -4 -12h16q8 8 8 0q0 -20 36 -56l20 -20l-28 12q-40 24 -64 24q-16 0 -26 -10
t-26 -30l-16 -20q-8 8 -24 80q-8 40 -12 42t-4 -30q0 -60 28 -124l-20 12q-16 20 -36 32q-12 12 -28 18t-24 8t-8 -2t8 -8q44 -24 68 -52l20 -16l-8 -4q-8 -8 -36 -24q-24 -12 -34 -20t-6 -12q4 -8 16 0l8 4v-20q0 -24 4 -40l4 -20q0 4 -12 20q-36 44 -52 44t-64 -20
l-32 -16v20v28q0 8 4 40v32h-8q-12 0 -14 -6t-6 -42v-96l-4 -48l-8 32q-12 56 -32 84q-28 48 -40 36q-4 -4 4 -8q24 -24 40 -92q4 -4 -4 -8t-32 -8q-44 -8 -56 -24q-12 -20 -16 -72v-24l-4 24q-8 72 -36 88q-24 12 -52 12h-14q-2 0 -2 4q0 16 20 72q12 32 10 36t-10 -6
t-16 -26q-24 -44 -52 -140l-4 -12l4 24q4 76 -4 108q-8 40 -24 60l-4 -8q0 -12 6 -36t6 -44l-4 -20q-4 4 -28 4q-44 8 -72 -8t-48 -52q-8 -16 -10 -16t10 28q28 80 -24 100q-8 4 -8 8q0 16 44 68q16 20 4 16q-40 -20 -96 -128l-28 -48l4 12q44 116 48 172q0 28 -4 32
q-8 4 -12 -8v-16q-4 -60 -16 -72l-20 20q-36 32 -56 36t-52 -16l-12 -8l12 20q20 44 -4 68q-8 8 -8 10t28 14t36 16q24 4 12 12q-16 8 -68 -16q-20 -12 -56 -32q-84 -60 -88 -56l6 6l18 18q12 12 24 28q68 64 92 104q12 24 8 32q-4 4 -20 -12q-20 -24 -56 -24q-20 0 -32 8
q-32 16 -92 -8q-16 -8 -18 -8t22 28t32 44l8 16l-4 28q-8 32 -12 44l-4 12q8 8 64 8q28 0 28 8t-32 12q-52 4 -136 -28q-24 -12 -24 -10t4 4t14 10t18 12q64 44 92 72q28 36 28 48q0 4 -4 4t-6 -4t-6 -4t-16 -12q-20 -16 -32 -16t-20 28q-4 8 -6 58t-2 54l-12 -24v-8
q-4 -8 -8 -12q-20 20 -44 20q-16 0 -30 -12t-50 -44q-56 -52 -84 -60q-16 -8 -48 -6t-44 8t-12 10t12 16l16 16l16 -4q48 -8 52 -4l-32 12q-28 4 -28 8q0 12 24 20q8 4 44 4l44 8h-30q-30 0 -38 4h-12l20 24q16 20 24 32l8 12h24q24 0 32 4q4 4 -4 4h-16q-28 0 -28 4
q0 16 32 16h24q0 8 -32 8q-8 0 -8 2t16 34t22 34t22 -6l16 -4q4 4 -12 12q0 4 -8 4q-12 8 -14 8t4 14t8 14t18 -10l16 -10q12 0 -12 16q-16 12 -16 18t8 34l4 16l4 -4q8 -8 24 -20l4 4q-8 8 -10 12t-14 12t-10 12t4 22t6 18q16 0 48 -36q24 -28 32 -68q8 -24 20 -24t8 -24
q-4 -28 4 -40q4 -4 8 0t4 20t4 16q4 4 12 -8t20 -32q16 -40 20 -20q4 16 -20 52l-16 20l16 4q12 4 24 10t12 14q0 12 -28 -4q-36 -16 -36 -8q0 20 28 64q12 28 16 34t16 -14q4 -4 8 -12q24 -36 40 -62t20 -20t4 10q0 16 -28 60l-20 28l20 -8q20 -8 36 -16t20 -8l4 12
q-16 0 -60 36q-36 36 -32 44l6 6q2 2 22 30q32 44 64 72l12 8l12 -24q16 -40 24 -72q8 -33 16 -24q16 24 -48 196l-4 16q12 -20 58 -68t58 -56q20 -12 20 0q0 4 -20 24q-32 32 -40 60q0 4 14 14t30 22q32 24 56 36q16 4 20 8t12 -8q12 -24 12 -64v-44q-4 -36 12 4q4 20 8 44
q8 56 -4 148v12l4 -12q4 -8 20 -44q24 -68 48 -92q8 -12 12 -20t8 0q4 4 -22 52t-26 52q0 8 120 40l36 8v-8q8 -44 -12 -104q-8 -24 -4 -28q2 -2 4 0t4 8q4 4 8 12q40 84 52 164l4 16q4 -104 24 -164q4 -8 10 -10t8 6t-8 64t-6 56q4 4 42 2t66 -6q36 -4 38 -4t2 -12
q0 -36 -32 -76q-8 -12 -8 -18t-8 -14q-12 -8 -4 -16q4 -4 16 12q32 32 52 80q8 20 28 80q4 12 8 26t8 22t4 6t-4 -22zM1188 1671q0 -4 -4 -28q-28 -104 -56 -136l8 -8q20 12 44 88q8 20 10 20t6 -28q8 -80 16 -80h8v6v14q0 8 -4 20q-12 64 -8 100q4 8 0 12t-4 12q-4 8 -16 8
zM1404 1619q-8 -16 -20 -32q-28 -56 -64 -92q-20 -20 -24 -26t4 -8t14 6l18 24q48 48 52 60h8q-8 -12 -16 -72q-4 -32 -4 -38v-10h12q0 28 20 132q12 64 12 68q0 8 -12 -12zM984 1623q0 -4 -4 -28q-12 -76 -24 -104q-8 -16 -4 -16q16 4 32 64l12 44l8 -28q20 -48 32 -64
q4 -4 8 2t-8 22q-12 28 -32 84q-16 24 -20 24zM776 1523v-16q16 -52 16 -100q4 -32 8 -32t6 12t2 30t-4 38v4l-4 20l8 -4q20 -32 52 -52q8 -4 14 -2t-10 10q-24 20 -48 52q-36 48 -40 40zM1604 1475q-16 -12 -36 -32q-40 -40 -68 -48q-12 0 -14 -2t-2 -6t12 -4q8 0 42 16
t38 24q12 12 4 -4q0 -8 -12 -28q-20 -40 -16 -48t6 -8t12 24t30 70t20 52t-16 -6zM1048 1463q-4 -8 -4 -20q-4 -32 -20 -52q-8 -12 -6 -16t10 -4h8l8 32l12 32l4 -12q4 -12 10 -20t10 -8q8 8 -4 28q-8 8 -8 10t-2 10t-6 16q-4 16 -12 4zM1220 1443q-24 -32 -40 -40
q-8 -4 -8 -8q0 -16 40 20q16 12 18 12t2 -16q0 -32 12 -32q4 -4 2 10t-2 42t-4 30t-20 -18zM1442 1429q-14 -10 -38 -40t-40 -38t-12 -12l4 -4q12 0 56 44q20 20 22 20t-2 -16q-12 -40 -12 -68q0 -4 4 -4t4 4q0 40 20 96q8 20 8 24t-14 -6zM896 1427q0 -12 -2 -32t-6 -28
t-24 -12q-44 -8 -88 -28q-24 -12 -24 -18t22 -22t30 -24t24 -52q20 -52 60 -64q20 -8 116 -4q32 4 44 0q24 -12 24 -2t-24 22t-84 0q-40 -8 -60 0q-16 8 -56 68q-28 44 -48 60l-20 20l8 4q4 4 12 4t28 -28l8 -12q0 4 -8 20q-12 20 -10 24t10 4t16 -12t14 -20t12 -14l6 -6
q0 12 -20 32q0 4 -6 12t-2 8q8 0 28 -32q20 -28 20 -26t-12 22t-14 30t2 10q24 8 40 -24l8 -16q0 8 -4 24v12q20 -8 36 -44l12 -16q0 4 -8 24l-8 20q12 -8 32 -40t44 -48q8 -4 22 -16t26 -16l16 -8l4 8q12 12 0 12q-16 0 -52 28q-20 12 -56 68q-20 24 -32 36q-28 20 -48 20
q-4 0 -2 10t4 26t4 16t14 -16q16 -20 24 -20v8q-4 0 -24 28q-24 28 -28 20zM620 1375q0 -4 12 -16q24 -24 52 -66t28 -54t8 -4q20 12 -20 64l-28 40q4 0 12 -2t36 -10l28 -12l4 8l8 4h-8q-24 0 -108 44q-24 12 -24 4zM1120 1355v-10q0 -6 -4 -14q-12 -24 -10 -28t10 8
q4 4 8 12l4 8l4 -12q12 -16 16 -16q4 4 -8 26t-12 30zM1290 1321q-6 -6 -6 -8t-18 -22l-18 -20q0 -16 24 8q12 12 16 10t4 -14q4 -20 14 -20t2 20q-8 16 -8 34t-2 18t-8 -6zM1040 1299l-2 -16q-2 -16 2 -16t4 8q4 12 12 0q8 -20 16 -20q12 0 -8 20q-8 8 -12 16q-4 20 -12 8z
M1412 1249q-4 -6 -16 -18q-20 -16 -12 -20q4 0 12 8t10 8t2 -18t4 -22l8 28q4 36 0 38t-8 -4zM1164 1203q-12 -12 -10 -14t12 6t12 8t6 -8q8 -20 8 -4q0 4 -6 16t-10 12zM688 1207q0 -4 14 -18t22 -30q20 -36 24 -24q4 4 -14 28t-18 26t22 4t30 6q12 4 -4 8h-24q-28 0 -40 2
t-12 -2zM520 1199q0 -4 40 -44q64 -60 72 -84q4 -16 8 -12q8 8 -6 34t-34 42q-36 32 -36 44h4t12 -4l16 -8l36 -12h28q28 4 32 4q8 8 -28 12q-52 8 -104 24q-12 4 -26 6t-14 -2zM1496 1179q-4 0 0 -8t8 -4q4 0 0 10t-8 2zM1308 1171q-16 -12 -12 -20q4 0 12 8q12 8 14 6
t2 -18t4 -16t4 28q-4 16 -10 16t-14 -4zM416 1159q-4 -4 0 -10t6 -6t2 8q-4 8 -8 8zM856 1131q-4 -4 0 -10t12 -6q4 0 0 8q-8 12 -12 8zM1224 1095q4 -8 8 -8l4 4l8 -4h8q-24 28 -28 8zM526 1099q-2 -4 -18 -12q-24 -8 -72 -4q-12 0 -12 -6t8 -10q32 -8 68 -32
q20 -20 20 -12q0 20 -32 36q-8 4 -8 8t26 4t38 20l4 8l-10 2q-10 2 -12 -2zM1468 1095q4 -4 8 -4t12 -4l8 -4l-8 -12q-12 -8 -20 -12q-12 -4 -4 -12l16 8q12 8 22 16t6 12q-4 12 -36 16h-12zM788 1083q-20 -4 -22 -6t14 -16t16 -10t-8 12l-12 8l8 4q28 8 28 12q0 8 -24 -4z
M1008 1087q-16 -8 -16 -16q0 -4 14 -18t14 -10q8 4 -8 16t4 20zM1108 1087q-4 -4 0 -14t8 -12t4 0v10q-4 8 0 12t-4 4q-4 4 -8 0zM904 1055q-20 -8 -8 -24q8 -12 12 -16t4 0t-6 12t-6 12t10 8t10 8t-16 0zM1396 1015l4 -16q4 0 4 14t-4 14t-4 -12zM1272 1007q0 -4 4 -4t8 -8
q4 -4 10 -4t6 4t-10 10t-14 6t-4 -4zM708 995q-8 -16 -56 -28q-20 -8 -22 -10t8 -8t26 -8t32 -6q20 0 28 -8q8 4 12 4q-8 16 -44 20l-16 8l12 4q28 16 36 32q0 8 -4 8t-12 -8zM588 991q-12 -12 -52 -20q-8 0 -10 -4t8 -10t18 -10q4 -8 26 -20t26 -8q8 0 -4 12q-16 16 -32 24
q-12 4 -12 8t20 8l20 10q4 2 4 10q-4 4 -12 0zM1088 987q-8 -16 4 -20l4 12l-4 8q-4 4 -4 0zM1188 983q-4 -16 12 -16q8 0 0 12q-8 8 -12 4zM988 971q-4 -8 2 -14t10 -6q4 4 0 8t-4 8q0 8 -8 4zM816 933q0 -2 -16 -20t-16 -20t18 -4t22 -4t6 4t-12 6t-16 4t6 8q24 28 8 28
v-2zM932 911q-20 -20 -16 -32q0 -4 20 -2t20 6t-12 0q-12 0 -14 2t6 14q4 12 -4 12zM664 899q-8 -24 -32 -52q-32 -36 -64 -56q-20 -16 -20 -28q36 4 72 28q4 0 34 8t48 8t18 4t-12 4q-28 8 -68 0l-28 -8l20 20q40 36 40 72h-8zM1228 895q0 -12 4 -18t12 0t12 10h-8
q-8 -16 -12 8l-8 12v-12zM1076 899q-4 0 -8 -16v-16l8 4q36 4 36 16l-20 -4q-12 -8 -12 8zM1356 863v-14q0 -2 -12 6q-24 20 -24 10t32 -26q12 -8 14 -6t-2 22q0 16 -4 20zM784 855q-4 -4 -6 -10t-4 -16t-24 -44t-26 -38q-8 -8 -4 -14t36 22q44 32 52 32q24 0 24 12t-44 -8
q-16 -8 -18 -6t6 14t12 28t4 24t-4 8zM1096 815q0 -4 8 -22t12 -18q4 -4 12 8q4 4 4 8l-4 8q-4 -8 -8 -10t-12 14q-12 24 -12 12zM996 803q-4 -4 4 -36t8 -40l4 -8l4 8q16 16 20 40q4 4 -2 2t-10 -14l-6 -6l-2 -2q-4 0 -8 28zM1268 791q-4 0 -4 -16t-4 -24v-4l-8 4
q-8 8 -24 20l-4 -4l18 -18l16 -16q6 -6 10 -2q4 8 4 52q-4 4 -4 8zM1412 771q-4 0 4 -36l8 -28l-10 6q-10 6 -28 12t-22 -2q-4 0 0 -4t8 -4t26 -10t38 -28t18 -14t-4 16t-20 52t-18 40zM896 749q-4 -6 -4 -22t-4 -44q-4 -32 -4 -36t6 -4t18 20q24 32 44 36q16 4 8 12
q-4 4 -20 -4t-20 -16q-16 -12 -16 0v28q0 36 -2 36t-6 -6zM780 723q0 -12 -8 -32q-12 -24 -44 -76q-32 -48 -24 -52l36 28q64 60 88 60q20 0 20 6t-16 6t-28 -4q-28 -12 -48 -32l12 28v4q16 28 22 46t2 26q-12 16 -12 -8zM1092 683q-12 -8 -20 -32q-4 -16 -8 -22t-4 2
q-4 4 -4 12q-8 20 -12 32q-8 20 -8 0q-4 -4 -6 -4t6 -20q20 -36 20 -60q0 -12 4 -8t4 12q4 8 12 32q12 32 24 52q4 4 2 6t-10 -2zM1254 663q-2 -8 -6 -28l-4 -20l-4 8q-4 8 -16 22t-16 14l-8 -8q20 -20 32 -40q8 -24 14 -38t8 -14t2 34t8 54q8 24 0 24t-10 -8zM1388 647
q-4 -28 4 -84q4 -36 4 -40l-8 12q-36 56 -64 64q-8 0 -4 -4q0 -4 8 -12q16 -12 28 -32t36 -52q16 -16 24 -32q12 -24 12 -4q0 4 -8 28q-16 56 -20 124q0 44 -4 44t-8 -12zM916 583q0 -40 -12 -88q-12 -64 -8 -68q4 0 16 18t12 22t44 76q8 12 20 28t8 16q-4 4 -14 -2t-20 -22
t-22 -40l-16 -28v8q4 24 4 62t-4 46q-4 20 -8 0v-28zM1104 577q0 -2 10 -38t20 -90t14 -54t4 16q8 56 28 124l12 36q-4 4 -12 -12l-8 -8q-12 -28 -20 -72l-4 -20l-6 36q-6 36 -18 60t-16 24t-4 -2zM1464 1763q-8 -20 -16 -60q-4 -8 -12 -4t-12 12l-8 4l28 28l24 24z
M744 1697q8 -14 18 -28t10 -18q0 -8 -24 -12l-8 -4v28l-6 36q-2 12 0 12t10 -14zM1616 1687l-4 -4v4l4 8v-8zM1686 1551q-14 -20 -16 -26t-6 -2l-12 12l-4 12l24 12l28 12zM534 1499q10 -8 14 -8t4 -8q0 -16 -24 -28q-4 -4 -8 4q-4 32 -20 64l-8 8l16 -12q16 -12 26 -20z
M1760 1311q24 -4 36 -32q24 -48 4 -92q-20 -40 -40 -16q-8 4 -8 24l-4 24v-8q-4 -36 -12 -46t-28 -14q-68 -8 -68 8q0 4 12 48q20 80 44 100q12 12 30 12t34 -8zM1948 1283q4 0 -2 -14t-6 -18q0 -16 12 8t20 24q4 0 -4 -16q-12 -8 -12 -14t14 8t16 14t10 -8l12 -4l-8 -4
q-20 -8 -36 -40q-24 -40 -40 -48q-8 -8 -10 -6t-6 26q-12 56 -20 68q-4 4 12 12v-8q0 -16 2 -16t6 12q16 28 32 24h8zM1816 1099q28 -60 -32 -80q-16 -4 -36 -4q-20 4 -52 44q-32 48 -52 64l-8 8h12q64 8 116 -48q12 -16 12 -12q0 8 -14 28t-22 20v10t4 14q48 12 72 -44z
M1636 975q16 -20 22 -58t-2 -62q-8 -20 -14 -22t-54 2q-52 4 -68 4l-12 4v16q-4 36 8 52q4 4 28 12t36 16q28 16 40 40q4 8 16 -4zM1606 911q-18 -8 -18 -24q0 -28 28 -28q20 0 28 16q4 16 -8 28q-12 16 -30 8zM1776 963q28 -32 12 -88q-4 -24 -28 -24l-16 -4v12v8h12
q12 -4 20 8q16 12 6 32t-26 12l-4 20v4l12 36v-4q4 0 12 -12zM1800 831q-8 -16 -30 -38t-26 -22v8v18v18l4 12l24 4h28zM1528 819q80 -12 112 -4h20q4 -8 -48 -68q-20 -28 -28 -30t-32 14q-32 24 -48 56q-12 20 -16 28q-8 12 -4 12z" />
</svg>
