<?xml version="1.0" standalone="no"?>
<!DOCTYPE svg PUBLIC "-//W3C//DTD SVG 1.1//EN" "http://www.w3.org/Graphics/SVG/1.1/DTD/svg11.dtd" >
<svg xmlns="http://www.w3.org/2000/svg" xmlns:xlink="http://www.w3.org/1999/xlink" version="1.1" width="2048" height="2048" viewBox="-10 0 2068 2048">
   <path fill="currentColor"
d="M1024 0q424 0 724 300t300 724t-300 724t-724 300t-724 -300t-300 -724t300 -724t724 -300zM832 248h-8q-128 4 -256 88q-164 112 -164 184q0 36 48 132q344 692 440 792q36 36 80 32t56 -44q16 -52 -24 -148l-104 -272q176 -60 260 -240v-4q44 -88 12 -228
q-36 -152 -164 -236q-84 -56 -176 -56zM736 448q12 -4 26 2t38 26q84 64 116 172q8 32 8 64q0 20 -4 40q0 28 -12 48q-20 36 -52 28q-16 0 -32 -20q-60 -60 -104 -180q-4 -20 -10 -46t-10 -58t6 -54t30 -22zM1460 620q-64 0 -88 20q-32 32 -48 124q-64 452 -8 476
q24 8 56 -30t116 -190l60 -112q52 -108 64 -152q12 -52 -20 -84q-44 -40 -108 -52h-24zM1296 1332h-20q-48 16 -60 66t24 78q40 32 80 8q28 -16 32 -48q12 -36 -4 -70t-52 -34zM612 1640q-28 0 -46 18t-18 50q0 28 18 48t46 20h824q28 0 46 -20t18 -48q0 -32 -18 -50
t-46 -18h-824z" />
</svg>
