<?xml version="1.0" standalone="no"?>
<!DOCTYPE svg PUBLIC "-//W3C//DTD SVG 1.1//EN" "http://www.w3.org/Graphics/SVG/1.1/DTD/svg11.dtd" >
<svg xmlns="http://www.w3.org/2000/svg" xmlns:xlink="http://www.w3.org/1999/xlink" version="1.1" width="2048" height="2048" viewBox="-10 0 2068 2048">
   <path fill="currentColor"
d="M0 1024q0 -426 299 -725t725 -299t725 299t299 725t-299 725t-725 299t-725 -299t-299 -725zM1155 700l-106 54l106 57v-111zM1155 676v-66l4 -4v-4h4l54 -24l-193 -99l-262 131l262 135zM459 1323l270 131v-262l-270 -135v266zM713 897l-254 -127v266h4l12 4l254 127
v-254v-8h-4zM999 754l-122 -62l-50 -24l-90 -45l-8 4l-254 127l250 127h4l8 4l13 -4zM1319 1454l266 -131v-266l-266 135v262zM1452 1053q-2 0 -2 -4l-127 -62v180l250 -127l-45 -24l-70 33q-4 4 -6 4zM1036 1335h-4v262l254 -127l12 -4v-12v-254l-249 127zM999 1327
l-249 -127v266l12 4l254 127v-254v-8h-4zM1462 762v262l41 -20l13 -5l8 -4l205 -102v-266zM1319 901v62l123 61v-262l-123 -62l-8 -8l-13 -4l-61 -29l-8 -8l-12 -4l-41 -20v192l122 62l13 4l4 4h4v4l2 2l2 2zM1237 635l12 8l13 4l36 21l13 4l8 4l135 65l262 -131l-262 -131
l-192 94l-13 9l-12 4l-45 24zM1249 938l-12 8l-188 94l-13 9h-4v262l254 -127l12 -4v-13v-192v-12v-9v-41l-36 21zM1012 1049l-13 -9l-122 -61l-127 -66v267l12 4l119 61l135 66v-254v-8h-4zM1217 934l12 -8l8 -4l49 -25l-110 -53l-9 -8l-12 -5l-123 -61l-8 -4l-8 4
l-254 127l119 61l135 66l8 4l8 -4z" />
</svg>
