<?xml version="1.0" standalone="no"?>
<!DOCTYPE svg PUBLIC "-//W3C//DTD SVG 1.1//EN" "http://www.w3.org/Graphics/SVG/1.1/DTD/svg11.dtd" >
<svg xmlns="http://www.w3.org/2000/svg" xmlns:xlink="http://www.w3.org/1999/xlink" version="1.1" width="2048" height="2048" viewBox="-10 0 2068 2048">
   <path fill="currentColor"
d="M635 0q20 8 82 103q136 -41 276 -41q412 0 702.5 292.5t290.5 700.5v4q17 12 29 29l33 29l-16 33q-33 61 -66 111q-202 268 -734 346q-412 62 -1063 4q-49 -70 -82 -152q-42 -9 -62 -17l-25 -12l16 -33q13 -21 29 -50q-45 -140 -45 -292q0 -293 160.5 -540t428.5 -367
q25 -74 46 -148zM1920 1409zM993 2048q-227 0 -428.5 -95t-341.5 -272q614 50 1021 -8q450 -66 676 -264q-107 289 -362.5 464t-564.5 175zM668 140q-5 21 -11 39.5t-10 38.5q-29 95 -70 202q-17 42 -33 87q-25 58 -54 123q-12 21 -20 42q-91 193 -223 436q-49 87 -152 272
l160 42q136 20 350.5 40.5t432.5 41.5q0 -8 -26.5 -397.5t-34.5 -467.5l-42 -74q-16 -33 -41 -66l-2 -5q-2 -4 -2 -8q-16 -24 -32.5 -47t-37.5 -56q-41 -62 -58 -86q-20 -29 -37 -58q-20 -33 -37 -62q-12 -20 -20 -37zM1055 668q107 222 119.5 450.5t-57.5 389.5
q74 -4 148 -2t185.5 -20.5t210.5 -72.5q-83 -181 -233.5 -368.5t-261.5 -282.5zM1352 853q185 128 247 190q144 144 123 337q157 -78 248 -247q-124 -111 -371 -202q-120 -41 -247 -78z" />
</svg>
