<?xml version="1.0" standalone="no"?>
<!DOCTYPE svg PUBLIC "-//W3C//DTD SVG 1.1//EN" "http://www.w3.org/Graphics/SVG/1.1/DTD/svg11.dtd" >
<svg xmlns="http://www.w3.org/2000/svg" xmlns:xlink="http://www.w3.org/1999/xlink" version="1.1" width="2048" height="2048" viewBox="-10 0 2068 2048">
   <path fill="currentColor"
d="M1022 0q42 0 58 40q344 20 600 248q12 -4 24 -4q24 0 42 18t18 42q0 12 -4 24q228 256 248 600q40 12 40 54t-40 58q-20 344 -248 600q4 12 4 24q0 24 -18 42t-42 18q-12 0 -24 -4q-256 228 -600 248q-12 40 -54 40t-58 -40q-344 -20 -600 -248q-12 4 -24 4
q-24 0 -42 -18t-18 -42q0 -12 4 -24q-228 -256 -248 -600q-40 -12 -40 -56t40 -56q20 -344 248 -600q-4 -12 -4 -24q0 -24 18 -42t42 -18q16 0 24 4q256 -228 600 -248q12 -40 54 -40zM968 88q-324 20 -564 236q4 12 4 20q0 28 -18 46t-46 18q-8 0 -20 -4q-216 240 -236 564
q36 16 36 56t-36 56q20 324 236 564q8 -4 20 -4q28 0 46 18t18 46q0 12 -4 20q240 216 564 236q16 -36 56 -36t56 36q324 -20 564 -236q-4 -8 -4 -20q0 -28 18 -46t46 -18q12 0 20 4q216 -240 236 -564q-36 -16 -36 -56t36 -56q-20 -324 -236 -564q-8 4 -20 4q-28 0 -46 -18
t-18 -46q0 -12 4 -20q-240 -216 -564 -236q-16 36 -56 36t-56 -36zM1024 296q44 0 56 40q268 24 452 220t184 466t-184 468t-452 222q-12 40 -56 40t-56 -40q-268 -24 -452 -220t-184 -466t184 -468t452 -222q12 -40 56 -40zM1080 384q-16 36 -56 36t-56 -36
q-248 24 -416 206t-168 434t168 434t416 206q16 -36 56 -36t56 36q248 -24 416 -206t168 -434t-168 -434t-416 -206zM776 1024q0 -104 72 -176t176 -72t176 72t72 176t-72 176t-176 72t-176 -72t-72 -176z" />
</svg>
