<?xml version="1.0" standalone="no"?>
<!DOCTYPE svg PUBLIC "-//W3C//DTD SVG 1.1//EN" "http://www.w3.org/Graphics/SVG/1.1/DTD/svg11.dtd" >
<svg xmlns="http://www.w3.org/2000/svg" xmlns:xlink="http://www.w3.org/1999/xlink" version="1.1" width="2048" height="2048" viewBox="-10 0 2064 2048">
   <path fill="currentColor"
d="M1652 916q-24 -128 -92 -232q-36 -52 -84 -100q-112 -112 -266 -156t-310 -8l-42 12q-14 4 -16 2t-42 -190t-36 -194t6 -6t96 -22t98 -22t8 4t66 138t66 134t40 4q56 4 116 20l28 8l108 -104q104 -104 108 -104t152 88q24 16 22 30t-46 138q-48 140 -48 142t20 26
q44 52 64 96l8 12h156q152 0 158 6t30 100t24 98t-6 8t-192 46t-188 42t-6 -16zM822 2024q-90 -24 -96 -26t-6 -10l48 -186q48 -186 52 -190q0 -4 32 8q88 28 188 28t188 -28q156 -48 266 -168t150 -280q4 -8 6 -8t184 40t186 40q4 4 8 10t-20 94q-28 108 -36 108
q-8 4 -146 -4t-148 -8t-22 20q-32 52 -76 96l-28 28l40 140q40 144 38 150t-88 56t-92 50t-106 -116l-100 -112l-16 4q-44 12 -108 12q-40 4 -42 6t-74 132t-76 134t-10 4t-96 -24zM272 1702q-72 -70 -72 -78t72 -118t84 -122l8 -16l-16 -40q-32 -64 -48 -128l-4 -8l-28 -8
q-252 -60 -260 -68q-4 -4 -4 -104v-100l8 -4q4 -8 148 -38l144 -30l12 -28q20 -56 44 -100l12 -24l-80 -128q-80 -132 -80 -138t72 -78t80 -72t152 132l144 132l-16 12q-104 88 -160 204q-108 220 -40 456q44 140 152 252l24 24l-112 120q-116 132 -134 150t-22 18
q-8 0 -80 -70z" />
</svg>
