<?xml version="1.0" standalone="no"?>
<!DOCTYPE svg PUBLIC "-//W3C//DTD SVG 1.1//EN" "http://www.w3.org/Graphics/SVG/1.1/DTD/svg11.dtd" >
<svg xmlns="http://www.w3.org/2000/svg" xmlns:xlink="http://www.w3.org/1999/xlink" version="1.1" width="2048" height="2048" viewBox="-10 0 2068 2048">
   <path fill="currentColor"
d="M1024 0q424 0 724 300t300 724t-300 724t-724 300t-724 -300t-300 -724t300 -724t724 -300zM960 204h-4l-144 36q-12 4 -12 16l64 296l4 4q76 -28 156 -28q184 0 322 122t166 298l304 -64q8 -4 8 -16l-36 -148q-4 -8 -16 -8h-240q-32 -60 -76 -108l80 -224q4 -8 -8 -16
l-128 -76q-8 -8 -16 0l-164 164q-72 -24 -144 -28l-104 -212q-4 -4 -12 -8zM484 422q-4 2 -8 2l-108 108q-8 8 -4 16l128 208q-36 56 -52 120l-232 48q-12 0 -12 12v152q0 12 12 12l224 56q16 76 52 140l-128 196q-4 8 4 16l104 108q8 8 20 4l204 -232q-160 -148 -160 -364
q0 -244 192 -392l-228 -208q-4 -4 -8 -2zM1508 1132q-40 168 -174 278t-310 110q-92 0 -176 -36l-4 4l-76 296q0 12 8 16l148 40q8 0 16 -8l116 -212q64 0 128 -12l156 172q8 12 20 4l128 -76q12 -4 8 -16l-64 -220q56 -52 92 -116l236 12q12 4 12 -8l40 -148q4 -8 -4 -16z
" />
</svg>
