<?xml version="1.0" standalone="no"?>
<!DOCTYPE svg PUBLIC "-//W3C//DTD SVG 1.1//EN" "http://www.w3.org/Graphics/SVG/1.1/DTD/svg11.dtd" >
<svg xmlns="http://www.w3.org/2000/svg" xmlns:xlink="http://www.w3.org/1999/xlink" version="1.1" width="2048" height="2048" viewBox="-10 0 2068 2048">
   <path fill="currentColor"
d="M0 0h1160v476h-684v276h304l8 -8q8 -12 24 -12q8 0 16 4l32 16h28v12l148 64l60 -28q4 -16 10 -38t18 -70t22 -80l10 -32q4 -24 32 -28l140 -4q24 0 32 20l84 212l64 24q12 -8 32 -20t64 -38t72 -42l28 -16q8 -4 16 -4q16 0 24 8l104 96q12 8 12 24q0 8 -4 16l-92 208
l32 60q12 4 36 10l72 18q48 12 80 22l32 10q24 4 24 32l8 140q0 24 -24 32l-212 84l-20 64q4 12 16 32t38 64t42 72l16 28q4 8 4 16q0 16 -8 24l-92 104q-12 12 -28 12q-8 0 -12 -4l-208 -92l-64 32q-4 12 -10 36l-18 72l-20 80l-8 32q-8 24 -32 24l-140 8h-4q-24 0 -32 -20
l-80 -216l-64 -20q-12 4 -34 16t-64 38t-72 42l-30 16q-8 4 -16 4q-12 0 -24 -8l-104 -96q-12 -8 -12 -24q0 -8 4 -12l92 -208l-28 -64q-16 -4 -38 -10t-70 -18l-80 -20l-32 -8q-24 -8 -24 -32l-8 -140v-4q0 -24 20 -32l12 -4h-104v820h-476v-2048zM1304 1076h-40l-44 12
l-40 20l-36 24l-28 32l-20 40l-16 40l-8 44l4 44l12 40l16 40l28 36l32 28l36 24l44 12l40 8l44 -4l44 -12l40 -16l32 -28l32 -32l20 -36l16 -44l4 -40v-44l-12 -44l-16 -36l-28 -36l-32 -32l-36 -20l-44 -16z" />
</svg>
