<?xml version="1.0" standalone="no"?>
<!DOCTYPE svg PUBLIC "-//W3C//DTD SVG 1.1//EN" "http://www.w3.org/Graphics/SVG/1.1/DTD/svg11.dtd" >
<svg xmlns="http://www.w3.org/2000/svg" xmlns:xlink="http://www.w3.org/1999/xlink" version="1.1" width="2048" height="2048" viewBox="-10 0 2068 2048">
   <path fill="currentColor"
d="M964 244l583 37v0l169 209l151 70v0l181 242l-25 197l-110 111l-5 4v-4l-8 13l17 -222l-4 -4l-546 -33l57 505l-78 106l12 17l-86 102l21 50l-123 78l16 61l-193 -28l4 49l-349 -111l-12 45l-238 -131h-4l-53 78l-115 -329h-4l-136 103l103 -230l-136 70l50 -152l-103 37
l172 -185l115 -172l-111 21l407 -251h16l-94 4l29 -4l-29 4q4 -4 8 -4h8l-16 4zM1182 474q-41 0 -82 16q16 5 53 11t61.5 16t37.5 27q-8 41 16.5 65.5t48.5 28.5l29 4q173 0 222 -78q-25 33 -76 25t-92.5 -35t-105 -53.5t-112.5 -26.5zM1281 519v12q0 25 14 41.5t35 16.5
q33 0 41 -37q4 8 4 12q0 25 -18.5 43.5t-41 18.5t-41 -18.5t-18.5 -43.5q0 -28 25 -45zM1798 618q-9 4 -19 8t-26.5 18.5t-12.5 30.5q29 -4 58 -57z" />
</svg>
