<?xml version="1.0" standalone="no"?>
<!DOCTYPE svg PUBLIC "-//W3C//DTD SVG 1.1//EN" "http://www.w3.org/Graphics/SVG/1.1/DTD/svg11.dtd" >
<svg xmlns="http://www.w3.org/2000/svg" xmlns:xlink="http://www.w3.org/1999/xlink" version="1.1" width="2048" height="2048" viewBox="-11 0 2069 2048">
   <path fill="currentColor"
d="M2032 1761q-40 -20 -118.5 -54t-114.5 -50q-4 -4 -40 -54.5t-80 -54.5q-16 -12 -52.5 -18t-58.5 -18t-22 -40q-16 -12 -62 -32t-62 -28q-149 -80 -253 -157q-4 -24 6 -34t30 -8t38 6t44.5 16t34.5 12q164 61 273 125q28 -16 44 -12t44 28t44 32q12 4 32 20t32 20t36 0
q48 -12 90.5 16t58.5 72q12 20 72 221h-4zM1751 1536q0 -4 6 -18t8 -20t2 -14t-8 -14t-20 -10q-12 -8 -46 -30t-58 -30q-12 -28 -45 24q-28 64 13 64q132 48 148 48zM980 1500q-313 -16 -597 -204q76 -41 100 -131t-8 -166q68 36 146.5 10t106.5 -99q20 97 116 141t185 -4
q88 -36 112 -138.5t-36 -174.5q-52 -81 -154.5 -87t-166.5 63q-8 4 -16 16t-16 28q-24 44 -36 -8q-45 -76 -141 -86.5t-148 58.5q-44 24 -57 104l5 8q-69 -28 16 -140q12 -4 16 -18.5t2 -28.5t2 -30q4 -136 4 -168q60 104 152 168q92 0 157 73q24 4 60 -30.5t60 -38.5
q64 -24 136.5 -12t124.5 65q357 -77 473 -322q8 -56 41 -68q16 -8 20 32q52 502 -61 799q-36 88 -84 156q-92 -40 -213 -80q-32 -48 -148 -88q28 16 42 36t4 36t-46 28q-173 85 -478 28q285 97 442 61q32 -17 84 25.5t64 46.5q8 8 40 24q69 32 25 48q-4 4 -12 4
q-137 68 -318 64zM278 1267q-108 -16 -188.5 -108t-88.5 -205q-8 -64 34.5 -122t106.5 -58q100 -4 180.5 68t112.5 173q28 64 6 142t-95 102q-28 8 -68 8zM142 1015q48 -8 64 -54.5t-4 -90.5t-68 -44q-52 4 -70.5 52t4 94.5t74.5 42.5zM974.5 991q-42.5 -4 -70.5 -38.5
t-20 -74.5q28 52 86.5 30t46.5 -78q-4 -8 -16 -28q-8 -12 -2 -14t22 6q56 20 64 82t-40 94q-28 25 -70.5 21zM595 950q-36 4 -62 -34t-14 -58q40 60 92 8q48 -44 0 -88q60 0 76.5 64t-36.5 96q-24 16 -56 12z" />
</svg>
