<?xml version="1.0" standalone="no"?>
<!DOCTYPE svg PUBLIC "-//W3C//DTD SVG 1.1//EN" "http://www.w3.org/Graphics/SVG/1.1/DTD/svg11.dtd" >
<svg xmlns="http://www.w3.org/2000/svg" xmlns:xlink="http://www.w3.org/1999/xlink" version="1.1" width="2048" height="2048" viewBox="-11 0 2069 2048">
   <path fill="currentColor"
d="M360 391l-4 4h56l513 28l289 8v356l-8 -4l-32 -16l-48 -24q-28 -16 -60 -4t-48 44l-201 413q-16 32 -4 64.5t44 48.5l413 196q32 16 64 4t48 -40l197 -417q16 -28 4 -60q-8 -28 -40 -48q-40 -24 -106.5 -56t-118.5 -52l-48 -24v-381q44 0 129 -4l581 -24q20 0 32 12
q36 36 36 140q0 164 -44 352.5t-88 292.5l-44 109q-24 48 -49 88q-24 48 -50 84t-38 52l-12 12q-40 48 -88 76q-8 8 -20 14l-20 10t-16 6t-14 2t-12 2l-6 2h-4h-614q-104 -12 -248 -204q-28 -36 -52 -82t-36 -70l-12 -28q-36 0 -94.5 -4t-184.5 -48.5t-190 -124.5
q-85 -96 -105 -240q-36 -245 105 -369q68 -64 176 -88q36 -8 72 -8zM400 547q-56 0 -100 12q-44 8 -76 34t-40 42l-12 20q-48 88 4 233q16 40 38 72t42 44l16 16q36 32 120 60l141 28q-61 -156 -81 -252q-16 -48 -28 -126.5t-20 -130.5zM1222 808q16 12 36 20q-40 88 -44 96
q8 8 12 20l4 24q56 24 96 48q32 20 40 56t-8 68q-28 68 -44 100q-12 25 -20 37q32 36 4 76t-72 16t-28 -68q12 -44 56 -44q52 -105 60 -133l8 -48l-16 -16q-4 -4 -12 -8q-20 -12 -42 -22t-42 -22q-12 8 -24 12q-8 4 -20 4l-80 160q36 32 8 74.5t-76 18.5q-40 -24 -28 -68.5
t56 -44.5l80 -164q-24 -28 -4 -64q16 -32 52 -32q4 -12 20 -44t28 -52z" />
</svg>
