<?xml version="1.0" standalone="no"?>
<!DOCTYPE svg PUBLIC "-//W3C//DTD SVG 1.1//EN" "http://www.w3.org/Graphics/SVG/1.1/DTD/svg11.dtd" >
<svg xmlns="http://www.w3.org/2000/svg" xmlns:xlink="http://www.w3.org/1999/xlink" version="1.1" width="2048" height="2048" viewBox="-10 0 2068 2048">
   <path fill="currentColor"
d="M1122 906q122 0 208 87.5t120.5 228.5t42.5 312t-28 339q-37 -176 -80 -284t-116.5 -185.5t-175.5 -83.5t-253 43t-357 175.5t-483 329.5q706 -958 1122 -962zM1110 175q-4 172 36.5 272t116 120t165.5 6t202 -79.5t212 -136.5t206 -165q-257 506 -579 636
q-245 102 -372 -61q-155 -192 5 -575q4 -8 8 -17z" />
</svg>
