<?xml version="1.0" standalone="no"?>
<!DOCTYPE svg PUBLIC "-//W3C//DTD SVG 1.1//EN" "http://www.w3.org/Graphics/SVG/1.1/DTD/svg11.dtd" >
<svg xmlns="http://www.w3.org/2000/svg" xmlns:xlink="http://www.w3.org/1999/xlink" version="1.1" width="2048" height="2048" viewBox="-11 0 2070 2048">
   <path fill="currentColor"
d="M1005 16l4 -4q104 0 172 68l785 805q64 64 78 118t-16 96t-82 76t-128.5 62t-144.5 50t-138 46t-106 44q-28 32 22 62t108 66t46 68q-20 60 -60 86t-84 30t-110 32t-118 84q-32 32 30 62t30 66q-104 76 -240 98t-160 -58q-12 -68 -58 -92t-106 -32t-84 -32
q-32 -36 36 -106t34 -102t-232 -98t-234 -98q-20 -24 12 -50t82 -44t84 -44t10 -46q-44 -24 -130 -44t-148 -38t-114 -48t-44 -92t80 -150l756 -773q64 -68 168 -68zM1013 88q-76 0 -124 48q-20 24 -76 80l-112 112t-104 108q-44 44 -40 94.5t52 50.5h164l108 -185l64 265
l200 -124l124 64l28 -177l148 121q16 -12 12 -48.5t-24 -56.5l-296 -304q-52 -48 -124 -48zM653 1269q-48 0 44 48q212 96 316 92h12q56 -28 40 -48q-4 0 -12 -4q-68 -12 -226 -44t-174 -44zM1839.5 1485q114.5 -4 146.5 80q0 36 -72.5 44t-142.5 -4t-70 -28
q24 -88 138.5 -92zM533 1649q68 -4 100 36q-28 64 -90 98t-114 -2q-48 -48 -8 -88t112 -44zM1665 1653q44 12 72 34t28 42t-4 32q-68 40 -112 -4t16 -104z" />
</svg>
