<?xml version="1.0" standalone="no"?>
<!DOCTYPE svg PUBLIC "-//W3C//DTD SVG 1.1//EN" "http://www.w3.org/Graphics/SVG/1.1/DTD/svg11.dtd" >
<svg xmlns="http://www.w3.org/2000/svg" xmlns:xlink="http://www.w3.org/1999/xlink" version="1.1" width="2048" height="2048" viewBox="-11 0 2070 2048">
   <path fill="currentColor"
d="M56 66q28 0 68 28q68 44 363 231q-83 72 -151 168q-252 -259 -292 -299q-67 -60 -32 -108q16 -20 44 -20zM1106 102q203 0 381 78t297.5 205.5t189.5 295t74 343t-66 355.5t-213.5 323.5t-323 213.5t-355.5 66t-343.5 -74t-295 -189.5t-205.5 -297.5t-78 -381
q0 -299 172 -539q239 248 327 347q88 104 219.5 188t235.5 76q191 139 235 163q0 36 12 68q12 36 46 84t54 78t30 78t-30 83q136 -75 182 -199t-14 -224q-68 -127 -176 -95q-40 -48 -219 -204q-20 -100 -126 -205.5t-222 -169.5q-115 -68 -395 -240q260 -227 607 -227z
M1234 964l211 184q-72 48 -96 103q-55 -36 -203 -147q-12 -8 -4 -28q8 -28 42 -68t50 -44zM260 1116h-4q36 223 179.5 400.5t363.5 253.5q119 48 293 42t301 -86q36 -40 28 -87.5t-30 -79.5t-58 -80t-47 -84q-8 -28 -8 -60q-148 104 -295.5 134t-261.5 -2t-213.5 -96
t-159.5 -129.5t-88 -125.5z" />
</svg>
