<?xml version="1.0" standalone="no"?>
<!DOCTYPE svg PUBLIC "-//W3C//DTD SVG 1.1//EN" "http://www.w3.org/Graphics/SVG/1.1/DTD/svg11.dtd" >
<svg xmlns="http://www.w3.org/2000/svg" xmlns:xlink="http://www.w3.org/1999/xlink" version="1.1" width="2048" height="2048" viewBox="-10 0 2064 2048">
   <path fill="currentColor"
d="M4 1022v-1022h248v2048h-248v-1022v-4zM878 2040q-92 -8 -164.5 -58t-92.5 -130q-12 -65 -10 -167t2 -170q0 -4 -2 -138.5t10 -138.5q28 -88 114.5 -134t186.5 -46q613 0 853 4q93 4 171 54t94 134q16 65 -36 85q-88 60 -256.5 172t-220.5 148h-140h-163h-142
q373 -248 509 -340q-613 4 -629 4q-64 -4 -88 44t-12 112q4 236 4 244q16 36 54 48t76 8t74 0q36 0 970 4v269q-1138 -4 -1154 -4l-12 -4h4zM609 866v-125q48 -24 146.5 -76t150.5 -80q32 16 256 124q0 16 -26 30t-66 30.5t-52 28.5q-60 24 -48 64v132h-361v-66v-62z
M1683 910v-84q-821 -437 -1066 -574q-8 0 -6 -124t2 -128h357v172q112 56 489 256.5t585 308.5v253h-361v-84v4zM1715 397q-28 -16 -110 -56t-126 -64q16 -8 204 -105v-172h361v128q0 124 -4 124q-172 97 -293 157q-4 0 -32 -12z" />
</svg>
