<?xml version="1.0" standalone="no"?>
<!DOCTYPE svg PUBLIC "-//W3C//DTD SVG 1.1//EN" "http://www.w3.org/Graphics/SVG/1.1/DTD/svg11.dtd" >
<svg xmlns="http://www.w3.org/2000/svg" xmlns:xlink="http://www.w3.org/1999/xlink" version="1.1" width="2048" height="2048" viewBox="-10 0 2068 2048">
   <path fill="currentColor"
d="M1024 1844h-512h-512q24 -41 84.5 -109.5t76.5 -88.5q4 -24 -20 -72.5t-28 -64.5q-93 -246 -46.5 -512t219.5 -459q161 -190 405 -278.5t490 -44.5q270 40 482 229.5t288 451.5q113 383 -76 738q28 40 90.5 113t82.5 97q-12 4 -62 4h-67h-899zM1068 275
q-242 0 -449.5 137.5t-300.5 358.5q-68 158 -64 337t81 337q20 -21 54 -61t46 -56q37 -45 129.5 -153.5t145.5 -165.5q28 28 80.5 92.5t68.5 85.5q16 16 78.5 88.5t94.5 112.5q8 -16 32.5 -40t38.5 -40.5t12 -38.5t-35 -38q-40 -48 -171 -203.5t-199 -240.5q4 -8 18 -26
t24 -28t22 -18t22 2t18 30q53 61 180 214t199 234q125 -145 508 -605q-105 -149 -302 -238q-161 -72 -331 -72v-5zM1879 1082q0 -186 -77 -339q-28 28 -76.5 86.5t-60.5 70.5q-36 49 -163 198t-192 230q121 149 145 173q16 -20 72.5 -92.5t93.5 -88.5q12 16 64.5 80.5
t84.5 96.5q113 -189 109 -415zM1383 1586q-89 -109 -145 -174q-4 8 -40.5 48.5t-48.5 64.5q16 12 66.5 74.5t78.5 91.5q4 -4 38.5 -44.5t50.5 -60.5z" />
</svg>
