<?xml version="1.0" standalone="no"?>
<!DOCTYPE svg PUBLIC "-//W3C//DTD SVG 1.1//EN" "http://www.w3.org/Graphics/SVG/1.1/DTD/svg11.dtd" >
<svg xmlns="http://www.w3.org/2000/svg" xmlns:xlink="http://www.w3.org/1999/xlink" version="1.1" width="2048" height="2048" viewBox="-10 0 2068 2048">
   <path fill="currentColor"
d="M1635 160l-419 432q-52 -16 -116 -24l371 -380q92 -20 164 -28zM1899 180q20 8 32 16q108 52 116 184t-64 302t-178 352t-236 360t-227.5 300t-165.5 194q435 -888 207 -1180zM1216 256l-300 308q-76 4 -160 20l244 -252q116 -44 216 -76zM848 392l-208 212
q-272 60 -640 196q400 -224 848 -408z" />
</svg>
