<?xml version="1.0" standalone="no"?>
<!DOCTYPE svg PUBLIC "-//W3C//DTD SVG 1.1//EN" "http://www.w3.org/Graphics/SVG/1.1/DTD/svg11.dtd" >
<svg xmlns="http://www.w3.org/2000/svg" xmlns:xlink="http://www.w3.org/1999/xlink" version="1.1" width="2048" height="2048" viewBox="-10 0 2066 2048">
   <path fill="currentColor"
d="M1484 0q218 4 352 36q53 9 93.5 45t52.5 89q65 231 -61 373q89 158 113 336q41 267 -62.5 526.5t-317.5 425.5q-223 178 -518.5 210.5t-555.5 -93.5q-255 -121 -413 -368t-162 -527q-4 -36 -2 -76.5t8 -89.5t10 -73q-40 -320 4 -510q21 -110 191 -174q210 -73 352 -17
q312 -158 660 -89q65 -16 256 -24zM1492 49q-183 4 -255 28q-320 -73 -616 65q101 65 170 178q117 202 8 304q-24 24 -50.5 32t-61 4t-52.5 -6t-62.5 -16t-52.5 -18q-199 -69 -328 52q-69 -20 20 -77q28 -20 48 -24q29 -12 63.5 -18t60.5 -6t68.5 8t61 14t65 20t58.5 19
q53 20 107.5 -6.5t54.5 -83.5q0 -174 -182 -320q-114 -97 -336 -40q-57 20 -91.5 34.5t-73 48.5t-46.5 79q-40 190 0 514q-49 235 20 470q77 263 296 453.5t490 227.5q255 40 506 -59t409 -302q175 -214 203 -506t-101 -535q-8 -4 -77 4t-81 -24q-49 -45 -109.5 -148
t-97.5 -144q-8 -12 -36 -40q-77 -73 -25 -77h13q81 61 182 227q4 4 36.5 60.5t58.5 79t67 18.5q117 -21 129 -215q0 -162 -64 -215q-114 -52 -397 -60zM1593 567q16 0 36 4q90 12 124 109.5t-26 166.5q-57 72 -158.5 58t-133.5 -103q-36 -77 18.5 -158t139.5 -77zM532 693
q121 -4 216.5 79t111.5 200q28 138 -63 255.5t-229 129.5q-137 16 -250.5 -81t-117.5 -235q-12 -138 91 -245t241 -103zM625 867v-4q-89 0 -133.5 83t3.5 156q45 73 136 68.5t128 -80.5q44 -69 -4.5 -148t-129.5 -75zM1471 996q17 0 29 14.5t4 30.5q-29 61 -85.5 172
t-72.5 140q57 69 150 73t158 -53q60 -53 60 -154q57 -48 61 24q8 61 -20 98q-53 117 -190.5 143.5t-234.5 -58.5q-21 85 -97.5 139.5t-166.5 54.5q-77 0 -149.5 -40.5t-80.5 -105.5q32 -32 86.5 24.5t91.5 52.5q89 25 174 -32t81 -150q-45 -28 -136 -77t-119 -65
q-33 -12 -51 -38.5t18 -50.5q33 -8 213 -60.5t277 -81.5z" />
</svg>
