<?xml version="1.0" standalone="no"?>
<!DOCTYPE svg PUBLIC "-//W3C//DTD SVG 1.1//EN" "http://www.w3.org/Graphics/SVG/1.1/DTD/svg11.dtd" >
<svg xmlns="http://www.w3.org/2000/svg" xmlns:xlink="http://www.w3.org/1999/xlink" version="1.1" width="2048" height="2048" viewBox="-10 0 2058 2048">
   <path fill="currentColor"
d="M1014 0h-4q80 16 92 24q133 77 383 220t278 163q137 64 141 181v304v304q0 28 2 86.5t-2 105t-12 86.5q-16 44 -46.5 74.5t-99 66.5t-76.5 44q25 12 105 61q12 8 56.5 32t66.5 44t34 57q4 28 -18 56t-38 38t-57 35q-145 104 -314 44q-48 -20 -138.5 -74.5t-98.5 -58.5
q-45 24 -97 56q-157 101 -262 33q-237 -137 -620 -359q-181 -97 -173 -217v-721q-8 -202 104 -258q53 -28 246 -141t298 -173q20 -8 72.5 -42.5t93 -50.5t84.5 -20zM1002 451h-4l-8 4l-32 12q-49 28 -143.5 82.5t-142.5 78.5q-13 12 -47 30.5t-52 30.5t-34 38t-21 54v323
q5 16 2.5 56t0 62.5t16.5 50.5t38 44l290 169q12 4 36 20t40.5 24.5t38.5 16.5t44 6t42 -14q49 -29 143.5 -83t142.5 -83q12 -8 46.5 -26t52.5 -30t36 -38t18 -59v-326q-4 -16 -2 -54.5t0 -60.5t-16 -50t-38 -44q-52 -28 -149 -84.5t-121 -68.5q-16 -8 -52.5 -32.5
t-66.5 -36.5t-58 -12z" />
</svg>
