<?xml version="1.0" standalone="no"?>
<!DOCTYPE svg PUBLIC "-//W3C//DTD SVG 1.1//EN" "http://www.w3.org/Graphics/SVG/1.1/DTD/svg11.dtd" >
<svg xmlns="http://www.w3.org/2000/svg" xmlns:xlink="http://www.w3.org/1999/xlink" version="1.1" width="2048" height="2048" viewBox="-10 0 2058 2048">
   <path fill="currentColor"
d="M622 0q24 0 28 24v431v426q84 72 446 370v-861q-8 -8 -64 -48l286 -145q36 -24 60 4q0 213 -2 617.5t-2 484.5l434 358q16 4 14 22t-14 18q-120 65 -345.5 177.5t-269.5 132.5q-4 4 -38 22t-55 14q-76 -56 -215 -166.5t-187 -146.5q-4 -9 -32 -29t-36 -36q0 -44 4 -128.5
t4 -108.5q-69 -56 -199.5 -163t-146.5 -123q-4 -4 -32 -26t-36 -38v-400v-400v-45q0 -40 8 -44q48 -28 140.5 -74.5t116.5 -58.5q12 -4 58.5 -28t74.5 -32zM582 76q-13 4 -35 16.5t-26 16.5q0 225 8 792q4 0 16 -4t24.5 -12t20.5 -12q0 -153 -8 -797zM461 137
q-36 16 -100.5 50t-84.5 42v805q52 -28 121 -61q-25 -20 -73 -52v-46v-46q16 12 44.5 34t52.5 40t44 34q4 -8 4 -50v-54q-24 -17 -137 -105v-97q113 93 133 109q0 -16 2 -54t2 -55q-28 -20 -74.5 -58t-62.5 -50v-97q24 24 74.5 64.5t58.5 44.5v-50v-51q-24 -16 -68.5 -52
t-64.5 -52v-48v-45l133 105v-66q0 -35 -2 -75t-2 -64zM734 338q16 12 54.5 42t58.5 42v137q-24 -16 -66.5 -48t-46.5 -40v-133zM940 495q80 112 88 253q4 52 -18 96.5t-70 28.5v-378zM734 579l109 89q0 24 2 68t2 68q-20 -16 -58.5 -46t-54.5 -42v-137zM1507 756q20 0 36 8
t36 28t28 24q12 13 12 -4q0 -40 8 -40q24 16 60.5 48.5t44.5 36.5q12 12 32 26t36 28t24 34v141v145q-4 12 -2 26t2 28t-8 18q-36 -24 -96.5 -76.5t-68.5 -60.5q-36 -16 -32 -84q-100 -80 -128 -145q-77 -157 16 -181zM1539 829q-28 0 -24 36q0 76 104 157v-137
q-8 -4 -24 -18t-30 -24t-26 -14zM618 921q-105 56 -314 157q93 76 263.5 217t191.5 157q60 -28 170.5 -84.5t142.5 -72.5q-88 -72 -259 -213t-195 -161z" />
</svg>
