<?xml version="1.0" standalone="no"?>
<!DOCTYPE svg PUBLIC "-//W3C//DTD SVG 1.1//EN" "http://www.w3.org/Graphics/SVG/1.1/DTD/svg11.dtd" >
<svg xmlns="http://www.w3.org/2000/svg" xmlns:xlink="http://www.w3.org/1999/xlink" version="1.1" width="2048" height="2048" viewBox="-10 0 2069 2048">
   <path fill="currentColor"
d="M1614 13h-4q0 -4 24 -2t28 2q68 8 204 96q140 80 176 287q20 132 -24 258t-136 210q-116 115 -228 163q-52 32 -115.5 42t-141.5 10t-122 4q-8 4 -38 10t-40 10t-36 12t-38 16t-28 22t-28 30t-34 48t-34 50t-24 48t-16 58q4 48 0 86t2 84t26 77q8 12 24 42t26 46t28 38
t36 36t42 26q140 48 220 12q124 -52 156 -164q27 -147 -20 -231q-56 -96 -176 -100q-52 -4 -96 32t-52 84q-12 64 16 115.5t92 55.5h20h28q12 0 26 2t22 6t14 10t4 18t-10 28q-68 52 -196 4q-64 -28 -100 -89.5t-24 -129.5q0 -100 92 -188q72 -56 172 -58t176 54
q143 84 167 244q20 139 -12 227q-20 112 -151 192q-20 16 -42 28t-50 22t-46 16t-56 14t-46 12q-244 -12 -364 -148q-88 -68 -151 -204q-68 -227 -16 -419q8 -20 20 -60t22 -70t18 -50q59 -144 63 -215q12 -124 -79 -248q-124 -136 -256 -160h-48h-52q-16 0 -48 4t-50 12
t-40 22t-38 34q-88 76 -84 196q-12 96 56 171.5t164 91.5q136 28 220 -60q36 -43 34 -111t-50 -100q-44 -52 -120 -40t-96 76q0 60 -48 60q-44 0 -44 -44v-24q12 -100 112 -152t196 -12q112 40 156 184q20 120 -60 239q-100 108 -232 124q-108 16 -252 -36
q-115 -56 -167 -160q-16 -31 -36 -191q-4 -60 16 -184q84 -204 299 -288q120 -48 312 -28q152 28 295 136q64 48 138 166t118 158q76 108 212 100q147 16 247 -56q112 -56 156 -168q72 -96 48 -192q-16 -140 -152 -203q-164 -48 -263 43q-8 8 -32 28t-32 30t-18 28t-10 30
q-48 92 48 216q64 44 143.5 16t99.5 -100q12 -40 -26 -94t-38 -82q48 -48 106 12t50 120q12 100 -58 180t-173 84q-108 8 -194 -76t-94 -200q-16 -84 36 -196q8 -27 26 -47t50 -48t40 -36q128 -76 263 -84zM5 748zM1343 109v4v-4zM1315 133z" />
</svg>
