<?xml version="1.0" standalone="no"?>
<!DOCTYPE svg PUBLIC "-//W3C//DTD SVG 1.1//EN" "http://www.w3.org/Graphics/SVG/1.1/DTD/svg11.dtd" >
<svg xmlns="http://www.w3.org/2000/svg" xmlns:xlink="http://www.w3.org/1999/xlink" version="1.1" width="2048" height="2048" viewBox="-10 0 2068 2048">
   <path fill="currentColor"
d="M1024 0q16 36 58 134t56 130t50 116t60 132t68 140t86 176t104 202t134 256t164 310q-112 -68 -280 -112q60 32 118 68t90 60t80 64t64 52q76 148 172 320q-24 -8 -108 -40q-568 -192 -600 -320q-20 -64 80 -120v-104q-8 -4 -24 -10t-22 -8t-18 -8t-18 -10t-12 -12
t-10 -18t-4 -20v-18q0 -8 4 -20l6 -18q2 -6 10 -22t12 -20l-72 -76l-24 12q-16 8 -22 10t-18 8t-20 6t-18 -2t-20 -6t-18 -10t-12 -12t-10 -16t-8 -16l-8 -24q-6 -18 -6 -26h-104q-4 8 -10 24t-8 22t-8 18t-10 18t-12 12t-18 10t-20 6t-18 2t-20 -6t-18 -8t-22 -10l-24 -12
l-72 76q4 4 12 20t10 22l6 18q4 12 4 20v18q0 10 -4 20t-10 18t-12 12t-18 10t-18 8t-22 8t-24 10v104q8 0 24 6t22 8t18 8t18 12t12 14t10 16q28 72 -128 156t-374 164t-250 96q552 -992 748 -1400q124 36 292 168q-144 -168 -264 -228q72 -156 248 -588zM1034 1388
q54 0 92 38t38 90t-38 90t-92 38t-92 -38t-38 -90t38 -90t92 -38z" />
</svg>
