<?xml version="1.0" standalone="no"?>
<!DOCTYPE svg PUBLIC "-//W3C//DTD SVG 1.1//EN" "http://www.w3.org/Graphics/SVG/1.1/DTD/svg11.dtd" >
<svg xmlns="http://www.w3.org/2000/svg" xmlns:xlink="http://www.w3.org/1999/xlink" version="1.1" width="2048" height="2048" viewBox="-10 0 2068 2048">
   <path fill="currentColor"
d="M0 2008q0 -4 496.5 -946t520.5 -986l20 -36l24 40q28 44 225 426q197 377 486 932q289 554 275 562t-199 8h-184l-53 -52q-221 -221 -647 -341l-120 -32l153 -8q237 -13 385 12q36 8 36 -8q0 -21 -184.5 -360.5t-196.5 -339.5t-374 651q-257 466 -257 468t-106.5 6
t-195.5 4h-104z" />
</svg>
