<?xml version="1.0" standalone="no"?>
<!DOCTYPE svg PUBLIC "-//W3C//DTD SVG 1.1//EN" "http://www.w3.org/Graphics/SVG/1.1/DTD/svg11.dtd" >
<svg xmlns="http://www.w3.org/2000/svg" xmlns:xlink="http://www.w3.org/1999/xlink" version="1.1" width="2048" height="2048" viewBox="-10 0 2068 2048">
   <path fill="currentColor"
d="M1644 331q89 0 158.5 44.5t104 108t57 126.5t26.5 108l4 45q-4 -8 -8 -18.5t-22.5 -43t-36.5 -59t-51 -53t-69.5 -40.5t-83.5 -10t-100 32q-245 131 -224 461q0 37 14 49t27 8l8 -8q12 8 175 -167q74 -78 135 -116.5t85 -38.5h25q8 0 20 2t45 22.5t57.5 49t42.5 89.5
t14 143q-4 126 -32.5 230t-56.5 141l-29 41q33 -490 -126 -461q-58 16 -155 118q-111 110 -261 21q-82 -45 -129 -120.5t-51 -128.5l-8 -53q0 -17 2 -47.5t20.5 -112t53 -148.5t112 -128.5t187.5 -81.5q37 -4 70 -4zM942 518q57 0 100 26.5t51 71.5q12 53 -30.5 102
t-114 63.5t-128.5 -12t-69.5 -79.5t30.5 -102t112 -66q25 -4 49 -4zM118 571q-32 490 127 461q61 -16 155 -118q110 -110 261 -21q81 45 128 120.5t55 128.5l4 53v47q0 31 -18 112.5t-53 148.5t-114.5 128.5t-187.5 80t-191.5 -18.5t-124.5 -104t-67.5 -134.5t-30.5 -120.5
l-8 -49q4 8 8 18.5t22.5 43t39 59t53 53t67 40.5t83.5 10t98 -32q249 -131 224 -461q0 -37 -12 -49t-24 -8l-13 8q-12 -8 -175 167q-73 78 -134.5 116.5t-85.5 38.5h-25q-8 0 -20 -2t-44.5 -22.5t-55 -49t-41 -89.5t-18.5 -143q4 -130 32.5 -232t57.5 -139zM991 816
q53 0 89.5 34.5t41.5 87.5q0 90 59 184t120 143l61 49q-118 -5 -214 -39.5t-145 -73t-87.5 -98t-42.5 -73.5t-12 -39q-9 -20 -9 -40q0 -58 41 -96.5t94 -38.5h4z" />
</svg>
