<?xml version="1.0" standalone="no"?>
<!DOCTYPE svg PUBLIC "-//W3C//DTD SVG 1.1//EN" "http://www.w3.org/Graphics/SVG/1.1/DTD/svg11.dtd" >
<svg xmlns="http://www.w3.org/2000/svg" xmlns:xlink="http://www.w3.org/1999/xlink" version="1.1" width="2048" height="2048" viewBox="-10 0 2068 2048">
   <path fill="currentColor"
d="M959 17v-4q120 0 196 8q184 4 336.5 122t228.5 294q12 20 30 74t22 62q32 117 40 341t12 256q8 272 120 429q44 56 68 142t28 134t8 160h-244q0 -268 -12 -340q-88 -361 -337 -453q-92 -12 -134 -4t-128 36t-126 36q-72 16 -192.5 -26t-172.5 -42q-108 -16 -202 52
t-142 177q-40 80 -60 180t-20 190v194h-248q-24 0 -28 -20t2 -46t2 -46q-4 -120 84 -326.5t96 -234.5q16 -84 26 -174t18 -206t12 -172q4 -196 82 -374.5t222 -290.5q152 -128 413 -128zM1339 65zM1539 185zM618 373h4q-92 0 -144 82t-8 163q40 92 148 94t153 -86
q48 -81 -4.5 -169t-148.5 -84zM1423 377q-92 0 -140 88t4 165q44 88 152 84t144 -96q45 -81 -11.5 -167t-148.5 -74zM1708 449q8 8 28 52q-16 -36 -28 -52zM1431 489q24 0 42 18t14 38q-12 77 -68 48q-56 -28 -40 -72q8 -28 52 -32zM622 489q28 -4 46 20t10 52
q-28 65 -80 28q-48 -32 -28 -72q12 -24 52 -28zM1027 545h4q-80 -4 -172 113q-36 72 -108.5 106t-152.5 22q-76 -28 -116 36t44 96q60 24 94 22t98.5 -16t100.5 -14v-4q-53 8 -81 12q257 -36 525 -4q-20 0 0 4q72 8 96 16q4 0 32 2t48 2t48 -4t48 -14t32 -28t8 -46
q-12 -60 -54 -76t-114 -8t-96 4q-48 -20 -128 -116.5t-156 -104.5zM919 585zM1043 922q-88 0 -160 8q-16 4 -68 4q-113 12 -109 32q113 96 353 88q184 12 284 -92q-44 -28 -300 -40zM1435 938z" />
</svg>
