<?xml version="1.0" standalone="no"?>
<!DOCTYPE svg PUBLIC "-//W3C//DTD SVG 1.1//EN" "http://www.w3.org/Graphics/SVG/1.1/DTD/svg11.dtd" >
<svg xmlns="http://www.w3.org/2000/svg" xmlns:xlink="http://www.w3.org/1999/xlink" version="1.1" width="2048" height="2048" viewBox="-10 0 2058 2048">
   <path fill="currentColor"
d="M1018 0q-52 140 -168 392q0 8 -22 46t-32 66t-2 52q4 20 68 88q28 28 80 84t76 80h4q24 -24 76 -80t80 -84q64 -68 68 -88q8 -24 0 -50t-30 -64t-22 -42q-16 -32 -76 -180t-100 -220zM126 548v8q60 0 224 20q108 16 140 32q44 24 80 58t94 102t66 76q12 12 52 54t64 66
q32 40 32 64q-4 16 -48 64l-136 136l-176 176q-80 80 -104 96q-32 16 -144 32q-188 28 -256 32v4q76 8 198 8h202q16 0 56 4t72 4t56 -10t46 -30t54 -54t40 -42q24 -28 88 -88t110 -108t86 -92h4q36 44 82 92t110 108t92 88q8 8 38 42t54 54t48 30t54 10t72 -4t58 -4h198
q166 0 202 -8v-4q-72 -4 -256 -32q-116 -16 -144 -32q-24 -16 -108 -96l-176 -176q0 -4 -54 -56t-78 -80q-48 -48 -48 -64q-4 -24 32 -64q20 -24 64 -70t48 -50q16 -20 54 -62t60 -68t58 -56t68 -50q36 -16 140 -32q164 -20 228 -20v-8l-384 -4h-168l-116 116l-224 248
l-228 -240l-120 -124h-168l-384 4h-4zM646 844l-180 360l-124 252q16 -4 32 -12t26 -12t26 -20t20 -18t24 -24t24 -22l204 -204l34 -30q34 -30 50 -52t16 -38q0 -20 -40 -64q-68 -76 -112 -116zM1402 844q-20 24 -56 62t-52 54q-36 44 -36 64q0 16 16 38t48 52t36 30
l204 204q4 4 18 20t20 20t18 16t22 18t22 14t24 12l24 8l-144 -292zM790 1488q-8 8 -36 40t-48 50t-48 38t-52 24q-36 8 -78 8t-96 -2t-82 -2q-88 0 -104 8q-16 12 -30 28t-28 48t-18 36q-140 260 -152 284q52 0 104 -20t126 -60t94 -52q208 -100 460 -152zM1258 1488
q20 12 56 52t70 66t62 34q36 8 80 8t98 -2t78 -2q92 0 108 8q16 12 28 28t28 48t16 36q20 32 50 90t56 104t46 90q-52 0 -102 -20t-124 -60t-94 -52q-208 -100 -460 -152q28 -120 4 -276z" />
</svg>
