<?xml version="1.0" standalone="no"?>
<!DOCTYPE svg PUBLIC "-//W3C//DTD SVG 1.1//EN" "http://www.w3.org/Graphics/SVG/1.1/DTD/svg11.dtd" >
<svg xmlns="http://www.w3.org/2000/svg" xmlns:xlink="http://www.w3.org/1999/xlink" version="1.1" width="2048" height="2048" viewBox="-11 0 2069 2048">
   <path fill="currentColor"
d="M341 392q309 -281 687 -297q293 -16 494 72q261 121 382 278q92 120 124 253q32 128 12 201l-16 56q-4 -12 -12 -32t-14 -36t-18 -29q-317 -353 -759 -285q-141 20 -286 133q-112 88 -128 237q-12 124 157 382q176 261 225 353q88 165 124 277h-1121q-116 -265 -161 -498
q-68 -349 12 -631q65 -221 298 -434z" />
</svg>
