<?xml version="1.0" standalone="no"?>
<!DOCTYPE svg PUBLIC "-//W3C//DTD SVG 1.1//EN" "http://www.w3.org/Graphics/SVG/1.1/DTD/svg11.dtd" >
<svg xmlns="http://www.w3.org/2000/svg" xmlns:xlink="http://www.w3.org/1999/xlink" version="1.1" width="2048" height="2048" viewBox="-10 0 2068 2048">
   <path fill="currentColor"
d="M1049 221v-4h5q251 0 456 141q4 -5 18 -11.5t41 -20.5t46 -20l18 -7q9 -9 23 -9q50 4 91 27q123 68 201 187q86 137 100 296v5q0 64 -23 119l-4 4q-23 50 -64 78v4q-5 0 -16.5 7t-32 18.5t-33.5 20.5l-14 9q-18 319 -253 542.5t-559 223.5q-233 0 -429 -123l-105 50v5
q-41 23 -86 23q-87 0 -182.5 -71t-159.5 -189q-82 -133 -87 -292v-14q0 -118 96 -182l18 -9q9 -5 23 -12l41 -20q27 -14 48 -23l20 -9q23 -310 253.5 -527t549.5 -217zM1054 271q-169 0 -306 78q-87 50 -87 123q14 123 242 183h9q69 13 133 9q196 0 314 -73q28 -23 50 -46
l-4 5q14 -14 23 -32v-5v5q-5 13 -19 27q32 -36 32 -73q0 18 -9 41q9 -23 9 -45v-14v4v-4q-9 -55 -73 -96q-141 -87 -314 -87zM1409 545zM1656 322q-5 0 -9 4l-114 55q150 114 236.5 282.5t91.5 365.5v9l82 -46q32 -27 50 -68l5 -5q18 -50 18 -109v-10q-9 -145 -87 -278
q-77 -109 -191 -178q-41 -18 -82 -22zM1405 554q-28 28 -78 55q50 -27 78 -55zM406 942h-5q-27 0 -54 9q-28 14 -75.5 36.5l-66.5 31.5q23 0 50 10q169 59 270 246q104 155 77 342q-4 50 -27 87q23 -14 155 -73q23 -19 41 -46q55 -82 9 -269q-68 -201 -219 -315
q-82 -59 -155 -59zM1637 951q-68 0 -145 55q-169 123 -224 342q0 4 -5 18q-31 160 46 237q64 60 164 19q114 -42 210 -178q119 -174 100 -347q-18 -119 -109 -141q-18 -5 -37 -5zM187 1047q-36 0 -55 9q-82 32 -100 141q-14 206 132 388q101 132 215 164q54 18 111 -4.5
t76 -77.5l9 -23q27 -100 -14 -228q-55 -173 -178 -278q-96 -82 -169 -91h-27z" />
</svg>
