<?xml version="1.0" standalone="no"?>
<!DOCTYPE svg PUBLIC "-//W3C//DTD SVG 1.1//EN" "http://www.w3.org/Graphics/SVG/1.1/DTD/svg11.dtd" >
<svg xmlns="http://www.w3.org/2000/svg" xmlns:xlink="http://www.w3.org/1999/xlink" version="1.1" width="2048" height="2048" viewBox="-10 0 2058 2048">
   <path fill="currentColor"
d="M964 0q128 0 222 92t94 220v4v4q64 -44 148 -44q44 0 92 16q-4 -20 -4 -24q0 -72 52 -124t126 -52t126 52t52 124t-52 124t-128 52h-4h-8q24 52 24 108q0 116 -82 198t-194 82t-192 -78t-88 -186q-80 60 -184 60h-32q80 108 80 240q0 76 -28 148q112 -52 236 -52
q224 0 382 158t158 382t-158 384t-382 160t-384 -160t-160 -384q0 -124 60 -244q-72 28 -144 28q-172 0 -294 -124t-122 -296t122 -294t294 -122q48 0 96 12q-36 -72 -36 -148q0 -132 92 -224t220 -92zM964 84q-96 0 -164 68t-68 164t68 162t164 66t164 -66t68 -162
t-68 -164t-164 -68zM1694 176q-38 0 -66 26t-28 66t28 66t66 26t66 -26t28 -66t-28 -66t-66 -26zM1426 360q-82 0 -138 56t-56 136t56 138t138 58t138 -58t56 -138t-56 -136t-138 -56zM596 536q-140 0 -238 98t-98 236t98 236t238 98t236 -98t96 -236t-96 -236t-236 -98z
M1222 1048q-190 0 -326 134t-136 326t136 326t326 134t326 -134t136 -326t-136 -326t-326 -134z" />
</svg>
