<?xml version="1.0" standalone="no"?>
<!DOCTYPE svg PUBLIC "-//W3C//DTD SVG 1.1//EN" "http://www.w3.org/Graphics/SVG/1.1/DTD/svg11.dtd" >
<svg xmlns="http://www.w3.org/2000/svg" xmlns:xlink="http://www.w3.org/1999/xlink" version="1.1" width="2048" height="2048" viewBox="-10 0 2068 2048">
   <path fill="currentColor"
d="M1024 0q424 0 724 300t300 724t-300 724t-724 300t-724 -300t-300 -724t300 -724t724 -300zM772 244q-12 0 -12 16v752h-504q-16 0 -16 14t16 14h752v752q0 16 14 16t14 -16v-752h752q12 0 12 -14t-12 -14h-508v-752q0 -16 -16 -16t-16 16v752h-456v-752q0 -16 -12 -16
h-8zM1016 580q-40 -4 -74 18t-34 58q-4 28 12 54t40 34q12 4 60 18t64 34q20 24 4 54t-48 30q-40 8 -74 -16t-38 -64q-12 -8 -26 -2t-6 22v42v42q20 16 48 -20q40 28 88 28t84 -24q44 -28 36 -84t-56 -72q-12 -8 -58 -22t-66 -30q-24 -28 0 -54t60 -14q28 0 52 22t24 50
q12 8 24 2t8 -22v-38q0 -34 -4 -42q-12 -8 -30 8t-30 4q-28 -16 -60 -16zM1368 584q-16 4 -4 28q4 8 12 4q20 -4 28 4t4 24v112v112q-8 8 -22 6t-22 2q-8 16 2 24t26 4h64h60q12 -12 4 -26t-24 -6q-16 4 -24 -2t-4 -22q0 -8 -2 -40t2 -36q12 -4 52 -4t60 -8q48 -12 60 -66
t-24 -86q-20 -16 -44 -20t-68 -4h-48h-44h-44zM396 584q-16 4 -8 28q4 8 16 4q32 8 32 16v120v116q-4 8 -16 6t-22 0t-10 14q-4 12 4 16t24 4h12q8 -4 88 -2t88 -2q36 -4 62 -24t26 -52q8 -36 -18 -60t-62 -28q20 -4 46 -26t22 -50q0 -32 -24 -52t-56 -24q-8 -4 -90 -4h-90
h-12h-12zM1528 616q28 0 42 24t2 52q0 24 -20 36t-44 8h-20q-16 0 -22 -4t-2 -16v-48v-48q0 -4 24 -4h24h8h8zM572 616q24 0 40 24t8 48q-8 40 -76 36h-24t-24 -4q0 -8 -4 -100q8 -4 16 -4h16h16h24h8zM572 756q28 0 44 26t8 50q-12 48 -80 40h-24h-28q-4 -4 -2 -38t2 -38
l-2 -16t2 -22t16 -2h56h8zM816 1160h-48h-44q-8 20 16 32q4 4 8 4q0 8 -2 16t-8 20t-6 16q-4 8 -10 24t-10 24t-8 4q-8 -16 -20 -52t-20 -56q20 4 28 -8t-4 -24h-50h-54q-16 28 28 32q60 168 64 184q40 8 40 -16q8 -16 24 -56l24 -60q8 20 16 42t18 46t14 40q16 8 30 2
t14 -26q48 -132 56 -156l12 -2t16 -6t0 -16q0 -8 -8 -10t-18 0t-18 2h-22h-22q-12 28 28 32q-24 72 -44 120q-4 -20 -18 -60t-18 -60q16 4 22 -10t-6 -22zM1212 1160h-14h-10h-32h-28q-8 0 -8 10t4 16t16 2q8 0 10 8t0 20t2 16q-4 12 -4 50t-4 62h-8h-14q-6 0 -10 6t0 18
q0 4 8 6t16 0t16 2q4 -4 28 -2t28 -2q8 -12 2 -22t-18 -6q-12 0 -14 -6t0 -20t2 -18v-44q0 -32 4 -52q12 32 30 90t26 78q48 20 48 -16q32 -96 48 -148q0 36 4 132q-4 4 -14 4t-16 4t-2 12q-4 12 2 14t18 0t16 -2q8 0 42 2t38 -2q4 -12 -2 -22t-18 -6q-8 0 -10 -8t-2 -16
v-16q0 -12 -2 -52t-2 -60q16 0 26 -8t-2 -24h-88q-8 8 -14 28l-6 20q-8 16 -18 46t-14 46q-12 -24 -24 -68t-20 -60q0 -12 -16 -12z" />
</svg>
