<?xml version="1.0" standalone="no"?>
<!DOCTYPE svg PUBLIC "-//W3C//DTD SVG 1.1//EN" "http://www.w3.org/Graphics/SVG/1.1/DTD/svg11.dtd" >
<svg xmlns="http://www.w3.org/2000/svg" xmlns:xlink="http://www.w3.org/1999/xlink" version="1.1" width="2048" height="2048" viewBox="-10 0 2058 2048">
   <path fill="currentColor"
d="M1022 0q20 216 80 248q68 -20 132 -224q-24 212 28 255q67 -8 171 -191q-68 203 -24 255q68 8 208 -151q-108 183 -76 247q64 20 236 -108q-152 168 -124 236q-36 -44 -56 -72q-24 -24 -60 -56t-60 -48q-28 -20 -72 -44q-40 -24 -70 -38t-73 -26q-44 -16 -80 -20
q-28 -7 -72 -11q-56 -8 -90 -8t-78 4q-52 8 -82 13.5t-78 21.5q-43 16 -75 28q-28 12 -72 36q-40 24 -68 44q-24 16 -64 52q-36 32 -56 54t-56 70q24 -68 -124 -236q172 128 236 108q28 -64 -76 -247q140 159 208 151q40 -52 -24 -255q104 183 171 191q48 -43 28 -255
q64 204 128 224q60 -36 84 -248zM1018 315l-8 8q220 -4 403 120q248 164 302 457.5t-106 524.5q-24 36 -64 76l-934 -623q20 -44 48 -88q111 -163 291 -193t312 70q123 80 169 215.5t-10 291.5q84 56 92 64q36 -84 42 -194t-50 -243.5t-184 -217.5q-195 -128 -410.5 -86
t-339.5 226q-124 175 -82 400.5t234 353.5q135 84 287 82t299 -78l88 152q-403 223 -766 -16q-172 -116 -252 -293.5t-64 -361.5t120 -335q96 -144 251.5 -228t331.5 -84zM1657 1481q-24 68 124 236q-172 -132 -236 -108q-28 60 76 247q-140 -163 -208 -155q-44 56 24 259
q-104 -183 -171 -191q-52 43 -28 255q-64 -208 -132 -224q-60 32 -80 248q-24 -216 -84 -248q-64 20 -128 224q24 -212 -28 -255q-67 8 -171 191q64 -203 24 -259q-68 -8 -208 155q104 -187 76 -247q-64 -20 -236 108q148 -172 124 -236q32 44 56 68q20 24 60 56
q36 32 60 52q28 20 68 40q44 28 74 40t73 28q44 12 76 19.5t80 11.5t82 4t86 -4q44 -4 76 -11.5t80 -19.5q43 -16 73 -28t70 -40q44 -24 70 -42t62 -50t60 -56t56 -68z" />
</svg>
