<?xml version="1.0" standalone="no"?>
<!DOCTYPE svg PUBLIC "-//W3C//DTD SVG 1.1//EN" "http://www.w3.org/Graphics/SVG/1.1/DTD/svg11.dtd" >
<svg xmlns="http://www.w3.org/2000/svg" xmlns:xlink="http://www.w3.org/1999/xlink" version="1.1" width="2048" height="2048" viewBox="-10 0 2068 2048">
   <path fill="currentColor"
d="M1689 377v4q203 0 355 28q-303 4 -578.5 60t-447.5 132t-301.5 149.5t-185.5 125.5l-56 52q196 -112 431.5 -179.5t429 -83.5t359 -16t261.5 16l92 12q-323 12 -600.5 69.5t-465.5 139.5t-337.5 188t-231.5 199.5t-134 189.5q160 44 302 46t243.5 -28t185.5 -74
t138 -99.5t86 -99.5t44 -80q3 104 -64.5 221.5t-199.5 205.5t-325.5 90t-440.5 -122q-40 96 -32 148q-72 -88 -80 -208q-68 -44 -136 -96q64 28 136 52l16 -108q-56 -187 18 -347t233.5 -265.5t381 -179.5t453 -108t451.5 -34zM555 1268l-40 67l-100 4l48 -67z" />
</svg>
