<?xml version="1.0" standalone="no"?>
<!DOCTYPE svg PUBLIC "-//W3C//DTD SVG 1.1//EN" "http://www.w3.org/Graphics/SVG/1.1/DTD/svg11.dtd" >
<svg xmlns="http://www.w3.org/2000/svg" xmlns:xlink="http://www.w3.org/1999/xlink" version="1.1" width="2048" height="2048" viewBox="-10 0 2068 2048">
   <path fill="currentColor"
d="M1051 0q48 4 80 36t32 80t-34 82t-79.5 34t-79.5 -34t-34 -82t34 -82t81 -34zM1311 272q48 0 84 32q232 236 528 532q92 92 116 223.5t-16 247.5q-68 232 -276 440q-212 208 -440 276q-116 40 -247.5 16t-223.5 -112l-376 -376q-72 -76 -112 -112q-8 -8 -20 -24
q-48 -28 -56 -84t32 -96q48 -44 112 -28q12 4 28 12l16 8l16 16q16 12 32 32l116 112q320 324 372 376q87 88 247 40q172 -48 340 -216t220 -344q44 -160 -44 -247l-528 -528q-32 -32 -34 -80t30 -84q36 -32 84 -32zM580 472q48 4 80 36q36 32 36 84q0 48 -34 82t-78 34
q-52 0 -88 -40q-32 -32 -32 -80t34 -82t82 -34zM848 740q48 0 80 36l591 591q48 48 32 112t-80 82t-112 -30l-591 -591q-36 -36 -36 -82t34 -82t82 -36zM116 932q48 0 84 36t36 83.5t-36 81.5t-84 34t-82 -34t-34 -81.5t34 -83.5t82 -36z" />
</svg>
