<?xml version="1.0" standalone="no"?>
<!DOCTYPE svg PUBLIC "-//W3C//DTD SVG 1.1//EN" "http://www.w3.org/Graphics/SVG/1.1/DTD/svg11.dtd" >
<svg xmlns="http://www.w3.org/2000/svg" xmlns:xlink="http://www.w3.org/1999/xlink" version="1.1" width="2048" height="2048" viewBox="-10 0 2068 2048">
   <path fill="currentColor"
d="M1176 68q116 -4 112 52q0 12 -8 22t-26 20t-30 16t-32 14t-24 8q-28 12 -104 44t-116 52q-12 8 -52 30t-70 36t-68 26t-66 4q-12 -4 -24 -12q-40 -28 -8 -80q32 -60 132 -112q88 -44 184 -76q132 -36 188 -44h12zM1732 120v4q68 0 120 12q48 12 76 48t8 68q-8 16 -32 38
t-64 48t-44 30q-4 0 -6 2l-2 2q32 -4 56 0q60 0 76 32t-12 68q-20 20 -60 36q-172 72 -356 84q-64 4 -100 -8q-56 -20 -72 -68v-4q-16 4 -28 4q-44 0 -92 -8q-8 68 -42 126t-96 110t-110 82t-128 74q-4 0 -18 8t-18 12q196 20 384 -52q-40 -8 -48 -32q-8 -28 40 -56
q60 -32 124 -52h4q172 -100 388 -104q52 0 56 28q4 24 -32 44q-76 52 -160 76q0 8 -4 16q-12 24 -52 40q-68 28 -136 36q-304 196 -656 124l-16 -8q-252 152 -316 316q148 -48 292 -52q28 0 104 8t120 4q44 -8 130 -32t126 -32q56 -12 116 -12q148 4 340 80q88 36 256 98
t188 70q4 0 8 2l4 2v156l-1024 392l-1024 -392v-156q8 -4 80 -32q20 -8 58 -20t68 -22t58 -22q56 -248 392 -440q24 -12 102 -56t130 -74t96 -62q136 -104 132 -224q-136 -64 -44 -168q24 -28 76 -56q0 -4 36 -20q184 -88 344 -100q184 -16 204 -16zM920 432v-4q24 4 44 12
q32 20 24 64q-8 52 -64 104t-108 72q-56 20 -108 -14t-24 -86q24 -48 102 -100t134 -48zM584 508q32 0 40 40q8 20 -16 52q-64 76 -148 76q-52 0 -58 -20t30 -48q104 -100 152 -100zM1732 816q76 -4 96 44q24 60 -52 100t-164 52t-132 4q-60 -8 -68 -44q-4 -32 44 -60
q40 -28 126 -62t150 -34z" />
</svg>
