<?xml version="1.0" standalone="no"?>
<!DOCTYPE svg PUBLIC "-//W3C//DTD SVG 1.1//EN" "http://www.w3.org/Graphics/SVG/1.1/DTD/svg11.dtd" >
<svg xmlns="http://www.w3.org/2000/svg" xmlns:xlink="http://www.w3.org/1999/xlink" version="1.1" width="2048" height="2048" viewBox="-11 0 2069 2048">
   <path fill="currentColor"
d="M1509 170l4 -4q120 4 219.5 81.5t130.5 200.5l176 669v8l3 28q24 143 -55.5 266t-218.5 159l-1122 291q-147 40 -282.5 -38t-175.5 -229l-175 -672q-40 -147 40 -282.5t231 -175.5l1118 -290q40 -12 75 -12q16 -4 32 0zM1509 225q-12 -4 -28 0q-31 0 -63 8l-1122 295
q-128 32 -193.5 145t-33.5 241l175 672q36 128 149.5 193.5t240.5 33.5l1122 -294q127 -32 193 -145.5t34 -240.5l-12 -36l-163 -633q-28 -103 -111.5 -169t-187.5 -70zM1477 313h-3q218 0 270 219l151 569q32 139 -27.5 234.5t-195.5 127.5l-998 262q-136 40 -239 -17.5
t-135 -192.5l-147 -569q-32 -144 19.5 -231.5t202.5 -130.5l999 -259q52 -12 103 -12zM1585 615q-4 0 -12 4l-290 76q-36 8 -28 48l55 207q8 35 48 27l291 -75q39 -12 27 -48v-4l-55 -203q-4 -28 -36 -32zM714 671q-8 4 -12 4l-355 92q-55 16 -39 67l63 255q16 52 68 40
l354 -92q56 -16 40 -67l-64 -255q-12 -44 -55 -44zM1211 798l-350 40l16 56l350 -40zM1290 1013l-135 203q32 0 56 20l135 -199q-32 -4 -56 -24zM809 1093l-64 16l175 167q8 -4 20 -8l44 -8zM1155 1272h-4l-199 56q-16 4 -12 20l36 143q8 16 24 12l199 -52q16 -4 12 -24
l-36 -139q-4 -16 -20 -16z" />
</svg>
