<?xml version="1.0" standalone="no"?>
<!DOCTYPE svg PUBLIC "-//W3C//DTD SVG 1.1//EN" "http://www.w3.org/Graphics/SVG/1.1/DTD/svg11.dtd" >
<svg xmlns="http://www.w3.org/2000/svg" xmlns:xlink="http://www.w3.org/1999/xlink" version="1.1" width="2048" height="2048" viewBox="-10 0 2058 2048">
   <path fill="currentColor"
d="M1683 0q215 0 166 191q-45 167 -227 321q-118 98 -208 98q-113 0 -130 -151q-20 -183 110 -333q114 -126 289 -126zM1024 73l-4 4q98 0 110 116t-43 229.5t-116 109.5t-101.5 -111.5t-10 -219.5t140.5 -124q12 -4 24 -4zM606 240q69 0 97.5 93.5t8 193t-65.5 107.5
q-57 12 -113.5 -69t-56.5 -181t89 -136q24 -8 41 -8zM301 496q53 4 91.5 85t34.5 156.5t-37 103.5q-28 8 -64.5 -10t-69 -59t-53 -85.5t-10.5 -93t55 -77.5q29 -20 53 -20zM1183 695h-4q158 4 261.5 55t120.5 140q16 97 -47 186.5t-160.5 152.5t-205.5 132t-179 124t-79 126
t90 140q93 69 170 26.5t61 -152.5q-8 -69 130 -105q175 -49 244 20q28 29 20 73q-36 179 -188.5 307t-315.5 128q-207 0 -402 -138t-296.5 -341.5t-60.5 -377.5q32 -159 174.5 -277t317 -170.5t349.5 -48.5z" />
</svg>
