<?xml version="1.0" standalone="no"?>
<!DOCTYPE svg PUBLIC "-//W3C//DTD SVG 1.1//EN" "http://www.w3.org/Graphics/SVG/1.1/DTD/svg11.dtd" >
<svg xmlns="http://www.w3.org/2000/svg" xmlns:xlink="http://www.w3.org/1999/xlink" version="1.1" width="2048" height="2048" viewBox="-10 0 2068 2048">
   <path fill="currentColor"
d="M1158 54l-4 4h25q80 8 150 56.5t110 120.5l609 84h-693q-68 -88 -176 -104q-77 -8 -149 22t-116 94t-48 140t32 144q-68 -76 -84 -180t32 -196t140 -145q80 -40 172 -40zM53 175l933 669l-769 -429q-36 108 -8 216q28 97 92 165q48 52 112 84l521 144l-645 -104
q12 96 68 172q104 144 285 144q-173 44 -329 -48q-100 -64 -156 -168q-52 -108 -40 -224l136 36q-76 -40 -128 -104q-100 -113 -120 -265t48 -288zM1307 511v28q0 128 112 349q116 220 116 344q4 157 -96 285q-88 120 -240 184q-205 84 -421 36l-108 257v-361
q204 48 392 -32q125 -48 201 -136q88 -96 108 -213q16 -112 -48 -322.5t-48 -318.5q8 -52 32 -100z" />
</svg>
