<?xml version="1.0" standalone="no"?>
<!DOCTYPE svg PUBLIC "-//W3C//DTD SVG 1.1//EN" "http://www.w3.org/Graphics/SVG/1.1/DTD/svg11.dtd" >
<svg xmlns="http://www.w3.org/2000/svg" xmlns:xlink="http://www.w3.org/1999/xlink" version="1.1" width="2048" height="2048" viewBox="-10 0 2068 2048">
   <path fill="currentColor"
d="M1050 20v4q255 0 479 117.5t371.5 351.5t147.5 529q0 416 -291 711t-707 295q-234 0 -438 -103t-345 -281l125 -81q121 146 292.5 228.5t369.5 82.5q352 0 602.5 -248.5t250.5 -601.5t-250.5 -603.5t-602.5 -250.5q-198 0 -369.5 82.5t-292.5 228.5l-125 -77
q145 -178 349 -281t434 -103zM0 392l1058 622l-1058 622v-1244zM1050 412q255 0 434.5 177.5t179.5 432t-179.5 434.5t-434.5 180q-266 0 -452 -202l125 -81q137 138 331 138q190 0 325.5 -135.5t135.5 -329.5t-135.5 -329.5t-325.5 -135.5t-323 134l-133 -81
q182 -202 452 -202z" />
</svg>
