<?xml version="1.0" standalone="no"?>
<!DOCTYPE svg PUBLIC "-//W3C//DTD SVG 1.1//EN" "http://www.w3.org/Graphics/SVG/1.1/DTD/svg11.dtd" >
<svg xmlns="http://www.w3.org/2000/svg" xmlns:xlink="http://www.w3.org/1999/xlink" version="1.1" width="2048" height="2048" viewBox="-10 0 2065 2048">
   <path fill="currentColor"
d="M2045 1022q0 232 -93.5 433.5t-251 333t-351 203.5t-415 52t-421.5 -136q-235 -136 -372.5 -373t-137.5 -513q0 -418 295 -718v56l44 291v92l8 116q-28 0 -28 12v8l28 -8h8v203q20 204 84 359q8 112 24 112q27 108 43 108q80 111 204 159q44 0 76 -107q36 -240 59 -292
q20 20 72 28v-8q0 -20 -68 -40q20 -95 52 -159q4 -112 116 -311l28 4q4 91 24 151q68 140 68 260q0 43 103 311q24 175 68 203h12q52 0 128 -135q68 -156 112 -172q0 -16 -28 -16v-8q24 0 24 -12v-4l-8 -8l67 -28q0 -36 -24 -36v-8h48v-12q-36 0 -48 -43h12v-24l-8 -8
q56 0 56 -24v-4h-12v-8q20 0 32 -40q-56 -20 -56 -36l48 -136q0 -107 36 -231q44 -120 64 -259q36 -136 80 -188q199 271 199 610zM1535 137q75 44 139 100q-8 71 -12 147q-60 136 -127 387h-124l-60 4v16h32l24 -8l104 16v8q-44 152 -56 152q-56 283 -92 283h-20
q-40 -40 -88 -152q0 -28 -20 -48l-91 -203q-28 -128 -72 -191q-16 -44 -48 -44h-12q-56 0 -104 75l4 24q-20 76 -71 180q-76 227 -104 227h-12l-24 -20q-64 -167 -84 -490h-12v-12h4q12 -40 44 -64v-8l-8 -8l-4 8l-8 -8l-28 8h-12q-12 0 -36 -88v-16h40v-16h-56
q-16 -88 -103 -211q40 -24 79 -48l8 4l36 -4h68q28 0 60 20q16 -20 56 -20v-16h-204q204 -108 433.5 -120t464.5 88h4q48 24 92 48z" />
</svg>
