<?xml version="1.0" standalone="no"?>
<!DOCTYPE svg PUBLIC "-//W3C//DTD SVG 1.1//EN" "http://www.w3.org/Graphics/SVG/1.1/DTD/svg11.dtd" >
<svg xmlns="http://www.w3.org/2000/svg" xmlns:xlink="http://www.w3.org/1999/xlink" version="1.1" width="2048" height="2048" viewBox="-10 0 2068 2048">
   <path fill="currentColor"
d="M4 492l-4 4q4 0 48 21t110.5 50t116.5 42q230 58 447 279q4 5 24.5 -8t54 -25.5t62.5 -12.5q30 5 103 17.5t135.5 23t121 12.5t70.5 -19q8 -13 20.5 -46t29.5 -46q4 0 -6.5 -37.5t-8 -83.5t35.5 -62q25 -13 52 18.5t46 79.5t23 48q4 4 14.5 6t16.5 -2t6 -13l-8 -25
t-12.5 -46t-6.5 -50t6.5 -48t29.5 -27q29 -12 52 2.5t29 45.5t10.5 66.5t2.5 58.5t2 27l100 17q100 17 200 60.5t113 123.5q4 41 -69 93.5t-171 97.5l-98 46q-46 30 -17 80q4 4 31.5 35t48 60.5t16.5 45.5q-8 9 -100 -20.5t-96 -20.5q-13 12 45.5 74.5t29.5 92.5
q-8 4 -37.5 -4.5t-65 -23t-73 -31.5t-62.5 -27l-25 -10q-12 4 -95.5 14.5t-233.5 6t-263 -37.5q-4 -4 -87.5 71t-96.5 71q-8 -9 0.5 -38t21 -68.5t8.5 -48.5q-4 -8 -33.5 4.5t-52.5 21t-31 -4.5q-4 -25 41.5 -71t41.5 -58q-29 -213 71 -355q9 -16 -56 -72.5t-169 -123
t-192 -104.5q-50 -21 -98 -42t-79 -39.5t-54 -31t-31.5 -21t-4.5 -12.5zM1952 646q17 13 -8 126l-13 16q-4 -8 0 -39.5t10.5 -67t10.5 -35.5zM2048 667l-6 15q-7 14 -17 35t-20.5 42t-19 33.5t-12.5 8.5q-13 -9 24.5 -71.5t50.5 -62.5zM1672.5 817q-33.5 0 -33.5 38t33.5 38
t33.5 -38t-33.5 -38zM1598 838q-30 21 4 71q37 63 100 9q-50 0 -71 -17t-33 -63zM1777 997q-17 4 -50.5 18.5t-58.5 31.5t-25 21q5 12 113 -38q29 -21 29 -29q0 -4 -8 -4zM1798 1038q-13 0 -38 23t-43.5 48t-10.5 30q-4 0 29.5 -19t56 -42t10.5 -40h-4z" />
</svg>
