<?xml version="1.0" standalone="no"?>
<!DOCTYPE svg PUBLIC "-//W3C//DTD SVG 1.1//EN" "http://www.w3.org/Graphics/SVG/1.1/DTD/svg11.dtd" >
<svg xmlns="http://www.w3.org/2000/svg" xmlns:xlink="http://www.w3.org/1999/xlink" version="1.1" width="2048" height="2048" viewBox="-10 0 2068 2048">
   <path fill="currentColor"
d="M1704 166h140l-632 824l440 612q144 -84 228 -204t84 -260q0 -168 -120 -310t-320 -218l16 -28q232 92 370 248t138 340q0 148 -90 280t-254 228l148 208h-416q-52 -76 -56 -80q-172 44 -352 44h-4q-308 0 -564 -112l-108 148h-144l152 -200q-168 -96 -264 -232t-96 -288
q0 -176 128 -330t344 -246l56 88q-296 180 -296 456q0 236 232 412l372 -484l-644 -900h412l520 708l-560 740q232 132 536 132q112 0 220 -20l-392 -548zM1024 494q204 0 368 40l-20 28q-132 -28 -272 -28q-68 0 -96 40q-16 20 0 56t54 94t54 90q-24 -32 -106 -140
t-134 -172q92 -8 152 -8z" />
</svg>
