<?xml version="1.0" standalone="no"?>
<!DOCTYPE svg PUBLIC "-//W3C//DTD SVG 1.1//EN" "http://www.w3.org/Graphics/SVG/1.1/DTD/svg11.dtd" >
<svg xmlns="http://www.w3.org/2000/svg" xmlns:xlink="http://www.w3.org/1999/xlink" version="1.1" width="2048" height="2048" viewBox="-10 0 2068 2048">
   <path fill="currentColor"
d="M56 12q28 0 44 24l156 200q24 -8 44 -8h1448q24 0 44 8l156 -200q16 -24 44 -24q20 0 36 12q20 16 20 44q0 20 -12 36l-160 212q8 24 8 48v316q0 56 -40 96t-96 40h-1448q-56 0 -96 -40t-40 -96v-316q0 -24 12 -48q-12 -16 -28 -38t-52 -68t-60 -76l-24 -30
q-12 -16 -12 -36q0 -28 24 -44q12 -12 32 -12zM590 396q-62 0 -106 46t-44 108t44 106t106 44t108 -44t46 -106t-46 -108t-108 -46zM1474 396q-62 0 -108 46t-46 108t46 106t108 44t108 -44t46 -106t-46 -108t-108 -46zM304 864h1448q56 0 96 38t40 94v908q0 56 -40 94
t-96 38h-1448q-56 0 -96 -38t-40 -94v-908q0 -56 40 -94t96 -38zM1028 976q-196 0 -336 138t-140 334t140 336t334 140t334 -140t140 -336t-138 -334t-334 -138zM1026 1060q162 0 276 114t114 276t-114 276t-276 114t-276 -114t-114 -276t114 -276t276 -114zM1028 1168
q-100 0 -176 60t-100 148h148q40 -72 128 -72q60 0 102 42t42 104t-42 104t-102 42q-96 0 -136 -84h-140q20 96 98 158t178 62q116 0 198 -82t82 -200t-82 -200t-198 -82z" />
</svg>
