<?xml version="1.0" standalone="no"?>
<!DOCTYPE svg PUBLIC "-//W3C//DTD SVG 1.1//EN" "http://www.w3.org/Graphics/SVG/1.1/DTD/svg11.dtd" >
<svg xmlns="http://www.w3.org/2000/svg" xmlns:xlink="http://www.w3.org/1999/xlink" version="1.1" width="2048" height="2048" viewBox="-10 0 2062 2048">
   <path fill="currentColor"
d="M954 0l92 188q88 4 176 24v-4l136 -156l80 28l-4 212v4q72 40 140 100l8 -4l192 -80l56 68l-100 180l-8 4q48 76 80 156l8 -4l208 24l24 84l-176 112l-12 4q8 40 8 84l-8 88l12 4l172 112l-20 84l-208 20h-8q-32 80 -80 156l4 4l100 184l-56 64l-192 -80l-4 -4
q-68 56 -144 100v4l4 208l-80 32l-136 -160v-4q-88 24 -176 24l-92 188l-88 -12l-44 -204q-88 -20 -168 -60l-168 120l-72 -52l56 -196q-68 -60 -124 -136l-200 28l-40 -76l136 -148q-32 -88 -44 -180l-188 -68v-88l188 -68q12 -92 44 -176l-132 -148l40 -80l200 28
q56 -72 120 -132l-52 -200l72 -48l168 120q80 -40 168 -60l44 -200zM1002 468h-4q-56 4 -108 16q-224 56 -342 252t-64 418t250 342t418 64t342 -252t64 -416q-48 -192 -204 -312t-352 -112zM840 880q58 0 100 42t42 100t-42 100t-100 42t-100 -42t-42 -100t42 -100t100 -42
zM1204 880q58 0 100 42t42 100t-42 100t-100 42t-100 -42t-42 -100t42 -100t100 -42z" />
</svg>
