<?xml version="1.0" standalone="no"?>
<!DOCTYPE svg PUBLIC "-//W3C//DTD SVG 1.1//EN" "http://www.w3.org/Graphics/SVG/1.1/DTD/svg11.dtd" >
<svg xmlns="http://www.w3.org/2000/svg" xmlns:xlink="http://www.w3.org/1999/xlink" version="1.1" width="2048" height="2048" viewBox="-10 0 2068 2048">
   <path fill="currentColor"
d="M1480 44q300 0 496 164q-108 4 -212 40q148 56 248 164q-72 -12 -144 -12q180 260 180 580q0 424 -300 724t-724 300q-420 0 -722 -302t-302 -722q0 -136 36 -264q8 -32 24 -40q20 -12 28 20q24 84 60 164q-4 -156 116 -316q88 -116 108 -280q4 -24 24 -16
q104 32 164 184t52 320q-92 104 -92 240q0 196 124 344t304 214t368 50q-212 -28 -316 -144q-28 -32 -20 -48q4 -8 44 -8q208 0 356 -120t148 -290t-148 -292t-356 -122q-184 0 -332 104q-24 -76 10 -166t146 -134q48 -160 226 -248t406 -88zM1092 284q-12 0 -28 4
q-24 8 -38 20t-18 24l-4 8q4 4 10 12t30 20t48 0q24 -8 38 -26t14 -30v-16q-16 -16 -52 -16zM1424 828q-216 252 -300 332q-112 116 -220 4l-296 -336h20l348 260q44 32 88 0l340 -260h20z" />
</svg>
