<?xml version="1.0" standalone="no"?>
<!DOCTYPE svg PUBLIC "-//W3C//DTD SVG 1.1//EN" "http://www.w3.org/Graphics/SVG/1.1/DTD/svg11.dtd" >
<svg xmlns="http://www.w3.org/2000/svg" xmlns:xlink="http://www.w3.org/1999/xlink" version="1.1" width="2048" height="2048" viewBox="-10 0 2058 2048">
   <path fill="currentColor"
d="M1024 192q-223 0 -367.5 139.5t-144.5 340.5q0 87 31.5 153t94.5 142l27 32q61 72 86 109q67 95 80 191v10q0 39 -28 67.5t-68 28.5q-35 0 -61.5 -23t-32.5 -56q-7 -51 -47 -109q-33 -45 -70 -87q-28 -34 -34 -41q-36 -44 -61.5 -80.5t-52.5 -89.5t-41.5 -115.5
t-14.5 -131.5q0 -139 54 -263.5t147 -214t224 -142t279 -52.5t279 52.5t224 142t147 214t54 263.5q0 69 -14.5 131.5t-41.5 115.5t-52.5 89.5t-61.5 80.5q-13 15 -34 41q-49 58 -70 87q-40 58 -47 109q-6 33 -32.5 55t-61.5 22q-40 0 -68 -28t-28 -68v-9q13 -95 80 -190
q25 -37 86 -109q17 -20 27 -32q63 -76 94.5 -142t31.5 -153q0 -201 -144.5 -340.5t-367.5 -139.5zM736 1536h576q40 0 68 28t28 68t-28 68t-68 28h-576q-40 0 -68 -28t-28 -68t28 -68t68 -28zM768 1952q0 -40 28 -68t68 -28h320q40 0 68 28t28 68t-28 68t-68 28h-320
q-40 0 -68 -28t-28 -68z" />
</svg>
