<?xml version="1.0" standalone="no"?>
<!DOCTYPE svg PUBLIC "-//W3C//DTD SVG 1.1//EN" "http://www.w3.org/Graphics/SVG/1.1/DTD/svg11.dtd" >
<svg xmlns="http://www.w3.org/2000/svg" xmlns:xlink="http://www.w3.org/1999/xlink" version="1.1" width="2048" height="2048" viewBox="-10 0 2058 2048">
   <path fill="currentColor"
d="M244 325q0 -134 95.5 -229.5t229.5 -95.5h1138q40 0 68.5 28.5t28.5 69.5v1625q0 41 -28.5 69t-68.5 28h-325q-41 0 -69.5 -28t-28.5 -69t28.5 -69.5t69.5 -28.5h227v-260h-1040q-54 0 -92 38.5t-38 91.5t37 92q28 28 28 68t-28.5 68.5t-69.5 28.5q-40 0 -70 -29
q-92 -95 -92 -228v-292v-585v-293zM1609 195h-1040q-54 0 -92 38t-38 92v873q62 -28 129 -28h1h260h520h260v-975zM634 1593q0 -13 9.5 -23t22.5 -10h456q13 0 22.5 10t9.5 23v422q0 14 -9.5 23.5t-22.5 9.5q-12 0 -20 -6l-19 -15t-47 -35.5t-56 -41.5t-47 -35l-20 -15
q-8 -6 -19 -6t-19 6l-48 35q-47 36 -94 71l-47 36q-8 6 -20 6q-13 0 -22.5 -9.5t-9.5 -23.5v-422z" />
</svg>
