<?xml version="1.0" standalone="no"?>
<!DOCTYPE svg PUBLIC "-//W3C//DTD SVG 1.1//EN" "http://www.w3.org/Graphics/SVG/1.1/DTD/svg11.dtd" >
<svg xmlns="http://www.w3.org/2000/svg" xmlns:xlink="http://www.w3.org/1999/xlink" version="1.1" width="2048" height="2048" viewBox="-10 0 2058 2048">
   <path fill="currentColor"
d="M585 640v128q0 46 32 78t78 32h658q46 0 78 -32t32 -78v-128q-97 -34 -158.5 -119.5t-61.5 -191.5q0 -136 97 -232.5t233 -96.5t232.5 96.5t96.5 232.5q0 106 -61.5 191.5t-158.5 119.5v128q0 136 -96.5 232.5t-232.5 96.5h-219v311q97 34 158 119.5t61 191.5
q0 136 -96.5 232.5t-232.5 96.5t-232.5 -96.5t-96.5 -232.5q0 -106 61 -191.5t158 -119.5v-311h-219q-136 0 -232.5 -96.5t-96.5 -232.5v-128q-97 -34 -158.5 -119.5t-61.5 -191.5q0 -136 96.5 -232.5t232.5 -96.5t233 96.5t97 232.5q0 106 -61.5 191.5t-158.5 119.5z
M585 329q0 -46 -32 -78t-77.5 -32t-77.5 32t-32 78t32 78t77.5 32t77.5 -32t32 -78zM1572.5 439q45.5 0 77.5 -32t32 -78t-32 -78t-77.5 -32t-77.5 32t-32 78t32 78t77.5 32zM1134 1719q0 -46 -32 -78t-78 -32t-78 32t-32 78t32 78t78 32t78 -32t32 -78z" />
</svg>
