<?xml version="1.0" standalone="no"?>
<!DOCTYPE svg PUBLIC "-//W3C//DTD SVG 1.1//EN" "http://www.w3.org/Graphics/SVG/1.1/DTD/svg11.dtd" >
<svg xmlns="http://www.w3.org/2000/svg" xmlns:xlink="http://www.w3.org/1999/xlink" version="1.1" width="2048" height="2048" viewBox="-10 0 2058 2048">
   <path fill="currentColor"
d="M1270 679q12 11 23 25h499q40 0 68 28t28 68t-28 68t-68 28h-422l74 661l46 383q1 6 1 12q0 40 -28.5 68t-67.5 28q-37 0 -64 -24.5t-32 -59.5l-9 -75l-18 -150l-9 -75h-478l-36 300q-5 35 -32 59.5t-64 24.5q-39 0 -67.5 -28t-28.5 -68q0 -6 1 -12l46 -383l74 -661h-422
q-40 0 -68 -28t-28 -68t28 -68t68 -28h499q11 -13 23 -25q-65 -54 -101.5 -131t-36.5 -164q0 -104 51.5 -192.5t139.5 -140t192.5 -51.5t193 51.5t140 140t51.5 192.5q0 87 -36.5 164t-101.5 131zM1178 905h-1q-6 -58 -50 -97.5t-103 -39.5t-103 39.5t-50 97.5l-7 59
q-7 58 -16 141.5t-18.5 166.5t-15.5 142l-7 58h434zM1216 384.5q0 -79.5 -56.5 -136t-136 -56.5t-135.5 56.5t-56 136t56 135.5t135.5 56t136 -56t56.5 -135.5z" />
</svg>
