<?xml version="1.0" standalone="no"?>
<!DOCTYPE svg PUBLIC "-//W3C//DTD SVG 1.1//EN" "http://www.w3.org/Graphics/SVG/1.1/DTD/svg11.dtd" >
<svg xmlns="http://www.w3.org/2000/svg" xmlns:xlink="http://www.w3.org/1999/xlink" version="1.1" width="2048" height="2048" viewBox="-10 0 2058 2048">
   <path fill="currentColor"
d="M64 377q0 -133 94 -226.5t226 -93.5t226 93.5t94 226.5q0 103 -59.5 186t-153.5 116v747q94 33 153.5 116t59.5 186q0 132 -94 226t-226 94t-226 -94t-94 -226q0 -103 59.5 -186t153.5 -116v-747q-94 -33 -153.5 -116t-59.5 -186zM872 351l340 -340q11 -11 25.5 -11
t25 10.5t10.5 25.5v58v117v59h142q147 0 251.5 104.5t104.5 251.5v800q94 33 153.5 116t59.5 186q0 132 -94 226t-226 94t-226 -94t-94 -226q0 -103 59.5 -186t153.5 -116v-800q0 -59 -41.5 -101t-100.5 -42h-142v235q0 14 -10.5 24.5t-25 10.5t-25.5 -11l-85 -85l-171 -170
l-84 -85q-11 -11 -11 -25.5t11 -25.5zM383.5 270q-44.5 0 -75.5 31t-31 75.5t31 75.5t75.5 31t76 -31t31.5 -75.5t-31.5 -75.5t-76 -31zM383.5 1621q-44.5 0 -75.5 31.5t-31 75.5t31 75.5t75.5 31.5t76 -31.5t31.5 -75.5t-31.5 -75.5t-76 -31.5zM1557 1728q0 44 31.5 75.5
t76 31.5t75.5 -31.5t31 -75.5t-31 -75.5t-75.5 -31.5t-76 31.5t-31.5 75.5z" />
</svg>
