<?xml version="1.0" standalone="no"?>
<!DOCTYPE svg PUBLIC "-//W3C//DTD SVG 1.1//EN" "http://www.w3.org/Graphics/SVG/1.1/DTD/svg11.dtd" >
<svg xmlns="http://www.w3.org/2000/svg" xmlns:xlink="http://www.w3.org/1999/xlink" version="1.1" width="2048" height="2048" viewBox="-10 0 2068 2048">
   <path fill="currentColor"
d="M1024 25q139 0 272 37t245 103t206.5 160.5t160.5 206.5t103 245t37 272q0 166 -52 322.5t-144.5 282t-221 221t-280.5 146.5q-35 7 -52.5 -9t-17.5 -40q0 -5 0.5 -102.5t0.5 -179.5q0 -130 -69 -189q53 -6 98 -15.5t94 -27.5t88 -43t75 -64t60 -88t38 -117.5t14 -150.5
q0 -160 -105 -275q6 -15 11 -35t9 -56t-3 -83.5t-27 -96.5q-3 -1 -10 -2.5t-32.5 1t-55 11.5t-79.5 33t-104 62q-123 -35 -256.5 -35t-255.5 35q-55 -37 -104.5 -61.5t-80.5 -33t-54 -11.5t-33 -1l-10 2q-20 49 -27 96.5t-3 83.5t9 56t11 35q-105 115 -105 275q0 82 14 150
t38 117.5t60 88t74.5 64t87.5 43.5t94 27.5t98 15.5q-53 46 -66 137q-21 10 -44.5 17t-58.5 9t-67 -6t-67 -34.5t-61 -70.5q-9 -15 -22 -30t-33 -33.5t-47 -30t-55 -11.5q-30 1 -41 9t-4.5 19t19 21.5t27.5 18.5q29 16 61 65t44 80q6 17 15 32.5t25.5 34.5t43 32.5t61.5 23
t86.5 9.5t112.5 -12q0 51 1 118.5t1 72.5q0 23 -18 39t-53 10q-151 -51 -280.5 -146t-222 -220.5t-145 -282t-52.5 -323.5q0 -139 37 -272t103 -245t160.5 -206.5t206.5 -160.5t245 -103t272 -37z" />
</svg>
