<?xml version="1.0" standalone="no"?>
<!DOCTYPE svg PUBLIC "-//W3C//DTD SVG 1.1//EN" "http://www.w3.org/Graphics/SVG/1.1/DTD/svg11.dtd" >
<svg xmlns="http://www.w3.org/2000/svg" xmlns:xlink="http://www.w3.org/1999/xlink" version="1.1" width="2048" height="2048" viewBox="-10 0 2068 2048">
   <path fill="currentColor"
d="M256 1957q-106 0 -181 -75t-75 -181v-366q0 -46 32 -78t77.5 -32t77.5 32t32 78v366q0 14 11 25t26 11h1536q15 0 26 -11t11 -25v-366q0 -46 32 -78t77.5 -32t77.5 32t32 78v366q0 106 -75 181t-181 75h-1536zM1577 599q32 32 32 77.5t-32 77.5t-77.5 32t-77.5 -32
l-72 -72l-144 -144l-72 -72v832q0 46 -32 78t-78 32t-78 -32t-32 -78v-832l-288 288q-32 32 -77.5 32t-77.5 -32t-32 -77.5t32 -77.5l475 -476q32 -32 78 -32t78 32l119 119q118 119 237 238z" />
</svg>
