<?xml version="1.0" standalone="no"?>
<!DOCTYPE svg PUBLIC "-//W3C//DTD SVG 1.1//EN" "http://www.w3.org/Graphics/SVG/1.1/DTD/svg11.dtd" >
<svg xmlns="http://www.w3.org/2000/svg" xmlns:xlink="http://www.w3.org/1999/xlink" version="1.1" width="2048" height="2048" viewBox="-10 0 2068 2048">
   <path fill="currentColor"
d="M1024 0q208 0 397.5 81t327 218.5t218.5 327t81 397.5t-81 397.5t-218.5 327t-327 218.5t-397.5 81t-397.5 -81t-327 -218.5t-218.5 -327t-81 -397.5t81 -397.5t218.5 -327t327 -218.5t397.5 -81zM1280 512q0 -106 -75 -181t-181 -75t-181 75t-75 181q0 72 36.5 132
t97.5 93q-22 13 -41 31h-381q-40 0 -68 28t-28 68t28 68t68 28h302l-77 726q-1 7 -1 14q0 40 28 68t68 28q38 0 65.5 -26t29.5 -64l8 -74t16 -149l8 -75h194l32 298q3 37 30.5 61.5t64.5 24.5q40 0 68 -28t28 -68q0 -5 -1 -10l-77 -726h302q40 0 68 -28t28 -68t-28 -68
t-68 -28h-381q-19 -17 -41 -31q61 -33 97.5 -93t36.5 -132z" />
</svg>
