<?xml version="1.0" standalone="no"?>
<!DOCTYPE svg PUBLIC "-//W3C//DTD SVG 1.1//EN" "http://www.w3.org/Graphics/SVG/1.1/DTD/svg11.dtd" >
<svg xmlns="http://www.w3.org/2000/svg" xmlns:xlink="http://www.w3.org/1999/xlink" version="1.1" width="2048" height="2048" viewBox="-10 0 2068 2048">
   <path fill="currentColor"
d="M822 172q25 -47 66.5 -78t88.5 -39t94 0t88.5 39t66.5 78l795 1488q27 51 27 108q0 95 -67 162t-162 67h-1590q-95 0 -162 -67t-67 -162q0 -57 27 -108q0 1 198.5 -371.5t397.5 -744.5zM1024 689q-41 0 -69.5 28.5t-28.5 69.5v327q0 41 28.5 69.5t69.5 28.5t69.5 -28.5
t28.5 -69.5v-327q0 -41 -28.5 -69.5t-69.5 -28.5zM1155 1473.5q0 -54.5 -38.5 -92.5t-92.5 -38t-92.5 38t-38.5 92.5t38.5 92.5t92.5 38t92.5 -38t38.5 -92.5z" />
</svg>
