<?xml version="1.0" standalone="no"?>
<!DOCTYPE svg PUBLIC "-//W3C//DTD SVG 1.1//EN" "http://www.w3.org/Graphics/SVG/1.1/DTD/svg11.dtd" >
<svg xmlns="http://www.w3.org/2000/svg" xmlns:xlink="http://www.w3.org/1999/xlink" version="1.1" width="2048" height="2048" viewBox="-10 0 2068 2048">
   <path fill="currentColor"
d="M0 276q0 -115 80.5 -195.5t195.5 -80.5h394q114 0 194.5 80.5t80.5 195.5v394q0 114 -80.5 194.5t-194.5 80.5h-394q-115 0 -195.5 -80.5t-80.5 -194.5v-394zM1103 276q0 -115 80.5 -195.5t194.5 -80.5h394q115 0 195.5 80.5t80.5 195.5v394q0 114 -80.5 194.5
t-195.5 80.5h-394q-114 0 -194.5 -80.5t-80.5 -194.5v-394zM0 1378q0 -114 80.5 -194.5t195.5 -80.5h394q114 0 194.5 80.5t80.5 194.5v394q0 115 -80.5 195.5t-194.5 80.5h-394q-115 0 -195.5 -80.5t-80.5 -195.5v-394zM1103 1378q0 -114 80.5 -194.5t194.5 -80.5h394
q115 0 195.5 80.5t80.5 194.5v394q0 115 -80.5 195.5t-195.5 80.5h-394q-114 0 -194.5 -80.5t-80.5 -195.5v-394zM276 236q-16 0 -28 12t-12 28v394q0 16 12 27.5t28 11.5h394q16 0 27.5 -11.5t11.5 -27.5v-394q0 -16 -11.5 -28t-27.5 -12h-394zM1378 236q-16 0 -27.5 12
t-11.5 28v394q0 16 11.5 27.5t27.5 11.5h394q16 0 28 -11.5t12 -27.5v-394q0 -16 -12 -28t-28 -12h-394zM276 1339q-16 0 -28 11.5t-12 27.5v394q0 16 12 28t28 12h394q16 0 27.5 -12t11.5 -28v-394q0 -16 -11.5 -27.5t-27.5 -11.5h-394zM1378 1339q-16 0 -27.5 11.5
t-11.5 27.5v394q0 16 11.5 28t27.5 12h394q16 0 28 -12t12 -28v-394q0 -16 -12 -27.5t-28 -11.5h-394z" />
</svg>
