<?xml version="1.0" standalone="no"?>
<!DOCTYPE svg PUBLIC "-//W3C//DTD SVG 1.1//EN" "http://www.w3.org/Graphics/SVG/1.1/DTD/svg11.dtd" >
<svg xmlns="http://www.w3.org/2000/svg" xmlns:xlink="http://www.w3.org/1999/xlink" version="1.1" width="2048" height="2048" viewBox="-10 0 2058 2048">
   <path fill="currentColor"
d="M448 224v1472q0 19 16 28q22 12 35 34.5t13 48.5q0 40 -28 68t-68 28q-26 0 -48 -13q-51 -30 -81.5 -81.5t-30.5 -112.5v-1472q0 -93 65.5 -158.5t158.5 -65.5h715q93 0 158 66l373 373q66 65 66 158v1099q0 93 -65.5 158.5t-158.5 65.5h-64q-40 0 -68 -28t-28 -68
t28 -68t68 -28h64q13 0 22.5 -9.5t9.5 -22.5v-1099q0 -13 -9 -23l-373 -373q-10 -9 -23 -9h-67h-133h-67q40 0 68 28t28 68t-28 68t-68 28h-64q-40 0 -68 -28t-28 -68t28 -68t68 -28h-384q-13 0 -22.5 9.5t-9.5 22.5zM928 1344h64q93 0 158.5 65.5t65.5 158.5v384
q0 40 -28 68t-68 28h-320q-40 0 -68 -28t-28 -68v-384q0 -93 65.5 -158.5t158.5 -65.5zM768 672q0 -40 28 -68t68 -28h64q40 0 68 28t28 68t-28 68t-68 28h-64q-40 0 -68 -28t-28 -68zM864 960h64q40 0 68 28t28 68t-28 68t-68 28h-64q-40 0 -68 -28t-28 -68t28 -68t68 -28z
M1024 864q0 -40 28 -68t68 -28h64q40 0 68 28t28 68t-28 68t-68 28h-64q-40 0 -68 -28t-28 -68zM1120 384h64q40 0 68 28t28 68t-28 68t-68 28h-64q-40 0 -68 -28t-28 -68t28 -68t68 -28zM1024 1248q0 -40 28 -68t68 -28h64q40 0 68 28t28 68t-28 68t-68 28h-64
q-40 0 -68 -28t-28 -68zM896 1568v288h128v-288q0 -13 -9.5 -22.5t-22.5 -9.5h-64q-13 0 -22.5 9.5t-9.5 22.5z" />
</svg>
