<?xml version="1.0" standalone="no"?>
<!DOCTYPE svg PUBLIC "-//W3C//DTD SVG 1.1//EN" "http://www.w3.org/Graphics/SVG/1.1/DTD/svg11.dtd" >
<svg xmlns="http://www.w3.org/2000/svg" xmlns:xlink="http://www.w3.org/1999/xlink" version="1.1" width="2048" height="2048" viewBox="-10 0 2068 2048">
   <path fill="currentColor"
d="M0 352q0 -93 65.5 -158.5t158.5 -65.5h416q53 0 100.5 23.5t78.5 66.5l115 153q10 13 26 13h864q93 0 158.5 65.5t65.5 158.5v1088q0 93 -65.5 158.5t-158.5 65.5h-1600q-93 0 -158.5 -65.5t-65.5 -158.5v-1344zM224 320q-13 0 -22.5 9.5t-9.5 22.5v1344q0 13 9.5 22.5
t22.5 9.5h1600q13 0 22.5 -9.5t9.5 -22.5v-1088q0 -13 -9.5 -22.5t-22.5 -9.5h-864q-53 0 -100.5 -23.5t-78.5 -66.5l-115 -153q-10 -13 -26 -13h-416z" />
</svg>
