<?xml version="1.0" standalone="no"?>
<!DOCTYPE svg PUBLIC "-//W3C//DTD SVG 1.1//EN" "http://www.w3.org/Graphics/SVG/1.1/DTD/svg11.dtd" >
<svg xmlns="http://www.w3.org/2000/svg" xmlns:xlink="http://www.w3.org/1999/xlink" version="1.1" width="2048" height="2048" viewBox="-10 0 2068 2048">
   <path fill="currentColor"
d="M0 352q0 -93 65.5 -158.5t158.5 -65.5h416q53 0 100.5 23.5t78.5 66.5l115 153q10 13 26 13h864q93 0 158.5 65.5t65.5 158.5v1088q0 93 -65.5 158.5t-158.5 65.5h-1600q-93 0 -158.5 -65.5t-65.5 -158.5v-1344zM1206 1550l369 -343q10 -9 10 -23t-10 -23l-369 -343
q-9 -9 -22 -9t-22.5 9.5t-9.5 22.5v247h-544q-40 0 -68 28t-28 68t28 68t68 28h544v247q0 21 19 29t35 -6z" />
</svg>
