<?xml version="1.0" standalone="no"?>
<!DOCTYPE svg PUBLIC "-//W3C//DTD SVG 1.1//EN" "http://www.w3.org/Graphics/SVG/1.1/DTD/svg11.dtd" >
<svg xmlns="http://www.w3.org/2000/svg" xmlns:xlink="http://www.w3.org/1999/xlink" version="1.1" width="2048" height="2048" viewBox="-10 0 2058 2048">
   <path fill="currentColor"
d="M1427 1113q234 110 381 327t159 483v7q0 49 -34.5 83.5t-83.5 34.5q-48 0 -82.5 -34t-35.5 -82q-6 -137 -64.5 -262t-152.5 -215t-222 -143t-268 -53t-268 53t-222 143t-152.5 215t-64.5 262q-4 47 -37.5 79t-80.5 32q-49 0 -83.5 -34.5t-34.5 -83.5v-2q12 -266 159 -483
t381 -327q-106 -88 -166 -214.5t-60 -269.5q0 -127 49.5 -244t134 -201t201 -134t244.5 -50t244 50t200.5 134t134 201t49.5 244q0 144 -59.5 270t-165.5 214zM1417 629.5q0 -162.5 -115.5 -278t-277.5 -115.5t-277.5 115.5t-115.5 278t115.5 278t277.5 115.5t277.5 -115.5
t115.5 -278z" />
</svg>
