<?xml version="1.0" standalone="no"?>
<!DOCTYPE svg PUBLIC "-//W3C//DTD SVG 1.1//EN" "http://www.w3.org/Graphics/SVG/1.1/DTD/svg11.dtd" >
<svg xmlns="http://www.w3.org/2000/svg" xmlns:xlink="http://www.w3.org/1999/xlink" version="1.1" width="2048" height="2048" viewBox="-10 0 2068 2048">
   <path fill="currentColor"
d="M476 476q28 -26 66 -26q39 0 67.5 28.5t28.5 67.5q0 38 -26 66l-71 71l-142 142l-71 71h1392l-284 -284q-26 -28 -26 -66q0 -39 28.5 -67.5t67.5 -28.5q38 0 66 26l112 112l224 224l112 112q28 28 28 68t-28 68l-448 448q-29 31 -70 31q-34 0 -59.5 -20.5t-33.5 -52.5
q-3 -12 -3 -24q0 -41 30 -70l284 -284h-1392l284 284q31 29 31 70q0 34 -20.5 59.5t-52.5 33.5q-12 3 -24 3q-41 0 -70 -30l-448 -448q-28 -28 -28 -68t28 -68z" />
</svg>
