<?xml version="1.0" standalone="no"?>
<!DOCTYPE svg PUBLIC "-//W3C//DTD SVG 1.1//EN" "http://www.w3.org/Graphics/SVG/1.1/DTD/svg11.dtd" >
<svg xmlns="http://www.w3.org/2000/svg" xmlns:xlink="http://www.w3.org/1999/xlink" version="1.1" width="2048" height="2048" viewBox="-10 0 2058 2048">
   <path fill="currentColor"
d="M1243 329q0 -136 97 -232.5t233 -96.5t232.5 96.5t96.5 232.5q0 106 -61.5 191.5t-158.5 119.5v91q0 151 -107.5 258.5t-257.5 107.5h-586q-60 0 -103 43t-43 103v165q97 34 158.5 119.5t61.5 191.5q0 136 -97 232.5t-233 96.5t-232.5 -96.5t-96.5 -232.5
q0 -106 61.5 -191.5t158.5 -119.5v-768q-97 -34 -158.5 -119.5t-61.5 -191.5q0 -136 96.5 -232.5t232.5 -96.5t233 96.5t97 232.5q0 106 -61.5 191.5t-158.5 119.5v269q70 -31 145 -31h1h147h292h147q60 0 103 -43t43 -104v-91q-97 -34 -158.5 -119.5t-61.5 -191.5zM366 329
q0 46 32 78t77.5 32t77.5 -32t32 -78t-32 -78t-77.5 -32t-77.5 32t-32 78zM1572.5 219q-45.5 0 -77.5 32t-32 78t32 78t77.5 32t77.5 -32t32 -78t-32 -78t-77.5 -32zM475.5 1609q-45.5 0 -77.5 32t-32 78t32 78t77.5 32t77.5 -32t32 -78t-32 -78t-77.5 -32z" />
</svg>
