<?xml version="1.0" standalone="no"?>
<!DOCTYPE svg PUBLIC "-//W3C//DTD SVG 1.1//EN" "http://www.w3.org/Graphics/SVG/1.1/DTD/svg11.dtd" >
<svg xmlns="http://www.w3.org/2000/svg" xmlns:xlink="http://www.w3.org/1999/xlink" version="1.1" width="2048" height="2048" viewBox="-10 0 2058 2048">
   <path fill="currentColor"
d="M578 608q78 155 227 249t329 94h201q34 -97 119 -158.5t192 -61.5q136 0 232.5 97t96.5 233t-96.5 232.5t-232.5 96.5q-107 0 -192 -61.5t-119 -158.5h-201h-1q-182 0 -342.5 -72.5t-278.5 -201.5v128v256v128q97 34 158 119.5t61 191.5q0 136 -96.5 232.5t-232.5 96.5
t-232.5 -96.5t-96.5 -232.5q0 -106 61 -191.5t159 -119.5v-768q-98 -34 -159 -119.5t-61 -191.5q0 -136 96.5 -232.5t232.5 -96.5t232.5 96.5t96.5 232.5q0 87 -41.5 160.5t-111.5 118.5zM402.5 1829q45.5 0 77.5 -32t32 -78t-32 -78t-77.5 -32t-77.5 32t-32 78t32 78
t77.5 32zM1645.5 1170q45.5 0 77.5 -32t32 -77.5t-32 -77.5t-77.5 -32t-77.5 32t-32 77.5t32 77.5t77.5 32zM512 329q0 -46 -32 -78t-77.5 -32t-77.5 33t-32 78t32 77t77.5 32t77.5 -32t32 -77v-1z" />
</svg>
