<?xml version="1.0" standalone="no"?>
<!DOCTYPE svg PUBLIC "-//W3C//DTD SVG 1.1//EN" "http://www.w3.org/Graphics/SVG/1.1/DTD/svg11.dtd" >
<svg xmlns="http://www.w3.org/2000/svg" xmlns:xlink="http://www.w3.org/1999/xlink" version="1.1" width="2048" height="2048" viewBox="-10 0 2068 2048">
   <path fill="currentColor"
d="M1990 392q26 11 42 35t16 53v1088q0 40 -28 68t-68 28q-38 0 -66 -26l-144 -136l-288 -272l-144 -136q-30 -29 -30 -70t30 -70l576 -544q28 -26 66 -26q20 0 38 8zM0 1568v-1088q0 -40 28 -68t68 -28q38 0 66 26l144 136l288 272l144 136q30 29 30 70t-30 70l-576 544
q-28 26 -66 26q-40 0 -68 -28t-28 -68zM192 703v642l340 -321zM1516 1024l340 321v-642zM1024 512q40 0 68 28t28 68v64q0 40 -28 68t-68 28t-68 -28t-28 -68v-64q0 -40 28 -68t68 -28zM1120 224v64q0 40 -28 68t-68 28t-68 -28t-28 -68v-64q0 -40 28 -68t68 -28t68 28
t28 68zM1120 992v64q0 40 -28 68t-68 28t-68 -28t-28 -68v-64q0 -40 28 -68t68 -28t68 28t28 68zM1024 1280q40 0 68 28t28 68v64q0 40 -28 68t-68 28t-68 -28t-28 -68v-64q0 -40 28 -68t68 -28zM1024 1664q40 0 68 28t28 68v64q0 40 -28 68t-68 28t-68 -28t-28 -68v-64
q0 -40 28 -68t68 -28z" />
</svg>
