<?xml version="1.0" standalone="no"?>
<!DOCTYPE svg PUBLIC "-//W3C//DTD SVG 1.1//EN" "http://www.w3.org/Graphics/SVG/1.1/DTD/svg11.dtd" >
<svg xmlns="http://www.w3.org/2000/svg" xmlns:xlink="http://www.w3.org/1999/xlink" version="1.1" width="2048" height="2048" viewBox="-10 0 2068 2048">
   <path fill="currentColor"
d="M644 284q-179 92 -296 256l173 173q10 10 10 23t-9.5 22.5t-22.5 9.5h-467q-13 0 -22.5 -9.5t-9.5 -22.5v-78v-150v-171v-68q0 -13 9.5 -22.5t22.5 -9.5t23 10q9 10 25.5 26t50.5 50.5t56.5 57t22.5 21.5q143 -187 356 -294t458 -107q130 0 255 32.5t232.5 91t200 142
t161 184.5t112.5 220.5t58 246.5v11q0 40 -28 68t-68 28q-37 0 -64.5 -25t-30.5 -62q-16 -155 -88 -293t-181.5 -237.5t-255 -157.5t-304.5 -58q-201 0 -379 92zM162 1046q30 25 34 64q17 155 88.5 293t180.5 238t254.5 158t304.5 58q205 0 383 -93.5t293 -255.5l-173 -173
q-10 -10 -10 -23t9.5 -22.5t22.5 -9.5h467q13 0 22.5 9.5t9.5 22.5v78v150v171v68q0 13 -9.5 22.5t-22.5 9.5t-23 -10q-9 -10 -25.5 -26t-50.5 -50.5t-56.5 -57t-22.5 -21.5q-143 187 -356 294t-458 107q-130 0 -255 -32.5t-232.5 -91t-200 -142.5t-161 -184.5t-112.5 -220
t-58 -246.5v-10q0 -40 28 -68t68 -28q34 0 61 22zM1160 1160q-57 61 -141 61q-79 0 -135.5 -56.5t-56.5 -135.5q0 -84 61 -141q56 -51 131 -51q80 0 136 56t56 136q0 75 -51 131z" />
</svg>
