<?xml version="1.0" standalone="no"?>
<!DOCTYPE svg PUBLIC "-//W3C//DTD SVG 1.1//EN" "http://www.w3.org/Graphics/SVG/1.1/DTD/svg11.dtd" >
<svg xmlns="http://www.w3.org/2000/svg" xmlns:xlink="http://www.w3.org/1999/xlink" version="1.1" width="2048" height="2048" viewBox="-10 0 2068 2048">
   <path fill="currentColor"
d="M0 256q0 -106 75 -181t181 -75h1536q106 0 181 75t75 181v1097q0 106 -75 181t-181 75h-613l-377 376q-61 63 -149 63t-151 -62.5t-63 -150.5v-56v-114v-56h-183q-106 0 -181 -75t-75 -181v-1097zM256 219q-15 0 -26 11t-11 26v1097q0 15 11 26t26 11h293q45 0 77 32
t32 77v320l398 -397q32 -32 78 -32h164h329h165q15 0 26 -11t11 -26v-1097q0 -15 -11 -26t-26 -11h-1536z" />
</svg>
