<?xml version="1.0" standalone="no"?>
<!DOCTYPE svg PUBLIC "-//W3C//DTD SVG 1.1//EN" "http://www.w3.org/Graphics/SVG/1.1/DTD/svg11.dtd" >
<svg xmlns="http://www.w3.org/2000/svg" xmlns:xlink="http://www.w3.org/1999/xlink" version="1.1" width="2048" height="2048" viewBox="-10 0 2068 2048">
   <path fill="currentColor"
d="M0 1024q0 -208 81 -397.5t218.5 -327t327 -218.5t397.5 -81t397.5 81t327 218.5t218.5 327t81 397.5t-81 397.5t-218.5 327t-327 218.5t-397.5 81t-397.5 -81t-327 -218.5t-218.5 -327t-81 -397.5zM1024 192q-169 0 -323 66t-265.5 177.5t-177.5 265.5t-66 323t66 323
t177.5 265.5t265.5 177.5t323 66t323 -66t265.5 -177.5t177.5 -265.5t66 -323t-66 -323t-177.5 -265.5t-265.5 -177.5t-323 -66zM886 779q-12 24 -35 38.5t-51 14.5q-40 0 -68 -28t-28 -68q0 -23 10 -43q39 -79 109 -125q84 -56 201 -56h2q115 0 208 67q50 38 80 94.5
t30 126.5q0 84 -42 147q-31 46 -89 85q-8 6 -40 25h-1q-16 10 -33 21q-21 12 -35 31q-29 42 -79 42q-40 0 -68 -28t-28 -68q0 -28 15 -52q36 -51 89 -85q20 -13 40 -25h1q25 -16 33 -21q20 -12 35 -31q10 -15 10 -41v-3q0 -41 -34 -64q-41 -29 -92 -29h-1h-1q-59 0 -95 24
q-28 20 -43 51zM1152 1408q0 53 -37.5 90.5t-90.5 37.5t-90.5 -37.5t-37.5 -90.5t37.5 -90.5t90.5 -37.5t90.5 37.5t37.5 90.5z" />
</svg>
