<?xml version="1.0" standalone="no"?>
<!DOCTYPE svg PUBLIC "-//W3C//DTD SVG 1.1//EN" "http://www.w3.org/Graphics/SVG/1.1/DTD/svg11.dtd" >
<svg xmlns="http://www.w3.org/2000/svg" xmlns:xlink="http://www.w3.org/1999/xlink" version="1.1" width="2048" height="2048" viewBox="-10 0 2068 2048">
   <path fill="currentColor"
d="M1413 1570q-113 88 -250.5 135.5t-285.5 47.5q-178 0 -341 -69.5t-280.5 -187t-186.5 -279.5t-69 -340.5t67.5 -338.5t188.5 -281t281.5 -189t338.5 -68t340 69.5t279.5 186.5t187 280t69.5 341q0 149 -48 286.5t-135 250.5l110 111l223 223l111 110q35 34 35 80
q0 39 -23.5 68t-59.5 39q-14 3 -28 3q-47 0 -80 -34zM1533 877v-11q0 -133 -52 -254.5t-140 -209.5t-210 -140.5t-255.5 -52.5t-255 52.5t-209.5 140.5t-140.5 209.5t-52.5 254.5v11q2 132 55 252t141 206t208.5 137.5t253 51.5t253.5 -51.5t209 -137.5t140.5 -206
t54.5 -252z" />
</svg>
