<?xml version="1.0" standalone="no"?>
<!DOCTYPE svg PUBLIC "-//W3C//DTD SVG 1.1//EN" "http://www.w3.org/Graphics/SVG/1.1/DTD/svg11.dtd" >
<svg xmlns="http://www.w3.org/2000/svg" xmlns:xlink="http://www.w3.org/1999/xlink" version="1.1" width="2048" height="2048" viewBox="-10 0 2058 2048">
   <path fill="currentColor"
d="M1024 0q45 0 90 4q69 6 119.5 51.5t66.5 109.5l37 142q5 17 27 28q45 22 86 50q21 14 38 9l141 -39q65 -17 129.5 3.5t103.5 77.5q53 74 91 156q28 66 14 130.5t-61 111.5l-104 103q-13 13 -12 38q4 49 0 98q-1 26 12 38l104 103q47 47 61 111.5t-14 130.5
q-39 82 -91 156q-39 57 -103.5 77.5t-129.5 3.5l-141 -39q-17 -5 -38 9q-41 28 -86 50q-22 11 -27 28l-37 142q-16 64 -66.5 109.5t-119.5 51.5q-45 4 -91 4q-44 0 -89 -4q-69 -6 -119.5 -51.5t-66.5 -109.5l-37 -142q-5 -17 -27 -28q-45 -22 -86 -50q-21 -14 -38 -9
l-141 39q-65 17 -129.5 -3.5t-103.5 -77.5q-52 -74 -91 -156q-28 -66 -14 -130.5t61 -111.5l104 -103q13 -12 12 -38q-2 -25 -2 -50q0 -23 2 -48q1 -26 -12 -38l-104 -103q-47 -47 -61 -111.5t14 -130.5q39 -82 91 -156q39 -57 103.5 -77.5t129.5 -3.5l141 39q17 5 38 -9
q41 -28 86 -50q22 -11 27 -28l37 -142q16 -64 66.5 -109.5t119.5 -51.5q45 -4 90 -4zM951 195q-13 1 -18 19l-37 141q-13 52 -47.5 91t-79.5 62q-33 16 -64 37q-43 28 -91.5 37.5t-104.5 -3.5l-141 -39q-18 -4 -25 6q-42 60 -74 127q-5 11 8 24l104 103q38 38 54.5 87
t13.5 100q-1 19 -1 37t1 37q3 51 -13.5 100t-54.5 87l-104 103q-13 12 -8 24q32 67 74 127q7 10 25 6l141 -39q56 -13 104.5 -3.5t91.5 37.5q31 21 64 37q45 23 79.5 62t47.5 91l37 141q5 18 18 19q37 3 74 3q35 0 72 -3q13 -1 18 -19l37 -141q13 -52 47.5 -91t79.5 -62
q33 -16 64 -37q43 -28 91.5 -37.5t104.5 3.5l141 39q18 4 25 -6q42 -60 74 -127q5 -11 -8 -24l-104 -103q-38 -38 -54.5 -87t-13.5 -100q1 -19 1 -37t-1 -37q-3 -51 13.5 -100t54.5 -87l104 -103q13 -12 8 -24q-31 -67 -74 -127q-7 -10 -25 -6l-141 39q-56 13 -104.5 3.5
t-91.5 -37.5q-30 -21 -64 -37q-45 -23 -79.5 -62t-47.5 -91l-37 -141q-5 -18 -18 -19q-37 -3 -74 -3q-35 0 -72 3zM1408 1024q0 159 -112.5 271.5t-271.5 112.5t-271.5 -112.5t-112.5 -271.5t112.5 -271.5t271.5 -112.5t271.5 112.5t112.5 271.5zM1216 1024.5
q0 -79.5 -56.5 -136t-136 -56.5t-135.5 56.5t-56 136t56 135.5t135.5 56t136 -56t56.5 -135.5z" />
</svg>
