<?xml version="1.0" standalone="no"?>
<!DOCTYPE svg PUBLIC "-//W3C//DTD SVG 1.1//EN" "http://www.w3.org/Graphics/SVG/1.1/DTD/svg11.dtd" >
<svg xmlns="http://www.w3.org/2000/svg" xmlns:xlink="http://www.w3.org/1999/xlink" version="1.1" width="2048" height="2048" viewBox="-10 0 2058 2048">
   <path fill="currentColor"
d="M666 209q-124 86 -197 221.5t-73 292.5h2q0 165 78.5 304.5t212.5 225.5q57 36 92 96.5t33 131.5v1l-23 465q-1 41 -31.5 71t-72.5 30q-44 0 -74.5 -31t-30.5 -73v-8l23 -463q1 -25 -28 -44q-178 -113 -283.5 -300t-105.5 -406h1q0 -210 96 -390t262 -295q53 -38 119 -38
q62 0 113 33q49 31 77.5 84t28.5 114v392q0 19 15 30l104 70q9 6 20 6t20 -6l26 -18q26 -18 52 -35l26 -17q15 -11 15 -30v-392q0 -61 28.5 -114t77.5 -84q51 -33 112 -33q67 0 120 38q167 115 263 295.5t96 389.5h-1q0 220 -105 406.5t-283 299.5q-29 19 -28 44l23 463v6
q0 44 -30.5 74.5t-74.5 30.5q-25 0 -48 -11q-25 -13 -40 -37t-16 -52l-23 -466q-2 -71 33 -131.5t92 -96.5q135 -85 214 -225t79 -305h-2v-1q0 -156 -72 -291.5t-196 -221.5q-10 6 -10 22v392q0 62 -29 115.5t-78 85.5l-104 72q-62 42 -137 42t-137 -42l-26 -18
q-26 -18 -52 -35l-26 -19q-49 -32 -78 -85.5t-29 -115.5v-392q0 -16 -10 -22z" />
</svg>
