<?xml version="1.0" standalone="no"?>
<!DOCTYPE svg PUBLIC "-//W3C//DTD SVG 1.1//EN" "http://www.w3.org/Graphics/SVG/1.1/DTD/svg11.dtd" >
<svg xmlns="http://www.w3.org/2000/svg" xmlns:xlink="http://www.w3.org/1999/xlink" version="1.1" width="2048" height="2048" viewBox="-10 0 2068 2048">
   <path fill="currentColor"
d="M1800 0h24q93 0 158.5 65.5t65.5 158.5v24q0 228 -86.5 432.5t-241.5 359.5l-15 14q-15 15 -29 30l-15 14q-60 61 -125 116v411q0 58 -28.5 109t-78.5 81l-355 219q-23 14 -50 14q-32 0 -57.5 -19t-34.5 -49l-122 -397q-10 -7 -19 -16l-310 -311q-9 -8 -16 -18l-397 -122
q-30 -9 -49 -34.5t-19 -57.5q0 -27 14 -50l54 -89l110 -178l55 -88q30 -49 80.5 -78t110.5 -29h410q55 -65 116 -125l58 -59q155 -155 359.5 -241.5t432.5 -86.5zM1144 464l-59 58q-146 147 -258 320l-192 297l274 274l297 -192q173 -112 319 -258l59 -59
q129 -128 200.5 -297.5t71.5 -358.5v-6v-12v-6q0 -13 -9.5 -22.5t-22.5 -9.5h-24q-189 0 -358.5 71.5t-297.5 200.5zM456 1864q-33 33 -86 60t-111.5 44t-102 26.5t-85.5 16.5h-5q-12 0 -20.5 -8.5t-8.5 -21.5v-4q7 -42 16.5 -85.5t26.5 -102.5t44 -111.5t60 -85.5
q58 -65 145 -65q79 0 135.5 56.5t56.5 135.5q0 87 -65 145zM1344 1360q-14 10 -34 22l-301 195l70 228l250 -153q15 -10 15 -28v-264zM471 1039l195 -301q7 -11 22 -34h-264q-18 0 -28 15l-153 250zM1536 640q0 53 -37.5 90.5t-90.5 37.5t-90.5 -37.5t-37.5 -90.5
t37.5 -90.5t90.5 -37.5t90.5 37.5t37.5 90.5z" />
</svg>
