<?xml version="1.0" standalone="no"?>
<!DOCTYPE svg PUBLIC "-//W3C//DTD SVG 1.1//EN" "http://www.w3.org/Graphics/SVG/1.1/DTD/svg11.dtd" >
<svg xmlns="http://www.w3.org/2000/svg" xmlns:xlink="http://www.w3.org/1999/xlink" version="1.1" width="2048" height="2048" viewBox="-10 0 2068 2048">
   <path fill="currentColor"
d="M0 120q4 -51 40.5 -85.5t87.5 -34.5h8q253 17 492.5 94.5t444 203t378.5 299.5t299.5 378.5t203 444t94.5 492.5v8q0 53 -37.5 90.5t-90.5 37.5q-51 0 -87.5 -34.5t-41.5 -85.5q-14 -221 -82 -430t-178.5 -388t-262 -330.5t-330.5 -262t-388 -178.5t-430 -82
q-51 -3 -85.5 -40t-34.5 -87v-10zM144 859h-1q202 25 384 115.5t319 227.5t227.5 319t115.5 384v15q0 53 -37.5 90.5t-90.5 37.5q-48 0 -85 -32.5t-42 -81.5q-26 -211 -139.5 -389t-291.5 -291.5t-389 -139.5q-49 -7 -80 -43t-31 -84q0 -53 37 -90.5t91 -37.5h13zM0 1877
q0 -71 50 -121t121 -50t121 50t50 121t-50 121t-121 50t-121 -50t-50 -121z" />
</svg>
