<?xml version="1.0" standalone="no"?>
<!DOCTYPE svg PUBLIC "-//W3C//DTD SVG 1.1//EN" "http://www.w3.org/Graphics/SVG/1.1/DTD/svg11.dtd" >
<svg xmlns="http://www.w3.org/2000/svg" xmlns:xlink="http://www.w3.org/1999/xlink" version="1.1" width="2048" height="2048" viewBox="-10 0 2068 2048">
   <path fill="currentColor"
d="M224 2048q-93 0 -158.5 -65.5t-65.5 -158.5v-1600q0 -93 65.5 -158.5t158.5 -65.5h1088q93 0 158.5 65.5t65.5 158.5v1600q0 16 -2 32h290q13 0 22.5 -9.5t9.5 -22.5v-764q0 -17 -14 -26l-135 -90q-43 -29 -43 -80q0 -40 28 -68t68 -28q29 0 53 16l34 22q34 23 67 46
l34 22q47 31 73.5 80.5t26.5 105.5v764q0 93 -65.5 158.5t-158.5 65.5h-448q-13 0 -25 -3q-20 3 -39 3h-384q-40 0 -68 -28t-28 -68v-160h-128v160q0 40 -28 68t-68 28h-384zM192 1824q0 13 9.5 22.5t22.5 9.5h288v-160q0 -40 28 -68t68 -28h320q40 0 68 28t28 68v160h288
q13 0 22.5 -9.5t9.5 -22.5v-1600q0 -13 -9.5 -22.5t-22.5 -9.5h-1088q-13 0 -22.5 9.5t-9.5 22.5v1600zM480 768h64q40 0 68 28t28 68t-28 68t-68 28h-64q-40 0 -68 -28t-28 -68t28 -68t68 -28zM384 480q0 -40 28 -68t68 -28h64q40 0 68 28t28 68t-28 68t-68 28h-64
q-40 0 -68 -28t-28 -68zM896 864q0 -40 28 -68t68 -28h64q40 0 68 28t28 68t-28 68t-68 28h-64q-40 0 -68 -28t-28 -68zM992 384h64q40 0 68 28t28 68t-28 68t-68 28h-64q-40 0 -68 -28t-28 -68t28 -68t68 -28zM384 1248q0 -40 28 -68t68 -28h64q40 0 68 28t28 68t-28 68
t-68 28h-64q-40 0 -68 -28t-28 -68zM992 1152h64q40 0 68 28t28 68t-28 68t-68 28h-64q-40 0 -68 -28t-28 -68t28 -68t68 -28z" />
</svg>
