<?xml version="1.0" standalone="no"?>
<!DOCTYPE svg PUBLIC "-//W3C//DTD SVG 1.1//EN" "http://www.w3.org/Graphics/SVG/1.1/DTD/svg11.dtd" >
<svg xmlns="http://www.w3.org/2000/svg" xmlns:xlink="http://www.w3.org/1999/xlink" version="1.1" width="2048" height="2048" viewBox="-10 0 2058 2048">
   <path fill="currentColor"
d="M1049 11l400 400q11 11 11 25t-10.5 24t-24.5 10h-74h-149h-74v173q0 44 -30.5 74t-73.5 30t-73.5 -30t-30.5 -74v-173h-297q-14 0 -24.5 -10t-10.5 -24t11 -25l400 -400q11 -11 25 -11t25 11zM920 1405q0 -44 30.5 -74t73.5 -30t73.5 30t30.5 74v173h297q14 0 24.5 10
t10.5 24t-11 25l-400 400q-11 11 -25 11t-25 -11l-100 -100l-200 -200l-100 -100q-11 -11 -11 -25t10.5 -24t24.5 -10h74h149h74v-173zM228 1128h-69q-43 0 -73.5 -30.5t-30.5 -73.5t30.5 -73.5t73.5 -30.5h69q43 0 73.5 30.5t30.5 73.5t-30.5 73.5t-73.5 30.5zM747 1024
q0 43 -30 73.5t-74 30.5h-69q-43 0 -73.5 -30.5t-30.5 -73.5t30.5 -73.5t73.5 -30.5h69q44 0 74 30.5t30 73.5zM1059 1128h-70q-43 0 -73 -30.5t-30 -73.5t30 -73.5t73 -30.5h70q43 0 73 30.5t30 73.5t-30 73.5t-73 30.5zM1578 1024q0 43 -30.5 73.5t-73.5 30.5h-69
q-44 0 -74 -30.5t-30 -73.5t30 -73.5t74 -30.5h69q43 0 73.5 30.5t30.5 73.5zM1889 1128h-69q-43 0 -73.5 -30.5t-30.5 -73.5t30.5 -73.5t73.5 -30.5h69q43 0 73.5 30.5t30.5 73.5t-30.5 73.5t-73.5 30.5z" />
</svg>
