<?xml version="1.0" standalone="no"?>
<!DOCTYPE svg PUBLIC "-//W3C//DTD SVG 1.1//EN" "http://www.w3.org/Graphics/SVG/1.1/DTD/svg11.dtd" >
<svg xmlns="http://www.w3.org/2000/svg" xmlns:xlink="http://www.w3.org/1999/xlink" version="1.1" width="2048" height="2048" viewBox="-10 0 2068 2048">
   <path fill="currentColor"
d="M224 256h1600q93 0 158.5 65.5t65.5 158.5v1088q0 93 -65.5 158.5t-158.5 65.5h-1600q-93 0 -158.5 -65.5t-65.5 -158.5v-1088q0 -93 65.5 -158.5t158.5 -65.5zM192 1568q0 13 9.5 22.5t22.5 9.5h1600q13 0 22.5 -9.5t9.5 -22.5v-824l-783 459q-23 13 -49 13t-49 -13
l-195 -115t-392 -230l-196 -114v824zM1856 521v-41q0 -13 -9.5 -22.5t-22.5 -9.5h-1600q-13 0 -22.5 9.5t-9.5 22.5v41l832 488z" />
</svg>
