<?xml version="1.0" standalone="no"?>
<!DOCTYPE svg PUBLIC "-//W3C//DTD SVG 1.1//EN" "http://www.w3.org/Graphics/SVG/1.1/DTD/svg11.dtd" >
<svg xmlns="http://www.w3.org/2000/svg" xmlns:xlink="http://www.w3.org/1999/xlink" version="1.1" width="2048" height="2048" viewBox="-10 0 2058 2048">
   <path fill="currentColor"
d="M1052 380q28 -28 68 -28t68 28l136 136l272 272l136 136q28 28 28 68t-28 68l-544 544q-28 26 -66 26q-39 0 -67.5 -28.5t-28.5 -67.5q0 -38 26 -66l95 -95l190 -190l95 -95h-952q-40 0 -68 -28t-28 -68t28 -68t68 -28h952l-380 -380q-28 -28 -28 -68t28 -68z" />
</svg>
