<?xml version="1.0" standalone="no"?>
<!DOCTYPE svg PUBLIC "-//W3C//DTD SVG 1.1//EN" "http://www.w3.org/Graphics/SVG/1.1/DTD/svg11.dtd" >
<svg xmlns="http://www.w3.org/2000/svg" xmlns:xlink="http://www.w3.org/1999/xlink" version="1.1" width="2048" height="2048" viewBox="-10 0 2058 2048">
   <path fill="currentColor"
d="M1668 1052q28 28 28 68t-28 68l-544 544q-28 28 -68 28t-68 -28l-136 -136l-272 -272l-136 -136q-26 -28 -26 -66q0 -39 28.5 -67.5t67.5 -28.5q38 0 66 26l95 95l190 190l95 95v-952q0 -40 28 -68t68 -28t68 28t28 68v952l380 -380q28 -28 68 -28t68 28z" />
</svg>
