<?xml version="1.0" standalone="no"?>
<!DOCTYPE svg PUBLIC "-//W3C//DTD SVG 1.1//EN" "http://www.w3.org/Graphics/SVG/1.1/DTD/svg11.dtd" >
<svg xmlns="http://www.w3.org/2000/svg" xmlns:xlink="http://www.w3.org/1999/xlink" version="1.1" width="2048" height="2048" viewBox="-10 0 2068 2048">
   <path fill="currentColor"
d="M586 71q72 -71 172 -71q72 0 131.5 39t88.5 102l85 184q41 88 117 151t171 85l340 82q67 15 114 62.5t64 106.5t1.5 124t-63.5 113l-305 306l515 514q31 31 31 75q0 36 -21.5 64t-56.5 37q-13 3 -26 3q-44 0 -75 -31l-514 -515l-306 305q-48 48 -113 63.5t-124 -1.5
t-106.5 -64t-62.5 -114l-82 -340q-22 -95 -85 -171t-151 -117l-184 -85q-63 -29 -102 -88.5t-39 -131.5q0 -100 71 -172l129 -128l258 -258zM790 228q-8 -16 -26 -19q-2 -1 -6 -1q-15 0 -24 11l-515 515q-11 9 -11 24q0 4 1 6q3 18 19 26l184 84q131 61 224 174t127 256
l81 339q3 11 12.5 18.5t20.5 7.5q16 0 25 -9l758 -758q9 -9 9 -25q0 -11 -7.5 -20.5t-18.5 -12.5l-85 -20q-84 -20 -170 -41l-84 -20q-143 -34 -256 -127t-174 -224z" />
</svg>
