<?xml version="1.0" standalone="no"?>
<!DOCTYPE svg PUBLIC "-//W3C//DTD SVG 1.1//EN" "http://www.w3.org/Graphics/SVG/1.1/DTD/svg11.dtd" >
<svg xmlns="http://www.w3.org/2000/svg" xmlns:xlink="http://www.w3.org/1999/xlink" version="1.1" width="2048" height="2048" viewBox="-10 0 2068 2048">
   <path fill="currentColor"
d="M466 229q28 -37 75 -37h966q47 0 75 37l446 576q20 26 20 59q0 41 -29 69l-928 896q-28 27 -67 27t-67 -27l-232 -224l-464 -448l-232 -224q-29 -28 -29 -69q0 -33 20 -59l112 -144l222 -288zM589 384l-364 471l799 771l799 -771l-364 -471h-870z" />
</svg>
