<?xml version="1.0" standalone="no"?>
<!DOCTYPE svg PUBLIC "-//W3C//DTD SVG 1.1//EN" "http://www.w3.org/Graphics/SVG/1.1/DTD/svg11.dtd" >
<svg xmlns="http://www.w3.org/2000/svg" xmlns:xlink="http://www.w3.org/1999/xlink" version="1.1" width="2048" height="2048" viewBox="-10 0 2068 2048">
   <path fill="currentColor"
d="M1120 1082v726q0 40 -28 68t-68 28t-68 -28t-28 -68v-726q-58 -27 -93 -81.5t-35 -120.5q0 -93 65.5 -158.5t158.5 -65.5t158.5 65.5t65.5 158.5q0 66 -35 120.5t-93 81.5zM1630 170q28 -26 66 -26q41 0 70 30q133 140 207.5 321.5t74.5 383.5v1q0 202 -74.5 384
t-207.5 322q-29 32 -72 32q-39 0 -67.5 -28t-28.5 -68t28 -68q109 -114 169.5 -261.5t60.5 -310.5v-2v-1q0 -164 -60.5 -311.5t-169.5 -261.5q-26 -28 -26 -66q0 -41 30 -70zM418 170q29 28 30 67.5t-26 68.5q-109 114 -169.5 261.5t-60.5 310.5v2v2q0 163 60.5 310.5
t169.5 261.5q24 27 24 64q0 40 -28 68t-67.5 28t-68.5 -28q-133 -140 -207.5 -321.5t-74.5 -382.5v-2q0 -202 74.5 -384t207.5 -322q29 -30 70 -30q38 0 66 26zM1513 468q72 85 111.5 190.5t39.5 220.5v1v1q0 115 -39.5 220.5t-111.5 190.5q-29 37 -75 37q-39 0 -67.5 -28.5
t-28.5 -67.5q0 -37 25 -64q105 -125 105 -288v-1q0 -164 -105 -289q-21 -26 -21 -60q0 -39 28 -67.5t68 -28.5q43 0 71 33zM682 590q-106 125 -106 289v1v1q0 163 105 288q21 26 21 60q0 39 -28 67.5t-68 28.5q-43 0 -71 -33q-72 -84 -111.5 -189.5t-39.5 -221.5v-1v-1
q0 -116 40 -222t112 -191q29 -34 73 -34q40 0 68 28t28 68q0 35 -23 62z" />
</svg>
