<?xml version="1.0" standalone="no"?>
<!DOCTYPE svg PUBLIC "-//W3C//DTD SVG 1.1//EN" "http://www.w3.org/Graphics/SVG/1.1/DTD/svg11.dtd" >
<svg xmlns="http://www.w3.org/2000/svg" xmlns:xlink="http://www.w3.org/1999/xlink" version="1.1" width="2048" height="2048" viewBox="-10 0 2067 2048">
   <path fill="currentColor"
d="M1345 0q143 0 273 56t224 150.5t149.5 224.5t55.5 273t-55.5 273.5t-150 224.5t-225 150t-273.5 56q-82 0 -163 -19l-119 119q-28 28 -68 28h-24h-48h-24v96q0 40 -28 68l-64 64q-28 28 -68 28h-24h-48h-24v96q0 40 -28 68l-64 64q-28 28 -68 28h-64h-128h-64
q-93 0 -158.5 -65.5t-65.5 -158.5v-256q0 -40 28 -68l631 -631q-19 -81 -19 -165q0 -143 56 -273.5t150 -225t224.5 -150t273.5 -55.5zM833 704q0 83 26 162q5 15 5 31q0 40 -28 68l-643 643v216q0 13 9.5 22.5t22.5 9.5h216l8 -8v-152q0 -40 28 -68t68 -28h152l8 -8v-152
q0 -40 28 -68t68 -28h152l131 -131q28 -28 68 -28q16 0 31 5q78 26 162 26q104 0 199 -40.5t163.5 -109t109 -163.5t40.5 -199t-40.5 -199t-109 -163.5t-163.5 -109t-199 -40.5t-199 40.5t-163.5 109t-109 163.5t-40.5 199zM1409 768q-53 0 -90.5 -37.5t-37.5 -90.5
t37.5 -90.5t90.5 -37.5t90.5 37.5t37.5 90.5t-37.5 90.5t-90.5 37.5z" />
</svg>
