<?xml version="1.0" standalone="no"?>
<!DOCTYPE svg PUBLIC "-//W3C//DTD SVG 1.1//EN" "http://www.w3.org/Graphics/SVG/1.1/DTD/svg11.dtd" >
<svg xmlns="http://www.w3.org/2000/svg" xmlns:xlink="http://www.w3.org/1999/xlink" version="1.1" width="2048" height="2048" viewBox="-10 0 2058 2048">
   <path fill="currentColor"
d="M1138 114v493h493q47 0 80.5 33t33.5 80.5t-33.5 80.5t-80.5 33h-493v493q0 48 -33.5 81t-80.5 33t-80.5 -33t-33.5 -81v-493h-493q-47 0 -80.5 -33t-33.5 -80.5t33.5 -80.5t80.5 -33h493v-493q0 -48 33.5 -81t80.5 -33t80.5 33t33.5 81zM417 1820h1214q47 0 80.5 33.5
t33.5 81t-33.5 80.5t-80.5 33h-1214q-47 0 -80.5 -33t-33.5 -80.5t33.5 -81t80.5 -33.5z" />
</svg>
