<?xml version="1.0" standalone="no"?>
<!DOCTYPE svg PUBLIC "-//W3C//DTD SVG 1.1//EN" "http://www.w3.org/Graphics/SVG/1.1/DTD/svg11.dtd" >
<svg xmlns="http://www.w3.org/2000/svg" xmlns:xlink="http://www.w3.org/1999/xlink" version="1.1" width="2048" height="2048" viewBox="-10 0 2068 2048">
   <path fill="currentColor"
d="M1024 241q328 0 644 271q191 164 344 395q36 53 36 117t-36 117q-153 231 -344 395q-316 271 -644 271t-644 -271q-191 -164 -344 -395q-36 -53 -36 -117t36 -117q153 -231 344 -395q316 -271 644 -271zM199 1015q-3 4 -3 9t3 9q137 206 309 354q260 224 516 224
t516 -224q171 -147 309 -354q3 -4 3 -9t-3 -9q-138 -207 -309 -354q-260 -224 -516 -224t-516 224q-171 147 -309 354zM1024 1285h-6q-108 0 -184.5 -76.5t-76.5 -184.5t76.5 -184.5t184.5 -76.5h6q106 2 180.5 78.5t74.5 182.5t-74.5 182.5t-180.5 78.5z" />
</svg>
