<?xml version="1.0" standalone="no"?>
<!DOCTYPE svg PUBLIC "-//W3C//DTD SVG 1.1//EN" "http://www.w3.org/Graphics/SVG/1.1/DTD/svg11.dtd" >
<svg xmlns="http://www.w3.org/2000/svg" xmlns:xlink="http://www.w3.org/1999/xlink" version="1.1" width="2048" height="2048" viewBox="-10 0 2068 2048">
   <path fill="currentColor"
d="M2048 480v1088q0 40 -28 68t-68 28q-27 0 -49 -14l-124 -74t-247 -148l-124 -74v86q0 93 -65.5 158.5t-158.5 65.5h-960q-93 0 -158.5 -65.5t-65.5 -158.5v-832q0 -93 65.5 -158.5t158.5 -65.5h960q93 0 158.5 65.5t65.5 158.5v86l495 -296q22 -14 49 -14q40 0 68 28
t28 68zM1216 608q0 -13 -9.5 -22.5t-22.5 -9.5h-960q-13 0 -22.5 9.5t-9.5 22.5v832q0 13 9.5 22.5t22.5 9.5h960q13 0 22.5 -9.5t9.5 -22.5v-832zM1408 1130l448 268v-748l-448 268v212z" />
</svg>
