<?xml version="1.0" standalone="no"?>
<!DOCTYPE svg PUBLIC "-//W3C//DTD SVG 1.1//EN" "http://www.w3.org/Graphics/SVG/1.1/DTD/svg11.dtd" >
<svg xmlns="http://www.w3.org/2000/svg" xmlns:xlink="http://www.w3.org/1999/xlink" version="1.1" width="2048" height="2048" viewBox="-10 0 2068 2048">
   <path fill="currentColor"
d="M0 1024q0 -208 81 -397.5t218.5 -327t327 -218.5t397.5 -81t397.5 81t327 218.5t218.5 327t81 397.5t-81 397.5t-218.5 327t-327 218.5t-397.5 81t-397.5 -81t-327 -218.5t-218.5 -327t-81 -397.5zM1024 192q-169 0 -323 66t-265.5 177.5t-177.5 265.5t-66 323t66 323
t177.5 265.5t265.5 177.5t323 66t323 -66t265.5 -177.5t177.5 -265.5t66 -323t-66 -323t-177.5 -265.5t-265.5 -177.5t-323 -66zM832 992q0 -40 28 -68t68 -28h128q40 0 68 28t28 68v352h32q40 0 68 28t28 68t-28 68t-68 28h-256q-40 0 -68 -28t-28 -68t28 -68t68 -28h32
v-256h-32q-40 0 -68 -28t-28 -68zM1024 768q-53 0 -90.5 -37.5t-37.5 -90.5t37.5 -90.5t90.5 -37.5t90.5 37.5t37.5 90.5t-37.5 90.5t-90.5 37.5z" />
</svg>
