<?xml version="1.0" standalone="no"?>
<!DOCTYPE svg PUBLIC "-//W3C//DTD SVG 1.1//EN" "http://www.w3.org/Graphics/SVG/1.1/DTD/svg11.dtd" >
<svg xmlns="http://www.w3.org/2000/svg" xmlns:xlink="http://www.w3.org/1999/xlink" version="1.1" width="2048" height="2048" viewBox="-10 0 2068 2048">
   <path fill="currentColor"
d="M991 333l183 -183q71 -71 164.5 -110.5t197.5 -39.5t199 40.5t163.5 109t109 163.5t40.5 199t-39.5 197.5t-110.5 164.5l-365 366q-71 71 -165 110.5t-198 39.5t-197.5 -39.5t-164.5 -110.5q-30 -32 -30 -75q0 -45 32.5 -77.5t77.5 -32.5q43 0 75 30q86 85 207 85
t207 -85l92 -92q91 -91 182 -183l92 -91q80 -85 80 -201q0 -121 -86 -207t-207 -86q-116 0 -201 80l-183 183q-32 30 -75 30q-45 0 -77.5 -32.5t-32.5 -77.5q0 -43 30 -75zM305 1743q86 86 207 86t207 -86l46 -46q45 -46 91 -91l46 -46q32 -30 75 -30q45 0 77.5 32.5
t32.5 77.5q0 43 -30 75l-46 46q-45 46 -91 92l-46 45q-71 71 -164.5 110.5t-197.5 39.5t-199 -40.5t-163.5 -109t-109 -163.5t-40.5 -199t39.5 -197.5t110.5 -164.5l365 -366q71 -71 165 -110.5t198 -39.5t197.5 39.5t164.5 110.5q30 32 30 75q0 45 -32.5 77.5t-77.5 32.5
q-43 0 -75 -30q-86 -85 -207 -85t-207 85l-92 92q-91 91 -182 183l-92 91q-86 86 -86 207t86 207z" />
</svg>
