<?xml version="1.0" standalone="no"?>
<!DOCTYPE svg PUBLIC "-//W3C//DTD SVG 1.1//EN" "http://www.w3.org/Graphics/SVG/1.1/DTD/svg11.dtd" >
<svg xmlns="http://www.w3.org/2000/svg" xmlns:xlink="http://www.w3.org/1999/xlink" version="1.1" width="2048" height="2048" viewBox="-10 0 2068 2048">
   <path fill="currentColor"
d="M0 292.5q0 -45.5 32 -77.5t78 -32h1828q46 0 78 32t32 77.5t-32 77.5t-78 32h-1828q-46 0 -78 -32t-32 -77.5zM0 1024q0 -46 32 -78t78 -32h1828q46 0 78 32t32 78t-32 78t-78 32h-1828q-46 0 -78 -32t-32 -78zM110 1646h1828q46 0 78 32t32 77.5t-32 77.5t-78 32h-1828
q-46 0 -78 -32t-32 -77.5t32 -77.5t78 -32z" />
</svg>
