<?xml version="1.0" standalone="no"?>
<!DOCTYPE svg PUBLIC "-//W3C//DTD SVG 1.1//EN" "http://www.w3.org/Graphics/SVG/1.1/DTD/svg11.dtd" >
<svg xmlns="http://www.w3.org/2000/svg" xmlns:xlink="http://www.w3.org/1999/xlink" version="1.1" width="2048" height="2048" viewBox="-10 0 2068 2048">
   <path fill="currentColor"
d="M1458 392l561 561q29 29 29 70.5t-29 70.5l-561 561q-30 32 -73 32q-35 0 -61 -21t-35 -54q-3 -13 -3 -25q0 -42 31 -72l492 -492l-492 -491q-32 -30 -32 -72q0 -35 21 -61.5t55 -34.5q12 -3 24 -3q43 0 73 31zM590 392q29 -27 69 -27t69.5 29.5t29.5 69.5q0 39 -27 68
l-123 123l-246 246l-123 122l492 492q32 30 32 72q0 35 -21 61.5t-55 34.5q-12 3 -24 3q-43 0 -73 -31l-561 -561q-29 -29 -29 -70.5t29 -70.5z" />
</svg>
