<?xml version="1.0" standalone="no"?>
<!DOCTYPE svg PUBLIC "-//W3C//DTD SVG 1.1//EN" "http://www.w3.org/Graphics/SVG/1.1/DTD/svg11.dtd" >
<svg xmlns="http://www.w3.org/2000/svg" xmlns:xlink="http://www.w3.org/1999/xlink" version="1.1" width="2048" height="2048" viewBox="-10 0 2058 2048">
   <path fill="currentColor"
d="M1648 1508l-480 481q-59 59 -144 59t-144 -59l-120 -120t-240 -241l-120 -120q-122 -122 -190.5 -283.5t-68.5 -341.5q0 -120 31.5 -234.5t88.5 -211t138.5 -178.5t178.5 -138.5t211.5 -88.5t234.5 -32q179 0 340.5 68t283.5 190.5t190.5 284t68.5 341t-68.5 341
t-190.5 283.5zM1504 403q-94 -94 -218 -146.5t-262 -52.5t-264 53.5t-217 145t-144.5 217t-53.5 263.5t52.5 262.5t145.5 217.5l481 481l481 -480q93 -94 145.5 -218.5t52.5 -262.5t-52.5 -262t-146.5 -218zM1024 1155h-6q-113 0 -192.5 -79.5t-79.5 -192t79.5 -192
t192.5 -79.5h6q110 2 187.5 81.5t77.5 190t-77.5 190t-187.5 81.5z" />
</svg>
