<?xml version="1.0" standalone="no"?>
<!DOCTYPE svg PUBLIC "-//W3C//DTD SVG 1.1//EN" "http://www.w3.org/Graphics/SVG/1.1/DTD/svg11.dtd" >
<svg xmlns="http://www.w3.org/2000/svg" xmlns:xlink="http://www.w3.org/1999/xlink" version="1.1" width="2048" height="2048" viewBox="-10 0 2068 2048">
   <path fill="currentColor"
d="M695 219h1243q46 0 78 32t32 78t-32 78t-78 32h-1243q-46 0 -78 -32t-32 -78t32 -78t78 -32zM695 951h1243q46 0 78 32t32 77.5t-32 77.5t-78 32h-1243q-46 0 -78 -32t-32 -77.5t32 -77.5t78 -32zM695 1682h1243q46 0 78 32t32 78t-32 78t-78 32h-1243q-46 0 -78 -32
t-32 -78t32 -78t78 -32zM146.5 1902q-60.5 0 -103.5 -43t-43 -103.5t43 -103.5t103.5 -43t103.5 43t43 103.5t-43 103.5t-103.5 43zM293 1024q0 61 -43 103.5t-103.5 42.5t-103.5 -42.5t-43 -103.5t43 -103.5t103.5 -42.5t103.5 42.5t43 103.5zM146.5 439
q-60.5 0 -103.5 -43t-43 -103.5t43 -103.5t103.5 -43t103.5 43t43 103.5t-43 103.5t-103.5 43z" />
</svg>
