<?xml version="1.0" standalone="no"?>
<!DOCTYPE svg PUBLIC "-//W3C//DTD SVG 1.1//EN" "http://www.w3.org/Graphics/SVG/1.1/DTD/svg11.dtd" >
<svg xmlns="http://www.w3.org/2000/svg" xmlns:xlink="http://www.w3.org/1999/xlink" version="1.1" width="2048" height="2048" viewBox="-10 0 2068 2048">
   <path fill="currentColor"
d="M683 375.5q0 -42.5 29.5 -72.5t72.5 -30h1161q42 0 72 30t30 72.5t-30 72.5t-72 30h-1161q-43 0 -72.5 -30t-29.5 -72.5zM683 1058q0 -43 29.5 -72.5t72.5 -29.5h1161q42 0 72 29.5t30 72.5t-30 73t-72 30h-1161q-43 0 -72.5 -30t-29.5 -73zM683 1740.5
q0 -42.5 29.5 -72.5t72.5 -30h1161q42 0 72 30t30 72.5t-30 72.5t-72 30h-1161q-43 0 -72.5 -30t-29.5 -72.5zM126 1341q-20 32 -58 32q-27 0 -47.5 -20.5t-20.5 -47.5q0 -20 10 -36l1 -1l1 -2q19 -29 47 -52q65 -53 146 -53q95 0 153 66q52 58 52 142q0 38 -11.5 73
t-24.5 58.5t-39 50t-41 38t-42 31.5l-7 6q-68 51 -88 81h184q29 0 49 20t20 48t-20 48t-49 20h-273q-27 0 -47.5 -20t-20.5 -48q0 -40 11 -75.5t25 -59.5t39.5 -50t41 -38.5t42.5 -32.5l5 -3q62 -46 85.5 -75.5t23.5 -71.5v-3q0 -27 -17 -49q-17 -20 -51 -20q-33 0 -59 22
q-11 9 -19 21zM273 273v478h69q28 0 48.5 20t20.5 48t-20.5 48t-48.5 20h-274q-27 0 -47.5 -20t-20.5 -48t20.5 -48t47.5 -20h69v-368l-38 19q-15 8 -31 8q-27 0 -47.5 -20.5t-20.5 -48.5q0 -41 37 -60l138 -69q14 -7 30 -7q29 0 48.5 20t19.5 48z" />
</svg>
