<?xml version="1.0" standalone="no"?>
<!DOCTYPE svg PUBLIC "-//W3C//DTD SVG 1.1//EN" "http://www.w3.org/Graphics/SVG/1.1/DTD/svg11.dtd" >
<svg xmlns="http://www.w3.org/2000/svg" xmlns:xlink="http://www.w3.org/1999/xlink" version="1.1" width="2048" height="2048" viewBox="-10 0 2068 2048">
   <path fill="currentColor"
d="M110 146h1536q45 0 77 32t32 78t-32 78t-77 32h-1536q-46 0 -78 -32t-32 -78t32 -78t78 -32zM695 878h1243q46 0 78 32t32 77.5t-32 77.5t-78 32h-1243q-46 0 -78 -32t-32 -77.5t32 -77.5t78 -32zM695 1609h1243q46 0 78 32t32 78t-32 78t-78 32h-1243q-46 0 -78 -32
t-32 -78t32 -78t78 -32zM219 914v878q0 46 -32 78t-77.5 32t-77.5 -32t-32 -78v-878q0 -45 32 -77t77.5 -32t77.5 32t32 77z" />
</svg>
