<?xml version="1.0" standalone="no"?>
<!DOCTYPE svg PUBLIC "-//W3C//DTD SVG 1.1//EN" "http://www.w3.org/Graphics/SVG/1.1/DTD/svg11.dtd" >
<svg xmlns="http://www.w3.org/2000/svg" xmlns:xlink="http://www.w3.org/1999/xlink" version="1.1" width="2048" height="2048" viewBox="-10 0 2068 2048">
   <path fill="currentColor"
d="M992 1792q-93 0 -158.5 -65.5t-65.5 -158.5v-1088q0 -93 65.5 -158.5t158.5 -65.5h832q93 0 158.5 65.5t65.5 158.5v1088q0 93 -65.5 158.5t-158.5 65.5h-832zM960 1568q0 13 9.5 22.5t22.5 9.5h832q13 0 22.5 -9.5t9.5 -22.5v-1088q0 -13 -9.5 -22.5t-22.5 -9.5h-832
q-13 0 -22.5 9.5t-9.5 22.5v1088zM627 449q13 22 13 48t-13 48.5t-35 34.5q-16 9 -16 28v832q0 19 16 28q22 12 35 34.5t13 48.5q0 40 -28 68t-68 28q-26 0 -48 -13q-51 -30 -81.5 -81.5t-30.5 -112.5v-832q0 -61 30.5 -112.5t81.5 -81.5q22 -13 48 -13t48 13t35 35z
M208 708q-16 9 -16 28v576q0 19 16 28q22 12 35 34.5t13 48.5q0 40 -28 68t-68 28q-26 0 -48 -13q-51 -30 -81.5 -81.5t-30.5 -112.5v-576q0 -61 30.5 -113t81.5 -81q22 -13 48 -13q40 0 68 28t28 68q0 26 -13 48.5t-35 34.5z" />
</svg>
