<?xml version="1.0" standalone="no"?>
<!DOCTYPE svg PUBLIC "-//W3C//DTD SVG 1.1//EN" "http://www.w3.org/Graphics/SVG/1.1/DTD/svg11.dtd" >
<svg xmlns="http://www.w3.org/2000/svg" xmlns:xlink="http://www.w3.org/1999/xlink" version="1.1" width="2048" height="2048" viewBox="-10 0 2058 2048">
   <path fill="currentColor"
d="M253 225v1477q0 13 9.5 22.5t22.5 9.5h408q39 0 67.5 28t28.5 68t-28.5 68.5t-67.5 28.5h-408q-93 0 -158.5 -66t-65.5 -159v-1477q0 -94 65.5 -159.5t158.5 -65.5h1092q94 0 159.5 65.5t65.5 159.5v993q0 40 -28 68t-68 28t-68.5 -28t-28.5 -68v-993q0 -13 -9.5 -22.5
t-22.5 -9.5h-1092q-13 0 -22.5 9.5t-9.5 22.5zM1958 1450l-585 571q-28 27 -67 27q-40 0 -68 -28l-63 -63l-125 -125l-62 -62q-26 -28 -26 -66q0 -39 28.5 -68t67.5 -29q38 0 66 27l183 183l517 -506q28 -27 67 -27q40 0 68 28.5t28 68.5t-29 69zM542 514h578q40 0 68.5 28
t28.5 68t-28.5 68t-68.5 28h-578q-40 0 -68 -28t-28 -68t28 -68t68 -28zM446 995.5q0 -40.5 28 -68.5t68 -28h257q40 0 68.5 28t28.5 68.5t-28.5 68.5t-68.5 28h-257q-40 0 -68 -28t-28 -68.5z" />
</svg>
