<?xml version="1.0" standalone="no"?>
<!DOCTYPE svg PUBLIC "-//W3C//DTD SVG 1.1//EN" "http://www.w3.org/Graphics/SVG/1.1/DTD/svg11.dtd" >
<svg xmlns="http://www.w3.org/2000/svg" xmlns:xlink="http://www.w3.org/1999/xlink" version="1.1" width="2048" height="2048" viewBox="-10 0 2068 2048">
   <path fill="currentColor"
d="M416 1152q40 0 68 28t28 68q0 316 94 596q2 5 6 8q7 4 15 4h42h84h42q19 0 33 -19q11 -16 11 -34q0 -7 -1 -13q-70 -267 -70 -542q0 -40 28 -68t68 -28t68 28t28 68q0 253 63 493q19 71 -4.5 142t-84 118t-139.5 47h-168q-68 0 -124.5 -38.5t-78.5 -104.5
q-103 -317 -103 -652q0 -1 -0.5 -2.5t-0.5 -2.5q0 -40 28 -68t68 -28zM0 768q0 -139 68.5 -257t186.5 -186.5t257 -68.5h352q40 0 68 28t28 68v832q0 40 -28 68t-68 28h-352q-139 0 -257 -68.5t-186.5 -186.5t-68.5 -257zM512 448q-132 0 -226 94t-94 226t94 226t226 94h256
v-640h-256zM1996 10q23 13 37.5 35.5t14.5 50.5v1344q0 40 -28 68t-68 28q-31 0 -56 -18l-2 -2q-26 -17 -54 -32q-91 -48 -188 -82q-344 -122 -788 -122q-40 0 -68 -28t-28 -68t28 -68t68 -28q476 0 852 134q75 26 140 56v-1020q-67 30 -140 56q-376 134 -852 134
q-40 0 -68 -28t-28 -68t28 -68t68 -28q444 0 788 -122q105 -38 188 -82q26 -14 54 -32l2 -2q25 -18 56 -18q23 0 44 10z" />
</svg>
