<?xml version="1.0" standalone="no"?>
<!DOCTYPE svg PUBLIC "-//W3C//DTD SVG 1.1//EN" "http://www.w3.org/Graphics/SVG/1.1/DTD/svg11.dtd" >
<svg xmlns="http://www.w3.org/2000/svg" xmlns:xlink="http://www.w3.org/1999/xlink" version="1.1" width="2048" height="2048" viewBox="-10 0 2058 2048">
   <path fill="currentColor"
d="M1920 352q0 40 -28 68t-68 28h-512q-40 0 -68 -28t-28 -68t28 -68t68 -28h512q40 0 68 28t28 68zM832 448h-608q-40 0 -68 -28t-28 -68t28 -68t68 -28h608v-160q0 -40 28 -68t68 -28t68 28t28 68v512q0 40 -28 68t-68 28t-68 -28t-28 -68v-160zM992 1120h-768
q-40 0 -68 -28t-28 -68t28 -68t68 -28h768q40 0 68 28t28 68t-28 68t-68 28zM1920 1024q0 40 -28 68t-68 28h-352v160q0 40 -28 68t-68 28t-68 -28t-28 -68v-512q0 -40 28 -68t68 -28t68 28t28 68v160h352q40 0 68 28t28 68zM768 1696v256q0 40 -28 68t-68 28t-68 -28
t-28 -68v-160h-352q-40 0 -68 -28t-28 -68t28 -68t68 -28h352v-160q0 -40 28 -68t68 -28t68 28t28 68v256zM1920 1696q0 40 -28 68t-68 28h-768q-40 0 -68 -28t-28 -68t28 -68t68 -28h768q40 0 68 28t28 68z" />
</svg>
