<?xml version="1.0" standalone="no"?>
<!DOCTYPE svg PUBLIC "-//W3C//DTD SVG 1.1//EN" "http://www.w3.org/Graphics/SVG/1.1/DTD/svg11.dtd" >
<svg xmlns="http://www.w3.org/2000/svg" xmlns:xlink="http://www.w3.org/1999/xlink" version="1.1" width="2048" height="2048" viewBox="-10 0 2068 2048">
   <path fill="currentColor"
d="M1024 193q-113 0 -221 30t-199 83.5t-168 130.5t-130.5 168t-83.5 199t-30 221t30 221t83.5 199t130.5 168t168 130.5t199 83.5t221 30t221 -30t199 -83.5t168 -130.5t130.5 -168t83.5 -199t30 -221q0 -164 -62 -316q-7 -17 -7 -36q0 -40 28 -68t68 -28q30 0 54 16.5
t35 43.5q76 185 76 387q0 139 -37 272t-103 245t-160.5 206.5t-207 160.5t-245 103t-271.5 37t-272 -37t-245 -103t-207 -160.5t-161 -206.5t-102.5 -245t-36.5 -272t36.5 -272t102.5 -245t161 -206.5t207 -160.5t245 -103t272 -37q200 0 388 77q27 11 43.5 35t16.5 54
q0 40 -28 68t-68 28q-19 0 -36 -7q-151 -62 -314 -62h-2zM1828 221q28 28 28 68t-28 68l-130 130l-260 260l-130 130q36 69 36 148q0 87 -43 160.5t-116.5 116.5t-160.5 43t-160.5 -43t-116.5 -116.5t-43 -160.5t43 -161t116.5 -116.5t160.5 -42.5q78 0 148 36l520 -520
q28 -28 68 -28t68 28zM896 1025q0 53 37.5 90.5t90.5 37.5t90.5 -37.5t37.5 -90.5t-37.5 -90.5t-90.5 -37.5t-90.5 37.5t-37.5 90.5z" />
</svg>
