<?xml version="1.0" standalone="no"?>
<!DOCTYPE svg PUBLIC "-//W3C//DTD SVG 1.1//EN" "http://www.w3.org/Graphics/SVG/1.1/DTD/svg11.dtd" >
<svg xmlns="http://www.w3.org/2000/svg" xmlns:xlink="http://www.w3.org/1999/xlink" version="1.1" width="2048" height="2048" viewBox="-10 0 2068 2048">
   <path fill="currentColor"
d="M55 248l155 155q143 -187 356.5 -295t457.5 -108q139 0 271.5 36.5t245 103t207 161t160.5 206.5t103 245t37 272t-37 272t-103 245t-160.5 207t-207 161t-245 102.5t-271.5 36.5q-130 0 -255 -32t-232 -90.5t-200 -142.5t-161.5 -185t-112.5 -220.5t-58 -246.5v-10
q0 -40 28 -68t68 -28q37 0 64.5 25t30.5 61q17 155 88.5 292.5t180.5 237t255 157.5t304 58q112 0 220 -30t199 -83.5t168 -130.5t130.5 -168t83.5 -199t30 -221t-30 -221t-83.5 -199t-130.5 -168t-168 -130.5t-199 -83.5t-220 -30q-206 0 -383.5 93.5t-292.5 255.5
q-1 -1 42 43l88 87l43 43q10 10 10 23t-9.5 22.5t-22.5 9.5h-117h-233h-117q-13 0 -22.5 -9.5t-9.5 -22.5v-467q0 -13 9.5 -22.5t22.5 -9.5t23 10zM991.5 513q39.5 0 67.5 28t28 68v383l260 104q25 11 41 35t16 53q0 40 -28 68t-68 28q-17 0 -33 -6l-80 -32l-160 -64
l-79 -32q-27 -11 -43.5 -35t-16.5 -54v-448q0 -40 28 -68t67.5 -28z" />
</svg>
