<?xml version="1.0" standalone="no"?>
<!DOCTYPE svg PUBLIC "-//W3C//DTD SVG 1.1//EN" "http://www.w3.org/Graphics/SVG/1.1/DTD/svg11.dtd" >
<svg xmlns="http://www.w3.org/2000/svg" xmlns:xlink="http://www.w3.org/1999/xlink" version="1.1" width="2048" height="2048" viewBox="-10 0 2068 2048">
   <path fill="currentColor"
d="M276 158h551q49 0 83.5 34t34.5 83.5t-34.5 84t-83.5 34.5h-551q-16 0 -28 11.5t-12 27.5v1339q0 16 12 28t28 12h1339q16 0 27.5 -12t11.5 -28v-551q0 -49 34.5 -83.5t84 -34.5t83.5 34.5t34 83.5v551q0 115 -80.5 195.5t-194.5 80.5h-1339q-115 0 -195.5 -80.5
t-80.5 -195.5v-1339q0 -114 80.5 -194.5t195.5 -80.5zM1355 0h654q16 0 27.5 11.5t11.5 27.5v654q0 16 -11.5 27.5t-27.5 11.5t-29 -12l-60 -60q-60 -61 -122 -122l-60 -60l-591 590q-34 32 -81 32q-48 0 -83 -35t-35 -83q0 -47 32 -81l147 -148q148 -147 296 -295l147 -148
l-242 -242q-12 -13 -12 -29t11.5 -27.5t27.5 -11.5z" />
</svg>
