<?xml version="1.0" standalone="no"?>
<!DOCTYPE svg PUBLIC "-//W3C//DTD SVG 1.1//EN" "http://www.w3.org/Graphics/SVG/1.1/DTD/svg11.dtd" >
<svg xmlns="http://www.w3.org/2000/svg" xmlns:xlink="http://www.w3.org/1999/xlink" version="1.1" width="2048" height="2048" viewBox="-10 0 2068 2048">
   <path fill="currentColor"
d="M1023 353v1342q0 40 -28 68t-68 28q-36 0 -62 -23l-106 -90q-103 -89 -210 -181l-105 -90h-220q-93 0 -158.5 -65t-65.5 -158v-320q0 -93 65.5 -158t158.5 -65h219l422 -361q26 -23 62 -23q40 0 68 28t28 68zM1442 669l220 219l219 -219q28 -26 66 -26q39 0 67.5 28
t28.5 67q0 38 -26 66l-23 23q-23 22 -55 54.5t-64.5 65t-55.5 54.5l-22 23l220 220q31 29 31 70q0 34 -20.5 59t-52.5 33q-12 3 -24 3q-41 0 -70 -30l-219 -219l-220 219q-29 31 -70 31q-34 0 -59.5 -20.5t-33.5 -51.5q-3 -12 -3 -24q0 -41 30 -70l220 -220l-220 -220
q-31 -29 -31 -70q0 -34 20.5 -59t52.5 -33q12 -3 24 -3q41 0 70 30zM541 809q-27 23 -62 23h-64h-127h-64q-13 0 -22.5 9.5t-9.5 22.5v320q0 13 9.5 22.5t22.5 9.5h255q35 0 62 23l290 247v-924z" />
</svg>
