<?xml version="1.0" standalone="no"?>
<!DOCTYPE svg PUBLIC "-//W3C//DTD SVG 1.1//EN" "http://www.w3.org/Graphics/SVG/1.1/DTD/svg11.dtd" >
<svg xmlns="http://www.w3.org/2000/svg" xmlns:xlink="http://www.w3.org/1999/xlink" version="1.1" width="2048" height="2048" viewBox="-10 0 2058 2048">
   <path fill="currentColor"
d="M476 476q28 -28 68 -28t68 28l103 103l206 206l103 103l412 -412q29 -31 70 -31q34 0 59.5 20.5t33.5 52.5q3 12 3 24q0 41 -30 70l-412 412l412 412q31 29 31 70q0 34 -20.5 59.5t-52.5 33.5q-12 3 -24 3q-41 0 -70 -30l-412 -412l-412 412q-28 26 -66 26
q-39 0 -67.5 -28.5t-28.5 -67.5q0 -38 26 -66l103 -103l206 -206l103 -103l-412 -412q-28 -28 -28 -68t28 -68z" />
</svg>
