<?xml version="1.0" standalone="no"?>
<!DOCTYPE svg PUBLIC "-//W3C//DTD SVG 1.1//EN" "http://www.w3.org/Graphics/SVG/1.1/DTD/svg11.dtd" >
<svg xmlns="http://www.w3.org/2000/svg" xmlns:xlink="http://www.w3.org/1999/xlink" version="1.1" width="2048" height="2048" viewBox="-10 0 2068 2048">
   <path fill="currentColor"
d="M1024 0q208 0 397.5 81t327 218.5t218.5 327t81 397.5t-81 397.5t-218.5 327t-327 218.5t-397.5 81t-397.5 -81t-327 -218.5t-218.5 -327t-81 -397.5t81 -397.5t218.5 -327t327 -218.5t397.5 -81zM508 1676q108 86 240 133t275 47q113 0 221 -30t199.5 -83.5t168 -130.5
t130.5 -168.5t83.5 -199t29.5 -220.5q0 -144 -46.5 -276t-132.5 -240zM192 1024v1q0 143 47 275t133 240l1168 -1168q-108 -86 -240 -133t-276 -47q-113 0 -220.5 30t-199 83.5t-168 130.5t-130.5 168t-83.5 199t-29.5 221h-1z" />
</svg>
