<?xml version="1.0" standalone="no"?>
<!DOCTYPE svg PUBLIC "-//W3C//DTD SVG 1.1//EN" "http://www.w3.org/Graphics/SVG/1.1/DTD/svg11.dtd" >
<svg xmlns="http://www.w3.org/2000/svg" xmlns:xlink="http://www.w3.org/1999/xlink" version="1.1" width="2048" height="2048" viewBox="-10 0 2068 2048">
   <path fill="currentColor"
d="M103 1025q7 -1 14 -1q41 0 72.5 28t35.5 69q18 148 88 278t175 224.5t244.5 149t291.5 54.5q177 0 334 -72t271 -200l-176 -176q-12 -11 -12 -26t11 -25.5t26 -10.5h133h267h133q15 0 26 10.5t11 25.5v534q0 15 -11 25.5t-25.5 10.5t-26.5 -11l-50 -50q-50 -51 -101 -101
l-50 -50q-144 158 -341 247.5t-419 89.5q-193 0 -371 -69.5t-311.5 -190.5t-222.5 -287t-112 -354v-13q0 -43 27.5 -73.5t68.5 -35.5zM1024 219h-1q-177 0 -333.5 73t-270.5 201l176 176q12 11 12 26t-11 25.5t-26 10.5h-133h-267h-133q-15 0 -26 -10.5t-11 -25.5v-534
q0 -15 11 -25.5t25.5 -10.5t26.5 11l50 50q50 51 101 101l50 50q144 -158 341 -247.5t419 -89.5q193 0 371 69.5t311.5 190.5t222.5 287t112 354v13q0 46 -32 78t-78 32q-41 0 -72.5 -28t-35.5 -69q-18 -148 -88 -278.5t-175 -225t-245 -149.5t-291 -55z" />
</svg>
