<?xml version="1.0" standalone="no"?>
<!DOCTYPE svg PUBLIC "-//W3C//DTD SVG 1.1//EN" "http://www.w3.org/Graphics/SVG/1.1/DTD/svg11.dtd" >
<svg xmlns="http://www.w3.org/2000/svg" xmlns:xlink="http://www.w3.org/1999/xlink" version="1.1" width="2048" height="2048" viewBox="-10 0 2065 2048">
   <path fill="currentColor"
d="M1830 114l185 321q30 52 30 113q0 67 -35 122.5t-93 83.5l-1530 736q-45 22 -98 22q-62 0 -114.5 -30.5t-82.5 -83.5l-58 -100q-31 -52 -31 -113q0 -58 27 -108t73 -81l1401 -956q58 -40 128 -40q63 0 115.5 31t82.5 83zM1217 1327l344 503q17 25 17 55q0 41 -28.5 69.5
t-68.5 28.5q-52 0 -81 -43l-245 -358v368q0 41 -28.5 69.5t-69 28.5t-69 -28.5t-28.5 -69.5v-368l-245 358q-30 43 -80 43q-41 0 -69.5 -28.5t-28.5 -69.5q0 -30 17 -55l67 -97q66 -98 133 -194l67 -98q14 -21 37 -34l236 -113q21 -9 43 -9q51 0 80 42zM1212 476l-647 441
l122 212l706 -340zM1614 201h1l-241 164l195 340l262 -127q14 -7 18 -20q2 -4 2 -9q0 -9 -5 -16l-47 -80q-46 -81 -92 -161l-46 -80q-8 -13 -21 -16q-4 -1 -7 -1q-10 0 -19 6zM213 1157q-15 10 -15 27q0 9 4 16l15 25q15 26 29 51l14 26q10 16 29 16q7 0 14 -4l52 -25
q52 -25 104 -49l52 -26l-108 -187z" />
</svg>
