<?xml version="1.0" standalone="no"?>
<!DOCTYPE svg PUBLIC "-//W3C//DTD SVG 1.1//EN" "http://www.w3.org/Graphics/SVG/1.1/DTD/svg11.dtd" >
<svg xmlns="http://www.w3.org/2000/svg" xmlns:xlink="http://www.w3.org/1999/xlink" version="1.1" width="2048" height="2048" viewBox="-10 0 2058 2048">
   <path fill="currentColor"
d="M872 53q66 -53 152 -53t152 53l183 146q182 147 365 292l183 147q43 34 67 84.5t24 105.5v977q0 101 -71 172t-173 71h-487q-43 0 -73.5 -30.5t-30.5 -73.5v-731h-278v731q0 43 -30.5 73.5t-74.5 30.5h-486q-102 0 -173 -71t-71 -172v-978q0 -55 24 -105t67 -84z
M1046 216q-10 -7 -22 -7t-22 7l-182 147q-183 146 -366 291l-182 146q-13 11 -13 27v1v977q0 14 10 24t25 10h382v-730q0 -44 30.5 -74.5t73.5 -30.5h487q44 0 74.5 30.5t30.5 74.5v730h382q15 0 25 -10t10 -24v-978q0 -16 -13 -27z" />
</svg>
