<?xml version="1.0" standalone="no"?>
<!DOCTYPE svg PUBLIC "-//W3C//DTD SVG 1.1//EN" "http://www.w3.org/Graphics/SVG/1.1/DTD/svg11.dtd" >
<svg xmlns="http://www.w3.org/2000/svg" xmlns:xlink="http://www.w3.org/1999/xlink" version="1.1" width="2048" height="2048" viewBox="-10 0 2058 2048">
   <path fill="currentColor"
d="M401 335v261q0 5 -3 6q-6 4 -18 11t-51.5 18t-80.5 11q-39 0 -70.5 -5t-66 -22.5t-57.5 -46t-38.5 -78.5t-15.5 -117q0 -68 13.5 -119t35 -81.5t52.5 -49.5t62.5 -25.5t68.5 -6.5q105 0 146 26q2 4 2 7l-19 81q0 3 -2.5 6t-6.5 2q-49 -15 -99 -15q-29 0 -50.5 5.5t-43 22
t-33 52t-11.5 89.5t10.5 90t30 51.5t37 21.5t39.5 6q19 0 33 -1.5t19 -2.5l5 -1v-105h-67q-9 0 -9 -8v-83q0 -8 9 -8h170q9 0 9 8zM2033 441q0 111 -34.5 155.5t-104.5 44.5q-33 0 -62 -9.5t-41 -18.5l-12 -10q-2 21 -4 24q-2 4 -6 4h-68q-8 0 -8 -8v-506q0 -7 8 -7h97
q8 0 8 7v172q37 -24 92 -24l-1 -1q136 0 136 177zM1260 111q7 0 7 7v506q0 8 -7 8h-97q-8 0 -8 -8l1 -216h-151v216q0 8 -7 8h-97q-3 0 -5.5 -2.5t-2.5 -5.5v-506q0 -7 8 -7h97q7 0 7 7v186h151v-186q0 -7 8 -7h96zM1636 276q8 0 8 8l-1 340q0 8 -7 8h-61q-6 0 -8 -4l-3 -21
q-6 4 -16.5 10t-40.5 15.5t-58 9.5q-64 0 -98.5 -27.5t-34.5 -97.5v-233q0 -7 8 -7h97q8 0 8 7v217q0 26 9.5 37.5t34.5 11.5q15 0 30 -4.5t22 -8.5l7 -5v-247q0 -9 8 -9h96zM844 548q6 1 6 8v68q0 6 -4 8q-5 2 -23.5 6t-34.5 4q-19 0 -34 -2t-34 -9.5t-31.5 -20t-21.5 -36
t-9 -55.5v-149h-50q-8 0 -8 -9v-62q0 -6 6 -7l53 -13v-99q0 -6 6 -6h98q7 0 7 6v96h72q7 0 7 8v77q0 9 -7 9h-72v143q0 37 47 37q7 0 16 -1t11 -1zM557 276q8 0 8 8v335q0 12 -12 12h-87q-14 0 -14 -12v-334q0 -9 8 -9h97zM1922 448q0 -56 -18.5 -74.5t-49.5 -15.5
q-12 1 -24.5 5t-18.5 7l-6 4v160q22 15 55 16q36 1 49 -19t13 -83zM509 122q26 0 44 18.5t18 44.5t-18 44.5t-44 18.5t-44.5 -18.5t-18.5 -45t18.5 -44.5t44.5 -18zM843 547v1h1q-1 0 -1 -0.5t-1 -0.5h1z" />
</svg>
