<?xml version="1.0" standalone="no"?>
<!DOCTYPE svg PUBLIC "-//W3C//DTD SVG 1.1//EN" "http://www.w3.org/Graphics/SVG/1.1/DTD/svg11.dtd" >
<svg xmlns="http://www.w3.org/2000/svg" xmlns:xlink="http://www.w3.org/1999/xlink" version="1.1" width="2048" height="2048" viewBox="-10 0 2068 2048">
   <path fill="currentColor"
d="M512 288q0 -93 65.5 -158.5t158.5 -65.5h715q93 0 158 66l373 373q66 65 66 158v1099q0 93 -65.5 158.5t-158.5 65.5h-1152q-40 0 -68 -28t-28 -68t28 -68t68 -28h1152q13 0 22.5 -9.5t9.5 -22.5v-928h-352q-93 0 -158.5 -65.5t-65.5 -158.5v-352h-544q-13 0 -22.5 9.5
t-9.5 22.5v256q0 40 -28 68t-68 28t-68 -28t-28 -68v-256zM0 1056q0 -93 65.5 -158.5t158.5 -65.5h192q93 0 158.5 65.5t65.5 158.5v320q0 93 -65.5 158.5t-158.5 65.5h-192q-93 0 -158.5 -65.5t-65.5 -158.5v-320zM864 832h192q40 0 68 28t28 68v480h96q40 0 68 28t28 68
t-28 68t-68 28h-384q-40 0 -68 -28t-28 -68t28 -68t68 -28h96v-384h-96q-40 0 -68 -28t-28 -68t28 -68t68 -28zM224 1024q-13 0 -22.5 9.5t-9.5 22.5v320q0 13 9.5 22.5t22.5 9.5h192q13 0 22.5 -9.5t9.5 -22.5v-320q0 -13 -9.5 -22.5t-22.5 -9.5h-192zM1472 264v344
q0 13 9.5 22.5t22.5 9.5h344l-1 -2l-373 -373z" />
</svg>
