<?xml version="1.0" standalone="no"?>
<!DOCTYPE svg PUBLIC "-//W3C//DTD SVG 1.1//EN" "http://www.w3.org/Graphics/SVG/1.1/DTD/svg11.dtd" >
<svg xmlns="http://www.w3.org/2000/svg" xmlns:xlink="http://www.w3.org/1999/xlink" version="1.1" width="2048" height="2048" viewBox="-10 0 2058 2048">
   <path fill="currentColor"
d="M128 448q0 -110 90 -204q74 -76 202 -133q120 -53 276 -82t328 -29t328 29t276 82q128 56 202 133q90 94 90 204v1152q0 110 -90 204q-74 76 -202 133q-120 53 -276 82t-328 29t-328 -29t-276 -82q-128 -56 -202 -133q-90 -94 -90 -204v-1152zM320 448q0 33 36 71
q47 49 141 90q101 44 237 69.5t290 25.5t290 -25.5t237 -69.5q94 -41 141 -91q36 -37 36 -70t-36 -71q-47 -49 -141 -90q-101 -44 -237 -69.5t-290 -25.5t-290 25.5t-237 69.5q-94 41 -141 91q-36 37 -36 70zM320 1024q0 33 36 71q47 49 141 90q101 44 237 69.5t290 25.5
t290 -25.5t237 -69.5q94 -41 141 -91q36 -37 36 -70v-291q-45 28 -100 52q-120 53 -276 82t-328 29t-328 -29t-276 -82q-52 -23 -100 -52v291zM320 1309v291q0 33 36 70q47 50 141 91q100 44 236.5 69.5t290.5 25.5t290 -25.5t237 -69.5q94 -41 141 -90q36 -38 36 -71v-291
q-45 28 -100 52q-120 53 -276 82t-328 29t-328 -29t-276 -82q-52 -23 -100 -52z" />
</svg>
