<?xml version="1.0" standalone="no"?>
<!DOCTYPE svg PUBLIC "-//W3C//DTD SVG 1.1//EN" "http://www.w3.org/Graphics/SVG/1.1/DTD/svg11.dtd" >
<svg xmlns="http://www.w3.org/2000/svg" xmlns:xlink="http://www.w3.org/1999/xlink" version="1.1" width="2048" height="2048" viewBox="-10 0 2068 2048">
   <path fill="currentColor"
d="M224 160h1600q93 0 158.5 65.5t65.5 158.5v512q0 71 -40 128q40 57 40 128v512q0 93 -65.5 158.5t-158.5 65.5h-1600q-93 0 -158.5 -65.5t-65.5 -158.5v-512q0 -71 40 -128q-40 -57 -40 -127v-1v-128v-256v-128q0 -93 65.5 -158.5t158.5 -65.5zM192 384v512
q0 13 9.5 22.5t22.5 9.5h1600q13 0 22.5 -9.5t9.5 -22.5v-512q0 -13 -9.5 -22.5t-22.5 -9.5h-1600q-13 0 -22.5 9.5t-9.5 22.5zM224 1120q-13 0 -22.5 9.5t-9.5 22.5v512q0 13 9.5 22.5t22.5 9.5h1600q13 0 22.5 -9.5t9.5 -22.5v-512q0 -13 -9.5 -22.5t-22.5 -9.5h-1600z
M896 640q0 -40 28 -68t68 -28h576q40 0 68 28t28 68t-28 68t-68 28h-576q-40 0 -68 -28t-28 -68zM992 1312h576q40 0 68 28t28 68t-28 68t-68 28h-576q-40 0 -68 -28t-28 -68t28 -68t68 -28zM384 640q0 -40 28 -68t68 -28h64q40 0 68 28t28 68t-28 68t-68 28h-64
q-40 0 -68 -28t-28 -68zM480 1312h64q40 0 68 28t28 68t-28 68t-68 28h-64q-40 0 -68 -28t-28 -68t28 -68t68 -28z" />
</svg>
