<?xml version="1.0" standalone="no"?>
<!DOCTYPE svg PUBLIC "-//W3C//DTD SVG 1.1//EN" "http://www.w3.org/Graphics/SVG/1.1/DTD/svg11.dtd" >
<svg xmlns="http://www.w3.org/2000/svg" xmlns:xlink="http://www.w3.org/1999/xlink" version="1.1" width="2048" height="2048" viewBox="-10 0 2068 2048">
   <path fill="currentColor"
d="M0 1152q0 -208 81 -397.5t218.5 -327t327 -218.5t397.5 -81t397.5 81t327 218.5t218.5 327t81 397.5v672q0 40 -28 68t-68 28t-68 -28t-28 -68v-672q0 -169 -66 -323t-177.5 -265.5t-265.5 -177.5t-323 -66t-323 66t-265.5 177.5t-177.5 265.5t-66 323v672q0 40 -28 68
t-68 28t-68 -28t-28 -68v-672zM384 992q0 -93 65.5 -158.5t158.5 -65.5h832q93 0 158.5 65.5t65.5 158.5v192q0 93 -65.5 158.5t-158.5 65.5h-832q-93 0 -158.5 -65.5t-65.5 -158.5v-192zM572 924q-28 28 -28 68t28 68l48 48l96 96l48 48q28 28 68 28t68 -28l31 -31l62 -62
l31 -31l124 124q28 28 68 28t68 -28l48 -48l96 -96l48 -48q31 -29 31 -70q0 -34 -20.5 -59.5t-52.5 -33.5q-12 -3 -24 -3q-41 0 -70 30l-124 124l-124 -124q-28 -28 -68 -28t-68 28l-31 31l-62 62l-31 31l-124 -124q-28 -28 -68 -28t-68 28zM704 1696q0 -40 28 -68t68 -28
h448q40 0 68 28t28 68t-28 68t-68 28h-448q-40 0 -68 -28t-28 -68z" />
</svg>
