<?xml version="1.0" standalone="no"?>
<!DOCTYPE svg PUBLIC "-//W3C//DTD SVG 1.1//EN" "http://www.w3.org/Graphics/SVG/1.1/DTD/svg11.dtd" >
<svg xmlns="http://www.w3.org/2000/svg" xmlns:xlink="http://www.w3.org/1999/xlink" version="1.1" width="2048" height="2048" viewBox="-10 0 2068 2048">
   <path fill="currentColor"
d="M536 553l2 1l1291 935l1 1l176 127q42 28 42 79q0 39 -28 67.5t-68 28.5q-32 0 -58 -20l-38 -27q-37 -28 -75 -56l-38 -27h-1420q-79 0 -136 -56.5t-57 -136.5q0 -59 33 -108l54 -81q54 -82 108 -163l55 -82q5 -8 5 -18v-85v-168v-85l-343 -248q-42 -29 -42 -80
q0 -39 28 -67.5t68 -28.5q32 0 58 20l96 70q95 69 191 138zM1478 1471l-901 -653v199q0 68 -38 123l-218 328v1q0 1 1 1v1h1h1155zM1024 193q-94 0 -177.5 36.5t-145.5 102.5q-29 30 -70 30q-40 0 -68 -28.5t-28 -67.5t27 -67q89 -93 208.5 -145t253.5 -52q130 0 248 50
t204 136t136.5 204.5t50.5 247.5v76v152v76q0 39 -28 67.5t-68 28.5t-68 -28.5t-28 -67.5v-304q0 -184 -131 -315.5t-316 -131.5zM1024 2046q-97 0 -169.5 -64.5t-84.5 -159.5q-2 -13 7.5 -22.5t22.5 -9.5h448q13 0 22.5 9.5t7.5 22.5q-12 95 -84.5 159.5t-169.5 64.5z" />
</svg>
