<?xml version="1.0" standalone="no"?>
<!DOCTYPE svg PUBLIC "-//W3C//DTD SVG 1.1//EN" "http://www.w3.org/Graphics/SVG/1.1/DTD/svg11.dtd" >
<svg xmlns="http://www.w3.org/2000/svg" xmlns:xlink="http://www.w3.org/1999/xlink" version="1.1" width="2048" height="2048" viewBox="-10 0 2068 2048">
   <path fill="currentColor"
d="M572 28q28 -28 68 -28h192h384h192q40 0 68 28l544 544q28 28 28 68v768q0 40 -28 68l-544 544q-28 28 -68 28h-192h-384h-192q-40 0 -68 -28l-544 -544q-28 -28 -28 -68v-192v-384v-192q0 -40 28 -68zM679 192l-487 487v690l487 487h690l487 -487v-690l-487 -487h-690z
M512 992q0 -40 28 -68t68 -28h832q40 0 68 28t28 68t-28 68t-68 28h-832q-40 0 -68 -28t-28 -68z" />
</svg>
