<?xml version="1.0" standalone="no"?>
<!DOCTYPE svg PUBLIC "-//W3C//DTD SVG 1.1//EN" "http://www.w3.org/Graphics/SVG/1.1/DTD/svg11.dtd" >
<svg xmlns="http://www.w3.org/2000/svg" xmlns:xlink="http://www.w3.org/1999/xlink" version="1.1" width="2048" height="2048" viewBox="-10 0 2058 2048">
   <path fill="currentColor"
d="M1241 11q11 -11 25 -11t24.5 10.5t10.5 24.5v57v113v58h138q143 0 244.5 101.5t101.5 244.5v778q92 33 150 113.5t58 180.5q0 129 -91.5 220.5t-220 91.5t-220 -91.5t-91.5 -220.5q0 -100 58 -180.5t150 -113.5v-778q0 -58 -40.5 -98.5t-98.5 -40.5h-138v229
q0 14 -10.5 24t-24.5 10t-25 -11l-82 -82l-166 -166l-83 -83q-10 -10 -10 -24t10 -25zM747 1578v-229q0 -14 10.5 -24t24.5 -10t25 11l82 82l166 166l83 83q10 10 10 24t-10 25l-331 331q-11 11 -25 11t-24.5 -10.5t-10.5 -24.5v-57v-113v-58h-138q-143 0 -244.5 -101.5
t-101.5 -244.5v-778q-92 -33 -150 -113.5t-58 -180.5q0 -129 91.5 -220.5t220 -91.5t220 91.5t91.5 220.5q0 100 -58 180.5t-150 113.5v778q0 58 40.5 98.5t98.5 40.5h138zM470 366.5q0 -43.5 -30 -73.5t-73.5 -30t-73.5 30t-30 73.5t30 73.5t73.5 30t73.5 -30t30 -73.5z
M1681.5 1578q-43.5 0 -73.5 30t-30 73.5t30 73.5t73.5 30t73.5 -30t30 -73.5t-30 -73.5t-73.5 -30z" />
</svg>
