<?xml version="1.0" standalone="no"?>
<!DOCTYPE svg PUBLIC "-//W3C//DTD SVG 1.1//EN" "http://www.w3.org/Graphics/SVG/1.1/DTD/svg11.dtd" >
<svg xmlns="http://www.w3.org/2000/svg" xmlns:xlink="http://www.w3.org/1999/xlink" version="1.1" width="2048" height="2048" viewBox="-10 0 2068 2048">
   <path fill="currentColor"
d="M397 1083v-85h297v481q-114 54 -303 54q-87 0 -154.5 -26t-112 -71.5t-72.5 -111t-40 -139t-12 -161.5t12 -161.5t40.5 -139t72.5 -111t111.5 -71.5t154.5 -26q169 0 277 55v89q-83 -34 -141.5 -48t-135.5 -14q-63 0 -113.5 22t-84 59.5t-55.5 92t-31.5 117.5t-9.5 137
t9.5 136.5t31.5 117t55.5 92t83.5 59t113 21.5q155 0 214 -29v-339h-207zM1324 1142h3q69 6 114.5 20.5t71.5 39t35.5 55t9.5 72.5q0 41 -13 75.5t-42.5 64.5t-83 47t-125.5 17q-47 0 -106 -10t-91 -23v-79q84 30 197 30q94 0 134 -33.5t40 -86.5q0 -25 -5.5 -42t-20 -33
t-45.5 -25t-79 -13q-70 -6 -116.5 -21t-70.5 -39.5t-34 -51t-10 -63.5q0 -38 13 -71.5t40.5 -62t77.5 -45t116 -16.5q114 0 190 33v79q-92 -31 -191 -31q-92 0 -125.5 29.5t-33.5 84.5q0 30 11 49t44 31t95 19zM2048 860v72h-204v410q0 60 32 87t95 27q35 0 51 -2v75
q-23 4 -59 4q-42 0 -79 -10t-67 -31t-47 -56.5t-17 -82.5v-422h-132v-41l132 -37v-178l91 -26v211h204zM936 857v542q0 33 13 46t44 13v75q-74 0 -110 -34t-36 -111v-531h89zM958 660.5q0 28.5 -19.5 47t-46.5 18.5h-1q-27 0 -45.5 -18.5t-18.5 -45.5v-1q0 -29 18.5 -47.5
t46.5 -18.5t47 18.5t19 47z" />
</svg>
