<?xml version="1.0" standalone="no"?>
<!DOCTYPE svg PUBLIC "-//W3C//DTD SVG 1.1//EN" "http://www.w3.org/Graphics/SVG/1.1/DTD/svg11.dtd" >
<svg xmlns="http://www.w3.org/2000/svg" xmlns:xlink="http://www.w3.org/1999/xlink" version="1.1" width="2048" height="2048" viewBox="-10 0 2058 2048">
   <path fill="currentColor"
d="M341 239q0 -99 70 -169t169 -70h763q99 0 168 70l398 398q71 70 71 169v1172q0 99 -70 169t-169 70h-956q-43 0 -72.5 -30t-29.5 -72.5t29.5 -72.5t72.5 -30h956q14 0 24 -10t10 -24v-990h-376q-99 0 -168.5 -70t-69.5 -169v-375h-581q-14 0 -24 10t-10 24v375
q0 43 -30 73t-72.5 30t-72.5 -30t-30 -73v-375zM273 1670v139q0 43 -30 72.5t-72.5 29.5t-72.5 -29.5t-30 -72.5v-139q0 -103 40.5 -198t109.5 -163t163.5 -109t198.5 -41h3h31v-262q0 -14 10.5 -24t24.5 -10q13 0 23 10l98 91q99 91 197 183l99 91q10 10 10 25t-10 26
l-394 364q-10 10 -23 10q-14 0 -24.5 -10t-10.5 -24v-265l-32 -1h-2q-127 0 -217 90t-90 217zM1365 213v367q0 14 10.5 24t23.5 10h367l-1 -2l-398 -398z" />
</svg>
