<?xml version="1.0" standalone="no"?>
<!DOCTYPE svg PUBLIC "-//W3C//DTD SVG 1.1//EN" "http://www.w3.org/Graphics/SVG/1.1/DTD/svg11.dtd" >
<svg xmlns="http://www.w3.org/2000/svg" xmlns:xlink="http://www.w3.org/1999/xlink" version="1.1" width="2048" height="2048" viewBox="-10 0 2068 2048">
   <path fill="currentColor"
d="M224 128h416q53 0 100.5 23.5t78.5 65.5l115 154q10 13 26 13h864q93 0 158.5 65.5t65.5 158.5v1088q0 93 -65.5 158.5t-158.5 65.5h-1152q-37 0 -62 -20t-30.5 -48t0 -56.5t30.5 -48t62 -19.5h1152q13 0 22.5 -9.5t9.5 -22.5v-1088q0 -13 -9.5 -22.5t-22.5 -9.5h-864
q-53 0 -100.5 -23.5t-78.5 -66.5l-116 -153q-9 -13 -25 -13h-416q-13 0 -22.5 9.5t-9.5 22.5v224q0 45 -30 71t-66 26t-66 -26t-30 -71v-224q0 -93 65.5 -158.5t158.5 -65.5zM543 809h-1q14 0 23 9l369 343q10 9 10 23t-10 24l-369 343q-15 14 -34 5.5t-20 -29.5v-248h-30
q-120 -1 -204.5 83.5t-84.5 204.5v129q0 36 -20 61t-48 31t-56.5 0t-48 -31t-19.5 -61v-129q0 -98 38 -187.5t103 -153.5t154 -102t187 -37h30v-246q0 -13 9 -22.5t22 -9.5z" />
</svg>
