<?xml version="1.0" standalone="no"?>
<!DOCTYPE svg PUBLIC "-//W3C//DTD SVG 1.1//EN" "http://www.w3.org/Graphics/SVG/1.1/DTD/svg11.dtd" >
<svg xmlns="http://www.w3.org/2000/svg" xmlns:xlink="http://www.w3.org/1999/xlink" version="1.1" width="2048" height="2048" viewBox="-10 0 2068 2048">
   <path fill="currentColor"
d="M369 118q0 -42 29.5 -71.5t71.5 -29.5t71.5 29.5t29.5 71.5v133q56 73 124 142.5t112 107.5t122 103l31 28q-7 -160 58 -291q78 -157 236 -238.5t341 -51.5q91 16 172 58.5t144.5 108t100 161.5t36.5 209q0 87 -39.5 166t-115.5 134.5t-172 66.5l19 68l9 29
q55 190 64 299q14 170 -37.5 303t-162.5 221q-196 156 -539 156h-805q-42 0 -71.5 -29.5t-29.5 -71t29.5 -71t71.5 -29.5h184q-49 -75 -75 -160q-22 -73 -22 -151q0 -65 15 -127q-25 2 -49 2q-115 0 -223 -41q-29 -10 -47 -36.5t-18 -57.5q0 -42 29 -71.5t71 -29.5
q18 0 36 7q64 24 126 28t108 -8.5t77.5 -28.5t50.5 -34l1 -1q29 -30 71 -30t72 30q29 29 29 71q0 43 -31 73q-159 160 -103 348q21 69 66 127t94 90h343q273 0 413 -112q144 -116 125 -350q-8 -91 -57 -259l-9 -29q-32 -110 -47 -175q-39 -24 -68 -58q-62 -74 -85 -168
q-3 -12 -3 -23q0 -41 30 -71t71 -30q34 0 61.5 21.5t35.5 54.5q13 50 42 83q36 41 96 41q72 0 120 -50.5t48 -116.5q0 -142 -80 -229t-206 -108q-115 -20 -214.5 31t-148.5 149q-18 36 -27 75.5t-11 71.5t5.5 82t14 82.5t20.5 99.5l7 26q0 3 1 7q74 94 126 208q10 21 10 45
q0 41 -29.5 71t-71.5 30q-30 0 -55.5 -17.5t-36.5 -44.5q-51 -113 -122 -193.5t-188 -179.5l-42 -35q-75 -62 -118 -100t-114 -109t-129 -143q-80 47 -138 119q-84 102 -96 202q25 26 78 32q38 4 76 -4t63 -22q22 -10 45 -10q42 0 71.5 29.5t29.5 71.5q0 56 -48 86
q-53 29 -121 42.5t-135 7.5q-50 -5 -94.5 -21t-88 -52t-70.5 -87l-10 -21v-25q0 -93 40 -186t105 -171q101 -123 224 -182v-98z" />
</svg>
