<?xml version="1.0" standalone="no"?>
<!DOCTYPE svg PUBLIC "-//W3C//DTD SVG 1.1//EN" "http://www.w3.org/Graphics/SVG/1.1/DTD/svg11.dtd" >
<svg xmlns="http://www.w3.org/2000/svg" xmlns:xlink="http://www.w3.org/1999/xlink" version="1.1" width="2048" height="2048" viewBox="-10 0 2068 2048">
   <path fill="currentColor"
d="M1024 0q208 0 397.5 81t327 218.5t218.5 327t81 397.5t-81 397.5t-218.5 327t-327 218.5t-397.5 81t-397.5 -81t-327 -218.5t-218.5 -327t-81 -397.5t81 -397.5t218.5 -327t327 -218.5t397.5 -81zM740 1120q25 288 174 535q49 81 110 155q60 -72 110 -155
q149 -247 174 -535q0 1 -142 1h-284zM1308 928q-25 -288 -174 -535q-51 -84 -110 -155q-61 73 -110 155q-149 247 -174 535q0 -1 142 -1h284zM547 1120h-349q29 251 193 443t404 261q-23 -34 -45 -71q-179 -298 -203 -633zM198 928h349q24 -334 203 -633q24 -40 45 -71
q-240 69 -404 261t-193 443zM1501 1120q-24 334 -203 633q-24 40 -45 71q240 -69 404 -261t193 -443h-349zM1850 928q-29 -251 -193 -443t-404 -261q23 33 45 71q179 299 203 633h349z" />
</svg>
