<?xml version="1.0" standalone="no"?>
<!DOCTYPE svg PUBLIC "-//W3C//DTD SVG 1.1//EN" "http://www.w3.org/Graphics/SVG/1.1/DTD/svg11.dtd" >
<svg xmlns="http://www.w3.org/2000/svg" xmlns:xlink="http://www.w3.org/1999/xlink" version="1.1" width="2048" height="2048" viewBox="-10 0 2068 2048">
   <path fill="currentColor"
d="M968 265q25 11 40.5 34.5t15.5 52.5v1344q0 40 -28 68t-68 28q-36 0 -62 -23l-106 -91l-210 -180l-106 -90h-220q-93 0 -158.5 -65.5t-65.5 -158.5v-320q0 -93 65.5 -158.5t158.5 -65.5h221l421 -361q26 -23 62 -23q21 0 40 9zM832 561l-290 248q-26 23 -62 23h-64h-128
h-64q-13 0 -22.5 9.5t-9.5 22.5v320q0 13 9.5 22.5t22.5 9.5h256q35 0 62 23l290 248v-926zM1612 300q28 -28 68 -28t68 28q142 142 221 329t79 395t-79 395t-221 329q-28 26 -65 26q-40 0 -68 -28t-28 -68q0 -38 25 -66q115 -115 179.5 -267t64.5 -321t-64.5 -321
t-179.5 -267q-28 -29 -28 -68.5t28 -67.5zM1477 571h-1q89 89 138.5 206t49.5 247t-49.5 247t-138.5 205q-28 31 -70 31q-33 0 -59 -20.5t-34 -51.5q-3 -12 -3 -24q0 -42 31 -70q62 -62 96.5 -144t34.5 -173t-34.5 -173t-96.5 -144q-28 -28 -28 -68t28 -68t67.5 -28t68.5 28
z" />
</svg>
