<?xml version="1.0" standalone="no"?>
<!DOCTYPE svg PUBLIC "-//W3C//DTD SVG 1.1//EN" "http://www.w3.org/Graphics/SVG/1.1/DTD/svg11.dtd" >
<svg xmlns="http://www.w3.org/2000/svg" xmlns:xlink="http://www.w3.org/1999/xlink" version="1.1" width="2048" height="2048" viewBox="-10 0 2067 2048">
   <path fill="currentColor"
d="M608 305q-187 111 -298.5 301.5t-111.5 415.5q0 113 29.5 220.5t83.5 199t130.5 168.5t168 130.5t199.5 83.5t220 30q219 0 410 -108q21 -12 45 -12q40 0 68 28.5t28 67.5q0 54 -45 82q-237 136 -511 136q-138 0 -271 -36.5t-245 -102.5t-206.5 -160.5t-160.5 -207
t-103 -245t-37 -271.5q0 -264 126 -492q132 -242 372 -387.5t525 -145.5q137 0 267 35.5t241 99.5t205 155.5t161 201t106 238t43 264.5v-1v1v0v0v0v1v0v1v0v1v1v1v1v1v1v1v1v1v1v1v1v1v1v1v1v1v1v1v1v1v1v1v1v1v1v1v1v1v1v1v1v1v1v1v9v97v48q0 96 -47 177t-128 128t-177 47
q-92 0 -171 -44t-126 -119q-72 77 -169 120.5t-205 43.5q-104 0 -199 -41t-163.5 -109.5t-109 -163t-40.5 -198.5q0 -97 36 -188q57 -144 186.5 -234t289.5 -90q103 0 198 40.5t163.5 109t109 163.5t40.5 198v40v80v40q0 66 47 113t113 47t113 -47t47 -113v-176
q-3 -166 -70.5 -317t-178.5 -260t-263.5 -173.5t-318.5 -64.5q-223 0 -416 111zM1343 1025.5q0 -131.5 -94 -225.5t-225.5 -94t-225.5 94t-94 225.5t94 225.5t225.5 94t225.5 -94t94 -225.5z" />
</svg>
