<?xml version="1.0" standalone="no"?>
<!DOCTYPE svg PUBLIC "-//W3C//DTD SVG 1.1//EN" "http://www.w3.org/Graphics/SVG/1.1/DTD/svg11.dtd" >
<svg xmlns="http://www.w3.org/2000/svg" xmlns:xlink="http://www.w3.org/1999/xlink" version="1.1" width="2048" height="2048" viewBox="-10 0 2068 2048">
   <path fill="currentColor"
d="M0 352q0 -93 65.5 -158.5t158.5 -65.5h1600q93 0 158.5 65.5t65.5 158.5v1344q0 93 -65.5 158.5t-158.5 65.5h-1600q-93 0 -158.5 -65.5t-65.5 -158.5v-1344zM224 320q-13 0 -22.5 9.5t-9.5 22.5v1344q0 13 9.5 22.5t22.5 9.5h1600q13 0 22.5 -9.5t9.5 -22.5v-1344
q0 -13 -9.5 -22.5t-22.5 -9.5h-1600zM928 1024q0 40 -28 68l-288 288q-29 31 -70 31q-34 0 -59.5 -20.5t-33.5 -52.5q-3 -12 -3 -24q0 -41 30 -70l220 -220l-220 -220q-31 -29 -31 -70q0 -34 20.5 -59.5t52.5 -33.5q12 -3 24 -3q41 0 70 30l288 288q28 28 28 68zM1120 1216
h384q40 0 68 28t28 68t-28 68t-68 28h-384q-40 0 -68 -28t-28 -68t28 -68t68 -28z" />
</svg>
