<?xml version="1.0" standalone="no"?>
<!DOCTYPE svg PUBLIC "-//W3C//DTD SVG 1.1//EN" "http://www.w3.org/Graphics/SVG/1.1/DTD/svg11.dtd" >
<svg xmlns="http://www.w3.org/2000/svg" xmlns:xlink="http://www.w3.org/1999/xlink" version="1.1" width="2048" height="2048" viewBox="-10 0 2058 2048">
   <path fill="currentColor"
d="M1395 256q13 0 22.5 9.5t9.5 22.5t-10 23l-61 61l-120 120l-135 135l-54 54q-10 10 -23 10t-23 -10l-370 -370q-10 -10 -10 -23t9.5 -22.5t22.5 -9.5h275v-160q0 -40 28 -68t68 -28t68 28t28 68v160h275zM1120 1952q0 40 -28 68t-68 28t-68 -28t-28 -68v-160h-275
q-13 0 -22.5 -9.5t-9.5 -22.5t10 -23l370 -370q10 -10 23 -10t23 10l93 93l185 185l92 92q10 10 10 23t-9.5 22.5t-22.5 9.5h-69h-137h-69v160zM288 1120h-64q-40 0 -68 -28t-28 -68t28 -68t68 -28h64q40 0 68 28t28 68t-28 68t-68 28zM768 1024q0 40 -28 68t-68 28h-64
q-40 0 -68 -28t-28 -68t28 -68t68 -28h64q40 0 68 28t28 68zM1056 1120h-64q-40 0 -68 -28t-28 -68t28 -68t68 -28h64q40 0 68 28t28 68t-28 68t-68 28zM1536 1024q0 40 -28 68t-68 28h-64q-40 0 -68 -28t-28 -68t28 -68t68 -28h64q40 0 68 28t28 68zM1824 1120h-64
q-40 0 -68 -28t-28 -68t28 -68t68 -28h64q40 0 68 28t28 68t-28 68t-68 28z" />
</svg>
