<?xml version="1.0" standalone="no"?>
<!DOCTYPE svg PUBLIC "-//W3C//DTD SVG 1.1//EN" "http://www.w3.org/Graphics/SVG/1.1/DTD/svg11.dtd" >
<svg xmlns="http://www.w3.org/2000/svg" xmlns:xlink="http://www.w3.org/1999/xlink" version="1.1" width="2048" height="2048" viewBox="-10 0 2068 2048">
   <path fill="currentColor"
d="M1444 170q157 -113 270 -149q169 -56 269 43q99 100 47 269q-35 116 -146 272q-161 227 -489 551q-205 203 -396 299q7 37 7 74q0 99 -37.5 187.5t-105.5 155.5q-70 71 -215 112q-104 30 -249 46q-147 17 -296 17h-7l1 -97l-1 97q-39 0 -67.5 -28.5t-28.5 -67.5l96 -1
l-96 1v-7q0 -149 17 -296q12 -126 46 -249q42 -145 112 -214q67 -68 156 -105.5t188 -37.5q36 0 75 6q97 -188 300 -388q344 -339 550 -490zM210 1669q-10 91 -13 182q90 -4 181 -14q110 -11 216 -40q97 -28 132 -62q85 -86 85 -206.5t-85.5 -206.5t-206.5 -86t-207 85
q-34 35 -62 132q-29 107 -40 216zM1559 328q-188 137 -496 439l223 223q295 -294 439 -498q92 -130 119 -215q17 -57 1 -75q-14 -15 -71 3q-84 28 -215 123zM933 1271h-1q113 -63 211 -148l-53 -54q-54 -54 -108 -107l-54 -54q-86 96 -151 208q96 59 156 155z" />
</svg>
