<?xml version="1.0" standalone="no"?>
<!DOCTYPE svg PUBLIC "-//W3C//DTD SVG 1.1//EN" "http://www.w3.org/Graphics/SVG/1.1/DTD/svg11.dtd" >
<svg xmlns="http://www.w3.org/2000/svg" xmlns:xlink="http://www.w3.org/1999/xlink" version="1.1" width="2048" height="2048" viewBox="-10 0 2058 2048">
   <path fill="currentColor"
d="M1221 82q6 65 21 124.5t32 105.5t46.5 96t52 82t62 77t62.5 68.5t67 66.5q43 44 65 66.5t59.5 65t57 72t46 75.5t39 87t22 95t9.5 112q0 132 -44 252.5t-122 214t-182 163t-230 106.5t-260 37t-260.5 -37t-230 -105.5t-182 -162.5t-122 -215t-43.5 -253q0 -126 49 -240
t134 -184q38 -28 77 -8t57 67q23 59 60.5 95t75.5 43t72 -1.5t55 -29.5q29 -30 30 -77.5t-30 -116.5q-44 -88 -59 -175.5t-3 -160.5t42.5 -141t74.5 -121.5t96.5 -98.5t104 -74.5t102.5 -46.5q36 -14 65 11t32 66zM1023.5 1855q134.5 0 254.5 -45.5t205.5 -123t135.5 -185
t50 -226.5q0 -47 -7 -86.5t-23 -77.5t-33 -67t-49 -67t-58.5 -65t-72.5 -74l-4 -5q-38 -37 -59 -58t-58.5 -62.5t-61 -72t-55 -77.5t-53 -90t-43.5 -98t-36 -113q-68 55 -112 123q-100 162 -6 352q25 48 38 100t14 107.5t-21.5 110t-65.5 99.5q-58 58 -142 79.5t-168 1.5
q-110 -27 -185 -113q-29 73 -29 152v1q0 120 50 227.5t135 184.5t205 122.5t254.5 45.5z" />
</svg>
