<?xml version="1.0" standalone="no"?>
<!DOCTYPE svg PUBLIC "-//W3C//DTD SVG 1.1//EN" "http://www.w3.org/Graphics/SVG/1.1/DTD/svg11.dtd" >
<svg xmlns="http://www.w3.org/2000/svg" xmlns:xlink="http://www.w3.org/1999/xlink" version="1.1" width="2048" height="2048" viewBox="-10 0 2068 2048">
   <path fill="currentColor"
d="M864 64h320q93 0 158.5 65.5t65.5 158.5v160h416q93 0 158.5 65.5t65.5 158.5v1088q0 93 -65.5 158.5t-158.5 65.5h-1600q-93 0 -158.5 -65.5t-65.5 -158.5v-1088q0 -93 65.5 -158.5t158.5 -65.5h416v-160q0 -93 65.5 -158.5t158.5 -65.5zM448 1280h-1q-140 0 -255 -80
v560q0 13 9.5 22.5t22.5 9.5h1600q13 0 22.5 -9.5t9.5 -22.5v-560q-115 80 -255 80h-1h-288h-576h-288zM224 640q-13 0 -22.5 9.5t-9.5 22.5v160q0 106 75 181t181 75h1152q106 0 181 -75t75 -181v-160q0 -13 -9.5 -22.5t-22.5 -9.5h-1600zM1216 448v-160q0 -13 -9.5 -22.5
t-22.5 -9.5h-320q-13 0 -22.5 9.5t-9.5 22.5v160h384z" />
</svg>
