<?xml version="1.0" standalone="no"?>
<!DOCTYPE svg PUBLIC "-//W3C//DTD SVG 1.1//EN" "http://www.w3.org/Graphics/SVG/1.1/DTD/svg11.dtd" >
<svg xmlns="http://www.w3.org/2000/svg" xmlns:xlink="http://www.w3.org/1999/xlink" version="1.1" width="2048" height="2048" viewBox="-10 0 2068 2048">
   <path fill="currentColor"
d="M512 992h-192q-53 0 -90.5 37.5t-37.5 90.5v672q0 40 -28 68t-68 28t-68 -28t-28 -68v-672q0 -132 94 -226t226 -94h192v-175q0 -85 56.5 -148.5t139.5 -73.5l90 -11q91 -12 182 -23l91 -11l97 -117q32 -39 77 -60t95 -21h100q93 0 158.5 65.5t65.5 158.5v96h288
q40 0 68 28t28 68t-28 68t-68 28h-288v512h288q40 0 68 28t28 68t-28 68t-68 28h-288v96q0 93 -65.5 158.5t-158.5 65.5h-100q-50 0 -95 -21t-77 -60l-98 -116l-362 -46q-83 -10 -139.5 -73.5t-56.5 -148.5v-60v-119v-60zM1315 364l-121 145q-25 30 -62 34l-100 13
q-100 12 -200 25l-100 12q-12 2 -20 11t-8 21v151v303v152q0 12 8 21t20 11l400 50q37 5 62 34l30 37q30 36 61 72l30 36q10 12 25 12h100q13 0 22.5 -9.5t9.5 -22.5v-1088q0 -13 -9.5 -22.5t-22.5 -9.5h-100q-15 0 -25 12z" />
</svg>
