<?xml version="1.0" standalone="no"?>
<!DOCTYPE svg PUBLIC "-//W3C//DTD SVG 1.1//EN" "http://www.w3.org/Graphics/SVG/1.1/DTD/svg11.dtd" >
<svg xmlns="http://www.w3.org/2000/svg" xmlns:xlink="http://www.w3.org/1999/xlink" version="1.1" width="2048" height="2048" viewBox="-10 0 2058 2048">
   <path fill="currentColor"
d="M277 189l1575 1319q23 19 23 49q0 27 -18.5 45.5t-45.5 18.5q-23 0 -41 -15l-37 -31q-38 -32 -76 -63l-38 -32v333q0 27 -18.5 45.5t-45.5 18.5q-21 0 -39 -14l-123 -99q-123 -98 -247 -197l-122 -98l-493 394q-17 14 -39 14q-27 0 -45.5 -18.5t-18.5 -44.5l-5 -1337
l-228 -190q-23 -19 -23 -49q0 -27 18.5 -45.5t45.5 -18.5q23 0 41 15zM633 174h838q62 0 105 43.5t43 105.5v687q0 26 -18.5 45t-45.5 19q-22 0 -40 -15l-231 -193q-231 -193 -461 -387l-231 -192q-23 -19 -23 -49q0 -27 19 -45.5t45 -18.5z" />
</svg>
