<?xml version="1.0" standalone="no"?>
<!DOCTYPE svg PUBLIC "-//W3C//DTD SVG 1.1//EN" "http://www.w3.org/Graphics/SVG/1.1/DTD/svg11.dtd" >
<svg xmlns="http://www.w3.org/2000/svg" xmlns:xlink="http://www.w3.org/1999/xlink" version="1.1" width="2048" height="2048" viewBox="-10 0 2068 2048">
   <path fill="currentColor"
d="M985 136q18 -8 39 -8t39 8l232 104l464 208l232 104q26 12 41.5 35.5t15.5 52.5t-15.5 52.5t-41.5 35.5l-327 146v358q0 91 -60 161.5t-152 116.5q-180 90 -428 90q-53 0 -104 -5q-37 -3 -62 -30.5t-25 -64.5q0 -40 28 -68t68 -28h8q42 4 87 4q203 0 342 -70
q58 -29 82 -57.5t24 -48.5v-272l-409 184q-18 8 -39 8t-39 -8l-119 -53q-117 -53 -236 -106l-118 -53v213q60 21 104 65q88 88 88 230v384q0 40 -28 68t-68 28h-384q-40 0 -68 -28t-28 -68v-384q0 -142 88 -230q44 -44 104 -65v-299l-263 -118q-26 -12 -41.5 -35.5
t-15.5 -52.5t15.5 -52.5t41.5 -35.5zM331 640l693 311l693 -311l-693 -311zM320 1440v288h192v-288q0 -62 -32 -94q-26 -26 -63 -26h-1h-1q-37 0 -63 26q-32 32 -32 94z" />
</svg>
