<?xml version="1.0" standalone="no"?>
<!DOCTYPE svg PUBLIC "-//W3C//DTD SVG 1.1//EN" "http://www.w3.org/Graphics/SVG/1.1/DTD/svg11.dtd" >
<svg xmlns="http://www.w3.org/2000/svg" xmlns:xlink="http://www.w3.org/1999/xlink" version="1.1" width="2048" height="2048" viewBox="-10 0 2068 2048">
   <path fill="currentColor"
d="M1120 192v160h126q59 0 111 30l165 94q7 4 16 4h286q40 0 68 28t28 68t-28 68t-68 28h-55l271 601q8 18 8 39q0 40 -28 68l-68 -68l68 68h-1v1l-1 1l-1 1l-6 5q-40 34 -88 58q-116 58 -259 58h-7q-133 0 -252 -58q-47 -24 -88 -58l-6 -5l-2 -2v-1h-1q-28 -28 -28 -68
q0 -21 8 -39l68 -151q68 -150 135 -300l68 -150h-21q-60 0 -111 -30l-165 -94q-7 -4 -16 -4h-32h-63h-31v1216h320q40 0 68 28t28 68t-28 68t-68 28h-832q-40 0 -68 -28t-28 -68t28 -68t68 -28h320v-1216h-126q-9 0 -16 4l-41 24q-41 23 -83 47l-41 24q-52 29 -111 29h-21
l271 601q8 18 8 39q0 40 -28 68l-68 -68l68 68h-1v1l-2 2l-6 5q-40 34 -88 58q-116 58 -259 58h-7q-133 0 -252 -58q-47 -24 -88 -58l-6 -5l-2 -2v-1h-1q-28 -28 -28 -68q0 -21 8 -39l68 -151q68 -150 135 -300l68 -150h-55q-40 0 -68 -28t-28 -68t28 -68t68 -28h286
q9 0 16 -4l41 -24q41 -23 83 -47l41 -24q52 -29 111 -29h126v-160q0 -40 28 -68t68 -28t68 28t28 68zM1497 1277q74 35 167 35t167 -35l-167 -371zM217 1277q74 35 167 35t167 -35l-167 -371z" />
</svg>
