<?xml version="1.0" standalone="no"?>
<!DOCTYPE svg PUBLIC "-//W3C//DTD SVG 1.1//EN" "http://www.w3.org/Graphics/SVG/1.1/DTD/svg11.dtd" >
<svg xmlns="http://www.w3.org/2000/svg" xmlns:xlink="http://www.w3.org/1999/xlink" version="1.1" width="2048" height="2048" viewBox="-10 0 2066 2048">
   <path fill="currentColor"
d="M1137 2q177 21 257 114q85 96 85 295q0 61 -20 211l-2 14h182q130 0 215 43q100 50 145 153q42 93 46 236t-22 319l-5 39q-25 191 -40 261q-29 140 -86 215q-35 46 -83 76t-111.5 44.5t-128 20t-155.5 5.5q-159 0 -291 -22.5t-272 -61.5q-17 -4 -60 -17
q-156 -43 -222 -53q-23 68 -82 111t-132 43h-128q-93 0 -159 -65.5t-66 -159.5v-963q0 -93 66 -158.5t159 -65.5h128q61 0 113 30.5t82 81.5q64 -27 117 -65q170 -125 170 -336v-64q0 -58 23 -112t62 -94t95 -61t120 -14zM580 1701q89 12 266 62l57 16q129 36 248.5 56
t262.5 20q111 0 179.5 -9.5t98 -23.5t47.5 -37q31 -40 51 -137q14 -65 38 -248l5 -39q44 -332 -9 -448q-16 -43 -56 -63q-46 -22 -129 -22h-225q-68 0 -115.5 -50t-38.5 -121q2 -17 9 -75q17 -126 17 -171q0 -126 -37 -169q-32 -37 -134 -49q-32 -3 -59 22t-27 68v64
q0 88 -21 167t-57.5 139t-78 104t-91.5 81q-93 68 -201 104v190v379v190zM355 828h-128q-13 0 -22.5 9.5t-9.5 22.5v963q0 13 9.5 22.5t22.5 9.5h128q13 0 22.5 -9.5t9.5 -22.5v-963q0 -13 -9.5 -22.5t-22.5 -9.5z" />
</svg>
