<?xml version="1.0" standalone="no"?>
<!DOCTYPE svg PUBLIC "-//W3C//DTD SVG 1.1//EN" "http://www.w3.org/Graphics/SVG/1.1/DTD/svg11.dtd" >
<svg xmlns="http://www.w3.org/2000/svg" xmlns:xlink="http://www.w3.org/1999/xlink" version="1.1" width="2048" height="2048" viewBox="-10 0 2066 2048">
   <path fill="currentColor"
d="M912 2046q-177 -20 -259 -113q-84 -98 -84 -295q0 -61 20 -211l2 -14h-183q-128 0 -213 -43q-102 -50 -147 -155q-41 -91 -45.5 -234.5t21.5 -319.5l5 -39q26 -192 40 -261q30 -141 87 -214q35 -47 82.5 -77t111.5 -45t128.5 -20t154.5 -5q161 0 293 22.5t271 60.5l61 17
q154 45 222 54q22 -68 81 -111t132 -43h128q94 0 159.5 65.5t65.5 159.5v963q0 94 -65.5 159.5t-159.5 65.5h-128q-61 0 -113 -30.5t-81 -81.5q-65 26 -118 65q-170 124 -170 336v64q0 57 -22.5 111.5t-61.5 94t-96 60.5t-119 14zM1468 347q-90 -12 -266 -62l-56 -16
q-130 -36 -249 -56t-264 -20q-110 0 -179 9.5t-98.5 23.5t-46.5 37q-30 39 -51 137q-13 66 -37 248l-6 38q-44 334 9 450q17 41 57 61q45 23 127 23h225q68 0 116 50.5t40 121.5q-3 19 -10 75q-17 124 -17 171q0 126 37 168q32 38 134 49q32 4 59 -22t27 -67v-64
q0 -89 21 -167.5t58 -138.5t78 -105t91 -81q93 -67 201 -103v-190v-380v-190zM1693 1220h128q14 0 23.5 -9.5t9.5 -22.5v-963q0 -14 -9.5 -23t-23.5 -9h-128q-13 0 -22.5 9t-9.5 23v963q0 13 9.5 22.5t22.5 9.5z" />
</svg>
