<?xml version="1.0" standalone="no"?>
<!DOCTYPE svg PUBLIC "-//W3C//DTD SVG 1.1//EN" "http://www.w3.org/Graphics/SVG/1.1/DTD/svg11.dtd" >
<svg xmlns="http://www.w3.org/2000/svg" xmlns:xlink="http://www.w3.org/1999/xlink" version="1.1" width="2048" height="2048" viewBox="-10 0 2068 2048">
   <path fill="currentColor"
d="M631 695q-10 -10 -10 -23t9.5 -22.5t22.5 -9.5h275v-544q0 -40 28 -68t68 -28t68 28t28 68v544h46h88h101h40q13 0 22.5 9.5t9.5 22.5t-10 23l-61 61l-120 120l-135 135l-54 54q-10 10 -23 10t-23 -10zM201.5 329.5q-9.5 9.5 -9.5 22.5v240v480v240q0 13 9.5 22.5
t22.5 9.5h1600q13 0 22.5 -9.5t9.5 -22.5v-960q0 -13 -9.5 -22.5t-22.5 -9.5h-384q-40 0 -68 -28t-28 -68t28 -68t68 -28h384q93 0 158.5 65.5t65.5 158.5v960q0 93 -65.5 158.5t-158.5 65.5h-477q9 98 49 182t116 171q24 27 24 63q0 40 -28 68t-68 28h-832q-40 0 -68 -28
t-28 -68q0 -36 24 -63q75 -87 115.5 -171t49.5 -182h-477q-93 0 -158.5 -65.5t-65.5 -158.5v-960q0 -93 65.5 -158.5t158.5 -65.5h384q40 0 68 28t28 68t-28 68t-68 28h-384q-13 0 -22.5 9.5zM894 1536q-12 171 -98 320h456q-86 -149 -98 -320q1 1 -64.5 1t-130.5 -1h-65z
" />
</svg>
