<?xml version="1.0" standalone="no"?>
<!DOCTYPE svg PUBLIC "-//W3C//DTD SVG 1.1//EN" "http://www.w3.org/Graphics/SVG/1.1/DTD/svg11.dtd" >
<svg xmlns="http://www.w3.org/2000/svg" xmlns:xlink="http://www.w3.org/1999/xlink" version="1.1" width="2048" height="2048" viewBox="-10 0 2058 2048">
   <path fill="currentColor"
d="M1024 2046q-97 0 -169.5 -64.5t-84.5 -159.5q-2 -13 7.5 -22.5t22.5 -9.5h447q13 0 22.5 9.5t7.5 22.5q-12 95 -84.5 159.5t-168.5 64.5zM385 640q0 -129 50.5 -247.5t136 -204.5t204 -136t248 -50t248 50t204 136t136 204.5t50.5 247.5v377q0 10 5 18l218 326
q33 49 33 107q0 81 -57 137.5t-137 56.5h-1401q-80 0 -137 -56.5t-57 -136.5q0 -59 33 -108l55 -81q54 -82 108 -163l55 -82q5 -8 5 -18v-94v-189v-94zM1023.5 193q-184.5 0 -316 131.5t-131.5 315.5v377q0 68 -38 123l-217 328v1v1h1v1h1h1401h1v-1h1v-1v-2l-54 -82
q-55 -81 -110 -163l-53 -81q-38 -56 -38 -123v-1v-94v-189v-94q0 -184 -131.5 -315.5t-316 -131.5z" />
</svg>
