<?xml version="1.0" standalone="no"?>
<!DOCTYPE svg PUBLIC "-//W3C//DTD SVG 1.1//EN" "http://www.w3.org/Graphics/SVG/1.1/DTD/svg11.dtd" >
<svg xmlns="http://www.w3.org/2000/svg" xmlns:xlink="http://www.w3.org/1999/xlink" version="1.1" width="2048" height="2048" viewBox="-10 0 2058 2048">
   <path fill="currentColor"
d="M264 733v291q0 30 34.5 69.5t115.5 78.5q184 91 463 106q38 2 64.5 29.5t26.5 65.5q0 40 -28 68t-68 28h-5q-319 -16 -538 -124q-33 -17 -65 -36v291q0 33 36 71q47 49 141 90q101 44 237 69.5t290 25.5q77 0 151 -7q7 -1 14 -1q40 0 68 28.5t28 68.5q0 38 -27 66t-65 30
q-84 7 -169 7q-172 0 -328 -29t-276 -82q-128 -57 -202 -133q-90 -94 -90 -204v-1152q0 -110 90 -204q74 -77 202 -133q120 -53 276 -82t328 -29t328 29t276 82q128 57 202 133q90 94 90 204t-90 204q-74 77 -202 133q-120 53 -276 82t-328 29t-328 -29t-276 -82
q-52 -23 -100 -52zM264 448q0 33 36 71q47 49 141 90q101 44 237 69.5t290 25.5t290 -25.5t237 -69.5q94 -41 141 -91q36 -37 36 -70t-36 -71q-47 -49 -141 -90q-101 -44 -237 -69.5t-290 -25.5t-290 25.5t-237 69.5q-94 41 -141 91q-36 37 -36 70zM1799 970l-99 438h228
q20 0 34 14t14 34q0 16 -10 29l-400 528q-14 19 -38 19q-20 0 -34 -14t-14 -34q0 -5 1 -10l79 -374h-272q-20 0 -34 -14t-14 -34q0 -17 10 -30l464 -592q15 -18 38 -18q20 0 34 14t14 34q0 5 -1 10z" />
</svg>
