<?xml version="1.0" standalone="no"?>
<!DOCTYPE svg PUBLIC "-//W3C//DTD SVG 1.1//EN" "http://www.w3.org/Graphics/SVG/1.1/DTD/svg11.dtd" >
<svg xmlns="http://www.w3.org/2000/svg" xmlns:xlink="http://www.w3.org/1999/xlink" version="1.1" width="2048" height="2048" viewBox="-10 0 2058 2048">
   <path fill="currentColor"
d="M954 11q34 -11 70 -11t70 11l172 56q172 55 344 109l172 55q70 23 115 83t45 136v461q0 354 -172 614q-203 311 -659 506q-41 17 -87 17t-87 -17q-456 -195 -659 -506q-172 -260 -172 -614v-461q0 -76 45 -136t115 -83zM1034 199q-5 -2 -10 -2t-10 2l-172 54
q-172 55 -344 111l-172 55q-23 7 -23 31v461q0 295 138 506q172 261 573 432q5 2 10 2t10 -2q401 -170 573 -432q138 -211 138 -506v-461q0 -24 -23 -31zM1122 616v394q0 41 -28.5 69.5t-69.5 28.5t-69.5 -28.5t-28.5 -69.5v-394q0 -41 28.5 -69.5t69.5 -28.5t69.5 28.5
t28.5 69.5zM1155 1370q0 54 -38.5 92.5t-92.5 38.5t-92.5 -38.5t-38.5 -92.5t38.5 -92.5t92.5 -38.5t92.5 38.5t38.5 92.5z" />
</svg>
