<?xml version="1.0" standalone="no"?>
<!DOCTYPE svg PUBLIC "-//W3C//DTD SVG 1.1//EN" "http://www.w3.org/Graphics/SVG/1.1/DTD/svg11.dtd" >
<svg xmlns="http://www.w3.org/2000/svg" xmlns:xlink="http://www.w3.org/1999/xlink" version="1.1" width="2048" height="2048" viewBox="-10 0 2068 2048">
   <path fill="currentColor"
d="M0 1024q0 -208 81 -397.5t218.5 -327t327 -218.5t397.5 -81t397.5 81t327 218.5t218.5 327t81 397.5t-81 397.5t-218.5 327t-327 218.5t-397.5 81t-397.5 -81t-327 -218.5t-218.5 -327t-81 -397.5zM192 1024q0 169 66 323t177.5 265.5t265.5 177.5t323 66t323 -66
t265.5 -177.5t177.5 -265.5t66 -323t-66 -323t-177.5 -265.5t-265.5 -177.5t-323 -66t-323 66t-265.5 177.5t-177.5 265.5t-66 323zM1508 804l-576 576q-28 28 -68 28t-68 -28l-64 -64l-128 -128l-64 -64q-26 -28 -26 -66q0 -39 28.5 -67.5t67.5 -28.5q38 0 66 26l47 47
l94 94l47 47l508 -508q28 -26 66 -26q39 0 67.5 28.5t28.5 67.5q0 38 -26 66z" />
</svg>
