<?xml version="1.0" standalone="no"?>
<!DOCTYPE svg PUBLIC "-//W3C//DTD SVG 1.1//EN" "http://www.w3.org/Graphics/SVG/1.1/DTD/svg11.dtd" >
<svg xmlns="http://www.w3.org/2000/svg" xmlns:xlink="http://www.w3.org/1999/xlink" version="1.1" width="2048" height="2048" viewBox="-10 0 2068 2048">
   <path fill="currentColor"
d="M137 171h546q56 0 96 40t40 96v546q0 57 -40 97t-96 40h-546q-57 0 -97 -40t-40 -97v-546q0 -56 40 -96t97 -40zM772 1344q30 30 30 72.5t-30 72.5l-358 358q-30 30 -72.5 30t-72.5 -30l-51 -51q-52 -51 -103 -102l-51 -51q-33 -31 -33 -75q0 -36 22 -63.5t56 -35.5
q13 -3 25 -3q44 0 75 32l132 132l286 -286q30 -30 72.5 -30t72.5 30zM1195 239h751q42 0 72 30t30 72.5t-30 72.5t-72 30h-751q-43 0 -73 -30t-30 -72.5t30 -72.5t73 -30zM1195 922h751q42 0 72 29.5t30 72.5t-30 72.5t-72 29.5h-751q-43 0 -73 -29.5t-30 -72.5t30 -72.5
t73 -29.5zM1195 1604h751q42 0 72 30t30 72.5t-30 72.5t-72 30h-751q-43 0 -73 -30t-30 -72.5t30 -72.5t73 -30zM205 375v410h409v-410h-409z" />
</svg>
