<?xml version="1.0" standalone="no"?>
<!DOCTYPE svg PUBLIC "-//W3C//DTD SVG 1.1//EN" "http://www.w3.org/Graphics/SVG/1.1/DTD/svg11.dtd" >
<svg xmlns="http://www.w3.org/2000/svg" xmlns:xlink="http://www.w3.org/1999/xlink" version="1.1" width="2048" height="2048" viewBox="-10 0 2068 2048">
   <path fill="currentColor"
d="M1227 67l119 87q30 21 66 27l146 23q110 16 190 96t96 190l6 36q5 37 11 74l6 36q5 36 27 66l87 119q67 90 67 203t-67 203l-21 29l-44 60l-22 30q-22 29 -27 66l-5 36q-6 37 -12 73l-6 37q-17 110 -96.5 190t-189.5 96l-36 6q-37 6 -74 11l-36 6q-37 5 -66 27l-30 22
q-30 22 -59 44l-30 21q-91 67 -203 67q-113 0 -203 -67l-29 -21l-60 -44l-30 -22q-30 -22 -66 -27l-36 -5q-37 -6 -73 -12l-37 -6q-110 -16 -190 -96t-96 -190l-6 -36q-6 -37 -11 -73l-6 -37q-5 -36 -27 -66l-22 -30q-22 -29 -44 -59l-21 -30q-67 -90 -67 -203
q0 -112 67 -203q0 1 21.5 -29t43.5 -60l22 -30q21 -29 27 -66l23 -146q16 -110 96 -190t190 -96l36 -6q37 -6 74 -11l36 -6q36 -6 66 -27l119 -87q90 -67 203 -67t203 67zM935 221l-119 87q-68 50 -151 63l-36 5q-36 6 -73 11l-36 6q-49 8 -84 43t-43 83l-5 37q-6 36 -11 72
l-6 37q-13 83 -63 151l-22 30q-21 29 -43 59l-22 30q-29 39 -29 89q0 49 29 89l22 29l44 60l21 30q50 68 63 151l22 145q8 49 43 84t84 43l145 22q83 13 151 63q0 -1 29.5 21t59.5 44l30 22q40 29 89 29t89 -29l119 -87q68 -50 151 -63l36 -5q36 -6 73 -12l36 -5
q49 -8 84 -43t43 -84l5 -36q6 -36 11 -73l6 -36q13 -83 63 -151l22 -30q21 -29 43 -59l22 -30q29 -40 29 -89q0 -50 -29 -89l-22 -30q-22 -30 -44 -59l-21 -30q-50 -68 -63 -151l-5 -37l-12 -72l-5 -37q-8 -48 -43 -83t-84 -43q1 0 -35.5 -5.5t-73.5 -11.5l-36 -5
q-83 -13 -151 -63l-30 -22q-29 -21 -59 -43l-30 -22q-39 -29 -89 -29t-89 29zM1444 868l-480 480q-28 28 -68 28t-68 -28l-56 -56l-112 -112l-56 -56q-26 -28 -26 -66q0 -39 28.5 -67.5t67.5 -28.5q38 0 66 26l39 39l78 78l39 39l412 -412q28 -26 66 -26q39 0 67.5 28.5
t28.5 67.5q0 38 -26 66z" />
</svg>
