<?xml version="1.0" standalone="no"?>
<!DOCTYPE svg PUBLIC "-//W3C//DTD SVG 1.1//EN" "http://www.w3.org/Graphics/SVG/1.1/DTD/svg11.dtd" >
<svg xmlns="http://www.w3.org/2000/svg" xmlns:xlink="http://www.w3.org/1999/xlink" version="1.1" width="2048" height="2048" viewBox="-10 0 2068 2048">
   <path fill="currentColor"
d="M1024 0q208 0 397.5 81t327 218.5t218.5 327t81 397.5t-81 397.5t-218.5 327t-327 218.5t-397.5 81t-397.5 -81t-327 -218.5t-218.5 -327t-81 -397.5t81 -397.5t218.5 -327t327 -218.5t397.5 -81zM192 1024q0 169 66 323t177.5 265.5t265.5 177.5t323 66t323 -66
t265.5 -177.5t177.5 -265.5t66 -323t-66 -323t-177.5 -265.5t-265.5 -177.5t-323 -66t-323 66t-265.5 177.5t-177.5 265.5t-66 323zM681 1233q25 -17 55 -17q49 0 78 40l1 1q20 23 45 40q70 47 164 47t164 -47q25 -17 45 -40l1 -1q29 -41 78 -41q40 0 68 28.5t28 67.5
q0 31 -17 56l-3 -2l2 2v1l-1 1l-1 2q-11 15 -24 28q-31 32 -68 56q-124 83 -272 81q-153 0 -272 -81q-52 -35 -92 -84l-1 -2l-1 -1v-1l78 -55l-79 55q-17 -25 -17 -55q0 -50 41 -79zM1536 896q0 53 -37.5 90.5t-90.5 37.5t-90.5 -37.5t-37.5 -90.5t37.5 -90.5t90.5 -37.5
t90.5 37.5t37.5 90.5zM640 1024q-53 0 -90.5 -37.5t-37.5 -90.5t37.5 -90.5t90.5 -37.5t90.5 37.5t37.5 90.5t-37.5 90.5t-90.5 37.5zM1312 1312l76 53q-38 -26 -76 -53z" />
</svg>
