<?xml version="1.0" standalone="no"?>
<!DOCTYPE svg PUBLIC "-//W3C//DTD SVG 1.1//EN" "http://www.w3.org/Graphics/SVG/1.1/DTD/svg11.dtd" >
<svg xmlns="http://www.w3.org/2000/svg" xmlns:xlink="http://www.w3.org/1999/xlink" version="1.1" width="2048" height="2048" viewBox="-10 0 2068 2048">
   <path fill="currentColor"
d="M821 67q90 -67 203 -67t203 67l29 21l60 44l30 22q29 21 66 27l146 23q110 16 189.5 96t96.5 190l6 36q6 37 11 73l6 37q6 37 27 66l87 119q67 90 67 203q0 112 -67 203q0 -1 -21.5 29t-43.5 60l-22 30q-21 29 -27 66l-5 36q-6 37 -12 73l-6 37q-16 110 -96 189.5
t-190 96.5l-36 6q-37 5 -74 11l-36 6q-37 5 -66 27l-30 22q-30 22 -59 44l-30 21q-90 67 -203 67t-203 -67l-29 -21l-60 -44l-30 -22q-29 -22 -66 -27l-36 -5q-37 -6 -73 -12l-37 -6q-110 -16 -190 -96t-96 -190l-6 -36q-6 -37 -11 -73l-6 -37q-6 -36 -27 -66l-22 -30
q-22 -29 -44 -59l-21 -30q-67 -90 -67 -203q0 -112 67 -203q0 1 21.5 -29t43.5 -60l22 -30q22 -29 27 -66l5 -36q6 -37 12 -73l6 -37q16 -110 96 -190t190 -96l36 -6q37 -6 73 -11l37 -6q37 -6 66 -27zM1113 221q-40 -29 -89 -29t-89 29l-29 22l-60 44l-30 21
q-68 50 -151 63l-36 5q-36 6 -73 12l-36 5q-49 8 -84 43t-43 84q0 -1 -5.5 35.5t-10.5 73.5l-6 36q-13 83 -63 151l-22 30q-21 29 -43 59l-22 30q-29 40 -29 89t29 89l87 119q50 68 63 151l22 145q8 49 43 84t84 43l145 22q83 13 151 63l119 87q40 29 89 29t89 -29l119 -87
q68 -50 151 -63l36 -5q36 -6 73 -12l36 -5q49 -8 84 -43t43 -84l22 -145q13 -83 63 -151l87 -119q29 -40 29 -89t-29 -89l-87 -119q-50 -68 -63 -151l-5 -36q-6 -36 -12 -73l-5 -36q-8 -49 -43 -84t-84 -43q1 0 -35.5 -5.5t-73.5 -10.5l-36 -6q-83 -13 -151 -63l-30 -22
q-29 -21 -59 -43zM886 779q-12 24 -35 38t-51 14q-39 0 -67.5 -28t-28.5 -68q0 -22 10 -42q39 -79 109 -125q84 -56 201 -56h2q115 0 208 67q50 38 80 94.5t30 126.5q0 84 -42 147q-31 46 -89 85q-8 6 -40 25h-1q-16 10 -33 21q-21 12 -35 31q-29 42 -79 42q-40 0 -68 -28
t-28 -68q0 -28 15 -52q36 -51 89 -85q12 -8 40 -25h1q25 -16 33 -21q20 -12 35 -31q10 -15 10 -41v-3q0 -41 -34 -64q-41 -29 -92 -29h-1h-1q-59 0 -95 24q-28 20 -43 51zM1152 1408q0 53 -37.5 90.5t-90.5 37.5t-90.5 -37.5t-37.5 -90.5t37.5 -90.5t90.5 -37.5t90.5 37.5
t37.5 90.5z" />
</svg>
