<?xml version="1.0" standalone="no"?>
<!DOCTYPE svg PUBLIC "-//W3C//DTD SVG 1.1//EN" "http://www.w3.org/Graphics/SVG/1.1/DTD/svg11.dtd" >
<svg xmlns="http://www.w3.org/2000/svg" xmlns:xlink="http://www.w3.org/1999/xlink" version="1.1" width="2048" height="2048" viewBox="-10 0 2058 2048">
   <path fill="currentColor"
d="M1433.5 2048q-84.5 0 -144.5 -60t-60 -145t60 -145t144.5 -60t144.5 60t60 145t-60 145t-144.5 60zM1433.5 1229q-84.5 0 -144.5 -60t-60 -145t60 -145t144.5 -60t144.5 60t60 145t-60 145t-144.5 60zM614.5 2048q-84.5 0 -144.5 -60t-60 -145t60 -145t144.5 -60
t144.5 60t60 145t-60 145t-144.5 60zM1638 205q0 85 -60 145t-144.5 60t-144.5 -60t-60 -145t60 -145t144.5 -60t144.5 60t60 145zM819 1024q0 85 -60 145t-144.5 60t-144.5 -60t-60 -145t60 -145t144.5 -60t144.5 60t60 145zM614.5 410q-84.5 0 -144.5 -60t-60 -145
t60 -145t144.5 -60t144.5 60t60 145t-60 145t-144.5 60z" />
</svg>
