<?xml version="1.0" standalone="no"?>
<!DOCTYPE svg PUBLIC "-//W3C//DTD SVG 1.1//EN" "http://www.w3.org/Graphics/SVG/1.1/DTD/svg11.dtd" >
<svg xmlns="http://www.w3.org/2000/svg" xmlns:xlink="http://www.w3.org/1999/xlink" version="1.1" width="2048" height="2048" viewBox="-10 0 2068 2048">
   <path fill="currentColor"
d="M256 0h1536q106 0 181 75t75 181v1536q0 106 -75 181t-181 75h-1536q-106 0 -181 -75t-75 -181v-1536q0 -106 75 -181t181 -75zM219 256v1536q0 15 11 26t26 11h1536q15 0 26 -11t11 -26v-1536q0 -15 -11 -26t-26 -11h-1536q-15 0 -26 11t-11 26zM1577 773l-658 658
q-32 32 -78 32t-78 -32l-73 -73t-146 -147l-73 -73q-30 -32 -30 -75q0 -45 32.5 -77.5t77.5 -32.5q43 0 75 30l54 54q54 53 107 107l54 54l581 -581q32 -30 75 -30q45 0 77.5 33t32.5 77t-30 76z" />
</svg>
