<?xml version="1.0" standalone="no"?>
<!DOCTYPE svg PUBLIC "-//W3C//DTD SVG 1.1//EN" "http://www.w3.org/Graphics/SVG/1.1/DTD/svg11.dtd" >
<svg xmlns="http://www.w3.org/2000/svg" xmlns:xlink="http://www.w3.org/1999/xlink" version="1.1" width="2048" height="2048" viewBox="-10 0 2068 2048">
   <path fill="currentColor"
d="M823.5 144.5q32.5 32.5 32.5 79t-32 79.5l-442 442h959q192 0 354.5 94.5t257.5 257.5t95 355v373q0 46 -32.5 78.5t-79 32.5t-79 -32.5t-32.5 -78.5v-373q0 -200 -142 -342t-342 -142h-959l442 442q36 34 36 82q0 39 -24 69t-61 39q-14 3 -28 3q-48 0 -81 -34l-633 -633
q-33 -33 -33 -79.5t33 -79.5l633 -633q32 -32 78.5 -32t79 32.5z" />
</svg>
