<?xml version="1.0" standalone="no"?>
<!DOCTYPE svg PUBLIC "-//W3C//DTD SVG 1.1//EN" "http://www.w3.org/Graphics/SVG/1.1/DTD/svg11.dtd" >
<svg xmlns="http://www.w3.org/2000/svg" xmlns:xlink="http://www.w3.org/1999/xlink" version="1.1" width="2048" height="2048" viewBox="-10 0 2068 2048">
   <path fill="currentColor"
d="M256 928v-3q0 -136 53 -260t142.5 -213.5t213.5 -142.5t260 -53h1h2h4q198 0 361.5 106.5t244.5 281.5q106 11 200 60.5t162 124.5t107.5 175t39.5 209l1 1v2q0 118 -45.5 225t-122 183.5t-183.5 122t-225 45.5h-1024h-3q-91 0 -173 -35t-142 -95t-95 -142t-35 -173v-1
v-2q0 -134 70 -243t186 -163v-10zM453 990q1 6 1 13q0 33 -20.5 59t-51.5 34q-84 22 -137 90t-53 158q0 108 74 182t182 74h1024q161 0 272.5 -111.5t111.5 -272.5t-111.5 -272.5t-272.5 -111.5q-31 0 -56 -18t-35 -47q-49 -141 -172.5 -230t-277.5 -89h-1h-2
q-99 0 -188 37.5t-153 101.5t-101.5 153t-37.5 188q0 28 4 56l1 4v1v1z" />
</svg>
