<?xml version="1.0" standalone="no"?>
<!DOCTYPE svg PUBLIC "-//W3C//DTD SVG 1.1//EN" "http://www.w3.org/Graphics/SVG/1.1/DTD/svg11.dtd" >
<svg xmlns="http://www.w3.org/2000/svg" xmlns:xlink="http://www.w3.org/1999/xlink" version="1.1" width="2048" height="2048" viewBox="-10 0 2068 2048">
   <path fill="currentColor"
d="M928 159q1 0 2 -1h1q199 0 362.5 107t244.5 282q106 11 200.5 60.5t162.5 124.5t107.5 175t39.5 209v3v1v2q0 206 -131 365q-29 33 -72 33q-40 0 -68 -28t-28 -68q0 -33 20 -59q87 -106 87 -244v-2q0 -161 -111.5 -272.5t-272.5 -111.5q-31 0 -56 -18t-35 -47
q-49 -141 -172 -230t-277 -89h-4q-94 0 -180 34q-17 7 -35 7q-40 0 -68 -28.5t-28 -67.5q0 -30 16.5 -54.5t44.5 -35.5q119 -47 250 -47zM92 123q28 -28 68 -28t68 28l74 74l148 148l74 74q5 4 10 10l1092 1092l4 5l262 261q31 29 31 70q0 34 -20.5 59.5t-52.5 33.5
q-12 3 -24 3q-41 0 -70 -30l-230 -230q-27 2 -54 2h-1024h-3q-91 0 -173 -35t-142 -95t-95 -142t-35 -173v-1v-2q0 -134 70 -243t186 -163v-13q0 -172 83 -322l-62 -62l-123 -123l-62 -62q-28 -28 -28 -68t28 -68zM448 831q1 31 5 62q1 6 1 13q0 34 -20.5 59.5t-51.5 33.5
q-84 22 -137 90t-53 158q0 108 74 182t182 74h888l-853 -854q-35 87 -35 180v1v1z" />
</svg>
