<?xml version="1.0" standalone="no"?>
<!DOCTYPE svg PUBLIC "-//W3C//DTD SVG 1.1//EN" "http://www.w3.org/Graphics/SVG/1.1/DTD/svg11.dtd" >
<svg xmlns="http://www.w3.org/2000/svg" xmlns:xlink="http://www.w3.org/1999/xlink" version="1.1" width="2048" height="2048" viewBox="-10 0 2068 2048">
   <path fill="currentColor"
d="M1030 257q215 -158 426 -159h2q120 0 228 45.5t190 127.5q87 87 127 183q45 107 45 252q0 348 -395 750q-88 90 -202 187.5t-178.5 147t-162.5 122.5l-29 20q-25 19 -57 19t-57 -19l-7 -5l-14 -10l-8 -5q-98 -73 -162.5 -122.5t-178.5 -147t-202 -187.5
q-394 -401 -395 -748v-19q0 -120 45.5 -228t127.5 -190q84 -83 197 -127.5t229 -46.5t230.5 39t200.5 121zM883 383q-79 -65 -185.5 -85.5t-211 8.5t-177.5 101q-55 55 -86 128t-31 154v17q0 270 340 616q177 181 492 415q90 -67 152 -116l-169 -156q-31 -29 -31 -71
q0 -40 28 -68t68 -28q37 0 65 26l47 43q48 44 95 88l47 43q68 -58 126 -113l-173 -160q-31 -29 -31 -71q0 -40 28 -68t68 -28q38 0 65 25l45 41l88 82l44 41q58 -64 104 -127l-36 -36l-150 -150q-64 -64 -157 -63.5t-159 67.5q-49 49 -103 102q-86 84 -205 82t-203 -86
q-44 -45 -133 -134q-28 -28 -28 -68q0 -35 23 -62q20 -24 66 -80q174 -210 278 -309zM1793 951q63 -130 63 -245q0 -107 -30 -177q-25 -62 -86 -122q-55 -55 -128 -86t-154 -31h-2q-190 1 -413 205q-49 45 -104.5 105t-88.5 99t-92 110l-16 19l72 73q28 29 69 29
q39 0 67 -27l26 -25l50 -50l26 -26q79 -79 185.5 -108.5t214.5 -2.5t188 107l150 150z" />
</svg>
