<?xml version="1.0" standalone="no"?>
<!DOCTYPE svg PUBLIC "-//W3C//DTD SVG 1.1//EN" "http://www.w3.org/Graphics/SVG/1.1/DTD/svg11.dtd" >
<svg xmlns="http://www.w3.org/2000/svg" xmlns:xlink="http://www.w3.org/1999/xlink" version="1.1" width="2048" height="2048" viewBox="-10 0 2068 2048">
   <path fill="currentColor"
d="M224 64h1600q93 0 158.5 65.5t65.5 158.5v1088q0 93 -65.5 158.5t-158.5 65.5h-792l-330 329q-54 55 -131 55t-132 -54.5t-55 -131.5v-50v-99v-49h-160q-93 0 -158.5 -65.5t-65.5 -158.5v-1088q0 -93 65.5 -158.5t158.5 -65.5zM192 288v1088q0 13 9.5 22.5t22.5 9.5h256
q40 0 68 28t28 68v280l348 -348q28 -28 68 -28h208h416h208q13 0 22.5 -9.5t9.5 -22.5v-1088q0 -13 -9.5 -22.5t-22.5 -9.5h-1600q-13 0 -22.5 9.5t-9.5 22.5zM868 508q28 28 28 68t-28 68l-47 47l-94 94l-47 47l188 188q26 28 26 66q0 39 -28.5 67.5t-67.5 28.5
q-38 0 -66 -26l-64 -64l-128 -128l-64 -64q-28 -28 -28 -68t28 -68l64 -64l128 -128l64 -64q28 -28 68 -28t68 28zM1180 508q28 -28 68 -28t68 28l64 64l128 128l64 64q28 28 28 68t-28 68l-64 64l-128 128l-64 64q-28 26 -66 26q-39 0 -67.5 -28.5t-28.5 -67.5
q0 -38 26 -66l47 -47l94 -94l47 -47l-188 -188q-28 -28 -28 -68t28 -68z" />
</svg>
