<?xml version="1.0" standalone="no"?>
<!DOCTYPE svg PUBLIC "-//W3C//DTD SVG 1.1//EN" "http://www.w3.org/Graphics/SVG/1.1/DTD/svg11.dtd" >
<svg xmlns="http://www.w3.org/2000/svg" xmlns:xlink="http://www.w3.org/1999/xlink" version="1.1" width="2048" height="2048" viewBox="-10 0 2068 2048">
   <path fill="currentColor"
d="M0 224q0 -93 65.5 -158.5t158.5 -65.5h1600q93 0 158.5 65.5t65.5 158.5v1600q0 93 -65.5 158.5t-158.5 65.5h-1600q-93 0 -158.5 -65.5t-65.5 -158.5v-1600zM224 192q-13 0 -22.5 9.5t-9.5 22.5v1600q0 13 9.5 22.5t22.5 9.5h1600q13 0 22.5 -9.5t9.5 -22.5v-1600
q0 -13 -9.5 -22.5t-22.5 -9.5h-1600zM1180 700q28 -28 68 -28t68 28l64 64l128 128l64 64q28 28 28 68t-28 68l-64 64l-128 128l-64 64q-29 31 -70 31q-34 0 -59.5 -20.5t-33.5 -52.5q-3 -12 -3 -24q0 -41 30 -70l188 -188l-188 -188q-28 -28 -28 -68t28 -68zM868 836
l-188 188l188 188q31 29 31 70q0 34 -20.5 59.5t-52.5 33.5q-12 3 -24 3q-41 0 -70 -30l-256 -256q-28 -28 -28 -68t28 -68l64 -64l128 -128l64 -64q28 -26 66 -26q39 0 67.5 28.5t28.5 67.5q0 38 -26 66z" />
</svg>
