<?xml version="1.0" standalone="no"?>
<!DOCTYPE svg PUBLIC "-//W3C//DTD SVG 1.1//EN" "http://www.w3.org/Graphics/SVG/1.1/DTD/svg11.dtd" >
<svg xmlns="http://www.w3.org/2000/svg" xmlns:xlink="http://www.w3.org/1999/xlink" version="1.1" width="2048" height="2048" viewBox="-10 0 2068 2048">
   <path fill="currentColor"
d="M1082 636q28 -28 68 -28t68 28l43 43q26 26 82 82.5t93 93.5l38 37q28 28 28 68t-28 67l-256 256q-29 30 -70 30q-40 0 -68 -28t-28 -68q0 -41 30 -70l188 -187l-31.5 -31.5l-60.5 -60.5t-68 -69l-28 -27q-28 -28 -28 -68t28 -68zM835 772l-188 188l188 187q30 29 30 70
q0 40 -28 68t-68 28q-41 0 -70 -30l-19.5 -19.5l-46 -46l-63 -63t-60 -60.5t-48.5 -49l-19 -18q-28 -27 -28 -67t28 -68l43 -43q26 -26 82.5 -82t93.5 -93l37 -38q28 -26 66 -26q39 0 67.5 28.5t28.5 67.5q0 38 -26 66zM1565 1702q-126 103 -281.5 159.5t-324.5 56.5
q-130 0 -254.5 -34.5t-229.5 -96.5t-193.5 -150t-150.5 -193.5t-96.5 -230t-34.5 -254.5t34.5 -254.5t96.5 -229.5t150.5 -193.5t193.5 -150t229.5 -96.5t254.5 -35t254.5 35t229.5 96.5t193.5 150t150.5 193.5t96.5 229.5t34.5 255.5q0 168 -57 324t-160 283l316 315
q31 29 31 70q0 34 -20.5 59.5t-52.5 33.5q-12 3 -24 3q-41 0 -70 -30zM192 960q0 232 127 422.5t334 281.5q145 62 305 62q149 0 284 -54t240 -151q13 -25 37 -38q98 -105 152 -240t54 -283q0 -156 -60.5 -298t-163 -244.5t-245 -163.5t-298 -61t-298 61t-244.5 163
t-163 244.5t-61 298.5z" />
</svg>
