<?xml version="1.0" standalone="no"?>
<!DOCTYPE svg PUBLIC "-//W3C//DTD SVG 1.1//EN" "http://www.w3.org/Graphics/SVG/1.1/DTD/svg11.dtd" >
<svg xmlns="http://www.w3.org/2000/svg" xmlns:xlink="http://www.w3.org/1999/xlink" version="1.1" width="2048" height="2048" viewBox="-10 0 2068 2048">
   <path fill="currentColor"
d="M1314 803l-74 75q-47 46 -145 144l-163 163l-65 66q-28 28 -68 28t-68 -28l-192 -192q-26 -28 -26 -66q0 -39 28.5 -67.5t67.5 -28.5q38 0 66 26l124 124l379 -379q29 -30 70 -30q40 0 68 27.5t28 67.5q0 41 -30 70zM959 1918q-130 0 -254.5 -34.5t-230 -96.5
t-193.5 -150.5t-150 -193.5t-96.5 -229.5t-34.5 -254.5t34.5 -254t96.5 -229.5t150 -194t193.5 -150.5t230 -96.5t254 -34.5t254 34.5t230 96.5t193.5 150.5t150 194t96.5 229.5t34.5 254q0 170 -56.5 325t-159.5 281l79 80l158 158l79 79q31 29 31 70q0 34 -20.5 59.5
t-52.5 33.5q-12 3 -24 3q-41 0 -70 -30l-316 -317q-126 104 -281 160.5t-323 56.5h-1h-1zM959 192q-208 0 -385 103t-279.5 279.5t-102.5 384.5t102.5 384.5t279.5 279.5t385 103q148 0 283 -54.5t240 -152.5q13 -24 38 -37q98 -105 151.5 -239.5t53.5 -283.5
q0 -160 -62 -305q-91 -207 -281.5 -334.5t-422.5 -127.5z" />
</svg>
