<?xml version="1.0" standalone="no"?>
<!DOCTYPE svg PUBLIC "-//W3C//DTD SVG 1.1//EN" "http://www.w3.org/Graphics/SVG/1.1/DTD/svg11.dtd" >
<svg xmlns="http://www.w3.org/2000/svg" xmlns:xlink="http://www.w3.org/1999/xlink" version="1.1" width="2048" height="2048" viewBox="-10 0 2068 2048">
   <path fill="currentColor"
d="M0 1023.5q0 -26.5 19 -45t45 -18.5h427q26 0 45 18.5t19 45t-19 45.5t-45 19h-427q-26 0 -45 -19t-19 -45.5zM1493 1023.5q0 -26.5 19 -45t45 -18.5h427q26 0 45 18.5t19 45t-19 45.5t-45 19h-427q-26 0 -45 -19t-19 -45.5zM1024 1536q-104 0 -199 -40.5t-163.5 -109.5
t-109 -163.5t-40.5 -198.5t40.5 -199t109 -163.5t163.5 -109t199 -40.5t199 40.5t163.5 109t109 163.5t40.5 199t-40.5 198.5t-109 163.5t-163.5 109.5t-199 40.5zM1024 1408q104 0 192.5 -51.5t140 -140t51.5 -193t-51.5 -193t-140 -139.5t-192.5 -51t-192.5 51t-140 139.5
t-51.5 193t51.5 193t140 140t192.5 51.5z" />
</svg>
