<?xml version="1.0" standalone="no"?>
<!DOCTYPE svg PUBLIC "-//W3C//DTD SVG 1.1//EN" "http://www.w3.org/Graphics/SVG/1.1/DTD/svg11.dtd" >
<svg xmlns="http://www.w3.org/2000/svg" xmlns:xlink="http://www.w3.org/1999/xlink" version="1.1" width="2048" height="2048" viewBox="-10 0 2068 2048">
   <path fill="currentColor"
d="M800 1154q40 0 68 28t28 68v192q0 40 -28 68t-68 28t-68 -28t-28 -68v-192q0 -40 28 -68t68 -28zM1344 1250v192q0 40 -28 68t-68 28t-68 -28t-28 -68v-192q0 -40 28 -68t68 -28t68 28t28 68zM1006 229q10 11 18 21q8 -10 18 -21q118 -127 377 -98q242 26 348 161
q89 112 89 318q0 130 -33 212l22 107l8 4q88 44 141.5 128.5t53.5 186.5v162q0 36 -20 73q-14 24 -33 46q-30 35 -78 75t-101 76l-2 1l-1 1l-3 2q-29 19 -59 36q-77 45 -165 82q-282 120 -562 120t-562 -120q-85 -36 -165 -82q-30 -17 -59 -36l-3 -2l-1 -1l-2 -1
q-53 -36 -101 -76q-42 -34 -78 -74q-19 -22 -33 -47q-19 -34 -20 -73v-40v-81v-41q0 -102 53.5 -186.5t141.5 -128.5l8 -4l22 -107q-33 -82 -33 -212q0 -206 89 -318q106 -135 348 -161q259 -29 377 98zM384 1003v546l5 3q3 1 3 2q68 39 145 72q247 104 487 104
q241 0 486 -104q79 -34 154 -77v-545l-3 -15q-87 37 -221 37q-223 0 -347 -127q-41 -42 -69 -95q-29 54 -69 95q-124 127 -347 127q-134 0 -221 -37zM1182 360q-50 53 -31 206q17 135 79 199q68 69 210 69q141 0 185 -49q39 -44 39 -175q0 -139 -47 -199q-56 -71 -219 -90
q-163 -18 -216 39zM866 360q-53 -57 -215 -39q-163 19 -220 90q-47 60 -47 199q0 131 40 175q43 49 184 49q142 0 210 -69q62 -64 79 -199q19 -153 -31 -206z" />
</svg>
