<?xml version="1.0" standalone="no"?>
<!DOCTYPE svg PUBLIC "-//W3C//DTD SVG 1.1//EN" "http://www.w3.org/Graphics/SVG/1.1/DTD/svg11.dtd" >
<svg xmlns="http://www.w3.org/2000/svg" xmlns:xlink="http://www.w3.org/1999/xlink" version="1.1" width="2048" height="2048" viewBox="-10 0 2068 2048">
   <path fill="currentColor"
d="M111 355l1897 1373q11 8 24 12q16 24 16 53q0 40 -28.5 68t-68.5 28q-30 0 -55 -17l-181 -131q-63 33 -129 61q-282 120 -562 120q-279 0 -562 -120q-110 -46 -211 -110q0 1 -3 -1.5t-7 -4.5l-3 -2l-3 -2l-1 -1l-2 -1q-53 -36 -101 -76q-42 -34 -78 -75q-19 -21 -33 -46
q-19 -34 -20 -73v-40v-81v-41q0 -102 53.5 -186.5t141.5 -128.5l8 -4l22 -107q-30 -74 -33 -184l-152 -110q-40 -29 -40 -78q0 -40 28 -68t68 -28q7 0 15 1zM1006 229q10 11 18 21q8 -10 18 -21q118 -127 377 -98q242 26 348 161q89 112 89 318q0 130 -33 212l22 107l8 4
q88 44 141.5 128.5t53.5 186.5v162q0 36 -20 73q-4 8 -10 16l-354 -257v-239l-3 -14q-87 37 -221 37q-42 0 -81 -5l-486 -351q16 -45 24 -104q19 -153 -31 -206q-53 -57 -215 -39q-121 14 -183 56l-160 -116q107 -107 322 -130q258 -29 376 98zM608 1026q-134 0 -221 -37
l-3 15v545q75 43 154 77q245 104 486 104q240 0 487 -104q19 -9 28 -13l-823 -595q-52 8 -106 8h-1h-1zM1182 360q-50 53 -31 206q17 135 79 199q68 69 210 69q141 0 185 -49q39 -44 39 -175q0 -139 -47 -199q-57 -71 -220 -90q-162 -18 -215 39z" />
</svg>
