<?xml version="1.0" standalone="no"?>
<!DOCTYPE svg PUBLIC "-//W3C//DTD SVG 1.1//EN" "http://www.w3.org/Graphics/SVG/1.1/DTD/svg11.dtd" >
<svg xmlns="http://www.w3.org/2000/svg" xmlns:xlink="http://www.w3.org/1999/xlink" version="1.1" width="2048" height="2048" viewBox="-10 0 2068 2048">
   <path fill="currentColor"
d="M1027 168q10 11 18 21q8 -10 18 -21q121 -130 385 -100q247 26 355 164q91 114 91 324q0 105 -20 178q-86 -52 -183 -81q7 -40 7 -97q0 -142 -48 -203q-58 -72 -224 -92q-166 -18 -220 40q-51 54 -31 210q12 92 43 151q-115 40 -212.5 111.5t-168.5 169.5q-94 38 -217 38
q-136 0 -225 -38l-3 14v558l5 2.5t3 2.5q155 87 327 134q40 123 119 226q-194 -30 -375 -107q-86 -37 -168 -84q-31 -17 -60 -37l-3 -2l-1 -1l-2 -1q-54 -37 -103 -77q-43 -35 -80 -76q-19 -22 -34 -48q-19 -35 -20 -74v-42v-82v-42q0 -104 54.5 -190t144.5 -131l8 -4
l23 -109q-34 -84 -34 -217q0 -210 91 -324q108 -138 355 -164q264 -30 385 100zM884 301q-54 -58 -220 -40q-166 20 -224 92q-48 61 -48 203q0 134 41 179q44 50 187 50q145 0 215 -71q63 -65 80 -203q20 -156 -31 -210zM1110 1871q-110 -83 -173.5 -206.5t-63.5 -265.5
q0 -119 46.5 -228t125 -188t188 -125.5t228.5 -46.5q102 0 196.5 34t171.5 95q102 83 160.5 202t58.5 256q0 120 -47 228.5t-125.5 187t-187 125.5t-228.5 47q-194 0 -350 -115zM1371 1079v294q0 40 29 69t69.5 29t69 -29t28.5 -69v-294q0 -41 -28.5 -69.5t-69 -28.5
t-69.5 28.5t-29 69.5zM1469.5 1830q54.5 0 92.5 -38.5t38 -92.5t-38.5 -92t-92.5 -38t-92 38t-38 92t38 92.5t92.5 38.5z" />
</svg>
