<?xml version="1.0" standalone="no"?>
<!DOCTYPE svg PUBLIC "-//W3C//DTD SVG 1.1//EN" "http://www.w3.org/Graphics/SVG/1.1/DTD/svg11.dtd" >
<svg xmlns="http://www.w3.org/2000/svg" xmlns:xlink="http://www.w3.org/1999/xlink" version="1.1" width="2048" height="2048" viewBox="-10 0 2068 2048">
   <path fill="currentColor"
d="M832 96v160h384v-160q0 -40 28 -68t68 -28t68 28t28 68v160h160q93 0 158.5 65.5t65.5 158.5v160h160q40 0 68 28t28 68t-28 68t-68 28h-160v384h160q40 0 68 28t28 68t-28 68t-68 28h-160v160q0 93 -65.5 158.5t-158.5 65.5h-160v160q0 40 -28 68t-68 28t-68 -28
t-28 -68v-160h-384v160q0 40 -28 68t-68 28t-68 -28t-28 -68v-160h-160q-93 0 -158.5 -65.5t-65.5 -158.5v-160h-160q-40 0 -68 -28t-28 -68t28 -68t68 -28h160v-384h-160q-40 0 -68 -28t-28 -68t28 -68t68 -28h160v-160q0 -93 65.5 -158.5t158.5 -65.5h160v-160
q0 -40 28 -68t68 -28t68 28t28 68zM1568 1600q13 0 22.5 -9.5t9.5 -22.5v-1088q0 -13 -9.5 -22.5t-22.5 -9.5h-1088q-13 0 -22.5 9.5t-9.5 22.5v1088q0 13 9.5 22.5t22.5 9.5h1088zM736 640h576q40 0 68 28t28 68v576q0 40 -28 68t-68 28h-576q-40 0 -68 -28t-28 -68v-576
q0 -40 28 -68t68 -28zM832 1216h384v-384h-384v384z" />
</svg>
