<?xml version="1.0" standalone="no"?>
<!DOCTYPE svg PUBLIC "-//W3C//DTD SVG 1.1//EN" "http://www.w3.org/Graphics/SVG/1.1/DTD/svg11.dtd" >
<svg xmlns="http://www.w3.org/2000/svg" xmlns:xlink="http://www.w3.org/1999/xlink" version="1.1" width="2048" height="2048" viewBox="-10 0 2068 2048">
   <path fill="currentColor"
d="M0 352q0 -93 65.5 -158.5t158.5 -65.5h1088q93 0 158.5 65.5t65.5 158.5v704q0 93 -65.5 158.5t-158.5 65.5h-408l-330 329q-54 55 -131.5 55t-132 -54.5t-54.5 -131.5v-50v-99v-49h-32q-93 0 -158.5 -65.5t-65.5 -158.5v-704zM224 320q-13 0 -22.5 9.5t-9.5 22.5v704
q0 13 9.5 22.5t22.5 9.5h128q40 0 68 28t28 68v280l348 -348q28 -28 68 -28h112h224h112q13 0 22.5 -9.5t9.5 -22.5v-704q0 -13 -9.5 -22.5t-22.5 -9.5h-1088zM1824 576h-64q-40 0 -68 -28t-28 -68t28 -68t68 -28h64q93 0 158.5 65.5t65.5 158.5v704q0 93 -65.5 158.5
t-158.5 65.5h-32v198q0 77 -54.5 131.5t-132 54.5t-131.5 -55l-294 -293q-28 -28 -28 -68t28 -68t68 -28t68 28l71 71l142 142l71 71v-280q0 -40 28 -68t68 -28h128q13 0 22.5 -9.5t9.5 -22.5v-704q0 -13 -9.5 -22.5t-22.5 -9.5zM1020 580l-376 376q-28 28 -68 28t-68 -28
t-28 -68t28 -68l376 -376q28 -27 67 -27q40 0 68 28t28 68q0 39 -27 67z" />
</svg>
