<?xml version="1.0" standalone="no"?>
<!DOCTYPE svg PUBLIC "-//W3C//DTD SVG 1.1//EN" "http://www.w3.org/Graphics/SVG/1.1/DTD/svg11.dtd" >
<svg xmlns="http://www.w3.org/2000/svg" xmlns:xlink="http://www.w3.org/1999/xlink" version="1.1" width="2048" height="2048" viewBox="-10 0 2068 2048">
   <path fill="currentColor"
d="M18 296q29 -40 78 -40q31 0 56 18l463 335q464 336 927 672l464 335q42 29 42 80q0 39 -28 67.5t-68 28.5q-32 0 -58 -20l-72 -52q-72 -52 -144 -105l-72 -52q-286 227 -583 227q-322 0 -630 -265q-188 -161 -338 -387q-35 -52 -35 -115t35 -115q106 -160 239 -295
l-254 -183q-40 -29 -40 -78q0 -31 18 -56zM215 1014q-3 4 -3 9t3 9q135 203 302 347q255 219 506 219q209 0 421 -151l-285 -207q-62 39 -136 39q-106 0 -181 -75t-75 -181q0 -32 7 -61q1 -1 -79.5 -59.5t-162.5 -116.5l-80 -59q-133 131 -237 287zM1023 448q-96 0 -192 32
q-16 6 -32 6q-40 0 -68 -28t-28 -68q0 -32 19 -57.5t49 -34.5q122 -42 252 -42q322 0 630 265q188 161 338 387q35 52 35 115t-35 115q-23 35 -53 75q-28 40 -77 40q-40 0 -68 -28.5t-28 -67.5q0 -32 19 -57q23 -32 47 -68q3 -4 3 -9t-3 -9q-135 -203 -302 -347
q-255 -219 -506 -219z" />
</svg>
