<?xml version="1.0" standalone="no"?>
<!DOCTYPE svg PUBLIC "-//W3C//DTD SVG 1.1//EN" "http://www.w3.org/Graphics/SVG/1.1/DTD/svg11.dtd" >
<svg xmlns="http://www.w3.org/2000/svg" xmlns:xlink="http://www.w3.org/1999/xlink" version="1.1" width="2048" height="2048" viewBox="-10 0 2068 2048">
   <path fill="currentColor"
d="M1024 2048q-208 0 -397.5 -81t-327 -218.5t-218.5 -327t-81 -397.5t81 -397.5t218.5 -327t327 -218.5t397.5 -81t397.5 81t327 218.5t218.5 327t81 397.5t-81 397.5t-218.5 327t-327 218.5t-397.5 81zM1322 576q-74 0 -132.5 20.5t-94 50t-70.5 74.5q-35 -45 -70.5 -74.5
t-94 -50t-133.5 -20.5q-51 0 -99 19.5t-88.5 57.5t-65 101t-24.5 142q0 93 57 203t151.5 208t206.5 167q99 61 160 62q61 -1 160 -62q112 -69 206.5 -167t151.5 -208t57 -203q0 -79 -24.5 -142t-65 -101t-89 -57.5t-99.5 -19.5z" />
</svg>
