<?xml version="1.0" standalone="no"?>
<!DOCTYPE svg PUBLIC "-//W3C//DTD SVG 1.1//EN" "http://www.w3.org/Graphics/SVG/1.1/DTD/svg11.dtd" >
<svg xmlns="http://www.w3.org/2000/svg" xmlns:xlink="http://www.w3.org/1999/xlink" version="1.1" width="2048" height="2048" viewBox="-10 0 2068 2048">
   <path fill="currentColor"
d="M1024 2048q-208 0 -397.5 -81t-327 -218.5t-218.5 -327t-81 -397.5t81 -397.5t218.5 -327t327 -218.5t397.5 -81t397.5 81t327 218.5t218.5 327t81 397.5t-81 397.5t-218.5 327t-327 218.5t-397.5 81zM1056 608q0 -93 -65.5 -158.5t-158.5 -65.5t-158.5 65.5t-65.5 158.5
q0 75 45 134.5t115 80.5v402q-70 21 -115 80.5t-45 134.5q0 93 65.5 158.5t158.5 65.5t158.5 -65.5t65.5 -158.5q0 -75 -45 -134.5t-115 -80.5v-171q109 98 255 98h1h18h37h18q21 70 80.5 115t134.5 45q93 0 158.5 -65.5t65.5 -158.5t-65.5 -158.5t-158.5 -65.5
q-75 0 -134.5 45t-80.5 115h-73q-91 0 -161.5 -57.5t-88.5 -145.5q68 -22 111 -80.5t43 -132.5z" />
</svg>
