<?xml version="1.0" standalone="no"?>
<!DOCTYPE svg PUBLIC "-//W3C//DTD SVG 1.1//EN" "http://www.w3.org/Graphics/SVG/1.1/DTD/svg11.dtd" >
<svg xmlns="http://www.w3.org/2000/svg" xmlns:xlink="http://www.w3.org/1999/xlink" version="1.1" width="2048" height="2048" viewBox="-10 0 2068 2048">
   <path fill="currentColor"
d="M1024 2048q-208 0 -397.5 -81t-327 -218.5t-218.5 -327t-81 -397.5t81 -397.5t218.5 -327t327 -218.5t397.5 -81t397.5 81t327 218.5t218.5 327t81 397.5t-81 397.5t-218.5 327t-327 218.5t-397.5 81zM1132 1005q94 -33 153 -115.5t59 -185.5q0 -87 -42.5 -161
t-116.5 -116.5t-161 -42.5t-160.5 42.5t-116.5 116.5t-43 161q0 103 59 185.5t153 115.5q-105 26 -199 92t-149.5 150t-55.5 161q0 22 5 41.5t17.5 40.5t39.5 33t66 12h768q39 0 66 -12t39.5 -33t17.5 -40.5t5 -41.5q0 -77 -55.5 -161t-149 -150t-199.5 -92z" />
</svg>
