<?xml version="1.0" standalone="no"?>
<!DOCTYPE svg PUBLIC "-//W3C//DTD SVG 1.1//EN" "http://www.w3.org/Graphics/SVG/1.1/DTD/svg11.dtd" >
<svg xmlns="http://www.w3.org/2000/svg" xmlns:xlink="http://www.w3.org/1999/xlink" version="1.1" width="2048" height="2048" viewBox="-10 0 2068 2048">
   <path fill="currentColor"
d="M1024 2048q-208 0 -397.5 -81t-327 -218.5t-218.5 -327t-81 -397.5t81 -397.5t218.5 -327t327 -218.5t397.5 -81t397.5 81t327 218.5t218.5 327t81 397.5t-81 397.5t-218.5 327t-327 218.5t-397.5 81zM704 512q-79 0 -135.5 56.5t-56.5 135.5v640q0 78 39.5 135t88.5 57
v-128q0 -53 37.5 -90.5t90.5 -37.5h640v128h-128v128h192q26 0 45 -19t19 -45v-896q0 -26 -19 -45t-45 -19h-768zM768 1440v322q0 13 9.5 22.5t22.5 9.5t23 -9l29 -29l57 -57l28 -28q10 -9 23 -9t23 9l29 29q28 28 57 56l28 29q10 9 23 9t22.5 -9.5t9.5 -22.5v-88v-178v-88
h-352q-13 0 -22.5 9.5t-9.5 22.5z" />
</svg>
