<?xml version="1.0" standalone="no"?>
<!DOCTYPE svg PUBLIC "-//W3C//DTD SVG 1.1//EN" "http://www.w3.org/Graphics/SVG/1.1/DTD/svg11.dtd" >
<svg xmlns="http://www.w3.org/2000/svg" xmlns:xlink="http://www.w3.org/1999/xlink" version="1.1" width="2048" height="2048" viewBox="-10 0 2068 2048">
   <path fill="currentColor"
d="M1024 2048q-208 0 -397.5 -81t-327 -218.5t-218.5 -327t-81 -397.5t81 -397.5t218.5 -327t327 -218.5t397.5 -81t397.5 81t327 218.5t218.5 327t81 397.5t-81 397.5t-218.5 327t-327 218.5t-397.5 81zM1412 512q-114 0 -216.5 43.5t-179.5 120.5l-8 8q-7 7 -15 14l-7 8
q-32 32 -58 62h-205q-30 0 -55 14.5t-40 39.5l-110 177q-7 12 -7 25q0 16 9.5 29t24.5 17l199 62l172 172l62 199q4 15 16.5 24.5t29.5 9.5q13 0 25 -7l18 -12q18 -11 44.5 -27t52.5 -32t44 -27l18 -11q25 -16 39.5 -41t14.5 -55v-205q32 -27 62 -58l30 -30
q77 -77 120.5 -179.5t43.5 -216.5v-3v-6v-3q0 -46 -33 -79t-79 -33h-12zM758 1426q9 -20 9 -41q0 -43 -30.5 -73.5t-73.5 -30.5q-44 0 -75 33q-56 55 -79 207q-1 1 -1 3q0 6 5 11t11 5q1 0 3 -1q151 -23 207 -79q16 -14 24 -34z" />
</svg>
