<?xml version="1.0" standalone="no"?>
<!DOCTYPE svg PUBLIC "-//W3C//DTD SVG 1.1//EN" "http://www.w3.org/Graphics/SVG/1.1/DTD/svg11.dtd" >
<svg xmlns="http://www.w3.org/2000/svg" xmlns:xlink="http://www.w3.org/1999/xlink" version="1.1" width="2048" height="2048" viewBox="-10 0 2068 2048">
   <path fill="currentColor"
d="M1024 2048q-208 0 -397.5 -81t-327 -218.5t-218.5 -327t-81 -397.5t81 -397.5t218.5 -327t327 -218.5t397.5 -81t397.5 81t327 218.5t218.5 327t81 397.5t-81 397.5t-218.5 327t-327 218.5t-397.5 81zM1056 392.5q-15 -9.5 -32 -9.5q-18 0 -33 9.5t-22 25.5l-154 311
l-343 50q-23 3 -38 20t-15 40q0 26 19 44l249 243l-59 342q-1 5 -1 10q0 25 18 43t43 18q15 0 29 -7l77 -40q76 -40 153 -81l77 -40l307 161q14 7 29 7q25 0 43 -18t18 -43q0 -6 -1 -10l-59 -342l249 -243q18 -18 18 -43q0 -23 -15 -40.5t-37 -20.5l-86 -13
q-86 -12 -172 -25l-86 -12l-153 -311q-8 -16 -23 -25.5z" />
</svg>
