<?xml version="1.0" standalone="no"?>
<!DOCTYPE svg PUBLIC "-//W3C//DTD SVG 1.1//EN" "http://www.w3.org/Graphics/SVG/1.1/DTD/svg11.dtd" >
<svg xmlns="http://www.w3.org/2000/svg" xmlns:xlink="http://www.w3.org/1999/xlink" version="1.1" width="2048" height="2048" viewBox="-10 0 2068 2048">
   <path fill="currentColor"
d="M1408 640h128v147q0 40 -22.5 72t-58.5 46l-47 20v-285zM640 925l-47 -20q-36 -14 -58.5 -46t-22.5 -72v-147h128v285zM1024 2048q-208 0 -397.5 -81t-327 -218.5t-218.5 -327t-81 -397.5t81 -397.5t218.5 -327t327 -218.5t397.5 -81t397.5 81t327 218.5t218.5 327
t81 397.5t-81 397.5t-218.5 327t-327 218.5t-397.5 81zM384 640v147q0 80 44.5 144.5t116.5 93.5l111 44q30 102 109 174.5t184 93.5q-40 199 -245 199q-26 0 -45 19t-19 45t19 45t45 19h640q26 0 45 -19t19 -45t-19 -45t-45 -19q-205 0 -245 -199q105 -21 184 -93.5
t109 -174.5l28 -11t55 -23l28 -11q72 -28 116.5 -93t44.5 -144v-147q0 -53 -37.5 -90.5t-90.5 -37.5h-1024q-53 0 -90.5 37.5t-37.5 90.5z" />
</svg>
