<?xml version="1.0" standalone="no"?>
<!DOCTYPE svg PUBLIC "-//W3C//DTD SVG 1.1//EN" "http://www.w3.org/Graphics/SVG/1.1/DTD/svg11.dtd" >
<svg xmlns="http://www.w3.org/2000/svg" xmlns:xlink="http://www.w3.org/1999/xlink" version="1.1" width="2048" height="2048" viewBox="-10 0 2058 2048">
   <path fill="currentColor"
d="M288 192q-13 0 -22.5 9.5t-9.5 22.5v1472q0 13 9.5 22.5t22.5 9.5h448q40 0 68 28t28 68t-28 68t-68 28h-448q-93 0 -158.5 -65.5t-65.5 -158.5v-1472q0 -93 65.5 -158.5t158.5 -65.5h1024q61 0 112 30t81 80q13 23 13 49q0 40 -28 68t-68 28q-25 0 -47 -12.5t-35 -33.5
q-9 -17 -28 -17h-1024zM960 896v-1q0 -104 40.5 -198.5t109 -163t163.5 -109t199 -40.5q150 0 274.5 79.5t186.5 210.5q51 105 51 221q0 120 -51.5 225t-141.5 177q-1 0 31 159l64 318l32 159q2 9 2 19q0 40 -28 68t-68 28q-17 0 -33 -6l-77 -28l-154 -56l-77 -28
q-5 -2 -11 -2t-11 2l-77 28l-154 56l-77 28q-16 6 -33 6q-40 0 -68 -28t-28 -68q0 -10 2 -19l127 -636q-90 -72 -141.5 -176.5t-51.5 -224.5zM1472 576q-132 0 -226 94t-94 226t94 226t226 94t226 -94t94 -226t-94 -226t-226 -94zM1472 1408q-73 0 -141 -20l-83 415l147 -53
q77 -28 154 0l147 53l-83 -415q-68 20 -141 20z" />
</svg>
