<?xml version="1.0" standalone="no"?>
<!DOCTYPE svg PUBLIC "-//W3C//DTD SVG 1.1//EN" "http://www.w3.org/Graphics/SVG/1.1/DTD/svg11.dtd" >
<svg xmlns="http://www.w3.org/2000/svg" xmlns:xlink="http://www.w3.org/1999/xlink" version="1.1" width="2048" height="2048" viewBox="-10 0 2058 2048">
   <path fill="currentColor"
d="M128 224q0 -93 65.5 -158.5t158.5 -65.5h971q93 0 158 66l373 373q66 65 66 158v1227q0 93 -65.5 158.5t-158.5 65.5h-1344q-93 0 -158.5 -65.5t-65.5 -158.5v-1600zM352 192q-13 0 -22.5 9.5t-9.5 22.5v1600q0 13 9.5 22.5t22.5 9.5h1344q13 0 22.5 -9.5t9.5 -22.5
v-1227q0 -13 -9 -23l-373 -373q-10 -9 -23 -9h-243h-485h-243zM1024 416q40 0 68 28t28 68v192h192q40 0 68 28t28 68t-28 68t-68 28h-192v192q0 40 -28 68t-68 28t-68 -28t-28 -68v-192h-192q-40 0 -68 -28t-28 -68t28 -68t68 -28h192v-192q0 -40 28 -68t68 -28zM640 1440
q0 -40 28 -68t68 -28h576q40 0 68 28t28 68t-28 68t-68 28h-576q-40 0 -68 -28t-28 -68z" />
</svg>
