<?xml version="1.0" standalone="no"?>
<!DOCTYPE svg PUBLIC "-//W3C//DTD SVG 1.1//EN" "http://www.w3.org/Graphics/SVG/1.1/DTD/svg11.dtd" >
<svg xmlns="http://www.w3.org/2000/svg" xmlns:xlink="http://www.w3.org/1999/xlink" version="1.1" width="2048" height="2048" viewBox="-10 0 2068 2048">
   <path fill="currentColor"
d="M67 180q66 -68 161 -68h114h228h114q54 0 102 24t80 68l117 156q10 13 26 13h684q54 0 92 38t38 92v65h-1465q-41 0 -69.5 28.5t-28.5 69.5t28.5 69.5t69.5 28.5h1560q54 0 92 38t38 92q0 8 -1 15l-94 799q0 94 -66.5 161t-161.5 67h-1497q-95 0 -161.5 -67t-66.5 -161
v-1368q0 -94 67 -160z" />
</svg>
