<?xml version="1.0" standalone="no"?>
<!DOCTYPE svg PUBLIC "-//W3C//DTD SVG 1.1//EN" "http://www.w3.org/Graphics/SVG/1.1/DTD/svg11.dtd" >
<svg xmlns="http://www.w3.org/2000/svg" xmlns:xlink="http://www.w3.org/1999/xlink" version="1.1" width="2048" height="2048" viewBox="-10 0 2058 2048">
   <path fill="currentColor"
d="M320 224q0 -93 65.5 -158.5t158.5 -65.5h843q93 0 158 66l373 373q66 65 66 158v1227q0 93 -65.5 158.5t-158.5 65.5h-448q-40 0 -68 -28t-28 -68t28 -68t68 -28h448q13 0 22.5 -9.5t9.5 -22.5v-1227q0 -13 -9 -23l-373 -373q-10 -9 -23 -9h-211h-421h-211
q-13 0 -22.5 9.5t-9.5 22.5v832q0 40 -28 68t-68 28t-68 -28t-28 -68v-832zM759 1993q-15 16 -35 7.5t-20 -29.5v-307h-544q-40 0 -68 -28t-28 -68t28 -68t68 -28h544v-51v-99v-112v-45q0 -13 9.5 -22.5t22.5 -9.5t23 10l402 402q10 10 10 23t-10 23z" />
</svg>
