<?xml version="1.0" standalone="no"?>
<!DOCTYPE svg PUBLIC "-//W3C//DTD SVG 1.1//EN" "http://www.w3.org/Graphics/SVG/1.1/DTD/svg11.dtd" >
<svg xmlns="http://www.w3.org/2000/svg" xmlns:xlink="http://www.w3.org/1999/xlink" version="1.1" width="2048" height="2048" viewBox="-10 0 2068 2048">
   <path fill="currentColor"
d="M1050 1810q-11 11 -26 11t-26 -11l-423 -423q-12 -12 -12 -26.5t11 -25.5t26 -11h314v-473q0 -46 32 -78t78 -32t78 32t32 78v473h52h101h115h46q15 0 26 11t11 25.5t-12 26.5zM183 446h-73q-46 0 -78 -32t-32 -77.5t32 -77.5t78 -32h73q46 0 78 32t32 77.5t-32 77.5
t-78 32zM731 336.5q0 45.5 -32 77.5t-77 32h-73q-46 0 -78 -32t-32 -77.5t32 -77.5t78 -32h73q45 0 77 32t32 77.5zM1061 446h-74q-45 0 -77 -32t-32 -77.5t32 -77.5t77 -32h74q45 0 77 32t32 77.5t-32 77.5t-77 32zM1609 336.5q0 45.5 -32 77.5t-78 32h-73q-45 0 -77 -32
t-32 -77.5t32 -77.5t77 -32h73q46 0 78 32t32 77.5zM1938 446h-73q-46 0 -78 -32t-32 -77.5t32 -77.5t78 -32h73q46 0 78 32t32 77.5t-32 77.5t-78 32z" />
</svg>
