<?xml version="1.0" standalone="no"?>
<!DOCTYPE svg PUBLIC "-//W3C//DTD SVG 1.1//EN" "http://www.w3.org/Graphics/SVG/1.1/DTD/svg11.dtd" >
<svg xmlns="http://www.w3.org/2000/svg" xmlns:xlink="http://www.w3.org/1999/xlink" version="1.1" width="2048" height="2048" viewBox="-10 0 2068 2048">
   <path fill="currentColor"
d="M998 238q11 -11 26 -11t26 11l423 423q12 12 12 26.5t-11 25.5t-26 11h-314v473q0 46 -32 78t-78 32t-78 -32t-32 -78v-473h-52h-101h-115h-46q-15 0 -26 -11t-11 -25.5t12 -26.5zM1865 1602h73q46 0 78 32t32 77.5t-32 77.5t-78 32h-73q-46 0 -78 -32t-32 -77.5
t32 -77.5t78 -32zM1317 1711.5q0 -45.5 32 -77.5t77 -32h73q46 0 78 32t32 77.5t-32 77.5t-78 32h-73q-45 0 -77 -32t-32 -77.5zM987 1602h74q45 0 77 32t32 77.5t-32 77.5t-77 32h-74q-45 0 -77 -32t-32 -77.5t32 -77.5t77 -32zM439 1711.5q0 -45.5 32 -77.5t78 -32h73
q45 0 77 32t32 77.5t-32 77.5t-77 32h-73q-46 0 -78 -32t-32 -77.5zM110 1602h73q46 0 78 32t32 77.5t-32 77.5t-78 32h-73q-46 0 -78 -32t-32 -77.5t32 -77.5t78 -32z" />
</svg>
