<?xml version="1.0" standalone="no"?>
<!DOCTYPE svg PUBLIC "-//W3C//DTD SVG 1.1//EN" "http://www.w3.org/Graphics/SVG/1.1/DTD/svg11.dtd" >
<svg xmlns="http://www.w3.org/2000/svg" xmlns:xlink="http://www.w3.org/1999/xlink" version="1.1" width="2048" height="2048" viewBox="-10 0 2068 2048">
   <path fill="currentColor"
d="M354.5 394q-81.5 0 -139 -58t-57.5 -139t57.5 -139t139 -58t139 58t57.5 139t-57.5 139t-139 58zM236 906q0 -49 34.5 -83.5t84 -34.5t84 34.5t34.5 83.5v453q104 37 170 128.5t66 206.5q0 146 -104 250t-250.5 104t-250.5 -104t-104 -250q0 -115 66 -206.5t170 -128.5
v-453zM354.5 1812q49.5 0 84 -34.5t34.5 -84t-34.5 -84t-84 -34.5t-84 34.5t-34.5 84t34.5 84t84 34.5zM1142 591q0 81 -58 139t-139 58t-139 -58t-58 -139t58 -139t139 -58t139 58t58 139zM2048 984.5q0 146.5 -104 250.5t-250.5 104t-250.5 -104t-104 -250.5t104 -250.5
t250.5 -104t250.5 104t104 250.5zM1812 984.5q0 -49.5 -34.5 -84t-84 -34.5t-84 34.5t-34.5 84t34.5 84t84 34.5t84 -34.5t34.5 -84z" />
</svg>
