<?xml version="1.0" standalone="no"?>
<!DOCTYPE svg PUBLIC "-//W3C//DTD SVG 1.1//EN" "http://www.w3.org/Graphics/SVG/1.1/DTD/svg11.dtd" >
<svg xmlns="http://www.w3.org/2000/svg" xmlns:xlink="http://www.w3.org/1999/xlink" version="1.1" width="2048" height="2048" viewBox="-10 0 2068 2048">
   <path fill="currentColor"
d="M329 1q136 0 232.5 96.5t96.5 232.5q0 106 -61 191.5t-158 119.5v767q97 35 158 120t61 191q0 136 -96.5 232.5t-232.5 96.5t-232.5 -96.5t-96.5 -232.5q0 -106 61 -191t158 -120v-767q-97 -36 -158 -120.5t-61 -190.5q0 -136 96.5 -232.5t232.5 -96.5zM1718 805
q46 0 78 32t32 78v493q97 35 158 120t61 191q0 136 -96.5 232.5t-232.5 96.5t-232.5 -96.5t-96.5 -232.5q0 -106 61 -191t158 -120v-493q0 -46 32 -78t78 -32zM1421 34q32 -32 77.5 -32t77.5 32l36 36l70 70l36 36l142 -142q32 -34 78 -34q38 0 67.5 23.5t39.5 59.5
q3 13 3 28q0 47 -33 79l-142 141l142 142q30 32 30 75q0 45 -33 77.5t-77 32.5q-43 0 -75 -30l-36 -35l-71 -71l-35 -35l-142 141q-33 36 -80 36q-39 0 -68 -23.5t-38 -60.5q-3 -13 -3 -27q0 -47 34 -80l142 -142l-142 -141q-32 -32 -32 -78t32 -78zM219 330q0 46 32 78
t78 32t78 -32t32 -78t-32 -78t-78 -32t-78 32t-32 78zM329 1609q-46 0 -78 32t-32 78t32 78t78 32t78 -32t32 -78t-32 -78t-78 -32zM1718 1609q-46 0 -78 32t-32 78t32 78t78 32t78 -32t32 -78t-32 -78t-78 -32z" />
</svg>
