<?xml version="1.0" standalone="no"?>
<!DOCTYPE svg PUBLIC "-//W3C//DTD SVG 1.1//EN" "http://www.w3.org/Graphics/SVG/1.1/DTD/svg11.dtd" >
<svg xmlns="http://www.w3.org/2000/svg" xmlns:xlink="http://www.w3.org/1999/xlink" version="1.1" width="2048" height="2048" viewBox="-10 0 2068 2048">
   <path fill="currentColor"
d="M329 0q136 0 232.5 96.5t96.5 232.5q0 106 -61 191.5t-158 119.5v768q97 34 158 119.5t61 191.5q0 136 -96.5 232.5t-232.5 96.5t-232.5 -96.5t-96.5 -232.5q0 -106 61 -191.5t158 -119.5v-768q-97 -35 -158 -120t-61 -191q0 -136 96.5 -232.5t232.5 -96.5zM1719 2048
q-136 0 -232.5 -96.5t-96.5 -232.5t96.5 -232.5t232.5 -96.5t232.5 96.5t96.5 232.5t-96.5 232.5t-232.5 96.5zM219 329q0 46 32 78t78 32t78 -32t32 -78t-32 -78t-78 -32t-78 32t-32 78zM329 1609q-46 0 -78 32t-32 78t32 78t78 32t78 -32t32 -78t-32 -78t-78 -32z
M1719 1609q-46 0 -78 32t-32 78t32 78t78 32t78 -32t32 -78t-32 -78t-78 -32zM1902 950.5q0 75.5 -54 129.5t-129.5 54t-129 -54t-53.5 -129.5t53.5 -129t129 -53.5t129.5 53.5t54 129zM1902 329.5q0 75.5 -54 129t-129.5 53.5t-129 -53.5t-53.5 -129t53.5 -129.5t129 -54
t129.5 54t54 129.5z" />
</svg>
