<?xml version="1.0" standalone="no"?>
<!DOCTYPE svg PUBLIC "-//W3C//DTD SVG 1.1//EN" "http://www.w3.org/Graphics/SVG/1.1/DTD/svg11.dtd" >
<svg xmlns="http://www.w3.org/2000/svg" xmlns:xlink="http://www.w3.org/1999/xlink" version="1.1" width="2048" height="2048" viewBox="-10 0 2068 2048">
   <path fill="currentColor"
d="M1792 256h-1l229 46q21 4 26 24q2 5 2 10q0 14 -11 24l-186 187q-35 35 -85 35h-39h-78h-38l-390 390q7 26 7 53q0 85 -60.5 144.5t-144.5 59.5t-144.5 -59.5t-60.5 -143.5q0 -85 60.5 -145t144.5 -60q27 0 53 7l390 -391v-154q0 -50 35 -85l188 -187q9 -10 23 -10
q6 0 11 2q19 5 23 25zM205 1025.5q0 166.5 65 317.5t174.5 261t261 174.5t317.5 64.5t318 -65t261 -174.5t174 -261t65 -317.5q0 -116 -32 -225q-5 -16 -5 -33q0 -43 30.5 -73t71.5 -30q37 0 65 22.5t35 56.5q40 138 40 282q0 139 -37 271.5t-103 244.5t-160 207
t-206.5 160.5t-245.5 102t-271 36.5q-208 0 -395 -78.5t-329 -219.5q-140 -142 -219.5 -329t-79.5 -394q0 -139 37 -271.5t103 -245t160.5 -207t206.5 -160.5t244.5 -102.5t271.5 -36.5q145 0 282 39q32 10 53 37t21 61q0 43 -30 72.5t-72 29.5q-14 0 -28 -3
q-110 -32 -226 -32q-166 0 -318 65t-261 174.5t-174 261t-65 318zM614 1025.5q0 110.5 55 205t149 149.5t205 55q127 0 231 -72q82 -56 130 -145t48 -192q0 -21 -3 -48q-1 -7 -1 -14q0 -42 30.5 -71.5t71.5 -29.5q21 0 42 8q25 11 41 33.5t19 49.5q5 36 5 73
q0 124 -48.5 237.5t-131 195.5t-196 131t-238.5 49t-238.5 -49t-196 -131t-131 -195.5t-48.5 -238t48.5 -238.5t131 -196t196 -130.5t238.5 -48.5q40 0 70 3q40 3 66.5 32.5t26.5 68.5q0 43 -30 73t-72 30h-14q-24 -4 -47 -4q-112 0 -205.5 55t-148.5 149.5t-55 205z" />
</svg>
