<?xml version="1.0" standalone="no"?>
<!DOCTYPE svg PUBLIC "-//W3C//DTD SVG 1.1//EN" "http://www.w3.org/Graphics/SVG/1.1/DTD/svg11.dtd" >
<svg xmlns="http://www.w3.org/2000/svg" xmlns:xlink="http://www.w3.org/1999/xlink" version="1.1" width="2048" height="2048" viewBox="-10 0 2068 2048">
   <path fill="currentColor"
d="M785 3q40 7 66.5 37.5t26.5 71.5q0 9 -1 17l-62 385h582l67 -419q8 -38 38.5 -63t68.5 -25q46 0 78 32t32 78v12l-62 385h319q46 0 78 32t32 78t-32 78t-78 32h-354l-94 585h375q46 0 78 32t32 77.5t-32 77.5t-78 32h-409l-67 420q-8 37 -38.5 62.5t-69.5 25.5
q-46 0 -78 -32t-32 -78v-13l62 -385h-582l-67 420q-8 37 -38.5 62.5t-68.5 25.5q-46 0 -78 -32t-32 -78v-13l62 -385h-319q-46 0 -78 -32t-32 -77.5t32 -77.5t78 -32h354l94 -585h-375q-46 0 -78 -32t-32 -78t32 -78t78 -32h409l67 -419q7 -40 37.5 -66.5t71.5 -26.5
q9 0 17 1zM1269 1319l93 -585h-583l-93 585h583z" />
</svg>
