<?xml version="1.0" standalone="no"?>
<!DOCTYPE svg PUBLIC "-//W3C//DTD SVG 1.1//EN" "http://www.w3.org/Graphics/SVG/1.1/DTD/svg11.dtd" >
<svg xmlns="http://www.w3.org/2000/svg" xmlns:xlink="http://www.w3.org/1999/xlink" version="1.1" width="2048" height="2048" viewBox="-10 0 2068 2048">
   <path fill="currentColor"
d="M980 1909h-1l-2 -2q-257 -140 -480 -330q-76 -66 -142.5 -134t-133.5 -156t-114.5 -176.5t-77 -195t-29.5 -211.5q0 -124 46 -233t122 -183.5t174 -117t202 -42.5q145 0 271 69.5t209 189.5q83 -120 209 -189.5t271 -69.5q104 0 202 42.5t174 117t122 183.5t46 233
q0 105 -29.5 211.5t-77 195t-114.5 176.5t-133.5 156t-142.5 134q-205 175 -440 309q-19 11 -40 21l-2 2h-1q-20 11 -44 11t-44 -11z" />
</svg>
