<?xml version="1.0" standalone="no"?>
<!DOCTYPE svg PUBLIC "-//W3C//DTD SVG 1.1//EN" "http://www.w3.org/Graphics/SVG/1.1/DTD/svg11.dtd" >
<svg xmlns="http://www.w3.org/2000/svg" xmlns:xlink="http://www.w3.org/1999/xlink" version="1.1" width="2048" height="2048" viewBox="-10 0 2058 2048">
   <path fill="currentColor"
d="M1130 38l819 695q57 49 57 125v1026q0 68 -48 116t-115 48h-518q-35 0 -58.5 -24.5t-23.5 -57.5v-682h-438v682q0 33 -23.5 57.5t-58.5 24.5h-518q-67 0 -115 -48t-48 -116v-1026q0 -76 57 -125q53 -44 137 -116t264 -224.5t299 -253.5l119 -101q46 -38 106 -38t106 38z
" />
</svg>
