<?xml version="1.0" standalone="no"?>
<!DOCTYPE svg PUBLIC "-//W3C//DTD SVG 1.1//EN" "http://www.w3.org/Graphics/SVG/1.1/DTD/svg11.dtd" >
<svg xmlns="http://www.w3.org/2000/svg" xmlns:xlink="http://www.w3.org/1999/xlink" version="1.1" width="2048" height="2048" viewBox="-10 0 2058 2048">
   <path fill="currentColor"
d="M256 0h1536q46 0 78 32t32 77.5t-32 77.5t-78 32h-110v183q0 168 -74 314t-203 242l-50 36q-14 12 -14 30t14 30l50 36q129 96 203 242t74 314v183h110q46 0 78 32t32 77.5t-32 77.5t-78 32h-1536q-46 0 -78 -32t-32 -77.5t32 -77.5t78 -32h110v-183q0 -168 74 -314
t203 -242l50 -36q14 -12 14 -30t-14 -30l-50 -36q-129 -96 -203 -242t-74 -314v-183h-110q-46 0 -78 -32t-32 -77.5t32 -77.5t78 -32zM1463 219h-878v183q0 112 50.5 212.5t139.5 168.5l49 36q66 51 90.5 128t0 154t-90.5 128l-49 36q-88 66 -139 166t-51 215v183h878v-183
q0 -115 -51 -215t-139 -166l-49 -36q-48 -36 -75.5 -89.5t-27.5 -115.5t27.5 -115.5t75.5 -89.5l49 -36q88 -66 139 -166t51 -215v-183z" />
</svg>
