<?xml version="1.0" standalone="no"?>
<!DOCTYPE svg PUBLIC "-//W3C//DTD SVG 1.1//EN" "http://www.w3.org/Graphics/SVG/1.1/DTD/svg11.dtd" >
<svg xmlns="http://www.w3.org/2000/svg" xmlns:xlink="http://www.w3.org/1999/xlink" version="1.1" width="2048" height="2048" viewBox="-10 0 2068 2048">
   <path fill="currentColor"
d="M384 1024q0 -26 19 -45t45 -19h256q26 0 45 19t19 45v384q0 26 -19 45t-45 19h-256q-26 0 -45 -19t-19 -45v-384zM1664 1056q0 40 -28 68t-68 28h-576q-40 0 -68 -28t-28 -68t28 -68t68 -28h576q40 0 68 28t28 68zM1312 1472h-320q-40 0 -68 -28t-28 -68t28 -68t68 -28
h320q40 0 68 28t28 68t-28 68t-68 28zM928 64h192q93 0 158.5 65.5t65.5 158.5v160h480q93 0 158.5 65.5t65.5 158.5v1088q0 93 -65.5 158.5t-158.5 65.5h-1600q-93 0 -158.5 -65.5t-65.5 -158.5v-1088q0 -93 65.5 -158.5t158.5 -65.5h480v-160q0 -93 65.5 -158.5
t158.5 -65.5zM1342 640q-12 82 -75 137t-147 55h-48h-96h-48q-84 0 -147 -55t-75 -137h-120h-241h-121q-13 0 -22.5 9.5t-9.5 22.5v1088q0 13 9.5 22.5t22.5 9.5h1600q13 0 22.5 -9.5t9.5 -22.5v-1088q0 -13 -9.5 -22.5t-22.5 -9.5h-482zM896 288v320q0 13 9.5 22.5
t22.5 9.5h192q13 0 22.5 -9.5t9.5 -22.5v-320q0 -13 -9.5 -22.5t-22.5 -9.5h-192q-13 0 -22.5 9.5t-9.5 22.5z" />
</svg>
