<?xml version="1.0" standalone="no"?>
<!DOCTYPE svg PUBLIC "-//W3C//DTD SVG 1.1//EN" "http://www.w3.org/Graphics/SVG/1.1/DTD/svg11.dtd" >
<svg xmlns="http://www.w3.org/2000/svg" xmlns:xlink="http://www.w3.org/1999/xlink" version="1.1" width="2048" height="2048" viewBox="-10 0 2068 2048">
   <path fill="currentColor"
d="M2048 1696q0 93 -65.5 158.5t-158.5 65.5h-1600q-93 0 -158.5 -65.5t-65.5 -158.5v-1344q0 -93 65.5 -158.5t158.5 -65.5h1600q93 0 158.5 65.5t65.5 158.5v1344zM224 320q-13 0 -22.5 9.5t-9.5 22.5v1344q0 13 9.5 22.5t22.5 9.5h120l4 -4l778 -778q66 -65 158 -65
q87 0 151 57l105 96q105 95 211 190l105 96v-968q0 -13 -9.5 -22.5t-22.5 -9.5h-1600zM1824 1728q13 0 22.5 -9.5t9.5 -22.5v-117l-550 -498q-9 -8 -22 -8t-22 9l-162 162q-161 161 -323 322l-161 162h1208zM896 768v6q0 106 -75 181t-181 75t-181 -75t-75 -181v-6
q2 -104 77 -177t179 -73t179 73t77 177zM704 768q0 -26 -19 -45t-45 -19t-45 19t-19 45t19 45t45 19t45 -19t19 -45z" />
</svg>
