<?xml version="1.0" standalone="no"?>
<!DOCTYPE svg PUBLIC "-//W3C//DTD SVG 1.1//EN" "http://www.w3.org/Graphics/SVG/1.1/DTD/svg11.dtd" >
<svg xmlns="http://www.w3.org/2000/svg" xmlns:xlink="http://www.w3.org/1999/xlink" version="1.1" width="2048" height="2048" viewBox="-10 0 2068 2048">
   <path fill="currentColor"
d="M1024 894q141 -128 234 -191q184 -127 342 -127q120 0 223.5 60.5t164 164t60.5 223.5t-60.5 223.5t-164 164t-223.5 60.5q-158 0 -342 -127q-93 -63 -234 -191q-141 128 -234 191q-184 127 -342 127q-120 0 -223.5 -60.5t-164 -164t-60.5 -223.5t60.5 -223.5t164 -164
t223.5 -60.5q158 0 342 127q93 63 234 191zM1167 1024q118 107 199 163q136 93 234 93q104 0 180 -76t76 -180t-76 -180t-180 -76q-98 0 -234 93q-79 55 -199 163zM448 768q-104 0 -180 76t-76 180t76 180t180 76q98 0 234 -93q79 -55 199 -163q-118 -107 -199 -163
q-136 -93 -234 -93z" />
</svg>
