<?xml version="1.0" standalone="no"?>
<!DOCTYPE svg PUBLIC "-//W3C//DTD SVG 1.1//EN" "http://www.w3.org/Graphics/SVG/1.1/DTD/svg11.dtd" >
<svg xmlns="http://www.w3.org/2000/svg" xmlns:xlink="http://www.w3.org/1999/xlink" version="1.1" width="2048" height="2048" viewBox="-10 0 2068 2048">
   <path fill="currentColor"
d="M1831 1492q40 29 40 78q0 31 -19 56q-95 131 -226 227q-25 18 -56 18q-40 0 -68.5 -28t-28.5 -68q0 -49 40 -78q107 -77 184 -184q29 -40 78 -40q31 0 56 19zM1492 217q29 -40 78 -40q31 0 56 19q131 95 227 226q18 25 18 56q0 40 -28 68.5t-68 28.5q-49 0 -78 -40
q-77 -107 -184 -184q-40 -29 -40 -78q0 -31 19 -56zM864 12q80 -12 161 -12q79 0 159 12q35 6 58 33t23 62q0 40 -28 68t-68 28q-7 0 -15 -1q-65 -10 -131 -10q-64 0 -129 10q-5 1 -11 1q-39 0 -67.5 -28.5t-28.5 -67.5q0 -35 22 -61.5t55 -33.5zM122 784q35 5 58 32t23 63
q0 8 -1 15q-10 65 -10 131q0 64 10 129q1 8 1 15q0 40 -28 68t-68 28q-35 0 -62 -23t-33 -58q-12 -80 -12 -161q0 -79 12 -159q6 -35 33 -58t62 -23q8 0 15 1zM1926 784q7 -1 15 -1q35 0 62 23t33 58q24 160 0 320q-6 35 -33 58t-62 23q-40 0 -68 -28t-28 -68q0 -7 1 -15
q10 -65 10 -131q0 -64 -10 -129q-1 -8 -1 -15q0 -36 23 -63t58 -32zM784 1926q5 -35 32 -58t63 -23q8 0 15 1q65 10 131 10q64 0 129 -10q8 -1 15 -1q40 0 68 28t28 68q0 35 -23 62t-58 33q-79 12 -160 12t-160 -12q-35 -6 -58 -33t-23 -62q0 -8 1 -15zM217 1492
q25 -19 56 -19q49 0 78 40q77 107 184 184q35 29 35 75q0 39 -28 67.5t-68 28.5q-28 0 -52 -16q-131 -95 -227 -226q-18 -25 -18 -56q0 -49 40 -78zM556 217q18 25 18 56q0 49 -39 78q-107 77 -184 184q-29 35 -75 35q-39 0 -67.5 -28t-28.5 -68q0 -28 16 -52
q95 -131 226 -227q25 -18 56 -18q49 0 78 40z" />
</svg>
