<?xml version="1.0" standalone="no"?>
<!DOCTYPE svg PUBLIC "-//W3C//DTD SVG 1.1//EN" "http://www.w3.org/Graphics/SVG/1.1/DTD/svg11.dtd" >
<svg xmlns="http://www.w3.org/2000/svg" xmlns:xlink="http://www.w3.org/1999/xlink" version="1.1" width="2048" height="2048" viewBox="-10 0 2068 2048">
   <path fill="currentColor"
d="M192 1024q0 169 66 323t177.5 265.5t265.5 177.5t323 66q40 0 68 28t28 68t-28 68t-68 28q-208 0 -397.5 -81t-327 -218.5t-218.5 -327t-81 -397.5t81 -397.5t218.5 -327t327 -218.5t397.5 -81t397.5 81t327 218.5t218.5 327t81 397.5q0 40 -28 68t-68 28t-68 -28
t-28 -68q0 -169 -66 -323t-177.5 -265.5t-265.5 -177.5t-323 -66t-323 66t-265.5 177.5t-177.5 265.5t-66 323zM1024 1216q-79 0 -135.5 -56.5t-56.5 -135.5t56.5 -135.5t135.5 -56.5t135.5 56.5t56.5 135.5t-56.5 135.5t-135.5 56.5zM1216 1440q0 -40 28 -68t68 -28h640
q40 0 68 28t28 68t-28 68t-68 28h-640q-40 0 -68 -28t-28 -68zM1568 1728h384q40 0 68 28t28 68t-28 68t-68 28h-384q-40 0 -68 -28t-28 -68t28 -68t68 -28z" />
</svg>
