<?xml version="1.0" standalone="no"?>
<!DOCTYPE svg PUBLIC "-//W3C//DTD SVG 1.1//EN" "http://www.w3.org/Graphics/SVG/1.1/DTD/svg11.dtd" >
<svg xmlns="http://www.w3.org/2000/svg" xmlns:xlink="http://www.w3.org/1999/xlink" version="1.1" width="2048" height="2048" viewBox="-10 0 2058 2048">
   <path fill="currentColor"
d="M241 859q0 177 87.5 327.5t237.5 238t328 87.5h652v-49v-96v-108v-43q0 -13 10.5 -23.5t24.5 -10.5t24 11l398 397q10 11 10 25t-10 25l-398 397q-16 17 -37.5 8t-21.5 -32v-295h-652q-175 0 -334 -68t-274 -183t-183 -274t-68 -334t68 -334t183 -274t274 -183t334 -68
t333.5 68t273.5 183t183 274t68 334q0 43 -30 73t-73 30t-73 -30t-30 -73q0 -177 -87.5 -327.5t-237.5 -238t-327.5 -87.5t-327.5 87.5t-237.5 238t-87.5 327.5z" />
</svg>
