<?xml version="1.0" standalone="no"?>
<!DOCTYPE svg PUBLIC "-//W3C//DTD SVG 1.1//EN" "http://www.w3.org/Graphics/SVG/1.1/DTD/svg11.dtd" >
<svg xmlns="http://www.w3.org/2000/svg" xmlns:xlink="http://www.w3.org/1999/xlink" version="1.1" width="2048" height="2048" viewBox="-10 0 2068 2048">
   <path fill="currentColor"
d="M640 1056.5q0 -39.5 28 -67.5t68 -28h512q40 0 68 28t28 67.5t-28 67.5t-68 28h-512q-40 0 -68 -28t-28 -67.5zM512 1344h512q40 0 68 28t28 68t-28 68t-68 28h-512q-40 0 -68 -28t-28 -68t28 -68t68 -28zM1664 0q104 0 192.5 51t140 139.5t51.5 193.5q0 162 -100 361
q-58 114 -203 330l-1 3q-141 211 -192 313q-80 158 -80 273q0 79 56.5 135.5t135.5 56.5t135.5 -56.5t56.5 -135.5q0 -49 -23 -91t-62 -69q-41 -29 -41 -78q0 -40 28.5 -68t67.5 -28q28 0 51 15q79 52 125 136.5t46 182.5q0 104 -51.5 192.5t-140 140t-192.5 51.5h-320h-640
h-320q-159 0 -271.5 -112.5t-112.5 -271.5q0 -73 18.5 -148.5t54 -152t70.5 -138t84 -138.5q27 -41 80 -120q117 -175 165 -262h-151q-163 0 -244 -100q-77 -95 -77 -217v-2v-2q0 -104 51.5 -192.5t140 -140t192.5 -51.5h1280zM1664 192q-79 0 -135.5 56.5t-56.5 135.5
q0 88 85 145q43 29 43 80q0 40 -28 68t-68 28h-204h-409h-204q-28 60 -70.5 132.5t-72.5 119t-84 126.5q-56 85 -71 108q-97 150 -147 263t-50 210q0 79 56.5 135.5t135.5 56.5h947q-51 -88 -51 -191v-1q0 -161 100 -360q57 -112 202 -329l2 -3q141 -211 192 -313
q80 -159 80 -275q0 -80 -56 -136t-136 -56zM384 192q-79 0 -135.5 56.5t-56.5 135.5q0 57 35 100q23 29 94 29h983q-24 -61 -24 -126v-2v-1q0 -103 51 -192h-947z" />
</svg>
