<?xml version="1.0" standalone="no"?>
<!DOCTYPE svg PUBLIC "-//W3C//DTD SVG 1.1//EN" "http://www.w3.org/Graphics/SVG/1.1/DTD/svg11.dtd" >
<svg xmlns="http://www.w3.org/2000/svg" xmlns:xlink="http://www.w3.org/1999/xlink" version="1.1" width="2048" height="2048" viewBox="-10 0 2068 2048">
   <path fill="currentColor"
d="M1235.5 33q33.5 -33 79.5 -33q20 0 39 6q202 74 359 219.5t246 346.5t89 424q0 143 -37.5 279.5t-105.5 252t-165 212.5t-212.5 165t-252 105.5t-279.5 37.5q-223 0 -424 -89t-346.5 -246t-219.5 -359q-6 -19 -6 -39q0 -46 33 -79.5t80 -33.5q19 0 37 8q137 49 282 49
q168 0 321.5 -65t264.5 -176t176 -264.5t65 -321.5q0 -145 -49 -282q-8 -18 -8 -37q0 -47 33.5 -80zM1478 325q6 54 6 108q0 144 -37.5 280t-105.5 251t-165 212.5t-212.5 165.5t-252 106t-279.5 38q-43 0 -107 -8q114 160 290 252.5t380 92.5q169 0 321.5 -66t263.5 -177
t176 -263.5t65 -320.5q0 -203 -91.5 -380t-251.5 -291z" />
</svg>
