<?xml version="1.0" standalone="no"?>
<!DOCTYPE svg PUBLIC "-//W3C//DTD SVG 1.1//EN" "http://www.w3.org/Graphics/SVG/1.1/DTD/svg11.dtd" >
<svg xmlns="http://www.w3.org/2000/svg" xmlns:xlink="http://www.w3.org/1999/xlink" version="1.1" width="2048" height="2048" viewBox="-10 0 2058 2048">
   <path fill="currentColor"
d="M947 1467l-549 -548q-32 -32 -32 -78t32 -78t77.5 -32t77.5 32l362 361v-978q0 -46 32 -78t77.5 -32t77.5 32t32 78v978l60 -60l116.5 -116.5t132.5 -131.5l52 -53q32 -32 78 -32t78 32t32 78t-32 78q-36 34 -92.5 91t-176.5 177l-200 200l-80 80q-32 32 -77.5 32
t-77.5 -32zM403 1792h1243q46 0 78 32t32 77.5t-32 77.5t-78 32h-1243q-46 0 -78 -32t-32 -77.5t32 -77.5t78 -32z" />
</svg>
