<?xml version="1.0" standalone="no"?>
<!DOCTYPE svg PUBLIC "-//W3C//DTD SVG 1.1//EN" "http://www.w3.org/Graphics/SVG/1.1/DTD/svg11.dtd" >
<svg xmlns="http://www.w3.org/2000/svg" xmlns:xlink="http://www.w3.org/1999/xlink" version="1.1" width="2048" height="2048" viewBox="-10 0 2068 2048">
   <path fill="currentColor"
d="M649 956h1024q43 0 73 29.5t30 72.5t-30 73t-73 30h-1024q-43 0 -73 -30t-30 -73t30 -72.5t73 -29.5zM649 1639h1024q43 0 73 29.5t30 72.5t-30 73t-73 30h-1024q-43 0 -73 -30t-30 -73t30 -72.5t73 -29.5zM102 273h888q43 0 73 29.5t30 72.5t-30 73t-73 30h-888
q-42 0 -72 -30t-30 -73t30 -72.5t72 -29.5zM136.5 1844q-56.5 0 -96.5 -40t-40 -97t40 -97t96.5 -40t96.5 40t40 97t-40 97t-96.5 40zM273 1024q0 57 -40 97t-96.5 40t-96.5 -40t-40 -97t40 -97t96.5 -40t96.5 40t40 97zM1682 604l-306 -343q-9 -10 -9 -22q0 -14 10 -24.5
t24 -10.5h613q14 0 24 10.5t10 24.5q0 12 -9 22l-76 85q-77 86 -153 171l-77 85q-11 12 -25.5 12t-25.5 -12v2z" />
</svg>
