<?xml version="1.0" standalone="no"?>
<!DOCTYPE svg PUBLIC "-//W3C//DTD SVG 1.1//EN" "http://www.w3.org/Graphics/SVG/1.1/DTD/svg11.dtd" >
<svg xmlns="http://www.w3.org/2000/svg" xmlns:xlink="http://www.w3.org/1999/xlink" version="1.1" width="2048" height="2048" viewBox="-10 0 2058 2048">
   <path fill="currentColor"
d="M1056 608q0 -40 28 -68t68 -28h512q40 0 68 28t28 68t-28 68l-242 242q62 15 111 41q74 39 116.5 103.5t42.5 151.5q0 124 -80 209q-69 72 -181 99q-95 24 -204.5 6.5t-194.5 -73.5q-39 -29 -39 -77q0 -40 28 -68.5t68 -28.5q25 0 48 13q51 34 120 45t129 -4
q57 -13 86 -44q28 -30 28 -77q0 -29 -13 -49.5t-44 -36.5q-77 -41 -231 -41q-40 0 -68 -28t-28 -67.5t28 -67.5l220 -220h-280q-40 0 -68 -28t-28 -68zM598 1345q-36 -6 -71.5 12.5t-54.5 60.5q-11 26 -35 41.5t-53 15.5q-40 0 -68 -28t-28 -68q0 -22 10 -42
q47 -101 138.5 -148.5t188.5 -33.5q102 14 171 90.5t69 193.5q0 38 -8.5 74t-20.5 63t-33.5 55.5t-38 46.5t-44.5 41t-43 34t-41 29q-76 53 -99 74h264q40 0 68 28t28 67.5t-28 68t-68 28.5h-416q-40 0 -68 -28.5t-28 -67.5q0 -114 86 -207q6 -7 13.5 -14t14 -13t15.5 -13.5
t14.5 -12t16 -12t15 -11t15.5 -11.5t14.5 -10.5t15 -10.5t13.5 -9q84 -59 117.5 -98t33.5 -91q0 -43 -21 -66t-54 -28zM622 11q23 13 37 35.5t14 49.5v611h91q40 0 68 28t28 67.5t-28 68t-68 28.5h-378q-40 0 -68 -28.5t-28 -68t28 -67.5t68 -28h95v-432l-43 29
q-24 15 -52 15q-40 0 -68 -28t-28 -68q0 -50 42 -79l192 -128q24 -16 53 -16q24 0 45 11z" />
</svg>
