<?xml version="1.0" standalone="no"?>
<!DOCTYPE svg PUBLIC "-//W3C//DTD SVG 1.1//EN" "http://www.w3.org/Graphics/SVG/1.1/DTD/svg11.dtd" >
<svg xmlns="http://www.w3.org/2000/svg" xmlns:xlink="http://www.w3.org/1999/xlink" version="1.1" width="2048" height="2048" viewBox="-10 0 2068 2048">
   <path fill="currentColor"
d="M784 40q51 -30 112 -30t112 30l168 98l336 194l168 98q52 30 82 82t30 112v294q0 40 -28 68t-68 28t-68 -28t-28 -68v-201l-608 352v817q0 53 -37.5 90.5t-90.5 37.5q-34 0 -64 -17l-172 -99l-344 -200l-172 -100q-51 -30 -81.5 -81.5t-30.5 -112.5v-780q0 -60 30 -112
t82 -82zM912 206q-7 -4 -16 -4t-16 4l-148 86l-296 172l-149 86l609 353l609 -353zM192 1404q0 19 16 28l592 343v-706l-608 -352v687zM1686 1368l-150 158h416q40 0 68 28t28 68t-28 68t-68 28h-416l150 158q26 28 26 66q0 40 -28 68t-68 28q-41 0 -69 -30l-305 -320
q-26 -28 -26 -66t26 -66l76 -80q77 -80 153 -160l76 -80q28 -30 69 -30q40 0 68 28t28 68q0 38 -26 66z" />
</svg>
