<?xml version="1.0" standalone="no"?>
<!DOCTYPE svg PUBLIC "-//W3C//DTD SVG 1.1//EN" "http://www.w3.org/Graphics/SVG/1.1/DTD/svg11.dtd" >
<svg xmlns="http://www.w3.org/2000/svg" xmlns:xlink="http://www.w3.org/1999/xlink" version="1.1" width="2048" height="2048" viewBox="-10 0 2058 2048">
   <path fill="currentColor"
d="M1590 285q-73 -73 -175 -73q-103 0 -175 73l-207 206q-206 206 -412 413l-206 206q-60 58 -92.5 136t-32.5 164q0 85 32 162.5t93 137.5q60 61 138.5 93.5t162.5 32.5t161 -32.5t138 -93.5l775 -775q31 -30 74 -30q44 0 75 31t31 75q0 43 -30 74l-776 775
q-87 89 -203 138.5t-245 49.5q-127 0 -244.5 -49t-206.5 -139q-89 -88 -138 -204t-49 -246q0 -126 48.5 -243t138.5 -207l824 -825q64 -64 148 -99.5t178 -35.5q125 0 230.5 61.5t167.5 167.5t62 231q0 92 -35 176.5t-100 149.5l-825 824q-83 83 -200 84q-118 -1 -201 -84
q-82 -83 -82 -200t82 -200l776 -776q30 -27 72 -27q44 0 75 31t31 75q0 41 -28 72l-194 194q-193 194 -388 387l-193 195q-21 19 -21 49t21 50q20 21 50 22q29 -1 50 -22l207 -206q206 -206 411 -412l207 -206q73 -73 73 -175.5t-73 -175.5z" />
</svg>
