<?xml version="1.0" standalone="no"?>
<!DOCTYPE svg PUBLIC "-//W3C//DTD SVG 1.1//EN" "http://www.w3.org/Graphics/SVG/1.1/DTD/svg11.dtd" >
<svg xmlns="http://www.w3.org/2000/svg" xmlns:xlink="http://www.w3.org/1999/xlink" version="1.1" width="2048" height="2048" viewBox="-10 0 2068 2048">
   <path fill="currentColor"
d="M300 656q0 -103 40 -196.5t107.5 -161.5t161 -107.5t196.5 -39.5t196.5 39.5t161 107.5t107.5 161.5t40 196.5q0 129 -60.5 239t-163.5 179q165 62 289 186q35 35 35 87q1 60 0 242v145v96q0 27 -20 47t-47 20h-1247q-40 -2 -68 -30.5t-28 -69.5v-5q12 -244 156 -439
t368 -279q-103 -69 -163.5 -179.5t-60.5 -238.5zM2048 940q0 86 -41 160.5t-110 120.5q-17 10 -17 30v78q0 15 -9 25l-49 47q-5 5 -5 12t5 12l49 48q9 10 9 23v32q0 14 -9 23l-49 48q-5 5 -5 12t5 12l49 48q9 10 9 24v39q0 12 -8 22l-28 29q-27 29 -53 60l-27 29
q-21 23 -51.5 23t-51.5 -23l-108 -118q-9 -10 -9 -22v-121v-242v-120q0 -20 -17 -30q-69 -46 -110 -120.5t-41 -160.5q0 -91 44.5 -168.5t122.5 -122.5t169 -45t168.5 45t122.5 122.5t45 168.5zM1813 890q0 -42 -29.5 -71.5t-71.5 -29.5t-71.5 29.5t-29.5 71.5t29.5 71
t71.5 29t71.5 -29t29.5 -71z" />
</svg>
