<?xml version="1.0" standalone="no"?>
<!DOCTYPE svg PUBLIC "-//W3C//DTD SVG 1.1//EN" "http://www.w3.org/Graphics/SVG/1.1/DTD/svg11.dtd" >
<svg xmlns="http://www.w3.org/2000/svg" xmlns:xlink="http://www.w3.org/1999/xlink" version="1.1" width="2048" height="2048" viewBox="-10 0 2068 2048">
   <path fill="currentColor"
d="M252 764q0 -188 133.5 -321.5t321.5 -133.5t321.5 133.5t133.5 321.5q0 96 -38 182t-105 149q156 76 261.5 216.5t132.5 314.5q1 9 1 16q0 40 -28.5 68.5t-68.5 28.5q-36 0 -63.5 -23.5t-32.5 -58.5q-20 -123 -92 -223t-183.5 -157.5t-238.5 -57.5t-238 57.5
t-183.5 157.5t-92.5 223q-5 35 -32.5 58.5t-62.5 23.5q-41 0 -69.5 -28.5t-28.5 -68.5q0 -8 1 -16q27 -174 132.5 -314.5t261.5 -216.5q-67 -63 -105 -149t-38 -182zM1422 569q106 0 196 52.5t142 142t52 195.5q0 150 -101 262q120 60 206.5 161.5t126.5 230.5q4 14 4 30
q0 39 -28.5 67.5t-69.5 28.5q-11 0 -21 -2q-26 -6 -45 -24t-27 -43q-36 -114 -123.5 -196.5t-204.5 -111.5q-32 -8 -53 -34.5t-21 -60.5v-46q0 -28 14.5 -51.5t39.5 -35.5q49 -25 78.5 -71.5t29.5 -103.5q0 -81 -57 -138t-138 -57q-40 0 -68.5 -28.5t-28.5 -69t28.5 -69
t68.5 -28.5zM707 504h-6q-108 0 -184 76t-76 184t76 184t184 76h6q106 -2 180 -78t74 -182t-74 -182t-180 -78z" />
</svg>
