<?xml version="1.0" standalone="no"?>
<!DOCTYPE svg PUBLIC "-//W3C//DTD SVG 1.1//EN" "http://www.w3.org/Graphics/SVG/1.1/DTD/svg11.dtd" >
<svg xmlns="http://www.w3.org/2000/svg" xmlns:xlink="http://www.w3.org/1999/xlink" version="1.1" width="2048" height="2048" viewBox="-10 0 2068 2048">
   <path fill="currentColor"
d="M1011 1222q171 83 278.5 242.5t118.5 353.5v6q0 40 -28 68t-68 28q-38 0 -66 -26.5t-30 -63.5q-5 -100 -47.5 -190t-111 -155t-160.5 -103t-193 -38t-193 38t-160.5 103t-111 155t-47.5 190q-2 37 -30 63.5t-66 26.5q-40 0 -68 -28t-28 -68v-5q11 -195 118.5 -354.5
t278.5 -242.5q-66 -62 -103.5 -146.5t-37.5 -179.5q0 -91 35.5 -174t95.5 -143t143 -95.5t174 -35.5t174 35.5t143 95.5t95.5 143t35.5 174q0 95 -37 179.5t-104 146.5zM1696 128q40 0 68 28t28 68v160h160q40 0 68 28t28 68t-28 68t-68 28h-160v160q0 40 -28 68t-68 28
t-68 -28t-28 -68v-160h-160q-40 0 -68 -28t-28 -68t28 -68t68 -28h160v-160q0 -40 28 -68t68 -28zM704 640h-6q-106 0 -181 75t-75 181t75 181t181 75h6q104 -2 177 -77t73 -179t-73 -179t-177 -77z" />
</svg>
