<?xml version="1.0" standalone="no"?>
<!DOCTYPE svg PUBLIC "-//W3C//DTD SVG 1.1//EN" "http://www.w3.org/Graphics/SVG/1.1/DTD/svg11.dtd" >
<svg xmlns="http://www.w3.org/2000/svg" xmlns:xlink="http://www.w3.org/1999/xlink" version="1.1" width="2048" height="2048" viewBox="-10 0 2068 2048">
   <path fill="currentColor"
d="M1024 0q208 0 397.5 81t327 218.5t218.5 327t81 397.5t-81 397.5t-218.5 327t-327 218.5t-397.5 81t-397.5 -81t-327 -218.5t-218.5 -327t-81 -397.5t81 -397.5t218.5 -327t327 -218.5t397.5 -81zM192 1024q0 169 66 323t177.5 265.5t265.5 177.5t323 66t323 -66
t265.5 -177.5t177.5 -265.5t66 -323t-66 -323t-177.5 -265.5t-265.5 -177.5t-323 -66t-323 66t-265.5 177.5t-177.5 265.5t-66 323zM817 669l545 328q16 9 16 27t-16 27l-545 328q-8 5 -17 5q-13 0 -22.5 -9.5t-9.5 -22.5v-655v-1q0 -13 9.5 -22.5t22.5 -9.5q9 0 17 5z" />
</svg>
