<?xml version="1.0" standalone="no"?>
<!DOCTYPE svg PUBLIC "-//W3C//DTD SVG 1.1//EN" "http://www.w3.org/Graphics/SVG/1.1/DTD/svg11.dtd" >
<svg xmlns="http://www.w3.org/2000/svg" xmlns:xlink="http://www.w3.org/1999/xlink" version="1.1" width="2048" height="2048" viewBox="-10 0 2068 2048">
   <path fill="currentColor"
d="M0 224q0 -93 65.5 -158.5t158.5 -65.5h1600q93 0 158.5 65.5t65.5 158.5v1600q0 93 -65.5 158.5t-158.5 65.5h-1088q-40 0 -68 -28t-28 -68t28 -68t68 -28h1088q13 0 22.5 -9.5t9.5 -22.5v-992h-1664v224q0 40 -28 68t-68 28t-68 -28t-28 -68v-832zM832 640h1024v-416
q0 -13 -9.5 -22.5t-22.5 -9.5h-992v448zM192 640h448v-448h-416q-13 0 -22.5 9.5t-9.5 22.5v416zM192 1758v130q0 40 -28 68t-68 28t-68 -28t-28 -68v-22v-42v-47v-19q0 -97 38 -186t102.5 -153t153 -102t186.5 -38h3h29v-246q0 -13 9.5 -22.5t22.5 -9.5t22 9l369 343
q10 9 10 23t-10 24l-369 342q-16 14 -35 6t-19 -29v-248l-30 -1h-1h-1q-119 0 -203.5 84.5t-84.5 203.5z" />
</svg>
