<?xml version="1.0" standalone="no"?>
<!DOCTYPE svg PUBLIC "-//W3C//DTD SVG 1.1//EN" "http://www.w3.org/Graphics/SVG/1.1/DTD/svg11.dtd" >
<svg xmlns="http://www.w3.org/2000/svg" xmlns:xlink="http://www.w3.org/1999/xlink" version="1.1" width="2048" height="2048" viewBox="-10 0 2068 2048">
   <path fill="currentColor"
d="M192 224v200q0 40 -28 68t-68 28t-68 -28t-28 -68v-200q0 -93 65.5 -158.5t158.5 -65.5h200q40 0 68 28t28 68t-28 68t-68 28h-200q-13 0 -22.5 9.5t-9.5 22.5zM824 0h400q40 0 68 28t28 68t-28 68t-68 28h-400q-40 0 -68 -28t-28 -68t28 -68t68 -28zM1624 0h200
q93 0 158.5 65.5t65.5 158.5v200q0 40 -28 68t-68 28t-68 -28t-28 -68v-200q0 -13 -9.5 -22.5t-22.5 -9.5h-200q-40 0 -68 -28t-28 -68t28 -68t68 -28zM192 824v400q0 40 -28 68t-68 28t-68 -28t-28 -68v-400q0 -40 28 -68t68 -28t68 28t28 68zM2048 824v400q0 40 -28 68
t-68 28t-68 -28t-28 -68v-400q0 -40 28 -68t68 -28t68 28t28 68zM192 1624v200q0 13 9.5 22.5t22.5 9.5h200q40 0 68 28t28 68t-28 68t-68 28h-200q-93 0 -158.5 -65.5t-65.5 -158.5v-200q0 -40 28 -68t68 -28t68 28t28 68zM2048 1624v200q0 93 -65.5 158.5t-158.5 65.5
h-200q-40 0 -68 -28t-28 -68t28 -68t68 -28h200q13 0 22.5 -9.5t9.5 -22.5v-200q0 -40 28 -68t68 -28t68 28t28 68zM824 1856h400q40 0 68 28t28 68t-28 68t-68 28h-400q-40 0 -68 -28t-28 -68t28 -68t68 -28zM832 384v128q0 40 -28 68t-68 28t-68 -28t-28 -68v-128
q0 -40 28 -68t68 -28t68 28t28 68zM288 736q0 -40 28 -68t68 -28h128q40 0 68 28t28 68t-28 68t-68 28h-128q-40 0 -68 -28t-28 -68zM864 736q0 -40 28 -68t68 -28h128q40 0 68 28t28 68t-28 68t-68 28h-128q-40 0 -68 -28t-28 -68zM736 864q40 0 68 28t28 68v128
q0 40 -28 68t-68 28t-68 -28t-28 -68v-128q0 -40 28 -68t68 -28zM832 1376v320q0 40 -28 68t-68 28t-68 -28t-28 -68v-320q0 -40 28 -68t68 -28t68 28t28 68zM1280 736q0 -40 28 -68t68 -28h320q40 0 68 28t28 68t-28 68t-68 28h-320q-40 0 -68 -28t-28 -68z" />
</svg>
