<?xml version="1.0" standalone="no"?>
<!DOCTYPE svg PUBLIC "-//W3C//DTD SVG 1.1//EN" "http://www.w3.org/Graphics/SVG/1.1/DTD/svg11.dtd" >
<svg xmlns="http://www.w3.org/2000/svg" xmlns:xlink="http://www.w3.org/1999/xlink" version="1.1" width="2048" height="2048" viewBox="-10 0 2068 2048">
   <path fill="currentColor"
d="M2037 179l-768 1792q-14 34 -46 55.5t-71 21.5q-53 0 -90.5 -37.5t-37.5 -90.5q0 -27 11 -51l768 -1792q14 -34 46 -55.5t71 -21.5q53 0 90.5 37.5t37.5 90.5q0 27 -11 51zM512 1621.5q0 105.5 -75.5 180.5t-180.5 75t-180.5 -75t-75.5 -180.5t75.5 -181t180.5 -75.5
t180.5 75.5t75.5 181z" />
</svg>
