<?xml version="1.0" standalone="no"?>
<!DOCTYPE svg PUBLIC "-//W3C//DTD SVG 1.1//EN" "http://www.w3.org/Graphics/SVG/1.1/DTD/svg11.dtd" >
<svg xmlns="http://www.w3.org/2000/svg" xmlns:xlink="http://www.w3.org/1999/xlink" version="1.1" width="2048" height="2048" viewBox="-10 0 2058 2048">
   <path fill="currentColor"
d="M64 320q0 -132 94 -226t226 -94h1119q39 0 67 28t28 68v959q0 40 -28 68t-67.5 28t-67.5 -28t-28 -68v-863h-1023q-53 0 -90.5 37.5t-37.5 90.5v858q61 -27 127 -27h1h151h304h152q40 0 68 28t28 68t-28 68t-68 28h-607q-53 0 -90.5 37.5t-37.5 90.5t37.5 90t90.5 37h607
q40 0 68 28t28 68t-28 68t-68 28h-607q-132 0 -226 -94t-94 -225v-1151zM1379 1307l219 220l220 -220q29 -30 70 -30q40 0 68 28t28 68q0 41 -30 70l-220 219q6 6 16.5 17t39.5 39.5t54.5 54t51.5 52t42 42.5l16 15q30 29 30 70q0 40 -28 68t-68 28q-41 0 -70 -30l-220 -220
l-219 220q-29 30 -70 30q-40 0 -68 -28t-28 -68q0 -41 30 -70l220 -220q-6 -6 -16.5 -17t-39.5 -39.5t-54.5 -53.5t-51.5 -51.5t-42 -42.5l-16 -15q-30 -29 -30 -70q0 -40 28 -68t68 -28q41 0 70 30z" />
</svg>
