<?xml version="1.0" standalone="no"?>
<!DOCTYPE svg PUBLIC "-//W3C//DTD SVG 1.1//EN" "http://www.w3.org/Graphics/SVG/1.1/DTD/svg11.dtd" >
<svg xmlns="http://www.w3.org/2000/svg" xmlns:xlink="http://www.w3.org/1999/xlink" version="1.1" width="2048" height="2048" viewBox="-10 0 2058 2048">
   <path fill="currentColor"
d="M64 320q0 -132 94 -226t226 -94h1120q40 0 68 28t28 68v448q0 40 -28 68t-68 28t-68 -28t-28 -68v-352h-1024q-53 0 -90.5 37.5t-37.5 90.5v859q61 -27 127 -27h1h88h176h88q40 0 68 28t28 68t-28 68t-68 28h-352q-53 0 -90.5 37.5t-37.5 90.5t37.5 90.5t90.5 37.5h352
q40 0 68 28t28 68t-28 68t-68 28h-352q-132 0 -226 -94t-94 -226v-1152zM1088 1302v-150q0 -159 112.5 -271.5t271.5 -112.5t271.5 112.5t112.5 271.5v150q58 27 93 81.5t35 120.5v320q0 93 -65.5 158.5t-158.5 65.5h-576q-93 0 -158.5 -65.5t-65.5 -158.5v-320
q0 -66 35 -120.5t93 -81.5zM1664 1280v-128q0 -79 -56.5 -135.5t-135.5 -56.5t-135.5 56.5t-56.5 135.5v128h384z" />
</svg>
