<?xml version="1.0" standalone="no"?>
<!DOCTYPE svg PUBLIC "-//W3C//DTD SVG 1.1//EN" "http://www.w3.org/Graphics/SVG/1.1/DTD/svg11.dtd" >
<svg xmlns="http://www.w3.org/2000/svg" xmlns:xlink="http://www.w3.org/1999/xlink" version="1.1" width="2048" height="2048" viewBox="-10 0 2068 2048">
   <path fill="currentColor"
d="M0 224q0 -93 65.5 -158.5t158.5 -65.5h1600q93 0 158.5 65.5t65.5 158.5v1216q0 93 -65.5 158.5t-158.5 65.5h-792l-330 329q-54 55 -131 55t-132 -54.5t-55 -131.5v-50v-99v-49h-160q-93 0 -158.5 -65.5t-65.5 -158.5v-1216zM224 192q-13 0 -22.5 9.5t-9.5 22.5v1216
q0 13 9.5 22.5t22.5 9.5h256q40 0 68 28t28 68v280l348 -348q28 -28 68 -28h208h416h208q13 0 22.5 -9.5t9.5 -22.5v-1216q0 -13 -9.5 -22.5t-22.5 -9.5h-1600zM1120 480v320q0 40 -28 68t-68 28t-68 -28t-28 -68v-320q0 -40 28 -68t68 -28t68 28t28 68zM1152 1152
q0 53 -37.5 90.5t-90.5 37.5t-90.5 -37.5t-37.5 -90.5t37.5 -90.5t90.5 -37.5t90.5 37.5t37.5 90.5z" />
</svg>
