<?xml version="1.0" standalone="no"?>
<!DOCTYPE svg PUBLIC "-//W3C//DTD SVG 1.1//EN" "http://www.w3.org/Graphics/SVG/1.1/DTD/svg11.dtd" >
<svg xmlns="http://www.w3.org/2000/svg" xmlns:xlink="http://www.w3.org/1999/xlink" version="1.1" width="2048" height="2048" viewBox="-10 0 2068 2048">
   <path fill="currentColor"
d="M109.5 1317q45.5 0 77.5 32t32 77v366q0 15 11 26t26 11h366q45 0 77 32t32 77.5t-32 77.5t-77 32h-366q-106 0 -181 -75t-75 -181v-366q0 -45 32 -77t77.5 -32zM1938.5 1317q45.5 0 77.5 32t32 77v366q0 106 -75 181t-181 75h-366q-45 0 -77 -32t-32 -77.5t32 -77.5
t77 -32h366q15 0 26 -11t11 -26v-366q0 -45 32 -77t77.5 -32zM256 219q-15 0 -26 11t-11 26v366q0 45 -32 77t-77.5 32t-77.5 -32t-32 -77v-366q0 -106 75 -181t181 -75h366q45 0 77 32t32 77.5t-32 77.5t-77 32h-366zM1317 109.5q0 -45.5 32 -77.5t77 -32h366q106 0 181 75
t75 181v366q0 45 -32 77t-77.5 32t-77.5 -32t-32 -77v-366q0 -15 -11 -26t-26 -11h-366q-45 0 -77 -32t-32 -77.5z" />
</svg>
