<?xml version="1.0" standalone="no"?>
<!DOCTYPE svg PUBLIC "-//W3C//DTD SVG 1.1//EN" "http://www.w3.org/Graphics/SVG/1.1/DTD/svg11.dtd" >
<svg xmlns="http://www.w3.org/2000/svg" xmlns:xlink="http://www.w3.org/1999/xlink" version="1.1" width="2048" height="2048" viewBox="-10 0 2068 2048">
   <path fill="currentColor"
d="M1426.5 0q45.5 0 77.5 32t32 78v365q0 15 11 26t26 11h365q46 0 78 32t32 77.5t-32 77.5t-78 32h-365q-107 0 -181.5 -74.5t-74.5 -181.5v-365q0 -46 32 -78t77.5 -32zM621.5 0q45.5 0 77.5 32t32 78v365q0 107 -74.5 181.5t-181.5 74.5h-365q-46 0 -78 -32t-32 -77.5
t32 -77.5t78 -32h365q15 0 26 -11t11 -26v-365q0 -46 32 -78t77.5 -32zM0 1426.5q0 -45.5 32 -77.5t78 -32h365q107 0 181.5 74.5t74.5 181.5v365q0 46 -32 78t-77.5 32t-77.5 -32t-32 -78v-365q0 -15 -11 -26t-26 -11h-365q-46 0 -78 -32t-32 -77.5zM1317 1573
q0 -107 74.5 -181.5t181.5 -74.5h365q46 0 78 32t32 77.5t-32 77.5t-78 32h-365q-15 0 -26 11t-11 26v365q0 46 -32 78t-77.5 32t-77.5 -32t-32 -78v-365z" />
</svg>
