<?xml version="1.0" standalone="no"?>
<!DOCTYPE svg PUBLIC "-//W3C//DTD SVG 1.1//EN" "http://www.w3.org/Graphics/SVG/1.1/DTD/svg11.dtd" >
<svg xmlns="http://www.w3.org/2000/svg" xmlns:xlink="http://www.w3.org/1999/xlink" version="1.1" width="2048" height="2048" viewBox="-10 0 2058 2048">
   <path fill="currentColor"
d="M440 880q-14 0 -24.5 10t-10.5 24v893q0 14 10.5 24.5t24.5 10.5h1168q14 0 24.5 -10.5t10.5 -24.5v-893q0 -14 -10.5 -24t-24.5 -10h-137q-43 0 -73 -30.5t-30 -73t30 -73t73 -30.5h137q100 0 170.5 70.5t70.5 170.5v893q0 100 -70.5 170.5t-170.5 70.5h-1168
q-100 0 -170.5 -70.5t-70.5 -170.5v-893q0 -100 70.5 -170.5t170.5 -70.5h137q43 0 73 30.5t30 73t-30 73t-73 30.5h-137zM999 11q11 -11 25 -11t25 11l99 99l199 199l99 99q11 11 11 25t-10.5 24t-24.5 10h-74h-147h-74v791q0 43 -30 73t-73 30t-73 -30t-30 -73v-791h-295
q-14 0 -24.5 -10t-10.5 -24t11 -25z" />
</svg>
