<?xml version="1.0" standalone="no"?>
<!DOCTYPE svg PUBLIC "-//W3C//DTD SVG 1.1//EN" "http://www.w3.org/Graphics/SVG/1.1/DTD/svg11.dtd" >
<svg xmlns="http://www.w3.org/2000/svg" xmlns:xlink="http://www.w3.org/1999/xlink" version="1.1" width="2048" height="2048" viewBox="-10 0 2058 2048">
   <path fill="currentColor"
d="M1984 383q0 104 -51.5 192.5t-140 140t-192.5 51.5q-81 0 -153 -31.5t-125 -88.5l-125 70l-252 140l-125 69q12 48 12 98q0 49 -12 97l502 279q53 -57 125 -88.5t153 -31.5q104 0 192.5 51.5t140 140t51.5 193t-51.5 192.5t-140 139.5t-193 51.5t-193 -51.5
t-139.5 -139.5t-51 -193q0 -49 12 -97l-502 -279q-53 57 -125 88.5t-153 31.5q-104 0 -192.5 -51.5t-140 -140t-51.5 -193t51.5 -193t140 -140t192.5 -51.5q81 0 153 31.5t125 87.5l52 -28q52 -29 125.5 -70t147.5 -82t125 -70l52 -28q-12 -47 -12 -96q0 -105 51.5 -193.5
t140 -139.5t192.5 -51t192.5 51t140 139.5t51.5 192.5zM1792 1664.5q0 -79.5 -56.5 -136t-136 -56.5t-135.5 56.5t-56 136t56 135.5t135.5 56t136 -56t56.5 -135.5zM640 1024q0 -80 -56.5 -136.5t-136 -56.5t-135.5 56.5t-56 136.5t56 136t135.5 56t136 -56t56.5 -136z
M1792 383.5q0 -79.5 -56.5 -136t-136 -56.5t-135.5 56.5t-56 136t56 135.5t135.5 56t136 -56t56.5 -135.5z" />
</svg>
