<?xml version="1.0" standalone="no"?>
<!DOCTYPE svg PUBLIC "-//W3C//DTD SVG 1.1//EN" "http://www.w3.org/Graphics/SVG/1.1/DTD/svg11.dtd" >
<svg xmlns="http://www.w3.org/2000/svg" xmlns:xlink="http://www.w3.org/1999/xlink" version="1.1" width="2048" height="2048" viewBox="-10 0 2058 2048">
   <path fill="currentColor"
d="M1094 11l688 220q70 23 115 83t45 136v461q0 354 -172 614q-203 311 -659 506q-41 17 -87 17t-87 -17q-456 -195 -659 -506q-172 -260 -172 -614v-461q0 -76 45 -136t115 -83l688 -220q34 -11 70 -11t70 11zM1014 199l-688 220q-23 7 -23 31v461q0 295 138 506
q172 262 573 432q5 2 10 2t10 -2q401 -171 573 -432q138 -211 138 -506v-461q0 -24 -23 -31l-688 -220q-5 -2 -10 -2t-10 2zM1454 817l-459 459q-28 29 -69 29t-70 -29l-49 -49t-98 -99l-50 -49q-31 -29 -31 -71q0 -35 21 -61t53 -35q13 -3 25 -3q42 0 72 31l127 127
l389 -389q28 -27 67 -27q40 0 69.5 29.5t29.5 69.5q0 38 -27 67z" />
</svg>
