<?xml version="1.0" standalone="no"?>
<!DOCTYPE svg PUBLIC "-//W3C//DTD SVG 1.1//EN" "http://www.w3.org/Graphics/SVG/1.1/DTD/svg11.dtd" >
<svg xmlns="http://www.w3.org/2000/svg" xmlns:xlink="http://www.w3.org/1999/xlink" version="1.1" width="2048" height="2048" viewBox="-10 0 2068 2048">
   <path fill="currentColor"
d="M1092 36l671 215q68 22 111.5 80.5t43.5 132.5v450q0 51 -4 103q-1 38 -29 64.5t-67 26.5q-38 0 -66.5 -28t-28.5 -67q0 -5 1 -10q3 -43 3 -89v-450q0 -23 -22 -30l-671 -215q-5 -2 -10 -2t-10 2q-17 5 -44.5 14t-86 28t-97.5 31l-38 13q-13 3 -27 3q-40 0 -68 -28
t-28 -68q0 -31 18 -55.5t46 -34.5q17 -6 44.5 -14.5t86 -27.5t97.5 -31l39 -13q33 -11 68 -11t68 11zM130 385l-88 -64q-42 -29 -42 -80q0 -39 28 -67.5t68 -28.5q32 0 58 20l463 336l926 670l463 336q42 29 42 79q0 39 -28 67.5t-68 28.5q-32 0 -58 -20l-41 -30t-81 -59
l-41 -30q-202 282 -622 462q-85 36 -170 0q-444 -190 -643 -493q-166 -254 -166 -598v-529zM321 523v391q0 287 135 493q168 254 558 421q10 4 20 0q372 -159 541 -397z" />
</svg>
