<?xml version="1.0" standalone="no"?>
<!DOCTYPE svg PUBLIC "-//W3C//DTD SVG 1.1//EN" "http://www.w3.org/Graphics/SVG/1.1/DTD/svg11.dtd" >
<svg xmlns="http://www.w3.org/2000/svg" xmlns:xlink="http://www.w3.org/1999/xlink" version="1.1" width="2048" height="2048" viewBox="-10 0 2058 2048">
   <path fill="currentColor"
d="M1377 0q113 0 204.5 57t142.5 158.5t51 228.5q0 336 -358 659q-36 33 -70 60l153 762q2 10 2 21q0 42 -30 72t-73 30q-18 0 -35 -6l-82 -30l-164 -60l-82 -30q-6 -2 -12 -2t-12 2l-82 30l-164 60l-82 30q-17 6 -35 6q-43 0 -73 -30t-30 -72q0 -11 2 -21l153 -762
q-36 -29 -71 -60q-357 -324 -357 -659q0 -127 51 -228.5t142.5 -158.5t204.5 -57q97 0 184.5 38.5t153.5 107.5l15 17l15 -17q61 -64 141.5 -102.5t170.5 -42.5q-1 0 6 -0.5t14 -0.5h6zM883 1296l-98 491l157 -57q39 -15 82 -15q30 0 59 8l23 7l157 57l-98 -490
q-36 24 -68 43l-24 13q-22 12 -49 12t-49 -12q-36 -20 -70 -42zM1377 205q-88 0 -158 55t-97 144q-9 35 -38 54.5t-60 19.5t-60 -19.5t-38 -54.5q-27 -89 -97 -144t-158 -55q-85 0 -139 65t-54 174q0 244 290 507q97 88 211 164l45 28l11 -6l34 -22q111 -74 211 -164
q290 -263 290 -507q0 -109 -54 -174t-139 -65z" />
</svg>
