<?xml version="1.0" standalone="no"?>
<!DOCTYPE svg PUBLIC "-//W3C//DTD SVG 1.1//EN" "http://www.w3.org/Graphics/SVG/1.1/DTD/svg11.dtd" >
<svg xmlns="http://www.w3.org/2000/svg" xmlns:xlink="http://www.w3.org/1999/xlink" version="1.1" width="2048" height="2048" viewBox="-10 0 2058 2048">
   <path fill="currentColor"
d="M907 31q53 -31 116 -31q64 0 116 31l166 96q166 97 333 193l166 97q53 31 73 87t0 112t-73 87l-665 385q-52 31 -116 31q-63 0 -116 -31l-166 -96q-166 -97 -332 -193l-166 -96q-37 -22 -59.5 -60.5t-22.5 -83.5t22.5 -83t59.5 -59zM1040 203q-7 -4 -16.5 -4t-16.5 4
l-154 89q-153 89 -306 179l-155 89l615 356q7 4 16.5 4t16.5 -4l153 -89q154 -89 307 -178l155 -89zM175 1013q13 -23 36 -36.5t50 -13.5q26 0 49 13l174 101q175 102 349 202l174 102q7 4 16.5 4t16.5 -4l174 -102l348 -202l174 -101q23 -13 50 -13q42 0 71 29t29 70
q0 27 -13.5 50.5t-36.5 35.5l-697 405q-52 31 -116 31q-63 0 -116 -31l-174 -101q-174 -102 -348 -202l-174 -102q-23 -12 -36.5 -35.5t-13.5 -50.5t14 -49zM175 1477q13 -23 36 -36.5t50 -13.5q26 0 49 14l174 101q175 101 349 201l174 102q7 4 16.5 4t16.5 -4l174 -101
q174 -101 348 -203l174 -100q23 -14 50 -14q42 0 71 29t29 71q0 27 -13.5 50t-36.5 36l-697 404q-52 31 -116 31q-63 0 -116 -31l-174 -101l-348 -202l-174 -101q-23 -13 -36.5 -36t-13.5 -50t14 -50z" />
</svg>
