<?xml version="1.0" standalone="no"?>
<!DOCTYPE svg PUBLIC "-//W3C//DTD SVG 1.1//EN" "http://www.w3.org/Graphics/SVG/1.1/DTD/svg11.dtd" >
<svg xmlns="http://www.w3.org/2000/svg" xmlns:xlink="http://www.w3.org/1999/xlink" version="1.1" width="2048" height="2048" viewBox="-10 0 2068 2048">
   <path fill="currentColor"
d="M1024 45q30 0 55 15.5t38 42.5l260 527l582 85q38 5 63.5 34t25.5 68q0 44 -31 75l-422 410l100 580q2 9 2 17q0 44 -31 74t-73 30q-26 0 -48 -12l-131 -68q-131 -69 -259 -137l-131 -69l-521 274q-22 12 -48 12q-42 0 -73 -30t-31 -74q0 -9 2 -17l100 -580l-422 -410
q-31 -31 -31 -75q0 -39 25.5 -68t63.5 -34l145 -22q145 -21 291 -42l146 -21l260 -527q13 -27 38 -42.5t55 -15.5z" />
</svg>
