<?xml version="1.0" standalone="no"?>
<!DOCTYPE svg PUBLIC "-//W3C//DTD SVG 1.1//EN" "http://www.w3.org/Graphics/SVG/1.1/DTD/svg11.dtd" >
<svg xmlns="http://www.w3.org/2000/svg" xmlns:xlink="http://www.w3.org/1999/xlink" version="1.1" width="2048" height="2048" viewBox="-10 0 2058 2048">
   <path fill="currentColor"
d="M736 96q0 -40 28 -68t68 -28h384q40 0 68 28t28 68t-28 68t-68 28h-96v128v5q248 28 443 184l1 -1l96 -96q29 -31 70 -31q34 0 59.5 20.5t33.5 52.5q3 12 3 24q0 41 -30 70l-96 96l-1 1q90 113 139.5 251t49.5 288q0 118 -31 230t-87 206.5t-135.5 174.5t-174.5 135.5
t-207 86.5t-229.5 31t-229.5 -31t-206.5 -86.5t-174.5 -135.5t-135.5 -174.5t-86.5 -206.5t-31 -230q0 -150 49.5 -288t139.5 -251l-1 -1l-96 -96q-26 -28 -26 -66q0 -39 28.5 -67.5t67.5 -28.5q38 0 66 26l24 24l48 48l24 24l1 1q195 -156 443 -184q-1 0 -1 -33t1 -67v-33
h-96q-40 0 -68 -28t-28 -68zM1024 1857q137 0 261 -53.5t214 -143.5t143.5 -214t53.5 -261t-53.5 -262t-143.5 -215t-214 -143t-261 -53t-261.5 53t-214.5 143t-143 215t-53 262t53 261t143 214t214.5 143.5t261.5 53.5zM1074 998l170 -170q28 -29 69 -29q40 0 68 28t28 68
q0 41 -29 69l-42 43l-86 86l-42 42q6 24 6 50q0 79 -56 135.5t-136 56.5q-79 -1 -134.5 -57t-55.5 -135t56 -136t136 -57q24 0 48 6z" />
</svg>
