<?xml version="1.0" standalone="no"?>
<!DOCTYPE svg PUBLIC "-//W3C//DTD SVG 1.1//EN" "http://www.w3.org/Graphics/SVG/1.1/DTD/svg11.dtd" >
<svg xmlns="http://www.w3.org/2000/svg" xmlns:xlink="http://www.w3.org/1999/xlink" version="1.1" width="2048" height="2048" viewBox="-10 0 2068 2048">
   <path fill="currentColor"
d="M1471 1115q57 59 88 135.5t31 158.5v1q0 104 -43.5 195.5t-121.5 155.5q-185 159 -534 159q-178 0 -327.5 -56t-242.5 -145q-30 -32 -30 -76q0 -45 32 -77t78 -32q41 0 72 27q61 57 170 98.5t248 41.5q268 0 392 -107q87 -74 87 -185q0 -102 -95 -175q-99 -77 -285 -119
h-880q-46 0 -78 -32t-32 -77.5t32 -77.5t78 -32h1828q46 0 78 32t32 77.5t-32 77.5t-78 32h-467zM962 347q-84 0 -155 17.5t-116 45t-76.5 62.5t-44.5 69.5t-13 67.5q0 12 1 23v8q0 46 -32 78t-78 32q-43 0 -74.5 -29.5t-35.5 -72.5q-1 -19 -1 -39q0 -100 46.5 -188
t127.5 -153t198 -102.5t253 -37.5q143 0 277.5 47t237.5 113q50 32 50 93q0 44 -32 76.5t-78 32.5q-32 0 -59 -18q-80 -51 -185.5 -88t-210.5 -37z" />
</svg>
