<?xml version="1.0" standalone="no"?>
<!DOCTYPE svg PUBLIC "-//W3C//DTD SVG 1.1//EN" "http://www.w3.org/Graphics/SVG/1.1/DTD/svg11.dtd" >
<svg xmlns="http://www.w3.org/2000/svg" xmlns:xlink="http://www.w3.org/1999/xlink" version="1.1" width="2048" height="2048" viewBox="-10 0 2068 2048">
   <path fill="currentColor"
d="M1024 1536q-139 0 -257 -68.5t-186.5 -186.5t-68.5 -257t68.5 -257t186.5 -186.5t257 -68.5t257 68.5t186.5 186.5t68.5 257t-68.5 257t-186.5 186.5t-257 68.5zM1024 1344q132 0 226 -94t94 -226t-94 -226t-226 -94t-226 94t-94 226t94 226t226 94zM1748 300
q28 28 28 68t-28 68l-34 34t-68 67l-34 34q-28 31 -70 31q-33 0 -59 -20.5t-34 -51.5q-3 -12 -3 -24q0 -42 31 -70l135 -136q28 -28 68 -28t68 28zM571 1476.5q28 28.5 28 68t-28 67.5l-33 34l-68 68l-34 34q-29 29 -69 29t-68 -28t-28 -68t29 -69l34 -34q34 -33 68 -67
l34 -34q28 -29 67.5 -29t67.5 28.5zM1024 0q40 0 68 28t28 68v192q0 40 -28 68t-68 28t-68 -28t-28 -68v-192q0 -40 28 -68t68 -28zM384 1024q0 40 -28 68t-68 28h-192q-40 0 -68 -28t-28 -68t28 -68t68 -28h192q40 0 68 28t28 68zM2048 1024q0 40 -28 68t-68 28h-192
q-40 0 -68 -28t-28 -68t28 -68t68 -28h192q40 0 68 28t28 68zM1024 1664q40 0 68 28t28 68v192q0 40 -28 68t-68 28t-68 -28t-28 -68v-192q0 -40 28 -68t68 -28zM1476.5 1477q28.5 -28 68 -28t67.5 28l34 33l68 68l34 34q27 28 27 67q0 40 -28 68t-68 28q-39 0 -67 -27
l-34 -34q-33 -34 -67 -68l-34 -34q-29 -28 -29 -67.5t28.5 -67.5zM300 300q28 -28 68 -28t68 28l34 34q34 34 67 68l34 34q26 27 26 65q0 40 -28 68t-68 28q-38 0 -65 -26l-34 -33l-68 -68l-34 -34q-28 -28 -28 -68t28 -68z" />
</svg>
