<?xml version="1.0" standalone="no"?>
<!DOCTYPE svg PUBLIC "-//W3C//DTD SVG 1.1//EN" "http://www.w3.org/Graphics/SVG/1.1/DTD/svg11.dtd" >
<svg xmlns="http://www.w3.org/2000/svg" xmlns:xlink="http://www.w3.org/1999/xlink" version="1.1" width="2048" height="2048" viewBox="-10 0 2068 2048">
   <path fill="currentColor"
d="M2048 293v1462q0 30 -21 52t-51.5 22t-52 -22t-21.5 -52v-1462q0 -31 21.5 -52.5t52 -21.5t51.5 21.5t21 52.5zM1101 1685q-22 24 -54 24q-30 0 -51.5 -22t-21.5 -52q0 -32 23 -53l485 -485h-1409q-30 0 -51.5 -21.5t-21.5 -52t21.5 -51.5t51.5 -21h1409l-485 -485
q-20 -21 -20 -50q0 -31 22 -52t51 -21t51 19l609 609q21 22 21 52.5t-21 51.5z" />
</svg>
