<?xml version="1.0" standalone="no"?>
<!DOCTYPE svg PUBLIC "-//W3C//DTD SVG 1.1//EN" "http://www.w3.org/Graphics/SVG/1.1/DTD/svg11.dtd" >
<svg xmlns="http://www.w3.org/2000/svg" xmlns:xlink="http://www.w3.org/1999/xlink" version="1.1" width="2048" height="2048" viewBox="-10 0 2068 2048">
   <path fill="currentColor"
d="M416 480q-13 0 -22.5 9.5t-9.5 22.5v1152q0 40 -28 68t-68 28h-192q-40 0 -68 -28t-28 -68t28 -68t68 -28h96v-1056q0 -93 65.5 -158.5t158.5 -65.5h1216q93 0 158.5 65.5t65.5 158.5v1056h96q40 0 68 28t28 68t-28 68t-68 28h-192q-40 0 -68 -28t-28 -68v-1152
q0 -13 -9.5 -22.5t-22.5 -9.5h-1216zM1020 988l-197 -197q-10 -10 -10 -23t9.5 -22.5t22.5 -9.5h531q13 0 22.5 9.5t9.5 22.5v88v172v194v77q0 13 -9.5 22.5t-22.5 9.5t-23 -10l-197 -197l-352 352q-29 30 -70 30q-40 0 -68 -28t-28 -68q0 -41 30 -70z" />
</svg>
