<?xml version="1.0" standalone="no"?>
<!DOCTYPE svg PUBLIC "-//W3C//DTD SVG 1.1//EN" "http://www.w3.org/Graphics/SVG/1.1/DTD/svg11.dtd" >
<svg xmlns="http://www.w3.org/2000/svg" xmlns:xlink="http://www.w3.org/1999/xlink" version="1.1" width="2048" height="2048" viewBox="-10 0 2068 2048">
   <path fill="currentColor"
d="M1528 36q49 -33 109 -33q52 0 97 26t70 69l219 379q25 45 25 96q0 57 -29.5 104t-79.5 71l-1573 757q-40 19 -85 19q-52 0 -97 -26t-70 -70l-88 -152q-26 -45 -26 -96q0 -50 22.5 -92t62.5 -69zM1093 1299q20 -10 41 -10q51 0 80 42l341 499q14 23 14 50q0 41 -28 69
t-68 28q-48 0 -77 -38l-243 -355v365q0 40 -28 68t-68.5 28t-69 -28t-28.5 -68v-365l-242 355q-29 42 -80 42q-40 0 -68.5 -28t-28.5 -69q0 -30 17 -54l66 -97t132 -192l66 -97q15 -21 38 -33zM1412 787l174 -84l-195 -340l-160 109zM415 1029l108 186l174 -84l-122 -211z
" />
</svg>
