<?xml version="1.0" standalone="no"?>
<!DOCTYPE svg PUBLIC "-//W3C//DTD SVG 1.1//EN" "http://www.w3.org/Graphics/SVG/1.1/DTD/svg11.dtd" >
<svg xmlns="http://www.w3.org/2000/svg" xmlns:xlink="http://www.w3.org/1999/xlink" version="1.1" width="2048" height="2048" viewBox="-10 0 2068 2048">
   <path fill="currentColor"
d="M412 891q-115 -16 -209.5 -83t-148.5 -170t-54 -222v-16v-32v-16q0 -93 65.5 -158.5t158.5 -65.5h174q22 -57 73 -92.5t114 -35.5h878q62 0 113.5 35t73.5 93h174q93 0 158.5 65.5t65.5 158.5v64q0 119 -54 222t-148.5 170t-209.5 83q-41 134 -134 238.5t-220 160.5
l18 185q1 13 15 26q18 18 47 29q71 26 114 73q60 65 60 157v96h160q40 0 68 28t28 68t-28 68t-68 28h-1344q-40 0 -68 -28t-28 -68t28 -68t68 -28h160v-96q0 -92 60 -157q43 -47 114 -73q26 -9 47 -29q14 -13 15 -26l18 -185q-127 -56 -220 -160.5t-134 -238.5zM576 201v503
q0 185 131.5 316.5t316.5 131.5t316.5 -131.5t131.5 -316.5v-503q0 -9 -9 -9h-878q-9 0 -9 9zM954 1340l-15 154q-4 43 -23 80t-46.5 63t-57 44t-61.5 30q-21 7 -38 22q-9 10 -9 27v96h640v-96q0 -17 -9 -27q-17 -15 -38 -22q-32 -12 -61.5 -30t-57 -44t-46.5 -63t-23 -80
l-15 -154q-35 4 -71 4q-34 0 -69 -4zM1664 320v368q85 -30 138.5 -104.5t53.5 -167.5v-64q0 -13 -9.5 -22.5t-22.5 -9.5h-160zM384 320h-160q-13 0 -22.5 9.5t-9.5 22.5v64q0 93 53.5 167.5t138.5 104.5v-368z" />
</svg>
