<?xml version="1.0" standalone="no"?>
<!DOCTYPE svg PUBLIC "-//W3C//DTD SVG 1.1//EN" "http://www.w3.org/Graphics/SVG/1.1/DTD/svg11.dtd" >
<svg xmlns="http://www.w3.org/2000/svg" xmlns:xlink="http://www.w3.org/1999/xlink" version="1.1" width="2048" height="2048" viewBox="-10 0 2068 2048">
   <path fill="currentColor"
d="M858 1376h-561l-111 320q-11 27 -35.5 44.5t-54.5 17.5q-40 0 -68 -28.5t-28 -67.5q0 -15 5 -30q-1 0 108 -310q108 -309 217 -620l108 -310q17 -46 57 -75t90 -29q51 0 91.5 30t56.5 76l414 1240q5 14 5 29q0 40 -28.5 68t-67.5 28q-32 0 -57 -18t-35 -47zM1260 818
q31 -58 78.5 -100.5t103 -65.5t110 -33.5t112.5 -10.5q73 0 141 22.5t122.5 63.5t87.5 105.5t33 141.5v723q0 40 -28 68t-68 28q-30 0 -54.5 -17t-34.5 -44q-115 61 -263 61q-159 0 -266 -91q-56 -47 -87 -114t-31 -147q0 -70 28 -135t86 -114q120 -103 334 -103h192v-115
q0 -57 -51 -99t-141 -42q-176 0 -236 110q-12 23 -34.5 36.5t-49.5 13.5q-40 0 -68 -28t-28 -68q0 -24 12 -46zM794 1184l-210 -628l-219 628h429zM1856 1248h-192q-143 0 -210 57q-46 40 -46 103q0 72 50 115q54 45 142 45q125 0 203 -57q21 -15 33.5 -31.5t16 -25.5
t3.5 -14v-192z" />
</svg>
