<?xml version="1.0" standalone="no"?>
<!DOCTYPE svg PUBLIC "-//W3C//DTD SVG 1.1//EN" "http://www.w3.org/Graphics/SVG/1.1/DTD/svg11.dtd" >
<svg xmlns="http://www.w3.org/2000/svg" xmlns:xlink="http://www.w3.org/1999/xlink" version="1.1" width="2048" height="2048" viewBox="-10 0 2068 2048">
   <path fill="currentColor"
d="M1627 739q76 -79 76 -190q0 -113 -80 -193t-193 -80q-111 0 -189 77l-115 114q-29 31 -73 31q-43 0 -73 -30t-30 -72q0 -43 31 -74l114 -114q67 -66 154.5 -103t184.5 -37t185.5 38t152.5 102t101.5 152.5t37.5 185.5t-36.5 184.5t-102.5 153.5l-27 27q-30 27 -70 27
q-42 0 -72.5 -30t-30.5 -73q0 -39 28 -69l7 -7l13 -13zM1372 1215q-5 5 -10 11q-66 66 -149 111t-171 60q-97 18 -190.5 -6.5t-165.5 -96.5q-32 -31 -32 -75q0 -42 30 -72t72 -30q44 0 75 32q67 66 175 48q107 -19 197 -104l-169 -122q-1 0 -3 -1l-39 -29
q-97 -60 -195.5 -52.5t-170.5 78.5l-341 342q-83 81 -83 196q0 113 80 193t193 80q116 0 196 -83l29 -29l56 -56l29 -29q30 -28 70 -28q42 0 72.5 30t30.5 72q0 41 -28 71l-29 28q-28 28 -56 57l-29 29q-66 66 -153.5 103t-184.5 37t-185.5 -38t-152.5 -102t-102 -152.5
t-38 -185.5t37 -184.5t103 -153.5l341 -342q79 -80 186 -115l-488 -351q-42 -31 -42 -83q0 -43 29.5 -72.5t72.5 -29.5q33 0 60 19l202 145q203 146 405 292l202 146q22 13 46 32l851 614q43 31 43 83q0 43 -30 72.5t-72 29.5q-33 0 -60 -19l-53 -38q-53 -39 -128.5 -93.5
t-151.5 -108.5t-129 -93z" />
</svg>
