<?xml version="1.0" standalone="no"?>
<!DOCTYPE svg PUBLIC "-//W3C//DTD SVG 1.1//EN" "http://www.w3.org/Graphics/SVG/1.1/DTD/svg11.dtd" >
<svg xmlns="http://www.w3.org/2000/svg" xmlns:xlink="http://www.w3.org/1999/xlink" version="1.1" width="2048" height="2048" viewBox="-10 0 2068 2048">
   <path fill="currentColor"
d="M704 544q0 81 41.5 149t110.5 105q24 12 37.5 35t13.5 50q0 24 -11 45l-331 621q-13 23 -35.5 37t-49.5 14q-40 0 -68 -28t-28 -68q0 -24 11 -45q19 -35 49 -91t93.5 -175.5t106.5 -198.5l42 -80q-81 -68 -127.5 -164t-46.5 -206q0 -98 38 -186.5t102.5 -153t153 -102.5
t186.5 -38t186.5 38t153 102.5t102.5 153t38 186.5q0 40 -28 68t-68 28t-68 -28t-28 -68q0 -119 -84.5 -203.5t-203.5 -84.5t-203.5 84.5t-84.5 203.5zM943 462q22 -14 49 -14q26 0 48 12.5t34 34.5l334 556q77 -27 160 -27q97 0 186 38t153.5 102.5t102.5 153.5t38 186.5
t-38 186t-102.5 153t-153.5 102.5t-186 38q-129 0 -240 -64q-22 -13 -35 -35t-13 -48q0 -40 28 -68.5t68 -28.5q26 0 48 13q67 39 144 39q119 0 203.5 -84.5t84.5 -203.5t-84.5 -203.5t-203.5 -84.5q-79 0 -148 41q-23 14 -50 14q-25 0 -47 -13t-35 -34l-378 -631
q-14 -22 -14 -49q0 -26 12.5 -48t34.5 -34zM371 1123q13 22 13 48t-13 48.5t-35 34.5q-66 38 -105 104.5t-39 145.5q0 119 84 203.5t203.5 84.5t204 -84.5t84.5 -203.5q0 -40 28 -68t68 -28h704q40 0 68 28t28 68t-28 68t-68 28h-618q-33 166 -165 275t-305 109
q-98 0 -186.5 -38t-153 -102.5t-102.5 -153.5t-38 -186q0 -132 65 -242.5t175 -173.5q22 -13 48 -13t48 13t35 35z" />
</svg>
