<?xml version="1.0" standalone="no"?>
<!DOCTYPE svg PUBLIC "-//W3C//DTD SVG 1.1//EN" "http://www.w3.org/Graphics/SVG/1.1/DTD/svg11.dtd" >
<svg xmlns="http://www.w3.org/2000/svg" xmlns:xlink="http://www.w3.org/1999/xlink" version="1.1" width="2048" height="2048" viewBox="-10 0 2068 2048">
   <path fill="currentColor"
d="M0 224q0 -93 65.5 -158.5t158.5 -65.5h448q93 0 158.5 65.5t65.5 158.5v448q0 93 -65.5 158.5t-158.5 65.5h-160v512q0 53 37.5 90.5t90.5 37.5h512v-160q0 -93 65.5 -158.5t158.5 -65.5h448q93 0 158.5 65.5t65.5 158.5v448q0 93 -65.5 158.5t-158.5 65.5h-448
q-93 0 -158.5 -65.5t-65.5 -158.5v-96h-512q-132 0 -226 -94t-94 -226v-512h-96q-93 0 -158.5 -65.5t-65.5 -158.5v-448zM224 192q-13 0 -22.5 9.5t-9.5 22.5v448q0 13 9.5 22.5t22.5 9.5h448q13 0 22.5 -9.5t9.5 -22.5v-448q0 -13 -9.5 -22.5t-22.5 -9.5h-448zM1376 1344
q-13 0 -22.5 9.5t-9.5 22.5v448q0 13 9.5 22.5t22.5 9.5h448q13 0 22.5 -9.5t9.5 -22.5v-448q0 -13 -9.5 -22.5t-22.5 -9.5h-448z" />
</svg>
