<?xml version="1.0" standalone="no"?>
<!DOCTYPE svg PUBLIC "-//W3C//DTD SVG 1.1//EN" "http://www.w3.org/Graphics/SVG/1.1/DTD/svg11.dtd" >
<svg xmlns="http://www.w3.org/2000/svg" xmlns:xlink="http://www.w3.org/1999/xlink" version="1.1" width="2048" height="2048" viewBox="-10 0 2068 2048">
   <path fill="currentColor"
d="M303 299q142 -141 328.5 -220t394.5 -79q139 0 271 36.5t244.5 103t206.5 160.5t160 206t103 244.5t37 271.5q0 208 -79 394.5t-220 328.5q-142 143 -329.5 223t-397.5 80q-175 0 -337.5 -57.5t-291 -158t-222.5 -241t-137 -303.5q-34 -127 -34 -262q0 -210 80 -397.5
t223 -329.5zM439 1609q115 116 266.5 180t321.5 64q113 0 220.5 -30t198.5 -83t168 -130t130 -168t83 -198.5t30 -220.5q0 -174 -67 -328.5t-187 -270.5q-115 -110 -263 -170.5t-313 -60.5q-113 0 -220.5 30t-198.5 83t-168 130t-130.5 168t-83 198.5t-29.5 220.5
q0 169 63.5 320t178.5 266zM774 635l252 251l252 -251q28 -31 69 -31q34 0 59.5 20.5t33.5 52.5q3 12 3 24q0 41 -30 69l-251 252l251 252q31 28 31 69q0 34 -20.5 59.5t-52.5 33.5q-12 3 -24 3q-41 0 -69 -30l-252 -251l-252 251q-28 31 -69 31q-34 0 -59.5 -20.5
t-33.5 -52.5q-3 -12 -3 -24q0 -41 30 -69l251 -252l-251 -252q-26 -27 -26 -65q0 -39 28.5 -67.5t67.5 -28.5q38 0 65 26z" />
</svg>
