<?xml version="1.0" standalone="no"?>
<!DOCTYPE svg PUBLIC "-//W3C//DTD SVG 1.1//EN" "http://www.w3.org/Graphics/SVG/1.1/DTD/svg11.dtd" >
<svg xmlns="http://www.w3.org/2000/svg" xmlns:xlink="http://www.w3.org/1999/xlink" version="1.1" width="2048" height="2048" viewBox="-10 0 2068 2048">
   <path fill="currentColor"
d="M300 1748q-142 -142 -221 -329t-79 -395q0 -139 36.5 -271.5t103 -245t161 -207t206.5 -160.5t245 -103t272 -37q208 0 395.5 79t329 221t220.5 329t79 395q0 139 -36.5 271.5t-102.5 245t-161 207t-207 160.5t-245 103t-272 37q-208 0 -395 -79t-329 -221zM772 636
q-28 -26 -66 -26q-39 0 -67.5 28.5t-28.5 67.5q0 38 26 66l63 63l126 126l63 63l-252 252q-31 29 -31 70q0 34 20.5 59.5t52.5 33.5q12 3 24 3q41 0 70 -30l252 -252l252 252q29 31 70 31q34 0 59.5 -20.5t33.5 -52.5q3 -12 3 -24q0 -41 -30 -70l-252 -252l252 -252
q31 -29 31 -70q0 -34 -20.5 -59.5t-52.5 -33.5q-12 -3 -24 -3q-41 0 -70 30l-252 252z" />
</svg>
