<?xml version="1.0" standalone="no"?>
<!DOCTYPE svg PUBLIC "-//W3C//DTD SVG 1.1//EN" "http://www.w3.org/Graphics/SVG/1.1/DTD/svg11.dtd" >
<svg xmlns="http://www.w3.org/2000/svg" xmlns:xlink="http://www.w3.org/1999/xlink" version="1.1" width="2048" height="2048" viewBox="-10 0 2068 2048">
   <path fill="currentColor"
d="M479.5 960q0.5 -40 28.5 -68t68 -28h288v-288q0 -40 28 -68t68 -28t68 28t28 68v288h288q40 0 68 28t28 68t-28.5 68t-67.5 28h-288v288q0 40 -28.5 68t-68.5 28t-68 -28t-27 -68v-288h-288q-41 0 -69 -28t-27.5 -68zM960 0q130 0 254 34.5t229.5 96.5t194 150.5
t150.5 194t97 230t35 254.5q0 170 -57 325.5t-161 282.5q0 -1 80 78l158 159l80 79q28 28 28 68t-28.5 68t-68.5 28t-67 -28l-316 -317q-128 104 -283.5 160.5t-324.5 56.5q-130 0 -255 -34.5t-230 -96.5t-193 -150.5t-150 -194t-97 -230t-35 -255t35 -255t96 -229.5
t150 -193.5t194 -150.5t230 -96.5t255 -34.5zM191.5 960q0.5 208 103.5 385t280 280t385 103t385 -103t280 -280t103 -385t-103.5 -385t-280 -280t-385 -103t-385 103t-280 280t-103 385z" />
</svg>
