<?xml version="1.0" standalone="no"?>
<!DOCTYPE svg PUBLIC "-//W3C//DTD SVG 1.1//EN" "http://www.w3.org/Graphics/SVG/1.1/DTD/svg11.dtd" >
<svg xmlns="http://www.w3.org/2000/svg" xmlns:xlink="http://www.w3.org/1999/xlink" version="1.1" width="2048" height="2048" viewBox="-10 0 2068 2048">
   <path fill="currentColor"
d="M576 864h768q40 0 68 28t28 68t-28 68t-68 28h-768q-40 0 -68 -28t-28 -68t28 -68t68 -28zM0 960q0 -130 34.5 -254.5t96.5 -230t150.5 -194t194 -150.5t230 -96.5t254.5 -34.5t254.5 34.5t230 96.5t194 150.5t150.5 194t96.5 230t34.5 254.5q0 170 -56.5 325.5
t-160.5 282.5q0 -1 79 78l159 159l79 79q28 28 28 68t-28 68t-68 28t-68 -28l-316 -317q-127 104 -282.5 160.5t-324.5 56.5q-131 0 -255.5 -34.5t-229.5 -96.5t-194 -150.5t-151 -194t-96.5 -230t-34.5 -254.5zM960 192q-208 0 -385 103t-280 280t-103 385t103 385t280 280
t385 103t385 -103t280 -280t103 -385t-103 -385t-280 -280t-385 -103z" />
</svg>
