<?xml version="1.0" standalone="no"?>
<!DOCTYPE svg PUBLIC "-//W3C//DTD SVG 1.1//EN" "http://www.w3.org/Graphics/SVG/1.1/DTD/svg11.dtd" >
<svg xmlns="http://www.w3.org/2000/svg" xmlns:xlink="http://www.w3.org/1999/xlink" version="1.1" width="2048" height="2048" viewBox="-10 0 2068 2048">
   <path fill="currentColor"
d="M154 149l382 277l2 1l1084 786l2 1l382 276q42 29 42 80q0 39 -28 67.5t-68 28.5q-32 0 -58 -20l-58 -42l-115 -84l-58 -42v346q0 40 -28 67.5t-68 27.5q-33 0 -58 -20l-121 -92t-243 -185l-121 -93l-485 370q-25 20 -58 20q-40 0 -68 -27.5t-28 -67.5v-1271l-343 -248
q-42 -29 -42 -80q0 -39 28 -67.5t68 -28.5q32 0 58 20zM577 692v938l389 -297q25 -20 58 -20t58 20l97 74q98 74 195 148l97 75v-290zM752 131h687q93 0 158.5 65.5t65.5 158.5v463q0 40 -28 67.5t-68 27.5t-68 -27.5t-28 -67.5v-463q0 -13 -9.5 -22.5t-22.5 -9.5h-687
q-40 0 -68 -28t-28 -68t28 -68t68 -28z" />
</svg>
